<?xml version="1.0" standalone="no"?>
 <!DOCTYPE svg PUBLIC "-//W3C//DTD SVG 1.1//EN" 
 "http://www.w3.org/Graphics/SVG/1.1/DTD/svg11.dtd"> 
<svg
  xmlns:svg="http://www.w3.org/2000/svg"
  xmlns="http://www.w3.org/2000/svg"
  xmlns:xlink="http://www.w3.org/1999/xlink"
  version="1.1"
  width="27.1272mm" height="11.4300mm" viewBox="0.0000 0.0000 27.1272 11.4300">
<title>SVG Image created as working-brd.svg date 2024/03/25 15:19:05 </title>
  <desc>Image generated by PCBNEW </desc>
<g style="fill:#000000; fill-opacity:1.0000;stroke:#000000; stroke-opacity:1.0000;
stroke-linecap:round; stroke-linejoin:round;"
 transform="translate(0 0) scale(1 1)">
</g>
<g style="fill:none; 
stroke:#FFFFFF; stroke-width:0.5000; stroke-opacity:1; 
stroke-linecap:round; stroke-linejoin:round;">
<path d="M9.1221 4.1750
L9.1221 3.3750
" />
<path d="M13.1671 6.8250
L13.9671 6.8250
" />
<path d="M18.0121 4.1750
L18.0121 3.3750
" />
</g>
<g style="fill:none; 
stroke:#02FFEE; stroke-width:1.4000; stroke-opacity:1; 
stroke-linecap:round; stroke-linejoin:round;">
<path d="M9.1221 4.0250
L9.1221 3.5250
" />
<path d="M13.3171 6.8250
L13.8171 6.8250
" />
<path d="M18.0121 4.0250
L18.0121 3.5250
" />
</g>
<g style="fill:none; 
stroke:#FFFFFF; stroke-width:0.5000; stroke-opacity:1; 
stroke-linecap:round; stroke-linejoin:round;">
<path d="M9.1221 4.1750
L9.1221 3.3750
" />
<path d="M13.1671 6.8250
L13.9671 6.8250
" />
<path d="M18.0121 4.1750
L18.0121 3.3750
" />
</g>
<g style="fill:none; 
stroke:#FFFFFF; stroke-width:0.5000; stroke-opacity:1; 
stroke-linecap:round; stroke-linejoin:round;">
<path d="M9.1221 4.1750
L9.1221 3.3750
" />
<path d="M13.1671 6.8250
L13.9671 6.8250
" />
<path d="M18.0121 4.1750
L18.0121 3.3750
" />
</g>
<g style="fill:none; 
stroke:#D864FF; stroke-width:1.4000; stroke-opacity:1; 
stroke-linecap:round; stroke-linejoin:round;">
<path d="M9.1221 4.0250
L9.1221 3.5250
" />
<path d="M13.3171 6.8250
L13.8171 6.8250
" />
<path d="M18.0121 4.0250
L18.0121 3.5250
" />
</g>
<g style="fill:none; 
stroke:#F2EDA1; stroke-width:0.1588; stroke-opacity:1; 
stroke-linecap:round; stroke-linejoin:round;">
<text x="13.5671" y="7.4600"
textLength="5.6651" font-size="1.6933" lengthAdjust="spacingAndGlyphs"
text-anchor="middle" opacity="0">REF**</text>
<g class="stroked-text"><desc>REF**</desc>
<path d="M11.8737 7.4043
L11.4504 6.7995
" />
<path d="M11.1480 7.4043
L11.1480 6.1343
" />
<path d="M11.1480 6.1343
L11.6318 6.1343
" />
<path d="M11.6318 6.1343
L11.7528 6.1947
" />
<path d="M11.7528 6.1947
L11.8133 6.2552
" />
<path d="M11.8133 6.2552
L11.8737 6.3762
" />
<path d="M11.8737 6.3762
L11.8737 6.5576
" />
<path d="M11.8737 6.5576
L11.8133 6.6786
" />
<path d="M11.8133 6.6786
L11.7528 6.7390
" />
<path d="M11.7528 6.7390
L11.6318 6.7995
" />
<path d="M11.6318 6.7995
L11.1480 6.7995
" />
<path d="M12.4180 6.7390
L12.8414 6.7390
" />
<path d="M13.0228 7.4043
L12.4180 7.4043
" />
<path d="M12.4180 7.4043
L12.4180 6.1343
" />
<path d="M12.4180 6.1343
L13.0228 6.1343
" />
<path d="M13.9904 6.7390
L13.5671 6.7390
" />
<path d="M13.5671 7.4043
L13.5671 6.1343
" />
<path d="M13.5671 6.1343
L14.1718 6.1343
" />
<path d="M14.8371 6.1343
L14.8371 6.4367
" />
<path d="M14.5347 6.3157
L14.8371 6.4367
" />
<path d="M14.8371 6.4367
L15.1395 6.3157
" />
<path d="M14.6556 6.6786
L14.8371 6.4367
" />
<path d="M14.8371 6.4367
L15.0185 6.6786
" />
<path d="M15.8047 6.1343
L15.8047 6.4367
" />
<path d="M15.5023 6.3157
L15.8047 6.4367
" />
<path d="M15.8047 6.4367
L16.1071 6.3157
" />
<path d="M15.6233 6.6786
L15.8047 6.4367
" />
<path d="M15.8047 6.4367
L15.9861 6.6786
" />
</g></g>
<g style="fill:none; 
stroke:#F2EDA1; stroke-width:0.1200; stroke-opacity:1; 
stroke-linecap:round; stroke-linejoin:round;">
<path d="M8.8171 4.8250
L8.8171 7.0250
" />
<path d="M8.8171 7.0250
L10.8171 7.0250
" />
<path d="M18.3171 4.8250
L18.3171 7.0250
" />
<path d="M18.3171 7.0250
L16.3171 7.0250
" />
</g>
<g style="fill:none; 
stroke:#FFFFFF; stroke-width:0.5000; stroke-opacity:1; 
stroke-linecap:round; stroke-linejoin:round;">
<path d="M9.1221 4.1750
L9.1221 3.3750
" />
<path d="M13.1671 6.8250
L13.9671 6.8250
" />
<path d="M18.0121 4.1750
L18.0121 3.3750
" />
</g>
<g style="fill:none; 
stroke:#FF26E2; stroke-width:0.0500; stroke-opacity:1; 
stroke-linecap:round; stroke-linejoin:round;">
<path d="M7.8171 0.0250
L10.2171 0.0250
" />
<path d="M7.8171 7.3250
L7.8171 0.0250
" />
<path d="M10.2171 5.6250
L10.2171 0.0250
" />
<path d="M10.5171 7.3250
L7.8171 7.3250
" />
<path d="M10.5171 11.4250
L10.5171 7.3250
" />
<path d="M16.6171 7.3250
L16.6171 11.4250
" />
<path d="M16.6171 7.3250
L19.3171 7.3250
" />
<path d="M16.6171 11.4250
L10.5171 11.4250
" />
<path d="M16.9171 0.0250
L19.3171 0.0250
" />
<path d="M16.9171 5.6250
L10.2171 5.6250
" />
<path d="M16.9171 5.6250
L16.9171 0.0250
" />
<path d="M19.3171 0.0250
L19.3171 7.3250
" />
</g>
<g style="fill:none; 
stroke:#AFAFAF; stroke-width:0.1588; stroke-opacity:1; 
stroke-linecap:round; stroke-linejoin:round;">
<text x="13.5671" y="7.4600"
textLength="27.1342" font-size="1.6933" lengthAdjust="spacingAndGlyphs"
text-anchor="middle" opacity="0">BatteryHolder_Keystone_590</text>
<g class="stroked-text"><desc>BatteryHolder_Keystone_590</desc>
<path d="M0.8368 6.7390
L1.0183 6.7995
" />
<path d="M1.0183 6.7995
L1.0787 6.8600
" />
<path d="M1.0787 6.8600
L1.1392 6.9809
" />
<path d="M1.1392 6.9809
L1.1392 7.1624
" />
<path d="M1.1392 7.1624
L1.0787 7.2833
" />
<path d="M1.0787 7.2833
L1.0183 7.3438
" />
<path d="M1.0183 7.3438
L0.8973 7.4043
" />
<path d="M0.8973 7.4043
L0.4135 7.4043
" />
<path d="M0.4135 7.4043
L0.4135 6.1343
" />
<path d="M0.4135 6.1343
L0.8368 6.1343
" />
<path d="M0.8368 6.1343
L0.9578 6.1947
" />
<path d="M0.9578 6.1947
L1.0183 6.2552
" />
<path d="M1.0183 6.2552
L1.0787 6.3762
" />
<path d="M1.0787 6.3762
L1.0787 6.4971
" />
<path d="M1.0787 6.4971
L1.0183 6.6181
" />
<path d="M1.0183 6.6181
L0.9578 6.6786
" />
<path d="M0.9578 6.6786
L0.8368 6.7390
" />
<path d="M0.8368 6.7390
L0.4135 6.7390
" />
<path d="M2.2278 7.4043
L2.2278 6.7390
" />
<path d="M2.2278 6.7390
L2.1673 6.6181
" />
<path d="M2.1673 6.6181
L2.0464 6.5576
" />
<path d="M2.0464 6.5576
L1.8045 6.5576
" />
<path d="M1.8045 6.5576
L1.6835 6.6181
" />
<path d="M2.2278 7.3438
L2.1068 7.4043
" />
<path d="M2.1068 7.4043
L1.8045 7.4043
" />
<path d="M1.8045 7.4043
L1.6835 7.3438
" />
<path d="M1.6835 7.3438
L1.6230 7.2228
" />
<path d="M1.6230 7.2228
L1.6230 7.1019
" />
<path d="M1.6230 7.1019
L1.6835 6.9809
" />
<path d="M1.6835 6.9809
L1.8045 6.9205
" />
<path d="M1.8045 6.9205
L2.1068 6.9205
" />
<path d="M2.1068 6.9205
L2.2278 6.8600
" />
<path d="M2.6511 6.5576
L3.1349 6.5576
" />
<path d="M2.8326 6.1343
L2.8326 7.2228
" />
<path d="M2.8326 7.2228
L2.8930 7.3438
" />
<path d="M2.8930 7.3438
L3.0140 7.4043
" />
<path d="M3.0140 7.4043
L3.1349 7.4043
" />
<path d="M3.3768 6.5576
L3.8606 6.5576
" />
<path d="M3.5583 6.1343
L3.5583 7.2228
" />
<path d="M3.5583 7.2228
L3.6187 7.3438
" />
<path d="M3.6187 7.3438
L3.7397 7.4043
" />
<path d="M3.7397 7.4043
L3.8606 7.4043
" />
<path d="M4.7678 7.3438
L4.6468 7.4043
" />
<path d="M4.6468 7.4043
L4.4049 7.4043
" />
<path d="M4.4049 7.4043
L4.2840 7.3438
" />
<path d="M4.2840 7.3438
L4.2235 7.2228
" />
<path d="M4.2235 7.2228
L4.2235 6.7390
" />
<path d="M4.2235 6.7390
L4.2840 6.6181
" />
<path d="M4.2840 6.6181
L4.4049 6.5576
" />
<path d="M4.4049 6.5576
L4.6468 6.5576
" />
<path d="M4.6468 6.5576
L4.7678 6.6181
" />
<path d="M4.7678 6.6181
L4.8283 6.7390
" />
<path d="M4.8283 6.7390
L4.8283 6.8600
" />
<path d="M4.8283 6.8600
L4.2235 6.9809
" />
<path d="M5.3726 7.4043
L5.3726 6.5576
" />
<path d="M5.3726 6.7995
L5.4330 6.6786
" />
<path d="M5.4330 6.6786
L5.4935 6.6181
" />
<path d="M5.4935 6.6181
L5.6145 6.5576
" />
<path d="M5.6145 6.5576
L5.7354 6.5576
" />
<path d="M6.0378 6.5576
L6.3402 7.4043
" />
<path d="M6.6426 6.5576
L6.3402 7.4043
" />
<path d="M6.3402 7.4043
L6.2192 7.7067
" />
<path d="M6.2192 7.7067
L6.1587 7.7671
" />
<path d="M6.1587 7.7671
L6.0378 7.8276
" />
<path d="M7.1264 7.4043
L7.1264 6.1343
" />
<path d="M7.1264 6.7390
L7.8521 6.7390
" />
<path d="M7.8521 7.4043
L7.8521 6.1343
" />
<path d="M8.6383 7.4043
L8.5173 7.3438
" />
<path d="M8.5173 7.3438
L8.4568 7.2833
" />
<path d="M8.4568 7.2833
L8.3964 7.1624
" />
<path d="M8.3964 7.1624
L8.3964 6.7995
" />
<path d="M8.3964 6.7995
L8.4568 6.6786
" />
<path d="M8.4568 6.6786
L8.5173 6.6181
" />
<path d="M8.5173 6.6181
L8.6383 6.5576
" />
<path d="M8.6383 6.5576
L8.8197 6.5576
" />
<path d="M8.8197 6.5576
L8.9406 6.6181
" />
<path d="M8.9406 6.6181
L9.0011 6.6786
" />
<path d="M9.0011 6.6786
L9.0616 6.7995
" />
<path d="M9.0616 6.7995
L9.0616 7.1624
" />
<path d="M9.0616 7.1624
L9.0011 7.2833
" />
<path d="M9.0011 7.2833
L8.9406 7.3438
" />
<path d="M8.9406 7.3438
L8.8197 7.4043
" />
<path d="M8.8197 7.4043
L8.6383 7.4043
" />
<path d="M9.7873 7.4043
L9.6664 7.3438
" />
<path d="M9.6664 7.3438
L9.6059 7.2228
" />
<path d="M9.6059 7.2228
L9.6059 6.1343
" />
<path d="M10.8154 7.4043
L10.8154 6.1343
" />
<path d="M10.8154 7.3438
L10.6945 7.4043
" />
<path d="M10.6945 7.4043
L10.4526 7.4043
" />
<path d="M10.4526 7.4043
L10.3316 7.3438
" />
<path d="M10.3316 7.3438
L10.2711 7.2833
" />
<path d="M10.2711 7.2833
L10.2106 7.1624
" />
<path d="M10.2106 7.1624
L10.2106 6.7995
" />
<path d="M10.2106 6.7995
L10.2711 6.6786
" />
<path d="M10.2711 6.6786
L10.3316 6.6181
" />
<path d="M10.3316 6.6181
L10.4526 6.5576
" />
<path d="M10.4526 6.5576
L10.6945 6.5576
" />
<path d="M10.6945 6.5576
L10.8154 6.6181
" />
<path d="M11.9040 7.3438
L11.7830 7.4043
" />
<path d="M11.7830 7.4043
L11.5411 7.4043
" />
<path d="M11.5411 7.4043
L11.4202 7.3438
" />
<path d="M11.4202 7.3438
L11.3597 7.2228
" />
<path d="M11.3597 7.2228
L11.3597 6.7390
" />
<path d="M11.3597 6.7390
L11.4202 6.6181
" />
<path d="M11.4202 6.6181
L11.5411 6.5576
" />
<path d="M11.5411 6.5576
L11.7830 6.5576
" />
<path d="M11.7830 6.5576
L11.9040 6.6181
" />
<path d="M11.9040 6.6181
L11.9645 6.7390
" />
<path d="M11.9645 6.7390
L11.9645 6.8600
" />
<path d="M11.9645 6.8600
L11.3597 6.9809
" />
<path d="M12.5087 7.4043
L12.5087 6.5576
" />
<path d="M12.5087 6.7995
L12.5692 6.6786
" />
<path d="M12.5692 6.6786
L12.6297 6.6181
" />
<path d="M12.6297 6.6181
L12.7506 6.5576
" />
<path d="M12.7506 6.5576
L12.8716 6.5576
" />
<path d="M12.9926 7.5252
L13.9602 7.5252
" />
<path d="M14.2626 7.4043
L14.2626 6.1343
" />
<path d="M14.9883 7.4043
L14.4440 6.6786
" />
<path d="M14.9883 6.1343
L14.2626 6.8600
" />
<path d="M16.0164 7.3438
L15.8954 7.4043
" />
<path d="M15.8954 7.4043
L15.6535 7.4043
" />
<path d="M15.6535 7.4043
L15.5326 7.3438
" />
<path d="M15.5326 7.3438
L15.4721 7.2228
" />
<path d="M15.4721 7.2228
L15.4721 6.7390
" />
<path d="M15.4721 6.7390
L15.5326 6.6181
" />
<path d="M15.5326 6.6181
L15.6535 6.5576
" />
<path d="M15.6535 6.5576
L15.8954 6.5576
" />
<path d="M15.8954 6.5576
L16.0164 6.6181
" />
<path d="M16.0164 6.6181
L16.0768 6.7390
" />
<path d="M16.0768 6.7390
L16.0768 6.8600
" />
<path d="M16.0768 6.8600
L15.4721 6.9809
" />
<path d="M16.5002 6.5576
L16.8026 7.4043
" />
<path d="M17.1049 6.5576
L16.8026 7.4043
" />
<path d="M16.8026 7.4043
L16.6816 7.7067
" />
<path d="M16.6816 7.7067
L16.6211 7.7671
" />
<path d="M16.6211 7.7671
L16.5002 7.8276
" />
<path d="M17.5283 7.3438
L17.6492 7.4043
" />
<path d="M17.6492 7.4043
L17.8911 7.4043
" />
<path d="M17.8911 7.4043
L18.0121 7.3438
" />
<path d="M18.0121 7.3438
L18.0726 7.2228
" />
<path d="M18.0726 7.2228
L18.0726 7.1624
" />
<path d="M18.0726 7.1624
L18.0121 7.0414
" />
<path d="M18.0121 7.0414
L17.8911 6.9809
" />
<path d="M17.8911 6.9809
L17.7097 6.9809
" />
<path d="M17.7097 6.9809
L17.5887 6.9205
" />
<path d="M17.5887 6.9205
L17.5283 6.7995
" />
<path d="M17.5283 6.7995
L17.5283 6.7390
" />
<path d="M17.5283 6.7390
L17.5887 6.6181
" />
<path d="M17.5887 6.6181
L17.7097 6.5576
" />
<path d="M17.7097 6.5576
L17.8911 6.5576
" />
<path d="M17.8911 6.5576
L18.0121 6.6181
" />
<path d="M18.4354 6.5576
L18.9192 6.5576
" />
<path d="M18.6168 6.1343
L18.6168 7.2228
" />
<path d="M18.6168 7.2228
L18.6773 7.3438
" />
<path d="M18.6773 7.3438
L18.7983 7.4043
" />
<path d="M18.7983 7.4043
L18.9192 7.4043
" />
<path d="M19.5240 7.4043
L19.4030 7.3438
" />
<path d="M19.4030 7.3438
L19.3425 7.2833
" />
<path d="M19.3425 7.2833
L19.2821 7.1624
" />
<path d="M19.2821 7.1624
L19.2821 6.7995
" />
<path d="M19.2821 6.7995
L19.3425 6.6786
" />
<path d="M19.3425 6.6786
L19.4030 6.6181
" />
<path d="M19.4030 6.6181
L19.5240 6.5576
" />
<path d="M19.5240 6.5576
L19.7054 6.5576
" />
<path d="M19.7054 6.5576
L19.8264 6.6181
" />
<path d="M19.8264 6.6181
L19.8868 6.6786
" />
<path d="M19.8868 6.6786
L19.9473 6.7995
" />
<path d="M19.9473 6.7995
L19.9473 7.1624
" />
<path d="M19.9473 7.1624
L19.8868 7.2833
" />
<path d="M19.8868 7.2833
L19.8264 7.3438
" />
<path d="M19.8264 7.3438
L19.7054 7.4043
" />
<path d="M19.7054 7.4043
L19.5240 7.4043
" />
<path d="M20.4916 6.5576
L20.4916 7.4043
" />
<path d="M20.4916 6.6786
L20.5521 6.6181
" />
<path d="M20.5521 6.6181
L20.6730 6.5576
" />
<path d="M20.6730 6.5576
L20.8545 6.5576
" />
<path d="M20.8545 6.5576
L20.9754 6.6181
" />
<path d="M20.9754 6.6181
L21.0359 6.7390
" />
<path d="M21.0359 6.7390
L21.0359 7.4043
" />
<path d="M22.1245 7.3438
L22.0035 7.4043
" />
<path d="M22.0035 7.4043
L21.7616 7.4043
" />
<path d="M21.7616 7.4043
L21.6406 7.3438
" />
<path d="M21.6406 7.3438
L21.5802 7.2228
" />
<path d="M21.5802 7.2228
L21.5802 6.7390
" />
<path d="M21.5802 6.7390
L21.6406 6.6181
" />
<path d="M21.6406 6.6181
L21.7616 6.5576
" />
<path d="M21.7616 6.5576
L22.0035 6.5576
" />
<path d="M22.0035 6.5576
L22.1245 6.6181
" />
<path d="M22.1245 6.6181
L22.1849 6.7390
" />
<path d="M22.1849 6.7390
L22.1849 6.8600
" />
<path d="M22.1849 6.8600
L21.5802 6.9809
" />
<path d="M22.4268 7.5252
L23.3945 7.5252
" />
<path d="M24.3016 6.1343
L23.6968 6.1343
" />
<path d="M23.6968 6.1343
L23.6364 6.7390
" />
<path d="M23.6364 6.7390
L23.6968 6.6786
" />
<path d="M23.6968 6.6786
L23.8178 6.6181
" />
<path d="M23.8178 6.6181
L24.1202 6.6181
" />
<path d="M24.1202 6.6181
L24.2411 6.6786
" />
<path d="M24.2411 6.6786
L24.3016 6.7390
" />
<path d="M24.3016 6.7390
L24.3621 6.8600
" />
<path d="M24.3621 6.8600
L24.3621 7.1624
" />
<path d="M24.3621 7.1624
L24.3016 7.2833
" />
<path d="M24.3016 7.2833
L24.2411 7.3438
" />
<path d="M24.2411 7.3438
L24.1202 7.4043
" />
<path d="M24.1202 7.4043
L23.8178 7.4043
" />
<path d="M23.8178 7.4043
L23.6968 7.3438
" />
<path d="M23.6968 7.3438
L23.6364 7.2833
" />
<path d="M24.9668 7.4043
L25.2087 7.4043
" />
<path d="M25.2087 7.4043
L25.3297 7.3438
" />
<path d="M25.3297 7.3438
L25.3902 7.2833
" />
<path d="M25.3902 7.2833
L25.5111 7.1019
" />
<path d="M25.5111 7.1019
L25.5716 6.8600
" />
<path d="M25.5716 6.8600
L25.5716 6.3762
" />
<path d="M25.5716 6.3762
L25.5111 6.2552
" />
<path d="M25.5111 6.2552
L25.4506 6.1947
" />
<path d="M25.4506 6.1947
L25.3297 6.1343
" />
<path d="M25.3297 6.1343
L25.0878 6.1343
" />
<path d="M25.0878 6.1343
L24.9668 6.1947
" />
<path d="M24.9668 6.1947
L24.9064 6.2552
" />
<path d="M24.9064 6.2552
L24.8459 6.3762
" />
<path d="M24.8459 6.3762
L24.8459 6.6786
" />
<path d="M24.8459 6.6786
L24.9064 6.7995
" />
<path d="M24.9064 6.7995
L24.9668 6.8600
" />
<path d="M24.9668 6.8600
L25.0878 6.9205
" />
<path d="M25.0878 6.9205
L25.3297 6.9205
" />
<path d="M25.3297 6.9205
L25.4506 6.8600
" />
<path d="M25.4506 6.8600
L25.5111 6.7995
" />
<path d="M25.5111 6.7995
L25.5716 6.6786
" />
<path d="M26.3578 6.1343
L26.4787 6.1343
" />
<path d="M26.4787 6.1343
L26.5997 6.1947
" />
<path d="M26.5997 6.1947
L26.6602 6.2552
" />
<path d="M26.6602 6.2552
L26.7206 6.3762
" />
<path d="M26.7206 6.3762
L26.7811 6.6181
" />
<path d="M26.7811 6.6181
L26.7811 6.9205
" />
<path d="M26.7811 6.9205
L26.7206 7.1624
" />
<path d="M26.7206 7.1624
L26.6602 7.2833
" />
<path d="M26.6602 7.2833
L26.5997 7.3438
" />
<path d="M26.5997 7.3438
L26.4787 7.4043
" />
<path d="M26.4787 7.4043
L26.3578 7.4043
" />
<path d="M26.3578 7.4043
L26.2368 7.3438
" />
<path d="M26.2368 7.3438
L26.1764 7.2833
" />
<path d="M26.1764 7.2833
L26.1159 7.1624
" />
<path d="M26.1159 7.1624
L26.0554 6.9205
" />
<path d="M26.0554 6.9205
L26.0554 6.6181
" />
<path d="M26.0554 6.6181
L26.1159 6.3762
" />
<path d="M26.1159 6.3762
L26.1764 6.2552
" />
<path d="M26.1764 6.2552
L26.2368 6.1947
" />
<path d="M26.2368 6.1947
L26.3578 6.1343
" />
</g></g>
<g style="fill:none; 
stroke:#AFAFAF; stroke-width:0.1500; stroke-opacity:1; 
stroke-linecap:round; stroke-linejoin:round;">
<text x="13.5671" y="5.3250"
textLength="4.5357" font-size="1.3333" lengthAdjust="spacingAndGlyphs"
text-anchor="middle" opacity="0">REF**</text>
<g class="stroked-text"><desc>REF**</desc>
<path d="M12.2337 5.2798
L11.9004 4.8036
" />
<path d="M11.6623 5.2798
L11.6623 4.2798
" />
<path d="M11.6623 4.2798
L12.0433 4.2798
" />
<path d="M12.0433 4.2798
L12.1385 4.3274
" />
<path d="M12.1385 4.3274
L12.1861 4.3751
" />
<path d="M12.1861 4.3751
L12.2337 4.4703
" />
<path d="M12.2337 4.4703
L12.2337 4.6132
" />
<path d="M12.2337 4.6132
L12.1861 4.7084
" />
<path d="M12.1861 4.7084
L12.1385 4.7560
" />
<path d="M12.1385 4.7560
L12.0433 4.8036
" />
<path d="M12.0433 4.8036
L11.6623 4.8036
" />
<path d="M12.6623 4.7560
L12.9956 4.7560
" />
<path d="M13.1385 5.2798
L12.6623 5.2798
" />
<path d="M12.6623 5.2798
L12.6623 4.2798
" />
<path d="M12.6623 4.2798
L13.1385 4.2798
" />
<path d="M13.9004 4.7560
L13.5671 4.7560
" />
<path d="M13.5671 5.2798
L13.5671 4.2798
" />
<path d="M13.5671 4.2798
L14.0433 4.2798
" />
<path d="M14.5671 4.2798
L14.5671 4.5179
" />
<path d="M14.3290 4.4227
L14.5671 4.5179
" />
<path d="M14.5671 4.5179
L14.8052 4.4227
" />
<path d="M14.4242 4.7084
L14.5671 4.5179
" />
<path d="M14.5671 4.5179
L14.7099 4.7084
" />
<path d="M15.3290 4.2798
L15.3290 4.5179
" />
<path d="M15.0909 4.4227
L15.3290 4.5179
" />
<path d="M15.3290 4.5179
L15.5671 4.4227
" />
<path d="M15.1861 4.7084
L15.3290 4.5179
" />
<path d="M15.3290 4.5179
L15.4718 4.7084
" />
</g></g>
<g style="fill:none; 
stroke:#AFAFAF; stroke-width:0.1000; stroke-opacity:1; 
stroke-linecap:round; stroke-linejoin:round;">
<path d="M9.0171 6.8250
L9.0171 0.5250
" />
<path d="M9.3171 0.5250
L9.0171 0.5250
" />
<path d="M9.3171 6.5250
L9.3171 0.5250
" />
<path d="M11.0171 9.9250
L16.1171 9.9250
" />
<path d="M11.0171 10.9250
L11.0171 6.8250
" />
<path d="M16.1171 6.8250
L16.1171 10.9250
" />
<path d="M16.1171 10.9250
L11.0171 10.9250
" />
<path d="M17.8171 0.5250
L17.8171 6.5250
" />
<path d="M17.8171 6.5250
L9.3171 6.5250
" />
<path d="M18.1171 0.5250
L17.8171 0.5250
" />
<path d="M18.1171 6.8250
L9.0171 6.8250
" />
<path d="M18.1171 6.8250
L18.1171 0.5250
" />
</g> 
</svg>
