<?xml version="1.0" standalone="no"?>
 <!DOCTYPE svg PUBLIC "-//W3C//DTD SVG 1.1//EN" 
 "http://www.w3.org/Graphics/SVG/1.1/DTD/svg11.dtd"> 
<svg
  xmlns:svg="http://www.w3.org/2000/svg"
  xmlns="http://www.w3.org/2000/svg"
  xmlns:xlink="http://www.w3.org/1999/xlink"
  version="1.1"
  width="24.4602mm" height="2.6670mm" viewBox="0.0000 0.0000 24.4602 2.6670">
<title>SVG Image created as working-brd.svg date 2024/04/20 08:52:35 </title>
  <desc>Image generated by PCBNEW </desc>
<g style="fill:#000000; fill-opacity:1.0000;stroke:#000000; stroke-opacity:1.0000;
stroke-linecap:round; stroke-linejoin:round;"
 transform="translate(0 0) scale(1 1)">
<path style="fill:#C83434; fill-opacity:1.0000; stroke:none;fill-rule:evenodd;"
d="M 11.0116,0.6750
11.0173,0.6463
11.0336,0.6220
11.0579,0.6057
11.0866,0.6000
11.5866,0.6000
11.6153,0.6057
11.6396,0.6220
11.6559,0.6463
11.6616,0.6750
11.6616,0.8250
11.6559,0.8537
11.6396,0.8780
11.6153,0.8943
11.5866,0.9000
11.0866,0.9000
11.0579,0.8943
11.0336,0.8780
11.0173,0.8537
11.0116,0.8250
Z" /> 
<path style="fill:#C83434; fill-opacity:1.0000; stroke:none;fill-rule:evenodd;"
d="M 11.0116,1.3250
11.0173,1.2963
11.0336,1.2720
11.0579,1.2557
11.0866,1.2500
11.5866,1.2500
11.6153,1.2557
11.6396,1.2720
11.6559,1.2963
11.6616,1.3250
11.6616,1.4750
11.6559,1.5037
11.6396,1.5280
11.6153,1.5443
11.5866,1.5500
11.0866,1.5500
11.0579,1.5443
11.0336,1.5280
11.0173,1.5037
11.0116,1.4750
Z" /> 
<path style="fill:#C83434; fill-opacity:1.0000; stroke:none;fill-rule:evenodd;"
d="M 11.0116,1.9750
11.0173,1.9463
11.0336,1.9220
11.0579,1.9057
11.0866,1.9000
11.5866,1.9000
11.6153,1.9057
11.6396,1.9220
11.6559,1.9463
11.6616,1.9750
11.6616,2.1250
11.6559,2.1537
11.6396,2.1780
11.6153,2.1943
11.5866,2.2000
11.0866,2.2000
11.0579,2.1943
11.0336,2.1780
11.0173,2.1537
11.0116,2.1250
Z" /> 
<path style="fill:#C83434; fill-opacity:1.0000; stroke:none;fill-rule:evenodd;"
d="M 12.8116,1.9750
12.8173,1.9463
12.8336,1.9220
12.8579,1.9057
12.8866,1.9000
13.3866,1.9000
13.4153,1.9057
13.4396,1.9220
13.4559,1.9463
13.4616,1.9750
13.4616,2.1250
13.4559,2.1537
13.4396,2.1780
13.4153,2.1943
13.3866,2.2000
12.8866,2.2000
12.8579,2.1943
12.8336,2.1780
12.8173,2.1537
12.8116,2.1250
Z" /> 
<path style="fill:#C83434; fill-opacity:1.0000; stroke:none;fill-rule:evenodd;"
d="M 12.8116,1.3250
12.8173,1.2963
12.8336,1.2720
12.8579,1.2557
12.8866,1.2500
13.3866,1.2500
13.4153,1.2557
13.4396,1.2720
13.4559,1.2963
13.4616,1.3250
13.4616,1.4750
13.4559,1.5037
13.4396,1.5280
13.4153,1.5443
13.3866,1.5500
12.8866,1.5500
12.8579,1.5443
12.8336,1.5280
12.8173,1.5037
12.8116,1.4750
Z" /> 
<path style="fill:#C83434; fill-opacity:1.0000; stroke:none;fill-rule:evenodd;"
d="M 12.8116,0.6750
12.8173,0.6463
12.8336,0.6220
12.8579,0.6057
12.8866,0.6000
13.3866,0.6000
13.4153,0.6057
13.4396,0.6220
13.4559,0.6463
13.4616,0.6750
13.4616,0.8250
13.4559,0.8537
13.4396,0.8780
13.4153,0.8943
13.3866,0.9000
12.8866,0.9000
12.8579,0.8943
12.8336,0.8780
12.8173,0.8537
12.8116,0.8250
Z" /> 
<path style="fill:#D864FF; fill-opacity:0.4000; stroke:none;fill-rule:evenodd;"
d="M 11.0116,0.6750
11.0173,0.6463
11.0336,0.6220
11.0579,0.6057
11.0866,0.6000
11.5866,0.6000
11.6153,0.6057
11.6396,0.6220
11.6559,0.6463
11.6616,0.6750
11.6616,0.8250
11.6559,0.8537
11.6396,0.8780
11.6153,0.8943
11.5866,0.9000
11.0866,0.9000
11.0579,0.8943
11.0336,0.8780
11.0173,0.8537
11.0116,0.8250
Z" /> 
<path style="fill:#D864FF; fill-opacity:0.4000; stroke:none;fill-rule:evenodd;"
d="M 11.0116,1.3250
11.0173,1.2963
11.0336,1.2720
11.0579,1.2557
11.0866,1.2500
11.5866,1.2500
11.6153,1.2557
11.6396,1.2720
11.6559,1.2963
11.6616,1.3250
11.6616,1.4750
11.6559,1.5037
11.6396,1.5280
11.6153,1.5443
11.5866,1.5500
11.0866,1.5500
11.0579,1.5443
11.0336,1.5280
11.0173,1.5037
11.0116,1.4750
Z" /> 
<path style="fill:#D864FF; fill-opacity:0.4000; stroke:none;fill-rule:evenodd;"
d="M 11.0116,1.9750
11.0173,1.9463
11.0336,1.9220
11.0579,1.9057
11.0866,1.9000
11.5866,1.9000
11.6153,1.9057
11.6396,1.9220
11.6559,1.9463
11.6616,1.9750
11.6616,2.1250
11.6559,2.1537
11.6396,2.1780
11.6153,2.1943
11.5866,2.2000
11.0866,2.2000
11.0579,2.1943
11.0336,2.1780
11.0173,2.1537
11.0116,2.1250
Z" /> 
<path style="fill:#D864FF; fill-opacity:0.4000; stroke:none;fill-rule:evenodd;"
d="M 12.8116,1.9750
12.8173,1.9463
12.8336,1.9220
12.8579,1.9057
12.8866,1.9000
13.3866,1.9000
13.4153,1.9057
13.4396,1.9220
13.4559,1.9463
13.4616,1.9750
13.4616,2.1250
13.4559,2.1537
13.4396,2.1780
13.4153,2.1943
13.3866,2.2000
12.8866,2.2000
12.8579,2.1943
12.8336,2.1780
12.8173,2.1537
12.8116,2.1250
Z" /> 
<path style="fill:#D864FF; fill-opacity:0.4000; stroke:none;fill-rule:evenodd;"
d="M 12.8116,1.3250
12.8173,1.2963
12.8336,1.2720
12.8579,1.2557
12.8866,1.2500
13.3866,1.2500
13.4153,1.2557
13.4396,1.2720
13.4559,1.2963
13.4616,1.3250
13.4616,1.4750
13.4559,1.5037
13.4396,1.5280
13.4153,1.5443
13.3866,1.5500
12.8866,1.5500
12.8579,1.5443
12.8336,1.5280
12.8173,1.5037
12.8116,1.4750
Z" /> 
<path style="fill:#D864FF; fill-opacity:0.4000; stroke:none;fill-rule:evenodd;"
d="M 12.8116,0.6750
12.8173,0.6463
12.8336,0.6220
12.8579,0.6057
12.8866,0.6000
13.3866,0.6000
13.4153,0.6057
13.4396,0.6220
13.4559,0.6463
13.4616,0.6750
13.4616,0.8250
13.4559,0.8537
13.4396,0.8780
13.4153,0.8943
13.3866,0.9000
12.8866,0.9000
12.8579,0.8943
12.8336,0.8780
12.8173,0.8537
12.8116,0.8250
Z" /> 
<path style="fill:#B4A09A; fill-opacity:0.9000; stroke:none;fill-rule:evenodd;"
d="M 11.0116,0.6750
11.0173,0.6463
11.0336,0.6220
11.0579,0.6057
11.0866,0.6000
11.5866,0.6000
11.6153,0.6057
11.6396,0.6220
11.6559,0.6463
11.6616,0.6750
11.6616,0.8250
11.6559,0.8537
11.6396,0.8780
11.6153,0.8943
11.5866,0.9000
11.0866,0.9000
11.0579,0.8943
11.0336,0.8780
11.0173,0.8537
11.0116,0.8250
Z" /> 
<path style="fill:#B4A09A; fill-opacity:0.9000; stroke:none;fill-rule:evenodd;"
d="M 11.0116,1.3250
11.0173,1.2963
11.0336,1.2720
11.0579,1.2557
11.0866,1.2500
11.5866,1.2500
11.6153,1.2557
11.6396,1.2720
11.6559,1.2963
11.6616,1.3250
11.6616,1.4750
11.6559,1.5037
11.6396,1.5280
11.6153,1.5443
11.5866,1.5500
11.0866,1.5500
11.0579,1.5443
11.0336,1.5280
11.0173,1.5037
11.0116,1.4750
Z" /> 
<path style="fill:#B4A09A; fill-opacity:0.9000; stroke:none;fill-rule:evenodd;"
d="M 11.0116,1.9750
11.0173,1.9463
11.0336,1.9220
11.0579,1.9057
11.0866,1.9000
11.5866,1.9000
11.6153,1.9057
11.6396,1.9220
11.6559,1.9463
11.6616,1.9750
11.6616,2.1250
11.6559,2.1537
11.6396,2.1780
11.6153,2.1943
11.5866,2.2000
11.0866,2.2000
11.0579,2.1943
11.0336,2.1780
11.0173,2.1537
11.0116,2.1250
Z" /> 
<path style="fill:#B4A09A; fill-opacity:0.9000; stroke:none;fill-rule:evenodd;"
d="M 12.8116,1.9750
12.8173,1.9463
12.8336,1.9220
12.8579,1.9057
12.8866,1.9000
13.3866,1.9000
13.4153,1.9057
13.4396,1.9220
13.4559,1.9463
13.4616,1.9750
13.4616,2.1250
13.4559,2.1537
13.4396,2.1780
13.4153,2.1943
13.3866,2.2000
12.8866,2.2000
12.8579,2.1943
12.8336,2.1780
12.8173,2.1537
12.8116,2.1250
Z" /> 
<path style="fill:#B4A09A; fill-opacity:0.9000; stroke:none;fill-rule:evenodd;"
d="M 12.8116,1.3250
12.8173,1.2963
12.8336,1.2720
12.8579,1.2557
12.8866,1.2500
13.3866,1.2500
13.4153,1.2557
13.4396,1.2720
13.4559,1.2963
13.4616,1.3250
13.4616,1.4750
13.4559,1.5037
13.4396,1.5280
13.4153,1.5443
13.3866,1.5500
12.8866,1.5500
12.8579,1.5443
12.8336,1.5280
12.8173,1.5037
12.8116,1.4750
Z" /> 
<path style="fill:#B4A09A; fill-opacity:0.9000; stroke:none;fill-rule:evenodd;"
d="M 12.8116,0.6750
12.8173,0.6463
12.8336,0.6220
12.8579,0.6057
12.8866,0.6000
13.3866,0.6000
13.4153,0.6057
13.4396,0.6220
13.4559,0.6463
13.4616,0.6750
13.4616,0.8250
13.4559,0.8537
13.4396,0.8780
13.4153,0.8943
13.3866,0.9000
12.8866,0.9000
12.8579,0.8943
12.8336,0.8780
12.8173,0.8537
12.8116,0.8250
Z" /> 
</g>
<g style="fill:none; 
stroke:#F2EDA1; stroke-width:0.1588; stroke-opacity:1; 
stroke-linecap:round; stroke-linejoin:round;">
<text x="12.2366" y="2.0350"
textLength="5.6651" font-size="1.6933" lengthAdjust="spacingAndGlyphs"
text-anchor="middle" opacity="0">REF**</text>
<g class="stroked-text"><desc>REF**</desc>
<path d="M10.5433 1.9793
L10.1199 1.3745
" />
<path d="M9.8176 1.9793
L9.8176 0.7093
" />
<path d="M9.8176 0.7093
L10.3014 0.7093
" />
<path d="M10.3014 0.7093
L10.4223 0.7697
" />
<path d="M10.4223 0.7697
L10.4828 0.8302
" />
<path d="M10.4828 0.8302
L10.5433 0.9512
" />
<path d="M10.5433 0.9512
L10.5433 1.1326
" />
<path d="M10.5433 1.1326
L10.4828 1.2536
" />
<path d="M10.4828 1.2536
L10.4223 1.3140
" />
<path d="M10.4223 1.3140
L10.3014 1.3745
" />
<path d="M10.3014 1.3745
L9.8176 1.3745
" />
<path d="M11.0876 1.3140
L11.5109 1.3140
" />
<path d="M11.6923 1.9793
L11.0876 1.9793
" />
<path d="M11.0876 1.9793
L11.0876 0.7093
" />
<path d="M11.0876 0.7093
L11.6923 0.7093
" />
<path d="M12.6599 1.3140
L12.2366 1.3140
" />
<path d="M12.2366 1.9793
L12.2366 0.7093
" />
<path d="M12.2366 0.7093
L12.8414 0.7093
" />
<path d="M13.5066 0.7093
L13.5066 1.0117
" />
<path d="M13.2042 0.8907
L13.5066 1.0117
" />
<path d="M13.5066 1.0117
L13.8090 0.8907
" />
<path d="M13.3252 1.2536
L13.5066 1.0117
" />
<path d="M13.5066 1.0117
L13.6880 1.2536
" />
<path d="M14.4742 0.7093
L14.4742 1.0117
" />
<path d="M14.1718 0.8907
L14.4742 1.0117
" />
<path d="M14.4742 1.0117
L14.7766 0.8907
" />
<path d="M14.2928 1.2536
L14.4742 1.0117
" />
<path d="M14.4742 1.0117
L14.6556 1.2536
" />
</g></g>
<g style="fill:none; 
stroke:#F2EDA1; stroke-width:0.1200; stroke-opacity:1; 
stroke-linecap:round; stroke-linejoin:round;">
<path d="M11.2566 2.5000
L13.2266 2.5000
" />
<path d="M11.5366 0.3000
L13.2366 0.3000
" />
<path style="fill:#F2EDA1; fill-opacity:1.0000; 
stroke:#F2EDA1; stroke-width:0.1200; stroke-opacity:1; 
stroke-linecap:round; stroke-linejoin:round;fill-rule:evenodd;"
d="M 11.1366,0.3400
10.8566,0.3400
11.1366,0.0600
Z" /> 
</g>
<g style="fill:none; 
stroke:#FF26E2; stroke-width:0.0500; stroke-opacity:1; 
stroke-linecap:round; stroke-linejoin:round;">
<path d="M10.7566 0.1500
L10.7566 2.6500
" />
<path d="M10.7566 2.6500
L13.7166 2.6500
" />
<path d="M13.7166 0.1500
L10.7566 0.1500
" />
<path d="M13.7166 2.6500
L13.7166 0.1500
" />
</g>
<g style="fill:none; 
stroke:#AFAFAF; stroke-width:0.1588; stroke-opacity:1; 
stroke-linecap:round; stroke-linejoin:round;">
<text x="12.2366" y="2.0350"
textLength="24.4732" font-size="1.6933" lengthAdjust="spacingAndGlyphs"
text-anchor="middle" opacity="0">Lite-On_LTR-303ALS-01</text>
<g class="stroked-text"><desc>Lite-On_LTR-303ALS-01</desc>
<path d="M1.0183 1.9793
L0.4135 1.9793
" />
<path d="M0.4135 1.9793
L0.4135 0.7093
" />
<path d="M1.4416 1.9793
L1.4416 1.1326
" />
<path d="M1.4416 0.7093
L1.3811 0.7697
" />
<path d="M1.3811 0.7697
L1.4416 0.8302
" />
<path d="M1.4416 0.8302
L1.5021 0.7697
" />
<path d="M1.5021 0.7697
L1.4416 0.7093
" />
<path d="M1.4416 0.7093
L1.4416 0.8302
" />
<path d="M1.8649 1.1326
L2.3487 1.1326
" />
<path d="M2.0464 0.7093
L2.0464 1.7978
" />
<path d="M2.0464 1.7978
L2.1068 1.9188
" />
<path d="M2.1068 1.9188
L2.2278 1.9793
" />
<path d="M2.2278 1.9793
L2.3487 1.9793
" />
<path d="M3.2559 1.9188
L3.1349 1.9793
" />
<path d="M3.1349 1.9793
L2.8930 1.9793
" />
<path d="M2.8930 1.9793
L2.7721 1.9188
" />
<path d="M2.7721 1.9188
L2.7116 1.7978
" />
<path d="M2.7116 1.7978
L2.7116 1.3140
" />
<path d="M2.7116 1.3140
L2.7721 1.1931
" />
<path d="M2.7721 1.1931
L2.8930 1.1326
" />
<path d="M2.8930 1.1326
L3.1349 1.1326
" />
<path d="M3.1349 1.1326
L3.2559 1.1931
" />
<path d="M3.2559 1.1931
L3.3164 1.3140
" />
<path d="M3.3164 1.3140
L3.3164 1.4350
" />
<path d="M3.3164 1.4350
L2.7116 1.5559
" />
<path d="M3.8606 1.4955
L4.8283 1.4955
" />
<path d="M5.6749 0.7093
L5.9168 0.7093
" />
<path d="M5.9168 0.7093
L6.0378 0.7697
" />
<path d="M6.0378 0.7697
L6.1587 0.8907
" />
<path d="M6.1587 0.8907
L6.2192 1.1326
" />
<path d="M6.2192 1.1326
L6.2192 1.5559
" />
<path d="M6.2192 1.5559
L6.1587 1.7978
" />
<path d="M6.1587 1.7978
L6.0378 1.9188
" />
<path d="M6.0378 1.9188
L5.9168 1.9793
" />
<path d="M5.9168 1.9793
L5.6749 1.9793
" />
<path d="M5.6749 1.9793
L5.5540 1.9188
" />
<path d="M5.5540 1.9188
L5.4330 1.7978
" />
<path d="M5.4330 1.7978
L5.3726 1.5559
" />
<path d="M5.3726 1.5559
L5.3726 1.1326
" />
<path d="M5.3726 1.1326
L5.4330 0.8907
" />
<path d="M5.4330 0.8907
L5.5540 0.7697
" />
<path d="M5.5540 0.7697
L5.6749 0.7093
" />
<path d="M6.7635 1.1326
L6.7635 1.9793
" />
<path d="M6.7635 1.2536
L6.8240 1.1931
" />
<path d="M6.8240 1.1931
L6.9449 1.1326
" />
<path d="M6.9449 1.1326
L7.1264 1.1326
" />
<path d="M7.1264 1.1326
L7.2473 1.1931
" />
<path d="M7.2473 1.1931
L7.3078 1.3140
" />
<path d="M7.3078 1.3140
L7.3078 1.9793
" />
<path d="M7.6102 2.1002
L8.5778 2.1002
" />
<path d="M9.4849 1.9793
L8.8802 1.9793
" />
<path d="M8.8802 1.9793
L8.8802 0.7093
" />
<path d="M9.7268 0.7093
L10.4526 0.7093
" />
<path d="M10.0897 1.9793
L10.0897 0.7093
" />
<path d="M11.6016 1.9793
L11.1783 1.3745
" />
<path d="M10.8759 1.9793
L10.8759 0.7093
" />
<path d="M10.8759 0.7093
L11.3597 0.7093
" />
<path d="M11.3597 0.7093
L11.4806 0.7697
" />
<path d="M11.4806 0.7697
L11.5411 0.8302
" />
<path d="M11.5411 0.8302
L11.6016 0.9512
" />
<path d="M11.6016 0.9512
L11.6016 1.1326
" />
<path d="M11.6016 1.1326
L11.5411 1.2536
" />
<path d="M11.5411 1.2536
L11.4806 1.3140
" />
<path d="M11.4806 1.3140
L11.3597 1.3745
" />
<path d="M11.3597 1.3745
L10.8759 1.3745
" />
<path d="M12.1459 1.4955
L13.1135 1.4955
" />
<path d="M13.5973 0.7093
L14.3835 0.7093
" />
<path d="M14.3835 0.7093
L13.9602 1.1931
" />
<path d="M13.9602 1.1931
L14.1416 1.1931
" />
<path d="M14.1416 1.1931
L14.2626 1.2536
" />
<path d="M14.2626 1.2536
L14.3230 1.3140
" />
<path d="M14.3230 1.3140
L14.3835 1.4350
" />
<path d="M14.3835 1.4350
L14.3835 1.7374
" />
<path d="M14.3835 1.7374
L14.3230 1.8583
" />
<path d="M14.3230 1.8583
L14.2626 1.9188
" />
<path d="M14.2626 1.9188
L14.1416 1.9793
" />
<path d="M14.1416 1.9793
L13.7787 1.9793
" />
<path d="M13.7787 1.9793
L13.6578 1.9188
" />
<path d="M13.6578 1.9188
L13.5973 1.8583
" />
<path d="M15.1697 0.7093
L15.2906 0.7093
" />
<path d="M15.2906 0.7093
L15.4116 0.7697
" />
<path d="M15.4116 0.7697
L15.4721 0.8302
" />
<path d="M15.4721 0.8302
L15.5326 0.9512
" />
<path d="M15.5326 0.9512
L15.5930 1.1931
" />
<path d="M15.5930 1.1931
L15.5930 1.4955
" />
<path d="M15.5930 1.4955
L15.5326 1.7374
" />
<path d="M15.5326 1.7374
L15.4721 1.8583
" />
<path d="M15.4721 1.8583
L15.4116 1.9188
" />
<path d="M15.4116 1.9188
L15.2906 1.9793
" />
<path d="M15.2906 1.9793
L15.1697 1.9793
" />
<path d="M15.1697 1.9793
L15.0487 1.9188
" />
<path d="M15.0487 1.9188
L14.9883 1.8583
" />
<path d="M14.9883 1.8583
L14.9278 1.7374
" />
<path d="M14.9278 1.7374
L14.8673 1.4955
" />
<path d="M14.8673 1.4955
L14.8673 1.1931
" />
<path d="M14.8673 1.1931
L14.9278 0.9512
" />
<path d="M14.9278 0.9512
L14.9883 0.8302
" />
<path d="M14.9883 0.8302
L15.0487 0.7697
" />
<path d="M15.0487 0.7697
L15.1697 0.7093
" />
<path d="M16.0164 0.7093
L16.8026 0.7093
" />
<path d="M16.8026 0.7093
L16.3792 1.1931
" />
<path d="M16.3792 1.1931
L16.5606 1.1931
" />
<path d="M16.5606 1.1931
L16.6816 1.2536
" />
<path d="M16.6816 1.2536
L16.7421 1.3140
" />
<path d="M16.7421 1.3140
L16.8026 1.4350
" />
<path d="M16.8026 1.4350
L16.8026 1.7374
" />
<path d="M16.8026 1.7374
L16.7421 1.8583
" />
<path d="M16.7421 1.8583
L16.6816 1.9188
" />
<path d="M16.6816 1.9188
L16.5606 1.9793
" />
<path d="M16.5606 1.9793
L16.1978 1.9793
" />
<path d="M16.1978 1.9793
L16.0768 1.9188
" />
<path d="M16.0768 1.9188
L16.0164 1.8583
" />
<path d="M17.2864 1.6164
L17.8911 1.6164
" />
<path d="M17.1654 1.9793
L17.5887 0.7093
" />
<path d="M17.5887 0.7093
L18.0121 1.9793
" />
<path d="M19.0402 1.9793
L18.4354 1.9793
" />
<path d="M18.4354 1.9793
L18.4354 0.7093
" />
<path d="M19.4030 1.9188
L19.5845 1.9793
" />
<path d="M19.5845 1.9793
L19.8868 1.9793
" />
<path d="M19.8868 1.9793
L20.0078 1.9188
" />
<path d="M20.0078 1.9188
L20.0683 1.8583
" />
<path d="M20.0683 1.8583
L20.1287 1.7374
" />
<path d="M20.1287 1.7374
L20.1287 1.6164
" />
<path d="M20.1287 1.6164
L20.0683 1.4955
" />
<path d="M20.0683 1.4955
L20.0078 1.4350
" />
<path d="M20.0078 1.4350
L19.8868 1.3745
" />
<path d="M19.8868 1.3745
L19.6449 1.3140
" />
<path d="M19.6449 1.3140
L19.5240 1.2536
" />
<path d="M19.5240 1.2536
L19.4635 1.1931
" />
<path d="M19.4635 1.1931
L19.4030 1.0721
" />
<path d="M19.4030 1.0721
L19.4030 0.9512
" />
<path d="M19.4030 0.9512
L19.4635 0.8302
" />
<path d="M19.4635 0.8302
L19.5240 0.7697
" />
<path d="M19.5240 0.7697
L19.6449 0.7093
" />
<path d="M19.6449 0.7093
L19.9473 0.7093
" />
<path d="M19.9473 0.7093
L20.1287 0.7697
" />
<path d="M20.6730 1.4955
L21.6406 1.4955
" />
<path d="M22.4873 0.7093
L22.6083 0.7093
" />
<path d="M22.6083 0.7093
L22.7292 0.7697
" />
<path d="M22.7292 0.7697
L22.7897 0.8302
" />
<path d="M22.7897 0.8302
L22.8502 0.9512
" />
<path d="M22.8502 0.9512
L22.9106 1.1931
" />
<path d="M22.9106 1.1931
L22.9106 1.4955
" />
<path d="M22.9106 1.4955
L22.8502 1.7374
" />
<path d="M22.8502 1.7374
L22.7897 1.8583
" />
<path d="M22.7897 1.8583
L22.7292 1.9188
" />
<path d="M22.7292 1.9188
L22.6083 1.9793
" />
<path d="M22.6083 1.9793
L22.4873 1.9793
" />
<path d="M22.4873 1.9793
L22.3664 1.9188
" />
<path d="M22.3664 1.9188
L22.3059 1.8583
" />
<path d="M22.3059 1.8583
L22.2454 1.7374
" />
<path d="M22.2454 1.7374
L22.1849 1.4955
" />
<path d="M22.1849 1.4955
L22.1849 1.1931
" />
<path d="M22.1849 1.1931
L22.2454 0.9512
" />
<path d="M22.2454 0.9512
L22.3059 0.8302
" />
<path d="M22.3059 0.8302
L22.3664 0.7697
" />
<path d="M22.3664 0.7697
L22.4873 0.7093
" />
<path d="M24.1202 1.9793
L23.3945 1.9793
" />
<path d="M23.7573 1.9793
L23.7573 0.7093
" />
<path d="M23.7573 0.7093
L23.6364 0.8907
" />
<path d="M23.6364 0.8907
L23.5154 1.0117
" />
<path d="M23.5154 1.0117
L23.3945 1.0721
" />
</g></g>
<g style="fill:none; 
stroke:#AFAFAF; stroke-width:0.0800; stroke-opacity:1; 
stroke-linecap:round; stroke-linejoin:round;">
<text x="12.2366" y="1.6500"
textLength="2.2829" font-size="0.6667" lengthAdjust="spacingAndGlyphs"
text-anchor="middle" opacity="0">REF**</text>
<g class="stroked-text"><desc>REF**</desc>
<path d="M11.5699 1.6271
L11.4033 1.3891
" />
<path d="M11.2842 1.6271
L11.2842 1.1271
" />
<path d="M11.2842 1.1271
L11.4747 1.1271
" />
<path d="M11.4747 1.1271
L11.5223 1.1510
" />
<path d="M11.5223 1.1510
L11.5461 1.1748
" />
<path d="M11.5461 1.1748
L11.5699 1.2224
" />
<path d="M11.5699 1.2224
L11.5699 1.2938
" />
<path d="M11.5699 1.2938
L11.5461 1.3414
" />
<path d="M11.5461 1.3414
L11.5223 1.3652
" />
<path d="M11.5223 1.3652
L11.4747 1.3891
" />
<path d="M11.4747 1.3891
L11.2842 1.3891
" />
<path d="M11.7842 1.3652
L11.9509 1.3652
" />
<path d="M12.0223 1.6271
L11.7842 1.6271
" />
<path d="M11.7842 1.6271
L11.7842 1.1271
" />
<path d="M11.7842 1.1271
L12.0223 1.1271
" />
<path d="M12.4033 1.3652
L12.2366 1.3652
" />
<path d="M12.2366 1.6271
L12.2366 1.1271
" />
<path d="M12.2366 1.1271
L12.4747 1.1271
" />
<path d="M12.7366 1.1271
L12.7366 1.2462
" />
<path d="M12.6176 1.1986
L12.7366 1.2462
" />
<path d="M12.7366 1.2462
L12.8556 1.1986
" />
<path d="M12.6652 1.3414
L12.7366 1.2462
" />
<path d="M12.7366 1.2462
L12.8080 1.3414
" />
<path d="M13.1176 1.1271
L13.1176 1.2462
" />
<path d="M12.9985 1.1986
L13.1176 1.2462
" />
<path d="M13.1176 1.2462
L13.2366 1.1986
" />
<path d="M13.0461 1.3414
L13.1176 1.2462
" />
<path d="M13.1176 1.2462
L13.1890 1.3414
" />
</g></g>
<g style="fill:none; 
stroke:#AFAFAF; stroke-width:0.1000; stroke-opacity:1; 
stroke-linecap:round; stroke-linejoin:round;">
<path d="M11.2366 0.9000
L11.7366 0.4000
" />
<path d="M11.2366 2.4000
L11.2366 0.9000
" />
<path d="M11.7366 0.4000
L13.2366 0.4000
" />
<path d="M13.2366 0.4000
L13.2366 2.4000
" />
<path d="M13.2366 2.4000
L11.2366 2.4000
" />
</g> 
</svg>
