<?xml version="1.0" standalone="no"?>
 <!DOCTYPE svg PUBLIC "-//W3C//DTD SVG 1.1//EN" 
 "http://www.w3.org/Graphics/SVG/1.1/DTD/svg11.dtd"> 
<svg
  xmlns:svg="http://www.w3.org/2000/svg"
  xmlns="http://www.w3.org/2000/svg"
  xmlns:xlink="http://www.w3.org/1999/xlink"
  version="1.1"
  width="53.6194mm" height="2.1336mm" viewBox="0.0000 0.0000 53.6194 2.1336">
<title>SVG Image created as working-brd.svg date 2024/04/22 21:31:07 </title>
  <desc>Image generated by PCBNEW </desc>
<g style="fill:#000000; fill-opacity:1.0000;stroke:#000000; stroke-opacity:1.0000;
stroke-linecap:round; stroke-linejoin:round;"
 transform="translate(0 0) scale(1 1)">
</g>
<g style="fill:#FFFFFF; fill-opacity:1.0000; stroke:none;">
<circle cx="26.8114" cy="1.0750" r="0.3500" /> 
</g>
<g style="fill:#FFFFFF; fill-opacity:1.0000; stroke:none;">
<circle cx="34.4314" cy="1.0750" r="0.3500" /> 
</g>
<g style="fill:#02FFEE; fill-opacity:0.4000; stroke:none;">
<circle cx="26.8114" cy="1.0750" r="0.7000" /> 
</g>
<g style="fill:#02FFEE; fill-opacity:0.4000; stroke:none;">
<circle cx="34.4314" cy="1.0750" r="0.7000" /> 
</g>
<g style="fill:#FFFFFF; fill-opacity:1.0000; stroke:none;">
<circle cx="26.8114" cy="1.0750" r="0.3500" /> 
</g>
<g style="fill:#FFFFFF; fill-opacity:1.0000; stroke:none;">
<circle cx="34.4314" cy="1.0750" r="0.3500" /> 
</g>
<g style="fill:#FFFFFF; fill-opacity:1.0000; stroke:none;">
<circle cx="26.8114" cy="1.0750" r="0.3500" /> 
</g>
<g style="fill:#FFFFFF; fill-opacity:1.0000; stroke:none;">
<circle cx="34.4314" cy="1.0750" r="0.3500" /> 
</g>
<g style="fill:#D864FF; fill-opacity:0.4000; stroke:none;">
<circle cx="26.8114" cy="1.0750" r="0.7000" /> 
</g>
<g style="fill:#D864FF; fill-opacity:0.4000; stroke:none;">
<circle cx="34.4314" cy="1.0750" r="0.7000" /> 
</g>
<g style="fill:none; 
stroke:#F2EDA1; stroke-width:0.1588; stroke-opacity:1; 
stroke-linecap:round; stroke-linejoin:round;">
<text x="26.8114" y="1.7100"
textLength="5.6651" font-size="1.6933" lengthAdjust="spacingAndGlyphs"
text-anchor="middle" opacity="0">REF**</text>
<g class="stroked-text"><desc>REF**</desc>
<path d="M25.1180 1.6543
L24.6947 1.0495
" />
<path d="M24.3923 1.6543
L24.3923 0.3843
" />
<path d="M24.3923 0.3843
L24.8761 0.3843
" />
<path d="M24.8761 0.3843
L24.9971 0.4447
" />
<path d="M24.9971 0.4447
L25.0576 0.5052
" />
<path d="M25.0576 0.5052
L25.1180 0.6262
" />
<path d="M25.1180 0.6262
L25.1180 0.8076
" />
<path d="M25.1180 0.8076
L25.0576 0.9286
" />
<path d="M25.0576 0.9286
L24.9971 0.9890
" />
<path d="M24.9971 0.9890
L24.8761 1.0495
" />
<path d="M24.8761 1.0495
L24.3923 1.0495
" />
<path d="M25.6623 0.9890
L26.0856 0.9890
" />
<path d="M26.2671 1.6543
L25.6623 1.6543
" />
<path d="M25.6623 1.6543
L25.6623 0.3843
" />
<path d="M25.6623 0.3843
L26.2671 0.3843
" />
<path d="M27.2347 0.9890
L26.8114 0.9890
" />
<path d="M26.8114 1.6543
L26.8114 0.3843
" />
<path d="M26.8114 0.3843
L27.4161 0.3843
" />
<path d="M28.0814 0.3843
L28.0814 0.6867
" />
<path d="M27.7790 0.5657
L28.0814 0.6867
" />
<path d="M28.0814 0.6867
L28.3837 0.5657
" />
<path d="M27.8999 0.9286
L28.0814 0.6867
" />
<path d="M28.0814 0.6867
L28.2628 0.9286
" />
<path d="M29.0490 0.3843
L29.0490 0.6867
" />
<path d="M28.7466 0.5657
L29.0490 0.6867
" />
<path d="M29.0490 0.6867
L29.3514 0.5657
" />
<path d="M28.8676 0.9286
L29.0490 0.6867
" />
<path d="M29.0490 0.6867
L29.2304 0.9286
" />
</g></g>
<g style="fill:none; 
stroke:#F2EDA1; stroke-width:0.1200; stroke-opacity:1; 
stroke-linecap:round; stroke-linejoin:round;">
<path d="M27.7514 1.0750
L28.7014 1.0750
" />
<path d="M28.7014 0.1550
L28.7014 1.9950
" />
<path d="M28.7014 1.9950
L32.5414 1.9950
" />
<path d="M32.5414 0.1550
L28.7014 0.1550
" />
<path d="M32.5414 1.9950
L32.5414 0.1550
" />
<path d="M33.4914 1.0750
L32.5414 1.0750
" />
</g>
<g style="fill:#FFFFFF; fill-opacity:1.0000; stroke:none;">
<circle cx="26.8114" cy="1.0750" r="0.3500" /> 
</g>
<g style="fill:#FFFFFF; fill-opacity:1.0000; stroke:none;">
<circle cx="34.4314" cy="1.0750" r="0.3500" /> 
</g>
<g style="fill:none; 
stroke:#FF26E2; stroke-width:0.0500; stroke-opacity:1; 
stroke-linecap:round; stroke-linejoin:round;">
<path d="M25.8614 0.0250
L25.8614 2.1250
" />
<path d="M25.8614 2.1250
L35.3814 2.1250
" />
<path d="M35.3814 0.0250
L25.8614 0.0250
" />
<path d="M35.3814 2.1250
L35.3814 0.0250
" />
</g>
<g style="fill:none; 
stroke:#AFAFAF; stroke-width:0.1588; stroke-opacity:1; 
stroke-linecap:round; stroke-linejoin:round;">
<text x="26.8114" y="1.7100"
textLength="53.6227" font-size="1.6933" lengthAdjust="spacingAndGlyphs"
text-anchor="middle" opacity="0">R_Axial_DIN0204_L3.6mm_D1.6mm_P7.62mm_Horizontal</text>
<g class="stroked-text"><desc>R_Axial_DIN0204_L3.6mm_D1.6mm_P7.62mm_Horizontal</desc>
<path d="M1.1392 1.6543
L0.7159 1.0495
" />
<path d="M0.4135 1.6543
L0.4135 0.3843
" />
<path d="M0.4135 0.3843
L0.8973 0.3843
" />
<path d="M0.8973 0.3843
L1.0183 0.4447
" />
<path d="M1.0183 0.4447
L1.0787 0.5052
" />
<path d="M1.0787 0.5052
L1.1392 0.6262
" />
<path d="M1.1392 0.6262
L1.1392 0.8076
" />
<path d="M1.1392 0.8076
L1.0787 0.9286
" />
<path d="M1.0787 0.9286
L1.0183 0.9890
" />
<path d="M1.0183 0.9890
L0.8973 1.0495
" />
<path d="M0.8973 1.0495
L0.4135 1.0495
" />
<path d="M1.3811 1.7752
L2.3487 1.7752
" />
<path d="M2.5906 1.2914
L3.1954 1.2914
" />
<path d="M2.4697 1.6543
L2.8930 0.3843
" />
<path d="M2.8930 0.3843
L3.3164 1.6543
" />
<path d="M3.6187 1.6543
L4.2840 0.8076
" />
<path d="M3.6187 0.8076
L4.2840 1.6543
" />
<path d="M4.7678 1.6543
L4.7678 0.8076
" />
<path d="M4.7678 0.3843
L4.7073 0.4447
" />
<path d="M4.7073 0.4447
L4.7678 0.5052
" />
<path d="M4.7678 0.5052
L4.8283 0.4447
" />
<path d="M4.8283 0.4447
L4.7678 0.3843
" />
<path d="M4.7678 0.3843
L4.7678 0.5052
" />
<path d="M5.9168 1.6543
L5.9168 0.9890
" />
<path d="M5.9168 0.9890
L5.8564 0.8681
" />
<path d="M5.8564 0.8681
L5.7354 0.8076
" />
<path d="M5.7354 0.8076
L5.4935 0.8076
" />
<path d="M5.4935 0.8076
L5.3726 0.8681
" />
<path d="M5.9168 1.5938
L5.7959 1.6543
" />
<path d="M5.7959 1.6543
L5.4935 1.6543
" />
<path d="M5.4935 1.6543
L5.3726 1.5938
" />
<path d="M5.3726 1.5938
L5.3121 1.4728
" />
<path d="M5.3121 1.4728
L5.3121 1.3519
" />
<path d="M5.3121 1.3519
L5.3726 1.2309
" />
<path d="M5.3726 1.2309
L5.4935 1.1705
" />
<path d="M5.4935 1.1705
L5.7959 1.1705
" />
<path d="M5.7959 1.1705
L5.9168 1.1100
" />
<path d="M6.7030 1.6543
L6.5821 1.5938
" />
<path d="M6.5821 1.5938
L6.5216 1.4728
" />
<path d="M6.5216 1.4728
L6.5216 0.3843
" />
<path d="M6.8845 1.7752
L7.8521 1.7752
" />
<path d="M8.1545 1.6543
L8.1545 0.3843
" />
<path d="M8.1545 0.3843
L8.4568 0.3843
" />
<path d="M8.4568 0.3843
L8.6383 0.4447
" />
<path d="M8.6383 0.4447
L8.7592 0.5657
" />
<path d="M8.7592 0.5657
L8.8197 0.6867
" />
<path d="M8.8197 0.6867
L8.8802 0.9286
" />
<path d="M8.8802 0.9286
L8.8802 1.1100
" />
<path d="M8.8802 1.1100
L8.8197 1.3519
" />
<path d="M8.8197 1.3519
L8.7592 1.4728
" />
<path d="M8.7592 1.4728
L8.6383 1.5938
" />
<path d="M8.6383 1.5938
L8.4568 1.6543
" />
<path d="M8.4568 1.6543
L8.1545 1.6543
" />
<path d="M9.4245 1.6543
L9.4245 0.3843
" />
<path d="M10.0292 1.6543
L10.0292 0.3843
" />
<path d="M10.0292 0.3843
L10.7549 1.6543
" />
<path d="M10.7549 1.6543
L10.7549 0.3843
" />
<path d="M11.6016 0.3843
L11.7226 0.3843
" />
<path d="M11.7226 0.3843
L11.8435 0.4447
" />
<path d="M11.8435 0.4447
L11.9040 0.5052
" />
<path d="M11.9040 0.5052
L11.9645 0.6262
" />
<path d="M11.9645 0.6262
L12.0249 0.8681
" />
<path d="M12.0249 0.8681
L12.0249 1.1705
" />
<path d="M12.0249 1.1705
L11.9645 1.4124
" />
<path d="M11.9645 1.4124
L11.9040 1.5333
" />
<path d="M11.9040 1.5333
L11.8435 1.5938
" />
<path d="M11.8435 1.5938
L11.7226 1.6543
" />
<path d="M11.7226 1.6543
L11.6016 1.6543
" />
<path d="M11.6016 1.6543
L11.4806 1.5938
" />
<path d="M11.4806 1.5938
L11.4202 1.5333
" />
<path d="M11.4202 1.5333
L11.3597 1.4124
" />
<path d="M11.3597 1.4124
L11.2992 1.1705
" />
<path d="M11.2992 1.1705
L11.2992 0.8681
" />
<path d="M11.2992 0.8681
L11.3597 0.6262
" />
<path d="M11.3597 0.6262
L11.4202 0.5052
" />
<path d="M11.4202 0.5052
L11.4806 0.4447
" />
<path d="M11.4806 0.4447
L11.6016 0.3843
" />
<path d="M12.5087 0.5052
L12.5692 0.4447
" />
<path d="M12.5692 0.4447
L12.6902 0.3843
" />
<path d="M12.6902 0.3843
L12.9926 0.3843
" />
<path d="M12.9926 0.3843
L13.1135 0.4447
" />
<path d="M13.1135 0.4447
L13.1740 0.5052
" />
<path d="M13.1740 0.5052
L13.2345 0.6262
" />
<path d="M13.2345 0.6262
L13.2345 0.7471
" />
<path d="M13.2345 0.7471
L13.1740 0.9286
" />
<path d="M13.1740 0.9286
L12.4483 1.6543
" />
<path d="M12.4483 1.6543
L13.2345 1.6543
" />
<path d="M14.0206 0.3843
L14.1416 0.3843
" />
<path d="M14.1416 0.3843
L14.2626 0.4447
" />
<path d="M14.2626 0.4447
L14.3230 0.5052
" />
<path d="M14.3230 0.5052
L14.3835 0.6262
" />
<path d="M14.3835 0.6262
L14.4440 0.8681
" />
<path d="M14.4440 0.8681
L14.4440 1.1705
" />
<path d="M14.4440 1.1705
L14.3835 1.4124
" />
<path d="M14.3835 1.4124
L14.3230 1.5333
" />
<path d="M14.3230 1.5333
L14.2626 1.5938
" />
<path d="M14.2626 1.5938
L14.1416 1.6543
" />
<path d="M14.1416 1.6543
L14.0206 1.6543
" />
<path d="M14.0206 1.6543
L13.8997 1.5938
" />
<path d="M13.8997 1.5938
L13.8392 1.5333
" />
<path d="M13.8392 1.5333
L13.7787 1.4124
" />
<path d="M13.7787 1.4124
L13.7183 1.1705
" />
<path d="M13.7183 1.1705
L13.7183 0.8681
" />
<path d="M13.7183 0.8681
L13.7787 0.6262
" />
<path d="M13.7787 0.6262
L13.8392 0.5052
" />
<path d="M13.8392 0.5052
L13.8997 0.4447
" />
<path d="M13.8997 0.4447
L14.0206 0.3843
" />
<path d="M15.5326 0.8076
L15.5326 1.6543
" />
<path d="M15.2302 0.3238
L14.9278 1.2309
" />
<path d="M14.9278 1.2309
L15.7140 1.2309
" />
<path d="M15.8954 1.7752
L16.8630 1.7752
" />
<path d="M17.7702 1.6543
L17.1654 1.6543
" />
<path d="M17.1654 1.6543
L17.1654 0.3843
" />
<path d="M18.0726 0.3843
L18.8587 0.3843
" />
<path d="M18.8587 0.3843
L18.4354 0.8681
" />
<path d="M18.4354 0.8681
L18.6168 0.8681
" />
<path d="M18.6168 0.8681
L18.7378 0.9286
" />
<path d="M18.7378 0.9286
L18.7983 0.9890
" />
<path d="M18.7983 0.9890
L18.8587 1.1100
" />
<path d="M18.8587 1.1100
L18.8587 1.4124
" />
<path d="M18.8587 1.4124
L18.7983 1.5333
" />
<path d="M18.7983 1.5333
L18.7378 1.5938
" />
<path d="M18.7378 1.5938
L18.6168 1.6543
" />
<path d="M18.6168 1.6543
L18.2540 1.6543
" />
<path d="M18.2540 1.6543
L18.1330 1.5938
" />
<path d="M18.1330 1.5938
L18.0726 1.5333
" />
<path d="M19.4030 1.5333
L19.4635 1.5938
" />
<path d="M19.4635 1.5938
L19.4030 1.6543
" />
<path d="M19.4030 1.6543
L19.3426 1.5938
" />
<path d="M19.3426 1.5938
L19.4030 1.5333
" />
<path d="M19.4030 1.5333
L19.4030 1.6543
" />
<path d="M20.5521 0.3843
L20.3102 0.3843
" />
<path d="M20.3102 0.3843
L20.1892 0.4447
" />
<path d="M20.1892 0.4447
L20.1287 0.5052
" />
<path d="M20.1287 0.5052
L20.0078 0.6867
" />
<path d="M20.0078 0.6867
L19.9473 0.9286
" />
<path d="M19.9473 0.9286
L19.9473 1.4124
" />
<path d="M19.9473 1.4124
L20.0078 1.5333
" />
<path d="M20.0078 1.5333
L20.0683 1.5938
" />
<path d="M20.0683 1.5938
L20.1892 1.6543
" />
<path d="M20.1892 1.6543
L20.4311 1.6543
" />
<path d="M20.4311 1.6543
L20.5521 1.5938
" />
<path d="M20.5521 1.5938
L20.6126 1.5333
" />
<path d="M20.6126 1.5333
L20.6730 1.4124
" />
<path d="M20.6730 1.4124
L20.6730 1.1100
" />
<path d="M20.6730 1.1100
L20.6126 0.9890
" />
<path d="M20.6126 0.9890
L20.5521 0.9286
" />
<path d="M20.5521 0.9286
L20.4311 0.8681
" />
<path d="M20.4311 0.8681
L20.1892 0.8681
" />
<path d="M20.1892 0.8681
L20.0683 0.9286
" />
<path d="M20.0683 0.9286
L20.0078 0.9890
" />
<path d="M20.0078 0.9890
L19.9473 1.1100
" />
<path d="M21.2173 1.6543
L21.2173 0.8076
" />
<path d="M21.2173 0.9286
L21.2778 0.8681
" />
<path d="M21.2778 0.8681
L21.3987 0.8076
" />
<path d="M21.3987 0.8076
L21.5802 0.8076
" />
<path d="M21.5802 0.8076
L21.7011 0.8681
" />
<path d="M21.7011 0.8681
L21.7616 0.9890
" />
<path d="M21.7616 0.9890
L21.7616 1.6543
" />
<path d="M21.7616 0.9890
L21.8221 0.8681
" />
<path d="M21.8221 0.8681
L21.9430 0.8076
" />
<path d="M21.9430 0.8076
L22.1245 0.8076
" />
<path d="M22.1245 0.8076
L22.2454 0.8681
" />
<path d="M22.2454 0.8681
L22.3059 0.9890
" />
<path d="M22.3059 0.9890
L22.3059 1.6543
" />
<path d="M22.9106 1.6543
L22.9106 0.8076
" />
<path d="M22.9106 0.9286
L22.9711 0.8681
" />
<path d="M22.9711 0.8681
L23.0921 0.8076
" />
<path d="M23.0921 0.8076
L23.2735 0.8076
" />
<path d="M23.2735 0.8076
L23.3945 0.8681
" />
<path d="M23.3945 0.8681
L23.4549 0.9890
" />
<path d="M23.4549 0.9890
L23.4549 1.6543
" />
<path d="M23.4549 0.9890
L23.5154 0.8681
" />
<path d="M23.5154 0.8681
L23.6364 0.8076
" />
<path d="M23.6364 0.8076
L23.8178 0.8076
" />
<path d="M23.8178 0.8076
L23.9387 0.8681
" />
<path d="M23.9387 0.8681
L23.9992 0.9890
" />
<path d="M23.9992 0.9890
L23.9992 1.6543
" />
<path d="M24.3016 1.7752
L25.2692 1.7752
" />
<path d="M25.5716 1.6543
L25.5716 0.3843
" />
<path d="M25.5716 0.3843
L25.8740 0.3843
" />
<path d="M25.8740 0.3843
L26.0554 0.4447
" />
<path d="M26.0554 0.4447
L26.1764 0.5657
" />
<path d="M26.1764 0.5657
L26.2368 0.6867
" />
<path d="M26.2368 0.6867
L26.2973 0.9286
" />
<path d="M26.2973 0.9286
L26.2973 1.1100
" />
<path d="M26.2973 1.1100
L26.2368 1.3519
" />
<path d="M26.2368 1.3519
L26.1764 1.4728
" />
<path d="M26.1764 1.4728
L26.0554 1.5938
" />
<path d="M26.0554 1.5938
L25.8740 1.6543
" />
<path d="M25.8740 1.6543
L25.5716 1.6543
" />
<path d="M27.5068 1.6543
L26.7811 1.6543
" />
<path d="M27.1440 1.6543
L27.1440 0.3843
" />
<path d="M27.1440 0.3843
L27.0230 0.5657
" />
<path d="M27.0230 0.5657
L26.9021 0.6867
" />
<path d="M26.9021 0.6867
L26.7811 0.7471
" />
<path d="M28.0511 1.5333
L28.1116 1.5938
" />
<path d="M28.1116 1.5938
L28.0511 1.6543
" />
<path d="M28.0511 1.6543
L27.9906 1.5938
" />
<path d="M27.9906 1.5938
L28.0511 1.5333
" />
<path d="M28.0511 1.5333
L28.0511 1.6543
" />
<path d="M29.2002 0.3843
L28.9583 0.3843
" />
<path d="M28.9583 0.3843
L28.8373 0.4447
" />
<path d="M28.8373 0.4447
L28.7768 0.5052
" />
<path d="M28.7768 0.5052
L28.6559 0.6867
" />
<path d="M28.6559 0.6867
L28.5954 0.9286
" />
<path d="M28.5954 0.9286
L28.5954 1.4124
" />
<path d="M28.5954 1.4124
L28.6559 1.5333
" />
<path d="M28.6559 1.5333
L28.7164 1.5938
" />
<path d="M28.7164 1.5938
L28.8373 1.6543
" />
<path d="M28.8373 1.6543
L29.0792 1.6543
" />
<path d="M29.0792 1.6543
L29.2002 1.5938
" />
<path d="M29.2002 1.5938
L29.2606 1.5333
" />
<path d="M29.2606 1.5333
L29.3211 1.4124
" />
<path d="M29.3211 1.4124
L29.3211 1.1100
" />
<path d="M29.3211 1.1100
L29.2606 0.9890
" />
<path d="M29.2606 0.9890
L29.2002 0.9286
" />
<path d="M29.2002 0.9286
L29.0792 0.8681
" />
<path d="M29.0792 0.8681
L28.8373 0.8681
" />
<path d="M28.8373 0.8681
L28.7164 0.9286
" />
<path d="M28.7164 0.9286
L28.6559 0.9890
" />
<path d="M28.6559 0.9890
L28.5954 1.1100
" />
<path d="M29.8654 1.6543
L29.8654 0.8076
" />
<path d="M29.8654 0.9286
L29.9259 0.8681
" />
<path d="M29.9259 0.8681
L30.0468 0.8076
" />
<path d="M30.0468 0.8076
L30.2283 0.8076
" />
<path d="M30.2283 0.8076
L30.3492 0.8681
" />
<path d="M30.3492 0.8681
L30.4097 0.9890
" />
<path d="M30.4097 0.9890
L30.4097 1.6543
" />
<path d="M30.4097 0.9890
L30.4702 0.8681
" />
<path d="M30.4702 0.8681
L30.5911 0.8076
" />
<path d="M30.5911 0.8076
L30.7726 0.8076
" />
<path d="M30.7726 0.8076
L30.8935 0.8681
" />
<path d="M30.8935 0.8681
L30.9540 0.9890
" />
<path d="M30.9540 0.9890
L30.9540 1.6543
" />
<path d="M31.5587 1.6543
L31.5587 0.8076
" />
<path d="M31.5587 0.9286
L31.6192 0.8681
" />
<path d="M31.6192 0.8681
L31.7402 0.8076
" />
<path d="M31.7402 0.8076
L31.9216 0.8076
" />
<path d="M31.9216 0.8076
L32.0426 0.8681
" />
<path d="M32.0426 0.8681
L32.1030 0.9890
" />
<path d="M32.1030 0.9890
L32.1030 1.6543
" />
<path d="M32.1030 0.9890
L32.1635 0.8681
" />
<path d="M32.1635 0.8681
L32.2845 0.8076
" />
<path d="M32.2845 0.8076
L32.4659 0.8076
" />
<path d="M32.4659 0.8076
L32.5868 0.8681
" />
<path d="M32.5868 0.8681
L32.6473 0.9890
" />
<path d="M32.6473 0.9890
L32.6473 1.6543
" />
<path d="M32.9497 1.7752
L33.9173 1.7752
" />
<path d="M34.2197 1.6543
L34.2197 0.3843
" />
<path d="M34.2197 0.3843
L34.7035 0.3843
" />
<path d="M34.7035 0.3843
L34.8245 0.4447
" />
<path d="M34.8245 0.4447
L34.8849 0.5052
" />
<path d="M34.8849 0.5052
L34.9454 0.6262
" />
<path d="M34.9454 0.6262
L34.9454 0.8076
" />
<path d="M34.9454 0.8076
L34.8849 0.9286
" />
<path d="M34.8849 0.9286
L34.8245 0.9890
" />
<path d="M34.8245 0.9890
L34.7035 1.0495
" />
<path d="M34.7035 1.0495
L34.2197 1.0495
" />
<path d="M35.3687 0.3843
L36.2154 0.3843
" />
<path d="M36.2154 0.3843
L35.6711 1.6543
" />
<path d="M36.6992 1.5333
L36.7597 1.5938
" />
<path d="M36.7597 1.5938
L36.6992 1.6543
" />
<path d="M36.6992 1.6543
L36.6387 1.5938
" />
<path d="M36.6387 1.5938
L36.6992 1.5333
" />
<path d="M36.6992 1.5333
L36.6992 1.6543
" />
<path d="M37.8483 0.3843
L37.6064 0.3843
" />
<path d="M37.6064 0.3843
L37.4854 0.4447
" />
<path d="M37.4854 0.4447
L37.4249 0.5052
" />
<path d="M37.4249 0.5052
L37.3040 0.6867
" />
<path d="M37.3040 0.6867
L37.2435 0.9286
" />
<path d="M37.2435 0.9286
L37.2435 1.4124
" />
<path d="M37.2435 1.4124
L37.3040 1.5333
" />
<path d="M37.3040 1.5333
L37.3645 1.5938
" />
<path d="M37.3645 1.5938
L37.4854 1.6543
" />
<path d="M37.4854 1.6543
L37.7273 1.6543
" />
<path d="M37.7273 1.6543
L37.8483 1.5938
" />
<path d="M37.8483 1.5938
L37.9087 1.5333
" />
<path d="M37.9087 1.5333
L37.9692 1.4124
" />
<path d="M37.9692 1.4124
L37.9692 1.1100
" />
<path d="M37.9692 1.1100
L37.9087 0.9890
" />
<path d="M37.9087 0.9890
L37.8483 0.9286
" />
<path d="M37.8483 0.9286
L37.7273 0.8681
" />
<path d="M37.7273 0.8681
L37.4854 0.8681
" />
<path d="M37.4854 0.8681
L37.3645 0.9286
" />
<path d="M37.3645 0.9286
L37.3040 0.9890
" />
<path d="M37.3040 0.9890
L37.2435 1.1100
" />
<path d="M38.4530 0.5052
L38.5135 0.4447
" />
<path d="M38.5135 0.4447
L38.6345 0.3843
" />
<path d="M38.6345 0.3843
L38.9368 0.3843
" />
<path d="M38.9368 0.3843
L39.0578 0.4447
" />
<path d="M39.0578 0.4447
L39.1183 0.5052
" />
<path d="M39.1183 0.5052
L39.1787 0.6262
" />
<path d="M39.1787 0.6262
L39.1787 0.7471
" />
<path d="M39.1787 0.7471
L39.1183 0.9286
" />
<path d="M39.1183 0.9286
L38.3926 1.6543
" />
<path d="M38.3926 1.6543
L39.1787 1.6543
" />
<path d="M39.7230 1.6543
L39.7230 0.8076
" />
<path d="M39.7230 0.9286
L39.7835 0.8681
" />
<path d="M39.7835 0.8681
L39.9045 0.8076
" />
<path d="M39.9045 0.8076
L40.0859 0.8076
" />
<path d="M40.0859 0.8076
L40.2068 0.8681
" />
<path d="M40.2068 0.8681
L40.2673 0.9890
" />
<path d="M40.2673 0.9890
L40.2673 1.6543
" />
<path d="M40.2673 0.9890
L40.3278 0.8681
" />
<path d="M40.3278 0.8681
L40.4487 0.8076
" />
<path d="M40.4487 0.8076
L40.6302 0.8076
" />
<path d="M40.6302 0.8076
L40.7511 0.8681
" />
<path d="M40.7511 0.8681
L40.8116 0.9890
" />
<path d="M40.8116 0.9890
L40.8116 1.6543
" />
<path d="M41.4164 1.6543
L41.4164 0.8076
" />
<path d="M41.4164 0.9286
L41.4768 0.8681
" />
<path d="M41.4768 0.8681
L41.5978 0.8076
" />
<path d="M41.5978 0.8076
L41.7792 0.8076
" />
<path d="M41.7792 0.8076
L41.9002 0.8681
" />
<path d="M41.9002 0.8681
L41.9606 0.9890
" />
<path d="M41.9606 0.9890
L41.9606 1.6543
" />
<path d="M41.9606 0.9890
L42.0211 0.8681
" />
<path d="M42.0211 0.8681
L42.1421 0.8076
" />
<path d="M42.1421 0.8076
L42.3235 0.8076
" />
<path d="M42.3235 0.8076
L42.4445 0.8681
" />
<path d="M42.4445 0.8681
L42.5049 0.9890
" />
<path d="M42.5049 0.9890
L42.5049 1.6543
" />
<path d="M42.8073 1.7752
L43.7749 1.7752
" />
<path d="M44.0773 1.6543
L44.0773 0.3843
" />
<path d="M44.0773 0.9890
L44.8030 0.9890
" />
<path d="M44.8030 1.6543
L44.8030 0.3843
" />
<path d="M45.5892 1.6543
L45.4683 1.5938
" />
<path d="M45.4683 1.5938
L45.4078 1.5333
" />
<path d="M45.4078 1.5333
L45.3473 1.4124
" />
<path d="M45.3473 1.4124
L45.3473 1.0495
" />
<path d="M45.3473 1.0495
L45.4078 0.9286
" />
<path d="M45.4078 0.9286
L45.4683 0.8681
" />
<path d="M45.4683 0.8681
L45.5892 0.8076
" />
<path d="M45.5892 0.8076
L45.7706 0.8076
" />
<path d="M45.7706 0.8076
L45.8916 0.8681
" />
<path d="M45.8916 0.8681
L45.9521 0.9286
" />
<path d="M45.9521 0.9286
L46.0126 1.0495
" />
<path d="M46.0126 1.0495
L46.0126 1.4124
" />
<path d="M46.0126 1.4124
L45.9521 1.5333
" />
<path d="M45.9521 1.5333
L45.8916 1.5938
" />
<path d="M45.8916 1.5938
L45.7706 1.6543
" />
<path d="M45.7706 1.6543
L45.5892 1.6543
" />
<path d="M46.5568 1.6543
L46.5568 0.8076
" />
<path d="M46.5568 1.0495
L46.6173 0.9286
" />
<path d="M46.6173 0.9286
L46.6778 0.8681
" />
<path d="M46.6778 0.8681
L46.7987 0.8076
" />
<path d="M46.7987 0.8076
L46.9197 0.8076
" />
<path d="M47.3430 1.6543
L47.3430 0.8076
" />
<path d="M47.3430 0.3843
L47.2826 0.4447
" />
<path d="M47.2826 0.4447
L47.3430 0.5052
" />
<path d="M47.3430 0.5052
L47.4035 0.4447
" />
<path d="M47.4035 0.4447
L47.3430 0.3843
" />
<path d="M47.3430 0.3843
L47.3430 0.5052
" />
<path d="M47.8268 0.8076
L48.4921 0.8076
" />
<path d="M48.4921 0.8076
L47.8268 1.6543
" />
<path d="M47.8268 1.6543
L48.4921 1.6543
" />
<path d="M49.1573 1.6543
L49.0364 1.5938
" />
<path d="M49.0364 1.5938
L48.9759 1.5333
" />
<path d="M48.9759 1.5333
L48.9154 1.4124
" />
<path d="M48.9154 1.4124
L48.9154 1.0495
" />
<path d="M48.9154 1.0495
L48.9759 0.9286
" />
<path d="M48.9759 0.9286
L49.0364 0.8681
" />
<path d="M49.0364 0.8681
L49.1573 0.8076
" />
<path d="M49.1573 0.8076
L49.3387 0.8076
" />
<path d="M49.3387 0.8076
L49.4597 0.8681
" />
<path d="M49.4597 0.8681
L49.5202 0.9286
" />
<path d="M49.5202 0.9286
L49.5806 1.0495
" />
<path d="M49.5806 1.0495
L49.5806 1.4124
" />
<path d="M49.5806 1.4124
L49.5202 1.5333
" />
<path d="M49.5202 1.5333
L49.4597 1.5938
" />
<path d="M49.4597 1.5938
L49.3387 1.6543
" />
<path d="M49.3387 1.6543
L49.1573 1.6543
" />
<path d="M50.1249 0.8076
L50.1249 1.6543
" />
<path d="M50.1249 0.9286
L50.1854 0.8681
" />
<path d="M50.1854 0.8681
L50.3064 0.8076
" />
<path d="M50.3064 0.8076
L50.4878 0.8076
" />
<path d="M50.4878 0.8076
L50.6087 0.8681
" />
<path d="M50.6087 0.8681
L50.6692 0.9890
" />
<path d="M50.6692 0.9890
L50.6692 1.6543
" />
<path d="M51.0926 0.8076
L51.5764 0.8076
" />
<path d="M51.2740 0.3843
L51.2740 1.4728
" />
<path d="M51.2740 1.4728
L51.3345 1.5938
" />
<path d="M51.3345 1.5938
L51.4554 1.6543
" />
<path d="M51.4554 1.6543
L51.5764 1.6543
" />
<path d="M52.5440 1.6543
L52.5440 0.9890
" />
<path d="M52.5440 0.9890
L52.4835 0.8681
" />
<path d="M52.4835 0.8681
L52.3626 0.8076
" />
<path d="M52.3626 0.8076
L52.1206 0.8076
" />
<path d="M52.1206 0.8076
L51.9997 0.8681
" />
<path d="M52.5440 1.5938
L52.4230 1.6543
" />
<path d="M52.4230 1.6543
L52.1206 1.6543
" />
<path d="M52.1206 1.6543
L51.9997 1.5938
" />
<path d="M51.9997 1.5938
L51.9392 1.4728
" />
<path d="M51.9392 1.4728
L51.9392 1.3519
" />
<path d="M51.9392 1.3519
L51.9997 1.2309
" />
<path d="M51.9997 1.2309
L52.1206 1.1705
" />
<path d="M52.1206 1.1705
L52.4230 1.1705
" />
<path d="M52.4230 1.1705
L52.5440 1.1100
" />
<path d="M53.3302 1.6543
L53.2092 1.5938
" />
<path d="M53.2092 1.5938
L53.1487 1.4728
" />
<path d="M53.1487 1.4728
L53.1487 0.3843
" />
</g></g>
<g style="fill:none; 
stroke:#AFAFAF; stroke-width:0.1080; stroke-opacity:1; 
stroke-linecap:round; stroke-linejoin:round;">
<text x="30.6214" y="1.4350"
textLength="3.2657" font-size="0.9600" lengthAdjust="spacingAndGlyphs"
text-anchor="middle" opacity="0">REF**</text>
<g class="stroked-text"><desc>REF**</desc>
<path d="M29.6614 1.4025
L29.4214 1.0596
" />
<path d="M29.2499 1.4025
L29.2499 0.6825
" />
<path d="M29.2499 0.6825
L29.5242 0.6825
" />
<path d="M29.5242 0.6825
L29.5928 0.7168
" />
<path d="M29.5928 0.7168
L29.6271 0.7510
" />
<path d="M29.6271 0.7510
L29.6614 0.8196
" />
<path d="M29.6614 0.8196
L29.6614 0.9225
" />
<path d="M29.6614 0.9225
L29.6271 0.9910
" />
<path d="M29.6271 0.9910
L29.5928 1.0253
" />
<path d="M29.5928 1.0253
L29.5242 1.0596
" />
<path d="M29.5242 1.0596
L29.2499 1.0596
" />
<path d="M29.9699 1.0253
L30.2099 1.0253
" />
<path d="M30.3128 1.4025
L29.9699 1.4025
" />
<path d="M29.9699 1.4025
L29.9699 0.6825
" />
<path d="M29.9699 0.6825
L30.3128 0.6825
" />
<path d="M30.8614 1.0253
L30.6214 1.0253
" />
<path d="M30.6214 1.4025
L30.6214 0.6825
" />
<path d="M30.6214 0.6825
L30.9642 0.6825
" />
<path d="M31.3414 0.6825
L31.3414 0.8539
" />
<path d="M31.1699 0.7853
L31.3414 0.8539
" />
<path d="M31.3414 0.8539
L31.5128 0.7853
" />
<path d="M31.2385 0.9910
L31.3414 0.8539
" />
<path d="M31.3414 0.8539
L31.4442 0.9910
" />
<path d="M31.8899 0.6825
L31.8899 0.8539
" />
<path d="M31.7185 0.7853
L31.8899 0.8539
" />
<path d="M31.8899 0.8539
L32.0614 0.7853
" />
<path d="M31.7871 0.9910
L31.8899 0.8539
" />
<path d="M31.8899 0.8539
L31.9928 0.9910
" />
</g></g>
<g style="fill:none; 
stroke:#AFAFAF; stroke-width:0.1000; stroke-opacity:1; 
stroke-linecap:round; stroke-linejoin:round;">
<path d="M26.8114 1.0750
L28.8214 1.0750
" />
<path d="M28.8214 0.2750
L28.8214 1.8750
" />
<path d="M28.8214 1.8750
L32.4214 1.8750
" />
<path d="M32.4214 0.2750
L28.8214 0.2750
" />
<path d="M32.4214 1.8750
L32.4214 0.2750
" />
<path d="M34.4314 1.0750
L32.4214 1.0750
" />
</g> 
</svg>
