<?xml version="1.0" standalone="no"?>
 <!DOCTYPE svg PUBLIC "-//W3C//DTD SVG 1.1//EN" 
 "http://www.w3.org/Graphics/SVG/1.1/DTD/svg11.dtd"> 
<svg
  xmlns:svg="http://www.w3.org/2000/svg"
  xmlns="http://www.w3.org/2000/svg"
  xmlns:xlink="http://www.w3.org/1999/xlink"
  version="1.1"
  width="26.2636mm" height="32.6644mm" viewBox="0.0000 0.0000 26.2636 32.6644">
<title>SVG Image created as working-brd.svg date 2024/04/07 02:17:33 </title>
  <desc>Image generated by PCBNEW </desc>
<g style="fill:#000000; fill-opacity:1.0000;stroke:#000000; stroke-opacity:1.0000;
stroke-linecap:round; stroke-linejoin:round;"
 transform="translate(0 0) scale(1 1)">
<path style="fill:#C83434; fill-opacity:1.0000; stroke:none;fill-rule:evenodd;"
d="M 0.5600,4.5000
0.5600,0.5600
10.7200,0.5600
10.7200,4.5000
Z" /> 
<path style="fill:#C83434; fill-opacity:1.0000; stroke:none;fill-rule:evenodd;"
d="M 15.8000,4.5000
15.8000,0.5600
25.9600,0.5600
25.9600,4.5000
Z" /> 
<path style="fill:#C83434; fill-opacity:1.0000; stroke:none;fill-rule:evenodd;"
d="M 15.8000,32.3600
15.8000,28.4200
25.9600,28.4200
25.9600,32.3600
Z" /> 
<path style="fill:#C83434; fill-opacity:1.0000; stroke:none;fill-rule:evenodd;"
d="M 0.5600,32.3600
0.5600,28.4200
10.7200,28.4200
10.7200,32.3600
Z" /> 
<path style="fill:#D864FF; fill-opacity:0.4000; stroke:none;fill-rule:evenodd;"
d="M 0.5600,4.5000
0.5600,0.5600
10.7200,0.5600
10.7200,4.5000
Z" /> 
<path style="fill:#D864FF; fill-opacity:0.4000; stroke:none;fill-rule:evenodd;"
d="M 15.8000,4.5000
15.8000,0.5600
25.9600,0.5600
25.9600,4.5000
Z" /> 
<path style="fill:#D864FF; fill-opacity:0.4000; stroke:none;fill-rule:evenodd;"
d="M 15.8000,32.3600
15.8000,28.4200
25.9600,28.4200
25.9600,32.3600
Z" /> 
<path style="fill:#D864FF; fill-opacity:0.4000; stroke:none;fill-rule:evenodd;"
d="M 0.5600,32.3600
0.5600,28.4200
10.7200,28.4200
10.7200,32.3600
Z" /> 
<path style="fill:#B4A09A; fill-opacity:0.9000; stroke:none;fill-rule:evenodd;"
d="M 0.5600,4.5000
0.5600,0.5600
10.7200,0.5600
10.7200,4.5000
Z" /> 
<path style="fill:#B4A09A; fill-opacity:0.9000; stroke:none;fill-rule:evenodd;"
d="M 15.8000,4.5000
15.8000,0.5600
25.9600,0.5600
25.9600,4.5000
Z" /> 
<path style="fill:#B4A09A; fill-opacity:0.9000; stroke:none;fill-rule:evenodd;"
d="M 15.8000,32.3600
15.8000,28.4200
25.9600,28.4200
25.9600,32.3600
Z" /> 
<path style="fill:#B4A09A; fill-opacity:0.9000; stroke:none;fill-rule:evenodd;"
d="M 0.5600,32.3600
0.5600,28.4200
10.7200,28.4200
10.7200,32.3600
Z" /> 
</g>
<g style="fill:none; 
stroke:#F2EDA1; stroke-width:0.1588; stroke-opacity:1; 
stroke-linecap:round; stroke-linejoin:round;">
<text x="13.2600" y="17.0950"
textLength="5.6651" font-size="1.6933" lengthAdjust="spacingAndGlyphs"
text-anchor="middle" opacity="0">REF**</text>
<g class="stroked-text"><desc>REF**</desc>
<path d="M11.5667 17.0393
L11.1433 16.4345
" />
<path d="M10.8410 17.0393
L10.8410 15.7693
" />
<path d="M10.8410 15.7693
L11.3248 15.7693
" />
<path d="M11.3248 15.7693
L11.4457 15.8297
" />
<path d="M11.4457 15.8297
L11.5062 15.8902
" />
<path d="M11.5062 15.8902
L11.5667 16.0112
" />
<path d="M11.5667 16.0112
L11.5667 16.1926
" />
<path d="M11.5667 16.1926
L11.5062 16.3136
" />
<path d="M11.5062 16.3136
L11.4457 16.3740
" />
<path d="M11.4457 16.3740
L11.3248 16.4345
" />
<path d="M11.3248 16.4345
L10.8410 16.4345
" />
<path d="M12.1110 16.3740
L12.5343 16.3740
" />
<path d="M12.7157 17.0393
L12.1110 17.0393
" />
<path d="M12.1110 17.0393
L12.1110 15.7693
" />
<path d="M12.1110 15.7693
L12.7157 15.7693
" />
<path d="M13.6833 16.3740
L13.2600 16.3740
" />
<path d="M13.2600 17.0393
L13.2600 15.7693
" />
<path d="M13.2600 15.7693
L13.8648 15.7693
" />
<path d="M14.5300 15.7693
L14.5300 16.0717
" />
<path d="M14.2276 15.9507
L14.5300 16.0717
" />
<path d="M14.5300 16.0717
L14.8324 15.9507
" />
<path d="M14.3486 16.3136
L14.5300 16.0717
" />
<path d="M14.5300 16.0717
L14.7114 16.3136
" />
<path d="M15.4976 15.7693
L15.4976 16.0717
" />
<path d="M15.1952 15.9507
L15.4976 16.0717
" />
<path d="M15.4976 16.0717
L15.8000 15.9507
" />
<path d="M15.3162 16.3136
L15.4976 16.0717
" />
<path d="M15.4976 16.0717
L15.6790 16.3136
" />
</g></g>
<g style="fill:none; 
stroke:#F2EDA1; stroke-width:0.1200; stroke-opacity:1; 
stroke-linecap:round; stroke-linejoin:round;">
<path d="M0.0600 0.0600
L1.2600 0.0600
" />
<path d="M0.0600 1.4600
L0.0600 0.0600
" />
<path d="M0.3000 0.3000
L26.2200 0.3000
" />
<path d="M0.3000 32.6200
L0.3000 0.3000
" />
<path d="M26.2200 0.3000
L26.2200 32.6200
" />
<path d="M26.2200 32.6200
L0.3000 32.6200
" />
<path style="fill:none; 
stroke:#FF26E2; stroke-width:0.0500; stroke-opacity:1; 
stroke-linecap:round; stroke-linejoin:round;fill:none"
d="M 0.3100,0.3100
26.2100,0.3100
26.2100,32.6100
0.3100,32.6100
Z" /> 
</g>
<g style="fill:none; 
stroke:#AFAFAF; stroke-width:0.1588; stroke-opacity:1; 
stroke-linecap:round; stroke-linejoin:round;">
<text x="13.2600" y="17.0950"
textLength="14.3132" font-size="1.6933" lengthAdjust="spacingAndGlyphs"
text-anchor="middle" opacity="0">L_Pulse_P059x</text>
<g class="stroked-text"><desc>L_Pulse_P059x</desc>
<path d="M7.1217 17.0393
L6.5169 17.0393
" />
<path d="M6.5169 17.0393
L6.5169 15.7693
" />
<path d="M7.2426 17.1602
L8.2102 17.1602
" />
<path d="M8.5126 17.0393
L8.5126 15.7693
" />
<path d="M8.5126 15.7693
L8.9964 15.7693
" />
<path d="M8.9964 15.7693
L9.1174 15.8297
" />
<path d="M9.1174 15.8297
L9.1779 15.8902
" />
<path d="M9.1779 15.8902
L9.2383 16.0112
" />
<path d="M9.2383 16.0112
L9.2383 16.1926
" />
<path d="M9.2383 16.1926
L9.1779 16.3136
" />
<path d="M9.1779 16.3136
L9.1174 16.3740
" />
<path d="M9.1174 16.3740
L8.9964 16.4345
" />
<path d="M8.9964 16.4345
L8.5126 16.4345
" />
<path d="M10.3269 16.1926
L10.3269 17.0393
" />
<path d="M9.7826 16.1926
L9.7826 16.8578
" />
<path d="M9.7826 16.8578
L9.8431 16.9788
" />
<path d="M9.8431 16.9788
L9.9640 17.0393
" />
<path d="M9.9640 17.0393
L10.1455 17.0393
" />
<path d="M10.1455 17.0393
L10.2664 16.9788
" />
<path d="M10.2664 16.9788
L10.3269 16.9183
" />
<path d="M11.1131 17.0393
L10.9921 16.9788
" />
<path d="M10.9921 16.9788
L10.9317 16.8578
" />
<path d="M10.9317 16.8578
L10.9317 15.7693
" />
<path d="M11.5364 16.9788
L11.6574 17.0393
" />
<path d="M11.6574 17.0393
L11.8993 17.0393
" />
<path d="M11.8993 17.0393
L12.0202 16.9788
" />
<path d="M12.0202 16.9788
L12.0807 16.8578
" />
<path d="M12.0807 16.8578
L12.0807 16.7974
" />
<path d="M12.0807 16.7974
L12.0202 16.6764
" />
<path d="M12.0202 16.6764
L11.8993 16.6159
" />
<path d="M11.8993 16.6159
L11.7179 16.6159
" />
<path d="M11.7179 16.6159
L11.5969 16.5555
" />
<path d="M11.5969 16.5555
L11.5364 16.4345
" />
<path d="M11.5364 16.4345
L11.5364 16.3740
" />
<path d="M11.5364 16.3740
L11.5969 16.2531
" />
<path d="M11.5969 16.2531
L11.7179 16.1926
" />
<path d="M11.7179 16.1926
L11.8993 16.1926
" />
<path d="M11.8993 16.1926
L12.0202 16.2531
" />
<path d="M13.1088 16.9788
L12.9879 17.0393
" />
<path d="M12.9879 17.0393
L12.7460 17.0393
" />
<path d="M12.7460 17.0393
L12.6250 16.9788
" />
<path d="M12.6250 16.9788
L12.5645 16.8578
" />
<path d="M12.5645 16.8578
L12.5645 16.3740
" />
<path d="M12.5645 16.3740
L12.6250 16.2531
" />
<path d="M12.6250 16.2531
L12.7460 16.1926
" />
<path d="M12.7460 16.1926
L12.9879 16.1926
" />
<path d="M12.9879 16.1926
L13.1088 16.2531
" />
<path d="M13.1088 16.2531
L13.1693 16.3740
" />
<path d="M13.1693 16.3740
L13.1693 16.4950
" />
<path d="M13.1693 16.4950
L12.5645 16.6159
" />
<path d="M13.4112 17.1602
L14.3788 17.1602
" />
<path d="M14.6812 17.0393
L14.6812 15.7693
" />
<path d="M14.6812 15.7693
L15.1650 15.7693
" />
<path d="M15.1650 15.7693
L15.2860 15.8297
" />
<path d="M15.2860 15.8297
L15.3464 15.8902
" />
<path d="M15.3464 15.8902
L15.4069 16.0112
" />
<path d="M15.4069 16.0112
L15.4069 16.1926
" />
<path d="M15.4069 16.1926
L15.3464 16.3136
" />
<path d="M15.3464 16.3136
L15.2860 16.3740
" />
<path d="M15.2860 16.3740
L15.1650 16.4345
" />
<path d="M15.1650 16.4345
L14.6812 16.4345
" />
<path d="M16.1931 15.7693
L16.3140 15.7693
" />
<path d="M16.3140 15.7693
L16.4350 15.8297
" />
<path d="M16.4350 15.8297
L16.4955 15.8902
" />
<path d="M16.4955 15.8902
L16.5560 16.0112
" />
<path d="M16.5560 16.0112
L16.6164 16.2531
" />
<path d="M16.6164 16.2531
L16.6164 16.5555
" />
<path d="M16.6164 16.5555
L16.5560 16.7974
" />
<path d="M16.5560 16.7974
L16.4955 16.9183
" />
<path d="M16.4955 16.9183
L16.4350 16.9788
" />
<path d="M16.4350 16.9788
L16.3140 17.0393
" />
<path d="M16.3140 17.0393
L16.1931 17.0393
" />
<path d="M16.1931 17.0393
L16.0721 16.9788
" />
<path d="M16.0721 16.9788
L16.0117 16.9183
" />
<path d="M16.0117 16.9183
L15.9512 16.7974
" />
<path d="M15.9512 16.7974
L15.8907 16.5555
" />
<path d="M15.8907 16.5555
L15.8907 16.2531
" />
<path d="M15.8907 16.2531
L15.9512 16.0112
" />
<path d="M15.9512 16.0112
L16.0117 15.8902
" />
<path d="M16.0117 15.8902
L16.0721 15.8297
" />
<path d="M16.0721 15.8297
L16.1931 15.7693
" />
<path d="M17.7655 15.7693
L17.1607 15.7693
" />
<path d="M17.1607 15.7693
L17.1002 16.3740
" />
<path d="M17.1002 16.3740
L17.1607 16.3136
" />
<path d="M17.1607 16.3136
L17.2817 16.2531
" />
<path d="M17.2817 16.2531
L17.5840 16.2531
" />
<path d="M17.5840 16.2531
L17.7050 16.3136
" />
<path d="M17.7050 16.3136
L17.7655 16.3740
" />
<path d="M17.7655 16.3740
L17.8260 16.4950
" />
<path d="M17.8260 16.4950
L17.8260 16.7974
" />
<path d="M17.8260 16.7974
L17.7655 16.9183
" />
<path d="M17.7655 16.9183
L17.7050 16.9788
" />
<path d="M17.7050 16.9788
L17.5840 17.0393
" />
<path d="M17.5840 17.0393
L17.2817 17.0393
" />
<path d="M17.2817 17.0393
L17.1607 16.9788
" />
<path d="M17.1607 16.9788
L17.1002 16.9183
" />
<path d="M18.4307 17.0393
L18.6726 17.0393
" />
<path d="M18.6726 17.0393
L18.7936 16.9788
" />
<path d="M18.7936 16.9788
L18.8540 16.9183
" />
<path d="M18.8540 16.9183
L18.9750 16.7369
" />
<path d="M18.9750 16.7369
L19.0355 16.4950
" />
<path d="M19.0355 16.4950
L19.0355 16.0112
" />
<path d="M19.0355 16.0112
L18.9750 15.8902
" />
<path d="M18.9750 15.8902
L18.9145 15.8297
" />
<path d="M18.9145 15.8297
L18.7936 15.7693
" />
<path d="M18.7936 15.7693
L18.5517 15.7693
" />
<path d="M18.5517 15.7693
L18.4307 15.8297
" />
<path d="M18.4307 15.8297
L18.3702 15.8902
" />
<path d="M18.3702 15.8902
L18.3098 16.0112
" />
<path d="M18.3098 16.0112
L18.3098 16.3136
" />
<path d="M18.3098 16.3136
L18.3702 16.4345
" />
<path d="M18.3702 16.4345
L18.4307 16.4950
" />
<path d="M18.4307 16.4950
L18.5517 16.5555
" />
<path d="M18.5517 16.5555
L18.7936 16.5555
" />
<path d="M18.7936 16.5555
L18.9145 16.4950
" />
<path d="M18.9145 16.4950
L18.9750 16.4345
" />
<path d="M18.9750 16.4345
L19.0355 16.3136
" />
<path d="M19.4588 17.0393
L20.1240 16.1926
" />
<path d="M19.4588 16.1926
L20.1240 17.0393
" />
</g></g>
<g style="fill:none; 
stroke:#AFAFAF; stroke-width:0.1500; stroke-opacity:1; 
stroke-linecap:round; stroke-linejoin:round;">
<text x="13.2600" y="16.9600"
textLength="4.5357" font-size="1.3333" lengthAdjust="spacingAndGlyphs"
text-anchor="middle" opacity="0">REF**</text>
<g class="stroked-text"><desc>REF**</desc>
<path d="M11.9267 16.9148
L11.5933 16.4386
" />
<path d="M11.3552 16.9148
L11.3552 15.9148
" />
<path d="M11.3552 15.9148
L11.7362 15.9148
" />
<path d="M11.7362 15.9148
L11.8314 15.9624
" />
<path d="M11.8314 15.9624
L11.8790 16.0101
" />
<path d="M11.8790 16.0101
L11.9267 16.1053
" />
<path d="M11.9267 16.1053
L11.9267 16.2482
" />
<path d="M11.9267 16.2482
L11.8790 16.3434
" />
<path d="M11.8790 16.3434
L11.8314 16.3910
" />
<path d="M11.8314 16.3910
L11.7362 16.4386
" />
<path d="M11.7362 16.4386
L11.3552 16.4386
" />
<path d="M12.3552 16.3910
L12.6886 16.3910
" />
<path d="M12.8314 16.9148
L12.3552 16.9148
" />
<path d="M12.3552 16.9148
L12.3552 15.9148
" />
<path d="M12.3552 15.9148
L12.8314 15.9148
" />
<path d="M13.5933 16.3910
L13.2600 16.3910
" />
<path d="M13.2600 16.9148
L13.2600 15.9148
" />
<path d="M13.2600 15.9148
L13.7362 15.9148
" />
<path d="M14.2600 15.9148
L14.2600 16.1529
" />
<path d="M14.0219 16.0577
L14.2600 16.1529
" />
<path d="M14.2600 16.1529
L14.4981 16.0577
" />
<path d="M14.1171 16.3434
L14.2600 16.1529
" />
<path d="M14.2600 16.1529
L14.4029 16.3434
" />
<path d="M15.0219 15.9148
L15.0219 16.1529
" />
<path d="M14.7838 16.0577
L15.0219 16.1529
" />
<path d="M15.0219 16.1529
L15.2600 16.0577
" />
<path d="M14.8790 16.3434
L15.0219 16.1529
" />
<path d="M15.0219 16.1529
L15.1648 16.3434
" />
</g></g>
<g style="fill:none; 
stroke:#AFAFAF; stroke-width:0.1000; stroke-opacity:1; 
stroke-linecap:round; stroke-linejoin:round;">
<path d="M0.5600 1.9600
L1.5600 0.9600
" />
<path d="M0.5600 31.9550
L0.5600 1.9600
" />
<path d="M1.5600 0.9600
L25.9600 0.9650
" />
<path d="M25.9600 0.9650
L25.9600 31.9550
" />
<path d="M25.9600 31.9550
L0.5600 31.9550
" />
</g> 
</svg>
