<?xml version="1.0" standalone="no"?>
 <!DOCTYPE svg PUBLIC "-//W3C//DTD SVG 1.1//EN" 
 "http://www.w3.org/Graphics/SVG/1.1/DTD/svg11.dtd"> 
<svg
  xmlns:svg="http://www.w3.org/2000/svg"
  xmlns="http://www.w3.org/2000/svg"
  xmlns:xlink="http://www.w3.org/1999/xlink"
  version="1.1"
  width="37.8968mm" height="14.0462mm" viewBox="0.0000 0.0000 37.8968 14.0462">
<title>SVG Image created as working-brd.svg date 2024/04/17 04:43:20 </title>
  <desc>Image generated by PCBNEW </desc>
<g style="fill:#000000; fill-opacity:1.0000;stroke:#000000; stroke-opacity:1.0000;
stroke-linecap:round; stroke-linejoin:round;"
 transform="translate(0 0) scale(1 1)">
</g>
<g style="fill:#FFFFFF; fill-opacity:1.0000; stroke:none;">
<circle cx="10.3995" cy="7.5250" r="1.1500" /> 
</g>
<g style="fill:#FFFFFF; fill-opacity:1.0000; stroke:none;">
<circle cx="22.3995" cy="7.5250" r="1.1500" /> 
</g>
<g style="fill:#FFFFFF; fill-opacity:1.0000; stroke:none;">
<circle cx="18.9495" cy="2.6850" r="0.4500" /> 
</g>
<g style="fill:#FFFFFF; fill-opacity:1.0000; stroke:none;">
<circle cx="17.9295" cy="5.2250" r="0.4500" /> 
</g>
<g style="fill:#FFFFFF; fill-opacity:1.0000; stroke:none;">
<circle cx="16.9095" cy="2.6850" r="0.4500" /> 
</g>
<g style="fill:#FFFFFF; fill-opacity:1.0000; stroke:none;">
<circle cx="15.8895" cy="5.2250" r="0.4500" /> 
</g>
<g style="fill:#FFFFFF; fill-opacity:1.0000; stroke:none;">
<circle cx="14.8695" cy="2.6850" r="0.4500" /> 
</g>
<g style="fill:#FFFFFF; fill-opacity:1.0000; stroke:none;">
<circle cx="13.8495" cy="5.2250" r="0.4500" /> 
</g>
<g style="fill:#02FFEE; fill-opacity:0.4000; stroke:none;">
<circle cx="10.3995" cy="7.5250" r="1.1500" /> 
</g>
<g style="fill:#02FFEE; fill-opacity:0.4000; stroke:none;">
<circle cx="22.3995" cy="7.5250" r="1.1500" /> 
<path style="fill:#02FFEE; fill-opacity:0.4000; stroke:none;fill-rule:evenodd;"
d="M 18.1895,3.4450
18.1895,1.9250
19.7095,1.9250
19.7095,3.4450
Z" /> 
</g>
<g style="fill:#02FFEE; fill-opacity:0.4000; stroke:none;">
<circle cx="17.9295" cy="5.2250" r="0.7600" /> 
</g>
<g style="fill:#02FFEE; fill-opacity:0.4000; stroke:none;">
<circle cx="16.9095" cy="2.6850" r="0.7600" /> 
</g>
<g style="fill:#02FFEE; fill-opacity:0.4000; stroke:none;">
<circle cx="15.8895" cy="5.2250" r="0.7600" /> 
</g>
<g style="fill:#02FFEE; fill-opacity:0.4000; stroke:none;">
<circle cx="14.8695" cy="2.6850" r="0.7600" /> 
</g>
<g style="fill:#02FFEE; fill-opacity:0.4000; stroke:none;">
<circle cx="13.8495" cy="5.2250" r="0.7600" /> 
</g>
<g style="fill:#FFFFFF; fill-opacity:1.0000; stroke:none;">
<circle cx="10.3995" cy="7.5250" r="1.1500" /> 
</g>
<g style="fill:#FFFFFF; fill-opacity:1.0000; stroke:none;">
<circle cx="22.3995" cy="7.5250" r="1.1500" /> 
</g>
<g style="fill:#FFFFFF; fill-opacity:1.0000; stroke:none;">
<circle cx="18.9495" cy="2.6850" r="0.4500" /> 
</g>
<g style="fill:#FFFFFF; fill-opacity:1.0000; stroke:none;">
<circle cx="17.9295" cy="5.2250" r="0.4500" /> 
</g>
<g style="fill:#FFFFFF; fill-opacity:1.0000; stroke:none;">
<circle cx="16.9095" cy="2.6850" r="0.4500" /> 
</g>
<g style="fill:#FFFFFF; fill-opacity:1.0000; stroke:none;">
<circle cx="15.8895" cy="5.2250" r="0.4500" /> 
</g>
<g style="fill:#FFFFFF; fill-opacity:1.0000; stroke:none;">
<circle cx="14.8695" cy="2.6850" r="0.4500" /> 
</g>
<g style="fill:#FFFFFF; fill-opacity:1.0000; stroke:none;">
<circle cx="13.8495" cy="5.2250" r="0.4500" /> 
</g>
<g style="fill:#FFFFFF; fill-opacity:1.0000; stroke:none;">
<circle cx="10.3995" cy="7.5250" r="1.1500" /> 
</g>
<g style="fill:#FFFFFF; fill-opacity:1.0000; stroke:none;">
<circle cx="22.3995" cy="7.5250" r="1.1500" /> 
</g>
<g style="fill:#FFFFFF; fill-opacity:1.0000; stroke:none;">
<circle cx="18.9495" cy="2.6850" r="0.4500" /> 
</g>
<g style="fill:#FFFFFF; fill-opacity:1.0000; stroke:none;">
<circle cx="17.9295" cy="5.2250" r="0.4500" /> 
</g>
<g style="fill:#FFFFFF; fill-opacity:1.0000; stroke:none;">
<circle cx="16.9095" cy="2.6850" r="0.4500" /> 
</g>
<g style="fill:#FFFFFF; fill-opacity:1.0000; stroke:none;">
<circle cx="15.8895" cy="5.2250" r="0.4500" /> 
</g>
<g style="fill:#FFFFFF; fill-opacity:1.0000; stroke:none;">
<circle cx="14.8695" cy="2.6850" r="0.4500" /> 
</g>
<g style="fill:#FFFFFF; fill-opacity:1.0000; stroke:none;">
<circle cx="13.8495" cy="5.2250" r="0.4500" /> 
</g>
<g style="fill:#D864FF; fill-opacity:0.4000; stroke:none;">
<circle cx="10.3995" cy="7.5250" r="1.1500" /> 
</g>
<g style="fill:#D864FF; fill-opacity:0.4000; stroke:none;">
<circle cx="22.3995" cy="7.5250" r="1.1500" /> 
<path style="fill:#D864FF; fill-opacity:0.4000; stroke:none;fill-rule:evenodd;"
d="M 18.1895,3.4450
18.1895,1.9250
19.7095,1.9250
19.7095,3.4450
Z" /> 
</g>
<g style="fill:#D864FF; fill-opacity:0.4000; stroke:none;">
<circle cx="17.9295" cy="5.2250" r="0.7600" /> 
</g>
<g style="fill:#D864FF; fill-opacity:0.4000; stroke:none;">
<circle cx="16.9095" cy="2.6850" r="0.7600" /> 
</g>
<g style="fill:#D864FF; fill-opacity:0.4000; stroke:none;">
<circle cx="15.8895" cy="5.2250" r="0.7600" /> 
</g>
<g style="fill:#D864FF; fill-opacity:0.4000; stroke:none;">
<circle cx="14.8695" cy="2.6850" r="0.7600" /> 
</g>
<g style="fill:#D864FF; fill-opacity:0.4000; stroke:none;">
<circle cx="13.8495" cy="5.2250" r="0.7600" /> 
</g>
<g style="fill:none; 
stroke:#F2EDA1; stroke-width:0.1588; stroke-opacity:1; 
stroke-linecap:round; stroke-linejoin:round;">
<text x="18.9495" y="3.3200"
textLength="5.6651" font-size="1.6933" lengthAdjust="spacingAndGlyphs"
text-anchor="middle" opacity="0">REF**</text>
<g class="stroked-text"><desc>REF**</desc>
<path d="M17.2561 3.2643
L16.8328 2.6595
" />
<path d="M16.5304 3.2643
L16.5304 1.9943
" />
<path d="M16.5304 1.9943
L17.0142 1.9943
" />
<path d="M17.0142 1.9943
L17.1352 2.0547
" />
<path d="M17.1352 2.0547
L17.1957 2.1152
" />
<path d="M17.1957 2.1152
L17.2561 2.2362
" />
<path d="M17.2561 2.2362
L17.2561 2.4176
" />
<path d="M17.2561 2.4176
L17.1957 2.5386
" />
<path d="M17.1957 2.5386
L17.1352 2.5990
" />
<path d="M17.1352 2.5990
L17.0142 2.6595
" />
<path d="M17.0142 2.6595
L16.5304 2.6595
" />
<path d="M17.8004 2.5990
L18.2237 2.5990
" />
<path d="M18.4052 3.2643
L17.8004 3.2643
" />
<path d="M17.8004 3.2643
L17.8004 1.9943
" />
<path d="M17.8004 1.9943
L18.4052 1.9943
" />
<path d="M19.3728 2.5990
L18.9495 2.5990
" />
<path d="M18.9495 3.2643
L18.9495 1.9943
" />
<path d="M18.9495 1.9943
L19.5542 1.9943
" />
<path d="M20.2195 1.9943
L20.2195 2.2967
" />
<path d="M19.9171 2.1757
L20.2195 2.2967
" />
<path d="M20.2195 2.2967
L20.5218 2.1757
" />
<path d="M20.0380 2.5386
L20.2195 2.2967
" />
<path d="M20.2195 2.2967
L20.4009 2.5386
" />
<path d="M21.1871 1.9943
L21.1871 2.2967
" />
<path d="M20.8847 2.1757
L21.1871 2.2967
" />
<path d="M21.1871 2.2967
L21.4895 2.1757
" />
<path d="M21.0056 2.5386
L21.1871 2.2967
" />
<path d="M21.1871 2.2967
L21.3685 2.5386
" />
</g></g>
<g style="fill:none; 
stroke:#F2EDA1; stroke-width:0.1200; stroke-opacity:1; 
stroke-linecap:round; stroke-linejoin:round;">
<path d="M10.1895 0.4150
L10.1895 6.1550
" />
<path d="M10.1895 0.4150
L22.6095 0.4150
" />
<path d="M10.1895 8.9050
L10.1895 13.6350
" />
<path d="M10.1895 13.6350
L22.6095 13.6350
" />
<path d="M22.6095 0.4150
L22.6095 6.1550
" />
<path d="M22.6095 8.9050
L22.6095 13.6350
" />
<path d="M22.7695 2.6850
L23.2695 3.1850
" />
<path d="M23.2695 2.1850
L22.7695 2.6850
" />
<path d="M23.2695 2.1850
L23.2695 3.1850
" />
</g>
<g style="fill:#FFFFFF; fill-opacity:1.0000; stroke:none;">
<circle cx="10.3995" cy="7.5250" r="1.1500" /> 
</g>
<g style="fill:#FFFFFF; fill-opacity:1.0000; stroke:none;">
<circle cx="22.3995" cy="7.5250" r="1.1500" /> 
</g>
<g style="fill:#FFFFFF; fill-opacity:1.0000; stroke:none;">
<circle cx="18.9495" cy="2.6850" r="0.4500" /> 
</g>
<g style="fill:#FFFFFF; fill-opacity:1.0000; stroke:none;">
<circle cx="17.9295" cy="5.2250" r="0.4500" /> 
</g>
<g style="fill:#FFFFFF; fill-opacity:1.0000; stroke:none;">
<circle cx="16.9095" cy="2.6850" r="0.4500" /> 
</g>
<g style="fill:#FFFFFF; fill-opacity:1.0000; stroke:none;">
<circle cx="15.8895" cy="5.2250" r="0.4500" /> 
</g>
<g style="fill:#FFFFFF; fill-opacity:1.0000; stroke:none;">
<circle cx="14.8695" cy="2.6850" r="0.4500" /> 
</g>
<g style="fill:#FFFFFF; fill-opacity:1.0000; stroke:none;">
<circle cx="13.8495" cy="5.2250" r="0.4500" /> 
</g>
<g style="fill:none; 
stroke:#FF26E2; stroke-width:0.0500; stroke-opacity:1; 
stroke-linecap:round; stroke-linejoin:round;">
<path d="M8.7495 0.0250
L8.7495 14.0250
" />
<path d="M8.7495 0.0250
L24.0495 0.0250
" />
<path d="M24.0495 14.0250
L8.7495 14.0250
" />
<path d="M24.0495 14.0250
L24.0495 0.0250
" />
</g>
<g style="fill:none; 
stroke:#AFAFAF; stroke-width:0.1588; stroke-opacity:1; 
stroke-linecap:round; stroke-linejoin:round;">
<text x="18.9495" y="3.3200"
textLength="37.8989" font-size="1.6933" lengthAdjust="spacingAndGlyphs"
text-anchor="middle" opacity="0">RJ25_Wayconn_MJEA-660X1_Horizontal</text>
<g class="stroked-text"><desc>RJ25_Wayconn_MJEA-660X1_Horizontal</desc>
<path d="M1.1392 3.2643
L0.7159 2.6595
" />
<path d="M0.4135 3.2643
L0.4135 1.9943
" />
<path d="M0.4135 1.9943
L0.8973 1.9943
" />
<path d="M0.8973 1.9943
L1.0183 2.0547
" />
<path d="M1.0183 2.0547
L1.0787 2.1152
" />
<path d="M1.0787 2.1152
L1.1392 2.2362
" />
<path d="M1.1392 2.2362
L1.1392 2.4176
" />
<path d="M1.1392 2.4176
L1.0787 2.5386
" />
<path d="M1.0787 2.5386
L1.0183 2.5990
" />
<path d="M1.0183 2.5990
L0.8973 2.6595
" />
<path d="M0.8973 2.6595
L0.4135 2.6595
" />
<path d="M2.0464 1.9943
L2.0464 2.9014
" />
<path d="M2.0464 2.9014
L1.9859 3.0828
" />
<path d="M1.9859 3.0828
L1.8649 3.2038
" />
<path d="M1.8649 3.2038
L1.6835 3.2643
" />
<path d="M1.6835 3.2643
L1.5626 3.2643
" />
<path d="M2.5906 2.1152
L2.6511 2.0547
" />
<path d="M2.6511 2.0547
L2.7721 1.9943
" />
<path d="M2.7721 1.9943
L3.0745 1.9943
" />
<path d="M3.0745 1.9943
L3.1954 2.0547
" />
<path d="M3.1954 2.0547
L3.2559 2.1152
" />
<path d="M3.2559 2.1152
L3.3164 2.2362
" />
<path d="M3.3164 2.2362
L3.3164 2.3571
" />
<path d="M3.3164 2.3571
L3.2559 2.5386
" />
<path d="M3.2559 2.5386
L2.5302 3.2643
" />
<path d="M2.5302 3.2643
L3.3164 3.2643
" />
<path d="M4.4654 1.9943
L3.8606 1.9943
" />
<path d="M3.8606 1.9943
L3.8002 2.5990
" />
<path d="M3.8002 2.5990
L3.8606 2.5386
" />
<path d="M3.8606 2.5386
L3.9816 2.4781
" />
<path d="M3.9816 2.4781
L4.2840 2.4781
" />
<path d="M4.2840 2.4781
L4.4049 2.5386
" />
<path d="M4.4049 2.5386
L4.4654 2.5990
" />
<path d="M4.4654 2.5990
L4.5259 2.7200
" />
<path d="M4.5259 2.7200
L4.5259 3.0224
" />
<path d="M4.5259 3.0224
L4.4654 3.1433
" />
<path d="M4.4654 3.1433
L4.4049 3.2038
" />
<path d="M4.4049 3.2038
L4.2840 3.2643
" />
<path d="M4.2840 3.2643
L3.9816 3.2643
" />
<path d="M3.9816 3.2643
L3.8606 3.2038
" />
<path d="M3.8606 3.2038
L3.8002 3.1433
" />
<path d="M4.7678 3.3852
L5.7354 3.3852
" />
<path d="M5.9168 1.9943
L6.2192 3.2643
" />
<path d="M6.2192 3.2643
L6.4611 2.3571
" />
<path d="M6.4611 2.3571
L6.7030 3.2643
" />
<path d="M6.7030 3.2643
L7.0054 1.9943
" />
<path d="M8.0335 3.2643
L8.0335 2.5990
" />
<path d="M8.0335 2.5990
L7.9730 2.4781
" />
<path d="M7.9730 2.4781
L7.8521 2.4176
" />
<path d="M7.8521 2.4176
L7.6102 2.4176
" />
<path d="M7.6102 2.4176
L7.4892 2.4781
" />
<path d="M8.0335 3.2038
L7.9126 3.2643
" />
<path d="M7.9126 3.2643
L7.6102 3.2643
" />
<path d="M7.6102 3.2643
L7.4892 3.2038
" />
<path d="M7.4892 3.2038
L7.4287 3.0828
" />
<path d="M7.4287 3.0828
L7.4287 2.9619
" />
<path d="M7.4287 2.9619
L7.4892 2.8409
" />
<path d="M7.4892 2.8409
L7.6102 2.7805
" />
<path d="M7.6102 2.7805
L7.9126 2.7805
" />
<path d="M7.9126 2.7805
L8.0335 2.7200
" />
<path d="M8.5173 2.4176
L8.8197 3.2643
" />
<path d="M9.1221 2.4176
L8.8197 3.2643
" />
<path d="M8.8197 3.2643
L8.6987 3.5667
" />
<path d="M8.6987 3.5667
L8.6383 3.6271
" />
<path d="M8.6383 3.6271
L8.5173 3.6876
" />
<path d="M10.1502 3.2038
L10.0292 3.2643
" />
<path d="M10.0292 3.2643
L9.7873 3.2643
" />
<path d="M9.7873 3.2643
L9.6664 3.2038
" />
<path d="M9.6664 3.2038
L9.6059 3.1433
" />
<path d="M9.6059 3.1433
L9.5454 3.0224
" />
<path d="M9.5454 3.0224
L9.5454 2.6595
" />
<path d="M9.5454 2.6595
L9.6059 2.5386
" />
<path d="M9.6059 2.5386
L9.6664 2.4781
" />
<path d="M9.6664 2.4781
L9.7873 2.4176
" />
<path d="M9.7873 2.4176
L10.0292 2.4176
" />
<path d="M10.0292 2.4176
L10.1502 2.4781
" />
<path d="M10.8759 3.2643
L10.7549 3.2038
" />
<path d="M10.7549 3.2038
L10.6945 3.1433
" />
<path d="M10.6945 3.1433
L10.6340 3.0224
" />
<path d="M10.6340 3.0224
L10.6340 2.6595
" />
<path d="M10.6340 2.6595
L10.6945 2.5386
" />
<path d="M10.6945 2.5386
L10.7549 2.4781
" />
<path d="M10.7549 2.4781
L10.8759 2.4176
" />
<path d="M10.8759 2.4176
L11.0573 2.4176
" />
<path d="M11.0573 2.4176
L11.1783 2.4781
" />
<path d="M11.1783 2.4781
L11.2387 2.5386
" />
<path d="M11.2387 2.5386
L11.2992 2.6595
" />
<path d="M11.2992 2.6595
L11.2992 3.0224
" />
<path d="M11.2992 3.0224
L11.2387 3.1433
" />
<path d="M11.2387 3.1433
L11.1783 3.2038
" />
<path d="M11.1783 3.2038
L11.0573 3.2643
" />
<path d="M11.0573 3.2643
L10.8759 3.2643
" />
<path d="M11.8435 2.4176
L11.8435 3.2643
" />
<path d="M11.8435 2.5386
L11.9040 2.4781
" />
<path d="M11.9040 2.4781
L12.0249 2.4176
" />
<path d="M12.0249 2.4176
L12.2064 2.4176
" />
<path d="M12.2064 2.4176
L12.3273 2.4781
" />
<path d="M12.3273 2.4781
L12.3878 2.5990
" />
<path d="M12.3878 2.5990
L12.3878 3.2643
" />
<path d="M12.9926 2.4176
L12.9926 3.2643
" />
<path d="M12.9926 2.5386
L13.0530 2.4781
" />
<path d="M13.0530 2.4781
L13.1740 2.4176
" />
<path d="M13.1740 2.4176
L13.3554 2.4176
" />
<path d="M13.3554 2.4176
L13.4764 2.4781
" />
<path d="M13.4764 2.4781
L13.5368 2.5990
" />
<path d="M13.5368 2.5990
L13.5368 3.2643
" />
<path d="M13.8392 3.3852
L14.8068 3.3852
" />
<path d="M15.1092 3.2643
L15.1092 1.9943
" />
<path d="M15.1092 1.9943
L15.5326 2.9014
" />
<path d="M15.5326 2.9014
L15.9559 1.9943
" />
<path d="M15.9559 1.9943
L15.9559 3.2643
" />
<path d="M16.9235 1.9943
L16.9235 2.9014
" />
<path d="M16.9235 2.9014
L16.8630 3.0828
" />
<path d="M16.8630 3.0828
L16.7421 3.2038
" />
<path d="M16.7421 3.2038
L16.5607 3.2643
" />
<path d="M16.5607 3.2643
L16.4397 3.2643
" />
<path d="M17.5283 2.5990
L17.9516 2.5990
" />
<path d="M18.1330 3.2643
L17.5283 3.2643
" />
<path d="M17.5283 3.2643
L17.5283 1.9943
" />
<path d="M17.5283 1.9943
L18.1330 1.9943
" />
<path d="M18.6168 2.9014
L19.2216 2.9014
" />
<path d="M18.4959 3.2643
L18.9192 1.9943
" />
<path d="M18.9192 1.9943
L19.3426 3.2643
" />
<path d="M19.7659 2.7805
L20.7335 2.7805
" />
<path d="M21.8826 1.9943
L21.6406 1.9943
" />
<path d="M21.6406 1.9943
L21.5197 2.0547
" />
<path d="M21.5197 2.0547
L21.4592 2.1152
" />
<path d="M21.4592 2.1152
L21.3383 2.2967
" />
<path d="M21.3383 2.2967
L21.2778 2.5386
" />
<path d="M21.2778 2.5386
L21.2778 3.0224
" />
<path d="M21.2778 3.0224
L21.3383 3.1433
" />
<path d="M21.3383 3.1433
L21.3987 3.2038
" />
<path d="M21.3987 3.2038
L21.5197 3.2643
" />
<path d="M21.5197 3.2643
L21.7616 3.2643
" />
<path d="M21.7616 3.2643
L21.8826 3.2038
" />
<path d="M21.8826 3.2038
L21.9430 3.1433
" />
<path d="M21.9430 3.1433
L22.0035 3.0224
" />
<path d="M22.0035 3.0224
L22.0035 2.7200
" />
<path d="M22.0035 2.7200
L21.9430 2.5990
" />
<path d="M21.9430 2.5990
L21.8826 2.5386
" />
<path d="M21.8826 2.5386
L21.7616 2.4781
" />
<path d="M21.7616 2.4781
L21.5197 2.4781
" />
<path d="M21.5197 2.4781
L21.3987 2.5386
" />
<path d="M21.3987 2.5386
L21.3383 2.5990
" />
<path d="M21.3383 2.5990
L21.2778 2.7200
" />
<path d="M23.0921 1.9943
L22.8502 1.9943
" />
<path d="M22.8502 1.9943
L22.7292 2.0547
" />
<path d="M22.7292 2.0547
L22.6687 2.1152
" />
<path d="M22.6687 2.1152
L22.5478 2.2967
" />
<path d="M22.5478 2.2967
L22.4873 2.5386
" />
<path d="M22.4873 2.5386
L22.4873 3.0224
" />
<path d="M22.4873 3.0224
L22.5478 3.1433
" />
<path d="M22.5478 3.1433
L22.6083 3.2038
" />
<path d="M22.6083 3.2038
L22.7292 3.2643
" />
<path d="M22.7292 3.2643
L22.9711 3.2643
" />
<path d="M22.9711 3.2643
L23.0921 3.2038
" />
<path d="M23.0921 3.2038
L23.1526 3.1433
" />
<path d="M23.1526 3.1433
L23.2130 3.0224
" />
<path d="M23.2130 3.0224
L23.2130 2.7200
" />
<path d="M23.2130 2.7200
L23.1526 2.5990
" />
<path d="M23.1526 2.5990
L23.0921 2.5386
" />
<path d="M23.0921 2.5386
L22.9711 2.4781
" />
<path d="M22.9711 2.4781
L22.7292 2.4781
" />
<path d="M22.7292 2.4781
L22.6083 2.5386
" />
<path d="M22.6083 2.5386
L22.5478 2.5990
" />
<path d="M22.5478 2.5990
L22.4873 2.7200
" />
<path d="M23.9992 1.9943
L24.1202 1.9943
" />
<path d="M24.1202 1.9943
L24.2411 2.0547
" />
<path d="M24.2411 2.0547
L24.3016 2.1152
" />
<path d="M24.3016 2.1152
L24.3621 2.2362
" />
<path d="M24.3621 2.2362
L24.4226 2.4781
" />
<path d="M24.4226 2.4781
L24.4226 2.7805
" />
<path d="M24.4226 2.7805
L24.3621 3.0224
" />
<path d="M24.3621 3.0224
L24.3016 3.1433
" />
<path d="M24.3016 3.1433
L24.2411 3.2038
" />
<path d="M24.2411 3.2038
L24.1202 3.2643
" />
<path d="M24.1202 3.2643
L23.9992 3.2643
" />
<path d="M23.9992 3.2643
L23.8783 3.2038
" />
<path d="M23.8783 3.2038
L23.8178 3.1433
" />
<path d="M23.8178 3.1433
L23.7573 3.0224
" />
<path d="M23.7573 3.0224
L23.6968 2.7805
" />
<path d="M23.6968 2.7805
L23.6968 2.4781
" />
<path d="M23.6968 2.4781
L23.7573 2.2362
" />
<path d="M23.7573 2.2362
L23.8178 2.1152
" />
<path d="M23.8178 2.1152
L23.8783 2.0547
" />
<path d="M23.8783 2.0547
L23.9992 1.9943
" />
<path d="M24.8459 1.9943
L25.6926 3.2643
" />
<path d="M25.6926 1.9943
L24.8459 3.2643
" />
<path d="M26.8416 3.2643
L26.1159 3.2643
" />
<path d="M26.4787 3.2643
L26.4787 1.9943
" />
<path d="M26.4787 1.9943
L26.3578 2.1757
" />
<path d="M26.3578 2.1757
L26.2368 2.2967
" />
<path d="M26.2368 2.2967
L26.1159 2.3571
" />
<path d="M27.0835 3.3852
L28.0511 3.3852
" />
<path d="M28.3535 3.2643
L28.3535 1.9943
" />
<path d="M28.3535 2.5990
L29.0792 2.5990
" />
<path d="M29.0792 3.2643
L29.0792 1.9943
" />
<path d="M29.8654 3.2643
L29.7445 3.2038
" />
<path d="M29.7445 3.2038
L29.6840 3.1433
" />
<path d="M29.6840 3.1433
L29.6235 3.0224
" />
<path d="M29.6235 3.0224
L29.6235 2.6595
" />
<path d="M29.6235 2.6595
L29.6840 2.5386
" />
<path d="M29.6840 2.5386
L29.7445 2.4781
" />
<path d="M29.7445 2.4781
L29.8654 2.4176
" />
<path d="M29.8654 2.4176
L30.0468 2.4176
" />
<path d="M30.0468 2.4176
L30.1678 2.4781
" />
<path d="M30.1678 2.4781
L30.2283 2.5386
" />
<path d="M30.2283 2.5386
L30.2887 2.6595
" />
<path d="M30.2887 2.6595
L30.2887 3.0224
" />
<path d="M30.2887 3.0224
L30.2283 3.1433
" />
<path d="M30.2283 3.1433
L30.1678 3.2038
" />
<path d="M30.1678 3.2038
L30.0468 3.2643
" />
<path d="M30.0468 3.2643
L29.8654 3.2643
" />
<path d="M30.8330 3.2643
L30.8330 2.4176
" />
<path d="M30.8330 2.6595
L30.8935 2.5386
" />
<path d="M30.8935 2.5386
L30.9540 2.4781
" />
<path d="M30.9540 2.4781
L31.0749 2.4176
" />
<path d="M31.0749 2.4176
L31.1959 2.4176
" />
<path d="M31.6192 3.2643
L31.6192 2.4176
" />
<path d="M31.6192 1.9943
L31.5587 2.0547
" />
<path d="M31.5587 2.0547
L31.6192 2.1152
" />
<path d="M31.6192 2.1152
L31.6797 2.0547
" />
<path d="M31.6797 2.0547
L31.6192 1.9943
" />
<path d="M31.6192 1.9943
L31.6192 2.1152
" />
<path d="M32.1030 2.4176
L32.7683 2.4176
" />
<path d="M32.7683 2.4176
L32.1030 3.2643
" />
<path d="M32.1030 3.2643
L32.7683 3.2643
" />
<path d="M33.4335 3.2643
L33.3126 3.2038
" />
<path d="M33.3126 3.2038
L33.2521 3.1433
" />
<path d="M33.2521 3.1433
L33.1916 3.0224
" />
<path d="M33.1916 3.0224
L33.1916 2.6595
" />
<path d="M33.1916 2.6595
L33.2521 2.5386
" />
<path d="M33.2521 2.5386
L33.3126 2.4781
" />
<path d="M33.3126 2.4781
L33.4335 2.4176
" />
<path d="M33.4335 2.4176
L33.6149 2.4176
" />
<path d="M33.6149 2.4176
L33.7359 2.4781
" />
<path d="M33.7359 2.4781
L33.7964 2.5386
" />
<path d="M33.7964 2.5386
L33.8568 2.6595
" />
<path d="M33.8568 2.6595
L33.8568 3.0224
" />
<path d="M33.8568 3.0224
L33.7964 3.1433
" />
<path d="M33.7964 3.1433
L33.7359 3.2038
" />
<path d="M33.7359 3.2038
L33.6149 3.2643
" />
<path d="M33.6149 3.2643
L33.4335 3.2643
" />
<path d="M34.4011 2.4176
L34.4011 3.2643
" />
<path d="M34.4011 2.5386
L34.4616 2.4781
" />
<path d="M34.4616 2.4781
L34.5826 2.4176
" />
<path d="M34.5826 2.4176
L34.7640 2.4176
" />
<path d="M34.7640 2.4176
L34.8849 2.4781
" />
<path d="M34.8849 2.4781
L34.9454 2.5990
" />
<path d="M34.9454 2.5990
L34.9454 3.2643
" />
<path d="M35.3687 2.4176
L35.8526 2.4176
" />
<path d="M35.5502 1.9943
L35.5502 3.0828
" />
<path d="M35.5502 3.0828
L35.6107 3.2038
" />
<path d="M35.6107 3.2038
L35.7316 3.2643
" />
<path d="M35.7316 3.2643
L35.8526 3.2643
" />
<path d="M36.8202 3.2643
L36.8202 2.5990
" />
<path d="M36.8202 2.5990
L36.7597 2.4781
" />
<path d="M36.7597 2.4781
L36.6387 2.4176
" />
<path d="M36.6387 2.4176
L36.3968 2.4176
" />
<path d="M36.3968 2.4176
L36.2759 2.4781
" />
<path d="M36.8202 3.2038
L36.6992 3.2643
" />
<path d="M36.6992 3.2643
L36.3968 3.2643
" />
<path d="M36.3968 3.2643
L36.2759 3.2038
" />
<path d="M36.2759 3.2038
L36.2154 3.0828
" />
<path d="M36.2154 3.0828
L36.2154 2.9619
" />
<path d="M36.2154 2.9619
L36.2759 2.8409
" />
<path d="M36.2759 2.8409
L36.3968 2.7805
" />
<path d="M36.3968 2.7805
L36.6992 2.7805
" />
<path d="M36.6992 2.7805
L36.8202 2.7200
" />
<path d="M37.6064 3.2643
L37.4854 3.2038
" />
<path d="M37.4854 3.2038
L37.4249 3.0828
" />
<path d="M37.4249 3.0828
L37.4249 1.9943
" />
</g></g>
<g style="fill:none; 
stroke:#AFAFAF; stroke-width:0.1500; stroke-opacity:1; 
stroke-linecap:round; stroke-linejoin:round;">
<text x="16.3995" y="7.6300"
textLength="4.5357" font-size="1.3333" lengthAdjust="spacingAndGlyphs"
text-anchor="middle" opacity="0">REF**</text>
<g class="stroked-text"><desc>REF**</desc>
<path d="M15.0661 7.5848
L14.7328 7.1086
" />
<path d="M14.4947 7.5848
L14.4947 6.5848
" />
<path d="M14.4947 6.5848
L14.8757 6.5848
" />
<path d="M14.8757 6.5848
L14.9709 6.6324
" />
<path d="M14.9709 6.6324
L15.0185 6.6801
" />
<path d="M15.0185 6.6801
L15.0661 6.7753
" />
<path d="M15.0661 6.7753
L15.0661 6.9182
" />
<path d="M15.0661 6.9182
L15.0185 7.0134
" />
<path d="M15.0185 7.0134
L14.9709 7.0610
" />
<path d="M14.9709 7.0610
L14.8757 7.1086
" />
<path d="M14.8757 7.1086
L14.4947 7.1086
" />
<path d="M15.4947 7.0610
L15.8280 7.0610
" />
<path d="M15.9709 7.5848
L15.4947 7.5848
" />
<path d="M15.4947 7.5848
L15.4947 6.5848
" />
<path d="M15.4947 6.5848
L15.9709 6.5848
" />
<path d="M16.7328 7.0610
L16.3995 7.0610
" />
<path d="M16.3995 7.5848
L16.3995 6.5848
" />
<path d="M16.3995 6.5848
L16.8757 6.5848
" />
<path d="M17.3995 6.5848
L17.3995 6.8229
" />
<path d="M17.1614 6.7277
L17.3995 6.8229
" />
<path d="M17.3995 6.8229
L17.6376 6.7277
" />
<path d="M17.2566 7.0134
L17.3995 6.8229
" />
<path d="M17.3995 6.8229
L17.5423 7.0134
" />
<path d="M18.1614 6.5848
L18.1614 6.8229
" />
<path d="M17.9233 6.7277
L18.1614 6.8229
" />
<path d="M18.1614 6.8229
L18.3995 6.7277
" />
<path d="M18.0185 7.0134
L18.1614 6.8229
" />
<path d="M18.1614 6.8229
L18.3042 7.0134
" />
</g></g>
<g style="fill:none; 
stroke:#AFAFAF; stroke-width:0.1000; stroke-opacity:1; 
stroke-linecap:round; stroke-linejoin:round;">
<path d="M10.2995 0.5250
L10.2995 6.1550
" />
<path d="M10.2995 0.5250
L22.4995 0.5250
" />
<path d="M10.2995 8.9050
L10.2995 13.5250
" />
<path d="M10.2995 13.5250
L22.4995 13.5250
" />
<path d="M21.9995 2.6850
L22.4995 3.1850
" />
<path d="M22.4995 0.5250
L22.4995 2.1850
" />
<path d="M22.4995 2.1850
L21.9995 2.6850
" />
<path d="M22.4995 3.1850
L22.4995 6.1550
" />
<path d="M22.4995 8.9050
L22.4995 13.5250
" />
</g> 
</svg>
