<?xml version="1.0" standalone="no"?>
 <!DOCTYPE svg PUBLIC "-//W3C//DTD SVG 1.1//EN" 
 "http://www.w3.org/Graphics/SVG/1.1/DTD/svg11.dtd"> 
<svg
  xmlns:svg="http://www.w3.org/2000/svg"
  xmlns="http://www.w3.org/2000/svg"
  xmlns:xlink="http://www.w3.org/1999/xlink"
  version="1.1"
  width="38.6842mm" height="6.0452mm" viewBox="0.0000 0.0000 38.6842 6.0452">
<title>SVG Image created as working-brd.svg date 2024/04/07 20:01:28 </title>
  <desc>Image generated by PCBNEW </desc>
<g style="fill:#000000; fill-opacity:1.0000;stroke:#000000; stroke-opacity:1.0000;
stroke-linecap:round; stroke-linejoin:round;"
 transform="translate(0 0) scale(1 1)">
</g>
<g style="fill:#FFFFFF; fill-opacity:1.0000; stroke:none;">
<circle cx="19.3426" cy="3.0250" r="1.6000" /> 
</g>
<g style="fill:#02FFEE; fill-opacity:0.4000; stroke:none;">
<circle cx="19.3426" cy="3.0250" r="2.7500" /> 
</g>
<g style="fill:#FFFFFF; fill-opacity:1.0000; stroke:none;">
<circle cx="19.3426" cy="3.0250" r="1.6000" /> 
</g>
<g style="fill:#FFFFFF; fill-opacity:1.0000; stroke:none;">
<circle cx="19.3426" cy="3.0250" r="1.6000" /> 
</g>
<g style="fill:#D864FF; fill-opacity:0.4000; stroke:none;">
<circle cx="19.3426" cy="3.0250" r="2.7500" /> 
</g>
<g style="fill:none; 
stroke:#F2EDA1; stroke-width:0.1588; stroke-opacity:1; 
stroke-linecap:round; stroke-linejoin:round;">
<text x="19.3426" y="3.6600"
textLength="5.6651" font-size="1.6933" lengthAdjust="spacingAndGlyphs"
text-anchor="middle" opacity="0">REF**</text>
<g class="stroked-text"><desc>REF**</desc>
<path d="M17.6492 3.6043
L17.2259 2.9995
" />
<path d="M16.9235 3.6043
L16.9235 2.3343
" />
<path d="M16.9235 2.3343
L17.4073 2.3343
" />
<path d="M17.4073 2.3343
L17.5283 2.3947
" />
<path d="M17.5283 2.3947
L17.5887 2.4552
" />
<path d="M17.5887 2.4552
L17.6492 2.5762
" />
<path d="M17.6492 2.5762
L17.6492 2.7576
" />
<path d="M17.6492 2.7576
L17.5887 2.8786
" />
<path d="M17.5887 2.8786
L17.5283 2.9390
" />
<path d="M17.5283 2.9390
L17.4073 2.9995
" />
<path d="M17.4073 2.9995
L16.9235 2.9995
" />
<path d="M18.1935 2.9390
L18.6168 2.9390
" />
<path d="M18.7983 3.6043
L18.1935 3.6043
" />
<path d="M18.1935 3.6043
L18.1935 2.3343
" />
<path d="M18.1935 2.3343
L18.7983 2.3343
" />
<path d="M19.7659 2.9390
L19.3426 2.9390
" />
<path d="M19.3426 3.6043
L19.3426 2.3343
" />
<path d="M19.3426 2.3343
L19.9473 2.3343
" />
<path d="M20.6126 2.3343
L20.6126 2.6367
" />
<path d="M20.3102 2.5157
L20.6126 2.6367
" />
<path d="M20.6126 2.6367
L20.9149 2.5157
" />
<path d="M20.4311 2.8786
L20.6126 2.6367
" />
<path d="M20.6126 2.6367
L20.7940 2.8786
" />
<path d="M21.5802 2.3343
L21.5802 2.6367
" />
<path d="M21.2778 2.5157
L21.5802 2.6367
" />
<path d="M21.5802 2.6367
L21.8826 2.5157
" />
<path d="M21.3987 2.8786
L21.5802 2.6367
" />
<path d="M21.5802 2.6367
L21.7616 2.8786
" />
</g></g>
<g style="fill:#FFFFFF; fill-opacity:1.0000; stroke:none;">
<circle cx="19.3426" cy="3.0250" r="1.6000" /> 
</g>
<g style="fill:none; 
stroke:#FF26E2; stroke-width:0.0500; stroke-opacity:1; 
stroke-linecap:round; stroke-linejoin:round;">
<circle cx="19.3426" cy="3.0250" r="3.0000" /> 
</g>
<g style="fill:none; 
stroke:#AFAFAF; stroke-width:0.1588; stroke-opacity:1; 
stroke-linecap:round; stroke-linejoin:round;">
<text x="19.3426" y="3.6600"
textLength="38.6851" font-size="1.6933" lengthAdjust="spacingAndGlyphs"
text-anchor="middle" opacity="0">MountingHole_3.2mm_M3_ISO14580_Pad</text>
<g class="stroked-text"><desc>MountingHole_3.2mm_M3_ISO14580_Pad</desc>
<path d="M0.4135 3.6043
L0.4135 2.3343
" />
<path d="M0.4135 2.3343
L0.8368 3.2414
" />
<path d="M0.8368 3.2414
L1.2602 2.3343
" />
<path d="M1.2602 2.3343
L1.2602 3.6043
" />
<path d="M2.0464 3.6043
L1.9254 3.5438
" />
<path d="M1.9254 3.5438
L1.8649 3.4833
" />
<path d="M1.8649 3.4833
L1.8045 3.3624
" />
<path d="M1.8045 3.3624
L1.8045 2.9995
" />
<path d="M1.8045 2.9995
L1.8649 2.8786
" />
<path d="M1.8649 2.8786
L1.9254 2.8181
" />
<path d="M1.9254 2.8181
L2.0464 2.7576
" />
<path d="M2.0464 2.7576
L2.2278 2.7576
" />
<path d="M2.2278 2.7576
L2.3487 2.8181
" />
<path d="M2.3487 2.8181
L2.4092 2.8786
" />
<path d="M2.4092 2.8786
L2.4697 2.9995
" />
<path d="M2.4697 2.9995
L2.4697 3.3624
" />
<path d="M2.4697 3.3624
L2.4092 3.4833
" />
<path d="M2.4092 3.4833
L2.3487 3.5438
" />
<path d="M2.3487 3.5438
L2.2278 3.6043
" />
<path d="M2.2278 3.6043
L2.0464 3.6043
" />
<path d="M3.5583 2.7576
L3.5583 3.6043
" />
<path d="M3.0140 2.7576
L3.0140 3.4228
" />
<path d="M3.0140 3.4228
L3.0745 3.5438
" />
<path d="M3.0745 3.5438
L3.1954 3.6043
" />
<path d="M3.1954 3.6043
L3.3768 3.6043
" />
<path d="M3.3768 3.6043
L3.4978 3.5438
" />
<path d="M3.4978 3.5438
L3.5583 3.4833
" />
<path d="M4.1630 2.7576
L4.1630 3.6043
" />
<path d="M4.1630 2.8786
L4.2235 2.8181
" />
<path d="M4.2235 2.8181
L4.3445 2.7576
" />
<path d="M4.3445 2.7576
L4.5259 2.7576
" />
<path d="M4.5259 2.7576
L4.6468 2.8181
" />
<path d="M4.6468 2.8181
L4.7073 2.9390
" />
<path d="M4.7073 2.9390
L4.7073 3.6043
" />
<path d="M5.1307 2.7576
L5.6145 2.7576
" />
<path d="M5.3121 2.3343
L5.3121 3.4228
" />
<path d="M5.3121 3.4228
L5.3726 3.5438
" />
<path d="M5.3726 3.5438
L5.4935 3.6043
" />
<path d="M5.4935 3.6043
L5.6145 3.6043
" />
<path d="M6.0378 3.6043
L6.0378 2.7576
" />
<path d="M6.0378 2.3343
L5.9773 2.3947
" />
<path d="M5.9773 2.3947
L6.0378 2.4552
" />
<path d="M6.0378 2.4552
L6.0983 2.3947
" />
<path d="M6.0983 2.3947
L6.0378 2.3343
" />
<path d="M6.0378 2.3343
L6.0378 2.4552
" />
<path d="M6.6426 2.7576
L6.6426 3.6043
" />
<path d="M6.6426 2.8786
L6.7030 2.8181
" />
<path d="M6.7030 2.8181
L6.8240 2.7576
" />
<path d="M6.8240 2.7576
L7.0054 2.7576
" />
<path d="M7.0054 2.7576
L7.1264 2.8181
" />
<path d="M7.1264 2.8181
L7.1868 2.9390
" />
<path d="M7.1868 2.9390
L7.1868 3.6043
" />
<path d="M8.3359 2.7576
L8.3359 3.7857
" />
<path d="M8.3359 3.7857
L8.2754 3.9067
" />
<path d="M8.2754 3.9067
L8.2149 3.9671
" />
<path d="M8.2149 3.9671
L8.0940 4.0276
" />
<path d="M8.0940 4.0276
L7.9126 4.0276
" />
<path d="M7.9126 4.0276
L7.7916 3.9671
" />
<path d="M8.3359 3.5438
L8.2149 3.6043
" />
<path d="M8.2149 3.6043
L7.9730 3.6043
" />
<path d="M7.9730 3.6043
L7.8521 3.5438
" />
<path d="M7.8521 3.5438
L7.7916 3.4833
" />
<path d="M7.7916 3.4833
L7.7311 3.3624
" />
<path d="M7.7311 3.3624
L7.7311 2.9995
" />
<path d="M7.7311 2.9995
L7.7916 2.8786
" />
<path d="M7.7916 2.8786
L7.8521 2.8181
" />
<path d="M7.8521 2.8181
L7.9730 2.7576
" />
<path d="M7.9730 2.7576
L8.2149 2.7576
" />
<path d="M8.2149 2.7576
L8.3359 2.8181
" />
<path d="M8.9407 3.6043
L8.9407 2.3343
" />
<path d="M8.9407 2.9390
L9.6664 2.9390
" />
<path d="M9.6664 3.6043
L9.6664 2.3343
" />
<path d="M10.4526 3.6043
L10.3316 3.5438
" />
<path d="M10.3316 3.5438
L10.2711 3.4833
" />
<path d="M10.2711 3.4833
L10.2107 3.3624
" />
<path d="M10.2107 3.3624
L10.2107 2.9995
" />
<path d="M10.2107 2.9995
L10.2711 2.8786
" />
<path d="M10.2711 2.8786
L10.3316 2.8181
" />
<path d="M10.3316 2.8181
L10.4526 2.7576
" />
<path d="M10.4526 2.7576
L10.6340 2.7576
" />
<path d="M10.6340 2.7576
L10.7549 2.8181
" />
<path d="M10.7549 2.8181
L10.8154 2.8786
" />
<path d="M10.8154 2.8786
L10.8759 2.9995
" />
<path d="M10.8759 2.9995
L10.8759 3.3624
" />
<path d="M10.8759 3.3624
L10.8154 3.4833
" />
<path d="M10.8154 3.4833
L10.7549 3.5438
" />
<path d="M10.7549 3.5438
L10.6340 3.6043
" />
<path d="M10.6340 3.6043
L10.4526 3.6043
" />
<path d="M11.6016 3.6043
L11.4807 3.5438
" />
<path d="M11.4807 3.5438
L11.4202 3.4228
" />
<path d="M11.4202 3.4228
L11.4202 2.3343
" />
<path d="M12.5692 3.5438
L12.4483 3.6043
" />
<path d="M12.4483 3.6043
L12.2064 3.6043
" />
<path d="M12.2064 3.6043
L12.0854 3.5438
" />
<path d="M12.0854 3.5438
L12.0249 3.4228
" />
<path d="M12.0249 3.4228
L12.0249 2.9390
" />
<path d="M12.0249 2.9390
L12.0854 2.8181
" />
<path d="M12.0854 2.8181
L12.2064 2.7576
" />
<path d="M12.2064 2.7576
L12.4483 2.7576
" />
<path d="M12.4483 2.7576
L12.5692 2.8181
" />
<path d="M12.5692 2.8181
L12.6297 2.9390
" />
<path d="M12.6297 2.9390
L12.6297 3.0600
" />
<path d="M12.6297 3.0600
L12.0249 3.1809
" />
<path d="M12.8716 3.7252
L13.8392 3.7252
" />
<path d="M14.0207 2.3343
L14.8068 2.3343
" />
<path d="M14.8068 2.3343
L14.3835 2.8181
" />
<path d="M14.3835 2.8181
L14.5649 2.8181
" />
<path d="M14.5649 2.8181
L14.6859 2.8786
" />
<path d="M14.6859 2.8786
L14.7464 2.9390
" />
<path d="M14.7464 2.9390
L14.8068 3.0600
" />
<path d="M14.8068 3.0600
L14.8068 3.3624
" />
<path d="M14.8068 3.3624
L14.7464 3.4833
" />
<path d="M14.7464 3.4833
L14.6859 3.5438
" />
<path d="M14.6859 3.5438
L14.5649 3.6043
" />
<path d="M14.5649 3.6043
L14.2021 3.6043
" />
<path d="M14.2021 3.6043
L14.0811 3.5438
" />
<path d="M14.0811 3.5438
L14.0207 3.4833
" />
<path d="M15.3511 3.4833
L15.4116 3.5438
" />
<path d="M15.4116 3.5438
L15.3511 3.6043
" />
<path d="M15.3511 3.6043
L15.2907 3.5438
" />
<path d="M15.2907 3.5438
L15.3511 3.4833
" />
<path d="M15.3511 3.4833
L15.3511 3.6043
" />
<path d="M15.8954 2.4552
L15.9559 2.3947
" />
<path d="M15.9559 2.3947
L16.0768 2.3343
" />
<path d="M16.0768 2.3343
L16.3792 2.3343
" />
<path d="M16.3792 2.3343
L16.5002 2.3947
" />
<path d="M16.5002 2.3947
L16.5607 2.4552
" />
<path d="M16.5607 2.4552
L16.6211 2.5762
" />
<path d="M16.6211 2.5762
L16.6211 2.6971
" />
<path d="M16.6211 2.6971
L16.5607 2.8786
" />
<path d="M16.5607 2.8786
L15.8349 3.6043
" />
<path d="M15.8349 3.6043
L16.6211 3.6043
" />
<path d="M17.1654 3.6043
L17.1654 2.7576
" />
<path d="M17.1654 2.8786
L17.2259 2.8181
" />
<path d="M17.2259 2.8181
L17.3468 2.7576
" />
<path d="M17.3468 2.7576
L17.5283 2.7576
" />
<path d="M17.5283 2.7576
L17.6492 2.8181
" />
<path d="M17.6492 2.8181
L17.7097 2.9390
" />
<path d="M17.7097 2.9390
L17.7097 3.6043
" />
<path d="M17.7097 2.9390
L17.7702 2.8181
" />
<path d="M17.7702 2.8181
L17.8911 2.7576
" />
<path d="M17.8911 2.7576
L18.0726 2.7576
" />
<path d="M18.0726 2.7576
L18.1935 2.8181
" />
<path d="M18.1935 2.8181
L18.2540 2.9390
" />
<path d="M18.2540 2.9390
L18.2540 3.6043
" />
<path d="M18.8587 3.6043
L18.8587 2.7576
" />
<path d="M18.8587 2.8786
L18.9192 2.8181
" />
<path d="M18.9192 2.8181
L19.0402 2.7576
" />
<path d="M19.0402 2.7576
L19.2216 2.7576
" />
<path d="M19.2216 2.7576
L19.3426 2.8181
" />
<path d="M19.3426 2.8181
L19.4030 2.9390
" />
<path d="M19.4030 2.9390
L19.4030 3.6043
" />
<path d="M19.4030 2.9390
L19.4635 2.8181
" />
<path d="M19.4635 2.8181
L19.5845 2.7576
" />
<path d="M19.5845 2.7576
L19.7659 2.7576
" />
<path d="M19.7659 2.7576
L19.8868 2.8181
" />
<path d="M19.8868 2.8181
L19.9473 2.9390
" />
<path d="M19.9473 2.9390
L19.9473 3.6043
" />
<path d="M20.2497 3.7252
L21.2173 3.7252
" />
<path d="M21.5197 3.6043
L21.5197 2.3343
" />
<path d="M21.5197 2.3343
L21.9430 3.2414
" />
<path d="M21.9430 3.2414
L22.3664 2.3343
" />
<path d="M22.3664 2.3343
L22.3664 3.6043
" />
<path d="M22.8502 2.3343
L23.6364 2.3343
" />
<path d="M23.6364 2.3343
L23.2130 2.8181
" />
<path d="M23.2130 2.8181
L23.3945 2.8181
" />
<path d="M23.3945 2.8181
L23.5154 2.8786
" />
<path d="M23.5154 2.8786
L23.5759 2.9390
" />
<path d="M23.5759 2.9390
L23.6364 3.0600
" />
<path d="M23.6364 3.0600
L23.6364 3.3624
" />
<path d="M23.6364 3.3624
L23.5759 3.4833
" />
<path d="M23.5759 3.4833
L23.5154 3.5438
" />
<path d="M23.5154 3.5438
L23.3945 3.6043
" />
<path d="M23.3945 3.6043
L23.0316 3.6043
" />
<path d="M23.0316 3.6043
L22.9107 3.5438
" />
<path d="M22.9107 3.5438
L22.8502 3.4833
" />
<path d="M23.8783 3.7252
L24.8459 3.7252
" />
<path d="M25.1483 3.6043
L25.1483 2.3343
" />
<path d="M25.6926 3.5438
L25.8740 3.6043
" />
<path d="M25.8740 3.6043
L26.1764 3.6043
" />
<path d="M26.1764 3.6043
L26.2973 3.5438
" />
<path d="M26.2973 3.5438
L26.3578 3.4833
" />
<path d="M26.3578 3.4833
L26.4183 3.3624
" />
<path d="M26.4183 3.3624
L26.4183 3.2414
" />
<path d="M26.4183 3.2414
L26.3578 3.1205
" />
<path d="M26.3578 3.1205
L26.2973 3.0600
" />
<path d="M26.2973 3.0600
L26.1764 2.9995
" />
<path d="M26.1764 2.9995
L25.9345 2.9390
" />
<path d="M25.9345 2.9390
L25.8135 2.8786
" />
<path d="M25.8135 2.8786
L25.7530 2.8181
" />
<path d="M25.7530 2.8181
L25.6926 2.6971
" />
<path d="M25.6926 2.6971
L25.6926 2.5762
" />
<path d="M25.6926 2.5762
L25.7530 2.4552
" />
<path d="M25.7530 2.4552
L25.8135 2.3947
" />
<path d="M25.8135 2.3947
L25.9345 2.3343
" />
<path d="M25.9345 2.3343
L26.2368 2.3343
" />
<path d="M26.2368 2.3343
L26.4183 2.3947
" />
<path d="M27.2045 2.3343
L27.4464 2.3343
" />
<path d="M27.4464 2.3343
L27.5673 2.3947
" />
<path d="M27.5673 2.3947
L27.6883 2.5157
" />
<path d="M27.6883 2.5157
L27.7487 2.7576
" />
<path d="M27.7487 2.7576
L27.7487 3.1809
" />
<path d="M27.7487 3.1809
L27.6883 3.4228
" />
<path d="M27.6883 3.4228
L27.5673 3.5438
" />
<path d="M27.5673 3.5438
L27.4464 3.6043
" />
<path d="M27.4464 3.6043
L27.2045 3.6043
" />
<path d="M27.2045 3.6043
L27.0835 3.5438
" />
<path d="M27.0835 3.5438
L26.9626 3.4228
" />
<path d="M26.9626 3.4228
L26.9021 3.1809
" />
<path d="M26.9021 3.1809
L26.9021 2.7576
" />
<path d="M26.9021 2.7576
L26.9626 2.5157
" />
<path d="M26.9626 2.5157
L27.0835 2.3947
" />
<path d="M27.0835 2.3947
L27.2045 2.3343
" />
<path d="M28.9583 3.6043
L28.2326 3.6043
" />
<path d="M28.5954 3.6043
L28.5954 2.3343
" />
<path d="M28.5954 2.3343
L28.4745 2.5157
" />
<path d="M28.4745 2.5157
L28.3535 2.6367
" />
<path d="M28.3535 2.6367
L28.2326 2.6971
" />
<path d="M30.0468 2.7576
L30.0468 3.6043
" />
<path d="M29.7445 2.2738
L29.4421 3.1809
" />
<path d="M29.4421 3.1809
L30.2283 3.1809
" />
<path d="M31.3168 2.3343
L30.7121 2.3343
" />
<path d="M30.7121 2.3343
L30.6516 2.9390
" />
<path d="M30.6516 2.9390
L30.7121 2.8786
" />
<path d="M30.7121 2.8786
L30.8330 2.8181
" />
<path d="M30.8330 2.8181
L31.1354 2.8181
" />
<path d="M31.1354 2.8181
L31.2564 2.8786
" />
<path d="M31.2564 2.8786
L31.3168 2.9390
" />
<path d="M31.3168 2.9390
L31.3773 3.0600
" />
<path d="M31.3773 3.0600
L31.3773 3.3624
" />
<path d="M31.3773 3.3624
L31.3168 3.4833
" />
<path d="M31.3168 3.4833
L31.2564 3.5438
" />
<path d="M31.2564 3.5438
L31.1354 3.6043
" />
<path d="M31.1354 3.6043
L30.8330 3.6043
" />
<path d="M30.8330 3.6043
L30.7121 3.5438
" />
<path d="M30.7121 3.5438
L30.6516 3.4833
" />
<path d="M32.1030 2.8786
L31.9821 2.8181
" />
<path d="M31.9821 2.8181
L31.9216 2.7576
" />
<path d="M31.9216 2.7576
L31.8611 2.6367
" />
<path d="M31.8611 2.6367
L31.8611 2.5762
" />
<path d="M31.8611 2.5762
L31.9216 2.4552
" />
<path d="M31.9216 2.4552
L31.9821 2.3947
" />
<path d="M31.9821 2.3947
L32.1030 2.3343
" />
<path d="M32.1030 2.3343
L32.3449 2.3343
" />
<path d="M32.3449 2.3343
L32.4659 2.3947
" />
<path d="M32.4659 2.3947
L32.5264 2.4552
" />
<path d="M32.5264 2.4552
L32.5868 2.5762
" />
<path d="M32.5868 2.5762
L32.5868 2.6367
" />
<path d="M32.5868 2.6367
L32.5264 2.7576
" />
<path d="M32.5264 2.7576
L32.4659 2.8181
" />
<path d="M32.4659 2.8181
L32.3449 2.8786
" />
<path d="M32.3449 2.8786
L32.1030 2.8786
" />
<path d="M32.1030 2.8786
L31.9821 2.9390
" />
<path d="M31.9821 2.9390
L31.9216 2.9995
" />
<path d="M31.9216 2.9995
L31.8611 3.1205
" />
<path d="M31.8611 3.1205
L31.8611 3.3624
" />
<path d="M31.8611 3.3624
L31.9216 3.4833
" />
<path d="M31.9216 3.4833
L31.9821 3.5438
" />
<path d="M31.9821 3.5438
L32.1030 3.6043
" />
<path d="M32.1030 3.6043
L32.3449 3.6043
" />
<path d="M32.3449 3.6043
L32.4659 3.5438
" />
<path d="M32.4659 3.5438
L32.5264 3.4833
" />
<path d="M32.5264 3.4833
L32.5868 3.3624
" />
<path d="M32.5868 3.3624
L32.5868 3.1205
" />
<path d="M32.5868 3.1205
L32.5264 2.9995
" />
<path d="M32.5264 2.9995
L32.4659 2.9390
" />
<path d="M32.4659 2.9390
L32.3449 2.8786
" />
<path d="M33.3730 2.3343
L33.4940 2.3343
" />
<path d="M33.4940 2.3343
L33.6149 2.3947
" />
<path d="M33.6149 2.3947
L33.6754 2.4552
" />
<path d="M33.6754 2.4552
L33.7359 2.5762
" />
<path d="M33.7359 2.5762
L33.7964 2.8181
" />
<path d="M33.7964 2.8181
L33.7964 3.1205
" />
<path d="M33.7964 3.1205
L33.7359 3.3624
" />
<path d="M33.7359 3.3624
L33.6754 3.4833
" />
<path d="M33.6754 3.4833
L33.6149 3.5438
" />
<path d="M33.6149 3.5438
L33.4940 3.6043
" />
<path d="M33.4940 3.6043
L33.3730 3.6043
" />
<path d="M33.3730 3.6043
L33.2521 3.5438
" />
<path d="M33.2521 3.5438
L33.1916 3.4833
" />
<path d="M33.1916 3.4833
L33.1311 3.3624
" />
<path d="M33.1311 3.3624
L33.0707 3.1205
" />
<path d="M33.0707 3.1205
L33.0707 2.8181
" />
<path d="M33.0707 2.8181
L33.1311 2.5762
" />
<path d="M33.1311 2.5762
L33.1916 2.4552
" />
<path d="M33.1916 2.4552
L33.2521 2.3947
" />
<path d="M33.2521 2.3947
L33.3730 2.3343
" />
<path d="M34.0383 3.7252
L35.0059 3.7252
" />
<path d="M35.3083 3.6043
L35.3083 2.3343
" />
<path d="M35.3083 2.3343
L35.7921 2.3343
" />
<path d="M35.7921 2.3343
L35.9130 2.3947
" />
<path d="M35.9130 2.3947
L35.9735 2.4552
" />
<path d="M35.9735 2.4552
L36.0340 2.5762
" />
<path d="M36.0340 2.5762
L36.0340 2.7576
" />
<path d="M36.0340 2.7576
L35.9735 2.8786
" />
<path d="M35.9735 2.8786
L35.9130 2.9390
" />
<path d="M35.9130 2.9390
L35.7921 2.9995
" />
<path d="M35.7921 2.9995
L35.3083 2.9995
" />
<path d="M37.1226 3.6043
L37.1226 2.9390
" />
<path d="M37.1226 2.9390
L37.0621 2.8181
" />
<path d="M37.0621 2.8181
L36.9411 2.7576
" />
<path d="M36.9411 2.7576
L36.6992 2.7576
" />
<path d="M36.6992 2.7576
L36.5783 2.8181
" />
<path d="M37.1226 3.5438
L37.0016 3.6043
" />
<path d="M37.0016 3.6043
L36.6992 3.6043
" />
<path d="M36.6992 3.6043
L36.5783 3.5438
" />
<path d="M36.5783 3.5438
L36.5178 3.4228
" />
<path d="M36.5178 3.4228
L36.5178 3.3019
" />
<path d="M36.5178 3.3019
L36.5783 3.1809
" />
<path d="M36.5783 3.1809
L36.6992 3.1205
" />
<path d="M36.6992 3.1205
L37.0016 3.1205
" />
<path d="M37.0016 3.1205
L37.1226 3.0600
" />
<path d="M38.2716 3.6043
L38.2716 2.3343
" />
<path d="M38.2716 3.5438
L38.1507 3.6043
" />
<path d="M38.1507 3.6043
L37.9087 3.6043
" />
<path d="M37.9087 3.6043
L37.7878 3.5438
" />
<path d="M37.7878 3.5438
L37.7273 3.4833
" />
<path d="M37.7273 3.4833
L37.6668 3.3624
" />
<path d="M37.6668 3.3624
L37.6668 2.9995
" />
<path d="M37.6668 2.9995
L37.7273 2.8786
" />
<path d="M37.7273 2.8786
L37.7878 2.8181
" />
<path d="M37.7878 2.8181
L37.9087 2.7576
" />
<path d="M37.9087 2.7576
L38.1507 2.7576
" />
<path d="M38.1507 2.7576
L38.2716 2.8181
" />
</g></g>
<g style="fill:none; 
stroke:#AFAFAF; stroke-width:0.1500; stroke-opacity:1; 
stroke-linecap:round; stroke-linejoin:round;">
<text x="19.3426" y="3.5250"
textLength="4.5357" font-size="1.3333" lengthAdjust="spacingAndGlyphs"
text-anchor="middle" opacity="0">REF**</text>
<g class="stroked-text"><desc>REF**</desc>
<path d="M18.0092 3.4798
L17.6759 3.0036
" />
<path d="M17.4378 3.4798
L17.4378 2.4798
" />
<path d="M17.4378 2.4798
L17.8187 2.4798
" />
<path d="M17.8187 2.4798
L17.9140 2.5274
" />
<path d="M17.9140 2.5274
L17.9616 2.5751
" />
<path d="M17.9616 2.5751
L18.0092 2.6703
" />
<path d="M18.0092 2.6703
L18.0092 2.8132
" />
<path d="M18.0092 2.8132
L17.9616 2.9084
" />
<path d="M17.9616 2.9084
L17.9140 2.9560
" />
<path d="M17.9140 2.9560
L17.8187 3.0036
" />
<path d="M17.8187 3.0036
L17.4378 3.0036
" />
<path d="M18.4378 2.9560
L18.7711 2.9560
" />
<path d="M18.9140 3.4798
L18.4378 3.4798
" />
<path d="M18.4378 3.4798
L18.4378 2.4798
" />
<path d="M18.4378 2.4798
L18.9140 2.4798
" />
<path d="M19.6759 2.9560
L19.3426 2.9560
" />
<path d="M19.3426 3.4798
L19.3426 2.4798
" />
<path d="M19.3426 2.4798
L19.8187 2.4798
" />
<path d="M20.3426 2.4798
L20.3426 2.7179
" />
<path d="M20.1045 2.6227
L20.3426 2.7179
" />
<path d="M20.3426 2.7179
L20.5806 2.6227
" />
<path d="M20.1997 2.9084
L20.3426 2.7179
" />
<path d="M20.3426 2.7179
L20.4854 2.9084
" />
<path d="M21.1045 2.4798
L21.1045 2.7179
" />
<path d="M20.8664 2.6227
L21.1045 2.7179
" />
<path d="M21.1045 2.7179
L21.3426 2.6227
" />
<path d="M20.9616 2.9084
L21.1045 2.7179
" />
<path d="M21.1045 2.7179
L21.2473 2.9084
" />
</g></g>
<g style="fill:none; 
stroke:#5994DC; stroke-width:0.1500; stroke-opacity:1; 
stroke-linecap:round; stroke-linejoin:round;">
<circle cx="19.3426" cy="3.0250" r="2.7500" /> 
</g> 
</svg>
