<?xml version="1.0" standalone="no"?>
 <!DOCTYPE svg PUBLIC "-//W3C//DTD SVG 1.1//EN" 
 "http://www.w3.org/Graphics/SVG/1.1/DTD/svg11.dtd"> 
<svg
  xmlns:svg="http://www.w3.org/2000/svg"
  xmlns="http://www.w3.org/2000/svg"
  xmlns:xlink="http://www.w3.org/1999/xlink"
  version="1.1"
  width="58.2168mm" height="4.3434mm" viewBox="0.0000 0.0000 58.2168 4.3434">
<title>SVG Image created as working-brd.svg date 2024/04/21 20:48:28 </title>
  <desc>Image generated by PCBNEW </desc>
<g style="fill:#000000; fill-opacity:1.0000;stroke:#000000; stroke-opacity:1.0000;
stroke-linecap:round; stroke-linejoin:round;"
 transform="translate(0 0) scale(1 1)">
</g>
<g style="fill:#4D7FC4; fill-opacity:1.0000; stroke:none;">
<circle cx="28.6295" cy="1.3150" r="0.3000" /> 
</g>
<g style="fill:#4D7FC4; fill-opacity:1.0000; stroke:none;">
<circle cx="28.6295" cy="3.0350" r="0.3000" /> 
</g>
<g style="fill:#4D7FC4; fill-opacity:1.0000; stroke:none;">
<circle cx="29.1095" cy="2.1750" r="0.3000" /> 
<path style="fill:#4D7FC4; fill-opacity:1.0000; stroke:none;fill-rule:evenodd;"
d="M 28.2845,3.3750
28.2845,0.9750
29.9345,0.9750
29.9345,3.3750
Z" /> 
</g>
<g style="fill:#4D7FC4; fill-opacity:1.0000; stroke:none;">
<circle cx="29.5895" cy="1.3150" r="0.3000" /> 
</g>
<g style="fill:#4D7FC4; fill-opacity:1.0000; stroke:none;">
<circle cx="29.5895" cy="3.0350" r="0.3000" /> 
</g>
<g style="fill:#FFFFFF; fill-opacity:1.0000; stroke:none;">
<circle cx="28.6295" cy="1.3150" r="0.1500" /> 
</g>
<g style="fill:#FFFFFF; fill-opacity:1.0000; stroke:none;">
<circle cx="28.6295" cy="3.0350" r="0.1500" /> 
</g>
<g style="fill:#FFFFFF; fill-opacity:1.0000; stroke:none;">
<circle cx="29.1095" cy="2.1750" r="0.1500" /> 
</g>
<g style="fill:#FFFFFF; fill-opacity:1.0000; stroke:none;">
<circle cx="29.5895" cy="1.3150" r="0.1500" /> 
</g>
<g style="fill:#FFFFFF; fill-opacity:1.0000; stroke:none;">
<circle cx="29.5895" cy="3.0350" r="0.1500" /> 
</g>
<g style="fill:#FFFFFF; fill-opacity:1.0000; stroke:none;">
<circle cx="28.6295" cy="1.3150" r="0.1500" /> 
</g>
<g style="fill:#FFFFFF; fill-opacity:1.0000; stroke:none;">
<circle cx="28.6295" cy="3.0350" r="0.1500" /> 
</g>
<g style="fill:#FFFFFF; fill-opacity:1.0000; stroke:none;">
<circle cx="29.1095" cy="2.1750" r="0.1500" /> 
</g>
<g style="fill:#FFFFFF; fill-opacity:1.0000; stroke:none;">
<circle cx="29.5895" cy="1.3150" r="0.1500" /> 
</g>
<g style="fill:#FFFFFF; fill-opacity:1.0000; stroke:none;">
<circle cx="29.5895" cy="3.0350" r="0.1500" /> 
<path style="fill:#C83434; fill-opacity:1.0000; stroke:none;fill-rule:evenodd;"
d="M 27.2095,1.1050
27.2148,1.0782
27.2300,1.0555
27.2527,1.0403
27.2795,1.0350
27.9895,1.0350
28.0162,1.0403
28.0390,1.0555
28.0541,1.0782
28.0595,1.1050
28.0595,1.2450
28.0541,1.2718
28.0390,1.2945
28.0162,1.3097
27.9895,1.3150
27.2795,1.3150
27.2527,1.3097
27.2300,1.2945
27.2148,1.2718
27.2095,1.2450
Z" /> 
<path style="fill:#C83434; fill-opacity:1.0000; stroke:none;fill-rule:evenodd;"
d="M 27.2095,1.6050
27.2148,1.5782
27.2300,1.5555
27.2527,1.5403
27.2795,1.5350
27.9895,1.5350
28.0162,1.5403
28.0390,1.5555
28.0541,1.5782
28.0595,1.6050
28.0595,1.7450
28.0541,1.7718
28.0390,1.7945
28.0162,1.8097
27.9895,1.8150
27.2795,1.8150
27.2527,1.8097
27.2300,1.7945
27.2148,1.7718
27.2095,1.7450
Z" /> 
<path style="fill:#C83434; fill-opacity:1.0000; stroke:none;fill-rule:evenodd;"
d="M 27.2095,2.1050
27.2148,2.0782
27.2300,2.0555
27.2527,2.0403
27.2795,2.0350
27.9895,2.0350
28.0162,2.0403
28.0390,2.0555
28.0541,2.0782
28.0595,2.1050
28.0595,2.2450
28.0541,2.2718
28.0390,2.2945
28.0162,2.3097
27.9895,2.3150
27.2795,2.3150
27.2527,2.3097
27.2300,2.2945
27.2148,2.2718
27.2095,2.2450
Z" /> 
<path style="fill:#C83434; fill-opacity:1.0000; stroke:none;fill-rule:evenodd;"
d="M 27.2095,2.6050
27.2148,2.5782
27.2300,2.5555
27.2527,2.5403
27.2795,2.5350
27.9895,2.5350
28.0162,2.5403
28.0390,2.5555
28.0541,2.5782
28.0595,2.6050
28.0595,2.7450
28.0541,2.7718
28.0390,2.7945
28.0162,2.8097
27.9895,2.8150
27.2795,2.8150
27.2527,2.8097
27.2300,2.7945
27.2148,2.7718
27.2095,2.7450
Z" /> 
<path style="fill:#C83434; fill-opacity:1.0000; stroke:none;fill-rule:evenodd;"
d="M 27.2095,3.1050
27.2148,3.0782
27.2300,3.0555
27.2527,3.0403
27.2795,3.0350
27.9895,3.0350
28.0162,3.0403
28.0390,3.0555
28.0541,3.0782
28.0595,3.1050
28.0595,3.2450
28.0541,3.2718
28.0390,3.2945
28.0162,3.3097
27.9895,3.3150
27.2795,3.3150
27.2527,3.3097
27.2300,3.2945
27.2148,3.2718
27.2095,3.2450
Z" /> 
<path style="fill:#C83434; fill-opacity:1.0000; stroke:none;fill-rule:evenodd;"
d="M 30.1595,3.1050
30.1648,3.0782
30.1800,3.0555
30.2027,3.0403
30.2295,3.0350
30.9395,3.0350
30.9662,3.0403
30.9890,3.0555
31.0041,3.0782
31.0095,3.1050
31.0095,3.2450
31.0041,3.2718
30.9890,3.2945
30.9662,3.3097
30.9395,3.3150
30.2295,3.3150
30.2027,3.3097
30.1800,3.2945
30.1648,3.2718
30.1595,3.2450
Z" /> 
<path style="fill:#C83434; fill-opacity:1.0000; stroke:none;fill-rule:evenodd;"
d="M 30.1595,2.6050
30.1648,2.5782
30.1800,2.5555
30.2027,2.5403
30.2295,2.5350
30.9395,2.5350
30.9662,2.5403
30.9890,2.5555
31.0041,2.5782
31.0095,2.6050
31.0095,2.7450
31.0041,2.7718
30.9890,2.7945
30.9662,2.8097
30.9395,2.8150
30.2295,2.8150
30.2027,2.8097
30.1800,2.7945
30.1648,2.7718
30.1595,2.7450
Z" /> 
<path style="fill:#C83434; fill-opacity:1.0000; stroke:none;fill-rule:evenodd;"
d="M 30.1595,2.1050
30.1648,2.0782
30.1800,2.0555
30.2027,2.0403
30.2295,2.0350
30.9395,2.0350
30.9662,2.0403
30.9890,2.0555
31.0041,2.0782
31.0095,2.1050
31.0095,2.2450
31.0041,2.2718
30.9890,2.2945
30.9662,2.3097
30.9395,2.3150
30.2295,2.3150
30.2027,2.3097
30.1800,2.2945
30.1648,2.2718
30.1595,2.2450
Z" /> 
<path style="fill:#C83434; fill-opacity:1.0000; stroke:none;fill-rule:evenodd;"
d="M 30.1595,1.6050
30.1648,1.5782
30.1800,1.5555
30.2027,1.5403
30.2295,1.5350
30.9395,1.5350
30.9662,1.5403
30.9890,1.5555
31.0041,1.5782
31.0095,1.6050
31.0095,1.7450
31.0041,1.7718
30.9890,1.7945
30.9662,1.8097
30.9395,1.8150
30.2295,1.8150
30.2027,1.8097
30.1800,1.7945
30.1648,1.7718
30.1595,1.7450
Z" /> 
<path style="fill:#C83434; fill-opacity:1.0000; stroke:none;fill-rule:evenodd;"
d="M 30.1595,1.1050
30.1648,1.0782
30.1800,1.0555
30.2027,1.0403
30.2295,1.0350
30.9395,1.0350
30.9662,1.0403
30.9890,1.0555
31.0041,1.0782
31.0095,1.1050
31.0095,1.2450
31.0041,1.2718
30.9890,1.2945
30.9662,1.3097
30.9395,1.3150
30.2295,1.3150
30.2027,1.3097
30.1800,1.2945
30.1648,1.2718
30.1595,1.2450
Z" /> 
</g>
<g style="fill:#C83434; fill-opacity:1.0000; stroke:none;">
<circle cx="28.6295" cy="1.3150" r="0.3000" /> 
</g>
<g style="fill:#C83434; fill-opacity:1.0000; stroke:none;">
<circle cx="28.6295" cy="3.0350" r="0.3000" /> 
<path style="fill:#C83434; fill-opacity:1.0000; stroke:none;fill-rule:evenodd;"
d="M 28.7195,0.9750
28.7195,0.2750
28.9995,0.2750
28.9995,0.9750
Z" /> 
<path style="fill:#C83434; fill-opacity:1.0000; stroke:none;fill-rule:evenodd;"
d="M 28.7195,4.0750
28.7195,3.3750
28.9995,3.3750
28.9995,4.0750
Z" /> 
</g>
<g style="fill:#C83434; fill-opacity:1.0000; stroke:none;">
<circle cx="29.1095" cy="2.1750" r="0.3000" /> 
<path style="fill:#C83434; fill-opacity:1.0000; stroke:none;fill-rule:evenodd;"
d="M 28.2845,3.3750
28.2845,0.9750
29.9345,0.9750
29.9345,3.3750
Z" /> 
<path style="fill:#C83434; fill-opacity:1.0000; stroke:none;fill-rule:evenodd;"
d="M 29.2195,0.9750
29.2195,0.2750
29.4995,0.2750
29.4995,0.9750
Z" /> 
<path style="fill:#C83434; fill-opacity:1.0000; stroke:none;fill-rule:evenodd;"
d="M 29.2195,4.0750
29.2195,3.3750
29.4995,3.3750
29.4995,4.0750
Z" /> 
</g>
<g style="fill:#C83434; fill-opacity:1.0000; stroke:none;">
<circle cx="29.5895" cy="1.3150" r="0.3000" /> 
</g>
<g style="fill:#C83434; fill-opacity:1.0000; stroke:none;">
<circle cx="29.5895" cy="3.0350" r="0.3000" /> 
</g>
<g style="fill:#FFFFFF; fill-opacity:1.0000; stroke:none;">
<circle cx="28.6295" cy="1.3150" r="0.1500" /> 
</g>
<g style="fill:#FFFFFF; fill-opacity:1.0000; stroke:none;">
<circle cx="28.6295" cy="3.0350" r="0.1500" /> 
</g>
<g style="fill:#FFFFFF; fill-opacity:1.0000; stroke:none;">
<circle cx="29.1095" cy="2.1750" r="0.1500" /> 
</g>
<g style="fill:#FFFFFF; fill-opacity:1.0000; stroke:none;">
<circle cx="29.5895" cy="1.3150" r="0.1500" /> 
</g>
<g style="fill:#FFFFFF; fill-opacity:1.0000; stroke:none;">
<circle cx="29.5895" cy="3.0350" r="0.1500" /> 
<path style="fill:#D864FF; fill-opacity:0.4000; stroke:none;fill-rule:evenodd;"
d="M 27.2095,1.1050
27.2148,1.0782
27.2300,1.0555
27.2527,1.0403
27.2795,1.0350
27.9895,1.0350
28.0162,1.0403
28.0390,1.0555
28.0541,1.0782
28.0595,1.1050
28.0595,1.2450
28.0541,1.2718
28.0390,1.2945
28.0162,1.3097
27.9895,1.3150
27.2795,1.3150
27.2527,1.3097
27.2300,1.2945
27.2148,1.2718
27.2095,1.2450
Z" /> 
<path style="fill:#D864FF; fill-opacity:0.4000; stroke:none;fill-rule:evenodd;"
d="M 27.2095,1.6050
27.2148,1.5782
27.2300,1.5555
27.2527,1.5403
27.2795,1.5350
27.9895,1.5350
28.0162,1.5403
28.0390,1.5555
28.0541,1.5782
28.0595,1.6050
28.0595,1.7450
28.0541,1.7718
28.0390,1.7945
28.0162,1.8097
27.9895,1.8150
27.2795,1.8150
27.2527,1.8097
27.2300,1.7945
27.2148,1.7718
27.2095,1.7450
Z" /> 
<path style="fill:#D864FF; fill-opacity:0.4000; stroke:none;fill-rule:evenodd;"
d="M 27.2095,2.1050
27.2148,2.0782
27.2300,2.0555
27.2527,2.0403
27.2795,2.0350
27.9895,2.0350
28.0162,2.0403
28.0390,2.0555
28.0541,2.0782
28.0595,2.1050
28.0595,2.2450
28.0541,2.2718
28.0390,2.2945
28.0162,2.3097
27.9895,2.3150
27.2795,2.3150
27.2527,2.3097
27.2300,2.2945
27.2148,2.2718
27.2095,2.2450
Z" /> 
<path style="fill:#D864FF; fill-opacity:0.4000; stroke:none;fill-rule:evenodd;"
d="M 27.2095,2.6050
27.2148,2.5782
27.2300,2.5555
27.2527,2.5403
27.2795,2.5350
27.9895,2.5350
28.0162,2.5403
28.0390,2.5555
28.0541,2.5782
28.0595,2.6050
28.0595,2.7450
28.0541,2.7718
28.0390,2.7945
28.0162,2.8097
27.9895,2.8150
27.2795,2.8150
27.2527,2.8097
27.2300,2.7945
27.2148,2.7718
27.2095,2.7450
Z" /> 
<path style="fill:#D864FF; fill-opacity:0.4000; stroke:none;fill-rule:evenodd;"
d="M 27.2095,3.1050
27.2148,3.0782
27.2300,3.0555
27.2527,3.0403
27.2795,3.0350
27.9895,3.0350
28.0162,3.0403
28.0390,3.0555
28.0541,3.0782
28.0595,3.1050
28.0595,3.2450
28.0541,3.2718
28.0390,3.2945
28.0162,3.3097
27.9895,3.3150
27.2795,3.3150
27.2527,3.3097
27.2300,3.2945
27.2148,3.2718
27.2095,3.2450
Z" /> 
<path style="fill:#D864FF; fill-opacity:0.4000; stroke:none;fill-rule:evenodd;"
d="M 30.1595,3.1050
30.1648,3.0782
30.1800,3.0555
30.2027,3.0403
30.2295,3.0350
30.9395,3.0350
30.9662,3.0403
30.9890,3.0555
31.0041,3.0782
31.0095,3.1050
31.0095,3.2450
31.0041,3.2718
30.9890,3.2945
30.9662,3.3097
30.9395,3.3150
30.2295,3.3150
30.2027,3.3097
30.1800,3.2945
30.1648,3.2718
30.1595,3.2450
Z" /> 
<path style="fill:#D864FF; fill-opacity:0.4000; stroke:none;fill-rule:evenodd;"
d="M 30.1595,2.6050
30.1648,2.5782
30.1800,2.5555
30.2027,2.5403
30.2295,2.5350
30.9395,2.5350
30.9662,2.5403
30.9890,2.5555
31.0041,2.5782
31.0095,2.6050
31.0095,2.7450
31.0041,2.7718
30.9890,2.7945
30.9662,2.8097
30.9395,2.8150
30.2295,2.8150
30.2027,2.8097
30.1800,2.7945
30.1648,2.7718
30.1595,2.7450
Z" /> 
<path style="fill:#D864FF; fill-opacity:0.4000; stroke:none;fill-rule:evenodd;"
d="M 30.1595,2.1050
30.1648,2.0782
30.1800,2.0555
30.2027,2.0403
30.2295,2.0350
30.9395,2.0350
30.9662,2.0403
30.9890,2.0555
31.0041,2.0782
31.0095,2.1050
31.0095,2.2450
31.0041,2.2718
30.9890,2.2945
30.9662,2.3097
30.9395,2.3150
30.2295,2.3150
30.2027,2.3097
30.1800,2.2945
30.1648,2.2718
30.1595,2.2450
Z" /> 
<path style="fill:#D864FF; fill-opacity:0.4000; stroke:none;fill-rule:evenodd;"
d="M 30.1595,1.6050
30.1648,1.5782
30.1800,1.5555
30.2027,1.5403
30.2295,1.5350
30.9395,1.5350
30.9662,1.5403
30.9890,1.5555
31.0041,1.5782
31.0095,1.6050
31.0095,1.7450
31.0041,1.7718
30.9890,1.7945
30.9662,1.8097
30.9395,1.8150
30.2295,1.8150
30.2027,1.8097
30.1800,1.7945
30.1648,1.7718
30.1595,1.7450
Z" /> 
<path style="fill:#D864FF; fill-opacity:0.4000; stroke:none;fill-rule:evenodd;"
d="M 30.1595,1.1050
30.1648,1.0782
30.1800,1.0555
30.2027,1.0403
30.2295,1.0350
30.9395,1.0350
30.9662,1.0403
30.9890,1.0555
31.0041,1.0782
31.0095,1.1050
31.0095,1.2450
31.0041,1.2718
30.9890,1.2945
30.9662,1.3097
30.9395,1.3150
30.2295,1.3150
30.2027,1.3097
30.1800,1.2945
30.1648,1.2718
30.1595,1.2450
Z" /> 
<path style="fill:#D864FF; fill-opacity:0.4000; stroke:none;fill-rule:evenodd;"
d="M 28.7195,0.9750
28.7195,0.2750
28.9995,0.2750
28.9995,0.9750
Z" /> 
<path style="fill:#D864FF; fill-opacity:0.4000; stroke:none;fill-rule:evenodd;"
d="M 28.7195,4.0750
28.7195,3.3750
28.9995,3.3750
28.9995,4.0750
Z" /> 
<path style="fill:#D864FF; fill-opacity:0.4000; stroke:none;fill-rule:evenodd;"
d="M 28.2845,3.3750
28.2845,0.9750
29.9345,0.9750
29.9345,3.3750
Z" /> 
<path style="fill:#D864FF; fill-opacity:0.4000; stroke:none;fill-rule:evenodd;"
d="M 29.2195,0.9750
29.2195,0.2750
29.4995,0.2750
29.4995,0.9750
Z" /> 
<path style="fill:#D864FF; fill-opacity:0.4000; stroke:none;fill-rule:evenodd;"
d="M 29.2195,4.0750
29.2195,3.3750
29.4995,3.3750
29.4995,4.0750
Z" /> 
<path style="fill:#B4A09A; fill-opacity:0.9000; stroke:none;fill-rule:evenodd;"
d="M 28.3095,1.6350
28.3095,0.9950
28.9495,0.9950
28.9495,1.6350
Z" /> 
<path style="fill:#B4A09A; fill-opacity:0.9000; stroke:none;fill-rule:evenodd;"
d="M 28.3095,2.4950
28.3095,1.8550
28.9495,1.8550
28.9495,2.4950
Z" /> 
<path style="fill:#B4A09A; fill-opacity:0.9000; stroke:none;fill-rule:evenodd;"
d="M 28.3095,3.3550
28.3095,2.7150
28.9495,2.7150
28.9495,3.3550
Z" /> 
<path style="fill:#B4A09A; fill-opacity:0.9000; stroke:none;fill-rule:evenodd;"
d="M 29.2695,1.6350
29.2695,0.9950
29.9095,0.9950
29.9095,1.6350
Z" /> 
<path style="fill:#B4A09A; fill-opacity:0.9000; stroke:none;fill-rule:evenodd;"
d="M 29.2695,2.4950
29.2695,1.8550
29.9095,1.8550
29.9095,2.4950
Z" /> 
<path style="fill:#B4A09A; fill-opacity:0.9000; stroke:none;fill-rule:evenodd;"
d="M 29.2695,3.3550
29.2695,2.7150
29.9095,2.7150
29.9095,3.3550
Z" /> 
<path style="fill:#B4A09A; fill-opacity:0.9000; stroke:none;fill-rule:evenodd;"
d="M 27.2095,1.1050
27.2148,1.0782
27.2300,1.0555
27.2527,1.0403
27.2795,1.0350
27.9895,1.0350
28.0162,1.0403
28.0390,1.0555
28.0541,1.0782
28.0595,1.1050
28.0595,1.2450
28.0541,1.2718
28.0390,1.2945
28.0162,1.3097
27.9895,1.3150
27.2795,1.3150
27.2527,1.3097
27.2300,1.2945
27.2148,1.2718
27.2095,1.2450
Z" /> 
<path style="fill:#B4A09A; fill-opacity:0.9000; stroke:none;fill-rule:evenodd;"
d="M 27.2095,1.6050
27.2148,1.5782
27.2300,1.5555
27.2527,1.5403
27.2795,1.5350
27.9895,1.5350
28.0162,1.5403
28.0390,1.5555
28.0541,1.5782
28.0595,1.6050
28.0595,1.7450
28.0541,1.7718
28.0390,1.7945
28.0162,1.8097
27.9895,1.8150
27.2795,1.8150
27.2527,1.8097
27.2300,1.7945
27.2148,1.7718
27.2095,1.7450
Z" /> 
<path style="fill:#B4A09A; fill-opacity:0.9000; stroke:none;fill-rule:evenodd;"
d="M 27.2095,2.1050
27.2148,2.0782
27.2300,2.0555
27.2527,2.0403
27.2795,2.0350
27.9895,2.0350
28.0162,2.0403
28.0390,2.0555
28.0541,2.0782
28.0595,2.1050
28.0595,2.2450
28.0541,2.2718
28.0390,2.2945
28.0162,2.3097
27.9895,2.3150
27.2795,2.3150
27.2527,2.3097
27.2300,2.2945
27.2148,2.2718
27.2095,2.2450
Z" /> 
<path style="fill:#B4A09A; fill-opacity:0.9000; stroke:none;fill-rule:evenodd;"
d="M 27.2095,2.6050
27.2148,2.5782
27.2300,2.5555
27.2527,2.5403
27.2795,2.5350
27.9895,2.5350
28.0162,2.5403
28.0390,2.5555
28.0541,2.5782
28.0595,2.6050
28.0595,2.7450
28.0541,2.7718
28.0390,2.7945
28.0162,2.8097
27.9895,2.8150
27.2795,2.8150
27.2527,2.8097
27.2300,2.7945
27.2148,2.7718
27.2095,2.7450
Z" /> 
<path style="fill:#B4A09A; fill-opacity:0.9000; stroke:none;fill-rule:evenodd;"
d="M 27.2095,3.1050
27.2148,3.0782
27.2300,3.0555
27.2527,3.0403
27.2795,3.0350
27.9895,3.0350
28.0162,3.0403
28.0390,3.0555
28.0541,3.0782
28.0595,3.1050
28.0595,3.2450
28.0541,3.2718
28.0390,3.2945
28.0162,3.3097
27.9895,3.3150
27.2795,3.3150
27.2527,3.3097
27.2300,3.2945
27.2148,3.2718
27.2095,3.2450
Z" /> 
<path style="fill:#B4A09A; fill-opacity:0.9000; stroke:none;fill-rule:evenodd;"
d="M 30.1595,3.1050
30.1648,3.0782
30.1800,3.0555
30.2027,3.0403
30.2295,3.0350
30.9395,3.0350
30.9662,3.0403
30.9890,3.0555
31.0041,3.0782
31.0095,3.1050
31.0095,3.2450
31.0041,3.2718
30.9890,3.2945
30.9662,3.3097
30.9395,3.3150
30.2295,3.3150
30.2027,3.3097
30.1800,3.2945
30.1648,3.2718
30.1595,3.2450
Z" /> 
<path style="fill:#B4A09A; fill-opacity:0.9000; stroke:none;fill-rule:evenodd;"
d="M 30.1595,2.6050
30.1648,2.5782
30.1800,2.5555
30.2027,2.5403
30.2295,2.5350
30.9395,2.5350
30.9662,2.5403
30.9890,2.5555
31.0041,2.5782
31.0095,2.6050
31.0095,2.7450
31.0041,2.7718
30.9890,2.7945
30.9662,2.8097
30.9395,2.8150
30.2295,2.8150
30.2027,2.8097
30.1800,2.7945
30.1648,2.7718
30.1595,2.7450
Z" /> 
<path style="fill:#B4A09A; fill-opacity:0.9000; stroke:none;fill-rule:evenodd;"
d="M 30.1595,2.1050
30.1648,2.0782
30.1800,2.0555
30.2027,2.0403
30.2295,2.0350
30.9395,2.0350
30.9662,2.0403
30.9890,2.0555
31.0041,2.0782
31.0095,2.1050
31.0095,2.2450
31.0041,2.2718
30.9890,2.2945
30.9662,2.3097
30.9395,2.3150
30.2295,2.3150
30.2027,2.3097
30.1800,2.2945
30.1648,2.2718
30.1595,2.2450
Z" /> 
<path style="fill:#B4A09A; fill-opacity:0.9000; stroke:none;fill-rule:evenodd;"
d="M 30.1595,1.6050
30.1648,1.5782
30.1800,1.5555
30.2027,1.5403
30.2295,1.5350
30.9395,1.5350
30.9662,1.5403
30.9890,1.5555
31.0041,1.5782
31.0095,1.6050
31.0095,1.7450
31.0041,1.7718
30.9890,1.7945
30.9662,1.8097
30.9395,1.8150
30.2295,1.8150
30.2027,1.8097
30.1800,1.7945
30.1648,1.7718
30.1595,1.7450
Z" /> 
<path style="fill:#B4A09A; fill-opacity:0.9000; stroke:none;fill-rule:evenodd;"
d="M 30.1595,1.1050
30.1648,1.0782
30.1800,1.0555
30.2027,1.0403
30.2295,1.0350
30.9395,1.0350
30.9662,1.0403
30.9890,1.0555
31.0041,1.0782
31.0095,1.1050
31.0095,1.2450
31.0041,1.2718
30.9890,1.2945
30.9662,1.3097
30.9395,1.3150
30.2295,1.3150
30.2027,1.3097
30.1800,1.2945
30.1648,1.2718
30.1595,1.2450
Z" /> 
<path style="fill:#B4A09A; fill-opacity:0.9000; stroke:none;fill-rule:evenodd;"
d="M 28.7195,0.9750
28.7195,0.2750
28.9995,0.2750
28.9995,0.9750
Z" /> 
<path style="fill:#B4A09A; fill-opacity:0.9000; stroke:none;fill-rule:evenodd;"
d="M 28.7195,4.0750
28.7195,3.3750
28.9995,3.3750
28.9995,4.0750
Z" /> 
<path style="fill:#B4A09A; fill-opacity:0.9000; stroke:none;fill-rule:evenodd;"
d="M 29.2195,0.9750
29.2195,0.2750
29.4995,0.2750
29.4995,0.9750
Z" /> 
<path style="fill:#B4A09A; fill-opacity:0.9000; stroke:none;fill-rule:evenodd;"
d="M 29.2195,4.0750
29.2195,3.3750
29.4995,3.3750
29.4995,4.0750
Z" /> 
</g>
<g style="fill:none; 
stroke:#F2EDA1; stroke-width:0.1588; stroke-opacity:1; 
stroke-linecap:round; stroke-linejoin:round;">
<text x="29.1095" y="2.8100"
textLength="5.6651" font-size="1.6933" lengthAdjust="spacingAndGlyphs"
text-anchor="middle" opacity="0">REF**</text>
<g class="stroked-text"><desc>REF**</desc>
<path d="M27.4161 2.7543
L26.9928 2.1495
" />
<path d="M26.6904 2.7543
L26.6904 1.4843
" />
<path d="M26.6904 1.4843
L27.1742 1.4843
" />
<path d="M27.1742 1.4843
L27.2952 1.5447
" />
<path d="M27.2952 1.5447
L27.3556 1.6052
" />
<path d="M27.3556 1.6052
L27.4161 1.7262
" />
<path d="M27.4161 1.7262
L27.4161 1.9076
" />
<path d="M27.4161 1.9076
L27.3556 2.0286
" />
<path d="M27.3556 2.0286
L27.2952 2.0890
" />
<path d="M27.2952 2.0890
L27.1742 2.1495
" />
<path d="M27.1742 2.1495
L26.6904 2.1495
" />
<path d="M27.9604 2.0890
L28.3837 2.0890
" />
<path d="M28.5652 2.7543
L27.9604 2.7543
" />
<path d="M27.9604 2.7543
L27.9604 1.4843
" />
<path d="M27.9604 1.4843
L28.5652 1.4843
" />
<path d="M29.5328 2.0890
L29.1095 2.0890
" />
<path d="M29.1095 2.7543
L29.1095 1.4843
" />
<path d="M29.1095 1.4843
L29.7142 1.4843
" />
<path d="M30.3795 1.4843
L30.3795 1.7867
" />
<path d="M30.0771 1.6657
L30.3795 1.7867
" />
<path d="M30.3795 1.7867
L30.6818 1.6657
" />
<path d="M30.1980 2.0286
L30.3795 1.7867
" />
<path d="M30.3795 1.7867
L30.5609 2.0286
" />
<path d="M31.3471 1.4843
L31.3471 1.7867
" />
<path d="M31.0447 1.6657
L31.3471 1.7867
" />
<path d="M31.3471 1.7867
L31.6495 1.6657
" />
<path d="M31.1656 2.0286
L31.3471 1.7867
" />
<path d="M31.3471 1.7867
L31.5285 2.0286
" />
</g></g>
<g style="fill:none; 
stroke:#F2EDA1; stroke-width:0.1200; stroke-opacity:1; 
stroke-linecap:round; stroke-linejoin:round;">
<path d="M27.5095 3.6750
L27.5095 3.7750
" />
<path d="M27.5095 3.7750
L28.3095 3.7750
" />
<path d="M28.3095 0.5750
L27.8495 0.5750
" />
<path d="M29.9095 0.5750
L30.7095 0.5750
" />
<path d="M29.9095 3.7750
L30.7095 3.7750
" />
<path d="M30.7095 0.5750
L30.7095 0.6750
" />
<path d="M30.7095 3.7750
L30.7095 3.6750
" />
<path style="fill:#F2EDA1; fill-opacity:1.0000; 
stroke:#F2EDA1; stroke-width:0.1200; stroke-opacity:1; 
stroke-linecap:round; stroke-linejoin:round;fill-rule:evenodd;"
d="M 27.5095,0.6950
27.0295,0.6950
27.5095,0.2150
Z" /> 
</g>
<g style="fill:#FFFFFF; fill-opacity:1.0000; stroke:none;">
<circle cx="28.6295" cy="1.3150" r="0.1500" /> 
</g>
<g style="fill:#FFFFFF; fill-opacity:1.0000; stroke:none;">
<circle cx="28.6295" cy="3.0350" r="0.1500" /> 
</g>
<g style="fill:#FFFFFF; fill-opacity:1.0000; stroke:none;">
<circle cx="29.1095" cy="2.1750" r="0.1500" /> 
</g>
<g style="fill:#FFFFFF; fill-opacity:1.0000; stroke:none;">
<circle cx="29.5895" cy="1.3150" r="0.1500" /> 
</g>
<g style="fill:#FFFFFF; fill-opacity:1.0000; stroke:none;">
<circle cx="29.5895" cy="3.0350" r="0.1500" /> 
</g>
<g style="fill:none; 
stroke:#FF26E2; stroke-width:0.0500; stroke-opacity:1; 
stroke-linecap:round; stroke-linejoin:round;">
<path d="M26.9595 0.0250
L31.2595 0.0250
" />
<path d="M26.9595 4.3250
L26.9595 0.0250
" />
<path d="M31.2595 0.0250
L31.2595 4.3250
" />
<path d="M31.2595 4.3250
L26.9595 4.3250
" />
</g>
<g style="fill:none; 
stroke:#AFAFAF; stroke-width:0.1588; stroke-opacity:1; 
stroke-linecap:round; stroke-linejoin:round;">
<text x="29.1095" y="2.8100"
textLength="58.2189" font-size="1.6933" lengthAdjust="spacingAndGlyphs"
text-anchor="middle" opacity="0">VSON-10-1EP_3x3mm_P0.5mm_EP1.65x2.4mm_ThermalVias</text>
<g class="stroked-text"><desc>VSON-10-1EP_3x3mm_P0.5mm_EP1.65x2.4mm_ThermalVias</desc>
<path d="M0.2321 1.4843
L0.6554 2.7543
" />
<path d="M0.6554 2.7543
L1.0787 1.4843
" />
<path d="M1.4416 2.6938
L1.6230 2.7543
" />
<path d="M1.6230 2.7543
L1.9254 2.7543
" />
<path d="M1.9254 2.7543
L2.0464 2.6938
" />
<path d="M2.0464 2.6938
L2.1068 2.6333
" />
<path d="M2.1068 2.6333
L2.1673 2.5124
" />
<path d="M2.1673 2.5124
L2.1673 2.3914
" />
<path d="M2.1673 2.3914
L2.1068 2.2705
" />
<path d="M2.1068 2.2705
L2.0464 2.2100
" />
<path d="M2.0464 2.2100
L1.9254 2.1495
" />
<path d="M1.9254 2.1495
L1.6835 2.0890
" />
<path d="M1.6835 2.0890
L1.5626 2.0286
" />
<path d="M1.5626 2.0286
L1.5021 1.9681
" />
<path d="M1.5021 1.9681
L1.4416 1.8471
" />
<path d="M1.4416 1.8471
L1.4416 1.7262
" />
<path d="M1.4416 1.7262
L1.5021 1.6052
" />
<path d="M1.5021 1.6052
L1.5626 1.5447
" />
<path d="M1.5626 1.5447
L1.6835 1.4843
" />
<path d="M1.6835 1.4843
L1.9859 1.4843
" />
<path d="M1.9859 1.4843
L2.1673 1.5447
" />
<path d="M2.9535 1.4843
L3.1954 1.4843
" />
<path d="M3.1954 1.4843
L3.3164 1.5447
" />
<path d="M3.3164 1.5447
L3.4373 1.6657
" />
<path d="M3.4373 1.6657
L3.4978 1.9076
" />
<path d="M3.4978 1.9076
L3.4978 2.3309
" />
<path d="M3.4978 2.3309
L3.4373 2.5728
" />
<path d="M3.4373 2.5728
L3.3164 2.6938
" />
<path d="M3.3164 2.6938
L3.1954 2.7543
" />
<path d="M3.1954 2.7543
L2.9535 2.7543
" />
<path d="M2.9535 2.7543
L2.8326 2.6938
" />
<path d="M2.8326 2.6938
L2.7116 2.5728
" />
<path d="M2.7116 2.5728
L2.6511 2.3309
" />
<path d="M2.6511 2.3309
L2.6511 1.9076
" />
<path d="M2.6511 1.9076
L2.7116 1.6657
" />
<path d="M2.7116 1.6657
L2.8326 1.5447
" />
<path d="M2.8326 1.5447
L2.9535 1.4843
" />
<path d="M4.0421 2.7543
L4.0421 1.4843
" />
<path d="M4.0421 1.4843
L4.7678 2.7543
" />
<path d="M4.7678 2.7543
L4.7678 1.4843
" />
<path d="M5.3726 2.2705
L6.3402 2.2705
" />
<path d="M7.6102 2.7543
L6.8845 2.7543
" />
<path d="M7.2473 2.7543
L7.2473 1.4843
" />
<path d="M7.2473 1.4843
L7.1264 1.6657
" />
<path d="M7.1264 1.6657
L7.0054 1.7867
" />
<path d="M7.0054 1.7867
L6.8845 1.8471
" />
<path d="M8.3964 1.4843
L8.5173 1.4843
" />
<path d="M8.5173 1.4843
L8.6383 1.5447
" />
<path d="M8.6383 1.5447
L8.6987 1.6052
" />
<path d="M8.6987 1.6052
L8.7592 1.7262
" />
<path d="M8.7592 1.7262
L8.8197 1.9681
" />
<path d="M8.8197 1.9681
L8.8197 2.2705
" />
<path d="M8.8197 2.2705
L8.7592 2.5124
" />
<path d="M8.7592 2.5124
L8.6987 2.6333
" />
<path d="M8.6987 2.6333
L8.6383 2.6938
" />
<path d="M8.6383 2.6938
L8.5173 2.7543
" />
<path d="M8.5173 2.7543
L8.3964 2.7543
" />
<path d="M8.3964 2.7543
L8.2754 2.6938
" />
<path d="M8.2754 2.6938
L8.2149 2.6333
" />
<path d="M8.2149 2.6333
L8.1545 2.5124
" />
<path d="M8.1545 2.5124
L8.0940 2.2705
" />
<path d="M8.0940 2.2705
L8.0940 1.9681
" />
<path d="M8.0940 1.9681
L8.1545 1.7262
" />
<path d="M8.1545 1.7262
L8.2149 1.6052
" />
<path d="M8.2149 1.6052
L8.2754 1.5447
" />
<path d="M8.2754 1.5447
L8.3964 1.4843
" />
<path d="M9.3640 2.2705
L10.3316 2.2705
" />
<path d="M11.6016 2.7543
L10.8759 2.7543
" />
<path d="M11.2387 2.7543
L11.2387 1.4843
" />
<path d="M11.2387 1.4843
L11.1178 1.6657
" />
<path d="M11.1178 1.6657
L10.9968 1.7867
" />
<path d="M10.9968 1.7867
L10.8759 1.8471
" />
<path d="M12.1459 2.0890
L12.5692 2.0890
" />
<path d="M12.7506 2.7543
L12.1459 2.7543
" />
<path d="M12.1459 2.7543
L12.1459 1.4843
" />
<path d="M12.1459 1.4843
L12.7506 1.4843
" />
<path d="M13.2949 2.7543
L13.2949 1.4843
" />
<path d="M13.2949 1.4843
L13.7787 1.4843
" />
<path d="M13.7787 1.4843
L13.8997 1.5447
" />
<path d="M13.8997 1.5447
L13.9602 1.6052
" />
<path d="M13.9602 1.6052
L14.0206 1.7262
" />
<path d="M14.0206 1.7262
L14.0206 1.9076
" />
<path d="M14.0206 1.9076
L13.9602 2.0286
" />
<path d="M13.9602 2.0286
L13.8997 2.0890
" />
<path d="M13.8997 2.0890
L13.7787 2.1495
" />
<path d="M13.7787 2.1495
L13.2949 2.1495
" />
<path d="M14.2626 2.8752
L15.2302 2.8752
" />
<path d="M15.4116 1.4843
L16.1978 1.4843
" />
<path d="M16.1978 1.4843
L15.7745 1.9681
" />
<path d="M15.7745 1.9681
L15.9559 1.9681
" />
<path d="M15.9559 1.9681
L16.0768 2.0286
" />
<path d="M16.0768 2.0286
L16.1373 2.0890
" />
<path d="M16.1373 2.0890
L16.1978 2.2100
" />
<path d="M16.1978 2.2100
L16.1978 2.5124
" />
<path d="M16.1978 2.5124
L16.1373 2.6333
" />
<path d="M16.1373 2.6333
L16.0768 2.6938
" />
<path d="M16.0768 2.6938
L15.9559 2.7543
" />
<path d="M15.9559 2.7543
L15.5930 2.7543
" />
<path d="M15.5930 2.7543
L15.4721 2.6938
" />
<path d="M15.4721 2.6938
L15.4116 2.6333
" />
<path d="M16.6211 2.7543
L17.2864 1.9076
" />
<path d="M16.6211 1.9076
L17.2864 2.7543
" />
<path d="M17.6492 1.4843
L18.4354 1.4843
" />
<path d="M18.4354 1.4843
L18.0121 1.9681
" />
<path d="M18.0121 1.9681
L18.1935 1.9681
" />
<path d="M18.1935 1.9681
L18.3145 2.0286
" />
<path d="M18.3145 2.0286
L18.3749 2.0890
" />
<path d="M18.3749 2.0890
L18.4354 2.2100
" />
<path d="M18.4354 2.2100
L18.4354 2.5124
" />
<path d="M18.4354 2.5124
L18.3749 2.6333
" />
<path d="M18.3749 2.6333
L18.3145 2.6938
" />
<path d="M18.3145 2.6938
L18.1935 2.7543
" />
<path d="M18.1935 2.7543
L17.8306 2.7543
" />
<path d="M17.8306 2.7543
L17.7097 2.6938
" />
<path d="M17.7097 2.6938
L17.6492 2.6333
" />
<path d="M18.9797 2.7543
L18.9797 1.9076
" />
<path d="M18.9797 2.0286
L19.0402 1.9681
" />
<path d="M19.0402 1.9681
L19.1611 1.9076
" />
<path d="M19.1611 1.9076
L19.3426 1.9076
" />
<path d="M19.3426 1.9076
L19.4635 1.9681
" />
<path d="M19.4635 1.9681
L19.5240 2.0890
" />
<path d="M19.5240 2.0890
L19.5240 2.7543
" />
<path d="M19.5240 2.0890
L19.5845 1.9681
" />
<path d="M19.5845 1.9681
L19.7054 1.9076
" />
<path d="M19.7054 1.9076
L19.8868 1.9076
" />
<path d="M19.8868 1.9076
L20.0078 1.9681
" />
<path d="M20.0078 1.9681
L20.0683 2.0890
" />
<path d="M20.0683 2.0890
L20.0683 2.7543
" />
<path d="M20.6730 2.7543
L20.6730 1.9076
" />
<path d="M20.6730 2.0286
L20.7335 1.9681
" />
<path d="M20.7335 1.9681
L20.8545 1.9076
" />
<path d="M20.8545 1.9076
L21.0359 1.9076
" />
<path d="M21.0359 1.9076
L21.1568 1.9681
" />
<path d="M21.1568 1.9681
L21.2173 2.0890
" />
<path d="M21.2173 2.0890
L21.2173 2.7543
" />
<path d="M21.2173 2.0890
L21.2778 1.9681
" />
<path d="M21.2778 1.9681
L21.3987 1.9076
" />
<path d="M21.3987 1.9076
L21.5802 1.9076
" />
<path d="M21.5802 1.9076
L21.7011 1.9681
" />
<path d="M21.7011 1.9681
L21.7616 2.0890
" />
<path d="M21.7616 2.0890
L21.7616 2.7543
" />
<path d="M22.0640 2.8752
L23.0316 2.8752
" />
<path d="M23.3340 2.7543
L23.3340 1.4843
" />
<path d="M23.3340 1.4843
L23.8178 1.4843
" />
<path d="M23.8178 1.4843
L23.9387 1.5447
" />
<path d="M23.9387 1.5447
L23.9992 1.6052
" />
<path d="M23.9992 1.6052
L24.0597 1.7262
" />
<path d="M24.0597 1.7262
L24.0597 1.9076
" />
<path d="M24.0597 1.9076
L23.9992 2.0286
" />
<path d="M23.9992 2.0286
L23.9387 2.0890
" />
<path d="M23.9387 2.0890
L23.8178 2.1495
" />
<path d="M23.8178 2.1495
L23.3340 2.1495
" />
<path d="M24.8459 1.4843
L24.9668 1.4843
" />
<path d="M24.9668 1.4843
L25.0878 1.5447
" />
<path d="M25.0878 1.5447
L25.1483 1.6052
" />
<path d="M25.1483 1.6052
L25.2087 1.7262
" />
<path d="M25.2087 1.7262
L25.2692 1.9681
" />
<path d="M25.2692 1.9681
L25.2692 2.2705
" />
<path d="M25.2692 2.2705
L25.2087 2.5124
" />
<path d="M25.2087 2.5124
L25.1483 2.6333
" />
<path d="M25.1483 2.6333
L25.0878 2.6938
" />
<path d="M25.0878 2.6938
L24.9668 2.7543
" />
<path d="M24.9668 2.7543
L24.8459 2.7543
" />
<path d="M24.8459 2.7543
L24.7249 2.6938
" />
<path d="M24.7249 2.6938
L24.6645 2.6333
" />
<path d="M24.6645 2.6333
L24.6040 2.5124
" />
<path d="M24.6040 2.5124
L24.5435 2.2705
" />
<path d="M24.5435 2.2705
L24.5435 1.9681
" />
<path d="M24.5435 1.9681
L24.6040 1.7262
" />
<path d="M24.6040 1.7262
L24.6645 1.6052
" />
<path d="M24.6645 1.6052
L24.7249 1.5447
" />
<path d="M24.7249 1.5447
L24.8459 1.4843
" />
<path d="M25.8135 2.6333
L25.8740 2.6938
" />
<path d="M25.8740 2.6938
L25.8135 2.7543
" />
<path d="M25.8135 2.7543
L25.7530 2.6938
" />
<path d="M25.7530 2.6938
L25.8135 2.6333
" />
<path d="M25.8135 2.6333
L25.8135 2.7543
" />
<path d="M27.0230 1.4843
L26.4183 1.4843
" />
<path d="M26.4183 1.4843
L26.3578 2.0890
" />
<path d="M26.3578 2.0890
L26.4183 2.0286
" />
<path d="M26.4183 2.0286
L26.5392 1.9681
" />
<path d="M26.5392 1.9681
L26.8416 1.9681
" />
<path d="M26.8416 1.9681
L26.9626 2.0286
" />
<path d="M26.9626 2.0286
L27.0230 2.0890
" />
<path d="M27.0230 2.0890
L27.0835 2.2100
" />
<path d="M27.0835 2.2100
L27.0835 2.5124
" />
<path d="M27.0835 2.5124
L27.0230 2.6333
" />
<path d="M27.0230 2.6333
L26.9626 2.6938
" />
<path d="M26.9626 2.6938
L26.8416 2.7543
" />
<path d="M26.8416 2.7543
L26.5392 2.7543
" />
<path d="M26.5392 2.7543
L26.4183 2.6938
" />
<path d="M26.4183 2.6938
L26.3578 2.6333
" />
<path d="M27.6278 2.7543
L27.6278 1.9076
" />
<path d="M27.6278 2.0286
L27.6883 1.9681
" />
<path d="M27.6883 1.9681
L27.8092 1.9076
" />
<path d="M27.8092 1.9076
L27.9906 1.9076
" />
<path d="M27.9906 1.9076
L28.1116 1.9681
" />
<path d="M28.1116 1.9681
L28.1721 2.0890
" />
<path d="M28.1721 2.0890
L28.1721 2.7543
" />
<path d="M28.1721 2.0890
L28.2326 1.9681
" />
<path d="M28.2326 1.9681
L28.3535 1.9076
" />
<path d="M28.3535 1.9076
L28.5349 1.9076
" />
<path d="M28.5349 1.9076
L28.6559 1.9681
" />
<path d="M28.6559 1.9681
L28.7164 2.0890
" />
<path d="M28.7164 2.0890
L28.7164 2.7543
" />
<path d="M29.3211 2.7543
L29.3211 1.9076
" />
<path d="M29.3211 2.0286
L29.3816 1.9681
" />
<path d="M29.3816 1.9681
L29.5026 1.9076
" />
<path d="M29.5026 1.9076
L29.6840 1.9076
" />
<path d="M29.6840 1.9076
L29.8049 1.9681
" />
<path d="M29.8049 1.9681
L29.8654 2.0890
" />
<path d="M29.8654 2.0890
L29.8654 2.7543
" />
<path d="M29.8654 2.0890
L29.9259 1.9681
" />
<path d="M29.9259 1.9681
L30.0468 1.9076
" />
<path d="M30.0468 1.9076
L30.2283 1.9076
" />
<path d="M30.2283 1.9076
L30.3492 1.9681
" />
<path d="M30.3492 1.9681
L30.4097 2.0890
" />
<path d="M30.4097 2.0890
L30.4097 2.7543
" />
<path d="M30.7121 2.8752
L31.6797 2.8752
" />
<path d="M31.9821 2.0890
L32.4054 2.0890
" />
<path d="M32.5868 2.7543
L31.9821 2.7543
" />
<path d="M31.9821 2.7543
L31.9821 1.4843
" />
<path d="M31.9821 1.4843
L32.5868 1.4843
" />
<path d="M33.1311 2.7543
L33.1311 1.4843
" />
<path d="M33.1311 1.4843
L33.6149 1.4843
" />
<path d="M33.6149 1.4843
L33.7359 1.5447
" />
<path d="M33.7359 1.5447
L33.7964 1.6052
" />
<path d="M33.7964 1.6052
L33.8568 1.7262
" />
<path d="M33.8568 1.7262
L33.8568 1.9076
" />
<path d="M33.8568 1.9076
L33.7964 2.0286
" />
<path d="M33.7964 2.0286
L33.7359 2.0890
" />
<path d="M33.7359 2.0890
L33.6149 2.1495
" />
<path d="M33.6149 2.1495
L33.1311 2.1495
" />
<path d="M35.0664 2.7543
L34.3406 2.7543
" />
<path d="M34.7035 2.7543
L34.7035 1.4843
" />
<path d="M34.7035 1.4843
L34.5826 1.6657
" />
<path d="M34.5826 1.6657
L34.4616 1.7867
" />
<path d="M34.4616 1.7867
L34.3406 1.8471
" />
<path d="M35.6106 2.6333
L35.6711 2.6938
" />
<path d="M35.6711 2.6938
L35.6106 2.7543
" />
<path d="M35.6106 2.7543
L35.5502 2.6938
" />
<path d="M35.5502 2.6938
L35.6106 2.6333
" />
<path d="M35.6106 2.6333
L35.6106 2.7543
" />
<path d="M36.7597 1.4843
L36.5178 1.4843
" />
<path d="M36.5178 1.4843
L36.3968 1.5447
" />
<path d="M36.3968 1.5447
L36.3364 1.6052
" />
<path d="M36.3364 1.6052
L36.2154 1.7867
" />
<path d="M36.2154 1.7867
L36.1549 2.0286
" />
<path d="M36.1549 2.0286
L36.1549 2.5124
" />
<path d="M36.1549 2.5124
L36.2154 2.6333
" />
<path d="M36.2154 2.6333
L36.2759 2.6938
" />
<path d="M36.2759 2.6938
L36.3968 2.7543
" />
<path d="M36.3968 2.7543
L36.6387 2.7543
" />
<path d="M36.6387 2.7543
L36.7597 2.6938
" />
<path d="M36.7597 2.6938
L36.8202 2.6333
" />
<path d="M36.8202 2.6333
L36.8806 2.5124
" />
<path d="M36.8806 2.5124
L36.8806 2.2100
" />
<path d="M36.8806 2.2100
L36.8202 2.0890
" />
<path d="M36.8202 2.0890
L36.7597 2.0286
" />
<path d="M36.7597 2.0286
L36.6387 1.9681
" />
<path d="M36.6387 1.9681
L36.3968 1.9681
" />
<path d="M36.3968 1.9681
L36.2759 2.0286
" />
<path d="M36.2759 2.0286
L36.2154 2.0890
" />
<path d="M36.2154 2.0890
L36.1549 2.2100
" />
<path d="M38.0297 1.4843
L37.4249 1.4843
" />
<path d="M37.4249 1.4843
L37.3645 2.0890
" />
<path d="M37.3645 2.0890
L37.4249 2.0286
" />
<path d="M37.4249 2.0286
L37.5459 1.9681
" />
<path d="M37.5459 1.9681
L37.8483 1.9681
" />
<path d="M37.8483 1.9681
L37.9692 2.0286
" />
<path d="M37.9692 2.0286
L38.0297 2.0890
" />
<path d="M38.0297 2.0890
L38.0902 2.2100
" />
<path d="M38.0902 2.2100
L38.0902 2.5124
" />
<path d="M38.0902 2.5124
L38.0297 2.6333
" />
<path d="M38.0297 2.6333
L37.9692 2.6938
" />
<path d="M37.9692 2.6938
L37.8483 2.7543
" />
<path d="M37.8483 2.7543
L37.5459 2.7543
" />
<path d="M37.5459 2.7543
L37.4249 2.6938
" />
<path d="M37.4249 2.6938
L37.3645 2.6333
" />
<path d="M38.5135 2.7543
L39.1787 1.9076
" />
<path d="M38.5135 1.9076
L39.1787 2.7543
" />
<path d="M39.6021 1.6052
L39.6626 1.5447
" />
<path d="M39.6626 1.5447
L39.7835 1.4843
" />
<path d="M39.7835 1.4843
L40.0859 1.4843
" />
<path d="M40.0859 1.4843
L40.2068 1.5447
" />
<path d="M40.2068 1.5447
L40.2673 1.6052
" />
<path d="M40.2673 1.6052
L40.3278 1.7262
" />
<path d="M40.3278 1.7262
L40.3278 1.8471
" />
<path d="M40.3278 1.8471
L40.2673 2.0286
" />
<path d="M40.2673 2.0286
L39.5416 2.7543
" />
<path d="M39.5416 2.7543
L40.3278 2.7543
" />
<path d="M40.8721 2.6333
L40.9326 2.6938
" />
<path d="M40.9326 2.6938
L40.8721 2.7543
" />
<path d="M40.8721 2.7543
L40.8116 2.6938
" />
<path d="M40.8116 2.6938
L40.8721 2.6333
" />
<path d="M40.8721 2.6333
L40.8721 2.7543
" />
<path d="M42.0211 1.9076
L42.0211 2.7543
" />
<path d="M41.7187 1.4238
L41.4164 2.3309
" />
<path d="M41.4164 2.3309
L42.2026 2.3309
" />
<path d="M42.6864 2.7543
L42.6864 1.9076
" />
<path d="M42.6864 2.0286
L42.7468 1.9681
" />
<path d="M42.7468 1.9681
L42.8678 1.9076
" />
<path d="M42.8678 1.9076
L43.0492 1.9076
" />
<path d="M43.0492 1.9076
L43.1702 1.9681
" />
<path d="M43.1702 1.9681
L43.2306 2.0890
" />
<path d="M43.2306 2.0890
L43.2306 2.7543
" />
<path d="M43.2306 2.0890
L43.2911 1.9681
" />
<path d="M43.2911 1.9681
L43.4121 1.9076
" />
<path d="M43.4121 1.9076
L43.5935 1.9076
" />
<path d="M43.5935 1.9076
L43.7145 1.9681
" />
<path d="M43.7145 1.9681
L43.7749 2.0890
" />
<path d="M43.7749 2.0890
L43.7749 2.7543
" />
<path d="M44.3797 2.7543
L44.3797 1.9076
" />
<path d="M44.3797 2.0286
L44.4402 1.9681
" />
<path d="M44.4402 1.9681
L44.5611 1.9076
" />
<path d="M44.5611 1.9076
L44.7426 1.9076
" />
<path d="M44.7426 1.9076
L44.8635 1.9681
" />
<path d="M44.8635 1.9681
L44.9240 2.0890
" />
<path d="M44.9240 2.0890
L44.9240 2.7543
" />
<path d="M44.9240 2.0890
L44.9845 1.9681
" />
<path d="M44.9845 1.9681
L45.1054 1.9076
" />
<path d="M45.1054 1.9076
L45.2868 1.9076
" />
<path d="M45.2868 1.9076
L45.4078 1.9681
" />
<path d="M45.4078 1.9681
L45.4683 2.0890
" />
<path d="M45.4683 2.0890
L45.4683 2.7543
" />
<path d="M45.7706 2.8752
L46.7383 2.8752
" />
<path d="M46.8592 1.4843
L47.5849 1.4843
" />
<path d="M47.2221 2.7543
L47.2221 1.4843
" />
<path d="M48.0083 2.7543
L48.0083 1.4843
" />
<path d="M48.5526 2.7543
L48.5526 2.0890
" />
<path d="M48.5526 2.0890
L48.4921 1.9681
" />
<path d="M48.4921 1.9681
L48.3711 1.9076
" />
<path d="M48.3711 1.9076
L48.1897 1.9076
" />
<path d="M48.1897 1.9076
L48.0687 1.9681
" />
<path d="M48.0687 1.9681
L48.0083 2.0286
" />
<path d="M49.6411 2.6938
L49.5202 2.7543
" />
<path d="M49.5202 2.7543
L49.2783 2.7543
" />
<path d="M49.2783 2.7543
L49.1573 2.6938
" />
<path d="M49.1573 2.6938
L49.0968 2.5728
" />
<path d="M49.0968 2.5728
L49.0968 2.0890
" />
<path d="M49.0968 2.0890
L49.1573 1.9681
" />
<path d="M49.1573 1.9681
L49.2783 1.9076
" />
<path d="M49.2783 1.9076
L49.5202 1.9076
" />
<path d="M49.5202 1.9076
L49.6411 1.9681
" />
<path d="M49.6411 1.9681
L49.7016 2.0890
" />
<path d="M49.7016 2.0890
L49.7016 2.2100
" />
<path d="M49.7016 2.2100
L49.0968 2.3309
" />
<path d="M50.2459 2.7543
L50.2459 1.9076
" />
<path d="M50.2459 2.1495
L50.3064 2.0286
" />
<path d="M50.3064 2.0286
L50.3668 1.9681
" />
<path d="M50.3668 1.9681
L50.4878 1.9076
" />
<path d="M50.4878 1.9076
L50.6087 1.9076
" />
<path d="M51.0321 2.7543
L51.0321 1.9076
" />
<path d="M51.0321 2.0286
L51.0926 1.9681
" />
<path d="M51.0926 1.9681
L51.2135 1.9076
" />
<path d="M51.2135 1.9076
L51.3949 1.9076
" />
<path d="M51.3949 1.9076
L51.5159 1.9681
" />
<path d="M51.5159 1.9681
L51.5764 2.0890
" />
<path d="M51.5764 2.0890
L51.5764 2.7543
" />
<path d="M51.5764 2.0890
L51.6368 1.9681
" />
<path d="M51.6368 1.9681
L51.7578 1.9076
" />
<path d="M51.7578 1.9076
L51.9392 1.9076
" />
<path d="M51.9392 1.9076
L52.0602 1.9681
" />
<path d="M52.0602 1.9681
L52.1206 2.0890
" />
<path d="M52.1206 2.0890
L52.1206 2.7543
" />
<path d="M53.2697 2.7543
L53.2697 2.0890
" />
<path d="M53.2697 2.0890
L53.2092 1.9681
" />
<path d="M53.2092 1.9681
L53.0883 1.9076
" />
<path d="M53.0883 1.9076
L52.8464 1.9076
" />
<path d="M52.8464 1.9076
L52.7254 1.9681
" />
<path d="M53.2697 2.6938
L53.1487 2.7543
" />
<path d="M53.1487 2.7543
L52.8464 2.7543
" />
<path d="M52.8464 2.7543
L52.7254 2.6938
" />
<path d="M52.7254 2.6938
L52.6649 2.5728
" />
<path d="M52.6649 2.5728
L52.6649 2.4519
" />
<path d="M52.6649 2.4519
L52.7254 2.3309
" />
<path d="M52.7254 2.3309
L52.8464 2.2705
" />
<path d="M52.8464 2.2705
L53.1487 2.2705
" />
<path d="M53.1487 2.2705
L53.2697 2.2100
" />
<path d="M54.0559 2.7543
L53.9349 2.6938
" />
<path d="M53.9349 2.6938
L53.8745 2.5728
" />
<path d="M53.8745 2.5728
L53.8745 1.4843
" />
<path d="M54.3583 1.4843
L54.7816 2.7543
" />
<path d="M54.7816 2.7543
L55.2049 1.4843
" />
<path d="M55.6283 2.7543
L55.6283 1.9076
" />
<path d="M55.6283 1.4843
L55.5678 1.5447
" />
<path d="M55.5678 1.5447
L55.6283 1.6052
" />
<path d="M55.6283 1.6052
L55.6887 1.5447
" />
<path d="M55.6887 1.5447
L55.6283 1.4843
" />
<path d="M55.6283 1.4843
L55.6283 1.6052
" />
<path d="M56.7773 2.7543
L56.7773 2.0890
" />
<path d="M56.7773 2.0890
L56.7168 1.9681
" />
<path d="M56.7168 1.9681
L56.5959 1.9076
" />
<path d="M56.5959 1.9076
L56.3540 1.9076
" />
<path d="M56.3540 1.9076
L56.2330 1.9681
" />
<path d="M56.7773 2.6938
L56.6564 2.7543
" />
<path d="M56.6564 2.7543
L56.3540 2.7543
" />
<path d="M56.3540 2.7543
L56.2330 2.6938
" />
<path d="M56.2330 2.6938
L56.1726 2.5728
" />
<path d="M56.1726 2.5728
L56.1726 2.4519
" />
<path d="M56.1726 2.4519
L56.2330 2.3309
" />
<path d="M56.2330 2.3309
L56.3540 2.2705
" />
<path d="M56.3540 2.2705
L56.6564 2.2705
" />
<path d="M56.6564 2.2705
L56.7773 2.2100
" />
<path d="M57.3216 2.6938
L57.4426 2.7543
" />
<path d="M57.4426 2.7543
L57.6845 2.7543
" />
<path d="M57.6845 2.7543
L57.8054 2.6938
" />
<path d="M57.8054 2.6938
L57.8659 2.5728
" />
<path d="M57.8659 2.5728
L57.8659 2.5124
" />
<path d="M57.8659 2.5124
L57.8054 2.3914
" />
<path d="M57.8054 2.3914
L57.6845 2.3309
" />
<path d="M57.6845 2.3309
L57.5030 2.3309
" />
<path d="M57.5030 2.3309
L57.3821 2.2705
" />
<path d="M57.3821 2.2705
L57.3216 2.1495
" />
<path d="M57.3216 2.1495
L57.3216 2.0890
" />
<path d="M57.3216 2.0890
L57.3821 1.9681
" />
<path d="M57.3821 1.9681
L57.5030 1.9076
" />
<path d="M57.5030 1.9076
L57.6845 1.9076
" />
<path d="M57.6845 1.9076
L57.8054 1.9681
" />
</g></g>
<g style="fill:none; 
stroke:#AFAFAF; stroke-width:0.1000; stroke-opacity:1; 
stroke-linecap:round; stroke-linejoin:round;">
<text x="29.1095" y="2.5750"
textLength="3.5686" font-size="1.0667" lengthAdjust="spacingAndGlyphs"
text-anchor="middle" opacity="0">REF**</text>
<g class="stroked-text"><desc>REF**</desc>
<path d="M28.0428 2.5399
L27.7761 2.1589
" />
<path d="M27.5856 2.5399
L27.5856 1.7399
" />
<path d="M27.5856 1.7399
L27.8904 1.7399
" />
<path d="M27.8904 1.7399
L27.9666 1.7780
" />
<path d="M27.9666 1.7780
L28.0047 1.8161
" />
<path d="M28.0047 1.8161
L28.0428 1.8923
" />
<path d="M28.0428 1.8923
L28.0428 2.0066
" />
<path d="M28.0428 2.0066
L28.0047 2.0828
" />
<path d="M28.0047 2.0828
L27.9666 2.1208
" />
<path d="M27.9666 2.1208
L27.8904 2.1589
" />
<path d="M27.8904 2.1589
L27.5856 2.1589
" />
<path d="M28.3856 2.1208
L28.6523 2.1208
" />
<path d="M28.7666 2.5399
L28.3856 2.5399
" />
<path d="M28.3856 2.5399
L28.3856 1.7399
" />
<path d="M28.3856 1.7399
L28.7666 1.7399
" />
<path d="M29.3761 2.1208
L29.1095 2.1208
" />
<path d="M29.1095 2.5399
L29.1095 1.7399
" />
<path d="M29.1095 1.7399
L29.4904 1.7399
" />
<path d="M29.9095 1.7399
L29.9095 1.9304
" />
<path d="M29.7190 1.8542
L29.9095 1.9304
" />
<path d="M29.9095 1.9304
L30.0999 1.8542
" />
<path d="M29.7952 2.0828
L29.9095 1.9304
" />
<path d="M29.9095 1.9304
L30.0237 2.0828
" />
<path d="M30.5190 1.7399
L30.5190 1.9304
" />
<path d="M30.3285 1.8542
L30.5190 1.9304
" />
<path d="M30.5190 1.9304
L30.7095 1.8542
" />
<path d="M30.4047 2.0828
L30.5190 1.9304
" />
<path d="M30.5190 1.9304
L30.6333 2.0828
" />
</g><path d="M27.6095 1.6750
L27.6095 3.6750
" />
<path d="M27.6095 1.6750
L28.6095 0.6750
" />
<path d="M27.6095 3.6750
L30.6095 3.6750
" />
<path d="M28.6095 0.6750
L30.6095 0.6750
" />
<path d="M30.6095 0.6750
L30.6095 3.6750
" />
</g> 
</svg>
