<?xml version="1.0" standalone="no"?>
 <!DOCTYPE svg PUBLIC "-//W3C//DTD SVG 1.1//EN" 
 "http://www.w3.org/Graphics/SVG/1.1/DTD/svg11.dtd"> 
<svg
  xmlns:svg="http://www.w3.org/2000/svg"
  xmlns="http://www.w3.org/2000/svg"
  xmlns:xlink="http://www.w3.org/1999/xlink"
  version="1.1"
  width="53.9242mm" height="3.6322mm" viewBox="0.0000 0.0000 53.9242 3.6322">
<title>SVG Image created as working-brd.svg date 2024/04/20 11:01:14 </title>
  <desc>Image generated by PCBNEW </desc>
<g style="fill:#000000; fill-opacity:1.0000;stroke:#000000; stroke-opacity:1.0000;
stroke-linecap:round; stroke-linejoin:round;"
 transform="translate(0 0) scale(1 1)">
<path style="fill:#C83434; fill-opacity:1.0000; stroke:none;fill-rule:evenodd;"
d="M 25.0626,3.3750
25.0626,2.1750
26.4626,2.1750
26.4626,3.3750
Z" /> 
<path style="fill:#C83434; fill-opacity:1.0000; stroke:none;fill-rule:evenodd;"
d="M 27.4626,3.3750
27.4626,2.1750
28.8626,2.1750
28.8626,3.3750
Z" /> 
<path style="fill:#C83434; fill-opacity:1.0000; stroke:none;fill-rule:evenodd;"
d="M 27.4626,1.4750
27.4626,0.2750
28.8626,0.2750
28.8626,1.4750
Z" /> 
<path style="fill:#C83434; fill-opacity:1.0000; stroke:none;fill-rule:evenodd;"
d="M 25.0626,1.4750
25.0626,0.2750
26.4626,0.2750
26.4626,1.4750
Z" /> 
<path style="fill:#D864FF; fill-opacity:0.4000; stroke:none;fill-rule:evenodd;"
d="M 25.0626,3.3750
25.0626,2.1750
26.4626,2.1750
26.4626,3.3750
Z" /> 
<path style="fill:#D864FF; fill-opacity:0.4000; stroke:none;fill-rule:evenodd;"
d="M 27.4626,3.3750
27.4626,2.1750
28.8626,2.1750
28.8626,3.3750
Z" /> 
<path style="fill:#D864FF; fill-opacity:0.4000; stroke:none;fill-rule:evenodd;"
d="M 27.4626,1.4750
27.4626,0.2750
28.8626,0.2750
28.8626,1.4750
Z" /> 
<path style="fill:#D864FF; fill-opacity:0.4000; stroke:none;fill-rule:evenodd;"
d="M 25.0626,1.4750
25.0626,0.2750
26.4626,0.2750
26.4626,1.4750
Z" /> 
<path style="fill:#B4A09A; fill-opacity:0.9000; stroke:none;fill-rule:evenodd;"
d="M 25.0626,3.3750
25.0626,2.1750
26.4626,2.1750
26.4626,3.3750
Z" /> 
<path style="fill:#B4A09A; fill-opacity:0.9000; stroke:none;fill-rule:evenodd;"
d="M 27.4626,3.3750
27.4626,2.1750
28.8626,2.1750
28.8626,3.3750
Z" /> 
<path style="fill:#B4A09A; fill-opacity:0.9000; stroke:none;fill-rule:evenodd;"
d="M 27.4626,1.4750
27.4626,0.2750
28.8626,0.2750
28.8626,1.4750
Z" /> 
<path style="fill:#B4A09A; fill-opacity:0.9000; stroke:none;fill-rule:evenodd;"
d="M 25.0626,1.4750
25.0626,0.2750
26.4626,0.2750
26.4626,1.4750
Z" /> 
</g>
<g style="fill:none; 
stroke:#F2EDA1; stroke-width:0.1588; stroke-opacity:1; 
stroke-linecap:round; stroke-linejoin:round;">
<text x="26.9626" y="2.4600"
textLength="5.6651" font-size="1.6933" lengthAdjust="spacingAndGlyphs"
text-anchor="middle" opacity="0">REF**</text>
<g class="stroked-text"><desc>REF**</desc>
<path d="M25.2692 2.4043
L24.8459 1.7995
" />
<path d="M24.5435 2.4043
L24.5435 1.1343
" />
<path d="M24.5435 1.1343
L25.0273 1.1343
" />
<path d="M25.0273 1.1343
L25.1483 1.1947
" />
<path d="M25.1483 1.1947
L25.2087 1.2552
" />
<path d="M25.2087 1.2552
L25.2692 1.3762
" />
<path d="M25.2692 1.3762
L25.2692 1.5576
" />
<path d="M25.2692 1.5576
L25.2087 1.6786
" />
<path d="M25.2087 1.6786
L25.1483 1.7390
" />
<path d="M25.1483 1.7390
L25.0273 1.7995
" />
<path d="M25.0273 1.7995
L24.5435 1.7995
" />
<path d="M25.8135 1.7390
L26.2368 1.7390
" />
<path d="M26.4183 2.4043
L25.8135 2.4043
" />
<path d="M25.8135 2.4043
L25.8135 1.1343
" />
<path d="M25.8135 1.1343
L26.4183 1.1343
" />
<path d="M27.3859 1.7390
L26.9626 1.7390
" />
<path d="M26.9626 2.4043
L26.9626 1.1343
" />
<path d="M26.9626 1.1343
L27.5673 1.1343
" />
<path d="M28.2326 1.1343
L28.2326 1.4367
" />
<path d="M27.9302 1.3157
L28.2326 1.4367
" />
<path d="M28.2326 1.4367
L28.5349 1.3157
" />
<path d="M28.0511 1.6786
L28.2326 1.4367
" />
<path d="M28.2326 1.4367
L28.4140 1.6786
" />
<path d="M29.2002 1.1343
L29.2002 1.4367
" />
<path d="M28.8978 1.3157
L29.2002 1.4367
" />
<path d="M29.2002 1.4367
L29.5026 1.3157
" />
<path d="M29.0187 1.6786
L29.2002 1.4367
" />
<path d="M29.2002 1.4367
L29.3816 1.6786
" />
</g></g>
<g style="fill:none; 
stroke:#F2EDA1; stroke-width:0.1200; stroke-opacity:1; 
stroke-linecap:round; stroke-linejoin:round;">
<path d="M24.8626 0.0750
L24.8626 3.5750
" />
<path d="M24.8626 3.5750
L29.0626 3.5750
" />
</g>
<g style="fill:none; 
stroke:#840084; stroke-width:0.1167; stroke-opacity:1; 
stroke-linecap:round; stroke-linejoin:round;">
<circle cx="26.9626" cy="1.8250" r="0.1167" /> 
</g>
<g style="fill:none; 
stroke:#840084; stroke-width:0.0833; stroke-opacity:1; 
stroke-linecap:round; stroke-linejoin:round;">
<circle cx="26.9626" cy="1.8250" r="0.1333" /> 
<circle cx="26.9626" cy="1.8250" r="0.2083" /> 
</g>
<g style="fill:none; 
stroke:#840084; stroke-width:0.1000; stroke-opacity:1; 
stroke-linecap:round; stroke-linejoin:round;">
<circle cx="26.9626" cy="1.8250" r="0.2500" /> 
</g>
<g style="fill:none; 
stroke:#FF26E2; stroke-width:0.0500; stroke-opacity:1; 
stroke-linecap:round; stroke-linejoin:round;">
<path d="M24.7626 0.0250
L24.7626 3.6250
" />
<path d="M24.7626 3.6250
L29.1626 3.6250
" />
<path d="M29.1626 0.0250
L24.7626 0.0250
" />
<path d="M29.1626 3.6250
L29.1626 0.0250
" />
</g>
<g style="fill:none; 
stroke:#AFAFAF; stroke-width:0.1588; stroke-opacity:1; 
stroke-linecap:round; stroke-linejoin:round;">
<text x="26.9626" y="2.4600"
textLength="53.9251" font-size="1.6933" lengthAdjust="spacingAndGlyphs"
text-anchor="middle" opacity="0">Oscillator_SMD_SeikoEpson_SG8002CE-4Pin_3.2x2.5mm</text>
<g class="stroked-text"><desc>Oscillator_SMD_SeikoEpson_SG8002CE-4Pin_3.2x2.5mm</desc>
<path d="M0.6554 1.1343
L0.8973 1.1343
" />
<path d="M0.8973 1.1343
L1.0183 1.1947
" />
<path d="M1.0183 1.1947
L1.1392 1.3157
" />
<path d="M1.1392 1.3157
L1.1997 1.5576
" />
<path d="M1.1997 1.5576
L1.1997 1.9809
" />
<path d="M1.1997 1.9809
L1.1392 2.2228
" />
<path d="M1.1392 2.2228
L1.0183 2.3438
" />
<path d="M1.0183 2.3438
L0.8973 2.4043
" />
<path d="M0.8973 2.4043
L0.6554 2.4043
" />
<path d="M0.6554 2.4043
L0.5345 2.3438
" />
<path d="M0.5345 2.3438
L0.4135 2.2228
" />
<path d="M0.4135 2.2228
L0.3530 1.9809
" />
<path d="M0.3530 1.9809
L0.3530 1.5576
" />
<path d="M0.3530 1.5576
L0.4135 1.3157
" />
<path d="M0.4135 1.3157
L0.5345 1.1947
" />
<path d="M0.5345 1.1947
L0.6554 1.1343
" />
<path d="M1.6835 2.3438
L1.8045 2.4043
" />
<path d="M1.8045 2.4043
L2.0464 2.4043
" />
<path d="M2.0464 2.4043
L2.1673 2.3438
" />
<path d="M2.1673 2.3438
L2.2278 2.2228
" />
<path d="M2.2278 2.2228
L2.2278 2.1624
" />
<path d="M2.2278 2.1624
L2.1673 2.0414
" />
<path d="M2.1673 2.0414
L2.0464 1.9809
" />
<path d="M2.0464 1.9809
L1.8649 1.9809
" />
<path d="M1.8649 1.9809
L1.7440 1.9205
" />
<path d="M1.7440 1.9205
L1.6835 1.7995
" />
<path d="M1.6835 1.7995
L1.6835 1.7390
" />
<path d="M1.6835 1.7390
L1.7440 1.6181
" />
<path d="M1.7440 1.6181
L1.8649 1.5576
" />
<path d="M1.8649 1.5576
L2.0464 1.5576
" />
<path d="M2.0464 1.5576
L2.1673 1.6181
" />
<path d="M3.3164 2.3438
L3.1954 2.4043
" />
<path d="M3.1954 2.4043
L2.9535 2.4043
" />
<path d="M2.9535 2.4043
L2.8326 2.3438
" />
<path d="M2.8326 2.3438
L2.7721 2.2833
" />
<path d="M2.7721 2.2833
L2.7116 2.1624
" />
<path d="M2.7116 2.1624
L2.7116 1.7995
" />
<path d="M2.7116 1.7995
L2.7721 1.6786
" />
<path d="M2.7721 1.6786
L2.8326 1.6181
" />
<path d="M2.8326 1.6181
L2.9535 1.5576
" />
<path d="M2.9535 1.5576
L3.1954 1.5576
" />
<path d="M3.1954 1.5576
L3.3164 1.6181
" />
<path d="M3.8606 2.4043
L3.8606 1.5576
" />
<path d="M3.8606 1.1343
L3.8002 1.1947
" />
<path d="M3.8002 1.1947
L3.8606 1.2552
" />
<path d="M3.8606 1.2552
L3.9211 1.1947
" />
<path d="M3.9211 1.1947
L3.8606 1.1343
" />
<path d="M3.8606 1.1343
L3.8606 1.2552
" />
<path d="M4.6468 2.4043
L4.5259 2.3438
" />
<path d="M4.5259 2.3438
L4.4654 2.2228
" />
<path d="M4.4654 2.2228
L4.4654 1.1343
" />
<path d="M5.3121 2.4043
L5.1911 2.3438
" />
<path d="M5.1911 2.3438
L5.1306 2.2228
" />
<path d="M5.1306 2.2228
L5.1306 1.1343
" />
<path d="M6.3402 2.4043
L6.3402 1.7390
" />
<path d="M6.3402 1.7390
L6.2797 1.6181
" />
<path d="M6.2797 1.6181
L6.1587 1.5576
" />
<path d="M6.1587 1.5576
L5.9168 1.5576
" />
<path d="M5.9168 1.5576
L5.7959 1.6181
" />
<path d="M6.3402 2.3438
L6.2192 2.4043
" />
<path d="M6.2192 2.4043
L5.9168 2.4043
" />
<path d="M5.9168 2.4043
L5.7959 2.3438
" />
<path d="M5.7959 2.3438
L5.7354 2.2228
" />
<path d="M5.7354 2.2228
L5.7354 2.1019
" />
<path d="M5.7354 2.1019
L5.7959 1.9809
" />
<path d="M5.7959 1.9809
L5.9168 1.9205
" />
<path d="M5.9168 1.9205
L6.2192 1.9205
" />
<path d="M6.2192 1.9205
L6.3402 1.8600
" />
<path d="M6.7635 1.5576
L7.2473 1.5576
" />
<path d="M6.9449 1.1343
L6.9449 2.2228
" />
<path d="M6.9449 2.2228
L7.0054 2.3438
" />
<path d="M7.0054 2.3438
L7.1264 2.4043
" />
<path d="M7.1264 2.4043
L7.2473 2.4043
" />
<path d="M7.8521 2.4043
L7.7311 2.3438
" />
<path d="M7.7311 2.3438
L7.6706 2.2833
" />
<path d="M7.6706 2.2833
L7.6102 2.1624
" />
<path d="M7.6102 2.1624
L7.6102 1.7995
" />
<path d="M7.6102 1.7995
L7.6706 1.6786
" />
<path d="M7.6706 1.6786
L7.7311 1.6181
" />
<path d="M7.7311 1.6181
L7.8521 1.5576
" />
<path d="M7.8521 1.5576
L8.0335 1.5576
" />
<path d="M8.0335 1.5576
L8.1545 1.6181
" />
<path d="M8.1545 1.6181
L8.2149 1.6786
" />
<path d="M8.2149 1.6786
L8.2754 1.7995
" />
<path d="M8.2754 1.7995
L8.2754 2.1624
" />
<path d="M8.2754 2.1624
L8.2149 2.2833
" />
<path d="M8.2149 2.2833
L8.1545 2.3438
" />
<path d="M8.1545 2.3438
L8.0335 2.4043
" />
<path d="M8.0335 2.4043
L7.8521 2.4043
" />
<path d="M8.8197 2.4043
L8.8197 1.5576
" />
<path d="M8.8197 1.7995
L8.8802 1.6786
" />
<path d="M8.8802 1.6786
L8.9406 1.6181
" />
<path d="M8.9406 1.6181
L9.0616 1.5576
" />
<path d="M9.0616 1.5576
L9.1826 1.5576
" />
<path d="M9.3035 2.5252
L10.2711 2.5252
" />
<path d="M10.5130 2.3438
L10.6945 2.4043
" />
<path d="M10.6945 2.4043
L10.9968 2.4043
" />
<path d="M10.9968 2.4043
L11.1178 2.3438
" />
<path d="M11.1178 2.3438
L11.1783 2.2833
" />
<path d="M11.1783 2.2833
L11.2387 2.1624
" />
<path d="M11.2387 2.1624
L11.2387 2.0414
" />
<path d="M11.2387 2.0414
L11.1783 1.9205
" />
<path d="M11.1783 1.9205
L11.1178 1.8600
" />
<path d="M11.1178 1.8600
L10.9968 1.7995
" />
<path d="M10.9968 1.7995
L10.7549 1.7390
" />
<path d="M10.7549 1.7390
L10.6340 1.6786
" />
<path d="M10.6340 1.6786
L10.5735 1.6181
" />
<path d="M10.5735 1.6181
L10.5130 1.4971
" />
<path d="M10.5130 1.4971
L10.5130 1.3762
" />
<path d="M10.5130 1.3762
L10.5735 1.2552
" />
<path d="M10.5735 1.2552
L10.6340 1.1947
" />
<path d="M10.6340 1.1947
L10.7549 1.1343
" />
<path d="M10.7549 1.1343
L11.0573 1.1343
" />
<path d="M11.0573 1.1343
L11.2387 1.1947
" />
<path d="M11.7830 2.4043
L11.7830 1.1343
" />
<path d="M11.7830 1.1343
L12.2064 2.0414
" />
<path d="M12.2064 2.0414
L12.6297 1.1343
" />
<path d="M12.6297 1.1343
L12.6297 2.4043
" />
<path d="M13.2345 2.4043
L13.2345 1.1343
" />
<path d="M13.2345 1.1343
L13.5368 1.1343
" />
<path d="M13.5368 1.1343
L13.7183 1.1947
" />
<path d="M13.7183 1.1947
L13.8392 1.3157
" />
<path d="M13.8392 1.3157
L13.8997 1.4367
" />
<path d="M13.8997 1.4367
L13.9602 1.6786
" />
<path d="M13.9602 1.6786
L13.9602 1.8600
" />
<path d="M13.9602 1.8600
L13.8997 2.1019
" />
<path d="M13.8997 2.1019
L13.8392 2.2228
" />
<path d="M13.8392 2.2228
L13.7183 2.3438
" />
<path d="M13.7183 2.3438
L13.5368 2.4043
" />
<path d="M13.5368 2.4043
L13.2345 2.4043
" />
<path d="M14.2021 2.5252
L15.1697 2.5252
" />
<path d="M15.4116 2.3438
L15.5930 2.4043
" />
<path d="M15.5930 2.4043
L15.8954 2.4043
" />
<path d="M15.8954 2.4043
L16.0164 2.3438
" />
<path d="M16.0164 2.3438
L16.0768 2.2833
" />
<path d="M16.0768 2.2833
L16.1373 2.1624
" />
<path d="M16.1373 2.1624
L16.1373 2.0414
" />
<path d="M16.1373 2.0414
L16.0768 1.9205
" />
<path d="M16.0768 1.9205
L16.0164 1.8600
" />
<path d="M16.0164 1.8600
L15.8954 1.7995
" />
<path d="M15.8954 1.7995
L15.6535 1.7390
" />
<path d="M15.6535 1.7390
L15.5326 1.6786
" />
<path d="M15.5326 1.6786
L15.4721 1.6181
" />
<path d="M15.4721 1.6181
L15.4116 1.4971
" />
<path d="M15.4116 1.4971
L15.4116 1.3762
" />
<path d="M15.4116 1.3762
L15.4721 1.2552
" />
<path d="M15.4721 1.2552
L15.5326 1.1947
" />
<path d="M15.5326 1.1947
L15.6535 1.1343
" />
<path d="M15.6535 1.1343
L15.9559 1.1343
" />
<path d="M15.9559 1.1343
L16.1373 1.1947
" />
<path d="M17.1654 2.3438
L17.0445 2.4043
" />
<path d="M17.0445 2.4043
L16.8026 2.4043
" />
<path d="M16.8026 2.4043
L16.6816 2.3438
" />
<path d="M16.6816 2.3438
L16.6211 2.2228
" />
<path d="M16.6211 2.2228
L16.6211 1.7390
" />
<path d="M16.6211 1.7390
L16.6816 1.6181
" />
<path d="M16.6816 1.6181
L16.8026 1.5576
" />
<path d="M16.8026 1.5576
L17.0445 1.5576
" />
<path d="M17.0445 1.5576
L17.1654 1.6181
" />
<path d="M17.1654 1.6181
L17.2259 1.7390
" />
<path d="M17.2259 1.7390
L17.2259 1.8600
" />
<path d="M17.2259 1.8600
L16.6211 1.9809
" />
<path d="M17.7702 2.4043
L17.7702 1.5576
" />
<path d="M17.7702 1.1343
L17.7097 1.1947
" />
<path d="M17.7097 1.1947
L17.7702 1.2552
" />
<path d="M17.7702 1.2552
L17.8306 1.1947
" />
<path d="M17.8306 1.1947
L17.7702 1.1343
" />
<path d="M17.7702 1.1343
L17.7702 1.2552
" />
<path d="M18.3749 2.4043
L18.3749 1.1343
" />
<path d="M18.4959 1.9205
L18.8587 2.4043
" />
<path d="M18.8587 1.5576
L18.3749 2.0414
" />
<path d="M19.5845 2.4043
L19.4635 2.3438
" />
<path d="M19.4635 2.3438
L19.4030 2.2833
" />
<path d="M19.4030 2.2833
L19.3426 2.1624
" />
<path d="M19.3426 2.1624
L19.3426 1.7995
" />
<path d="M19.3426 1.7995
L19.4030 1.6786
" />
<path d="M19.4030 1.6786
L19.4635 1.6181
" />
<path d="M19.4635 1.6181
L19.5845 1.5576
" />
<path d="M19.5845 1.5576
L19.7659 1.5576
" />
<path d="M19.7659 1.5576
L19.8868 1.6181
" />
<path d="M19.8868 1.6181
L19.9473 1.6786
" />
<path d="M19.9473 1.6786
L20.0078 1.7995
" />
<path d="M20.0078 1.7995
L20.0078 2.1624
" />
<path d="M20.0078 2.1624
L19.9473 2.2833
" />
<path d="M19.9473 2.2833
L19.8868 2.3438
" />
<path d="M19.8868 2.3438
L19.7659 2.4043
" />
<path d="M19.7659 2.4043
L19.5845 2.4043
" />
<path d="M20.5521 1.7390
L20.9754 1.7390
" />
<path d="M21.1568 2.4043
L20.5521 2.4043
" />
<path d="M20.5521 2.4043
L20.5521 1.1343
" />
<path d="M20.5521 1.1343
L21.1568 1.1343
" />
<path d="M21.7011 1.5576
L21.7011 2.8276
" />
<path d="M21.7011 1.6181
L21.8221 1.5576
" />
<path d="M21.8221 1.5576
L22.0640 1.5576
" />
<path d="M22.0640 1.5576
L22.1849 1.6181
" />
<path d="M22.1849 1.6181
L22.2454 1.6786
" />
<path d="M22.2454 1.6786
L22.3059 1.7995
" />
<path d="M22.3059 1.7995
L22.3059 2.1624
" />
<path d="M22.3059 2.1624
L22.2454 2.2833
" />
<path d="M22.2454 2.2833
L22.1849 2.3438
" />
<path d="M22.1849 2.3438
L22.0640 2.4043
" />
<path d="M22.0640 2.4043
L21.8221 2.4043
" />
<path d="M21.8221 2.4043
L21.7011 2.3438
" />
<path d="M22.7897 2.3438
L22.9107 2.4043
" />
<path d="M22.9107 2.4043
L23.1526 2.4043
" />
<path d="M23.1526 2.4043
L23.2735 2.3438
" />
<path d="M23.2735 2.3438
L23.3340 2.2228
" />
<path d="M23.3340 2.2228
L23.3340 2.1624
" />
<path d="M23.3340 2.1624
L23.2735 2.0414
" />
<path d="M23.2735 2.0414
L23.1526 1.9809
" />
<path d="M23.1526 1.9809
L22.9711 1.9809
" />
<path d="M22.9711 1.9809
L22.8502 1.9205
" />
<path d="M22.8502 1.9205
L22.7897 1.7995
" />
<path d="M22.7897 1.7995
L22.7897 1.7390
" />
<path d="M22.7897 1.7390
L22.8502 1.6181
" />
<path d="M22.8502 1.6181
L22.9711 1.5576
" />
<path d="M22.9711 1.5576
L23.1526 1.5576
" />
<path d="M23.1526 1.5576
L23.2735 1.6181
" />
<path d="M24.0597 2.4043
L23.9387 2.3438
" />
<path d="M23.9387 2.3438
L23.8783 2.2833
" />
<path d="M23.8783 2.2833
L23.8178 2.1624
" />
<path d="M23.8178 2.1624
L23.8178 1.7995
" />
<path d="M23.8178 1.7995
L23.8783 1.6786
" />
<path d="M23.8783 1.6786
L23.9387 1.6181
" />
<path d="M23.9387 1.6181
L24.0597 1.5576
" />
<path d="M24.0597 1.5576
L24.2411 1.5576
" />
<path d="M24.2411 1.5576
L24.3621 1.6181
" />
<path d="M24.3621 1.6181
L24.4226 1.6786
" />
<path d="M24.4226 1.6786
L24.4830 1.7995
" />
<path d="M24.4830 1.7995
L24.4830 2.1624
" />
<path d="M24.4830 2.1624
L24.4226 2.2833
" />
<path d="M24.4226 2.2833
L24.3621 2.3438
" />
<path d="M24.3621 2.3438
L24.2411 2.4043
" />
<path d="M24.2411 2.4043
L24.0597 2.4043
" />
<path d="M25.0273 1.5576
L25.0273 2.4043
" />
<path d="M25.0273 1.6786
L25.0878 1.6181
" />
<path d="M25.0878 1.6181
L25.2087 1.5576
" />
<path d="M25.2087 1.5576
L25.3902 1.5576
" />
<path d="M25.3902 1.5576
L25.5111 1.6181
" />
<path d="M25.5111 1.6181
L25.5716 1.7390
" />
<path d="M25.5716 1.7390
L25.5716 2.4043
" />
<path d="M25.8740 2.5252
L26.8416 2.5252
" />
<path d="M27.0835 2.3438
L27.2649 2.4043
" />
<path d="M27.2649 2.4043
L27.5673 2.4043
" />
<path d="M27.5673 2.4043
L27.6883 2.3438
" />
<path d="M27.6883 2.3438
L27.7487 2.2833
" />
<path d="M27.7487 2.2833
L27.8092 2.1624
" />
<path d="M27.8092 2.1624
L27.8092 2.0414
" />
<path d="M27.8092 2.0414
L27.7487 1.9205
" />
<path d="M27.7487 1.9205
L27.6883 1.8600
" />
<path d="M27.6883 1.8600
L27.5673 1.7995
" />
<path d="M27.5673 1.7995
L27.3254 1.7390
" />
<path d="M27.3254 1.7390
L27.2045 1.6786
" />
<path d="M27.2045 1.6786
L27.1440 1.6181
" />
<path d="M27.1440 1.6181
L27.0835 1.4971
" />
<path d="M27.0835 1.4971
L27.0835 1.3762
" />
<path d="M27.0835 1.3762
L27.1440 1.2552
" />
<path d="M27.1440 1.2552
L27.2045 1.1947
" />
<path d="M27.2045 1.1947
L27.3254 1.1343
" />
<path d="M27.3254 1.1343
L27.6278 1.1343
" />
<path d="M27.6278 1.1343
L27.8092 1.1947
" />
<path d="M29.0187 1.1947
L28.8978 1.1343
" />
<path d="M28.8978 1.1343
L28.7164 1.1343
" />
<path d="M28.7164 1.1343
L28.5349 1.1947
" />
<path d="M28.5349 1.1947
L28.4140 1.3157
" />
<path d="M28.4140 1.3157
L28.3535 1.4367
" />
<path d="M28.3535 1.4367
L28.2930 1.6786
" />
<path d="M28.2930 1.6786
L28.2930 1.8600
" />
<path d="M28.2930 1.8600
L28.3535 2.1019
" />
<path d="M28.3535 2.1019
L28.4140 2.2228
" />
<path d="M28.4140 2.2228
L28.5349 2.3438
" />
<path d="M28.5349 2.3438
L28.7164 2.4043
" />
<path d="M28.7164 2.4043
L28.8373 2.4043
" />
<path d="M28.8373 2.4043
L29.0187 2.3438
" />
<path d="M29.0187 2.3438
L29.0792 2.2833
" />
<path d="M29.0792 2.2833
L29.0792 1.8600
" />
<path d="M29.0792 1.8600
L28.8373 1.8600
" />
<path d="M29.8049 1.6786
L29.6840 1.6181
" />
<path d="M29.6840 1.6181
L29.6235 1.5576
" />
<path d="M29.6235 1.5576
L29.5630 1.4367
" />
<path d="M29.5630 1.4367
L29.5630 1.3762
" />
<path d="M29.5630 1.3762
L29.6235 1.2552
" />
<path d="M29.6235 1.2552
L29.6840 1.1947
" />
<path d="M29.6840 1.1947
L29.8049 1.1343
" />
<path d="M29.8049 1.1343
L30.0468 1.1343
" />
<path d="M30.0468 1.1343
L30.1678 1.1947
" />
<path d="M30.1678 1.1947
L30.2283 1.2552
" />
<path d="M30.2283 1.2552
L30.2887 1.3762
" />
<path d="M30.2887 1.3762
L30.2887 1.4367
" />
<path d="M30.2887 1.4367
L30.2283 1.5576
" />
<path d="M30.2283 1.5576
L30.1678 1.6181
" />
<path d="M30.1678 1.6181
L30.0468 1.6786
" />
<path d="M30.0468 1.6786
L29.8049 1.6786
" />
<path d="M29.8049 1.6786
L29.6840 1.7390
" />
<path d="M29.6840 1.7390
L29.6235 1.7995
" />
<path d="M29.6235 1.7995
L29.5630 1.9205
" />
<path d="M29.5630 1.9205
L29.5630 2.1624
" />
<path d="M29.5630 2.1624
L29.6235 2.2833
" />
<path d="M29.6235 2.2833
L29.6840 2.3438
" />
<path d="M29.6840 2.3438
L29.8049 2.4043
" />
<path d="M29.8049 2.4043
L30.0468 2.4043
" />
<path d="M30.0468 2.4043
L30.1678 2.3438
" />
<path d="M30.1678 2.3438
L30.2283 2.2833
" />
<path d="M30.2283 2.2833
L30.2887 2.1624
" />
<path d="M30.2887 2.1624
L30.2887 1.9205
" />
<path d="M30.2887 1.9205
L30.2283 1.7995
" />
<path d="M30.2283 1.7995
L30.1678 1.7390
" />
<path d="M30.1678 1.7390
L30.0468 1.6786
" />
<path d="M31.0749 1.1343
L31.1959 1.1343
" />
<path d="M31.1959 1.1343
L31.3168 1.1947
" />
<path d="M31.3168 1.1947
L31.3773 1.2552
" />
<path d="M31.3773 1.2552
L31.4378 1.3762
" />
<path d="M31.4378 1.3762
L31.4983 1.6181
" />
<path d="M31.4983 1.6181
L31.4983 1.9205
" />
<path d="M31.4983 1.9205
L31.4378 2.1624
" />
<path d="M31.4378 2.1624
L31.3773 2.2833
" />
<path d="M31.3773 2.2833
L31.3168 2.3438
" />
<path d="M31.3168 2.3438
L31.1959 2.4043
" />
<path d="M31.1959 2.4043
L31.0749 2.4043
" />
<path d="M31.0749 2.4043
L30.9540 2.3438
" />
<path d="M30.9540 2.3438
L30.8935 2.2833
" />
<path d="M30.8935 2.2833
L30.8330 2.1624
" />
<path d="M30.8330 2.1624
L30.7726 1.9205
" />
<path d="M30.7726 1.9205
L30.7726 1.6181
" />
<path d="M30.7726 1.6181
L30.8330 1.3762
" />
<path d="M30.8330 1.3762
L30.8935 1.2552
" />
<path d="M30.8935 1.2552
L30.9540 1.1947
" />
<path d="M30.9540 1.1947
L31.0749 1.1343
" />
<path d="M32.2845 1.1343
L32.4054 1.1343
" />
<path d="M32.4054 1.1343
L32.5264 1.1947
" />
<path d="M32.5264 1.1947
L32.5868 1.2552
" />
<path d="M32.5868 1.2552
L32.6473 1.3762
" />
<path d="M32.6473 1.3762
L32.7078 1.6181
" />
<path d="M32.7078 1.6181
L32.7078 1.9205
" />
<path d="M32.7078 1.9205
L32.6473 2.1624
" />
<path d="M32.6473 2.1624
L32.5868 2.2833
" />
<path d="M32.5868 2.2833
L32.5264 2.3438
" />
<path d="M32.5264 2.3438
L32.4054 2.4043
" />
<path d="M32.4054 2.4043
L32.2845 2.4043
" />
<path d="M32.2845 2.4043
L32.1635 2.3438
" />
<path d="M32.1635 2.3438
L32.1030 2.2833
" />
<path d="M32.1030 2.2833
L32.0426 2.1624
" />
<path d="M32.0426 2.1624
L31.9821 1.9205
" />
<path d="M31.9821 1.9205
L31.9821 1.6181
" />
<path d="M31.9821 1.6181
L32.0426 1.3762
" />
<path d="M32.0426 1.3762
L32.1030 1.2552
" />
<path d="M32.1030 1.2552
L32.1635 1.1947
" />
<path d="M32.1635 1.1947
L32.2845 1.1343
" />
<path d="M33.1916 1.2552
L33.2521 1.1947
" />
<path d="M33.2521 1.1947
L33.3730 1.1343
" />
<path d="M33.3730 1.1343
L33.6754 1.1343
" />
<path d="M33.6754 1.1343
L33.7964 1.1947
" />
<path d="M33.7964 1.1947
L33.8568 1.2552
" />
<path d="M33.8568 1.2552
L33.9173 1.3762
" />
<path d="M33.9173 1.3762
L33.9173 1.4971
" />
<path d="M33.9173 1.4971
L33.8568 1.6786
" />
<path d="M33.8568 1.6786
L33.1311 2.4043
" />
<path d="M33.1311 2.4043
L33.9173 2.4043
" />
<path d="M35.1873 2.2833
L35.1268 2.3438
" />
<path d="M35.1268 2.3438
L34.9454 2.4043
" />
<path d="M34.9454 2.4043
L34.8245 2.4043
" />
<path d="M34.8245 2.4043
L34.6430 2.3438
" />
<path d="M34.6430 2.3438
L34.5221 2.2228
" />
<path d="M34.5221 2.2228
L34.4616 2.1019
" />
<path d="M34.4616 2.1019
L34.4011 1.8600
" />
<path d="M34.4011 1.8600
L34.4011 1.6786
" />
<path d="M34.4011 1.6786
L34.4616 1.4367
" />
<path d="M34.4616 1.4367
L34.5221 1.3157
" />
<path d="M34.5221 1.3157
L34.6430 1.1947
" />
<path d="M34.6430 1.1947
L34.8245 1.1343
" />
<path d="M34.8245 1.1343
L34.9454 1.1343
" />
<path d="M34.9454 1.1343
L35.1268 1.1947
" />
<path d="M35.1268 1.1947
L35.1873 1.2552
" />
<path d="M35.7316 1.7390
L36.1549 1.7390
" />
<path d="M36.3364 2.4043
L35.7316 2.4043
" />
<path d="M35.7316 2.4043
L35.7316 1.1343
" />
<path d="M35.7316 1.1343
L36.3364 1.1343
" />
<path d="M36.8806 1.9205
L37.8483 1.9205
" />
<path d="M38.9973 1.5576
L38.9973 2.4043
" />
<path d="M38.6949 1.0738
L38.3926 1.9809
" />
<path d="M38.3926 1.9809
L39.1787 1.9809
" />
<path d="M39.6626 2.4043
L39.6626 1.1343
" />
<path d="M39.6626 1.1343
L40.1464 1.1343
" />
<path d="M40.1464 1.1343
L40.2673 1.1947
" />
<path d="M40.2673 1.1947
L40.3278 1.2552
" />
<path d="M40.3278 1.2552
L40.3883 1.3762
" />
<path d="M40.3883 1.3762
L40.3883 1.5576
" />
<path d="M40.3883 1.5576
L40.3278 1.6786
" />
<path d="M40.3278 1.6786
L40.2673 1.7390
" />
<path d="M40.2673 1.7390
L40.1464 1.7995
" />
<path d="M40.1464 1.7995
L39.6626 1.7995
" />
<path d="M40.9326 2.4043
L40.9326 1.5576
" />
<path d="M40.9326 1.1343
L40.8721 1.1947
" />
<path d="M40.8721 1.1947
L40.9326 1.2552
" />
<path d="M40.9326 1.2552
L40.9930 1.1947
" />
<path d="M40.9930 1.1947
L40.9326 1.1343
" />
<path d="M40.9326 1.1343
L40.9326 1.2552
" />
<path d="M41.5373 1.5576
L41.5373 2.4043
" />
<path d="M41.5373 1.6786
L41.5978 1.6181
" />
<path d="M41.5978 1.6181
L41.7187 1.5576
" />
<path d="M41.7187 1.5576
L41.9002 1.5576
" />
<path d="M41.9002 1.5576
L42.0211 1.6181
" />
<path d="M42.0211 1.6181
L42.0816 1.7390
" />
<path d="M42.0816 1.7390
L42.0816 2.4043
" />
<path d="M42.3840 2.5252
L43.3516 2.5252
" />
<path d="M43.5330 1.1343
L44.3192 1.1343
" />
<path d="M44.3192 1.1343
L43.8959 1.6181
" />
<path d="M43.8959 1.6181
L44.0773 1.6181
" />
<path d="M44.0773 1.6181
L44.1983 1.6786
" />
<path d="M44.1983 1.6786
L44.2587 1.7390
" />
<path d="M44.2587 1.7390
L44.3192 1.8600
" />
<path d="M44.3192 1.8600
L44.3192 2.1624
" />
<path d="M44.3192 2.1624
L44.2587 2.2833
" />
<path d="M44.2587 2.2833
L44.1983 2.3438
" />
<path d="M44.1983 2.3438
L44.0773 2.4043
" />
<path d="M44.0773 2.4043
L43.7145 2.4043
" />
<path d="M43.7145 2.4043
L43.5935 2.3438
" />
<path d="M43.5935 2.3438
L43.5330 2.2833
" />
<path d="M44.8635 2.2833
L44.9240 2.3438
" />
<path d="M44.9240 2.3438
L44.8635 2.4043
" />
<path d="M44.8635 2.4043
L44.8030 2.3438
" />
<path d="M44.8030 2.3438
L44.8635 2.2833
" />
<path d="M44.8635 2.2833
L44.8635 2.4043
" />
<path d="M45.4078 1.2552
L45.4683 1.1947
" />
<path d="M45.4683 1.1947
L45.5892 1.1343
" />
<path d="M45.5892 1.1343
L45.8916 1.1343
" />
<path d="M45.8916 1.1343
L46.0126 1.1947
" />
<path d="M46.0126 1.1947
L46.0730 1.2552
" />
<path d="M46.0730 1.2552
L46.1335 1.3762
" />
<path d="M46.1335 1.3762
L46.1335 1.4971
" />
<path d="M46.1335 1.4971
L46.0730 1.6786
" />
<path d="M46.0730 1.6786
L45.3473 2.4043
" />
<path d="M45.3473 2.4043
L46.1335 2.4043
" />
<path d="M46.5568 2.4043
L47.2221 1.5576
" />
<path d="M46.5568 1.5576
L47.2221 2.4043
" />
<path d="M47.6454 1.2552
L47.7059 1.1947
" />
<path d="M47.7059 1.1947
L47.8268 1.1343
" />
<path d="M47.8268 1.1343
L48.1292 1.1343
" />
<path d="M48.1292 1.1343
L48.2502 1.1947
" />
<path d="M48.2502 1.1947
L48.3107 1.2552
" />
<path d="M48.3107 1.2552
L48.3711 1.3762
" />
<path d="M48.3711 1.3762
L48.3711 1.4971
" />
<path d="M48.3711 1.4971
L48.3107 1.6786
" />
<path d="M48.3107 1.6786
L47.5849 2.4043
" />
<path d="M47.5849 2.4043
L48.3711 2.4043
" />
<path d="M48.9154 2.2833
L48.9759 2.3438
" />
<path d="M48.9759 2.3438
L48.9154 2.4043
" />
<path d="M48.9154 2.4043
L48.8549 2.3438
" />
<path d="M48.8549 2.3438
L48.9154 2.2833
" />
<path d="M48.9154 2.2833
L48.9154 2.4043
" />
<path d="M50.1249 1.1343
L49.5202 1.1343
" />
<path d="M49.5202 1.1343
L49.4597 1.7390
" />
<path d="M49.4597 1.7390
L49.5202 1.6786
" />
<path d="M49.5202 1.6786
L49.6411 1.6181
" />
<path d="M49.6411 1.6181
L49.9435 1.6181
" />
<path d="M49.9435 1.6181
L50.0645 1.6786
" />
<path d="M50.0645 1.6786
L50.1249 1.7390
" />
<path d="M50.1249 1.7390
L50.1854 1.8600
" />
<path d="M50.1854 1.8600
L50.1854 2.1624
" />
<path d="M50.1854 2.1624
L50.1249 2.2833
" />
<path d="M50.1249 2.2833
L50.0645 2.3438
" />
<path d="M50.0645 2.3438
L49.9435 2.4043
" />
<path d="M49.9435 2.4043
L49.6411 2.4043
" />
<path d="M49.6411 2.4043
L49.5202 2.3438
" />
<path d="M49.5202 2.3438
L49.4597 2.2833
" />
<path d="M50.7297 2.4043
L50.7297 1.5576
" />
<path d="M50.7297 1.6786
L50.7902 1.6181
" />
<path d="M50.7902 1.6181
L50.9111 1.5576
" />
<path d="M50.9111 1.5576
L51.0926 1.5576
" />
<path d="M51.0926 1.5576
L51.2135 1.6181
" />
<path d="M51.2135 1.6181
L51.2740 1.7390
" />
<path d="M51.2740 1.7390
L51.2740 2.4043
" />
<path d="M51.2740 1.7390
L51.3345 1.6181
" />
<path d="M51.3345 1.6181
L51.4554 1.5576
" />
<path d="M51.4554 1.5576
L51.6368 1.5576
" />
<path d="M51.6368 1.5576
L51.7578 1.6181
" />
<path d="M51.7578 1.6181
L51.8183 1.7390
" />
<path d="M51.8183 1.7390
L51.8183 2.4043
" />
<path d="M52.4230 2.4043
L52.4230 1.5576
" />
<path d="M52.4230 1.6786
L52.4835 1.6181
" />
<path d="M52.4835 1.6181
L52.6045 1.5576
" />
<path d="M52.6045 1.5576
L52.7859 1.5576
" />
<path d="M52.7859 1.5576
L52.9068 1.6181
" />
<path d="M52.9068 1.6181
L52.9673 1.7390
" />
<path d="M52.9673 1.7390
L52.9673 2.4043
" />
<path d="M52.9673 1.7390
L53.0278 1.6181
" />
<path d="M53.0278 1.6181
L53.1487 1.5576
" />
<path d="M53.1487 1.5576
L53.3302 1.5576
" />
<path d="M53.3302 1.5576
L53.4511 1.6181
" />
<path d="M53.4511 1.6181
L53.5116 1.7390
" />
<path d="M53.5116 1.7390
L53.5116 2.4043
" />
</g></g>
<g style="fill:none; 
stroke:#AFAFAF; stroke-width:0.1050; stroke-opacity:1; 
stroke-linecap:round; stroke-linejoin:round;">
<text x="26.9626" y="2.1750"
textLength="3.1750" font-size="0.9333" lengthAdjust="spacingAndGlyphs"
text-anchor="middle" opacity="0">REF**</text>
<g class="stroked-text"><desc>REF**</desc>
<path d="M26.0292 2.1434
L25.7959 1.8100
" />
<path d="M25.6292 2.1434
L25.6292 1.4434
" />
<path d="M25.6292 1.4434
L25.8959 1.4434
" />
<path d="M25.8959 1.4434
L25.9626 1.4767
" />
<path d="M25.9626 1.4767
L25.9959 1.5100
" />
<path d="M25.9959 1.5100
L26.0292 1.5767
" />
<path d="M26.0292 1.5767
L26.0292 1.6767
" />
<path d="M26.0292 1.6767
L25.9959 1.7434
" />
<path d="M25.9959 1.7434
L25.9626 1.7767
" />
<path d="M25.9626 1.7767
L25.8959 1.8100
" />
<path d="M25.8959 1.8100
L25.6292 1.8100
" />
<path d="M26.3292 1.7767
L26.5626 1.7767
" />
<path d="M26.6626 2.1434
L26.3292 2.1434
" />
<path d="M26.3292 2.1434
L26.3292 1.4434
" />
<path d="M26.3292 1.4434
L26.6626 1.4434
" />
<path d="M27.1959 1.7767
L26.9626 1.7767
" />
<path d="M26.9626 2.1434
L26.9626 1.4434
" />
<path d="M26.9626 1.4434
L27.2959 1.4434
" />
<path d="M27.6626 1.4434
L27.6626 1.6100
" />
<path d="M27.4959 1.5434
L27.6626 1.6100
" />
<path d="M27.6626 1.6100
L27.8292 1.5434
" />
<path d="M27.5626 1.7434
L27.6626 1.6100
" />
<path d="M27.6626 1.6100
L27.7626 1.7434
" />
<path d="M28.1959 1.4434
L28.1959 1.6100
" />
<path d="M28.0292 1.5434
L28.1959 1.6100
" />
<path d="M28.1959 1.6100
L28.3626 1.5434
" />
<path d="M28.0959 1.7434
L28.1959 1.6100
" />
<path d="M28.1959 1.6100
L28.2959 1.7434
" />
</g></g>
<g style="fill:none; 
stroke:#AFAFAF; stroke-width:0.1000; stroke-opacity:1; 
stroke-linecap:round; stroke-linejoin:round;">
<path d="M25.3626 0.6750
L25.4626 0.5750
" />
<path d="M25.3626 2.0750
L26.3626 3.0750
" />
<path d="M25.3626 2.9750
L25.3626 0.6750
" />
<path d="M25.4626 0.5750
L28.4626 0.5750
" />
<path d="M25.4626 3.0750
L25.3626 2.9750
" />
<path d="M28.4626 0.5750
L28.5626 0.6750
" />
<path d="M28.4626 3.0750
L25.4626 3.0750
" />
<path d="M28.5626 0.6750
L28.5626 2.9750
" />
<path d="M28.5626 2.9750
L28.4626 3.0750
" />
</g> 
</svg>
