<?xml version="1.0" standalone="no"?>
 <!DOCTYPE svg PUBLIC "-//W3C//DTD SVG 1.1//EN" 
 "http://www.w3.org/Graphics/SVG/1.1/DTD/svg11.dtd"> 
<svg
  xmlns:svg="http://www.w3.org/2000/svg"
  xmlns="http://www.w3.org/2000/svg"
  xmlns:xlink="http://www.w3.org/1999/xlink"
  version="1.1"
  width="34.6710mm" height="23.5458mm" viewBox="0.0000 0.0000 34.6710 23.5458">
<title>SVG Image created as working-brd.svg date 2024/04/21 10:46:42 </title>
  <desc>Image generated by PCBNEW </desc>
<g style="fill:#000000; fill-opacity:1.0000;stroke:#000000; stroke-opacity:1.0000;
stroke-linecap:round; stroke-linejoin:round;"
 transform="translate(0 0) scale(1 1)">
</g>
<g style="fill:#FFFFFF; fill-opacity:1.0000; stroke:none;">
<circle cx="17.3468" cy="1.6250" r="0.4000" /> 
</g>
<g style="fill:#FFFFFF; fill-opacity:1.0000; stroke:none;">
<circle cx="17.3468" cy="4.1650" r="0.4000" /> 
</g>
<g style="fill:#FFFFFF; fill-opacity:1.0000; stroke:none;">
<circle cx="17.3468" cy="6.7050" r="0.4000" /> 
</g>
<g style="fill:#FFFFFF; fill-opacity:1.0000; stroke:none;">
<circle cx="17.3468" cy="9.2450" r="0.4000" /> 
</g>
<g style="fill:#FFFFFF; fill-opacity:1.0000; stroke:none;">
<circle cx="17.3468" cy="11.7850" r="0.4000" /> 
</g>
<g style="fill:#FFFFFF; fill-opacity:1.0000; stroke:none;">
<circle cx="17.3468" cy="14.3250" r="0.4000" /> 
</g>
<g style="fill:#FFFFFF; fill-opacity:1.0000; stroke:none;">
<circle cx="17.3468" cy="16.8650" r="0.4000" /> 
</g>
<g style="fill:#FFFFFF; fill-opacity:1.0000; stroke:none;">
<circle cx="17.3468" cy="19.4050" r="0.4000" /> 
</g>
<g style="fill:#FFFFFF; fill-opacity:1.0000; stroke:none;">
<circle cx="17.3468" cy="21.9450" r="0.4000" /> 
</g>
<g style="fill:#FFFFFF; fill-opacity:1.0000; stroke:none;">
<circle cx="24.9668" cy="21.9450" r="0.4000" /> 
</g>
<g style="fill:#FFFFFF; fill-opacity:1.0000; stroke:none;">
<circle cx="24.9668" cy="19.4050" r="0.4000" /> 
</g>
<g style="fill:#FFFFFF; fill-opacity:1.0000; stroke:none;">
<circle cx="24.9668" cy="16.8650" r="0.4000" /> 
</g>
<g style="fill:#FFFFFF; fill-opacity:1.0000; stroke:none;">
<circle cx="24.9668" cy="14.3250" r="0.4000" /> 
</g>
<g style="fill:#FFFFFF; fill-opacity:1.0000; stroke:none;">
<circle cx="24.9668" cy="11.7850" r="0.4000" /> 
</g>
<g style="fill:#FFFFFF; fill-opacity:1.0000; stroke:none;">
<circle cx="24.9668" cy="9.2450" r="0.4000" /> 
</g>
<g style="fill:#FFFFFF; fill-opacity:1.0000; stroke:none;">
<circle cx="24.9668" cy="6.7050" r="0.4000" /> 
</g>
<g style="fill:#FFFFFF; fill-opacity:1.0000; stroke:none;">
<circle cx="24.9668" cy="4.1650" r="0.4000" /> 
</g>
<g style="fill:#FFFFFF; fill-opacity:1.0000; stroke:none;">
<circle cx="24.9668" cy="1.6250" r="0.4000" /> 
<path style="fill:#02FFEE; fill-opacity:0.4000; stroke:none;fill-rule:evenodd;"
d="M 16.1468,2.4250
16.1468,0.8250
18.5468,0.8250
18.5468,2.4250
Z" /> 
</g>
<g style="fill:none; 
stroke:#02FFEE; stroke-width:1.6000; stroke-opacity:1; 
stroke-linecap:round; stroke-linejoin:round;">
<path d="M16.9468 4.1650
L17.7468 4.1650
" />
<path d="M16.9468 6.7050
L17.7468 6.7050
" />
<path d="M16.9468 9.2450
L17.7468 9.2450
" />
<path d="M16.9468 11.7850
L17.7468 11.7850
" />
<path d="M16.9468 14.3250
L17.7468 14.3250
" />
<path d="M16.9468 16.8650
L17.7468 16.8650
" />
<path d="M16.9468 19.4050
L17.7468 19.4050
" />
<path d="M16.9468 21.9450
L17.7468 21.9450
" />
<path d="M24.5668 21.9450
L25.3668 21.9450
" />
<path d="M24.5668 19.4050
L25.3668 19.4050
" />
<path d="M24.5668 16.8650
L25.3668 16.8650
" />
<path d="M24.5668 14.3250
L25.3668 14.3250
" />
<path d="M24.5668 11.7850
L25.3668 11.7850
" />
<path d="M24.5668 9.2450
L25.3668 9.2450
" />
<path d="M24.5668 6.7050
L25.3668 6.7050
" />
<path d="M24.5668 4.1650
L25.3668 4.1650
" />
<path d="M24.5668 1.6250
L25.3668 1.6250
" />
</g>
<g style="fill:#FFFFFF; fill-opacity:1.0000; stroke:none;">
<circle cx="17.3468" cy="1.6250" r="0.4000" /> 
</g>
<g style="fill:#FFFFFF; fill-opacity:1.0000; stroke:none;">
<circle cx="17.3468" cy="4.1650" r="0.4000" /> 
</g>
<g style="fill:#FFFFFF; fill-opacity:1.0000; stroke:none;">
<circle cx="17.3468" cy="6.7050" r="0.4000" /> 
</g>
<g style="fill:#FFFFFF; fill-opacity:1.0000; stroke:none;">
<circle cx="17.3468" cy="9.2450" r="0.4000" /> 
</g>
<g style="fill:#FFFFFF; fill-opacity:1.0000; stroke:none;">
<circle cx="17.3468" cy="11.7850" r="0.4000" /> 
</g>
<g style="fill:#FFFFFF; fill-opacity:1.0000; stroke:none;">
<circle cx="17.3468" cy="14.3250" r="0.4000" /> 
</g>
<g style="fill:#FFFFFF; fill-opacity:1.0000; stroke:none;">
<circle cx="17.3468" cy="16.8650" r="0.4000" /> 
</g>
<g style="fill:#FFFFFF; fill-opacity:1.0000; stroke:none;">
<circle cx="17.3468" cy="19.4050" r="0.4000" /> 
</g>
<g style="fill:#FFFFFF; fill-opacity:1.0000; stroke:none;">
<circle cx="17.3468" cy="21.9450" r="0.4000" /> 
</g>
<g style="fill:#FFFFFF; fill-opacity:1.0000; stroke:none;">
<circle cx="24.9668" cy="21.9450" r="0.4000" /> 
</g>
<g style="fill:#FFFFFF; fill-opacity:1.0000; stroke:none;">
<circle cx="24.9668" cy="19.4050" r="0.4000" /> 
</g>
<g style="fill:#FFFFFF; fill-opacity:1.0000; stroke:none;">
<circle cx="24.9668" cy="16.8650" r="0.4000" /> 
</g>
<g style="fill:#FFFFFF; fill-opacity:1.0000; stroke:none;">
<circle cx="24.9668" cy="14.3250" r="0.4000" /> 
</g>
<g style="fill:#FFFFFF; fill-opacity:1.0000; stroke:none;">
<circle cx="24.9668" cy="11.7850" r="0.4000" /> 
</g>
<g style="fill:#FFFFFF; fill-opacity:1.0000; stroke:none;">
<circle cx="24.9668" cy="9.2450" r="0.4000" /> 
</g>
<g style="fill:#FFFFFF; fill-opacity:1.0000; stroke:none;">
<circle cx="24.9668" cy="6.7050" r="0.4000" /> 
</g>
<g style="fill:#FFFFFF; fill-opacity:1.0000; stroke:none;">
<circle cx="24.9668" cy="4.1650" r="0.4000" /> 
</g>
<g style="fill:#FFFFFF; fill-opacity:1.0000; stroke:none;">
<circle cx="24.9668" cy="1.6250" r="0.4000" /> 
</g>
<g style="fill:#FFFFFF; fill-opacity:1.0000; stroke:none;">
<circle cx="17.3468" cy="1.6250" r="0.4000" /> 
</g>
<g style="fill:#FFFFFF; fill-opacity:1.0000; stroke:none;">
<circle cx="17.3468" cy="4.1650" r="0.4000" /> 
</g>
<g style="fill:#FFFFFF; fill-opacity:1.0000; stroke:none;">
<circle cx="17.3468" cy="6.7050" r="0.4000" /> 
</g>
<g style="fill:#FFFFFF; fill-opacity:1.0000; stroke:none;">
<circle cx="17.3468" cy="9.2450" r="0.4000" /> 
</g>
<g style="fill:#FFFFFF; fill-opacity:1.0000; stroke:none;">
<circle cx="17.3468" cy="11.7850" r="0.4000" /> 
</g>
<g style="fill:#FFFFFF; fill-opacity:1.0000; stroke:none;">
<circle cx="17.3468" cy="14.3250" r="0.4000" /> 
</g>
<g style="fill:#FFFFFF; fill-opacity:1.0000; stroke:none;">
<circle cx="17.3468" cy="16.8650" r="0.4000" /> 
</g>
<g style="fill:#FFFFFF; fill-opacity:1.0000; stroke:none;">
<circle cx="17.3468" cy="19.4050" r="0.4000" /> 
</g>
<g style="fill:#FFFFFF; fill-opacity:1.0000; stroke:none;">
<circle cx="17.3468" cy="21.9450" r="0.4000" /> 
</g>
<g style="fill:#FFFFFF; fill-opacity:1.0000; stroke:none;">
<circle cx="24.9668" cy="21.9450" r="0.4000" /> 
</g>
<g style="fill:#FFFFFF; fill-opacity:1.0000; stroke:none;">
<circle cx="24.9668" cy="19.4050" r="0.4000" /> 
</g>
<g style="fill:#FFFFFF; fill-opacity:1.0000; stroke:none;">
<circle cx="24.9668" cy="16.8650" r="0.4000" /> 
</g>
<g style="fill:#FFFFFF; fill-opacity:1.0000; stroke:none;">
<circle cx="24.9668" cy="14.3250" r="0.4000" /> 
</g>
<g style="fill:#FFFFFF; fill-opacity:1.0000; stroke:none;">
<circle cx="24.9668" cy="11.7850" r="0.4000" /> 
</g>
<g style="fill:#FFFFFF; fill-opacity:1.0000; stroke:none;">
<circle cx="24.9668" cy="9.2450" r="0.4000" /> 
</g>
<g style="fill:#FFFFFF; fill-opacity:1.0000; stroke:none;">
<circle cx="24.9668" cy="6.7050" r="0.4000" /> 
</g>
<g style="fill:#FFFFFF; fill-opacity:1.0000; stroke:none;">
<circle cx="24.9668" cy="4.1650" r="0.4000" /> 
</g>
<g style="fill:#FFFFFF; fill-opacity:1.0000; stroke:none;">
<circle cx="24.9668" cy="1.6250" r="0.4000" /> 
<path style="fill:#D864FF; fill-opacity:0.4000; stroke:none;fill-rule:evenodd;"
d="M 16.1468,2.4250
16.1468,0.8250
18.5468,0.8250
18.5468,2.4250
Z" /> 
</g>
<g style="fill:none; 
stroke:#D864FF; stroke-width:1.6000; stroke-opacity:1; 
stroke-linecap:round; stroke-linejoin:round;">
<path d="M16.9468 4.1650
L17.7468 4.1650
" />
<path d="M16.9468 6.7050
L17.7468 6.7050
" />
<path d="M16.9468 9.2450
L17.7468 9.2450
" />
<path d="M16.9468 11.7850
L17.7468 11.7850
" />
<path d="M16.9468 14.3250
L17.7468 14.3250
" />
<path d="M16.9468 16.8650
L17.7468 16.8650
" />
<path d="M16.9468 19.4050
L17.7468 19.4050
" />
<path d="M16.9468 21.9450
L17.7468 21.9450
" />
<path d="M24.5668 21.9450
L25.3668 21.9450
" />
<path d="M24.5668 19.4050
L25.3668 19.4050
" />
<path d="M24.5668 16.8650
L25.3668 16.8650
" />
<path d="M24.5668 14.3250
L25.3668 14.3250
" />
<path d="M24.5668 11.7850
L25.3668 11.7850
" />
<path d="M24.5668 9.2450
L25.3668 9.2450
" />
<path d="M24.5668 6.7050
L25.3668 6.7050
" />
<path d="M24.5668 4.1650
L25.3668 4.1650
" />
<path d="M24.5668 1.6250
L25.3668 1.6250
" />
</g>
<g style="fill:none; 
stroke:#F2EDA1; stroke-width:0.1588; stroke-opacity:1; 
stroke-linecap:round; stroke-linejoin:round;">
<text x="17.3468" y="2.2600"
textLength="5.6651" font-size="1.6933" lengthAdjust="spacingAndGlyphs"
text-anchor="middle" opacity="0">REF**</text>
<g class="stroked-text"><desc>REF**</desc>
<path d="M15.6535 2.2043
L15.2302 1.5995
" />
<path d="M14.9278 2.2043
L14.9278 0.9343
" />
<path d="M14.9278 0.9343
L15.4116 0.9343
" />
<path d="M15.4116 0.9343
L15.5326 0.9947
" />
<path d="M15.5326 0.9947
L15.5930 1.0552
" />
<path d="M15.5930 1.0552
L15.6535 1.1762
" />
<path d="M15.6535 1.1762
L15.6535 1.3576
" />
<path d="M15.6535 1.3576
L15.5930 1.4786
" />
<path d="M15.5930 1.4786
L15.5326 1.5390
" />
<path d="M15.5326 1.5390
L15.4116 1.5995
" />
<path d="M15.4116 1.5995
L14.9278 1.5995
" />
<path d="M16.1978 1.5390
L16.6211 1.5390
" />
<path d="M16.8026 2.2043
L16.1978 2.2043
" />
<path d="M16.1978 2.2043
L16.1978 0.9343
" />
<path d="M16.1978 0.9343
L16.8026 0.9343
" />
<path d="M17.7702 1.5390
L17.3468 1.5390
" />
<path d="M17.3468 2.2043
L17.3468 0.9343
" />
<path d="M17.3468 0.9343
L17.9516 0.9343
" />
<path d="M18.6168 0.9343
L18.6168 1.2367
" />
<path d="M18.3145 1.1157
L18.6168 1.2367
" />
<path d="M18.6168 1.2367
L18.9192 1.1157
" />
<path d="M18.4354 1.4786
L18.6168 1.2367
" />
<path d="M18.6168 1.2367
L18.7983 1.4786
" />
<path d="M19.5845 0.9343
L19.5845 1.2367
" />
<path d="M19.2821 1.1157
L19.5845 1.2367
" />
<path d="M19.5845 1.2367
L19.8868 1.1157
" />
<path d="M19.4030 1.4786
L19.5845 1.2367
" />
<path d="M19.5845 1.2367
L19.7659 1.4786
" />
</g></g>
<g style="fill:none; 
stroke:#F2EDA1; stroke-width:0.1200; stroke-opacity:1; 
stroke-linecap:round; stroke-linejoin:round;">
<path d="M15.9068 0.2350
L15.9068 23.3350
" />
<path d="M15.9068 23.3350
L26.4068 23.3350
" />
<path d="M18.9068 0.2950
L18.9068 23.2750
" />
<path d="M18.9068 23.2750
L23.4068 23.2750
" />
<path d="M20.1568 0.2950
L18.9068 0.2950
" />
<path d="M23.4068 0.2950
L22.1568 0.2950
" />
<path d="M23.4068 23.2750
L23.4068 0.2950
" />
<path d="M26.4068 0.2350
L15.9068 0.2350
" />
<path d="M26.4068 23.3350
L26.4068 0.2350
" />
<path d="M20.1568 0.2950 A1.0000 1.0000 0.0 0 0 22.1568 0.2950" />
</g>
<g style="fill:#FFFFFF; fill-opacity:1.0000; stroke:none;">
<circle cx="17.3468" cy="1.6250" r="0.4000" /> 
</g>
<g style="fill:#FFFFFF; fill-opacity:1.0000; stroke:none;">
<circle cx="17.3468" cy="4.1650" r="0.4000" /> 
</g>
<g style="fill:#FFFFFF; fill-opacity:1.0000; stroke:none;">
<circle cx="17.3468" cy="6.7050" r="0.4000" /> 
</g>
<g style="fill:#FFFFFF; fill-opacity:1.0000; stroke:none;">
<circle cx="17.3468" cy="9.2450" r="0.4000" /> 
</g>
<g style="fill:#FFFFFF; fill-opacity:1.0000; stroke:none;">
<circle cx="17.3468" cy="11.7850" r="0.4000" /> 
</g>
<g style="fill:#FFFFFF; fill-opacity:1.0000; stroke:none;">
<circle cx="17.3468" cy="14.3250" r="0.4000" /> 
</g>
<g style="fill:#FFFFFF; fill-opacity:1.0000; stroke:none;">
<circle cx="17.3468" cy="16.8650" r="0.4000" /> 
</g>
<g style="fill:#FFFFFF; fill-opacity:1.0000; stroke:none;">
<circle cx="17.3468" cy="19.4050" r="0.4000" /> 
</g>
<g style="fill:#FFFFFF; fill-opacity:1.0000; stroke:none;">
<circle cx="17.3468" cy="21.9450" r="0.4000" /> 
</g>
<g style="fill:#FFFFFF; fill-opacity:1.0000; stroke:none;">
<circle cx="24.9668" cy="21.9450" r="0.4000" /> 
</g>
<g style="fill:#FFFFFF; fill-opacity:1.0000; stroke:none;">
<circle cx="24.9668" cy="19.4050" r="0.4000" /> 
</g>
<g style="fill:#FFFFFF; fill-opacity:1.0000; stroke:none;">
<circle cx="24.9668" cy="16.8650" r="0.4000" /> 
</g>
<g style="fill:#FFFFFF; fill-opacity:1.0000; stroke:none;">
<circle cx="24.9668" cy="14.3250" r="0.4000" /> 
</g>
<g style="fill:#FFFFFF; fill-opacity:1.0000; stroke:none;">
<circle cx="24.9668" cy="11.7850" r="0.4000" /> 
</g>
<g style="fill:#FFFFFF; fill-opacity:1.0000; stroke:none;">
<circle cx="24.9668" cy="9.2450" r="0.4000" /> 
</g>
<g style="fill:#FFFFFF; fill-opacity:1.0000; stroke:none;">
<circle cx="24.9668" cy="6.7050" r="0.4000" /> 
</g>
<g style="fill:#FFFFFF; fill-opacity:1.0000; stroke:none;">
<circle cx="24.9668" cy="4.1650" r="0.4000" /> 
</g>
<g style="fill:#FFFFFF; fill-opacity:1.0000; stroke:none;">
<circle cx="24.9668" cy="1.6250" r="0.4000" /> 
</g>
<g style="fill:none; 
stroke:#FF26E2; stroke-width:0.0500; stroke-opacity:1; 
stroke-linecap:round; stroke-linejoin:round;">
<path d="M15.7968 0.0250
L15.7968 23.5250
" />
<path d="M15.7968 23.5250
L26.4968 23.5250
" />
<path d="M26.4968 0.0250
L15.7968 0.0250
" />
<path d="M26.4968 23.5250
L26.4968 0.0250
" />
</g>
<g style="fill:none; 
stroke:#AFAFAF; stroke-width:0.1588; stroke-opacity:1; 
stroke-linecap:round; stroke-linejoin:round;">
<text x="17.3468" y="2.2600"
textLength="34.6937" font-size="1.6933" lengthAdjust="spacingAndGlyphs"
text-anchor="middle" opacity="0">DIP-18_W7.62mm_Socket_LongPads</text>
<g class="stroked-text"><desc>DIP-18_W7.62mm_Socket_LongPads</desc>
<path d="M0.4135 2.2043
L0.4135 0.9343
" />
<path d="M0.4135 0.9343
L0.7159 0.9343
" />
<path d="M0.7159 0.9343
L0.8973 0.9947
" />
<path d="M0.8973 0.9947
L1.0183 1.1157
" />
<path d="M1.0183 1.1157
L1.0787 1.2367
" />
<path d="M1.0787 1.2367
L1.1392 1.4786
" />
<path d="M1.1392 1.4786
L1.1392 1.6600
" />
<path d="M1.1392 1.6600
L1.0787 1.9019
" />
<path d="M1.0787 1.9019
L1.0183 2.0228
" />
<path d="M1.0183 2.0228
L0.8973 2.1438
" />
<path d="M0.8973 2.1438
L0.7159 2.2043
" />
<path d="M0.7159 2.2043
L0.4135 2.2043
" />
<path d="M1.6835 2.2043
L1.6835 0.9343
" />
<path d="M2.2883 2.2043
L2.2883 0.9343
" />
<path d="M2.2883 0.9343
L2.7721 0.9343
" />
<path d="M2.7721 0.9343
L2.8930 0.9947
" />
<path d="M2.8930 0.9947
L2.9535 1.0552
" />
<path d="M2.9535 1.0552
L3.0140 1.1762
" />
<path d="M3.0140 1.1762
L3.0140 1.3576
" />
<path d="M3.0140 1.3576
L2.9535 1.4786
" />
<path d="M2.9535 1.4786
L2.8930 1.5390
" />
<path d="M2.8930 1.5390
L2.7721 1.5995
" />
<path d="M2.7721 1.5995
L2.2883 1.5995
" />
<path d="M3.5583 1.7205
L4.5259 1.7205
" />
<path d="M5.7959 2.2043
L5.0702 2.2043
" />
<path d="M5.4330 2.2043
L5.4330 0.9343
" />
<path d="M5.4330 0.9343
L5.3121 1.1157
" />
<path d="M5.3121 1.1157
L5.1911 1.2367
" />
<path d="M5.1911 1.2367
L5.0702 1.2971
" />
<path d="M6.5216 1.4786
L6.4006 1.4181
" />
<path d="M6.4006 1.4181
L6.3402 1.3576
" />
<path d="M6.3402 1.3576
L6.2797 1.2367
" />
<path d="M6.2797 1.2367
L6.2797 1.1762
" />
<path d="M6.2797 1.1762
L6.3402 1.0552
" />
<path d="M6.3402 1.0552
L6.4006 0.9947
" />
<path d="M6.4006 0.9947
L6.5216 0.9343
" />
<path d="M6.5216 0.9343
L6.7635 0.9343
" />
<path d="M6.7635 0.9343
L6.8845 0.9947
" />
<path d="M6.8845 0.9947
L6.9449 1.0552
" />
<path d="M6.9449 1.0552
L7.0054 1.1762
" />
<path d="M7.0054 1.1762
L7.0054 1.2367
" />
<path d="M7.0054 1.2367
L6.9449 1.3576
" />
<path d="M6.9449 1.3576
L6.8845 1.4181
" />
<path d="M6.8845 1.4181
L6.7635 1.4786
" />
<path d="M6.7635 1.4786
L6.5216 1.4786
" />
<path d="M6.5216 1.4786
L6.4006 1.5390
" />
<path d="M6.4006 1.5390
L6.3402 1.5995
" />
<path d="M6.3402 1.5995
L6.2797 1.7205
" />
<path d="M6.2797 1.7205
L6.2797 1.9624
" />
<path d="M6.2797 1.9624
L6.3402 2.0833
" />
<path d="M6.3402 2.0833
L6.4006 2.1438
" />
<path d="M6.4006 2.1438
L6.5216 2.2043
" />
<path d="M6.5216 2.2043
L6.7635 2.2043
" />
<path d="M6.7635 2.2043
L6.8845 2.1438
" />
<path d="M6.8845 2.1438
L6.9449 2.0833
" />
<path d="M6.9449 2.0833
L7.0054 1.9624
" />
<path d="M7.0054 1.9624
L7.0054 1.7205
" />
<path d="M7.0054 1.7205
L6.9449 1.5995
" />
<path d="M6.9449 1.5995
L6.8845 1.5390
" />
<path d="M6.8845 1.5390
L6.7635 1.4786
" />
<path d="M7.2473 2.3252
L8.2149 2.3252
" />
<path d="M8.3964 0.9343
L8.6987 2.2043
" />
<path d="M8.6987 2.2043
L8.9406 1.2971
" />
<path d="M8.9406 1.2971
L9.1826 2.2043
" />
<path d="M9.1826 2.2043
L9.4849 0.9343
" />
<path d="M9.8478 0.9343
L10.6945 0.9343
" />
<path d="M10.6945 0.9343
L10.1502 2.2043
" />
<path d="M11.1783 2.0833
L11.2387 2.1438
" />
<path d="M11.2387 2.1438
L11.1783 2.2043
" />
<path d="M11.1783 2.2043
L11.1178 2.1438
" />
<path d="M11.1178 2.1438
L11.1783 2.0833
" />
<path d="M11.1783 2.0833
L11.1783 2.2043
" />
<path d="M12.3273 0.9343
L12.0854 0.9343
" />
<path d="M12.0854 0.9343
L11.9645 0.9947
" />
<path d="M11.9645 0.9947
L11.9040 1.0552
" />
<path d="M11.9040 1.0552
L11.7830 1.2367
" />
<path d="M11.7830 1.2367
L11.7226 1.4786
" />
<path d="M11.7226 1.4786
L11.7226 1.9624
" />
<path d="M11.7226 1.9624
L11.7830 2.0833
" />
<path d="M11.7830 2.0833
L11.8435 2.1438
" />
<path d="M11.8435 2.1438
L11.9645 2.2043
" />
<path d="M11.9645 2.2043
L12.2064 2.2043
" />
<path d="M12.2064 2.2043
L12.3273 2.1438
" />
<path d="M12.3273 2.1438
L12.3878 2.0833
" />
<path d="M12.3878 2.0833
L12.4483 1.9624
" />
<path d="M12.4483 1.9624
L12.4483 1.6600
" />
<path d="M12.4483 1.6600
L12.3878 1.5390
" />
<path d="M12.3878 1.5390
L12.3273 1.4786
" />
<path d="M12.3273 1.4786
L12.2064 1.4181
" />
<path d="M12.2064 1.4181
L11.9645 1.4181
" />
<path d="M11.9645 1.4181
L11.8435 1.4786
" />
<path d="M11.8435 1.4786
L11.7830 1.5390
" />
<path d="M11.7830 1.5390
L11.7226 1.6600
" />
<path d="M12.9321 1.0552
L12.9926 0.9947
" />
<path d="M12.9926 0.9947
L13.1135 0.9343
" />
<path d="M13.1135 0.9343
L13.4159 0.9343
" />
<path d="M13.4159 0.9343
L13.5368 0.9947
" />
<path d="M13.5368 0.9947
L13.5973 1.0552
" />
<path d="M13.5973 1.0552
L13.6578 1.1762
" />
<path d="M13.6578 1.1762
L13.6578 1.2971
" />
<path d="M13.6578 1.2971
L13.5973 1.4786
" />
<path d="M13.5973 1.4786
L12.8716 2.2043
" />
<path d="M12.8716 2.2043
L13.6578 2.2043
" />
<path d="M14.2021 2.2043
L14.2021 1.3576
" />
<path d="M14.2021 1.4786
L14.2626 1.4181
" />
<path d="M14.2626 1.4181
L14.3835 1.3576
" />
<path d="M14.3835 1.3576
L14.5649 1.3576
" />
<path d="M14.5649 1.3576
L14.6859 1.4181
" />
<path d="M14.6859 1.4181
L14.7464 1.5390
" />
<path d="M14.7464 1.5390
L14.7464 2.2043
" />
<path d="M14.7464 1.5390
L14.8068 1.4181
" />
<path d="M14.8068 1.4181
L14.9278 1.3576
" />
<path d="M14.9278 1.3576
L15.1092 1.3576
" />
<path d="M15.1092 1.3576
L15.2302 1.4181
" />
<path d="M15.2302 1.4181
L15.2907 1.5390
" />
<path d="M15.2907 1.5390
L15.2907 2.2043
" />
<path d="M15.8954 2.2043
L15.8954 1.3576
" />
<path d="M15.8954 1.4786
L15.9559 1.4181
" />
<path d="M15.9559 1.4181
L16.0768 1.3576
" />
<path d="M16.0768 1.3576
L16.2583 1.3576
" />
<path d="M16.2583 1.3576
L16.3792 1.4181
" />
<path d="M16.3792 1.4181
L16.4397 1.5390
" />
<path d="M16.4397 1.5390
L16.4397 2.2043
" />
<path d="M16.4397 1.5390
L16.5002 1.4181
" />
<path d="M16.5002 1.4181
L16.6211 1.3576
" />
<path d="M16.6211 1.3576
L16.8026 1.3576
" />
<path d="M16.8026 1.3576
L16.9235 1.4181
" />
<path d="M16.9235 1.4181
L16.9840 1.5390
" />
<path d="M16.9840 1.5390
L16.9840 2.2043
" />
<path d="M17.2864 2.3252
L18.2540 2.3252
" />
<path d="M18.4959 2.1438
L18.6773 2.2043
" />
<path d="M18.6773 2.2043
L18.9797 2.2043
" />
<path d="M18.9797 2.2043
L19.1006 2.1438
" />
<path d="M19.1006 2.1438
L19.1611 2.0833
" />
<path d="M19.1611 2.0833
L19.2216 1.9624
" />
<path d="M19.2216 1.9624
L19.2216 1.8414
" />
<path d="M19.2216 1.8414
L19.1611 1.7205
" />
<path d="M19.1611 1.7205
L19.1006 1.6600
" />
<path d="M19.1006 1.6600
L18.9797 1.5995
" />
<path d="M18.9797 1.5995
L18.7378 1.5390
" />
<path d="M18.7378 1.5390
L18.6168 1.4786
" />
<path d="M18.6168 1.4786
L18.5564 1.4181
" />
<path d="M18.5564 1.4181
L18.4959 1.2971
" />
<path d="M18.4959 1.2971
L18.4959 1.1762
" />
<path d="M18.4959 1.1762
L18.5564 1.0552
" />
<path d="M18.5564 1.0552
L18.6168 0.9947
" />
<path d="M18.6168 0.9947
L18.7378 0.9343
" />
<path d="M18.7378 0.9343
L19.0402 0.9343
" />
<path d="M19.0402 0.9343
L19.2216 0.9947
" />
<path d="M19.9473 2.2043
L19.8264 2.1438
" />
<path d="M19.8264 2.1438
L19.7659 2.0833
" />
<path d="M19.7659 2.0833
L19.7054 1.9624
" />
<path d="M19.7054 1.9624
L19.7054 1.5995
" />
<path d="M19.7054 1.5995
L19.7659 1.4786
" />
<path d="M19.7659 1.4786
L19.8264 1.4181
" />
<path d="M19.8264 1.4181
L19.9473 1.3576
" />
<path d="M19.9473 1.3576
L20.1287 1.3576
" />
<path d="M20.1287 1.3576
L20.2497 1.4181
" />
<path d="M20.2497 1.4181
L20.3102 1.4786
" />
<path d="M20.3102 1.4786
L20.3706 1.5995
" />
<path d="M20.3706 1.5995
L20.3706 1.9624
" />
<path d="M20.3706 1.9624
L20.3102 2.0833
" />
<path d="M20.3102 2.0833
L20.2497 2.1438
" />
<path d="M20.2497 2.1438
L20.1287 2.2043
" />
<path d="M20.1287 2.2043
L19.9473 2.2043
" />
<path d="M21.4592 2.1438
L21.3383 2.2043
" />
<path d="M21.3383 2.2043
L21.0964 2.2043
" />
<path d="M21.0964 2.2043
L20.9754 2.1438
" />
<path d="M20.9754 2.1438
L20.9149 2.0833
" />
<path d="M20.9149 2.0833
L20.8545 1.9624
" />
<path d="M20.8545 1.9624
L20.8545 1.5995
" />
<path d="M20.8545 1.5995
L20.9149 1.4786
" />
<path d="M20.9149 1.4786
L20.9754 1.4181
" />
<path d="M20.9754 1.4181
L21.0964 1.3576
" />
<path d="M21.0964 1.3576
L21.3383 1.3576
" />
<path d="M21.3383 1.3576
L21.4592 1.4181
" />
<path d="M22.0035 2.2043
L22.0035 0.9343
" />
<path d="M22.1245 1.7205
L22.4873 2.2043
" />
<path d="M22.4873 1.3576
L22.0035 1.8414
" />
<path d="M23.5154 2.1438
L23.3945 2.2043
" />
<path d="M23.3945 2.2043
L23.1526 2.2043
" />
<path d="M23.1526 2.2043
L23.0316 2.1438
" />
<path d="M23.0316 2.1438
L22.9711 2.0228
" />
<path d="M22.9711 2.0228
L22.9711 1.5390
" />
<path d="M22.9711 1.5390
L23.0316 1.4181
" />
<path d="M23.0316 1.4181
L23.1526 1.3576
" />
<path d="M23.1526 1.3576
L23.3945 1.3576
" />
<path d="M23.3945 1.3576
L23.5154 1.4181
" />
<path d="M23.5154 1.4181
L23.5759 1.5390
" />
<path d="M23.5759 1.5390
L23.5759 1.6600
" />
<path d="M23.5759 1.6600
L22.9711 1.7809
" />
<path d="M23.9387 1.3576
L24.4226 1.3576
" />
<path d="M24.1202 0.9343
L24.1202 2.0228
" />
<path d="M24.1202 2.0228
L24.1806 2.1438
" />
<path d="M24.1806 2.1438
L24.3016 2.2043
" />
<path d="M24.3016 2.2043
L24.4226 2.2043
" />
<path d="M24.5435 2.3252
L25.5111 2.3252
" />
<path d="M26.4183 2.2043
L25.8135 2.2043
" />
<path d="M25.8135 2.2043
L25.8135 0.9343
" />
<path d="M27.0230 2.2043
L26.9021 2.1438
" />
<path d="M26.9021 2.1438
L26.8416 2.0833
" />
<path d="M26.8416 2.0833
L26.7811 1.9624
" />
<path d="M26.7811 1.9624
L26.7811 1.5995
" />
<path d="M26.7811 1.5995
L26.8416 1.4786
" />
<path d="M26.8416 1.4786
L26.9021 1.4181
" />
<path d="M26.9021 1.4181
L27.0230 1.3576
" />
<path d="M27.0230 1.3576
L27.2045 1.3576
" />
<path d="M27.2045 1.3576
L27.3254 1.4181
" />
<path d="M27.3254 1.4181
L27.3859 1.4786
" />
<path d="M27.3859 1.4786
L27.4464 1.5995
" />
<path d="M27.4464 1.5995
L27.4464 1.9624
" />
<path d="M27.4464 1.9624
L27.3859 2.0833
" />
<path d="M27.3859 2.0833
L27.3254 2.1438
" />
<path d="M27.3254 2.1438
L27.2045 2.2043
" />
<path d="M27.2045 2.2043
L27.0230 2.2043
" />
<path d="M27.9906 1.3576
L27.9906 2.2043
" />
<path d="M27.9906 1.4786
L28.0511 1.4181
" />
<path d="M28.0511 1.4181
L28.1721 1.3576
" />
<path d="M28.1721 1.3576
L28.3535 1.3576
" />
<path d="M28.3535 1.3576
L28.4745 1.4181
" />
<path d="M28.4745 1.4181
L28.5349 1.5390
" />
<path d="M28.5349 1.5390
L28.5349 2.2043
" />
<path d="M29.6840 1.3576
L29.6840 2.3857
" />
<path d="M29.6840 2.3857
L29.6235 2.5067
" />
<path d="M29.6235 2.5067
L29.5630 2.5671
" />
<path d="M29.5630 2.5671
L29.4421 2.6276
" />
<path d="M29.4421 2.6276
L29.2606 2.6276
" />
<path d="M29.2606 2.6276
L29.1397 2.5671
" />
<path d="M29.6840 2.1438
L29.5630 2.2043
" />
<path d="M29.5630 2.2043
L29.3211 2.2043
" />
<path d="M29.3211 2.2043
L29.2002 2.1438
" />
<path d="M29.2002 2.1438
L29.1397 2.0833
" />
<path d="M29.1397 2.0833
L29.0792 1.9624
" />
<path d="M29.0792 1.9624
L29.0792 1.5995
" />
<path d="M29.0792 1.5995
L29.1397 1.4786
" />
<path d="M29.1397 1.4786
L29.2002 1.4181
" />
<path d="M29.2002 1.4181
L29.3211 1.3576
" />
<path d="M29.3211 1.3576
L29.5630 1.3576
" />
<path d="M29.5630 1.3576
L29.6840 1.4181
" />
<path d="M30.2887 2.2043
L30.2887 0.9343
" />
<path d="M30.2887 0.9343
L30.7726 0.9343
" />
<path d="M30.7726 0.9343
L30.8935 0.9947
" />
<path d="M30.8935 0.9947
L30.9540 1.0552
" />
<path d="M30.9540 1.0552
L31.0145 1.1762
" />
<path d="M31.0145 1.1762
L31.0145 1.3576
" />
<path d="M31.0145 1.3576
L30.9540 1.4786
" />
<path d="M30.9540 1.4786
L30.8935 1.5390
" />
<path d="M30.8935 1.5390
L30.7726 1.5995
" />
<path d="M30.7726 1.5995
L30.2887 1.5995
" />
<path d="M32.1030 2.2043
L32.1030 1.5390
" />
<path d="M32.1030 1.5390
L32.0426 1.4181
" />
<path d="M32.0426 1.4181
L31.9216 1.3576
" />
<path d="M31.9216 1.3576
L31.6797 1.3576
" />
<path d="M31.6797 1.3576
L31.5587 1.4181
" />
<path d="M32.1030 2.1438
L31.9821 2.2043
" />
<path d="M31.9821 2.2043
L31.6797 2.2043
" />
<path d="M31.6797 2.2043
L31.5587 2.1438
" />
<path d="M31.5587 2.1438
L31.4983 2.0228
" />
<path d="M31.4983 2.0228
L31.4983 1.9019
" />
<path d="M31.4983 1.9019
L31.5587 1.7809
" />
<path d="M31.5587 1.7809
L31.6797 1.7205
" />
<path d="M31.6797 1.7205
L31.9821 1.7205
" />
<path d="M31.9821 1.7205
L32.1030 1.6600
" />
<path d="M33.2521 2.2043
L33.2521 0.9343
" />
<path d="M33.2521 2.1438
L33.1311 2.2043
" />
<path d="M33.1311 2.2043
L32.8892 2.2043
" />
<path d="M32.8892 2.2043
L32.7683 2.1438
" />
<path d="M32.7683 2.1438
L32.7078 2.0833
" />
<path d="M32.7078 2.0833
L32.6473 1.9624
" />
<path d="M32.6473 1.9624
L32.6473 1.5995
" />
<path d="M32.6473 1.5995
L32.7078 1.4786
" />
<path d="M32.7078 1.4786
L32.7683 1.4181
" />
<path d="M32.7683 1.4181
L32.8892 1.3576
" />
<path d="M32.8892 1.3576
L33.1311 1.3576
" />
<path d="M33.1311 1.3576
L33.2521 1.4181
" />
<path d="M33.7964 2.1438
L33.9173 2.2043
" />
<path d="M33.9173 2.2043
L34.1592 2.2043
" />
<path d="M34.1592 2.2043
L34.2802 2.1438
" />
<path d="M34.2802 2.1438
L34.3406 2.0228
" />
<path d="M34.3406 2.0228
L34.3406 1.9624
" />
<path d="M34.3406 1.9624
L34.2802 1.8414
" />
<path d="M34.2802 1.8414
L34.1592 1.7809
" />
<path d="M34.1592 1.7809
L33.9778 1.7809
" />
<path d="M33.9778 1.7809
L33.8568 1.7205
" />
<path d="M33.8568 1.7205
L33.7964 1.5995
" />
<path d="M33.7964 1.5995
L33.7964 1.5390
" />
<path d="M33.7964 1.5390
L33.8568 1.4181
" />
<path d="M33.8568 1.4181
L33.9778 1.3576
" />
<path d="M33.9778 1.3576
L34.1592 1.3576
" />
<path d="M34.1592 1.3576
L34.2802 1.4181
" />
</g></g>
<g style="fill:none; 
stroke:#AFAFAF; stroke-width:0.1500; stroke-opacity:1; 
stroke-linecap:round; stroke-linejoin:round;">
<text x="21.1568" y="12.2850"
textLength="4.5357" font-size="1.3333" lengthAdjust="spacingAndGlyphs"
text-anchor="middle" opacity="0">REF**</text>
<g class="stroked-text"><desc>REF**</desc>
<path d="M19.8235 12.2398
L19.4902 11.7636
" />
<path d="M19.2521 12.2398
L19.2521 11.2398
" />
<path d="M19.2521 11.2398
L19.6330 11.2398
" />
<path d="M19.6330 11.2398
L19.7283 11.2874
" />
<path d="M19.7283 11.2874
L19.7759 11.3351
" />
<path d="M19.7759 11.3351
L19.8235 11.4303
" />
<path d="M19.8235 11.4303
L19.8235 11.5732
" />
<path d="M19.8235 11.5732
L19.7759 11.6684
" />
<path d="M19.7759 11.6684
L19.7283 11.7160
" />
<path d="M19.7283 11.7160
L19.6330 11.7636
" />
<path d="M19.6330 11.7636
L19.2521 11.7636
" />
<path d="M20.2521 11.7160
L20.5854 11.7160
" />
<path d="M20.7283 12.2398
L20.2521 12.2398
" />
<path d="M20.2521 12.2398
L20.2521 11.2398
" />
<path d="M20.2521 11.2398
L20.7283 11.2398
" />
<path d="M21.4902 11.7160
L21.1568 11.7160
" />
<path d="M21.1568 12.2398
L21.1568 11.2398
" />
<path d="M21.1568 11.2398
L21.6330 11.2398
" />
<path d="M22.1568 11.2398
L22.1568 11.4779
" />
<path d="M21.9187 11.3827
L22.1568 11.4779
" />
<path d="M22.1568 11.4779
L22.3949 11.3827
" />
<path d="M22.0140 11.6684
L22.1568 11.4779
" />
<path d="M22.1568 11.4779
L22.2997 11.6684
" />
<path d="M22.9187 11.2398
L22.9187 11.4779
" />
<path d="M22.6806 11.3827
L22.9187 11.4779
" />
<path d="M22.9187 11.4779
L23.1568 11.3827
" />
<path d="M22.7759 11.6684
L22.9187 11.4779
" />
<path d="M22.9187 11.4779
L23.0616 11.6684
" />
</g></g>
<g style="fill:none; 
stroke:#AFAFAF; stroke-width:0.1000; stroke-opacity:1; 
stroke-linecap:round; stroke-linejoin:round;">
<path d="M16.0768 0.2950
L16.0768 23.2750
" />
<path d="M16.0768 23.2750
L26.2368 23.2750
" />
<path d="M17.9818 1.3550
L18.9818 0.3550
" />
<path d="M17.9818 23.2150
L17.9818 1.3550
" />
<path d="M18.9818 0.3550
L24.3318 0.3550
" />
<path d="M24.3318 0.3550
L24.3318 23.2150
" />
<path d="M24.3318 23.2150
L17.9818 23.2150
" />
<path d="M26.2368 0.2950
L16.0768 0.2950
" />
<path d="M26.2368 23.2750
L26.2368 0.2950
" />
</g> 
</svg>
