<?xml version="1.0" standalone="no"?>
 <!DOCTYPE svg PUBLIC "-//W3C//DTD SVG 1.1//EN" 
 "http://www.w3.org/Graphics/SVG/1.1/DTD/svg11.dtd"> 
<svg
  xmlns:svg="http://www.w3.org/2000/svg"
  xmlns="http://www.w3.org/2000/svg"
  xmlns:xlink="http://www.w3.org/1999/xlink"
  version="1.1"
  width="38.3794mm" height="4.5212mm" viewBox="0.0000 0.0000 38.3794 4.5212">
<title>SVG Image created as working-brd.svg date 2024/04/15 09:12:15 </title>
  <desc>Image generated by PCBNEW </desc>
<g style="fill:#000000; fill-opacity:1.0000;stroke:#000000; stroke-opacity:1.0000;
stroke-linecap:round; stroke-linejoin:round;"
 transform="translate(0 0) scale(1 1)">
<path style="fill:#C83434; fill-opacity:1.0000; stroke:none;fill-rule:evenodd;"
d="M 16.5414,1.5179
16.5414,1.0179
18.5414,1.0179
18.5414,1.5179
Z" /> 
<path style="fill:#C83434; fill-opacity:1.0000; stroke:none;fill-rule:evenodd;"
d="M 19.8414,1.5179
19.8414,1.0179
21.8414,1.0179
21.8414,1.5179
Z" /> 
<path style="fill:#C83434; fill-opacity:1.0000; stroke:none;fill-rule:evenodd;"
d="M 16.5414,2.5179
16.5414,2.0179
18.5414,2.0179
18.5414,2.5179
Z" /> 
<path style="fill:#C83434; fill-opacity:1.0000; stroke:none;fill-rule:evenodd;"
d="M 19.8414,2.5179
19.8414,2.0179
21.8414,2.0179
21.8414,2.5179
Z" /> 
<path style="fill:#C83434; fill-opacity:1.0000; stroke:none;fill-rule:evenodd;"
d="M 16.5414,3.5179
16.5414,3.0179
18.5414,3.0179
18.5414,3.5179
Z" /> 
<path style="fill:#C83434; fill-opacity:1.0000; stroke:none;fill-rule:evenodd;"
d="M 19.8414,3.5179
19.8414,3.0179
21.8414,3.0179
21.8414,3.5179
Z" /> 
<path style="fill:#D864FF; fill-opacity:0.4000; stroke:none;fill-rule:evenodd;"
d="M 16.5414,1.5179
16.5414,1.0179
18.5414,1.0179
18.5414,1.5179
Z" /> 
<path style="fill:#D864FF; fill-opacity:0.4000; stroke:none;fill-rule:evenodd;"
d="M 19.8414,1.5179
19.8414,1.0179
21.8414,1.0179
21.8414,1.5179
Z" /> 
<path style="fill:#D864FF; fill-opacity:0.4000; stroke:none;fill-rule:evenodd;"
d="M 16.5414,2.5179
16.5414,2.0179
18.5414,2.0179
18.5414,2.5179
Z" /> 
<path style="fill:#D864FF; fill-opacity:0.4000; stroke:none;fill-rule:evenodd;"
d="M 19.8414,2.5179
19.8414,2.0179
21.8414,2.0179
21.8414,2.5179
Z" /> 
<path style="fill:#D864FF; fill-opacity:0.4000; stroke:none;fill-rule:evenodd;"
d="M 16.5414,3.5179
16.5414,3.0179
18.5414,3.0179
18.5414,3.5179
Z" /> 
<path style="fill:#D864FF; fill-opacity:0.4000; stroke:none;fill-rule:evenodd;"
d="M 19.8414,3.5179
19.8414,3.0179
21.8414,3.0179
21.8414,3.5179
Z" /> 
<path style="fill:#B4A09A; fill-opacity:0.9000; stroke:none;fill-rule:evenodd;"
d="M 16.5414,1.5179
16.5414,1.0179
18.5414,1.0179
18.5414,1.5179
Z" /> 
<path style="fill:#B4A09A; fill-opacity:0.9000; stroke:none;fill-rule:evenodd;"
d="M 19.8414,1.5179
19.8414,1.0179
21.8414,1.0179
21.8414,1.5179
Z" /> 
<path style="fill:#B4A09A; fill-opacity:0.9000; stroke:none;fill-rule:evenodd;"
d="M 16.5414,2.5179
16.5414,2.0179
18.5414,2.0179
18.5414,2.5179
Z" /> 
<path style="fill:#B4A09A; fill-opacity:0.9000; stroke:none;fill-rule:evenodd;"
d="M 19.8414,2.5179
19.8414,2.0179
21.8414,2.0179
21.8414,2.5179
Z" /> 
<path style="fill:#B4A09A; fill-opacity:0.9000; stroke:none;fill-rule:evenodd;"
d="M 16.5414,3.5179
16.5414,3.0179
18.5414,3.0179
18.5414,3.5179
Z" /> 
<path style="fill:#B4A09A; fill-opacity:0.9000; stroke:none;fill-rule:evenodd;"
d="M 19.8414,3.5179
19.8414,3.0179
21.8414,3.0179
21.8414,3.5179
Z" /> 
</g>
<g style="fill:none; 
stroke:#F2EDA1; stroke-width:0.1588; stroke-opacity:1; 
stroke-linecap:round; stroke-linejoin:round;">
<text x="19.1914" y="2.9029"
textLength="5.6651" font-size="1.6933" lengthAdjust="spacingAndGlyphs"
text-anchor="middle" opacity="0">REF**</text>
<g class="stroked-text"><desc>REF**</desc>
<path d="M17.4980 2.8471
L17.0747 2.2424
" />
<path d="M16.7723 2.8471
L16.7723 1.5771
" />
<path d="M16.7723 1.5771
L17.2561 1.5771
" />
<path d="M17.2561 1.5771
L17.3771 1.6376
" />
<path d="M17.3771 1.6376
L17.4376 1.6981
" />
<path d="M17.4376 1.6981
L17.4980 1.8190
" />
<path d="M17.4980 1.8190
L17.4980 2.0005
" />
<path d="M17.4980 2.0005
L17.4376 2.1214
" />
<path d="M17.4376 2.1214
L17.3771 2.1819
" />
<path d="M17.3771 2.1819
L17.2561 2.2424
" />
<path d="M17.2561 2.2424
L16.7723 2.2424
" />
<path d="M18.0423 2.1819
L18.4656 2.1819
" />
<path d="M18.6471 2.8471
L18.0423 2.8471
" />
<path d="M18.0423 2.8471
L18.0423 1.5771
" />
<path d="M18.0423 1.5771
L18.6471 1.5771
" />
<path d="M19.6147 2.1819
L19.1914 2.1819
" />
<path d="M19.1914 2.8471
L19.1914 1.5771
" />
<path d="M19.1914 1.5771
L19.7961 1.5771
" />
<path d="M20.4614 1.5771
L20.4614 1.8795
" />
<path d="M20.1590 1.7586
L20.4614 1.8795
" />
<path d="M20.4614 1.8795
L20.7637 1.7586
" />
<path d="M20.2799 2.1214
L20.4614 1.8795
" />
<path d="M20.4614 1.8795
L20.6428 2.1214
" />
<path d="M21.4290 1.5771
L21.4290 1.8795
" />
<path d="M21.1266 1.7586
L21.4290 1.8795
" />
<path d="M21.4290 1.8795
L21.7314 1.7586
" />
<path d="M21.2476 2.1214
L21.4290 1.8795
" />
<path d="M21.4290 1.8795
L21.6104 2.1214
" />
</g></g>
<g style="fill:none; 
stroke:#F2EDA1; stroke-width:0.1200; stroke-opacity:1; 
stroke-linecap:round; stroke-linejoin:round;">
<path d="M16.6014 0.7579
L17.9814 0.7579
" />
<path d="M17.9814 0.7079
L17.9814 0.7579
" />
<path d="M17.9814 0.7079
L20.4014 0.7079
" />
<path d="M17.9814 3.7779
L17.9814 3.8279
" />
<path d="M17.9814 3.8279
L20.4014 3.8279
" />
<path d="M20.4014 0.7079
L20.4014 0.7579
" />
<path d="M20.4014 3.7779
L20.4014 3.8279
" />
</g>
<g style="fill:none; 
stroke:#FF26E2; stroke-width:0.0500; stroke-opacity:1; 
stroke-linecap:round; stroke-linejoin:round;">
<path d="M15.5414 0.2679
L15.5414 4.2679
" />
<path d="M15.5414 4.2679
L22.8414 4.2679
" />
<path d="M22.8414 0.2679
L15.5414 0.2679
" />
<path d="M22.8414 4.2679
L22.8414 0.2679
" />
</g>
<g style="fill:none; 
stroke:#AFAFAF; stroke-width:0.1588; stroke-opacity:1; 
stroke-linecap:round; stroke-linejoin:round;">
<text x="19.1914" y="2.9029"
textLength="38.3827" font-size="1.6933" lengthAdjust="spacingAndGlyphs"
text-anchor="middle" opacity="0">PinHeader_2x03_P1.00mm_Vertical_SMD</text>
<g class="stroked-text"><desc>PinHeader_2x03_P1.00mm_Vertical_SMD</desc>
<path d="M0.4135 2.8471
L0.4135 1.5771
" />
<path d="M0.4135 1.5771
L0.8973 1.5771
" />
<path d="M0.8973 1.5771
L1.0183 1.6376
" />
<path d="M1.0183 1.6376
L1.0787 1.6981
" />
<path d="M1.0787 1.6981
L1.1392 1.8190
" />
<path d="M1.1392 1.8190
L1.1392 2.0005
" />
<path d="M1.1392 2.0005
L1.0787 2.1214
" />
<path d="M1.0787 2.1214
L1.0183 2.1819
" />
<path d="M1.0183 2.1819
L0.8973 2.2424
" />
<path d="M0.8973 2.2424
L0.4135 2.2424
" />
<path d="M1.6835 2.8471
L1.6835 2.0005
" />
<path d="M1.6835 1.5771
L1.6230 1.6376
" />
<path d="M1.6230 1.6376
L1.6835 1.6981
" />
<path d="M1.6835 1.6981
L1.7440 1.6376
" />
<path d="M1.7440 1.6376
L1.6835 1.5771
" />
<path d="M1.6835 1.5771
L1.6835 1.6981
" />
<path d="M2.2883 2.0005
L2.2883 2.8471
" />
<path d="M2.2883 2.1214
L2.3487 2.0609
" />
<path d="M2.3487 2.0609
L2.4697 2.0005
" />
<path d="M2.4697 2.0005
L2.6511 2.0005
" />
<path d="M2.6511 2.0005
L2.7721 2.0609
" />
<path d="M2.7721 2.0609
L2.8326 2.1819
" />
<path d="M2.8326 2.1819
L2.8326 2.8471
" />
<path d="M3.4373 2.8471
L3.4373 1.5771
" />
<path d="M3.4373 2.1819
L4.1630 2.1819
" />
<path d="M4.1630 2.8471
L4.1630 1.5771
" />
<path d="M5.2516 2.7867
L5.1307 2.8471
" />
<path d="M5.1307 2.8471
L4.8887 2.8471
" />
<path d="M4.8887 2.8471
L4.7678 2.7867
" />
<path d="M4.7678 2.7867
L4.7073 2.6657
" />
<path d="M4.7073 2.6657
L4.7073 2.1819
" />
<path d="M4.7073 2.1819
L4.7678 2.0609
" />
<path d="M4.7678 2.0609
L4.8887 2.0005
" />
<path d="M4.8887 2.0005
L5.1307 2.0005
" />
<path d="M5.1307 2.0005
L5.2516 2.0609
" />
<path d="M5.2516 2.0609
L5.3121 2.1819
" />
<path d="M5.3121 2.1819
L5.3121 2.3028
" />
<path d="M5.3121 2.3028
L4.7073 2.4238
" />
<path d="M6.4006 2.8471
L6.4006 2.1819
" />
<path d="M6.4006 2.1819
L6.3402 2.0609
" />
<path d="M6.3402 2.0609
L6.2192 2.0005
" />
<path d="M6.2192 2.0005
L5.9773 2.0005
" />
<path d="M5.9773 2.0005
L5.8564 2.0609
" />
<path d="M6.4006 2.7867
L6.2797 2.8471
" />
<path d="M6.2797 2.8471
L5.9773 2.8471
" />
<path d="M5.9773 2.8471
L5.8564 2.7867
" />
<path d="M5.8564 2.7867
L5.7959 2.6657
" />
<path d="M5.7959 2.6657
L5.7959 2.5447
" />
<path d="M5.7959 2.5447
L5.8564 2.4238
" />
<path d="M5.8564 2.4238
L5.9773 2.3633
" />
<path d="M5.9773 2.3633
L6.2797 2.3633
" />
<path d="M6.2797 2.3633
L6.4006 2.3028
" />
<path d="M7.5497 2.8471
L7.5497 1.5771
" />
<path d="M7.5497 2.7867
L7.4287 2.8471
" />
<path d="M7.4287 2.8471
L7.1868 2.8471
" />
<path d="M7.1868 2.8471
L7.0659 2.7867
" />
<path d="M7.0659 2.7867
L7.0054 2.7262
" />
<path d="M7.0054 2.7262
L6.9449 2.6052
" />
<path d="M6.9449 2.6052
L6.9449 2.2424
" />
<path d="M6.9449 2.2424
L7.0054 2.1214
" />
<path d="M7.0054 2.1214
L7.0659 2.0609
" />
<path d="M7.0659 2.0609
L7.1868 2.0005
" />
<path d="M7.1868 2.0005
L7.4287 2.0005
" />
<path d="M7.4287 2.0005
L7.5497 2.0609
" />
<path d="M8.6383 2.7867
L8.5173 2.8471
" />
<path d="M8.5173 2.8471
L8.2754 2.8471
" />
<path d="M8.2754 2.8471
L8.1545 2.7867
" />
<path d="M8.1545 2.7867
L8.0940 2.6657
" />
<path d="M8.0940 2.6657
L8.0940 2.1819
" />
<path d="M8.0940 2.1819
L8.1545 2.0609
" />
<path d="M8.1545 2.0609
L8.2754 2.0005
" />
<path d="M8.2754 2.0005
L8.5173 2.0005
" />
<path d="M8.5173 2.0005
L8.6383 2.0609
" />
<path d="M8.6383 2.0609
L8.6987 2.1819
" />
<path d="M8.6987 2.1819
L8.6987 2.3028
" />
<path d="M8.6987 2.3028
L8.0940 2.4238
" />
<path d="M9.2430 2.8471
L9.2430 2.0005
" />
<path d="M9.2430 2.2424
L9.3035 2.1214
" />
<path d="M9.3035 2.1214
L9.3640 2.0609
" />
<path d="M9.3640 2.0609
L9.4849 2.0005
" />
<path d="M9.4849 2.0005
L9.6059 2.0005
" />
<path d="M9.7268 2.9681
L10.6945 2.9681
" />
<path d="M10.9364 1.6981
L10.9968 1.6376
" />
<path d="M10.9968 1.6376
L11.1178 1.5771
" />
<path d="M11.1178 1.5771
L11.4202 1.5771
" />
<path d="M11.4202 1.5771
L11.5411 1.6376
" />
<path d="M11.5411 1.6376
L11.6016 1.6981
" />
<path d="M11.6016 1.6981
L11.6621 1.8190
" />
<path d="M11.6621 1.8190
L11.6621 1.9400
" />
<path d="M11.6621 1.9400
L11.6016 2.1214
" />
<path d="M11.6016 2.1214
L10.8759 2.8471
" />
<path d="M10.8759 2.8471
L11.6621 2.8471
" />
<path d="M12.0854 2.8471
L12.7506 2.0005
" />
<path d="M12.0854 2.0005
L12.7506 2.8471
" />
<path d="M13.4764 1.5771
L13.5973 1.5771
" />
<path d="M13.5973 1.5771
L13.7183 1.6376
" />
<path d="M13.7183 1.6376
L13.7787 1.6981
" />
<path d="M13.7787 1.6981
L13.8392 1.8190
" />
<path d="M13.8392 1.8190
L13.8997 2.0609
" />
<path d="M13.8997 2.0609
L13.8997 2.3633
" />
<path d="M13.8997 2.3633
L13.8392 2.6052
" />
<path d="M13.8392 2.6052
L13.7787 2.7262
" />
<path d="M13.7787 2.7262
L13.7183 2.7867
" />
<path d="M13.7183 2.7867
L13.5973 2.8471
" />
<path d="M13.5973 2.8471
L13.4764 2.8471
" />
<path d="M13.4764 2.8471
L13.3554 2.7867
" />
<path d="M13.3554 2.7867
L13.2949 2.7262
" />
<path d="M13.2949 2.7262
L13.2345 2.6052
" />
<path d="M13.2345 2.6052
L13.1740 2.3633
" />
<path d="M13.1740 2.3633
L13.1740 2.0609
" />
<path d="M13.1740 2.0609
L13.2345 1.8190
" />
<path d="M13.2345 1.8190
L13.2949 1.6981
" />
<path d="M13.2949 1.6981
L13.3554 1.6376
" />
<path d="M13.3554 1.6376
L13.4764 1.5771
" />
<path d="M14.3230 1.5771
L15.1092 1.5771
" />
<path d="M15.1092 1.5771
L14.6859 2.0609
" />
<path d="M14.6859 2.0609
L14.8673 2.0609
" />
<path d="M14.8673 2.0609
L14.9883 2.1214
" />
<path d="M14.9883 2.1214
L15.0487 2.1819
" />
<path d="M15.0487 2.1819
L15.1092 2.3028
" />
<path d="M15.1092 2.3028
L15.1092 2.6052
" />
<path d="M15.1092 2.6052
L15.0487 2.7262
" />
<path d="M15.0487 2.7262
L14.9883 2.7867
" />
<path d="M14.9883 2.7867
L14.8673 2.8471
" />
<path d="M14.8673 2.8471
L14.5045 2.8471
" />
<path d="M14.5045 2.8471
L14.3835 2.7867
" />
<path d="M14.3835 2.7867
L14.3230 2.7262
" />
<path d="M15.3511 2.9681
L16.3187 2.9681
" />
<path d="M16.6211 2.8471
L16.6211 1.5771
" />
<path d="M16.6211 1.5771
L17.1049 1.5771
" />
<path d="M17.1049 1.5771
L17.2259 1.6376
" />
<path d="M17.2259 1.6376
L17.2864 1.6981
" />
<path d="M17.2864 1.6981
L17.3468 1.8190
" />
<path d="M17.3468 1.8190
L17.3468 2.0005
" />
<path d="M17.3468 2.0005
L17.2864 2.1214
" />
<path d="M17.2864 2.1214
L17.2259 2.1819
" />
<path d="M17.2259 2.1819
L17.1049 2.2424
" />
<path d="M17.1049 2.2424
L16.6211 2.2424
" />
<path d="M18.5564 2.8471
L17.8306 2.8471
" />
<path d="M18.1935 2.8471
L18.1935 1.5771
" />
<path d="M18.1935 1.5771
L18.0726 1.7586
" />
<path d="M18.0726 1.7586
L17.9516 1.8795
" />
<path d="M17.9516 1.8795
L17.8306 1.9400
" />
<path d="M19.1006 2.7262
L19.1611 2.7867
" />
<path d="M19.1611 2.7867
L19.1006 2.8471
" />
<path d="M19.1006 2.8471
L19.0402 2.7867
" />
<path d="M19.0402 2.7867
L19.1006 2.7262
" />
<path d="M19.1006 2.7262
L19.1006 2.8471
" />
<path d="M19.9473 1.5771
L20.0683 1.5771
" />
<path d="M20.0683 1.5771
L20.1892 1.6376
" />
<path d="M20.1892 1.6376
L20.2497 1.6981
" />
<path d="M20.2497 1.6981
L20.3102 1.8190
" />
<path d="M20.3102 1.8190
L20.3706 2.0609
" />
<path d="M20.3706 2.0609
L20.3706 2.3633
" />
<path d="M20.3706 2.3633
L20.3102 2.6052
" />
<path d="M20.3102 2.6052
L20.2497 2.7262
" />
<path d="M20.2497 2.7262
L20.1892 2.7867
" />
<path d="M20.1892 2.7867
L20.0683 2.8471
" />
<path d="M20.0683 2.8471
L19.9473 2.8471
" />
<path d="M19.9473 2.8471
L19.8264 2.7867
" />
<path d="M19.8264 2.7867
L19.7659 2.7262
" />
<path d="M19.7659 2.7262
L19.7054 2.6052
" />
<path d="M19.7054 2.6052
L19.6449 2.3633
" />
<path d="M19.6449 2.3633
L19.6449 2.0609
" />
<path d="M19.6449 2.0609
L19.7054 1.8190
" />
<path d="M19.7054 1.8190
L19.7659 1.6981
" />
<path d="M19.7659 1.6981
L19.8264 1.6376
" />
<path d="M19.8264 1.6376
L19.9473 1.5771
" />
<path d="M21.1568 1.5771
L21.2778 1.5771
" />
<path d="M21.2778 1.5771
L21.3987 1.6376
" />
<path d="M21.3987 1.6376
L21.4592 1.6981
" />
<path d="M21.4592 1.6981
L21.5197 1.8190
" />
<path d="M21.5197 1.8190
L21.5802 2.0609
" />
<path d="M21.5802 2.0609
L21.5802 2.3633
" />
<path d="M21.5802 2.3633
L21.5197 2.6052
" />
<path d="M21.5197 2.6052
L21.4592 2.7262
" />
<path d="M21.4592 2.7262
L21.3987 2.7867
" />
<path d="M21.3987 2.7867
L21.2778 2.8471
" />
<path d="M21.2778 2.8471
L21.1568 2.8471
" />
<path d="M21.1568 2.8471
L21.0359 2.7867
" />
<path d="M21.0359 2.7867
L20.9754 2.7262
" />
<path d="M20.9754 2.7262
L20.9149 2.6052
" />
<path d="M20.9149 2.6052
L20.8545 2.3633
" />
<path d="M20.8545 2.3633
L20.8545 2.0609
" />
<path d="M20.8545 2.0609
L20.9149 1.8190
" />
<path d="M20.9149 1.8190
L20.9754 1.6981
" />
<path d="M20.9754 1.6981
L21.0359 1.6376
" />
<path d="M21.0359 1.6376
L21.1568 1.5771
" />
<path d="M22.1245 2.8471
L22.1245 2.0005
" />
<path d="M22.1245 2.1214
L22.1849 2.0609
" />
<path d="M22.1849 2.0609
L22.3059 2.0005
" />
<path d="M22.3059 2.0005
L22.4873 2.0005
" />
<path d="M22.4873 2.0005
L22.6083 2.0609
" />
<path d="M22.6083 2.0609
L22.6687 2.1819
" />
<path d="M22.6687 2.1819
L22.6687 2.8471
" />
<path d="M22.6687 2.1819
L22.7292 2.0609
" />
<path d="M22.7292 2.0609
L22.8502 2.0005
" />
<path d="M22.8502 2.0005
L23.0316 2.0005
" />
<path d="M23.0316 2.0005
L23.1526 2.0609
" />
<path d="M23.1526 2.0609
L23.2130 2.1819
" />
<path d="M23.2130 2.1819
L23.2130 2.8471
" />
<path d="M23.8178 2.8471
L23.8178 2.0005
" />
<path d="M23.8178 2.1214
L23.8783 2.0609
" />
<path d="M23.8783 2.0609
L23.9992 2.0005
" />
<path d="M23.9992 2.0005
L24.1806 2.0005
" />
<path d="M24.1806 2.0005
L24.3016 2.0609
" />
<path d="M24.3016 2.0609
L24.3621 2.1819
" />
<path d="M24.3621 2.1819
L24.3621 2.8471
" />
<path d="M24.3621 2.1819
L24.4226 2.0609
" />
<path d="M24.4226 2.0609
L24.5435 2.0005
" />
<path d="M24.5435 2.0005
L24.7249 2.0005
" />
<path d="M24.7249 2.0005
L24.8459 2.0609
" />
<path d="M24.8459 2.0609
L24.9064 2.1819
" />
<path d="M24.9064 2.1819
L24.9064 2.8471
" />
<path d="M25.2087 2.9681
L26.1764 2.9681
" />
<path d="M26.2973 1.5771
L26.7206 2.8471
" />
<path d="M26.7206 2.8471
L27.1440 1.5771
" />
<path d="M28.0511 2.7867
L27.9302 2.8471
" />
<path d="M27.9302 2.8471
L27.6883 2.8471
" />
<path d="M27.6883 2.8471
L27.5673 2.7867
" />
<path d="M27.5673 2.7867
L27.5068 2.6657
" />
<path d="M27.5068 2.6657
L27.5068 2.1819
" />
<path d="M27.5068 2.1819
L27.5673 2.0609
" />
<path d="M27.5673 2.0609
L27.6883 2.0005
" />
<path d="M27.6883 2.0005
L27.9302 2.0005
" />
<path d="M27.9302 2.0005
L28.0511 2.0609
" />
<path d="M28.0511 2.0609
L28.1116 2.1819
" />
<path d="M28.1116 2.1819
L28.1116 2.3028
" />
<path d="M28.1116 2.3028
L27.5068 2.4238
" />
<path d="M28.6559 2.8471
L28.6559 2.0005
" />
<path d="M28.6559 2.2424
L28.7164 2.1214
" />
<path d="M28.7164 2.1214
L28.7768 2.0609
" />
<path d="M28.7768 2.0609
L28.8978 2.0005
" />
<path d="M28.8978 2.0005
L29.0187 2.0005
" />
<path d="M29.2606 2.0005
L29.7445 2.0005
" />
<path d="M29.4421 1.5771
L29.4421 2.6657
" />
<path d="M29.4421 2.6657
L29.5026 2.7867
" />
<path d="M29.5026 2.7867
L29.6235 2.8471
" />
<path d="M29.6235 2.8471
L29.7445 2.8471
" />
<path d="M30.1678 2.8471
L30.1678 2.0005
" />
<path d="M30.1678 1.5771
L30.1073 1.6376
" />
<path d="M30.1073 1.6376
L30.1678 1.6981
" />
<path d="M30.1678 1.6981
L30.2283 1.6376
" />
<path d="M30.2283 1.6376
L30.1678 1.5771
" />
<path d="M30.1678 1.5771
L30.1678 1.6981
" />
<path d="M31.3168 2.7867
L31.1959 2.8471
" />
<path d="M31.1959 2.8471
L30.9540 2.8471
" />
<path d="M30.9540 2.8471
L30.8330 2.7867
" />
<path d="M30.8330 2.7867
L30.7726 2.7262
" />
<path d="M30.7726 2.7262
L30.7121 2.6052
" />
<path d="M30.7121 2.6052
L30.7121 2.2424
" />
<path d="M30.7121 2.2424
L30.7726 2.1214
" />
<path d="M30.7726 2.1214
L30.8330 2.0609
" />
<path d="M30.8330 2.0609
L30.9540 2.0005
" />
<path d="M30.9540 2.0005
L31.1959 2.0005
" />
<path d="M31.1959 2.0005
L31.3168 2.0609
" />
<path d="M32.4054 2.8471
L32.4054 2.1819
" />
<path d="M32.4054 2.1819
L32.3449 2.0609
" />
<path d="M32.3449 2.0609
L32.2240 2.0005
" />
<path d="M32.2240 2.0005
L31.9821 2.0005
" />
<path d="M31.9821 2.0005
L31.8611 2.0609
" />
<path d="M32.4054 2.7867
L32.2845 2.8471
" />
<path d="M32.2845 2.8471
L31.9821 2.8471
" />
<path d="M31.9821 2.8471
L31.8611 2.7867
" />
<path d="M31.8611 2.7867
L31.8006 2.6657
" />
<path d="M31.8006 2.6657
L31.8006 2.5447
" />
<path d="M31.8006 2.5447
L31.8611 2.4238
" />
<path d="M31.8611 2.4238
L31.9821 2.3633
" />
<path d="M31.9821 2.3633
L32.2845 2.3633
" />
<path d="M32.2845 2.3633
L32.4054 2.3028
" />
<path d="M33.1916 2.8471
L33.0706 2.7867
" />
<path d="M33.0706 2.7867
L33.0102 2.6657
" />
<path d="M33.0102 2.6657
L33.0102 1.5771
" />
<path d="M33.3730 2.9681
L34.3406 2.9681
" />
<path d="M34.5826 2.7867
L34.7640 2.8471
" />
<path d="M34.7640 2.8471
L35.0664 2.8471
" />
<path d="M35.0664 2.8471
L35.1873 2.7867
" />
<path d="M35.1873 2.7867
L35.2478 2.7262
" />
<path d="M35.2478 2.7262
L35.3083 2.6052
" />
<path d="M35.3083 2.6052
L35.3083 2.4843
" />
<path d="M35.3083 2.4843
L35.2478 2.3633
" />
<path d="M35.2478 2.3633
L35.1873 2.3028
" />
<path d="M35.1873 2.3028
L35.0664 2.2424
" />
<path d="M35.0664 2.2424
L34.8245 2.1819
" />
<path d="M34.8245 2.1819
L34.7035 2.1214
" />
<path d="M34.7035 2.1214
L34.6430 2.0609
" />
<path d="M34.6430 2.0609
L34.5826 1.9400
" />
<path d="M34.5826 1.9400
L34.5826 1.8190
" />
<path d="M34.5826 1.8190
L34.6430 1.6981
" />
<path d="M34.6430 1.6981
L34.7035 1.6376
" />
<path d="M34.7035 1.6376
L34.8245 1.5771
" />
<path d="M34.8245 1.5771
L35.1268 1.5771
" />
<path d="M35.1268 1.5771
L35.3083 1.6376
" />
<path d="M35.8526 2.8471
L35.8526 1.5771
" />
<path d="M35.8526 1.5771
L36.2759 2.4843
" />
<path d="M36.2759 2.4843
L36.6992 1.5771
" />
<path d="M36.6992 1.5771
L36.6992 2.8471
" />
<path d="M37.3040 2.8471
L37.3040 1.5771
" />
<path d="M37.3040 1.5771
L37.6064 1.5771
" />
<path d="M37.6064 1.5771
L37.7878 1.6376
" />
<path d="M37.7878 1.6376
L37.9087 1.7586
" />
<path d="M37.9087 1.7586
L37.9692 1.8795
" />
<path d="M37.9692 1.8795
L38.0297 2.1214
" />
<path d="M38.0297 2.1214
L38.0297 2.3028
" />
<path d="M38.0297 2.3028
L37.9692 2.5447
" />
<path d="M37.9692 2.5447
L37.9087 2.6657
" />
<path d="M37.9087 2.6657
L37.7878 2.7867
" />
<path d="M37.7878 2.7867
L37.6064 2.8471
" />
<path d="M37.6064 2.8471
L37.3040 2.8471
" />
</g></g>
<g style="fill:none; 
stroke:#AFAFAF; stroke-width:0.1500; stroke-opacity:1; 
stroke-linecap:round; stroke-linejoin:round;">
<g transform="rotate(-90.000000 19.1914 2.2679)">
<text x="19.1914" y="2.7679"
textLength="4.5357" font-size="1.3333" lengthAdjust="spacingAndGlyphs"
text-anchor="middle" opacity="0">REF**</text>
</g>
<g class="stroked-text"><desc>REF**</desc>
<path d="M19.6462 3.6012
L19.1700 3.9345
" />
<path d="M19.6462 4.1726
L18.6462 4.1726
" />
<path d="M18.6462 4.1726
L18.6462 3.7917
" />
<path d="M18.6462 3.7917
L18.6938 3.6964
" />
<path d="M18.6938 3.6964
L18.7414 3.6488
" />
<path d="M18.7414 3.6488
L18.8367 3.6012
" />
<path d="M18.8367 3.6012
L18.9795 3.6012
" />
<path d="M18.9795 3.6012
L19.0748 3.6488
" />
<path d="M19.0748 3.6488
L19.1224 3.6964
" />
<path d="M19.1224 3.6964
L19.1700 3.7917
" />
<path d="M19.1700 3.7917
L19.1700 4.1726
" />
<path d="M19.1224 3.1726
L19.1224 2.8393
" />
<path d="M19.6462 2.6964
L19.6462 3.1726
" />
<path d="M19.6462 3.1726
L18.6462 3.1726
" />
<path d="M18.6462 3.1726
L18.6462 2.6964
" />
<path d="M19.1224 1.9345
L19.1224 2.2679
" />
<path d="M19.6462 2.2679
L18.6462 2.2679
" />
<path d="M18.6462 2.2679
L18.6462 1.7917
" />
<path d="M18.6462 1.2679
L18.8843 1.2679
" />
<path d="M18.7890 1.5060
L18.8843 1.2679
" />
<path d="M18.8843 1.2679
L18.7890 1.0298
" />
<path d="M19.0748 1.4107
L18.8843 1.2679
" />
<path d="M18.8843 1.2679
L19.0748 1.1250
" />
<path d="M18.6462 0.5060
L18.8843 0.5060
" />
<path d="M18.7890 0.7440
L18.8843 0.5060
" />
<path d="M18.8843 0.5060
L18.7890 0.2679
" />
<path d="M19.0748 0.6488
L18.8843 0.5060
" />
<path d="M18.8843 0.5060
L19.0748 0.3631
" />
</g></g>
<g style="fill:none; 
stroke:#AFAFAF; stroke-width:0.1000; stroke-opacity:1; 
stroke-linecap:round; stroke-linejoin:round;">
<path d="M16.7914 1.1179
L16.7914 1.4179
" />
<path d="M16.7914 1.4179
L18.0414 1.4179
" />
<path d="M16.7914 2.1179
L16.7914 2.4179
" />
<path d="M16.7914 2.4179
L18.0414 2.4179
" />
<path d="M16.7914 3.1179
L16.7914 3.4179
" />
<path d="M16.7914 3.4179
L18.0414 3.4179
" />
<path d="M18.0414 1.1179
L16.7914 1.1179
" />
<path d="M18.0414 1.1179
L18.3914 0.7679
" />
<path d="M18.0414 2.1179
L16.7914 2.1179
" />
<path d="M18.0414 3.1179
L16.7914 3.1179
" />
<path d="M18.0414 3.7679
L18.0414 1.1179
" />
<path d="M18.3914 0.7679
L20.3414 0.7679
" />
<path d="M20.3414 0.7679
L20.3414 3.7679
" />
<path d="M20.3414 1.1179
L21.5914 1.1179
" />
<path d="M20.3414 2.1179
L21.5914 2.1179
" />
<path d="M20.3414 3.1179
L21.5914 3.1179
" />
<path d="M20.3414 3.7679
L18.0414 3.7679
" />
<path d="M21.5914 1.1179
L21.5914 1.4179
" />
<path d="M21.5914 1.4179
L20.3414 1.4179
" />
<path d="M21.5914 2.1179
L21.5914 2.4179
" />
<path d="M21.5914 2.4179
L20.3414 2.4179
" />
<path d="M21.5914 3.1179
L21.5914 3.4179
" />
<path d="M21.5914 3.4179
L20.3414 3.4179
" />
</g> 
</svg>
