<?xml version="1.0" standalone="no"?>
 <!DOCTYPE svg PUBLIC "-//W3C//DTD SVG 1.1//EN" 
 "http://www.w3.org/Graphics/SVG/1.1/DTD/svg11.dtd"> 
<svg
  xmlns:svg="http://www.w3.org/2000/svg"
  xmlns="http://www.w3.org/2000/svg"
  xmlns:xlink="http://www.w3.org/1999/xlink"
  version="1.1"
  width="48.1584mm" height="36.8300mm" viewBox="0.0000 0.0000 48.1584 36.8300">
<title>SVG Image created as working-brd.svg date 2024/04/16 23:17:01 </title>
  <desc>Image generated by PCBNEW </desc>
<g style="fill:#000000; fill-opacity:1.0000;stroke:#000000; stroke-opacity:1.0000;
stroke-linecap:round; stroke-linejoin:round;"
 transform="translate(0 0) scale(1 1)">
<path style="fill:#C83434; fill-opacity:1.0000; stroke:none;fill-rule:evenodd;"
d="M 24.7899,2.4150
24.7899,1.4150
26.6899,1.4150
26.6899,2.4150
Z" /> 
<path style="fill:#C83434; fill-opacity:1.0000; stroke:none;fill-rule:evenodd;"
d="M 21.4899,4.9550
21.4899,3.9550
23.3899,3.9550
23.3899,4.9550
Z" /> 
<path style="fill:#C83434; fill-opacity:1.0000; stroke:none;fill-rule:evenodd;"
d="M 24.7899,7.4950
24.7899,6.4950
26.6899,6.4950
26.6899,7.4950
Z" /> 
<path style="fill:#C83434; fill-opacity:1.0000; stroke:none;fill-rule:evenodd;"
d="M 21.4899,10.0350
21.4899,9.0350
23.3899,9.0350
23.3899,10.0350
Z" /> 
<path style="fill:#C83434; fill-opacity:1.0000; stroke:none;fill-rule:evenodd;"
d="M 24.7899,12.5750
24.7899,11.5750
26.6899,11.5750
26.6899,12.5750
Z" /> 
<path style="fill:#C83434; fill-opacity:1.0000; stroke:none;fill-rule:evenodd;"
d="M 21.4899,15.1150
21.4899,14.1150
23.3899,14.1150
23.3899,15.1150
Z" /> 
<path style="fill:#C83434; fill-opacity:1.0000; stroke:none;fill-rule:evenodd;"
d="M 24.7899,17.6550
24.7899,16.6550
26.6899,16.6550
26.6899,17.6550
Z" /> 
<path style="fill:#C83434; fill-opacity:1.0000; stroke:none;fill-rule:evenodd;"
d="M 21.4899,20.1950
21.4899,19.1950
23.3899,19.1950
23.3899,20.1950
Z" /> 
<path style="fill:#C83434; fill-opacity:1.0000; stroke:none;fill-rule:evenodd;"
d="M 24.7899,22.7350
24.7899,21.7350
26.6899,21.7350
26.6899,22.7350
Z" /> 
<path style="fill:#C83434; fill-opacity:1.0000; stroke:none;fill-rule:evenodd;"
d="M 21.4899,25.2750
21.4899,24.2750
23.3899,24.2750
23.3899,25.2750
Z" /> 
<path style="fill:#C83434; fill-opacity:1.0000; stroke:none;fill-rule:evenodd;"
d="M 24.7899,27.8150
24.7899,26.8150
26.6899,26.8150
26.6899,27.8150
Z" /> 
<path style="fill:#C83434; fill-opacity:1.0000; stroke:none;fill-rule:evenodd;"
d="M 21.4899,30.3550
21.4899,29.3550
23.3899,29.3550
23.3899,30.3550
Z" /> 
<path style="fill:#C83434; fill-opacity:1.0000; stroke:none;fill-rule:evenodd;"
d="M 24.7899,32.8950
24.7899,31.8950
26.6899,31.8950
26.6899,32.8950
Z" /> 
<path style="fill:#C83434; fill-opacity:1.0000; stroke:none;fill-rule:evenodd;"
d="M 21.4899,35.4350
21.4899,34.4350
23.3899,34.4350
23.3899,35.4350
Z" /> 
<path style="fill:#D864FF; fill-opacity:0.4000; stroke:none;fill-rule:evenodd;"
d="M 24.7899,2.4150
24.7899,1.4150
26.6899,1.4150
26.6899,2.4150
Z" /> 
<path style="fill:#D864FF; fill-opacity:0.4000; stroke:none;fill-rule:evenodd;"
d="M 21.4899,4.9550
21.4899,3.9550
23.3899,3.9550
23.3899,4.9550
Z" /> 
<path style="fill:#D864FF; fill-opacity:0.4000; stroke:none;fill-rule:evenodd;"
d="M 24.7899,7.4950
24.7899,6.4950
26.6899,6.4950
26.6899,7.4950
Z" /> 
<path style="fill:#D864FF; fill-opacity:0.4000; stroke:none;fill-rule:evenodd;"
d="M 21.4899,10.0350
21.4899,9.0350
23.3899,9.0350
23.3899,10.0350
Z" /> 
<path style="fill:#D864FF; fill-opacity:0.4000; stroke:none;fill-rule:evenodd;"
d="M 24.7899,12.5750
24.7899,11.5750
26.6899,11.5750
26.6899,12.5750
Z" /> 
<path style="fill:#D864FF; fill-opacity:0.4000; stroke:none;fill-rule:evenodd;"
d="M 21.4899,15.1150
21.4899,14.1150
23.3899,14.1150
23.3899,15.1150
Z" /> 
<path style="fill:#D864FF; fill-opacity:0.4000; stroke:none;fill-rule:evenodd;"
d="M 24.7899,17.6550
24.7899,16.6550
26.6899,16.6550
26.6899,17.6550
Z" /> 
<path style="fill:#D864FF; fill-opacity:0.4000; stroke:none;fill-rule:evenodd;"
d="M 21.4899,20.1950
21.4899,19.1950
23.3899,19.1950
23.3899,20.1950
Z" /> 
<path style="fill:#D864FF; fill-opacity:0.4000; stroke:none;fill-rule:evenodd;"
d="M 24.7899,22.7350
24.7899,21.7350
26.6899,21.7350
26.6899,22.7350
Z" /> 
<path style="fill:#D864FF; fill-opacity:0.4000; stroke:none;fill-rule:evenodd;"
d="M 21.4899,25.2750
21.4899,24.2750
23.3899,24.2750
23.3899,25.2750
Z" /> 
<path style="fill:#D864FF; fill-opacity:0.4000; stroke:none;fill-rule:evenodd;"
d="M 24.7899,27.8150
24.7899,26.8150
26.6899,26.8150
26.6899,27.8150
Z" /> 
<path style="fill:#D864FF; fill-opacity:0.4000; stroke:none;fill-rule:evenodd;"
d="M 21.4899,30.3550
21.4899,29.3550
23.3899,29.3550
23.3899,30.3550
Z" /> 
<path style="fill:#D864FF; fill-opacity:0.4000; stroke:none;fill-rule:evenodd;"
d="M 24.7899,32.8950
24.7899,31.8950
26.6899,31.8950
26.6899,32.8950
Z" /> 
<path style="fill:#D864FF; fill-opacity:0.4000; stroke:none;fill-rule:evenodd;"
d="M 21.4899,35.4350
21.4899,34.4350
23.3899,34.4350
23.3899,35.4350
Z" /> 
<path style="fill:#B4A09A; fill-opacity:0.9000; stroke:none;fill-rule:evenodd;"
d="M 24.7899,2.4150
24.7899,1.4150
26.6899,1.4150
26.6899,2.4150
Z" /> 
<path style="fill:#B4A09A; fill-opacity:0.9000; stroke:none;fill-rule:evenodd;"
d="M 21.4899,4.9550
21.4899,3.9550
23.3899,3.9550
23.3899,4.9550
Z" /> 
<path style="fill:#B4A09A; fill-opacity:0.9000; stroke:none;fill-rule:evenodd;"
d="M 24.7899,7.4950
24.7899,6.4950
26.6899,6.4950
26.6899,7.4950
Z" /> 
<path style="fill:#B4A09A; fill-opacity:0.9000; stroke:none;fill-rule:evenodd;"
d="M 21.4899,10.0350
21.4899,9.0350
23.3899,9.0350
23.3899,10.0350
Z" /> 
<path style="fill:#B4A09A; fill-opacity:0.9000; stroke:none;fill-rule:evenodd;"
d="M 24.7899,12.5750
24.7899,11.5750
26.6899,11.5750
26.6899,12.5750
Z" /> 
<path style="fill:#B4A09A; fill-opacity:0.9000; stroke:none;fill-rule:evenodd;"
d="M 21.4899,15.1150
21.4899,14.1150
23.3899,14.1150
23.3899,15.1150
Z" /> 
<path style="fill:#B4A09A; fill-opacity:0.9000; stroke:none;fill-rule:evenodd;"
d="M 24.7899,17.6550
24.7899,16.6550
26.6899,16.6550
26.6899,17.6550
Z" /> 
<path style="fill:#B4A09A; fill-opacity:0.9000; stroke:none;fill-rule:evenodd;"
d="M 21.4899,20.1950
21.4899,19.1950
23.3899,19.1950
23.3899,20.1950
Z" /> 
<path style="fill:#B4A09A; fill-opacity:0.9000; stroke:none;fill-rule:evenodd;"
d="M 24.7899,22.7350
24.7899,21.7350
26.6899,21.7350
26.6899,22.7350
Z" /> 
<path style="fill:#B4A09A; fill-opacity:0.9000; stroke:none;fill-rule:evenodd;"
d="M 21.4899,25.2750
21.4899,24.2750
23.3899,24.2750
23.3899,25.2750
Z" /> 
<path style="fill:#B4A09A; fill-opacity:0.9000; stroke:none;fill-rule:evenodd;"
d="M 24.7899,27.8150
24.7899,26.8150
26.6899,26.8150
26.6899,27.8150
Z" /> 
<path style="fill:#B4A09A; fill-opacity:0.9000; stroke:none;fill-rule:evenodd;"
d="M 21.4899,30.3550
21.4899,29.3550
23.3899,29.3550
23.3899,30.3550
Z" /> 
<path style="fill:#B4A09A; fill-opacity:0.9000; stroke:none;fill-rule:evenodd;"
d="M 24.7899,32.8950
24.7899,31.8950
26.6899,31.8950
26.6899,32.8950
Z" /> 
<path style="fill:#B4A09A; fill-opacity:0.9000; stroke:none;fill-rule:evenodd;"
d="M 21.4899,35.4350
21.4899,34.4350
23.3899,34.4350
23.3899,35.4350
Z" /> 
</g>
<g style="fill:none; 
stroke:#F2EDA1; stroke-width:0.1588; stroke-opacity:1; 
stroke-linecap:round; stroke-linejoin:round;">
<text x="24.0899" y="19.0600"
textLength="5.6651" font-size="1.6933" lengthAdjust="spacingAndGlyphs"
text-anchor="middle" opacity="0">REF**</text>
<g class="stroked-text"><desc>REF**</desc>
<path d="M22.3966 19.0043
L21.9733 18.3995
" />
<path d="M21.6709 19.0043
L21.6709 17.7343
" />
<path d="M21.6709 17.7343
L22.1547 17.7343
" />
<path d="M22.1547 17.7343
L22.2756 17.7947
" />
<path d="M22.2756 17.7947
L22.3361 17.8552
" />
<path d="M22.3361 17.8552
L22.3966 17.9762
" />
<path d="M22.3966 17.9762
L22.3966 18.1576
" />
<path d="M22.3966 18.1576
L22.3361 18.2786
" />
<path d="M22.3361 18.2786
L22.2756 18.3390
" />
<path d="M22.2756 18.3390
L22.1547 18.3995
" />
<path d="M22.1547 18.3995
L21.6709 18.3995
" />
<path d="M22.9409 18.3390
L23.3642 18.3390
" />
<path d="M23.5456 19.0043
L22.9409 19.0043
" />
<path d="M22.9409 19.0043
L22.9409 17.7343
" />
<path d="M22.9409 17.7343
L23.5456 17.7343
" />
<path d="M24.5133 18.3390
L24.0899 18.3390
" />
<path d="M24.0899 19.0043
L24.0899 17.7343
" />
<path d="M24.0899 17.7343
L24.6947 17.7343
" />
<path d="M25.3599 17.7343
L25.3599 18.0367
" />
<path d="M25.0576 17.9157
L25.3599 18.0367
" />
<path d="M25.3599 18.0367
L25.6623 17.9157
" />
<path d="M25.1785 18.2786
L25.3599 18.0367
" />
<path d="M25.3599 18.0367
L25.5414 18.2786
" />
<path d="M26.3276 17.7343
L26.3276 18.0367
" />
<path d="M26.0252 17.9157
L26.3276 18.0367
" />
<path d="M26.3276 18.0367
L26.6299 17.9157
" />
<path d="M26.1461 18.2786
L26.3276 18.0367
" />
<path d="M26.3276 18.0367
L26.5090 18.2786
" />
</g></g>
<g style="fill:none; 
stroke:#F2EDA1; stroke-width:0.1200; stroke-opacity:1; 
stroke-linecap:round; stroke-linejoin:round;">
<path d="M22.7599 0.4850
L22.7599 3.6950
" />
<path d="M22.7599 0.4850
L25.4199 0.4850
" />
<path d="M22.7599 5.2150
L22.7599 8.7750
" />
<path d="M22.7599 10.2950
L22.7599 13.8550
" />
<path d="M22.7599 15.3750
L22.7599 18.9350
" />
<path d="M22.7599 20.4550
L22.7599 24.0150
" />
<path d="M22.7599 25.5350
L22.7599 29.0950
" />
<path d="M22.7599 30.6150
L22.7599 34.1750
" />
<path d="M22.7599 35.6950
L22.7599 36.3650
" />
<path d="M22.7599 36.3650
L25.4199 36.3650
" />
<path d="M25.4199 0.4850
L25.4199 1.1550
" />
<path d="M25.4199 1.1550
L26.6299 1.1550
" />
<path d="M25.4199 2.6750
L25.4199 6.2350
" />
<path d="M25.4199 7.7550
L25.4199 11.3150
" />
<path d="M25.4199 12.8350
L25.4199 16.3950
" />
<path d="M25.4199 17.9150
L25.4199 21.4750
" />
<path d="M25.4199 22.9950
L25.4199 26.5550
" />
<path d="M25.4199 28.0750
L25.4199 31.6350
" />
<path d="M25.4199 33.1550
L25.4199 36.3650
" />
</g>
<g style="fill:none; 
stroke:#FF26E2; stroke-width:0.0500; stroke-opacity:1; 
stroke-linecap:round; stroke-linejoin:round;">
<path d="M20.9899 0.0250
L27.1899 0.0250
" />
<path d="M20.9899 36.8250
L20.9899 0.0250
" />
<path d="M27.1899 0.0250
L27.1899 36.8250
" />
<path d="M27.1899 36.8250
L20.9899 36.8250
" />
</g>
<g style="fill:none; 
stroke:#AFAFAF; stroke-width:0.1588; stroke-opacity:1; 
stroke-linecap:round; stroke-linejoin:round;">
<text x="24.0899" y="19.0600"
textLength="48.1799" font-size="1.6933" lengthAdjust="spacingAndGlyphs"
text-anchor="middle" opacity="0">PinSocket_1x14_P2.54mm_Vertical_SMD_Pin1Right</text>
<g class="stroked-text"><desc>PinSocket_1x14_P2.54mm_Vertical_SMD_Pin1Right</desc>
<path d="M0.4135 19.0043
L0.4135 17.7343
" />
<path d="M0.4135 17.7343
L0.8973 17.7343
" />
<path d="M0.8973 17.7343
L1.0183 17.7947
" />
<path d="M1.0183 17.7947
L1.0787 17.8552
" />
<path d="M1.0787 17.8552
L1.1392 17.9762
" />
<path d="M1.1392 17.9762
L1.1392 18.1576
" />
<path d="M1.1392 18.1576
L1.0787 18.2786
" />
<path d="M1.0787 18.2786
L1.0183 18.3390
" />
<path d="M1.0183 18.3390
L0.8973 18.3995
" />
<path d="M0.8973 18.3995
L0.4135 18.3995
" />
<path d="M1.6835 19.0043
L1.6835 18.1576
" />
<path d="M1.6835 17.7343
L1.6230 17.7947
" />
<path d="M1.6230 17.7947
L1.6835 17.8552
" />
<path d="M1.6835 17.8552
L1.7440 17.7947
" />
<path d="M1.7440 17.7947
L1.6835 17.7343
" />
<path d="M1.6835 17.7343
L1.6835 17.8552
" />
<path d="M2.2883 18.1576
L2.2883 19.0043
" />
<path d="M2.2883 18.2786
L2.3487 18.2181
" />
<path d="M2.3487 18.2181
L2.4697 18.1576
" />
<path d="M2.4697 18.1576
L2.6511 18.1576
" />
<path d="M2.6511 18.1576
L2.7721 18.2181
" />
<path d="M2.7721 18.2181
L2.8326 18.3390
" />
<path d="M2.8326 18.3390
L2.8326 19.0043
" />
<path d="M3.3768 18.9438
L3.5583 19.0043
" />
<path d="M3.5583 19.0043
L3.8606 19.0043
" />
<path d="M3.8606 19.0043
L3.9816 18.9438
" />
<path d="M3.9816 18.9438
L4.0421 18.8833
" />
<path d="M4.0421 18.8833
L4.1026 18.7624
" />
<path d="M4.1026 18.7624
L4.1026 18.6414
" />
<path d="M4.1026 18.6414
L4.0421 18.5205
" />
<path d="M4.0421 18.5205
L3.9816 18.4600
" />
<path d="M3.9816 18.4600
L3.8606 18.3995
" />
<path d="M3.8606 18.3995
L3.6187 18.3390
" />
<path d="M3.6187 18.3390
L3.4978 18.2786
" />
<path d="M3.4978 18.2786
L3.4373 18.2181
" />
<path d="M3.4373 18.2181
L3.3768 18.0971
" />
<path d="M3.3768 18.0971
L3.3768 17.9762
" />
<path d="M3.3768 17.9762
L3.4373 17.8552
" />
<path d="M3.4373 17.8552
L3.4978 17.7947
" />
<path d="M3.4978 17.7947
L3.6187 17.7343
" />
<path d="M3.6187 17.7343
L3.9211 17.7343
" />
<path d="M3.9211 17.7343
L4.1026 17.7947
" />
<path d="M4.8283 19.0043
L4.7073 18.9438
" />
<path d="M4.7073 18.9438
L4.6468 18.8833
" />
<path d="M4.6468 18.8833
L4.5864 18.7624
" />
<path d="M4.5864 18.7624
L4.5864 18.3995
" />
<path d="M4.5864 18.3995
L4.6468 18.2786
" />
<path d="M4.6468 18.2786
L4.7073 18.2181
" />
<path d="M4.7073 18.2181
L4.8283 18.1576
" />
<path d="M4.8283 18.1576
L5.0097 18.1576
" />
<path d="M5.0097 18.1576
L5.1307 18.2181
" />
<path d="M5.1307 18.2181
L5.1911 18.2786
" />
<path d="M5.1911 18.2786
L5.2516 18.3995
" />
<path d="M5.2516 18.3995
L5.2516 18.7624
" />
<path d="M5.2516 18.7624
L5.1911 18.8833
" />
<path d="M5.1911 18.8833
L5.1307 18.9438
" />
<path d="M5.1307 18.9438
L5.0097 19.0043
" />
<path d="M5.0097 19.0043
L4.8283 19.0043
" />
<path d="M6.3402 18.9438
L6.2192 19.0043
" />
<path d="M6.2192 19.0043
L5.9773 19.0043
" />
<path d="M5.9773 19.0043
L5.8564 18.9438
" />
<path d="M5.8564 18.9438
L5.7959 18.8833
" />
<path d="M5.7959 18.8833
L5.7354 18.7624
" />
<path d="M5.7354 18.7624
L5.7354 18.3995
" />
<path d="M5.7354 18.3995
L5.7959 18.2786
" />
<path d="M5.7959 18.2786
L5.8564 18.2181
" />
<path d="M5.8564 18.2181
L5.9773 18.1576
" />
<path d="M5.9773 18.1576
L6.2192 18.1576
" />
<path d="M6.2192 18.1576
L6.3402 18.2181
" />
<path d="M6.8845 19.0043
L6.8845 17.7343
" />
<path d="M7.0054 18.5205
L7.3683 19.0043
" />
<path d="M7.3683 18.1576
L6.8845 18.6414
" />
<path d="M8.3964 18.9438
L8.2754 19.0043
" />
<path d="M8.2754 19.0043
L8.0335 19.0043
" />
<path d="M8.0335 19.0043
L7.9126 18.9438
" />
<path d="M7.9126 18.9438
L7.8521 18.8228
" />
<path d="M7.8521 18.8228
L7.8521 18.3390
" />
<path d="M7.8521 18.3390
L7.9126 18.2181
" />
<path d="M7.9126 18.2181
L8.0335 18.1576
" />
<path d="M8.0335 18.1576
L8.2754 18.1576
" />
<path d="M8.2754 18.1576
L8.3964 18.2181
" />
<path d="M8.3964 18.2181
L8.4568 18.3390
" />
<path d="M8.4568 18.3390
L8.4568 18.4600
" />
<path d="M8.4568 18.4600
L7.8521 18.5809
" />
<path d="M8.8197 18.1576
L9.3035 18.1576
" />
<path d="M9.0011 17.7343
L9.0011 18.8228
" />
<path d="M9.0011 18.8228
L9.0616 18.9438
" />
<path d="M9.0616 18.9438
L9.1826 19.0043
" />
<path d="M9.1826 19.0043
L9.3035 19.0043
" />
<path d="M9.4245 19.1252
L10.3921 19.1252
" />
<path d="M11.3597 19.0043
L10.6340 19.0043
" />
<path d="M10.9968 19.0043
L10.9968 17.7343
" />
<path d="M10.9968 17.7343
L10.8759 17.9157
" />
<path d="M10.8759 17.9157
L10.7549 18.0367
" />
<path d="M10.7549 18.0367
L10.6340 18.0971
" />
<path d="M11.7830 19.0043
L12.4483 18.1576
" />
<path d="M11.7830 18.1576
L12.4483 19.0043
" />
<path d="M13.5973 19.0043
L12.8716 19.0043
" />
<path d="M13.2345 19.0043
L13.2345 17.7343
" />
<path d="M13.2345 17.7343
L13.1135 17.9157
" />
<path d="M13.1135 17.9157
L12.9926 18.0367
" />
<path d="M12.9926 18.0367
L12.8716 18.0971
" />
<path d="M14.6859 18.1576
L14.6859 19.0043
" />
<path d="M14.3835 17.6738
L14.0811 18.5809
" />
<path d="M14.0811 18.5809
L14.8673 18.5809
" />
<path d="M15.0487 19.1252
L16.0164 19.1252
" />
<path d="M16.3187 19.0043
L16.3187 17.7343
" />
<path d="M16.3187 17.7343
L16.8026 17.7343
" />
<path d="M16.8026 17.7343
L16.9235 17.7947
" />
<path d="M16.9235 17.7947
L16.9840 17.8552
" />
<path d="M16.9840 17.8552
L17.0445 17.9762
" />
<path d="M17.0445 17.9762
L17.0445 18.1576
" />
<path d="M17.0445 18.1576
L16.9840 18.2786
" />
<path d="M16.9840 18.2786
L16.9235 18.3390
" />
<path d="M16.9235 18.3390
L16.8026 18.3995
" />
<path d="M16.8026 18.3995
L16.3187 18.3995
" />
<path d="M17.5283 17.8552
L17.5887 17.7947
" />
<path d="M17.5887 17.7947
L17.7097 17.7343
" />
<path d="M17.7097 17.7343
L18.0121 17.7343
" />
<path d="M18.0121 17.7343
L18.1330 17.7947
" />
<path d="M18.1330 17.7947
L18.1935 17.8552
" />
<path d="M18.1935 17.8552
L18.2540 17.9762
" />
<path d="M18.2540 17.9762
L18.2540 18.0971
" />
<path d="M18.2540 18.0971
L18.1935 18.2786
" />
<path d="M18.1935 18.2786
L17.4678 19.0043
" />
<path d="M17.4678 19.0043
L18.2540 19.0043
" />
<path d="M18.7983 18.8833
L18.8587 18.9438
" />
<path d="M18.8587 18.9438
L18.7983 19.0043
" />
<path d="M18.7983 19.0043
L18.7378 18.9438
" />
<path d="M18.7378 18.9438
L18.7983 18.8833
" />
<path d="M18.7983 18.8833
L18.7983 19.0043
" />
<path d="M20.0078 17.7343
L19.4030 17.7343
" />
<path d="M19.4030 17.7343
L19.3426 18.3390
" />
<path d="M19.3426 18.3390
L19.4030 18.2786
" />
<path d="M19.4030 18.2786
L19.5240 18.2181
" />
<path d="M19.5240 18.2181
L19.8264 18.2181
" />
<path d="M19.8264 18.2181
L19.9473 18.2786
" />
<path d="M19.9473 18.2786
L20.0078 18.3390
" />
<path d="M20.0078 18.3390
L20.0683 18.4600
" />
<path d="M20.0683 18.4600
L20.0683 18.7624
" />
<path d="M20.0683 18.7624
L20.0078 18.8833
" />
<path d="M20.0078 18.8833
L19.9473 18.9438
" />
<path d="M19.9473 18.9438
L19.8264 19.0043
" />
<path d="M19.8264 19.0043
L19.5240 19.0043
" />
<path d="M19.5240 19.0043
L19.4030 18.9438
" />
<path d="M19.4030 18.9438
L19.3426 18.8833
" />
<path d="M21.1568 18.1576
L21.1568 19.0043
" />
<path d="M20.8545 17.6738
L20.5521 18.5809
" />
<path d="M20.5521 18.5809
L21.3383 18.5809
" />
<path d="M21.8221 19.0043
L21.8221 18.1576
" />
<path d="M21.8221 18.2786
L21.8826 18.2181
" />
<path d="M21.8826 18.2181
L22.0035 18.1576
" />
<path d="M22.0035 18.1576
L22.1849 18.1576
" />
<path d="M22.1849 18.1576
L22.3059 18.2181
" />
<path d="M22.3059 18.2181
L22.3664 18.3390
" />
<path d="M22.3664 18.3390
L22.3664 19.0043
" />
<path d="M22.3664 18.3390
L22.4268 18.2181
" />
<path d="M22.4268 18.2181
L22.5478 18.1576
" />
<path d="M22.5478 18.1576
L22.7292 18.1576
" />
<path d="M22.7292 18.1576
L22.8502 18.2181
" />
<path d="M22.8502 18.2181
L22.9107 18.3390
" />
<path d="M22.9107 18.3390
L22.9107 19.0043
" />
<path d="M23.5154 19.0043
L23.5154 18.1576
" />
<path d="M23.5154 18.2786
L23.5759 18.2181
" />
<path d="M23.5759 18.2181
L23.6968 18.1576
" />
<path d="M23.6968 18.1576
L23.8783 18.1576
" />
<path d="M23.8783 18.1576
L23.9992 18.2181
" />
<path d="M23.9992 18.2181
L24.0597 18.3390
" />
<path d="M24.0597 18.3390
L24.0597 19.0043
" />
<path d="M24.0597 18.3390
L24.1202 18.2181
" />
<path d="M24.1202 18.2181
L24.2411 18.1576
" />
<path d="M24.2411 18.1576
L24.4226 18.1576
" />
<path d="M24.4226 18.1576
L24.5435 18.2181
" />
<path d="M24.5435 18.2181
L24.6040 18.3390
" />
<path d="M24.6040 18.3390
L24.6040 19.0043
" />
<path d="M24.9064 19.1252
L25.8740 19.1252
" />
<path d="M25.9949 17.7343
L26.4183 19.0043
" />
<path d="M26.4183 19.0043
L26.8416 17.7343
" />
<path d="M27.7487 18.9438
L27.6278 19.0043
" />
<path d="M27.6278 19.0043
L27.3859 19.0043
" />
<path d="M27.3859 19.0043
L27.2649 18.9438
" />
<path d="M27.2649 18.9438
L27.2045 18.8228
" />
<path d="M27.2045 18.8228
L27.2045 18.3390
" />
<path d="M27.2045 18.3390
L27.2649 18.2181
" />
<path d="M27.2649 18.2181
L27.3859 18.1576
" />
<path d="M27.3859 18.1576
L27.6278 18.1576
" />
<path d="M27.6278 18.1576
L27.7487 18.2181
" />
<path d="M27.7487 18.2181
L27.8092 18.3390
" />
<path d="M27.8092 18.3390
L27.8092 18.4600
" />
<path d="M27.8092 18.4600
L27.2045 18.5809
" />
<path d="M28.3535 19.0043
L28.3535 18.1576
" />
<path d="M28.3535 18.3995
L28.4140 18.2786
" />
<path d="M28.4140 18.2786
L28.4745 18.2181
" />
<path d="M28.4745 18.2181
L28.5954 18.1576
" />
<path d="M28.5954 18.1576
L28.7164 18.1576
" />
<path d="M28.9583 18.1576
L29.4421 18.1576
" />
<path d="M29.1397 17.7343
L29.1397 18.8228
" />
<path d="M29.1397 18.8228
L29.2002 18.9438
" />
<path d="M29.2002 18.9438
L29.3211 19.0043
" />
<path d="M29.3211 19.0043
L29.4421 19.0043
" />
<path d="M29.8654 19.0043
L29.8654 18.1576
" />
<path d="M29.8654 17.7343
L29.8049 17.7947
" />
<path d="M29.8049 17.7947
L29.8654 17.8552
" />
<path d="M29.8654 17.8552
L29.9259 17.7947
" />
<path d="M29.9259 17.7947
L29.8654 17.7343
" />
<path d="M29.8654 17.7343
L29.8654 17.8552
" />
<path d="M31.0145 18.9438
L30.8935 19.0043
" />
<path d="M30.8935 19.0043
L30.6516 19.0043
" />
<path d="M30.6516 19.0043
L30.5306 18.9438
" />
<path d="M30.5306 18.9438
L30.4702 18.8833
" />
<path d="M30.4702 18.8833
L30.4097 18.7624
" />
<path d="M30.4097 18.7624
L30.4097 18.3995
" />
<path d="M30.4097 18.3995
L30.4702 18.2786
" />
<path d="M30.4702 18.2786
L30.5306 18.2181
" />
<path d="M30.5306 18.2181
L30.6516 18.1576
" />
<path d="M30.6516 18.1576
L30.8935 18.1576
" />
<path d="M30.8935 18.1576
L31.0145 18.2181
" />
<path d="M32.1030 19.0043
L32.1030 18.3390
" />
<path d="M32.1030 18.3390
L32.0426 18.2181
" />
<path d="M32.0426 18.2181
L31.9216 18.1576
" />
<path d="M31.9216 18.1576
L31.6797 18.1576
" />
<path d="M31.6797 18.1576
L31.5587 18.2181
" />
<path d="M32.1030 18.9438
L31.9821 19.0043
" />
<path d="M31.9821 19.0043
L31.6797 19.0043
" />
<path d="M31.6797 19.0043
L31.5587 18.9438
" />
<path d="M31.5587 18.9438
L31.4983 18.8228
" />
<path d="M31.4983 18.8228
L31.4983 18.7019
" />
<path d="M31.4983 18.7019
L31.5587 18.5809
" />
<path d="M31.5587 18.5809
L31.6797 18.5205
" />
<path d="M31.6797 18.5205
L31.9821 18.5205
" />
<path d="M31.9821 18.5205
L32.1030 18.4600
" />
<path d="M32.8892 19.0043
L32.7683 18.9438
" />
<path d="M32.7683 18.9438
L32.7078 18.8228
" />
<path d="M32.7078 18.8228
L32.7078 17.7343
" />
<path d="M33.0706 19.1252
L34.0383 19.1252
" />
<path d="M34.2802 18.9438
L34.4616 19.0043
" />
<path d="M34.4616 19.0043
L34.7640 19.0043
" />
<path d="M34.7640 19.0043
L34.8849 18.9438
" />
<path d="M34.8849 18.9438
L34.9454 18.8833
" />
<path d="M34.9454 18.8833
L35.0059 18.7624
" />
<path d="M35.0059 18.7624
L35.0059 18.6414
" />
<path d="M35.0059 18.6414
L34.9454 18.5205
" />
<path d="M34.9454 18.5205
L34.8849 18.4600
" />
<path d="M34.8849 18.4600
L34.7640 18.3995
" />
<path d="M34.7640 18.3995
L34.5221 18.3390
" />
<path d="M34.5221 18.3390
L34.4011 18.2786
" />
<path d="M34.4011 18.2786
L34.3406 18.2181
" />
<path d="M34.3406 18.2181
L34.2802 18.0971
" />
<path d="M34.2802 18.0971
L34.2802 17.9762
" />
<path d="M34.2802 17.9762
L34.3406 17.8552
" />
<path d="M34.3406 17.8552
L34.4011 17.7947
" />
<path d="M34.4011 17.7947
L34.5221 17.7343
" />
<path d="M34.5221 17.7343
L34.8245 17.7343
" />
<path d="M34.8245 17.7343
L35.0059 17.7947
" />
<path d="M35.5502 19.0043
L35.5502 17.7343
" />
<path d="M35.5502 17.7343
L35.9735 18.6414
" />
<path d="M35.9735 18.6414
L36.3968 17.7343
" />
<path d="M36.3968 17.7343
L36.3968 19.0043
" />
<path d="M37.0016 19.0043
L37.0016 17.7343
" />
<path d="M37.0016 17.7343
L37.3040 17.7343
" />
<path d="M37.3040 17.7343
L37.4854 17.7947
" />
<path d="M37.4854 17.7947
L37.6064 17.9157
" />
<path d="M37.6064 17.9157
L37.6668 18.0367
" />
<path d="M37.6668 18.0367
L37.7273 18.2786
" />
<path d="M37.7273 18.2786
L37.7273 18.4600
" />
<path d="M37.7273 18.4600
L37.6668 18.7019
" />
<path d="M37.6668 18.7019
L37.6064 18.8228
" />
<path d="M37.6064 18.8228
L37.4854 18.9438
" />
<path d="M37.4854 18.9438
L37.3040 19.0043
" />
<path d="M37.3040 19.0043
L37.0016 19.0043
" />
<path d="M37.9692 19.1252
L38.9368 19.1252
" />
<path d="M39.2392 19.0043
L39.2392 17.7343
" />
<path d="M39.2392 17.7343
L39.7230 17.7343
" />
<path d="M39.7230 17.7343
L39.8440 17.7947
" />
<path d="M39.8440 17.7947
L39.9045 17.8552
" />
<path d="M39.9045 17.8552
L39.9649 17.9762
" />
<path d="M39.9649 17.9762
L39.9649 18.1576
" />
<path d="M39.9649 18.1576
L39.9045 18.2786
" />
<path d="M39.9045 18.2786
L39.8440 18.3390
" />
<path d="M39.8440 18.3390
L39.7230 18.3995
" />
<path d="M39.7230 18.3995
L39.2392 18.3995
" />
<path d="M40.5092 19.0043
L40.5092 18.1576
" />
<path d="M40.5092 17.7343
L40.4487 17.7947
" />
<path d="M40.4487 17.7947
L40.5092 17.8552
" />
<path d="M40.5092 17.8552
L40.5697 17.7947
" />
<path d="M40.5697 17.7947
L40.5092 17.7343
" />
<path d="M40.5092 17.7343
L40.5092 17.8552
" />
<path d="M41.1140 18.1576
L41.1140 19.0043
" />
<path d="M41.1140 18.2786
L41.1745 18.2181
" />
<path d="M41.1745 18.2181
L41.2954 18.1576
" />
<path d="M41.2954 18.1576
L41.4768 18.1576
" />
<path d="M41.4768 18.1576
L41.5978 18.2181
" />
<path d="M41.5978 18.2181
L41.6583 18.3390
" />
<path d="M41.6583 18.3390
L41.6583 19.0043
" />
<path d="M42.9283 19.0043
L42.2026 19.0043
" />
<path d="M42.5654 19.0043
L42.5654 17.7343
" />
<path d="M42.5654 17.7343
L42.4445 17.9157
" />
<path d="M42.4445 17.9157
L42.3235 18.0367
" />
<path d="M42.3235 18.0367
L42.2026 18.0971
" />
<path d="M44.1983 19.0043
L43.7749 18.3995
" />
<path d="M43.4726 19.0043
L43.4726 17.7343
" />
<path d="M43.4726 17.7343
L43.9564 17.7343
" />
<path d="M43.9564 17.7343
L44.0773 17.7947
" />
<path d="M44.0773 17.7947
L44.1378 17.8552
" />
<path d="M44.1378 17.8552
L44.1983 17.9762
" />
<path d="M44.1983 17.9762
L44.1983 18.1576
" />
<path d="M44.1983 18.1576
L44.1378 18.2786
" />
<path d="M44.1378 18.2786
L44.0773 18.3390
" />
<path d="M44.0773 18.3390
L43.9564 18.3995
" />
<path d="M43.9564 18.3995
L43.4726 18.3995
" />
<path d="M44.7426 19.0043
L44.7426 18.1576
" />
<path d="M44.7426 17.7343
L44.6821 17.7947
" />
<path d="M44.6821 17.7947
L44.7426 17.8552
" />
<path d="M44.7426 17.8552
L44.8030 17.7947
" />
<path d="M44.8030 17.7947
L44.7426 17.7343
" />
<path d="M44.7426 17.7343
L44.7426 17.8552
" />
<path d="M45.8916 18.1576
L45.8916 19.1857
" />
<path d="M45.8916 19.1857
L45.8311 19.3067
" />
<path d="M45.8311 19.3067
L45.7706 19.3671
" />
<path d="M45.7706 19.3671
L45.6497 19.4276
" />
<path d="M45.6497 19.4276
L45.4683 19.4276
" />
<path d="M45.4683 19.4276
L45.3473 19.3671
" />
<path d="M45.8916 18.9438
L45.7706 19.0043
" />
<path d="M45.7706 19.0043
L45.5287 19.0043
" />
<path d="M45.5287 19.0043
L45.4078 18.9438
" />
<path d="M45.4078 18.9438
L45.3473 18.8833
" />
<path d="M45.3473 18.8833
L45.2868 18.7624
" />
<path d="M45.2868 18.7624
L45.2868 18.3995
" />
<path d="M45.2868 18.3995
L45.3473 18.2786
" />
<path d="M45.3473 18.2786
L45.4078 18.2181
" />
<path d="M45.4078 18.2181
L45.5287 18.1576
" />
<path d="M45.5287 18.1576
L45.7706 18.1576
" />
<path d="M45.7706 18.1576
L45.8916 18.2181
" />
<path d="M46.4964 19.0043
L46.4964 17.7343
" />
<path d="M47.0406 19.0043
L47.0406 18.3390
" />
<path d="M47.0406 18.3390
L46.9802 18.2181
" />
<path d="M46.9802 18.2181
L46.8592 18.1576
" />
<path d="M46.8592 18.1576
L46.6778 18.1576
" />
<path d="M46.6778 18.1576
L46.5568 18.2181
" />
<path d="M46.5568 18.2181
L46.4964 18.2786
" />
<path d="M47.4640 18.1576
L47.9478 18.1576
" />
<path d="M47.6454 17.7343
L47.6454 18.8228
" />
<path d="M47.6454 18.8228
L47.7059 18.9438
" />
<path d="M47.7059 18.9438
L47.8268 19.0043
" />
<path d="M47.8268 19.0043
L47.9478 19.0043
" />
</g></g>
<g style="fill:none; 
stroke:#AFAFAF; stroke-width:0.1500; stroke-opacity:1; 
stroke-linecap:round; stroke-linejoin:round;">
<g transform="rotate(-90.000000 24.0899 18.4250)">
<text x="24.0899" y="18.9250"
textLength="4.5357" font-size="1.3333" lengthAdjust="spacingAndGlyphs"
text-anchor="middle" opacity="0">REF**</text>
</g>
<g class="stroked-text"><desc>REF**</desc>
<path d="M24.5448 19.7583
L24.0686 20.0917
" />
<path d="M24.5448 20.3298
L23.5448 20.3298
" />
<path d="M23.5448 20.3298
L23.5448 19.9488
" />
<path d="M23.5448 19.9488
L23.5924 19.8536
" />
<path d="M23.5924 19.8536
L23.6400 19.8060
" />
<path d="M23.6400 19.8060
L23.7352 19.7583
" />
<path d="M23.7352 19.7583
L23.8781 19.7583
" />
<path d="M23.8781 19.7583
L23.9733 19.8060
" />
<path d="M23.9733 19.8060
L24.0209 19.8536
" />
<path d="M24.0209 19.8536
L24.0686 19.9488
" />
<path d="M24.0686 19.9488
L24.0686 20.3298
" />
<path d="M24.0209 19.3298
L24.0209 18.9964
" />
<path d="M24.5448 18.8536
L24.5448 19.3298
" />
<path d="M24.5448 19.3298
L23.5448 19.3298
" />
<path d="M23.5448 19.3298
L23.5448 18.8536
" />
<path d="M24.0209 18.0917
L24.0209 18.4250
" />
<path d="M24.5448 18.4250
L23.5448 18.4250
" />
<path d="M23.5448 18.4250
L23.5448 17.9488
" />
<path d="M23.5448 17.4250
L23.7828 17.4250
" />
<path d="M23.6876 17.6631
L23.7828 17.4250
" />
<path d="M23.7828 17.4250
L23.6876 17.1869
" />
<path d="M23.9733 17.5679
L23.7828 17.4250
" />
<path d="M23.7828 17.4250
L23.9733 17.2821
" />
<path d="M23.5448 16.6631
L23.7828 16.6631
" />
<path d="M23.6876 16.9012
L23.7828 16.6631
" />
<path d="M23.7828 16.6631
L23.6876 16.4250
" />
<path d="M23.9733 16.8060
L23.7828 16.6631
" />
<path d="M23.7828 16.6631
L23.9733 16.5202
" />
</g></g>
<g style="fill:none; 
stroke:#AFAFAF; stroke-width:0.1000; stroke-opacity:1; 
stroke-linecap:round; stroke-linejoin:round;">
<path d="M21.8199 4.1550
L22.8199 4.1550
" />
<path d="M21.8199 4.7550
L21.8199 4.1550
" />
<path d="M21.8199 9.2350
L22.8199 9.2350
" />
<path d="M21.8199 9.8350
L21.8199 9.2350
" />
<path d="M21.8199 14.3150
L22.8199 14.3150
" />
<path d="M21.8199 14.9150
L21.8199 14.3150
" />
<path d="M21.8199 19.3950
L22.8199 19.3950
" />
<path d="M21.8199 19.9950
L21.8199 19.3950
" />
<path d="M21.8199 24.4750
L22.8199 24.4750
" />
<path d="M21.8199 25.0750
L21.8199 24.4750
" />
<path d="M21.8199 29.5550
L22.8199 29.5550
" />
<path d="M21.8199 30.1550
L21.8199 29.5550
" />
<path d="M21.8199 34.6350
L22.8199 34.6350
" />
<path d="M21.8199 35.2350
L21.8199 34.6350
" />
<path d="M22.8199 0.5450
L24.7249 0.5450
" />
<path d="M22.8199 4.7550
L21.8199 4.7550
" />
<path d="M22.8199 9.8350
L21.8199 9.8350
" />
<path d="M22.8199 14.9150
L21.8199 14.9150
" />
<path d="M22.8199 19.9950
L21.8199 19.9950
" />
<path d="M22.8199 25.0750
L21.8199 25.0750
" />
<path d="M22.8199 30.1550
L21.8199 30.1550
" />
<path d="M22.8199 35.2350
L21.8199 35.2350
" />
<path d="M22.8199 36.3050
L22.8199 0.5450
" />
<path d="M24.7249 0.5450
L25.3599 1.1800
" />
<path d="M25.3599 1.1800
L25.3599 36.3050
" />
<path d="M25.3599 1.6150
L26.3599 1.6150
" />
<path d="M25.3599 6.6950
L26.3599 6.6950
" />
<path d="M25.3599 11.7750
L26.3599 11.7750
" />
<path d="M25.3599 16.8550
L26.3599 16.8550
" />
<path d="M25.3599 21.9350
L26.3599 21.9350
" />
<path d="M25.3599 27.0150
L26.3599 27.0150
" />
<path d="M25.3599 32.0950
L26.3599 32.0950
" />
<path d="M25.3599 36.3050
L22.8199 36.3050
" />
<path d="M26.3599 1.6150
L26.3599 2.2150
" />
<path d="M26.3599 2.2150
L25.3599 2.2150
" />
<path d="M26.3599 6.6950
L26.3599 7.2950
" />
<path d="M26.3599 7.2950
L25.3599 7.2950
" />
<path d="M26.3599 11.7750
L26.3599 12.3750
" />
<path d="M26.3599 12.3750
L25.3599 12.3750
" />
<path d="M26.3599 16.8550
L26.3599 17.4550
" />
<path d="M26.3599 17.4550
L25.3599 17.4550
" />
<path d="M26.3599 21.9350
L26.3599 22.5350
" />
<path d="M26.3599 22.5350
L25.3599 22.5350
" />
<path d="M26.3599 27.0150
L26.3599 27.6150
" />
<path d="M26.3599 27.6150
L25.3599 27.6150
" />
<path d="M26.3599 32.0950
L26.3599 32.6950
" />
<path d="M26.3599 32.6950
L25.3599 32.6950
" />
</g> 
</svg>
