<?xml version="1.0" standalone="no"?>
 <!DOCTYPE svg PUBLIC "-//W3C//DTD SVG 1.1//EN" 
 "http://www.w3.org/Graphics/SVG/1.1/DTD/svg11.dtd"> 
<svg
  xmlns:svg="http://www.w3.org/2000/svg"
  xmlns="http://www.w3.org/2000/svg"
  xmlns:xlink="http://www.w3.org/1999/xlink"
  version="1.1"
  width="38.3794mm" height="31.0388mm" viewBox="0.0000 0.0000 38.3794 31.0388">
<title>SVG Image created as working-brd.svg date 2024/04/15 11:02:14 </title>
  <desc>Image generated by PCBNEW </desc>
<g style="fill:#000000; fill-opacity:1.0000;stroke:#000000; stroke-opacity:1.0000;
stroke-linecap:round; stroke-linejoin:round;"
 transform="translate(0 0) scale(1 1)">
<path style="fill:#C83434; fill-opacity:1.0000; stroke:none;fill-rule:evenodd;"
d="M 16.5414,1.2750
16.5414,0.7750
18.5414,0.7750
18.5414,1.2750
Z" /> 
<path style="fill:#C83434; fill-opacity:1.0000; stroke:none;fill-rule:evenodd;"
d="M 19.8414,1.2750
19.8414,0.7750
21.8414,0.7750
21.8414,1.2750
Z" /> 
<path style="fill:#C83434; fill-opacity:1.0000; stroke:none;fill-rule:evenodd;"
d="M 16.5414,2.2750
16.5414,1.7750
18.5414,1.7750
18.5414,2.2750
Z" /> 
<path style="fill:#C83434; fill-opacity:1.0000; stroke:none;fill-rule:evenodd;"
d="M 19.8414,2.2750
19.8414,1.7750
21.8414,1.7750
21.8414,2.2750
Z" /> 
<path style="fill:#C83434; fill-opacity:1.0000; stroke:none;fill-rule:evenodd;"
d="M 16.5414,3.2750
16.5414,2.7750
18.5414,2.7750
18.5414,3.2750
Z" /> 
<path style="fill:#C83434; fill-opacity:1.0000; stroke:none;fill-rule:evenodd;"
d="M 19.8414,3.2750
19.8414,2.7750
21.8414,2.7750
21.8414,3.2750
Z" /> 
<path style="fill:#C83434; fill-opacity:1.0000; stroke:none;fill-rule:evenodd;"
d="M 16.5414,4.2750
16.5414,3.7750
18.5414,3.7750
18.5414,4.2750
Z" /> 
<path style="fill:#C83434; fill-opacity:1.0000; stroke:none;fill-rule:evenodd;"
d="M 19.8414,4.2750
19.8414,3.7750
21.8414,3.7750
21.8414,4.2750
Z" /> 
<path style="fill:#C83434; fill-opacity:1.0000; stroke:none;fill-rule:evenodd;"
d="M 16.5414,5.2750
16.5414,4.7750
18.5414,4.7750
18.5414,5.2750
Z" /> 
<path style="fill:#C83434; fill-opacity:1.0000; stroke:none;fill-rule:evenodd;"
d="M 19.8414,5.2750
19.8414,4.7750
21.8414,4.7750
21.8414,5.2750
Z" /> 
<path style="fill:#C83434; fill-opacity:1.0000; stroke:none;fill-rule:evenodd;"
d="M 16.5414,6.2750
16.5414,5.7750
18.5414,5.7750
18.5414,6.2750
Z" /> 
<path style="fill:#C83434; fill-opacity:1.0000; stroke:none;fill-rule:evenodd;"
d="M 19.8414,6.2750
19.8414,5.7750
21.8414,5.7750
21.8414,6.2750
Z" /> 
<path style="fill:#C83434; fill-opacity:1.0000; stroke:none;fill-rule:evenodd;"
d="M 16.5414,7.2750
16.5414,6.7750
18.5414,6.7750
18.5414,7.2750
Z" /> 
<path style="fill:#C83434; fill-opacity:1.0000; stroke:none;fill-rule:evenodd;"
d="M 19.8414,7.2750
19.8414,6.7750
21.8414,6.7750
21.8414,7.2750
Z" /> 
<path style="fill:#C83434; fill-opacity:1.0000; stroke:none;fill-rule:evenodd;"
d="M 16.5414,8.2750
16.5414,7.7750
18.5414,7.7750
18.5414,8.2750
Z" /> 
<path style="fill:#C83434; fill-opacity:1.0000; stroke:none;fill-rule:evenodd;"
d="M 19.8414,8.2750
19.8414,7.7750
21.8414,7.7750
21.8414,8.2750
Z" /> 
<path style="fill:#C83434; fill-opacity:1.0000; stroke:none;fill-rule:evenodd;"
d="M 16.5414,9.2750
16.5414,8.7750
18.5414,8.7750
18.5414,9.2750
Z" /> 
<path style="fill:#C83434; fill-opacity:1.0000; stroke:none;fill-rule:evenodd;"
d="M 19.8414,9.2750
19.8414,8.7750
21.8414,8.7750
21.8414,9.2750
Z" /> 
<path style="fill:#C83434; fill-opacity:1.0000; stroke:none;fill-rule:evenodd;"
d="M 16.5414,10.2750
16.5414,9.7750
18.5414,9.7750
18.5414,10.2750
Z" /> 
<path style="fill:#C83434; fill-opacity:1.0000; stroke:none;fill-rule:evenodd;"
d="M 19.8414,10.2750
19.8414,9.7750
21.8414,9.7750
21.8414,10.2750
Z" /> 
<path style="fill:#C83434; fill-opacity:1.0000; stroke:none;fill-rule:evenodd;"
d="M 16.5414,11.2750
16.5414,10.7750
18.5414,10.7750
18.5414,11.2750
Z" /> 
<path style="fill:#C83434; fill-opacity:1.0000; stroke:none;fill-rule:evenodd;"
d="M 19.8414,11.2750
19.8414,10.7750
21.8414,10.7750
21.8414,11.2750
Z" /> 
<path style="fill:#C83434; fill-opacity:1.0000; stroke:none;fill-rule:evenodd;"
d="M 16.5414,12.2750
16.5414,11.7750
18.5414,11.7750
18.5414,12.2750
Z" /> 
<path style="fill:#C83434; fill-opacity:1.0000; stroke:none;fill-rule:evenodd;"
d="M 19.8414,12.2750
19.8414,11.7750
21.8414,11.7750
21.8414,12.2750
Z" /> 
<path style="fill:#C83434; fill-opacity:1.0000; stroke:none;fill-rule:evenodd;"
d="M 16.5414,13.2750
16.5414,12.7750
18.5414,12.7750
18.5414,13.2750
Z" /> 
<path style="fill:#C83434; fill-opacity:1.0000; stroke:none;fill-rule:evenodd;"
d="M 19.8414,13.2750
19.8414,12.7750
21.8414,12.7750
21.8414,13.2750
Z" /> 
<path style="fill:#C83434; fill-opacity:1.0000; stroke:none;fill-rule:evenodd;"
d="M 16.5414,14.2750
16.5414,13.7750
18.5414,13.7750
18.5414,14.2750
Z" /> 
<path style="fill:#C83434; fill-opacity:1.0000; stroke:none;fill-rule:evenodd;"
d="M 19.8414,14.2750
19.8414,13.7750
21.8414,13.7750
21.8414,14.2750
Z" /> 
<path style="fill:#C83434; fill-opacity:1.0000; stroke:none;fill-rule:evenodd;"
d="M 16.5414,15.2750
16.5414,14.7750
18.5414,14.7750
18.5414,15.2750
Z" /> 
<path style="fill:#C83434; fill-opacity:1.0000; stroke:none;fill-rule:evenodd;"
d="M 19.8414,15.2750
19.8414,14.7750
21.8414,14.7750
21.8414,15.2750
Z" /> 
<path style="fill:#C83434; fill-opacity:1.0000; stroke:none;fill-rule:evenodd;"
d="M 16.5414,16.2750
16.5414,15.7750
18.5414,15.7750
18.5414,16.2750
Z" /> 
<path style="fill:#C83434; fill-opacity:1.0000; stroke:none;fill-rule:evenodd;"
d="M 19.8414,16.2750
19.8414,15.7750
21.8414,15.7750
21.8414,16.2750
Z" /> 
<path style="fill:#C83434; fill-opacity:1.0000; stroke:none;fill-rule:evenodd;"
d="M 16.5414,17.2750
16.5414,16.7750
18.5414,16.7750
18.5414,17.2750
Z" /> 
<path style="fill:#C83434; fill-opacity:1.0000; stroke:none;fill-rule:evenodd;"
d="M 19.8414,17.2750
19.8414,16.7750
21.8414,16.7750
21.8414,17.2750
Z" /> 
<path style="fill:#C83434; fill-opacity:1.0000; stroke:none;fill-rule:evenodd;"
d="M 16.5414,18.2750
16.5414,17.7750
18.5414,17.7750
18.5414,18.2750
Z" /> 
<path style="fill:#C83434; fill-opacity:1.0000; stroke:none;fill-rule:evenodd;"
d="M 19.8414,18.2750
19.8414,17.7750
21.8414,17.7750
21.8414,18.2750
Z" /> 
<path style="fill:#C83434; fill-opacity:1.0000; stroke:none;fill-rule:evenodd;"
d="M 16.5414,19.2750
16.5414,18.7750
18.5414,18.7750
18.5414,19.2750
Z" /> 
<path style="fill:#C83434; fill-opacity:1.0000; stroke:none;fill-rule:evenodd;"
d="M 19.8414,19.2750
19.8414,18.7750
21.8414,18.7750
21.8414,19.2750
Z" /> 
<path style="fill:#C83434; fill-opacity:1.0000; stroke:none;fill-rule:evenodd;"
d="M 16.5414,20.2750
16.5414,19.7750
18.5414,19.7750
18.5414,20.2750
Z" /> 
<path style="fill:#C83434; fill-opacity:1.0000; stroke:none;fill-rule:evenodd;"
d="M 19.8414,20.2750
19.8414,19.7750
21.8414,19.7750
21.8414,20.2750
Z" /> 
<path style="fill:#C83434; fill-opacity:1.0000; stroke:none;fill-rule:evenodd;"
d="M 16.5414,21.2750
16.5414,20.7750
18.5414,20.7750
18.5414,21.2750
Z" /> 
<path style="fill:#C83434; fill-opacity:1.0000; stroke:none;fill-rule:evenodd;"
d="M 19.8414,21.2750
19.8414,20.7750
21.8414,20.7750
21.8414,21.2750
Z" /> 
<path style="fill:#C83434; fill-opacity:1.0000; stroke:none;fill-rule:evenodd;"
d="M 16.5414,22.2750
16.5414,21.7750
18.5414,21.7750
18.5414,22.2750
Z" /> 
<path style="fill:#C83434; fill-opacity:1.0000; stroke:none;fill-rule:evenodd;"
d="M 19.8414,22.2750
19.8414,21.7750
21.8414,21.7750
21.8414,22.2750
Z" /> 
<path style="fill:#C83434; fill-opacity:1.0000; stroke:none;fill-rule:evenodd;"
d="M 16.5414,23.2750
16.5414,22.7750
18.5414,22.7750
18.5414,23.2750
Z" /> 
<path style="fill:#C83434; fill-opacity:1.0000; stroke:none;fill-rule:evenodd;"
d="M 19.8414,23.2750
19.8414,22.7750
21.8414,22.7750
21.8414,23.2750
Z" /> 
<path style="fill:#C83434; fill-opacity:1.0000; stroke:none;fill-rule:evenodd;"
d="M 16.5414,24.2750
16.5414,23.7750
18.5414,23.7750
18.5414,24.2750
Z" /> 
<path style="fill:#C83434; fill-opacity:1.0000; stroke:none;fill-rule:evenodd;"
d="M 19.8414,24.2750
19.8414,23.7750
21.8414,23.7750
21.8414,24.2750
Z" /> 
<path style="fill:#C83434; fill-opacity:1.0000; stroke:none;fill-rule:evenodd;"
d="M 16.5414,25.2750
16.5414,24.7750
18.5414,24.7750
18.5414,25.2750
Z" /> 
<path style="fill:#C83434; fill-opacity:1.0000; stroke:none;fill-rule:evenodd;"
d="M 19.8414,25.2750
19.8414,24.7750
21.8414,24.7750
21.8414,25.2750
Z" /> 
<path style="fill:#C83434; fill-opacity:1.0000; stroke:none;fill-rule:evenodd;"
d="M 16.5414,26.2750
16.5414,25.7750
18.5414,25.7750
18.5414,26.2750
Z" /> 
<path style="fill:#C83434; fill-opacity:1.0000; stroke:none;fill-rule:evenodd;"
d="M 19.8414,26.2750
19.8414,25.7750
21.8414,25.7750
21.8414,26.2750
Z" /> 
<path style="fill:#C83434; fill-opacity:1.0000; stroke:none;fill-rule:evenodd;"
d="M 16.5414,27.2750
16.5414,26.7750
18.5414,26.7750
18.5414,27.2750
Z" /> 
<path style="fill:#C83434; fill-opacity:1.0000; stroke:none;fill-rule:evenodd;"
d="M 19.8414,27.2750
19.8414,26.7750
21.8414,26.7750
21.8414,27.2750
Z" /> 
<path style="fill:#C83434; fill-opacity:1.0000; stroke:none;fill-rule:evenodd;"
d="M 16.5414,28.2750
16.5414,27.7750
18.5414,27.7750
18.5414,28.2750
Z" /> 
<path style="fill:#C83434; fill-opacity:1.0000; stroke:none;fill-rule:evenodd;"
d="M 19.8414,28.2750
19.8414,27.7750
21.8414,27.7750
21.8414,28.2750
Z" /> 
<path style="fill:#C83434; fill-opacity:1.0000; stroke:none;fill-rule:evenodd;"
d="M 16.5414,29.2750
16.5414,28.7750
18.5414,28.7750
18.5414,29.2750
Z" /> 
<path style="fill:#C83434; fill-opacity:1.0000; stroke:none;fill-rule:evenodd;"
d="M 19.8414,29.2750
19.8414,28.7750
21.8414,28.7750
21.8414,29.2750
Z" /> 
<path style="fill:#C83434; fill-opacity:1.0000; stroke:none;fill-rule:evenodd;"
d="M 16.5414,30.2750
16.5414,29.7750
18.5414,29.7750
18.5414,30.2750
Z" /> 
<path style="fill:#C83434; fill-opacity:1.0000; stroke:none;fill-rule:evenodd;"
d="M 19.8414,30.2750
19.8414,29.7750
21.8414,29.7750
21.8414,30.2750
Z" /> 
<path style="fill:#D864FF; fill-opacity:0.4000; stroke:none;fill-rule:evenodd;"
d="M 16.5414,1.2750
16.5414,0.7750
18.5414,0.7750
18.5414,1.2750
Z" /> 
<path style="fill:#D864FF; fill-opacity:0.4000; stroke:none;fill-rule:evenodd;"
d="M 19.8414,1.2750
19.8414,0.7750
21.8414,0.7750
21.8414,1.2750
Z" /> 
<path style="fill:#D864FF; fill-opacity:0.4000; stroke:none;fill-rule:evenodd;"
d="M 16.5414,2.2750
16.5414,1.7750
18.5414,1.7750
18.5414,2.2750
Z" /> 
<path style="fill:#D864FF; fill-opacity:0.4000; stroke:none;fill-rule:evenodd;"
d="M 19.8414,2.2750
19.8414,1.7750
21.8414,1.7750
21.8414,2.2750
Z" /> 
<path style="fill:#D864FF; fill-opacity:0.4000; stroke:none;fill-rule:evenodd;"
d="M 16.5414,3.2750
16.5414,2.7750
18.5414,2.7750
18.5414,3.2750
Z" /> 
<path style="fill:#D864FF; fill-opacity:0.4000; stroke:none;fill-rule:evenodd;"
d="M 19.8414,3.2750
19.8414,2.7750
21.8414,2.7750
21.8414,3.2750
Z" /> 
<path style="fill:#D864FF; fill-opacity:0.4000; stroke:none;fill-rule:evenodd;"
d="M 16.5414,4.2750
16.5414,3.7750
18.5414,3.7750
18.5414,4.2750
Z" /> 
<path style="fill:#D864FF; fill-opacity:0.4000; stroke:none;fill-rule:evenodd;"
d="M 19.8414,4.2750
19.8414,3.7750
21.8414,3.7750
21.8414,4.2750
Z" /> 
<path style="fill:#D864FF; fill-opacity:0.4000; stroke:none;fill-rule:evenodd;"
d="M 16.5414,5.2750
16.5414,4.7750
18.5414,4.7750
18.5414,5.2750
Z" /> 
<path style="fill:#D864FF; fill-opacity:0.4000; stroke:none;fill-rule:evenodd;"
d="M 19.8414,5.2750
19.8414,4.7750
21.8414,4.7750
21.8414,5.2750
Z" /> 
<path style="fill:#D864FF; fill-opacity:0.4000; stroke:none;fill-rule:evenodd;"
d="M 16.5414,6.2750
16.5414,5.7750
18.5414,5.7750
18.5414,6.2750
Z" /> 
<path style="fill:#D864FF; fill-opacity:0.4000; stroke:none;fill-rule:evenodd;"
d="M 19.8414,6.2750
19.8414,5.7750
21.8414,5.7750
21.8414,6.2750
Z" /> 
<path style="fill:#D864FF; fill-opacity:0.4000; stroke:none;fill-rule:evenodd;"
d="M 16.5414,7.2750
16.5414,6.7750
18.5414,6.7750
18.5414,7.2750
Z" /> 
<path style="fill:#D864FF; fill-opacity:0.4000; stroke:none;fill-rule:evenodd;"
d="M 19.8414,7.2750
19.8414,6.7750
21.8414,6.7750
21.8414,7.2750
Z" /> 
<path style="fill:#D864FF; fill-opacity:0.4000; stroke:none;fill-rule:evenodd;"
d="M 16.5414,8.2750
16.5414,7.7750
18.5414,7.7750
18.5414,8.2750
Z" /> 
<path style="fill:#D864FF; fill-opacity:0.4000; stroke:none;fill-rule:evenodd;"
d="M 19.8414,8.2750
19.8414,7.7750
21.8414,7.7750
21.8414,8.2750
Z" /> 
<path style="fill:#D864FF; fill-opacity:0.4000; stroke:none;fill-rule:evenodd;"
d="M 16.5414,9.2750
16.5414,8.7750
18.5414,8.7750
18.5414,9.2750
Z" /> 
<path style="fill:#D864FF; fill-opacity:0.4000; stroke:none;fill-rule:evenodd;"
d="M 19.8414,9.2750
19.8414,8.7750
21.8414,8.7750
21.8414,9.2750
Z" /> 
<path style="fill:#D864FF; fill-opacity:0.4000; stroke:none;fill-rule:evenodd;"
d="M 16.5414,10.2750
16.5414,9.7750
18.5414,9.7750
18.5414,10.2750
Z" /> 
<path style="fill:#D864FF; fill-opacity:0.4000; stroke:none;fill-rule:evenodd;"
d="M 19.8414,10.2750
19.8414,9.7750
21.8414,9.7750
21.8414,10.2750
Z" /> 
<path style="fill:#D864FF; fill-opacity:0.4000; stroke:none;fill-rule:evenodd;"
d="M 16.5414,11.2750
16.5414,10.7750
18.5414,10.7750
18.5414,11.2750
Z" /> 
<path style="fill:#D864FF; fill-opacity:0.4000; stroke:none;fill-rule:evenodd;"
d="M 19.8414,11.2750
19.8414,10.7750
21.8414,10.7750
21.8414,11.2750
Z" /> 
<path style="fill:#D864FF; fill-opacity:0.4000; stroke:none;fill-rule:evenodd;"
d="M 16.5414,12.2750
16.5414,11.7750
18.5414,11.7750
18.5414,12.2750
Z" /> 
<path style="fill:#D864FF; fill-opacity:0.4000; stroke:none;fill-rule:evenodd;"
d="M 19.8414,12.2750
19.8414,11.7750
21.8414,11.7750
21.8414,12.2750
Z" /> 
<path style="fill:#D864FF; fill-opacity:0.4000; stroke:none;fill-rule:evenodd;"
d="M 16.5414,13.2750
16.5414,12.7750
18.5414,12.7750
18.5414,13.2750
Z" /> 
<path style="fill:#D864FF; fill-opacity:0.4000; stroke:none;fill-rule:evenodd;"
d="M 19.8414,13.2750
19.8414,12.7750
21.8414,12.7750
21.8414,13.2750
Z" /> 
<path style="fill:#D864FF; fill-opacity:0.4000; stroke:none;fill-rule:evenodd;"
d="M 16.5414,14.2750
16.5414,13.7750
18.5414,13.7750
18.5414,14.2750
Z" /> 
<path style="fill:#D864FF; fill-opacity:0.4000; stroke:none;fill-rule:evenodd;"
d="M 19.8414,14.2750
19.8414,13.7750
21.8414,13.7750
21.8414,14.2750
Z" /> 
<path style="fill:#D864FF; fill-opacity:0.4000; stroke:none;fill-rule:evenodd;"
d="M 16.5414,15.2750
16.5414,14.7750
18.5414,14.7750
18.5414,15.2750
Z" /> 
<path style="fill:#D864FF; fill-opacity:0.4000; stroke:none;fill-rule:evenodd;"
d="M 19.8414,15.2750
19.8414,14.7750
21.8414,14.7750
21.8414,15.2750
Z" /> 
<path style="fill:#D864FF; fill-opacity:0.4000; stroke:none;fill-rule:evenodd;"
d="M 16.5414,16.2750
16.5414,15.7750
18.5414,15.7750
18.5414,16.2750
Z" /> 
<path style="fill:#D864FF; fill-opacity:0.4000; stroke:none;fill-rule:evenodd;"
d="M 19.8414,16.2750
19.8414,15.7750
21.8414,15.7750
21.8414,16.2750
Z" /> 
<path style="fill:#D864FF; fill-opacity:0.4000; stroke:none;fill-rule:evenodd;"
d="M 16.5414,17.2750
16.5414,16.7750
18.5414,16.7750
18.5414,17.2750
Z" /> 
<path style="fill:#D864FF; fill-opacity:0.4000; stroke:none;fill-rule:evenodd;"
d="M 19.8414,17.2750
19.8414,16.7750
21.8414,16.7750
21.8414,17.2750
Z" /> 
<path style="fill:#D864FF; fill-opacity:0.4000; stroke:none;fill-rule:evenodd;"
d="M 16.5414,18.2750
16.5414,17.7750
18.5414,17.7750
18.5414,18.2750
Z" /> 
<path style="fill:#D864FF; fill-opacity:0.4000; stroke:none;fill-rule:evenodd;"
d="M 19.8414,18.2750
19.8414,17.7750
21.8414,17.7750
21.8414,18.2750
Z" /> 
<path style="fill:#D864FF; fill-opacity:0.4000; stroke:none;fill-rule:evenodd;"
d="M 16.5414,19.2750
16.5414,18.7750
18.5414,18.7750
18.5414,19.2750
Z" /> 
<path style="fill:#D864FF; fill-opacity:0.4000; stroke:none;fill-rule:evenodd;"
d="M 19.8414,19.2750
19.8414,18.7750
21.8414,18.7750
21.8414,19.2750
Z" /> 
<path style="fill:#D864FF; fill-opacity:0.4000; stroke:none;fill-rule:evenodd;"
d="M 16.5414,20.2750
16.5414,19.7750
18.5414,19.7750
18.5414,20.2750
Z" /> 
<path style="fill:#D864FF; fill-opacity:0.4000; stroke:none;fill-rule:evenodd;"
d="M 19.8414,20.2750
19.8414,19.7750
21.8414,19.7750
21.8414,20.2750
Z" /> 
<path style="fill:#D864FF; fill-opacity:0.4000; stroke:none;fill-rule:evenodd;"
d="M 16.5414,21.2750
16.5414,20.7750
18.5414,20.7750
18.5414,21.2750
Z" /> 
<path style="fill:#D864FF; fill-opacity:0.4000; stroke:none;fill-rule:evenodd;"
d="M 19.8414,21.2750
19.8414,20.7750
21.8414,20.7750
21.8414,21.2750
Z" /> 
<path style="fill:#D864FF; fill-opacity:0.4000; stroke:none;fill-rule:evenodd;"
d="M 16.5414,22.2750
16.5414,21.7750
18.5414,21.7750
18.5414,22.2750
Z" /> 
<path style="fill:#D864FF; fill-opacity:0.4000; stroke:none;fill-rule:evenodd;"
d="M 19.8414,22.2750
19.8414,21.7750
21.8414,21.7750
21.8414,22.2750
Z" /> 
<path style="fill:#D864FF; fill-opacity:0.4000; stroke:none;fill-rule:evenodd;"
d="M 16.5414,23.2750
16.5414,22.7750
18.5414,22.7750
18.5414,23.2750
Z" /> 
<path style="fill:#D864FF; fill-opacity:0.4000; stroke:none;fill-rule:evenodd;"
d="M 19.8414,23.2750
19.8414,22.7750
21.8414,22.7750
21.8414,23.2750
Z" /> 
<path style="fill:#D864FF; fill-opacity:0.4000; stroke:none;fill-rule:evenodd;"
d="M 16.5414,24.2750
16.5414,23.7750
18.5414,23.7750
18.5414,24.2750
Z" /> 
<path style="fill:#D864FF; fill-opacity:0.4000; stroke:none;fill-rule:evenodd;"
d="M 19.8414,24.2750
19.8414,23.7750
21.8414,23.7750
21.8414,24.2750
Z" /> 
<path style="fill:#D864FF; fill-opacity:0.4000; stroke:none;fill-rule:evenodd;"
d="M 16.5414,25.2750
16.5414,24.7750
18.5414,24.7750
18.5414,25.2750
Z" /> 
<path style="fill:#D864FF; fill-opacity:0.4000; stroke:none;fill-rule:evenodd;"
d="M 19.8414,25.2750
19.8414,24.7750
21.8414,24.7750
21.8414,25.2750
Z" /> 
<path style="fill:#D864FF; fill-opacity:0.4000; stroke:none;fill-rule:evenodd;"
d="M 16.5414,26.2750
16.5414,25.7750
18.5414,25.7750
18.5414,26.2750
Z" /> 
<path style="fill:#D864FF; fill-opacity:0.4000; stroke:none;fill-rule:evenodd;"
d="M 19.8414,26.2750
19.8414,25.7750
21.8414,25.7750
21.8414,26.2750
Z" /> 
<path style="fill:#D864FF; fill-opacity:0.4000; stroke:none;fill-rule:evenodd;"
d="M 16.5414,27.2750
16.5414,26.7750
18.5414,26.7750
18.5414,27.2750
Z" /> 
<path style="fill:#D864FF; fill-opacity:0.4000; stroke:none;fill-rule:evenodd;"
d="M 19.8414,27.2750
19.8414,26.7750
21.8414,26.7750
21.8414,27.2750
Z" /> 
<path style="fill:#D864FF; fill-opacity:0.4000; stroke:none;fill-rule:evenodd;"
d="M 16.5414,28.2750
16.5414,27.7750
18.5414,27.7750
18.5414,28.2750
Z" /> 
<path style="fill:#D864FF; fill-opacity:0.4000; stroke:none;fill-rule:evenodd;"
d="M 19.8414,28.2750
19.8414,27.7750
21.8414,27.7750
21.8414,28.2750
Z" /> 
<path style="fill:#D864FF; fill-opacity:0.4000; stroke:none;fill-rule:evenodd;"
d="M 16.5414,29.2750
16.5414,28.7750
18.5414,28.7750
18.5414,29.2750
Z" /> 
<path style="fill:#D864FF; fill-opacity:0.4000; stroke:none;fill-rule:evenodd;"
d="M 19.8414,29.2750
19.8414,28.7750
21.8414,28.7750
21.8414,29.2750
Z" /> 
<path style="fill:#D864FF; fill-opacity:0.4000; stroke:none;fill-rule:evenodd;"
d="M 16.5414,30.2750
16.5414,29.7750
18.5414,29.7750
18.5414,30.2750
Z" /> 
<path style="fill:#D864FF; fill-opacity:0.4000; stroke:none;fill-rule:evenodd;"
d="M 19.8414,30.2750
19.8414,29.7750
21.8414,29.7750
21.8414,30.2750
Z" /> 
<path style="fill:#B4A09A; fill-opacity:0.9000; stroke:none;fill-rule:evenodd;"
d="M 16.5414,1.2750
16.5414,0.7750
18.5414,0.7750
18.5414,1.2750
Z" /> 
<path style="fill:#B4A09A; fill-opacity:0.9000; stroke:none;fill-rule:evenodd;"
d="M 19.8414,1.2750
19.8414,0.7750
21.8414,0.7750
21.8414,1.2750
Z" /> 
<path style="fill:#B4A09A; fill-opacity:0.9000; stroke:none;fill-rule:evenodd;"
d="M 16.5414,2.2750
16.5414,1.7750
18.5414,1.7750
18.5414,2.2750
Z" /> 
<path style="fill:#B4A09A; fill-opacity:0.9000; stroke:none;fill-rule:evenodd;"
d="M 19.8414,2.2750
19.8414,1.7750
21.8414,1.7750
21.8414,2.2750
Z" /> 
<path style="fill:#B4A09A; fill-opacity:0.9000; stroke:none;fill-rule:evenodd;"
d="M 16.5414,3.2750
16.5414,2.7750
18.5414,2.7750
18.5414,3.2750
Z" /> 
<path style="fill:#B4A09A; fill-opacity:0.9000; stroke:none;fill-rule:evenodd;"
d="M 19.8414,3.2750
19.8414,2.7750
21.8414,2.7750
21.8414,3.2750
Z" /> 
<path style="fill:#B4A09A; fill-opacity:0.9000; stroke:none;fill-rule:evenodd;"
d="M 16.5414,4.2750
16.5414,3.7750
18.5414,3.7750
18.5414,4.2750
Z" /> 
<path style="fill:#B4A09A; fill-opacity:0.9000; stroke:none;fill-rule:evenodd;"
d="M 19.8414,4.2750
19.8414,3.7750
21.8414,3.7750
21.8414,4.2750
Z" /> 
<path style="fill:#B4A09A; fill-opacity:0.9000; stroke:none;fill-rule:evenodd;"
d="M 16.5414,5.2750
16.5414,4.7750
18.5414,4.7750
18.5414,5.2750
Z" /> 
<path style="fill:#B4A09A; fill-opacity:0.9000; stroke:none;fill-rule:evenodd;"
d="M 19.8414,5.2750
19.8414,4.7750
21.8414,4.7750
21.8414,5.2750
Z" /> 
<path style="fill:#B4A09A; fill-opacity:0.9000; stroke:none;fill-rule:evenodd;"
d="M 16.5414,6.2750
16.5414,5.7750
18.5414,5.7750
18.5414,6.2750
Z" /> 
<path style="fill:#B4A09A; fill-opacity:0.9000; stroke:none;fill-rule:evenodd;"
d="M 19.8414,6.2750
19.8414,5.7750
21.8414,5.7750
21.8414,6.2750
Z" /> 
<path style="fill:#B4A09A; fill-opacity:0.9000; stroke:none;fill-rule:evenodd;"
d="M 16.5414,7.2750
16.5414,6.7750
18.5414,6.7750
18.5414,7.2750
Z" /> 
<path style="fill:#B4A09A; fill-opacity:0.9000; stroke:none;fill-rule:evenodd;"
d="M 19.8414,7.2750
19.8414,6.7750
21.8414,6.7750
21.8414,7.2750
Z" /> 
<path style="fill:#B4A09A; fill-opacity:0.9000; stroke:none;fill-rule:evenodd;"
d="M 16.5414,8.2750
16.5414,7.7750
18.5414,7.7750
18.5414,8.2750
Z" /> 
<path style="fill:#B4A09A; fill-opacity:0.9000; stroke:none;fill-rule:evenodd;"
d="M 19.8414,8.2750
19.8414,7.7750
21.8414,7.7750
21.8414,8.2750
Z" /> 
<path style="fill:#B4A09A; fill-opacity:0.9000; stroke:none;fill-rule:evenodd;"
d="M 16.5414,9.2750
16.5414,8.7750
18.5414,8.7750
18.5414,9.2750
Z" /> 
<path style="fill:#B4A09A; fill-opacity:0.9000; stroke:none;fill-rule:evenodd;"
d="M 19.8414,9.2750
19.8414,8.7750
21.8414,8.7750
21.8414,9.2750
Z" /> 
<path style="fill:#B4A09A; fill-opacity:0.9000; stroke:none;fill-rule:evenodd;"
d="M 16.5414,10.2750
16.5414,9.7750
18.5414,9.7750
18.5414,10.2750
Z" /> 
<path style="fill:#B4A09A; fill-opacity:0.9000; stroke:none;fill-rule:evenodd;"
d="M 19.8414,10.2750
19.8414,9.7750
21.8414,9.7750
21.8414,10.2750
Z" /> 
<path style="fill:#B4A09A; fill-opacity:0.9000; stroke:none;fill-rule:evenodd;"
d="M 16.5414,11.2750
16.5414,10.7750
18.5414,10.7750
18.5414,11.2750
Z" /> 
<path style="fill:#B4A09A; fill-opacity:0.9000; stroke:none;fill-rule:evenodd;"
d="M 19.8414,11.2750
19.8414,10.7750
21.8414,10.7750
21.8414,11.2750
Z" /> 
<path style="fill:#B4A09A; fill-opacity:0.9000; stroke:none;fill-rule:evenodd;"
d="M 16.5414,12.2750
16.5414,11.7750
18.5414,11.7750
18.5414,12.2750
Z" /> 
<path style="fill:#B4A09A; fill-opacity:0.9000; stroke:none;fill-rule:evenodd;"
d="M 19.8414,12.2750
19.8414,11.7750
21.8414,11.7750
21.8414,12.2750
Z" /> 
<path style="fill:#B4A09A; fill-opacity:0.9000; stroke:none;fill-rule:evenodd;"
d="M 16.5414,13.2750
16.5414,12.7750
18.5414,12.7750
18.5414,13.2750
Z" /> 
<path style="fill:#B4A09A; fill-opacity:0.9000; stroke:none;fill-rule:evenodd;"
d="M 19.8414,13.2750
19.8414,12.7750
21.8414,12.7750
21.8414,13.2750
Z" /> 
<path style="fill:#B4A09A; fill-opacity:0.9000; stroke:none;fill-rule:evenodd;"
d="M 16.5414,14.2750
16.5414,13.7750
18.5414,13.7750
18.5414,14.2750
Z" /> 
<path style="fill:#B4A09A; fill-opacity:0.9000; stroke:none;fill-rule:evenodd;"
d="M 19.8414,14.2750
19.8414,13.7750
21.8414,13.7750
21.8414,14.2750
Z" /> 
<path style="fill:#B4A09A; fill-opacity:0.9000; stroke:none;fill-rule:evenodd;"
d="M 16.5414,15.2750
16.5414,14.7750
18.5414,14.7750
18.5414,15.2750
Z" /> 
<path style="fill:#B4A09A; fill-opacity:0.9000; stroke:none;fill-rule:evenodd;"
d="M 19.8414,15.2750
19.8414,14.7750
21.8414,14.7750
21.8414,15.2750
Z" /> 
<path style="fill:#B4A09A; fill-opacity:0.9000; stroke:none;fill-rule:evenodd;"
d="M 16.5414,16.2750
16.5414,15.7750
18.5414,15.7750
18.5414,16.2750
Z" /> 
<path style="fill:#B4A09A; fill-opacity:0.9000; stroke:none;fill-rule:evenodd;"
d="M 19.8414,16.2750
19.8414,15.7750
21.8414,15.7750
21.8414,16.2750
Z" /> 
<path style="fill:#B4A09A; fill-opacity:0.9000; stroke:none;fill-rule:evenodd;"
d="M 16.5414,17.2750
16.5414,16.7750
18.5414,16.7750
18.5414,17.2750
Z" /> 
<path style="fill:#B4A09A; fill-opacity:0.9000; stroke:none;fill-rule:evenodd;"
d="M 19.8414,17.2750
19.8414,16.7750
21.8414,16.7750
21.8414,17.2750
Z" /> 
<path style="fill:#B4A09A; fill-opacity:0.9000; stroke:none;fill-rule:evenodd;"
d="M 16.5414,18.2750
16.5414,17.7750
18.5414,17.7750
18.5414,18.2750
Z" /> 
<path style="fill:#B4A09A; fill-opacity:0.9000; stroke:none;fill-rule:evenodd;"
d="M 19.8414,18.2750
19.8414,17.7750
21.8414,17.7750
21.8414,18.2750
Z" /> 
<path style="fill:#B4A09A; fill-opacity:0.9000; stroke:none;fill-rule:evenodd;"
d="M 16.5414,19.2750
16.5414,18.7750
18.5414,18.7750
18.5414,19.2750
Z" /> 
<path style="fill:#B4A09A; fill-opacity:0.9000; stroke:none;fill-rule:evenodd;"
d="M 19.8414,19.2750
19.8414,18.7750
21.8414,18.7750
21.8414,19.2750
Z" /> 
<path style="fill:#B4A09A; fill-opacity:0.9000; stroke:none;fill-rule:evenodd;"
d="M 16.5414,20.2750
16.5414,19.7750
18.5414,19.7750
18.5414,20.2750
Z" /> 
<path style="fill:#B4A09A; fill-opacity:0.9000; stroke:none;fill-rule:evenodd;"
d="M 19.8414,20.2750
19.8414,19.7750
21.8414,19.7750
21.8414,20.2750
Z" /> 
<path style="fill:#B4A09A; fill-opacity:0.9000; stroke:none;fill-rule:evenodd;"
d="M 16.5414,21.2750
16.5414,20.7750
18.5414,20.7750
18.5414,21.2750
Z" /> 
<path style="fill:#B4A09A; fill-opacity:0.9000; stroke:none;fill-rule:evenodd;"
d="M 19.8414,21.2750
19.8414,20.7750
21.8414,20.7750
21.8414,21.2750
Z" /> 
<path style="fill:#B4A09A; fill-opacity:0.9000; stroke:none;fill-rule:evenodd;"
d="M 16.5414,22.2750
16.5414,21.7750
18.5414,21.7750
18.5414,22.2750
Z" /> 
<path style="fill:#B4A09A; fill-opacity:0.9000; stroke:none;fill-rule:evenodd;"
d="M 19.8414,22.2750
19.8414,21.7750
21.8414,21.7750
21.8414,22.2750
Z" /> 
<path style="fill:#B4A09A; fill-opacity:0.9000; stroke:none;fill-rule:evenodd;"
d="M 16.5414,23.2750
16.5414,22.7750
18.5414,22.7750
18.5414,23.2750
Z" /> 
<path style="fill:#B4A09A; fill-opacity:0.9000; stroke:none;fill-rule:evenodd;"
d="M 19.8414,23.2750
19.8414,22.7750
21.8414,22.7750
21.8414,23.2750
Z" /> 
<path style="fill:#B4A09A; fill-opacity:0.9000; stroke:none;fill-rule:evenodd;"
d="M 16.5414,24.2750
16.5414,23.7750
18.5414,23.7750
18.5414,24.2750
Z" /> 
<path style="fill:#B4A09A; fill-opacity:0.9000; stroke:none;fill-rule:evenodd;"
d="M 19.8414,24.2750
19.8414,23.7750
21.8414,23.7750
21.8414,24.2750
Z" /> 
<path style="fill:#B4A09A; fill-opacity:0.9000; stroke:none;fill-rule:evenodd;"
d="M 16.5414,25.2750
16.5414,24.7750
18.5414,24.7750
18.5414,25.2750
Z" /> 
<path style="fill:#B4A09A; fill-opacity:0.9000; stroke:none;fill-rule:evenodd;"
d="M 19.8414,25.2750
19.8414,24.7750
21.8414,24.7750
21.8414,25.2750
Z" /> 
<path style="fill:#B4A09A; fill-opacity:0.9000; stroke:none;fill-rule:evenodd;"
d="M 16.5414,26.2750
16.5414,25.7750
18.5414,25.7750
18.5414,26.2750
Z" /> 
<path style="fill:#B4A09A; fill-opacity:0.9000; stroke:none;fill-rule:evenodd;"
d="M 19.8414,26.2750
19.8414,25.7750
21.8414,25.7750
21.8414,26.2750
Z" /> 
<path style="fill:#B4A09A; fill-opacity:0.9000; stroke:none;fill-rule:evenodd;"
d="M 16.5414,27.2750
16.5414,26.7750
18.5414,26.7750
18.5414,27.2750
Z" /> 
<path style="fill:#B4A09A; fill-opacity:0.9000; stroke:none;fill-rule:evenodd;"
d="M 19.8414,27.2750
19.8414,26.7750
21.8414,26.7750
21.8414,27.2750
Z" /> 
<path style="fill:#B4A09A; fill-opacity:0.9000; stroke:none;fill-rule:evenodd;"
d="M 16.5414,28.2750
16.5414,27.7750
18.5414,27.7750
18.5414,28.2750
Z" /> 
<path style="fill:#B4A09A; fill-opacity:0.9000; stroke:none;fill-rule:evenodd;"
d="M 19.8414,28.2750
19.8414,27.7750
21.8414,27.7750
21.8414,28.2750
Z" /> 
<path style="fill:#B4A09A; fill-opacity:0.9000; stroke:none;fill-rule:evenodd;"
d="M 16.5414,29.2750
16.5414,28.7750
18.5414,28.7750
18.5414,29.2750
Z" /> 
<path style="fill:#B4A09A; fill-opacity:0.9000; stroke:none;fill-rule:evenodd;"
d="M 19.8414,29.2750
19.8414,28.7750
21.8414,28.7750
21.8414,29.2750
Z" /> 
<path style="fill:#B4A09A; fill-opacity:0.9000; stroke:none;fill-rule:evenodd;"
d="M 16.5414,30.2750
16.5414,29.7750
18.5414,29.7750
18.5414,30.2750
Z" /> 
<path style="fill:#B4A09A; fill-opacity:0.9000; stroke:none;fill-rule:evenodd;"
d="M 19.8414,30.2750
19.8414,29.7750
21.8414,29.7750
21.8414,30.2750
Z" /> 
</g>
<g style="fill:none; 
stroke:#F2EDA1; stroke-width:0.1588; stroke-opacity:1; 
stroke-linecap:round; stroke-linejoin:round;">
<text x="19.1914" y="16.1600"
textLength="5.6651" font-size="1.6933" lengthAdjust="spacingAndGlyphs"
text-anchor="middle" opacity="0">REF**</text>
<g class="stroked-text"><desc>REF**</desc>
<path d="M17.4980 16.1043
L17.0747 15.4995
" />
<path d="M16.7723 16.1043
L16.7723 14.8343
" />
<path d="M16.7723 14.8343
L17.2561 14.8343
" />
<path d="M17.2561 14.8343
L17.3771 14.8947
" />
<path d="M17.3771 14.8947
L17.4376 14.9552
" />
<path d="M17.4376 14.9552
L17.4980 15.0762
" />
<path d="M17.4980 15.0762
L17.4980 15.2576
" />
<path d="M17.4980 15.2576
L17.4376 15.3786
" />
<path d="M17.4376 15.3786
L17.3771 15.4390
" />
<path d="M17.3771 15.4390
L17.2561 15.4995
" />
<path d="M17.2561 15.4995
L16.7723 15.4995
" />
<path d="M18.0423 15.4390
L18.4656 15.4390
" />
<path d="M18.6471 16.1043
L18.0423 16.1043
" />
<path d="M18.0423 16.1043
L18.0423 14.8343
" />
<path d="M18.0423 14.8343
L18.6471 14.8343
" />
<path d="M19.6147 15.4390
L19.1914 15.4390
" />
<path d="M19.1914 16.1043
L19.1914 14.8343
" />
<path d="M19.1914 14.8343
L19.7961 14.8343
" />
<path d="M20.4614 14.8343
L20.4614 15.1367
" />
<path d="M20.1590 15.0157
L20.4614 15.1367
" />
<path d="M20.4614 15.1367
L20.7637 15.0157
" />
<path d="M20.2799 15.3786
L20.4614 15.1367
" />
<path d="M20.4614 15.1367
L20.6428 15.3786
" />
<path d="M21.4290 14.8343
L21.4290 15.1367
" />
<path d="M21.1266 15.0157
L21.4290 15.1367
" />
<path d="M21.4290 15.1367
L21.7314 15.0157
" />
<path d="M21.2476 15.3786
L21.4290 15.1367
" />
<path d="M21.4290 15.1367
L21.6104 15.3786
" />
</g></g>
<g style="fill:none; 
stroke:#F2EDA1; stroke-width:0.1200; stroke-opacity:1; 
stroke-linecap:round; stroke-linejoin:round;">
<path d="M16.6014 0.5150
L17.9814 0.5150
" />
<path d="M17.9814 0.4650
L17.9814 0.5150
" />
<path d="M17.9814 0.4650
L20.4014 0.4650
" />
<path d="M17.9814 30.5350
L17.9814 30.5850
" />
<path d="M17.9814 30.5850
L20.4014 30.5850
" />
<path d="M20.4014 0.4650
L20.4014 0.5150
" />
<path d="M20.4014 30.5350
L20.4014 30.5850
" />
</g>
<g style="fill:none; 
stroke:#FF26E2; stroke-width:0.0500; stroke-opacity:1; 
stroke-linecap:round; stroke-linejoin:round;">
<path d="M15.5414 0.0250
L15.5414 31.0250
" />
<path d="M15.5414 31.0250
L22.8414 31.0250
" />
<path d="M22.8414 0.0250
L15.5414 0.0250
" />
<path d="M22.8414 31.0250
L22.8414 0.0250
" />
</g>
<g style="fill:none; 
stroke:#AFAFAF; stroke-width:0.1588; stroke-opacity:1; 
stroke-linecap:round; stroke-linejoin:round;">
<text x="19.1914" y="16.1600"
textLength="38.3827" font-size="1.6933" lengthAdjust="spacingAndGlyphs"
text-anchor="middle" opacity="0">PinHeader_2x30_P1.00mm_Vertical_SMD</text>
<g class="stroked-text"><desc>PinHeader_2x30_P1.00mm_Vertical_SMD</desc>
<path d="M0.4135 16.1043
L0.4135 14.8343
" />
<path d="M0.4135 14.8343
L0.8973 14.8343
" />
<path d="M0.8973 14.8343
L1.0183 14.8947
" />
<path d="M1.0183 14.8947
L1.0787 14.9552
" />
<path d="M1.0787 14.9552
L1.1392 15.0762
" />
<path d="M1.1392 15.0762
L1.1392 15.2576
" />
<path d="M1.1392 15.2576
L1.0787 15.3786
" />
<path d="M1.0787 15.3786
L1.0183 15.4390
" />
<path d="M1.0183 15.4390
L0.8973 15.4995
" />
<path d="M0.8973 15.4995
L0.4135 15.4995
" />
<path d="M1.6835 16.1043
L1.6835 15.2576
" />
<path d="M1.6835 14.8343
L1.6230 14.8947
" />
<path d="M1.6230 14.8947
L1.6835 14.9552
" />
<path d="M1.6835 14.9552
L1.7440 14.8947
" />
<path d="M1.7440 14.8947
L1.6835 14.8343
" />
<path d="M1.6835 14.8343
L1.6835 14.9552
" />
<path d="M2.2883 15.2576
L2.2883 16.1043
" />
<path d="M2.2883 15.3786
L2.3487 15.3181
" />
<path d="M2.3487 15.3181
L2.4697 15.2576
" />
<path d="M2.4697 15.2576
L2.6511 15.2576
" />
<path d="M2.6511 15.2576
L2.7721 15.3181
" />
<path d="M2.7721 15.3181
L2.8326 15.4390
" />
<path d="M2.8326 15.4390
L2.8326 16.1043
" />
<path d="M3.4373 16.1043
L3.4373 14.8343
" />
<path d="M3.4373 15.4390
L4.1630 15.4390
" />
<path d="M4.1630 16.1043
L4.1630 14.8343
" />
<path d="M5.2516 16.0438
L5.1307 16.1043
" />
<path d="M5.1307 16.1043
L4.8887 16.1043
" />
<path d="M4.8887 16.1043
L4.7678 16.0438
" />
<path d="M4.7678 16.0438
L4.7073 15.9228
" />
<path d="M4.7073 15.9228
L4.7073 15.4390
" />
<path d="M4.7073 15.4390
L4.7678 15.3181
" />
<path d="M4.7678 15.3181
L4.8887 15.2576
" />
<path d="M4.8887 15.2576
L5.1307 15.2576
" />
<path d="M5.1307 15.2576
L5.2516 15.3181
" />
<path d="M5.2516 15.3181
L5.3121 15.4390
" />
<path d="M5.3121 15.4390
L5.3121 15.5600
" />
<path d="M5.3121 15.5600
L4.7073 15.6809
" />
<path d="M6.4006 16.1043
L6.4006 15.4390
" />
<path d="M6.4006 15.4390
L6.3402 15.3181
" />
<path d="M6.3402 15.3181
L6.2192 15.2576
" />
<path d="M6.2192 15.2576
L5.9773 15.2576
" />
<path d="M5.9773 15.2576
L5.8564 15.3181
" />
<path d="M6.4006 16.0438
L6.2797 16.1043
" />
<path d="M6.2797 16.1043
L5.9773 16.1043
" />
<path d="M5.9773 16.1043
L5.8564 16.0438
" />
<path d="M5.8564 16.0438
L5.7959 15.9228
" />
<path d="M5.7959 15.9228
L5.7959 15.8019
" />
<path d="M5.7959 15.8019
L5.8564 15.6809
" />
<path d="M5.8564 15.6809
L5.9773 15.6205
" />
<path d="M5.9773 15.6205
L6.2797 15.6205
" />
<path d="M6.2797 15.6205
L6.4006 15.5600
" />
<path d="M7.5497 16.1043
L7.5497 14.8343
" />
<path d="M7.5497 16.0438
L7.4287 16.1043
" />
<path d="M7.4287 16.1043
L7.1868 16.1043
" />
<path d="M7.1868 16.1043
L7.0659 16.0438
" />
<path d="M7.0659 16.0438
L7.0054 15.9833
" />
<path d="M7.0054 15.9833
L6.9449 15.8624
" />
<path d="M6.9449 15.8624
L6.9449 15.4995
" />
<path d="M6.9449 15.4995
L7.0054 15.3786
" />
<path d="M7.0054 15.3786
L7.0659 15.3181
" />
<path d="M7.0659 15.3181
L7.1868 15.2576
" />
<path d="M7.1868 15.2576
L7.4287 15.2576
" />
<path d="M7.4287 15.2576
L7.5497 15.3181
" />
<path d="M8.6383 16.0438
L8.5173 16.1043
" />
<path d="M8.5173 16.1043
L8.2754 16.1043
" />
<path d="M8.2754 16.1043
L8.1545 16.0438
" />
<path d="M8.1545 16.0438
L8.0940 15.9228
" />
<path d="M8.0940 15.9228
L8.0940 15.4390
" />
<path d="M8.0940 15.4390
L8.1545 15.3181
" />
<path d="M8.1545 15.3181
L8.2754 15.2576
" />
<path d="M8.2754 15.2576
L8.5173 15.2576
" />
<path d="M8.5173 15.2576
L8.6383 15.3181
" />
<path d="M8.6383 15.3181
L8.6987 15.4390
" />
<path d="M8.6987 15.4390
L8.6987 15.5600
" />
<path d="M8.6987 15.5600
L8.0940 15.6809
" />
<path d="M9.2430 16.1043
L9.2430 15.2576
" />
<path d="M9.2430 15.4995
L9.3035 15.3786
" />
<path d="M9.3035 15.3786
L9.3640 15.3181
" />
<path d="M9.3640 15.3181
L9.4849 15.2576
" />
<path d="M9.4849 15.2576
L9.6059 15.2576
" />
<path d="M9.7268 16.2252
L10.6945 16.2252
" />
<path d="M10.9364 14.9552
L10.9968 14.8947
" />
<path d="M10.9968 14.8947
L11.1178 14.8343
" />
<path d="M11.1178 14.8343
L11.4202 14.8343
" />
<path d="M11.4202 14.8343
L11.5411 14.8947
" />
<path d="M11.5411 14.8947
L11.6016 14.9552
" />
<path d="M11.6016 14.9552
L11.6621 15.0762
" />
<path d="M11.6621 15.0762
L11.6621 15.1971
" />
<path d="M11.6621 15.1971
L11.6016 15.3786
" />
<path d="M11.6016 15.3786
L10.8759 16.1043
" />
<path d="M10.8759 16.1043
L11.6621 16.1043
" />
<path d="M12.0854 16.1043
L12.7506 15.2576
" />
<path d="M12.0854 15.2576
L12.7506 16.1043
" />
<path d="M13.1135 14.8343
L13.8997 14.8343
" />
<path d="M13.8997 14.8343
L13.4764 15.3181
" />
<path d="M13.4764 15.3181
L13.6578 15.3181
" />
<path d="M13.6578 15.3181
L13.7787 15.3786
" />
<path d="M13.7787 15.3786
L13.8392 15.4390
" />
<path d="M13.8392 15.4390
L13.8997 15.5600
" />
<path d="M13.8997 15.5600
L13.8997 15.8624
" />
<path d="M13.8997 15.8624
L13.8392 15.9833
" />
<path d="M13.8392 15.9833
L13.7787 16.0438
" />
<path d="M13.7787 16.0438
L13.6578 16.1043
" />
<path d="M13.6578 16.1043
L13.2949 16.1043
" />
<path d="M13.2949 16.1043
L13.1740 16.0438
" />
<path d="M13.1740 16.0438
L13.1135 15.9833
" />
<path d="M14.6859 14.8343
L14.8068 14.8343
" />
<path d="M14.8068 14.8343
L14.9278 14.8947
" />
<path d="M14.9278 14.8947
L14.9883 14.9552
" />
<path d="M14.9883 14.9552
L15.0487 15.0762
" />
<path d="M15.0487 15.0762
L15.1092 15.3181
" />
<path d="M15.1092 15.3181
L15.1092 15.6205
" />
<path d="M15.1092 15.6205
L15.0487 15.8624
" />
<path d="M15.0487 15.8624
L14.9883 15.9833
" />
<path d="M14.9883 15.9833
L14.9278 16.0438
" />
<path d="M14.9278 16.0438
L14.8068 16.1043
" />
<path d="M14.8068 16.1043
L14.6859 16.1043
" />
<path d="M14.6859 16.1043
L14.5649 16.0438
" />
<path d="M14.5649 16.0438
L14.5045 15.9833
" />
<path d="M14.5045 15.9833
L14.4440 15.8624
" />
<path d="M14.4440 15.8624
L14.3835 15.6205
" />
<path d="M14.3835 15.6205
L14.3835 15.3181
" />
<path d="M14.3835 15.3181
L14.4440 15.0762
" />
<path d="M14.4440 15.0762
L14.5045 14.9552
" />
<path d="M14.5045 14.9552
L14.5649 14.8947
" />
<path d="M14.5649 14.8947
L14.6859 14.8343
" />
<path d="M15.3511 16.2252
L16.3187 16.2252
" />
<path d="M16.6211 16.1043
L16.6211 14.8343
" />
<path d="M16.6211 14.8343
L17.1049 14.8343
" />
<path d="M17.1049 14.8343
L17.2259 14.8947
" />
<path d="M17.2259 14.8947
L17.2864 14.9552
" />
<path d="M17.2864 14.9552
L17.3468 15.0762
" />
<path d="M17.3468 15.0762
L17.3468 15.2576
" />
<path d="M17.3468 15.2576
L17.2864 15.3786
" />
<path d="M17.2864 15.3786
L17.2259 15.4390
" />
<path d="M17.2259 15.4390
L17.1049 15.4995
" />
<path d="M17.1049 15.4995
L16.6211 15.4995
" />
<path d="M18.5564 16.1043
L17.8306 16.1043
" />
<path d="M18.1935 16.1043
L18.1935 14.8343
" />
<path d="M18.1935 14.8343
L18.0726 15.0157
" />
<path d="M18.0726 15.0157
L17.9516 15.1367
" />
<path d="M17.9516 15.1367
L17.8306 15.1971
" />
<path d="M19.1006 15.9833
L19.1611 16.0438
" />
<path d="M19.1611 16.0438
L19.1006 16.1043
" />
<path d="M19.1006 16.1043
L19.0402 16.0438
" />
<path d="M19.0402 16.0438
L19.1006 15.9833
" />
<path d="M19.1006 15.9833
L19.1006 16.1043
" />
<path d="M19.9473 14.8343
L20.0683 14.8343
" />
<path d="M20.0683 14.8343
L20.1892 14.8947
" />
<path d="M20.1892 14.8947
L20.2497 14.9552
" />
<path d="M20.2497 14.9552
L20.3102 15.0762
" />
<path d="M20.3102 15.0762
L20.3706 15.3181
" />
<path d="M20.3706 15.3181
L20.3706 15.6205
" />
<path d="M20.3706 15.6205
L20.3102 15.8624
" />
<path d="M20.3102 15.8624
L20.2497 15.9833
" />
<path d="M20.2497 15.9833
L20.1892 16.0438
" />
<path d="M20.1892 16.0438
L20.0683 16.1043
" />
<path d="M20.0683 16.1043
L19.9473 16.1043
" />
<path d="M19.9473 16.1043
L19.8264 16.0438
" />
<path d="M19.8264 16.0438
L19.7659 15.9833
" />
<path d="M19.7659 15.9833
L19.7054 15.8624
" />
<path d="M19.7054 15.8624
L19.6449 15.6205
" />
<path d="M19.6449 15.6205
L19.6449 15.3181
" />
<path d="M19.6449 15.3181
L19.7054 15.0762
" />
<path d="M19.7054 15.0762
L19.7659 14.9552
" />
<path d="M19.7659 14.9552
L19.8264 14.8947
" />
<path d="M19.8264 14.8947
L19.9473 14.8343
" />
<path d="M21.1568 14.8343
L21.2778 14.8343
" />
<path d="M21.2778 14.8343
L21.3987 14.8947
" />
<path d="M21.3987 14.8947
L21.4592 14.9552
" />
<path d="M21.4592 14.9552
L21.5197 15.0762
" />
<path d="M21.5197 15.0762
L21.5802 15.3181
" />
<path d="M21.5802 15.3181
L21.5802 15.6205
" />
<path d="M21.5802 15.6205
L21.5197 15.8624
" />
<path d="M21.5197 15.8624
L21.4592 15.9833
" />
<path d="M21.4592 15.9833
L21.3987 16.0438
" />
<path d="M21.3987 16.0438
L21.2778 16.1043
" />
<path d="M21.2778 16.1043
L21.1568 16.1043
" />
<path d="M21.1568 16.1043
L21.0359 16.0438
" />
<path d="M21.0359 16.0438
L20.9754 15.9833
" />
<path d="M20.9754 15.9833
L20.9149 15.8624
" />
<path d="M20.9149 15.8624
L20.8545 15.6205
" />
<path d="M20.8545 15.6205
L20.8545 15.3181
" />
<path d="M20.8545 15.3181
L20.9149 15.0762
" />
<path d="M20.9149 15.0762
L20.9754 14.9552
" />
<path d="M20.9754 14.9552
L21.0359 14.8947
" />
<path d="M21.0359 14.8947
L21.1568 14.8343
" />
<path d="M22.1245 16.1043
L22.1245 15.2576
" />
<path d="M22.1245 15.3786
L22.1849 15.3181
" />
<path d="M22.1849 15.3181
L22.3059 15.2576
" />
<path d="M22.3059 15.2576
L22.4873 15.2576
" />
<path d="M22.4873 15.2576
L22.6083 15.3181
" />
<path d="M22.6083 15.3181
L22.6687 15.4390
" />
<path d="M22.6687 15.4390
L22.6687 16.1043
" />
<path d="M22.6687 15.4390
L22.7292 15.3181
" />
<path d="M22.7292 15.3181
L22.8502 15.2576
" />
<path d="M22.8502 15.2576
L23.0316 15.2576
" />
<path d="M23.0316 15.2576
L23.1526 15.3181
" />
<path d="M23.1526 15.3181
L23.2130 15.4390
" />
<path d="M23.2130 15.4390
L23.2130 16.1043
" />
<path d="M23.8178 16.1043
L23.8178 15.2576
" />
<path d="M23.8178 15.3786
L23.8783 15.3181
" />
<path d="M23.8783 15.3181
L23.9992 15.2576
" />
<path d="M23.9992 15.2576
L24.1806 15.2576
" />
<path d="M24.1806 15.2576
L24.3016 15.3181
" />
<path d="M24.3016 15.3181
L24.3621 15.4390
" />
<path d="M24.3621 15.4390
L24.3621 16.1043
" />
<path d="M24.3621 15.4390
L24.4226 15.3181
" />
<path d="M24.4226 15.3181
L24.5435 15.2576
" />
<path d="M24.5435 15.2576
L24.7249 15.2576
" />
<path d="M24.7249 15.2576
L24.8459 15.3181
" />
<path d="M24.8459 15.3181
L24.9064 15.4390
" />
<path d="M24.9064 15.4390
L24.9064 16.1043
" />
<path d="M25.2087 16.2252
L26.1764 16.2252
" />
<path d="M26.2973 14.8343
L26.7206 16.1043
" />
<path d="M26.7206 16.1043
L27.1440 14.8343
" />
<path d="M28.0511 16.0438
L27.9302 16.1043
" />
<path d="M27.9302 16.1043
L27.6883 16.1043
" />
<path d="M27.6883 16.1043
L27.5673 16.0438
" />
<path d="M27.5673 16.0438
L27.5068 15.9228
" />
<path d="M27.5068 15.9228
L27.5068 15.4390
" />
<path d="M27.5068 15.4390
L27.5673 15.3181
" />
<path d="M27.5673 15.3181
L27.6883 15.2576
" />
<path d="M27.6883 15.2576
L27.9302 15.2576
" />
<path d="M27.9302 15.2576
L28.0511 15.3181
" />
<path d="M28.0511 15.3181
L28.1116 15.4390
" />
<path d="M28.1116 15.4390
L28.1116 15.5600
" />
<path d="M28.1116 15.5600
L27.5068 15.6809
" />
<path d="M28.6559 16.1043
L28.6559 15.2576
" />
<path d="M28.6559 15.4995
L28.7164 15.3786
" />
<path d="M28.7164 15.3786
L28.7768 15.3181
" />
<path d="M28.7768 15.3181
L28.8978 15.2576
" />
<path d="M28.8978 15.2576
L29.0187 15.2576
" />
<path d="M29.2606 15.2576
L29.7445 15.2576
" />
<path d="M29.4421 14.8343
L29.4421 15.9228
" />
<path d="M29.4421 15.9228
L29.5026 16.0438
" />
<path d="M29.5026 16.0438
L29.6235 16.1043
" />
<path d="M29.6235 16.1043
L29.7445 16.1043
" />
<path d="M30.1678 16.1043
L30.1678 15.2576
" />
<path d="M30.1678 14.8343
L30.1073 14.8947
" />
<path d="M30.1073 14.8947
L30.1678 14.9552
" />
<path d="M30.1678 14.9552
L30.2283 14.8947
" />
<path d="M30.2283 14.8947
L30.1678 14.8343
" />
<path d="M30.1678 14.8343
L30.1678 14.9552
" />
<path d="M31.3168 16.0438
L31.1959 16.1043
" />
<path d="M31.1959 16.1043
L30.9540 16.1043
" />
<path d="M30.9540 16.1043
L30.8330 16.0438
" />
<path d="M30.8330 16.0438
L30.7726 15.9833
" />
<path d="M30.7726 15.9833
L30.7121 15.8624
" />
<path d="M30.7121 15.8624
L30.7121 15.4995
" />
<path d="M30.7121 15.4995
L30.7726 15.3786
" />
<path d="M30.7726 15.3786
L30.8330 15.3181
" />
<path d="M30.8330 15.3181
L30.9540 15.2576
" />
<path d="M30.9540 15.2576
L31.1959 15.2576
" />
<path d="M31.1959 15.2576
L31.3168 15.3181
" />
<path d="M32.4054 16.1043
L32.4054 15.4390
" />
<path d="M32.4054 15.4390
L32.3449 15.3181
" />
<path d="M32.3449 15.3181
L32.2240 15.2576
" />
<path d="M32.2240 15.2576
L31.9821 15.2576
" />
<path d="M31.9821 15.2576
L31.8611 15.3181
" />
<path d="M32.4054 16.0438
L32.2845 16.1043
" />
<path d="M32.2845 16.1043
L31.9821 16.1043
" />
<path d="M31.9821 16.1043
L31.8611 16.0438
" />
<path d="M31.8611 16.0438
L31.8006 15.9228
" />
<path d="M31.8006 15.9228
L31.8006 15.8019
" />
<path d="M31.8006 15.8019
L31.8611 15.6809
" />
<path d="M31.8611 15.6809
L31.9821 15.6205
" />
<path d="M31.9821 15.6205
L32.2845 15.6205
" />
<path d="M32.2845 15.6205
L32.4054 15.5600
" />
<path d="M33.1916 16.1043
L33.0706 16.0438
" />
<path d="M33.0706 16.0438
L33.0102 15.9228
" />
<path d="M33.0102 15.9228
L33.0102 14.8343
" />
<path d="M33.3730 16.2252
L34.3406 16.2252
" />
<path d="M34.5826 16.0438
L34.7640 16.1043
" />
<path d="M34.7640 16.1043
L35.0664 16.1043
" />
<path d="M35.0664 16.1043
L35.1873 16.0438
" />
<path d="M35.1873 16.0438
L35.2478 15.9833
" />
<path d="M35.2478 15.9833
L35.3083 15.8624
" />
<path d="M35.3083 15.8624
L35.3083 15.7414
" />
<path d="M35.3083 15.7414
L35.2478 15.6205
" />
<path d="M35.2478 15.6205
L35.1873 15.5600
" />
<path d="M35.1873 15.5600
L35.0664 15.4995
" />
<path d="M35.0664 15.4995
L34.8245 15.4390
" />
<path d="M34.8245 15.4390
L34.7035 15.3786
" />
<path d="M34.7035 15.3786
L34.6430 15.3181
" />
<path d="M34.6430 15.3181
L34.5826 15.1971
" />
<path d="M34.5826 15.1971
L34.5826 15.0762
" />
<path d="M34.5826 15.0762
L34.6430 14.9552
" />
<path d="M34.6430 14.9552
L34.7035 14.8947
" />
<path d="M34.7035 14.8947
L34.8245 14.8343
" />
<path d="M34.8245 14.8343
L35.1268 14.8343
" />
<path d="M35.1268 14.8343
L35.3083 14.8947
" />
<path d="M35.8526 16.1043
L35.8526 14.8343
" />
<path d="M35.8526 14.8343
L36.2759 15.7414
" />
<path d="M36.2759 15.7414
L36.6992 14.8343
" />
<path d="M36.6992 14.8343
L36.6992 16.1043
" />
<path d="M37.3040 16.1043
L37.3040 14.8343
" />
<path d="M37.3040 14.8343
L37.6064 14.8343
" />
<path d="M37.6064 14.8343
L37.7878 14.8947
" />
<path d="M37.7878 14.8947
L37.9087 15.0157
" />
<path d="M37.9087 15.0157
L37.9692 15.1367
" />
<path d="M37.9692 15.1367
L38.0297 15.3786
" />
<path d="M38.0297 15.3786
L38.0297 15.5600
" />
<path d="M38.0297 15.5600
L37.9692 15.8019
" />
<path d="M37.9692 15.8019
L37.9087 15.9228
" />
<path d="M37.9087 15.9228
L37.7878 16.0438
" />
<path d="M37.7878 16.0438
L37.6064 16.1043
" />
<path d="M37.6064 16.1043
L37.3040 16.1043
" />
</g></g>
<g style="fill:none; 
stroke:#AFAFAF; stroke-width:0.1500; stroke-opacity:1; 
stroke-linecap:round; stroke-linejoin:round;">
<g transform="rotate(-90.000000 19.1914 15.5250)">
<text x="19.1914" y="16.0250"
textLength="4.5357" font-size="1.3333" lengthAdjust="spacingAndGlyphs"
text-anchor="middle" opacity="0">REF**</text>
</g>
<g class="stroked-text"><desc>REF**</desc>
<path d="M19.6462 16.8583
L19.1700 17.1917
" />
<path d="M19.6462 17.4298
L18.6462 17.4298
" />
<path d="M18.6462 17.4298
L18.6462 17.0488
" />
<path d="M18.6462 17.0488
L18.6938 16.9536
" />
<path d="M18.6938 16.9536
L18.7414 16.9060
" />
<path d="M18.7414 16.9060
L18.8367 16.8583
" />
<path d="M18.8367 16.8583
L18.9795 16.8583
" />
<path d="M18.9795 16.8583
L19.0748 16.9060
" />
<path d="M19.0748 16.9060
L19.1224 16.9536
" />
<path d="M19.1224 16.9536
L19.1700 17.0488
" />
<path d="M19.1700 17.0488
L19.1700 17.4298
" />
<path d="M19.1224 16.4298
L19.1224 16.0964
" />
<path d="M19.6462 15.9536
L19.6462 16.4298
" />
<path d="M19.6462 16.4298
L18.6462 16.4298
" />
<path d="M18.6462 16.4298
L18.6462 15.9536
" />
<path d="M19.1224 15.1917
L19.1224 15.5250
" />
<path d="M19.6462 15.5250
L18.6462 15.5250
" />
<path d="M18.6462 15.5250
L18.6462 15.0488
" />
<path d="M18.6462 14.5250
L18.8843 14.5250
" />
<path d="M18.7890 14.7631
L18.8843 14.5250
" />
<path d="M18.8843 14.5250
L18.7890 14.2869
" />
<path d="M19.0748 14.6679
L18.8843 14.5250
" />
<path d="M18.8843 14.5250
L19.0748 14.3821
" />
<path d="M18.6462 13.7631
L18.8843 13.7631
" />
<path d="M18.7890 14.0012
L18.8843 13.7631
" />
<path d="M18.8843 13.7631
L18.7890 13.5250
" />
<path d="M19.0748 13.9060
L18.8843 13.7631
" />
<path d="M18.8843 13.7631
L19.0748 13.6202
" />
</g></g>
<g style="fill:none; 
stroke:#AFAFAF; stroke-width:0.1000; stroke-opacity:1; 
stroke-linecap:round; stroke-linejoin:round;">
<path d="M16.7914 0.8750
L16.7914 1.1750
" />
<path d="M16.7914 1.1750
L18.0414 1.1750
" />
<path d="M16.7914 1.8750
L16.7914 2.1750
" />
<path d="M16.7914 2.1750
L18.0414 2.1750
" />
<path d="M16.7914 2.8750
L16.7914 3.1750
" />
<path d="M16.7914 3.1750
L18.0414 3.1750
" />
<path d="M16.7914 3.8750
L16.7914 4.1750
" />
<path d="M16.7914 4.1750
L18.0414 4.1750
" />
<path d="M16.7914 4.8750
L16.7914 5.1750
" />
<path d="M16.7914 5.1750
L18.0414 5.1750
" />
<path d="M16.7914 5.8750
L16.7914 6.1750
" />
<path d="M16.7914 6.1750
L18.0414 6.1750
" />
<path d="M16.7914 6.8750
L16.7914 7.1750
" />
<path d="M16.7914 7.1750
L18.0414 7.1750
" />
<path d="M16.7914 7.8750
L16.7914 8.1750
" />
<path d="M16.7914 8.1750
L18.0414 8.1750
" />
<path d="M16.7914 8.8750
L16.7914 9.1750
" />
<path d="M16.7914 9.1750
L18.0414 9.1750
" />
<path d="M16.7914 9.8750
L16.7914 10.1750
" />
<path d="M16.7914 10.1750
L18.0414 10.1750
" />
<path d="M16.7914 10.8750
L16.7914 11.1750
" />
<path d="M16.7914 11.1750
L18.0414 11.1750
" />
<path d="M16.7914 11.8750
L16.7914 12.1750
" />
<path d="M16.7914 12.1750
L18.0414 12.1750
" />
<path d="M16.7914 12.8750
L16.7914 13.1750
" />
<path d="M16.7914 13.1750
L18.0414 13.1750
" />
<path d="M16.7914 13.8750
L16.7914 14.1750
" />
<path d="M16.7914 14.1750
L18.0414 14.1750
" />
<path d="M16.7914 14.8750
L16.7914 15.1750
" />
<path d="M16.7914 15.1750
L18.0414 15.1750
" />
<path d="M16.7914 15.8750
L16.7914 16.1750
" />
<path d="M16.7914 16.1750
L18.0414 16.1750
" />
<path d="M16.7914 16.8750
L16.7914 17.1750
" />
<path d="M16.7914 17.1750
L18.0414 17.1750
" />
<path d="M16.7914 17.8750
L16.7914 18.1750
" />
<path d="M16.7914 18.1750
L18.0414 18.1750
" />
<path d="M16.7914 18.8750
L16.7914 19.1750
" />
<path d="M16.7914 19.1750
L18.0414 19.1750
" />
<path d="M16.7914 19.8750
L16.7914 20.1750
" />
<path d="M16.7914 20.1750
L18.0414 20.1750
" />
<path d="M16.7914 20.8750
L16.7914 21.1750
" />
<path d="M16.7914 21.1750
L18.0414 21.1750
" />
<path d="M16.7914 21.8750
L16.7914 22.1750
" />
<path d="M16.7914 22.1750
L18.0414 22.1750
" />
<path d="M16.7914 22.8750
L16.7914 23.1750
" />
<path d="M16.7914 23.1750
L18.0414 23.1750
" />
<path d="M16.7914 23.8750
L16.7914 24.1750
" />
<path d="M16.7914 24.1750
L18.0414 24.1750
" />
<path d="M16.7914 24.8750
L16.7914 25.1750
" />
<path d="M16.7914 25.1750
L18.0414 25.1750
" />
<path d="M16.7914 25.8750
L16.7914 26.1750
" />
<path d="M16.7914 26.1750
L18.0414 26.1750
" />
<path d="M16.7914 26.8750
L16.7914 27.1750
" />
<path d="M16.7914 27.1750
L18.0414 27.1750
" />
<path d="M16.7914 27.8750
L16.7914 28.1750
" />
<path d="M16.7914 28.1750
L18.0414 28.1750
" />
<path d="M16.7914 28.8750
L16.7914 29.1750
" />
<path d="M16.7914 29.1750
L18.0414 29.1750
" />
<path d="M16.7914 29.8750
L16.7914 30.1750
" />
<path d="M16.7914 30.1750
L18.0414 30.1750
" />
<path d="M18.0414 0.8750
L16.7914 0.8750
" />
<path d="M18.0414 0.8750
L18.3914 0.5250
" />
<path d="M18.0414 1.8750
L16.7914 1.8750
" />
<path d="M18.0414 2.8750
L16.7914 2.8750
" />
<path d="M18.0414 3.8750
L16.7914 3.8750
" />
<path d="M18.0414 4.8750
L16.7914 4.8750
" />
<path d="M18.0414 5.8750
L16.7914 5.8750
" />
<path d="M18.0414 6.8750
L16.7914 6.8750
" />
<path d="M18.0414 7.8750
L16.7914 7.8750
" />
<path d="M18.0414 8.8750
L16.7914 8.8750
" />
<path d="M18.0414 9.8750
L16.7914 9.8750
" />
<path d="M18.0414 10.8750
L16.7914 10.8750
" />
<path d="M18.0414 11.8750
L16.7914 11.8750
" />
<path d="M18.0414 12.8750
L16.7914 12.8750
" />
<path d="M18.0414 13.8750
L16.7914 13.8750
" />
<path d="M18.0414 14.8750
L16.7914 14.8750
" />
<path d="M18.0414 15.8750
L16.7914 15.8750
" />
<path d="M18.0414 16.8750
L16.7914 16.8750
" />
<path d="M18.0414 17.8750
L16.7914 17.8750
" />
<path d="M18.0414 18.8750
L16.7914 18.8750
" />
<path d="M18.0414 19.8750
L16.7914 19.8750
" />
<path d="M18.0414 20.8750
L16.7914 20.8750
" />
<path d="M18.0414 21.8750
L16.7914 21.8750
" />
<path d="M18.0414 22.8750
L16.7914 22.8750
" />
<path d="M18.0414 23.8750
L16.7914 23.8750
" />
<path d="M18.0414 24.8750
L16.7914 24.8750
" />
<path d="M18.0414 25.8750
L16.7914 25.8750
" />
<path d="M18.0414 26.8750
L16.7914 26.8750
" />
<path d="M18.0414 27.8750
L16.7914 27.8750
" />
<path d="M18.0414 28.8750
L16.7914 28.8750
" />
<path d="M18.0414 29.8750
L16.7914 29.8750
" />
<path d="M18.0414 30.5250
L18.0414 0.8750
" />
<path d="M18.3914 0.5250
L20.3414 0.5250
" />
<path d="M20.3414 0.5250
L20.3414 30.5250
" />
<path d="M20.3414 0.8750
L21.5914 0.8750
" />
<path d="M20.3414 1.8750
L21.5914 1.8750
" />
<path d="M20.3414 2.8750
L21.5914 2.8750
" />
<path d="M20.3414 3.8750
L21.5914 3.8750
" />
<path d="M20.3414 4.8750
L21.5914 4.8750
" />
<path d="M20.3414 5.8750
L21.5914 5.8750
" />
<path d="M20.3414 6.8750
L21.5914 6.8750
" />
<path d="M20.3414 7.8750
L21.5914 7.8750
" />
<path d="M20.3414 8.8750
L21.5914 8.8750
" />
<path d="M20.3414 9.8750
L21.5914 9.8750
" />
<path d="M20.3414 10.8750
L21.5914 10.8750
" />
<path d="M20.3414 11.8750
L21.5914 11.8750
" />
<path d="M20.3414 12.8750
L21.5914 12.8750
" />
<path d="M20.3414 13.8750
L21.5914 13.8750
" />
<path d="M20.3414 14.8750
L21.5914 14.8750
" />
<path d="M20.3414 15.8750
L21.5914 15.8750
" />
<path d="M20.3414 16.8750
L21.5914 16.8750
" />
<path d="M20.3414 17.8750
L21.5914 17.8750
" />
<path d="M20.3414 18.8750
L21.5914 18.8750
" />
<path d="M20.3414 19.8750
L21.5914 19.8750
" />
<path d="M20.3414 20.8750
L21.5914 20.8750
" />
<path d="M20.3414 21.8750
L21.5914 21.8750
" />
<path d="M20.3414 22.8750
L21.5914 22.8750
" />
<path d="M20.3414 23.8750
L21.5914 23.8750
" />
<path d="M20.3414 24.8750
L21.5914 24.8750
" />
<path d="M20.3414 25.8750
L21.5914 25.8750
" />
<path d="M20.3414 26.8750
L21.5914 26.8750
" />
<path d="M20.3414 27.8750
L21.5914 27.8750
" />
<path d="M20.3414 28.8750
L21.5914 28.8750
" />
<path d="M20.3414 29.8750
L21.5914 29.8750
" />
<path d="M20.3414 30.5250
L18.0414 30.5250
" />
<path d="M21.5914 0.8750
L21.5914 1.1750
" />
<path d="M21.5914 1.1750
L20.3414 1.1750
" />
<path d="M21.5914 1.8750
L21.5914 2.1750
" />
<path d="M21.5914 2.1750
L20.3414 2.1750
" />
<path d="M21.5914 2.8750
L21.5914 3.1750
" />
<path d="M21.5914 3.1750
L20.3414 3.1750
" />
<path d="M21.5914 3.8750
L21.5914 4.1750
" />
<path d="M21.5914 4.1750
L20.3414 4.1750
" />
<path d="M21.5914 4.8750
L21.5914 5.1750
" />
<path d="M21.5914 5.1750
L20.3414 5.1750
" />
<path d="M21.5914 5.8750
L21.5914 6.1750
" />
<path d="M21.5914 6.1750
L20.3414 6.1750
" />
<path d="M21.5914 6.8750
L21.5914 7.1750
" />
<path d="M21.5914 7.1750
L20.3414 7.1750
" />
<path d="M21.5914 7.8750
L21.5914 8.1750
" />
<path d="M21.5914 8.1750
L20.3414 8.1750
" />
<path d="M21.5914 8.8750
L21.5914 9.1750
" />
<path d="M21.5914 9.1750
L20.3414 9.1750
" />
<path d="M21.5914 9.8750
L21.5914 10.1750
" />
<path d="M21.5914 10.1750
L20.3414 10.1750
" />
<path d="M21.5914 10.8750
L21.5914 11.1750
" />
<path d="M21.5914 11.1750
L20.3414 11.1750
" />
<path d="M21.5914 11.8750
L21.5914 12.1750
" />
<path d="M21.5914 12.1750
L20.3414 12.1750
" />
<path d="M21.5914 12.8750
L21.5914 13.1750
" />
<path d="M21.5914 13.1750
L20.3414 13.1750
" />
<path d="M21.5914 13.8750
L21.5914 14.1750
" />
<path d="M21.5914 14.1750
L20.3414 14.1750
" />
<path d="M21.5914 14.8750
L21.5914 15.1750
" />
<path d="M21.5914 15.1750
L20.3414 15.1750
" />
<path d="M21.5914 15.8750
L21.5914 16.1750
" />
<path d="M21.5914 16.1750
L20.3414 16.1750
" />
<path d="M21.5914 16.8750
L21.5914 17.1750
" />
<path d="M21.5914 17.1750
L20.3414 17.1750
" />
<path d="M21.5914 17.8750
L21.5914 18.1750
" />
<path d="M21.5914 18.1750
L20.3414 18.1750
" />
<path d="M21.5914 18.8750
L21.5914 19.1750
" />
<path d="M21.5914 19.1750
L20.3414 19.1750
" />
<path d="M21.5914 19.8750
L21.5914 20.1750
" />
<path d="M21.5914 20.1750
L20.3414 20.1750
" />
<path d="M21.5914 20.8750
L21.5914 21.1750
" />
<path d="M21.5914 21.1750
L20.3414 21.1750
" />
<path d="M21.5914 21.8750
L21.5914 22.1750
" />
<path d="M21.5914 22.1750
L20.3414 22.1750
" />
<path d="M21.5914 22.8750
L21.5914 23.1750
" />
<path d="M21.5914 23.1750
L20.3414 23.1750
" />
<path d="M21.5914 23.8750
L21.5914 24.1750
" />
<path d="M21.5914 24.1750
L20.3414 24.1750
" />
<path d="M21.5914 24.8750
L21.5914 25.1750
" />
<path d="M21.5914 25.1750
L20.3414 25.1750
" />
<path d="M21.5914 25.8750
L21.5914 26.1750
" />
<path d="M21.5914 26.1750
L20.3414 26.1750
" />
<path d="M21.5914 26.8750
L21.5914 27.1750
" />
<path d="M21.5914 27.1750
L20.3414 27.1750
" />
<path d="M21.5914 27.8750
L21.5914 28.1750
" />
<path d="M21.5914 28.1750
L20.3414 28.1750
" />
<path d="M21.5914 28.8750
L21.5914 29.1750
" />
<path d="M21.5914 29.1750
L20.3414 29.1750
" />
<path d="M21.5914 29.8750
L21.5914 30.1750
" />
<path d="M21.5914 30.1750
L20.3414 30.1750
" />
</g> 
</svg>
