<?xml version="1.0" standalone="no"?>
 <!DOCTYPE svg PUBLIC "-//W3C//DTD SVG 1.1//EN" 
 "http://www.w3.org/Graphics/SVG/1.1/DTD/svg11.dtd"> 
<svg
  xmlns:svg="http://www.w3.org/2000/svg"
  xmlns="http://www.w3.org/2000/svg"
  xmlns:xlink="http://www.w3.org/1999/xlink"
  version="1.1"
  width="7.8232mm" height="4.6482mm" viewBox="0.0000 0.0000 7.8232 4.6482">
<title>SVG Image created as working-brd.svg date 2024/04/22 13:22:55 </title>
  <desc>Image generated by PCBNEW </desc>
<g style="fill:#000000; fill-opacity:1.0000;stroke:#000000; stroke-opacity:1.0000;
stroke-linecap:round; stroke-linejoin:round;"
 transform="translate(0 0) scale(1 1)">
</g>
<g style="fill:#FFFFFF; fill-opacity:1.0000; stroke:none;">
<circle cx="3.7699" cy="2.7750" r="0.3750" /> 
</g>
<g style="fill:#FFFFFF; fill-opacity:1.0000; stroke:none;">
<circle cx="5.0499" cy="1.5050" r="0.3750" /> 
</g>
<g style="fill:#FFFFFF; fill-opacity:1.0000; stroke:none;">
<circle cx="6.3099" cy="2.7750" r="0.3750" /> 
<path style="fill:#02FFEE; fill-opacity:0.4000; stroke:none;fill-rule:evenodd;"
d="M 3.1199,3.4250
3.1199,2.1250
4.4199,2.1250
4.4199,3.4250
Z" /> 
</g>
<g style="fill:#02FFEE; fill-opacity:0.4000; stroke:none;">
<circle cx="5.0499" cy="1.5050" r="0.6500" /> 
</g>
<g style="fill:#02FFEE; fill-opacity:0.4000; stroke:none;">
<circle cx="6.3099" cy="2.7750" r="0.6500" /> 
</g>
<g style="fill:#FFFFFF; fill-opacity:1.0000; stroke:none;">
<circle cx="3.7699" cy="2.7750" r="0.3750" /> 
</g>
<g style="fill:#FFFFFF; fill-opacity:1.0000; stroke:none;">
<circle cx="5.0499" cy="1.5050" r="0.3750" /> 
</g>
<g style="fill:#FFFFFF; fill-opacity:1.0000; stroke:none;">
<circle cx="6.3099" cy="2.7750" r="0.3750" /> 
</g>
<g style="fill:#FFFFFF; fill-opacity:1.0000; stroke:none;">
<circle cx="3.7699" cy="2.7750" r="0.3750" /> 
</g>
<g style="fill:#FFFFFF; fill-opacity:1.0000; stroke:none;">
<circle cx="5.0499" cy="1.5050" r="0.3750" /> 
</g>
<g style="fill:#FFFFFF; fill-opacity:1.0000; stroke:none;">
<circle cx="6.3099" cy="2.7750" r="0.3750" /> 
<path style="fill:#D864FF; fill-opacity:0.4000; stroke:none;fill-rule:evenodd;"
d="M 3.1199,3.4250
3.1199,2.1250
4.4199,2.1250
4.4199,3.4250
Z" /> 
</g>
<g style="fill:#D864FF; fill-opacity:0.4000; stroke:none;">
<circle cx="5.0499" cy="1.5050" r="0.6500" /> 
</g>
<g style="fill:#D864FF; fill-opacity:0.4000; stroke:none;">
<circle cx="6.3099" cy="2.7750" r="0.6500" /> 
</g>
<g style="fill:none; 
stroke:#F2EDA1; stroke-width:0.1588; stroke-opacity:1; 
stroke-linecap:round; stroke-linejoin:round;">
<text x="3.7699" y="3.4100"
textLength="5.6651" font-size="1.6933" lengthAdjust="spacingAndGlyphs"
text-anchor="middle" opacity="0">REF**</text>
<g class="stroked-text"><desc>REF**</desc>
<path d="M2.0766 3.3543
L1.6533 2.7495
" />
<path d="M1.3509 3.3543
L1.3509 2.0843
" />
<path d="M1.3509 2.0843
L1.8347 2.0843
" />
<path d="M1.8347 2.0843
L1.9556 2.1447
" />
<path d="M1.9556 2.1447
L2.0161 2.2052
" />
<path d="M2.0161 2.2052
L2.0766 2.3262
" />
<path d="M2.0766 2.3262
L2.0766 2.5076
" />
<path d="M2.0766 2.5076
L2.0161 2.6286
" />
<path d="M2.0161 2.6286
L1.9556 2.6890
" />
<path d="M1.9556 2.6890
L1.8347 2.7495
" />
<path d="M1.8347 2.7495
L1.3509 2.7495
" />
<path d="M2.6209 2.6890
L3.0442 2.6890
" />
<path d="M3.2256 3.3543
L2.6209 3.3543
" />
<path d="M2.6209 3.3543
L2.6209 2.0843
" />
<path d="M2.6209 2.0843
L3.2256 2.0843
" />
<path d="M4.1933 2.6890
L3.7699 2.6890
" />
<path d="M3.7699 3.3543
L3.7699 2.0843
" />
<path d="M3.7699 2.0843
L4.3747 2.0843
" />
<path d="M5.0399 2.0843
L5.0399 2.3867
" />
<path d="M4.7376 2.2657
L5.0399 2.3867
" />
<path d="M5.0399 2.3867
L5.3423 2.2657
" />
<path d="M4.8585 2.6286
L5.0399 2.3867
" />
<path d="M5.0399 2.3867
L5.2214 2.6286
" />
<path d="M6.0076 2.0843
L6.0076 2.3867
" />
<path d="M5.7052 2.2657
L6.0076 2.3867
" />
<path d="M6.0076 2.3867
L6.3099 2.2657
" />
<path d="M5.8261 2.6286
L6.0076 2.3867
" />
<path d="M6.0076 2.3867
L6.1890 2.6286
" />
</g></g>
<g style="fill:none; 
stroke:#F2EDA1; stroke-width:0.1200; stroke-opacity:1; 
stroke-linecap:round; stroke-linejoin:round;">
<path d="M3.1199 4.4750
L6.9699 4.4750
" />
<path d="M7.0085 4.4651 A2.5795 2.5795 0.0 1 0 3.1199 4.4750" />
</g>
<g style="fill:#FFFFFF; fill-opacity:1.0000; stroke:none;">
<circle cx="3.7699" cy="2.7750" r="0.3750" /> 
</g>
<g style="fill:#FFFFFF; fill-opacity:1.0000; stroke:none;">
<circle cx="5.0499" cy="1.5050" r="0.3750" /> 
</g>
<g style="fill:#FFFFFF; fill-opacity:1.0000; stroke:none;">
<circle cx="6.3099" cy="2.7750" r="0.3750" /> 
</g>
<g style="fill:none; 
stroke:#FF26E2; stroke-width:0.0500; stroke-opacity:1; 
stroke-linecap:round; stroke-linejoin:round;">
<path d="M2.3199 0.0250
L2.3199 4.6250
" />
<path d="M2.3199 0.0250
L7.8199 0.0250
" />
<path d="M7.8199 4.6250
L2.3199 4.6250
" />
<path d="M7.8199 4.6250
L7.8199 0.0250
" />
</g>
<g style="fill:none; 
stroke:#AFAFAF; stroke-width:0.1588; stroke-opacity:1; 
stroke-linecap:round; stroke-linejoin:round;">
<text x="3.7699" y="3.4100"
textLength="7.5399" font-size="1.6933" lengthAdjust="spacingAndGlyphs"
text-anchor="middle" opacity="0">TO-92L</text>
<g class="stroked-text"><desc>TO-92L</desc>
<path d="M0.2321 2.0843
L0.9578 2.0843
" />
<path d="M0.5949 3.3543
L0.5949 2.0843
" />
<path d="M1.6230 2.0843
L1.8649 2.0843
" />
<path d="M1.8649 2.0843
L1.9859 2.1447
" />
<path d="M1.9859 2.1447
L2.1068 2.2657
" />
<path d="M2.1068 2.2657
L2.1673 2.5076
" />
<path d="M2.1673 2.5076
L2.1673 2.9309
" />
<path d="M2.1673 2.9309
L2.1068 3.1728
" />
<path d="M2.1068 3.1728
L1.9859 3.2938
" />
<path d="M1.9859 3.2938
L1.8649 3.3543
" />
<path d="M1.8649 3.3543
L1.6230 3.3543
" />
<path d="M1.6230 3.3543
L1.5021 3.2938
" />
<path d="M1.5021 3.2938
L1.3811 3.1728
" />
<path d="M1.3811 3.1728
L1.3206 2.9309
" />
<path d="M1.3206 2.9309
L1.3206 2.5076
" />
<path d="M1.3206 2.5076
L1.3811 2.2657
" />
<path d="M1.3811 2.2657
L1.5021 2.1447
" />
<path d="M1.5021 2.1447
L1.6230 2.0843
" />
<path d="M2.7116 2.8705
L3.6792 2.8705
" />
<path d="M4.3445 3.3543
L4.5864 3.3543
" />
<path d="M4.5864 3.3543
L4.7073 3.2938
" />
<path d="M4.7073 3.2938
L4.7678 3.2333
" />
<path d="M4.7678 3.2333
L4.8887 3.0519
" />
<path d="M4.8887 3.0519
L4.9492 2.8100
" />
<path d="M4.9492 2.8100
L4.9492 2.3262
" />
<path d="M4.9492 2.3262
L4.8887 2.2052
" />
<path d="M4.8887 2.2052
L4.8283 2.1447
" />
<path d="M4.8283 2.1447
L4.7073 2.0843
" />
<path d="M4.7073 2.0843
L4.4654 2.0843
" />
<path d="M4.4654 2.0843
L4.3445 2.1447
" />
<path d="M4.3445 2.1447
L4.2840 2.2052
" />
<path d="M4.2840 2.2052
L4.2235 2.3262
" />
<path d="M4.2235 2.3262
L4.2235 2.6286
" />
<path d="M4.2235 2.6286
L4.2840 2.7495
" />
<path d="M4.2840 2.7495
L4.3445 2.8100
" />
<path d="M4.3445 2.8100
L4.4654 2.8705
" />
<path d="M4.4654 2.8705
L4.7073 2.8705
" />
<path d="M4.7073 2.8705
L4.8283 2.8100
" />
<path d="M4.8283 2.8100
L4.8887 2.7495
" />
<path d="M4.8887 2.7495
L4.9492 2.6286
" />
<path d="M5.4330 2.2052
L5.4935 2.1447
" />
<path d="M5.4935 2.1447
L5.6145 2.0843
" />
<path d="M5.6145 2.0843
L5.9168 2.0843
" />
<path d="M5.9168 2.0843
L6.0378 2.1447
" />
<path d="M6.0378 2.1447
L6.0983 2.2052
" />
<path d="M6.0983 2.2052
L6.1587 2.3262
" />
<path d="M6.1587 2.3262
L6.1587 2.4471
" />
<path d="M6.1587 2.4471
L6.0983 2.6286
" />
<path d="M6.0983 2.6286
L5.3726 3.3543
" />
<path d="M5.3726 3.3543
L6.1587 3.3543
" />
<path d="M7.3078 3.3543
L6.7030 3.3543
" />
<path d="M6.7030 3.3543
L6.7030 2.0843
" />
</g></g>
<g style="fill:none; 
stroke:#AFAFAF; stroke-width:0.1500; stroke-opacity:1; 
stroke-linecap:round; stroke-linejoin:round;">
<text x="5.0399" y="3.2750"
textLength="4.5357" font-size="1.3333" lengthAdjust="spacingAndGlyphs"
text-anchor="middle" opacity="0">REF**</text>
<g class="stroked-text"><desc>REF**</desc>
<path d="M3.7066 3.2298
L3.3733 2.7536
" />
<path d="M3.1352 3.2298
L3.1352 2.2298
" />
<path d="M3.1352 2.2298
L3.5161 2.2298
" />
<path d="M3.5161 2.2298
L3.6114 2.2774
" />
<path d="M3.6114 2.2774
L3.6590 2.3251
" />
<path d="M3.6590 2.3251
L3.7066 2.4203
" />
<path d="M3.7066 2.4203
L3.7066 2.5632
" />
<path d="M3.7066 2.5632
L3.6590 2.6584
" />
<path d="M3.6590 2.6584
L3.6114 2.7060
" />
<path d="M3.6114 2.7060
L3.5161 2.7536
" />
<path d="M3.5161 2.7536
L3.1352 2.7536
" />
<path d="M4.1352 2.7060
L4.4685 2.7060
" />
<path d="M4.6114 3.2298
L4.1352 3.2298
" />
<path d="M4.1352 3.2298
L4.1352 2.2298
" />
<path d="M4.1352 2.2298
L4.6114 2.2298
" />
<path d="M5.3733 2.7060
L5.0399 2.7060
" />
<path d="M5.0399 3.2298
L5.0399 2.2298
" />
<path d="M5.0399 2.2298
L5.5161 2.2298
" />
<path d="M6.0399 2.2298
L6.0399 2.4679
" />
<path d="M5.8018 2.3727
L6.0399 2.4679
" />
<path d="M6.0399 2.4679
L6.2780 2.3727
" />
<path d="M5.8971 2.6584
L6.0399 2.4679
" />
<path d="M6.0399 2.4679
L6.1828 2.6584
" />
<path d="M6.8018 2.2298
L6.8018 2.4679
" />
<path d="M6.5637 2.3727
L6.8018 2.4679
" />
<path d="M6.8018 2.4679
L7.0399 2.3727
" />
<path d="M6.6590 2.6584
L6.8018 2.4679
" />
<path d="M6.8018 2.4679
L6.9447 2.6584
" />
</g></g>
<g style="fill:none; 
stroke:#AFAFAF; stroke-width:0.1000; stroke-opacity:1; 
stroke-linecap:round; stroke-linejoin:round;">
<path d="M3.1699 4.3750
L6.9199 4.3750
" />
<path d="M5.0599 0.2950 A2.4800 2.4800 0.0 0 0 3.1671 4.3774" />
<path d="M6.9610 4.3675 A2.4800 2.4800 0.0 0 0 5.0599 0.2950" />
</g> 
</svg>
