<?xml version="1.0" standalone="no"?>
 <!DOCTYPE svg PUBLIC "-//W3C//DTD SVG 1.1//EN" 
 "http://www.w3.org/Graphics/SVG/1.1/DTD/svg11.dtd"> 
<svg
  xmlns:svg="http://www.w3.org/2000/svg"
  xmlns="http://www.w3.org/2000/svg"
  xmlns:xlink="http://www.w3.org/1999/xlink"
  version="1.1"
  width="66.3702mm" height="4.5720mm" viewBox="0.0000 0.0000 66.3702 4.5720">
<title>SVG Image created as working-brd.svg date 2024/04/21 23:51:28 </title>
  <desc>Image generated by PCBNEW </desc>
<g style="fill:#000000; fill-opacity:1.0000;stroke:#000000; stroke-opacity:1.0000;
stroke-linecap:round; stroke-linejoin:round;"
 transform="translate(0 0) scale(1 1)">
</g>
<g style="fill:#4D7FC4; fill-opacity:1.0000; stroke:none;">
<circle cx="32.6411" cy="1.1475" r="0.2750" /> 
</g>
<g style="fill:#4D7FC4; fill-opacity:1.0000; stroke:none;">
<circle cx="32.6411" cy="2.2950" r="0.2750" /> 
</g>
<g style="fill:#4D7FC4; fill-opacity:1.0000; stroke:none;">
<circle cx="32.6411" cy="3.4425" r="0.2750" /> 
<path style="fill:#4D7FC4; fill-opacity:1.0000; stroke:none;fill-rule:evenodd;"
d="M 32.3661,3.7175
32.3661,0.8725
34.0171,0.8725
34.0171,3.7175
Z" /> 
</g>
<g style="fill:#4D7FC4; fill-opacity:1.0000; stroke:none;">
<circle cx="33.7421" cy="1.1475" r="0.2750" /> 
</g>
<g style="fill:#4D7FC4; fill-opacity:1.0000; stroke:none;">
<circle cx="33.7421" cy="2.2950" r="0.2750" /> 
</g>
<g style="fill:#4D7FC4; fill-opacity:1.0000; stroke:none;">
<circle cx="33.7421" cy="3.4425" r="0.2750" /> 
</g>
<g style="fill:#FFFFFF; fill-opacity:1.0000; stroke:none;">
<circle cx="32.6411" cy="1.1475" r="0.1250" /> 
</g>
<g style="fill:#FFFFFF; fill-opacity:1.0000; stroke:none;">
<circle cx="32.6411" cy="2.2950" r="0.1250" /> 
</g>
<g style="fill:#FFFFFF; fill-opacity:1.0000; stroke:none;">
<circle cx="32.6411" cy="3.4425" r="0.1250" /> 
</g>
<g style="fill:#FFFFFF; fill-opacity:1.0000; stroke:none;">
<circle cx="33.7421" cy="1.1475" r="0.1250" /> 
</g>
<g style="fill:#FFFFFF; fill-opacity:1.0000; stroke:none;">
<circle cx="33.7421" cy="2.2950" r="0.1250" /> 
</g>
<g style="fill:#FFFFFF; fill-opacity:1.0000; stroke:none;">
<circle cx="33.7421" cy="3.4425" r="0.1250" /> 
</g>
<g style="fill:#FFFFFF; fill-opacity:1.0000; stroke:none;">
<circle cx="32.6411" cy="1.1475" r="0.1250" /> 
</g>
<g style="fill:#FFFFFF; fill-opacity:1.0000; stroke:none;">
<circle cx="32.6411" cy="2.2950" r="0.1250" /> 
</g>
<g style="fill:#FFFFFF; fill-opacity:1.0000; stroke:none;">
<circle cx="32.6411" cy="3.4425" r="0.1250" /> 
</g>
<g style="fill:#FFFFFF; fill-opacity:1.0000; stroke:none;">
<circle cx="33.7421" cy="1.1475" r="0.1250" /> 
</g>
<g style="fill:#FFFFFF; fill-opacity:1.0000; stroke:none;">
<circle cx="33.7421" cy="2.2950" r="0.1250" /> 
</g>
<g style="fill:#FFFFFF; fill-opacity:1.0000; stroke:none;">
<circle cx="33.7421" cy="3.4425" r="0.1250" /> 
<path style="fill:#C83434; fill-opacity:1.0000; stroke:none;fill-rule:evenodd;"
d="M 30.3166,0.4700
30.3223,0.4413
30.3386,0.4170
30.3629,0.4007
30.3916,0.3950
31.6916,0.3950
31.7203,0.4007
31.7446,0.4170
31.7609,0.4413
31.7666,0.4700
31.7666,0.6200
31.7609,0.6487
31.7446,0.6730
31.7203,0.6893
31.6916,0.6950
30.3916,0.6950
30.3629,0.6893
30.3386,0.6730
30.3223,0.6487
30.3166,0.6200
Z" /> 
<path style="fill:#C83434; fill-opacity:1.0000; stroke:none;fill-rule:evenodd;"
d="M 30.3166,0.9700
30.3223,0.9413
30.3386,0.9170
30.3629,0.9007
30.3916,0.8950
31.6916,0.8950
31.7203,0.9007
31.7446,0.9170
31.7609,0.9413
31.7666,0.9700
31.7666,1.1200
31.7609,1.1487
31.7446,1.1730
31.7203,1.1893
31.6916,1.1950
30.3916,1.1950
30.3629,1.1893
30.3386,1.1730
30.3223,1.1487
30.3166,1.1200
Z" /> 
<path style="fill:#C83434; fill-opacity:1.0000; stroke:none;fill-rule:evenodd;"
d="M 30.3166,1.4700
30.3223,1.4413
30.3386,1.4170
30.3629,1.4007
30.3916,1.3950
31.6916,1.3950
31.7203,1.4007
31.7446,1.4170
31.7609,1.4413
31.7666,1.4700
31.7666,1.6200
31.7609,1.6487
31.7446,1.6730
31.7203,1.6893
31.6916,1.6950
30.3916,1.6950
30.3629,1.6893
30.3386,1.6730
30.3223,1.6487
30.3166,1.6200
Z" /> 
<path style="fill:#C83434; fill-opacity:1.0000; stroke:none;fill-rule:evenodd;"
d="M 30.3166,1.9700
30.3223,1.9413
30.3386,1.9170
30.3629,1.9007
30.3916,1.8950
31.6916,1.8950
31.7203,1.9007
31.7446,1.9170
31.7609,1.9413
31.7666,1.9700
31.7666,2.1200
31.7609,2.1487
31.7446,2.1730
31.7203,2.1893
31.6916,2.1950
30.3916,2.1950
30.3629,2.1893
30.3386,2.1730
30.3223,2.1487
30.3166,2.1200
Z" /> 
<path style="fill:#C83434; fill-opacity:1.0000; stroke:none;fill-rule:evenodd;"
d="M 30.3166,2.4700
30.3223,2.4413
30.3386,2.4170
30.3629,2.4007
30.3916,2.3950
31.6916,2.3950
31.7203,2.4007
31.7446,2.4170
31.7609,2.4413
31.7666,2.4700
31.7666,2.6200
31.7609,2.6487
31.7446,2.6730
31.7203,2.6893
31.6916,2.6950
30.3916,2.6950
30.3629,2.6893
30.3386,2.6730
30.3223,2.6487
30.3166,2.6200
Z" /> 
<path style="fill:#C83434; fill-opacity:1.0000; stroke:none;fill-rule:evenodd;"
d="M 30.3166,2.9700
30.3223,2.9413
30.3386,2.9170
30.3629,2.9007
30.3916,2.8950
31.6916,2.8950
31.7203,2.9007
31.7446,2.9170
31.7609,2.9413
31.7666,2.9700
31.7666,3.1200
31.7609,3.1487
31.7446,3.1730
31.7203,3.1893
31.6916,3.1950
30.3916,3.1950
30.3629,3.1893
30.3386,3.1730
30.3223,3.1487
30.3166,3.1200
Z" /> 
<path style="fill:#C83434; fill-opacity:1.0000; stroke:none;fill-rule:evenodd;"
d="M 30.3166,3.4700
30.3223,3.4413
30.3386,3.4170
30.3629,3.4007
30.3916,3.3950
31.6916,3.3950
31.7203,3.4007
31.7446,3.4170
31.7609,3.4413
31.7666,3.4700
31.7666,3.6200
31.7609,3.6487
31.7446,3.6730
31.7203,3.6893
31.6916,3.6950
30.3916,3.6950
30.3629,3.6893
30.3386,3.6730
30.3223,3.6487
30.3166,3.6200
Z" /> 
<path style="fill:#C83434; fill-opacity:1.0000; stroke:none;fill-rule:evenodd;"
d="M 30.3166,3.9700
30.3223,3.9413
30.3386,3.9170
30.3629,3.9007
30.3916,3.8950
31.6916,3.8950
31.7203,3.9007
31.7446,3.9170
31.7609,3.9413
31.7666,3.9700
31.7666,4.1200
31.7609,4.1487
31.7446,4.1730
31.7203,4.1893
31.6916,4.1950
30.3916,4.1950
30.3629,4.1893
30.3386,4.1730
30.3223,4.1487
30.3166,4.1200
Z" /> 
<path style="fill:#C83434; fill-opacity:1.0000; stroke:none;fill-rule:evenodd;"
d="M 34.6166,3.9700
34.6223,3.9413
34.6386,3.9170
34.6629,3.9007
34.6916,3.8950
35.9916,3.8950
36.0203,3.9007
36.0446,3.9170
36.0609,3.9413
36.0666,3.9700
36.0666,4.1200
36.0609,4.1487
36.0446,4.1730
36.0203,4.1893
35.9916,4.1950
34.6916,4.1950
34.6629,4.1893
34.6386,4.1730
34.6223,4.1487
34.6166,4.1200
Z" /> 
<path style="fill:#C83434; fill-opacity:1.0000; stroke:none;fill-rule:evenodd;"
d="M 34.6166,3.4700
34.6223,3.4413
34.6386,3.4170
34.6629,3.4007
34.6916,3.3950
35.9916,3.3950
36.0203,3.4007
36.0446,3.4170
36.0609,3.4413
36.0666,3.4700
36.0666,3.6200
36.0609,3.6487
36.0446,3.6730
36.0203,3.6893
35.9916,3.6950
34.6916,3.6950
34.6629,3.6893
34.6386,3.6730
34.6223,3.6487
34.6166,3.6200
Z" /> 
<path style="fill:#C83434; fill-opacity:1.0000; stroke:none;fill-rule:evenodd;"
d="M 34.6166,2.9700
34.6223,2.9413
34.6386,2.9170
34.6629,2.9007
34.6916,2.8950
35.9916,2.8950
36.0203,2.9007
36.0446,2.9170
36.0609,2.9413
36.0666,2.9700
36.0666,3.1200
36.0609,3.1487
36.0446,3.1730
36.0203,3.1893
35.9916,3.1950
34.6916,3.1950
34.6629,3.1893
34.6386,3.1730
34.6223,3.1487
34.6166,3.1200
Z" /> 
<path style="fill:#C83434; fill-opacity:1.0000; stroke:none;fill-rule:evenodd;"
d="M 34.6166,2.4700
34.6223,2.4413
34.6386,2.4170
34.6629,2.4007
34.6916,2.3950
35.9916,2.3950
36.0203,2.4007
36.0446,2.4170
36.0609,2.4413
36.0666,2.4700
36.0666,2.6200
36.0609,2.6487
36.0446,2.6730
36.0203,2.6893
35.9916,2.6950
34.6916,2.6950
34.6629,2.6893
34.6386,2.6730
34.6223,2.6487
34.6166,2.6200
Z" /> 
<path style="fill:#C83434; fill-opacity:1.0000; stroke:none;fill-rule:evenodd;"
d="M 34.6166,1.9700
34.6223,1.9413
34.6386,1.9170
34.6629,1.9007
34.6916,1.8950
35.9916,1.8950
36.0203,1.9007
36.0446,1.9170
36.0609,1.9413
36.0666,1.9700
36.0666,2.1200
36.0609,2.1487
36.0446,2.1730
36.0203,2.1893
35.9916,2.1950
34.6916,2.1950
34.6629,2.1893
34.6386,2.1730
34.6223,2.1487
34.6166,2.1200
Z" /> 
<path style="fill:#C83434; fill-opacity:1.0000; stroke:none;fill-rule:evenodd;"
d="M 34.6166,1.4700
34.6223,1.4413
34.6386,1.4170
34.6629,1.4007
34.6916,1.3950
35.9916,1.3950
36.0203,1.4007
36.0446,1.4170
36.0609,1.4413
36.0666,1.4700
36.0666,1.6200
36.0609,1.6487
36.0446,1.6730
36.0203,1.6893
35.9916,1.6950
34.6916,1.6950
34.6629,1.6893
34.6386,1.6730
34.6223,1.6487
34.6166,1.6200
Z" /> 
<path style="fill:#C83434; fill-opacity:1.0000; stroke:none;fill-rule:evenodd;"
d="M 34.6166,0.9700
34.6223,0.9413
34.6386,0.9170
34.6629,0.9007
34.6916,0.8950
35.9916,0.8950
36.0203,0.9007
36.0446,0.9170
36.0609,0.9413
36.0666,0.9700
36.0666,1.1200
36.0609,1.1487
36.0446,1.1730
36.0203,1.1893
35.9916,1.1950
34.6916,1.1950
34.6629,1.1893
34.6386,1.1730
34.6223,1.1487
34.6166,1.1200
Z" /> 
<path style="fill:#C83434; fill-opacity:1.0000; stroke:none;fill-rule:evenodd;"
d="M 34.6166,0.4700
34.6223,0.4413
34.6386,0.4170
34.6629,0.4007
34.6916,0.3950
35.9916,0.3950
36.0203,0.4007
36.0446,0.4170
36.0609,0.4413
36.0666,0.4700
36.0666,0.6200
36.0609,0.6487
36.0446,0.6730
36.0203,0.6893
35.9916,0.6950
34.6916,0.6950
34.6629,0.6893
34.6386,0.6730
34.6223,0.6487
34.6166,0.6200
Z" /> 
</g>
<g style="fill:#C83434; fill-opacity:1.0000; stroke:none;">
<circle cx="32.6411" cy="1.1475" r="0.2750" /> 
</g>
<g style="fill:#C83434; fill-opacity:1.0000; stroke:none;">
<circle cx="32.6411" cy="2.2950" r="0.2750" /> 
</g>
<g style="fill:#C83434; fill-opacity:1.0000; stroke:none;">
<circle cx="32.6411" cy="3.4425" r="0.2750" /> 
<path style="fill:#C83434; fill-opacity:1.0000; stroke:none;fill-rule:evenodd;"
d="M 32.3661,3.7175
32.3661,0.8725
34.0171,0.8725
34.0171,3.7175
Z" /> 
</g>
<g style="fill:#C83434; fill-opacity:1.0000; stroke:none;">
<circle cx="33.7421" cy="1.1475" r="0.2750" /> 
</g>
<g style="fill:#C83434; fill-opacity:1.0000; stroke:none;">
<circle cx="33.7421" cy="2.2950" r="0.2750" /> 
</g>
<g style="fill:#C83434; fill-opacity:1.0000; stroke:none;">
<circle cx="33.7421" cy="3.4425" r="0.2750" /> 
</g>
<g style="fill:#FFFFFF; fill-opacity:1.0000; stroke:none;">
<circle cx="32.6411" cy="1.1475" r="0.1250" /> 
</g>
<g style="fill:#FFFFFF; fill-opacity:1.0000; stroke:none;">
<circle cx="32.6411" cy="2.2950" r="0.1250" /> 
</g>
<g style="fill:#FFFFFF; fill-opacity:1.0000; stroke:none;">
<circle cx="32.6411" cy="3.4425" r="0.1250" /> 
</g>
<g style="fill:#FFFFFF; fill-opacity:1.0000; stroke:none;">
<circle cx="33.7421" cy="1.1475" r="0.1250" /> 
</g>
<g style="fill:#FFFFFF; fill-opacity:1.0000; stroke:none;">
<circle cx="33.7421" cy="2.2950" r="0.1250" /> 
</g>
<g style="fill:#FFFFFF; fill-opacity:1.0000; stroke:none;">
<circle cx="33.7421" cy="3.4425" r="0.1250" /> 
<path style="fill:#D864FF; fill-opacity:0.4000; stroke:none;fill-rule:evenodd;"
d="M 30.3166,0.4700
30.3223,0.4413
30.3386,0.4170
30.3629,0.4007
30.3916,0.3950
31.6916,0.3950
31.7203,0.4007
31.7446,0.4170
31.7609,0.4413
31.7666,0.4700
31.7666,0.6200
31.7609,0.6487
31.7446,0.6730
31.7203,0.6893
31.6916,0.6950
30.3916,0.6950
30.3629,0.6893
30.3386,0.6730
30.3223,0.6487
30.3166,0.6200
Z" /> 
<path style="fill:#D864FF; fill-opacity:0.4000; stroke:none;fill-rule:evenodd;"
d="M 30.3166,0.9700
30.3223,0.9413
30.3386,0.9170
30.3629,0.9007
30.3916,0.8950
31.6916,0.8950
31.7203,0.9007
31.7446,0.9170
31.7609,0.9413
31.7666,0.9700
31.7666,1.1200
31.7609,1.1487
31.7446,1.1730
31.7203,1.1893
31.6916,1.1950
30.3916,1.1950
30.3629,1.1893
30.3386,1.1730
30.3223,1.1487
30.3166,1.1200
Z" /> 
<path style="fill:#D864FF; fill-opacity:0.4000; stroke:none;fill-rule:evenodd;"
d="M 30.3166,1.4700
30.3223,1.4413
30.3386,1.4170
30.3629,1.4007
30.3916,1.3950
31.6916,1.3950
31.7203,1.4007
31.7446,1.4170
31.7609,1.4413
31.7666,1.4700
31.7666,1.6200
31.7609,1.6487
31.7446,1.6730
31.7203,1.6893
31.6916,1.6950
30.3916,1.6950
30.3629,1.6893
30.3386,1.6730
30.3223,1.6487
30.3166,1.6200
Z" /> 
<path style="fill:#D864FF; fill-opacity:0.4000; stroke:none;fill-rule:evenodd;"
d="M 30.3166,1.9700
30.3223,1.9413
30.3386,1.9170
30.3629,1.9007
30.3916,1.8950
31.6916,1.8950
31.7203,1.9007
31.7446,1.9170
31.7609,1.9413
31.7666,1.9700
31.7666,2.1200
31.7609,2.1487
31.7446,2.1730
31.7203,2.1893
31.6916,2.1950
30.3916,2.1950
30.3629,2.1893
30.3386,2.1730
30.3223,2.1487
30.3166,2.1200
Z" /> 
<path style="fill:#D864FF; fill-opacity:0.4000; stroke:none;fill-rule:evenodd;"
d="M 30.3166,2.4700
30.3223,2.4413
30.3386,2.4170
30.3629,2.4007
30.3916,2.3950
31.6916,2.3950
31.7203,2.4007
31.7446,2.4170
31.7609,2.4413
31.7666,2.4700
31.7666,2.6200
31.7609,2.6487
31.7446,2.6730
31.7203,2.6893
31.6916,2.6950
30.3916,2.6950
30.3629,2.6893
30.3386,2.6730
30.3223,2.6487
30.3166,2.6200
Z" /> 
<path style="fill:#D864FF; fill-opacity:0.4000; stroke:none;fill-rule:evenodd;"
d="M 30.3166,2.9700
30.3223,2.9413
30.3386,2.9170
30.3629,2.9007
30.3916,2.8950
31.6916,2.8950
31.7203,2.9007
31.7446,2.9170
31.7609,2.9413
31.7666,2.9700
31.7666,3.1200
31.7609,3.1487
31.7446,3.1730
31.7203,3.1893
31.6916,3.1950
30.3916,3.1950
30.3629,3.1893
30.3386,3.1730
30.3223,3.1487
30.3166,3.1200
Z" /> 
<path style="fill:#D864FF; fill-opacity:0.4000; stroke:none;fill-rule:evenodd;"
d="M 30.3166,3.4700
30.3223,3.4413
30.3386,3.4170
30.3629,3.4007
30.3916,3.3950
31.6916,3.3950
31.7203,3.4007
31.7446,3.4170
31.7609,3.4413
31.7666,3.4700
31.7666,3.6200
31.7609,3.6487
31.7446,3.6730
31.7203,3.6893
31.6916,3.6950
30.3916,3.6950
30.3629,3.6893
30.3386,3.6730
30.3223,3.6487
30.3166,3.6200
Z" /> 
<path style="fill:#D864FF; fill-opacity:0.4000; stroke:none;fill-rule:evenodd;"
d="M 30.3166,3.9700
30.3223,3.9413
30.3386,3.9170
30.3629,3.9007
30.3916,3.8950
31.6916,3.8950
31.7203,3.9007
31.7446,3.9170
31.7609,3.9413
31.7666,3.9700
31.7666,4.1200
31.7609,4.1487
31.7446,4.1730
31.7203,4.1893
31.6916,4.1950
30.3916,4.1950
30.3629,4.1893
30.3386,4.1730
30.3223,4.1487
30.3166,4.1200
Z" /> 
<path style="fill:#D864FF; fill-opacity:0.4000; stroke:none;fill-rule:evenodd;"
d="M 34.6166,3.9700
34.6223,3.9413
34.6386,3.9170
34.6629,3.9007
34.6916,3.8950
35.9916,3.8950
36.0203,3.9007
36.0446,3.9170
36.0609,3.9413
36.0666,3.9700
36.0666,4.1200
36.0609,4.1487
36.0446,4.1730
36.0203,4.1893
35.9916,4.1950
34.6916,4.1950
34.6629,4.1893
34.6386,4.1730
34.6223,4.1487
34.6166,4.1200
Z" /> 
<path style="fill:#D864FF; fill-opacity:0.4000; stroke:none;fill-rule:evenodd;"
d="M 34.6166,3.4700
34.6223,3.4413
34.6386,3.4170
34.6629,3.4007
34.6916,3.3950
35.9916,3.3950
36.0203,3.4007
36.0446,3.4170
36.0609,3.4413
36.0666,3.4700
36.0666,3.6200
36.0609,3.6487
36.0446,3.6730
36.0203,3.6893
35.9916,3.6950
34.6916,3.6950
34.6629,3.6893
34.6386,3.6730
34.6223,3.6487
34.6166,3.6200
Z" /> 
<path style="fill:#D864FF; fill-opacity:0.4000; stroke:none;fill-rule:evenodd;"
d="M 34.6166,2.9700
34.6223,2.9413
34.6386,2.9170
34.6629,2.9007
34.6916,2.8950
35.9916,2.8950
36.0203,2.9007
36.0446,2.9170
36.0609,2.9413
36.0666,2.9700
36.0666,3.1200
36.0609,3.1487
36.0446,3.1730
36.0203,3.1893
35.9916,3.1950
34.6916,3.1950
34.6629,3.1893
34.6386,3.1730
34.6223,3.1487
34.6166,3.1200
Z" /> 
<path style="fill:#D864FF; fill-opacity:0.4000; stroke:none;fill-rule:evenodd;"
d="M 34.6166,2.4700
34.6223,2.4413
34.6386,2.4170
34.6629,2.4007
34.6916,2.3950
35.9916,2.3950
36.0203,2.4007
36.0446,2.4170
36.0609,2.4413
36.0666,2.4700
36.0666,2.6200
36.0609,2.6487
36.0446,2.6730
36.0203,2.6893
35.9916,2.6950
34.6916,2.6950
34.6629,2.6893
34.6386,2.6730
34.6223,2.6487
34.6166,2.6200
Z" /> 
<path style="fill:#D864FF; fill-opacity:0.4000; stroke:none;fill-rule:evenodd;"
d="M 34.6166,1.9700
34.6223,1.9413
34.6386,1.9170
34.6629,1.9007
34.6916,1.8950
35.9916,1.8950
36.0203,1.9007
36.0446,1.9170
36.0609,1.9413
36.0666,1.9700
36.0666,2.1200
36.0609,2.1487
36.0446,2.1730
36.0203,2.1893
35.9916,2.1950
34.6916,2.1950
34.6629,2.1893
34.6386,2.1730
34.6223,2.1487
34.6166,2.1200
Z" /> 
<path style="fill:#D864FF; fill-opacity:0.4000; stroke:none;fill-rule:evenodd;"
d="M 34.6166,1.4700
34.6223,1.4413
34.6386,1.4170
34.6629,1.4007
34.6916,1.3950
35.9916,1.3950
36.0203,1.4007
36.0446,1.4170
36.0609,1.4413
36.0666,1.4700
36.0666,1.6200
36.0609,1.6487
36.0446,1.6730
36.0203,1.6893
35.9916,1.6950
34.6916,1.6950
34.6629,1.6893
34.6386,1.6730
34.6223,1.6487
34.6166,1.6200
Z" /> 
<path style="fill:#D864FF; fill-opacity:0.4000; stroke:none;fill-rule:evenodd;"
d="M 34.6166,0.9700
34.6223,0.9413
34.6386,0.9170
34.6629,0.9007
34.6916,0.8950
35.9916,0.8950
36.0203,0.9007
36.0446,0.9170
36.0609,0.9413
36.0666,0.9700
36.0666,1.1200
36.0609,1.1487
36.0446,1.1730
36.0203,1.1893
35.9916,1.1950
34.6916,1.1950
34.6629,1.1893
34.6386,1.1730
34.6223,1.1487
34.6166,1.1200
Z" /> 
<path style="fill:#D864FF; fill-opacity:0.4000; stroke:none;fill-rule:evenodd;"
d="M 34.6166,0.4700
34.6223,0.4413
34.6386,0.4170
34.6629,0.4007
34.6916,0.3950
35.9916,0.3950
36.0203,0.4007
36.0446,0.4170
36.0609,0.4413
36.0666,0.4700
36.0666,0.6200
36.0609,0.6487
36.0446,0.6730
36.0203,0.6893
35.9916,0.6950
34.6916,0.6950
34.6629,0.6893
34.6386,0.6730
34.6223,0.6487
34.6166,0.6200
Z" /> 
<path style="fill:#D864FF; fill-opacity:0.4000; stroke:none;fill-rule:evenodd;"
d="M 32.3661,3.7175
32.3661,0.8725
34.0171,0.8725
34.0171,3.7175
Z" /> 
<path style="fill:#B4A09A; fill-opacity:0.9000; stroke:none;fill-rule:evenodd;"
d="M 32.4316,1.1625
32.4447,1.0965
32.4821,1.0405
32.5381,1.0031
32.6041,0.9900
32.9491,0.9900
33.0151,1.0031
33.0711,1.0405
33.1085,1.0965
33.1216,1.1625
33.1216,2.0075
33.1085,2.0735
33.0711,2.1295
33.0151,2.1669
32.9491,2.1800
32.6041,2.1800
32.5381,2.1669
32.4821,2.1295
32.4447,2.0735
32.4316,2.0075
Z" /> 
<path style="fill:#B4A09A; fill-opacity:0.9000; stroke:none;fill-rule:evenodd;"
d="M 32.4316,2.5825
32.4447,2.5165
32.4821,2.4605
32.5381,2.4231
32.6041,2.4100
32.9491,2.4100
33.0151,2.4231
33.0711,2.4605
33.1085,2.5165
33.1216,2.5825
33.1216,3.4275
33.1085,3.4935
33.0711,3.5495
33.0151,3.5869
32.9491,3.6000
32.6041,3.6000
32.5381,3.5869
32.4821,3.5495
32.4447,3.4935
32.4316,3.4275
Z" /> 
<path style="fill:#B4A09A; fill-opacity:0.9000; stroke:none;fill-rule:evenodd;"
d="M 33.2616,1.1625
33.2747,1.0965
33.3121,1.0405
33.3681,1.0031
33.4341,0.9900
33.7791,0.9900
33.8451,1.0031
33.9011,1.0405
33.9385,1.0965
33.9516,1.1625
33.9516,2.0075
33.9385,2.0735
33.9011,2.1295
33.8451,2.1669
33.7791,2.1800
33.4341,2.1800
33.3681,2.1669
33.3121,2.1295
33.2747,2.0735
33.2616,2.0075
Z" /> 
<path style="fill:#B4A09A; fill-opacity:0.9000; stroke:none;fill-rule:evenodd;"
d="M 33.2616,2.5825
33.2747,2.5165
33.3121,2.4605
33.3681,2.4231
33.4341,2.4100
33.7791,2.4100
33.8451,2.4231
33.9011,2.4605
33.9385,2.5165
33.9516,2.5825
33.9516,3.4275
33.9385,3.4935
33.9011,3.5495
33.8451,3.5869
33.7791,3.6000
33.4341,3.6000
33.3681,3.5869
33.3121,3.5495
33.2747,3.4935
33.2616,3.4275
Z" /> 
<path style="fill:#B4A09A; fill-opacity:0.9000; stroke:none;fill-rule:evenodd;"
d="M 30.3166,0.4700
30.3223,0.4413
30.3386,0.4170
30.3629,0.4007
30.3916,0.3950
31.6916,0.3950
31.7203,0.4007
31.7446,0.4170
31.7609,0.4413
31.7666,0.4700
31.7666,0.6200
31.7609,0.6487
31.7446,0.6730
31.7203,0.6893
31.6916,0.6950
30.3916,0.6950
30.3629,0.6893
30.3386,0.6730
30.3223,0.6487
30.3166,0.6200
Z" /> 
<path style="fill:#B4A09A; fill-opacity:0.9000; stroke:none;fill-rule:evenodd;"
d="M 30.3166,0.9700
30.3223,0.9413
30.3386,0.9170
30.3629,0.9007
30.3916,0.8950
31.6916,0.8950
31.7203,0.9007
31.7446,0.9170
31.7609,0.9413
31.7666,0.9700
31.7666,1.1200
31.7609,1.1487
31.7446,1.1730
31.7203,1.1893
31.6916,1.1950
30.3916,1.1950
30.3629,1.1893
30.3386,1.1730
30.3223,1.1487
30.3166,1.1200
Z" /> 
<path style="fill:#B4A09A; fill-opacity:0.9000; stroke:none;fill-rule:evenodd;"
d="M 30.3166,1.4700
30.3223,1.4413
30.3386,1.4170
30.3629,1.4007
30.3916,1.3950
31.6916,1.3950
31.7203,1.4007
31.7446,1.4170
31.7609,1.4413
31.7666,1.4700
31.7666,1.6200
31.7609,1.6487
31.7446,1.6730
31.7203,1.6893
31.6916,1.6950
30.3916,1.6950
30.3629,1.6893
30.3386,1.6730
30.3223,1.6487
30.3166,1.6200
Z" /> 
<path style="fill:#B4A09A; fill-opacity:0.9000; stroke:none;fill-rule:evenodd;"
d="M 30.3166,1.9700
30.3223,1.9413
30.3386,1.9170
30.3629,1.9007
30.3916,1.8950
31.6916,1.8950
31.7203,1.9007
31.7446,1.9170
31.7609,1.9413
31.7666,1.9700
31.7666,2.1200
31.7609,2.1487
31.7446,2.1730
31.7203,2.1893
31.6916,2.1950
30.3916,2.1950
30.3629,2.1893
30.3386,2.1730
30.3223,2.1487
30.3166,2.1200
Z" /> 
<path style="fill:#B4A09A; fill-opacity:0.9000; stroke:none;fill-rule:evenodd;"
d="M 30.3166,2.4700
30.3223,2.4413
30.3386,2.4170
30.3629,2.4007
30.3916,2.3950
31.6916,2.3950
31.7203,2.4007
31.7446,2.4170
31.7609,2.4413
31.7666,2.4700
31.7666,2.6200
31.7609,2.6487
31.7446,2.6730
31.7203,2.6893
31.6916,2.6950
30.3916,2.6950
30.3629,2.6893
30.3386,2.6730
30.3223,2.6487
30.3166,2.6200
Z" /> 
<path style="fill:#B4A09A; fill-opacity:0.9000; stroke:none;fill-rule:evenodd;"
d="M 30.3166,2.9700
30.3223,2.9413
30.3386,2.9170
30.3629,2.9007
30.3916,2.8950
31.6916,2.8950
31.7203,2.9007
31.7446,2.9170
31.7609,2.9413
31.7666,2.9700
31.7666,3.1200
31.7609,3.1487
31.7446,3.1730
31.7203,3.1893
31.6916,3.1950
30.3916,3.1950
30.3629,3.1893
30.3386,3.1730
30.3223,3.1487
30.3166,3.1200
Z" /> 
<path style="fill:#B4A09A; fill-opacity:0.9000; stroke:none;fill-rule:evenodd;"
d="M 30.3166,3.4700
30.3223,3.4413
30.3386,3.4170
30.3629,3.4007
30.3916,3.3950
31.6916,3.3950
31.7203,3.4007
31.7446,3.4170
31.7609,3.4413
31.7666,3.4700
31.7666,3.6200
31.7609,3.6487
31.7446,3.6730
31.7203,3.6893
31.6916,3.6950
30.3916,3.6950
30.3629,3.6893
30.3386,3.6730
30.3223,3.6487
30.3166,3.6200
Z" /> 
<path style="fill:#B4A09A; fill-opacity:0.9000; stroke:none;fill-rule:evenodd;"
d="M 30.3166,3.9700
30.3223,3.9413
30.3386,3.9170
30.3629,3.9007
30.3916,3.8950
31.6916,3.8950
31.7203,3.9007
31.7446,3.9170
31.7609,3.9413
31.7666,3.9700
31.7666,4.1200
31.7609,4.1487
31.7446,4.1730
31.7203,4.1893
31.6916,4.1950
30.3916,4.1950
30.3629,4.1893
30.3386,4.1730
30.3223,4.1487
30.3166,4.1200
Z" /> 
<path style="fill:#B4A09A; fill-opacity:0.9000; stroke:none;fill-rule:evenodd;"
d="M 34.6166,3.9700
34.6223,3.9413
34.6386,3.9170
34.6629,3.9007
34.6916,3.8950
35.9916,3.8950
36.0203,3.9007
36.0446,3.9170
36.0609,3.9413
36.0666,3.9700
36.0666,4.1200
36.0609,4.1487
36.0446,4.1730
36.0203,4.1893
35.9916,4.1950
34.6916,4.1950
34.6629,4.1893
34.6386,4.1730
34.6223,4.1487
34.6166,4.1200
Z" /> 
<path style="fill:#B4A09A; fill-opacity:0.9000; stroke:none;fill-rule:evenodd;"
d="M 34.6166,3.4700
34.6223,3.4413
34.6386,3.4170
34.6629,3.4007
34.6916,3.3950
35.9916,3.3950
36.0203,3.4007
36.0446,3.4170
36.0609,3.4413
36.0666,3.4700
36.0666,3.6200
36.0609,3.6487
36.0446,3.6730
36.0203,3.6893
35.9916,3.6950
34.6916,3.6950
34.6629,3.6893
34.6386,3.6730
34.6223,3.6487
34.6166,3.6200
Z" /> 
<path style="fill:#B4A09A; fill-opacity:0.9000; stroke:none;fill-rule:evenodd;"
d="M 34.6166,2.9700
34.6223,2.9413
34.6386,2.9170
34.6629,2.9007
34.6916,2.8950
35.9916,2.8950
36.0203,2.9007
36.0446,2.9170
36.0609,2.9413
36.0666,2.9700
36.0666,3.1200
36.0609,3.1487
36.0446,3.1730
36.0203,3.1893
35.9916,3.1950
34.6916,3.1950
34.6629,3.1893
34.6386,3.1730
34.6223,3.1487
34.6166,3.1200
Z" /> 
<path style="fill:#B4A09A; fill-opacity:0.9000; stroke:none;fill-rule:evenodd;"
d="M 34.6166,2.4700
34.6223,2.4413
34.6386,2.4170
34.6629,2.4007
34.6916,2.3950
35.9916,2.3950
36.0203,2.4007
36.0446,2.4170
36.0609,2.4413
36.0666,2.4700
36.0666,2.6200
36.0609,2.6487
36.0446,2.6730
36.0203,2.6893
35.9916,2.6950
34.6916,2.6950
34.6629,2.6893
34.6386,2.6730
34.6223,2.6487
34.6166,2.6200
Z" /> 
<path style="fill:#B4A09A; fill-opacity:0.9000; stroke:none;fill-rule:evenodd;"
d="M 34.6166,1.9700
34.6223,1.9413
34.6386,1.9170
34.6629,1.9007
34.6916,1.8950
35.9916,1.8950
36.0203,1.9007
36.0446,1.9170
36.0609,1.9413
36.0666,1.9700
36.0666,2.1200
36.0609,2.1487
36.0446,2.1730
36.0203,2.1893
35.9916,2.1950
34.6916,2.1950
34.6629,2.1893
34.6386,2.1730
34.6223,2.1487
34.6166,2.1200
Z" /> 
<path style="fill:#B4A09A; fill-opacity:0.9000; stroke:none;fill-rule:evenodd;"
d="M 34.6166,1.4700
34.6223,1.4413
34.6386,1.4170
34.6629,1.4007
34.6916,1.3950
35.9916,1.3950
36.0203,1.4007
36.0446,1.4170
36.0609,1.4413
36.0666,1.4700
36.0666,1.6200
36.0609,1.6487
36.0446,1.6730
36.0203,1.6893
35.9916,1.6950
34.6916,1.6950
34.6629,1.6893
34.6386,1.6730
34.6223,1.6487
34.6166,1.6200
Z" /> 
<path style="fill:#B4A09A; fill-opacity:0.9000; stroke:none;fill-rule:evenodd;"
d="M 34.6166,0.9700
34.6223,0.9413
34.6386,0.9170
34.6629,0.9007
34.6916,0.8950
35.9916,0.8950
36.0203,0.9007
36.0446,0.9170
36.0609,0.9413
36.0666,0.9700
36.0666,1.1200
36.0609,1.1487
36.0446,1.1730
36.0203,1.1893
35.9916,1.1950
34.6916,1.1950
34.6629,1.1893
34.6386,1.1730
34.6223,1.1487
34.6166,1.1200
Z" /> 
<path style="fill:#B4A09A; fill-opacity:0.9000; stroke:none;fill-rule:evenodd;"
d="M 34.6166,0.4700
34.6223,0.4413
34.6386,0.4170
34.6629,0.4007
34.6916,0.3950
35.9916,0.3950
36.0203,0.4007
36.0446,0.4170
36.0609,0.4413
36.0666,0.4700
36.0666,0.6200
36.0609,0.6487
36.0446,0.6730
36.0203,0.6893
35.9916,0.6950
34.6916,0.6950
34.6629,0.6893
34.6386,0.6730
34.6223,0.6487
34.6166,0.6200
Z" /> 
</g>
<g style="fill:none; 
stroke:#F2EDA1; stroke-width:0.1588; stroke-opacity:1; 
stroke-linecap:round; stroke-linejoin:round;">
<text x="33.1916" y="2.9300"
textLength="5.6651" font-size="1.6933" lengthAdjust="spacingAndGlyphs"
text-anchor="middle" opacity="0">REF**</text>
<g class="stroked-text"><desc>REF**</desc>
<path d="M31.4983 2.8743
L31.0749 2.2695
" />
<path d="M30.7726 2.8743
L30.7726 1.6043
" />
<path d="M30.7726 1.6043
L31.2564 1.6043
" />
<path d="M31.2564 1.6043
L31.3773 1.6647
" />
<path d="M31.3773 1.6647
L31.4378 1.7252
" />
<path d="M31.4378 1.7252
L31.4983 1.8462
" />
<path d="M31.4983 1.8462
L31.4983 2.0276
" />
<path d="M31.4983 2.0276
L31.4378 2.1486
" />
<path d="M31.4378 2.1486
L31.3773 2.2090
" />
<path d="M31.3773 2.2090
L31.2564 2.2695
" />
<path d="M31.2564 2.2695
L30.7726 2.2695
" />
<path d="M32.0426 2.2090
L32.4659 2.2090
" />
<path d="M32.6473 2.8743
L32.0426 2.8743
" />
<path d="M32.0426 2.8743
L32.0426 1.6043
" />
<path d="M32.0426 1.6043
L32.6473 1.6043
" />
<path d="M33.6149 2.2090
L33.1916 2.2090
" />
<path d="M33.1916 2.8743
L33.1916 1.6043
" />
<path d="M33.1916 1.6043
L33.7964 1.6043
" />
<path d="M34.4616 1.6043
L34.4616 1.9067
" />
<path d="M34.1592 1.7857
L34.4616 1.9067
" />
<path d="M34.4616 1.9067
L34.7640 1.7857
" />
<path d="M34.2802 2.1486
L34.4616 1.9067
" />
<path d="M34.4616 1.9067
L34.6430 2.1486
" />
<path d="M35.4292 1.6043
L35.4292 1.9067
" />
<path d="M35.1268 1.7857
L35.4292 1.9067
" />
<path d="M35.4292 1.9067
L35.7316 1.7857
" />
<path d="M35.2478 2.1486
L35.4292 1.9067
" />
<path d="M35.4292 1.9067
L35.6106 2.1486
" />
</g></g>
<g style="fill:none; 
stroke:#F2EDA1; stroke-width:0.1200; stroke-opacity:1; 
stroke-linecap:round; stroke-linejoin:round;">
<path d="M33.1916 0.1350
L31.6916 0.1350
" />
<path d="M33.1916 0.1350
L34.6916 0.1350
" />
<path d="M33.1916 4.4550
L31.6916 4.4550
" />
<path d="M33.1916 4.4550
L34.6916 4.4550
" />
<path style="fill:#F2EDA1; fill-opacity:1.0000; 
stroke:#F2EDA1; stroke-width:0.1200; stroke-opacity:1; 
stroke-linecap:round; stroke-linejoin:round;fill-rule:evenodd;"
d="M 30.0566,0.5450
29.7266,0.7850
29.7266,0.3050
Z" /> 
</g>
<g style="fill:#FFFFFF; fill-opacity:1.0000; stroke:none;">
<circle cx="32.6411" cy="1.1475" r="0.1250" /> 
</g>
<g style="fill:#FFFFFF; fill-opacity:1.0000; stroke:none;">
<circle cx="32.6411" cy="2.2950" r="0.1250" /> 
</g>
<g style="fill:#FFFFFF; fill-opacity:1.0000; stroke:none;">
<circle cx="32.6411" cy="3.4425" r="0.1250" /> 
</g>
<g style="fill:#FFFFFF; fill-opacity:1.0000; stroke:none;">
<circle cx="33.7421" cy="1.1475" r="0.1250" /> 
</g>
<g style="fill:#FFFFFF; fill-opacity:1.0000; stroke:none;">
<circle cx="33.7421" cy="2.2950" r="0.1250" /> 
</g>
<g style="fill:#FFFFFF; fill-opacity:1.0000; stroke:none;">
<circle cx="33.7421" cy="3.4425" r="0.1250" /> 
</g>
<g style="fill:none; 
stroke:#FF26E2; stroke-width:0.0500; stroke-opacity:1; 
stroke-linecap:round; stroke-linejoin:round;">
<path d="M30.0716 0.0250
L30.0716 4.5650
" />
<path d="M30.0716 4.5650
L36.3116 4.5650
" />
<path d="M36.3116 0.0250
L30.0716 0.0250
" />
<path d="M36.3116 4.5650
L36.3116 0.0250
" />
</g>
<g style="fill:none; 
stroke:#AFAFAF; stroke-width:0.1588; stroke-opacity:1; 
stroke-linecap:round; stroke-linejoin:round;">
<text x="33.1916" y="2.9300"
textLength="66.3832" font-size="1.6933" lengthAdjust="spacingAndGlyphs"
text-anchor="middle" opacity="0">MSOP-16-1EP_3x4.039mm_P0.5mm_EP1.651x2.845mm_ThermalVias</text>
<g class="stroked-text"><desc>MSOP-16-1EP_3x4.039mm_P0.5mm_EP1.651x2.845mm_ThermalVias</desc>
<path d="M0.4135 2.8743
L0.4135 1.6043
" />
<path d="M0.4135 1.6043
L0.8368 2.5114
" />
<path d="M0.8368 2.5114
L1.2602 1.6043
" />
<path d="M1.2602 1.6043
L1.2602 2.8743
" />
<path d="M1.8045 2.8138
L1.9859 2.8743
" />
<path d="M1.9859 2.8743
L2.2883 2.8743
" />
<path d="M2.2883 2.8743
L2.4092 2.8138
" />
<path d="M2.4092 2.8138
L2.4697 2.7533
" />
<path d="M2.4697 2.7533
L2.5302 2.6324
" />
<path d="M2.5302 2.6324
L2.5302 2.5114
" />
<path d="M2.5302 2.5114
L2.4697 2.3905
" />
<path d="M2.4697 2.3905
L2.4092 2.3300
" />
<path d="M2.4092 2.3300
L2.2883 2.2695
" />
<path d="M2.2883 2.2695
L2.0464 2.2090
" />
<path d="M2.0464 2.2090
L1.9254 2.1486
" />
<path d="M1.9254 2.1486
L1.8649 2.0881
" />
<path d="M1.8649 2.0881
L1.8045 1.9671
" />
<path d="M1.8045 1.9671
L1.8045 1.8462
" />
<path d="M1.8045 1.8462
L1.8649 1.7252
" />
<path d="M1.8649 1.7252
L1.9254 1.6647
" />
<path d="M1.9254 1.6647
L2.0464 1.6043
" />
<path d="M2.0464 1.6043
L2.3487 1.6043
" />
<path d="M2.3487 1.6043
L2.5302 1.6647
" />
<path d="M3.3164 1.6043
L3.5583 1.6043
" />
<path d="M3.5583 1.6043
L3.6792 1.6647
" />
<path d="M3.6792 1.6647
L3.8002 1.7857
" />
<path d="M3.8002 1.7857
L3.8606 2.0276
" />
<path d="M3.8606 2.0276
L3.8606 2.4509
" />
<path d="M3.8606 2.4509
L3.8002 2.6928
" />
<path d="M3.8002 2.6928
L3.6792 2.8138
" />
<path d="M3.6792 2.8138
L3.5583 2.8743
" />
<path d="M3.5583 2.8743
L3.3164 2.8743
" />
<path d="M3.3164 2.8743
L3.1954 2.8138
" />
<path d="M3.1954 2.8138
L3.0745 2.6928
" />
<path d="M3.0745 2.6928
L3.0140 2.4509
" />
<path d="M3.0140 2.4509
L3.0140 2.0276
" />
<path d="M3.0140 2.0276
L3.0745 1.7857
" />
<path d="M3.0745 1.7857
L3.1954 1.6647
" />
<path d="M3.1954 1.6647
L3.3164 1.6043
" />
<path d="M4.4049 2.8743
L4.4049 1.6043
" />
<path d="M4.4049 1.6043
L4.8887 1.6043
" />
<path d="M4.8887 1.6043
L5.0097 1.6647
" />
<path d="M5.0097 1.6647
L5.0702 1.7252
" />
<path d="M5.0702 1.7252
L5.1307 1.8462
" />
<path d="M5.1307 1.8462
L5.1307 2.0276
" />
<path d="M5.1307 2.0276
L5.0702 2.1486
" />
<path d="M5.0702 2.1486
L5.0097 2.2090
" />
<path d="M5.0097 2.2090
L4.8887 2.2695
" />
<path d="M4.8887 2.2695
L4.4049 2.2695
" />
<path d="M5.6749 2.3905
L6.6426 2.3905
" />
<path d="M7.9126 2.8743
L7.1868 2.8743
" />
<path d="M7.5497 2.8743
L7.5497 1.6043
" />
<path d="M7.5497 1.6043
L7.4287 1.7857
" />
<path d="M7.4287 1.7857
L7.3078 1.9067
" />
<path d="M7.3078 1.9067
L7.1868 1.9671
" />
<path d="M9.0011 1.6043
L8.7592 1.6043
" />
<path d="M8.7592 1.6043
L8.6383 1.6647
" />
<path d="M8.6383 1.6647
L8.5778 1.7252
" />
<path d="M8.5778 1.7252
L8.4568 1.9067
" />
<path d="M8.4568 1.9067
L8.3964 2.1486
" />
<path d="M8.3964 2.1486
L8.3964 2.6324
" />
<path d="M8.3964 2.6324
L8.4568 2.7533
" />
<path d="M8.4568 2.7533
L8.5173 2.8138
" />
<path d="M8.5173 2.8138
L8.6383 2.8743
" />
<path d="M8.6383 2.8743
L8.8802 2.8743
" />
<path d="M8.8802 2.8743
L9.0011 2.8138
" />
<path d="M9.0011 2.8138
L9.0616 2.7533
" />
<path d="M9.0616 2.7533
L9.1221 2.6324
" />
<path d="M9.1221 2.6324
L9.1221 2.3300
" />
<path d="M9.1221 2.3300
L9.0616 2.2090
" />
<path d="M9.0616 2.2090
L9.0011 2.1486
" />
<path d="M9.0011 2.1486
L8.8802 2.0881
" />
<path d="M8.8802 2.0881
L8.6383 2.0881
" />
<path d="M8.6383 2.0881
L8.5173 2.1486
" />
<path d="M8.5173 2.1486
L8.4568 2.2090
" />
<path d="M8.4568 2.2090
L8.3964 2.3300
" />
<path d="M9.6664 2.3905
L10.6340 2.3905
" />
<path d="M11.9040 2.8743
L11.1783 2.8743
" />
<path d="M11.5411 2.8743
L11.5411 1.6043
" />
<path d="M11.5411 1.6043
L11.4202 1.7857
" />
<path d="M11.4202 1.7857
L11.2992 1.9067
" />
<path d="M11.2992 1.9067
L11.1783 1.9671
" />
<path d="M12.4483 2.2090
L12.8716 2.2090
" />
<path d="M13.0530 2.8743
L12.4483 2.8743
" />
<path d="M12.4483 2.8743
L12.4483 1.6043
" />
<path d="M12.4483 1.6043
L13.0530 1.6043
" />
<path d="M13.5973 2.8743
L13.5973 1.6043
" />
<path d="M13.5973 1.6043
L14.0811 1.6043
" />
<path d="M14.0811 1.6043
L14.2021 1.6647
" />
<path d="M14.2021 1.6647
L14.2626 1.7252
" />
<path d="M14.2626 1.7252
L14.3230 1.8462
" />
<path d="M14.3230 1.8462
L14.3230 2.0276
" />
<path d="M14.3230 2.0276
L14.2626 2.1486
" />
<path d="M14.2626 2.1486
L14.2021 2.2090
" />
<path d="M14.2021 2.2090
L14.0811 2.2695
" />
<path d="M14.0811 2.2695
L13.5973 2.2695
" />
<path d="M14.5649 2.9952
L15.5326 2.9952
" />
<path d="M15.7140 1.6043
L16.5002 1.6043
" />
<path d="M16.5002 1.6043
L16.0768 2.0881
" />
<path d="M16.0768 2.0881
L16.2583 2.0881
" />
<path d="M16.2583 2.0881
L16.3792 2.1486
" />
<path d="M16.3792 2.1486
L16.4397 2.2090
" />
<path d="M16.4397 2.2090
L16.5002 2.3300
" />
<path d="M16.5002 2.3300
L16.5002 2.6324
" />
<path d="M16.5002 2.6324
L16.4397 2.7533
" />
<path d="M16.4397 2.7533
L16.3792 2.8138
" />
<path d="M16.3792 2.8138
L16.2583 2.8743
" />
<path d="M16.2583 2.8743
L15.8954 2.8743
" />
<path d="M15.8954 2.8743
L15.7745 2.8138
" />
<path d="M15.7745 2.8138
L15.7140 2.7533
" />
<path d="M16.9235 2.8743
L17.5887 2.0276
" />
<path d="M16.9235 2.0276
L17.5887 2.8743
" />
<path d="M18.6168 2.0276
L18.6168 2.8743
" />
<path d="M18.3145 1.5438
L18.0121 2.4509
" />
<path d="M18.0121 2.4509
L18.7983 2.4509
" />
<path d="M19.2821 2.7533
L19.3426 2.8138
" />
<path d="M19.3426 2.8138
L19.2821 2.8743
" />
<path d="M19.2821 2.8743
L19.2216 2.8138
" />
<path d="M19.2216 2.8138
L19.2821 2.7533
" />
<path d="M19.2821 2.7533
L19.2821 2.8743
" />
<path d="M20.1287 1.6043
L20.2497 1.6043
" />
<path d="M20.2497 1.6043
L20.3707 1.6647
" />
<path d="M20.3707 1.6647
L20.4311 1.7252
" />
<path d="M20.4311 1.7252
L20.4916 1.8462
" />
<path d="M20.4916 1.8462
L20.5521 2.0881
" />
<path d="M20.5521 2.0881
L20.5521 2.3905
" />
<path d="M20.5521 2.3905
L20.4916 2.6324
" />
<path d="M20.4916 2.6324
L20.4311 2.7533
" />
<path d="M20.4311 2.7533
L20.3707 2.8138
" />
<path d="M20.3707 2.8138
L20.2497 2.8743
" />
<path d="M20.2497 2.8743
L20.1287 2.8743
" />
<path d="M20.1287 2.8743
L20.0078 2.8138
" />
<path d="M20.0078 2.8138
L19.9473 2.7533
" />
<path d="M19.9473 2.7533
L19.8868 2.6324
" />
<path d="M19.8868 2.6324
L19.8264 2.3905
" />
<path d="M19.8264 2.3905
L19.8264 2.0881
" />
<path d="M19.8264 2.0881
L19.8868 1.8462
" />
<path d="M19.8868 1.8462
L19.9473 1.7252
" />
<path d="M19.9473 1.7252
L20.0078 1.6647
" />
<path d="M20.0078 1.6647
L20.1287 1.6043
" />
<path d="M20.9754 1.6043
L21.7616 1.6043
" />
<path d="M21.7616 1.6043
L21.3383 2.0881
" />
<path d="M21.3383 2.0881
L21.5197 2.0881
" />
<path d="M21.5197 2.0881
L21.6407 2.1486
" />
<path d="M21.6407 2.1486
L21.7011 2.2090
" />
<path d="M21.7011 2.2090
L21.7616 2.3300
" />
<path d="M21.7616 2.3300
L21.7616 2.6324
" />
<path d="M21.7616 2.6324
L21.7011 2.7533
" />
<path d="M21.7011 2.7533
L21.6407 2.8138
" />
<path d="M21.6407 2.8138
L21.5197 2.8743
" />
<path d="M21.5197 2.8743
L21.1568 2.8743
" />
<path d="M21.1568 2.8743
L21.0359 2.8138
" />
<path d="M21.0359 2.8138
L20.9754 2.7533
" />
<path d="M22.3664 2.8743
L22.6083 2.8743
" />
<path d="M22.6083 2.8743
L22.7292 2.8138
" />
<path d="M22.7292 2.8138
L22.7897 2.7533
" />
<path d="M22.7897 2.7533
L22.9107 2.5719
" />
<path d="M22.9107 2.5719
L22.9711 2.3300
" />
<path d="M22.9711 2.3300
L22.9711 1.8462
" />
<path d="M22.9711 1.8462
L22.9107 1.7252
" />
<path d="M22.9107 1.7252
L22.8502 1.6647
" />
<path d="M22.8502 1.6647
L22.7292 1.6043
" />
<path d="M22.7292 1.6043
L22.4873 1.6043
" />
<path d="M22.4873 1.6043
L22.3664 1.6647
" />
<path d="M22.3664 1.6647
L22.3059 1.7252
" />
<path d="M22.3059 1.7252
L22.2454 1.8462
" />
<path d="M22.2454 1.8462
L22.2454 2.1486
" />
<path d="M22.2454 2.1486
L22.3059 2.2695
" />
<path d="M22.3059 2.2695
L22.3664 2.3300
" />
<path d="M22.3664 2.3300
L22.4873 2.3905
" />
<path d="M22.4873 2.3905
L22.7292 2.3905
" />
<path d="M22.7292 2.3905
L22.8502 2.3300
" />
<path d="M22.8502 2.3300
L22.9107 2.2695
" />
<path d="M22.9107 2.2695
L22.9711 2.1486
" />
<path d="M23.5154 2.8743
L23.5154 2.0276
" />
<path d="M23.5154 2.1486
L23.5759 2.0881
" />
<path d="M23.5759 2.0881
L23.6968 2.0276
" />
<path d="M23.6968 2.0276
L23.8783 2.0276
" />
<path d="M23.8783 2.0276
L23.9992 2.0881
" />
<path d="M23.9992 2.0881
L24.0597 2.2090
" />
<path d="M24.0597 2.2090
L24.0597 2.8743
" />
<path d="M24.0597 2.2090
L24.1202 2.0881
" />
<path d="M24.1202 2.0881
L24.2411 2.0276
" />
<path d="M24.2411 2.0276
L24.4226 2.0276
" />
<path d="M24.4226 2.0276
L24.5435 2.0881
" />
<path d="M24.5435 2.0881
L24.6040 2.2090
" />
<path d="M24.6040 2.2090
L24.6040 2.8743
" />
<path d="M25.2087 2.8743
L25.2087 2.0276
" />
<path d="M25.2087 2.1486
L25.2692 2.0881
" />
<path d="M25.2692 2.0881
L25.3902 2.0276
" />
<path d="M25.3902 2.0276
L25.5716 2.0276
" />
<path d="M25.5716 2.0276
L25.6926 2.0881
" />
<path d="M25.6926 2.0881
L25.7530 2.2090
" />
<path d="M25.7530 2.2090
L25.7530 2.8743
" />
<path d="M25.7530 2.2090
L25.8135 2.0881
" />
<path d="M25.8135 2.0881
L25.9345 2.0276
" />
<path d="M25.9345 2.0276
L26.1159 2.0276
" />
<path d="M26.1159 2.0276
L26.2368 2.0881
" />
<path d="M26.2368 2.0881
L26.2973 2.2090
" />
<path d="M26.2973 2.2090
L26.2973 2.8743
" />
<path d="M26.5997 2.9952
L27.5673 2.9952
" />
<path d="M27.8697 2.8743
L27.8697 1.6043
" />
<path d="M27.8697 1.6043
L28.3535 1.6043
" />
<path d="M28.3535 1.6043
L28.4745 1.6647
" />
<path d="M28.4745 1.6647
L28.5349 1.7252
" />
<path d="M28.5349 1.7252
L28.5954 1.8462
" />
<path d="M28.5954 1.8462
L28.5954 2.0276
" />
<path d="M28.5954 2.0276
L28.5349 2.1486
" />
<path d="M28.5349 2.1486
L28.4745 2.2090
" />
<path d="M28.4745 2.2090
L28.3535 2.2695
" />
<path d="M28.3535 2.2695
L27.8697 2.2695
" />
<path d="M29.3816 1.6043
L29.5026 1.6043
" />
<path d="M29.5026 1.6043
L29.6235 1.6647
" />
<path d="M29.6235 1.6647
L29.6840 1.7252
" />
<path d="M29.6840 1.7252
L29.7445 1.8462
" />
<path d="M29.7445 1.8462
L29.8049 2.0881
" />
<path d="M29.8049 2.0881
L29.8049 2.3905
" />
<path d="M29.8049 2.3905
L29.7445 2.6324
" />
<path d="M29.7445 2.6324
L29.6840 2.7533
" />
<path d="M29.6840 2.7533
L29.6235 2.8138
" />
<path d="M29.6235 2.8138
L29.5026 2.8743
" />
<path d="M29.5026 2.8743
L29.3816 2.8743
" />
<path d="M29.3816 2.8743
L29.2607 2.8138
" />
<path d="M29.2607 2.8138
L29.2002 2.7533
" />
<path d="M29.2002 2.7533
L29.1397 2.6324
" />
<path d="M29.1397 2.6324
L29.0792 2.3905
" />
<path d="M29.0792 2.3905
L29.0792 2.0881
" />
<path d="M29.0792 2.0881
L29.1397 1.8462
" />
<path d="M29.1397 1.8462
L29.2002 1.7252
" />
<path d="M29.2002 1.7252
L29.2607 1.6647
" />
<path d="M29.2607 1.6647
L29.3816 1.6043
" />
<path d="M30.3492 2.7533
L30.4097 2.8138
" />
<path d="M30.4097 2.8138
L30.3492 2.8743
" />
<path d="M30.3492 2.8743
L30.2887 2.8138
" />
<path d="M30.2887 2.8138
L30.3492 2.7533
" />
<path d="M30.3492 2.7533
L30.3492 2.8743
" />
<path d="M31.5587 1.6043
L30.9540 1.6043
" />
<path d="M30.9540 1.6043
L30.8935 2.2090
" />
<path d="M30.8935 2.2090
L30.9540 2.1486
" />
<path d="M30.9540 2.1486
L31.0749 2.0881
" />
<path d="M31.0749 2.0881
L31.3773 2.0881
" />
<path d="M31.3773 2.0881
L31.4983 2.1486
" />
<path d="M31.4983 2.1486
L31.5587 2.2090
" />
<path d="M31.5587 2.2090
L31.6192 2.3300
" />
<path d="M31.6192 2.3300
L31.6192 2.6324
" />
<path d="M31.6192 2.6324
L31.5587 2.7533
" />
<path d="M31.5587 2.7533
L31.4983 2.8138
" />
<path d="M31.4983 2.8138
L31.3773 2.8743
" />
<path d="M31.3773 2.8743
L31.0749 2.8743
" />
<path d="M31.0749 2.8743
L30.9540 2.8138
" />
<path d="M30.9540 2.8138
L30.8935 2.7533
" />
<path d="M32.1635 2.8743
L32.1635 2.0276
" />
<path d="M32.1635 2.1486
L32.2240 2.0881
" />
<path d="M32.2240 2.0881
L32.3449 2.0276
" />
<path d="M32.3449 2.0276
L32.5264 2.0276
" />
<path d="M32.5264 2.0276
L32.6473 2.0881
" />
<path d="M32.6473 2.0881
L32.7078 2.2090
" />
<path d="M32.7078 2.2090
L32.7078 2.8743
" />
<path d="M32.7078 2.2090
L32.7683 2.0881
" />
<path d="M32.7683 2.0881
L32.8892 2.0276
" />
<path d="M32.8892 2.0276
L33.0707 2.0276
" />
<path d="M33.0707 2.0276
L33.1916 2.0881
" />
<path d="M33.1916 2.0881
L33.2521 2.2090
" />
<path d="M33.2521 2.2090
L33.2521 2.8743
" />
<path d="M33.8568 2.8743
L33.8568 2.0276
" />
<path d="M33.8568 2.1486
L33.9173 2.0881
" />
<path d="M33.9173 2.0881
L34.0383 2.0276
" />
<path d="M34.0383 2.0276
L34.2197 2.0276
" />
<path d="M34.2197 2.0276
L34.3406 2.0881
" />
<path d="M34.3406 2.0881
L34.4011 2.2090
" />
<path d="M34.4011 2.2090
L34.4011 2.8743
" />
<path d="M34.4011 2.2090
L34.4616 2.0881
" />
<path d="M34.4616 2.0881
L34.5826 2.0276
" />
<path d="M34.5826 2.0276
L34.7640 2.0276
" />
<path d="M34.7640 2.0276
L34.8849 2.0881
" />
<path d="M34.8849 2.0881
L34.9454 2.2090
" />
<path d="M34.9454 2.2090
L34.9454 2.8743
" />
<path d="M35.2478 2.9952
L36.2154 2.9952
" />
<path d="M36.5178 2.2090
L36.9411 2.2090
" />
<path d="M37.1226 2.8743
L36.5178 2.8743
" />
<path d="M36.5178 2.8743
L36.5178 1.6043
" />
<path d="M36.5178 1.6043
L37.1226 1.6043
" />
<path d="M37.6668 2.8743
L37.6668 1.6043
" />
<path d="M37.6668 1.6043
L38.1506 1.6043
" />
<path d="M38.1506 1.6043
L38.2716 1.6647
" />
<path d="M38.2716 1.6647
L38.3321 1.7252
" />
<path d="M38.3321 1.7252
L38.3926 1.8462
" />
<path d="M38.3926 1.8462
L38.3926 2.0276
" />
<path d="M38.3926 2.0276
L38.3321 2.1486
" />
<path d="M38.3321 2.1486
L38.2716 2.2090
" />
<path d="M38.2716 2.2090
L38.1506 2.2695
" />
<path d="M38.1506 2.2695
L37.6668 2.2695
" />
<path d="M39.6021 2.8743
L38.8764 2.8743
" />
<path d="M39.2392 2.8743
L39.2392 1.6043
" />
<path d="M39.2392 1.6043
L39.1183 1.7857
" />
<path d="M39.1183 1.7857
L38.9973 1.9067
" />
<path d="M38.9973 1.9067
L38.8764 1.9671
" />
<path d="M40.1464 2.7533
L40.2068 2.8138
" />
<path d="M40.2068 2.8138
L40.1464 2.8743
" />
<path d="M40.1464 2.8743
L40.0859 2.8138
" />
<path d="M40.0859 2.8138
L40.1464 2.7533
" />
<path d="M40.1464 2.7533
L40.1464 2.8743
" />
<path d="M41.2954 1.6043
L41.0535 1.6043
" />
<path d="M41.0535 1.6043
L40.9326 1.6647
" />
<path d="M40.9326 1.6647
L40.8721 1.7252
" />
<path d="M40.8721 1.7252
L40.7511 1.9067
" />
<path d="M40.7511 1.9067
L40.6906 2.1486
" />
<path d="M40.6906 2.1486
L40.6906 2.6324
" />
<path d="M40.6906 2.6324
L40.7511 2.7533
" />
<path d="M40.7511 2.7533
L40.8116 2.8138
" />
<path d="M40.8116 2.8138
L40.9326 2.8743
" />
<path d="M40.9326 2.8743
L41.1745 2.8743
" />
<path d="M41.1745 2.8743
L41.2954 2.8138
" />
<path d="M41.2954 2.8138
L41.3559 2.7533
" />
<path d="M41.3559 2.7533
L41.4164 2.6324
" />
<path d="M41.4164 2.6324
L41.4164 2.3300
" />
<path d="M41.4164 2.3300
L41.3559 2.2090
" />
<path d="M41.3559 2.2090
L41.2954 2.1486
" />
<path d="M41.2954 2.1486
L41.1745 2.0881
" />
<path d="M41.1745 2.0881
L40.9326 2.0881
" />
<path d="M40.9326 2.0881
L40.8116 2.1486
" />
<path d="M40.8116 2.1486
L40.7511 2.2090
" />
<path d="M40.7511 2.2090
L40.6906 2.3300
" />
<path d="M42.5654 1.6043
L41.9607 1.6043
" />
<path d="M41.9607 1.6043
L41.9002 2.2090
" />
<path d="M41.9002 2.2090
L41.9607 2.1486
" />
<path d="M41.9607 2.1486
L42.0816 2.0881
" />
<path d="M42.0816 2.0881
L42.3840 2.0881
" />
<path d="M42.3840 2.0881
L42.5049 2.1486
" />
<path d="M42.5049 2.1486
L42.5654 2.2090
" />
<path d="M42.5654 2.2090
L42.6259 2.3300
" />
<path d="M42.6259 2.3300
L42.6259 2.6324
" />
<path d="M42.6259 2.6324
L42.5654 2.7533
" />
<path d="M42.5654 2.7533
L42.5049 2.8138
" />
<path d="M42.5049 2.8138
L42.3840 2.8743
" />
<path d="M42.3840 2.8743
L42.0816 2.8743
" />
<path d="M42.0816 2.8743
L41.9607 2.8138
" />
<path d="M41.9607 2.8138
L41.9002 2.7533
" />
<path d="M43.8354 2.8743
L43.1097 2.8743
" />
<path d="M43.4726 2.8743
L43.4726 1.6043
" />
<path d="M43.4726 1.6043
L43.3516 1.7857
" />
<path d="M43.3516 1.7857
L43.2307 1.9067
" />
<path d="M43.2307 1.9067
L43.1097 1.9671
" />
<path d="M44.2587 2.8743
L44.9240 2.0276
" />
<path d="M44.2587 2.0276
L44.9240 2.8743
" />
<path d="M45.3473 1.7252
L45.4078 1.6647
" />
<path d="M45.4078 1.6647
L45.5287 1.6043
" />
<path d="M45.5287 1.6043
L45.8311 1.6043
" />
<path d="M45.8311 1.6043
L45.9521 1.6647
" />
<path d="M45.9521 1.6647
L46.0126 1.7252
" />
<path d="M46.0126 1.7252
L46.0730 1.8462
" />
<path d="M46.0730 1.8462
L46.0730 1.9671
" />
<path d="M46.0730 1.9671
L46.0126 2.1486
" />
<path d="M46.0126 2.1486
L45.2868 2.8743
" />
<path d="M45.2868 2.8743
L46.0730 2.8743
" />
<path d="M46.6173 2.7533
L46.6778 2.8138
" />
<path d="M46.6778 2.8138
L46.6173 2.8743
" />
<path d="M46.6173 2.8743
L46.5568 2.8138
" />
<path d="M46.5568 2.8138
L46.6173 2.7533
" />
<path d="M46.6173 2.7533
L46.6173 2.8743
" />
<path d="M47.4035 2.1486
L47.2826 2.0881
" />
<path d="M47.2826 2.0881
L47.2221 2.0276
" />
<path d="M47.2221 2.0276
L47.1616 1.9067
" />
<path d="M47.1616 1.9067
L47.1616 1.8462
" />
<path d="M47.1616 1.8462
L47.2221 1.7252
" />
<path d="M47.2221 1.7252
L47.2826 1.6647
" />
<path d="M47.2826 1.6647
L47.4035 1.6043
" />
<path d="M47.4035 1.6043
L47.6454 1.6043
" />
<path d="M47.6454 1.6043
L47.7664 1.6647
" />
<path d="M47.7664 1.6647
L47.8268 1.7252
" />
<path d="M47.8268 1.7252
L47.8873 1.8462
" />
<path d="M47.8873 1.8462
L47.8873 1.9067
" />
<path d="M47.8873 1.9067
L47.8268 2.0276
" />
<path d="M47.8268 2.0276
L47.7664 2.0881
" />
<path d="M47.7664 2.0881
L47.6454 2.1486
" />
<path d="M47.6454 2.1486
L47.4035 2.1486
" />
<path d="M47.4035 2.1486
L47.2826 2.2090
" />
<path d="M47.2826 2.2090
L47.2221 2.2695
" />
<path d="M47.2221 2.2695
L47.1616 2.3905
" />
<path d="M47.1616 2.3905
L47.1616 2.6324
" />
<path d="M47.1616 2.6324
L47.2221 2.7533
" />
<path d="M47.2221 2.7533
L47.2826 2.8138
" />
<path d="M47.2826 2.8138
L47.4035 2.8743
" />
<path d="M47.4035 2.8743
L47.6454 2.8743
" />
<path d="M47.6454 2.8743
L47.7664 2.8138
" />
<path d="M47.7664 2.8138
L47.8268 2.7533
" />
<path d="M47.8268 2.7533
L47.8873 2.6324
" />
<path d="M47.8873 2.6324
L47.8873 2.3905
" />
<path d="M47.8873 2.3905
L47.8268 2.2695
" />
<path d="M47.8268 2.2695
L47.7664 2.2090
" />
<path d="M47.7664 2.2090
L47.6454 2.1486
" />
<path d="M48.9759 2.0276
L48.9759 2.8743
" />
<path d="M48.6735 1.5438
L48.3711 2.4509
" />
<path d="M48.3711 2.4509
L49.1573 2.4509
" />
<path d="M50.2459 1.6043
L49.6411 1.6043
" />
<path d="M49.6411 1.6043
L49.5807 2.2090
" />
<path d="M49.5807 2.2090
L49.6411 2.1486
" />
<path d="M49.6411 2.1486
L49.7621 2.0881
" />
<path d="M49.7621 2.0881
L50.0645 2.0881
" />
<path d="M50.0645 2.0881
L50.1854 2.1486
" />
<path d="M50.1854 2.1486
L50.2459 2.2090
" />
<path d="M50.2459 2.2090
L50.3064 2.3300
" />
<path d="M50.3064 2.3300
L50.3064 2.6324
" />
<path d="M50.3064 2.6324
L50.2459 2.7533
" />
<path d="M50.2459 2.7533
L50.1854 2.8138
" />
<path d="M50.1854 2.8138
L50.0645 2.8743
" />
<path d="M50.0645 2.8743
L49.7621 2.8743
" />
<path d="M49.7621 2.8743
L49.6411 2.8138
" />
<path d="M49.6411 2.8138
L49.5807 2.7533
" />
<path d="M50.8507 2.8743
L50.8507 2.0276
" />
<path d="M50.8507 2.1486
L50.9111 2.0881
" />
<path d="M50.9111 2.0881
L51.0321 2.0276
" />
<path d="M51.0321 2.0276
L51.2135 2.0276
" />
<path d="M51.2135 2.0276
L51.3345 2.0881
" />
<path d="M51.3345 2.0881
L51.3949 2.2090
" />
<path d="M51.3949 2.2090
L51.3949 2.8743
" />
<path d="M51.3949 2.2090
L51.4554 2.0881
" />
<path d="M51.4554 2.0881
L51.5764 2.0276
" />
<path d="M51.5764 2.0276
L51.7578 2.0276
" />
<path d="M51.7578 2.0276
L51.8787 2.0881
" />
<path d="M51.8787 2.0881
L51.9392 2.2090
" />
<path d="M51.9392 2.2090
L51.9392 2.8743
" />
<path d="M52.5440 2.8743
L52.5440 2.0276
" />
<path d="M52.5440 2.1486
L52.6045 2.0881
" />
<path d="M52.6045 2.0881
L52.7254 2.0276
" />
<path d="M52.7254 2.0276
L52.9068 2.0276
" />
<path d="M52.9068 2.0276
L53.0278 2.0881
" />
<path d="M53.0278 2.0881
L53.0883 2.2090
" />
<path d="M53.0883 2.2090
L53.0883 2.8743
" />
<path d="M53.0883 2.2090
L53.1487 2.0881
" />
<path d="M53.1487 2.0881
L53.2697 2.0276
" />
<path d="M53.2697 2.0276
L53.4511 2.0276
" />
<path d="M53.4511 2.0276
L53.5721 2.0881
" />
<path d="M53.5721 2.0881
L53.6326 2.2090
" />
<path d="M53.6326 2.2090
L53.6326 2.8743
" />
<path d="M53.9349 2.9952
L54.9026 2.9952
" />
<path d="M55.0235 1.6043
L55.7492 1.6043
" />
<path d="M55.3864 2.8743
L55.3864 1.6043
" />
<path d="M56.1726 2.8743
L56.1726 1.6043
" />
<path d="M56.7168 2.8743
L56.7168 2.2090
" />
<path d="M56.7168 2.2090
L56.6564 2.0881
" />
<path d="M56.6564 2.0881
L56.5354 2.0276
" />
<path d="M56.5354 2.0276
L56.3540 2.0276
" />
<path d="M56.3540 2.0276
L56.2330 2.0881
" />
<path d="M56.2330 2.0881
L56.1726 2.1486
" />
<path d="M57.8054 2.8138
L57.6845 2.8743
" />
<path d="M57.6845 2.8743
L57.4426 2.8743
" />
<path d="M57.4426 2.8743
L57.3216 2.8138
" />
<path d="M57.3216 2.8138
L57.2611 2.6928
" />
<path d="M57.2611 2.6928
L57.2611 2.2090
" />
<path d="M57.2611 2.2090
L57.3216 2.0881
" />
<path d="M57.3216 2.0881
L57.4426 2.0276
" />
<path d="M57.4426 2.0276
L57.6845 2.0276
" />
<path d="M57.6845 2.0276
L57.8054 2.0881
" />
<path d="M57.8054 2.0881
L57.8659 2.2090
" />
<path d="M57.8659 2.2090
L57.8659 2.3300
" />
<path d="M57.8659 2.3300
L57.2611 2.4509
" />
<path d="M58.4102 2.8743
L58.4102 2.0276
" />
<path d="M58.4102 2.2695
L58.4707 2.1486
" />
<path d="M58.4707 2.1486
L58.5311 2.0881
" />
<path d="M58.5311 2.0881
L58.6521 2.0276
" />
<path d="M58.6521 2.0276
L58.7730 2.0276
" />
<path d="M59.1964 2.8743
L59.1964 2.0276
" />
<path d="M59.1964 2.1486
L59.2568 2.0881
" />
<path d="M59.2568 2.0881
L59.3778 2.0276
" />
<path d="M59.3778 2.0276
L59.5592 2.0276
" />
<path d="M59.5592 2.0276
L59.6802 2.0881
" />
<path d="M59.6802 2.0881
L59.7406 2.2090
" />
<path d="M59.7406 2.2090
L59.7406 2.8743
" />
<path d="M59.7406 2.2090
L59.8011 2.0881
" />
<path d="M59.8011 2.0881
L59.9221 2.0276
" />
<path d="M59.9221 2.0276
L60.1035 2.0276
" />
<path d="M60.1035 2.0276
L60.2245 2.0881
" />
<path d="M60.2245 2.0881
L60.2849 2.2090
" />
<path d="M60.2849 2.2090
L60.2849 2.8743
" />
<path d="M61.4340 2.8743
L61.4340 2.2090
" />
<path d="M61.4340 2.2090
L61.3735 2.0881
" />
<path d="M61.3735 2.0881
L61.2526 2.0276
" />
<path d="M61.2526 2.0276
L61.0106 2.0276
" />
<path d="M61.0106 2.0276
L60.8897 2.0881
" />
<path d="M61.4340 2.8138
L61.3130 2.8743
" />
<path d="M61.3130 2.8743
L61.0106 2.8743
" />
<path d="M61.0106 2.8743
L60.8897 2.8138
" />
<path d="M60.8897 2.8138
L60.8292 2.6928
" />
<path d="M60.8292 2.6928
L60.8292 2.5719
" />
<path d="M60.8292 2.5719
L60.8897 2.4509
" />
<path d="M60.8897 2.4509
L61.0106 2.3905
" />
<path d="M61.0106 2.3905
L61.3130 2.3905
" />
<path d="M61.3130 2.3905
L61.4340 2.3300
" />
<path d="M62.2202 2.8743
L62.0992 2.8138
" />
<path d="M62.0992 2.8138
L62.0387 2.6928
" />
<path d="M62.0387 2.6928
L62.0387 1.6043
" />
<path d="M62.5226 1.6043
L62.9459 2.8743
" />
<path d="M62.9459 2.8743
L63.3692 1.6043
" />
<path d="M63.7926 2.8743
L63.7926 2.0276
" />
<path d="M63.7926 1.6043
L63.7321 1.6647
" />
<path d="M63.7321 1.6647
L63.7926 1.7252
" />
<path d="M63.7926 1.7252
L63.8530 1.6647
" />
<path d="M63.8530 1.6647
L63.7926 1.6043
" />
<path d="M63.7926 1.6043
L63.7926 1.7252
" />
<path d="M64.9416 2.8743
L64.9416 2.2090
" />
<path d="M64.9416 2.2090
L64.8811 2.0881
" />
<path d="M64.8811 2.0881
L64.7602 2.0276
" />
<path d="M64.7602 2.0276
L64.5183 2.0276
" />
<path d="M64.5183 2.0276
L64.3973 2.0881
" />
<path d="M64.9416 2.8138
L64.8207 2.8743
" />
<path d="M64.8207 2.8743
L64.5183 2.8743
" />
<path d="M64.5183 2.8743
L64.3973 2.8138
" />
<path d="M64.3973 2.8138
L64.3368 2.6928
" />
<path d="M64.3368 2.6928
L64.3368 2.5719
" />
<path d="M64.3368 2.5719
L64.3973 2.4509
" />
<path d="M64.3973 2.4509
L64.5183 2.3905
" />
<path d="M64.5183 2.3905
L64.8207 2.3905
" />
<path d="M64.8207 2.3905
L64.9416 2.3300
" />
<path d="M65.4859 2.8138
L65.6068 2.8743
" />
<path d="M65.6068 2.8743
L65.8487 2.8743
" />
<path d="M65.8487 2.8743
L65.9697 2.8138
" />
<path d="M65.9697 2.8138
L66.0302 2.6928
" />
<path d="M66.0302 2.6928
L66.0302 2.6324
" />
<path d="M66.0302 2.6324
L65.9697 2.5114
" />
<path d="M65.9697 2.5114
L65.8487 2.4509
" />
<path d="M65.8487 2.4509
L65.6673 2.4509
" />
<path d="M65.6673 2.4509
L65.5464 2.3905
" />
<path d="M65.5464 2.3905
L65.4859 2.2695
" />
<path d="M65.4859 2.2695
L65.4859 2.2090
" />
<path d="M65.4859 2.2090
L65.5464 2.0881
" />
<path d="M65.5464 2.0881
L65.6673 2.0276
" />
<path d="M65.6673 2.0276
L65.8487 2.0276
" />
<path d="M65.8487 2.0276
L65.9697 2.0881
" />
</g></g>
<g style="fill:none; 
stroke:#AFAFAF; stroke-width:0.1100; stroke-opacity:1; 
stroke-linecap:round; stroke-linejoin:round;">
<text x="33.1916" y="2.6700"
textLength="3.3943" font-size="1.0000" lengthAdjust="spacingAndGlyphs"
text-anchor="middle" opacity="0">REF**</text>
<g class="stroked-text"><desc>REF**</desc>
<path d="M32.1916 2.6362
L31.9416 2.2791
" />
<path d="M31.7630 2.6362
L31.7630 1.8862
" />
<path d="M31.7630 1.8862
L32.0487 1.8862
" />
<path d="M32.0487 1.8862
L32.1202 1.9220
" />
<path d="M32.1202 1.9220
L32.1559 1.9577
" />
<path d="M32.1559 1.9577
L32.1916 2.0291
" />
<path d="M32.1916 2.0291
L32.1916 2.1362
" />
<path d="M32.1916 2.1362
L32.1559 2.2077
" />
<path d="M32.1559 2.2077
L32.1202 2.2434
" />
<path d="M32.1202 2.2434
L32.0487 2.2791
" />
<path d="M32.0487 2.2791
L31.7630 2.2791
" />
<path d="M32.5130 2.2434
L32.7630 2.2434
" />
<path d="M32.8702 2.6362
L32.5130 2.6362
" />
<path d="M32.5130 2.6362
L32.5130 1.8862
" />
<path d="M32.5130 1.8862
L32.8702 1.8862
" />
<path d="M33.4416 2.2434
L33.1916 2.2434
" />
<path d="M33.1916 2.6362
L33.1916 1.8862
" />
<path d="M33.1916 1.8862
L33.5487 1.8862
" />
<path d="M33.9416 1.8862
L33.9416 2.0648
" />
<path d="M33.7630 1.9934
L33.9416 2.0648
" />
<path d="M33.9416 2.0648
L34.1202 1.9934
" />
<path d="M33.8345 2.2077
L33.9416 2.0648
" />
<path d="M33.9416 2.0648
L34.0487 2.2077
" />
<path d="M34.5130 1.8862
L34.5130 2.0648
" />
<path d="M34.3345 1.9934
L34.5130 2.0648
" />
<path d="M34.5130 2.0648
L34.6916 1.9934
" />
<path d="M34.4059 2.2077
L34.5130 2.0648
" />
<path d="M34.5130 2.0648
L34.6202 2.2077
" />
</g></g>
<g style="fill:none; 
stroke:#AFAFAF; stroke-width:0.1000; stroke-opacity:1; 
stroke-linecap:round; stroke-linejoin:round;">
<path d="M31.6916 1.0255
L32.4416 0.2755
" />
<path d="M31.6916 4.3145
L31.6916 1.0255
" />
<path d="M32.4416 0.2755
L34.6916 0.2755
" />
<path d="M34.6916 0.2755
L34.6916 4.3145
" />
<path d="M34.6916 4.3145
L31.6916 4.3145
" />
</g> 
</svg>
