<?xml version="1.0" standalone="no"?>
 <!DOCTYPE svg PUBLIC "-//W3C//DTD SVG 1.1//EN" 
 "http://www.w3.org/Graphics/SVG/1.1/DTD/svg11.dtd"> 
<svg
  xmlns:svg="http://www.w3.org/2000/svg"
  xmlns="http://www.w3.org/2000/svg"
  xmlns:xlink="http://www.w3.org/1999/xlink"
  version="1.1"
  width="56.5404mm" height="76.5302mm" viewBox="0.0000 0.0000 56.5404 76.5302">
<title>SVG Image created as working-brd.svg date 2024/04/24 00:50:37 </title>
  <desc>Image generated by PCBNEW </desc>
<g style="fill:#000000; fill-opacity:1.0000;stroke:#000000; stroke-opacity:1.0000;
stroke-linecap:round; stroke-linejoin:round;"
 transform="translate(0 0) scale(1 1)">
</g>
<g style="fill:#FFFFFF; fill-opacity:1.0000; stroke:none;">
<circle cx="14.2702" cy="5.7750" r="2.2500" /> 
</g>
<g style="fill:#FFFFFF; fill-opacity:1.0000; stroke:none;">
<circle cx="14.2702" cy="70.7750" r="2.2500" /> 
</g>
<g style="fill:#FFFFFF; fill-opacity:1.0000; stroke:none;">
<circle cx="51.2702" cy="5.7750" r="2.2500" /> 
</g>
<g style="fill:#FFFFFF; fill-opacity:1.0000; stroke:none;">
<circle cx="51.2702" cy="70.7750" r="2.2500" /> 
</g>
<g style="fill:#FFFFFF; fill-opacity:1.0000; stroke:none;">
<circle cx="17.7702" cy="53.2750" r="0.6000" /> 
</g>
<g style="fill:#FFFFFF; fill-opacity:1.0000; stroke:none;">
<circle cx="17.7702" cy="48.2750" r="0.6000" /> 
</g>
<g style="fill:#FFFFFF; fill-opacity:1.0000; stroke:none;">
<circle cx="17.7702" cy="43.2750" r="0.6000" /> 
</g>
<g style="fill:#FFFFFF; fill-opacity:1.0000; stroke:none;">
<circle cx="17.7702" cy="38.2750" r="0.6000" /> 
</g>
<g style="fill:#FFFFFF; fill-opacity:1.0000; stroke:none;">
<circle cx="17.7702" cy="33.2750" r="0.6000" /> 
</g>
<g style="fill:#FFFFFF; fill-opacity:1.0000; stroke:none;">
<circle cx="17.7702" cy="28.2750" r="0.6000" /> 
</g>
<g style="fill:#FFFFFF; fill-opacity:1.0000; stroke:none;">
<circle cx="17.7702" cy="23.2750" r="0.6000" /> 
</g>
<g style="fill:#FFFFFF; fill-opacity:1.0000; stroke:none;">
<circle cx="47.7702" cy="23.2750" r="0.6000" /> 
</g>
<g style="fill:#FFFFFF; fill-opacity:1.0000; stroke:none;">
<circle cx="47.7702" cy="28.2750" r="0.6000" /> 
</g>
<g style="fill:#FFFFFF; fill-opacity:1.0000; stroke:none;">
<circle cx="47.7702" cy="33.2750" r="0.6000" /> 
</g>
<g style="fill:#FFFFFF; fill-opacity:1.0000; stroke:none;">
<circle cx="47.7702" cy="38.2750" r="0.6000" /> 
</g>
<g style="fill:#FFFFFF; fill-opacity:1.0000; stroke:none;">
<circle cx="47.7702" cy="43.2750" r="0.6000" /> 
</g>
<g style="fill:#FFFFFF; fill-opacity:1.0000; stroke:none;">
<circle cx="47.7702" cy="48.2750" r="0.6000" /> 
</g>
<g style="fill:#FFFFFF; fill-opacity:1.0000; stroke:none;">
<circle cx="47.7702" cy="53.2750" r="0.6000" /> 
</g>
<g style="fill:#02FFEE; fill-opacity:0.4000; stroke:none;">
<circle cx="14.2702" cy="5.7750" r="2.2500" /> 
</g>
<g style="fill:#02FFEE; fill-opacity:0.4000; stroke:none;">
<circle cx="14.2702" cy="70.7750" r="2.2500" /> 
</g>
<g style="fill:#02FFEE; fill-opacity:0.4000; stroke:none;">
<circle cx="51.2702" cy="5.7750" r="2.2500" /> 
</g>
<g style="fill:#02FFEE; fill-opacity:0.4000; stroke:none;">
<circle cx="51.2702" cy="70.7750" r="2.2500" /> 
</g>
<g style="fill:#02FFEE; fill-opacity:0.4000; stroke:none;">
<circle cx="17.7702" cy="53.2750" r="1.5000" /> 
</g>
<g style="fill:#02FFEE; fill-opacity:0.4000; stroke:none;">
<circle cx="17.7702" cy="48.2750" r="1.5000" /> 
</g>
<g style="fill:#02FFEE; fill-opacity:0.4000; stroke:none;">
<circle cx="17.7702" cy="43.2750" r="1.5000" /> 
</g>
<g style="fill:#02FFEE; fill-opacity:0.4000; stroke:none;">
<circle cx="17.7702" cy="38.2750" r="1.5000" /> 
</g>
<g style="fill:#02FFEE; fill-opacity:0.4000; stroke:none;">
<circle cx="17.7702" cy="33.2750" r="1.5000" /> 
</g>
<g style="fill:#02FFEE; fill-opacity:0.4000; stroke:none;">
<circle cx="17.7702" cy="28.2750" r="1.5000" /> 
</g>
<g style="fill:#02FFEE; fill-opacity:0.4000; stroke:none;">
<circle cx="17.7702" cy="23.2750" r="1.5000" /> 
</g>
<g style="fill:#02FFEE; fill-opacity:0.4000; stroke:none;">
<circle cx="47.7702" cy="23.2750" r="1.5000" /> 
</g>
<g style="fill:#02FFEE; fill-opacity:0.4000; stroke:none;">
<circle cx="47.7702" cy="28.2750" r="1.5000" /> 
</g>
<g style="fill:#02FFEE; fill-opacity:0.4000; stroke:none;">
<circle cx="47.7702" cy="33.2750" r="1.5000" /> 
</g>
<g style="fill:#02FFEE; fill-opacity:0.4000; stroke:none;">
<circle cx="47.7702" cy="38.2750" r="1.5000" /> 
</g>
<g style="fill:#02FFEE; fill-opacity:0.4000; stroke:none;">
<circle cx="47.7702" cy="43.2750" r="1.5000" /> 
</g>
<g style="fill:#02FFEE; fill-opacity:0.4000; stroke:none;">
<circle cx="47.7702" cy="48.2750" r="1.5000" /> 
</g>
<g style="fill:#02FFEE; fill-opacity:0.4000; stroke:none;">
<circle cx="47.7702" cy="53.2750" r="1.5000" /> 
</g>
<g style="fill:#FFFFFF; fill-opacity:1.0000; stroke:none;">
<circle cx="14.2702" cy="5.7750" r="2.2500" /> 
</g>
<g style="fill:#FFFFFF; fill-opacity:1.0000; stroke:none;">
<circle cx="14.2702" cy="70.7750" r="2.2500" /> 
</g>
<g style="fill:#FFFFFF; fill-opacity:1.0000; stroke:none;">
<circle cx="51.2702" cy="5.7750" r="2.2500" /> 
</g>
<g style="fill:#FFFFFF; fill-opacity:1.0000; stroke:none;">
<circle cx="51.2702" cy="70.7750" r="2.2500" /> 
</g>
<g style="fill:#FFFFFF; fill-opacity:1.0000; stroke:none;">
<circle cx="17.7702" cy="53.2750" r="0.6000" /> 
</g>
<g style="fill:#FFFFFF; fill-opacity:1.0000; stroke:none;">
<circle cx="17.7702" cy="48.2750" r="0.6000" /> 
</g>
<g style="fill:#FFFFFF; fill-opacity:1.0000; stroke:none;">
<circle cx="17.7702" cy="43.2750" r="0.6000" /> 
</g>
<g style="fill:#FFFFFF; fill-opacity:1.0000; stroke:none;">
<circle cx="17.7702" cy="38.2750" r="0.6000" /> 
</g>
<g style="fill:#FFFFFF; fill-opacity:1.0000; stroke:none;">
<circle cx="17.7702" cy="33.2750" r="0.6000" /> 
</g>
<g style="fill:#FFFFFF; fill-opacity:1.0000; stroke:none;">
<circle cx="17.7702" cy="28.2750" r="0.6000" /> 
</g>
<g style="fill:#FFFFFF; fill-opacity:1.0000; stroke:none;">
<circle cx="17.7702" cy="23.2750" r="0.6000" /> 
</g>
<g style="fill:#FFFFFF; fill-opacity:1.0000; stroke:none;">
<circle cx="47.7702" cy="23.2750" r="0.6000" /> 
</g>
<g style="fill:#FFFFFF; fill-opacity:1.0000; stroke:none;">
<circle cx="47.7702" cy="28.2750" r="0.6000" /> 
</g>
<g style="fill:#FFFFFF; fill-opacity:1.0000; stroke:none;">
<circle cx="47.7702" cy="33.2750" r="0.6000" /> 
</g>
<g style="fill:#FFFFFF; fill-opacity:1.0000; stroke:none;">
<circle cx="47.7702" cy="38.2750" r="0.6000" /> 
</g>
<g style="fill:#FFFFFF; fill-opacity:1.0000; stroke:none;">
<circle cx="47.7702" cy="43.2750" r="0.6000" /> 
</g>
<g style="fill:#FFFFFF; fill-opacity:1.0000; stroke:none;">
<circle cx="47.7702" cy="48.2750" r="0.6000" /> 
</g>
<g style="fill:#FFFFFF; fill-opacity:1.0000; stroke:none;">
<circle cx="47.7702" cy="53.2750" r="0.6000" /> 
</g>
<g style="fill:#FFFFFF; fill-opacity:1.0000; stroke:none;">
<circle cx="14.2702" cy="5.7750" r="2.2500" /> 
</g>
<g style="fill:#FFFFFF; fill-opacity:1.0000; stroke:none;">
<circle cx="14.2702" cy="70.7750" r="2.2500" /> 
</g>
<g style="fill:#FFFFFF; fill-opacity:1.0000; stroke:none;">
<circle cx="51.2702" cy="5.7750" r="2.2500" /> 
</g>
<g style="fill:#FFFFFF; fill-opacity:1.0000; stroke:none;">
<circle cx="51.2702" cy="70.7750" r="2.2500" /> 
</g>
<g style="fill:#FFFFFF; fill-opacity:1.0000; stroke:none;">
<circle cx="17.7702" cy="53.2750" r="0.6000" /> 
</g>
<g style="fill:#FFFFFF; fill-opacity:1.0000; stroke:none;">
<circle cx="17.7702" cy="48.2750" r="0.6000" /> 
</g>
<g style="fill:#FFFFFF; fill-opacity:1.0000; stroke:none;">
<circle cx="17.7702" cy="43.2750" r="0.6000" /> 
</g>
<g style="fill:#FFFFFF; fill-opacity:1.0000; stroke:none;">
<circle cx="17.7702" cy="38.2750" r="0.6000" /> 
</g>
<g style="fill:#FFFFFF; fill-opacity:1.0000; stroke:none;">
<circle cx="17.7702" cy="33.2750" r="0.6000" /> 
</g>
<g style="fill:#FFFFFF; fill-opacity:1.0000; stroke:none;">
<circle cx="17.7702" cy="28.2750" r="0.6000" /> 
</g>
<g style="fill:#FFFFFF; fill-opacity:1.0000; stroke:none;">
<circle cx="17.7702" cy="23.2750" r="0.6000" /> 
</g>
<g style="fill:#FFFFFF; fill-opacity:1.0000; stroke:none;">
<circle cx="47.7702" cy="23.2750" r="0.6000" /> 
</g>
<g style="fill:#FFFFFF; fill-opacity:1.0000; stroke:none;">
<circle cx="47.7702" cy="28.2750" r="0.6000" /> 
</g>
<g style="fill:#FFFFFF; fill-opacity:1.0000; stroke:none;">
<circle cx="47.7702" cy="33.2750" r="0.6000" /> 
</g>
<g style="fill:#FFFFFF; fill-opacity:1.0000; stroke:none;">
<circle cx="47.7702" cy="38.2750" r="0.6000" /> 
</g>
<g style="fill:#FFFFFF; fill-opacity:1.0000; stroke:none;">
<circle cx="47.7702" cy="43.2750" r="0.6000" /> 
</g>
<g style="fill:#FFFFFF; fill-opacity:1.0000; stroke:none;">
<circle cx="47.7702" cy="48.2750" r="0.6000" /> 
</g>
<g style="fill:#FFFFFF; fill-opacity:1.0000; stroke:none;">
<circle cx="47.7702" cy="53.2750" r="0.6000" /> 
</g>
<g style="fill:#D864FF; fill-opacity:0.4000; stroke:none;">
<circle cx="14.2702" cy="5.7750" r="2.2500" /> 
</g>
<g style="fill:#D864FF; fill-opacity:0.4000; stroke:none;">
<circle cx="14.2702" cy="70.7750" r="2.2500" /> 
</g>
<g style="fill:#D864FF; fill-opacity:0.4000; stroke:none;">
<circle cx="51.2702" cy="5.7750" r="2.2500" /> 
</g>
<g style="fill:#D864FF; fill-opacity:0.4000; stroke:none;">
<circle cx="51.2702" cy="70.7750" r="2.2500" /> 
</g>
<g style="fill:#D864FF; fill-opacity:0.4000; stroke:none;">
<circle cx="17.7702" cy="53.2750" r="1.5000" /> 
</g>
<g style="fill:#D864FF; fill-opacity:0.4000; stroke:none;">
<circle cx="17.7702" cy="48.2750" r="1.5000" /> 
</g>
<g style="fill:#D864FF; fill-opacity:0.4000; stroke:none;">
<circle cx="17.7702" cy="43.2750" r="1.5000" /> 
</g>
<g style="fill:#D864FF; fill-opacity:0.4000; stroke:none;">
<circle cx="17.7702" cy="38.2750" r="1.5000" /> 
</g>
<g style="fill:#D864FF; fill-opacity:0.4000; stroke:none;">
<circle cx="17.7702" cy="33.2750" r="1.5000" /> 
</g>
<g style="fill:#D864FF; fill-opacity:0.4000; stroke:none;">
<circle cx="17.7702" cy="28.2750" r="1.5000" /> 
</g>
<g style="fill:#D864FF; fill-opacity:0.4000; stroke:none;">
<circle cx="17.7702" cy="23.2750" r="1.5000" /> 
</g>
<g style="fill:#D864FF; fill-opacity:0.4000; stroke:none;">
<circle cx="47.7702" cy="23.2750" r="1.5000" /> 
</g>
<g style="fill:#D864FF; fill-opacity:0.4000; stroke:none;">
<circle cx="47.7702" cy="28.2750" r="1.5000" /> 
</g>
<g style="fill:#D864FF; fill-opacity:0.4000; stroke:none;">
<circle cx="47.7702" cy="33.2750" r="1.5000" /> 
</g>
<g style="fill:#D864FF; fill-opacity:0.4000; stroke:none;">
<circle cx="47.7702" cy="38.2750" r="1.5000" /> 
</g>
<g style="fill:#D864FF; fill-opacity:0.4000; stroke:none;">
<circle cx="47.7702" cy="43.2750" r="1.5000" /> 
</g>
<g style="fill:#D864FF; fill-opacity:0.4000; stroke:none;">
<circle cx="47.7702" cy="48.2750" r="1.5000" /> 
</g>
<g style="fill:#D864FF; fill-opacity:0.4000; stroke:none;">
<circle cx="47.7702" cy="53.2750" r="1.5000" /> 
</g>
<g style="fill:none; 
stroke:#F2EDA1; stroke-width:0.1588; stroke-opacity:1; 
stroke-linecap:round; stroke-linejoin:round;">
<text x="17.7702" y="53.9100"
textLength="5.6651" font-size="1.6933" lengthAdjust="spacingAndGlyphs"
text-anchor="middle" opacity="0">REF**</text>
<g class="stroked-text"><desc>REF**</desc>
<path d="M16.0768 53.8543
L15.6535 53.2495
" />
<path d="M15.3511 53.8543
L15.3511 52.5843
" />
<path d="M15.3511 52.5843
L15.8349 52.5843
" />
<path d="M15.8349 52.5843
L15.9559 52.6447
" />
<path d="M15.9559 52.6447
L16.0164 52.7052
" />
<path d="M16.0164 52.7052
L16.0768 52.8262
" />
<path d="M16.0768 52.8262
L16.0768 53.0076
" />
<path d="M16.0768 53.0076
L16.0164 53.1286
" />
<path d="M16.0164 53.1286
L15.9559 53.1890
" />
<path d="M15.9559 53.1890
L15.8349 53.2495
" />
<path d="M15.8349 53.2495
L15.3511 53.2495
" />
<path d="M16.6211 53.1890
L17.0445 53.1890
" />
<path d="M17.2259 53.8543
L16.6211 53.8543
" />
<path d="M16.6211 53.8543
L16.6211 52.5843
" />
<path d="M16.6211 52.5843
L17.2259 52.5843
" />
<path d="M18.1935 53.1890
L17.7702 53.1890
" />
<path d="M17.7702 53.8543
L17.7702 52.5843
" />
<path d="M17.7702 52.5843
L18.3749 52.5843
" />
<path d="M19.0402 52.5843
L19.0402 52.8867
" />
<path d="M18.7378 52.7657
L19.0402 52.8867
" />
<path d="M19.0402 52.8867
L19.3426 52.7657
" />
<path d="M18.8587 53.1286
L19.0402 52.8867
" />
<path d="M19.0402 52.8867
L19.2216 53.1286
" />
<path d="M20.0078 52.5843
L20.0078 52.8867
" />
<path d="M19.7054 52.7657
L20.0078 52.8867
" />
<path d="M20.0078 52.8867
L20.3102 52.7657
" />
<path d="M19.8264 53.1286
L20.0078 52.8867
" />
<path d="M20.0078 52.8867
L20.1892 53.1286
" />
</g></g>
<g style="fill:none; 
stroke:#F2EDA1; stroke-width:0.1500; stroke-opacity:1; 
stroke-linecap:round; stroke-linejoin:round;">
<text x="20.7702" y="53.7750"
textLength="1.2024" font-size="1.3333" lengthAdjust="spacingAndGlyphs"
text-anchor="middle" opacity="0">1</text>
<g class="stroked-text"><desc>1</desc>
<path d="M21.0559 53.7298
L20.4845 53.7298
" />
<path d="M20.7702 53.7298
L20.7702 52.7298
" />
<path d="M20.7702 52.7298
L20.6749 52.8727
" />
<path d="M20.6749 52.8727
L20.5797 52.9679
" />
<path d="M20.5797 52.9679
L20.4845 53.0155
" />
</g></g>
<g style="fill:none; 
stroke:#F2EDA1; stroke-width:0.1200; stroke-opacity:1; 
stroke-linecap:round; stroke-linejoin:round;">
<path d="M9.1502 0.1550
L9.1502 76.3950
" />
<path d="M9.1502 0.1550
L56.3902 0.1550
" />
<path d="M56.3902 76.3950
L9.1502 76.3950
" />
<path d="M56.3902 76.3950
L56.3902 0.1550
" />
</g>
<g style="fill:#FFFFFF; fill-opacity:1.0000; stroke:none;">
<circle cx="14.2702" cy="5.7750" r="2.2500" /> 
</g>
<g style="fill:#FFFFFF; fill-opacity:1.0000; stroke:none;">
<circle cx="14.2702" cy="70.7750" r="2.2500" /> 
</g>
<g style="fill:#FFFFFF; fill-opacity:1.0000; stroke:none;">
<circle cx="51.2702" cy="5.7750" r="2.2500" /> 
</g>
<g style="fill:#FFFFFF; fill-opacity:1.0000; stroke:none;">
<circle cx="51.2702" cy="70.7750" r="2.2500" /> 
</g>
<g style="fill:#FFFFFF; fill-opacity:1.0000; stroke:none;">
<circle cx="17.7702" cy="53.2750" r="0.6000" /> 
</g>
<g style="fill:#FFFFFF; fill-opacity:1.0000; stroke:none;">
<circle cx="17.7702" cy="48.2750" r="0.6000" /> 
</g>
<g style="fill:#FFFFFF; fill-opacity:1.0000; stroke:none;">
<circle cx="17.7702" cy="43.2750" r="0.6000" /> 
</g>
<g style="fill:#FFFFFF; fill-opacity:1.0000; stroke:none;">
<circle cx="17.7702" cy="38.2750" r="0.6000" /> 
</g>
<g style="fill:#FFFFFF; fill-opacity:1.0000; stroke:none;">
<circle cx="17.7702" cy="33.2750" r="0.6000" /> 
</g>
<g style="fill:#FFFFFF; fill-opacity:1.0000; stroke:none;">
<circle cx="17.7702" cy="28.2750" r="0.6000" /> 
</g>
<g style="fill:#FFFFFF; fill-opacity:1.0000; stroke:none;">
<circle cx="17.7702" cy="23.2750" r="0.6000" /> 
</g>
<g style="fill:#FFFFFF; fill-opacity:1.0000; stroke:none;">
<circle cx="47.7702" cy="23.2750" r="0.6000" /> 
</g>
<g style="fill:#FFFFFF; fill-opacity:1.0000; stroke:none;">
<circle cx="47.7702" cy="28.2750" r="0.6000" /> 
</g>
<g style="fill:#FFFFFF; fill-opacity:1.0000; stroke:none;">
<circle cx="47.7702" cy="33.2750" r="0.6000" /> 
</g>
<g style="fill:#FFFFFF; fill-opacity:1.0000; stroke:none;">
<circle cx="47.7702" cy="38.2750" r="0.6000" /> 
</g>
<g style="fill:#FFFFFF; fill-opacity:1.0000; stroke:none;">
<circle cx="47.7702" cy="43.2750" r="0.6000" /> 
</g>
<g style="fill:#FFFFFF; fill-opacity:1.0000; stroke:none;">
<circle cx="47.7702" cy="48.2750" r="0.6000" /> 
</g>
<g style="fill:#FFFFFF; fill-opacity:1.0000; stroke:none;">
<circle cx="47.7702" cy="53.2750" r="0.6000" /> 
</g>
<g style="fill:none; 
stroke:#FF26E2; stroke-width:0.0500; stroke-opacity:1; 
stroke-linecap:round; stroke-linejoin:round;">
<path d="M9.0202 0.0250
L9.0202 76.5250
" />
<path d="M9.0202 0.0250
L56.5202 0.0250
" />
<path d="M56.5202 76.5250
L9.0202 76.5250
" />
<path d="M56.5202 76.5250
L56.5202 0.0250
" />
</g>
<g style="fill:none; 
stroke:#AFAFAF; stroke-width:0.1588; stroke-opacity:1; 
stroke-linecap:round; stroke-linejoin:round;">
<text x="17.7702" y="53.9100"
textLength="35.5403" font-size="1.6933" lengthAdjust="spacingAndGlyphs"
text-anchor="middle" opacity="0">Transformer_CHK_EI54-16VA_Neutral</text>
<g class="stroked-text"><desc>Transformer_CHK_EI54-16VA_Neutral</desc>
<path d="M0.2321 52.5843
L0.9578 52.5843
" />
<path d="M0.5949 53.8543
L0.5949 52.5843
" />
<path d="M1.3811 53.8543
L1.3811 53.0076
" />
<path d="M1.3811 53.2495
L1.4416 53.1286
" />
<path d="M1.4416 53.1286
L1.5021 53.0681
" />
<path d="M1.5021 53.0681
L1.6230 53.0076
" />
<path d="M1.6230 53.0076
L1.7440 53.0076
" />
<path d="M2.7116 53.8543
L2.7116 53.1890
" />
<path d="M2.7116 53.1890
L2.6511 53.0681
" />
<path d="M2.6511 53.0681
L2.5302 53.0076
" />
<path d="M2.5302 53.0076
L2.2883 53.0076
" />
<path d="M2.2883 53.0076
L2.1673 53.0681
" />
<path d="M2.7116 53.7938
L2.5906 53.8543
" />
<path d="M2.5906 53.8543
L2.2883 53.8543
" />
<path d="M2.2883 53.8543
L2.1673 53.7938
" />
<path d="M2.1673 53.7938
L2.1068 53.6728
" />
<path d="M2.1068 53.6728
L2.1068 53.5519
" />
<path d="M2.1068 53.5519
L2.1673 53.4309
" />
<path d="M2.1673 53.4309
L2.2883 53.3705
" />
<path d="M2.2883 53.3705
L2.5906 53.3705
" />
<path d="M2.5906 53.3705
L2.7116 53.3100
" />
<path d="M3.3164 53.0076
L3.3164 53.8543
" />
<path d="M3.3164 53.1286
L3.3768 53.0681
" />
<path d="M3.3768 53.0681
L3.4978 53.0076
" />
<path d="M3.4978 53.0076
L3.6792 53.0076
" />
<path d="M3.6792 53.0076
L3.8002 53.0681
" />
<path d="M3.8002 53.0681
L3.8606 53.1890
" />
<path d="M3.8606 53.1890
L3.8606 53.8543
" />
<path d="M4.4049 53.7938
L4.5259 53.8543
" />
<path d="M4.5259 53.8543
L4.7678 53.8543
" />
<path d="M4.7678 53.8543
L4.8887 53.7938
" />
<path d="M4.8887 53.7938
L4.9492 53.6728
" />
<path d="M4.9492 53.6728
L4.9492 53.6124
" />
<path d="M4.9492 53.6124
L4.8887 53.4914
" />
<path d="M4.8887 53.4914
L4.7678 53.4309
" />
<path d="M4.7678 53.4309
L4.5864 53.4309
" />
<path d="M4.5864 53.4309
L4.4654 53.3705
" />
<path d="M4.4654 53.3705
L4.4049 53.2495
" />
<path d="M4.4049 53.2495
L4.4049 53.1890
" />
<path d="M4.4049 53.1890
L4.4654 53.0681
" />
<path d="M4.4654 53.0681
L4.5864 53.0076
" />
<path d="M4.5864 53.0076
L4.7678 53.0076
" />
<path d="M4.7678 53.0076
L4.8887 53.0681
" />
<path d="M5.3121 53.0076
L5.7959 53.0076
" />
<path d="M5.4935 53.8543
L5.4935 52.7657
" />
<path d="M5.4935 52.7657
L5.5540 52.6447
" />
<path d="M5.5540 52.6447
L5.6749 52.5843
" />
<path d="M5.6749 52.5843
L5.7959 52.5843
" />
<path d="M6.4006 53.8543
L6.2797 53.7938
" />
<path d="M6.2797 53.7938
L6.2192 53.7333
" />
<path d="M6.2192 53.7333
L6.1587 53.6124
" />
<path d="M6.1587 53.6124
L6.1587 53.2495
" />
<path d="M6.1587 53.2495
L6.2192 53.1286
" />
<path d="M6.2192 53.1286
L6.2797 53.0681
" />
<path d="M6.2797 53.0681
L6.4006 53.0076
" />
<path d="M6.4006 53.0076
L6.5821 53.0076
" />
<path d="M6.5821 53.0076
L6.7030 53.0681
" />
<path d="M6.7030 53.0681
L6.7635 53.1286
" />
<path d="M6.7635 53.1286
L6.8240 53.2495
" />
<path d="M6.8240 53.2495
L6.8240 53.6124
" />
<path d="M6.8240 53.6124
L6.7635 53.7333
" />
<path d="M6.7635 53.7333
L6.7030 53.7938
" />
<path d="M6.7030 53.7938
L6.5821 53.8543
" />
<path d="M6.5821 53.8543
L6.4006 53.8543
" />
<path d="M7.3683 53.8543
L7.3683 53.0076
" />
<path d="M7.3683 53.2495
L7.4287 53.1286
" />
<path d="M7.4287 53.1286
L7.4892 53.0681
" />
<path d="M7.4892 53.0681
L7.6102 53.0076
" />
<path d="M7.6102 53.0076
L7.7311 53.0076
" />
<path d="M8.1545 53.8543
L8.1545 53.0076
" />
<path d="M8.1545 53.1286
L8.2149 53.0681
" />
<path d="M8.2149 53.0681
L8.3359 53.0076
" />
<path d="M8.3359 53.0076
L8.5173 53.0076
" />
<path d="M8.5173 53.0076
L8.6383 53.0681
" />
<path d="M8.6383 53.0681
L8.6987 53.1890
" />
<path d="M8.6987 53.1890
L8.6987 53.8543
" />
<path d="M8.6987 53.1890
L8.7592 53.0681
" />
<path d="M8.7592 53.0681
L8.8802 53.0076
" />
<path d="M8.8802 53.0076
L9.0616 53.0076
" />
<path d="M9.0616 53.0076
L9.1826 53.0681
" />
<path d="M9.1826 53.0681
L9.2430 53.1890
" />
<path d="M9.2430 53.1890
L9.2430 53.8543
" />
<path d="M10.3316 53.7938
L10.2106 53.8543
" />
<path d="M10.2106 53.8543
L9.9687 53.8543
" />
<path d="M9.9687 53.8543
L9.8478 53.7938
" />
<path d="M9.8478 53.7938
L9.7873 53.6728
" />
<path d="M9.7873 53.6728
L9.7873 53.1890
" />
<path d="M9.7873 53.1890
L9.8478 53.0681
" />
<path d="M9.8478 53.0681
L9.9687 53.0076
" />
<path d="M9.9687 53.0076
L10.2106 53.0076
" />
<path d="M10.2106 53.0076
L10.3316 53.0681
" />
<path d="M10.3316 53.0681
L10.3921 53.1890
" />
<path d="M10.3921 53.1890
L10.3921 53.3100
" />
<path d="M10.3921 53.3100
L9.7873 53.4309
" />
<path d="M10.9364 53.8543
L10.9364 53.0076
" />
<path d="M10.9364 53.2495
L10.9968 53.1286
" />
<path d="M10.9968 53.1286
L11.0573 53.0681
" />
<path d="M11.0573 53.0681
L11.1783 53.0076
" />
<path d="M11.1783 53.0076
L11.2992 53.0076
" />
<path d="M11.4202 53.9752
L12.3878 53.9752
" />
<path d="M13.4159 53.7333
L13.3554 53.7938
" />
<path d="M13.3554 53.7938
L13.1740 53.8543
" />
<path d="M13.1740 53.8543
L13.0530 53.8543
" />
<path d="M13.0530 53.8543
L12.8716 53.7938
" />
<path d="M12.8716 53.7938
L12.7506 53.6728
" />
<path d="M12.7506 53.6728
L12.6902 53.5519
" />
<path d="M12.6902 53.5519
L12.6297 53.3100
" />
<path d="M12.6297 53.3100
L12.6297 53.1286
" />
<path d="M12.6297 53.1286
L12.6902 52.8867
" />
<path d="M12.6902 52.8867
L12.7506 52.7657
" />
<path d="M12.7506 52.7657
L12.8716 52.6447
" />
<path d="M12.8716 52.6447
L13.0530 52.5843
" />
<path d="M13.0530 52.5843
L13.1740 52.5843
" />
<path d="M13.1740 52.5843
L13.3554 52.6447
" />
<path d="M13.3554 52.6447
L13.4159 52.7052
" />
<path d="M13.9602 53.8543
L13.9602 52.5843
" />
<path d="M13.9602 53.1890
L14.6859 53.1890
" />
<path d="M14.6859 53.8543
L14.6859 52.5843
" />
<path d="M15.2906 53.8543
L15.2906 52.5843
" />
<path d="M16.0164 53.8543
L15.4721 53.1286
" />
<path d="M16.0164 52.5843
L15.2906 53.3100
" />
<path d="M16.2583 53.9752
L17.2259 53.9752
" />
<path d="M17.5283 53.1890
L17.9516 53.1890
" />
<path d="M18.1330 53.8543
L17.5283 53.8543
" />
<path d="M17.5283 53.8543
L17.5283 52.5843
" />
<path d="M17.5283 52.5843
L18.1330 52.5843
" />
<path d="M18.6773 53.8543
L18.6773 52.5843
" />
<path d="M19.8868 52.5843
L19.2821 52.5843
" />
<path d="M19.2821 52.5843
L19.2216 53.1890
" />
<path d="M19.2216 53.1890
L19.2821 53.1286
" />
<path d="M19.2821 53.1286
L19.4030 53.0681
" />
<path d="M19.4030 53.0681
L19.7054 53.0681
" />
<path d="M19.7054 53.0681
L19.8264 53.1286
" />
<path d="M19.8264 53.1286
L19.8868 53.1890
" />
<path d="M19.8868 53.1890
L19.9473 53.3100
" />
<path d="M19.9473 53.3100
L19.9473 53.6124
" />
<path d="M19.9473 53.6124
L19.8868 53.7333
" />
<path d="M19.8868 53.7333
L19.8264 53.7938
" />
<path d="M19.8264 53.7938
L19.7054 53.8543
" />
<path d="M19.7054 53.8543
L19.4030 53.8543
" />
<path d="M19.4030 53.8543
L19.2821 53.7938
" />
<path d="M19.2821 53.7938
L19.2216 53.7333
" />
<path d="M21.0359 53.0076
L21.0359 53.8543
" />
<path d="M20.7335 52.5238
L20.4311 53.4309
" />
<path d="M20.4311 53.4309
L21.2173 53.4309
" />
<path d="M21.7011 53.3705
L22.6687 53.3705
" />
<path d="M23.9387 53.8543
L23.2130 53.8543
" />
<path d="M23.5759 53.8543
L23.5759 52.5843
" />
<path d="M23.5759 52.5843
L23.4549 52.7657
" />
<path d="M23.4549 52.7657
L23.3340 52.8867
" />
<path d="M23.3340 52.8867
L23.2130 52.9471
" />
<path d="M25.0273 52.5843
L24.7854 52.5843
" />
<path d="M24.7854 52.5843
L24.6645 52.6447
" />
<path d="M24.6645 52.6447
L24.6040 52.7052
" />
<path d="M24.6040 52.7052
L24.4830 52.8867
" />
<path d="M24.4830 52.8867
L24.4226 53.1286
" />
<path d="M24.4226 53.1286
L24.4226 53.6124
" />
<path d="M24.4226 53.6124
L24.4830 53.7333
" />
<path d="M24.4830 53.7333
L24.5435 53.7938
" />
<path d="M24.5435 53.7938
L24.6645 53.8543
" />
<path d="M24.6645 53.8543
L24.9064 53.8543
" />
<path d="M24.9064 53.8543
L25.0273 53.7938
" />
<path d="M25.0273 53.7938
L25.0878 53.7333
" />
<path d="M25.0878 53.7333
L25.1483 53.6124
" />
<path d="M25.1483 53.6124
L25.1483 53.3100
" />
<path d="M25.1483 53.3100
L25.0878 53.1890
" />
<path d="M25.0878 53.1890
L25.0273 53.1286
" />
<path d="M25.0273 53.1286
L24.9064 53.0681
" />
<path d="M24.9064 53.0681
L24.6645 53.0681
" />
<path d="M24.6645 53.0681
L24.5435 53.1286
" />
<path d="M24.5435 53.1286
L24.4830 53.1890
" />
<path d="M24.4830 53.1890
L24.4226 53.3100
" />
<path d="M25.5111 52.5843
L25.9345 53.8543
" />
<path d="M25.9345 53.8543
L26.3578 52.5843
" />
<path d="M26.7206 53.4914
L27.3254 53.4914
" />
<path d="M26.5997 53.8543
L27.0230 52.5843
" />
<path d="M27.0230 52.5843
L27.4464 53.8543
" />
<path d="M27.5673 53.9752
L28.5349 53.9752
" />
<path d="M28.8373 53.8543
L28.8373 52.5843
" />
<path d="M28.8373 52.5843
L29.5630 53.8543
" />
<path d="M29.5630 53.8543
L29.5630 52.5843
" />
<path d="M30.6516 53.7938
L30.5306 53.8543
" />
<path d="M30.5306 53.8543
L30.2887 53.8543
" />
<path d="M30.2887 53.8543
L30.1678 53.7938
" />
<path d="M30.1678 53.7938
L30.1073 53.6728
" />
<path d="M30.1073 53.6728
L30.1073 53.1890
" />
<path d="M30.1073 53.1890
L30.1678 53.0681
" />
<path d="M30.1678 53.0681
L30.2887 53.0076
" />
<path d="M30.2887 53.0076
L30.5306 53.0076
" />
<path d="M30.5306 53.0076
L30.6516 53.0681
" />
<path d="M30.6516 53.0681
L30.7121 53.1890
" />
<path d="M30.7121 53.1890
L30.7121 53.3100
" />
<path d="M30.7121 53.3100
L30.1073 53.4309
" />
<path d="M31.8006 53.0076
L31.8006 53.8543
" />
<path d="M31.2564 53.0076
L31.2564 53.6728
" />
<path d="M31.2564 53.6728
L31.3168 53.7938
" />
<path d="M31.3168 53.7938
L31.4378 53.8543
" />
<path d="M31.4378 53.8543
L31.6192 53.8543
" />
<path d="M31.6192 53.8543
L31.7402 53.7938
" />
<path d="M31.7402 53.7938
L31.8006 53.7333
" />
<path d="M32.2240 53.0076
L32.7078 53.0076
" />
<path d="M32.4054 52.5843
L32.4054 53.6728
" />
<path d="M32.4054 53.6728
L32.4659 53.7938
" />
<path d="M32.4659 53.7938
L32.5868 53.8543
" />
<path d="M32.5868 53.8543
L32.7078 53.8543
" />
<path d="M33.1311 53.8543
L33.1311 53.0076
" />
<path d="M33.1311 53.2495
L33.1916 53.1286
" />
<path d="M33.1916 53.1286
L33.2521 53.0681
" />
<path d="M33.2521 53.0681
L33.3730 53.0076
" />
<path d="M33.3730 53.0076
L33.4940 53.0076
" />
<path d="M34.4616 53.8543
L34.4616 53.1890
" />
<path d="M34.4616 53.1890
L34.4011 53.0681
" />
<path d="M34.4011 53.0681
L34.2802 53.0076
" />
<path d="M34.2802 53.0076
L34.0383 53.0076
" />
<path d="M34.0383 53.0076
L33.9173 53.0681
" />
<path d="M34.4616 53.7938
L34.3406 53.8543
" />
<path d="M34.3406 53.8543
L34.0383 53.8543
" />
<path d="M34.0383 53.8543
L33.9173 53.7938
" />
<path d="M33.9173 53.7938
L33.8568 53.6728
" />
<path d="M33.8568 53.6728
L33.8568 53.5519
" />
<path d="M33.8568 53.5519
L33.9173 53.4309
" />
<path d="M33.9173 53.4309
L34.0383 53.3705
" />
<path d="M34.0383 53.3705
L34.3406 53.3705
" />
<path d="M34.3406 53.3705
L34.4616 53.3100
" />
<path d="M35.2478 53.8543
L35.1268 53.7938
" />
<path d="M35.1268 53.7938
L35.0664 53.6728
" />
<path d="M35.0664 53.6728
L35.0664 52.5843
" />
</g></g>
<g style="fill:none; 
stroke:#AFAFAF; stroke-width:0.1500; stroke-opacity:1; 
stroke-linecap:round; stroke-linejoin:round;">
<text x="20.7702" y="23.7750"
textLength="1.2024" font-size="1.3333" lengthAdjust="spacingAndGlyphs"
text-anchor="middle" opacity="0">7</text>
<g class="stroked-text"><desc>7</desc>
<path d="M20.4368 22.7298
L21.1035 22.7298
" />
<path d="M21.1035 22.7298
L20.6749 23.7298
" />
</g><text x="44.7702" y="23.7750"
textLength="1.2024" font-size="1.3333" lengthAdjust="spacingAndGlyphs"
text-anchor="middle" opacity="0">8</text>
<g class="stroked-text"><desc>8</desc>
<path d="M44.6749 23.1584
L44.5797 23.1108
" />
<path d="M44.5797 23.1108
L44.5321 23.0632
" />
<path d="M44.5321 23.0632
L44.4845 22.9679
" />
<path d="M44.4845 22.9679
L44.4845 22.9203
" />
<path d="M44.4845 22.9203
L44.5321 22.8251
" />
<path d="M44.5321 22.8251
L44.5797 22.7774
" />
<path d="M44.5797 22.7774
L44.6749 22.7298
" />
<path d="M44.6749 22.7298
L44.8654 22.7298
" />
<path d="M44.8654 22.7298
L44.9606 22.7774
" />
<path d="M44.9606 22.7774
L45.0083 22.8251
" />
<path d="M45.0083 22.8251
L45.0559 22.9203
" />
<path d="M45.0559 22.9203
L45.0559 22.9679
" />
<path d="M45.0559 22.9679
L45.0083 23.0632
" />
<path d="M45.0083 23.0632
L44.9606 23.1108
" />
<path d="M44.9606 23.1108
L44.8654 23.1584
" />
<path d="M44.8654 23.1584
L44.6749 23.1584
" />
<path d="M44.6749 23.1584
L44.5797 23.2060
" />
<path d="M44.5797 23.2060
L44.5321 23.2536
" />
<path d="M44.5321 23.2536
L44.4845 23.3489
" />
<path d="M44.4845 23.3489
L44.4845 23.5393
" />
<path d="M44.4845 23.5393
L44.5321 23.6346
" />
<path d="M44.5321 23.6346
L44.5797 23.6822
" />
<path d="M44.5797 23.6822
L44.6749 23.7298
" />
<path d="M44.6749 23.7298
L44.8654 23.7298
" />
<path d="M44.8654 23.7298
L44.9606 23.6822
" />
<path d="M44.9606 23.6822
L45.0083 23.6346
" />
<path d="M45.0083 23.6346
L45.0559 23.5393
" />
<path d="M45.0559 23.5393
L45.0559 23.3489
" />
<path d="M45.0559 23.3489
L45.0083 23.2536
" />
<path d="M45.0083 23.2536
L44.9606 23.2060
" />
<path d="M44.9606 23.2060
L44.8654 23.1584
" />
</g><text x="43.7702" y="53.7750"
textLength="2.1548" font-size="1.3333" lengthAdjust="spacingAndGlyphs"
text-anchor="middle" opacity="0">14</text>
<g class="stroked-text"><desc>14</desc>
<path d="M43.5797 53.7298
L43.0083 53.7298
" />
<path d="M43.2940 53.7298
L43.2940 52.7298
" />
<path d="M43.2940 52.7298
L43.1987 52.8727
" />
<path d="M43.1987 52.8727
L43.1035 52.9679
" />
<path d="M43.1035 52.9679
L43.0083 53.0155
" />
<path d="M44.4368 53.0632
L44.4368 53.7298
" />
<path d="M44.1987 52.6822
L43.9606 53.3965
" />
<path d="M43.9606 53.3965
L44.5797 53.3965
" />
</g><g transform="rotate(-90.000000 30.7702 38.7750)">
<text x="30.7702" y="39.2750"
textLength="4.5357" font-size="1.3333" lengthAdjust="spacingAndGlyphs"
text-anchor="middle" opacity="0">REF**</text>
</g>
<g class="stroked-text"><desc>REF**</desc>
<path d="M31.2250 40.1083
L30.7488 40.4417
" />
<path d="M31.2250 40.6798
L30.2250 40.6798
" />
<path d="M30.2250 40.6798
L30.2250 40.2988
" />
<path d="M30.2250 40.2988
L30.2726 40.2036
" />
<path d="M30.2726 40.2036
L30.3202 40.1560
" />
<path d="M30.3202 40.1560
L30.4155 40.1083
" />
<path d="M30.4155 40.1083
L30.5583 40.1083
" />
<path d="M30.5583 40.1083
L30.6536 40.1560
" />
<path d="M30.6536 40.1560
L30.7012 40.2036
" />
<path d="M30.7012 40.2036
L30.7488 40.2988
" />
<path d="M30.7488 40.2988
L30.7488 40.6798
" />
<path d="M30.7012 39.6798
L30.7012 39.3464
" />
<path d="M31.2250 39.2036
L31.2250 39.6798
" />
<path d="M31.2250 39.6798
L30.2250 39.6798
" />
<path d="M30.2250 39.6798
L30.2250 39.2036
" />
<path d="M30.7012 38.4417
L30.7012 38.7750
" />
<path d="M31.2250 38.7750
L30.2250 38.7750
" />
<path d="M30.2250 38.7750
L30.2250 38.2988
" />
<path d="M30.2250 37.7750
L30.4631 37.7750
" />
<path d="M30.3678 38.0131
L30.4631 37.7750
" />
<path d="M30.4631 37.7750
L30.3678 37.5369
" />
<path d="M30.6536 37.9179
L30.4631 37.7750
" />
<path d="M30.4631 37.7750
L30.6536 37.6321
" />
<path d="M30.2250 37.0131
L30.4631 37.0131
" />
<path d="M30.3678 37.2512
L30.4631 37.0131
" />
<path d="M30.4631 37.0131
L30.3678 36.7750
" />
<path d="M30.6536 37.1560
L30.4631 37.0131
" />
<path d="M30.4631 37.0131
L30.6536 36.8702
" />
</g></g>
<g style="fill:none; 
stroke:#AFAFAF; stroke-width:0.1000; stroke-opacity:1; 
stroke-linecap:round; stroke-linejoin:round;">
<path d="M9.2702 0.2750
L19.2702 0.2750
" />
<path d="M9.2702 10.2750
L9.2702 0.2750
" />
<path d="M9.2702 10.2750
L9.2702 66.2750
" />
<path d="M9.2702 66.2750
L9.2702 76.2750
" />
<path d="M9.2702 66.2750
L56.2702 66.2750
" />
<path d="M9.2702 76.2750
L18.7702 76.2750
" />
<path d="M18.7702 76.2750
L18.7702 66.2750
" />
<path d="M19.2702 0.2750
L19.2702 10.2750
" />
<path d="M46.2702 0.2750
L46.2702 10.2750
" />
<path d="M46.2702 76.2750
L46.2702 66.2750
" />
<path d="M56.2702 0.2750
L46.2702 0.2750
" />
<path d="M56.2702 10.2750
L9.2702 10.2750
" />
<path d="M56.2702 10.2750
L56.2702 0.2750
" />
<path d="M56.2702 66.2750
L56.2702 10.2750
" />
<path d="M56.2702 66.2750
L56.2702 76.2750
" />
<path d="M56.2702 76.2750
L46.2702 76.2750
" />
</g> 
</svg>
