<?xml version="1.0" standalone="no"?>
 <!DOCTYPE svg PUBLIC "-//W3C//DTD SVG 1.1//EN" 
 "http://www.w3.org/Graphics/SVG/1.1/DTD/svg11.dtd"> 
<svg
  xmlns:svg="http://www.w3.org/2000/svg"
  xmlns="http://www.w3.org/2000/svg"
  xmlns:xlink="http://www.w3.org/1999/xlink"
  version="1.1"
  width="19.5072mm" height="2.5400mm" viewBox="0.0000 0.0000 19.5072 2.5400">
<title>SVG Image created as working-brd.svg date 2024/04/07 00:49:39 </title>
  <desc>Image generated by PCBNEW </desc>
<g style="fill:#000000; fill-opacity:1.0000;stroke:#000000; stroke-opacity:1.0000;
stroke-linecap:round; stroke-linejoin:round;"
 transform="translate(0 0) scale(1 1)">
<path style="fill:#C83434; fill-opacity:1.0000; stroke:none;fill-rule:evenodd;"
d="M 8.7821,0.5250
8.7935,0.4676
8.8260,0.4189
8.8747,0.3864
8.9321,0.3750
9.2321,0.3750
9.2895,0.3864
9.3381,0.4189
9.3707,0.4676
9.3821,0.5250
9.3821,2.0250
9.3707,2.0824
9.3381,2.1311
9.2895,2.1636
9.2321,2.1750
8.9321,2.1750
8.8747,2.1636
8.8260,2.1311
8.7935,2.0824
8.7821,2.0250
Z" /> 
<path style="fill:#C83434; fill-opacity:1.0000; stroke:none;fill-rule:evenodd;"
d="M 10.1321,0.5250
10.1435,0.4676
10.1760,0.4189
10.2247,0.3864
10.2821,0.3750
10.5821,0.3750
10.6395,0.3864
10.6881,0.4189
10.7207,0.4676
10.7321,0.5250
10.7321,2.0250
10.7207,2.0824
10.6881,2.1311
10.6395,2.1636
10.5821,2.1750
10.2821,2.1750
10.2247,2.1636
10.1760,2.1311
10.1435,2.0824
10.1321,2.0250
Z" /> 
<path style="fill:#D864FF; fill-opacity:0.4000; stroke:none;fill-rule:evenodd;"
d="M 8.7821,0.5250
8.7935,0.4676
8.8260,0.4189
8.8747,0.3864
8.9321,0.3750
9.2321,0.3750
9.2895,0.3864
9.3381,0.4189
9.3707,0.4676
9.3821,0.5250
9.3821,2.0250
9.3707,2.0824
9.3381,2.1311
9.2895,2.1636
9.2321,2.1750
8.9321,2.1750
8.8747,2.1636
8.8260,2.1311
8.7935,2.0824
8.7821,2.0250
Z" /> 
<path style="fill:#D864FF; fill-opacity:0.4000; stroke:none;fill-rule:evenodd;"
d="M 10.1321,0.5250
10.1435,0.4676
10.1760,0.4189
10.2247,0.3864
10.2821,0.3750
10.5821,0.3750
10.6395,0.3864
10.6881,0.4189
10.7207,0.4676
10.7321,0.5250
10.7321,2.0250
10.7207,2.0824
10.6881,2.1311
10.6395,2.1636
10.5821,2.1750
10.2821,2.1750
10.2247,2.1636
10.1760,2.1311
10.1435,2.0824
10.1321,2.0250
Z" /> 
<path style="fill:#B4A09A; fill-opacity:0.9000; stroke:none;fill-rule:evenodd;"
d="M 8.7821,0.5250
8.7935,0.4676
8.8260,0.4189
8.8747,0.3864
8.9321,0.3750
9.2321,0.3750
9.2895,0.3864
9.3381,0.4189
9.3707,0.4676
9.3821,0.5250
9.3821,2.0250
9.3707,2.0824
9.3381,2.1311
9.2895,2.1636
9.2321,2.1750
8.9321,2.1750
8.8747,2.1636
8.8260,2.1311
8.7935,2.0824
8.7821,2.0250
Z" /> 
<path style="fill:#B4A09A; fill-opacity:0.9000; stroke:none;fill-rule:evenodd;"
d="M 10.1321,0.5250
10.1435,0.4676
10.1760,0.4189
10.2247,0.3864
10.2821,0.3750
10.5821,0.3750
10.6395,0.3864
10.6881,0.4189
10.7207,0.4676
10.7321,0.5250
10.7321,2.0250
10.7207,2.0824
10.6881,2.1311
10.6395,2.1636
10.5821,2.1750
10.2821,2.1750
10.2247,2.1636
10.1760,2.1311
10.1435,2.0824
10.1321,2.0250
Z" /> 
</g>
<g style="fill:none; 
stroke:#F2EDA1; stroke-width:0.1588; stroke-opacity:1; 
stroke-linecap:round; stroke-linejoin:round;">
<text x="9.7571" y="1.9100"
textLength="5.6651" font-size="1.6933" lengthAdjust="spacingAndGlyphs"
text-anchor="middle" opacity="0">REF**</text>
<g class="stroked-text"><desc>REF**</desc>
<path d="M8.0637 1.8543
L7.6404 1.2495
" />
<path d="M7.3380 1.8543
L7.3380 0.5843
" />
<path d="M7.3380 0.5843
L7.8218 0.5843
" />
<path d="M7.8218 0.5843
L7.9428 0.6447
" />
<path d="M7.9428 0.6447
L8.0033 0.7052
" />
<path d="M8.0033 0.7052
L8.0637 0.8262
" />
<path d="M8.0637 0.8262
L8.0637 1.0076
" />
<path d="M8.0637 1.0076
L8.0033 1.1286
" />
<path d="M8.0033 1.1286
L7.9428 1.1890
" />
<path d="M7.9428 1.1890
L7.8218 1.2495
" />
<path d="M7.8218 1.2495
L7.3380 1.2495
" />
<path d="M8.6080 1.1890
L9.0314 1.1890
" />
<path d="M9.2128 1.8543
L8.6080 1.8543
" />
<path d="M8.6080 1.8543
L8.6080 0.5843
" />
<path d="M8.6080 0.5843
L9.2128 0.5843
" />
<path d="M10.1804 1.1890
L9.7571 1.1890
" />
<path d="M9.7571 1.8543
L9.7571 0.5843
" />
<path d="M9.7571 0.5843
L10.3618 0.5843
" />
<path d="M11.0271 0.5843
L11.0271 0.8867
" />
<path d="M10.7247 0.7657
L11.0271 0.8867
" />
<path d="M11.0271 0.8867
L11.3295 0.7657
" />
<path d="M10.8456 1.1286
L11.0271 0.8867
" />
<path d="M11.0271 0.8867
L11.2085 1.1286
" />
<path d="M11.9947 0.5843
L11.9947 0.8867
" />
<path d="M11.6923 0.7657
L11.9947 0.8867
" />
<path d="M11.9947 0.8867
L12.2971 0.7657
" />
<path d="M11.8133 1.1286
L11.9947 0.8867
" />
<path d="M11.9947 0.8867
L12.1761 1.1286
" />
</g></g>
<g style="fill:none; 
stroke:#F2EDA1; stroke-width:0.1000; stroke-opacity:1; 
stroke-linecap:round; stroke-linejoin:round;">
<path d="M9.6321 0.2750
L9.8821 0.2750
" />
<path d="M9.6321 2.2750
L9.8821 2.2750
" />
<circle cx="8.4321" cy="1.7750" r="0.1000" /> 
<path style="fill:none; 
stroke:#FF26E2; stroke-width:0.0500; stroke-opacity:1; 
stroke-linecap:round; stroke-linejoin:round;fill:none"
d="M 8.5571,0.0250
10.9571,0.0250
10.9571,2.5250
8.5571,2.5250
Z" /> 
</g>
<g style="fill:none; 
stroke:#AFAFAF; stroke-width:0.1588; stroke-opacity:1; 
stroke-linecap:round; stroke-linejoin:round;">
<text x="9.7571" y="1.9100"
textLength="19.5142" font-size="1.6933" lengthAdjust="spacingAndGlyphs"
text-anchor="middle" opacity="0">L_Coilcraft_XFL2010</text>
<g class="stroked-text"><desc>L_Coilcraft_XFL2010</desc>
<path d="M1.0183 1.8543
L0.4135 1.8543
" />
<path d="M0.4135 1.8543
L0.4135 0.5843
" />
<path d="M1.1392 1.9752
L2.1068 1.9752
" />
<path d="M3.1349 1.7333
L3.0745 1.7938
" />
<path d="M3.0745 1.7938
L2.8930 1.8543
" />
<path d="M2.8930 1.8543
L2.7721 1.8543
" />
<path d="M2.7721 1.8543
L2.5906 1.7938
" />
<path d="M2.5906 1.7938
L2.4697 1.6728
" />
<path d="M2.4697 1.6728
L2.4092 1.5519
" />
<path d="M2.4092 1.5519
L2.3487 1.3100
" />
<path d="M2.3487 1.3100
L2.3487 1.1286
" />
<path d="M2.3487 1.1286
L2.4092 0.8867
" />
<path d="M2.4092 0.8867
L2.4697 0.7657
" />
<path d="M2.4697 0.7657
L2.5906 0.6447
" />
<path d="M2.5906 0.6447
L2.7721 0.5843
" />
<path d="M2.7721 0.5843
L2.8930 0.5843
" />
<path d="M2.8930 0.5843
L3.0745 0.6447
" />
<path d="M3.0745 0.6447
L3.1349 0.7052
" />
<path d="M3.8606 1.8543
L3.7397 1.7938
" />
<path d="M3.7397 1.7938
L3.6792 1.7333
" />
<path d="M3.6792 1.7333
L3.6187 1.6124
" />
<path d="M3.6187 1.6124
L3.6187 1.2495
" />
<path d="M3.6187 1.2495
L3.6792 1.1286
" />
<path d="M3.6792 1.1286
L3.7397 1.0681
" />
<path d="M3.7397 1.0681
L3.8606 1.0076
" />
<path d="M3.8606 1.0076
L4.0421 1.0076
" />
<path d="M4.0421 1.0076
L4.1630 1.0681
" />
<path d="M4.1630 1.0681
L4.2235 1.1286
" />
<path d="M4.2235 1.1286
L4.2840 1.2495
" />
<path d="M4.2840 1.2495
L4.2840 1.6124
" />
<path d="M4.2840 1.6124
L4.2235 1.7333
" />
<path d="M4.2235 1.7333
L4.1630 1.7938
" />
<path d="M4.1630 1.7938
L4.0421 1.8543
" />
<path d="M4.0421 1.8543
L3.8606 1.8543
" />
<path d="M4.8283 1.8543
L4.8283 1.0076
" />
<path d="M4.8283 0.5843
L4.7678 0.6447
" />
<path d="M4.7678 0.6447
L4.8283 0.7052
" />
<path d="M4.8283 0.7052
L4.8887 0.6447
" />
<path d="M4.8887 0.6447
L4.8283 0.5843
" />
<path d="M4.8283 0.5843
L4.8283 0.7052
" />
<path d="M5.6145 1.8543
L5.4935 1.7938
" />
<path d="M5.4935 1.7938
L5.4330 1.6728
" />
<path d="M5.4330 1.6728
L5.4330 0.5843
" />
<path d="M6.6426 1.7938
L6.5216 1.8543
" />
<path d="M6.5216 1.8543
L6.2797 1.8543
" />
<path d="M6.2797 1.8543
L6.1587 1.7938
" />
<path d="M6.1587 1.7938
L6.0983 1.7333
" />
<path d="M6.0983 1.7333
L6.0378 1.6124
" />
<path d="M6.0378 1.6124
L6.0378 1.2495
" />
<path d="M6.0378 1.2495
L6.0983 1.1286
" />
<path d="M6.0983 1.1286
L6.1587 1.0681
" />
<path d="M6.1587 1.0681
L6.2797 1.0076
" />
<path d="M6.2797 1.0076
L6.5216 1.0076
" />
<path d="M6.5216 1.0076
L6.6426 1.0681
" />
<path d="M7.1868 1.8543
L7.1868 1.0076
" />
<path d="M7.1868 1.2495
L7.2473 1.1286
" />
<path d="M7.2473 1.1286
L7.3078 1.0681
" />
<path d="M7.3078 1.0681
L7.4287 1.0076
" />
<path d="M7.4287 1.0076
L7.5497 1.0076
" />
<path d="M8.5173 1.8543
L8.5173 1.1890
" />
<path d="M8.5173 1.1890
L8.4568 1.0681
" />
<path d="M8.4568 1.0681
L8.3359 1.0076
" />
<path d="M8.3359 1.0076
L8.0940 1.0076
" />
<path d="M8.0940 1.0076
L7.9730 1.0681
" />
<path d="M8.5173 1.7938
L8.3964 1.8543
" />
<path d="M8.3964 1.8543
L8.0940 1.8543
" />
<path d="M8.0940 1.8543
L7.9730 1.7938
" />
<path d="M7.9730 1.7938
L7.9126 1.6728
" />
<path d="M7.9126 1.6728
L7.9126 1.5519
" />
<path d="M7.9126 1.5519
L7.9730 1.4309
" />
<path d="M7.9730 1.4309
L8.0940 1.3705
" />
<path d="M8.0940 1.3705
L8.3964 1.3705
" />
<path d="M8.3964 1.3705
L8.5173 1.3100
" />
<path d="M8.9406 1.0076
L9.4245 1.0076
" />
<path d="M9.1221 1.8543
L9.1221 0.7657
" />
<path d="M9.1221 0.7657
L9.1826 0.6447
" />
<path d="M9.1826 0.6447
L9.3035 0.5843
" />
<path d="M9.3035 0.5843
L9.4245 0.5843
" />
<path d="M9.6664 1.0076
L10.1502 1.0076
" />
<path d="M9.8478 0.5843
L9.8478 1.6728
" />
<path d="M9.8478 1.6728
L9.9083 1.7938
" />
<path d="M9.9083 1.7938
L10.0292 1.8543
" />
<path d="M10.0292 1.8543
L10.1502 1.8543
" />
<path d="M10.2711 1.9752
L11.2387 1.9752
" />
<path d="M11.4202 0.5843
L12.2668 1.8543
" />
<path d="M12.2668 0.5843
L11.4202 1.8543
" />
<path d="M13.1740 1.1890
L12.7506 1.1890
" />
<path d="M12.7506 1.8543
L12.7506 0.5843
" />
<path d="M12.7506 0.5843
L13.3554 0.5843
" />
<path d="M14.4440 1.8543
L13.8392 1.8543
" />
<path d="M13.8392 1.8543
L13.8392 0.5843
" />
<path d="M14.8068 0.7052
L14.8673 0.6447
" />
<path d="M14.8673 0.6447
L14.9883 0.5843
" />
<path d="M14.9883 0.5843
L15.2906 0.5843
" />
<path d="M15.2906 0.5843
L15.4116 0.6447
" />
<path d="M15.4116 0.6447
L15.4721 0.7052
" />
<path d="M15.4721 0.7052
L15.5326 0.8262
" />
<path d="M15.5326 0.8262
L15.5326 0.9471
" />
<path d="M15.5326 0.9471
L15.4721 1.1286
" />
<path d="M15.4721 1.1286
L14.7464 1.8543
" />
<path d="M14.7464 1.8543
L15.5326 1.8543
" />
<path d="M16.3187 0.5843
L16.4397 0.5843
" />
<path d="M16.4397 0.5843
L16.5606 0.6447
" />
<path d="M16.5606 0.6447
L16.6211 0.7052
" />
<path d="M16.6211 0.7052
L16.6816 0.8262
" />
<path d="M16.6816 0.8262
L16.7421 1.0681
" />
<path d="M16.7421 1.0681
L16.7421 1.3705
" />
<path d="M16.7421 1.3705
L16.6816 1.6124
" />
<path d="M16.6816 1.6124
L16.6211 1.7333
" />
<path d="M16.6211 1.7333
L16.5606 1.7938
" />
<path d="M16.5606 1.7938
L16.4397 1.8543
" />
<path d="M16.4397 1.8543
L16.3187 1.8543
" />
<path d="M16.3187 1.8543
L16.1978 1.7938
" />
<path d="M16.1978 1.7938
L16.1373 1.7333
" />
<path d="M16.1373 1.7333
L16.0768 1.6124
" />
<path d="M16.0768 1.6124
L16.0164 1.3705
" />
<path d="M16.0164 1.3705
L16.0164 1.0681
" />
<path d="M16.0164 1.0681
L16.0768 0.8262
" />
<path d="M16.0768 0.8262
L16.1373 0.7052
" />
<path d="M16.1373 0.7052
L16.1978 0.6447
" />
<path d="M16.1978 0.6447
L16.3187 0.5843
" />
<path d="M17.9516 1.8543
L17.2259 1.8543
" />
<path d="M17.5887 1.8543
L17.5887 0.5843
" />
<path d="M17.5887 0.5843
L17.4678 0.7657
" />
<path d="M17.4678 0.7657
L17.3468 0.8867
" />
<path d="M17.3468 0.8867
L17.2259 0.9471
" />
<path d="M18.7378 0.5843
L18.8587 0.5843
" />
<path d="M18.8587 0.5843
L18.9797 0.6447
" />
<path d="M18.9797 0.6447
L19.0402 0.7052
" />
<path d="M19.0402 0.7052
L19.1006 0.8262
" />
<path d="M19.1006 0.8262
L19.1611 1.0681
" />
<path d="M19.1611 1.0681
L19.1611 1.3705
" />
<path d="M19.1611 1.3705
L19.1006 1.6124
" />
<path d="M19.1006 1.6124
L19.0402 1.7333
" />
<path d="M19.0402 1.7333
L18.9797 1.7938
" />
<path d="M18.9797 1.7938
L18.8587 1.8543
" />
<path d="M18.8587 1.8543
L18.7378 1.8543
" />
<path d="M18.7378 1.8543
L18.6168 1.7938
" />
<path d="M18.6168 1.7938
L18.5564 1.7333
" />
<path d="M18.5564 1.7333
L18.4959 1.6124
" />
<path d="M18.4959 1.6124
L18.4354 1.3705
" />
<path d="M18.4354 1.3705
L18.4354 1.0681
" />
<path d="M18.4354 1.0681
L18.4959 0.8262
" />
<path d="M18.4959 0.8262
L18.5564 0.7052
" />
<path d="M18.5564 0.7052
L18.6168 0.6447
" />
<path d="M18.6168 0.6447
L18.7378 0.5843
" />
</g></g>
<g style="fill:none; 
stroke:#AFAFAF; stroke-width:0.0750; stroke-opacity:1; 
stroke-linecap:round; stroke-linejoin:round;">
<g transform="rotate(-90.000000 9.7571 1.2750)">
<text x="9.7571" y="1.5250"
textLength="2.2679" font-size="0.6667" lengthAdjust="spacingAndGlyphs"
text-anchor="middle" opacity="0">REF**</text>
</g>
<g class="stroked-text"><desc>REF**</desc>
<path d="M9.9845 1.9417
L9.7464 2.1083
" />
<path d="M9.9845 2.2274
L9.4845 2.2274
" />
<path d="M9.4845 2.2274
L9.4845 2.0369
" />
<path d="M9.4845 2.0369
L9.5083 1.9893
" />
<path d="M9.5083 1.9893
L9.5321 1.9655
" />
<path d="M9.5321 1.9655
L9.5797 1.9417
" />
<path d="M9.5797 1.9417
L9.6512 1.9417
" />
<path d="M9.6512 1.9417
L9.6988 1.9655
" />
<path d="M9.6988 1.9655
L9.7226 1.9893
" />
<path d="M9.7226 1.9893
L9.7464 2.0369
" />
<path d="M9.7464 2.0369
L9.7464 2.2274
" />
<path d="M9.7226 1.7274
L9.7226 1.5607
" />
<path d="M9.9845 1.4893
L9.9845 1.7274
" />
<path d="M9.9845 1.7274
L9.4845 1.7274
" />
<path d="M9.4845 1.7274
L9.4845 1.4893
" />
<path d="M9.7226 1.1083
L9.7226 1.2750
" />
<path d="M9.9845 1.2750
L9.4845 1.2750
" />
<path d="M9.4845 1.2750
L9.4845 1.0369
" />
<path d="M9.4845 0.7750
L9.6035 0.7750
" />
<path d="M9.5559 0.8940
L9.6035 0.7750
" />
<path d="M9.6035 0.7750
L9.5559 0.6560
" />
<path d="M9.6988 0.8464
L9.6035 0.7750
" />
<path d="M9.6035 0.7750
L9.6988 0.7036
" />
<path d="M9.4845 0.3940
L9.6035 0.3940
" />
<path d="M9.5559 0.5131
L9.6035 0.3940
" />
<path d="M9.6035 0.3940
L9.5559 0.2750
" />
<path d="M9.6988 0.4655
L9.6035 0.3940
" />
<path d="M9.6035 0.3940
L9.6988 0.3226
" />
</g><path style="fill:none; 
stroke:#AFAFAF; stroke-width:0.1000; stroke-opacity:1; 
stroke-linecap:round; stroke-linejoin:round;fill:none"
d="M 8.8071,0.2750
10.7071,0.2750
10.7071,2.2750
8.8071,2.2750
Z" /> 
</g>
<g style="fill:none; 
stroke:#AFAFAF; stroke-width:0.1000; stroke-opacity:1; 
stroke-linecap:round; stroke-linejoin:round;">
<circle cx="9.1571" cy="1.8750" r="0.1000" /> 
</g> 
</svg>
