<?xml version="1.0" standalone="no"?>
 <!DOCTYPE svg PUBLIC "-//W3C//DTD SVG 1.1//EN" 
 "http://www.w3.org/Graphics/SVG/1.1/DTD/svg11.dtd"> 
<svg
  xmlns:svg="http://www.w3.org/2000/svg"
  xmlns="http://www.w3.org/2000/svg"
  xmlns:xlink="http://www.w3.org/1999/xlink"
  version="1.1"
  width="79.7814mm" height="14.9860mm" viewBox="0.0000 0.0000 79.7814 14.9860">
<title>SVG Image created as working-brd.svg date 2024/04/15 04:09:24 </title>
  <desc>Image generated by PCBNEW </desc>
<g style="fill:#000000; fill-opacity:1.0000;stroke:#000000; stroke-opacity:1.0000;
stroke-linecap:round; stroke-linejoin:round;"
 transform="translate(0 0) scale(1 1)">
</g>
<g style="fill:#FFFFFF; fill-opacity:1.0000; stroke:none;">
<circle cx="30.1678" cy="3.7200" r="0.5500" /> 
</g>
<g style="fill:#FFFFFF; fill-opacity:1.0000; stroke:none;">
<circle cx="30.1678" cy="11.9200" r="0.5500" /> 
</g>
<g style="fill:#FFFFFF; fill-opacity:1.0000; stroke:none;">
<circle cx="35.1678" cy="3.7200" r="0.5500" /> 
</g>
<g style="fill:#FFFFFF; fill-opacity:1.0000; stroke:none;">
<circle cx="35.1678" cy="11.9200" r="0.5500" /> 
</g>
<g style="fill:#FFFFFF; fill-opacity:1.0000; stroke:none;">
<circle cx="40.1678" cy="3.7200" r="0.5500" /> 
</g>
<g style="fill:#FFFFFF; fill-opacity:1.0000; stroke:none;">
<circle cx="40.1678" cy="11.9200" r="0.5500" /> 
</g>
<g style="fill:#FFFFFF; fill-opacity:1.0000; stroke:none;">
<circle cx="45.1678" cy="3.7200" r="0.5500" /> 
</g>
<g style="fill:#FFFFFF; fill-opacity:1.0000; stroke:none;">
<circle cx="45.1678" cy="11.9200" r="0.5500" /> 
</g>
<g style="fill:#FFFFFF; fill-opacity:1.0000; stroke:none;">
<circle cx="50.1678" cy="3.7200" r="0.5500" /> 
</g>
<g style="fill:#FFFFFF; fill-opacity:1.0000; stroke:none;">
<circle cx="50.1678" cy="11.9200" r="0.5500" /> 
</g>
<g style="fill:#FFFFFF; fill-opacity:1.0000; stroke:none;">
<circle cx="55.1678" cy="3.7200" r="0.5500" /> 
</g>
<g style="fill:#FFFFFF; fill-opacity:1.0000; stroke:none;">
<circle cx="55.1678" cy="11.9200" r="0.5500" /> 
</g>
<g style="fill:#FFFFFF; fill-opacity:1.0000; stroke:none;">
<circle cx="60.1678" cy="3.7200" r="0.5500" /> 
</g>
<g style="fill:#FFFFFF; fill-opacity:1.0000; stroke:none;">
<circle cx="60.1678" cy="11.9200" r="0.5500" /> 
</g>
<g style="fill:#FFFFFF; fill-opacity:1.0000; stroke:none;">
<circle cx="65.1678" cy="3.7200" r="0.5500" /> 
</g>
<g style="fill:#FFFFFF; fill-opacity:1.0000; stroke:none;">
<circle cx="65.1678" cy="11.9200" r="0.5500" /> 
</g>
<g style="fill:#FFFFFF; fill-opacity:1.0000; stroke:none;">
<circle cx="70.1678" cy="3.7200" r="0.5500" /> 
</g>
<g style="fill:#FFFFFF; fill-opacity:1.0000; stroke:none;">
<circle cx="70.1678" cy="11.9200" r="0.5500" /> 
</g>
<g style="fill:#FFFFFF; fill-opacity:1.0000; stroke:none;">
<circle cx="75.1678" cy="3.7200" r="0.5500" /> 
</g>
<g style="fill:#FFFFFF; fill-opacity:1.0000; stroke:none;">
<circle cx="75.1678" cy="11.9200" r="0.5500" /> 
<path style="fill:#02FFEE; fill-opacity:0.4000; stroke:none;fill-rule:evenodd;"
d="M 29.2678,2.3200
29.2868,2.2243
29.3410,2.1432
29.4221,2.0890
29.5178,2.0700
30.8178,2.0700
30.9135,2.0890
30.9946,2.1432
31.0488,2.2243
31.0678,2.3200
31.0678,5.1200
31.0488,5.2157
30.9946,5.2968
30.9135,5.3510
30.8178,5.3700
29.5178,5.3700
29.4221,5.3510
29.3410,5.2968
29.2868,5.2157
29.2678,5.1200
Z" /> 
<path style="fill:#02FFEE; fill-opacity:0.4000; stroke:none;fill-rule:evenodd;"
d="M 29.2678,10.5200
29.2868,10.4243
29.3410,10.3432
29.4221,10.2890
29.5178,10.2700
30.8178,10.2700
30.9135,10.2890
30.9946,10.3432
31.0488,10.4243
31.0678,10.5200
31.0678,13.3200
31.0488,13.4157
30.9946,13.4968
30.9135,13.5510
30.8178,13.5700
29.5178,13.5700
29.4221,13.5510
29.3410,13.4968
29.2868,13.4157
29.2678,13.3200
Z" /> 
</g>
<g style="fill:none; 
stroke:#02FFEE; stroke-width:1.8000; stroke-opacity:1; 
stroke-linecap:round; stroke-linejoin:round;">
<path d="M35.1678 2.9700
L35.1678 4.4700
" />
<path d="M35.1678 11.1700
L35.1678 12.6700
" />
<path d="M40.1678 2.9700
L40.1678 4.4700
" />
<path d="M40.1678 11.1700
L40.1678 12.6700
" />
<path d="M45.1678 2.9700
L45.1678 4.4700
" />
<path d="M45.1678 11.1700
L45.1678 12.6700
" />
<path d="M50.1678 2.9700
L50.1678 4.4700
" />
<path d="M50.1678 11.1700
L50.1678 12.6700
" />
<path d="M55.1678 2.9700
L55.1678 4.4700
" />
<path d="M55.1678 11.1700
L55.1678 12.6700
" />
<path d="M60.1678 2.9700
L60.1678 4.4700
" />
<path d="M60.1678 11.1700
L60.1678 12.6700
" />
<path d="M65.1678 2.9700
L65.1678 4.4700
" />
<path d="M65.1678 11.1700
L65.1678 12.6700
" />
<path d="M70.1678 2.9700
L70.1678 4.4700
" />
<path d="M70.1678 11.1700
L70.1678 12.6700
" />
<path d="M75.1678 2.9700
L75.1678 4.4700
" />
<path d="M75.1678 11.1700
L75.1678 12.6700
" />
</g>
<g style="fill:#FFFFFF; fill-opacity:1.0000; stroke:none;">
<circle cx="30.1678" cy="3.7200" r="0.5500" /> 
</g>
<g style="fill:#FFFFFF; fill-opacity:1.0000; stroke:none;">
<circle cx="30.1678" cy="11.9200" r="0.5500" /> 
</g>
<g style="fill:#FFFFFF; fill-opacity:1.0000; stroke:none;">
<circle cx="35.1678" cy="3.7200" r="0.5500" /> 
</g>
<g style="fill:#FFFFFF; fill-opacity:1.0000; stroke:none;">
<circle cx="35.1678" cy="11.9200" r="0.5500" /> 
</g>
<g style="fill:#FFFFFF; fill-opacity:1.0000; stroke:none;">
<circle cx="40.1678" cy="3.7200" r="0.5500" /> 
</g>
<g style="fill:#FFFFFF; fill-opacity:1.0000; stroke:none;">
<circle cx="40.1678" cy="11.9200" r="0.5500" /> 
</g>
<g style="fill:#FFFFFF; fill-opacity:1.0000; stroke:none;">
<circle cx="45.1678" cy="3.7200" r="0.5500" /> 
</g>
<g style="fill:#FFFFFF; fill-opacity:1.0000; stroke:none;">
<circle cx="45.1678" cy="11.9200" r="0.5500" /> 
</g>
<g style="fill:#FFFFFF; fill-opacity:1.0000; stroke:none;">
<circle cx="50.1678" cy="3.7200" r="0.5500" /> 
</g>
<g style="fill:#FFFFFF; fill-opacity:1.0000; stroke:none;">
<circle cx="50.1678" cy="11.9200" r="0.5500" /> 
</g>
<g style="fill:#FFFFFF; fill-opacity:1.0000; stroke:none;">
<circle cx="55.1678" cy="3.7200" r="0.5500" /> 
</g>
<g style="fill:#FFFFFF; fill-opacity:1.0000; stroke:none;">
<circle cx="55.1678" cy="11.9200" r="0.5500" /> 
</g>
<g style="fill:#FFFFFF; fill-opacity:1.0000; stroke:none;">
<circle cx="60.1678" cy="3.7200" r="0.5500" /> 
</g>
<g style="fill:#FFFFFF; fill-opacity:1.0000; stroke:none;">
<circle cx="60.1678" cy="11.9200" r="0.5500" /> 
</g>
<g style="fill:#FFFFFF; fill-opacity:1.0000; stroke:none;">
<circle cx="65.1678" cy="3.7200" r="0.5500" /> 
</g>
<g style="fill:#FFFFFF; fill-opacity:1.0000; stroke:none;">
<circle cx="65.1678" cy="11.9200" r="0.5500" /> 
</g>
<g style="fill:#FFFFFF; fill-opacity:1.0000; stroke:none;">
<circle cx="70.1678" cy="3.7200" r="0.5500" /> 
</g>
<g style="fill:#FFFFFF; fill-opacity:1.0000; stroke:none;">
<circle cx="70.1678" cy="11.9200" r="0.5500" /> 
</g>
<g style="fill:#FFFFFF; fill-opacity:1.0000; stroke:none;">
<circle cx="75.1678" cy="3.7200" r="0.5500" /> 
</g>
<g style="fill:#FFFFFF; fill-opacity:1.0000; stroke:none;">
<circle cx="75.1678" cy="11.9200" r="0.5500" /> 
</g>
<g style="fill:#FFFFFF; fill-opacity:1.0000; stroke:none;">
<circle cx="30.1678" cy="3.7200" r="0.5500" /> 
</g>
<g style="fill:#FFFFFF; fill-opacity:1.0000; stroke:none;">
<circle cx="30.1678" cy="11.9200" r="0.5500" /> 
</g>
<g style="fill:#FFFFFF; fill-opacity:1.0000; stroke:none;">
<circle cx="35.1678" cy="3.7200" r="0.5500" /> 
</g>
<g style="fill:#FFFFFF; fill-opacity:1.0000; stroke:none;">
<circle cx="35.1678" cy="11.9200" r="0.5500" /> 
</g>
<g style="fill:#FFFFFF; fill-opacity:1.0000; stroke:none;">
<circle cx="40.1678" cy="3.7200" r="0.5500" /> 
</g>
<g style="fill:#FFFFFF; fill-opacity:1.0000; stroke:none;">
<circle cx="40.1678" cy="11.9200" r="0.5500" /> 
</g>
<g style="fill:#FFFFFF; fill-opacity:1.0000; stroke:none;">
<circle cx="45.1678" cy="3.7200" r="0.5500" /> 
</g>
<g style="fill:#FFFFFF; fill-opacity:1.0000; stroke:none;">
<circle cx="45.1678" cy="11.9200" r="0.5500" /> 
</g>
<g style="fill:#FFFFFF; fill-opacity:1.0000; stroke:none;">
<circle cx="50.1678" cy="3.7200" r="0.5500" /> 
</g>
<g style="fill:#FFFFFF; fill-opacity:1.0000; stroke:none;">
<circle cx="50.1678" cy="11.9200" r="0.5500" /> 
</g>
<g style="fill:#FFFFFF; fill-opacity:1.0000; stroke:none;">
<circle cx="55.1678" cy="3.7200" r="0.5500" /> 
</g>
<g style="fill:#FFFFFF; fill-opacity:1.0000; stroke:none;">
<circle cx="55.1678" cy="11.9200" r="0.5500" /> 
</g>
<g style="fill:#FFFFFF; fill-opacity:1.0000; stroke:none;">
<circle cx="60.1678" cy="3.7200" r="0.5500" /> 
</g>
<g style="fill:#FFFFFF; fill-opacity:1.0000; stroke:none;">
<circle cx="60.1678" cy="11.9200" r="0.5500" /> 
</g>
<g style="fill:#FFFFFF; fill-opacity:1.0000; stroke:none;">
<circle cx="65.1678" cy="3.7200" r="0.5500" /> 
</g>
<g style="fill:#FFFFFF; fill-opacity:1.0000; stroke:none;">
<circle cx="65.1678" cy="11.9200" r="0.5500" /> 
</g>
<g style="fill:#FFFFFF; fill-opacity:1.0000; stroke:none;">
<circle cx="70.1678" cy="3.7200" r="0.5500" /> 
</g>
<g style="fill:#FFFFFF; fill-opacity:1.0000; stroke:none;">
<circle cx="70.1678" cy="11.9200" r="0.5500" /> 
</g>
<g style="fill:#FFFFFF; fill-opacity:1.0000; stroke:none;">
<circle cx="75.1678" cy="3.7200" r="0.5500" /> 
</g>
<g style="fill:#FFFFFF; fill-opacity:1.0000; stroke:none;">
<circle cx="75.1678" cy="11.9200" r="0.5500" /> 
<path style="fill:#D864FF; fill-opacity:0.4000; stroke:none;fill-rule:evenodd;"
d="M 29.2678,2.3200
29.2868,2.2243
29.3410,2.1432
29.4221,2.0890
29.5178,2.0700
30.8178,2.0700
30.9135,2.0890
30.9946,2.1432
31.0488,2.2243
31.0678,2.3200
31.0678,5.1200
31.0488,5.2157
30.9946,5.2968
30.9135,5.3510
30.8178,5.3700
29.5178,5.3700
29.4221,5.3510
29.3410,5.2968
29.2868,5.2157
29.2678,5.1200
Z" /> 
<path style="fill:#D864FF; fill-opacity:0.4000; stroke:none;fill-rule:evenodd;"
d="M 29.2678,10.5200
29.2868,10.4243
29.3410,10.3432
29.4221,10.2890
29.5178,10.2700
30.8178,10.2700
30.9135,10.2890
30.9946,10.3432
31.0488,10.4243
31.0678,10.5200
31.0678,13.3200
31.0488,13.4157
30.9946,13.4968
30.9135,13.5510
30.8178,13.5700
29.5178,13.5700
29.4221,13.5510
29.3410,13.4968
29.2868,13.4157
29.2678,13.3200
Z" /> 
</g>
<g style="fill:none; 
stroke:#D864FF; stroke-width:1.8000; stroke-opacity:1; 
stroke-linecap:round; stroke-linejoin:round;">
<path d="M35.1678 2.9700
L35.1678 4.4700
" />
<path d="M35.1678 11.1700
L35.1678 12.6700
" />
<path d="M40.1678 2.9700
L40.1678 4.4700
" />
<path d="M40.1678 11.1700
L40.1678 12.6700
" />
<path d="M45.1678 2.9700
L45.1678 4.4700
" />
<path d="M45.1678 11.1700
L45.1678 12.6700
" />
<path d="M50.1678 2.9700
L50.1678 4.4700
" />
<path d="M50.1678 11.1700
L50.1678 12.6700
" />
<path d="M55.1678 2.9700
L55.1678 4.4700
" />
<path d="M55.1678 11.1700
L55.1678 12.6700
" />
<path d="M60.1678 2.9700
L60.1678 4.4700
" />
<path d="M60.1678 11.1700
L60.1678 12.6700
" />
<path d="M65.1678 2.9700
L65.1678 4.4700
" />
<path d="M65.1678 11.1700
L65.1678 12.6700
" />
<path d="M70.1678 2.9700
L70.1678 4.4700
" />
<path d="M70.1678 11.1700
L70.1678 12.6700
" />
<path d="M75.1678 2.9700
L75.1678 4.4700
" />
<path d="M75.1678 11.1700
L75.1678 12.6700
" />
</g>
<g style="fill:none; 
stroke:#F2EDA1; stroke-width:0.1588; stroke-opacity:1; 
stroke-linecap:round; stroke-linejoin:round;">
<text x="30.1678" y="4.3550"
textLength="5.6651" font-size="1.6933" lengthAdjust="spacingAndGlyphs"
text-anchor="middle" opacity="0">REF**</text>
<g class="stroked-text"><desc>REF**</desc>
<path d="M28.4745 4.2993
L28.0511 3.6945
" />
<path d="M27.7487 4.2993
L27.7487 3.0293
" />
<path d="M27.7487 3.0293
L28.2326 3.0293
" />
<path d="M28.2326 3.0293
L28.3535 3.0897
" />
<path d="M28.3535 3.0897
L28.4140 3.1502
" />
<path d="M28.4140 3.1502
L28.4745 3.2712
" />
<path d="M28.4745 3.2712
L28.4745 3.4526
" />
<path d="M28.4745 3.4526
L28.4140 3.5736
" />
<path d="M28.4140 3.5736
L28.3535 3.6340
" />
<path d="M28.3535 3.6340
L28.2326 3.6945
" />
<path d="M28.2326 3.6945
L27.7487 3.6945
" />
<path d="M29.0187 3.6340
L29.4421 3.6340
" />
<path d="M29.6235 4.2993
L29.0187 4.2993
" />
<path d="M29.0187 4.2993
L29.0187 3.0293
" />
<path d="M29.0187 3.0293
L29.6235 3.0293
" />
<path d="M30.5911 3.6340
L30.1678 3.6340
" />
<path d="M30.1678 4.2993
L30.1678 3.0293
" />
<path d="M30.1678 3.0293
L30.7726 3.0293
" />
<path d="M31.4378 3.0293
L31.4378 3.3317
" />
<path d="M31.1354 3.2107
L31.4378 3.3317
" />
<path d="M31.4378 3.3317
L31.7402 3.2107
" />
<path d="M31.2564 3.5736
L31.4378 3.3317
" />
<path d="M31.4378 3.3317
L31.6192 3.5736
" />
<path d="M32.4054 3.0293
L32.4054 3.3317
" />
<path d="M32.1030 3.2107
L32.4054 3.3317
" />
<path d="M32.4054 3.3317
L32.7078 3.2107
" />
<path d="M32.2240 3.5736
L32.4054 3.3317
" />
<path d="M32.4054 3.3317
L32.5868 3.5736
" />
</g></g>
<g style="fill:none; 
stroke:#F2EDA1; stroke-width:0.1200; stroke-opacity:1; 
stroke-linecap:round; stroke-linejoin:round;">
<path d="M27.7578 0.8600
L79.3778 0.8600
" />
<path d="M27.7578 14.5800
L27.7578 0.8600
" />
<path d="M28.6178 6.9200
L28.6178 8.4200
" />
<path d="M28.6178 8.4200
L32.1178 8.4200
" />
<path d="M29.8678 0.0600
L30.1678 0.6600
" />
<path d="M29.8678 0.0600
L30.4678 0.0600
" />
<path d="M30.4678 0.0600
L30.1678 0.6600
" />
<path d="M32.1178 6.9200
L28.6178 6.9200
" />
<path d="M32.1178 8.4200
L32.1178 6.9200
" />
<path d="M33.6178 6.9200
L33.6178 8.4200
" />
<path d="M33.6178 8.4200
L37.1178 8.4200
" />
<path d="M37.1178 6.9200
L33.6178 6.9200
" />
<path d="M37.1178 8.4200
L37.1178 6.9200
" />
<path d="M38.6178 6.9200
L38.6178 8.4200
" />
<path d="M38.6178 8.4200
L42.1178 8.4200
" />
<path d="M42.1178 6.9200
L38.6178 6.9200
" />
<path d="M42.1178 8.4200
L42.1178 6.9200
" />
<path d="M43.6178 6.9200
L43.6178 8.4200
" />
<path d="M43.6178 8.4200
L47.1178 8.4200
" />
<path d="M47.1178 6.9200
L43.6178 6.9200
" />
<path d="M47.1178 8.4200
L47.1178 6.9200
" />
<path d="M48.6178 6.9200
L48.6178 8.4200
" />
<path d="M48.6178 8.4200
L52.1178 8.4200
" />
<path d="M52.1178 6.9200
L48.6178 6.9200
" />
<path d="M52.1178 8.4200
L52.1178 6.9200
" />
<path d="M53.6178 6.9200
L53.6178 8.4200
" />
<path d="M53.6178 8.4200
L57.1178 8.4200
" />
<path d="M57.1178 6.9200
L53.6178 6.9200
" />
<path d="M57.1178 8.4200
L57.1178 6.9200
" />
<path d="M58.6178 6.9200
L58.6178 8.4200
" />
<path d="M58.6178 8.4200
L62.1178 8.4200
" />
<path d="M62.1178 6.9200
L58.6178 6.9200
" />
<path d="M62.1178 8.4200
L62.1178 6.9200
" />
<path d="M63.6178 6.9200
L63.6178 8.4200
" />
<path d="M63.6178 8.4200
L67.1178 8.4200
" />
<path d="M67.1178 6.9200
L63.6178 6.9200
" />
<path d="M67.1178 8.4200
L67.1178 6.9200
" />
<path d="M68.6178 6.9200
L68.6178 8.4200
" />
<path d="M68.6178 8.4200
L72.1178 8.4200
" />
<path d="M72.1178 6.9200
L68.6178 6.9200
" />
<path d="M72.1178 8.4200
L72.1178 6.9200
" />
<path d="M73.6178 6.9200
L73.6178 8.4200
" />
<path d="M73.6178 8.4200
L77.1178 8.4200
" />
<path d="M77.1178 6.9200
L73.6178 6.9200
" />
<path d="M77.1178 8.4200
L77.1178 6.9200
" />
<path d="M79.3778 0.8600
L79.3778 14.5800
" />
<path d="M79.3778 14.5800
L27.7578 14.5800
" />
<path d="M31.6052 9.6826 A1.7500 1.7500 0.0 0 0 29.1304 9.6826" />
<path d="M36.6052 9.6826 A1.7500 1.7500 0.0 0 0 34.1304 9.6826" />
<path d="M41.6052 9.6826 A1.7500 1.7500 0.0 0 0 39.1304 9.6826" />
<path d="M46.6052 9.6826 A1.7500 1.7500 0.0 0 0 44.1304 9.6826" />
<path d="M51.6052 9.6826 A1.7500 1.7500 0.0 0 0 49.1304 9.6826" />
<path d="M56.6052 9.6826 A1.7500 1.7500 0.0 0 0 54.1304 9.6826" />
<path d="M61.6052 9.6826 A1.7500 1.7500 0.0 0 0 59.1304 9.6826" />
<path d="M66.6052 9.6826 A1.7500 1.7500 0.0 0 0 64.1304 9.6826" />
<path d="M71.6052 9.6826 A1.7500 1.7500 0.0 0 0 69.1304 9.6826" />
<path d="M76.6052 9.6826 A1.7500 1.7500 0.0 0 0 74.1304 9.6826" />
</g>
<g style="fill:#FFFFFF; fill-opacity:1.0000; stroke:none;">
<circle cx="30.1678" cy="3.7200" r="0.5500" /> 
</g>
<g style="fill:#FFFFFF; fill-opacity:1.0000; stroke:none;">
<circle cx="30.1678" cy="11.9200" r="0.5500" /> 
</g>
<g style="fill:#FFFFFF; fill-opacity:1.0000; stroke:none;">
<circle cx="35.1678" cy="3.7200" r="0.5500" /> 
</g>
<g style="fill:#FFFFFF; fill-opacity:1.0000; stroke:none;">
<circle cx="35.1678" cy="11.9200" r="0.5500" /> 
</g>
<g style="fill:#FFFFFF; fill-opacity:1.0000; stroke:none;">
<circle cx="40.1678" cy="3.7200" r="0.5500" /> 
</g>
<g style="fill:#FFFFFF; fill-opacity:1.0000; stroke:none;">
<circle cx="40.1678" cy="11.9200" r="0.5500" /> 
</g>
<g style="fill:#FFFFFF; fill-opacity:1.0000; stroke:none;">
<circle cx="45.1678" cy="3.7200" r="0.5500" /> 
</g>
<g style="fill:#FFFFFF; fill-opacity:1.0000; stroke:none;">
<circle cx="45.1678" cy="11.9200" r="0.5500" /> 
</g>
<g style="fill:#FFFFFF; fill-opacity:1.0000; stroke:none;">
<circle cx="50.1678" cy="3.7200" r="0.5500" /> 
</g>
<g style="fill:#FFFFFF; fill-opacity:1.0000; stroke:none;">
<circle cx="50.1678" cy="11.9200" r="0.5500" /> 
</g>
<g style="fill:#FFFFFF; fill-opacity:1.0000; stroke:none;">
<circle cx="55.1678" cy="3.7200" r="0.5500" /> 
</g>
<g style="fill:#FFFFFF; fill-opacity:1.0000; stroke:none;">
<circle cx="55.1678" cy="11.9200" r="0.5500" /> 
</g>
<g style="fill:#FFFFFF; fill-opacity:1.0000; stroke:none;">
<circle cx="60.1678" cy="3.7200" r="0.5500" /> 
</g>
<g style="fill:#FFFFFF; fill-opacity:1.0000; stroke:none;">
<circle cx="60.1678" cy="11.9200" r="0.5500" /> 
</g>
<g style="fill:#FFFFFF; fill-opacity:1.0000; stroke:none;">
<circle cx="65.1678" cy="3.7200" r="0.5500" /> 
</g>
<g style="fill:#FFFFFF; fill-opacity:1.0000; stroke:none;">
<circle cx="65.1678" cy="11.9200" r="0.5500" /> 
</g>
<g style="fill:#FFFFFF; fill-opacity:1.0000; stroke:none;">
<circle cx="70.1678" cy="3.7200" r="0.5500" /> 
</g>
<g style="fill:#FFFFFF; fill-opacity:1.0000; stroke:none;">
<circle cx="70.1678" cy="11.9200" r="0.5500" /> 
</g>
<g style="fill:#FFFFFF; fill-opacity:1.0000; stroke:none;">
<circle cx="75.1678" cy="3.7200" r="0.5500" /> 
</g>
<g style="fill:#FFFFFF; fill-opacity:1.0000; stroke:none;">
<circle cx="75.1678" cy="11.9200" r="0.5500" /> 
</g>
<g style="fill:none; 
stroke:#FF26E2; stroke-width:0.0500; stroke-opacity:1; 
stroke-linecap:round; stroke-linejoin:round;">
<path d="M27.3678 0.4700
L27.3678 14.9700
" />
<path d="M27.3678 14.9700
L79.7678 14.9700
" />
<path d="M79.7678 0.4700
L27.3678 0.4700
" />
<path d="M79.7678 14.9700
L79.7678 0.4700
" />
</g>
<g style="fill:none; 
stroke:#AFAFAF; stroke-width:0.1588; stroke-opacity:1; 
stroke-linecap:round; stroke-linejoin:round;">
<text x="30.1678" y="4.3550"
textLength="60.3356" font-size="1.6933" lengthAdjust="spacingAndGlyphs"
text-anchor="middle" opacity="0">PhoenixContact_SPT_2.5_10-V-5.0-EX_1x10_P5.0mm_Vertical</text>
<g class="stroked-text"><desc>PhoenixContact_SPT_2.5_10-V-5.0-EX_1x10_P5.0mm_Vertical</desc>
<path d="M0.4135 4.2993
L0.4135 3.0293
" />
<path d="M0.4135 3.0293
L0.8973 3.0293
" />
<path d="M0.8973 3.0293
L1.0183 3.0897
" />
<path d="M1.0183 3.0897
L1.0787 3.1502
" />
<path d="M1.0787 3.1502
L1.1392 3.2712
" />
<path d="M1.1392 3.2712
L1.1392 3.4526
" />
<path d="M1.1392 3.4526
L1.0787 3.5736
" />
<path d="M1.0787 3.5736
L1.0183 3.6340
" />
<path d="M1.0183 3.6340
L0.8973 3.6945
" />
<path d="M0.8973 3.6945
L0.4135 3.6945
" />
<path d="M1.6835 4.2993
L1.6835 3.0293
" />
<path d="M2.2278 4.2993
L2.2278 3.6340
" />
<path d="M2.2278 3.6340
L2.1673 3.5131
" />
<path d="M2.1673 3.5131
L2.0464 3.4526
" />
<path d="M2.0464 3.4526
L1.8649 3.4526
" />
<path d="M1.8649 3.4526
L1.7440 3.5131
" />
<path d="M1.7440 3.5131
L1.6835 3.5736
" />
<path d="M3.0140 4.2993
L2.8930 4.2388
" />
<path d="M2.8930 4.2388
L2.8326 4.1783
" />
<path d="M2.8326 4.1783
L2.7721 4.0574
" />
<path d="M2.7721 4.0574
L2.7721 3.6945
" />
<path d="M2.7721 3.6945
L2.8326 3.5736
" />
<path d="M2.8326 3.5736
L2.8930 3.5131
" />
<path d="M2.8930 3.5131
L3.0140 3.4526
" />
<path d="M3.0140 3.4526
L3.1954 3.4526
" />
<path d="M3.1954 3.4526
L3.3164 3.5131
" />
<path d="M3.3164 3.5131
L3.3768 3.5736
" />
<path d="M3.3768 3.5736
L3.4373 3.6945
" />
<path d="M3.4373 3.6945
L3.4373 4.0574
" />
<path d="M3.4373 4.0574
L3.3768 4.1783
" />
<path d="M3.3768 4.1783
L3.3164 4.2388
" />
<path d="M3.3164 4.2388
L3.1954 4.2993
" />
<path d="M3.1954 4.2993
L3.0140 4.2993
" />
<path d="M4.4654 4.2388
L4.3445 4.2993
" />
<path d="M4.3445 4.2993
L4.1026 4.2993
" />
<path d="M4.1026 4.2993
L3.9816 4.2388
" />
<path d="M3.9816 4.2388
L3.9211 4.1178
" />
<path d="M3.9211 4.1178
L3.9211 3.6340
" />
<path d="M3.9211 3.6340
L3.9816 3.5131
" />
<path d="M3.9816 3.5131
L4.1026 3.4526
" />
<path d="M4.1026 3.4526
L4.3445 3.4526
" />
<path d="M4.3445 3.4526
L4.4654 3.5131
" />
<path d="M4.4654 3.5131
L4.5259 3.6340
" />
<path d="M4.5259 3.6340
L4.5259 3.7550
" />
<path d="M4.5259 3.7550
L3.9211 3.8759
" />
<path d="M5.0702 3.4526
L5.0702 4.2993
" />
<path d="M5.0702 3.5736
L5.1307 3.5131
" />
<path d="M5.1307 3.5131
L5.2516 3.4526
" />
<path d="M5.2516 3.4526
L5.4330 3.4526
" />
<path d="M5.4330 3.4526
L5.5540 3.5131
" />
<path d="M5.5540 3.5131
L5.6145 3.6340
" />
<path d="M5.6145 3.6340
L5.6145 4.2993
" />
<path d="M6.2192 4.2993
L6.2192 3.4526
" />
<path d="M6.2192 3.0293
L6.1587 3.0897
" />
<path d="M6.1587 3.0897
L6.2192 3.1502
" />
<path d="M6.2192 3.1502
L6.2797 3.0897
" />
<path d="M6.2797 3.0897
L6.2192 3.0293
" />
<path d="M6.2192 3.0293
L6.2192 3.1502
" />
<path d="M6.7030 4.2993
L7.3683 3.4526
" />
<path d="M6.7030 3.4526
L7.3683 4.2993
" />
<path d="M8.5778 4.1783
L8.5173 4.2388
" />
<path d="M8.5173 4.2388
L8.3359 4.2993
" />
<path d="M8.3359 4.2993
L8.2149 4.2993
" />
<path d="M8.2149 4.2993
L8.0335 4.2388
" />
<path d="M8.0335 4.2388
L7.9126 4.1178
" />
<path d="M7.9126 4.1178
L7.8521 3.9969
" />
<path d="M7.8521 3.9969
L7.7916 3.7550
" />
<path d="M7.7916 3.7550
L7.7916 3.5736
" />
<path d="M7.7916 3.5736
L7.8521 3.3317
" />
<path d="M7.8521 3.3317
L7.9126 3.2107
" />
<path d="M7.9126 3.2107
L8.0335 3.0897
" />
<path d="M8.0335 3.0897
L8.2149 3.0293
" />
<path d="M8.2149 3.0293
L8.3359 3.0293
" />
<path d="M8.3359 3.0293
L8.5173 3.0897
" />
<path d="M8.5173 3.0897
L8.5778 3.1502
" />
<path d="M9.3035 4.2993
L9.1826 4.2388
" />
<path d="M9.1826 4.2388
L9.1221 4.1783
" />
<path d="M9.1221 4.1783
L9.0616 4.0574
" />
<path d="M9.0616 4.0574
L9.0616 3.6945
" />
<path d="M9.0616 3.6945
L9.1221 3.5736
" />
<path d="M9.1221 3.5736
L9.1826 3.5131
" />
<path d="M9.1826 3.5131
L9.3035 3.4526
" />
<path d="M9.3035 3.4526
L9.4849 3.4526
" />
<path d="M9.4849 3.4526
L9.6059 3.5131
" />
<path d="M9.6059 3.5131
L9.6664 3.5736
" />
<path d="M9.6664 3.5736
L9.7268 3.6945
" />
<path d="M9.7268 3.6945
L9.7268 4.0574
" />
<path d="M9.7268 4.0574
L9.6664 4.1783
" />
<path d="M9.6664 4.1783
L9.6059 4.2388
" />
<path d="M9.6059 4.2388
L9.4849 4.2993
" />
<path d="M9.4849 4.2993
L9.3035 4.2993
" />
<path d="M10.2711 3.4526
L10.2711 4.2993
" />
<path d="M10.2711 3.5736
L10.3316 3.5131
" />
<path d="M10.3316 3.5131
L10.4526 3.4526
" />
<path d="M10.4526 3.4526
L10.6340 3.4526
" />
<path d="M10.6340 3.4526
L10.7549 3.5131
" />
<path d="M10.7549 3.5131
L10.8154 3.6340
" />
<path d="M10.8154 3.6340
L10.8154 4.2993
" />
<path d="M11.2387 3.4526
L11.7226 3.4526
" />
<path d="M11.4202 3.0293
L11.4202 4.1178
" />
<path d="M11.4202 4.1178
L11.4807 4.2388
" />
<path d="M11.4807 4.2388
L11.6016 4.2993
" />
<path d="M11.6016 4.2993
L11.7226 4.2993
" />
<path d="M12.6902 4.2993
L12.6902 3.6340
" />
<path d="M12.6902 3.6340
L12.6297 3.5131
" />
<path d="M12.6297 3.5131
L12.5087 3.4526
" />
<path d="M12.5087 3.4526
L12.2668 3.4526
" />
<path d="M12.2668 3.4526
L12.1459 3.5131
" />
<path d="M12.6902 4.2388
L12.5692 4.2993
" />
<path d="M12.5692 4.2993
L12.2668 4.2993
" />
<path d="M12.2668 4.2993
L12.1459 4.2388
" />
<path d="M12.1459 4.2388
L12.0854 4.1178
" />
<path d="M12.0854 4.1178
L12.0854 3.9969
" />
<path d="M12.0854 3.9969
L12.1459 3.8759
" />
<path d="M12.1459 3.8759
L12.2668 3.8155
" />
<path d="M12.2668 3.8155
L12.5692 3.8155
" />
<path d="M12.5692 3.8155
L12.6902 3.7550
" />
<path d="M13.8392 4.2388
L13.7183 4.2993
" />
<path d="M13.7183 4.2993
L13.4764 4.2993
" />
<path d="M13.4764 4.2993
L13.3554 4.2388
" />
<path d="M13.3554 4.2388
L13.2949 4.1783
" />
<path d="M13.2949 4.1783
L13.2345 4.0574
" />
<path d="M13.2345 4.0574
L13.2345 3.6945
" />
<path d="M13.2345 3.6945
L13.2949 3.5736
" />
<path d="M13.2949 3.5736
L13.3554 3.5131
" />
<path d="M13.3554 3.5131
L13.4764 3.4526
" />
<path d="M13.4764 3.4526
L13.7183 3.4526
" />
<path d="M13.7183 3.4526
L13.8392 3.5131
" />
<path d="M14.2021 3.4526
L14.6859 3.4526
" />
<path d="M14.3835 3.0293
L14.3835 4.1178
" />
<path d="M14.3835 4.1178
L14.4440 4.2388
" />
<path d="M14.4440 4.2388
L14.5649 4.2993
" />
<path d="M14.5649 4.2993
L14.6859 4.2993
" />
<path d="M14.8068 4.4202
L15.7745 4.4202
" />
<path d="M16.0164 4.2388
L16.1978 4.2993
" />
<path d="M16.1978 4.2993
L16.5002 4.2993
" />
<path d="M16.5002 4.2993
L16.6211 4.2388
" />
<path d="M16.6211 4.2388
L16.6816 4.1783
" />
<path d="M16.6816 4.1783
L16.7421 4.0574
" />
<path d="M16.7421 4.0574
L16.7421 3.9364
" />
<path d="M16.7421 3.9364
L16.6816 3.8155
" />
<path d="M16.6816 3.8155
L16.6211 3.7550
" />
<path d="M16.6211 3.7550
L16.5002 3.6945
" />
<path d="M16.5002 3.6945
L16.2583 3.6340
" />
<path d="M16.2583 3.6340
L16.1373 3.5736
" />
<path d="M16.1373 3.5736
L16.0768 3.5131
" />
<path d="M16.0768 3.5131
L16.0164 3.3921
" />
<path d="M16.0164 3.3921
L16.0164 3.2712
" />
<path d="M16.0164 3.2712
L16.0768 3.1502
" />
<path d="M16.0768 3.1502
L16.1373 3.0897
" />
<path d="M16.1373 3.0897
L16.2583 3.0293
" />
<path d="M16.2583 3.0293
L16.5606 3.0293
" />
<path d="M16.5606 3.0293
L16.7421 3.0897
" />
<path d="M17.2864 4.2993
L17.2864 3.0293
" />
<path d="M17.2864 3.0293
L17.7702 3.0293
" />
<path d="M17.7702 3.0293
L17.8911 3.0897
" />
<path d="M17.8911 3.0897
L17.9516 3.1502
" />
<path d="M17.9516 3.1502
L18.0121 3.2712
" />
<path d="M18.0121 3.2712
L18.0121 3.4526
" />
<path d="M18.0121 3.4526
L17.9516 3.5736
" />
<path d="M17.9516 3.5736
L17.8911 3.6340
" />
<path d="M17.8911 3.6340
L17.7702 3.6945
" />
<path d="M17.7702 3.6945
L17.2864 3.6945
" />
<path d="M18.3749 3.0293
L19.1006 3.0293
" />
<path d="M18.7378 4.2993
L18.7378 3.0293
" />
<path d="M19.2216 4.4202
L20.1892 4.4202
" />
<path d="M20.4311 3.1502
L20.4916 3.0897
" />
<path d="M20.4916 3.0897
L20.6126 3.0293
" />
<path d="M20.6126 3.0293
L20.9149 3.0293
" />
<path d="M20.9149 3.0293
L21.0359 3.0897
" />
<path d="M21.0359 3.0897
L21.0964 3.1502
" />
<path d="M21.0964 3.1502
L21.1568 3.2712
" />
<path d="M21.1568 3.2712
L21.1568 3.3921
" />
<path d="M21.1568 3.3921
L21.0964 3.5736
" />
<path d="M21.0964 3.5736
L20.3706 4.2993
" />
<path d="M20.3706 4.2993
L21.1568 4.2993
" />
<path d="M21.7011 4.1783
L21.7616 4.2388
" />
<path d="M21.7616 4.2388
L21.7011 4.2993
" />
<path d="M21.7011 4.2993
L21.6406 4.2388
" />
<path d="M21.6406 4.2388
L21.7011 4.1783
" />
<path d="M21.7011 4.1783
L21.7011 4.2993
" />
<path d="M22.9107 3.0293
L22.3059 3.0293
" />
<path d="M22.3059 3.0293
L22.2454 3.6340
" />
<path d="M22.2454 3.6340
L22.3059 3.5736
" />
<path d="M22.3059 3.5736
L22.4268 3.5131
" />
<path d="M22.4268 3.5131
L22.7292 3.5131
" />
<path d="M22.7292 3.5131
L22.8502 3.5736
" />
<path d="M22.8502 3.5736
L22.9107 3.6340
" />
<path d="M22.9107 3.6340
L22.9711 3.7550
" />
<path d="M22.9711 3.7550
L22.9711 4.0574
" />
<path d="M22.9711 4.0574
L22.9107 4.1783
" />
<path d="M22.9107 4.1783
L22.8502 4.2388
" />
<path d="M22.8502 4.2388
L22.7292 4.2993
" />
<path d="M22.7292 4.2993
L22.4268 4.2993
" />
<path d="M22.4268 4.2993
L22.3059 4.2388
" />
<path d="M22.3059 4.2388
L22.2454 4.1783
" />
<path d="M23.2130 4.4202
L24.1807 4.4202
" />
<path d="M25.1483 4.2993
L24.4226 4.2993
" />
<path d="M24.7854 4.2993
L24.7854 3.0293
" />
<path d="M24.7854 3.0293
L24.6645 3.2107
" />
<path d="M24.6645 3.2107
L24.5435 3.3317
" />
<path d="M24.5435 3.3317
L24.4226 3.3921
" />
<path d="M25.9345 3.0293
L26.0554 3.0293
" />
<path d="M26.0554 3.0293
L26.1764 3.0897
" />
<path d="M26.1764 3.0897
L26.2368 3.1502
" />
<path d="M26.2368 3.1502
L26.2973 3.2712
" />
<path d="M26.2973 3.2712
L26.3578 3.5131
" />
<path d="M26.3578 3.5131
L26.3578 3.8155
" />
<path d="M26.3578 3.8155
L26.2973 4.0574
" />
<path d="M26.2973 4.0574
L26.2368 4.1783
" />
<path d="M26.2368 4.1783
L26.1764 4.2388
" />
<path d="M26.1764 4.2388
L26.0554 4.2993
" />
<path d="M26.0554 4.2993
L25.9345 4.2993
" />
<path d="M25.9345 4.2993
L25.8135 4.2388
" />
<path d="M25.8135 4.2388
L25.7530 4.1783
" />
<path d="M25.7530 4.1783
L25.6926 4.0574
" />
<path d="M25.6926 4.0574
L25.6321 3.8155
" />
<path d="M25.6321 3.8155
L25.6321 3.5131
" />
<path d="M25.6321 3.5131
L25.6926 3.2712
" />
<path d="M25.6926 3.2712
L25.7530 3.1502
" />
<path d="M25.7530 3.1502
L25.8135 3.0897
" />
<path d="M25.8135 3.0897
L25.9345 3.0293
" />
<path d="M26.9021 3.8155
L27.8697 3.8155
" />
<path d="M28.2930 3.0293
L28.7164 4.2993
" />
<path d="M28.7164 4.2993
L29.1397 3.0293
" />
<path d="M29.5630 3.8155
L30.5306 3.8155
" />
<path d="M31.7402 3.0293
L31.1354 3.0293
" />
<path d="M31.1354 3.0293
L31.0749 3.6340
" />
<path d="M31.0749 3.6340
L31.1354 3.5736
" />
<path d="M31.1354 3.5736
L31.2564 3.5131
" />
<path d="M31.2564 3.5131
L31.5587 3.5131
" />
<path d="M31.5587 3.5131
L31.6797 3.5736
" />
<path d="M31.6797 3.5736
L31.7402 3.6340
" />
<path d="M31.7402 3.6340
L31.8006 3.7550
" />
<path d="M31.8006 3.7550
L31.8006 4.0574
" />
<path d="M31.8006 4.0574
L31.7402 4.1783
" />
<path d="M31.7402 4.1783
L31.6797 4.2388
" />
<path d="M31.6797 4.2388
L31.5587 4.2993
" />
<path d="M31.5587 4.2993
L31.2564 4.2993
" />
<path d="M31.2564 4.2993
L31.1354 4.2388
" />
<path d="M31.1354 4.2388
L31.0749 4.1783
" />
<path d="M32.3449 4.1783
L32.4054 4.2388
" />
<path d="M32.4054 4.2388
L32.3449 4.2993
" />
<path d="M32.3449 4.2993
L32.2845 4.2388
" />
<path d="M32.2845 4.2388
L32.3449 4.1783
" />
<path d="M32.3449 4.1783
L32.3449 4.2993
" />
<path d="M33.1916 3.0293
L33.3126 3.0293
" />
<path d="M33.3126 3.0293
L33.4335 3.0897
" />
<path d="M33.4335 3.0897
L33.4940 3.1502
" />
<path d="M33.4940 3.1502
L33.5545 3.2712
" />
<path d="M33.5545 3.2712
L33.6149 3.5131
" />
<path d="M33.6149 3.5131
L33.6149 3.8155
" />
<path d="M33.6149 3.8155
L33.5545 4.0574
" />
<path d="M33.5545 4.0574
L33.4940 4.1783
" />
<path d="M33.4940 4.1783
L33.4335 4.2388
" />
<path d="M33.4335 4.2388
L33.3126 4.2993
" />
<path d="M33.3126 4.2993
L33.1916 4.2993
" />
<path d="M33.1916 4.2993
L33.0707 4.2388
" />
<path d="M33.0707 4.2388
L33.0102 4.1783
" />
<path d="M33.0102 4.1783
L32.9497 4.0574
" />
<path d="M32.9497 4.0574
L32.8892 3.8155
" />
<path d="M32.8892 3.8155
L32.8892 3.5131
" />
<path d="M32.8892 3.5131
L32.9497 3.2712
" />
<path d="M32.9497 3.2712
L33.0102 3.1502
" />
<path d="M33.0102 3.1502
L33.0707 3.0897
" />
<path d="M33.0707 3.0897
L33.1916 3.0293
" />
<path d="M34.1592 3.8155
L35.1268 3.8155
" />
<path d="M35.7316 3.6340
L36.1549 3.6340
" />
<path d="M36.3364 4.2993
L35.7316 4.2993
" />
<path d="M35.7316 4.2993
L35.7316 3.0293
" />
<path d="M35.7316 3.0293
L36.3364 3.0293
" />
<path d="M36.7597 3.0293
L37.6064 4.2993
" />
<path d="M37.6064 3.0293
L36.7597 4.2993
" />
<path d="M37.7878 4.4202
L38.7554 4.4202
" />
<path d="M39.7230 4.2993
L38.9973 4.2993
" />
<path d="M39.3602 4.2993
L39.3602 3.0293
" />
<path d="M39.3602 3.0293
L39.2392 3.2107
" />
<path d="M39.2392 3.2107
L39.1183 3.3317
" />
<path d="M39.1183 3.3317
L38.9973 3.3921
" />
<path d="M40.1464 4.2993
L40.8116 3.4526
" />
<path d="M40.1464 3.4526
L40.8116 4.2993
" />
<path d="M41.9607 4.2993
L41.2349 4.2993
" />
<path d="M41.5978 4.2993
L41.5978 3.0293
" />
<path d="M41.5978 3.0293
L41.4768 3.2107
" />
<path d="M41.4768 3.2107
L41.3559 3.3317
" />
<path d="M41.3559 3.3317
L41.2349 3.3921
" />
<path d="M42.7468 3.0293
L42.8678 3.0293
" />
<path d="M42.8678 3.0293
L42.9887 3.0897
" />
<path d="M42.9887 3.0897
L43.0492 3.1502
" />
<path d="M43.0492 3.1502
L43.1097 3.2712
" />
<path d="M43.1097 3.2712
L43.1702 3.5131
" />
<path d="M43.1702 3.5131
L43.1702 3.8155
" />
<path d="M43.1702 3.8155
L43.1097 4.0574
" />
<path d="M43.1097 4.0574
L43.0492 4.1783
" />
<path d="M43.0492 4.1783
L42.9887 4.2388
" />
<path d="M42.9887 4.2388
L42.8678 4.2993
" />
<path d="M42.8678 4.2993
L42.7468 4.2993
" />
<path d="M42.7468 4.2993
L42.6259 4.2388
" />
<path d="M42.6259 4.2388
L42.5654 4.1783
" />
<path d="M42.5654 4.1783
L42.5049 4.0574
" />
<path d="M42.5049 4.0574
L42.4445 3.8155
" />
<path d="M42.4445 3.8155
L42.4445 3.5131
" />
<path d="M42.4445 3.5131
L42.5049 3.2712
" />
<path d="M42.5049 3.2712
L42.5654 3.1502
" />
<path d="M42.5654 3.1502
L42.6259 3.0897
" />
<path d="M42.6259 3.0897
L42.7468 3.0293
" />
<path d="M43.4121 4.4202
L44.3797 4.4202
" />
<path d="M44.6821 4.2993
L44.6821 3.0293
" />
<path d="M44.6821 3.0293
L45.1659 3.0293
" />
<path d="M45.1659 3.0293
L45.2868 3.0897
" />
<path d="M45.2868 3.0897
L45.3473 3.1502
" />
<path d="M45.3473 3.1502
L45.4078 3.2712
" />
<path d="M45.4078 3.2712
L45.4078 3.4526
" />
<path d="M45.4078 3.4526
L45.3473 3.5736
" />
<path d="M45.3473 3.5736
L45.2868 3.6340
" />
<path d="M45.2868 3.6340
L45.1659 3.6945
" />
<path d="M45.1659 3.6945
L44.6821 3.6945
" />
<path d="M46.5568 3.0293
L45.9521 3.0293
" />
<path d="M45.9521 3.0293
L45.8916 3.6340
" />
<path d="M45.8916 3.6340
L45.9521 3.5736
" />
<path d="M45.9521 3.5736
L46.0730 3.5131
" />
<path d="M46.0730 3.5131
L46.3754 3.5131
" />
<path d="M46.3754 3.5131
L46.4964 3.5736
" />
<path d="M46.4964 3.5736
L46.5568 3.6340
" />
<path d="M46.5568 3.6340
L46.6173 3.7550
" />
<path d="M46.6173 3.7550
L46.6173 4.0574
" />
<path d="M46.6173 4.0574
L46.5568 4.1783
" />
<path d="M46.5568 4.1783
L46.4964 4.2388
" />
<path d="M46.4964 4.2388
L46.3754 4.2993
" />
<path d="M46.3754 4.2993
L46.0730 4.2993
" />
<path d="M46.0730 4.2993
L45.9521 4.2388
" />
<path d="M45.9521 4.2388
L45.8916 4.1783
" />
<path d="M47.1616 4.1783
L47.2221 4.2388
" />
<path d="M47.2221 4.2388
L47.1616 4.2993
" />
<path d="M47.1616 4.2993
L47.1011 4.2388
" />
<path d="M47.1011 4.2388
L47.1616 4.1783
" />
<path d="M47.1616 4.1783
L47.1616 4.2993
" />
<path d="M48.0083 3.0293
L48.1292 3.0293
" />
<path d="M48.1292 3.0293
L48.2502 3.0897
" />
<path d="M48.2502 3.0897
L48.3107 3.1502
" />
<path d="M48.3107 3.1502
L48.3711 3.2712
" />
<path d="M48.3711 3.2712
L48.4316 3.5131
" />
<path d="M48.4316 3.5131
L48.4316 3.8155
" />
<path d="M48.4316 3.8155
L48.3711 4.0574
" />
<path d="M48.3711 4.0574
L48.3107 4.1783
" />
<path d="M48.3107 4.1783
L48.2502 4.2388
" />
<path d="M48.2502 4.2388
L48.1292 4.2993
" />
<path d="M48.1292 4.2993
L48.0083 4.2993
" />
<path d="M48.0083 4.2993
L47.8873 4.2388
" />
<path d="M47.8873 4.2388
L47.8268 4.1783
" />
<path d="M47.8268 4.1783
L47.7664 4.0574
" />
<path d="M47.7664 4.0574
L47.7059 3.8155
" />
<path d="M47.7059 3.8155
L47.7059 3.5131
" />
<path d="M47.7059 3.5131
L47.7664 3.2712
" />
<path d="M47.7664 3.2712
L47.8268 3.1502
" />
<path d="M47.8268 3.1502
L47.8873 3.0897
" />
<path d="M47.8873 3.0897
L48.0083 3.0293
" />
<path d="M48.9759 4.2993
L48.9759 3.4526
" />
<path d="M48.9759 3.5736
L49.0364 3.5131
" />
<path d="M49.0364 3.5131
L49.1573 3.4526
" />
<path d="M49.1573 3.4526
L49.3387 3.4526
" />
<path d="M49.3387 3.4526
L49.4597 3.5131
" />
<path d="M49.4597 3.5131
L49.5202 3.6340
" />
<path d="M49.5202 3.6340
L49.5202 4.2993
" />
<path d="M49.5202 3.6340
L49.5807 3.5131
" />
<path d="M49.5807 3.5131
L49.7016 3.4526
" />
<path d="M49.7016 3.4526
L49.8830 3.4526
" />
<path d="M49.8830 3.4526
L50.0040 3.5131
" />
<path d="M50.0040 3.5131
L50.0645 3.6340
" />
<path d="M50.0645 3.6340
L50.0645 4.2993
" />
<path d="M50.6692 4.2993
L50.6692 3.4526
" />
<path d="M50.6692 3.5736
L50.7297 3.5131
" />
<path d="M50.7297 3.5131
L50.8507 3.4526
" />
<path d="M50.8507 3.4526
L51.0321 3.4526
" />
<path d="M51.0321 3.4526
L51.1530 3.5131
" />
<path d="M51.1530 3.5131
L51.2135 3.6340
" />
<path d="M51.2135 3.6340
L51.2135 4.2993
" />
<path d="M51.2135 3.6340
L51.2740 3.5131
" />
<path d="M51.2740 3.5131
L51.3949 3.4526
" />
<path d="M51.3949 3.4526
L51.5764 3.4526
" />
<path d="M51.5764 3.4526
L51.6973 3.5131
" />
<path d="M51.6973 3.5131
L51.7578 3.6340
" />
<path d="M51.7578 3.6340
L51.7578 4.2993
" />
<path d="M52.0602 4.4202
L53.0278 4.4202
" />
<path d="M53.1487 3.0293
L53.5721 4.2993
" />
<path d="M53.5721 4.2993
L53.9954 3.0293
" />
<path d="M54.9026 4.2388
L54.7816 4.2993
" />
<path d="M54.7816 4.2993
L54.5397 4.2993
" />
<path d="M54.5397 4.2993
L54.4187 4.2388
" />
<path d="M54.4187 4.2388
L54.3583 4.1178
" />
<path d="M54.3583 4.1178
L54.3583 3.6340
" />
<path d="M54.3583 3.6340
L54.4187 3.5131
" />
<path d="M54.4187 3.5131
L54.5397 3.4526
" />
<path d="M54.5397 3.4526
L54.7816 3.4526
" />
<path d="M54.7816 3.4526
L54.9026 3.5131
" />
<path d="M54.9026 3.5131
L54.9630 3.6340
" />
<path d="M54.9630 3.6340
L54.9630 3.7550
" />
<path d="M54.9630 3.7550
L54.3583 3.8759
" />
<path d="M55.5073 4.2993
L55.5073 3.4526
" />
<path d="M55.5073 3.6945
L55.5678 3.5736
" />
<path d="M55.5678 3.5736
L55.6283 3.5131
" />
<path d="M55.6283 3.5131
L55.7492 3.4526
" />
<path d="M55.7492 3.4526
L55.8702 3.4526
" />
<path d="M56.1121 3.4526
L56.5959 3.4526
" />
<path d="M56.2935 3.0293
L56.2935 4.1178
" />
<path d="M56.2935 4.1178
L56.3540 4.2388
" />
<path d="M56.3540 4.2388
L56.4749 4.2993
" />
<path d="M56.4749 4.2993
L56.5959 4.2993
" />
<path d="M57.0192 4.2993
L57.0192 3.4526
" />
<path d="M57.0192 3.0293
L56.9587 3.0897
" />
<path d="M56.9587 3.0897
L57.0192 3.1502
" />
<path d="M57.0192 3.1502
L57.0797 3.0897
" />
<path d="M57.0797 3.0897
L57.0192 3.0293
" />
<path d="M57.0192 3.0293
L57.0192 3.1502
" />
<path d="M58.1683 4.2388
L58.0473 4.2993
" />
<path d="M58.0473 4.2993
L57.8054 4.2993
" />
<path d="M57.8054 4.2993
L57.6845 4.2388
" />
<path d="M57.6845 4.2388
L57.6240 4.1783
" />
<path d="M57.6240 4.1783
L57.5635 4.0574
" />
<path d="M57.5635 4.0574
L57.5635 3.6945
" />
<path d="M57.5635 3.6945
L57.6240 3.5736
" />
<path d="M57.6240 3.5736
L57.6845 3.5131
" />
<path d="M57.6845 3.5131
L57.8054 3.4526
" />
<path d="M57.8054 3.4526
L58.0473 3.4526
" />
<path d="M58.0473 3.4526
L58.1683 3.5131
" />
<path d="M59.2568 4.2993
L59.2568 3.6340
" />
<path d="M59.2568 3.6340
L59.1964 3.5131
" />
<path d="M59.1964 3.5131
L59.0754 3.4526
" />
<path d="M59.0754 3.4526
L58.8335 3.4526
" />
<path d="M58.8335 3.4526
L58.7126 3.5131
" />
<path d="M59.2568 4.2388
L59.1359 4.2993
" />
<path d="M59.1359 4.2993
L58.8335 4.2993
" />
<path d="M58.8335 4.2993
L58.7126 4.2388
" />
<path d="M58.7126 4.2388
L58.6521 4.1178
" />
<path d="M58.6521 4.1178
L58.6521 3.9969
" />
<path d="M58.6521 3.9969
L58.7126 3.8759
" />
<path d="M58.7126 3.8759
L58.8335 3.8155
" />
<path d="M58.8335 3.8155
L59.1359 3.8155
" />
<path d="M59.1359 3.8155
L59.2568 3.7550
" />
<path d="M60.0430 4.2993
L59.9221 4.2388
" />
<path d="M59.9221 4.2388
L59.8616 4.1178
" />
<path d="M59.8616 4.1178
L59.8616 3.0293
" />
</g></g>
<g style="fill:none; 
stroke:#AFAFAF; stroke-width:0.1500; stroke-opacity:1; 
stroke-linecap:round; stroke-linejoin:round;">
<text x="53.5678" y="2.1700"
textLength="4.5357" font-size="1.3333" lengthAdjust="spacingAndGlyphs"
text-anchor="middle" opacity="0">REF**</text>
<g class="stroked-text"><desc>REF**</desc>
<path d="M52.2345 2.1248
L51.9011 1.6486
" />
<path d="M51.6630 2.1248
L51.6630 1.1248
" />
<path d="M51.6630 1.1248
L52.0440 1.1248
" />
<path d="M52.0440 1.1248
L52.1392 1.1724
" />
<path d="M52.1392 1.1724
L52.1868 1.2201
" />
<path d="M52.1868 1.2201
L52.2345 1.3153
" />
<path d="M52.2345 1.3153
L52.2345 1.4582
" />
<path d="M52.2345 1.4582
L52.1868 1.5534
" />
<path d="M52.1868 1.5534
L52.1392 1.6010
" />
<path d="M52.1392 1.6010
L52.0440 1.6486
" />
<path d="M52.0440 1.6486
L51.6630 1.6486
" />
<path d="M52.6630 1.6010
L52.9964 1.6010
" />
<path d="M53.1392 2.1248
L52.6630 2.1248
" />
<path d="M52.6630 2.1248
L52.6630 1.1248
" />
<path d="M52.6630 1.1248
L53.1392 1.1248
" />
<path d="M53.9011 1.6010
L53.5678 1.6010
" />
<path d="M53.5678 2.1248
L53.5678 1.1248
" />
<path d="M53.5678 1.1248
L54.0440 1.1248
" />
<path d="M54.5678 1.1248
L54.5678 1.3629
" />
<path d="M54.3297 1.2677
L54.5678 1.3629
" />
<path d="M54.5678 1.3629
L54.8059 1.2677
" />
<path d="M54.4249 1.5534
L54.5678 1.3629
" />
<path d="M54.5678 1.3629
L54.7106 1.5534
" />
<path d="M55.3297 1.1248
L55.3297 1.3629
" />
<path d="M55.0916 1.2677
L55.3297 1.3629
" />
<path d="M55.3297 1.3629
L55.5678 1.2677
" />
<path d="M55.1868 1.5534
L55.3297 1.3629
" />
<path d="M55.3297 1.3629
L55.4726 1.5534
" />
</g></g>
<g style="fill:none; 
stroke:#AFAFAF; stroke-width:0.1000; stroke-opacity:1; 
stroke-linecap:round; stroke-linejoin:round;">
<path d="M27.8678 0.9700
L27.8678 14.4700
" />
<path d="M27.8678 14.4700
L79.2678 14.4700
" />
<path d="M29.2178 0.9700
L30.1678 2.4700
" />
<path d="M31.1178 0.9700
L30.1678 2.4700
" />
<path d="M79.2678 0.9700
L27.8678 0.9700
" />
<path d="M79.2678 14.4700
L79.2678 0.9700
" />
</g> 
</svg>
