<?xml version="1.0" standalone="no"?>
 <!DOCTYPE svg PUBLIC "-//W3C//DTD SVG 1.1//EN" 
 "http://www.w3.org/Graphics/SVG/1.1/DTD/svg11.dtd"> 
<svg
  xmlns:svg="http://www.w3.org/2000/svg"
  xmlns="http://www.w3.org/2000/svg"
  xmlns:xlink="http://www.w3.org/1999/xlink"
  version="1.1"
  width="50.4698mm" height="11.2776mm" viewBox="0.0000 0.0000 50.4698 11.2776">
<title>SVG Image created as working-brd.svg date 2024/04/12 18:28:17 </title>
  <desc>Image generated by PCBNEW </desc>
<g style="fill:#000000; fill-opacity:1.0000;stroke:#000000; stroke-opacity:1.0000;
stroke-linecap:round; stroke-linejoin:round;"
 transform="translate(0 0) scale(1 1)">
<path style="fill:#C83434; fill-opacity:1.0000; stroke:none;fill-rule:evenodd;"
d="M 23.6140,1.7350
23.6140,1.5550
24.1640,1.5550
24.1640,1.7350
Z" /> 
<path style="fill:#C83434; fill-opacity:1.0000; stroke:none;fill-rule:evenodd;"
d="M 26.1640,1.9350
26.1640,1.7550
26.8640,1.7550
26.8640,1.9350
Z" /> 
<path style="fill:#C83434; fill-opacity:1.0000; stroke:none;fill-rule:evenodd;"
d="M 23.6140,2.1350
23.6140,1.9550
24.1640,1.9550
24.1640,2.1350
Z" /> 
<path style="fill:#C83434; fill-opacity:1.0000; stroke:none;fill-rule:evenodd;"
d="M 26.1640,2.3350
26.1640,2.1550
26.8640,2.1550
26.8640,2.3350
Z" /> 
<path style="fill:#C83434; fill-opacity:1.0000; stroke:none;fill-rule:evenodd;"
d="M 23.6140,2.5350
23.6140,2.3550
24.1640,2.3550
24.1640,2.5350
Z" /> 
<path style="fill:#C83434; fill-opacity:1.0000; stroke:none;fill-rule:evenodd;"
d="M 26.1640,2.7350
26.1640,2.5550
26.8640,2.5550
26.8640,2.7350
Z" /> 
<path style="fill:#C83434; fill-opacity:1.0000; stroke:none;fill-rule:evenodd;"
d="M 23.6140,2.9350
23.6140,2.7550
24.1640,2.7550
24.1640,2.9350
Z" /> 
<path style="fill:#C83434; fill-opacity:1.0000; stroke:none;fill-rule:evenodd;"
d="M 26.1640,3.1350
26.1640,2.9550
26.8640,2.9550
26.8640,3.1350
Z" /> 
<path style="fill:#C83434; fill-opacity:1.0000; stroke:none;fill-rule:evenodd;"
d="M 23.6140,3.3350
23.6140,3.1550
24.1640,3.1550
24.1640,3.3350
Z" /> 
<path style="fill:#C83434; fill-opacity:1.0000; stroke:none;fill-rule:evenodd;"
d="M 26.1640,3.5350
26.1640,3.3550
26.8640,3.3550
26.8640,3.5350
Z" /> 
<path style="fill:#C83434; fill-opacity:1.0000; stroke:none;fill-rule:evenodd;"
d="M 23.6140,3.7350
23.6140,3.5550
24.1640,3.5550
24.1640,3.7350
Z" /> 
<path style="fill:#C83434; fill-opacity:1.0000; stroke:none;fill-rule:evenodd;"
d="M 26.1640,3.9350
26.1640,3.7550
26.8640,3.7550
26.8640,3.9350
Z" /> 
<path style="fill:#C83434; fill-opacity:1.0000; stroke:none;fill-rule:evenodd;"
d="M 23.6140,4.1350
23.6140,3.9550
24.1640,3.9550
24.1640,4.1350
Z" /> 
<path style="fill:#C83434; fill-opacity:1.0000; stroke:none;fill-rule:evenodd;"
d="M 26.1640,4.3350
26.1640,4.1550
26.8640,4.1550
26.8640,4.3350
Z" /> 
<path style="fill:#C83434; fill-opacity:1.0000; stroke:none;fill-rule:evenodd;"
d="M 23.6140,4.5350
23.6140,4.3550
24.1640,4.3550
24.1640,4.5350
Z" /> 
<path style="fill:#C83434; fill-opacity:1.0000; stroke:none;fill-rule:evenodd;"
d="M 26.1640,4.7350
26.1640,4.5550
26.8640,4.5550
26.8640,4.7350
Z" /> 
<path style="fill:#C83434; fill-opacity:1.0000; stroke:none;fill-rule:evenodd;"
d="M 23.6140,4.9350
23.6140,4.7550
24.1640,4.7550
24.1640,4.9350
Z" /> 
<path style="fill:#C83434; fill-opacity:1.0000; stroke:none;fill-rule:evenodd;"
d="M 26.1640,5.1350
26.1640,4.9550
26.8640,4.9550
26.8640,5.1350
Z" /> 
<path style="fill:#C83434; fill-opacity:1.0000; stroke:none;fill-rule:evenodd;"
d="M 23.6140,5.3350
23.6140,5.1550
24.1640,5.1550
24.1640,5.3350
Z" /> 
<path style="fill:#C83434; fill-opacity:1.0000; stroke:none;fill-rule:evenodd;"
d="M 26.1640,5.5350
26.1640,5.3550
26.8640,5.3550
26.8640,5.5350
Z" /> 
<path style="fill:#C83434; fill-opacity:1.0000; stroke:none;fill-rule:evenodd;"
d="M 23.6140,5.7350
23.6140,5.5550
24.1640,5.5550
24.1640,5.7350
Z" /> 
<path style="fill:#C83434; fill-opacity:1.0000; stroke:none;fill-rule:evenodd;"
d="M 26.1640,5.9350
26.1640,5.7550
26.8640,5.7550
26.8640,5.9350
Z" /> 
<path style="fill:#C83434; fill-opacity:1.0000; stroke:none;fill-rule:evenodd;"
d="M 23.6140,6.1350
23.6140,5.9550
24.1640,5.9550
24.1640,6.1350
Z" /> 
<path style="fill:#C83434; fill-opacity:1.0000; stroke:none;fill-rule:evenodd;"
d="M 26.1640,6.3350
26.1640,6.1550
26.8640,6.1550
26.8640,6.3350
Z" /> 
<path style="fill:#C83434; fill-opacity:1.0000; stroke:none;fill-rule:evenodd;"
d="M 23.6140,6.5350
23.6140,6.3550
24.1640,6.3550
24.1640,6.5350
Z" /> 
<path style="fill:#C83434; fill-opacity:1.0000; stroke:none;fill-rule:evenodd;"
d="M 26.1640,6.7350
26.1640,6.5550
26.8640,6.5550
26.8640,6.7350
Z" /> 
<path style="fill:#C83434; fill-opacity:1.0000; stroke:none;fill-rule:evenodd;"
d="M 23.6140,6.9350
23.6140,6.7550
24.1640,6.7550
24.1640,6.9350
Z" /> 
<path style="fill:#C83434; fill-opacity:1.0000; stroke:none;fill-rule:evenodd;"
d="M 26.1640,7.1350
26.1640,6.9550
26.8640,6.9550
26.8640,7.1350
Z" /> 
<path style="fill:#C83434; fill-opacity:1.0000; stroke:none;fill-rule:evenodd;"
d="M 23.6140,7.3350
23.6140,7.1550
24.1640,7.1550
24.1640,7.3350
Z" /> 
<path style="fill:#C83434; fill-opacity:1.0000; stroke:none;fill-rule:evenodd;"
d="M 26.1640,7.5350
26.1640,7.3550
26.8640,7.3550
26.8640,7.5350
Z" /> 
<path style="fill:#C83434; fill-opacity:1.0000; stroke:none;fill-rule:evenodd;"
d="M 23.6140,7.7350
23.6140,7.5550
24.1640,7.5550
24.1640,7.7350
Z" /> 
<path style="fill:#C83434; fill-opacity:1.0000; stroke:none;fill-rule:evenodd;"
d="M 26.1640,7.9350
26.1640,7.7550
26.8640,7.7550
26.8640,7.9350
Z" /> 
<path style="fill:#C83434; fill-opacity:1.0000; stroke:none;fill-rule:evenodd;"
d="M 23.6140,8.1350
23.6140,7.9550
24.1640,7.9550
24.1640,8.1350
Z" /> 
<path style="fill:#C83434; fill-opacity:1.0000; stroke:none;fill-rule:evenodd;"
d="M 26.1640,8.3350
26.1640,8.1550
26.8640,8.1550
26.8640,8.3350
Z" /> 
<path style="fill:#C83434; fill-opacity:1.0000; stroke:none;fill-rule:evenodd;"
d="M 23.6140,8.5350
23.6140,8.3550
24.1640,8.3550
24.1640,8.5350
Z" /> 
<path style="fill:#C83434; fill-opacity:1.0000; stroke:none;fill-rule:evenodd;"
d="M 26.1640,8.7350
26.1640,8.5550
26.8640,8.5550
26.8640,8.7350
Z" /> 
<path style="fill:#C83434; fill-opacity:1.0000; stroke:none;fill-rule:evenodd;"
d="M 23.6140,8.9350
23.6140,8.7550
24.1640,8.7550
24.1640,8.9350
Z" /> 
<path style="fill:#C83434; fill-opacity:1.0000; stroke:none;fill-rule:evenodd;"
d="M 26.1640,9.1350
26.1640,8.9550
26.8640,8.9550
26.8640,9.1350
Z" /> 
<path style="fill:#C83434; fill-opacity:1.0000; stroke:none;fill-rule:evenodd;"
d="M 23.6140,9.3350
23.6140,9.1550
24.1640,9.1550
24.1640,9.3350
Z" /> 
<path style="fill:#C83434; fill-opacity:1.0000; stroke:none;fill-rule:evenodd;"
d="M 26.1640,9.5350
26.1640,9.3550
26.8640,9.3550
26.8640,9.5350
Z" /> 
<path style="fill:#C83434; fill-opacity:1.0000; stroke:none;fill-rule:evenodd;"
d="M 23.6140,9.7350
23.6140,9.5550
24.1640,9.5550
24.1640,9.7350
Z" /> 
<path style="fill:#D864FF; fill-opacity:0.4000; stroke:none;fill-rule:evenodd;"
d="M 23.6140,1.7350
23.6140,1.5550
24.1640,1.5550
24.1640,1.7350
Z" /> 
<path style="fill:#D864FF; fill-opacity:0.4000; stroke:none;fill-rule:evenodd;"
d="M 26.1640,1.9350
26.1640,1.7550
26.8640,1.7550
26.8640,1.9350
Z" /> 
<path style="fill:#D864FF; fill-opacity:0.4000; stroke:none;fill-rule:evenodd;"
d="M 23.6140,2.1350
23.6140,1.9550
24.1640,1.9550
24.1640,2.1350
Z" /> 
<path style="fill:#D864FF; fill-opacity:0.4000; stroke:none;fill-rule:evenodd;"
d="M 26.1640,2.3350
26.1640,2.1550
26.8640,2.1550
26.8640,2.3350
Z" /> 
<path style="fill:#D864FF; fill-opacity:0.4000; stroke:none;fill-rule:evenodd;"
d="M 23.6140,2.5350
23.6140,2.3550
24.1640,2.3550
24.1640,2.5350
Z" /> 
<path style="fill:#D864FF; fill-opacity:0.4000; stroke:none;fill-rule:evenodd;"
d="M 26.1640,2.7350
26.1640,2.5550
26.8640,2.5550
26.8640,2.7350
Z" /> 
<path style="fill:#D864FF; fill-opacity:0.4000; stroke:none;fill-rule:evenodd;"
d="M 23.6140,2.9350
23.6140,2.7550
24.1640,2.7550
24.1640,2.9350
Z" /> 
<path style="fill:#D864FF; fill-opacity:0.4000; stroke:none;fill-rule:evenodd;"
d="M 26.1640,3.1350
26.1640,2.9550
26.8640,2.9550
26.8640,3.1350
Z" /> 
<path style="fill:#D864FF; fill-opacity:0.4000; stroke:none;fill-rule:evenodd;"
d="M 23.6140,3.3350
23.6140,3.1550
24.1640,3.1550
24.1640,3.3350
Z" /> 
<path style="fill:#D864FF; fill-opacity:0.4000; stroke:none;fill-rule:evenodd;"
d="M 26.1640,3.5350
26.1640,3.3550
26.8640,3.3550
26.8640,3.5350
Z" /> 
<path style="fill:#D864FF; fill-opacity:0.4000; stroke:none;fill-rule:evenodd;"
d="M 23.6140,3.7350
23.6140,3.5550
24.1640,3.5550
24.1640,3.7350
Z" /> 
<path style="fill:#D864FF; fill-opacity:0.4000; stroke:none;fill-rule:evenodd;"
d="M 26.1640,3.9350
26.1640,3.7550
26.8640,3.7550
26.8640,3.9350
Z" /> 
<path style="fill:#D864FF; fill-opacity:0.4000; stroke:none;fill-rule:evenodd;"
d="M 23.6140,4.1350
23.6140,3.9550
24.1640,3.9550
24.1640,4.1350
Z" /> 
<path style="fill:#D864FF; fill-opacity:0.4000; stroke:none;fill-rule:evenodd;"
d="M 26.1640,4.3350
26.1640,4.1550
26.8640,4.1550
26.8640,4.3350
Z" /> 
<path style="fill:#D864FF; fill-opacity:0.4000; stroke:none;fill-rule:evenodd;"
d="M 23.6140,4.5350
23.6140,4.3550
24.1640,4.3550
24.1640,4.5350
Z" /> 
<path style="fill:#D864FF; fill-opacity:0.4000; stroke:none;fill-rule:evenodd;"
d="M 26.1640,4.7350
26.1640,4.5550
26.8640,4.5550
26.8640,4.7350
Z" /> 
<path style="fill:#D864FF; fill-opacity:0.4000; stroke:none;fill-rule:evenodd;"
d="M 23.6140,4.9350
23.6140,4.7550
24.1640,4.7550
24.1640,4.9350
Z" /> 
<path style="fill:#D864FF; fill-opacity:0.4000; stroke:none;fill-rule:evenodd;"
d="M 26.1640,5.1350
26.1640,4.9550
26.8640,4.9550
26.8640,5.1350
Z" /> 
<path style="fill:#D864FF; fill-opacity:0.4000; stroke:none;fill-rule:evenodd;"
d="M 23.6140,5.3350
23.6140,5.1550
24.1640,5.1550
24.1640,5.3350
Z" /> 
<path style="fill:#D864FF; fill-opacity:0.4000; stroke:none;fill-rule:evenodd;"
d="M 26.1640,5.5350
26.1640,5.3550
26.8640,5.3550
26.8640,5.5350
Z" /> 
<path style="fill:#D864FF; fill-opacity:0.4000; stroke:none;fill-rule:evenodd;"
d="M 23.6140,5.7350
23.6140,5.5550
24.1640,5.5550
24.1640,5.7350
Z" /> 
<path style="fill:#D864FF; fill-opacity:0.4000; stroke:none;fill-rule:evenodd;"
d="M 26.1640,5.9350
26.1640,5.7550
26.8640,5.7550
26.8640,5.9350
Z" /> 
<path style="fill:#D864FF; fill-opacity:0.4000; stroke:none;fill-rule:evenodd;"
d="M 23.6140,6.1350
23.6140,5.9550
24.1640,5.9550
24.1640,6.1350
Z" /> 
<path style="fill:#D864FF; fill-opacity:0.4000; stroke:none;fill-rule:evenodd;"
d="M 26.1640,6.3350
26.1640,6.1550
26.8640,6.1550
26.8640,6.3350
Z" /> 
<path style="fill:#D864FF; fill-opacity:0.4000; stroke:none;fill-rule:evenodd;"
d="M 23.6140,6.5350
23.6140,6.3550
24.1640,6.3550
24.1640,6.5350
Z" /> 
<path style="fill:#D864FF; fill-opacity:0.4000; stroke:none;fill-rule:evenodd;"
d="M 26.1640,6.7350
26.1640,6.5550
26.8640,6.5550
26.8640,6.7350
Z" /> 
<path style="fill:#D864FF; fill-opacity:0.4000; stroke:none;fill-rule:evenodd;"
d="M 23.6140,6.9350
23.6140,6.7550
24.1640,6.7550
24.1640,6.9350
Z" /> 
<path style="fill:#D864FF; fill-opacity:0.4000; stroke:none;fill-rule:evenodd;"
d="M 26.1640,7.1350
26.1640,6.9550
26.8640,6.9550
26.8640,7.1350
Z" /> 
<path style="fill:#D864FF; fill-opacity:0.4000; stroke:none;fill-rule:evenodd;"
d="M 23.6140,7.3350
23.6140,7.1550
24.1640,7.1550
24.1640,7.3350
Z" /> 
<path style="fill:#D864FF; fill-opacity:0.4000; stroke:none;fill-rule:evenodd;"
d="M 26.1640,7.5350
26.1640,7.3550
26.8640,7.3550
26.8640,7.5350
Z" /> 
<path style="fill:#D864FF; fill-opacity:0.4000; stroke:none;fill-rule:evenodd;"
d="M 23.6140,7.7350
23.6140,7.5550
24.1640,7.5550
24.1640,7.7350
Z" /> 
<path style="fill:#D864FF; fill-opacity:0.4000; stroke:none;fill-rule:evenodd;"
d="M 26.1640,7.9350
26.1640,7.7550
26.8640,7.7550
26.8640,7.9350
Z" /> 
<path style="fill:#D864FF; fill-opacity:0.4000; stroke:none;fill-rule:evenodd;"
d="M 23.6140,8.1350
23.6140,7.9550
24.1640,7.9550
24.1640,8.1350
Z" /> 
<path style="fill:#D864FF; fill-opacity:0.4000; stroke:none;fill-rule:evenodd;"
d="M 26.1640,8.3350
26.1640,8.1550
26.8640,8.1550
26.8640,8.3350
Z" /> 
<path style="fill:#D864FF; fill-opacity:0.4000; stroke:none;fill-rule:evenodd;"
d="M 23.6140,8.5350
23.6140,8.3550
24.1640,8.3550
24.1640,8.5350
Z" /> 
<path style="fill:#D864FF; fill-opacity:0.4000; stroke:none;fill-rule:evenodd;"
d="M 26.1640,8.7350
26.1640,8.5550
26.8640,8.5550
26.8640,8.7350
Z" /> 
<path style="fill:#D864FF; fill-opacity:0.4000; stroke:none;fill-rule:evenodd;"
d="M 23.6140,8.9350
23.6140,8.7550
24.1640,8.7550
24.1640,8.9350
Z" /> 
<path style="fill:#D864FF; fill-opacity:0.4000; stroke:none;fill-rule:evenodd;"
d="M 26.1640,9.1350
26.1640,8.9550
26.8640,8.9550
26.8640,9.1350
Z" /> 
<path style="fill:#D864FF; fill-opacity:0.4000; stroke:none;fill-rule:evenodd;"
d="M 23.6140,9.3350
23.6140,9.1550
24.1640,9.1550
24.1640,9.3350
Z" /> 
<path style="fill:#D864FF; fill-opacity:0.4000; stroke:none;fill-rule:evenodd;"
d="M 26.1640,9.5350
26.1640,9.3550
26.8640,9.3550
26.8640,9.5350
Z" /> 
<path style="fill:#D864FF; fill-opacity:0.4000; stroke:none;fill-rule:evenodd;"
d="M 23.6140,9.7350
23.6140,9.5550
24.1640,9.5550
24.1640,9.7350
Z" /> 
<path style="fill:#B4A09A; fill-opacity:0.9000; stroke:none;fill-rule:evenodd;"
d="M 23.6140,1.7350
23.6140,1.5550
24.1640,1.5550
24.1640,1.7350
Z" /> 
<path style="fill:#B4A09A; fill-opacity:0.9000; stroke:none;fill-rule:evenodd;"
d="M 26.1640,1.9350
26.1640,1.7550
26.8640,1.7550
26.8640,1.9350
Z" /> 
<path style="fill:#B4A09A; fill-opacity:0.9000; stroke:none;fill-rule:evenodd;"
d="M 23.6140,2.1350
23.6140,1.9550
24.1640,1.9550
24.1640,2.1350
Z" /> 
<path style="fill:#B4A09A; fill-opacity:0.9000; stroke:none;fill-rule:evenodd;"
d="M 26.1640,2.3350
26.1640,2.1550
26.8640,2.1550
26.8640,2.3350
Z" /> 
<path style="fill:#B4A09A; fill-opacity:0.9000; stroke:none;fill-rule:evenodd;"
d="M 23.6140,2.5350
23.6140,2.3550
24.1640,2.3550
24.1640,2.5350
Z" /> 
<path style="fill:#B4A09A; fill-opacity:0.9000; stroke:none;fill-rule:evenodd;"
d="M 26.1640,2.7350
26.1640,2.5550
26.8640,2.5550
26.8640,2.7350
Z" /> 
<path style="fill:#B4A09A; fill-opacity:0.9000; stroke:none;fill-rule:evenodd;"
d="M 23.6140,2.9350
23.6140,2.7550
24.1640,2.7550
24.1640,2.9350
Z" /> 
<path style="fill:#B4A09A; fill-opacity:0.9000; stroke:none;fill-rule:evenodd;"
d="M 26.1640,3.1350
26.1640,2.9550
26.8640,2.9550
26.8640,3.1350
Z" /> 
<path style="fill:#B4A09A; fill-opacity:0.9000; stroke:none;fill-rule:evenodd;"
d="M 23.6140,3.3350
23.6140,3.1550
24.1640,3.1550
24.1640,3.3350
Z" /> 
<path style="fill:#B4A09A; fill-opacity:0.9000; stroke:none;fill-rule:evenodd;"
d="M 26.1640,3.5350
26.1640,3.3550
26.8640,3.3550
26.8640,3.5350
Z" /> 
<path style="fill:#B4A09A; fill-opacity:0.9000; stroke:none;fill-rule:evenodd;"
d="M 23.6140,3.7350
23.6140,3.5550
24.1640,3.5550
24.1640,3.7350
Z" /> 
<path style="fill:#B4A09A; fill-opacity:0.9000; stroke:none;fill-rule:evenodd;"
d="M 26.1640,3.9350
26.1640,3.7550
26.8640,3.7550
26.8640,3.9350
Z" /> 
<path style="fill:#B4A09A; fill-opacity:0.9000; stroke:none;fill-rule:evenodd;"
d="M 23.6140,4.1350
23.6140,3.9550
24.1640,3.9550
24.1640,4.1350
Z" /> 
<path style="fill:#B4A09A; fill-opacity:0.9000; stroke:none;fill-rule:evenodd;"
d="M 26.1640,4.3350
26.1640,4.1550
26.8640,4.1550
26.8640,4.3350
Z" /> 
<path style="fill:#B4A09A; fill-opacity:0.9000; stroke:none;fill-rule:evenodd;"
d="M 23.6140,4.5350
23.6140,4.3550
24.1640,4.3550
24.1640,4.5350
Z" /> 
<path style="fill:#B4A09A; fill-opacity:0.9000; stroke:none;fill-rule:evenodd;"
d="M 26.1640,4.7350
26.1640,4.5550
26.8640,4.5550
26.8640,4.7350
Z" /> 
<path style="fill:#B4A09A; fill-opacity:0.9000; stroke:none;fill-rule:evenodd;"
d="M 23.6140,4.9350
23.6140,4.7550
24.1640,4.7550
24.1640,4.9350
Z" /> 
<path style="fill:#B4A09A; fill-opacity:0.9000; stroke:none;fill-rule:evenodd;"
d="M 26.1640,5.1350
26.1640,4.9550
26.8640,4.9550
26.8640,5.1350
Z" /> 
<path style="fill:#B4A09A; fill-opacity:0.9000; stroke:none;fill-rule:evenodd;"
d="M 23.6140,5.3350
23.6140,5.1550
24.1640,5.1550
24.1640,5.3350
Z" /> 
<path style="fill:#B4A09A; fill-opacity:0.9000; stroke:none;fill-rule:evenodd;"
d="M 26.1640,5.5350
26.1640,5.3550
26.8640,5.3550
26.8640,5.5350
Z" /> 
<path style="fill:#B4A09A; fill-opacity:0.9000; stroke:none;fill-rule:evenodd;"
d="M 23.6140,5.7350
23.6140,5.5550
24.1640,5.5550
24.1640,5.7350
Z" /> 
<path style="fill:#B4A09A; fill-opacity:0.9000; stroke:none;fill-rule:evenodd;"
d="M 26.1640,5.9350
26.1640,5.7550
26.8640,5.7550
26.8640,5.9350
Z" /> 
<path style="fill:#B4A09A; fill-opacity:0.9000; stroke:none;fill-rule:evenodd;"
d="M 23.6140,6.1350
23.6140,5.9550
24.1640,5.9550
24.1640,6.1350
Z" /> 
<path style="fill:#B4A09A; fill-opacity:0.9000; stroke:none;fill-rule:evenodd;"
d="M 26.1640,6.3350
26.1640,6.1550
26.8640,6.1550
26.8640,6.3350
Z" /> 
<path style="fill:#B4A09A; fill-opacity:0.9000; stroke:none;fill-rule:evenodd;"
d="M 23.6140,6.5350
23.6140,6.3550
24.1640,6.3550
24.1640,6.5350
Z" /> 
<path style="fill:#B4A09A; fill-opacity:0.9000; stroke:none;fill-rule:evenodd;"
d="M 26.1640,6.7350
26.1640,6.5550
26.8640,6.5550
26.8640,6.7350
Z" /> 
<path style="fill:#B4A09A; fill-opacity:0.9000; stroke:none;fill-rule:evenodd;"
d="M 23.6140,6.9350
23.6140,6.7550
24.1640,6.7550
24.1640,6.9350
Z" /> 
<path style="fill:#B4A09A; fill-opacity:0.9000; stroke:none;fill-rule:evenodd;"
d="M 26.1640,7.1350
26.1640,6.9550
26.8640,6.9550
26.8640,7.1350
Z" /> 
<path style="fill:#B4A09A; fill-opacity:0.9000; stroke:none;fill-rule:evenodd;"
d="M 23.6140,7.3350
23.6140,7.1550
24.1640,7.1550
24.1640,7.3350
Z" /> 
<path style="fill:#B4A09A; fill-opacity:0.9000; stroke:none;fill-rule:evenodd;"
d="M 26.1640,7.5350
26.1640,7.3550
26.8640,7.3550
26.8640,7.5350
Z" /> 
<path style="fill:#B4A09A; fill-opacity:0.9000; stroke:none;fill-rule:evenodd;"
d="M 23.6140,7.7350
23.6140,7.5550
24.1640,7.5550
24.1640,7.7350
Z" /> 
<path style="fill:#B4A09A; fill-opacity:0.9000; stroke:none;fill-rule:evenodd;"
d="M 26.1640,7.9350
26.1640,7.7550
26.8640,7.7550
26.8640,7.9350
Z" /> 
<path style="fill:#B4A09A; fill-opacity:0.9000; stroke:none;fill-rule:evenodd;"
d="M 23.6140,8.1350
23.6140,7.9550
24.1640,7.9550
24.1640,8.1350
Z" /> 
<path style="fill:#B4A09A; fill-opacity:0.9000; stroke:none;fill-rule:evenodd;"
d="M 26.1640,8.3350
26.1640,8.1550
26.8640,8.1550
26.8640,8.3350
Z" /> 
<path style="fill:#B4A09A; fill-opacity:0.9000; stroke:none;fill-rule:evenodd;"
d="M 23.6140,8.5350
23.6140,8.3550
24.1640,8.3550
24.1640,8.5350
Z" /> 
<path style="fill:#B4A09A; fill-opacity:0.9000; stroke:none;fill-rule:evenodd;"
d="M 26.1640,8.7350
26.1640,8.5550
26.8640,8.5550
26.8640,8.7350
Z" /> 
<path style="fill:#B4A09A; fill-opacity:0.9000; stroke:none;fill-rule:evenodd;"
d="M 23.6140,8.9350
23.6140,8.7550
24.1640,8.7550
24.1640,8.9350
Z" /> 
<path style="fill:#B4A09A; fill-opacity:0.9000; stroke:none;fill-rule:evenodd;"
d="M 26.1640,9.1350
26.1640,8.9550
26.8640,8.9550
26.8640,9.1350
Z" /> 
<path style="fill:#B4A09A; fill-opacity:0.9000; stroke:none;fill-rule:evenodd;"
d="M 23.6140,9.3350
23.6140,9.1550
24.1640,9.1550
24.1640,9.3350
Z" /> 
<path style="fill:#B4A09A; fill-opacity:0.9000; stroke:none;fill-rule:evenodd;"
d="M 26.1640,9.5350
26.1640,9.3550
26.8640,9.3550
26.8640,9.5350
Z" /> 
<path style="fill:#B4A09A; fill-opacity:0.9000; stroke:none;fill-rule:evenodd;"
d="M 23.6140,9.7350
23.6140,9.5550
24.1640,9.5550
24.1640,9.7350
Z" /> 
</g>
<g style="fill:none; 
stroke:#F2EDA1; stroke-width:0.1588; stroke-opacity:1; 
stroke-linecap:round; stroke-linejoin:round;">
<text x="25.2390" y="6.2800"
textLength="5.6651" font-size="1.6933" lengthAdjust="spacingAndGlyphs"
text-anchor="middle" opacity="0">REF**</text>
<g class="stroked-text"><desc>REF**</desc>
<path d="M23.5456 6.2243
L23.1223 5.6195
" />
<path d="M22.8199 6.2243
L22.8199 4.9543
" />
<path d="M22.8199 4.9543
L23.3037 4.9543
" />
<path d="M23.3037 4.9543
L23.4247 5.0147
" />
<path d="M23.4247 5.0147
L23.4852 5.0752
" />
<path d="M23.4852 5.0752
L23.5456 5.1962
" />
<path d="M23.5456 5.1962
L23.5456 5.3776
" />
<path d="M23.5456 5.3776
L23.4852 5.4986
" />
<path d="M23.4852 5.4986
L23.4247 5.5590
" />
<path d="M23.4247 5.5590
L23.3037 5.6195
" />
<path d="M23.3037 5.6195
L22.8199 5.6195
" />
<path d="M24.0899 5.5590
L24.5133 5.5590
" />
<path d="M24.6947 6.2243
L24.0899 6.2243
" />
<path d="M24.0899 6.2243
L24.0899 4.9543
" />
<path d="M24.0899 4.9543
L24.6947 4.9543
" />
<path d="M25.6623 5.5590
L25.2390 5.5590
" />
<path d="M25.2390 6.2243
L25.2390 4.9543
" />
<path d="M25.2390 4.9543
L25.8437 4.9543
" />
<path d="M26.5090 4.9543
L26.5090 5.2567
" />
<path d="M26.2066 5.1357
L26.5090 5.2567
" />
<path d="M26.5090 5.2567
L26.8114 5.1357
" />
<path d="M26.3276 5.4986
L26.5090 5.2567
" />
<path d="M26.5090 5.2567
L26.6904 5.4986
" />
<path d="M27.4766 4.9543
L27.4766 5.2567
" />
<path d="M27.1742 5.1357
L27.4766 5.2567
" />
<path d="M27.4766 5.2567
L27.7790 5.1357
" />
<path d="M27.2952 5.4986
L27.4766 5.2567
" />
<path d="M27.4766 5.2567
L27.6580 5.4986
" />
</g></g>
<g style="fill:none; 
stroke:#F2EDA1; stroke-width:0.1200; stroke-opacity:1; 
stroke-linecap:round; stroke-linejoin:round;">
<path d="M23.1418 1.4950
L23.3540 1.6450
" />
<path d="M23.1418 1.7950
L23.1418 1.4950
" />
<path d="M23.3540 1.6450
L23.1418 1.7950
" />
<path d="M23.8540 0.4100
L26.9240 0.4100
" />
<path d="M23.8540 1.2950
L23.8540 0.4100
" />
<path d="M23.8540 9.9950
L23.8540 10.8800
" />
<path d="M23.8540 10.8800
L26.9240 10.8800
" />
<path d="M26.9240 0.4100
L26.9240 1.7350
" />
<path d="M26.9240 1.7350
L27.3040 2.7350
" />
<path d="M26.9240 9.5550
L27.3040 8.5550
" />
<path d="M26.9240 10.8800
L26.9240 9.5550
" />
<path d="M27.3040 2.7350
L27.3040 5.6450
" />
<path d="M27.3040 8.5550
L27.3040 5.6450
" />
</g>
<g style="fill:none; 
stroke:#FF26E2; stroke-width:0.0500; stroke-opacity:1; 
stroke-linecap:round; stroke-linejoin:round;">
<path d="M23.1190 0.0250
L23.1190 11.2650
" />
<path d="M23.1190 11.2650
L27.6990 11.2650
" />
<path d="M27.6990 0.0250
L23.1190 0.0250
" />
<path d="M27.6990 11.2650
L27.6990 0.0250
" />
</g>
<g style="fill:none; 
stroke:#AFAFAF; stroke-width:0.1588; stroke-opacity:1; 
stroke-linecap:round; stroke-linejoin:round;">
<text x="25.2390" y="6.2800"
textLength="50.4780" font-size="1.6933" lengthAdjust="spacingAndGlyphs"
text-anchor="middle" opacity="0">JAE_FF0841SA1_2Rows-41Pins_P0.40mm_Horizontal</text>
<g class="stroked-text"><desc>JAE_FF0841SA1_2Rows-41Pins_P0.40mm_Horizontal</desc>
<path d="M0.7764 4.9543
L0.7764 5.8614
" />
<path d="M0.7764 5.8614
L0.7159 6.0428
" />
<path d="M0.7159 6.0428
L0.5949 6.1638
" />
<path d="M0.5949 6.1638
L0.4135 6.2243
" />
<path d="M0.4135 6.2243
L0.2926 6.2243
" />
<path d="M1.3206 5.8614
L1.9254 5.8614
" />
<path d="M1.1997 6.2243
L1.6230 4.9543
" />
<path d="M1.6230 4.9543
L2.0464 6.2243
" />
<path d="M2.4697 5.5590
L2.8930 5.5590
" />
<path d="M3.0745 6.2243
L2.4697 6.2243
" />
<path d="M2.4697 6.2243
L2.4697 4.9543
" />
<path d="M2.4697 4.9543
L3.0745 4.9543
" />
<path d="M3.3164 6.3452
L4.2840 6.3452
" />
<path d="M5.0097 5.5590
L4.5864 5.5590
" />
<path d="M4.5864 6.2243
L4.5864 4.9543
" />
<path d="M4.5864 4.9543
L5.1911 4.9543
" />
<path d="M6.0983 5.5590
L5.6749 5.5590
" />
<path d="M5.6749 6.2243
L5.6749 4.9543
" />
<path d="M5.6749 4.9543
L6.2797 4.9543
" />
<path d="M7.0054 4.9543
L7.1264 4.9543
" />
<path d="M7.1264 4.9543
L7.2473 5.0147
" />
<path d="M7.2473 5.0147
L7.3078 5.0752
" />
<path d="M7.3078 5.0752
L7.3683 5.1962
" />
<path d="M7.3683 5.1962
L7.4287 5.4381
" />
<path d="M7.4287 5.4381
L7.4287 5.7405
" />
<path d="M7.4287 5.7405
L7.3683 5.9824
" />
<path d="M7.3683 5.9824
L7.3078 6.1033
" />
<path d="M7.3078 6.1033
L7.2473 6.1638
" />
<path d="M7.2473 6.1638
L7.1264 6.2243
" />
<path d="M7.1264 6.2243
L7.0054 6.2243
" />
<path d="M7.0054 6.2243
L6.8845 6.1638
" />
<path d="M6.8845 6.1638
L6.8240 6.1033
" />
<path d="M6.8240 6.1033
L6.7635 5.9824
" />
<path d="M6.7635 5.9824
L6.7030 5.7405
" />
<path d="M6.7030 5.7405
L6.7030 5.4381
" />
<path d="M6.7030 5.4381
L6.7635 5.1962
" />
<path d="M6.7635 5.1962
L6.8240 5.0752
" />
<path d="M6.8240 5.0752
L6.8845 5.0147
" />
<path d="M6.8845 5.0147
L7.0054 4.9543
" />
<path d="M8.1545 5.4986
L8.0335 5.4381
" />
<path d="M8.0335 5.4381
L7.9730 5.3776
" />
<path d="M7.9730 5.3776
L7.9126 5.2567
" />
<path d="M7.9126 5.2567
L7.9126 5.1962
" />
<path d="M7.9126 5.1962
L7.9730 5.0752
" />
<path d="M7.9730 5.0752
L8.0335 5.0147
" />
<path d="M8.0335 5.0147
L8.1545 4.9543
" />
<path d="M8.1545 4.9543
L8.3964 4.9543
" />
<path d="M8.3964 4.9543
L8.5173 5.0147
" />
<path d="M8.5173 5.0147
L8.5778 5.0752
" />
<path d="M8.5778 5.0752
L8.6383 5.1962
" />
<path d="M8.6383 5.1962
L8.6383 5.2567
" />
<path d="M8.6383 5.2567
L8.5778 5.3776
" />
<path d="M8.5778 5.3776
L8.5173 5.4381
" />
<path d="M8.5173 5.4381
L8.3964 5.4986
" />
<path d="M8.3964 5.4986
L8.1545 5.4986
" />
<path d="M8.1545 5.4986
L8.0335 5.5590
" />
<path d="M8.0335 5.5590
L7.9730 5.6195
" />
<path d="M7.9730 5.6195
L7.9126 5.7405
" />
<path d="M7.9126 5.7405
L7.9126 5.9824
" />
<path d="M7.9126 5.9824
L7.9730 6.1033
" />
<path d="M7.9730 6.1033
L8.0335 6.1638
" />
<path d="M8.0335 6.1638
L8.1545 6.2243
" />
<path d="M8.1545 6.2243
L8.3964 6.2243
" />
<path d="M8.3964 6.2243
L8.5173 6.1638
" />
<path d="M8.5173 6.1638
L8.5778 6.1033
" />
<path d="M8.5778 6.1033
L8.6383 5.9824
" />
<path d="M8.6383 5.9824
L8.6383 5.7405
" />
<path d="M8.6383 5.7405
L8.5778 5.6195
" />
<path d="M8.5778 5.6195
L8.5173 5.5590
" />
<path d="M8.5173 5.5590
L8.3964 5.4986
" />
<path d="M9.7268 5.3776
L9.7268 6.2243
" />
<path d="M9.4245 4.8938
L9.1221 5.8009
" />
<path d="M9.1221 5.8009
L9.9083 5.8009
" />
<path d="M11.0573 6.2243
L10.3316 6.2243
" />
<path d="M10.6945 6.2243
L10.6945 4.9543
" />
<path d="M10.6945 4.9543
L10.5735 5.1357
" />
<path d="M10.5735 5.1357
L10.4526 5.2567
" />
<path d="M10.4526 5.2567
L10.3316 5.3171
" />
<path d="M11.5411 6.1638
L11.7226 6.2243
" />
<path d="M11.7226 6.2243
L12.0249 6.2243
" />
<path d="M12.0249 6.2243
L12.1459 6.1638
" />
<path d="M12.1459 6.1638
L12.2064 6.1033
" />
<path d="M12.2064 6.1033
L12.2668 5.9824
" />
<path d="M12.2668 5.9824
L12.2668 5.8614
" />
<path d="M12.2668 5.8614
L12.2064 5.7405
" />
<path d="M12.2064 5.7405
L12.1459 5.6800
" />
<path d="M12.1459 5.6800
L12.0249 5.6195
" />
<path d="M12.0249 5.6195
L11.7830 5.5590
" />
<path d="M11.7830 5.5590
L11.6621 5.4986
" />
<path d="M11.6621 5.4986
L11.6016 5.4381
" />
<path d="M11.6016 5.4381
L11.5411 5.3171
" />
<path d="M11.5411 5.3171
L11.5411 5.1962
" />
<path d="M11.5411 5.1962
L11.6016 5.0752
" />
<path d="M11.6016 5.0752
L11.6621 5.0147
" />
<path d="M11.6621 5.0147
L11.7830 4.9543
" />
<path d="M11.7830 4.9543
L12.0854 4.9543
" />
<path d="M12.0854 4.9543
L12.2668 5.0147
" />
<path d="M12.7506 5.8614
L13.3554 5.8614
" />
<path d="M12.6297 6.2243
L13.0530 4.9543
" />
<path d="M13.0530 4.9543
L13.4764 6.2243
" />
<path d="M14.5649 6.2243
L13.8392 6.2243
" />
<path d="M14.2021 6.2243
L14.2021 4.9543
" />
<path d="M14.2021 4.9543
L14.0811 5.1357
" />
<path d="M14.0811 5.1357
L13.9602 5.2567
" />
<path d="M13.9602 5.2567
L13.8392 5.3171
" />
<path d="M14.8068 6.3452
L15.7745 6.3452
" />
<path d="M16.0164 5.0752
L16.0768 5.0147
" />
<path d="M16.0768 5.0147
L16.1978 4.9543
" />
<path d="M16.1978 4.9543
L16.5002 4.9543
" />
<path d="M16.5002 4.9543
L16.6211 5.0147
" />
<path d="M16.6211 5.0147
L16.6816 5.0752
" />
<path d="M16.6816 5.0752
L16.7421 5.1962
" />
<path d="M16.7421 5.1962
L16.7421 5.3171
" />
<path d="M16.7421 5.3171
L16.6816 5.4986
" />
<path d="M16.6816 5.4986
L15.9559 6.2243
" />
<path d="M15.9559 6.2243
L16.7421 6.2243
" />
<path d="M18.0121 6.2243
L17.5887 5.6195
" />
<path d="M17.2864 6.2243
L17.2864 4.9543
" />
<path d="M17.2864 4.9543
L17.7702 4.9543
" />
<path d="M17.7702 4.9543
L17.8911 5.0147
" />
<path d="M17.8911 5.0147
L17.9516 5.0752
" />
<path d="M17.9516 5.0752
L18.0121 5.1962
" />
<path d="M18.0121 5.1962
L18.0121 5.3776
" />
<path d="M18.0121 5.3776
L17.9516 5.4986
" />
<path d="M17.9516 5.4986
L17.8911 5.5590
" />
<path d="M17.8911 5.5590
L17.7702 5.6195
" />
<path d="M17.7702 5.6195
L17.2864 5.6195
" />
<path d="M18.7378 6.2243
L18.6168 6.1638
" />
<path d="M18.6168 6.1638
L18.5564 6.1033
" />
<path d="M18.5564 6.1033
L18.4959 5.9824
" />
<path d="M18.4959 5.9824
L18.4959 5.6195
" />
<path d="M18.4959 5.6195
L18.5564 5.4986
" />
<path d="M18.5564 5.4986
L18.6168 5.4381
" />
<path d="M18.6168 5.4381
L18.7378 5.3776
" />
<path d="M18.7378 5.3776
L18.9192 5.3776
" />
<path d="M18.9192 5.3776
L19.0402 5.4381
" />
<path d="M19.0402 5.4381
L19.1006 5.4986
" />
<path d="M19.1006 5.4986
L19.1611 5.6195
" />
<path d="M19.1611 5.6195
L19.1611 5.9824
" />
<path d="M19.1611 5.9824
L19.1006 6.1033
" />
<path d="M19.1006 6.1033
L19.0402 6.1638
" />
<path d="M19.0402 6.1638
L18.9192 6.2243
" />
<path d="M18.9192 6.2243
L18.7378 6.2243
" />
<path d="M19.5845 5.3776
L19.8264 6.2243
" />
<path d="M19.8264 6.2243
L20.0683 5.6195
" />
<path d="M20.0683 5.6195
L20.3102 6.2243
" />
<path d="M20.3102 6.2243
L20.5521 5.3776
" />
<path d="M20.9754 6.1638
L21.0964 6.2243
" />
<path d="M21.0964 6.2243
L21.3383 6.2243
" />
<path d="M21.3383 6.2243
L21.4592 6.1638
" />
<path d="M21.4592 6.1638
L21.5197 6.0428
" />
<path d="M21.5197 6.0428
L21.5197 5.9824
" />
<path d="M21.5197 5.9824
L21.4592 5.8614
" />
<path d="M21.4592 5.8614
L21.3383 5.8009
" />
<path d="M21.3383 5.8009
L21.1568 5.8009
" />
<path d="M21.1568 5.8009
L21.0359 5.7405
" />
<path d="M21.0359 5.7405
L20.9754 5.6195
" />
<path d="M20.9754 5.6195
L20.9754 5.5590
" />
<path d="M20.9754 5.5590
L21.0359 5.4381
" />
<path d="M21.0359 5.4381
L21.1568 5.3776
" />
<path d="M21.1568 5.3776
L21.3383 5.3776
" />
<path d="M21.3383 5.3776
L21.4592 5.4381
" />
<path d="M22.0640 5.7405
L23.0316 5.7405
" />
<path d="M24.1806 5.3776
L24.1806 6.2243
" />
<path d="M23.8783 4.8938
L23.5759 5.8009
" />
<path d="M23.5759 5.8009
L24.3621 5.8009
" />
<path d="M25.5111 6.2243
L24.7854 6.2243
" />
<path d="M25.1483 6.2243
L25.1483 4.9543
" />
<path d="M25.1483 4.9543
L25.0273 5.1357
" />
<path d="M25.0273 5.1357
L24.9064 5.2567
" />
<path d="M24.9064 5.2567
L24.7854 5.3171
" />
<path d="M26.0554 6.2243
L26.0554 4.9543
" />
<path d="M26.0554 4.9543
L26.5392 4.9543
" />
<path d="M26.5392 4.9543
L26.6602 5.0147
" />
<path d="M26.6602 5.0147
L26.7206 5.0752
" />
<path d="M26.7206 5.0752
L26.7811 5.1962
" />
<path d="M26.7811 5.1962
L26.7811 5.3776
" />
<path d="M26.7811 5.3776
L26.7206 5.4986
" />
<path d="M26.7206 5.4986
L26.6602 5.5590
" />
<path d="M26.6602 5.5590
L26.5392 5.6195
" />
<path d="M26.5392 5.6195
L26.0554 5.6195
" />
<path d="M27.3254 6.2243
L27.3254 5.3776
" />
<path d="M27.3254 4.9543
L27.2649 5.0147
" />
<path d="M27.2649 5.0147
L27.3254 5.0752
" />
<path d="M27.3254 5.0752
L27.3859 5.0147
" />
<path d="M27.3859 5.0147
L27.3254 4.9543
" />
<path d="M27.3254 4.9543
L27.3254 5.0752
" />
<path d="M27.9302 5.3776
L27.9302 6.2243
" />
<path d="M27.9302 5.4986
L27.9906 5.4381
" />
<path d="M27.9906 5.4381
L28.1116 5.3776
" />
<path d="M28.1116 5.3776
L28.2930 5.3776
" />
<path d="M28.2930 5.3776
L28.4140 5.4381
" />
<path d="M28.4140 5.4381
L28.4745 5.5590
" />
<path d="M28.4745 5.5590
L28.4745 6.2243
" />
<path d="M29.0187 6.1638
L29.1397 6.2243
" />
<path d="M29.1397 6.2243
L29.3816 6.2243
" />
<path d="M29.3816 6.2243
L29.5026 6.1638
" />
<path d="M29.5026 6.1638
L29.5630 6.0428
" />
<path d="M29.5630 6.0428
L29.5630 5.9824
" />
<path d="M29.5630 5.9824
L29.5026 5.8614
" />
<path d="M29.5026 5.8614
L29.3816 5.8009
" />
<path d="M29.3816 5.8009
L29.2002 5.8009
" />
<path d="M29.2002 5.8009
L29.0792 5.7405
" />
<path d="M29.0792 5.7405
L29.0187 5.6195
" />
<path d="M29.0187 5.6195
L29.0187 5.5590
" />
<path d="M29.0187 5.5590
L29.0792 5.4381
" />
<path d="M29.0792 5.4381
L29.2002 5.3776
" />
<path d="M29.2002 5.3776
L29.3816 5.3776
" />
<path d="M29.3816 5.3776
L29.5026 5.4381
" />
<path d="M29.8049 6.3452
L30.7726 6.3452
" />
<path d="M31.0749 6.2243
L31.0749 4.9543
" />
<path d="M31.0749 4.9543
L31.5587 4.9543
" />
<path d="M31.5587 4.9543
L31.6797 5.0147
" />
<path d="M31.6797 5.0147
L31.7402 5.0752
" />
<path d="M31.7402 5.0752
L31.8006 5.1962
" />
<path d="M31.8006 5.1962
L31.8006 5.3776
" />
<path d="M31.8006 5.3776
L31.7402 5.4986
" />
<path d="M31.7402 5.4986
L31.6797 5.5590
" />
<path d="M31.6797 5.5590
L31.5587 5.6195
" />
<path d="M31.5587 5.6195
L31.0749 5.6195
" />
<path d="M32.5868 4.9543
L32.7078 4.9543
" />
<path d="M32.7078 4.9543
L32.8287 5.0147
" />
<path d="M32.8287 5.0147
L32.8892 5.0752
" />
<path d="M32.8892 5.0752
L32.9497 5.1962
" />
<path d="M32.9497 5.1962
L33.0102 5.4381
" />
<path d="M33.0102 5.4381
L33.0102 5.7405
" />
<path d="M33.0102 5.7405
L32.9497 5.9824
" />
<path d="M32.9497 5.9824
L32.8892 6.1033
" />
<path d="M32.8892 6.1033
L32.8287 6.1638
" />
<path d="M32.8287 6.1638
L32.7078 6.2243
" />
<path d="M32.7078 6.2243
L32.5868 6.2243
" />
<path d="M32.5868 6.2243
L32.4659 6.1638
" />
<path d="M32.4659 6.1638
L32.4054 6.1033
" />
<path d="M32.4054 6.1033
L32.3449 5.9824
" />
<path d="M32.3449 5.9824
L32.2845 5.7405
" />
<path d="M32.2845 5.7405
L32.2845 5.4381
" />
<path d="M32.2845 5.4381
L32.3449 5.1962
" />
<path d="M32.3449 5.1962
L32.4054 5.0752
" />
<path d="M32.4054 5.0752
L32.4659 5.0147
" />
<path d="M32.4659 5.0147
L32.5868 4.9543
" />
<path d="M33.5545 6.1033
L33.6149 6.1638
" />
<path d="M33.6149 6.1638
L33.5545 6.2243
" />
<path d="M33.5545 6.2243
L33.4940 6.1638
" />
<path d="M33.4940 6.1638
L33.5545 6.1033
" />
<path d="M33.5545 6.1033
L33.5545 6.2243
" />
<path d="M34.7035 5.3776
L34.7035 6.2243
" />
<path d="M34.4011 4.8938
L34.0987 5.8009
" />
<path d="M34.0987 5.8009
L34.8849 5.8009
" />
<path d="M35.6106 4.9543
L35.7316 4.9543
" />
<path d="M35.7316 4.9543
L35.8526 5.0147
" />
<path d="M35.8526 5.0147
L35.9130 5.0752
" />
<path d="M35.9130 5.0752
L35.9735 5.1962
" />
<path d="M35.9735 5.1962
L36.0340 5.4381
" />
<path d="M36.0340 5.4381
L36.0340 5.7405
" />
<path d="M36.0340 5.7405
L35.9735 5.9824
" />
<path d="M35.9735 5.9824
L35.9130 6.1033
" />
<path d="M35.9130 6.1033
L35.8526 6.1638
" />
<path d="M35.8526 6.1638
L35.7316 6.2243
" />
<path d="M35.7316 6.2243
L35.6106 6.2243
" />
<path d="M35.6106 6.2243
L35.4897 6.1638
" />
<path d="M35.4897 6.1638
L35.4292 6.1033
" />
<path d="M35.4292 6.1033
L35.3687 5.9824
" />
<path d="M35.3687 5.9824
L35.3083 5.7405
" />
<path d="M35.3083 5.7405
L35.3083 5.4381
" />
<path d="M35.3083 5.4381
L35.3687 5.1962
" />
<path d="M35.3687 5.1962
L35.4292 5.0752
" />
<path d="M35.4292 5.0752
L35.4897 5.0147
" />
<path d="M35.4897 5.0147
L35.6106 4.9543
" />
<path d="M36.5783 6.2243
L36.5783 5.3776
" />
<path d="M36.5783 5.4986
L36.6387 5.4381
" />
<path d="M36.6387 5.4381
L36.7597 5.3776
" />
<path d="M36.7597 5.3776
L36.9411 5.3776
" />
<path d="M36.9411 5.3776
L37.0621 5.4381
" />
<path d="M37.0621 5.4381
L37.1226 5.5590
" />
<path d="M37.1226 5.5590
L37.1226 6.2243
" />
<path d="M37.1226 5.5590
L37.1830 5.4381
" />
<path d="M37.1830 5.4381
L37.3040 5.3776
" />
<path d="M37.3040 5.3776
L37.4854 5.3776
" />
<path d="M37.4854 5.3776
L37.6064 5.4381
" />
<path d="M37.6064 5.4381
L37.6668 5.5590
" />
<path d="M37.6668 5.5590
L37.6668 6.2243
" />
<path d="M38.2716 6.2243
L38.2716 5.3776
" />
<path d="M38.2716 5.4986
L38.3321 5.4381
" />
<path d="M38.3321 5.4381
L38.4530 5.3776
" />
<path d="M38.4530 5.3776
L38.6345 5.3776
" />
<path d="M38.6345 5.3776
L38.7554 5.4381
" />
<path d="M38.7554 5.4381
L38.8159 5.5590
" />
<path d="M38.8159 5.5590
L38.8159 6.2243
" />
<path d="M38.8159 5.5590
L38.8764 5.4381
" />
<path d="M38.8764 5.4381
L38.9973 5.3776
" />
<path d="M38.9973 5.3776
L39.1787 5.3776
" />
<path d="M39.1787 5.3776
L39.2997 5.4381
" />
<path d="M39.2997 5.4381
L39.3602 5.5590
" />
<path d="M39.3602 5.5590
L39.3602 6.2243
" />
<path d="M39.6626 6.3452
L40.6302 6.3452
" />
<path d="M40.9326 6.2243
L40.9326 4.9543
" />
<path d="M40.9326 5.5590
L41.6583 5.5590
" />
<path d="M41.6583 6.2243
L41.6583 4.9543
" />
<path d="M42.4445 6.2243
L42.3235 6.1638
" />
<path d="M42.3235 6.1638
L42.2630 6.1033
" />
<path d="M42.2630 6.1033
L42.2026 5.9824
" />
<path d="M42.2026 5.9824
L42.2026 5.6195
" />
<path d="M42.2026 5.6195
L42.2630 5.4986
" />
<path d="M42.2630 5.4986
L42.3235 5.4381
" />
<path d="M42.3235 5.4381
L42.4445 5.3776
" />
<path d="M42.4445 5.3776
L42.6259 5.3776
" />
<path d="M42.6259 5.3776
L42.7468 5.4381
" />
<path d="M42.7468 5.4381
L42.8073 5.4986
" />
<path d="M42.8073 5.4986
L42.8678 5.6195
" />
<path d="M42.8678 5.6195
L42.8678 5.9824
" />
<path d="M42.8678 5.9824
L42.8073 6.1033
" />
<path d="M42.8073 6.1033
L42.7468 6.1638
" />
<path d="M42.7468 6.1638
L42.6259 6.2243
" />
<path d="M42.6259 6.2243
L42.4445 6.2243
" />
<path d="M43.4121 6.2243
L43.4121 5.3776
" />
<path d="M43.4121 5.6195
L43.4726 5.4986
" />
<path d="M43.4726 5.4986
L43.5330 5.4381
" />
<path d="M43.5330 5.4381
L43.6540 5.3776
" />
<path d="M43.6540 5.3776
L43.7749 5.3776
" />
<path d="M44.1983 6.2243
L44.1983 5.3776
" />
<path d="M44.1983 4.9543
L44.1378 5.0147
" />
<path d="M44.1378 5.0147
L44.1983 5.0752
" />
<path d="M44.1983 5.0752
L44.2587 5.0147
" />
<path d="M44.2587 5.0147
L44.1983 4.9543
" />
<path d="M44.1983 4.9543
L44.1983 5.0752
" />
<path d="M44.6821 5.3776
L45.3473 5.3776
" />
<path d="M45.3473 5.3776
L44.6821 6.2243
" />
<path d="M44.6821 6.2243
L45.3473 6.2243
" />
<path d="M46.0126 6.2243
L45.8916 6.1638
" />
<path d="M45.8916 6.1638
L45.8311 6.1033
" />
<path d="M45.8311 6.1033
L45.7706 5.9824
" />
<path d="M45.7706 5.9824
L45.7706 5.6195
" />
<path d="M45.7706 5.6195
L45.8311 5.4986
" />
<path d="M45.8311 5.4986
L45.8916 5.4381
" />
<path d="M45.8916 5.4381
L46.0126 5.3776
" />
<path d="M46.0126 5.3776
L46.1940 5.3776
" />
<path d="M46.1940 5.3776
L46.3149 5.4381
" />
<path d="M46.3149 5.4381
L46.3754 5.4986
" />
<path d="M46.3754 5.4986
L46.4359 5.6195
" />
<path d="M46.4359 5.6195
L46.4359 5.9824
" />
<path d="M46.4359 5.9824
L46.3754 6.1033
" />
<path d="M46.3754 6.1033
L46.3149 6.1638
" />
<path d="M46.3149 6.1638
L46.1940 6.2243
" />
<path d="M46.1940 6.2243
L46.0126 6.2243
" />
<path d="M46.9802 5.3776
L46.9802 6.2243
" />
<path d="M46.9802 5.4986
L47.0406 5.4381
" />
<path d="M47.0406 5.4381
L47.1616 5.3776
" />
<path d="M47.1616 5.3776
L47.3430 5.3776
" />
<path d="M47.3430 5.3776
L47.4640 5.4381
" />
<path d="M47.4640 5.4381
L47.5245 5.5590
" />
<path d="M47.5245 5.5590
L47.5245 6.2243
" />
<path d="M47.9478 5.3776
L48.4316 5.3776
" />
<path d="M48.1292 4.9543
L48.1292 6.0428
" />
<path d="M48.1292 6.0428
L48.1897 6.1638
" />
<path d="M48.1897 6.1638
L48.3106 6.2243
" />
<path d="M48.3106 6.2243
L48.4316 6.2243
" />
<path d="M49.3992 6.2243
L49.3992 5.5590
" />
<path d="M49.3992 5.5590
L49.3387 5.4381
" />
<path d="M49.3387 5.4381
L49.2178 5.3776
" />
<path d="M49.2178 5.3776
L48.9759 5.3776
" />
<path d="M48.9759 5.3776
L48.8549 5.4381
" />
<path d="M49.3992 6.1638
L49.2783 6.2243
" />
<path d="M49.2783 6.2243
L48.9759 6.2243
" />
<path d="M48.9759 6.2243
L48.8549 6.1638
" />
<path d="M48.8549 6.1638
L48.7945 6.0428
" />
<path d="M48.7945 6.0428
L48.7945 5.9219
" />
<path d="M48.7945 5.9219
L48.8549 5.8009
" />
<path d="M48.8549 5.8009
L48.9759 5.7405
" />
<path d="M48.9759 5.7405
L49.2783 5.7405
" />
<path d="M49.2783 5.7405
L49.3992 5.6800
" />
<path d="M50.1854 6.2243
L50.0645 6.1638
" />
<path d="M50.0645 6.1638
L50.0040 6.0428
" />
<path d="M50.0040 6.0428
L50.0040 4.9543
" />
</g></g>
<g style="fill:none; 
stroke:#AFAFAF; stroke-width:0.1100; stroke-opacity:1; 
stroke-linecap:round; stroke-linejoin:round;">
<g transform="rotate(-90.000000 26.2590 5.6450)">
<text x="26.2590" y="6.0000"
textLength="3.2309" font-size="0.9467" lengthAdjust="spacingAndGlyphs"
text-anchor="middle" opacity="0">REF**</text>
</g>
<g class="stroked-text"><desc>REF**</desc>
<path d="M26.5817 6.5917
L26.2436 6.8283
" />
<path d="M26.5817 6.9974
L25.8717 6.9974
" />
<path d="M25.8717 6.9974
L25.8717 6.7269
" />
<path d="M25.8717 6.7269
L25.9055 6.6593
" />
<path d="M25.9055 6.6593
L25.9393 6.6255
" />
<path d="M25.9393 6.6255
L26.0070 6.5917
" />
<path d="M26.0070 6.5917
L26.1084 6.5917
" />
<path d="M26.1084 6.5917
L26.1760 6.6255
" />
<path d="M26.1760 6.6255
L26.2098 6.6593
" />
<path d="M26.2098 6.6593
L26.2436 6.7269
" />
<path d="M26.2436 6.7269
L26.2436 6.9974
" />
<path d="M26.2098 6.2874
L26.2098 6.0507
" />
<path d="M26.5817 5.9493
L26.5817 6.2874
" />
<path d="M26.5817 6.2874
L25.8717 6.2874
" />
<path d="M25.8717 6.2874
L25.8717 5.9493
" />
<path d="M26.2098 5.4083
L26.2098 5.6450
" />
<path d="M26.5817 5.6450
L25.8717 5.6450
" />
<path d="M25.8717 5.6450
L25.8717 5.3069
" />
<path d="M25.8717 4.9350
L26.0408 4.9350
" />
<path d="M25.9732 5.1040
L26.0408 4.9350
" />
<path d="M26.0408 4.9350
L25.9732 4.7660
" />
<path d="M26.1760 5.0364
L26.0408 4.9350
" />
<path d="M26.0408 4.9350
L26.1760 4.8336
" />
<path d="M25.8717 4.3940
L26.0408 4.3940
" />
<path d="M25.9732 4.5631
L26.0408 4.3940
" />
<path d="M26.0408 4.3940
L25.9732 4.2250
" />
<path d="M26.1760 4.4955
L26.0408 4.3940
" />
<path d="M26.0408 4.3940
L26.1760 4.2926
" />
</g></g>
<g style="fill:none; 
stroke:#AFAFAF; stroke-width:0.1000; stroke-opacity:1; 
stroke-linecap:round; stroke-linejoin:round;">
<path d="M23.9640 0.5200
L23.9640 10.7700
" />
<path d="M23.9640 1.3450
L24.3882 1.6450
" />
<path d="M23.9640 10.7700
L26.8140 10.7700
" />
<path d="M24.3882 1.6450
L23.9640 1.9450
" />
<path d="M26.8140 0.5200
L23.9640 0.5200
" />
<path d="M26.8140 1.8450
L27.1940 2.8450
" />
<path d="M26.8140 10.7700
L26.8140 0.5200
" />
<path d="M27.1940 2.8450
L27.1940 8.4450
" />
<path d="M27.1940 8.4450
L26.8140 9.4450
" />
</g> 
</svg>
