<?xml version="1.0" standalone="no"?>
 <!DOCTYPE svg PUBLIC "-//W3C//DTD SVG 1.1//EN" 
 "http://www.w3.org/Graphics/SVG/1.1/DTD/svg11.dtd"> 
<svg
  xmlns:svg="http://www.w3.org/2000/svg"
  xmlns="http://www.w3.org/2000/svg"
  xmlns:xlink="http://www.w3.org/1999/xlink"
  version="1.1"
  width="27.8384mm" height="29.5402mm" viewBox="0.0000 0.0000 27.8384 29.5402">
<title>SVG Image created as working-brd.svg date 2024/04/22 17:49:39 </title>
  <desc>Image generated by PCBNEW </desc>
<g style="fill:#000000; fill-opacity:1.0000;stroke:#000000; stroke-opacity:1.0000;
stroke-linecap:round; stroke-linejoin:round;"
 transform="translate(0 0) scale(1 1)">
</g>
<g style="fill:#FFFFFF; fill-opacity:1.0000; stroke:none;">
<circle cx="13.9299" cy="2.3750" r="0.7000" /> 
</g>
<g style="fill:#FFFFFF; fill-opacity:1.0000; stroke:none;">
<circle cx="13.9299" cy="7.3750" r="0.7000" /> 
</g>
<g style="fill:#FFFFFF; fill-opacity:1.0000; stroke:none;">
<circle cx="13.9299" cy="12.3750" r="0.7000" /> 
</g>
<g style="fill:#FFFFFF; fill-opacity:1.0000; stroke:none;">
<circle cx="13.9299" cy="27.3750" r="0.7000" /> 
</g>
<g style="fill:#FFFFFF; fill-opacity:1.0000; stroke:none;">
<circle cx="21.4299" cy="27.3750" r="0.7000" /> 
</g>
<g style="fill:#FFFFFF; fill-opacity:1.0000; stroke:none;">
<circle cx="21.4299" cy="12.3750" r="0.7000" /> 
</g>
<g style="fill:#FFFFFF; fill-opacity:1.0000; stroke:none;">
<circle cx="21.4299" cy="7.3750" r="0.7000" /> 
</g>
<g style="fill:#FFFFFF; fill-opacity:1.0000; stroke:none;">
<circle cx="21.4299" cy="2.3750" r="0.7000" /> 
<path style="fill:#02FFEE; fill-opacity:0.4000; stroke:none;fill-rule:evenodd;"
d="M 12.6799,1.1250
15.1799,1.1250
15.1799,3.6250
12.6799,3.6250
Z" /> 
</g>
<g style="fill:#02FFEE; fill-opacity:0.4000; stroke:none;">
<circle cx="13.9299" cy="7.3750" r="1.2500" /> 
</g>
<g style="fill:#02FFEE; fill-opacity:0.4000; stroke:none;">
<circle cx="13.9299" cy="12.3750" r="1.2500" /> 
</g>
<g style="fill:#02FFEE; fill-opacity:0.4000; stroke:none;">
<circle cx="13.9299" cy="27.3750" r="1.2500" /> 
</g>
<g style="fill:#02FFEE; fill-opacity:0.4000; stroke:none;">
<circle cx="21.4299" cy="27.3750" r="1.2500" /> 
</g>
<g style="fill:#02FFEE; fill-opacity:0.4000; stroke:none;">
<circle cx="21.4299" cy="12.3750" r="1.2500" /> 
</g>
<g style="fill:#02FFEE; fill-opacity:0.4000; stroke:none;">
<circle cx="21.4299" cy="7.3750" r="1.2500" /> 
</g>
<g style="fill:#02FFEE; fill-opacity:0.4000; stroke:none;">
<circle cx="21.4299" cy="2.3750" r="1.2500" /> 
</g>
<g style="fill:#FFFFFF; fill-opacity:1.0000; stroke:none;">
<circle cx="13.9299" cy="2.3750" r="0.7000" /> 
</g>
<g style="fill:#FFFFFF; fill-opacity:1.0000; stroke:none;">
<circle cx="13.9299" cy="7.3750" r="0.7000" /> 
</g>
<g style="fill:#FFFFFF; fill-opacity:1.0000; stroke:none;">
<circle cx="13.9299" cy="12.3750" r="0.7000" /> 
</g>
<g style="fill:#FFFFFF; fill-opacity:1.0000; stroke:none;">
<circle cx="13.9299" cy="27.3750" r="0.7000" /> 
</g>
<g style="fill:#FFFFFF; fill-opacity:1.0000; stroke:none;">
<circle cx="21.4299" cy="27.3750" r="0.7000" /> 
</g>
<g style="fill:#FFFFFF; fill-opacity:1.0000; stroke:none;">
<circle cx="21.4299" cy="12.3750" r="0.7000" /> 
</g>
<g style="fill:#FFFFFF; fill-opacity:1.0000; stroke:none;">
<circle cx="21.4299" cy="7.3750" r="0.7000" /> 
</g>
<g style="fill:#FFFFFF; fill-opacity:1.0000; stroke:none;">
<circle cx="21.4299" cy="2.3750" r="0.7000" /> 
</g>
<g style="fill:#FFFFFF; fill-opacity:1.0000; stroke:none;">
<circle cx="13.9299" cy="2.3750" r="0.7000" /> 
</g>
<g style="fill:#FFFFFF; fill-opacity:1.0000; stroke:none;">
<circle cx="13.9299" cy="7.3750" r="0.7000" /> 
</g>
<g style="fill:#FFFFFF; fill-opacity:1.0000; stroke:none;">
<circle cx="13.9299" cy="12.3750" r="0.7000" /> 
</g>
<g style="fill:#FFFFFF; fill-opacity:1.0000; stroke:none;">
<circle cx="13.9299" cy="27.3750" r="0.7000" /> 
</g>
<g style="fill:#FFFFFF; fill-opacity:1.0000; stroke:none;">
<circle cx="21.4299" cy="27.3750" r="0.7000" /> 
</g>
<g style="fill:#FFFFFF; fill-opacity:1.0000; stroke:none;">
<circle cx="21.4299" cy="12.3750" r="0.7000" /> 
</g>
<g style="fill:#FFFFFF; fill-opacity:1.0000; stroke:none;">
<circle cx="21.4299" cy="7.3750" r="0.7000" /> 
</g>
<g style="fill:#FFFFFF; fill-opacity:1.0000; stroke:none;">
<circle cx="21.4299" cy="2.3750" r="0.7000" /> 
<path style="fill:#D864FF; fill-opacity:0.4000; stroke:none;fill-rule:evenodd;"
d="M 12.6799,1.1250
15.1799,1.1250
15.1799,3.6250
12.6799,3.6250
Z" /> 
</g>
<g style="fill:#D864FF; fill-opacity:0.4000; stroke:none;">
<circle cx="13.9299" cy="7.3750" r="1.2500" /> 
</g>
<g style="fill:#D864FF; fill-opacity:0.4000; stroke:none;">
<circle cx="13.9299" cy="12.3750" r="1.2500" /> 
</g>
<g style="fill:#D864FF; fill-opacity:0.4000; stroke:none;">
<circle cx="13.9299" cy="27.3750" r="1.2500" /> 
</g>
<g style="fill:#D864FF; fill-opacity:0.4000; stroke:none;">
<circle cx="21.4299" cy="27.3750" r="1.2500" /> 
</g>
<g style="fill:#D864FF; fill-opacity:0.4000; stroke:none;">
<circle cx="21.4299" cy="12.3750" r="1.2500" /> 
</g>
<g style="fill:#D864FF; fill-opacity:0.4000; stroke:none;">
<circle cx="21.4299" cy="7.3750" r="1.2500" /> 
</g>
<g style="fill:#D864FF; fill-opacity:0.4000; stroke:none;">
<circle cx="21.4299" cy="2.3750" r="1.2500" /> 
</g>
<g style="fill:none; 
stroke:#F2EDA1; stroke-width:0.1588; stroke-opacity:1; 
stroke-linecap:round; stroke-linejoin:round;">
<text x="13.9299" y="3.0100"
textLength="5.6651" font-size="1.6933" lengthAdjust="spacingAndGlyphs"
text-anchor="middle" opacity="0">REF**</text>
<g class="stroked-text"><desc>REF**</desc>
<path d="M12.2366 2.9543
L11.8133 2.3495
" />
<path d="M11.5109 2.9543
L11.5109 1.6843
" />
<path d="M11.5109 1.6843
L11.9947 1.6843
" />
<path d="M11.9947 1.6843
L12.1156 1.7447
" />
<path d="M12.1156 1.7447
L12.1761 1.8052
" />
<path d="M12.1761 1.8052
L12.2366 1.9262
" />
<path d="M12.2366 1.9262
L12.2366 2.1076
" />
<path d="M12.2366 2.1076
L12.1761 2.2286
" />
<path d="M12.1761 2.2286
L12.1156 2.2890
" />
<path d="M12.1156 2.2890
L11.9947 2.3495
" />
<path d="M11.9947 2.3495
L11.5109 2.3495
" />
<path d="M12.7809 2.2890
L13.2042 2.2890
" />
<path d="M13.3856 2.9543
L12.7809 2.9543
" />
<path d="M12.7809 2.9543
L12.7809 1.6843
" />
<path d="M12.7809 1.6843
L13.3856 1.6843
" />
<path d="M14.3533 2.2890
L13.9299 2.2890
" />
<path d="M13.9299 2.9543
L13.9299 1.6843
" />
<path d="M13.9299 1.6843
L14.5347 1.6843
" />
<path d="M15.1999 1.6843
L15.1999 1.9867
" />
<path d="M14.8976 1.8657
L15.1999 1.9867
" />
<path d="M15.1999 1.9867
L15.5023 1.8657
" />
<path d="M15.0185 2.2286
L15.1999 1.9867
" />
<path d="M15.1999 1.9867
L15.3814 2.2286
" />
<path d="M16.1676 1.6843
L16.1676 1.9867
" />
<path d="M15.8652 1.8657
L16.1676 1.9867
" />
<path d="M16.1676 1.9867
L16.4699 1.8657
" />
<path d="M15.9861 2.2286
L16.1676 1.9867
" />
<path d="M16.1676 1.9867
L16.3490 2.2286
" />
</g></g>
<g style="fill:none; 
stroke:#F2EDA1; stroke-width:0.1200; stroke-opacity:1; 
stroke-linecap:round; stroke-linejoin:round;">
<path d="M10.8299 1.1750
L10.8299 3.6750
" />
<path d="M11.1499 0.1450
L24.2099 0.1450
" />
<path d="M11.1499 29.4050
L11.1499 0.1450
" />
<path d="M24.2099 0.1450
L24.2099 29.4050
" />
<path d="M24.2099 29.4050
L11.1499 29.4050
" />
</g>
<g style="fill:#FFFFFF; fill-opacity:1.0000; stroke:none;">
<circle cx="13.9299" cy="2.3750" r="0.7000" /> 
</g>
<g style="fill:#FFFFFF; fill-opacity:1.0000; stroke:none;">
<circle cx="13.9299" cy="7.3750" r="0.7000" /> 
</g>
<g style="fill:#FFFFFF; fill-opacity:1.0000; stroke:none;">
<circle cx="13.9299" cy="12.3750" r="0.7000" /> 
</g>
<g style="fill:#FFFFFF; fill-opacity:1.0000; stroke:none;">
<circle cx="13.9299" cy="27.3750" r="0.7000" /> 
</g>
<g style="fill:#FFFFFF; fill-opacity:1.0000; stroke:none;">
<circle cx="21.4299" cy="27.3750" r="0.7000" /> 
</g>
<g style="fill:#FFFFFF; fill-opacity:1.0000; stroke:none;">
<circle cx="21.4299" cy="12.3750" r="0.7000" /> 
</g>
<g style="fill:#FFFFFF; fill-opacity:1.0000; stroke:none;">
<circle cx="21.4299" cy="7.3750" r="0.7000" /> 
</g>
<g style="fill:#FFFFFF; fill-opacity:1.0000; stroke:none;">
<circle cx="21.4299" cy="2.3750" r="0.7000" /> 
</g>
<g style="fill:none; 
stroke:#FF26E2; stroke-width:0.0500; stroke-opacity:1; 
stroke-linecap:round; stroke-linejoin:round;">
<path d="M11.0299 0.0250
L24.3299 0.0250
" />
<path d="M11.0299 29.5250
L11.0299 0.0250
" />
<path d="M24.3299 0.0250
L24.3299 29.5250
" />
<path d="M24.3299 29.5250
L11.0299 29.5250
" />
</g>
<g style="fill:none; 
stroke:#AFAFAF; stroke-width:0.1588; stroke-opacity:1; 
stroke-linecap:round; stroke-linejoin:round;">
<text x="13.9299" y="3.0100"
textLength="27.8599" font-size="1.6933" lengthAdjust="spacingAndGlyphs"
text-anchor="middle" opacity="0">Relay_DPDT_Fujitsu_FTR-F1C</text>
<g class="stroked-text"><desc>Relay_DPDT_Fujitsu_FTR-F1C</desc>
<path d="M1.1392 2.9543
L0.7159 2.3495
" />
<path d="M0.4135 2.9543
L0.4135 1.6843
" />
<path d="M0.4135 1.6843
L0.8973 1.6843
" />
<path d="M0.8973 1.6843
L1.0183 1.7447
" />
<path d="M1.0183 1.7447
L1.0787 1.8052
" />
<path d="M1.0787 1.8052
L1.1392 1.9262
" />
<path d="M1.1392 1.9262
L1.1392 2.1076
" />
<path d="M1.1392 2.1076
L1.0787 2.2286
" />
<path d="M1.0787 2.2286
L1.0183 2.2890
" />
<path d="M1.0183 2.2890
L0.8973 2.3495
" />
<path d="M0.8973 2.3495
L0.4135 2.3495
" />
<path d="M2.1673 2.8938
L2.0464 2.9543
" />
<path d="M2.0464 2.9543
L1.8045 2.9543
" />
<path d="M1.8045 2.9543
L1.6835 2.8938
" />
<path d="M1.6835 2.8938
L1.6230 2.7728
" />
<path d="M1.6230 2.7728
L1.6230 2.2890
" />
<path d="M1.6230 2.2890
L1.6835 2.1681
" />
<path d="M1.6835 2.1681
L1.8045 2.1076
" />
<path d="M1.8045 2.1076
L2.0464 2.1076
" />
<path d="M2.0464 2.1076
L2.1673 2.1681
" />
<path d="M2.1673 2.1681
L2.2278 2.2890
" />
<path d="M2.2278 2.2890
L2.2278 2.4100
" />
<path d="M2.2278 2.4100
L1.6230 2.5309
" />
<path d="M2.9535 2.9543
L2.8326 2.8938
" />
<path d="M2.8326 2.8938
L2.7721 2.7728
" />
<path d="M2.7721 2.7728
L2.7721 1.6843
" />
<path d="M3.9816 2.9543
L3.9816 2.2890
" />
<path d="M3.9816 2.2890
L3.9211 2.1681
" />
<path d="M3.9211 2.1681
L3.8002 2.1076
" />
<path d="M3.8002 2.1076
L3.5583 2.1076
" />
<path d="M3.5583 2.1076
L3.4373 2.1681
" />
<path d="M3.9816 2.8938
L3.8606 2.9543
" />
<path d="M3.8606 2.9543
L3.5583 2.9543
" />
<path d="M3.5583 2.9543
L3.4373 2.8938
" />
<path d="M3.4373 2.8938
L3.3768 2.7728
" />
<path d="M3.3768 2.7728
L3.3768 2.6519
" />
<path d="M3.3768 2.6519
L3.4373 2.5309
" />
<path d="M3.4373 2.5309
L3.5583 2.4705
" />
<path d="M3.5583 2.4705
L3.8606 2.4705
" />
<path d="M3.8606 2.4705
L3.9816 2.4100
" />
<path d="M4.4654 2.1076
L4.7678 2.9543
" />
<path d="M5.0702 2.1076
L4.7678 2.9543
" />
<path d="M4.7678 2.9543
L4.6468 3.2567
" />
<path d="M4.6468 3.2567
L4.5864 3.3171
" />
<path d="M4.5864 3.3171
L4.4654 3.3776
" />
<path d="M5.2516 3.0752
L6.2192 3.0752
" />
<path d="M6.5216 2.9543
L6.5216 1.6843
" />
<path d="M6.5216 1.6843
L6.8240 1.6843
" />
<path d="M6.8240 1.6843
L7.0054 1.7447
" />
<path d="M7.0054 1.7447
L7.1264 1.8657
" />
<path d="M7.1264 1.8657
L7.1868 1.9867
" />
<path d="M7.1868 1.9867
L7.2473 2.2286
" />
<path d="M7.2473 2.2286
L7.2473 2.4100
" />
<path d="M7.2473 2.4100
L7.1868 2.6519
" />
<path d="M7.1868 2.6519
L7.1264 2.7728
" />
<path d="M7.1264 2.7728
L7.0054 2.8938
" />
<path d="M7.0054 2.8938
L6.8240 2.9543
" />
<path d="M6.8240 2.9543
L6.5216 2.9543
" />
<path d="M7.7916 2.9543
L7.7916 1.6843
" />
<path d="M7.7916 1.6843
L8.2754 1.6843
" />
<path d="M8.2754 1.6843
L8.3964 1.7447
" />
<path d="M8.3964 1.7447
L8.4568 1.8052
" />
<path d="M8.4568 1.8052
L8.5173 1.9262
" />
<path d="M8.5173 1.9262
L8.5173 2.1076
" />
<path d="M8.5173 2.1076
L8.4568 2.2286
" />
<path d="M8.4568 2.2286
L8.3964 2.2890
" />
<path d="M8.3964 2.2890
L8.2754 2.3495
" />
<path d="M8.2754 2.3495
L7.7916 2.3495
" />
<path d="M9.0616 2.9543
L9.0616 1.6843
" />
<path d="M9.0616 1.6843
L9.3640 1.6843
" />
<path d="M9.3640 1.6843
L9.5454 1.7447
" />
<path d="M9.5454 1.7447
L9.6664 1.8657
" />
<path d="M9.6664 1.8657
L9.7268 1.9867
" />
<path d="M9.7268 1.9867
L9.7873 2.2286
" />
<path d="M9.7873 2.2286
L9.7873 2.4100
" />
<path d="M9.7873 2.4100
L9.7268 2.6519
" />
<path d="M9.7268 2.6519
L9.6664 2.7728
" />
<path d="M9.6664 2.7728
L9.5454 2.8938
" />
<path d="M9.5454 2.8938
L9.3640 2.9543
" />
<path d="M9.3640 2.9543
L9.0616 2.9543
" />
<path d="M10.1502 1.6843
L10.8759 1.6843
" />
<path d="M10.5130 2.9543
L10.5130 1.6843
" />
<path d="M10.9968 3.0752
L11.9645 3.0752
" />
<path d="M12.6902 2.2890
L12.2668 2.2890
" />
<path d="M12.2668 2.9543
L12.2668 1.6843
" />
<path d="M12.2668 1.6843
L12.8716 1.6843
" />
<path d="M13.8997 2.1076
L13.8997 2.9543
" />
<path d="M13.3554 2.1076
L13.3554 2.7728
" />
<path d="M13.3554 2.7728
L13.4159 2.8938
" />
<path d="M13.4159 2.8938
L13.5368 2.9543
" />
<path d="M13.5368 2.9543
L13.7183 2.9543
" />
<path d="M13.7183 2.9543
L13.8392 2.8938
" />
<path d="M13.8392 2.8938
L13.8997 2.8333
" />
<path d="M14.5045 2.1076
L14.5045 3.1962
" />
<path d="M14.5045 3.1962
L14.4440 3.3171
" />
<path d="M14.4440 3.3171
L14.3230 3.3776
" />
<path d="M14.3230 3.3776
L14.2626 3.3776
" />
<path d="M14.5045 1.6843
L14.4440 1.7447
" />
<path d="M14.4440 1.7447
L14.5045 1.8052
" />
<path d="M14.5045 1.8052
L14.5649 1.7447
" />
<path d="M14.5649 1.7447
L14.5045 1.6843
" />
<path d="M14.5045 1.6843
L14.5045 1.8052
" />
<path d="M15.1092 2.9543
L15.1092 2.1076
" />
<path d="M15.1092 1.6843
L15.0487 1.7447
" />
<path d="M15.0487 1.7447
L15.1092 1.8052
" />
<path d="M15.1092 1.8052
L15.1697 1.7447
" />
<path d="M15.1697 1.7447
L15.1092 1.6843
" />
<path d="M15.1092 1.6843
L15.1092 1.8052
" />
<path d="M15.5326 2.1076
L16.0164 2.1076
" />
<path d="M15.7140 1.6843
L15.7140 2.7728
" />
<path d="M15.7140 2.7728
L15.7745 2.8938
" />
<path d="M15.7745 2.8938
L15.8954 2.9543
" />
<path d="M15.8954 2.9543
L16.0164 2.9543
" />
<path d="M16.3792 2.8938
L16.5002 2.9543
" />
<path d="M16.5002 2.9543
L16.7421 2.9543
" />
<path d="M16.7421 2.9543
L16.8630 2.8938
" />
<path d="M16.8630 2.8938
L16.9235 2.7728
" />
<path d="M16.9235 2.7728
L16.9235 2.7124
" />
<path d="M16.9235 2.7124
L16.8630 2.5914
" />
<path d="M16.8630 2.5914
L16.7421 2.5309
" />
<path d="M16.7421 2.5309
L16.5606 2.5309
" />
<path d="M16.5606 2.5309
L16.4397 2.4705
" />
<path d="M16.4397 2.4705
L16.3792 2.3495
" />
<path d="M16.3792 2.3495
L16.3792 2.2890
" />
<path d="M16.3792 2.2890
L16.4397 2.1681
" />
<path d="M16.4397 2.1681
L16.5606 2.1076
" />
<path d="M16.5606 2.1076
L16.7421 2.1076
" />
<path d="M16.7421 2.1076
L16.8630 2.1681
" />
<path d="M18.0121 2.1076
L18.0121 2.9543
" />
<path d="M17.4678 2.1076
L17.4678 2.7728
" />
<path d="M17.4678 2.7728
L17.5283 2.8938
" />
<path d="M17.5283 2.8938
L17.6492 2.9543
" />
<path d="M17.6492 2.9543
L17.8306 2.9543
" />
<path d="M17.8306 2.9543
L17.9516 2.8938
" />
<path d="M17.9516 2.8938
L18.0121 2.8333
" />
<path d="M18.3145 3.0752
L19.2821 3.0752
" />
<path d="M20.0078 2.2890
L19.5845 2.2890
" />
<path d="M19.5845 2.9543
L19.5845 1.6843
" />
<path d="M19.5845 1.6843
L20.1892 1.6843
" />
<path d="M20.4916 1.6843
L21.2173 1.6843
" />
<path d="M20.8545 2.9543
L20.8545 1.6843
" />
<path d="M22.3664 2.9543
L21.9430 2.3495
" />
<path d="M21.6406 2.9543
L21.6406 1.6843
" />
<path d="M21.6406 1.6843
L22.1245 1.6843
" />
<path d="M22.1245 1.6843
L22.2454 1.7447
" />
<path d="M22.2454 1.7447
L22.3059 1.8052
" />
<path d="M22.3059 1.8052
L22.3664 1.9262
" />
<path d="M22.3664 1.9262
L22.3664 2.1076
" />
<path d="M22.3664 2.1076
L22.3059 2.2286
" />
<path d="M22.3059 2.2286
L22.2454 2.2890
" />
<path d="M22.2454 2.2890
L22.1245 2.3495
" />
<path d="M22.1245 2.3495
L21.6406 2.3495
" />
<path d="M22.9106 2.4705
L23.8783 2.4705
" />
<path d="M24.9064 2.2890
L24.4830 2.2890
" />
<path d="M24.4830 2.9543
L24.4830 1.6843
" />
<path d="M24.4830 1.6843
L25.0878 1.6843
" />
<path d="M26.2368 2.9543
L25.5111 2.9543
" />
<path d="M25.8740 2.9543
L25.8740 1.6843
" />
<path d="M25.8740 1.6843
L25.7530 1.8657
" />
<path d="M25.7530 1.8657
L25.6321 1.9867
" />
<path d="M25.6321 1.9867
L25.5111 2.0471
" />
<path d="M27.5068 2.8333
L27.4464 2.8938
" />
<path d="M27.4464 2.8938
L27.2649 2.9543
" />
<path d="M27.2649 2.9543
L27.1440 2.9543
" />
<path d="M27.1440 2.9543
L26.9626 2.8938
" />
<path d="M26.9626 2.8938
L26.8416 2.7728
" />
<path d="M26.8416 2.7728
L26.7811 2.6519
" />
<path d="M26.7811 2.6519
L26.7206 2.4100
" />
<path d="M26.7206 2.4100
L26.7206 2.2286
" />
<path d="M26.7206 2.2286
L26.7811 1.9867
" />
<path d="M26.7811 1.9867
L26.8416 1.8657
" />
<path d="M26.8416 1.8657
L26.9626 1.7447
" />
<path d="M26.9626 1.7447
L27.1440 1.6843
" />
<path d="M27.1440 1.6843
L27.2649 1.6843
" />
<path d="M27.2649 1.6843
L27.4464 1.7447
" />
<path d="M27.4464 1.7447
L27.5068 1.8052
" />
</g></g>
<g style="fill:none; 
stroke:#AFAFAF; stroke-width:0.1500; stroke-opacity:1; 
stroke-linecap:round; stroke-linejoin:round;">
<g transform="rotate(-90.000000 18.4299 15.5750)">
<text x="18.4299" y="16.3250"
textLength="6.5786" font-size="2.0000" lengthAdjust="spacingAndGlyphs"
text-anchor="middle" opacity="0">REF**</text>
</g>
<g class="stroked-text"><desc>REF**</desc>
<path d="M19.1161 17.5750
L18.4018 18.0750
" />
<path d="M19.1161 18.4321
L17.6161 18.4321
" />
<path d="M17.6161 18.4321
L17.6161 17.8607
" />
<path d="M17.6161 17.8607
L17.6875 17.7179
" />
<path d="M17.6875 17.7179
L17.7589 17.6464
" />
<path d="M17.7589 17.6464
L17.9018 17.5750
" />
<path d="M17.9018 17.5750
L18.1161 17.5750
" />
<path d="M18.1161 17.5750
L18.2589 17.6464
" />
<path d="M18.2589 17.6464
L18.3303 17.7179
" />
<path d="M18.3303 17.7179
L18.4018 17.8607
" />
<path d="M18.4018 17.8607
L18.4018 18.4321
" />
<path d="M18.3303 16.9321
L18.3303 16.4321
" />
<path d="M19.1161 16.2179
L19.1161 16.9321
" />
<path d="M19.1161 16.9321
L17.6161 16.9321
" />
<path d="M17.6161 16.9321
L17.6161 16.2179
" />
<path d="M18.3303 15.0750
L18.3303 15.5750
" />
<path d="M19.1161 15.5750
L17.6161 15.5750
" />
<path d="M17.6161 15.5750
L17.6161 14.8607
" />
<path d="M17.6161 14.0750
L17.9732 14.0750
" />
<path d="M17.8303 14.4321
L17.9732 14.0750
" />
<path d="M17.9732 14.0750
L17.8303 13.7179
" />
<path d="M18.2589 14.2893
L17.9732 14.0750
" />
<path d="M17.9732 14.0750
L18.2589 13.8607
" />
<path d="M17.6161 12.9321
L17.9732 12.9321
" />
<path d="M17.8303 13.2893
L17.9732 12.9321
" />
<path d="M17.9732 12.9321
L17.8303 12.5750
" />
<path d="M18.2589 13.1464
L17.9732 12.9321
" />
<path d="M17.9732 12.9321
L18.2589 12.7179
" />
</g></g>
<g style="fill:none; 
stroke:#AFAFAF; stroke-width:0.1000; stroke-opacity:1; 
stroke-linecap:round; stroke-linejoin:round;">
<path d="M11.2799 1.2750
L11.2799 29.2750
" />
<path d="M11.2799 29.2750
L24.0799 29.2750
" />
<path d="M12.2799 0.2750
L11.2799 1.2750
" />
<path d="M12.2799 0.2750
L24.0799 0.2750
" />
<path d="M24.0799 0.2750
L24.0799 29.2750
" />
</g> 
</svg>
