<?xml version="1.0" standalone="no"?>
 <!DOCTYPE svg PUBLIC "-//W3C//DTD SVG 1.1//EN" 
 "http://www.w3.org/Graphics/SVG/1.1/DTD/svg11.dtd"> 
<svg
  xmlns:svg="http://www.w3.org/2000/svg"
  xmlns="http://www.w3.org/2000/svg"
  xmlns:xlink="http://www.w3.org/1999/xlink"
  version="1.1"
  width="52.2732mm" height="3.6068mm" viewBox="0.0000 0.0000 52.2732 3.6068">
<title>SVG Image created as working-brd.svg date 2024/04/20 17:03:42 </title>
  <desc>Image generated by PCBNEW </desc>
<g style="fill:#000000; fill-opacity:1.0000;stroke:#000000; stroke-opacity:1.0000;
stroke-linecap:round; stroke-linejoin:round;"
 transform="translate(0 0) scale(1 1)">
<path style="fill:#C83434; fill-opacity:1.0000; stroke:none;fill-rule:evenodd;"
d="M 24.2711,0.7775
24.2759,0.7536
24.2894,0.7333
24.3097,0.7198
24.3336,0.7150
25.0636,0.7150
25.0875,0.7198
25.1078,0.7333
25.1214,0.7536
25.1261,0.7775
25.1261,0.9025
25.1214,0.9264
25.1078,0.9467
25.0875,0.9602
25.0636,0.9650
24.3336,0.9650
24.3097,0.9602
24.2894,0.9467
24.2759,0.9264
24.2711,0.9025
Z" /> 
<path style="fill:#C83434; fill-opacity:1.0000; stroke:none;fill-rule:evenodd;"
d="M 24.2711,1.2775
24.2759,1.2536
24.2894,1.2333
24.3097,1.2198
24.3336,1.2150
25.0636,1.2150
25.0875,1.2198
25.1078,1.2333
25.1214,1.2536
25.1261,1.2775
25.1261,1.4025
25.1214,1.4264
25.1078,1.4467
25.0875,1.4602
25.0636,1.4650
24.3336,1.4650
24.3097,1.4602
24.2894,1.4467
24.2759,1.4264
24.2711,1.4025
Z" /> 
<path style="fill:#C83434; fill-opacity:1.0000; stroke:none;fill-rule:evenodd;"
d="M 24.2711,1.7775
24.2759,1.7536
24.2894,1.7333
24.3097,1.7198
24.3336,1.7150
25.0636,1.7150
25.0875,1.7198
25.1078,1.7333
25.1214,1.7536
25.1261,1.7775
25.1261,1.9025
25.1214,1.9264
25.1078,1.9467
25.0875,1.9602
25.0636,1.9650
24.3336,1.9650
24.3097,1.9602
24.2894,1.9467
24.2759,1.9264
24.2711,1.9025
Z" /> 
<path style="fill:#C83434; fill-opacity:1.0000; stroke:none;fill-rule:evenodd;"
d="M 24.2711,2.2775
24.2759,2.2536
24.2894,2.2333
24.3097,2.2198
24.3336,2.2150
25.0636,2.2150
25.0875,2.2198
25.1078,2.2333
25.1214,2.2536
25.1261,2.2775
25.1261,2.4025
25.1214,2.4264
25.1078,2.4467
25.0875,2.4602
25.0636,2.4650
24.3336,2.4650
24.3097,2.4602
24.2894,2.4467
24.2759,2.4264
24.2711,2.4025
Z" /> 
<path style="fill:#C83434; fill-opacity:1.0000; stroke:none;fill-rule:evenodd;"
d="M 24.2711,2.7775
24.2759,2.7536
24.2894,2.7333
24.3097,2.7198
24.3336,2.7150
25.0636,2.7150
25.0875,2.7198
25.1078,2.7333
25.1214,2.7536
25.1261,2.7775
25.1261,2.9025
25.1214,2.9264
25.1078,2.9467
25.0875,2.9602
25.0636,2.9650
24.3336,2.9650
24.3097,2.9602
24.2894,2.9467
24.2759,2.9264
24.2711,2.9025
Z" /> 
<path style="fill:#C83434; fill-opacity:1.0000; stroke:none;fill-rule:evenodd;"
d="M 27.1661,2.7775
27.1709,2.7536
27.1844,2.7333
27.2047,2.7198
27.2286,2.7150
27.9586,2.7150
27.9825,2.7198
28.0028,2.7333
28.0164,2.7536
28.0211,2.7775
28.0211,2.9025
28.0164,2.9264
28.0028,2.9467
27.9825,2.9602
27.9586,2.9650
27.2286,2.9650
27.2047,2.9602
27.1844,2.9467
27.1709,2.9264
27.1661,2.9025
Z" /> 
<path style="fill:#C83434; fill-opacity:1.0000; stroke:none;fill-rule:evenodd;"
d="M 27.1661,2.2775
27.1709,2.2536
27.1844,2.2333
27.2047,2.2198
27.2286,2.2150
27.9586,2.2150
27.9825,2.2198
28.0028,2.2333
28.0164,2.2536
28.0211,2.2775
28.0211,2.4025
28.0164,2.4264
28.0028,2.4467
27.9825,2.4602
27.9586,2.4650
27.2286,2.4650
27.2047,2.4602
27.1844,2.4467
27.1709,2.4264
27.1661,2.4025
Z" /> 
<path style="fill:#C83434; fill-opacity:1.0000; stroke:none;fill-rule:evenodd;"
d="M 27.1661,1.7775
27.1709,1.7536
27.1844,1.7333
27.2047,1.7198
27.2286,1.7150
27.9586,1.7150
27.9825,1.7198
28.0028,1.7333
28.0164,1.7536
28.0211,1.7775
28.0211,1.9025
28.0164,1.9264
28.0028,1.9467
27.9825,1.9602
27.9586,1.9650
27.2286,1.9650
27.2047,1.9602
27.1844,1.9467
27.1709,1.9264
27.1661,1.9025
Z" /> 
<path style="fill:#C83434; fill-opacity:1.0000; stroke:none;fill-rule:evenodd;"
d="M 27.1661,1.2775
27.1709,1.2536
27.1844,1.2333
27.2047,1.2198
27.2286,1.2150
27.9586,1.2150
27.9825,1.2198
28.0028,1.2333
28.0164,1.2536
28.0211,1.2775
28.0211,1.4025
28.0164,1.4264
28.0028,1.4467
27.9825,1.4602
27.9586,1.4650
27.2286,1.4650
27.2047,1.4602
27.1844,1.4467
27.1709,1.4264
27.1661,1.4025
Z" /> 
<path style="fill:#C83434; fill-opacity:1.0000; stroke:none;fill-rule:evenodd;"
d="M 27.1661,0.7775
27.1709,0.7536
27.1844,0.7333
27.2047,0.7198
27.2286,0.7150
27.9586,0.7150
27.9825,0.7198
28.0028,0.7333
28.0164,0.7536
28.0211,0.7775
28.0211,0.9025
28.0164,0.9264
28.0028,0.9467
27.9825,0.9602
27.9586,0.9650
27.2286,0.9650
27.2047,0.9602
27.1844,0.9467
27.1709,0.9264
27.1661,0.9025
Z" /> 
<path style="fill:#C83434; fill-opacity:1.0000; stroke:none;fill-rule:evenodd;"
d="M 25.3261,3.0300
25.3261,0.6500
26.9661,0.6500
26.9661,3.0300
Z" /> 
<path style="fill:#D864FF; fill-opacity:0.4000; stroke:none;fill-rule:evenodd;"
d="M 24.2711,0.7775
24.2759,0.7536
24.2894,0.7333
24.3097,0.7198
24.3336,0.7150
25.0636,0.7150
25.0875,0.7198
25.1078,0.7333
25.1214,0.7536
25.1261,0.7775
25.1261,0.9025
25.1214,0.9264
25.1078,0.9467
25.0875,0.9602
25.0636,0.9650
24.3336,0.9650
24.3097,0.9602
24.2894,0.9467
24.2759,0.9264
24.2711,0.9025
Z" /> 
<path style="fill:#D864FF; fill-opacity:0.4000; stroke:none;fill-rule:evenodd;"
d="M 24.2711,1.2775
24.2759,1.2536
24.2894,1.2333
24.3097,1.2198
24.3336,1.2150
25.0636,1.2150
25.0875,1.2198
25.1078,1.2333
25.1214,1.2536
25.1261,1.2775
25.1261,1.4025
25.1214,1.4264
25.1078,1.4467
25.0875,1.4602
25.0636,1.4650
24.3336,1.4650
24.3097,1.4602
24.2894,1.4467
24.2759,1.4264
24.2711,1.4025
Z" /> 
<path style="fill:#D864FF; fill-opacity:0.4000; stroke:none;fill-rule:evenodd;"
d="M 24.2711,1.7775
24.2759,1.7536
24.2894,1.7333
24.3097,1.7198
24.3336,1.7150
25.0636,1.7150
25.0875,1.7198
25.1078,1.7333
25.1214,1.7536
25.1261,1.7775
25.1261,1.9025
25.1214,1.9264
25.1078,1.9467
25.0875,1.9602
25.0636,1.9650
24.3336,1.9650
24.3097,1.9602
24.2894,1.9467
24.2759,1.9264
24.2711,1.9025
Z" /> 
<path style="fill:#D864FF; fill-opacity:0.4000; stroke:none;fill-rule:evenodd;"
d="M 24.2711,2.2775
24.2759,2.2536
24.2894,2.2333
24.3097,2.2198
24.3336,2.2150
25.0636,2.2150
25.0875,2.2198
25.1078,2.2333
25.1214,2.2536
25.1261,2.2775
25.1261,2.4025
25.1214,2.4264
25.1078,2.4467
25.0875,2.4602
25.0636,2.4650
24.3336,2.4650
24.3097,2.4602
24.2894,2.4467
24.2759,2.4264
24.2711,2.4025
Z" /> 
<path style="fill:#D864FF; fill-opacity:0.4000; stroke:none;fill-rule:evenodd;"
d="M 24.2711,2.7775
24.2759,2.7536
24.2894,2.7333
24.3097,2.7198
24.3336,2.7150
25.0636,2.7150
25.0875,2.7198
25.1078,2.7333
25.1214,2.7536
25.1261,2.7775
25.1261,2.9025
25.1214,2.9264
25.1078,2.9467
25.0875,2.9602
25.0636,2.9650
24.3336,2.9650
24.3097,2.9602
24.2894,2.9467
24.2759,2.9264
24.2711,2.9025
Z" /> 
<path style="fill:#D864FF; fill-opacity:0.4000; stroke:none;fill-rule:evenodd;"
d="M 27.1661,2.7775
27.1709,2.7536
27.1844,2.7333
27.2047,2.7198
27.2286,2.7150
27.9586,2.7150
27.9825,2.7198
28.0028,2.7333
28.0164,2.7536
28.0211,2.7775
28.0211,2.9025
28.0164,2.9264
28.0028,2.9467
27.9825,2.9602
27.9586,2.9650
27.2286,2.9650
27.2047,2.9602
27.1844,2.9467
27.1709,2.9264
27.1661,2.9025
Z" /> 
<path style="fill:#D864FF; fill-opacity:0.4000; stroke:none;fill-rule:evenodd;"
d="M 27.1661,2.2775
27.1709,2.2536
27.1844,2.2333
27.2047,2.2198
27.2286,2.2150
27.9586,2.2150
27.9825,2.2198
28.0028,2.2333
28.0164,2.2536
28.0211,2.2775
28.0211,2.4025
28.0164,2.4264
28.0028,2.4467
27.9825,2.4602
27.9586,2.4650
27.2286,2.4650
27.2047,2.4602
27.1844,2.4467
27.1709,2.4264
27.1661,2.4025
Z" /> 
<path style="fill:#D864FF; fill-opacity:0.4000; stroke:none;fill-rule:evenodd;"
d="M 27.1661,1.7775
27.1709,1.7536
27.1844,1.7333
27.2047,1.7198
27.2286,1.7150
27.9586,1.7150
27.9825,1.7198
28.0028,1.7333
28.0164,1.7536
28.0211,1.7775
28.0211,1.9025
28.0164,1.9264
28.0028,1.9467
27.9825,1.9602
27.9586,1.9650
27.2286,1.9650
27.2047,1.9602
27.1844,1.9467
27.1709,1.9264
27.1661,1.9025
Z" /> 
<path style="fill:#D864FF; fill-opacity:0.4000; stroke:none;fill-rule:evenodd;"
d="M 27.1661,1.2775
27.1709,1.2536
27.1844,1.2333
27.2047,1.2198
27.2286,1.2150
27.9586,1.2150
27.9825,1.2198
28.0028,1.2333
28.0164,1.2536
28.0211,1.2775
28.0211,1.4025
28.0164,1.4264
28.0028,1.4467
27.9825,1.4602
27.9586,1.4650
27.2286,1.4650
27.2047,1.4602
27.1844,1.4467
27.1709,1.4264
27.1661,1.4025
Z" /> 
<path style="fill:#D864FF; fill-opacity:0.4000; stroke:none;fill-rule:evenodd;"
d="M 27.1661,0.7775
27.1709,0.7536
27.1844,0.7333
27.2047,0.7198
27.2286,0.7150
27.9586,0.7150
27.9825,0.7198
28.0028,0.7333
28.0164,0.7536
28.0211,0.7775
28.0211,0.9025
28.0164,0.9264
28.0028,0.9467
27.9825,0.9602
27.9586,0.9650
27.2286,0.9650
27.2047,0.9602
27.1844,0.9467
27.1709,0.9264
27.1661,0.9025
Z" /> 
<path style="fill:#D864FF; fill-opacity:0.4000; stroke:none;fill-rule:evenodd;"
d="M 25.3261,3.0300
25.3261,0.6500
26.9661,0.6500
26.9661,3.0300
Z" /> 
<path style="fill:#B4A09A; fill-opacity:0.9000; stroke:none;fill-rule:evenodd;"
d="M 25.4061,0.8900
25.4183,0.8288
25.4530,0.7769
25.5049,0.7422
25.5661,0.7300
25.9061,0.7300
25.9674,0.7422
26.0193,0.7769
26.0539,0.8288
26.0661,0.8900
26.0661,1.2100
26.0539,1.2712
26.0193,1.3231
25.9674,1.3578
25.9061,1.3700
25.5661,1.3700
25.5049,1.3578
25.4530,1.3231
25.4183,1.2712
25.4061,1.2100
Z" /> 
<path style="fill:#B4A09A; fill-opacity:0.9000; stroke:none;fill-rule:evenodd;"
d="M 25.4061,1.6800
25.4183,1.6188
25.4530,1.5669
25.5049,1.5322
25.5661,1.5200
25.9061,1.5200
25.9674,1.5322
26.0193,1.5669
26.0539,1.6188
26.0661,1.6800
26.0661,2.0000
26.0539,2.0612
26.0193,2.1131
25.9674,2.1478
25.9061,2.1600
25.5661,2.1600
25.5049,2.1478
25.4530,2.1131
25.4183,2.0612
25.4061,2.0000
Z" /> 
<path style="fill:#B4A09A; fill-opacity:0.9000; stroke:none;fill-rule:evenodd;"
d="M 25.4061,2.4700
25.4183,2.4088
25.4530,2.3569
25.5049,2.3222
25.5661,2.3100
25.9061,2.3100
25.9674,2.3222
26.0193,2.3569
26.0539,2.4088
26.0661,2.4700
26.0661,2.7900
26.0539,2.8512
26.0193,2.9031
25.9674,2.9378
25.9061,2.9500
25.5661,2.9500
25.5049,2.9378
25.4530,2.9031
25.4183,2.8512
25.4061,2.7900
Z" /> 
<path style="fill:#B4A09A; fill-opacity:0.9000; stroke:none;fill-rule:evenodd;"
d="M 26.2261,0.8900
26.2383,0.8288
26.2730,0.7769
26.3249,0.7422
26.3861,0.7300
26.7261,0.7300
26.7874,0.7422
26.8393,0.7769
26.8739,0.8288
26.8861,0.8900
26.8861,1.2100
26.8739,1.2712
26.8393,1.3231
26.7874,1.3578
26.7261,1.3700
26.3861,1.3700
26.3249,1.3578
26.2730,1.3231
26.2383,1.2712
26.2261,1.2100
Z" /> 
<path style="fill:#B4A09A; fill-opacity:0.9000; stroke:none;fill-rule:evenodd;"
d="M 26.2261,1.6800
26.2383,1.6188
26.2730,1.5669
26.3249,1.5322
26.3861,1.5200
26.7261,1.5200
26.7874,1.5322
26.8393,1.5669
26.8739,1.6188
26.8861,1.6800
26.8861,2.0000
26.8739,2.0612
26.8393,2.1131
26.7874,2.1478
26.7261,2.1600
26.3861,2.1600
26.3249,2.1478
26.2730,2.1131
26.2383,2.0612
26.2261,2.0000
Z" /> 
<path style="fill:#B4A09A; fill-opacity:0.9000; stroke:none;fill-rule:evenodd;"
d="M 26.2261,2.4700
26.2383,2.4088
26.2730,2.3569
26.3249,2.3222
26.3861,2.3100
26.7261,2.3100
26.7874,2.3222
26.8393,2.3569
26.8739,2.4088
26.8861,2.4700
26.8861,2.7900
26.8739,2.8512
26.8393,2.9031
26.7874,2.9378
26.7261,2.9500
26.3861,2.9500
26.3249,2.9378
26.2730,2.9031
26.2383,2.8512
26.2261,2.7900
Z" /> 
<path style="fill:#B4A09A; fill-opacity:0.9000; stroke:none;fill-rule:evenodd;"
d="M 24.2711,0.7775
24.2759,0.7536
24.2894,0.7333
24.3097,0.7198
24.3336,0.7150
25.0636,0.7150
25.0875,0.7198
25.1078,0.7333
25.1214,0.7536
25.1261,0.7775
25.1261,0.9025
25.1214,0.9264
25.1078,0.9467
25.0875,0.9602
25.0636,0.9650
24.3336,0.9650
24.3097,0.9602
24.2894,0.9467
24.2759,0.9264
24.2711,0.9025
Z" /> 
<path style="fill:#B4A09A; fill-opacity:0.9000; stroke:none;fill-rule:evenodd;"
d="M 24.2711,1.2775
24.2759,1.2536
24.2894,1.2333
24.3097,1.2198
24.3336,1.2150
25.0636,1.2150
25.0875,1.2198
25.1078,1.2333
25.1214,1.2536
25.1261,1.2775
25.1261,1.4025
25.1214,1.4264
25.1078,1.4467
25.0875,1.4602
25.0636,1.4650
24.3336,1.4650
24.3097,1.4602
24.2894,1.4467
24.2759,1.4264
24.2711,1.4025
Z" /> 
<path style="fill:#B4A09A; fill-opacity:0.9000; stroke:none;fill-rule:evenodd;"
d="M 24.2711,1.7775
24.2759,1.7536
24.2894,1.7333
24.3097,1.7198
24.3336,1.7150
25.0636,1.7150
25.0875,1.7198
25.1078,1.7333
25.1214,1.7536
25.1261,1.7775
25.1261,1.9025
25.1214,1.9264
25.1078,1.9467
25.0875,1.9602
25.0636,1.9650
24.3336,1.9650
24.3097,1.9602
24.2894,1.9467
24.2759,1.9264
24.2711,1.9025
Z" /> 
<path style="fill:#B4A09A; fill-opacity:0.9000; stroke:none;fill-rule:evenodd;"
d="M 24.2711,2.2775
24.2759,2.2536
24.2894,2.2333
24.3097,2.2198
24.3336,2.2150
25.0636,2.2150
25.0875,2.2198
25.1078,2.2333
25.1214,2.2536
25.1261,2.2775
25.1261,2.4025
25.1214,2.4264
25.1078,2.4467
25.0875,2.4602
25.0636,2.4650
24.3336,2.4650
24.3097,2.4602
24.2894,2.4467
24.2759,2.4264
24.2711,2.4025
Z" /> 
<path style="fill:#B4A09A; fill-opacity:0.9000; stroke:none;fill-rule:evenodd;"
d="M 24.2711,2.7775
24.2759,2.7536
24.2894,2.7333
24.3097,2.7198
24.3336,2.7150
25.0636,2.7150
25.0875,2.7198
25.1078,2.7333
25.1214,2.7536
25.1261,2.7775
25.1261,2.9025
25.1214,2.9264
25.1078,2.9467
25.0875,2.9602
25.0636,2.9650
24.3336,2.9650
24.3097,2.9602
24.2894,2.9467
24.2759,2.9264
24.2711,2.9025
Z" /> 
<path style="fill:#B4A09A; fill-opacity:0.9000; stroke:none;fill-rule:evenodd;"
d="M 27.1661,2.7775
27.1709,2.7536
27.1844,2.7333
27.2047,2.7198
27.2286,2.7150
27.9586,2.7150
27.9825,2.7198
28.0028,2.7333
28.0164,2.7536
28.0211,2.7775
28.0211,2.9025
28.0164,2.9264
28.0028,2.9467
27.9825,2.9602
27.9586,2.9650
27.2286,2.9650
27.2047,2.9602
27.1844,2.9467
27.1709,2.9264
27.1661,2.9025
Z" /> 
<path style="fill:#B4A09A; fill-opacity:0.9000; stroke:none;fill-rule:evenodd;"
d="M 27.1661,2.2775
27.1709,2.2536
27.1844,2.2333
27.2047,2.2198
27.2286,2.2150
27.9586,2.2150
27.9825,2.2198
28.0028,2.2333
28.0164,2.2536
28.0211,2.2775
28.0211,2.4025
28.0164,2.4264
28.0028,2.4467
27.9825,2.4602
27.9586,2.4650
27.2286,2.4650
27.2047,2.4602
27.1844,2.4467
27.1709,2.4264
27.1661,2.4025
Z" /> 
<path style="fill:#B4A09A; fill-opacity:0.9000; stroke:none;fill-rule:evenodd;"
d="M 27.1661,1.7775
27.1709,1.7536
27.1844,1.7333
27.2047,1.7198
27.2286,1.7150
27.9586,1.7150
27.9825,1.7198
28.0028,1.7333
28.0164,1.7536
28.0211,1.7775
28.0211,1.9025
28.0164,1.9264
28.0028,1.9467
27.9825,1.9602
27.9586,1.9650
27.2286,1.9650
27.2047,1.9602
27.1844,1.9467
27.1709,1.9264
27.1661,1.9025
Z" /> 
<path style="fill:#B4A09A; fill-opacity:0.9000; stroke:none;fill-rule:evenodd;"
d="M 27.1661,1.2775
27.1709,1.2536
27.1844,1.2333
27.2047,1.2198
27.2286,1.2150
27.9586,1.2150
27.9825,1.2198
28.0028,1.2333
28.0164,1.2536
28.0211,1.2775
28.0211,1.4025
28.0164,1.4264
28.0028,1.4467
27.9825,1.4602
27.9586,1.4650
27.2286,1.4650
27.2047,1.4602
27.1844,1.4467
27.1709,1.4264
27.1661,1.4025
Z" /> 
<path style="fill:#B4A09A; fill-opacity:0.9000; stroke:none;fill-rule:evenodd;"
d="M 27.1661,0.7775
27.1709,0.7536
27.1844,0.7333
27.2047,0.7198
27.2286,0.7150
27.9586,0.7150
27.9825,0.7198
28.0028,0.7333
28.0164,0.7536
28.0211,0.7775
28.0211,0.9025
28.0164,0.9264
28.0028,0.9467
27.9825,0.9602
27.9586,0.9650
27.2286,0.9650
27.2047,0.9602
27.1844,0.9467
27.1709,0.9264
27.1661,0.9025
Z" /> 
</g>
<g style="fill:none; 
stroke:#F2EDA1; stroke-width:0.1588; stroke-opacity:1; 
stroke-linecap:round; stroke-linejoin:round;">
<text x="26.1461" y="2.4750"
textLength="5.6651" font-size="1.6933" lengthAdjust="spacingAndGlyphs"
text-anchor="middle" opacity="0">REF**</text>
<g class="stroked-text"><desc>REF**</desc>
<path d="M24.4528 2.4193
L24.0295 1.8145
" />
<path d="M23.7271 2.4193
L23.7271 1.1493
" />
<path d="M23.7271 1.1493
L24.2109 1.1493
" />
<path d="M24.2109 1.1493
L24.3318 1.2097
" />
<path d="M24.3318 1.2097
L24.3923 1.2702
" />
<path d="M24.3923 1.2702
L24.4528 1.3912
" />
<path d="M24.4528 1.3912
L24.4528 1.5726
" />
<path d="M24.4528 1.5726
L24.3923 1.6936
" />
<path d="M24.3923 1.6936
L24.3318 1.7540
" />
<path d="M24.3318 1.7540
L24.2109 1.8145
" />
<path d="M24.2109 1.8145
L23.7271 1.8145
" />
<path d="M24.9971 1.7540
L25.4204 1.7540
" />
<path d="M25.6018 2.4193
L24.9971 2.4193
" />
<path d="M24.9971 2.4193
L24.9971 1.1493
" />
<path d="M24.9971 1.1493
L25.6018 1.1493
" />
<path d="M26.5695 1.7540
L26.1461 1.7540
" />
<path d="M26.1461 2.4193
L26.1461 1.1493
" />
<path d="M26.1461 1.1493
L26.7509 1.1493
" />
<path d="M27.4161 1.1493
L27.4161 1.4517
" />
<path d="M27.1137 1.3307
L27.4161 1.4517
" />
<path d="M27.4161 1.4517
L27.7185 1.3307
" />
<path d="M27.2347 1.6936
L27.4161 1.4517
" />
<path d="M27.4161 1.4517
L27.5976 1.6936
" />
<path d="M28.3837 1.1493
L28.3837 1.4517
" />
<path d="M28.0814 1.3307
L28.3837 1.4517
" />
<path d="M28.3837 1.4517
L28.6861 1.3307
" />
<path d="M28.2023 1.6936
L28.3837 1.4517
" />
<path d="M28.3837 1.4517
L28.5652 1.6936
" />
</g></g>
<g style="fill:none; 
stroke:#F2EDA1; stroke-width:0.1200; stroke-opacity:1; 
stroke-linecap:round; stroke-linejoin:round;">
<path d="M24.6461 0.2300
L27.6461 0.2300
" />
<path d="M24.6461 3.4500
L27.6461 3.4500
" />
<path style="fill:#F2EDA1; fill-opacity:1.0000; 
stroke:#F2EDA1; stroke-width:0.1200; stroke-opacity:1; 
stroke-linecap:round; stroke-linejoin:round;fill-rule:evenodd;"
d="M 24.0961,0.5400
23.6161,0.5400
24.0961,0.0600
Z" /> 
</g>
<g style="fill:none; 
stroke:#FF26E2; stroke-width:0.0500; stroke-opacity:1; 
stroke-linecap:round; stroke-linejoin:round;">
<path d="M24.0161 0.0900
L24.0161 3.5900
" />
<path d="M24.0161 3.5900
L28.2761 3.5900
" />
<path d="M28.2761 0.0900
L24.0161 0.0900
" />
<path d="M28.2761 3.5900
L28.2761 0.0900
" />
</g>
<g style="fill:none; 
stroke:#AFAFAF; stroke-width:0.1588; stroke-opacity:1; 
stroke-linecap:round; stroke-linejoin:round;">
<text x="26.1461" y="2.4750"
textLength="52.2923" font-size="1.6933" lengthAdjust="spacingAndGlyphs"
text-anchor="middle" opacity="0">LFCSP-WD-10-1EP_3x3mm_P0.5mm_EP1.64x2.38mm</text>
<g class="stroked-text"><desc>LFCSP-WD-10-1EP_3x3mm_P0.5mm_EP1.64x2.38mm</desc>
<path d="M1.0183 2.4193
L0.4135 2.4193
" />
<path d="M0.4135 2.4193
L0.4135 1.1493
" />
<path d="M1.8649 1.7540
L1.4416 1.7540
" />
<path d="M1.4416 2.4193
L1.4416 1.1493
" />
<path d="M1.4416 1.1493
L2.0464 1.1493
" />
<path d="M3.2559 2.2983
L3.1954 2.3588
" />
<path d="M3.1954 2.3588
L3.0140 2.4193
" />
<path d="M3.0140 2.4193
L2.8930 2.4193
" />
<path d="M2.8930 2.4193
L2.7116 2.3588
" />
<path d="M2.7116 2.3588
L2.5906 2.2378
" />
<path d="M2.5906 2.2378
L2.5302 2.1169
" />
<path d="M2.5302 2.1169
L2.4697 1.8750
" />
<path d="M2.4697 1.8750
L2.4697 1.6936
" />
<path d="M2.4697 1.6936
L2.5302 1.4517
" />
<path d="M2.5302 1.4517
L2.5906 1.3307
" />
<path d="M2.5906 1.3307
L2.7116 1.2097
" />
<path d="M2.7116 1.2097
L2.8930 1.1493
" />
<path d="M2.8930 1.1493
L3.0140 1.1493
" />
<path d="M3.0140 1.1493
L3.1954 1.2097
" />
<path d="M3.1954 1.2097
L3.2559 1.2702
" />
<path d="M3.7397 2.3588
L3.9211 2.4193
" />
<path d="M3.9211 2.4193
L4.2235 2.4193
" />
<path d="M4.2235 2.4193
L4.3445 2.3588
" />
<path d="M4.3445 2.3588
L4.4049 2.2983
" />
<path d="M4.4049 2.2983
L4.4654 2.1774
" />
<path d="M4.4654 2.1774
L4.4654 2.0564
" />
<path d="M4.4654 2.0564
L4.4049 1.9355
" />
<path d="M4.4049 1.9355
L4.3445 1.8750
" />
<path d="M4.3445 1.8750
L4.2235 1.8145
" />
<path d="M4.2235 1.8145
L3.9816 1.7540
" />
<path d="M3.9816 1.7540
L3.8606 1.6936
" />
<path d="M3.8606 1.6936
L3.8002 1.6331
" />
<path d="M3.8002 1.6331
L3.7397 1.5121
" />
<path d="M3.7397 1.5121
L3.7397 1.3912
" />
<path d="M3.7397 1.3912
L3.8002 1.2702
" />
<path d="M3.8002 1.2702
L3.8606 1.2097
" />
<path d="M3.8606 1.2097
L3.9816 1.1493
" />
<path d="M3.9816 1.1493
L4.2840 1.1493
" />
<path d="M4.2840 1.1493
L4.4654 1.2097
" />
<path d="M5.0097 2.4193
L5.0097 1.1493
" />
<path d="M5.0097 1.1493
L5.4935 1.1493
" />
<path d="M5.4935 1.1493
L5.6145 1.2097
" />
<path d="M5.6145 1.2097
L5.6749 1.2702
" />
<path d="M5.6749 1.2702
L5.7354 1.3912
" />
<path d="M5.7354 1.3912
L5.7354 1.5726
" />
<path d="M5.7354 1.5726
L5.6749 1.6936
" />
<path d="M5.6749 1.6936
L5.6145 1.7540
" />
<path d="M5.6145 1.7540
L5.4935 1.8145
" />
<path d="M5.4935 1.8145
L5.0097 1.8145
" />
<path d="M6.2797 1.9355
L7.2473 1.9355
" />
<path d="M7.7311 1.1493
L8.0335 2.4193
" />
<path d="M8.0335 2.4193
L8.2754 1.5121
" />
<path d="M8.2754 1.5121
L8.5173 2.4193
" />
<path d="M8.5173 2.4193
L8.8197 1.1493
" />
<path d="M9.3035 2.4193
L9.3035 1.1493
" />
<path d="M9.3035 1.1493
L9.6059 1.1493
" />
<path d="M9.6059 1.1493
L9.7873 1.2097
" />
<path d="M9.7873 1.2097
L9.9083 1.3307
" />
<path d="M9.9083 1.3307
L9.9687 1.4517
" />
<path d="M9.9687 1.4517
L10.0292 1.6936
" />
<path d="M10.0292 1.6936
L10.0292 1.8750
" />
<path d="M10.0292 1.8750
L9.9687 2.1169
" />
<path d="M9.9687 2.1169
L9.9083 2.2378
" />
<path d="M9.9083 2.2378
L9.7873 2.3588
" />
<path d="M9.7873 2.3588
L9.6059 2.4193
" />
<path d="M9.6059 2.4193
L9.3035 2.4193
" />
<path d="M10.5735 1.9355
L11.5411 1.9355
" />
<path d="M12.8111 2.4193
L12.0854 2.4193
" />
<path d="M12.4483 2.4193
L12.4483 1.1493
" />
<path d="M12.4483 1.1493
L12.3273 1.3307
" />
<path d="M12.3273 1.3307
L12.2064 1.4517
" />
<path d="M12.2064 1.4517
L12.0854 1.5121
" />
<path d="M13.5973 1.1493
L13.7183 1.1493
" />
<path d="M13.7183 1.1493
L13.8392 1.2097
" />
<path d="M13.8392 1.2097
L13.8997 1.2702
" />
<path d="M13.8997 1.2702
L13.9602 1.3912
" />
<path d="M13.9602 1.3912
L14.0206 1.6331
" />
<path d="M14.0206 1.6331
L14.0206 1.9355
" />
<path d="M14.0206 1.9355
L13.9602 2.1774
" />
<path d="M13.9602 2.1774
L13.8997 2.2983
" />
<path d="M13.8997 2.2983
L13.8392 2.3588
" />
<path d="M13.8392 2.3588
L13.7183 2.4193
" />
<path d="M13.7183 2.4193
L13.5973 2.4193
" />
<path d="M13.5973 2.4193
L13.4764 2.3588
" />
<path d="M13.4764 2.3588
L13.4159 2.2983
" />
<path d="M13.4159 2.2983
L13.3554 2.1774
" />
<path d="M13.3554 2.1774
L13.2949 1.9355
" />
<path d="M13.2949 1.9355
L13.2949 1.6331
" />
<path d="M13.2949 1.6331
L13.3554 1.3912
" />
<path d="M13.3554 1.3912
L13.4159 1.2702
" />
<path d="M13.4159 1.2702
L13.4764 1.2097
" />
<path d="M13.4764 1.2097
L13.5973 1.1493
" />
<path d="M14.5649 1.9355
L15.5326 1.9355
" />
<path d="M16.8026 2.4193
L16.0768 2.4193
" />
<path d="M16.4397 2.4193
L16.4397 1.1493
" />
<path d="M16.4397 1.1493
L16.3187 1.3307
" />
<path d="M16.3187 1.3307
L16.1978 1.4517
" />
<path d="M16.1978 1.4517
L16.0768 1.5121
" />
<path d="M17.3468 1.7540
L17.7702 1.7540
" />
<path d="M17.9516 2.4193
L17.3468 2.4193
" />
<path d="M17.3468 2.4193
L17.3468 1.1493
" />
<path d="M17.3468 1.1493
L17.9516 1.1493
" />
<path d="M18.4959 2.4193
L18.4959 1.1493
" />
<path d="M18.4959 1.1493
L18.9797 1.1493
" />
<path d="M18.9797 1.1493
L19.1006 1.2097
" />
<path d="M19.1006 1.2097
L19.1611 1.2702
" />
<path d="M19.1611 1.2702
L19.2216 1.3912
" />
<path d="M19.2216 1.3912
L19.2216 1.5726
" />
<path d="M19.2216 1.5726
L19.1611 1.6936
" />
<path d="M19.1611 1.6936
L19.1006 1.7540
" />
<path d="M19.1006 1.7540
L18.9797 1.8145
" />
<path d="M18.9797 1.8145
L18.4959 1.8145
" />
<path d="M19.4635 2.5402
L20.4311 2.5402
" />
<path d="M20.6126 1.1493
L21.3987 1.1493
" />
<path d="M21.3987 1.1493
L20.9754 1.6331
" />
<path d="M20.9754 1.6331
L21.1568 1.6331
" />
<path d="M21.1568 1.6331
L21.2778 1.6936
" />
<path d="M21.2778 1.6936
L21.3383 1.7540
" />
<path d="M21.3383 1.7540
L21.3987 1.8750
" />
<path d="M21.3987 1.8750
L21.3987 2.1774
" />
<path d="M21.3987 2.1774
L21.3383 2.2983
" />
<path d="M21.3383 2.2983
L21.2778 2.3588
" />
<path d="M21.2778 2.3588
L21.1568 2.4193
" />
<path d="M21.1568 2.4193
L20.7940 2.4193
" />
<path d="M20.7940 2.4193
L20.6730 2.3588
" />
<path d="M20.6730 2.3588
L20.6126 2.2983
" />
<path d="M21.8221 2.4193
L22.4873 1.5726
" />
<path d="M21.8221 1.5726
L22.4873 2.4193
" />
<path d="M22.8502 1.1493
L23.6364 1.1493
" />
<path d="M23.6364 1.1493
L23.2130 1.6331
" />
<path d="M23.2130 1.6331
L23.3945 1.6331
" />
<path d="M23.3945 1.6331
L23.5154 1.6936
" />
<path d="M23.5154 1.6936
L23.5759 1.7540
" />
<path d="M23.5759 1.7540
L23.6364 1.8750
" />
<path d="M23.6364 1.8750
L23.6364 2.1774
" />
<path d="M23.6364 2.1774
L23.5759 2.2983
" />
<path d="M23.5759 2.2983
L23.5154 2.3588
" />
<path d="M23.5154 2.3588
L23.3945 2.4193
" />
<path d="M23.3945 2.4193
L23.0316 2.4193
" />
<path d="M23.0316 2.4193
L22.9107 2.3588
" />
<path d="M22.9107 2.3588
L22.8502 2.2983
" />
<path d="M24.1806 2.4193
L24.1806 1.5726
" />
<path d="M24.1806 1.6936
L24.2411 1.6331
" />
<path d="M24.2411 1.6331
L24.3621 1.5726
" />
<path d="M24.3621 1.5726
L24.5435 1.5726
" />
<path d="M24.5435 1.5726
L24.6645 1.6331
" />
<path d="M24.6645 1.6331
L24.7249 1.7540
" />
<path d="M24.7249 1.7540
L24.7249 2.4193
" />
<path d="M24.7249 1.7540
L24.7854 1.6331
" />
<path d="M24.7854 1.6331
L24.9064 1.5726
" />
<path d="M24.9064 1.5726
L25.0878 1.5726
" />
<path d="M25.0878 1.5726
L25.2087 1.6331
" />
<path d="M25.2087 1.6331
L25.2692 1.7540
" />
<path d="M25.2692 1.7540
L25.2692 2.4193
" />
<path d="M25.8740 2.4193
L25.8740 1.5726
" />
<path d="M25.8740 1.6936
L25.9345 1.6331
" />
<path d="M25.9345 1.6331
L26.0554 1.5726
" />
<path d="M26.0554 1.5726
L26.2368 1.5726
" />
<path d="M26.2368 1.5726
L26.3578 1.6331
" />
<path d="M26.3578 1.6331
L26.4183 1.7540
" />
<path d="M26.4183 1.7540
L26.4183 2.4193
" />
<path d="M26.4183 1.7540
L26.4787 1.6331
" />
<path d="M26.4787 1.6331
L26.5997 1.5726
" />
<path d="M26.5997 1.5726
L26.7811 1.5726
" />
<path d="M26.7811 1.5726
L26.9021 1.6331
" />
<path d="M26.9021 1.6331
L26.9626 1.7540
" />
<path d="M26.9626 1.7540
L26.9626 2.4193
" />
<path d="M27.2649 2.5402
L28.2326 2.5402
" />
<path d="M28.5349 2.4193
L28.5349 1.1493
" />
<path d="M28.5349 1.1493
L29.0187 1.1493
" />
<path d="M29.0187 1.1493
L29.1397 1.2097
" />
<path d="M29.1397 1.2097
L29.2002 1.2702
" />
<path d="M29.2002 1.2702
L29.2606 1.3912
" />
<path d="M29.2606 1.3912
L29.2606 1.5726
" />
<path d="M29.2606 1.5726
L29.2002 1.6936
" />
<path d="M29.2002 1.6936
L29.1397 1.7540
" />
<path d="M29.1397 1.7540
L29.0187 1.8145
" />
<path d="M29.0187 1.8145
L28.5349 1.8145
" />
<path d="M30.0468 1.1493
L30.1678 1.1493
" />
<path d="M30.1678 1.1493
L30.2887 1.2097
" />
<path d="M30.2887 1.2097
L30.3492 1.2702
" />
<path d="M30.3492 1.2702
L30.4097 1.3912
" />
<path d="M30.4097 1.3912
L30.4702 1.6331
" />
<path d="M30.4702 1.6331
L30.4702 1.9355
" />
<path d="M30.4702 1.9355
L30.4097 2.1774
" />
<path d="M30.4097 2.1774
L30.3492 2.2983
" />
<path d="M30.3492 2.2983
L30.2887 2.3588
" />
<path d="M30.2887 2.3588
L30.1678 2.4193
" />
<path d="M30.1678 2.4193
L30.0468 2.4193
" />
<path d="M30.0468 2.4193
L29.9259 2.3588
" />
<path d="M29.9259 2.3588
L29.8654 2.2983
" />
<path d="M29.8654 2.2983
L29.8049 2.1774
" />
<path d="M29.8049 2.1774
L29.7445 1.9355
" />
<path d="M29.7445 1.9355
L29.7445 1.6331
" />
<path d="M29.7445 1.6331
L29.8049 1.3912
" />
<path d="M29.8049 1.3912
L29.8654 1.2702
" />
<path d="M29.8654 1.2702
L29.9259 1.2097
" />
<path d="M29.9259 1.2097
L30.0468 1.1493
" />
<path d="M31.0145 2.2983
L31.0749 2.3588
" />
<path d="M31.0749 2.3588
L31.0145 2.4193
" />
<path d="M31.0145 2.4193
L30.9540 2.3588
" />
<path d="M30.9540 2.3588
L31.0145 2.2983
" />
<path d="M31.0145 2.2983
L31.0145 2.4193
" />
<path d="M32.2240 1.1493
L31.6192 1.1493
" />
<path d="M31.6192 1.1493
L31.5587 1.7540
" />
<path d="M31.5587 1.7540
L31.6192 1.6936
" />
<path d="M31.6192 1.6936
L31.7402 1.6331
" />
<path d="M31.7402 1.6331
L32.0426 1.6331
" />
<path d="M32.0426 1.6331
L32.1635 1.6936
" />
<path d="M32.1635 1.6936
L32.2240 1.7540
" />
<path d="M32.2240 1.7540
L32.2845 1.8750
" />
<path d="M32.2845 1.8750
L32.2845 2.1774
" />
<path d="M32.2845 2.1774
L32.2240 2.2983
" />
<path d="M32.2240 2.2983
L32.1635 2.3588
" />
<path d="M32.1635 2.3588
L32.0426 2.4193
" />
<path d="M32.0426 2.4193
L31.7402 2.4193
" />
<path d="M31.7402 2.4193
L31.6192 2.3588
" />
<path d="M31.6192 2.3588
L31.5587 2.2983
" />
<path d="M32.8287 2.4193
L32.8287 1.5726
" />
<path d="M32.8287 1.6936
L32.8892 1.6331
" />
<path d="M32.8892 1.6331
L33.0102 1.5726
" />
<path d="M33.0102 1.5726
L33.1916 1.5726
" />
<path d="M33.1916 1.5726
L33.3126 1.6331
" />
<path d="M33.3126 1.6331
L33.3730 1.7540
" />
<path d="M33.3730 1.7540
L33.3730 2.4193
" />
<path d="M33.3730 1.7540
L33.4335 1.6331
" />
<path d="M33.4335 1.6331
L33.5545 1.5726
" />
<path d="M33.5545 1.5726
L33.7359 1.5726
" />
<path d="M33.7359 1.5726
L33.8568 1.6331
" />
<path d="M33.8568 1.6331
L33.9173 1.7540
" />
<path d="M33.9173 1.7540
L33.9173 2.4193
" />
<path d="M34.5221 2.4193
L34.5221 1.5726
" />
<path d="M34.5221 1.6936
L34.5826 1.6331
" />
<path d="M34.5826 1.6331
L34.7035 1.5726
" />
<path d="M34.7035 1.5726
L34.8849 1.5726
" />
<path d="M34.8849 1.5726
L35.0059 1.6331
" />
<path d="M35.0059 1.6331
L35.0664 1.7540
" />
<path d="M35.0664 1.7540
L35.0664 2.4193
" />
<path d="M35.0664 1.7540
L35.1268 1.6331
" />
<path d="M35.1268 1.6331
L35.2478 1.5726
" />
<path d="M35.2478 1.5726
L35.4292 1.5726
" />
<path d="M35.4292 1.5726
L35.5502 1.6331
" />
<path d="M35.5502 1.6331
L35.6106 1.7540
" />
<path d="M35.6106 1.7540
L35.6106 2.4193
" />
<path d="M35.9130 2.5402
L36.8806 2.5402
" />
<path d="M37.1830 1.7540
L37.6064 1.7540
" />
<path d="M37.7878 2.4193
L37.1830 2.4193
" />
<path d="M37.1830 2.4193
L37.1830 1.1493
" />
<path d="M37.1830 1.1493
L37.7878 1.1493
" />
<path d="M38.3321 2.4193
L38.3321 1.1493
" />
<path d="M38.3321 1.1493
L38.8159 1.1493
" />
<path d="M38.8159 1.1493
L38.9368 1.2097
" />
<path d="M38.9368 1.2097
L38.9973 1.2702
" />
<path d="M38.9973 1.2702
L39.0578 1.3912
" />
<path d="M39.0578 1.3912
L39.0578 1.5726
" />
<path d="M39.0578 1.5726
L38.9973 1.6936
" />
<path d="M38.9973 1.6936
L38.9368 1.7540
" />
<path d="M38.9368 1.7540
L38.8159 1.8145
" />
<path d="M38.8159 1.8145
L38.3321 1.8145
" />
<path d="M40.2673 2.4193
L39.5416 2.4193
" />
<path d="M39.9045 2.4193
L39.9045 1.1493
" />
<path d="M39.9045 1.1493
L39.7835 1.3307
" />
<path d="M39.7835 1.3307
L39.6626 1.4517
" />
<path d="M39.6626 1.4517
L39.5416 1.5121
" />
<path d="M40.8116 2.2983
L40.8721 2.3588
" />
<path d="M40.8721 2.3588
L40.8116 2.4193
" />
<path d="M40.8116 2.4193
L40.7511 2.3588
" />
<path d="M40.7511 2.3588
L40.8116 2.2983
" />
<path d="M40.8116 2.2983
L40.8116 2.4193
" />
<path d="M41.9606 1.1493
L41.7187 1.1493
" />
<path d="M41.7187 1.1493
L41.5978 1.2097
" />
<path d="M41.5978 1.2097
L41.5373 1.2702
" />
<path d="M41.5373 1.2702
L41.4164 1.4517
" />
<path d="M41.4164 1.4517
L41.3559 1.6936
" />
<path d="M41.3559 1.6936
L41.3559 2.1774
" />
<path d="M41.3559 2.1774
L41.4164 2.2983
" />
<path d="M41.4164 2.2983
L41.4768 2.3588
" />
<path d="M41.4768 2.3588
L41.5978 2.4193
" />
<path d="M41.5978 2.4193
L41.8397 2.4193
" />
<path d="M41.8397 2.4193
L41.9606 2.3588
" />
<path d="M41.9606 2.3588
L42.0211 2.2983
" />
<path d="M42.0211 2.2983
L42.0816 2.1774
" />
<path d="M42.0816 2.1774
L42.0816 1.8750
" />
<path d="M42.0816 1.8750
L42.0211 1.7540
" />
<path d="M42.0211 1.7540
L41.9606 1.6936
" />
<path d="M41.9606 1.6936
L41.8397 1.6331
" />
<path d="M41.8397 1.6331
L41.5978 1.6331
" />
<path d="M41.5978 1.6331
L41.4768 1.6936
" />
<path d="M41.4768 1.6936
L41.4164 1.7540
" />
<path d="M41.4164 1.7540
L41.3559 1.8750
" />
<path d="M43.1702 1.5726
L43.1702 2.4193
" />
<path d="M42.8678 1.0888
L42.5654 1.9959
" />
<path d="M42.5654 1.9959
L43.3516 1.9959
" />
<path d="M43.7145 2.4193
L44.3797 1.5726
" />
<path d="M43.7145 1.5726
L44.3797 2.4193
" />
<path d="M44.8030 1.2702
L44.8635 1.2097
" />
<path d="M44.8635 1.2097
L44.9845 1.1493
" />
<path d="M44.9845 1.1493
L45.2868 1.1493
" />
<path d="M45.2868 1.1493
L45.4078 1.2097
" />
<path d="M45.4078 1.2097
L45.4683 1.2702
" />
<path d="M45.4683 1.2702
L45.5287 1.3912
" />
<path d="M45.5287 1.3912
L45.5287 1.5121
" />
<path d="M45.5287 1.5121
L45.4683 1.6936
" />
<path d="M45.4683 1.6936
L44.7426 2.4193
" />
<path d="M44.7426 2.4193
L45.5287 2.4193
" />
<path d="M46.0730 2.2983
L46.1335 2.3588
" />
<path d="M46.1335 2.3588
L46.0730 2.4193
" />
<path d="M46.0730 2.4193
L46.0126 2.3588
" />
<path d="M46.0126 2.3588
L46.0730 2.2983
" />
<path d="M46.0730 2.2983
L46.0730 2.4193
" />
<path d="M46.5568 1.1493
L47.3430 1.1493
" />
<path d="M47.3430 1.1493
L46.9197 1.6331
" />
<path d="M46.9197 1.6331
L47.1011 1.6331
" />
<path d="M47.1011 1.6331
L47.2221 1.6936
" />
<path d="M47.2221 1.6936
L47.2826 1.7540
" />
<path d="M47.2826 1.7540
L47.3430 1.8750
" />
<path d="M47.3430 1.8750
L47.3430 2.1774
" />
<path d="M47.3430 2.1774
L47.2826 2.2983
" />
<path d="M47.2826 2.2983
L47.2221 2.3588
" />
<path d="M47.2221 2.3588
L47.1011 2.4193
" />
<path d="M47.1011 2.4193
L46.7383 2.4193
" />
<path d="M46.7383 2.4193
L46.6173 2.3588
" />
<path d="M46.6173 2.3588
L46.5568 2.2983
" />
<path d="M48.0687 1.6936
L47.9478 1.6331
" />
<path d="M47.9478 1.6331
L47.8873 1.5726
" />
<path d="M47.8873 1.5726
L47.8268 1.4517
" />
<path d="M47.8268 1.4517
L47.8268 1.3912
" />
<path d="M47.8268 1.3912
L47.8873 1.2702
" />
<path d="M47.8873 1.2702
L47.9478 1.2097
" />
<path d="M47.9478 1.2097
L48.0687 1.1493
" />
<path d="M48.0687 1.1493
L48.3106 1.1493
" />
<path d="M48.3106 1.1493
L48.4316 1.2097
" />
<path d="M48.4316 1.2097
L48.4921 1.2702
" />
<path d="M48.4921 1.2702
L48.5526 1.3912
" />
<path d="M48.5526 1.3912
L48.5526 1.4517
" />
<path d="M48.5526 1.4517
L48.4921 1.5726
" />
<path d="M48.4921 1.5726
L48.4316 1.6331
" />
<path d="M48.4316 1.6331
L48.3106 1.6936
" />
<path d="M48.3106 1.6936
L48.0687 1.6936
" />
<path d="M48.0687 1.6936
L47.9478 1.7540
" />
<path d="M47.9478 1.7540
L47.8873 1.8145
" />
<path d="M47.8873 1.8145
L47.8268 1.9355
" />
<path d="M47.8268 1.9355
L47.8268 2.1774
" />
<path d="M47.8268 2.1774
L47.8873 2.2983
" />
<path d="M47.8873 2.2983
L47.9478 2.3588
" />
<path d="M47.9478 2.3588
L48.0687 2.4193
" />
<path d="M48.0687 2.4193
L48.3106 2.4193
" />
<path d="M48.3106 2.4193
L48.4316 2.3588
" />
<path d="M48.4316 2.3588
L48.4921 2.2983
" />
<path d="M48.4921 2.2983
L48.5526 2.1774
" />
<path d="M48.5526 2.1774
L48.5526 1.9355
" />
<path d="M48.5526 1.9355
L48.4921 1.8145
" />
<path d="M48.4921 1.8145
L48.4316 1.7540
" />
<path d="M48.4316 1.7540
L48.3106 1.6936
" />
<path d="M49.0968 2.4193
L49.0968 1.5726
" />
<path d="M49.0968 1.6936
L49.1573 1.6331
" />
<path d="M49.1573 1.6331
L49.2783 1.5726
" />
<path d="M49.2783 1.5726
L49.4597 1.5726
" />
<path d="M49.4597 1.5726
L49.5806 1.6331
" />
<path d="M49.5806 1.6331
L49.6411 1.7540
" />
<path d="M49.6411 1.7540
L49.6411 2.4193
" />
<path d="M49.6411 1.7540
L49.7016 1.6331
" />
<path d="M49.7016 1.6331
L49.8226 1.5726
" />
<path d="M49.8226 1.5726
L50.0040 1.5726
" />
<path d="M50.0040 1.5726
L50.1249 1.6331
" />
<path d="M50.1249 1.6331
L50.1854 1.7540
" />
<path d="M50.1854 1.7540
L50.1854 2.4193
" />
<path d="M50.7902 2.4193
L50.7902 1.5726
" />
<path d="M50.7902 1.6936
L50.8506 1.6331
" />
<path d="M50.8506 1.6331
L50.9716 1.5726
" />
<path d="M50.9716 1.5726
L51.1530 1.5726
" />
<path d="M51.1530 1.5726
L51.2740 1.6331
" />
<path d="M51.2740 1.6331
L51.3345 1.7540
" />
<path d="M51.3345 1.7540
L51.3345 2.4193
" />
<path d="M51.3345 1.7540
L51.3949 1.6331
" />
<path d="M51.3949 1.6331
L51.5159 1.5726
" />
<path d="M51.5159 1.5726
L51.6973 1.5726
" />
<path d="M51.6973 1.5726
L51.8183 1.6331
" />
<path d="M51.8183 1.6331
L51.8787 1.7540
" />
<path d="M51.8787 1.7540
L51.8787 2.4193
" />
</g></g>
<g style="fill:none; 
stroke:#AFAFAF; stroke-width:0.1100; stroke-opacity:1; 
stroke-linecap:round; stroke-linejoin:round;">
<text x="26.1461" y="2.2150"
textLength="3.3943" font-size="1.0000" lengthAdjust="spacingAndGlyphs"
text-anchor="middle" opacity="0">REF**</text>
<g class="stroked-text"><desc>REF**</desc>
<path d="M25.1461 2.1812
L24.8961 1.8241
" />
<path d="M24.7176 2.1812
L24.7176 1.4312
" />
<path d="M24.7176 1.4312
L25.0033 1.4312
" />
<path d="M25.0033 1.4312
L25.0747 1.4670
" />
<path d="M25.0747 1.4670
L25.1104 1.5027
" />
<path d="M25.1104 1.5027
L25.1461 1.5741
" />
<path d="M25.1461 1.5741
L25.1461 1.6812
" />
<path d="M25.1461 1.6812
L25.1104 1.7527
" />
<path d="M25.1104 1.7527
L25.0747 1.7884
" />
<path d="M25.0747 1.7884
L25.0033 1.8241
" />
<path d="M25.0033 1.8241
L24.7176 1.8241
" />
<path d="M25.4676 1.7884
L25.7176 1.7884
" />
<path d="M25.8247 2.1812
L25.4676 2.1812
" />
<path d="M25.4676 2.1812
L25.4676 1.4312
" />
<path d="M25.4676 1.4312
L25.8247 1.4312
" />
<path d="M26.3961 1.7884
L26.1461 1.7884
" />
<path d="M26.1461 2.1812
L26.1461 1.4312
" />
<path d="M26.1461 1.4312
L26.5033 1.4312
" />
<path d="M26.8961 1.4312
L26.8961 1.6098
" />
<path d="M26.7176 1.5384
L26.8961 1.6098
" />
<path d="M26.8961 1.6098
L27.0747 1.5384
" />
<path d="M26.7890 1.7527
L26.8961 1.6098
" />
<path d="M26.8961 1.6098
L27.0033 1.7527
" />
<path d="M27.4676 1.4312
L27.4676 1.6098
" />
<path d="M27.2890 1.5384
L27.4676 1.6098
" />
<path d="M27.4676 1.6098
L27.6461 1.5384
" />
<path d="M27.3604 1.7527
L27.4676 1.6098
" />
<path d="M27.4676 1.6098
L27.5747 1.7527
" />
</g></g>
<g style="fill:none; 
stroke:#AFAFAF; stroke-width:0.1000; stroke-opacity:1; 
stroke-linecap:round; stroke-linejoin:round;">
<path d="M24.6461 1.0900
L25.3961 0.3400
" />
<path d="M24.6461 3.3400
L24.6461 1.0900
" />
<path d="M25.3961 0.3400
L27.6461 0.3400
" />
<path d="M27.6461 0.3400
L27.6461 3.3400
" />
<path d="M27.6461 3.3400
L24.6461 3.3400
" />
</g> 
</svg>
