<?xml version="1.0" standalone="no"?>
 <!DOCTYPE svg PUBLIC "-//W3C//DTD SVG 1.1//EN" 
 "http://www.w3.org/Graphics/SVG/1.1/DTD/svg11.dtd"> 
<svg
  xmlns:svg="http://www.w3.org/2000/svg"
  xmlns="http://www.w3.org/2000/svg"
  xmlns:xlink="http://www.w3.org/1999/xlink"
  version="1.1"
  width="13.3858mm" height="5.3848mm" viewBox="0.0000 0.0000 13.3858 5.3848">
<title>SVG Image created as working-brd.svg date 2024/04/18 16:31:03 </title>
  <desc>Image generated by PCBNEW </desc>
<g style="fill:#000000; fill-opacity:1.0000;stroke:#000000; stroke-opacity:1.0000;
stroke-linecap:round; stroke-linejoin:round;"
 transform="translate(0 0) scale(1 1)">
<path style="fill:#C83434; fill-opacity:1.0000; stroke:none;fill-rule:evenodd;"
d="M 8.6130,0.2820
8.6130,5.1080
3.2690,5.1080
3.2690,0.2820
Z" /> 
<path style="fill:#C83434; fill-opacity:1.0000; stroke:none;fill-rule:evenodd;"
d="M 10.1370,1.2980
10.1370,2.2630
9.3750,2.2630
9.3750,1.2980
Z" /> 
<path style="fill:#C83434; fill-opacity:1.0000; stroke:none;fill-rule:evenodd;"
d="M 10.1370,3.1270
10.1370,4.0920
9.3750,4.0920
9.3750,3.1270
Z" /> 
<path style="fill:#D864FF; fill-opacity:0.4000; stroke:none;fill-rule:evenodd;"
d="M 8.6130,0.2820
8.6130,5.1080
3.2690,5.1080
3.2690,0.2820
Z" /> 
<path style="fill:#D864FF; fill-opacity:0.4000; stroke:none;fill-rule:evenodd;"
d="M 10.1370,1.2980
10.1370,2.2630
9.3750,2.2630
9.3750,1.2980
Z" /> 
<path style="fill:#D864FF; fill-opacity:0.4000; stroke:none;fill-rule:evenodd;"
d="M 10.1370,3.1270
10.1370,4.0920
9.3750,4.0920
9.3750,3.1270
Z" /> 
<path style="fill:#B4A09A; fill-opacity:0.9000; stroke:none;fill-rule:evenodd;"
d="M 8.6130,0.2820
8.6130,5.1080
3.2690,5.1080
3.2690,0.2820
Z" /> 
<path style="fill:#B4A09A; fill-opacity:0.9000; stroke:none;fill-rule:evenodd;"
d="M 10.1370,1.2980
10.1370,2.2630
9.3750,2.2630
9.3750,1.2980
Z" /> 
<path style="fill:#B4A09A; fill-opacity:0.9000; stroke:none;fill-rule:evenodd;"
d="M 10.1370,3.1270
10.1370,4.0920
9.3750,4.0920
9.3750,3.1270
Z" /> 
</g>
<g style="fill:none; 
stroke:#F2EDA1; stroke-width:0.1588; stroke-opacity:1; 
stroke-linecap:round; stroke-linejoin:round;">
<text x="6.7030" y="3.3300"
textLength="5.6651" font-size="1.6933" lengthAdjust="spacingAndGlyphs"
text-anchor="middle" opacity="0">REF**</text>
<g class="stroked-text"><desc>REF**</desc>
<path d="M5.0097 3.2743
L4.5864 2.6695
" />
<path d="M4.2840 3.2743
L4.2840 2.0043
" />
<path d="M4.2840 2.0043
L4.7678 2.0043
" />
<path d="M4.7678 2.0043
L4.8887 2.0647
" />
<path d="M4.8887 2.0647
L4.9492 2.1252
" />
<path d="M4.9492 2.1252
L5.0097 2.2462
" />
<path d="M5.0097 2.2462
L5.0097 2.4276
" />
<path d="M5.0097 2.4276
L4.9492 2.5486
" />
<path d="M4.9492 2.5486
L4.8887 2.6090
" />
<path d="M4.8887 2.6090
L4.7678 2.6695
" />
<path d="M4.7678 2.6695
L4.2840 2.6695
" />
<path d="M5.5540 2.6090
L5.9773 2.6090
" />
<path d="M6.1587 3.2743
L5.5540 3.2743
" />
<path d="M5.5540 3.2743
L5.5540 2.0043
" />
<path d="M5.5540 2.0043
L6.1587 2.0043
" />
<path d="M7.1264 2.6090
L6.7030 2.6090
" />
<path d="M6.7030 3.2743
L6.7030 2.0043
" />
<path d="M6.7030 2.0043
L7.3078 2.0043
" />
<path d="M7.9730 2.0043
L7.9730 2.3067
" />
<path d="M7.6706 2.1857
L7.9730 2.3067
" />
<path d="M7.9730 2.3067
L8.2754 2.1857
" />
<path d="M7.7916 2.5486
L7.9730 2.3067
" />
<path d="M7.9730 2.3067
L8.1545 2.5486
" />
<path d="M8.9406 2.0043
L8.9406 2.3067
" />
<path d="M8.6383 2.1857
L8.9406 2.3067
" />
<path d="M8.9406 2.3067
L9.2430 2.1857
" />
<path d="M8.7592 2.5486
L8.9406 2.3067
" />
<path d="M8.9406 2.3067
L9.1221 2.5486
" />
</g></g>
<g style="fill:none; 
stroke:#F2EDA1; stroke-width:0.1200; stroke-opacity:1; 
stroke-linecap:round; stroke-linejoin:round;">
<path d="M9.2410 1.2155
L8.8410 1.2155
" />
<path d="M9.2410 2.3445
L8.8410 2.3445
" />
<path d="M9.2410 3.0455
L8.8410 3.0455
" />
<path d="M9.2410 4.1745
L8.8410 4.1745
" />
</g>
<g style="fill:none; 
stroke:#FF26E2; stroke-width:0.0500; stroke-opacity:1; 
stroke-linecap:round; stroke-linejoin:round;">
<path d="M3.0130 0.0250
L3.0130 5.3650
" />
<path d="M3.0130 5.3650
L8.8630 5.3650
" />
<path d="M8.8630 0.0250
L3.0130 0.0250
" />
<path d="M8.8630 1.0850
L8.8630 0.0250
" />
<path d="M8.8630 4.3050
L10.3930 4.3050
" />
<path d="M8.8630 5.3650
L8.8630 4.3050
" />
<path d="M10.3930 1.0850
L8.8630 1.0850
" />
<path d="M10.3930 4.3050
L10.3930 1.0850
" />
</g>
<g style="fill:none; 
stroke:#AFAFAF; stroke-width:0.1588; stroke-opacity:1; 
stroke-linecap:round; stroke-linejoin:round;">
<text x="6.7030" y="3.3300"
textLength="13.4061" font-size="1.6933" lengthAdjust="spacingAndGlyphs"
text-anchor="middle" opacity="0">D_Powermite3</text>
<g class="stroked-text"><desc>D_Powermite3</desc>
<path d="M0.4135 3.2743
L0.4135 2.0043
" />
<path d="M0.4135 2.0043
L0.7159 2.0043
" />
<path d="M0.7159 2.0043
L0.8973 2.0647
" />
<path d="M0.8973 2.0647
L1.0183 2.1857
" />
<path d="M1.0183 2.1857
L1.0787 2.3067
" />
<path d="M1.0787 2.3067
L1.1392 2.5486
" />
<path d="M1.1392 2.5486
L1.1392 2.7300
" />
<path d="M1.1392 2.7300
L1.0787 2.9719
" />
<path d="M1.0787 2.9719
L1.0183 3.0928
" />
<path d="M1.0183 3.0928
L0.8973 3.2138
" />
<path d="M0.8973 3.2138
L0.7159 3.2743
" />
<path d="M0.7159 3.2743
L0.4135 3.2743
" />
<path d="M1.3811 3.3952
L2.3487 3.3952
" />
<path d="M2.6511 3.2743
L2.6511 2.0043
" />
<path d="M2.6511 2.0043
L3.1349 2.0043
" />
<path d="M3.1349 2.0043
L3.2559 2.0647
" />
<path d="M3.2559 2.0647
L3.3164 2.1252
" />
<path d="M3.3164 2.1252
L3.3768 2.2462
" />
<path d="M3.3768 2.2462
L3.3768 2.4276
" />
<path d="M3.3768 2.4276
L3.3164 2.5486
" />
<path d="M3.3164 2.5486
L3.2559 2.6090
" />
<path d="M3.2559 2.6090
L3.1349 2.6695
" />
<path d="M3.1349 2.6695
L2.6511 2.6695
" />
<path d="M4.1026 3.2743
L3.9816 3.2138
" />
<path d="M3.9816 3.2138
L3.9211 3.1533
" />
<path d="M3.9211 3.1533
L3.8606 3.0324
" />
<path d="M3.8606 3.0324
L3.8606 2.6695
" />
<path d="M3.8606 2.6695
L3.9211 2.5486
" />
<path d="M3.9211 2.5486
L3.9816 2.4881
" />
<path d="M3.9816 2.4881
L4.1026 2.4276
" />
<path d="M4.1026 2.4276
L4.2840 2.4276
" />
<path d="M4.2840 2.4276
L4.4049 2.4881
" />
<path d="M4.4049 2.4881
L4.4654 2.5486
" />
<path d="M4.4654 2.5486
L4.5259 2.6695
" />
<path d="M4.5259 2.6695
L4.5259 3.0324
" />
<path d="M4.5259 3.0324
L4.4654 3.1533
" />
<path d="M4.4654 3.1533
L4.4049 3.2138
" />
<path d="M4.4049 3.2138
L4.2840 3.2743
" />
<path d="M4.2840 3.2743
L4.1026 3.2743
" />
<path d="M4.9492 2.4276
L5.1911 3.2743
" />
<path d="M5.1911 3.2743
L5.4330 2.6695
" />
<path d="M5.4330 2.6695
L5.6749 3.2743
" />
<path d="M5.6749 3.2743
L5.9168 2.4276
" />
<path d="M6.8845 3.2138
L6.7635 3.2743
" />
<path d="M6.7635 3.2743
L6.5216 3.2743
" />
<path d="M6.5216 3.2743
L6.4006 3.2138
" />
<path d="M6.4006 3.2138
L6.3402 3.0928
" />
<path d="M6.3402 3.0928
L6.3402 2.6090
" />
<path d="M6.3402 2.6090
L6.4006 2.4881
" />
<path d="M6.4006 2.4881
L6.5216 2.4276
" />
<path d="M6.5216 2.4276
L6.7635 2.4276
" />
<path d="M6.7635 2.4276
L6.8845 2.4881
" />
<path d="M6.8845 2.4881
L6.9449 2.6090
" />
<path d="M6.9449 2.6090
L6.9449 2.7300
" />
<path d="M6.9449 2.7300
L6.3402 2.8509
" />
<path d="M7.4892 3.2743
L7.4892 2.4276
" />
<path d="M7.4892 2.6695
L7.5497 2.5486
" />
<path d="M7.5497 2.5486
L7.6102 2.4881
" />
<path d="M7.6102 2.4881
L7.7311 2.4276
" />
<path d="M7.7311 2.4276
L7.8521 2.4276
" />
<path d="M8.2754 3.2743
L8.2754 2.4276
" />
<path d="M8.2754 2.5486
L8.3359 2.4881
" />
<path d="M8.3359 2.4881
L8.4568 2.4276
" />
<path d="M8.4568 2.4276
L8.6383 2.4276
" />
<path d="M8.6383 2.4276
L8.7592 2.4881
" />
<path d="M8.7592 2.4881
L8.8197 2.6090
" />
<path d="M8.8197 2.6090
L8.8197 3.2743
" />
<path d="M8.8197 2.6090
L8.8802 2.4881
" />
<path d="M8.8802 2.4881
L9.0011 2.4276
" />
<path d="M9.0011 2.4276
L9.1826 2.4276
" />
<path d="M9.1826 2.4276
L9.3035 2.4881
" />
<path d="M9.3035 2.4881
L9.3640 2.6090
" />
<path d="M9.3640 2.6090
L9.3640 3.2743
" />
<path d="M9.9687 3.2743
L9.9687 2.4276
" />
<path d="M9.9687 2.0043
L9.9083 2.0647
" />
<path d="M9.9083 2.0647
L9.9687 2.1252
" />
<path d="M9.9687 2.1252
L10.0292 2.0647
" />
<path d="M10.0292 2.0647
L9.9687 2.0043
" />
<path d="M9.9687 2.0043
L9.9687 2.1252
" />
<path d="M10.3921 2.4276
L10.8759 2.4276
" />
<path d="M10.5735 2.0043
L10.5735 3.0928
" />
<path d="M10.5735 3.0928
L10.6340 3.2138
" />
<path d="M10.6340 3.2138
L10.7549 3.2743
" />
<path d="M10.7549 3.2743
L10.8759 3.2743
" />
<path d="M11.7830 3.2138
L11.6621 3.2743
" />
<path d="M11.6621 3.2743
L11.4202 3.2743
" />
<path d="M11.4202 3.2743
L11.2992 3.2138
" />
<path d="M11.2992 3.2138
L11.2387 3.0928
" />
<path d="M11.2387 3.0928
L11.2387 2.6090
" />
<path d="M11.2387 2.6090
L11.2992 2.4881
" />
<path d="M11.2992 2.4881
L11.4202 2.4276
" />
<path d="M11.4202 2.4276
L11.6621 2.4276
" />
<path d="M11.6621 2.4276
L11.7830 2.4881
" />
<path d="M11.7830 2.4881
L11.8435 2.6090
" />
<path d="M11.8435 2.6090
L11.8435 2.7300
" />
<path d="M11.8435 2.7300
L11.2387 2.8509
" />
<path d="M12.2668 2.0043
L13.0530 2.0043
" />
<path d="M13.0530 2.0043
L12.6297 2.4881
" />
<path d="M12.6297 2.4881
L12.8111 2.4881
" />
<path d="M12.8111 2.4881
L12.9321 2.5486
" />
<path d="M12.9321 2.5486
L12.9926 2.6090
" />
<path d="M12.9926 2.6090
L13.0530 2.7300
" />
<path d="M13.0530 2.7300
L13.0530 3.0324
" />
<path d="M13.0530 3.0324
L12.9926 3.1533
" />
<path d="M12.9926 3.1533
L12.9321 3.2138
" />
<path d="M12.9321 3.2138
L12.8111 3.2743
" />
<path d="M12.8111 3.2743
L12.4483 3.2743
" />
<path d="M12.4483 3.2743
L12.3273 3.2138
" />
<path d="M12.3273 3.2138
L12.2668 3.1533
" />
</g></g>
<g style="fill:none; 
stroke:#AFAFAF; stroke-width:0.1500; stroke-opacity:1; 
stroke-linecap:round; stroke-linejoin:round;">
<text x="6.5030" y="3.1950"
textLength="4.5357" font-size="1.3333" lengthAdjust="spacingAndGlyphs"
text-anchor="middle" opacity="0">REF**</text>
<g class="stroked-text"><desc>REF**</desc>
<path d="M5.1697 3.1498
L4.8364 2.6736
" />
<path d="M4.5983 3.1498
L4.5983 2.1498
" />
<path d="M4.5983 2.1498
L4.9792 2.1498
" />
<path d="M4.9792 2.1498
L5.0745 2.1974
" />
<path d="M5.0745 2.1974
L5.1221 2.2451
" />
<path d="M5.1221 2.2451
L5.1697 2.3403
" />
<path d="M5.1697 2.3403
L5.1697 2.4832
" />
<path d="M5.1697 2.4832
L5.1221 2.5784
" />
<path d="M5.1221 2.5784
L5.0745 2.6260
" />
<path d="M5.0745 2.6260
L4.9792 2.6736
" />
<path d="M4.9792 2.6736
L4.5983 2.6736
" />
<path d="M5.5983 2.6260
L5.9316 2.6260
" />
<path d="M6.0745 3.1498
L5.5983 3.1498
" />
<path d="M5.5983 3.1498
L5.5983 2.1498
" />
<path d="M5.5983 2.1498
L6.0745 2.1498
" />
<path d="M6.8364 2.6260
L6.5030 2.6260
" />
<path d="M6.5030 3.1498
L6.5030 2.1498
" />
<path d="M6.5030 2.1498
L6.9792 2.1498
" />
<path d="M7.5030 2.1498
L7.5030 2.3879
" />
<path d="M7.2649 2.2927
L7.5030 2.3879
" />
<path d="M7.5030 2.3879
L7.7411 2.2927
" />
<path d="M7.3602 2.5784
L7.5030 2.3879
" />
<path d="M7.5030 2.3879
L7.6459 2.5784
" />
<path d="M8.2649 2.1498
L8.2649 2.3879
" />
<path d="M8.0268 2.2927
L8.2649 2.3879
" />
<path d="M8.2649 2.3879
L8.5030 2.2927
" />
<path d="M8.1221 2.5784
L8.2649 2.3879
" />
<path d="M8.2649 2.3879
L8.4078 2.5784
" />
</g></g>
<g style="fill:none; 
stroke:#AFAFAF; stroke-width:0.1000; stroke-opacity:1; 
stroke-linecap:round; stroke-linejoin:round;">
<path d="M3.5490 1.8050
L4.2390 1.8050
" />
<path d="M3.5490 3.5850
L3.5490 1.8050
" />
<path d="M4.2390 0.6650
L4.2390 4.7250
" />
<path d="M4.2390 3.5850
L3.5490 3.5850
" />
<path d="M4.2390 4.7250
L8.6390 4.7250
" />
<path d="M8.6390 0.6650
L4.2390 0.6650
" />
<path d="M8.6390 4.7250
L8.6390 0.6650
" />
<path d="M10.0610 1.3355
L8.6390 1.3355
" />
<path d="M10.0610 2.2245
L8.6390 2.2245
" />
<path d="M10.0610 2.2245
L10.0610 1.3355
" />
<path d="M10.0610 3.1655
L8.6390 3.1655
" />
<path d="M10.0610 4.0545
L8.6390 4.0545
" />
<path d="M10.0610 4.0545
L10.0610 3.1655
" />
</g> 
</svg>
