<?xml version="1.0" standalone="no"?>
 <!DOCTYPE svg PUBLIC "-//W3C//DTD SVG 1.1//EN" 
 "http://www.w3.org/Graphics/SVG/1.1/DTD/svg11.dtd"> 
<svg
  xmlns:svg="http://www.w3.org/2000/svg"
  xmlns="http://www.w3.org/2000/svg"
  xmlns:xlink="http://www.w3.org/1999/xlink"
  version="1.1"
  width="21.6154mm" height="4.9784mm" viewBox="0.0000 0.0000 21.6154 4.9784">
<title>SVG Image created as working-brd.svg date 2024/04/22 08:49:46 </title>
  <desc>Image generated by PCBNEW </desc>
<g style="fill:#000000; fill-opacity:1.0000;stroke:#000000; stroke-opacity:1.0000;
stroke-linecap:round; stroke-linejoin:round;"
 transform="translate(0 0) scale(1 1)">
</g>
<g style="fill:#FFFFFF; fill-opacity:1.0000; stroke:none;">
<circle cx="10.8154" cy="2.7750" r="0.5000" /> 
</g>
<g style="fill:#FFFFFF; fill-opacity:1.0000; stroke:none;">
<circle cx="12.5154" cy="2.7750" r="0.5000" /> 
</g>
<g style="fill:#FFFFFF; fill-opacity:1.0000; stroke:none;">
<circle cx="14.2154" cy="2.7750" r="0.5000" /> 
<path style="fill:#02FFEE; fill-opacity:0.4000; stroke:none;fill-rule:evenodd;"
d="M 11.5154,1.7750
11.5154,3.7750
10.1154,3.7750
10.1154,1.7750
Z" /> 
</g>
<g style="fill:none; 
stroke:#02FFEE; stroke-width:1.4000; stroke-opacity:1; 
stroke-linecap:round; stroke-linejoin:round;">
<path d="M12.5154 3.0750
L12.5154 2.4750
" />
<path d="M14.2154 3.0750
L14.2154 2.4750
" />
</g>
<g style="fill:#FFFFFF; fill-opacity:1.0000; stroke:none;">
<circle cx="10.8154" cy="2.7750" r="0.5000" /> 
</g>
<g style="fill:#FFFFFF; fill-opacity:1.0000; stroke:none;">
<circle cx="12.5154" cy="2.7750" r="0.5000" /> 
</g>
<g style="fill:#FFFFFF; fill-opacity:1.0000; stroke:none;">
<circle cx="14.2154" cy="2.7750" r="0.5000" /> 
</g>
<g style="fill:#FFFFFF; fill-opacity:1.0000; stroke:none;">
<circle cx="10.8154" cy="2.7750" r="0.5000" /> 
</g>
<g style="fill:#FFFFFF; fill-opacity:1.0000; stroke:none;">
<circle cx="12.5154" cy="2.7750" r="0.5000" /> 
</g>
<g style="fill:#FFFFFF; fill-opacity:1.0000; stroke:none;">
<circle cx="14.2154" cy="2.7750" r="0.5000" /> 
<path style="fill:#D864FF; fill-opacity:0.4000; stroke:none;fill-rule:evenodd;"
d="M 11.5154,1.7750
11.5154,3.7750
10.1154,3.7750
10.1154,1.7750
Z" /> 
</g>
<g style="fill:none; 
stroke:#D864FF; stroke-width:1.4000; stroke-opacity:1; 
stroke-linecap:round; stroke-linejoin:round;">
<path d="M12.5154 3.0750
L12.5154 2.4750
" />
<path d="M14.2154 3.0750
L14.2154 2.4750
" />
</g>
<g style="fill:none; 
stroke:#F2EDA1; stroke-width:0.1588; stroke-opacity:1; 
stroke-linecap:round; stroke-linejoin:round;">
<text x="10.8154" y="3.4100"
textLength="5.6651" font-size="1.6933" lengthAdjust="spacingAndGlyphs"
text-anchor="middle" opacity="0">REF**</text>
<g class="stroked-text"><desc>REF**</desc>
<path d="M9.1221 3.3543
L8.6987 2.7495
" />
<path d="M8.3964 3.3543
L8.3964 2.0843
" />
<path d="M8.3964 2.0843
L8.8802 2.0843
" />
<path d="M8.8802 2.0843
L9.0011 2.1447
" />
<path d="M9.0011 2.1447
L9.0616 2.2052
" />
<path d="M9.0616 2.2052
L9.1221 2.3262
" />
<path d="M9.1221 2.3262
L9.1221 2.5076
" />
<path d="M9.1221 2.5076
L9.0616 2.6286
" />
<path d="M9.0616 2.6286
L9.0011 2.6890
" />
<path d="M9.0011 2.6890
L8.8802 2.7495
" />
<path d="M8.8802 2.7495
L8.3964 2.7495
" />
<path d="M9.6664 2.6890
L10.0897 2.6890
" />
<path d="M10.2711 3.3543
L9.6664 3.3543
" />
<path d="M9.6664 3.3543
L9.6664 2.0843
" />
<path d="M9.6664 2.0843
L10.2711 2.0843
" />
<path d="M11.2387 2.6890
L10.8154 2.6890
" />
<path d="M10.8154 3.3543
L10.8154 2.0843
" />
<path d="M10.8154 2.0843
L11.4202 2.0843
" />
<path d="M12.0854 2.0843
L12.0854 2.3867
" />
<path d="M11.7830 2.2657
L12.0854 2.3867
" />
<path d="M12.0854 2.3867
L12.3878 2.2657
" />
<path d="M11.9040 2.6286
L12.0854 2.3867
" />
<path d="M12.0854 2.3867
L12.2668 2.6286
" />
<path d="M13.0530 2.0843
L13.0530 2.3867
" />
<path d="M12.7506 2.2657
L13.0530 2.3867
" />
<path d="M13.0530 2.3867
L13.3554 2.2657
" />
<path d="M12.8716 2.6286
L13.0530 2.3867
" />
<path d="M13.0530 2.3867
L13.2345 2.6286
" />
</g></g>
<g style="fill:none; 
stroke:#F2EDA1; stroke-width:0.1200; stroke-opacity:1; 
stroke-linecap:round; stroke-linejoin:round;">
<path d="M8.9154 2.7750
L9.2154 4.3750
" />
<path d="M9.1654 0.1750
L8.9154 2.7750
" />
<path d="M9.2154 4.3750
L15.8154 4.3750
" />
<path d="M10.4344 4.9340
L11.1964 4.9340
" />
<path d="M10.8154 4.5530
L10.4344 4.9340
" />
<path d="M11.1964 4.9340
L10.8154 4.5530
" />
<path d="M15.8154 0.1750
L9.1654 0.1750
" />
<path d="M15.8154 4.3750
L16.1154 2.7750
" />
<path d="M16.1154 2.7750
L15.8154 0.1750
" />
</g>
<g style="fill:#FFFFFF; fill-opacity:1.0000; stroke:none;">
<circle cx="10.8154" cy="2.7750" r="0.5000" /> 
</g>
<g style="fill:#FFFFFF; fill-opacity:1.0000; stroke:none;">
<circle cx="12.5154" cy="2.7750" r="0.5000" /> 
</g>
<g style="fill:#FFFFFF; fill-opacity:1.0000; stroke:none;">
<circle cx="14.2154" cy="2.7750" r="0.5000" /> 
</g>
<g style="fill:none; 
stroke:#FF26E2; stroke-width:0.0500; stroke-opacity:1; 
stroke-linecap:round; stroke-linejoin:round;">
<path d="M8.7654 0.0250
L8.7654 4.5250
" />
<path d="M8.7654 4.5250
L16.2654 4.5250
" />
<path d="M16.2654 0.0250
L8.7654 0.0250
" />
<path d="M16.2654 4.5250
L16.2654 0.0250
" />
</g>
<g style="fill:none; 
stroke:#AFAFAF; stroke-width:0.1588; stroke-opacity:1; 
stroke-linecap:round; stroke-linejoin:round;">
<text x="10.8154" y="3.4100"
textLength="21.6308" font-size="1.6933" lengthAdjust="spacingAndGlyphs"
text-anchor="middle" opacity="0">NEC_Molded_7x4x9mm</text>
<g class="stroked-text"><desc>NEC_Molded_7x4x9mm</desc>
<path d="M0.4135 3.3543
L0.4135 2.0843
" />
<path d="M0.4135 2.0843
L1.1392 3.3543
" />
<path d="M1.1392 3.3543
L1.1392 2.0843
" />
<path d="M1.7440 2.6890
L2.1673 2.6890
" />
<path d="M2.3487 3.3543
L1.7440 3.3543
" />
<path d="M1.7440 3.3543
L1.7440 2.0843
" />
<path d="M1.7440 2.0843
L2.3487 2.0843
" />
<path d="M3.6187 3.2333
L3.5583 3.2938
" />
<path d="M3.5583 3.2938
L3.3768 3.3543
" />
<path d="M3.3768 3.3543
L3.2559 3.3543
" />
<path d="M3.2559 3.3543
L3.0745 3.2938
" />
<path d="M3.0745 3.2938
L2.9535 3.1728
" />
<path d="M2.9535 3.1728
L2.8930 3.0519
" />
<path d="M2.8930 3.0519
L2.8326 2.8100
" />
<path d="M2.8326 2.8100
L2.8326 2.6286
" />
<path d="M2.8326 2.6286
L2.8930 2.3867
" />
<path d="M2.8930 2.3867
L2.9535 2.2657
" />
<path d="M2.9535 2.2657
L3.0745 2.1447
" />
<path d="M3.0745 2.1447
L3.2559 2.0843
" />
<path d="M3.2559 2.0843
L3.3768 2.0843
" />
<path d="M3.3768 2.0843
L3.5583 2.1447
" />
<path d="M3.5583 2.1447
L3.6187 2.2052
" />
<path d="M3.8606 3.4752
L4.8283 3.4752
" />
<path d="M5.1306 3.3543
L5.1306 2.0843
" />
<path d="M5.1306 2.0843
L5.5540 2.9914
" />
<path d="M5.5540 2.9914
L5.9773 2.0843
" />
<path d="M5.9773 2.0843
L5.9773 3.3543
" />
<path d="M6.7635 3.3543
L6.6426 3.2938
" />
<path d="M6.6426 3.2938
L6.5821 3.2333
" />
<path d="M6.5821 3.2333
L6.5216 3.1124
" />
<path d="M6.5216 3.1124
L6.5216 2.7495
" />
<path d="M6.5216 2.7495
L6.5821 2.6286
" />
<path d="M6.5821 2.6286
L6.6426 2.5681
" />
<path d="M6.6426 2.5681
L6.7635 2.5076
" />
<path d="M6.7635 2.5076
L6.9449 2.5076
" />
<path d="M6.9449 2.5076
L7.0659 2.5681
" />
<path d="M7.0659 2.5681
L7.1264 2.6286
" />
<path d="M7.1264 2.6286
L7.1868 2.7495
" />
<path d="M7.1868 2.7495
L7.1868 3.1124
" />
<path d="M7.1868 3.1124
L7.1264 3.2333
" />
<path d="M7.1264 3.2333
L7.0659 3.2938
" />
<path d="M7.0659 3.2938
L6.9449 3.3543
" />
<path d="M6.9449 3.3543
L6.7635 3.3543
" />
<path d="M7.9126 3.3543
L7.7916 3.2938
" />
<path d="M7.7916 3.2938
L7.7311 3.1728
" />
<path d="M7.7311 3.1728
L7.7311 2.0843
" />
<path d="M8.9406 3.3543
L8.9406 2.0843
" />
<path d="M8.9406 3.2938
L8.8197 3.3543
" />
<path d="M8.8197 3.3543
L8.5778 3.3543
" />
<path d="M8.5778 3.3543
L8.4568 3.2938
" />
<path d="M8.4568 3.2938
L8.3964 3.2333
" />
<path d="M8.3964 3.2333
L8.3359 3.1124
" />
<path d="M8.3359 3.1124
L8.3359 2.7495
" />
<path d="M8.3359 2.7495
L8.3964 2.6286
" />
<path d="M8.3964 2.6286
L8.4568 2.5681
" />
<path d="M8.4568 2.5681
L8.5778 2.5076
" />
<path d="M8.5778 2.5076
L8.8197 2.5076
" />
<path d="M8.8197 2.5076
L8.9406 2.5681
" />
<path d="M10.0292 3.2938
L9.9083 3.3543
" />
<path d="M9.9083 3.3543
L9.6664 3.3543
" />
<path d="M9.6664 3.3543
L9.5454 3.2938
" />
<path d="M9.5454 3.2938
L9.4849 3.1728
" />
<path d="M9.4849 3.1728
L9.4849 2.6890
" />
<path d="M9.4849 2.6890
L9.5454 2.5681
" />
<path d="M9.5454 2.5681
L9.6664 2.5076
" />
<path d="M9.6664 2.5076
L9.9083 2.5076
" />
<path d="M9.9083 2.5076
L10.0292 2.5681
" />
<path d="M10.0292 2.5681
L10.0897 2.6890
" />
<path d="M10.0897 2.6890
L10.0897 2.8100
" />
<path d="M10.0897 2.8100
L9.4849 2.9309
" />
<path d="M11.1783 3.3543
L11.1783 2.0843
" />
<path d="M11.1783 3.2938
L11.0573 3.3543
" />
<path d="M11.0573 3.3543
L10.8154 3.3543
" />
<path d="M10.8154 3.3543
L10.6945 3.2938
" />
<path d="M10.6945 3.2938
L10.6340 3.2333
" />
<path d="M10.6340 3.2333
L10.5735 3.1124
" />
<path d="M10.5735 3.1124
L10.5735 2.7495
" />
<path d="M10.5735 2.7495
L10.6340 2.6286
" />
<path d="M10.6340 2.6286
L10.6945 2.5681
" />
<path d="M10.6945 2.5681
L10.8154 2.5076
" />
<path d="M10.8154 2.5076
L11.0573 2.5076
" />
<path d="M11.0573 2.5076
L11.1783 2.5681
" />
<path d="M11.4806 3.4752
L12.4483 3.4752
" />
<path d="M12.6297 2.0843
L13.4764 2.0843
" />
<path d="M13.4764 2.0843
L12.9321 3.3543
" />
<path d="M13.8392 3.3543
L14.5045 2.5076
" />
<path d="M13.8392 2.5076
L14.5045 3.3543
" />
<path d="M15.5326 2.5076
L15.5326 3.3543
" />
<path d="M15.2302 2.0238
L14.9278 2.9309
" />
<path d="M14.9278 2.9309
L15.7140 2.9309
" />
<path d="M16.0768 3.3543
L16.7421 2.5076
" />
<path d="M16.0768 2.5076
L16.7421 3.3543
" />
<path d="M17.2864 3.3543
L17.5283 3.3543
" />
<path d="M17.5283 3.3543
L17.6492 3.2938
" />
<path d="M17.6492 3.2938
L17.7097 3.2333
" />
<path d="M17.7097 3.2333
L17.8306 3.0519
" />
<path d="M17.8306 3.0519
L17.8911 2.8100
" />
<path d="M17.8911 2.8100
L17.8911 2.3262
" />
<path d="M17.8911 2.3262
L17.8306 2.2052
" />
<path d="M17.8306 2.2052
L17.7702 2.1447
" />
<path d="M17.7702 2.1447
L17.6492 2.0843
" />
<path d="M17.6492 2.0843
L17.4073 2.0843
" />
<path d="M17.4073 2.0843
L17.2864 2.1447
" />
<path d="M17.2864 2.1447
L17.2259 2.2052
" />
<path d="M17.2259 2.2052
L17.1654 2.3262
" />
<path d="M17.1654 2.3262
L17.1654 2.6286
" />
<path d="M17.1654 2.6286
L17.2259 2.7495
" />
<path d="M17.2259 2.7495
L17.2864 2.8100
" />
<path d="M17.2864 2.8100
L17.4073 2.8705
" />
<path d="M17.4073 2.8705
L17.6492 2.8705
" />
<path d="M17.6492 2.8705
L17.7702 2.8100
" />
<path d="M17.7702 2.8100
L17.8306 2.7495
" />
<path d="M17.8306 2.7495
L17.8911 2.6286
" />
<path d="M18.4354 3.3543
L18.4354 2.5076
" />
<path d="M18.4354 2.6286
L18.4959 2.5681
" />
<path d="M18.4959 2.5681
L18.6168 2.5076
" />
<path d="M18.6168 2.5076
L18.7983 2.5076
" />
<path d="M18.7983 2.5076
L18.9192 2.5681
" />
<path d="M18.9192 2.5681
L18.9797 2.6890
" />
<path d="M18.9797 2.6890
L18.9797 3.3543
" />
<path d="M18.9797 2.6890
L19.0402 2.5681
" />
<path d="M19.0402 2.5681
L19.1611 2.5076
" />
<path d="M19.1611 2.5076
L19.3426 2.5076
" />
<path d="M19.3426 2.5076
L19.4635 2.5681
" />
<path d="M19.4635 2.5681
L19.5240 2.6890
" />
<path d="M19.5240 2.6890
L19.5240 3.3543
" />
<path d="M20.1287 3.3543
L20.1287 2.5076
" />
<path d="M20.1287 2.6286
L20.1892 2.5681
" />
<path d="M20.1892 2.5681
L20.3102 2.5076
" />
<path d="M20.3102 2.5076
L20.4916 2.5076
" />
<path d="M20.4916 2.5076
L20.6126 2.5681
" />
<path d="M20.6126 2.5681
L20.6730 2.6890
" />
<path d="M20.6730 2.6890
L20.6730 3.3543
" />
<path d="M20.6730 2.6890
L20.7335 2.5681
" />
<path d="M20.7335 2.5681
L20.8545 2.5076
" />
<path d="M20.8545 2.5076
L21.0359 2.5076
" />
<path d="M21.0359 2.5076
L21.1568 2.5681
" />
<path d="M21.1568 2.5681
L21.2173 2.6890
" />
<path d="M21.2173 2.6890
L21.2173 3.3543
" />
</g></g>
<g style="fill:none; 
stroke:#AFAFAF; stroke-width:0.1500; stroke-opacity:1; 
stroke-linecap:round; stroke-linejoin:round;">
<text x="12.5154" y="1.8250"
textLength="4.5357" font-size="1.3333" lengthAdjust="spacingAndGlyphs"
text-anchor="middle" opacity="0">REF**</text>
<g class="stroked-text"><desc>REF**</desc>
<path d="M11.1821 1.7798
L10.8487 1.3036
" />
<path d="M10.6106 1.7798
L10.6106 0.7798
" />
<path d="M10.6106 0.7798
L10.9916 0.7798
" />
<path d="M10.9916 0.7798
L11.0868 0.8274
" />
<path d="M11.0868 0.8274
L11.1345 0.8751
" />
<path d="M11.1345 0.8751
L11.1821 0.9703
" />
<path d="M11.1821 0.9703
L11.1821 1.1132
" />
<path d="M11.1821 1.1132
L11.1345 1.2084
" />
<path d="M11.1345 1.2084
L11.0868 1.2560
" />
<path d="M11.0868 1.2560
L10.9916 1.3036
" />
<path d="M10.9916 1.3036
L10.6106 1.3036
" />
<path d="M11.6106 1.2560
L11.9440 1.2560
" />
<path d="M12.0868 1.7798
L11.6106 1.7798
" />
<path d="M11.6106 1.7798
L11.6106 0.7798
" />
<path d="M11.6106 0.7798
L12.0868 0.7798
" />
<path d="M12.8487 1.2560
L12.5154 1.2560
" />
<path d="M12.5154 1.7798
L12.5154 0.7798
" />
<path d="M12.5154 0.7798
L12.9916 0.7798
" />
<path d="M13.5154 0.7798
L13.5154 1.0179
" />
<path d="M13.2773 0.9227
L13.5154 1.0179
" />
<path d="M13.5154 1.0179
L13.7535 0.9227
" />
<path d="M13.3726 1.2084
L13.5154 1.0179
" />
<path d="M13.5154 1.0179
L13.6583 1.2084
" />
<path d="M14.2773 0.7798
L14.2773 1.0179
" />
<path d="M14.0392 0.9227
L14.2773 1.0179
" />
<path d="M14.2773 1.0179
L14.5154 0.9227
" />
<path d="M14.1345 1.2084
L14.2773 1.0179
" />
<path d="M14.2773 1.0179
L14.4202 1.2084
" />
</g></g>
<g style="fill:none; 
stroke:#AFAFAF; stroke-width:0.1200; stroke-opacity:1; 
stroke-linecap:round; stroke-linejoin:round;">
<path d="M9.0154 2.7750
L9.2654 0.2750
" />
<path d="M9.2654 4.2750
L9.0154 2.7750
" />
<path d="M9.2654 4.2750
L15.7654 4.2750
" />
<path d="M15.7654 0.2750
L9.2654 0.2750
" />
<path d="M15.7654 0.2750
L16.0154 2.7750
" />
<path d="M16.0154 2.7750
L15.7654 4.2750
" />
<circle cx="9.7654" cy="0.8750" r="0.2236" /> 
</g> 
</svg>
