<?xml version="1.0" standalone="no"?>
 <!DOCTYPE svg PUBLIC "-//W3C//DTD SVG 1.1//EN" 
 "http://www.w3.org/Graphics/SVG/1.1/DTD/svg11.dtd"> 
<svg
  xmlns:svg="http://www.w3.org/2000/svg"
  xmlns="http://www.w3.org/2000/svg"
  xmlns:xlink="http://www.w3.org/1999/xlink"
  version="1.1"
  width="21.3868mm" height="21.6408mm" viewBox="0.0000 0.0000 21.3868 21.6408">
<title>SVG Image created as working-brd.svg date 2024/04/21 16:05:35 </title>
  <desc>Image generated by PCBNEW </desc>
<g style="fill:#000000; fill-opacity:1.0000;stroke:#000000; stroke-opacity:1.0000;
stroke-linecap:round; stroke-linejoin:round;"
 transform="translate(0 0) scale(1 1)">
</g>
<g style="fill:#FFFFFF; fill-opacity:1.0000; stroke:none;">
<circle cx="10.8250" cy="5.7450" r="0.4000" /> 
</g>
<g style="fill:#FFFFFF; fill-opacity:1.0000; stroke:none;">
<circle cx="8.2850" cy="3.2050" r="0.4000" /> 
</g>
<g style="fill:#FFFFFF; fill-opacity:1.0000; stroke:none;">
<circle cx="8.2850" cy="5.7450" r="0.4000" /> 
</g>
<g style="fill:#FFFFFF; fill-opacity:1.0000; stroke:none;">
<circle cx="5.7450" cy="3.2050" r="0.4000" /> 
</g>
<g style="fill:#FFFFFF; fill-opacity:1.0000; stroke:none;">
<circle cx="3.2050" cy="5.7450" r="0.4000" /> 
</g>
<g style="fill:#FFFFFF; fill-opacity:1.0000; stroke:none;">
<circle cx="5.7450" cy="5.7450" r="0.4000" /> 
</g>
<g style="fill:#FFFFFF; fill-opacity:1.0000; stroke:none;">
<circle cx="3.2050" cy="8.2850" r="0.4000" /> 
</g>
<g style="fill:#FFFFFF; fill-opacity:1.0000; stroke:none;">
<circle cx="5.7450" cy="8.2850" r="0.4000" /> 
</g>
<g style="fill:#FFFFFF; fill-opacity:1.0000; stroke:none;">
<circle cx="3.2050" cy="10.8250" r="0.4000" /> 
</g>
<g style="fill:#FFFFFF; fill-opacity:1.0000; stroke:none;">
<circle cx="5.7450" cy="10.8250" r="0.4000" /> 
</g>
<g style="fill:#FFFFFF; fill-opacity:1.0000; stroke:none;">
<circle cx="3.2050" cy="13.3650" r="0.4000" /> 
</g>
<g style="fill:#FFFFFF; fill-opacity:1.0000; stroke:none;">
<circle cx="5.7450" cy="13.3650" r="0.4000" /> 
</g>
<g style="fill:#FFFFFF; fill-opacity:1.0000; stroke:none;">
<circle cx="3.2050" cy="15.9050" r="0.4000" /> 
</g>
<g style="fill:#FFFFFF; fill-opacity:1.0000; stroke:none;">
<circle cx="5.7450" cy="18.4450" r="0.4000" /> 
</g>
<g style="fill:#FFFFFF; fill-opacity:1.0000; stroke:none;">
<circle cx="5.7450" cy="15.9050" r="0.4000" /> 
</g>
<g style="fill:#FFFFFF; fill-opacity:1.0000; stroke:none;">
<circle cx="8.2850" cy="18.4450" r="0.4000" /> 
</g>
<g style="fill:#FFFFFF; fill-opacity:1.0000; stroke:none;">
<circle cx="8.2850" cy="15.9050" r="0.4000" /> 
</g>
<g style="fill:#FFFFFF; fill-opacity:1.0000; stroke:none;">
<circle cx="10.8250" cy="18.4450" r="0.4000" /> 
</g>
<g style="fill:#FFFFFF; fill-opacity:1.0000; stroke:none;">
<circle cx="10.8250" cy="15.9050" r="0.4000" /> 
</g>
<g style="fill:#FFFFFF; fill-opacity:1.0000; stroke:none;">
<circle cx="13.3650" cy="18.4450" r="0.4000" /> 
</g>
<g style="fill:#FFFFFF; fill-opacity:1.0000; stroke:none;">
<circle cx="15.9050" cy="15.9050" r="0.4000" /> 
</g>
<g style="fill:#FFFFFF; fill-opacity:1.0000; stroke:none;">
<circle cx="13.3650" cy="15.9050" r="0.4000" /> 
</g>
<g style="fill:#FFFFFF; fill-opacity:1.0000; stroke:none;">
<circle cx="15.9050" cy="13.3650" r="0.4000" /> 
</g>
<g style="fill:#FFFFFF; fill-opacity:1.0000; stroke:none;">
<circle cx="13.3650" cy="13.3650" r="0.4000" /> 
</g>
<g style="fill:#FFFFFF; fill-opacity:1.0000; stroke:none;">
<circle cx="15.9050" cy="10.8250" r="0.4000" /> 
</g>
<g style="fill:#FFFFFF; fill-opacity:1.0000; stroke:none;">
<circle cx="13.3650" cy="10.8250" r="0.4000" /> 
</g>
<g style="fill:#FFFFFF; fill-opacity:1.0000; stroke:none;">
<circle cx="15.9050" cy="8.2850" r="0.4000" /> 
</g>
<g style="fill:#FFFFFF; fill-opacity:1.0000; stroke:none;">
<circle cx="13.3650" cy="8.2850" r="0.4000" /> 
</g>
<g style="fill:#FFFFFF; fill-opacity:1.0000; stroke:none;">
<circle cx="15.9050" cy="5.7450" r="0.4000" /> 
</g>
<g style="fill:#FFFFFF; fill-opacity:1.0000; stroke:none;">
<circle cx="13.3650" cy="3.2050" r="0.4000" /> 
</g>
<g style="fill:#FFFFFF; fill-opacity:1.0000; stroke:none;">
<circle cx="13.3650" cy="5.7450" r="0.4000" /> 
</g>
<g style="fill:#FFFFFF; fill-opacity:1.0000; stroke:none;">
<circle cx="10.8250" cy="3.2050" r="0.4000" /> 
<path style="fill:#02FFEE; fill-opacity:0.4000; stroke:none;fill-rule:evenodd;"
d="M 10.1138,6.4562
10.1138,5.0338
11.5362,5.0338
11.5362,6.4562
Z" /> 
</g>
<g style="fill:#02FFEE; fill-opacity:0.4000; stroke:none;">
<circle cx="8.2850" cy="3.2050" r="0.7112" /> 
</g>
<g style="fill:#02FFEE; fill-opacity:0.4000; stroke:none;">
<circle cx="8.2850" cy="5.7450" r="0.7112" /> 
</g>
<g style="fill:#02FFEE; fill-opacity:0.4000; stroke:none;">
<circle cx="5.7450" cy="3.2050" r="0.7112" /> 
</g>
<g style="fill:#02FFEE; fill-opacity:0.4000; stroke:none;">
<circle cx="3.2050" cy="5.7450" r="0.7112" /> 
</g>
<g style="fill:#02FFEE; fill-opacity:0.4000; stroke:none;">
<circle cx="5.7450" cy="5.7450" r="0.7112" /> 
</g>
<g style="fill:#02FFEE; fill-opacity:0.4000; stroke:none;">
<circle cx="3.2050" cy="8.2850" r="0.7112" /> 
</g>
<g style="fill:#02FFEE; fill-opacity:0.4000; stroke:none;">
<circle cx="5.7450" cy="8.2850" r="0.7112" /> 
</g>
<g style="fill:#02FFEE; fill-opacity:0.4000; stroke:none;">
<circle cx="3.2050" cy="10.8250" r="0.7112" /> 
</g>
<g style="fill:#02FFEE; fill-opacity:0.4000; stroke:none;">
<circle cx="5.7450" cy="10.8250" r="0.7112" /> 
</g>
<g style="fill:#02FFEE; fill-opacity:0.4000; stroke:none;">
<circle cx="3.2050" cy="13.3650" r="0.7112" /> 
</g>
<g style="fill:#02FFEE; fill-opacity:0.4000; stroke:none;">
<circle cx="5.7450" cy="13.3650" r="0.7112" /> 
</g>
<g style="fill:#02FFEE; fill-opacity:0.4000; stroke:none;">
<circle cx="3.2050" cy="15.9050" r="0.7112" /> 
</g>
<g style="fill:#02FFEE; fill-opacity:0.4000; stroke:none;">
<circle cx="5.7450" cy="18.4450" r="0.7112" /> 
</g>
<g style="fill:#02FFEE; fill-opacity:0.4000; stroke:none;">
<circle cx="5.7450" cy="15.9050" r="0.7112" /> 
</g>
<g style="fill:#02FFEE; fill-opacity:0.4000; stroke:none;">
<circle cx="8.2850" cy="18.4450" r="0.7112" /> 
</g>
<g style="fill:#02FFEE; fill-opacity:0.4000; stroke:none;">
<circle cx="8.2850" cy="15.9050" r="0.7112" /> 
</g>
<g style="fill:#02FFEE; fill-opacity:0.4000; stroke:none;">
<circle cx="10.8250" cy="18.4450" r="0.7112" /> 
</g>
<g style="fill:#02FFEE; fill-opacity:0.4000; stroke:none;">
<circle cx="10.8250" cy="15.9050" r="0.7112" /> 
</g>
<g style="fill:#02FFEE; fill-opacity:0.4000; stroke:none;">
<circle cx="13.3650" cy="18.4450" r="0.7112" /> 
</g>
<g style="fill:#02FFEE; fill-opacity:0.4000; stroke:none;">
<circle cx="15.9050" cy="15.9050" r="0.7112" /> 
</g>
<g style="fill:#02FFEE; fill-opacity:0.4000; stroke:none;">
<circle cx="13.3650" cy="15.9050" r="0.7112" /> 
</g>
<g style="fill:#02FFEE; fill-opacity:0.4000; stroke:none;">
<circle cx="15.9050" cy="13.3650" r="0.7112" /> 
</g>
<g style="fill:#02FFEE; fill-opacity:0.4000; stroke:none;">
<circle cx="13.3650" cy="13.3650" r="0.7112" /> 
</g>
<g style="fill:#02FFEE; fill-opacity:0.4000; stroke:none;">
<circle cx="15.9050" cy="10.8250" r="0.7112" /> 
</g>
<g style="fill:#02FFEE; fill-opacity:0.4000; stroke:none;">
<circle cx="13.3650" cy="10.8250" r="0.7112" /> 
</g>
<g style="fill:#02FFEE; fill-opacity:0.4000; stroke:none;">
<circle cx="15.9050" cy="8.2850" r="0.7112" /> 
</g>
<g style="fill:#02FFEE; fill-opacity:0.4000; stroke:none;">
<circle cx="13.3650" cy="8.2850" r="0.7112" /> 
</g>
<g style="fill:#02FFEE; fill-opacity:0.4000; stroke:none;">
<circle cx="15.9050" cy="5.7450" r="0.7112" /> 
</g>
<g style="fill:#02FFEE; fill-opacity:0.4000; stroke:none;">
<circle cx="13.3650" cy="3.2050" r="0.7112" /> 
</g>
<g style="fill:#02FFEE; fill-opacity:0.4000; stroke:none;">
<circle cx="13.3650" cy="5.7450" r="0.7112" /> 
</g>
<g style="fill:#02FFEE; fill-opacity:0.4000; stroke:none;">
<circle cx="10.8250" cy="3.2050" r="0.7112" /> 
</g>
<g style="fill:#FFFFFF; fill-opacity:1.0000; stroke:none;">
<circle cx="10.8250" cy="5.7450" r="0.4000" /> 
</g>
<g style="fill:#FFFFFF; fill-opacity:1.0000; stroke:none;">
<circle cx="8.2850" cy="3.2050" r="0.4000" /> 
</g>
<g style="fill:#FFFFFF; fill-opacity:1.0000; stroke:none;">
<circle cx="8.2850" cy="5.7450" r="0.4000" /> 
</g>
<g style="fill:#FFFFFF; fill-opacity:1.0000; stroke:none;">
<circle cx="5.7450" cy="3.2050" r="0.4000" /> 
</g>
<g style="fill:#FFFFFF; fill-opacity:1.0000; stroke:none;">
<circle cx="3.2050" cy="5.7450" r="0.4000" /> 
</g>
<g style="fill:#FFFFFF; fill-opacity:1.0000; stroke:none;">
<circle cx="5.7450" cy="5.7450" r="0.4000" /> 
</g>
<g style="fill:#FFFFFF; fill-opacity:1.0000; stroke:none;">
<circle cx="3.2050" cy="8.2850" r="0.4000" /> 
</g>
<g style="fill:#FFFFFF; fill-opacity:1.0000; stroke:none;">
<circle cx="5.7450" cy="8.2850" r="0.4000" /> 
</g>
<g style="fill:#FFFFFF; fill-opacity:1.0000; stroke:none;">
<circle cx="3.2050" cy="10.8250" r="0.4000" /> 
</g>
<g style="fill:#FFFFFF; fill-opacity:1.0000; stroke:none;">
<circle cx="5.7450" cy="10.8250" r="0.4000" /> 
</g>
<g style="fill:#FFFFFF; fill-opacity:1.0000; stroke:none;">
<circle cx="3.2050" cy="13.3650" r="0.4000" /> 
</g>
<g style="fill:#FFFFFF; fill-opacity:1.0000; stroke:none;">
<circle cx="5.7450" cy="13.3650" r="0.4000" /> 
</g>
<g style="fill:#FFFFFF; fill-opacity:1.0000; stroke:none;">
<circle cx="3.2050" cy="15.9050" r="0.4000" /> 
</g>
<g style="fill:#FFFFFF; fill-opacity:1.0000; stroke:none;">
<circle cx="5.7450" cy="18.4450" r="0.4000" /> 
</g>
<g style="fill:#FFFFFF; fill-opacity:1.0000; stroke:none;">
<circle cx="5.7450" cy="15.9050" r="0.4000" /> 
</g>
<g style="fill:#FFFFFF; fill-opacity:1.0000; stroke:none;">
<circle cx="8.2850" cy="18.4450" r="0.4000" /> 
</g>
<g style="fill:#FFFFFF; fill-opacity:1.0000; stroke:none;">
<circle cx="8.2850" cy="15.9050" r="0.4000" /> 
</g>
<g style="fill:#FFFFFF; fill-opacity:1.0000; stroke:none;">
<circle cx="10.8250" cy="18.4450" r="0.4000" /> 
</g>
<g style="fill:#FFFFFF; fill-opacity:1.0000; stroke:none;">
<circle cx="10.8250" cy="15.9050" r="0.4000" /> 
</g>
<g style="fill:#FFFFFF; fill-opacity:1.0000; stroke:none;">
<circle cx="13.3650" cy="18.4450" r="0.4000" /> 
</g>
<g style="fill:#FFFFFF; fill-opacity:1.0000; stroke:none;">
<circle cx="15.9050" cy="15.9050" r="0.4000" /> 
</g>
<g style="fill:#FFFFFF; fill-opacity:1.0000; stroke:none;">
<circle cx="13.3650" cy="15.9050" r="0.4000" /> 
</g>
<g style="fill:#FFFFFF; fill-opacity:1.0000; stroke:none;">
<circle cx="15.9050" cy="13.3650" r="0.4000" /> 
</g>
<g style="fill:#FFFFFF; fill-opacity:1.0000; stroke:none;">
<circle cx="13.3650" cy="13.3650" r="0.4000" /> 
</g>
<g style="fill:#FFFFFF; fill-opacity:1.0000; stroke:none;">
<circle cx="15.9050" cy="10.8250" r="0.4000" /> 
</g>
<g style="fill:#FFFFFF; fill-opacity:1.0000; stroke:none;">
<circle cx="13.3650" cy="10.8250" r="0.4000" /> 
</g>
<g style="fill:#FFFFFF; fill-opacity:1.0000; stroke:none;">
<circle cx="15.9050" cy="8.2850" r="0.4000" /> 
</g>
<g style="fill:#FFFFFF; fill-opacity:1.0000; stroke:none;">
<circle cx="13.3650" cy="8.2850" r="0.4000" /> 
</g>
<g style="fill:#FFFFFF; fill-opacity:1.0000; stroke:none;">
<circle cx="15.9050" cy="5.7450" r="0.4000" /> 
</g>
<g style="fill:#FFFFFF; fill-opacity:1.0000; stroke:none;">
<circle cx="13.3650" cy="3.2050" r="0.4000" /> 
</g>
<g style="fill:#FFFFFF; fill-opacity:1.0000; stroke:none;">
<circle cx="13.3650" cy="5.7450" r="0.4000" /> 
</g>
<g style="fill:#FFFFFF; fill-opacity:1.0000; stroke:none;">
<circle cx="10.8250" cy="3.2050" r="0.4000" /> 
</g>
<g style="fill:#FFFFFF; fill-opacity:1.0000; stroke:none;">
<circle cx="10.8250" cy="5.7450" r="0.4000" /> 
</g>
<g style="fill:#FFFFFF; fill-opacity:1.0000; stroke:none;">
<circle cx="8.2850" cy="3.2050" r="0.4000" /> 
</g>
<g style="fill:#FFFFFF; fill-opacity:1.0000; stroke:none;">
<circle cx="8.2850" cy="5.7450" r="0.4000" /> 
</g>
<g style="fill:#FFFFFF; fill-opacity:1.0000; stroke:none;">
<circle cx="5.7450" cy="3.2050" r="0.4000" /> 
</g>
<g style="fill:#FFFFFF; fill-opacity:1.0000; stroke:none;">
<circle cx="3.2050" cy="5.7450" r="0.4000" /> 
</g>
<g style="fill:#FFFFFF; fill-opacity:1.0000; stroke:none;">
<circle cx="5.7450" cy="5.7450" r="0.4000" /> 
</g>
<g style="fill:#FFFFFF; fill-opacity:1.0000; stroke:none;">
<circle cx="3.2050" cy="8.2850" r="0.4000" /> 
</g>
<g style="fill:#FFFFFF; fill-opacity:1.0000; stroke:none;">
<circle cx="5.7450" cy="8.2850" r="0.4000" /> 
</g>
<g style="fill:#FFFFFF; fill-opacity:1.0000; stroke:none;">
<circle cx="3.2050" cy="10.8250" r="0.4000" /> 
</g>
<g style="fill:#FFFFFF; fill-opacity:1.0000; stroke:none;">
<circle cx="5.7450" cy="10.8250" r="0.4000" /> 
</g>
<g style="fill:#FFFFFF; fill-opacity:1.0000; stroke:none;">
<circle cx="3.2050" cy="13.3650" r="0.4000" /> 
</g>
<g style="fill:#FFFFFF; fill-opacity:1.0000; stroke:none;">
<circle cx="5.7450" cy="13.3650" r="0.4000" /> 
</g>
<g style="fill:#FFFFFF; fill-opacity:1.0000; stroke:none;">
<circle cx="3.2050" cy="15.9050" r="0.4000" /> 
</g>
<g style="fill:#FFFFFF; fill-opacity:1.0000; stroke:none;">
<circle cx="5.7450" cy="18.4450" r="0.4000" /> 
</g>
<g style="fill:#FFFFFF; fill-opacity:1.0000; stroke:none;">
<circle cx="5.7450" cy="15.9050" r="0.4000" /> 
</g>
<g style="fill:#FFFFFF; fill-opacity:1.0000; stroke:none;">
<circle cx="8.2850" cy="18.4450" r="0.4000" /> 
</g>
<g style="fill:#FFFFFF; fill-opacity:1.0000; stroke:none;">
<circle cx="8.2850" cy="15.9050" r="0.4000" /> 
</g>
<g style="fill:#FFFFFF; fill-opacity:1.0000; stroke:none;">
<circle cx="10.8250" cy="18.4450" r="0.4000" /> 
</g>
<g style="fill:#FFFFFF; fill-opacity:1.0000; stroke:none;">
<circle cx="10.8250" cy="15.9050" r="0.4000" /> 
</g>
<g style="fill:#FFFFFF; fill-opacity:1.0000; stroke:none;">
<circle cx="13.3650" cy="18.4450" r="0.4000" /> 
</g>
<g style="fill:#FFFFFF; fill-opacity:1.0000; stroke:none;">
<circle cx="15.9050" cy="15.9050" r="0.4000" /> 
</g>
<g style="fill:#FFFFFF; fill-opacity:1.0000; stroke:none;">
<circle cx="13.3650" cy="15.9050" r="0.4000" /> 
</g>
<g style="fill:#FFFFFF; fill-opacity:1.0000; stroke:none;">
<circle cx="15.9050" cy="13.3650" r="0.4000" /> 
</g>
<g style="fill:#FFFFFF; fill-opacity:1.0000; stroke:none;">
<circle cx="13.3650" cy="13.3650" r="0.4000" /> 
</g>
<g style="fill:#FFFFFF; fill-opacity:1.0000; stroke:none;">
<circle cx="15.9050" cy="10.8250" r="0.4000" /> 
</g>
<g style="fill:#FFFFFF; fill-opacity:1.0000; stroke:none;">
<circle cx="13.3650" cy="10.8250" r="0.4000" /> 
</g>
<g style="fill:#FFFFFF; fill-opacity:1.0000; stroke:none;">
<circle cx="15.9050" cy="8.2850" r="0.4000" /> 
</g>
<g style="fill:#FFFFFF; fill-opacity:1.0000; stroke:none;">
<circle cx="13.3650" cy="8.2850" r="0.4000" /> 
</g>
<g style="fill:#FFFFFF; fill-opacity:1.0000; stroke:none;">
<circle cx="15.9050" cy="5.7450" r="0.4000" /> 
</g>
<g style="fill:#FFFFFF; fill-opacity:1.0000; stroke:none;">
<circle cx="13.3650" cy="3.2050" r="0.4000" /> 
</g>
<g style="fill:#FFFFFF; fill-opacity:1.0000; stroke:none;">
<circle cx="13.3650" cy="5.7450" r="0.4000" /> 
</g>
<g style="fill:#FFFFFF; fill-opacity:1.0000; stroke:none;">
<circle cx="10.8250" cy="3.2050" r="0.4000" /> 
<path style="fill:#D864FF; fill-opacity:0.4000; stroke:none;fill-rule:evenodd;"
d="M 10.1138,6.4562
10.1138,5.0338
11.5362,5.0338
11.5362,6.4562
Z" /> 
</g>
<g style="fill:#D864FF; fill-opacity:0.4000; stroke:none;">
<circle cx="8.2850" cy="3.2050" r="0.7112" /> 
</g>
<g style="fill:#D864FF; fill-opacity:0.4000; stroke:none;">
<circle cx="8.2850" cy="5.7450" r="0.7112" /> 
</g>
<g style="fill:#D864FF; fill-opacity:0.4000; stroke:none;">
<circle cx="5.7450" cy="3.2050" r="0.7112" /> 
</g>
<g style="fill:#D864FF; fill-opacity:0.4000; stroke:none;">
<circle cx="3.2050" cy="5.7450" r="0.7112" /> 
</g>
<g style="fill:#D864FF; fill-opacity:0.4000; stroke:none;">
<circle cx="5.7450" cy="5.7450" r="0.7112" /> 
</g>
<g style="fill:#D864FF; fill-opacity:0.4000; stroke:none;">
<circle cx="3.2050" cy="8.2850" r="0.7112" /> 
</g>
<g style="fill:#D864FF; fill-opacity:0.4000; stroke:none;">
<circle cx="5.7450" cy="8.2850" r="0.7112" /> 
</g>
<g style="fill:#D864FF; fill-opacity:0.4000; stroke:none;">
<circle cx="3.2050" cy="10.8250" r="0.7112" /> 
</g>
<g style="fill:#D864FF; fill-opacity:0.4000; stroke:none;">
<circle cx="5.7450" cy="10.8250" r="0.7112" /> 
</g>
<g style="fill:#D864FF; fill-opacity:0.4000; stroke:none;">
<circle cx="3.2050" cy="13.3650" r="0.7112" /> 
</g>
<g style="fill:#D864FF; fill-opacity:0.4000; stroke:none;">
<circle cx="5.7450" cy="13.3650" r="0.7112" /> 
</g>
<g style="fill:#D864FF; fill-opacity:0.4000; stroke:none;">
<circle cx="3.2050" cy="15.9050" r="0.7112" /> 
</g>
<g style="fill:#D864FF; fill-opacity:0.4000; stroke:none;">
<circle cx="5.7450" cy="18.4450" r="0.7112" /> 
</g>
<g style="fill:#D864FF; fill-opacity:0.4000; stroke:none;">
<circle cx="5.7450" cy="15.9050" r="0.7112" /> 
</g>
<g style="fill:#D864FF; fill-opacity:0.4000; stroke:none;">
<circle cx="8.2850" cy="18.4450" r="0.7112" /> 
</g>
<g style="fill:#D864FF; fill-opacity:0.4000; stroke:none;">
<circle cx="8.2850" cy="15.9050" r="0.7112" /> 
</g>
<g style="fill:#D864FF; fill-opacity:0.4000; stroke:none;">
<circle cx="10.8250" cy="18.4450" r="0.7112" /> 
</g>
<g style="fill:#D864FF; fill-opacity:0.4000; stroke:none;">
<circle cx="10.8250" cy="15.9050" r="0.7112" /> 
</g>
<g style="fill:#D864FF; fill-opacity:0.4000; stroke:none;">
<circle cx="13.3650" cy="18.4450" r="0.7112" /> 
</g>
<g style="fill:#D864FF; fill-opacity:0.4000; stroke:none;">
<circle cx="15.9050" cy="15.9050" r="0.7112" /> 
</g>
<g style="fill:#D864FF; fill-opacity:0.4000; stroke:none;">
<circle cx="13.3650" cy="15.9050" r="0.7112" /> 
</g>
<g style="fill:#D864FF; fill-opacity:0.4000; stroke:none;">
<circle cx="15.9050" cy="13.3650" r="0.7112" /> 
</g>
<g style="fill:#D864FF; fill-opacity:0.4000; stroke:none;">
<circle cx="13.3650" cy="13.3650" r="0.7112" /> 
</g>
<g style="fill:#D864FF; fill-opacity:0.4000; stroke:none;">
<circle cx="15.9050" cy="10.8250" r="0.7112" /> 
</g>
<g style="fill:#D864FF; fill-opacity:0.4000; stroke:none;">
<circle cx="13.3650" cy="10.8250" r="0.7112" /> 
</g>
<g style="fill:#D864FF; fill-opacity:0.4000; stroke:none;">
<circle cx="15.9050" cy="8.2850" r="0.7112" /> 
</g>
<g style="fill:#D864FF; fill-opacity:0.4000; stroke:none;">
<circle cx="13.3650" cy="8.2850" r="0.7112" /> 
</g>
<g style="fill:#D864FF; fill-opacity:0.4000; stroke:none;">
<circle cx="15.9050" cy="5.7450" r="0.7112" /> 
</g>
<g style="fill:#D864FF; fill-opacity:0.4000; stroke:none;">
<circle cx="13.3650" cy="3.2050" r="0.7112" /> 
</g>
<g style="fill:#D864FF; fill-opacity:0.4000; stroke:none;">
<circle cx="13.3650" cy="5.7450" r="0.7112" /> 
</g>
<g style="fill:#D864FF; fill-opacity:0.4000; stroke:none;">
<circle cx="10.8250" cy="3.2050" r="0.7112" /> 
</g>
<g style="fill:none; 
stroke:#F2EDA1; stroke-width:0.1588; stroke-opacity:1; 
stroke-linecap:round; stroke-linejoin:round;">
<text x="10.8250" y="6.3800"
textLength="5.6651" font-size="1.6933" lengthAdjust="spacingAndGlyphs"
text-anchor="middle" opacity="0">REF**</text>
<g class="stroked-text"><desc>REF**</desc>
<path d="M9.1317 6.3243
L8.7083 5.7195
" />
<path d="M8.4060 6.3243
L8.4060 5.0543
" />
<path d="M8.4060 5.0543
L8.8898 5.0543
" />
<path d="M8.8898 5.0543
L9.0107 5.1147
" />
<path d="M9.0107 5.1147
L9.0712 5.1752
" />
<path d="M9.0712 5.1752
L9.1317 5.2962
" />
<path d="M9.1317 5.2962
L9.1317 5.4776
" />
<path d="M9.1317 5.4776
L9.0712 5.5986
" />
<path d="M9.0712 5.5986
L9.0107 5.6590
" />
<path d="M9.0107 5.6590
L8.8898 5.7195
" />
<path d="M8.8898 5.7195
L8.4060 5.7195
" />
<path d="M9.6760 5.6590
L10.0993 5.6590
" />
<path d="M10.2807 6.3243
L9.6760 6.3243
" />
<path d="M9.6760 6.3243
L9.6760 5.0543
" />
<path d="M9.6760 5.0543
L10.2807 5.0543
" />
<path d="M11.2483 5.6590
L10.8250 5.6590
" />
<path d="M10.8250 6.3243
L10.8250 5.0543
" />
<path d="M10.8250 5.0543
L11.4298 5.0543
" />
<path d="M12.0950 5.0543
L12.0950 5.3567
" />
<path d="M11.7926 5.2357
L12.0950 5.3567
" />
<path d="M12.0950 5.3567
L12.3974 5.2357
" />
<path d="M11.9136 5.5986
L12.0950 5.3567
" />
<path d="M12.0950 5.3567
L12.2764 5.5986
" />
<path d="M13.0626 5.0543
L13.0626 5.3567
" />
<path d="M12.7602 5.2357
L13.0626 5.3567
" />
<path d="M13.0626 5.3567
L13.3650 5.2357
" />
<path d="M12.8812 5.5986
L13.0626 5.3567
" />
<path d="M13.0626 5.3567
L13.2440 5.5986
" />
</g></g>
<g style="fill:none; 
stroke:#F2EDA1; stroke-width:0.1200; stroke-opacity:1; 
stroke-linecap:round; stroke-linejoin:round;">
<path d="M0.4300 1.4250
L0.4300 21.2250
" />
<path d="M0.4300 21.2250
L18.6800 21.2250
" />
<path d="M1.4300 0.4250
L0.4300 1.4250
" />
<path d="M8.5550 0.4250
L1.4300 0.4250
" />
<path d="M18.6800 0.4250
L10.5550 0.4250
" />
<path d="M18.6800 21.2250
L18.6800 0.4250
" />
</g>
<g style="fill:#FFFFFF; fill-opacity:1.0000; stroke:none;">
<circle cx="10.8250" cy="5.7450" r="0.4000" /> 
</g>
<g style="fill:#FFFFFF; fill-opacity:1.0000; stroke:none;">
<circle cx="8.2850" cy="3.2050" r="0.4000" /> 
</g>
<g style="fill:#FFFFFF; fill-opacity:1.0000; stroke:none;">
<circle cx="8.2850" cy="5.7450" r="0.4000" /> 
</g>
<g style="fill:#FFFFFF; fill-opacity:1.0000; stroke:none;">
<circle cx="5.7450" cy="3.2050" r="0.4000" /> 
</g>
<g style="fill:#FFFFFF; fill-opacity:1.0000; stroke:none;">
<circle cx="3.2050" cy="5.7450" r="0.4000" /> 
</g>
<g style="fill:#FFFFFF; fill-opacity:1.0000; stroke:none;">
<circle cx="5.7450" cy="5.7450" r="0.4000" /> 
</g>
<g style="fill:#FFFFFF; fill-opacity:1.0000; stroke:none;">
<circle cx="3.2050" cy="8.2850" r="0.4000" /> 
</g>
<g style="fill:#FFFFFF; fill-opacity:1.0000; stroke:none;">
<circle cx="5.7450" cy="8.2850" r="0.4000" /> 
</g>
<g style="fill:#FFFFFF; fill-opacity:1.0000; stroke:none;">
<circle cx="3.2050" cy="10.8250" r="0.4000" /> 
</g>
<g style="fill:#FFFFFF; fill-opacity:1.0000; stroke:none;">
<circle cx="5.7450" cy="10.8250" r="0.4000" /> 
</g>
<g style="fill:#FFFFFF; fill-opacity:1.0000; stroke:none;">
<circle cx="3.2050" cy="13.3650" r="0.4000" /> 
</g>
<g style="fill:#FFFFFF; fill-opacity:1.0000; stroke:none;">
<circle cx="5.7450" cy="13.3650" r="0.4000" /> 
</g>
<g style="fill:#FFFFFF; fill-opacity:1.0000; stroke:none;">
<circle cx="3.2050" cy="15.9050" r="0.4000" /> 
</g>
<g style="fill:#FFFFFF; fill-opacity:1.0000; stroke:none;">
<circle cx="5.7450" cy="18.4450" r="0.4000" /> 
</g>
<g style="fill:#FFFFFF; fill-opacity:1.0000; stroke:none;">
<circle cx="5.7450" cy="15.9050" r="0.4000" /> 
</g>
<g style="fill:#FFFFFF; fill-opacity:1.0000; stroke:none;">
<circle cx="8.2850" cy="18.4450" r="0.4000" /> 
</g>
<g style="fill:#FFFFFF; fill-opacity:1.0000; stroke:none;">
<circle cx="8.2850" cy="15.9050" r="0.4000" /> 
</g>
<g style="fill:#FFFFFF; fill-opacity:1.0000; stroke:none;">
<circle cx="10.8250" cy="18.4450" r="0.4000" /> 
</g>
<g style="fill:#FFFFFF; fill-opacity:1.0000; stroke:none;">
<circle cx="10.8250" cy="15.9050" r="0.4000" /> 
</g>
<g style="fill:#FFFFFF; fill-opacity:1.0000; stroke:none;">
<circle cx="13.3650" cy="18.4450" r="0.4000" /> 
</g>
<g style="fill:#FFFFFF; fill-opacity:1.0000; stroke:none;">
<circle cx="15.9050" cy="15.9050" r="0.4000" /> 
</g>
<g style="fill:#FFFFFF; fill-opacity:1.0000; stroke:none;">
<circle cx="13.3650" cy="15.9050" r="0.4000" /> 
</g>
<g style="fill:#FFFFFF; fill-opacity:1.0000; stroke:none;">
<circle cx="15.9050" cy="13.3650" r="0.4000" /> 
</g>
<g style="fill:#FFFFFF; fill-opacity:1.0000; stroke:none;">
<circle cx="13.3650" cy="13.3650" r="0.4000" /> 
</g>
<g style="fill:#FFFFFF; fill-opacity:1.0000; stroke:none;">
<circle cx="15.9050" cy="10.8250" r="0.4000" /> 
</g>
<g style="fill:#FFFFFF; fill-opacity:1.0000; stroke:none;">
<circle cx="13.3650" cy="10.8250" r="0.4000" /> 
</g>
<g style="fill:#FFFFFF; fill-opacity:1.0000; stroke:none;">
<circle cx="15.9050" cy="8.2850" r="0.4000" /> 
</g>
<g style="fill:#FFFFFF; fill-opacity:1.0000; stroke:none;">
<circle cx="13.3650" cy="8.2850" r="0.4000" /> 
</g>
<g style="fill:#FFFFFF; fill-opacity:1.0000; stroke:none;">
<circle cx="15.9050" cy="5.7450" r="0.4000" /> 
</g>
<g style="fill:#FFFFFF; fill-opacity:1.0000; stroke:none;">
<circle cx="13.3650" cy="3.2050" r="0.4000" /> 
</g>
<g style="fill:#FFFFFF; fill-opacity:1.0000; stroke:none;">
<circle cx="13.3650" cy="5.7450" r="0.4000" /> 
</g>
<g style="fill:#FFFFFF; fill-opacity:1.0000; stroke:none;">
<circle cx="10.8250" cy="3.2050" r="0.4000" /> 
</g>
<g style="fill:none; 
stroke:#FF26E2; stroke-width:0.0500; stroke-opacity:1; 
stroke-linecap:round; stroke-linejoin:round;">
<path d="M0.0250 0.0250
L0.0250 21.6250
" />
<path d="M0.0250 21.6250
L19.0850 21.6250
" />
<path d="M19.0850 0.0250
L0.0250 0.0250
" />
<path d="M19.0850 21.6250
L19.0850 0.0250
" />
</g>
<g style="fill:none; 
stroke:#AFAFAF; stroke-width:0.1588; stroke-opacity:1; 
stroke-linecap:round; stroke-linejoin:round;">
<text x="10.8250" y="6.3800"
textLength="21.1470" font-size="1.6933" lengthAdjust="spacingAndGlyphs"
text-anchor="middle" opacity="0">PLCC-32_THT-Socket</text>
<g class="stroked-text"><desc>PLCC-32_THT-Socket</desc>
<path d="M0.6650 6.3243
L0.6650 5.0543
" />
<path d="M0.6650 5.0543
L1.1488 5.0543
" />
<path d="M1.1488 5.0543
L1.2698 5.1147
" />
<path d="M1.2698 5.1147
L1.3302 5.1752
" />
<path d="M1.3302 5.1752
L1.3907 5.2962
" />
<path d="M1.3907 5.2962
L1.3907 5.4776
" />
<path d="M1.3907 5.4776
L1.3302 5.5986
" />
<path d="M1.3302 5.5986
L1.2698 5.6590
" />
<path d="M1.2698 5.6590
L1.1488 5.7195
" />
<path d="M1.1488 5.7195
L0.6650 5.7195
" />
<path d="M2.5398 6.3243
L1.9350 6.3243
" />
<path d="M1.9350 6.3243
L1.9350 5.0543
" />
<path d="M3.6888 6.2033
L3.6283 6.2638
" />
<path d="M3.6283 6.2638
L3.4469 6.3243
" />
<path d="M3.4469 6.3243
L3.3260 6.3243
" />
<path d="M3.3260 6.3243
L3.1445 6.2638
" />
<path d="M3.1445 6.2638
L3.0236 6.1428
" />
<path d="M3.0236 6.1428
L2.9631 6.0219
" />
<path d="M2.9631 6.0219
L2.9026 5.7800
" />
<path d="M2.9026 5.7800
L2.9026 5.5986
" />
<path d="M2.9026 5.5986
L2.9631 5.3567
" />
<path d="M2.9631 5.3567
L3.0236 5.2357
" />
<path d="M3.0236 5.2357
L3.1445 5.1147
" />
<path d="M3.1445 5.1147
L3.3260 5.0543
" />
<path d="M3.3260 5.0543
L3.4469 5.0543
" />
<path d="M3.4469 5.0543
L3.6283 5.1147
" />
<path d="M3.6283 5.1147
L3.6888 5.1752
" />
<path d="M4.9588 6.2033
L4.8983 6.2638
" />
<path d="M4.8983 6.2638
L4.7169 6.3243
" />
<path d="M4.7169 6.3243
L4.5960 6.3243
" />
<path d="M4.5960 6.3243
L4.4145 6.2638
" />
<path d="M4.4145 6.2638
L4.2936 6.1428
" />
<path d="M4.2936 6.1428
L4.2331 6.0219
" />
<path d="M4.2331 6.0219
L4.1726 5.7800
" />
<path d="M4.1726 5.7800
L4.1726 5.5986
" />
<path d="M4.1726 5.5986
L4.2331 5.3567
" />
<path d="M4.2331 5.3567
L4.2936 5.2357
" />
<path d="M4.2936 5.2357
L4.4145 5.1147
" />
<path d="M4.4145 5.1147
L4.5960 5.0543
" />
<path d="M4.5960 5.0543
L4.7169 5.0543
" />
<path d="M4.7169 5.0543
L4.8983 5.1147
" />
<path d="M4.8983 5.1147
L4.9588 5.1752
" />
<path d="M5.5031 5.8405
L6.4707 5.8405
" />
<path d="M6.9545 5.0543
L7.7407 5.0543
" />
<path d="M7.7407 5.0543
L7.3174 5.5381
" />
<path d="M7.3174 5.5381
L7.4988 5.5381
" />
<path d="M7.4988 5.5381
L7.6198 5.5986
" />
<path d="M7.6198 5.5986
L7.6802 5.6590
" />
<path d="M7.6802 5.6590
L7.7407 5.7800
" />
<path d="M7.7407 5.7800
L7.7407 6.0824
" />
<path d="M7.7407 6.0824
L7.6802 6.2033
" />
<path d="M7.6802 6.2033
L7.6198 6.2638
" />
<path d="M7.6198 6.2638
L7.4988 6.3243
" />
<path d="M7.4988 6.3243
L7.1360 6.3243
" />
<path d="M7.1360 6.3243
L7.0150 6.2638
" />
<path d="M7.0150 6.2638
L6.9545 6.2033
" />
<path d="M8.2245 5.1752
L8.2850 5.1147
" />
<path d="M8.2850 5.1147
L8.4060 5.0543
" />
<path d="M8.4060 5.0543
L8.7083 5.0543
" />
<path d="M8.7083 5.0543
L8.8293 5.1147
" />
<path d="M8.8293 5.1147
L8.8898 5.1752
" />
<path d="M8.8898 5.1752
L8.9502 5.2962
" />
<path d="M8.9502 5.2962
L8.9502 5.4171
" />
<path d="M8.9502 5.4171
L8.8898 5.5986
" />
<path d="M8.8898 5.5986
L8.1640 6.3243
" />
<path d="M8.1640 6.3243
L8.9502 6.3243
" />
<path d="M9.1921 6.4452
L10.1598 6.4452
" />
<path d="M10.2807 5.0543
L11.0064 5.0543
" />
<path d="M10.6436 6.3243
L10.6436 5.0543
" />
<path d="M11.4298 6.3243
L11.4298 5.0543
" />
<path d="M11.4298 5.6590
L12.1555 5.6590
" />
<path d="M12.1555 6.3243
L12.1555 5.0543
" />
<path d="M12.5788 5.0543
L13.3045 5.0543
" />
<path d="M12.9417 6.3243
L12.9417 5.0543
" />
<path d="M13.7279 5.8405
L14.6955 5.8405
" />
<path d="M15.2398 6.2638
L15.4212 6.3243
" />
<path d="M15.4212 6.3243
L15.7236 6.3243
" />
<path d="M15.7236 6.3243
L15.8445 6.2638
" />
<path d="M15.8445 6.2638
L15.9050 6.2033
" />
<path d="M15.9050 6.2033
L15.9655 6.0824
" />
<path d="M15.9655 6.0824
L15.9655 5.9614
" />
<path d="M15.9655 5.9614
L15.9050 5.8405
" />
<path d="M15.9050 5.8405
L15.8445 5.7800
" />
<path d="M15.8445 5.7800
L15.7236 5.7195
" />
<path d="M15.7236 5.7195
L15.4817 5.6590
" />
<path d="M15.4817 5.6590
L15.3607 5.5986
" />
<path d="M15.3607 5.5986
L15.3002 5.5381
" />
<path d="M15.3002 5.5381
L15.2398 5.4171
" />
<path d="M15.2398 5.4171
L15.2398 5.2962
" />
<path d="M15.2398 5.2962
L15.3002 5.1752
" />
<path d="M15.3002 5.1752
L15.3607 5.1147
" />
<path d="M15.3607 5.1147
L15.4817 5.0543
" />
<path d="M15.4817 5.0543
L15.7840 5.0543
" />
<path d="M15.7840 5.0543
L15.9655 5.1147
" />
<path d="M16.6912 6.3243
L16.5702 6.2638
" />
<path d="M16.5702 6.2638
L16.5098 6.2033
" />
<path d="M16.5098 6.2033
L16.4493 6.0824
" />
<path d="M16.4493 6.0824
L16.4493 5.7195
" />
<path d="M16.4493 5.7195
L16.5098 5.5986
" />
<path d="M16.5098 5.5986
L16.5702 5.5381
" />
<path d="M16.5702 5.5381
L16.6912 5.4776
" />
<path d="M16.6912 5.4776
L16.8726 5.4776
" />
<path d="M16.8726 5.4776
L16.9936 5.5381
" />
<path d="M16.9936 5.5381
L17.0540 5.5986
" />
<path d="M17.0540 5.5986
L17.1145 5.7195
" />
<path d="M17.1145 5.7195
L17.1145 6.0824
" />
<path d="M17.1145 6.0824
L17.0540 6.2033
" />
<path d="M17.0540 6.2033
L16.9936 6.2638
" />
<path d="M16.9936 6.2638
L16.8726 6.3243
" />
<path d="M16.8726 6.3243
L16.6912 6.3243
" />
<path d="M18.2031 6.2638
L18.0821 6.3243
" />
<path d="M18.0821 6.3243
L17.8402 6.3243
" />
<path d="M17.8402 6.3243
L17.7193 6.2638
" />
<path d="M17.7193 6.2638
L17.6588 6.2033
" />
<path d="M17.6588 6.2033
L17.5983 6.0824
" />
<path d="M17.5983 6.0824
L17.5983 5.7195
" />
<path d="M17.5983 5.7195
L17.6588 5.5986
" />
<path d="M17.6588 5.5986
L17.7193 5.5381
" />
<path d="M17.7193 5.5381
L17.8402 5.4776
" />
<path d="M17.8402 5.4776
L18.0821 5.4776
" />
<path d="M18.0821 5.4776
L18.2031 5.5381
" />
<path d="M18.7474 6.3243
L18.7474 5.0543
" />
<path d="M18.8683 5.8405
L19.2312 6.3243
" />
<path d="M19.2312 5.4776
L18.7474 5.9614
" />
<path d="M20.2593 6.2638
L20.1383 6.3243
" />
<path d="M20.1383 6.3243
L19.8964 6.3243
" />
<path d="M19.8964 6.3243
L19.7755 6.2638
" />
<path d="M19.7755 6.2638
L19.7150 6.1428
" />
<path d="M19.7150 6.1428
L19.7150 5.6590
" />
<path d="M19.7150 5.6590
L19.7755 5.5381
" />
<path d="M19.7755 5.5381
L19.8964 5.4776
" />
<path d="M19.8964 5.4776
L20.1383 5.4776
" />
<path d="M20.1383 5.4776
L20.2593 5.5381
" />
<path d="M20.2593 5.5381
L20.3198 5.6590
" />
<path d="M20.3198 5.6590
L20.3198 5.7800
" />
<path d="M20.3198 5.7800
L19.7150 5.9009
" />
<path d="M20.6826 5.4776
L21.1664 5.4776
" />
<path d="M20.8640 5.0543
L20.8640 6.1428
" />
<path d="M20.8640 6.1428
L20.9245 6.2638
" />
<path d="M20.9245 6.2638
L21.0455 6.3243
" />
<path d="M21.0455 6.3243
L21.1664 6.3243
" />
</g></g>
<g style="fill:none; 
stroke:#AFAFAF; stroke-width:0.1500; stroke-opacity:1; 
stroke-linecap:round; stroke-linejoin:round;">
<text x="9.5550" y="11.3250"
textLength="4.5357" font-size="1.3333" lengthAdjust="spacingAndGlyphs"
text-anchor="middle" opacity="0">REF**</text>
<g class="stroked-text"><desc>REF**</desc>
<path d="M8.2217 11.2798
L7.8883 10.8036
" />
<path d="M7.6502 11.2798
L7.6502 10.2798
" />
<path d="M7.6502 10.2798
L8.0312 10.2798
" />
<path d="M8.0312 10.2798
L8.1264 10.3274
" />
<path d="M8.1264 10.3274
L8.1740 10.3751
" />
<path d="M8.1740 10.3751
L8.2217 10.4703
" />
<path d="M8.2217 10.4703
L8.2217 10.6132
" />
<path d="M8.2217 10.6132
L8.1740 10.7084
" />
<path d="M8.1740 10.7084
L8.1264 10.7560
" />
<path d="M8.1264 10.7560
L8.0312 10.8036
" />
<path d="M8.0312 10.8036
L7.6502 10.8036
" />
<path d="M8.6502 10.7560
L8.9836 10.7560
" />
<path d="M9.1264 11.2798
L8.6502 11.2798
" />
<path d="M8.6502 11.2798
L8.6502 10.2798
" />
<path d="M8.6502 10.2798
L9.1264 10.2798
" />
<path d="M9.8883 10.7560
L9.5550 10.7560
" />
<path d="M9.5550 11.2798
L9.5550 10.2798
" />
<path d="M9.5550 10.2798
L10.0312 10.2798
" />
<path d="M10.5550 10.2798
L10.5550 10.5179
" />
<path d="M10.3169 10.4227
L10.5550 10.5179
" />
<path d="M10.5550 10.5179
L10.7931 10.4227
" />
<path d="M10.4121 10.7084
L10.5550 10.5179
" />
<path d="M10.5550 10.5179
L10.6979 10.7084
" />
<path d="M11.3169 10.2798
L11.3169 10.5179
" />
<path d="M11.0788 10.4227
L11.3169 10.5179
" />
<path d="M11.3169 10.5179
L11.5550 10.4227
" />
<path d="M11.1740 10.7084
L11.3169 10.5179
" />
<path d="M11.3169 10.5179
L11.4598 10.7084
" />
</g></g>
<g style="fill:none; 
stroke:#AFAFAF; stroke-width:0.1000; stroke-opacity:1; 
stroke-linecap:round; stroke-linejoin:round;">
<path d="M0.5300 1.5250
L0.5300 21.1250
" />
<path d="M0.5300 21.1250
L18.5800 21.1250
" />
<path d="M1.5300 0.5250
L0.5300 1.5250
" />
<path d="M3.0700 3.0650
L3.0700 18.5850
" />
<path d="M3.0700 18.5850
L16.0400 18.5850
" />
<path d="M9.0550 0.5250
L9.5550 1.5250
" />
<path d="M9.5550 1.5250
L10.0550 0.5250
" />
<path d="M16.0400 3.0650
L3.0700 3.0650
" />
<path d="M16.0400 18.5850
L16.0400 3.0650
" />
<path d="M18.5800 0.5250
L1.5300 0.5250
" />
<path d="M18.5800 21.1250
L18.5800 0.5250
" />
</g> 
</svg>
