<?xml version="1.0" standalone="no"?>
 <!DOCTYPE svg PUBLIC "-//W3C//DTD SVG 1.1//EN" 
 "http://www.w3.org/Graphics/SVG/1.1/DTD/svg11.dtd"> 
<svg
  xmlns:svg="http://www.w3.org/2000/svg"
  xmlns="http://www.w3.org/2000/svg"
  xmlns:xlink="http://www.w3.org/1999/xlink"
  version="1.1"
  width="34.6710mm" height="14.5796mm" viewBox="0.0000 0.0000 34.6710 14.5796">
<title>SVG Image created as working-brd.svg date 2024/04/22 23:35:07 </title>
  <desc>Image generated by PCBNEW </desc>
<g style="fill:#000000; fill-opacity:1.0000;stroke:#000000; stroke-opacity:1.0000;
stroke-linecap:round; stroke-linejoin:round;"
 transform="translate(0 0) scale(1 1)">
<path style="fill:#C83434; fill-opacity:1.0000; stroke:none;fill-rule:evenodd;"
d="M 5.4000,1.6750
5.4190,1.5793
5.4732,1.4982
5.5543,1.4440
5.6500,1.4250
6.1500,1.4250
6.2457,1.4440
6.3268,1.4982
6.3810,1.5793
6.4000,1.6750
6.4000,3.1250
6.3810,3.2207
6.3268,3.3018
6.2457,3.3560
6.1500,3.3750
5.6500,3.3750
5.5543,3.3560
5.4732,3.3018
5.4190,3.2207
5.4000,3.1250
Z" /> 
<path style="fill:#C83434; fill-opacity:1.0000; stroke:none;fill-rule:evenodd;"
d="M 0.3000,1.6750
0.3190,1.5793
0.3732,1.4982
0.4543,1.4440
0.5500,1.4250
1.0500,1.4250
1.1457,1.4440
1.2268,1.4982
1.2810,1.5793
1.3000,1.6750
1.3000,3.1250
1.2810,3.2207
1.2268,3.3018
1.1457,3.3560
1.0500,3.3750
0.5500,3.3750
0.4543,3.3560
0.3732,3.3018
0.3190,3.2207
0.3000,3.1250
Z" /> 
<path style="fill:#C83434; fill-opacity:1.0000; stroke:none;fill-rule:evenodd;"
d="M 5.4000,11.4750
5.4190,11.3793
5.4732,11.2982
5.5543,11.2440
5.6500,11.2250
6.1500,11.2250
6.2457,11.2440
6.3268,11.2982
6.3810,11.3793
6.4000,11.4750
6.4000,12.9250
6.3810,13.0207
6.3268,13.1018
6.2457,13.1560
6.1500,13.1750
5.6500,13.1750
5.5543,13.1560
5.4732,13.1018
5.4190,13.0207
5.4000,12.9250
Z" /> 
<path style="fill:#C83434; fill-opacity:1.0000; stroke:none;fill-rule:evenodd;"
d="M 28.9000,11.4750
28.9190,11.3793
28.9732,11.2982
29.0543,11.2440
29.1500,11.2250
29.6500,11.2250
29.7457,11.2440
29.8268,11.2982
29.8810,11.3793
29.9000,11.4750
29.9000,12.9250
29.8810,13.0207
29.8268,13.1018
29.7457,13.1560
29.6500,13.1750
29.1500,13.1750
29.0543,13.1560
28.9732,13.1018
28.9190,13.0207
28.9000,12.9250
Z" /> 
<path style="fill:#C83434; fill-opacity:1.0000; stroke:none;fill-rule:evenodd;"
d="M 28.9000,1.6750
28.9190,1.5793
28.9732,1.4982
29.0543,1.4440
29.1500,1.4250
29.6500,1.4250
29.7457,1.4440
29.8268,1.4982
29.8810,1.5793
29.9000,1.6750
29.9000,3.1250
29.8810,3.2207
29.8268,3.3018
29.7457,3.3560
29.6500,3.3750
29.1500,3.3750
29.0543,3.3560
28.9732,3.3018
28.9190,3.2207
28.9000,3.1250
Z" /> 
<path style="fill:#C83434; fill-opacity:1.0000; stroke:none;fill-rule:evenodd;"
d="M 12.1000,1.6750
12.1190,1.5793
12.1732,1.4982
12.2543,1.4440
12.3500,1.4250
12.8500,1.4250
12.9457,1.4440
13.0268,1.4982
13.0810,1.5793
13.1000,1.6750
13.1000,3.1250
13.0810,3.2207
13.0268,3.3018
12.9457,3.3560
12.8500,3.3750
12.3500,3.3750
12.2543,3.3560
12.1732,3.3018
12.1190,3.2207
12.1000,3.1250
Z" /> 
<path style="fill:#D864FF; fill-opacity:0.4000; stroke:none;fill-rule:evenodd;"
d="M 5.4000,1.6750
5.4190,1.5793
5.4732,1.4982
5.5543,1.4440
5.6500,1.4250
6.1500,1.4250
6.2457,1.4440
6.3268,1.4982
6.3810,1.5793
6.4000,1.6750
6.4000,3.1250
6.3810,3.2207
6.3268,3.3018
6.2457,3.3560
6.1500,3.3750
5.6500,3.3750
5.5543,3.3560
5.4732,3.3018
5.4190,3.2207
5.4000,3.1250
Z" /> 
<path style="fill:#D864FF; fill-opacity:0.4000; stroke:none;fill-rule:evenodd;"
d="M 0.3000,1.6750
0.3190,1.5793
0.3732,1.4982
0.4543,1.4440
0.5500,1.4250
1.0500,1.4250
1.1457,1.4440
1.2268,1.4982
1.2810,1.5793
1.3000,1.6750
1.3000,3.1250
1.2810,3.2207
1.2268,3.3018
1.1457,3.3560
1.0500,3.3750
0.5500,3.3750
0.4543,3.3560
0.3732,3.3018
0.3190,3.2207
0.3000,3.1250
Z" /> 
<path style="fill:#D864FF; fill-opacity:0.4000; stroke:none;fill-rule:evenodd;"
d="M 5.4000,11.4750
5.4190,11.3793
5.4732,11.2982
5.5543,11.2440
5.6500,11.2250
6.1500,11.2250
6.2457,11.2440
6.3268,11.2982
6.3810,11.3793
6.4000,11.4750
6.4000,12.9250
6.3810,13.0207
6.3268,13.1018
6.2457,13.1560
6.1500,13.1750
5.6500,13.1750
5.5543,13.1560
5.4732,13.1018
5.4190,13.0207
5.4000,12.9250
Z" /> 
<path style="fill:#D864FF; fill-opacity:0.4000; stroke:none;fill-rule:evenodd;"
d="M 28.9000,11.4750
28.9190,11.3793
28.9732,11.2982
29.0543,11.2440
29.1500,11.2250
29.6500,11.2250
29.7457,11.2440
29.8268,11.2982
29.8810,11.3793
29.9000,11.4750
29.9000,12.9250
29.8810,13.0207
29.8268,13.1018
29.7457,13.1560
29.6500,13.1750
29.1500,13.1750
29.0543,13.1560
28.9732,13.1018
28.9190,13.0207
28.9000,12.9250
Z" /> 
<path style="fill:#D864FF; fill-opacity:0.4000; stroke:none;fill-rule:evenodd;"
d="M 28.9000,1.6750
28.9190,1.5793
28.9732,1.4982
29.0543,1.4440
29.1500,1.4250
29.6500,1.4250
29.7457,1.4440
29.8268,1.4982
29.8810,1.5793
29.9000,1.6750
29.9000,3.1250
29.8810,3.2207
29.8268,3.3018
29.7457,3.3560
29.6500,3.3750
29.1500,3.3750
29.0543,3.3560
28.9732,3.3018
28.9190,3.2207
28.9000,3.1250
Z" /> 
<path style="fill:#D864FF; fill-opacity:0.4000; stroke:none;fill-rule:evenodd;"
d="M 12.1000,1.6750
12.1190,1.5793
12.1732,1.4982
12.2543,1.4440
12.3500,1.4250
12.8500,1.4250
12.9457,1.4440
13.0268,1.4982
13.0810,1.5793
13.1000,1.6750
13.1000,3.1250
13.0810,3.2207
13.0268,3.3018
12.9457,3.3560
12.8500,3.3750
12.3500,3.3750
12.2543,3.3560
12.1732,3.3018
12.1190,3.2207
12.1000,3.1250
Z" /> 
<path style="fill:#B4A09A; fill-opacity:0.9000; stroke:none;fill-rule:evenodd;"
d="M 5.4000,1.6750
5.4190,1.5793
5.4732,1.4982
5.5543,1.4440
5.6500,1.4250
6.1500,1.4250
6.2457,1.4440
6.3268,1.4982
6.3810,1.5793
6.4000,1.6750
6.4000,3.1250
6.3810,3.2207
6.3268,3.3018
6.2457,3.3560
6.1500,3.3750
5.6500,3.3750
5.5543,3.3560
5.4732,3.3018
5.4190,3.2207
5.4000,3.1250
Z" /> 
<path style="fill:#B4A09A; fill-opacity:0.9000; stroke:none;fill-rule:evenodd;"
d="M 0.3000,1.6750
0.3190,1.5793
0.3732,1.4982
0.4543,1.4440
0.5500,1.4250
1.0500,1.4250
1.1457,1.4440
1.2268,1.4982
1.2810,1.5793
1.3000,1.6750
1.3000,3.1250
1.2810,3.2207
1.2268,3.3018
1.1457,3.3560
1.0500,3.3750
0.5500,3.3750
0.4543,3.3560
0.3732,3.3018
0.3190,3.2207
0.3000,3.1250
Z" /> 
<path style="fill:#B4A09A; fill-opacity:0.9000; stroke:none;fill-rule:evenodd;"
d="M 5.4000,11.4750
5.4190,11.3793
5.4732,11.2982
5.5543,11.2440
5.6500,11.2250
6.1500,11.2250
6.2457,11.2440
6.3268,11.2982
6.3810,11.3793
6.4000,11.4750
6.4000,12.9250
6.3810,13.0207
6.3268,13.1018
6.2457,13.1560
6.1500,13.1750
5.6500,13.1750
5.5543,13.1560
5.4732,13.1018
5.4190,13.0207
5.4000,12.9250
Z" /> 
<path style="fill:#B4A09A; fill-opacity:0.9000; stroke:none;fill-rule:evenodd;"
d="M 28.9000,11.4750
28.9190,11.3793
28.9732,11.2982
29.0543,11.2440
29.1500,11.2250
29.6500,11.2250
29.7457,11.2440
29.8268,11.2982
29.8810,11.3793
29.9000,11.4750
29.9000,12.9250
29.8810,13.0207
29.8268,13.1018
29.7457,13.1560
29.6500,13.1750
29.1500,13.1750
29.0543,13.1560
28.9732,13.1018
28.9190,13.0207
28.9000,12.9250
Z" /> 
<path style="fill:#B4A09A; fill-opacity:0.9000; stroke:none;fill-rule:evenodd;"
d="M 28.9000,1.6750
28.9190,1.5793
28.9732,1.4982
29.0543,1.4440
29.1500,1.4250
29.6500,1.4250
29.7457,1.4440
29.8268,1.4982
29.8810,1.5793
29.9000,1.6750
29.9000,3.1250
29.8810,3.2207
29.8268,3.3018
29.7457,3.3560
29.6500,3.3750
29.1500,3.3750
29.0543,3.3560
28.9732,3.3018
28.9190,3.2207
28.9000,3.1250
Z" /> 
<path style="fill:#B4A09A; fill-opacity:0.9000; stroke:none;fill-rule:evenodd;"
d="M 12.1000,1.6750
12.1190,1.5793
12.1732,1.4982
12.2543,1.4440
12.3500,1.4250
12.8500,1.4250
12.9457,1.4440
13.0268,1.4982
13.0810,1.5793
13.1000,1.6750
13.1000,3.1250
13.0810,3.2207
13.0268,3.3018
12.9457,3.3560
12.8500,3.3750
12.3500,3.3750
12.2543,3.3560
12.1732,3.3018
12.1190,3.2207
12.1000,3.1250
Z" /> 
</g>
<g style="fill:none; 
stroke:#F2EDA1; stroke-width:0.1588; stroke-opacity:1; 
stroke-linecap:round; stroke-linejoin:round;">
<text x="17.4000" y="7.9350"
textLength="5.6651" font-size="1.6933" lengthAdjust="spacingAndGlyphs"
text-anchor="middle" opacity="0">REF**</text>
<g class="stroked-text"><desc>REF**</desc>
<path d="M15.7067 7.8793
L15.2833 7.2745
" />
<path d="M14.9810 7.8793
L14.9810 6.6093
" />
<path d="M14.9810 6.6093
L15.4648 6.6093
" />
<path d="M15.4648 6.6093
L15.5857 6.6697
" />
<path d="M15.5857 6.6697
L15.6462 6.7302
" />
<path d="M15.6462 6.7302
L15.7067 6.8512
" />
<path d="M15.7067 6.8512
L15.7067 7.0326
" />
<path d="M15.7067 7.0326
L15.6462 7.1536
" />
<path d="M15.6462 7.1536
L15.5857 7.2140
" />
<path d="M15.5857 7.2140
L15.4648 7.2745
" />
<path d="M15.4648 7.2745
L14.9810 7.2745
" />
<path d="M16.2510 7.2140
L16.6743 7.2140
" />
<path d="M16.8557 7.8793
L16.2510 7.8793
" />
<path d="M16.2510 7.8793
L16.2510 6.6093
" />
<path d="M16.2510 6.6093
L16.8557 6.6093
" />
<path d="M17.8233 7.2140
L17.4000 7.2140
" />
<path d="M17.4000 7.8793
L17.4000 6.6093
" />
<path d="M17.4000 6.6093
L18.0048 6.6093
" />
<path d="M18.6700 6.6093
L18.6700 6.9117
" />
<path d="M18.3676 6.7907
L18.6700 6.9117
" />
<path d="M18.6700 6.9117
L18.9724 6.7907
" />
<path d="M18.4886 7.1536
L18.6700 6.9117
" />
<path d="M18.6700 6.9117
L18.8514 7.1536
" />
<path d="M19.6376 6.6093
L19.6376 6.9117
" />
<path d="M19.3352 6.7907
L19.6376 6.9117
" />
<path d="M19.6376 6.9117
L19.9400 6.7907
" />
<path d="M19.4562 7.1536
L19.6376 6.9117
" />
<path d="M19.6376 6.9117
L19.8190 7.1536
" />
</g></g>
<g style="fill:none; 
stroke:#F2EDA1; stroke-width:0.1200; stroke-opacity:1; 
stroke-linecap:round; stroke-linejoin:round;">
<path d="M0.3000 3.7000
L0.3000 13.2000
" />
<path d="M0.3000 13.2000
L5.0500 13.2000
" />
<path d="M1.6500 1.4000
L5.0500 1.4000
" />
<path d="M6.7500 1.4000
L11.7500 1.4000
" />
<path d="M6.7500 13.2000
L28.5500 13.2000
" />
<path d="M13.4500 1.4000
L28.5500 1.4000
" />
<path d="M30.2500 13.2000
L34.5000 13.2000
" />
<path d="M34.5000 1.4000
L30.2500 1.4000
" />
<path d="M34.5000 13.2000
L34.5000 1.4000
" />
</g>
<g style="fill:none; 
stroke:#FF26E2; stroke-width:0.0500; stroke-opacity:1; 
stroke-linecap:round; stroke-linejoin:round;">
<path d="M0.1500 1.2500
L34.6500 1.2500
" />
<path d="M0.1500 13.3500
L0.1500 1.2500
" />
<path d="M34.6500 1.2500
L34.6500 13.3500
" />
<path d="M34.6500 13.3500
L0.1500 13.3500
" />
</g>
<g style="fill:none; 
stroke:#AFAFAF; stroke-width:0.1588; stroke-opacity:1; 
stroke-linecap:round; stroke-linejoin:round;">
<text x="17.4000" y="7.9350"
textLength="21.9937" font-size="1.6933" lengthAdjust="spacingAndGlyphs"
text-anchor="middle" opacity="0">Abracon_PRO-OB-471</text>
<g class="stroked-text"><desc>Abracon_PRO-OB-471</desc>
<path d="M6.7562 7.5164
L7.3610 7.5164
" />
<path d="M6.6352 7.8793
L7.0586 6.6093
" />
<path d="M7.0586 6.6093
L7.4819 7.8793
" />
<path d="M7.9052 7.8793
L7.9052 6.6093
" />
<path d="M7.9052 7.0931
L8.0262 7.0326
" />
<path d="M8.0262 7.0326
L8.2681 7.0326
" />
<path d="M8.2681 7.0326
L8.3890 7.0931
" />
<path d="M8.3890 7.0931
L8.4495 7.1536
" />
<path d="M8.4495 7.1536
L8.5100 7.2745
" />
<path d="M8.5100 7.2745
L8.5100 7.6374
" />
<path d="M8.5100 7.6374
L8.4495 7.7583
" />
<path d="M8.4495 7.7583
L8.3890 7.8188
" />
<path d="M8.3890 7.8188
L8.2681 7.8793
" />
<path d="M8.2681 7.8793
L8.0262 7.8793
" />
<path d="M8.0262 7.8793
L7.9052 7.8188
" />
<path d="M9.0543 7.8793
L9.0543 7.0326
" />
<path d="M9.0543 7.2745
L9.1148 7.1536
" />
<path d="M9.1148 7.1536
L9.1752 7.0931
" />
<path d="M9.1752 7.0931
L9.2962 7.0326
" />
<path d="M9.2962 7.0326
L9.4171 7.0326
" />
<path d="M10.3848 7.8793
L10.3848 7.2140
" />
<path d="M10.3848 7.2140
L10.3243 7.0931
" />
<path d="M10.3243 7.0931
L10.2033 7.0326
" />
<path d="M10.2033 7.0326
L9.9614 7.0326
" />
<path d="M9.9614 7.0326
L9.8405 7.0931
" />
<path d="M10.3848 7.8188
L10.2638 7.8793
" />
<path d="M10.2638 7.8793
L9.9614 7.8793
" />
<path d="M9.9614 7.8793
L9.8405 7.8188
" />
<path d="M9.8405 7.8188
L9.7800 7.6978
" />
<path d="M9.7800 7.6978
L9.7800 7.5769
" />
<path d="M9.7800 7.5769
L9.8405 7.4559
" />
<path d="M9.8405 7.4559
L9.9614 7.3955
" />
<path d="M9.9614 7.3955
L10.2638 7.3955
" />
<path d="M10.2638 7.3955
L10.3848 7.3350
" />
<path d="M11.5338 7.8188
L11.4129 7.8793
" />
<path d="M11.4129 7.8793
L11.1710 7.8793
" />
<path d="M11.1710 7.8793
L11.0500 7.8188
" />
<path d="M11.0500 7.8188
L10.9895 7.7583
" />
<path d="M10.9895 7.7583
L10.9290 7.6374
" />
<path d="M10.9290 7.6374
L10.9290 7.2745
" />
<path d="M10.9290 7.2745
L10.9895 7.1536
" />
<path d="M10.9895 7.1536
L11.0500 7.0931
" />
<path d="M11.0500 7.0931
L11.1710 7.0326
" />
<path d="M11.1710 7.0326
L11.4129 7.0326
" />
<path d="M11.4129 7.0326
L11.5338 7.0931
" />
<path d="M12.2595 7.8793
L12.1386 7.8188
" />
<path d="M12.1386 7.8188
L12.0781 7.7583
" />
<path d="M12.0781 7.7583
L12.0176 7.6374
" />
<path d="M12.0176 7.6374
L12.0176 7.2745
" />
<path d="M12.0176 7.2745
L12.0781 7.1536
" />
<path d="M12.0781 7.1536
L12.1386 7.0931
" />
<path d="M12.1386 7.0931
L12.2595 7.0326
" />
<path d="M12.2595 7.0326
L12.4410 7.0326
" />
<path d="M12.4410 7.0326
L12.5619 7.0931
" />
<path d="M12.5619 7.0931
L12.6224 7.1536
" />
<path d="M12.6224 7.1536
L12.6829 7.2745
" />
<path d="M12.6829 7.2745
L12.6829 7.6374
" />
<path d="M12.6829 7.6374
L12.6224 7.7583
" />
<path d="M12.6224 7.7583
L12.5619 7.8188
" />
<path d="M12.5619 7.8188
L12.4410 7.8793
" />
<path d="M12.4410 7.8793
L12.2595 7.8793
" />
<path d="M13.2271 7.0326
L13.2271 7.8793
" />
<path d="M13.2271 7.1536
L13.2876 7.0931
" />
<path d="M13.2876 7.0931
L13.4086 7.0326
" />
<path d="M13.4086 7.0326
L13.5900 7.0326
" />
<path d="M13.5900 7.0326
L13.7110 7.0931
" />
<path d="M13.7110 7.0931
L13.7714 7.2140
" />
<path d="M13.7714 7.2140
L13.7714 7.8793
" />
<path d="M14.0738 8.0002
L15.0414 8.0002
" />
<path d="M15.3438 7.8793
L15.3438 6.6093
" />
<path d="M15.3438 6.6093
L15.8276 6.6093
" />
<path d="M15.8276 6.6093
L15.9486 6.6697
" />
<path d="M15.9486 6.6697
L16.0090 6.7302
" />
<path d="M16.0090 6.7302
L16.0695 6.8512
" />
<path d="M16.0695 6.8512
L16.0695 7.0326
" />
<path d="M16.0695 7.0326
L16.0090 7.1536
" />
<path d="M16.0090 7.1536
L15.9486 7.2140
" />
<path d="M15.9486 7.2140
L15.8276 7.2745
" />
<path d="M15.8276 7.2745
L15.3438 7.2745
" />
<path d="M17.3395 7.8793
L16.9162 7.2745
" />
<path d="M16.6138 7.8793
L16.6138 6.6093
" />
<path d="M16.6138 6.6093
L17.0976 6.6093
" />
<path d="M17.0976 6.6093
L17.2186 6.6697
" />
<path d="M17.2186 6.6697
L17.2790 6.7302
" />
<path d="M17.2790 6.7302
L17.3395 6.8512
" />
<path d="M17.3395 6.8512
L17.3395 7.0326
" />
<path d="M17.3395 7.0326
L17.2790 7.1536
" />
<path d="M17.2790 7.1536
L17.2186 7.2140
" />
<path d="M17.2186 7.2140
L17.0976 7.2745
" />
<path d="M17.0976 7.2745
L16.6138 7.2745
" />
<path d="M18.1257 6.6093
L18.3676 6.6093
" />
<path d="M18.3676 6.6093
L18.4886 6.6697
" />
<path d="M18.4886 6.6697
L18.6095 6.7907
" />
<path d="M18.6095 6.7907
L18.6700 7.0326
" />
<path d="M18.6700 7.0326
L18.6700 7.4559
" />
<path d="M18.6700 7.4559
L18.6095 7.6978
" />
<path d="M18.6095 7.6978
L18.4886 7.8188
" />
<path d="M18.4886 7.8188
L18.3676 7.8793
" />
<path d="M18.3676 7.8793
L18.1257 7.8793
" />
<path d="M18.1257 7.8793
L18.0048 7.8188
" />
<path d="M18.0048 7.8188
L17.8838 7.6978
" />
<path d="M17.8838 7.6978
L17.8233 7.4559
" />
<path d="M17.8233 7.4559
L17.8233 7.0326
" />
<path d="M17.8233 7.0326
L17.8838 6.7907
" />
<path d="M17.8838 6.7907
L18.0048 6.6697
" />
<path d="M18.0048 6.6697
L18.1257 6.6093
" />
<path d="M19.2143 7.3955
L20.1819 7.3955
" />
<path d="M21.0286 6.6093
L21.2705 6.6093
" />
<path d="M21.2705 6.6093
L21.3914 6.6697
" />
<path d="M21.3914 6.6697
L21.5124 6.7907
" />
<path d="M21.5124 6.7907
L21.5729 7.0326
" />
<path d="M21.5729 7.0326
L21.5729 7.4559
" />
<path d="M21.5729 7.4559
L21.5124 7.6978
" />
<path d="M21.5124 7.6978
L21.3914 7.8188
" />
<path d="M21.3914 7.8188
L21.2705 7.8793
" />
<path d="M21.2705 7.8793
L21.0286 7.8793
" />
<path d="M21.0286 7.8793
L20.9076 7.8188
" />
<path d="M20.9076 7.8188
L20.7867 7.6978
" />
<path d="M20.7867 7.6978
L20.7262 7.4559
" />
<path d="M20.7262 7.4559
L20.7262 7.0326
" />
<path d="M20.7262 7.0326
L20.7867 6.7907
" />
<path d="M20.7867 6.7907
L20.9076 6.6697
" />
<path d="M20.9076 6.6697
L21.0286 6.6093
" />
<path d="M22.5405 7.2140
L22.7219 7.2745
" />
<path d="M22.7219 7.2745
L22.7824 7.3350
" />
<path d="M22.7824 7.3350
L22.8429 7.4559
" />
<path d="M22.8429 7.4559
L22.8429 7.6374
" />
<path d="M22.8429 7.6374
L22.7824 7.7583
" />
<path d="M22.7824 7.7583
L22.7219 7.8188
" />
<path d="M22.7219 7.8188
L22.6010 7.8793
" />
<path d="M22.6010 7.8793
L22.1171 7.8793
" />
<path d="M22.1171 7.8793
L22.1171 6.6093
" />
<path d="M22.1171 6.6093
L22.5405 6.6093
" />
<path d="M22.5405 6.6093
L22.6614 6.6697
" />
<path d="M22.6614 6.6697
L22.7219 6.7302
" />
<path d="M22.7219 6.7302
L22.7824 6.8512
" />
<path d="M22.7824 6.8512
L22.7824 6.9721
" />
<path d="M22.7824 6.9721
L22.7219 7.0931
" />
<path d="M22.7219 7.0931
L22.6614 7.1536
" />
<path d="M22.6614 7.1536
L22.5405 7.2140
" />
<path d="M22.5405 7.2140
L22.1171 7.2140
" />
<path d="M23.3871 7.3955
L24.3548 7.3955
" />
<path d="M25.5038 7.0326
L25.5038 7.8793
" />
<path d="M25.2014 6.5488
L24.8990 7.4559
" />
<path d="M24.8990 7.4559
L25.6852 7.4559
" />
<path d="M26.0481 6.6093
L26.8948 6.6093
" />
<path d="M26.8948 6.6093
L26.3505 7.8793
" />
<path d="M28.0438 7.8793
L27.3181 7.8793
" />
<path d="M27.6810 7.8793
L27.6810 6.6093
" />
<path d="M27.6810 6.6093
L27.5600 6.7907
" />
<path d="M27.5600 6.7907
L27.4390 6.9117
" />
<path d="M27.4390 6.9117
L27.3181 6.9721
" />
</g></g>
<g style="fill:none; 
stroke:#AFAFAF; stroke-width:0.1500; stroke-opacity:1; 
stroke-linecap:round; stroke-linejoin:round;">
<text x="17.4000" y="5.2400"
textLength="4.5357" font-size="1.3333" lengthAdjust="spacingAndGlyphs"
text-anchor="middle" opacity="0">REF**</text>
<g class="stroked-text"><desc>REF**</desc>
<path d="M16.0667 5.1948
L15.7333 4.7186
" />
<path d="M15.4952 5.1948
L15.4952 4.1948
" />
<path d="M15.4952 4.1948
L15.8762 4.1948
" />
<path d="M15.8762 4.1948
L15.9714 4.2424
" />
<path d="M15.9714 4.2424
L16.0190 4.2901
" />
<path d="M16.0190 4.2901
L16.0667 4.3853
" />
<path d="M16.0667 4.3853
L16.0667 4.5282
" />
<path d="M16.0667 4.5282
L16.0190 4.6234
" />
<path d="M16.0190 4.6234
L15.9714 4.6710
" />
<path d="M15.9714 4.6710
L15.8762 4.7186
" />
<path d="M15.8762 4.7186
L15.4952 4.7186
" />
<path d="M16.4952 4.6710
L16.8286 4.6710
" />
<path d="M16.9714 5.1948
L16.4952 5.1948
" />
<path d="M16.4952 5.1948
L16.4952 4.1948
" />
<path d="M16.4952 4.1948
L16.9714 4.1948
" />
<path d="M17.7333 4.6710
L17.4000 4.6710
" />
<path d="M17.4000 5.1948
L17.4000 4.1948
" />
<path d="M17.4000 4.1948
L17.8762 4.1948
" />
<path d="M18.4000 4.1948
L18.4000 4.4329
" />
<path d="M18.1619 4.3377
L18.4000 4.4329
" />
<path d="M18.4000 4.4329
L18.6381 4.3377
" />
<path d="M18.2571 4.6234
L18.4000 4.4329
" />
<path d="M18.4000 4.4329
L18.5429 4.6234
" />
<path d="M19.1619 4.1948
L19.1619 4.4329
" />
<path d="M18.9238 4.3377
L19.1619 4.4329
" />
<path d="M19.1619 4.4329
L19.4000 4.3377
" />
<path d="M19.0190 4.6234
L19.1619 4.4329
" />
<path d="M19.1619 4.4329
L19.3048 4.6234
" />
</g></g>
<g style="fill:none; 
stroke:#AFAFAF; stroke-width:0.1000; stroke-opacity:1; 
stroke-linecap:round; stroke-linejoin:round;">
<path d="M0.4000 1.5000
L0.4000 13.1000
" />
<path d="M0.4000 13.1000
L34.4000 13.1000
" />
<path d="M6.3000 10.5000
L6.3000 3.7000
" />
<path d="M7.5000 1.5000
L7.5000 9.3000
" />
<path d="M7.5000 9.3000
L29.2000 9.3000
" />
<path d="M29.2000 3.5000
L30.4000 3.5000
" />
<path d="M29.2000 9.3000
L29.2000 3.5000
" />
<path d="M30.4000 3.5000
L30.4000 10.5000
" />
<path d="M30.4000 10.5000
L6.3000 10.5000
" />
<path d="M34.4000 1.5000
L0.4000 1.5000
" />
<path d="M34.4000 13.1000
L34.4000 1.5000
" />
</g> 
</svg>
