<?xml version="1.0" standalone="no"?>
 <!DOCTYPE svg PUBLIC "-//W3C//DTD SVG 1.1//EN" 
 "http://www.w3.org/Graphics/SVG/1.1/DTD/svg11.dtd"> 
<svg
  xmlns:svg="http://www.w3.org/2000/svg"
  xmlns="http://www.w3.org/2000/svg"
  xmlns:xlink="http://www.w3.org/1999/xlink"
  version="1.1"
  width="21.4884mm" height="14.7574mm" viewBox="0.0000 0.0000 21.4884 14.7574">
<title>SVG Image created as working-brd.svg date 2024/04/22 17:10:34 </title>
  <desc>Image generated by PCBNEW </desc>
<g style="fill:#000000; fill-opacity:1.0000;stroke:#000000; stroke-opacity:1.0000;
stroke-linecap:round; stroke-linejoin:round;"
 transform="translate(0 0) scale(1 1)">
<path style="fill:#C83434; fill-opacity:1.0000; stroke:none;fill-rule:evenodd;"
d="M 4.4749,2.8050
4.4749,1.8050
7.4749,1.8050
7.4749,2.8050
Z" /> 
<path style="fill:#C83434; fill-opacity:1.0000; stroke:none;fill-rule:evenodd;"
d="M 4.4749,5.3450
4.4749,4.3450
7.4749,4.3450
7.4749,5.3450
Z" /> 
<path style="fill:#C83434; fill-opacity:1.0000; stroke:none;fill-rule:evenodd;"
d="M 4.4749,7.8850
4.4749,6.8850
7.4749,6.8850
7.4749,7.8850
Z" /> 
<path style="fill:#C83434; fill-opacity:1.0000; stroke:none;fill-rule:evenodd;"
d="M 4.4749,10.4250
4.4749,9.4250
7.4749,9.4250
7.4749,10.4250
Z" /> 
<path style="fill:#C83434; fill-opacity:1.0000; stroke:none;fill-rule:evenodd;"
d="M 4.4749,12.9650
4.4749,11.9650
7.4749,11.9650
7.4749,12.9650
Z" /> 
<path style="fill:#C83434; fill-opacity:1.0000; stroke:none;fill-rule:evenodd;"
d="M 14.0349,12.9650
14.0349,11.9650
17.0349,11.9650
17.0349,12.9650
Z" /> 
<path style="fill:#C83434; fill-opacity:1.0000; stroke:none;fill-rule:evenodd;"
d="M 14.0349,10.4250
14.0349,9.4250
17.0349,9.4250
17.0349,10.4250
Z" /> 
<path style="fill:#C83434; fill-opacity:1.0000; stroke:none;fill-rule:evenodd;"
d="M 14.0349,7.8850
14.0349,6.8850
17.0349,6.8850
17.0349,7.8850
Z" /> 
<path style="fill:#C83434; fill-opacity:1.0000; stroke:none;fill-rule:evenodd;"
d="M 14.0349,5.3450
14.0349,4.3450
17.0349,4.3450
17.0349,5.3450
Z" /> 
<path style="fill:#C83434; fill-opacity:1.0000; stroke:none;fill-rule:evenodd;"
d="M 14.0349,2.8050
14.0349,1.8050
17.0349,1.8050
17.0349,2.8050
Z" /> 
<path style="fill:#D864FF; fill-opacity:0.4000; stroke:none;fill-rule:evenodd;"
d="M 4.4749,2.8050
4.4749,1.8050
7.4749,1.8050
7.4749,2.8050
Z" /> 
<path style="fill:#D864FF; fill-opacity:0.4000; stroke:none;fill-rule:evenodd;"
d="M 4.4749,5.3450
4.4749,4.3450
7.4749,4.3450
7.4749,5.3450
Z" /> 
<path style="fill:#D864FF; fill-opacity:0.4000; stroke:none;fill-rule:evenodd;"
d="M 4.4749,7.8850
4.4749,6.8850
7.4749,6.8850
7.4749,7.8850
Z" /> 
<path style="fill:#D864FF; fill-opacity:0.4000; stroke:none;fill-rule:evenodd;"
d="M 4.4749,10.4250
4.4749,9.4250
7.4749,9.4250
7.4749,10.4250
Z" /> 
<path style="fill:#D864FF; fill-opacity:0.4000; stroke:none;fill-rule:evenodd;"
d="M 4.4749,12.9650
4.4749,11.9650
7.4749,11.9650
7.4749,12.9650
Z" /> 
<path style="fill:#D864FF; fill-opacity:0.4000; stroke:none;fill-rule:evenodd;"
d="M 14.0349,12.9650
14.0349,11.9650
17.0349,11.9650
17.0349,12.9650
Z" /> 
<path style="fill:#D864FF; fill-opacity:0.4000; stroke:none;fill-rule:evenodd;"
d="M 14.0349,10.4250
14.0349,9.4250
17.0349,9.4250
17.0349,10.4250
Z" /> 
<path style="fill:#D864FF; fill-opacity:0.4000; stroke:none;fill-rule:evenodd;"
d="M 14.0349,7.8850
14.0349,6.8850
17.0349,6.8850
17.0349,7.8850
Z" /> 
<path style="fill:#D864FF; fill-opacity:0.4000; stroke:none;fill-rule:evenodd;"
d="M 14.0349,5.3450
14.0349,4.3450
17.0349,4.3450
17.0349,5.3450
Z" /> 
<path style="fill:#D864FF; fill-opacity:0.4000; stroke:none;fill-rule:evenodd;"
d="M 14.0349,2.8050
14.0349,1.8050
17.0349,1.8050
17.0349,2.8050
Z" /> 
<path style="fill:#B4A09A; fill-opacity:0.9000; stroke:none;fill-rule:evenodd;"
d="M 4.4749,2.8050
4.4749,1.8050
7.4749,1.8050
7.4749,2.8050
Z" /> 
<path style="fill:#B4A09A; fill-opacity:0.9000; stroke:none;fill-rule:evenodd;"
d="M 4.4749,5.3450
4.4749,4.3450
7.4749,4.3450
7.4749,5.3450
Z" /> 
<path style="fill:#B4A09A; fill-opacity:0.9000; stroke:none;fill-rule:evenodd;"
d="M 4.4749,7.8850
4.4749,6.8850
7.4749,6.8850
7.4749,7.8850
Z" /> 
<path style="fill:#B4A09A; fill-opacity:0.9000; stroke:none;fill-rule:evenodd;"
d="M 4.4749,10.4250
4.4749,9.4250
7.4749,9.4250
7.4749,10.4250
Z" /> 
<path style="fill:#B4A09A; fill-opacity:0.9000; stroke:none;fill-rule:evenodd;"
d="M 4.4749,12.9650
4.4749,11.9650
7.4749,11.9650
7.4749,12.9650
Z" /> 
<path style="fill:#B4A09A; fill-opacity:0.9000; stroke:none;fill-rule:evenodd;"
d="M 14.0349,12.9650
14.0349,11.9650
17.0349,11.9650
17.0349,12.9650
Z" /> 
<path style="fill:#B4A09A; fill-opacity:0.9000; stroke:none;fill-rule:evenodd;"
d="M 14.0349,10.4250
14.0349,9.4250
17.0349,9.4250
17.0349,10.4250
Z" /> 
<path style="fill:#B4A09A; fill-opacity:0.9000; stroke:none;fill-rule:evenodd;"
d="M 14.0349,7.8850
14.0349,6.8850
17.0349,6.8850
17.0349,7.8850
Z" /> 
<path style="fill:#B4A09A; fill-opacity:0.9000; stroke:none;fill-rule:evenodd;"
d="M 14.0349,5.3450
14.0349,4.3450
17.0349,4.3450
17.0349,5.3450
Z" /> 
<path style="fill:#B4A09A; fill-opacity:0.9000; stroke:none;fill-rule:evenodd;"
d="M 14.0349,2.8050
14.0349,1.8050
17.0349,1.8050
17.0349,2.8050
Z" /> 
</g>
<g style="fill:none; 
stroke:#F2EDA1; stroke-width:0.1588; stroke-opacity:1; 
stroke-linecap:round; stroke-linejoin:round;">
<text x="10.7549" y="8.0200"
textLength="5.6651" font-size="1.6933" lengthAdjust="spacingAndGlyphs"
text-anchor="middle" opacity="0">REF**</text>
<g class="stroked-text"><desc>REF**</desc>
<path d="M9.0616 7.9643
L8.6383 7.3595
" />
<path d="M8.3359 7.9643
L8.3359 6.6943
" />
<path d="M8.3359 6.6943
L8.8197 6.6943
" />
<path d="M8.8197 6.6943
L8.9406 6.7547
" />
<path d="M8.9406 6.7547
L9.0011 6.8152
" />
<path d="M9.0011 6.8152
L9.0616 6.9362
" />
<path d="M9.0616 6.9362
L9.0616 7.1176
" />
<path d="M9.0616 7.1176
L9.0011 7.2386
" />
<path d="M9.0011 7.2386
L8.9406 7.2990
" />
<path d="M8.9406 7.2990
L8.8197 7.3595
" />
<path d="M8.8197 7.3595
L8.3359 7.3595
" />
<path d="M9.6059 7.2990
L10.0292 7.2990
" />
<path d="M10.2106 7.9643
L9.6059 7.9643
" />
<path d="M9.6059 7.9643
L9.6059 6.6943
" />
<path d="M9.6059 6.6943
L10.2106 6.6943
" />
<path d="M11.1783 7.2990
L10.7549 7.2990
" />
<path d="M10.7549 7.9643
L10.7549 6.6943
" />
<path d="M10.7549 6.6943
L11.3597 6.6943
" />
<path d="M12.0249 6.6943
L12.0249 6.9967
" />
<path d="M11.7226 6.8757
L12.0249 6.9967
" />
<path d="M12.0249 6.9967
L12.3273 6.8757
" />
<path d="M11.8435 7.2386
L12.0249 6.9967
" />
<path d="M12.0249 6.9967
L12.2064 7.2386
" />
<path d="M12.9926 6.6943
L12.9926 6.9967
" />
<path d="M12.6902 6.8757
L12.9926 6.9967
" />
<path d="M12.9926 6.9967
L13.2949 6.8757
" />
<path d="M12.8111 7.2386
L12.9926 6.9967
" />
<path d="M12.9926 6.9967
L13.1740 7.2386
" />
</g></g>
<g style="fill:none; 
stroke:#F2EDA1; stroke-width:0.1200; stroke-opacity:1; 
stroke-linecap:round; stroke-linejoin:round;">
<path d="M6.0549 0.1850
L6.0549 1.3850
" />
<path d="M6.0549 0.1850
L15.4549 0.1850
" />
<path d="M6.0549 1.3850
L4.4549 1.3850
" />
<path d="M6.0549 14.5850
L6.0549 13.3850
" />
<path d="M15.4549 0.1850
L15.4549 1.3850
" />
<path d="M15.4549 14.5850
L6.0549 14.5850
" />
<path d="M15.4549 14.5850
L15.4549 13.3850
" />
</g>
<g style="fill:none; 
stroke:#FF26E2; stroke-width:0.0500; stroke-opacity:1; 
stroke-linecap:round; stroke-linejoin:round;">
<path d="M4.2249 0.0250
L4.2249 14.7450
" />
<path d="M4.2249 0.0250
L17.2849 0.0250
" />
<path d="M17.2849 14.7450
L4.2249 14.7450
" />
<path d="M17.2849 14.7450
L17.2849 0.0250
" />
</g>
<g style="fill:none; 
stroke:#AFAFAF; stroke-width:0.1588; stroke-opacity:1; 
stroke-linecap:round; stroke-linejoin:round;">
<text x="10.7549" y="8.0200"
textLength="21.5099" font-size="1.6933" lengthAdjust="spacingAndGlyphs"
text-anchor="middle" opacity="0">Relay_DPDT_FRT5_SMD</text>
<g class="stroked-text"><desc>Relay_DPDT_FRT5_SMD</desc>
<path d="M1.1392 7.9643
L0.7159 7.3595
" />
<path d="M0.4135 7.9643
L0.4135 6.6943
" />
<path d="M0.4135 6.6943
L0.8973 6.6943
" />
<path d="M0.8973 6.6943
L1.0183 6.7547
" />
<path d="M1.0183 6.7547
L1.0787 6.8152
" />
<path d="M1.0787 6.8152
L1.1392 6.9362
" />
<path d="M1.1392 6.9362
L1.1392 7.1176
" />
<path d="M1.1392 7.1176
L1.0787 7.2386
" />
<path d="M1.0787 7.2386
L1.0183 7.2990
" />
<path d="M1.0183 7.2990
L0.8973 7.3595
" />
<path d="M0.8973 7.3595
L0.4135 7.3595
" />
<path d="M2.1673 7.9038
L2.0464 7.9643
" />
<path d="M2.0464 7.9643
L1.8045 7.9643
" />
<path d="M1.8045 7.9643
L1.6835 7.9038
" />
<path d="M1.6835 7.9038
L1.6230 7.7828
" />
<path d="M1.6230 7.7828
L1.6230 7.2990
" />
<path d="M1.6230 7.2990
L1.6835 7.1781
" />
<path d="M1.6835 7.1781
L1.8045 7.1176
" />
<path d="M1.8045 7.1176
L2.0464 7.1176
" />
<path d="M2.0464 7.1176
L2.1673 7.1781
" />
<path d="M2.1673 7.1781
L2.2278 7.2990
" />
<path d="M2.2278 7.2990
L2.2278 7.4200
" />
<path d="M2.2278 7.4200
L1.6230 7.5409
" />
<path d="M2.9535 7.9643
L2.8326 7.9038
" />
<path d="M2.8326 7.9038
L2.7721 7.7828
" />
<path d="M2.7721 7.7828
L2.7721 6.6943
" />
<path d="M3.9816 7.9643
L3.9816 7.2990
" />
<path d="M3.9816 7.2990
L3.9211 7.1781
" />
<path d="M3.9211 7.1781
L3.8002 7.1176
" />
<path d="M3.8002 7.1176
L3.5583 7.1176
" />
<path d="M3.5583 7.1176
L3.4373 7.1781
" />
<path d="M3.9816 7.9038
L3.8606 7.9643
" />
<path d="M3.8606 7.9643
L3.5583 7.9643
" />
<path d="M3.5583 7.9643
L3.4373 7.9038
" />
<path d="M3.4373 7.9038
L3.3768 7.7828
" />
<path d="M3.3768 7.7828
L3.3768 7.6619
" />
<path d="M3.3768 7.6619
L3.4373 7.5409
" />
<path d="M3.4373 7.5409
L3.5583 7.4805
" />
<path d="M3.5583 7.4805
L3.8606 7.4805
" />
<path d="M3.8606 7.4805
L3.9816 7.4200
" />
<path d="M4.4654 7.1176
L4.7678 7.9643
" />
<path d="M5.0702 7.1176
L4.7678 7.9643
" />
<path d="M4.7678 7.9643
L4.6468 8.2667
" />
<path d="M4.6468 8.2667
L4.5864 8.3271
" />
<path d="M4.5864 8.3271
L4.4654 8.3876
" />
<path d="M5.2516 8.0852
L6.2192 8.0852
" />
<path d="M6.5216 7.9643
L6.5216 6.6943
" />
<path d="M6.5216 6.6943
L6.8240 6.6943
" />
<path d="M6.8240 6.6943
L7.0054 6.7547
" />
<path d="M7.0054 6.7547
L7.1264 6.8757
" />
<path d="M7.1264 6.8757
L7.1868 6.9967
" />
<path d="M7.1868 6.9967
L7.2473 7.2386
" />
<path d="M7.2473 7.2386
L7.2473 7.4200
" />
<path d="M7.2473 7.4200
L7.1868 7.6619
" />
<path d="M7.1868 7.6619
L7.1264 7.7828
" />
<path d="M7.1264 7.7828
L7.0054 7.9038
" />
<path d="M7.0054 7.9038
L6.8240 7.9643
" />
<path d="M6.8240 7.9643
L6.5216 7.9643
" />
<path d="M7.7916 7.9643
L7.7916 6.6943
" />
<path d="M7.7916 6.6943
L8.2754 6.6943
" />
<path d="M8.2754 6.6943
L8.3964 6.7547
" />
<path d="M8.3964 6.7547
L8.4568 6.8152
" />
<path d="M8.4568 6.8152
L8.5173 6.9362
" />
<path d="M8.5173 6.9362
L8.5173 7.1176
" />
<path d="M8.5173 7.1176
L8.4568 7.2386
" />
<path d="M8.4568 7.2386
L8.3964 7.2990
" />
<path d="M8.3964 7.2990
L8.2754 7.3595
" />
<path d="M8.2754 7.3595
L7.7916 7.3595
" />
<path d="M9.0616 7.9643
L9.0616 6.6943
" />
<path d="M9.0616 6.6943
L9.3640 6.6943
" />
<path d="M9.3640 6.6943
L9.5454 6.7547
" />
<path d="M9.5454 6.7547
L9.6664 6.8757
" />
<path d="M9.6664 6.8757
L9.7268 6.9967
" />
<path d="M9.7268 6.9967
L9.7873 7.2386
" />
<path d="M9.7873 7.2386
L9.7873 7.4200
" />
<path d="M9.7873 7.4200
L9.7268 7.6619
" />
<path d="M9.7268 7.6619
L9.6664 7.7828
" />
<path d="M9.6664 7.7828
L9.5454 7.9038
" />
<path d="M9.5454 7.9038
L9.3640 7.9643
" />
<path d="M9.3640 7.9643
L9.0616 7.9643
" />
<path d="M10.1502 6.6943
L10.8759 6.6943
" />
<path d="M10.5130 7.9643
L10.5130 6.6943
" />
<path d="M10.9968 8.0852
L11.9645 8.0852
" />
<path d="M12.6902 7.2990
L12.2668 7.2990
" />
<path d="M12.2668 7.9643
L12.2668 6.6943
" />
<path d="M12.2668 6.6943
L12.8716 6.6943
" />
<path d="M14.0811 7.9643
L13.6578 7.3595
" />
<path d="M13.3554 7.9643
L13.3554 6.6943
" />
<path d="M13.3554 6.6943
L13.8392 6.6943
" />
<path d="M13.8392 6.6943
L13.9602 6.7547
" />
<path d="M13.9602 6.7547
L14.0206 6.8152
" />
<path d="M14.0206 6.8152
L14.0811 6.9362
" />
<path d="M14.0811 6.9362
L14.0811 7.1176
" />
<path d="M14.0811 7.1176
L14.0206 7.2386
" />
<path d="M14.0206 7.2386
L13.9602 7.2990
" />
<path d="M13.9602 7.2990
L13.8392 7.3595
" />
<path d="M13.8392 7.3595
L13.3554 7.3595
" />
<path d="M14.4440 6.6943
L15.1697 6.6943
" />
<path d="M14.8068 7.9643
L14.8068 6.6943
" />
<path d="M16.1978 6.6943
L15.5930 6.6943
" />
<path d="M15.5930 6.6943
L15.5326 7.2990
" />
<path d="M15.5326 7.2990
L15.5930 7.2386
" />
<path d="M15.5930 7.2386
L15.7140 7.1781
" />
<path d="M15.7140 7.1781
L16.0164 7.1781
" />
<path d="M16.0164 7.1781
L16.1373 7.2386
" />
<path d="M16.1373 7.2386
L16.1978 7.2990
" />
<path d="M16.1978 7.2990
L16.2583 7.4200
" />
<path d="M16.2583 7.4200
L16.2583 7.7224
" />
<path d="M16.2583 7.7224
L16.1978 7.8433
" />
<path d="M16.1978 7.8433
L16.1373 7.9038
" />
<path d="M16.1373 7.9038
L16.0164 7.9643
" />
<path d="M16.0164 7.9643
L15.7140 7.9643
" />
<path d="M15.7140 7.9643
L15.5930 7.9038
" />
<path d="M15.5930 7.9038
L15.5326 7.8433
" />
<path d="M16.5002 8.0852
L17.4678 8.0852
" />
<path d="M17.7097 7.9038
L17.8911 7.9643
" />
<path d="M17.8911 7.9643
L18.1935 7.9643
" />
<path d="M18.1935 7.9643
L18.3145 7.9038
" />
<path d="M18.3145 7.9038
L18.3749 7.8433
" />
<path d="M18.3749 7.8433
L18.4354 7.7224
" />
<path d="M18.4354 7.7224
L18.4354 7.6014
" />
<path d="M18.4354 7.6014
L18.3749 7.4805
" />
<path d="M18.3749 7.4805
L18.3145 7.4200
" />
<path d="M18.3145 7.4200
L18.1935 7.3595
" />
<path d="M18.1935 7.3595
L17.9516 7.2990
" />
<path d="M17.9516 7.2990
L17.8306 7.2386
" />
<path d="M17.8306 7.2386
L17.7702 7.1781
" />
<path d="M17.7702 7.1781
L17.7097 7.0571
" />
<path d="M17.7097 7.0571
L17.7097 6.9362
" />
<path d="M17.7097 6.9362
L17.7702 6.8152
" />
<path d="M17.7702 6.8152
L17.8306 6.7547
" />
<path d="M17.8306 6.7547
L17.9516 6.6943
" />
<path d="M17.9516 6.6943
L18.2540 6.6943
" />
<path d="M18.2540 6.6943
L18.4354 6.7547
" />
<path d="M18.9797 7.9643
L18.9797 6.6943
" />
<path d="M18.9797 6.6943
L19.4030 7.6014
" />
<path d="M19.4030 7.6014
L19.8264 6.6943
" />
<path d="M19.8264 6.6943
L19.8264 7.9643
" />
<path d="M20.4311 7.9643
L20.4311 6.6943
" />
<path d="M20.4311 6.6943
L20.7335 6.6943
" />
<path d="M20.7335 6.6943
L20.9149 6.7547
" />
<path d="M20.9149 6.7547
L21.0359 6.8757
" />
<path d="M21.0359 6.8757
L21.0964 6.9967
" />
<path d="M21.0964 6.9967
L21.1568 7.2386
" />
<path d="M21.1568 7.2386
L21.1568 7.4200
" />
<path d="M21.1568 7.4200
L21.0964 7.6619
" />
<path d="M21.0964 7.6619
L21.0359 7.7828
" />
<path d="M21.0359 7.7828
L20.9149 7.9038
" />
<path d="M20.9149 7.9038
L20.7335 7.9643
" />
<path d="M20.7335 7.9643
L20.4311 7.9643
" />
</g></g>
<g style="fill:none; 
stroke:#AFAFAF; stroke-width:0.1500; stroke-opacity:1; 
stroke-linecap:round; stroke-linejoin:round;">
<text x="10.7549" y="7.8850"
textLength="4.5357" font-size="1.3333" lengthAdjust="spacingAndGlyphs"
text-anchor="middle" opacity="0">REF**</text>
<g class="stroked-text"><desc>REF**</desc>
<path d="M9.4216 7.8398
L9.0883 7.3636
" />
<path d="M8.8502 7.8398
L8.8502 6.8398
" />
<path d="M8.8502 6.8398
L9.2311 6.8398
" />
<path d="M9.2311 6.8398
L9.3264 6.8874
" />
<path d="M9.3264 6.8874
L9.3740 6.9351
" />
<path d="M9.3740 6.9351
L9.4216 7.0303
" />
<path d="M9.4216 7.0303
L9.4216 7.1732
" />
<path d="M9.4216 7.1732
L9.3740 7.2684
" />
<path d="M9.3740 7.2684
L9.3264 7.3160
" />
<path d="M9.3264 7.3160
L9.2311 7.3636
" />
<path d="M9.2311 7.3636
L8.8502 7.3636
" />
<path d="M9.8502 7.3160
L10.1835 7.3160
" />
<path d="M10.3264 7.8398
L9.8502 7.8398
" />
<path d="M9.8502 7.8398
L9.8502 6.8398
" />
<path d="M9.8502 6.8398
L10.3264 6.8398
" />
<path d="M11.0883 7.3160
L10.7549 7.3160
" />
<path d="M10.7549 7.8398
L10.7549 6.8398
" />
<path d="M10.7549 6.8398
L11.2311 6.8398
" />
<path d="M11.7549 6.8398
L11.7549 7.0779
" />
<path d="M11.5168 6.9827
L11.7549 7.0779
" />
<path d="M11.7549 7.0779
L11.9930 6.9827
" />
<path d="M11.6121 7.2684
L11.7549 7.0779
" />
<path d="M11.7549 7.0779
L11.8978 7.2684
" />
<path d="M12.5168 6.8398
L12.5168 7.0779
" />
<path d="M12.2787 6.9827
L12.5168 7.0779
" />
<path d="M12.5168 7.0779
L12.7549 6.9827
" />
<path d="M12.3740 7.2684
L12.5168 7.0779
" />
<path d="M12.5168 7.0779
L12.6597 7.2684
" />
</g></g>
<g style="fill:none; 
stroke:#AFAFAF; stroke-width:0.1200; stroke-opacity:1; 
stroke-linecap:round; stroke-linejoin:round;">
<path d="M6.1829 1.0850
L7.1049 0.2850
" />
</g>
<g style="fill:none; 
stroke:#AFAFAF; stroke-width:0.1000; stroke-opacity:1; 
stroke-linecap:round; stroke-linejoin:round;">
<path d="M6.1829 14.4970
L6.1829 1.0850
" />
<path d="M6.9449 0.9080
L14.5649 0.9080
" />
<path d="M7.1049 0.2850
L15.3269 0.2730
" />
<path d="M15.3269 0.2730
L15.3269 14.4970
" />
<path d="M15.3269 14.4970
L6.1829 14.4970
" />
</g> 
</svg>
