<?xml version="1.0" standalone="no"?>
 <!DOCTYPE svg PUBLIC "-//W3C//DTD SVG 1.1//EN" 
 "http://www.w3.org/Graphics/SVG/1.1/DTD/svg11.dtd"> 
<svg
  xmlns:svg="http://www.w3.org/2000/svg"
  xmlns="http://www.w3.org/2000/svg"
  xmlns:xlink="http://www.w3.org/1999/xlink"
  version="1.1"
  width="35.7632mm" height="4.6228mm" viewBox="0.0000 0.0000 35.7632 4.6228">
<title>SVG Image created as working-brd.svg date 2024/04/21 16:27:17 </title>
  <desc>Image generated by PCBNEW </desc>
<g style="fill:#000000; fill-opacity:1.0000;stroke:#000000; stroke-opacity:1.0000;
stroke-linecap:round; stroke-linejoin:round;"
 transform="translate(0 0) scale(1 1)">
<path style="fill:#C83434; fill-opacity:1.0000; stroke:none;fill-rule:evenodd;"
d="M 16.5411,1.4600
16.5411,1.0600
17.1411,1.0600
17.1411,1.4600
Z" /> 
<path style="fill:#C83434; fill-opacity:1.0000; stroke:none;fill-rule:evenodd;"
d="M 16.5411,2.0600
16.5411,1.6600
17.1411,1.6600
17.1411,2.0600
Z" /> 
<path style="fill:#C83434; fill-opacity:1.0000; stroke:none;fill-rule:evenodd;"
d="M 16.5411,2.6600
16.5411,2.2600
17.1411,2.2600
17.1411,2.6600
Z" /> 
<path style="fill:#C83434; fill-opacity:1.0000; stroke:none;fill-rule:evenodd;"
d="M 16.5411,3.2600
16.5411,2.8600
17.1411,2.8600
17.1411,3.2600
Z" /> 
<path style="fill:#C83434; fill-opacity:1.0000; stroke:none;fill-rule:evenodd;"
d="M 16.5411,3.8600
16.5411,3.4600
17.1411,3.4600
17.1411,3.8600
Z" /> 
<path style="fill:#C83434; fill-opacity:1.0000; stroke:none;fill-rule:evenodd;"
d="M 18.6411,3.8600
18.6411,3.4600
19.2411,3.4600
19.2411,3.8600
Z" /> 
<path style="fill:#C83434; fill-opacity:1.0000; stroke:none;fill-rule:evenodd;"
d="M 18.6411,3.2600
18.6411,2.8600
19.2411,2.8600
19.2411,3.2600
Z" /> 
<path style="fill:#C83434; fill-opacity:1.0000; stroke:none;fill-rule:evenodd;"
d="M 18.6411,2.6600
18.6411,2.2600
19.2411,2.2600
19.2411,2.6600
Z" /> 
<path style="fill:#C83434; fill-opacity:1.0000; stroke:none;fill-rule:evenodd;"
d="M 18.6411,2.0600
18.6411,1.6600
19.2411,1.6600
19.2411,2.0600
Z" /> 
<path style="fill:#C83434; fill-opacity:1.0000; stroke:none;fill-rule:evenodd;"
d="M 18.6411,1.4600
18.6411,1.0600
19.2411,1.0600
19.2411,1.4600
Z" /> 
<path style="fill:#C83434; fill-opacity:1.0000; stroke:none;fill-rule:evenodd;"
d="M 17.3911,1.5100
18.3911,1.5100
18.3911,1.2100
17.3911,1.2100
Z" /> 
<path style="fill:#C83434; fill-opacity:1.0000; stroke:none;fill-rule:evenodd;"
d="M 17.2411,3.7100
17.2411,1.5100
18.5411,1.5100
18.5411,3.7100
Z" /> 
<path style="fill:#C83434; fill-opacity:1.0000; stroke:none;fill-rule:evenodd;"
d="M 17.5411,1.5100
17.5411,1.2100
18.5411,1.2100
18.5411,1.5100
Z" /> 
<path style="fill:#D864FF; fill-opacity:0.4000; stroke:none;fill-rule:evenodd;"
d="M 16.5411,1.4600
16.5411,1.0600
17.1411,1.0600
17.1411,1.4600
Z" /> 
<path style="fill:#D864FF; fill-opacity:0.4000; stroke:none;fill-rule:evenodd;"
d="M 16.5411,2.0600
16.5411,1.6600
17.1411,1.6600
17.1411,2.0600
Z" /> 
<path style="fill:#D864FF; fill-opacity:0.4000; stroke:none;fill-rule:evenodd;"
d="M 16.5411,2.6600
16.5411,2.2600
17.1411,2.2600
17.1411,2.6600
Z" /> 
<path style="fill:#D864FF; fill-opacity:0.4000; stroke:none;fill-rule:evenodd;"
d="M 16.5411,3.2600
16.5411,2.8600
17.1411,2.8600
17.1411,3.2600
Z" /> 
<path style="fill:#D864FF; fill-opacity:0.4000; stroke:none;fill-rule:evenodd;"
d="M 16.5411,3.8600
16.5411,3.4600
17.1411,3.4600
17.1411,3.8600
Z" /> 
<path style="fill:#D864FF; fill-opacity:0.4000; stroke:none;fill-rule:evenodd;"
d="M 18.6411,3.8600
18.6411,3.4600
19.2411,3.4600
19.2411,3.8600
Z" /> 
<path style="fill:#D864FF; fill-opacity:0.4000; stroke:none;fill-rule:evenodd;"
d="M 18.6411,3.2600
18.6411,2.8600
19.2411,2.8600
19.2411,3.2600
Z" /> 
<path style="fill:#D864FF; fill-opacity:0.4000; stroke:none;fill-rule:evenodd;"
d="M 18.6411,2.6600
18.6411,2.2600
19.2411,2.2600
19.2411,2.6600
Z" /> 
<path style="fill:#D864FF; fill-opacity:0.4000; stroke:none;fill-rule:evenodd;"
d="M 18.6411,2.0600
18.6411,1.6600
19.2411,1.6600
19.2411,2.0600
Z" /> 
<path style="fill:#D864FF; fill-opacity:0.4000; stroke:none;fill-rule:evenodd;"
d="M 18.6411,1.4600
18.6411,1.0600
19.2411,1.0600
19.2411,1.4600
Z" /> 
<path style="fill:#D864FF; fill-opacity:0.4000; stroke:none;fill-rule:evenodd;"
d="M 17.3911,1.5100
18.3911,1.5100
18.3911,1.2100
17.3911,1.2100
Z" /> 
<path style="fill:#D864FF; fill-opacity:0.4000; stroke:none;fill-rule:evenodd;"
d="M 17.2411,3.7100
17.2411,1.5100
18.5411,1.5100
18.5411,3.7100
Z" /> 
<path style="fill:#D864FF; fill-opacity:0.4000; stroke:none;fill-rule:evenodd;"
d="M 17.5411,1.5100
17.5411,1.2100
18.5411,1.2100
18.5411,1.5100
Z" /> 
<path style="fill:#B4A09A; fill-opacity:0.9000; stroke:none;fill-rule:evenodd;"
d="M 16.5411,1.4600
16.5411,1.0600
17.1411,1.0600
17.1411,1.4600
Z" /> 
<path style="fill:#B4A09A; fill-opacity:0.9000; stroke:none;fill-rule:evenodd;"
d="M 16.5411,2.0600
16.5411,1.6600
17.1411,1.6600
17.1411,2.0600
Z" /> 
<path style="fill:#B4A09A; fill-opacity:0.9000; stroke:none;fill-rule:evenodd;"
d="M 16.5411,2.6600
16.5411,2.2600
17.1411,2.2600
17.1411,2.6600
Z" /> 
<path style="fill:#B4A09A; fill-opacity:0.9000; stroke:none;fill-rule:evenodd;"
d="M 16.5411,3.2600
16.5411,2.8600
17.1411,2.8600
17.1411,3.2600
Z" /> 
<path style="fill:#B4A09A; fill-opacity:0.9000; stroke:none;fill-rule:evenodd;"
d="M 16.5411,3.8600
16.5411,3.4600
17.1411,3.4600
17.1411,3.8600
Z" /> 
<path style="fill:#B4A09A; fill-opacity:0.9000; stroke:none;fill-rule:evenodd;"
d="M 18.6411,3.8600
18.6411,3.4600
19.2411,3.4600
19.2411,3.8600
Z" /> 
<path style="fill:#B4A09A; fill-opacity:0.9000; stroke:none;fill-rule:evenodd;"
d="M 18.6411,3.2600
18.6411,2.8600
19.2411,2.8600
19.2411,3.2600
Z" /> 
<path style="fill:#B4A09A; fill-opacity:0.9000; stroke:none;fill-rule:evenodd;"
d="M 18.6411,2.6600
18.6411,2.2600
19.2411,2.2600
19.2411,2.6600
Z" /> 
<path style="fill:#B4A09A; fill-opacity:0.9000; stroke:none;fill-rule:evenodd;"
d="M 18.6411,2.0600
18.6411,1.6600
19.2411,1.6600
19.2411,2.0600
Z" /> 
<path style="fill:#B4A09A; fill-opacity:0.9000; stroke:none;fill-rule:evenodd;"
d="M 18.6411,1.4600
18.6411,1.0600
19.2411,1.0600
19.2411,1.4600
Z" /> 
<path style="fill:#B4A09A; fill-opacity:0.9000; stroke:none;fill-rule:evenodd;"
d="M 17.3911,1.5100
18.3911,1.5100
18.3911,1.2100
17.3911,1.2100
Z" /> 
<path style="fill:#B4A09A; fill-opacity:0.9000; stroke:none;fill-rule:evenodd;"
d="M 17.2411,3.7100
17.2411,1.5100
18.5411,1.5100
18.5411,3.7100
Z" /> 
<path style="fill:#B4A09A; fill-opacity:0.9000; stroke:none;fill-rule:evenodd;"
d="M 17.5411,1.5100
17.5411,1.2100
18.5411,1.2100
18.5411,1.5100
Z" /> 
</g>
<g style="fill:none; 
stroke:#F2EDA1; stroke-width:0.1588; stroke-opacity:1; 
stroke-linecap:round; stroke-linejoin:round;">
<text x="17.8911" y="3.0950"
textLength="5.6651" font-size="1.6933" lengthAdjust="spacingAndGlyphs"
text-anchor="middle" opacity="0">REF**</text>
<g class="stroked-text"><desc>REF**</desc>
<path d="M16.1978 3.0393
L15.7745 2.4345
" />
<path d="M15.4721 3.0393
L15.4721 1.7693
" />
<path d="M15.4721 1.7693
L15.9559 1.7693
" />
<path d="M15.9559 1.7693
L16.0768 1.8297
" />
<path d="M16.0768 1.8297
L16.1373 1.8902
" />
<path d="M16.1373 1.8902
L16.1978 2.0112
" />
<path d="M16.1978 2.0112
L16.1978 2.1926
" />
<path d="M16.1978 2.1926
L16.1373 2.3136
" />
<path d="M16.1373 2.3136
L16.0768 2.3740
" />
<path d="M16.0768 2.3740
L15.9559 2.4345
" />
<path d="M15.9559 2.4345
L15.4721 2.4345
" />
<path d="M16.7421 2.3740
L17.1654 2.3740
" />
<path d="M17.3468 3.0393
L16.7421 3.0393
" />
<path d="M16.7421 3.0393
L16.7421 1.7693
" />
<path d="M16.7421 1.7693
L17.3468 1.7693
" />
<path d="M18.3145 2.3740
L17.8911 2.3740
" />
<path d="M17.8911 3.0393
L17.8911 1.7693
" />
<path d="M17.8911 1.7693
L18.4959 1.7693
" />
<path d="M19.1611 1.7693
L19.1611 2.0717
" />
<path d="M18.8587 1.9507
L19.1611 2.0717
" />
<path d="M19.1611 2.0717
L19.4635 1.9507
" />
<path d="M18.9797 2.3136
L19.1611 2.0717
" />
<path d="M19.1611 2.0717
L19.3426 2.3136
" />
<path d="M20.1287 1.7693
L20.1287 2.0717
" />
<path d="M19.8264 1.9507
L20.1287 2.0717
" />
<path d="M20.1287 2.0717
L20.4311 1.9507
" />
<path d="M19.9473 2.3136
L20.1287 2.0717
" />
<path d="M20.1287 2.0717
L20.3102 2.3136
" />
</g></g>
<g style="fill:none; 
stroke:#F2EDA1; stroke-width:0.1000; stroke-opacity:1; 
stroke-linecap:round; stroke-linejoin:round;">
<path d="M16.4911 0.6100
L16.4911 0.8900
" />
<path d="M16.4911 4.0300
L16.4911 4.5100
" />
<path d="M16.4911 4.5100
L17.1311 4.5100
" />
<path d="M16.6911 0.4100
L17.1311 0.4100
" />
<path d="M18.6511 0.4100
L19.2911 0.4100
" />
<path d="M18.6511 4.5100
L19.2911 4.5100
" />
<path d="M19.2911 0.4100
L19.2911 0.8900
" />
<path d="M19.2911 4.0300
L19.2911 4.5100
" />
<path style="fill:#F2EDA1; fill-opacity:1.0000; 
stroke:#F2EDA1; stroke-width:0.1000; stroke-opacity:1; 
stroke-linecap:round; stroke-linejoin:round;fill-rule:evenodd;"
d="M 16.4911,0.4100
16.1311,0.4100
16.4911,0.0500
Z" /> 
</g>
<g style="fill:none; 
stroke:#FF26E2; stroke-width:0.0500; stroke-opacity:1; 
stroke-linecap:round; stroke-linejoin:round;">
<path d="M16.3911 0.3100
L19.3911 0.3100
" />
<path d="M16.3911 4.6100
L16.3911 0.3100
" />
<path d="M19.3911 0.3100
L19.3911 4.6100
" />
<path d="M19.3911 4.6100
L16.3911 4.6100
" />
</g>
<g style="fill:none; 
stroke:#AFAFAF; stroke-width:0.1588; stroke-opacity:1; 
stroke-linecap:round; stroke-linejoin:round;">
<text x="17.8911" y="3.0950"
textLength="35.7822" font-size="1.6933" lengthAdjust="spacingAndGlyphs"
text-anchor="middle" opacity="0">AMS_LGA-10-1EP_2.7x4mm_P0.6mm</text>
<g class="stroked-text"><desc>AMS_LGA-10-1EP_2.7x4mm_P0.6mm</desc>
<path d="M0.3530 2.6764
L0.9578 2.6764
" />
<path d="M0.2321 3.0393
L0.6554 1.7693
" />
<path d="M0.6554 1.7693
L1.0787 3.0393
" />
<path d="M1.5021 3.0393
L1.5021 1.7693
" />
<path d="M1.5021 1.7693
L1.9254 2.6764
" />
<path d="M1.9254 2.6764
L2.3487 1.7693
" />
<path d="M2.3487 1.7693
L2.3487 3.0393
" />
<path d="M2.8930 2.9788
L3.0745 3.0393
" />
<path d="M3.0745 3.0393
L3.3768 3.0393
" />
<path d="M3.3768 3.0393
L3.4978 2.9788
" />
<path d="M3.4978 2.9788
L3.5583 2.9183
" />
<path d="M3.5583 2.9183
L3.6187 2.7974
" />
<path d="M3.6187 2.7974
L3.6187 2.6764
" />
<path d="M3.6187 2.6764
L3.5583 2.5555
" />
<path d="M3.5583 2.5555
L3.4978 2.4950
" />
<path d="M3.4978 2.4950
L3.3768 2.4345
" />
<path d="M3.3768 2.4345
L3.1349 2.3740
" />
<path d="M3.1349 2.3740
L3.0140 2.3136
" />
<path d="M3.0140 2.3136
L2.9535 2.2531
" />
<path d="M2.9535 2.2531
L2.8930 2.1321
" />
<path d="M2.8930 2.1321
L2.8930 2.0112
" />
<path d="M2.8930 2.0112
L2.9535 1.8902
" />
<path d="M2.9535 1.8902
L3.0140 1.8297
" />
<path d="M3.0140 1.8297
L3.1349 1.7693
" />
<path d="M3.1349 1.7693
L3.4373 1.7693
" />
<path d="M3.4373 1.7693
L3.6187 1.8297
" />
<path d="M3.8606 3.1602
L4.8283 3.1602
" />
<path d="M5.7354 3.0393
L5.1306 3.0393
" />
<path d="M5.1306 3.0393
L5.1306 1.7693
" />
<path d="M6.8240 1.8297
L6.7030 1.7693
" />
<path d="M6.7030 1.7693
L6.5216 1.7693
" />
<path d="M6.5216 1.7693
L6.3402 1.8297
" />
<path d="M6.3402 1.8297
L6.2192 1.9507
" />
<path d="M6.2192 1.9507
L6.1587 2.0717
" />
<path d="M6.1587 2.0717
L6.0983 2.3136
" />
<path d="M6.0983 2.3136
L6.0983 2.4950
" />
<path d="M6.0983 2.4950
L6.1587 2.7369
" />
<path d="M6.1587 2.7369
L6.2192 2.8578
" />
<path d="M6.2192 2.8578
L6.3402 2.9788
" />
<path d="M6.3402 2.9788
L6.5216 3.0393
" />
<path d="M6.5216 3.0393
L6.6426 3.0393
" />
<path d="M6.6426 3.0393
L6.8240 2.9788
" />
<path d="M6.8240 2.9788
L6.8845 2.9183
" />
<path d="M6.8845 2.9183
L6.8845 2.4950
" />
<path d="M6.8845 2.4950
L6.6426 2.4950
" />
<path d="M7.3683 2.6764
L7.9730 2.6764
" />
<path d="M7.2473 3.0393
L7.6706 1.7693
" />
<path d="M7.6706 1.7693
L8.0940 3.0393
" />
<path d="M8.5173 2.5555
L9.4849 2.5555
" />
<path d="M10.7549 3.0393
L10.0292 3.0393
" />
<path d="M10.3921 3.0393
L10.3921 1.7693
" />
<path d="M10.3921 1.7693
L10.2711 1.9507
" />
<path d="M10.2711 1.9507
L10.1502 2.0717
" />
<path d="M10.1502 2.0717
L10.0292 2.1321
" />
<path d="M11.5411 1.7693
L11.6621 1.7693
" />
<path d="M11.6621 1.7693
L11.7830 1.8297
" />
<path d="M11.7830 1.8297
L11.8435 1.8902
" />
<path d="M11.8435 1.8902
L11.9040 2.0112
" />
<path d="M11.9040 2.0112
L11.9645 2.2531
" />
<path d="M11.9645 2.2531
L11.9645 2.5555
" />
<path d="M11.9645 2.5555
L11.9040 2.7974
" />
<path d="M11.9040 2.7974
L11.8435 2.9183
" />
<path d="M11.8435 2.9183
L11.7830 2.9788
" />
<path d="M11.7830 2.9788
L11.6621 3.0393
" />
<path d="M11.6621 3.0393
L11.5411 3.0393
" />
<path d="M11.5411 3.0393
L11.4202 2.9788
" />
<path d="M11.4202 2.9788
L11.3597 2.9183
" />
<path d="M11.3597 2.9183
L11.2992 2.7974
" />
<path d="M11.2992 2.7974
L11.2387 2.5555
" />
<path d="M11.2387 2.5555
L11.2387 2.2531
" />
<path d="M11.2387 2.2531
L11.2992 2.0112
" />
<path d="M11.2992 2.0112
L11.3597 1.8902
" />
<path d="M11.3597 1.8902
L11.4202 1.8297
" />
<path d="M11.4202 1.8297
L11.5411 1.7693
" />
<path d="M12.5087 2.5555
L13.4764 2.5555
" />
<path d="M14.7464 3.0393
L14.0206 3.0393
" />
<path d="M14.3835 3.0393
L14.3835 1.7693
" />
<path d="M14.3835 1.7693
L14.2626 1.9507
" />
<path d="M14.2626 1.9507
L14.1416 2.0717
" />
<path d="M14.1416 2.0717
L14.0206 2.1321
" />
<path d="M15.2906 2.3740
L15.7140 2.3740
" />
<path d="M15.8954 3.0393
L15.2906 3.0393
" />
<path d="M15.2906 3.0393
L15.2906 1.7693
" />
<path d="M15.2906 1.7693
L15.8954 1.7693
" />
<path d="M16.4397 3.0393
L16.4397 1.7693
" />
<path d="M16.4397 1.7693
L16.9235 1.7693
" />
<path d="M16.9235 1.7693
L17.0445 1.8297
" />
<path d="M17.0445 1.8297
L17.1049 1.8902
" />
<path d="M17.1049 1.8902
L17.1654 2.0112
" />
<path d="M17.1654 2.0112
L17.1654 2.1926
" />
<path d="M17.1654 2.1926
L17.1049 2.3136
" />
<path d="M17.1049 2.3136
L17.0445 2.3740
" />
<path d="M17.0445 2.3740
L16.9235 2.4345
" />
<path d="M16.9235 2.4345
L16.4397 2.4345
" />
<path d="M17.4073 3.1602
L18.3749 3.1602
" />
<path d="M18.6168 1.8902
L18.6773 1.8297
" />
<path d="M18.6773 1.8297
L18.7983 1.7693
" />
<path d="M18.7983 1.7693
L19.1006 1.7693
" />
<path d="M19.1006 1.7693
L19.2216 1.8297
" />
<path d="M19.2216 1.8297
L19.2821 1.8902
" />
<path d="M19.2821 1.8902
L19.3426 2.0112
" />
<path d="M19.3426 2.0112
L19.3426 2.1321
" />
<path d="M19.3426 2.1321
L19.2821 2.3136
" />
<path d="M19.2821 2.3136
L18.5564 3.0393
" />
<path d="M18.5564 3.0393
L19.3426 3.0393
" />
<path d="M19.8868 2.9183
L19.9473 2.9788
" />
<path d="M19.9473 2.9788
L19.8868 3.0393
" />
<path d="M19.8868 3.0393
L19.8264 2.9788
" />
<path d="M19.8264 2.9788
L19.8868 2.9183
" />
<path d="M19.8868 2.9183
L19.8868 3.0393
" />
<path d="M20.3706 1.7693
L21.2173 1.7693
" />
<path d="M21.2173 1.7693
L20.6730 3.0393
" />
<path d="M21.5802 3.0393
L22.2454 2.1926
" />
<path d="M21.5802 2.1926
L22.2454 3.0393
" />
<path d="M23.2735 2.1926
L23.2735 3.0393
" />
<path d="M22.9711 1.7088
L22.6687 2.6159
" />
<path d="M22.6687 2.6159
L23.4549 2.6159
" />
<path d="M23.9387 3.0393
L23.9387 2.1926
" />
<path d="M23.9387 2.3136
L23.9992 2.2531
" />
<path d="M23.9992 2.2531
L24.1202 2.1926
" />
<path d="M24.1202 2.1926
L24.3016 2.1926
" />
<path d="M24.3016 2.1926
L24.4226 2.2531
" />
<path d="M24.4226 2.2531
L24.4830 2.3740
" />
<path d="M24.4830 2.3740
L24.4830 3.0393
" />
<path d="M24.4830 2.3740
L24.5435 2.2531
" />
<path d="M24.5435 2.2531
L24.6645 2.1926
" />
<path d="M24.6645 2.1926
L24.8459 2.1926
" />
<path d="M24.8459 2.1926
L24.9668 2.2531
" />
<path d="M24.9668 2.2531
L25.0273 2.3740
" />
<path d="M25.0273 2.3740
L25.0273 3.0393
" />
<path d="M25.6321 3.0393
L25.6321 2.1926
" />
<path d="M25.6321 2.3136
L25.6926 2.2531
" />
<path d="M25.6926 2.2531
L25.8135 2.1926
" />
<path d="M25.8135 2.1926
L25.9949 2.1926
" />
<path d="M25.9949 2.1926
L26.1159 2.2531
" />
<path d="M26.1159 2.2531
L26.1764 2.3740
" />
<path d="M26.1764 2.3740
L26.1764 3.0393
" />
<path d="M26.1764 2.3740
L26.2368 2.2531
" />
<path d="M26.2368 2.2531
L26.3578 2.1926
" />
<path d="M26.3578 2.1926
L26.5392 2.1926
" />
<path d="M26.5392 2.1926
L26.6602 2.2531
" />
<path d="M26.6602 2.2531
L26.7206 2.3740
" />
<path d="M26.7206 2.3740
L26.7206 3.0393
" />
<path d="M27.0230 3.1602
L27.9906 3.1602
" />
<path d="M28.2930 3.0393
L28.2930 1.7693
" />
<path d="M28.2930 1.7693
L28.7768 1.7693
" />
<path d="M28.7768 1.7693
L28.8978 1.8297
" />
<path d="M28.8978 1.8297
L28.9583 1.8902
" />
<path d="M28.9583 1.8902
L29.0187 2.0112
" />
<path d="M29.0187 2.0112
L29.0187 2.1926
" />
<path d="M29.0187 2.1926
L28.9583 2.3136
" />
<path d="M28.9583 2.3136
L28.8978 2.3740
" />
<path d="M28.8978 2.3740
L28.7768 2.4345
" />
<path d="M28.7768 2.4345
L28.2930 2.4345
" />
<path d="M29.8049 1.7693
L29.9259 1.7693
" />
<path d="M29.9259 1.7693
L30.0468 1.8297
" />
<path d="M30.0468 1.8297
L30.1073 1.8902
" />
<path d="M30.1073 1.8902
L30.1678 2.0112
" />
<path d="M30.1678 2.0112
L30.2283 2.2531
" />
<path d="M30.2283 2.2531
L30.2283 2.5555
" />
<path d="M30.2283 2.5555
L30.1678 2.7974
" />
<path d="M30.1678 2.7974
L30.1073 2.9183
" />
<path d="M30.1073 2.9183
L30.0468 2.9788
" />
<path d="M30.0468 2.9788
L29.9259 3.0393
" />
<path d="M29.9259 3.0393
L29.8049 3.0393
" />
<path d="M29.8049 3.0393
L29.6840 2.9788
" />
<path d="M29.6840 2.9788
L29.6235 2.9183
" />
<path d="M29.6235 2.9183
L29.5630 2.7974
" />
<path d="M29.5630 2.7974
L29.5026 2.5555
" />
<path d="M29.5026 2.5555
L29.5026 2.2531
" />
<path d="M29.5026 2.2531
L29.5630 2.0112
" />
<path d="M29.5630 2.0112
L29.6235 1.8902
" />
<path d="M29.6235 1.8902
L29.6840 1.8297
" />
<path d="M29.6840 1.8297
L29.8049 1.7693
" />
<path d="M30.7726 2.9183
L30.8330 2.9788
" />
<path d="M30.8330 2.9788
L30.7726 3.0393
" />
<path d="M30.7726 3.0393
L30.7121 2.9788
" />
<path d="M30.7121 2.9788
L30.7726 2.9183
" />
<path d="M30.7726 2.9183
L30.7726 3.0393
" />
<path d="M31.9216 1.7693
L31.6797 1.7693
" />
<path d="M31.6797 1.7693
L31.5587 1.8297
" />
<path d="M31.5587 1.8297
L31.4983 1.8902
" />
<path d="M31.4983 1.8902
L31.3773 2.0717
" />
<path d="M31.3773 2.0717
L31.3168 2.3136
" />
<path d="M31.3168 2.3136
L31.3168 2.7974
" />
<path d="M31.3168 2.7974
L31.3773 2.9183
" />
<path d="M31.3773 2.9183
L31.4378 2.9788
" />
<path d="M31.4378 2.9788
L31.5587 3.0393
" />
<path d="M31.5587 3.0393
L31.8006 3.0393
" />
<path d="M31.8006 3.0393
L31.9216 2.9788
" />
<path d="M31.9216 2.9788
L31.9821 2.9183
" />
<path d="M31.9821 2.9183
L32.0426 2.7974
" />
<path d="M32.0426 2.7974
L32.0426 2.4950
" />
<path d="M32.0426 2.4950
L31.9821 2.3740
" />
<path d="M31.9821 2.3740
L31.9216 2.3136
" />
<path d="M31.9216 2.3136
L31.8006 2.2531
" />
<path d="M31.8006 2.2531
L31.5587 2.2531
" />
<path d="M31.5587 2.2531
L31.4378 2.3136
" />
<path d="M31.4378 2.3136
L31.3773 2.3740
" />
<path d="M31.3773 2.3740
L31.3168 2.4950
" />
<path d="M32.5868 3.0393
L32.5868 2.1926
" />
<path d="M32.5868 2.3136
L32.6473 2.2531
" />
<path d="M32.6473 2.2531
L32.7683 2.1926
" />
<path d="M32.7683 2.1926
L32.9497 2.1926
" />
<path d="M32.9497 2.1926
L33.0706 2.2531
" />
<path d="M33.0706 2.2531
L33.1311 2.3740
" />
<path d="M33.1311 2.3740
L33.1311 3.0393
" />
<path d="M33.1311 2.3740
L33.1916 2.2531
" />
<path d="M33.1916 2.2531
L33.3126 2.1926
" />
<path d="M33.3126 2.1926
L33.4940 2.1926
" />
<path d="M33.4940 2.1926
L33.6149 2.2531
" />
<path d="M33.6149 2.2531
L33.6754 2.3740
" />
<path d="M33.6754 2.3740
L33.6754 3.0393
" />
<path d="M34.2802 3.0393
L34.2802 2.1926
" />
<path d="M34.2802 2.3136
L34.3406 2.2531
" />
<path d="M34.3406 2.2531
L34.4616 2.1926
" />
<path d="M34.4616 2.1926
L34.6430 2.1926
" />
<path d="M34.6430 2.1926
L34.7640 2.2531
" />
<path d="M34.7640 2.2531
L34.8245 2.3740
" />
<path d="M34.8245 2.3740
L34.8245 3.0393
" />
<path d="M34.8245 2.3740
L34.8849 2.2531
" />
<path d="M34.8849 2.2531
L35.0059 2.1926
" />
<path d="M35.0059 2.1926
L35.1873 2.1926
" />
<path d="M35.1873 2.1926
L35.3083 2.2531
" />
<path d="M35.3083 2.2531
L35.3687 2.3740
" />
<path d="M35.3687 2.3740
L35.3687 3.0393
" />
</g></g>
<g style="fill:none; 
stroke:#AFAFAF; stroke-width:0.0500; stroke-opacity:1; 
stroke-linecap:round; stroke-linejoin:round;">
<text x="17.8911" y="2.7100"
textLength="2.1929" font-size="0.6667" lengthAdjust="spacingAndGlyphs"
text-anchor="middle" opacity="0">REF**</text>
<g class="stroked-text"><desc>REF**</desc>
<path d="M17.2245 2.6887
L17.0578 2.4506
" />
<path d="M16.9387 2.6887
L16.9387 2.1887
" />
<path d="M16.9387 2.1887
L17.1292 2.1887
" />
<path d="M17.1292 2.1887
L17.1768 2.2125
" />
<path d="M17.1768 2.2125
L17.2006 2.2363
" />
<path d="M17.2006 2.2363
L17.2245 2.2839
" />
<path d="M17.2245 2.2839
L17.2245 2.3554
" />
<path d="M17.2245 2.3554
L17.2006 2.4030
" />
<path d="M17.2006 2.4030
L17.1768 2.4268
" />
<path d="M17.1768 2.4268
L17.1292 2.4506
" />
<path d="M17.1292 2.4506
L16.9387 2.4506
" />
<path d="M17.4387 2.4268
L17.6054 2.4268
" />
<path d="M17.6768 2.6887
L17.4387 2.6887
" />
<path d="M17.4387 2.6887
L17.4387 2.1887
" />
<path d="M17.4387 2.1887
L17.6768 2.1887
" />
<path d="M18.0578 2.4268
L17.8911 2.4268
" />
<path d="M17.8911 2.6887
L17.8911 2.1887
" />
<path d="M17.8911 2.1887
L18.1292 2.1887
" />
<path d="M18.3911 2.1887
L18.3911 2.3078
" />
<path d="M18.2721 2.2601
L18.3911 2.3078
" />
<path d="M18.3911 2.3078
L18.5102 2.2601
" />
<path d="M18.3197 2.4030
L18.3911 2.3078
" />
<path d="M18.3911 2.3078
L18.4626 2.4030
" />
<path d="M18.7721 2.1887
L18.7721 2.3078
" />
<path d="M18.6530 2.2601
L18.7721 2.3078
" />
<path d="M18.7721 2.3078
L18.8911 2.2601
" />
<path d="M18.7006 2.4030
L18.7721 2.3078
" />
<path d="M18.7721 2.3078
L18.8435 2.4030
" />
</g></g>
<g style="fill:none; 
stroke:#AFAFAF; stroke-width:0.1000; stroke-opacity:1; 
stroke-linecap:round; stroke-linejoin:round;">
<path d="M16.5911 0.8100
L16.8911 0.5100
" />
<path d="M16.5911 4.4100
L16.5911 0.8100
" />
<path d="M16.8911 0.5100
L19.1911 0.5100
" />
<path d="M19.1911 0.5100
L19.1911 4.4100
" />
<path d="M19.1911 4.4100
L16.5911 4.4100
" />
</g> 
</svg>
