<?xml version="1.0" standalone="no"?>
 <!DOCTYPE svg PUBLIC "-//W3C//DTD SVG 1.1//EN" 
 "http://www.w3.org/Graphics/SVG/1.1/DTD/svg11.dtd"> 
<svg
  xmlns:svg="http://www.w3.org/2000/svg"
  xmlns="http://www.w3.org/2000/svg"
  xmlns:xlink="http://www.w3.org/1999/xlink"
  version="1.1"
  width="46.8376mm" height="77.4446mm" viewBox="0.0000 0.0000 46.8376 77.4446">
<title>SVG Image created as working-brd.svg date 2024/04/04 19:55:11 </title>
  <desc>Image generated by PCBNEW </desc>
<g style="fill:#000000; fill-opacity:1.0000;stroke:#000000; stroke-opacity:1.0000;
stroke-linecap:round; stroke-linejoin:round;"
 transform="translate(0 0) scale(1 1)">
<path style="fill:#C83434; fill-opacity:1.0000; stroke:none;fill-rule:evenodd;"
d="M 20.8247,2.3950
20.8247,1.3950
22.7247,1.3950
22.7247,2.3950
Z" /> 
<path style="fill:#C83434; fill-opacity:1.0000; stroke:none;fill-rule:evenodd;"
d="M 24.1247,4.9350
24.1247,3.9350
26.0247,3.9350
26.0247,4.9350
Z" /> 
<path style="fill:#C83434; fill-opacity:1.0000; stroke:none;fill-rule:evenodd;"
d="M 20.8247,7.4750
20.8247,6.4750
22.7247,6.4750
22.7247,7.4750
Z" /> 
<path style="fill:#C83434; fill-opacity:1.0000; stroke:none;fill-rule:evenodd;"
d="M 24.1247,10.0150
24.1247,9.0150
26.0247,9.0150
26.0247,10.0150
Z" /> 
<path style="fill:#C83434; fill-opacity:1.0000; stroke:none;fill-rule:evenodd;"
d="M 20.8247,12.5550
20.8247,11.5550
22.7247,11.5550
22.7247,12.5550
Z" /> 
<path style="fill:#C83434; fill-opacity:1.0000; stroke:none;fill-rule:evenodd;"
d="M 24.1247,15.0950
24.1247,14.0950
26.0247,14.0950
26.0247,15.0950
Z" /> 
<path style="fill:#C83434; fill-opacity:1.0000; stroke:none;fill-rule:evenodd;"
d="M 20.8247,17.6350
20.8247,16.6350
22.7247,16.6350
22.7247,17.6350
Z" /> 
<path style="fill:#C83434; fill-opacity:1.0000; stroke:none;fill-rule:evenodd;"
d="M 24.1247,20.1750
24.1247,19.1750
26.0247,19.1750
26.0247,20.1750
Z" /> 
<path style="fill:#C83434; fill-opacity:1.0000; stroke:none;fill-rule:evenodd;"
d="M 20.8247,22.7150
20.8247,21.7150
22.7247,21.7150
22.7247,22.7150
Z" /> 
<path style="fill:#C83434; fill-opacity:1.0000; stroke:none;fill-rule:evenodd;"
d="M 24.1247,25.2550
24.1247,24.2550
26.0247,24.2550
26.0247,25.2550
Z" /> 
<path style="fill:#C83434; fill-opacity:1.0000; stroke:none;fill-rule:evenodd;"
d="M 20.8247,27.7950
20.8247,26.7950
22.7247,26.7950
22.7247,27.7950
Z" /> 
<path style="fill:#C83434; fill-opacity:1.0000; stroke:none;fill-rule:evenodd;"
d="M 24.1247,30.3350
24.1247,29.3350
26.0247,29.3350
26.0247,30.3350
Z" /> 
<path style="fill:#C83434; fill-opacity:1.0000; stroke:none;fill-rule:evenodd;"
d="M 20.8247,32.8750
20.8247,31.8750
22.7247,31.8750
22.7247,32.8750
Z" /> 
<path style="fill:#C83434; fill-opacity:1.0000; stroke:none;fill-rule:evenodd;"
d="M 24.1247,35.4150
24.1247,34.4150
26.0247,34.4150
26.0247,35.4150
Z" /> 
<path style="fill:#C83434; fill-opacity:1.0000; stroke:none;fill-rule:evenodd;"
d="M 20.8247,37.9550
20.8247,36.9550
22.7247,36.9550
22.7247,37.9550
Z" /> 
<path style="fill:#C83434; fill-opacity:1.0000; stroke:none;fill-rule:evenodd;"
d="M 24.1247,40.4950
24.1247,39.4950
26.0247,39.4950
26.0247,40.4950
Z" /> 
<path style="fill:#C83434; fill-opacity:1.0000; stroke:none;fill-rule:evenodd;"
d="M 20.8247,43.0350
20.8247,42.0350
22.7247,42.0350
22.7247,43.0350
Z" /> 
<path style="fill:#C83434; fill-opacity:1.0000; stroke:none;fill-rule:evenodd;"
d="M 24.1247,45.5750
24.1247,44.5750
26.0247,44.5750
26.0247,45.5750
Z" /> 
<path style="fill:#C83434; fill-opacity:1.0000; stroke:none;fill-rule:evenodd;"
d="M 20.8247,48.1150
20.8247,47.1150
22.7247,47.1150
22.7247,48.1150
Z" /> 
<path style="fill:#C83434; fill-opacity:1.0000; stroke:none;fill-rule:evenodd;"
d="M 24.1247,50.6550
24.1247,49.6550
26.0247,49.6550
26.0247,50.6550
Z" /> 
<path style="fill:#C83434; fill-opacity:1.0000; stroke:none;fill-rule:evenodd;"
d="M 20.8247,53.1950
20.8247,52.1950
22.7247,52.1950
22.7247,53.1950
Z" /> 
<path style="fill:#C83434; fill-opacity:1.0000; stroke:none;fill-rule:evenodd;"
d="M 24.1247,55.7350
24.1247,54.7350
26.0247,54.7350
26.0247,55.7350
Z" /> 
<path style="fill:#C83434; fill-opacity:1.0000; stroke:none;fill-rule:evenodd;"
d="M 20.8247,58.2750
20.8247,57.2750
22.7247,57.2750
22.7247,58.2750
Z" /> 
<path style="fill:#C83434; fill-opacity:1.0000; stroke:none;fill-rule:evenodd;"
d="M 24.1247,60.8150
24.1247,59.8150
26.0247,59.8150
26.0247,60.8150
Z" /> 
<path style="fill:#C83434; fill-opacity:1.0000; stroke:none;fill-rule:evenodd;"
d="M 20.8247,63.3550
20.8247,62.3550
22.7247,62.3550
22.7247,63.3550
Z" /> 
<path style="fill:#C83434; fill-opacity:1.0000; stroke:none;fill-rule:evenodd;"
d="M 24.1247,65.8950
24.1247,64.8950
26.0247,64.8950
26.0247,65.8950
Z" /> 
<path style="fill:#C83434; fill-opacity:1.0000; stroke:none;fill-rule:evenodd;"
d="M 20.8247,68.4350
20.8247,67.4350
22.7247,67.4350
22.7247,68.4350
Z" /> 
<path style="fill:#C83434; fill-opacity:1.0000; stroke:none;fill-rule:evenodd;"
d="M 24.1247,70.9750
24.1247,69.9750
26.0247,69.9750
26.0247,70.9750
Z" /> 
<path style="fill:#C83434; fill-opacity:1.0000; stroke:none;fill-rule:evenodd;"
d="M 20.8247,73.5150
20.8247,72.5150
22.7247,72.5150
22.7247,73.5150
Z" /> 
<path style="fill:#C83434; fill-opacity:1.0000; stroke:none;fill-rule:evenodd;"
d="M 24.1247,76.0550
24.1247,75.0550
26.0247,75.0550
26.0247,76.0550
Z" /> 
<path style="fill:#D864FF; fill-opacity:0.4000; stroke:none;fill-rule:evenodd;"
d="M 20.8247,2.3950
20.8247,1.3950
22.7247,1.3950
22.7247,2.3950
Z" /> 
<path style="fill:#D864FF; fill-opacity:0.4000; stroke:none;fill-rule:evenodd;"
d="M 24.1247,4.9350
24.1247,3.9350
26.0247,3.9350
26.0247,4.9350
Z" /> 
<path style="fill:#D864FF; fill-opacity:0.4000; stroke:none;fill-rule:evenodd;"
d="M 20.8247,7.4750
20.8247,6.4750
22.7247,6.4750
22.7247,7.4750
Z" /> 
<path style="fill:#D864FF; fill-opacity:0.4000; stroke:none;fill-rule:evenodd;"
d="M 24.1247,10.0150
24.1247,9.0150
26.0247,9.0150
26.0247,10.0150
Z" /> 
<path style="fill:#D864FF; fill-opacity:0.4000; stroke:none;fill-rule:evenodd;"
d="M 20.8247,12.5550
20.8247,11.5550
22.7247,11.5550
22.7247,12.5550
Z" /> 
<path style="fill:#D864FF; fill-opacity:0.4000; stroke:none;fill-rule:evenodd;"
d="M 24.1247,15.0950
24.1247,14.0950
26.0247,14.0950
26.0247,15.0950
Z" /> 
<path style="fill:#D864FF; fill-opacity:0.4000; stroke:none;fill-rule:evenodd;"
d="M 20.8247,17.6350
20.8247,16.6350
22.7247,16.6350
22.7247,17.6350
Z" /> 
<path style="fill:#D864FF; fill-opacity:0.4000; stroke:none;fill-rule:evenodd;"
d="M 24.1247,20.1750
24.1247,19.1750
26.0247,19.1750
26.0247,20.1750
Z" /> 
<path style="fill:#D864FF; fill-opacity:0.4000; stroke:none;fill-rule:evenodd;"
d="M 20.8247,22.7150
20.8247,21.7150
22.7247,21.7150
22.7247,22.7150
Z" /> 
<path style="fill:#D864FF; fill-opacity:0.4000; stroke:none;fill-rule:evenodd;"
d="M 24.1247,25.2550
24.1247,24.2550
26.0247,24.2550
26.0247,25.2550
Z" /> 
<path style="fill:#D864FF; fill-opacity:0.4000; stroke:none;fill-rule:evenodd;"
d="M 20.8247,27.7950
20.8247,26.7950
22.7247,26.7950
22.7247,27.7950
Z" /> 
<path style="fill:#D864FF; fill-opacity:0.4000; stroke:none;fill-rule:evenodd;"
d="M 24.1247,30.3350
24.1247,29.3350
26.0247,29.3350
26.0247,30.3350
Z" /> 
<path style="fill:#D864FF; fill-opacity:0.4000; stroke:none;fill-rule:evenodd;"
d="M 20.8247,32.8750
20.8247,31.8750
22.7247,31.8750
22.7247,32.8750
Z" /> 
<path style="fill:#D864FF; fill-opacity:0.4000; stroke:none;fill-rule:evenodd;"
d="M 24.1247,35.4150
24.1247,34.4150
26.0247,34.4150
26.0247,35.4150
Z" /> 
<path style="fill:#D864FF; fill-opacity:0.4000; stroke:none;fill-rule:evenodd;"
d="M 20.8247,37.9550
20.8247,36.9550
22.7247,36.9550
22.7247,37.9550
Z" /> 
<path style="fill:#D864FF; fill-opacity:0.4000; stroke:none;fill-rule:evenodd;"
d="M 24.1247,40.4950
24.1247,39.4950
26.0247,39.4950
26.0247,40.4950
Z" /> 
<path style="fill:#D864FF; fill-opacity:0.4000; stroke:none;fill-rule:evenodd;"
d="M 20.8247,43.0350
20.8247,42.0350
22.7247,42.0350
22.7247,43.0350
Z" /> 
<path style="fill:#D864FF; fill-opacity:0.4000; stroke:none;fill-rule:evenodd;"
d="M 24.1247,45.5750
24.1247,44.5750
26.0247,44.5750
26.0247,45.5750
Z" /> 
<path style="fill:#D864FF; fill-opacity:0.4000; stroke:none;fill-rule:evenodd;"
d="M 20.8247,48.1150
20.8247,47.1150
22.7247,47.1150
22.7247,48.1150
Z" /> 
<path style="fill:#D864FF; fill-opacity:0.4000; stroke:none;fill-rule:evenodd;"
d="M 24.1247,50.6550
24.1247,49.6550
26.0247,49.6550
26.0247,50.6550
Z" /> 
<path style="fill:#D864FF; fill-opacity:0.4000; stroke:none;fill-rule:evenodd;"
d="M 20.8247,53.1950
20.8247,52.1950
22.7247,52.1950
22.7247,53.1950
Z" /> 
<path style="fill:#D864FF; fill-opacity:0.4000; stroke:none;fill-rule:evenodd;"
d="M 24.1247,55.7350
24.1247,54.7350
26.0247,54.7350
26.0247,55.7350
Z" /> 
<path style="fill:#D864FF; fill-opacity:0.4000; stroke:none;fill-rule:evenodd;"
d="M 20.8247,58.2750
20.8247,57.2750
22.7247,57.2750
22.7247,58.2750
Z" /> 
<path style="fill:#D864FF; fill-opacity:0.4000; stroke:none;fill-rule:evenodd;"
d="M 24.1247,60.8150
24.1247,59.8150
26.0247,59.8150
26.0247,60.8150
Z" /> 
<path style="fill:#D864FF; fill-opacity:0.4000; stroke:none;fill-rule:evenodd;"
d="M 20.8247,63.3550
20.8247,62.3550
22.7247,62.3550
22.7247,63.3550
Z" /> 
<path style="fill:#D864FF; fill-opacity:0.4000; stroke:none;fill-rule:evenodd;"
d="M 24.1247,65.8950
24.1247,64.8950
26.0247,64.8950
26.0247,65.8950
Z" /> 
<path style="fill:#D864FF; fill-opacity:0.4000; stroke:none;fill-rule:evenodd;"
d="M 20.8247,68.4350
20.8247,67.4350
22.7247,67.4350
22.7247,68.4350
Z" /> 
<path style="fill:#D864FF; fill-opacity:0.4000; stroke:none;fill-rule:evenodd;"
d="M 24.1247,70.9750
24.1247,69.9750
26.0247,69.9750
26.0247,70.9750
Z" /> 
<path style="fill:#D864FF; fill-opacity:0.4000; stroke:none;fill-rule:evenodd;"
d="M 20.8247,73.5150
20.8247,72.5150
22.7247,72.5150
22.7247,73.5150
Z" /> 
<path style="fill:#D864FF; fill-opacity:0.4000; stroke:none;fill-rule:evenodd;"
d="M 24.1247,76.0550
24.1247,75.0550
26.0247,75.0550
26.0247,76.0550
Z" /> 
<path style="fill:#B4A09A; fill-opacity:0.9000; stroke:none;fill-rule:evenodd;"
d="M 20.8247,2.3950
20.8247,1.3950
22.7247,1.3950
22.7247,2.3950
Z" /> 
<path style="fill:#B4A09A; fill-opacity:0.9000; stroke:none;fill-rule:evenodd;"
d="M 24.1247,4.9350
24.1247,3.9350
26.0247,3.9350
26.0247,4.9350
Z" /> 
<path style="fill:#B4A09A; fill-opacity:0.9000; stroke:none;fill-rule:evenodd;"
d="M 20.8247,7.4750
20.8247,6.4750
22.7247,6.4750
22.7247,7.4750
Z" /> 
<path style="fill:#B4A09A; fill-opacity:0.9000; stroke:none;fill-rule:evenodd;"
d="M 24.1247,10.0150
24.1247,9.0150
26.0247,9.0150
26.0247,10.0150
Z" /> 
<path style="fill:#B4A09A; fill-opacity:0.9000; stroke:none;fill-rule:evenodd;"
d="M 20.8247,12.5550
20.8247,11.5550
22.7247,11.5550
22.7247,12.5550
Z" /> 
<path style="fill:#B4A09A; fill-opacity:0.9000; stroke:none;fill-rule:evenodd;"
d="M 24.1247,15.0950
24.1247,14.0950
26.0247,14.0950
26.0247,15.0950
Z" /> 
<path style="fill:#B4A09A; fill-opacity:0.9000; stroke:none;fill-rule:evenodd;"
d="M 20.8247,17.6350
20.8247,16.6350
22.7247,16.6350
22.7247,17.6350
Z" /> 
<path style="fill:#B4A09A; fill-opacity:0.9000; stroke:none;fill-rule:evenodd;"
d="M 24.1247,20.1750
24.1247,19.1750
26.0247,19.1750
26.0247,20.1750
Z" /> 
<path style="fill:#B4A09A; fill-opacity:0.9000; stroke:none;fill-rule:evenodd;"
d="M 20.8247,22.7150
20.8247,21.7150
22.7247,21.7150
22.7247,22.7150
Z" /> 
<path style="fill:#B4A09A; fill-opacity:0.9000; stroke:none;fill-rule:evenodd;"
d="M 24.1247,25.2550
24.1247,24.2550
26.0247,24.2550
26.0247,25.2550
Z" /> 
<path style="fill:#B4A09A; fill-opacity:0.9000; stroke:none;fill-rule:evenodd;"
d="M 20.8247,27.7950
20.8247,26.7950
22.7247,26.7950
22.7247,27.7950
Z" /> 
<path style="fill:#B4A09A; fill-opacity:0.9000; stroke:none;fill-rule:evenodd;"
d="M 24.1247,30.3350
24.1247,29.3350
26.0247,29.3350
26.0247,30.3350
Z" /> 
<path style="fill:#B4A09A; fill-opacity:0.9000; stroke:none;fill-rule:evenodd;"
d="M 20.8247,32.8750
20.8247,31.8750
22.7247,31.8750
22.7247,32.8750
Z" /> 
<path style="fill:#B4A09A; fill-opacity:0.9000; stroke:none;fill-rule:evenodd;"
d="M 24.1247,35.4150
24.1247,34.4150
26.0247,34.4150
26.0247,35.4150
Z" /> 
<path style="fill:#B4A09A; fill-opacity:0.9000; stroke:none;fill-rule:evenodd;"
d="M 20.8247,37.9550
20.8247,36.9550
22.7247,36.9550
22.7247,37.9550
Z" /> 
<path style="fill:#B4A09A; fill-opacity:0.9000; stroke:none;fill-rule:evenodd;"
d="M 24.1247,40.4950
24.1247,39.4950
26.0247,39.4950
26.0247,40.4950
Z" /> 
<path style="fill:#B4A09A; fill-opacity:0.9000; stroke:none;fill-rule:evenodd;"
d="M 20.8247,43.0350
20.8247,42.0350
22.7247,42.0350
22.7247,43.0350
Z" /> 
<path style="fill:#B4A09A; fill-opacity:0.9000; stroke:none;fill-rule:evenodd;"
d="M 24.1247,45.5750
24.1247,44.5750
26.0247,44.5750
26.0247,45.5750
Z" /> 
<path style="fill:#B4A09A; fill-opacity:0.9000; stroke:none;fill-rule:evenodd;"
d="M 20.8247,48.1150
20.8247,47.1150
22.7247,47.1150
22.7247,48.1150
Z" /> 
<path style="fill:#B4A09A; fill-opacity:0.9000; stroke:none;fill-rule:evenodd;"
d="M 24.1247,50.6550
24.1247,49.6550
26.0247,49.6550
26.0247,50.6550
Z" /> 
<path style="fill:#B4A09A; fill-opacity:0.9000; stroke:none;fill-rule:evenodd;"
d="M 20.8247,53.1950
20.8247,52.1950
22.7247,52.1950
22.7247,53.1950
Z" /> 
<path style="fill:#B4A09A; fill-opacity:0.9000; stroke:none;fill-rule:evenodd;"
d="M 24.1247,55.7350
24.1247,54.7350
26.0247,54.7350
26.0247,55.7350
Z" /> 
<path style="fill:#B4A09A; fill-opacity:0.9000; stroke:none;fill-rule:evenodd;"
d="M 20.8247,58.2750
20.8247,57.2750
22.7247,57.2750
22.7247,58.2750
Z" /> 
<path style="fill:#B4A09A; fill-opacity:0.9000; stroke:none;fill-rule:evenodd;"
d="M 24.1247,60.8150
24.1247,59.8150
26.0247,59.8150
26.0247,60.8150
Z" /> 
<path style="fill:#B4A09A; fill-opacity:0.9000; stroke:none;fill-rule:evenodd;"
d="M 20.8247,63.3550
20.8247,62.3550
22.7247,62.3550
22.7247,63.3550
Z" /> 
<path style="fill:#B4A09A; fill-opacity:0.9000; stroke:none;fill-rule:evenodd;"
d="M 24.1247,65.8950
24.1247,64.8950
26.0247,64.8950
26.0247,65.8950
Z" /> 
<path style="fill:#B4A09A; fill-opacity:0.9000; stroke:none;fill-rule:evenodd;"
d="M 20.8247,68.4350
20.8247,67.4350
22.7247,67.4350
22.7247,68.4350
Z" /> 
<path style="fill:#B4A09A; fill-opacity:0.9000; stroke:none;fill-rule:evenodd;"
d="M 24.1247,70.9750
24.1247,69.9750
26.0247,69.9750
26.0247,70.9750
Z" /> 
<path style="fill:#B4A09A; fill-opacity:0.9000; stroke:none;fill-rule:evenodd;"
d="M 20.8247,73.5150
20.8247,72.5150
22.7247,72.5150
22.7247,73.5150
Z" /> 
<path style="fill:#B4A09A; fill-opacity:0.9000; stroke:none;fill-rule:evenodd;"
d="M 24.1247,76.0550
24.1247,75.0550
26.0247,75.0550
26.0247,76.0550
Z" /> 
</g>
<g style="fill:none; 
stroke:#F2EDA1; stroke-width:0.1588; stroke-opacity:1; 
stroke-linecap:round; stroke-linejoin:round;">
<text x="23.4247" y="39.3600"
textLength="5.6651" font-size="1.6933" lengthAdjust="spacingAndGlyphs"
text-anchor="middle" opacity="0">REF**</text>
<g class="stroked-text"><desc>REF**</desc>
<path d="M21.7314 39.3043
L21.3080 38.6995
" />
<path d="M21.0056 39.3043
L21.0056 38.0343
" />
<path d="M21.0056 38.0343
L21.4895 38.0343
" />
<path d="M21.4895 38.0343
L21.6104 38.0947
" />
<path d="M21.6104 38.0947
L21.6709 38.1552
" />
<path d="M21.6709 38.1552
L21.7314 38.2762
" />
<path d="M21.7314 38.2762
L21.7314 38.4576
" />
<path d="M21.7314 38.4576
L21.6709 38.5786
" />
<path d="M21.6709 38.5786
L21.6104 38.6390
" />
<path d="M21.6104 38.6390
L21.4895 38.6995
" />
<path d="M21.4895 38.6995
L21.0056 38.6995
" />
<path d="M22.2756 38.6390
L22.6990 38.6390
" />
<path d="M22.8804 39.3043
L22.2756 39.3043
" />
<path d="M22.2756 39.3043
L22.2756 38.0343
" />
<path d="M22.2756 38.0343
L22.8804 38.0343
" />
<path d="M23.8480 38.6390
L23.4247 38.6390
" />
<path d="M23.4247 39.3043
L23.4247 38.0343
" />
<path d="M23.4247 38.0343
L24.0295 38.0343
" />
<path d="M24.6947 38.0343
L24.6947 38.3367
" />
<path d="M24.3923 38.2157
L24.6947 38.3367
" />
<path d="M24.6947 38.3367
L24.9971 38.2157
" />
<path d="M24.5133 38.5786
L24.6947 38.3367
" />
<path d="M24.6947 38.3367
L24.8761 38.5786
" />
<path d="M25.6623 38.0343
L25.6623 38.3367
" />
<path d="M25.3599 38.2157
L25.6623 38.3367
" />
<path d="M25.6623 38.3367
L25.9647 38.2157
" />
<path d="M25.4809 38.5786
L25.6623 38.3367
" />
<path d="M25.6623 38.3367
L25.8437 38.5786
" />
</g></g>
<g style="fill:none; 
stroke:#F2EDA1; stroke-width:0.1200; stroke-opacity:1; 
stroke-linecap:round; stroke-linejoin:round;">
<path d="M20.8847 1.1350
L22.0947 1.1350
" />
<path d="M22.0947 0.4650
L22.0947 1.1350
" />
<path d="M22.0947 0.4650
L24.7547 0.4650
" />
<path d="M22.0947 2.6550
L22.0947 6.2150
" />
<path d="M22.0947 7.7350
L22.0947 11.2950
" />
<path d="M22.0947 12.8150
L22.0947 16.3750
" />
<path d="M22.0947 17.8950
L22.0947 21.4550
" />
<path d="M22.0947 22.9750
L22.0947 26.5350
" />
<path d="M22.0947 28.0550
L22.0947 31.6150
" />
<path d="M22.0947 33.1350
L22.0947 36.6950
" />
<path d="M22.0947 38.2150
L22.0947 41.7750
" />
<path d="M22.0947 43.2950
L22.0947 46.8550
" />
<path d="M22.0947 48.3750
L22.0947 51.9350
" />
<path d="M22.0947 53.4550
L22.0947 57.0150
" />
<path d="M22.0947 58.5350
L22.0947 62.0950
" />
<path d="M22.0947 63.6150
L22.0947 67.1750
" />
<path d="M22.0947 68.6950
L22.0947 72.2550
" />
<path d="M22.0947 73.7750
L22.0947 76.9850
" />
<path d="M22.0947 76.9850
L24.7547 76.9850
" />
<path d="M24.7547 0.4650
L24.7547 3.6750
" />
<path d="M24.7547 5.1950
L24.7547 8.7550
" />
<path d="M24.7547 10.2750
L24.7547 13.8350
" />
<path d="M24.7547 15.3550
L24.7547 18.9150
" />
<path d="M24.7547 20.4350
L24.7547 23.9950
" />
<path d="M24.7547 25.5150
L24.7547 29.0750
" />
<path d="M24.7547 30.5950
L24.7547 34.1550
" />
<path d="M24.7547 35.6750
L24.7547 39.2350
" />
<path d="M24.7547 40.7550
L24.7547 44.3150
" />
<path d="M24.7547 45.8350
L24.7547 49.3950
" />
<path d="M24.7547 50.9150
L24.7547 54.4750
" />
<path d="M24.7547 55.9950
L24.7547 59.5550
" />
<path d="M24.7547 61.0750
L24.7547 64.6350
" />
<path d="M24.7547 66.1550
L24.7547 69.7150
" />
<path d="M24.7547 71.2350
L24.7547 74.7950
" />
<path d="M24.7547 76.3150
L24.7547 76.9850
" />
</g>
<g style="fill:none; 
stroke:#FF26E2; stroke-width:0.0500; stroke-opacity:1; 
stroke-linecap:round; stroke-linejoin:round;">
<path d="M20.3247 0.0250
L26.5247 0.0250
" />
<path d="M20.3247 77.4250
L20.3247 0.0250
" />
<path d="M26.5247 0.0250
L26.5247 77.4250
" />
<path d="M26.5247 77.4250
L20.3247 77.4250
" />
</g>
<g style="fill:none; 
stroke:#AFAFAF; stroke-width:0.1588; stroke-opacity:1; 
stroke-linecap:round; stroke-linejoin:round;">
<text x="23.4247" y="39.3600"
textLength="46.8494" font-size="1.6933" lengthAdjust="spacingAndGlyphs"
text-anchor="middle" opacity="0">PinSocket_1x30_P2.54mm_Vertical_SMD_Pin1Left</text>
<g class="stroked-text"><desc>PinSocket_1x30_P2.54mm_Vertical_SMD_Pin1Left</desc>
<path d="M0.4135 39.3043
L0.4135 38.0343
" />
<path d="M0.4135 38.0343
L0.8973 38.0343
" />
<path d="M0.8973 38.0343
L1.0183 38.0947
" />
<path d="M1.0183 38.0947
L1.0787 38.1552
" />
<path d="M1.0787 38.1552
L1.1392 38.2762
" />
<path d="M1.1392 38.2762
L1.1392 38.4576
" />
<path d="M1.1392 38.4576
L1.0787 38.5786
" />
<path d="M1.0787 38.5786
L1.0183 38.6390
" />
<path d="M1.0183 38.6390
L0.8973 38.6995
" />
<path d="M0.8973 38.6995
L0.4135 38.6995
" />
<path d="M1.6835 39.3043
L1.6835 38.4576
" />
<path d="M1.6835 38.0343
L1.6230 38.0947
" />
<path d="M1.6230 38.0947
L1.6835 38.1552
" />
<path d="M1.6835 38.1552
L1.7440 38.0947
" />
<path d="M1.7440 38.0947
L1.6835 38.0343
" />
<path d="M1.6835 38.0343
L1.6835 38.1552
" />
<path d="M2.2883 38.4576
L2.2883 39.3043
" />
<path d="M2.2883 38.5786
L2.3487 38.5181
" />
<path d="M2.3487 38.5181
L2.4697 38.4576
" />
<path d="M2.4697 38.4576
L2.6511 38.4576
" />
<path d="M2.6511 38.4576
L2.7721 38.5181
" />
<path d="M2.7721 38.5181
L2.8326 38.6390
" />
<path d="M2.8326 38.6390
L2.8326 39.3043
" />
<path d="M3.3768 39.2438
L3.5583 39.3043
" />
<path d="M3.5583 39.3043
L3.8606 39.3043
" />
<path d="M3.8606 39.3043
L3.9816 39.2438
" />
<path d="M3.9816 39.2438
L4.0421 39.1833
" />
<path d="M4.0421 39.1833
L4.1026 39.0624
" />
<path d="M4.1026 39.0624
L4.1026 38.9414
" />
<path d="M4.1026 38.9414
L4.0421 38.8205
" />
<path d="M4.0421 38.8205
L3.9816 38.7600
" />
<path d="M3.9816 38.7600
L3.8606 38.6995
" />
<path d="M3.8606 38.6995
L3.6187 38.6390
" />
<path d="M3.6187 38.6390
L3.4978 38.5786
" />
<path d="M3.4978 38.5786
L3.4373 38.5181
" />
<path d="M3.4373 38.5181
L3.3768 38.3971
" />
<path d="M3.3768 38.3971
L3.3768 38.2762
" />
<path d="M3.3768 38.2762
L3.4373 38.1552
" />
<path d="M3.4373 38.1552
L3.4978 38.0947
" />
<path d="M3.4978 38.0947
L3.6187 38.0343
" />
<path d="M3.6187 38.0343
L3.9211 38.0343
" />
<path d="M3.9211 38.0343
L4.1026 38.0947
" />
<path d="M4.8283 39.3043
L4.7073 39.2438
" />
<path d="M4.7073 39.2438
L4.6468 39.1833
" />
<path d="M4.6468 39.1833
L4.5864 39.0624
" />
<path d="M4.5864 39.0624
L4.5864 38.6995
" />
<path d="M4.5864 38.6995
L4.6468 38.5786
" />
<path d="M4.6468 38.5786
L4.7073 38.5181
" />
<path d="M4.7073 38.5181
L4.8283 38.4576
" />
<path d="M4.8283 38.4576
L5.0097 38.4576
" />
<path d="M5.0097 38.4576
L5.1307 38.5181
" />
<path d="M5.1307 38.5181
L5.1911 38.5786
" />
<path d="M5.1911 38.5786
L5.2516 38.6995
" />
<path d="M5.2516 38.6995
L5.2516 39.0624
" />
<path d="M5.2516 39.0624
L5.1911 39.1833
" />
<path d="M5.1911 39.1833
L5.1307 39.2438
" />
<path d="M5.1307 39.2438
L5.0097 39.3043
" />
<path d="M5.0097 39.3043
L4.8283 39.3043
" />
<path d="M6.3402 39.2438
L6.2192 39.3043
" />
<path d="M6.2192 39.3043
L5.9773 39.3043
" />
<path d="M5.9773 39.3043
L5.8564 39.2438
" />
<path d="M5.8564 39.2438
L5.7959 39.1833
" />
<path d="M5.7959 39.1833
L5.7354 39.0624
" />
<path d="M5.7354 39.0624
L5.7354 38.6995
" />
<path d="M5.7354 38.6995
L5.7959 38.5786
" />
<path d="M5.7959 38.5786
L5.8564 38.5181
" />
<path d="M5.8564 38.5181
L5.9773 38.4576
" />
<path d="M5.9773 38.4576
L6.2192 38.4576
" />
<path d="M6.2192 38.4576
L6.3402 38.5181
" />
<path d="M6.8845 39.3043
L6.8845 38.0343
" />
<path d="M7.0054 38.8205
L7.3683 39.3043
" />
<path d="M7.3683 38.4576
L6.8845 38.9414
" />
<path d="M8.3964 39.2438
L8.2754 39.3043
" />
<path d="M8.2754 39.3043
L8.0335 39.3043
" />
<path d="M8.0335 39.3043
L7.9126 39.2438
" />
<path d="M7.9126 39.2438
L7.8521 39.1228
" />
<path d="M7.8521 39.1228
L7.8521 38.6390
" />
<path d="M7.8521 38.6390
L7.9126 38.5181
" />
<path d="M7.9126 38.5181
L8.0335 38.4576
" />
<path d="M8.0335 38.4576
L8.2754 38.4576
" />
<path d="M8.2754 38.4576
L8.3964 38.5181
" />
<path d="M8.3964 38.5181
L8.4568 38.6390
" />
<path d="M8.4568 38.6390
L8.4568 38.7600
" />
<path d="M8.4568 38.7600
L7.8521 38.8809
" />
<path d="M8.8197 38.4576
L9.3035 38.4576
" />
<path d="M9.0011 38.0343
L9.0011 39.1228
" />
<path d="M9.0011 39.1228
L9.0616 39.2438
" />
<path d="M9.0616 39.2438
L9.1826 39.3043
" />
<path d="M9.1826 39.3043
L9.3035 39.3043
" />
<path d="M9.4245 39.4252
L10.3921 39.4252
" />
<path d="M11.3597 39.3043
L10.6340 39.3043
" />
<path d="M10.9968 39.3043
L10.9968 38.0343
" />
<path d="M10.9968 38.0343
L10.8759 38.2157
" />
<path d="M10.8759 38.2157
L10.7549 38.3367
" />
<path d="M10.7549 38.3367
L10.6340 38.3971
" />
<path d="M11.7830 39.3043
L12.4483 38.4576
" />
<path d="M11.7830 38.4576
L12.4483 39.3043
" />
<path d="M12.8111 38.0343
L13.5973 38.0343
" />
<path d="M13.5973 38.0343
L13.1740 38.5181
" />
<path d="M13.1740 38.5181
L13.3554 38.5181
" />
<path d="M13.3554 38.5181
L13.4764 38.5786
" />
<path d="M13.4764 38.5786
L13.5368 38.6390
" />
<path d="M13.5368 38.6390
L13.5973 38.7600
" />
<path d="M13.5973 38.7600
L13.5973 39.0624
" />
<path d="M13.5973 39.0624
L13.5368 39.1833
" />
<path d="M13.5368 39.1833
L13.4764 39.2438
" />
<path d="M13.4764 39.2438
L13.3554 39.3043
" />
<path d="M13.3554 39.3043
L12.9926 39.3043
" />
<path d="M12.9926 39.3043
L12.8716 39.2438
" />
<path d="M12.8716 39.2438
L12.8111 39.1833
" />
<path d="M14.3835 38.0343
L14.5045 38.0343
" />
<path d="M14.5045 38.0343
L14.6254 38.0947
" />
<path d="M14.6254 38.0947
L14.6859 38.1552
" />
<path d="M14.6859 38.1552
L14.7464 38.2762
" />
<path d="M14.7464 38.2762
L14.8068 38.5181
" />
<path d="M14.8068 38.5181
L14.8068 38.8205
" />
<path d="M14.8068 38.8205
L14.7464 39.0624
" />
<path d="M14.7464 39.0624
L14.6859 39.1833
" />
<path d="M14.6859 39.1833
L14.6254 39.2438
" />
<path d="M14.6254 39.2438
L14.5045 39.3043
" />
<path d="M14.5045 39.3043
L14.3835 39.3043
" />
<path d="M14.3835 39.3043
L14.2626 39.2438
" />
<path d="M14.2626 39.2438
L14.2021 39.1833
" />
<path d="M14.2021 39.1833
L14.1416 39.0624
" />
<path d="M14.1416 39.0624
L14.0811 38.8205
" />
<path d="M14.0811 38.8205
L14.0811 38.5181
" />
<path d="M14.0811 38.5181
L14.1416 38.2762
" />
<path d="M14.1416 38.2762
L14.2021 38.1552
" />
<path d="M14.2021 38.1552
L14.2626 38.0947
" />
<path d="M14.2626 38.0947
L14.3835 38.0343
" />
<path d="M15.0487 39.4252
L16.0164 39.4252
" />
<path d="M16.3187 39.3043
L16.3187 38.0343
" />
<path d="M16.3187 38.0343
L16.8026 38.0343
" />
<path d="M16.8026 38.0343
L16.9235 38.0947
" />
<path d="M16.9235 38.0947
L16.9840 38.1552
" />
<path d="M16.9840 38.1552
L17.0445 38.2762
" />
<path d="M17.0445 38.2762
L17.0445 38.4576
" />
<path d="M17.0445 38.4576
L16.9840 38.5786
" />
<path d="M16.9840 38.5786
L16.9235 38.6390
" />
<path d="M16.9235 38.6390
L16.8026 38.6995
" />
<path d="M16.8026 38.6995
L16.3187 38.6995
" />
<path d="M17.5283 38.1552
L17.5887 38.0947
" />
<path d="M17.5887 38.0947
L17.7097 38.0343
" />
<path d="M17.7097 38.0343
L18.0121 38.0343
" />
<path d="M18.0121 38.0343
L18.1330 38.0947
" />
<path d="M18.1330 38.0947
L18.1935 38.1552
" />
<path d="M18.1935 38.1552
L18.2540 38.2762
" />
<path d="M18.2540 38.2762
L18.2540 38.3971
" />
<path d="M18.2540 38.3971
L18.1935 38.5786
" />
<path d="M18.1935 38.5786
L17.4678 39.3043
" />
<path d="M17.4678 39.3043
L18.2540 39.3043
" />
<path d="M18.7983 39.1833
L18.8587 39.2438
" />
<path d="M18.8587 39.2438
L18.7983 39.3043
" />
<path d="M18.7983 39.3043
L18.7378 39.2438
" />
<path d="M18.7378 39.2438
L18.7983 39.1833
" />
<path d="M18.7983 39.1833
L18.7983 39.3043
" />
<path d="M20.0078 38.0343
L19.4030 38.0343
" />
<path d="M19.4030 38.0343
L19.3426 38.6390
" />
<path d="M19.3426 38.6390
L19.4030 38.5786
" />
<path d="M19.4030 38.5786
L19.5240 38.5181
" />
<path d="M19.5240 38.5181
L19.8264 38.5181
" />
<path d="M19.8264 38.5181
L19.9473 38.5786
" />
<path d="M19.9473 38.5786
L20.0078 38.6390
" />
<path d="M20.0078 38.6390
L20.0683 38.7600
" />
<path d="M20.0683 38.7600
L20.0683 39.0624
" />
<path d="M20.0683 39.0624
L20.0078 39.1833
" />
<path d="M20.0078 39.1833
L19.9473 39.2438
" />
<path d="M19.9473 39.2438
L19.8264 39.3043
" />
<path d="M19.8264 39.3043
L19.5240 39.3043
" />
<path d="M19.5240 39.3043
L19.4030 39.2438
" />
<path d="M19.4030 39.2438
L19.3426 39.1833
" />
<path d="M21.1568 38.4576
L21.1568 39.3043
" />
<path d="M20.8545 37.9738
L20.5521 38.8809
" />
<path d="M20.5521 38.8809
L21.3383 38.8809
" />
<path d="M21.8221 39.3043
L21.8221 38.4576
" />
<path d="M21.8221 38.5786
L21.8826 38.5181
" />
<path d="M21.8826 38.5181
L22.0035 38.4576
" />
<path d="M22.0035 38.4576
L22.1849 38.4576
" />
<path d="M22.1849 38.4576
L22.3059 38.5181
" />
<path d="M22.3059 38.5181
L22.3664 38.6390
" />
<path d="M22.3664 38.6390
L22.3664 39.3043
" />
<path d="M22.3664 38.6390
L22.4268 38.5181
" />
<path d="M22.4268 38.5181
L22.5478 38.4576
" />
<path d="M22.5478 38.4576
L22.7292 38.4576
" />
<path d="M22.7292 38.4576
L22.8502 38.5181
" />
<path d="M22.8502 38.5181
L22.9107 38.6390
" />
<path d="M22.9107 38.6390
L22.9107 39.3043
" />
<path d="M23.5154 39.3043
L23.5154 38.4576
" />
<path d="M23.5154 38.5786
L23.5759 38.5181
" />
<path d="M23.5759 38.5181
L23.6968 38.4576
" />
<path d="M23.6968 38.4576
L23.8783 38.4576
" />
<path d="M23.8783 38.4576
L23.9992 38.5181
" />
<path d="M23.9992 38.5181
L24.0597 38.6390
" />
<path d="M24.0597 38.6390
L24.0597 39.3043
" />
<path d="M24.0597 38.6390
L24.1202 38.5181
" />
<path d="M24.1202 38.5181
L24.2411 38.4576
" />
<path d="M24.2411 38.4576
L24.4226 38.4576
" />
<path d="M24.4226 38.4576
L24.5435 38.5181
" />
<path d="M24.5435 38.5181
L24.6040 38.6390
" />
<path d="M24.6040 38.6390
L24.6040 39.3043
" />
<path d="M24.9064 39.4252
L25.8740 39.4252
" />
<path d="M25.9949 38.0343
L26.4183 39.3043
" />
<path d="M26.4183 39.3043
L26.8416 38.0343
" />
<path d="M27.7487 39.2438
L27.6278 39.3043
" />
<path d="M27.6278 39.3043
L27.3859 39.3043
" />
<path d="M27.3859 39.3043
L27.2649 39.2438
" />
<path d="M27.2649 39.2438
L27.2045 39.1228
" />
<path d="M27.2045 39.1228
L27.2045 38.6390
" />
<path d="M27.2045 38.6390
L27.2649 38.5181
" />
<path d="M27.2649 38.5181
L27.3859 38.4576
" />
<path d="M27.3859 38.4576
L27.6278 38.4576
" />
<path d="M27.6278 38.4576
L27.7487 38.5181
" />
<path d="M27.7487 38.5181
L27.8092 38.6390
" />
<path d="M27.8092 38.6390
L27.8092 38.7600
" />
<path d="M27.8092 38.7600
L27.2045 38.8809
" />
<path d="M28.3535 39.3043
L28.3535 38.4576
" />
<path d="M28.3535 38.6995
L28.4140 38.5786
" />
<path d="M28.4140 38.5786
L28.4745 38.5181
" />
<path d="M28.4745 38.5181
L28.5954 38.4576
" />
<path d="M28.5954 38.4576
L28.7164 38.4576
" />
<path d="M28.9583 38.4576
L29.4421 38.4576
" />
<path d="M29.1397 38.0343
L29.1397 39.1228
" />
<path d="M29.1397 39.1228
L29.2002 39.2438
" />
<path d="M29.2002 39.2438
L29.3211 39.3043
" />
<path d="M29.3211 39.3043
L29.4421 39.3043
" />
<path d="M29.8654 39.3043
L29.8654 38.4576
" />
<path d="M29.8654 38.0343
L29.8049 38.0947
" />
<path d="M29.8049 38.0947
L29.8654 38.1552
" />
<path d="M29.8654 38.1552
L29.9259 38.0947
" />
<path d="M29.9259 38.0947
L29.8654 38.0343
" />
<path d="M29.8654 38.0343
L29.8654 38.1552
" />
<path d="M31.0145 39.2438
L30.8935 39.3043
" />
<path d="M30.8935 39.3043
L30.6516 39.3043
" />
<path d="M30.6516 39.3043
L30.5306 39.2438
" />
<path d="M30.5306 39.2438
L30.4702 39.1833
" />
<path d="M30.4702 39.1833
L30.4097 39.0624
" />
<path d="M30.4097 39.0624
L30.4097 38.6995
" />
<path d="M30.4097 38.6995
L30.4702 38.5786
" />
<path d="M30.4702 38.5786
L30.5306 38.5181
" />
<path d="M30.5306 38.5181
L30.6516 38.4576
" />
<path d="M30.6516 38.4576
L30.8935 38.4576
" />
<path d="M30.8935 38.4576
L31.0145 38.5181
" />
<path d="M32.1030 39.3043
L32.1030 38.6390
" />
<path d="M32.1030 38.6390
L32.0426 38.5181
" />
<path d="M32.0426 38.5181
L31.9216 38.4576
" />
<path d="M31.9216 38.4576
L31.6797 38.4576
" />
<path d="M31.6797 38.4576
L31.5587 38.5181
" />
<path d="M32.1030 39.2438
L31.9821 39.3043
" />
<path d="M31.9821 39.3043
L31.6797 39.3043
" />
<path d="M31.6797 39.3043
L31.5587 39.2438
" />
<path d="M31.5587 39.2438
L31.4983 39.1228
" />
<path d="M31.4983 39.1228
L31.4983 39.0019
" />
<path d="M31.4983 39.0019
L31.5587 38.8809
" />
<path d="M31.5587 38.8809
L31.6797 38.8205
" />
<path d="M31.6797 38.8205
L31.9821 38.8205
" />
<path d="M31.9821 38.8205
L32.1030 38.7600
" />
<path d="M32.8892 39.3043
L32.7683 39.2438
" />
<path d="M32.7683 39.2438
L32.7078 39.1228
" />
<path d="M32.7078 39.1228
L32.7078 38.0343
" />
<path d="M33.0706 39.4252
L34.0383 39.4252
" />
<path d="M34.2802 39.2438
L34.4616 39.3043
" />
<path d="M34.4616 39.3043
L34.7640 39.3043
" />
<path d="M34.7640 39.3043
L34.8849 39.2438
" />
<path d="M34.8849 39.2438
L34.9454 39.1833
" />
<path d="M34.9454 39.1833
L35.0059 39.0624
" />
<path d="M35.0059 39.0624
L35.0059 38.9414
" />
<path d="M35.0059 38.9414
L34.9454 38.8205
" />
<path d="M34.9454 38.8205
L34.8849 38.7600
" />
<path d="M34.8849 38.7600
L34.7640 38.6995
" />
<path d="M34.7640 38.6995
L34.5221 38.6390
" />
<path d="M34.5221 38.6390
L34.4011 38.5786
" />
<path d="M34.4011 38.5786
L34.3406 38.5181
" />
<path d="M34.3406 38.5181
L34.2802 38.3971
" />
<path d="M34.2802 38.3971
L34.2802 38.2762
" />
<path d="M34.2802 38.2762
L34.3406 38.1552
" />
<path d="M34.3406 38.1552
L34.4011 38.0947
" />
<path d="M34.4011 38.0947
L34.5221 38.0343
" />
<path d="M34.5221 38.0343
L34.8245 38.0343
" />
<path d="M34.8245 38.0343
L35.0059 38.0947
" />
<path d="M35.5502 39.3043
L35.5502 38.0343
" />
<path d="M35.5502 38.0343
L35.9735 38.9414
" />
<path d="M35.9735 38.9414
L36.3968 38.0343
" />
<path d="M36.3968 38.0343
L36.3968 39.3043
" />
<path d="M37.0016 39.3043
L37.0016 38.0343
" />
<path d="M37.0016 38.0343
L37.3040 38.0343
" />
<path d="M37.3040 38.0343
L37.4854 38.0947
" />
<path d="M37.4854 38.0947
L37.6064 38.2157
" />
<path d="M37.6064 38.2157
L37.6668 38.3367
" />
<path d="M37.6668 38.3367
L37.7273 38.5786
" />
<path d="M37.7273 38.5786
L37.7273 38.7600
" />
<path d="M37.7273 38.7600
L37.6668 39.0019
" />
<path d="M37.6668 39.0019
L37.6064 39.1228
" />
<path d="M37.6064 39.1228
L37.4854 39.2438
" />
<path d="M37.4854 39.2438
L37.3040 39.3043
" />
<path d="M37.3040 39.3043
L37.0016 39.3043
" />
<path d="M37.9692 39.4252
L38.9368 39.4252
" />
<path d="M39.2392 39.3043
L39.2392 38.0343
" />
<path d="M39.2392 38.0343
L39.7230 38.0343
" />
<path d="M39.7230 38.0343
L39.8440 38.0947
" />
<path d="M39.8440 38.0947
L39.9045 38.1552
" />
<path d="M39.9045 38.1552
L39.9649 38.2762
" />
<path d="M39.9649 38.2762
L39.9649 38.4576
" />
<path d="M39.9649 38.4576
L39.9045 38.5786
" />
<path d="M39.9045 38.5786
L39.8440 38.6390
" />
<path d="M39.8440 38.6390
L39.7230 38.6995
" />
<path d="M39.7230 38.6995
L39.2392 38.6995
" />
<path d="M40.5092 39.3043
L40.5092 38.4576
" />
<path d="M40.5092 38.0343
L40.4487 38.0947
" />
<path d="M40.4487 38.0947
L40.5092 38.1552
" />
<path d="M40.5092 38.1552
L40.5697 38.0947
" />
<path d="M40.5697 38.0947
L40.5092 38.0343
" />
<path d="M40.5092 38.0343
L40.5092 38.1552
" />
<path d="M41.1140 38.4576
L41.1140 39.3043
" />
<path d="M41.1140 38.5786
L41.1745 38.5181
" />
<path d="M41.1745 38.5181
L41.2954 38.4576
" />
<path d="M41.2954 38.4576
L41.4768 38.4576
" />
<path d="M41.4768 38.4576
L41.5978 38.5181
" />
<path d="M41.5978 38.5181
L41.6583 38.6390
" />
<path d="M41.6583 38.6390
L41.6583 39.3043
" />
<path d="M42.9283 39.3043
L42.2026 39.3043
" />
<path d="M42.5654 39.3043
L42.5654 38.0343
" />
<path d="M42.5654 38.0343
L42.4445 38.2157
" />
<path d="M42.4445 38.2157
L42.3235 38.3367
" />
<path d="M42.3235 38.3367
L42.2026 38.3971
" />
<path d="M44.0773 39.3043
L43.4726 39.3043
" />
<path d="M43.4726 39.3043
L43.4726 38.0343
" />
<path d="M44.9845 39.2438
L44.8635 39.3043
" />
<path d="M44.8635 39.3043
L44.6216 39.3043
" />
<path d="M44.6216 39.3043
L44.5006 39.2438
" />
<path d="M44.5006 39.2438
L44.4402 39.1228
" />
<path d="M44.4402 39.1228
L44.4402 38.6390
" />
<path d="M44.4402 38.6390
L44.5006 38.5181
" />
<path d="M44.5006 38.5181
L44.6216 38.4576
" />
<path d="M44.6216 38.4576
L44.8635 38.4576
" />
<path d="M44.8635 38.4576
L44.9845 38.5181
" />
<path d="M44.9845 38.5181
L45.0449 38.6390
" />
<path d="M45.0449 38.6390
L45.0449 38.7600
" />
<path d="M45.0449 38.7600
L44.4402 38.8809
" />
<path d="M45.4078 38.4576
L45.8916 38.4576
" />
<path d="M45.5892 39.3043
L45.5892 38.2157
" />
<path d="M45.5892 38.2157
L45.6497 38.0947
" />
<path d="M45.6497 38.0947
L45.7706 38.0343
" />
<path d="M45.7706 38.0343
L45.8916 38.0343
" />
<path d="M46.1335 38.4576
L46.6173 38.4576
" />
<path d="M46.3149 38.0343
L46.3149 39.1228
" />
<path d="M46.3149 39.1228
L46.3754 39.2438
" />
<path d="M46.3754 39.2438
L46.4964 39.3043
" />
<path d="M46.4964 39.3043
L46.6173 39.3043
" />
</g></g>
<g style="fill:none; 
stroke:#AFAFAF; stroke-width:0.1500; stroke-opacity:1; 
stroke-linecap:round; stroke-linejoin:round;">
<g transform="rotate(-90.000000 23.4247 38.7250)">
<text x="23.4247" y="39.2250"
textLength="4.5357" font-size="1.3333" lengthAdjust="spacingAndGlyphs"
text-anchor="middle" opacity="0">REF**</text>
</g>
<g class="stroked-text"><desc>REF**</desc>
<path d="M23.8795 40.0583
L23.4033 40.3917
" />
<path d="M23.8795 40.6298
L22.8795 40.6298
" />
<path d="M22.8795 40.6298
L22.8795 40.2488
" />
<path d="M22.8795 40.2488
L22.9271 40.1536
" />
<path d="M22.9271 40.1536
L22.9748 40.1060
" />
<path d="M22.9748 40.1060
L23.0700 40.0583
" />
<path d="M23.0700 40.0583
L23.2128 40.0583
" />
<path d="M23.2128 40.0583
L23.3081 40.1060
" />
<path d="M23.3081 40.1060
L23.3557 40.1536
" />
<path d="M23.3557 40.1536
L23.4033 40.2488
" />
<path d="M23.4033 40.2488
L23.4033 40.6298
" />
<path d="M23.3557 39.6298
L23.3557 39.2964
" />
<path d="M23.8795 39.1536
L23.8795 39.6298
" />
<path d="M23.8795 39.6298
L22.8795 39.6298
" />
<path d="M22.8795 39.6298
L22.8795 39.1536
" />
<path d="M23.3557 38.3917
L23.3557 38.7250
" />
<path d="M23.8795 38.7250
L22.8795 38.7250
" />
<path d="M22.8795 38.7250
L22.8795 38.2488
" />
<path d="M22.8795 37.7250
L23.1176 37.7250
" />
<path d="M23.0224 37.9631
L23.1176 37.7250
" />
<path d="M23.1176 37.7250
L23.0224 37.4869
" />
<path d="M23.3081 37.8679
L23.1176 37.7250
" />
<path d="M23.1176 37.7250
L23.3081 37.5821
" />
<path d="M22.8795 36.9631
L23.1176 36.9631
" />
<path d="M23.0224 37.2012
L23.1176 36.9631
" />
<path d="M23.1176 36.9631
L23.0224 36.7250
" />
<path d="M23.3081 37.1060
L23.1176 36.9631
" />
<path d="M23.1176 36.9631
L23.3081 36.8202
" />
</g></g>
<g style="fill:none; 
stroke:#AFAFAF; stroke-width:0.1000; stroke-opacity:1; 
stroke-linecap:round; stroke-linejoin:round;">
<path d="M21.1547 1.5950
L22.1547 1.5950
" />
<path d="M21.1547 2.1950
L21.1547 1.5950
" />
<path d="M21.1547 6.6750
L22.1547 6.6750
" />
<path d="M21.1547 7.2750
L21.1547 6.6750
" />
<path d="M21.1547 11.7550
L22.1547 11.7550
" />
<path d="M21.1547 12.3550
L21.1547 11.7550
" />
<path d="M21.1547 16.8350
L22.1547 16.8350
" />
<path d="M21.1547 17.4350
L21.1547 16.8350
" />
<path d="M21.1547 21.9150
L22.1547 21.9150
" />
<path d="M21.1547 22.5150
L21.1547 21.9150
" />
<path d="M21.1547 26.9950
L22.1547 26.9950
" />
<path d="M21.1547 27.5950
L21.1547 26.9950
" />
<path d="M21.1547 32.0750
L22.1547 32.0750
" />
<path d="M21.1547 32.6750
L21.1547 32.0750
" />
<path d="M21.1547 37.1550
L22.1547 37.1550
" />
<path d="M21.1547 37.7550
L21.1547 37.1550
" />
<path d="M21.1547 42.2350
L22.1547 42.2350
" />
<path d="M21.1547 42.8350
L21.1547 42.2350
" />
<path d="M21.1547 47.3150
L22.1547 47.3150
" />
<path d="M21.1547 47.9150
L21.1547 47.3150
" />
<path d="M21.1547 52.3950
L22.1547 52.3950
" />
<path d="M21.1547 52.9950
L21.1547 52.3950
" />
<path d="M21.1547 57.4750
L22.1547 57.4750
" />
<path d="M21.1547 58.0750
L21.1547 57.4750
" />
<path d="M21.1547 62.5550
L22.1547 62.5550
" />
<path d="M21.1547 63.1550
L21.1547 62.5550
" />
<path d="M21.1547 67.6350
L22.1547 67.6350
" />
<path d="M21.1547 68.2350
L21.1547 67.6350
" />
<path d="M21.1547 72.7150
L22.1547 72.7150
" />
<path d="M21.1547 73.3150
L21.1547 72.7150
" />
<path d="M22.1547 1.1600
L22.7897 0.5250
" />
<path d="M22.1547 2.1950
L21.1547 2.1950
" />
<path d="M22.1547 7.2750
L21.1547 7.2750
" />
<path d="M22.1547 12.3550
L21.1547 12.3550
" />
<path d="M22.1547 17.4350
L21.1547 17.4350
" />
<path d="M22.1547 22.5150
L21.1547 22.5150
" />
<path d="M22.1547 27.5950
L21.1547 27.5950
" />
<path d="M22.1547 32.6750
L21.1547 32.6750
" />
<path d="M22.1547 37.7550
L21.1547 37.7550
" />
<path d="M22.1547 42.8350
L21.1547 42.8350
" />
<path d="M22.1547 47.9150
L21.1547 47.9150
" />
<path d="M22.1547 52.9950
L21.1547 52.9950
" />
<path d="M22.1547 58.0750
L21.1547 58.0750
" />
<path d="M22.1547 63.1550
L21.1547 63.1550
" />
<path d="M22.1547 68.2350
L21.1547 68.2350
" />
<path d="M22.1547 73.3150
L21.1547 73.3150
" />
<path d="M22.1547 76.9250
L22.1547 1.1600
" />
<path d="M22.7897 0.5250
L24.6947 0.5250
" />
<path d="M24.6947 0.5250
L24.6947 76.9250
" />
<path d="M24.6947 4.1350
L25.6947 4.1350
" />
<path d="M24.6947 9.2150
L25.6947 9.2150
" />
<path d="M24.6947 14.2950
L25.6947 14.2950
" />
<path d="M24.6947 19.3750
L25.6947 19.3750
" />
<path d="M24.6947 24.4550
L25.6947 24.4550
" />
<path d="M24.6947 29.5350
L25.6947 29.5350
" />
<path d="M24.6947 34.6150
L25.6947 34.6150
" />
<path d="M24.6947 39.6950
L25.6947 39.6950
" />
<path d="M24.6947 44.7750
L25.6947 44.7750
" />
<path d="M24.6947 49.8550
L25.6947 49.8550
" />
<path d="M24.6947 54.9350
L25.6947 54.9350
" />
<path d="M24.6947 60.0150
L25.6947 60.0150
" />
<path d="M24.6947 65.0950
L25.6947 65.0950
" />
<path d="M24.6947 70.1750
L25.6947 70.1750
" />
<path d="M24.6947 75.2550
L25.6947 75.2550
" />
<path d="M24.6947 76.9250
L22.1547 76.9250
" />
<path d="M25.6947 4.1350
L25.6947 4.7350
" />
<path d="M25.6947 4.7350
L24.6947 4.7350
" />
<path d="M25.6947 9.2150
L25.6947 9.8150
" />
<path d="M25.6947 9.8150
L24.6947 9.8150
" />
<path d="M25.6947 14.2950
L25.6947 14.8950
" />
<path d="M25.6947 14.8950
L24.6947 14.8950
" />
<path d="M25.6947 19.3750
L25.6947 19.9750
" />
<path d="M25.6947 19.9750
L24.6947 19.9750
" />
<path d="M25.6947 24.4550
L25.6947 25.0550
" />
<path d="M25.6947 25.0550
L24.6947 25.0550
" />
<path d="M25.6947 29.5350
L25.6947 30.1350
" />
<path d="M25.6947 30.1350
L24.6947 30.1350
" />
<path d="M25.6947 34.6150
L25.6947 35.2150
" />
<path d="M25.6947 35.2150
L24.6947 35.2150
" />
<path d="M25.6947 39.6950
L25.6947 40.2950
" />
<path d="M25.6947 40.2950
L24.6947 40.2950
" />
<path d="M25.6947 44.7750
L25.6947 45.3750
" />
<path d="M25.6947 45.3750
L24.6947 45.3750
" />
<path d="M25.6947 49.8550
L25.6947 50.4550
" />
<path d="M25.6947 50.4550
L24.6947 50.4550
" />
<path d="M25.6947 54.9350
L25.6947 55.5350
" />
<path d="M25.6947 55.5350
L24.6947 55.5350
" />
<path d="M25.6947 60.0150
L25.6947 60.6150
" />
<path d="M25.6947 60.6150
L24.6947 60.6150
" />
<path d="M25.6947 65.0950
L25.6947 65.6950
" />
<path d="M25.6947 65.6950
L24.6947 65.6950
" />
<path d="M25.6947 70.1750
L25.6947 70.7750
" />
<path d="M25.6947 70.7750
L24.6947 70.7750
" />
<path d="M25.6947 75.2550
L25.6947 75.8550
" />
<path d="M25.6947 75.8550
L24.6947 75.8550
" />
</g> 
</svg>
