<?xml version="1.0" standalone="no"?>
 <!DOCTYPE svg PUBLIC "-//W3C//DTD SVG 1.1//EN" 
 "http://www.w3.org/Graphics/SVG/1.1/DTD/svg11.dtd"> 
<svg
  xmlns:svg="http://www.w3.org/2000/svg"
  xmlns="http://www.w3.org/2000/svg"
  xmlns:xlink="http://www.w3.org/1999/xlink"
  version="1.1"
  width="36.9824mm" height="23.2156mm" viewBox="0.0000 0.0000 36.9824 23.2156">
<title>SVG Image created as working-brd.svg date 2024/04/12 09:55:21 </title>
  <desc>Image generated by PCBNEW </desc>
<g style="fill:#000000; fill-opacity:1.0000;stroke:#000000; stroke-opacity:1.0000;
stroke-linecap:round; stroke-linejoin:round;"
 transform="translate(0 0) scale(1 1)">
</g>
<g style="fill:#FFFFFF; fill-opacity:1.0000; stroke:none;">
<circle cx="18.4959" cy="11.7450" r="0.6000" /> 
</g>
<g style="fill:#FFFFFF; fill-opacity:1.0000; stroke:none;">
<circle cx="18.4959" cy="2.2250" r="0.6000" /> 
</g>
<g style="fill:#FFFFFF; fill-opacity:1.0000; stroke:none;">
<circle cx="14.6859" cy="2.2250" r="0.8000" /> 
</g>
<g style="fill:#FFFFFF; fill-opacity:1.0000; stroke:none;">
<circle cx="22.3059" cy="2.2250" r="0.8000" /> 
</g>
<g style="fill:#FFFFFF; fill-opacity:1.0000; stroke:none;">
<circle cx="18.4959" cy="6.0350" r="0.6000" /> 
</g>
<g style="fill:#02FFEE; fill-opacity:0.4000; stroke:none;">
<circle cx="18.4959" cy="11.7450" r="0.6000" /> 
</g>
<g style="fill:#02FFEE; fill-opacity:0.4000; stroke:none;">
<circle cx="18.4959" cy="2.2250" r="1.4500" /> 
</g>
<g style="fill:#02FFEE; fill-opacity:0.4000; stroke:none;">
<circle cx="14.6859" cy="2.2250" r="1.7000" /> 
</g>
<g style="fill:#02FFEE; fill-opacity:0.4000; stroke:none;">
<circle cx="22.3059" cy="2.2250" r="1.7000" /> 
</g>
<g style="fill:#02FFEE; fill-opacity:0.4000; stroke:none;">
<circle cx="18.4959" cy="6.0350" r="1.4500" /> 
</g>
<g style="fill:#FFFFFF; fill-opacity:1.0000; stroke:none;">
<circle cx="18.4959" cy="11.7450" r="0.6000" /> 
</g>
<g style="fill:#FFFFFF; fill-opacity:1.0000; stroke:none;">
<circle cx="18.4959" cy="2.2250" r="0.6000" /> 
</g>
<g style="fill:#FFFFFF; fill-opacity:1.0000; stroke:none;">
<circle cx="14.6859" cy="2.2250" r="0.8000" /> 
</g>
<g style="fill:#FFFFFF; fill-opacity:1.0000; stroke:none;">
<circle cx="22.3059" cy="2.2250" r="0.8000" /> 
</g>
<g style="fill:#FFFFFF; fill-opacity:1.0000; stroke:none;">
<circle cx="18.4959" cy="6.0350" r="0.6000" /> 
</g>
<g style="fill:#FFFFFF; fill-opacity:1.0000; stroke:none;">
<circle cx="18.4959" cy="11.7450" r="0.6000" /> 
</g>
<g style="fill:#FFFFFF; fill-opacity:1.0000; stroke:none;">
<circle cx="18.4959" cy="2.2250" r="0.6000" /> 
</g>
<g style="fill:#FFFFFF; fill-opacity:1.0000; stroke:none;">
<circle cx="14.6859" cy="2.2250" r="0.8000" /> 
</g>
<g style="fill:#FFFFFF; fill-opacity:1.0000; stroke:none;">
<circle cx="22.3059" cy="2.2250" r="0.8000" /> 
</g>
<g style="fill:#FFFFFF; fill-opacity:1.0000; stroke:none;">
<circle cx="18.4959" cy="6.0350" r="0.6000" /> 
</g>
<g style="fill:#D864FF; fill-opacity:0.4000; stroke:none;">
<circle cx="18.4959" cy="11.7450" r="0.6000" /> 
</g>
<g style="fill:#D864FF; fill-opacity:0.4000; stroke:none;">
<circle cx="18.4959" cy="2.2250" r="1.4500" /> 
</g>
<g style="fill:#D864FF; fill-opacity:0.4000; stroke:none;">
<circle cx="14.6859" cy="2.2250" r="1.7000" /> 
</g>
<g style="fill:#D864FF; fill-opacity:0.4000; stroke:none;">
<circle cx="22.3059" cy="2.2250" r="1.7000" /> 
</g>
<g style="fill:#D864FF; fill-opacity:0.4000; stroke:none;">
<circle cx="18.4959" cy="6.0350" r="1.4500" /> 
</g>
<g style="fill:none; 
stroke:#F2EDA1; stroke-width:0.1588; stroke-opacity:1; 
stroke-linecap:round; stroke-linejoin:round;">
<text x="18.4959" y="2.8600"
textLength="5.6651" font-size="1.6933" lengthAdjust="spacingAndGlyphs"
text-anchor="middle" opacity="0">REF**</text>
<g class="stroked-text"><desc>REF**</desc>
<path d="M16.8026 2.8043
L16.3792 2.1995
" />
<path d="M16.0768 2.8043
L16.0768 1.5343
" />
<path d="M16.0768 1.5343
L16.5606 1.5343
" />
<path d="M16.5606 1.5343
L16.6816 1.5947
" />
<path d="M16.6816 1.5947
L16.7421 1.6552
" />
<path d="M16.7421 1.6552
L16.8026 1.7762
" />
<path d="M16.8026 1.7762
L16.8026 1.9576
" />
<path d="M16.8026 1.9576
L16.7421 2.0786
" />
<path d="M16.7421 2.0786
L16.6816 2.1390
" />
<path d="M16.6816 2.1390
L16.5606 2.1995
" />
<path d="M16.5606 2.1995
L16.0768 2.1995
" />
<path d="M17.3468 2.1390
L17.7702 2.1390
" />
<path d="M17.9516 2.8043
L17.3468 2.8043
" />
<path d="M17.3468 2.8043
L17.3468 1.5343
" />
<path d="M17.3468 1.5343
L17.9516 1.5343
" />
<path d="M18.9192 2.1390
L18.4959 2.1390
" />
<path d="M18.4959 2.8043
L18.4959 1.5343
" />
<path d="M18.4959 1.5343
L19.1006 1.5343
" />
<path d="M19.7659 1.5343
L19.7659 1.8367
" />
<path d="M19.4635 1.7157
L19.7659 1.8367
" />
<path d="M19.7659 1.8367
L20.0683 1.7157
" />
<path d="M19.5845 2.0786
L19.7659 1.8367
" />
<path d="M19.7659 1.8367
L19.9473 2.0786
" />
<path d="M20.7335 1.5343
L20.7335 1.8367
" />
<path d="M20.4311 1.7157
L20.7335 1.8367
" />
<path d="M20.7335 1.8367
L21.0359 1.7157
" />
<path d="M20.5521 2.0786
L20.7335 1.8367
" />
<path d="M20.7335 1.8367
L20.9149 2.0786
" />
</g></g>
<g style="fill:none; 
stroke:#F2EDA1; stroke-width:0.1200; stroke-opacity:1; 
stroke-linecap:round; stroke-linejoin:round;">
<path d="M5.5759 14.8850
L9.2759 14.8850
" />
<path d="M5.5759 20.1250
L5.5759 14.8850
" />
<path d="M7.3759 20.1250
L5.5759 20.1250
" />
<path d="M7.3759 20.1250
L7.3759 22.8250
" />
<path d="M9.2759 14.8850
L9.2759 7.8850
" />
<path d="M11.7259 7.8850
L9.2759 7.8850
" />
<path d="M11.7259 7.8850
L11.7259 0.6850
" />
<path d="M13.4959 0.6850
L11.7259 0.6850
" />
<path d="M17.7959 0.6850
L15.8959 0.6850
" />
<path d="M17.7959 0.6850
L15.8959 0.6850
" />
<path d="M19.1959 0.6850
L21.0959 0.6850
" />
<path d="M19.1959 0.6850
L21.0959 0.6850
" />
<path d="M25.2659 0.6850
L23.4959 0.6850
" />
<path d="M25.2659 7.8850
L25.2659 0.6850
" />
<path d="M25.2659 7.8850
L27.7159 7.8850
" />
<path d="M27.7159 14.8850
L27.7159 7.8850
" />
<path d="M27.7159 14.8850
L31.4159 14.8850
" />
<path d="M29.6159 20.1250
L29.6159 22.8250
" />
<path d="M29.6159 22.8250
L7.3759 22.8250
" />
<path d="M31.4159 20.1250
L29.6159 20.1250
" />
<path d="M31.4159 20.1250
L31.4159 14.8850
" />
</g>
<g style="fill:#FFFFFF; fill-opacity:1.0000; stroke:none;">
<circle cx="18.4959" cy="11.7450" r="0.6000" /> 
</g>
<g style="fill:#FFFFFF; fill-opacity:1.0000; stroke:none;">
<circle cx="18.4959" cy="2.2250" r="0.6000" /> 
</g>
<g style="fill:#FFFFFF; fill-opacity:1.0000; stroke:none;">
<circle cx="14.6859" cy="2.2250" r="0.8000" /> 
</g>
<g style="fill:#FFFFFF; fill-opacity:1.0000; stroke:none;">
<circle cx="22.3059" cy="2.2250" r="0.8000" /> 
</g>
<g style="fill:#FFFFFF; fill-opacity:1.0000; stroke:none;">
<circle cx="18.4959" cy="6.0350" r="0.6000" /> 
</g>
<g style="fill:none; 
stroke:#FF26E2; stroke-width:0.0500; stroke-opacity:1; 
stroke-linecap:round; stroke-linejoin:round;">
<path d="M5.1959 23.2050
L5.1959 0.0250
" />
<path d="M31.7959 0.0250
L5.1959 0.0250
" />
<path d="M31.7959 23.2050
L5.1959 23.2050
" />
<path d="M31.7959 23.2050
L31.7959 0.0250
" />
</g>
<g style="fill:none; 
stroke:#AFAFAF; stroke-width:0.1588; stroke-opacity:1; 
stroke-linecap:round; stroke-linejoin:round;">
<text x="18.4959" y="2.8600"
textLength="36.9918" font-size="1.6933" lengthAdjust="spacingAndGlyphs"
text-anchor="middle" opacity="0">Jack_XLR_Neutrik_NC3MAHL_Horizontal</text>
<g class="stroked-text"><desc>Jack_XLR_Neutrik_NC3MAHL_Horizontal</desc>
<path d="M0.7764 1.5343
L0.7764 2.4414
" />
<path d="M0.7764 2.4414
L0.7159 2.6228
" />
<path d="M0.7159 2.6228
L0.5949 2.7438
" />
<path d="M0.5949 2.7438
L0.4135 2.8043
" />
<path d="M0.4135 2.8043
L0.2926 2.8043
" />
<path d="M1.9254 2.8043
L1.9254 2.1390
" />
<path d="M1.9254 2.1390
L1.8649 2.0181
" />
<path d="M1.8649 2.0181
L1.7440 1.9576
" />
<path d="M1.7440 1.9576
L1.5021 1.9576
" />
<path d="M1.5021 1.9576
L1.3811 2.0181
" />
<path d="M1.9254 2.7438
L1.8045 2.8043
" />
<path d="M1.8045 2.8043
L1.5021 2.8043
" />
<path d="M1.5021 2.8043
L1.3811 2.7438
" />
<path d="M1.3811 2.7438
L1.3206 2.6228
" />
<path d="M1.3206 2.6228
L1.3206 2.5019
" />
<path d="M1.3206 2.5019
L1.3811 2.3809
" />
<path d="M1.3811 2.3809
L1.5021 2.3205
" />
<path d="M1.5021 2.3205
L1.8045 2.3205
" />
<path d="M1.8045 2.3205
L1.9254 2.2600
" />
<path d="M3.0745 2.7438
L2.9535 2.8043
" />
<path d="M2.9535 2.8043
L2.7116 2.8043
" />
<path d="M2.7116 2.8043
L2.5906 2.7438
" />
<path d="M2.5906 2.7438
L2.5302 2.6833
" />
<path d="M2.5302 2.6833
L2.4697 2.5624
" />
<path d="M2.4697 2.5624
L2.4697 2.1995
" />
<path d="M2.4697 2.1995
L2.5302 2.0786
" />
<path d="M2.5302 2.0786
L2.5906 2.0181
" />
<path d="M2.5906 2.0181
L2.7116 1.9576
" />
<path d="M2.7116 1.9576
L2.9535 1.9576
" />
<path d="M2.9535 1.9576
L3.0745 2.0181
" />
<path d="M3.6187 2.8043
L3.6187 1.5343
" />
<path d="M3.7397 2.3205
L4.1026 2.8043
" />
<path d="M4.1026 1.9576
L3.6187 2.4414
" />
<path d="M4.3445 2.9252
L5.3121 2.9252
" />
<path d="M5.4935 1.5343
L6.3402 2.8043
" />
<path d="M6.3402 1.5343
L5.4935 2.8043
" />
<path d="M7.4287 2.8043
L6.8240 2.8043
" />
<path d="M6.8240 2.8043
L6.8240 1.5343
" />
<path d="M8.5778 2.8043
L8.1545 2.1995
" />
<path d="M7.8521 2.8043
L7.8521 1.5343
" />
<path d="M7.8521 1.5343
L8.3359 1.5343
" />
<path d="M8.3359 1.5343
L8.4568 1.5947
" />
<path d="M8.4568 1.5947
L8.5173 1.6552
" />
<path d="M8.5173 1.6552
L8.5778 1.7762
" />
<path d="M8.5778 1.7762
L8.5778 1.9576
" />
<path d="M8.5778 1.9576
L8.5173 2.0786
" />
<path d="M8.5173 2.0786
L8.4568 2.1390
" />
<path d="M8.4568 2.1390
L8.3359 2.1995
" />
<path d="M8.3359 2.1995
L7.8521 2.1995
" />
<path d="M8.8197 2.9252
L9.7873 2.9252
" />
<path d="M10.0897 2.8043
L10.0897 1.5343
" />
<path d="M10.0897 1.5343
L10.8154 2.8043
" />
<path d="M10.8154 2.8043
L10.8154 1.5343
" />
<path d="M11.9040 2.7438
L11.7830 2.8043
" />
<path d="M11.7830 2.8043
L11.5411 2.8043
" />
<path d="M11.5411 2.8043
L11.4202 2.7438
" />
<path d="M11.4202 2.7438
L11.3597 2.6228
" />
<path d="M11.3597 2.6228
L11.3597 2.1390
" />
<path d="M11.3597 2.1390
L11.4202 2.0181
" />
<path d="M11.4202 2.0181
L11.5411 1.9576
" />
<path d="M11.5411 1.9576
L11.7830 1.9576
" />
<path d="M11.7830 1.9576
L11.9040 2.0181
" />
<path d="M11.9040 2.0181
L11.9645 2.1390
" />
<path d="M11.9645 2.1390
L11.9645 2.2600
" />
<path d="M11.9645 2.2600
L11.3597 2.3809
" />
<path d="M13.0530 1.9576
L13.0530 2.8043
" />
<path d="M12.5087 1.9576
L12.5087 2.6228
" />
<path d="M12.5087 2.6228
L12.5692 2.7438
" />
<path d="M12.5692 2.7438
L12.6902 2.8043
" />
<path d="M12.6902 2.8043
L12.8716 2.8043
" />
<path d="M12.8716 2.8043
L12.9926 2.7438
" />
<path d="M12.9926 2.7438
L13.0530 2.6833
" />
<path d="M13.4764 1.9576
L13.9602 1.9576
" />
<path d="M13.6578 1.5343
L13.6578 2.6228
" />
<path d="M13.6578 2.6228
L13.7183 2.7438
" />
<path d="M13.7183 2.7438
L13.8392 2.8043
" />
<path d="M13.8392 2.8043
L13.9602 2.8043
" />
<path d="M14.3835 2.8043
L14.3835 1.9576
" />
<path d="M14.3835 2.1995
L14.4440 2.0786
" />
<path d="M14.4440 2.0786
L14.5045 2.0181
" />
<path d="M14.5045 2.0181
L14.6254 1.9576
" />
<path d="M14.6254 1.9576
L14.7464 1.9576
" />
<path d="M15.1697 2.8043
L15.1697 1.9576
" />
<path d="M15.1697 1.5343
L15.1092 1.5947
" />
<path d="M15.1092 1.5947
L15.1697 1.6552
" />
<path d="M15.1697 1.6552
L15.2302 1.5947
" />
<path d="M15.2302 1.5947
L15.1697 1.5343
" />
<path d="M15.1697 1.5343
L15.1697 1.6552
" />
<path d="M15.7745 2.8043
L15.7745 1.5343
" />
<path d="M15.8954 2.3205
L16.2583 2.8043
" />
<path d="M16.2583 1.9576
L15.7745 2.4414
" />
<path d="M16.5002 2.9252
L17.4678 2.9252
" />
<path d="M17.7702 2.8043
L17.7702 1.5343
" />
<path d="M17.7702 1.5343
L18.4959 2.8043
" />
<path d="M18.4959 2.8043
L18.4959 1.5343
" />
<path d="M19.8264 2.6833
L19.7659 2.7438
" />
<path d="M19.7659 2.7438
L19.5845 2.8043
" />
<path d="M19.5845 2.8043
L19.4635 2.8043
" />
<path d="M19.4635 2.8043
L19.2821 2.7438
" />
<path d="M19.2821 2.7438
L19.1611 2.6228
" />
<path d="M19.1611 2.6228
L19.1006 2.5019
" />
<path d="M19.1006 2.5019
L19.0402 2.2600
" />
<path d="M19.0402 2.2600
L19.0402 2.0786
" />
<path d="M19.0402 2.0786
L19.1006 1.8367
" />
<path d="M19.1006 1.8367
L19.1611 1.7157
" />
<path d="M19.1611 1.7157
L19.2821 1.5947
" />
<path d="M19.2821 1.5947
L19.4635 1.5343
" />
<path d="M19.4635 1.5343
L19.5845 1.5343
" />
<path d="M19.5845 1.5343
L19.7659 1.5947
" />
<path d="M19.7659 1.5947
L19.8264 1.6552
" />
<path d="M20.2497 1.5343
L21.0359 1.5343
" />
<path d="M21.0359 1.5343
L20.6126 2.0181
" />
<path d="M20.6126 2.0181
L20.7940 2.0181
" />
<path d="M20.7940 2.0181
L20.9149 2.0786
" />
<path d="M20.9149 2.0786
L20.9754 2.1390
" />
<path d="M20.9754 2.1390
L21.0359 2.2600
" />
<path d="M21.0359 2.2600
L21.0359 2.5624
" />
<path d="M21.0359 2.5624
L20.9754 2.6833
" />
<path d="M20.9754 2.6833
L20.9149 2.7438
" />
<path d="M20.9149 2.7438
L20.7940 2.8043
" />
<path d="M20.7940 2.8043
L20.4311 2.8043
" />
<path d="M20.4311 2.8043
L20.3102 2.7438
" />
<path d="M20.3102 2.7438
L20.2497 2.6833
" />
<path d="M21.5802 2.8043
L21.5802 1.5343
" />
<path d="M21.5802 1.5343
L22.0035 2.4414
" />
<path d="M22.0035 2.4414
L22.4268 1.5343
" />
<path d="M22.4268 1.5343
L22.4268 2.8043
" />
<path d="M22.9711 2.4414
L23.5759 2.4414
" />
<path d="M22.8502 2.8043
L23.2735 1.5343
" />
<path d="M23.2735 1.5343
L23.6968 2.8043
" />
<path d="M24.1202 2.8043
L24.1202 1.5343
" />
<path d="M24.1202 2.1390
L24.8459 2.1390
" />
<path d="M24.8459 2.8043
L24.8459 1.5343
" />
<path d="M26.0554 2.8043
L25.4506 2.8043
" />
<path d="M25.4506 2.8043
L25.4506 1.5343
" />
<path d="M26.1764 2.9252
L27.1440 2.9252
" />
<path d="M27.4464 2.8043
L27.4464 1.5343
" />
<path d="M27.4464 2.1390
L28.1721 2.1390
" />
<path d="M28.1721 2.8043
L28.1721 1.5343
" />
<path d="M28.9583 2.8043
L28.8373 2.7438
" />
<path d="M28.8373 2.7438
L28.7768 2.6833
" />
<path d="M28.7768 2.6833
L28.7164 2.5624
" />
<path d="M28.7164 2.5624
L28.7164 2.1995
" />
<path d="M28.7164 2.1995
L28.7768 2.0786
" />
<path d="M28.7768 2.0786
L28.8373 2.0181
" />
<path d="M28.8373 2.0181
L28.9583 1.9576
" />
<path d="M28.9583 1.9576
L29.1397 1.9576
" />
<path d="M29.1397 1.9576
L29.2606 2.0181
" />
<path d="M29.2606 2.0181
L29.3211 2.0786
" />
<path d="M29.3211 2.0786
L29.3816 2.1995
" />
<path d="M29.3816 2.1995
L29.3816 2.5624
" />
<path d="M29.3816 2.5624
L29.3211 2.6833
" />
<path d="M29.3211 2.6833
L29.2606 2.7438
" />
<path d="M29.2606 2.7438
L29.1397 2.8043
" />
<path d="M29.1397 2.8043
L28.9583 2.8043
" />
<path d="M29.9259 2.8043
L29.9259 1.9576
" />
<path d="M29.9259 2.1995
L29.9864 2.0786
" />
<path d="M29.9864 2.0786
L30.0468 2.0181
" />
<path d="M30.0468 2.0181
L30.1678 1.9576
" />
<path d="M30.1678 1.9576
L30.2887 1.9576
" />
<path d="M30.7121 2.8043
L30.7121 1.9576
" />
<path d="M30.7121 1.5343
L30.6516 1.5947
" />
<path d="M30.6516 1.5947
L30.7121 1.6552
" />
<path d="M30.7121 1.6552
L30.7726 1.5947
" />
<path d="M30.7726 1.5947
L30.7121 1.5343
" />
<path d="M30.7121 1.5343
L30.7121 1.6552
" />
<path d="M31.1959 1.9576
L31.8611 1.9576
" />
<path d="M31.8611 1.9576
L31.1959 2.8043
" />
<path d="M31.1959 2.8043
L31.8611 2.8043
" />
<path d="M32.5264 2.8043
L32.4054 2.7438
" />
<path d="M32.4054 2.7438
L32.3449 2.6833
" />
<path d="M32.3449 2.6833
L32.2845 2.5624
" />
<path d="M32.2845 2.5624
L32.2845 2.1995
" />
<path d="M32.2845 2.1995
L32.3449 2.0786
" />
<path d="M32.3449 2.0786
L32.4054 2.0181
" />
<path d="M32.4054 2.0181
L32.5264 1.9576
" />
<path d="M32.5264 1.9576
L32.7078 1.9576
" />
<path d="M32.7078 1.9576
L32.8287 2.0181
" />
<path d="M32.8287 2.0181
L32.8892 2.0786
" />
<path d="M32.8892 2.0786
L32.9497 2.1995
" />
<path d="M32.9497 2.1995
L32.9497 2.5624
" />
<path d="M32.9497 2.5624
L32.8892 2.6833
" />
<path d="M32.8892 2.6833
L32.8287 2.7438
" />
<path d="M32.8287 2.7438
L32.7078 2.8043
" />
<path d="M32.7078 2.8043
L32.5264 2.8043
" />
<path d="M33.4940 1.9576
L33.4940 2.8043
" />
<path d="M33.4940 2.0786
L33.5545 2.0181
" />
<path d="M33.5545 2.0181
L33.6754 1.9576
" />
<path d="M33.6754 1.9576
L33.8568 1.9576
" />
<path d="M33.8568 1.9576
L33.9778 2.0181
" />
<path d="M33.9778 2.0181
L34.0383 2.1390
" />
<path d="M34.0383 2.1390
L34.0383 2.8043
" />
<path d="M34.4616 1.9576
L34.9454 1.9576
" />
<path d="M34.6430 1.5343
L34.6430 2.6228
" />
<path d="M34.6430 2.6228
L34.7035 2.7438
" />
<path d="M34.7035 2.7438
L34.8245 2.8043
" />
<path d="M34.8245 2.8043
L34.9454 2.8043
" />
<path d="M35.9130 2.8043
L35.9130 2.1390
" />
<path d="M35.9130 2.1390
L35.8526 2.0181
" />
<path d="M35.8526 2.0181
L35.7316 1.9576
" />
<path d="M35.7316 1.9576
L35.4897 1.9576
" />
<path d="M35.4897 1.9576
L35.3687 2.0181
" />
<path d="M35.9130 2.7438
L35.7921 2.8043
" />
<path d="M35.7921 2.8043
L35.4897 2.8043
" />
<path d="M35.4897 2.8043
L35.3687 2.7438
" />
<path d="M35.3687 2.7438
L35.3083 2.6228
" />
<path d="M35.3083 2.6228
L35.3083 2.5019
" />
<path d="M35.3083 2.5019
L35.3687 2.3809
" />
<path d="M35.3687 2.3809
L35.4897 2.3205
" />
<path d="M35.4897 2.3205
L35.7921 2.3205
" />
<path d="M35.7921 2.3205
L35.9130 2.2600
" />
<path d="M36.6992 2.8043
L36.5783 2.7438
" />
<path d="M36.5783 2.7438
L36.5178 2.6228
" />
<path d="M36.5178 2.6228
L36.5178 1.5343
" />
</g></g>
<g style="fill:none; 
stroke:#AFAFAF; stroke-width:0.1500; stroke-opacity:1; 
stroke-linecap:round; stroke-linejoin:round;">
<text x="18.4959" y="18.1550"
textLength="4.5357" font-size="1.3333" lengthAdjust="spacingAndGlyphs"
text-anchor="middle" opacity="0">REF**</text>
<g class="stroked-text"><desc>REF**</desc>
<path d="M17.1626 18.1098
L16.8292 17.6336
" />
<path d="M16.5911 18.1098
L16.5911 17.1098
" />
<path d="M16.5911 17.1098
L16.9721 17.1098
" />
<path d="M16.9721 17.1098
L17.0673 17.1574
" />
<path d="M17.0673 17.1574
L17.1149 17.2051
" />
<path d="M17.1149 17.2051
L17.1626 17.3003
" />
<path d="M17.1626 17.3003
L17.1626 17.4432
" />
<path d="M17.1626 17.4432
L17.1149 17.5384
" />
<path d="M17.1149 17.5384
L17.0673 17.5860
" />
<path d="M17.0673 17.5860
L16.9721 17.6336
" />
<path d="M16.9721 17.6336
L16.5911 17.6336
" />
<path d="M17.5911 17.5860
L17.9245 17.5860
" />
<path d="M18.0673 18.1098
L17.5911 18.1098
" />
<path d="M17.5911 18.1098
L17.5911 17.1098
" />
<path d="M17.5911 17.1098
L18.0673 17.1098
" />
<path d="M18.8292 17.5860
L18.4959 17.5860
" />
<path d="M18.4959 18.1098
L18.4959 17.1098
" />
<path d="M18.4959 17.1098
L18.9721 17.1098
" />
<path d="M19.4959 17.1098
L19.4959 17.3479
" />
<path d="M19.2578 17.2527
L19.4959 17.3479
" />
<path d="M19.4959 17.3479
L19.7340 17.2527
" />
<path d="M19.3530 17.5384
L19.4959 17.3479
" />
<path d="M19.4959 17.3479
L19.6387 17.5384
" />
<path d="M20.2578 17.1098
L20.2578 17.3479
" />
<path d="M20.0197 17.2527
L20.2578 17.3479
" />
<path d="M20.2578 17.3479
L20.4959 17.2527
" />
<path d="M20.1149 17.5384
L20.2578 17.3479
" />
<path d="M20.2578 17.3479
L20.4006 17.5384
" />
</g></g>
<g style="fill:none; 
stroke:#AFAFAF; stroke-width:0.1000; stroke-opacity:1; 
stroke-linecap:round; stroke-linejoin:round;">
<path d="M5.6959 15.0050
L31.2959 15.0050
" />
<path d="M5.6959 20.0050
L5.6959 15.0050
" />
<path d="M7.4959 22.7050
L7.4959 20.0050
" />
<path d="M9.3959 8.0050
L9.3959 15.0050
" />
<path d="M9.3959 8.0050
L27.5959 8.0050
" />
<path d="M11.8459 8.0050
L11.8459 0.8050
" />
<path d="M25.1459 0.8050
L11.8459 0.8050
" />
<path d="M25.1459 8.0050
L25.1459 0.8050
" />
<path d="M27.5959 15.0050
L27.5959 8.0050
" />
<path d="M29.4959 20.0050
L29.4959 22.7050
" />
<path d="M29.4959 22.7050
L7.4959 22.7050
" />
<path d="M31.2959 15.0050
L31.2959 20.0050
" />
<path d="M31.2959 20.0050
L5.6959 20.0050
" />
</g>
<g style="fill:none; 
stroke:#D0D2CD; stroke-width:0.1000; stroke-opacity:1; 
stroke-linecap:round; stroke-linejoin:round;">
<path d="M5.7959 14.9250
L5.7959 20.0050
" />
<path d="M12.1459 14.9250
L5.7959 14.9250
" />
<path d="M12.1459 20.0050
L12.1459 14.9250
" />
<path d="M31.2959 20.0050
L5.6959 20.0050
" />
</g> 
</svg>
