<?xml version="1.0" standalone="no"?>
 <!DOCTYPE svg PUBLIC "-//W3C//DTD SVG 1.1//EN" 
 "http://www.w3.org/Graphics/SVG/1.1/DTD/svg11.dtd"> 
<svg
  xmlns:svg="http://www.w3.org/2000/svg"
  xmlns="http://www.w3.org/2000/svg"
  xmlns:xlink="http://www.w3.org/1999/xlink"
  version="1.1"
  width="56.9976mm" height="5.2324mm" viewBox="0.0000 0.0000 56.9976 5.2324">
<title>SVG Image created as working-brd.svg date 2024/04/20 22:49:14 </title>
  <desc>Image generated by PCBNEW </desc>
<g style="fill:#000000; fill-opacity:1.0000;stroke:#000000; stroke-opacity:1.0000;
stroke-linecap:round; stroke-linejoin:round;"
 transform="translate(0 0) scale(1 1)">
</g>
<g style="fill:#4D7FC4; fill-opacity:1.0000; stroke:none;">
<circle cx="27.5547" cy="1.6750" r="0.3000" /> 
</g>
<g style="fill:#4D7FC4; fill-opacity:1.0000; stroke:none;">
<circle cx="27.5547" cy="2.6250" r="0.3000" /> 
</g>
<g style="fill:#4D7FC4; fill-opacity:1.0000; stroke:none;">
<circle cx="27.5547" cy="3.5750" r="0.3000" /> 
</g>
<g style="fill:#4D7FC4; fill-opacity:1.0000; stroke:none;">
<circle cx="28.5047" cy="1.6750" r="0.3000" /> 
</g>
<g style="fill:#4D7FC4; fill-opacity:1.0000; stroke:none;">
<circle cx="28.5047" cy="2.6250" r="0.3000" /> 
<path style="fill:#4D7FC4; fill-opacity:1.0000; stroke:none;fill-rule:evenodd;"
d="M 27.2547,3.8750
27.2547,1.3750
29.7547,1.3750
29.7547,3.8750
Z" /> 
</g>
<g style="fill:#4D7FC4; fill-opacity:1.0000; stroke:none;">
<circle cx="28.5047" cy="3.5750" r="0.3000" /> 
</g>
<g style="fill:#4D7FC4; fill-opacity:1.0000; stroke:none;">
<circle cx="29.4547" cy="1.6750" r="0.3000" /> 
</g>
<g style="fill:#4D7FC4; fill-opacity:1.0000; stroke:none;">
<circle cx="29.4547" cy="2.6250" r="0.3000" /> 
</g>
<g style="fill:#4D7FC4; fill-opacity:1.0000; stroke:none;">
<circle cx="29.4547" cy="3.5750" r="0.3000" /> 
</g>
<g style="fill:#FFFFFF; fill-opacity:1.0000; stroke:none;">
<circle cx="27.5547" cy="1.6750" r="0.1500" /> 
</g>
<g style="fill:#FFFFFF; fill-opacity:1.0000; stroke:none;">
<circle cx="27.5547" cy="2.6250" r="0.1500" /> 
</g>
<g style="fill:#FFFFFF; fill-opacity:1.0000; stroke:none;">
<circle cx="27.5547" cy="3.5750" r="0.1500" /> 
</g>
<g style="fill:#FFFFFF; fill-opacity:1.0000; stroke:none;">
<circle cx="28.5047" cy="1.6750" r="0.1500" /> 
</g>
<g style="fill:#FFFFFF; fill-opacity:1.0000; stroke:none;">
<circle cx="28.5047" cy="2.6250" r="0.1500" /> 
</g>
<g style="fill:#FFFFFF; fill-opacity:1.0000; stroke:none;">
<circle cx="28.5047" cy="3.5750" r="0.1500" /> 
</g>
<g style="fill:#FFFFFF; fill-opacity:1.0000; stroke:none;">
<circle cx="29.4547" cy="1.6750" r="0.1500" /> 
</g>
<g style="fill:#FFFFFF; fill-opacity:1.0000; stroke:none;">
<circle cx="29.4547" cy="2.6250" r="0.1500" /> 
</g>
<g style="fill:#FFFFFF; fill-opacity:1.0000; stroke:none;">
<circle cx="29.4547" cy="3.5750" r="0.1500" /> 
</g>
<g style="fill:#FFFFFF; fill-opacity:1.0000; stroke:none;">
<circle cx="27.5547" cy="1.6750" r="0.1500" /> 
</g>
<g style="fill:#FFFFFF; fill-opacity:1.0000; stroke:none;">
<circle cx="27.5547" cy="2.6250" r="0.1500" /> 
</g>
<g style="fill:#FFFFFF; fill-opacity:1.0000; stroke:none;">
<circle cx="27.5547" cy="3.5750" r="0.1500" /> 
</g>
<g style="fill:#FFFFFF; fill-opacity:1.0000; stroke:none;">
<circle cx="28.5047" cy="1.6750" r="0.1500" /> 
</g>
<g style="fill:#FFFFFF; fill-opacity:1.0000; stroke:none;">
<circle cx="28.5047" cy="2.6250" r="0.1500" /> 
</g>
<g style="fill:#FFFFFF; fill-opacity:1.0000; stroke:none;">
<circle cx="28.5047" cy="3.5750" r="0.1500" /> 
</g>
<g style="fill:#FFFFFF; fill-opacity:1.0000; stroke:none;">
<circle cx="29.4547" cy="1.6750" r="0.1500" /> 
</g>
<g style="fill:#FFFFFF; fill-opacity:1.0000; stroke:none;">
<circle cx="29.4547" cy="2.6250" r="0.1500" /> 
</g>
<g style="fill:#FFFFFF; fill-opacity:1.0000; stroke:none;">
<circle cx="29.4547" cy="3.5750" r="0.1500" /> 
<path style="fill:#C83434; fill-opacity:1.0000; stroke:none;fill-rule:evenodd;"
d="M 26.1547,1.5750
26.1604,1.5463
26.1767,1.5220
26.2010,1.5057
26.2297,1.5000
26.9047,1.5000
26.9334,1.5057
26.9577,1.5220
26.9740,1.5463
26.9797,1.5750
26.9797,1.7250
26.9740,1.7537
26.9577,1.7780
26.9334,1.7943
26.9047,1.8000
26.2297,1.8000
26.2010,1.7943
26.1767,1.7780
26.1604,1.7537
26.1547,1.7250
Z" /> 
<path style="fill:#C83434; fill-opacity:1.0000; stroke:none;fill-rule:evenodd;"
d="M 26.1547,2.2250
26.1604,2.1963
26.1767,2.1720
26.2010,2.1557
26.2297,2.1500
26.9047,2.1500
26.9334,2.1557
26.9577,2.1720
26.9740,2.1963
26.9797,2.2250
26.9797,2.3750
26.9740,2.4037
26.9577,2.4280
26.9334,2.4443
26.9047,2.4500
26.2297,2.4500
26.2010,2.4443
26.1767,2.4280
26.1604,2.4037
26.1547,2.3750
Z" /> 
<path style="fill:#C83434; fill-opacity:1.0000; stroke:none;fill-rule:evenodd;"
d="M 26.1547,2.8750
26.1604,2.8463
26.1767,2.8220
26.2010,2.8057
26.2297,2.8000
26.9047,2.8000
26.9334,2.8057
26.9577,2.8220
26.9740,2.8463
26.9797,2.8750
26.9797,3.0250
26.9740,3.0537
26.9577,3.0780
26.9334,3.0943
26.9047,3.1000
26.2297,3.1000
26.2010,3.0943
26.1767,3.0780
26.1604,3.0537
26.1547,3.0250
Z" /> 
<path style="fill:#C83434; fill-opacity:1.0000; stroke:none;fill-rule:evenodd;"
d="M 26.1547,3.5250
26.1604,3.4963
26.1767,3.4720
26.2010,3.4557
26.2297,3.4500
26.9047,3.4500
26.9334,3.4557
26.9577,3.4720
26.9740,3.4963
26.9797,3.5250
26.9797,3.6750
26.9740,3.7037
26.9577,3.7280
26.9334,3.7443
26.9047,3.7500
26.2297,3.7500
26.2010,3.7443
26.1767,3.7280
26.1604,3.7037
26.1547,3.6750
Z" /> 
<path style="fill:#C83434; fill-opacity:1.0000; stroke:none;fill-rule:evenodd;"
d="M 27.3797,4.2250
27.3854,4.1963
27.4017,4.1720
27.4260,4.1557
27.4547,4.1500
27.6047,4.1500
27.6334,4.1557
27.6577,4.1720
27.6740,4.1963
27.6797,4.2250
27.6797,4.9000
27.6740,4.9287
27.6577,4.9530
27.6334,4.9693
27.6047,4.9750
27.4547,4.9750
27.4260,4.9693
27.4017,4.9530
27.3854,4.9287
27.3797,4.9000
Z" /> 
<path style="fill:#C83434; fill-opacity:1.0000; stroke:none;fill-rule:evenodd;"
d="M 28.0297,4.2250
28.0354,4.1963
28.0517,4.1720
28.0760,4.1557
28.1047,4.1500
28.2547,4.1500
28.2834,4.1557
28.3077,4.1720
28.3240,4.1963
28.3297,4.2250
28.3297,4.9000
28.3240,4.9287
28.3077,4.9530
28.2834,4.9693
28.2547,4.9750
28.1047,4.9750
28.0760,4.9693
28.0517,4.9530
28.0354,4.9287
28.0297,4.9000
Z" /> 
<path style="fill:#C83434; fill-opacity:1.0000; stroke:none;fill-rule:evenodd;"
d="M 28.6797,4.2250
28.6854,4.1963
28.7017,4.1720
28.7260,4.1557
28.7547,4.1500
28.9047,4.1500
28.9334,4.1557
28.9577,4.1720
28.9740,4.1963
28.9797,4.2250
28.9797,4.9000
28.9740,4.9287
28.9577,4.9530
28.9334,4.9693
28.9047,4.9750
28.7547,4.9750
28.7260,4.9693
28.7017,4.9530
28.6854,4.9287
28.6797,4.9000
Z" /> 
<path style="fill:#C83434; fill-opacity:1.0000; stroke:none;fill-rule:evenodd;"
d="M 29.3297,4.2250
29.3354,4.1963
29.3517,4.1720
29.3760,4.1557
29.4047,4.1500
29.5547,4.1500
29.5834,4.1557
29.6077,4.1720
29.6240,4.1963
29.6297,4.2250
29.6297,4.9000
29.6240,4.9287
29.6077,4.9530
29.5834,4.9693
29.5547,4.9750
29.4047,4.9750
29.3760,4.9693
29.3517,4.9530
29.3354,4.9287
29.3297,4.9000
Z" /> 
<path style="fill:#C83434; fill-opacity:1.0000; stroke:none;fill-rule:evenodd;"
d="M 30.0297,3.5250
30.0354,3.4963
30.0517,3.4720
30.0760,3.4557
30.1047,3.4500
30.7797,3.4500
30.8084,3.4557
30.8327,3.4720
30.8490,3.4963
30.8547,3.5250
30.8547,3.6750
30.8490,3.7037
30.8327,3.7280
30.8084,3.7443
30.7797,3.7500
30.1047,3.7500
30.0760,3.7443
30.0517,3.7280
30.0354,3.7037
30.0297,3.6750
Z" /> 
<path style="fill:#C83434; fill-opacity:1.0000; stroke:none;fill-rule:evenodd;"
d="M 30.0297,2.8750
30.0354,2.8463
30.0517,2.8220
30.0760,2.8057
30.1047,2.8000
30.7797,2.8000
30.8084,2.8057
30.8327,2.8220
30.8490,2.8463
30.8547,2.8750
30.8547,3.0250
30.8490,3.0537
30.8327,3.0780
30.8084,3.0943
30.7797,3.1000
30.1047,3.1000
30.0760,3.0943
30.0517,3.0780
30.0354,3.0537
30.0297,3.0250
Z" /> 
<path style="fill:#C83434; fill-opacity:1.0000; stroke:none;fill-rule:evenodd;"
d="M 30.0297,2.2250
30.0354,2.1963
30.0517,2.1720
30.0760,2.1557
30.1047,2.1500
30.7797,2.1500
30.8084,2.1557
30.8327,2.1720
30.8490,2.1963
30.8547,2.2250
30.8547,2.3750
30.8490,2.4037
30.8327,2.4280
30.8084,2.4443
30.7797,2.4500
30.1047,2.4500
30.0760,2.4443
30.0517,2.4280
30.0354,2.4037
30.0297,2.3750
Z" /> 
<path style="fill:#C83434; fill-opacity:1.0000; stroke:none;fill-rule:evenodd;"
d="M 30.0297,1.5750
30.0354,1.5463
30.0517,1.5220
30.0760,1.5057
30.1047,1.5000
30.7797,1.5000
30.8084,1.5057
30.8327,1.5220
30.8490,1.5463
30.8547,1.5750
30.8547,1.7250
30.8490,1.7537
30.8327,1.7780
30.8084,1.7943
30.7797,1.8000
30.1047,1.8000
30.0760,1.7943
30.0517,1.7780
30.0354,1.7537
30.0297,1.7250
Z" /> 
<path style="fill:#C83434; fill-opacity:1.0000; stroke:none;fill-rule:evenodd;"
d="M 29.3297,0.3500
29.3354,0.3213
29.3517,0.2970
29.3760,0.2807
29.4047,0.2750
29.5547,0.2750
29.5834,0.2807
29.6077,0.2970
29.6240,0.3213
29.6297,0.3500
29.6297,1.0250
29.6240,1.0537
29.6077,1.0780
29.5834,1.0943
29.5547,1.1000
29.4047,1.1000
29.3760,1.0943
29.3517,1.0780
29.3354,1.0537
29.3297,1.0250
Z" /> 
<path style="fill:#C83434; fill-opacity:1.0000; stroke:none;fill-rule:evenodd;"
d="M 28.6797,0.3500
28.6854,0.3213
28.7017,0.2970
28.7260,0.2807
28.7547,0.2750
28.9047,0.2750
28.9334,0.2807
28.9577,0.2970
28.9740,0.3213
28.9797,0.3500
28.9797,1.0250
28.9740,1.0537
28.9577,1.0780
28.9334,1.0943
28.9047,1.1000
28.7547,1.1000
28.7260,1.0943
28.7017,1.0780
28.6854,1.0537
28.6797,1.0250
Z" /> 
<path style="fill:#C83434; fill-opacity:1.0000; stroke:none;fill-rule:evenodd;"
d="M 28.0297,0.3500
28.0354,0.3213
28.0517,0.2970
28.0760,0.2807
28.1047,0.2750
28.2547,0.2750
28.2834,0.2807
28.3077,0.2970
28.3240,0.3213
28.3297,0.3500
28.3297,1.0250
28.3240,1.0537
28.3077,1.0780
28.2834,1.0943
28.2547,1.1000
28.1047,1.1000
28.0760,1.0943
28.0517,1.0780
28.0354,1.0537
28.0297,1.0250
Z" /> 
<path style="fill:#C83434; fill-opacity:1.0000; stroke:none;fill-rule:evenodd;"
d="M 27.3797,0.3500
27.3854,0.3213
27.4017,0.2970
27.4260,0.2807
27.4547,0.2750
27.6047,0.2750
27.6334,0.2807
27.6577,0.2970
27.6740,0.3213
27.6797,0.3500
27.6797,1.0250
27.6740,1.0537
27.6577,1.0780
27.6334,1.0943
27.6047,1.1000
27.4547,1.1000
27.4260,1.0943
27.4017,1.0780
27.3854,1.0537
27.3797,1.0250
Z" /> 
</g>
<g style="fill:#C83434; fill-opacity:1.0000; stroke:none;">
<circle cx="27.5547" cy="1.6750" r="0.3000" /> 
</g>
<g style="fill:#C83434; fill-opacity:1.0000; stroke:none;">
<circle cx="27.5547" cy="2.6250" r="0.3000" /> 
</g>
<g style="fill:#C83434; fill-opacity:1.0000; stroke:none;">
<circle cx="27.5547" cy="3.5750" r="0.3000" /> 
</g>
<g style="fill:#C83434; fill-opacity:1.0000; stroke:none;">
<circle cx="28.5047" cy="1.6750" r="0.3000" /> 
</g>
<g style="fill:#C83434; fill-opacity:1.0000; stroke:none;">
<circle cx="28.5047" cy="2.6250" r="0.3000" /> 
<path style="fill:#C83434; fill-opacity:1.0000; stroke:none;fill-rule:evenodd;"
d="M 27.2547,3.8750
27.2547,1.3750
29.7547,1.3750
29.7547,3.8750
Z" /> 
</g>
<g style="fill:#C83434; fill-opacity:1.0000; stroke:none;">
<circle cx="28.5047" cy="3.5750" r="0.3000" /> 
</g>
<g style="fill:#C83434; fill-opacity:1.0000; stroke:none;">
<circle cx="29.4547" cy="1.6750" r="0.3000" /> 
</g>
<g style="fill:#C83434; fill-opacity:1.0000; stroke:none;">
<circle cx="29.4547" cy="2.6250" r="0.3000" /> 
</g>
<g style="fill:#C83434; fill-opacity:1.0000; stroke:none;">
<circle cx="29.4547" cy="3.5750" r="0.3000" /> 
</g>
<g style="fill:#FFFFFF; fill-opacity:1.0000; stroke:none;">
<circle cx="27.5547" cy="1.6750" r="0.1500" /> 
</g>
<g style="fill:#FFFFFF; fill-opacity:1.0000; stroke:none;">
<circle cx="27.5547" cy="2.6250" r="0.1500" /> 
</g>
<g style="fill:#FFFFFF; fill-opacity:1.0000; stroke:none;">
<circle cx="27.5547" cy="3.5750" r="0.1500" /> 
</g>
<g style="fill:#FFFFFF; fill-opacity:1.0000; stroke:none;">
<circle cx="28.5047" cy="1.6750" r="0.1500" /> 
</g>
<g style="fill:#FFFFFF; fill-opacity:1.0000; stroke:none;">
<circle cx="28.5047" cy="2.6250" r="0.1500" /> 
</g>
<g style="fill:#FFFFFF; fill-opacity:1.0000; stroke:none;">
<circle cx="28.5047" cy="3.5750" r="0.1500" /> 
</g>
<g style="fill:#FFFFFF; fill-opacity:1.0000; stroke:none;">
<circle cx="29.4547" cy="1.6750" r="0.1500" /> 
</g>
<g style="fill:#FFFFFF; fill-opacity:1.0000; stroke:none;">
<circle cx="29.4547" cy="2.6250" r="0.1500" /> 
</g>
<g style="fill:#FFFFFF; fill-opacity:1.0000; stroke:none;">
<circle cx="29.4547" cy="3.5750" r="0.1500" /> 
<path style="fill:#D864FF; fill-opacity:0.4000; stroke:none;fill-rule:evenodd;"
d="M 26.1547,1.5750
26.1604,1.5463
26.1767,1.5220
26.2010,1.5057
26.2297,1.5000
26.9047,1.5000
26.9334,1.5057
26.9577,1.5220
26.9740,1.5463
26.9797,1.5750
26.9797,1.7250
26.9740,1.7537
26.9577,1.7780
26.9334,1.7943
26.9047,1.8000
26.2297,1.8000
26.2010,1.7943
26.1767,1.7780
26.1604,1.7537
26.1547,1.7250
Z" /> 
<path style="fill:#D864FF; fill-opacity:0.4000; stroke:none;fill-rule:evenodd;"
d="M 26.1547,2.2250
26.1604,2.1963
26.1767,2.1720
26.2010,2.1557
26.2297,2.1500
26.9047,2.1500
26.9334,2.1557
26.9577,2.1720
26.9740,2.1963
26.9797,2.2250
26.9797,2.3750
26.9740,2.4037
26.9577,2.4280
26.9334,2.4443
26.9047,2.4500
26.2297,2.4500
26.2010,2.4443
26.1767,2.4280
26.1604,2.4037
26.1547,2.3750
Z" /> 
<path style="fill:#D864FF; fill-opacity:0.4000; stroke:none;fill-rule:evenodd;"
d="M 26.1547,2.8750
26.1604,2.8463
26.1767,2.8220
26.2010,2.8057
26.2297,2.8000
26.9047,2.8000
26.9334,2.8057
26.9577,2.8220
26.9740,2.8463
26.9797,2.8750
26.9797,3.0250
26.9740,3.0537
26.9577,3.0780
26.9334,3.0943
26.9047,3.1000
26.2297,3.1000
26.2010,3.0943
26.1767,3.0780
26.1604,3.0537
26.1547,3.0250
Z" /> 
<path style="fill:#D864FF; fill-opacity:0.4000; stroke:none;fill-rule:evenodd;"
d="M 26.1547,3.5250
26.1604,3.4963
26.1767,3.4720
26.2010,3.4557
26.2297,3.4500
26.9047,3.4500
26.9334,3.4557
26.9577,3.4720
26.9740,3.4963
26.9797,3.5250
26.9797,3.6750
26.9740,3.7037
26.9577,3.7280
26.9334,3.7443
26.9047,3.7500
26.2297,3.7500
26.2010,3.7443
26.1767,3.7280
26.1604,3.7037
26.1547,3.6750
Z" /> 
<path style="fill:#D864FF; fill-opacity:0.4000; stroke:none;fill-rule:evenodd;"
d="M 27.3797,4.2250
27.3854,4.1963
27.4017,4.1720
27.4260,4.1557
27.4547,4.1500
27.6047,4.1500
27.6334,4.1557
27.6577,4.1720
27.6740,4.1963
27.6797,4.2250
27.6797,4.9000
27.6740,4.9287
27.6577,4.9530
27.6334,4.9693
27.6047,4.9750
27.4547,4.9750
27.4260,4.9693
27.4017,4.9530
27.3854,4.9287
27.3797,4.9000
Z" /> 
<path style="fill:#D864FF; fill-opacity:0.4000; stroke:none;fill-rule:evenodd;"
d="M 28.0297,4.2250
28.0354,4.1963
28.0517,4.1720
28.0760,4.1557
28.1047,4.1500
28.2547,4.1500
28.2834,4.1557
28.3077,4.1720
28.3240,4.1963
28.3297,4.2250
28.3297,4.9000
28.3240,4.9287
28.3077,4.9530
28.2834,4.9693
28.2547,4.9750
28.1047,4.9750
28.0760,4.9693
28.0517,4.9530
28.0354,4.9287
28.0297,4.9000
Z" /> 
<path style="fill:#D864FF; fill-opacity:0.4000; stroke:none;fill-rule:evenodd;"
d="M 28.6797,4.2250
28.6854,4.1963
28.7017,4.1720
28.7260,4.1557
28.7547,4.1500
28.9047,4.1500
28.9334,4.1557
28.9577,4.1720
28.9740,4.1963
28.9797,4.2250
28.9797,4.9000
28.9740,4.9287
28.9577,4.9530
28.9334,4.9693
28.9047,4.9750
28.7547,4.9750
28.7260,4.9693
28.7017,4.9530
28.6854,4.9287
28.6797,4.9000
Z" /> 
<path style="fill:#D864FF; fill-opacity:0.4000; stroke:none;fill-rule:evenodd;"
d="M 29.3297,4.2250
29.3354,4.1963
29.3517,4.1720
29.3760,4.1557
29.4047,4.1500
29.5547,4.1500
29.5834,4.1557
29.6077,4.1720
29.6240,4.1963
29.6297,4.2250
29.6297,4.9000
29.6240,4.9287
29.6077,4.9530
29.5834,4.9693
29.5547,4.9750
29.4047,4.9750
29.3760,4.9693
29.3517,4.9530
29.3354,4.9287
29.3297,4.9000
Z" /> 
<path style="fill:#D864FF; fill-opacity:0.4000; stroke:none;fill-rule:evenodd;"
d="M 30.0297,3.5250
30.0354,3.4963
30.0517,3.4720
30.0760,3.4557
30.1047,3.4500
30.7797,3.4500
30.8084,3.4557
30.8327,3.4720
30.8490,3.4963
30.8547,3.5250
30.8547,3.6750
30.8490,3.7037
30.8327,3.7280
30.8084,3.7443
30.7797,3.7500
30.1047,3.7500
30.0760,3.7443
30.0517,3.7280
30.0354,3.7037
30.0297,3.6750
Z" /> 
<path style="fill:#D864FF; fill-opacity:0.4000; stroke:none;fill-rule:evenodd;"
d="M 30.0297,2.8750
30.0354,2.8463
30.0517,2.8220
30.0760,2.8057
30.1047,2.8000
30.7797,2.8000
30.8084,2.8057
30.8327,2.8220
30.8490,2.8463
30.8547,2.8750
30.8547,3.0250
30.8490,3.0537
30.8327,3.0780
30.8084,3.0943
30.7797,3.1000
30.1047,3.1000
30.0760,3.0943
30.0517,3.0780
30.0354,3.0537
30.0297,3.0250
Z" /> 
<path style="fill:#D864FF; fill-opacity:0.4000; stroke:none;fill-rule:evenodd;"
d="M 30.0297,2.2250
30.0354,2.1963
30.0517,2.1720
30.0760,2.1557
30.1047,2.1500
30.7797,2.1500
30.8084,2.1557
30.8327,2.1720
30.8490,2.1963
30.8547,2.2250
30.8547,2.3750
30.8490,2.4037
30.8327,2.4280
30.8084,2.4443
30.7797,2.4500
30.1047,2.4500
30.0760,2.4443
30.0517,2.4280
30.0354,2.4037
30.0297,2.3750
Z" /> 
<path style="fill:#D864FF; fill-opacity:0.4000; stroke:none;fill-rule:evenodd;"
d="M 30.0297,1.5750
30.0354,1.5463
30.0517,1.5220
30.0760,1.5057
30.1047,1.5000
30.7797,1.5000
30.8084,1.5057
30.8327,1.5220
30.8490,1.5463
30.8547,1.5750
30.8547,1.7250
30.8490,1.7537
30.8327,1.7780
30.8084,1.7943
30.7797,1.8000
30.1047,1.8000
30.0760,1.7943
30.0517,1.7780
30.0354,1.7537
30.0297,1.7250
Z" /> 
<path style="fill:#D864FF; fill-opacity:0.4000; stroke:none;fill-rule:evenodd;"
d="M 29.3297,0.3500
29.3354,0.3213
29.3517,0.2970
29.3760,0.2807
29.4047,0.2750
29.5547,0.2750
29.5834,0.2807
29.6077,0.2970
29.6240,0.3213
29.6297,0.3500
29.6297,1.0250
29.6240,1.0537
29.6077,1.0780
29.5834,1.0943
29.5547,1.1000
29.4047,1.1000
29.3760,1.0943
29.3517,1.0780
29.3354,1.0537
29.3297,1.0250
Z" /> 
<path style="fill:#D864FF; fill-opacity:0.4000; stroke:none;fill-rule:evenodd;"
d="M 28.6797,0.3500
28.6854,0.3213
28.7017,0.2970
28.7260,0.2807
28.7547,0.2750
28.9047,0.2750
28.9334,0.2807
28.9577,0.2970
28.9740,0.3213
28.9797,0.3500
28.9797,1.0250
28.9740,1.0537
28.9577,1.0780
28.9334,1.0943
28.9047,1.1000
28.7547,1.1000
28.7260,1.0943
28.7017,1.0780
28.6854,1.0537
28.6797,1.0250
Z" /> 
<path style="fill:#D864FF; fill-opacity:0.4000; stroke:none;fill-rule:evenodd;"
d="M 28.0297,0.3500
28.0354,0.3213
28.0517,0.2970
28.0760,0.2807
28.1047,0.2750
28.2547,0.2750
28.2834,0.2807
28.3077,0.2970
28.3240,0.3213
28.3297,0.3500
28.3297,1.0250
28.3240,1.0537
28.3077,1.0780
28.2834,1.0943
28.2547,1.1000
28.1047,1.1000
28.0760,1.0943
28.0517,1.0780
28.0354,1.0537
28.0297,1.0250
Z" /> 
<path style="fill:#D864FF; fill-opacity:0.4000; stroke:none;fill-rule:evenodd;"
d="M 27.3797,0.3500
27.3854,0.3213
27.4017,0.2970
27.4260,0.2807
27.4547,0.2750
27.6047,0.2750
27.6334,0.2807
27.6577,0.2970
27.6740,0.3213
27.6797,0.3500
27.6797,1.0250
27.6740,1.0537
27.6577,1.0780
27.6334,1.0943
27.6047,1.1000
27.4547,1.1000
27.4260,1.0943
27.4017,1.0780
27.3854,1.0537
27.3797,1.0250
Z" /> 
<path style="fill:#D864FF; fill-opacity:0.4000; stroke:none;fill-rule:evenodd;"
d="M 27.2547,3.8750
27.2547,1.3750
29.7547,1.3750
29.7547,3.8750
Z" /> 
<path style="fill:#B4A09A; fill-opacity:0.9000; stroke:none;fill-rule:evenodd;"
d="M 27.3397,1.7100
27.3587,1.6143
27.4129,1.5332
27.4940,1.4790
27.5897,1.4600
28.1697,1.4600
28.2654,1.4790
28.3465,1.5332
28.4007,1.6143
28.4197,1.7100
28.4197,2.2900
28.4007,2.3857
28.3465,2.4668
28.2654,2.5210
28.1697,2.5400
27.5897,2.5400
27.4940,2.5210
27.4129,2.4668
27.3587,2.3857
27.3397,2.2900
Z" /> 
<path style="fill:#B4A09A; fill-opacity:0.9000; stroke:none;fill-rule:evenodd;"
d="M 27.3397,2.9600
27.3587,2.8643
27.4129,2.7832
27.4940,2.7290
27.5897,2.7100
28.1697,2.7100
28.2654,2.7290
28.3465,2.7832
28.4007,2.8643
28.4197,2.9600
28.4197,3.5400
28.4007,3.6357
28.3465,3.7168
28.2654,3.7710
28.1697,3.7900
27.5897,3.7900
27.4940,3.7710
27.4129,3.7168
27.3587,3.6357
27.3397,3.5400
Z" /> 
<path style="fill:#B4A09A; fill-opacity:0.9000; stroke:none;fill-rule:evenodd;"
d="M 28.5897,1.7100
28.6087,1.6143
28.6629,1.5332
28.7440,1.4790
28.8397,1.4600
29.4197,1.4600
29.5154,1.4790
29.5965,1.5332
29.6507,1.6143
29.6697,1.7100
29.6697,2.2900
29.6507,2.3857
29.5965,2.4668
29.5154,2.5210
29.4197,2.5400
28.8397,2.5400
28.7440,2.5210
28.6629,2.4668
28.6087,2.3857
28.5897,2.2900
Z" /> 
<path style="fill:#B4A09A; fill-opacity:0.9000; stroke:none;fill-rule:evenodd;"
d="M 28.5897,2.9600
28.6087,2.8643
28.6629,2.7832
28.7440,2.7290
28.8397,2.7100
29.4197,2.7100
29.5154,2.7290
29.5965,2.7832
29.6507,2.8643
29.6697,2.9600
29.6697,3.5400
29.6507,3.6357
29.5965,3.7168
29.5154,3.7710
29.4197,3.7900
28.8397,3.7900
28.7440,3.7710
28.6629,3.7168
28.6087,3.6357
28.5897,3.5400
Z" /> 
<path style="fill:#B4A09A; fill-opacity:0.9000; stroke:none;fill-rule:evenodd;"
d="M 26.1547,1.5750
26.1604,1.5463
26.1767,1.5220
26.2010,1.5057
26.2297,1.5000
26.9047,1.5000
26.9334,1.5057
26.9577,1.5220
26.9740,1.5463
26.9797,1.5750
26.9797,1.7250
26.9740,1.7537
26.9577,1.7780
26.9334,1.7943
26.9047,1.8000
26.2297,1.8000
26.2010,1.7943
26.1767,1.7780
26.1604,1.7537
26.1547,1.7250
Z" /> 
<path style="fill:#B4A09A; fill-opacity:0.9000; stroke:none;fill-rule:evenodd;"
d="M 26.1547,2.2250
26.1604,2.1963
26.1767,2.1720
26.2010,2.1557
26.2297,2.1500
26.9047,2.1500
26.9334,2.1557
26.9577,2.1720
26.9740,2.1963
26.9797,2.2250
26.9797,2.3750
26.9740,2.4037
26.9577,2.4280
26.9334,2.4443
26.9047,2.4500
26.2297,2.4500
26.2010,2.4443
26.1767,2.4280
26.1604,2.4037
26.1547,2.3750
Z" /> 
<path style="fill:#B4A09A; fill-opacity:0.9000; stroke:none;fill-rule:evenodd;"
d="M 26.1547,2.8750
26.1604,2.8463
26.1767,2.8220
26.2010,2.8057
26.2297,2.8000
26.9047,2.8000
26.9334,2.8057
26.9577,2.8220
26.9740,2.8463
26.9797,2.8750
26.9797,3.0250
26.9740,3.0537
26.9577,3.0780
26.9334,3.0943
26.9047,3.1000
26.2297,3.1000
26.2010,3.0943
26.1767,3.0780
26.1604,3.0537
26.1547,3.0250
Z" /> 
<path style="fill:#B4A09A; fill-opacity:0.9000; stroke:none;fill-rule:evenodd;"
d="M 26.1547,3.5250
26.1604,3.4963
26.1767,3.4720
26.2010,3.4557
26.2297,3.4500
26.9047,3.4500
26.9334,3.4557
26.9577,3.4720
26.9740,3.4963
26.9797,3.5250
26.9797,3.6750
26.9740,3.7037
26.9577,3.7280
26.9334,3.7443
26.9047,3.7500
26.2297,3.7500
26.2010,3.7443
26.1767,3.7280
26.1604,3.7037
26.1547,3.6750
Z" /> 
<path style="fill:#B4A09A; fill-opacity:0.9000; stroke:none;fill-rule:evenodd;"
d="M 27.3797,4.2250
27.3854,4.1963
27.4017,4.1720
27.4260,4.1557
27.4547,4.1500
27.6047,4.1500
27.6334,4.1557
27.6577,4.1720
27.6740,4.1963
27.6797,4.2250
27.6797,4.9000
27.6740,4.9287
27.6577,4.9530
27.6334,4.9693
27.6047,4.9750
27.4547,4.9750
27.4260,4.9693
27.4017,4.9530
27.3854,4.9287
27.3797,4.9000
Z" /> 
<path style="fill:#B4A09A; fill-opacity:0.9000; stroke:none;fill-rule:evenodd;"
d="M 28.0297,4.2250
28.0354,4.1963
28.0517,4.1720
28.0760,4.1557
28.1047,4.1500
28.2547,4.1500
28.2834,4.1557
28.3077,4.1720
28.3240,4.1963
28.3297,4.2250
28.3297,4.9000
28.3240,4.9287
28.3077,4.9530
28.2834,4.9693
28.2547,4.9750
28.1047,4.9750
28.0760,4.9693
28.0517,4.9530
28.0354,4.9287
28.0297,4.9000
Z" /> 
<path style="fill:#B4A09A; fill-opacity:0.9000; stroke:none;fill-rule:evenodd;"
d="M 28.6797,4.2250
28.6854,4.1963
28.7017,4.1720
28.7260,4.1557
28.7547,4.1500
28.9047,4.1500
28.9334,4.1557
28.9577,4.1720
28.9740,4.1963
28.9797,4.2250
28.9797,4.9000
28.9740,4.9287
28.9577,4.9530
28.9334,4.9693
28.9047,4.9750
28.7547,4.9750
28.7260,4.9693
28.7017,4.9530
28.6854,4.9287
28.6797,4.9000
Z" /> 
<path style="fill:#B4A09A; fill-opacity:0.9000; stroke:none;fill-rule:evenodd;"
d="M 29.3297,4.2250
29.3354,4.1963
29.3517,4.1720
29.3760,4.1557
29.4047,4.1500
29.5547,4.1500
29.5834,4.1557
29.6077,4.1720
29.6240,4.1963
29.6297,4.2250
29.6297,4.9000
29.6240,4.9287
29.6077,4.9530
29.5834,4.9693
29.5547,4.9750
29.4047,4.9750
29.3760,4.9693
29.3517,4.9530
29.3354,4.9287
29.3297,4.9000
Z" /> 
<path style="fill:#B4A09A; fill-opacity:0.9000; stroke:none;fill-rule:evenodd;"
d="M 30.0297,3.5250
30.0354,3.4963
30.0517,3.4720
30.0760,3.4557
30.1047,3.4500
30.7797,3.4500
30.8084,3.4557
30.8327,3.4720
30.8490,3.4963
30.8547,3.5250
30.8547,3.6750
30.8490,3.7037
30.8327,3.7280
30.8084,3.7443
30.7797,3.7500
30.1047,3.7500
30.0760,3.7443
30.0517,3.7280
30.0354,3.7037
30.0297,3.6750
Z" /> 
<path style="fill:#B4A09A; fill-opacity:0.9000; stroke:none;fill-rule:evenodd;"
d="M 30.0297,2.8750
30.0354,2.8463
30.0517,2.8220
30.0760,2.8057
30.1047,2.8000
30.7797,2.8000
30.8084,2.8057
30.8327,2.8220
30.8490,2.8463
30.8547,2.8750
30.8547,3.0250
30.8490,3.0537
30.8327,3.0780
30.8084,3.0943
30.7797,3.1000
30.1047,3.1000
30.0760,3.0943
30.0517,3.0780
30.0354,3.0537
30.0297,3.0250
Z" /> 
<path style="fill:#B4A09A; fill-opacity:0.9000; stroke:none;fill-rule:evenodd;"
d="M 30.0297,2.2250
30.0354,2.1963
30.0517,2.1720
30.0760,2.1557
30.1047,2.1500
30.7797,2.1500
30.8084,2.1557
30.8327,2.1720
30.8490,2.1963
30.8547,2.2250
30.8547,2.3750
30.8490,2.4037
30.8327,2.4280
30.8084,2.4443
30.7797,2.4500
30.1047,2.4500
30.0760,2.4443
30.0517,2.4280
30.0354,2.4037
30.0297,2.3750
Z" /> 
<path style="fill:#B4A09A; fill-opacity:0.9000; stroke:none;fill-rule:evenodd;"
d="M 30.0297,1.5750
30.0354,1.5463
30.0517,1.5220
30.0760,1.5057
30.1047,1.5000
30.7797,1.5000
30.8084,1.5057
30.8327,1.5220
30.8490,1.5463
30.8547,1.5750
30.8547,1.7250
30.8490,1.7537
30.8327,1.7780
30.8084,1.7943
30.7797,1.8000
30.1047,1.8000
30.0760,1.7943
30.0517,1.7780
30.0354,1.7537
30.0297,1.7250
Z" /> 
<path style="fill:#B4A09A; fill-opacity:0.9000; stroke:none;fill-rule:evenodd;"
d="M 29.3297,0.3500
29.3354,0.3213
29.3517,0.2970
29.3760,0.2807
29.4047,0.2750
29.5547,0.2750
29.5834,0.2807
29.6077,0.2970
29.6240,0.3213
29.6297,0.3500
29.6297,1.0250
29.6240,1.0537
29.6077,1.0780
29.5834,1.0943
29.5547,1.1000
29.4047,1.1000
29.3760,1.0943
29.3517,1.0780
29.3354,1.0537
29.3297,1.0250
Z" /> 
<path style="fill:#B4A09A; fill-opacity:0.9000; stroke:none;fill-rule:evenodd;"
d="M 28.6797,0.3500
28.6854,0.3213
28.7017,0.2970
28.7260,0.2807
28.7547,0.2750
28.9047,0.2750
28.9334,0.2807
28.9577,0.2970
28.9740,0.3213
28.9797,0.3500
28.9797,1.0250
28.9740,1.0537
28.9577,1.0780
28.9334,1.0943
28.9047,1.1000
28.7547,1.1000
28.7260,1.0943
28.7017,1.0780
28.6854,1.0537
28.6797,1.0250
Z" /> 
<path style="fill:#B4A09A; fill-opacity:0.9000; stroke:none;fill-rule:evenodd;"
d="M 28.0297,0.3500
28.0354,0.3213
28.0517,0.2970
28.0760,0.2807
28.1047,0.2750
28.2547,0.2750
28.2834,0.2807
28.3077,0.2970
28.3240,0.3213
28.3297,0.3500
28.3297,1.0250
28.3240,1.0537
28.3077,1.0780
28.2834,1.0943
28.2547,1.1000
28.1047,1.1000
28.0760,1.0943
28.0517,1.0780
28.0354,1.0537
28.0297,1.0250
Z" /> 
<path style="fill:#B4A09A; fill-opacity:0.9000; stroke:none;fill-rule:evenodd;"
d="M 27.3797,0.3500
27.3854,0.3213
27.4017,0.2970
27.4260,0.2807
27.4547,0.2750
27.6047,0.2750
27.6334,0.2807
27.6577,0.2970
27.6740,0.3213
27.6797,0.3500
27.6797,1.0250
27.6740,1.0537
27.6577,1.0780
27.6334,1.0943
27.6047,1.1000
27.4547,1.1000
27.4260,1.0943
27.4017,1.0780
27.3854,1.0537
27.3797,1.0250
Z" /> 
</g>
<g style="fill:none; 
stroke:#F2EDA1; stroke-width:0.1588; stroke-opacity:1; 
stroke-linecap:round; stroke-linejoin:round;">
<text x="28.5047" y="3.2600"
textLength="5.6651" font-size="1.6933" lengthAdjust="spacingAndGlyphs"
text-anchor="middle" opacity="0">REF**</text>
<g class="stroked-text"><desc>REF**</desc>
<path d="M26.8114 3.2043
L26.3880 2.5995
" />
<path d="M26.0856 3.2043
L26.0856 1.9343
" />
<path d="M26.0856 1.9343
L26.5695 1.9343
" />
<path d="M26.5695 1.9343
L26.6904 1.9947
" />
<path d="M26.6904 1.9947
L26.7509 2.0552
" />
<path d="M26.7509 2.0552
L26.8114 2.1762
" />
<path d="M26.8114 2.1762
L26.8114 2.3576
" />
<path d="M26.8114 2.3576
L26.7509 2.4786
" />
<path d="M26.7509 2.4786
L26.6904 2.5390
" />
<path d="M26.6904 2.5390
L26.5695 2.5995
" />
<path d="M26.5695 2.5995
L26.0856 2.5995
" />
<path d="M27.3556 2.5390
L27.7790 2.5390
" />
<path d="M27.9604 3.2043
L27.3556 3.2043
" />
<path d="M27.3556 3.2043
L27.3556 1.9343
" />
<path d="M27.3556 1.9343
L27.9604 1.9343
" />
<path d="M28.9280 2.5390
L28.5047 2.5390
" />
<path d="M28.5047 3.2043
L28.5047 1.9343
" />
<path d="M28.5047 1.9343
L29.1095 1.9343
" />
<path d="M29.7747 1.9343
L29.7747 2.2367
" />
<path d="M29.4723 2.1157
L29.7747 2.2367
" />
<path d="M29.7747 2.2367
L30.0771 2.1157
" />
<path d="M29.5933 2.4786
L29.7747 2.2367
" />
<path d="M29.7747 2.2367
L29.9561 2.4786
" />
<path d="M30.7423 1.9343
L30.7423 2.2367
" />
<path d="M30.4399 2.1157
L30.7423 2.2367
" />
<path d="M30.7423 2.2367
L31.0447 2.1157
" />
<path d="M30.5609 2.4786
L30.7423 2.2367
" />
<path d="M30.7423 2.2367
L30.9237 2.4786
" />
</g></g>
<g style="fill:none; 
stroke:#F2EDA1; stroke-width:0.1200; stroke-opacity:1; 
stroke-linecap:round; stroke-linejoin:round;">
<path d="M26.3947 1.2400
L26.3947 0.7550
" />
<path d="M26.3947 4.7350
L26.3947 4.0100
" />
<path d="M27.1197 0.5150
L26.6947 0.5150
" />
<path d="M27.1197 4.7350
L26.3947 4.7350
" />
<path d="M29.8897 0.5150
L30.6147 0.5150
" />
<path d="M29.8897 4.7350
L30.6147 4.7350
" />
<path d="M30.6147 0.5150
L30.6147 1.2400
" />
<path d="M30.6147 4.7350
L30.6147 4.0100
" />
<path style="fill:#F2EDA1; fill-opacity:1.0000; 
stroke:#F2EDA1; stroke-width:0.1200; stroke-opacity:1; 
stroke-linecap:round; stroke-linejoin:round;fill-rule:evenodd;"
d="M 26.3947,0.5150
26.1547,0.1850
26.6347,0.1850
Z" /> 
</g>
<g style="fill:#FFFFFF; fill-opacity:1.0000; stroke:none;">
<circle cx="27.5547" cy="1.6750" r="0.1500" /> 
</g>
<g style="fill:#FFFFFF; fill-opacity:1.0000; stroke:none;">
<circle cx="27.5547" cy="2.6250" r="0.1500" /> 
</g>
<g style="fill:#FFFFFF; fill-opacity:1.0000; stroke:none;">
<circle cx="27.5547" cy="3.5750" r="0.1500" /> 
</g>
<g style="fill:#FFFFFF; fill-opacity:1.0000; stroke:none;">
<circle cx="28.5047" cy="1.6750" r="0.1500" /> 
</g>
<g style="fill:#FFFFFF; fill-opacity:1.0000; stroke:none;">
<circle cx="28.5047" cy="2.6250" r="0.1500" /> 
</g>
<g style="fill:#FFFFFF; fill-opacity:1.0000; stroke:none;">
<circle cx="28.5047" cy="3.5750" r="0.1500" /> 
</g>
<g style="fill:#FFFFFF; fill-opacity:1.0000; stroke:none;">
<circle cx="29.4547" cy="1.6750" r="0.1500" /> 
</g>
<g style="fill:#FFFFFF; fill-opacity:1.0000; stroke:none;">
<circle cx="29.4547" cy="2.6250" r="0.1500" /> 
</g>
<g style="fill:#FFFFFF; fill-opacity:1.0000; stroke:none;">
<circle cx="29.4547" cy="3.5750" r="0.1500" /> 
</g>
<g style="fill:none; 
stroke:#FF26E2; stroke-width:0.0500; stroke-opacity:1; 
stroke-linecap:round; stroke-linejoin:round;">
<path d="M25.9047 0.0250
L25.9047 5.2250
" />
<path d="M25.9047 5.2250
L31.1047 5.2250
" />
<path d="M31.1047 0.0250
L25.9047 0.0250
" />
<path d="M31.1047 5.2250
L31.1047 0.0250
" />
</g>
<g style="fill:none; 
stroke:#AFAFAF; stroke-width:0.1588; stroke-opacity:1; 
stroke-linecap:round; stroke-linejoin:round;">
<text x="28.5047" y="3.2600"
textLength="57.0094" font-size="1.6933" lengthAdjust="spacingAndGlyphs"
text-anchor="middle" opacity="0">QFN-16-1EP_4x4mm_P0.65mm_EP2.5x2.5mm_ThermalVias</text>
<g class="stroked-text"><desc>QFN-16-1EP_4x4mm_P0.65mm_EP2.5x2.5mm_ThermalVias</desc>
<path d="M1.2602 3.3252
L1.1392 3.2647
" />
<path d="M1.1392 3.2647
L1.0183 3.1438
" />
<path d="M1.0183 3.1438
L0.8368 2.9624
" />
<path d="M0.8368 2.9624
L0.7159 2.9019
" />
<path d="M0.7159 2.9019
L0.5949 2.9019
" />
<path d="M0.6554 3.2043
L0.5345 3.1438
" />
<path d="M0.5345 3.1438
L0.4135 3.0228
" />
<path d="M0.4135 3.0228
L0.3530 2.7809
" />
<path d="M0.3530 2.7809
L0.3530 2.3576
" />
<path d="M0.3530 2.3576
L0.4135 2.1157
" />
<path d="M0.4135 2.1157
L0.5345 1.9947
" />
<path d="M0.5345 1.9947
L0.6554 1.9343
" />
<path d="M0.6554 1.9343
L0.8973 1.9343
" />
<path d="M0.8973 1.9343
L1.0183 1.9947
" />
<path d="M1.0183 1.9947
L1.1392 2.1157
" />
<path d="M1.1392 2.1157
L1.1997 2.3576
" />
<path d="M1.1997 2.3576
L1.1997 2.7809
" />
<path d="M1.1997 2.7809
L1.1392 3.0228
" />
<path d="M1.1392 3.0228
L1.0183 3.1438
" />
<path d="M1.0183 3.1438
L0.8973 3.2043
" />
<path d="M0.8973 3.2043
L0.6554 3.2043
" />
<path d="M2.1673 2.5390
L1.7440 2.5390
" />
<path d="M1.7440 3.2043
L1.7440 1.9343
" />
<path d="M1.7440 1.9343
L2.3487 1.9343
" />
<path d="M2.8326 3.2043
L2.8326 1.9343
" />
<path d="M2.8326 1.9343
L3.5583 3.2043
" />
<path d="M3.5583 3.2043
L3.5583 1.9343
" />
<path d="M4.1630 2.7205
L5.1306 2.7205
" />
<path d="M6.4006 3.2043
L5.6749 3.2043
" />
<path d="M6.0378 3.2043
L6.0378 1.9343
" />
<path d="M6.0378 1.9343
L5.9168 2.1157
" />
<path d="M5.9168 2.1157
L5.7959 2.2367
" />
<path d="M5.7959 2.2367
L5.6749 2.2971
" />
<path d="M7.4892 1.9343
L7.2473 1.9343
" />
<path d="M7.2473 1.9343
L7.1264 1.9947
" />
<path d="M7.1264 1.9947
L7.0659 2.0552
" />
<path d="M7.0659 2.0552
L6.9449 2.2367
" />
<path d="M6.9449 2.2367
L6.8845 2.4786
" />
<path d="M6.8845 2.4786
L6.8845 2.9624
" />
<path d="M6.8845 2.9624
L6.9449 3.0833
" />
<path d="M6.9449 3.0833
L7.0054 3.1438
" />
<path d="M7.0054 3.1438
L7.1264 3.2043
" />
<path d="M7.1264 3.2043
L7.3683 3.2043
" />
<path d="M7.3683 3.2043
L7.4892 3.1438
" />
<path d="M7.4892 3.1438
L7.5497 3.0833
" />
<path d="M7.5497 3.0833
L7.6102 2.9624
" />
<path d="M7.6102 2.9624
L7.6102 2.6600
" />
<path d="M7.6102 2.6600
L7.5497 2.5390
" />
<path d="M7.5497 2.5390
L7.4892 2.4786
" />
<path d="M7.4892 2.4786
L7.3683 2.4181
" />
<path d="M7.3683 2.4181
L7.1264 2.4181
" />
<path d="M7.1264 2.4181
L7.0054 2.4786
" />
<path d="M7.0054 2.4786
L6.9449 2.5390
" />
<path d="M6.9449 2.5390
L6.8845 2.6600
" />
<path d="M8.1545 2.7205
L9.1221 2.7205
" />
<path d="M10.3921 3.2043
L9.6664 3.2043
" />
<path d="M10.0292 3.2043
L10.0292 1.9343
" />
<path d="M10.0292 1.9343
L9.9083 2.1157
" />
<path d="M9.9083 2.1157
L9.7873 2.2367
" />
<path d="M9.7873 2.2367
L9.6664 2.2971
" />
<path d="M10.9364 2.5390
L11.3597 2.5390
" />
<path d="M11.5411 3.2043
L10.9364 3.2043
" />
<path d="M10.9364 3.2043
L10.9364 1.9343
" />
<path d="M10.9364 1.9343
L11.5411 1.9343
" />
<path d="M12.0854 3.2043
L12.0854 1.9343
" />
<path d="M12.0854 1.9343
L12.5692 1.9343
" />
<path d="M12.5692 1.9343
L12.6902 1.9947
" />
<path d="M12.6902 1.9947
L12.7507 2.0552
" />
<path d="M12.7507 2.0552
L12.8111 2.1762
" />
<path d="M12.8111 2.1762
L12.8111 2.3576
" />
<path d="M12.8111 2.3576
L12.7507 2.4786
" />
<path d="M12.7507 2.4786
L12.6902 2.5390
" />
<path d="M12.6902 2.5390
L12.5692 2.5995
" />
<path d="M12.5692 2.5995
L12.0854 2.5995
" />
<path d="M13.0530 3.3252
L14.0206 3.3252
" />
<path d="M14.8673 2.3576
L14.8673 3.2043
" />
<path d="M14.5649 1.8738
L14.2626 2.7809
" />
<path d="M14.2626 2.7809
L15.0487 2.7809
" />
<path d="M15.4116 3.2043
L16.0768 2.3576
" />
<path d="M15.4116 2.3576
L16.0768 3.2043
" />
<path d="M17.1049 2.3576
L17.1049 3.2043
" />
<path d="M16.8026 1.8738
L16.5002 2.7809
" />
<path d="M16.5002 2.7809
L17.2864 2.7809
" />
<path d="M17.7702 3.2043
L17.7702 2.3576
" />
<path d="M17.7702 2.4786
L17.8306 2.4181
" />
<path d="M17.8306 2.4181
L17.9516 2.3576
" />
<path d="M17.9516 2.3576
L18.1330 2.3576
" />
<path d="M18.1330 2.3576
L18.2540 2.4181
" />
<path d="M18.2540 2.4181
L18.3145 2.5390
" />
<path d="M18.3145 2.5390
L18.3145 3.2043
" />
<path d="M18.3145 2.5390
L18.3749 2.4181
" />
<path d="M18.3749 2.4181
L18.4959 2.3576
" />
<path d="M18.4959 2.3576
L18.6773 2.3576
" />
<path d="M18.6773 2.3576
L18.7983 2.4181
" />
<path d="M18.7983 2.4181
L18.8587 2.5390
" />
<path d="M18.8587 2.5390
L18.8587 3.2043
" />
<path d="M19.4635 3.2043
L19.4635 2.3576
" />
<path d="M19.4635 2.4786
L19.5240 2.4181
" />
<path d="M19.5240 2.4181
L19.6449 2.3576
" />
<path d="M19.6449 2.3576
L19.8264 2.3576
" />
<path d="M19.8264 2.3576
L19.9473 2.4181
" />
<path d="M19.9473 2.4181
L20.0078 2.5390
" />
<path d="M20.0078 2.5390
L20.0078 3.2043
" />
<path d="M20.0078 2.5390
L20.0683 2.4181
" />
<path d="M20.0683 2.4181
L20.1892 2.3576
" />
<path d="M20.1892 2.3576
L20.3706 2.3576
" />
<path d="M20.3706 2.3576
L20.4916 2.4181
" />
<path d="M20.4916 2.4181
L20.5521 2.5390
" />
<path d="M20.5521 2.5390
L20.5521 3.2043
" />
<path d="M20.8545 3.3252
L21.8221 3.3252
" />
<path d="M22.1245 3.2043
L22.1245 1.9343
" />
<path d="M22.1245 1.9343
L22.6083 1.9343
" />
<path d="M22.6083 1.9343
L22.7292 1.9947
" />
<path d="M22.7292 1.9947
L22.7897 2.0552
" />
<path d="M22.7897 2.0552
L22.8502 2.1762
" />
<path d="M22.8502 2.1762
L22.8502 2.3576
" />
<path d="M22.8502 2.3576
L22.7897 2.4786
" />
<path d="M22.7897 2.4786
L22.7292 2.5390
" />
<path d="M22.7292 2.5390
L22.6083 2.5995
" />
<path d="M22.6083 2.5995
L22.1245 2.5995
" />
<path d="M23.6364 1.9343
L23.7573 1.9343
" />
<path d="M23.7573 1.9343
L23.8783 1.9947
" />
<path d="M23.8783 1.9947
L23.9387 2.0552
" />
<path d="M23.9387 2.0552
L23.9992 2.1762
" />
<path d="M23.9992 2.1762
L24.0597 2.4181
" />
<path d="M24.0597 2.4181
L24.0597 2.7205
" />
<path d="M24.0597 2.7205
L23.9992 2.9624
" />
<path d="M23.9992 2.9624
L23.9387 3.0833
" />
<path d="M23.9387 3.0833
L23.8783 3.1438
" />
<path d="M23.8783 3.1438
L23.7573 3.2043
" />
<path d="M23.7573 3.2043
L23.6364 3.2043
" />
<path d="M23.6364 3.2043
L23.5154 3.1438
" />
<path d="M23.5154 3.1438
L23.4549 3.0833
" />
<path d="M23.4549 3.0833
L23.3945 2.9624
" />
<path d="M23.3945 2.9624
L23.3340 2.7205
" />
<path d="M23.3340 2.7205
L23.3340 2.4181
" />
<path d="M23.3340 2.4181
L23.3945 2.1762
" />
<path d="M23.3945 2.1762
L23.4549 2.0552
" />
<path d="M23.4549 2.0552
L23.5154 1.9947
" />
<path d="M23.5154 1.9947
L23.6364 1.9343
" />
<path d="M24.6040 3.0833
L24.6645 3.1438
" />
<path d="M24.6645 3.1438
L24.6040 3.2043
" />
<path d="M24.6040 3.2043
L24.5435 3.1438
" />
<path d="M24.5435 3.1438
L24.6040 3.0833
" />
<path d="M24.6040 3.0833
L24.6040 3.2043
" />
<path d="M25.7530 1.9343
L25.5111 1.9343
" />
<path d="M25.5111 1.9343
L25.3902 1.9947
" />
<path d="M25.3902 1.9947
L25.3297 2.0552
" />
<path d="M25.3297 2.0552
L25.2087 2.2367
" />
<path d="M25.2087 2.2367
L25.1483 2.4786
" />
<path d="M25.1483 2.4786
L25.1483 2.9624
" />
<path d="M25.1483 2.9624
L25.2087 3.0833
" />
<path d="M25.2087 3.0833
L25.2692 3.1438
" />
<path d="M25.2692 3.1438
L25.3902 3.2043
" />
<path d="M25.3902 3.2043
L25.6321 3.2043
" />
<path d="M25.6321 3.2043
L25.7530 3.1438
" />
<path d="M25.7530 3.1438
L25.8135 3.0833
" />
<path d="M25.8135 3.0833
L25.8740 2.9624
" />
<path d="M25.8740 2.9624
L25.8740 2.6600
" />
<path d="M25.8740 2.6600
L25.8135 2.5390
" />
<path d="M25.8135 2.5390
L25.7530 2.4786
" />
<path d="M25.7530 2.4786
L25.6321 2.4181
" />
<path d="M25.6321 2.4181
L25.3902 2.4181
" />
<path d="M25.3902 2.4181
L25.2692 2.4786
" />
<path d="M25.2692 2.4786
L25.2087 2.5390
" />
<path d="M25.2087 2.5390
L25.1483 2.6600
" />
<path d="M27.0230 1.9343
L26.4183 1.9343
" />
<path d="M26.4183 1.9343
L26.3578 2.5390
" />
<path d="M26.3578 2.5390
L26.4183 2.4786
" />
<path d="M26.4183 2.4786
L26.5392 2.4181
" />
<path d="M26.5392 2.4181
L26.8416 2.4181
" />
<path d="M26.8416 2.4181
L26.9626 2.4786
" />
<path d="M26.9626 2.4786
L27.0230 2.5390
" />
<path d="M27.0230 2.5390
L27.0835 2.6600
" />
<path d="M27.0835 2.6600
L27.0835 2.9624
" />
<path d="M27.0835 2.9624
L27.0230 3.0833
" />
<path d="M27.0230 3.0833
L26.9626 3.1438
" />
<path d="M26.9626 3.1438
L26.8416 3.2043
" />
<path d="M26.8416 3.2043
L26.5392 3.2043
" />
<path d="M26.5392 3.2043
L26.4183 3.1438
" />
<path d="M26.4183 3.1438
L26.3578 3.0833
" />
<path d="M27.6278 3.2043
L27.6278 2.3576
" />
<path d="M27.6278 2.4786
L27.6883 2.4181
" />
<path d="M27.6883 2.4181
L27.8092 2.3576
" />
<path d="M27.8092 2.3576
L27.9906 2.3576
" />
<path d="M27.9906 2.3576
L28.1116 2.4181
" />
<path d="M28.1116 2.4181
L28.1721 2.5390
" />
<path d="M28.1721 2.5390
L28.1721 3.2043
" />
<path d="M28.1721 2.5390
L28.2326 2.4181
" />
<path d="M28.2326 2.4181
L28.3535 2.3576
" />
<path d="M28.3535 2.3576
L28.5349 2.3576
" />
<path d="M28.5349 2.3576
L28.6559 2.4181
" />
<path d="M28.6559 2.4181
L28.7164 2.5390
" />
<path d="M28.7164 2.5390
L28.7164 3.2043
" />
<path d="M29.3211 3.2043
L29.3211 2.3576
" />
<path d="M29.3211 2.4786
L29.3816 2.4181
" />
<path d="M29.3816 2.4181
L29.5026 2.3576
" />
<path d="M29.5026 2.3576
L29.6840 2.3576
" />
<path d="M29.6840 2.3576
L29.8049 2.4181
" />
<path d="M29.8049 2.4181
L29.8654 2.5390
" />
<path d="M29.8654 2.5390
L29.8654 3.2043
" />
<path d="M29.8654 2.5390
L29.9259 2.4181
" />
<path d="M29.9259 2.4181
L30.0468 2.3576
" />
<path d="M30.0468 2.3576
L30.2283 2.3576
" />
<path d="M30.2283 2.3576
L30.3492 2.4181
" />
<path d="M30.3492 2.4181
L30.4097 2.5390
" />
<path d="M30.4097 2.5390
L30.4097 3.2043
" />
<path d="M30.7121 3.3252
L31.6797 3.3252
" />
<path d="M31.9821 2.5390
L32.4054 2.5390
" />
<path d="M32.5868 3.2043
L31.9821 3.2043
" />
<path d="M31.9821 3.2043
L31.9821 1.9343
" />
<path d="M31.9821 1.9343
L32.5868 1.9343
" />
<path d="M33.1311 3.2043
L33.1311 1.9343
" />
<path d="M33.1311 1.9343
L33.6149 1.9343
" />
<path d="M33.6149 1.9343
L33.7359 1.9947
" />
<path d="M33.7359 1.9947
L33.7964 2.0552
" />
<path d="M33.7964 2.0552
L33.8568 2.1762
" />
<path d="M33.8568 2.1762
L33.8568 2.3576
" />
<path d="M33.8568 2.3576
L33.7964 2.4786
" />
<path d="M33.7964 2.4786
L33.7359 2.5390
" />
<path d="M33.7359 2.5390
L33.6149 2.5995
" />
<path d="M33.6149 2.5995
L33.1311 2.5995
" />
<path d="M34.3406 2.0552
L34.4011 1.9947
" />
<path d="M34.4011 1.9947
L34.5221 1.9343
" />
<path d="M34.5221 1.9343
L34.8245 1.9343
" />
<path d="M34.8245 1.9343
L34.9454 1.9947
" />
<path d="M34.9454 1.9947
L35.0059 2.0552
" />
<path d="M35.0059 2.0552
L35.0664 2.1762
" />
<path d="M35.0664 2.1762
L35.0664 2.2971
" />
<path d="M35.0664 2.2971
L35.0059 2.4786
" />
<path d="M35.0059 2.4786
L34.2802 3.2043
" />
<path d="M34.2802 3.2043
L35.0664 3.2043
" />
<path d="M35.6106 3.0833
L35.6711 3.1438
" />
<path d="M35.6711 3.1438
L35.6106 3.2043
" />
<path d="M35.6106 3.2043
L35.5502 3.1438
" />
<path d="M35.5502 3.1438
L35.6106 3.0833
" />
<path d="M35.6106 3.0833
L35.6106 3.2043
" />
<path d="M36.8202 1.9343
L36.2154 1.9343
" />
<path d="M36.2154 1.9343
L36.1549 2.5390
" />
<path d="M36.1549 2.5390
L36.2154 2.4786
" />
<path d="M36.2154 2.4786
L36.3364 2.4181
" />
<path d="M36.3364 2.4181
L36.6387 2.4181
" />
<path d="M36.6387 2.4181
L36.7597 2.4786
" />
<path d="M36.7597 2.4786
L36.8202 2.5390
" />
<path d="M36.8202 2.5390
L36.8806 2.6600
" />
<path d="M36.8806 2.6600
L36.8806 2.9624
" />
<path d="M36.8806 2.9624
L36.8202 3.0833
" />
<path d="M36.8202 3.0833
L36.7597 3.1438
" />
<path d="M36.7597 3.1438
L36.6387 3.2043
" />
<path d="M36.6387 3.2043
L36.3364 3.2043
" />
<path d="M36.3364 3.2043
L36.2154 3.1438
" />
<path d="M36.2154 3.1438
L36.1549 3.0833
" />
<path d="M37.3040 3.2043
L37.9692 2.3576
" />
<path d="M37.3040 2.3576
L37.9692 3.2043
" />
<path d="M38.3926 2.0552
L38.4530 1.9947
" />
<path d="M38.4530 1.9947
L38.5740 1.9343
" />
<path d="M38.5740 1.9343
L38.8764 1.9343
" />
<path d="M38.8764 1.9343
L38.9973 1.9947
" />
<path d="M38.9973 1.9947
L39.0578 2.0552
" />
<path d="M39.0578 2.0552
L39.1183 2.1762
" />
<path d="M39.1183 2.1762
L39.1183 2.2971
" />
<path d="M39.1183 2.2971
L39.0578 2.4786
" />
<path d="M39.0578 2.4786
L38.3321 3.2043
" />
<path d="M38.3321 3.2043
L39.1183 3.2043
" />
<path d="M39.6626 3.0833
L39.7230 3.1438
" />
<path d="M39.7230 3.1438
L39.6626 3.2043
" />
<path d="M39.6626 3.2043
L39.6021 3.1438
" />
<path d="M39.6021 3.1438
L39.6626 3.0833
" />
<path d="M39.6626 3.0833
L39.6626 3.2043
" />
<path d="M40.8721 1.9343
L40.2673 1.9343
" />
<path d="M40.2673 1.9343
L40.2068 2.5390
" />
<path d="M40.2068 2.5390
L40.2673 2.4786
" />
<path d="M40.2673 2.4786
L40.3883 2.4181
" />
<path d="M40.3883 2.4181
L40.6906 2.4181
" />
<path d="M40.6906 2.4181
L40.8116 2.4786
" />
<path d="M40.8116 2.4786
L40.8721 2.5390
" />
<path d="M40.8721 2.5390
L40.9326 2.6600
" />
<path d="M40.9326 2.6600
L40.9326 2.9624
" />
<path d="M40.9326 2.9624
L40.8721 3.0833
" />
<path d="M40.8721 3.0833
L40.8116 3.1438
" />
<path d="M40.8116 3.1438
L40.6906 3.2043
" />
<path d="M40.6906 3.2043
L40.3883 3.2043
" />
<path d="M40.3883 3.2043
L40.2673 3.1438
" />
<path d="M40.2673 3.1438
L40.2068 3.0833
" />
<path d="M41.4768 3.2043
L41.4768 2.3576
" />
<path d="M41.4768 2.4786
L41.5373 2.4181
" />
<path d="M41.5373 2.4181
L41.6583 2.3576
" />
<path d="M41.6583 2.3576
L41.8397 2.3576
" />
<path d="M41.8397 2.3576
L41.9606 2.4181
" />
<path d="M41.9606 2.4181
L42.0211 2.5390
" />
<path d="M42.0211 2.5390
L42.0211 3.2043
" />
<path d="M42.0211 2.5390
L42.0816 2.4181
" />
<path d="M42.0816 2.4181
L42.2026 2.3576
" />
<path d="M42.2026 2.3576
L42.3840 2.3576
" />
<path d="M42.3840 2.3576
L42.5049 2.4181
" />
<path d="M42.5049 2.4181
L42.5654 2.5390
" />
<path d="M42.5654 2.5390
L42.5654 3.2043
" />
<path d="M43.1702 3.2043
L43.1702 2.3576
" />
<path d="M43.1702 2.4786
L43.2306 2.4181
" />
<path d="M43.2306 2.4181
L43.3516 2.3576
" />
<path d="M43.3516 2.3576
L43.5330 2.3576
" />
<path d="M43.5330 2.3576
L43.6540 2.4181
" />
<path d="M43.6540 2.4181
L43.7145 2.5390
" />
<path d="M43.7145 2.5390
L43.7145 3.2043
" />
<path d="M43.7145 2.5390
L43.7749 2.4181
" />
<path d="M43.7749 2.4181
L43.8959 2.3576
" />
<path d="M43.8959 2.3576
L44.0773 2.3576
" />
<path d="M44.0773 2.3576
L44.1983 2.4181
" />
<path d="M44.1983 2.4181
L44.2587 2.5390
" />
<path d="M44.2587 2.5390
L44.2587 3.2043
" />
<path d="M44.5611 3.3252
L45.5287 3.3252
" />
<path d="M45.6497 1.9343
L46.3754 1.9343
" />
<path d="M46.0126 3.2043
L46.0126 1.9343
" />
<path d="M46.7987 3.2043
L46.7987 1.9343
" />
<path d="M47.3430 3.2043
L47.3430 2.5390
" />
<path d="M47.3430 2.5390
L47.2826 2.4181
" />
<path d="M47.2826 2.4181
L47.1616 2.3576
" />
<path d="M47.1616 2.3576
L46.9802 2.3576
" />
<path d="M46.9802 2.3576
L46.8592 2.4181
" />
<path d="M46.8592 2.4181
L46.7987 2.4786
" />
<path d="M48.4316 3.1438
L48.3106 3.2043
" />
<path d="M48.3106 3.2043
L48.0687 3.2043
" />
<path d="M48.0687 3.2043
L47.9478 3.1438
" />
<path d="M47.9478 3.1438
L47.8873 3.0228
" />
<path d="M47.8873 3.0228
L47.8873 2.5390
" />
<path d="M47.8873 2.5390
L47.9478 2.4181
" />
<path d="M47.9478 2.4181
L48.0687 2.3576
" />
<path d="M48.0687 2.3576
L48.3106 2.3576
" />
<path d="M48.3106 2.3576
L48.4316 2.4181
" />
<path d="M48.4316 2.4181
L48.4921 2.5390
" />
<path d="M48.4921 2.5390
L48.4921 2.6600
" />
<path d="M48.4921 2.6600
L47.8873 2.7809
" />
<path d="M49.0364 3.2043
L49.0364 2.3576
" />
<path d="M49.0364 2.5995
L49.0968 2.4786
" />
<path d="M49.0968 2.4786
L49.1573 2.4181
" />
<path d="M49.1573 2.4181
L49.2783 2.3576
" />
<path d="M49.2783 2.3576
L49.3992 2.3576
" />
<path d="M49.8226 3.2043
L49.8226 2.3576
" />
<path d="M49.8226 2.4786
L49.8830 2.4181
" />
<path d="M49.8830 2.4181
L50.0040 2.3576
" />
<path d="M50.0040 2.3576
L50.1854 2.3576
" />
<path d="M50.1854 2.3576
L50.3064 2.4181
" />
<path d="M50.3064 2.4181
L50.3668 2.5390
" />
<path d="M50.3668 2.5390
L50.3668 3.2043
" />
<path d="M50.3668 2.5390
L50.4273 2.4181
" />
<path d="M50.4273 2.4181
L50.5483 2.3576
" />
<path d="M50.5483 2.3576
L50.7297 2.3576
" />
<path d="M50.7297 2.3576
L50.8506 2.4181
" />
<path d="M50.8506 2.4181
L50.9111 2.5390
" />
<path d="M50.9111 2.5390
L50.9111 3.2043
" />
<path d="M52.0602 3.2043
L52.0602 2.5390
" />
<path d="M52.0602 2.5390
L51.9997 2.4181
" />
<path d="M51.9997 2.4181
L51.8787 2.3576
" />
<path d="M51.8787 2.3576
L51.6368 2.3576
" />
<path d="M51.6368 2.3576
L51.5159 2.4181
" />
<path d="M52.0602 3.1438
L51.9392 3.2043
" />
<path d="M51.9392 3.2043
L51.6368 3.2043
" />
<path d="M51.6368 3.2043
L51.5159 3.1438
" />
<path d="M51.5159 3.1438
L51.4554 3.0228
" />
<path d="M51.4554 3.0228
L51.4554 2.9019
" />
<path d="M51.4554 2.9019
L51.5159 2.7809
" />
<path d="M51.5159 2.7809
L51.6368 2.7205
" />
<path d="M51.6368 2.7205
L51.9392 2.7205
" />
<path d="M51.9392 2.7205
L52.0602 2.6600
" />
<path d="M52.8464 3.2043
L52.7254 3.1438
" />
<path d="M52.7254 3.1438
L52.6649 3.0228
" />
<path d="M52.6649 3.0228
L52.6649 1.9343
" />
<path d="M53.1487 1.9343
L53.5721 3.2043
" />
<path d="M53.5721 3.2043
L53.9954 1.9343
" />
<path d="M54.4187 3.2043
L54.4187 2.3576
" />
<path d="M54.4187 1.9343
L54.3583 1.9947
" />
<path d="M54.3583 1.9947
L54.4187 2.0552
" />
<path d="M54.4187 2.0552
L54.4792 1.9947
" />
<path d="M54.4792 1.9947
L54.4187 1.9343
" />
<path d="M54.4187 1.9343
L54.4187 2.0552
" />
<path d="M55.5678 3.2043
L55.5678 2.5390
" />
<path d="M55.5678 2.5390
L55.5073 2.4181
" />
<path d="M55.5073 2.4181
L55.3864 2.3576
" />
<path d="M55.3864 2.3576
L55.1445 2.3576
" />
<path d="M55.1445 2.3576
L55.0235 2.4181
" />
<path d="M55.5678 3.1438
L55.4468 3.2043
" />
<path d="M55.4468 3.2043
L55.1445 3.2043
" />
<path d="M55.1445 3.2043
L55.0235 3.1438
" />
<path d="M55.0235 3.1438
L54.9630 3.0228
" />
<path d="M54.9630 3.0228
L54.9630 2.9019
" />
<path d="M54.9630 2.9019
L55.0235 2.7809
" />
<path d="M55.0235 2.7809
L55.1445 2.7205
" />
<path d="M55.1445 2.7205
L55.4468 2.7205
" />
<path d="M55.4468 2.7205
L55.5678 2.6600
" />
<path d="M56.1121 3.1438
L56.2330 3.2043
" />
<path d="M56.2330 3.2043
L56.4749 3.2043
" />
<path d="M56.4749 3.2043
L56.5959 3.1438
" />
<path d="M56.5959 3.1438
L56.6564 3.0228
" />
<path d="M56.6564 3.0228
L56.6564 2.9624
" />
<path d="M56.6564 2.9624
L56.5959 2.8414
" />
<path d="M56.5959 2.8414
L56.4749 2.7809
" />
<path d="M56.4749 2.7809
L56.2935 2.7809
" />
<path d="M56.2935 2.7809
L56.1726 2.7205
" />
<path d="M56.1726 2.7205
L56.1121 2.5995
" />
<path d="M56.1121 2.5995
L56.1121 2.5390
" />
<path d="M56.1121 2.5390
L56.1726 2.4181
" />
<path d="M56.1726 2.4181
L56.2935 2.3576
" />
<path d="M56.2935 2.3576
L56.4749 2.3576
" />
<path d="M56.4749 2.3576
L56.5959 2.4181
" />
</g></g>
<g style="fill:none; 
stroke:#AFAFAF; stroke-width:0.1500; stroke-opacity:1; 
stroke-linecap:round; stroke-linejoin:round;">
<text x="28.5047" y="3.1250"
textLength="4.5357" font-size="1.3333" lengthAdjust="spacingAndGlyphs"
text-anchor="middle" opacity="0">REF**</text>
<g class="stroked-text"><desc>REF**</desc>
<path d="M27.1714 3.0798
L26.8380 2.6036
" />
<path d="M26.5999 3.0798
L26.5999 2.0798
" />
<path d="M26.5999 2.0798
L26.9809 2.0798
" />
<path d="M26.9809 2.0798
L27.0761 2.1274
" />
<path d="M27.0761 2.1274
L27.1237 2.1751
" />
<path d="M27.1237 2.1751
L27.1714 2.2703
" />
<path d="M27.1714 2.2703
L27.1714 2.4132
" />
<path d="M27.1714 2.4132
L27.1237 2.5084
" />
<path d="M27.1237 2.5084
L27.0761 2.5560
" />
<path d="M27.0761 2.5560
L26.9809 2.6036
" />
<path d="M26.9809 2.6036
L26.5999 2.6036
" />
<path d="M27.5999 2.5560
L27.9333 2.5560
" />
<path d="M28.0761 3.0798
L27.5999 3.0798
" />
<path d="M27.5999 3.0798
L27.5999 2.0798
" />
<path d="M27.5999 2.0798
L28.0761 2.0798
" />
<path d="M28.8380 2.5560
L28.5047 2.5560
" />
<path d="M28.5047 3.0798
L28.5047 2.0798
" />
<path d="M28.5047 2.0798
L28.9809 2.0798
" />
<path d="M29.5047 2.0798
L29.5047 2.3179
" />
<path d="M29.2666 2.2227
L29.5047 2.3179
" />
<path d="M29.5047 2.3179
L29.7428 2.2227
" />
<path d="M29.3618 2.5084
L29.5047 2.3179
" />
<path d="M29.5047 2.3179
L29.6476 2.5084
" />
<path d="M30.2666 2.0798
L30.2666 2.3179
" />
<path d="M30.0285 2.2227
L30.2666 2.3179
" />
<path d="M30.2666 2.3179
L30.5047 2.2227
" />
<path d="M30.1237 2.5084
L30.2666 2.3179
" />
<path d="M30.2666 2.3179
L30.4095 2.5084
" />
</g></g>
<g style="fill:none; 
stroke:#AFAFAF; stroke-width:0.1000; stroke-opacity:1; 
stroke-linecap:round; stroke-linejoin:round;">
<path d="M26.5047 1.6250
L27.5047 0.6250
" />
<path d="M26.5047 4.6250
L26.5047 1.6250
" />
<path d="M27.5047 0.6250
L30.5047 0.6250
" />
<path d="M30.5047 0.6250
L30.5047 4.6250
" />
<path d="M30.5047 4.6250
L26.5047 4.6250
" />
</g> 
</svg>
