<?xml version="1.0" standalone="no"?>
 <!DOCTYPE svg PUBLIC "-//W3C//DTD SVG 1.1//EN" 
 "http://www.w3.org/Graphics/SVG/1.1/DTD/svg11.dtd"> 
<svg
  xmlns:svg="http://www.w3.org/2000/svg"
  xmlns="http://www.w3.org/2000/svg"
  xmlns:xlink="http://www.w3.org/1999/xlink"
  version="1.1"
  width="46.8376mm" height="31.7500mm" viewBox="0.0000 0.0000 46.8376 31.7500">
<title>SVG Image created as working-brd.svg date 2024/04/04 18:17:11 </title>
  <desc>Image generated by PCBNEW </desc>
<g style="fill:#000000; fill-opacity:1.0000;stroke:#000000; stroke-opacity:1.0000;
stroke-linecap:round; stroke-linejoin:round;"
 transform="translate(0 0) scale(1 1)">
<path style="fill:#C83434; fill-opacity:1.0000; stroke:none;fill-rule:evenodd;"
d="M 20.8247,2.4050
20.8247,1.4050
22.7247,1.4050
22.7247,2.4050
Z" /> 
<path style="fill:#C83434; fill-opacity:1.0000; stroke:none;fill-rule:evenodd;"
d="M 24.1247,4.9450
24.1247,3.9450
26.0247,3.9450
26.0247,4.9450
Z" /> 
<path style="fill:#C83434; fill-opacity:1.0000; stroke:none;fill-rule:evenodd;"
d="M 20.8247,7.4850
20.8247,6.4850
22.7247,6.4850
22.7247,7.4850
Z" /> 
<path style="fill:#C83434; fill-opacity:1.0000; stroke:none;fill-rule:evenodd;"
d="M 24.1247,10.0250
24.1247,9.0250
26.0247,9.0250
26.0247,10.0250
Z" /> 
<path style="fill:#C83434; fill-opacity:1.0000; stroke:none;fill-rule:evenodd;"
d="M 20.8247,12.5650
20.8247,11.5650
22.7247,11.5650
22.7247,12.5650
Z" /> 
<path style="fill:#C83434; fill-opacity:1.0000; stroke:none;fill-rule:evenodd;"
d="M 24.1247,15.1050
24.1247,14.1050
26.0247,14.1050
26.0247,15.1050
Z" /> 
<path style="fill:#C83434; fill-opacity:1.0000; stroke:none;fill-rule:evenodd;"
d="M 20.8247,17.6450
20.8247,16.6450
22.7247,16.6450
22.7247,17.6450
Z" /> 
<path style="fill:#C83434; fill-opacity:1.0000; stroke:none;fill-rule:evenodd;"
d="M 24.1247,20.1850
24.1247,19.1850
26.0247,19.1850
26.0247,20.1850
Z" /> 
<path style="fill:#C83434; fill-opacity:1.0000; stroke:none;fill-rule:evenodd;"
d="M 20.8247,22.7250
20.8247,21.7250
22.7247,21.7250
22.7247,22.7250
Z" /> 
<path style="fill:#C83434; fill-opacity:1.0000; stroke:none;fill-rule:evenodd;"
d="M 24.1247,25.2650
24.1247,24.2650
26.0247,24.2650
26.0247,25.2650
Z" /> 
<path style="fill:#C83434; fill-opacity:1.0000; stroke:none;fill-rule:evenodd;"
d="M 20.8247,27.8050
20.8247,26.8050
22.7247,26.8050
22.7247,27.8050
Z" /> 
<path style="fill:#C83434; fill-opacity:1.0000; stroke:none;fill-rule:evenodd;"
d="M 24.1247,30.3450
24.1247,29.3450
26.0247,29.3450
26.0247,30.3450
Z" /> 
<path style="fill:#D864FF; fill-opacity:0.4000; stroke:none;fill-rule:evenodd;"
d="M 20.8247,2.4050
20.8247,1.4050
22.7247,1.4050
22.7247,2.4050
Z" /> 
<path style="fill:#D864FF; fill-opacity:0.4000; stroke:none;fill-rule:evenodd;"
d="M 24.1247,4.9450
24.1247,3.9450
26.0247,3.9450
26.0247,4.9450
Z" /> 
<path style="fill:#D864FF; fill-opacity:0.4000; stroke:none;fill-rule:evenodd;"
d="M 20.8247,7.4850
20.8247,6.4850
22.7247,6.4850
22.7247,7.4850
Z" /> 
<path style="fill:#D864FF; fill-opacity:0.4000; stroke:none;fill-rule:evenodd;"
d="M 24.1247,10.0250
24.1247,9.0250
26.0247,9.0250
26.0247,10.0250
Z" /> 
<path style="fill:#D864FF; fill-opacity:0.4000; stroke:none;fill-rule:evenodd;"
d="M 20.8247,12.5650
20.8247,11.5650
22.7247,11.5650
22.7247,12.5650
Z" /> 
<path style="fill:#D864FF; fill-opacity:0.4000; stroke:none;fill-rule:evenodd;"
d="M 24.1247,15.1050
24.1247,14.1050
26.0247,14.1050
26.0247,15.1050
Z" /> 
<path style="fill:#D864FF; fill-opacity:0.4000; stroke:none;fill-rule:evenodd;"
d="M 20.8247,17.6450
20.8247,16.6450
22.7247,16.6450
22.7247,17.6450
Z" /> 
<path style="fill:#D864FF; fill-opacity:0.4000; stroke:none;fill-rule:evenodd;"
d="M 24.1247,20.1850
24.1247,19.1850
26.0247,19.1850
26.0247,20.1850
Z" /> 
<path style="fill:#D864FF; fill-opacity:0.4000; stroke:none;fill-rule:evenodd;"
d="M 20.8247,22.7250
20.8247,21.7250
22.7247,21.7250
22.7247,22.7250
Z" /> 
<path style="fill:#D864FF; fill-opacity:0.4000; stroke:none;fill-rule:evenodd;"
d="M 24.1247,25.2650
24.1247,24.2650
26.0247,24.2650
26.0247,25.2650
Z" /> 
<path style="fill:#D864FF; fill-opacity:0.4000; stroke:none;fill-rule:evenodd;"
d="M 20.8247,27.8050
20.8247,26.8050
22.7247,26.8050
22.7247,27.8050
Z" /> 
<path style="fill:#D864FF; fill-opacity:0.4000; stroke:none;fill-rule:evenodd;"
d="M 24.1247,30.3450
24.1247,29.3450
26.0247,29.3450
26.0247,30.3450
Z" /> 
<path style="fill:#B4A09A; fill-opacity:0.9000; stroke:none;fill-rule:evenodd;"
d="M 20.8247,2.4050
20.8247,1.4050
22.7247,1.4050
22.7247,2.4050
Z" /> 
<path style="fill:#B4A09A; fill-opacity:0.9000; stroke:none;fill-rule:evenodd;"
d="M 24.1247,4.9450
24.1247,3.9450
26.0247,3.9450
26.0247,4.9450
Z" /> 
<path style="fill:#B4A09A; fill-opacity:0.9000; stroke:none;fill-rule:evenodd;"
d="M 20.8247,7.4850
20.8247,6.4850
22.7247,6.4850
22.7247,7.4850
Z" /> 
<path style="fill:#B4A09A; fill-opacity:0.9000; stroke:none;fill-rule:evenodd;"
d="M 24.1247,10.0250
24.1247,9.0250
26.0247,9.0250
26.0247,10.0250
Z" /> 
<path style="fill:#B4A09A; fill-opacity:0.9000; stroke:none;fill-rule:evenodd;"
d="M 20.8247,12.5650
20.8247,11.5650
22.7247,11.5650
22.7247,12.5650
Z" /> 
<path style="fill:#B4A09A; fill-opacity:0.9000; stroke:none;fill-rule:evenodd;"
d="M 24.1247,15.1050
24.1247,14.1050
26.0247,14.1050
26.0247,15.1050
Z" /> 
<path style="fill:#B4A09A; fill-opacity:0.9000; stroke:none;fill-rule:evenodd;"
d="M 20.8247,17.6450
20.8247,16.6450
22.7247,16.6450
22.7247,17.6450
Z" /> 
<path style="fill:#B4A09A; fill-opacity:0.9000; stroke:none;fill-rule:evenodd;"
d="M 24.1247,20.1850
24.1247,19.1850
26.0247,19.1850
26.0247,20.1850
Z" /> 
<path style="fill:#B4A09A; fill-opacity:0.9000; stroke:none;fill-rule:evenodd;"
d="M 20.8247,22.7250
20.8247,21.7250
22.7247,21.7250
22.7247,22.7250
Z" /> 
<path style="fill:#B4A09A; fill-opacity:0.9000; stroke:none;fill-rule:evenodd;"
d="M 24.1247,25.2650
24.1247,24.2650
26.0247,24.2650
26.0247,25.2650
Z" /> 
<path style="fill:#B4A09A; fill-opacity:0.9000; stroke:none;fill-rule:evenodd;"
d="M 20.8247,27.8050
20.8247,26.8050
22.7247,26.8050
22.7247,27.8050
Z" /> 
<path style="fill:#B4A09A; fill-opacity:0.9000; stroke:none;fill-rule:evenodd;"
d="M 24.1247,30.3450
24.1247,29.3450
26.0247,29.3450
26.0247,30.3450
Z" /> 
</g>
<g style="fill:none; 
stroke:#F2EDA1; stroke-width:0.1588; stroke-opacity:1; 
stroke-linecap:round; stroke-linejoin:round;">
<text x="23.4247" y="16.5100"
textLength="5.6651" font-size="1.6933" lengthAdjust="spacingAndGlyphs"
text-anchor="middle" opacity="0">REF**</text>
<g class="stroked-text"><desc>REF**</desc>
<path d="M21.7314 16.4543
L21.3080 15.8495
" />
<path d="M21.0056 16.4543
L21.0056 15.1843
" />
<path d="M21.0056 15.1843
L21.4895 15.1843
" />
<path d="M21.4895 15.1843
L21.6104 15.2447
" />
<path d="M21.6104 15.2447
L21.6709 15.3052
" />
<path d="M21.6709 15.3052
L21.7314 15.4262
" />
<path d="M21.7314 15.4262
L21.7314 15.6076
" />
<path d="M21.7314 15.6076
L21.6709 15.7286
" />
<path d="M21.6709 15.7286
L21.6104 15.7890
" />
<path d="M21.6104 15.7890
L21.4895 15.8495
" />
<path d="M21.4895 15.8495
L21.0056 15.8495
" />
<path d="M22.2756 15.7890
L22.6990 15.7890
" />
<path d="M22.8804 16.4543
L22.2756 16.4543
" />
<path d="M22.2756 16.4543
L22.2756 15.1843
" />
<path d="M22.2756 15.1843
L22.8804 15.1843
" />
<path d="M23.8480 15.7890
L23.4247 15.7890
" />
<path d="M23.4247 16.4543
L23.4247 15.1843
" />
<path d="M23.4247 15.1843
L24.0295 15.1843
" />
<path d="M24.6947 15.1843
L24.6947 15.4867
" />
<path d="M24.3923 15.3657
L24.6947 15.4867
" />
<path d="M24.6947 15.4867
L24.9971 15.3657
" />
<path d="M24.5133 15.7286
L24.6947 15.4867
" />
<path d="M24.6947 15.4867
L24.8761 15.7286
" />
<path d="M25.6623 15.1843
L25.6623 15.4867
" />
<path d="M25.3599 15.3657
L25.6623 15.4867
" />
<path d="M25.6623 15.4867
L25.9647 15.3657
" />
<path d="M25.4809 15.7286
L25.6623 15.4867
" />
<path d="M25.6623 15.4867
L25.8437 15.7286
" />
</g></g>
<g style="fill:none; 
stroke:#F2EDA1; stroke-width:0.1200; stroke-opacity:1; 
stroke-linecap:round; stroke-linejoin:round;">
<path d="M20.8847 1.1450
L22.0947 1.1450
" />
<path d="M22.0947 0.4750
L22.0947 1.1450
" />
<path d="M22.0947 0.4750
L24.7547 0.4750
" />
<path d="M22.0947 2.6650
L22.0947 6.2250
" />
<path d="M22.0947 7.7450
L22.0947 11.3050
" />
<path d="M22.0947 12.8250
L22.0947 16.3850
" />
<path d="M22.0947 17.9050
L22.0947 21.4650
" />
<path d="M22.0947 22.9850
L22.0947 26.5450
" />
<path d="M22.0947 28.0650
L22.0947 31.2750
" />
<path d="M22.0947 31.2750
L24.7547 31.2750
" />
<path d="M24.7547 0.4750
L24.7547 3.6850
" />
<path d="M24.7547 5.2050
L24.7547 8.7650
" />
<path d="M24.7547 10.2850
L24.7547 13.8450
" />
<path d="M24.7547 15.3650
L24.7547 18.9250
" />
<path d="M24.7547 20.4450
L24.7547 24.0050
" />
<path d="M24.7547 25.5250
L24.7547 29.0850
" />
<path d="M24.7547 30.6050
L24.7547 31.2750
" />
</g>
<g style="fill:none; 
stroke:#FF26E2; stroke-width:0.0500; stroke-opacity:1; 
stroke-linecap:round; stroke-linejoin:round;">
<path d="M20.3247 0.0250
L26.5247 0.0250
" />
<path d="M20.3247 31.7250
L20.3247 0.0250
" />
<path d="M26.5247 0.0250
L26.5247 31.7250
" />
<path d="M26.5247 31.7250
L20.3247 31.7250
" />
</g>
<g style="fill:none; 
stroke:#AFAFAF; stroke-width:0.1588; stroke-opacity:1; 
stroke-linecap:round; stroke-linejoin:round;">
<text x="23.4247" y="16.5100"
textLength="46.8494" font-size="1.6933" lengthAdjust="spacingAndGlyphs"
text-anchor="middle" opacity="0">PinSocket_1x12_P2.54mm_Vertical_SMD_Pin1Left</text>
<g class="stroked-text"><desc>PinSocket_1x12_P2.54mm_Vertical_SMD_Pin1Left</desc>
<path d="M0.4135 16.4543
L0.4135 15.1843
" />
<path d="M0.4135 15.1843
L0.8973 15.1843
" />
<path d="M0.8973 15.1843
L1.0183 15.2447
" />
<path d="M1.0183 15.2447
L1.0787 15.3052
" />
<path d="M1.0787 15.3052
L1.1392 15.4262
" />
<path d="M1.1392 15.4262
L1.1392 15.6076
" />
<path d="M1.1392 15.6076
L1.0787 15.7286
" />
<path d="M1.0787 15.7286
L1.0183 15.7890
" />
<path d="M1.0183 15.7890
L0.8973 15.8495
" />
<path d="M0.8973 15.8495
L0.4135 15.8495
" />
<path d="M1.6835 16.4543
L1.6835 15.6076
" />
<path d="M1.6835 15.1843
L1.6230 15.2447
" />
<path d="M1.6230 15.2447
L1.6835 15.3052
" />
<path d="M1.6835 15.3052
L1.7440 15.2447
" />
<path d="M1.7440 15.2447
L1.6835 15.1843
" />
<path d="M1.6835 15.1843
L1.6835 15.3052
" />
<path d="M2.2883 15.6076
L2.2883 16.4543
" />
<path d="M2.2883 15.7286
L2.3487 15.6681
" />
<path d="M2.3487 15.6681
L2.4697 15.6076
" />
<path d="M2.4697 15.6076
L2.6511 15.6076
" />
<path d="M2.6511 15.6076
L2.7721 15.6681
" />
<path d="M2.7721 15.6681
L2.8326 15.7890
" />
<path d="M2.8326 15.7890
L2.8326 16.4543
" />
<path d="M3.3768 16.3938
L3.5583 16.4543
" />
<path d="M3.5583 16.4543
L3.8606 16.4543
" />
<path d="M3.8606 16.4543
L3.9816 16.3938
" />
<path d="M3.9816 16.3938
L4.0421 16.3333
" />
<path d="M4.0421 16.3333
L4.1026 16.2124
" />
<path d="M4.1026 16.2124
L4.1026 16.0914
" />
<path d="M4.1026 16.0914
L4.0421 15.9705
" />
<path d="M4.0421 15.9705
L3.9816 15.9100
" />
<path d="M3.9816 15.9100
L3.8606 15.8495
" />
<path d="M3.8606 15.8495
L3.6187 15.7890
" />
<path d="M3.6187 15.7890
L3.4978 15.7286
" />
<path d="M3.4978 15.7286
L3.4373 15.6681
" />
<path d="M3.4373 15.6681
L3.3768 15.5471
" />
<path d="M3.3768 15.5471
L3.3768 15.4262
" />
<path d="M3.3768 15.4262
L3.4373 15.3052
" />
<path d="M3.4373 15.3052
L3.4978 15.2447
" />
<path d="M3.4978 15.2447
L3.6187 15.1843
" />
<path d="M3.6187 15.1843
L3.9211 15.1843
" />
<path d="M3.9211 15.1843
L4.1026 15.2447
" />
<path d="M4.8283 16.4543
L4.7073 16.3938
" />
<path d="M4.7073 16.3938
L4.6468 16.3333
" />
<path d="M4.6468 16.3333
L4.5864 16.2124
" />
<path d="M4.5864 16.2124
L4.5864 15.8495
" />
<path d="M4.5864 15.8495
L4.6468 15.7286
" />
<path d="M4.6468 15.7286
L4.7073 15.6681
" />
<path d="M4.7073 15.6681
L4.8283 15.6076
" />
<path d="M4.8283 15.6076
L5.0097 15.6076
" />
<path d="M5.0097 15.6076
L5.1307 15.6681
" />
<path d="M5.1307 15.6681
L5.1911 15.7286
" />
<path d="M5.1911 15.7286
L5.2516 15.8495
" />
<path d="M5.2516 15.8495
L5.2516 16.2124
" />
<path d="M5.2516 16.2124
L5.1911 16.3333
" />
<path d="M5.1911 16.3333
L5.1307 16.3938
" />
<path d="M5.1307 16.3938
L5.0097 16.4543
" />
<path d="M5.0097 16.4543
L4.8283 16.4543
" />
<path d="M6.3402 16.3938
L6.2192 16.4543
" />
<path d="M6.2192 16.4543
L5.9773 16.4543
" />
<path d="M5.9773 16.4543
L5.8564 16.3938
" />
<path d="M5.8564 16.3938
L5.7959 16.3333
" />
<path d="M5.7959 16.3333
L5.7354 16.2124
" />
<path d="M5.7354 16.2124
L5.7354 15.8495
" />
<path d="M5.7354 15.8495
L5.7959 15.7286
" />
<path d="M5.7959 15.7286
L5.8564 15.6681
" />
<path d="M5.8564 15.6681
L5.9773 15.6076
" />
<path d="M5.9773 15.6076
L6.2192 15.6076
" />
<path d="M6.2192 15.6076
L6.3402 15.6681
" />
<path d="M6.8845 16.4543
L6.8845 15.1843
" />
<path d="M7.0054 15.9705
L7.3683 16.4543
" />
<path d="M7.3683 15.6076
L6.8845 16.0914
" />
<path d="M8.3964 16.3938
L8.2754 16.4543
" />
<path d="M8.2754 16.4543
L8.0335 16.4543
" />
<path d="M8.0335 16.4543
L7.9126 16.3938
" />
<path d="M7.9126 16.3938
L7.8521 16.2728
" />
<path d="M7.8521 16.2728
L7.8521 15.7890
" />
<path d="M7.8521 15.7890
L7.9126 15.6681
" />
<path d="M7.9126 15.6681
L8.0335 15.6076
" />
<path d="M8.0335 15.6076
L8.2754 15.6076
" />
<path d="M8.2754 15.6076
L8.3964 15.6681
" />
<path d="M8.3964 15.6681
L8.4568 15.7890
" />
<path d="M8.4568 15.7890
L8.4568 15.9100
" />
<path d="M8.4568 15.9100
L7.8521 16.0309
" />
<path d="M8.8197 15.6076
L9.3035 15.6076
" />
<path d="M9.0011 15.1843
L9.0011 16.2728
" />
<path d="M9.0011 16.2728
L9.0616 16.3938
" />
<path d="M9.0616 16.3938
L9.1826 16.4543
" />
<path d="M9.1826 16.4543
L9.3035 16.4543
" />
<path d="M9.4245 16.5752
L10.3921 16.5752
" />
<path d="M11.3597 16.4543
L10.6340 16.4543
" />
<path d="M10.9968 16.4543
L10.9968 15.1843
" />
<path d="M10.9968 15.1843
L10.8759 15.3657
" />
<path d="M10.8759 15.3657
L10.7549 15.4867
" />
<path d="M10.7549 15.4867
L10.6340 15.5471
" />
<path d="M11.7830 16.4543
L12.4483 15.6076
" />
<path d="M11.7830 15.6076
L12.4483 16.4543
" />
<path d="M13.5973 16.4543
L12.8716 16.4543
" />
<path d="M13.2345 16.4543
L13.2345 15.1843
" />
<path d="M13.2345 15.1843
L13.1135 15.3657
" />
<path d="M13.1135 15.3657
L12.9926 15.4867
" />
<path d="M12.9926 15.4867
L12.8716 15.5471
" />
<path d="M14.0811 15.3052
L14.1416 15.2447
" />
<path d="M14.1416 15.2447
L14.2626 15.1843
" />
<path d="M14.2626 15.1843
L14.5649 15.1843
" />
<path d="M14.5649 15.1843
L14.6859 15.2447
" />
<path d="M14.6859 15.2447
L14.7464 15.3052
" />
<path d="M14.7464 15.3052
L14.8068 15.4262
" />
<path d="M14.8068 15.4262
L14.8068 15.5471
" />
<path d="M14.8068 15.5471
L14.7464 15.7286
" />
<path d="M14.7464 15.7286
L14.0206 16.4543
" />
<path d="M14.0206 16.4543
L14.8068 16.4543
" />
<path d="M15.0487 16.5752
L16.0164 16.5752
" />
<path d="M16.3187 16.4543
L16.3187 15.1843
" />
<path d="M16.3187 15.1843
L16.8026 15.1843
" />
<path d="M16.8026 15.1843
L16.9235 15.2447
" />
<path d="M16.9235 15.2447
L16.9840 15.3052
" />
<path d="M16.9840 15.3052
L17.0445 15.4262
" />
<path d="M17.0445 15.4262
L17.0445 15.6076
" />
<path d="M17.0445 15.6076
L16.9840 15.7286
" />
<path d="M16.9840 15.7286
L16.9235 15.7890
" />
<path d="M16.9235 15.7890
L16.8026 15.8495
" />
<path d="M16.8026 15.8495
L16.3187 15.8495
" />
<path d="M17.5283 15.3052
L17.5887 15.2447
" />
<path d="M17.5887 15.2447
L17.7097 15.1843
" />
<path d="M17.7097 15.1843
L18.0121 15.1843
" />
<path d="M18.0121 15.1843
L18.1330 15.2447
" />
<path d="M18.1330 15.2447
L18.1935 15.3052
" />
<path d="M18.1935 15.3052
L18.2540 15.4262
" />
<path d="M18.2540 15.4262
L18.2540 15.5471
" />
<path d="M18.2540 15.5471
L18.1935 15.7286
" />
<path d="M18.1935 15.7286
L17.4678 16.4543
" />
<path d="M17.4678 16.4543
L18.2540 16.4543
" />
<path d="M18.7983 16.3333
L18.8587 16.3938
" />
<path d="M18.8587 16.3938
L18.7983 16.4543
" />
<path d="M18.7983 16.4543
L18.7378 16.3938
" />
<path d="M18.7378 16.3938
L18.7983 16.3333
" />
<path d="M18.7983 16.3333
L18.7983 16.4543
" />
<path d="M20.0078 15.1843
L19.4030 15.1843
" />
<path d="M19.4030 15.1843
L19.3426 15.7890
" />
<path d="M19.3426 15.7890
L19.4030 15.7286
" />
<path d="M19.4030 15.7286
L19.5240 15.6681
" />
<path d="M19.5240 15.6681
L19.8264 15.6681
" />
<path d="M19.8264 15.6681
L19.9473 15.7286
" />
<path d="M19.9473 15.7286
L20.0078 15.7890
" />
<path d="M20.0078 15.7890
L20.0683 15.9100
" />
<path d="M20.0683 15.9100
L20.0683 16.2124
" />
<path d="M20.0683 16.2124
L20.0078 16.3333
" />
<path d="M20.0078 16.3333
L19.9473 16.3938
" />
<path d="M19.9473 16.3938
L19.8264 16.4543
" />
<path d="M19.8264 16.4543
L19.5240 16.4543
" />
<path d="M19.5240 16.4543
L19.4030 16.3938
" />
<path d="M19.4030 16.3938
L19.3426 16.3333
" />
<path d="M21.1568 15.6076
L21.1568 16.4543
" />
<path d="M20.8545 15.1238
L20.5521 16.0309
" />
<path d="M20.5521 16.0309
L21.3383 16.0309
" />
<path d="M21.8221 16.4543
L21.8221 15.6076
" />
<path d="M21.8221 15.7286
L21.8826 15.6681
" />
<path d="M21.8826 15.6681
L22.0035 15.6076
" />
<path d="M22.0035 15.6076
L22.1849 15.6076
" />
<path d="M22.1849 15.6076
L22.3059 15.6681
" />
<path d="M22.3059 15.6681
L22.3664 15.7890
" />
<path d="M22.3664 15.7890
L22.3664 16.4543
" />
<path d="M22.3664 15.7890
L22.4268 15.6681
" />
<path d="M22.4268 15.6681
L22.5478 15.6076
" />
<path d="M22.5478 15.6076
L22.7292 15.6076
" />
<path d="M22.7292 15.6076
L22.8502 15.6681
" />
<path d="M22.8502 15.6681
L22.9107 15.7890
" />
<path d="M22.9107 15.7890
L22.9107 16.4543
" />
<path d="M23.5154 16.4543
L23.5154 15.6076
" />
<path d="M23.5154 15.7286
L23.5759 15.6681
" />
<path d="M23.5759 15.6681
L23.6968 15.6076
" />
<path d="M23.6968 15.6076
L23.8783 15.6076
" />
<path d="M23.8783 15.6076
L23.9992 15.6681
" />
<path d="M23.9992 15.6681
L24.0597 15.7890
" />
<path d="M24.0597 15.7890
L24.0597 16.4543
" />
<path d="M24.0597 15.7890
L24.1202 15.6681
" />
<path d="M24.1202 15.6681
L24.2411 15.6076
" />
<path d="M24.2411 15.6076
L24.4226 15.6076
" />
<path d="M24.4226 15.6076
L24.5435 15.6681
" />
<path d="M24.5435 15.6681
L24.6040 15.7890
" />
<path d="M24.6040 15.7890
L24.6040 16.4543
" />
<path d="M24.9064 16.5752
L25.8740 16.5752
" />
<path d="M25.9949 15.1843
L26.4183 16.4543
" />
<path d="M26.4183 16.4543
L26.8416 15.1843
" />
<path d="M27.7487 16.3938
L27.6278 16.4543
" />
<path d="M27.6278 16.4543
L27.3859 16.4543
" />
<path d="M27.3859 16.4543
L27.2649 16.3938
" />
<path d="M27.2649 16.3938
L27.2045 16.2728
" />
<path d="M27.2045 16.2728
L27.2045 15.7890
" />
<path d="M27.2045 15.7890
L27.2649 15.6681
" />
<path d="M27.2649 15.6681
L27.3859 15.6076
" />
<path d="M27.3859 15.6076
L27.6278 15.6076
" />
<path d="M27.6278 15.6076
L27.7487 15.6681
" />
<path d="M27.7487 15.6681
L27.8092 15.7890
" />
<path d="M27.8092 15.7890
L27.8092 15.9100
" />
<path d="M27.8092 15.9100
L27.2045 16.0309
" />
<path d="M28.3535 16.4543
L28.3535 15.6076
" />
<path d="M28.3535 15.8495
L28.4140 15.7286
" />
<path d="M28.4140 15.7286
L28.4745 15.6681
" />
<path d="M28.4745 15.6681
L28.5954 15.6076
" />
<path d="M28.5954 15.6076
L28.7164 15.6076
" />
<path d="M28.9583 15.6076
L29.4421 15.6076
" />
<path d="M29.1397 15.1843
L29.1397 16.2728
" />
<path d="M29.1397 16.2728
L29.2002 16.3938
" />
<path d="M29.2002 16.3938
L29.3211 16.4543
" />
<path d="M29.3211 16.4543
L29.4421 16.4543
" />
<path d="M29.8654 16.4543
L29.8654 15.6076
" />
<path d="M29.8654 15.1843
L29.8049 15.2447
" />
<path d="M29.8049 15.2447
L29.8654 15.3052
" />
<path d="M29.8654 15.3052
L29.9259 15.2447
" />
<path d="M29.9259 15.2447
L29.8654 15.1843
" />
<path d="M29.8654 15.1843
L29.8654 15.3052
" />
<path d="M31.0145 16.3938
L30.8935 16.4543
" />
<path d="M30.8935 16.4543
L30.6516 16.4543
" />
<path d="M30.6516 16.4543
L30.5306 16.3938
" />
<path d="M30.5306 16.3938
L30.4702 16.3333
" />
<path d="M30.4702 16.3333
L30.4097 16.2124
" />
<path d="M30.4097 16.2124
L30.4097 15.8495
" />
<path d="M30.4097 15.8495
L30.4702 15.7286
" />
<path d="M30.4702 15.7286
L30.5306 15.6681
" />
<path d="M30.5306 15.6681
L30.6516 15.6076
" />
<path d="M30.6516 15.6076
L30.8935 15.6076
" />
<path d="M30.8935 15.6076
L31.0145 15.6681
" />
<path d="M32.1030 16.4543
L32.1030 15.7890
" />
<path d="M32.1030 15.7890
L32.0426 15.6681
" />
<path d="M32.0426 15.6681
L31.9216 15.6076
" />
<path d="M31.9216 15.6076
L31.6797 15.6076
" />
<path d="M31.6797 15.6076
L31.5587 15.6681
" />
<path d="M32.1030 16.3938
L31.9821 16.4543
" />
<path d="M31.9821 16.4543
L31.6797 16.4543
" />
<path d="M31.6797 16.4543
L31.5587 16.3938
" />
<path d="M31.5587 16.3938
L31.4983 16.2728
" />
<path d="M31.4983 16.2728
L31.4983 16.1519
" />
<path d="M31.4983 16.1519
L31.5587 16.0309
" />
<path d="M31.5587 16.0309
L31.6797 15.9705
" />
<path d="M31.6797 15.9705
L31.9821 15.9705
" />
<path d="M31.9821 15.9705
L32.1030 15.9100
" />
<path d="M32.8892 16.4543
L32.7683 16.3938
" />
<path d="M32.7683 16.3938
L32.7078 16.2728
" />
<path d="M32.7078 16.2728
L32.7078 15.1843
" />
<path d="M33.0706 16.5752
L34.0383 16.5752
" />
<path d="M34.2802 16.3938
L34.4616 16.4543
" />
<path d="M34.4616 16.4543
L34.7640 16.4543
" />
<path d="M34.7640 16.4543
L34.8849 16.3938
" />
<path d="M34.8849 16.3938
L34.9454 16.3333
" />
<path d="M34.9454 16.3333
L35.0059 16.2124
" />
<path d="M35.0059 16.2124
L35.0059 16.0914
" />
<path d="M35.0059 16.0914
L34.9454 15.9705
" />
<path d="M34.9454 15.9705
L34.8849 15.9100
" />
<path d="M34.8849 15.9100
L34.7640 15.8495
" />
<path d="M34.7640 15.8495
L34.5221 15.7890
" />
<path d="M34.5221 15.7890
L34.4011 15.7286
" />
<path d="M34.4011 15.7286
L34.3406 15.6681
" />
<path d="M34.3406 15.6681
L34.2802 15.5471
" />
<path d="M34.2802 15.5471
L34.2802 15.4262
" />
<path d="M34.2802 15.4262
L34.3406 15.3052
" />
<path d="M34.3406 15.3052
L34.4011 15.2447
" />
<path d="M34.4011 15.2447
L34.5221 15.1843
" />
<path d="M34.5221 15.1843
L34.8245 15.1843
" />
<path d="M34.8245 15.1843
L35.0059 15.2447
" />
<path d="M35.5502 16.4543
L35.5502 15.1843
" />
<path d="M35.5502 15.1843
L35.9735 16.0914
" />
<path d="M35.9735 16.0914
L36.3968 15.1843
" />
<path d="M36.3968 15.1843
L36.3968 16.4543
" />
<path d="M37.0016 16.4543
L37.0016 15.1843
" />
<path d="M37.0016 15.1843
L37.3040 15.1843
" />
<path d="M37.3040 15.1843
L37.4854 15.2447
" />
<path d="M37.4854 15.2447
L37.6064 15.3657
" />
<path d="M37.6064 15.3657
L37.6668 15.4867
" />
<path d="M37.6668 15.4867
L37.7273 15.7286
" />
<path d="M37.7273 15.7286
L37.7273 15.9100
" />
<path d="M37.7273 15.9100
L37.6668 16.1519
" />
<path d="M37.6668 16.1519
L37.6064 16.2728
" />
<path d="M37.6064 16.2728
L37.4854 16.3938
" />
<path d="M37.4854 16.3938
L37.3040 16.4543
" />
<path d="M37.3040 16.4543
L37.0016 16.4543
" />
<path d="M37.9692 16.5752
L38.9368 16.5752
" />
<path d="M39.2392 16.4543
L39.2392 15.1843
" />
<path d="M39.2392 15.1843
L39.7230 15.1843
" />
<path d="M39.7230 15.1843
L39.8440 15.2447
" />
<path d="M39.8440 15.2447
L39.9045 15.3052
" />
<path d="M39.9045 15.3052
L39.9649 15.4262
" />
<path d="M39.9649 15.4262
L39.9649 15.6076
" />
<path d="M39.9649 15.6076
L39.9045 15.7286
" />
<path d="M39.9045 15.7286
L39.8440 15.7890
" />
<path d="M39.8440 15.7890
L39.7230 15.8495
" />
<path d="M39.7230 15.8495
L39.2392 15.8495
" />
<path d="M40.5092 16.4543
L40.5092 15.6076
" />
<path d="M40.5092 15.1843
L40.4487 15.2447
" />
<path d="M40.4487 15.2447
L40.5092 15.3052
" />
<path d="M40.5092 15.3052
L40.5697 15.2447
" />
<path d="M40.5697 15.2447
L40.5092 15.1843
" />
<path d="M40.5092 15.1843
L40.5092 15.3052
" />
<path d="M41.1140 15.6076
L41.1140 16.4543
" />
<path d="M41.1140 15.7286
L41.1745 15.6681
" />
<path d="M41.1745 15.6681
L41.2954 15.6076
" />
<path d="M41.2954 15.6076
L41.4768 15.6076
" />
<path d="M41.4768 15.6076
L41.5978 15.6681
" />
<path d="M41.5978 15.6681
L41.6583 15.7890
" />
<path d="M41.6583 15.7890
L41.6583 16.4543
" />
<path d="M42.9283 16.4543
L42.2026 16.4543
" />
<path d="M42.5654 16.4543
L42.5654 15.1843
" />
<path d="M42.5654 15.1843
L42.4445 15.3657
" />
<path d="M42.4445 15.3657
L42.3235 15.4867
" />
<path d="M42.3235 15.4867
L42.2026 15.5471
" />
<path d="M44.0773 16.4543
L43.4726 16.4543
" />
<path d="M43.4726 16.4543
L43.4726 15.1843
" />
<path d="M44.9845 16.3938
L44.8635 16.4543
" />
<path d="M44.8635 16.4543
L44.6216 16.4543
" />
<path d="M44.6216 16.4543
L44.5006 16.3938
" />
<path d="M44.5006 16.3938
L44.4402 16.2728
" />
<path d="M44.4402 16.2728
L44.4402 15.7890
" />
<path d="M44.4402 15.7890
L44.5006 15.6681
" />
<path d="M44.5006 15.6681
L44.6216 15.6076
" />
<path d="M44.6216 15.6076
L44.8635 15.6076
" />
<path d="M44.8635 15.6076
L44.9845 15.6681
" />
<path d="M44.9845 15.6681
L45.0449 15.7890
" />
<path d="M45.0449 15.7890
L45.0449 15.9100
" />
<path d="M45.0449 15.9100
L44.4402 16.0309
" />
<path d="M45.4078 15.6076
L45.8916 15.6076
" />
<path d="M45.5892 16.4543
L45.5892 15.3657
" />
<path d="M45.5892 15.3657
L45.6497 15.2447
" />
<path d="M45.6497 15.2447
L45.7706 15.1843
" />
<path d="M45.7706 15.1843
L45.8916 15.1843
" />
<path d="M46.1335 15.6076
L46.6173 15.6076
" />
<path d="M46.3149 15.1843
L46.3149 16.2728
" />
<path d="M46.3149 16.2728
L46.3754 16.3938
" />
<path d="M46.3754 16.3938
L46.4964 16.4543
" />
<path d="M46.4964 16.4543
L46.6173 16.4543
" />
</g></g>
<g style="fill:none; 
stroke:#AFAFAF; stroke-width:0.1500; stroke-opacity:1; 
stroke-linecap:round; stroke-linejoin:round;">
<g transform="rotate(-90.000000 23.4247 15.8750)">
<text x="23.4247" y="16.3750"
textLength="4.5357" font-size="1.3333" lengthAdjust="spacingAndGlyphs"
text-anchor="middle" opacity="0">REF**</text>
</g>
<g class="stroked-text"><desc>REF**</desc>
<path d="M23.8795 17.2083
L23.4033 17.5417
" />
<path d="M23.8795 17.7798
L22.8795 17.7798
" />
<path d="M22.8795 17.7798
L22.8795 17.3988
" />
<path d="M22.8795 17.3988
L22.9271 17.3036
" />
<path d="M22.9271 17.3036
L22.9748 17.2560
" />
<path d="M22.9748 17.2560
L23.0700 17.2083
" />
<path d="M23.0700 17.2083
L23.2128 17.2083
" />
<path d="M23.2128 17.2083
L23.3081 17.2560
" />
<path d="M23.3081 17.2560
L23.3557 17.3036
" />
<path d="M23.3557 17.3036
L23.4033 17.3988
" />
<path d="M23.4033 17.3988
L23.4033 17.7798
" />
<path d="M23.3557 16.7798
L23.3557 16.4464
" />
<path d="M23.8795 16.3036
L23.8795 16.7798
" />
<path d="M23.8795 16.7798
L22.8795 16.7798
" />
<path d="M22.8795 16.7798
L22.8795 16.3036
" />
<path d="M23.3557 15.5417
L23.3557 15.8750
" />
<path d="M23.8795 15.8750
L22.8795 15.8750
" />
<path d="M22.8795 15.8750
L22.8795 15.3988
" />
<path d="M22.8795 14.8750
L23.1176 14.8750
" />
<path d="M23.0224 15.1131
L23.1176 14.8750
" />
<path d="M23.1176 14.8750
L23.0224 14.6369
" />
<path d="M23.3081 15.0179
L23.1176 14.8750
" />
<path d="M23.1176 14.8750
L23.3081 14.7321
" />
<path d="M22.8795 14.1131
L23.1176 14.1131
" />
<path d="M23.0224 14.3512
L23.1176 14.1131
" />
<path d="M23.1176 14.1131
L23.0224 13.8750
" />
<path d="M23.3081 14.2560
L23.1176 14.1131
" />
<path d="M23.1176 14.1131
L23.3081 13.9702
" />
</g></g>
<g style="fill:none; 
stroke:#AFAFAF; stroke-width:0.1000; stroke-opacity:1; 
stroke-linecap:round; stroke-linejoin:round;">
<path d="M21.1547 1.6050
L22.1547 1.6050
" />
<path d="M21.1547 2.2050
L21.1547 1.6050
" />
<path d="M21.1547 6.6850
L22.1547 6.6850
" />
<path d="M21.1547 7.2850
L21.1547 6.6850
" />
<path d="M21.1547 11.7650
L22.1547 11.7650
" />
<path d="M21.1547 12.3650
L21.1547 11.7650
" />
<path d="M21.1547 16.8450
L22.1547 16.8450
" />
<path d="M21.1547 17.4450
L21.1547 16.8450
" />
<path d="M21.1547 21.9250
L22.1547 21.9250
" />
<path d="M21.1547 22.5250
L21.1547 21.9250
" />
<path d="M21.1547 27.0050
L22.1547 27.0050
" />
<path d="M21.1547 27.6050
L21.1547 27.0050
" />
<path d="M22.1547 1.1700
L22.7897 0.5350
" />
<path d="M22.1547 2.2050
L21.1547 2.2050
" />
<path d="M22.1547 7.2850
L21.1547 7.2850
" />
<path d="M22.1547 12.3650
L21.1547 12.3650
" />
<path d="M22.1547 17.4450
L21.1547 17.4450
" />
<path d="M22.1547 22.5250
L21.1547 22.5250
" />
<path d="M22.1547 27.6050
L21.1547 27.6050
" />
<path d="M22.1547 31.2150
L22.1547 1.1700
" />
<path d="M22.7897 0.5350
L24.6947 0.5350
" />
<path d="M24.6947 0.5350
L24.6947 31.2150
" />
<path d="M24.6947 4.1450
L25.6947 4.1450
" />
<path d="M24.6947 9.2250
L25.6947 9.2250
" />
<path d="M24.6947 14.3050
L25.6947 14.3050
" />
<path d="M24.6947 19.3850
L25.6947 19.3850
" />
<path d="M24.6947 24.4650
L25.6947 24.4650
" />
<path d="M24.6947 29.5450
L25.6947 29.5450
" />
<path d="M24.6947 31.2150
L22.1547 31.2150
" />
<path d="M25.6947 4.1450
L25.6947 4.7450
" />
<path d="M25.6947 4.7450
L24.6947 4.7450
" />
<path d="M25.6947 9.2250
L25.6947 9.8250
" />
<path d="M25.6947 9.8250
L24.6947 9.8250
" />
<path d="M25.6947 14.3050
L25.6947 14.9050
" />
<path d="M25.6947 14.9050
L24.6947 14.9050
" />
<path d="M25.6947 19.3850
L25.6947 19.9850
" />
<path d="M25.6947 19.9850
L24.6947 19.9850
" />
<path d="M25.6947 24.4650
L25.6947 25.0650
" />
<path d="M25.6947 25.0650
L24.6947 25.0650
" />
<path d="M25.6947 29.5450
L25.6947 30.1450
" />
<path d="M25.6947 30.1450
L24.6947 30.1450
" />
</g> 
</svg>
