<?xml version="1.0" standalone="no"?>
 <!DOCTYPE svg PUBLIC "-//W3C//DTD SVG 1.1//EN" 
 "http://www.w3.org/Graphics/SVG/1.1/DTD/svg11.dtd"> 
<svg
  xmlns:svg="http://www.w3.org/2000/svg"
  xmlns="http://www.w3.org/2000/svg"
  xmlns:xlink="http://www.w3.org/1999/xlink"
  version="1.1"
  width="48.4632mm" height="59.5376mm" viewBox="0.0000 0.0000 48.4632 59.5376">
<title>SVG Image created as working-brd.svg date 2024/04/03 21:36:41 </title>
  <desc>Image generated by PCBNEW </desc>
<g style="fill:#000000; fill-opacity:1.0000;stroke:#000000; stroke-opacity:1.0000;
stroke-linecap:round; stroke-linejoin:round;"
 transform="translate(0 0) scale(1 1)">
<path style="fill:#C83434; fill-opacity:1.0000; stroke:none;fill-rule:evenodd;"
d="M 24.6411,2.3350
24.6411,1.3350
27.1511,1.3350
27.1511,2.3350
Z" /> 
<path style="fill:#C83434; fill-opacity:1.0000; stroke:none;fill-rule:evenodd;"
d="M 21.3311,4.8750
21.3311,3.8750
23.8411,3.8750
23.8411,4.8750
Z" /> 
<path style="fill:#C83434; fill-opacity:1.0000; stroke:none;fill-rule:evenodd;"
d="M 24.6411,7.4150
24.6411,6.4150
27.1511,6.4150
27.1511,7.4150
Z" /> 
<path style="fill:#C83434; fill-opacity:1.0000; stroke:none;fill-rule:evenodd;"
d="M 21.3311,9.9550
21.3311,8.9550
23.8411,8.9550
23.8411,9.9550
Z" /> 
<path style="fill:#C83434; fill-opacity:1.0000; stroke:none;fill-rule:evenodd;"
d="M 24.6411,12.4950
24.6411,11.4950
27.1511,11.4950
27.1511,12.4950
Z" /> 
<path style="fill:#C83434; fill-opacity:1.0000; stroke:none;fill-rule:evenodd;"
d="M 21.3311,15.0350
21.3311,14.0350
23.8411,14.0350
23.8411,15.0350
Z" /> 
<path style="fill:#C83434; fill-opacity:1.0000; stroke:none;fill-rule:evenodd;"
d="M 24.6411,17.5750
24.6411,16.5750
27.1511,16.5750
27.1511,17.5750
Z" /> 
<path style="fill:#C83434; fill-opacity:1.0000; stroke:none;fill-rule:evenodd;"
d="M 21.3311,20.1150
21.3311,19.1150
23.8411,19.1150
23.8411,20.1150
Z" /> 
<path style="fill:#C83434; fill-opacity:1.0000; stroke:none;fill-rule:evenodd;"
d="M 24.6411,22.6550
24.6411,21.6550
27.1511,21.6550
27.1511,22.6550
Z" /> 
<path style="fill:#C83434; fill-opacity:1.0000; stroke:none;fill-rule:evenodd;"
d="M 21.3311,25.1950
21.3311,24.1950
23.8411,24.1950
23.8411,25.1950
Z" /> 
<path style="fill:#C83434; fill-opacity:1.0000; stroke:none;fill-rule:evenodd;"
d="M 24.6411,27.7350
24.6411,26.7350
27.1511,26.7350
27.1511,27.7350
Z" /> 
<path style="fill:#C83434; fill-opacity:1.0000; stroke:none;fill-rule:evenodd;"
d="M 21.3311,30.2750
21.3311,29.2750
23.8411,29.2750
23.8411,30.2750
Z" /> 
<path style="fill:#C83434; fill-opacity:1.0000; stroke:none;fill-rule:evenodd;"
d="M 24.6411,32.8150
24.6411,31.8150
27.1511,31.8150
27.1511,32.8150
Z" /> 
<path style="fill:#C83434; fill-opacity:1.0000; stroke:none;fill-rule:evenodd;"
d="M 21.3311,35.3550
21.3311,34.3550
23.8411,34.3550
23.8411,35.3550
Z" /> 
<path style="fill:#C83434; fill-opacity:1.0000; stroke:none;fill-rule:evenodd;"
d="M 24.6411,37.8950
24.6411,36.8950
27.1511,36.8950
27.1511,37.8950
Z" /> 
<path style="fill:#C83434; fill-opacity:1.0000; stroke:none;fill-rule:evenodd;"
d="M 21.3311,40.4350
21.3311,39.4350
23.8411,39.4350
23.8411,40.4350
Z" /> 
<path style="fill:#C83434; fill-opacity:1.0000; stroke:none;fill-rule:evenodd;"
d="M 24.6411,42.9750
24.6411,41.9750
27.1511,41.9750
27.1511,42.9750
Z" /> 
<path style="fill:#C83434; fill-opacity:1.0000; stroke:none;fill-rule:evenodd;"
d="M 21.3311,45.5150
21.3311,44.5150
23.8411,44.5150
23.8411,45.5150
Z" /> 
<path style="fill:#C83434; fill-opacity:1.0000; stroke:none;fill-rule:evenodd;"
d="M 24.6411,48.0550
24.6411,47.0550
27.1511,47.0550
27.1511,48.0550
Z" /> 
<path style="fill:#C83434; fill-opacity:1.0000; stroke:none;fill-rule:evenodd;"
d="M 21.3311,50.5950
21.3311,49.5950
23.8411,49.5950
23.8411,50.5950
Z" /> 
<path style="fill:#C83434; fill-opacity:1.0000; stroke:none;fill-rule:evenodd;"
d="M 24.6411,53.1350
24.6411,52.1350
27.1511,52.1350
27.1511,53.1350
Z" /> 
<path style="fill:#C83434; fill-opacity:1.0000; stroke:none;fill-rule:evenodd;"
d="M 21.3311,55.6750
21.3311,54.6750
23.8411,54.6750
23.8411,55.6750
Z" /> 
<path style="fill:#C83434; fill-opacity:1.0000; stroke:none;fill-rule:evenodd;"
d="M 24.6411,58.2150
24.6411,57.2150
27.1511,57.2150
27.1511,58.2150
Z" /> 
<path style="fill:#D864FF; fill-opacity:0.4000; stroke:none;fill-rule:evenodd;"
d="M 24.6411,2.3350
24.6411,1.3350
27.1511,1.3350
27.1511,2.3350
Z" /> 
<path style="fill:#D864FF; fill-opacity:0.4000; stroke:none;fill-rule:evenodd;"
d="M 21.3311,4.8750
21.3311,3.8750
23.8411,3.8750
23.8411,4.8750
Z" /> 
<path style="fill:#D864FF; fill-opacity:0.4000; stroke:none;fill-rule:evenodd;"
d="M 24.6411,7.4150
24.6411,6.4150
27.1511,6.4150
27.1511,7.4150
Z" /> 
<path style="fill:#D864FF; fill-opacity:0.4000; stroke:none;fill-rule:evenodd;"
d="M 21.3311,9.9550
21.3311,8.9550
23.8411,8.9550
23.8411,9.9550
Z" /> 
<path style="fill:#D864FF; fill-opacity:0.4000; stroke:none;fill-rule:evenodd;"
d="M 24.6411,12.4950
24.6411,11.4950
27.1511,11.4950
27.1511,12.4950
Z" /> 
<path style="fill:#D864FF; fill-opacity:0.4000; stroke:none;fill-rule:evenodd;"
d="M 21.3311,15.0350
21.3311,14.0350
23.8411,14.0350
23.8411,15.0350
Z" /> 
<path style="fill:#D864FF; fill-opacity:0.4000; stroke:none;fill-rule:evenodd;"
d="M 24.6411,17.5750
24.6411,16.5750
27.1511,16.5750
27.1511,17.5750
Z" /> 
<path style="fill:#D864FF; fill-opacity:0.4000; stroke:none;fill-rule:evenodd;"
d="M 21.3311,20.1150
21.3311,19.1150
23.8411,19.1150
23.8411,20.1150
Z" /> 
<path style="fill:#D864FF; fill-opacity:0.4000; stroke:none;fill-rule:evenodd;"
d="M 24.6411,22.6550
24.6411,21.6550
27.1511,21.6550
27.1511,22.6550
Z" /> 
<path style="fill:#D864FF; fill-opacity:0.4000; stroke:none;fill-rule:evenodd;"
d="M 21.3311,25.1950
21.3311,24.1950
23.8411,24.1950
23.8411,25.1950
Z" /> 
<path style="fill:#D864FF; fill-opacity:0.4000; stroke:none;fill-rule:evenodd;"
d="M 24.6411,27.7350
24.6411,26.7350
27.1511,26.7350
27.1511,27.7350
Z" /> 
<path style="fill:#D864FF; fill-opacity:0.4000; stroke:none;fill-rule:evenodd;"
d="M 21.3311,30.2750
21.3311,29.2750
23.8411,29.2750
23.8411,30.2750
Z" /> 
<path style="fill:#D864FF; fill-opacity:0.4000; stroke:none;fill-rule:evenodd;"
d="M 24.6411,32.8150
24.6411,31.8150
27.1511,31.8150
27.1511,32.8150
Z" /> 
<path style="fill:#D864FF; fill-opacity:0.4000; stroke:none;fill-rule:evenodd;"
d="M 21.3311,35.3550
21.3311,34.3550
23.8411,34.3550
23.8411,35.3550
Z" /> 
<path style="fill:#D864FF; fill-opacity:0.4000; stroke:none;fill-rule:evenodd;"
d="M 24.6411,37.8950
24.6411,36.8950
27.1511,36.8950
27.1511,37.8950
Z" /> 
<path style="fill:#D864FF; fill-opacity:0.4000; stroke:none;fill-rule:evenodd;"
d="M 21.3311,40.4350
21.3311,39.4350
23.8411,39.4350
23.8411,40.4350
Z" /> 
<path style="fill:#D864FF; fill-opacity:0.4000; stroke:none;fill-rule:evenodd;"
d="M 24.6411,42.9750
24.6411,41.9750
27.1511,41.9750
27.1511,42.9750
Z" /> 
<path style="fill:#D864FF; fill-opacity:0.4000; stroke:none;fill-rule:evenodd;"
d="M 21.3311,45.5150
21.3311,44.5150
23.8411,44.5150
23.8411,45.5150
Z" /> 
<path style="fill:#D864FF; fill-opacity:0.4000; stroke:none;fill-rule:evenodd;"
d="M 24.6411,48.0550
24.6411,47.0550
27.1511,47.0550
27.1511,48.0550
Z" /> 
<path style="fill:#D864FF; fill-opacity:0.4000; stroke:none;fill-rule:evenodd;"
d="M 21.3311,50.5950
21.3311,49.5950
23.8411,49.5950
23.8411,50.5950
Z" /> 
<path style="fill:#D864FF; fill-opacity:0.4000; stroke:none;fill-rule:evenodd;"
d="M 24.6411,53.1350
24.6411,52.1350
27.1511,52.1350
27.1511,53.1350
Z" /> 
<path style="fill:#D864FF; fill-opacity:0.4000; stroke:none;fill-rule:evenodd;"
d="M 21.3311,55.6750
21.3311,54.6750
23.8411,54.6750
23.8411,55.6750
Z" /> 
<path style="fill:#D864FF; fill-opacity:0.4000; stroke:none;fill-rule:evenodd;"
d="M 24.6411,58.2150
24.6411,57.2150
27.1511,57.2150
27.1511,58.2150
Z" /> 
<path style="fill:#B4A09A; fill-opacity:0.9000; stroke:none;fill-rule:evenodd;"
d="M 24.6411,2.3350
24.6411,1.3350
27.1511,1.3350
27.1511,2.3350
Z" /> 
<path style="fill:#B4A09A; fill-opacity:0.9000; stroke:none;fill-rule:evenodd;"
d="M 21.3311,4.8750
21.3311,3.8750
23.8411,3.8750
23.8411,4.8750
Z" /> 
<path style="fill:#B4A09A; fill-opacity:0.9000; stroke:none;fill-rule:evenodd;"
d="M 24.6411,7.4150
24.6411,6.4150
27.1511,6.4150
27.1511,7.4150
Z" /> 
<path style="fill:#B4A09A; fill-opacity:0.9000; stroke:none;fill-rule:evenodd;"
d="M 21.3311,9.9550
21.3311,8.9550
23.8411,8.9550
23.8411,9.9550
Z" /> 
<path style="fill:#B4A09A; fill-opacity:0.9000; stroke:none;fill-rule:evenodd;"
d="M 24.6411,12.4950
24.6411,11.4950
27.1511,11.4950
27.1511,12.4950
Z" /> 
<path style="fill:#B4A09A; fill-opacity:0.9000; stroke:none;fill-rule:evenodd;"
d="M 21.3311,15.0350
21.3311,14.0350
23.8411,14.0350
23.8411,15.0350
Z" /> 
<path style="fill:#B4A09A; fill-opacity:0.9000; stroke:none;fill-rule:evenodd;"
d="M 24.6411,17.5750
24.6411,16.5750
27.1511,16.5750
27.1511,17.5750
Z" /> 
<path style="fill:#B4A09A; fill-opacity:0.9000; stroke:none;fill-rule:evenodd;"
d="M 21.3311,20.1150
21.3311,19.1150
23.8411,19.1150
23.8411,20.1150
Z" /> 
<path style="fill:#B4A09A; fill-opacity:0.9000; stroke:none;fill-rule:evenodd;"
d="M 24.6411,22.6550
24.6411,21.6550
27.1511,21.6550
27.1511,22.6550
Z" /> 
<path style="fill:#B4A09A; fill-opacity:0.9000; stroke:none;fill-rule:evenodd;"
d="M 21.3311,25.1950
21.3311,24.1950
23.8411,24.1950
23.8411,25.1950
Z" /> 
<path style="fill:#B4A09A; fill-opacity:0.9000; stroke:none;fill-rule:evenodd;"
d="M 24.6411,27.7350
24.6411,26.7350
27.1511,26.7350
27.1511,27.7350
Z" /> 
<path style="fill:#B4A09A; fill-opacity:0.9000; stroke:none;fill-rule:evenodd;"
d="M 21.3311,30.2750
21.3311,29.2750
23.8411,29.2750
23.8411,30.2750
Z" /> 
<path style="fill:#B4A09A; fill-opacity:0.9000; stroke:none;fill-rule:evenodd;"
d="M 24.6411,32.8150
24.6411,31.8150
27.1511,31.8150
27.1511,32.8150
Z" /> 
<path style="fill:#B4A09A; fill-opacity:0.9000; stroke:none;fill-rule:evenodd;"
d="M 21.3311,35.3550
21.3311,34.3550
23.8411,34.3550
23.8411,35.3550
Z" /> 
<path style="fill:#B4A09A; fill-opacity:0.9000; stroke:none;fill-rule:evenodd;"
d="M 24.6411,37.8950
24.6411,36.8950
27.1511,36.8950
27.1511,37.8950
Z" /> 
<path style="fill:#B4A09A; fill-opacity:0.9000; stroke:none;fill-rule:evenodd;"
d="M 21.3311,40.4350
21.3311,39.4350
23.8411,39.4350
23.8411,40.4350
Z" /> 
<path style="fill:#B4A09A; fill-opacity:0.9000; stroke:none;fill-rule:evenodd;"
d="M 24.6411,42.9750
24.6411,41.9750
27.1511,41.9750
27.1511,42.9750
Z" /> 
<path style="fill:#B4A09A; fill-opacity:0.9000; stroke:none;fill-rule:evenodd;"
d="M 21.3311,45.5150
21.3311,44.5150
23.8411,44.5150
23.8411,45.5150
Z" /> 
<path style="fill:#B4A09A; fill-opacity:0.9000; stroke:none;fill-rule:evenodd;"
d="M 24.6411,48.0550
24.6411,47.0550
27.1511,47.0550
27.1511,48.0550
Z" /> 
<path style="fill:#B4A09A; fill-opacity:0.9000; stroke:none;fill-rule:evenodd;"
d="M 21.3311,50.5950
21.3311,49.5950
23.8411,49.5950
23.8411,50.5950
Z" /> 
<path style="fill:#B4A09A; fill-opacity:0.9000; stroke:none;fill-rule:evenodd;"
d="M 24.6411,53.1350
24.6411,52.1350
27.1511,52.1350
27.1511,53.1350
Z" /> 
<path style="fill:#B4A09A; fill-opacity:0.9000; stroke:none;fill-rule:evenodd;"
d="M 21.3311,55.6750
21.3311,54.6750
23.8411,54.6750
23.8411,55.6750
Z" /> 
<path style="fill:#B4A09A; fill-opacity:0.9000; stroke:none;fill-rule:evenodd;"
d="M 24.6411,58.2150
24.6411,57.2150
27.1511,57.2150
27.1511,58.2150
Z" /> 
</g>
<g style="fill:none; 
stroke:#F2EDA1; stroke-width:0.1588; stroke-opacity:1; 
stroke-linecap:round; stroke-linejoin:round;">
<text x="24.2411" y="30.4100"
textLength="5.6651" font-size="1.6933" lengthAdjust="spacingAndGlyphs"
text-anchor="middle" opacity="0">REF**</text>
<g class="stroked-text"><desc>REF**</desc>
<path d="M22.5478 30.3543
L22.1245 29.7495
" />
<path d="M21.8221 30.3543
L21.8221 29.0843
" />
<path d="M21.8221 29.0843
L22.3059 29.0843
" />
<path d="M22.3059 29.0843
L22.4268 29.1447
" />
<path d="M22.4268 29.1447
L22.4873 29.2052
" />
<path d="M22.4873 29.2052
L22.5478 29.3262
" />
<path d="M22.5478 29.3262
L22.5478 29.5076
" />
<path d="M22.5478 29.5076
L22.4873 29.6286
" />
<path d="M22.4873 29.6286
L22.4268 29.6890
" />
<path d="M22.4268 29.6890
L22.3059 29.7495
" />
<path d="M22.3059 29.7495
L21.8221 29.7495
" />
<path d="M23.0921 29.6890
L23.5154 29.6890
" />
<path d="M23.6968 30.3543
L23.0921 30.3543
" />
<path d="M23.0921 30.3543
L23.0921 29.0843
" />
<path d="M23.0921 29.0843
L23.6968 29.0843
" />
<path d="M24.6645 29.6890
L24.2411 29.6890
" />
<path d="M24.2411 30.3543
L24.2411 29.0843
" />
<path d="M24.2411 29.0843
L24.8459 29.0843
" />
<path d="M25.5111 29.0843
L25.5111 29.3867
" />
<path d="M25.2087 29.2657
L25.5111 29.3867
" />
<path d="M25.5111 29.3867
L25.8135 29.2657
" />
<path d="M25.3297 29.6286
L25.5111 29.3867
" />
<path d="M25.5111 29.3867
L25.6926 29.6286
" />
<path d="M26.4787 29.0843
L26.4787 29.3867
" />
<path d="M26.1764 29.2657
L26.4787 29.3867
" />
<path d="M26.4787 29.3867
L26.7811 29.2657
" />
<path d="M26.2973 29.6286
L26.4787 29.3867
" />
<path d="M26.4787 29.3867
L26.6602 29.6286
" />
</g></g>
<g style="fill:none; 
stroke:#F2EDA1; stroke-width:0.1200; stroke-opacity:1; 
stroke-linecap:round; stroke-linejoin:round;">
<path d="M22.9111 0.5050
L22.9111 3.6150
" />
<path d="M22.9111 0.5050
L25.5711 0.5050
" />
<path d="M22.9111 5.1350
L22.9111 8.6950
" />
<path d="M22.9111 10.2150
L22.9111 13.7750
" />
<path d="M22.9111 15.2950
L22.9111 18.8550
" />
<path d="M22.9111 20.3750
L22.9111 23.9350
" />
<path d="M22.9111 25.4550
L22.9111 29.0150
" />
<path d="M22.9111 30.5350
L22.9111 34.0950
" />
<path d="M22.9111 35.6150
L22.9111 39.1750
" />
<path d="M22.9111 40.6950
L22.9111 44.2550
" />
<path d="M22.9111 45.7750
L22.9111 49.3350
" />
<path d="M22.9111 50.8550
L22.9111 54.4150
" />
<path d="M22.9111 55.9350
L22.9111 59.0450
" />
<path d="M22.9111 58.4750
L22.9111 59.0450
" />
<path d="M22.9111 59.0450
L25.5711 59.0450
" />
<path d="M25.5711 0.5050
L25.5711 1.0750
" />
<path d="M25.5711 1.0750
L27.0911 1.0750
" />
<path d="M25.5711 2.5950
L25.5711 6.1550
" />
<path d="M25.5711 7.6750
L25.5711 11.2350
" />
<path d="M25.5711 12.7550
L25.5711 16.3150
" />
<path d="M25.5711 17.8350
L25.5711 21.3950
" />
<path d="M25.5711 22.9150
L25.5711 26.4750
" />
<path d="M25.5711 27.9950
L25.5711 31.5550
" />
<path d="M25.5711 33.0750
L25.5711 36.6350
" />
<path d="M25.5711 38.1550
L25.5711 41.7150
" />
<path d="M25.5711 43.2350
L25.5711 46.7950
" />
<path d="M25.5711 48.3150
L25.5711 51.8750
" />
<path d="M25.5711 53.3950
L25.5711 56.9550
" />
</g>
<g style="fill:none; 
stroke:#FF26E2; stroke-width:0.0500; stroke-opacity:1; 
stroke-linecap:round; stroke-linejoin:round;">
<path d="M20.7911 0.0250
L20.7911 59.5250
" />
<path d="M20.7911 59.5250
L27.6911 59.5250
" />
<path d="M27.6911 0.0250
L20.7911 0.0250
" />
<path d="M27.6911 59.5250
L27.6911 0.0250
" />
</g>
<g style="fill:none; 
stroke:#AFAFAF; stroke-width:0.1588; stroke-opacity:1; 
stroke-linecap:round; stroke-linejoin:round;">
<text x="24.2411" y="30.4100"
textLength="48.4823" font-size="1.6933" lengthAdjust="spacingAndGlyphs"
text-anchor="middle" opacity="0">PinHeader_1x23_P2.54mm_Vertical_SMD_Pin1Right</text>
<g class="stroked-text"><desc>PinHeader_1x23_P2.54mm_Vertical_SMD_Pin1Right</desc>
<path d="M0.4135 30.3543
L0.4135 29.0843
" />
<path d="M0.4135 29.0843
L0.8973 29.0843
" />
<path d="M0.8973 29.0843
L1.0183 29.1447
" />
<path d="M1.0183 29.1447
L1.0787 29.2052
" />
<path d="M1.0787 29.2052
L1.1392 29.3262
" />
<path d="M1.1392 29.3262
L1.1392 29.5076
" />
<path d="M1.1392 29.5076
L1.0787 29.6286
" />
<path d="M1.0787 29.6286
L1.0183 29.6890
" />
<path d="M1.0183 29.6890
L0.8973 29.7495
" />
<path d="M0.8973 29.7495
L0.4135 29.7495
" />
<path d="M1.6835 30.3543
L1.6835 29.5076
" />
<path d="M1.6835 29.0843
L1.6230 29.1447
" />
<path d="M1.6230 29.1447
L1.6835 29.2052
" />
<path d="M1.6835 29.2052
L1.7440 29.1447
" />
<path d="M1.7440 29.1447
L1.6835 29.0843
" />
<path d="M1.6835 29.0843
L1.6835 29.2052
" />
<path d="M2.2883 29.5076
L2.2883 30.3543
" />
<path d="M2.2883 29.6286
L2.3487 29.5681
" />
<path d="M2.3487 29.5681
L2.4697 29.5076
" />
<path d="M2.4697 29.5076
L2.6511 29.5076
" />
<path d="M2.6511 29.5076
L2.7721 29.5681
" />
<path d="M2.7721 29.5681
L2.8326 29.6890
" />
<path d="M2.8326 29.6890
L2.8326 30.3543
" />
<path d="M3.4373 30.3543
L3.4373 29.0843
" />
<path d="M3.4373 29.6890
L4.1630 29.6890
" />
<path d="M4.1630 30.3543
L4.1630 29.0843
" />
<path d="M5.2516 30.2938
L5.1307 30.3543
" />
<path d="M5.1307 30.3543
L4.8887 30.3543
" />
<path d="M4.8887 30.3543
L4.7678 30.2938
" />
<path d="M4.7678 30.2938
L4.7073 30.1728
" />
<path d="M4.7073 30.1728
L4.7073 29.6890
" />
<path d="M4.7073 29.6890
L4.7678 29.5681
" />
<path d="M4.7678 29.5681
L4.8887 29.5076
" />
<path d="M4.8887 29.5076
L5.1307 29.5076
" />
<path d="M5.1307 29.5076
L5.2516 29.5681
" />
<path d="M5.2516 29.5681
L5.3121 29.6890
" />
<path d="M5.3121 29.6890
L5.3121 29.8100
" />
<path d="M5.3121 29.8100
L4.7073 29.9309
" />
<path d="M6.4006 30.3543
L6.4006 29.6890
" />
<path d="M6.4006 29.6890
L6.3402 29.5681
" />
<path d="M6.3402 29.5681
L6.2192 29.5076
" />
<path d="M6.2192 29.5076
L5.9773 29.5076
" />
<path d="M5.9773 29.5076
L5.8564 29.5681
" />
<path d="M6.4006 30.2938
L6.2797 30.3543
" />
<path d="M6.2797 30.3543
L5.9773 30.3543
" />
<path d="M5.9773 30.3543
L5.8564 30.2938
" />
<path d="M5.8564 30.2938
L5.7959 30.1728
" />
<path d="M5.7959 30.1728
L5.7959 30.0519
" />
<path d="M5.7959 30.0519
L5.8564 29.9309
" />
<path d="M5.8564 29.9309
L5.9773 29.8705
" />
<path d="M5.9773 29.8705
L6.2797 29.8705
" />
<path d="M6.2797 29.8705
L6.4006 29.8100
" />
<path d="M7.5497 30.3543
L7.5497 29.0843
" />
<path d="M7.5497 30.2938
L7.4287 30.3543
" />
<path d="M7.4287 30.3543
L7.1868 30.3543
" />
<path d="M7.1868 30.3543
L7.0659 30.2938
" />
<path d="M7.0659 30.2938
L7.0054 30.2333
" />
<path d="M7.0054 30.2333
L6.9449 30.1124
" />
<path d="M6.9449 30.1124
L6.9449 29.7495
" />
<path d="M6.9449 29.7495
L7.0054 29.6286
" />
<path d="M7.0054 29.6286
L7.0659 29.5681
" />
<path d="M7.0659 29.5681
L7.1868 29.5076
" />
<path d="M7.1868 29.5076
L7.4287 29.5076
" />
<path d="M7.4287 29.5076
L7.5497 29.5681
" />
<path d="M8.6383 30.2938
L8.5173 30.3543
" />
<path d="M8.5173 30.3543
L8.2754 30.3543
" />
<path d="M8.2754 30.3543
L8.1545 30.2938
" />
<path d="M8.1545 30.2938
L8.0940 30.1728
" />
<path d="M8.0940 30.1728
L8.0940 29.6890
" />
<path d="M8.0940 29.6890
L8.1545 29.5681
" />
<path d="M8.1545 29.5681
L8.2754 29.5076
" />
<path d="M8.2754 29.5076
L8.5173 29.5076
" />
<path d="M8.5173 29.5076
L8.6383 29.5681
" />
<path d="M8.6383 29.5681
L8.6987 29.6890
" />
<path d="M8.6987 29.6890
L8.6987 29.8100
" />
<path d="M8.6987 29.8100
L8.0940 29.9309
" />
<path d="M9.2430 30.3543
L9.2430 29.5076
" />
<path d="M9.2430 29.7495
L9.3035 29.6286
" />
<path d="M9.3035 29.6286
L9.3640 29.5681
" />
<path d="M9.3640 29.5681
L9.4849 29.5076
" />
<path d="M9.4849 29.5076
L9.6059 29.5076
" />
<path d="M9.7268 30.4752
L10.6945 30.4752
" />
<path d="M11.6621 30.3543
L10.9364 30.3543
" />
<path d="M11.2992 30.3543
L11.2992 29.0843
" />
<path d="M11.2992 29.0843
L11.1783 29.2657
" />
<path d="M11.1783 29.2657
L11.0573 29.3867
" />
<path d="M11.0573 29.3867
L10.9364 29.4471
" />
<path d="M12.0854 30.3543
L12.7506 29.5076
" />
<path d="M12.0854 29.5076
L12.7506 30.3543
" />
<path d="M13.1740 29.2052
L13.2345 29.1447
" />
<path d="M13.2345 29.1447
L13.3554 29.0843
" />
<path d="M13.3554 29.0843
L13.6578 29.0843
" />
<path d="M13.6578 29.0843
L13.7787 29.1447
" />
<path d="M13.7787 29.1447
L13.8392 29.2052
" />
<path d="M13.8392 29.2052
L13.8997 29.3262
" />
<path d="M13.8997 29.3262
L13.8997 29.4471
" />
<path d="M13.8997 29.4471
L13.8392 29.6286
" />
<path d="M13.8392 29.6286
L13.1135 30.3543
" />
<path d="M13.1135 30.3543
L13.8997 30.3543
" />
<path d="M14.3230 29.0843
L15.1092 29.0843
" />
<path d="M15.1092 29.0843
L14.6859 29.5681
" />
<path d="M14.6859 29.5681
L14.8673 29.5681
" />
<path d="M14.8673 29.5681
L14.9883 29.6286
" />
<path d="M14.9883 29.6286
L15.0487 29.6890
" />
<path d="M15.0487 29.6890
L15.1092 29.8100
" />
<path d="M15.1092 29.8100
L15.1092 30.1124
" />
<path d="M15.1092 30.1124
L15.0487 30.2333
" />
<path d="M15.0487 30.2333
L14.9883 30.2938
" />
<path d="M14.9883 30.2938
L14.8673 30.3543
" />
<path d="M14.8673 30.3543
L14.5045 30.3543
" />
<path d="M14.5045 30.3543
L14.3835 30.2938
" />
<path d="M14.3835 30.2938
L14.3230 30.2333
" />
<path d="M15.3511 30.4752
L16.3187 30.4752
" />
<path d="M16.6211 30.3543
L16.6211 29.0843
" />
<path d="M16.6211 29.0843
L17.1049 29.0843
" />
<path d="M17.1049 29.0843
L17.2259 29.1447
" />
<path d="M17.2259 29.1447
L17.2864 29.2052
" />
<path d="M17.2864 29.2052
L17.3468 29.3262
" />
<path d="M17.3468 29.3262
L17.3468 29.5076
" />
<path d="M17.3468 29.5076
L17.2864 29.6286
" />
<path d="M17.2864 29.6286
L17.2259 29.6890
" />
<path d="M17.2259 29.6890
L17.1049 29.7495
" />
<path d="M17.1049 29.7495
L16.6211 29.7495
" />
<path d="M17.8306 29.2052
L17.8911 29.1447
" />
<path d="M17.8911 29.1447
L18.0121 29.0843
" />
<path d="M18.0121 29.0843
L18.3145 29.0843
" />
<path d="M18.3145 29.0843
L18.4354 29.1447
" />
<path d="M18.4354 29.1447
L18.4959 29.2052
" />
<path d="M18.4959 29.2052
L18.5564 29.3262
" />
<path d="M18.5564 29.3262
L18.5564 29.4471
" />
<path d="M18.5564 29.4471
L18.4959 29.6286
" />
<path d="M18.4959 29.6286
L17.7702 30.3543
" />
<path d="M17.7702 30.3543
L18.5564 30.3543
" />
<path d="M19.1006 30.2333
L19.1611 30.2938
" />
<path d="M19.1611 30.2938
L19.1006 30.3543
" />
<path d="M19.1006 30.3543
L19.0402 30.2938
" />
<path d="M19.0402 30.2938
L19.1006 30.2333
" />
<path d="M19.1006 30.2333
L19.1006 30.3543
" />
<path d="M20.3102 29.0843
L19.7054 29.0843
" />
<path d="M19.7054 29.0843
L19.6449 29.6890
" />
<path d="M19.6449 29.6890
L19.7054 29.6286
" />
<path d="M19.7054 29.6286
L19.8264 29.5681
" />
<path d="M19.8264 29.5681
L20.1287 29.5681
" />
<path d="M20.1287 29.5681
L20.2497 29.6286
" />
<path d="M20.2497 29.6286
L20.3102 29.6890
" />
<path d="M20.3102 29.6890
L20.3706 29.8100
" />
<path d="M20.3706 29.8100
L20.3706 30.1124
" />
<path d="M20.3706 30.1124
L20.3102 30.2333
" />
<path d="M20.3102 30.2333
L20.2497 30.2938
" />
<path d="M20.2497 30.2938
L20.1287 30.3543
" />
<path d="M20.1287 30.3543
L19.8264 30.3543
" />
<path d="M19.8264 30.3543
L19.7054 30.2938
" />
<path d="M19.7054 30.2938
L19.6449 30.2333
" />
<path d="M21.4592 29.5076
L21.4592 30.3543
" />
<path d="M21.1568 29.0238
L20.8545 29.9309
" />
<path d="M20.8545 29.9309
L21.6406 29.9309
" />
<path d="M22.1245 30.3543
L22.1245 29.5076
" />
<path d="M22.1245 29.6286
L22.1849 29.5681
" />
<path d="M22.1849 29.5681
L22.3059 29.5076
" />
<path d="M22.3059 29.5076
L22.4873 29.5076
" />
<path d="M22.4873 29.5076
L22.6083 29.5681
" />
<path d="M22.6083 29.5681
L22.6687 29.6890
" />
<path d="M22.6687 29.6890
L22.6687 30.3543
" />
<path d="M22.6687 29.6890
L22.7292 29.5681
" />
<path d="M22.7292 29.5681
L22.8502 29.5076
" />
<path d="M22.8502 29.5076
L23.0316 29.5076
" />
<path d="M23.0316 29.5076
L23.1526 29.5681
" />
<path d="M23.1526 29.5681
L23.2130 29.6890
" />
<path d="M23.2130 29.6890
L23.2130 30.3543
" />
<path d="M23.8178 30.3543
L23.8178 29.5076
" />
<path d="M23.8178 29.6286
L23.8783 29.5681
" />
<path d="M23.8783 29.5681
L23.9992 29.5076
" />
<path d="M23.9992 29.5076
L24.1806 29.5076
" />
<path d="M24.1806 29.5076
L24.3016 29.5681
" />
<path d="M24.3016 29.5681
L24.3621 29.6890
" />
<path d="M24.3621 29.6890
L24.3621 30.3543
" />
<path d="M24.3621 29.6890
L24.4226 29.5681
" />
<path d="M24.4226 29.5681
L24.5435 29.5076
" />
<path d="M24.5435 29.5076
L24.7249 29.5076
" />
<path d="M24.7249 29.5076
L24.8459 29.5681
" />
<path d="M24.8459 29.5681
L24.9064 29.6890
" />
<path d="M24.9064 29.6890
L24.9064 30.3543
" />
<path d="M25.2087 30.4752
L26.1764 30.4752
" />
<path d="M26.2973 29.0843
L26.7206 30.3543
" />
<path d="M26.7206 30.3543
L27.1440 29.0843
" />
<path d="M28.0511 30.2938
L27.9302 30.3543
" />
<path d="M27.9302 30.3543
L27.6883 30.3543
" />
<path d="M27.6883 30.3543
L27.5673 30.2938
" />
<path d="M27.5673 30.2938
L27.5068 30.1728
" />
<path d="M27.5068 30.1728
L27.5068 29.6890
" />
<path d="M27.5068 29.6890
L27.5673 29.5681
" />
<path d="M27.5673 29.5681
L27.6883 29.5076
" />
<path d="M27.6883 29.5076
L27.9302 29.5076
" />
<path d="M27.9302 29.5076
L28.0511 29.5681
" />
<path d="M28.0511 29.5681
L28.1116 29.6890
" />
<path d="M28.1116 29.6890
L28.1116 29.8100
" />
<path d="M28.1116 29.8100
L27.5068 29.9309
" />
<path d="M28.6559 30.3543
L28.6559 29.5076
" />
<path d="M28.6559 29.7495
L28.7164 29.6286
" />
<path d="M28.7164 29.6286
L28.7768 29.5681
" />
<path d="M28.7768 29.5681
L28.8978 29.5076
" />
<path d="M28.8978 29.5076
L29.0187 29.5076
" />
<path d="M29.2606 29.5076
L29.7445 29.5076
" />
<path d="M29.4421 29.0843
L29.4421 30.1728
" />
<path d="M29.4421 30.1728
L29.5026 30.2938
" />
<path d="M29.5026 30.2938
L29.6235 30.3543
" />
<path d="M29.6235 30.3543
L29.7445 30.3543
" />
<path d="M30.1678 30.3543
L30.1678 29.5076
" />
<path d="M30.1678 29.0843
L30.1073 29.1447
" />
<path d="M30.1073 29.1447
L30.1678 29.2052
" />
<path d="M30.1678 29.2052
L30.2283 29.1447
" />
<path d="M30.2283 29.1447
L30.1678 29.0843
" />
<path d="M30.1678 29.0843
L30.1678 29.2052
" />
<path d="M31.3168 30.2938
L31.1959 30.3543
" />
<path d="M31.1959 30.3543
L30.9540 30.3543
" />
<path d="M30.9540 30.3543
L30.8330 30.2938
" />
<path d="M30.8330 30.2938
L30.7726 30.2333
" />
<path d="M30.7726 30.2333
L30.7121 30.1124
" />
<path d="M30.7121 30.1124
L30.7121 29.7495
" />
<path d="M30.7121 29.7495
L30.7726 29.6286
" />
<path d="M30.7726 29.6286
L30.8330 29.5681
" />
<path d="M30.8330 29.5681
L30.9540 29.5076
" />
<path d="M30.9540 29.5076
L31.1959 29.5076
" />
<path d="M31.1959 29.5076
L31.3168 29.5681
" />
<path d="M32.4054 30.3543
L32.4054 29.6890
" />
<path d="M32.4054 29.6890
L32.3449 29.5681
" />
<path d="M32.3449 29.5681
L32.2240 29.5076
" />
<path d="M32.2240 29.5076
L31.9821 29.5076
" />
<path d="M31.9821 29.5076
L31.8611 29.5681
" />
<path d="M32.4054 30.2938
L32.2845 30.3543
" />
<path d="M32.2845 30.3543
L31.9821 30.3543
" />
<path d="M31.9821 30.3543
L31.8611 30.2938
" />
<path d="M31.8611 30.2938
L31.8006 30.1728
" />
<path d="M31.8006 30.1728
L31.8006 30.0519
" />
<path d="M31.8006 30.0519
L31.8611 29.9309
" />
<path d="M31.8611 29.9309
L31.9821 29.8705
" />
<path d="M31.9821 29.8705
L32.2845 29.8705
" />
<path d="M32.2845 29.8705
L32.4054 29.8100
" />
<path d="M33.1916 30.3543
L33.0706 30.2938
" />
<path d="M33.0706 30.2938
L33.0102 30.1728
" />
<path d="M33.0102 30.1728
L33.0102 29.0843
" />
<path d="M33.3730 30.4752
L34.3406 30.4752
" />
<path d="M34.5826 30.2938
L34.7640 30.3543
" />
<path d="M34.7640 30.3543
L35.0664 30.3543
" />
<path d="M35.0664 30.3543
L35.1873 30.2938
" />
<path d="M35.1873 30.2938
L35.2478 30.2333
" />
<path d="M35.2478 30.2333
L35.3083 30.1124
" />
<path d="M35.3083 30.1124
L35.3083 29.9914
" />
<path d="M35.3083 29.9914
L35.2478 29.8705
" />
<path d="M35.2478 29.8705
L35.1873 29.8100
" />
<path d="M35.1873 29.8100
L35.0664 29.7495
" />
<path d="M35.0664 29.7495
L34.8245 29.6890
" />
<path d="M34.8245 29.6890
L34.7035 29.6286
" />
<path d="M34.7035 29.6286
L34.6430 29.5681
" />
<path d="M34.6430 29.5681
L34.5826 29.4471
" />
<path d="M34.5826 29.4471
L34.5826 29.3262
" />
<path d="M34.5826 29.3262
L34.6430 29.2052
" />
<path d="M34.6430 29.2052
L34.7035 29.1447
" />
<path d="M34.7035 29.1447
L34.8245 29.0843
" />
<path d="M34.8245 29.0843
L35.1268 29.0843
" />
<path d="M35.1268 29.0843
L35.3083 29.1447
" />
<path d="M35.8526 30.3543
L35.8526 29.0843
" />
<path d="M35.8526 29.0843
L36.2759 29.9914
" />
<path d="M36.2759 29.9914
L36.6992 29.0843
" />
<path d="M36.6992 29.0843
L36.6992 30.3543
" />
<path d="M37.3040 30.3543
L37.3040 29.0843
" />
<path d="M37.3040 29.0843
L37.6064 29.0843
" />
<path d="M37.6064 29.0843
L37.7878 29.1447
" />
<path d="M37.7878 29.1447
L37.9087 29.2657
" />
<path d="M37.9087 29.2657
L37.9692 29.3867
" />
<path d="M37.9692 29.3867
L38.0297 29.6286
" />
<path d="M38.0297 29.6286
L38.0297 29.8100
" />
<path d="M38.0297 29.8100
L37.9692 30.0519
" />
<path d="M37.9692 30.0519
L37.9087 30.1728
" />
<path d="M37.9087 30.1728
L37.7878 30.2938
" />
<path d="M37.7878 30.2938
L37.6064 30.3543
" />
<path d="M37.6064 30.3543
L37.3040 30.3543
" />
<path d="M38.2716 30.4752
L39.2392 30.4752
" />
<path d="M39.5416 30.3543
L39.5416 29.0843
" />
<path d="M39.5416 29.0843
L40.0254 29.0843
" />
<path d="M40.0254 29.0843
L40.1464 29.1447
" />
<path d="M40.1464 29.1447
L40.2068 29.2052
" />
<path d="M40.2068 29.2052
L40.2673 29.3262
" />
<path d="M40.2673 29.3262
L40.2673 29.5076
" />
<path d="M40.2673 29.5076
L40.2068 29.6286
" />
<path d="M40.2068 29.6286
L40.1464 29.6890
" />
<path d="M40.1464 29.6890
L40.0254 29.7495
" />
<path d="M40.0254 29.7495
L39.5416 29.7495
" />
<path d="M40.8116 30.3543
L40.8116 29.5076
" />
<path d="M40.8116 29.0843
L40.7511 29.1447
" />
<path d="M40.7511 29.1447
L40.8116 29.2052
" />
<path d="M40.8116 29.2052
L40.8721 29.1447
" />
<path d="M40.8721 29.1447
L40.8116 29.0843
" />
<path d="M40.8116 29.0843
L40.8116 29.2052
" />
<path d="M41.4164 29.5076
L41.4164 30.3543
" />
<path d="M41.4164 29.6286
L41.4768 29.5681
" />
<path d="M41.4768 29.5681
L41.5978 29.5076
" />
<path d="M41.5978 29.5076
L41.7792 29.5076
" />
<path d="M41.7792 29.5076
L41.9002 29.5681
" />
<path d="M41.9002 29.5681
L41.9606 29.6890
" />
<path d="M41.9606 29.6890
L41.9606 30.3543
" />
<path d="M43.2306 30.3543
L42.5049 30.3543
" />
<path d="M42.8678 30.3543
L42.8678 29.0843
" />
<path d="M42.8678 29.0843
L42.7468 29.2657
" />
<path d="M42.7468 29.2657
L42.6259 29.3867
" />
<path d="M42.6259 29.3867
L42.5049 29.4471
" />
<path d="M44.5006 30.3543
L44.0773 29.7495
" />
<path d="M43.7749 30.3543
L43.7749 29.0843
" />
<path d="M43.7749 29.0843
L44.2587 29.0843
" />
<path d="M44.2587 29.0843
L44.3797 29.1447
" />
<path d="M44.3797 29.1447
L44.4402 29.2052
" />
<path d="M44.4402 29.2052
L44.5006 29.3262
" />
<path d="M44.5006 29.3262
L44.5006 29.5076
" />
<path d="M44.5006 29.5076
L44.4402 29.6286
" />
<path d="M44.4402 29.6286
L44.3797 29.6890
" />
<path d="M44.3797 29.6890
L44.2587 29.7495
" />
<path d="M44.2587 29.7495
L43.7749 29.7495
" />
<path d="M45.0449 30.3543
L45.0449 29.5076
" />
<path d="M45.0449 29.0843
L44.9845 29.1447
" />
<path d="M44.9845 29.1447
L45.0449 29.2052
" />
<path d="M45.0449 29.2052
L45.1054 29.1447
" />
<path d="M45.1054 29.1447
L45.0449 29.0843
" />
<path d="M45.0449 29.0843
L45.0449 29.2052
" />
<path d="M46.1940 29.5076
L46.1940 30.5357
" />
<path d="M46.1940 30.5357
L46.1335 30.6567
" />
<path d="M46.1335 30.6567
L46.0730 30.7171
" />
<path d="M46.0730 30.7171
L45.9521 30.7776
" />
<path d="M45.9521 30.7776
L45.7706 30.7776
" />
<path d="M45.7706 30.7776
L45.6497 30.7171
" />
<path d="M46.1940 30.2938
L46.0730 30.3543
" />
<path d="M46.0730 30.3543
L45.8311 30.3543
" />
<path d="M45.8311 30.3543
L45.7102 30.2938
" />
<path d="M45.7102 30.2938
L45.6497 30.2333
" />
<path d="M45.6497 30.2333
L45.5892 30.1124
" />
<path d="M45.5892 30.1124
L45.5892 29.7495
" />
<path d="M45.5892 29.7495
L45.6497 29.6286
" />
<path d="M45.6497 29.6286
L45.7102 29.5681
" />
<path d="M45.7102 29.5681
L45.8311 29.5076
" />
<path d="M45.8311 29.5076
L46.0730 29.5076
" />
<path d="M46.0730 29.5076
L46.1940 29.5681
" />
<path d="M46.7987 30.3543
L46.7987 29.0843
" />
<path d="M47.3430 30.3543
L47.3430 29.6890
" />
<path d="M47.3430 29.6890
L47.2826 29.5681
" />
<path d="M47.2826 29.5681
L47.1616 29.5076
" />
<path d="M47.1616 29.5076
L46.9802 29.5076
" />
<path d="M46.9802 29.5076
L46.8592 29.5681
" />
<path d="M46.8592 29.5681
L46.7987 29.6286
" />
<path d="M47.7664 29.5076
L48.2502 29.5076
" />
<path d="M47.9478 29.0843
L47.9478 30.1728
" />
<path d="M47.9478 30.1728
L48.0083 30.2938
" />
<path d="M48.0083 30.2938
L48.1292 30.3543
" />
<path d="M48.1292 30.3543
L48.2502 30.3543
" />
</g></g>
<g style="fill:none; 
stroke:#AFAFAF; stroke-width:0.1500; stroke-opacity:1; 
stroke-linecap:round; stroke-linejoin:round;">
<g transform="rotate(-90.000000 24.2411 29.7750)">
<text x="24.2411" y="30.2750"
textLength="4.5357" font-size="1.3333" lengthAdjust="spacingAndGlyphs"
text-anchor="middle" opacity="0">REF**</text>
</g>
<g class="stroked-text"><desc>REF**</desc>
<path d="M24.6959 31.1083
L24.2198 31.4417
" />
<path d="M24.6959 31.6798
L23.6959 31.6798
" />
<path d="M23.6959 31.6798
L23.6959 31.2988
" />
<path d="M23.6959 31.2988
L23.7436 31.2036
" />
<path d="M23.7436 31.2036
L23.7912 31.1560
" />
<path d="M23.7912 31.1560
L23.8864 31.1083
" />
<path d="M23.8864 31.1083
L24.0293 31.1083
" />
<path d="M24.0293 31.1083
L24.1245 31.1560
" />
<path d="M24.1245 31.1560
L24.1721 31.2036
" />
<path d="M24.1721 31.2036
L24.2198 31.2988
" />
<path d="M24.2198 31.2988
L24.2198 31.6798
" />
<path d="M24.1721 30.6798
L24.1721 30.3464
" />
<path d="M24.6959 30.2036
L24.6959 30.6798
" />
<path d="M24.6959 30.6798
L23.6959 30.6798
" />
<path d="M23.6959 30.6798
L23.6959 30.2036
" />
<path d="M24.1721 29.4417
L24.1721 29.7750
" />
<path d="M24.6959 29.7750
L23.6959 29.7750
" />
<path d="M23.6959 29.7750
L23.6959 29.2988
" />
<path d="M23.6959 28.7750
L23.9340 28.7750
" />
<path d="M23.8388 29.0131
L23.9340 28.7750
" />
<path d="M23.9340 28.7750
L23.8388 28.5369
" />
<path d="M24.1245 28.9179
L23.9340 28.7750
" />
<path d="M23.9340 28.7750
L24.1245 28.6321
" />
<path d="M23.6959 28.0131
L23.9340 28.0131
" />
<path d="M23.8388 28.2512
L23.9340 28.0131
" />
<path d="M23.9340 28.0131
L23.8388 27.7750
" />
<path d="M24.1245 28.1560
L23.9340 28.0131
" />
<path d="M23.9340 28.0131
L24.1245 27.8702
" />
</g></g>
<g style="fill:none; 
stroke:#AFAFAF; stroke-width:0.1000; stroke-opacity:1; 
stroke-linecap:round; stroke-linejoin:round;">
<path d="M21.7011 4.0550
L21.7011 4.6950
" />
<path d="M21.7011 4.6950
L22.9711 4.6950
" />
<path d="M21.7011 9.1350
L21.7011 9.7750
" />
<path d="M21.7011 9.7750
L22.9711 9.7750
" />
<path d="M21.7011 14.2150
L21.7011 14.8550
" />
<path d="M21.7011 14.8550
L22.9711 14.8550
" />
<path d="M21.7011 19.2950
L21.7011 19.9350
" />
<path d="M21.7011 19.9350
L22.9711 19.9350
" />
<path d="M21.7011 24.3750
L21.7011 25.0150
" />
<path d="M21.7011 25.0150
L22.9711 25.0150
" />
<path d="M21.7011 29.4550
L21.7011 30.0950
" />
<path d="M21.7011 30.0950
L22.9711 30.0950
" />
<path d="M21.7011 34.5350
L21.7011 35.1750
" />
<path d="M21.7011 35.1750
L22.9711 35.1750
" />
<path d="M21.7011 39.6150
L21.7011 40.2550
" />
<path d="M21.7011 40.2550
L22.9711 40.2550
" />
<path d="M21.7011 44.6950
L21.7011 45.3350
" />
<path d="M21.7011 45.3350
L22.9711 45.3350
" />
<path d="M21.7011 49.7750
L21.7011 50.4150
" />
<path d="M21.7011 50.4150
L22.9711 50.4150
" />
<path d="M21.7011 54.8550
L21.7011 55.4950
" />
<path d="M21.7011 55.4950
L22.9711 55.4950
" />
<path d="M22.9711 0.5650
L22.9711 58.9850
" />
<path d="M22.9711 0.5650
L24.5611 0.5650
" />
<path d="M22.9711 4.0550
L21.7011 4.0550
" />
<path d="M22.9711 9.1350
L21.7011 9.1350
" />
<path d="M22.9711 14.2150
L21.7011 14.2150
" />
<path d="M22.9711 19.2950
L21.7011 19.2950
" />
<path d="M22.9711 24.3750
L21.7011 24.3750
" />
<path d="M22.9711 29.4550
L21.7011 29.4550
" />
<path d="M22.9711 34.5350
L21.7011 34.5350
" />
<path d="M22.9711 39.6150
L21.7011 39.6150
" />
<path d="M22.9711 44.6950
L21.7011 44.6950
" />
<path d="M22.9711 49.7750
L21.7011 49.7750
" />
<path d="M22.9711 54.8550
L21.7011 54.8550
" />
<path d="M25.5111 1.5150
L24.5611 0.5650
" />
<path d="M25.5111 1.5150
L26.7811 1.5150
" />
<path d="M25.5111 6.5950
L26.7811 6.5950
" />
<path d="M25.5111 11.6750
L26.7811 11.6750
" />
<path d="M25.5111 16.7550
L26.7811 16.7550
" />
<path d="M25.5111 21.8350
L26.7811 21.8350
" />
<path d="M25.5111 26.9150
L26.7811 26.9150
" />
<path d="M25.5111 31.9950
L26.7811 31.9950
" />
<path d="M25.5111 37.0750
L26.7811 37.0750
" />
<path d="M25.5111 42.1550
L26.7811 42.1550
" />
<path d="M25.5111 47.2350
L26.7811 47.2350
" />
<path d="M25.5111 52.3150
L26.7811 52.3150
" />
<path d="M25.5111 57.3950
L26.7811 57.3950
" />
<path d="M25.5111 58.9850
L22.9711 58.9850
" />
<path d="M25.5111 58.9850
L25.5111 1.5150
" />
<path d="M26.7811 1.5150
L26.7811 2.1550
" />
<path d="M26.7811 2.1550
L25.5111 2.1550
" />
<path d="M26.7811 6.5950
L26.7811 7.2350
" />
<path d="M26.7811 7.2350
L25.5111 7.2350
" />
<path d="M26.7811 11.6750
L26.7811 12.3150
" />
<path d="M26.7811 12.3150
L25.5111 12.3150
" />
<path d="M26.7811 16.7550
L26.7811 17.3950
" />
<path d="M26.7811 17.3950
L25.5111 17.3950
" />
<path d="M26.7811 21.8350
L26.7811 22.4750
" />
<path d="M26.7811 22.4750
L25.5111 22.4750
" />
<path d="M26.7811 26.9150
L26.7811 27.5550
" />
<path d="M26.7811 27.5550
L25.5111 27.5550
" />
<path d="M26.7811 31.9950
L26.7811 32.6350
" />
<path d="M26.7811 32.6350
L25.5111 32.6350
" />
<path d="M26.7811 37.0750
L26.7811 37.7150
" />
<path d="M26.7811 37.7150
L25.5111 37.7150
" />
<path d="M26.7811 42.1550
L26.7811 42.7950
" />
<path d="M26.7811 42.7950
L25.5111 42.7950
" />
<path d="M26.7811 47.2350
L26.7811 47.8750
" />
<path d="M26.7811 47.8750
L25.5111 47.8750
" />
<path d="M26.7811 52.3150
L26.7811 52.9550
" />
<path d="M26.7811 52.9550
L25.5111 52.9550
" />
<path d="M26.7811 57.3950
L26.7811 58.0350
" />
<path d="M26.7811 58.0350
L25.5111 58.0350
" />
</g> 
</svg>
