<?xml version="1.0" standalone="no"?>
 <!DOCTYPE svg PUBLIC "-//W3C//DTD SVG 1.1//EN" 
 "http://www.w3.org/Graphics/SVG/1.1/DTD/svg11.dtd"> 
<svg
  xmlns:svg="http://www.w3.org/2000/svg"
  xmlns="http://www.w3.org/2000/svg"
  xmlns:xlink="http://www.w3.org/1999/xlink"
  version="1.1"
  width="38.3794mm" height="37.0332mm" viewBox="0.0000 0.0000 38.3794 37.0332">
<title>SVG Image created as working-brd.svg date 2024/04/15 11:26:40 </title>
  <desc>Image generated by PCBNEW </desc>
<g style="fill:#000000; fill-opacity:1.0000;stroke:#000000; stroke-opacity:1.0000;
stroke-linecap:round; stroke-linejoin:round;"
 transform="translate(0 0) scale(1 1)">
<path style="fill:#C83434; fill-opacity:1.0000; stroke:none;fill-rule:evenodd;"
d="M 16.5414,1.2750
16.5414,0.7750
18.5414,0.7750
18.5414,1.2750
Z" /> 
<path style="fill:#C83434; fill-opacity:1.0000; stroke:none;fill-rule:evenodd;"
d="M 19.8414,1.2750
19.8414,0.7750
21.8414,0.7750
21.8414,1.2750
Z" /> 
<path style="fill:#C83434; fill-opacity:1.0000; stroke:none;fill-rule:evenodd;"
d="M 16.5414,2.2750
16.5414,1.7750
18.5414,1.7750
18.5414,2.2750
Z" /> 
<path style="fill:#C83434; fill-opacity:1.0000; stroke:none;fill-rule:evenodd;"
d="M 19.8414,2.2750
19.8414,1.7750
21.8414,1.7750
21.8414,2.2750
Z" /> 
<path style="fill:#C83434; fill-opacity:1.0000; stroke:none;fill-rule:evenodd;"
d="M 16.5414,3.2750
16.5414,2.7750
18.5414,2.7750
18.5414,3.2750
Z" /> 
<path style="fill:#C83434; fill-opacity:1.0000; stroke:none;fill-rule:evenodd;"
d="M 19.8414,3.2750
19.8414,2.7750
21.8414,2.7750
21.8414,3.2750
Z" /> 
<path style="fill:#C83434; fill-opacity:1.0000; stroke:none;fill-rule:evenodd;"
d="M 16.5414,4.2750
16.5414,3.7750
18.5414,3.7750
18.5414,4.2750
Z" /> 
<path style="fill:#C83434; fill-opacity:1.0000; stroke:none;fill-rule:evenodd;"
d="M 19.8414,4.2750
19.8414,3.7750
21.8414,3.7750
21.8414,4.2750
Z" /> 
<path style="fill:#C83434; fill-opacity:1.0000; stroke:none;fill-rule:evenodd;"
d="M 16.5414,5.2750
16.5414,4.7750
18.5414,4.7750
18.5414,5.2750
Z" /> 
<path style="fill:#C83434; fill-opacity:1.0000; stroke:none;fill-rule:evenodd;"
d="M 19.8414,5.2750
19.8414,4.7750
21.8414,4.7750
21.8414,5.2750
Z" /> 
<path style="fill:#C83434; fill-opacity:1.0000; stroke:none;fill-rule:evenodd;"
d="M 16.5414,6.2750
16.5414,5.7750
18.5414,5.7750
18.5414,6.2750
Z" /> 
<path style="fill:#C83434; fill-opacity:1.0000; stroke:none;fill-rule:evenodd;"
d="M 19.8414,6.2750
19.8414,5.7750
21.8414,5.7750
21.8414,6.2750
Z" /> 
<path style="fill:#C83434; fill-opacity:1.0000; stroke:none;fill-rule:evenodd;"
d="M 16.5414,7.2750
16.5414,6.7750
18.5414,6.7750
18.5414,7.2750
Z" /> 
<path style="fill:#C83434; fill-opacity:1.0000; stroke:none;fill-rule:evenodd;"
d="M 19.8414,7.2750
19.8414,6.7750
21.8414,6.7750
21.8414,7.2750
Z" /> 
<path style="fill:#C83434; fill-opacity:1.0000; stroke:none;fill-rule:evenodd;"
d="M 16.5414,8.2750
16.5414,7.7750
18.5414,7.7750
18.5414,8.2750
Z" /> 
<path style="fill:#C83434; fill-opacity:1.0000; stroke:none;fill-rule:evenodd;"
d="M 19.8414,8.2750
19.8414,7.7750
21.8414,7.7750
21.8414,8.2750
Z" /> 
<path style="fill:#C83434; fill-opacity:1.0000; stroke:none;fill-rule:evenodd;"
d="M 16.5414,9.2750
16.5414,8.7750
18.5414,8.7750
18.5414,9.2750
Z" /> 
<path style="fill:#C83434; fill-opacity:1.0000; stroke:none;fill-rule:evenodd;"
d="M 19.8414,9.2750
19.8414,8.7750
21.8414,8.7750
21.8414,9.2750
Z" /> 
<path style="fill:#C83434; fill-opacity:1.0000; stroke:none;fill-rule:evenodd;"
d="M 16.5414,10.2750
16.5414,9.7750
18.5414,9.7750
18.5414,10.2750
Z" /> 
<path style="fill:#C83434; fill-opacity:1.0000; stroke:none;fill-rule:evenodd;"
d="M 19.8414,10.2750
19.8414,9.7750
21.8414,9.7750
21.8414,10.2750
Z" /> 
<path style="fill:#C83434; fill-opacity:1.0000; stroke:none;fill-rule:evenodd;"
d="M 16.5414,11.2750
16.5414,10.7750
18.5414,10.7750
18.5414,11.2750
Z" /> 
<path style="fill:#C83434; fill-opacity:1.0000; stroke:none;fill-rule:evenodd;"
d="M 19.8414,11.2750
19.8414,10.7750
21.8414,10.7750
21.8414,11.2750
Z" /> 
<path style="fill:#C83434; fill-opacity:1.0000; stroke:none;fill-rule:evenodd;"
d="M 16.5414,12.2750
16.5414,11.7750
18.5414,11.7750
18.5414,12.2750
Z" /> 
<path style="fill:#C83434; fill-opacity:1.0000; stroke:none;fill-rule:evenodd;"
d="M 19.8414,12.2750
19.8414,11.7750
21.8414,11.7750
21.8414,12.2750
Z" /> 
<path style="fill:#C83434; fill-opacity:1.0000; stroke:none;fill-rule:evenodd;"
d="M 16.5414,13.2750
16.5414,12.7750
18.5414,12.7750
18.5414,13.2750
Z" /> 
<path style="fill:#C83434; fill-opacity:1.0000; stroke:none;fill-rule:evenodd;"
d="M 19.8414,13.2750
19.8414,12.7750
21.8414,12.7750
21.8414,13.2750
Z" /> 
<path style="fill:#C83434; fill-opacity:1.0000; stroke:none;fill-rule:evenodd;"
d="M 16.5414,14.2750
16.5414,13.7750
18.5414,13.7750
18.5414,14.2750
Z" /> 
<path style="fill:#C83434; fill-opacity:1.0000; stroke:none;fill-rule:evenodd;"
d="M 19.8414,14.2750
19.8414,13.7750
21.8414,13.7750
21.8414,14.2750
Z" /> 
<path style="fill:#C83434; fill-opacity:1.0000; stroke:none;fill-rule:evenodd;"
d="M 16.5414,15.2750
16.5414,14.7750
18.5414,14.7750
18.5414,15.2750
Z" /> 
<path style="fill:#C83434; fill-opacity:1.0000; stroke:none;fill-rule:evenodd;"
d="M 19.8414,15.2750
19.8414,14.7750
21.8414,14.7750
21.8414,15.2750
Z" /> 
<path style="fill:#C83434; fill-opacity:1.0000; stroke:none;fill-rule:evenodd;"
d="M 16.5414,16.2750
16.5414,15.7750
18.5414,15.7750
18.5414,16.2750
Z" /> 
<path style="fill:#C83434; fill-opacity:1.0000; stroke:none;fill-rule:evenodd;"
d="M 19.8414,16.2750
19.8414,15.7750
21.8414,15.7750
21.8414,16.2750
Z" /> 
<path style="fill:#C83434; fill-opacity:1.0000; stroke:none;fill-rule:evenodd;"
d="M 16.5414,17.2750
16.5414,16.7750
18.5414,16.7750
18.5414,17.2750
Z" /> 
<path style="fill:#C83434; fill-opacity:1.0000; stroke:none;fill-rule:evenodd;"
d="M 19.8414,17.2750
19.8414,16.7750
21.8414,16.7750
21.8414,17.2750
Z" /> 
<path style="fill:#C83434; fill-opacity:1.0000; stroke:none;fill-rule:evenodd;"
d="M 16.5414,18.2750
16.5414,17.7750
18.5414,17.7750
18.5414,18.2750
Z" /> 
<path style="fill:#C83434; fill-opacity:1.0000; stroke:none;fill-rule:evenodd;"
d="M 19.8414,18.2750
19.8414,17.7750
21.8414,17.7750
21.8414,18.2750
Z" /> 
<path style="fill:#C83434; fill-opacity:1.0000; stroke:none;fill-rule:evenodd;"
d="M 16.5414,19.2750
16.5414,18.7750
18.5414,18.7750
18.5414,19.2750
Z" /> 
<path style="fill:#C83434; fill-opacity:1.0000; stroke:none;fill-rule:evenodd;"
d="M 19.8414,19.2750
19.8414,18.7750
21.8414,18.7750
21.8414,19.2750
Z" /> 
<path style="fill:#C83434; fill-opacity:1.0000; stroke:none;fill-rule:evenodd;"
d="M 16.5414,20.2750
16.5414,19.7750
18.5414,19.7750
18.5414,20.2750
Z" /> 
<path style="fill:#C83434; fill-opacity:1.0000; stroke:none;fill-rule:evenodd;"
d="M 19.8414,20.2750
19.8414,19.7750
21.8414,19.7750
21.8414,20.2750
Z" /> 
<path style="fill:#C83434; fill-opacity:1.0000; stroke:none;fill-rule:evenodd;"
d="M 16.5414,21.2750
16.5414,20.7750
18.5414,20.7750
18.5414,21.2750
Z" /> 
<path style="fill:#C83434; fill-opacity:1.0000; stroke:none;fill-rule:evenodd;"
d="M 19.8414,21.2750
19.8414,20.7750
21.8414,20.7750
21.8414,21.2750
Z" /> 
<path style="fill:#C83434; fill-opacity:1.0000; stroke:none;fill-rule:evenodd;"
d="M 16.5414,22.2750
16.5414,21.7750
18.5414,21.7750
18.5414,22.2750
Z" /> 
<path style="fill:#C83434; fill-opacity:1.0000; stroke:none;fill-rule:evenodd;"
d="M 19.8414,22.2750
19.8414,21.7750
21.8414,21.7750
21.8414,22.2750
Z" /> 
<path style="fill:#C83434; fill-opacity:1.0000; stroke:none;fill-rule:evenodd;"
d="M 16.5414,23.2750
16.5414,22.7750
18.5414,22.7750
18.5414,23.2750
Z" /> 
<path style="fill:#C83434; fill-opacity:1.0000; stroke:none;fill-rule:evenodd;"
d="M 19.8414,23.2750
19.8414,22.7750
21.8414,22.7750
21.8414,23.2750
Z" /> 
<path style="fill:#C83434; fill-opacity:1.0000; stroke:none;fill-rule:evenodd;"
d="M 16.5414,24.2750
16.5414,23.7750
18.5414,23.7750
18.5414,24.2750
Z" /> 
<path style="fill:#C83434; fill-opacity:1.0000; stroke:none;fill-rule:evenodd;"
d="M 19.8414,24.2750
19.8414,23.7750
21.8414,23.7750
21.8414,24.2750
Z" /> 
<path style="fill:#C83434; fill-opacity:1.0000; stroke:none;fill-rule:evenodd;"
d="M 16.5414,25.2750
16.5414,24.7750
18.5414,24.7750
18.5414,25.2750
Z" /> 
<path style="fill:#C83434; fill-opacity:1.0000; stroke:none;fill-rule:evenodd;"
d="M 19.8414,25.2750
19.8414,24.7750
21.8414,24.7750
21.8414,25.2750
Z" /> 
<path style="fill:#C83434; fill-opacity:1.0000; stroke:none;fill-rule:evenodd;"
d="M 16.5414,26.2750
16.5414,25.7750
18.5414,25.7750
18.5414,26.2750
Z" /> 
<path style="fill:#C83434; fill-opacity:1.0000; stroke:none;fill-rule:evenodd;"
d="M 19.8414,26.2750
19.8414,25.7750
21.8414,25.7750
21.8414,26.2750
Z" /> 
<path style="fill:#C83434; fill-opacity:1.0000; stroke:none;fill-rule:evenodd;"
d="M 16.5414,27.2750
16.5414,26.7750
18.5414,26.7750
18.5414,27.2750
Z" /> 
<path style="fill:#C83434; fill-opacity:1.0000; stroke:none;fill-rule:evenodd;"
d="M 19.8414,27.2750
19.8414,26.7750
21.8414,26.7750
21.8414,27.2750
Z" /> 
<path style="fill:#C83434; fill-opacity:1.0000; stroke:none;fill-rule:evenodd;"
d="M 16.5414,28.2750
16.5414,27.7750
18.5414,27.7750
18.5414,28.2750
Z" /> 
<path style="fill:#C83434; fill-opacity:1.0000; stroke:none;fill-rule:evenodd;"
d="M 19.8414,28.2750
19.8414,27.7750
21.8414,27.7750
21.8414,28.2750
Z" /> 
<path style="fill:#C83434; fill-opacity:1.0000; stroke:none;fill-rule:evenodd;"
d="M 16.5414,29.2750
16.5414,28.7750
18.5414,28.7750
18.5414,29.2750
Z" /> 
<path style="fill:#C83434; fill-opacity:1.0000; stroke:none;fill-rule:evenodd;"
d="M 19.8414,29.2750
19.8414,28.7750
21.8414,28.7750
21.8414,29.2750
Z" /> 
<path style="fill:#C83434; fill-opacity:1.0000; stroke:none;fill-rule:evenodd;"
d="M 16.5414,30.2750
16.5414,29.7750
18.5414,29.7750
18.5414,30.2750
Z" /> 
<path style="fill:#C83434; fill-opacity:1.0000; stroke:none;fill-rule:evenodd;"
d="M 19.8414,30.2750
19.8414,29.7750
21.8414,29.7750
21.8414,30.2750
Z" /> 
<path style="fill:#C83434; fill-opacity:1.0000; stroke:none;fill-rule:evenodd;"
d="M 16.5414,31.2750
16.5414,30.7750
18.5414,30.7750
18.5414,31.2750
Z" /> 
<path style="fill:#C83434; fill-opacity:1.0000; stroke:none;fill-rule:evenodd;"
d="M 19.8414,31.2750
19.8414,30.7750
21.8414,30.7750
21.8414,31.2750
Z" /> 
<path style="fill:#C83434; fill-opacity:1.0000; stroke:none;fill-rule:evenodd;"
d="M 16.5414,32.2750
16.5414,31.7750
18.5414,31.7750
18.5414,32.2750
Z" /> 
<path style="fill:#C83434; fill-opacity:1.0000; stroke:none;fill-rule:evenodd;"
d="M 19.8414,32.2750
19.8414,31.7750
21.8414,31.7750
21.8414,32.2750
Z" /> 
<path style="fill:#C83434; fill-opacity:1.0000; stroke:none;fill-rule:evenodd;"
d="M 16.5414,33.2750
16.5414,32.7750
18.5414,32.7750
18.5414,33.2750
Z" /> 
<path style="fill:#C83434; fill-opacity:1.0000; stroke:none;fill-rule:evenodd;"
d="M 19.8414,33.2750
19.8414,32.7750
21.8414,32.7750
21.8414,33.2750
Z" /> 
<path style="fill:#C83434; fill-opacity:1.0000; stroke:none;fill-rule:evenodd;"
d="M 16.5414,34.2750
16.5414,33.7750
18.5414,33.7750
18.5414,34.2750
Z" /> 
<path style="fill:#C83434; fill-opacity:1.0000; stroke:none;fill-rule:evenodd;"
d="M 19.8414,34.2750
19.8414,33.7750
21.8414,33.7750
21.8414,34.2750
Z" /> 
<path style="fill:#C83434; fill-opacity:1.0000; stroke:none;fill-rule:evenodd;"
d="M 16.5414,35.2750
16.5414,34.7750
18.5414,34.7750
18.5414,35.2750
Z" /> 
<path style="fill:#C83434; fill-opacity:1.0000; stroke:none;fill-rule:evenodd;"
d="M 19.8414,35.2750
19.8414,34.7750
21.8414,34.7750
21.8414,35.2750
Z" /> 
<path style="fill:#C83434; fill-opacity:1.0000; stroke:none;fill-rule:evenodd;"
d="M 16.5414,36.2750
16.5414,35.7750
18.5414,35.7750
18.5414,36.2750
Z" /> 
<path style="fill:#C83434; fill-opacity:1.0000; stroke:none;fill-rule:evenodd;"
d="M 19.8414,36.2750
19.8414,35.7750
21.8414,35.7750
21.8414,36.2750
Z" /> 
<path style="fill:#D864FF; fill-opacity:0.4000; stroke:none;fill-rule:evenodd;"
d="M 16.5414,1.2750
16.5414,0.7750
18.5414,0.7750
18.5414,1.2750
Z" /> 
<path style="fill:#D864FF; fill-opacity:0.4000; stroke:none;fill-rule:evenodd;"
d="M 19.8414,1.2750
19.8414,0.7750
21.8414,0.7750
21.8414,1.2750
Z" /> 
<path style="fill:#D864FF; fill-opacity:0.4000; stroke:none;fill-rule:evenodd;"
d="M 16.5414,2.2750
16.5414,1.7750
18.5414,1.7750
18.5414,2.2750
Z" /> 
<path style="fill:#D864FF; fill-opacity:0.4000; stroke:none;fill-rule:evenodd;"
d="M 19.8414,2.2750
19.8414,1.7750
21.8414,1.7750
21.8414,2.2750
Z" /> 
<path style="fill:#D864FF; fill-opacity:0.4000; stroke:none;fill-rule:evenodd;"
d="M 16.5414,3.2750
16.5414,2.7750
18.5414,2.7750
18.5414,3.2750
Z" /> 
<path style="fill:#D864FF; fill-opacity:0.4000; stroke:none;fill-rule:evenodd;"
d="M 19.8414,3.2750
19.8414,2.7750
21.8414,2.7750
21.8414,3.2750
Z" /> 
<path style="fill:#D864FF; fill-opacity:0.4000; stroke:none;fill-rule:evenodd;"
d="M 16.5414,4.2750
16.5414,3.7750
18.5414,3.7750
18.5414,4.2750
Z" /> 
<path style="fill:#D864FF; fill-opacity:0.4000; stroke:none;fill-rule:evenodd;"
d="M 19.8414,4.2750
19.8414,3.7750
21.8414,3.7750
21.8414,4.2750
Z" /> 
<path style="fill:#D864FF; fill-opacity:0.4000; stroke:none;fill-rule:evenodd;"
d="M 16.5414,5.2750
16.5414,4.7750
18.5414,4.7750
18.5414,5.2750
Z" /> 
<path style="fill:#D864FF; fill-opacity:0.4000; stroke:none;fill-rule:evenodd;"
d="M 19.8414,5.2750
19.8414,4.7750
21.8414,4.7750
21.8414,5.2750
Z" /> 
<path style="fill:#D864FF; fill-opacity:0.4000; stroke:none;fill-rule:evenodd;"
d="M 16.5414,6.2750
16.5414,5.7750
18.5414,5.7750
18.5414,6.2750
Z" /> 
<path style="fill:#D864FF; fill-opacity:0.4000; stroke:none;fill-rule:evenodd;"
d="M 19.8414,6.2750
19.8414,5.7750
21.8414,5.7750
21.8414,6.2750
Z" /> 
<path style="fill:#D864FF; fill-opacity:0.4000; stroke:none;fill-rule:evenodd;"
d="M 16.5414,7.2750
16.5414,6.7750
18.5414,6.7750
18.5414,7.2750
Z" /> 
<path style="fill:#D864FF; fill-opacity:0.4000; stroke:none;fill-rule:evenodd;"
d="M 19.8414,7.2750
19.8414,6.7750
21.8414,6.7750
21.8414,7.2750
Z" /> 
<path style="fill:#D864FF; fill-opacity:0.4000; stroke:none;fill-rule:evenodd;"
d="M 16.5414,8.2750
16.5414,7.7750
18.5414,7.7750
18.5414,8.2750
Z" /> 
<path style="fill:#D864FF; fill-opacity:0.4000; stroke:none;fill-rule:evenodd;"
d="M 19.8414,8.2750
19.8414,7.7750
21.8414,7.7750
21.8414,8.2750
Z" /> 
<path style="fill:#D864FF; fill-opacity:0.4000; stroke:none;fill-rule:evenodd;"
d="M 16.5414,9.2750
16.5414,8.7750
18.5414,8.7750
18.5414,9.2750
Z" /> 
<path style="fill:#D864FF; fill-opacity:0.4000; stroke:none;fill-rule:evenodd;"
d="M 19.8414,9.2750
19.8414,8.7750
21.8414,8.7750
21.8414,9.2750
Z" /> 
<path style="fill:#D864FF; fill-opacity:0.4000; stroke:none;fill-rule:evenodd;"
d="M 16.5414,10.2750
16.5414,9.7750
18.5414,9.7750
18.5414,10.2750
Z" /> 
<path style="fill:#D864FF; fill-opacity:0.4000; stroke:none;fill-rule:evenodd;"
d="M 19.8414,10.2750
19.8414,9.7750
21.8414,9.7750
21.8414,10.2750
Z" /> 
<path style="fill:#D864FF; fill-opacity:0.4000; stroke:none;fill-rule:evenodd;"
d="M 16.5414,11.2750
16.5414,10.7750
18.5414,10.7750
18.5414,11.2750
Z" /> 
<path style="fill:#D864FF; fill-opacity:0.4000; stroke:none;fill-rule:evenodd;"
d="M 19.8414,11.2750
19.8414,10.7750
21.8414,10.7750
21.8414,11.2750
Z" /> 
<path style="fill:#D864FF; fill-opacity:0.4000; stroke:none;fill-rule:evenodd;"
d="M 16.5414,12.2750
16.5414,11.7750
18.5414,11.7750
18.5414,12.2750
Z" /> 
<path style="fill:#D864FF; fill-opacity:0.4000; stroke:none;fill-rule:evenodd;"
d="M 19.8414,12.2750
19.8414,11.7750
21.8414,11.7750
21.8414,12.2750
Z" /> 
<path style="fill:#D864FF; fill-opacity:0.4000; stroke:none;fill-rule:evenodd;"
d="M 16.5414,13.2750
16.5414,12.7750
18.5414,12.7750
18.5414,13.2750
Z" /> 
<path style="fill:#D864FF; fill-opacity:0.4000; stroke:none;fill-rule:evenodd;"
d="M 19.8414,13.2750
19.8414,12.7750
21.8414,12.7750
21.8414,13.2750
Z" /> 
<path style="fill:#D864FF; fill-opacity:0.4000; stroke:none;fill-rule:evenodd;"
d="M 16.5414,14.2750
16.5414,13.7750
18.5414,13.7750
18.5414,14.2750
Z" /> 
<path style="fill:#D864FF; fill-opacity:0.4000; stroke:none;fill-rule:evenodd;"
d="M 19.8414,14.2750
19.8414,13.7750
21.8414,13.7750
21.8414,14.2750
Z" /> 
<path style="fill:#D864FF; fill-opacity:0.4000; stroke:none;fill-rule:evenodd;"
d="M 16.5414,15.2750
16.5414,14.7750
18.5414,14.7750
18.5414,15.2750
Z" /> 
<path style="fill:#D864FF; fill-opacity:0.4000; stroke:none;fill-rule:evenodd;"
d="M 19.8414,15.2750
19.8414,14.7750
21.8414,14.7750
21.8414,15.2750
Z" /> 
<path style="fill:#D864FF; fill-opacity:0.4000; stroke:none;fill-rule:evenodd;"
d="M 16.5414,16.2750
16.5414,15.7750
18.5414,15.7750
18.5414,16.2750
Z" /> 
<path style="fill:#D864FF; fill-opacity:0.4000; stroke:none;fill-rule:evenodd;"
d="M 19.8414,16.2750
19.8414,15.7750
21.8414,15.7750
21.8414,16.2750
Z" /> 
<path style="fill:#D864FF; fill-opacity:0.4000; stroke:none;fill-rule:evenodd;"
d="M 16.5414,17.2750
16.5414,16.7750
18.5414,16.7750
18.5414,17.2750
Z" /> 
<path style="fill:#D864FF; fill-opacity:0.4000; stroke:none;fill-rule:evenodd;"
d="M 19.8414,17.2750
19.8414,16.7750
21.8414,16.7750
21.8414,17.2750
Z" /> 
<path style="fill:#D864FF; fill-opacity:0.4000; stroke:none;fill-rule:evenodd;"
d="M 16.5414,18.2750
16.5414,17.7750
18.5414,17.7750
18.5414,18.2750
Z" /> 
<path style="fill:#D864FF; fill-opacity:0.4000; stroke:none;fill-rule:evenodd;"
d="M 19.8414,18.2750
19.8414,17.7750
21.8414,17.7750
21.8414,18.2750
Z" /> 
<path style="fill:#D864FF; fill-opacity:0.4000; stroke:none;fill-rule:evenodd;"
d="M 16.5414,19.2750
16.5414,18.7750
18.5414,18.7750
18.5414,19.2750
Z" /> 
<path style="fill:#D864FF; fill-opacity:0.4000; stroke:none;fill-rule:evenodd;"
d="M 19.8414,19.2750
19.8414,18.7750
21.8414,18.7750
21.8414,19.2750
Z" /> 
<path style="fill:#D864FF; fill-opacity:0.4000; stroke:none;fill-rule:evenodd;"
d="M 16.5414,20.2750
16.5414,19.7750
18.5414,19.7750
18.5414,20.2750
Z" /> 
<path style="fill:#D864FF; fill-opacity:0.4000; stroke:none;fill-rule:evenodd;"
d="M 19.8414,20.2750
19.8414,19.7750
21.8414,19.7750
21.8414,20.2750
Z" /> 
<path style="fill:#D864FF; fill-opacity:0.4000; stroke:none;fill-rule:evenodd;"
d="M 16.5414,21.2750
16.5414,20.7750
18.5414,20.7750
18.5414,21.2750
Z" /> 
<path style="fill:#D864FF; fill-opacity:0.4000; stroke:none;fill-rule:evenodd;"
d="M 19.8414,21.2750
19.8414,20.7750
21.8414,20.7750
21.8414,21.2750
Z" /> 
<path style="fill:#D864FF; fill-opacity:0.4000; stroke:none;fill-rule:evenodd;"
d="M 16.5414,22.2750
16.5414,21.7750
18.5414,21.7750
18.5414,22.2750
Z" /> 
<path style="fill:#D864FF; fill-opacity:0.4000; stroke:none;fill-rule:evenodd;"
d="M 19.8414,22.2750
19.8414,21.7750
21.8414,21.7750
21.8414,22.2750
Z" /> 
<path style="fill:#D864FF; fill-opacity:0.4000; stroke:none;fill-rule:evenodd;"
d="M 16.5414,23.2750
16.5414,22.7750
18.5414,22.7750
18.5414,23.2750
Z" /> 
<path style="fill:#D864FF; fill-opacity:0.4000; stroke:none;fill-rule:evenodd;"
d="M 19.8414,23.2750
19.8414,22.7750
21.8414,22.7750
21.8414,23.2750
Z" /> 
<path style="fill:#D864FF; fill-opacity:0.4000; stroke:none;fill-rule:evenodd;"
d="M 16.5414,24.2750
16.5414,23.7750
18.5414,23.7750
18.5414,24.2750
Z" /> 
<path style="fill:#D864FF; fill-opacity:0.4000; stroke:none;fill-rule:evenodd;"
d="M 19.8414,24.2750
19.8414,23.7750
21.8414,23.7750
21.8414,24.2750
Z" /> 
<path style="fill:#D864FF; fill-opacity:0.4000; stroke:none;fill-rule:evenodd;"
d="M 16.5414,25.2750
16.5414,24.7750
18.5414,24.7750
18.5414,25.2750
Z" /> 
<path style="fill:#D864FF; fill-opacity:0.4000; stroke:none;fill-rule:evenodd;"
d="M 19.8414,25.2750
19.8414,24.7750
21.8414,24.7750
21.8414,25.2750
Z" /> 
<path style="fill:#D864FF; fill-opacity:0.4000; stroke:none;fill-rule:evenodd;"
d="M 16.5414,26.2750
16.5414,25.7750
18.5414,25.7750
18.5414,26.2750
Z" /> 
<path style="fill:#D864FF; fill-opacity:0.4000; stroke:none;fill-rule:evenodd;"
d="M 19.8414,26.2750
19.8414,25.7750
21.8414,25.7750
21.8414,26.2750
Z" /> 
<path style="fill:#D864FF; fill-opacity:0.4000; stroke:none;fill-rule:evenodd;"
d="M 16.5414,27.2750
16.5414,26.7750
18.5414,26.7750
18.5414,27.2750
Z" /> 
<path style="fill:#D864FF; fill-opacity:0.4000; stroke:none;fill-rule:evenodd;"
d="M 19.8414,27.2750
19.8414,26.7750
21.8414,26.7750
21.8414,27.2750
Z" /> 
<path style="fill:#D864FF; fill-opacity:0.4000; stroke:none;fill-rule:evenodd;"
d="M 16.5414,28.2750
16.5414,27.7750
18.5414,27.7750
18.5414,28.2750
Z" /> 
<path style="fill:#D864FF; fill-opacity:0.4000; stroke:none;fill-rule:evenodd;"
d="M 19.8414,28.2750
19.8414,27.7750
21.8414,27.7750
21.8414,28.2750
Z" /> 
<path style="fill:#D864FF; fill-opacity:0.4000; stroke:none;fill-rule:evenodd;"
d="M 16.5414,29.2750
16.5414,28.7750
18.5414,28.7750
18.5414,29.2750
Z" /> 
<path style="fill:#D864FF; fill-opacity:0.4000; stroke:none;fill-rule:evenodd;"
d="M 19.8414,29.2750
19.8414,28.7750
21.8414,28.7750
21.8414,29.2750
Z" /> 
<path style="fill:#D864FF; fill-opacity:0.4000; stroke:none;fill-rule:evenodd;"
d="M 16.5414,30.2750
16.5414,29.7750
18.5414,29.7750
18.5414,30.2750
Z" /> 
<path style="fill:#D864FF; fill-opacity:0.4000; stroke:none;fill-rule:evenodd;"
d="M 19.8414,30.2750
19.8414,29.7750
21.8414,29.7750
21.8414,30.2750
Z" /> 
<path style="fill:#D864FF; fill-opacity:0.4000; stroke:none;fill-rule:evenodd;"
d="M 16.5414,31.2750
16.5414,30.7750
18.5414,30.7750
18.5414,31.2750
Z" /> 
<path style="fill:#D864FF; fill-opacity:0.4000; stroke:none;fill-rule:evenodd;"
d="M 19.8414,31.2750
19.8414,30.7750
21.8414,30.7750
21.8414,31.2750
Z" /> 
<path style="fill:#D864FF; fill-opacity:0.4000; stroke:none;fill-rule:evenodd;"
d="M 16.5414,32.2750
16.5414,31.7750
18.5414,31.7750
18.5414,32.2750
Z" /> 
<path style="fill:#D864FF; fill-opacity:0.4000; stroke:none;fill-rule:evenodd;"
d="M 19.8414,32.2750
19.8414,31.7750
21.8414,31.7750
21.8414,32.2750
Z" /> 
<path style="fill:#D864FF; fill-opacity:0.4000; stroke:none;fill-rule:evenodd;"
d="M 16.5414,33.2750
16.5414,32.7750
18.5414,32.7750
18.5414,33.2750
Z" /> 
<path style="fill:#D864FF; fill-opacity:0.4000; stroke:none;fill-rule:evenodd;"
d="M 19.8414,33.2750
19.8414,32.7750
21.8414,32.7750
21.8414,33.2750
Z" /> 
<path style="fill:#D864FF; fill-opacity:0.4000; stroke:none;fill-rule:evenodd;"
d="M 16.5414,34.2750
16.5414,33.7750
18.5414,33.7750
18.5414,34.2750
Z" /> 
<path style="fill:#D864FF; fill-opacity:0.4000; stroke:none;fill-rule:evenodd;"
d="M 19.8414,34.2750
19.8414,33.7750
21.8414,33.7750
21.8414,34.2750
Z" /> 
<path style="fill:#D864FF; fill-opacity:0.4000; stroke:none;fill-rule:evenodd;"
d="M 16.5414,35.2750
16.5414,34.7750
18.5414,34.7750
18.5414,35.2750
Z" /> 
<path style="fill:#D864FF; fill-opacity:0.4000; stroke:none;fill-rule:evenodd;"
d="M 19.8414,35.2750
19.8414,34.7750
21.8414,34.7750
21.8414,35.2750
Z" /> 
<path style="fill:#D864FF; fill-opacity:0.4000; stroke:none;fill-rule:evenodd;"
d="M 16.5414,36.2750
16.5414,35.7750
18.5414,35.7750
18.5414,36.2750
Z" /> 
<path style="fill:#D864FF; fill-opacity:0.4000; stroke:none;fill-rule:evenodd;"
d="M 19.8414,36.2750
19.8414,35.7750
21.8414,35.7750
21.8414,36.2750
Z" /> 
<path style="fill:#B4A09A; fill-opacity:0.9000; stroke:none;fill-rule:evenodd;"
d="M 16.5414,1.2750
16.5414,0.7750
18.5414,0.7750
18.5414,1.2750
Z" /> 
<path style="fill:#B4A09A; fill-opacity:0.9000; stroke:none;fill-rule:evenodd;"
d="M 19.8414,1.2750
19.8414,0.7750
21.8414,0.7750
21.8414,1.2750
Z" /> 
<path style="fill:#B4A09A; fill-opacity:0.9000; stroke:none;fill-rule:evenodd;"
d="M 16.5414,2.2750
16.5414,1.7750
18.5414,1.7750
18.5414,2.2750
Z" /> 
<path style="fill:#B4A09A; fill-opacity:0.9000; stroke:none;fill-rule:evenodd;"
d="M 19.8414,2.2750
19.8414,1.7750
21.8414,1.7750
21.8414,2.2750
Z" /> 
<path style="fill:#B4A09A; fill-opacity:0.9000; stroke:none;fill-rule:evenodd;"
d="M 16.5414,3.2750
16.5414,2.7750
18.5414,2.7750
18.5414,3.2750
Z" /> 
<path style="fill:#B4A09A; fill-opacity:0.9000; stroke:none;fill-rule:evenodd;"
d="M 19.8414,3.2750
19.8414,2.7750
21.8414,2.7750
21.8414,3.2750
Z" /> 
<path style="fill:#B4A09A; fill-opacity:0.9000; stroke:none;fill-rule:evenodd;"
d="M 16.5414,4.2750
16.5414,3.7750
18.5414,3.7750
18.5414,4.2750
Z" /> 
<path style="fill:#B4A09A; fill-opacity:0.9000; stroke:none;fill-rule:evenodd;"
d="M 19.8414,4.2750
19.8414,3.7750
21.8414,3.7750
21.8414,4.2750
Z" /> 
<path style="fill:#B4A09A; fill-opacity:0.9000; stroke:none;fill-rule:evenodd;"
d="M 16.5414,5.2750
16.5414,4.7750
18.5414,4.7750
18.5414,5.2750
Z" /> 
<path style="fill:#B4A09A; fill-opacity:0.9000; stroke:none;fill-rule:evenodd;"
d="M 19.8414,5.2750
19.8414,4.7750
21.8414,4.7750
21.8414,5.2750
Z" /> 
<path style="fill:#B4A09A; fill-opacity:0.9000; stroke:none;fill-rule:evenodd;"
d="M 16.5414,6.2750
16.5414,5.7750
18.5414,5.7750
18.5414,6.2750
Z" /> 
<path style="fill:#B4A09A; fill-opacity:0.9000; stroke:none;fill-rule:evenodd;"
d="M 19.8414,6.2750
19.8414,5.7750
21.8414,5.7750
21.8414,6.2750
Z" /> 
<path style="fill:#B4A09A; fill-opacity:0.9000; stroke:none;fill-rule:evenodd;"
d="M 16.5414,7.2750
16.5414,6.7750
18.5414,6.7750
18.5414,7.2750
Z" /> 
<path style="fill:#B4A09A; fill-opacity:0.9000; stroke:none;fill-rule:evenodd;"
d="M 19.8414,7.2750
19.8414,6.7750
21.8414,6.7750
21.8414,7.2750
Z" /> 
<path style="fill:#B4A09A; fill-opacity:0.9000; stroke:none;fill-rule:evenodd;"
d="M 16.5414,8.2750
16.5414,7.7750
18.5414,7.7750
18.5414,8.2750
Z" /> 
<path style="fill:#B4A09A; fill-opacity:0.9000; stroke:none;fill-rule:evenodd;"
d="M 19.8414,8.2750
19.8414,7.7750
21.8414,7.7750
21.8414,8.2750
Z" /> 
<path style="fill:#B4A09A; fill-opacity:0.9000; stroke:none;fill-rule:evenodd;"
d="M 16.5414,9.2750
16.5414,8.7750
18.5414,8.7750
18.5414,9.2750
Z" /> 
<path style="fill:#B4A09A; fill-opacity:0.9000; stroke:none;fill-rule:evenodd;"
d="M 19.8414,9.2750
19.8414,8.7750
21.8414,8.7750
21.8414,9.2750
Z" /> 
<path style="fill:#B4A09A; fill-opacity:0.9000; stroke:none;fill-rule:evenodd;"
d="M 16.5414,10.2750
16.5414,9.7750
18.5414,9.7750
18.5414,10.2750
Z" /> 
<path style="fill:#B4A09A; fill-opacity:0.9000; stroke:none;fill-rule:evenodd;"
d="M 19.8414,10.2750
19.8414,9.7750
21.8414,9.7750
21.8414,10.2750
Z" /> 
<path style="fill:#B4A09A; fill-opacity:0.9000; stroke:none;fill-rule:evenodd;"
d="M 16.5414,11.2750
16.5414,10.7750
18.5414,10.7750
18.5414,11.2750
Z" /> 
<path style="fill:#B4A09A; fill-opacity:0.9000; stroke:none;fill-rule:evenodd;"
d="M 19.8414,11.2750
19.8414,10.7750
21.8414,10.7750
21.8414,11.2750
Z" /> 
<path style="fill:#B4A09A; fill-opacity:0.9000; stroke:none;fill-rule:evenodd;"
d="M 16.5414,12.2750
16.5414,11.7750
18.5414,11.7750
18.5414,12.2750
Z" /> 
<path style="fill:#B4A09A; fill-opacity:0.9000; stroke:none;fill-rule:evenodd;"
d="M 19.8414,12.2750
19.8414,11.7750
21.8414,11.7750
21.8414,12.2750
Z" /> 
<path style="fill:#B4A09A; fill-opacity:0.9000; stroke:none;fill-rule:evenodd;"
d="M 16.5414,13.2750
16.5414,12.7750
18.5414,12.7750
18.5414,13.2750
Z" /> 
<path style="fill:#B4A09A; fill-opacity:0.9000; stroke:none;fill-rule:evenodd;"
d="M 19.8414,13.2750
19.8414,12.7750
21.8414,12.7750
21.8414,13.2750
Z" /> 
<path style="fill:#B4A09A; fill-opacity:0.9000; stroke:none;fill-rule:evenodd;"
d="M 16.5414,14.2750
16.5414,13.7750
18.5414,13.7750
18.5414,14.2750
Z" /> 
<path style="fill:#B4A09A; fill-opacity:0.9000; stroke:none;fill-rule:evenodd;"
d="M 19.8414,14.2750
19.8414,13.7750
21.8414,13.7750
21.8414,14.2750
Z" /> 
<path style="fill:#B4A09A; fill-opacity:0.9000; stroke:none;fill-rule:evenodd;"
d="M 16.5414,15.2750
16.5414,14.7750
18.5414,14.7750
18.5414,15.2750
Z" /> 
<path style="fill:#B4A09A; fill-opacity:0.9000; stroke:none;fill-rule:evenodd;"
d="M 19.8414,15.2750
19.8414,14.7750
21.8414,14.7750
21.8414,15.2750
Z" /> 
<path style="fill:#B4A09A; fill-opacity:0.9000; stroke:none;fill-rule:evenodd;"
d="M 16.5414,16.2750
16.5414,15.7750
18.5414,15.7750
18.5414,16.2750
Z" /> 
<path style="fill:#B4A09A; fill-opacity:0.9000; stroke:none;fill-rule:evenodd;"
d="M 19.8414,16.2750
19.8414,15.7750
21.8414,15.7750
21.8414,16.2750
Z" /> 
<path style="fill:#B4A09A; fill-opacity:0.9000; stroke:none;fill-rule:evenodd;"
d="M 16.5414,17.2750
16.5414,16.7750
18.5414,16.7750
18.5414,17.2750
Z" /> 
<path style="fill:#B4A09A; fill-opacity:0.9000; stroke:none;fill-rule:evenodd;"
d="M 19.8414,17.2750
19.8414,16.7750
21.8414,16.7750
21.8414,17.2750
Z" /> 
<path style="fill:#B4A09A; fill-opacity:0.9000; stroke:none;fill-rule:evenodd;"
d="M 16.5414,18.2750
16.5414,17.7750
18.5414,17.7750
18.5414,18.2750
Z" /> 
<path style="fill:#B4A09A; fill-opacity:0.9000; stroke:none;fill-rule:evenodd;"
d="M 19.8414,18.2750
19.8414,17.7750
21.8414,17.7750
21.8414,18.2750
Z" /> 
<path style="fill:#B4A09A; fill-opacity:0.9000; stroke:none;fill-rule:evenodd;"
d="M 16.5414,19.2750
16.5414,18.7750
18.5414,18.7750
18.5414,19.2750
Z" /> 
<path style="fill:#B4A09A; fill-opacity:0.9000; stroke:none;fill-rule:evenodd;"
d="M 19.8414,19.2750
19.8414,18.7750
21.8414,18.7750
21.8414,19.2750
Z" /> 
<path style="fill:#B4A09A; fill-opacity:0.9000; stroke:none;fill-rule:evenodd;"
d="M 16.5414,20.2750
16.5414,19.7750
18.5414,19.7750
18.5414,20.2750
Z" /> 
<path style="fill:#B4A09A; fill-opacity:0.9000; stroke:none;fill-rule:evenodd;"
d="M 19.8414,20.2750
19.8414,19.7750
21.8414,19.7750
21.8414,20.2750
Z" /> 
<path style="fill:#B4A09A; fill-opacity:0.9000; stroke:none;fill-rule:evenodd;"
d="M 16.5414,21.2750
16.5414,20.7750
18.5414,20.7750
18.5414,21.2750
Z" /> 
<path style="fill:#B4A09A; fill-opacity:0.9000; stroke:none;fill-rule:evenodd;"
d="M 19.8414,21.2750
19.8414,20.7750
21.8414,20.7750
21.8414,21.2750
Z" /> 
<path style="fill:#B4A09A; fill-opacity:0.9000; stroke:none;fill-rule:evenodd;"
d="M 16.5414,22.2750
16.5414,21.7750
18.5414,21.7750
18.5414,22.2750
Z" /> 
<path style="fill:#B4A09A; fill-opacity:0.9000; stroke:none;fill-rule:evenodd;"
d="M 19.8414,22.2750
19.8414,21.7750
21.8414,21.7750
21.8414,22.2750
Z" /> 
<path style="fill:#B4A09A; fill-opacity:0.9000; stroke:none;fill-rule:evenodd;"
d="M 16.5414,23.2750
16.5414,22.7750
18.5414,22.7750
18.5414,23.2750
Z" /> 
<path style="fill:#B4A09A; fill-opacity:0.9000; stroke:none;fill-rule:evenodd;"
d="M 19.8414,23.2750
19.8414,22.7750
21.8414,22.7750
21.8414,23.2750
Z" /> 
<path style="fill:#B4A09A; fill-opacity:0.9000; stroke:none;fill-rule:evenodd;"
d="M 16.5414,24.2750
16.5414,23.7750
18.5414,23.7750
18.5414,24.2750
Z" /> 
<path style="fill:#B4A09A; fill-opacity:0.9000; stroke:none;fill-rule:evenodd;"
d="M 19.8414,24.2750
19.8414,23.7750
21.8414,23.7750
21.8414,24.2750
Z" /> 
<path style="fill:#B4A09A; fill-opacity:0.9000; stroke:none;fill-rule:evenodd;"
d="M 16.5414,25.2750
16.5414,24.7750
18.5414,24.7750
18.5414,25.2750
Z" /> 
<path style="fill:#B4A09A; fill-opacity:0.9000; stroke:none;fill-rule:evenodd;"
d="M 19.8414,25.2750
19.8414,24.7750
21.8414,24.7750
21.8414,25.2750
Z" /> 
<path style="fill:#B4A09A; fill-opacity:0.9000; stroke:none;fill-rule:evenodd;"
d="M 16.5414,26.2750
16.5414,25.7750
18.5414,25.7750
18.5414,26.2750
Z" /> 
<path style="fill:#B4A09A; fill-opacity:0.9000; stroke:none;fill-rule:evenodd;"
d="M 19.8414,26.2750
19.8414,25.7750
21.8414,25.7750
21.8414,26.2750
Z" /> 
<path style="fill:#B4A09A; fill-opacity:0.9000; stroke:none;fill-rule:evenodd;"
d="M 16.5414,27.2750
16.5414,26.7750
18.5414,26.7750
18.5414,27.2750
Z" /> 
<path style="fill:#B4A09A; fill-opacity:0.9000; stroke:none;fill-rule:evenodd;"
d="M 19.8414,27.2750
19.8414,26.7750
21.8414,26.7750
21.8414,27.2750
Z" /> 
<path style="fill:#B4A09A; fill-opacity:0.9000; stroke:none;fill-rule:evenodd;"
d="M 16.5414,28.2750
16.5414,27.7750
18.5414,27.7750
18.5414,28.2750
Z" /> 
<path style="fill:#B4A09A; fill-opacity:0.9000; stroke:none;fill-rule:evenodd;"
d="M 19.8414,28.2750
19.8414,27.7750
21.8414,27.7750
21.8414,28.2750
Z" /> 
<path style="fill:#B4A09A; fill-opacity:0.9000; stroke:none;fill-rule:evenodd;"
d="M 16.5414,29.2750
16.5414,28.7750
18.5414,28.7750
18.5414,29.2750
Z" /> 
<path style="fill:#B4A09A; fill-opacity:0.9000; stroke:none;fill-rule:evenodd;"
d="M 19.8414,29.2750
19.8414,28.7750
21.8414,28.7750
21.8414,29.2750
Z" /> 
<path style="fill:#B4A09A; fill-opacity:0.9000; stroke:none;fill-rule:evenodd;"
d="M 16.5414,30.2750
16.5414,29.7750
18.5414,29.7750
18.5414,30.2750
Z" /> 
<path style="fill:#B4A09A; fill-opacity:0.9000; stroke:none;fill-rule:evenodd;"
d="M 19.8414,30.2750
19.8414,29.7750
21.8414,29.7750
21.8414,30.2750
Z" /> 
<path style="fill:#B4A09A; fill-opacity:0.9000; stroke:none;fill-rule:evenodd;"
d="M 16.5414,31.2750
16.5414,30.7750
18.5414,30.7750
18.5414,31.2750
Z" /> 
<path style="fill:#B4A09A; fill-opacity:0.9000; stroke:none;fill-rule:evenodd;"
d="M 19.8414,31.2750
19.8414,30.7750
21.8414,30.7750
21.8414,31.2750
Z" /> 
<path style="fill:#B4A09A; fill-opacity:0.9000; stroke:none;fill-rule:evenodd;"
d="M 16.5414,32.2750
16.5414,31.7750
18.5414,31.7750
18.5414,32.2750
Z" /> 
<path style="fill:#B4A09A; fill-opacity:0.9000; stroke:none;fill-rule:evenodd;"
d="M 19.8414,32.2750
19.8414,31.7750
21.8414,31.7750
21.8414,32.2750
Z" /> 
<path style="fill:#B4A09A; fill-opacity:0.9000; stroke:none;fill-rule:evenodd;"
d="M 16.5414,33.2750
16.5414,32.7750
18.5414,32.7750
18.5414,33.2750
Z" /> 
<path style="fill:#B4A09A; fill-opacity:0.9000; stroke:none;fill-rule:evenodd;"
d="M 19.8414,33.2750
19.8414,32.7750
21.8414,32.7750
21.8414,33.2750
Z" /> 
<path style="fill:#B4A09A; fill-opacity:0.9000; stroke:none;fill-rule:evenodd;"
d="M 16.5414,34.2750
16.5414,33.7750
18.5414,33.7750
18.5414,34.2750
Z" /> 
<path style="fill:#B4A09A; fill-opacity:0.9000; stroke:none;fill-rule:evenodd;"
d="M 19.8414,34.2750
19.8414,33.7750
21.8414,33.7750
21.8414,34.2750
Z" /> 
<path style="fill:#B4A09A; fill-opacity:0.9000; stroke:none;fill-rule:evenodd;"
d="M 16.5414,35.2750
16.5414,34.7750
18.5414,34.7750
18.5414,35.2750
Z" /> 
<path style="fill:#B4A09A; fill-opacity:0.9000; stroke:none;fill-rule:evenodd;"
d="M 19.8414,35.2750
19.8414,34.7750
21.8414,34.7750
21.8414,35.2750
Z" /> 
<path style="fill:#B4A09A; fill-opacity:0.9000; stroke:none;fill-rule:evenodd;"
d="M 16.5414,36.2750
16.5414,35.7750
18.5414,35.7750
18.5414,36.2750
Z" /> 
<path style="fill:#B4A09A; fill-opacity:0.9000; stroke:none;fill-rule:evenodd;"
d="M 19.8414,36.2750
19.8414,35.7750
21.8414,35.7750
21.8414,36.2750
Z" /> 
</g>
<g style="fill:none; 
stroke:#F2EDA1; stroke-width:0.1588; stroke-opacity:1; 
stroke-linecap:round; stroke-linejoin:round;">
<text x="19.1914" y="19.1600"
textLength="5.6651" font-size="1.6933" lengthAdjust="spacingAndGlyphs"
text-anchor="middle" opacity="0">REF**</text>
<g class="stroked-text"><desc>REF**</desc>
<path d="M17.4980 19.1043
L17.0747 18.4995
" />
<path d="M16.7723 19.1043
L16.7723 17.8343
" />
<path d="M16.7723 17.8343
L17.2561 17.8343
" />
<path d="M17.2561 17.8343
L17.3771 17.8947
" />
<path d="M17.3771 17.8947
L17.4376 17.9552
" />
<path d="M17.4376 17.9552
L17.4980 18.0762
" />
<path d="M17.4980 18.0762
L17.4980 18.2576
" />
<path d="M17.4980 18.2576
L17.4376 18.3786
" />
<path d="M17.4376 18.3786
L17.3771 18.4390
" />
<path d="M17.3771 18.4390
L17.2561 18.4995
" />
<path d="M17.2561 18.4995
L16.7723 18.4995
" />
<path d="M18.0423 18.4390
L18.4656 18.4390
" />
<path d="M18.6471 19.1043
L18.0423 19.1043
" />
<path d="M18.0423 19.1043
L18.0423 17.8343
" />
<path d="M18.0423 17.8343
L18.6471 17.8343
" />
<path d="M19.6147 18.4390
L19.1914 18.4390
" />
<path d="M19.1914 19.1043
L19.1914 17.8343
" />
<path d="M19.1914 17.8343
L19.7961 17.8343
" />
<path d="M20.4614 17.8343
L20.4614 18.1367
" />
<path d="M20.1590 18.0157
L20.4614 18.1367
" />
<path d="M20.4614 18.1367
L20.7637 18.0157
" />
<path d="M20.2799 18.3786
L20.4614 18.1367
" />
<path d="M20.4614 18.1367
L20.6428 18.3786
" />
<path d="M21.4290 17.8343
L21.4290 18.1367
" />
<path d="M21.1266 18.0157
L21.4290 18.1367
" />
<path d="M21.4290 18.1367
L21.7314 18.0157
" />
<path d="M21.2476 18.3786
L21.4290 18.1367
" />
<path d="M21.4290 18.1367
L21.6104 18.3786
" />
</g></g>
<g style="fill:none; 
stroke:#F2EDA1; stroke-width:0.1200; stroke-opacity:1; 
stroke-linecap:round; stroke-linejoin:round;">
<path d="M16.6014 0.5150
L17.9814 0.5150
" />
<path d="M17.9814 0.4650
L17.9814 0.5150
" />
<path d="M17.9814 0.4650
L20.4014 0.4650
" />
<path d="M17.9814 36.5350
L17.9814 36.5850
" />
<path d="M17.9814 36.5850
L20.4014 36.5850
" />
<path d="M20.4014 0.4650
L20.4014 0.5150
" />
<path d="M20.4014 36.5350
L20.4014 36.5850
" />
</g>
<g style="fill:none; 
stroke:#FF26E2; stroke-width:0.0500; stroke-opacity:1; 
stroke-linecap:round; stroke-linejoin:round;">
<path d="M15.5414 0.0250
L15.5414 37.0250
" />
<path d="M15.5414 37.0250
L22.8414 37.0250
" />
<path d="M22.8414 0.0250
L15.5414 0.0250
" />
<path d="M22.8414 37.0250
L22.8414 0.0250
" />
</g>
<g style="fill:none; 
stroke:#AFAFAF; stroke-width:0.1588; stroke-opacity:1; 
stroke-linecap:round; stroke-linejoin:round;">
<text x="19.1914" y="19.1600"
textLength="38.3827" font-size="1.6933" lengthAdjust="spacingAndGlyphs"
text-anchor="middle" opacity="0">PinHeader_2x36_P1.00mm_Vertical_SMD</text>
<g class="stroked-text"><desc>PinHeader_2x36_P1.00mm_Vertical_SMD</desc>
<path d="M0.4135 19.1043
L0.4135 17.8343
" />
<path d="M0.4135 17.8343
L0.8973 17.8343
" />
<path d="M0.8973 17.8343
L1.0183 17.8947
" />
<path d="M1.0183 17.8947
L1.0787 17.9552
" />
<path d="M1.0787 17.9552
L1.1392 18.0762
" />
<path d="M1.1392 18.0762
L1.1392 18.2576
" />
<path d="M1.1392 18.2576
L1.0787 18.3786
" />
<path d="M1.0787 18.3786
L1.0183 18.4390
" />
<path d="M1.0183 18.4390
L0.8973 18.4995
" />
<path d="M0.8973 18.4995
L0.4135 18.4995
" />
<path d="M1.6835 19.1043
L1.6835 18.2576
" />
<path d="M1.6835 17.8343
L1.6230 17.8947
" />
<path d="M1.6230 17.8947
L1.6835 17.9552
" />
<path d="M1.6835 17.9552
L1.7440 17.8947
" />
<path d="M1.7440 17.8947
L1.6835 17.8343
" />
<path d="M1.6835 17.8343
L1.6835 17.9552
" />
<path d="M2.2883 18.2576
L2.2883 19.1043
" />
<path d="M2.2883 18.3786
L2.3487 18.3181
" />
<path d="M2.3487 18.3181
L2.4697 18.2576
" />
<path d="M2.4697 18.2576
L2.6511 18.2576
" />
<path d="M2.6511 18.2576
L2.7721 18.3181
" />
<path d="M2.7721 18.3181
L2.8326 18.4390
" />
<path d="M2.8326 18.4390
L2.8326 19.1043
" />
<path d="M3.4373 19.1043
L3.4373 17.8343
" />
<path d="M3.4373 18.4390
L4.1630 18.4390
" />
<path d="M4.1630 19.1043
L4.1630 17.8343
" />
<path d="M5.2516 19.0438
L5.1307 19.1043
" />
<path d="M5.1307 19.1043
L4.8887 19.1043
" />
<path d="M4.8887 19.1043
L4.7678 19.0438
" />
<path d="M4.7678 19.0438
L4.7073 18.9228
" />
<path d="M4.7073 18.9228
L4.7073 18.4390
" />
<path d="M4.7073 18.4390
L4.7678 18.3181
" />
<path d="M4.7678 18.3181
L4.8887 18.2576
" />
<path d="M4.8887 18.2576
L5.1307 18.2576
" />
<path d="M5.1307 18.2576
L5.2516 18.3181
" />
<path d="M5.2516 18.3181
L5.3121 18.4390
" />
<path d="M5.3121 18.4390
L5.3121 18.5600
" />
<path d="M5.3121 18.5600
L4.7073 18.6809
" />
<path d="M6.4006 19.1043
L6.4006 18.4390
" />
<path d="M6.4006 18.4390
L6.3402 18.3181
" />
<path d="M6.3402 18.3181
L6.2192 18.2576
" />
<path d="M6.2192 18.2576
L5.9773 18.2576
" />
<path d="M5.9773 18.2576
L5.8564 18.3181
" />
<path d="M6.4006 19.0438
L6.2797 19.1043
" />
<path d="M6.2797 19.1043
L5.9773 19.1043
" />
<path d="M5.9773 19.1043
L5.8564 19.0438
" />
<path d="M5.8564 19.0438
L5.7959 18.9228
" />
<path d="M5.7959 18.9228
L5.7959 18.8019
" />
<path d="M5.7959 18.8019
L5.8564 18.6809
" />
<path d="M5.8564 18.6809
L5.9773 18.6205
" />
<path d="M5.9773 18.6205
L6.2797 18.6205
" />
<path d="M6.2797 18.6205
L6.4006 18.5600
" />
<path d="M7.5497 19.1043
L7.5497 17.8343
" />
<path d="M7.5497 19.0438
L7.4287 19.1043
" />
<path d="M7.4287 19.1043
L7.1868 19.1043
" />
<path d="M7.1868 19.1043
L7.0659 19.0438
" />
<path d="M7.0659 19.0438
L7.0054 18.9833
" />
<path d="M7.0054 18.9833
L6.9449 18.8624
" />
<path d="M6.9449 18.8624
L6.9449 18.4995
" />
<path d="M6.9449 18.4995
L7.0054 18.3786
" />
<path d="M7.0054 18.3786
L7.0659 18.3181
" />
<path d="M7.0659 18.3181
L7.1868 18.2576
" />
<path d="M7.1868 18.2576
L7.4287 18.2576
" />
<path d="M7.4287 18.2576
L7.5497 18.3181
" />
<path d="M8.6383 19.0438
L8.5173 19.1043
" />
<path d="M8.5173 19.1043
L8.2754 19.1043
" />
<path d="M8.2754 19.1043
L8.1545 19.0438
" />
<path d="M8.1545 19.0438
L8.0940 18.9228
" />
<path d="M8.0940 18.9228
L8.0940 18.4390
" />
<path d="M8.0940 18.4390
L8.1545 18.3181
" />
<path d="M8.1545 18.3181
L8.2754 18.2576
" />
<path d="M8.2754 18.2576
L8.5173 18.2576
" />
<path d="M8.5173 18.2576
L8.6383 18.3181
" />
<path d="M8.6383 18.3181
L8.6987 18.4390
" />
<path d="M8.6987 18.4390
L8.6987 18.5600
" />
<path d="M8.6987 18.5600
L8.0940 18.6809
" />
<path d="M9.2430 19.1043
L9.2430 18.2576
" />
<path d="M9.2430 18.4995
L9.3035 18.3786
" />
<path d="M9.3035 18.3786
L9.3640 18.3181
" />
<path d="M9.3640 18.3181
L9.4849 18.2576
" />
<path d="M9.4849 18.2576
L9.6059 18.2576
" />
<path d="M9.7268 19.2252
L10.6945 19.2252
" />
<path d="M10.9364 17.9552
L10.9968 17.8947
" />
<path d="M10.9968 17.8947
L11.1178 17.8343
" />
<path d="M11.1178 17.8343
L11.4202 17.8343
" />
<path d="M11.4202 17.8343
L11.5411 17.8947
" />
<path d="M11.5411 17.8947
L11.6016 17.9552
" />
<path d="M11.6016 17.9552
L11.6621 18.0762
" />
<path d="M11.6621 18.0762
L11.6621 18.1971
" />
<path d="M11.6621 18.1971
L11.6016 18.3786
" />
<path d="M11.6016 18.3786
L10.8759 19.1043
" />
<path d="M10.8759 19.1043
L11.6621 19.1043
" />
<path d="M12.0854 19.1043
L12.7506 18.2576
" />
<path d="M12.0854 18.2576
L12.7506 19.1043
" />
<path d="M13.1135 17.8343
L13.8997 17.8343
" />
<path d="M13.8997 17.8343
L13.4764 18.3181
" />
<path d="M13.4764 18.3181
L13.6578 18.3181
" />
<path d="M13.6578 18.3181
L13.7787 18.3786
" />
<path d="M13.7787 18.3786
L13.8392 18.4390
" />
<path d="M13.8392 18.4390
L13.8997 18.5600
" />
<path d="M13.8997 18.5600
L13.8997 18.8624
" />
<path d="M13.8997 18.8624
L13.8392 18.9833
" />
<path d="M13.8392 18.9833
L13.7787 19.0438
" />
<path d="M13.7787 19.0438
L13.6578 19.1043
" />
<path d="M13.6578 19.1043
L13.2949 19.1043
" />
<path d="M13.2949 19.1043
L13.1740 19.0438
" />
<path d="M13.1740 19.0438
L13.1135 18.9833
" />
<path d="M14.9883 17.8343
L14.7464 17.8343
" />
<path d="M14.7464 17.8343
L14.6254 17.8947
" />
<path d="M14.6254 17.8947
L14.5649 17.9552
" />
<path d="M14.5649 17.9552
L14.4440 18.1367
" />
<path d="M14.4440 18.1367
L14.3835 18.3786
" />
<path d="M14.3835 18.3786
L14.3835 18.8624
" />
<path d="M14.3835 18.8624
L14.4440 18.9833
" />
<path d="M14.4440 18.9833
L14.5045 19.0438
" />
<path d="M14.5045 19.0438
L14.6254 19.1043
" />
<path d="M14.6254 19.1043
L14.8673 19.1043
" />
<path d="M14.8673 19.1043
L14.9883 19.0438
" />
<path d="M14.9883 19.0438
L15.0487 18.9833
" />
<path d="M15.0487 18.9833
L15.1092 18.8624
" />
<path d="M15.1092 18.8624
L15.1092 18.5600
" />
<path d="M15.1092 18.5600
L15.0487 18.4390
" />
<path d="M15.0487 18.4390
L14.9883 18.3786
" />
<path d="M14.9883 18.3786
L14.8673 18.3181
" />
<path d="M14.8673 18.3181
L14.6254 18.3181
" />
<path d="M14.6254 18.3181
L14.5045 18.3786
" />
<path d="M14.5045 18.3786
L14.4440 18.4390
" />
<path d="M14.4440 18.4390
L14.3835 18.5600
" />
<path d="M15.3511 19.2252
L16.3187 19.2252
" />
<path d="M16.6211 19.1043
L16.6211 17.8343
" />
<path d="M16.6211 17.8343
L17.1049 17.8343
" />
<path d="M17.1049 17.8343
L17.2259 17.8947
" />
<path d="M17.2259 17.8947
L17.2864 17.9552
" />
<path d="M17.2864 17.9552
L17.3468 18.0762
" />
<path d="M17.3468 18.0762
L17.3468 18.2576
" />
<path d="M17.3468 18.2576
L17.2864 18.3786
" />
<path d="M17.2864 18.3786
L17.2259 18.4390
" />
<path d="M17.2259 18.4390
L17.1049 18.4995
" />
<path d="M17.1049 18.4995
L16.6211 18.4995
" />
<path d="M18.5564 19.1043
L17.8306 19.1043
" />
<path d="M18.1935 19.1043
L18.1935 17.8343
" />
<path d="M18.1935 17.8343
L18.0726 18.0157
" />
<path d="M18.0726 18.0157
L17.9516 18.1367
" />
<path d="M17.9516 18.1367
L17.8306 18.1971
" />
<path d="M19.1006 18.9833
L19.1611 19.0438
" />
<path d="M19.1611 19.0438
L19.1006 19.1043
" />
<path d="M19.1006 19.1043
L19.0402 19.0438
" />
<path d="M19.0402 19.0438
L19.1006 18.9833
" />
<path d="M19.1006 18.9833
L19.1006 19.1043
" />
<path d="M19.9473 17.8343
L20.0683 17.8343
" />
<path d="M20.0683 17.8343
L20.1892 17.8947
" />
<path d="M20.1892 17.8947
L20.2497 17.9552
" />
<path d="M20.2497 17.9552
L20.3102 18.0762
" />
<path d="M20.3102 18.0762
L20.3706 18.3181
" />
<path d="M20.3706 18.3181
L20.3706 18.6205
" />
<path d="M20.3706 18.6205
L20.3102 18.8624
" />
<path d="M20.3102 18.8624
L20.2497 18.9833
" />
<path d="M20.2497 18.9833
L20.1892 19.0438
" />
<path d="M20.1892 19.0438
L20.0683 19.1043
" />
<path d="M20.0683 19.1043
L19.9473 19.1043
" />
<path d="M19.9473 19.1043
L19.8264 19.0438
" />
<path d="M19.8264 19.0438
L19.7659 18.9833
" />
<path d="M19.7659 18.9833
L19.7054 18.8624
" />
<path d="M19.7054 18.8624
L19.6449 18.6205
" />
<path d="M19.6449 18.6205
L19.6449 18.3181
" />
<path d="M19.6449 18.3181
L19.7054 18.0762
" />
<path d="M19.7054 18.0762
L19.7659 17.9552
" />
<path d="M19.7659 17.9552
L19.8264 17.8947
" />
<path d="M19.8264 17.8947
L19.9473 17.8343
" />
<path d="M21.1568 17.8343
L21.2778 17.8343
" />
<path d="M21.2778 17.8343
L21.3987 17.8947
" />
<path d="M21.3987 17.8947
L21.4592 17.9552
" />
<path d="M21.4592 17.9552
L21.5197 18.0762
" />
<path d="M21.5197 18.0762
L21.5802 18.3181
" />
<path d="M21.5802 18.3181
L21.5802 18.6205
" />
<path d="M21.5802 18.6205
L21.5197 18.8624
" />
<path d="M21.5197 18.8624
L21.4592 18.9833
" />
<path d="M21.4592 18.9833
L21.3987 19.0438
" />
<path d="M21.3987 19.0438
L21.2778 19.1043
" />
<path d="M21.2778 19.1043
L21.1568 19.1043
" />
<path d="M21.1568 19.1043
L21.0359 19.0438
" />
<path d="M21.0359 19.0438
L20.9754 18.9833
" />
<path d="M20.9754 18.9833
L20.9149 18.8624
" />
<path d="M20.9149 18.8624
L20.8545 18.6205
" />
<path d="M20.8545 18.6205
L20.8545 18.3181
" />
<path d="M20.8545 18.3181
L20.9149 18.0762
" />
<path d="M20.9149 18.0762
L20.9754 17.9552
" />
<path d="M20.9754 17.9552
L21.0359 17.8947
" />
<path d="M21.0359 17.8947
L21.1568 17.8343
" />
<path d="M22.1245 19.1043
L22.1245 18.2576
" />
<path d="M22.1245 18.3786
L22.1849 18.3181
" />
<path d="M22.1849 18.3181
L22.3059 18.2576
" />
<path d="M22.3059 18.2576
L22.4873 18.2576
" />
<path d="M22.4873 18.2576
L22.6083 18.3181
" />
<path d="M22.6083 18.3181
L22.6687 18.4390
" />
<path d="M22.6687 18.4390
L22.6687 19.1043
" />
<path d="M22.6687 18.4390
L22.7292 18.3181
" />
<path d="M22.7292 18.3181
L22.8502 18.2576
" />
<path d="M22.8502 18.2576
L23.0316 18.2576
" />
<path d="M23.0316 18.2576
L23.1526 18.3181
" />
<path d="M23.1526 18.3181
L23.2130 18.4390
" />
<path d="M23.2130 18.4390
L23.2130 19.1043
" />
<path d="M23.8178 19.1043
L23.8178 18.2576
" />
<path d="M23.8178 18.3786
L23.8783 18.3181
" />
<path d="M23.8783 18.3181
L23.9992 18.2576
" />
<path d="M23.9992 18.2576
L24.1806 18.2576
" />
<path d="M24.1806 18.2576
L24.3016 18.3181
" />
<path d="M24.3016 18.3181
L24.3621 18.4390
" />
<path d="M24.3621 18.4390
L24.3621 19.1043
" />
<path d="M24.3621 18.4390
L24.4226 18.3181
" />
<path d="M24.4226 18.3181
L24.5435 18.2576
" />
<path d="M24.5435 18.2576
L24.7249 18.2576
" />
<path d="M24.7249 18.2576
L24.8459 18.3181
" />
<path d="M24.8459 18.3181
L24.9064 18.4390
" />
<path d="M24.9064 18.4390
L24.9064 19.1043
" />
<path d="M25.2087 19.2252
L26.1764 19.2252
" />
<path d="M26.2973 17.8343
L26.7206 19.1043
" />
<path d="M26.7206 19.1043
L27.1440 17.8343
" />
<path d="M28.0511 19.0438
L27.9302 19.1043
" />
<path d="M27.9302 19.1043
L27.6883 19.1043
" />
<path d="M27.6883 19.1043
L27.5673 19.0438
" />
<path d="M27.5673 19.0438
L27.5068 18.9228
" />
<path d="M27.5068 18.9228
L27.5068 18.4390
" />
<path d="M27.5068 18.4390
L27.5673 18.3181
" />
<path d="M27.5673 18.3181
L27.6883 18.2576
" />
<path d="M27.6883 18.2576
L27.9302 18.2576
" />
<path d="M27.9302 18.2576
L28.0511 18.3181
" />
<path d="M28.0511 18.3181
L28.1116 18.4390
" />
<path d="M28.1116 18.4390
L28.1116 18.5600
" />
<path d="M28.1116 18.5600
L27.5068 18.6809
" />
<path d="M28.6559 19.1043
L28.6559 18.2576
" />
<path d="M28.6559 18.4995
L28.7164 18.3786
" />
<path d="M28.7164 18.3786
L28.7768 18.3181
" />
<path d="M28.7768 18.3181
L28.8978 18.2576
" />
<path d="M28.8978 18.2576
L29.0187 18.2576
" />
<path d="M29.2606 18.2576
L29.7445 18.2576
" />
<path d="M29.4421 17.8343
L29.4421 18.9228
" />
<path d="M29.4421 18.9228
L29.5026 19.0438
" />
<path d="M29.5026 19.0438
L29.6235 19.1043
" />
<path d="M29.6235 19.1043
L29.7445 19.1043
" />
<path d="M30.1678 19.1043
L30.1678 18.2576
" />
<path d="M30.1678 17.8343
L30.1073 17.8947
" />
<path d="M30.1073 17.8947
L30.1678 17.9552
" />
<path d="M30.1678 17.9552
L30.2283 17.8947
" />
<path d="M30.2283 17.8947
L30.1678 17.8343
" />
<path d="M30.1678 17.8343
L30.1678 17.9552
" />
<path d="M31.3168 19.0438
L31.1959 19.1043
" />
<path d="M31.1959 19.1043
L30.9540 19.1043
" />
<path d="M30.9540 19.1043
L30.8330 19.0438
" />
<path d="M30.8330 19.0438
L30.7726 18.9833
" />
<path d="M30.7726 18.9833
L30.7121 18.8624
" />
<path d="M30.7121 18.8624
L30.7121 18.4995
" />
<path d="M30.7121 18.4995
L30.7726 18.3786
" />
<path d="M30.7726 18.3786
L30.8330 18.3181
" />
<path d="M30.8330 18.3181
L30.9540 18.2576
" />
<path d="M30.9540 18.2576
L31.1959 18.2576
" />
<path d="M31.1959 18.2576
L31.3168 18.3181
" />
<path d="M32.4054 19.1043
L32.4054 18.4390
" />
<path d="M32.4054 18.4390
L32.3449 18.3181
" />
<path d="M32.3449 18.3181
L32.2240 18.2576
" />
<path d="M32.2240 18.2576
L31.9821 18.2576
" />
<path d="M31.9821 18.2576
L31.8611 18.3181
" />
<path d="M32.4054 19.0438
L32.2845 19.1043
" />
<path d="M32.2845 19.1043
L31.9821 19.1043
" />
<path d="M31.9821 19.1043
L31.8611 19.0438
" />
<path d="M31.8611 19.0438
L31.8006 18.9228
" />
<path d="M31.8006 18.9228
L31.8006 18.8019
" />
<path d="M31.8006 18.8019
L31.8611 18.6809
" />
<path d="M31.8611 18.6809
L31.9821 18.6205
" />
<path d="M31.9821 18.6205
L32.2845 18.6205
" />
<path d="M32.2845 18.6205
L32.4054 18.5600
" />
<path d="M33.1916 19.1043
L33.0706 19.0438
" />
<path d="M33.0706 19.0438
L33.0102 18.9228
" />
<path d="M33.0102 18.9228
L33.0102 17.8343
" />
<path d="M33.3730 19.2252
L34.3406 19.2252
" />
<path d="M34.5826 19.0438
L34.7640 19.1043
" />
<path d="M34.7640 19.1043
L35.0664 19.1043
" />
<path d="M35.0664 19.1043
L35.1873 19.0438
" />
<path d="M35.1873 19.0438
L35.2478 18.9833
" />
<path d="M35.2478 18.9833
L35.3083 18.8624
" />
<path d="M35.3083 18.8624
L35.3083 18.7414
" />
<path d="M35.3083 18.7414
L35.2478 18.6205
" />
<path d="M35.2478 18.6205
L35.1873 18.5600
" />
<path d="M35.1873 18.5600
L35.0664 18.4995
" />
<path d="M35.0664 18.4995
L34.8245 18.4390
" />
<path d="M34.8245 18.4390
L34.7035 18.3786
" />
<path d="M34.7035 18.3786
L34.6430 18.3181
" />
<path d="M34.6430 18.3181
L34.5826 18.1971
" />
<path d="M34.5826 18.1971
L34.5826 18.0762
" />
<path d="M34.5826 18.0762
L34.6430 17.9552
" />
<path d="M34.6430 17.9552
L34.7035 17.8947
" />
<path d="M34.7035 17.8947
L34.8245 17.8343
" />
<path d="M34.8245 17.8343
L35.1268 17.8343
" />
<path d="M35.1268 17.8343
L35.3083 17.8947
" />
<path d="M35.8526 19.1043
L35.8526 17.8343
" />
<path d="M35.8526 17.8343
L36.2759 18.7414
" />
<path d="M36.2759 18.7414
L36.6992 17.8343
" />
<path d="M36.6992 17.8343
L36.6992 19.1043
" />
<path d="M37.3040 19.1043
L37.3040 17.8343
" />
<path d="M37.3040 17.8343
L37.6064 17.8343
" />
<path d="M37.6064 17.8343
L37.7878 17.8947
" />
<path d="M37.7878 17.8947
L37.9087 18.0157
" />
<path d="M37.9087 18.0157
L37.9692 18.1367
" />
<path d="M37.9692 18.1367
L38.0297 18.3786
" />
<path d="M38.0297 18.3786
L38.0297 18.5600
" />
<path d="M38.0297 18.5600
L37.9692 18.8019
" />
<path d="M37.9692 18.8019
L37.9087 18.9228
" />
<path d="M37.9087 18.9228
L37.7878 19.0438
" />
<path d="M37.7878 19.0438
L37.6064 19.1043
" />
<path d="M37.6064 19.1043
L37.3040 19.1043
" />
</g></g>
<g style="fill:none; 
stroke:#AFAFAF; stroke-width:0.1500; stroke-opacity:1; 
stroke-linecap:round; stroke-linejoin:round;">
<g transform="rotate(-90.000000 19.1914 18.5250)">
<text x="19.1914" y="19.0250"
textLength="4.5357" font-size="1.3333" lengthAdjust="spacingAndGlyphs"
text-anchor="middle" opacity="0">REF**</text>
</g>
<g class="stroked-text"><desc>REF**</desc>
<path d="M19.6462 19.8583
L19.1700 20.1917
" />
<path d="M19.6462 20.4298
L18.6462 20.4298
" />
<path d="M18.6462 20.4298
L18.6462 20.0488
" />
<path d="M18.6462 20.0488
L18.6938 19.9536
" />
<path d="M18.6938 19.9536
L18.7414 19.9060
" />
<path d="M18.7414 19.9060
L18.8367 19.8583
" />
<path d="M18.8367 19.8583
L18.9795 19.8583
" />
<path d="M18.9795 19.8583
L19.0748 19.9060
" />
<path d="M19.0748 19.9060
L19.1224 19.9536
" />
<path d="M19.1224 19.9536
L19.1700 20.0488
" />
<path d="M19.1700 20.0488
L19.1700 20.4298
" />
<path d="M19.1224 19.4298
L19.1224 19.0964
" />
<path d="M19.6462 18.9536
L19.6462 19.4298
" />
<path d="M19.6462 19.4298
L18.6462 19.4298
" />
<path d="M18.6462 19.4298
L18.6462 18.9536
" />
<path d="M19.1224 18.1917
L19.1224 18.5250
" />
<path d="M19.6462 18.5250
L18.6462 18.5250
" />
<path d="M18.6462 18.5250
L18.6462 18.0488
" />
<path d="M18.6462 17.5250
L18.8843 17.5250
" />
<path d="M18.7890 17.7631
L18.8843 17.5250
" />
<path d="M18.8843 17.5250
L18.7890 17.2869
" />
<path d="M19.0748 17.6679
L18.8843 17.5250
" />
<path d="M18.8843 17.5250
L19.0748 17.3821
" />
<path d="M18.6462 16.7631
L18.8843 16.7631
" />
<path d="M18.7890 17.0012
L18.8843 16.7631
" />
<path d="M18.8843 16.7631
L18.7890 16.5250
" />
<path d="M19.0748 16.9060
L18.8843 16.7631
" />
<path d="M18.8843 16.7631
L19.0748 16.6202
" />
</g></g>
<g style="fill:none; 
stroke:#AFAFAF; stroke-width:0.1000; stroke-opacity:1; 
stroke-linecap:round; stroke-linejoin:round;">
<path d="M16.7914 0.8750
L16.7914 1.1750
" />
<path d="M16.7914 1.1750
L18.0414 1.1750
" />
<path d="M16.7914 1.8750
L16.7914 2.1750
" />
<path d="M16.7914 2.1750
L18.0414 2.1750
" />
<path d="M16.7914 2.8750
L16.7914 3.1750
" />
<path d="M16.7914 3.1750
L18.0414 3.1750
" />
<path d="M16.7914 3.8750
L16.7914 4.1750
" />
<path d="M16.7914 4.1750
L18.0414 4.1750
" />
<path d="M16.7914 4.8750
L16.7914 5.1750
" />
<path d="M16.7914 5.1750
L18.0414 5.1750
" />
<path d="M16.7914 5.8750
L16.7914 6.1750
" />
<path d="M16.7914 6.1750
L18.0414 6.1750
" />
<path d="M16.7914 6.8750
L16.7914 7.1750
" />
<path d="M16.7914 7.1750
L18.0414 7.1750
" />
<path d="M16.7914 7.8750
L16.7914 8.1750
" />
<path d="M16.7914 8.1750
L18.0414 8.1750
" />
<path d="M16.7914 8.8750
L16.7914 9.1750
" />
<path d="M16.7914 9.1750
L18.0414 9.1750
" />
<path d="M16.7914 9.8750
L16.7914 10.1750
" />
<path d="M16.7914 10.1750
L18.0414 10.1750
" />
<path d="M16.7914 10.8750
L16.7914 11.1750
" />
<path d="M16.7914 11.1750
L18.0414 11.1750
" />
<path d="M16.7914 11.8750
L16.7914 12.1750
" />
<path d="M16.7914 12.1750
L18.0414 12.1750
" />
<path d="M16.7914 12.8750
L16.7914 13.1750
" />
<path d="M16.7914 13.1750
L18.0414 13.1750
" />
<path d="M16.7914 13.8750
L16.7914 14.1750
" />
<path d="M16.7914 14.1750
L18.0414 14.1750
" />
<path d="M16.7914 14.8750
L16.7914 15.1750
" />
<path d="M16.7914 15.1750
L18.0414 15.1750
" />
<path d="M16.7914 15.8750
L16.7914 16.1750
" />
<path d="M16.7914 16.1750
L18.0414 16.1750
" />
<path d="M16.7914 16.8750
L16.7914 17.1750
" />
<path d="M16.7914 17.1750
L18.0414 17.1750
" />
<path d="M16.7914 17.8750
L16.7914 18.1750
" />
<path d="M16.7914 18.1750
L18.0414 18.1750
" />
<path d="M16.7914 18.8750
L16.7914 19.1750
" />
<path d="M16.7914 19.1750
L18.0414 19.1750
" />
<path d="M16.7914 19.8750
L16.7914 20.1750
" />
<path d="M16.7914 20.1750
L18.0414 20.1750
" />
<path d="M16.7914 20.8750
L16.7914 21.1750
" />
<path d="M16.7914 21.1750
L18.0414 21.1750
" />
<path d="M16.7914 21.8750
L16.7914 22.1750
" />
<path d="M16.7914 22.1750
L18.0414 22.1750
" />
<path d="M16.7914 22.8750
L16.7914 23.1750
" />
<path d="M16.7914 23.1750
L18.0414 23.1750
" />
<path d="M16.7914 23.8750
L16.7914 24.1750
" />
<path d="M16.7914 24.1750
L18.0414 24.1750
" />
<path d="M16.7914 24.8750
L16.7914 25.1750
" />
<path d="M16.7914 25.1750
L18.0414 25.1750
" />
<path d="M16.7914 25.8750
L16.7914 26.1750
" />
<path d="M16.7914 26.1750
L18.0414 26.1750
" />
<path d="M16.7914 26.8750
L16.7914 27.1750
" />
<path d="M16.7914 27.1750
L18.0414 27.1750
" />
<path d="M16.7914 27.8750
L16.7914 28.1750
" />
<path d="M16.7914 28.1750
L18.0414 28.1750
" />
<path d="M16.7914 28.8750
L16.7914 29.1750
" />
<path d="M16.7914 29.1750
L18.0414 29.1750
" />
<path d="M16.7914 29.8750
L16.7914 30.1750
" />
<path d="M16.7914 30.1750
L18.0414 30.1750
" />
<path d="M16.7914 30.8750
L16.7914 31.1750
" />
<path d="M16.7914 31.1750
L18.0414 31.1750
" />
<path d="M16.7914 31.8750
L16.7914 32.1750
" />
<path d="M16.7914 32.1750
L18.0414 32.1750
" />
<path d="M16.7914 32.8750
L16.7914 33.1750
" />
<path d="M16.7914 33.1750
L18.0414 33.1750
" />
<path d="M16.7914 33.8750
L16.7914 34.1750
" />
<path d="M16.7914 34.1750
L18.0414 34.1750
" />
<path d="M16.7914 34.8750
L16.7914 35.1750
" />
<path d="M16.7914 35.1750
L18.0414 35.1750
" />
<path d="M16.7914 35.8750
L16.7914 36.1750
" />
<path d="M16.7914 36.1750
L18.0414 36.1750
" />
<path d="M18.0414 0.8750
L16.7914 0.8750
" />
<path d="M18.0414 0.8750
L18.3914 0.5250
" />
<path d="M18.0414 1.8750
L16.7914 1.8750
" />
<path d="M18.0414 2.8750
L16.7914 2.8750
" />
<path d="M18.0414 3.8750
L16.7914 3.8750
" />
<path d="M18.0414 4.8750
L16.7914 4.8750
" />
<path d="M18.0414 5.8750
L16.7914 5.8750
" />
<path d="M18.0414 6.8750
L16.7914 6.8750
" />
<path d="M18.0414 7.8750
L16.7914 7.8750
" />
<path d="M18.0414 8.8750
L16.7914 8.8750
" />
<path d="M18.0414 9.8750
L16.7914 9.8750
" />
<path d="M18.0414 10.8750
L16.7914 10.8750
" />
<path d="M18.0414 11.8750
L16.7914 11.8750
" />
<path d="M18.0414 12.8750
L16.7914 12.8750
" />
<path d="M18.0414 13.8750
L16.7914 13.8750
" />
<path d="M18.0414 14.8750
L16.7914 14.8750
" />
<path d="M18.0414 15.8750
L16.7914 15.8750
" />
<path d="M18.0414 16.8750
L16.7914 16.8750
" />
<path d="M18.0414 17.8750
L16.7914 17.8750
" />
<path d="M18.0414 18.8750
L16.7914 18.8750
" />
<path d="M18.0414 19.8750
L16.7914 19.8750
" />
<path d="M18.0414 20.8750
L16.7914 20.8750
" />
<path d="M18.0414 21.8750
L16.7914 21.8750
" />
<path d="M18.0414 22.8750
L16.7914 22.8750
" />
<path d="M18.0414 23.8750
L16.7914 23.8750
" />
<path d="M18.0414 24.8750
L16.7914 24.8750
" />
<path d="M18.0414 25.8750
L16.7914 25.8750
" />
<path d="M18.0414 26.8750
L16.7914 26.8750
" />
<path d="M18.0414 27.8750
L16.7914 27.8750
" />
<path d="M18.0414 28.8750
L16.7914 28.8750
" />
<path d="M18.0414 29.8750
L16.7914 29.8750
" />
<path d="M18.0414 30.8750
L16.7914 30.8750
" />
<path d="M18.0414 31.8750
L16.7914 31.8750
" />
<path d="M18.0414 32.8750
L16.7914 32.8750
" />
<path d="M18.0414 33.8750
L16.7914 33.8750
" />
<path d="M18.0414 34.8750
L16.7914 34.8750
" />
<path d="M18.0414 35.8750
L16.7914 35.8750
" />
<path d="M18.0414 36.5250
L18.0414 0.8750
" />
<path d="M18.3914 0.5250
L20.3414 0.5250
" />
<path d="M20.3414 0.5250
L20.3414 36.5250
" />
<path d="M20.3414 0.8750
L21.5914 0.8750
" />
<path d="M20.3414 1.8750
L21.5914 1.8750
" />
<path d="M20.3414 2.8750
L21.5914 2.8750
" />
<path d="M20.3414 3.8750
L21.5914 3.8750
" />
<path d="M20.3414 4.8750
L21.5914 4.8750
" />
<path d="M20.3414 5.8750
L21.5914 5.8750
" />
<path d="M20.3414 6.8750
L21.5914 6.8750
" />
<path d="M20.3414 7.8750
L21.5914 7.8750
" />
<path d="M20.3414 8.8750
L21.5914 8.8750
" />
<path d="M20.3414 9.8750
L21.5914 9.8750
" />
<path d="M20.3414 10.8750
L21.5914 10.8750
" />
<path d="M20.3414 11.8750
L21.5914 11.8750
" />
<path d="M20.3414 12.8750
L21.5914 12.8750
" />
<path d="M20.3414 13.8750
L21.5914 13.8750
" />
<path d="M20.3414 14.8750
L21.5914 14.8750
" />
<path d="M20.3414 15.8750
L21.5914 15.8750
" />
<path d="M20.3414 16.8750
L21.5914 16.8750
" />
<path d="M20.3414 17.8750
L21.5914 17.8750
" />
<path d="M20.3414 18.8750
L21.5914 18.8750
" />
<path d="M20.3414 19.8750
L21.5914 19.8750
" />
<path d="M20.3414 20.8750
L21.5914 20.8750
" />
<path d="M20.3414 21.8750
L21.5914 21.8750
" />
<path d="M20.3414 22.8750
L21.5914 22.8750
" />
<path d="M20.3414 23.8750
L21.5914 23.8750
" />
<path d="M20.3414 24.8750
L21.5914 24.8750
" />
<path d="M20.3414 25.8750
L21.5914 25.8750
" />
<path d="M20.3414 26.8750
L21.5914 26.8750
" />
<path d="M20.3414 27.8750
L21.5914 27.8750
" />
<path d="M20.3414 28.8750
L21.5914 28.8750
" />
<path d="M20.3414 29.8750
L21.5914 29.8750
" />
<path d="M20.3414 30.8750
L21.5914 30.8750
" />
<path d="M20.3414 31.8750
L21.5914 31.8750
" />
<path d="M20.3414 32.8750
L21.5914 32.8750
" />
<path d="M20.3414 33.8750
L21.5914 33.8750
" />
<path d="M20.3414 34.8750
L21.5914 34.8750
" />
<path d="M20.3414 35.8750
L21.5914 35.8750
" />
<path d="M20.3414 36.5250
L18.0414 36.5250
" />
<path d="M21.5914 0.8750
L21.5914 1.1750
" />
<path d="M21.5914 1.1750
L20.3414 1.1750
" />
<path d="M21.5914 1.8750
L21.5914 2.1750
" />
<path d="M21.5914 2.1750
L20.3414 2.1750
" />
<path d="M21.5914 2.8750
L21.5914 3.1750
" />
<path d="M21.5914 3.1750
L20.3414 3.1750
" />
<path d="M21.5914 3.8750
L21.5914 4.1750
" />
<path d="M21.5914 4.1750
L20.3414 4.1750
" />
<path d="M21.5914 4.8750
L21.5914 5.1750
" />
<path d="M21.5914 5.1750
L20.3414 5.1750
" />
<path d="M21.5914 5.8750
L21.5914 6.1750
" />
<path d="M21.5914 6.1750
L20.3414 6.1750
" />
<path d="M21.5914 6.8750
L21.5914 7.1750
" />
<path d="M21.5914 7.1750
L20.3414 7.1750
" />
<path d="M21.5914 7.8750
L21.5914 8.1750
" />
<path d="M21.5914 8.1750
L20.3414 8.1750
" />
<path d="M21.5914 8.8750
L21.5914 9.1750
" />
<path d="M21.5914 9.1750
L20.3414 9.1750
" />
<path d="M21.5914 9.8750
L21.5914 10.1750
" />
<path d="M21.5914 10.1750
L20.3414 10.1750
" />
<path d="M21.5914 10.8750
L21.5914 11.1750
" />
<path d="M21.5914 11.1750
L20.3414 11.1750
" />
<path d="M21.5914 11.8750
L21.5914 12.1750
" />
<path d="M21.5914 12.1750
L20.3414 12.1750
" />
<path d="M21.5914 12.8750
L21.5914 13.1750
" />
<path d="M21.5914 13.1750
L20.3414 13.1750
" />
<path d="M21.5914 13.8750
L21.5914 14.1750
" />
<path d="M21.5914 14.1750
L20.3414 14.1750
" />
<path d="M21.5914 14.8750
L21.5914 15.1750
" />
<path d="M21.5914 15.1750
L20.3414 15.1750
" />
<path d="M21.5914 15.8750
L21.5914 16.1750
" />
<path d="M21.5914 16.1750
L20.3414 16.1750
" />
<path d="M21.5914 16.8750
L21.5914 17.1750
" />
<path d="M21.5914 17.1750
L20.3414 17.1750
" />
<path d="M21.5914 17.8750
L21.5914 18.1750
" />
<path d="M21.5914 18.1750
L20.3414 18.1750
" />
<path d="M21.5914 18.8750
L21.5914 19.1750
" />
<path d="M21.5914 19.1750
L20.3414 19.1750
" />
<path d="M21.5914 19.8750
L21.5914 20.1750
" />
<path d="M21.5914 20.1750
L20.3414 20.1750
" />
<path d="M21.5914 20.8750
L21.5914 21.1750
" />
<path d="M21.5914 21.1750
L20.3414 21.1750
" />
<path d="M21.5914 21.8750
L21.5914 22.1750
" />
<path d="M21.5914 22.1750
L20.3414 22.1750
" />
<path d="M21.5914 22.8750
L21.5914 23.1750
" />
<path d="M21.5914 23.1750
L20.3414 23.1750
" />
<path d="M21.5914 23.8750
L21.5914 24.1750
" />
<path d="M21.5914 24.1750
L20.3414 24.1750
" />
<path d="M21.5914 24.8750
L21.5914 25.1750
" />
<path d="M21.5914 25.1750
L20.3414 25.1750
" />
<path d="M21.5914 25.8750
L21.5914 26.1750
" />
<path d="M21.5914 26.1750
L20.3414 26.1750
" />
<path d="M21.5914 26.8750
L21.5914 27.1750
" />
<path d="M21.5914 27.1750
L20.3414 27.1750
" />
<path d="M21.5914 27.8750
L21.5914 28.1750
" />
<path d="M21.5914 28.1750
L20.3414 28.1750
" />
<path d="M21.5914 28.8750
L21.5914 29.1750
" />
<path d="M21.5914 29.1750
L20.3414 29.1750
" />
<path d="M21.5914 29.8750
L21.5914 30.1750
" />
<path d="M21.5914 30.1750
L20.3414 30.1750
" />
<path d="M21.5914 30.8750
L21.5914 31.1750
" />
<path d="M21.5914 31.1750
L20.3414 31.1750
" />
<path d="M21.5914 31.8750
L21.5914 32.1750
" />
<path d="M21.5914 32.1750
L20.3414 32.1750
" />
<path d="M21.5914 32.8750
L21.5914 33.1750
" />
<path d="M21.5914 33.1750
L20.3414 33.1750
" />
<path d="M21.5914 33.8750
L21.5914 34.1750
" />
<path d="M21.5914 34.1750
L20.3414 34.1750
" />
<path d="M21.5914 34.8750
L21.5914 35.1750
" />
<path d="M21.5914 35.1750
L20.3414 35.1750
" />
<path d="M21.5914 35.8750
L21.5914 36.1750
" />
<path d="M21.5914 36.1750
L20.3414 36.1750
" />
</g> 
</svg>
