<?xml version="1.0" standalone="no"?>
 <!DOCTYPE svg PUBLIC "-//W3C//DTD SVG 1.1//EN" 
 "http://www.w3.org/Graphics/SVG/1.1/DTD/svg11.dtd"> 
<svg
  xmlns:svg="http://www.w3.org/2000/svg"
  xmlns="http://www.w3.org/2000/svg"
  xmlns:xlink="http://www.w3.org/1999/xlink"
  version="1.1"
  width="36.1950mm" height="5.5372mm" viewBox="0.0000 0.0000 36.1950 5.5372">
<title>SVG Image created as working-brd.svg date 2024/04/12 00:59:05 </title>
  <desc>Image generated by PCBNEW </desc>
<g style="fill:#000000; fill-opacity:1.0000;stroke:#000000; stroke-opacity:1.0000;
stroke-linecap:round; stroke-linejoin:round;"
 transform="translate(0 0) scale(1 1)">
</g>
<g style="fill:#FFFFFF; fill-opacity:1.0000; stroke:none;">
<circle cx="18.1028" cy="2.7750" r="0.5000" /> 
</g>
<g style="fill:#FFFFFF; fill-opacity:1.0000; stroke:none;">
<circle cx="28.1028" cy="2.7750" r="0.5000" /> 
</g>
<g style="fill:#02FFEE; fill-opacity:0.4000; stroke:none;">
<circle cx="18.1028" cy="2.7750" r="1.0000" /> 
</g>
<g style="fill:#02FFEE; fill-opacity:0.4000; stroke:none;">
<circle cx="28.1028" cy="2.7750" r="1.0000" /> 
</g>
<g style="fill:#FFFFFF; fill-opacity:1.0000; stroke:none;">
<circle cx="18.1028" cy="2.7750" r="0.5000" /> 
</g>
<g style="fill:#FFFFFF; fill-opacity:1.0000; stroke:none;">
<circle cx="28.1028" cy="2.7750" r="0.5000" /> 
</g>
<g style="fill:#FFFFFF; fill-opacity:1.0000; stroke:none;">
<circle cx="18.1028" cy="2.7750" r="0.5000" /> 
</g>
<g style="fill:#FFFFFF; fill-opacity:1.0000; stroke:none;">
<circle cx="28.1028" cy="2.7750" r="0.5000" /> 
</g>
<g style="fill:#D864FF; fill-opacity:0.4000; stroke:none;">
<circle cx="18.1028" cy="2.7750" r="1.0000" /> 
</g>
<g style="fill:#D864FF; fill-opacity:0.4000; stroke:none;">
<circle cx="28.1028" cy="2.7750" r="1.0000" /> 
</g>
<g style="fill:none; 
stroke:#F2EDA1; stroke-width:0.1588; stroke-opacity:1; 
stroke-linecap:round; stroke-linejoin:round;">
<text x="18.1028" y="3.4100"
textLength="5.6651" font-size="1.6933" lengthAdjust="spacingAndGlyphs"
text-anchor="middle" opacity="0">REF**</text>
<g class="stroked-text"><desc>REF**</desc>
<path d="M16.4095 3.3543
L15.9861 2.7495
" />
<path d="M15.6837 3.3543
L15.6837 2.0843
" />
<path d="M15.6837 2.0843
L16.1676 2.0843
" />
<path d="M16.1676 2.0843
L16.2885 2.1447
" />
<path d="M16.2885 2.1447
L16.3490 2.2052
" />
<path d="M16.3490 2.2052
L16.4095 2.3262
" />
<path d="M16.4095 2.3262
L16.4095 2.5076
" />
<path d="M16.4095 2.5076
L16.3490 2.6286
" />
<path d="M16.3490 2.6286
L16.2885 2.6890
" />
<path d="M16.2885 2.6890
L16.1676 2.7495
" />
<path d="M16.1676 2.7495
L15.6837 2.7495
" />
<path d="M16.9537 2.6890
L17.3771 2.6890
" />
<path d="M17.5585 3.3543
L16.9537 3.3543
" />
<path d="M16.9537 3.3543
L16.9537 2.0843
" />
<path d="M16.9537 2.0843
L17.5585 2.0843
" />
<path d="M18.5261 2.6890
L18.1028 2.6890
" />
<path d="M18.1028 3.3543
L18.1028 2.0843
" />
<path d="M18.1028 2.0843
L18.7076 2.0843
" />
<path d="M19.3728 2.0843
L19.3728 2.3867
" />
<path d="M19.0704 2.2657
L19.3728 2.3867
" />
<path d="M19.3728 2.3867
L19.6752 2.2657
" />
<path d="M19.1914 2.6286
L19.3728 2.3867
" />
<path d="M19.3728 2.3867
L19.5542 2.6286
" />
<path d="M20.3404 2.0843
L20.3404 2.3867
" />
<path d="M20.0380 2.2657
L20.3404 2.3867
" />
<path d="M20.3404 2.3867
L20.6428 2.2657
" />
<path d="M20.1590 2.6286
L20.3404 2.3867
" />
<path d="M20.3404 2.3867
L20.5218 2.6286
" />
</g></g>
<g style="fill:none; 
stroke:#F2EDA1; stroke-width:0.1200; stroke-opacity:1; 
stroke-linecap:round; stroke-linejoin:round;">
<path d="M16.7328 0.1550
L16.7328 5.3950
" />
<path d="M16.7328 0.1550
L29.4728 0.1550
" />
<path d="M16.7328 5.3950
L29.4728 5.3950
" />
<path d="M29.4728 0.1550
L29.4728 5.3950
" />
</g>
<g style="fill:#FFFFFF; fill-opacity:1.0000; stroke:none;">
<circle cx="18.1028" cy="2.7750" r="0.5000" /> 
</g>
<g style="fill:#FFFFFF; fill-opacity:1.0000; stroke:none;">
<circle cx="28.1028" cy="2.7750" r="0.5000" /> 
</g>
<g style="fill:none; 
stroke:#FF26E2; stroke-width:0.0500; stroke-opacity:1; 
stroke-linecap:round; stroke-linejoin:round;">
<path d="M16.6028 0.0250
L16.6028 5.5250
" />
<path d="M16.6028 5.5250
L29.6028 5.5250
" />
<path d="M29.6028 0.0250
L16.6028 0.0250
" />
<path d="M29.6028 5.5250
L29.6028 0.0250
" />
</g>
<g style="fill:none; 
stroke:#AFAFAF; stroke-width:0.1588; stroke-opacity:1; 
stroke-linecap:round; stroke-linejoin:round;">
<text x="18.1028" y="3.4100"
textLength="36.2056" font-size="1.6933" lengthAdjust="spacingAndGlyphs"
text-anchor="middle" opacity="0">C_Disc_D12.5mm_W5.0mm_P10.00mm</text>
<g class="stroked-text"><desc>C_Disc_D12.5mm_W5.0mm_P10.00mm</desc>
<path d="M1.1392 3.2333
L1.0787 3.2938
" />
<path d="M1.0787 3.2938
L0.8973 3.3543
" />
<path d="M0.8973 3.3543
L0.7764 3.3543
" />
<path d="M0.7764 3.3543
L0.5949 3.2938
" />
<path d="M0.5949 3.2938
L0.4740 3.1728
" />
<path d="M0.4740 3.1728
L0.4135 3.0519
" />
<path d="M0.4135 3.0519
L0.3530 2.8100
" />
<path d="M0.3530 2.8100
L0.3530 2.6286
" />
<path d="M0.3530 2.6286
L0.4135 2.3867
" />
<path d="M0.4135 2.3867
L0.4740 2.2657
" />
<path d="M0.4740 2.2657
L0.5949 2.1447
" />
<path d="M0.5949 2.1447
L0.7764 2.0843
" />
<path d="M0.7764 2.0843
L0.8973 2.0843
" />
<path d="M0.8973 2.0843
L1.0787 2.1447
" />
<path d="M1.0787 2.1447
L1.1392 2.2052
" />
<path d="M1.3811 3.4752
L2.3487 3.4752
" />
<path d="M2.6511 3.3543
L2.6511 2.0843
" />
<path d="M2.6511 2.0843
L2.9535 2.0843
" />
<path d="M2.9535 2.0843
L3.1349 2.1447
" />
<path d="M3.1349 2.1447
L3.2559 2.2657
" />
<path d="M3.2559 2.2657
L3.3164 2.3867
" />
<path d="M3.3164 2.3867
L3.3768 2.6286
" />
<path d="M3.3768 2.6286
L3.3768 2.8100
" />
<path d="M3.3768 2.8100
L3.3164 3.0519
" />
<path d="M3.3164 3.0519
L3.2559 3.1728
" />
<path d="M3.2559 3.1728
L3.1349 3.2938
" />
<path d="M3.1349 3.2938
L2.9535 3.3543
" />
<path d="M2.9535 3.3543
L2.6511 3.3543
" />
<path d="M3.9211 3.3543
L3.9211 2.5076
" />
<path d="M3.9211 2.0843
L3.8606 2.1447
" />
<path d="M3.8606 2.1447
L3.9211 2.2052
" />
<path d="M3.9211 2.2052
L3.9816 2.1447
" />
<path d="M3.9816 2.1447
L3.9211 2.0843
" />
<path d="M3.9211 2.0843
L3.9211 2.2052
" />
<path d="M4.4654 3.2938
L4.5864 3.3543
" />
<path d="M4.5864 3.3543
L4.8283 3.3543
" />
<path d="M4.8283 3.3543
L4.9492 3.2938
" />
<path d="M4.9492 3.2938
L5.0097 3.1728
" />
<path d="M5.0097 3.1728
L5.0097 3.1124
" />
<path d="M5.0097 3.1124
L4.9492 2.9914
" />
<path d="M4.9492 2.9914
L4.8283 2.9309
" />
<path d="M4.8283 2.9309
L4.6468 2.9309
" />
<path d="M4.6468 2.9309
L4.5259 2.8705
" />
<path d="M4.5259 2.8705
L4.4654 2.7495
" />
<path d="M4.4654 2.7495
L4.4654 2.6890
" />
<path d="M4.4654 2.6890
L4.5259 2.5681
" />
<path d="M4.5259 2.5681
L4.6468 2.5076
" />
<path d="M4.6468 2.5076
L4.8283 2.5076
" />
<path d="M4.8283 2.5076
L4.9492 2.5681
" />
<path d="M6.0983 3.2938
L5.9773 3.3543
" />
<path d="M5.9773 3.3543
L5.7354 3.3543
" />
<path d="M5.7354 3.3543
L5.6145 3.2938
" />
<path d="M5.6145 3.2938
L5.5540 3.2333
" />
<path d="M5.5540 3.2333
L5.4935 3.1124
" />
<path d="M5.4935 3.1124
L5.4935 2.7495
" />
<path d="M5.4935 2.7495
L5.5540 2.6286
" />
<path d="M5.5540 2.6286
L5.6145 2.5681
" />
<path d="M5.6145 2.5681
L5.7354 2.5076
" />
<path d="M5.7354 2.5076
L5.9773 2.5076
" />
<path d="M5.9773 2.5076
L6.0983 2.5681
" />
<path d="M6.3402 3.4752
L7.3078 3.4752
" />
<path d="M7.6102 3.3543
L7.6102 2.0843
" />
<path d="M7.6102 2.0843
L7.9126 2.0843
" />
<path d="M7.9126 2.0843
L8.0940 2.1447
" />
<path d="M8.0940 2.1447
L8.2149 2.2657
" />
<path d="M8.2149 2.2657
L8.2754 2.3867
" />
<path d="M8.2754 2.3867
L8.3359 2.6286
" />
<path d="M8.3359 2.6286
L8.3359 2.8100
" />
<path d="M8.3359 2.8100
L8.2754 3.0519
" />
<path d="M8.2754 3.0519
L8.2149 3.1728
" />
<path d="M8.2149 3.1728
L8.0940 3.2938
" />
<path d="M8.0940 3.2938
L7.9126 3.3543
" />
<path d="M7.9126 3.3543
L7.6102 3.3543
" />
<path d="M9.5454 3.3543
L8.8197 3.3543
" />
<path d="M9.1826 3.3543
L9.1826 2.0843
" />
<path d="M9.1826 2.0843
L9.0616 2.2657
" />
<path d="M9.0616 2.2657
L8.9406 2.3867
" />
<path d="M8.9406 2.3867
L8.8197 2.4471
" />
<path d="M10.0292 2.2052
L10.0897 2.1447
" />
<path d="M10.0897 2.1447
L10.2106 2.0843
" />
<path d="M10.2106 2.0843
L10.5130 2.0843
" />
<path d="M10.5130 2.0843
L10.6340 2.1447
" />
<path d="M10.6340 2.1447
L10.6945 2.2052
" />
<path d="M10.6945 2.2052
L10.7549 2.3262
" />
<path d="M10.7549 2.3262
L10.7549 2.4471
" />
<path d="M10.7549 2.4471
L10.6945 2.6286
" />
<path d="M10.6945 2.6286
L9.9687 3.3543
" />
<path d="M9.9687 3.3543
L10.7549 3.3543
" />
<path d="M11.2992 3.2333
L11.3597 3.2938
" />
<path d="M11.3597 3.2938
L11.2992 3.3543
" />
<path d="M11.2992 3.3543
L11.2387 3.2938
" />
<path d="M11.2387 3.2938
L11.2992 3.2333
" />
<path d="M11.2992 3.2333
L11.2992 3.3543
" />
<path d="M12.5087 2.0843
L11.9040 2.0843
" />
<path d="M11.9040 2.0843
L11.8435 2.6890
" />
<path d="M11.8435 2.6890
L11.9040 2.6286
" />
<path d="M11.9040 2.6286
L12.0249 2.5681
" />
<path d="M12.0249 2.5681
L12.3273 2.5681
" />
<path d="M12.3273 2.5681
L12.4483 2.6286
" />
<path d="M12.4483 2.6286
L12.5087 2.6890
" />
<path d="M12.5087 2.6890
L12.5692 2.8100
" />
<path d="M12.5692 2.8100
L12.5692 3.1124
" />
<path d="M12.5692 3.1124
L12.5087 3.2333
" />
<path d="M12.5087 3.2333
L12.4483 3.2938
" />
<path d="M12.4483 3.2938
L12.3273 3.3543
" />
<path d="M12.3273 3.3543
L12.0249 3.3543
" />
<path d="M12.0249 3.3543
L11.9040 3.2938
" />
<path d="M11.9040 3.2938
L11.8435 3.2333
" />
<path d="M13.1135 3.3543
L13.1135 2.5076
" />
<path d="M13.1135 2.6286
L13.1740 2.5681
" />
<path d="M13.1740 2.5681
L13.2949 2.5076
" />
<path d="M13.2949 2.5076
L13.4764 2.5076
" />
<path d="M13.4764 2.5076
L13.5973 2.5681
" />
<path d="M13.5973 2.5681
L13.6578 2.6890
" />
<path d="M13.6578 2.6890
L13.6578 3.3543
" />
<path d="M13.6578 2.6890
L13.7183 2.5681
" />
<path d="M13.7183 2.5681
L13.8392 2.5076
" />
<path d="M13.8392 2.5076
L14.0206 2.5076
" />
<path d="M14.0206 2.5076
L14.1416 2.5681
" />
<path d="M14.1416 2.5681
L14.2021 2.6890
" />
<path d="M14.2021 2.6890
L14.2021 3.3543
" />
<path d="M14.8068 3.3543
L14.8068 2.5076
" />
<path d="M14.8068 2.6286
L14.8673 2.5681
" />
<path d="M14.8673 2.5681
L14.9883 2.5076
" />
<path d="M14.9883 2.5076
L15.1697 2.5076
" />
<path d="M15.1697 2.5076
L15.2906 2.5681
" />
<path d="M15.2906 2.5681
L15.3511 2.6890
" />
<path d="M15.3511 2.6890
L15.3511 3.3543
" />
<path d="M15.3511 2.6890
L15.4116 2.5681
" />
<path d="M15.4116 2.5681
L15.5326 2.5076
" />
<path d="M15.5326 2.5076
L15.7140 2.5076
" />
<path d="M15.7140 2.5076
L15.8349 2.5681
" />
<path d="M15.8349 2.5681
L15.8954 2.6890
" />
<path d="M15.8954 2.6890
L15.8954 3.3543
" />
<path d="M16.1978 3.4752
L17.1654 3.4752
" />
<path d="M17.3468 2.0843
L17.6492 3.3543
" />
<path d="M17.6492 3.3543
L17.8911 2.4471
" />
<path d="M17.8911 2.4471
L18.1330 3.3543
" />
<path d="M18.1330 3.3543
L18.4354 2.0843
" />
<path d="M19.5240 2.0843
L18.9192 2.0843
" />
<path d="M18.9192 2.0843
L18.8587 2.6890
" />
<path d="M18.8587 2.6890
L18.9192 2.6286
" />
<path d="M18.9192 2.6286
L19.0402 2.5681
" />
<path d="M19.0402 2.5681
L19.3426 2.5681
" />
<path d="M19.3426 2.5681
L19.4635 2.6286
" />
<path d="M19.4635 2.6286
L19.5240 2.6890
" />
<path d="M19.5240 2.6890
L19.5845 2.8100
" />
<path d="M19.5845 2.8100
L19.5845 3.1124
" />
<path d="M19.5845 3.1124
L19.5240 3.2333
" />
<path d="M19.5240 3.2333
L19.4635 3.2938
" />
<path d="M19.4635 3.2938
L19.3426 3.3543
" />
<path d="M19.3426 3.3543
L19.0402 3.3543
" />
<path d="M19.0402 3.3543
L18.9192 3.2938
" />
<path d="M18.9192 3.2938
L18.8587 3.2333
" />
<path d="M20.1287 3.2333
L20.1892 3.2938
" />
<path d="M20.1892 3.2938
L20.1287 3.3543
" />
<path d="M20.1287 3.3543
L20.0683 3.2938
" />
<path d="M20.0683 3.2938
L20.1287 3.2333
" />
<path d="M20.1287 3.2333
L20.1287 3.3543
" />
<path d="M20.9754 2.0843
L21.0964 2.0843
" />
<path d="M21.0964 2.0843
L21.2173 2.1447
" />
<path d="M21.2173 2.1447
L21.2778 2.2052
" />
<path d="M21.2778 2.2052
L21.3383 2.3262
" />
<path d="M21.3383 2.3262
L21.3987 2.5681
" />
<path d="M21.3987 2.5681
L21.3987 2.8705
" />
<path d="M21.3987 2.8705
L21.3383 3.1124
" />
<path d="M21.3383 3.1124
L21.2778 3.2333
" />
<path d="M21.2778 3.2333
L21.2173 3.2938
" />
<path d="M21.2173 3.2938
L21.0964 3.3543
" />
<path d="M21.0964 3.3543
L20.9754 3.3543
" />
<path d="M20.9754 3.3543
L20.8545 3.2938
" />
<path d="M20.8545 3.2938
L20.7940 3.2333
" />
<path d="M20.7940 3.2333
L20.7335 3.1124
" />
<path d="M20.7335 3.1124
L20.6730 2.8705
" />
<path d="M20.6730 2.8705
L20.6730 2.5681
" />
<path d="M20.6730 2.5681
L20.7335 2.3262
" />
<path d="M20.7335 2.3262
L20.7940 2.2052
" />
<path d="M20.7940 2.2052
L20.8545 2.1447
" />
<path d="M20.8545 2.1447
L20.9754 2.0843
" />
<path d="M21.9430 3.3543
L21.9430 2.5076
" />
<path d="M21.9430 2.6286
L22.0035 2.5681
" />
<path d="M22.0035 2.5681
L22.1245 2.5076
" />
<path d="M22.1245 2.5076
L22.3059 2.5076
" />
<path d="M22.3059 2.5076
L22.4268 2.5681
" />
<path d="M22.4268 2.5681
L22.4873 2.6890
" />
<path d="M22.4873 2.6890
L22.4873 3.3543
" />
<path d="M22.4873 2.6890
L22.5478 2.5681
" />
<path d="M22.5478 2.5681
L22.6687 2.5076
" />
<path d="M22.6687 2.5076
L22.8502 2.5076
" />
<path d="M22.8502 2.5076
L22.9711 2.5681
" />
<path d="M22.9711 2.5681
L23.0316 2.6890
" />
<path d="M23.0316 2.6890
L23.0316 3.3543
" />
<path d="M23.6364 3.3543
L23.6364 2.5076
" />
<path d="M23.6364 2.6286
L23.6968 2.5681
" />
<path d="M23.6968 2.5681
L23.8178 2.5076
" />
<path d="M23.8178 2.5076
L23.9992 2.5076
" />
<path d="M23.9992 2.5076
L24.1202 2.5681
" />
<path d="M24.1202 2.5681
L24.1806 2.6890
" />
<path d="M24.1806 2.6890
L24.1806 3.3543
" />
<path d="M24.1806 2.6890
L24.2411 2.5681
" />
<path d="M24.2411 2.5681
L24.3621 2.5076
" />
<path d="M24.3621 2.5076
L24.5435 2.5076
" />
<path d="M24.5435 2.5076
L24.6645 2.5681
" />
<path d="M24.6645 2.5681
L24.7249 2.6890
" />
<path d="M24.7249 2.6890
L24.7249 3.3543
" />
<path d="M25.0273 3.4752
L25.9949 3.4752
" />
<path d="M26.2973 3.3543
L26.2973 2.0843
" />
<path d="M26.2973 2.0843
L26.7811 2.0843
" />
<path d="M26.7811 2.0843
L26.9021 2.1447
" />
<path d="M26.9021 2.1447
L26.9626 2.2052
" />
<path d="M26.9626 2.2052
L27.0230 2.3262
" />
<path d="M27.0230 2.3262
L27.0230 2.5076
" />
<path d="M27.0230 2.5076
L26.9626 2.6286
" />
<path d="M26.9626 2.6286
L26.9021 2.6890
" />
<path d="M26.9021 2.6890
L26.7811 2.7495
" />
<path d="M26.7811 2.7495
L26.2973 2.7495
" />
<path d="M28.2326 3.3543
L27.5068 3.3543
" />
<path d="M27.8697 3.3543
L27.8697 2.0843
" />
<path d="M27.8697 2.0843
L27.7487 2.2657
" />
<path d="M27.7487 2.2657
L27.6278 2.3867
" />
<path d="M27.6278 2.3867
L27.5068 2.4471
" />
<path d="M29.0187 2.0843
L29.1397 2.0843
" />
<path d="M29.1397 2.0843
L29.2606 2.1447
" />
<path d="M29.2606 2.1447
L29.3211 2.2052
" />
<path d="M29.3211 2.2052
L29.3816 2.3262
" />
<path d="M29.3816 2.3262
L29.4421 2.5681
" />
<path d="M29.4421 2.5681
L29.4421 2.8705
" />
<path d="M29.4421 2.8705
L29.3816 3.1124
" />
<path d="M29.3816 3.1124
L29.3211 3.2333
" />
<path d="M29.3211 3.2333
L29.2606 3.2938
" />
<path d="M29.2606 3.2938
L29.1397 3.3543
" />
<path d="M29.1397 3.3543
L29.0187 3.3543
" />
<path d="M29.0187 3.3543
L28.8978 3.2938
" />
<path d="M28.8978 3.2938
L28.8373 3.2333
" />
<path d="M28.8373 3.2333
L28.7768 3.1124
" />
<path d="M28.7768 3.1124
L28.7164 2.8705
" />
<path d="M28.7164 2.8705
L28.7164 2.5681
" />
<path d="M28.7164 2.5681
L28.7768 2.3262
" />
<path d="M28.7768 2.3262
L28.8373 2.2052
" />
<path d="M28.8373 2.2052
L28.8978 2.1447
" />
<path d="M28.8978 2.1447
L29.0187 2.0843
" />
<path d="M29.9864 3.2333
L30.0468 3.2938
" />
<path d="M30.0468 3.2938
L29.9864 3.3543
" />
<path d="M29.9864 3.3543
L29.9259 3.2938
" />
<path d="M29.9259 3.2938
L29.9864 3.2333
" />
<path d="M29.9864 3.2333
L29.9864 3.3543
" />
<path d="M30.8330 2.0843
L30.9540 2.0843
" />
<path d="M30.9540 2.0843
L31.0749 2.1447
" />
<path d="M31.0749 2.1447
L31.1354 2.2052
" />
<path d="M31.1354 2.2052
L31.1959 2.3262
" />
<path d="M31.1959 2.3262
L31.2564 2.5681
" />
<path d="M31.2564 2.5681
L31.2564 2.8705
" />
<path d="M31.2564 2.8705
L31.1959 3.1124
" />
<path d="M31.1959 3.1124
L31.1354 3.2333
" />
<path d="M31.1354 3.2333
L31.0749 3.2938
" />
<path d="M31.0749 3.2938
L30.9540 3.3543
" />
<path d="M30.9540 3.3543
L30.8330 3.3543
" />
<path d="M30.8330 3.3543
L30.7121 3.2938
" />
<path d="M30.7121 3.2938
L30.6516 3.2333
" />
<path d="M30.6516 3.2333
L30.5911 3.1124
" />
<path d="M30.5911 3.1124
L30.5306 2.8705
" />
<path d="M30.5306 2.8705
L30.5306 2.5681
" />
<path d="M30.5306 2.5681
L30.5911 2.3262
" />
<path d="M30.5911 2.3262
L30.6516 2.2052
" />
<path d="M30.6516 2.2052
L30.7121 2.1447
" />
<path d="M30.7121 2.1447
L30.8330 2.0843
" />
<path d="M32.0426 2.0843
L32.1635 2.0843
" />
<path d="M32.1635 2.0843
L32.2845 2.1447
" />
<path d="M32.2845 2.1447
L32.3449 2.2052
" />
<path d="M32.3449 2.2052
L32.4054 2.3262
" />
<path d="M32.4054 2.3262
L32.4659 2.5681
" />
<path d="M32.4659 2.5681
L32.4659 2.8705
" />
<path d="M32.4659 2.8705
L32.4054 3.1124
" />
<path d="M32.4054 3.1124
L32.3449 3.2333
" />
<path d="M32.3449 3.2333
L32.2845 3.2938
" />
<path d="M32.2845 3.2938
L32.1635 3.3543
" />
<path d="M32.1635 3.3543
L32.0426 3.3543
" />
<path d="M32.0426 3.3543
L31.9216 3.2938
" />
<path d="M31.9216 3.2938
L31.8611 3.2333
" />
<path d="M31.8611 3.2333
L31.8006 3.1124
" />
<path d="M31.8006 3.1124
L31.7402 2.8705
" />
<path d="M31.7402 2.8705
L31.7402 2.5681
" />
<path d="M31.7402 2.5681
L31.8006 2.3262
" />
<path d="M31.8006 2.3262
L31.8611 2.2052
" />
<path d="M31.8611 2.2052
L31.9216 2.1447
" />
<path d="M31.9216 2.1447
L32.0426 2.0843
" />
<path d="M33.0102 3.3543
L33.0102 2.5076
" />
<path d="M33.0102 2.6286
L33.0706 2.5681
" />
<path d="M33.0706 2.5681
L33.1916 2.5076
" />
<path d="M33.1916 2.5076
L33.3730 2.5076
" />
<path d="M33.3730 2.5076
L33.4940 2.5681
" />
<path d="M33.4940 2.5681
L33.5545 2.6890
" />
<path d="M33.5545 2.6890
L33.5545 3.3543
" />
<path d="M33.5545 2.6890
L33.6149 2.5681
" />
<path d="M33.6149 2.5681
L33.7359 2.5076
" />
<path d="M33.7359 2.5076
L33.9173 2.5076
" />
<path d="M33.9173 2.5076
L34.0383 2.5681
" />
<path d="M34.0383 2.5681
L34.0987 2.6890
" />
<path d="M34.0987 2.6890
L34.0987 3.3543
" />
<path d="M34.7035 3.3543
L34.7035 2.5076
" />
<path d="M34.7035 2.6286
L34.7640 2.5681
" />
<path d="M34.7640 2.5681
L34.8849 2.5076
" />
<path d="M34.8849 2.5076
L35.0664 2.5076
" />
<path d="M35.0664 2.5076
L35.1873 2.5681
" />
<path d="M35.1873 2.5681
L35.2478 2.6890
" />
<path d="M35.2478 2.6890
L35.2478 3.3543
" />
<path d="M35.2478 2.6890
L35.3083 2.5681
" />
<path d="M35.3083 2.5681
L35.4292 2.5076
" />
<path d="M35.4292 2.5076
L35.6106 2.5076
" />
<path d="M35.6106 2.5076
L35.7316 2.5681
" />
<path d="M35.7316 2.5681
L35.7921 2.6890
" />
<path d="M35.7921 2.6890
L35.7921 3.3543
" />
</g></g>
<g style="fill:none; 
stroke:#AFAFAF; stroke-width:0.1500; stroke-opacity:1; 
stroke-linecap:round; stroke-linejoin:round;">
<text x="23.1028" y="3.2750"
textLength="4.5357" font-size="1.3333" lengthAdjust="spacingAndGlyphs"
text-anchor="middle" opacity="0">REF**</text>
<g class="stroked-text"><desc>REF**</desc>
<path d="M21.7695 3.2298
L21.4361 2.7536
" />
<path d="M21.1980 3.2298
L21.1980 2.2298
" />
<path d="M21.1980 2.2298
L21.5790 2.2298
" />
<path d="M21.5790 2.2298
L21.6742 2.2774
" />
<path d="M21.6742 2.2774
L21.7218 2.3251
" />
<path d="M21.7218 2.3251
L21.7695 2.4203
" />
<path d="M21.7695 2.4203
L21.7695 2.5632
" />
<path d="M21.7695 2.5632
L21.7218 2.6584
" />
<path d="M21.7218 2.6584
L21.6742 2.7060
" />
<path d="M21.6742 2.7060
L21.5790 2.7536
" />
<path d="M21.5790 2.7536
L21.1980 2.7536
" />
<path d="M22.1980 2.7060
L22.5314 2.7060
" />
<path d="M22.6742 3.2298
L22.1980 3.2298
" />
<path d="M22.1980 3.2298
L22.1980 2.2298
" />
<path d="M22.1980 2.2298
L22.6742 2.2298
" />
<path d="M23.4361 2.7060
L23.1028 2.7060
" />
<path d="M23.1028 3.2298
L23.1028 2.2298
" />
<path d="M23.1028 2.2298
L23.5790 2.2298
" />
<path d="M24.1028 2.2298
L24.1028 2.4679
" />
<path d="M23.8647 2.3727
L24.1028 2.4679
" />
<path d="M24.1028 2.4679
L24.3409 2.3727
" />
<path d="M23.9599 2.6584
L24.1028 2.4679
" />
<path d="M24.1028 2.4679
L24.2456 2.6584
" />
<path d="M24.8647 2.2298
L24.8647 2.4679
" />
<path d="M24.6266 2.3727
L24.8647 2.4679
" />
<path d="M24.8647 2.4679
L25.1028 2.3727
" />
<path d="M24.7218 2.6584
L24.8647 2.4679
" />
<path d="M24.8647 2.4679
L25.0076 2.6584
" />
</g></g>
<g style="fill:none; 
stroke:#AFAFAF; stroke-width:0.1000; stroke-opacity:1; 
stroke-linecap:round; stroke-linejoin:round;">
<path d="M16.8528 0.2750
L16.8528 5.2750
" />
<path d="M16.8528 5.2750
L29.3528 5.2750
" />
<path d="M29.3528 0.2750
L16.8528 0.2750
" />
<path d="M29.3528 5.2750
L29.3528 0.2750
" />
</g> 
</svg>
