<?xml version="1.0" standalone="no"?>
 <!DOCTYPE svg PUBLIC "-//W3C//DTD SVG 1.1//EN" 
 "http://www.w3.org/Graphics/SVG/1.1/DTD/svg11.dtd"> 
<svg
  xmlns:svg="http://www.w3.org/2000/svg"
  xmlns="http://www.w3.org/2000/svg"
  xmlns:xlink="http://www.w3.org/1999/xlink"
  version="1.1"
  width="40.1320mm" height="8.0010mm" viewBox="0.0000 0.0000 40.1320 8.0010">
<title>SVG Image created as working-brd.svg date 2024/04/23 07:44:06 </title>
  <desc>Image generated by PCBNEW </desc>
<g style="fill:#000000; fill-opacity:1.0000;stroke:#000000; stroke-opacity:1.0000;
stroke-linecap:round; stroke-linejoin:round;"
 transform="translate(0 0) scale(1 1)">
</g>
<g style="fill:none; 
stroke:#F2EDA1; stroke-width:0.1588; stroke-opacity:1; 
stroke-linecap:round; stroke-linejoin:round;">
<text x="20.0683" y="4.6473"
textLength="5.6651" font-size="1.6933" lengthAdjust="spacingAndGlyphs"
text-anchor="middle" opacity="0">REF**</text>
<g class="stroked-text"><desc>REF**</desc>
<path d="M18.3749 4.5916
L17.9516 3.9868
" />
<path d="M17.6492 4.5916
L17.6492 3.3216
" />
<path d="M17.6492 3.3216
L18.1330 3.3216
" />
<path d="M18.1330 3.3216
L18.2540 3.3820
" />
<path d="M18.2540 3.3820
L18.3145 3.4425
" />
<path d="M18.3145 3.4425
L18.3749 3.5635
" />
<path d="M18.3749 3.5635
L18.3749 3.7449
" />
<path d="M18.3749 3.7449
L18.3145 3.8658
" />
<path d="M18.3145 3.8658
L18.2540 3.9263
" />
<path d="M18.2540 3.9263
L18.1330 3.9868
" />
<path d="M18.1330 3.9868
L17.6492 3.9868
" />
<path d="M18.9192 3.9263
L19.3426 3.9263
" />
<path d="M19.5240 4.5916
L18.9192 4.5916
" />
<path d="M18.9192 4.5916
L18.9192 3.3216
" />
<path d="M18.9192 3.3216
L19.5240 3.3216
" />
<path d="M20.4916 3.9263
L20.0683 3.9263
" />
<path d="M20.0683 4.5916
L20.0683 3.3216
" />
<path d="M20.0683 3.3216
L20.6730 3.3216
" />
<path d="M21.3383 3.3216
L21.3383 3.6239
" />
<path d="M21.0359 3.5030
L21.3383 3.6239
" />
<path d="M21.3383 3.6239
L21.6406 3.5030
" />
<path d="M21.1568 3.8658
L21.3383 3.6239
" />
<path d="M21.3383 3.6239
L21.5197 3.8658
" />
<path d="M22.3059 3.3216
L22.3059 3.6239
" />
<path d="M22.0035 3.5030
L22.3059 3.6239
" />
<path d="M22.3059 3.6239
L22.6083 3.5030
" />
<path d="M22.1245 3.8658
L22.3059 3.6239
" />
<path d="M22.3059 3.6239
L22.4873 3.8658
" />
</g><path style="fill:#F2EDA1; fill-opacity:1.0000; 
stroke:#F2EDA1; stroke-width:0.0100; stroke-opacity:1; 
stroke-linecap:round; stroke-linejoin:round;fill-rule:evenodd;"
d="M 34.1051,4.4133
30.0946,4.4133
30.0946,3.6112
34.1051,3.6112
Z" /> 
<path style="fill:#F2EDA1; fill-opacity:1.0000; 
stroke:#F2EDA1; stroke-width:0.0100; stroke-opacity:1; 
stroke-linecap:round; stroke-linejoin:round;fill-rule:evenodd;"
d="M 8.4544,3.6112
10.0587,3.6112
10.0587,4.4133
8.4544,4.4133
8.4544,6.0175
7.6523,6.0175
7.6523,4.4133
6.0481,4.4133
6.0481,3.6112
7.6523,3.6112
7.6523,2.0070
8.4544,2.0070
Z" /> 
<path style="fill:#F2EDA1; fill-opacity:1.0000; 
stroke:#F2EDA1; stroke-width:0.0100; stroke-opacity:1; 
stroke-linecap:round; stroke-linejoin:round;fill-rule:evenodd;"
d="M 32.2612,0.0060
32.4062,0.0116
32.4770,0.0169
32.8334,0.0654
33.1832,0.1442
33.5234,0.2521
33.8509,0.3878
34.1629,0.5501
34.4563,0.7378
34.6900,0.9173
34.9546,1.1599
35.1944,1.4243
35.4083,1.7089
35.5954,2.0120
35.7545,2.3320
35.8846,2.6672
35.9686,2.9512
36.0401,3.2897
36.0842,3.6377
36.1009,3.9891
36.0900,4.3379
36.0514,4.6784
36.0088,4.9044
35.9134,5.2616
35.7893,5.6033
35.6372,5.9282
35.4581,6.2353
35.2528,6.5231
35.0221,6.7904
34.7669,7.0361
34.4879,7.2589
34.3702,7.3410
34.0622,7.5282
33.7406,7.6852
33.4047,7.8122
33.0540,7.9095
32.7133,7.9737
32.6277,7.9842
32.5219,7.9938
32.4031,8.0023
32.2784,8.0092
32.1548,8.0144
32.0394,8.0174
31.9394,8.0179
31.8619,8.0157
31.8325,8.0133
31.7910,8.0087
31.7265,8.0018
31.6493,7.9936
31.5985,7.9883
31.2683,7.9377
30.9377,7.8561
30.6113,7.7455
30.2940,7.6078
29.9906,7.4451
29.7058,7.2593
29.5348,7.1286
29.4257,7.0348
29.3063,6.9235
29.1855,6.8036
29.0724,6.6843
28.9760,6.5744
28.9647,6.5606
28.7696,6.2970
28.5956,6.0100
28.4444,5.7037
28.3177,5.3818
28.2171,5.0484
28.1443,4.7072
28.1302,4.6180
28.1001,4.4133
25.0028,4.4133
24.6113,4.4134
24.2522,4.4135
23.9240,4.4137
23.6256,4.4140
23.3558,4.4145
23.1133,4.4150
22.8971,4.4157
22.7058,4.4165
22.5382,4.4175
22.3932,4.4186
22.2695,4.4199
22.1660,4.4213
22.0813,4.4229
22.0144,4.4247
21.9640,4.4267
21.9288,4.4289
21.9078,4.4313
21.8996,4.4339
21.8994,4.4342
21.8320,4.6454
21.7575,4.8294
21.6726,4.9922
21.5739,5.1399
21.4582,5.2783
21.4059,5.3330
21.2261,5.4918
21.0302,5.6232
20.8212,5.7275
20.6020,5.8045
20.3759,5.8543
20.1458,5.8767
19.9148,5.8720
19.6860,5.8399
19.4623,5.7806
19.2469,5.6941
19.0427,5.5802
18.8529,5.4391
18.7427,5.3368
18.5806,5.1529
18.4492,4.9589
18.3469,4.7520
18.3053,4.6404
18.2407,4.3991
18.2072,4.1560
18.2053,4.0181
28.9750,4.0181
28.9892,4.3413
29.0323,4.6500
29.1051,4.9478
29.2084,5.2380
29.2842,5.4076
29.4348,5.6835
29.6111,5.9390
29.8111,6.1729
30.0332,6.3842
30.2756,6.5716
30.5365,6.7340
30.8141,6.8702
31.1066,6.9792
31.4124,7.0597
31.7296,7.1106
31.9160,7.1260
31.9763,7.1294
32.0289,7.1325
32.0497,7.1339
32.0815,7.1338
32.1390,7.1315
32.2146,7.1274
32.3008,7.1217
32.3199,7.1204
32.6480,7.0809
32.9628,7.0116
33.2630,6.9136
33.5471,6.7881
33.8139,6.6363
34.0620,6.4594
34.2900,6.2584
34.4966,6.0347
34.6804,5.7894
34.8400,5.5237
34.9740,5.2388
35.0812,4.9359
35.1503,4.6640
35.1715,4.5386
35.1881,4.3893
35.2000,4.2255
35.2066,4.0564
35.2077,3.8914
35.2028,3.7397
35.1921,3.6157
35.1361,3.2886
35.0506,2.9766
34.9362,2.6806
34.7934,2.4014
34.6226,2.1400
34.4246,1.8971
34.1997,1.6737
33.9485,1.4706
33.8377,1.3933
33.5822,1.2419
33.3087,1.1167
33.0209,1.0182
32.7222,0.9467
32.4160,0.9027
32.1058,0.8867
31.7951,0.8989
31.4872,0.9400
31.1857,1.0102
31.0638,1.0478
30.7669,1.1635
30.4880,1.3065
30.2284,1.4753
29.9895,1.6683
29.7723,1.8840
29.5782,2.1208
29.4085,2.3771
29.2644,2.6514
29.1471,2.9421
29.0580,3.2477
28.9983,3.5665
28.9925,3.6108
28.9862,3.6795
28.9809,3.7712
28.9771,3.8755
28.9751,3.9821
28.9750,4.0181
18.2053,4.0181
18.2039,3.9140
18.2299,3.6760
18.2846,3.4448
18.3669,3.2233
18.4761,3.0144
18.6113,2.8210
18.7718,2.6459
18.9203,2.5190
19.1211,2.3864
19.3363,2.2821
19.5624,2.2064
19.7963,2.1592
20.0344,2.1406
20.2734,2.1508
20.5100,2.1898
20.7407,2.2577
20.9622,2.3546
21.1461,2.4633
21.2013,2.5043
21.2696,2.5606
21.3407,2.6236
21.3841,2.6644
21.5286,2.8207
21.6501,2.9883
21.7514,3.1722
21.8354,3.3776
21.8999,3.5903
21.9066,3.5930
21.9260,3.5954
21.9593,3.5976
22.0078,3.5996
22.0726,3.6014
22.1550,3.6031
22.2562,3.6045
22.3773,3.6058
22.5196,3.6069
22.6843,3.6079
22.8726,3.6088
23.0858,3.6095
23.3249,3.6100
23.5913,3.6105
23.8861,3.6108
24.2105,3.6110
24.5658,3.6112
24.9532,3.6112
28.1027,3.6112
28.1142,3.5068
28.1448,3.2972
28.1912,3.0722
28.2503,2.8440
28.3189,2.6246
28.3835,2.4514
28.5354,2.1221
28.7138,1.8123
28.9173,1.5230
29.1446,1.2553
29.3943,1.0104
29.6649,0.7892
29.9552,0.5928
30.2637,0.4224
30.5890,0.2789
30.9297,0.1635
31.2846,0.0772
31.4877,0.0422
31.6157,0.0273
31.7669,0.0159
31.9316,0.0084
32.0996,0.0050
Z" /> 
<path style="fill:#F2EDA1; fill-opacity:1.0000; 
stroke:#F2EDA1; stroke-width:0.0100; stroke-opacity:1; 
stroke-linecap:round; stroke-linejoin:round;fill-rule:evenodd;"
d="M 20.4460,0.0239
20.7958,0.0719
21.1409,0.1516
21.4135,0.2388
21.7536,0.3794
22.0782,0.5492
22.3857,0.7470
22.6746,0.9716
22.9431,1.2218
23.1898,1.4965
23.3155,1.6575
23.3600,1.7174
23.0139,1.9583
22.9186,2.0241
22.8318,2.0831
22.7574,2.1326
22.6993,2.1701
22.6614,2.1931
22.6483,2.1992
22.6290,2.1867
22.5974,2.1540
22.5609,2.1090
22.3711,1.8831
22.1550,1.6741
21.9169,1.4846
21.6606,1.3169
21.3901,1.1737
21.1095,1.0573
20.8227,0.9703
20.6765,0.9382
20.3567,0.8937
20.0377,0.8816
19.7218,0.9011
19.4113,0.9515
19.1084,1.0323
18.8154,1.1426
18.5347,1.2818
18.2683,1.4493
18.0187,1.6443
17.8623,1.7897
17.6420,2.0316
17.4510,2.2895
17.2894,2.5635
17.1569,2.8536
17.0536,3.1600
16.9794,3.4828
16.9662,3.5611
16.9511,3.6898
16.9419,3.8406
16.9386,4.0025
16.9412,4.1649
16.9496,4.3171
16.9639,4.4483
16.9659,4.4612
17.0328,4.7837
17.1292,5.0931
17.2540,5.3877
17.4061,5.6657
17.5844,5.9255
17.7879,6.1654
18.0155,6.3837
18.2662,6.5786
18.3304,6.6222
18.6091,6.7872
18.8994,6.9217
19.1989,7.0256
19.5055,7.0984
19.8169,7.1400
20.1308,7.1499
20.4449,7.1280
20.7571,7.0738
21.0448,6.9939
21.3474,6.8767
21.6344,6.7306
21.9037,6.5568
22.1537,6.3568
22.3825,6.1316
22.5201,5.9709
22.6442,5.8157
22.7223,5.8716
22.7609,5.8988
22.8210,5.9410
22.8969,5.9940
22.9826,6.0536
23.0720,6.1157
23.1551,6.1738
23.2280,6.2257
23.2864,6.2683
23.3262,6.2986
23.3432,6.3135
23.3435,6.3143
23.3329,6.3370
23.3033,6.3797
23.2588,6.4380
23.2029,6.5072
23.1395,6.5829
23.0724,6.6604
23.0052,6.7354
22.9419,6.8031
22.9181,6.8274
22.6472,7.0782
22.3595,7.3004
22.0563,7.4935
21.7389,7.6570
21.4086,7.7903
21.0665,7.8929
20.7142,7.9643
20.3527,8.0039
20.0850,8.0124
19.7444,8.0006
19.4222,7.9645
19.1124,7.9026
18.8091,7.8136
18.5064,7.6961
18.2761,7.5884
17.9591,7.4114
17.6612,7.2076
17.3839,6.9783
17.1288,6.7252
16.8974,6.4497
16.6912,6.1535
16.5118,5.8381
16.3615,5.5099
16.2433,5.1770
16.1557,4.8350
16.1209,4.6463
16.0834,4.4132
12.0389,4.4217
12.0262,4.5387
11.9825,4.8219
11.9127,5.1140
11.8198,5.4072
11.7065,5.6935
11.5757,5.9648
11.4378,6.2014
11.3079,6.3891
11.1593,6.5790
10.9985,6.7634
10.8323,6.9350
10.6673,7.0862
10.5886,7.1509
10.2891,7.3662
9.9767,7.5508
9.6514,7.7045
9.3132,7.8273
8.9622,7.9193
8.5986,7.9805
8.2222,8.0107
8.1453,8.0130
8.0432,8.0148
7.9481,8.0157
7.8669,8.0156
7.8065,8.0146
7.7777,8.0130
7.5511,7.9876
7.3496,7.9583
7.1646,7.9237
6.9879,7.8819
6.8110,7.8313
6.7249,7.8039
6.3921,7.6774
6.0754,7.5225
5.7763,7.3406
5.4962,7.1333
5.2365,6.9021
4.9985,6.6485
4.7837,6.3741
4.5934,6.0802
4.4290,5.7685
4.2919,5.4405
4.1835,5.0976
4.1614,5.0114
4.1270,4.8636
4.1003,4.7309
4.0805,4.6054
4.0666,4.4788
4.0578,4.3431
4.0531,4.1903
4.0518,4.0123
4.0518,4.0039
4.9285,4.0039
4.9441,4.3359
4.9904,4.6576
5.0670,4.9677
5.1735,5.2647
5.3094,5.5474
5.4744,5.8144
5.5448,5.9117
5.7470,6.1523
5.9717,6.3694
6.2168,6.5615
6.4800,6.7277
6.7591,6.8667
7.0520,6.9773
7.3562,7.0584
7.6698,7.1086
7.7944,7.1197
7.8725,7.1250
7.9408,7.1297
7.9908,7.1331
8.0116,7.1345
8.0400,7.1342
8.0945,7.1317
8.1681,7.1275
8.2534,7.1218
8.2781,7.1201
8.6029,7.0808
8.9149,7.0118
9.2127,6.9144
9.4947,6.7900
9.7598,6.6399
10.0064,6.4656
10.2331,6.2685
10.4387,6.0499
10.6216,5.8113
10.7805,5.5540
10.9141,5.2794
11.0208,4.9890
11.0994,4.6840
11.1484,4.3660
11.1593,4.2379
11.1655,3.9069
11.1409,3.5843
11.0865,3.2716
11.0031,2.9705
10.8917,2.6827
10.7533,2.4098
10.5886,2.1535
10.3987,1.9154
10.1844,1.6972
9.9467,1.5006
9.6865,1.3271
9.4818,1.2156
9.1909,1.0893
8.8888,0.9933
8.5784,0.9274
8.2628,0.8918
7.9451,0.8865
7.6283,0.9114
7.3156,0.9667
7.0099,1.0522
6.7143,1.1681
6.6535,1.1965
6.3749,1.3481
6.1177,1.5246
5.8827,1.7243
5.6711,1.9456
5.4839,2.1869
5.3220,2.4464
5.1865,2.7226
5.0784,3.0137
4.9987,3.3181
4.9485,3.6342
4.9288,3.9602
4.9285,4.0039
4.0518,4.0039
4.0531,3.8344
4.0578,3.6818
4.0665,3.5461
4.0803,3.4194
4.0998,3.2935
4.1261,3.1602
4.1544,3.0347
4.2529,2.6867
4.3806,2.3536
4.5360,2.0368
4.7179,1.7377
4.9248,1.4577
5.1553,1.1980
5.4081,0.9601
5.6818,0.7453
5.9751,0.5550
6.2865,0.3905
6.6147,0.2532
6.9583,0.1445
7.1176,0.1052
7.2549,0.0755
7.3764,0.0526
7.4901,0.0355
7.6038,0.0236
7.7255,0.0160
7.8631,0.0119
8.0245,0.0105
8.0618,0.0105
8.2407,0.0122
8.3948,0.0173
8.5321,0.0268
8.6611,0.0415
8.7902,0.0625
8.9275,0.0904
9.0216,0.1118
9.3479,0.2043
9.6692,0.3257
9.9797,0.4733
10.2734,0.6443
10.5291,0.8239
10.6507,0.9235
10.7815,1.0409
10.9130,1.1675
11.0364,1.2951
11.1431,1.4152
11.1696,1.4472
11.3704,1.7202
11.5489,2.0134
11.7030,2.3221
11.8308,2.6416
11.9301,2.9673
11.9989,3.2945
12.0136,3.3940
12.0231,3.4640
12.0321,3.5250
12.0388,3.5666
12.0401,3.5736
12.0478,3.6112
16.0912,3.6112
16.0912,3.5716
16.0947,3.5285
16.1043,3.4602
16.1187,3.3741
16.1364,3.2778
16.1561,3.1786
16.1764,3.0839
16.1959,3.0012
16.1997,2.9866
16.3024,2.6564
16.4362,2.3342
16.5991,2.0229
16.7890,1.7253
17.0039,1.4444
17.2419,1.1828
17.5010,0.9435
17.7631,0.7407
18.0655,0.5471
18.3819,0.3826
18.7101,0.2475
19.0478,0.1420
19.3926,0.0666
19.7421,0.0216
20.0940,0.0073
Z" /> 
</g>
<g style="fill:none; 
stroke:#AFAFAF; stroke-width:0.1588; stroke-opacity:1; 
stroke-linecap:round; stroke-linejoin:round;">
<text x="20.0683" y="4.6473"
textLength="40.1365" font-size="1.6933" lengthAdjust="spacingAndGlyphs"
text-anchor="middle" opacity="0">Polarity_Center_Negative_8mm_SilkScreen</text>
<g class="stroked-text"><desc>Polarity_Center_Negative_8mm_SilkScreen</desc>
<path d="M0.4135 4.5916
L0.4135 3.3216
" />
<path d="M0.4135 3.3216
L0.8973 3.3216
" />
<path d="M0.8973 3.3216
L1.0183 3.3820
" />
<path d="M1.0183 3.3820
L1.0787 3.4425
" />
<path d="M1.0787 3.4425
L1.1392 3.5635
" />
<path d="M1.1392 3.5635
L1.1392 3.7449
" />
<path d="M1.1392 3.7449
L1.0787 3.8658
" />
<path d="M1.0787 3.8658
L1.0183 3.9263
" />
<path d="M1.0183 3.9263
L0.8973 3.9868
" />
<path d="M0.8973 3.9868
L0.4135 3.9868
" />
<path d="M1.8649 4.5916
L1.7440 4.5311
" />
<path d="M1.7440 4.5311
L1.6835 4.4706
" />
<path d="M1.6835 4.4706
L1.6230 4.3496
" />
<path d="M1.6230 4.3496
L1.6230 3.9868
" />
<path d="M1.6230 3.9868
L1.6835 3.8658
" />
<path d="M1.6835 3.8658
L1.7440 3.8054
" />
<path d="M1.7440 3.8054
L1.8649 3.7449
" />
<path d="M1.8649 3.7449
L2.0464 3.7449
" />
<path d="M2.0464 3.7449
L2.1673 3.8054
" />
<path d="M2.1673 3.8054
L2.2278 3.8658
" />
<path d="M2.2278 3.8658
L2.2883 3.9868
" />
<path d="M2.2883 3.9868
L2.2883 4.3496
" />
<path d="M2.2883 4.3496
L2.2278 4.4706
" />
<path d="M2.2278 4.4706
L2.1673 4.5311
" />
<path d="M2.1673 4.5311
L2.0464 4.5916
" />
<path d="M2.0464 4.5916
L1.8649 4.5916
" />
<path d="M3.0140 4.5916
L2.8930 4.5311
" />
<path d="M2.8930 4.5311
L2.8326 4.4101
" />
<path d="M2.8326 4.4101
L2.8326 3.3216
" />
<path d="M4.0421 4.5916
L4.0421 3.9263
" />
<path d="M4.0421 3.9263
L3.9816 3.8054
" />
<path d="M3.9816 3.8054
L3.8606 3.7449
" />
<path d="M3.8606 3.7449
L3.6187 3.7449
" />
<path d="M3.6187 3.7449
L3.4978 3.8054
" />
<path d="M4.0421 4.5311
L3.9211 4.5916
" />
<path d="M3.9211 4.5916
L3.6187 4.5916
" />
<path d="M3.6187 4.5916
L3.4978 4.5311
" />
<path d="M3.4978 4.5311
L3.4373 4.4101
" />
<path d="M3.4373 4.4101
L3.4373 4.2892
" />
<path d="M3.4373 4.2892
L3.4978 4.1682
" />
<path d="M3.4978 4.1682
L3.6187 4.1077
" />
<path d="M3.6187 4.1077
L3.9211 4.1077
" />
<path d="M3.9211 4.1077
L4.0421 4.0473
" />
<path d="M4.6468 4.5916
L4.6468 3.7449
" />
<path d="M4.6468 3.9868
L4.7073 3.8658
" />
<path d="M4.7073 3.8658
L4.7678 3.8054
" />
<path d="M4.7678 3.8054
L4.8887 3.7449
" />
<path d="M4.8887 3.7449
L5.0097 3.7449
" />
<path d="M5.4330 4.5916
L5.4330 3.7449
" />
<path d="M5.4330 3.3216
L5.3726 3.3820
" />
<path d="M5.3726 3.3820
L5.4330 3.4425
" />
<path d="M5.4330 3.4425
L5.4935 3.3820
" />
<path d="M5.4935 3.3820
L5.4330 3.3216
" />
<path d="M5.4330 3.3216
L5.4330 3.4425
" />
<path d="M5.8564 3.7449
L6.3402 3.7449
" />
<path d="M6.0378 3.3216
L6.0378 4.4101
" />
<path d="M6.0378 4.4101
L6.0983 4.5311
" />
<path d="M6.0983 4.5311
L6.2192 4.5916
" />
<path d="M6.2192 4.5916
L6.3402 4.5916
" />
<path d="M6.6426 3.7449
L6.9449 4.5916
" />
<path d="M7.2473 3.7449
L6.9449 4.5916
" />
<path d="M6.9449 4.5916
L6.8240 4.8939
" />
<path d="M6.8240 4.8939
L6.7635 4.9544
" />
<path d="M6.7635 4.9544
L6.6426 5.0149
" />
<path d="M7.4287 4.7125
L8.3964 4.7125
" />
<path d="M9.4245 4.4706
L9.3640 4.5311
" />
<path d="M9.3640 4.5311
L9.1826 4.5916
" />
<path d="M9.1826 4.5916
L9.0616 4.5916
" />
<path d="M9.0616 4.5916
L8.8802 4.5311
" />
<path d="M8.8802 4.5311
L8.7592 4.4101
" />
<path d="M8.7592 4.4101
L8.6987 4.2892
" />
<path d="M8.6987 4.2892
L8.6383 4.0473
" />
<path d="M8.6383 4.0473
L8.6383 3.8658
" />
<path d="M8.6383 3.8658
L8.6987 3.6239
" />
<path d="M8.6987 3.6239
L8.7592 3.5030
" />
<path d="M8.7592 3.5030
L8.8802 3.3820
" />
<path d="M8.8802 3.3820
L9.0616 3.3216
" />
<path d="M9.0616 3.3216
L9.1826 3.3216
" />
<path d="M9.1826 3.3216
L9.3640 3.3820
" />
<path d="M9.3640 3.3820
L9.4245 3.4425
" />
<path d="M10.4526 4.5311
L10.3316 4.5916
" />
<path d="M10.3316 4.5916
L10.0897 4.5916
" />
<path d="M10.0897 4.5916
L9.9687 4.5311
" />
<path d="M9.9687 4.5311
L9.9083 4.4101
" />
<path d="M9.9083 4.4101
L9.9083 3.9263
" />
<path d="M9.9083 3.9263
L9.9687 3.8054
" />
<path d="M9.9687 3.8054
L10.0897 3.7449
" />
<path d="M10.0897 3.7449
L10.3316 3.7449
" />
<path d="M10.3316 3.7449
L10.4526 3.8054
" />
<path d="M10.4526 3.8054
L10.5130 3.9263
" />
<path d="M10.5130 3.9263
L10.5130 4.0473
" />
<path d="M10.5130 4.0473
L9.9083 4.1682
" />
<path d="M11.0573 3.7449
L11.0573 4.5916
" />
<path d="M11.0573 3.8658
L11.1178 3.8054
" />
<path d="M11.1178 3.8054
L11.2387 3.7449
" />
<path d="M11.2387 3.7449
L11.4202 3.7449
" />
<path d="M11.4202 3.7449
L11.5411 3.8054
" />
<path d="M11.5411 3.8054
L11.6016 3.9263
" />
<path d="M11.6016 3.9263
L11.6016 4.5916
" />
<path d="M12.0249 3.7449
L12.5087 3.7449
" />
<path d="M12.2064 3.3216
L12.2064 4.4101
" />
<path d="M12.2064 4.4101
L12.2668 4.5311
" />
<path d="M12.2668 4.5311
L12.3878 4.5916
" />
<path d="M12.3878 4.5916
L12.5087 4.5916
" />
<path d="M13.4159 4.5311
L13.2949 4.5916
" />
<path d="M13.2949 4.5916
L13.0530 4.5916
" />
<path d="M13.0530 4.5916
L12.9321 4.5311
" />
<path d="M12.9321 4.5311
L12.8716 4.4101
" />
<path d="M12.8716 4.4101
L12.8716 3.9263
" />
<path d="M12.8716 3.9263
L12.9321 3.8054
" />
<path d="M12.9321 3.8054
L13.0530 3.7449
" />
<path d="M13.0530 3.7449
L13.2949 3.7449
" />
<path d="M13.2949 3.7449
L13.4159 3.8054
" />
<path d="M13.4159 3.8054
L13.4764 3.9263
" />
<path d="M13.4764 3.9263
L13.4764 4.0473
" />
<path d="M13.4764 4.0473
L12.8716 4.1682
" />
<path d="M14.0206 4.5916
L14.0206 3.7449
" />
<path d="M14.0206 3.9868
L14.0811 3.8658
" />
<path d="M14.0811 3.8658
L14.1416 3.8054
" />
<path d="M14.1416 3.8054
L14.2626 3.7449
" />
<path d="M14.2626 3.7449
L14.3835 3.7449
" />
<path d="M14.5045 4.7125
L15.4721 4.7125
" />
<path d="M15.7745 4.5916
L15.7745 3.3216
" />
<path d="M15.7745 3.3216
L16.5002 4.5916
" />
<path d="M16.5002 4.5916
L16.5002 3.3216
" />
<path d="M17.5887 4.5311
L17.4678 4.5916
" />
<path d="M17.4678 4.5916
L17.2259 4.5916
" />
<path d="M17.2259 4.5916
L17.1049 4.5311
" />
<path d="M17.1049 4.5311
L17.0445 4.4101
" />
<path d="M17.0445 4.4101
L17.0445 3.9263
" />
<path d="M17.0445 3.9263
L17.1049 3.8054
" />
<path d="M17.1049 3.8054
L17.2259 3.7449
" />
<path d="M17.2259 3.7449
L17.4678 3.7449
" />
<path d="M17.4678 3.7449
L17.5887 3.8054
" />
<path d="M17.5887 3.8054
L17.6492 3.9263
" />
<path d="M17.6492 3.9263
L17.6492 4.0473
" />
<path d="M17.6492 4.0473
L17.0445 4.1682
" />
<path d="M18.7378 3.7449
L18.7378 4.7730
" />
<path d="M18.7378 4.7730
L18.6773 4.8939
" />
<path d="M18.6773 4.8939
L18.6168 4.9544
" />
<path d="M18.6168 4.9544
L18.4959 5.0149
" />
<path d="M18.4959 5.0149
L18.3145 5.0149
" />
<path d="M18.3145 5.0149
L18.1935 4.9544
" />
<path d="M18.7378 4.5311
L18.6168 4.5916
" />
<path d="M18.6168 4.5916
L18.3749 4.5916
" />
<path d="M18.3749 4.5916
L18.2540 4.5311
" />
<path d="M18.2540 4.5311
L18.1935 4.4706
" />
<path d="M18.1935 4.4706
L18.1330 4.3496
" />
<path d="M18.1330 4.3496
L18.1330 3.9868
" />
<path d="M18.1330 3.9868
L18.1935 3.8658
" />
<path d="M18.1935 3.8658
L18.2540 3.8054
" />
<path d="M18.2540 3.8054
L18.3749 3.7449
" />
<path d="M18.3749 3.7449
L18.6168 3.7449
" />
<path d="M18.6168 3.7449
L18.7378 3.8054
" />
<path d="M19.8868 4.5916
L19.8868 3.9263
" />
<path d="M19.8868 3.9263
L19.8264 3.8054
" />
<path d="M19.8264 3.8054
L19.7054 3.7449
" />
<path d="M19.7054 3.7449
L19.4635 3.7449
" />
<path d="M19.4635 3.7449
L19.3426 3.8054
" />
<path d="M19.8868 4.5311
L19.7659 4.5916
" />
<path d="M19.7659 4.5916
L19.4635 4.5916
" />
<path d="M19.4635 4.5916
L19.3426 4.5311
" />
<path d="M19.3426 4.5311
L19.2821 4.4101
" />
<path d="M19.2821 4.4101
L19.2821 4.2892
" />
<path d="M19.2821 4.2892
L19.3426 4.1682
" />
<path d="M19.3426 4.1682
L19.4635 4.1077
" />
<path d="M19.4635 4.1077
L19.7659 4.1077
" />
<path d="M19.7659 4.1077
L19.8868 4.0473
" />
<path d="M20.3102 3.7449
L20.7940 3.7449
" />
<path d="M20.4916 3.3216
L20.4916 4.4101
" />
<path d="M20.4916 4.4101
L20.5521 4.5311
" />
<path d="M20.5521 4.5311
L20.6730 4.5916
" />
<path d="M20.6730 4.5916
L20.7940 4.5916
" />
<path d="M21.2173 4.5916
L21.2173 3.7449
" />
<path d="M21.2173 3.3216
L21.1568 3.3820
" />
<path d="M21.1568 3.3820
L21.2173 3.4425
" />
<path d="M21.2173 3.4425
L21.2778 3.3820
" />
<path d="M21.2778 3.3820
L21.2173 3.3216
" />
<path d="M21.2173 3.3216
L21.2173 3.4425
" />
<path d="M21.7011 3.7449
L22.0035 4.5916
" />
<path d="M22.0035 4.5916
L22.3059 3.7449
" />
<path d="M23.2735 4.5311
L23.1526 4.5916
" />
<path d="M23.1526 4.5916
L22.9106 4.5916
" />
<path d="M22.9106 4.5916
L22.7897 4.5311
" />
<path d="M22.7897 4.5311
L22.7292 4.4101
" />
<path d="M22.7292 4.4101
L22.7292 3.9263
" />
<path d="M22.7292 3.9263
L22.7897 3.8054
" />
<path d="M22.7897 3.8054
L22.9106 3.7449
" />
<path d="M22.9106 3.7449
L23.1526 3.7449
" />
<path d="M23.1526 3.7449
L23.2735 3.8054
" />
<path d="M23.2735 3.8054
L23.3340 3.9263
" />
<path d="M23.3340 3.9263
L23.3340 4.0473
" />
<path d="M23.3340 4.0473
L22.7292 4.1682
" />
<path d="M23.5759 4.7125
L24.5435 4.7125
" />
<path d="M25.0273 3.8658
L24.9064 3.8054
" />
<path d="M24.9064 3.8054
L24.8459 3.7449
" />
<path d="M24.8459 3.7449
L24.7854 3.6239
" />
<path d="M24.7854 3.6239
L24.7854 3.5635
" />
<path d="M24.7854 3.5635
L24.8459 3.4425
" />
<path d="M24.8459 3.4425
L24.9064 3.3820
" />
<path d="M24.9064 3.3820
L25.0273 3.3216
" />
<path d="M25.0273 3.3216
L25.2692 3.3216
" />
<path d="M25.2692 3.3216
L25.3902 3.3820
" />
<path d="M25.3902 3.3820
L25.4506 3.4425
" />
<path d="M25.4506 3.4425
L25.5111 3.5635
" />
<path d="M25.5111 3.5635
L25.5111 3.6239
" />
<path d="M25.5111 3.6239
L25.4506 3.7449
" />
<path d="M25.4506 3.7449
L25.3902 3.8054
" />
<path d="M25.3902 3.8054
L25.2692 3.8658
" />
<path d="M25.2692 3.8658
L25.0273 3.8658
" />
<path d="M25.0273 3.8658
L24.9064 3.9263
" />
<path d="M24.9064 3.9263
L24.8459 3.9868
" />
<path d="M24.8459 3.9868
L24.7854 4.1077
" />
<path d="M24.7854 4.1077
L24.7854 4.3496
" />
<path d="M24.7854 4.3496
L24.8459 4.4706
" />
<path d="M24.8459 4.4706
L24.9064 4.5311
" />
<path d="M24.9064 4.5311
L25.0273 4.5916
" />
<path d="M25.0273 4.5916
L25.2692 4.5916
" />
<path d="M25.2692 4.5916
L25.3902 4.5311
" />
<path d="M25.3902 4.5311
L25.4506 4.4706
" />
<path d="M25.4506 4.4706
L25.5111 4.3496
" />
<path d="M25.5111 4.3496
L25.5111 4.1077
" />
<path d="M25.5111 4.1077
L25.4506 3.9868
" />
<path d="M25.4506 3.9868
L25.3902 3.9263
" />
<path d="M25.3902 3.9263
L25.2692 3.8658
" />
<path d="M26.0554 4.5916
L26.0554 3.7449
" />
<path d="M26.0554 3.8658
L26.1159 3.8054
" />
<path d="M26.1159 3.8054
L26.2368 3.7449
" />
<path d="M26.2368 3.7449
L26.4183 3.7449
" />
<path d="M26.4183 3.7449
L26.5392 3.8054
" />
<path d="M26.5392 3.8054
L26.5997 3.9263
" />
<path d="M26.5997 3.9263
L26.5997 4.5916
" />
<path d="M26.5997 3.9263
L26.6602 3.8054
" />
<path d="M26.6602 3.8054
L26.7811 3.7449
" />
<path d="M26.7811 3.7449
L26.9626 3.7449
" />
<path d="M26.9626 3.7449
L27.0835 3.8054
" />
<path d="M27.0835 3.8054
L27.1440 3.9263
" />
<path d="M27.1440 3.9263
L27.1440 4.5916
" />
<path d="M27.7487 4.5916
L27.7487 3.7449
" />
<path d="M27.7487 3.8658
L27.8092 3.8054
" />
<path d="M27.8092 3.8054
L27.9302 3.7449
" />
<path d="M27.9302 3.7449
L28.1116 3.7449
" />
<path d="M28.1116 3.7449
L28.2326 3.8054
" />
<path d="M28.2326 3.8054
L28.2930 3.9263
" />
<path d="M28.2930 3.9263
L28.2930 4.5916
" />
<path d="M28.2930 3.9263
L28.3535 3.8054
" />
<path d="M28.3535 3.8054
L28.4745 3.7449
" />
<path d="M28.4745 3.7449
L28.6559 3.7449
" />
<path d="M28.6559 3.7449
L28.7768 3.8054
" />
<path d="M28.7768 3.8054
L28.8373 3.9263
" />
<path d="M28.8373 3.9263
L28.8373 4.5916
" />
<path d="M29.1397 4.7125
L30.1073 4.7125
" />
<path d="M30.3492 4.5311
L30.5306 4.5916
" />
<path d="M30.5306 4.5916
L30.8330 4.5916
" />
<path d="M30.8330 4.5916
L30.9540 4.5311
" />
<path d="M30.9540 4.5311
L31.0145 4.4706
" />
<path d="M31.0145 4.4706
L31.0749 4.3496
" />
<path d="M31.0749 4.3496
L31.0749 4.2287
" />
<path d="M31.0749 4.2287
L31.0145 4.1077
" />
<path d="M31.0145 4.1077
L30.9540 4.0473
" />
<path d="M30.9540 4.0473
L30.8330 3.9868
" />
<path d="M30.8330 3.9868
L30.5911 3.9263
" />
<path d="M30.5911 3.9263
L30.4702 3.8658
" />
<path d="M30.4702 3.8658
L30.4097 3.8054
" />
<path d="M30.4097 3.8054
L30.3492 3.6844
" />
<path d="M30.3492 3.6844
L30.3492 3.5635
" />
<path d="M30.3492 3.5635
L30.4097 3.4425
" />
<path d="M30.4097 3.4425
L30.4702 3.3820
" />
<path d="M30.4702 3.3820
L30.5911 3.3216
" />
<path d="M30.5911 3.3216
L30.8935 3.3216
" />
<path d="M30.8935 3.3216
L31.0749 3.3820
" />
<path d="M31.6192 4.5916
L31.6192 3.7449
" />
<path d="M31.6192 3.3216
L31.5587 3.3820
" />
<path d="M31.5587 3.3820
L31.6192 3.4425
" />
<path d="M31.6192 3.4425
L31.6797 3.3820
" />
<path d="M31.6797 3.3820
L31.6192 3.3216
" />
<path d="M31.6192 3.3216
L31.6192 3.4425
" />
<path d="M32.4054 4.5916
L32.2845 4.5311
" />
<path d="M32.2845 4.5311
L32.2240 4.4101
" />
<path d="M32.2240 4.4101
L32.2240 3.3216
" />
<path d="M32.8892 4.5916
L32.8892 3.3216
" />
<path d="M33.0102 4.1077
L33.3730 4.5916
" />
<path d="M33.3730 3.7449
L32.8892 4.2287
" />
<path d="M33.8568 4.5311
L34.0383 4.5916
" />
<path d="M34.0383 4.5916
L34.3406 4.5916
" />
<path d="M34.3406 4.5916
L34.4616 4.5311
" />
<path d="M34.4616 4.5311
L34.5221 4.4706
" />
<path d="M34.5221 4.4706
L34.5826 4.3496
" />
<path d="M34.5826 4.3496
L34.5826 4.2287
" />
<path d="M34.5826 4.2287
L34.5221 4.1077
" />
<path d="M34.5221 4.1077
L34.4616 4.0473
" />
<path d="M34.4616 4.0473
L34.3406 3.9868
" />
<path d="M34.3406 3.9868
L34.0987 3.9263
" />
<path d="M34.0987 3.9263
L33.9778 3.8658
" />
<path d="M33.9778 3.8658
L33.9173 3.8054
" />
<path d="M33.9173 3.8054
L33.8568 3.6844
" />
<path d="M33.8568 3.6844
L33.8568 3.5635
" />
<path d="M33.8568 3.5635
L33.9173 3.4425
" />
<path d="M33.9173 3.4425
L33.9778 3.3820
" />
<path d="M33.9778 3.3820
L34.0987 3.3216
" />
<path d="M34.0987 3.3216
L34.4011 3.3216
" />
<path d="M34.4011 3.3216
L34.5826 3.3820
" />
<path d="M35.6711 4.5311
L35.5502 4.5916
" />
<path d="M35.5502 4.5916
L35.3083 4.5916
" />
<path d="M35.3083 4.5916
L35.1873 4.5311
" />
<path d="M35.1873 4.5311
L35.1268 4.4706
" />
<path d="M35.1268 4.4706
L35.0664 4.3496
" />
<path d="M35.0664 4.3496
L35.0664 3.9868
" />
<path d="M35.0664 3.9868
L35.1268 3.8658
" />
<path d="M35.1268 3.8658
L35.1873 3.8054
" />
<path d="M35.1873 3.8054
L35.3083 3.7449
" />
<path d="M35.3083 3.7449
L35.5502 3.7449
" />
<path d="M35.5502 3.7449
L35.6711 3.8054
" />
<path d="M36.2154 4.5916
L36.2154 3.7449
" />
<path d="M36.2154 3.9868
L36.2759 3.8658
" />
<path d="M36.2759 3.8658
L36.3364 3.8054
" />
<path d="M36.3364 3.8054
L36.4573 3.7449
" />
<path d="M36.4573 3.7449
L36.5783 3.7449
" />
<path d="M37.4854 4.5311
L37.3645 4.5916
" />
<path d="M37.3645 4.5916
L37.1225 4.5916
" />
<path d="M37.1225 4.5916
L37.0016 4.5311
" />
<path d="M37.0016 4.5311
L36.9411 4.4101
" />
<path d="M36.9411 4.4101
L36.9411 3.9263
" />
<path d="M36.9411 3.9263
L37.0016 3.8054
" />
<path d="M37.0016 3.8054
L37.1225 3.7449
" />
<path d="M37.1225 3.7449
L37.3645 3.7449
" />
<path d="M37.3645 3.7449
L37.4854 3.8054
" />
<path d="M37.4854 3.8054
L37.5459 3.9263
" />
<path d="M37.5459 3.9263
L37.5459 4.0473
" />
<path d="M37.5459 4.0473
L36.9411 4.1682
" />
<path d="M38.5740 4.5311
L38.4530 4.5916
" />
<path d="M38.4530 4.5916
L38.2111 4.5916
" />
<path d="M38.2111 4.5916
L38.0902 4.5311
" />
<path d="M38.0902 4.5311
L38.0297 4.4101
" />
<path d="M38.0297 4.4101
L38.0297 3.9263
" />
<path d="M38.0297 3.9263
L38.0902 3.8054
" />
<path d="M38.0902 3.8054
L38.2111 3.7449
" />
<path d="M38.2111 3.7449
L38.4530 3.7449
" />
<path d="M38.4530 3.7449
L38.5740 3.8054
" />
<path d="M38.5740 3.8054
L38.6345 3.9263
" />
<path d="M38.6345 3.9263
L38.6345 4.0473
" />
<path d="M38.6345 4.0473
L38.0297 4.1682
" />
<path d="M39.1787 3.7449
L39.1787 4.5916
" />
<path d="M39.1787 3.8658
L39.2392 3.8054
" />
<path d="M39.2392 3.8054
L39.3602 3.7449
" />
<path d="M39.3602 3.7449
L39.5416 3.7449
" />
<path d="M39.5416 3.7449
L39.6625 3.8054
" />
<path d="M39.6625 3.8054
L39.7230 3.9263
" />
<path d="M39.7230 3.9263
L39.7230 4.5916
" />
</g></g> 
</svg>
