<?xml version="1.0" standalone="no"?>
 <!DOCTYPE svg PUBLIC "-//W3C//DTD SVG 1.1//EN" 
 "http://www.w3.org/Graphics/SVG/1.1/DTD/svg11.dtd"> 
<svg
  xmlns:svg="http://www.w3.org/2000/svg"
  xmlns="http://www.w3.org/2000/svg"
  xmlns:xlink="http://www.w3.org/1999/xlink"
  version="1.1"
  width="52.5272mm" height="19.1770mm" viewBox="0.0000 0.0000 52.5272 19.1770">
<title>SVG Image created as working-brd.svg date 2024/04/11 11:16:39 </title>
  <desc>Image generated by PCBNEW </desc>
<g style="fill:#000000; fill-opacity:1.0000;stroke:#000000; stroke-opacity:1.0000;
stroke-linecap:round; stroke-linejoin:round;"
 transform="translate(0 0) scale(1 1)">
</g>
<g style="fill:#FFFFFF; fill-opacity:1.0000; stroke:none;">
<circle cx="28.7687" cy="5.1000" r="0.7500" /> 
</g>
<g style="fill:#FFFFFF; fill-opacity:1.0000; stroke:none;">
<circle cx="23.7687" cy="5.6000" r="0.7500" /> 
</g>
<g style="fill:#02FFEE; fill-opacity:0.4000; stroke:none;">
<circle cx="28.7687" cy="5.1000" r="1.1000" /> 
</g>
<g style="fill:#02FFEE; fill-opacity:0.4000; stroke:none;">
<circle cx="23.7687" cy="5.6000" r="1.1000" /> 
</g>
<g style="fill:#FFFFFF; fill-opacity:1.0000; stroke:none;">
<circle cx="28.7687" cy="5.1000" r="0.7500" /> 
</g>
<g style="fill:#FFFFFF; fill-opacity:1.0000; stroke:none;">
<circle cx="23.7687" cy="5.6000" r="0.7500" /> 
</g>
<g style="fill:#FFFFFF; fill-opacity:1.0000; stroke:none;">
<circle cx="28.7687" cy="5.1000" r="0.7500" /> 
</g>
<g style="fill:#FFFFFF; fill-opacity:1.0000; stroke:none;">
<circle cx="23.7687" cy="5.6000" r="0.7500" /> 
</g>
<g style="fill:#D864FF; fill-opacity:0.4000; stroke:none;">
<circle cx="28.7687" cy="5.1000" r="1.1000" /> 
</g>
<g style="fill:#D864FF; fill-opacity:0.4000; stroke:none;">
<circle cx="23.7687" cy="5.6000" r="1.1000" /> 
</g>
<g style="fill:none; 
stroke:#F2EDA1; stroke-width:0.1588; stroke-opacity:1; 
stroke-linecap:round; stroke-linejoin:round;">
<text x="28.7687" y="5.7350"
textLength="5.6651" font-size="1.6933" lengthAdjust="spacingAndGlyphs"
text-anchor="middle" opacity="0">REF**</text>
<g class="stroked-text"><desc>REF**</desc>
<path d="M27.0754 5.6793
L26.6521 5.0745
" />
<path d="M26.3497 5.6793
L26.3497 4.4093
" />
<path d="M26.3497 4.4093
L26.8335 4.4093
" />
<path d="M26.8335 4.4093
L26.9545 4.4697
" />
<path d="M26.9545 4.4697
L27.0149 4.5302
" />
<path d="M27.0149 4.5302
L27.0754 4.6512
" />
<path d="M27.0754 4.6512
L27.0754 4.8326
" />
<path d="M27.0754 4.8326
L27.0149 4.9536
" />
<path d="M27.0149 4.9536
L26.9545 5.0140
" />
<path d="M26.9545 5.0140
L26.8335 5.0745
" />
<path d="M26.8335 5.0745
L26.3497 5.0745
" />
<path d="M27.6197 5.0140
L28.0430 5.0140
" />
<path d="M28.2245 5.6793
L27.6197 5.6793
" />
<path d="M27.6197 5.6793
L27.6197 4.4093
" />
<path d="M27.6197 4.4093
L28.2245 4.4093
" />
<path d="M29.1921 5.0140
L28.7687 5.0140
" />
<path d="M28.7687 5.6793
L28.7687 4.4093
" />
<path d="M28.7687 4.4093
L29.3735 4.4093
" />
<path d="M30.0388 4.4093
L30.0388 4.7117
" />
<path d="M29.7364 4.5907
L30.0388 4.7117
" />
<path d="M30.0388 4.7117
L30.3411 4.5907
" />
<path d="M29.8573 4.9536
L30.0388 4.7117
" />
<path d="M30.0388 4.7117
L30.2202 4.9536
" />
<path d="M31.0064 4.4093
L31.0064 4.7117
" />
<path d="M30.7040 4.5907
L31.0064 4.7117
" />
<path d="M31.0064 4.7117
L31.3087 4.5907
" />
<path d="M30.8249 4.9536
L31.0064 4.7117
" />
<path d="M31.0064 4.7117
L31.1878 4.9536
" />
</g></g>
<g style="fill:none; 
stroke:#F2EDA1; stroke-width:0.1200; stroke-opacity:1; 
stroke-linecap:round; stroke-linejoin:round;">
<path d="M17.4187 2.3500
L35.1187 2.3500
" />
<path d="M17.4187 16.8500
L17.4187 2.3500
" />
<path d="M35.1187 2.3500
L35.1187 16.8500
" />
<path d="M35.1187 16.8500
L17.4187 16.8500
" />
</g>
<g style="fill:#FFFFFF; fill-opacity:1.0000; stroke:none;">
<circle cx="28.7687" cy="5.1000" r="0.7500" /> 
</g>
<g style="fill:#FFFFFF; fill-opacity:1.0000; stroke:none;">
<circle cx="23.7687" cy="5.6000" r="0.7500" /> 
</g>
<g style="fill:none; 
stroke:#FF26E2; stroke-width:0.0500; stroke-opacity:1; 
stroke-linecap:round; stroke-linejoin:round;">
<path d="M17.4187 2.3500
L17.4187 16.8500
" />
<path d="M17.4187 2.3500
L35.1187 2.3500
" />
<path d="M17.4187 16.8500
L35.1187 16.8500
" />
<path d="M35.1187 16.8500
L35.1187 2.3500
" />
</g>
<g style="fill:none; 
stroke:#AFAFAF; stroke-width:0.1588; stroke-opacity:1; 
stroke-linecap:round; stroke-linejoin:round;">
<text x="28.7687" y="5.7350"
textLength="16.3089" font-size="1.6933" lengthAdjust="spacingAndGlyphs"
text-anchor="middle" opacity="0">SW_Matias_2.75u</text>
<g class="stroked-text"><desc>SW_Matias_2.75u</desc>
<path d="M20.9673 5.6188
L21.1487 5.6793
" />
<path d="M21.1487 5.6793
L21.4511 5.6793
" />
<path d="M21.4511 5.6793
L21.5721 5.6188
" />
<path d="M21.5721 5.6188
L21.6326 5.5583
" />
<path d="M21.6326 5.5583
L21.6930 5.4374
" />
<path d="M21.6930 5.4374
L21.6930 5.3164
" />
<path d="M21.6930 5.3164
L21.6326 5.1955
" />
<path d="M21.6326 5.1955
L21.5721 5.1350
" />
<path d="M21.5721 5.1350
L21.4511 5.0745
" />
<path d="M21.4511 5.0745
L21.2092 5.0140
" />
<path d="M21.2092 5.0140
L21.0883 4.9536
" />
<path d="M21.0883 4.9536
L21.0278 4.8931
" />
<path d="M21.0278 4.8931
L20.9673 4.7721
" />
<path d="M20.9673 4.7721
L20.9673 4.6512
" />
<path d="M20.9673 4.6512
L21.0278 4.5302
" />
<path d="M21.0278 4.5302
L21.0883 4.4697
" />
<path d="M21.0883 4.4697
L21.2092 4.4093
" />
<path d="M21.2092 4.4093
L21.5116 4.4093
" />
<path d="M21.5116 4.4093
L21.6930 4.4697
" />
<path d="M22.1164 4.4093
L22.4187 5.6793
" />
<path d="M22.4187 5.6793
L22.6607 4.7721
" />
<path d="M22.6607 4.7721
L22.9026 5.6793
" />
<path d="M22.9026 5.6793
L23.2049 4.4093
" />
<path d="M23.3864 5.8002
L24.3540 5.8002
" />
<path d="M24.6564 5.6793
L24.6564 4.4093
" />
<path d="M24.6564 4.4093
L25.0797 5.3164
" />
<path d="M25.0797 5.3164
L25.5030 4.4093
" />
<path d="M25.5030 4.4093
L25.5030 5.6793
" />
<path d="M26.6521 5.6793
L26.6521 5.0140
" />
<path d="M26.6521 5.0140
L26.5916 4.8931
" />
<path d="M26.5916 4.8931
L26.4707 4.8326
" />
<path d="M26.4707 4.8326
L26.2288 4.8326
" />
<path d="M26.2288 4.8326
L26.1078 4.8931
" />
<path d="M26.6521 5.6188
L26.5311 5.6793
" />
<path d="M26.5311 5.6793
L26.2288 5.6793
" />
<path d="M26.2288 5.6793
L26.1078 5.6188
" />
<path d="M26.1078 5.6188
L26.0473 5.4978
" />
<path d="M26.0473 5.4978
L26.0473 5.3769
" />
<path d="M26.0473 5.3769
L26.1078 5.2559
" />
<path d="M26.1078 5.2559
L26.2288 5.1955
" />
<path d="M26.2288 5.1955
L26.5311 5.1955
" />
<path d="M26.5311 5.1955
L26.6521 5.1350
" />
<path d="M27.0754 4.8326
L27.5592 4.8326
" />
<path d="M27.2568 4.4093
L27.2568 5.4978
" />
<path d="M27.2568 5.4978
L27.3173 5.6188
" />
<path d="M27.3173 5.6188
L27.4383 5.6793
" />
<path d="M27.4383 5.6793
L27.5592 5.6793
" />
<path d="M27.9826 5.6793
L27.9826 4.8326
" />
<path d="M27.9826 4.4093
L27.9221 4.4697
" />
<path d="M27.9221 4.4697
L27.9826 4.5302
" />
<path d="M27.9826 4.5302
L28.0430 4.4697
" />
<path d="M28.0430 4.4697
L27.9826 4.4093
" />
<path d="M27.9826 4.4093
L27.9826 4.5302
" />
<path d="M29.1316 5.6793
L29.1316 5.0140
" />
<path d="M29.1316 5.0140
L29.0711 4.8931
" />
<path d="M29.0711 4.8931
L28.9502 4.8326
" />
<path d="M28.9502 4.8326
L28.7083 4.8326
" />
<path d="M28.7083 4.8326
L28.5873 4.8931
" />
<path d="M29.1316 5.6188
L29.0107 5.6793
" />
<path d="M29.0107 5.6793
L28.7083 5.6793
" />
<path d="M28.7083 5.6793
L28.5873 5.6188
" />
<path d="M28.5873 5.6188
L28.5268 5.4978
" />
<path d="M28.5268 5.4978
L28.5268 5.3769
" />
<path d="M28.5268 5.3769
L28.5873 5.2559
" />
<path d="M28.5873 5.2559
L28.7083 5.1955
" />
<path d="M28.7083 5.1955
L29.0107 5.1955
" />
<path d="M29.0107 5.1955
L29.1316 5.1350
" />
<path d="M29.6759 5.6188
L29.7968 5.6793
" />
<path d="M29.7968 5.6793
L30.0388 5.6793
" />
<path d="M30.0388 5.6793
L30.1597 5.6188
" />
<path d="M30.1597 5.6188
L30.2202 5.4978
" />
<path d="M30.2202 5.4978
L30.2202 5.4374
" />
<path d="M30.2202 5.4374
L30.1597 5.3164
" />
<path d="M30.1597 5.3164
L30.0388 5.2559
" />
<path d="M30.0388 5.2559
L29.8573 5.2559
" />
<path d="M29.8573 5.2559
L29.7364 5.1955
" />
<path d="M29.7364 5.1955
L29.6759 5.0745
" />
<path d="M29.6759 5.0745
L29.6759 5.0140
" />
<path d="M29.6759 5.0140
L29.7364 4.8931
" />
<path d="M29.7364 4.8931
L29.8573 4.8326
" />
<path d="M29.8573 4.8326
L30.0388 4.8326
" />
<path d="M30.0388 4.8326
L30.1597 4.8931
" />
<path d="M30.4621 5.8002
L31.4297 5.8002
" />
<path d="M31.6716 4.5302
L31.7321 4.4697
" />
<path d="M31.7321 4.4697
L31.8530 4.4093
" />
<path d="M31.8530 4.4093
L32.1554 4.4093
" />
<path d="M32.1554 4.4093
L32.2764 4.4697
" />
<path d="M32.2764 4.4697
L32.3368 4.5302
" />
<path d="M32.3368 4.5302
L32.3973 4.6512
" />
<path d="M32.3973 4.6512
L32.3973 4.7721
" />
<path d="M32.3973 4.7721
L32.3368 4.9536
" />
<path d="M32.3368 4.9536
L31.6111 5.6793
" />
<path d="M31.6111 5.6793
L32.3973 5.6793
" />
<path d="M32.9416 5.5583
L33.0021 5.6188
" />
<path d="M33.0021 5.6188
L32.9416 5.6793
" />
<path d="M32.9416 5.6793
L32.8811 5.6188
" />
<path d="M32.8811 5.6188
L32.9416 5.5583
" />
<path d="M32.9416 5.5583
L32.9416 5.6793
" />
<path d="M33.4254 4.4093
L34.2721 4.4093
" />
<path d="M34.2721 4.4093
L33.7278 5.6793
" />
<path d="M35.3607 4.4093
L34.7559 4.4093
" />
<path d="M34.7559 4.4093
L34.6954 5.0140
" />
<path d="M34.6954 5.0140
L34.7559 4.9536
" />
<path d="M34.7559 4.9536
L34.8768 4.8931
" />
<path d="M34.8768 4.8931
L35.1792 4.8931
" />
<path d="M35.1792 4.8931
L35.3002 4.9536
" />
<path d="M35.3002 4.9536
L35.3607 5.0140
" />
<path d="M35.3607 5.0140
L35.4211 5.1350
" />
<path d="M35.4211 5.1350
L35.4211 5.4374
" />
<path d="M35.4211 5.4374
L35.3607 5.5583
" />
<path d="M35.3607 5.5583
L35.3002 5.6188
" />
<path d="M35.3002 5.6188
L35.1792 5.6793
" />
<path d="M35.1792 5.6793
L34.8768 5.6793
" />
<path d="M34.8768 5.6793
L34.7559 5.6188
" />
<path d="M34.7559 5.6188
L34.6954 5.5583
" />
<path d="M36.5097 4.8326
L36.5097 5.6793
" />
<path d="M35.9654 4.8326
L35.9654 5.4978
" />
<path d="M35.9654 5.4978
L36.0259 5.6188
" />
<path d="M36.0259 5.6188
L36.1468 5.6793
" />
<path d="M36.1468 5.6793
L36.3283 5.6793
" />
<path d="M36.3283 5.6793
L36.4492 5.6188
" />
<path d="M36.4492 5.6188
L36.5097 5.5583
" />
</g></g>
<g style="fill:none; 
stroke:#AFAFAF; stroke-width:0.1500; stroke-opacity:1; 
stroke-linecap:round; stroke-linejoin:round;">
<text x="26.2687" y="10.1000"
textLength="4.5357" font-size="1.3333" lengthAdjust="spacingAndGlyphs"
text-anchor="middle" opacity="0">REF**</text>
<g class="stroked-text"><desc>REF**</desc>
<path d="M24.9354 10.0548
L24.6021 9.5786
" />
<path d="M24.3640 10.0548
L24.3640 9.0548
" />
<path d="M24.3640 9.0548
L24.7449 9.0548
" />
<path d="M24.7449 9.0548
L24.8402 9.1024
" />
<path d="M24.8402 9.1024
L24.8878 9.1501
" />
<path d="M24.8878 9.1501
L24.9354 9.2453
" />
<path d="M24.9354 9.2453
L24.9354 9.3882
" />
<path d="M24.9354 9.3882
L24.8878 9.4834
" />
<path d="M24.8878 9.4834
L24.8402 9.5310
" />
<path d="M24.8402 9.5310
L24.7449 9.5786
" />
<path d="M24.7449 9.5786
L24.3640 9.5786
" />
<path d="M25.3640 9.5310
L25.6973 9.5310
" />
<path d="M25.8402 10.0548
L25.3640 10.0548
" />
<path d="M25.3640 10.0548
L25.3640 9.0548
" />
<path d="M25.3640 9.0548
L25.8402 9.0548
" />
<path d="M26.6021 9.5310
L26.2688 9.5310
" />
<path d="M26.2688 10.0548
L26.2688 9.0548
" />
<path d="M26.2688 9.0548
L26.7449 9.0548
" />
<path d="M27.2688 9.0548
L27.2688 9.2929
" />
<path d="M27.0307 9.1977
L27.2688 9.2929
" />
<path d="M27.2688 9.2929
L27.5068 9.1977
" />
<path d="M27.1259 9.4834
L27.2688 9.2929
" />
<path d="M27.2688 9.2929
L27.4116 9.4834
" />
<path d="M28.0307 9.0548
L28.0307 9.2929
" />
<path d="M27.7926 9.1977
L28.0307 9.2929
" />
<path d="M28.0307 9.2929
L28.2688 9.1977
" />
<path d="M27.8878 9.4834
L28.0307 9.2929
" />
<path d="M28.0307 9.2929
L28.1735 9.4834
" />
</g></g>
<g style="fill:none; 
stroke:#AFAFAF; stroke-width:0.1000; stroke-opacity:1; 
stroke-linecap:round; stroke-linejoin:round;">
<path d="M17.6687 2.6000
L34.8687 2.6000
" />
<path d="M17.6687 16.6000
L17.6687 2.6000
" />
<path d="M34.8687 2.6000
L34.8687 16.6000
" />
<path d="M34.8687 16.6000
L17.6687 16.6000
" />
</g>
<g style="fill:none; 
stroke:#C2C2C2; stroke-width:0.1500; stroke-opacity:1; 
stroke-linecap:round; stroke-linejoin:round;">
<path d="M0.0750 0.0750
L52.4625 0.0750
" />
<path d="M0.0750 19.1250
L0.0750 0.0750
" />
<path d="M52.4625 0.0750
L52.4625 19.1250
" />
<path d="M52.4625 19.1250
L0.0750 19.1250
" />
</g> 
</svg>
