<?xml version="1.0" standalone="no"?>
 <!DOCTYPE svg PUBLIC "-//W3C//DTD SVG 1.1//EN" 
 "http://www.w3.org/Graphics/SVG/1.1/DTD/svg11.dtd"> 
<svg
  xmlns:svg="http://www.w3.org/2000/svg"
  xmlns="http://www.w3.org/2000/svg"
  xmlns:xlink="http://www.w3.org/1999/xlink"
  version="1.1"
  width="48.8950mm" height="13.4366mm" viewBox="0.0000 0.0000 48.8950 13.4366">
<title>SVG Image created as working-brd.svg date 2024/04/20 10:40:47 </title>
  <desc>Image generated by PCBNEW </desc>
<g style="fill:#000000; fill-opacity:1.0000;stroke:#000000; stroke-opacity:1.0000;
stroke-linecap:round; stroke-linejoin:round;"
 transform="translate(0 0) scale(1 1)">
<path style="fill:#C83434; fill-opacity:1.0000; stroke:none;fill-rule:evenodd;"
d="M 13.6528,11.1750
13.6528,9.8750
16.2528,9.8750
16.2528,11.1750
Z" /> 
<path style="fill:#C83434; fill-opacity:1.0000; stroke:none;fill-rule:evenodd;"
d="M 32.6528,11.1750
32.6528,9.8750
35.2528,9.8750
35.2528,11.1750
Z" /> 
<path style="fill:#C83434; fill-opacity:1.0000; stroke:none;fill-rule:evenodd;"
d="M 32.6528,3.5750
32.6528,2.2750
35.2528,2.2750
35.2528,3.5750
Z" /> 
<path style="fill:#C83434; fill-opacity:1.0000; stroke:none;fill-rule:evenodd;"
d="M 13.6528,3.5750
13.6528,2.2750
16.2528,2.2750
16.2528,3.5750
Z" /> 
<path style="fill:#D864FF; fill-opacity:0.4000; stroke:none;fill-rule:evenodd;"
d="M 13.6528,11.1750
13.6528,9.8750
16.2528,9.8750
16.2528,11.1750
Z" /> 
<path style="fill:#D864FF; fill-opacity:0.4000; stroke:none;fill-rule:evenodd;"
d="M 32.6528,11.1750
32.6528,9.8750
35.2528,9.8750
35.2528,11.1750
Z" /> 
<path style="fill:#D864FF; fill-opacity:0.4000; stroke:none;fill-rule:evenodd;"
d="M 32.6528,3.5750
32.6528,2.2750
35.2528,2.2750
35.2528,3.5750
Z" /> 
<path style="fill:#D864FF; fill-opacity:0.4000; stroke:none;fill-rule:evenodd;"
d="M 13.6528,3.5750
13.6528,2.2750
16.2528,2.2750
16.2528,3.5750
Z" /> 
<path style="fill:#B4A09A; fill-opacity:0.9000; stroke:none;fill-rule:evenodd;"
d="M 13.6528,11.1750
13.6528,9.8750
16.2528,9.8750
16.2528,11.1750
Z" /> 
<path style="fill:#B4A09A; fill-opacity:0.9000; stroke:none;fill-rule:evenodd;"
d="M 32.6528,11.1750
32.6528,9.8750
35.2528,9.8750
35.2528,11.1750
Z" /> 
<path style="fill:#B4A09A; fill-opacity:0.9000; stroke:none;fill-rule:evenodd;"
d="M 32.6528,3.5750
32.6528,2.2750
35.2528,2.2750
35.2528,3.5750
Z" /> 
<path style="fill:#B4A09A; fill-opacity:0.9000; stroke:none;fill-rule:evenodd;"
d="M 13.6528,3.5750
13.6528,2.2750
16.2528,2.2750
16.2528,3.5750
Z" /> 
</g>
<g style="fill:none; 
stroke:#F2EDA1; stroke-width:0.1588; stroke-opacity:1; 
stroke-linecap:round; stroke-linejoin:round;">
<text x="24.4528" y="7.3600"
textLength="5.6651" font-size="1.6933" lengthAdjust="spacingAndGlyphs"
text-anchor="middle" opacity="0">REF**</text>
<g class="stroked-text"><desc>REF**</desc>
<path d="M22.7595 7.3043
L22.3361 6.6995
" />
<path d="M22.0337 7.3043
L22.0337 6.0343
" />
<path d="M22.0337 6.0343
L22.5176 6.0343
" />
<path d="M22.5176 6.0343
L22.6385 6.0947
" />
<path d="M22.6385 6.0947
L22.6990 6.1552
" />
<path d="M22.6990 6.1552
L22.7595 6.2762
" />
<path d="M22.7595 6.2762
L22.7595 6.4576
" />
<path d="M22.7595 6.4576
L22.6990 6.5786
" />
<path d="M22.6990 6.5786
L22.6385 6.6390
" />
<path d="M22.6385 6.6390
L22.5176 6.6995
" />
<path d="M22.5176 6.6995
L22.0337 6.6995
" />
<path d="M23.3037 6.6390
L23.7271 6.6390
" />
<path d="M23.9085 7.3043
L23.3037 7.3043
" />
<path d="M23.3037 7.3043
L23.3037 6.0343
" />
<path d="M23.3037 6.0343
L23.9085 6.0343
" />
<path d="M24.8761 6.6390
L24.4528 6.6390
" />
<path d="M24.4528 7.3043
L24.4528 6.0343
" />
<path d="M24.4528 6.0343
L25.0576 6.0343
" />
<path d="M25.7228 6.0343
L25.7228 6.3367
" />
<path d="M25.4204 6.2157
L25.7228 6.3367
" />
<path d="M25.7228 6.3367
L26.0252 6.2157
" />
<path d="M25.5414 6.5786
L25.7228 6.3367
" />
<path d="M25.7228 6.3367
L25.9042 6.5786
" />
<path d="M26.6904 6.0343
L26.6904 6.3367
" />
<path d="M26.3880 6.2157
L26.6904 6.3367
" />
<path d="M26.6904 6.3367
L26.9928 6.2157
" />
<path d="M26.5090 6.5786
L26.6904 6.3367
" />
<path d="M26.6904 6.3367
L26.8718 6.5786
" />
</g></g>
<g style="fill:none; 
stroke:#F2EDA1; stroke-width:0.1200; stroke-opacity:1; 
stroke-linecap:round; stroke-linejoin:round;">
<path d="M13.4528 9.6750
L14.3028 9.6750
" />
<path d="M13.4528 11.3750
L14.3028 11.3750
" />
<path d="M14.3028 0.0750
L34.6028 0.0750
" />
<path d="M14.3028 2.0750
L14.3028 0.0750
" />
<path d="M14.3028 9.6750
L14.3028 3.7750
" />
<path d="M14.3028 11.3750
L14.3028 13.3750
" />
<path d="M14.3028 13.3750
L34.6028 13.3750
" />
<path d="M34.6028 0.0750
L34.6028 2.0750
" />
<path d="M34.6028 3.7750
L34.6028 9.6750
" />
<path d="M34.6028 13.3750
L34.6028 11.3750
" />
</g>
<g style="fill:none; 
stroke:#840084; stroke-width:0.4667; stroke-opacity:1; 
stroke-linecap:round; stroke-linejoin:round;">
<circle cx="24.4528" cy="6.7250" r="0.4667" /> 
</g>
<g style="fill:none; 
stroke:#840084; stroke-width:0.3333; stroke-opacity:1; 
stroke-linecap:round; stroke-linejoin:round;">
<circle cx="24.4528" cy="6.7250" r="0.5333" /> 
<circle cx="24.4528" cy="6.7250" r="0.8333" /> 
</g>
<g style="fill:none; 
stroke:#840084; stroke-width:0.1000; stroke-opacity:1; 
stroke-linecap:round; stroke-linejoin:round;">
<circle cx="24.4528" cy="6.7250" r="1.0000" /> 
</g>
<g style="fill:none; 
stroke:#FF26E2; stroke-width:0.0500; stroke-opacity:1; 
stroke-linecap:round; stroke-linejoin:round;">
<path d="M13.3528 0.0250
L13.3528 13.4250
" />
<path d="M13.3528 13.4250
L35.5528 13.4250
" />
<path d="M35.5528 0.0250
L13.3528 0.0250
" />
<path d="M35.5528 13.4250
L35.5528 0.0250
" />
</g>
<g style="fill:none; 
stroke:#AFAFAF; stroke-width:0.1588; stroke-opacity:1; 
stroke-linecap:round; stroke-linejoin:round;">
<text x="24.4528" y="7.3600"
textLength="48.9056" font-size="1.6933" lengthAdjust="spacingAndGlyphs"
text-anchor="middle" opacity="0">Oscillator_SMD_Fordahl_DFAS7-4Pin_19.9x12.9mm</text>
<g class="stroked-text"><desc>Oscillator_SMD_Fordahl_DFAS7-4Pin_19.9x12.9mm</desc>
<path d="M0.6554 6.0343
L0.8973 6.0343
" />
<path d="M0.8973 6.0343
L1.0183 6.0947
" />
<path d="M1.0183 6.0947
L1.1392 6.2157
" />
<path d="M1.1392 6.2157
L1.1997 6.4576
" />
<path d="M1.1997 6.4576
L1.1997 6.8809
" />
<path d="M1.1997 6.8809
L1.1392 7.1228
" />
<path d="M1.1392 7.1228
L1.0183 7.2438
" />
<path d="M1.0183 7.2438
L0.8973 7.3043
" />
<path d="M0.8973 7.3043
L0.6554 7.3043
" />
<path d="M0.6554 7.3043
L0.5345 7.2438
" />
<path d="M0.5345 7.2438
L0.4135 7.1228
" />
<path d="M0.4135 7.1228
L0.3530 6.8809
" />
<path d="M0.3530 6.8809
L0.3530 6.4576
" />
<path d="M0.3530 6.4576
L0.4135 6.2157
" />
<path d="M0.4135 6.2157
L0.5345 6.0947
" />
<path d="M0.5345 6.0947
L0.6554 6.0343
" />
<path d="M1.6835 7.2438
L1.8045 7.3043
" />
<path d="M1.8045 7.3043
L2.0464 7.3043
" />
<path d="M2.0464 7.3043
L2.1673 7.2438
" />
<path d="M2.1673 7.2438
L2.2278 7.1228
" />
<path d="M2.2278 7.1228
L2.2278 7.0624
" />
<path d="M2.2278 7.0624
L2.1673 6.9414
" />
<path d="M2.1673 6.9414
L2.0464 6.8809
" />
<path d="M2.0464 6.8809
L1.8649 6.8809
" />
<path d="M1.8649 6.8809
L1.7440 6.8205
" />
<path d="M1.7440 6.8205
L1.6835 6.6995
" />
<path d="M1.6835 6.6995
L1.6835 6.6390
" />
<path d="M1.6835 6.6390
L1.7440 6.5181
" />
<path d="M1.7440 6.5181
L1.8649 6.4576
" />
<path d="M1.8649 6.4576
L2.0464 6.4576
" />
<path d="M2.0464 6.4576
L2.1673 6.5181
" />
<path d="M3.3164 7.2438
L3.1954 7.3043
" />
<path d="M3.1954 7.3043
L2.9535 7.3043
" />
<path d="M2.9535 7.3043
L2.8326 7.2438
" />
<path d="M2.8326 7.2438
L2.7721 7.1833
" />
<path d="M2.7721 7.1833
L2.7116 7.0624
" />
<path d="M2.7116 7.0624
L2.7116 6.6995
" />
<path d="M2.7116 6.6995
L2.7721 6.5786
" />
<path d="M2.7721 6.5786
L2.8326 6.5181
" />
<path d="M2.8326 6.5181
L2.9535 6.4576
" />
<path d="M2.9535 6.4576
L3.1954 6.4576
" />
<path d="M3.1954 6.4576
L3.3164 6.5181
" />
<path d="M3.8606 7.3043
L3.8606 6.4576
" />
<path d="M3.8606 6.0343
L3.8002 6.0947
" />
<path d="M3.8002 6.0947
L3.8606 6.1552
" />
<path d="M3.8606 6.1552
L3.9211 6.0947
" />
<path d="M3.9211 6.0947
L3.8606 6.0343
" />
<path d="M3.8606 6.0343
L3.8606 6.1552
" />
<path d="M4.6468 7.3043
L4.5259 7.2438
" />
<path d="M4.5259 7.2438
L4.4654 7.1228
" />
<path d="M4.4654 7.1228
L4.4654 6.0343
" />
<path d="M5.3121 7.3043
L5.1911 7.2438
" />
<path d="M5.1911 7.2438
L5.1306 7.1228
" />
<path d="M5.1306 7.1228
L5.1306 6.0343
" />
<path d="M6.3402 7.3043
L6.3402 6.6390
" />
<path d="M6.3402 6.6390
L6.2797 6.5181
" />
<path d="M6.2797 6.5181
L6.1587 6.4576
" />
<path d="M6.1587 6.4576
L5.9168 6.4576
" />
<path d="M5.9168 6.4576
L5.7959 6.5181
" />
<path d="M6.3402 7.2438
L6.2192 7.3043
" />
<path d="M6.2192 7.3043
L5.9168 7.3043
" />
<path d="M5.9168 7.3043
L5.7959 7.2438
" />
<path d="M5.7959 7.2438
L5.7354 7.1228
" />
<path d="M5.7354 7.1228
L5.7354 7.0019
" />
<path d="M5.7354 7.0019
L5.7959 6.8809
" />
<path d="M5.7959 6.8809
L5.9168 6.8205
" />
<path d="M5.9168 6.8205
L6.2192 6.8205
" />
<path d="M6.2192 6.8205
L6.3402 6.7600
" />
<path d="M6.7635 6.4576
L7.2473 6.4576
" />
<path d="M6.9449 6.0343
L6.9449 7.1228
" />
<path d="M6.9449 7.1228
L7.0054 7.2438
" />
<path d="M7.0054 7.2438
L7.1264 7.3043
" />
<path d="M7.1264 7.3043
L7.2473 7.3043
" />
<path d="M7.8521 7.3043
L7.7311 7.2438
" />
<path d="M7.7311 7.2438
L7.6706 7.1833
" />
<path d="M7.6706 7.1833
L7.6102 7.0624
" />
<path d="M7.6102 7.0624
L7.6102 6.6995
" />
<path d="M7.6102 6.6995
L7.6706 6.5786
" />
<path d="M7.6706 6.5786
L7.7311 6.5181
" />
<path d="M7.7311 6.5181
L7.8521 6.4576
" />
<path d="M7.8521 6.4576
L8.0335 6.4576
" />
<path d="M8.0335 6.4576
L8.1545 6.5181
" />
<path d="M8.1545 6.5181
L8.2149 6.5786
" />
<path d="M8.2149 6.5786
L8.2754 6.6995
" />
<path d="M8.2754 6.6995
L8.2754 7.0624
" />
<path d="M8.2754 7.0624
L8.2149 7.1833
" />
<path d="M8.2149 7.1833
L8.1545 7.2438
" />
<path d="M8.1545 7.2438
L8.0335 7.3043
" />
<path d="M8.0335 7.3043
L7.8521 7.3043
" />
<path d="M8.8197 7.3043
L8.8197 6.4576
" />
<path d="M8.8197 6.6995
L8.8802 6.5786
" />
<path d="M8.8802 6.5786
L8.9406 6.5181
" />
<path d="M8.9406 6.5181
L9.0616 6.4576
" />
<path d="M9.0616 6.4576
L9.1826 6.4576
" />
<path d="M9.3035 7.4252
L10.2711 7.4252
" />
<path d="M10.5130 7.2438
L10.6945 7.3043
" />
<path d="M10.6945 7.3043
L10.9968 7.3043
" />
<path d="M10.9968 7.3043
L11.1178 7.2438
" />
<path d="M11.1178 7.2438
L11.1783 7.1833
" />
<path d="M11.1783 7.1833
L11.2387 7.0624
" />
<path d="M11.2387 7.0624
L11.2387 6.9414
" />
<path d="M11.2387 6.9414
L11.1783 6.8205
" />
<path d="M11.1783 6.8205
L11.1178 6.7600
" />
<path d="M11.1178 6.7600
L10.9968 6.6995
" />
<path d="M10.9968 6.6995
L10.7549 6.6390
" />
<path d="M10.7549 6.6390
L10.6340 6.5786
" />
<path d="M10.6340 6.5786
L10.5735 6.5181
" />
<path d="M10.5735 6.5181
L10.5130 6.3971
" />
<path d="M10.5130 6.3971
L10.5130 6.2762
" />
<path d="M10.5130 6.2762
L10.5735 6.1552
" />
<path d="M10.5735 6.1552
L10.6340 6.0947
" />
<path d="M10.6340 6.0947
L10.7549 6.0343
" />
<path d="M10.7549 6.0343
L11.0573 6.0343
" />
<path d="M11.0573 6.0343
L11.2387 6.0947
" />
<path d="M11.7830 7.3043
L11.7830 6.0343
" />
<path d="M11.7830 6.0343
L12.2064 6.9414
" />
<path d="M12.2064 6.9414
L12.6297 6.0343
" />
<path d="M12.6297 6.0343
L12.6297 7.3043
" />
<path d="M13.2345 7.3043
L13.2345 6.0343
" />
<path d="M13.2345 6.0343
L13.5368 6.0343
" />
<path d="M13.5368 6.0343
L13.7183 6.0947
" />
<path d="M13.7183 6.0947
L13.8392 6.2157
" />
<path d="M13.8392 6.2157
L13.8997 6.3367
" />
<path d="M13.8997 6.3367
L13.9602 6.5786
" />
<path d="M13.9602 6.5786
L13.9602 6.7600
" />
<path d="M13.9602 6.7600
L13.8997 7.0019
" />
<path d="M13.8997 7.0019
L13.8392 7.1228
" />
<path d="M13.8392 7.1228
L13.7183 7.2438
" />
<path d="M13.7183 7.2438
L13.5368 7.3043
" />
<path d="M13.5368 7.3043
L13.2345 7.3043
" />
<path d="M14.2021 7.4252
L15.1697 7.4252
" />
<path d="M15.8954 6.6390
L15.4721 6.6390
" />
<path d="M15.4721 7.3043
L15.4721 6.0343
" />
<path d="M15.4721 6.0343
L16.0768 6.0343
" />
<path d="M16.7421 7.3043
L16.6211 7.2438
" />
<path d="M16.6211 7.2438
L16.5606 7.1833
" />
<path d="M16.5606 7.1833
L16.5002 7.0624
" />
<path d="M16.5002 7.0624
L16.5002 6.6995
" />
<path d="M16.5002 6.6995
L16.5606 6.5786
" />
<path d="M16.5606 6.5786
L16.6211 6.5181
" />
<path d="M16.6211 6.5181
L16.7421 6.4576
" />
<path d="M16.7421 6.4576
L16.9235 6.4576
" />
<path d="M16.9235 6.4576
L17.0445 6.5181
" />
<path d="M17.0445 6.5181
L17.1049 6.5786
" />
<path d="M17.1049 6.5786
L17.1654 6.6995
" />
<path d="M17.1654 6.6995
L17.1654 7.0624
" />
<path d="M17.1654 7.0624
L17.1049 7.1833
" />
<path d="M17.1049 7.1833
L17.0445 7.2438
" />
<path d="M17.0445 7.2438
L16.9235 7.3043
" />
<path d="M16.9235 7.3043
L16.7421 7.3043
" />
<path d="M17.7097 7.3043
L17.7097 6.4576
" />
<path d="M17.7097 6.6995
L17.7702 6.5786
" />
<path d="M17.7702 6.5786
L17.8306 6.5181
" />
<path d="M17.8306 6.5181
L17.9516 6.4576
" />
<path d="M17.9516 6.4576
L18.0726 6.4576
" />
<path d="M19.0402 7.3043
L19.0402 6.0343
" />
<path d="M19.0402 7.2438
L18.9192 7.3043
" />
<path d="M18.9192 7.3043
L18.6773 7.3043
" />
<path d="M18.6773 7.3043
L18.5564 7.2438
" />
<path d="M18.5564 7.2438
L18.4959 7.1833
" />
<path d="M18.4959 7.1833
L18.4354 7.0624
" />
<path d="M18.4354 7.0624
L18.4354 6.6995
" />
<path d="M18.4354 6.6995
L18.4959 6.5786
" />
<path d="M18.4959 6.5786
L18.5564 6.5181
" />
<path d="M18.5564 6.5181
L18.6773 6.4576
" />
<path d="M18.6773 6.4576
L18.9192 6.4576
" />
<path d="M18.9192 6.4576
L19.0402 6.5181
" />
<path d="M20.1892 7.3043
L20.1892 6.6390
" />
<path d="M20.1892 6.6390
L20.1287 6.5181
" />
<path d="M20.1287 6.5181
L20.0078 6.4576
" />
<path d="M20.0078 6.4576
L19.7659 6.4576
" />
<path d="M19.7659 6.4576
L19.6449 6.5181
" />
<path d="M20.1892 7.2438
L20.0683 7.3043
" />
<path d="M20.0683 7.3043
L19.7659 7.3043
" />
<path d="M19.7659 7.3043
L19.6449 7.2438
" />
<path d="M19.6449 7.2438
L19.5845 7.1228
" />
<path d="M19.5845 7.1228
L19.5845 7.0019
" />
<path d="M19.5845 7.0019
L19.6449 6.8809
" />
<path d="M19.6449 6.8809
L19.7659 6.8205
" />
<path d="M19.7659 6.8205
L20.0683 6.8205
" />
<path d="M20.0683 6.8205
L20.1892 6.7600
" />
<path d="M20.7940 7.3043
L20.7940 6.0343
" />
<path d="M21.3383 7.3043
L21.3383 6.6390
" />
<path d="M21.3383 6.6390
L21.2778 6.5181
" />
<path d="M21.2778 6.5181
L21.1568 6.4576
" />
<path d="M21.1568 6.4576
L20.9754 6.4576
" />
<path d="M20.9754 6.4576
L20.8545 6.5181
" />
<path d="M20.8545 6.5181
L20.7940 6.5786
" />
<path d="M22.1245 7.3043
L22.0035 7.2438
" />
<path d="M22.0035 7.2438
L21.9430 7.1228
" />
<path d="M21.9430 7.1228
L21.9430 6.0343
" />
<path d="M22.3059 7.4252
L23.2735 7.4252
" />
<path d="M23.5759 7.3043
L23.5759 6.0343
" />
<path d="M23.5759 6.0343
L23.8783 6.0343
" />
<path d="M23.8783 6.0343
L24.0597 6.0947
" />
<path d="M24.0597 6.0947
L24.1806 6.2157
" />
<path d="M24.1806 6.2157
L24.2411 6.3367
" />
<path d="M24.2411 6.3367
L24.3016 6.5786
" />
<path d="M24.3016 6.5786
L24.3016 6.7600
" />
<path d="M24.3016 6.7600
L24.2411 7.0019
" />
<path d="M24.2411 7.0019
L24.1806 7.1228
" />
<path d="M24.1806 7.1228
L24.0597 7.2438
" />
<path d="M24.0597 7.2438
L23.8783 7.3043
" />
<path d="M23.8783 7.3043
L23.5759 7.3043
" />
<path d="M25.2692 6.6390
L24.8459 6.6390
" />
<path d="M24.8459 7.3043
L24.8459 6.0343
" />
<path d="M24.8459 6.0343
L25.4506 6.0343
" />
<path d="M25.8740 6.9414
L26.4787 6.9414
" />
<path d="M25.7530 7.3043
L26.1764 6.0343
" />
<path d="M26.1764 6.0343
L26.5997 7.3043
" />
<path d="M26.9626 7.2438
L27.1440 7.3043
" />
<path d="M27.1440 7.3043
L27.4464 7.3043
" />
<path d="M27.4464 7.3043
L27.5673 7.2438
" />
<path d="M27.5673 7.2438
L27.6278 7.1833
" />
<path d="M27.6278 7.1833
L27.6883 7.0624
" />
<path d="M27.6883 7.0624
L27.6883 6.9414
" />
<path d="M27.6883 6.9414
L27.6278 6.8205
" />
<path d="M27.6278 6.8205
L27.5673 6.7600
" />
<path d="M27.5673 6.7600
L27.4464 6.6995
" />
<path d="M27.4464 6.6995
L27.2045 6.6390
" />
<path d="M27.2045 6.6390
L27.0835 6.5786
" />
<path d="M27.0835 6.5786
L27.0230 6.5181
" />
<path d="M27.0230 6.5181
L26.9626 6.3971
" />
<path d="M26.9626 6.3971
L26.9626 6.2762
" />
<path d="M26.9626 6.2762
L27.0230 6.1552
" />
<path d="M27.0230 6.1552
L27.0835 6.0947
" />
<path d="M27.0835 6.0947
L27.2045 6.0343
" />
<path d="M27.2045 6.0343
L27.5068 6.0343
" />
<path d="M27.5068 6.0343
L27.6883 6.0947
" />
<path d="M28.1116 6.0343
L28.9583 6.0343
" />
<path d="M28.9583 6.0343
L28.4140 7.3043
" />
<path d="M29.4421 6.8205
L30.4097 6.8205
" />
<path d="M31.5587 6.4576
L31.5587 7.3043
" />
<path d="M31.2564 5.9738
L30.9540 6.8809
" />
<path d="M30.9540 6.8809
L31.7402 6.8809
" />
<path d="M32.2240 7.3043
L32.2240 6.0343
" />
<path d="M32.2240 6.0343
L32.7078 6.0343
" />
<path d="M32.7078 6.0343
L32.8287 6.0947
" />
<path d="M32.8287 6.0947
L32.8892 6.1552
" />
<path d="M32.8892 6.1552
L32.9497 6.2762
" />
<path d="M32.9497 6.2762
L32.9497 6.4576
" />
<path d="M32.9497 6.4576
L32.8892 6.5786
" />
<path d="M32.8892 6.5786
L32.8287 6.6390
" />
<path d="M32.8287 6.6390
L32.7078 6.6995
" />
<path d="M32.7078 6.6995
L32.2240 6.6995
" />
<path d="M33.4940 7.3043
L33.4940 6.4576
" />
<path d="M33.4940 6.0343
L33.4335 6.0947
" />
<path d="M33.4335 6.0947
L33.4940 6.1552
" />
<path d="M33.4940 6.1552
L33.5545 6.0947
" />
<path d="M33.5545 6.0947
L33.4940 6.0343
" />
<path d="M33.4940 6.0343
L33.4940 6.1552
" />
<path d="M34.0987 6.4576
L34.0987 7.3043
" />
<path d="M34.0987 6.5786
L34.1592 6.5181
" />
<path d="M34.1592 6.5181
L34.2802 6.4576
" />
<path d="M34.2802 6.4576
L34.4616 6.4576
" />
<path d="M34.4616 6.4576
L34.5826 6.5181
" />
<path d="M34.5826 6.5181
L34.6430 6.6390
" />
<path d="M34.6430 6.6390
L34.6430 7.3043
" />
<path d="M34.9454 7.4252
L35.9130 7.4252
" />
<path d="M36.8806 7.3043
L36.1549 7.3043
" />
<path d="M36.5178 7.3043
L36.5178 6.0343
" />
<path d="M36.5178 6.0343
L36.3968 6.2157
" />
<path d="M36.3968 6.2157
L36.2759 6.3367
" />
<path d="M36.2759 6.3367
L36.1549 6.3971
" />
<path d="M37.4854 7.3043
L37.7273 7.3043
" />
<path d="M37.7273 7.3043
L37.8483 7.2438
" />
<path d="M37.8483 7.2438
L37.9087 7.1833
" />
<path d="M37.9087 7.1833
L38.0297 7.0019
" />
<path d="M38.0297 7.0019
L38.0902 6.7600
" />
<path d="M38.0902 6.7600
L38.0902 6.2762
" />
<path d="M38.0902 6.2762
L38.0297 6.1552
" />
<path d="M38.0297 6.1552
L37.9692 6.0947
" />
<path d="M37.9692 6.0947
L37.8483 6.0343
" />
<path d="M37.8483 6.0343
L37.6064 6.0343
" />
<path d="M37.6064 6.0343
L37.4854 6.0947
" />
<path d="M37.4854 6.0947
L37.4249 6.1552
" />
<path d="M37.4249 6.1552
L37.3645 6.2762
" />
<path d="M37.3645 6.2762
L37.3645 6.5786
" />
<path d="M37.3645 6.5786
L37.4249 6.6995
" />
<path d="M37.4249 6.6995
L37.4854 6.7600
" />
<path d="M37.4854 6.7600
L37.6064 6.8205
" />
<path d="M37.6064 6.8205
L37.8483 6.8205
" />
<path d="M37.8483 6.8205
L37.9692 6.7600
" />
<path d="M37.9692 6.7600
L38.0297 6.6995
" />
<path d="M38.0297 6.6995
L38.0902 6.5786
" />
<path d="M38.6345 7.1833
L38.6949 7.2438
" />
<path d="M38.6949 7.2438
L38.6345 7.3043
" />
<path d="M38.6345 7.3043
L38.5740 7.2438
" />
<path d="M38.5740 7.2438
L38.6345 7.1833
" />
<path d="M38.6345 7.1833
L38.6345 7.3043
" />
<path d="M39.2997 7.3043
L39.5416 7.3043
" />
<path d="M39.5416 7.3043
L39.6626 7.2438
" />
<path d="M39.6626 7.2438
L39.7230 7.1833
" />
<path d="M39.7230 7.1833
L39.8440 7.0019
" />
<path d="M39.8440 7.0019
L39.9045 6.7600
" />
<path d="M39.9045 6.7600
L39.9045 6.2762
" />
<path d="M39.9045 6.2762
L39.8440 6.1552
" />
<path d="M39.8440 6.1552
L39.7835 6.0947
" />
<path d="M39.7835 6.0947
L39.6626 6.0343
" />
<path d="M39.6626 6.0343
L39.4206 6.0343
" />
<path d="M39.4206 6.0343
L39.2997 6.0947
" />
<path d="M39.2997 6.0947
L39.2392 6.1552
" />
<path d="M39.2392 6.1552
L39.1787 6.2762
" />
<path d="M39.1787 6.2762
L39.1787 6.5786
" />
<path d="M39.1787 6.5786
L39.2392 6.6995
" />
<path d="M39.2392 6.6995
L39.2997 6.7600
" />
<path d="M39.2997 6.7600
L39.4206 6.8205
" />
<path d="M39.4206 6.8205
L39.6626 6.8205
" />
<path d="M39.6626 6.8205
L39.7835 6.7600
" />
<path d="M39.7835 6.7600
L39.8440 6.6995
" />
<path d="M39.8440 6.6995
L39.9045 6.5786
" />
<path d="M40.3278 7.3043
L40.9930 6.4576
" />
<path d="M40.3278 6.4576
L40.9930 7.3043
" />
<path d="M42.1421 7.3043
L41.4164 7.3043
" />
<path d="M41.7792 7.3043
L41.7792 6.0343
" />
<path d="M41.7792 6.0343
L41.6583 6.2157
" />
<path d="M41.6583 6.2157
L41.5373 6.3367
" />
<path d="M41.5373 6.3367
L41.4164 6.3971
" />
<path d="M42.6259 6.1552
L42.6864 6.0947
" />
<path d="M42.6864 6.0947
L42.8073 6.0343
" />
<path d="M42.8073 6.0343
L43.1097 6.0343
" />
<path d="M43.1097 6.0343
L43.2306 6.0947
" />
<path d="M43.2306 6.0947
L43.2911 6.1552
" />
<path d="M43.2911 6.1552
L43.3516 6.2762
" />
<path d="M43.3516 6.2762
L43.3516 6.3971
" />
<path d="M43.3516 6.3971
L43.2911 6.5786
" />
<path d="M43.2911 6.5786
L42.5654 7.3043
" />
<path d="M42.5654 7.3043
L43.3516 7.3043
" />
<path d="M43.8959 7.1833
L43.9564 7.2438
" />
<path d="M43.9564 7.2438
L43.8959 7.3043
" />
<path d="M43.8959 7.3043
L43.8354 7.2438
" />
<path d="M43.8354 7.2438
L43.8959 7.1833
" />
<path d="M43.8959 7.1833
L43.8959 7.3043
" />
<path d="M44.5611 7.3043
L44.8030 7.3043
" />
<path d="M44.8030 7.3043
L44.9240 7.2438
" />
<path d="M44.9240 7.2438
L44.9845 7.1833
" />
<path d="M44.9845 7.1833
L45.1054 7.0019
" />
<path d="M45.1054 7.0019
L45.1659 6.7600
" />
<path d="M45.1659 6.7600
L45.1659 6.2762
" />
<path d="M45.1659 6.2762
L45.1054 6.1552
" />
<path d="M45.1054 6.1552
L45.0449 6.0947
" />
<path d="M45.0449 6.0947
L44.9240 6.0343
" />
<path d="M44.9240 6.0343
L44.6821 6.0343
" />
<path d="M44.6821 6.0343
L44.5611 6.0947
" />
<path d="M44.5611 6.0947
L44.5006 6.1552
" />
<path d="M44.5006 6.1552
L44.4402 6.2762
" />
<path d="M44.4402 6.2762
L44.4402 6.5786
" />
<path d="M44.4402 6.5786
L44.5006 6.6995
" />
<path d="M44.5006 6.6995
L44.5611 6.7600
" />
<path d="M44.5611 6.7600
L44.6821 6.8205
" />
<path d="M44.6821 6.8205
L44.9240 6.8205
" />
<path d="M44.9240 6.8205
L45.0449 6.7600
" />
<path d="M45.0449 6.7600
L45.1054 6.6995
" />
<path d="M45.1054 6.6995
L45.1659 6.5786
" />
<path d="M45.7102 7.3043
L45.7102 6.4576
" />
<path d="M45.7102 6.5786
L45.7706 6.5181
" />
<path d="M45.7706 6.5181
L45.8916 6.4576
" />
<path d="M45.8916 6.4576
L46.0730 6.4576
" />
<path d="M46.0730 6.4576
L46.1940 6.5181
" />
<path d="M46.1940 6.5181
L46.2545 6.6390
" />
<path d="M46.2545 6.6390
L46.2545 7.3043
" />
<path d="M46.2545 6.6390
L46.3149 6.5181
" />
<path d="M46.3149 6.5181
L46.4359 6.4576
" />
<path d="M46.4359 6.4576
L46.6173 6.4576
" />
<path d="M46.6173 6.4576
L46.7383 6.5181
" />
<path d="M46.7383 6.5181
L46.7987 6.6390
" />
<path d="M46.7987 6.6390
L46.7987 7.3043
" />
<path d="M47.4035 7.3043
L47.4035 6.4576
" />
<path d="M47.4035 6.5786
L47.4640 6.5181
" />
<path d="M47.4640 6.5181
L47.5849 6.4576
" />
<path d="M47.5849 6.4576
L47.7664 6.4576
" />
<path d="M47.7664 6.4576
L47.8873 6.5181
" />
<path d="M47.8873 6.5181
L47.9478 6.6390
" />
<path d="M47.9478 6.6390
L47.9478 7.3043
" />
<path d="M47.9478 6.6390
L48.0083 6.5181
" />
<path d="M48.0083 6.5181
L48.1292 6.4576
" />
<path d="M48.1292 6.4576
L48.3106 6.4576
" />
<path d="M48.3106 6.4576
L48.4316 6.5181
" />
<path d="M48.4316 6.5181
L48.4921 6.6390
" />
<path d="M48.4921 6.6390
L48.4921 7.3043
" />
</g></g>
<g style="fill:none; 
stroke:#AFAFAF; stroke-width:0.1500; stroke-opacity:1; 
stroke-linecap:round; stroke-linejoin:round;">
<text x="24.4528" y="7.2250"
textLength="4.5357" font-size="1.3333" lengthAdjust="spacingAndGlyphs"
text-anchor="middle" opacity="0">REF**</text>
<g class="stroked-text"><desc>REF**</desc>
<path d="M23.1195 7.1798
L22.7861 6.7036
" />
<path d="M22.5480 7.1798
L22.5480 6.1798
" />
<path d="M22.5480 6.1798
L22.9290 6.1798
" />
<path d="M22.9290 6.1798
L23.0242 6.2274
" />
<path d="M23.0242 6.2274
L23.0718 6.2751
" />
<path d="M23.0718 6.2751
L23.1195 6.3703
" />
<path d="M23.1195 6.3703
L23.1195 6.5132
" />
<path d="M23.1195 6.5132
L23.0718 6.6084
" />
<path d="M23.0718 6.6084
L23.0242 6.6560
" />
<path d="M23.0242 6.6560
L22.9290 6.7036
" />
<path d="M22.9290 6.7036
L22.5480 6.7036
" />
<path d="M23.5480 6.6560
L23.8814 6.6560
" />
<path d="M24.0242 7.1798
L23.5480 7.1798
" />
<path d="M23.5480 7.1798
L23.5480 6.1798
" />
<path d="M23.5480 6.1798
L24.0242 6.1798
" />
<path d="M24.7861 6.6560
L24.4528 6.6560
" />
<path d="M24.4528 7.1798
L24.4528 6.1798
" />
<path d="M24.4528 6.1798
L24.9290 6.1798
" />
<path d="M25.4528 6.1798
L25.4528 6.4179
" />
<path d="M25.2147 6.3227
L25.4528 6.4179
" />
<path d="M25.4528 6.4179
L25.6909 6.3227
" />
<path d="M25.3099 6.6084
L25.4528 6.4179
" />
<path d="M25.4528 6.4179
L25.5956 6.6084
" />
<path d="M26.2147 6.1798
L26.2147 6.4179
" />
<path d="M25.9766 6.3227
L26.2147 6.4179
" />
<path d="M26.2147 6.4179
L26.4528 6.3227
" />
<path d="M26.0718 6.6084
L26.2147 6.4179
" />
<path d="M26.2147 6.4179
L26.3576 6.6084
" />
</g></g>
<g style="fill:none; 
stroke:#AFAFAF; stroke-width:0.1000; stroke-opacity:1; 
stroke-linecap:round; stroke-linejoin:round;">
<path d="M14.5028 2.2750
L16.5028 0.2750
" />
<path d="M14.5028 10.1750
L17.5028 13.1750
" />
<path d="M14.5028 11.1750
L14.5028 2.2750
" />
<path d="M16.5028 0.2750
L32.4028 0.2750
" />
<path d="M16.5028 13.1750
L14.5028 11.1750
" />
<path d="M32.4028 0.2750
L34.4028 2.2750
" />
<path d="M32.4028 13.1750
L16.5028 13.1750
" />
<path d="M34.4028 2.2750
L34.4028 11.1750
" />
<path d="M34.4028 11.1750
L32.4028 13.1750
" />
</g> 
</svg>
