<?xml version="1.0" standalone="no"?>
 <!DOCTYPE svg PUBLIC "-//W3C//DTD SVG 1.1//EN" 
 "http://www.w3.org/Graphics/SVG/1.1/DTD/svg11.dtd"> 
<svg
  xmlns:svg="http://www.w3.org/2000/svg"
  xmlns="http://www.w3.org/2000/svg"
  xmlns:xlink="http://www.w3.org/1999/xlink"
  version="1.1"
  width="51.3588mm" height="18.2372mm" viewBox="0.0000 0.0000 51.3588 18.2372">
<title>SVG Image created as working-brd.svg date 2024/03/26 22:32:35 </title>
  <desc>Image generated by PCBNEW </desc>
<g style="fill:#000000; fill-opacity:1.0000;stroke:#000000; stroke-opacity:1.0000;
stroke-linecap:round; stroke-linejoin:round;"
 transform="translate(0 0) scale(1 1)">
</g>
<g style="fill:#FFFFFF; fill-opacity:1.0000; stroke:none;">
<circle cx="40.5116" cy="4.5650" r="0.7500" /> 
</g>
<g style="fill:#FFFFFF; fill-opacity:1.0000; stroke:none;">
<circle cx="28.1116" cy="2.0250" r="0.7500" /> 
</g>
<g style="fill:#FFFFFF; fill-opacity:1.0000; stroke:none;">
<circle cx="31.2916" cy="3.2950" r="0.7500" /> 
</g>
<g style="fill:#FFFFFF; fill-opacity:1.0000; stroke:none;">
<circle cx="28.1116" cy="14.7250" r="0.7500" /> 
</g>
<g style="fill:#FFFFFF; fill-opacity:1.0000; stroke:none;">
<circle cx="31.2916" cy="15.9950" r="0.7500" /> 
</g>
<g style="fill:#FFFFFF; fill-opacity:1.0000; stroke:none;">
<circle cx="34.4616" cy="2.0250" r="0.7500" /> 
</g>
<g style="fill:#FFFFFF; fill-opacity:1.0000; stroke:none;">
<circle cx="37.6316" cy="3.2950" r="0.7500" /> 
</g>
<g style="fill:#FFFFFF; fill-opacity:1.0000; stroke:none;">
<circle cx="34.4616" cy="14.7250" r="0.7500" /> 
</g>
<g style="fill:#FFFFFF; fill-opacity:1.0000; stroke:none;">
<circle cx="37.6316" cy="15.9950" r="0.7500" /> 
</g>
<g style="fill:#FFFFFF; fill-opacity:1.0000; stroke:none;">
<circle cx="21.7616" cy="2.0250" r="0.7500" /> 
</g>
<g style="fill:#FFFFFF; fill-opacity:1.0000; stroke:none;">
<circle cx="24.9416" cy="3.2950" r="0.7500" /> 
</g>
<g style="fill:#FFFFFF; fill-opacity:1.0000; stroke:none;">
<circle cx="21.7616" cy="14.7250" r="0.7500" /> 
</g>
<g style="fill:#FFFFFF; fill-opacity:1.0000; stroke:none;">
<circle cx="24.9416" cy="15.9950" r="0.7500" /> 
</g>
<g style="fill:#02FFEE; fill-opacity:0.4000; stroke:none;">
<circle cx="40.5116" cy="4.5650" r="1.4500" /> 
</g>
<g style="fill:#02FFEE; fill-opacity:0.4000; stroke:none;">
<circle cx="28.1116" cy="2.0250" r="1.5000" /> 
</g>
<g style="fill:#02FFEE; fill-opacity:0.4000; stroke:none;">
<circle cx="31.2916" cy="3.2950" r="1.5000" /> 
</g>
<g style="fill:#02FFEE; fill-opacity:0.4000; stroke:none;">
<circle cx="28.1116" cy="14.7250" r="1.5000" /> 
</g>
<g style="fill:#02FFEE; fill-opacity:0.4000; stroke:none;">
<circle cx="31.2916" cy="15.9950" r="1.5000" /> 
</g>
<g style="fill:#02FFEE; fill-opacity:0.4000; stroke:none;">
<circle cx="34.4616" cy="2.0250" r="1.5000" /> 
</g>
<g style="fill:#02FFEE; fill-opacity:0.4000; stroke:none;">
<circle cx="37.6316" cy="3.2950" r="1.5000" /> 
</g>
<g style="fill:#02FFEE; fill-opacity:0.4000; stroke:none;">
<circle cx="34.4616" cy="14.7250" r="1.5000" /> 
</g>
<g style="fill:#02FFEE; fill-opacity:0.4000; stroke:none;">
<circle cx="37.6316" cy="15.9950" r="1.5000" /> 
</g>
<g style="fill:#02FFEE; fill-opacity:0.4000; stroke:none;">
<circle cx="21.7616" cy="2.0250" r="1.5000" /> 
</g>
<g style="fill:#02FFEE; fill-opacity:0.4000; stroke:none;">
<circle cx="24.9416" cy="3.2950" r="1.5000" /> 
</g>
<g style="fill:#02FFEE; fill-opacity:0.4000; stroke:none;">
<circle cx="21.7616" cy="14.7250" r="1.5000" /> 
</g>
<g style="fill:#02FFEE; fill-opacity:0.4000; stroke:none;">
<circle cx="24.9416" cy="15.9950" r="1.5000" /> 
</g>
<g style="fill:#FFFFFF; fill-opacity:1.0000; stroke:none;">
<circle cx="40.5116" cy="4.5650" r="0.7500" /> 
</g>
<g style="fill:#FFFFFF; fill-opacity:1.0000; stroke:none;">
<circle cx="28.1116" cy="2.0250" r="0.7500" /> 
</g>
<g style="fill:#FFFFFF; fill-opacity:1.0000; stroke:none;">
<circle cx="31.2916" cy="3.2950" r="0.7500" /> 
</g>
<g style="fill:#FFFFFF; fill-opacity:1.0000; stroke:none;">
<circle cx="28.1116" cy="14.7250" r="0.7500" /> 
</g>
<g style="fill:#FFFFFF; fill-opacity:1.0000; stroke:none;">
<circle cx="31.2916" cy="15.9950" r="0.7500" /> 
</g>
<g style="fill:#FFFFFF; fill-opacity:1.0000; stroke:none;">
<circle cx="34.4616" cy="2.0250" r="0.7500" /> 
</g>
<g style="fill:#FFFFFF; fill-opacity:1.0000; stroke:none;">
<circle cx="37.6316" cy="3.2950" r="0.7500" /> 
</g>
<g style="fill:#FFFFFF; fill-opacity:1.0000; stroke:none;">
<circle cx="34.4616" cy="14.7250" r="0.7500" /> 
</g>
<g style="fill:#FFFFFF; fill-opacity:1.0000; stroke:none;">
<circle cx="37.6316" cy="15.9950" r="0.7500" /> 
</g>
<g style="fill:#FFFFFF; fill-opacity:1.0000; stroke:none;">
<circle cx="21.7616" cy="2.0250" r="0.7500" /> 
</g>
<g style="fill:#FFFFFF; fill-opacity:1.0000; stroke:none;">
<circle cx="24.9416" cy="3.2950" r="0.7500" /> 
</g>
<g style="fill:#FFFFFF; fill-opacity:1.0000; stroke:none;">
<circle cx="21.7616" cy="14.7250" r="0.7500" /> 
</g>
<g style="fill:#FFFFFF; fill-opacity:1.0000; stroke:none;">
<circle cx="24.9416" cy="15.9950" r="0.7500" /> 
</g>
<g style="fill:#FFFFFF; fill-opacity:1.0000; stroke:none;">
<circle cx="40.5116" cy="4.5650" r="0.7500" /> 
</g>
<g style="fill:#FFFFFF; fill-opacity:1.0000; stroke:none;">
<circle cx="28.1116" cy="2.0250" r="0.7500" /> 
</g>
<g style="fill:#FFFFFF; fill-opacity:1.0000; stroke:none;">
<circle cx="31.2916" cy="3.2950" r="0.7500" /> 
</g>
<g style="fill:#FFFFFF; fill-opacity:1.0000; stroke:none;">
<circle cx="28.1116" cy="14.7250" r="0.7500" /> 
</g>
<g style="fill:#FFFFFF; fill-opacity:1.0000; stroke:none;">
<circle cx="31.2916" cy="15.9950" r="0.7500" /> 
</g>
<g style="fill:#FFFFFF; fill-opacity:1.0000; stroke:none;">
<circle cx="34.4616" cy="2.0250" r="0.7500" /> 
</g>
<g style="fill:#FFFFFF; fill-opacity:1.0000; stroke:none;">
<circle cx="37.6316" cy="3.2950" r="0.7500" /> 
</g>
<g style="fill:#FFFFFF; fill-opacity:1.0000; stroke:none;">
<circle cx="34.4616" cy="14.7250" r="0.7500" /> 
</g>
<g style="fill:#FFFFFF; fill-opacity:1.0000; stroke:none;">
<circle cx="37.6316" cy="15.9950" r="0.7500" /> 
</g>
<g style="fill:#FFFFFF; fill-opacity:1.0000; stroke:none;">
<circle cx="21.7616" cy="2.0250" r="0.7500" /> 
</g>
<g style="fill:#FFFFFF; fill-opacity:1.0000; stroke:none;">
<circle cx="24.9416" cy="3.2950" r="0.7500" /> 
</g>
<g style="fill:#FFFFFF; fill-opacity:1.0000; stroke:none;">
<circle cx="21.7616" cy="14.7250" r="0.7500" /> 
</g>
<g style="fill:#FFFFFF; fill-opacity:1.0000; stroke:none;">
<circle cx="24.9416" cy="15.9950" r="0.7500" /> 
</g>
<g style="fill:#D864FF; fill-opacity:0.4000; stroke:none;">
<circle cx="40.5116" cy="4.5650" r="1.4500" /> 
</g>
<g style="fill:#D864FF; fill-opacity:0.4000; stroke:none;">
<circle cx="28.1116" cy="2.0250" r="1.5000" /> 
</g>
<g style="fill:#D864FF; fill-opacity:0.4000; stroke:none;">
<circle cx="31.2916" cy="3.2950" r="1.5000" /> 
</g>
<g style="fill:#D864FF; fill-opacity:0.4000; stroke:none;">
<circle cx="28.1116" cy="14.7250" r="1.5000" /> 
</g>
<g style="fill:#D864FF; fill-opacity:0.4000; stroke:none;">
<circle cx="31.2916" cy="15.9950" r="1.5000" /> 
</g>
<g style="fill:#D864FF; fill-opacity:0.4000; stroke:none;">
<circle cx="34.4616" cy="2.0250" r="1.5000" /> 
</g>
<g style="fill:#D864FF; fill-opacity:0.4000; stroke:none;">
<circle cx="37.6316" cy="3.2950" r="1.5000" /> 
</g>
<g style="fill:#D864FF; fill-opacity:0.4000; stroke:none;">
<circle cx="34.4616" cy="14.7250" r="1.5000" /> 
</g>
<g style="fill:#D864FF; fill-opacity:0.4000; stroke:none;">
<circle cx="37.6316" cy="15.9950" r="1.5000" /> 
</g>
<g style="fill:#D864FF; fill-opacity:0.4000; stroke:none;">
<circle cx="21.7616" cy="2.0250" r="1.5000" /> 
</g>
<g style="fill:#D864FF; fill-opacity:0.4000; stroke:none;">
<circle cx="24.9416" cy="3.2950" r="1.5000" /> 
</g>
<g style="fill:#D864FF; fill-opacity:0.4000; stroke:none;">
<circle cx="21.7616" cy="14.7250" r="1.5000" /> 
</g>
<g style="fill:#D864FF; fill-opacity:0.4000; stroke:none;">
<circle cx="24.9416" cy="15.9950" r="1.5000" /> 
</g>
<g style="fill:none; 
stroke:#F2EDA1; stroke-width:0.1588; stroke-opacity:1; 
stroke-linecap:round; stroke-linejoin:round;">
<text x="21.7616" y="2.6600"
textLength="5.6651" font-size="1.6933" lengthAdjust="spacingAndGlyphs"
text-anchor="middle" opacity="0">REF**</text>
<g class="stroked-text"><desc>REF**</desc>
<path d="M20.0683 2.6043
L19.6449 1.9995
" />
<path d="M19.3426 2.6043
L19.3426 1.3343
" />
<path d="M19.3426 1.3343
L19.8264 1.3343
" />
<path d="M19.8264 1.3343
L19.9473 1.3947
" />
<path d="M19.9473 1.3947
L20.0078 1.4552
" />
<path d="M20.0078 1.4552
L20.0683 1.5762
" />
<path d="M20.0683 1.5762
L20.0683 1.7576
" />
<path d="M20.0683 1.7576
L20.0078 1.8786
" />
<path d="M20.0078 1.8786
L19.9473 1.9390
" />
<path d="M19.9473 1.9390
L19.8264 1.9995
" />
<path d="M19.8264 1.9995
L19.3426 1.9995
" />
<path d="M20.6126 1.9390
L21.0359 1.9390
" />
<path d="M21.2173 2.6043
L20.6126 2.6043
" />
<path d="M20.6126 2.6043
L20.6126 1.3343
" />
<path d="M20.6126 1.3343
L21.2173 1.3343
" />
<path d="M22.1849 1.9390
L21.7616 1.9390
" />
<path d="M21.7616 2.6043
L21.7616 1.3343
" />
<path d="M21.7616 1.3343
L22.3664 1.3343
" />
<path d="M23.0316 1.3343
L23.0316 1.6367
" />
<path d="M22.7292 1.5157
L23.0316 1.6367
" />
<path d="M23.0316 1.6367
L23.3340 1.5157
" />
<path d="M22.8502 1.8786
L23.0316 1.6367
" />
<path d="M23.0316 1.6367
L23.2130 1.8786
" />
<path d="M23.9992 1.3343
L23.9992 1.6367
" />
<path d="M23.6968 1.5157
L23.9992 1.6367
" />
<path d="M23.9992 1.6367
L24.3016 1.5157
" />
<path d="M23.8178 1.8786
L23.9992 1.6367
" />
<path d="M23.9992 1.6367
L24.1806 1.8786
" />
</g></g>
<g style="fill:none; 
stroke:#F2EDA1; stroke-width:0.1200; stroke-opacity:1; 
stroke-linecap:round; stroke-linejoin:round;">
<path d="M17.8216 0.6050
L20.7416 0.6050
" />
<path d="M17.8216 17.8450
L17.8216 0.6050
" />
<path d="M17.8216 17.8450
L42.3616 17.8450
" />
<path d="M22.7416 0.6050
L27.1416 0.6050
" />
<path d="M29.1416 0.6050
L33.4416 0.6050
" />
<path d="M35.4416 0.6050
L42.3616 0.6050
" />
<path d="M42.3616 0.6050
L42.3616 17.8450
" />
<path d="M50.9616 5.9300
L42.3616 5.9300
" />
<path d="M50.9616 15.1200
L42.3616 15.1200
" />
<path d="M50.9616 15.1200
L50.9616 5.9300
" />
</g>
<g style="fill:#FFFFFF; fill-opacity:1.0000; stroke:none;">
<circle cx="40.5116" cy="4.5650" r="0.7500" /> 
</g>
<g style="fill:#FFFFFF; fill-opacity:1.0000; stroke:none;">
<circle cx="28.1116" cy="2.0250" r="0.7500" /> 
</g>
<g style="fill:#FFFFFF; fill-opacity:1.0000; stroke:none;">
<circle cx="31.2916" cy="3.2950" r="0.7500" /> 
</g>
<g style="fill:#FFFFFF; fill-opacity:1.0000; stroke:none;">
<circle cx="28.1116" cy="14.7250" r="0.7500" /> 
</g>
<g style="fill:#FFFFFF; fill-opacity:1.0000; stroke:none;">
<circle cx="31.2916" cy="15.9950" r="0.7500" /> 
</g>
<g style="fill:#FFFFFF; fill-opacity:1.0000; stroke:none;">
<circle cx="34.4616" cy="2.0250" r="0.7500" /> 
</g>
<g style="fill:#FFFFFF; fill-opacity:1.0000; stroke:none;">
<circle cx="37.6316" cy="3.2950" r="0.7500" /> 
</g>
<g style="fill:#FFFFFF; fill-opacity:1.0000; stroke:none;">
<circle cx="34.4616" cy="14.7250" r="0.7500" /> 
</g>
<g style="fill:#FFFFFF; fill-opacity:1.0000; stroke:none;">
<circle cx="37.6316" cy="15.9950" r="0.7500" /> 
</g>
<g style="fill:#FFFFFF; fill-opacity:1.0000; stroke:none;">
<circle cx="21.7616" cy="2.0250" r="0.7500" /> 
</g>
<g style="fill:#FFFFFF; fill-opacity:1.0000; stroke:none;">
<circle cx="24.9416" cy="3.2950" r="0.7500" /> 
</g>
<g style="fill:#FFFFFF; fill-opacity:1.0000; stroke:none;">
<circle cx="21.7616" cy="14.7250" r="0.7500" /> 
</g>
<g style="fill:#FFFFFF; fill-opacity:1.0000; stroke:none;">
<circle cx="24.9416" cy="15.9950" r="0.7500" /> 
</g>
<g style="fill:none; 
stroke:#FF26E2; stroke-width:0.0500; stroke-opacity:1; 
stroke-linecap:round; stroke-linejoin:round;">
<path d="M17.4416 18.2250
L17.4416 0.0250
" />
<path d="M17.4416 18.2250
L51.3416 18.2250
" />
<path d="M51.3416 0.0250
L17.4416 0.0250
" />
<path d="M51.3416 18.2250
L51.3416 0.0250
" />
</g>
<g style="fill:none; 
stroke:#AFAFAF; stroke-width:0.1588; stroke-opacity:1; 
stroke-linecap:round; stroke-linejoin:round;">
<text x="21.7616" y="2.6600"
textLength="43.5232" font-size="1.6933" lengthAdjust="spacingAndGlyphs"
text-anchor="middle" opacity="0">Jack_6.35mm_Neutrik_NSJ12HF-1_Horizontal</text>
<g class="stroked-text"><desc>Jack_6.35mm_Neutrik_NSJ12HF-1_Horizontal</desc>
<path d="M0.7764 1.3343
L0.7764 2.2414
" />
<path d="M0.7764 2.2414
L0.7159 2.4228
" />
<path d="M0.7159 2.4228
L0.5949 2.5438
" />
<path d="M0.5949 2.5438
L0.4135 2.6043
" />
<path d="M0.4135 2.6043
L0.2926 2.6043
" />
<path d="M1.9254 2.6043
L1.9254 1.9390
" />
<path d="M1.9254 1.9390
L1.8649 1.8181
" />
<path d="M1.8649 1.8181
L1.7440 1.7576
" />
<path d="M1.7440 1.7576
L1.5021 1.7576
" />
<path d="M1.5021 1.7576
L1.3811 1.8181
" />
<path d="M1.9254 2.5438
L1.8045 2.6043
" />
<path d="M1.8045 2.6043
L1.5021 2.6043
" />
<path d="M1.5021 2.6043
L1.3811 2.5438
" />
<path d="M1.3811 2.5438
L1.3206 2.4228
" />
<path d="M1.3206 2.4228
L1.3206 2.3019
" />
<path d="M1.3206 2.3019
L1.3811 2.1809
" />
<path d="M1.3811 2.1809
L1.5021 2.1205
" />
<path d="M1.5021 2.1205
L1.8045 2.1205
" />
<path d="M1.8045 2.1205
L1.9254 2.0600
" />
<path d="M3.0745 2.5438
L2.9535 2.6043
" />
<path d="M2.9535 2.6043
L2.7116 2.6043
" />
<path d="M2.7116 2.6043
L2.5906 2.5438
" />
<path d="M2.5906 2.5438
L2.5302 2.4833
" />
<path d="M2.5302 2.4833
L2.4697 2.3624
" />
<path d="M2.4697 2.3624
L2.4697 1.9995
" />
<path d="M2.4697 1.9995
L2.5302 1.8786
" />
<path d="M2.5302 1.8786
L2.5906 1.8181
" />
<path d="M2.5906 1.8181
L2.7116 1.7576
" />
<path d="M2.7116 1.7576
L2.9535 1.7576
" />
<path d="M2.9535 1.7576
L3.0745 1.8181
" />
<path d="M3.6187 2.6043
L3.6187 1.3343
" />
<path d="M3.7397 2.1205
L4.1026 2.6043
" />
<path d="M4.1026 1.7576
L3.6187 2.2414
" />
<path d="M4.3445 2.7252
L5.3121 2.7252
" />
<path d="M6.1587 1.3343
L5.9168 1.3343
" />
<path d="M5.9168 1.3343
L5.7959 1.3947
" />
<path d="M5.7959 1.3947
L5.7354 1.4552
" />
<path d="M5.7354 1.4552
L5.6145 1.6367
" />
<path d="M5.6145 1.6367
L5.5540 1.8786
" />
<path d="M5.5540 1.8786
L5.5540 2.3624
" />
<path d="M5.5540 2.3624
L5.6145 2.4833
" />
<path d="M5.6145 2.4833
L5.6749 2.5438
" />
<path d="M5.6749 2.5438
L5.7959 2.6043
" />
<path d="M5.7959 2.6043
L6.0378 2.6043
" />
<path d="M6.0378 2.6043
L6.1587 2.5438
" />
<path d="M6.1587 2.5438
L6.2192 2.4833
" />
<path d="M6.2192 2.4833
L6.2797 2.3624
" />
<path d="M6.2797 2.3624
L6.2797 2.0600
" />
<path d="M6.2797 2.0600
L6.2192 1.9390
" />
<path d="M6.2192 1.9390
L6.1587 1.8786
" />
<path d="M6.1587 1.8786
L6.0378 1.8181
" />
<path d="M6.0378 1.8181
L5.7959 1.8181
" />
<path d="M5.7959 1.8181
L5.6749 1.8786
" />
<path d="M5.6749 1.8786
L5.6145 1.9390
" />
<path d="M5.6145 1.9390
L5.5540 2.0600
" />
<path d="M6.8240 2.4833
L6.8845 2.5438
" />
<path d="M6.8845 2.5438
L6.8240 2.6043
" />
<path d="M6.8240 2.6043
L6.7635 2.5438
" />
<path d="M6.7635 2.5438
L6.8240 2.4833
" />
<path d="M6.8240 2.4833
L6.8240 2.6043
" />
<path d="M7.3078 1.3343
L8.0940 1.3343
" />
<path d="M8.0940 1.3343
L7.6706 1.8181
" />
<path d="M7.6706 1.8181
L7.8521 1.8181
" />
<path d="M7.8521 1.8181
L7.9730 1.8786
" />
<path d="M7.9730 1.8786
L8.0335 1.9390
" />
<path d="M8.0335 1.9390
L8.0940 2.0600
" />
<path d="M8.0940 2.0600
L8.0940 2.3624
" />
<path d="M8.0940 2.3624
L8.0335 2.4833
" />
<path d="M8.0335 2.4833
L7.9730 2.5438
" />
<path d="M7.9730 2.5438
L7.8521 2.6043
" />
<path d="M7.8521 2.6043
L7.4892 2.6043
" />
<path d="M7.4892 2.6043
L7.3683 2.5438
" />
<path d="M7.3683 2.5438
L7.3078 2.4833
" />
<path d="M9.2430 1.3343
L8.6383 1.3343
" />
<path d="M8.6383 1.3343
L8.5778 1.9390
" />
<path d="M8.5778 1.9390
L8.6383 1.8786
" />
<path d="M8.6383 1.8786
L8.7592 1.8181
" />
<path d="M8.7592 1.8181
L9.0616 1.8181
" />
<path d="M9.0616 1.8181
L9.1826 1.8786
" />
<path d="M9.1826 1.8786
L9.2430 1.9390
" />
<path d="M9.2430 1.9390
L9.3035 2.0600
" />
<path d="M9.3035 2.0600
L9.3035 2.3624
" />
<path d="M9.3035 2.3624
L9.2430 2.4833
" />
<path d="M9.2430 2.4833
L9.1826 2.5438
" />
<path d="M9.1826 2.5438
L9.0616 2.6043
" />
<path d="M9.0616 2.6043
L8.7592 2.6043
" />
<path d="M8.7592 2.6043
L8.6383 2.5438
" />
<path d="M8.6383 2.5438
L8.5778 2.4833
" />
<path d="M9.8478 2.6043
L9.8478 1.7576
" />
<path d="M9.8478 1.8786
L9.9083 1.8181
" />
<path d="M9.9083 1.8181
L10.0292 1.7576
" />
<path d="M10.0292 1.7576
L10.2106 1.7576
" />
<path d="M10.2106 1.7576
L10.3316 1.8181
" />
<path d="M10.3316 1.8181
L10.3921 1.9390
" />
<path d="M10.3921 1.9390
L10.3921 2.6043
" />
<path d="M10.3921 1.9390
L10.4526 1.8181
" />
<path d="M10.4526 1.8181
L10.5735 1.7576
" />
<path d="M10.5735 1.7576
L10.7549 1.7576
" />
<path d="M10.7549 1.7576
L10.8759 1.8181
" />
<path d="M10.8759 1.8181
L10.9364 1.9390
" />
<path d="M10.9364 1.9390
L10.9364 2.6043
" />
<path d="M11.5411 2.6043
L11.5411 1.7576
" />
<path d="M11.5411 1.8786
L11.6016 1.8181
" />
<path d="M11.6016 1.8181
L11.7226 1.7576
" />
<path d="M11.7226 1.7576
L11.9040 1.7576
" />
<path d="M11.9040 1.7576
L12.0249 1.8181
" />
<path d="M12.0249 1.8181
L12.0854 1.9390
" />
<path d="M12.0854 1.9390
L12.0854 2.6043
" />
<path d="M12.0854 1.9390
L12.1459 1.8181
" />
<path d="M12.1459 1.8181
L12.2668 1.7576
" />
<path d="M12.2668 1.7576
L12.4483 1.7576
" />
<path d="M12.4483 1.7576
L12.5692 1.8181
" />
<path d="M12.5692 1.8181
L12.6297 1.9390
" />
<path d="M12.6297 1.9390
L12.6297 2.6043
" />
<path d="M12.9321 2.7252
L13.8997 2.7252
" />
<path d="M14.2021 2.6043
L14.2021 1.3343
" />
<path d="M14.2021 1.3343
L14.9278 2.6043
" />
<path d="M14.9278 2.6043
L14.9278 1.3343
" />
<path d="M16.0164 2.5438
L15.8954 2.6043
" />
<path d="M15.8954 2.6043
L15.6535 2.6043
" />
<path d="M15.6535 2.6043
L15.5326 2.5438
" />
<path d="M15.5326 2.5438
L15.4721 2.4228
" />
<path d="M15.4721 2.4228
L15.4721 1.9390
" />
<path d="M15.4721 1.9390
L15.5326 1.8181
" />
<path d="M15.5326 1.8181
L15.6535 1.7576
" />
<path d="M15.6535 1.7576
L15.8954 1.7576
" />
<path d="M15.8954 1.7576
L16.0164 1.8181
" />
<path d="M16.0164 1.8181
L16.0768 1.9390
" />
<path d="M16.0768 1.9390
L16.0768 2.0600
" />
<path d="M16.0768 2.0600
L15.4721 2.1809
" />
<path d="M17.1654 1.7576
L17.1654 2.6043
" />
<path d="M16.6211 1.7576
L16.6211 2.4228
" />
<path d="M16.6211 2.4228
L16.6816 2.5438
" />
<path d="M16.6816 2.5438
L16.8026 2.6043
" />
<path d="M16.8026 2.6043
L16.9840 2.6043
" />
<path d="M16.9840 2.6043
L17.1049 2.5438
" />
<path d="M17.1049 2.5438
L17.1654 2.4833
" />
<path d="M17.5887 1.7576
L18.0726 1.7576
" />
<path d="M17.7702 1.3343
L17.7702 2.4228
" />
<path d="M17.7702 2.4228
L17.8306 2.5438
" />
<path d="M17.8306 2.5438
L17.9516 2.6043
" />
<path d="M17.9516 2.6043
L18.0726 2.6043
" />
<path d="M18.4959 2.6043
L18.4959 1.7576
" />
<path d="M18.4959 1.9995
L18.5564 1.8786
" />
<path d="M18.5564 1.8786
L18.6168 1.8181
" />
<path d="M18.6168 1.8181
L18.7378 1.7576
" />
<path d="M18.7378 1.7576
L18.8587 1.7576
" />
<path d="M19.2821 2.6043
L19.2821 1.7576
" />
<path d="M19.2821 1.3343
L19.2216 1.3947
" />
<path d="M19.2216 1.3947
L19.2821 1.4552
" />
<path d="M19.2821 1.4552
L19.3426 1.3947
" />
<path d="M19.3426 1.3947
L19.2821 1.3343
" />
<path d="M19.2821 1.3343
L19.2821 1.4552
" />
<path d="M19.8868 2.6043
L19.8868 1.3343
" />
<path d="M20.0078 2.1205
L20.3706 2.6043
" />
<path d="M20.3706 1.7576
L19.8868 2.2414
" />
<path d="M20.6126 2.7252
L21.5802 2.7252
" />
<path d="M21.8826 2.6043
L21.8826 1.3343
" />
<path d="M21.8826 1.3343
L22.6083 2.6043
" />
<path d="M22.6083 2.6043
L22.6083 1.3343
" />
<path d="M23.1526 2.5438
L23.3340 2.6043
" />
<path d="M23.3340 2.6043
L23.6364 2.6043
" />
<path d="M23.6364 2.6043
L23.7573 2.5438
" />
<path d="M23.7573 2.5438
L23.8178 2.4833
" />
<path d="M23.8178 2.4833
L23.8783 2.3624
" />
<path d="M23.8783 2.3624
L23.8783 2.2414
" />
<path d="M23.8783 2.2414
L23.8178 2.1205
" />
<path d="M23.8178 2.1205
L23.7573 2.0600
" />
<path d="M23.7573 2.0600
L23.6364 1.9995
" />
<path d="M23.6364 1.9995
L23.3945 1.9390
" />
<path d="M23.3945 1.9390
L23.2735 1.8786
" />
<path d="M23.2735 1.8786
L23.2130 1.8181
" />
<path d="M23.2130 1.8181
L23.1526 1.6971
" />
<path d="M23.1526 1.6971
L23.1526 1.5762
" />
<path d="M23.1526 1.5762
L23.2130 1.4552
" />
<path d="M23.2130 1.4552
L23.2735 1.3947
" />
<path d="M23.2735 1.3947
L23.3945 1.3343
" />
<path d="M23.3945 1.3343
L23.6968 1.3343
" />
<path d="M23.6968 1.3343
L23.8783 1.3947
" />
<path d="M24.7854 1.3343
L24.7854 2.2414
" />
<path d="M24.7854 2.2414
L24.7249 2.4228
" />
<path d="M24.7249 2.4228
L24.6040 2.5438
" />
<path d="M24.6040 2.5438
L24.4226 2.6043
" />
<path d="M24.4226 2.6043
L24.3016 2.6043
" />
<path d="M26.0554 2.6043
L25.3297 2.6043
" />
<path d="M25.6926 2.6043
L25.6926 1.3343
" />
<path d="M25.6926 1.3343
L25.5716 1.5157
" />
<path d="M25.5716 1.5157
L25.4506 1.6367
" />
<path d="M25.4506 1.6367
L25.3297 1.6971
" />
<path d="M26.5392 1.4552
L26.5997 1.3947
" />
<path d="M26.5997 1.3947
L26.7206 1.3343
" />
<path d="M26.7206 1.3343
L27.0230 1.3343
" />
<path d="M27.0230 1.3343
L27.1440 1.3947
" />
<path d="M27.1440 1.3947
L27.2045 1.4552
" />
<path d="M27.2045 1.4552
L27.2649 1.5762
" />
<path d="M27.2649 1.5762
L27.2649 1.6971
" />
<path d="M27.2649 1.6971
L27.2045 1.8786
" />
<path d="M27.2045 1.8786
L26.4787 2.6043
" />
<path d="M26.4787 2.6043
L27.2649 2.6043
" />
<path d="M27.8092 2.6043
L27.8092 1.3343
" />
<path d="M27.8092 1.9390
L28.5349 1.9390
" />
<path d="M28.5349 2.6043
L28.5349 1.3343
" />
<path d="M29.5630 1.9390
L29.1397 1.9390
" />
<path d="M29.1397 2.6043
L29.1397 1.3343
" />
<path d="M29.1397 1.3343
L29.7445 1.3343
" />
<path d="M30.2283 2.1205
L31.1959 2.1205
" />
<path d="M32.4659 2.6043
L31.7402 2.6043
" />
<path d="M32.1030 2.6043
L32.1030 1.3343
" />
<path d="M32.1030 1.3343
L31.9821 1.5157
" />
<path d="M31.9821 1.5157
L31.8611 1.6367
" />
<path d="M31.8611 1.6367
L31.7402 1.6971
" />
<path d="M32.7078 2.7252
L33.6754 2.7252
" />
<path d="M33.9778 2.6043
L33.9778 1.3343
" />
<path d="M33.9778 1.9390
L34.7035 1.9390
" />
<path d="M34.7035 2.6043
L34.7035 1.3343
" />
<path d="M35.4897 2.6043
L35.3687 2.5438
" />
<path d="M35.3687 2.5438
L35.3083 2.4833
" />
<path d="M35.3083 2.4833
L35.2478 2.3624
" />
<path d="M35.2478 2.3624
L35.2478 1.9995
" />
<path d="M35.2478 1.9995
L35.3083 1.8786
" />
<path d="M35.3083 1.8786
L35.3687 1.8181
" />
<path d="M35.3687 1.8181
L35.4897 1.7576
" />
<path d="M35.4897 1.7576
L35.6711 1.7576
" />
<path d="M35.6711 1.7576
L35.7921 1.8181
" />
<path d="M35.7921 1.8181
L35.8526 1.8786
" />
<path d="M35.8526 1.8786
L35.9130 1.9995
" />
<path d="M35.9130 1.9995
L35.9130 2.3624
" />
<path d="M35.9130 2.3624
L35.8526 2.4833
" />
<path d="M35.8526 2.4833
L35.7921 2.5438
" />
<path d="M35.7921 2.5438
L35.6711 2.6043
" />
<path d="M35.6711 2.6043
L35.4897 2.6043
" />
<path d="M36.4573 2.6043
L36.4573 1.7576
" />
<path d="M36.4573 1.9995
L36.5178 1.8786
" />
<path d="M36.5178 1.8786
L36.5783 1.8181
" />
<path d="M36.5783 1.8181
L36.6992 1.7576
" />
<path d="M36.6992 1.7576
L36.8202 1.7576
" />
<path d="M37.2435 2.6043
L37.2435 1.7576
" />
<path d="M37.2435 1.3343
L37.1830 1.3947
" />
<path d="M37.1830 1.3947
L37.2435 1.4552
" />
<path d="M37.2435 1.4552
L37.3040 1.3947
" />
<path d="M37.3040 1.3947
L37.2435 1.3343
" />
<path d="M37.2435 1.3343
L37.2435 1.4552
" />
<path d="M37.7273 1.7576
L38.3926 1.7576
" />
<path d="M38.3926 1.7576
L37.7273 2.6043
" />
<path d="M37.7273 2.6043
L38.3926 2.6043
" />
<path d="M39.0578 2.6043
L38.9368 2.5438
" />
<path d="M38.9368 2.5438
L38.8764 2.4833
" />
<path d="M38.8764 2.4833
L38.8159 2.3624
" />
<path d="M38.8159 2.3624
L38.8159 1.9995
" />
<path d="M38.8159 1.9995
L38.8764 1.8786
" />
<path d="M38.8764 1.8786
L38.9368 1.8181
" />
<path d="M38.9368 1.8181
L39.0578 1.7576
" />
<path d="M39.0578 1.7576
L39.2392 1.7576
" />
<path d="M39.2392 1.7576
L39.3602 1.8181
" />
<path d="M39.3602 1.8181
L39.4206 1.8786
" />
<path d="M39.4206 1.8786
L39.4811 1.9995
" />
<path d="M39.4811 1.9995
L39.4811 2.3624
" />
<path d="M39.4811 2.3624
L39.4206 2.4833
" />
<path d="M39.4206 2.4833
L39.3602 2.5438
" />
<path d="M39.3602 2.5438
L39.2392 2.6043
" />
<path d="M39.2392 2.6043
L39.0578 2.6043
" />
<path d="M40.0254 1.7576
L40.0254 2.6043
" />
<path d="M40.0254 1.8786
L40.0859 1.8181
" />
<path d="M40.0859 1.8181
L40.2068 1.7576
" />
<path d="M40.2068 1.7576
L40.3883 1.7576
" />
<path d="M40.3883 1.7576
L40.5092 1.8181
" />
<path d="M40.5092 1.8181
L40.5697 1.9390
" />
<path d="M40.5697 1.9390
L40.5697 2.6043
" />
<path d="M40.9930 1.7576
L41.4768 1.7576
" />
<path d="M41.1745 1.3343
L41.1745 2.4228
" />
<path d="M41.1745 2.4228
L41.2349 2.5438
" />
<path d="M41.2349 2.5438
L41.3559 2.6043
" />
<path d="M41.3559 2.6043
L41.4768 2.6043
" />
<path d="M42.4445 2.6043
L42.4445 1.9390
" />
<path d="M42.4445 1.9390
L42.3840 1.8181
" />
<path d="M42.3840 1.8181
L42.2630 1.7576
" />
<path d="M42.2630 1.7576
L42.0211 1.7576
" />
<path d="M42.0211 1.7576
L41.9002 1.8181
" />
<path d="M42.4445 2.5438
L42.3235 2.6043
" />
<path d="M42.3235 2.6043
L42.0211 2.6043
" />
<path d="M42.0211 2.6043
L41.9002 2.5438
" />
<path d="M41.9002 2.5438
L41.8397 2.4228
" />
<path d="M41.8397 2.4228
L41.8397 2.3019
" />
<path d="M41.8397 2.3019
L41.9002 2.1809
" />
<path d="M41.9002 2.1809
L42.0211 2.1205
" />
<path d="M42.0211 2.1205
L42.3235 2.1205
" />
<path d="M42.3235 2.1205
L42.4445 2.0600
" />
<path d="M43.2306 2.6043
L43.1097 2.5438
" />
<path d="M43.1097 2.5438
L43.0492 2.4228
" />
<path d="M43.0492 2.4228
L43.0492 1.3343
" />
</g></g>
<g style="fill:none; 
stroke:#AFAFAF; stroke-width:0.1500; stroke-opacity:1; 
stroke-linecap:round; stroke-linejoin:round;">
<text x="31.2916" y="9.5250"
textLength="4.5357" font-size="1.3333" lengthAdjust="spacingAndGlyphs"
text-anchor="middle" opacity="0">REF**</text>
<g class="stroked-text"><desc>REF**</desc>
<path d="M29.9583 9.4798
L29.6249 9.0036
" />
<path d="M29.3868 9.4798
L29.3868 8.4798
" />
<path d="M29.3868 8.4798
L29.7678 8.4798
" />
<path d="M29.7678 8.4798
L29.8630 8.5274
" />
<path d="M29.8630 8.5274
L29.9106 8.5751
" />
<path d="M29.9106 8.5751
L29.9583 8.6703
" />
<path d="M29.9583 8.6703
L29.9583 8.8132
" />
<path d="M29.9583 8.8132
L29.9106 8.9084
" />
<path d="M29.9106 8.9084
L29.8630 8.9560
" />
<path d="M29.8630 8.9560
L29.7678 9.0036
" />
<path d="M29.7678 9.0036
L29.3868 9.0036
" />
<path d="M30.3868 8.9560
L30.7202 8.9560
" />
<path d="M30.8630 9.4798
L30.3868 9.4798
" />
<path d="M30.3868 9.4798
L30.3868 8.4798
" />
<path d="M30.3868 8.4798
L30.8630 8.4798
" />
<path d="M31.6249 8.9560
L31.2916 8.9560
" />
<path d="M31.2916 9.4798
L31.2916 8.4798
" />
<path d="M31.2916 8.4798
L31.7678 8.4798
" />
<path d="M32.2916 8.4798
L32.2916 8.7179
" />
<path d="M32.0535 8.6227
L32.2916 8.7179
" />
<path d="M32.2916 8.7179
L32.5297 8.6227
" />
<path d="M32.1487 8.9084
L32.2916 8.7179
" />
<path d="M32.2916 8.7179
L32.4345 8.9084
" />
<path d="M33.0535 8.4798
L33.0535 8.7179
" />
<path d="M32.8154 8.6227
L33.0535 8.7179
" />
<path d="M33.0535 8.7179
L33.2916 8.6227
" />
<path d="M32.9106 8.9084
L33.0535 8.7179
" />
<path d="M33.0535 8.7179
L33.1964 8.9084
" />
</g></g>
<g style="fill:none; 
stroke:#AFAFAF; stroke-width:0.1000; stroke-opacity:1; 
stroke-linecap:round; stroke-linejoin:round;">
<path d="M17.9416 0.7250
L42.2416 0.7250
" />
<path d="M17.9416 17.7250
L17.9416 0.7250
" />
<path d="M42.2416 0.7250
L42.2416 17.7250
" />
<path d="M42.2416 15.0000
L50.8416 15.0000
" />
<path d="M42.2416 17.7250
L17.9416 17.7250
" />
<path d="M50.8416 6.0500
L42.2416 6.0500
" />
<path d="M50.8416 15.0000
L50.8416 6.0500
" />
</g>
<g style="fill:none; 
stroke:#C2C2C2; stroke-width:0.1000; stroke-opacity:1; 
stroke-linecap:round; stroke-linejoin:round;">
<path d="M42.2416 0.7250
L42.2416 17.7250
" />
</g> 
</svg>
