<?xml version="1.0" standalone="no"?>
 <!DOCTYPE svg PUBLIC "-//W3C//DTD SVG 1.1//EN" 
 "http://www.w3.org/Graphics/SVG/1.1/DTD/svg11.dtd"> 
<svg
  xmlns:svg="http://www.w3.org/2000/svg"
  xmlns="http://www.w3.org/2000/svg"
  xmlns:xlink="http://www.w3.org/1999/xlink"
  version="1.1"
  width="66.2432mm" height="32.7406mm" viewBox="0.0000 0.0000 66.2432 32.7406">
<title>SVG Image created as working-brd.svg date 2024/04/11 13:26:33 </title>
  <desc>Image generated by PCBNEW </desc>
<g style="fill:#000000; fill-opacity:1.0000;stroke:#000000; stroke-opacity:1.0000;
stroke-linecap:round; stroke-linejoin:round;"
 transform="translate(0 0) scale(1 1)">
<path style="fill:#C83434; fill-opacity:1.0000; stroke:none;fill-rule:evenodd;"
d="M 27.6061,2.9700
27.6061,1.8500
30.0461,1.8500
30.0461,2.9700
Z" /> 
<path style="fill:#C83434; fill-opacity:1.0000; stroke:none;fill-rule:evenodd;"
d="M 27.6061,5.5100
27.6061,4.3900
30.0461,4.3900
30.0461,5.5100
Z" /> 
<path style="fill:#C83434; fill-opacity:1.0000; stroke:none;fill-rule:evenodd;"
d="M 27.6061,8.0500
27.6061,6.9300
30.0461,6.9300
30.0461,8.0500
Z" /> 
<path style="fill:#C83434; fill-opacity:1.0000; stroke:none;fill-rule:evenodd;"
d="M 27.6061,10.5900
27.6061,9.4700
30.0461,9.4700
30.0461,10.5900
Z" /> 
<path style="fill:#C83434; fill-opacity:1.0000; stroke:none;fill-rule:evenodd;"
d="M 27.6061,13.1300
27.6061,12.0100
30.0461,12.0100
30.0461,13.1300
Z" /> 
<path style="fill:#C83434; fill-opacity:1.0000; stroke:none;fill-rule:evenodd;"
d="M 27.6061,15.6700
27.6061,14.5500
30.0461,14.5500
30.0461,15.6700
Z" /> 
<path style="fill:#C83434; fill-opacity:1.0000; stroke:none;fill-rule:evenodd;"
d="M 27.6061,18.2100
27.6061,17.0900
30.0461,17.0900
30.0461,18.2100
Z" /> 
<path style="fill:#C83434; fill-opacity:1.0000; stroke:none;fill-rule:evenodd;"
d="M 27.6061,20.7500
27.6061,19.6300
30.0461,19.6300
30.0461,20.7500
Z" /> 
<path style="fill:#C83434; fill-opacity:1.0000; stroke:none;fill-rule:evenodd;"
d="M 27.6061,23.2900
27.6061,22.1700
30.0461,22.1700
30.0461,23.2900
Z" /> 
<path style="fill:#C83434; fill-opacity:1.0000; stroke:none;fill-rule:evenodd;"
d="M 27.6061,25.8300
27.6061,24.7100
30.0461,24.7100
30.0461,25.8300
Z" /> 
<path style="fill:#C83434; fill-opacity:1.0000; stroke:none;fill-rule:evenodd;"
d="M 27.6061,28.3700
27.6061,27.2500
30.0461,27.2500
30.0461,28.3700
Z" /> 
<path style="fill:#C83434; fill-opacity:1.0000; stroke:none;fill-rule:evenodd;"
d="M 27.6061,30.9100
27.6061,29.7900
30.0461,29.7900
30.0461,30.9100
Z" /> 
<path style="fill:#C83434; fill-opacity:1.0000; stroke:none;fill-rule:evenodd;"
d="M 36.2161,30.9100
36.2161,29.7900
38.6561,29.7900
38.6561,30.9100
Z" /> 
<path style="fill:#C83434; fill-opacity:1.0000; stroke:none;fill-rule:evenodd;"
d="M 36.2161,28.3700
36.2161,27.2500
38.6561,27.2500
38.6561,28.3700
Z" /> 
<path style="fill:#C83434; fill-opacity:1.0000; stroke:none;fill-rule:evenodd;"
d="M 36.2161,25.8300
36.2161,24.7100
38.6561,24.7100
38.6561,25.8300
Z" /> 
<path style="fill:#C83434; fill-opacity:1.0000; stroke:none;fill-rule:evenodd;"
d="M 36.2161,23.2900
36.2161,22.1700
38.6561,22.1700
38.6561,23.2900
Z" /> 
<path style="fill:#C83434; fill-opacity:1.0000; stroke:none;fill-rule:evenodd;"
d="M 36.2161,20.7500
36.2161,19.6300
38.6561,19.6300
38.6561,20.7500
Z" /> 
<path style="fill:#C83434; fill-opacity:1.0000; stroke:none;fill-rule:evenodd;"
d="M 36.2161,18.2100
36.2161,17.0900
38.6561,17.0900
38.6561,18.2100
Z" /> 
<path style="fill:#C83434; fill-opacity:1.0000; stroke:none;fill-rule:evenodd;"
d="M 36.2161,15.6700
36.2161,14.5500
38.6561,14.5500
38.6561,15.6700
Z" /> 
<path style="fill:#C83434; fill-opacity:1.0000; stroke:none;fill-rule:evenodd;"
d="M 36.2161,13.1300
36.2161,12.0100
38.6561,12.0100
38.6561,13.1300
Z" /> 
<path style="fill:#C83434; fill-opacity:1.0000; stroke:none;fill-rule:evenodd;"
d="M 36.2161,10.5900
36.2161,9.4700
38.6561,9.4700
38.6561,10.5900
Z" /> 
<path style="fill:#C83434; fill-opacity:1.0000; stroke:none;fill-rule:evenodd;"
d="M 36.2161,8.0500
36.2161,6.9300
38.6561,6.9300
38.6561,8.0500
Z" /> 
<path style="fill:#C83434; fill-opacity:1.0000; stroke:none;fill-rule:evenodd;"
d="M 36.2161,5.5100
36.2161,4.3900
38.6561,4.3900
38.6561,5.5100
Z" /> 
<path style="fill:#C83434; fill-opacity:1.0000; stroke:none;fill-rule:evenodd;"
d="M 36.2161,2.9700
36.2161,1.8500
38.6561,1.8500
38.6561,2.9700
Z" /> 
<path style="fill:#D864FF; fill-opacity:0.4000; stroke:none;fill-rule:evenodd;"
d="M 27.6061,2.9700
27.6061,1.8500
30.0461,1.8500
30.0461,2.9700
Z" /> 
<path style="fill:#D864FF; fill-opacity:0.4000; stroke:none;fill-rule:evenodd;"
d="M 27.6061,5.5100
27.6061,4.3900
30.0461,4.3900
30.0461,5.5100
Z" /> 
<path style="fill:#D864FF; fill-opacity:0.4000; stroke:none;fill-rule:evenodd;"
d="M 27.6061,8.0500
27.6061,6.9300
30.0461,6.9300
30.0461,8.0500
Z" /> 
<path style="fill:#D864FF; fill-opacity:0.4000; stroke:none;fill-rule:evenodd;"
d="M 27.6061,10.5900
27.6061,9.4700
30.0461,9.4700
30.0461,10.5900
Z" /> 
<path style="fill:#D864FF; fill-opacity:0.4000; stroke:none;fill-rule:evenodd;"
d="M 27.6061,13.1300
27.6061,12.0100
30.0461,12.0100
30.0461,13.1300
Z" /> 
<path style="fill:#D864FF; fill-opacity:0.4000; stroke:none;fill-rule:evenodd;"
d="M 27.6061,15.6700
27.6061,14.5500
30.0461,14.5500
30.0461,15.6700
Z" /> 
<path style="fill:#D864FF; fill-opacity:0.4000; stroke:none;fill-rule:evenodd;"
d="M 27.6061,18.2100
27.6061,17.0900
30.0461,17.0900
30.0461,18.2100
Z" /> 
<path style="fill:#D864FF; fill-opacity:0.4000; stroke:none;fill-rule:evenodd;"
d="M 27.6061,20.7500
27.6061,19.6300
30.0461,19.6300
30.0461,20.7500
Z" /> 
<path style="fill:#D864FF; fill-opacity:0.4000; stroke:none;fill-rule:evenodd;"
d="M 27.6061,23.2900
27.6061,22.1700
30.0461,22.1700
30.0461,23.2900
Z" /> 
<path style="fill:#D864FF; fill-opacity:0.4000; stroke:none;fill-rule:evenodd;"
d="M 27.6061,25.8300
27.6061,24.7100
30.0461,24.7100
30.0461,25.8300
Z" /> 
<path style="fill:#D864FF; fill-opacity:0.4000; stroke:none;fill-rule:evenodd;"
d="M 27.6061,28.3700
27.6061,27.2500
30.0461,27.2500
30.0461,28.3700
Z" /> 
<path style="fill:#D864FF; fill-opacity:0.4000; stroke:none;fill-rule:evenodd;"
d="M 27.6061,30.9100
27.6061,29.7900
30.0461,29.7900
30.0461,30.9100
Z" /> 
<path style="fill:#D864FF; fill-opacity:0.4000; stroke:none;fill-rule:evenodd;"
d="M 36.2161,30.9100
36.2161,29.7900
38.6561,29.7900
38.6561,30.9100
Z" /> 
<path style="fill:#D864FF; fill-opacity:0.4000; stroke:none;fill-rule:evenodd;"
d="M 36.2161,28.3700
36.2161,27.2500
38.6561,27.2500
38.6561,28.3700
Z" /> 
<path style="fill:#D864FF; fill-opacity:0.4000; stroke:none;fill-rule:evenodd;"
d="M 36.2161,25.8300
36.2161,24.7100
38.6561,24.7100
38.6561,25.8300
Z" /> 
<path style="fill:#D864FF; fill-opacity:0.4000; stroke:none;fill-rule:evenodd;"
d="M 36.2161,23.2900
36.2161,22.1700
38.6561,22.1700
38.6561,23.2900
Z" /> 
<path style="fill:#D864FF; fill-opacity:0.4000; stroke:none;fill-rule:evenodd;"
d="M 36.2161,20.7500
36.2161,19.6300
38.6561,19.6300
38.6561,20.7500
Z" /> 
<path style="fill:#D864FF; fill-opacity:0.4000; stroke:none;fill-rule:evenodd;"
d="M 36.2161,18.2100
36.2161,17.0900
38.6561,17.0900
38.6561,18.2100
Z" /> 
<path style="fill:#D864FF; fill-opacity:0.4000; stroke:none;fill-rule:evenodd;"
d="M 36.2161,15.6700
36.2161,14.5500
38.6561,14.5500
38.6561,15.6700
Z" /> 
<path style="fill:#D864FF; fill-opacity:0.4000; stroke:none;fill-rule:evenodd;"
d="M 36.2161,13.1300
36.2161,12.0100
38.6561,12.0100
38.6561,13.1300
Z" /> 
<path style="fill:#D864FF; fill-opacity:0.4000; stroke:none;fill-rule:evenodd;"
d="M 36.2161,10.5900
36.2161,9.4700
38.6561,9.4700
38.6561,10.5900
Z" /> 
<path style="fill:#D864FF; fill-opacity:0.4000; stroke:none;fill-rule:evenodd;"
d="M 36.2161,8.0500
36.2161,6.9300
38.6561,6.9300
38.6561,8.0500
Z" /> 
<path style="fill:#D864FF; fill-opacity:0.4000; stroke:none;fill-rule:evenodd;"
d="M 36.2161,5.5100
36.2161,4.3900
38.6561,4.3900
38.6561,5.5100
Z" /> 
<path style="fill:#D864FF; fill-opacity:0.4000; stroke:none;fill-rule:evenodd;"
d="M 36.2161,2.9700
36.2161,1.8500
38.6561,1.8500
38.6561,2.9700
Z" /> 
<path style="fill:#B4A09A; fill-opacity:0.9000; stroke:none;fill-rule:evenodd;"
d="M 27.6061,2.9700
27.6061,1.8500
30.0461,1.8500
30.0461,2.9700
Z" /> 
<path style="fill:#B4A09A; fill-opacity:0.9000; stroke:none;fill-rule:evenodd;"
d="M 27.6061,5.5100
27.6061,4.3900
30.0461,4.3900
30.0461,5.5100
Z" /> 
<path style="fill:#B4A09A; fill-opacity:0.9000; stroke:none;fill-rule:evenodd;"
d="M 27.6061,8.0500
27.6061,6.9300
30.0461,6.9300
30.0461,8.0500
Z" /> 
<path style="fill:#B4A09A; fill-opacity:0.9000; stroke:none;fill-rule:evenodd;"
d="M 27.6061,10.5900
27.6061,9.4700
30.0461,9.4700
30.0461,10.5900
Z" /> 
<path style="fill:#B4A09A; fill-opacity:0.9000; stroke:none;fill-rule:evenodd;"
d="M 27.6061,13.1300
27.6061,12.0100
30.0461,12.0100
30.0461,13.1300
Z" /> 
<path style="fill:#B4A09A; fill-opacity:0.9000; stroke:none;fill-rule:evenodd;"
d="M 27.6061,15.6700
27.6061,14.5500
30.0461,14.5500
30.0461,15.6700
Z" /> 
<path style="fill:#B4A09A; fill-opacity:0.9000; stroke:none;fill-rule:evenodd;"
d="M 27.6061,18.2100
27.6061,17.0900
30.0461,17.0900
30.0461,18.2100
Z" /> 
<path style="fill:#B4A09A; fill-opacity:0.9000; stroke:none;fill-rule:evenodd;"
d="M 27.6061,20.7500
27.6061,19.6300
30.0461,19.6300
30.0461,20.7500
Z" /> 
<path style="fill:#B4A09A; fill-opacity:0.9000; stroke:none;fill-rule:evenodd;"
d="M 27.6061,23.2900
27.6061,22.1700
30.0461,22.1700
30.0461,23.2900
Z" /> 
<path style="fill:#B4A09A; fill-opacity:0.9000; stroke:none;fill-rule:evenodd;"
d="M 27.6061,25.8300
27.6061,24.7100
30.0461,24.7100
30.0461,25.8300
Z" /> 
<path style="fill:#B4A09A; fill-opacity:0.9000; stroke:none;fill-rule:evenodd;"
d="M 27.6061,28.3700
27.6061,27.2500
30.0461,27.2500
30.0461,28.3700
Z" /> 
<path style="fill:#B4A09A; fill-opacity:0.9000; stroke:none;fill-rule:evenodd;"
d="M 27.6061,30.9100
27.6061,29.7900
30.0461,29.7900
30.0461,30.9100
Z" /> 
<path style="fill:#B4A09A; fill-opacity:0.9000; stroke:none;fill-rule:evenodd;"
d="M 36.2161,30.9100
36.2161,29.7900
38.6561,29.7900
38.6561,30.9100
Z" /> 
<path style="fill:#B4A09A; fill-opacity:0.9000; stroke:none;fill-rule:evenodd;"
d="M 36.2161,28.3700
36.2161,27.2500
38.6561,27.2500
38.6561,28.3700
Z" /> 
<path style="fill:#B4A09A; fill-opacity:0.9000; stroke:none;fill-rule:evenodd;"
d="M 36.2161,25.8300
36.2161,24.7100
38.6561,24.7100
38.6561,25.8300
Z" /> 
<path style="fill:#B4A09A; fill-opacity:0.9000; stroke:none;fill-rule:evenodd;"
d="M 36.2161,23.2900
36.2161,22.1700
38.6561,22.1700
38.6561,23.2900
Z" /> 
<path style="fill:#B4A09A; fill-opacity:0.9000; stroke:none;fill-rule:evenodd;"
d="M 36.2161,20.7500
36.2161,19.6300
38.6561,19.6300
38.6561,20.7500
Z" /> 
<path style="fill:#B4A09A; fill-opacity:0.9000; stroke:none;fill-rule:evenodd;"
d="M 36.2161,18.2100
36.2161,17.0900
38.6561,17.0900
38.6561,18.2100
Z" /> 
<path style="fill:#B4A09A; fill-opacity:0.9000; stroke:none;fill-rule:evenodd;"
d="M 36.2161,15.6700
36.2161,14.5500
38.6561,14.5500
38.6561,15.6700
Z" /> 
<path style="fill:#B4A09A; fill-opacity:0.9000; stroke:none;fill-rule:evenodd;"
d="M 36.2161,13.1300
36.2161,12.0100
38.6561,12.0100
38.6561,13.1300
Z" /> 
<path style="fill:#B4A09A; fill-opacity:0.9000; stroke:none;fill-rule:evenodd;"
d="M 36.2161,10.5900
36.2161,9.4700
38.6561,9.4700
38.6561,10.5900
Z" /> 
<path style="fill:#B4A09A; fill-opacity:0.9000; stroke:none;fill-rule:evenodd;"
d="M 36.2161,8.0500
36.2161,6.9300
38.6561,6.9300
38.6561,8.0500
Z" /> 
<path style="fill:#B4A09A; fill-opacity:0.9000; stroke:none;fill-rule:evenodd;"
d="M 36.2161,5.5100
36.2161,4.3900
38.6561,4.3900
38.6561,5.5100
Z" /> 
<path style="fill:#B4A09A; fill-opacity:0.9000; stroke:none;fill-rule:evenodd;"
d="M 36.2161,2.9700
36.2161,1.8500
38.6561,1.8500
38.6561,2.9700
Z" /> 
</g>
<g style="fill:none; 
stroke:#F2EDA1; stroke-width:0.1588; stroke-opacity:1; 
stroke-linecap:round; stroke-linejoin:round;">
<text x="33.1311" y="17.0150"
textLength="5.6651" font-size="1.6933" lengthAdjust="spacingAndGlyphs"
text-anchor="middle" opacity="0">REF**</text>
<g class="stroked-text"><desc>REF**</desc>
<path d="M31.4378 16.9593
L31.0145 16.3545
" />
<path d="M30.7121 16.9593
L30.7121 15.6893
" />
<path d="M30.7121 15.6893
L31.1959 15.6893
" />
<path d="M31.1959 15.6893
L31.3168 15.7497
" />
<path d="M31.3168 15.7497
L31.3773 15.8102
" />
<path d="M31.3773 15.8102
L31.4378 15.9312
" />
<path d="M31.4378 15.9312
L31.4378 16.1126
" />
<path d="M31.4378 16.1126
L31.3773 16.2336
" />
<path d="M31.3773 16.2336
L31.3168 16.2940
" />
<path d="M31.3168 16.2940
L31.1959 16.3545
" />
<path d="M31.1959 16.3545
L30.7121 16.3545
" />
<path d="M31.9821 16.2940
L32.4054 16.2940
" />
<path d="M32.5868 16.9593
L31.9821 16.9593
" />
<path d="M31.9821 16.9593
L31.9821 15.6893
" />
<path d="M31.9821 15.6893
L32.5868 15.6893
" />
<path d="M33.5545 16.2940
L33.1311 16.2940
" />
<path d="M33.1311 16.9593
L33.1311 15.6893
" />
<path d="M33.1311 15.6893
L33.7359 15.6893
" />
<path d="M34.4011 15.6893
L34.4011 15.9917
" />
<path d="M34.0987 15.8707
L34.4011 15.9917
" />
<path d="M34.4011 15.9917
L34.7035 15.8707
" />
<path d="M34.2197 16.2336
L34.4011 15.9917
" />
<path d="M34.4011 15.9917
L34.5826 16.2336
" />
<path d="M35.3687 15.6893
L35.3687 15.9917
" />
<path d="M35.0664 15.8707
L35.3687 15.9917
" />
<path d="M35.3687 15.9917
L35.6711 15.8707
" />
<path d="M35.1873 16.2336
L35.3687 15.9917
" />
<path d="M35.3687 15.9917
L35.5502 16.2336
" />
</g></g>
<g style="fill:none; 
stroke:#F2EDA1; stroke-width:0.1200; stroke-opacity:1; 
stroke-linecap:round; stroke-linejoin:round;">
<path d="M29.4811 0.0600
L29.4811 1.4430
" />
<path d="M29.4811 0.0600
L30.8641 0.0600
" />
<path d="M29.7211 0.3000
L29.7211 1.6100
" />
<path d="M29.7211 0.3000
L36.5411 0.3000
" />
<path d="M29.7211 3.2100
L29.7211 4.1500
" />
<path d="M29.7211 5.7500
L29.7211 6.6900
" />
<path d="M29.7211 8.2900
L29.7211 9.2300
" />
<path d="M29.7211 10.8300
L29.7211 11.7700
" />
<path d="M29.7211 13.3700
L29.7211 14.3100
" />
<path d="M29.7211 15.9100
L29.7211 16.8500
" />
<path d="M29.7211 18.4500
L29.7211 19.3900
" />
<path d="M29.7211 20.9900
L29.7211 21.9300
" />
<path d="M29.7211 23.5300
L29.7211 24.4700
" />
<path d="M29.7211 26.0700
L29.7211 27.0100
" />
<path d="M29.7211 28.6100
L29.7211 29.5500
" />
<path d="M29.7211 31.1500
L29.7211 32.4600
" />
<path d="M29.7211 32.4600
L36.5411 32.4600
" />
<path d="M31.3211 1.7750
L31.3211 3.0450
" />
<path d="M31.3211 1.8950
L32.5278 1.8950
" />
<path d="M31.3211 2.0150
L32.5278 2.0150
" />
<path d="M31.3211 2.1350
L32.5278 2.1350
" />
<path d="M31.3211 2.2550
L32.5278 2.2550
" />
<path d="M31.3211 2.3750
L32.5278 2.3750
" />
<path d="M31.3211 2.4950
L32.5278 2.4950
" />
<path d="M31.3211 2.6150
L32.5278 2.6150
" />
<path d="M31.3211 2.7350
L32.5278 2.7350
" />
<path d="M31.3211 2.8550
L32.5278 2.8550
" />
<path d="M31.3211 2.9750
L32.5278 2.9750
" />
<path d="M31.3211 3.0450
L34.9411 3.0450
" />
<path d="M31.3211 4.3150
L31.3211 5.5850
" />
<path d="M31.3211 4.4350
L32.5278 4.4350
" />
<path d="M31.3211 4.5550
L32.5278 4.5550
" />
<path d="M31.3211 4.6750
L32.5278 4.6750
" />
<path d="M31.3211 4.7950
L32.5278 4.7950
" />
<path d="M31.3211 4.9150
L32.5278 4.9150
" />
<path d="M31.3211 5.0350
L32.5278 5.0350
" />
<path d="M31.3211 5.1550
L32.5278 5.1550
" />
<path d="M31.3211 5.2750
L32.5278 5.2750
" />
<path d="M31.3211 5.3950
L32.5278 5.3950
" />
<path d="M31.3211 5.5150
L32.5278 5.5150
" />
<path d="M31.3211 5.5850
L34.9411 5.5850
" />
<path d="M31.3211 6.8550
L31.3211 8.1250
" />
<path d="M31.3211 6.9750
L32.5278 6.9750
" />
<path d="M31.3211 7.0950
L32.5278 7.0950
" />
<path d="M31.3211 7.2150
L32.5278 7.2150
" />
<path d="M31.3211 7.3350
L32.5278 7.3350
" />
<path d="M31.3211 7.4550
L32.5278 7.4550
" />
<path d="M31.3211 7.5750
L32.5278 7.5750
" />
<path d="M31.3211 7.6950
L32.5278 7.6950
" />
<path d="M31.3211 7.8150
L32.5278 7.8150
" />
<path d="M31.3211 7.9350
L32.5278 7.9350
" />
<path d="M31.3211 8.0550
L32.5278 8.0550
" />
<path d="M31.3211 8.1250
L34.9411 8.1250
" />
<path d="M31.3211 9.3950
L31.3211 10.6650
" />
<path d="M31.3211 9.5150
L32.5278 9.5150
" />
<path d="M31.3211 9.6350
L32.5278 9.6350
" />
<path d="M31.3211 9.7550
L32.5278 9.7550
" />
<path d="M31.3211 9.8750
L32.5278 9.8750
" />
<path d="M31.3211 9.9950
L32.5278 9.9950
" />
<path d="M31.3211 10.1150
L32.5278 10.1150
" />
<path d="M31.3211 10.2350
L32.5278 10.2350
" />
<path d="M31.3211 10.3550
L32.5278 10.3550
" />
<path d="M31.3211 10.4750
L32.5278 10.4750
" />
<path d="M31.3211 10.5950
L32.5278 10.5950
" />
<path d="M31.3211 10.6650
L34.9411 10.6650
" />
<path d="M31.3211 11.9350
L31.3211 13.2050
" />
<path d="M31.3211 12.0550
L32.5278 12.0550
" />
<path d="M31.3211 12.1750
L32.5278 12.1750
" />
<path d="M31.3211 12.2950
L32.5278 12.2950
" />
<path d="M31.3211 12.4150
L32.5278 12.4150
" />
<path d="M31.3211 12.5350
L32.5278 12.5350
" />
<path d="M31.3211 12.6550
L32.5278 12.6550
" />
<path d="M31.3211 12.7750
L32.5278 12.7750
" />
<path d="M31.3211 12.8950
L32.5278 12.8950
" />
<path d="M31.3211 13.0150
L32.5278 13.0150
" />
<path d="M31.3211 13.1350
L32.5278 13.1350
" />
<path d="M31.3211 13.2050
L34.9411 13.2050
" />
<path d="M31.3211 14.4750
L31.3211 15.7450
" />
<path d="M31.3211 14.5950
L32.5278 14.5950
" />
<path d="M31.3211 14.7150
L32.5278 14.7150
" />
<path d="M31.3211 14.8350
L32.5278 14.8350
" />
<path d="M31.3211 14.9550
L32.5278 14.9550
" />
<path d="M31.3211 15.0750
L32.5278 15.0750
" />
<path d="M31.3211 15.1950
L32.5278 15.1950
" />
<path d="M31.3211 15.3150
L32.5278 15.3150
" />
<path d="M31.3211 15.4350
L32.5278 15.4350
" />
<path d="M31.3211 15.5550
L32.5278 15.5550
" />
<path d="M31.3211 15.6750
L32.5278 15.6750
" />
<path d="M31.3211 15.7450
L34.9411 15.7450
" />
<path d="M31.3211 17.0150
L31.3211 18.2850
" />
<path d="M31.3211 17.1350
L32.5278 17.1350
" />
<path d="M31.3211 17.2550
L32.5278 17.2550
" />
<path d="M31.3211 17.3750
L32.5278 17.3750
" />
<path d="M31.3211 17.4950
L32.5278 17.4950
" />
<path d="M31.3211 17.6150
L32.5278 17.6150
" />
<path d="M31.3211 17.7350
L32.5278 17.7350
" />
<path d="M31.3211 17.8550
L32.5278 17.8550
" />
<path d="M31.3211 17.9750
L32.5278 17.9750
" />
<path d="M31.3211 18.0950
L32.5278 18.0950
" />
<path d="M31.3211 18.2150
L32.5278 18.2150
" />
<path d="M31.3211 18.2850
L34.9411 18.2850
" />
<path d="M31.3211 19.5550
L31.3211 20.8250
" />
<path d="M31.3211 19.6750
L32.5278 19.6750
" />
<path d="M31.3211 19.7950
L32.5278 19.7950
" />
<path d="M31.3211 19.9150
L32.5278 19.9150
" />
<path d="M31.3211 20.0350
L32.5278 20.0350
" />
<path d="M31.3211 20.1550
L32.5278 20.1550
" />
<path d="M31.3211 20.2750
L32.5278 20.2750
" />
<path d="M31.3211 20.3950
L32.5278 20.3950
" />
<path d="M31.3211 20.5150
L32.5278 20.5150
" />
<path d="M31.3211 20.6350
L32.5278 20.6350
" />
<path d="M31.3211 20.7550
L32.5278 20.7550
" />
<path d="M31.3211 20.8250
L34.9411 20.8250
" />
<path d="M31.3211 22.0950
L31.3211 23.3650
" />
<path d="M31.3211 22.2150
L32.5278 22.2150
" />
<path d="M31.3211 22.3350
L32.5278 22.3350
" />
<path d="M31.3211 22.4550
L32.5278 22.4550
" />
<path d="M31.3211 22.5750
L32.5278 22.5750
" />
<path d="M31.3211 22.6950
L32.5278 22.6950
" />
<path d="M31.3211 22.8150
L32.5278 22.8150
" />
<path d="M31.3211 22.9350
L32.5278 22.9350
" />
<path d="M31.3211 23.0550
L32.5278 23.0550
" />
<path d="M31.3211 23.1750
L32.5278 23.1750
" />
<path d="M31.3211 23.2950
L32.5278 23.2950
" />
<path d="M31.3211 23.3650
L34.9411 23.3650
" />
<path d="M31.3211 24.6350
L31.3211 25.9050
" />
<path d="M31.3211 24.7550
L32.5278 24.7550
" />
<path d="M31.3211 24.8750
L32.5278 24.8750
" />
<path d="M31.3211 24.9950
L32.5278 24.9950
" />
<path d="M31.3211 25.1150
L32.5278 25.1150
" />
<path d="M31.3211 25.2350
L32.5278 25.2350
" />
<path d="M31.3211 25.3550
L32.5278 25.3550
" />
<path d="M31.3211 25.4750
L32.5278 25.4750
" />
<path d="M31.3211 25.5950
L32.5278 25.5950
" />
<path d="M31.3211 25.7150
L32.5278 25.7150
" />
<path d="M31.3211 25.8350
L32.5278 25.8350
" />
<path d="M31.3211 25.9050
L34.9411 25.9050
" />
<path d="M31.3211 27.1750
L31.3211 28.4450
" />
<path d="M31.3211 27.2950
L32.5278 27.2950
" />
<path d="M31.3211 27.4150
L32.5278 27.4150
" />
<path d="M31.3211 27.5350
L32.5278 27.5350
" />
<path d="M31.3211 27.6550
L32.5278 27.6550
" />
<path d="M31.3211 27.7750
L32.5278 27.7750
" />
<path d="M31.3211 27.8950
L32.5278 27.8950
" />
<path d="M31.3211 28.0150
L32.5278 28.0150
" />
<path d="M31.3211 28.1350
L32.5278 28.1350
" />
<path d="M31.3211 28.2550
L32.5278 28.2550
" />
<path d="M31.3211 28.3750
L32.5278 28.3750
" />
<path d="M31.3211 28.4450
L34.9411 28.4450
" />
<path d="M31.3211 29.7150
L31.3211 30.9850
" />
<path d="M31.3211 29.8350
L32.5278 29.8350
" />
<path d="M31.3211 29.9550
L32.5278 29.9550
" />
<path d="M31.3211 30.0750
L32.5278 30.0750
" />
<path d="M31.3211 30.1950
L32.5278 30.1950
" />
<path d="M31.3211 30.3150
L32.5278 30.3150
" />
<path d="M31.3211 30.4350
L32.5278 30.4350
" />
<path d="M31.3211 30.5550
L32.5278 30.5550
" />
<path d="M31.3211 30.6750
L32.5278 30.6750
" />
<path d="M31.3211 30.7950
L32.5278 30.7950
" />
<path d="M31.3211 30.9150
L32.5278 30.9150
" />
<path d="M31.3211 30.9850
L34.9411 30.9850
" />
<path d="M32.5278 1.7750
L32.5278 3.0450
" />
<path d="M32.5278 4.3150
L32.5278 5.5850
" />
<path d="M32.5278 6.8550
L32.5278 8.1250
" />
<path d="M32.5278 9.3950
L32.5278 10.6650
" />
<path d="M32.5278 11.9350
L32.5278 13.2050
" />
<path d="M32.5278 14.4750
L32.5278 15.7450
" />
<path d="M32.5278 17.0150
L32.5278 18.2850
" />
<path d="M32.5278 19.5550
L32.5278 20.8250
" />
<path d="M32.5278 22.0950
L32.5278 23.3650
" />
<path d="M32.5278 24.6350
L32.5278 25.9050
" />
<path d="M32.5278 27.1750
L32.5278 28.4450
" />
<path d="M32.5278 29.7150
L32.5278 30.9850
" />
<path d="M34.9411 1.7750
L31.3211 1.7750
" />
<path d="M34.9411 3.0450
L34.9411 1.7750
" />
<path d="M34.9411 4.3150
L31.3211 4.3150
" />
<path d="M34.9411 5.5850
L34.9411 4.3150
" />
<path d="M34.9411 6.8550
L31.3211 6.8550
" />
<path d="M34.9411 8.1250
L34.9411 6.8550
" />
<path d="M34.9411 9.3950
L31.3211 9.3950
" />
<path d="M34.9411 10.6650
L34.9411 9.3950
" />
<path d="M34.9411 11.9350
L31.3211 11.9350
" />
<path d="M34.9411 13.2050
L34.9411 11.9350
" />
<path d="M34.9411 14.4750
L31.3211 14.4750
" />
<path d="M34.9411 15.7450
L34.9411 14.4750
" />
<path d="M34.9411 17.0150
L31.3211 17.0150
" />
<path d="M34.9411 18.2850
L34.9411 17.0150
" />
<path d="M34.9411 19.5550
L31.3211 19.5550
" />
<path d="M34.9411 20.8250
L34.9411 19.5550
" />
<path d="M34.9411 22.0950
L31.3211 22.0950
" />
<path d="M34.9411 23.3650
L34.9411 22.0950
" />
<path d="M34.9411 24.6350
L31.3211 24.6350
" />
<path d="M34.9411 25.9050
L34.9411 24.6350
" />
<path d="M34.9411 27.1750
L31.3211 27.1750
" />
<path d="M34.9411 28.4450
L34.9411 27.1750
" />
<path d="M34.9411 29.7150
L31.3211 29.7150
" />
<path d="M34.9411 30.9850
L34.9411 29.7150
" />
<path d="M36.5411 0.3000
L36.5411 1.6100
" />
<path d="M36.5411 3.2110
L36.5411 4.1510
" />
<path d="M36.5411 5.7510
L36.5411 6.6910
" />
<path d="M36.5411 8.2910
L36.5411 9.2310
" />
<path d="M36.5411 10.8310
L36.5411 11.7710
" />
<path d="M36.5411 13.3710
L36.5411 14.3110
" />
<path d="M36.5411 15.9110
L36.5411 16.8510
" />
<path d="M36.5411 18.4510
L36.5411 19.3910
" />
<path d="M36.5411 20.9910
L36.5411 21.9310
" />
<path d="M36.5411 23.5310
L36.5411 24.4700
" />
<path d="M36.5411 26.0710
L36.5411 27.0100
" />
<path d="M36.5411 28.6110
L36.5411 29.5500
" />
<path d="M36.5411 31.1500
L36.5411 32.4600
" />
</g>
<g style="fill:none; 
stroke:#FF26E2; stroke-width:0.0500; stroke-opacity:1; 
stroke-linecap:round; stroke-linejoin:round;">
<path d="M27.3311 0.0300
L27.3311 32.7300
" />
<path d="M27.3311 32.7300
L38.9311 32.7300
" />
<path d="M38.9311 0.0300
L27.3311 0.0300
" />
<path d="M38.9311 32.7300
L38.9311 0.0300
" />
</g>
<g style="fill:none; 
stroke:#AFAFAF; stroke-width:0.1588; stroke-opacity:1; 
stroke-linecap:round; stroke-linejoin:round;">
<text x="33.1311" y="17.0150"
textLength="66.2623" font-size="1.6933" lengthAdjust="spacingAndGlyphs"
text-anchor="middle" opacity="0">SW_DIP_SPSTx12_Slide_6.7x32.04mm_W8.61mm_P2.54mm_LowProfile</text>
<g class="stroked-text"><desc>SW_DIP_SPSTx12_Slide_6.7x32.04mm_W8.61mm_P2.54mm_LowProfile</desc>
<path d="M0.3530 16.8988
L0.5345 16.9593
" />
<path d="M0.5345 16.9593
L0.8368 16.9593
" />
<path d="M0.8368 16.9593
L0.9578 16.8988
" />
<path d="M0.9578 16.8988
L1.0183 16.8383
" />
<path d="M1.0183 16.8383
L1.0787 16.7174
" />
<path d="M1.0787 16.7174
L1.0787 16.5964
" />
<path d="M1.0787 16.5964
L1.0183 16.4755
" />
<path d="M1.0183 16.4755
L0.9578 16.4150
" />
<path d="M0.9578 16.4150
L0.8368 16.3545
" />
<path d="M0.8368 16.3545
L0.5949 16.2940
" />
<path d="M0.5949 16.2940
L0.4740 16.2336
" />
<path d="M0.4740 16.2336
L0.4135 16.1731
" />
<path d="M0.4135 16.1731
L0.3530 16.0521
" />
<path d="M0.3530 16.0521
L0.3530 15.9312
" />
<path d="M0.3530 15.9312
L0.4135 15.8102
" />
<path d="M0.4135 15.8102
L0.4740 15.7497
" />
<path d="M0.4740 15.7497
L0.5949 15.6893
" />
<path d="M0.5949 15.6893
L0.8973 15.6893
" />
<path d="M0.8973 15.6893
L1.0787 15.7497
" />
<path d="M1.5021 15.6893
L1.8045 16.9593
" />
<path d="M1.8045 16.9593
L2.0464 16.0521
" />
<path d="M2.0464 16.0521
L2.2883 16.9593
" />
<path d="M2.2883 16.9593
L2.5906 15.6893
" />
<path d="M2.7721 17.0802
L3.7397 17.0802
" />
<path d="M4.0421 16.9593
L4.0421 15.6893
" />
<path d="M4.0421 15.6893
L4.3445 15.6893
" />
<path d="M4.3445 15.6893
L4.5259 15.7497
" />
<path d="M4.5259 15.7497
L4.6468 15.8707
" />
<path d="M4.6468 15.8707
L4.7073 15.9917
" />
<path d="M4.7073 15.9917
L4.7678 16.2336
" />
<path d="M4.7678 16.2336
L4.7678 16.4150
" />
<path d="M4.7678 16.4150
L4.7073 16.6569
" />
<path d="M4.7073 16.6569
L4.6468 16.7778
" />
<path d="M4.6468 16.7778
L4.5259 16.8988
" />
<path d="M4.5259 16.8988
L4.3445 16.9593
" />
<path d="M4.3445 16.9593
L4.0421 16.9593
" />
<path d="M5.3121 16.9593
L5.3121 15.6893
" />
<path d="M5.9168 16.9593
L5.9168 15.6893
" />
<path d="M5.9168 15.6893
L6.4006 15.6893
" />
<path d="M6.4006 15.6893
L6.5216 15.7497
" />
<path d="M6.5216 15.7497
L6.5821 15.8102
" />
<path d="M6.5821 15.8102
L6.6426 15.9312
" />
<path d="M6.6426 15.9312
L6.6426 16.1126
" />
<path d="M6.6426 16.1126
L6.5821 16.2336
" />
<path d="M6.5821 16.2336
L6.5216 16.2940
" />
<path d="M6.5216 16.2940
L6.4006 16.3545
" />
<path d="M6.4006 16.3545
L5.9168 16.3545
" />
<path d="M6.8845 17.0802
L7.8521 17.0802
" />
<path d="M8.0940 16.8988
L8.2754 16.9593
" />
<path d="M8.2754 16.9593
L8.5778 16.9593
" />
<path d="M8.5778 16.9593
L8.6987 16.8988
" />
<path d="M8.6987 16.8988
L8.7592 16.8383
" />
<path d="M8.7592 16.8383
L8.8197 16.7174
" />
<path d="M8.8197 16.7174
L8.8197 16.5964
" />
<path d="M8.8197 16.5964
L8.7592 16.4755
" />
<path d="M8.7592 16.4755
L8.6987 16.4150
" />
<path d="M8.6987 16.4150
L8.5778 16.3545
" />
<path d="M8.5778 16.3545
L8.3359 16.2940
" />
<path d="M8.3359 16.2940
L8.2149 16.2336
" />
<path d="M8.2149 16.2336
L8.1545 16.1731
" />
<path d="M8.1545 16.1731
L8.0940 16.0521
" />
<path d="M8.0940 16.0521
L8.0940 15.9312
" />
<path d="M8.0940 15.9312
L8.1545 15.8102
" />
<path d="M8.1545 15.8102
L8.2149 15.7497
" />
<path d="M8.2149 15.7497
L8.3359 15.6893
" />
<path d="M8.3359 15.6893
L8.6383 15.6893
" />
<path d="M8.6383 15.6893
L8.8197 15.7497
" />
<path d="M9.3640 16.9593
L9.3640 15.6893
" />
<path d="M9.3640 15.6893
L9.8478 15.6893
" />
<path d="M9.8478 15.6893
L9.9687 15.7497
" />
<path d="M9.9687 15.7497
L10.0292 15.8102
" />
<path d="M10.0292 15.8102
L10.0897 15.9312
" />
<path d="M10.0897 15.9312
L10.0897 16.1126
" />
<path d="M10.0897 16.1126
L10.0292 16.2336
" />
<path d="M10.0292 16.2336
L9.9687 16.2940
" />
<path d="M9.9687 16.2940
L9.8478 16.3545
" />
<path d="M9.8478 16.3545
L9.3640 16.3545
" />
<path d="M10.5735 16.8988
L10.7549 16.9593
" />
<path d="M10.7549 16.9593
L11.0573 16.9593
" />
<path d="M11.0573 16.9593
L11.1783 16.8988
" />
<path d="M11.1783 16.8988
L11.2387 16.8383
" />
<path d="M11.2387 16.8383
L11.2992 16.7174
" />
<path d="M11.2992 16.7174
L11.2992 16.5964
" />
<path d="M11.2992 16.5964
L11.2387 16.4755
" />
<path d="M11.2387 16.4755
L11.1783 16.4150
" />
<path d="M11.1783 16.4150
L11.0573 16.3545
" />
<path d="M11.0573 16.3545
L10.8154 16.2940
" />
<path d="M10.8154 16.2940
L10.6945 16.2336
" />
<path d="M10.6945 16.2336
L10.6340 16.1731
" />
<path d="M10.6340 16.1731
L10.5735 16.0521
" />
<path d="M10.5735 16.0521
L10.5735 15.9312
" />
<path d="M10.5735 15.9312
L10.6340 15.8102
" />
<path d="M10.6340 15.8102
L10.6945 15.7497
" />
<path d="M10.6945 15.7497
L10.8154 15.6893
" />
<path d="M10.8154 15.6893
L11.1178 15.6893
" />
<path d="M11.1178 15.6893
L11.2992 15.7497
" />
<path d="M11.6621 15.6893
L12.3878 15.6893
" />
<path d="M12.0249 16.9593
L12.0249 15.6893
" />
<path d="M12.6902 16.9593
L13.3554 16.1126
" />
<path d="M12.6902 16.1126
L13.3554 16.9593
" />
<path d="M14.5045 16.9593
L13.7787 16.9593
" />
<path d="M14.1416 16.9593
L14.1416 15.6893
" />
<path d="M14.1416 15.6893
L14.0206 15.8707
" />
<path d="M14.0206 15.8707
L13.8997 15.9917
" />
<path d="M13.8997 15.9917
L13.7787 16.0521
" />
<path d="M14.9883 15.8102
L15.0487 15.7497
" />
<path d="M15.0487 15.7497
L15.1697 15.6893
" />
<path d="M15.1697 15.6893
L15.4721 15.6893
" />
<path d="M15.4721 15.6893
L15.5930 15.7497
" />
<path d="M15.5930 15.7497
L15.6535 15.8102
" />
<path d="M15.6535 15.8102
L15.7140 15.9312
" />
<path d="M15.7140 15.9312
L15.7140 16.0521
" />
<path d="M15.7140 16.0521
L15.6535 16.2336
" />
<path d="M15.6535 16.2336
L14.9278 16.9593
" />
<path d="M14.9278 16.9593
L15.7140 16.9593
" />
<path d="M15.9559 17.0802
L16.9235 17.0802
" />
<path d="M17.1654 16.8988
L17.3468 16.9593
" />
<path d="M17.3468 16.9593
L17.6492 16.9593
" />
<path d="M17.6492 16.9593
L17.7702 16.8988
" />
<path d="M17.7702 16.8988
L17.8306 16.8383
" />
<path d="M17.8306 16.8383
L17.8911 16.7174
" />
<path d="M17.8911 16.7174
L17.8911 16.5964
" />
<path d="M17.8911 16.5964
L17.8306 16.4755
" />
<path d="M17.8306 16.4755
L17.7702 16.4150
" />
<path d="M17.7702 16.4150
L17.6492 16.3545
" />
<path d="M17.6492 16.3545
L17.4073 16.2940
" />
<path d="M17.4073 16.2940
L17.2864 16.2336
" />
<path d="M17.2864 16.2336
L17.2259 16.1731
" />
<path d="M17.2259 16.1731
L17.1654 16.0521
" />
<path d="M17.1654 16.0521
L17.1654 15.9312
" />
<path d="M17.1654 15.9312
L17.2259 15.8102
" />
<path d="M17.2259 15.8102
L17.2864 15.7497
" />
<path d="M17.2864 15.7497
L17.4073 15.6893
" />
<path d="M17.4073 15.6893
L17.7097 15.6893
" />
<path d="M17.7097 15.6893
L17.8911 15.7497
" />
<path d="M18.6168 16.9593
L18.4959 16.8988
" />
<path d="M18.4959 16.8988
L18.4354 16.7778
" />
<path d="M18.4354 16.7778
L18.4354 15.6893
" />
<path d="M19.1006 16.9593
L19.1006 16.1126
" />
<path d="M19.1006 15.6893
L19.0402 15.7497
" />
<path d="M19.0402 15.7497
L19.1006 15.8102
" />
<path d="M19.1006 15.8102
L19.1611 15.7497
" />
<path d="M19.1611 15.7497
L19.1006 15.6893
" />
<path d="M19.1006 15.6893
L19.1006 15.8102
" />
<path d="M20.2497 16.9593
L20.2497 15.6893
" />
<path d="M20.2497 16.8988
L20.1287 16.9593
" />
<path d="M20.1287 16.9593
L19.8868 16.9593
" />
<path d="M19.8868 16.9593
L19.7659 16.8988
" />
<path d="M19.7659 16.8988
L19.7054 16.8383
" />
<path d="M19.7054 16.8383
L19.6449 16.7174
" />
<path d="M19.6449 16.7174
L19.6449 16.3545
" />
<path d="M19.6449 16.3545
L19.7054 16.2336
" />
<path d="M19.7054 16.2336
L19.7659 16.1731
" />
<path d="M19.7659 16.1731
L19.8868 16.1126
" />
<path d="M19.8868 16.1126
L20.1287 16.1126
" />
<path d="M20.1287 16.1126
L20.2497 16.1731
" />
<path d="M21.3383 16.8988
L21.2173 16.9593
" />
<path d="M21.2173 16.9593
L20.9754 16.9593
" />
<path d="M20.9754 16.9593
L20.8545 16.8988
" />
<path d="M20.8545 16.8988
L20.7940 16.7778
" />
<path d="M20.7940 16.7778
L20.7940 16.2940
" />
<path d="M20.7940 16.2940
L20.8545 16.1731
" />
<path d="M20.8545 16.1731
L20.9754 16.1126
" />
<path d="M20.9754 16.1126
L21.2173 16.1126
" />
<path d="M21.2173 16.1126
L21.3383 16.1731
" />
<path d="M21.3383 16.1731
L21.3987 16.2940
" />
<path d="M21.3987 16.2940
L21.3987 16.4150
" />
<path d="M21.3987 16.4150
L20.7940 16.5359
" />
<path d="M21.6406 17.0802
L22.6083 17.0802
" />
<path d="M23.4549 15.6893
L23.2130 15.6893
" />
<path d="M23.2130 15.6893
L23.0921 15.7497
" />
<path d="M23.0921 15.7497
L23.0316 15.8102
" />
<path d="M23.0316 15.8102
L22.9107 15.9917
" />
<path d="M22.9107 15.9917
L22.8502 16.2336
" />
<path d="M22.8502 16.2336
L22.8502 16.7174
" />
<path d="M22.8502 16.7174
L22.9107 16.8383
" />
<path d="M22.9107 16.8383
L22.9711 16.8988
" />
<path d="M22.9711 16.8988
L23.0921 16.9593
" />
<path d="M23.0921 16.9593
L23.3340 16.9593
" />
<path d="M23.3340 16.9593
L23.4549 16.8988
" />
<path d="M23.4549 16.8988
L23.5154 16.8383
" />
<path d="M23.5154 16.8383
L23.5759 16.7174
" />
<path d="M23.5759 16.7174
L23.5759 16.4150
" />
<path d="M23.5759 16.4150
L23.5154 16.2940
" />
<path d="M23.5154 16.2940
L23.4549 16.2336
" />
<path d="M23.4549 16.2336
L23.3340 16.1731
" />
<path d="M23.3340 16.1731
L23.0921 16.1731
" />
<path d="M23.0921 16.1731
L22.9711 16.2336
" />
<path d="M22.9711 16.2336
L22.9107 16.2940
" />
<path d="M22.9107 16.2940
L22.8502 16.4150
" />
<path d="M24.1202 16.8383
L24.1807 16.8988
" />
<path d="M24.1807 16.8988
L24.1202 16.9593
" />
<path d="M24.1202 16.9593
L24.0597 16.8988
" />
<path d="M24.0597 16.8988
L24.1202 16.8383
" />
<path d="M24.1202 16.8383
L24.1202 16.9593
" />
<path d="M24.6040 15.6893
L25.4507 15.6893
" />
<path d="M25.4507 15.6893
L24.9064 16.9593
" />
<path d="M25.8135 16.9593
L26.4787 16.1126
" />
<path d="M25.8135 16.1126
L26.4787 16.9593
" />
<path d="M26.8416 15.6893
L27.6278 15.6893
" />
<path d="M27.6278 15.6893
L27.2045 16.1731
" />
<path d="M27.2045 16.1731
L27.3859 16.1731
" />
<path d="M27.3859 16.1731
L27.5068 16.2336
" />
<path d="M27.5068 16.2336
L27.5673 16.2940
" />
<path d="M27.5673 16.2940
L27.6278 16.4150
" />
<path d="M27.6278 16.4150
L27.6278 16.7174
" />
<path d="M27.6278 16.7174
L27.5673 16.8383
" />
<path d="M27.5673 16.8383
L27.5068 16.8988
" />
<path d="M27.5068 16.8988
L27.3859 16.9593
" />
<path d="M27.3859 16.9593
L27.0230 16.9593
" />
<path d="M27.0230 16.9593
L26.9021 16.8988
" />
<path d="M26.9021 16.8988
L26.8416 16.8383
" />
<path d="M28.1116 15.8102
L28.1721 15.7497
" />
<path d="M28.1721 15.7497
L28.2930 15.6893
" />
<path d="M28.2930 15.6893
L28.5954 15.6893
" />
<path d="M28.5954 15.6893
L28.7164 15.7497
" />
<path d="M28.7164 15.7497
L28.7768 15.8102
" />
<path d="M28.7768 15.8102
L28.8373 15.9312
" />
<path d="M28.8373 15.9312
L28.8373 16.0521
" />
<path d="M28.8373 16.0521
L28.7768 16.2336
" />
<path d="M28.7768 16.2336
L28.0511 16.9593
" />
<path d="M28.0511 16.9593
L28.8373 16.9593
" />
<path d="M29.3816 16.8383
L29.4421 16.8988
" />
<path d="M29.4421 16.8988
L29.3816 16.9593
" />
<path d="M29.3816 16.9593
L29.3211 16.8988
" />
<path d="M29.3211 16.8988
L29.3816 16.8383
" />
<path d="M29.3816 16.8383
L29.3816 16.9593
" />
<path d="M30.2283 15.6893
L30.3492 15.6893
" />
<path d="M30.3492 15.6893
L30.4702 15.7497
" />
<path d="M30.4702 15.7497
L30.5307 15.8102
" />
<path d="M30.5307 15.8102
L30.5911 15.9312
" />
<path d="M30.5911 15.9312
L30.6516 16.1731
" />
<path d="M30.6516 16.1731
L30.6516 16.4755
" />
<path d="M30.6516 16.4755
L30.5911 16.7174
" />
<path d="M30.5911 16.7174
L30.5307 16.8383
" />
<path d="M30.5307 16.8383
L30.4702 16.8988
" />
<path d="M30.4702 16.8988
L30.3492 16.9593
" />
<path d="M30.3492 16.9593
L30.2283 16.9593
" />
<path d="M30.2283 16.9593
L30.1073 16.8988
" />
<path d="M30.1073 16.8988
L30.0468 16.8383
" />
<path d="M30.0468 16.8383
L29.9864 16.7174
" />
<path d="M29.9864 16.7174
L29.9259 16.4755
" />
<path d="M29.9259 16.4755
L29.9259 16.1731
" />
<path d="M29.9259 16.1731
L29.9864 15.9312
" />
<path d="M29.9864 15.9312
L30.0468 15.8102
" />
<path d="M30.0468 15.8102
L30.1073 15.7497
" />
<path d="M30.1073 15.7497
L30.2283 15.6893
" />
<path d="M31.7402 16.1126
L31.7402 16.9593
" />
<path d="M31.4378 15.6288
L31.1354 16.5359
" />
<path d="M31.1354 16.5359
L31.9216 16.5359
" />
<path d="M32.4054 16.9593
L32.4054 16.1126
" />
<path d="M32.4054 16.2336
L32.4659 16.1731
" />
<path d="M32.4659 16.1731
L32.5868 16.1126
" />
<path d="M32.5868 16.1126
L32.7683 16.1126
" />
<path d="M32.7683 16.1126
L32.8892 16.1731
" />
<path d="M32.8892 16.1731
L32.9497 16.2940
" />
<path d="M32.9497 16.2940
L32.9497 16.9593
" />
<path d="M32.9497 16.2940
L33.0102 16.1731
" />
<path d="M33.0102 16.1731
L33.1311 16.1126
" />
<path d="M33.1311 16.1126
L33.3126 16.1126
" />
<path d="M33.3126 16.1126
L33.4335 16.1731
" />
<path d="M33.4335 16.1731
L33.4940 16.2940
" />
<path d="M33.4940 16.2940
L33.4940 16.9593
" />
<path d="M34.0987 16.9593
L34.0987 16.1126
" />
<path d="M34.0987 16.2336
L34.1592 16.1731
" />
<path d="M34.1592 16.1731
L34.2802 16.1126
" />
<path d="M34.2802 16.1126
L34.4616 16.1126
" />
<path d="M34.4616 16.1126
L34.5826 16.1731
" />
<path d="M34.5826 16.1731
L34.6430 16.2940
" />
<path d="M34.6430 16.2940
L34.6430 16.9593
" />
<path d="M34.6430 16.2940
L34.7035 16.1731
" />
<path d="M34.7035 16.1731
L34.8245 16.1126
" />
<path d="M34.8245 16.1126
L35.0059 16.1126
" />
<path d="M35.0059 16.1126
L35.1268 16.1731
" />
<path d="M35.1268 16.1731
L35.1873 16.2940
" />
<path d="M35.1873 16.2940
L35.1873 16.9593
" />
<path d="M35.4897 17.0802
L36.4573 17.0802
" />
<path d="M36.6387 15.6893
L36.9411 16.9593
" />
<path d="M36.9411 16.9593
L37.1830 16.0521
" />
<path d="M37.1830 16.0521
L37.4249 16.9593
" />
<path d="M37.4249 16.9593
L37.7273 15.6893
" />
<path d="M38.3926 16.2336
L38.2716 16.1731
" />
<path d="M38.2716 16.1731
L38.2111 16.1126
" />
<path d="M38.2111 16.1126
L38.1506 15.9917
" />
<path d="M38.1506 15.9917
L38.1506 15.9312
" />
<path d="M38.1506 15.9312
L38.2111 15.8102
" />
<path d="M38.2111 15.8102
L38.2716 15.7497
" />
<path d="M38.2716 15.7497
L38.3926 15.6893
" />
<path d="M38.3926 15.6893
L38.6345 15.6893
" />
<path d="M38.6345 15.6893
L38.7554 15.7497
" />
<path d="M38.7554 15.7497
L38.8159 15.8102
" />
<path d="M38.8159 15.8102
L38.8764 15.9312
" />
<path d="M38.8764 15.9312
L38.8764 15.9917
" />
<path d="M38.8764 15.9917
L38.8159 16.1126
" />
<path d="M38.8159 16.1126
L38.7554 16.1731
" />
<path d="M38.7554 16.1731
L38.6345 16.2336
" />
<path d="M38.6345 16.2336
L38.3926 16.2336
" />
<path d="M38.3926 16.2336
L38.2716 16.2940
" />
<path d="M38.2716 16.2940
L38.2111 16.3545
" />
<path d="M38.2111 16.3545
L38.1506 16.4755
" />
<path d="M38.1506 16.4755
L38.1506 16.7174
" />
<path d="M38.1506 16.7174
L38.2111 16.8383
" />
<path d="M38.2111 16.8383
L38.2716 16.8988
" />
<path d="M38.2716 16.8988
L38.3926 16.9593
" />
<path d="M38.3926 16.9593
L38.6345 16.9593
" />
<path d="M38.6345 16.9593
L38.7554 16.8988
" />
<path d="M38.7554 16.8988
L38.8159 16.8383
" />
<path d="M38.8159 16.8383
L38.8764 16.7174
" />
<path d="M38.8764 16.7174
L38.8764 16.4755
" />
<path d="M38.8764 16.4755
L38.8159 16.3545
" />
<path d="M38.8159 16.3545
L38.7554 16.2940
" />
<path d="M38.7554 16.2940
L38.6345 16.2336
" />
<path d="M39.4206 16.8383
L39.4811 16.8988
" />
<path d="M39.4811 16.8988
L39.4206 16.9593
" />
<path d="M39.4206 16.9593
L39.3602 16.8988
" />
<path d="M39.3602 16.8988
L39.4206 16.8383
" />
<path d="M39.4206 16.8383
L39.4206 16.9593
" />
<path d="M40.5697 15.6893
L40.3278 15.6893
" />
<path d="M40.3278 15.6893
L40.2068 15.7497
" />
<path d="M40.2068 15.7497
L40.1464 15.8102
" />
<path d="M40.1464 15.8102
L40.0254 15.9917
" />
<path d="M40.0254 15.9917
L39.9649 16.2336
" />
<path d="M39.9649 16.2336
L39.9649 16.7174
" />
<path d="M39.9649 16.7174
L40.0254 16.8383
" />
<path d="M40.0254 16.8383
L40.0859 16.8988
" />
<path d="M40.0859 16.8988
L40.2068 16.9593
" />
<path d="M40.2068 16.9593
L40.4487 16.9593
" />
<path d="M40.4487 16.9593
L40.5697 16.8988
" />
<path d="M40.5697 16.8988
L40.6302 16.8383
" />
<path d="M40.6302 16.8383
L40.6907 16.7174
" />
<path d="M40.6907 16.7174
L40.6907 16.4150
" />
<path d="M40.6907 16.4150
L40.6302 16.2940
" />
<path d="M40.6302 16.2940
L40.5697 16.2336
" />
<path d="M40.5697 16.2336
L40.4487 16.1731
" />
<path d="M40.4487 16.1731
L40.2068 16.1731
" />
<path d="M40.2068 16.1731
L40.0859 16.2336
" />
<path d="M40.0859 16.2336
L40.0254 16.2940
" />
<path d="M40.0254 16.2940
L39.9649 16.4150
" />
<path d="M41.9002 16.9593
L41.1745 16.9593
" />
<path d="M41.5373 16.9593
L41.5373 15.6893
" />
<path d="M41.5373 15.6893
L41.4164 15.8707
" />
<path d="M41.4164 15.8707
L41.2954 15.9917
" />
<path d="M41.2954 15.9917
L41.1745 16.0521
" />
<path d="M42.4445 16.9593
L42.4445 16.1126
" />
<path d="M42.4445 16.2336
L42.5049 16.1731
" />
<path d="M42.5049 16.1731
L42.6259 16.1126
" />
<path d="M42.6259 16.1126
L42.8073 16.1126
" />
<path d="M42.8073 16.1126
L42.9283 16.1731
" />
<path d="M42.9283 16.1731
L42.9887 16.2940
" />
<path d="M42.9887 16.2940
L42.9887 16.9593
" />
<path d="M42.9887 16.2940
L43.0492 16.1731
" />
<path d="M43.0492 16.1731
L43.1702 16.1126
" />
<path d="M43.1702 16.1126
L43.3516 16.1126
" />
<path d="M43.3516 16.1126
L43.4726 16.1731
" />
<path d="M43.4726 16.1731
L43.5330 16.2940
" />
<path d="M43.5330 16.2940
L43.5330 16.9593
" />
<path d="M44.1378 16.9593
L44.1378 16.1126
" />
<path d="M44.1378 16.2336
L44.1983 16.1731
" />
<path d="M44.1983 16.1731
L44.3192 16.1126
" />
<path d="M44.3192 16.1126
L44.5007 16.1126
" />
<path d="M44.5007 16.1126
L44.6216 16.1731
" />
<path d="M44.6216 16.1731
L44.6821 16.2940
" />
<path d="M44.6821 16.2940
L44.6821 16.9593
" />
<path d="M44.6821 16.2940
L44.7426 16.1731
" />
<path d="M44.7426 16.1731
L44.8635 16.1126
" />
<path d="M44.8635 16.1126
L45.0449 16.1126
" />
<path d="M45.0449 16.1126
L45.1659 16.1731
" />
<path d="M45.1659 16.1731
L45.2264 16.2940
" />
<path d="M45.2264 16.2940
L45.2264 16.9593
" />
<path d="M45.5287 17.0802
L46.4964 17.0802
" />
<path d="M46.7987 16.9593
L46.7987 15.6893
" />
<path d="M46.7987 15.6893
L47.2826 15.6893
" />
<path d="M47.2826 15.6893
L47.4035 15.7497
" />
<path d="M47.4035 15.7497
L47.4640 15.8102
" />
<path d="M47.4640 15.8102
L47.5245 15.9312
" />
<path d="M47.5245 15.9312
L47.5245 16.1126
" />
<path d="M47.5245 16.1126
L47.4640 16.2336
" />
<path d="M47.4640 16.2336
L47.4035 16.2940
" />
<path d="M47.4035 16.2940
L47.2826 16.3545
" />
<path d="M47.2826 16.3545
L46.7987 16.3545
" />
<path d="M48.0083 15.8102
L48.0687 15.7497
" />
<path d="M48.0687 15.7497
L48.1897 15.6893
" />
<path d="M48.1897 15.6893
L48.4921 15.6893
" />
<path d="M48.4921 15.6893
L48.6130 15.7497
" />
<path d="M48.6130 15.7497
L48.6735 15.8102
" />
<path d="M48.6735 15.8102
L48.7340 15.9312
" />
<path d="M48.7340 15.9312
L48.7340 16.0521
" />
<path d="M48.7340 16.0521
L48.6735 16.2336
" />
<path d="M48.6735 16.2336
L47.9478 16.9593
" />
<path d="M47.9478 16.9593
L48.7340 16.9593
" />
<path d="M49.2783 16.8383
L49.3387 16.8988
" />
<path d="M49.3387 16.8988
L49.2783 16.9593
" />
<path d="M49.2783 16.9593
L49.2178 16.8988
" />
<path d="M49.2178 16.8988
L49.2783 16.8383
" />
<path d="M49.2783 16.8383
L49.2783 16.9593
" />
<path d="M50.4878 15.6893
L49.8830 15.6893
" />
<path d="M49.8830 15.6893
L49.8226 16.2940
" />
<path d="M49.8226 16.2940
L49.8830 16.2336
" />
<path d="M49.8830 16.2336
L50.0040 16.1731
" />
<path d="M50.0040 16.1731
L50.3064 16.1731
" />
<path d="M50.3064 16.1731
L50.4273 16.2336
" />
<path d="M50.4273 16.2336
L50.4878 16.2940
" />
<path d="M50.4878 16.2940
L50.5483 16.4150
" />
<path d="M50.5483 16.4150
L50.5483 16.7174
" />
<path d="M50.5483 16.7174
L50.4878 16.8383
" />
<path d="M50.4878 16.8383
L50.4273 16.8988
" />
<path d="M50.4273 16.8988
L50.3064 16.9593
" />
<path d="M50.3064 16.9593
L50.0040 16.9593
" />
<path d="M50.0040 16.9593
L49.8830 16.8988
" />
<path d="M49.8830 16.8988
L49.8226 16.8383
" />
<path d="M51.6368 16.1126
L51.6368 16.9593
" />
<path d="M51.3345 15.6288
L51.0321 16.5359
" />
<path d="M51.0321 16.5359
L51.8183 16.5359
" />
<path d="M52.3021 16.9593
L52.3021 16.1126
" />
<path d="M52.3021 16.2336
L52.3626 16.1731
" />
<path d="M52.3626 16.1731
L52.4835 16.1126
" />
<path d="M52.4835 16.1126
L52.6649 16.1126
" />
<path d="M52.6649 16.1126
L52.7859 16.1731
" />
<path d="M52.7859 16.1731
L52.8464 16.2940
" />
<path d="M52.8464 16.2940
L52.8464 16.9593
" />
<path d="M52.8464 16.2940
L52.9068 16.1731
" />
<path d="M52.9068 16.1731
L53.0278 16.1126
" />
<path d="M53.0278 16.1126
L53.2092 16.1126
" />
<path d="M53.2092 16.1126
L53.3302 16.1731
" />
<path d="M53.3302 16.1731
L53.3907 16.2940
" />
<path d="M53.3907 16.2940
L53.3907 16.9593
" />
<path d="M53.9954 16.9593
L53.9954 16.1126
" />
<path d="M53.9954 16.2336
L54.0559 16.1731
" />
<path d="M54.0559 16.1731
L54.1768 16.1126
" />
<path d="M54.1768 16.1126
L54.3583 16.1126
" />
<path d="M54.3583 16.1126
L54.4792 16.1731
" />
<path d="M54.4792 16.1731
L54.5397 16.2940
" />
<path d="M54.5397 16.2940
L54.5397 16.9593
" />
<path d="M54.5397 16.2940
L54.6002 16.1731
" />
<path d="M54.6002 16.1731
L54.7211 16.1126
" />
<path d="M54.7211 16.1126
L54.9026 16.1126
" />
<path d="M54.9026 16.1126
L55.0235 16.1731
" />
<path d="M55.0235 16.1731
L55.0840 16.2940
" />
<path d="M55.0840 16.2940
L55.0840 16.9593
" />
<path d="M55.3864 17.0802
L56.3540 17.0802
" />
<path d="M57.2611 16.9593
L56.6564 16.9593
" />
<path d="M56.6564 16.9593
L56.6564 15.6893
" />
<path d="M57.8659 16.9593
L57.7449 16.8988
" />
<path d="M57.7449 16.8988
L57.6845 16.8383
" />
<path d="M57.6845 16.8383
L57.6240 16.7174
" />
<path d="M57.6240 16.7174
L57.6240 16.3545
" />
<path d="M57.6240 16.3545
L57.6845 16.2336
" />
<path d="M57.6845 16.2336
L57.7449 16.1731
" />
<path d="M57.7449 16.1731
L57.8659 16.1126
" />
<path d="M57.8659 16.1126
L58.0473 16.1126
" />
<path d="M58.0473 16.1126
L58.1683 16.1731
" />
<path d="M58.1683 16.1731
L58.2287 16.2336
" />
<path d="M58.2287 16.2336
L58.2892 16.3545
" />
<path d="M58.2892 16.3545
L58.2892 16.7174
" />
<path d="M58.2892 16.7174
L58.2287 16.8383
" />
<path d="M58.2287 16.8383
L58.1683 16.8988
" />
<path d="M58.1683 16.8988
L58.0473 16.9593
" />
<path d="M58.0473 16.9593
L57.8659 16.9593
" />
<path d="M58.7126 16.1126
L58.9545 16.9593
" />
<path d="M58.9545 16.9593
L59.1964 16.3545
" />
<path d="M59.1964 16.3545
L59.4383 16.9593
" />
<path d="M59.4383 16.9593
L59.6802 16.1126
" />
<path d="M60.1640 16.9593
L60.1640 15.6893
" />
<path d="M60.1640 15.6893
L60.6478 15.6893
" />
<path d="M60.6478 15.6893
L60.7687 15.7497
" />
<path d="M60.7687 15.7497
L60.8292 15.8102
" />
<path d="M60.8292 15.8102
L60.8897 15.9312
" />
<path d="M60.8897 15.9312
L60.8897 16.1126
" />
<path d="M60.8897 16.1126
L60.8292 16.2336
" />
<path d="M60.8292 16.2336
L60.7687 16.2940
" />
<path d="M60.7687 16.2940
L60.6478 16.3545
" />
<path d="M60.6478 16.3545
L60.1640 16.3545
" />
<path d="M61.4340 16.9593
L61.4340 16.1126
" />
<path d="M61.4340 16.3545
L61.4945 16.2336
" />
<path d="M61.4945 16.2336
L61.5549 16.1731
" />
<path d="M61.5549 16.1731
L61.6759 16.1126
" />
<path d="M61.6759 16.1126
L61.7968 16.1126
" />
<path d="M62.4016 16.9593
L62.2806 16.8988
" />
<path d="M62.2806 16.8988
L62.2202 16.8383
" />
<path d="M62.2202 16.8383
L62.1597 16.7174
" />
<path d="M62.1597 16.7174
L62.1597 16.3545
" />
<path d="M62.1597 16.3545
L62.2202 16.2336
" />
<path d="M62.2202 16.2336
L62.2806 16.1731
" />
<path d="M62.2806 16.1731
L62.4016 16.1126
" />
<path d="M62.4016 16.1126
L62.5830 16.1126
" />
<path d="M62.5830 16.1126
L62.7040 16.1731
" />
<path d="M62.7040 16.1731
L62.7645 16.2336
" />
<path d="M62.7645 16.2336
L62.8249 16.3545
" />
<path d="M62.8249 16.3545
L62.8249 16.7174
" />
<path d="M62.8249 16.7174
L62.7645 16.8383
" />
<path d="M62.7645 16.8383
L62.7040 16.8988
" />
<path d="M62.7040 16.8988
L62.5830 16.9593
" />
<path d="M62.5830 16.9593
L62.4016 16.9593
" />
<path d="M63.1878 16.1126
L63.6716 16.1126
" />
<path d="M63.3692 16.9593
L63.3692 15.8707
" />
<path d="M63.3692 15.8707
L63.4297 15.7497
" />
<path d="M63.4297 15.7497
L63.5506 15.6893
" />
<path d="M63.5506 15.6893
L63.6716 15.6893
" />
<path d="M64.0949 16.9593
L64.0949 16.1126
" />
<path d="M64.0949 15.6893
L64.0345 15.7497
" />
<path d="M64.0345 15.7497
L64.0949 15.8102
" />
<path d="M64.0949 15.8102
L64.1554 15.7497
" />
<path d="M64.1554 15.7497
L64.0949 15.6893
" />
<path d="M64.0949 15.6893
L64.0949 15.8102
" />
<path d="M64.8811 16.9593
L64.7602 16.8988
" />
<path d="M64.7602 16.8988
L64.6997 16.7778
" />
<path d="M64.6997 16.7778
L64.6997 15.6893
" />
<path d="M65.8487 16.8988
L65.7278 16.9593
" />
<path d="M65.7278 16.9593
L65.4859 16.9593
" />
<path d="M65.4859 16.9593
L65.3649 16.8988
" />
<path d="M65.3649 16.8988
L65.3045 16.7778
" />
<path d="M65.3045 16.7778
L65.3045 16.2940
" />
<path d="M65.3045 16.2940
L65.3649 16.1731
" />
<path d="M65.3649 16.1731
L65.4859 16.1126
" />
<path d="M65.4859 16.1126
L65.7278 16.1126
" />
<path d="M65.7278 16.1126
L65.8487 16.1731
" />
<path d="M65.8487 16.1731
L65.9092 16.2940
" />
<path d="M65.9092 16.2940
L65.9092 16.4150
" />
<path d="M65.9092 16.4150
L65.3045 16.5359
" />
</g></g>
<g style="fill:none; 
stroke:#AFAFAF; stroke-width:0.1200; stroke-opacity:1; 
stroke-linecap:round; stroke-linejoin:round;">
<g transform="rotate(-90.000000 35.7111 16.3800)">
<text x="35.7111" y="16.7800"
textLength="3.6286" font-size="1.0667" lengthAdjust="spacingAndGlyphs"
text-anchor="middle" opacity="0">REF**</text>
</g>
<g class="stroked-text"><desc>REF**</desc>
<path d="M36.0750 17.4467
L35.6940 17.7133
" />
<path d="M36.0750 17.9038
L35.2750 17.9038
" />
<path d="M35.2750 17.9038
L35.2750 17.5990
" />
<path d="M35.2750 17.5990
L35.3131 17.5229
" />
<path d="M35.3131 17.5229
L35.3512 17.4848
" />
<path d="M35.3512 17.4848
L35.4274 17.4467
" />
<path d="M35.4274 17.4467
L35.5416 17.4467
" />
<path d="M35.5416 17.4467
L35.6178 17.4848
" />
<path d="M35.6178 17.4848
L35.6559 17.5229
" />
<path d="M35.6559 17.5229
L35.6940 17.5990
" />
<path d="M35.6940 17.5990
L35.6940 17.9038
" />
<path d="M35.6559 17.1038
L35.6559 16.8371
" />
<path d="M36.0750 16.7229
L36.0750 17.1038
" />
<path d="M36.0750 17.1038
L35.2750 17.1038
" />
<path d="M35.2750 17.1038
L35.2750 16.7229
" />
<path d="M35.6559 16.1133
L35.6559 16.3800
" />
<path d="M36.0750 16.3800
L35.2750 16.3800
" />
<path d="M35.2750 16.3800
L35.2750 15.9990
" />
<path d="M35.2750 15.5800
L35.4655 15.5800
" />
<path d="M35.3893 15.7705
L35.4655 15.5800
" />
<path d="M35.4655 15.5800
L35.3893 15.3895
" />
<path d="M35.6178 15.6943
L35.4655 15.5800
" />
<path d="M35.4655 15.5800
L35.6178 15.4657
" />
<path d="M35.2750 14.9705
L35.4655 14.9705
" />
<path d="M35.3893 15.1610
L35.4655 14.9705
" />
<path d="M35.4655 14.9705
L35.3893 14.7800
" />
<path d="M35.6178 15.0848
L35.4655 14.9705
" />
<path d="M35.4655 14.9705
L35.6178 14.8562
" />
</g><text x="33.5586" y="1.4675"
textLength="1.6476" font-size="1.0667" lengthAdjust="spacingAndGlyphs"
text-anchor="middle" opacity="0">on</text>
<g class="stroked-text"><desc>on</desc>
<path d="M33.1396 1.4314
L33.0634 1.3933
" />
<path d="M33.0634 1.3933
L33.0253 1.3552
" />
<path d="M33.0253 1.3552
L32.9872 1.2790
" />
<path d="M32.9872 1.2790
L32.9872 1.0504
" />
<path d="M32.9872 1.0504
L33.0253 0.9742
" />
<path d="M33.0253 0.9742
L33.0634 0.9361
" />
<path d="M33.0634 0.9361
L33.1396 0.8980
" />
<path d="M33.1396 0.8980
L33.2539 0.8980
" />
<path d="M33.2539 0.8980
L33.3301 0.9361
" />
<path d="M33.3301 0.9361
L33.3681 0.9742
" />
<path d="M33.3681 0.9742
L33.4062 1.0504
" />
<path d="M33.4062 1.0504
L33.4062 1.2790
" />
<path d="M33.4062 1.2790
L33.3681 1.3552
" />
<path d="M33.3681 1.3552
L33.3301 1.3933
" />
<path d="M33.3301 1.3933
L33.2539 1.4314
" />
<path d="M33.2539 1.4314
L33.1396 1.4314
" />
<path d="M33.7491 0.8980
L33.7491 1.4314
" />
<path d="M33.7491 0.9742
L33.7872 0.9361
" />
<path d="M33.7872 0.9361
L33.8634 0.8980
" />
<path d="M33.8634 0.8980
L33.9777 0.8980
" />
<path d="M33.9777 0.8980
L34.0539 0.9361
" />
<path d="M34.0539 0.9361
L34.0920 1.0123
" />
<path d="M34.0920 1.0123
L34.0920 1.4314
" />
</g></g>
<g style="fill:none; 
stroke:#AFAFAF; stroke-width:0.1000; stroke-opacity:1; 
stroke-linecap:round; stroke-linejoin:round;">
<path d="M29.7811 1.3600
L30.7811 0.3600
" />
<path d="M29.7811 32.4000
L29.7811 1.3600
" />
<path d="M30.7811 0.3600
L36.4811 0.3600
" />
<path d="M31.3211 1.7750
L31.3211 3.0450
" />
<path d="M31.3211 1.8750
L32.5278 1.8750
" />
<path d="M31.3211 1.9750
L32.5278 1.9750
" />
<path d="M31.3211 2.0750
L32.5278 2.0750
" />
<path d="M31.3211 2.1750
L32.5278 2.1750
" />
<path d="M31.3211 2.2750
L32.5278 2.2750
" />
<path d="M31.3211 2.3750
L32.5278 2.3750
" />
<path d="M31.3211 2.4750
L32.5278 2.4750
" />
<path d="M31.3211 2.5750
L32.5278 2.5750
" />
<path d="M31.3211 2.6750
L32.5278 2.6750
" />
<path d="M31.3211 2.7750
L32.5278 2.7750
" />
<path d="M31.3211 2.8750
L32.5278 2.8750
" />
<path d="M31.3211 2.9750
L32.5278 2.9750
" />
<path d="M31.3211 3.0450
L34.9411 3.0450
" />
<path d="M31.3211 4.3150
L31.3211 5.5850
" />
<path d="M31.3211 4.4150
L32.5278 4.4150
" />
<path d="M31.3211 4.5150
L32.5278 4.5150
" />
<path d="M31.3211 4.6150
L32.5278 4.6150
" />
<path d="M31.3211 4.7150
L32.5278 4.7150
" />
<path d="M31.3211 4.8150
L32.5278 4.8150
" />
<path d="M31.3211 4.9150
L32.5278 4.9150
" />
<path d="M31.3211 5.0150
L32.5278 5.0150
" />
<path d="M31.3211 5.1150
L32.5278 5.1150
" />
<path d="M31.3211 5.2150
L32.5278 5.2150
" />
<path d="M31.3211 5.3150
L32.5278 5.3150
" />
<path d="M31.3211 5.4150
L32.5278 5.4150
" />
<path d="M31.3211 5.5150
L32.5278 5.5150
" />
<path d="M31.3211 5.5850
L34.9411 5.5850
" />
<path d="M31.3211 6.8550
L31.3211 8.1250
" />
<path d="M31.3211 6.9550
L32.5278 6.9550
" />
<path d="M31.3211 7.0550
L32.5278 7.0550
" />
<path d="M31.3211 7.1550
L32.5278 7.1550
" />
<path d="M31.3211 7.2550
L32.5278 7.2550
" />
<path d="M31.3211 7.3550
L32.5278 7.3550
" />
<path d="M31.3211 7.4550
L32.5278 7.4550
" />
<path d="M31.3211 7.5550
L32.5278 7.5550
" />
<path d="M31.3211 7.6550
L32.5278 7.6550
" />
<path d="M31.3211 7.7550
L32.5278 7.7550
" />
<path d="M31.3211 7.8550
L32.5278 7.8550
" />
<path d="M31.3211 7.9550
L32.5278 7.9550
" />
<path d="M31.3211 8.0550
L32.5278 8.0550
" />
<path d="M31.3211 8.1250
L34.9411 8.1250
" />
<path d="M31.3211 9.3950
L31.3211 10.6650
" />
<path d="M31.3211 9.4950
L32.5278 9.4950
" />
<path d="M31.3211 9.5950
L32.5278 9.5950
" />
<path d="M31.3211 9.6950
L32.5278 9.6950
" />
<path d="M31.3211 9.7950
L32.5278 9.7950
" />
<path d="M31.3211 9.8950
L32.5278 9.8950
" />
<path d="M31.3211 9.9950
L32.5278 9.9950
" />
<path d="M31.3211 10.0950
L32.5278 10.0950
" />
<path d="M31.3211 10.1950
L32.5278 10.1950
" />
<path d="M31.3211 10.2950
L32.5278 10.2950
" />
<path d="M31.3211 10.3950
L32.5278 10.3950
" />
<path d="M31.3211 10.4950
L32.5278 10.4950
" />
<path d="M31.3211 10.5950
L32.5278 10.5950
" />
<path d="M31.3211 10.6650
L34.9411 10.6650
" />
<path d="M31.3211 11.9350
L31.3211 13.2050
" />
<path d="M31.3211 12.0350
L32.5278 12.0350
" />
<path d="M31.3211 12.1350
L32.5278 12.1350
" />
<path d="M31.3211 12.2350
L32.5278 12.2350
" />
<path d="M31.3211 12.3350
L32.5278 12.3350
" />
<path d="M31.3211 12.4350
L32.5278 12.4350
" />
<path d="M31.3211 12.5350
L32.5278 12.5350
" />
<path d="M31.3211 12.6350
L32.5278 12.6350
" />
<path d="M31.3211 12.7350
L32.5278 12.7350
" />
<path d="M31.3211 12.8350
L32.5278 12.8350
" />
<path d="M31.3211 12.9350
L32.5278 12.9350
" />
<path d="M31.3211 13.0350
L32.5278 13.0350
" />
<path d="M31.3211 13.1350
L32.5278 13.1350
" />
<path d="M31.3211 13.2050
L34.9411 13.2050
" />
<path d="M31.3211 14.4750
L31.3211 15.7450
" />
<path d="M31.3211 14.5750
L32.5278 14.5750
" />
<path d="M31.3211 14.6750
L32.5278 14.6750
" />
<path d="M31.3211 14.7750
L32.5278 14.7750
" />
<path d="M31.3211 14.8750
L32.5278 14.8750
" />
<path d="M31.3211 14.9750
L32.5278 14.9750
" />
<path d="M31.3211 15.0750
L32.5278 15.0750
" />
<path d="M31.3211 15.1750
L32.5278 15.1750
" />
<path d="M31.3211 15.2750
L32.5278 15.2750
" />
<path d="M31.3211 15.3750
L32.5278 15.3750
" />
<path d="M31.3211 15.4750
L32.5278 15.4750
" />
<path d="M31.3211 15.5750
L32.5278 15.5750
" />
<path d="M31.3211 15.6750
L32.5278 15.6750
" />
<path d="M31.3211 15.7450
L34.9411 15.7450
" />
<path d="M31.3211 17.0150
L31.3211 18.2850
" />
<path d="M31.3211 17.1150
L32.5278 17.1150
" />
<path d="M31.3211 17.2150
L32.5278 17.2150
" />
<path d="M31.3211 17.3150
L32.5278 17.3150
" />
<path d="M31.3211 17.4150
L32.5278 17.4150
" />
<path d="M31.3211 17.5150
L32.5278 17.5150
" />
<path d="M31.3211 17.6150
L32.5278 17.6150
" />
<path d="M31.3211 17.7150
L32.5278 17.7150
" />
<path d="M31.3211 17.8150
L32.5278 17.8150
" />
<path d="M31.3211 17.9150
L32.5278 17.9150
" />
<path d="M31.3211 18.0150
L32.5278 18.0150
" />
<path d="M31.3211 18.1150
L32.5278 18.1150
" />
<path d="M31.3211 18.2150
L32.5278 18.2150
" />
<path d="M31.3211 18.2850
L34.9411 18.2850
" />
<path d="M31.3211 19.5550
L31.3211 20.8250
" />
<path d="M31.3211 19.6550
L32.5278 19.6550
" />
<path d="M31.3211 19.7550
L32.5278 19.7550
" />
<path d="M31.3211 19.8550
L32.5278 19.8550
" />
<path d="M31.3211 19.9550
L32.5278 19.9550
" />
<path d="M31.3211 20.0550
L32.5278 20.0550
" />
<path d="M31.3211 20.1550
L32.5278 20.1550
" />
<path d="M31.3211 20.2550
L32.5278 20.2550
" />
<path d="M31.3211 20.3550
L32.5278 20.3550
" />
<path d="M31.3211 20.4550
L32.5278 20.4550
" />
<path d="M31.3211 20.5550
L32.5278 20.5550
" />
<path d="M31.3211 20.6550
L32.5278 20.6550
" />
<path d="M31.3211 20.7550
L32.5278 20.7550
" />
<path d="M31.3211 20.8250
L34.9411 20.8250
" />
<path d="M31.3211 22.0950
L31.3211 23.3650
" />
<path d="M31.3211 22.1950
L32.5278 22.1950
" />
<path d="M31.3211 22.2950
L32.5278 22.2950
" />
<path d="M31.3211 22.3950
L32.5278 22.3950
" />
<path d="M31.3211 22.4950
L32.5278 22.4950
" />
<path d="M31.3211 22.5950
L32.5278 22.5950
" />
<path d="M31.3211 22.6950
L32.5278 22.6950
" />
<path d="M31.3211 22.7950
L32.5278 22.7950
" />
<path d="M31.3211 22.8950
L32.5278 22.8950
" />
<path d="M31.3211 22.9950
L32.5278 22.9950
" />
<path d="M31.3211 23.0950
L32.5278 23.0950
" />
<path d="M31.3211 23.1950
L32.5278 23.1950
" />
<path d="M31.3211 23.2950
L32.5278 23.2950
" />
<path d="M31.3211 23.3650
L34.9411 23.3650
" />
<path d="M31.3211 24.6350
L31.3211 25.9050
" />
<path d="M31.3211 24.7350
L32.5278 24.7350
" />
<path d="M31.3211 24.8350
L32.5278 24.8350
" />
<path d="M31.3211 24.9350
L32.5278 24.9350
" />
<path d="M31.3211 25.0350
L32.5278 25.0350
" />
<path d="M31.3211 25.1350
L32.5278 25.1350
" />
<path d="M31.3211 25.2350
L32.5278 25.2350
" />
<path d="M31.3211 25.3350
L32.5278 25.3350
" />
<path d="M31.3211 25.4350
L32.5278 25.4350
" />
<path d="M31.3211 25.5350
L32.5278 25.5350
" />
<path d="M31.3211 25.6350
L32.5278 25.6350
" />
<path d="M31.3211 25.7350
L32.5278 25.7350
" />
<path d="M31.3211 25.8350
L32.5278 25.8350
" />
<path d="M31.3211 25.9050
L34.9411 25.9050
" />
<path d="M31.3211 27.1750
L31.3211 28.4450
" />
<path d="M31.3211 27.2750
L32.5278 27.2750
" />
<path d="M31.3211 27.3750
L32.5278 27.3750
" />
<path d="M31.3211 27.4750
L32.5278 27.4750
" />
<path d="M31.3211 27.5750
L32.5278 27.5750
" />
<path d="M31.3211 27.6750
L32.5278 27.6750
" />
<path d="M31.3211 27.7750
L32.5278 27.7750
" />
<path d="M31.3211 27.8750
L32.5278 27.8750
" />
<path d="M31.3211 27.9750
L32.5278 27.9750
" />
<path d="M31.3211 28.0750
L32.5278 28.0750
" />
<path d="M31.3211 28.1750
L32.5278 28.1750
" />
<path d="M31.3211 28.2750
L32.5278 28.2750
" />
<path d="M31.3211 28.3750
L32.5278 28.3750
" />
<path d="M31.3211 28.4450
L34.9411 28.4450
" />
<path d="M31.3211 29.7150
L31.3211 30.9850
" />
<path d="M31.3211 29.8150
L32.5278 29.8150
" />
<path d="M31.3211 29.9150
L32.5278 29.9150
" />
<path d="M31.3211 30.0150
L32.5278 30.0150
" />
<path d="M31.3211 30.1150
L32.5278 30.1150
" />
<path d="M31.3211 30.2150
L32.5278 30.2150
" />
<path d="M31.3211 30.3150
L32.5278 30.3150
" />
<path d="M31.3211 30.4150
L32.5278 30.4150
" />
<path d="M31.3211 30.5150
L32.5278 30.5150
" />
<path d="M31.3211 30.6150
L32.5278 30.6150
" />
<path d="M31.3211 30.7150
L32.5278 30.7150
" />
<path d="M31.3211 30.8150
L32.5278 30.8150
" />
<path d="M31.3211 30.9150
L32.5278 30.9150
" />
<path d="M31.3211 30.9850
L34.9411 30.9850
" />
<path d="M32.5278 1.7750
L32.5278 3.0450
" />
<path d="M32.5278 4.3150
L32.5278 5.5850
" />
<path d="M32.5278 6.8550
L32.5278 8.1250
" />
<path d="M32.5278 9.3950
L32.5278 10.6650
" />
<path d="M32.5278 11.9350
L32.5278 13.2050
" />
<path d="M32.5278 14.4750
L32.5278 15.7450
" />
<path d="M32.5278 17.0150
L32.5278 18.2850
" />
<path d="M32.5278 19.5550
L32.5278 20.8250
" />
<path d="M32.5278 22.0950
L32.5278 23.3650
" />
<path d="M32.5278 24.6350
L32.5278 25.9050
" />
<path d="M32.5278 27.1750
L32.5278 28.4450
" />
<path d="M32.5278 29.7150
L32.5278 30.9850
" />
<path d="M34.9411 1.7750
L31.3211 1.7750
" />
<path d="M34.9411 3.0450
L34.9411 1.7750
" />
<path d="M34.9411 4.3150
L31.3211 4.3150
" />
<path d="M34.9411 5.5850
L34.9411 4.3150
" />
<path d="M34.9411 6.8550
L31.3211 6.8550
" />
<path d="M34.9411 8.1250
L34.9411 6.8550
" />
<path d="M34.9411 9.3950
L31.3211 9.3950
" />
<path d="M34.9411 10.6650
L34.9411 9.3950
" />
<path d="M34.9411 11.9350
L31.3211 11.9350
" />
<path d="M34.9411 13.2050
L34.9411 11.9350
" />
<path d="M34.9411 14.4750
L31.3211 14.4750
" />
<path d="M34.9411 15.7450
L34.9411 14.4750
" />
<path d="M34.9411 17.0150
L31.3211 17.0150
" />
<path d="M34.9411 18.2850
L34.9411 17.0150
" />
<path d="M34.9411 19.5550
L31.3211 19.5550
" />
<path d="M34.9411 20.8250
L34.9411 19.5550
" />
<path d="M34.9411 22.0950
L31.3211 22.0950
" />
<path d="M34.9411 23.3650
L34.9411 22.0950
" />
<path d="M34.9411 24.6350
L31.3211 24.6350
" />
<path d="M34.9411 25.9050
L34.9411 24.6350
" />
<path d="M34.9411 27.1750
L31.3211 27.1750
" />
<path d="M34.9411 28.4450
L34.9411 27.1750
" />
<path d="M34.9411 29.7150
L31.3211 29.7150
" />
<path d="M34.9411 30.9850
L34.9411 29.7150
" />
<path d="M36.4811 0.3600
L36.4811 32.4000
" />
<path d="M36.4811 32.4000
L29.7811 32.4000
" />
</g> 
</svg>
