<?xml version="1.0" standalone="no"?>
 <!DOCTYPE svg PUBLIC "-//W3C//DTD SVG 1.1//EN" 
 "http://www.w3.org/Graphics/SVG/1.1/DTD/svg11.dtd"> 
<svg
  xmlns:svg="http://www.w3.org/2000/svg"
  xmlns="http://www.w3.org/2000/svg"
  xmlns:xlink="http://www.w3.org/1999/xlink"
  version="1.1"
  width="56.2610mm" height="19.0754mm" viewBox="0.0000 0.0000 56.2610 19.0754">
<title>SVG Image created as working-brd.svg date 2024/04/13 10:11:29 </title>
  <desc>Image generated by PCBNEW </desc>
<g style="fill:#000000; fill-opacity:1.0000;stroke:#000000; stroke-opacity:1.0000;
stroke-linecap:round; stroke-linejoin:round;"
 transform="translate(0 0) scale(1 1)">
</g>
<g style="fill:#FFFFFF; fill-opacity:1.0000; stroke:none;">
<circle cx="28.1418" cy="10.8750" r="1.0000" /> 
</g>
<g style="fill:#FFFFFF; fill-opacity:1.0000; stroke:none;">
<circle cx="50.6418" cy="10.8750" r="1.0000" /> 
</g>
<g style="fill:#FFFFFF; fill-opacity:1.0000; stroke:none;">
<circle cx="28.1418" cy="3.8750" r="0.4300" /> 
</g>
<g style="fill:#FFFFFF; fill-opacity:1.0000; stroke:none;">
<circle cx="30.6418" cy="3.8750" r="0.4300" /> 
</g>
<g style="fill:#FFFFFF; fill-opacity:1.0000; stroke:none;">
<circle cx="33.1418" cy="3.8750" r="0.4300" /> 
</g>
<g style="fill:#FFFFFF; fill-opacity:1.0000; stroke:none;">
<circle cx="35.6418" cy="3.8750" r="0.4300" /> 
</g>
<g style="fill:#FFFFFF; fill-opacity:1.0000; stroke:none;">
<circle cx="38.1418" cy="3.8750" r="0.4300" /> 
</g>
<g style="fill:#FFFFFF; fill-opacity:1.0000; stroke:none;">
<circle cx="40.6418" cy="3.8750" r="0.4300" /> 
</g>
<g style="fill:#FFFFFF; fill-opacity:1.0000; stroke:none;">
<circle cx="43.1418" cy="3.8750" r="0.4300" /> 
</g>
<g style="fill:#FFFFFF; fill-opacity:1.0000; stroke:none;">
<circle cx="45.6418" cy="3.8750" r="0.4300" /> 
</g>
<g style="fill:#FFFFFF; fill-opacity:1.0000; stroke:none;">
<circle cx="48.1418" cy="3.8750" r="0.4300" /> 
</g>
<g style="fill:#FFFFFF; fill-opacity:1.0000; stroke:none;">
<circle cx="50.6418" cy="3.8750" r="0.4300" /> 
</g>
<g style="fill:#FFFFFF; fill-opacity:1.0000; stroke:none;">
<circle cx="28.1418" cy="1.3750" r="0.4300" /> 
</g>
<g style="fill:#FFFFFF; fill-opacity:1.0000; stroke:none;">
<circle cx="30.6418" cy="1.3750" r="0.4300" /> 
</g>
<g style="fill:#FFFFFF; fill-opacity:1.0000; stroke:none;">
<circle cx="33.1418" cy="1.3750" r="0.4300" /> 
</g>
<g style="fill:#FFFFFF; fill-opacity:1.0000; stroke:none;">
<circle cx="35.6418" cy="1.3750" r="0.4300" /> 
</g>
<g style="fill:#FFFFFF; fill-opacity:1.0000; stroke:none;">
<circle cx="38.1418" cy="1.3750" r="0.4300" /> 
</g>
<g style="fill:#FFFFFF; fill-opacity:1.0000; stroke:none;">
<circle cx="40.6418" cy="1.3750" r="0.4300" /> 
</g>
<g style="fill:#FFFFFF; fill-opacity:1.0000; stroke:none;">
<circle cx="43.1418" cy="1.3750" r="0.4300" /> 
</g>
<g style="fill:#FFFFFF; fill-opacity:1.0000; stroke:none;">
<circle cx="45.6418" cy="1.3750" r="0.4300" /> 
</g>
<g style="fill:#FFFFFF; fill-opacity:1.0000; stroke:none;">
<circle cx="48.1418" cy="1.3750" r="0.4300" /> 
</g>
<g style="fill:#FFFFFF; fill-opacity:1.0000; stroke:none;">
<circle cx="50.6418" cy="1.3750" r="0.4300" /> 
</g>
<g style="fill:#02FFEE; fill-opacity:0.4000; stroke:none;">
<circle cx="28.1418" cy="10.8750" r="1.7000" /> 
</g>
<g style="fill:#02FFEE; fill-opacity:0.4000; stroke:none;">
<circle cx="50.6418" cy="10.8750" r="1.7000" /> 
<path style="fill:#02FFEE; fill-opacity:0.4000; stroke:none;fill-rule:evenodd;"
d="M 27.2918,3.2750
27.3109,3.1793
27.3651,3.0982
27.4462,3.0440
27.5418,3.0250
28.7418,3.0250
28.8375,3.0440
28.9186,3.0982
28.9728,3.1793
28.9918,3.2750
28.9918,4.4750
28.9728,4.5707
28.9186,4.6518
28.8375,4.7060
28.7418,4.7250
27.5418,4.7250
27.4462,4.7060
27.3651,4.6518
27.3109,4.5707
27.2918,4.4750
Z" /> 
</g>
<g style="fill:#02FFEE; fill-opacity:0.4000; stroke:none;">
<circle cx="30.6418" cy="3.8750" r="0.8500" /> 
</g>
<g style="fill:#02FFEE; fill-opacity:0.4000; stroke:none;">
<circle cx="33.1418" cy="3.8750" r="0.8500" /> 
</g>
<g style="fill:#02FFEE; fill-opacity:0.4000; stroke:none;">
<circle cx="35.6418" cy="3.8750" r="0.8500" /> 
</g>
<g style="fill:#02FFEE; fill-opacity:0.4000; stroke:none;">
<circle cx="38.1418" cy="3.8750" r="0.8500" /> 
</g>
<g style="fill:#02FFEE; fill-opacity:0.4000; stroke:none;">
<circle cx="40.6418" cy="3.8750" r="0.8500" /> 
</g>
<g style="fill:#02FFEE; fill-opacity:0.4000; stroke:none;">
<circle cx="43.1418" cy="3.8750" r="0.8500" /> 
</g>
<g style="fill:#02FFEE; fill-opacity:0.4000; stroke:none;">
<circle cx="45.6418" cy="3.8750" r="0.8500" /> 
</g>
<g style="fill:#02FFEE; fill-opacity:0.4000; stroke:none;">
<circle cx="48.1418" cy="3.8750" r="0.8500" /> 
</g>
<g style="fill:#02FFEE; fill-opacity:0.4000; stroke:none;">
<circle cx="50.6418" cy="3.8750" r="0.8500" /> 
</g>
<g style="fill:#02FFEE; fill-opacity:0.4000; stroke:none;">
<circle cx="28.1418" cy="1.3750" r="0.8500" /> 
</g>
<g style="fill:#02FFEE; fill-opacity:0.4000; stroke:none;">
<circle cx="30.6418" cy="1.3750" r="0.8500" /> 
</g>
<g style="fill:#02FFEE; fill-opacity:0.4000; stroke:none;">
<circle cx="33.1418" cy="1.3750" r="0.8500" /> 
</g>
<g style="fill:#02FFEE; fill-opacity:0.4000; stroke:none;">
<circle cx="35.6418" cy="1.3750" r="0.8500" /> 
</g>
<g style="fill:#02FFEE; fill-opacity:0.4000; stroke:none;">
<circle cx="38.1418" cy="1.3750" r="0.8500" /> 
</g>
<g style="fill:#02FFEE; fill-opacity:0.4000; stroke:none;">
<circle cx="40.6418" cy="1.3750" r="0.8500" /> 
</g>
<g style="fill:#02FFEE; fill-opacity:0.4000; stroke:none;">
<circle cx="43.1418" cy="1.3750" r="0.8500" /> 
</g>
<g style="fill:#02FFEE; fill-opacity:0.4000; stroke:none;">
<circle cx="45.6418" cy="1.3750" r="0.8500" /> 
</g>
<g style="fill:#02FFEE; fill-opacity:0.4000; stroke:none;">
<circle cx="48.1418" cy="1.3750" r="0.8500" /> 
</g>
<g style="fill:#02FFEE; fill-opacity:0.4000; stroke:none;">
<circle cx="50.6418" cy="1.3750" r="0.8500" /> 
</g>
<g style="fill:#FFFFFF; fill-opacity:1.0000; stroke:none;">
<circle cx="28.1418" cy="10.8750" r="1.0000" /> 
</g>
<g style="fill:#FFFFFF; fill-opacity:1.0000; stroke:none;">
<circle cx="50.6418" cy="10.8750" r="1.0000" /> 
</g>
<g style="fill:#FFFFFF; fill-opacity:1.0000; stroke:none;">
<circle cx="28.1418" cy="3.8750" r="0.4300" /> 
</g>
<g style="fill:#FFFFFF; fill-opacity:1.0000; stroke:none;">
<circle cx="30.6418" cy="3.8750" r="0.4300" /> 
</g>
<g style="fill:#FFFFFF; fill-opacity:1.0000; stroke:none;">
<circle cx="33.1418" cy="3.8750" r="0.4300" /> 
</g>
<g style="fill:#FFFFFF; fill-opacity:1.0000; stroke:none;">
<circle cx="35.6418" cy="3.8750" r="0.4300" /> 
</g>
<g style="fill:#FFFFFF; fill-opacity:1.0000; stroke:none;">
<circle cx="38.1418" cy="3.8750" r="0.4300" /> 
</g>
<g style="fill:#FFFFFF; fill-opacity:1.0000; stroke:none;">
<circle cx="40.6418" cy="3.8750" r="0.4300" /> 
</g>
<g style="fill:#FFFFFF; fill-opacity:1.0000; stroke:none;">
<circle cx="43.1418" cy="3.8750" r="0.4300" /> 
</g>
<g style="fill:#FFFFFF; fill-opacity:1.0000; stroke:none;">
<circle cx="45.6418" cy="3.8750" r="0.4300" /> 
</g>
<g style="fill:#FFFFFF; fill-opacity:1.0000; stroke:none;">
<circle cx="48.1418" cy="3.8750" r="0.4300" /> 
</g>
<g style="fill:#FFFFFF; fill-opacity:1.0000; stroke:none;">
<circle cx="50.6418" cy="3.8750" r="0.4300" /> 
</g>
<g style="fill:#FFFFFF; fill-opacity:1.0000; stroke:none;">
<circle cx="28.1418" cy="1.3750" r="0.4300" /> 
</g>
<g style="fill:#FFFFFF; fill-opacity:1.0000; stroke:none;">
<circle cx="30.6418" cy="1.3750" r="0.4300" /> 
</g>
<g style="fill:#FFFFFF; fill-opacity:1.0000; stroke:none;">
<circle cx="33.1418" cy="1.3750" r="0.4300" /> 
</g>
<g style="fill:#FFFFFF; fill-opacity:1.0000; stroke:none;">
<circle cx="35.6418" cy="1.3750" r="0.4300" /> 
</g>
<g style="fill:#FFFFFF; fill-opacity:1.0000; stroke:none;">
<circle cx="38.1418" cy="1.3750" r="0.4300" /> 
</g>
<g style="fill:#FFFFFF; fill-opacity:1.0000; stroke:none;">
<circle cx="40.6418" cy="1.3750" r="0.4300" /> 
</g>
<g style="fill:#FFFFFF; fill-opacity:1.0000; stroke:none;">
<circle cx="43.1418" cy="1.3750" r="0.4300" /> 
</g>
<g style="fill:#FFFFFF; fill-opacity:1.0000; stroke:none;">
<circle cx="45.6418" cy="1.3750" r="0.4300" /> 
</g>
<g style="fill:#FFFFFF; fill-opacity:1.0000; stroke:none;">
<circle cx="48.1418" cy="1.3750" r="0.4300" /> 
</g>
<g style="fill:#FFFFFF; fill-opacity:1.0000; stroke:none;">
<circle cx="50.6418" cy="1.3750" r="0.4300" /> 
</g>
<g style="fill:#FFFFFF; fill-opacity:1.0000; stroke:none;">
<circle cx="28.1418" cy="10.8750" r="1.0000" /> 
</g>
<g style="fill:#FFFFFF; fill-opacity:1.0000; stroke:none;">
<circle cx="50.6418" cy="10.8750" r="1.0000" /> 
</g>
<g style="fill:#FFFFFF; fill-opacity:1.0000; stroke:none;">
<circle cx="28.1418" cy="3.8750" r="0.4300" /> 
</g>
<g style="fill:#FFFFFF; fill-opacity:1.0000; stroke:none;">
<circle cx="30.6418" cy="3.8750" r="0.4300" /> 
</g>
<g style="fill:#FFFFFF; fill-opacity:1.0000; stroke:none;">
<circle cx="33.1418" cy="3.8750" r="0.4300" /> 
</g>
<g style="fill:#FFFFFF; fill-opacity:1.0000; stroke:none;">
<circle cx="35.6418" cy="3.8750" r="0.4300" /> 
</g>
<g style="fill:#FFFFFF; fill-opacity:1.0000; stroke:none;">
<circle cx="38.1418" cy="3.8750" r="0.4300" /> 
</g>
<g style="fill:#FFFFFF; fill-opacity:1.0000; stroke:none;">
<circle cx="40.6418" cy="3.8750" r="0.4300" /> 
</g>
<g style="fill:#FFFFFF; fill-opacity:1.0000; stroke:none;">
<circle cx="43.1418" cy="3.8750" r="0.4300" /> 
</g>
<g style="fill:#FFFFFF; fill-opacity:1.0000; stroke:none;">
<circle cx="45.6418" cy="3.8750" r="0.4300" /> 
</g>
<g style="fill:#FFFFFF; fill-opacity:1.0000; stroke:none;">
<circle cx="48.1418" cy="3.8750" r="0.4300" /> 
</g>
<g style="fill:#FFFFFF; fill-opacity:1.0000; stroke:none;">
<circle cx="50.6418" cy="3.8750" r="0.4300" /> 
</g>
<g style="fill:#FFFFFF; fill-opacity:1.0000; stroke:none;">
<circle cx="28.1418" cy="1.3750" r="0.4300" /> 
</g>
<g style="fill:#FFFFFF; fill-opacity:1.0000; stroke:none;">
<circle cx="30.6418" cy="1.3750" r="0.4300" /> 
</g>
<g style="fill:#FFFFFF; fill-opacity:1.0000; stroke:none;">
<circle cx="33.1418" cy="1.3750" r="0.4300" /> 
</g>
<g style="fill:#FFFFFF; fill-opacity:1.0000; stroke:none;">
<circle cx="35.6418" cy="1.3750" r="0.4300" /> 
</g>
<g style="fill:#FFFFFF; fill-opacity:1.0000; stroke:none;">
<circle cx="38.1418" cy="1.3750" r="0.4300" /> 
</g>
<g style="fill:#FFFFFF; fill-opacity:1.0000; stroke:none;">
<circle cx="40.6418" cy="1.3750" r="0.4300" /> 
</g>
<g style="fill:#FFFFFF; fill-opacity:1.0000; stroke:none;">
<circle cx="43.1418" cy="1.3750" r="0.4300" /> 
</g>
<g style="fill:#FFFFFF; fill-opacity:1.0000; stroke:none;">
<circle cx="45.6418" cy="1.3750" r="0.4300" /> 
</g>
<g style="fill:#FFFFFF; fill-opacity:1.0000; stroke:none;">
<circle cx="48.1418" cy="1.3750" r="0.4300" /> 
</g>
<g style="fill:#FFFFFF; fill-opacity:1.0000; stroke:none;">
<circle cx="50.6418" cy="1.3750" r="0.4300" /> 
</g>
<g style="fill:#D864FF; fill-opacity:0.4000; stroke:none;">
<circle cx="28.1418" cy="10.8750" r="1.7000" /> 
</g>
<g style="fill:#D864FF; fill-opacity:0.4000; stroke:none;">
<circle cx="50.6418" cy="10.8750" r="1.7000" /> 
<path style="fill:#D864FF; fill-opacity:0.4000; stroke:none;fill-rule:evenodd;"
d="M 27.2918,3.2750
27.3109,3.1793
27.3651,3.0982
27.4462,3.0440
27.5418,3.0250
28.7418,3.0250
28.8375,3.0440
28.9186,3.0982
28.9728,3.1793
28.9918,3.2750
28.9918,4.4750
28.9728,4.5707
28.9186,4.6518
28.8375,4.7060
28.7418,4.7250
27.5418,4.7250
27.4462,4.7060
27.3651,4.6518
27.3109,4.5707
27.2918,4.4750
Z" /> 
</g>
<g style="fill:#D864FF; fill-opacity:0.4000; stroke:none;">
<circle cx="30.6418" cy="3.8750" r="0.8500" /> 
</g>
<g style="fill:#D864FF; fill-opacity:0.4000; stroke:none;">
<circle cx="33.1418" cy="3.8750" r="0.8500" /> 
</g>
<g style="fill:#D864FF; fill-opacity:0.4000; stroke:none;">
<circle cx="35.6418" cy="3.8750" r="0.8500" /> 
</g>
<g style="fill:#D864FF; fill-opacity:0.4000; stroke:none;">
<circle cx="38.1418" cy="3.8750" r="0.8500" /> 
</g>
<g style="fill:#D864FF; fill-opacity:0.4000; stroke:none;">
<circle cx="40.6418" cy="3.8750" r="0.8500" /> 
</g>
<g style="fill:#D864FF; fill-opacity:0.4000; stroke:none;">
<circle cx="43.1418" cy="3.8750" r="0.8500" /> 
</g>
<g style="fill:#D864FF; fill-opacity:0.4000; stroke:none;">
<circle cx="45.6418" cy="3.8750" r="0.8500" /> 
</g>
<g style="fill:#D864FF; fill-opacity:0.4000; stroke:none;">
<circle cx="48.1418" cy="3.8750" r="0.8500" /> 
</g>
<g style="fill:#D864FF; fill-opacity:0.4000; stroke:none;">
<circle cx="50.6418" cy="3.8750" r="0.8500" /> 
</g>
<g style="fill:#D864FF; fill-opacity:0.4000; stroke:none;">
<circle cx="28.1418" cy="1.3750" r="0.8500" /> 
</g>
<g style="fill:#D864FF; fill-opacity:0.4000; stroke:none;">
<circle cx="30.6418" cy="1.3750" r="0.8500" /> 
</g>
<g style="fill:#D864FF; fill-opacity:0.4000; stroke:none;">
<circle cx="33.1418" cy="1.3750" r="0.8500" /> 
</g>
<g style="fill:#D864FF; fill-opacity:0.4000; stroke:none;">
<circle cx="35.6418" cy="1.3750" r="0.8500" /> 
</g>
<g style="fill:#D864FF; fill-opacity:0.4000; stroke:none;">
<circle cx="38.1418" cy="1.3750" r="0.8500" /> 
</g>
<g style="fill:#D864FF; fill-opacity:0.4000; stroke:none;">
<circle cx="40.6418" cy="1.3750" r="0.8500" /> 
</g>
<g style="fill:#D864FF; fill-opacity:0.4000; stroke:none;">
<circle cx="43.1418" cy="1.3750" r="0.8500" /> 
</g>
<g style="fill:#D864FF; fill-opacity:0.4000; stroke:none;">
<circle cx="45.6418" cy="1.3750" r="0.8500" /> 
</g>
<g style="fill:#D864FF; fill-opacity:0.4000; stroke:none;">
<circle cx="48.1418" cy="1.3750" r="0.8500" /> 
</g>
<g style="fill:#D864FF; fill-opacity:0.4000; stroke:none;">
<circle cx="50.6418" cy="1.3750" r="0.8500" /> 
</g>
<g style="fill:none; 
stroke:#F2EDA1; stroke-width:0.1588; stroke-opacity:1; 
stroke-linecap:round; stroke-linejoin:round;">
<text x="28.1418" y="4.5100"
textLength="5.6651" font-size="1.6933" lengthAdjust="spacingAndGlyphs"
text-anchor="middle" opacity="0">REF**</text>
<g class="stroked-text"><desc>REF**</desc>
<path d="M26.4485 4.4543
L26.0252 3.8495
" />
<path d="M25.7228 4.4543
L25.7228 3.1843
" />
<path d="M25.7228 3.1843
L26.2066 3.1843
" />
<path d="M26.2066 3.1843
L26.3276 3.2447
" />
<path d="M26.3276 3.2447
L26.3880 3.3052
" />
<path d="M26.3880 3.3052
L26.4485 3.4262
" />
<path d="M26.4485 3.4262
L26.4485 3.6076
" />
<path d="M26.4485 3.6076
L26.3880 3.7286
" />
<path d="M26.3880 3.7286
L26.3276 3.7890
" />
<path d="M26.3276 3.7890
L26.2066 3.8495
" />
<path d="M26.2066 3.8495
L25.7228 3.8495
" />
<path d="M26.9928 3.7890
L27.4161 3.7890
" />
<path d="M27.5976 4.4543
L26.9928 4.4543
" />
<path d="M26.9928 4.4543
L26.9928 3.1843
" />
<path d="M26.9928 3.1843
L27.5976 3.1843
" />
<path d="M28.5652 3.7890
L28.1418 3.7890
" />
<path d="M28.1418 4.4543
L28.1418 3.1843
" />
<path d="M28.1418 3.1843
L28.7466 3.1843
" />
<path d="M29.4118 3.1843
L29.4118 3.4867
" />
<path d="M29.1095 3.3657
L29.4118 3.4867
" />
<path d="M29.4118 3.4867
L29.7142 3.3657
" />
<path d="M29.2304 3.7286
L29.4118 3.4867
" />
<path d="M29.4118 3.4867
L29.5933 3.7286
" />
<path d="M30.3795 3.1843
L30.3795 3.4867
" />
<path d="M30.0771 3.3657
L30.3795 3.4867
" />
<path d="M30.3795 3.4867
L30.6818 3.3657
" />
<path d="M30.1980 3.7286
L30.3795 3.4867
" />
<path d="M30.3795 3.4867
L30.5609 3.7286
" />
</g></g>
<g style="fill:none; 
stroke:#F2EDA1; stroke-width:0.1200; stroke-opacity:1; 
stroke-linecap:round; stroke-linejoin:round;">
<path d="M24.5418 3.5750
L25.1418 3.8750
" />
<path d="M24.5418 4.1750
L24.5418 3.5750
" />
<path d="M25.1418 3.8750
L24.5418 4.1750
" />
<path d="M25.4318 0.6450
L25.4318 18.6650
" />
<path d="M25.4318 18.6650
L39.3918 18.6650
" />
<path d="M27.1418 0.6450
L25.4318 0.6450
" />
<path d="M51.6418 0.6450
L53.3518 0.6450
" />
<path d="M53.3518 0.6450
L53.3518 18.6650
" />
<path d="M53.3518 18.6650
L39.3918 18.6650
" />
</g>
<g style="fill:#FFFFFF; fill-opacity:1.0000; stroke:none;">
<circle cx="28.1418" cy="10.8750" r="1.0000" /> 
</g>
<g style="fill:#FFFFFF; fill-opacity:1.0000; stroke:none;">
<circle cx="50.6418" cy="10.8750" r="1.0000" /> 
</g>
<g style="fill:#FFFFFF; fill-opacity:1.0000; stroke:none;">
<circle cx="28.1418" cy="3.8750" r="0.4300" /> 
</g>
<g style="fill:#FFFFFF; fill-opacity:1.0000; stroke:none;">
<circle cx="30.6418" cy="3.8750" r="0.4300" /> 
</g>
<g style="fill:#FFFFFF; fill-opacity:1.0000; stroke:none;">
<circle cx="33.1418" cy="3.8750" r="0.4300" /> 
</g>
<g style="fill:#FFFFFF; fill-opacity:1.0000; stroke:none;">
<circle cx="35.6418" cy="3.8750" r="0.4300" /> 
</g>
<g style="fill:#FFFFFF; fill-opacity:1.0000; stroke:none;">
<circle cx="38.1418" cy="3.8750" r="0.4300" /> 
</g>
<g style="fill:#FFFFFF; fill-opacity:1.0000; stroke:none;">
<circle cx="40.6418" cy="3.8750" r="0.4300" /> 
</g>
<g style="fill:#FFFFFF; fill-opacity:1.0000; stroke:none;">
<circle cx="43.1418" cy="3.8750" r="0.4300" /> 
</g>
<g style="fill:#FFFFFF; fill-opacity:1.0000; stroke:none;">
<circle cx="45.6418" cy="3.8750" r="0.4300" /> 
</g>
<g style="fill:#FFFFFF; fill-opacity:1.0000; stroke:none;">
<circle cx="48.1418" cy="3.8750" r="0.4300" /> 
</g>
<g style="fill:#FFFFFF; fill-opacity:1.0000; stroke:none;">
<circle cx="50.6418" cy="3.8750" r="0.4300" /> 
</g>
<g style="fill:#FFFFFF; fill-opacity:1.0000; stroke:none;">
<circle cx="28.1418" cy="1.3750" r="0.4300" /> 
</g>
<g style="fill:#FFFFFF; fill-opacity:1.0000; stroke:none;">
<circle cx="30.6418" cy="1.3750" r="0.4300" /> 
</g>
<g style="fill:#FFFFFF; fill-opacity:1.0000; stroke:none;">
<circle cx="33.1418" cy="1.3750" r="0.4300" /> 
</g>
<g style="fill:#FFFFFF; fill-opacity:1.0000; stroke:none;">
<circle cx="35.6418" cy="1.3750" r="0.4300" /> 
</g>
<g style="fill:#FFFFFF; fill-opacity:1.0000; stroke:none;">
<circle cx="38.1418" cy="1.3750" r="0.4300" /> 
</g>
<g style="fill:#FFFFFF; fill-opacity:1.0000; stroke:none;">
<circle cx="40.6418" cy="1.3750" r="0.4300" /> 
</g>
<g style="fill:#FFFFFF; fill-opacity:1.0000; stroke:none;">
<circle cx="43.1418" cy="1.3750" r="0.4300" /> 
</g>
<g style="fill:#FFFFFF; fill-opacity:1.0000; stroke:none;">
<circle cx="45.6418" cy="1.3750" r="0.4300" /> 
</g>
<g style="fill:#FFFFFF; fill-opacity:1.0000; stroke:none;">
<circle cx="48.1418" cy="1.3750" r="0.4300" /> 
</g>
<g style="fill:#FFFFFF; fill-opacity:1.0000; stroke:none;">
<circle cx="50.6418" cy="1.3750" r="0.4300" /> 
</g>
<g style="fill:none; 
stroke:#FF26E2; stroke-width:0.0500; stroke-opacity:1; 
stroke-linecap:round; stroke-linejoin:round;">
<path d="M25.0418 0.0250
L25.0418 19.0550
" />
<path d="M25.0418 19.0550
L53.7418 19.0550
" />
<path d="M53.7418 0.0250
L25.0418 0.0250
" />
<path d="M53.7418 19.0550
L53.7418 0.0250
" />
</g>
<g style="fill:none; 
stroke:#AFAFAF; stroke-width:0.1588; stroke-opacity:1; 
stroke-linecap:round; stroke-linejoin:round;">
<text x="28.1418" y="4.5100"
textLength="56.2837" font-size="1.6933" lengthAdjust="spacingAndGlyphs"
text-anchor="middle" opacity="0">JST_J2100_S20B-J21DK-GGXR_2x10_P2.50mm_Horizontal</text>
<g class="stroked-text"><desc>JST_J2100_S20B-J21DK-GGXR_2x10_P2.50mm_Horizontal</desc>
<path d="M0.7764 3.1843
L0.7764 4.0914
" />
<path d="M0.7764 4.0914
L0.7159 4.2728
" />
<path d="M0.7159 4.2728
L0.5949 4.3938
" />
<path d="M0.5949 4.3938
L0.4135 4.4543
" />
<path d="M0.4135 4.4543
L0.2926 4.4543
" />
<path d="M1.3206 4.3938
L1.5021 4.4543
" />
<path d="M1.5021 4.4543
L1.8045 4.4543
" />
<path d="M1.8045 4.4543
L1.9254 4.3938
" />
<path d="M1.9254 4.3938
L1.9859 4.3333
" />
<path d="M1.9859 4.3333
L2.0464 4.2124
" />
<path d="M2.0464 4.2124
L2.0464 4.0914
" />
<path d="M2.0464 4.0914
L1.9859 3.9705
" />
<path d="M1.9859 3.9705
L1.9254 3.9100
" />
<path d="M1.9254 3.9100
L1.8045 3.8495
" />
<path d="M1.8045 3.8495
L1.5626 3.7890
" />
<path d="M1.5626 3.7890
L1.4416 3.7286
" />
<path d="M1.4416 3.7286
L1.3811 3.6681
" />
<path d="M1.3811 3.6681
L1.3206 3.5471
" />
<path d="M1.3206 3.5471
L1.3206 3.4262
" />
<path d="M1.3206 3.4262
L1.3811 3.3052
" />
<path d="M1.3811 3.3052
L1.4416 3.2447
" />
<path d="M1.4416 3.2447
L1.5626 3.1843
" />
<path d="M1.5626 3.1843
L1.8649 3.1843
" />
<path d="M1.8649 3.1843
L2.0464 3.2447
" />
<path d="M2.4092 3.1843
L3.1349 3.1843
" />
<path d="M2.7721 4.4543
L2.7721 3.1843
" />
<path d="M3.2559 4.5752
L4.2235 4.5752
" />
<path d="M4.8887 3.1843
L4.8887 4.0914
" />
<path d="M4.8887 4.0914
L4.8283 4.2728
" />
<path d="M4.8283 4.2728
L4.7073 4.3938
" />
<path d="M4.7073 4.3938
L4.5259 4.4543
" />
<path d="M4.5259 4.4543
L4.4049 4.4543
" />
<path d="M5.4330 3.3052
L5.4935 3.2447
" />
<path d="M5.4935 3.2447
L5.6145 3.1843
" />
<path d="M5.6145 3.1843
L5.9168 3.1843
" />
<path d="M5.9168 3.1843
L6.0378 3.2447
" />
<path d="M6.0378 3.2447
L6.0983 3.3052
" />
<path d="M6.0983 3.3052
L6.1587 3.4262
" />
<path d="M6.1587 3.4262
L6.1587 3.5471
" />
<path d="M6.1587 3.5471
L6.0983 3.7286
" />
<path d="M6.0983 3.7286
L5.3726 4.4543
" />
<path d="M5.3726 4.4543
L6.1587 4.4543
" />
<path d="M7.3683 4.4543
L6.6426 4.4543
" />
<path d="M7.0054 4.4543
L7.0054 3.1843
" />
<path d="M7.0054 3.1843
L6.8845 3.3657
" />
<path d="M6.8845 3.3657
L6.7635 3.4867
" />
<path d="M6.7635 3.4867
L6.6426 3.5471
" />
<path d="M8.1545 3.1843
L8.2754 3.1843
" />
<path d="M8.2754 3.1843
L8.3964 3.2447
" />
<path d="M8.3964 3.2447
L8.4568 3.3052
" />
<path d="M8.4568 3.3052
L8.5173 3.4262
" />
<path d="M8.5173 3.4262
L8.5778 3.6681
" />
<path d="M8.5778 3.6681
L8.5778 3.9705
" />
<path d="M8.5778 3.9705
L8.5173 4.2124
" />
<path d="M8.5173 4.2124
L8.4568 4.3333
" />
<path d="M8.4568 4.3333
L8.3964 4.3938
" />
<path d="M8.3964 4.3938
L8.2754 4.4543
" />
<path d="M8.2754 4.4543
L8.1545 4.4543
" />
<path d="M8.1545 4.4543
L8.0335 4.3938
" />
<path d="M8.0335 4.3938
L7.9730 4.3333
" />
<path d="M7.9730 4.3333
L7.9126 4.2124
" />
<path d="M7.9126 4.2124
L7.8521 3.9705
" />
<path d="M7.8521 3.9705
L7.8521 3.6681
" />
<path d="M7.8521 3.6681
L7.9126 3.4262
" />
<path d="M7.9126 3.4262
L7.9730 3.3052
" />
<path d="M7.9730 3.3052
L8.0335 3.2447
" />
<path d="M8.0335 3.2447
L8.1545 3.1843
" />
<path d="M9.3640 3.1843
L9.4849 3.1843
" />
<path d="M9.4849 3.1843
L9.6059 3.2447
" />
<path d="M9.6059 3.2447
L9.6664 3.3052
" />
<path d="M9.6664 3.3052
L9.7268 3.4262
" />
<path d="M9.7268 3.4262
L9.7873 3.6681
" />
<path d="M9.7873 3.6681
L9.7873 3.9705
" />
<path d="M9.7873 3.9705
L9.7268 4.2124
" />
<path d="M9.7268 4.2124
L9.6664 4.3333
" />
<path d="M9.6664 4.3333
L9.6059 4.3938
" />
<path d="M9.6059 4.3938
L9.4849 4.4543
" />
<path d="M9.4849 4.4543
L9.3640 4.4543
" />
<path d="M9.3640 4.4543
L9.2430 4.3938
" />
<path d="M9.2430 4.3938
L9.1826 4.3333
" />
<path d="M9.1826 4.3333
L9.1221 4.2124
" />
<path d="M9.1221 4.2124
L9.0616 3.9705
" />
<path d="M9.0616 3.9705
L9.0616 3.6681
" />
<path d="M9.0616 3.6681
L9.1221 3.4262
" />
<path d="M9.1221 3.4262
L9.1826 3.3052
" />
<path d="M9.1826 3.3052
L9.2430 3.2447
" />
<path d="M9.2430 3.2447
L9.3640 3.1843
" />
<path d="M10.0292 4.5752
L10.9968 4.5752
" />
<path d="M11.2387 4.3938
L11.4202 4.4543
" />
<path d="M11.4202 4.4543
L11.7226 4.4543
" />
<path d="M11.7226 4.4543
L11.8435 4.3938
" />
<path d="M11.8435 4.3938
L11.9040 4.3333
" />
<path d="M11.9040 4.3333
L11.9645 4.2124
" />
<path d="M11.9645 4.2124
L11.9645 4.0914
" />
<path d="M11.9645 4.0914
L11.9040 3.9705
" />
<path d="M11.9040 3.9705
L11.8435 3.9100
" />
<path d="M11.8435 3.9100
L11.7226 3.8495
" />
<path d="M11.7226 3.8495
L11.4806 3.7890
" />
<path d="M11.4806 3.7890
L11.3597 3.7286
" />
<path d="M11.3597 3.7286
L11.2992 3.6681
" />
<path d="M11.2992 3.6681
L11.2387 3.5471
" />
<path d="M11.2387 3.5471
L11.2387 3.4262
" />
<path d="M11.2387 3.4262
L11.2992 3.3052
" />
<path d="M11.2992 3.3052
L11.3597 3.2447
" />
<path d="M11.3597 3.2447
L11.4806 3.1843
" />
<path d="M11.4806 3.1843
L11.7830 3.1843
" />
<path d="M11.7830 3.1843
L11.9645 3.2447
" />
<path d="M12.4483 3.3052
L12.5087 3.2447
" />
<path d="M12.5087 3.2447
L12.6297 3.1843
" />
<path d="M12.6297 3.1843
L12.9321 3.1843
" />
<path d="M12.9321 3.1843
L13.0530 3.2447
" />
<path d="M13.0530 3.2447
L13.1135 3.3052
" />
<path d="M13.1135 3.3052
L13.1740 3.4262
" />
<path d="M13.1740 3.4262
L13.1740 3.5471
" />
<path d="M13.1740 3.5471
L13.1135 3.7286
" />
<path d="M13.1135 3.7286
L12.3878 4.4543
" />
<path d="M12.3878 4.4543
L13.1740 4.4543
" />
<path d="M13.9602 3.1843
L14.0811 3.1843
" />
<path d="M14.0811 3.1843
L14.2021 3.2447
" />
<path d="M14.2021 3.2447
L14.2626 3.3052
" />
<path d="M14.2626 3.3052
L14.3230 3.4262
" />
<path d="M14.3230 3.4262
L14.3835 3.6681
" />
<path d="M14.3835 3.6681
L14.3835 3.9705
" />
<path d="M14.3835 3.9705
L14.3230 4.2124
" />
<path d="M14.3230 4.2124
L14.2626 4.3333
" />
<path d="M14.2626 4.3333
L14.2021 4.3938
" />
<path d="M14.2021 4.3938
L14.0811 4.4543
" />
<path d="M14.0811 4.4543
L13.9602 4.4543
" />
<path d="M13.9602 4.4543
L13.8392 4.3938
" />
<path d="M13.8392 4.3938
L13.7787 4.3333
" />
<path d="M13.7787 4.3333
L13.7183 4.2124
" />
<path d="M13.7183 4.2124
L13.6578 3.9705
" />
<path d="M13.6578 3.9705
L13.6578 3.6681
" />
<path d="M13.6578 3.6681
L13.7183 3.4262
" />
<path d="M13.7183 3.4262
L13.7787 3.3052
" />
<path d="M13.7787 3.3052
L13.8392 3.2447
" />
<path d="M13.8392 3.2447
L13.9602 3.1843
" />
<path d="M15.3511 3.7890
L15.5326 3.8495
" />
<path d="M15.5326 3.8495
L15.5930 3.9100
" />
<path d="M15.5930 3.9100
L15.6535 4.0309
" />
<path d="M15.6535 4.0309
L15.6535 4.2124
" />
<path d="M15.6535 4.2124
L15.5930 4.3333
" />
<path d="M15.5930 4.3333
L15.5326 4.3938
" />
<path d="M15.5326 4.3938
L15.4116 4.4543
" />
<path d="M15.4116 4.4543
L14.9278 4.4543
" />
<path d="M14.9278 4.4543
L14.9278 3.1843
" />
<path d="M14.9278 3.1843
L15.3511 3.1843
" />
<path d="M15.3511 3.1843
L15.4721 3.2447
" />
<path d="M15.4721 3.2447
L15.5326 3.3052
" />
<path d="M15.5326 3.3052
L15.5930 3.4262
" />
<path d="M15.5930 3.4262
L15.5930 3.5471
" />
<path d="M15.5930 3.5471
L15.5326 3.6681
" />
<path d="M15.5326 3.6681
L15.4721 3.7286
" />
<path d="M15.4721 3.7286
L15.3511 3.7890
" />
<path d="M15.3511 3.7890
L14.9278 3.7890
" />
<path d="M16.1978 3.9705
L17.1654 3.9705
" />
<path d="M18.1330 3.1843
L18.1330 4.0914
" />
<path d="M18.1330 4.0914
L18.0726 4.2728
" />
<path d="M18.0726 4.2728
L17.9516 4.3938
" />
<path d="M17.9516 4.3938
L17.7702 4.4543
" />
<path d="M17.7702 4.4543
L17.6492 4.4543
" />
<path d="M18.6773 3.3052
L18.7378 3.2447
" />
<path d="M18.7378 3.2447
L18.8587 3.1843
" />
<path d="M18.8587 3.1843
L19.1611 3.1843
" />
<path d="M19.1611 3.1843
L19.2821 3.2447
" />
<path d="M19.2821 3.2447
L19.3426 3.3052
" />
<path d="M19.3426 3.3052
L19.4030 3.4262
" />
<path d="M19.4030 3.4262
L19.4030 3.5471
" />
<path d="M19.4030 3.5471
L19.3426 3.7286
" />
<path d="M19.3426 3.7286
L18.6168 4.4543
" />
<path d="M18.6168 4.4543
L19.4030 4.4543
" />
<path d="M20.6126 4.4543
L19.8868 4.4543
" />
<path d="M20.2497 4.4543
L20.2497 3.1843
" />
<path d="M20.2497 3.1843
L20.1287 3.3657
" />
<path d="M20.1287 3.3657
L20.0078 3.4867
" />
<path d="M20.0078 3.4867
L19.8868 3.5471
" />
<path d="M21.1568 4.4543
L21.1568 3.1843
" />
<path d="M21.1568 3.1843
L21.4592 3.1843
" />
<path d="M21.4592 3.1843
L21.6407 3.2447
" />
<path d="M21.6407 3.2447
L21.7616 3.3657
" />
<path d="M21.7616 3.3657
L21.8221 3.4867
" />
<path d="M21.8221 3.4867
L21.8826 3.7286
" />
<path d="M21.8826 3.7286
L21.8826 3.9100
" />
<path d="M21.8826 3.9100
L21.8221 4.1519
" />
<path d="M21.8221 4.1519
L21.7616 4.2728
" />
<path d="M21.7616 4.2728
L21.6407 4.3938
" />
<path d="M21.6407 4.3938
L21.4592 4.4543
" />
<path d="M21.4592 4.4543
L21.1568 4.4543
" />
<path d="M22.4268 4.4543
L22.4268 3.1843
" />
<path d="M23.1526 4.4543
L22.6083 3.7286
" />
<path d="M23.1526 3.1843
L22.4268 3.9100
" />
<path d="M23.6968 3.9705
L24.6645 3.9705
" />
<path d="M25.9345 3.2447
L25.8135 3.1843
" />
<path d="M25.8135 3.1843
L25.6321 3.1843
" />
<path d="M25.6321 3.1843
L25.4507 3.2447
" />
<path d="M25.4507 3.2447
L25.3297 3.3657
" />
<path d="M25.3297 3.3657
L25.2692 3.4867
" />
<path d="M25.2692 3.4867
L25.2087 3.7286
" />
<path d="M25.2087 3.7286
L25.2087 3.9100
" />
<path d="M25.2087 3.9100
L25.2692 4.1519
" />
<path d="M25.2692 4.1519
L25.3297 4.2728
" />
<path d="M25.3297 4.2728
L25.4507 4.3938
" />
<path d="M25.4507 4.3938
L25.6321 4.4543
" />
<path d="M25.6321 4.4543
L25.7530 4.4543
" />
<path d="M25.7530 4.4543
L25.9345 4.3938
" />
<path d="M25.9345 4.3938
L25.9949 4.3333
" />
<path d="M25.9949 4.3333
L25.9949 3.9100
" />
<path d="M25.9949 3.9100
L25.7530 3.9100
" />
<path d="M27.2045 3.2447
L27.0835 3.1843
" />
<path d="M27.0835 3.1843
L26.9021 3.1843
" />
<path d="M26.9021 3.1843
L26.7207 3.2447
" />
<path d="M26.7207 3.2447
L26.5997 3.3657
" />
<path d="M26.5997 3.3657
L26.5392 3.4867
" />
<path d="M26.5392 3.4867
L26.4787 3.7286
" />
<path d="M26.4787 3.7286
L26.4787 3.9100
" />
<path d="M26.4787 3.9100
L26.5392 4.1519
" />
<path d="M26.5392 4.1519
L26.5997 4.2728
" />
<path d="M26.5997 4.2728
L26.7207 4.3938
" />
<path d="M26.7207 4.3938
L26.9021 4.4543
" />
<path d="M26.9021 4.4543
L27.0230 4.4543
" />
<path d="M27.0230 4.4543
L27.2045 4.3938
" />
<path d="M27.2045 4.3938
L27.2649 4.3333
" />
<path d="M27.2649 4.3333
L27.2649 3.9100
" />
<path d="M27.2649 3.9100
L27.0230 3.9100
" />
<path d="M27.6883 3.1843
L28.5349 4.4543
" />
<path d="M28.5349 3.1843
L27.6883 4.4543
" />
<path d="M29.7445 4.4543
L29.3211 3.8495
" />
<path d="M29.0187 4.4543
L29.0187 3.1843
" />
<path d="M29.0187 3.1843
L29.5026 3.1843
" />
<path d="M29.5026 3.1843
L29.6235 3.2447
" />
<path d="M29.6235 3.2447
L29.6840 3.3052
" />
<path d="M29.6840 3.3052
L29.7445 3.4262
" />
<path d="M29.7445 3.4262
L29.7445 3.6076
" />
<path d="M29.7445 3.6076
L29.6840 3.7286
" />
<path d="M29.6840 3.7286
L29.6235 3.7890
" />
<path d="M29.6235 3.7890
L29.5026 3.8495
" />
<path d="M29.5026 3.8495
L29.0187 3.8495
" />
<path d="M29.9864 4.5752
L30.9540 4.5752
" />
<path d="M31.1959 3.3052
L31.2564 3.2447
" />
<path d="M31.2564 3.2447
L31.3773 3.1843
" />
<path d="M31.3773 3.1843
L31.6797 3.1843
" />
<path d="M31.6797 3.1843
L31.8006 3.2447
" />
<path d="M31.8006 3.2447
L31.8611 3.3052
" />
<path d="M31.8611 3.3052
L31.9216 3.4262
" />
<path d="M31.9216 3.4262
L31.9216 3.5471
" />
<path d="M31.9216 3.5471
L31.8611 3.7286
" />
<path d="M31.8611 3.7286
L31.1354 4.4543
" />
<path d="M31.1354 4.4543
L31.9216 4.4543
" />
<path d="M32.3449 4.4543
L33.0102 3.6076
" />
<path d="M32.3449 3.6076
L33.0102 4.4543
" />
<path d="M34.1592 4.4543
L33.4335 4.4543
" />
<path d="M33.7964 4.4543
L33.7964 3.1843
" />
<path d="M33.7964 3.1843
L33.6754 3.3657
" />
<path d="M33.6754 3.3657
L33.5545 3.4867
" />
<path d="M33.5545 3.4867
L33.4335 3.5471
" />
<path d="M34.9454 3.1843
L35.0664 3.1843
" />
<path d="M35.0664 3.1843
L35.1873 3.2447
" />
<path d="M35.1873 3.2447
L35.2478 3.3052
" />
<path d="M35.2478 3.3052
L35.3083 3.4262
" />
<path d="M35.3083 3.4262
L35.3687 3.6681
" />
<path d="M35.3687 3.6681
L35.3687 3.9705
" />
<path d="M35.3687 3.9705
L35.3083 4.2124
" />
<path d="M35.3083 4.2124
L35.2478 4.3333
" />
<path d="M35.2478 4.3333
L35.1873 4.3938
" />
<path d="M35.1873 4.3938
L35.0664 4.4543
" />
<path d="M35.0664 4.4543
L34.9454 4.4543
" />
<path d="M34.9454 4.4543
L34.8245 4.3938
" />
<path d="M34.8245 4.3938
L34.7640 4.3333
" />
<path d="M34.7640 4.3333
L34.7035 4.2124
" />
<path d="M34.7035 4.2124
L34.6430 3.9705
" />
<path d="M34.6430 3.9705
L34.6430 3.6681
" />
<path d="M34.6430 3.6681
L34.7035 3.4262
" />
<path d="M34.7035 3.4262
L34.7640 3.3052
" />
<path d="M34.7640 3.3052
L34.8245 3.2447
" />
<path d="M34.8245 3.2447
L34.9454 3.1843
" />
<path d="M35.6107 4.5752
L36.5783 4.5752
" />
<path d="M36.8806 4.4543
L36.8806 3.1843
" />
<path d="M36.8806 3.1843
L37.3645 3.1843
" />
<path d="M37.3645 3.1843
L37.4854 3.2447
" />
<path d="M37.4854 3.2447
L37.5459 3.3052
" />
<path d="M37.5459 3.3052
L37.6064 3.4262
" />
<path d="M37.6064 3.4262
L37.6064 3.6076
" />
<path d="M37.6064 3.6076
L37.5459 3.7286
" />
<path d="M37.5459 3.7286
L37.4854 3.7890
" />
<path d="M37.4854 3.7890
L37.3645 3.8495
" />
<path d="M37.3645 3.8495
L36.8806 3.8495
" />
<path d="M38.0902 3.3052
L38.1506 3.2447
" />
<path d="M38.1506 3.2447
L38.2716 3.1843
" />
<path d="M38.2716 3.1843
L38.5740 3.1843
" />
<path d="M38.5740 3.1843
L38.6949 3.2447
" />
<path d="M38.6949 3.2447
L38.7554 3.3052
" />
<path d="M38.7554 3.3052
L38.8159 3.4262
" />
<path d="M38.8159 3.4262
L38.8159 3.5471
" />
<path d="M38.8159 3.5471
L38.7554 3.7286
" />
<path d="M38.7554 3.7286
L38.0297 4.4543
" />
<path d="M38.0297 4.4543
L38.8159 4.4543
" />
<path d="M39.3602 4.3333
L39.4207 4.3938
" />
<path d="M39.4207 4.3938
L39.3602 4.4543
" />
<path d="M39.3602 4.4543
L39.2997 4.3938
" />
<path d="M39.2997 4.3938
L39.3602 4.3333
" />
<path d="M39.3602 4.3333
L39.3602 4.4543
" />
<path d="M40.5697 3.1843
L39.9649 3.1843
" />
<path d="M39.9649 3.1843
L39.9045 3.7890
" />
<path d="M39.9045 3.7890
L39.9649 3.7286
" />
<path d="M39.9649 3.7286
L40.0859 3.6681
" />
<path d="M40.0859 3.6681
L40.3883 3.6681
" />
<path d="M40.3883 3.6681
L40.5092 3.7286
" />
<path d="M40.5092 3.7286
L40.5697 3.7890
" />
<path d="M40.5697 3.7890
L40.6302 3.9100
" />
<path d="M40.6302 3.9100
L40.6302 4.2124
" />
<path d="M40.6302 4.2124
L40.5697 4.3333
" />
<path d="M40.5697 4.3333
L40.5092 4.3938
" />
<path d="M40.5092 4.3938
L40.3883 4.4543
" />
<path d="M40.3883 4.4543
L40.0859 4.4543
" />
<path d="M40.0859 4.4543
L39.9649 4.3938
" />
<path d="M39.9649 4.3938
L39.9045 4.3333
" />
<path d="M41.4164 3.1843
L41.5373 3.1843
" />
<path d="M41.5373 3.1843
L41.6583 3.2447
" />
<path d="M41.6583 3.2447
L41.7187 3.3052
" />
<path d="M41.7187 3.3052
L41.7792 3.4262
" />
<path d="M41.7792 3.4262
L41.8397 3.6681
" />
<path d="M41.8397 3.6681
L41.8397 3.9705
" />
<path d="M41.8397 3.9705
L41.7792 4.2124
" />
<path d="M41.7792 4.2124
L41.7187 4.3333
" />
<path d="M41.7187 4.3333
L41.6583 4.3938
" />
<path d="M41.6583 4.3938
L41.5373 4.4543
" />
<path d="M41.5373 4.4543
L41.4164 4.4543
" />
<path d="M41.4164 4.4543
L41.2954 4.3938
" />
<path d="M41.2954 4.3938
L41.2349 4.3333
" />
<path d="M41.2349 4.3333
L41.1745 4.2124
" />
<path d="M41.1745 4.2124
L41.1140 3.9705
" />
<path d="M41.1140 3.9705
L41.1140 3.6681
" />
<path d="M41.1140 3.6681
L41.1745 3.4262
" />
<path d="M41.1745 3.4262
L41.2349 3.3052
" />
<path d="M41.2349 3.3052
L41.2954 3.2447
" />
<path d="M41.2954 3.2447
L41.4164 3.1843
" />
<path d="M42.3840 4.4543
L42.3840 3.6076
" />
<path d="M42.3840 3.7286
L42.4445 3.6681
" />
<path d="M42.4445 3.6681
L42.5654 3.6076
" />
<path d="M42.5654 3.6076
L42.7468 3.6076
" />
<path d="M42.7468 3.6076
L42.8678 3.6681
" />
<path d="M42.8678 3.6681
L42.9283 3.7890
" />
<path d="M42.9283 3.7890
L42.9283 4.4543
" />
<path d="M42.9283 3.7890
L42.9887 3.6681
" />
<path d="M42.9887 3.6681
L43.1097 3.6076
" />
<path d="M43.1097 3.6076
L43.2911 3.6076
" />
<path d="M43.2911 3.6076
L43.4121 3.6681
" />
<path d="M43.4121 3.6681
L43.4726 3.7890
" />
<path d="M43.4726 3.7890
L43.4726 4.4543
" />
<path d="M44.0773 4.4543
L44.0773 3.6076
" />
<path d="M44.0773 3.7286
L44.1378 3.6681
" />
<path d="M44.1378 3.6681
L44.2587 3.6076
" />
<path d="M44.2587 3.6076
L44.4402 3.6076
" />
<path d="M44.4402 3.6076
L44.5611 3.6681
" />
<path d="M44.5611 3.6681
L44.6216 3.7890
" />
<path d="M44.6216 3.7890
L44.6216 4.4543
" />
<path d="M44.6216 3.7890
L44.6821 3.6681
" />
<path d="M44.6821 3.6681
L44.8030 3.6076
" />
<path d="M44.8030 3.6076
L44.9845 3.6076
" />
<path d="M44.9845 3.6076
L45.1054 3.6681
" />
<path d="M45.1054 3.6681
L45.1659 3.7890
" />
<path d="M45.1659 3.7890
L45.1659 4.4543
" />
<path d="M45.4683 4.5752
L46.4359 4.5752
" />
<path d="M46.7383 4.4543
L46.7383 3.1843
" />
<path d="M46.7383 3.7890
L47.4640 3.7890
" />
<path d="M47.4640 4.4543
L47.4640 3.1843
" />
<path d="M48.2502 4.4543
L48.1292 4.3938
" />
<path d="M48.1292 4.3938
L48.0687 4.3333
" />
<path d="M48.0687 4.3333
L48.0083 4.2124
" />
<path d="M48.0083 4.2124
L48.0083 3.8495
" />
<path d="M48.0083 3.8495
L48.0687 3.7286
" />
<path d="M48.0687 3.7286
L48.1292 3.6681
" />
<path d="M48.1292 3.6681
L48.2502 3.6076
" />
<path d="M48.2502 3.6076
L48.4316 3.6076
" />
<path d="M48.4316 3.6076
L48.5526 3.6681
" />
<path d="M48.5526 3.6681
L48.6130 3.7286
" />
<path d="M48.6130 3.7286
L48.6735 3.8495
" />
<path d="M48.6735 3.8495
L48.6735 4.2124
" />
<path d="M48.6735 4.2124
L48.6130 4.3333
" />
<path d="M48.6130 4.3333
L48.5526 4.3938
" />
<path d="M48.5526 4.3938
L48.4316 4.4543
" />
<path d="M48.4316 4.4543
L48.2502 4.4543
" />
<path d="M49.2178 4.4543
L49.2178 3.6076
" />
<path d="M49.2178 3.8495
L49.2783 3.7286
" />
<path d="M49.2783 3.7286
L49.3387 3.6681
" />
<path d="M49.3387 3.6681
L49.4597 3.6076
" />
<path d="M49.4597 3.6076
L49.5807 3.6076
" />
<path d="M50.0040 4.4543
L50.0040 3.6076
" />
<path d="M50.0040 3.1843
L49.9435 3.2447
" />
<path d="M49.9435 3.2447
L50.0040 3.3052
" />
<path d="M50.0040 3.3052
L50.0645 3.2447
" />
<path d="M50.0645 3.2447
L50.0040 3.1843
" />
<path d="M50.0040 3.1843
L50.0040 3.3052
" />
<path d="M50.4878 3.6076
L51.1530 3.6076
" />
<path d="M51.1530 3.6076
L50.4878 4.4543
" />
<path d="M50.4878 4.4543
L51.1530 4.4543
" />
<path d="M51.8183 4.4543
L51.6973 4.3938
" />
<path d="M51.6973 4.3938
L51.6368 4.3333
" />
<path d="M51.6368 4.3333
L51.5764 4.2124
" />
<path d="M51.5764 4.2124
L51.5764 3.8495
" />
<path d="M51.5764 3.8495
L51.6368 3.7286
" />
<path d="M51.6368 3.7286
L51.6973 3.6681
" />
<path d="M51.6973 3.6681
L51.8183 3.6076
" />
<path d="M51.8183 3.6076
L51.9997 3.6076
" />
<path d="M51.9997 3.6076
L52.1206 3.6681
" />
<path d="M52.1206 3.6681
L52.1811 3.7286
" />
<path d="M52.1811 3.7286
L52.2416 3.8495
" />
<path d="M52.2416 3.8495
L52.2416 4.2124
" />
<path d="M52.2416 4.2124
L52.1811 4.3333
" />
<path d="M52.1811 4.3333
L52.1206 4.3938
" />
<path d="M52.1206 4.3938
L51.9997 4.4543
" />
<path d="M51.9997 4.4543
L51.8183 4.4543
" />
<path d="M52.7859 3.6076
L52.7859 4.4543
" />
<path d="M52.7859 3.7286
L52.8464 3.6681
" />
<path d="M52.8464 3.6681
L52.9673 3.6076
" />
<path d="M52.9673 3.6076
L53.1487 3.6076
" />
<path d="M53.1487 3.6076
L53.2697 3.6681
" />
<path d="M53.2697 3.6681
L53.3302 3.7890
" />
<path d="M53.3302 3.7890
L53.3302 4.4543
" />
<path d="M53.7535 3.6076
L54.2373 3.6076
" />
<path d="M53.9349 3.1843
L53.9349 4.2728
" />
<path d="M53.9349 4.2728
L53.9954 4.3938
" />
<path d="M53.9954 4.3938
L54.1164 4.4543
" />
<path d="M54.1164 4.4543
L54.2373 4.4543
" />
<path d="M55.2049 4.4543
L55.2049 3.7890
" />
<path d="M55.2049 3.7890
L55.1445 3.6681
" />
<path d="M55.1445 3.6681
L55.0235 3.6076
" />
<path d="M55.0235 3.6076
L54.7816 3.6076
" />
<path d="M54.7816 3.6076
L54.6606 3.6681
" />
<path d="M55.2049 4.3938
L55.0840 4.4543
" />
<path d="M55.0840 4.4543
L54.7816 4.4543
" />
<path d="M54.7816 4.4543
L54.6606 4.3938
" />
<path d="M54.6606 4.3938
L54.6002 4.2728
" />
<path d="M54.6002 4.2728
L54.6002 4.1519
" />
<path d="M54.6002 4.1519
L54.6606 4.0309
" />
<path d="M54.6606 4.0309
L54.7816 3.9705
" />
<path d="M54.7816 3.9705
L55.0840 3.9705
" />
<path d="M55.0840 3.9705
L55.2049 3.9100
" />
<path d="M55.9911 4.4543
L55.8702 4.3938
" />
<path d="M55.8702 4.3938
L55.8097 4.2728
" />
<path d="M55.8097 4.2728
L55.8097 3.1843
" />
</g></g>
<g style="fill:none; 
stroke:#AFAFAF; stroke-width:0.1500; stroke-opacity:1; 
stroke-linecap:round; stroke-linejoin:round;">
<text x="39.3918" y="10.1550"
textLength="4.5357" font-size="1.3333" lengthAdjust="spacingAndGlyphs"
text-anchor="middle" opacity="0">REF**</text>
<g class="stroked-text"><desc>REF**</desc>
<path d="M38.0585 10.1098
L37.7252 9.6336
" />
<path d="M37.4871 10.1098
L37.4871 9.1098
" />
<path d="M37.4871 9.1098
L37.8680 9.1098
" />
<path d="M37.8680 9.1098
L37.9633 9.1574
" />
<path d="M37.9633 9.1574
L38.0109 9.2051
" />
<path d="M38.0109 9.2051
L38.0585 9.3003
" />
<path d="M38.0585 9.3003
L38.0585 9.4432
" />
<path d="M38.0585 9.4432
L38.0109 9.5384
" />
<path d="M38.0109 9.5384
L37.9633 9.5860
" />
<path d="M37.9633 9.5860
L37.8680 9.6336
" />
<path d="M37.8680 9.6336
L37.4871 9.6336
" />
<path d="M38.4871 9.5860
L38.8204 9.5860
" />
<path d="M38.9633 10.1098
L38.4871 10.1098
" />
<path d="M38.4871 10.1098
L38.4871 9.1098
" />
<path d="M38.4871 9.1098
L38.9633 9.1098
" />
<path d="M39.7252 9.5860
L39.3918 9.5860
" />
<path d="M39.3918 10.1098
L39.3918 9.1098
" />
<path d="M39.3918 9.1098
L39.8680 9.1098
" />
<path d="M40.3918 9.1098
L40.3918 9.3479
" />
<path d="M40.1537 9.2527
L40.3918 9.3479
" />
<path d="M40.3918 9.3479
L40.6299 9.2527
" />
<path d="M40.2490 9.5384
L40.3918 9.3479
" />
<path d="M40.3918 9.3479
L40.5347 9.5384
" />
<path d="M41.1537 9.1098
L41.1537 9.3479
" />
<path d="M40.9156 9.2527
L41.1537 9.3479
" />
<path d="M41.1537 9.3479
L41.3918 9.2527
" />
<path d="M41.0109 9.5384
L41.1537 9.3479
" />
<path d="M41.1537 9.3479
L41.2966 9.5384
" />
</g></g>
<g style="fill:none; 
stroke:#AFAFAF; stroke-width:0.1000; stroke-opacity:1; 
stroke-linecap:round; stroke-linejoin:round;">
<path d="M25.5418 0.7550
L25.5418 18.5550
" />
<path d="M25.5418 4.3750
L26.2489 3.8750
" />
<path d="M25.5418 18.5550
L53.2418 18.5550
" />
<path d="M26.2489 3.8750
L25.5418 3.3750
" />
<path d="M53.2418 0.7550
L25.5418 0.7550
" />
<path d="M53.2418 18.5550
L53.2418 0.7550
" />
</g> 
</svg>
