<?xml version="1.0" standalone="no"?>
 <!DOCTYPE svg PUBLIC "-//W3C//DTD SVG 1.1//EN" 
 "http://www.w3.org/Graphics/SVG/1.1/DTD/svg11.dtd"> 
<svg
  xmlns:svg="http://www.w3.org/2000/svg"
  xmlns="http://www.w3.org/2000/svg"
  xmlns:xlink="http://www.w3.org/1999/xlink"
  version="1.1"
  width="34.9758mm" height="9.5250mm" viewBox="0.0000 0.0000 34.9758 9.5250">
<title>SVG Image created as working-brd.svg date 2024/04/12 00:09:09 </title>
  <desc>Image generated by PCBNEW </desc>
<g style="fill:#000000; fill-opacity:1.0000;stroke:#000000; stroke-opacity:1.0000;
stroke-linecap:round; stroke-linejoin:round;"
 transform="translate(0 0) scale(1 1)">
</g>
<g style="fill:#FFFFFF; fill-opacity:1.0000; stroke:none;">
<circle cx="17.4980" cy="4.7750" r="0.4000" /> 
</g>
<g style="fill:#FFFFFF; fill-opacity:1.0000; stroke:none;">
<circle cx="22.4980" cy="4.7750" r="0.4000" /> 
<path style="fill:#02FFEE; fill-opacity:0.4000; stroke:none;fill-rule:evenodd;"
d="M 16.6980,5.5750
16.6980,3.9750
18.2980,3.9750
18.2980,5.5750
Z" /> 
</g>
<g style="fill:#02FFEE; fill-opacity:0.4000; stroke:none;">
<circle cx="22.4980" cy="4.7750" r="0.8000" /> 
</g>
<g style="fill:#FFFFFF; fill-opacity:1.0000; stroke:none;">
<circle cx="17.4980" cy="4.7750" r="0.4000" /> 
</g>
<g style="fill:#FFFFFF; fill-opacity:1.0000; stroke:none;">
<circle cx="22.4980" cy="4.7750" r="0.4000" /> 
</g>
<g style="fill:#FFFFFF; fill-opacity:1.0000; stroke:none;">
<circle cx="17.4980" cy="4.7750" r="0.4000" /> 
</g>
<g style="fill:#FFFFFF; fill-opacity:1.0000; stroke:none;">
<circle cx="22.4980" cy="4.7750" r="0.4000" /> 
<path style="fill:#D864FF; fill-opacity:0.4000; stroke:none;fill-rule:evenodd;"
d="M 16.6980,5.5750
16.6980,3.9750
18.2980,3.9750
18.2980,5.5750
Z" /> 
</g>
<g style="fill:#D864FF; fill-opacity:0.4000; stroke:none;">
<circle cx="22.4980" cy="4.7750" r="0.8000" /> 
</g>
<g style="fill:none; 
stroke:#F2EDA1; stroke-width:0.1588; stroke-opacity:1; 
stroke-linecap:round; stroke-linejoin:round;">
<text x="17.4980" y="5.4100"
textLength="5.6651" font-size="1.6933" lengthAdjust="spacingAndGlyphs"
text-anchor="middle" opacity="0">REF**</text>
<g class="stroked-text"><desc>REF**</desc>
<path d="M15.8047 5.3543
L15.3814 4.7495
" />
<path d="M15.0790 5.3543
L15.0790 4.0843
" />
<path d="M15.0790 4.0843
L15.5628 4.0843
" />
<path d="M15.5628 4.0843
L15.6837 4.1447
" />
<path d="M15.6837 4.1447
L15.7442 4.2052
" />
<path d="M15.7442 4.2052
L15.8047 4.3262
" />
<path d="M15.8047 4.3262
L15.8047 4.5076
" />
<path d="M15.8047 4.5076
L15.7442 4.6286
" />
<path d="M15.7442 4.6286
L15.6837 4.6890
" />
<path d="M15.6837 4.6890
L15.5628 4.7495
" />
<path d="M15.5628 4.7495
L15.0790 4.7495
" />
<path d="M16.3490 4.6890
L16.7723 4.6890
" />
<path d="M16.9537 5.3543
L16.3490 5.3543
" />
<path d="M16.3490 5.3543
L16.3490 4.0843
" />
<path d="M16.3490 4.0843
L16.9537 4.0843
" />
<path d="M17.9214 4.6890
L17.4980 4.6890
" />
<path d="M17.4980 5.3543
L17.4980 4.0843
" />
<path d="M17.4980 4.0843
L18.1028 4.0843
" />
<path d="M18.7680 4.0843
L18.7680 4.3867
" />
<path d="M18.4656 4.2657
L18.7680 4.3867
" />
<path d="M18.7680 4.3867
L19.0704 4.2657
" />
<path d="M18.5866 4.6286
L18.7680 4.3867
" />
<path d="M18.7680 4.3867
L18.9495 4.6286
" />
<path d="M19.7356 4.0843
L19.7356 4.3867
" />
<path d="M19.4333 4.2657
L19.7356 4.3867
" />
<path d="M19.7356 4.3867
L20.0380 4.2657
" />
<path d="M19.5542 4.6286
L19.7356 4.3867
" />
<path d="M19.7356 4.3867
L19.9171 4.6286
" />
</g></g>
<g style="fill:none; 
stroke:#F2EDA1; stroke-width:0.1200; stroke-opacity:1; 
stroke-linecap:round; stroke-linejoin:round;">
<path d="M15.0534 2.1800
L15.9534 2.1800
" />
<path d="M15.5034 1.7300
L15.5034 2.6300
" />
<circle cx="19.9980" cy="4.7750" r="4.6200" /> 
</g>
<g style="fill:#FFFFFF; fill-opacity:1.0000; stroke:none;">
<circle cx="17.4980" cy="4.7750" r="0.4000" /> 
</g>
<g style="fill:#FFFFFF; fill-opacity:1.0000; stroke:none;">
<circle cx="22.4980" cy="4.7750" r="0.4000" /> 
</g>
<g style="fill:none; 
stroke:#FF26E2; stroke-width:0.0500; stroke-opacity:1; 
stroke-linecap:round; stroke-linejoin:round;">
<circle cx="19.9980" cy="4.7750" r="4.7500" /> 
</g>
<g style="fill:none; 
stroke:#AFAFAF; stroke-width:0.1588; stroke-opacity:1; 
stroke-linecap:round; stroke-linejoin:round;">
<text x="17.4980" y="5.4100"
textLength="34.9961" font-size="1.6933" lengthAdjust="spacingAndGlyphs"
text-anchor="middle" opacity="0">CP_Radial_Tantal_D9.0mm_P5.00mm</text>
<g class="stroked-text"><desc>CP_Radial_Tantal_D9.0mm_P5.00mm</desc>
<path d="M1.1392 5.2333
L1.0787 5.2938
" />
<path d="M1.0787 5.2938
L0.8973 5.3543
" />
<path d="M0.8973 5.3543
L0.7764 5.3543
" />
<path d="M0.7764 5.3543
L0.5949 5.2938
" />
<path d="M0.5949 5.2938
L0.4740 5.1728
" />
<path d="M0.4740 5.1728
L0.4135 5.0519
" />
<path d="M0.4135 5.0519
L0.3530 4.8100
" />
<path d="M0.3530 4.8100
L0.3530 4.6286
" />
<path d="M0.3530 4.6286
L0.4135 4.3867
" />
<path d="M0.4135 4.3867
L0.4740 4.2657
" />
<path d="M0.4740 4.2657
L0.5949 4.1447
" />
<path d="M0.5949 4.1447
L0.7764 4.0843
" />
<path d="M0.7764 4.0843
L0.8973 4.0843
" />
<path d="M0.8973 4.0843
L1.0787 4.1447
" />
<path d="M1.0787 4.1447
L1.1392 4.2052
" />
<path d="M1.6835 5.3543
L1.6835 4.0843
" />
<path d="M1.6835 4.0843
L2.1673 4.0843
" />
<path d="M2.1673 4.0843
L2.2883 4.1447
" />
<path d="M2.2883 4.1447
L2.3487 4.2052
" />
<path d="M2.3487 4.2052
L2.4092 4.3262
" />
<path d="M2.4092 4.3262
L2.4092 4.5076
" />
<path d="M2.4092 4.5076
L2.3487 4.6286
" />
<path d="M2.3487 4.6286
L2.2883 4.6890
" />
<path d="M2.2883 4.6890
L2.1673 4.7495
" />
<path d="M2.1673 4.7495
L1.6835 4.7495
" />
<path d="M2.6511 5.4752
L3.6187 5.4752
" />
<path d="M4.6468 5.3543
L4.2235 4.7495
" />
<path d="M3.9211 5.3543
L3.9211 4.0843
" />
<path d="M3.9211 4.0843
L4.4049 4.0843
" />
<path d="M4.4049 4.0843
L4.5259 4.1447
" />
<path d="M4.5259 4.1447
L4.5864 4.2052
" />
<path d="M4.5864 4.2052
L4.6468 4.3262
" />
<path d="M4.6468 4.3262
L4.6468 4.5076
" />
<path d="M4.6468 4.5076
L4.5864 4.6286
" />
<path d="M4.5864 4.6286
L4.5259 4.6890
" />
<path d="M4.5259 4.6890
L4.4049 4.7495
" />
<path d="M4.4049 4.7495
L3.9211 4.7495
" />
<path d="M5.7354 5.3543
L5.7354 4.6890
" />
<path d="M5.7354 4.6890
L5.6749 4.5681
" />
<path d="M5.6749 4.5681
L5.5540 4.5076
" />
<path d="M5.5540 4.5076
L5.3121 4.5076
" />
<path d="M5.3121 4.5076
L5.1911 4.5681
" />
<path d="M5.7354 5.2938
L5.6145 5.3543
" />
<path d="M5.6145 5.3543
L5.3121 5.3543
" />
<path d="M5.3121 5.3543
L5.1911 5.2938
" />
<path d="M5.1911 5.2938
L5.1306 5.1728
" />
<path d="M5.1306 5.1728
L5.1306 5.0519
" />
<path d="M5.1306 5.0519
L5.1911 4.9309
" />
<path d="M5.1911 4.9309
L5.3121 4.8705
" />
<path d="M5.3121 4.8705
L5.6145 4.8705
" />
<path d="M5.6145 4.8705
L5.7354 4.8100
" />
<path d="M6.8845 5.3543
L6.8845 4.0843
" />
<path d="M6.8845 5.2938
L6.7635 5.3543
" />
<path d="M6.7635 5.3543
L6.5216 5.3543
" />
<path d="M6.5216 5.3543
L6.4006 5.2938
" />
<path d="M6.4006 5.2938
L6.3402 5.2333
" />
<path d="M6.3402 5.2333
L6.2797 5.1124
" />
<path d="M6.2797 5.1124
L6.2797 4.7495
" />
<path d="M6.2797 4.7495
L6.3402 4.6286
" />
<path d="M6.3402 4.6286
L6.4006 4.5681
" />
<path d="M6.4006 4.5681
L6.5216 4.5076
" />
<path d="M6.5216 4.5076
L6.7635 4.5076
" />
<path d="M6.7635 4.5076
L6.8845 4.5681
" />
<path d="M7.4892 5.3543
L7.4892 4.5076
" />
<path d="M7.4892 4.0843
L7.4287 4.1447
" />
<path d="M7.4287 4.1447
L7.4892 4.2052
" />
<path d="M7.4892 4.2052
L7.5497 4.1447
" />
<path d="M7.5497 4.1447
L7.4892 4.0843
" />
<path d="M7.4892 4.0843
L7.4892 4.2052
" />
<path d="M8.6383 5.3543
L8.6383 4.6890
" />
<path d="M8.6383 4.6890
L8.5778 4.5681
" />
<path d="M8.5778 4.5681
L8.4568 4.5076
" />
<path d="M8.4568 4.5076
L8.2149 4.5076
" />
<path d="M8.2149 4.5076
L8.0940 4.5681
" />
<path d="M8.6383 5.2938
L8.5173 5.3543
" />
<path d="M8.5173 5.3543
L8.2149 5.3543
" />
<path d="M8.2149 5.3543
L8.0940 5.2938
" />
<path d="M8.0940 5.2938
L8.0335 5.1728
" />
<path d="M8.0335 5.1728
L8.0335 5.0519
" />
<path d="M8.0335 5.0519
L8.0940 4.9309
" />
<path d="M8.0940 4.9309
L8.2149 4.8705
" />
<path d="M8.2149 4.8705
L8.5173 4.8705
" />
<path d="M8.5173 4.8705
L8.6383 4.8100
" />
<path d="M9.4245 5.3543
L9.3035 5.2938
" />
<path d="M9.3035 5.2938
L9.2430 5.1728
" />
<path d="M9.2430 5.1728
L9.2430 4.0843
" />
<path d="M9.6059 5.4752
L10.5735 5.4752
" />
<path d="M10.6945 4.0843
L11.4202 4.0843
" />
<path d="M11.0573 5.3543
L11.0573 4.0843
" />
<path d="M12.3878 5.3543
L12.3878 4.6890
" />
<path d="M12.3878 4.6890
L12.3273 4.5681
" />
<path d="M12.3273 4.5681
L12.2064 4.5076
" />
<path d="M12.2064 4.5076
L11.9645 4.5076
" />
<path d="M11.9645 4.5076
L11.8435 4.5681
" />
<path d="M12.3878 5.2938
L12.2668 5.3543
" />
<path d="M12.2668 5.3543
L11.9645 5.3543
" />
<path d="M11.9645 5.3543
L11.8435 5.2938
" />
<path d="M11.8435 5.2938
L11.7830 5.1728
" />
<path d="M11.7830 5.1728
L11.7830 5.0519
" />
<path d="M11.7830 5.0519
L11.8435 4.9309
" />
<path d="M11.8435 4.9309
L11.9645 4.8705
" />
<path d="M11.9645 4.8705
L12.2668 4.8705
" />
<path d="M12.2668 4.8705
L12.3878 4.8100
" />
<path d="M12.9926 4.5076
L12.9926 5.3543
" />
<path d="M12.9926 4.6286
L13.0530 4.5681
" />
<path d="M13.0530 4.5681
L13.1740 4.5076
" />
<path d="M13.1740 4.5076
L13.3554 4.5076
" />
<path d="M13.3554 4.5076
L13.4764 4.5681
" />
<path d="M13.4764 4.5681
L13.5368 4.6890
" />
<path d="M13.5368 4.6890
L13.5368 5.3543
" />
<path d="M13.9602 4.5076
L14.4440 4.5076
" />
<path d="M14.1416 4.0843
L14.1416 5.1728
" />
<path d="M14.1416 5.1728
L14.2021 5.2938
" />
<path d="M14.2021 5.2938
L14.3230 5.3543
" />
<path d="M14.3230 5.3543
L14.4440 5.3543
" />
<path d="M15.4116 5.3543
L15.4116 4.6890
" />
<path d="M15.4116 4.6890
L15.3511 4.5681
" />
<path d="M15.3511 4.5681
L15.2302 4.5076
" />
<path d="M15.2302 4.5076
L14.9883 4.5076
" />
<path d="M14.9883 4.5076
L14.8673 4.5681
" />
<path d="M15.4116 5.2938
L15.2907 5.3543
" />
<path d="M15.2907 5.3543
L14.9883 5.3543
" />
<path d="M14.9883 5.3543
L14.8673 5.2938
" />
<path d="M14.8673 5.2938
L14.8068 5.1728
" />
<path d="M14.8068 5.1728
L14.8068 5.0519
" />
<path d="M14.8068 5.0519
L14.8673 4.9309
" />
<path d="M14.8673 4.9309
L14.9883 4.8705
" />
<path d="M14.9883 4.8705
L15.2907 4.8705
" />
<path d="M15.2907 4.8705
L15.4116 4.8100
" />
<path d="M16.1978 5.3543
L16.0768 5.2938
" />
<path d="M16.0768 5.2938
L16.0164 5.1728
" />
<path d="M16.0164 5.1728
L16.0164 4.0843
" />
<path d="M16.3792 5.4752
L17.3468 5.4752
" />
<path d="M17.6492 5.3543
L17.6492 4.0843
" />
<path d="M17.6492 4.0843
L17.9516 4.0843
" />
<path d="M17.9516 4.0843
L18.1330 4.1447
" />
<path d="M18.1330 4.1447
L18.2540 4.2657
" />
<path d="M18.2540 4.2657
L18.3145 4.3867
" />
<path d="M18.3145 4.3867
L18.3749 4.6286
" />
<path d="M18.3749 4.6286
L18.3749 4.8100
" />
<path d="M18.3749 4.8100
L18.3145 5.0519
" />
<path d="M18.3145 5.0519
L18.2540 5.1728
" />
<path d="M18.2540 5.1728
L18.1330 5.2938
" />
<path d="M18.1330 5.2938
L17.9516 5.3543
" />
<path d="M17.9516 5.3543
L17.6492 5.3543
" />
<path d="M18.9797 5.3543
L19.2216 5.3543
" />
<path d="M19.2216 5.3543
L19.3426 5.2938
" />
<path d="M19.3426 5.2938
L19.4030 5.2333
" />
<path d="M19.4030 5.2333
L19.5240 5.0519
" />
<path d="M19.5240 5.0519
L19.5845 4.8100
" />
<path d="M19.5845 4.8100
L19.5845 4.3262
" />
<path d="M19.5845 4.3262
L19.5240 4.2052
" />
<path d="M19.5240 4.2052
L19.4635 4.1447
" />
<path d="M19.4635 4.1447
L19.3426 4.0843
" />
<path d="M19.3426 4.0843
L19.1006 4.0843
" />
<path d="M19.1006 4.0843
L18.9797 4.1447
" />
<path d="M18.9797 4.1447
L18.9192 4.2052
" />
<path d="M18.9192 4.2052
L18.8587 4.3262
" />
<path d="M18.8587 4.3262
L18.8587 4.6286
" />
<path d="M18.8587 4.6286
L18.9192 4.7495
" />
<path d="M18.9192 4.7495
L18.9797 4.8100
" />
<path d="M18.9797 4.8100
L19.1006 4.8705
" />
<path d="M19.1006 4.8705
L19.3426 4.8705
" />
<path d="M19.3426 4.8705
L19.4635 4.8100
" />
<path d="M19.4635 4.8100
L19.5240 4.7495
" />
<path d="M19.5240 4.7495
L19.5845 4.6286
" />
<path d="M20.1287 5.2333
L20.1892 5.2938
" />
<path d="M20.1892 5.2938
L20.1287 5.3543
" />
<path d="M20.1287 5.3543
L20.0683 5.2938
" />
<path d="M20.0683 5.2938
L20.1287 5.2333
" />
<path d="M20.1287 5.2333
L20.1287 5.3543
" />
<path d="M20.9754 4.0843
L21.0964 4.0843
" />
<path d="M21.0964 4.0843
L21.2173 4.1447
" />
<path d="M21.2173 4.1447
L21.2778 4.2052
" />
<path d="M21.2778 4.2052
L21.3383 4.3262
" />
<path d="M21.3383 4.3262
L21.3987 4.5681
" />
<path d="M21.3987 4.5681
L21.3987 4.8705
" />
<path d="M21.3987 4.8705
L21.3383 5.1124
" />
<path d="M21.3383 5.1124
L21.2778 5.2333
" />
<path d="M21.2778 5.2333
L21.2173 5.2938
" />
<path d="M21.2173 5.2938
L21.0964 5.3543
" />
<path d="M21.0964 5.3543
L20.9754 5.3543
" />
<path d="M20.9754 5.3543
L20.8545 5.2938
" />
<path d="M20.8545 5.2938
L20.7940 5.2333
" />
<path d="M20.7940 5.2333
L20.7335 5.1124
" />
<path d="M20.7335 5.1124
L20.6730 4.8705
" />
<path d="M20.6730 4.8705
L20.6730 4.5681
" />
<path d="M20.6730 4.5681
L20.7335 4.3262
" />
<path d="M20.7335 4.3262
L20.7940 4.2052
" />
<path d="M20.7940 4.2052
L20.8545 4.1447
" />
<path d="M20.8545 4.1447
L20.9754 4.0843
" />
<path d="M21.9430 5.3543
L21.9430 4.5076
" />
<path d="M21.9430 4.6286
L22.0035 4.5681
" />
<path d="M22.0035 4.5681
L22.1245 4.5076
" />
<path d="M22.1245 4.5076
L22.3059 4.5076
" />
<path d="M22.3059 4.5076
L22.4268 4.5681
" />
<path d="M22.4268 4.5681
L22.4873 4.6890
" />
<path d="M22.4873 4.6890
L22.4873 5.3543
" />
<path d="M22.4873 4.6890
L22.5478 4.5681
" />
<path d="M22.5478 4.5681
L22.6687 4.5076
" />
<path d="M22.6687 4.5076
L22.8502 4.5076
" />
<path d="M22.8502 4.5076
L22.9711 4.5681
" />
<path d="M22.9711 4.5681
L23.0316 4.6890
" />
<path d="M23.0316 4.6890
L23.0316 5.3543
" />
<path d="M23.6364 5.3543
L23.6364 4.5076
" />
<path d="M23.6364 4.6286
L23.6968 4.5681
" />
<path d="M23.6968 4.5681
L23.8178 4.5076
" />
<path d="M23.8178 4.5076
L23.9992 4.5076
" />
<path d="M23.9992 4.5076
L24.1202 4.5681
" />
<path d="M24.1202 4.5681
L24.1806 4.6890
" />
<path d="M24.1806 4.6890
L24.1806 5.3543
" />
<path d="M24.1806 4.6890
L24.2411 4.5681
" />
<path d="M24.2411 4.5681
L24.3621 4.5076
" />
<path d="M24.3621 4.5076
L24.5435 4.5076
" />
<path d="M24.5435 4.5076
L24.6645 4.5681
" />
<path d="M24.6645 4.5681
L24.7249 4.6890
" />
<path d="M24.7249 4.6890
L24.7249 5.3543
" />
<path d="M25.0273 5.4752
L25.9949 5.4752
" />
<path d="M26.2973 5.3543
L26.2973 4.0843
" />
<path d="M26.2973 4.0843
L26.7811 4.0843
" />
<path d="M26.7811 4.0843
L26.9021 4.1447
" />
<path d="M26.9021 4.1447
L26.9626 4.2052
" />
<path d="M26.9626 4.2052
L27.0230 4.3262
" />
<path d="M27.0230 4.3262
L27.0230 4.5076
" />
<path d="M27.0230 4.5076
L26.9626 4.6286
" />
<path d="M26.9626 4.6286
L26.9021 4.6890
" />
<path d="M26.9021 4.6890
L26.7811 4.7495
" />
<path d="M26.7811 4.7495
L26.2973 4.7495
" />
<path d="M28.1721 4.0843
L27.5673 4.0843
" />
<path d="M27.5673 4.0843
L27.5068 4.6890
" />
<path d="M27.5068 4.6890
L27.5673 4.6286
" />
<path d="M27.5673 4.6286
L27.6883 4.5681
" />
<path d="M27.6883 4.5681
L27.9906 4.5681
" />
<path d="M27.9906 4.5681
L28.1116 4.6286
" />
<path d="M28.1116 4.6286
L28.1721 4.6890
" />
<path d="M28.1721 4.6890
L28.2326 4.8100
" />
<path d="M28.2326 4.8100
L28.2326 5.1124
" />
<path d="M28.2326 5.1124
L28.1721 5.2333
" />
<path d="M28.1721 5.2333
L28.1116 5.2938
" />
<path d="M28.1116 5.2938
L27.9906 5.3543
" />
<path d="M27.9906 5.3543
L27.6883 5.3543
" />
<path d="M27.6883 5.3543
L27.5673 5.2938
" />
<path d="M27.5673 5.2938
L27.5068 5.2333
" />
<path d="M28.7768 5.2333
L28.8373 5.2938
" />
<path d="M28.8373 5.2938
L28.7768 5.3543
" />
<path d="M28.7768 5.3543
L28.7164 5.2938
" />
<path d="M28.7164 5.2938
L28.7768 5.2333
" />
<path d="M28.7768 5.2333
L28.7768 5.3543
" />
<path d="M29.6235 4.0843
L29.7445 4.0843
" />
<path d="M29.7445 4.0843
L29.8654 4.1447
" />
<path d="M29.8654 4.1447
L29.9259 4.2052
" />
<path d="M29.9259 4.2052
L29.9864 4.3262
" />
<path d="M29.9864 4.3262
L30.0468 4.5681
" />
<path d="M30.0468 4.5681
L30.0468 4.8705
" />
<path d="M30.0468 4.8705
L29.9864 5.1124
" />
<path d="M29.9864 5.1124
L29.9259 5.2333
" />
<path d="M29.9259 5.2333
L29.8654 5.2938
" />
<path d="M29.8654 5.2938
L29.7445 5.3543
" />
<path d="M29.7445 5.3543
L29.6235 5.3543
" />
<path d="M29.6235 5.3543
L29.5026 5.2938
" />
<path d="M29.5026 5.2938
L29.4421 5.2333
" />
<path d="M29.4421 5.2333
L29.3816 5.1124
" />
<path d="M29.3816 5.1124
L29.3211 4.8705
" />
<path d="M29.3211 4.8705
L29.3211 4.5681
" />
<path d="M29.3211 4.5681
L29.3816 4.3262
" />
<path d="M29.3816 4.3262
L29.4421 4.2052
" />
<path d="M29.4421 4.2052
L29.5026 4.1447
" />
<path d="M29.5026 4.1447
L29.6235 4.0843
" />
<path d="M30.8330 4.0843
L30.9540 4.0843
" />
<path d="M30.9540 4.0843
L31.0749 4.1447
" />
<path d="M31.0749 4.1447
L31.1354 4.2052
" />
<path d="M31.1354 4.2052
L31.1959 4.3262
" />
<path d="M31.1959 4.3262
L31.2564 4.5681
" />
<path d="M31.2564 4.5681
L31.2564 4.8705
" />
<path d="M31.2564 4.8705
L31.1959 5.1124
" />
<path d="M31.1959 5.1124
L31.1354 5.2333
" />
<path d="M31.1354 5.2333
L31.0749 5.2938
" />
<path d="M31.0749 5.2938
L30.9540 5.3543
" />
<path d="M30.9540 5.3543
L30.8330 5.3543
" />
<path d="M30.8330 5.3543
L30.7121 5.2938
" />
<path d="M30.7121 5.2938
L30.6516 5.2333
" />
<path d="M30.6516 5.2333
L30.5911 5.1124
" />
<path d="M30.5911 5.1124
L30.5306 4.8705
" />
<path d="M30.5306 4.8705
L30.5306 4.5681
" />
<path d="M30.5306 4.5681
L30.5911 4.3262
" />
<path d="M30.5911 4.3262
L30.6516 4.2052
" />
<path d="M30.6516 4.2052
L30.7121 4.1447
" />
<path d="M30.7121 4.1447
L30.8330 4.0843
" />
<path d="M31.8006 5.3543
L31.8006 4.5076
" />
<path d="M31.8006 4.6286
L31.8611 4.5681
" />
<path d="M31.8611 4.5681
L31.9821 4.5076
" />
<path d="M31.9821 4.5076
L32.1635 4.5076
" />
<path d="M32.1635 4.5076
L32.2845 4.5681
" />
<path d="M32.2845 4.5681
L32.3449 4.6890
" />
<path d="M32.3449 4.6890
L32.3449 5.3543
" />
<path d="M32.3449 4.6890
L32.4054 4.5681
" />
<path d="M32.4054 4.5681
L32.5264 4.5076
" />
<path d="M32.5264 4.5076
L32.7078 4.5076
" />
<path d="M32.7078 4.5076
L32.8287 4.5681
" />
<path d="M32.8287 4.5681
L32.8892 4.6890
" />
<path d="M32.8892 4.6890
L32.8892 5.3543
" />
<path d="M33.4940 5.3543
L33.4940 4.5076
" />
<path d="M33.4940 4.6286
L33.5545 4.5681
" />
<path d="M33.5545 4.5681
L33.6754 4.5076
" />
<path d="M33.6754 4.5076
L33.8568 4.5076
" />
<path d="M33.8568 4.5076
L33.9778 4.5681
" />
<path d="M33.9778 4.5681
L34.0383 4.6890
" />
<path d="M34.0383 4.6890
L34.0383 5.3543
" />
<path d="M34.0383 4.6890
L34.0987 4.5681
" />
<path d="M34.0987 4.5681
L34.2197 4.5076
" />
<path d="M34.2197 4.5076
L34.4011 4.5076
" />
<path d="M34.4011 4.5076
L34.5221 4.5681
" />
<path d="M34.5221 4.5681
L34.5826 4.6890
" />
<path d="M34.5826 4.6890
L34.5826 5.3543
" />
</g></g>
<g style="fill:none; 
stroke:#AFAFAF; stroke-width:0.1500; stroke-opacity:1; 
stroke-linecap:round; stroke-linejoin:round;">
<text x="19.9980" y="5.2750"
textLength="4.5357" font-size="1.3333" lengthAdjust="spacingAndGlyphs"
text-anchor="middle" opacity="0">REF**</text>
<g class="stroked-text"><desc>REF**</desc>
<path d="M18.6647 5.2298
L18.3314 4.7536
" />
<path d="M18.0933 5.2298
L18.0933 4.2298
" />
<path d="M18.0933 4.2298
L18.4742 4.2298
" />
<path d="M18.4742 4.2298
L18.5695 4.2774
" />
<path d="M18.5695 4.2774
L18.6171 4.3251
" />
<path d="M18.6171 4.3251
L18.6647 4.4203
" />
<path d="M18.6647 4.4203
L18.6647 4.5632
" />
<path d="M18.6647 4.5632
L18.6171 4.6584
" />
<path d="M18.6171 4.6584
L18.5695 4.7060
" />
<path d="M18.5695 4.7060
L18.4742 4.7536
" />
<path d="M18.4742 4.7536
L18.0933 4.7536
" />
<path d="M19.0933 4.7060
L19.4266 4.7060
" />
<path d="M19.5695 5.2298
L19.0933 5.2298
" />
<path d="M19.0933 5.2298
L19.0933 4.2298
" />
<path d="M19.0933 4.2298
L19.5695 4.2298
" />
<path d="M20.3314 4.7060
L19.9980 4.7060
" />
<path d="M19.9980 5.2298
L19.9980 4.2298
" />
<path d="M19.9980 4.2298
L20.4742 4.2298
" />
<path d="M20.9980 4.2298
L20.9980 4.4679
" />
<path d="M20.7599 4.3727
L20.9980 4.4679
" />
<path d="M20.9980 4.4679
L21.2361 4.3727
" />
<path d="M20.8552 4.6584
L20.9980 4.4679
" />
<path d="M20.9980 4.4679
L21.1409 4.6584
" />
<path d="M21.7599 4.2298
L21.7599 4.4679
" />
<path d="M21.5218 4.3727
L21.7599 4.4679
" />
<path d="M21.7599 4.4679
L21.9980 4.3727
" />
<path d="M21.6171 4.6584
L21.7599 4.4679
" />
<path d="M21.7599 4.4679
L21.9028 4.6584
" />
</g></g>
<g style="fill:none; 
stroke:#AFAFAF; stroke-width:0.1000; stroke-opacity:1; 
stroke-linecap:round; stroke-linejoin:round;">
<path d="M16.1402 2.8075
L17.0402 2.8075
" />
<path d="M16.5902 2.3575
L16.5902 3.2575
" />
<circle cx="19.9980" cy="4.7750" r="4.5000" /> 
</g> 
</svg>
