<?xml version="1.0" standalone="no"?>
 <!DOCTYPE svg PUBLIC "-//W3C//DTD SVG 1.1//EN" 
 "http://www.w3.org/Graphics/SVG/1.1/DTD/svg11.dtd"> 
<svg
  xmlns:svg="http://www.w3.org/2000/svg"
  xmlns="http://www.w3.org/2000/svg"
  xmlns:xlink="http://www.w3.org/1999/xlink"
  version="1.1"
  width="42.5958mm" height="36.1188mm" viewBox="0.0000 0.0000 42.5958 36.1188">
<title>SVG Image created as working-brd.svg date 2024/04/21 09:48:47 </title>
  <desc>Image generated by PCBNEW </desc>
<g style="fill:#000000; fill-opacity:1.0000;stroke:#000000; stroke-opacity:1.0000;
stroke-linecap:round; stroke-linejoin:round;"
 transform="translate(0 0) scale(1 1)">
</g>
<g style="fill:#FFFFFF; fill-opacity:1.0000; stroke:none;">
<circle cx="21.3080" cy="1.5450" r="0.4000" /> 
</g>
<g style="fill:#FFFFFF; fill-opacity:1.0000; stroke:none;">
<circle cx="21.3080" cy="4.0850" r="0.4000" /> 
</g>
<g style="fill:#FFFFFF; fill-opacity:1.0000; stroke:none;">
<circle cx="21.3080" cy="6.6250" r="0.4000" /> 
</g>
<g style="fill:#FFFFFF; fill-opacity:1.0000; stroke:none;">
<circle cx="21.3080" cy="9.1650" r="0.4000" /> 
</g>
<g style="fill:#FFFFFF; fill-opacity:1.0000; stroke:none;">
<circle cx="21.3080" cy="11.7050" r="0.4000" /> 
</g>
<g style="fill:#FFFFFF; fill-opacity:1.0000; stroke:none;">
<circle cx="21.3080" cy="14.2450" r="0.4000" /> 
</g>
<g style="fill:#FFFFFF; fill-opacity:1.0000; stroke:none;">
<circle cx="21.3080" cy="16.7850" r="0.4000" /> 
</g>
<g style="fill:#FFFFFF; fill-opacity:1.0000; stroke:none;">
<circle cx="21.3080" cy="19.3250" r="0.4000" /> 
</g>
<g style="fill:#FFFFFF; fill-opacity:1.0000; stroke:none;">
<circle cx="21.3080" cy="21.8650" r="0.4000" /> 
</g>
<g style="fill:#FFFFFF; fill-opacity:1.0000; stroke:none;">
<circle cx="21.3080" cy="24.4050" r="0.4000" /> 
</g>
<g style="fill:#FFFFFF; fill-opacity:1.0000; stroke:none;">
<circle cx="21.3080" cy="26.9450" r="0.4000" /> 
</g>
<g style="fill:#FFFFFF; fill-opacity:1.0000; stroke:none;">
<circle cx="21.3080" cy="29.4850" r="0.4000" /> 
</g>
<g style="fill:#FFFFFF; fill-opacity:1.0000; stroke:none;">
<circle cx="21.3080" cy="32.0250" r="0.4000" /> 
</g>
<g style="fill:#FFFFFF; fill-opacity:1.0000; stroke:none;">
<circle cx="21.3080" cy="34.5650" r="0.4000" /> 
</g>
<g style="fill:#FFFFFF; fill-opacity:1.0000; stroke:none;">
<circle cx="28.9280" cy="34.5650" r="0.4000" /> 
</g>
<g style="fill:#FFFFFF; fill-opacity:1.0000; stroke:none;">
<circle cx="28.9280" cy="32.0250" r="0.4000" /> 
</g>
<g style="fill:#FFFFFF; fill-opacity:1.0000; stroke:none;">
<circle cx="28.9280" cy="29.4850" r="0.4000" /> 
</g>
<g style="fill:#FFFFFF; fill-opacity:1.0000; stroke:none;">
<circle cx="28.9280" cy="26.9450" r="0.4000" /> 
</g>
<g style="fill:#FFFFFF; fill-opacity:1.0000; stroke:none;">
<circle cx="28.9280" cy="24.4050" r="0.4000" /> 
</g>
<g style="fill:#FFFFFF; fill-opacity:1.0000; stroke:none;">
<circle cx="28.9280" cy="21.8650" r="0.4000" /> 
</g>
<g style="fill:#FFFFFF; fill-opacity:1.0000; stroke:none;">
<circle cx="28.9280" cy="19.3250" r="0.4000" /> 
</g>
<g style="fill:#FFFFFF; fill-opacity:1.0000; stroke:none;">
<circle cx="28.9280" cy="16.7850" r="0.4000" /> 
</g>
<g style="fill:#FFFFFF; fill-opacity:1.0000; stroke:none;">
<circle cx="28.9280" cy="14.2450" r="0.4000" /> 
</g>
<g style="fill:#FFFFFF; fill-opacity:1.0000; stroke:none;">
<circle cx="28.9280" cy="11.7050" r="0.4000" /> 
</g>
<g style="fill:#FFFFFF; fill-opacity:1.0000; stroke:none;">
<circle cx="28.9280" cy="9.1650" r="0.4000" /> 
</g>
<g style="fill:#FFFFFF; fill-opacity:1.0000; stroke:none;">
<circle cx="28.9280" cy="6.6250" r="0.4000" /> 
</g>
<g style="fill:#FFFFFF; fill-opacity:1.0000; stroke:none;">
<circle cx="28.9280" cy="4.0850" r="0.4000" /> 
</g>
<g style="fill:#FFFFFF; fill-opacity:1.0000; stroke:none;">
<circle cx="28.9280" cy="1.5450" r="0.4000" /> 
<path style="fill:#02FFEE; fill-opacity:0.4000; stroke:none;fill-rule:evenodd;"
d="M 20.1080,2.3450
20.1080,0.7450
22.5080,0.7450
22.5080,2.3450
Z" /> 
</g>
<g style="fill:none; 
stroke:#02FFEE; stroke-width:1.6000; stroke-opacity:1; 
stroke-linecap:round; stroke-linejoin:round;">
<path d="M20.9080 4.0850
L21.7080 4.0850
" />
<path d="M20.9080 6.6250
L21.7080 6.6250
" />
<path d="M20.9080 9.1650
L21.7080 9.1650
" />
<path d="M20.9080 11.7050
L21.7080 11.7050
" />
<path d="M20.9080 14.2450
L21.7080 14.2450
" />
<path d="M20.9080 16.7850
L21.7080 16.7850
" />
<path d="M20.9080 19.3250
L21.7080 19.3250
" />
<path d="M20.9080 21.8650
L21.7080 21.8650
" />
<path d="M20.9080 24.4050
L21.7080 24.4050
" />
<path d="M20.9080 26.9450
L21.7080 26.9450
" />
<path d="M20.9080 29.4850
L21.7080 29.4850
" />
<path d="M20.9080 32.0250
L21.7080 32.0250
" />
<path d="M20.9080 34.5650
L21.7080 34.5650
" />
<path d="M28.5280 34.5650
L29.3280 34.5650
" />
<path d="M28.5280 32.0250
L29.3280 32.0250
" />
<path d="M28.5280 29.4850
L29.3280 29.4850
" />
<path d="M28.5280 26.9450
L29.3280 26.9450
" />
<path d="M28.5280 24.4050
L29.3280 24.4050
" />
<path d="M28.5280 21.8650
L29.3280 21.8650
" />
<path d="M28.5280 19.3250
L29.3280 19.3250
" />
<path d="M28.5280 16.7850
L29.3280 16.7850
" />
<path d="M28.5280 14.2450
L29.3280 14.2450
" />
<path d="M28.5280 11.7050
L29.3280 11.7050
" />
<path d="M28.5280 9.1650
L29.3280 9.1650
" />
<path d="M28.5280 6.6250
L29.3280 6.6250
" />
<path d="M28.5280 4.0850
L29.3280 4.0850
" />
<path d="M28.5280 1.5450
L29.3280 1.5450
" />
</g>
<g style="fill:#FFFFFF; fill-opacity:1.0000; stroke:none;">
<circle cx="21.3080" cy="1.5450" r="0.4000" /> 
</g>
<g style="fill:#FFFFFF; fill-opacity:1.0000; stroke:none;">
<circle cx="21.3080" cy="4.0850" r="0.4000" /> 
</g>
<g style="fill:#FFFFFF; fill-opacity:1.0000; stroke:none;">
<circle cx="21.3080" cy="6.6250" r="0.4000" /> 
</g>
<g style="fill:#FFFFFF; fill-opacity:1.0000; stroke:none;">
<circle cx="21.3080" cy="9.1650" r="0.4000" /> 
</g>
<g style="fill:#FFFFFF; fill-opacity:1.0000; stroke:none;">
<circle cx="21.3080" cy="11.7050" r="0.4000" /> 
</g>
<g style="fill:#FFFFFF; fill-opacity:1.0000; stroke:none;">
<circle cx="21.3080" cy="14.2450" r="0.4000" /> 
</g>
<g style="fill:#FFFFFF; fill-opacity:1.0000; stroke:none;">
<circle cx="21.3080" cy="16.7850" r="0.4000" /> 
</g>
<g style="fill:#FFFFFF; fill-opacity:1.0000; stroke:none;">
<circle cx="21.3080" cy="19.3250" r="0.4000" /> 
</g>
<g style="fill:#FFFFFF; fill-opacity:1.0000; stroke:none;">
<circle cx="21.3080" cy="21.8650" r="0.4000" /> 
</g>
<g style="fill:#FFFFFF; fill-opacity:1.0000; stroke:none;">
<circle cx="21.3080" cy="24.4050" r="0.4000" /> 
</g>
<g style="fill:#FFFFFF; fill-opacity:1.0000; stroke:none;">
<circle cx="21.3080" cy="26.9450" r="0.4000" /> 
</g>
<g style="fill:#FFFFFF; fill-opacity:1.0000; stroke:none;">
<circle cx="21.3080" cy="29.4850" r="0.4000" /> 
</g>
<g style="fill:#FFFFFF; fill-opacity:1.0000; stroke:none;">
<circle cx="21.3080" cy="32.0250" r="0.4000" /> 
</g>
<g style="fill:#FFFFFF; fill-opacity:1.0000; stroke:none;">
<circle cx="21.3080" cy="34.5650" r="0.4000" /> 
</g>
<g style="fill:#FFFFFF; fill-opacity:1.0000; stroke:none;">
<circle cx="28.9280" cy="34.5650" r="0.4000" /> 
</g>
<g style="fill:#FFFFFF; fill-opacity:1.0000; stroke:none;">
<circle cx="28.9280" cy="32.0250" r="0.4000" /> 
</g>
<g style="fill:#FFFFFF; fill-opacity:1.0000; stroke:none;">
<circle cx="28.9280" cy="29.4850" r="0.4000" /> 
</g>
<g style="fill:#FFFFFF; fill-opacity:1.0000; stroke:none;">
<circle cx="28.9280" cy="26.9450" r="0.4000" /> 
</g>
<g style="fill:#FFFFFF; fill-opacity:1.0000; stroke:none;">
<circle cx="28.9280" cy="24.4050" r="0.4000" /> 
</g>
<g style="fill:#FFFFFF; fill-opacity:1.0000; stroke:none;">
<circle cx="28.9280" cy="21.8650" r="0.4000" /> 
</g>
<g style="fill:#FFFFFF; fill-opacity:1.0000; stroke:none;">
<circle cx="28.9280" cy="19.3250" r="0.4000" /> 
</g>
<g style="fill:#FFFFFF; fill-opacity:1.0000; stroke:none;">
<circle cx="28.9280" cy="16.7850" r="0.4000" /> 
</g>
<g style="fill:#FFFFFF; fill-opacity:1.0000; stroke:none;">
<circle cx="28.9280" cy="14.2450" r="0.4000" /> 
</g>
<g style="fill:#FFFFFF; fill-opacity:1.0000; stroke:none;">
<circle cx="28.9280" cy="11.7050" r="0.4000" /> 
</g>
<g style="fill:#FFFFFF; fill-opacity:1.0000; stroke:none;">
<circle cx="28.9280" cy="9.1650" r="0.4000" /> 
</g>
<g style="fill:#FFFFFF; fill-opacity:1.0000; stroke:none;">
<circle cx="28.9280" cy="6.6250" r="0.4000" /> 
</g>
<g style="fill:#FFFFFF; fill-opacity:1.0000; stroke:none;">
<circle cx="28.9280" cy="4.0850" r="0.4000" /> 
</g>
<g style="fill:#FFFFFF; fill-opacity:1.0000; stroke:none;">
<circle cx="28.9280" cy="1.5450" r="0.4000" /> 
</g>
<g style="fill:#FFFFFF; fill-opacity:1.0000; stroke:none;">
<circle cx="21.3080" cy="1.5450" r="0.4000" /> 
</g>
<g style="fill:#FFFFFF; fill-opacity:1.0000; stroke:none;">
<circle cx="21.3080" cy="4.0850" r="0.4000" /> 
</g>
<g style="fill:#FFFFFF; fill-opacity:1.0000; stroke:none;">
<circle cx="21.3080" cy="6.6250" r="0.4000" /> 
</g>
<g style="fill:#FFFFFF; fill-opacity:1.0000; stroke:none;">
<circle cx="21.3080" cy="9.1650" r="0.4000" /> 
</g>
<g style="fill:#FFFFFF; fill-opacity:1.0000; stroke:none;">
<circle cx="21.3080" cy="11.7050" r="0.4000" /> 
</g>
<g style="fill:#FFFFFF; fill-opacity:1.0000; stroke:none;">
<circle cx="21.3080" cy="14.2450" r="0.4000" /> 
</g>
<g style="fill:#FFFFFF; fill-opacity:1.0000; stroke:none;">
<circle cx="21.3080" cy="16.7850" r="0.4000" /> 
</g>
<g style="fill:#FFFFFF; fill-opacity:1.0000; stroke:none;">
<circle cx="21.3080" cy="19.3250" r="0.4000" /> 
</g>
<g style="fill:#FFFFFF; fill-opacity:1.0000; stroke:none;">
<circle cx="21.3080" cy="21.8650" r="0.4000" /> 
</g>
<g style="fill:#FFFFFF; fill-opacity:1.0000; stroke:none;">
<circle cx="21.3080" cy="24.4050" r="0.4000" /> 
</g>
<g style="fill:#FFFFFF; fill-opacity:1.0000; stroke:none;">
<circle cx="21.3080" cy="26.9450" r="0.4000" /> 
</g>
<g style="fill:#FFFFFF; fill-opacity:1.0000; stroke:none;">
<circle cx="21.3080" cy="29.4850" r="0.4000" /> 
</g>
<g style="fill:#FFFFFF; fill-opacity:1.0000; stroke:none;">
<circle cx="21.3080" cy="32.0250" r="0.4000" /> 
</g>
<g style="fill:#FFFFFF; fill-opacity:1.0000; stroke:none;">
<circle cx="21.3080" cy="34.5650" r="0.4000" /> 
</g>
<g style="fill:#FFFFFF; fill-opacity:1.0000; stroke:none;">
<circle cx="28.9280" cy="34.5650" r="0.4000" /> 
</g>
<g style="fill:#FFFFFF; fill-opacity:1.0000; stroke:none;">
<circle cx="28.9280" cy="32.0250" r="0.4000" /> 
</g>
<g style="fill:#FFFFFF; fill-opacity:1.0000; stroke:none;">
<circle cx="28.9280" cy="29.4850" r="0.4000" /> 
</g>
<g style="fill:#FFFFFF; fill-opacity:1.0000; stroke:none;">
<circle cx="28.9280" cy="26.9450" r="0.4000" /> 
</g>
<g style="fill:#FFFFFF; fill-opacity:1.0000; stroke:none;">
<circle cx="28.9280" cy="24.4050" r="0.4000" /> 
</g>
<g style="fill:#FFFFFF; fill-opacity:1.0000; stroke:none;">
<circle cx="28.9280" cy="21.8650" r="0.4000" /> 
</g>
<g style="fill:#FFFFFF; fill-opacity:1.0000; stroke:none;">
<circle cx="28.9280" cy="19.3250" r="0.4000" /> 
</g>
<g style="fill:#FFFFFF; fill-opacity:1.0000; stroke:none;">
<circle cx="28.9280" cy="16.7850" r="0.4000" /> 
</g>
<g style="fill:#FFFFFF; fill-opacity:1.0000; stroke:none;">
<circle cx="28.9280" cy="14.2450" r="0.4000" /> 
</g>
<g style="fill:#FFFFFF; fill-opacity:1.0000; stroke:none;">
<circle cx="28.9280" cy="11.7050" r="0.4000" /> 
</g>
<g style="fill:#FFFFFF; fill-opacity:1.0000; stroke:none;">
<circle cx="28.9280" cy="9.1650" r="0.4000" /> 
</g>
<g style="fill:#FFFFFF; fill-opacity:1.0000; stroke:none;">
<circle cx="28.9280" cy="6.6250" r="0.4000" /> 
</g>
<g style="fill:#FFFFFF; fill-opacity:1.0000; stroke:none;">
<circle cx="28.9280" cy="4.0850" r="0.4000" /> 
</g>
<g style="fill:#FFFFFF; fill-opacity:1.0000; stroke:none;">
<circle cx="28.9280" cy="1.5450" r="0.4000" /> 
<path style="fill:#D864FF; fill-opacity:0.4000; stroke:none;fill-rule:evenodd;"
d="M 20.1080,2.3450
20.1080,0.7450
22.5080,0.7450
22.5080,2.3450
Z" /> 
</g>
<g style="fill:none; 
stroke:#D864FF; stroke-width:1.6000; stroke-opacity:1; 
stroke-linecap:round; stroke-linejoin:round;">
<path d="M20.9080 4.0850
L21.7080 4.0850
" />
<path d="M20.9080 6.6250
L21.7080 6.6250
" />
<path d="M20.9080 9.1650
L21.7080 9.1650
" />
<path d="M20.9080 11.7050
L21.7080 11.7050
" />
<path d="M20.9080 14.2450
L21.7080 14.2450
" />
<path d="M20.9080 16.7850
L21.7080 16.7850
" />
<path d="M20.9080 19.3250
L21.7080 19.3250
" />
<path d="M20.9080 21.8650
L21.7080 21.8650
" />
<path d="M20.9080 24.4050
L21.7080 24.4050
" />
<path d="M20.9080 26.9450
L21.7080 26.9450
" />
<path d="M20.9080 29.4850
L21.7080 29.4850
" />
<path d="M20.9080 32.0250
L21.7080 32.0250
" />
<path d="M20.9080 34.5650
L21.7080 34.5650
" />
<path d="M28.5280 34.5650
L29.3280 34.5650
" />
<path d="M28.5280 32.0250
L29.3280 32.0250
" />
<path d="M28.5280 29.4850
L29.3280 29.4850
" />
<path d="M28.5280 26.9450
L29.3280 26.9450
" />
<path d="M28.5280 24.4050
L29.3280 24.4050
" />
<path d="M28.5280 21.8650
L29.3280 21.8650
" />
<path d="M28.5280 19.3250
L29.3280 19.3250
" />
<path d="M28.5280 16.7850
L29.3280 16.7850
" />
<path d="M28.5280 14.2450
L29.3280 14.2450
" />
<path d="M28.5280 11.7050
L29.3280 11.7050
" />
<path d="M28.5280 9.1650
L29.3280 9.1650
" />
<path d="M28.5280 6.6250
L29.3280 6.6250
" />
<path d="M28.5280 4.0850
L29.3280 4.0850
" />
<path d="M28.5280 1.5450
L29.3280 1.5450
" />
</g>
<g style="fill:none; 
stroke:#F2EDA1; stroke-width:0.1588; stroke-opacity:1; 
stroke-linecap:round; stroke-linejoin:round;">
<text x="21.3080" y="2.1800"
textLength="5.6651" font-size="1.6933" lengthAdjust="spacingAndGlyphs"
text-anchor="middle" opacity="0">REF**</text>
<g class="stroked-text"><desc>REF**</desc>
<path d="M19.6147 2.1243
L19.1914 1.5195
" />
<path d="M18.8890 2.1243
L18.8890 0.8543
" />
<path d="M18.8890 0.8543
L19.3728 0.8543
" />
<path d="M19.3728 0.8543
L19.4937 0.9147
" />
<path d="M19.4937 0.9147
L19.5542 0.9752
" />
<path d="M19.5542 0.9752
L19.6147 1.0962
" />
<path d="M19.6147 1.0962
L19.6147 1.2776
" />
<path d="M19.6147 1.2776
L19.5542 1.3986
" />
<path d="M19.5542 1.3986
L19.4937 1.4590
" />
<path d="M19.4937 1.4590
L19.3728 1.5195
" />
<path d="M19.3728 1.5195
L18.8890 1.5195
" />
<path d="M20.1590 1.4590
L20.5823 1.4590
" />
<path d="M20.7637 2.1243
L20.1590 2.1243
" />
<path d="M20.1590 2.1243
L20.1590 0.8543
" />
<path d="M20.1590 0.8543
L20.7637 0.8543
" />
<path d="M21.7314 1.4590
L21.3080 1.4590
" />
<path d="M21.3080 2.1243
L21.3080 0.8543
" />
<path d="M21.3080 0.8543
L21.9128 0.8543
" />
<path d="M22.5780 0.8543
L22.5780 1.1567
" />
<path d="M22.2756 1.0357
L22.5780 1.1567
" />
<path d="M22.5780 1.1567
L22.8804 1.0357
" />
<path d="M22.3966 1.3986
L22.5780 1.1567
" />
<path d="M22.5780 1.1567
L22.7595 1.3986
" />
<path d="M23.5456 0.8543
L23.5456 1.1567
" />
<path d="M23.2433 1.0357
L23.5456 1.1567
" />
<path d="M23.5456 1.1567
L23.8480 1.0357
" />
<path d="M23.3642 1.3986
L23.5456 1.1567
" />
<path d="M23.5456 1.1567
L23.7271 1.3986
" />
</g></g>
<g style="fill:none; 
stroke:#F2EDA1; stroke-width:0.1200; stroke-opacity:1; 
stroke-linecap:round; stroke-linejoin:round;">
<path d="M22.8680 0.2150
L22.8680 35.8950
" />
<path d="M22.8680 35.8950
L27.3680 35.8950
" />
<path d="M24.1180 0.2150
L22.8680 0.2150
" />
<path d="M27.3680 0.2150
L26.1180 0.2150
" />
<path d="M27.3680 35.8950
L27.3680 0.2150
" />
<path d="M24.1180 0.2150 A1.0000 1.0000 0.0 0 0 26.1180 0.2150" />
</g>
<g style="fill:#FFFFFF; fill-opacity:1.0000; stroke:none;">
<circle cx="21.3080" cy="1.5450" r="0.4000" /> 
</g>
<g style="fill:#FFFFFF; fill-opacity:1.0000; stroke:none;">
<circle cx="21.3080" cy="4.0850" r="0.4000" /> 
</g>
<g style="fill:#FFFFFF; fill-opacity:1.0000; stroke:none;">
<circle cx="21.3080" cy="6.6250" r="0.4000" /> 
</g>
<g style="fill:#FFFFFF; fill-opacity:1.0000; stroke:none;">
<circle cx="21.3080" cy="9.1650" r="0.4000" /> 
</g>
<g style="fill:#FFFFFF; fill-opacity:1.0000; stroke:none;">
<circle cx="21.3080" cy="11.7050" r="0.4000" /> 
</g>
<g style="fill:#FFFFFF; fill-opacity:1.0000; stroke:none;">
<circle cx="21.3080" cy="14.2450" r="0.4000" /> 
</g>
<g style="fill:#FFFFFF; fill-opacity:1.0000; stroke:none;">
<circle cx="21.3080" cy="16.7850" r="0.4000" /> 
</g>
<g style="fill:#FFFFFF; fill-opacity:1.0000; stroke:none;">
<circle cx="21.3080" cy="19.3250" r="0.4000" /> 
</g>
<g style="fill:#FFFFFF; fill-opacity:1.0000; stroke:none;">
<circle cx="21.3080" cy="21.8650" r="0.4000" /> 
</g>
<g style="fill:#FFFFFF; fill-opacity:1.0000; stroke:none;">
<circle cx="21.3080" cy="24.4050" r="0.4000" /> 
</g>
<g style="fill:#FFFFFF; fill-opacity:1.0000; stroke:none;">
<circle cx="21.3080" cy="26.9450" r="0.4000" /> 
</g>
<g style="fill:#FFFFFF; fill-opacity:1.0000; stroke:none;">
<circle cx="21.3080" cy="29.4850" r="0.4000" /> 
</g>
<g style="fill:#FFFFFF; fill-opacity:1.0000; stroke:none;">
<circle cx="21.3080" cy="32.0250" r="0.4000" /> 
</g>
<g style="fill:#FFFFFF; fill-opacity:1.0000; stroke:none;">
<circle cx="21.3080" cy="34.5650" r="0.4000" /> 
</g>
<g style="fill:#FFFFFF; fill-opacity:1.0000; stroke:none;">
<circle cx="28.9280" cy="34.5650" r="0.4000" /> 
</g>
<g style="fill:#FFFFFF; fill-opacity:1.0000; stroke:none;">
<circle cx="28.9280" cy="32.0250" r="0.4000" /> 
</g>
<g style="fill:#FFFFFF; fill-opacity:1.0000; stroke:none;">
<circle cx="28.9280" cy="29.4850" r="0.4000" /> 
</g>
<g style="fill:#FFFFFF; fill-opacity:1.0000; stroke:none;">
<circle cx="28.9280" cy="26.9450" r="0.4000" /> 
</g>
<g style="fill:#FFFFFF; fill-opacity:1.0000; stroke:none;">
<circle cx="28.9280" cy="24.4050" r="0.4000" /> 
</g>
<g style="fill:#FFFFFF; fill-opacity:1.0000; stroke:none;">
<circle cx="28.9280" cy="21.8650" r="0.4000" /> 
</g>
<g style="fill:#FFFFFF; fill-opacity:1.0000; stroke:none;">
<circle cx="28.9280" cy="19.3250" r="0.4000" /> 
</g>
<g style="fill:#FFFFFF; fill-opacity:1.0000; stroke:none;">
<circle cx="28.9280" cy="16.7850" r="0.4000" /> 
</g>
<g style="fill:#FFFFFF; fill-opacity:1.0000; stroke:none;">
<circle cx="28.9280" cy="14.2450" r="0.4000" /> 
</g>
<g style="fill:#FFFFFF; fill-opacity:1.0000; stroke:none;">
<circle cx="28.9280" cy="11.7050" r="0.4000" /> 
</g>
<g style="fill:#FFFFFF; fill-opacity:1.0000; stroke:none;">
<circle cx="28.9280" cy="9.1650" r="0.4000" /> 
</g>
<g style="fill:#FFFFFF; fill-opacity:1.0000; stroke:none;">
<circle cx="28.9280" cy="6.6250" r="0.4000" /> 
</g>
<g style="fill:#FFFFFF; fill-opacity:1.0000; stroke:none;">
<circle cx="28.9280" cy="4.0850" r="0.4000" /> 
</g>
<g style="fill:#FFFFFF; fill-opacity:1.0000; stroke:none;">
<circle cx="28.9280" cy="1.5450" r="0.4000" /> 
</g>
<g style="fill:none; 
stroke:#FF26E2; stroke-width:0.0500; stroke-opacity:1; 
stroke-linecap:round; stroke-linejoin:round;">
<path d="M19.8580 0.0250
L19.8580 36.0950
" />
<path d="M19.8580 36.0950
L30.3780 36.0950
" />
<path d="M30.3780 0.0250
L19.8580 0.0250
" />
<path d="M30.3780 36.0950
L30.3780 0.0250
" />
</g>
<g style="fill:none; 
stroke:#AFAFAF; stroke-width:0.1588; stroke-opacity:1; 
stroke-linecap:round; stroke-linejoin:round;">
<text x="21.3080" y="2.1800"
textLength="42.6161" font-size="1.6933" lengthAdjust="spacingAndGlyphs"
text-anchor="middle" opacity="0">CERDIP-28_W7.62mm_SideBrazed_LongPads</text>
<g class="stroked-text"><desc>CERDIP-28_W7.62mm_SideBrazed_LongPads</desc>
<path d="M1.1392 2.0033
L1.0787 2.0638
" />
<path d="M1.0787 2.0638
L0.8973 2.1243
" />
<path d="M0.8973 2.1243
L0.7764 2.1243
" />
<path d="M0.7764 2.1243
L0.5949 2.0638
" />
<path d="M0.5949 2.0638
L0.4740 1.9428
" />
<path d="M0.4740 1.9428
L0.4135 1.8219
" />
<path d="M0.4135 1.8219
L0.3530 1.5800
" />
<path d="M0.3530 1.5800
L0.3530 1.3986
" />
<path d="M0.3530 1.3986
L0.4135 1.1567
" />
<path d="M0.4135 1.1567
L0.4740 1.0357
" />
<path d="M0.4740 1.0357
L0.5949 0.9147
" />
<path d="M0.5949 0.9147
L0.7764 0.8543
" />
<path d="M0.7764 0.8543
L0.8973 0.8543
" />
<path d="M0.8973 0.8543
L1.0787 0.9147
" />
<path d="M1.0787 0.9147
L1.1392 0.9752
" />
<path d="M1.6835 1.4590
L2.1068 1.4590
" />
<path d="M2.2883 2.1243
L1.6835 2.1243
" />
<path d="M1.6835 2.1243
L1.6835 0.8543
" />
<path d="M1.6835 0.8543
L2.2883 0.8543
" />
<path d="M3.5583 2.1243
L3.1349 1.5195
" />
<path d="M2.8326 2.1243
L2.8326 0.8543
" />
<path d="M2.8326 0.8543
L3.3164 0.8543
" />
<path d="M3.3164 0.8543
L3.4373 0.9147
" />
<path d="M3.4373 0.9147
L3.4978 0.9752
" />
<path d="M3.4978 0.9752
L3.5583 1.0962
" />
<path d="M3.5583 1.0962
L3.5583 1.2776
" />
<path d="M3.5583 1.2776
L3.4978 1.3986
" />
<path d="M3.4978 1.3986
L3.4373 1.4590
" />
<path d="M3.4373 1.4590
L3.3164 1.5195
" />
<path d="M3.3164 1.5195
L2.8326 1.5195
" />
<path d="M4.1026 2.1243
L4.1026 0.8543
" />
<path d="M4.1026 0.8543
L4.4049 0.8543
" />
<path d="M4.4049 0.8543
L4.5864 0.9147
" />
<path d="M4.5864 0.9147
L4.7073 1.0357
" />
<path d="M4.7073 1.0357
L4.7678 1.1567
" />
<path d="M4.7678 1.1567
L4.8283 1.3986
" />
<path d="M4.8283 1.3986
L4.8283 1.5800
" />
<path d="M4.8283 1.5800
L4.7678 1.8219
" />
<path d="M4.7678 1.8219
L4.7073 1.9428
" />
<path d="M4.7073 1.9428
L4.5864 2.0638
" />
<path d="M4.5864 2.0638
L4.4049 2.1243
" />
<path d="M4.4049 2.1243
L4.1026 2.1243
" />
<path d="M5.3726 2.1243
L5.3726 0.8543
" />
<path d="M5.9773 2.1243
L5.9773 0.8543
" />
<path d="M5.9773 0.8543
L6.4611 0.8543
" />
<path d="M6.4611 0.8543
L6.5821 0.9147
" />
<path d="M6.5821 0.9147
L6.6426 0.9752
" />
<path d="M6.6426 0.9752
L6.7030 1.0962
" />
<path d="M6.7030 1.0962
L6.7030 1.2776
" />
<path d="M6.7030 1.2776
L6.6426 1.3986
" />
<path d="M6.6426 1.3986
L6.5821 1.4590
" />
<path d="M6.5821 1.4590
L6.4611 1.5195
" />
<path d="M6.4611 1.5195
L5.9773 1.5195
" />
<path d="M7.2473 1.6405
L8.2149 1.6405
" />
<path d="M8.7592 0.9752
L8.8197 0.9147
" />
<path d="M8.8197 0.9147
L8.9406 0.8543
" />
<path d="M8.9406 0.8543
L9.2430 0.8543
" />
<path d="M9.2430 0.8543
L9.3640 0.9147
" />
<path d="M9.3640 0.9147
L9.4245 0.9752
" />
<path d="M9.4245 0.9752
L9.4849 1.0962
" />
<path d="M9.4849 1.0962
L9.4849 1.2171
" />
<path d="M9.4849 1.2171
L9.4245 1.3986
" />
<path d="M9.4245 1.3986
L8.6987 2.1243
" />
<path d="M8.6987 2.1243
L9.4849 2.1243
" />
<path d="M10.2106 1.3986
L10.0897 1.3381
" />
<path d="M10.0897 1.3381
L10.0292 1.2776
" />
<path d="M10.0292 1.2776
L9.9687 1.1567
" />
<path d="M9.9687 1.1567
L9.9687 1.0962
" />
<path d="M9.9687 1.0962
L10.0292 0.9752
" />
<path d="M10.0292 0.9752
L10.0897 0.9147
" />
<path d="M10.0897 0.9147
L10.2106 0.8543
" />
<path d="M10.2106 0.8543
L10.4526 0.8543
" />
<path d="M10.4526 0.8543
L10.5735 0.9147
" />
<path d="M10.5735 0.9147
L10.6340 0.9752
" />
<path d="M10.6340 0.9752
L10.6945 1.0962
" />
<path d="M10.6945 1.0962
L10.6945 1.1567
" />
<path d="M10.6945 1.1567
L10.6340 1.2776
" />
<path d="M10.6340 1.2776
L10.5735 1.3381
" />
<path d="M10.5735 1.3381
L10.4526 1.3986
" />
<path d="M10.4526 1.3986
L10.2106 1.3986
" />
<path d="M10.2106 1.3986
L10.0897 1.4590
" />
<path d="M10.0897 1.4590
L10.0292 1.5195
" />
<path d="M10.0292 1.5195
L9.9687 1.6405
" />
<path d="M9.9687 1.6405
L9.9687 1.8824
" />
<path d="M9.9687 1.8824
L10.0292 2.0033
" />
<path d="M10.0292 2.0033
L10.0897 2.0638
" />
<path d="M10.0897 2.0638
L10.2106 2.1243
" />
<path d="M10.2106 2.1243
L10.4526 2.1243
" />
<path d="M10.4526 2.1243
L10.5735 2.0638
" />
<path d="M10.5735 2.0638
L10.6340 2.0033
" />
<path d="M10.6340 2.0033
L10.6945 1.8824
" />
<path d="M10.6945 1.8824
L10.6945 1.6405
" />
<path d="M10.6945 1.6405
L10.6340 1.5195
" />
<path d="M10.6340 1.5195
L10.5735 1.4590
" />
<path d="M10.5735 1.4590
L10.4526 1.3986
" />
<path d="M10.9364 2.2452
L11.9040 2.2452
" />
<path d="M12.0854 0.8543
L12.3878 2.1243
" />
<path d="M12.3878 2.1243
L12.6297 1.2171
" />
<path d="M12.6297 1.2171
L12.8716 2.1243
" />
<path d="M12.8716 2.1243
L13.1740 0.8543
" />
<path d="M13.5368 0.8543
L14.3835 0.8543
" />
<path d="M14.3835 0.8543
L13.8392 2.1243
" />
<path d="M14.8673 2.0033
L14.9278 2.0638
" />
<path d="M14.9278 2.0638
L14.8673 2.1243
" />
<path d="M14.8673 2.1243
L14.8068 2.0638
" />
<path d="M14.8068 2.0638
L14.8673 2.0033
" />
<path d="M14.8673 2.0033
L14.8673 2.1243
" />
<path d="M16.0164 0.8543
L15.7745 0.8543
" />
<path d="M15.7745 0.8543
L15.6535 0.9147
" />
<path d="M15.6535 0.9147
L15.5930 0.9752
" />
<path d="M15.5930 0.9752
L15.4721 1.1567
" />
<path d="M15.4721 1.1567
L15.4116 1.3986
" />
<path d="M15.4116 1.3986
L15.4116 1.8824
" />
<path d="M15.4116 1.8824
L15.4721 2.0033
" />
<path d="M15.4721 2.0033
L15.5326 2.0638
" />
<path d="M15.5326 2.0638
L15.6535 2.1243
" />
<path d="M15.6535 2.1243
L15.8954 2.1243
" />
<path d="M15.8954 2.1243
L16.0164 2.0638
" />
<path d="M16.0164 2.0638
L16.0768 2.0033
" />
<path d="M16.0768 2.0033
L16.1373 1.8824
" />
<path d="M16.1373 1.8824
L16.1373 1.5800
" />
<path d="M16.1373 1.5800
L16.0768 1.4590
" />
<path d="M16.0768 1.4590
L16.0164 1.3986
" />
<path d="M16.0164 1.3986
L15.8954 1.3381
" />
<path d="M15.8954 1.3381
L15.6535 1.3381
" />
<path d="M15.6535 1.3381
L15.5326 1.3986
" />
<path d="M15.5326 1.3986
L15.4721 1.4590
" />
<path d="M15.4721 1.4590
L15.4116 1.5800
" />
<path d="M16.6211 0.9752
L16.6816 0.9147
" />
<path d="M16.6816 0.9147
L16.8026 0.8543
" />
<path d="M16.8026 0.8543
L17.1049 0.8543
" />
<path d="M17.1049 0.8543
L17.2259 0.9147
" />
<path d="M17.2259 0.9147
L17.2864 0.9752
" />
<path d="M17.2864 0.9752
L17.3468 1.0962
" />
<path d="M17.3468 1.0962
L17.3468 1.2171
" />
<path d="M17.3468 1.2171
L17.2864 1.3986
" />
<path d="M17.2864 1.3986
L16.5607 2.1243
" />
<path d="M16.5607 2.1243
L17.3468 2.1243
" />
<path d="M17.8911 2.1243
L17.8911 1.2776
" />
<path d="M17.8911 1.3986
L17.9516 1.3381
" />
<path d="M17.9516 1.3381
L18.0726 1.2776
" />
<path d="M18.0726 1.2776
L18.2540 1.2776
" />
<path d="M18.2540 1.2776
L18.3749 1.3381
" />
<path d="M18.3749 1.3381
L18.4354 1.4590
" />
<path d="M18.4354 1.4590
L18.4354 2.1243
" />
<path d="M18.4354 1.4590
L18.4959 1.3381
" />
<path d="M18.4959 1.3381
L18.6168 1.2776
" />
<path d="M18.6168 1.2776
L18.7983 1.2776
" />
<path d="M18.7983 1.2776
L18.9192 1.3381
" />
<path d="M18.9192 1.3381
L18.9797 1.4590
" />
<path d="M18.9797 1.4590
L18.9797 2.1243
" />
<path d="M19.5845 2.1243
L19.5845 1.2776
" />
<path d="M19.5845 1.3986
L19.6449 1.3381
" />
<path d="M19.6449 1.3381
L19.7659 1.2776
" />
<path d="M19.7659 1.2776
L19.9473 1.2776
" />
<path d="M19.9473 1.2776
L20.0683 1.3381
" />
<path d="M20.0683 1.3381
L20.1287 1.4590
" />
<path d="M20.1287 1.4590
L20.1287 2.1243
" />
<path d="M20.1287 1.4590
L20.1892 1.3381
" />
<path d="M20.1892 1.3381
L20.3102 1.2776
" />
<path d="M20.3102 1.2776
L20.4916 1.2776
" />
<path d="M20.4916 1.2776
L20.6126 1.3381
" />
<path d="M20.6126 1.3381
L20.6730 1.4590
" />
<path d="M20.6730 1.4590
L20.6730 2.1243
" />
<path d="M20.9754 2.2452
L21.9430 2.2452
" />
<path d="M22.1849 2.0638
L22.3664 2.1243
" />
<path d="M22.3664 2.1243
L22.6687 2.1243
" />
<path d="M22.6687 2.1243
L22.7897 2.0638
" />
<path d="M22.7897 2.0638
L22.8502 2.0033
" />
<path d="M22.8502 2.0033
L22.9107 1.8824
" />
<path d="M22.9107 1.8824
L22.9107 1.7614
" />
<path d="M22.9107 1.7614
L22.8502 1.6405
" />
<path d="M22.8502 1.6405
L22.7897 1.5800
" />
<path d="M22.7897 1.5800
L22.6687 1.5195
" />
<path d="M22.6687 1.5195
L22.4268 1.4590
" />
<path d="M22.4268 1.4590
L22.3059 1.3986
" />
<path d="M22.3059 1.3986
L22.2454 1.3381
" />
<path d="M22.2454 1.3381
L22.1849 1.2171
" />
<path d="M22.1849 1.2171
L22.1849 1.0962
" />
<path d="M22.1849 1.0962
L22.2454 0.9752
" />
<path d="M22.2454 0.9752
L22.3059 0.9147
" />
<path d="M22.3059 0.9147
L22.4268 0.8543
" />
<path d="M22.4268 0.8543
L22.7292 0.8543
" />
<path d="M22.7292 0.8543
L22.9107 0.9147
" />
<path d="M23.4549 2.1243
L23.4549 1.2776
" />
<path d="M23.4549 0.8543
L23.3945 0.9147
" />
<path d="M23.3945 0.9147
L23.4549 0.9752
" />
<path d="M23.4549 0.9752
L23.5154 0.9147
" />
<path d="M23.5154 0.9147
L23.4549 0.8543
" />
<path d="M23.4549 0.8543
L23.4549 0.9752
" />
<path d="M24.6040 2.1243
L24.6040 0.8543
" />
<path d="M24.6040 2.0638
L24.4830 2.1243
" />
<path d="M24.4830 2.1243
L24.2411 2.1243
" />
<path d="M24.2411 2.1243
L24.1202 2.0638
" />
<path d="M24.1202 2.0638
L24.0597 2.0033
" />
<path d="M24.0597 2.0033
L23.9992 1.8824
" />
<path d="M23.9992 1.8824
L23.9992 1.5195
" />
<path d="M23.9992 1.5195
L24.0597 1.3986
" />
<path d="M24.0597 1.3986
L24.1202 1.3381
" />
<path d="M24.1202 1.3381
L24.2411 1.2776
" />
<path d="M24.2411 1.2776
L24.4830 1.2776
" />
<path d="M24.4830 1.2776
L24.6040 1.3381
" />
<path d="M25.6926 2.0638
L25.5716 2.1243
" />
<path d="M25.5716 2.1243
L25.3297 2.1243
" />
<path d="M25.3297 2.1243
L25.2087 2.0638
" />
<path d="M25.2087 2.0638
L25.1483 1.9428
" />
<path d="M25.1483 1.9428
L25.1483 1.4590
" />
<path d="M25.1483 1.4590
L25.2087 1.3381
" />
<path d="M25.2087 1.3381
L25.3297 1.2776
" />
<path d="M25.3297 1.2776
L25.5716 1.2776
" />
<path d="M25.5716 1.2776
L25.6926 1.3381
" />
<path d="M25.6926 1.3381
L25.7530 1.4590
" />
<path d="M25.7530 1.4590
L25.7530 1.5800
" />
<path d="M25.7530 1.5800
L25.1483 1.7009
" />
<path d="M26.7206 1.4590
L26.9021 1.5195
" />
<path d="M26.9021 1.5195
L26.9626 1.5800
" />
<path d="M26.9626 1.5800
L27.0230 1.7009
" />
<path d="M27.0230 1.7009
L27.0230 1.8824
" />
<path d="M27.0230 1.8824
L26.9626 2.0033
" />
<path d="M26.9626 2.0033
L26.9021 2.0638
" />
<path d="M26.9021 2.0638
L26.7811 2.1243
" />
<path d="M26.7811 2.1243
L26.2973 2.1243
" />
<path d="M26.2973 2.1243
L26.2973 0.8543
" />
<path d="M26.2973 0.8543
L26.7206 0.8543
" />
<path d="M26.7206 0.8543
L26.8416 0.9147
" />
<path d="M26.8416 0.9147
L26.9021 0.9752
" />
<path d="M26.9021 0.9752
L26.9626 1.0962
" />
<path d="M26.9626 1.0962
L26.9626 1.2171
" />
<path d="M26.9626 1.2171
L26.9021 1.3381
" />
<path d="M26.9021 1.3381
L26.8416 1.3986
" />
<path d="M26.8416 1.3986
L26.7206 1.4590
" />
<path d="M26.7206 1.4590
L26.2973 1.4590
" />
<path d="M27.5673 2.1243
L27.5673 1.2776
" />
<path d="M27.5673 1.5195
L27.6278 1.3986
" />
<path d="M27.6278 1.3986
L27.6883 1.3381
" />
<path d="M27.6883 1.3381
L27.8092 1.2776
" />
<path d="M27.8092 1.2776
L27.9302 1.2776
" />
<path d="M28.8978 2.1243
L28.8978 1.4590
" />
<path d="M28.8978 1.4590
L28.8373 1.3381
" />
<path d="M28.8373 1.3381
L28.7164 1.2776
" />
<path d="M28.7164 1.2776
L28.4745 1.2776
" />
<path d="M28.4745 1.2776
L28.3535 1.3381
" />
<path d="M28.8978 2.0638
L28.7768 2.1243
" />
<path d="M28.7768 2.1243
L28.4745 2.1243
" />
<path d="M28.4745 2.1243
L28.3535 2.0638
" />
<path d="M28.3535 2.0638
L28.2930 1.9428
" />
<path d="M28.2930 1.9428
L28.2930 1.8219
" />
<path d="M28.2930 1.8219
L28.3535 1.7009
" />
<path d="M28.3535 1.7009
L28.4745 1.6405
" />
<path d="M28.4745 1.6405
L28.7768 1.6405
" />
<path d="M28.7768 1.6405
L28.8978 1.5800
" />
<path d="M29.3816 1.2776
L30.0468 1.2776
" />
<path d="M30.0468 1.2776
L29.3816 2.1243
" />
<path d="M29.3816 2.1243
L30.0468 2.1243
" />
<path d="M31.0145 2.0638
L30.8935 2.1243
" />
<path d="M30.8935 2.1243
L30.6516 2.1243
" />
<path d="M30.6516 2.1243
L30.5306 2.0638
" />
<path d="M30.5306 2.0638
L30.4702 1.9428
" />
<path d="M30.4702 1.9428
L30.4702 1.4590
" />
<path d="M30.4702 1.4590
L30.5306 1.3381
" />
<path d="M30.5306 1.3381
L30.6516 1.2776
" />
<path d="M30.6516 1.2776
L30.8935 1.2776
" />
<path d="M30.8935 1.2776
L31.0145 1.3381
" />
<path d="M31.0145 1.3381
L31.0749 1.4590
" />
<path d="M31.0749 1.4590
L31.0749 1.5800
" />
<path d="M31.0749 1.5800
L30.4702 1.7009
" />
<path d="M32.1635 2.1243
L32.1635 0.8543
" />
<path d="M32.1635 2.0638
L32.0426 2.1243
" />
<path d="M32.0426 2.1243
L31.8006 2.1243
" />
<path d="M31.8006 2.1243
L31.6797 2.0638
" />
<path d="M31.6797 2.0638
L31.6192 2.0033
" />
<path d="M31.6192 2.0033
L31.5587 1.8824
" />
<path d="M31.5587 1.8824
L31.5587 1.5195
" />
<path d="M31.5587 1.5195
L31.6192 1.3986
" />
<path d="M31.6192 1.3986
L31.6797 1.3381
" />
<path d="M31.6797 1.3381
L31.8006 1.2776
" />
<path d="M31.8006 1.2776
L32.0426 1.2776
" />
<path d="M32.0426 1.2776
L32.1635 1.3381
" />
<path d="M32.4659 2.2452
L33.4335 2.2452
" />
<path d="M34.3406 2.1243
L33.7359 2.1243
" />
<path d="M33.7359 2.1243
L33.7359 0.8543
" />
<path d="M34.9454 2.1243
L34.8245 2.0638
" />
<path d="M34.8245 2.0638
L34.7640 2.0033
" />
<path d="M34.7640 2.0033
L34.7035 1.8824
" />
<path d="M34.7035 1.8824
L34.7035 1.5195
" />
<path d="M34.7035 1.5195
L34.7640 1.3986
" />
<path d="M34.7640 1.3986
L34.8245 1.3381
" />
<path d="M34.8245 1.3381
L34.9454 1.2776
" />
<path d="M34.9454 1.2776
L35.1268 1.2776
" />
<path d="M35.1268 1.2776
L35.2478 1.3381
" />
<path d="M35.2478 1.3381
L35.3083 1.3986
" />
<path d="M35.3083 1.3986
L35.3687 1.5195
" />
<path d="M35.3687 1.5195
L35.3687 1.8824
" />
<path d="M35.3687 1.8824
L35.3083 2.0033
" />
<path d="M35.3083 2.0033
L35.2478 2.0638
" />
<path d="M35.2478 2.0638
L35.1268 2.1243
" />
<path d="M35.1268 2.1243
L34.9454 2.1243
" />
<path d="M35.9130 1.2776
L35.9130 2.1243
" />
<path d="M35.9130 1.3986
L35.9735 1.3381
" />
<path d="M35.9735 1.3381
L36.0945 1.2776
" />
<path d="M36.0945 1.2776
L36.2759 1.2776
" />
<path d="M36.2759 1.2776
L36.3968 1.3381
" />
<path d="M36.3968 1.3381
L36.4573 1.4590
" />
<path d="M36.4573 1.4590
L36.4573 2.1243
" />
<path d="M37.6064 1.2776
L37.6064 2.3057
" />
<path d="M37.6064 2.3057
L37.5459 2.4267
" />
<path d="M37.5459 2.4267
L37.4854 2.4871
" />
<path d="M37.4854 2.4871
L37.3645 2.5476
" />
<path d="M37.3645 2.5476
L37.1830 2.5476
" />
<path d="M37.1830 2.5476
L37.0621 2.4871
" />
<path d="M37.6064 2.0638
L37.4854 2.1243
" />
<path d="M37.4854 2.1243
L37.2435 2.1243
" />
<path d="M37.2435 2.1243
L37.1226 2.0638
" />
<path d="M37.1226 2.0638
L37.0621 2.0033
" />
<path d="M37.0621 2.0033
L37.0016 1.8824
" />
<path d="M37.0016 1.8824
L37.0016 1.5195
" />
<path d="M37.0016 1.5195
L37.0621 1.3986
" />
<path d="M37.0621 1.3986
L37.1226 1.3381
" />
<path d="M37.1226 1.3381
L37.2435 1.2776
" />
<path d="M37.2435 1.2776
L37.4854 1.2776
" />
<path d="M37.4854 1.2776
L37.6064 1.3381
" />
<path d="M38.2111 2.1243
L38.2111 0.8543
" />
<path d="M38.2111 0.8543
L38.6949 0.8543
" />
<path d="M38.6949 0.8543
L38.8159 0.9147
" />
<path d="M38.8159 0.9147
L38.8764 0.9752
" />
<path d="M38.8764 0.9752
L38.9368 1.0962
" />
<path d="M38.9368 1.0962
L38.9368 1.2776
" />
<path d="M38.9368 1.2776
L38.8764 1.3986
" />
<path d="M38.8764 1.3986
L38.8159 1.4590
" />
<path d="M38.8159 1.4590
L38.6949 1.5195
" />
<path d="M38.6949 1.5195
L38.2111 1.5195
" />
<path d="M40.0254 2.1243
L40.0254 1.4590
" />
<path d="M40.0254 1.4590
L39.9649 1.3381
" />
<path d="M39.9649 1.3381
L39.8440 1.2776
" />
<path d="M39.8440 1.2776
L39.6021 1.2776
" />
<path d="M39.6021 1.2776
L39.4811 1.3381
" />
<path d="M40.0254 2.0638
L39.9045 2.1243
" />
<path d="M39.9045 2.1243
L39.6021 2.1243
" />
<path d="M39.6021 2.1243
L39.4811 2.0638
" />
<path d="M39.4811 2.0638
L39.4206 1.9428
" />
<path d="M39.4206 1.9428
L39.4206 1.8219
" />
<path d="M39.4206 1.8219
L39.4811 1.7009
" />
<path d="M39.4811 1.7009
L39.6021 1.6405
" />
<path d="M39.6021 1.6405
L39.9045 1.6405
" />
<path d="M39.9045 1.6405
L40.0254 1.5800
" />
<path d="M41.1745 2.1243
L41.1745 0.8543
" />
<path d="M41.1745 2.0638
L41.0535 2.1243
" />
<path d="M41.0535 2.1243
L40.8116 2.1243
" />
<path d="M40.8116 2.1243
L40.6907 2.0638
" />
<path d="M40.6907 2.0638
L40.6302 2.0033
" />
<path d="M40.6302 2.0033
L40.5697 1.8824
" />
<path d="M40.5697 1.8824
L40.5697 1.5195
" />
<path d="M40.5697 1.5195
L40.6302 1.3986
" />
<path d="M40.6302 1.3986
L40.6907 1.3381
" />
<path d="M40.6907 1.3381
L40.8116 1.2776
" />
<path d="M40.8116 1.2776
L41.0535 1.2776
" />
<path d="M41.0535 1.2776
L41.1745 1.3381
" />
<path d="M41.7187 2.0638
L41.8397 2.1243
" />
<path d="M41.8397 2.1243
L42.0816 2.1243
" />
<path d="M42.0816 2.1243
L42.2026 2.0638
" />
<path d="M42.2026 2.0638
L42.2630 1.9428
" />
<path d="M42.2630 1.9428
L42.2630 1.8824
" />
<path d="M42.2630 1.8824
L42.2026 1.7614
" />
<path d="M42.2026 1.7614
L42.0816 1.7009
" />
<path d="M42.0816 1.7009
L41.9002 1.7009
" />
<path d="M41.9002 1.7009
L41.7792 1.6405
" />
<path d="M41.7792 1.6405
L41.7187 1.5195
" />
<path d="M41.7187 1.5195
L41.7187 1.4590
" />
<path d="M41.7187 1.4590
L41.7792 1.3381
" />
<path d="M41.7792 1.3381
L41.9002 1.2776
" />
<path d="M41.9002 1.2776
L42.0816 1.2776
" />
<path d="M42.0816 1.2776
L42.2026 1.3381
" />
</g></g>
<g style="fill:none; 
stroke:#AFAFAF; stroke-width:0.1500; stroke-opacity:1; 
stroke-linecap:round; stroke-linejoin:round;">
<g transform="rotate(-90.000000 25.1180 18.0550)">
<text x="25.1180" y="18.5550"
textLength="4.5357" font-size="1.3333" lengthAdjust="spacingAndGlyphs"
text-anchor="middle" opacity="0">REF**</text>
</g>
<g class="stroked-text"><desc>REF**</desc>
<path d="M25.5728 19.3883
L25.0967 19.7217
" />
<path d="M25.5728 19.9598
L24.5728 19.9598
" />
<path d="M24.5728 19.9598
L24.5728 19.5788
" />
<path d="M24.5728 19.5788
L24.6205 19.4836
" />
<path d="M24.6205 19.4836
L24.6681 19.4360
" />
<path d="M24.6681 19.4360
L24.7633 19.3883
" />
<path d="M24.7633 19.3883
L24.9062 19.3883
" />
<path d="M24.9062 19.3883
L25.0014 19.4360
" />
<path d="M25.0014 19.4360
L25.0490 19.4836
" />
<path d="M25.0490 19.4836
L25.0967 19.5788
" />
<path d="M25.0967 19.5788
L25.0967 19.9598
" />
<path d="M25.0490 18.9598
L25.0490 18.6264
" />
<path d="M25.5728 18.4836
L25.5728 18.9598
" />
<path d="M25.5728 18.9598
L24.5728 18.9598
" />
<path d="M24.5728 18.9598
L24.5728 18.4836
" />
<path d="M25.0490 17.7217
L25.0490 18.0550
" />
<path d="M25.5728 18.0550
L24.5728 18.0550
" />
<path d="M24.5728 18.0550
L24.5728 17.5788
" />
<path d="M24.5728 17.0550
L24.8109 17.0550
" />
<path d="M24.7157 17.2931
L24.8109 17.0550
" />
<path d="M24.8109 17.0550
L24.7157 16.8169
" />
<path d="M25.0014 17.1979
L24.8109 17.0550
" />
<path d="M24.8109 17.0550
L25.0014 16.9121
" />
<path d="M24.5728 16.2931
L24.8109 16.2931
" />
<path d="M24.7157 16.5312
L24.8109 16.2931
" />
<path d="M24.8109 16.2931
L24.7157 16.0550
" />
<path d="M25.0014 16.4360
L24.8109 16.2931
" />
<path d="M24.8109 16.2931
L25.0014 16.1502
" />
</g></g>
<g style="fill:none; 
stroke:#AFAFAF; stroke-width:0.1000; stroke-opacity:1; 
stroke-linecap:round; stroke-linejoin:round;">
<path d="M21.3730 1.2750
L22.3730 0.2750
" />
<path d="M21.3730 35.8350
L21.3730 1.2750
" />
<path d="M22.3730 0.2750
L28.8630 0.2750
" />
<path d="M28.8630 0.2750
L28.8630 35.8350
" />
<path d="M28.8630 35.8350
L21.3730 35.8350
" />
</g> 
</svg>
