<?xml version="1.0" standalone="no"?>
 <!DOCTYPE svg PUBLIC "-//W3C//DTD SVG 1.1//EN" 
 "http://www.w3.org/Graphics/SVG/1.1/DTD/svg11.dtd"> 
<svg
  xmlns:svg="http://www.w3.org/2000/svg"
  xmlns="http://www.w3.org/2000/svg"
  xmlns:xlink="http://www.w3.org/1999/xlink"
  version="1.1"
  width="24.7142mm" height="5.6134mm" viewBox="0.0000 0.0000 24.7142 5.6134">
<title>SVG Image created as working-brd.svg date 2024/04/22 00:19:57 </title>
  <desc>Image generated by PCBNEW </desc>
<g style="fill:#000000; fill-opacity:1.0000;stroke:#000000; stroke-opacity:1.0000;
stroke-linecap:round; stroke-linejoin:round;"
 transform="translate(0 0) scale(1 1)">
<path style="fill:#C83434; fill-opacity:1.0000; stroke:none;fill-rule:evenodd;"
d="M 8.9076,1.2850
8.9076,0.6850
10.9076,0.6850
10.9076,1.2850
Z" /> 
<path style="fill:#C83434; fill-opacity:1.0000; stroke:none;fill-rule:evenodd;"
d="M 8.9076,2.5550
8.9076,1.9550
10.9076,1.9550
10.9076,2.5550
Z" /> 
<path style="fill:#C83434; fill-opacity:1.0000; stroke:none;fill-rule:evenodd;"
d="M 8.9076,5.0950
8.9076,4.4950
10.9076,4.4950
10.9076,5.0950
Z" /> 
<path style="fill:#C83434; fill-opacity:1.0000; stroke:none;fill-rule:evenodd;"
d="M 13.8076,5.0950
13.8076,4.4950
15.8076,4.4950
15.8076,5.0950
Z" /> 
<path style="fill:#C83434; fill-opacity:1.0000; stroke:none;fill-rule:evenodd;"
d="M 13.8076,3.8250
13.8076,3.2250
15.8076,3.2250
15.8076,3.8250
Z" /> 
<path style="fill:#C83434; fill-opacity:1.0000; stroke:none;fill-rule:evenodd;"
d="M 13.8076,2.5550
13.8076,1.9550
15.8076,1.9550
15.8076,2.5550
Z" /> 
<path style="fill:#C83434; fill-opacity:1.0000; stroke:none;fill-rule:evenodd;"
d="M 13.8076,1.2850
13.8076,0.6850
15.8076,0.6850
15.8076,1.2850
Z" /> 
<path style="fill:#D864FF; fill-opacity:0.4000; stroke:none;fill-rule:evenodd;"
d="M 8.9076,1.2850
8.9076,0.6850
10.9076,0.6850
10.9076,1.2850
Z" /> 
<path style="fill:#D864FF; fill-opacity:0.4000; stroke:none;fill-rule:evenodd;"
d="M 8.9076,2.5550
8.9076,1.9550
10.9076,1.9550
10.9076,2.5550
Z" /> 
<path style="fill:#D864FF; fill-opacity:0.4000; stroke:none;fill-rule:evenodd;"
d="M 8.9076,5.0950
8.9076,4.4950
10.9076,4.4950
10.9076,5.0950
Z" /> 
<path style="fill:#D864FF; fill-opacity:0.4000; stroke:none;fill-rule:evenodd;"
d="M 13.8076,5.0950
13.8076,4.4950
15.8076,4.4950
15.8076,5.0950
Z" /> 
<path style="fill:#D864FF; fill-opacity:0.4000; stroke:none;fill-rule:evenodd;"
d="M 13.8076,3.8250
13.8076,3.2250
15.8076,3.2250
15.8076,3.8250
Z" /> 
<path style="fill:#D864FF; fill-opacity:0.4000; stroke:none;fill-rule:evenodd;"
d="M 13.8076,2.5550
13.8076,1.9550
15.8076,1.9550
15.8076,2.5550
Z" /> 
<path style="fill:#D864FF; fill-opacity:0.4000; stroke:none;fill-rule:evenodd;"
d="M 13.8076,1.2850
13.8076,0.6850
15.8076,0.6850
15.8076,1.2850
Z" /> 
<path style="fill:#B4A09A; fill-opacity:0.9000; stroke:none;fill-rule:evenodd;"
d="M 8.9076,1.2850
8.9076,0.6850
10.9076,0.6850
10.9076,1.2850
Z" /> 
<path style="fill:#B4A09A; fill-opacity:0.9000; stroke:none;fill-rule:evenodd;"
d="M 8.9076,2.5550
8.9076,1.9550
10.9076,1.9550
10.9076,2.5550
Z" /> 
<path style="fill:#B4A09A; fill-opacity:0.9000; stroke:none;fill-rule:evenodd;"
d="M 8.9076,5.0950
8.9076,4.4950
10.9076,4.4950
10.9076,5.0950
Z" /> 
<path style="fill:#B4A09A; fill-opacity:0.9000; stroke:none;fill-rule:evenodd;"
d="M 13.8076,5.0950
13.8076,4.4950
15.8076,4.4950
15.8076,5.0950
Z" /> 
<path style="fill:#B4A09A; fill-opacity:0.9000; stroke:none;fill-rule:evenodd;"
d="M 13.8076,3.8250
13.8076,3.2250
15.8076,3.2250
15.8076,3.8250
Z" /> 
<path style="fill:#B4A09A; fill-opacity:0.9000; stroke:none;fill-rule:evenodd;"
d="M 13.8076,2.5550
13.8076,1.9550
15.8076,1.9550
15.8076,2.5550
Z" /> 
<path style="fill:#B4A09A; fill-opacity:0.9000; stroke:none;fill-rule:evenodd;"
d="M 13.8076,1.2850
13.8076,0.6850
15.8076,0.6850
15.8076,1.2850
Z" /> 
</g>
<g style="fill:none; 
stroke:#F2EDA1; stroke-width:0.1588; stroke-opacity:1; 
stroke-linecap:round; stroke-linejoin:round;">
<text x="12.3576" y="3.5250"
textLength="5.6651" font-size="1.6933" lengthAdjust="spacingAndGlyphs"
text-anchor="middle" opacity="0">REF**</text>
<g class="stroked-text"><desc>REF**</desc>
<path d="M10.6642 3.4693
L10.2409 2.8645
" />
<path d="M9.9385 3.4693
L9.9385 2.1993
" />
<path d="M9.9385 2.1993
L10.4223 2.1993
" />
<path d="M10.4223 2.1993
L10.5433 2.2597
" />
<path d="M10.5433 2.2597
L10.6037 2.3202
" />
<path d="M10.6037 2.3202
L10.6642 2.4412
" />
<path d="M10.6642 2.4412
L10.6642 2.6226
" />
<path d="M10.6642 2.6226
L10.6037 2.7436
" />
<path d="M10.6037 2.7436
L10.5433 2.8040
" />
<path d="M10.5433 2.8040
L10.4223 2.8645
" />
<path d="M10.4223 2.8645
L9.9385 2.8645
" />
<path d="M11.2085 2.8040
L11.6318 2.8040
" />
<path d="M11.8133 3.4693
L11.2085 3.4693
" />
<path d="M11.2085 3.4693
L11.2085 2.1993
" />
<path d="M11.2085 2.1993
L11.8133 2.1993
" />
<path d="M12.7809 2.8040
L12.3576 2.8040
" />
<path d="M12.3576 3.4693
L12.3576 2.1993
" />
<path d="M12.3576 2.1993
L12.9623 2.1993
" />
<path d="M13.6276 2.1993
L13.6276 2.5017
" />
<path d="M13.3252 2.3807
L13.6276 2.5017
" />
<path d="M13.6276 2.5017
L13.9299 2.3807
" />
<path d="M13.4461 2.7436
L13.6276 2.5017
" />
<path d="M13.6276 2.5017
L13.8090 2.7436
" />
<path d="M14.5952 2.1993
L14.5952 2.5017
" />
<path d="M14.2928 2.3807
L14.5952 2.5017
" />
<path d="M14.5952 2.5017
L14.8976 2.3807
" />
<path d="M14.4137 2.7436
L14.5952 2.5017
" />
<path d="M14.5952 2.5017
L14.7766 2.7436
" />
</g></g>
<g style="fill:none; 
stroke:#F2EDA1; stroke-width:0.1500; stroke-opacity:1; 
stroke-linecap:round; stroke-linejoin:round;">
<path d="M10.2826 0.3150
L14.4326 0.3150
" />
<path d="M10.2826 5.4650
L14.4326 5.4650
" />
<path style="fill:#F2EDA1; fill-opacity:1.0000; 
stroke:#F2EDA1; stroke-width:0.1200; stroke-opacity:1; 
stroke-linecap:round; stroke-linejoin:round;fill-rule:evenodd;"
d="M 9.6076,0.3900
9.3676,0.0600
9.8476,0.0600
Z" /> 
</g>
<g style="fill:none; 
stroke:#FF26E2; stroke-width:0.0500; stroke-opacity:1; 
stroke-linecap:round; stroke-linejoin:round;">
<path d="M8.6576 0.1900
L8.6576 5.5900
" />
<path d="M8.6576 0.1900
L16.0576 0.1900
" />
<path d="M16.0576 5.5900
L8.6576 5.5900
" />
<path d="M16.0576 5.5900
L16.0576 0.1900
" />
</g>
<g style="fill:none; 
stroke:#AFAFAF; stroke-width:0.1588; stroke-opacity:1; 
stroke-linecap:round; stroke-linejoin:round;">
<text x="12.3576" y="3.5250"
textLength="24.7151" font-size="1.6933" lengthAdjust="spacingAndGlyphs"
text-anchor="middle" opacity="0">PowerIntegrations_SO-8C</text>
<g class="stroked-text"><desc>PowerIntegrations_SO-8C</desc>
<path d="M0.4135 3.4693
L0.4135 2.1993
" />
<path d="M0.4135 2.1993
L0.8973 2.1993
" />
<path d="M0.8973 2.1993
L1.0183 2.2597
" />
<path d="M1.0183 2.2597
L1.0787 2.3202
" />
<path d="M1.0787 2.3202
L1.1392 2.4412
" />
<path d="M1.1392 2.4412
L1.1392 2.6226
" />
<path d="M1.1392 2.6226
L1.0787 2.7436
" />
<path d="M1.0787 2.7436
L1.0183 2.8040
" />
<path d="M1.0183 2.8040
L0.8973 2.8645
" />
<path d="M0.8973 2.8645
L0.4135 2.8645
" />
<path d="M1.8649 3.4693
L1.7440 3.4088
" />
<path d="M1.7440 3.4088
L1.6835 3.3483
" />
<path d="M1.6835 3.3483
L1.6230 3.2274
" />
<path d="M1.6230 3.2274
L1.6230 2.8645
" />
<path d="M1.6230 2.8645
L1.6835 2.7436
" />
<path d="M1.6835 2.7436
L1.7440 2.6831
" />
<path d="M1.7440 2.6831
L1.8649 2.6226
" />
<path d="M1.8649 2.6226
L2.0464 2.6226
" />
<path d="M2.0464 2.6226
L2.1673 2.6831
" />
<path d="M2.1673 2.6831
L2.2278 2.7436
" />
<path d="M2.2278 2.7436
L2.2883 2.8645
" />
<path d="M2.2883 2.8645
L2.2883 3.2274
" />
<path d="M2.2883 3.2274
L2.2278 3.3483
" />
<path d="M2.2278 3.3483
L2.1673 3.4088
" />
<path d="M2.1673 3.4088
L2.0464 3.4693
" />
<path d="M2.0464 3.4693
L1.8649 3.4693
" />
<path d="M2.7116 2.6226
L2.9535 3.4693
" />
<path d="M2.9535 3.4693
L3.1954 2.8645
" />
<path d="M3.1954 2.8645
L3.4373 3.4693
" />
<path d="M3.4373 3.4693
L3.6792 2.6226
" />
<path d="M4.6468 3.4088
L4.5259 3.4693
" />
<path d="M4.5259 3.4693
L4.2840 3.4693
" />
<path d="M4.2840 3.4693
L4.1630 3.4088
" />
<path d="M4.1630 3.4088
L4.1026 3.2878
" />
<path d="M4.1026 3.2878
L4.1026 2.8040
" />
<path d="M4.1026 2.8040
L4.1630 2.6831
" />
<path d="M4.1630 2.6831
L4.2840 2.6226
" />
<path d="M4.2840 2.6226
L4.5259 2.6226
" />
<path d="M4.5259 2.6226
L4.6468 2.6831
" />
<path d="M4.6468 2.6831
L4.7073 2.8040
" />
<path d="M4.7073 2.8040
L4.7073 2.9250
" />
<path d="M4.7073 2.9250
L4.1026 3.0459
" />
<path d="M5.2516 3.4693
L5.2516 2.6226
" />
<path d="M5.2516 2.8645
L5.3121 2.7436
" />
<path d="M5.3121 2.7436
L5.3726 2.6831
" />
<path d="M5.3726 2.6831
L5.4935 2.6226
" />
<path d="M5.4935 2.6226
L5.6145 2.6226
" />
<path d="M6.0378 3.4693
L6.0378 2.1993
" />
<path d="M6.6426 2.6226
L6.6426 3.4693
" />
<path d="M6.6426 2.7436
L6.7030 2.6831
" />
<path d="M6.7030 2.6831
L6.8240 2.6226
" />
<path d="M6.8240 2.6226
L7.0054 2.6226
" />
<path d="M7.0054 2.6226
L7.1264 2.6831
" />
<path d="M7.1264 2.6831
L7.1868 2.8040
" />
<path d="M7.1868 2.8040
L7.1868 3.4693
" />
<path d="M7.6102 2.6226
L8.0940 2.6226
" />
<path d="M7.7916 2.1993
L7.7916 3.2878
" />
<path d="M7.7916 3.2878
L7.8521 3.4088
" />
<path d="M7.8521 3.4088
L7.9730 3.4693
" />
<path d="M7.9730 3.4693
L8.0940 3.4693
" />
<path d="M9.0011 3.4088
L8.8802 3.4693
" />
<path d="M8.8802 3.4693
L8.6383 3.4693
" />
<path d="M8.6383 3.4693
L8.5173 3.4088
" />
<path d="M8.5173 3.4088
L8.4568 3.2878
" />
<path d="M8.4568 3.2878
L8.4568 2.8040
" />
<path d="M8.4568 2.8040
L8.5173 2.6831
" />
<path d="M8.5173 2.6831
L8.6383 2.6226
" />
<path d="M8.6383 2.6226
L8.8802 2.6226
" />
<path d="M8.8802 2.6226
L9.0011 2.6831
" />
<path d="M9.0011 2.6831
L9.0616 2.8040
" />
<path d="M9.0616 2.8040
L9.0616 2.9250
" />
<path d="M9.0616 2.9250
L8.4568 3.0459
" />
<path d="M10.1502 2.6226
L10.1502 3.6507
" />
<path d="M10.1502 3.6507
L10.0897 3.7717
" />
<path d="M10.0897 3.7717
L10.0292 3.8321
" />
<path d="M10.0292 3.8321
L9.9083 3.8926
" />
<path d="M9.9083 3.8926
L9.7268 3.8926
" />
<path d="M9.7268 3.8926
L9.6059 3.8321
" />
<path d="M10.1502 3.4088
L10.0292 3.4693
" />
<path d="M10.0292 3.4693
L9.7873 3.4693
" />
<path d="M9.7873 3.4693
L9.6664 3.4088
" />
<path d="M9.6664 3.4088
L9.6059 3.3483
" />
<path d="M9.6059 3.3483
L9.5454 3.2274
" />
<path d="M9.5454 3.2274
L9.5454 2.8645
" />
<path d="M9.5454 2.8645
L9.6059 2.7436
" />
<path d="M9.6059 2.7436
L9.6664 2.6831
" />
<path d="M9.6664 2.6831
L9.7873 2.6226
" />
<path d="M9.7873 2.6226
L10.0292 2.6226
" />
<path d="M10.0292 2.6226
L10.1502 2.6831
" />
<path d="M10.7549 3.4693
L10.7549 2.6226
" />
<path d="M10.7549 2.8645
L10.8154 2.7436
" />
<path d="M10.8154 2.7436
L10.8759 2.6831
" />
<path d="M10.8759 2.6831
L10.9968 2.6226
" />
<path d="M10.9968 2.6226
L11.1178 2.6226
" />
<path d="M12.0854 3.4693
L12.0854 2.8040
" />
<path d="M12.0854 2.8040
L12.0249 2.6831
" />
<path d="M12.0249 2.6831
L11.9040 2.6226
" />
<path d="M11.9040 2.6226
L11.6621 2.6226
" />
<path d="M11.6621 2.6226
L11.5411 2.6831
" />
<path d="M12.0854 3.4088
L11.9645 3.4693
" />
<path d="M11.9645 3.4693
L11.6621 3.4693
" />
<path d="M11.6621 3.4693
L11.5411 3.4088
" />
<path d="M11.5411 3.4088
L11.4806 3.2878
" />
<path d="M11.4806 3.2878
L11.4806 3.1669
" />
<path d="M11.4806 3.1669
L11.5411 3.0459
" />
<path d="M11.5411 3.0459
L11.6621 2.9855
" />
<path d="M11.6621 2.9855
L11.9645 2.9855
" />
<path d="M11.9645 2.9855
L12.0854 2.9250
" />
<path d="M12.5087 2.6226
L12.9926 2.6226
" />
<path d="M12.6902 2.1993
L12.6902 3.2878
" />
<path d="M12.6902 3.2878
L12.7506 3.4088
" />
<path d="M12.7506 3.4088
L12.8716 3.4693
" />
<path d="M12.8716 3.4693
L12.9926 3.4693
" />
<path d="M13.4159 3.4693
L13.4159 2.6226
" />
<path d="M13.4159 2.1993
L13.3554 2.2597
" />
<path d="M13.3554 2.2597
L13.4159 2.3202
" />
<path d="M13.4159 2.3202
L13.4764 2.2597
" />
<path d="M13.4764 2.2597
L13.4159 2.1993
" />
<path d="M13.4159 2.1993
L13.4159 2.3202
" />
<path d="M14.2021 3.4693
L14.0811 3.4088
" />
<path d="M14.0811 3.4088
L14.0206 3.3483
" />
<path d="M14.0206 3.3483
L13.9602 3.2274
" />
<path d="M13.9602 3.2274
L13.9602 2.8645
" />
<path d="M13.9602 2.8645
L14.0206 2.7436
" />
<path d="M14.0206 2.7436
L14.0811 2.6831
" />
<path d="M14.0811 2.6831
L14.2021 2.6226
" />
<path d="M14.2021 2.6226
L14.3835 2.6226
" />
<path d="M14.3835 2.6226
L14.5045 2.6831
" />
<path d="M14.5045 2.6831
L14.5649 2.7436
" />
<path d="M14.5649 2.7436
L14.6254 2.8645
" />
<path d="M14.6254 2.8645
L14.6254 3.2274
" />
<path d="M14.6254 3.2274
L14.5649 3.3483
" />
<path d="M14.5649 3.3483
L14.5045 3.4088
" />
<path d="M14.5045 3.4088
L14.3835 3.4693
" />
<path d="M14.3835 3.4693
L14.2021 3.4693
" />
<path d="M15.1697 2.6226
L15.1697 3.4693
" />
<path d="M15.1697 2.7436
L15.2302 2.6831
" />
<path d="M15.2302 2.6831
L15.3511 2.6226
" />
<path d="M15.3511 2.6226
L15.5326 2.6226
" />
<path d="M15.5326 2.6226
L15.6535 2.6831
" />
<path d="M15.6535 2.6831
L15.7140 2.8040
" />
<path d="M15.7140 2.8040
L15.7140 3.4693
" />
<path d="M16.2583 3.4088
L16.3792 3.4693
" />
<path d="M16.3792 3.4693
L16.6211 3.4693
" />
<path d="M16.6211 3.4693
L16.7421 3.4088
" />
<path d="M16.7421 3.4088
L16.8026 3.2878
" />
<path d="M16.8026 3.2878
L16.8026 3.2274
" />
<path d="M16.8026 3.2274
L16.7421 3.1064
" />
<path d="M16.7421 3.1064
L16.6211 3.0459
" />
<path d="M16.6211 3.0459
L16.4397 3.0459
" />
<path d="M16.4397 3.0459
L16.3187 2.9855
" />
<path d="M16.3187 2.9855
L16.2583 2.8645
" />
<path d="M16.2583 2.8645
L16.2583 2.8040
" />
<path d="M16.2583 2.8040
L16.3187 2.6831
" />
<path d="M16.3187 2.6831
L16.4397 2.6226
" />
<path d="M16.4397 2.6226
L16.6211 2.6226
" />
<path d="M16.6211 2.6226
L16.7421 2.6831
" />
<path d="M17.0445 3.5902
L18.0121 3.5902
" />
<path d="M18.2540 3.4088
L18.4354 3.4693
" />
<path d="M18.4354 3.4693
L18.7378 3.4693
" />
<path d="M18.7378 3.4693
L18.8587 3.4088
" />
<path d="M18.8587 3.4088
L18.9192 3.3483
" />
<path d="M18.9192 3.3483
L18.9797 3.2274
" />
<path d="M18.9797 3.2274
L18.9797 3.1064
" />
<path d="M18.9797 3.1064
L18.9192 2.9855
" />
<path d="M18.9192 2.9855
L18.8587 2.9250
" />
<path d="M18.8587 2.9250
L18.7378 2.8645
" />
<path d="M18.7378 2.8645
L18.4959 2.8040
" />
<path d="M18.4959 2.8040
L18.3749 2.7436
" />
<path d="M18.3749 2.7436
L18.3145 2.6831
" />
<path d="M18.3145 2.6831
L18.2540 2.5621
" />
<path d="M18.2540 2.5621
L18.2540 2.4412
" />
<path d="M18.2540 2.4412
L18.3145 2.3202
" />
<path d="M18.3145 2.3202
L18.3749 2.2597
" />
<path d="M18.3749 2.2597
L18.4959 2.1993
" />
<path d="M18.4959 2.1993
L18.7983 2.1993
" />
<path d="M18.7983 2.1993
L18.9797 2.2597
" />
<path d="M19.7659 2.1993
L20.0078 2.1993
" />
<path d="M20.0078 2.1993
L20.1287 2.2597
" />
<path d="M20.1287 2.2597
L20.2497 2.3807
" />
<path d="M20.2497 2.3807
L20.3102 2.6226
" />
<path d="M20.3102 2.6226
L20.3102 3.0459
" />
<path d="M20.3102 3.0459
L20.2497 3.2878
" />
<path d="M20.2497 3.2878
L20.1287 3.4088
" />
<path d="M20.1287 3.4088
L20.0078 3.4693
" />
<path d="M20.0078 3.4693
L19.7659 3.4693
" />
<path d="M19.7659 3.4693
L19.6449 3.4088
" />
<path d="M19.6449 3.4088
L19.5240 3.2878
" />
<path d="M19.5240 3.2878
L19.4635 3.0459
" />
<path d="M19.4635 3.0459
L19.4635 2.6226
" />
<path d="M19.4635 2.6226
L19.5240 2.3807
" />
<path d="M19.5240 2.3807
L19.6449 2.2597
" />
<path d="M19.6449 2.2597
L19.7659 2.1993
" />
<path d="M20.8545 2.9855
L21.8221 2.9855
" />
<path d="M22.6083 2.7436
L22.4873 2.6831
" />
<path d="M22.4873 2.6831
L22.4268 2.6226
" />
<path d="M22.4268 2.6226
L22.3664 2.5017
" />
<path d="M22.3664 2.5017
L22.3664 2.4412
" />
<path d="M22.3664 2.4412
L22.4268 2.3202
" />
<path d="M22.4268 2.3202
L22.4873 2.2597
" />
<path d="M22.4873 2.2597
L22.6083 2.1993
" />
<path d="M22.6083 2.1993
L22.8502 2.1993
" />
<path d="M22.8502 2.1993
L22.9711 2.2597
" />
<path d="M22.9711 2.2597
L23.0316 2.3202
" />
<path d="M23.0316 2.3202
L23.0921 2.4412
" />
<path d="M23.0921 2.4412
L23.0921 2.5017
" />
<path d="M23.0921 2.5017
L23.0316 2.6226
" />
<path d="M23.0316 2.6226
L22.9711 2.6831
" />
<path d="M22.9711 2.6831
L22.8502 2.7436
" />
<path d="M22.8502 2.7436
L22.6083 2.7436
" />
<path d="M22.6083 2.7436
L22.4873 2.8040
" />
<path d="M22.4873 2.8040
L22.4268 2.8645
" />
<path d="M22.4268 2.8645
L22.3664 2.9855
" />
<path d="M22.3664 2.9855
L22.3664 3.2274
" />
<path d="M22.3664 3.2274
L22.4268 3.3483
" />
<path d="M22.4268 3.3483
L22.4873 3.4088
" />
<path d="M22.4873 3.4088
L22.6083 3.4693
" />
<path d="M22.6083 3.4693
L22.8502 3.4693
" />
<path d="M22.8502 3.4693
L22.9711 3.4088
" />
<path d="M22.9711 3.4088
L23.0316 3.3483
" />
<path d="M23.0316 3.3483
L23.0921 3.2274
" />
<path d="M23.0921 3.2274
L23.0921 2.9855
" />
<path d="M23.0921 2.9855
L23.0316 2.8645
" />
<path d="M23.0316 2.8645
L22.9711 2.8040
" />
<path d="M22.9711 2.8040
L22.8502 2.7436
" />
<path d="M24.3621 3.3483
L24.3016 3.4088
" />
<path d="M24.3016 3.4088
L24.1202 3.4693
" />
<path d="M24.1202 3.4693
L23.9992 3.4693
" />
<path d="M23.9992 3.4693
L23.8178 3.4088
" />
<path d="M23.8178 3.4088
L23.6968 3.2878
" />
<path d="M23.6968 3.2878
L23.6364 3.1669
" />
<path d="M23.6364 3.1669
L23.5759 2.9250
" />
<path d="M23.5759 2.9250
L23.5759 2.7436
" />
<path d="M23.5759 2.7436
L23.6364 2.5017
" />
<path d="M23.6364 2.5017
L23.6968 2.3807
" />
<path d="M23.6968 2.3807
L23.8178 2.2597
" />
<path d="M23.8178 2.2597
L23.9992 2.1993
" />
<path d="M23.9992 2.1993
L24.1202 2.1993
" />
<path d="M24.1202 2.1993
L24.3016 2.2597
" />
<path d="M24.3016 2.2597
L24.3621 2.3202
" />
</g></g>
<g style="fill:none; 
stroke:#AFAFAF; stroke-width:0.1500; stroke-opacity:1; 
stroke-linecap:round; stroke-linejoin:round;">
<text x="12.3576" y="3.3900"
textLength="4.5357" font-size="1.3333" lengthAdjust="spacingAndGlyphs"
text-anchor="middle" opacity="0">REF**</text>
<g class="stroked-text"><desc>REF**</desc>
<path d="M11.0242 3.3448
L10.6909 2.8686
" />
<path d="M10.4528 3.3448
L10.4528 2.3448
" />
<path d="M10.4528 2.3448
L10.8337 2.3448
" />
<path d="M10.8337 2.3448
L10.9290 2.3924
" />
<path d="M10.9290 2.3924
L10.9766 2.4401
" />
<path d="M10.9766 2.4401
L11.0242 2.5353
" />
<path d="M11.0242 2.5353
L11.0242 2.6782
" />
<path d="M11.0242 2.6782
L10.9766 2.7734
" />
<path d="M10.9766 2.7734
L10.9290 2.8210
" />
<path d="M10.9290 2.8210
L10.8337 2.8686
" />
<path d="M10.8337 2.8686
L10.4528 2.8686
" />
<path d="M11.4528 2.8210
L11.7861 2.8210
" />
<path d="M11.9290 3.3448
L11.4528 3.3448
" />
<path d="M11.4528 3.3448
L11.4528 2.3448
" />
<path d="M11.4528 2.3448
L11.9290 2.3448
" />
<path d="M12.6909 2.8210
L12.3576 2.8210
" />
<path d="M12.3576 3.3448
L12.3576 2.3448
" />
<path d="M12.3576 2.3448
L12.8337 2.3448
" />
<path d="M13.3576 2.3448
L13.3576 2.5829
" />
<path d="M13.1195 2.4877
L13.3576 2.5829
" />
<path d="M13.3576 2.5829
L13.5956 2.4877
" />
<path d="M13.2147 2.7734
L13.3576 2.5829
" />
<path d="M13.3576 2.5829
L13.5004 2.7734
" />
<path d="M14.1195 2.3448
L14.1195 2.5829
" />
<path d="M13.8814 2.4877
L14.1195 2.5829
" />
<path d="M14.1195 2.5829
L14.3576 2.4877
" />
<path d="M13.9766 2.7734
L14.1195 2.5829
" />
<path d="M14.1195 2.5829
L14.2623 2.7734
" />
</g></g>
<g style="fill:none; 
stroke:#AFAFAF; stroke-width:0.1000; stroke-opacity:1; 
stroke-linecap:round; stroke-linejoin:round;">
<path d="M10.4076 1.4400
L11.4076 0.4400
" />
<path d="M10.4076 5.3400
L10.4076 1.4400
" />
<path d="M11.4076 0.4400
L14.3076 0.4400
" />
<path d="M14.3076 0.4400
L14.3076 5.3400
" />
<path d="M14.3076 5.3400
L10.4076 5.3400
" />
</g> 
</svg>
