<?xml version="1.0" standalone="no"?>
 <!DOCTYPE svg PUBLIC "-//W3C//DTD SVG 1.1//EN" 
 "http://www.w3.org/Graphics/SVG/1.1/DTD/svg11.dtd"> 
<svg
  xmlns:svg="http://www.w3.org/2000/svg"
  xmlns="http://www.w3.org/2000/svg"
  xmlns:xlink="http://www.w3.org/1999/xlink"
  version="1.1"
  width="72.3646mm" height="39.1414mm" viewBox="0.0000 0.0000 72.3646 39.1414">
<title>SVG Image created as working-brd.svg date 2024/04/05 17:41:29 </title>
  <desc>Image generated by PCBNEW </desc>
<g style="fill:#000000; fill-opacity:1.0000;stroke:#000000; stroke-opacity:1.0000;
stroke-linecap:round; stroke-linejoin:round;"
 transform="translate(0 0) scale(1 1)">
</g>
<g style="fill:#FFFFFF; fill-opacity:1.0000; stroke:none;">
<circle cx="20.9464" cy="7.2677" r="1.4250" /> 
</g>
<g style="fill:#FFFFFF; fill-opacity:1.0000; stroke:none;">
<circle cx="61.9464" cy="7.2677" r="1.4250" /> 
</g>
<g style="fill:#FFFFFF; fill-opacity:1.0000; stroke:none;">
<circle cx="27.4464" cy="2.7677" r="0.8750" /> 
</g>
<g style="fill:#FFFFFF; fill-opacity:1.0000; stroke:none;">
<circle cx="31.4464" cy="2.7677" r="0.8750" /> 
</g>
<g style="fill:#FFFFFF; fill-opacity:1.0000; stroke:none;">
<circle cx="35.4464" cy="2.7677" r="0.8750" /> 
</g>
<g style="fill:#FFFFFF; fill-opacity:1.0000; stroke:none;">
<circle cx="39.4464" cy="2.7677" r="0.8750" /> 
</g>
<g style="fill:#FFFFFF; fill-opacity:1.0000; stroke:none;">
<circle cx="43.4464" cy="2.7677" r="0.8750" /> 
</g>
<g style="fill:#FFFFFF; fill-opacity:1.0000; stroke:none;">
<circle cx="47.4464" cy="2.7677" r="0.8750" /> 
</g>
<g style="fill:#FFFFFF; fill-opacity:1.0000; stroke:none;">
<circle cx="51.4464" cy="2.7677" r="0.8750" /> 
</g>
<g style="fill:#FFFFFF; fill-opacity:1.0000; stroke:none;">
<circle cx="55.4464" cy="2.7677" r="0.8750" /> 
</g>
<g style="fill:#FFFFFF; fill-opacity:1.0000; stroke:none;">
<circle cx="29.4464" cy="6.7677" r="0.8750" /> 
</g>
<g style="fill:#FFFFFF; fill-opacity:1.0000; stroke:none;">
<circle cx="33.4464" cy="6.7677" r="0.8750" /> 
</g>
<g style="fill:#FFFFFF; fill-opacity:1.0000; stroke:none;">
<circle cx="37.4464" cy="6.7677" r="0.8750" /> 
</g>
<g style="fill:#FFFFFF; fill-opacity:1.0000; stroke:none;">
<circle cx="41.4464" cy="6.7677" r="0.8750" /> 
</g>
<g style="fill:#FFFFFF; fill-opacity:1.0000; stroke:none;">
<circle cx="45.4464" cy="6.7677" r="0.8750" /> 
</g>
<g style="fill:#FFFFFF; fill-opacity:1.0000; stroke:none;">
<circle cx="49.4464" cy="6.7677" r="0.8750" /> 
</g>
<g style="fill:#FFFFFF; fill-opacity:1.0000; stroke:none;">
<circle cx="53.4464" cy="6.7677" r="0.8750" /> 
</g>
<g style="fill:#FFFFFF; fill-opacity:1.0000; stroke:none;">
<circle cx="27.4464" cy="10.7677" r="0.8750" /> 
</g>
<g style="fill:#FFFFFF; fill-opacity:1.0000; stroke:none;">
<circle cx="31.4464" cy="10.7677" r="0.8750" /> 
</g>
<g style="fill:#FFFFFF; fill-opacity:1.0000; stroke:none;">
<circle cx="35.4464" cy="10.7677" r="0.8750" /> 
</g>
<g style="fill:#FFFFFF; fill-opacity:1.0000; stroke:none;">
<circle cx="39.4464" cy="10.7677" r="0.8750" /> 
</g>
<g style="fill:#FFFFFF; fill-opacity:1.0000; stroke:none;">
<circle cx="43.4464" cy="10.7677" r="0.8750" /> 
</g>
<g style="fill:#FFFFFF; fill-opacity:1.0000; stroke:none;">
<circle cx="47.4464" cy="10.7677" r="0.8750" /> 
</g>
<g style="fill:#FFFFFF; fill-opacity:1.0000; stroke:none;">
<circle cx="51.4464" cy="10.7677" r="0.8750" /> 
</g>
<g style="fill:#FFFFFF; fill-opacity:1.0000; stroke:none;">
<circle cx="55.4464" cy="10.7677" r="0.8750" /> 
<path style="fill:#02FFEE; fill-opacity:0.4000; stroke:none;fill-rule:evenodd;"
d="M 25.9464,4.2677
25.9464,1.2677
28.9464,1.2677
28.9464,4.2677
Z" /> 
</g>
<g style="fill:#02FFEE; fill-opacity:0.4000; stroke:none;">
<circle cx="31.4464" cy="2.7677" r="1.5000" /> 
</g>
<g style="fill:#02FFEE; fill-opacity:0.4000; stroke:none;">
<circle cx="35.4464" cy="2.7677" r="1.5000" /> 
</g>
<g style="fill:#02FFEE; fill-opacity:0.4000; stroke:none;">
<circle cx="39.4464" cy="2.7677" r="1.5000" /> 
</g>
<g style="fill:#02FFEE; fill-opacity:0.4000; stroke:none;">
<circle cx="43.4464" cy="2.7677" r="1.5000" /> 
</g>
<g style="fill:#02FFEE; fill-opacity:0.4000; stroke:none;">
<circle cx="47.4464" cy="2.7677" r="1.5000" /> 
</g>
<g style="fill:#02FFEE; fill-opacity:0.4000; stroke:none;">
<circle cx="51.4464" cy="2.7677" r="1.5000" /> 
</g>
<g style="fill:#02FFEE; fill-opacity:0.4000; stroke:none;">
<circle cx="55.4464" cy="2.7677" r="1.5000" /> 
</g>
<g style="fill:#02FFEE; fill-opacity:0.4000; stroke:none;">
<circle cx="29.4464" cy="6.7677" r="1.5000" /> 
</g>
<g style="fill:#02FFEE; fill-opacity:0.4000; stroke:none;">
<circle cx="33.4464" cy="6.7677" r="1.5000" /> 
</g>
<g style="fill:#02FFEE; fill-opacity:0.4000; stroke:none;">
<circle cx="37.4464" cy="6.7677" r="1.5000" /> 
</g>
<g style="fill:#02FFEE; fill-opacity:0.4000; stroke:none;">
<circle cx="41.4464" cy="6.7677" r="1.5000" /> 
</g>
<g style="fill:#02FFEE; fill-opacity:0.4000; stroke:none;">
<circle cx="45.4464" cy="6.7677" r="1.5000" /> 
</g>
<g style="fill:#02FFEE; fill-opacity:0.4000; stroke:none;">
<circle cx="49.4464" cy="6.7677" r="1.5000" /> 
</g>
<g style="fill:#02FFEE; fill-opacity:0.4000; stroke:none;">
<circle cx="53.4464" cy="6.7677" r="1.5000" /> 
</g>
<g style="fill:#02FFEE; fill-opacity:0.4000; stroke:none;">
<circle cx="27.4464" cy="10.7677" r="1.5000" /> 
</g>
<g style="fill:#02FFEE; fill-opacity:0.4000; stroke:none;">
<circle cx="31.4464" cy="10.7677" r="1.5000" /> 
</g>
<g style="fill:#02FFEE; fill-opacity:0.4000; stroke:none;">
<circle cx="35.4464" cy="10.7677" r="1.5000" /> 
</g>
<g style="fill:#02FFEE; fill-opacity:0.4000; stroke:none;">
<circle cx="39.4464" cy="10.7677" r="1.5000" /> 
</g>
<g style="fill:#02FFEE; fill-opacity:0.4000; stroke:none;">
<circle cx="43.4464" cy="10.7677" r="1.5000" /> 
</g>
<g style="fill:#02FFEE; fill-opacity:0.4000; stroke:none;">
<circle cx="47.4464" cy="10.7677" r="1.5000" /> 
</g>
<g style="fill:#02FFEE; fill-opacity:0.4000; stroke:none;">
<circle cx="51.4464" cy="10.7677" r="1.5000" /> 
</g>
<g style="fill:#02FFEE; fill-opacity:0.4000; stroke:none;">
<circle cx="55.4464" cy="10.7677" r="1.5000" /> 
</g>
<g style="fill:#FFFFFF; fill-opacity:1.0000; stroke:none;">
<circle cx="20.9464" cy="7.2677" r="1.4250" /> 
</g>
<g style="fill:#FFFFFF; fill-opacity:1.0000; stroke:none;">
<circle cx="61.9464" cy="7.2677" r="1.4250" /> 
</g>
<g style="fill:#FFFFFF; fill-opacity:1.0000; stroke:none;">
<circle cx="27.4464" cy="2.7677" r="0.8750" /> 
</g>
<g style="fill:#FFFFFF; fill-opacity:1.0000; stroke:none;">
<circle cx="31.4464" cy="2.7677" r="0.8750" /> 
</g>
<g style="fill:#FFFFFF; fill-opacity:1.0000; stroke:none;">
<circle cx="35.4464" cy="2.7677" r="0.8750" /> 
</g>
<g style="fill:#FFFFFF; fill-opacity:1.0000; stroke:none;">
<circle cx="39.4464" cy="2.7677" r="0.8750" /> 
</g>
<g style="fill:#FFFFFF; fill-opacity:1.0000; stroke:none;">
<circle cx="43.4464" cy="2.7677" r="0.8750" /> 
</g>
<g style="fill:#FFFFFF; fill-opacity:1.0000; stroke:none;">
<circle cx="47.4464" cy="2.7677" r="0.8750" /> 
</g>
<g style="fill:#FFFFFF; fill-opacity:1.0000; stroke:none;">
<circle cx="51.4464" cy="2.7677" r="0.8750" /> 
</g>
<g style="fill:#FFFFFF; fill-opacity:1.0000; stroke:none;">
<circle cx="55.4464" cy="2.7677" r="0.8750" /> 
</g>
<g style="fill:#FFFFFF; fill-opacity:1.0000; stroke:none;">
<circle cx="29.4464" cy="6.7677" r="0.8750" /> 
</g>
<g style="fill:#FFFFFF; fill-opacity:1.0000; stroke:none;">
<circle cx="33.4464" cy="6.7677" r="0.8750" /> 
</g>
<g style="fill:#FFFFFF; fill-opacity:1.0000; stroke:none;">
<circle cx="37.4464" cy="6.7677" r="0.8750" /> 
</g>
<g style="fill:#FFFFFF; fill-opacity:1.0000; stroke:none;">
<circle cx="41.4464" cy="6.7677" r="0.8750" /> 
</g>
<g style="fill:#FFFFFF; fill-opacity:1.0000; stroke:none;">
<circle cx="45.4464" cy="6.7677" r="0.8750" /> 
</g>
<g style="fill:#FFFFFF; fill-opacity:1.0000; stroke:none;">
<circle cx="49.4464" cy="6.7677" r="0.8750" /> 
</g>
<g style="fill:#FFFFFF; fill-opacity:1.0000; stroke:none;">
<circle cx="53.4464" cy="6.7677" r="0.8750" /> 
</g>
<g style="fill:#FFFFFF; fill-opacity:1.0000; stroke:none;">
<circle cx="27.4464" cy="10.7677" r="0.8750" /> 
</g>
<g style="fill:#FFFFFF; fill-opacity:1.0000; stroke:none;">
<circle cx="31.4464" cy="10.7677" r="0.8750" /> 
</g>
<g style="fill:#FFFFFF; fill-opacity:1.0000; stroke:none;">
<circle cx="35.4464" cy="10.7677" r="0.8750" /> 
</g>
<g style="fill:#FFFFFF; fill-opacity:1.0000; stroke:none;">
<circle cx="39.4464" cy="10.7677" r="0.8750" /> 
</g>
<g style="fill:#FFFFFF; fill-opacity:1.0000; stroke:none;">
<circle cx="43.4464" cy="10.7677" r="0.8750" /> 
</g>
<g style="fill:#FFFFFF; fill-opacity:1.0000; stroke:none;">
<circle cx="47.4464" cy="10.7677" r="0.8750" /> 
</g>
<g style="fill:#FFFFFF; fill-opacity:1.0000; stroke:none;">
<circle cx="51.4464" cy="10.7677" r="0.8750" /> 
</g>
<g style="fill:#FFFFFF; fill-opacity:1.0000; stroke:none;">
<circle cx="55.4464" cy="10.7677" r="0.8750" /> 
</g>
<g style="fill:#FFFFFF; fill-opacity:1.0000; stroke:none;">
<circle cx="20.9464" cy="7.2677" r="1.4250" /> 
</g>
<g style="fill:#FFFFFF; fill-opacity:1.0000; stroke:none;">
<circle cx="61.9464" cy="7.2677" r="1.4250" /> 
</g>
<g style="fill:#FFFFFF; fill-opacity:1.0000; stroke:none;">
<circle cx="27.4464" cy="2.7677" r="0.8750" /> 
</g>
<g style="fill:#FFFFFF; fill-opacity:1.0000; stroke:none;">
<circle cx="31.4464" cy="2.7677" r="0.8750" /> 
</g>
<g style="fill:#FFFFFF; fill-opacity:1.0000; stroke:none;">
<circle cx="35.4464" cy="2.7677" r="0.8750" /> 
</g>
<g style="fill:#FFFFFF; fill-opacity:1.0000; stroke:none;">
<circle cx="39.4464" cy="2.7677" r="0.8750" /> 
</g>
<g style="fill:#FFFFFF; fill-opacity:1.0000; stroke:none;">
<circle cx="43.4464" cy="2.7677" r="0.8750" /> 
</g>
<g style="fill:#FFFFFF; fill-opacity:1.0000; stroke:none;">
<circle cx="47.4464" cy="2.7677" r="0.8750" /> 
</g>
<g style="fill:#FFFFFF; fill-opacity:1.0000; stroke:none;">
<circle cx="51.4464" cy="2.7677" r="0.8750" /> 
</g>
<g style="fill:#FFFFFF; fill-opacity:1.0000; stroke:none;">
<circle cx="55.4464" cy="2.7677" r="0.8750" /> 
</g>
<g style="fill:#FFFFFF; fill-opacity:1.0000; stroke:none;">
<circle cx="29.4464" cy="6.7677" r="0.8750" /> 
</g>
<g style="fill:#FFFFFF; fill-opacity:1.0000; stroke:none;">
<circle cx="33.4464" cy="6.7677" r="0.8750" /> 
</g>
<g style="fill:#FFFFFF; fill-opacity:1.0000; stroke:none;">
<circle cx="37.4464" cy="6.7677" r="0.8750" /> 
</g>
<g style="fill:#FFFFFF; fill-opacity:1.0000; stroke:none;">
<circle cx="41.4464" cy="6.7677" r="0.8750" /> 
</g>
<g style="fill:#FFFFFF; fill-opacity:1.0000; stroke:none;">
<circle cx="45.4464" cy="6.7677" r="0.8750" /> 
</g>
<g style="fill:#FFFFFF; fill-opacity:1.0000; stroke:none;">
<circle cx="49.4464" cy="6.7677" r="0.8750" /> 
</g>
<g style="fill:#FFFFFF; fill-opacity:1.0000; stroke:none;">
<circle cx="53.4464" cy="6.7677" r="0.8750" /> 
</g>
<g style="fill:#FFFFFF; fill-opacity:1.0000; stroke:none;">
<circle cx="27.4464" cy="10.7677" r="0.8750" /> 
</g>
<g style="fill:#FFFFFF; fill-opacity:1.0000; stroke:none;">
<circle cx="31.4464" cy="10.7677" r="0.8750" /> 
</g>
<g style="fill:#FFFFFF; fill-opacity:1.0000; stroke:none;">
<circle cx="35.4464" cy="10.7677" r="0.8750" /> 
</g>
<g style="fill:#FFFFFF; fill-opacity:1.0000; stroke:none;">
<circle cx="39.4464" cy="10.7677" r="0.8750" /> 
</g>
<g style="fill:#FFFFFF; fill-opacity:1.0000; stroke:none;">
<circle cx="43.4464" cy="10.7677" r="0.8750" /> 
</g>
<g style="fill:#FFFFFF; fill-opacity:1.0000; stroke:none;">
<circle cx="47.4464" cy="10.7677" r="0.8750" /> 
</g>
<g style="fill:#FFFFFF; fill-opacity:1.0000; stroke:none;">
<circle cx="51.4464" cy="10.7677" r="0.8750" /> 
</g>
<g style="fill:#FFFFFF; fill-opacity:1.0000; stroke:none;">
<circle cx="55.4464" cy="10.7677" r="0.8750" /> 
<path style="fill:#D864FF; fill-opacity:0.4000; stroke:none;fill-rule:evenodd;"
d="M 25.9464,4.2677
25.9464,1.2677
28.9464,1.2677
28.9464,4.2677
Z" /> 
</g>
<g style="fill:#D864FF; fill-opacity:0.4000; stroke:none;">
<circle cx="31.4464" cy="2.7677" r="1.5000" /> 
</g>
<g style="fill:#D864FF; fill-opacity:0.4000; stroke:none;">
<circle cx="35.4464" cy="2.7677" r="1.5000" /> 
</g>
<g style="fill:#D864FF; fill-opacity:0.4000; stroke:none;">
<circle cx="39.4464" cy="2.7677" r="1.5000" /> 
</g>
<g style="fill:#D864FF; fill-opacity:0.4000; stroke:none;">
<circle cx="43.4464" cy="2.7677" r="1.5000" /> 
</g>
<g style="fill:#D864FF; fill-opacity:0.4000; stroke:none;">
<circle cx="47.4464" cy="2.7677" r="1.5000" /> 
</g>
<g style="fill:#D864FF; fill-opacity:0.4000; stroke:none;">
<circle cx="51.4464" cy="2.7677" r="1.5000" /> 
</g>
<g style="fill:#D864FF; fill-opacity:0.4000; stroke:none;">
<circle cx="55.4464" cy="2.7677" r="1.5000" /> 
</g>
<g style="fill:#D864FF; fill-opacity:0.4000; stroke:none;">
<circle cx="29.4464" cy="6.7677" r="1.5000" /> 
</g>
<g style="fill:#D864FF; fill-opacity:0.4000; stroke:none;">
<circle cx="33.4464" cy="6.7677" r="1.5000" /> 
</g>
<g style="fill:#D864FF; fill-opacity:0.4000; stroke:none;">
<circle cx="37.4464" cy="6.7677" r="1.5000" /> 
</g>
<g style="fill:#D864FF; fill-opacity:0.4000; stroke:none;">
<circle cx="41.4464" cy="6.7677" r="1.5000" /> 
</g>
<g style="fill:#D864FF; fill-opacity:0.4000; stroke:none;">
<circle cx="45.4464" cy="6.7677" r="1.5000" /> 
</g>
<g style="fill:#D864FF; fill-opacity:0.4000; stroke:none;">
<circle cx="49.4464" cy="6.7677" r="1.5000" /> 
</g>
<g style="fill:#D864FF; fill-opacity:0.4000; stroke:none;">
<circle cx="53.4464" cy="6.7677" r="1.5000" /> 
</g>
<g style="fill:#D864FF; fill-opacity:0.4000; stroke:none;">
<circle cx="27.4464" cy="10.7677" r="1.5000" /> 
</g>
<g style="fill:#D864FF; fill-opacity:0.4000; stroke:none;">
<circle cx="31.4464" cy="10.7677" r="1.5000" /> 
</g>
<g style="fill:#D864FF; fill-opacity:0.4000; stroke:none;">
<circle cx="35.4464" cy="10.7677" r="1.5000" /> 
</g>
<g style="fill:#D864FF; fill-opacity:0.4000; stroke:none;">
<circle cx="39.4464" cy="10.7677" r="1.5000" /> 
</g>
<g style="fill:#D864FF; fill-opacity:0.4000; stroke:none;">
<circle cx="43.4464" cy="10.7677" r="1.5000" /> 
</g>
<g style="fill:#D864FF; fill-opacity:0.4000; stroke:none;">
<circle cx="47.4464" cy="10.7677" r="1.5000" /> 
</g>
<g style="fill:#D864FF; fill-opacity:0.4000; stroke:none;">
<circle cx="51.4464" cy="10.7677" r="1.5000" /> 
</g>
<g style="fill:#D864FF; fill-opacity:0.4000; stroke:none;">
<circle cx="55.4464" cy="10.7677" r="1.5000" /> 
</g>
<g style="fill:none; 
stroke:#F2EDA1; stroke-width:0.1588; stroke-opacity:1; 
stroke-linecap:round; stroke-linejoin:round;">
<text x="27.4464" y="3.4027"
textLength="5.6651" font-size="1.6933" lengthAdjust="spacingAndGlyphs"
text-anchor="middle" opacity="0">REF**</text>
<g class="stroked-text"><desc>REF**</desc>
<path d="M25.7530 3.3470
L25.3297 2.7422
" />
<path d="M25.0273 3.3470
L25.0273 2.0770
" />
<path d="M25.0273 2.0770
L25.5111 2.0770
" />
<path d="M25.5111 2.0770
L25.6321 2.1374
" />
<path d="M25.6321 2.1374
L25.6926 2.1979
" />
<path d="M25.6926 2.1979
L25.7530 2.3189
" />
<path d="M25.7530 2.3189
L25.7530 2.5003
" />
<path d="M25.7530 2.5003
L25.6926 2.6213
" />
<path d="M25.6926 2.6213
L25.6321 2.6817
" />
<path d="M25.6321 2.6817
L25.5111 2.7422
" />
<path d="M25.5111 2.7422
L25.0273 2.7422
" />
<path d="M26.2973 2.6817
L26.7207 2.6817
" />
<path d="M26.9021 3.3470
L26.2973 3.3470
" />
<path d="M26.2973 3.3470
L26.2973 2.0770
" />
<path d="M26.2973 2.0770
L26.9021 2.0770
" />
<path d="M27.8697 2.6817
L27.4464 2.6817
" />
<path d="M27.4464 3.3470
L27.4464 2.0770
" />
<path d="M27.4464 2.0770
L28.0511 2.0770
" />
<path d="M28.7164 2.0770
L28.7164 2.3794
" />
<path d="M28.4140 2.2584
L28.7164 2.3794
" />
<path d="M28.7164 2.3794
L29.0187 2.2584
" />
<path d="M28.5349 2.6213
L28.7164 2.3794
" />
<path d="M28.7164 2.3794
L28.8978 2.6213
" />
<path d="M29.6840 2.0770
L29.6840 2.3794
" />
<path d="M29.3816 2.2584
L29.6840 2.3794
" />
<path d="M29.6840 2.3794
L29.9864 2.2584
" />
<path d="M29.5026 2.6213
L29.6840 2.3794
" />
<path d="M29.6840 2.3794
L29.8654 2.6213
" />
</g></g>
<g style="fill:none; 
stroke:#F2EDA1; stroke-width:0.1200; stroke-opacity:1; 
stroke-linecap:round; stroke-linejoin:round;">
<path d="M10.9464 9.9677
L18.5464 9.9677
" />
<path d="M10.9464 16.2677
L10.9464 9.9677
" />
<path d="M18.5464 5.4677
L22.3464 5.4677
" />
<path d="M18.5464 9.9677
L18.5464 5.4677
" />
<path d="M22.3464 0.6177
L60.5464 0.6177
" />
<path d="M22.3464 5.4677
L22.3464 0.6177
" />
<path d="M26.5714 0.0600
L28.3214 0.0600
" />
<path d="M60.5464 0.6177
L60.5464 5.4677
" />
<path d="M60.5464 5.4677
L64.3464 5.4677
" />
<path d="M64.3464 5.4677
L64.3464 9.9677
" />
<path d="M64.3464 9.9677
L71.9464 9.9677
" />
<path d="M71.9464 9.9677
L71.9464 16.2677
" />
</g>
<g style="fill:#FFFFFF; fill-opacity:1.0000; stroke:none;">
<circle cx="20.9464" cy="7.2677" r="1.4250" /> 
</g>
<g style="fill:#FFFFFF; fill-opacity:1.0000; stroke:none;">
<circle cx="61.9464" cy="7.2677" r="1.4250" /> 
</g>
<g style="fill:#FFFFFF; fill-opacity:1.0000; stroke:none;">
<circle cx="27.4464" cy="2.7677" r="0.8750" /> 
</g>
<g style="fill:#FFFFFF; fill-opacity:1.0000; stroke:none;">
<circle cx="31.4464" cy="2.7677" r="0.8750" /> 
</g>
<g style="fill:#FFFFFF; fill-opacity:1.0000; stroke:none;">
<circle cx="35.4464" cy="2.7677" r="0.8750" /> 
</g>
<g style="fill:#FFFFFF; fill-opacity:1.0000; stroke:none;">
<circle cx="39.4464" cy="2.7677" r="0.8750" /> 
</g>
<g style="fill:#FFFFFF; fill-opacity:1.0000; stroke:none;">
<circle cx="43.4464" cy="2.7677" r="0.8750" /> 
</g>
<g style="fill:#FFFFFF; fill-opacity:1.0000; stroke:none;">
<circle cx="47.4464" cy="2.7677" r="0.8750" /> 
</g>
<g style="fill:#FFFFFF; fill-opacity:1.0000; stroke:none;">
<circle cx="51.4464" cy="2.7677" r="0.8750" /> 
</g>
<g style="fill:#FFFFFF; fill-opacity:1.0000; stroke:none;">
<circle cx="55.4464" cy="2.7677" r="0.8750" /> 
</g>
<g style="fill:#FFFFFF; fill-opacity:1.0000; stroke:none;">
<circle cx="29.4464" cy="6.7677" r="0.8750" /> 
</g>
<g style="fill:#FFFFFF; fill-opacity:1.0000; stroke:none;">
<circle cx="33.4464" cy="6.7677" r="0.8750" /> 
</g>
<g style="fill:#FFFFFF; fill-opacity:1.0000; stroke:none;">
<circle cx="37.4464" cy="6.7677" r="0.8750" /> 
</g>
<g style="fill:#FFFFFF; fill-opacity:1.0000; stroke:none;">
<circle cx="41.4464" cy="6.7677" r="0.8750" /> 
</g>
<g style="fill:#FFFFFF; fill-opacity:1.0000; stroke:none;">
<circle cx="45.4464" cy="6.7677" r="0.8750" /> 
</g>
<g style="fill:#FFFFFF; fill-opacity:1.0000; stroke:none;">
<circle cx="49.4464" cy="6.7677" r="0.8750" /> 
</g>
<g style="fill:#FFFFFF; fill-opacity:1.0000; stroke:none;">
<circle cx="53.4464" cy="6.7677" r="0.8750" /> 
</g>
<g style="fill:#FFFFFF; fill-opacity:1.0000; stroke:none;">
<circle cx="27.4464" cy="10.7677" r="0.8750" /> 
</g>
<g style="fill:#FFFFFF; fill-opacity:1.0000; stroke:none;">
<circle cx="31.4464" cy="10.7677" r="0.8750" /> 
</g>
<g style="fill:#FFFFFF; fill-opacity:1.0000; stroke:none;">
<circle cx="35.4464" cy="10.7677" r="0.8750" /> 
</g>
<g style="fill:#FFFFFF; fill-opacity:1.0000; stroke:none;">
<circle cx="39.4464" cy="10.7677" r="0.8750" /> 
</g>
<g style="fill:#FFFFFF; fill-opacity:1.0000; stroke:none;">
<circle cx="43.4464" cy="10.7677" r="0.8750" /> 
</g>
<g style="fill:#FFFFFF; fill-opacity:1.0000; stroke:none;">
<circle cx="47.4464" cy="10.7677" r="0.8750" /> 
</g>
<g style="fill:#FFFFFF; fill-opacity:1.0000; stroke:none;">
<circle cx="51.4464" cy="10.7677" r="0.8750" /> 
</g>
<g style="fill:#FFFFFF; fill-opacity:1.0000; stroke:none;">
<circle cx="55.4464" cy="10.7677" r="0.8750" /> 
</g>
<g style="fill:none; 
stroke:#FF26E2; stroke-width:0.0500; stroke-opacity:1; 
stroke-linecap:round; stroke-linejoin:round;">
<path d="M10.5464 9.5677
L18.1464 9.5677
" />
<path d="M10.5464 19.8177
L10.5464 9.5677
" />
<path d="M10.5464 19.8177
L19.2464 19.8177
" />
<path d="M18.1464 5.0677
L21.9464 5.0677
" />
<path d="M18.1464 9.5677
L18.1464 5.0677
" />
<path d="M19.2464 19.8177
L19.2464 39.1177
" />
<path d="M19.2464 39.1177
L63.6464 39.1177
" />
<path d="M21.9464 0.2177
L60.9464 0.2177
" />
<path d="M21.9464 5.0677
L21.9464 0.2177
" />
<path d="M60.9464 0.2177
L60.9464 5.0677
" />
<path d="M60.9464 5.0677
L64.7464 5.0677
" />
<path d="M63.6464 19.8177
L72.3464 19.8177
" />
<path d="M63.6464 39.1177
L63.6464 19.8177
" />
<path d="M64.7464 5.0677
L64.7464 9.5677
" />
<path d="M64.7464 9.5677
L72.3464 9.5677
" />
<path d="M72.3464 9.5677
L72.3464 19.8177
" />
</g>
<g style="fill:none; 
stroke:#AFAFAF; stroke-width:0.1588; stroke-opacity:1; 
stroke-linecap:round; stroke-linejoin:round;">
<text x="27.4464" y="3.4027"
textLength="54.8927" font-size="1.6933" lengthAdjust="spacingAndGlyphs"
text-anchor="middle" opacity="0">TE_AMPSEAL_1-776087-x_3Rows_23_P0.4mm_Horizontal</text>
<g class="stroked-text"><desc>TE_AMPSEAL_1-776087-x_3Rows_23_P0.4mm_Horizontal</desc>
<path d="M0.2321 2.0770
L0.9578 2.0770
" />
<path d="M0.5949 3.3470
L0.5949 2.0770
" />
<path d="M1.3811 2.6817
L1.8045 2.6817
" />
<path d="M1.9859 3.3470
L1.3811 3.3470
" />
<path d="M1.3811 3.3470
L1.3811 2.0770
" />
<path d="M1.3811 2.0770
L1.9859 2.0770
" />
<path d="M2.2278 3.4679
L3.1954 3.4679
" />
<path d="M3.4373 2.9841
L4.0421 2.9841
" />
<path d="M3.3164 3.3470
L3.7397 2.0770
" />
<path d="M3.7397 2.0770
L4.1630 3.3470
" />
<path d="M4.5864 3.3470
L4.5864 2.0770
" />
<path d="M4.5864 2.0770
L5.0097 2.9841
" />
<path d="M5.0097 2.9841
L5.4330 2.0770
" />
<path d="M5.4330 2.0770
L5.4330 3.3470
" />
<path d="M6.0378 3.3470
L6.0378 2.0770
" />
<path d="M6.0378 2.0770
L6.5216 2.0770
" />
<path d="M6.5216 2.0770
L6.6426 2.1374
" />
<path d="M6.6426 2.1374
L6.7030 2.1979
" />
<path d="M6.7030 2.1979
L6.7635 2.3189
" />
<path d="M6.7635 2.3189
L6.7635 2.5003
" />
<path d="M6.7635 2.5003
L6.7030 2.6213
" />
<path d="M6.7030 2.6213
L6.6426 2.6817
" />
<path d="M6.6426 2.6817
L6.5216 2.7422
" />
<path d="M6.5216 2.7422
L6.0378 2.7422
" />
<path d="M7.2473 3.2865
L7.4287 3.3470
" />
<path d="M7.4287 3.3470
L7.7311 3.3470
" />
<path d="M7.7311 3.3470
L7.8521 3.2865
" />
<path d="M7.8521 3.2865
L7.9126 3.2260
" />
<path d="M7.9126 3.2260
L7.9730 3.1051
" />
<path d="M7.9730 3.1051
L7.9730 2.9841
" />
<path d="M7.9730 2.9841
L7.9126 2.8632
" />
<path d="M7.9126 2.8632
L7.8521 2.8027
" />
<path d="M7.8521 2.8027
L7.7311 2.7422
" />
<path d="M7.7311 2.7422
L7.4892 2.6817
" />
<path d="M7.4892 2.6817
L7.3683 2.6213
" />
<path d="M7.3683 2.6213
L7.3078 2.5608
" />
<path d="M7.3078 2.5608
L7.2473 2.4398
" />
<path d="M7.2473 2.4398
L7.2473 2.3189
" />
<path d="M7.2473 2.3189
L7.3078 2.1979
" />
<path d="M7.3078 2.1979
L7.3683 2.1374
" />
<path d="M7.3683 2.1374
L7.4892 2.0770
" />
<path d="M7.4892 2.0770
L7.7916 2.0770
" />
<path d="M7.7916 2.0770
L7.9730 2.1374
" />
<path d="M8.5173 2.6817
L8.9406 2.6817
" />
<path d="M9.1221 3.3470
L8.5173 3.3470
" />
<path d="M8.5173 3.3470
L8.5173 2.0770
" />
<path d="M8.5173 2.0770
L9.1221 2.0770
" />
<path d="M9.6059 2.9841
L10.2106 2.9841
" />
<path d="M9.4849 3.3470
L9.9083 2.0770
" />
<path d="M9.9083 2.0770
L10.3316 3.3470
" />
<path d="M11.3597 3.3470
L10.7549 3.3470
" />
<path d="M10.7549 3.3470
L10.7549 2.0770
" />
<path d="M11.4806 3.4679
L12.4483 3.4679
" />
<path d="M13.4159 3.3470
L12.6902 3.3470
" />
<path d="M13.0530 3.3470
L13.0530 2.0770
" />
<path d="M13.0530 2.0770
L12.9321 2.2584
" />
<path d="M12.9321 2.2584
L12.8111 2.3794
" />
<path d="M12.8111 2.3794
L12.6902 2.4398
" />
<path d="M13.9602 2.8632
L14.9278 2.8632
" />
<path d="M15.4116 2.0770
L16.2583 2.0770
" />
<path d="M16.2583 2.0770
L15.7140 3.3470
" />
<path d="M16.6211 2.0770
L17.4678 2.0770
" />
<path d="M17.4678 2.0770
L16.9235 3.3470
" />
<path d="M18.4959 2.0770
L18.2540 2.0770
" />
<path d="M18.2540 2.0770
L18.1330 2.1374
" />
<path d="M18.1330 2.1374
L18.0726 2.1979
" />
<path d="M18.0726 2.1979
L17.9516 2.3794
" />
<path d="M17.9516 2.3794
L17.8911 2.6213
" />
<path d="M17.8911 2.6213
L17.8911 3.1051
" />
<path d="M17.8911 3.1051
L17.9516 3.2260
" />
<path d="M17.9516 3.2260
L18.0121 3.2865
" />
<path d="M18.0121 3.2865
L18.1330 3.3470
" />
<path d="M18.1330 3.3470
L18.3749 3.3470
" />
<path d="M18.3749 3.3470
L18.4959 3.2865
" />
<path d="M18.4959 3.2865
L18.5564 3.2260
" />
<path d="M18.5564 3.2260
L18.6168 3.1051
" />
<path d="M18.6168 3.1051
L18.6168 2.8027
" />
<path d="M18.6168 2.8027
L18.5564 2.6817
" />
<path d="M18.5564 2.6817
L18.4959 2.6213
" />
<path d="M18.4959 2.6213
L18.3749 2.5608
" />
<path d="M18.3749 2.5608
L18.1330 2.5608
" />
<path d="M18.1330 2.5608
L18.0121 2.6213
" />
<path d="M18.0121 2.6213
L17.9516 2.6817
" />
<path d="M17.9516 2.6817
L17.8911 2.8027
" />
<path d="M19.4030 2.0770
L19.5240 2.0770
" />
<path d="M19.5240 2.0770
L19.6449 2.1374
" />
<path d="M19.6449 2.1374
L19.7054 2.1979
" />
<path d="M19.7054 2.1979
L19.7659 2.3189
" />
<path d="M19.7659 2.3189
L19.8264 2.5608
" />
<path d="M19.8264 2.5608
L19.8264 2.8632
" />
<path d="M19.8264 2.8632
L19.7659 3.1051
" />
<path d="M19.7659 3.1051
L19.7054 3.2260
" />
<path d="M19.7054 3.2260
L19.6449 3.2865
" />
<path d="M19.6449 3.2865
L19.5240 3.3470
" />
<path d="M19.5240 3.3470
L19.4030 3.3470
" />
<path d="M19.4030 3.3470
L19.2821 3.2865
" />
<path d="M19.2821 3.2865
L19.2216 3.2260
" />
<path d="M19.2216 3.2260
L19.1611 3.1051
" />
<path d="M19.1611 3.1051
L19.1006 2.8632
" />
<path d="M19.1006 2.8632
L19.1006 2.5608
" />
<path d="M19.1006 2.5608
L19.1611 2.3189
" />
<path d="M19.1611 2.3189
L19.2216 2.1979
" />
<path d="M19.2216 2.1979
L19.2821 2.1374
" />
<path d="M19.2821 2.1374
L19.4030 2.0770
" />
<path d="M20.5521 2.6213
L20.4311 2.5608
" />
<path d="M20.4311 2.5608
L20.3706 2.5003
" />
<path d="M20.3706 2.5003
L20.3102 2.3794
" />
<path d="M20.3102 2.3794
L20.3102 2.3189
" />
<path d="M20.3102 2.3189
L20.3706 2.1979
" />
<path d="M20.3706 2.1979
L20.4311 2.1374
" />
<path d="M20.4311 2.1374
L20.5521 2.0770
" />
<path d="M20.5521 2.0770
L20.7940 2.0770
" />
<path d="M20.7940 2.0770
L20.9149 2.1374
" />
<path d="M20.9149 2.1374
L20.9754 2.1979
" />
<path d="M20.9754 2.1979
L21.0359 2.3189
" />
<path d="M21.0359 2.3189
L21.0359 2.3794
" />
<path d="M21.0359 2.3794
L20.9754 2.5003
" />
<path d="M20.9754 2.5003
L20.9149 2.5608
" />
<path d="M20.9149 2.5608
L20.7940 2.6213
" />
<path d="M20.7940 2.6213
L20.5521 2.6213
" />
<path d="M20.5521 2.6213
L20.4311 2.6817
" />
<path d="M20.4311 2.6817
L20.3706 2.7422
" />
<path d="M20.3706 2.7422
L20.3102 2.8632
" />
<path d="M20.3102 2.8632
L20.3102 3.1051
" />
<path d="M20.3102 3.1051
L20.3706 3.2260
" />
<path d="M20.3706 3.2260
L20.4311 3.2865
" />
<path d="M20.4311 3.2865
L20.5521 3.3470
" />
<path d="M20.5521 3.3470
L20.7940 3.3470
" />
<path d="M20.7940 3.3470
L20.9149 3.2865
" />
<path d="M20.9149 3.2865
L20.9754 3.2260
" />
<path d="M20.9754 3.2260
L21.0359 3.1051
" />
<path d="M21.0359 3.1051
L21.0359 2.8632
" />
<path d="M21.0359 2.8632
L20.9754 2.7422
" />
<path d="M20.9754 2.7422
L20.9149 2.6817
" />
<path d="M20.9149 2.6817
L20.7940 2.6213
" />
<path d="M21.4592 2.0770
L22.3059 2.0770
" />
<path d="M22.3059 2.0770
L21.7616 3.3470
" />
<path d="M22.7897 2.8632
L23.7573 2.8632
" />
<path d="M24.2411 3.3470
L24.9064 2.5003
" />
<path d="M24.2411 2.5003
L24.9064 3.3470
" />
<path d="M25.0878 3.4679
L26.0554 3.4679
" />
<path d="M26.2368 2.0770
L27.0230 2.0770
" />
<path d="M27.0230 2.0770
L26.5997 2.5608
" />
<path d="M26.5997 2.5608
L26.7811 2.5608
" />
<path d="M26.7811 2.5608
L26.9021 2.6213
" />
<path d="M26.9021 2.6213
L26.9626 2.6817
" />
<path d="M26.9626 2.6817
L27.0230 2.8027
" />
<path d="M27.0230 2.8027
L27.0230 3.1051
" />
<path d="M27.0230 3.1051
L26.9626 3.2260
" />
<path d="M26.9626 3.2260
L26.9021 3.2865
" />
<path d="M26.9021 3.2865
L26.7811 3.3470
" />
<path d="M26.7811 3.3470
L26.4183 3.3470
" />
<path d="M26.4183 3.3470
L26.2973 3.2865
" />
<path d="M26.2973 3.2865
L26.2368 3.2260
" />
<path d="M28.2930 3.3470
L27.8697 2.7422
" />
<path d="M27.5673 3.3470
L27.5673 2.0770
" />
<path d="M27.5673 2.0770
L28.0511 2.0770
" />
<path d="M28.0511 2.0770
L28.1721 2.1374
" />
<path d="M28.1721 2.1374
L28.2326 2.1979
" />
<path d="M28.2326 2.1979
L28.2930 2.3189
" />
<path d="M28.2930 2.3189
L28.2930 2.5003
" />
<path d="M28.2930 2.5003
L28.2326 2.6213
" />
<path d="M28.2326 2.6213
L28.1721 2.6817
" />
<path d="M28.1721 2.6817
L28.0511 2.7422
" />
<path d="M28.0511 2.7422
L27.5673 2.7422
" />
<path d="M29.0187 3.3470
L28.8978 3.2865
" />
<path d="M28.8978 3.2865
L28.8373 3.2260
" />
<path d="M28.8373 3.2260
L28.7768 3.1051
" />
<path d="M28.7768 3.1051
L28.7768 2.7422
" />
<path d="M28.7768 2.7422
L28.8373 2.6213
" />
<path d="M28.8373 2.6213
L28.8978 2.5608
" />
<path d="M28.8978 2.5608
L29.0187 2.5003
" />
<path d="M29.0187 2.5003
L29.2002 2.5003
" />
<path d="M29.2002 2.5003
L29.3211 2.5608
" />
<path d="M29.3211 2.5608
L29.3816 2.6213
" />
<path d="M29.3816 2.6213
L29.4421 2.7422
" />
<path d="M29.4421 2.7422
L29.4421 3.1051
" />
<path d="M29.4421 3.1051
L29.3816 3.2260
" />
<path d="M29.3816 3.2260
L29.3211 3.2865
" />
<path d="M29.3211 3.2865
L29.2002 3.3470
" />
<path d="M29.2002 3.3470
L29.0187 3.3470
" />
<path d="M29.8654 2.5003
L30.1073 3.3470
" />
<path d="M30.1073 3.3470
L30.3492 2.7422
" />
<path d="M30.3492 2.7422
L30.5911 3.3470
" />
<path d="M30.5911 3.3470
L30.8330 2.5003
" />
<path d="M31.2564 3.2865
L31.3773 3.3470
" />
<path d="M31.3773 3.3470
L31.6192 3.3470
" />
<path d="M31.6192 3.3470
L31.7402 3.2865
" />
<path d="M31.7402 3.2865
L31.8006 3.1655
" />
<path d="M31.8006 3.1655
L31.8006 3.1051
" />
<path d="M31.8006 3.1051
L31.7402 2.9841
" />
<path d="M31.7402 2.9841
L31.6192 2.9236
" />
<path d="M31.6192 2.9236
L31.4378 2.9236
" />
<path d="M31.4378 2.9236
L31.3168 2.8632
" />
<path d="M31.3168 2.8632
L31.2564 2.7422
" />
<path d="M31.2564 2.7422
L31.2564 2.6817
" />
<path d="M31.2564 2.6817
L31.3168 2.5608
" />
<path d="M31.3168 2.5608
L31.4378 2.5003
" />
<path d="M31.4378 2.5003
L31.6192 2.5003
" />
<path d="M31.6192 2.5003
L31.7402 2.5608
" />
<path d="M32.0426 3.4679
L33.0102 3.4679
" />
<path d="M33.2521 2.1979
L33.3126 2.1374
" />
<path d="M33.3126 2.1374
L33.4335 2.0770
" />
<path d="M33.4335 2.0770
L33.7359 2.0770
" />
<path d="M33.7359 2.0770
L33.8568 2.1374
" />
<path d="M33.8568 2.1374
L33.9173 2.1979
" />
<path d="M33.9173 2.1979
L33.9778 2.3189
" />
<path d="M33.9778 2.3189
L33.9778 2.4398
" />
<path d="M33.9778 2.4398
L33.9173 2.6213
" />
<path d="M33.9173 2.6213
L33.1916 3.3470
" />
<path d="M33.1916 3.3470
L33.9778 3.3470
" />
<path d="M34.4011 2.0770
L35.1873 2.0770
" />
<path d="M35.1873 2.0770
L34.7640 2.5608
" />
<path d="M34.7640 2.5608
L34.9454 2.5608
" />
<path d="M34.9454 2.5608
L35.0664 2.6213
" />
<path d="M35.0664 2.6213
L35.1268 2.6817
" />
<path d="M35.1268 2.6817
L35.1873 2.8027
" />
<path d="M35.1873 2.8027
L35.1873 3.1051
" />
<path d="M35.1873 3.1051
L35.1268 3.2260
" />
<path d="M35.1268 3.2260
L35.0664 3.2865
" />
<path d="M35.0664 3.2865
L34.9454 3.3470
" />
<path d="M34.9454 3.3470
L34.5826 3.3470
" />
<path d="M34.5826 3.3470
L34.4616 3.2865
" />
<path d="M34.4616 3.2865
L34.4011 3.2260
" />
<path d="M35.4292 3.4679
L36.3968 3.4679
" />
<path d="M36.6992 3.3470
L36.6992 2.0770
" />
<path d="M36.6992 2.0770
L37.1830 2.0770
" />
<path d="M37.1830 2.0770
L37.3040 2.1374
" />
<path d="M37.3040 2.1374
L37.3645 2.1979
" />
<path d="M37.3645 2.1979
L37.4249 2.3189
" />
<path d="M37.4249 2.3189
L37.4249 2.5003
" />
<path d="M37.4249 2.5003
L37.3645 2.6213
" />
<path d="M37.3645 2.6213
L37.3040 2.6817
" />
<path d="M37.3040 2.6817
L37.1830 2.7422
" />
<path d="M37.1830 2.7422
L36.6992 2.7422
" />
<path d="M38.2111 2.0770
L38.3321 2.0770
" />
<path d="M38.3321 2.0770
L38.4530 2.1374
" />
<path d="M38.4530 2.1374
L38.5135 2.1979
" />
<path d="M38.5135 2.1979
L38.5740 2.3189
" />
<path d="M38.5740 2.3189
L38.6345 2.5608
" />
<path d="M38.6345 2.5608
L38.6345 2.8632
" />
<path d="M38.6345 2.8632
L38.5740 3.1051
" />
<path d="M38.5740 3.1051
L38.5135 3.2260
" />
<path d="M38.5135 3.2260
L38.4530 3.2865
" />
<path d="M38.4530 3.2865
L38.3321 3.3470
" />
<path d="M38.3321 3.3470
L38.2111 3.3470
" />
<path d="M38.2111 3.3470
L38.0902 3.2865
" />
<path d="M38.0902 3.2865
L38.0297 3.2260
" />
<path d="M38.0297 3.2260
L37.9692 3.1051
" />
<path d="M37.9692 3.1051
L37.9087 2.8632
" />
<path d="M37.9087 2.8632
L37.9087 2.5608
" />
<path d="M37.9087 2.5608
L37.9692 2.3189
" />
<path d="M37.9692 2.3189
L38.0297 2.1979
" />
<path d="M38.0297 2.1979
L38.0902 2.1374
" />
<path d="M38.0902 2.1374
L38.2111 2.0770
" />
<path d="M39.1787 3.2260
L39.2392 3.2865
" />
<path d="M39.2392 3.2865
L39.1787 3.3470
" />
<path d="M39.1787 3.3470
L39.1183 3.2865
" />
<path d="M39.1183 3.2865
L39.1787 3.2260
" />
<path d="M39.1787 3.2260
L39.1787 3.3470
" />
<path d="M40.3278 2.5003
L40.3278 3.3470
" />
<path d="M40.0254 2.0165
L39.7230 2.9236
" />
<path d="M39.7230 2.9236
L40.5092 2.9236
" />
<path d="M40.9930 3.3470
L40.9930 2.5003
" />
<path d="M40.9930 2.6213
L41.0535 2.5608
" />
<path d="M41.0535 2.5608
L41.1745 2.5003
" />
<path d="M41.1745 2.5003
L41.3559 2.5003
" />
<path d="M41.3559 2.5003
L41.4768 2.5608
" />
<path d="M41.4768 2.5608
L41.5373 2.6817
" />
<path d="M41.5373 2.6817
L41.5373 3.3470
" />
<path d="M41.5373 2.6817
L41.5978 2.5608
" />
<path d="M41.5978 2.5608
L41.7187 2.5003
" />
<path d="M41.7187 2.5003
L41.9002 2.5003
" />
<path d="M41.9002 2.5003
L42.0211 2.5608
" />
<path d="M42.0211 2.5608
L42.0816 2.6817
" />
<path d="M42.0816 2.6817
L42.0816 3.3470
" />
<path d="M42.6864 3.3470
L42.6864 2.5003
" />
<path d="M42.6864 2.6213
L42.7468 2.5608
" />
<path d="M42.7468 2.5608
L42.8678 2.5003
" />
<path d="M42.8678 2.5003
L43.0492 2.5003
" />
<path d="M43.0492 2.5003
L43.1702 2.5608
" />
<path d="M43.1702 2.5608
L43.2306 2.6817
" />
<path d="M43.2306 2.6817
L43.2306 3.3470
" />
<path d="M43.2306 2.6817
L43.2911 2.5608
" />
<path d="M43.2911 2.5608
L43.4121 2.5003
" />
<path d="M43.4121 2.5003
L43.5935 2.5003
" />
<path d="M43.5935 2.5003
L43.7145 2.5608
" />
<path d="M43.7145 2.5608
L43.7749 2.6817
" />
<path d="M43.7749 2.6817
L43.7749 3.3470
" />
<path d="M44.0773 3.4679
L45.0449 3.4679
" />
<path d="M45.3473 3.3470
L45.3473 2.0770
" />
<path d="M45.3473 2.6817
L46.0730 2.6817
" />
<path d="M46.0730 3.3470
L46.0730 2.0770
" />
<path d="M46.8592 3.3470
L46.7383 3.2865
" />
<path d="M46.7383 3.2865
L46.6778 3.2260
" />
<path d="M46.6778 3.2260
L46.6173 3.1051
" />
<path d="M46.6173 3.1051
L46.6173 2.7422
" />
<path d="M46.6173 2.7422
L46.6778 2.6213
" />
<path d="M46.6778 2.6213
L46.7383 2.5608
" />
<path d="M46.7383 2.5608
L46.8592 2.5003
" />
<path d="M46.8592 2.5003
L47.0406 2.5003
" />
<path d="M47.0406 2.5003
L47.1616 2.5608
" />
<path d="M47.1616 2.5608
L47.2221 2.6213
" />
<path d="M47.2221 2.6213
L47.2826 2.7422
" />
<path d="M47.2826 2.7422
L47.2826 3.1051
" />
<path d="M47.2826 3.1051
L47.2221 3.2260
" />
<path d="M47.2221 3.2260
L47.1616 3.2865
" />
<path d="M47.1616 3.2865
L47.0406 3.3470
" />
<path d="M47.0406 3.3470
L46.8592 3.3470
" />
<path d="M47.8268 3.3470
L47.8268 2.5003
" />
<path d="M47.8268 2.7422
L47.8873 2.6213
" />
<path d="M47.8873 2.6213
L47.9478 2.5608
" />
<path d="M47.9478 2.5608
L48.0687 2.5003
" />
<path d="M48.0687 2.5003
L48.1897 2.5003
" />
<path d="M48.6130 3.3470
L48.6130 2.5003
" />
<path d="M48.6130 2.0770
L48.5526 2.1374
" />
<path d="M48.5526 2.1374
L48.6130 2.1979
" />
<path d="M48.6130 2.1979
L48.6735 2.1374
" />
<path d="M48.6735 2.1374
L48.6130 2.0770
" />
<path d="M48.6130 2.0770
L48.6130 2.1979
" />
<path d="M49.0968 2.5003
L49.7621 2.5003
" />
<path d="M49.7621 2.5003
L49.0968 3.3470
" />
<path d="M49.0968 3.3470
L49.7621 3.3470
" />
<path d="M50.4273 3.3470
L50.3064 3.2865
" />
<path d="M50.3064 3.2865
L50.2459 3.2260
" />
<path d="M50.2459 3.2260
L50.1854 3.1051
" />
<path d="M50.1854 3.1051
L50.1854 2.7422
" />
<path d="M50.1854 2.7422
L50.2459 2.6213
" />
<path d="M50.2459 2.6213
L50.3064 2.5608
" />
<path d="M50.3064 2.5608
L50.4273 2.5003
" />
<path d="M50.4273 2.5003
L50.6087 2.5003
" />
<path d="M50.6087 2.5003
L50.7297 2.5608
" />
<path d="M50.7297 2.5608
L50.7902 2.6213
" />
<path d="M50.7902 2.6213
L50.8506 2.7422
" />
<path d="M50.8506 2.7422
L50.8506 3.1051
" />
<path d="M50.8506 3.1051
L50.7902 3.2260
" />
<path d="M50.7902 3.2260
L50.7297 3.2865
" />
<path d="M50.7297 3.2865
L50.6087 3.3470
" />
<path d="M50.6087 3.3470
L50.4273 3.3470
" />
<path d="M51.3949 2.5003
L51.3949 3.3470
" />
<path d="M51.3949 2.6213
L51.4554 2.5608
" />
<path d="M51.4554 2.5608
L51.5764 2.5003
" />
<path d="M51.5764 2.5003
L51.7578 2.5003
" />
<path d="M51.7578 2.5003
L51.8787 2.5608
" />
<path d="M51.8787 2.5608
L51.9392 2.6817
" />
<path d="M51.9392 2.6817
L51.9392 3.3470
" />
<path d="M52.3626 2.5003
L52.8464 2.5003
" />
<path d="M52.5440 2.0770
L52.5440 3.1655
" />
<path d="M52.5440 3.1655
L52.6045 3.2865
" />
<path d="M52.6045 3.2865
L52.7254 3.3470
" />
<path d="M52.7254 3.3470
L52.8464 3.3470
" />
<path d="M53.8140 3.3470
L53.8140 2.6817
" />
<path d="M53.8140 2.6817
L53.7535 2.5608
" />
<path d="M53.7535 2.5608
L53.6326 2.5003
" />
<path d="M53.6326 2.5003
L53.3907 2.5003
" />
<path d="M53.3907 2.5003
L53.2697 2.5608
" />
<path d="M53.8140 3.2865
L53.6930 3.3470
" />
<path d="M53.6930 3.3470
L53.3907 3.3470
" />
<path d="M53.3907 3.3470
L53.2697 3.2865
" />
<path d="M53.2697 3.2865
L53.2092 3.1655
" />
<path d="M53.2092 3.1655
L53.2092 3.0446
" />
<path d="M53.2092 3.0446
L53.2697 2.9236
" />
<path d="M53.2697 2.9236
L53.3907 2.8632
" />
<path d="M53.3907 2.8632
L53.6930 2.8632
" />
<path d="M53.6930 2.8632
L53.8140 2.8027
" />
<path d="M54.6002 3.3470
L54.4792 3.2865
" />
<path d="M54.4792 3.2865
L54.4187 3.1655
" />
<path d="M54.4187 3.1655
L54.4187 2.0770
" />
</g></g>
<g style="fill:none; 
stroke:#AFAFAF; stroke-width:0.1500; stroke-opacity:1; 
stroke-linecap:round; stroke-linejoin:round;">
<text x="41.4464" y="7.2677"
textLength="4.5357" font-size="1.3333" lengthAdjust="spacingAndGlyphs"
text-anchor="middle" opacity="0">REF**</text>
<g class="stroked-text"><desc>REF**</desc>
<path d="M40.1130 7.2225
L39.7797 6.7463
" />
<path d="M39.5416 7.2225
L39.5416 6.2225
" />
<path d="M39.5416 6.2225
L39.9226 6.2225
" />
<path d="M39.9226 6.2225
L40.0178 6.2701
" />
<path d="M40.0178 6.2701
L40.0654 6.3178
" />
<path d="M40.0654 6.3178
L40.1130 6.4130
" />
<path d="M40.1130 6.4130
L40.1130 6.5559
" />
<path d="M40.1130 6.5559
L40.0654 6.6511
" />
<path d="M40.0654 6.6511
L40.0178 6.6987
" />
<path d="M40.0178 6.6987
L39.9226 6.7463
" />
<path d="M39.9226 6.7463
L39.5416 6.7463
" />
<path d="M40.5416 6.6987
L40.8749 6.6987
" />
<path d="M41.0178 7.2225
L40.5416 7.2225
" />
<path d="M40.5416 7.2225
L40.5416 6.2225
" />
<path d="M40.5416 6.2225
L41.0178 6.2225
" />
<path d="M41.7797 6.6987
L41.4464 6.6987
" />
<path d="M41.4464 7.2225
L41.4464 6.2225
" />
<path d="M41.4464 6.2225
L41.9226 6.2225
" />
<path d="M42.4464 6.2225
L42.4464 6.4606
" />
<path d="M42.2083 6.3654
L42.4464 6.4606
" />
<path d="M42.4464 6.4606
L42.6845 6.3654
" />
<path d="M42.3035 6.6511
L42.4464 6.4606
" />
<path d="M42.4464 6.4606
L42.5892 6.6511
" />
<path d="M43.2083 6.2225
L43.2083 6.4606
" />
<path d="M42.9702 6.3654
L43.2083 6.4606
" />
<path d="M43.2083 6.4606
L43.4464 6.3654
" />
<path d="M43.0654 6.6511
L43.2083 6.4606
" />
<path d="M43.2083 6.4606
L43.3511 6.6511
" />
</g></g>
<g style="fill:none; 
stroke:#AFAFAF; stroke-width:0.1000; stroke-opacity:1; 
stroke-linecap:round; stroke-linejoin:round;">
<path d="M11.0464 19.3177
L11.0464 10.0677
" />
<path d="M11.0464 19.3177
L71.8464 19.3177
" />
<path d="M11.5464 16.2677
L71.3464 16.2677
" />
<path d="M18.6464 5.5677
L18.6464 10.0677
" />
<path d="M18.6464 5.5677
L22.4464 5.5677
" />
<path d="M18.6464 10.0677
L11.0464 10.0677
" />
<path d="M19.7464 19.3177
L19.7464 38.6177
" />
<path d="M19.7464 38.6177
L63.1464 38.6177
" />
<path d="M22.4464 0.7177
L22.4464 5.5677
" />
<path d="M26.9464 0.7177
L22.4464 0.7177
" />
<path d="M27.4464 1.2177
L26.9464 0.7177
" />
<path d="M27.4464 1.2177
L27.9464 0.7177
" />
<path d="M27.9464 0.7177
L60.4464 0.7177
" />
<path d="M60.4464 0.7177
L60.4464 5.5677
" />
<path d="M60.4464 5.5677
L64.2464 5.5677
" />
<path d="M63.1464 38.6177
L63.1464 19.3177
" />
<path d="M64.2464 5.5677
L64.2464 10.0677
" />
<path d="M64.2464 10.0677
L71.8464 10.0677
" />
<path d="M71.8464 10.0677
L71.8464 19.3177
" />
</g>
<g style="fill:none; 
stroke:#C2C2C2; stroke-width:0.1500; stroke-opacity:1; 
stroke-linecap:round; stroke-linejoin:round;">
<text x="41.8464" y="16.8177"
textLength="7.5833" font-size="1.3333" lengthAdjust="spacingAndGlyphs"
text-anchor="middle" opacity="0">PCB Edge</text>
<g class="stroked-text"><desc>PCB Edge</desc>
<path d="M38.4178 16.7725
L38.4178 15.7725
" />
<path d="M38.4178 15.7725
L38.7987 15.7725
" />
<path d="M38.7987 15.7725
L38.8940 15.8201
" />
<path d="M38.8940 15.8201
L38.9416 15.8678
" />
<path d="M38.9416 15.8678
L38.9892 15.9630
" />
<path d="M38.9892 15.9630
L38.9892 16.1059
" />
<path d="M38.9892 16.1059
L38.9416 16.2011
" />
<path d="M38.9416 16.2011
L38.8940 16.2487
" />
<path d="M38.8940 16.2487
L38.7987 16.2963
" />
<path d="M38.7987 16.2963
L38.4178 16.2963
" />
<path d="M39.9892 16.6773
L39.9416 16.7249
" />
<path d="M39.9416 16.7249
L39.7987 16.7725
" />
<path d="M39.7987 16.7725
L39.7035 16.7725
" />
<path d="M39.7035 16.7725
L39.5606 16.7249
" />
<path d="M39.5606 16.7249
L39.4654 16.6297
" />
<path d="M39.4654 16.6297
L39.4178 16.5344
" />
<path d="M39.4178 16.5344
L39.3702 16.3439
" />
<path d="M39.3702 16.3439
L39.3702 16.2011
" />
<path d="M39.3702 16.2011
L39.4178 16.0106
" />
<path d="M39.4178 16.0106
L39.4654 15.9154
" />
<path d="M39.4654 15.9154
L39.5606 15.8201
" />
<path d="M39.5606 15.8201
L39.7035 15.7725
" />
<path d="M39.7035 15.7725
L39.7987 15.7725
" />
<path d="M39.7987 15.7725
L39.9416 15.8201
" />
<path d="M39.9416 15.8201
L39.9892 15.8678
" />
<path d="M40.7511 16.2487
L40.8940 16.2963
" />
<path d="M40.8940 16.2963
L40.9416 16.3439
" />
<path d="M40.9416 16.3439
L40.9892 16.4392
" />
<path d="M40.9892 16.4392
L40.9892 16.5820
" />
<path d="M40.9892 16.5820
L40.9416 16.6773
" />
<path d="M40.9416 16.6773
L40.8940 16.7249
" />
<path d="M40.8940 16.7249
L40.7987 16.7725
" />
<path d="M40.7987 16.7725
L40.4178 16.7725
" />
<path d="M40.4178 16.7725
L40.4178 15.7725
" />
<path d="M40.4178 15.7725
L40.7511 15.7725
" />
<path d="M40.7511 15.7725
L40.8464 15.8201
" />
<path d="M40.8464 15.8201
L40.8940 15.8678
" />
<path d="M40.8940 15.8678
L40.9416 15.9630
" />
<path d="M40.9416 15.9630
L40.9416 16.0582
" />
<path d="M40.9416 16.0582
L40.8940 16.1535
" />
<path d="M40.8940 16.1535
L40.8464 16.2011
" />
<path d="M40.8464 16.2011
L40.7511 16.2487
" />
<path d="M40.7511 16.2487
L40.4178 16.2487
" />
<path d="M42.1797 16.2487
L42.5130 16.2487
" />
<path d="M42.6559 16.7725
L42.1797 16.7725
" />
<path d="M42.1797 16.7725
L42.1797 15.7725
" />
<path d="M42.1797 15.7725
L42.6559 15.7725
" />
<path d="M43.5130 16.7725
L43.5130 15.7725
" />
<path d="M43.5130 16.7249
L43.4178 16.7725
" />
<path d="M43.4178 16.7725
L43.2273 16.7725
" />
<path d="M43.2273 16.7725
L43.1321 16.7249
" />
<path d="M43.1321 16.7249
L43.0845 16.6773
" />
<path d="M43.0845 16.6773
L43.0368 16.5820
" />
<path d="M43.0368 16.5820
L43.0368 16.2963
" />
<path d="M43.0368 16.2963
L43.0845 16.2011
" />
<path d="M43.0845 16.2011
L43.1321 16.1535
" />
<path d="M43.1321 16.1535
L43.2273 16.1059
" />
<path d="M43.2273 16.1059
L43.4178 16.1059
" />
<path d="M43.4178 16.1059
L43.5130 16.1535
" />
<path d="M44.4178 16.1059
L44.4178 16.9154
" />
<path d="M44.4178 16.9154
L44.3702 17.0106
" />
<path d="M44.3702 17.0106
L44.3226 17.0582
" />
<path d="M44.3226 17.0582
L44.2273 17.1059
" />
<path d="M44.2273 17.1059
L44.0845 17.1059
" />
<path d="M44.0845 17.1059
L43.9892 17.0582
" />
<path d="M44.4178 16.7249
L44.3226 16.7725
" />
<path d="M44.3226 16.7725
L44.1321 16.7725
" />
<path d="M44.1321 16.7725
L44.0368 16.7249
" />
<path d="M44.0368 16.7249
L43.9892 16.6773
" />
<path d="M43.9892 16.6773
L43.9416 16.5820
" />
<path d="M43.9416 16.5820
L43.9416 16.2963
" />
<path d="M43.9416 16.2963
L43.9892 16.2011
" />
<path d="M43.9892 16.2011
L44.0368 16.1535
" />
<path d="M44.0368 16.1535
L44.1321 16.1059
" />
<path d="M44.1321 16.1059
L44.3226 16.1059
" />
<path d="M44.3226 16.1059
L44.4178 16.1535
" />
<path d="M45.2749 16.7249
L45.1797 16.7725
" />
<path d="M45.1797 16.7725
L44.9892 16.7725
" />
<path d="M44.9892 16.7725
L44.8940 16.7249
" />
<path d="M44.8940 16.7249
L44.8464 16.6297
" />
<path d="M44.8464 16.6297
L44.8464 16.2487
" />
<path d="M44.8464 16.2487
L44.8940 16.1535
" />
<path d="M44.8940 16.1535
L44.9892 16.1059
" />
<path d="M44.9892 16.1059
L45.1797 16.1059
" />
<path d="M45.1797 16.1059
L45.2749 16.1535
" />
<path d="M45.2749 16.1535
L45.3226 16.2487
" />
<path d="M45.3226 16.2487
L45.3226 16.3439
" />
<path d="M45.3226 16.3439
L44.8464 16.4392
" />
</g><text x="41.4464" y="19.8177"
textLength="8.7738" font-size="1.3333" lengthAdjust="spacingAndGlyphs"
text-anchor="middle" opacity="0">Panel Edge</text>
<g class="stroked-text"><desc>Panel Edge</desc>
<path d="M37.4226 19.7725
L37.4226 18.7725
" />
<path d="M37.4226 18.7725
L37.8035 18.7725
" />
<path d="M37.8035 18.7725
L37.8987 18.8201
" />
<path d="M37.8987 18.8201
L37.9464 18.8678
" />
<path d="M37.9464 18.8678
L37.9940 18.9630
" />
<path d="M37.9940 18.9630
L37.9940 19.1059
" />
<path d="M37.9940 19.1059
L37.9464 19.2011
" />
<path d="M37.9464 19.2011
L37.8987 19.2487
" />
<path d="M37.8987 19.2487
L37.8035 19.2963
" />
<path d="M37.8035 19.2963
L37.4226 19.2963
" />
<path d="M38.8511 19.7725
L38.8511 19.2487
" />
<path d="M38.8511 19.2487
L38.8035 19.1535
" />
<path d="M38.8035 19.1535
L38.7083 19.1059
" />
<path d="M38.7083 19.1059
L38.5178 19.1059
" />
<path d="M38.5178 19.1059
L38.4226 19.1535
" />
<path d="M38.8511 19.7249
L38.7559 19.7725
" />
<path d="M38.7559 19.7725
L38.5178 19.7725
" />
<path d="M38.5178 19.7725
L38.4226 19.7249
" />
<path d="M38.4226 19.7249
L38.3749 19.6297
" />
<path d="M38.3749 19.6297
L38.3749 19.5344
" />
<path d="M38.3749 19.5344
L38.4226 19.4392
" />
<path d="M38.4226 19.4392
L38.5178 19.3916
" />
<path d="M38.5178 19.3916
L38.7559 19.3916
" />
<path d="M38.7559 19.3916
L38.8511 19.3439
" />
<path d="M39.3273 19.1059
L39.3273 19.7725
" />
<path d="M39.3273 19.2011
L39.3749 19.1535
" />
<path d="M39.3749 19.1535
L39.4702 19.1059
" />
<path d="M39.4702 19.1059
L39.6130 19.1059
" />
<path d="M39.6130 19.1059
L39.7083 19.1535
" />
<path d="M39.7083 19.1535
L39.7559 19.2487
" />
<path d="M39.7559 19.2487
L39.7559 19.7725
" />
<path d="M40.6130 19.7249
L40.5178 19.7725
" />
<path d="M40.5178 19.7725
L40.3273 19.7725
" />
<path d="M40.3273 19.7725
L40.2321 19.7249
" />
<path d="M40.2321 19.7249
L40.1845 19.6297
" />
<path d="M40.1845 19.6297
L40.1845 19.2487
" />
<path d="M40.1845 19.2487
L40.2321 19.1535
" />
<path d="M40.2321 19.1535
L40.3273 19.1059
" />
<path d="M40.3273 19.1059
L40.5178 19.1059
" />
<path d="M40.5178 19.1059
L40.6130 19.1535
" />
<path d="M40.6130 19.1535
L40.6606 19.2487
" />
<path d="M40.6606 19.2487
L40.6606 19.3439
" />
<path d="M40.6606 19.3439
L40.1845 19.4392
" />
<path d="M41.2321 19.7725
L41.1368 19.7249
" />
<path d="M41.1368 19.7249
L41.0892 19.6297
" />
<path d="M41.0892 19.6297
L41.0892 18.7725
" />
<path d="M42.3749 19.2487
L42.7083 19.2487
" />
<path d="M42.8511 19.7725
L42.3749 19.7725
" />
<path d="M42.3749 19.7725
L42.3749 18.7725
" />
<path d="M42.3749 18.7725
L42.8511 18.7725
" />
<path d="M43.7083 19.7725
L43.7083 18.7725
" />
<path d="M43.7083 19.7249
L43.6130 19.7725
" />
<path d="M43.6130 19.7725
L43.4226 19.7725
" />
<path d="M43.4226 19.7725
L43.3273 19.7249
" />
<path d="M43.3273 19.7249
L43.2797 19.6773
" />
<path d="M43.2797 19.6773
L43.2321 19.5820
" />
<path d="M43.2321 19.5820
L43.2321 19.2963
" />
<path d="M43.2321 19.2963
L43.2797 19.2011
" />
<path d="M43.2797 19.2011
L43.3273 19.1535
" />
<path d="M43.3273 19.1535
L43.4226 19.1059
" />
<path d="M43.4226 19.1059
L43.6130 19.1059
" />
<path d="M43.6130 19.1059
L43.7083 19.1535
" />
<path d="M44.6130 19.1059
L44.6130 19.9154
" />
<path d="M44.6130 19.9154
L44.5654 20.0106
" />
<path d="M44.5654 20.0106
L44.5178 20.0582
" />
<path d="M44.5178 20.0582
L44.4226 20.1059
" />
<path d="M44.4226 20.1059
L44.2797 20.1059
" />
<path d="M44.2797 20.1059
L44.1845 20.0582
" />
<path d="M44.6130 19.7249
L44.5178 19.7725
" />
<path d="M44.5178 19.7725
L44.3273 19.7725
" />
<path d="M44.3273 19.7725
L44.2321 19.7249
" />
<path d="M44.2321 19.7249
L44.1845 19.6773
" />
<path d="M44.1845 19.6773
L44.1368 19.5820
" />
<path d="M44.1368 19.5820
L44.1368 19.2963
" />
<path d="M44.1368 19.2963
L44.1845 19.2011
" />
<path d="M44.1845 19.2011
L44.2321 19.1535
" />
<path d="M44.2321 19.1535
L44.3273 19.1059
" />
<path d="M44.3273 19.1059
L44.5178 19.1059
" />
<path d="M44.5178 19.1059
L44.6130 19.1535
" />
<path d="M45.4702 19.7249
L45.3749 19.7725
" />
<path d="M45.3749 19.7725
L45.1845 19.7725
" />
<path d="M45.1845 19.7725
L45.0892 19.7249
" />
<path d="M45.0892 19.7249
L45.0416 19.6297
" />
<path d="M45.0416 19.6297
L45.0416 19.2487
" />
<path d="M45.0416 19.2487
L45.0892 19.1535
" />
<path d="M45.0892 19.1535
L45.1845 19.1059
" />
<path d="M45.1845 19.1059
L45.3749 19.1059
" />
<path d="M45.3749 19.1059
L45.4702 19.1535
" />
<path d="M45.4702 19.1535
L45.5178 19.2487
" />
<path d="M45.5178 19.2487
L45.5178 19.3439
" />
<path d="M45.5178 19.3439
L45.0416 19.4392
" />
</g></g> 
</svg>
