<?xml version="1.0" standalone="no"?>
 <!DOCTYPE svg PUBLIC "-//W3C//DTD SVG 1.1//EN" 
 "http://www.w3.org/Graphics/SVG/1.1/DTD/svg11.dtd"> 
<svg
  xmlns:svg="http://www.w3.org/2000/svg"
  xmlns="http://www.w3.org/2000/svg"
  xmlns:xlink="http://www.w3.org/1999/xlink"
  version="1.1"
  width="43.1292mm" height="26.1874mm" viewBox="0.0000 0.0000 43.1292 26.1874">
<title>SVG Image created as working-brd.svg date 2024/04/18 09:03:28 </title>
  <desc>Image generated by PCBNEW </desc>
<g style="fill:#000000; fill-opacity:1.0000;stroke:#000000; stroke-opacity:1.0000;
stroke-linecap:round; stroke-linejoin:round;"
 transform="translate(0 0) scale(1 1)">
</g>
<g style="fill:#FFFFFF; fill-opacity:1.0000; stroke:none;">
<circle cx="23.1850" cy="18.7650" r="0.5000" /> 
</g>
<g style="fill:#FFFFFF; fill-opacity:1.0000; stroke:none;">
<circle cx="23.1850" cy="22.6650" r="0.5000" /> 
</g>
<g style="fill:#FFFFFF; fill-opacity:1.0000; stroke:none;">
<circle cx="2.4250" cy="2.3650" r="0.5000" /> 
</g>
<g style="fill:#FFFFFF; fill-opacity:1.0000; stroke:none;">
<circle cx="2.4250" cy="13.7950" r="0.5000" /> 
</g>
<g style="fill:#FFFFFF; fill-opacity:1.0000; stroke:none;">
<circle cx="2.4250" cy="23.9550" r="0.5000" /> 
<path style="fill:#02FFEE; fill-opacity:0.4000; stroke:none;fill-rule:evenodd;"
d="M 22.1850,17.7650
24.1850,17.7650
24.1850,19.7650
22.1850,19.7650
Z" /> 
</g>
<g style="fill:#02FFEE; fill-opacity:0.4000; stroke:none;">
<circle cx="23.1850" cy="22.6650" r="1.0000" /> 
</g>
<g style="fill:#02FFEE; fill-opacity:0.4000; stroke:none;">
<circle cx="2.4250" cy="2.3650" r="1.0000" /> 
</g>
<g style="fill:#02FFEE; fill-opacity:0.4000; stroke:none;">
<circle cx="2.4250" cy="13.7950" r="1.0000" /> 
</g>
<g style="fill:#02FFEE; fill-opacity:0.4000; stroke:none;">
<circle cx="2.4250" cy="23.9550" r="1.0000" /> 
</g>
<g style="fill:#FFFFFF; fill-opacity:1.0000; stroke:none;">
<circle cx="23.1850" cy="18.7650" r="0.5000" /> 
</g>
<g style="fill:#FFFFFF; fill-opacity:1.0000; stroke:none;">
<circle cx="23.1850" cy="22.6650" r="0.5000" /> 
</g>
<g style="fill:#FFFFFF; fill-opacity:1.0000; stroke:none;">
<circle cx="2.4250" cy="2.3650" r="0.5000" /> 
</g>
<g style="fill:#FFFFFF; fill-opacity:1.0000; stroke:none;">
<circle cx="2.4250" cy="13.7950" r="0.5000" /> 
</g>
<g style="fill:#FFFFFF; fill-opacity:1.0000; stroke:none;">
<circle cx="2.4250" cy="23.9550" r="0.5000" /> 
</g>
<g style="fill:#FFFFFF; fill-opacity:1.0000; stroke:none;">
<circle cx="23.1850" cy="18.7650" r="0.5000" /> 
</g>
<g style="fill:#FFFFFF; fill-opacity:1.0000; stroke:none;">
<circle cx="23.1850" cy="22.6650" r="0.5000" /> 
</g>
<g style="fill:#FFFFFF; fill-opacity:1.0000; stroke:none;">
<circle cx="2.4250" cy="2.3650" r="0.5000" /> 
</g>
<g style="fill:#FFFFFF; fill-opacity:1.0000; stroke:none;">
<circle cx="2.4250" cy="13.7950" r="0.5000" /> 
</g>
<g style="fill:#FFFFFF; fill-opacity:1.0000; stroke:none;">
<circle cx="2.4250" cy="23.9550" r="0.5000" /> 
<path style="fill:#D864FF; fill-opacity:0.4000; stroke:none;fill-rule:evenodd;"
d="M 22.1850,17.7650
24.1850,17.7650
24.1850,19.7650
22.1850,19.7650
Z" /> 
</g>
<g style="fill:#D864FF; fill-opacity:0.4000; stroke:none;">
<circle cx="23.1850" cy="22.6650" r="1.0000" /> 
</g>
<g style="fill:#D864FF; fill-opacity:0.4000; stroke:none;">
<circle cx="2.4250" cy="2.3650" r="1.0000" /> 
</g>
<g style="fill:#D864FF; fill-opacity:0.4000; stroke:none;">
<circle cx="2.4250" cy="13.7950" r="1.0000" /> 
</g>
<g style="fill:#D864FF; fill-opacity:0.4000; stroke:none;">
<circle cx="2.4250" cy="23.9550" r="1.0000" /> 
</g>
<g style="fill:none; 
stroke:#F2EDA1; stroke-width:0.1588; stroke-opacity:1; 
stroke-linecap:round; stroke-linejoin:round;">
<text x="23.1850" y="19.4000"
textLength="5.6651" font-size="1.6933" lengthAdjust="spacingAndGlyphs"
text-anchor="middle" opacity="0">REF**</text>
<g class="stroked-text"><desc>REF**</desc>
<path d="M21.4917 19.3443
L21.0683 18.7395
" />
<path d="M20.7660 19.3443
L20.7660 18.0743
" />
<path d="M20.7660 18.0743
L21.2498 18.0743
" />
<path d="M21.2498 18.0743
L21.3707 18.1347
" />
<path d="M21.3707 18.1347
L21.4312 18.1952
" />
<path d="M21.4312 18.1952
L21.4917 18.3162
" />
<path d="M21.4917 18.3162
L21.4917 18.4976
" />
<path d="M21.4917 18.4976
L21.4312 18.6186
" />
<path d="M21.4312 18.6186
L21.3707 18.6790
" />
<path d="M21.3707 18.6790
L21.2498 18.7395
" />
<path d="M21.2498 18.7395
L20.7660 18.7395
" />
<path d="M22.0360 18.6790
L22.4593 18.6790
" />
<path d="M22.6407 19.3443
L22.0360 19.3443
" />
<path d="M22.0360 19.3443
L22.0360 18.0743
" />
<path d="M22.0360 18.0743
L22.6407 18.0743
" />
<path d="M23.6083 18.6790
L23.1850 18.6790
" />
<path d="M23.1850 19.3443
L23.1850 18.0743
" />
<path d="M23.1850 18.0743
L23.7898 18.0743
" />
<path d="M24.4550 18.0743
L24.4550 18.3767
" />
<path d="M24.1526 18.2557
L24.4550 18.3767
" />
<path d="M24.4550 18.3767
L24.7574 18.2557
" />
<path d="M24.2736 18.6186
L24.4550 18.3767
" />
<path d="M24.4550 18.3767
L24.6364 18.6186
" />
<path d="M25.4226 18.0743
L25.4226 18.3767
" />
<path d="M25.1202 18.2557
L25.4226 18.3767
" />
<path d="M25.4226 18.3767
L25.7250 18.2557
" />
<path d="M25.2412 18.6186
L25.4226 18.3767
" />
<path d="M25.4226 18.3767
L25.6040 18.6186
" />
</g></g>
<g style="fill:none; 
stroke:#F2EDA1; stroke-width:0.1200; stroke-opacity:1; 
stroke-linecap:round; stroke-linejoin:round;">
<path d="M0.2750 0.2750
L0.2750 25.9150
" />
<path d="M26.0050 0.2750
L0.2750 0.2750
" />
<path d="M26.0050 25.9150
L0.2750 25.9150
" />
<path d="M26.0050 25.9150
L26.0050 0.2750
" />
<path d="M26.3050 19.7650
L26.3050 17.7650
" />
</g>
<g style="fill:#FFFFFF; fill-opacity:1.0000; stroke:none;">
<circle cx="23.1850" cy="18.7650" r="0.5000" /> 
</g>
<g style="fill:#FFFFFF; fill-opacity:1.0000; stroke:none;">
<circle cx="23.1850" cy="22.6650" r="0.5000" /> 
</g>
<g style="fill:#FFFFFF; fill-opacity:1.0000; stroke:none;">
<circle cx="2.4250" cy="2.3650" r="0.5000" /> 
</g>
<g style="fill:#FFFFFF; fill-opacity:1.0000; stroke:none;">
<circle cx="2.4250" cy="13.7950" r="0.5000" /> 
</g>
<g style="fill:#FFFFFF; fill-opacity:1.0000; stroke:none;">
<circle cx="2.4250" cy="23.9550" r="0.5000" /> 
</g>
<g style="fill:none; 
stroke:#FF26E2; stroke-width:0.0500; stroke-opacity:1; 
stroke-linecap:round; stroke-linejoin:round;">
<path d="M0.0250 0.0250
L0.0250 26.1650
" />
<path d="M0.0250 26.1650
L26.2550 26.1650
" />
<path d="M26.2550 0.0250
L0.0250 0.0250
" />
<path d="M26.2550 0.0250
L26.2550 26.1650
" />
</g>
<g style="fill:none; 
stroke:#AFAFAF; stroke-width:0.1588; stroke-opacity:1; 
stroke-linecap:round; stroke-linejoin:round;">
<text x="23.1850" y="19.4000"
textLength="39.8946" font-size="1.6933" lengthAdjust="spacingAndGlyphs"
text-anchor="middle" opacity="0">Converter_ACDC_RECOM_RAC05-xxSK_THT</text>
<g class="stroked-text"><desc>Converter_ACDC_RECOM_RAC05-xxSK_THT</desc>
<path d="M4.3769 19.2233
L4.3164 19.2838
" />
<path d="M4.3164 19.2838
L4.1350 19.3443
" />
<path d="M4.1350 19.3443
L4.0141 19.3443
" />
<path d="M4.0141 19.3443
L3.8326 19.2838
" />
<path d="M3.8326 19.2838
L3.7117 19.1628
" />
<path d="M3.7117 19.1628
L3.6512 19.0419
" />
<path d="M3.6512 19.0419
L3.5907 18.8000
" />
<path d="M3.5907 18.8000
L3.5907 18.6186
" />
<path d="M3.5907 18.6186
L3.6512 18.3767
" />
<path d="M3.6512 18.3767
L3.7117 18.2557
" />
<path d="M3.7117 18.2557
L3.8326 18.1347
" />
<path d="M3.8326 18.1347
L4.0141 18.0743
" />
<path d="M4.0141 18.0743
L4.1350 18.0743
" />
<path d="M4.1350 18.0743
L4.3164 18.1347
" />
<path d="M4.3164 18.1347
L4.3769 18.1952
" />
<path d="M5.1026 19.3443
L4.9817 19.2838
" />
<path d="M4.9817 19.2838
L4.9212 19.2233
" />
<path d="M4.9212 19.2233
L4.8607 19.1024
" />
<path d="M4.8607 19.1024
L4.8607 18.7395
" />
<path d="M4.8607 18.7395
L4.9212 18.6186
" />
<path d="M4.9212 18.6186
L4.9817 18.5581
" />
<path d="M4.9817 18.5581
L5.1026 18.4976
" />
<path d="M5.1026 18.4976
L5.2840 18.4976
" />
<path d="M5.2840 18.4976
L5.4050 18.5581
" />
<path d="M5.4050 18.5581
L5.4655 18.6186
" />
<path d="M5.4655 18.6186
L5.5260 18.7395
" />
<path d="M5.5260 18.7395
L5.5260 19.1024
" />
<path d="M5.5260 19.1024
L5.4655 19.2233
" />
<path d="M5.4655 19.2233
L5.4050 19.2838
" />
<path d="M5.4050 19.2838
L5.2840 19.3443
" />
<path d="M5.2840 19.3443
L5.1026 19.3443
" />
<path d="M6.0702 18.4976
L6.0702 19.3443
" />
<path d="M6.0702 18.6186
L6.1307 18.5581
" />
<path d="M6.1307 18.5581
L6.2517 18.4976
" />
<path d="M6.2517 18.4976
L6.4331 18.4976
" />
<path d="M6.4331 18.4976
L6.5540 18.5581
" />
<path d="M6.5540 18.5581
L6.6145 18.6790
" />
<path d="M6.6145 18.6790
L6.6145 19.3443
" />
<path d="M7.0983 18.4976
L7.4007 19.3443
" />
<path d="M7.4007 19.3443
L7.7031 18.4976
" />
<path d="M8.6707 19.2838
L8.5498 19.3443
" />
<path d="M8.5498 19.3443
L8.3079 19.3443
" />
<path d="M8.3079 19.3443
L8.1869 19.2838
" />
<path d="M8.1869 19.2838
L8.1264 19.1628
" />
<path d="M8.1264 19.1628
L8.1264 18.6790
" />
<path d="M8.1264 18.6790
L8.1869 18.5581
" />
<path d="M8.1869 18.5581
L8.3079 18.4976
" />
<path d="M8.3079 18.4976
L8.5498 18.4976
" />
<path d="M8.5498 18.4976
L8.6707 18.5581
" />
<path d="M8.6707 18.5581
L8.7312 18.6790
" />
<path d="M8.7312 18.6790
L8.7312 18.8000
" />
<path d="M8.7312 18.8000
L8.1264 18.9209
" />
<path d="M9.2755 19.3443
L9.2755 18.4976
" />
<path d="M9.2755 18.7395
L9.3360 18.6186
" />
<path d="M9.3360 18.6186
L9.3964 18.5581
" />
<path d="M9.3964 18.5581
L9.5174 18.4976
" />
<path d="M9.5174 18.4976
L9.6383 18.4976
" />
<path d="M9.8802 18.4976
L10.3640 18.4976
" />
<path d="M10.0617 18.0743
L10.0617 19.1628
" />
<path d="M10.0617 19.1628
L10.1221 19.2838
" />
<path d="M10.1221 19.2838
L10.2431 19.3443
" />
<path d="M10.2431 19.3443
L10.3640 19.3443
" />
<path d="M11.2712 19.2838
L11.1502 19.3443
" />
<path d="M11.1502 19.3443
L10.9083 19.3443
" />
<path d="M10.9083 19.3443
L10.7874 19.2838
" />
<path d="M10.7874 19.2838
L10.7269 19.1628
" />
<path d="M10.7269 19.1628
L10.7269 18.6790
" />
<path d="M10.7269 18.6790
L10.7874 18.5581
" />
<path d="M10.7874 18.5581
L10.9083 18.4976
" />
<path d="M10.9083 18.4976
L11.1502 18.4976
" />
<path d="M11.1502 18.4976
L11.2712 18.5581
" />
<path d="M11.2712 18.5581
L11.3317 18.6790
" />
<path d="M11.3317 18.6790
L11.3317 18.8000
" />
<path d="M11.3317 18.8000
L10.7269 18.9209
" />
<path d="M11.8760 19.3443
L11.8760 18.4976
" />
<path d="M11.8760 18.7395
L11.9364 18.6186
" />
<path d="M11.9364 18.6186
L11.9969 18.5581
" />
<path d="M11.9969 18.5581
L12.1179 18.4976
" />
<path d="M12.1179 18.4976
L12.2388 18.4976
" />
<path d="M12.3598 19.4652
L13.3274 19.4652
" />
<path d="M13.5693 18.9814
L14.1740 18.9814
" />
<path d="M13.4483 19.3443
L13.8717 18.0743
" />
<path d="M13.8717 18.0743
L14.2950 19.3443
" />
<path d="M15.4440 19.2233
L15.3836 19.2838
" />
<path d="M15.3836 19.2838
L15.2021 19.3443
" />
<path d="M15.2021 19.3443
L15.0812 19.3443
" />
<path d="M15.0812 19.3443
L14.8998 19.2838
" />
<path d="M14.8998 19.2838
L14.7788 19.1628
" />
<path d="M14.7788 19.1628
L14.7183 19.0419
" />
<path d="M14.7183 19.0419
L14.6579 18.8000
" />
<path d="M14.6579 18.8000
L14.6579 18.6186
" />
<path d="M14.6579 18.6186
L14.7183 18.3767
" />
<path d="M14.7183 18.3767
L14.7788 18.2557
" />
<path d="M14.7788 18.2557
L14.8998 18.1347
" />
<path d="M14.8998 18.1347
L15.0812 18.0743
" />
<path d="M15.0812 18.0743
L15.2021 18.0743
" />
<path d="M15.2021 18.0743
L15.3836 18.1347
" />
<path d="M15.3836 18.1347
L15.4440 18.1952
" />
<path d="M15.9883 19.3443
L15.9883 18.0743
" />
<path d="M15.9883 18.0743
L16.2907 18.0743
" />
<path d="M16.2907 18.0743
L16.4721 18.1347
" />
<path d="M16.4721 18.1347
L16.5931 18.2557
" />
<path d="M16.5931 18.2557
L16.6536 18.3767
" />
<path d="M16.6536 18.3767
L16.7140 18.6186
" />
<path d="M16.7140 18.6186
L16.7140 18.8000
" />
<path d="M16.7140 18.8000
L16.6536 19.0419
" />
<path d="M16.6536 19.0419
L16.5931 19.1628
" />
<path d="M16.5931 19.1628
L16.4721 19.2838
" />
<path d="M16.4721 19.2838
L16.2907 19.3443
" />
<path d="M16.2907 19.3443
L15.9883 19.3443
" />
<path d="M17.9840 19.2233
L17.9236 19.2838
" />
<path d="M17.9236 19.2838
L17.7421 19.3443
" />
<path d="M17.7421 19.3443
L17.6212 19.3443
" />
<path d="M17.6212 19.3443
L17.4398 19.2838
" />
<path d="M17.4398 19.2838
L17.3188 19.1628
" />
<path d="M17.3188 19.1628
L17.2583 19.0419
" />
<path d="M17.2583 19.0419
L17.1979 18.8000
" />
<path d="M17.1979 18.8000
L17.1979 18.6186
" />
<path d="M17.1979 18.6186
L17.2583 18.3767
" />
<path d="M17.2583 18.3767
L17.3188 18.2557
" />
<path d="M17.3188 18.2557
L17.4398 18.1347
" />
<path d="M17.4398 18.1347
L17.6212 18.0743
" />
<path d="M17.6212 18.0743
L17.7421 18.0743
" />
<path d="M17.7421 18.0743
L17.9236 18.1347
" />
<path d="M17.9236 18.1347
L17.9840 18.1952
" />
<path d="M18.2260 19.4652
L19.1936 19.4652
" />
<path d="M20.2217 19.3443
L19.7983 18.7395
" />
<path d="M19.4960 19.3443
L19.4960 18.0743
" />
<path d="M19.4960 18.0743
L19.9798 18.0743
" />
<path d="M19.9798 18.0743
L20.1007 18.1347
" />
<path d="M20.1007 18.1347
L20.1612 18.1952
" />
<path d="M20.1612 18.1952
L20.2217 18.3162
" />
<path d="M20.2217 18.3162
L20.2217 18.4976
" />
<path d="M20.2217 18.4976
L20.1612 18.6186
" />
<path d="M20.1612 18.6186
L20.1007 18.6790
" />
<path d="M20.1007 18.6790
L19.9798 18.7395
" />
<path d="M19.9798 18.7395
L19.4960 18.7395
" />
<path d="M20.7660 18.6790
L21.1893 18.6790
" />
<path d="M21.3707 19.3443
L20.7660 19.3443
" />
<path d="M20.7660 19.3443
L20.7660 18.0743
" />
<path d="M20.7660 18.0743
L21.3707 18.0743
" />
<path d="M22.6407 19.2233
L22.5802 19.2838
" />
<path d="M22.5802 19.2838
L22.3988 19.3443
" />
<path d="M22.3988 19.3443
L22.2779 19.3443
" />
<path d="M22.2779 19.3443
L22.0964 19.2838
" />
<path d="M22.0964 19.2838
L21.9755 19.1628
" />
<path d="M21.9755 19.1628
L21.9150 19.0419
" />
<path d="M21.9150 19.0419
L21.8545 18.8000
" />
<path d="M21.8545 18.8000
L21.8545 18.6186
" />
<path d="M21.8545 18.6186
L21.9150 18.3767
" />
<path d="M21.9150 18.3767
L21.9755 18.2557
" />
<path d="M21.9755 18.2557
L22.0964 18.1347
" />
<path d="M22.0964 18.1347
L22.2779 18.0743
" />
<path d="M22.2779 18.0743
L22.3988 18.0743
" />
<path d="M22.3988 18.0743
L22.5802 18.1347
" />
<path d="M22.5802 18.1347
L22.6407 18.1952
" />
<path d="M23.4269 18.0743
L23.6688 18.0743
" />
<path d="M23.6688 18.0743
L23.7898 18.1347
" />
<path d="M23.7898 18.1347
L23.9107 18.2557
" />
<path d="M23.9107 18.2557
L23.9712 18.4976
" />
<path d="M23.9712 18.4976
L23.9712 18.9209
" />
<path d="M23.9712 18.9209
L23.9107 19.1628
" />
<path d="M23.9107 19.1628
L23.7898 19.2838
" />
<path d="M23.7898 19.2838
L23.6688 19.3443
" />
<path d="M23.6688 19.3443
L23.4269 19.3443
" />
<path d="M23.4269 19.3443
L23.3060 19.2838
" />
<path d="M23.3060 19.2838
L23.1850 19.1628
" />
<path d="M23.1850 19.1628
L23.1245 18.9209
" />
<path d="M23.1245 18.9209
L23.1245 18.4976
" />
<path d="M23.1245 18.4976
L23.1850 18.2557
" />
<path d="M23.1850 18.2557
L23.3060 18.1347
" />
<path d="M23.3060 18.1347
L23.4269 18.0743
" />
<path d="M24.5155 19.3443
L24.5155 18.0743
" />
<path d="M24.5155 18.0743
L24.9388 18.9814
" />
<path d="M24.9388 18.9814
L25.3621 18.0743
" />
<path d="M25.3621 18.0743
L25.3621 19.3443
" />
<path d="M25.6645 19.4652
L26.6321 19.4652
" />
<path d="M27.6602 19.3443
L27.2369 18.7395
" />
<path d="M26.9345 19.3443
L26.9345 18.0743
" />
<path d="M26.9345 18.0743
L27.4183 18.0743
" />
<path d="M27.4183 18.0743
L27.5393 18.1347
" />
<path d="M27.5393 18.1347
L27.5998 18.1952
" />
<path d="M27.5998 18.1952
L27.6602 18.3162
" />
<path d="M27.6602 18.3162
L27.6602 18.4976
" />
<path d="M27.6602 18.4976
L27.5998 18.6186
" />
<path d="M27.5998 18.6186
L27.5393 18.6790
" />
<path d="M27.5393 18.6790
L27.4183 18.7395
" />
<path d="M27.4183 18.7395
L26.9345 18.7395
" />
<path d="M28.1440 18.9814
L28.7488 18.9814
" />
<path d="M28.0231 19.3443
L28.4464 18.0743
" />
<path d="M28.4464 18.0743
L28.8698 19.3443
" />
<path d="M30.0188 19.2233
L29.9583 19.2838
" />
<path d="M29.9583 19.2838
L29.7769 19.3443
" />
<path d="M29.7769 19.3443
L29.6560 19.3443
" />
<path d="M29.6560 19.3443
L29.4745 19.2838
" />
<path d="M29.4745 19.2838
L29.3536 19.1628
" />
<path d="M29.3536 19.1628
L29.2931 19.0419
" />
<path d="M29.2931 19.0419
L29.2326 18.8000
" />
<path d="M29.2326 18.8000
L29.2326 18.6186
" />
<path d="M29.2326 18.6186
L29.2931 18.3767
" />
<path d="M29.2931 18.3767
L29.3536 18.2557
" />
<path d="M29.3536 18.2557
L29.4745 18.1347
" />
<path d="M29.4745 18.1347
L29.6560 18.0743
" />
<path d="M29.6560 18.0743
L29.7769 18.0743
" />
<path d="M29.7769 18.0743
L29.9583 18.1347
" />
<path d="M29.9583 18.1347
L30.0188 18.1952
" />
<path d="M30.8050 18.0743
L30.9260 18.0743
" />
<path d="M30.9260 18.0743
L31.0469 18.1347
" />
<path d="M31.0469 18.1347
L31.1074 18.1952
" />
<path d="M31.1074 18.1952
L31.1679 18.3162
" />
<path d="M31.1679 18.3162
L31.2283 18.5581
" />
<path d="M31.2283 18.5581
L31.2283 18.8605
" />
<path d="M31.2283 18.8605
L31.1679 19.1024
" />
<path d="M31.1679 19.1024
L31.1074 19.2233
" />
<path d="M31.1074 19.2233
L31.0469 19.2838
" />
<path d="M31.0469 19.2838
L30.9260 19.3443
" />
<path d="M30.9260 19.3443
L30.8050 19.3443
" />
<path d="M30.8050 19.3443
L30.6840 19.2838
" />
<path d="M30.6840 19.2838
L30.6236 19.2233
" />
<path d="M30.6236 19.2233
L30.5631 19.1024
" />
<path d="M30.5631 19.1024
L30.5026 18.8605
" />
<path d="M30.5026 18.8605
L30.5026 18.5581
" />
<path d="M30.5026 18.5581
L30.5631 18.3162
" />
<path d="M30.5631 18.3162
L30.6236 18.1952
" />
<path d="M30.6236 18.1952
L30.6840 18.1347
" />
<path d="M30.6840 18.1347
L30.8050 18.0743
" />
<path d="M32.3774 18.0743
L31.7726 18.0743
" />
<path d="M31.7726 18.0743
L31.7121 18.6790
" />
<path d="M31.7121 18.6790
L31.7726 18.6186
" />
<path d="M31.7726 18.6186
L31.8936 18.5581
" />
<path d="M31.8936 18.5581
L32.1960 18.5581
" />
<path d="M32.1960 18.5581
L32.3169 18.6186
" />
<path d="M32.3169 18.6186
L32.3774 18.6790
" />
<path d="M32.3774 18.6790
L32.4379 18.8000
" />
<path d="M32.4379 18.8000
L32.4379 19.1024
" />
<path d="M32.4379 19.1024
L32.3774 19.2233
" />
<path d="M32.3774 19.2233
L32.3169 19.2838
" />
<path d="M32.3169 19.2838
L32.1960 19.3443
" />
<path d="M32.1960 19.3443
L31.8936 19.3443
" />
<path d="M31.8936 19.3443
L31.7726 19.2838
" />
<path d="M31.7726 19.2838
L31.7121 19.2233
" />
<path d="M32.9821 18.8605
L33.9498 18.8605
" />
<path d="M34.4336 19.3443
L35.0988 18.4976
" />
<path d="M34.4336 18.4976
L35.0988 19.3443
" />
<path d="M35.4617 19.3443
L36.1269 18.4976
" />
<path d="M35.4617 18.4976
L36.1269 19.3443
" />
<path d="M36.5502 19.2838
L36.7317 19.3443
" />
<path d="M36.7317 19.3443
L37.0340 19.3443
" />
<path d="M37.0340 19.3443
L37.1550 19.2838
" />
<path d="M37.1550 19.2838
L37.2155 19.2233
" />
<path d="M37.2155 19.2233
L37.2760 19.1024
" />
<path d="M37.2760 19.1024
L37.2760 18.9814
" />
<path d="M37.2760 18.9814
L37.2155 18.8605
" />
<path d="M37.2155 18.8605
L37.1550 18.8000
" />
<path d="M37.1550 18.8000
L37.0340 18.7395
" />
<path d="M37.0340 18.7395
L36.7921 18.6790
" />
<path d="M36.7921 18.6790
L36.6712 18.6186
" />
<path d="M36.6712 18.6186
L36.6107 18.5581
" />
<path d="M36.6107 18.5581
L36.5502 18.4371
" />
<path d="M36.5502 18.4371
L36.5502 18.3162
" />
<path d="M36.5502 18.3162
L36.6107 18.1952
" />
<path d="M36.6107 18.1952
L36.6712 18.1347
" />
<path d="M36.6712 18.1347
L36.7921 18.0743
" />
<path d="M36.7921 18.0743
L37.0945 18.0743
" />
<path d="M37.0945 18.0743
L37.2760 18.1347
" />
<path d="M37.8202 19.3443
L37.8202 18.0743
" />
<path d="M38.5460 19.3443
L38.0017 18.6186
" />
<path d="M38.5460 18.0743
L37.8202 18.8000
" />
<path d="M38.7879 19.4652
L39.7555 19.4652
" />
<path d="M39.8764 18.0743
L40.6021 18.0743
" />
<path d="M40.2393 19.3443
L40.2393 18.0743
" />
<path d="M41.0255 19.3443
L41.0255 18.0743
" />
<path d="M41.0255 18.6790
L41.7512 18.6790
" />
<path d="M41.7512 19.3443
L41.7512 18.0743
" />
<path d="M42.1745 18.0743
L42.9002 18.0743
" />
<path d="M42.5374 19.3443
L42.5374 18.0743
" />
</g></g>
<g style="fill:none; 
stroke:#AFAFAF; stroke-width:0.2000; stroke-opacity:1; 
stroke-linecap:round; stroke-linejoin:round;">
<g transform="rotate(-90.000000 12.5450 13.1950)">
<text x="12.5450" y="14.1950"
textLength="8.7714" font-size="2.6667" lengthAdjust="spacingAndGlyphs"
text-anchor="middle" opacity="0">REF**</text>
</g>
<g class="stroked-text"><desc>REF**</desc>
<path d="M13.4598 15.8617
L12.5075 16.5283
" />
<path d="M13.4598 17.0045
L11.4598 17.0045
" />
<path d="M11.4598 17.0045
L11.4598 16.2426
" />
<path d="M11.4598 16.2426
L11.5551 16.0521
" />
<path d="M11.5551 16.0521
L11.6503 15.9569
" />
<path d="M11.6503 15.9569
L11.8408 15.8617
" />
<path d="M11.8408 15.8617
L12.1265 15.8617
" />
<path d="M12.1265 15.8617
L12.3170 15.9569
" />
<path d="M12.3170 15.9569
L12.4122 16.0521
" />
<path d="M12.4122 16.0521
L12.5075 16.2426
" />
<path d="M12.5075 16.2426
L12.5075 17.0045
" />
<path d="M12.4122 15.0045
L12.4122 14.3379
" />
<path d="M13.4598 14.0521
L13.4598 15.0045
" />
<path d="M13.4598 15.0045
L11.4598 15.0045
" />
<path d="M11.4598 15.0045
L11.4598 14.0521
" />
<path d="M12.4122 12.5283
L12.4122 13.1950
" />
<path d="M13.4598 13.1950
L11.4598 13.1950
" />
<path d="M11.4598 13.1950
L11.4598 12.2426
" />
<path d="M11.4598 11.1950
L11.9360 11.1950
" />
<path d="M11.7456 11.6712
L11.9360 11.1950
" />
<path d="M11.9360 11.1950
L11.7456 10.7188
" />
<path d="M12.3170 11.4807
L11.9360 11.1950
" />
<path d="M11.9360 11.1950
L12.3170 10.9093
" />
<path d="M11.4598 9.6712
L11.9360 9.6712
" />
<path d="M11.7456 10.1474
L11.9360 9.6712
" />
<path d="M11.9360 9.6712
L11.7456 9.1950
" />
<path d="M12.3170 9.9569
L11.9360 9.6712
" />
<path d="M11.9360 9.6712
L12.3170 9.3855
" />
</g></g>
<g style="fill:none; 
stroke:#AFAFAF; stroke-width:0.1000; stroke-opacity:1; 
stroke-linecap:round; stroke-linejoin:round;">
<path d="M0.3950 0.3950
L0.3950 25.7950
" />
<path d="M25.8850 0.3950
L0.3950 0.3950
" />
<path d="M25.8850 17.7650
L24.8850 18.7650
" />
<path d="M25.8850 17.7650
L25.8850 0.3950
" />
<path d="M25.8850 19.7650
L24.8850 18.7650
" />
<path d="M25.8850 25.7950
L0.3950 25.7950
" />
<path d="M25.8850 25.7950
L25.8850 19.7650
" />
</g> 
</svg>
