<?xml version="1.0" standalone="no"?>
 <!DOCTYPE svg PUBLIC "-//W3C//DTD SVG 1.1//EN" 
 "http://www.w3.org/Graphics/SVG/1.1/DTD/svg11.dtd"> 
<svg
  xmlns:svg="http://www.w3.org/2000/svg"
  xmlns="http://www.w3.org/2000/svg"
  xmlns:xlink="http://www.w3.org/1999/xlink"
  version="1.1"
  width="51.6382mm" height="17.0942mm" viewBox="0.0000 0.0000 51.6382 17.0942">
<title>SVG Image created as working-brd.svg date 2024/03/27 04:49:26 </title>
  <desc>Image generated by PCBNEW </desc>
<g style="fill:#000000; fill-opacity:1.0000;stroke:#000000; stroke-opacity:1.0000;
stroke-linecap:round; stroke-linejoin:round;"
 transform="translate(0 0) scale(1 1)">
</g>
<g style="fill:#FFFFFF; fill-opacity:1.0000; stroke:none;">
<circle cx="15.5628" cy="10.7150" r="1.4250" /> 
</g>
<g style="fill:#FFFFFF; fill-opacity:1.0000; stroke:none;">
<circle cx="48.5828" cy="10.7150" r="1.4250" /> 
</g>
<g style="fill:#FFFFFF; fill-opacity:1.0000; stroke:none;">
<circle cx="20.6428" cy="13.2550" r="0.5000" /> 
</g>
<g style="fill:#FFFFFF; fill-opacity:1.0000; stroke:none;">
<circle cx="23.1828" cy="13.2550" r="0.5000" /> 
</g>
<g style="fill:#FFFFFF; fill-opacity:1.0000; stroke:none;">
<circle cx="25.7228" cy="13.2550" r="0.5000" /> 
</g>
<g style="fill:#FFFFFF; fill-opacity:1.0000; stroke:none;">
<circle cx="28.2628" cy="13.2550" r="0.5000" /> 
</g>
<g style="fill:#FFFFFF; fill-opacity:1.0000; stroke:none;">
<circle cx="30.8028" cy="13.2550" r="0.5000" /> 
</g>
<g style="fill:#FFFFFF; fill-opacity:1.0000; stroke:none;">
<circle cx="33.3428" cy="13.2550" r="0.5000" /> 
</g>
<g style="fill:#FFFFFF; fill-opacity:1.0000; stroke:none;">
<circle cx="35.8828" cy="13.2550" r="0.5000" /> 
</g>
<g style="fill:#FFFFFF; fill-opacity:1.0000; stroke:none;">
<circle cx="38.4228" cy="13.2550" r="0.5000" /> 
</g>
<g style="fill:#FFFFFF; fill-opacity:1.0000; stroke:none;">
<circle cx="40.9628" cy="13.2550" r="0.5000" /> 
</g>
<g style="fill:#FFFFFF; fill-opacity:1.0000; stroke:none;">
<circle cx="43.5028" cy="13.2550" r="0.5000" /> 
</g>
<g style="fill:#FFFFFF; fill-opacity:1.0000; stroke:none;">
<circle cx="20.6428" cy="15.7950" r="0.5000" /> 
</g>
<g style="fill:#FFFFFF; fill-opacity:1.0000; stroke:none;">
<circle cx="23.1828" cy="15.7950" r="0.5000" /> 
</g>
<g style="fill:#FFFFFF; fill-opacity:1.0000; stroke:none;">
<circle cx="25.7228" cy="15.7950" r="0.5000" /> 
</g>
<g style="fill:#FFFFFF; fill-opacity:1.0000; stroke:none;">
<circle cx="28.2628" cy="15.7950" r="0.5000" /> 
</g>
<g style="fill:#FFFFFF; fill-opacity:1.0000; stroke:none;">
<circle cx="30.8028" cy="15.7950" r="0.5000" /> 
</g>
<g style="fill:#FFFFFF; fill-opacity:1.0000; stroke:none;">
<circle cx="33.3428" cy="15.7950" r="0.5000" /> 
</g>
<g style="fill:#FFFFFF; fill-opacity:1.0000; stroke:none;">
<circle cx="35.8828" cy="15.7950" r="0.5000" /> 
</g>
<g style="fill:#FFFFFF; fill-opacity:1.0000; stroke:none;">
<circle cx="38.4228" cy="15.7950" r="0.5000" /> 
</g>
<g style="fill:#FFFFFF; fill-opacity:1.0000; stroke:none;">
<circle cx="40.9628" cy="15.7950" r="0.5000" /> 
</g>
<g style="fill:#FFFFFF; fill-opacity:1.0000; stroke:none;">
<circle cx="43.5028" cy="15.7950" r="0.5000" /> 
</g>
<g style="fill:#02FFEE; fill-opacity:0.4000; stroke:none;">
<circle cx="15.5628" cy="10.7150" r="1.4250" /> 
</g>
<g style="fill:#02FFEE; fill-opacity:0.4000; stroke:none;">
<circle cx="48.5828" cy="10.7150" r="1.4250" /> 
<path style="fill:#02FFEE; fill-opacity:0.4000; stroke:none;fill-rule:evenodd;"
d="M 19.8678,12.7300
19.8868,12.6343
19.9410,12.5532
20.0221,12.4990
20.1178,12.4800
21.1678,12.4800
21.2635,12.4990
21.3446,12.5532
21.3988,12.6343
21.4178,12.7300
21.4178,13.7800
21.3988,13.8757
21.3446,13.9568
21.2635,14.0110
21.1678,14.0300
20.1178,14.0300
20.0221,14.0110
19.9410,13.9568
19.8868,13.8757
19.8678,13.7800
Z" /> 
</g>
<g style="fill:#02FFEE; fill-opacity:0.4000; stroke:none;">
<circle cx="23.1828" cy="13.2550" r="0.7750" /> 
</g>
<g style="fill:#02FFEE; fill-opacity:0.4000; stroke:none;">
<circle cx="25.7228" cy="13.2550" r="0.7750" /> 
</g>
<g style="fill:#02FFEE; fill-opacity:0.4000; stroke:none;">
<circle cx="28.2628" cy="13.2550" r="0.7750" /> 
</g>
<g style="fill:#02FFEE; fill-opacity:0.4000; stroke:none;">
<circle cx="30.8028" cy="13.2550" r="0.7750" /> 
</g>
<g style="fill:#02FFEE; fill-opacity:0.4000; stroke:none;">
<circle cx="33.3428" cy="13.2550" r="0.7750" /> 
</g>
<g style="fill:#02FFEE; fill-opacity:0.4000; stroke:none;">
<circle cx="35.8828" cy="13.2550" r="0.7750" /> 
</g>
<g style="fill:#02FFEE; fill-opacity:0.4000; stroke:none;">
<circle cx="38.4228" cy="13.2550" r="0.7750" /> 
</g>
<g style="fill:#02FFEE; fill-opacity:0.4000; stroke:none;">
<circle cx="40.9628" cy="13.2550" r="0.7750" /> 
</g>
<g style="fill:#02FFEE; fill-opacity:0.4000; stroke:none;">
<circle cx="43.5028" cy="13.2550" r="0.7750" /> 
</g>
<g style="fill:#02FFEE; fill-opacity:0.4000; stroke:none;">
<circle cx="20.6428" cy="15.7950" r="0.7750" /> 
</g>
<g style="fill:#02FFEE; fill-opacity:0.4000; stroke:none;">
<circle cx="23.1828" cy="15.7950" r="0.7750" /> 
</g>
<g style="fill:#02FFEE; fill-opacity:0.4000; stroke:none;">
<circle cx="25.7228" cy="15.7950" r="0.7750" /> 
</g>
<g style="fill:#02FFEE; fill-opacity:0.4000; stroke:none;">
<circle cx="28.2628" cy="15.7950" r="0.7750" /> 
</g>
<g style="fill:#02FFEE; fill-opacity:0.4000; stroke:none;">
<circle cx="30.8028" cy="15.7950" r="0.7750" /> 
</g>
<g style="fill:#02FFEE; fill-opacity:0.4000; stroke:none;">
<circle cx="33.3428" cy="15.7950" r="0.7750" /> 
</g>
<g style="fill:#02FFEE; fill-opacity:0.4000; stroke:none;">
<circle cx="35.8828" cy="15.7950" r="0.7750" /> 
</g>
<g style="fill:#02FFEE; fill-opacity:0.4000; stroke:none;">
<circle cx="38.4228" cy="15.7950" r="0.7750" /> 
</g>
<g style="fill:#02FFEE; fill-opacity:0.4000; stroke:none;">
<circle cx="40.9628" cy="15.7950" r="0.7750" /> 
</g>
<g style="fill:#02FFEE; fill-opacity:0.4000; stroke:none;">
<circle cx="43.5028" cy="15.7950" r="0.7750" /> 
</g>
<g style="fill:#FFFFFF; fill-opacity:1.0000; stroke:none;">
<circle cx="15.5628" cy="10.7150" r="1.4250" /> 
</g>
<g style="fill:#FFFFFF; fill-opacity:1.0000; stroke:none;">
<circle cx="48.5828" cy="10.7150" r="1.4250" /> 
</g>
<g style="fill:#FFFFFF; fill-opacity:1.0000; stroke:none;">
<circle cx="20.6428" cy="13.2550" r="0.5000" /> 
</g>
<g style="fill:#FFFFFF; fill-opacity:1.0000; stroke:none;">
<circle cx="23.1828" cy="13.2550" r="0.5000" /> 
</g>
<g style="fill:#FFFFFF; fill-opacity:1.0000; stroke:none;">
<circle cx="25.7228" cy="13.2550" r="0.5000" /> 
</g>
<g style="fill:#FFFFFF; fill-opacity:1.0000; stroke:none;">
<circle cx="28.2628" cy="13.2550" r="0.5000" /> 
</g>
<g style="fill:#FFFFFF; fill-opacity:1.0000; stroke:none;">
<circle cx="30.8028" cy="13.2550" r="0.5000" /> 
</g>
<g style="fill:#FFFFFF; fill-opacity:1.0000; stroke:none;">
<circle cx="33.3428" cy="13.2550" r="0.5000" /> 
</g>
<g style="fill:#FFFFFF; fill-opacity:1.0000; stroke:none;">
<circle cx="35.8828" cy="13.2550" r="0.5000" /> 
</g>
<g style="fill:#FFFFFF; fill-opacity:1.0000; stroke:none;">
<circle cx="38.4228" cy="13.2550" r="0.5000" /> 
</g>
<g style="fill:#FFFFFF; fill-opacity:1.0000; stroke:none;">
<circle cx="40.9628" cy="13.2550" r="0.5000" /> 
</g>
<g style="fill:#FFFFFF; fill-opacity:1.0000; stroke:none;">
<circle cx="43.5028" cy="13.2550" r="0.5000" /> 
</g>
<g style="fill:#FFFFFF; fill-opacity:1.0000; stroke:none;">
<circle cx="20.6428" cy="15.7950" r="0.5000" /> 
</g>
<g style="fill:#FFFFFF; fill-opacity:1.0000; stroke:none;">
<circle cx="23.1828" cy="15.7950" r="0.5000" /> 
</g>
<g style="fill:#FFFFFF; fill-opacity:1.0000; stroke:none;">
<circle cx="25.7228" cy="15.7950" r="0.5000" /> 
</g>
<g style="fill:#FFFFFF; fill-opacity:1.0000; stroke:none;">
<circle cx="28.2628" cy="15.7950" r="0.5000" /> 
</g>
<g style="fill:#FFFFFF; fill-opacity:1.0000; stroke:none;">
<circle cx="30.8028" cy="15.7950" r="0.5000" /> 
</g>
<g style="fill:#FFFFFF; fill-opacity:1.0000; stroke:none;">
<circle cx="33.3428" cy="15.7950" r="0.5000" /> 
</g>
<g style="fill:#FFFFFF; fill-opacity:1.0000; stroke:none;">
<circle cx="35.8828" cy="15.7950" r="0.5000" /> 
</g>
<g style="fill:#FFFFFF; fill-opacity:1.0000; stroke:none;">
<circle cx="38.4228" cy="15.7950" r="0.5000" /> 
</g>
<g style="fill:#FFFFFF; fill-opacity:1.0000; stroke:none;">
<circle cx="40.9628" cy="15.7950" r="0.5000" /> 
</g>
<g style="fill:#FFFFFF; fill-opacity:1.0000; stroke:none;">
<circle cx="43.5028" cy="15.7950" r="0.5000" /> 
</g>
<g style="fill:#FFFFFF; fill-opacity:1.0000; stroke:none;">
<circle cx="15.5628" cy="10.7150" r="1.4250" /> 
</g>
<g style="fill:#FFFFFF; fill-opacity:1.0000; stroke:none;">
<circle cx="48.5828" cy="10.7150" r="1.4250" /> 
</g>
<g style="fill:#FFFFFF; fill-opacity:1.0000; stroke:none;">
<circle cx="20.6428" cy="13.2550" r="0.5000" /> 
</g>
<g style="fill:#FFFFFF; fill-opacity:1.0000; stroke:none;">
<circle cx="23.1828" cy="13.2550" r="0.5000" /> 
</g>
<g style="fill:#FFFFFF; fill-opacity:1.0000; stroke:none;">
<circle cx="25.7228" cy="13.2550" r="0.5000" /> 
</g>
<g style="fill:#FFFFFF; fill-opacity:1.0000; stroke:none;">
<circle cx="28.2628" cy="13.2550" r="0.5000" /> 
</g>
<g style="fill:#FFFFFF; fill-opacity:1.0000; stroke:none;">
<circle cx="30.8028" cy="13.2550" r="0.5000" /> 
</g>
<g style="fill:#FFFFFF; fill-opacity:1.0000; stroke:none;">
<circle cx="33.3428" cy="13.2550" r="0.5000" /> 
</g>
<g style="fill:#FFFFFF; fill-opacity:1.0000; stroke:none;">
<circle cx="35.8828" cy="13.2550" r="0.5000" /> 
</g>
<g style="fill:#FFFFFF; fill-opacity:1.0000; stroke:none;">
<circle cx="38.4228" cy="13.2550" r="0.5000" /> 
</g>
<g style="fill:#FFFFFF; fill-opacity:1.0000; stroke:none;">
<circle cx="40.9628" cy="13.2550" r="0.5000" /> 
</g>
<g style="fill:#FFFFFF; fill-opacity:1.0000; stroke:none;">
<circle cx="43.5028" cy="13.2550" r="0.5000" /> 
</g>
<g style="fill:#FFFFFF; fill-opacity:1.0000; stroke:none;">
<circle cx="20.6428" cy="15.7950" r="0.5000" /> 
</g>
<g style="fill:#FFFFFF; fill-opacity:1.0000; stroke:none;">
<circle cx="23.1828" cy="15.7950" r="0.5000" /> 
</g>
<g style="fill:#FFFFFF; fill-opacity:1.0000; stroke:none;">
<circle cx="25.7228" cy="15.7950" r="0.5000" /> 
</g>
<g style="fill:#FFFFFF; fill-opacity:1.0000; stroke:none;">
<circle cx="28.2628" cy="15.7950" r="0.5000" /> 
</g>
<g style="fill:#FFFFFF; fill-opacity:1.0000; stroke:none;">
<circle cx="30.8028" cy="15.7950" r="0.5000" /> 
</g>
<g style="fill:#FFFFFF; fill-opacity:1.0000; stroke:none;">
<circle cx="33.3428" cy="15.7950" r="0.5000" /> 
</g>
<g style="fill:#FFFFFF; fill-opacity:1.0000; stroke:none;">
<circle cx="35.8828" cy="15.7950" r="0.5000" /> 
</g>
<g style="fill:#FFFFFF; fill-opacity:1.0000; stroke:none;">
<circle cx="38.4228" cy="15.7950" r="0.5000" /> 
</g>
<g style="fill:#FFFFFF; fill-opacity:1.0000; stroke:none;">
<circle cx="40.9628" cy="15.7950" r="0.5000" /> 
</g>
<g style="fill:#FFFFFF; fill-opacity:1.0000; stroke:none;">
<circle cx="43.5028" cy="15.7950" r="0.5000" /> 
</g>
<g style="fill:#D864FF; fill-opacity:0.4000; stroke:none;">
<circle cx="15.5628" cy="10.7150" r="1.4250" /> 
</g>
<g style="fill:#D864FF; fill-opacity:0.4000; stroke:none;">
<circle cx="48.5828" cy="10.7150" r="1.4250" /> 
<path style="fill:#D864FF; fill-opacity:0.4000; stroke:none;fill-rule:evenodd;"
d="M 19.8678,12.7300
19.8868,12.6343
19.9410,12.5532
20.0221,12.4990
20.1178,12.4800
21.1678,12.4800
21.2635,12.4990
21.3446,12.5532
21.3988,12.6343
21.4178,12.7300
21.4178,13.7800
21.3988,13.8757
21.3446,13.9568
21.2635,14.0110
21.1678,14.0300
20.1178,14.0300
20.0221,14.0110
19.9410,13.9568
19.8868,13.8757
19.8678,13.7800
Z" /> 
</g>
<g style="fill:#D864FF; fill-opacity:0.4000; stroke:none;">
<circle cx="23.1828" cy="13.2550" r="0.7750" /> 
</g>
<g style="fill:#D864FF; fill-opacity:0.4000; stroke:none;">
<circle cx="25.7228" cy="13.2550" r="0.7750" /> 
</g>
<g style="fill:#D864FF; fill-opacity:0.4000; stroke:none;">
<circle cx="28.2628" cy="13.2550" r="0.7750" /> 
</g>
<g style="fill:#D864FF; fill-opacity:0.4000; stroke:none;">
<circle cx="30.8028" cy="13.2550" r="0.7750" /> 
</g>
<g style="fill:#D864FF; fill-opacity:0.4000; stroke:none;">
<circle cx="33.3428" cy="13.2550" r="0.7750" /> 
</g>
<g style="fill:#D864FF; fill-opacity:0.4000; stroke:none;">
<circle cx="35.8828" cy="13.2550" r="0.7750" /> 
</g>
<g style="fill:#D864FF; fill-opacity:0.4000; stroke:none;">
<circle cx="38.4228" cy="13.2550" r="0.7750" /> 
</g>
<g style="fill:#D864FF; fill-opacity:0.4000; stroke:none;">
<circle cx="40.9628" cy="13.2550" r="0.7750" /> 
</g>
<g style="fill:#D864FF; fill-opacity:0.4000; stroke:none;">
<circle cx="43.5028" cy="13.2550" r="0.7750" /> 
</g>
<g style="fill:#D864FF; fill-opacity:0.4000; stroke:none;">
<circle cx="20.6428" cy="15.7950" r="0.7750" /> 
</g>
<g style="fill:#D864FF; fill-opacity:0.4000; stroke:none;">
<circle cx="23.1828" cy="15.7950" r="0.7750" /> 
</g>
<g style="fill:#D864FF; fill-opacity:0.4000; stroke:none;">
<circle cx="25.7228" cy="15.7950" r="0.7750" /> 
</g>
<g style="fill:#D864FF; fill-opacity:0.4000; stroke:none;">
<circle cx="28.2628" cy="15.7950" r="0.7750" /> 
</g>
<g style="fill:#D864FF; fill-opacity:0.4000; stroke:none;">
<circle cx="30.8028" cy="15.7950" r="0.7750" /> 
</g>
<g style="fill:#D864FF; fill-opacity:0.4000; stroke:none;">
<circle cx="33.3428" cy="15.7950" r="0.7750" /> 
</g>
<g style="fill:#D864FF; fill-opacity:0.4000; stroke:none;">
<circle cx="35.8828" cy="15.7950" r="0.7750" /> 
</g>
<g style="fill:#D864FF; fill-opacity:0.4000; stroke:none;">
<circle cx="38.4228" cy="15.7950" r="0.7750" /> 
</g>
<g style="fill:#D864FF; fill-opacity:0.4000; stroke:none;">
<circle cx="40.9628" cy="15.7950" r="0.7750" /> 
</g>
<g style="fill:#D864FF; fill-opacity:0.4000; stroke:none;">
<circle cx="43.5028" cy="15.7950" r="0.7750" /> 
</g>
<g style="fill:none; 
stroke:#F2EDA1; stroke-width:0.1588; stroke-opacity:1; 
stroke-linecap:round; stroke-linejoin:round;">
<text x="20.6428" y="13.8900"
textLength="5.6651" font-size="1.6933" lengthAdjust="spacingAndGlyphs"
text-anchor="middle" opacity="0">REF**</text>
<g class="stroked-text"><desc>REF**</desc>
<path d="M18.9495 13.8343
L18.5261 13.2295
" />
<path d="M18.2237 13.8343
L18.2237 12.5643
" />
<path d="M18.2237 12.5643
L18.7076 12.5643
" />
<path d="M18.7076 12.5643
L18.8285 12.6247
" />
<path d="M18.8285 12.6247
L18.8890 12.6852
" />
<path d="M18.8890 12.6852
L18.9495 12.8062
" />
<path d="M18.9495 12.8062
L18.9495 12.9876
" />
<path d="M18.9495 12.9876
L18.8890 13.1086
" />
<path d="M18.8890 13.1086
L18.8285 13.1690
" />
<path d="M18.8285 13.1690
L18.7076 13.2295
" />
<path d="M18.7076 13.2295
L18.2237 13.2295
" />
<path d="M19.4937 13.1690
L19.9171 13.1690
" />
<path d="M20.0985 13.8343
L19.4937 13.8343
" />
<path d="M19.4937 13.8343
L19.4937 12.5643
" />
<path d="M19.4937 12.5643
L20.0985 12.5643
" />
<path d="M21.0661 13.1690
L20.6428 13.1690
" />
<path d="M20.6428 13.8343
L20.6428 12.5643
" />
<path d="M20.6428 12.5643
L21.2476 12.5643
" />
<path d="M21.9128 12.5643
L21.9128 12.8667
" />
<path d="M21.6104 12.7457
L21.9128 12.8667
" />
<path d="M21.9128 12.8667
L22.2152 12.7457
" />
<path d="M21.7314 13.1086
L21.9128 12.8667
" />
<path d="M21.9128 12.8667
L22.0942 13.1086
" />
<path d="M22.8804 12.5643
L22.8804 12.8667
" />
<path d="M22.5780 12.7457
L22.8804 12.8667
" />
<path d="M22.8804 12.8667
L23.1828 12.7457
" />
<path d="M22.6990 13.1086
L22.8804 12.8667
" />
<path d="M22.8804 12.8667
L23.0618 13.1086
" />
</g></g>
<g style="fill:none; 
stroke:#F2EDA1; stroke-width:0.1200; stroke-opacity:1; 
stroke-linecap:round; stroke-linejoin:round;">
<path d="M12.7628 8.5150
L12.7628 13.3750
" />
<path d="M12.7628 13.3750
L18.2828 13.3750
" />
<path d="M18.2818 12.3750
L19.5478 12.3750
" />
<path d="M18.2828 13.3750
L18.2828 12.3750
" />
<path d="M18.9478 12.9550
L18.9478 13.5550
" />
<path d="M18.9478 13.5550
L19.5478 13.2550
" />
<path d="M19.5478 13.2550
L18.9478 12.9550
" />
<path d="M21.7378 12.3750
L22.4438 12.3750
" />
<path d="M23.9228 12.3750
L24.9838 12.3750
" />
<path d="M26.4628 12.3750
L27.5238 12.3750
" />
<path d="M29.0028 12.3750
L30.0638 12.3750
" />
<path d="M31.5428 12.3750
L32.6038 12.3750
" />
<path d="M34.0828 12.3750
L35.1438 12.3750
" />
<path d="M36.6228 12.3750
L37.6838 12.3750
" />
<path d="M39.1628 12.3750
L40.2238 12.3750
" />
<path d="M41.7028 12.3750
L42.7638 12.3750
" />
<path d="M44.2428 12.3750
L45.8628 12.3750
" />
<path d="M45.8628 13.3750
L45.8628 12.3750
" />
<path d="M51.3828 8.5150
L51.3828 13.3750
" />
<path d="M51.3828 13.3750
L45.8628 13.3750
" />
</g>
<g style="fill:#FFFFFF; fill-opacity:1.0000; stroke:none;">
<circle cx="15.5628" cy="10.7150" r="1.4250" /> 
</g>
<g style="fill:#FFFFFF; fill-opacity:1.0000; stroke:none;">
<circle cx="48.5828" cy="10.7150" r="1.4250" /> 
</g>
<g style="fill:#FFFFFF; fill-opacity:1.0000; stroke:none;">
<circle cx="20.6428" cy="13.2550" r="0.5000" /> 
</g>
<g style="fill:#FFFFFF; fill-opacity:1.0000; stroke:none;">
<circle cx="23.1828" cy="13.2550" r="0.5000" /> 
</g>
<g style="fill:#FFFFFF; fill-opacity:1.0000; stroke:none;">
<circle cx="25.7228" cy="13.2550" r="0.5000" /> 
</g>
<g style="fill:#FFFFFF; fill-opacity:1.0000; stroke:none;">
<circle cx="28.2628" cy="13.2550" r="0.5000" /> 
</g>
<g style="fill:#FFFFFF; fill-opacity:1.0000; stroke:none;">
<circle cx="30.8028" cy="13.2550" r="0.5000" /> 
</g>
<g style="fill:#FFFFFF; fill-opacity:1.0000; stroke:none;">
<circle cx="33.3428" cy="13.2550" r="0.5000" /> 
</g>
<g style="fill:#FFFFFF; fill-opacity:1.0000; stroke:none;">
<circle cx="35.8828" cy="13.2550" r="0.5000" /> 
</g>
<g style="fill:#FFFFFF; fill-opacity:1.0000; stroke:none;">
<circle cx="38.4228" cy="13.2550" r="0.5000" /> 
</g>
<g style="fill:#FFFFFF; fill-opacity:1.0000; stroke:none;">
<circle cx="40.9628" cy="13.2550" r="0.5000" /> 
</g>
<g style="fill:#FFFFFF; fill-opacity:1.0000; stroke:none;">
<circle cx="43.5028" cy="13.2550" r="0.5000" /> 
</g>
<g style="fill:#FFFFFF; fill-opacity:1.0000; stroke:none;">
<circle cx="20.6428" cy="15.7950" r="0.5000" /> 
</g>
<g style="fill:#FFFFFF; fill-opacity:1.0000; stroke:none;">
<circle cx="23.1828" cy="15.7950" r="0.5000" /> 
</g>
<g style="fill:#FFFFFF; fill-opacity:1.0000; stroke:none;">
<circle cx="25.7228" cy="15.7950" r="0.5000" /> 
</g>
<g style="fill:#FFFFFF; fill-opacity:1.0000; stroke:none;">
<circle cx="28.2628" cy="15.7950" r="0.5000" /> 
</g>
<g style="fill:#FFFFFF; fill-opacity:1.0000; stroke:none;">
<circle cx="30.8028" cy="15.7950" r="0.5000" /> 
</g>
<g style="fill:#FFFFFF; fill-opacity:1.0000; stroke:none;">
<circle cx="33.3428" cy="15.7950" r="0.5000" /> 
</g>
<g style="fill:#FFFFFF; fill-opacity:1.0000; stroke:none;">
<circle cx="35.8828" cy="15.7950" r="0.5000" /> 
</g>
<g style="fill:#FFFFFF; fill-opacity:1.0000; stroke:none;">
<circle cx="38.4228" cy="15.7950" r="0.5000" /> 
</g>
<g style="fill:#FFFFFF; fill-opacity:1.0000; stroke:none;">
<circle cx="40.9628" cy="15.7950" r="0.5000" /> 
</g>
<g style="fill:#FFFFFF; fill-opacity:1.0000; stroke:none;">
<circle cx="43.5028" cy="15.7950" r="0.5000" /> 
</g>
<g style="fill:none; 
stroke:#FF26E2; stroke-width:0.0500; stroke-opacity:1; 
stroke-linecap:round; stroke-linejoin:round;">
<path d="M12.5228 0.0250
L12.5228 13.6250
" />
<path d="M12.5228 13.6250
L19.3728 13.6250
" />
<path d="M19.3728 13.6250
L19.3728 17.0750
" />
<path d="M19.3728 17.0750
L44.7828 17.0750
" />
<path d="M44.7828 13.6250
L51.6228 13.6250
" />
<path d="M44.7828 17.0750
L44.7828 13.6250
" />
<path d="M51.6228 0.0250
L12.5228 0.0250
" />
<path d="M51.6228 13.6250
L51.6228 0.0250
" />
</g>
<g style="fill:none; 
stroke:#AFAFAF; stroke-width:0.1588; stroke-opacity:1; 
stroke-linecap:round; stroke-linejoin:round;">
<text x="20.6428" y="13.8900"
textLength="41.2856" font-size="1.6933" lengthAdjust="spacingAndGlyphs"
text-anchor="middle" opacity="0">DIN41612_Q3_2x10_Female_Horizontal_THT</text>
<g class="stroked-text"><desc>DIN41612_Q3_2x10_Female_Horizontal_THT</desc>
<path d="M0.4135 13.8343
L0.4135 12.5643
" />
<path d="M0.4135 12.5643
L0.7159 12.5643
" />
<path d="M0.7159 12.5643
L0.8973 12.6247
" />
<path d="M0.8973 12.6247
L1.0183 12.7457
" />
<path d="M1.0183 12.7457
L1.0787 12.8667
" />
<path d="M1.0787 12.8667
L1.1392 13.1086
" />
<path d="M1.1392 13.1086
L1.1392 13.2900
" />
<path d="M1.1392 13.2900
L1.0787 13.5319
" />
<path d="M1.0787 13.5319
L1.0183 13.6528
" />
<path d="M1.0183 13.6528
L0.8973 13.7738
" />
<path d="M0.8973 13.7738
L0.7159 13.8343
" />
<path d="M0.7159 13.8343
L0.4135 13.8343
" />
<path d="M1.6835 13.8343
L1.6835 12.5643
" />
<path d="M2.2883 13.8343
L2.2883 12.5643
" />
<path d="M2.2883 12.5643
L3.0140 13.8343
" />
<path d="M3.0140 13.8343
L3.0140 12.5643
" />
<path d="M4.1630 12.9876
L4.1630 13.8343
" />
<path d="M3.8606 12.5038
L3.5583 13.4109
" />
<path d="M3.5583 13.4109
L4.3445 13.4109
" />
<path d="M5.4935 13.8343
L4.7678 13.8343
" />
<path d="M5.1306 13.8343
L5.1306 12.5643
" />
<path d="M5.1306 12.5643
L5.0097 12.7457
" />
<path d="M5.0097 12.7457
L4.8887 12.8667
" />
<path d="M4.8887 12.8667
L4.7678 12.9271
" />
<path d="M6.5821 12.5643
L6.3402 12.5643
" />
<path d="M6.3402 12.5643
L6.2192 12.6247
" />
<path d="M6.2192 12.6247
L6.1587 12.6852
" />
<path d="M6.1587 12.6852
L6.0378 12.8667
" />
<path d="M6.0378 12.8667
L5.9773 13.1086
" />
<path d="M5.9773 13.1086
L5.9773 13.5924
" />
<path d="M5.9773 13.5924
L6.0378 13.7133
" />
<path d="M6.0378 13.7133
L6.0983 13.7738
" />
<path d="M6.0983 13.7738
L6.2192 13.8343
" />
<path d="M6.2192 13.8343
L6.4611 13.8343
" />
<path d="M6.4611 13.8343
L6.5821 13.7738
" />
<path d="M6.5821 13.7738
L6.6426 13.7133
" />
<path d="M6.6426 13.7133
L6.7030 13.5924
" />
<path d="M6.7030 13.5924
L6.7030 13.2900
" />
<path d="M6.7030 13.2900
L6.6426 13.1690
" />
<path d="M6.6426 13.1690
L6.5821 13.1086
" />
<path d="M6.5821 13.1086
L6.4611 13.0481
" />
<path d="M6.4611 13.0481
L6.2192 13.0481
" />
<path d="M6.2192 13.0481
L6.0983 13.1086
" />
<path d="M6.0983 13.1086
L6.0378 13.1690
" />
<path d="M6.0378 13.1690
L5.9773 13.2900
" />
<path d="M7.9126 13.8343
L7.1868 13.8343
" />
<path d="M7.5497 13.8343
L7.5497 12.5643
" />
<path d="M7.5497 12.5643
L7.4287 12.7457
" />
<path d="M7.4287 12.7457
L7.3078 12.8667
" />
<path d="M7.3078 12.8667
L7.1868 12.9271
" />
<path d="M8.3964 12.6852
L8.4568 12.6247
" />
<path d="M8.4568 12.6247
L8.5778 12.5643
" />
<path d="M8.5778 12.5643
L8.8802 12.5643
" />
<path d="M8.8802 12.5643
L9.0011 12.6247
" />
<path d="M9.0011 12.6247
L9.0616 12.6852
" />
<path d="M9.0616 12.6852
L9.1221 12.8062
" />
<path d="M9.1221 12.8062
L9.1221 12.9271
" />
<path d="M9.1221 12.9271
L9.0616 13.1086
" />
<path d="M9.0616 13.1086
L8.3359 13.8343
" />
<path d="M8.3359 13.8343
L9.1221 13.8343
" />
<path d="M9.3640 13.9552
L10.3316 13.9552
" />
<path d="M11.4806 13.9552
L11.3597 13.8947
" />
<path d="M11.3597 13.8947
L11.2387 13.7738
" />
<path d="M11.2387 13.7738
L11.0573 13.5924
" />
<path d="M11.0573 13.5924
L10.9364 13.5319
" />
<path d="M10.9364 13.5319
L10.8154 13.5319
" />
<path d="M10.8759 13.8343
L10.7549 13.7738
" />
<path d="M10.7549 13.7738
L10.6340 13.6528
" />
<path d="M10.6340 13.6528
L10.5735 13.4109
" />
<path d="M10.5735 13.4109
L10.5735 12.9876
" />
<path d="M10.5735 12.9876
L10.6340 12.7457
" />
<path d="M10.6340 12.7457
L10.7549 12.6247
" />
<path d="M10.7549 12.6247
L10.8759 12.5643
" />
<path d="M10.8759 12.5643
L11.1178 12.5643
" />
<path d="M11.1178 12.5643
L11.2387 12.6247
" />
<path d="M11.2387 12.6247
L11.3597 12.7457
" />
<path d="M11.3597 12.7457
L11.4202 12.9876
" />
<path d="M11.4202 12.9876
L11.4202 13.4109
" />
<path d="M11.4202 13.4109
L11.3597 13.6528
" />
<path d="M11.3597 13.6528
L11.2387 13.7738
" />
<path d="M11.2387 13.7738
L11.1178 13.8343
" />
<path d="M11.1178 13.8343
L10.8759 13.8343
" />
<path d="M11.8435 12.5643
L12.6297 12.5643
" />
<path d="M12.6297 12.5643
L12.2064 13.0481
" />
<path d="M12.2064 13.0481
L12.3878 13.0481
" />
<path d="M12.3878 13.0481
L12.5087 13.1086
" />
<path d="M12.5087 13.1086
L12.5692 13.1690
" />
<path d="M12.5692 13.1690
L12.6297 13.2900
" />
<path d="M12.6297 13.2900
L12.6297 13.5924
" />
<path d="M12.6297 13.5924
L12.5692 13.7133
" />
<path d="M12.5692 13.7133
L12.5087 13.7738
" />
<path d="M12.5087 13.7738
L12.3878 13.8343
" />
<path d="M12.3878 13.8343
L12.0249 13.8343
" />
<path d="M12.0249 13.8343
L11.9040 13.7738
" />
<path d="M11.9040 13.7738
L11.8435 13.7133
" />
<path d="M12.8716 13.9552
L13.8392 13.9552
" />
<path d="M14.0811 12.6852
L14.1416 12.6247
" />
<path d="M14.1416 12.6247
L14.2626 12.5643
" />
<path d="M14.2626 12.5643
L14.5649 12.5643
" />
<path d="M14.5649 12.5643
L14.6859 12.6247
" />
<path d="M14.6859 12.6247
L14.7464 12.6852
" />
<path d="M14.7464 12.6852
L14.8068 12.8062
" />
<path d="M14.8068 12.8062
L14.8068 12.9271
" />
<path d="M14.8068 12.9271
L14.7464 13.1086
" />
<path d="M14.7464 13.1086
L14.0206 13.8343
" />
<path d="M14.0206 13.8343
L14.8068 13.8343
" />
<path d="M15.2302 13.8343
L15.8954 12.9876
" />
<path d="M15.2302 12.9876
L15.8954 13.8343
" />
<path d="M17.0445 13.8343
L16.3187 13.8343
" />
<path d="M16.6816 13.8343
L16.6816 12.5643
" />
<path d="M16.6816 12.5643
L16.5606 12.7457
" />
<path d="M16.5606 12.7457
L16.4397 12.8667
" />
<path d="M16.4397 12.8667
L16.3187 12.9271
" />
<path d="M17.8306 12.5643
L17.9516 12.5643
" />
<path d="M17.9516 12.5643
L18.0726 12.6247
" />
<path d="M18.0726 12.6247
L18.1330 12.6852
" />
<path d="M18.1330 12.6852
L18.1935 12.8062
" />
<path d="M18.1935 12.8062
L18.2540 13.0481
" />
<path d="M18.2540 13.0481
L18.2540 13.3505
" />
<path d="M18.2540 13.3505
L18.1935 13.5924
" />
<path d="M18.1935 13.5924
L18.1330 13.7133
" />
<path d="M18.1330 13.7133
L18.0726 13.7738
" />
<path d="M18.0726 13.7738
L17.9516 13.8343
" />
<path d="M17.9516 13.8343
L17.8306 13.8343
" />
<path d="M17.8306 13.8343
L17.7097 13.7738
" />
<path d="M17.7097 13.7738
L17.6492 13.7133
" />
<path d="M17.6492 13.7133
L17.5887 13.5924
" />
<path d="M17.5887 13.5924
L17.5283 13.3505
" />
<path d="M17.5283 13.3505
L17.5283 13.0481
" />
<path d="M17.5283 13.0481
L17.5887 12.8062
" />
<path d="M17.5887 12.8062
L17.6492 12.6852
" />
<path d="M17.6492 12.6852
L17.7097 12.6247
" />
<path d="M17.7097 12.6247
L17.8306 12.5643
" />
<path d="M18.4959 13.9552
L19.4635 13.9552
" />
<path d="M20.1892 13.1690
L19.7659 13.1690
" />
<path d="M19.7659 13.8343
L19.7659 12.5643
" />
<path d="M19.7659 12.5643
L20.3706 12.5643
" />
<path d="M21.3383 13.7738
L21.2173 13.8343
" />
<path d="M21.2173 13.8343
L20.9754 13.8343
" />
<path d="M20.9754 13.8343
L20.8545 13.7738
" />
<path d="M20.8545 13.7738
L20.7940 13.6528
" />
<path d="M20.7940 13.6528
L20.7940 13.1690
" />
<path d="M20.7940 13.1690
L20.8545 13.0481
" />
<path d="M20.8545 13.0481
L20.9754 12.9876
" />
<path d="M20.9754 12.9876
L21.2173 12.9876
" />
<path d="M21.2173 12.9876
L21.3383 13.0481
" />
<path d="M21.3383 13.0481
L21.3987 13.1690
" />
<path d="M21.3987 13.1690
L21.3987 13.2900
" />
<path d="M21.3987 13.2900
L20.7940 13.4109
" />
<path d="M21.9430 13.8343
L21.9430 12.9876
" />
<path d="M21.9430 13.1086
L22.0035 13.0481
" />
<path d="M22.0035 13.0481
L22.1245 12.9876
" />
<path d="M22.1245 12.9876
L22.3059 12.9876
" />
<path d="M22.3059 12.9876
L22.4268 13.0481
" />
<path d="M22.4268 13.0481
L22.4873 13.1690
" />
<path d="M22.4873 13.1690
L22.4873 13.8343
" />
<path d="M22.4873 13.1690
L22.5478 13.0481
" />
<path d="M22.5478 13.0481
L22.6687 12.9876
" />
<path d="M22.6687 12.9876
L22.8502 12.9876
" />
<path d="M22.8502 12.9876
L22.9711 13.0481
" />
<path d="M22.9711 13.0481
L23.0316 13.1690
" />
<path d="M23.0316 13.1690
L23.0316 13.8343
" />
<path d="M24.1806 13.8343
L24.1806 13.1690
" />
<path d="M24.1806 13.1690
L24.1202 13.0481
" />
<path d="M24.1202 13.0481
L23.9992 12.9876
" />
<path d="M23.9992 12.9876
L23.7573 12.9876
" />
<path d="M23.7573 12.9876
L23.6364 13.0481
" />
<path d="M24.1806 13.7738
L24.0597 13.8343
" />
<path d="M24.0597 13.8343
L23.7573 13.8343
" />
<path d="M23.7573 13.8343
L23.6364 13.7738
" />
<path d="M23.6364 13.7738
L23.5759 13.6528
" />
<path d="M23.5759 13.6528
L23.5759 13.5319
" />
<path d="M23.5759 13.5319
L23.6364 13.4109
" />
<path d="M23.6364 13.4109
L23.7573 13.3505
" />
<path d="M23.7573 13.3505
L24.0597 13.3505
" />
<path d="M24.0597 13.3505
L24.1806 13.2900
" />
<path d="M24.9668 13.8343
L24.8459 13.7738
" />
<path d="M24.8459 13.7738
L24.7854 13.6528
" />
<path d="M24.7854 13.6528
L24.7854 12.5643
" />
<path d="M25.9345 13.7738
L25.8135 13.8343
" />
<path d="M25.8135 13.8343
L25.5716 13.8343
" />
<path d="M25.5716 13.8343
L25.4506 13.7738
" />
<path d="M25.4506 13.7738
L25.3902 13.6528
" />
<path d="M25.3902 13.6528
L25.3902 13.1690
" />
<path d="M25.3902 13.1690
L25.4506 13.0481
" />
<path d="M25.4506 13.0481
L25.5716 12.9876
" />
<path d="M25.5716 12.9876
L25.8135 12.9876
" />
<path d="M25.8135 12.9876
L25.9345 13.0481
" />
<path d="M25.9345 13.0481
L25.9949 13.1690
" />
<path d="M25.9949 13.1690
L25.9949 13.2900
" />
<path d="M25.9949 13.2900
L25.3902 13.4109
" />
<path d="M26.2368 13.9552
L27.2045 13.9552
" />
<path d="M27.5068 13.8343
L27.5068 12.5643
" />
<path d="M27.5068 13.1690
L28.2326 13.1690
" />
<path d="M28.2326 13.8343
L28.2326 12.5643
" />
<path d="M29.0187 13.8343
L28.8978 13.7738
" />
<path d="M28.8978 13.7738
L28.8373 13.7133
" />
<path d="M28.8373 13.7133
L28.7768 13.5924
" />
<path d="M28.7768 13.5924
L28.7768 13.2295
" />
<path d="M28.7768 13.2295
L28.8373 13.1086
" />
<path d="M28.8373 13.1086
L28.8978 13.0481
" />
<path d="M28.8978 13.0481
L29.0187 12.9876
" />
<path d="M29.0187 12.9876
L29.2002 12.9876
" />
<path d="M29.2002 12.9876
L29.3211 13.0481
" />
<path d="M29.3211 13.0481
L29.3816 13.1086
" />
<path d="M29.3816 13.1086
L29.4421 13.2295
" />
<path d="M29.4421 13.2295
L29.4421 13.5924
" />
<path d="M29.4421 13.5924
L29.3816 13.7133
" />
<path d="M29.3816 13.7133
L29.3211 13.7738
" />
<path d="M29.3211 13.7738
L29.2002 13.8343
" />
<path d="M29.2002 13.8343
L29.0187 13.8343
" />
<path d="M29.9864 13.8343
L29.9864 12.9876
" />
<path d="M29.9864 13.2295
L30.0468 13.1086
" />
<path d="M30.0468 13.1086
L30.1073 13.0481
" />
<path d="M30.1073 13.0481
L30.2283 12.9876
" />
<path d="M30.2283 12.9876
L30.3492 12.9876
" />
<path d="M30.7726 13.8343
L30.7726 12.9876
" />
<path d="M30.7726 12.5643
L30.7121 12.6247
" />
<path d="M30.7121 12.6247
L30.7726 12.6852
" />
<path d="M30.7726 12.6852
L30.8330 12.6247
" />
<path d="M30.8330 12.6247
L30.7726 12.5643
" />
<path d="M30.7726 12.5643
L30.7726 12.6852
" />
<path d="M31.2564 12.9876
L31.9216 12.9876
" />
<path d="M31.9216 12.9876
L31.2564 13.8343
" />
<path d="M31.2564 13.8343
L31.9216 13.8343
" />
<path d="M32.5868 13.8343
L32.4659 13.7738
" />
<path d="M32.4659 13.7738
L32.4054 13.7133
" />
<path d="M32.4054 13.7133
L32.3449 13.5924
" />
<path d="M32.3449 13.5924
L32.3449 13.2295
" />
<path d="M32.3449 13.2295
L32.4054 13.1086
" />
<path d="M32.4054 13.1086
L32.4659 13.0481
" />
<path d="M32.4659 13.0481
L32.5868 12.9876
" />
<path d="M32.5868 12.9876
L32.7683 12.9876
" />
<path d="M32.7683 12.9876
L32.8892 13.0481
" />
<path d="M32.8892 13.0481
L32.9497 13.1086
" />
<path d="M32.9497 13.1086
L33.0102 13.2295
" />
<path d="M33.0102 13.2295
L33.0102 13.5924
" />
<path d="M33.0102 13.5924
L32.9497 13.7133
" />
<path d="M32.9497 13.7133
L32.8892 13.7738
" />
<path d="M32.8892 13.7738
L32.7683 13.8343
" />
<path d="M32.7683 13.8343
L32.5868 13.8343
" />
<path d="M33.5545 12.9876
L33.5545 13.8343
" />
<path d="M33.5545 13.1086
L33.6149 13.0481
" />
<path d="M33.6149 13.0481
L33.7359 12.9876
" />
<path d="M33.7359 12.9876
L33.9173 12.9876
" />
<path d="M33.9173 12.9876
L34.0383 13.0481
" />
<path d="M34.0383 13.0481
L34.0987 13.1690
" />
<path d="M34.0987 13.1690
L34.0987 13.8343
" />
<path d="M34.5221 12.9876
L35.0059 12.9876
" />
<path d="M34.7035 12.5643
L34.7035 13.6528
" />
<path d="M34.7035 13.6528
L34.7640 13.7738
" />
<path d="M34.7640 13.7738
L34.8849 13.8343
" />
<path d="M34.8849 13.8343
L35.0059 13.8343
" />
<path d="M35.9735 13.8343
L35.9735 13.1690
" />
<path d="M35.9735 13.1690
L35.9130 13.0481
" />
<path d="M35.9130 13.0481
L35.7921 12.9876
" />
<path d="M35.7921 12.9876
L35.5502 12.9876
" />
<path d="M35.5502 12.9876
L35.4292 13.0481
" />
<path d="M35.9735 13.7738
L35.8526 13.8343
" />
<path d="M35.8526 13.8343
L35.5502 13.8343
" />
<path d="M35.5502 13.8343
L35.4292 13.7738
" />
<path d="M35.4292 13.7738
L35.3687 13.6528
" />
<path d="M35.3687 13.6528
L35.3687 13.5319
" />
<path d="M35.3687 13.5319
L35.4292 13.4109
" />
<path d="M35.4292 13.4109
L35.5502 13.3505
" />
<path d="M35.5502 13.3505
L35.8526 13.3505
" />
<path d="M35.8526 13.3505
L35.9735 13.2900
" />
<path d="M36.7597 13.8343
L36.6387 13.7738
" />
<path d="M36.6387 13.7738
L36.5783 13.6528
" />
<path d="M36.5783 13.6528
L36.5783 12.5643
" />
<path d="M36.9411 13.9552
L37.9087 13.9552
" />
<path d="M38.0297 12.5643
L38.7554 12.5643
" />
<path d="M38.3926 13.8343
L38.3926 12.5643
" />
<path d="M39.1787 13.8343
L39.1787 12.5643
" />
<path d="M39.1787 13.1690
L39.9045 13.1690
" />
<path d="M39.9045 13.8343
L39.9045 12.5643
" />
<path d="M40.3278 12.5643
L41.0535 12.5643
" />
<path d="M40.6906 13.8343
L40.6906 12.5643
" />
</g></g>
<g style="fill:none; 
stroke:#AFAFAF; stroke-width:0.1500; stroke-opacity:1; 
stroke-linecap:round; stroke-linejoin:round;">
<text x="32.0728" y="11.2150"
textLength="4.5357" font-size="1.3333" lengthAdjust="spacingAndGlyphs"
text-anchor="middle" opacity="0">REF**</text>
<g class="stroked-text"><desc>REF**</desc>
<path d="M30.7395 11.1698
L30.4061 10.6936
" />
<path d="M30.1680 11.1698
L30.1680 10.1698
" />
<path d="M30.1680 10.1698
L30.5490 10.1698
" />
<path d="M30.5490 10.1698
L30.6442 10.2174
" />
<path d="M30.6442 10.2174
L30.6918 10.2651
" />
<path d="M30.6918 10.2651
L30.7395 10.3603
" />
<path d="M30.7395 10.3603
L30.7395 10.5032
" />
<path d="M30.7395 10.5032
L30.6918 10.5984
" />
<path d="M30.6918 10.5984
L30.6442 10.6460
" />
<path d="M30.6442 10.6460
L30.5490 10.6936
" />
<path d="M30.5490 10.6936
L30.1680 10.6936
" />
<path d="M31.1680 10.6460
L31.5014 10.6460
" />
<path d="M31.6442 11.1698
L31.1680 11.1698
" />
<path d="M31.1680 11.1698
L31.1680 10.1698
" />
<path d="M31.1680 10.1698
L31.6442 10.1698
" />
<path d="M32.4061 10.6460
L32.0728 10.6460
" />
<path d="M32.0728 11.1698
L32.0728 10.1698
" />
<path d="M32.0728 10.1698
L32.5490 10.1698
" />
<path d="M33.0728 10.1698
L33.0728 10.4079
" />
<path d="M32.8347 10.3127
L33.0728 10.4079
" />
<path d="M33.0728 10.4079
L33.3109 10.3127
" />
<path d="M32.9299 10.5984
L33.0728 10.4079
" />
<path d="M33.0728 10.4079
L33.2156 10.5984
" />
<path d="M33.8347 10.1698
L33.8347 10.4079
" />
<path d="M33.5966 10.3127
L33.8347 10.4079
" />
<path d="M33.8347 10.4079
L34.0728 10.3127
" />
<path d="M33.6918 10.5984
L33.8347 10.4079
" />
<path d="M33.8347 10.4079
L33.9776 10.5984
" />
</g></g>
<g style="fill:none; 
stroke:#AFAFAF; stroke-width:0.1000; stroke-opacity:1; 
stroke-linecap:round; stroke-linejoin:round;">
<path d="M13.0228 6.5150
L13.0228 13.1150
" />
<path d="M13.0228 13.1150
L18.0228 13.1150
" />
<path d="M16.2228 0.5150
L16.2228 6.5150
" />
<path d="M16.2228 6.5150
L13.0228 6.5150
" />
<path d="M18.0228 12.1150
L46.1228 12.1150
" />
<path d="M18.0228 13.1150
L18.0228 12.1150
" />
<path d="M20.1428 11.2150
L21.1428 11.2150
" />
<path d="M20.6428 11.9150
L20.1428 11.2150
" />
<path d="M21.1428 11.2150
L20.6428 11.9150
" />
<path d="M46.1228 12.1150
L46.1228 13.1150
" />
<path d="M46.1228 13.1150
L51.1228 13.1150
" />
<path d="M47.9228 0.5150
L16.2228 0.5150
" />
<path d="M47.9228 6.5150
L47.9228 0.5150
" />
<path d="M51.1228 6.5150
L47.9228 6.5150
" />
<path d="M51.1228 13.1150
L51.1228 6.5150
" />
</g>
<g style="fill:none; 
stroke:#C2C2C2; stroke-width:0.0800; stroke-opacity:1; 
stroke-linecap:round; stroke-linejoin:round;">
<path d="M13.0228 7.9550
L51.1228 7.9550
" />
</g>
<g style="fill:none; 
stroke:#5994DC; stroke-width:0.1000; stroke-opacity:1; 
stroke-linecap:round; stroke-linejoin:round;">
<text x="32.0728" y="6.3050"
textLength="6.1933" font-size="0.9333" lengthAdjust="spacingAndGlyphs"
text-anchor="middle" opacity="0">Board edge</text>
<g class="stroked-text"><desc>Board edge</desc>
<path d="M29.4561 5.9070
L29.5561 5.9403
" />
<path d="M29.5561 5.9403
L29.5895 5.9736
" />
<path d="M29.5895 5.9736
L29.6228 6.0403
" />
<path d="M29.6228 6.0403
L29.6228 6.1403
" />
<path d="M29.6228 6.1403
L29.5895 6.2070
" />
<path d="M29.5895 6.2070
L29.5561 6.2403
" />
<path d="M29.5561 6.2403
L29.4895 6.2736
" />
<path d="M29.4895 6.2736
L29.2228 6.2736
" />
<path d="M29.2228 6.2736
L29.2228 5.5736
" />
<path d="M29.2228 5.5736
L29.4561 5.5736
" />
<path d="M29.4561 5.5736
L29.5228 5.6070
" />
<path d="M29.5228 5.6070
L29.5561 5.6403
" />
<path d="M29.5561 5.6403
L29.5895 5.7070
" />
<path d="M29.5895 5.7070
L29.5895 5.7736
" />
<path d="M29.5895 5.7736
L29.5561 5.8403
" />
<path d="M29.5561 5.8403
L29.5228 5.8736
" />
<path d="M29.5228 5.8736
L29.4561 5.9070
" />
<path d="M29.4561 5.9070
L29.2228 5.9070
" />
<path d="M30.0228 6.2736
L29.9561 6.2403
" />
<path d="M29.9561 6.2403
L29.9228 6.2070
" />
<path d="M29.9228 6.2070
L29.8895 6.1403
" />
<path d="M29.8895 6.1403
L29.8895 5.9403
" />
<path d="M29.8895 5.9403
L29.9228 5.8736
" />
<path d="M29.9228 5.8736
L29.9561 5.8403
" />
<path d="M29.9561 5.8403
L30.0228 5.8070
" />
<path d="M30.0228 5.8070
L30.1228 5.8070
" />
<path d="M30.1228 5.8070
L30.1895 5.8403
" />
<path d="M30.1895 5.8403
L30.2228 5.8736
" />
<path d="M30.2228 5.8736
L30.2561 5.9403
" />
<path d="M30.2561 5.9403
L30.2561 6.1403
" />
<path d="M30.2561 6.1403
L30.2228 6.2070
" />
<path d="M30.2228 6.2070
L30.1895 6.2403
" />
<path d="M30.1895 6.2403
L30.1228 6.2736
" />
<path d="M30.1228 6.2736
L30.0228 6.2736
" />
<path d="M30.8561 6.2736
L30.8561 5.9070
" />
<path d="M30.8561 5.9070
L30.8228 5.8403
" />
<path d="M30.8228 5.8403
L30.7561 5.8070
" />
<path d="M30.7561 5.8070
L30.6228 5.8070
" />
<path d="M30.6228 5.8070
L30.5561 5.8403
" />
<path d="M30.8561 6.2403
L30.7895 6.2736
" />
<path d="M30.7895 6.2736
L30.6228 6.2736
" />
<path d="M30.6228 6.2736
L30.5561 6.2403
" />
<path d="M30.5561 6.2403
L30.5228 6.1736
" />
<path d="M30.5228 6.1736
L30.5228 6.1070
" />
<path d="M30.5228 6.1070
L30.5561 6.0403
" />
<path d="M30.5561 6.0403
L30.6228 6.0070
" />
<path d="M30.6228 6.0070
L30.7895 6.0070
" />
<path d="M30.7895 6.0070
L30.8561 5.9736
" />
<path d="M31.1895 6.2736
L31.1895 5.8070
" />
<path d="M31.1895 5.9403
L31.2228 5.8736
" />
<path d="M31.2228 5.8736
L31.2561 5.8403
" />
<path d="M31.2561 5.8403
L31.3228 5.8070
" />
<path d="M31.3228 5.8070
L31.3895 5.8070
" />
<path d="M31.9228 6.2736
L31.9228 5.5736
" />
<path d="M31.9228 6.2403
L31.8561 6.2736
" />
<path d="M31.8561 6.2736
L31.7228 6.2736
" />
<path d="M31.7228 6.2736
L31.6561 6.2403
" />
<path d="M31.6561 6.2403
L31.6228 6.2070
" />
<path d="M31.6228 6.2070
L31.5895 6.1403
" />
<path d="M31.5895 6.1403
L31.5895 5.9403
" />
<path d="M31.5895 5.9403
L31.6228 5.8736
" />
<path d="M31.6228 5.8736
L31.6561 5.8403
" />
<path d="M31.6561 5.8403
L31.7228 5.8070
" />
<path d="M31.7228 5.8070
L31.8561 5.8070
" />
<path d="M31.8561 5.8070
L31.9228 5.8403
" />
<path d="M33.0561 6.2403
L32.9895 6.2736
" />
<path d="M32.9895 6.2736
L32.8561 6.2736
" />
<path d="M32.8561 6.2736
L32.7895 6.2403
" />
<path d="M32.7895 6.2403
L32.7561 6.1736
" />
<path d="M32.7561 6.1736
L32.7561 5.9070
" />
<path d="M32.7561 5.9070
L32.7895 5.8403
" />
<path d="M32.7895 5.8403
L32.8561 5.8070
" />
<path d="M32.8561 5.8070
L32.9895 5.8070
" />
<path d="M32.9895 5.8070
L33.0561 5.8403
" />
<path d="M33.0561 5.8403
L33.0895 5.9070
" />
<path d="M33.0895 5.9070
L33.0895 5.9736
" />
<path d="M33.0895 5.9736
L32.7561 6.0403
" />
<path d="M33.6895 6.2736
L33.6895 5.5736
" />
<path d="M33.6895 6.2403
L33.6228 6.2736
" />
<path d="M33.6228 6.2736
L33.4895 6.2736
" />
<path d="M33.4895 6.2736
L33.4228 6.2403
" />
<path d="M33.4228 6.2403
L33.3895 6.2070
" />
<path d="M33.3895 6.2070
L33.3561 6.1403
" />
<path d="M33.3561 6.1403
L33.3561 5.9403
" />
<path d="M33.3561 5.9403
L33.3895 5.8736
" />
<path d="M33.3895 5.8736
L33.4228 5.8403
" />
<path d="M33.4228 5.8403
L33.4895 5.8070
" />
<path d="M33.4895 5.8070
L33.6228 5.8070
" />
<path d="M33.6228 5.8070
L33.6895 5.8403
" />
<path d="M34.3228 5.8070
L34.3228 6.3736
" />
<path d="M34.3228 6.3736
L34.2895 6.4403
" />
<path d="M34.2895 6.4403
L34.2561 6.4736
" />
<path d="M34.2561 6.4736
L34.1895 6.5070
" />
<path d="M34.1895 6.5070
L34.0895 6.5070
" />
<path d="M34.0895 6.5070
L34.0228 6.4736
" />
<path d="M34.3228 6.2403
L34.2561 6.2736
" />
<path d="M34.2561 6.2736
L34.1228 6.2736
" />
<path d="M34.1228 6.2736
L34.0561 6.2403
" />
<path d="M34.0561 6.2403
L34.0228 6.2070
" />
<path d="M34.0228 6.2070
L33.9895 6.1403
" />
<path d="M33.9895 6.1403
L33.9895 5.9403
" />
<path d="M33.9895 5.9403
L34.0228 5.8736
" />
<path d="M34.0228 5.8736
L34.0561 5.8403
" />
<path d="M34.0561 5.8403
L34.1228 5.8070
" />
<path d="M34.1228 5.8070
L34.2561 5.8070
" />
<path d="M34.2561 5.8070
L34.3228 5.8403
" />
<path d="M34.9228 6.2403
L34.8561 6.2736
" />
<path d="M34.8561 6.2736
L34.7228 6.2736
" />
<path d="M34.7228 6.2736
L34.6561 6.2403
" />
<path d="M34.6561 6.2403
L34.6228 6.1736
" />
<path d="M34.6228 6.1736
L34.6228 5.9070
" />
<path d="M34.6228 5.9070
L34.6561 5.8403
" />
<path d="M34.6561 5.8403
L34.7228 5.8070
" />
<path d="M34.7228 5.8070
L34.8561 5.8070
" />
<path d="M34.8561 5.8070
L34.9228 5.8403
" />
<path d="M34.9228 5.8403
L34.9561 5.9070
" />
<path d="M34.9561 5.9070
L34.9561 5.9736
" />
<path d="M34.9561 5.9736
L34.6228 6.0403
" />
</g><path d="M31.8728 7.3550
L32.0728 7.8550
" />
<path d="M32.0728 7.8550
L32.0728 6.5550
" />
<path d="M32.0728 7.8550
L32.2728 7.3550
" />
</g> 
</svg>
