<?xml version="1.0" standalone="no"?>
 <!DOCTYPE svg PUBLIC "-//W3C//DTD SVG 1.1//EN" 
 "http://www.w3.org/Graphics/SVG/1.1/DTD/svg11.dtd"> 
<svg
  xmlns:svg="http://www.w3.org/2000/svg"
  xmlns="http://www.w3.org/2000/svg"
  xmlns:xlink="http://www.w3.org/1999/xlink"
  version="1.1"
  width="53.0606mm" height="3.1496mm" viewBox="0.0000 0.0000 53.0606 3.1496">
<title>SVG Image created as working-brd.svg date 2024/04/20 13:27:06 </title>
  <desc>Image generated by PCBNEW </desc>
<g style="fill:#000000; fill-opacity:1.0000;stroke:#000000; stroke-opacity:1.0000;
stroke-linecap:round; stroke-linejoin:round;"
 transform="translate(0 0) scale(1 1)">
</g>
<g style="fill:#C83434; fill-opacity:1.0000; stroke:none;">
<circle cx="26.3392" cy="1.2385" r="0.1125" /> 
</g>
<g style="fill:#C83434; fill-opacity:1.0000; stroke:none;">
<circle cx="26.7392" cy="1.2385" r="0.1125" /> 
</g>
<g style="fill:#C83434; fill-opacity:1.0000; stroke:none;">
<circle cx="26.5392" cy="1.5850" r="0.1125" /> 
</g>
<g style="fill:#C83434; fill-opacity:1.0000; stroke:none;">
<circle cx="26.3392" cy="1.9315" r="0.1125" /> 
</g>
<g style="fill:#C83434; fill-opacity:1.0000; stroke:none;">
<circle cx="26.7392" cy="1.9315" r="0.1125" /> 
</g>
<g style="fill:#D864FF; fill-opacity:0.4000; stroke:none;">
<circle cx="26.3392" cy="1.2385" r="0.1625" /> 
</g>
<g style="fill:#D864FF; fill-opacity:0.4000; stroke:none;">
<circle cx="26.7392" cy="1.2385" r="0.1625" /> 
</g>
<g style="fill:#D864FF; fill-opacity:0.4000; stroke:none;">
<circle cx="26.5392" cy="1.5850" r="0.1625" /> 
</g>
<g style="fill:#D864FF; fill-opacity:0.4000; stroke:none;">
<circle cx="26.3392" cy="1.9315" r="0.1625" /> 
</g>
<g style="fill:#D864FF; fill-opacity:0.4000; stroke:none;">
<circle cx="26.7392" cy="1.9315" r="0.1625" /> 
<path style="fill:#B4A09A; fill-opacity:0.9000; stroke:none;fill-rule:evenodd;"
d="M 26.2142,1.3635
26.2142,1.1135
26.4642,1.1135
26.4642,1.3635
Z" /> 
<path style="fill:#B4A09A; fill-opacity:0.9000; stroke:none;fill-rule:evenodd;"
d="M 26.2142,2.0565
26.2142,1.8065
26.4642,1.8065
26.4642,2.0565
Z" /> 
<path style="fill:#B4A09A; fill-opacity:0.9000; stroke:none;fill-rule:evenodd;"
d="M 26.4142,1.7100
26.4142,1.4600
26.6642,1.4600
26.6642,1.7100
Z" /> 
<path style="fill:#B4A09A; fill-opacity:0.9000; stroke:none;fill-rule:evenodd;"
d="M 26.6142,1.3635
26.6142,1.1135
26.8642,1.1135
26.8642,1.3635
Z" /> 
<path style="fill:#B4A09A; fill-opacity:0.9000; stroke:none;fill-rule:evenodd;"
d="M 26.6142,2.0565
26.6142,1.8065
26.8642,1.8065
26.8642,2.0565
Z" /> 
</g>
<g style="fill:none; 
stroke:#F2EDA1; stroke-width:0.1588; stroke-opacity:1; 
stroke-linecap:round; stroke-linejoin:round;">
<text x="26.5392" y="2.2200"
textLength="5.6651" font-size="1.6933" lengthAdjust="spacingAndGlyphs"
text-anchor="middle" opacity="0">REF**</text>
<g class="stroked-text"><desc>REF**</desc>
<path d="M24.8459 2.1643
L24.4226 1.5595
" />
<path d="M24.1202 2.1643
L24.1202 0.8943
" />
<path d="M24.1202 0.8943
L24.6040 0.8943
" />
<path d="M24.6040 0.8943
L24.7249 0.9547
" />
<path d="M24.7249 0.9547
L24.7854 1.0152
" />
<path d="M24.7854 1.0152
L24.8459 1.1362
" />
<path d="M24.8459 1.1362
L24.8459 1.3176
" />
<path d="M24.8459 1.3176
L24.7854 1.4386
" />
<path d="M24.7854 1.4386
L24.7249 1.4990
" />
<path d="M24.7249 1.4990
L24.6040 1.5595
" />
<path d="M24.6040 1.5595
L24.1202 1.5595
" />
<path d="M25.3902 1.4990
L25.8135 1.4990
" />
<path d="M25.9949 2.1643
L25.3902 2.1643
" />
<path d="M25.3902 2.1643
L25.3902 0.8943
" />
<path d="M25.3902 0.8943
L25.9949 0.8943
" />
<path d="M26.9626 1.4990
L26.5392 1.4990
" />
<path d="M26.5392 2.1643
L26.5392 0.8943
" />
<path d="M26.5392 0.8943
L27.1440 0.8943
" />
<path d="M27.8092 0.8943
L27.8092 1.1967
" />
<path d="M27.5068 1.0757
L27.8092 1.1967
" />
<path d="M27.8092 1.1967
L28.1116 1.0757
" />
<path d="M27.6278 1.4386
L27.8092 1.1967
" />
<path d="M27.8092 1.1967
L27.9906 1.4386
" />
<path d="M28.7768 0.8943
L28.7768 1.1967
" />
<path d="M28.4745 1.0757
L28.7768 1.1967
" />
<path d="M28.7768 1.1967
L29.0792 1.0757
" />
<path d="M28.5954 1.4386
L28.7768 1.1967
" />
<path d="M28.7768 1.1967
L28.9583 1.4386
" />
</g></g>
<g style="fill:none; 
stroke:#F2EDA1; stroke-width:0.1200; stroke-opacity:1; 
stroke-linecap:round; stroke-linejoin:round;">
<path d="M26.0082 1.2270
L26.0082 2.2630
" />
<path d="M26.0082 2.2630
L27.0702 2.2630
" />
<path d="M27.0702 0.9070
L26.3282 0.9070
" />
<path d="M27.0702 0.9070
L27.0702 2.2630
" />
<path style="fill:#F2EDA1; fill-opacity:1.0000; 
stroke:#F2EDA1; stroke-width:0.1200; stroke-opacity:1; 
stroke-linecap:round; stroke-linejoin:round;fill-rule:evenodd;"
d="M 26.0082,0.9070
25.5082,0.9070
26.0082,0.4070
Z" /> 
</g>
<g style="fill:none; 
stroke:#FF26E2; stroke-width:0.0500; stroke-opacity:1; 
stroke-linecap:round; stroke-linejoin:round;">
<path d="M25.1192 0.0250
L25.1192 3.1450
" />
<path d="M25.1192 0.0250
L27.9592 0.0250
" />
<path d="M27.9592 3.1450
L25.1192 3.1450
" />
<path d="M27.9592 3.1450
L27.9592 0.0250
" />
</g>
<g style="fill:none; 
stroke:#AFAFAF; stroke-width:0.1588; stroke-opacity:1; 
stroke-linecap:round; stroke-linejoin:round;">
<text x="26.5392" y="2.2200"
textLength="53.0784" font-size="1.6933" lengthAdjust="spacingAndGlyphs"
text-anchor="middle" opacity="0">Texas_DSBGA-5_0.822x1.116mm_Layout2x1x2_P0.4mm</text>
<g class="stroked-text"><desc>Texas_DSBGA-5_0.822x1.116mm_Layout2x1x2_P0.4mm</desc>
<path d="M0.2321 0.8943
L0.9578 0.8943
" />
<path d="M0.5949 2.1643
L0.5949 0.8943
" />
<path d="M1.8649 2.1038
L1.7440 2.1643
" />
<path d="M1.7440 2.1643
L1.5021 2.1643
" />
<path d="M1.5021 2.1643
L1.3811 2.1038
" />
<path d="M1.3811 2.1038
L1.3206 1.9828
" />
<path d="M1.3206 1.9828
L1.3206 1.4990
" />
<path d="M1.3206 1.4990
L1.3811 1.3781
" />
<path d="M1.3811 1.3781
L1.5021 1.3176
" />
<path d="M1.5021 1.3176
L1.7440 1.3176
" />
<path d="M1.7440 1.3176
L1.8649 1.3781
" />
<path d="M1.8649 1.3781
L1.9254 1.4990
" />
<path d="M1.9254 1.4990
L1.9254 1.6200
" />
<path d="M1.9254 1.6200
L1.3206 1.7409
" />
<path d="M2.3487 2.1643
L3.0140 1.3176
" />
<path d="M2.3487 1.3176
L3.0140 2.1643
" />
<path d="M4.0421 2.1643
L4.0421 1.4990
" />
<path d="M4.0421 1.4990
L3.9816 1.3781
" />
<path d="M3.9816 1.3781
L3.8606 1.3176
" />
<path d="M3.8606 1.3176
L3.6187 1.3176
" />
<path d="M3.6187 1.3176
L3.4978 1.3781
" />
<path d="M4.0421 2.1038
L3.9211 2.1643
" />
<path d="M3.9211 2.1643
L3.6187 2.1643
" />
<path d="M3.6187 2.1643
L3.4978 2.1038
" />
<path d="M3.4978 2.1038
L3.4373 1.9828
" />
<path d="M3.4373 1.9828
L3.4373 1.8619
" />
<path d="M3.4373 1.8619
L3.4978 1.7409
" />
<path d="M3.4978 1.7409
L3.6187 1.6805
" />
<path d="M3.6187 1.6805
L3.9211 1.6805
" />
<path d="M3.9211 1.6805
L4.0421 1.6200
" />
<path d="M4.5864 2.1038
L4.7073 2.1643
" />
<path d="M4.7073 2.1643
L4.9492 2.1643
" />
<path d="M4.9492 2.1643
L5.0702 2.1038
" />
<path d="M5.0702 2.1038
L5.1306 1.9828
" />
<path d="M5.1306 1.9828
L5.1306 1.9224
" />
<path d="M5.1306 1.9224
L5.0702 1.8014
" />
<path d="M5.0702 1.8014
L4.9492 1.7409
" />
<path d="M4.9492 1.7409
L4.7678 1.7409
" />
<path d="M4.7678 1.7409
L4.6468 1.6805
" />
<path d="M4.6468 1.6805
L4.5864 1.5595
" />
<path d="M4.5864 1.5595
L4.5864 1.4990
" />
<path d="M4.5864 1.4990
L4.6468 1.3781
" />
<path d="M4.6468 1.3781
L4.7678 1.3176
" />
<path d="M4.7678 1.3176
L4.9492 1.3176
" />
<path d="M4.9492 1.3176
L5.0702 1.3781
" />
<path d="M5.3726 2.2852
L6.3402 2.2852
" />
<path d="M6.6426 2.1643
L6.6426 0.8943
" />
<path d="M6.6426 0.8943
L6.9449 0.8943
" />
<path d="M6.9449 0.8943
L7.1264 0.9547
" />
<path d="M7.1264 0.9547
L7.2473 1.0757
" />
<path d="M7.2473 1.0757
L7.3078 1.1967
" />
<path d="M7.3078 1.1967
L7.3683 1.4386
" />
<path d="M7.3683 1.4386
L7.3683 1.6200
" />
<path d="M7.3683 1.6200
L7.3078 1.8619
" />
<path d="M7.3078 1.8619
L7.2473 1.9828
" />
<path d="M7.2473 1.9828
L7.1264 2.1038
" />
<path d="M7.1264 2.1038
L6.9449 2.1643
" />
<path d="M6.9449 2.1643
L6.6426 2.1643
" />
<path d="M7.8521 2.1038
L8.0335 2.1643
" />
<path d="M8.0335 2.1643
L8.3359 2.1643
" />
<path d="M8.3359 2.1643
L8.4568 2.1038
" />
<path d="M8.4568 2.1038
L8.5173 2.0433
" />
<path d="M8.5173 2.0433
L8.5778 1.9224
" />
<path d="M8.5778 1.9224
L8.5778 1.8014
" />
<path d="M8.5778 1.8014
L8.5173 1.6805
" />
<path d="M8.5173 1.6805
L8.4568 1.6200
" />
<path d="M8.4568 1.6200
L8.3359 1.5595
" />
<path d="M8.3359 1.5595
L8.0940 1.4990
" />
<path d="M8.0940 1.4990
L7.9730 1.4386
" />
<path d="M7.9730 1.4386
L7.9126 1.3781
" />
<path d="M7.9126 1.3781
L7.8521 1.2571
" />
<path d="M7.8521 1.2571
L7.8521 1.1362
" />
<path d="M7.8521 1.1362
L7.9126 1.0152
" />
<path d="M7.9126 1.0152
L7.9730 0.9547
" />
<path d="M7.9730 0.9547
L8.0940 0.8943
" />
<path d="M8.0940 0.8943
L8.3964 0.8943
" />
<path d="M8.3964 0.8943
L8.5778 0.9547
" />
<path d="M9.5454 1.4990
L9.7268 1.5595
" />
<path d="M9.7268 1.5595
L9.7873 1.6200
" />
<path d="M9.7873 1.6200
L9.8478 1.7409
" />
<path d="M9.8478 1.7409
L9.8478 1.9224
" />
<path d="M9.8478 1.9224
L9.7873 2.0433
" />
<path d="M9.7873 2.0433
L9.7268 2.1038
" />
<path d="M9.7268 2.1038
L9.6059 2.1643
" />
<path d="M9.6059 2.1643
L9.1221 2.1643
" />
<path d="M9.1221 2.1643
L9.1221 0.8943
" />
<path d="M9.1221 0.8943
L9.5454 0.8943
" />
<path d="M9.5454 0.8943
L9.6664 0.9547
" />
<path d="M9.6664 0.9547
L9.7268 1.0152
" />
<path d="M9.7268 1.0152
L9.7873 1.1362
" />
<path d="M9.7873 1.1362
L9.7873 1.2571
" />
<path d="M9.7873 1.2571
L9.7268 1.3781
" />
<path d="M9.7268 1.3781
L9.6664 1.4386
" />
<path d="M9.6664 1.4386
L9.5454 1.4990
" />
<path d="M9.5454 1.4990
L9.1221 1.4990
" />
<path d="M11.0573 0.9547
L10.9364 0.8943
" />
<path d="M10.9364 0.8943
L10.7549 0.8943
" />
<path d="M10.7549 0.8943
L10.5735 0.9547
" />
<path d="M10.5735 0.9547
L10.4526 1.0757
" />
<path d="M10.4526 1.0757
L10.3921 1.1967
" />
<path d="M10.3921 1.1967
L10.3316 1.4386
" />
<path d="M10.3316 1.4386
L10.3316 1.6200
" />
<path d="M10.3316 1.6200
L10.3921 1.8619
" />
<path d="M10.3921 1.8619
L10.4526 1.9828
" />
<path d="M10.4526 1.9828
L10.5735 2.1038
" />
<path d="M10.5735 2.1038
L10.7549 2.1643
" />
<path d="M10.7549 2.1643
L10.8759 2.1643
" />
<path d="M10.8759 2.1643
L11.0573 2.1038
" />
<path d="M11.0573 2.1038
L11.1178 2.0433
" />
<path d="M11.1178 2.0433
L11.1178 1.6200
" />
<path d="M11.1178 1.6200
L10.8759 1.6200
" />
<path d="M11.6016 1.8014
L12.2064 1.8014
" />
<path d="M11.4806 2.1643
L11.9040 0.8943
" />
<path d="M11.9040 0.8943
L12.3273 2.1643
" />
<path d="M12.7506 1.6805
L13.7183 1.6805
" />
<path d="M14.9278 0.8943
L14.3230 0.8943
" />
<path d="M14.3230 0.8943
L14.2626 1.4990
" />
<path d="M14.2626 1.4990
L14.3230 1.4386
" />
<path d="M14.3230 1.4386
L14.4440 1.3781
" />
<path d="M14.4440 1.3781
L14.7464 1.3781
" />
<path d="M14.7464 1.3781
L14.8673 1.4386
" />
<path d="M14.8673 1.4386
L14.9278 1.4990
" />
<path d="M14.9278 1.4990
L14.9883 1.6200
" />
<path d="M14.9883 1.6200
L14.9883 1.9224
" />
<path d="M14.9883 1.9224
L14.9278 2.0433
" />
<path d="M14.9278 2.0433
L14.8673 2.1038
" />
<path d="M14.8673 2.1038
L14.7464 2.1643
" />
<path d="M14.7464 2.1643
L14.4440 2.1643
" />
<path d="M14.4440 2.1643
L14.3230 2.1038
" />
<path d="M14.3230 2.1038
L14.2626 2.0433
" />
<path d="M15.2302 2.2852
L16.1978 2.2852
" />
<path d="M16.7421 0.8943
L16.8630 0.8943
" />
<path d="M16.8630 0.8943
L16.9840 0.9547
" />
<path d="M16.9840 0.9547
L17.0445 1.0152
" />
<path d="M17.0445 1.0152
L17.1049 1.1362
" />
<path d="M17.1049 1.1362
L17.1654 1.3781
" />
<path d="M17.1654 1.3781
L17.1654 1.6805
" />
<path d="M17.1654 1.6805
L17.1049 1.9224
" />
<path d="M17.1049 1.9224
L17.0445 2.0433
" />
<path d="M17.0445 2.0433
L16.9840 2.1038
" />
<path d="M16.9840 2.1038
L16.8630 2.1643
" />
<path d="M16.8630 2.1643
L16.7421 2.1643
" />
<path d="M16.7421 2.1643
L16.6211 2.1038
" />
<path d="M16.6211 2.1038
L16.5606 2.0433
" />
<path d="M16.5606 2.0433
L16.5002 1.9224
" />
<path d="M16.5002 1.9224
L16.4397 1.6805
" />
<path d="M16.4397 1.6805
L16.4397 1.3781
" />
<path d="M16.4397 1.3781
L16.5002 1.1362
" />
<path d="M16.5002 1.1362
L16.5606 1.0152
" />
<path d="M16.5606 1.0152
L16.6211 0.9547
" />
<path d="M16.6211 0.9547
L16.7421 0.8943
" />
<path d="M17.7097 2.0433
L17.7702 2.1038
" />
<path d="M17.7702 2.1038
L17.7097 2.1643
" />
<path d="M17.7097 2.1643
L17.6492 2.1038
" />
<path d="M17.6492 2.1038
L17.7097 2.0433
" />
<path d="M17.7097 2.0433
L17.7097 2.1643
" />
<path d="M18.4959 1.4386
L18.3749 1.3781
" />
<path d="M18.3749 1.3781
L18.3145 1.3176
" />
<path d="M18.3145 1.3176
L18.2540 1.1967
" />
<path d="M18.2540 1.1967
L18.2540 1.1362
" />
<path d="M18.2540 1.1362
L18.3145 1.0152
" />
<path d="M18.3145 1.0152
L18.3749 0.9547
" />
<path d="M18.3749 0.9547
L18.4959 0.8943
" />
<path d="M18.4959 0.8943
L18.7378 0.8943
" />
<path d="M18.7378 0.8943
L18.8587 0.9547
" />
<path d="M18.8587 0.9547
L18.9192 1.0152
" />
<path d="M18.9192 1.0152
L18.9797 1.1362
" />
<path d="M18.9797 1.1362
L18.9797 1.1967
" />
<path d="M18.9797 1.1967
L18.9192 1.3176
" />
<path d="M18.9192 1.3176
L18.8587 1.3781
" />
<path d="M18.8587 1.3781
L18.7378 1.4386
" />
<path d="M18.7378 1.4386
L18.4959 1.4386
" />
<path d="M18.4959 1.4386
L18.3749 1.4990
" />
<path d="M18.3749 1.4990
L18.3145 1.5595
" />
<path d="M18.3145 1.5595
L18.2540 1.6805
" />
<path d="M18.2540 1.6805
L18.2540 1.9224
" />
<path d="M18.2540 1.9224
L18.3145 2.0433
" />
<path d="M18.3145 2.0433
L18.3749 2.1038
" />
<path d="M18.3749 2.1038
L18.4959 2.1643
" />
<path d="M18.4959 2.1643
L18.7378 2.1643
" />
<path d="M18.7378 2.1643
L18.8587 2.1038
" />
<path d="M18.8587 2.1038
L18.9192 2.0433
" />
<path d="M18.9192 2.0433
L18.9797 1.9224
" />
<path d="M18.9797 1.9224
L18.9797 1.6805
" />
<path d="M18.9797 1.6805
L18.9192 1.5595
" />
<path d="M18.9192 1.5595
L18.8587 1.4990
" />
<path d="M18.8587 1.4990
L18.7378 1.4386
" />
<path d="M19.4635 1.0152
L19.5240 0.9547
" />
<path d="M19.5240 0.9547
L19.6449 0.8943
" />
<path d="M19.6449 0.8943
L19.9473 0.8943
" />
<path d="M19.9473 0.8943
L20.0683 0.9547
" />
<path d="M20.0683 0.9547
L20.1287 1.0152
" />
<path d="M20.1287 1.0152
L20.1892 1.1362
" />
<path d="M20.1892 1.1362
L20.1892 1.2571
" />
<path d="M20.1892 1.2571
L20.1287 1.4386
" />
<path d="M20.1287 1.4386
L19.4030 2.1643
" />
<path d="M19.4030 2.1643
L20.1892 2.1643
" />
<path d="M20.6730 1.0152
L20.7335 0.9547
" />
<path d="M20.7335 0.9547
L20.8545 0.8943
" />
<path d="M20.8545 0.8943
L21.1568 0.8943
" />
<path d="M21.1568 0.8943
L21.2778 0.9547
" />
<path d="M21.2778 0.9547
L21.3383 1.0152
" />
<path d="M21.3383 1.0152
L21.3987 1.1362
" />
<path d="M21.3987 1.1362
L21.3987 1.2571
" />
<path d="M21.3987 1.2571
L21.3383 1.4386
" />
<path d="M21.3383 1.4386
L20.6126 2.1643
" />
<path d="M20.6126 2.1643
L21.3987 2.1643
" />
<path d="M21.8221 2.1643
L22.4873 1.3176
" />
<path d="M21.8221 1.3176
L22.4873 2.1643
" />
<path d="M23.6364 2.1643
L22.9106 2.1643
" />
<path d="M23.2735 2.1643
L23.2735 0.8943
" />
<path d="M23.2735 0.8943
L23.1526 1.0757
" />
<path d="M23.1526 1.0757
L23.0316 1.1967
" />
<path d="M23.0316 1.1967
L22.9106 1.2571
" />
<path d="M24.1806 2.0433
L24.2411 2.1038
" />
<path d="M24.2411 2.1038
L24.1806 2.1643
" />
<path d="M24.1806 2.1643
L24.1202 2.1038
" />
<path d="M24.1202 2.1038
L24.1806 2.0433
" />
<path d="M24.1806 2.0433
L24.1806 2.1643
" />
<path d="M25.4506 2.1643
L24.7249 2.1643
" />
<path d="M25.0878 2.1643
L25.0878 0.8943
" />
<path d="M25.0878 0.8943
L24.9668 1.0757
" />
<path d="M24.9668 1.0757
L24.8459 1.1967
" />
<path d="M24.8459 1.1967
L24.7249 1.2571
" />
<path d="M26.6602 2.1643
L25.9345 2.1643
" />
<path d="M26.2973 2.1643
L26.2973 0.8943
" />
<path d="M26.2973 0.8943
L26.1764 1.0757
" />
<path d="M26.1764 1.0757
L26.0554 1.1967
" />
<path d="M26.0554 1.1967
L25.9345 1.2571
" />
<path d="M27.7487 0.8943
L27.5068 0.8943
" />
<path d="M27.5068 0.8943
L27.3859 0.9547
" />
<path d="M27.3859 0.9547
L27.3254 1.0152
" />
<path d="M27.3254 1.0152
L27.2045 1.1967
" />
<path d="M27.2045 1.1967
L27.1440 1.4386
" />
<path d="M27.1440 1.4386
L27.1440 1.9224
" />
<path d="M27.1440 1.9224
L27.2045 2.0433
" />
<path d="M27.2045 2.0433
L27.2649 2.1038
" />
<path d="M27.2649 2.1038
L27.3859 2.1643
" />
<path d="M27.3859 2.1643
L27.6278 2.1643
" />
<path d="M27.6278 2.1643
L27.7487 2.1038
" />
<path d="M27.7487 2.1038
L27.8092 2.0433
" />
<path d="M27.8092 2.0433
L27.8697 1.9224
" />
<path d="M27.8697 1.9224
L27.8697 1.6200
" />
<path d="M27.8697 1.6200
L27.8092 1.4990
" />
<path d="M27.8092 1.4990
L27.7487 1.4386
" />
<path d="M27.7487 1.4386
L27.6278 1.3781
" />
<path d="M27.6278 1.3781
L27.3859 1.3781
" />
<path d="M27.3859 1.3781
L27.2649 1.4386
" />
<path d="M27.2649 1.4386
L27.2045 1.4990
" />
<path d="M27.2045 1.4990
L27.1440 1.6200
" />
<path d="M28.4140 2.1643
L28.4140 1.3176
" />
<path d="M28.4140 1.4386
L28.4745 1.3781
" />
<path d="M28.4745 1.3781
L28.5954 1.3176
" />
<path d="M28.5954 1.3176
L28.7768 1.3176
" />
<path d="M28.7768 1.3176
L28.8978 1.3781
" />
<path d="M28.8978 1.3781
L28.9583 1.4990
" />
<path d="M28.9583 1.4990
L28.9583 2.1643
" />
<path d="M28.9583 1.4990
L29.0187 1.3781
" />
<path d="M29.0187 1.3781
L29.1397 1.3176
" />
<path d="M29.1397 1.3176
L29.3211 1.3176
" />
<path d="M29.3211 1.3176
L29.4421 1.3781
" />
<path d="M29.4421 1.3781
L29.5026 1.4990
" />
<path d="M29.5026 1.4990
L29.5026 2.1643
" />
<path d="M30.1073 2.1643
L30.1073 1.3176
" />
<path d="M30.1073 1.4386
L30.1678 1.3781
" />
<path d="M30.1678 1.3781
L30.2887 1.3176
" />
<path d="M30.2887 1.3176
L30.4702 1.3176
" />
<path d="M30.4702 1.3176
L30.5911 1.3781
" />
<path d="M30.5911 1.3781
L30.6516 1.4990
" />
<path d="M30.6516 1.4990
L30.6516 2.1643
" />
<path d="M30.6516 1.4990
L30.7121 1.3781
" />
<path d="M30.7121 1.3781
L30.8330 1.3176
" />
<path d="M30.8330 1.3176
L31.0145 1.3176
" />
<path d="M31.0145 1.3176
L31.1354 1.3781
" />
<path d="M31.1354 1.3781
L31.1959 1.4990
" />
<path d="M31.1959 1.4990
L31.1959 2.1643
" />
<path d="M31.4983 2.2852
L32.4659 2.2852
" />
<path d="M33.3730 2.1643
L32.7683 2.1643
" />
<path d="M32.7683 2.1643
L32.7683 0.8943
" />
<path d="M34.3406 2.1643
L34.3406 1.4990
" />
<path d="M34.3406 1.4990
L34.2802 1.3781
" />
<path d="M34.2802 1.3781
L34.1592 1.3176
" />
<path d="M34.1592 1.3176
L33.9173 1.3176
" />
<path d="M33.9173 1.3176
L33.7964 1.3781
" />
<path d="M34.3406 2.1038
L34.2197 2.1643
" />
<path d="M34.2197 2.1643
L33.9173 2.1643
" />
<path d="M33.9173 2.1643
L33.7964 2.1038
" />
<path d="M33.7964 2.1038
L33.7359 1.9828
" />
<path d="M33.7359 1.9828
L33.7359 1.8619
" />
<path d="M33.7359 1.8619
L33.7964 1.7409
" />
<path d="M33.7964 1.7409
L33.9173 1.6805
" />
<path d="M33.9173 1.6805
L34.2197 1.6805
" />
<path d="M34.2197 1.6805
L34.3406 1.6200
" />
<path d="M34.8245 1.3176
L35.1268 2.1643
" />
<path d="M35.4292 1.3176
L35.1268 2.1643
" />
<path d="M35.1268 2.1643
L35.0059 2.4667
" />
<path d="M35.0059 2.4667
L34.9454 2.5271
" />
<path d="M34.9454 2.5271
L34.8245 2.5876
" />
<path d="M36.0945 2.1643
L35.9735 2.1038
" />
<path d="M35.9735 2.1038
L35.9130 2.0433
" />
<path d="M35.9130 2.0433
L35.8526 1.9224
" />
<path d="M35.8526 1.9224
L35.8526 1.5595
" />
<path d="M35.8526 1.5595
L35.9130 1.4386
" />
<path d="M35.9130 1.4386
L35.9735 1.3781
" />
<path d="M35.9735 1.3781
L36.0945 1.3176
" />
<path d="M36.0945 1.3176
L36.2759 1.3176
" />
<path d="M36.2759 1.3176
L36.3968 1.3781
" />
<path d="M36.3968 1.3781
L36.4573 1.4386
" />
<path d="M36.4573 1.4386
L36.5178 1.5595
" />
<path d="M36.5178 1.5595
L36.5178 1.9224
" />
<path d="M36.5178 1.9224
L36.4573 2.0433
" />
<path d="M36.4573 2.0433
L36.3968 2.1038
" />
<path d="M36.3968 2.1038
L36.2759 2.1643
" />
<path d="M36.2759 2.1643
L36.0945 2.1643
" />
<path d="M37.6064 1.3176
L37.6064 2.1643
" />
<path d="M37.0621 1.3176
L37.0621 1.9828
" />
<path d="M37.0621 1.9828
L37.1226 2.1038
" />
<path d="M37.1226 2.1038
L37.2435 2.1643
" />
<path d="M37.2435 2.1643
L37.4249 2.1643
" />
<path d="M37.4249 2.1643
L37.5459 2.1038
" />
<path d="M37.5459 2.1038
L37.6064 2.0433
" />
<path d="M38.0297 1.3176
L38.5135 1.3176
" />
<path d="M38.2111 0.8943
L38.2111 1.9828
" />
<path d="M38.2111 1.9828
L38.2716 2.1038
" />
<path d="M38.2716 2.1038
L38.3926 2.1643
" />
<path d="M38.3926 2.1643
L38.5135 2.1643
" />
<path d="M38.8764 1.0152
L38.9368 0.9547
" />
<path d="M38.9368 0.9547
L39.0578 0.8943
" />
<path d="M39.0578 0.8943
L39.3602 0.8943
" />
<path d="M39.3602 0.8943
L39.4811 0.9547
" />
<path d="M39.4811 0.9547
L39.5416 1.0152
" />
<path d="M39.5416 1.0152
L39.6021 1.1362
" />
<path d="M39.6021 1.1362
L39.6021 1.2571
" />
<path d="M39.6021 1.2571
L39.5416 1.4386
" />
<path d="M39.5416 1.4386
L38.8159 2.1643
" />
<path d="M38.8159 2.1643
L39.6021 2.1643
" />
<path d="M40.0254 2.1643
L40.6906 1.3176
" />
<path d="M40.0254 1.3176
L40.6906 2.1643
" />
<path d="M41.8397 2.1643
L41.1140 2.1643
" />
<path d="M41.4768 2.1643
L41.4768 0.8943
" />
<path d="M41.4768 0.8943
L41.3559 1.0757
" />
<path d="M41.3559 1.0757
L41.2349 1.1967
" />
<path d="M41.2349 1.1967
L41.1140 1.2571
" />
<path d="M42.2630 2.1643
L42.9283 1.3176
" />
<path d="M42.2630 1.3176
L42.9283 2.1643
" />
<path d="M43.3516 1.0152
L43.4121 0.9547
" />
<path d="M43.4121 0.9547
L43.5330 0.8943
" />
<path d="M43.5330 0.8943
L43.8354 0.8943
" />
<path d="M43.8354 0.8943
L43.9564 0.9547
" />
<path d="M43.9564 0.9547
L44.0168 1.0152
" />
<path d="M44.0168 1.0152
L44.0773 1.1362
" />
<path d="M44.0773 1.1362
L44.0773 1.2571
" />
<path d="M44.0773 1.2571
L44.0168 1.4386
" />
<path d="M44.0168 1.4386
L43.2911 2.1643
" />
<path d="M43.2911 2.1643
L44.0773 2.1643
" />
<path d="M44.3192 2.2852
L45.2868 2.2852
" />
<path d="M45.5892 2.1643
L45.5892 0.8943
" />
<path d="M45.5892 0.8943
L46.0730 0.8943
" />
<path d="M46.0730 0.8943
L46.1940 0.9547
" />
<path d="M46.1940 0.9547
L46.2545 1.0152
" />
<path d="M46.2545 1.0152
L46.3149 1.1362
" />
<path d="M46.3149 1.1362
L46.3149 1.3176
" />
<path d="M46.3149 1.3176
L46.2545 1.4386
" />
<path d="M46.2545 1.4386
L46.1940 1.4990
" />
<path d="M46.1940 1.4990
L46.0730 1.5595
" />
<path d="M46.0730 1.5595
L45.5892 1.5595
" />
<path d="M47.1011 0.8943
L47.2221 0.8943
" />
<path d="M47.2221 0.8943
L47.3430 0.9547
" />
<path d="M47.3430 0.9547
L47.4035 1.0152
" />
<path d="M47.4035 1.0152
L47.4640 1.1362
" />
<path d="M47.4640 1.1362
L47.5245 1.3781
" />
<path d="M47.5245 1.3781
L47.5245 1.6805
" />
<path d="M47.5245 1.6805
L47.4640 1.9224
" />
<path d="M47.4640 1.9224
L47.4035 2.0433
" />
<path d="M47.4035 2.0433
L47.3430 2.1038
" />
<path d="M47.3430 2.1038
L47.2221 2.1643
" />
<path d="M47.2221 2.1643
L47.1011 2.1643
" />
<path d="M47.1011 2.1643
L46.9802 2.1038
" />
<path d="M46.9802 2.1038
L46.9197 2.0433
" />
<path d="M46.9197 2.0433
L46.8592 1.9224
" />
<path d="M46.8592 1.9224
L46.7987 1.6805
" />
<path d="M46.7987 1.6805
L46.7987 1.3781
" />
<path d="M46.7987 1.3781
L46.8592 1.1362
" />
<path d="M46.8592 1.1362
L46.9197 1.0152
" />
<path d="M46.9197 1.0152
L46.9802 0.9547
" />
<path d="M46.9802 0.9547
L47.1011 0.8943
" />
<path d="M48.0687 2.0433
L48.1292 2.1038
" />
<path d="M48.1292 2.1038
L48.0687 2.1643
" />
<path d="M48.0687 2.1643
L48.0083 2.1038
" />
<path d="M48.0083 2.1038
L48.0687 2.0433
" />
<path d="M48.0687 2.0433
L48.0687 2.1643
" />
<path d="M49.2178 1.3176
L49.2178 2.1643
" />
<path d="M48.9154 0.8338
L48.6130 1.7409
" />
<path d="M48.6130 1.7409
L49.3992 1.7409
" />
<path d="M49.8830 2.1643
L49.8830 1.3176
" />
<path d="M49.8830 1.4386
L49.9435 1.3781
" />
<path d="M49.9435 1.3781
L50.0645 1.3176
" />
<path d="M50.0645 1.3176
L50.2459 1.3176
" />
<path d="M50.2459 1.3176
L50.3668 1.3781
" />
<path d="M50.3668 1.3781
L50.4273 1.4990
" />
<path d="M50.4273 1.4990
L50.4273 2.1643
" />
<path d="M50.4273 1.4990
L50.4878 1.3781
" />
<path d="M50.4878 1.3781
L50.6087 1.3176
" />
<path d="M50.6087 1.3176
L50.7902 1.3176
" />
<path d="M50.7902 1.3176
L50.9111 1.3781
" />
<path d="M50.9111 1.3781
L50.9716 1.4990
" />
<path d="M50.9716 1.4990
L50.9716 2.1643
" />
<path d="M51.5764 2.1643
L51.5764 1.3176
" />
<path d="M51.5764 1.4386
L51.6368 1.3781
" />
<path d="M51.6368 1.3781
L51.7578 1.3176
" />
<path d="M51.7578 1.3176
L51.9392 1.3176
" />
<path d="M51.9392 1.3176
L52.0602 1.3781
" />
<path d="M52.0602 1.3781
L52.1206 1.4990
" />
<path d="M52.1206 1.4990
L52.1206 2.1643
" />
<path d="M52.1206 1.4990
L52.1811 1.3781
" />
<path d="M52.1811 1.3781
L52.3021 1.3176
" />
<path d="M52.3021 1.3176
L52.4835 1.3176
" />
<path d="M52.4835 1.3176
L52.6045 1.3781
" />
<path d="M52.6045 1.3781
L52.6649 1.4990
" />
<path d="M52.6649 1.4990
L52.6649 2.1643
" />
</g></g>
<g style="fill:none; 
stroke:#AFAFAF; stroke-width:0.0500; stroke-opacity:1; 
stroke-linecap:round; stroke-linejoin:round;">
<g transform="rotate(-90.000000 26.5392 1.5850)">
<text x="26.5392" y="1.7350"
textLength="1.3757" font-size="0.4000" lengthAdjust="spacingAndGlyphs"
text-anchor="middle" opacity="0">REF**</text>
</g>
<g class="stroked-text"><desc>REF**</desc>
<path d="M26.6754 1.9850
L26.5325 2.0850
" />
<path d="M26.6754 2.1564
L26.3754 2.1564
" />
<path d="M26.3754 2.1564
L26.3754 2.0421
" />
<path d="M26.3754 2.0421
L26.3897 2.0136
" />
<path d="M26.3897 2.0136
L26.4040 1.9993
" />
<path d="M26.4040 1.9993
L26.4325 1.9850
" />
<path d="M26.4325 1.9850
L26.4754 1.9850
" />
<path d="M26.4754 1.9850
L26.5040 1.9993
" />
<path d="M26.5040 1.9993
L26.5183 2.0136
" />
<path d="M26.5183 2.0136
L26.5325 2.0421
" />
<path d="M26.5325 2.0421
L26.5325 2.1564
" />
<path d="M26.5183 1.8564
L26.5183 1.7564
" />
<path d="M26.6754 1.7136
L26.6754 1.8564
" />
<path d="M26.6754 1.8564
L26.3754 1.8564
" />
<path d="M26.3754 1.8564
L26.3754 1.7136
" />
<path d="M26.5183 1.4850
L26.5183 1.5850
" />
<path d="M26.6754 1.5850
L26.3754 1.5850
" />
<path d="M26.3754 1.5850
L26.3754 1.4421
" />
<path d="M26.3754 1.2850
L26.4468 1.2850
" />
<path d="M26.4183 1.3564
L26.4468 1.2850
" />
<path d="M26.4468 1.2850
L26.4183 1.2136
" />
<path d="M26.5040 1.3279
L26.4468 1.2850
" />
<path d="M26.4468 1.2850
L26.5040 1.2421
" />
<path d="M26.3754 1.0564
L26.4468 1.0564
" />
<path d="M26.4183 1.1279
L26.4468 1.0564
" />
<path d="M26.4468 1.0564
L26.4183 0.9850
" />
<path d="M26.5040 1.0993
L26.4468 1.0564
" />
<path d="M26.4468 1.0564
L26.5040 1.0136
" />
</g></g>
<g style="fill:none; 
stroke:#AFAFAF; stroke-width:0.1000; stroke-opacity:1; 
stroke-linecap:round; stroke-linejoin:round;">
<path d="M26.1282 1.2270
L26.1282 2.1430
" />
<path d="M26.1282 1.2270
L26.3282 1.0270
" />
<path d="M26.1282 2.1430
L26.9502 2.1430
" />
<path d="M26.9502 1.0270
L26.3282 1.0270
" />
<path d="M26.9502 2.1430
L26.9502 1.0270
" />
</g> 
</svg>
