<?xml version="1.0" standalone="no"?>
 <!DOCTYPE svg PUBLIC "-//W3C//DTD SVG 1.1//EN" 
 "http://www.w3.org/Graphics/SVG/1.1/DTD/svg11.dtd"> 
<svg
  xmlns:svg="http://www.w3.org/2000/svg"
  xmlns="http://www.w3.org/2000/svg"
  xmlns:xlink="http://www.w3.org/1999/xlink"
  version="1.1"
  width="26.3906mm" height="17.3482mm" viewBox="0.0000 0.0000 26.3906 17.3482">
<title>SVG Image created as working-brd.svg date 2024/04/18 11:56:10 </title>
  <desc>Image generated by PCBNEW </desc>
<g style="fill:#000000; fill-opacity:1.0000;stroke:#000000; stroke-opacity:1.0000;
stroke-linecap:round; stroke-linejoin:round;"
 transform="translate(0 0) scale(1 1)">
</g>
<g style="fill:#FFFFFF; fill-opacity:1.0000; stroke:none;">
<circle cx="13.2042" cy="1.0250" r="0.4000" /> 
</g>
<g style="fill:#FFFFFF; fill-opacity:1.0000; stroke:none;">
<circle cx="18.1042" cy="1.0250" r="0.4000" /> 
</g>
<g style="fill:#02FFEE; fill-opacity:0.4000; stroke:none;">
<circle cx="13.2042" cy="1.0250" r="0.7500" /> 
</g>
<g style="fill:#02FFEE; fill-opacity:0.4000; stroke:none;">
<circle cx="18.1042" cy="1.0250" r="0.7500" /> 
</g>
<g style="fill:#FFFFFF; fill-opacity:1.0000; stroke:none;">
<circle cx="13.2042" cy="1.0250" r="0.4000" /> 
</g>
<g style="fill:#FFFFFF; fill-opacity:1.0000; stroke:none;">
<circle cx="18.1042" cy="1.0250" r="0.4000" /> 
</g>
<g style="fill:#FFFFFF; fill-opacity:1.0000; stroke:none;">
<circle cx="13.2042" cy="1.0250" r="0.4000" /> 
</g>
<g style="fill:#FFFFFF; fill-opacity:1.0000; stroke:none;">
<circle cx="18.1042" cy="1.0250" r="0.4000" /> 
</g>
<g style="fill:#D864FF; fill-opacity:0.4000; stroke:none;">
<circle cx="13.2042" cy="1.0250" r="0.7500" /> 
</g>
<g style="fill:#D864FF; fill-opacity:0.4000; stroke:none;">
<circle cx="18.1042" cy="1.0250" r="0.7500" /> 
</g>
<g style="fill:none; 
stroke:#F2EDA1; stroke-width:0.1588; stroke-opacity:1; 
stroke-linecap:round; stroke-linejoin:round;">
<text x="13.2042" y="1.6600"
textLength="5.6651" font-size="1.6933" lengthAdjust="spacingAndGlyphs"
text-anchor="middle" opacity="0">REF**</text>
<g class="stroked-text"><desc>REF**</desc>
<path d="M11.5109 1.6043
L11.0876 0.9995
" />
<path d="M10.7852 1.6043
L10.7852 0.3343
" />
<path d="M10.7852 0.3343
L11.2690 0.3343
" />
<path d="M11.2690 0.3343
L11.3899 0.3947
" />
<path d="M11.3899 0.3947
L11.4504 0.4552
" />
<path d="M11.4504 0.4552
L11.5109 0.5762
" />
<path d="M11.5109 0.5762
L11.5109 0.7576
" />
<path d="M11.5109 0.7576
L11.4504 0.8786
" />
<path d="M11.4504 0.8786
L11.3899 0.9390
" />
<path d="M11.3899 0.9390
L11.2690 0.9995
" />
<path d="M11.2690 0.9995
L10.7852 0.9995
" />
<path d="M12.0552 0.9390
L12.4785 0.9390
" />
<path d="M12.6599 1.6043
L12.0552 1.6043
" />
<path d="M12.0552 1.6043
L12.0552 0.3343
" />
<path d="M12.0552 0.3343
L12.6599 0.3343
" />
<path d="M13.6276 0.9390
L13.2042 0.9390
" />
<path d="M13.2042 1.6043
L13.2042 0.3343
" />
<path d="M13.2042 0.3343
L13.8090 0.3343
" />
<path d="M14.4742 0.3343
L14.4742 0.6367
" />
<path d="M14.1718 0.5157
L14.4742 0.6367
" />
<path d="M14.4742 0.6367
L14.7766 0.5157
" />
<path d="M14.2928 0.8786
L14.4742 0.6367
" />
<path d="M14.4742 0.6367
L14.6556 0.8786
" />
<path d="M15.4418 0.3343
L15.4418 0.6367
" />
<path d="M15.1395 0.5157
L15.4418 0.6367
" />
<path d="M15.4418 0.6367
L15.7442 0.5157
" />
<path d="M15.2604 0.8786
L15.4418 0.6367
" />
<path d="M15.4418 0.6367
L15.6233 0.8786
" />
</g></g>
<g style="fill:none; 
stroke:#F2EDA1; stroke-width:0.1200; stroke-opacity:1; 
stroke-linecap:round; stroke-linejoin:round;">
<path d="M9.6542 2.7050
L21.6542 2.7050
" />
<path d="M9.6542 2.8250
L9.6542 2.7050
" />
<path d="M10.0042 2.8250
L10.0042 16.2250
" />
<path d="M10.0042 16.2250
L21.3042 16.2250
" />
</g>
<g style="fill:#F2EDA1; fill-opacity:1.0000; stroke:none;">
<circle cx="13.2042" cy="1.9750" r="0.0600" /> 
</g>
<g style="fill:none; 
stroke:#F2EDA1; stroke-width:0.1200; stroke-opacity:1; 
stroke-linecap:round; stroke-linejoin:round;">
<path d="M13.2042 2.8250
L13.2042 1.9750
" />
</g>
<g style="fill:#F2EDA1; fill-opacity:1.0000; stroke:none;">
<circle cx="18.1042" cy="1.9750" r="0.0600" /> 
</g>
<g style="fill:none; 
stroke:#F2EDA1; stroke-width:0.1200; stroke-opacity:1; 
stroke-linecap:round; stroke-linejoin:round;">
<path d="M18.1042 2.8250
L18.1042 1.9750
" />
<path d="M21.3042 2.8250
L10.0042 2.8250
" />
<path d="M21.3042 16.2250
L21.3042 2.8250
" />
<path d="M21.6542 2.7050
L21.6542 2.8250
" />
<path d="M21.6542 2.8250
L9.6542 2.8250
" />
</g>
<g style="fill:#FFFFFF; fill-opacity:1.0000; stroke:none;">
<circle cx="13.2042" cy="1.0250" r="0.4000" /> 
</g>
<g style="fill:#FFFFFF; fill-opacity:1.0000; stroke:none;">
<circle cx="18.1042" cy="1.0250" r="0.4000" /> 
</g>
<g style="fill:none; 
stroke:#FF26E2; stroke-width:0.0500; stroke-opacity:1; 
stroke-linecap:round; stroke-linejoin:round;">
<path d="M9.1042 0.0250
L9.1042 17.3250
" />
<path d="M9.1042 17.3250
L22.2042 17.3250
" />
<path d="M22.2042 0.0250
L9.1042 0.0250
" />
<path d="M22.2042 17.3250
L22.2042 0.0250
" />
</g>
<g style="fill:none; 
stroke:#AFAFAF; stroke-width:0.1588; stroke-opacity:1; 
stroke-linecap:round; stroke-linejoin:round;">
<text x="13.2042" y="1.6600"
textLength="26.4084" font-size="1.6933" lengthAdjust="spacingAndGlyphs"
text-anchor="middle" opacity="0">Crystal_HC18-U_Horizontal</text>
<g class="stroked-text"><desc>Crystal_HC18-U_Horizontal</desc>
<path d="M1.1392 1.4833
L1.0787 1.5438
" />
<path d="M1.0787 1.5438
L0.8973 1.6043
" />
<path d="M0.8973 1.6043
L0.7764 1.6043
" />
<path d="M0.7764 1.6043
L0.5949 1.5438
" />
<path d="M0.5949 1.5438
L0.4740 1.4228
" />
<path d="M0.4740 1.4228
L0.4135 1.3019
" />
<path d="M0.4135 1.3019
L0.3530 1.0600
" />
<path d="M0.3530 1.0600
L0.3530 0.8786
" />
<path d="M0.3530 0.8786
L0.4135 0.6367
" />
<path d="M0.4135 0.6367
L0.4740 0.5157
" />
<path d="M0.4740 0.5157
L0.5949 0.3947
" />
<path d="M0.5949 0.3947
L0.7764 0.3343
" />
<path d="M0.7764 0.3343
L0.8973 0.3343
" />
<path d="M0.8973 0.3343
L1.0787 0.3947
" />
<path d="M1.0787 0.3947
L1.1392 0.4552
" />
<path d="M1.6835 1.6043
L1.6835 0.7576
" />
<path d="M1.6835 0.9995
L1.7440 0.8786
" />
<path d="M1.7440 0.8786
L1.8045 0.8181
" />
<path d="M1.8045 0.8181
L1.9254 0.7576
" />
<path d="M1.9254 0.7576
L2.0464 0.7576
" />
<path d="M2.3487 0.7576
L2.6511 1.6043
" />
<path d="M2.9535 0.7576
L2.6511 1.6043
" />
<path d="M2.6511 1.6043
L2.5302 1.9067
" />
<path d="M2.5302 1.9067
L2.4697 1.9671
" />
<path d="M2.4697 1.9671
L2.3487 2.0276
" />
<path d="M3.3768 1.5438
L3.4978 1.6043
" />
<path d="M3.4978 1.6043
L3.7397 1.6043
" />
<path d="M3.7397 1.6043
L3.8606 1.5438
" />
<path d="M3.8606 1.5438
L3.9211 1.4228
" />
<path d="M3.9211 1.4228
L3.9211 1.3624
" />
<path d="M3.9211 1.3624
L3.8606 1.2414
" />
<path d="M3.8606 1.2414
L3.7397 1.1809
" />
<path d="M3.7397 1.1809
L3.5583 1.1809
" />
<path d="M3.5583 1.1809
L3.4373 1.1205
" />
<path d="M3.4373 1.1205
L3.3768 0.9995
" />
<path d="M3.3768 0.9995
L3.3768 0.9390
" />
<path d="M3.3768 0.9390
L3.4373 0.8181
" />
<path d="M3.4373 0.8181
L3.5583 0.7576
" />
<path d="M3.5583 0.7576
L3.7397 0.7576
" />
<path d="M3.7397 0.7576
L3.8606 0.8181
" />
<path d="M4.2840 0.7576
L4.7678 0.7576
" />
<path d="M4.4654 0.3343
L4.4654 1.4228
" />
<path d="M4.4654 1.4228
L4.5259 1.5438
" />
<path d="M4.5259 1.5438
L4.6468 1.6043
" />
<path d="M4.6468 1.6043
L4.7678 1.6043
" />
<path d="M5.7354 1.6043
L5.7354 0.9390
" />
<path d="M5.7354 0.9390
L5.6749 0.8181
" />
<path d="M5.6749 0.8181
L5.5540 0.7576
" />
<path d="M5.5540 0.7576
L5.3121 0.7576
" />
<path d="M5.3121 0.7576
L5.1911 0.8181
" />
<path d="M5.7354 1.5438
L5.6145 1.6043
" />
<path d="M5.6145 1.6043
L5.3121 1.6043
" />
<path d="M5.3121 1.6043
L5.1911 1.5438
" />
<path d="M5.1911 1.5438
L5.1306 1.4228
" />
<path d="M5.1306 1.4228
L5.1306 1.3019
" />
<path d="M5.1306 1.3019
L5.1911 1.1809
" />
<path d="M5.1911 1.1809
L5.3121 1.1205
" />
<path d="M5.3121 1.1205
L5.6145 1.1205
" />
<path d="M5.6145 1.1205
L5.7354 1.0600
" />
<path d="M6.5216 1.6043
L6.4006 1.5438
" />
<path d="M6.4006 1.5438
L6.3402 1.4228
" />
<path d="M6.3402 1.4228
L6.3402 0.3343
" />
<path d="M6.7030 1.7252
L7.6706 1.7252
" />
<path d="M7.9730 1.6043
L7.9730 0.3343
" />
<path d="M7.9730 0.9390
L8.6987 0.9390
" />
<path d="M8.6987 1.6043
L8.6987 0.3343
" />
<path d="M10.0292 1.4833
L9.9687 1.5438
" />
<path d="M9.9687 1.5438
L9.7873 1.6043
" />
<path d="M9.7873 1.6043
L9.6664 1.6043
" />
<path d="M9.6664 1.6043
L9.4849 1.5438
" />
<path d="M9.4849 1.5438
L9.3640 1.4228
" />
<path d="M9.3640 1.4228
L9.3035 1.3019
" />
<path d="M9.3035 1.3019
L9.2430 1.0600
" />
<path d="M9.2430 1.0600
L9.2430 0.8786
" />
<path d="M9.2430 0.8786
L9.3035 0.6367
" />
<path d="M9.3035 0.6367
L9.3640 0.5157
" />
<path d="M9.3640 0.5157
L9.4849 0.3947
" />
<path d="M9.4849 0.3947
L9.6664 0.3343
" />
<path d="M9.6664 0.3343
L9.7873 0.3343
" />
<path d="M9.7873 0.3343
L9.9687 0.3947
" />
<path d="M9.9687 0.3947
L10.0292 0.4552
" />
<path d="M11.2387 1.6043
L10.5130 1.6043
" />
<path d="M10.8759 1.6043
L10.8759 0.3343
" />
<path d="M10.8759 0.3343
L10.7549 0.5157
" />
<path d="M10.7549 0.5157
L10.6340 0.6367
" />
<path d="M10.6340 0.6367
L10.5130 0.6971
" />
<path d="M11.9645 0.8786
L11.8435 0.8181
" />
<path d="M11.8435 0.8181
L11.7830 0.7576
" />
<path d="M11.7830 0.7576
L11.7226 0.6367
" />
<path d="M11.7226 0.6367
L11.7226 0.5762
" />
<path d="M11.7226 0.5762
L11.7830 0.4552
" />
<path d="M11.7830 0.4552
L11.8435 0.3947
" />
<path d="M11.8435 0.3947
L11.9645 0.3343
" />
<path d="M11.9645 0.3343
L12.2064 0.3343
" />
<path d="M12.2064 0.3343
L12.3273 0.3947
" />
<path d="M12.3273 0.3947
L12.3878 0.4552
" />
<path d="M12.3878 0.4552
L12.4483 0.5762
" />
<path d="M12.4483 0.5762
L12.4483 0.6367
" />
<path d="M12.4483 0.6367
L12.3878 0.7576
" />
<path d="M12.3878 0.7576
L12.3273 0.8181
" />
<path d="M12.3273 0.8181
L12.2064 0.8786
" />
<path d="M12.2064 0.8786
L11.9645 0.8786
" />
<path d="M11.9645 0.8786
L11.8435 0.9390
" />
<path d="M11.8435 0.9390
L11.7830 0.9995
" />
<path d="M11.7830 0.9995
L11.7226 1.1205
" />
<path d="M11.7226 1.1205
L11.7226 1.3624
" />
<path d="M11.7226 1.3624
L11.7830 1.4833
" />
<path d="M11.7830 1.4833
L11.8435 1.5438
" />
<path d="M11.8435 1.5438
L11.9645 1.6043
" />
<path d="M11.9645 1.6043
L12.2064 1.6043
" />
<path d="M12.2064 1.6043
L12.3273 1.5438
" />
<path d="M12.3273 1.5438
L12.3878 1.4833
" />
<path d="M12.3878 1.4833
L12.4483 1.3624
" />
<path d="M12.4483 1.3624
L12.4483 1.1205
" />
<path d="M12.4483 1.1205
L12.3878 0.9995
" />
<path d="M12.3878 0.9995
L12.3273 0.9390
" />
<path d="M12.3273 0.9390
L12.2064 0.8786
" />
<path d="M12.9926 1.1205
L13.9602 1.1205
" />
<path d="M14.5649 0.3343
L14.5649 1.3624
" />
<path d="M14.5649 1.3624
L14.6254 1.4833
" />
<path d="M14.6254 1.4833
L14.6859 1.5438
" />
<path d="M14.6859 1.5438
L14.8068 1.6043
" />
<path d="M14.8068 1.6043
L15.0487 1.6043
" />
<path d="M15.0487 1.6043
L15.1697 1.5438
" />
<path d="M15.1697 1.5438
L15.2302 1.4833
" />
<path d="M15.2302 1.4833
L15.2906 1.3624
" />
<path d="M15.2906 1.3624
L15.2906 0.3343
" />
<path d="M15.5930 1.7252
L16.5606 1.7252
" />
<path d="M16.8630 1.6043
L16.8630 0.3343
" />
<path d="M16.8630 0.9390
L17.5887 0.9390
" />
<path d="M17.5887 1.6043
L17.5887 0.3343
" />
<path d="M18.3749 1.6043
L18.2540 1.5438
" />
<path d="M18.2540 1.5438
L18.1935 1.4833
" />
<path d="M18.1935 1.4833
L18.1330 1.3624
" />
<path d="M18.1330 1.3624
L18.1330 0.9995
" />
<path d="M18.1330 0.9995
L18.1935 0.8786
" />
<path d="M18.1935 0.8786
L18.2540 0.8181
" />
<path d="M18.2540 0.8181
L18.3749 0.7576
" />
<path d="M18.3749 0.7576
L18.5564 0.7576
" />
<path d="M18.5564 0.7576
L18.6773 0.8181
" />
<path d="M18.6773 0.8181
L18.7378 0.8786
" />
<path d="M18.7378 0.8786
L18.7983 0.9995
" />
<path d="M18.7983 0.9995
L18.7983 1.3624
" />
<path d="M18.7983 1.3624
L18.7378 1.4833
" />
<path d="M18.7378 1.4833
L18.6773 1.5438
" />
<path d="M18.6773 1.5438
L18.5564 1.6043
" />
<path d="M18.5564 1.6043
L18.3749 1.6043
" />
<path d="M19.3426 1.6043
L19.3426 0.7576
" />
<path d="M19.3426 0.9995
L19.4030 0.8786
" />
<path d="M19.4030 0.8786
L19.4635 0.8181
" />
<path d="M19.4635 0.8181
L19.5845 0.7576
" />
<path d="M19.5845 0.7576
L19.7054 0.7576
" />
<path d="M20.1287 1.6043
L20.1287 0.7576
" />
<path d="M20.1287 0.3343
L20.0683 0.3947
" />
<path d="M20.0683 0.3947
L20.1287 0.4552
" />
<path d="M20.1287 0.4552
L20.1892 0.3947
" />
<path d="M20.1892 0.3947
L20.1287 0.3343
" />
<path d="M20.1287 0.3343
L20.1287 0.4552
" />
<path d="M20.6126 0.7576
L21.2778 0.7576
" />
<path d="M21.2778 0.7576
L20.6126 1.6043
" />
<path d="M20.6126 1.6043
L21.2778 1.6043
" />
<path d="M21.9430 1.6043
L21.8221 1.5438
" />
<path d="M21.8221 1.5438
L21.7616 1.4833
" />
<path d="M21.7616 1.4833
L21.7011 1.3624
" />
<path d="M21.7011 1.3624
L21.7011 0.9995
" />
<path d="M21.7011 0.9995
L21.7616 0.8786
" />
<path d="M21.7616 0.8786
L21.8221 0.8181
" />
<path d="M21.8221 0.8181
L21.9430 0.7576
" />
<path d="M21.9430 0.7576
L22.1245 0.7576
" />
<path d="M22.1245 0.7576
L22.2454 0.8181
" />
<path d="M22.2454 0.8181
L22.3059 0.8786
" />
<path d="M22.3059 0.8786
L22.3664 0.9995
" />
<path d="M22.3664 0.9995
L22.3664 1.3624
" />
<path d="M22.3664 1.3624
L22.3059 1.4833
" />
<path d="M22.3059 1.4833
L22.2454 1.5438
" />
<path d="M22.2454 1.5438
L22.1245 1.6043
" />
<path d="M22.1245 1.6043
L21.9430 1.6043
" />
<path d="M22.9106 0.7576
L22.9106 1.6043
" />
<path d="M22.9106 0.8786
L22.9711 0.8181
" />
<path d="M22.9711 0.8181
L23.0921 0.7576
" />
<path d="M23.0921 0.7576
L23.2735 0.7576
" />
<path d="M23.2735 0.7576
L23.3945 0.8181
" />
<path d="M23.3945 0.8181
L23.4549 0.9390
" />
<path d="M23.4549 0.9390
L23.4549 1.6043
" />
<path d="M23.8783 0.7576
L24.3621 0.7576
" />
<path d="M24.0597 0.3343
L24.0597 1.4228
" />
<path d="M24.0597 1.4228
L24.1202 1.5438
" />
<path d="M24.1202 1.5438
L24.2411 1.6043
" />
<path d="M24.2411 1.6043
L24.3621 1.6043
" />
<path d="M25.3297 1.6043
L25.3297 0.9390
" />
<path d="M25.3297 0.9390
L25.2692 0.8181
" />
<path d="M25.2692 0.8181
L25.1483 0.7576
" />
<path d="M25.1483 0.7576
L24.9064 0.7576
" />
<path d="M24.9064 0.7576
L24.7854 0.8181
" />
<path d="M25.3297 1.5438
L25.2087 1.6043
" />
<path d="M25.2087 1.6043
L24.9064 1.6043
" />
<path d="M24.9064 1.6043
L24.7854 1.5438
" />
<path d="M24.7854 1.5438
L24.7249 1.4228
" />
<path d="M24.7249 1.4228
L24.7249 1.3019
" />
<path d="M24.7249 1.3019
L24.7854 1.1809
" />
<path d="M24.7854 1.1809
L24.9064 1.1205
" />
<path d="M24.9064 1.1205
L25.2087 1.1205
" />
<path d="M25.2087 1.1205
L25.3297 1.0600
" />
<path d="M26.1159 1.6043
L25.9949 1.5438
" />
<path d="M25.9949 1.5438
L25.9345 1.4228
" />
<path d="M25.9345 1.4228
L25.9345 0.3343
" />
</g></g>
<g style="fill:none; 
stroke:#AFAFAF; stroke-width:0.1500; stroke-opacity:1; 
stroke-linecap:round; stroke-linejoin:round;">
<text x="15.4542" y="6.5250"
textLength="4.5357" font-size="1.3333" lengthAdjust="spacingAndGlyphs"
text-anchor="middle" opacity="0">REF**</text>
<g class="stroked-text"><desc>REF**</desc>
<path d="M14.1209 6.4798
L13.7876 6.0036
" />
<path d="M13.5495 6.4798
L13.5495 5.4798
" />
<path d="M13.5495 5.4798
L13.9304 5.4798
" />
<path d="M13.9304 5.4798
L14.0256 5.5274
" />
<path d="M14.0256 5.5274
L14.0733 5.5751
" />
<path d="M14.0733 5.5751
L14.1209 5.6703
" />
<path d="M14.1209 5.6703
L14.1209 5.8132
" />
<path d="M14.1209 5.8132
L14.0733 5.9084
" />
<path d="M14.0733 5.9084
L14.0256 5.9560
" />
<path d="M14.0256 5.9560
L13.9304 6.0036
" />
<path d="M13.9304 6.0036
L13.5495 6.0036
" />
<path d="M14.5495 5.9560
L14.8828 5.9560
" />
<path d="M15.0256 6.4798
L14.5495 6.4798
" />
<path d="M14.5495 6.4798
L14.5495 5.4798
" />
<path d="M14.5495 5.4798
L15.0256 5.4798
" />
<path d="M15.7876 5.9560
L15.4542 5.9560
" />
<path d="M15.4542 6.4798
L15.4542 5.4798
" />
<path d="M15.4542 5.4798
L15.9304 5.4798
" />
<path d="M16.4542 5.4798
L16.4542 5.7179
" />
<path d="M16.2161 5.6227
L16.4542 5.7179
" />
<path d="M16.4542 5.7179
L16.6923 5.6227
" />
<path d="M16.3114 5.9084
L16.4542 5.7179
" />
<path d="M16.4542 5.7179
L16.5971 5.9084
" />
<path d="M17.2161 5.4798
L17.2161 5.7179
" />
<path d="M16.9780 5.6227
L17.2161 5.7179
" />
<path d="M17.2161 5.7179
L17.4542 5.6227
" />
<path d="M17.0733 5.9084
L17.2161 5.7179
" />
<path d="M17.2161 5.7179
L17.3590 5.9084
" />
</g></g>
<g style="fill:none; 
stroke:#AFAFAF; stroke-width:0.1000; stroke-opacity:1; 
stroke-linecap:round; stroke-linejoin:round;">
<path d="M9.8542 2.9250
L21.4542 2.9250
" />
<path d="M9.8542 3.0250
L9.8542 2.9250
" />
<path d="M10.2042 3.0250
L10.2042 16.0250
" />
<path d="M10.2042 16.0250
L21.1042 16.0250
" />
<path d="M13.2042 2.0250
L13.2042 1.0250
" />
<path d="M13.2042 3.0250
L13.2042 2.0250
" />
<path d="M18.1042 2.0250
L18.1042 1.0250
" />
<path d="M18.1042 3.0250
L18.1042 2.0250
" />
<path d="M21.1042 3.0250
L10.2042 3.0250
" />
<path d="M21.1042 16.0250
L21.1042 3.0250
" />
<path d="M21.4542 2.9250
L21.4542 3.0250
" />
<path d="M21.4542 3.0250
L9.8542 3.0250
" />
</g> 
</svg>
