<?xml version="1.0" standalone="no"?>
 <!DOCTYPE svg PUBLIC "-//W3C//DTD SVG 1.1//EN" 
 "http://www.w3.org/Graphics/SVG/1.1/DTD/svg11.dtd"> 
<svg
  xmlns:svg="http://www.w3.org/2000/svg"
  xmlns="http://www.w3.org/2000/svg"
  xmlns:xlink="http://www.w3.org/1999/xlink"
  version="1.1"
  width="38.3794mm" height="69.6468mm" viewBox="0.0000 0.0000 38.3794 69.6468">
<title>SVG Image created as working-brd.svg date 2024/04/04 00:58:59 </title>
  <desc>Image generated by PCBNEW </desc>
<g style="fill:#000000; fill-opacity:1.0000;stroke:#000000; stroke-opacity:1.0000;
stroke-linecap:round; stroke-linejoin:round;"
 transform="translate(0 0) scale(1 1)">
<path style="fill:#C83434; fill-opacity:1.0000; stroke:none;fill-rule:evenodd;"
d="M 15.0914,2.3050
15.0914,1.3050
18.2414,1.3050
18.2414,2.3050
Z" /> 
<path style="fill:#C83434; fill-opacity:1.0000; stroke:none;fill-rule:evenodd;"
d="M 20.1414,2.3050
20.1414,1.3050
23.2914,1.3050
23.2914,2.3050
Z" /> 
<path style="fill:#C83434; fill-opacity:1.0000; stroke:none;fill-rule:evenodd;"
d="M 15.0914,4.8450
15.0914,3.8450
18.2414,3.8450
18.2414,4.8450
Z" /> 
<path style="fill:#C83434; fill-opacity:1.0000; stroke:none;fill-rule:evenodd;"
d="M 20.1414,4.8450
20.1414,3.8450
23.2914,3.8450
23.2914,4.8450
Z" /> 
<path style="fill:#C83434; fill-opacity:1.0000; stroke:none;fill-rule:evenodd;"
d="M 15.0914,7.3850
15.0914,6.3850
18.2414,6.3850
18.2414,7.3850
Z" /> 
<path style="fill:#C83434; fill-opacity:1.0000; stroke:none;fill-rule:evenodd;"
d="M 20.1414,7.3850
20.1414,6.3850
23.2914,6.3850
23.2914,7.3850
Z" /> 
<path style="fill:#C83434; fill-opacity:1.0000; stroke:none;fill-rule:evenodd;"
d="M 15.0914,9.9250
15.0914,8.9250
18.2414,8.9250
18.2414,9.9250
Z" /> 
<path style="fill:#C83434; fill-opacity:1.0000; stroke:none;fill-rule:evenodd;"
d="M 20.1414,9.9250
20.1414,8.9250
23.2914,8.9250
23.2914,9.9250
Z" /> 
<path style="fill:#C83434; fill-opacity:1.0000; stroke:none;fill-rule:evenodd;"
d="M 15.0914,12.4650
15.0914,11.4650
18.2414,11.4650
18.2414,12.4650
Z" /> 
<path style="fill:#C83434; fill-opacity:1.0000; stroke:none;fill-rule:evenodd;"
d="M 20.1414,12.4650
20.1414,11.4650
23.2914,11.4650
23.2914,12.4650
Z" /> 
<path style="fill:#C83434; fill-opacity:1.0000; stroke:none;fill-rule:evenodd;"
d="M 15.0914,15.0050
15.0914,14.0050
18.2414,14.0050
18.2414,15.0050
Z" /> 
<path style="fill:#C83434; fill-opacity:1.0000; stroke:none;fill-rule:evenodd;"
d="M 20.1414,15.0050
20.1414,14.0050
23.2914,14.0050
23.2914,15.0050
Z" /> 
<path style="fill:#C83434; fill-opacity:1.0000; stroke:none;fill-rule:evenodd;"
d="M 15.0914,17.5450
15.0914,16.5450
18.2414,16.5450
18.2414,17.5450
Z" /> 
<path style="fill:#C83434; fill-opacity:1.0000; stroke:none;fill-rule:evenodd;"
d="M 20.1414,17.5450
20.1414,16.5450
23.2914,16.5450
23.2914,17.5450
Z" /> 
<path style="fill:#C83434; fill-opacity:1.0000; stroke:none;fill-rule:evenodd;"
d="M 15.0914,20.0850
15.0914,19.0850
18.2414,19.0850
18.2414,20.0850
Z" /> 
<path style="fill:#C83434; fill-opacity:1.0000; stroke:none;fill-rule:evenodd;"
d="M 20.1414,20.0850
20.1414,19.0850
23.2914,19.0850
23.2914,20.0850
Z" /> 
<path style="fill:#C83434; fill-opacity:1.0000; stroke:none;fill-rule:evenodd;"
d="M 15.0914,22.6250
15.0914,21.6250
18.2414,21.6250
18.2414,22.6250
Z" /> 
<path style="fill:#C83434; fill-opacity:1.0000; stroke:none;fill-rule:evenodd;"
d="M 20.1414,22.6250
20.1414,21.6250
23.2914,21.6250
23.2914,22.6250
Z" /> 
<path style="fill:#C83434; fill-opacity:1.0000; stroke:none;fill-rule:evenodd;"
d="M 15.0914,25.1650
15.0914,24.1650
18.2414,24.1650
18.2414,25.1650
Z" /> 
<path style="fill:#C83434; fill-opacity:1.0000; stroke:none;fill-rule:evenodd;"
d="M 20.1414,25.1650
20.1414,24.1650
23.2914,24.1650
23.2914,25.1650
Z" /> 
<path style="fill:#C83434; fill-opacity:1.0000; stroke:none;fill-rule:evenodd;"
d="M 15.0914,27.7050
15.0914,26.7050
18.2414,26.7050
18.2414,27.7050
Z" /> 
<path style="fill:#C83434; fill-opacity:1.0000; stroke:none;fill-rule:evenodd;"
d="M 20.1414,27.7050
20.1414,26.7050
23.2914,26.7050
23.2914,27.7050
Z" /> 
<path style="fill:#C83434; fill-opacity:1.0000; stroke:none;fill-rule:evenodd;"
d="M 15.0914,30.2450
15.0914,29.2450
18.2414,29.2450
18.2414,30.2450
Z" /> 
<path style="fill:#C83434; fill-opacity:1.0000; stroke:none;fill-rule:evenodd;"
d="M 20.1414,30.2450
20.1414,29.2450
23.2914,29.2450
23.2914,30.2450
Z" /> 
<path style="fill:#C83434; fill-opacity:1.0000; stroke:none;fill-rule:evenodd;"
d="M 15.0914,32.7850
15.0914,31.7850
18.2414,31.7850
18.2414,32.7850
Z" /> 
<path style="fill:#C83434; fill-opacity:1.0000; stroke:none;fill-rule:evenodd;"
d="M 20.1414,32.7850
20.1414,31.7850
23.2914,31.7850
23.2914,32.7850
Z" /> 
<path style="fill:#C83434; fill-opacity:1.0000; stroke:none;fill-rule:evenodd;"
d="M 15.0914,35.3250
15.0914,34.3250
18.2414,34.3250
18.2414,35.3250
Z" /> 
<path style="fill:#C83434; fill-opacity:1.0000; stroke:none;fill-rule:evenodd;"
d="M 20.1414,35.3250
20.1414,34.3250
23.2914,34.3250
23.2914,35.3250
Z" /> 
<path style="fill:#C83434; fill-opacity:1.0000; stroke:none;fill-rule:evenodd;"
d="M 15.0914,37.8650
15.0914,36.8650
18.2414,36.8650
18.2414,37.8650
Z" /> 
<path style="fill:#C83434; fill-opacity:1.0000; stroke:none;fill-rule:evenodd;"
d="M 20.1414,37.8650
20.1414,36.8650
23.2914,36.8650
23.2914,37.8650
Z" /> 
<path style="fill:#C83434; fill-opacity:1.0000; stroke:none;fill-rule:evenodd;"
d="M 15.0914,40.4050
15.0914,39.4050
18.2414,39.4050
18.2414,40.4050
Z" /> 
<path style="fill:#C83434; fill-opacity:1.0000; stroke:none;fill-rule:evenodd;"
d="M 20.1414,40.4050
20.1414,39.4050
23.2914,39.4050
23.2914,40.4050
Z" /> 
<path style="fill:#C83434; fill-opacity:1.0000; stroke:none;fill-rule:evenodd;"
d="M 15.0914,42.9450
15.0914,41.9450
18.2414,41.9450
18.2414,42.9450
Z" /> 
<path style="fill:#C83434; fill-opacity:1.0000; stroke:none;fill-rule:evenodd;"
d="M 20.1414,42.9450
20.1414,41.9450
23.2914,41.9450
23.2914,42.9450
Z" /> 
<path style="fill:#C83434; fill-opacity:1.0000; stroke:none;fill-rule:evenodd;"
d="M 15.0914,45.4850
15.0914,44.4850
18.2414,44.4850
18.2414,45.4850
Z" /> 
<path style="fill:#C83434; fill-opacity:1.0000; stroke:none;fill-rule:evenodd;"
d="M 20.1414,45.4850
20.1414,44.4850
23.2914,44.4850
23.2914,45.4850
Z" /> 
<path style="fill:#C83434; fill-opacity:1.0000; stroke:none;fill-rule:evenodd;"
d="M 15.0914,48.0250
15.0914,47.0250
18.2414,47.0250
18.2414,48.0250
Z" /> 
<path style="fill:#C83434; fill-opacity:1.0000; stroke:none;fill-rule:evenodd;"
d="M 20.1414,48.0250
20.1414,47.0250
23.2914,47.0250
23.2914,48.0250
Z" /> 
<path style="fill:#C83434; fill-opacity:1.0000; stroke:none;fill-rule:evenodd;"
d="M 15.0914,50.5650
15.0914,49.5650
18.2414,49.5650
18.2414,50.5650
Z" /> 
<path style="fill:#C83434; fill-opacity:1.0000; stroke:none;fill-rule:evenodd;"
d="M 20.1414,50.5650
20.1414,49.5650
23.2914,49.5650
23.2914,50.5650
Z" /> 
<path style="fill:#C83434; fill-opacity:1.0000; stroke:none;fill-rule:evenodd;"
d="M 15.0914,53.1050
15.0914,52.1050
18.2414,52.1050
18.2414,53.1050
Z" /> 
<path style="fill:#C83434; fill-opacity:1.0000; stroke:none;fill-rule:evenodd;"
d="M 20.1414,53.1050
20.1414,52.1050
23.2914,52.1050
23.2914,53.1050
Z" /> 
<path style="fill:#C83434; fill-opacity:1.0000; stroke:none;fill-rule:evenodd;"
d="M 15.0914,55.6450
15.0914,54.6450
18.2414,54.6450
18.2414,55.6450
Z" /> 
<path style="fill:#C83434; fill-opacity:1.0000; stroke:none;fill-rule:evenodd;"
d="M 20.1414,55.6450
20.1414,54.6450
23.2914,54.6450
23.2914,55.6450
Z" /> 
<path style="fill:#C83434; fill-opacity:1.0000; stroke:none;fill-rule:evenodd;"
d="M 15.0914,58.1850
15.0914,57.1850
18.2414,57.1850
18.2414,58.1850
Z" /> 
<path style="fill:#C83434; fill-opacity:1.0000; stroke:none;fill-rule:evenodd;"
d="M 20.1414,58.1850
20.1414,57.1850
23.2914,57.1850
23.2914,58.1850
Z" /> 
<path style="fill:#C83434; fill-opacity:1.0000; stroke:none;fill-rule:evenodd;"
d="M 15.0914,60.7250
15.0914,59.7250
18.2414,59.7250
18.2414,60.7250
Z" /> 
<path style="fill:#C83434; fill-opacity:1.0000; stroke:none;fill-rule:evenodd;"
d="M 20.1414,60.7250
20.1414,59.7250
23.2914,59.7250
23.2914,60.7250
Z" /> 
<path style="fill:#C83434; fill-opacity:1.0000; stroke:none;fill-rule:evenodd;"
d="M 15.0914,63.2650
15.0914,62.2650
18.2414,62.2650
18.2414,63.2650
Z" /> 
<path style="fill:#C83434; fill-opacity:1.0000; stroke:none;fill-rule:evenodd;"
d="M 20.1414,63.2650
20.1414,62.2650
23.2914,62.2650
23.2914,63.2650
Z" /> 
<path style="fill:#C83434; fill-opacity:1.0000; stroke:none;fill-rule:evenodd;"
d="M 15.0914,65.8050
15.0914,64.8050
18.2414,64.8050
18.2414,65.8050
Z" /> 
<path style="fill:#C83434; fill-opacity:1.0000; stroke:none;fill-rule:evenodd;"
d="M 20.1414,65.8050
20.1414,64.8050
23.2914,64.8050
23.2914,65.8050
Z" /> 
<path style="fill:#C83434; fill-opacity:1.0000; stroke:none;fill-rule:evenodd;"
d="M 15.0914,68.3450
15.0914,67.3450
18.2414,67.3450
18.2414,68.3450
Z" /> 
<path style="fill:#C83434; fill-opacity:1.0000; stroke:none;fill-rule:evenodd;"
d="M 20.1414,68.3450
20.1414,67.3450
23.2914,67.3450
23.2914,68.3450
Z" /> 
<path style="fill:#D864FF; fill-opacity:0.4000; stroke:none;fill-rule:evenodd;"
d="M 15.0914,2.3050
15.0914,1.3050
18.2414,1.3050
18.2414,2.3050
Z" /> 
<path style="fill:#D864FF; fill-opacity:0.4000; stroke:none;fill-rule:evenodd;"
d="M 20.1414,2.3050
20.1414,1.3050
23.2914,1.3050
23.2914,2.3050
Z" /> 
<path style="fill:#D864FF; fill-opacity:0.4000; stroke:none;fill-rule:evenodd;"
d="M 15.0914,4.8450
15.0914,3.8450
18.2414,3.8450
18.2414,4.8450
Z" /> 
<path style="fill:#D864FF; fill-opacity:0.4000; stroke:none;fill-rule:evenodd;"
d="M 20.1414,4.8450
20.1414,3.8450
23.2914,3.8450
23.2914,4.8450
Z" /> 
<path style="fill:#D864FF; fill-opacity:0.4000; stroke:none;fill-rule:evenodd;"
d="M 15.0914,7.3850
15.0914,6.3850
18.2414,6.3850
18.2414,7.3850
Z" /> 
<path style="fill:#D864FF; fill-opacity:0.4000; stroke:none;fill-rule:evenodd;"
d="M 20.1414,7.3850
20.1414,6.3850
23.2914,6.3850
23.2914,7.3850
Z" /> 
<path style="fill:#D864FF; fill-opacity:0.4000; stroke:none;fill-rule:evenodd;"
d="M 15.0914,9.9250
15.0914,8.9250
18.2414,8.9250
18.2414,9.9250
Z" /> 
<path style="fill:#D864FF; fill-opacity:0.4000; stroke:none;fill-rule:evenodd;"
d="M 20.1414,9.9250
20.1414,8.9250
23.2914,8.9250
23.2914,9.9250
Z" /> 
<path style="fill:#D864FF; fill-opacity:0.4000; stroke:none;fill-rule:evenodd;"
d="M 15.0914,12.4650
15.0914,11.4650
18.2414,11.4650
18.2414,12.4650
Z" /> 
<path style="fill:#D864FF; fill-opacity:0.4000; stroke:none;fill-rule:evenodd;"
d="M 20.1414,12.4650
20.1414,11.4650
23.2914,11.4650
23.2914,12.4650
Z" /> 
<path style="fill:#D864FF; fill-opacity:0.4000; stroke:none;fill-rule:evenodd;"
d="M 15.0914,15.0050
15.0914,14.0050
18.2414,14.0050
18.2414,15.0050
Z" /> 
<path style="fill:#D864FF; fill-opacity:0.4000; stroke:none;fill-rule:evenodd;"
d="M 20.1414,15.0050
20.1414,14.0050
23.2914,14.0050
23.2914,15.0050
Z" /> 
<path style="fill:#D864FF; fill-opacity:0.4000; stroke:none;fill-rule:evenodd;"
d="M 15.0914,17.5450
15.0914,16.5450
18.2414,16.5450
18.2414,17.5450
Z" /> 
<path style="fill:#D864FF; fill-opacity:0.4000; stroke:none;fill-rule:evenodd;"
d="M 20.1414,17.5450
20.1414,16.5450
23.2914,16.5450
23.2914,17.5450
Z" /> 
<path style="fill:#D864FF; fill-opacity:0.4000; stroke:none;fill-rule:evenodd;"
d="M 15.0914,20.0850
15.0914,19.0850
18.2414,19.0850
18.2414,20.0850
Z" /> 
<path style="fill:#D864FF; fill-opacity:0.4000; stroke:none;fill-rule:evenodd;"
d="M 20.1414,20.0850
20.1414,19.0850
23.2914,19.0850
23.2914,20.0850
Z" /> 
<path style="fill:#D864FF; fill-opacity:0.4000; stroke:none;fill-rule:evenodd;"
d="M 15.0914,22.6250
15.0914,21.6250
18.2414,21.6250
18.2414,22.6250
Z" /> 
<path style="fill:#D864FF; fill-opacity:0.4000; stroke:none;fill-rule:evenodd;"
d="M 20.1414,22.6250
20.1414,21.6250
23.2914,21.6250
23.2914,22.6250
Z" /> 
<path style="fill:#D864FF; fill-opacity:0.4000; stroke:none;fill-rule:evenodd;"
d="M 15.0914,25.1650
15.0914,24.1650
18.2414,24.1650
18.2414,25.1650
Z" /> 
<path style="fill:#D864FF; fill-opacity:0.4000; stroke:none;fill-rule:evenodd;"
d="M 20.1414,25.1650
20.1414,24.1650
23.2914,24.1650
23.2914,25.1650
Z" /> 
<path style="fill:#D864FF; fill-opacity:0.4000; stroke:none;fill-rule:evenodd;"
d="M 15.0914,27.7050
15.0914,26.7050
18.2414,26.7050
18.2414,27.7050
Z" /> 
<path style="fill:#D864FF; fill-opacity:0.4000; stroke:none;fill-rule:evenodd;"
d="M 20.1414,27.7050
20.1414,26.7050
23.2914,26.7050
23.2914,27.7050
Z" /> 
<path style="fill:#D864FF; fill-opacity:0.4000; stroke:none;fill-rule:evenodd;"
d="M 15.0914,30.2450
15.0914,29.2450
18.2414,29.2450
18.2414,30.2450
Z" /> 
<path style="fill:#D864FF; fill-opacity:0.4000; stroke:none;fill-rule:evenodd;"
d="M 20.1414,30.2450
20.1414,29.2450
23.2914,29.2450
23.2914,30.2450
Z" /> 
<path style="fill:#D864FF; fill-opacity:0.4000; stroke:none;fill-rule:evenodd;"
d="M 15.0914,32.7850
15.0914,31.7850
18.2414,31.7850
18.2414,32.7850
Z" /> 
<path style="fill:#D864FF; fill-opacity:0.4000; stroke:none;fill-rule:evenodd;"
d="M 20.1414,32.7850
20.1414,31.7850
23.2914,31.7850
23.2914,32.7850
Z" /> 
<path style="fill:#D864FF; fill-opacity:0.4000; stroke:none;fill-rule:evenodd;"
d="M 15.0914,35.3250
15.0914,34.3250
18.2414,34.3250
18.2414,35.3250
Z" /> 
<path style="fill:#D864FF; fill-opacity:0.4000; stroke:none;fill-rule:evenodd;"
d="M 20.1414,35.3250
20.1414,34.3250
23.2914,34.3250
23.2914,35.3250
Z" /> 
<path style="fill:#D864FF; fill-opacity:0.4000; stroke:none;fill-rule:evenodd;"
d="M 15.0914,37.8650
15.0914,36.8650
18.2414,36.8650
18.2414,37.8650
Z" /> 
<path style="fill:#D864FF; fill-opacity:0.4000; stroke:none;fill-rule:evenodd;"
d="M 20.1414,37.8650
20.1414,36.8650
23.2914,36.8650
23.2914,37.8650
Z" /> 
<path style="fill:#D864FF; fill-opacity:0.4000; stroke:none;fill-rule:evenodd;"
d="M 15.0914,40.4050
15.0914,39.4050
18.2414,39.4050
18.2414,40.4050
Z" /> 
<path style="fill:#D864FF; fill-opacity:0.4000; stroke:none;fill-rule:evenodd;"
d="M 20.1414,40.4050
20.1414,39.4050
23.2914,39.4050
23.2914,40.4050
Z" /> 
<path style="fill:#D864FF; fill-opacity:0.4000; stroke:none;fill-rule:evenodd;"
d="M 15.0914,42.9450
15.0914,41.9450
18.2414,41.9450
18.2414,42.9450
Z" /> 
<path style="fill:#D864FF; fill-opacity:0.4000; stroke:none;fill-rule:evenodd;"
d="M 20.1414,42.9450
20.1414,41.9450
23.2914,41.9450
23.2914,42.9450
Z" /> 
<path style="fill:#D864FF; fill-opacity:0.4000; stroke:none;fill-rule:evenodd;"
d="M 15.0914,45.4850
15.0914,44.4850
18.2414,44.4850
18.2414,45.4850
Z" /> 
<path style="fill:#D864FF; fill-opacity:0.4000; stroke:none;fill-rule:evenodd;"
d="M 20.1414,45.4850
20.1414,44.4850
23.2914,44.4850
23.2914,45.4850
Z" /> 
<path style="fill:#D864FF; fill-opacity:0.4000; stroke:none;fill-rule:evenodd;"
d="M 15.0914,48.0250
15.0914,47.0250
18.2414,47.0250
18.2414,48.0250
Z" /> 
<path style="fill:#D864FF; fill-opacity:0.4000; stroke:none;fill-rule:evenodd;"
d="M 20.1414,48.0250
20.1414,47.0250
23.2914,47.0250
23.2914,48.0250
Z" /> 
<path style="fill:#D864FF; fill-opacity:0.4000; stroke:none;fill-rule:evenodd;"
d="M 15.0914,50.5650
15.0914,49.5650
18.2414,49.5650
18.2414,50.5650
Z" /> 
<path style="fill:#D864FF; fill-opacity:0.4000; stroke:none;fill-rule:evenodd;"
d="M 20.1414,50.5650
20.1414,49.5650
23.2914,49.5650
23.2914,50.5650
Z" /> 
<path style="fill:#D864FF; fill-opacity:0.4000; stroke:none;fill-rule:evenodd;"
d="M 15.0914,53.1050
15.0914,52.1050
18.2414,52.1050
18.2414,53.1050
Z" /> 
<path style="fill:#D864FF; fill-opacity:0.4000; stroke:none;fill-rule:evenodd;"
d="M 20.1414,53.1050
20.1414,52.1050
23.2914,52.1050
23.2914,53.1050
Z" /> 
<path style="fill:#D864FF; fill-opacity:0.4000; stroke:none;fill-rule:evenodd;"
d="M 15.0914,55.6450
15.0914,54.6450
18.2414,54.6450
18.2414,55.6450
Z" /> 
<path style="fill:#D864FF; fill-opacity:0.4000; stroke:none;fill-rule:evenodd;"
d="M 20.1414,55.6450
20.1414,54.6450
23.2914,54.6450
23.2914,55.6450
Z" /> 
<path style="fill:#D864FF; fill-opacity:0.4000; stroke:none;fill-rule:evenodd;"
d="M 15.0914,58.1850
15.0914,57.1850
18.2414,57.1850
18.2414,58.1850
Z" /> 
<path style="fill:#D864FF; fill-opacity:0.4000; stroke:none;fill-rule:evenodd;"
d="M 20.1414,58.1850
20.1414,57.1850
23.2914,57.1850
23.2914,58.1850
Z" /> 
<path style="fill:#D864FF; fill-opacity:0.4000; stroke:none;fill-rule:evenodd;"
d="M 15.0914,60.7250
15.0914,59.7250
18.2414,59.7250
18.2414,60.7250
Z" /> 
<path style="fill:#D864FF; fill-opacity:0.4000; stroke:none;fill-rule:evenodd;"
d="M 20.1414,60.7250
20.1414,59.7250
23.2914,59.7250
23.2914,60.7250
Z" /> 
<path style="fill:#D864FF; fill-opacity:0.4000; stroke:none;fill-rule:evenodd;"
d="M 15.0914,63.2650
15.0914,62.2650
18.2414,62.2650
18.2414,63.2650
Z" /> 
<path style="fill:#D864FF; fill-opacity:0.4000; stroke:none;fill-rule:evenodd;"
d="M 20.1414,63.2650
20.1414,62.2650
23.2914,62.2650
23.2914,63.2650
Z" /> 
<path style="fill:#D864FF; fill-opacity:0.4000; stroke:none;fill-rule:evenodd;"
d="M 15.0914,65.8050
15.0914,64.8050
18.2414,64.8050
18.2414,65.8050
Z" /> 
<path style="fill:#D864FF; fill-opacity:0.4000; stroke:none;fill-rule:evenodd;"
d="M 20.1414,65.8050
20.1414,64.8050
23.2914,64.8050
23.2914,65.8050
Z" /> 
<path style="fill:#D864FF; fill-opacity:0.4000; stroke:none;fill-rule:evenodd;"
d="M 15.0914,68.3450
15.0914,67.3450
18.2414,67.3450
18.2414,68.3450
Z" /> 
<path style="fill:#D864FF; fill-opacity:0.4000; stroke:none;fill-rule:evenodd;"
d="M 20.1414,68.3450
20.1414,67.3450
23.2914,67.3450
23.2914,68.3450
Z" /> 
<path style="fill:#B4A09A; fill-opacity:0.9000; stroke:none;fill-rule:evenodd;"
d="M 15.0914,2.3050
15.0914,1.3050
18.2414,1.3050
18.2414,2.3050
Z" /> 
<path style="fill:#B4A09A; fill-opacity:0.9000; stroke:none;fill-rule:evenodd;"
d="M 20.1414,2.3050
20.1414,1.3050
23.2914,1.3050
23.2914,2.3050
Z" /> 
<path style="fill:#B4A09A; fill-opacity:0.9000; stroke:none;fill-rule:evenodd;"
d="M 15.0914,4.8450
15.0914,3.8450
18.2414,3.8450
18.2414,4.8450
Z" /> 
<path style="fill:#B4A09A; fill-opacity:0.9000; stroke:none;fill-rule:evenodd;"
d="M 20.1414,4.8450
20.1414,3.8450
23.2914,3.8450
23.2914,4.8450
Z" /> 
<path style="fill:#B4A09A; fill-opacity:0.9000; stroke:none;fill-rule:evenodd;"
d="M 15.0914,7.3850
15.0914,6.3850
18.2414,6.3850
18.2414,7.3850
Z" /> 
<path style="fill:#B4A09A; fill-opacity:0.9000; stroke:none;fill-rule:evenodd;"
d="M 20.1414,7.3850
20.1414,6.3850
23.2914,6.3850
23.2914,7.3850
Z" /> 
<path style="fill:#B4A09A; fill-opacity:0.9000; stroke:none;fill-rule:evenodd;"
d="M 15.0914,9.9250
15.0914,8.9250
18.2414,8.9250
18.2414,9.9250
Z" /> 
<path style="fill:#B4A09A; fill-opacity:0.9000; stroke:none;fill-rule:evenodd;"
d="M 20.1414,9.9250
20.1414,8.9250
23.2914,8.9250
23.2914,9.9250
Z" /> 
<path style="fill:#B4A09A; fill-opacity:0.9000; stroke:none;fill-rule:evenodd;"
d="M 15.0914,12.4650
15.0914,11.4650
18.2414,11.4650
18.2414,12.4650
Z" /> 
<path style="fill:#B4A09A; fill-opacity:0.9000; stroke:none;fill-rule:evenodd;"
d="M 20.1414,12.4650
20.1414,11.4650
23.2914,11.4650
23.2914,12.4650
Z" /> 
<path style="fill:#B4A09A; fill-opacity:0.9000; stroke:none;fill-rule:evenodd;"
d="M 15.0914,15.0050
15.0914,14.0050
18.2414,14.0050
18.2414,15.0050
Z" /> 
<path style="fill:#B4A09A; fill-opacity:0.9000; stroke:none;fill-rule:evenodd;"
d="M 20.1414,15.0050
20.1414,14.0050
23.2914,14.0050
23.2914,15.0050
Z" /> 
<path style="fill:#B4A09A; fill-opacity:0.9000; stroke:none;fill-rule:evenodd;"
d="M 15.0914,17.5450
15.0914,16.5450
18.2414,16.5450
18.2414,17.5450
Z" /> 
<path style="fill:#B4A09A; fill-opacity:0.9000; stroke:none;fill-rule:evenodd;"
d="M 20.1414,17.5450
20.1414,16.5450
23.2914,16.5450
23.2914,17.5450
Z" /> 
<path style="fill:#B4A09A; fill-opacity:0.9000; stroke:none;fill-rule:evenodd;"
d="M 15.0914,20.0850
15.0914,19.0850
18.2414,19.0850
18.2414,20.0850
Z" /> 
<path style="fill:#B4A09A; fill-opacity:0.9000; stroke:none;fill-rule:evenodd;"
d="M 20.1414,20.0850
20.1414,19.0850
23.2914,19.0850
23.2914,20.0850
Z" /> 
<path style="fill:#B4A09A; fill-opacity:0.9000; stroke:none;fill-rule:evenodd;"
d="M 15.0914,22.6250
15.0914,21.6250
18.2414,21.6250
18.2414,22.6250
Z" /> 
<path style="fill:#B4A09A; fill-opacity:0.9000; stroke:none;fill-rule:evenodd;"
d="M 20.1414,22.6250
20.1414,21.6250
23.2914,21.6250
23.2914,22.6250
Z" /> 
<path style="fill:#B4A09A; fill-opacity:0.9000; stroke:none;fill-rule:evenodd;"
d="M 15.0914,25.1650
15.0914,24.1650
18.2414,24.1650
18.2414,25.1650
Z" /> 
<path style="fill:#B4A09A; fill-opacity:0.9000; stroke:none;fill-rule:evenodd;"
d="M 20.1414,25.1650
20.1414,24.1650
23.2914,24.1650
23.2914,25.1650
Z" /> 
<path style="fill:#B4A09A; fill-opacity:0.9000; stroke:none;fill-rule:evenodd;"
d="M 15.0914,27.7050
15.0914,26.7050
18.2414,26.7050
18.2414,27.7050
Z" /> 
<path style="fill:#B4A09A; fill-opacity:0.9000; stroke:none;fill-rule:evenodd;"
d="M 20.1414,27.7050
20.1414,26.7050
23.2914,26.7050
23.2914,27.7050
Z" /> 
<path style="fill:#B4A09A; fill-opacity:0.9000; stroke:none;fill-rule:evenodd;"
d="M 15.0914,30.2450
15.0914,29.2450
18.2414,29.2450
18.2414,30.2450
Z" /> 
<path style="fill:#B4A09A; fill-opacity:0.9000; stroke:none;fill-rule:evenodd;"
d="M 20.1414,30.2450
20.1414,29.2450
23.2914,29.2450
23.2914,30.2450
Z" /> 
<path style="fill:#B4A09A; fill-opacity:0.9000; stroke:none;fill-rule:evenodd;"
d="M 15.0914,32.7850
15.0914,31.7850
18.2414,31.7850
18.2414,32.7850
Z" /> 
<path style="fill:#B4A09A; fill-opacity:0.9000; stroke:none;fill-rule:evenodd;"
d="M 20.1414,32.7850
20.1414,31.7850
23.2914,31.7850
23.2914,32.7850
Z" /> 
<path style="fill:#B4A09A; fill-opacity:0.9000; stroke:none;fill-rule:evenodd;"
d="M 15.0914,35.3250
15.0914,34.3250
18.2414,34.3250
18.2414,35.3250
Z" /> 
<path style="fill:#B4A09A; fill-opacity:0.9000; stroke:none;fill-rule:evenodd;"
d="M 20.1414,35.3250
20.1414,34.3250
23.2914,34.3250
23.2914,35.3250
Z" /> 
<path style="fill:#B4A09A; fill-opacity:0.9000; stroke:none;fill-rule:evenodd;"
d="M 15.0914,37.8650
15.0914,36.8650
18.2414,36.8650
18.2414,37.8650
Z" /> 
<path style="fill:#B4A09A; fill-opacity:0.9000; stroke:none;fill-rule:evenodd;"
d="M 20.1414,37.8650
20.1414,36.8650
23.2914,36.8650
23.2914,37.8650
Z" /> 
<path style="fill:#B4A09A; fill-opacity:0.9000; stroke:none;fill-rule:evenodd;"
d="M 15.0914,40.4050
15.0914,39.4050
18.2414,39.4050
18.2414,40.4050
Z" /> 
<path style="fill:#B4A09A; fill-opacity:0.9000; stroke:none;fill-rule:evenodd;"
d="M 20.1414,40.4050
20.1414,39.4050
23.2914,39.4050
23.2914,40.4050
Z" /> 
<path style="fill:#B4A09A; fill-opacity:0.9000; stroke:none;fill-rule:evenodd;"
d="M 15.0914,42.9450
15.0914,41.9450
18.2414,41.9450
18.2414,42.9450
Z" /> 
<path style="fill:#B4A09A; fill-opacity:0.9000; stroke:none;fill-rule:evenodd;"
d="M 20.1414,42.9450
20.1414,41.9450
23.2914,41.9450
23.2914,42.9450
Z" /> 
<path style="fill:#B4A09A; fill-opacity:0.9000; stroke:none;fill-rule:evenodd;"
d="M 15.0914,45.4850
15.0914,44.4850
18.2414,44.4850
18.2414,45.4850
Z" /> 
<path style="fill:#B4A09A; fill-opacity:0.9000; stroke:none;fill-rule:evenodd;"
d="M 20.1414,45.4850
20.1414,44.4850
23.2914,44.4850
23.2914,45.4850
Z" /> 
<path style="fill:#B4A09A; fill-opacity:0.9000; stroke:none;fill-rule:evenodd;"
d="M 15.0914,48.0250
15.0914,47.0250
18.2414,47.0250
18.2414,48.0250
Z" /> 
<path style="fill:#B4A09A; fill-opacity:0.9000; stroke:none;fill-rule:evenodd;"
d="M 20.1414,48.0250
20.1414,47.0250
23.2914,47.0250
23.2914,48.0250
Z" /> 
<path style="fill:#B4A09A; fill-opacity:0.9000; stroke:none;fill-rule:evenodd;"
d="M 15.0914,50.5650
15.0914,49.5650
18.2414,49.5650
18.2414,50.5650
Z" /> 
<path style="fill:#B4A09A; fill-opacity:0.9000; stroke:none;fill-rule:evenodd;"
d="M 20.1414,50.5650
20.1414,49.5650
23.2914,49.5650
23.2914,50.5650
Z" /> 
<path style="fill:#B4A09A; fill-opacity:0.9000; stroke:none;fill-rule:evenodd;"
d="M 15.0914,53.1050
15.0914,52.1050
18.2414,52.1050
18.2414,53.1050
Z" /> 
<path style="fill:#B4A09A; fill-opacity:0.9000; stroke:none;fill-rule:evenodd;"
d="M 20.1414,53.1050
20.1414,52.1050
23.2914,52.1050
23.2914,53.1050
Z" /> 
<path style="fill:#B4A09A; fill-opacity:0.9000; stroke:none;fill-rule:evenodd;"
d="M 15.0914,55.6450
15.0914,54.6450
18.2414,54.6450
18.2414,55.6450
Z" /> 
<path style="fill:#B4A09A; fill-opacity:0.9000; stroke:none;fill-rule:evenodd;"
d="M 20.1414,55.6450
20.1414,54.6450
23.2914,54.6450
23.2914,55.6450
Z" /> 
<path style="fill:#B4A09A; fill-opacity:0.9000; stroke:none;fill-rule:evenodd;"
d="M 15.0914,58.1850
15.0914,57.1850
18.2414,57.1850
18.2414,58.1850
Z" /> 
<path style="fill:#B4A09A; fill-opacity:0.9000; stroke:none;fill-rule:evenodd;"
d="M 20.1414,58.1850
20.1414,57.1850
23.2914,57.1850
23.2914,58.1850
Z" /> 
<path style="fill:#B4A09A; fill-opacity:0.9000; stroke:none;fill-rule:evenodd;"
d="M 15.0914,60.7250
15.0914,59.7250
18.2414,59.7250
18.2414,60.7250
Z" /> 
<path style="fill:#B4A09A; fill-opacity:0.9000; stroke:none;fill-rule:evenodd;"
d="M 20.1414,60.7250
20.1414,59.7250
23.2914,59.7250
23.2914,60.7250
Z" /> 
<path style="fill:#B4A09A; fill-opacity:0.9000; stroke:none;fill-rule:evenodd;"
d="M 15.0914,63.2650
15.0914,62.2650
18.2414,62.2650
18.2414,63.2650
Z" /> 
<path style="fill:#B4A09A; fill-opacity:0.9000; stroke:none;fill-rule:evenodd;"
d="M 20.1414,63.2650
20.1414,62.2650
23.2914,62.2650
23.2914,63.2650
Z" /> 
<path style="fill:#B4A09A; fill-opacity:0.9000; stroke:none;fill-rule:evenodd;"
d="M 15.0914,65.8050
15.0914,64.8050
18.2414,64.8050
18.2414,65.8050
Z" /> 
<path style="fill:#B4A09A; fill-opacity:0.9000; stroke:none;fill-rule:evenodd;"
d="M 20.1414,65.8050
20.1414,64.8050
23.2914,64.8050
23.2914,65.8050
Z" /> 
<path style="fill:#B4A09A; fill-opacity:0.9000; stroke:none;fill-rule:evenodd;"
d="M 15.0914,68.3450
15.0914,67.3450
18.2414,67.3450
18.2414,68.3450
Z" /> 
<path style="fill:#B4A09A; fill-opacity:0.9000; stroke:none;fill-rule:evenodd;"
d="M 20.1414,68.3450
20.1414,67.3450
23.2914,67.3450
23.2914,68.3450
Z" /> 
</g>
<g style="fill:none; 
stroke:#F2EDA1; stroke-width:0.1588; stroke-opacity:1; 
stroke-linecap:round; stroke-linejoin:round;">
<text x="19.1914" y="35.4600"
textLength="5.6651" font-size="1.6933" lengthAdjust="spacingAndGlyphs"
text-anchor="middle" opacity="0">REF**</text>
<g class="stroked-text"><desc>REF**</desc>
<path d="M17.4980 35.4043
L17.0747 34.7995
" />
<path d="M16.7723 35.4043
L16.7723 34.1343
" />
<path d="M16.7723 34.1343
L17.2561 34.1343
" />
<path d="M17.2561 34.1343
L17.3771 34.1947
" />
<path d="M17.3771 34.1947
L17.4376 34.2552
" />
<path d="M17.4376 34.2552
L17.4980 34.3762
" />
<path d="M17.4980 34.3762
L17.4980 34.5576
" />
<path d="M17.4980 34.5576
L17.4376 34.6786
" />
<path d="M17.4376 34.6786
L17.3771 34.7390
" />
<path d="M17.3771 34.7390
L17.2561 34.7995
" />
<path d="M17.2561 34.7995
L16.7723 34.7995
" />
<path d="M18.0423 34.7390
L18.4656 34.7390
" />
<path d="M18.6471 35.4043
L18.0423 35.4043
" />
<path d="M18.0423 35.4043
L18.0423 34.1343
" />
<path d="M18.0423 34.1343
L18.6471 34.1343
" />
<path d="M19.6147 34.7390
L19.1914 34.7390
" />
<path d="M19.1914 35.4043
L19.1914 34.1343
" />
<path d="M19.1914 34.1343
L19.7961 34.1343
" />
<path d="M20.4614 34.1343
L20.4614 34.4367
" />
<path d="M20.1590 34.3157
L20.4614 34.4367
" />
<path d="M20.4614 34.4367
L20.7637 34.3157
" />
<path d="M20.2799 34.6786
L20.4614 34.4367
" />
<path d="M20.4614 34.4367
L20.6428 34.6786
" />
<path d="M21.4290 34.1343
L21.4290 34.4367
" />
<path d="M21.1266 34.3157
L21.4290 34.4367
" />
<path d="M21.4290 34.4367
L21.7314 34.3157
" />
<path d="M21.2476 34.6786
L21.4290 34.4367
" />
<path d="M21.4290 34.4367
L21.6104 34.6786
" />
</g></g>
<g style="fill:none; 
stroke:#F2EDA1; stroke-width:0.1200; stroke-opacity:1; 
stroke-linecap:round; stroke-linejoin:round;">
<path d="M15.1514 1.0450
L16.5914 1.0450
" />
<path d="M16.5914 0.4750
L16.5914 1.0450
" />
<path d="M16.5914 0.4750
L21.7914 0.4750
" />
<path d="M16.5914 2.5650
L16.5914 3.5850
" />
<path d="M16.5914 5.1050
L16.5914 6.1250
" />
<path d="M16.5914 7.6450
L16.5914 8.6650
" />
<path d="M16.5914 10.1850
L16.5914 11.2050
" />
<path d="M16.5914 12.7250
L16.5914 13.7450
" />
<path d="M16.5914 15.2650
L16.5914 16.2850
" />
<path d="M16.5914 17.8050
L16.5914 18.8250
" />
<path d="M16.5914 20.3450
L16.5914 21.3650
" />
<path d="M16.5914 22.8850
L16.5914 23.9050
" />
<path d="M16.5914 25.4250
L16.5914 26.4450
" />
<path d="M16.5914 27.9650
L16.5914 28.9850
" />
<path d="M16.5914 30.5050
L16.5914 31.5250
" />
<path d="M16.5914 33.0450
L16.5914 34.0650
" />
<path d="M16.5914 35.5850
L16.5914 36.6050
" />
<path d="M16.5914 38.1250
L16.5914 39.1450
" />
<path d="M16.5914 40.6650
L16.5914 41.6850
" />
<path d="M16.5914 43.2050
L16.5914 44.2250
" />
<path d="M16.5914 45.7450
L16.5914 46.7650
" />
<path d="M16.5914 48.2850
L16.5914 49.3050
" />
<path d="M16.5914 50.8250
L16.5914 51.8450
" />
<path d="M16.5914 53.3650
L16.5914 54.3850
" />
<path d="M16.5914 55.9050
L16.5914 56.9250
" />
<path d="M16.5914 58.4450
L16.5914 59.4650
" />
<path d="M16.5914 60.9850
L16.5914 62.0050
" />
<path d="M16.5914 63.5250
L16.5914 64.5450
" />
<path d="M16.5914 66.0650
L16.5914 67.0850
" />
<path d="M16.5914 68.6050
L16.5914 69.1750
" />
<path d="M16.5914 69.1750
L21.7914 69.1750
" />
<path d="M21.7914 0.4750
L21.7914 1.0450
" />
<path d="M21.7914 2.5650
L21.7914 3.5850
" />
<path d="M21.7914 5.1050
L21.7914 6.1250
" />
<path d="M21.7914 7.6450
L21.7914 8.6650
" />
<path d="M21.7914 10.1850
L21.7914 11.2050
" />
<path d="M21.7914 12.7250
L21.7914 13.7450
" />
<path d="M21.7914 15.2650
L21.7914 16.2850
" />
<path d="M21.7914 17.8050
L21.7914 18.8250
" />
<path d="M21.7914 20.3450
L21.7914 21.3650
" />
<path d="M21.7914 22.8850
L21.7914 23.9050
" />
<path d="M21.7914 25.4250
L21.7914 26.4450
" />
<path d="M21.7914 27.9650
L21.7914 28.9850
" />
<path d="M21.7914 30.5050
L21.7914 31.5250
" />
<path d="M21.7914 33.0450
L21.7914 34.0650
" />
<path d="M21.7914 35.5850
L21.7914 36.6050
" />
<path d="M21.7914 38.1250
L21.7914 39.1450
" />
<path d="M21.7914 40.6650
L21.7914 41.6850
" />
<path d="M21.7914 43.2050
L21.7914 44.2250
" />
<path d="M21.7914 45.7450
L21.7914 46.7650
" />
<path d="M21.7914 48.2850
L21.7914 49.3050
" />
<path d="M21.7914 50.8250
L21.7914 51.8450
" />
<path d="M21.7914 53.3650
L21.7914 54.3850
" />
<path d="M21.7914 55.9050
L21.7914 56.9250
" />
<path d="M21.7914 58.4450
L21.7914 59.4650
" />
<path d="M21.7914 60.9850
L21.7914 62.0050
" />
<path d="M21.7914 63.5250
L21.7914 64.5450
" />
<path d="M21.7914 66.0650
L21.7914 67.0850
" />
<path d="M21.7914 68.6050
L21.7914 69.1750
" />
</g>
<g style="fill:none; 
stroke:#FF26E2; stroke-width:0.0500; stroke-opacity:1; 
stroke-linecap:round; stroke-linejoin:round;">
<path d="M13.2914 0.0250
L13.2914 69.6250
" />
<path d="M13.2914 69.6250
L25.0914 69.6250
" />
<path d="M25.0914 0.0250
L13.2914 0.0250
" />
<path d="M25.0914 69.6250
L25.0914 0.0250
" />
</g>
<g style="fill:none; 
stroke:#AFAFAF; stroke-width:0.1588; stroke-opacity:1; 
stroke-linecap:round; stroke-linejoin:round;">
<text x="19.1914" y="35.4600"
textLength="38.3827" font-size="1.6933" lengthAdjust="spacingAndGlyphs"
text-anchor="middle" opacity="0">PinHeader_2x27_P2.54mm_Vertical_SMD</text>
<g class="stroked-text"><desc>PinHeader_2x27_P2.54mm_Vertical_SMD</desc>
<path d="M0.4135 35.4043
L0.4135 34.1343
" />
<path d="M0.4135 34.1343
L0.8973 34.1343
" />
<path d="M0.8973 34.1343
L1.0183 34.1947
" />
<path d="M1.0183 34.1947
L1.0787 34.2552
" />
<path d="M1.0787 34.2552
L1.1392 34.3762
" />
<path d="M1.1392 34.3762
L1.1392 34.5576
" />
<path d="M1.1392 34.5576
L1.0787 34.6786
" />
<path d="M1.0787 34.6786
L1.0183 34.7390
" />
<path d="M1.0183 34.7390
L0.8973 34.7995
" />
<path d="M0.8973 34.7995
L0.4135 34.7995
" />
<path d="M1.6835 35.4043
L1.6835 34.5576
" />
<path d="M1.6835 34.1343
L1.6230 34.1947
" />
<path d="M1.6230 34.1947
L1.6835 34.2552
" />
<path d="M1.6835 34.2552
L1.7440 34.1947
" />
<path d="M1.7440 34.1947
L1.6835 34.1343
" />
<path d="M1.6835 34.1343
L1.6835 34.2552
" />
<path d="M2.2883 34.5576
L2.2883 35.4043
" />
<path d="M2.2883 34.6786
L2.3487 34.6181
" />
<path d="M2.3487 34.6181
L2.4697 34.5576
" />
<path d="M2.4697 34.5576
L2.6511 34.5576
" />
<path d="M2.6511 34.5576
L2.7721 34.6181
" />
<path d="M2.7721 34.6181
L2.8326 34.7390
" />
<path d="M2.8326 34.7390
L2.8326 35.4043
" />
<path d="M3.4373 35.4043
L3.4373 34.1343
" />
<path d="M3.4373 34.7390
L4.1630 34.7390
" />
<path d="M4.1630 35.4043
L4.1630 34.1343
" />
<path d="M5.2516 35.3438
L5.1307 35.4043
" />
<path d="M5.1307 35.4043
L4.8887 35.4043
" />
<path d="M4.8887 35.4043
L4.7678 35.3438
" />
<path d="M4.7678 35.3438
L4.7073 35.2228
" />
<path d="M4.7073 35.2228
L4.7073 34.7390
" />
<path d="M4.7073 34.7390
L4.7678 34.6181
" />
<path d="M4.7678 34.6181
L4.8887 34.5576
" />
<path d="M4.8887 34.5576
L5.1307 34.5576
" />
<path d="M5.1307 34.5576
L5.2516 34.6181
" />
<path d="M5.2516 34.6181
L5.3121 34.7390
" />
<path d="M5.3121 34.7390
L5.3121 34.8600
" />
<path d="M5.3121 34.8600
L4.7073 34.9809
" />
<path d="M6.4006 35.4043
L6.4006 34.7390
" />
<path d="M6.4006 34.7390
L6.3402 34.6181
" />
<path d="M6.3402 34.6181
L6.2192 34.5576
" />
<path d="M6.2192 34.5576
L5.9773 34.5576
" />
<path d="M5.9773 34.5576
L5.8564 34.6181
" />
<path d="M6.4006 35.3438
L6.2797 35.4043
" />
<path d="M6.2797 35.4043
L5.9773 35.4043
" />
<path d="M5.9773 35.4043
L5.8564 35.3438
" />
<path d="M5.8564 35.3438
L5.7959 35.2228
" />
<path d="M5.7959 35.2228
L5.7959 35.1019
" />
<path d="M5.7959 35.1019
L5.8564 34.9809
" />
<path d="M5.8564 34.9809
L5.9773 34.9205
" />
<path d="M5.9773 34.9205
L6.2797 34.9205
" />
<path d="M6.2797 34.9205
L6.4006 34.8600
" />
<path d="M7.5497 35.4043
L7.5497 34.1343
" />
<path d="M7.5497 35.3438
L7.4287 35.4043
" />
<path d="M7.4287 35.4043
L7.1868 35.4043
" />
<path d="M7.1868 35.4043
L7.0659 35.3438
" />
<path d="M7.0659 35.3438
L7.0054 35.2833
" />
<path d="M7.0054 35.2833
L6.9449 35.1624
" />
<path d="M6.9449 35.1624
L6.9449 34.7995
" />
<path d="M6.9449 34.7995
L7.0054 34.6786
" />
<path d="M7.0054 34.6786
L7.0659 34.6181
" />
<path d="M7.0659 34.6181
L7.1868 34.5576
" />
<path d="M7.1868 34.5576
L7.4287 34.5576
" />
<path d="M7.4287 34.5576
L7.5497 34.6181
" />
<path d="M8.6383 35.3438
L8.5173 35.4043
" />
<path d="M8.5173 35.4043
L8.2754 35.4043
" />
<path d="M8.2754 35.4043
L8.1545 35.3438
" />
<path d="M8.1545 35.3438
L8.0940 35.2228
" />
<path d="M8.0940 35.2228
L8.0940 34.7390
" />
<path d="M8.0940 34.7390
L8.1545 34.6181
" />
<path d="M8.1545 34.6181
L8.2754 34.5576
" />
<path d="M8.2754 34.5576
L8.5173 34.5576
" />
<path d="M8.5173 34.5576
L8.6383 34.6181
" />
<path d="M8.6383 34.6181
L8.6987 34.7390
" />
<path d="M8.6987 34.7390
L8.6987 34.8600
" />
<path d="M8.6987 34.8600
L8.0940 34.9809
" />
<path d="M9.2430 35.4043
L9.2430 34.5576
" />
<path d="M9.2430 34.7995
L9.3035 34.6786
" />
<path d="M9.3035 34.6786
L9.3640 34.6181
" />
<path d="M9.3640 34.6181
L9.4849 34.5576
" />
<path d="M9.4849 34.5576
L9.6059 34.5576
" />
<path d="M9.7268 35.5252
L10.6945 35.5252
" />
<path d="M10.9364 34.2552
L10.9968 34.1947
" />
<path d="M10.9968 34.1947
L11.1178 34.1343
" />
<path d="M11.1178 34.1343
L11.4202 34.1343
" />
<path d="M11.4202 34.1343
L11.5411 34.1947
" />
<path d="M11.5411 34.1947
L11.6016 34.2552
" />
<path d="M11.6016 34.2552
L11.6621 34.3762
" />
<path d="M11.6621 34.3762
L11.6621 34.4971
" />
<path d="M11.6621 34.4971
L11.6016 34.6786
" />
<path d="M11.6016 34.6786
L10.8759 35.4043
" />
<path d="M10.8759 35.4043
L11.6621 35.4043
" />
<path d="M12.0854 35.4043
L12.7506 34.5576
" />
<path d="M12.0854 34.5576
L12.7506 35.4043
" />
<path d="M13.1740 34.2552
L13.2345 34.1947
" />
<path d="M13.2345 34.1947
L13.3554 34.1343
" />
<path d="M13.3554 34.1343
L13.6578 34.1343
" />
<path d="M13.6578 34.1343
L13.7787 34.1947
" />
<path d="M13.7787 34.1947
L13.8392 34.2552
" />
<path d="M13.8392 34.2552
L13.8997 34.3762
" />
<path d="M13.8997 34.3762
L13.8997 34.4971
" />
<path d="M13.8997 34.4971
L13.8392 34.6786
" />
<path d="M13.8392 34.6786
L13.1135 35.4043
" />
<path d="M13.1135 35.4043
L13.8997 35.4043
" />
<path d="M14.3230 34.1343
L15.1697 34.1343
" />
<path d="M15.1697 34.1343
L14.6254 35.4043
" />
<path d="M15.3511 35.5252
L16.3187 35.5252
" />
<path d="M16.6211 35.4043
L16.6211 34.1343
" />
<path d="M16.6211 34.1343
L17.1049 34.1343
" />
<path d="M17.1049 34.1343
L17.2259 34.1947
" />
<path d="M17.2259 34.1947
L17.2864 34.2552
" />
<path d="M17.2864 34.2552
L17.3468 34.3762
" />
<path d="M17.3468 34.3762
L17.3468 34.5576
" />
<path d="M17.3468 34.5576
L17.2864 34.6786
" />
<path d="M17.2864 34.6786
L17.2259 34.7390
" />
<path d="M17.2259 34.7390
L17.1049 34.7995
" />
<path d="M17.1049 34.7995
L16.6211 34.7995
" />
<path d="M17.8306 34.2552
L17.8911 34.1947
" />
<path d="M17.8911 34.1947
L18.0121 34.1343
" />
<path d="M18.0121 34.1343
L18.3145 34.1343
" />
<path d="M18.3145 34.1343
L18.4354 34.1947
" />
<path d="M18.4354 34.1947
L18.4959 34.2552
" />
<path d="M18.4959 34.2552
L18.5564 34.3762
" />
<path d="M18.5564 34.3762
L18.5564 34.4971
" />
<path d="M18.5564 34.4971
L18.4959 34.6786
" />
<path d="M18.4959 34.6786
L17.7702 35.4043
" />
<path d="M17.7702 35.4043
L18.5564 35.4043
" />
<path d="M19.1006 35.2833
L19.1611 35.3438
" />
<path d="M19.1611 35.3438
L19.1006 35.4043
" />
<path d="M19.1006 35.4043
L19.0402 35.3438
" />
<path d="M19.0402 35.3438
L19.1006 35.2833
" />
<path d="M19.1006 35.2833
L19.1006 35.4043
" />
<path d="M20.3102 34.1343
L19.7054 34.1343
" />
<path d="M19.7054 34.1343
L19.6449 34.7390
" />
<path d="M19.6449 34.7390
L19.7054 34.6786
" />
<path d="M19.7054 34.6786
L19.8264 34.6181
" />
<path d="M19.8264 34.6181
L20.1287 34.6181
" />
<path d="M20.1287 34.6181
L20.2497 34.6786
" />
<path d="M20.2497 34.6786
L20.3102 34.7390
" />
<path d="M20.3102 34.7390
L20.3706 34.8600
" />
<path d="M20.3706 34.8600
L20.3706 35.1624
" />
<path d="M20.3706 35.1624
L20.3102 35.2833
" />
<path d="M20.3102 35.2833
L20.2497 35.3438
" />
<path d="M20.2497 35.3438
L20.1287 35.4043
" />
<path d="M20.1287 35.4043
L19.8264 35.4043
" />
<path d="M19.8264 35.4043
L19.7054 35.3438
" />
<path d="M19.7054 35.3438
L19.6449 35.2833
" />
<path d="M21.4592 34.5576
L21.4592 35.4043
" />
<path d="M21.1568 34.0738
L20.8545 34.9809
" />
<path d="M20.8545 34.9809
L21.6406 34.9809
" />
<path d="M22.1245 35.4043
L22.1245 34.5576
" />
<path d="M22.1245 34.6786
L22.1849 34.6181
" />
<path d="M22.1849 34.6181
L22.3059 34.5576
" />
<path d="M22.3059 34.5576
L22.4873 34.5576
" />
<path d="M22.4873 34.5576
L22.6083 34.6181
" />
<path d="M22.6083 34.6181
L22.6687 34.7390
" />
<path d="M22.6687 34.7390
L22.6687 35.4043
" />
<path d="M22.6687 34.7390
L22.7292 34.6181
" />
<path d="M22.7292 34.6181
L22.8502 34.5576
" />
<path d="M22.8502 34.5576
L23.0316 34.5576
" />
<path d="M23.0316 34.5576
L23.1526 34.6181
" />
<path d="M23.1526 34.6181
L23.2130 34.7390
" />
<path d="M23.2130 34.7390
L23.2130 35.4043
" />
<path d="M23.8178 35.4043
L23.8178 34.5576
" />
<path d="M23.8178 34.6786
L23.8783 34.6181
" />
<path d="M23.8783 34.6181
L23.9992 34.5576
" />
<path d="M23.9992 34.5576
L24.1806 34.5576
" />
<path d="M24.1806 34.5576
L24.3016 34.6181
" />
<path d="M24.3016 34.6181
L24.3621 34.7390
" />
<path d="M24.3621 34.7390
L24.3621 35.4043
" />
<path d="M24.3621 34.7390
L24.4226 34.6181
" />
<path d="M24.4226 34.6181
L24.5435 34.5576
" />
<path d="M24.5435 34.5576
L24.7249 34.5576
" />
<path d="M24.7249 34.5576
L24.8459 34.6181
" />
<path d="M24.8459 34.6181
L24.9064 34.7390
" />
<path d="M24.9064 34.7390
L24.9064 35.4043
" />
<path d="M25.2087 35.5252
L26.1764 35.5252
" />
<path d="M26.2973 34.1343
L26.7206 35.4043
" />
<path d="M26.7206 35.4043
L27.1440 34.1343
" />
<path d="M28.0511 35.3438
L27.9302 35.4043
" />
<path d="M27.9302 35.4043
L27.6883 35.4043
" />
<path d="M27.6883 35.4043
L27.5673 35.3438
" />
<path d="M27.5673 35.3438
L27.5068 35.2228
" />
<path d="M27.5068 35.2228
L27.5068 34.7390
" />
<path d="M27.5068 34.7390
L27.5673 34.6181
" />
<path d="M27.5673 34.6181
L27.6883 34.5576
" />
<path d="M27.6883 34.5576
L27.9302 34.5576
" />
<path d="M27.9302 34.5576
L28.0511 34.6181
" />
<path d="M28.0511 34.6181
L28.1116 34.7390
" />
<path d="M28.1116 34.7390
L28.1116 34.8600
" />
<path d="M28.1116 34.8600
L27.5068 34.9809
" />
<path d="M28.6559 35.4043
L28.6559 34.5576
" />
<path d="M28.6559 34.7995
L28.7164 34.6786
" />
<path d="M28.7164 34.6786
L28.7768 34.6181
" />
<path d="M28.7768 34.6181
L28.8978 34.5576
" />
<path d="M28.8978 34.5576
L29.0187 34.5576
" />
<path d="M29.2606 34.5576
L29.7445 34.5576
" />
<path d="M29.4421 34.1343
L29.4421 35.2228
" />
<path d="M29.4421 35.2228
L29.5026 35.3438
" />
<path d="M29.5026 35.3438
L29.6235 35.4043
" />
<path d="M29.6235 35.4043
L29.7445 35.4043
" />
<path d="M30.1678 35.4043
L30.1678 34.5576
" />
<path d="M30.1678 34.1343
L30.1073 34.1947
" />
<path d="M30.1073 34.1947
L30.1678 34.2552
" />
<path d="M30.1678 34.2552
L30.2283 34.1947
" />
<path d="M30.2283 34.1947
L30.1678 34.1343
" />
<path d="M30.1678 34.1343
L30.1678 34.2552
" />
<path d="M31.3168 35.3438
L31.1959 35.4043
" />
<path d="M31.1959 35.4043
L30.9540 35.4043
" />
<path d="M30.9540 35.4043
L30.8330 35.3438
" />
<path d="M30.8330 35.3438
L30.7726 35.2833
" />
<path d="M30.7726 35.2833
L30.7121 35.1624
" />
<path d="M30.7121 35.1624
L30.7121 34.7995
" />
<path d="M30.7121 34.7995
L30.7726 34.6786
" />
<path d="M30.7726 34.6786
L30.8330 34.6181
" />
<path d="M30.8330 34.6181
L30.9540 34.5576
" />
<path d="M30.9540 34.5576
L31.1959 34.5576
" />
<path d="M31.1959 34.5576
L31.3168 34.6181
" />
<path d="M32.4054 35.4043
L32.4054 34.7390
" />
<path d="M32.4054 34.7390
L32.3449 34.6181
" />
<path d="M32.3449 34.6181
L32.2240 34.5576
" />
<path d="M32.2240 34.5576
L31.9821 34.5576
" />
<path d="M31.9821 34.5576
L31.8611 34.6181
" />
<path d="M32.4054 35.3438
L32.2845 35.4043
" />
<path d="M32.2845 35.4043
L31.9821 35.4043
" />
<path d="M31.9821 35.4043
L31.8611 35.3438
" />
<path d="M31.8611 35.3438
L31.8006 35.2228
" />
<path d="M31.8006 35.2228
L31.8006 35.1019
" />
<path d="M31.8006 35.1019
L31.8611 34.9809
" />
<path d="M31.8611 34.9809
L31.9821 34.9205
" />
<path d="M31.9821 34.9205
L32.2845 34.9205
" />
<path d="M32.2845 34.9205
L32.4054 34.8600
" />
<path d="M33.1916 35.4043
L33.0706 35.3438
" />
<path d="M33.0706 35.3438
L33.0102 35.2228
" />
<path d="M33.0102 35.2228
L33.0102 34.1343
" />
<path d="M33.3730 35.5252
L34.3406 35.5252
" />
<path d="M34.5826 35.3438
L34.7640 35.4043
" />
<path d="M34.7640 35.4043
L35.0664 35.4043
" />
<path d="M35.0664 35.4043
L35.1873 35.3438
" />
<path d="M35.1873 35.3438
L35.2478 35.2833
" />
<path d="M35.2478 35.2833
L35.3083 35.1624
" />
<path d="M35.3083 35.1624
L35.3083 35.0414
" />
<path d="M35.3083 35.0414
L35.2478 34.9205
" />
<path d="M35.2478 34.9205
L35.1873 34.8600
" />
<path d="M35.1873 34.8600
L35.0664 34.7995
" />
<path d="M35.0664 34.7995
L34.8245 34.7390
" />
<path d="M34.8245 34.7390
L34.7035 34.6786
" />
<path d="M34.7035 34.6786
L34.6430 34.6181
" />
<path d="M34.6430 34.6181
L34.5826 34.4971
" />
<path d="M34.5826 34.4971
L34.5826 34.3762
" />
<path d="M34.5826 34.3762
L34.6430 34.2552
" />
<path d="M34.6430 34.2552
L34.7035 34.1947
" />
<path d="M34.7035 34.1947
L34.8245 34.1343
" />
<path d="M34.8245 34.1343
L35.1268 34.1343
" />
<path d="M35.1268 34.1343
L35.3083 34.1947
" />
<path d="M35.8526 35.4043
L35.8526 34.1343
" />
<path d="M35.8526 34.1343
L36.2759 35.0414
" />
<path d="M36.2759 35.0414
L36.6992 34.1343
" />
<path d="M36.6992 34.1343
L36.6992 35.4043
" />
<path d="M37.3040 35.4043
L37.3040 34.1343
" />
<path d="M37.3040 34.1343
L37.6064 34.1343
" />
<path d="M37.6064 34.1343
L37.7878 34.1947
" />
<path d="M37.7878 34.1947
L37.9087 34.3157
" />
<path d="M37.9087 34.3157
L37.9692 34.4367
" />
<path d="M37.9692 34.4367
L38.0297 34.6786
" />
<path d="M38.0297 34.6786
L38.0297 34.8600
" />
<path d="M38.0297 34.8600
L37.9692 35.1019
" />
<path d="M37.9692 35.1019
L37.9087 35.2228
" />
<path d="M37.9087 35.2228
L37.7878 35.3438
" />
<path d="M37.7878 35.3438
L37.6064 35.4043
" />
<path d="M37.6064 35.4043
L37.3040 35.4043
" />
</g></g>
<g style="fill:none; 
stroke:#AFAFAF; stroke-width:0.1500; stroke-opacity:1; 
stroke-linecap:round; stroke-linejoin:round;">
<g transform="rotate(-90.000000 19.1914 34.8250)">
<text x="19.1914" y="35.3250"
textLength="4.5357" font-size="1.3333" lengthAdjust="spacingAndGlyphs"
text-anchor="middle" opacity="0">REF**</text>
</g>
<g class="stroked-text"><desc>REF**</desc>
<path d="M19.6462 36.1583
L19.1700 36.4917
" />
<path d="M19.6462 36.7298
L18.6462 36.7298
" />
<path d="M18.6462 36.7298
L18.6462 36.3488
" />
<path d="M18.6462 36.3488
L18.6938 36.2536
" />
<path d="M18.6938 36.2536
L18.7414 36.2060
" />
<path d="M18.7414 36.2060
L18.8367 36.1583
" />
<path d="M18.8367 36.1583
L18.9795 36.1583
" />
<path d="M18.9795 36.1583
L19.0748 36.2060
" />
<path d="M19.0748 36.2060
L19.1224 36.2536
" />
<path d="M19.1224 36.2536
L19.1700 36.3488
" />
<path d="M19.1700 36.3488
L19.1700 36.7298
" />
<path d="M19.1224 35.7298
L19.1224 35.3964
" />
<path d="M19.6462 35.2536
L19.6462 35.7298
" />
<path d="M19.6462 35.7298
L18.6462 35.7298
" />
<path d="M18.6462 35.7298
L18.6462 35.2536
" />
<path d="M19.1224 34.4917
L19.1224 34.8250
" />
<path d="M19.6462 34.8250
L18.6462 34.8250
" />
<path d="M18.6462 34.8250
L18.6462 34.3488
" />
<path d="M18.6462 33.8250
L18.8843 33.8250
" />
<path d="M18.7890 34.0631
L18.8843 33.8250
" />
<path d="M18.8843 33.8250
L18.7890 33.5869
" />
<path d="M19.0748 33.9679
L18.8843 33.8250
" />
<path d="M18.8843 33.8250
L19.0748 33.6821
" />
<path d="M18.6462 33.0631
L18.8843 33.0631
" />
<path d="M18.7890 33.3012
L18.8843 33.0631
" />
<path d="M18.8843 33.0631
L18.7890 32.8250
" />
<path d="M19.0748 33.2060
L18.8843 33.0631
" />
<path d="M18.8843 33.0631
L19.0748 32.9202
" />
</g></g>
<g style="fill:none; 
stroke:#AFAFAF; stroke-width:0.1000; stroke-opacity:1; 
stroke-linecap:round; stroke-linejoin:round;">
<path d="M15.5914 1.4850
L15.5914 2.1250
" />
<path d="M15.5914 2.1250
L16.6514 2.1250
" />
<path d="M15.5914 4.0250
L15.5914 4.6650
" />
<path d="M15.5914 4.6650
L16.6514 4.6650
" />
<path d="M15.5914 6.5650
L15.5914 7.2050
" />
<path d="M15.5914 7.2050
L16.6514 7.2050
" />
<path d="M15.5914 9.1050
L15.5914 9.7450
" />
<path d="M15.5914 9.7450
L16.6514 9.7450
" />
<path d="M15.5914 11.6450
L15.5914 12.2850
" />
<path d="M15.5914 12.2850
L16.6514 12.2850
" />
<path d="M15.5914 14.1850
L15.5914 14.8250
" />
<path d="M15.5914 14.8250
L16.6514 14.8250
" />
<path d="M15.5914 16.7250
L15.5914 17.3650
" />
<path d="M15.5914 17.3650
L16.6514 17.3650
" />
<path d="M15.5914 19.2650
L15.5914 19.9050
" />
<path d="M15.5914 19.9050
L16.6514 19.9050
" />
<path d="M15.5914 21.8050
L15.5914 22.4450
" />
<path d="M15.5914 22.4450
L16.6514 22.4450
" />
<path d="M15.5914 24.3450
L15.5914 24.9850
" />
<path d="M15.5914 24.9850
L16.6514 24.9850
" />
<path d="M15.5914 26.8850
L15.5914 27.5250
" />
<path d="M15.5914 27.5250
L16.6514 27.5250
" />
<path d="M15.5914 29.4250
L15.5914 30.0650
" />
<path d="M15.5914 30.0650
L16.6514 30.0650
" />
<path d="M15.5914 31.9650
L15.5914 32.6050
" />
<path d="M15.5914 32.6050
L16.6514 32.6050
" />
<path d="M15.5914 34.5050
L15.5914 35.1450
" />
<path d="M15.5914 35.1450
L16.6514 35.1450
" />
<path d="M15.5914 37.0450
L15.5914 37.6850
" />
<path d="M15.5914 37.6850
L16.6514 37.6850
" />
<path d="M15.5914 39.5850
L15.5914 40.2250
" />
<path d="M15.5914 40.2250
L16.6514 40.2250
" />
<path d="M15.5914 42.1250
L15.5914 42.7650
" />
<path d="M15.5914 42.7650
L16.6514 42.7650
" />
<path d="M15.5914 44.6650
L15.5914 45.3050
" />
<path d="M15.5914 45.3050
L16.6514 45.3050
" />
<path d="M15.5914 47.2050
L15.5914 47.8450
" />
<path d="M15.5914 47.8450
L16.6514 47.8450
" />
<path d="M15.5914 49.7450
L15.5914 50.3850
" />
<path d="M15.5914 50.3850
L16.6514 50.3850
" />
<path d="M15.5914 52.2850
L15.5914 52.9250
" />
<path d="M15.5914 52.9250
L16.6514 52.9250
" />
<path d="M15.5914 54.8250
L15.5914 55.4650
" />
<path d="M15.5914 55.4650
L16.6514 55.4650
" />
<path d="M15.5914 57.3650
L15.5914 58.0050
" />
<path d="M15.5914 58.0050
L16.6514 58.0050
" />
<path d="M15.5914 59.9050
L15.5914 60.5450
" />
<path d="M15.5914 60.5450
L16.6514 60.5450
" />
<path d="M15.5914 62.4450
L15.5914 63.0850
" />
<path d="M15.5914 63.0850
L16.6514 63.0850
" />
<path d="M15.5914 64.9850
L15.5914 65.6250
" />
<path d="M15.5914 65.6250
L16.6514 65.6250
" />
<path d="M15.5914 67.5250
L15.5914 68.1650
" />
<path d="M15.5914 68.1650
L16.6514 68.1650
" />
<path d="M16.6514 1.4850
L15.5914 1.4850
" />
<path d="M16.6514 1.4850
L17.6014 0.5350
" />
<path d="M16.6514 4.0250
L15.5914 4.0250
" />
<path d="M16.6514 6.5650
L15.5914 6.5650
" />
<path d="M16.6514 9.1050
L15.5914 9.1050
" />
<path d="M16.6514 11.6450
L15.5914 11.6450
" />
<path d="M16.6514 14.1850
L15.5914 14.1850
" />
<path d="M16.6514 16.7250
L15.5914 16.7250
" />
<path d="M16.6514 19.2650
L15.5914 19.2650
" />
<path d="M16.6514 21.8050
L15.5914 21.8050
" />
<path d="M16.6514 24.3450
L15.5914 24.3450
" />
<path d="M16.6514 26.8850
L15.5914 26.8850
" />
<path d="M16.6514 29.4250
L15.5914 29.4250
" />
<path d="M16.6514 31.9650
L15.5914 31.9650
" />
<path d="M16.6514 34.5050
L15.5914 34.5050
" />
<path d="M16.6514 37.0450
L15.5914 37.0450
" />
<path d="M16.6514 39.5850
L15.5914 39.5850
" />
<path d="M16.6514 42.1250
L15.5914 42.1250
" />
<path d="M16.6514 44.6650
L15.5914 44.6650
" />
<path d="M16.6514 47.2050
L15.5914 47.2050
" />
<path d="M16.6514 49.7450
L15.5914 49.7450
" />
<path d="M16.6514 52.2850
L15.5914 52.2850
" />
<path d="M16.6514 54.8250
L15.5914 54.8250
" />
<path d="M16.6514 57.3650
L15.5914 57.3650
" />
<path d="M16.6514 59.9050
L15.5914 59.9050
" />
<path d="M16.6514 62.4450
L15.5914 62.4450
" />
<path d="M16.6514 64.9850
L15.5914 64.9850
" />
<path d="M16.6514 67.5250
L15.5914 67.5250
" />
<path d="M16.6514 69.1150
L16.6514 1.4850
" />
<path d="M17.6014 0.5350
L21.7314 0.5350
" />
<path d="M21.7314 0.5350
L21.7314 69.1150
" />
<path d="M21.7314 1.4850
L22.7914 1.4850
" />
<path d="M21.7314 4.0250
L22.7914 4.0250
" />
<path d="M21.7314 6.5650
L22.7914 6.5650
" />
<path d="M21.7314 9.1050
L22.7914 9.1050
" />
<path d="M21.7314 11.6450
L22.7914 11.6450
" />
<path d="M21.7314 14.1850
L22.7914 14.1850
" />
<path d="M21.7314 16.7250
L22.7914 16.7250
" />
<path d="M21.7314 19.2650
L22.7914 19.2650
" />
<path d="M21.7314 21.8050
L22.7914 21.8050
" />
<path d="M21.7314 24.3450
L22.7914 24.3450
" />
<path d="M21.7314 26.8850
L22.7914 26.8850
" />
<path d="M21.7314 29.4250
L22.7914 29.4250
" />
<path d="M21.7314 31.9650
L22.7914 31.9650
" />
<path d="M21.7314 34.5050
L22.7914 34.5050
" />
<path d="M21.7314 37.0450
L22.7914 37.0450
" />
<path d="M21.7314 39.5850
L22.7914 39.5850
" />
<path d="M21.7314 42.1250
L22.7914 42.1250
" />
<path d="M21.7314 44.6650
L22.7914 44.6650
" />
<path d="M21.7314 47.2050
L22.7914 47.2050
" />
<path d="M21.7314 49.7450
L22.7914 49.7450
" />
<path d="M21.7314 52.2850
L22.7914 52.2850
" />
<path d="M21.7314 54.8250
L22.7914 54.8250
" />
<path d="M21.7314 57.3650
L22.7914 57.3650
" />
<path d="M21.7314 59.9050
L22.7914 59.9050
" />
<path d="M21.7314 62.4450
L22.7914 62.4450
" />
<path d="M21.7314 64.9850
L22.7914 64.9850
" />
<path d="M21.7314 67.5250
L22.7914 67.5250
" />
<path d="M21.7314 69.1150
L16.6514 69.1150
" />
<path d="M22.7914 1.4850
L22.7914 2.1250
" />
<path d="M22.7914 2.1250
L21.7314 2.1250
" />
<path d="M22.7914 4.0250
L22.7914 4.6650
" />
<path d="M22.7914 4.6650
L21.7314 4.6650
" />
<path d="M22.7914 6.5650
L22.7914 7.2050
" />
<path d="M22.7914 7.2050
L21.7314 7.2050
" />
<path d="M22.7914 9.1050
L22.7914 9.7450
" />
<path d="M22.7914 9.7450
L21.7314 9.7450
" />
<path d="M22.7914 11.6450
L22.7914 12.2850
" />
<path d="M22.7914 12.2850
L21.7314 12.2850
" />
<path d="M22.7914 14.1850
L22.7914 14.8250
" />
<path d="M22.7914 14.8250
L21.7314 14.8250
" />
<path d="M22.7914 16.7250
L22.7914 17.3650
" />
<path d="M22.7914 17.3650
L21.7314 17.3650
" />
<path d="M22.7914 19.2650
L22.7914 19.9050
" />
<path d="M22.7914 19.9050
L21.7314 19.9050
" />
<path d="M22.7914 21.8050
L22.7914 22.4450
" />
<path d="M22.7914 22.4450
L21.7314 22.4450
" />
<path d="M22.7914 24.3450
L22.7914 24.9850
" />
<path d="M22.7914 24.9850
L21.7314 24.9850
" />
<path d="M22.7914 26.8850
L22.7914 27.5250
" />
<path d="M22.7914 27.5250
L21.7314 27.5250
" />
<path d="M22.7914 29.4250
L22.7914 30.0650
" />
<path d="M22.7914 30.0650
L21.7314 30.0650
" />
<path d="M22.7914 31.9650
L22.7914 32.6050
" />
<path d="M22.7914 32.6050
L21.7314 32.6050
" />
<path d="M22.7914 34.5050
L22.7914 35.1450
" />
<path d="M22.7914 35.1450
L21.7314 35.1450
" />
<path d="M22.7914 37.0450
L22.7914 37.6850
" />
<path d="M22.7914 37.6850
L21.7314 37.6850
" />
<path d="M22.7914 39.5850
L22.7914 40.2250
" />
<path d="M22.7914 40.2250
L21.7314 40.2250
" />
<path d="M22.7914 42.1250
L22.7914 42.7650
" />
<path d="M22.7914 42.7650
L21.7314 42.7650
" />
<path d="M22.7914 44.6650
L22.7914 45.3050
" />
<path d="M22.7914 45.3050
L21.7314 45.3050
" />
<path d="M22.7914 47.2050
L22.7914 47.8450
" />
<path d="M22.7914 47.8450
L21.7314 47.8450
" />
<path d="M22.7914 49.7450
L22.7914 50.3850
" />
<path d="M22.7914 50.3850
L21.7314 50.3850
" />
<path d="M22.7914 52.2850
L22.7914 52.9250
" />
<path d="M22.7914 52.9250
L21.7314 52.9250
" />
<path d="M22.7914 54.8250
L22.7914 55.4650
" />
<path d="M22.7914 55.4650
L21.7314 55.4650
" />
<path d="M22.7914 57.3650
L22.7914 58.0050
" />
<path d="M22.7914 58.0050
L21.7314 58.0050
" />
<path d="M22.7914 59.9050
L22.7914 60.5450
" />
<path d="M22.7914 60.5450
L21.7314 60.5450
" />
<path d="M22.7914 62.4450
L22.7914 63.0850
" />
<path d="M22.7914 63.0850
L21.7314 63.0850
" />
<path d="M22.7914 64.9850
L22.7914 65.6250
" />
<path d="M22.7914 65.6250
L21.7314 65.6250
" />
<path d="M22.7914 67.5250
L22.7914 68.1650
" />
<path d="M22.7914 68.1650
L21.7314 68.1650
" />
</g> 
</svg>
