<?xml version="1.0" standalone="no"?>
 <!DOCTYPE svg PUBLIC "-//W3C//DTD SVG 1.1//EN" 
 "http://www.w3.org/Graphics/SVG/1.1/DTD/svg11.dtd"> 
<svg
  xmlns:svg="http://www.w3.org/2000/svg"
  xmlns="http://www.w3.org/2000/svg"
  xmlns:xlink="http://www.w3.org/1999/xlink"
  version="1.1"
  width="36.0172mm" height="95.0976mm" viewBox="0.0000 0.0000 36.0172 95.0976">
<title>SVG Image created as working-brd.svg date 2024/04/03 22:48:51 </title>
  <desc>Image generated by PCBNEW </desc>
<g style="fill:#000000; fill-opacity:1.0000;stroke:#000000; stroke-opacity:1.0000;
stroke-linecap:round; stroke-linejoin:round;"
 transform="translate(0 0) scale(1 1)">
</g>
<g style="fill:#FFFFFF; fill-opacity:1.0000; stroke:none;">
<circle cx="18.0121" cy="1.8250" r="0.5000" /> 
</g>
<g style="fill:#FFFFFF; fill-opacity:1.0000; stroke:none;">
<circle cx="18.0121" cy="4.3650" r="0.5000" /> 
</g>
<g style="fill:#FFFFFF; fill-opacity:1.0000; stroke:none;">
<circle cx="18.0121" cy="6.9050" r="0.5000" /> 
</g>
<g style="fill:#FFFFFF; fill-opacity:1.0000; stroke:none;">
<circle cx="18.0121" cy="9.4450" r="0.5000" /> 
</g>
<g style="fill:#FFFFFF; fill-opacity:1.0000; stroke:none;">
<circle cx="18.0121" cy="11.9850" r="0.5000" /> 
</g>
<g style="fill:#FFFFFF; fill-opacity:1.0000; stroke:none;">
<circle cx="18.0121" cy="14.5250" r="0.5000" /> 
</g>
<g style="fill:#FFFFFF; fill-opacity:1.0000; stroke:none;">
<circle cx="18.0121" cy="17.0650" r="0.5000" /> 
</g>
<g style="fill:#FFFFFF; fill-opacity:1.0000; stroke:none;">
<circle cx="18.0121" cy="19.6050" r="0.5000" /> 
</g>
<g style="fill:#FFFFFF; fill-opacity:1.0000; stroke:none;">
<circle cx="18.0121" cy="22.1450" r="0.5000" /> 
</g>
<g style="fill:#FFFFFF; fill-opacity:1.0000; stroke:none;">
<circle cx="18.0121" cy="24.6850" r="0.5000" /> 
</g>
<g style="fill:#FFFFFF; fill-opacity:1.0000; stroke:none;">
<circle cx="18.0121" cy="27.2250" r="0.5000" /> 
</g>
<g style="fill:#FFFFFF; fill-opacity:1.0000; stroke:none;">
<circle cx="18.0121" cy="29.7650" r="0.5000" /> 
</g>
<g style="fill:#FFFFFF; fill-opacity:1.0000; stroke:none;">
<circle cx="18.0121" cy="32.3050" r="0.5000" /> 
</g>
<g style="fill:#FFFFFF; fill-opacity:1.0000; stroke:none;">
<circle cx="18.0121" cy="34.8450" r="0.5000" /> 
</g>
<g style="fill:#FFFFFF; fill-opacity:1.0000; stroke:none;">
<circle cx="18.0121" cy="37.3850" r="0.5000" /> 
</g>
<g style="fill:#FFFFFF; fill-opacity:1.0000; stroke:none;">
<circle cx="18.0121" cy="39.9250" r="0.5000" /> 
</g>
<g style="fill:#FFFFFF; fill-opacity:1.0000; stroke:none;">
<circle cx="18.0121" cy="42.4650" r="0.5000" /> 
</g>
<g style="fill:#FFFFFF; fill-opacity:1.0000; stroke:none;">
<circle cx="18.0121" cy="45.0050" r="0.5000" /> 
</g>
<g style="fill:#FFFFFF; fill-opacity:1.0000; stroke:none;">
<circle cx="18.0121" cy="47.5450" r="0.5000" /> 
</g>
<g style="fill:#FFFFFF; fill-opacity:1.0000; stroke:none;">
<circle cx="18.0121" cy="50.0850" r="0.5000" /> 
</g>
<g style="fill:#FFFFFF; fill-opacity:1.0000; stroke:none;">
<circle cx="18.0121" cy="52.6250" r="0.5000" /> 
</g>
<g style="fill:#FFFFFF; fill-opacity:1.0000; stroke:none;">
<circle cx="18.0121" cy="55.1650" r="0.5000" /> 
</g>
<g style="fill:#FFFFFF; fill-opacity:1.0000; stroke:none;">
<circle cx="18.0121" cy="57.7050" r="0.5000" /> 
</g>
<g style="fill:#FFFFFF; fill-opacity:1.0000; stroke:none;">
<circle cx="18.0121" cy="60.2450" r="0.5000" /> 
</g>
<g style="fill:#FFFFFF; fill-opacity:1.0000; stroke:none;">
<circle cx="18.0121" cy="62.7850" r="0.5000" /> 
</g>
<g style="fill:#FFFFFF; fill-opacity:1.0000; stroke:none;">
<circle cx="18.0121" cy="65.3250" r="0.5000" /> 
</g>
<g style="fill:#FFFFFF; fill-opacity:1.0000; stroke:none;">
<circle cx="18.0121" cy="67.8650" r="0.5000" /> 
</g>
<g style="fill:#FFFFFF; fill-opacity:1.0000; stroke:none;">
<circle cx="18.0121" cy="70.4050" r="0.5000" /> 
</g>
<g style="fill:#FFFFFF; fill-opacity:1.0000; stroke:none;">
<circle cx="18.0121" cy="72.9450" r="0.5000" /> 
</g>
<g style="fill:#FFFFFF; fill-opacity:1.0000; stroke:none;">
<circle cx="18.0121" cy="75.4850" r="0.5000" /> 
</g>
<g style="fill:#FFFFFF; fill-opacity:1.0000; stroke:none;">
<circle cx="18.0121" cy="78.0250" r="0.5000" /> 
</g>
<g style="fill:#FFFFFF; fill-opacity:1.0000; stroke:none;">
<circle cx="18.0121" cy="80.5650" r="0.5000" /> 
</g>
<g style="fill:#FFFFFF; fill-opacity:1.0000; stroke:none;">
<circle cx="18.0121" cy="83.1050" r="0.5000" /> 
</g>
<g style="fill:#FFFFFF; fill-opacity:1.0000; stroke:none;">
<circle cx="18.0121" cy="85.6450" r="0.5000" /> 
</g>
<g style="fill:#FFFFFF; fill-opacity:1.0000; stroke:none;">
<circle cx="18.0121" cy="88.1850" r="0.5000" /> 
</g>
<g style="fill:#FFFFFF; fill-opacity:1.0000; stroke:none;">
<circle cx="18.0121" cy="90.7250" r="0.5000" /> 
</g>
<g style="fill:#FFFFFF; fill-opacity:1.0000; stroke:none;">
<circle cx="18.0121" cy="93.2650" r="0.5000" /> 
<path style="fill:#02FFEE; fill-opacity:0.4000; stroke:none;fill-rule:evenodd;"
d="M 17.1621,2.6750
17.1621,0.9750
18.8621,0.9750
18.8621,2.6750
Z" /> 
</g>
<g style="fill:#02FFEE; fill-opacity:0.4000; stroke:none;">
<circle cx="18.0121" cy="4.3650" r="0.8500" /> 
<circle cx="18.0121" cy="6.9050" r="0.8500" /> 
<circle cx="18.0121" cy="9.4450" r="0.8500" /> 
<circle cx="18.0121" cy="11.9850" r="0.8500" /> 
<circle cx="18.0121" cy="14.5250" r="0.8500" /> 
<circle cx="18.0121" cy="17.0650" r="0.8500" /> 
<circle cx="18.0121" cy="19.6050" r="0.8500" /> 
<circle cx="18.0121" cy="22.1450" r="0.8500" /> 
<circle cx="18.0121" cy="24.6850" r="0.8500" /> 
<circle cx="18.0121" cy="27.2250" r="0.8500" /> 
<circle cx="18.0121" cy="29.7650" r="0.8500" /> 
<circle cx="18.0121" cy="32.3050" r="0.8500" /> 
<circle cx="18.0121" cy="34.8450" r="0.8500" /> 
<circle cx="18.0121" cy="37.3850" r="0.8500" /> 
<circle cx="18.0121" cy="39.9250" r="0.8500" /> 
<circle cx="18.0121" cy="42.4650" r="0.8500" /> 
<circle cx="18.0121" cy="45.0050" r="0.8500" /> 
<circle cx="18.0121" cy="47.5450" r="0.8500" /> 
<circle cx="18.0121" cy="50.0850" r="0.8500" /> 
<circle cx="18.0121" cy="52.6250" r="0.8500" /> 
<circle cx="18.0121" cy="55.1650" r="0.8500" /> 
<circle cx="18.0121" cy="57.7050" r="0.8500" /> 
<circle cx="18.0121" cy="60.2450" r="0.8500" /> 
<circle cx="18.0121" cy="62.7850" r="0.8500" /> 
<circle cx="18.0121" cy="65.3250" r="0.8500" /> 
<circle cx="18.0121" cy="67.8650" r="0.8500" /> 
<circle cx="18.0121" cy="70.4050" r="0.8500" /> 
<circle cx="18.0121" cy="72.9450" r="0.8500" /> 
<circle cx="18.0121" cy="75.4850" r="0.8500" /> 
<circle cx="18.0121" cy="78.0250" r="0.8500" /> 
<circle cx="18.0121" cy="80.5650" r="0.8500" /> 
<circle cx="18.0121" cy="83.1050" r="0.8500" /> 
<circle cx="18.0121" cy="85.6450" r="0.8500" /> 
<circle cx="18.0121" cy="88.1850" r="0.8500" /> 
<circle cx="18.0121" cy="90.7250" r="0.8500" /> 
<circle cx="18.0121" cy="93.2650" r="0.8500" /> 
</g>
<g style="fill:#FFFFFF; fill-opacity:1.0000; stroke:none;">
<circle cx="18.0121" cy="1.8250" r="0.5000" /> 
</g>
<g style="fill:#FFFFFF; fill-opacity:1.0000; stroke:none;">
<circle cx="18.0121" cy="4.3650" r="0.5000" /> 
</g>
<g style="fill:#FFFFFF; fill-opacity:1.0000; stroke:none;">
<circle cx="18.0121" cy="6.9050" r="0.5000" /> 
</g>
<g style="fill:#FFFFFF; fill-opacity:1.0000; stroke:none;">
<circle cx="18.0121" cy="9.4450" r="0.5000" /> 
</g>
<g style="fill:#FFFFFF; fill-opacity:1.0000; stroke:none;">
<circle cx="18.0121" cy="11.9850" r="0.5000" /> 
</g>
<g style="fill:#FFFFFF; fill-opacity:1.0000; stroke:none;">
<circle cx="18.0121" cy="14.5250" r="0.5000" /> 
</g>
<g style="fill:#FFFFFF; fill-opacity:1.0000; stroke:none;">
<circle cx="18.0121" cy="17.0650" r="0.5000" /> 
</g>
<g style="fill:#FFFFFF; fill-opacity:1.0000; stroke:none;">
<circle cx="18.0121" cy="19.6050" r="0.5000" /> 
</g>
<g style="fill:#FFFFFF; fill-opacity:1.0000; stroke:none;">
<circle cx="18.0121" cy="22.1450" r="0.5000" /> 
</g>
<g style="fill:#FFFFFF; fill-opacity:1.0000; stroke:none;">
<circle cx="18.0121" cy="24.6850" r="0.5000" /> 
</g>
<g style="fill:#FFFFFF; fill-opacity:1.0000; stroke:none;">
<circle cx="18.0121" cy="27.2250" r="0.5000" /> 
</g>
<g style="fill:#FFFFFF; fill-opacity:1.0000; stroke:none;">
<circle cx="18.0121" cy="29.7650" r="0.5000" /> 
</g>
<g style="fill:#FFFFFF; fill-opacity:1.0000; stroke:none;">
<circle cx="18.0121" cy="32.3050" r="0.5000" /> 
</g>
<g style="fill:#FFFFFF; fill-opacity:1.0000; stroke:none;">
<circle cx="18.0121" cy="34.8450" r="0.5000" /> 
</g>
<g style="fill:#FFFFFF; fill-opacity:1.0000; stroke:none;">
<circle cx="18.0121" cy="37.3850" r="0.5000" /> 
</g>
<g style="fill:#FFFFFF; fill-opacity:1.0000; stroke:none;">
<circle cx="18.0121" cy="39.9250" r="0.5000" /> 
</g>
<g style="fill:#FFFFFF; fill-opacity:1.0000; stroke:none;">
<circle cx="18.0121" cy="42.4650" r="0.5000" /> 
</g>
<g style="fill:#FFFFFF; fill-opacity:1.0000; stroke:none;">
<circle cx="18.0121" cy="45.0050" r="0.5000" /> 
</g>
<g style="fill:#FFFFFF; fill-opacity:1.0000; stroke:none;">
<circle cx="18.0121" cy="47.5450" r="0.5000" /> 
</g>
<g style="fill:#FFFFFF; fill-opacity:1.0000; stroke:none;">
<circle cx="18.0121" cy="50.0850" r="0.5000" /> 
</g>
<g style="fill:#FFFFFF; fill-opacity:1.0000; stroke:none;">
<circle cx="18.0121" cy="52.6250" r="0.5000" /> 
</g>
<g style="fill:#FFFFFF; fill-opacity:1.0000; stroke:none;">
<circle cx="18.0121" cy="55.1650" r="0.5000" /> 
</g>
<g style="fill:#FFFFFF; fill-opacity:1.0000; stroke:none;">
<circle cx="18.0121" cy="57.7050" r="0.5000" /> 
</g>
<g style="fill:#FFFFFF; fill-opacity:1.0000; stroke:none;">
<circle cx="18.0121" cy="60.2450" r="0.5000" /> 
</g>
<g style="fill:#FFFFFF; fill-opacity:1.0000; stroke:none;">
<circle cx="18.0121" cy="62.7850" r="0.5000" /> 
</g>
<g style="fill:#FFFFFF; fill-opacity:1.0000; stroke:none;">
<circle cx="18.0121" cy="65.3250" r="0.5000" /> 
</g>
<g style="fill:#FFFFFF; fill-opacity:1.0000; stroke:none;">
<circle cx="18.0121" cy="67.8650" r="0.5000" /> 
</g>
<g style="fill:#FFFFFF; fill-opacity:1.0000; stroke:none;">
<circle cx="18.0121" cy="70.4050" r="0.5000" /> 
</g>
<g style="fill:#FFFFFF; fill-opacity:1.0000; stroke:none;">
<circle cx="18.0121" cy="72.9450" r="0.5000" /> 
</g>
<g style="fill:#FFFFFF; fill-opacity:1.0000; stroke:none;">
<circle cx="18.0121" cy="75.4850" r="0.5000" /> 
</g>
<g style="fill:#FFFFFF; fill-opacity:1.0000; stroke:none;">
<circle cx="18.0121" cy="78.0250" r="0.5000" /> 
</g>
<g style="fill:#FFFFFF; fill-opacity:1.0000; stroke:none;">
<circle cx="18.0121" cy="80.5650" r="0.5000" /> 
</g>
<g style="fill:#FFFFFF; fill-opacity:1.0000; stroke:none;">
<circle cx="18.0121" cy="83.1050" r="0.5000" /> 
</g>
<g style="fill:#FFFFFF; fill-opacity:1.0000; stroke:none;">
<circle cx="18.0121" cy="85.6450" r="0.5000" /> 
</g>
<g style="fill:#FFFFFF; fill-opacity:1.0000; stroke:none;">
<circle cx="18.0121" cy="88.1850" r="0.5000" /> 
</g>
<g style="fill:#FFFFFF; fill-opacity:1.0000; stroke:none;">
<circle cx="18.0121" cy="90.7250" r="0.5000" /> 
</g>
<g style="fill:#FFFFFF; fill-opacity:1.0000; stroke:none;">
<circle cx="18.0121" cy="93.2650" r="0.5000" /> 
</g>
<g style="fill:#FFFFFF; fill-opacity:1.0000; stroke:none;">
<circle cx="18.0121" cy="1.8250" r="0.5000" /> 
</g>
<g style="fill:#FFFFFF; fill-opacity:1.0000; stroke:none;">
<circle cx="18.0121" cy="4.3650" r="0.5000" /> 
</g>
<g style="fill:#FFFFFF; fill-opacity:1.0000; stroke:none;">
<circle cx="18.0121" cy="6.9050" r="0.5000" /> 
</g>
<g style="fill:#FFFFFF; fill-opacity:1.0000; stroke:none;">
<circle cx="18.0121" cy="9.4450" r="0.5000" /> 
</g>
<g style="fill:#FFFFFF; fill-opacity:1.0000; stroke:none;">
<circle cx="18.0121" cy="11.9850" r="0.5000" /> 
</g>
<g style="fill:#FFFFFF; fill-opacity:1.0000; stroke:none;">
<circle cx="18.0121" cy="14.5250" r="0.5000" /> 
</g>
<g style="fill:#FFFFFF; fill-opacity:1.0000; stroke:none;">
<circle cx="18.0121" cy="17.0650" r="0.5000" /> 
</g>
<g style="fill:#FFFFFF; fill-opacity:1.0000; stroke:none;">
<circle cx="18.0121" cy="19.6050" r="0.5000" /> 
</g>
<g style="fill:#FFFFFF; fill-opacity:1.0000; stroke:none;">
<circle cx="18.0121" cy="22.1450" r="0.5000" /> 
</g>
<g style="fill:#FFFFFF; fill-opacity:1.0000; stroke:none;">
<circle cx="18.0121" cy="24.6850" r="0.5000" /> 
</g>
<g style="fill:#FFFFFF; fill-opacity:1.0000; stroke:none;">
<circle cx="18.0121" cy="27.2250" r="0.5000" /> 
</g>
<g style="fill:#FFFFFF; fill-opacity:1.0000; stroke:none;">
<circle cx="18.0121" cy="29.7650" r="0.5000" /> 
</g>
<g style="fill:#FFFFFF; fill-opacity:1.0000; stroke:none;">
<circle cx="18.0121" cy="32.3050" r="0.5000" /> 
</g>
<g style="fill:#FFFFFF; fill-opacity:1.0000; stroke:none;">
<circle cx="18.0121" cy="34.8450" r="0.5000" /> 
</g>
<g style="fill:#FFFFFF; fill-opacity:1.0000; stroke:none;">
<circle cx="18.0121" cy="37.3850" r="0.5000" /> 
</g>
<g style="fill:#FFFFFF; fill-opacity:1.0000; stroke:none;">
<circle cx="18.0121" cy="39.9250" r="0.5000" /> 
</g>
<g style="fill:#FFFFFF; fill-opacity:1.0000; stroke:none;">
<circle cx="18.0121" cy="42.4650" r="0.5000" /> 
</g>
<g style="fill:#FFFFFF; fill-opacity:1.0000; stroke:none;">
<circle cx="18.0121" cy="45.0050" r="0.5000" /> 
</g>
<g style="fill:#FFFFFF; fill-opacity:1.0000; stroke:none;">
<circle cx="18.0121" cy="47.5450" r="0.5000" /> 
</g>
<g style="fill:#FFFFFF; fill-opacity:1.0000; stroke:none;">
<circle cx="18.0121" cy="50.0850" r="0.5000" /> 
</g>
<g style="fill:#FFFFFF; fill-opacity:1.0000; stroke:none;">
<circle cx="18.0121" cy="52.6250" r="0.5000" /> 
</g>
<g style="fill:#FFFFFF; fill-opacity:1.0000; stroke:none;">
<circle cx="18.0121" cy="55.1650" r="0.5000" /> 
</g>
<g style="fill:#FFFFFF; fill-opacity:1.0000; stroke:none;">
<circle cx="18.0121" cy="57.7050" r="0.5000" /> 
</g>
<g style="fill:#FFFFFF; fill-opacity:1.0000; stroke:none;">
<circle cx="18.0121" cy="60.2450" r="0.5000" /> 
</g>
<g style="fill:#FFFFFF; fill-opacity:1.0000; stroke:none;">
<circle cx="18.0121" cy="62.7850" r="0.5000" /> 
</g>
<g style="fill:#FFFFFF; fill-opacity:1.0000; stroke:none;">
<circle cx="18.0121" cy="65.3250" r="0.5000" /> 
</g>
<g style="fill:#FFFFFF; fill-opacity:1.0000; stroke:none;">
<circle cx="18.0121" cy="67.8650" r="0.5000" /> 
</g>
<g style="fill:#FFFFFF; fill-opacity:1.0000; stroke:none;">
<circle cx="18.0121" cy="70.4050" r="0.5000" /> 
</g>
<g style="fill:#FFFFFF; fill-opacity:1.0000; stroke:none;">
<circle cx="18.0121" cy="72.9450" r="0.5000" /> 
</g>
<g style="fill:#FFFFFF; fill-opacity:1.0000; stroke:none;">
<circle cx="18.0121" cy="75.4850" r="0.5000" /> 
</g>
<g style="fill:#FFFFFF; fill-opacity:1.0000; stroke:none;">
<circle cx="18.0121" cy="78.0250" r="0.5000" /> 
</g>
<g style="fill:#FFFFFF; fill-opacity:1.0000; stroke:none;">
<circle cx="18.0121" cy="80.5650" r="0.5000" /> 
</g>
<g style="fill:#FFFFFF; fill-opacity:1.0000; stroke:none;">
<circle cx="18.0121" cy="83.1050" r="0.5000" /> 
</g>
<g style="fill:#FFFFFF; fill-opacity:1.0000; stroke:none;">
<circle cx="18.0121" cy="85.6450" r="0.5000" /> 
</g>
<g style="fill:#FFFFFF; fill-opacity:1.0000; stroke:none;">
<circle cx="18.0121" cy="88.1850" r="0.5000" /> 
</g>
<g style="fill:#FFFFFF; fill-opacity:1.0000; stroke:none;">
<circle cx="18.0121" cy="90.7250" r="0.5000" /> 
</g>
<g style="fill:#FFFFFF; fill-opacity:1.0000; stroke:none;">
<circle cx="18.0121" cy="93.2650" r="0.5000" /> 
<path style="fill:#D864FF; fill-opacity:0.4000; stroke:none;fill-rule:evenodd;"
d="M 17.1621,2.6750
17.1621,0.9750
18.8621,0.9750
18.8621,2.6750
Z" /> 
</g>
<g style="fill:#D864FF; fill-opacity:0.4000; stroke:none;">
<circle cx="18.0121" cy="4.3650" r="0.8500" /> 
<circle cx="18.0121" cy="6.9050" r="0.8500" /> 
<circle cx="18.0121" cy="9.4450" r="0.8500" /> 
<circle cx="18.0121" cy="11.9850" r="0.8500" /> 
<circle cx="18.0121" cy="14.5250" r="0.8500" /> 
<circle cx="18.0121" cy="17.0650" r="0.8500" /> 
<circle cx="18.0121" cy="19.6050" r="0.8500" /> 
<circle cx="18.0121" cy="22.1450" r="0.8500" /> 
<circle cx="18.0121" cy="24.6850" r="0.8500" /> 
<circle cx="18.0121" cy="27.2250" r="0.8500" /> 
<circle cx="18.0121" cy="29.7650" r="0.8500" /> 
<circle cx="18.0121" cy="32.3050" r="0.8500" /> 
<circle cx="18.0121" cy="34.8450" r="0.8500" /> 
<circle cx="18.0121" cy="37.3850" r="0.8500" /> 
<circle cx="18.0121" cy="39.9250" r="0.8500" /> 
<circle cx="18.0121" cy="42.4650" r="0.8500" /> 
<circle cx="18.0121" cy="45.0050" r="0.8500" /> 
<circle cx="18.0121" cy="47.5450" r="0.8500" /> 
<circle cx="18.0121" cy="50.0850" r="0.8500" /> 
<circle cx="18.0121" cy="52.6250" r="0.8500" /> 
<circle cx="18.0121" cy="55.1650" r="0.8500" /> 
<circle cx="18.0121" cy="57.7050" r="0.8500" /> 
<circle cx="18.0121" cy="60.2450" r="0.8500" /> 
<circle cx="18.0121" cy="62.7850" r="0.8500" /> 
<circle cx="18.0121" cy="65.3250" r="0.8500" /> 
<circle cx="18.0121" cy="67.8650" r="0.8500" /> 
<circle cx="18.0121" cy="70.4050" r="0.8500" /> 
<circle cx="18.0121" cy="72.9450" r="0.8500" /> 
<circle cx="18.0121" cy="75.4850" r="0.8500" /> 
<circle cx="18.0121" cy="78.0250" r="0.8500" /> 
<circle cx="18.0121" cy="80.5650" r="0.8500" /> 
<circle cx="18.0121" cy="83.1050" r="0.8500" /> 
<circle cx="18.0121" cy="85.6450" r="0.8500" /> 
<circle cx="18.0121" cy="88.1850" r="0.8500" /> 
<circle cx="18.0121" cy="90.7250" r="0.8500" /> 
<circle cx="18.0121" cy="93.2650" r="0.8500" /> 
</g>
<g style="fill:none; 
stroke:#F2EDA1; stroke-width:0.1588; stroke-opacity:1; 
stroke-linecap:round; stroke-linejoin:round;">
<text x="18.0121" y="2.4600"
textLength="5.6651" font-size="1.6933" lengthAdjust="spacingAndGlyphs"
text-anchor="middle" opacity="0">REF**</text>
<g class="stroked-text"><desc>REF**</desc>
<path d="M16.3187 2.4043
L15.8954 1.7995
" />
<path d="M15.5930 2.4043
L15.5930 1.1343
" />
<path d="M15.5930 1.1343
L16.0768 1.1343
" />
<path d="M16.0768 1.1343
L16.1978 1.1947
" />
<path d="M16.1978 1.1947
L16.2583 1.2552
" />
<path d="M16.2583 1.2552
L16.3187 1.3762
" />
<path d="M16.3187 1.3762
L16.3187 1.5576
" />
<path d="M16.3187 1.5576
L16.2583 1.6786
" />
<path d="M16.2583 1.6786
L16.1978 1.7390
" />
<path d="M16.1978 1.7390
L16.0768 1.7995
" />
<path d="M16.0768 1.7995
L15.5930 1.7995
" />
<path d="M16.8630 1.7390
L17.2864 1.7390
" />
<path d="M17.4678 2.4043
L16.8630 2.4043
" />
<path d="M16.8630 2.4043
L16.8630 1.1343
" />
<path d="M16.8630 1.1343
L17.4678 1.1343
" />
<path d="M18.4354 1.7390
L18.0121 1.7390
" />
<path d="M18.0121 2.4043
L18.0121 1.1343
" />
<path d="M18.0121 1.1343
L18.6168 1.1343
" />
<path d="M19.2821 1.1343
L19.2821 1.4367
" />
<path d="M18.9797 1.3157
L19.2821 1.4367
" />
<path d="M19.2821 1.4367
L19.5845 1.3157
" />
<path d="M19.1006 1.6786
L19.2821 1.4367
" />
<path d="M19.2821 1.4367
L19.4635 1.6786
" />
<path d="M20.2497 1.1343
L20.2497 1.4367
" />
<path d="M19.9473 1.3157
L20.2497 1.4367
" />
<path d="M20.2497 1.4367
L20.5521 1.3157
" />
<path d="M20.0683 1.6786
L20.2497 1.4367
" />
<path d="M20.2497 1.4367
L20.4311 1.6786
" />
</g></g>
<g style="fill:none; 
stroke:#F2EDA1; stroke-width:0.1200; stroke-opacity:1; 
stroke-linecap:round; stroke-linejoin:round;">
<path d="M16.7421 0.5550
L18.0121 0.5550
" />
<path d="M16.7421 1.8250
L16.7421 0.5550
" />
<path d="M19.0550 3.9850
L19.4521 3.9850
" />
<path d="M19.0550 4.7450
L19.4521 4.7450
" />
<path d="M19.0550 6.5250
L19.4521 6.5250
" />
<path d="M19.0550 7.2850
L19.4521 7.2850
" />
<path d="M19.0550 9.0650
L19.4521 9.0650
" />
<path d="M19.0550 9.8250
L19.4521 9.8250
" />
<path d="M19.0550 11.6050
L19.4521 11.6050
" />
<path d="M19.0550 12.3650
L19.4521 12.3650
" />
<path d="M19.0550 14.1450
L19.4521 14.1450
" />
<path d="M19.0550 14.9050
L19.4521 14.9050
" />
<path d="M19.0550 16.6850
L19.4521 16.6850
" />
<path d="M19.0550 17.4450
L19.4521 17.4450
" />
<path d="M19.0550 19.2250
L19.4521 19.2250
" />
<path d="M19.0550 19.9850
L19.4521 19.9850
" />
<path d="M19.0550 21.7650
L19.4521 21.7650
" />
<path d="M19.0550 22.5250
L19.4521 22.5250
" />
<path d="M19.0550 24.3050
L19.4521 24.3050
" />
<path d="M19.0550 25.0650
L19.4521 25.0650
" />
<path d="M19.0550 26.8450
L19.4521 26.8450
" />
<path d="M19.0550 27.6050
L19.4521 27.6050
" />
<path d="M19.0550 29.3850
L19.4521 29.3850
" />
<path d="M19.0550 30.1450
L19.4521 30.1450
" />
<path d="M19.0550 31.9250
L19.4521 31.9250
" />
<path d="M19.0550 32.6850
L19.4521 32.6850
" />
<path d="M19.0550 34.4650
L19.4521 34.4650
" />
<path d="M19.0550 35.2250
L19.4521 35.2250
" />
<path d="M19.0550 37.0050
L19.4521 37.0050
" />
<path d="M19.0550 37.7650
L19.4521 37.7650
" />
<path d="M19.0550 39.5450
L19.4521 39.5450
" />
<path d="M19.0550 40.3050
L19.4521 40.3050
" />
<path d="M19.0550 42.0850
L19.4521 42.0850
" />
<path d="M19.0550 42.8450
L19.4521 42.8450
" />
<path d="M19.0550 44.6250
L19.4521 44.6250
" />
<path d="M19.0550 45.3850
L19.4521 45.3850
" />
<path d="M19.0550 47.1650
L19.4521 47.1650
" />
<path d="M19.0550 47.9250
L19.4521 47.9250
" />
<path d="M19.0550 49.7050
L19.4521 49.7050
" />
<path d="M19.0550 50.4650
L19.4521 50.4650
" />
<path d="M19.0550 52.2450
L19.4521 52.2450
" />
<path d="M19.0550 53.0050
L19.4521 53.0050
" />
<path d="M19.0550 54.7850
L19.4521 54.7850
" />
<path d="M19.0550 55.5450
L19.4521 55.5450
" />
<path d="M19.0550 57.3250
L19.4521 57.3250
" />
<path d="M19.0550 58.0850
L19.4521 58.0850
" />
<path d="M19.0550 59.8650
L19.4521 59.8650
" />
<path d="M19.0550 60.6250
L19.4521 60.6250
" />
<path d="M19.0550 62.4050
L19.4521 62.4050
" />
<path d="M19.0550 63.1650
L19.4521 63.1650
" />
<path d="M19.0550 64.9450
L19.4521 64.9450
" />
<path d="M19.0550 65.7050
L19.4521 65.7050
" />
<path d="M19.0550 67.4850
L19.4521 67.4850
" />
<path d="M19.0550 68.2450
L19.4521 68.2450
" />
<path d="M19.0550 70.0250
L19.4521 70.0250
" />
<path d="M19.0550 70.7850
L19.4521 70.7850
" />
<path d="M19.0550 72.5650
L19.4521 72.5650
" />
<path d="M19.0550 73.3250
L19.4521 73.3250
" />
<path d="M19.0550 75.1050
L19.4521 75.1050
" />
<path d="M19.0550 75.8650
L19.4521 75.8650
" />
<path d="M19.0550 77.6450
L19.4521 77.6450
" />
<path d="M19.0550 78.4050
L19.4521 78.4050
" />
<path d="M19.0550 80.1850
L19.4521 80.1850
" />
<path d="M19.0550 80.9450
L19.4521 80.9450
" />
<path d="M19.0550 82.7250
L19.4521 82.7250
" />
<path d="M19.0550 83.4850
L19.4521 83.4850
" />
<path d="M19.0550 85.2650
L19.4521 85.2650
" />
<path d="M19.0550 86.0250
L19.4521 86.0250
" />
<path d="M19.0550 87.8050
L19.4521 87.8050
" />
<path d="M19.0550 88.5650
L19.4521 88.5650
" />
<path d="M19.0550 90.3450
L19.4521 90.3450
" />
<path d="M19.0550 91.1050
L19.4521 91.1050
" />
<path d="M19.0550 92.8850
L19.4521 92.8850
" />
<path d="M19.0550 93.6450
L19.4521 93.6450
" />
<path d="M19.1221 1.4450
L19.4521 1.4450
" />
<path d="M19.1221 2.2050
L19.4521 2.2050
" />
<path d="M19.4521 0.4950
L19.4521 94.5950
" />
<path d="M19.4521 3.0950
L22.1121 3.0950
" />
<path d="M19.4521 5.6350
L22.1121 5.6350
" />
<path d="M19.4521 8.1750
L22.1121 8.1750
" />
<path d="M19.4521 10.7150
L22.1121 10.7150
" />
<path d="M19.4521 13.2550
L22.1121 13.2550
" />
<path d="M19.4521 15.7950
L22.1121 15.7950
" />
<path d="M19.4521 18.3350
L22.1121 18.3350
" />
<path d="M19.4521 20.8750
L22.1121 20.8750
" />
<path d="M19.4521 23.4150
L22.1121 23.4150
" />
<path d="M19.4521 25.9550
L22.1121 25.9550
" />
<path d="M19.4521 28.4950
L22.1121 28.4950
" />
<path d="M19.4521 31.0350
L22.1121 31.0350
" />
<path d="M19.4521 33.5750
L22.1121 33.5750
" />
<path d="M19.4521 36.1150
L22.1121 36.1150
" />
<path d="M19.4521 38.6550
L22.1121 38.6550
" />
<path d="M19.4521 41.1950
L22.1121 41.1950
" />
<path d="M19.4521 43.7350
L22.1121 43.7350
" />
<path d="M19.4521 46.2750
L22.1121 46.2750
" />
<path d="M19.4521 48.8150
L22.1121 48.8150
" />
<path d="M19.4521 51.3550
L22.1121 51.3550
" />
<path d="M19.4521 53.8950
L22.1121 53.8950
" />
<path d="M19.4521 56.4350
L22.1121 56.4350
" />
<path d="M19.4521 58.9750
L22.1121 58.9750
" />
<path d="M19.4521 61.5150
L22.1121 61.5150
" />
<path d="M19.4521 64.0550
L22.1121 64.0550
" />
<path d="M19.4521 66.5950
L22.1121 66.5950
" />
<path d="M19.4521 69.1350
L22.1121 69.1350
" />
<path d="M19.4521 71.6750
L22.1121 71.6750
" />
<path d="M19.4521 74.2150
L22.1121 74.2150
" />
<path d="M19.4521 76.7550
L22.1121 76.7550
" />
<path d="M19.4521 79.2950
L22.1121 79.2950
" />
<path d="M19.4521 81.8350
L22.1121 81.8350
" />
<path d="M19.4521 84.3750
L22.1121 84.3750
" />
<path d="M19.4521 86.9150
L22.1121 86.9150
" />
<path d="M19.4521 89.4550
L22.1121 89.4550
" />
<path d="M19.4521 91.9950
L22.1121 91.9950
" />
<path d="M19.4521 94.5950
L22.1121 94.5950
" />
<path d="M22.1121 0.4950
L19.4521 0.4950
" />
<path d="M22.1121 1.4450
L28.1121 1.4450
" />
<path d="M22.1121 1.5050
L28.1121 1.5050
" />
<path d="M22.1121 1.6250
L28.1121 1.6250
" />
<path d="M22.1121 1.7450
L28.1121 1.7450
" />
<path d="M22.1121 1.8650
L28.1121 1.8650
" />
<path d="M22.1121 1.9850
L28.1121 1.9850
" />
<path d="M22.1121 2.1050
L28.1121 2.1050
" />
<path d="M22.1121 3.9850
L28.1121 3.9850
" />
<path d="M22.1121 6.5250
L28.1121 6.5250
" />
<path d="M22.1121 9.0650
L28.1121 9.0650
" />
<path d="M22.1121 11.6050
L28.1121 11.6050
" />
<path d="M22.1121 14.1450
L28.1121 14.1450
" />
<path d="M22.1121 16.6850
L28.1121 16.6850
" />
<path d="M22.1121 19.2250
L28.1121 19.2250
" />
<path d="M22.1121 21.7650
L28.1121 21.7650
" />
<path d="M22.1121 24.3050
L28.1121 24.3050
" />
<path d="M22.1121 26.8450
L28.1121 26.8450
" />
<path d="M22.1121 29.3850
L28.1121 29.3850
" />
<path d="M22.1121 31.9250
L28.1121 31.9250
" />
<path d="M22.1121 34.4650
L28.1121 34.4650
" />
<path d="M22.1121 37.0050
L28.1121 37.0050
" />
<path d="M22.1121 39.5450
L28.1121 39.5450
" />
<path d="M22.1121 42.0850
L28.1121 42.0850
" />
<path d="M22.1121 44.6250
L28.1121 44.6250
" />
<path d="M22.1121 47.1650
L28.1121 47.1650
" />
<path d="M22.1121 49.7050
L28.1121 49.7050
" />
<path d="M22.1121 52.2450
L28.1121 52.2450
" />
<path d="M22.1121 54.7850
L28.1121 54.7850
" />
<path d="M22.1121 57.3250
L28.1121 57.3250
" />
<path d="M22.1121 59.8650
L28.1121 59.8650
" />
<path d="M22.1121 62.4050
L28.1121 62.4050
" />
<path d="M22.1121 64.9450
L28.1121 64.9450
" />
<path d="M22.1121 67.4850
L28.1121 67.4850
" />
<path d="M22.1121 70.0250
L28.1121 70.0250
" />
<path d="M22.1121 72.5650
L28.1121 72.5650
" />
<path d="M22.1121 75.1050
L28.1121 75.1050
" />
<path d="M22.1121 77.6450
L28.1121 77.6450
" />
<path d="M22.1121 80.1850
L28.1121 80.1850
" />
<path d="M22.1121 82.7250
L28.1121 82.7250
" />
<path d="M22.1121 85.2650
L28.1121 85.2650
" />
<path d="M22.1121 87.8050
L28.1121 87.8050
" />
<path d="M22.1121 90.3450
L28.1121 90.3450
" />
<path d="M22.1121 92.8850
L28.1121 92.8850
" />
<path d="M22.1121 94.5950
L22.1121 0.4950
" />
<path d="M28.1121 1.4450
L28.1121 2.2050
" />
<path d="M28.1121 2.2050
L22.1121 2.2050
" />
<path d="M28.1121 3.9850
L28.1121 4.7450
" />
<path d="M28.1121 4.7450
L22.1121 4.7450
" />
<path d="M28.1121 6.5250
L28.1121 7.2850
" />
<path d="M28.1121 7.2850
L22.1121 7.2850
" />
<path d="M28.1121 9.0650
L28.1121 9.8250
" />
<path d="M28.1121 9.8250
L22.1121 9.8250
" />
<path d="M28.1121 11.6050
L28.1121 12.3650
" />
<path d="M28.1121 12.3650
L22.1121 12.3650
" />
<path d="M28.1121 14.1450
L28.1121 14.9050
" />
<path d="M28.1121 14.9050
L22.1121 14.9050
" />
<path d="M28.1121 16.6850
L28.1121 17.4450
" />
<path d="M28.1121 17.4450
L22.1121 17.4450
" />
<path d="M28.1121 19.2250
L28.1121 19.9850
" />
<path d="M28.1121 19.9850
L22.1121 19.9850
" />
<path d="M28.1121 21.7650
L28.1121 22.5250
" />
<path d="M28.1121 22.5250
L22.1121 22.5250
" />
<path d="M28.1121 24.3050
L28.1121 25.0650
" />
<path d="M28.1121 25.0650
L22.1121 25.0650
" />
<path d="M28.1121 26.8450
L28.1121 27.6050
" />
<path d="M28.1121 27.6050
L22.1121 27.6050
" />
<path d="M28.1121 29.3850
L28.1121 30.1450
" />
<path d="M28.1121 30.1450
L22.1121 30.1450
" />
<path d="M28.1121 31.9250
L28.1121 32.6850
" />
<path d="M28.1121 32.6850
L22.1121 32.6850
" />
<path d="M28.1121 34.4650
L28.1121 35.2250
" />
<path d="M28.1121 35.2250
L22.1121 35.2250
" />
<path d="M28.1121 37.0050
L28.1121 37.7650
" />
<path d="M28.1121 37.7650
L22.1121 37.7650
" />
<path d="M28.1121 39.5450
L28.1121 40.3050
" />
<path d="M28.1121 40.3050
L22.1121 40.3050
" />
<path d="M28.1121 42.0850
L28.1121 42.8450
" />
<path d="M28.1121 42.8450
L22.1121 42.8450
" />
<path d="M28.1121 44.6250
L28.1121 45.3850
" />
<path d="M28.1121 45.3850
L22.1121 45.3850
" />
<path d="M28.1121 47.1650
L28.1121 47.9250
" />
<path d="M28.1121 47.9250
L22.1121 47.9250
" />
<path d="M28.1121 49.7050
L28.1121 50.4650
" />
<path d="M28.1121 50.4650
L22.1121 50.4650
" />
<path d="M28.1121 52.2450
L28.1121 53.0050
" />
<path d="M28.1121 53.0050
L22.1121 53.0050
" />
<path d="M28.1121 54.7850
L28.1121 55.5450
" />
<path d="M28.1121 55.5450
L22.1121 55.5450
" />
<path d="M28.1121 57.3250
L28.1121 58.0850
" />
<path d="M28.1121 58.0850
L22.1121 58.0850
" />
<path d="M28.1121 59.8650
L28.1121 60.6250
" />
<path d="M28.1121 60.6250
L22.1121 60.6250
" />
<path d="M28.1121 62.4050
L28.1121 63.1650
" />
<path d="M28.1121 63.1650
L22.1121 63.1650
" />
<path d="M28.1121 64.9450
L28.1121 65.7050
" />
<path d="M28.1121 65.7050
L22.1121 65.7050
" />
<path d="M28.1121 67.4850
L28.1121 68.2450
" />
<path d="M28.1121 68.2450
L22.1121 68.2450
" />
<path d="M28.1121 70.0250
L28.1121 70.7850
" />
<path d="M28.1121 70.7850
L22.1121 70.7850
" />
<path d="M28.1121 72.5650
L28.1121 73.3250
" />
<path d="M28.1121 73.3250
L22.1121 73.3250
" />
<path d="M28.1121 75.1050
L28.1121 75.8650
" />
<path d="M28.1121 75.8650
L22.1121 75.8650
" />
<path d="M28.1121 77.6450
L28.1121 78.4050
" />
<path d="M28.1121 78.4050
L22.1121 78.4050
" />
<path d="M28.1121 80.1850
L28.1121 80.9450
" />
<path d="M28.1121 80.9450
L22.1121 80.9450
" />
<path d="M28.1121 82.7250
L28.1121 83.4850
" />
<path d="M28.1121 83.4850
L22.1121 83.4850
" />
<path d="M28.1121 85.2650
L28.1121 86.0250
" />
<path d="M28.1121 86.0250
L22.1121 86.0250
" />
<path d="M28.1121 87.8050
L28.1121 88.5650
" />
<path d="M28.1121 88.5650
L22.1121 88.5650
" />
<path d="M28.1121 90.3450
L28.1121 91.1050
" />
<path d="M28.1121 91.1050
L22.1121 91.1050
" />
<path d="M28.1121 92.8850
L28.1121 93.6450
" />
<path d="M28.1121 93.6450
L22.1121 93.6450
" />
</g>
<g style="fill:#FFFFFF; fill-opacity:1.0000; stroke:none;">
<circle cx="18.0121" cy="1.8250" r="0.5000" /> 
</g>
<g style="fill:#FFFFFF; fill-opacity:1.0000; stroke:none;">
<circle cx="18.0121" cy="4.3650" r="0.5000" /> 
</g>
<g style="fill:#FFFFFF; fill-opacity:1.0000; stroke:none;">
<circle cx="18.0121" cy="6.9050" r="0.5000" /> 
</g>
<g style="fill:#FFFFFF; fill-opacity:1.0000; stroke:none;">
<circle cx="18.0121" cy="9.4450" r="0.5000" /> 
</g>
<g style="fill:#FFFFFF; fill-opacity:1.0000; stroke:none;">
<circle cx="18.0121" cy="11.9850" r="0.5000" /> 
</g>
<g style="fill:#FFFFFF; fill-opacity:1.0000; stroke:none;">
<circle cx="18.0121" cy="14.5250" r="0.5000" /> 
</g>
<g style="fill:#FFFFFF; fill-opacity:1.0000; stroke:none;">
<circle cx="18.0121" cy="17.0650" r="0.5000" /> 
</g>
<g style="fill:#FFFFFF; fill-opacity:1.0000; stroke:none;">
<circle cx="18.0121" cy="19.6050" r="0.5000" /> 
</g>
<g style="fill:#FFFFFF; fill-opacity:1.0000; stroke:none;">
<circle cx="18.0121" cy="22.1450" r="0.5000" /> 
</g>
<g style="fill:#FFFFFF; fill-opacity:1.0000; stroke:none;">
<circle cx="18.0121" cy="24.6850" r="0.5000" /> 
</g>
<g style="fill:#FFFFFF; fill-opacity:1.0000; stroke:none;">
<circle cx="18.0121" cy="27.2250" r="0.5000" /> 
</g>
<g style="fill:#FFFFFF; fill-opacity:1.0000; stroke:none;">
<circle cx="18.0121" cy="29.7650" r="0.5000" /> 
</g>
<g style="fill:#FFFFFF; fill-opacity:1.0000; stroke:none;">
<circle cx="18.0121" cy="32.3050" r="0.5000" /> 
</g>
<g style="fill:#FFFFFF; fill-opacity:1.0000; stroke:none;">
<circle cx="18.0121" cy="34.8450" r="0.5000" /> 
</g>
<g style="fill:#FFFFFF; fill-opacity:1.0000; stroke:none;">
<circle cx="18.0121" cy="37.3850" r="0.5000" /> 
</g>
<g style="fill:#FFFFFF; fill-opacity:1.0000; stroke:none;">
<circle cx="18.0121" cy="39.9250" r="0.5000" /> 
</g>
<g style="fill:#FFFFFF; fill-opacity:1.0000; stroke:none;">
<circle cx="18.0121" cy="42.4650" r="0.5000" /> 
</g>
<g style="fill:#FFFFFF; fill-opacity:1.0000; stroke:none;">
<circle cx="18.0121" cy="45.0050" r="0.5000" /> 
</g>
<g style="fill:#FFFFFF; fill-opacity:1.0000; stroke:none;">
<circle cx="18.0121" cy="47.5450" r="0.5000" /> 
</g>
<g style="fill:#FFFFFF; fill-opacity:1.0000; stroke:none;">
<circle cx="18.0121" cy="50.0850" r="0.5000" /> 
</g>
<g style="fill:#FFFFFF; fill-opacity:1.0000; stroke:none;">
<circle cx="18.0121" cy="52.6250" r="0.5000" /> 
</g>
<g style="fill:#FFFFFF; fill-opacity:1.0000; stroke:none;">
<circle cx="18.0121" cy="55.1650" r="0.5000" /> 
</g>
<g style="fill:#FFFFFF; fill-opacity:1.0000; stroke:none;">
<circle cx="18.0121" cy="57.7050" r="0.5000" /> 
</g>
<g style="fill:#FFFFFF; fill-opacity:1.0000; stroke:none;">
<circle cx="18.0121" cy="60.2450" r="0.5000" /> 
</g>
<g style="fill:#FFFFFF; fill-opacity:1.0000; stroke:none;">
<circle cx="18.0121" cy="62.7850" r="0.5000" /> 
</g>
<g style="fill:#FFFFFF; fill-opacity:1.0000; stroke:none;">
<circle cx="18.0121" cy="65.3250" r="0.5000" /> 
</g>
<g style="fill:#FFFFFF; fill-opacity:1.0000; stroke:none;">
<circle cx="18.0121" cy="67.8650" r="0.5000" /> 
</g>
<g style="fill:#FFFFFF; fill-opacity:1.0000; stroke:none;">
<circle cx="18.0121" cy="70.4050" r="0.5000" /> 
</g>
<g style="fill:#FFFFFF; fill-opacity:1.0000; stroke:none;">
<circle cx="18.0121" cy="72.9450" r="0.5000" /> 
</g>
<g style="fill:#FFFFFF; fill-opacity:1.0000; stroke:none;">
<circle cx="18.0121" cy="75.4850" r="0.5000" /> 
</g>
<g style="fill:#FFFFFF; fill-opacity:1.0000; stroke:none;">
<circle cx="18.0121" cy="78.0250" r="0.5000" /> 
</g>
<g style="fill:#FFFFFF; fill-opacity:1.0000; stroke:none;">
<circle cx="18.0121" cy="80.5650" r="0.5000" /> 
</g>
<g style="fill:#FFFFFF; fill-opacity:1.0000; stroke:none;">
<circle cx="18.0121" cy="83.1050" r="0.5000" /> 
</g>
<g style="fill:#FFFFFF; fill-opacity:1.0000; stroke:none;">
<circle cx="18.0121" cy="85.6450" r="0.5000" /> 
</g>
<g style="fill:#FFFFFF; fill-opacity:1.0000; stroke:none;">
<circle cx="18.0121" cy="88.1850" r="0.5000" /> 
</g>
<g style="fill:#FFFFFF; fill-opacity:1.0000; stroke:none;">
<circle cx="18.0121" cy="90.7250" r="0.5000" /> 
</g>
<g style="fill:#FFFFFF; fill-opacity:1.0000; stroke:none;">
<circle cx="18.0121" cy="93.2650" r="0.5000" /> 
</g>
<g style="fill:none; 
stroke:#FF26E2; stroke-width:0.0500; stroke-opacity:1; 
stroke-linecap:round; stroke-linejoin:round;">
<path d="M16.2121 0.0250
L16.2121 95.0750
" />
<path d="M16.2121 95.0750
L28.5621 95.0750
" />
<path d="M28.5621 0.0250
L16.2121 0.0250
" />
<path d="M28.5621 95.0750
L28.5621 0.0250
" />
</g>
<g style="fill:none; 
stroke:#AFAFAF; stroke-width:0.1588; stroke-opacity:1; 
stroke-linecap:round; stroke-linejoin:round;">
<text x="18.0121" y="2.4600"
textLength="36.0242" font-size="1.6933" lengthAdjust="spacingAndGlyphs"
text-anchor="middle" opacity="0">PinHeader_1x37_P2.54mm_Horizontal</text>
<g class="stroked-text"><desc>PinHeader_1x37_P2.54mm_Horizontal</desc>
<path d="M0.4135 2.4043
L0.4135 1.1343
" />
<path d="M0.4135 1.1343
L0.8973 1.1343
" />
<path d="M0.8973 1.1343
L1.0183 1.1947
" />
<path d="M1.0183 1.1947
L1.0787 1.2552
" />
<path d="M1.0787 1.2552
L1.1392 1.3762
" />
<path d="M1.1392 1.3762
L1.1392 1.5576
" />
<path d="M1.1392 1.5576
L1.0787 1.6786
" />
<path d="M1.0787 1.6786
L1.0183 1.7390
" />
<path d="M1.0183 1.7390
L0.8973 1.7995
" />
<path d="M0.8973 1.7995
L0.4135 1.7995
" />
<path d="M1.6835 2.4043
L1.6835 1.5576
" />
<path d="M1.6835 1.1343
L1.6230 1.1947
" />
<path d="M1.6230 1.1947
L1.6835 1.2552
" />
<path d="M1.6835 1.2552
L1.7440 1.1947
" />
<path d="M1.7440 1.1947
L1.6835 1.1343
" />
<path d="M1.6835 1.1343
L1.6835 1.2552
" />
<path d="M2.2883 1.5576
L2.2883 2.4043
" />
<path d="M2.2883 1.6786
L2.3487 1.6181
" />
<path d="M2.3487 1.6181
L2.4697 1.5576
" />
<path d="M2.4697 1.5576
L2.6511 1.5576
" />
<path d="M2.6511 1.5576
L2.7721 1.6181
" />
<path d="M2.7721 1.6181
L2.8326 1.7390
" />
<path d="M2.8326 1.7390
L2.8326 2.4043
" />
<path d="M3.4373 2.4043
L3.4373 1.1343
" />
<path d="M3.4373 1.7390
L4.1630 1.7390
" />
<path d="M4.1630 2.4043
L4.1630 1.1343
" />
<path d="M5.2516 2.3438
L5.1307 2.4043
" />
<path d="M5.1307 2.4043
L4.8887 2.4043
" />
<path d="M4.8887 2.4043
L4.7678 2.3438
" />
<path d="M4.7678 2.3438
L4.7073 2.2228
" />
<path d="M4.7073 2.2228
L4.7073 1.7390
" />
<path d="M4.7073 1.7390
L4.7678 1.6181
" />
<path d="M4.7678 1.6181
L4.8887 1.5576
" />
<path d="M4.8887 1.5576
L5.1307 1.5576
" />
<path d="M5.1307 1.5576
L5.2516 1.6181
" />
<path d="M5.2516 1.6181
L5.3121 1.7390
" />
<path d="M5.3121 1.7390
L5.3121 1.8600
" />
<path d="M5.3121 1.8600
L4.7073 1.9809
" />
<path d="M6.4006 2.4043
L6.4006 1.7390
" />
<path d="M6.4006 1.7390
L6.3402 1.6181
" />
<path d="M6.3402 1.6181
L6.2192 1.5576
" />
<path d="M6.2192 1.5576
L5.9773 1.5576
" />
<path d="M5.9773 1.5576
L5.8564 1.6181
" />
<path d="M6.4006 2.3438
L6.2797 2.4043
" />
<path d="M6.2797 2.4043
L5.9773 2.4043
" />
<path d="M5.9773 2.4043
L5.8564 2.3438
" />
<path d="M5.8564 2.3438
L5.7959 2.2228
" />
<path d="M5.7959 2.2228
L5.7959 2.1019
" />
<path d="M5.7959 2.1019
L5.8564 1.9809
" />
<path d="M5.8564 1.9809
L5.9773 1.9205
" />
<path d="M5.9773 1.9205
L6.2797 1.9205
" />
<path d="M6.2797 1.9205
L6.4006 1.8600
" />
<path d="M7.5497 2.4043
L7.5497 1.1343
" />
<path d="M7.5497 2.3438
L7.4287 2.4043
" />
<path d="M7.4287 2.4043
L7.1868 2.4043
" />
<path d="M7.1868 2.4043
L7.0659 2.3438
" />
<path d="M7.0659 2.3438
L7.0054 2.2833
" />
<path d="M7.0054 2.2833
L6.9449 2.1624
" />
<path d="M6.9449 2.1624
L6.9449 1.7995
" />
<path d="M6.9449 1.7995
L7.0054 1.6786
" />
<path d="M7.0054 1.6786
L7.0659 1.6181
" />
<path d="M7.0659 1.6181
L7.1868 1.5576
" />
<path d="M7.1868 1.5576
L7.4287 1.5576
" />
<path d="M7.4287 1.5576
L7.5497 1.6181
" />
<path d="M8.6383 2.3438
L8.5173 2.4043
" />
<path d="M8.5173 2.4043
L8.2754 2.4043
" />
<path d="M8.2754 2.4043
L8.1545 2.3438
" />
<path d="M8.1545 2.3438
L8.0940 2.2228
" />
<path d="M8.0940 2.2228
L8.0940 1.7390
" />
<path d="M8.0940 1.7390
L8.1545 1.6181
" />
<path d="M8.1545 1.6181
L8.2754 1.5576
" />
<path d="M8.2754 1.5576
L8.5173 1.5576
" />
<path d="M8.5173 1.5576
L8.6383 1.6181
" />
<path d="M8.6383 1.6181
L8.6987 1.7390
" />
<path d="M8.6987 1.7390
L8.6987 1.8600
" />
<path d="M8.6987 1.8600
L8.0940 1.9809
" />
<path d="M9.2430 2.4043
L9.2430 1.5576
" />
<path d="M9.2430 1.7995
L9.3035 1.6786
" />
<path d="M9.3035 1.6786
L9.3640 1.6181
" />
<path d="M9.3640 1.6181
L9.4849 1.5576
" />
<path d="M9.4849 1.5576
L9.6059 1.5576
" />
<path d="M9.7268 2.5252
L10.6945 2.5252
" />
<path d="M11.6621 2.4043
L10.9364 2.4043
" />
<path d="M11.2992 2.4043
L11.2992 1.1343
" />
<path d="M11.2992 1.1343
L11.1783 1.3157
" />
<path d="M11.1783 1.3157
L11.0573 1.4367
" />
<path d="M11.0573 1.4367
L10.9364 1.4971
" />
<path d="M12.0854 2.4043
L12.7506 1.5576
" />
<path d="M12.0854 1.5576
L12.7506 2.4043
" />
<path d="M13.1135 1.1343
L13.8997 1.1343
" />
<path d="M13.8997 1.1343
L13.4764 1.6181
" />
<path d="M13.4764 1.6181
L13.6578 1.6181
" />
<path d="M13.6578 1.6181
L13.7787 1.6786
" />
<path d="M13.7787 1.6786
L13.8392 1.7390
" />
<path d="M13.8392 1.7390
L13.8997 1.8600
" />
<path d="M13.8997 1.8600
L13.8997 2.1624
" />
<path d="M13.8997 2.1624
L13.8392 2.2833
" />
<path d="M13.8392 2.2833
L13.7787 2.3438
" />
<path d="M13.7787 2.3438
L13.6578 2.4043
" />
<path d="M13.6578 2.4043
L13.2949 2.4043
" />
<path d="M13.2949 2.4043
L13.1740 2.3438
" />
<path d="M13.1740 2.3438
L13.1135 2.2833
" />
<path d="M14.3230 1.1343
L15.1697 1.1343
" />
<path d="M15.1697 1.1343
L14.6254 2.4043
" />
<path d="M15.3511 2.5252
L16.3187 2.5252
" />
<path d="M16.6211 2.4043
L16.6211 1.1343
" />
<path d="M16.6211 1.1343
L17.1049 1.1343
" />
<path d="M17.1049 1.1343
L17.2259 1.1947
" />
<path d="M17.2259 1.1947
L17.2864 1.2552
" />
<path d="M17.2864 1.2552
L17.3468 1.3762
" />
<path d="M17.3468 1.3762
L17.3468 1.5576
" />
<path d="M17.3468 1.5576
L17.2864 1.6786
" />
<path d="M17.2864 1.6786
L17.2259 1.7390
" />
<path d="M17.2259 1.7390
L17.1049 1.7995
" />
<path d="M17.1049 1.7995
L16.6211 1.7995
" />
<path d="M17.8306 1.2552
L17.8911 1.1947
" />
<path d="M17.8911 1.1947
L18.0121 1.1343
" />
<path d="M18.0121 1.1343
L18.3145 1.1343
" />
<path d="M18.3145 1.1343
L18.4354 1.1947
" />
<path d="M18.4354 1.1947
L18.4959 1.2552
" />
<path d="M18.4959 1.2552
L18.5564 1.3762
" />
<path d="M18.5564 1.3762
L18.5564 1.4971
" />
<path d="M18.5564 1.4971
L18.4959 1.6786
" />
<path d="M18.4959 1.6786
L17.7702 2.4043
" />
<path d="M17.7702 2.4043
L18.5564 2.4043
" />
<path d="M19.1006 2.2833
L19.1611 2.3438
" />
<path d="M19.1611 2.3438
L19.1006 2.4043
" />
<path d="M19.1006 2.4043
L19.0402 2.3438
" />
<path d="M19.0402 2.3438
L19.1006 2.2833
" />
<path d="M19.1006 2.2833
L19.1006 2.4043
" />
<path d="M20.3102 1.1343
L19.7054 1.1343
" />
<path d="M19.7054 1.1343
L19.6449 1.7390
" />
<path d="M19.6449 1.7390
L19.7054 1.6786
" />
<path d="M19.7054 1.6786
L19.8264 1.6181
" />
<path d="M19.8264 1.6181
L20.1287 1.6181
" />
<path d="M20.1287 1.6181
L20.2497 1.6786
" />
<path d="M20.2497 1.6786
L20.3102 1.7390
" />
<path d="M20.3102 1.7390
L20.3706 1.8600
" />
<path d="M20.3706 1.8600
L20.3706 2.1624
" />
<path d="M20.3706 2.1624
L20.3102 2.2833
" />
<path d="M20.3102 2.2833
L20.2497 2.3438
" />
<path d="M20.2497 2.3438
L20.1287 2.4043
" />
<path d="M20.1287 2.4043
L19.8264 2.4043
" />
<path d="M19.8264 2.4043
L19.7054 2.3438
" />
<path d="M19.7054 2.3438
L19.6449 2.2833
" />
<path d="M21.4592 1.5576
L21.4592 2.4043
" />
<path d="M21.1568 1.0738
L20.8545 1.9809
" />
<path d="M20.8545 1.9809
L21.6406 1.9809
" />
<path d="M22.1245 2.4043
L22.1245 1.5576
" />
<path d="M22.1245 1.6786
L22.1849 1.6181
" />
<path d="M22.1849 1.6181
L22.3059 1.5576
" />
<path d="M22.3059 1.5576
L22.4873 1.5576
" />
<path d="M22.4873 1.5576
L22.6083 1.6181
" />
<path d="M22.6083 1.6181
L22.6687 1.7390
" />
<path d="M22.6687 1.7390
L22.6687 2.4043
" />
<path d="M22.6687 1.7390
L22.7292 1.6181
" />
<path d="M22.7292 1.6181
L22.8502 1.5576
" />
<path d="M22.8502 1.5576
L23.0316 1.5576
" />
<path d="M23.0316 1.5576
L23.1526 1.6181
" />
<path d="M23.1526 1.6181
L23.2130 1.7390
" />
<path d="M23.2130 1.7390
L23.2130 2.4043
" />
<path d="M23.8178 2.4043
L23.8178 1.5576
" />
<path d="M23.8178 1.6786
L23.8783 1.6181
" />
<path d="M23.8783 1.6181
L23.9992 1.5576
" />
<path d="M23.9992 1.5576
L24.1806 1.5576
" />
<path d="M24.1806 1.5576
L24.3016 1.6181
" />
<path d="M24.3016 1.6181
L24.3621 1.7390
" />
<path d="M24.3621 1.7390
L24.3621 2.4043
" />
<path d="M24.3621 1.7390
L24.4226 1.6181
" />
<path d="M24.4226 1.6181
L24.5435 1.5576
" />
<path d="M24.5435 1.5576
L24.7249 1.5576
" />
<path d="M24.7249 1.5576
L24.8459 1.6181
" />
<path d="M24.8459 1.6181
L24.9064 1.7390
" />
<path d="M24.9064 1.7390
L24.9064 2.4043
" />
<path d="M25.2087 2.5252
L26.1764 2.5252
" />
<path d="M26.4787 2.4043
L26.4787 1.1343
" />
<path d="M26.4787 1.7390
L27.2045 1.7390
" />
<path d="M27.2045 2.4043
L27.2045 1.1343
" />
<path d="M27.9906 2.4043
L27.8697 2.3438
" />
<path d="M27.8697 2.3438
L27.8092 2.2833
" />
<path d="M27.8092 2.2833
L27.7487 2.1624
" />
<path d="M27.7487 2.1624
L27.7487 1.7995
" />
<path d="M27.7487 1.7995
L27.8092 1.6786
" />
<path d="M27.8092 1.6786
L27.8697 1.6181
" />
<path d="M27.8697 1.6181
L27.9906 1.5576
" />
<path d="M27.9906 1.5576
L28.1721 1.5576
" />
<path d="M28.1721 1.5576
L28.2930 1.6181
" />
<path d="M28.2930 1.6181
L28.3535 1.6786
" />
<path d="M28.3535 1.6786
L28.4140 1.7995
" />
<path d="M28.4140 1.7995
L28.4140 2.1624
" />
<path d="M28.4140 2.1624
L28.3535 2.2833
" />
<path d="M28.3535 2.2833
L28.2930 2.3438
" />
<path d="M28.2930 2.3438
L28.1721 2.4043
" />
<path d="M28.1721 2.4043
L27.9906 2.4043
" />
<path d="M28.9583 2.4043
L28.9583 1.5576
" />
<path d="M28.9583 1.7995
L29.0187 1.6786
" />
<path d="M29.0187 1.6786
L29.0792 1.6181
" />
<path d="M29.0792 1.6181
L29.2002 1.5576
" />
<path d="M29.2002 1.5576
L29.3211 1.5576
" />
<path d="M29.7445 2.4043
L29.7445 1.5576
" />
<path d="M29.7445 1.1343
L29.6840 1.1947
" />
<path d="M29.6840 1.1947
L29.7445 1.2552
" />
<path d="M29.7445 1.2552
L29.8049 1.1947
" />
<path d="M29.8049 1.1947
L29.7445 1.1343
" />
<path d="M29.7445 1.1343
L29.7445 1.2552
" />
<path d="M30.2283 1.5576
L30.8935 1.5576
" />
<path d="M30.8935 1.5576
L30.2283 2.4043
" />
<path d="M30.2283 2.4043
L30.8935 2.4043
" />
<path d="M31.5587 2.4043
L31.4378 2.3438
" />
<path d="M31.4378 2.3438
L31.3773 2.2833
" />
<path d="M31.3773 2.2833
L31.3168 2.1624
" />
<path d="M31.3168 2.1624
L31.3168 1.7995
" />
<path d="M31.3168 1.7995
L31.3773 1.6786
" />
<path d="M31.3773 1.6786
L31.4378 1.6181
" />
<path d="M31.4378 1.6181
L31.5587 1.5576
" />
<path d="M31.5587 1.5576
L31.7402 1.5576
" />
<path d="M31.7402 1.5576
L31.8611 1.6181
" />
<path d="M31.8611 1.6181
L31.9216 1.6786
" />
<path d="M31.9216 1.6786
L31.9821 1.7995
" />
<path d="M31.9821 1.7995
L31.9821 2.1624
" />
<path d="M31.9821 2.1624
L31.9216 2.2833
" />
<path d="M31.9216 2.2833
L31.8611 2.3438
" />
<path d="M31.8611 2.3438
L31.7402 2.4043
" />
<path d="M31.7402 2.4043
L31.5587 2.4043
" />
<path d="M32.5264 1.5576
L32.5264 2.4043
" />
<path d="M32.5264 1.6786
L32.5868 1.6181
" />
<path d="M32.5868 1.6181
L32.7078 1.5576
" />
<path d="M32.7078 1.5576
L32.8892 1.5576
" />
<path d="M32.8892 1.5576
L33.0102 1.6181
" />
<path d="M33.0102 1.6181
L33.0706 1.7390
" />
<path d="M33.0706 1.7390
L33.0706 2.4043
" />
<path d="M33.4940 1.5576
L33.9778 1.5576
" />
<path d="M33.6754 1.1343
L33.6754 2.2228
" />
<path d="M33.6754 2.2228
L33.7359 2.3438
" />
<path d="M33.7359 2.3438
L33.8568 2.4043
" />
<path d="M33.8568 2.4043
L33.9778 2.4043
" />
<path d="M34.9454 2.4043
L34.9454 1.7390
" />
<path d="M34.9454 1.7390
L34.8849 1.6181
" />
<path d="M34.8849 1.6181
L34.7640 1.5576
" />
<path d="M34.7640 1.5576
L34.5221 1.5576
" />
<path d="M34.5221 1.5576
L34.4011 1.6181
" />
<path d="M34.9454 2.3438
L34.8245 2.4043
" />
<path d="M34.8245 2.4043
L34.5221 2.4043
" />
<path d="M34.5221 2.4043
L34.4011 2.3438
" />
<path d="M34.4011 2.3438
L34.3406 2.2228
" />
<path d="M34.3406 2.2228
L34.3406 2.1019
" />
<path d="M34.3406 2.1019
L34.4011 1.9809
" />
<path d="M34.4011 1.9809
L34.5221 1.9205
" />
<path d="M34.5221 1.9205
L34.8245 1.9205
" />
<path d="M34.8245 1.9205
L34.9454 1.8600
" />
<path d="M35.7316 2.4043
L35.6106 2.3438
" />
<path d="M35.6106 2.3438
L35.5502 2.2228
" />
<path d="M35.5502 2.2228
L35.5502 1.1343
" />
</g></g>
<g style="fill:none; 
stroke:#AFAFAF; stroke-width:0.1500; stroke-opacity:1; 
stroke-linecap:round; stroke-linejoin:round;">
<g transform="rotate(-90.000000 20.7821 47.5450)">
<text x="20.7821" y="48.0450"
textLength="4.5357" font-size="1.3333" lengthAdjust="spacingAndGlyphs"
text-anchor="middle" opacity="0">REF**</text>
</g>
<g class="stroked-text"><desc>REF**</desc>
<path d="M21.2369 48.8783
L20.7607 49.2117
" />
<path d="M21.2369 49.4498
L20.2369 49.4498
" />
<path d="M20.2369 49.4498
L20.2369 49.0688
" />
<path d="M20.2369 49.0688
L20.2845 48.9736
" />
<path d="M20.2845 48.9736
L20.3321 48.9260
" />
<path d="M20.3321 48.9260
L20.4274 48.8783
" />
<path d="M20.4274 48.8783
L20.5702 48.8783
" />
<path d="M20.5702 48.8783
L20.6655 48.9260
" />
<path d="M20.6655 48.9260
L20.7131 48.9736
" />
<path d="M20.7131 48.9736
L20.7607 49.0688
" />
<path d="M20.7607 49.0688
L20.7607 49.4498
" />
<path d="M20.7131 48.4498
L20.7131 48.1164
" />
<path d="M21.2369 47.9736
L21.2369 48.4498
" />
<path d="M21.2369 48.4498
L20.2369 48.4498
" />
<path d="M20.2369 48.4498
L20.2369 47.9736
" />
<path d="M20.7131 47.2117
L20.7131 47.5450
" />
<path d="M21.2369 47.5450
L20.2369 47.5450
" />
<path d="M20.2369 47.5450
L20.2369 47.0688
" />
<path d="M20.2369 46.5450
L20.4750 46.5450
" />
<path d="M20.3798 46.7831
L20.4750 46.5450
" />
<path d="M20.4750 46.5450
L20.3798 46.3069
" />
<path d="M20.6655 46.6879
L20.4750 46.5450
" />
<path d="M20.4750 46.5450
L20.6655 46.4021
" />
<path d="M20.2369 45.7831
L20.4750 45.7831
" />
<path d="M20.3798 46.0212
L20.4750 45.7831
" />
<path d="M20.4750 45.7831
L20.3798 45.5450
" />
<path d="M20.6655 45.9260
L20.4750 45.7831
" />
<path d="M20.4750 45.7831
L20.6655 45.6402
" />
</g></g>
<g style="fill:none; 
stroke:#AFAFAF; stroke-width:0.1000; stroke-opacity:1; 
stroke-linecap:round; stroke-linejoin:round;">
<path d="M17.6921 1.5050
L17.6921 2.1450
" />
<path d="M17.6921 1.5050
L19.5121 1.5050
" />
<path d="M17.6921 2.1450
L19.5121 2.1450
" />
<path d="M17.6921 4.0450
L17.6921 4.6850
" />
<path d="M17.6921 4.0450
L19.5121 4.0450
" />
<path d="M17.6921 4.6850
L19.5121 4.6850
" />
<path d="M17.6921 6.5850
L17.6921 7.2250
" />
<path d="M17.6921 6.5850
L19.5121 6.5850
" />
<path d="M17.6921 7.2250
L19.5121 7.2250
" />
<path d="M17.6921 9.1250
L17.6921 9.7650
" />
<path d="M17.6921 9.1250
L19.5121 9.1250
" />
<path d="M17.6921 9.7650
L19.5121 9.7650
" />
<path d="M17.6921 11.6650
L17.6921 12.3050
" />
<path d="M17.6921 11.6650
L19.5121 11.6650
" />
<path d="M17.6921 12.3050
L19.5121 12.3050
" />
<path d="M17.6921 14.2050
L17.6921 14.8450
" />
<path d="M17.6921 14.2050
L19.5121 14.2050
" />
<path d="M17.6921 14.8450
L19.5121 14.8450
" />
<path d="M17.6921 16.7450
L17.6921 17.3850
" />
<path d="M17.6921 16.7450
L19.5121 16.7450
" />
<path d="M17.6921 17.3850
L19.5121 17.3850
" />
<path d="M17.6921 19.2850
L17.6921 19.9250
" />
<path d="M17.6921 19.2850
L19.5121 19.2850
" />
<path d="M17.6921 19.9250
L19.5121 19.9250
" />
<path d="M17.6921 21.8250
L17.6921 22.4650
" />
<path d="M17.6921 21.8250
L19.5121 21.8250
" />
<path d="M17.6921 22.4650
L19.5121 22.4650
" />
<path d="M17.6921 24.3650
L17.6921 25.0050
" />
<path d="M17.6921 24.3650
L19.5121 24.3650
" />
<path d="M17.6921 25.0050
L19.5121 25.0050
" />
<path d="M17.6921 26.9050
L17.6921 27.5450
" />
<path d="M17.6921 26.9050
L19.5121 26.9050
" />
<path d="M17.6921 27.5450
L19.5121 27.5450
" />
<path d="M17.6921 29.4450
L17.6921 30.0850
" />
<path d="M17.6921 29.4450
L19.5121 29.4450
" />
<path d="M17.6921 30.0850
L19.5121 30.0850
" />
<path d="M17.6921 31.9850
L17.6921 32.6250
" />
<path d="M17.6921 31.9850
L19.5121 31.9850
" />
<path d="M17.6921 32.6250
L19.5121 32.6250
" />
<path d="M17.6921 34.5250
L17.6921 35.1650
" />
<path d="M17.6921 34.5250
L19.5121 34.5250
" />
<path d="M17.6921 35.1650
L19.5121 35.1650
" />
<path d="M17.6921 37.0650
L17.6921 37.7050
" />
<path d="M17.6921 37.0650
L19.5121 37.0650
" />
<path d="M17.6921 37.7050
L19.5121 37.7050
" />
<path d="M17.6921 39.6050
L17.6921 40.2450
" />
<path d="M17.6921 39.6050
L19.5121 39.6050
" />
<path d="M17.6921 40.2450
L19.5121 40.2450
" />
<path d="M17.6921 42.1450
L17.6921 42.7850
" />
<path d="M17.6921 42.1450
L19.5121 42.1450
" />
<path d="M17.6921 42.7850
L19.5121 42.7850
" />
<path d="M17.6921 44.6850
L17.6921 45.3250
" />
<path d="M17.6921 44.6850
L19.5121 44.6850
" />
<path d="M17.6921 45.3250
L19.5121 45.3250
" />
<path d="M17.6921 47.2250
L17.6921 47.8650
" />
<path d="M17.6921 47.2250
L19.5121 47.2250
" />
<path d="M17.6921 47.8650
L19.5121 47.8650
" />
<path d="M17.6921 49.7650
L17.6921 50.4050
" />
<path d="M17.6921 49.7650
L19.5121 49.7650
" />
<path d="M17.6921 50.4050
L19.5121 50.4050
" />
<path d="M17.6921 52.3050
L17.6921 52.9450
" />
<path d="M17.6921 52.3050
L19.5121 52.3050
" />
<path d="M17.6921 52.9450
L19.5121 52.9450
" />
<path d="M17.6921 54.8450
L17.6921 55.4850
" />
<path d="M17.6921 54.8450
L19.5121 54.8450
" />
<path d="M17.6921 55.4850
L19.5121 55.4850
" />
<path d="M17.6921 57.3850
L17.6921 58.0250
" />
<path d="M17.6921 57.3850
L19.5121 57.3850
" />
<path d="M17.6921 58.0250
L19.5121 58.0250
" />
<path d="M17.6921 59.9250
L17.6921 60.5650
" />
<path d="M17.6921 59.9250
L19.5121 59.9250
" />
<path d="M17.6921 60.5650
L19.5121 60.5650
" />
<path d="M17.6921 62.4650
L17.6921 63.1050
" />
<path d="M17.6921 62.4650
L19.5121 62.4650
" />
<path d="M17.6921 63.1050
L19.5121 63.1050
" />
<path d="M17.6921 65.0050
L17.6921 65.6450
" />
<path d="M17.6921 65.0050
L19.5121 65.0050
" />
<path d="M17.6921 65.6450
L19.5121 65.6450
" />
<path d="M17.6921 67.5450
L17.6921 68.1850
" />
<path d="M17.6921 67.5450
L19.5121 67.5450
" />
<path d="M17.6921 68.1850
L19.5121 68.1850
" />
<path d="M17.6921 70.0850
L17.6921 70.7250
" />
<path d="M17.6921 70.0850
L19.5121 70.0850
" />
<path d="M17.6921 70.7250
L19.5121 70.7250
" />
<path d="M17.6921 72.6250
L17.6921 73.2650
" />
<path d="M17.6921 72.6250
L19.5121 72.6250
" />
<path d="M17.6921 73.2650
L19.5121 73.2650
" />
<path d="M17.6921 75.1650
L17.6921 75.8050
" />
<path d="M17.6921 75.1650
L19.5121 75.1650
" />
<path d="M17.6921 75.8050
L19.5121 75.8050
" />
<path d="M17.6921 77.7050
L17.6921 78.3450
" />
<path d="M17.6921 77.7050
L19.5121 77.7050
" />
<path d="M17.6921 78.3450
L19.5121 78.3450
" />
<path d="M17.6921 80.2450
L17.6921 80.8850
" />
<path d="M17.6921 80.2450
L19.5121 80.2450
" />
<path d="M17.6921 80.8850
L19.5121 80.8850
" />
<path d="M17.6921 82.7850
L17.6921 83.4250
" />
<path d="M17.6921 82.7850
L19.5121 82.7850
" />
<path d="M17.6921 83.4250
L19.5121 83.4250
" />
<path d="M17.6921 85.3250
L17.6921 85.9650
" />
<path d="M17.6921 85.3250
L19.5121 85.3250
" />
<path d="M17.6921 85.9650
L19.5121 85.9650
" />
<path d="M17.6921 87.8650
L17.6921 88.5050
" />
<path d="M17.6921 87.8650
L19.5121 87.8650
" />
<path d="M17.6921 88.5050
L19.5121 88.5050
" />
<path d="M17.6921 90.4050
L17.6921 91.0450
" />
<path d="M17.6921 90.4050
L19.5121 90.4050
" />
<path d="M17.6921 91.0450
L19.5121 91.0450
" />
<path d="M17.6921 92.9450
L17.6921 93.5850
" />
<path d="M17.6921 92.9450
L19.5121 92.9450
" />
<path d="M17.6921 93.5850
L19.5121 93.5850
" />
<path d="M19.5121 1.1900
L20.1471 0.5550
" />
<path d="M19.5121 94.5350
L19.5121 1.1900
" />
<path d="M20.1471 0.5550
L22.0521 0.5550
" />
<path d="M22.0521 0.5550
L22.0521 94.5350
" />
<path d="M22.0521 1.5050
L28.0521 1.5050
" />
<path d="M22.0521 2.1450
L28.0521 2.1450
" />
<path d="M22.0521 4.0450
L28.0521 4.0450
" />
<path d="M22.0521 4.6850
L28.0521 4.6850
" />
<path d="M22.0521 6.5850
L28.0521 6.5850
" />
<path d="M22.0521 7.2250
L28.0521 7.2250
" />
<path d="M22.0521 9.1250
L28.0521 9.1250
" />
<path d="M22.0521 9.7650
L28.0521 9.7650
" />
<path d="M22.0521 11.6650
L28.0521 11.6650
" />
<path d="M22.0521 12.3050
L28.0521 12.3050
" />
<path d="M22.0521 14.2050
L28.0521 14.2050
" />
<path d="M22.0521 14.8450
L28.0521 14.8450
" />
<path d="M22.0521 16.7450
L28.0521 16.7450
" />
<path d="M22.0521 17.3850
L28.0521 17.3850
" />
<path d="M22.0521 19.2850
L28.0521 19.2850
" />
<path d="M22.0521 19.9250
L28.0521 19.9250
" />
<path d="M22.0521 21.8250
L28.0521 21.8250
" />
<path d="M22.0521 22.4650
L28.0521 22.4650
" />
<path d="M22.0521 24.3650
L28.0521 24.3650
" />
<path d="M22.0521 25.0050
L28.0521 25.0050
" />
<path d="M22.0521 26.9050
L28.0521 26.9050
" />
<path d="M22.0521 27.5450
L28.0521 27.5450
" />
<path d="M22.0521 29.4450
L28.0521 29.4450
" />
<path d="M22.0521 30.0850
L28.0521 30.0850
" />
<path d="M22.0521 31.9850
L28.0521 31.9850
" />
<path d="M22.0521 32.6250
L28.0521 32.6250
" />
<path d="M22.0521 34.5250
L28.0521 34.5250
" />
<path d="M22.0521 35.1650
L28.0521 35.1650
" />
<path d="M22.0521 37.0650
L28.0521 37.0650
" />
<path d="M22.0521 37.7050
L28.0521 37.7050
" />
<path d="M22.0521 39.6050
L28.0521 39.6050
" />
<path d="M22.0521 40.2450
L28.0521 40.2450
" />
<path d="M22.0521 42.1450
L28.0521 42.1450
" />
<path d="M22.0521 42.7850
L28.0521 42.7850
" />
<path d="M22.0521 44.6850
L28.0521 44.6850
" />
<path d="M22.0521 45.3250
L28.0521 45.3250
" />
<path d="M22.0521 47.2250
L28.0521 47.2250
" />
<path d="M22.0521 47.8650
L28.0521 47.8650
" />
<path d="M22.0521 49.7650
L28.0521 49.7650
" />
<path d="M22.0521 50.4050
L28.0521 50.4050
" />
<path d="M22.0521 52.3050
L28.0521 52.3050
" />
<path d="M22.0521 52.9450
L28.0521 52.9450
" />
<path d="M22.0521 54.8450
L28.0521 54.8450
" />
<path d="M22.0521 55.4850
L28.0521 55.4850
" />
<path d="M22.0521 57.3850
L28.0521 57.3850
" />
<path d="M22.0521 58.0250
L28.0521 58.0250
" />
<path d="M22.0521 59.9250
L28.0521 59.9250
" />
<path d="M22.0521 60.5650
L28.0521 60.5650
" />
<path d="M22.0521 62.4650
L28.0521 62.4650
" />
<path d="M22.0521 63.1050
L28.0521 63.1050
" />
<path d="M22.0521 65.0050
L28.0521 65.0050
" />
<path d="M22.0521 65.6450
L28.0521 65.6450
" />
<path d="M22.0521 67.5450
L28.0521 67.5450
" />
<path d="M22.0521 68.1850
L28.0521 68.1850
" />
<path d="M22.0521 70.0850
L28.0521 70.0850
" />
<path d="M22.0521 70.7250
L28.0521 70.7250
" />
<path d="M22.0521 72.6250
L28.0521 72.6250
" />
<path d="M22.0521 73.2650
L28.0521 73.2650
" />
<path d="M22.0521 75.1650
L28.0521 75.1650
" />
<path d="M22.0521 75.8050
L28.0521 75.8050
" />
<path d="M22.0521 77.7050
L28.0521 77.7050
" />
<path d="M22.0521 78.3450
L28.0521 78.3450
" />
<path d="M22.0521 80.2450
L28.0521 80.2450
" />
<path d="M22.0521 80.8850
L28.0521 80.8850
" />
<path d="M22.0521 82.7850
L28.0521 82.7850
" />
<path d="M22.0521 83.4250
L28.0521 83.4250
" />
<path d="M22.0521 85.3250
L28.0521 85.3250
" />
<path d="M22.0521 85.9650
L28.0521 85.9650
" />
<path d="M22.0521 87.8650
L28.0521 87.8650
" />
<path d="M22.0521 88.5050
L28.0521 88.5050
" />
<path d="M22.0521 90.4050
L28.0521 90.4050
" />
<path d="M22.0521 91.0450
L28.0521 91.0450
" />
<path d="M22.0521 92.9450
L28.0521 92.9450
" />
<path d="M22.0521 93.5850
L28.0521 93.5850
" />
<path d="M22.0521 94.5350
L19.5121 94.5350
" />
<path d="M28.0521 1.5050
L28.0521 2.1450
" />
<path d="M28.0521 4.0450
L28.0521 4.6850
" />
<path d="M28.0521 6.5850
L28.0521 7.2250
" />
<path d="M28.0521 9.1250
L28.0521 9.7650
" />
<path d="M28.0521 11.6650
L28.0521 12.3050
" />
<path d="M28.0521 14.2050
L28.0521 14.8450
" />
<path d="M28.0521 16.7450
L28.0521 17.3850
" />
<path d="M28.0521 19.2850
L28.0521 19.9250
" />
<path d="M28.0521 21.8250
L28.0521 22.4650
" />
<path d="M28.0521 24.3650
L28.0521 25.0050
" />
<path d="M28.0521 26.9050
L28.0521 27.5450
" />
<path d="M28.0521 29.4450
L28.0521 30.0850
" />
<path d="M28.0521 31.9850
L28.0521 32.6250
" />
<path d="M28.0521 34.5250
L28.0521 35.1650
" />
<path d="M28.0521 37.0650
L28.0521 37.7050
" />
<path d="M28.0521 39.6050
L28.0521 40.2450
" />
<path d="M28.0521 42.1450
L28.0521 42.7850
" />
<path d="M28.0521 44.6850
L28.0521 45.3250
" />
<path d="M28.0521 47.2250
L28.0521 47.8650
" />
<path d="M28.0521 49.7650
L28.0521 50.4050
" />
<path d="M28.0521 52.3050
L28.0521 52.9450
" />
<path d="M28.0521 54.8450
L28.0521 55.4850
" />
<path d="M28.0521 57.3850
L28.0521 58.0250
" />
<path d="M28.0521 59.9250
L28.0521 60.5650
" />
<path d="M28.0521 62.4650
L28.0521 63.1050
" />
<path d="M28.0521 65.0050
L28.0521 65.6450
" />
<path d="M28.0521 67.5450
L28.0521 68.1850
" />
<path d="M28.0521 70.0850
L28.0521 70.7250
" />
<path d="M28.0521 72.6250
L28.0521 73.2650
" />
<path d="M28.0521 75.1650
L28.0521 75.8050
" />
<path d="M28.0521 77.7050
L28.0521 78.3450
" />
<path d="M28.0521 80.2450
L28.0521 80.8850
" />
<path d="M28.0521 82.7850
L28.0521 83.4250
" />
<path d="M28.0521 85.3250
L28.0521 85.9650
" />
<path d="M28.0521 87.8650
L28.0521 88.5050
" />
<path d="M28.0521 90.4050
L28.0521 91.0450
" />
<path d="M28.0521 92.9450
L28.0521 93.5850
" />
</g> 
</svg>
