<?xml version="1.0" standalone="no"?>
 <!DOCTYPE svg PUBLIC "-//W3C//DTD SVG 1.1//EN" 
 "http://www.w3.org/Graphics/SVG/1.1/DTD/svg11.dtd"> 
<svg
  xmlns:svg="http://www.w3.org/2000/svg"
  xmlns="http://www.w3.org/2000/svg"
  xmlns:xlink="http://www.w3.org/1999/xlink"
  version="1.1"
  width="22.6568mm" height="6.0960mm" viewBox="0.0000 0.0000 22.6568 6.0960">
<title>SVG Image created as working-brd.svg date 2024/04/22 00:14:34 </title>
  <desc>Image generated by PCBNEW </desc>
<g style="fill:#000000; fill-opacity:1.0000;stroke:#000000; stroke-opacity:1.0000;
stroke-linecap:round; stroke-linejoin:round;"
 transform="translate(0 0) scale(1 1)">
<path style="fill:#C83434; fill-opacity:1.0000; stroke:none;fill-rule:evenodd;"
d="M 8.0822,0.9625
8.0965,0.8907
8.1371,0.8299
8.1980,0.7893
8.2697,0.7750
8.8947,0.7750
8.9665,0.7893
9.0273,0.8299
9.0679,0.8907
9.0822,0.9625
9.0822,1.3375
9.0679,1.4093
9.0273,1.4701
8.9665,1.5107
8.8947,1.5250
8.2697,1.5250
8.1980,1.5107
8.1371,1.4701
8.0965,1.4093
8.0822,1.3375
Z" /> 
<path style="fill:#C83434; fill-opacity:1.0000; stroke:none;fill-rule:evenodd;"
d="M 8.0822,2.2325
8.0965,2.1607
8.1371,2.0999
8.1980,2.0593
8.2697,2.0450
8.8947,2.0450
8.9665,2.0593
9.0273,2.0999
9.0679,2.1607
9.0822,2.2325
9.0822,2.6075
9.0679,2.6793
9.0273,2.7401
8.9665,2.7807
8.8947,2.7950
8.2697,2.7950
8.1980,2.7807
8.1371,2.7401
8.0965,2.6793
8.0822,2.6075
Z" /> 
<path style="fill:#C83434; fill-opacity:1.0000; stroke:none;fill-rule:evenodd;"
d="M 8.0822,3.5025
8.0965,3.4307
8.1371,3.3699
8.1980,3.3293
8.2697,3.3150
8.8947,3.3150
8.9665,3.3293
9.0273,3.3699
9.0679,3.4307
9.0822,3.5025
9.0822,3.8775
9.0679,3.9493
9.0273,4.0101
8.9665,4.0507
8.8947,4.0650
8.2697,4.0650
8.1980,4.0507
8.1371,4.0101
8.0965,3.9493
8.0822,3.8775
Z" /> 
<path style="fill:#C83434; fill-opacity:1.0000; stroke:none;fill-rule:evenodd;"
d="M 8.0822,4.7725
8.0965,4.7007
8.1371,4.6399
8.1980,4.5993
8.2697,4.5850
8.8947,4.5850
8.9665,4.5993
9.0273,4.6399
9.0679,4.7007
9.0822,4.7725
9.0822,5.1475
9.0679,5.2193
9.0273,5.2801
8.9665,5.3207
8.8947,5.3350
8.2697,5.3350
8.1980,5.3207
8.1371,5.2801
8.0965,5.2193
8.0822,5.1475
Z" /> 
<path style="fill:#C83434; fill-opacity:1.0000; stroke:none;fill-rule:evenodd;"
d="M 11.3770,0.7750
14.1020,0.7750
14.5770,0.7750
14.5770,1.5250
14.1020,1.5250
14.1020,4.5850
14.5770,4.5850
14.5770,5.3350
11.3770,5.3350
11.3770,5.8300
10.4720,5.8300
10.4720,5.3350
10.0470,5.3350
10.0470,0.7750
10.4720,0.7750
10.4720,0.2800
11.3770,0.2800
Z" /> 
<path style="fill:#D864FF; fill-opacity:0.4000; stroke:none;fill-rule:evenodd;"
d="M 8.0822,0.9625
8.0965,0.8907
8.1371,0.8299
8.1980,0.7893
8.2697,0.7750
8.8947,0.7750
8.9665,0.7893
9.0273,0.8299
9.0679,0.8907
9.0822,0.9625
9.0822,1.3375
9.0679,1.4093
9.0273,1.4701
8.9665,1.5107
8.8947,1.5250
8.2697,1.5250
8.1980,1.5107
8.1371,1.4701
8.0965,1.4093
8.0822,1.3375
Z" /> 
<path style="fill:#D864FF; fill-opacity:0.4000; stroke:none;fill-rule:evenodd;"
d="M 8.0822,2.2325
8.0965,2.1607
8.1371,2.0999
8.1980,2.0593
8.2697,2.0450
8.8947,2.0450
8.9665,2.0593
9.0273,2.0999
9.0679,2.1607
9.0822,2.2325
9.0822,2.6075
9.0679,2.6793
9.0273,2.7401
8.9665,2.7807
8.8947,2.7950
8.2697,2.7950
8.1980,2.7807
8.1371,2.7401
8.0965,2.6793
8.0822,2.6075
Z" /> 
<path style="fill:#D864FF; fill-opacity:0.4000; stroke:none;fill-rule:evenodd;"
d="M 8.0822,3.5025
8.0965,3.4307
8.1371,3.3699
8.1980,3.3293
8.2697,3.3150
8.8947,3.3150
8.9665,3.3293
9.0273,3.3699
9.0679,3.4307
9.0822,3.5025
9.0822,3.8775
9.0679,3.9493
9.0273,4.0101
8.9665,4.0507
8.8947,4.0650
8.2697,4.0650
8.1980,4.0507
8.1371,4.0101
8.0965,3.9493
8.0822,3.8775
Z" /> 
<path style="fill:#D864FF; fill-opacity:0.4000; stroke:none;fill-rule:evenodd;"
d="M 8.0822,4.7725
8.0965,4.7007
8.1371,4.6399
8.1980,4.5993
8.2697,4.5850
8.8947,4.5850
8.9665,4.5993
9.0273,4.6399
9.0679,4.7007
9.0822,4.7725
9.0822,5.1475
9.0679,5.2193
9.0273,5.2801
8.9665,5.3207
8.8947,5.3350
8.2697,5.3350
8.1980,5.3207
8.1371,5.2801
8.0965,5.2193
8.0822,5.1475
Z" /> 
<path style="fill:#D864FF; fill-opacity:0.4000; stroke:none;fill-rule:evenodd;"
d="M 11.3770,0.7750
14.1020,0.7750
14.5770,0.7750
14.5770,1.5250
14.1020,1.5250
14.1020,4.5850
14.5770,4.5850
14.5770,5.3350
11.3770,5.3350
11.3770,5.8300
10.4720,5.8300
10.4720,5.3350
10.0470,5.3350
10.0470,0.7750
10.4720,0.7750
10.4720,0.2800
11.3770,0.2800
Z" /> 
<path style="fill:#B4A09A; fill-opacity:0.9000; stroke:none;fill-rule:evenodd;"
d="M 8.0822,0.9625
8.0965,0.8907
8.1371,0.8299
8.1980,0.7893
8.2697,0.7750
8.8947,0.7750
8.9665,0.7893
9.0273,0.8299
9.0679,0.8907
9.0822,0.9625
9.0822,1.3375
9.0679,1.4093
9.0273,1.4701
8.9665,1.5107
8.8947,1.5250
8.2697,1.5250
8.1980,1.5107
8.1371,1.4701
8.0965,1.4093
8.0822,1.3375
Z" /> 
<path style="fill:#B4A09A; fill-opacity:0.9000; stroke:none;fill-rule:evenodd;"
d="M 8.0822,2.2325
8.0965,2.1607
8.1371,2.0999
8.1980,2.0593
8.2697,2.0450
8.8947,2.0450
8.9665,2.0593
9.0273,2.0999
9.0679,2.1607
9.0822,2.2325
9.0822,2.6075
9.0679,2.6793
9.0273,2.7401
8.9665,2.7807
8.8947,2.7950
8.2697,2.7950
8.1980,2.7807
8.1371,2.7401
8.0965,2.6793
8.0822,2.6075
Z" /> 
<path style="fill:#B4A09A; fill-opacity:0.9000; stroke:none;fill-rule:evenodd;"
d="M 8.0822,3.5025
8.0965,3.4307
8.1371,3.3699
8.1980,3.3293
8.2697,3.3150
8.8947,3.3150
8.9665,3.3293
9.0273,3.3699
9.0679,3.4307
9.0822,3.5025
9.0822,3.8775
9.0679,3.9493
9.0273,4.0101
8.9665,4.0507
8.8947,4.0650
8.2697,4.0650
8.1980,4.0507
8.1371,4.0101
8.0965,3.9493
8.0822,3.8775
Z" /> 
<path style="fill:#B4A09A; fill-opacity:0.9000; stroke:none;fill-rule:evenodd;"
d="M 8.0822,4.7725
8.0965,4.7007
8.1371,4.6399
8.1980,4.5993
8.2697,4.5850
8.8947,4.5850
8.9665,4.5993
9.0273,4.6399
9.0679,4.7007
9.0822,4.7725
9.0822,5.1475
9.0679,5.2193
9.0273,5.2801
8.9665,5.3207
8.8947,5.3350
8.2697,5.3350
8.1980,5.3207
8.1371,5.2801
8.0965,5.2193
8.0822,5.1475
Z" /> 
<path style="fill:#B4A09A; fill-opacity:0.9000; stroke:none;fill-rule:evenodd;"
d="M 11.3770,0.7750
14.1020,0.7750
14.5770,0.7750
14.5770,1.5250
14.1020,1.5250
14.1020,4.5850
14.5770,4.5850
14.5770,5.3350
11.3770,5.3350
11.3770,5.8300
10.4720,5.8300
10.4720,5.3350
10.0470,5.3350
10.0470,0.7750
10.4720,0.7750
10.4720,0.2800
11.3770,0.2800
Z" /> 
</g>
<g style="fill:none; 
stroke:#F2EDA1; stroke-width:0.1588; stroke-opacity:1; 
stroke-linecap:round; stroke-linejoin:round;">
<text x="11.3295" y="3.6900"
textLength="5.6651" font-size="1.6933" lengthAdjust="spacingAndGlyphs"
text-anchor="middle" opacity="0">REF**</text>
<g class="stroked-text"><desc>REF**</desc>
<path d="M9.6361 3.6343
L9.2128 3.0295
" />
<path d="M8.9104 3.6343
L8.9104 2.3643
" />
<path d="M8.9104 2.3643
L9.3942 2.3643
" />
<path d="M9.3942 2.3643
L9.5152 2.4247
" />
<path d="M9.5152 2.4247
L9.5756 2.4852
" />
<path d="M9.5756 2.4852
L9.6361 2.6062
" />
<path d="M9.6361 2.6062
L9.6361 2.7876
" />
<path d="M9.6361 2.7876
L9.5756 2.9086
" />
<path d="M9.5756 2.9086
L9.5152 2.9690
" />
<path d="M9.5152 2.9690
L9.3942 3.0295
" />
<path d="M9.3942 3.0295
L8.9104 3.0295
" />
<path d="M10.1804 2.9690
L10.6037 2.9690
" />
<path d="M10.7852 3.6343
L10.1804 3.6343
" />
<path d="M10.1804 3.6343
L10.1804 2.3643
" />
<path d="M10.1804 2.3643
L10.7852 2.3643
" />
<path d="M11.7528 2.9690
L11.3295 2.9690
" />
<path d="M11.3295 3.6343
L11.3295 2.3643
" />
<path d="M11.3295 2.3643
L11.9342 2.3643
" />
<path d="M12.5995 2.3643
L12.5995 2.6667
" />
<path d="M12.2971 2.5457
L12.5995 2.6667
" />
<path d="M12.5995 2.6667
L12.9018 2.5457
" />
<path d="M12.4180 2.9086
L12.5995 2.6667
" />
<path d="M12.5995 2.6667
L12.7809 2.9086
" />
<path d="M13.5671 2.3643
L13.5671 2.6667
" />
<path d="M13.2647 2.5457
L13.5671 2.6667
" />
<path d="M13.5671 2.6667
L13.8695 2.5457
" />
<path d="M13.3856 2.9086
L13.5671 2.6667
" />
<path d="M13.5671 2.6667
L13.7485 2.9086
" />
</g></g>
<g style="fill:none; 
stroke:#F2EDA1; stroke-width:0.1200; stroke-opacity:1; 
stroke-linecap:round; stroke-linejoin:round;">
<path d="M10.2112 0.4950
L9.2262 0.4950
" />
<path d="M10.2112 5.6150
L9.2262 5.6150
" />
<path d="M14.4072 0.4950
L11.6372 0.4950
" />
<path d="M14.4072 5.6150
L11.6372 5.6150
" />
<path d="M14.4372 1.7850
L14.4372 4.3250
" />
<path style="fill:#F2EDA1; fill-opacity:1.0000; 
stroke:#F2EDA1; stroke-width:0.1200; stroke-opacity:1; 
stroke-linecap:round; stroke-linejoin:round;fill-rule:evenodd;"
d="M 8.5795,0.5050
8.3395,0.1750
8.8195,0.1750
Z" /> 
</g>
<g style="fill:none; 
stroke:#FF26E2; stroke-width:0.0500; stroke-opacity:1; 
stroke-linecap:round; stroke-linejoin:round;">
<path d="M7.8295 5.5050
L7.8295 0.6050
" />
<path d="M8.0795 0.3550
L10.2195 0.3550
" />
<path d="M8.0795 5.7550
L10.2195 5.7550
" />
<path d="M10.2195 0.2750
L10.2195 0.3550
" />
<path d="M10.2195 5.7550
L10.2195 5.8350
" />
<path d="M10.4695 0.0250
L11.3795 0.0250
" />
<path d="M10.4695 6.0850
L11.3795 6.0850
" />
<path d="M11.6295 0.3550
L11.6295 0.2750
" />
<path d="M11.6295 0.3550
L14.5795 0.3550
" />
<path d="M11.6295 5.7550
L14.5795 5.7550
" />
<path d="M11.6295 5.8350
L11.6295 5.7550
" />
<path d="M14.5795 4.3350
L14.5795 1.7750
" />
<path d="M14.8295 1.5250
L14.8295 0.6050
" />
<path d="M14.8295 5.5050
L14.8295 4.5850
" />
<path d="M8.0795 0.3550 A0.2500 0.2500 0.0 0 0 7.8295 0.6050" />
<path d="M7.8295 5.5050 A0.2500 0.2500 0.0 0 0 8.0795 5.7550" />
<path d="M10.4695 0.0250 A0.2500 0.2500 0.0 0 0 10.2195 0.2750" />
<path d="M10.2195 5.8350 A0.2500 0.2500 0.0 0 0 10.4695 6.0850" />
<path d="M11.6295 0.2750 A0.2500 0.2500 0.0 0 0 11.3795 0.0250" />
<path d="M11.3795 6.0850 A0.2500 0.2500 0.0 0 0 11.6295 5.8350" />
<path d="M14.8295 0.6050 A0.2500 0.2500 0.0 0 0 14.5795 0.3550" />
<path d="M14.8295 4.5850 A0.2500 0.2500 0.0 0 0 14.5795 4.3350" />
<path d="M14.5795 1.7750 A0.2500 0.2500 0.0 0 0 14.8295 1.5250" />
<path d="M14.5795 5.7550 A0.2500 0.2500 0.0 0 0 14.8295 5.5050" />
</g>
<g style="fill:none; 
stroke:#AFAFAF; stroke-width:0.1588; stroke-opacity:1; 
stroke-linecap:round; stroke-linejoin:round;">
<text x="11.3295" y="3.6900"
textLength="22.6589" font-size="1.6933" lengthAdjust="spacingAndGlyphs"
text-anchor="middle" opacity="0">ONSemi_SO-8FL_488AA</text>
<g class="stroked-text"><desc>ONSemi_SO-8FL_488AA</desc>
<path d="M0.6554 2.3643
L0.8973 2.3643
" />
<path d="M0.8973 2.3643
L1.0183 2.4247
" />
<path d="M1.0183 2.4247
L1.1392 2.5457
" />
<path d="M1.1392 2.5457
L1.1997 2.7876
" />
<path d="M1.1997 2.7876
L1.1997 3.2109
" />
<path d="M1.1997 3.2109
L1.1392 3.4528
" />
<path d="M1.1392 3.4528
L1.0183 3.5738
" />
<path d="M1.0183 3.5738
L0.8973 3.6343
" />
<path d="M0.8973 3.6343
L0.6554 3.6343
" />
<path d="M0.6554 3.6343
L0.5345 3.5738
" />
<path d="M0.5345 3.5738
L0.4135 3.4528
" />
<path d="M0.4135 3.4528
L0.3530 3.2109
" />
<path d="M0.3530 3.2109
L0.3530 2.7876
" />
<path d="M0.3530 2.7876
L0.4135 2.5457
" />
<path d="M0.4135 2.5457
L0.5345 2.4247
" />
<path d="M0.5345 2.4247
L0.6554 2.3643
" />
<path d="M1.7440 3.6343
L1.7440 2.3643
" />
<path d="M1.7440 2.3643
L2.4697 3.6343
" />
<path d="M2.4697 3.6343
L2.4697 2.3643
" />
<path d="M3.0140 3.5738
L3.1954 3.6343
" />
<path d="M3.1954 3.6343
L3.4978 3.6343
" />
<path d="M3.4978 3.6343
L3.6187 3.5738
" />
<path d="M3.6187 3.5738
L3.6792 3.5133
" />
<path d="M3.6792 3.5133
L3.7397 3.3924
" />
<path d="M3.7397 3.3924
L3.7397 3.2714
" />
<path d="M3.7397 3.2714
L3.6792 3.1505
" />
<path d="M3.6792 3.1505
L3.6187 3.0900
" />
<path d="M3.6187 3.0900
L3.4978 3.0295
" />
<path d="M3.4978 3.0295
L3.2559 2.9690
" />
<path d="M3.2559 2.9690
L3.1349 2.9086
" />
<path d="M3.1349 2.9086
L3.0745 2.8481
" />
<path d="M3.0745 2.8481
L3.0140 2.7271
" />
<path d="M3.0140 2.7271
L3.0140 2.6062
" />
<path d="M3.0140 2.6062
L3.0745 2.4852
" />
<path d="M3.0745 2.4852
L3.1349 2.4247
" />
<path d="M3.1349 2.4247
L3.2559 2.3643
" />
<path d="M3.2559 2.3643
L3.5583 2.3643
" />
<path d="M3.5583 2.3643
L3.7397 2.4247
" />
<path d="M4.7678 3.5738
L4.6468 3.6343
" />
<path d="M4.6468 3.6343
L4.4049 3.6343
" />
<path d="M4.4049 3.6343
L4.2840 3.5738
" />
<path d="M4.2840 3.5738
L4.2235 3.4528
" />
<path d="M4.2235 3.4528
L4.2235 2.9690
" />
<path d="M4.2235 2.9690
L4.2840 2.8481
" />
<path d="M4.2840 2.8481
L4.4049 2.7876
" />
<path d="M4.4049 2.7876
L4.6468 2.7876
" />
<path d="M4.6468 2.7876
L4.7678 2.8481
" />
<path d="M4.7678 2.8481
L4.8283 2.9690
" />
<path d="M4.8283 2.9690
L4.8283 3.0900
" />
<path d="M4.8283 3.0900
L4.2235 3.2109
" />
<path d="M5.3726 3.6343
L5.3726 2.7876
" />
<path d="M5.3726 2.9086
L5.4330 2.8481
" />
<path d="M5.4330 2.8481
L5.5540 2.7876
" />
<path d="M5.5540 2.7876
L5.7354 2.7876
" />
<path d="M5.7354 2.7876
L5.8564 2.8481
" />
<path d="M5.8564 2.8481
L5.9168 2.9690
" />
<path d="M5.9168 2.9690
L5.9168 3.6343
" />
<path d="M5.9168 2.9690
L5.9773 2.8481
" />
<path d="M5.9773 2.8481
L6.0983 2.7876
" />
<path d="M6.0983 2.7876
L6.2797 2.7876
" />
<path d="M6.2797 2.7876
L6.4006 2.8481
" />
<path d="M6.4006 2.8481
L6.4611 2.9690
" />
<path d="M6.4611 2.9690
L6.4611 3.6343
" />
<path d="M7.0659 3.6343
L7.0659 2.7876
" />
<path d="M7.0659 2.3643
L7.0054 2.4247
" />
<path d="M7.0054 2.4247
L7.0659 2.4852
" />
<path d="M7.0659 2.4852
L7.1264 2.4247
" />
<path d="M7.1264 2.4247
L7.0659 2.3643
" />
<path d="M7.0659 2.3643
L7.0659 2.4852
" />
<path d="M7.3683 3.7552
L8.3359 3.7552
" />
<path d="M8.5778 3.5738
L8.7592 3.6343
" />
<path d="M8.7592 3.6343
L9.0616 3.6343
" />
<path d="M9.0616 3.6343
L9.1826 3.5738
" />
<path d="M9.1826 3.5738
L9.2430 3.5133
" />
<path d="M9.2430 3.5133
L9.3035 3.3924
" />
<path d="M9.3035 3.3924
L9.3035 3.2714
" />
<path d="M9.3035 3.2714
L9.2430 3.1505
" />
<path d="M9.2430 3.1505
L9.1826 3.0900
" />
<path d="M9.1826 3.0900
L9.0616 3.0295
" />
<path d="M9.0616 3.0295
L8.8197 2.9690
" />
<path d="M8.8197 2.9690
L8.6987 2.9086
" />
<path d="M8.6987 2.9086
L8.6383 2.8481
" />
<path d="M8.6383 2.8481
L8.5778 2.7271
" />
<path d="M8.5778 2.7271
L8.5778 2.6062
" />
<path d="M8.5778 2.6062
L8.6383 2.4852
" />
<path d="M8.6383 2.4852
L8.6987 2.4247
" />
<path d="M8.6987 2.4247
L8.8197 2.3643
" />
<path d="M8.8197 2.3643
L9.1221 2.3643
" />
<path d="M9.1221 2.3643
L9.3035 2.4247
" />
<path d="M10.0897 2.3643
L10.3316 2.3643
" />
<path d="M10.3316 2.3643
L10.4526 2.4247
" />
<path d="M10.4526 2.4247
L10.5735 2.5457
" />
<path d="M10.5735 2.5457
L10.6340 2.7876
" />
<path d="M10.6340 2.7876
L10.6340 3.2109
" />
<path d="M10.6340 3.2109
L10.5735 3.4528
" />
<path d="M10.5735 3.4528
L10.4526 3.5738
" />
<path d="M10.4526 3.5738
L10.3316 3.6343
" />
<path d="M10.3316 3.6343
L10.0897 3.6343
" />
<path d="M10.0897 3.6343
L9.9687 3.5738
" />
<path d="M9.9687 3.5738
L9.8478 3.4528
" />
<path d="M9.8478 3.4528
L9.7873 3.2109
" />
<path d="M9.7873 3.2109
L9.7873 2.7876
" />
<path d="M9.7873 2.7876
L9.8478 2.5457
" />
<path d="M9.8478 2.5457
L9.9687 2.4247
" />
<path d="M9.9687 2.4247
L10.0897 2.3643
" />
<path d="M11.1783 3.1505
L12.1459 3.1505
" />
<path d="M12.9321 2.9086
L12.8111 2.8481
" />
<path d="M12.8111 2.8481
L12.7506 2.7876
" />
<path d="M12.7506 2.7876
L12.6902 2.6667
" />
<path d="M12.6902 2.6667
L12.6902 2.6062
" />
<path d="M12.6902 2.6062
L12.7506 2.4852
" />
<path d="M12.7506 2.4852
L12.8111 2.4247
" />
<path d="M12.8111 2.4247
L12.9321 2.3643
" />
<path d="M12.9321 2.3643
L13.1740 2.3643
" />
<path d="M13.1740 2.3643
L13.2949 2.4247
" />
<path d="M13.2949 2.4247
L13.3554 2.4852
" />
<path d="M13.3554 2.4852
L13.4159 2.6062
" />
<path d="M13.4159 2.6062
L13.4159 2.6667
" />
<path d="M13.4159 2.6667
L13.3554 2.7876
" />
<path d="M13.3554 2.7876
L13.2949 2.8481
" />
<path d="M13.2949 2.8481
L13.1740 2.9086
" />
<path d="M13.1740 2.9086
L12.9321 2.9086
" />
<path d="M12.9321 2.9086
L12.8111 2.9690
" />
<path d="M12.8111 2.9690
L12.7506 3.0295
" />
<path d="M12.7506 3.0295
L12.6902 3.1505
" />
<path d="M12.6902 3.1505
L12.6902 3.3924
" />
<path d="M12.6902 3.3924
L12.7506 3.5133
" />
<path d="M12.7506 3.5133
L12.8111 3.5738
" />
<path d="M12.8111 3.5738
L12.9321 3.6343
" />
<path d="M12.9321 3.6343
L13.1740 3.6343
" />
<path d="M13.1740 3.6343
L13.2949 3.5738
" />
<path d="M13.2949 3.5738
L13.3554 3.5133
" />
<path d="M13.3554 3.5133
L13.4159 3.3924
" />
<path d="M13.4159 3.3924
L13.4159 3.1505
" />
<path d="M13.4159 3.1505
L13.3554 3.0295
" />
<path d="M13.3554 3.0295
L13.2949 2.9690
" />
<path d="M13.2949 2.9690
L13.1740 2.9086
" />
<path d="M14.3835 2.9690
L13.9602 2.9690
" />
<path d="M13.9602 3.6343
L13.9602 2.3643
" />
<path d="M13.9602 2.3643
L14.5649 2.3643
" />
<path d="M15.6535 3.6343
L15.0487 3.6343
" />
<path d="M15.0487 3.6343
L15.0487 2.3643
" />
<path d="M15.7745 3.7552
L16.7421 3.7552
" />
<path d="M17.5887 2.7876
L17.5887 3.6343
" />
<path d="M17.2864 2.3038
L16.9840 3.2109
" />
<path d="M16.9840 3.2109
L17.7702 3.2109
" />
<path d="M18.4354 2.9086
L18.3145 2.8481
" />
<path d="M18.3145 2.8481
L18.2540 2.7876
" />
<path d="M18.2540 2.7876
L18.1935 2.6667
" />
<path d="M18.1935 2.6667
L18.1935 2.6062
" />
<path d="M18.1935 2.6062
L18.2540 2.4852
" />
<path d="M18.2540 2.4852
L18.3145 2.4247
" />
<path d="M18.3145 2.4247
L18.4354 2.3643
" />
<path d="M18.4354 2.3643
L18.6773 2.3643
" />
<path d="M18.6773 2.3643
L18.7983 2.4247
" />
<path d="M18.7983 2.4247
L18.8587 2.4852
" />
<path d="M18.8587 2.4852
L18.9192 2.6062
" />
<path d="M18.9192 2.6062
L18.9192 2.6667
" />
<path d="M18.9192 2.6667
L18.8587 2.7876
" />
<path d="M18.8587 2.7876
L18.7983 2.8481
" />
<path d="M18.7983 2.8481
L18.6773 2.9086
" />
<path d="M18.6773 2.9086
L18.4354 2.9086
" />
<path d="M18.4354 2.9086
L18.3145 2.9690
" />
<path d="M18.3145 2.9690
L18.2540 3.0295
" />
<path d="M18.2540 3.0295
L18.1935 3.1505
" />
<path d="M18.1935 3.1505
L18.1935 3.3924
" />
<path d="M18.1935 3.3924
L18.2540 3.5133
" />
<path d="M18.2540 3.5133
L18.3145 3.5738
" />
<path d="M18.3145 3.5738
L18.4354 3.6343
" />
<path d="M18.4354 3.6343
L18.6773 3.6343
" />
<path d="M18.6773 3.6343
L18.7983 3.5738
" />
<path d="M18.7983 3.5738
L18.8587 3.5133
" />
<path d="M18.8587 3.5133
L18.9192 3.3924
" />
<path d="M18.9192 3.3924
L18.9192 3.1505
" />
<path d="M18.9192 3.1505
L18.8587 3.0295
" />
<path d="M18.8587 3.0295
L18.7983 2.9690
" />
<path d="M18.7983 2.9690
L18.6773 2.9086
" />
<path d="M19.6449 2.9086
L19.5240 2.8481
" />
<path d="M19.5240 2.8481
L19.4635 2.7876
" />
<path d="M19.4635 2.7876
L19.4030 2.6667
" />
<path d="M19.4030 2.6667
L19.4030 2.6062
" />
<path d="M19.4030 2.6062
L19.4635 2.4852
" />
<path d="M19.4635 2.4852
L19.5240 2.4247
" />
<path d="M19.5240 2.4247
L19.6449 2.3643
" />
<path d="M19.6449 2.3643
L19.8868 2.3643
" />
<path d="M19.8868 2.3643
L20.0078 2.4247
" />
<path d="M20.0078 2.4247
L20.0683 2.4852
" />
<path d="M20.0683 2.4852
L20.1287 2.6062
" />
<path d="M20.1287 2.6062
L20.1287 2.6667
" />
<path d="M20.1287 2.6667
L20.0683 2.7876
" />
<path d="M20.0683 2.7876
L20.0078 2.8481
" />
<path d="M20.0078 2.8481
L19.8868 2.9086
" />
<path d="M19.8868 2.9086
L19.6449 2.9086
" />
<path d="M19.6449 2.9086
L19.5240 2.9690
" />
<path d="M19.5240 2.9690
L19.4635 3.0295
" />
<path d="M19.4635 3.0295
L19.4030 3.1505
" />
<path d="M19.4030 3.1505
L19.4030 3.3924
" />
<path d="M19.4030 3.3924
L19.4635 3.5133
" />
<path d="M19.4635 3.5133
L19.5240 3.5738
" />
<path d="M19.5240 3.5738
L19.6449 3.6343
" />
<path d="M19.6449 3.6343
L19.8868 3.6343
" />
<path d="M19.8868 3.6343
L20.0078 3.5738
" />
<path d="M20.0078 3.5738
L20.0683 3.5133
" />
<path d="M20.0683 3.5133
L20.1287 3.3924
" />
<path d="M20.1287 3.3924
L20.1287 3.1505
" />
<path d="M20.1287 3.1505
L20.0683 3.0295
" />
<path d="M20.0683 3.0295
L20.0078 2.9690
" />
<path d="M20.0078 2.9690
L19.8868 2.9086
" />
<path d="M20.6126 3.2714
L21.2173 3.2714
" />
<path d="M20.4916 3.6343
L20.9149 2.3643
" />
<path d="M20.9149 2.3643
L21.3383 3.6343
" />
<path d="M21.7011 3.2714
L22.3059 3.2714
" />
<path d="M21.5802 3.6343
L22.0035 2.3643
" />
<path d="M22.0035 2.3643
L22.4268 3.6343
" />
</g></g>
<g style="fill:none; 
stroke:#AFAFAF; stroke-width:0.1500; stroke-opacity:1; 
stroke-linecap:round; stroke-linejoin:round;">
<text x="11.3772" y="3.5550"
textLength="4.5357" font-size="1.3333" lengthAdjust="spacingAndGlyphs"
text-anchor="middle" opacity="0">REF**</text>
<g class="stroked-text"><desc>REF**</desc>
<path d="M10.0439 3.5098
L9.7105 3.0336
" />
<path d="M9.4724 3.5098
L9.4724 2.5098
" />
<path d="M9.4724 2.5098
L9.8534 2.5098
" />
<path d="M9.8534 2.5098
L9.9486 2.5574
" />
<path d="M9.9486 2.5574
L9.9963 2.6051
" />
<path d="M9.9963 2.6051
L10.0439 2.7003
" />
<path d="M10.0439 2.7003
L10.0439 2.8432
" />
<path d="M10.0439 2.8432
L9.9963 2.9384
" />
<path d="M9.9963 2.9384
L9.9486 2.9860
" />
<path d="M9.9486 2.9860
L9.8534 3.0336
" />
<path d="M9.8534 3.0336
L9.4724 3.0336
" />
<path d="M10.4724 2.9860
L10.8058 2.9860
" />
<path d="M10.9486 3.5098
L10.4724 3.5098
" />
<path d="M10.4724 3.5098
L10.4724 2.5098
" />
<path d="M10.4724 2.5098
L10.9486 2.5098
" />
<path d="M11.7105 2.9860
L11.3772 2.9860
" />
<path d="M11.3772 3.5098
L11.3772 2.5098
" />
<path d="M11.3772 2.5098
L11.8534 2.5098
" />
<path d="M12.3772 2.5098
L12.3772 2.7479
" />
<path d="M12.1391 2.6527
L12.3772 2.7479
" />
<path d="M12.3772 2.7479
L12.6153 2.6527
" />
<path d="M12.2343 2.9384
L12.3772 2.7479
" />
<path d="M12.3772 2.7479
L12.5201 2.9384
" />
<path d="M13.1391 2.5098
L13.1391 2.7479
" />
<path d="M12.9010 2.6527
L13.1391 2.7479
" />
<path d="M13.1391 2.7479
L13.3772 2.6527
" />
<path d="M12.9963 2.9384
L13.1391 2.7479
" />
<path d="M13.1391 2.7479
L13.2820 2.9384
" />
</g></g>
<g style="fill:none; 
stroke:#AFAFAF; stroke-width:0.1000; stroke-opacity:1; 
stroke-linecap:round; stroke-linejoin:round;">
<path d="M8.4272 1.7800
L8.4272 5.5050
" />
<path d="M9.6022 0.6050
L8.4272 1.7800
" />
<path d="M14.3272 0.6050
L9.6022 0.6050
" />
<path d="M14.3272 0.6050
L14.3272 5.5050
" />
<path d="M14.3272 5.5050
L8.4272 5.5050
" />
</g> 
</svg>
