<?xml version="1.0" standalone="no"?>
 <!DOCTYPE svg PUBLIC "-//W3C//DTD SVG 1.1//EN" 
 "http://www.w3.org/Graphics/SVG/1.1/DTD/svg11.dtd"> 
<svg
  xmlns:svg="http://www.w3.org/2000/svg"
  xmlns="http://www.w3.org/2000/svg"
  xmlns:xlink="http://www.w3.org/1999/xlink"
  version="1.1"
  width="39.7002mm" height="8.0010mm" viewBox="0.0000 0.0000 39.7002 8.0010">
<title>SVG Image created as working-brd.svg date 2024/04/06 13:39:50 </title>
  <desc>Image generated by PCBNEW </desc>
<g style="fill:#000000; fill-opacity:1.0000;stroke:#000000; stroke-opacity:1.0000;
stroke-linecap:round; stroke-linejoin:round;"
 transform="translate(0 0) scale(1 1)">
</g>
<g style="fill:#FFFFFF; fill-opacity:1.0000; stroke:none;">
<circle cx="19.8566" cy="4.5682" r="0.8000" /> 
</g>
<g style="fill:#FFFFFF; fill-opacity:1.0000; stroke:none;">
<circle cx="24.9366" cy="4.5682" r="0.8000" /> 
<path style="fill:#02FFEE; fill-opacity:0.4000; stroke:none;fill-rule:evenodd;"
d="M 18.2566,6.1682
18.2566,2.9682
21.4566,2.9682
21.4566,6.1682
Z" /> 
</g>
<g style="fill:#02FFEE; fill-opacity:0.4000; stroke:none;">
<circle cx="24.9366" cy="4.5682" r="1.6000" /> 
</g>
<g style="fill:#FFFFFF; fill-opacity:1.0000; stroke:none;">
<circle cx="19.8566" cy="4.5682" r="0.8000" /> 
</g>
<g style="fill:#FFFFFF; fill-opacity:1.0000; stroke:none;">
<circle cx="24.9366" cy="4.5682" r="0.8000" /> 
</g>
<g style="fill:#FFFFFF; fill-opacity:1.0000; stroke:none;">
<circle cx="19.8566" cy="4.5682" r="0.8000" /> 
</g>
<g style="fill:#FFFFFF; fill-opacity:1.0000; stroke:none;">
<circle cx="24.9366" cy="4.5682" r="0.8000" /> 
<path style="fill:#D864FF; fill-opacity:0.4000; stroke:none;fill-rule:evenodd;"
d="M 18.2566,6.1682
18.2566,2.9682
21.4566,2.9682
21.4566,6.1682
Z" /> 
</g>
<g style="fill:#D864FF; fill-opacity:0.4000; stroke:none;">
<circle cx="24.9366" cy="4.5682" r="1.6000" /> 
</g>
<g style="fill:none; 
stroke:#F2EDA1; stroke-width:0.1588; stroke-opacity:1; 
stroke-linecap:round; stroke-linejoin:round;">
<text x="19.8566" y="5.2032"
textLength="5.6651" font-size="1.6933" lengthAdjust="spacingAndGlyphs"
text-anchor="middle" opacity="0">REF**</text>
<g class="stroked-text"><desc>REF**</desc>
<path d="M18.1633 5.1475
L17.7399 4.5428
" />
<path d="M17.4376 5.1475
L17.4376 3.8775
" />
<path d="M17.4376 3.8775
L17.9214 3.8775
" />
<path d="M17.9214 3.8775
L18.0423 3.9380
" />
<path d="M18.0423 3.9380
L18.1028 3.9985
" />
<path d="M18.1028 3.9985
L18.1633 4.1194
" />
<path d="M18.1633 4.1194
L18.1633 4.3009
" />
<path d="M18.1633 4.3009
L18.1028 4.4218
" />
<path d="M18.1028 4.4218
L18.0423 4.4823
" />
<path d="M18.0423 4.4823
L17.9214 4.5428
" />
<path d="M17.9214 4.5428
L17.4376 4.5428
" />
<path d="M18.7076 4.4823
L19.1309 4.4823
" />
<path d="M19.3123 5.1475
L18.7076 5.1475
" />
<path d="M18.7076 5.1475
L18.7076 3.8775
" />
<path d="M18.7076 3.8775
L19.3123 3.8775
" />
<path d="M20.2799 4.4823
L19.8566 4.4823
" />
<path d="M19.8566 5.1475
L19.8566 3.8775
" />
<path d="M19.8566 3.8775
L20.4614 3.8775
" />
<path d="M21.1266 3.8775
L21.1266 4.1799
" />
<path d="M20.8242 4.0589
L21.1266 4.1799
" />
<path d="M21.1266 4.1799
L21.4290 4.0589
" />
<path d="M20.9452 4.4218
L21.1266 4.1799
" />
<path d="M21.1266 4.1799
L21.3080 4.4218
" />
<path d="M22.0942 3.8775
L22.0942 4.1799
" />
<path d="M21.7918 4.0589
L22.0942 4.1799
" />
<path d="M22.0942 4.1799
L22.3966 4.0589
" />
<path d="M21.9128 4.4218
L22.0942 4.1799
" />
<path d="M22.0942 4.1799
L22.2756 4.4218
" />
</g></g>
<g style="fill:none; 
stroke:#F2EDA1; stroke-width:0.1500; stroke-opacity:1; 
stroke-linecap:round; stroke-linejoin:round;">
<text x="24.9366" y="7.6682"
textLength="1.1071" font-size="1.3333" lengthAdjust="spacingAndGlyphs"
text-anchor="middle" opacity="0">A</text>
<g class="stroked-text"><desc>A</desc>
<path d="M24.6985 7.3374
L25.1747 7.3374
" />
<path d="M24.6033 7.6231
L24.9366 6.6231
" />
<path d="M24.9366 6.6231
L25.2699 7.6231
" />
</g></g>
<g style="fill:none; 
stroke:#F2EDA1; stroke-width:0.1200; stroke-opacity:1; 
stroke-linecap:round; stroke-linejoin:round;">
<path d="M22.5766 4.5682
L23.0366 4.5682
" />
<circle cx="19.8566" cy="4.5682" r="2.7200" /> 
</g>
<g style="fill:#FFFFFF; fill-opacity:1.0000; stroke:none;">
<circle cx="19.8566" cy="4.5682" r="0.8000" /> 
</g>
<g style="fill:#FFFFFF; fill-opacity:1.0000; stroke:none;">
<circle cx="24.9366" cy="4.5682" r="0.8000" /> 
</g>
<g style="fill:none; 
stroke:#FF26E2; stroke-width:0.0500; stroke-opacity:1; 
stroke-linecap:round; stroke-linejoin:round;">
<path d="M17.0066 1.7182
L17.0066 7.4182
" />
<path d="M17.0066 7.4182
L26.7866 7.4182
" />
<path d="M26.7866 1.7182
L17.0066 1.7182
" />
<path d="M26.7866 7.4182
L26.7866 1.7182
" />
</g>
<g style="fill:none; 
stroke:#AFAFAF; stroke-width:0.1588; stroke-opacity:1; 
stroke-linecap:round; stroke-linejoin:round;">
<text x="19.8566" y="5.2032"
textLength="39.7132" font-size="1.6933" lengthAdjust="spacingAndGlyphs"
text-anchor="middle" opacity="0">D_DO-201AD_P5.08mm_Vertical_AnodeUp</text>
<g class="stroked-text"><desc>D_DO-201AD_P5.08mm_Vertical_AnodeUp</desc>
<path d="M0.4135 5.1475
L0.4135 3.8775
" />
<path d="M0.4135 3.8775
L0.7159 3.8775
" />
<path d="M0.7159 3.8775
L0.8973 3.9380
" />
<path d="M0.8973 3.9380
L1.0183 4.0589
" />
<path d="M1.0183 4.0589
L1.0787 4.1799
" />
<path d="M1.0787 4.1799
L1.1392 4.4218
" />
<path d="M1.1392 4.4218
L1.1392 4.6032
" />
<path d="M1.1392 4.6032
L1.0787 4.8451
" />
<path d="M1.0787 4.8451
L1.0183 4.9661
" />
<path d="M1.0183 4.9661
L0.8973 5.0870
" />
<path d="M0.8973 5.0870
L0.7159 5.1475
" />
<path d="M0.7159 5.1475
L0.4135 5.1475
" />
<path d="M1.3811 5.2685
L2.3487 5.2685
" />
<path d="M2.6511 5.1475
L2.6511 3.8775
" />
<path d="M2.6511 3.8775
L2.9535 3.8775
" />
<path d="M2.9535 3.8775
L3.1349 3.9380
" />
<path d="M3.1349 3.9380
L3.2559 4.0589
" />
<path d="M3.2559 4.0589
L3.3164 4.1799
" />
<path d="M3.3164 4.1799
L3.3768 4.4218
" />
<path d="M3.3768 4.4218
L3.3768 4.6032
" />
<path d="M3.3768 4.6032
L3.3164 4.8451
" />
<path d="M3.3164 4.8451
L3.2559 4.9661
" />
<path d="M3.2559 4.9661
L3.1349 5.0870
" />
<path d="M3.1349 5.0870
L2.9535 5.1475
" />
<path d="M2.9535 5.1475
L2.6511 5.1475
" />
<path d="M4.1630 3.8775
L4.4049 3.8775
" />
<path d="M4.4049 3.8775
L4.5259 3.9380
" />
<path d="M4.5259 3.9380
L4.6468 4.0589
" />
<path d="M4.6468 4.0589
L4.7073 4.3009
" />
<path d="M4.7073 4.3009
L4.7073 4.7242
" />
<path d="M4.7073 4.7242
L4.6468 4.9661
" />
<path d="M4.6468 4.9661
L4.5259 5.0870
" />
<path d="M4.5259 5.0870
L4.4049 5.1475
" />
<path d="M4.4049 5.1475
L4.1630 5.1475
" />
<path d="M4.1630 5.1475
L4.0421 5.0870
" />
<path d="M4.0421 5.0870
L3.9211 4.9661
" />
<path d="M3.9211 4.9661
L3.8606 4.7242
" />
<path d="M3.8606 4.7242
L3.8606 4.3009
" />
<path d="M3.8606 4.3009
L3.9211 4.0589
" />
<path d="M3.9211 4.0589
L4.0421 3.9380
" />
<path d="M4.0421 3.9380
L4.1630 3.8775
" />
<path d="M5.2516 4.6637
L6.2192 4.6637
" />
<path d="M6.7635 3.9985
L6.8240 3.9380
" />
<path d="M6.8240 3.9380
L6.9449 3.8775
" />
<path d="M6.9449 3.8775
L7.2473 3.8775
" />
<path d="M7.2473 3.8775
L7.3683 3.9380
" />
<path d="M7.3683 3.9380
L7.4287 3.9985
" />
<path d="M7.4287 3.9985
L7.4892 4.1194
" />
<path d="M7.4892 4.1194
L7.4892 4.2404
" />
<path d="M7.4892 4.2404
L7.4287 4.4218
" />
<path d="M7.4287 4.4218
L6.7030 5.1475
" />
<path d="M6.7030 5.1475
L7.4892 5.1475
" />
<path d="M8.2754 3.8775
L8.3964 3.8775
" />
<path d="M8.3964 3.8775
L8.5173 3.9380
" />
<path d="M8.5173 3.9380
L8.5778 3.9985
" />
<path d="M8.5778 3.9985
L8.6383 4.1194
" />
<path d="M8.6383 4.1194
L8.6987 4.3613
" />
<path d="M8.6987 4.3613
L8.6987 4.6637
" />
<path d="M8.6987 4.6637
L8.6383 4.9056
" />
<path d="M8.6383 4.9056
L8.5778 5.0266
" />
<path d="M8.5778 5.0266
L8.5173 5.0870
" />
<path d="M8.5173 5.0870
L8.3964 5.1475
" />
<path d="M8.3964 5.1475
L8.2754 5.1475
" />
<path d="M8.2754 5.1475
L8.1545 5.0870
" />
<path d="M8.1545 5.0870
L8.0940 5.0266
" />
<path d="M8.0940 5.0266
L8.0335 4.9056
" />
<path d="M8.0335 4.9056
L7.9730 4.6637
" />
<path d="M7.9730 4.6637
L7.9730 4.3613
" />
<path d="M7.9730 4.3613
L8.0335 4.1194
" />
<path d="M8.0335 4.1194
L8.0940 3.9985
" />
<path d="M8.0940 3.9985
L8.1545 3.9380
" />
<path d="M8.1545 3.9380
L8.2754 3.8775
" />
<path d="M9.9083 5.1475
L9.1826 5.1475
" />
<path d="M9.5454 5.1475
L9.5454 3.8775
" />
<path d="M9.5454 3.8775
L9.4245 4.0589
" />
<path d="M9.4245 4.0589
L9.3035 4.1799
" />
<path d="M9.3035 4.1799
L9.1826 4.2404
" />
<path d="M10.3921 4.7847
L10.9968 4.7847
" />
<path d="M10.2711 5.1475
L10.6945 3.8775
" />
<path d="M10.6945 3.8775
L11.1178 5.1475
" />
<path d="M11.5411 5.1475
L11.5411 3.8775
" />
<path d="M11.5411 3.8775
L11.8435 3.8775
" />
<path d="M11.8435 3.8775
L12.0249 3.9380
" />
<path d="M12.0249 3.9380
L12.1459 4.0589
" />
<path d="M12.1459 4.0589
L12.2064 4.1799
" />
<path d="M12.2064 4.1799
L12.2668 4.4218
" />
<path d="M12.2668 4.4218
L12.2668 4.6032
" />
<path d="M12.2668 4.6032
L12.2064 4.8451
" />
<path d="M12.2064 4.8451
L12.1459 4.9661
" />
<path d="M12.1459 4.9661
L12.0249 5.0870
" />
<path d="M12.0249 5.0870
L11.8435 5.1475
" />
<path d="M11.8435 5.1475
L11.5411 5.1475
" />
<path d="M12.5087 5.2685
L13.4764 5.2685
" />
<path d="M13.7787 5.1475
L13.7787 3.8775
" />
<path d="M13.7787 3.8775
L14.2626 3.8775
" />
<path d="M14.2626 3.8775
L14.3835 3.9380
" />
<path d="M14.3835 3.9380
L14.4440 3.9985
" />
<path d="M14.4440 3.9985
L14.5045 4.1194
" />
<path d="M14.5045 4.1194
L14.5045 4.3009
" />
<path d="M14.5045 4.3009
L14.4440 4.4218
" />
<path d="M14.4440 4.4218
L14.3835 4.4823
" />
<path d="M14.3835 4.4823
L14.2626 4.5428
" />
<path d="M14.2626 4.5428
L13.7787 4.5428
" />
<path d="M15.6535 3.8775
L15.0487 3.8775
" />
<path d="M15.0487 3.8775
L14.9883 4.4823
" />
<path d="M14.9883 4.4823
L15.0487 4.4218
" />
<path d="M15.0487 4.4218
L15.1697 4.3613
" />
<path d="M15.1697 4.3613
L15.4721 4.3613
" />
<path d="M15.4721 4.3613
L15.5930 4.4218
" />
<path d="M15.5930 4.4218
L15.6535 4.4823
" />
<path d="M15.6535 4.4823
L15.7140 4.6032
" />
<path d="M15.7140 4.6032
L15.7140 4.9056
" />
<path d="M15.7140 4.9056
L15.6535 5.0266
" />
<path d="M15.6535 5.0266
L15.5930 5.0870
" />
<path d="M15.5930 5.0870
L15.4721 5.1475
" />
<path d="M15.4721 5.1475
L15.1697 5.1475
" />
<path d="M15.1697 5.1475
L15.0487 5.0870
" />
<path d="M15.0487 5.0870
L14.9883 5.0266
" />
<path d="M16.2583 5.0266
L16.3187 5.0870
" />
<path d="M16.3187 5.0870
L16.2583 5.1475
" />
<path d="M16.2583 5.1475
L16.1978 5.0870
" />
<path d="M16.1978 5.0870
L16.2583 5.0266
" />
<path d="M16.2583 5.0266
L16.2583 5.1475
" />
<path d="M17.1049 3.8775
L17.2259 3.8775
" />
<path d="M17.2259 3.8775
L17.3468 3.9380
" />
<path d="M17.3468 3.9380
L17.4073 3.9985
" />
<path d="M17.4073 3.9985
L17.4678 4.1194
" />
<path d="M17.4678 4.1194
L17.5283 4.3613
" />
<path d="M17.5283 4.3613
L17.5283 4.6637
" />
<path d="M17.5283 4.6637
L17.4678 4.9056
" />
<path d="M17.4678 4.9056
L17.4073 5.0266
" />
<path d="M17.4073 5.0266
L17.3468 5.0870
" />
<path d="M17.3468 5.0870
L17.2259 5.1475
" />
<path d="M17.2259 5.1475
L17.1049 5.1475
" />
<path d="M17.1049 5.1475
L16.9840 5.0870
" />
<path d="M16.9840 5.0870
L16.9235 5.0266
" />
<path d="M16.9235 5.0266
L16.8630 4.9056
" />
<path d="M16.8630 4.9056
L16.8026 4.6637
" />
<path d="M16.8026 4.6637
L16.8026 4.3613
" />
<path d="M16.8026 4.3613
L16.8630 4.1194
" />
<path d="M16.8630 4.1194
L16.9235 3.9985
" />
<path d="M16.9235 3.9985
L16.9840 3.9380
" />
<path d="M16.9840 3.9380
L17.1049 3.8775
" />
<path d="M18.2540 4.4218
L18.1330 4.3613
" />
<path d="M18.1330 4.3613
L18.0726 4.3009
" />
<path d="M18.0726 4.3009
L18.0121 4.1799
" />
<path d="M18.0121 4.1799
L18.0121 4.1194
" />
<path d="M18.0121 4.1194
L18.0726 3.9985
" />
<path d="M18.0726 3.9985
L18.1330 3.9380
" />
<path d="M18.1330 3.9380
L18.2540 3.8775
" />
<path d="M18.2540 3.8775
L18.4959 3.8775
" />
<path d="M18.4959 3.8775
L18.6168 3.9380
" />
<path d="M18.6168 3.9380
L18.6773 3.9985
" />
<path d="M18.6773 3.9985
L18.7378 4.1194
" />
<path d="M18.7378 4.1194
L18.7378 4.1799
" />
<path d="M18.7378 4.1799
L18.6773 4.3009
" />
<path d="M18.6773 4.3009
L18.6168 4.3613
" />
<path d="M18.6168 4.3613
L18.4959 4.4218
" />
<path d="M18.4959 4.4218
L18.2540 4.4218
" />
<path d="M18.2540 4.4218
L18.1330 4.4823
" />
<path d="M18.1330 4.4823
L18.0726 4.5428
" />
<path d="M18.0726 4.5428
L18.0121 4.6637
" />
<path d="M18.0121 4.6637
L18.0121 4.9056
" />
<path d="M18.0121 4.9056
L18.0726 5.0266
" />
<path d="M18.0726 5.0266
L18.1330 5.0870
" />
<path d="M18.1330 5.0870
L18.2540 5.1475
" />
<path d="M18.2540 5.1475
L18.4959 5.1475
" />
<path d="M18.4959 5.1475
L18.6168 5.0870
" />
<path d="M18.6168 5.0870
L18.6773 5.0266
" />
<path d="M18.6773 5.0266
L18.7378 4.9056
" />
<path d="M18.7378 4.9056
L18.7378 4.6637
" />
<path d="M18.7378 4.6637
L18.6773 4.5428
" />
<path d="M18.6773 4.5428
L18.6168 4.4823
" />
<path d="M18.6168 4.4823
L18.4959 4.4218
" />
<path d="M19.2821 5.1475
L19.2821 4.3009
" />
<path d="M19.2821 4.4218
L19.3426 4.3613
" />
<path d="M19.3426 4.3613
L19.4635 4.3009
" />
<path d="M19.4635 4.3009
L19.6449 4.3009
" />
<path d="M19.6449 4.3009
L19.7659 4.3613
" />
<path d="M19.7659 4.3613
L19.8264 4.4823
" />
<path d="M19.8264 4.4823
L19.8264 5.1475
" />
<path d="M19.8264 4.4823
L19.8868 4.3613
" />
<path d="M19.8868 4.3613
L20.0078 4.3009
" />
<path d="M20.0078 4.3009
L20.1892 4.3009
" />
<path d="M20.1892 4.3009
L20.3102 4.3613
" />
<path d="M20.3102 4.3613
L20.3706 4.4823
" />
<path d="M20.3706 4.4823
L20.3706 5.1475
" />
<path d="M20.9754 5.1475
L20.9754 4.3009
" />
<path d="M20.9754 4.4218
L21.0359 4.3613
" />
<path d="M21.0359 4.3613
L21.1568 4.3009
" />
<path d="M21.1568 4.3009
L21.3383 4.3009
" />
<path d="M21.3383 4.3009
L21.4592 4.3613
" />
<path d="M21.4592 4.3613
L21.5197 4.4823
" />
<path d="M21.5197 4.4823
L21.5197 5.1475
" />
<path d="M21.5197 4.4823
L21.5802 4.3613
" />
<path d="M21.5802 4.3613
L21.7011 4.3009
" />
<path d="M21.7011 4.3009
L21.8826 4.3009
" />
<path d="M21.8826 4.3009
L22.0035 4.3613
" />
<path d="M22.0035 4.3613
L22.0640 4.4823
" />
<path d="M22.0640 4.4823
L22.0640 5.1475
" />
<path d="M22.3664 5.2685
L23.3340 5.2685
" />
<path d="M23.4549 3.8775
L23.8783 5.1475
" />
<path d="M23.8783 5.1475
L24.3016 3.8775
" />
<path d="M25.2087 5.0870
L25.0878 5.1475
" />
<path d="M25.0878 5.1475
L24.8459 5.1475
" />
<path d="M24.8459 5.1475
L24.7249 5.0870
" />
<path d="M24.7249 5.0870
L24.6645 4.9661
" />
<path d="M24.6645 4.9661
L24.6645 4.4823
" />
<path d="M24.6645 4.4823
L24.7249 4.3613
" />
<path d="M24.7249 4.3613
L24.8459 4.3009
" />
<path d="M24.8459 4.3009
L25.0878 4.3009
" />
<path d="M25.0878 4.3009
L25.2087 4.3613
" />
<path d="M25.2087 4.3613
L25.2692 4.4823
" />
<path d="M25.2692 4.4823
L25.2692 4.6032
" />
<path d="M25.2692 4.6032
L24.6645 4.7242
" />
<path d="M25.8135 5.1475
L25.8135 4.3009
" />
<path d="M25.8135 4.5428
L25.8740 4.4218
" />
<path d="M25.8740 4.4218
L25.9345 4.3613
" />
<path d="M25.9345 4.3613
L26.0554 4.3009
" />
<path d="M26.0554 4.3009
L26.1764 4.3009
" />
<path d="M26.4183 4.3009
L26.9021 4.3009
" />
<path d="M26.5997 3.8775
L26.5997 4.9661
" />
<path d="M26.5997 4.9661
L26.6602 5.0870
" />
<path d="M26.6602 5.0870
L26.7811 5.1475
" />
<path d="M26.7811 5.1475
L26.9021 5.1475
" />
<path d="M27.3254 5.1475
L27.3254 4.3009
" />
<path d="M27.3254 3.8775
L27.2649 3.9380
" />
<path d="M27.2649 3.9380
L27.3254 3.9985
" />
<path d="M27.3254 3.9985
L27.3859 3.9380
" />
<path d="M27.3859 3.9380
L27.3254 3.8775
" />
<path d="M27.3254 3.8775
L27.3254 3.9985
" />
<path d="M28.4745 5.0870
L28.3535 5.1475
" />
<path d="M28.3535 5.1475
L28.1116 5.1475
" />
<path d="M28.1116 5.1475
L27.9906 5.0870
" />
<path d="M27.9906 5.0870
L27.9302 5.0266
" />
<path d="M27.9302 5.0266
L27.8697 4.9056
" />
<path d="M27.8697 4.9056
L27.8697 4.5428
" />
<path d="M27.8697 4.5428
L27.9302 4.4218
" />
<path d="M27.9302 4.4218
L27.9906 4.3613
" />
<path d="M27.9906 4.3613
L28.1116 4.3009
" />
<path d="M28.1116 4.3009
L28.3535 4.3009
" />
<path d="M28.3535 4.3009
L28.4745 4.3613
" />
<path d="M29.5630 5.1475
L29.5630 4.4823
" />
<path d="M29.5630 4.4823
L29.5026 4.3613
" />
<path d="M29.5026 4.3613
L29.3816 4.3009
" />
<path d="M29.3816 4.3009
L29.1397 4.3009
" />
<path d="M29.1397 4.3009
L29.0187 4.3613
" />
<path d="M29.5630 5.0870
L29.4421 5.1475
" />
<path d="M29.4421 5.1475
L29.1397 5.1475
" />
<path d="M29.1397 5.1475
L29.0187 5.0870
" />
<path d="M29.0187 5.0870
L28.9583 4.9661
" />
<path d="M28.9583 4.9661
L28.9583 4.8451
" />
<path d="M28.9583 4.8451
L29.0187 4.7242
" />
<path d="M29.0187 4.7242
L29.1397 4.6637
" />
<path d="M29.1397 4.6637
L29.4421 4.6637
" />
<path d="M29.4421 4.6637
L29.5630 4.6032
" />
<path d="M30.3492 5.1475
L30.2283 5.0870
" />
<path d="M30.2283 5.0870
L30.1678 4.9661
" />
<path d="M30.1678 4.9661
L30.1678 3.8775
" />
<path d="M30.5306 5.2685
L31.4983 5.2685
" />
<path d="M31.7402 4.7847
L32.3449 4.7847
" />
<path d="M31.6192 5.1475
L32.0426 3.8775
" />
<path d="M32.0426 3.8775
L32.4659 5.1475
" />
<path d="M32.8892 4.3009
L32.8892 5.1475
" />
<path d="M32.8892 4.4218
L32.9497 4.3613
" />
<path d="M32.9497 4.3613
L33.0706 4.3009
" />
<path d="M33.0706 4.3009
L33.2521 4.3009
" />
<path d="M33.2521 4.3009
L33.3730 4.3613
" />
<path d="M33.3730 4.3613
L33.4335 4.4823
" />
<path d="M33.4335 4.4823
L33.4335 5.1475
" />
<path d="M34.2197 5.1475
L34.0987 5.0870
" />
<path d="M34.0987 5.0870
L34.0383 5.0266
" />
<path d="M34.0383 5.0266
L33.9778 4.9056
" />
<path d="M33.9778 4.9056
L33.9778 4.5428
" />
<path d="M33.9778 4.5428
L34.0383 4.4218
" />
<path d="M34.0383 4.4218
L34.0987 4.3613
" />
<path d="M34.0987 4.3613
L34.2197 4.3009
" />
<path d="M34.2197 4.3009
L34.4011 4.3009
" />
<path d="M34.4011 4.3009
L34.5221 4.3613
" />
<path d="M34.5221 4.3613
L34.5826 4.4218
" />
<path d="M34.5826 4.4218
L34.6430 4.5428
" />
<path d="M34.6430 4.5428
L34.6430 4.9056
" />
<path d="M34.6430 4.9056
L34.5826 5.0266
" />
<path d="M34.5826 5.0266
L34.5221 5.0870
" />
<path d="M34.5221 5.0870
L34.4011 5.1475
" />
<path d="M34.4011 5.1475
L34.2197 5.1475
" />
<path d="M35.7316 5.1475
L35.7316 3.8775
" />
<path d="M35.7316 5.0870
L35.6106 5.1475
" />
<path d="M35.6106 5.1475
L35.3687 5.1475
" />
<path d="M35.3687 5.1475
L35.2478 5.0870
" />
<path d="M35.2478 5.0870
L35.1873 5.0266
" />
<path d="M35.1873 5.0266
L35.1268 4.9056
" />
<path d="M35.1268 4.9056
L35.1268 4.5428
" />
<path d="M35.1268 4.5428
L35.1873 4.4218
" />
<path d="M35.1873 4.4218
L35.2478 4.3613
" />
<path d="M35.2478 4.3613
L35.3687 4.3009
" />
<path d="M35.3687 4.3009
L35.6106 4.3009
" />
<path d="M35.6106 4.3009
L35.7316 4.3613
" />
<path d="M36.8202 5.0870
L36.6992 5.1475
" />
<path d="M36.6992 5.1475
L36.4573 5.1475
" />
<path d="M36.4573 5.1475
L36.3364 5.0870
" />
<path d="M36.3364 5.0870
L36.2759 4.9661
" />
<path d="M36.2759 4.9661
L36.2759 4.4823
" />
<path d="M36.2759 4.4823
L36.3364 4.3613
" />
<path d="M36.3364 4.3613
L36.4573 4.3009
" />
<path d="M36.4573 4.3009
L36.6992 4.3009
" />
<path d="M36.6992 4.3009
L36.8202 4.3613
" />
<path d="M36.8202 4.3613
L36.8806 4.4823
" />
<path d="M36.8806 4.4823
L36.8806 4.6032
" />
<path d="M36.8806 4.6032
L36.2759 4.7242
" />
<path d="M37.4249 3.8775
L37.4249 4.9056
" />
<path d="M37.4249 4.9056
L37.4854 5.0266
" />
<path d="M37.4854 5.0266
L37.5459 5.0870
" />
<path d="M37.5459 5.0870
L37.6668 5.1475
" />
<path d="M37.6668 5.1475
L37.9087 5.1475
" />
<path d="M37.9087 5.1475
L38.0297 5.0870
" />
<path d="M38.0297 5.0870
L38.0902 5.0266
" />
<path d="M38.0902 5.0266
L38.1506 4.9056
" />
<path d="M38.1506 4.9056
L38.1506 3.8775
" />
<path d="M38.7554 4.3009
L38.7554 5.5709
" />
<path d="M38.7554 4.3613
L38.8764 4.3009
" />
<path d="M38.8764 4.3009
L39.1183 4.3009
" />
<path d="M39.1183 4.3009
L39.2392 4.3613
" />
<path d="M39.2392 4.3613
L39.2997 4.4218
" />
<path d="M39.2997 4.4218
L39.3602 4.5428
" />
<path d="M39.3602 4.5428
L39.3602 4.9056
" />
<path d="M39.3602 4.9056
L39.2997 5.0266
" />
<path d="M39.2997 5.0266
L39.2392 5.0870
" />
<path d="M39.2392 5.0870
L39.1183 5.1475
" />
<path d="M39.1183 5.1475
L38.8764 5.1475
" />
<path d="M38.8764 5.1475
L38.7554 5.0870
" />
</g></g>
<g style="fill:none; 
stroke:#AFAFAF; stroke-width:0.1500; stroke-opacity:1; 
stroke-linecap:round; stroke-linejoin:round;">
<text x="24.9366" y="7.6682"
textLength="1.1071" font-size="1.3333" lengthAdjust="spacingAndGlyphs"
text-anchor="middle" opacity="0">A</text>
<g class="stroked-text"><desc>A</desc>
<path d="M24.6985 7.3374
L25.1747 7.3374
" />
<path d="M24.6033 7.6231
L24.9366 6.6231
" />
<path d="M24.9366 6.6231
L25.2699 7.6231
" />
</g><text x="22.3966" y="1.3482"
textLength="4.5357" font-size="1.3333" lengthAdjust="spacingAndGlyphs"
text-anchor="middle" opacity="0">REF**</text>
<g class="stroked-text"><desc>REF**</desc>
<path d="M21.0633 1.3031
L20.7299 0.8269
" />
<path d="M20.4918 1.3031
L20.4918 0.3031
" />
<path d="M20.4918 0.3031
L20.8728 0.3031
" />
<path d="M20.8728 0.3031
L20.9680 0.3507
" />
<path d="M20.9680 0.3507
L21.0156 0.3983
" />
<path d="M21.0156 0.3983
L21.0633 0.4935
" />
<path d="M21.0633 0.4935
L21.0633 0.6364
" />
<path d="M21.0633 0.6364
L21.0156 0.7316
" />
<path d="M21.0156 0.7316
L20.9680 0.7793
" />
<path d="M20.9680 0.7793
L20.8728 0.8269
" />
<path d="M20.8728 0.8269
L20.4918 0.8269
" />
<path d="M21.4918 0.7793
L21.8252 0.7793
" />
<path d="M21.9680 1.3031
L21.4918 1.3031
" />
<path d="M21.4918 1.3031
L21.4918 0.3031
" />
<path d="M21.4918 0.3031
L21.9680 0.3031
" />
<path d="M22.7299 0.7793
L22.3966 0.7793
" />
<path d="M22.3966 1.3031
L22.3966 0.3031
" />
<path d="M22.3966 0.3031
L22.8728 0.3031
" />
<path d="M23.3966 0.3031
L23.3966 0.5412
" />
<path d="M23.1585 0.4459
L23.3966 0.5412
" />
<path d="M23.3966 0.5412
L23.6347 0.4459
" />
<path d="M23.2537 0.7316
L23.3966 0.5412
" />
<path d="M23.3966 0.5412
L23.5395 0.7316
" />
<path d="M24.1585 0.3031
L24.1585 0.5412
" />
<path d="M23.9204 0.4459
L24.1585 0.5412
" />
<path d="M24.1585 0.5412
L24.3966 0.4459
" />
<path d="M24.0156 0.7316
L24.1585 0.5412
" />
<path d="M24.1585 0.5412
L24.3014 0.7316
" />
</g></g>
<g style="fill:none; 
stroke:#AFAFAF; stroke-width:0.1000; stroke-opacity:1; 
stroke-linecap:round; stroke-linejoin:round;">
<path d="M19.8566 4.5682
L24.9366 4.5682
" />
<circle cx="19.8566" cy="4.5682" r="2.6000" /> 
</g> 
</svg>
