<?xml version="1.0" standalone="no"?>
 <!DOCTYPE svg PUBLIC "-//W3C//DTD SVG 1.1//EN" 
 "http://www.w3.org/Graphics/SVG/1.1/DTD/svg11.dtd"> 
<svg
  xmlns:svg="http://www.w3.org/2000/svg"
  xmlns="http://www.w3.org/2000/svg"
  xmlns:xlink="http://www.w3.org/1999/xlink"
  version="1.1"
  width="33.8836mm" height="19.3548mm" viewBox="0.0000 0.0000 33.8836 19.3548">
<title>SVG Image created as working-brd.svg date 2024/04/23 08:30:55 </title>
  <desc>Image generated by PCBNEW </desc>
<g style="fill:#000000; fill-opacity:1.0000;stroke:#000000; stroke-opacity:1.0000;
stroke-linecap:round; stroke-linejoin:round;"
 transform="translate(0 0) scale(1 1)">
</g>
<g style="fill:none; 
stroke:#C83434; stroke-width:0.3048; stroke-opacity:1; 
stroke-linecap:round; stroke-linejoin:round;">
<path d="M10.1542 14.9022
L10.7434 14.9022
" />
<path d="M10.1643 13.6423
L10.1542 14.9022
" />
<path d="M10.5834 14.2621
L10.2050 14.2519
" />
<path d="M10.8044 13.6423
L10.1643 13.6423
" />
<path d="M11.3149 14.9022
L11.9042 14.9022
" />
<path d="M11.3226 13.6322
L11.3149 14.9022
" />
<path d="M11.8026 10.8433
L21.8636 10.9220
" />
<path d="M12.0846 12.8422
L12.4935 11.5722
" />
<path d="M12.1836 10.2819
L13.3038 10.8737
" />
<path d="M12.2039 12.4917
L12.8034 12.5019
" />
<path d="M12.3436 13.6500
L12.3436 14.9123
" />
<path d="M12.3436 13.6500
L12.9126 13.6500
" />
<path d="M12.3436 14.9123
L12.9126 14.9123
" />
<path d="M12.3538 13.6601
L12.3436 13.6500
" />
<path d="M12.3944 9.7536
L14.7744 10.8915
" />
<path d="M12.3944 14.2621
L12.7450 14.2621
" />
<path d="M12.4935 11.5722
L12.9228 12.8422
" />
<path d="M12.5037 16.0299
L12.5240 16.2408
" />
<path d="M12.5240 16.2408
L12.7526 16.3601
" />
<path d="M12.5926 17.0205
L12.5240 17.0002
" />
<path d="M12.6129 9.1923
L15.8133 10.8433
" />
<path d="M12.7348 15.8013
L12.5037 16.0299
" />
<path d="M12.7526 16.3601
L13.0828 16.4922
" />
<path d="M12.9228 8.7325
L14.5433 9.5225
" />
<path d="M12.9329 17.0815
L12.5926 17.0205
" />
<path d="M13.0447 15.7912
L12.7348 15.8013
" />
<path d="M13.0828 16.4922
L13.2149 16.7005
" />
<path d="M13.1641 11.5799
L13.8448 11.5722
" />
<path d="M13.1641 16.9723
L12.9329 17.0815
" />
<path d="M13.2047 8.1839
L14.4925 8.9129
" />
<path d="M13.2149 16.7005
L13.1641 16.9723
" />
<path d="M13.2530 15.8521
L13.0447 15.7912
" />
<path d="M13.4028 7.6937
L14.4747 8.2829
" />
<path d="M13.4435 14.1910
L13.4638 14.5517
" />
<path d="M13.4536 17.9705
L13.4536 19.2100
" />
<path d="M13.4536 19.2100
L13.7737 19.2100
" />
<path d="M13.4638 14.5517
L13.6238 14.8006
" />
<path d="M13.5044 11.5799
L13.5349 12.8118
" />
<path d="M13.5425 13.8201
L13.4435 14.1910
" />
<path d="M13.5832 7.1933
L14.3248 7.5921
" />
<path d="M13.6238 14.8006
L13.8346 14.9022
" />
<path d="M13.7737 19.2100
L14.0429 19.0322
" />
<path d="M13.7940 13.6703
L13.5425 13.8201
" />
<path d="M13.7940 17.0307
L13.7737 15.8013
" />
<path d="M13.8245 17.9705
L13.5247 17.9603
" />
<path d="M13.8346 14.9022
L14.1826 14.8209
" />
<path d="M13.8626 6.6827
L11.8026 10.8433
" />
<path d="M13.9946 18.0619
L13.8245 17.9705
" />
<path d="M14.0150 13.6703
L13.7940 13.6703
" />
<path d="M14.0429 19.0322
L14.1547 18.6309
" />
<path d="M14.1140 18.3007
L13.9946 18.0619
" />
<path d="M14.1547 18.6309
L14.1140 18.3007
" />
<path d="M14.1750 11.5722
L14.8125 11.5621
" />
<path d="M14.1826 16.3703
L13.7838 16.3601
" />
<path d="M14.1928 5.9436
L15.0538 6.3729
" />
<path d="M14.2537 13.7820
L14.0150 13.6703
" />
<path d="M14.3528 15.7912
L13.8041 15.7912
" />
<path d="M14.3934 17.0612
L13.7940 17.0307
" />
<path d="M14.4442 5.5626
L15.2646 6.0427
" />
<path d="M14.4645 8.6335
L14.9624 10.3022
" />
<path d="M14.4925 6.9621
L13.8626 6.6827
" />
<path d="M14.4925 12.8422
L14.4849 11.5900
" />
<path d="M14.5433 9.5225
L14.5738 9.5225
" />
<path d="M14.5738 6.9520
L14.4645 8.6335
" />
<path d="M14.6042 13.6500
L15.2748 13.6500
" />
<path d="M14.6931 19.1922
L15.3129 19.2100
" />
<path d="M14.7236 5.0825
L15.6431 5.7125
" />
<path d="M14.7236 17.9502
L14.6931 19.1922
" />
<path d="M14.7947 18.5699
L14.7947 18.5522
" />
<path d="M14.9040 4.5720
L15.9225 5.2629
" />
<path d="M14.9040 14.0310
L14.9243 14.9022
" />
<path d="M14.9141 14.0513
L14.9243 13.6601
" />
<path d="M14.9243 13.6601
L14.9446 13.6601
" />
<path d="M14.9446 15.8623
L15.6329 17.0409
" />
<path d="M14.9446 17.0307
L14.9446 15.8623
" />
<path d="M14.9624 10.3022
L15.3332 9.8831
" />
<path d="M15.0538 6.3729
L15.0843 6.3729
" />
<path d="M15.1046 7.9527
L15.1834 7.4117
" />
<path d="M15.1046 9.0119
L15.1046 7.9527
" />
<path d="M15.1326 18.5420
L14.7947 18.5699
" />
<path d="M15.1834 7.4117
L15.2342 7.3635
" />
<path d="M15.2342 3.9319
L16.5042 4.7219
" />
<path d="M15.2342 7.3635
L15.4831 7.0333
" />
<path d="M15.2926 11.5799
L15.2926 12.8118
" />
<path d="M15.2926 12.8118
L15.3027 12.8118
" />
<path d="M15.3027 11.5799
L15.8133 11.5799
" />
<path d="M15.3129 12.8321
L15.3231 12.8321
" />
<path d="M15.3231 17.9502
L14.7236 17.9502
" />
<path d="M15.3332 9.8831
L15.1046 9.0119
" />
<path d="M15.3332 12.1818
L15.3535 12.1818
" />
<path d="M15.4145 9.9035
L16.9334 10.9220
" />
<path d="M15.4348 7.3914
L15.4348 8.3337
" />
<path d="M15.4348 8.3337
L15.5644 9.1719
" />
<path d="M15.4831 7.0333
L16.3238 6.4033
" />
<path d="M15.5644 9.1719
L15.8438 9.4031
" />
<path d="M15.5948 3.3020
L17.4135 4.4425
" />
<path d="M15.6329 17.0409
L15.6329 15.8013
" />
<path d="M15.6431 5.7125
L15.6431 5.6921
" />
<path d="M15.6736 17.9400
L16.0927 19.2100
" />
<path d="M15.7244 13.6703
L16.1638 13.6601
" />
<path d="M15.7244 14.8920
L15.7244 13.6703
" />
<path d="M15.7549 12.1717
L15.3332 12.1818
" />
<path d="M15.7828 14.3104
L15.7930 14.3104
" />
<path d="M15.8133 7.6937
L16.2527 7.9019
" />
<path d="M15.8438 6.8834
L16.1740 7.0333
" />
<path d="M15.8438 9.4031
L15.9428 9.0932
" />
<path d="M15.8539 12.8499
L15.3129 12.8321
" />
<path d="M15.9428 2.6619
L18.1526 4.1123
" />
<path d="M15.9428 9.0932
L15.8133 7.6937
" />
<path d="M16.0749 14.3510
L16.4330 14.8920
" />
<path d="M16.0927 9.9035
L16.3238 10.2133
" />
<path d="M16.0927 19.2100
L16.5143 17.9502
" />
<path d="M16.1638 13.6601
L16.3543 13.7719
" />
<path d="M16.1740 7.0333
L16.5346 6.9139
" />
<path d="M16.1841 14.3104
L15.7828 14.3104
" />
<path d="M16.1943 16.1214
L16.2933 16.3119
" />
<path d="M16.2044 2.1336
L18.8130 3.8837
" />
<path d="M16.2248 8.5115
L16.6540 7.9731
" />
<path d="M16.2527 7.9019
L16.2248 8.5115
" />
<path d="M16.2527 9.1237
L16.0927 9.9035
" />
<path d="M16.2629 15.9106
L16.1943 16.1214
" />
<path d="M16.2933 16.3119
L16.4940 16.4008
" />
<path d="M16.3035 4.8819
L15.0741 6.3932
" />
<path d="M16.3035 6.6015
L17.0147 7.1120
" />
<path d="M16.3238 6.4033
L16.5524 6.2535
" />
<path d="M16.3238 10.2133
L16.6337 9.5529
" />
<path d="M16.3543 13.7719
L16.4432 14.0310
" />
<path d="M16.3543 14.2215
L16.1841 14.3104
" />
<path d="M16.4330 11.6205
L17.1442 12.8219
" />
<path d="M16.4432 12.8600
L16.4330 11.6205
" />
<path d="M16.4432 14.0310
L16.3543 14.2215
" />
<path d="M16.4737 15.7912
L16.2629 15.9106
" />
<path d="M16.4940 16.4008
L16.7150 16.4719
" />
<path d="M16.5042 4.7219
L16.5346 4.7219
" />
<path d="M16.5042 17.0409
L16.2349 17.0002
" />
<path d="M16.5346 6.9139
L17.0147 7.4422
" />
<path d="M16.5524 6.2535
L17.4135 7.3431
" />
<path d="M16.6032 1.4732
L18.5336 2.8727
" />
<path d="M16.6032 9.8323
L17.9748 10.8433
" />
<path d="M16.6337 9.5529
L17.1442 9.0424
" />
<path d="M16.6540 7.9731
L16.8826 8.1026
" />
<path d="M16.7150 16.4719
L16.8826 16.6218
" />
<path d="M16.7328 9.5225
L17.0325 9.7028
" />
<path d="M16.7429 15.7607
L16.4737 15.7912
" />
<path d="M16.7429 17.0205
L16.5042 17.0409
" />
<path d="M16.8648 0.8636
L17.9037 1.6027
" />
<path d="M16.8826 16.6218
L16.9131 16.8199
" />
<path d="M16.9131 14.3205
L16.9842 13.9014
" />
<path d="M16.9131 16.8199
L16.7429 17.0205
" />
<path d="M16.9537 15.8521
L16.7429 15.7607
" />
<path d="M16.9537 17.9502
L16.9537 19.1922
" />
<path d="M16.9842 13.9014
L17.1341 13.7109
" />
<path d="M16.9842 14.6406
L16.9131 14.3205
" />
<path d="M17.0147 7.4422
L17.1925 7.6733
" />
<path d="M17.0325 9.7028
L17.0630 9.7028
" />
<path d="M17.1341 13.7109
L17.3144 13.7008
" />
<path d="M17.1442 9.0424
L17.7538 8.5115
" />
<path d="M17.1442 12.8219
L17.1442 11.5900
" />
<path d="M17.1646 0.1524
L14.1928 5.9436
" />
<path d="M17.1925 9.3726
L19.1229 10.8229
" />
<path d="M17.1925 14.9022
L16.9842 14.6406
" />
<path d="M17.2636 7.8537
L16.2527 9.1237
" />
<path d="M17.2636 8.9916
L17.5227 9.3421
" />
<path d="M17.3449 13.6601
L17.5938 13.7312
" />
<path d="M17.4135 7.3431
L17.2636 7.8537
" />
<path d="M17.4135 14.9123
L17.1925 14.9022
" />
<path d="M17.4643 15.7505
L17.4643 17.0104
" />
<path d="M17.4744 8.9916
L20.2126 10.8433
" />
<path d="M17.4744 18.7122
L17.5735 19.0119
" />
<path d="M17.5532 18.3109
L17.4744 18.7122
" />
<path d="M17.5633 11.5722
L18.2644 11.5722
" />
<path d="M17.5735 19.0119
L17.8529 19.1821
" />
<path d="M17.5938 13.7312
L17.7335 13.9522
" />
<path d="M17.6040 14.8615
L17.4135 14.9123
" />
<path d="M17.7234 14.7015
L17.6040 14.8615
" />
<path d="M17.7335 13.9522
L17.7945 14.3205
" />
<path d="M17.7945 14.3205
L17.7234 14.7015
" />
<path d="M17.8046 18.0213
L17.5532 18.3109
" />
<path d="M17.8529 19.1821
L18.1145 19.2202
" />
<path d="M17.9139 15.8013
L18.5844 15.8115
" />
<path d="M17.9240 11.6002
L17.9443 12.8118
" />
<path d="M17.9748 10.8433
L18.0028 10.8433
" />
<path d="M18.0536 17.9705
L17.8046 18.0213
" />
<path d="M18.1145 19.2202
L18.2644 19.1008
" />
<path d="M18.2034 4.2139
L16.3035 4.8819
" />
<path d="M18.2441 15.8217
L18.2542 17.0104
" />
<path d="M18.2542 17.0104
L18.2644 17.0104
" />
<path d="M18.2644 13.9522
L18.3228 14.1402
" />
<path d="M18.2644 18.0619
L18.0536 17.9705
" />
<path d="M18.2644 19.1008
L18.2745 19.0906
" />
<path d="M18.3228 14.1402
L18.6225 14.3002
" />
<path d="M18.4041 13.7008
L18.2644 13.9522
" />
<path d="M18.5641 8.1839
L18.6327 8.1534
" />
<path d="M18.5844 14.9301
L18.2745 14.8920
" />
<path d="M18.6124 8.0721
L19.1229 7.2415
" />
<path d="M18.6225 14.3002
L18.8740 14.4120
" />
<path d="M18.7343 11.5621
L18.7241 12.8219
" />
<path d="M18.7648 13.6423
L18.4041 13.7008
" />
<path d="M18.8232 17.9705
L18.8333 19.1922
" />
<path d="M18.8333 14.8514
L18.5844 14.9301
" />
<path d="M18.8333 19.1922
L19.4048 19.2100
" />
<path d="M18.8740 14.4120
L18.9832 14.6812
" />
<path d="M18.9832 14.6812
L18.8333 14.8514
" />
<path d="M18.9934 13.7109
L18.7648 13.6423
" />
<path d="M19.0442 3.8837
L17.1646 0.1524
" />
<path d="M19.0543 15.8217
L19.0442 17.0205
" />
<path d="M19.0746 7.5717
L21.3327 8.9129
" />
<path d="M19.1229 7.2415
L19.4531 6.7031
" />
<path d="M19.1534 3.9319
L18.2034 4.2139
" />
<path d="M19.1534 18.5420
L18.8435 18.5522
" />
<path d="M19.2728 11.9202
L19.3845 11.7119
" />
<path d="M19.2728 12.2403
L19.2728 11.9202
" />
<path d="M19.3845 11.7119
L19.5928 11.5900
" />
<path d="M19.3845 12.6721
L19.2728 12.2403
" />
<path d="M19.3845 13.6500
L20.0348 13.6500
" />
<path d="M19.4048 6.9621
L21.0533 8.2525
" />
<path d="M19.4328 17.9502
L18.8232 17.9705
" />
<path d="M19.4531 6.7031
L19.7325 6.2738
" />
<path d="M19.4633 15.8013
L19.8747 17.0205
" />
<path d="M19.5547 12.8118
L19.3845 12.6721
" />
<path d="M19.6538 6.5024
L20.4945 7.1323
" />
<path d="M19.6944 13.6601
L19.7147 14.9022
" />
<path d="M19.7046 11.5799
L19.9332 11.6510
" />
<path d="M19.7325 6.2738
L20.0627 6.1417
" />
<path d="M19.7630 12.8321
L19.5547 12.8118
" />
<path d="M19.8747 17.0205
L20.3142 15.8013
" />
<path d="M19.9332 11.6510
L20.1033 11.8618
" />
<path d="M19.9332 19.1821
L19.9433 19.1719
" />
<path d="M19.9535 18.1305
L19.9535 18.3718
" />
<path d="M19.9535 18.3718
L20.2329 18.5903
" />
<path d="M19.9941 12.7203
L19.7630 12.8321
" />
<path d="M20.1033 11.8618
L20.1135 12.2022
" />
<path d="M20.1033 12.5019
L19.9941 12.7203
" />
<path d="M20.1135 6.2230
L21.9144 10.0025
" />
<path d="M20.1135 12.2022
L20.1033 12.5019
" />
<path d="M20.1643 19.2202
L19.9332 19.1821
" />
<path d="M20.1846 17.9603
L19.9535 18.1305
" />
<path d="M20.2126 10.8433
L20.2329 10.8433
" />
<path d="M20.2329 18.5903
L20.4945 18.6919
" />
<path d="M20.3345 14.9123
L20.7536 13.6804
" />
<path d="M20.4539 17.9603
L20.1846 17.9603
" />
<path d="M20.4640 14.5517
L20.9949 14.5517
" />
<path d="M20.4742 19.1719
L20.1643 19.2202
" />
<path d="M20.4945 18.6919
L20.6139 18.9814
" />
<path d="M20.6139 18.9814
L20.4742 19.1719
" />
<path d="M20.6647 12.8219
L20.6748 11.6307
" />
<path d="M20.6748 11.6307
L21.3937 12.8321
" />
<path d="M20.6748 18.0518
L20.4539 17.9603
" />
<path d="M20.7536 13.6804
L21.1549 14.9022
" />
<path d="M20.7536 17.0409
L20.7333 15.8217
" />
<path d="M21.1625 16.3601
L20.8044 16.3703
" />
<path d="M21.3530 15.7912
L20.7536 15.8013
" />
<path d="M21.3632 17.0612
L20.7536 17.0409
" />
<path d="M21.3937 12.8321
L21.3835 11.6002
" />
<path d="M21.4140 13.6804
L22.1049 13.6703
" />
<path d="M21.7543 13.6804
L21.7848 14.9022
" />
<path d="M21.8636 10.9220
L17.8224 8.7122
" />
<path d="M21.9144 10.0025
L18.5641 8.1839
" />
<path d="M22.5849 13.6423
L22.5849 14.8717
" />
<path d="M23.1031 14.2900
L23.1539 14.6914
" />
<path d="M23.1539 14.6914
L23.4028 14.8920
" />
<path d="M23.1945 13.8709
L23.1031 14.2900
" />
<path d="M23.4028 14.8920
L23.6949 14.8920
" />
<path d="M23.4333 13.6703
L23.1945 13.8709
" />
<path d="M23.6644 13.6500
L23.4333 13.6703
" />
<path d="M23.6949 14.8920
L23.8727 14.7803
" />
<path d="M23.9337 13.8024
L23.6644 13.6500
" />
</g>
<g style="fill:none; 
stroke:#F2EDA1; stroke-width:0.1588; stroke-opacity:1; 
stroke-linecap:round; stroke-linejoin:round;">
<text x="16.9537" y="8.1661"
textLength="5.6651" font-size="1.6933" lengthAdjust="spacingAndGlyphs"
text-anchor="middle" opacity="0">REF**</text>
<g class="stroked-text"><desc>REF**</desc>
<path d="M15.2604 8.1104
L14.8371 7.5056
" />
<path d="M14.5347 8.1104
L14.5347 6.8404
" />
<path d="M14.5347 6.8404
L15.0185 6.8404
" />
<path d="M15.0185 6.8404
L15.1395 6.9008
" />
<path d="M15.1395 6.9008
L15.1999 6.9613
" />
<path d="M15.1999 6.9613
L15.2604 7.0823
" />
<path d="M15.2604 7.0823
L15.2604 7.2637
" />
<path d="M15.2604 7.2637
L15.1999 7.3847
" />
<path d="M15.1999 7.3847
L15.1395 7.4451
" />
<path d="M15.1395 7.4451
L15.0185 7.5056
" />
<path d="M15.0185 7.5056
L14.5347 7.5056
" />
<path d="M15.8047 7.4451
L16.2280 7.4451
" />
<path d="M16.4095 8.1104
L15.8047 8.1104
" />
<path d="M15.8047 8.1104
L15.8047 6.8404
" />
<path d="M15.8047 6.8404
L16.4095 6.8404
" />
<path d="M17.3771 7.4451
L16.9537 7.4451
" />
<path d="M16.9537 8.1104
L16.9537 6.8404
" />
<path d="M16.9537 6.8404
L17.5585 6.8404
" />
<path d="M18.2237 6.8404
L18.2237 7.1428
" />
<path d="M17.9214 7.0218
L18.2237 7.1428
" />
<path d="M18.2237 7.1428
L18.5261 7.0218
" />
<path d="M18.0423 7.3847
L18.2237 7.1428
" />
<path d="M18.2237 7.1428
L18.4052 7.3847
" />
<path d="M19.1914 6.8404
L19.1914 7.1428
" />
<path d="M18.8890 7.0218
L19.1914 7.1428
" />
<path d="M19.1914 7.1428
L19.4937 7.0218
" />
<path d="M19.0099 7.3847
L19.1914 7.1428
" />
<path d="M19.1914 7.1428
L19.3728 7.3847
" />
</g></g>
<g style="fill:none; 
stroke:#AFAFAF; stroke-width:0.1588; stroke-opacity:1; 
stroke-linecap:round; stroke-linejoin:round;">
<text x="16.9537" y="8.1661"
textLength="33.9075" font-size="1.6933" lengthAdjust="spacingAndGlyphs"
text-anchor="middle" opacity="0">Symbol_ESD-Logo-Text_CopperTop</text>
<g class="stroked-text"><desc>Symbol_ESD-Logo-Text_CopperTop</desc>
<path d="M0.3530 8.0499
L0.5345 8.1104
" />
<path d="M0.5345 8.1104
L0.8368 8.1104
" />
<path d="M0.8368 8.1104
L0.9578 8.0499
" />
<path d="M0.9578 8.0499
L1.0183 7.9894
" />
<path d="M1.0183 7.9894
L1.0787 7.8685
" />
<path d="M1.0787 7.8685
L1.0787 7.7475
" />
<path d="M1.0787 7.7475
L1.0183 7.6266
" />
<path d="M1.0183 7.6266
L0.9578 7.5661
" />
<path d="M0.9578 7.5661
L0.8368 7.5056
" />
<path d="M0.8368 7.5056
L0.5949 7.4451
" />
<path d="M0.5949 7.4451
L0.4740 7.3847
" />
<path d="M0.4740 7.3847
L0.4135 7.3242
" />
<path d="M0.4135 7.3242
L0.3530 7.2032
" />
<path d="M0.3530 7.2032
L0.3530 7.0823
" />
<path d="M0.3530 7.0823
L0.4135 6.9613
" />
<path d="M0.4135 6.9613
L0.4740 6.9008
" />
<path d="M0.4740 6.9008
L0.5949 6.8404
" />
<path d="M0.5949 6.8404
L0.8973 6.8404
" />
<path d="M0.8973 6.8404
L1.0787 6.9008
" />
<path d="M1.5021 7.2637
L1.8045 8.1104
" />
<path d="M2.1068 7.2637
L1.8045 8.1104
" />
<path d="M1.8045 8.1104
L1.6835 8.4128
" />
<path d="M1.6835 8.4128
L1.6230 8.4732
" />
<path d="M1.6230 8.4732
L1.5021 8.5337
" />
<path d="M2.5906 8.1104
L2.5906 7.2637
" />
<path d="M2.5906 7.3847
L2.6511 7.3242
" />
<path d="M2.6511 7.3242
L2.7721 7.2637
" />
<path d="M2.7721 7.2637
L2.9535 7.2637
" />
<path d="M2.9535 7.2637
L3.0745 7.3242
" />
<path d="M3.0745 7.3242
L3.1349 7.4451
" />
<path d="M3.1349 7.4451
L3.1349 8.1104
" />
<path d="M3.1349 7.4451
L3.1954 7.3242
" />
<path d="M3.1954 7.3242
L3.3164 7.2637
" />
<path d="M3.3164 7.2637
L3.4978 7.2637
" />
<path d="M3.4978 7.2637
L3.6187 7.3242
" />
<path d="M3.6187 7.3242
L3.6792 7.4451
" />
<path d="M3.6792 7.4451
L3.6792 8.1104
" />
<path d="M4.2840 8.1104
L4.2840 6.8404
" />
<path d="M4.2840 7.3242
L4.4049 7.2637
" />
<path d="M4.4049 7.2637
L4.6468 7.2637
" />
<path d="M4.6468 7.2637
L4.7678 7.3242
" />
<path d="M4.7678 7.3242
L4.8283 7.3847
" />
<path d="M4.8283 7.3847
L4.8887 7.5056
" />
<path d="M4.8887 7.5056
L4.8887 7.8685
" />
<path d="M4.8887 7.8685
L4.8283 7.9894
" />
<path d="M4.8283 7.9894
L4.7678 8.0499
" />
<path d="M4.7678 8.0499
L4.6468 8.1104
" />
<path d="M4.6468 8.1104
L4.4049 8.1104
" />
<path d="M4.4049 8.1104
L4.2840 8.0499
" />
<path d="M5.6145 8.1104
L5.4935 8.0499
" />
<path d="M5.4935 8.0499
L5.4330 7.9894
" />
<path d="M5.4330 7.9894
L5.3726 7.8685
" />
<path d="M5.3726 7.8685
L5.3726 7.5056
" />
<path d="M5.3726 7.5056
L5.4330 7.3847
" />
<path d="M5.4330 7.3847
L5.4935 7.3242
" />
<path d="M5.4935 7.3242
L5.6145 7.2637
" />
<path d="M5.6145 7.2637
L5.7959 7.2637
" />
<path d="M5.7959 7.2637
L5.9168 7.3242
" />
<path d="M5.9168 7.3242
L5.9773 7.3847
" />
<path d="M5.9773 7.3847
L6.0378 7.5056
" />
<path d="M6.0378 7.5056
L6.0378 7.8685
" />
<path d="M6.0378 7.8685
L5.9773 7.9894
" />
<path d="M5.9773 7.9894
L5.9168 8.0499
" />
<path d="M5.9168 8.0499
L5.7959 8.1104
" />
<path d="M5.7959 8.1104
L5.6145 8.1104
" />
<path d="M6.7635 8.1104
L6.6426 8.0499
" />
<path d="M6.6426 8.0499
L6.5821 7.9289
" />
<path d="M6.5821 7.9289
L6.5821 6.8404
" />
<path d="M6.9449 8.2313
L7.9126 8.2313
" />
<path d="M8.2149 7.4451
L8.6383 7.4451
" />
<path d="M8.8197 8.1104
L8.2149 8.1104
" />
<path d="M8.2149 8.1104
L8.2149 6.8404
" />
<path d="M8.2149 6.8404
L8.8197 6.8404
" />
<path d="M9.3035 8.0499
L9.4849 8.1104
" />
<path d="M9.4849 8.1104
L9.7873 8.1104
" />
<path d="M9.7873 8.1104
L9.9083 8.0499
" />
<path d="M9.9083 8.0499
L9.9687 7.9894
" />
<path d="M9.9687 7.9894
L10.0292 7.8685
" />
<path d="M10.0292 7.8685
L10.0292 7.7475
" />
<path d="M10.0292 7.7475
L9.9687 7.6266
" />
<path d="M9.9687 7.6266
L9.9083 7.5661
" />
<path d="M9.9083 7.5661
L9.7873 7.5056
" />
<path d="M9.7873 7.5056
L9.5454 7.4451
" />
<path d="M9.5454 7.4451
L9.4245 7.3847
" />
<path d="M9.4245 7.3847
L9.3640 7.3242
" />
<path d="M9.3640 7.3242
L9.3035 7.2032
" />
<path d="M9.3035 7.2032
L9.3035 7.0823
" />
<path d="M9.3035 7.0823
L9.3640 6.9613
" />
<path d="M9.3640 6.9613
L9.4245 6.9008
" />
<path d="M9.4245 6.9008
L9.5454 6.8404
" />
<path d="M9.5454 6.8404
L9.8478 6.8404
" />
<path d="M9.8478 6.8404
L10.0292 6.9008
" />
<path d="M10.5735 8.1104
L10.5735 6.8404
" />
<path d="M10.5735 6.8404
L10.8759 6.8404
" />
<path d="M10.8759 6.8404
L11.0573 6.9008
" />
<path d="M11.0573 6.9008
L11.1783 7.0218
" />
<path d="M11.1783 7.0218
L11.2387 7.1428
" />
<path d="M11.2387 7.1428
L11.2992 7.3847
" />
<path d="M11.2992 7.3847
L11.2992 7.5661
" />
<path d="M11.2992 7.5661
L11.2387 7.8080
" />
<path d="M11.2387 7.8080
L11.1783 7.9289
" />
<path d="M11.1783 7.9289
L11.0573 8.0499
" />
<path d="M11.0573 8.0499
L10.8759 8.1104
" />
<path d="M10.8759 8.1104
L10.5735 8.1104
" />
<path d="M11.8435 7.6266
L12.8111 7.6266
" />
<path d="M14.0206 8.1104
L13.4159 8.1104
" />
<path d="M13.4159 8.1104
L13.4159 6.8404
" />
<path d="M14.6254 8.1104
L14.5045 8.0499
" />
<path d="M14.5045 8.0499
L14.4440 7.9894
" />
<path d="M14.4440 7.9894
L14.3835 7.8685
" />
<path d="M14.3835 7.8685
L14.3835 7.5056
" />
<path d="M14.3835 7.5056
L14.4440 7.3847
" />
<path d="M14.4440 7.3847
L14.5045 7.3242
" />
<path d="M14.5045 7.3242
L14.6254 7.2637
" />
<path d="M14.6254 7.2637
L14.8068 7.2637
" />
<path d="M14.8068 7.2637
L14.9278 7.3242
" />
<path d="M14.9278 7.3242
L14.9883 7.3847
" />
<path d="M14.9883 7.3847
L15.0487 7.5056
" />
<path d="M15.0487 7.5056
L15.0487 7.8685
" />
<path d="M15.0487 7.8685
L14.9883 7.9894
" />
<path d="M14.9883 7.9894
L14.9278 8.0499
" />
<path d="M14.9278 8.0499
L14.8068 8.1104
" />
<path d="M14.8068 8.1104
L14.6254 8.1104
" />
<path d="M16.1373 7.2637
L16.1373 8.2918
" />
<path d="M16.1373 8.2918
L16.0768 8.4128
" />
<path d="M16.0768 8.4128
L16.0164 8.4732
" />
<path d="M16.0164 8.4732
L15.8954 8.5337
" />
<path d="M15.8954 8.5337
L15.7140 8.5337
" />
<path d="M15.7140 8.5337
L15.5930 8.4732
" />
<path d="M16.1373 8.0499
L16.0164 8.1104
" />
<path d="M16.0164 8.1104
L15.7745 8.1104
" />
<path d="M15.7745 8.1104
L15.6535 8.0499
" />
<path d="M15.6535 8.0499
L15.5930 7.9894
" />
<path d="M15.5930 7.9894
L15.5326 7.8685
" />
<path d="M15.5326 7.8685
L15.5326 7.5056
" />
<path d="M15.5326 7.5056
L15.5930 7.3847
" />
<path d="M15.5930 7.3847
L15.6535 7.3242
" />
<path d="M15.6535 7.3242
L15.7745 7.2637
" />
<path d="M15.7745 7.2637
L16.0164 7.2637
" />
<path d="M16.0164 7.2637
L16.1373 7.3242
" />
<path d="M16.9235 8.1104
L16.8026 8.0499
" />
<path d="M16.8026 8.0499
L16.7421 7.9894
" />
<path d="M16.7421 7.9894
L16.6816 7.8685
" />
<path d="M16.6816 7.8685
L16.6816 7.5056
" />
<path d="M16.6816 7.5056
L16.7421 7.3847
" />
<path d="M16.7421 7.3847
L16.8026 7.3242
" />
<path d="M16.8026 7.3242
L16.9235 7.2637
" />
<path d="M16.9235 7.2637
L17.1049 7.2637
" />
<path d="M17.1049 7.2637
L17.2259 7.3242
" />
<path d="M17.2259 7.3242
L17.2864 7.3847
" />
<path d="M17.2864 7.3847
L17.3468 7.5056
" />
<path d="M17.3468 7.5056
L17.3468 7.8685
" />
<path d="M17.3468 7.8685
L17.2864 7.9894
" />
<path d="M17.2864 7.9894
L17.2259 8.0499
" />
<path d="M17.2259 8.0499
L17.1049 8.1104
" />
<path d="M17.1049 8.1104
L16.9235 8.1104
" />
<path d="M17.8911 7.6266
L18.8587 7.6266
" />
<path d="M19.2821 6.8404
L20.0078 6.8404
" />
<path d="M19.6449 8.1104
L19.6449 6.8404
" />
<path d="M20.9149 8.0499
L20.7940 8.1104
" />
<path d="M20.7940 8.1104
L20.5521 8.1104
" />
<path d="M20.5521 8.1104
L20.4311 8.0499
" />
<path d="M20.4311 8.0499
L20.3706 7.9289
" />
<path d="M20.3706 7.9289
L20.3706 7.4451
" />
<path d="M20.3706 7.4451
L20.4311 7.3242
" />
<path d="M20.4311 7.3242
L20.5521 7.2637
" />
<path d="M20.5521 7.2637
L20.7940 7.2637
" />
<path d="M20.7940 7.2637
L20.9149 7.3242
" />
<path d="M20.9149 7.3242
L20.9754 7.4451
" />
<path d="M20.9754 7.4451
L20.9754 7.5661
" />
<path d="M20.9754 7.5661
L20.3706 7.6870
" />
<path d="M21.3987 8.1104
L22.0640 7.2637
" />
<path d="M21.3987 7.2637
L22.0640 8.1104
" />
<path d="M22.3664 7.2637
L22.8502 7.2637
" />
<path d="M22.5478 6.8404
L22.5478 7.9289
" />
<path d="M22.5478 7.9289
L22.6083 8.0499
" />
<path d="M22.6083 8.0499
L22.7292 8.1104
" />
<path d="M22.7292 8.1104
L22.8502 8.1104
" />
<path d="M22.9711 8.2313
L23.9387 8.2313
" />
<path d="M24.9668 7.9894
L24.9064 8.0499
" />
<path d="M24.9064 8.0499
L24.7249 8.1104
" />
<path d="M24.7249 8.1104
L24.6040 8.1104
" />
<path d="M24.6040 8.1104
L24.4226 8.0499
" />
<path d="M24.4226 8.0499
L24.3016 7.9289
" />
<path d="M24.3016 7.9289
L24.2411 7.8080
" />
<path d="M24.2411 7.8080
L24.1806 7.5661
" />
<path d="M24.1806 7.5661
L24.1806 7.3847
" />
<path d="M24.1806 7.3847
L24.2411 7.1428
" />
<path d="M24.2411 7.1428
L24.3016 7.0218
" />
<path d="M24.3016 7.0218
L24.4226 6.9008
" />
<path d="M24.4226 6.9008
L24.6040 6.8404
" />
<path d="M24.6040 6.8404
L24.7249 6.8404
" />
<path d="M24.7249 6.8404
L24.9064 6.9008
" />
<path d="M24.9064 6.9008
L24.9668 6.9613
" />
<path d="M25.6926 8.1104
L25.5716 8.0499
" />
<path d="M25.5716 8.0499
L25.5111 7.9894
" />
<path d="M25.5111 7.9894
L25.4506 7.8685
" />
<path d="M25.4506 7.8685
L25.4506 7.5056
" />
<path d="M25.4506 7.5056
L25.5111 7.3847
" />
<path d="M25.5111 7.3847
L25.5716 7.3242
" />
<path d="M25.5716 7.3242
L25.6926 7.2637
" />
<path d="M25.6926 7.2637
L25.8740 7.2637
" />
<path d="M25.8740 7.2637
L25.9949 7.3242
" />
<path d="M25.9949 7.3242
L26.0554 7.3847
" />
<path d="M26.0554 7.3847
L26.1159 7.5056
" />
<path d="M26.1159 7.5056
L26.1159 7.8685
" />
<path d="M26.1159 7.8685
L26.0554 7.9894
" />
<path d="M26.0554 7.9894
L25.9949 8.0499
" />
<path d="M25.9949 8.0499
L25.8740 8.1104
" />
<path d="M25.8740 8.1104
L25.6926 8.1104
" />
<path d="M26.6602 7.2637
L26.6602 8.5337
" />
<path d="M26.6602 7.3242
L26.7811 7.2637
" />
<path d="M26.7811 7.2637
L27.0230 7.2637
" />
<path d="M27.0230 7.2637
L27.1440 7.3242
" />
<path d="M27.1440 7.3242
L27.2045 7.3847
" />
<path d="M27.2045 7.3847
L27.2649 7.5056
" />
<path d="M27.2649 7.5056
L27.2649 7.8685
" />
<path d="M27.2649 7.8685
L27.2045 7.9894
" />
<path d="M27.2045 7.9894
L27.1440 8.0499
" />
<path d="M27.1440 8.0499
L27.0230 8.1104
" />
<path d="M27.0230 8.1104
L26.7811 8.1104
" />
<path d="M26.7811 8.1104
L26.6602 8.0499
" />
<path d="M27.8092 7.2637
L27.8092 8.5337
" />
<path d="M27.8092 7.3242
L27.9302 7.2637
" />
<path d="M27.9302 7.2637
L28.1721 7.2637
" />
<path d="M28.1721 7.2637
L28.2930 7.3242
" />
<path d="M28.2930 7.3242
L28.3535 7.3847
" />
<path d="M28.3535 7.3847
L28.4140 7.5056
" />
<path d="M28.4140 7.5056
L28.4140 7.8685
" />
<path d="M28.4140 7.8685
L28.3535 7.9894
" />
<path d="M28.3535 7.9894
L28.2930 8.0499
" />
<path d="M28.2930 8.0499
L28.1721 8.1104
" />
<path d="M28.1721 8.1104
L27.9302 8.1104
" />
<path d="M27.9302 8.1104
L27.8092 8.0499
" />
<path d="M29.4421 8.0499
L29.3211 8.1104
" />
<path d="M29.3211 8.1104
L29.0792 8.1104
" />
<path d="M29.0792 8.1104
L28.9583 8.0499
" />
<path d="M28.9583 8.0499
L28.8978 7.9289
" />
<path d="M28.8978 7.9289
L28.8978 7.4451
" />
<path d="M28.8978 7.4451
L28.9583 7.3242
" />
<path d="M28.9583 7.3242
L29.0792 7.2637
" />
<path d="M29.0792 7.2637
L29.3211 7.2637
" />
<path d="M29.3211 7.2637
L29.4421 7.3242
" />
<path d="M29.4421 7.3242
L29.5026 7.4451
" />
<path d="M29.5026 7.4451
L29.5026 7.5661
" />
<path d="M29.5026 7.5661
L28.8978 7.6870
" />
<path d="M30.0468 8.1104
L30.0468 7.2637
" />
<path d="M30.0468 7.5056
L30.1073 7.3847
" />
<path d="M30.1073 7.3847
L30.1678 7.3242
" />
<path d="M30.1678 7.3242
L30.2887 7.2637
" />
<path d="M30.2887 7.2637
L30.4097 7.2637
" />
<path d="M30.6516 6.8404
L31.3773 6.8404
" />
<path d="M31.0145 8.1104
L31.0145 6.8404
" />
<path d="M31.9821 8.1104
L31.8611 8.0499
" />
<path d="M31.8611 8.0499
L31.8006 7.9894
" />
<path d="M31.8006 7.9894
L31.7402 7.8685
" />
<path d="M31.7402 7.8685
L31.7402 7.5056
" />
<path d="M31.7402 7.5056
L31.8006 7.3847
" />
<path d="M31.8006 7.3847
L31.8611 7.3242
" />
<path d="M31.8611 7.3242
L31.9821 7.2637
" />
<path d="M31.9821 7.2637
L32.1635 7.2637
" />
<path d="M32.1635 7.2637
L32.2845 7.3242
" />
<path d="M32.2845 7.3242
L32.3449 7.3847
" />
<path d="M32.3449 7.3847
L32.4054 7.5056
" />
<path d="M32.4054 7.5056
L32.4054 7.8685
" />
<path d="M32.4054 7.8685
L32.3449 7.9894
" />
<path d="M32.3449 7.9894
L32.2845 8.0499
" />
<path d="M32.2845 8.0499
L32.1635 8.1104
" />
<path d="M32.1635 8.1104
L31.9821 8.1104
" />
<path d="M32.9497 7.2637
L32.9497 8.5337
" />
<path d="M32.9497 7.3242
L33.0707 7.2637
" />
<path d="M33.0707 7.2637
L33.3126 7.2637
" />
<path d="M33.3126 7.2637
L33.4335 7.3242
" />
<path d="M33.4335 7.3242
L33.4940 7.3847
" />
<path d="M33.4940 7.3847
L33.5545 7.5056
" />
<path d="M33.5545 7.5056
L33.5545 7.8685
" />
<path d="M33.5545 7.8685
L33.4940 7.9894
" />
<path d="M33.4940 7.9894
L33.4335 8.0499
" />
<path d="M33.4335 8.0499
L33.3126 8.1104
" />
<path d="M33.3126 8.1104
L33.0707 8.1104
" />
<path d="M33.0707 8.1104
L32.9497 8.0499
" />
</g></g> 
</svg>
