<?xml version="1.0" standalone="no"?>
 <!DOCTYPE svg PUBLIC "-//W3C//DTD SVG 1.1//EN" 
 "http://www.w3.org/Graphics/SVG/1.1/DTD/svg11.dtd"> 
<svg
  xmlns:svg="http://www.w3.org/2000/svg"
  xmlns="http://www.w3.org/2000/svg"
  xmlns:xlink="http://www.w3.org/1999/xlink"
  version="1.1"
  width="49.3268mm" height="28.0416mm" viewBox="0.0000 0.0000 49.3268 28.0416">
<title>SVG Image created as working-brd.svg date 2024/03/26 23:15:37 </title>
  <desc>Image generated by PCBNEW </desc>
<g style="fill:#000000; fill-opacity:1.0000;stroke:#000000; stroke-opacity:1.0000;
stroke-linecap:round; stroke-linejoin:round;"
 transform="translate(0 0) scale(1 1)">
</g>
<g style="fill:#FFFFFF; fill-opacity:1.0000; stroke:none;">
<circle cx="34.8247" cy="10.0250" r="1.0500" /> 
</g>
<g style="fill:#FFFFFF; fill-opacity:1.0000; stroke:none;">
<circle cx="23.4247" cy="7.9250" r="0.6000" /> 
</g>
<g style="fill:#FFFFFF; fill-opacity:1.0000; stroke:none;">
<circle cx="23.4247" cy="20.1250" r="0.6000" /> 
</g>
<g style="fill:#FFFFFF; fill-opacity:1.0000; stroke:none;">
<circle cx="23.4247" cy="14.0250" r="0.6000" /> 
</g>
<g style="fill:#FFFFFF; fill-opacity:1.0000; stroke:none;">
<circle cx="30.7247" cy="14.0250" r="0.6000" /> 
</g>
<g style="fill:#FFFFFF; fill-opacity:1.0000; stroke:none;">
<circle cx="27.3247" cy="8.8250" r="0.6000" /> 
</g>
<g style="fill:#FFFFFF; fill-opacity:1.0000; stroke:none;">
<circle cx="30.7247" cy="19.2250" r="0.6000" /> 
</g>
<g style="fill:#FFFFFF; fill-opacity:1.0000; stroke:none;">
<circle cx="16.8247" cy="23.2250" r="0.6000" /> 
</g>
<g style="fill:#02FFEE; fill-opacity:0.4000; stroke:none;">
<circle cx="34.8247" cy="10.0250" r="1.0500" /> 
</g>
<g style="fill:#02FFEE; fill-opacity:0.4000; stroke:none;">
<circle cx="23.4247" cy="7.9250" r="1.4500" /> 
</g>
<g style="fill:#02FFEE; fill-opacity:0.4000; stroke:none;">
<circle cx="23.4247" cy="20.1250" r="1.4500" /> 
</g>
<g style="fill:#02FFEE; fill-opacity:0.4000; stroke:none;">
<circle cx="23.4247" cy="14.0250" r="1.4500" /> 
</g>
<g style="fill:#02FFEE; fill-opacity:0.4000; stroke:none;">
<circle cx="30.7247" cy="14.0250" r="1.4500" /> 
</g>
<g style="fill:#02FFEE; fill-opacity:0.4000; stroke:none;">
<circle cx="27.3247" cy="8.8250" r="1.4500" /> 
</g>
<g style="fill:#02FFEE; fill-opacity:0.4000; stroke:none;">
<circle cx="30.7247" cy="19.2250" r="1.4500" /> 
</g>
<g style="fill:#02FFEE; fill-opacity:0.4000; stroke:none;">
<circle cx="16.8247" cy="23.2250" r="1.4500" /> 
</g>
<g style="fill:#FFFFFF; fill-opacity:1.0000; stroke:none;">
<circle cx="34.8247" cy="10.0250" r="1.0500" /> 
</g>
<g style="fill:#FFFFFF; fill-opacity:1.0000; stroke:none;">
<circle cx="23.4247" cy="7.9250" r="0.6000" /> 
</g>
<g style="fill:#FFFFFF; fill-opacity:1.0000; stroke:none;">
<circle cx="23.4247" cy="20.1250" r="0.6000" /> 
</g>
<g style="fill:#FFFFFF; fill-opacity:1.0000; stroke:none;">
<circle cx="23.4247" cy="14.0250" r="0.6000" /> 
</g>
<g style="fill:#FFFFFF; fill-opacity:1.0000; stroke:none;">
<circle cx="30.7247" cy="14.0250" r="0.6000" /> 
</g>
<g style="fill:#FFFFFF; fill-opacity:1.0000; stroke:none;">
<circle cx="27.3247" cy="8.8250" r="0.6000" /> 
</g>
<g style="fill:#FFFFFF; fill-opacity:1.0000; stroke:none;">
<circle cx="30.7247" cy="19.2250" r="0.6000" /> 
</g>
<g style="fill:#FFFFFF; fill-opacity:1.0000; stroke:none;">
<circle cx="16.8247" cy="23.2250" r="0.6000" /> 
</g>
<g style="fill:#FFFFFF; fill-opacity:1.0000; stroke:none;">
<circle cx="34.8247" cy="10.0250" r="1.0500" /> 
</g>
<g style="fill:#FFFFFF; fill-opacity:1.0000; stroke:none;">
<circle cx="23.4247" cy="7.9250" r="0.6000" /> 
</g>
<g style="fill:#FFFFFF; fill-opacity:1.0000; stroke:none;">
<circle cx="23.4247" cy="20.1250" r="0.6000" /> 
</g>
<g style="fill:#FFFFFF; fill-opacity:1.0000; stroke:none;">
<circle cx="23.4247" cy="14.0250" r="0.6000" /> 
</g>
<g style="fill:#FFFFFF; fill-opacity:1.0000; stroke:none;">
<circle cx="30.7247" cy="14.0250" r="0.6000" /> 
</g>
<g style="fill:#FFFFFF; fill-opacity:1.0000; stroke:none;">
<circle cx="27.3247" cy="8.8250" r="0.6000" /> 
</g>
<g style="fill:#FFFFFF; fill-opacity:1.0000; stroke:none;">
<circle cx="30.7247" cy="19.2250" r="0.6000" /> 
</g>
<g style="fill:#FFFFFF; fill-opacity:1.0000; stroke:none;">
<circle cx="16.8247" cy="23.2250" r="0.6000" /> 
</g>
<g style="fill:#D864FF; fill-opacity:0.4000; stroke:none;">
<circle cx="34.8247" cy="10.0250" r="1.0500" /> 
</g>
<g style="fill:#D864FF; fill-opacity:0.4000; stroke:none;">
<circle cx="23.4247" cy="7.9250" r="1.4500" /> 
</g>
<g style="fill:#D864FF; fill-opacity:0.4000; stroke:none;">
<circle cx="23.4247" cy="20.1250" r="1.4500" /> 
</g>
<g style="fill:#D864FF; fill-opacity:0.4000; stroke:none;">
<circle cx="23.4247" cy="14.0250" r="1.4500" /> 
</g>
<g style="fill:#D864FF; fill-opacity:0.4000; stroke:none;">
<circle cx="30.7247" cy="14.0250" r="1.4500" /> 
</g>
<g style="fill:#D864FF; fill-opacity:0.4000; stroke:none;">
<circle cx="27.3247" cy="8.8250" r="1.4500" /> 
</g>
<g style="fill:#D864FF; fill-opacity:0.4000; stroke:none;">
<circle cx="30.7247" cy="19.2250" r="1.4500" /> 
</g>
<g style="fill:#D864FF; fill-opacity:0.4000; stroke:none;">
<circle cx="16.8247" cy="23.2250" r="1.4500" /> 
</g>
<g style="fill:none; 
stroke:#F2EDA1; stroke-width:0.1588; stroke-opacity:1; 
stroke-linecap:round; stroke-linejoin:round;">
<text x="23.4247" y="8.5600"
textLength="5.6651" font-size="1.6933" lengthAdjust="spacingAndGlyphs"
text-anchor="middle" opacity="0">REF**</text>
<g class="stroked-text"><desc>REF**</desc>
<path d="M21.7314 8.5043
L21.3080 7.8995
" />
<path d="M21.0056 8.5043
L21.0056 7.2343
" />
<path d="M21.0056 7.2343
L21.4895 7.2343
" />
<path d="M21.4895 7.2343
L21.6104 7.2947
" />
<path d="M21.6104 7.2947
L21.6709 7.3552
" />
<path d="M21.6709 7.3552
L21.7314 7.4762
" />
<path d="M21.7314 7.4762
L21.7314 7.6576
" />
<path d="M21.7314 7.6576
L21.6709 7.7786
" />
<path d="M21.6709 7.7786
L21.6104 7.8390
" />
<path d="M21.6104 7.8390
L21.4895 7.8995
" />
<path d="M21.4895 7.8995
L21.0056 7.8995
" />
<path d="M22.2756 7.8390
L22.6990 7.8390
" />
<path d="M22.8804 8.5043
L22.2756 8.5043
" />
<path d="M22.2756 8.5043
L22.2756 7.2343
" />
<path d="M22.2756 7.2343
L22.8804 7.2343
" />
<path d="M23.8480 7.8390
L23.4247 7.8390
" />
<path d="M23.4247 8.5043
L23.4247 7.2343
" />
<path d="M23.4247 7.2343
L24.0295 7.2343
" />
<path d="M24.6947 7.2343
L24.6947 7.5367
" />
<path d="M24.3923 7.4157
L24.6947 7.5367
" />
<path d="M24.6947 7.5367
L24.9971 7.4157
" />
<path d="M24.5133 7.7786
L24.6947 7.5367
" />
<path d="M24.6947 7.5367
L24.8761 7.7786
" />
<path d="M25.6623 7.2343
L25.6623 7.5367
" />
<path d="M25.3599 7.4157
L25.6623 7.5367
" />
<path d="M25.6623 7.5367
L25.9647 7.4157
" />
<path d="M25.4809 7.7786
L25.6623 7.5367
" />
<path d="M25.6623 7.5367
L25.8437 7.7786
" />
</g></g>
<g style="fill:none; 
stroke:#F2EDA1; stroke-width:0.1200; stroke-opacity:1; 
stroke-linecap:round; stroke-linejoin:round;">
<path d="M17.7047 1.9050
L17.7047 21.6250
" />
<path d="M17.7047 24.8250
L17.7047 26.1450
" />
<path d="M25.7047 0.9050
L25.7047 1.9050
" />
<path d="M25.7047 1.9050
L17.7047 1.9050
" />
<path d="M25.7047 26.1450
L17.7047 26.1450
" />
<path d="M25.7047 27.1450
L25.7047 26.1450
" />
<path d="M34.7047 0.9050
L25.7047 0.9050
" />
<path d="M34.7047 0.9050
L34.7047 0.4050
" />
<path d="M34.7047 27.1450
L25.7047 27.1450
" />
<path d="M34.7047 27.6450
L34.7047 27.1450
" />
<path d="M41.9447 0.4050
L34.7047 0.4050
" />
<path d="M41.9447 0.4050
L41.9447 2.2050
" />
<path d="M41.9447 2.2050
L48.9447 2.2050
" />
<path d="M41.9447 25.8450
L41.9447 27.6450
" />
<path d="M41.9447 25.8450
L48.9447 25.8450
" />
<path d="M41.9447 27.6450
L34.7047 27.6450
" />
<path d="M48.9447 2.2050
L48.9447 25.8450
" />
</g>
<g style="fill:#FFFFFF; fill-opacity:1.0000; stroke:none;">
<circle cx="34.8247" cy="10.0250" r="1.0500" /> 
</g>
<g style="fill:#FFFFFF; fill-opacity:1.0000; stroke:none;">
<circle cx="23.4247" cy="7.9250" r="0.6000" /> 
</g>
<g style="fill:#FFFFFF; fill-opacity:1.0000; stroke:none;">
<circle cx="23.4247" cy="20.1250" r="0.6000" /> 
</g>
<g style="fill:#FFFFFF; fill-opacity:1.0000; stroke:none;">
<circle cx="23.4247" cy="14.0250" r="0.6000" /> 
</g>
<g style="fill:#FFFFFF; fill-opacity:1.0000; stroke:none;">
<circle cx="30.7247" cy="14.0250" r="0.6000" /> 
</g>
<g style="fill:#FFFFFF; fill-opacity:1.0000; stroke:none;">
<circle cx="27.3247" cy="8.8250" r="0.6000" /> 
</g>
<g style="fill:#FFFFFF; fill-opacity:1.0000; stroke:none;">
<circle cx="30.7247" cy="19.2250" r="0.6000" /> 
</g>
<g style="fill:#FFFFFF; fill-opacity:1.0000; stroke:none;">
<circle cx="16.8247" cy="23.2250" r="0.6000" /> 
</g>
<g style="fill:none; 
stroke:#FF26E2; stroke-width:0.0500; stroke-opacity:1; 
stroke-linecap:round; stroke-linejoin:round;">
<path d="M14.8247 0.0250
L14.8247 28.0250
" />
<path d="M49.3247 0.0250
L14.8247 0.0250
" />
<path d="M49.3247 0.0250
L49.3247 28.0250
" />
<path d="M49.3247 28.0250
L14.8247 28.0250
" />
</g>
<g style="fill:none; 
stroke:#AFAFAF; stroke-width:0.1588; stroke-opacity:1; 
stroke-linecap:round; stroke-linejoin:round;">
<text x="23.4247" y="8.5600"
textLength="46.8494" font-size="1.6933" lengthAdjust="spacingAndGlyphs"
text-anchor="middle" opacity="0">Jack_XLR-6.35mm_Neutrik_NCJ6FI-H_Horizontal</text>
<g class="stroked-text"><desc>Jack_XLR-6.35mm_Neutrik_NCJ6FI-H_Horizontal</desc>
<path d="M0.7764 7.2343
L0.7764 8.1414
" />
<path d="M0.7764 8.1414
L0.7159 8.3228
" />
<path d="M0.7159 8.3228
L0.5949 8.4438
" />
<path d="M0.5949 8.4438
L0.4135 8.5043
" />
<path d="M0.4135 8.5043
L0.2926 8.5043
" />
<path d="M1.9254 8.5043
L1.9254 7.8390
" />
<path d="M1.9254 7.8390
L1.8649 7.7181
" />
<path d="M1.8649 7.7181
L1.7440 7.6576
" />
<path d="M1.7440 7.6576
L1.5021 7.6576
" />
<path d="M1.5021 7.6576
L1.3811 7.7181
" />
<path d="M1.9254 8.4438
L1.8045 8.5043
" />
<path d="M1.8045 8.5043
L1.5021 8.5043
" />
<path d="M1.5021 8.5043
L1.3811 8.4438
" />
<path d="M1.3811 8.4438
L1.3206 8.3228
" />
<path d="M1.3206 8.3228
L1.3206 8.2019
" />
<path d="M1.3206 8.2019
L1.3811 8.0809
" />
<path d="M1.3811 8.0809
L1.5021 8.0205
" />
<path d="M1.5021 8.0205
L1.8045 8.0205
" />
<path d="M1.8045 8.0205
L1.9254 7.9600
" />
<path d="M3.0745 8.4438
L2.9535 8.5043
" />
<path d="M2.9535 8.5043
L2.7116 8.5043
" />
<path d="M2.7116 8.5043
L2.5906 8.4438
" />
<path d="M2.5906 8.4438
L2.5302 8.3833
" />
<path d="M2.5302 8.3833
L2.4697 8.2624
" />
<path d="M2.4697 8.2624
L2.4697 7.8995
" />
<path d="M2.4697 7.8995
L2.5302 7.7786
" />
<path d="M2.5302 7.7786
L2.5906 7.7181
" />
<path d="M2.5906 7.7181
L2.7116 7.6576
" />
<path d="M2.7116 7.6576
L2.9535 7.6576
" />
<path d="M2.9535 7.6576
L3.0745 7.7181
" />
<path d="M3.6187 8.5043
L3.6187 7.2343
" />
<path d="M3.7397 8.0205
L4.1026 8.5043
" />
<path d="M4.1026 7.6576
L3.6187 8.1414
" />
<path d="M4.3445 8.6252
L5.3121 8.6252
" />
<path d="M5.4935 7.2343
L6.3402 8.5043
" />
<path d="M6.3402 7.2343
L5.4935 8.5043
" />
<path d="M7.4287 8.5043
L6.8240 8.5043
" />
<path d="M6.8240 8.5043
L6.8240 7.2343
" />
<path d="M8.5778 8.5043
L8.1545 7.8995
" />
<path d="M7.8521 8.5043
L7.8521 7.2343
" />
<path d="M7.8521 7.2343
L8.3359 7.2343
" />
<path d="M8.3359 7.2343
L8.4568 7.2947
" />
<path d="M8.4568 7.2947
L8.5173 7.3552
" />
<path d="M8.5173 7.3552
L8.5778 7.4762
" />
<path d="M8.5778 7.4762
L8.5778 7.6576
" />
<path d="M8.5778 7.6576
L8.5173 7.7786
" />
<path d="M8.5173 7.7786
L8.4568 7.8390
" />
<path d="M8.4568 7.8390
L8.3359 7.8995
" />
<path d="M8.3359 7.8995
L7.8521 7.8995
" />
<path d="M9.1221 8.0205
L10.0897 8.0205
" />
<path d="M11.2387 7.2343
L10.9968 7.2343
" />
<path d="M10.9968 7.2343
L10.8759 7.2947
" />
<path d="M10.8759 7.2947
L10.8154 7.3552
" />
<path d="M10.8154 7.3552
L10.6945 7.5367
" />
<path d="M10.6945 7.5367
L10.6340 7.7786
" />
<path d="M10.6340 7.7786
L10.6340 8.2624
" />
<path d="M10.6340 8.2624
L10.6945 8.3833
" />
<path d="M10.6945 8.3833
L10.7549 8.4438
" />
<path d="M10.7549 8.4438
L10.8759 8.5043
" />
<path d="M10.8759 8.5043
L11.1178 8.5043
" />
<path d="M11.1178 8.5043
L11.2387 8.4438
" />
<path d="M11.2387 8.4438
L11.2992 8.3833
" />
<path d="M11.2992 8.3833
L11.3597 8.2624
" />
<path d="M11.3597 8.2624
L11.3597 7.9600
" />
<path d="M11.3597 7.9600
L11.2992 7.8390
" />
<path d="M11.2992 7.8390
L11.2387 7.7786
" />
<path d="M11.2387 7.7786
L11.1178 7.7181
" />
<path d="M11.1178 7.7181
L10.8759 7.7181
" />
<path d="M10.8759 7.7181
L10.7549 7.7786
" />
<path d="M10.7549 7.7786
L10.6945 7.8390
" />
<path d="M10.6945 7.8390
L10.6340 7.9600
" />
<path d="M11.9040 8.3833
L11.9645 8.4438
" />
<path d="M11.9645 8.4438
L11.9040 8.5043
" />
<path d="M11.9040 8.5043
L11.8435 8.4438
" />
<path d="M11.8435 8.4438
L11.9040 8.3833
" />
<path d="M11.9040 8.3833
L11.9040 8.5043
" />
<path d="M12.3878 7.2343
L13.1740 7.2343
" />
<path d="M13.1740 7.2343
L12.7506 7.7181
" />
<path d="M12.7506 7.7181
L12.9321 7.7181
" />
<path d="M12.9321 7.7181
L13.0530 7.7786
" />
<path d="M13.0530 7.7786
L13.1135 7.8390
" />
<path d="M13.1135 7.8390
L13.1740 7.9600
" />
<path d="M13.1740 7.9600
L13.1740 8.2624
" />
<path d="M13.1740 8.2624
L13.1135 8.3833
" />
<path d="M13.1135 8.3833
L13.0530 8.4438
" />
<path d="M13.0530 8.4438
L12.9321 8.5043
" />
<path d="M12.9321 8.5043
L12.5692 8.5043
" />
<path d="M12.5692 8.5043
L12.4483 8.4438
" />
<path d="M12.4483 8.4438
L12.3878 8.3833
" />
<path d="M14.3230 7.2343
L13.7183 7.2343
" />
<path d="M13.7183 7.2343
L13.6578 7.8390
" />
<path d="M13.6578 7.8390
L13.7183 7.7786
" />
<path d="M13.7183 7.7786
L13.8392 7.7181
" />
<path d="M13.8392 7.7181
L14.1416 7.7181
" />
<path d="M14.1416 7.7181
L14.2626 7.7786
" />
<path d="M14.2626 7.7786
L14.3230 7.8390
" />
<path d="M14.3230 7.8390
L14.3835 7.9600
" />
<path d="M14.3835 7.9600
L14.3835 8.2624
" />
<path d="M14.3835 8.2624
L14.3230 8.3833
" />
<path d="M14.3230 8.3833
L14.2626 8.4438
" />
<path d="M14.2626 8.4438
L14.1416 8.5043
" />
<path d="M14.1416 8.5043
L13.8392 8.5043
" />
<path d="M13.8392 8.5043
L13.7183 8.4438
" />
<path d="M13.7183 8.4438
L13.6578 8.3833
" />
<path d="M14.9278 8.5043
L14.9278 7.6576
" />
<path d="M14.9278 7.7786
L14.9883 7.7181
" />
<path d="M14.9883 7.7181
L15.1092 7.6576
" />
<path d="M15.1092 7.6576
L15.2906 7.6576
" />
<path d="M15.2906 7.6576
L15.4116 7.7181
" />
<path d="M15.4116 7.7181
L15.4721 7.8390
" />
<path d="M15.4721 7.8390
L15.4721 8.5043
" />
<path d="M15.4721 7.8390
L15.5326 7.7181
" />
<path d="M15.5326 7.7181
L15.6535 7.6576
" />
<path d="M15.6535 7.6576
L15.8349 7.6576
" />
<path d="M15.8349 7.6576
L15.9559 7.7181
" />
<path d="M15.9559 7.7181
L16.0164 7.8390
" />
<path d="M16.0164 7.8390
L16.0164 8.5043
" />
<path d="M16.6211 8.5043
L16.6211 7.6576
" />
<path d="M16.6211 7.7786
L16.6816 7.7181
" />
<path d="M16.6816 7.7181
L16.8026 7.6576
" />
<path d="M16.8026 7.6576
L16.9840 7.6576
" />
<path d="M16.9840 7.6576
L17.1049 7.7181
" />
<path d="M17.1049 7.7181
L17.1654 7.8390
" />
<path d="M17.1654 7.8390
L17.1654 8.5043
" />
<path d="M17.1654 7.8390
L17.2259 7.7181
" />
<path d="M17.2259 7.7181
L17.3468 7.6576
" />
<path d="M17.3468 7.6576
L17.5283 7.6576
" />
<path d="M17.5283 7.6576
L17.6492 7.7181
" />
<path d="M17.6492 7.7181
L17.7097 7.8390
" />
<path d="M17.7097 7.8390
L17.7097 8.5043
" />
<path d="M18.0121 8.6252
L18.9797 8.6252
" />
<path d="M19.2821 8.5043
L19.2821 7.2343
" />
<path d="M19.2821 7.2343
L20.0078 8.5043
" />
<path d="M20.0078 8.5043
L20.0078 7.2343
" />
<path d="M21.0964 8.4438
L20.9754 8.5043
" />
<path d="M20.9754 8.5043
L20.7335 8.5043
" />
<path d="M20.7335 8.5043
L20.6126 8.4438
" />
<path d="M20.6126 8.4438
L20.5521 8.3228
" />
<path d="M20.5521 8.3228
L20.5521 7.8390
" />
<path d="M20.5521 7.8390
L20.6126 7.7181
" />
<path d="M20.6126 7.7181
L20.7335 7.6576
" />
<path d="M20.7335 7.6576
L20.9754 7.6576
" />
<path d="M20.9754 7.6576
L21.0964 7.7181
" />
<path d="M21.0964 7.7181
L21.1568 7.8390
" />
<path d="M21.1568 7.8390
L21.1568 7.9600
" />
<path d="M21.1568 7.9600
L20.5521 8.0809
" />
<path d="M22.2454 7.6576
L22.2454 8.5043
" />
<path d="M21.7011 7.6576
L21.7011 8.3228
" />
<path d="M21.7011 8.3228
L21.7616 8.4438
" />
<path d="M21.7616 8.4438
L21.8826 8.5043
" />
<path d="M21.8826 8.5043
L22.0640 8.5043
" />
<path d="M22.0640 8.5043
L22.1849 8.4438
" />
<path d="M22.1849 8.4438
L22.2454 8.3833
" />
<path d="M22.6687 7.6576
L23.1526 7.6576
" />
<path d="M22.8502 7.2343
L22.8502 8.3228
" />
<path d="M22.8502 8.3228
L22.9106 8.4438
" />
<path d="M22.9106 8.4438
L23.0316 8.5043
" />
<path d="M23.0316 8.5043
L23.1526 8.5043
" />
<path d="M23.5759 8.5043
L23.5759 7.6576
" />
<path d="M23.5759 7.8995
L23.6364 7.7786
" />
<path d="M23.6364 7.7786
L23.6968 7.7181
" />
<path d="M23.6968 7.7181
L23.8178 7.6576
" />
<path d="M23.8178 7.6576
L23.9387 7.6576
" />
<path d="M24.3621 8.5043
L24.3621 7.6576
" />
<path d="M24.3621 7.2343
L24.3016 7.2947
" />
<path d="M24.3016 7.2947
L24.3621 7.3552
" />
<path d="M24.3621 7.3552
L24.4226 7.2947
" />
<path d="M24.4226 7.2947
L24.3621 7.2343
" />
<path d="M24.3621 7.2343
L24.3621 7.3552
" />
<path d="M24.9668 8.5043
L24.9668 7.2343
" />
<path d="M25.0878 8.0205
L25.4506 8.5043
" />
<path d="M25.4506 7.6576
L24.9668 8.1414
" />
<path d="M25.6926 8.6252
L26.6602 8.6252
" />
<path d="M26.9626 8.5043
L26.9626 7.2343
" />
<path d="M26.9626 7.2343
L27.6883 8.5043
" />
<path d="M27.6883 8.5043
L27.6883 7.2343
" />
<path d="M29.0187 8.3833
L28.9583 8.4438
" />
<path d="M28.9583 8.4438
L28.7768 8.5043
" />
<path d="M28.7768 8.5043
L28.6559 8.5043
" />
<path d="M28.6559 8.5043
L28.4745 8.4438
" />
<path d="M28.4745 8.4438
L28.3535 8.3228
" />
<path d="M28.3535 8.3228
L28.2930 8.2019
" />
<path d="M28.2930 8.2019
L28.2326 7.9600
" />
<path d="M28.2326 7.9600
L28.2326 7.7786
" />
<path d="M28.2326 7.7786
L28.2930 7.5367
" />
<path d="M28.2930 7.5367
L28.3535 7.4157
" />
<path d="M28.3535 7.4157
L28.4745 7.2947
" />
<path d="M28.4745 7.2947
L28.6559 7.2343
" />
<path d="M28.6559 7.2343
L28.7768 7.2343
" />
<path d="M28.7768 7.2343
L28.9583 7.2947
" />
<path d="M28.9583 7.2947
L29.0187 7.3552
" />
<path d="M29.9259 7.2343
L29.9259 8.1414
" />
<path d="M29.9259 8.1414
L29.8654 8.3228
" />
<path d="M29.8654 8.3228
L29.7445 8.4438
" />
<path d="M29.7445 8.4438
L29.5630 8.5043
" />
<path d="M29.5630 8.5043
L29.4421 8.5043
" />
<path d="M31.0749 7.2343
L30.8330 7.2343
" />
<path d="M30.8330 7.2343
L30.7121 7.2947
" />
<path d="M30.7121 7.2947
L30.6516 7.3552
" />
<path d="M30.6516 7.3552
L30.5306 7.5367
" />
<path d="M30.5306 7.5367
L30.4702 7.7786
" />
<path d="M30.4702 7.7786
L30.4702 8.2624
" />
<path d="M30.4702 8.2624
L30.5306 8.3833
" />
<path d="M30.5306 8.3833
L30.5911 8.4438
" />
<path d="M30.5911 8.4438
L30.7121 8.5043
" />
<path d="M30.7121 8.5043
L30.9540 8.5043
" />
<path d="M30.9540 8.5043
L31.0749 8.4438
" />
<path d="M31.0749 8.4438
L31.1354 8.3833
" />
<path d="M31.1354 8.3833
L31.1959 8.2624
" />
<path d="M31.1959 8.2624
L31.1959 7.9600
" />
<path d="M31.1959 7.9600
L31.1354 7.8390
" />
<path d="M31.1354 7.8390
L31.0749 7.7786
" />
<path d="M31.0749 7.7786
L30.9540 7.7181
" />
<path d="M30.9540 7.7181
L30.7121 7.7181
" />
<path d="M30.7121 7.7181
L30.5911 7.7786
" />
<path d="M30.5911 7.7786
L30.5306 7.8390
" />
<path d="M30.5306 7.8390
L30.4702 7.9600
" />
<path d="M32.1635 7.8390
L31.7402 7.8390
" />
<path d="M31.7402 8.5043
L31.7402 7.2343
" />
<path d="M31.7402 7.2343
L32.3449 7.2343
" />
<path d="M32.8287 8.5043
L32.8287 7.2343
" />
<path d="M33.4335 8.0205
L34.4011 8.0205
" />
<path d="M35.0059 8.5043
L35.0059 7.2343
" />
<path d="M35.0059 7.8390
L35.7316 7.8390
" />
<path d="M35.7316 8.5043
L35.7316 7.2343
" />
<path d="M36.0340 8.6252
L37.0016 8.6252
" />
<path d="M37.3040 8.5043
L37.3040 7.2343
" />
<path d="M37.3040 7.8390
L38.0297 7.8390
" />
<path d="M38.0297 8.5043
L38.0297 7.2343
" />
<path d="M38.8159 8.5043
L38.6949 8.4438
" />
<path d="M38.6949 8.4438
L38.6345 8.3833
" />
<path d="M38.6345 8.3833
L38.5740 8.2624
" />
<path d="M38.5740 8.2624
L38.5740 7.8995
" />
<path d="M38.5740 7.8995
L38.6345 7.7786
" />
<path d="M38.6345 7.7786
L38.6949 7.7181
" />
<path d="M38.6949 7.7181
L38.8159 7.6576
" />
<path d="M38.8159 7.6576
L38.9973 7.6576
" />
<path d="M38.9973 7.6576
L39.1183 7.7181
" />
<path d="M39.1183 7.7181
L39.1787 7.7786
" />
<path d="M39.1787 7.7786
L39.2392 7.8995
" />
<path d="M39.2392 7.8995
L39.2392 8.2624
" />
<path d="M39.2392 8.2624
L39.1787 8.3833
" />
<path d="M39.1787 8.3833
L39.1183 8.4438
" />
<path d="M39.1183 8.4438
L38.9973 8.5043
" />
<path d="M38.9973 8.5043
L38.8159 8.5043
" />
<path d="M39.7835 8.5043
L39.7835 7.6576
" />
<path d="M39.7835 7.8995
L39.8440 7.7786
" />
<path d="M39.8440 7.7786
L39.9045 7.7181
" />
<path d="M39.9045 7.7181
L40.0254 7.6576
" />
<path d="M40.0254 7.6576
L40.1464 7.6576
" />
<path d="M40.5697 8.5043
L40.5697 7.6576
" />
<path d="M40.5697 7.2343
L40.5092 7.2947
" />
<path d="M40.5092 7.2947
L40.5697 7.3552
" />
<path d="M40.5697 7.3552
L40.6302 7.2947
" />
<path d="M40.6302 7.2947
L40.5697 7.2343
" />
<path d="M40.5697 7.2343
L40.5697 7.3552
" />
<path d="M41.0535 7.6576
L41.7187 7.6576
" />
<path d="M41.7187 7.6576
L41.0535 8.5043
" />
<path d="M41.0535 8.5043
L41.7187 8.5043
" />
<path d="M42.3840 8.5043
L42.2630 8.4438
" />
<path d="M42.2630 8.4438
L42.2025 8.3833
" />
<path d="M42.2025 8.3833
L42.1421 8.2624
" />
<path d="M42.1421 8.2624
L42.1421 7.8995
" />
<path d="M42.1421 7.8995
L42.2025 7.7786
" />
<path d="M42.2025 7.7786
L42.2630 7.7181
" />
<path d="M42.2630 7.7181
L42.3840 7.6576
" />
<path d="M42.3840 7.6576
L42.5654 7.6576
" />
<path d="M42.5654 7.6576
L42.6864 7.7181
" />
<path d="M42.6864 7.7181
L42.7468 7.7786
" />
<path d="M42.7468 7.7786
L42.8073 7.8995
" />
<path d="M42.8073 7.8995
L42.8073 8.2624
" />
<path d="M42.8073 8.2624
L42.7468 8.3833
" />
<path d="M42.7468 8.3833
L42.6864 8.4438
" />
<path d="M42.6864 8.4438
L42.5654 8.5043
" />
<path d="M42.5654 8.5043
L42.3840 8.5043
" />
<path d="M43.3516 7.6576
L43.3516 8.5043
" />
<path d="M43.3516 7.7786
L43.4121 7.7181
" />
<path d="M43.4121 7.7181
L43.5330 7.6576
" />
<path d="M43.5330 7.6576
L43.7145 7.6576
" />
<path d="M43.7145 7.6576
L43.8354 7.7181
" />
<path d="M43.8354 7.7181
L43.8959 7.8390
" />
<path d="M43.8959 7.8390
L43.8959 8.5043
" />
<path d="M44.3192 7.6576
L44.8030 7.6576
" />
<path d="M44.5006 7.2343
L44.5006 8.3228
" />
<path d="M44.5006 8.3228
L44.5611 8.4438
" />
<path d="M44.5611 8.4438
L44.6821 8.5043
" />
<path d="M44.6821 8.5043
L44.8030 8.5043
" />
<path d="M45.7706 8.5043
L45.7706 7.8390
" />
<path d="M45.7706 7.8390
L45.7102 7.7181
" />
<path d="M45.7102 7.7181
L45.5892 7.6576
" />
<path d="M45.5892 7.6576
L45.3473 7.6576
" />
<path d="M45.3473 7.6576
L45.2264 7.7181
" />
<path d="M45.7706 8.4438
L45.6497 8.5043
" />
<path d="M45.6497 8.5043
L45.3473 8.5043
" />
<path d="M45.3473 8.5043
L45.2264 8.4438
" />
<path d="M45.2264 8.4438
L45.1659 8.3228
" />
<path d="M45.1659 8.3228
L45.1659 8.2019
" />
<path d="M45.1659 8.2019
L45.2264 8.0809
" />
<path d="M45.2264 8.0809
L45.3473 8.0205
" />
<path d="M45.3473 8.0205
L45.6497 8.0205
" />
<path d="M45.6497 8.0205
L45.7706 7.9600
" />
<path d="M46.5568 8.5043
L46.4359 8.4438
" />
<path d="M46.4359 8.4438
L46.3754 8.3228
" />
<path d="M46.3754 8.3228
L46.3754 7.2343
" />
</g></g>
<g style="fill:none; 
stroke:#AFAFAF; stroke-width:0.1500; stroke-opacity:1; 
stroke-linecap:round; stroke-linejoin:round;">
<text x="38.3247" y="14.5250"
textLength="4.5357" font-size="1.3333" lengthAdjust="spacingAndGlyphs"
text-anchor="middle" opacity="0">REF**</text>
<g class="stroked-text"><desc>REF**</desc>
<path d="M36.9914 14.4798
L36.6580 14.0036
" />
<path d="M36.4199 14.4798
L36.4199 13.4798
" />
<path d="M36.4199 13.4798
L36.8009 13.4798
" />
<path d="M36.8009 13.4798
L36.8961 13.5274
" />
<path d="M36.8961 13.5274
L36.9437 13.5751
" />
<path d="M36.9437 13.5751
L36.9914 13.6703
" />
<path d="M36.9914 13.6703
L36.9914 13.8132
" />
<path d="M36.9914 13.8132
L36.9437 13.9084
" />
<path d="M36.9437 13.9084
L36.8961 13.9560
" />
<path d="M36.8961 13.9560
L36.8009 14.0036
" />
<path d="M36.8009 14.0036
L36.4199 14.0036
" />
<path d="M37.4199 13.9560
L37.7533 13.9560
" />
<path d="M37.8961 14.4798
L37.4199 14.4798
" />
<path d="M37.4199 14.4798
L37.4199 13.4798
" />
<path d="M37.4199 13.4798
L37.8961 13.4798
" />
<path d="M38.6580 13.9560
L38.3247 13.9560
" />
<path d="M38.3247 14.4798
L38.3247 13.4798
" />
<path d="M38.3247 13.4798
L38.8009 13.4798
" />
<path d="M39.3247 13.4798
L39.3247 13.7179
" />
<path d="M39.0866 13.6227
L39.3247 13.7179
" />
<path d="M39.3247 13.7179
L39.5628 13.6227
" />
<path d="M39.1818 13.9084
L39.3247 13.7179
" />
<path d="M39.3247 13.7179
L39.4676 13.9084
" />
<path d="M40.0866 13.4798
L40.0866 13.7179
" />
<path d="M39.8485 13.6227
L40.0866 13.7179
" />
<path d="M40.0866 13.7179
L40.3247 13.6227
" />
<path d="M39.9437 13.9084
L40.0866 13.7179
" />
<path d="M40.0866 13.7179
L40.2295 13.9084
" />
</g></g>
<g style="fill:none; 
stroke:#AFAFAF; stroke-width:0.1000; stroke-opacity:1; 
stroke-linecap:round; stroke-linejoin:round;">
<path d="M17.8247 2.0250
L17.8247 26.0250
" />
<path d="M17.8247 26.0250
L25.8247 26.0250
" />
<path d="M25.8247 1.0250
L25.8247 2.0250
" />
<path d="M25.8247 2.0250
L17.8247 2.0250
" />
<path d="M25.8247 26.0250
L25.8247 27.0250
" />
<path d="M25.8247 27.0250
L34.8247 27.0250
" />
<path d="M34.8247 0.5250
L41.8247 0.5250
" />
<path d="M34.8247 1.0250
L25.8247 1.0250
" />
<path d="M34.8247 27.5250
L34.8247 0.5250
" />
<path d="M41.8247 0.5250
L41.8247 27.5250
" />
<path d="M41.8247 2.3250
L48.8247 2.3250
" />
<path d="M41.8247 27.5250
L34.8247 27.5250
" />
<path d="M48.8247 2.3250
L48.8247 25.7250
" />
<path d="M48.8247 25.7250
L41.8247 25.7250
" />
</g>
<g style="fill:none; 
stroke:#C2C2C2; stroke-width:0.1000; stroke-opacity:1; 
stroke-linecap:round; stroke-linejoin:round;">
<path d="M41.8247 0.5250
L41.8247 27.5250
" />
</g> 
</svg>
