<?xml version="1.0" standalone="no"?>
 <!DOCTYPE svg PUBLIC "-//W3C//DTD SVG 1.1//EN" 
 "http://www.w3.org/Graphics/SVG/1.1/DTD/svg11.dtd"> 
<svg
  xmlns:svg="http://www.w3.org/2000/svg"
  xmlns="http://www.w3.org/2000/svg"
  xmlns:xlink="http://www.w3.org/1999/xlink"
  version="1.1"
  width="48.1584mm" height="44.4754mm" viewBox="0.0000 0.0000 48.1584 44.4754">
<title>SVG Image created as working-brd.svg date 2024/04/16 23:33:19 </title>
  <desc>Image generated by PCBNEW </desc>
<g style="fill:#000000; fill-opacity:1.0000;stroke:#000000; stroke-opacity:1.0000;
stroke-linecap:round; stroke-linejoin:round;"
 transform="translate(0 0) scale(1 1)">
<path style="fill:#C83434; fill-opacity:1.0000; stroke:none;fill-rule:evenodd;"
d="M 24.7899,2.4550
24.7899,1.4550
26.6899,1.4550
26.6899,2.4550
Z" /> 
<path style="fill:#C83434; fill-opacity:1.0000; stroke:none;fill-rule:evenodd;"
d="M 21.4899,4.9950
21.4899,3.9950
23.3899,3.9950
23.3899,4.9950
Z" /> 
<path style="fill:#C83434; fill-opacity:1.0000; stroke:none;fill-rule:evenodd;"
d="M 24.7899,7.5350
24.7899,6.5350
26.6899,6.5350
26.6899,7.5350
Z" /> 
<path style="fill:#C83434; fill-opacity:1.0000; stroke:none;fill-rule:evenodd;"
d="M 21.4899,10.0750
21.4899,9.0750
23.3899,9.0750
23.3899,10.0750
Z" /> 
<path style="fill:#C83434; fill-opacity:1.0000; stroke:none;fill-rule:evenodd;"
d="M 24.7899,12.6150
24.7899,11.6150
26.6899,11.6150
26.6899,12.6150
Z" /> 
<path style="fill:#C83434; fill-opacity:1.0000; stroke:none;fill-rule:evenodd;"
d="M 21.4899,15.1550
21.4899,14.1550
23.3899,14.1550
23.3899,15.1550
Z" /> 
<path style="fill:#C83434; fill-opacity:1.0000; stroke:none;fill-rule:evenodd;"
d="M 24.7899,17.6950
24.7899,16.6950
26.6899,16.6950
26.6899,17.6950
Z" /> 
<path style="fill:#C83434; fill-opacity:1.0000; stroke:none;fill-rule:evenodd;"
d="M 21.4899,20.2350
21.4899,19.2350
23.3899,19.2350
23.3899,20.2350
Z" /> 
<path style="fill:#C83434; fill-opacity:1.0000; stroke:none;fill-rule:evenodd;"
d="M 24.7899,22.7750
24.7899,21.7750
26.6899,21.7750
26.6899,22.7750
Z" /> 
<path style="fill:#C83434; fill-opacity:1.0000; stroke:none;fill-rule:evenodd;"
d="M 21.4899,25.3150
21.4899,24.3150
23.3899,24.3150
23.3899,25.3150
Z" /> 
<path style="fill:#C83434; fill-opacity:1.0000; stroke:none;fill-rule:evenodd;"
d="M 24.7899,27.8550
24.7899,26.8550
26.6899,26.8550
26.6899,27.8550
Z" /> 
<path style="fill:#C83434; fill-opacity:1.0000; stroke:none;fill-rule:evenodd;"
d="M 21.4899,30.3950
21.4899,29.3950
23.3899,29.3950
23.3899,30.3950
Z" /> 
<path style="fill:#C83434; fill-opacity:1.0000; stroke:none;fill-rule:evenodd;"
d="M 24.7899,32.9350
24.7899,31.9350
26.6899,31.9350
26.6899,32.9350
Z" /> 
<path style="fill:#C83434; fill-opacity:1.0000; stroke:none;fill-rule:evenodd;"
d="M 21.4899,35.4750
21.4899,34.4750
23.3899,34.4750
23.3899,35.4750
Z" /> 
<path style="fill:#C83434; fill-opacity:1.0000; stroke:none;fill-rule:evenodd;"
d="M 24.7899,38.0150
24.7899,37.0150
26.6899,37.0150
26.6899,38.0150
Z" /> 
<path style="fill:#C83434; fill-opacity:1.0000; stroke:none;fill-rule:evenodd;"
d="M 21.4899,40.5550
21.4899,39.5550
23.3899,39.5550
23.3899,40.5550
Z" /> 
<path style="fill:#C83434; fill-opacity:1.0000; stroke:none;fill-rule:evenodd;"
d="M 24.7899,43.0950
24.7899,42.0950
26.6899,42.0950
26.6899,43.0950
Z" /> 
<path style="fill:#D864FF; fill-opacity:0.4000; stroke:none;fill-rule:evenodd;"
d="M 24.7899,2.4550
24.7899,1.4550
26.6899,1.4550
26.6899,2.4550
Z" /> 
<path style="fill:#D864FF; fill-opacity:0.4000; stroke:none;fill-rule:evenodd;"
d="M 21.4899,4.9950
21.4899,3.9950
23.3899,3.9950
23.3899,4.9950
Z" /> 
<path style="fill:#D864FF; fill-opacity:0.4000; stroke:none;fill-rule:evenodd;"
d="M 24.7899,7.5350
24.7899,6.5350
26.6899,6.5350
26.6899,7.5350
Z" /> 
<path style="fill:#D864FF; fill-opacity:0.4000; stroke:none;fill-rule:evenodd;"
d="M 21.4899,10.0750
21.4899,9.0750
23.3899,9.0750
23.3899,10.0750
Z" /> 
<path style="fill:#D864FF; fill-opacity:0.4000; stroke:none;fill-rule:evenodd;"
d="M 24.7899,12.6150
24.7899,11.6150
26.6899,11.6150
26.6899,12.6150
Z" /> 
<path style="fill:#D864FF; fill-opacity:0.4000; stroke:none;fill-rule:evenodd;"
d="M 21.4899,15.1550
21.4899,14.1550
23.3899,14.1550
23.3899,15.1550
Z" /> 
<path style="fill:#D864FF; fill-opacity:0.4000; stroke:none;fill-rule:evenodd;"
d="M 24.7899,17.6950
24.7899,16.6950
26.6899,16.6950
26.6899,17.6950
Z" /> 
<path style="fill:#D864FF; fill-opacity:0.4000; stroke:none;fill-rule:evenodd;"
d="M 21.4899,20.2350
21.4899,19.2350
23.3899,19.2350
23.3899,20.2350
Z" /> 
<path style="fill:#D864FF; fill-opacity:0.4000; stroke:none;fill-rule:evenodd;"
d="M 24.7899,22.7750
24.7899,21.7750
26.6899,21.7750
26.6899,22.7750
Z" /> 
<path style="fill:#D864FF; fill-opacity:0.4000; stroke:none;fill-rule:evenodd;"
d="M 21.4899,25.3150
21.4899,24.3150
23.3899,24.3150
23.3899,25.3150
Z" /> 
<path style="fill:#D864FF; fill-opacity:0.4000; stroke:none;fill-rule:evenodd;"
d="M 24.7899,27.8550
24.7899,26.8550
26.6899,26.8550
26.6899,27.8550
Z" /> 
<path style="fill:#D864FF; fill-opacity:0.4000; stroke:none;fill-rule:evenodd;"
d="M 21.4899,30.3950
21.4899,29.3950
23.3899,29.3950
23.3899,30.3950
Z" /> 
<path style="fill:#D864FF; fill-opacity:0.4000; stroke:none;fill-rule:evenodd;"
d="M 24.7899,32.9350
24.7899,31.9350
26.6899,31.9350
26.6899,32.9350
Z" /> 
<path style="fill:#D864FF; fill-opacity:0.4000; stroke:none;fill-rule:evenodd;"
d="M 21.4899,35.4750
21.4899,34.4750
23.3899,34.4750
23.3899,35.4750
Z" /> 
<path style="fill:#D864FF; fill-opacity:0.4000; stroke:none;fill-rule:evenodd;"
d="M 24.7899,38.0150
24.7899,37.0150
26.6899,37.0150
26.6899,38.0150
Z" /> 
<path style="fill:#D864FF; fill-opacity:0.4000; stroke:none;fill-rule:evenodd;"
d="M 21.4899,40.5550
21.4899,39.5550
23.3899,39.5550
23.3899,40.5550
Z" /> 
<path style="fill:#D864FF; fill-opacity:0.4000; stroke:none;fill-rule:evenodd;"
d="M 24.7899,43.0950
24.7899,42.0950
26.6899,42.0950
26.6899,43.0950
Z" /> 
<path style="fill:#B4A09A; fill-opacity:0.9000; stroke:none;fill-rule:evenodd;"
d="M 24.7899,2.4550
24.7899,1.4550
26.6899,1.4550
26.6899,2.4550
Z" /> 
<path style="fill:#B4A09A; fill-opacity:0.9000; stroke:none;fill-rule:evenodd;"
d="M 21.4899,4.9950
21.4899,3.9950
23.3899,3.9950
23.3899,4.9950
Z" /> 
<path style="fill:#B4A09A; fill-opacity:0.9000; stroke:none;fill-rule:evenodd;"
d="M 24.7899,7.5350
24.7899,6.5350
26.6899,6.5350
26.6899,7.5350
Z" /> 
<path style="fill:#B4A09A; fill-opacity:0.9000; stroke:none;fill-rule:evenodd;"
d="M 21.4899,10.0750
21.4899,9.0750
23.3899,9.0750
23.3899,10.0750
Z" /> 
<path style="fill:#B4A09A; fill-opacity:0.9000; stroke:none;fill-rule:evenodd;"
d="M 24.7899,12.6150
24.7899,11.6150
26.6899,11.6150
26.6899,12.6150
Z" /> 
<path style="fill:#B4A09A; fill-opacity:0.9000; stroke:none;fill-rule:evenodd;"
d="M 21.4899,15.1550
21.4899,14.1550
23.3899,14.1550
23.3899,15.1550
Z" /> 
<path style="fill:#B4A09A; fill-opacity:0.9000; stroke:none;fill-rule:evenodd;"
d="M 24.7899,17.6950
24.7899,16.6950
26.6899,16.6950
26.6899,17.6950
Z" /> 
<path style="fill:#B4A09A; fill-opacity:0.9000; stroke:none;fill-rule:evenodd;"
d="M 21.4899,20.2350
21.4899,19.2350
23.3899,19.2350
23.3899,20.2350
Z" /> 
<path style="fill:#B4A09A; fill-opacity:0.9000; stroke:none;fill-rule:evenodd;"
d="M 24.7899,22.7750
24.7899,21.7750
26.6899,21.7750
26.6899,22.7750
Z" /> 
<path style="fill:#B4A09A; fill-opacity:0.9000; stroke:none;fill-rule:evenodd;"
d="M 21.4899,25.3150
21.4899,24.3150
23.3899,24.3150
23.3899,25.3150
Z" /> 
<path style="fill:#B4A09A; fill-opacity:0.9000; stroke:none;fill-rule:evenodd;"
d="M 24.7899,27.8550
24.7899,26.8550
26.6899,26.8550
26.6899,27.8550
Z" /> 
<path style="fill:#B4A09A; fill-opacity:0.9000; stroke:none;fill-rule:evenodd;"
d="M 21.4899,30.3950
21.4899,29.3950
23.3899,29.3950
23.3899,30.3950
Z" /> 
<path style="fill:#B4A09A; fill-opacity:0.9000; stroke:none;fill-rule:evenodd;"
d="M 24.7899,32.9350
24.7899,31.9350
26.6899,31.9350
26.6899,32.9350
Z" /> 
<path style="fill:#B4A09A; fill-opacity:0.9000; stroke:none;fill-rule:evenodd;"
d="M 21.4899,35.4750
21.4899,34.4750
23.3899,34.4750
23.3899,35.4750
Z" /> 
<path style="fill:#B4A09A; fill-opacity:0.9000; stroke:none;fill-rule:evenodd;"
d="M 24.7899,38.0150
24.7899,37.0150
26.6899,37.0150
26.6899,38.0150
Z" /> 
<path style="fill:#B4A09A; fill-opacity:0.9000; stroke:none;fill-rule:evenodd;"
d="M 21.4899,40.5550
21.4899,39.5550
23.3899,39.5550
23.3899,40.5550
Z" /> 
<path style="fill:#B4A09A; fill-opacity:0.9000; stroke:none;fill-rule:evenodd;"
d="M 24.7899,43.0950
24.7899,42.0950
26.6899,42.0950
26.6899,43.0950
Z" /> 
</g>
<g style="fill:none; 
stroke:#F2EDA1; stroke-width:0.1588; stroke-opacity:1; 
stroke-linecap:round; stroke-linejoin:round;">
<text x="24.0899" y="22.9100"
textLength="5.6651" font-size="1.6933" lengthAdjust="spacingAndGlyphs"
text-anchor="middle" opacity="0">REF**</text>
<g class="stroked-text"><desc>REF**</desc>
<path d="M22.3966 22.8543
L21.9733 22.2495
" />
<path d="M21.6709 22.8543
L21.6709 21.5843
" />
<path d="M21.6709 21.5843
L22.1547 21.5843
" />
<path d="M22.1547 21.5843
L22.2756 21.6447
" />
<path d="M22.2756 21.6447
L22.3361 21.7052
" />
<path d="M22.3361 21.7052
L22.3966 21.8262
" />
<path d="M22.3966 21.8262
L22.3966 22.0076
" />
<path d="M22.3966 22.0076
L22.3361 22.1286
" />
<path d="M22.3361 22.1286
L22.2756 22.1890
" />
<path d="M22.2756 22.1890
L22.1547 22.2495
" />
<path d="M22.1547 22.2495
L21.6709 22.2495
" />
<path d="M22.9409 22.1890
L23.3642 22.1890
" />
<path d="M23.5456 22.8543
L22.9409 22.8543
" />
<path d="M22.9409 22.8543
L22.9409 21.5843
" />
<path d="M22.9409 21.5843
L23.5456 21.5843
" />
<path d="M24.5133 22.1890
L24.0899 22.1890
" />
<path d="M24.0899 22.8543
L24.0899 21.5843
" />
<path d="M24.0899 21.5843
L24.6947 21.5843
" />
<path d="M25.3599 21.5843
L25.3599 21.8867
" />
<path d="M25.0576 21.7657
L25.3599 21.8867
" />
<path d="M25.3599 21.8867
L25.6623 21.7657
" />
<path d="M25.1785 22.1286
L25.3599 21.8867
" />
<path d="M25.3599 21.8867
L25.5414 22.1286
" />
<path d="M26.3276 21.5843
L26.3276 21.8867
" />
<path d="M26.0252 21.7657
L26.3276 21.8867
" />
<path d="M26.3276 21.8867
L26.6299 21.7657
" />
<path d="M26.1461 22.1286
L26.3276 21.8867
" />
<path d="M26.3276 21.8867
L26.5090 22.1286
" />
</g></g>
<g style="fill:none; 
stroke:#F2EDA1; stroke-width:0.1200; stroke-opacity:1; 
stroke-linecap:round; stroke-linejoin:round;">
<path d="M22.7599 0.5250
L22.7599 3.7350
" />
<path d="M22.7599 0.5250
L25.4199 0.5250
" />
<path d="M22.7599 5.2550
L22.7599 8.8150
" />
<path d="M22.7599 10.3350
L22.7599 13.8950
" />
<path d="M22.7599 15.4150
L22.7599 18.9750
" />
<path d="M22.7599 20.4950
L22.7599 24.0550
" />
<path d="M22.7599 25.5750
L22.7599 29.1350
" />
<path d="M22.7599 30.6550
L22.7599 34.2150
" />
<path d="M22.7599 35.7350
L22.7599 39.2950
" />
<path d="M22.7599 40.8150
L22.7599 44.0250
" />
<path d="M22.7599 44.0250
L25.4199 44.0250
" />
<path d="M25.4199 0.5250
L25.4199 1.1950
" />
<path d="M25.4199 1.1950
L26.6299 1.1950
" />
<path d="M25.4199 2.7150
L25.4199 6.2750
" />
<path d="M25.4199 7.7950
L25.4199 11.3550
" />
<path d="M25.4199 12.8750
L25.4199 16.4350
" />
<path d="M25.4199 17.9550
L25.4199 21.5150
" />
<path d="M25.4199 23.0350
L25.4199 26.5950
" />
<path d="M25.4199 28.1150
L25.4199 31.6750
" />
<path d="M25.4199 33.1950
L25.4199 36.7550
" />
<path d="M25.4199 38.2750
L25.4199 41.8350
" />
<path d="M25.4199 43.3550
L25.4199 44.0250
" />
</g>
<g style="fill:none; 
stroke:#FF26E2; stroke-width:0.0500; stroke-opacity:1; 
stroke-linecap:round; stroke-linejoin:round;">
<path d="M20.9899 0.0250
L27.1899 0.0250
" />
<path d="M20.9899 44.4750
L20.9899 0.0250
" />
<path d="M27.1899 0.0250
L27.1899 44.4750
" />
<path d="M27.1899 44.4750
L20.9899 44.4750
" />
</g>
<g style="fill:none; 
stroke:#AFAFAF; stroke-width:0.1588; stroke-opacity:1; 
stroke-linecap:round; stroke-linejoin:round;">
<text x="24.0899" y="22.9100"
textLength="48.1799" font-size="1.6933" lengthAdjust="spacingAndGlyphs"
text-anchor="middle" opacity="0">PinSocket_1x17_P2.54mm_Vertical_SMD_Pin1Right</text>
<g class="stroked-text"><desc>PinSocket_1x17_P2.54mm_Vertical_SMD_Pin1Right</desc>
<path d="M0.4135 22.8543
L0.4135 21.5843
" />
<path d="M0.4135 21.5843
L0.8973 21.5843
" />
<path d="M0.8973 21.5843
L1.0183 21.6447
" />
<path d="M1.0183 21.6447
L1.0787 21.7052
" />
<path d="M1.0787 21.7052
L1.1392 21.8262
" />
<path d="M1.1392 21.8262
L1.1392 22.0076
" />
<path d="M1.1392 22.0076
L1.0787 22.1286
" />
<path d="M1.0787 22.1286
L1.0183 22.1890
" />
<path d="M1.0183 22.1890
L0.8973 22.2495
" />
<path d="M0.8973 22.2495
L0.4135 22.2495
" />
<path d="M1.6835 22.8543
L1.6835 22.0076
" />
<path d="M1.6835 21.5843
L1.6230 21.6447
" />
<path d="M1.6230 21.6447
L1.6835 21.7052
" />
<path d="M1.6835 21.7052
L1.7440 21.6447
" />
<path d="M1.7440 21.6447
L1.6835 21.5843
" />
<path d="M1.6835 21.5843
L1.6835 21.7052
" />
<path d="M2.2883 22.0076
L2.2883 22.8543
" />
<path d="M2.2883 22.1286
L2.3487 22.0681
" />
<path d="M2.3487 22.0681
L2.4697 22.0076
" />
<path d="M2.4697 22.0076
L2.6511 22.0076
" />
<path d="M2.6511 22.0076
L2.7721 22.0681
" />
<path d="M2.7721 22.0681
L2.8326 22.1890
" />
<path d="M2.8326 22.1890
L2.8326 22.8543
" />
<path d="M3.3768 22.7938
L3.5583 22.8543
" />
<path d="M3.5583 22.8543
L3.8606 22.8543
" />
<path d="M3.8606 22.8543
L3.9816 22.7938
" />
<path d="M3.9816 22.7938
L4.0421 22.7333
" />
<path d="M4.0421 22.7333
L4.1026 22.6124
" />
<path d="M4.1026 22.6124
L4.1026 22.4914
" />
<path d="M4.1026 22.4914
L4.0421 22.3705
" />
<path d="M4.0421 22.3705
L3.9816 22.3100
" />
<path d="M3.9816 22.3100
L3.8606 22.2495
" />
<path d="M3.8606 22.2495
L3.6187 22.1890
" />
<path d="M3.6187 22.1890
L3.4978 22.1286
" />
<path d="M3.4978 22.1286
L3.4373 22.0681
" />
<path d="M3.4373 22.0681
L3.3768 21.9471
" />
<path d="M3.3768 21.9471
L3.3768 21.8262
" />
<path d="M3.3768 21.8262
L3.4373 21.7052
" />
<path d="M3.4373 21.7052
L3.4978 21.6447
" />
<path d="M3.4978 21.6447
L3.6187 21.5843
" />
<path d="M3.6187 21.5843
L3.9211 21.5843
" />
<path d="M3.9211 21.5843
L4.1026 21.6447
" />
<path d="M4.8283 22.8543
L4.7073 22.7938
" />
<path d="M4.7073 22.7938
L4.6468 22.7333
" />
<path d="M4.6468 22.7333
L4.5864 22.6124
" />
<path d="M4.5864 22.6124
L4.5864 22.2495
" />
<path d="M4.5864 22.2495
L4.6468 22.1286
" />
<path d="M4.6468 22.1286
L4.7073 22.0681
" />
<path d="M4.7073 22.0681
L4.8283 22.0076
" />
<path d="M4.8283 22.0076
L5.0097 22.0076
" />
<path d="M5.0097 22.0076
L5.1307 22.0681
" />
<path d="M5.1307 22.0681
L5.1911 22.1286
" />
<path d="M5.1911 22.1286
L5.2516 22.2495
" />
<path d="M5.2516 22.2495
L5.2516 22.6124
" />
<path d="M5.2516 22.6124
L5.1911 22.7333
" />
<path d="M5.1911 22.7333
L5.1307 22.7938
" />
<path d="M5.1307 22.7938
L5.0097 22.8543
" />
<path d="M5.0097 22.8543
L4.8283 22.8543
" />
<path d="M6.3402 22.7938
L6.2192 22.8543
" />
<path d="M6.2192 22.8543
L5.9773 22.8543
" />
<path d="M5.9773 22.8543
L5.8564 22.7938
" />
<path d="M5.8564 22.7938
L5.7959 22.7333
" />
<path d="M5.7959 22.7333
L5.7354 22.6124
" />
<path d="M5.7354 22.6124
L5.7354 22.2495
" />
<path d="M5.7354 22.2495
L5.7959 22.1286
" />
<path d="M5.7959 22.1286
L5.8564 22.0681
" />
<path d="M5.8564 22.0681
L5.9773 22.0076
" />
<path d="M5.9773 22.0076
L6.2192 22.0076
" />
<path d="M6.2192 22.0076
L6.3402 22.0681
" />
<path d="M6.8845 22.8543
L6.8845 21.5843
" />
<path d="M7.0054 22.3705
L7.3683 22.8543
" />
<path d="M7.3683 22.0076
L6.8845 22.4914
" />
<path d="M8.3964 22.7938
L8.2754 22.8543
" />
<path d="M8.2754 22.8543
L8.0335 22.8543
" />
<path d="M8.0335 22.8543
L7.9126 22.7938
" />
<path d="M7.9126 22.7938
L7.8521 22.6728
" />
<path d="M7.8521 22.6728
L7.8521 22.1890
" />
<path d="M7.8521 22.1890
L7.9126 22.0681
" />
<path d="M7.9126 22.0681
L8.0335 22.0076
" />
<path d="M8.0335 22.0076
L8.2754 22.0076
" />
<path d="M8.2754 22.0076
L8.3964 22.0681
" />
<path d="M8.3964 22.0681
L8.4568 22.1890
" />
<path d="M8.4568 22.1890
L8.4568 22.3100
" />
<path d="M8.4568 22.3100
L7.8521 22.4309
" />
<path d="M8.8197 22.0076
L9.3035 22.0076
" />
<path d="M9.0011 21.5843
L9.0011 22.6728
" />
<path d="M9.0011 22.6728
L9.0616 22.7938
" />
<path d="M9.0616 22.7938
L9.1826 22.8543
" />
<path d="M9.1826 22.8543
L9.3035 22.8543
" />
<path d="M9.4245 22.9752
L10.3921 22.9752
" />
<path d="M11.3597 22.8543
L10.6340 22.8543
" />
<path d="M10.9968 22.8543
L10.9968 21.5843
" />
<path d="M10.9968 21.5843
L10.8759 21.7657
" />
<path d="M10.8759 21.7657
L10.7549 21.8867
" />
<path d="M10.7549 21.8867
L10.6340 21.9471
" />
<path d="M11.7830 22.8543
L12.4483 22.0076
" />
<path d="M11.7830 22.0076
L12.4483 22.8543
" />
<path d="M13.5973 22.8543
L12.8716 22.8543
" />
<path d="M13.2345 22.8543
L13.2345 21.5843
" />
<path d="M13.2345 21.5843
L13.1135 21.7657
" />
<path d="M13.1135 21.7657
L12.9926 21.8867
" />
<path d="M12.9926 21.8867
L12.8716 21.9471
" />
<path d="M14.0206 21.5843
L14.8673 21.5843
" />
<path d="M14.8673 21.5843
L14.3230 22.8543
" />
<path d="M15.0487 22.9752
L16.0164 22.9752
" />
<path d="M16.3187 22.8543
L16.3187 21.5843
" />
<path d="M16.3187 21.5843
L16.8026 21.5843
" />
<path d="M16.8026 21.5843
L16.9235 21.6447
" />
<path d="M16.9235 21.6447
L16.9840 21.7052
" />
<path d="M16.9840 21.7052
L17.0445 21.8262
" />
<path d="M17.0445 21.8262
L17.0445 22.0076
" />
<path d="M17.0445 22.0076
L16.9840 22.1286
" />
<path d="M16.9840 22.1286
L16.9235 22.1890
" />
<path d="M16.9235 22.1890
L16.8026 22.2495
" />
<path d="M16.8026 22.2495
L16.3187 22.2495
" />
<path d="M17.5283 21.7052
L17.5887 21.6447
" />
<path d="M17.5887 21.6447
L17.7097 21.5843
" />
<path d="M17.7097 21.5843
L18.0121 21.5843
" />
<path d="M18.0121 21.5843
L18.1330 21.6447
" />
<path d="M18.1330 21.6447
L18.1935 21.7052
" />
<path d="M18.1935 21.7052
L18.2540 21.8262
" />
<path d="M18.2540 21.8262
L18.2540 21.9471
" />
<path d="M18.2540 21.9471
L18.1935 22.1286
" />
<path d="M18.1935 22.1286
L17.4678 22.8543
" />
<path d="M17.4678 22.8543
L18.2540 22.8543
" />
<path d="M18.7983 22.7333
L18.8587 22.7938
" />
<path d="M18.8587 22.7938
L18.7983 22.8543
" />
<path d="M18.7983 22.8543
L18.7378 22.7938
" />
<path d="M18.7378 22.7938
L18.7983 22.7333
" />
<path d="M18.7983 22.7333
L18.7983 22.8543
" />
<path d="M20.0078 21.5843
L19.4030 21.5843
" />
<path d="M19.4030 21.5843
L19.3426 22.1890
" />
<path d="M19.3426 22.1890
L19.4030 22.1286
" />
<path d="M19.4030 22.1286
L19.5240 22.0681
" />
<path d="M19.5240 22.0681
L19.8264 22.0681
" />
<path d="M19.8264 22.0681
L19.9473 22.1286
" />
<path d="M19.9473 22.1286
L20.0078 22.1890
" />
<path d="M20.0078 22.1890
L20.0683 22.3100
" />
<path d="M20.0683 22.3100
L20.0683 22.6124
" />
<path d="M20.0683 22.6124
L20.0078 22.7333
" />
<path d="M20.0078 22.7333
L19.9473 22.7938
" />
<path d="M19.9473 22.7938
L19.8264 22.8543
" />
<path d="M19.8264 22.8543
L19.5240 22.8543
" />
<path d="M19.5240 22.8543
L19.4030 22.7938
" />
<path d="M19.4030 22.7938
L19.3426 22.7333
" />
<path d="M21.1568 22.0076
L21.1568 22.8543
" />
<path d="M20.8545 21.5238
L20.5521 22.4309
" />
<path d="M20.5521 22.4309
L21.3383 22.4309
" />
<path d="M21.8221 22.8543
L21.8221 22.0076
" />
<path d="M21.8221 22.1286
L21.8826 22.0681
" />
<path d="M21.8826 22.0681
L22.0035 22.0076
" />
<path d="M22.0035 22.0076
L22.1849 22.0076
" />
<path d="M22.1849 22.0076
L22.3059 22.0681
" />
<path d="M22.3059 22.0681
L22.3664 22.1890
" />
<path d="M22.3664 22.1890
L22.3664 22.8543
" />
<path d="M22.3664 22.1890
L22.4268 22.0681
" />
<path d="M22.4268 22.0681
L22.5478 22.0076
" />
<path d="M22.5478 22.0076
L22.7292 22.0076
" />
<path d="M22.7292 22.0076
L22.8502 22.0681
" />
<path d="M22.8502 22.0681
L22.9107 22.1890
" />
<path d="M22.9107 22.1890
L22.9107 22.8543
" />
<path d="M23.5154 22.8543
L23.5154 22.0076
" />
<path d="M23.5154 22.1286
L23.5759 22.0681
" />
<path d="M23.5759 22.0681
L23.6968 22.0076
" />
<path d="M23.6968 22.0076
L23.8783 22.0076
" />
<path d="M23.8783 22.0076
L23.9992 22.0681
" />
<path d="M23.9992 22.0681
L24.0597 22.1890
" />
<path d="M24.0597 22.1890
L24.0597 22.8543
" />
<path d="M24.0597 22.1890
L24.1202 22.0681
" />
<path d="M24.1202 22.0681
L24.2411 22.0076
" />
<path d="M24.2411 22.0076
L24.4226 22.0076
" />
<path d="M24.4226 22.0076
L24.5435 22.0681
" />
<path d="M24.5435 22.0681
L24.6040 22.1890
" />
<path d="M24.6040 22.1890
L24.6040 22.8543
" />
<path d="M24.9064 22.9752
L25.8740 22.9752
" />
<path d="M25.9949 21.5843
L26.4183 22.8543
" />
<path d="M26.4183 22.8543
L26.8416 21.5843
" />
<path d="M27.7487 22.7938
L27.6278 22.8543
" />
<path d="M27.6278 22.8543
L27.3859 22.8543
" />
<path d="M27.3859 22.8543
L27.2649 22.7938
" />
<path d="M27.2649 22.7938
L27.2045 22.6728
" />
<path d="M27.2045 22.6728
L27.2045 22.1890
" />
<path d="M27.2045 22.1890
L27.2649 22.0681
" />
<path d="M27.2649 22.0681
L27.3859 22.0076
" />
<path d="M27.3859 22.0076
L27.6278 22.0076
" />
<path d="M27.6278 22.0076
L27.7487 22.0681
" />
<path d="M27.7487 22.0681
L27.8092 22.1890
" />
<path d="M27.8092 22.1890
L27.8092 22.3100
" />
<path d="M27.8092 22.3100
L27.2045 22.4309
" />
<path d="M28.3535 22.8543
L28.3535 22.0076
" />
<path d="M28.3535 22.2495
L28.4140 22.1286
" />
<path d="M28.4140 22.1286
L28.4745 22.0681
" />
<path d="M28.4745 22.0681
L28.5954 22.0076
" />
<path d="M28.5954 22.0076
L28.7164 22.0076
" />
<path d="M28.9583 22.0076
L29.4421 22.0076
" />
<path d="M29.1397 21.5843
L29.1397 22.6728
" />
<path d="M29.1397 22.6728
L29.2002 22.7938
" />
<path d="M29.2002 22.7938
L29.3211 22.8543
" />
<path d="M29.3211 22.8543
L29.4421 22.8543
" />
<path d="M29.8654 22.8543
L29.8654 22.0076
" />
<path d="M29.8654 21.5843
L29.8049 21.6447
" />
<path d="M29.8049 21.6447
L29.8654 21.7052
" />
<path d="M29.8654 21.7052
L29.9259 21.6447
" />
<path d="M29.9259 21.6447
L29.8654 21.5843
" />
<path d="M29.8654 21.5843
L29.8654 21.7052
" />
<path d="M31.0145 22.7938
L30.8935 22.8543
" />
<path d="M30.8935 22.8543
L30.6516 22.8543
" />
<path d="M30.6516 22.8543
L30.5306 22.7938
" />
<path d="M30.5306 22.7938
L30.4702 22.7333
" />
<path d="M30.4702 22.7333
L30.4097 22.6124
" />
<path d="M30.4097 22.6124
L30.4097 22.2495
" />
<path d="M30.4097 22.2495
L30.4702 22.1286
" />
<path d="M30.4702 22.1286
L30.5306 22.0681
" />
<path d="M30.5306 22.0681
L30.6516 22.0076
" />
<path d="M30.6516 22.0076
L30.8935 22.0076
" />
<path d="M30.8935 22.0076
L31.0145 22.0681
" />
<path d="M32.1030 22.8543
L32.1030 22.1890
" />
<path d="M32.1030 22.1890
L32.0426 22.0681
" />
<path d="M32.0426 22.0681
L31.9216 22.0076
" />
<path d="M31.9216 22.0076
L31.6797 22.0076
" />
<path d="M31.6797 22.0076
L31.5587 22.0681
" />
<path d="M32.1030 22.7938
L31.9821 22.8543
" />
<path d="M31.9821 22.8543
L31.6797 22.8543
" />
<path d="M31.6797 22.8543
L31.5587 22.7938
" />
<path d="M31.5587 22.7938
L31.4983 22.6728
" />
<path d="M31.4983 22.6728
L31.4983 22.5519
" />
<path d="M31.4983 22.5519
L31.5587 22.4309
" />
<path d="M31.5587 22.4309
L31.6797 22.3705
" />
<path d="M31.6797 22.3705
L31.9821 22.3705
" />
<path d="M31.9821 22.3705
L32.1030 22.3100
" />
<path d="M32.8892 22.8543
L32.7683 22.7938
" />
<path d="M32.7683 22.7938
L32.7078 22.6728
" />
<path d="M32.7078 22.6728
L32.7078 21.5843
" />
<path d="M33.0706 22.9752
L34.0383 22.9752
" />
<path d="M34.2802 22.7938
L34.4616 22.8543
" />
<path d="M34.4616 22.8543
L34.7640 22.8543
" />
<path d="M34.7640 22.8543
L34.8849 22.7938
" />
<path d="M34.8849 22.7938
L34.9454 22.7333
" />
<path d="M34.9454 22.7333
L35.0059 22.6124
" />
<path d="M35.0059 22.6124
L35.0059 22.4914
" />
<path d="M35.0059 22.4914
L34.9454 22.3705
" />
<path d="M34.9454 22.3705
L34.8849 22.3100
" />
<path d="M34.8849 22.3100
L34.7640 22.2495
" />
<path d="M34.7640 22.2495
L34.5221 22.1890
" />
<path d="M34.5221 22.1890
L34.4011 22.1286
" />
<path d="M34.4011 22.1286
L34.3406 22.0681
" />
<path d="M34.3406 22.0681
L34.2802 21.9471
" />
<path d="M34.2802 21.9471
L34.2802 21.8262
" />
<path d="M34.2802 21.8262
L34.3406 21.7052
" />
<path d="M34.3406 21.7052
L34.4011 21.6447
" />
<path d="M34.4011 21.6447
L34.5221 21.5843
" />
<path d="M34.5221 21.5843
L34.8245 21.5843
" />
<path d="M34.8245 21.5843
L35.0059 21.6447
" />
<path d="M35.5502 22.8543
L35.5502 21.5843
" />
<path d="M35.5502 21.5843
L35.9735 22.4914
" />
<path d="M35.9735 22.4914
L36.3968 21.5843
" />
<path d="M36.3968 21.5843
L36.3968 22.8543
" />
<path d="M37.0016 22.8543
L37.0016 21.5843
" />
<path d="M37.0016 21.5843
L37.3040 21.5843
" />
<path d="M37.3040 21.5843
L37.4854 21.6447
" />
<path d="M37.4854 21.6447
L37.6064 21.7657
" />
<path d="M37.6064 21.7657
L37.6668 21.8867
" />
<path d="M37.6668 21.8867
L37.7273 22.1286
" />
<path d="M37.7273 22.1286
L37.7273 22.3100
" />
<path d="M37.7273 22.3100
L37.6668 22.5519
" />
<path d="M37.6668 22.5519
L37.6064 22.6728
" />
<path d="M37.6064 22.6728
L37.4854 22.7938
" />
<path d="M37.4854 22.7938
L37.3040 22.8543
" />
<path d="M37.3040 22.8543
L37.0016 22.8543
" />
<path d="M37.9692 22.9752
L38.9368 22.9752
" />
<path d="M39.2392 22.8543
L39.2392 21.5843
" />
<path d="M39.2392 21.5843
L39.7230 21.5843
" />
<path d="M39.7230 21.5843
L39.8440 21.6447
" />
<path d="M39.8440 21.6447
L39.9045 21.7052
" />
<path d="M39.9045 21.7052
L39.9649 21.8262
" />
<path d="M39.9649 21.8262
L39.9649 22.0076
" />
<path d="M39.9649 22.0076
L39.9045 22.1286
" />
<path d="M39.9045 22.1286
L39.8440 22.1890
" />
<path d="M39.8440 22.1890
L39.7230 22.2495
" />
<path d="M39.7230 22.2495
L39.2392 22.2495
" />
<path d="M40.5092 22.8543
L40.5092 22.0076
" />
<path d="M40.5092 21.5843
L40.4487 21.6447
" />
<path d="M40.4487 21.6447
L40.5092 21.7052
" />
<path d="M40.5092 21.7052
L40.5697 21.6447
" />
<path d="M40.5697 21.6447
L40.5092 21.5843
" />
<path d="M40.5092 21.5843
L40.5092 21.7052
" />
<path d="M41.1140 22.0076
L41.1140 22.8543
" />
<path d="M41.1140 22.1286
L41.1745 22.0681
" />
<path d="M41.1745 22.0681
L41.2954 22.0076
" />
<path d="M41.2954 22.0076
L41.4768 22.0076
" />
<path d="M41.4768 22.0076
L41.5978 22.0681
" />
<path d="M41.5978 22.0681
L41.6583 22.1890
" />
<path d="M41.6583 22.1890
L41.6583 22.8543
" />
<path d="M42.9283 22.8543
L42.2026 22.8543
" />
<path d="M42.5654 22.8543
L42.5654 21.5843
" />
<path d="M42.5654 21.5843
L42.4445 21.7657
" />
<path d="M42.4445 21.7657
L42.3235 21.8867
" />
<path d="M42.3235 21.8867
L42.2026 21.9471
" />
<path d="M44.1983 22.8543
L43.7749 22.2495
" />
<path d="M43.4726 22.8543
L43.4726 21.5843
" />
<path d="M43.4726 21.5843
L43.9564 21.5843
" />
<path d="M43.9564 21.5843
L44.0773 21.6447
" />
<path d="M44.0773 21.6447
L44.1378 21.7052
" />
<path d="M44.1378 21.7052
L44.1983 21.8262
" />
<path d="M44.1983 21.8262
L44.1983 22.0076
" />
<path d="M44.1983 22.0076
L44.1378 22.1286
" />
<path d="M44.1378 22.1286
L44.0773 22.1890
" />
<path d="M44.0773 22.1890
L43.9564 22.2495
" />
<path d="M43.9564 22.2495
L43.4726 22.2495
" />
<path d="M44.7426 22.8543
L44.7426 22.0076
" />
<path d="M44.7426 21.5843
L44.6821 21.6447
" />
<path d="M44.6821 21.6447
L44.7426 21.7052
" />
<path d="M44.7426 21.7052
L44.8030 21.6447
" />
<path d="M44.8030 21.6447
L44.7426 21.5843
" />
<path d="M44.7426 21.5843
L44.7426 21.7052
" />
<path d="M45.8916 22.0076
L45.8916 23.0357
" />
<path d="M45.8916 23.0357
L45.8311 23.1567
" />
<path d="M45.8311 23.1567
L45.7706 23.2171
" />
<path d="M45.7706 23.2171
L45.6497 23.2776
" />
<path d="M45.6497 23.2776
L45.4683 23.2776
" />
<path d="M45.4683 23.2776
L45.3473 23.2171
" />
<path d="M45.8916 22.7938
L45.7706 22.8543
" />
<path d="M45.7706 22.8543
L45.5287 22.8543
" />
<path d="M45.5287 22.8543
L45.4078 22.7938
" />
<path d="M45.4078 22.7938
L45.3473 22.7333
" />
<path d="M45.3473 22.7333
L45.2868 22.6124
" />
<path d="M45.2868 22.6124
L45.2868 22.2495
" />
<path d="M45.2868 22.2495
L45.3473 22.1286
" />
<path d="M45.3473 22.1286
L45.4078 22.0681
" />
<path d="M45.4078 22.0681
L45.5287 22.0076
" />
<path d="M45.5287 22.0076
L45.7706 22.0076
" />
<path d="M45.7706 22.0076
L45.8916 22.0681
" />
<path d="M46.4964 22.8543
L46.4964 21.5843
" />
<path d="M47.0406 22.8543
L47.0406 22.1890
" />
<path d="M47.0406 22.1890
L46.9802 22.0681
" />
<path d="M46.9802 22.0681
L46.8592 22.0076
" />
<path d="M46.8592 22.0076
L46.6778 22.0076
" />
<path d="M46.6778 22.0076
L46.5568 22.0681
" />
<path d="M46.5568 22.0681
L46.4964 22.1286
" />
<path d="M47.4640 22.0076
L47.9478 22.0076
" />
<path d="M47.6454 21.5843
L47.6454 22.6728
" />
<path d="M47.6454 22.6728
L47.7059 22.7938
" />
<path d="M47.7059 22.7938
L47.8268 22.8543
" />
<path d="M47.8268 22.8543
L47.9478 22.8543
" />
</g></g>
<g style="fill:none; 
stroke:#AFAFAF; stroke-width:0.1500; stroke-opacity:1; 
stroke-linecap:round; stroke-linejoin:round;">
<g transform="rotate(-90.000000 24.0899 22.2750)">
<text x="24.0899" y="22.7750"
textLength="4.5357" font-size="1.3333" lengthAdjust="spacingAndGlyphs"
text-anchor="middle" opacity="0">REF**</text>
</g>
<g class="stroked-text"><desc>REF**</desc>
<path d="M24.5448 23.6083
L24.0686 23.9417
" />
<path d="M24.5448 24.1798
L23.5448 24.1798
" />
<path d="M23.5448 24.1798
L23.5448 23.7988
" />
<path d="M23.5448 23.7988
L23.5924 23.7036
" />
<path d="M23.5924 23.7036
L23.6400 23.6560
" />
<path d="M23.6400 23.6560
L23.7352 23.6083
" />
<path d="M23.7352 23.6083
L23.8781 23.6083
" />
<path d="M23.8781 23.6083
L23.9733 23.6560
" />
<path d="M23.9733 23.6560
L24.0209 23.7036
" />
<path d="M24.0209 23.7036
L24.0686 23.7988
" />
<path d="M24.0686 23.7988
L24.0686 24.1798
" />
<path d="M24.0209 23.1798
L24.0209 22.8464
" />
<path d="M24.5448 22.7036
L24.5448 23.1798
" />
<path d="M24.5448 23.1798
L23.5448 23.1798
" />
<path d="M23.5448 23.1798
L23.5448 22.7036
" />
<path d="M24.0209 21.9417
L24.0209 22.2750
" />
<path d="M24.5448 22.2750
L23.5448 22.2750
" />
<path d="M23.5448 22.2750
L23.5448 21.7988
" />
<path d="M23.5448 21.2750
L23.7828 21.2750
" />
<path d="M23.6876 21.5131
L23.7828 21.2750
" />
<path d="M23.7828 21.2750
L23.6876 21.0369
" />
<path d="M23.9733 21.4179
L23.7828 21.2750
" />
<path d="M23.7828 21.2750
L23.9733 21.1321
" />
<path d="M23.5448 20.5131
L23.7828 20.5131
" />
<path d="M23.6876 20.7512
L23.7828 20.5131
" />
<path d="M23.7828 20.5131
L23.6876 20.2750
" />
<path d="M23.9733 20.6560
L23.7828 20.5131
" />
<path d="M23.7828 20.5131
L23.9733 20.3702
" />
</g></g>
<g style="fill:none; 
stroke:#AFAFAF; stroke-width:0.1000; stroke-opacity:1; 
stroke-linecap:round; stroke-linejoin:round;">
<path d="M21.8199 4.1950
L22.8199 4.1950
" />
<path d="M21.8199 4.7950
L21.8199 4.1950
" />
<path d="M21.8199 9.2750
L22.8199 9.2750
" />
<path d="M21.8199 9.8750
L21.8199 9.2750
" />
<path d="M21.8199 14.3550
L22.8199 14.3550
" />
<path d="M21.8199 14.9550
L21.8199 14.3550
" />
<path d="M21.8199 19.4350
L22.8199 19.4350
" />
<path d="M21.8199 20.0350
L21.8199 19.4350
" />
<path d="M21.8199 24.5150
L22.8199 24.5150
" />
<path d="M21.8199 25.1150
L21.8199 24.5150
" />
<path d="M21.8199 29.5950
L22.8199 29.5950
" />
<path d="M21.8199 30.1950
L21.8199 29.5950
" />
<path d="M21.8199 34.6750
L22.8199 34.6750
" />
<path d="M21.8199 35.2750
L21.8199 34.6750
" />
<path d="M21.8199 39.7550
L22.8199 39.7550
" />
<path d="M21.8199 40.3550
L21.8199 39.7550
" />
<path d="M22.8199 0.5850
L24.7249 0.5850
" />
<path d="M22.8199 4.7950
L21.8199 4.7950
" />
<path d="M22.8199 9.8750
L21.8199 9.8750
" />
<path d="M22.8199 14.9550
L21.8199 14.9550
" />
<path d="M22.8199 20.0350
L21.8199 20.0350
" />
<path d="M22.8199 25.1150
L21.8199 25.1150
" />
<path d="M22.8199 30.1950
L21.8199 30.1950
" />
<path d="M22.8199 35.2750
L21.8199 35.2750
" />
<path d="M22.8199 40.3550
L21.8199 40.3550
" />
<path d="M22.8199 43.9650
L22.8199 0.5850
" />
<path d="M24.7249 0.5850
L25.3599 1.2200
" />
<path d="M25.3599 1.2200
L25.3599 43.9650
" />
<path d="M25.3599 1.6550
L26.3599 1.6550
" />
<path d="M25.3599 6.7350
L26.3599 6.7350
" />
<path d="M25.3599 11.8150
L26.3599 11.8150
" />
<path d="M25.3599 16.8950
L26.3599 16.8950
" />
<path d="M25.3599 21.9750
L26.3599 21.9750
" />
<path d="M25.3599 27.0550
L26.3599 27.0550
" />
<path d="M25.3599 32.1350
L26.3599 32.1350
" />
<path d="M25.3599 37.2150
L26.3599 37.2150
" />
<path d="M25.3599 42.2950
L26.3599 42.2950
" />
<path d="M25.3599 43.9650
L22.8199 43.9650
" />
<path d="M26.3599 1.6550
L26.3599 2.2550
" />
<path d="M26.3599 2.2550
L25.3599 2.2550
" />
<path d="M26.3599 6.7350
L26.3599 7.3350
" />
<path d="M26.3599 7.3350
L25.3599 7.3350
" />
<path d="M26.3599 11.8150
L26.3599 12.4150
" />
<path d="M26.3599 12.4150
L25.3599 12.4150
" />
<path d="M26.3599 16.8950
L26.3599 17.4950
" />
<path d="M26.3599 17.4950
L25.3599 17.4950
" />
<path d="M26.3599 21.9750
L26.3599 22.5750
" />
<path d="M26.3599 22.5750
L25.3599 22.5750
" />
<path d="M26.3599 27.0550
L26.3599 27.6550
" />
<path d="M26.3599 27.6550
L25.3599 27.6550
" />
<path d="M26.3599 32.1350
L26.3599 32.7350
" />
<path d="M26.3599 32.7350
L25.3599 32.7350
" />
<path d="M26.3599 37.2150
L26.3599 37.8150
" />
<path d="M26.3599 37.8150
L25.3599 37.8150
" />
<path d="M26.3599 42.2950
L26.3599 42.8950
" />
<path d="M26.3599 42.8950
L25.3599 42.8950
" />
</g> 
</svg>
