<?xml version="1.0" standalone="no"?>
 <!DOCTYPE svg PUBLIC "-//W3C//DTD SVG 1.1//EN" 
 "http://www.w3.org/Graphics/SVG/1.1/DTD/svg11.dtd"> 
<svg
  xmlns:svg="http://www.w3.org/2000/svg"
  xmlns="http://www.w3.org/2000/svg"
  xmlns:xlink="http://www.w3.org/1999/xlink"
  version="1.1"
  width="21.4884mm" height="5.6388mm" viewBox="0.0000 0.0000 21.4884 5.6388">
<title>SVG Image created as working-brd.svg date 2024/04/07 04:22:40 </title>
  <desc>Image generated by PCBNEW </desc>
<g style="fill:#000000; fill-opacity:1.0000;stroke:#000000; stroke-opacity:1.0000;
stroke-linecap:round; stroke-linejoin:round;"
 transform="translate(0 0) scale(1 1)">
<path style="fill:#C83434; fill-opacity:1.0000; stroke:none;fill-rule:evenodd;"
d="M 8.2049,4.9200
8.2049,0.7200
9.6049,0.7200
9.6049,4.9200
Z" /> 
<path style="fill:#C83434; fill-opacity:1.0000; stroke:none;fill-rule:evenodd;"
d="M 11.9049,4.9200
11.9049,0.7200
13.3049,0.7200
13.3049,4.9200
Z" /> 
<path style="fill:#D864FF; fill-opacity:0.4000; stroke:none;fill-rule:evenodd;"
d="M 8.2049,4.9200
8.2049,0.7200
9.6049,0.7200
9.6049,4.9200
Z" /> 
<path style="fill:#D864FF; fill-opacity:0.4000; stroke:none;fill-rule:evenodd;"
d="M 11.9049,4.9200
11.9049,0.7200
13.3049,0.7200
13.3049,4.9200
Z" /> 
<path style="fill:#B4A09A; fill-opacity:0.9000; stroke:none;fill-rule:evenodd;"
d="M 8.2049,4.9200
8.2049,0.7200
9.6049,0.7200
9.6049,4.9200
Z" /> 
<path style="fill:#B4A09A; fill-opacity:0.9000; stroke:none;fill-rule:evenodd;"
d="M 11.9049,4.9200
11.9049,0.7200
13.3049,0.7200
13.3049,4.9200
Z" /> 
</g>
<g style="fill:none; 
stroke:#F2EDA1; stroke-width:0.1588; stroke-opacity:1; 
stroke-linecap:round; stroke-linejoin:round;">
<text x="10.7549" y="3.4550"
textLength="5.6651" font-size="1.6933" lengthAdjust="spacingAndGlyphs"
text-anchor="middle" opacity="0">REF**</text>
<g class="stroked-text"><desc>REF**</desc>
<path d="M9.0616 3.3993
L8.6383 2.7945
" />
<path d="M8.3359 3.3993
L8.3359 2.1293
" />
<path d="M8.3359 2.1293
L8.8197 2.1293
" />
<path d="M8.8197 2.1293
L8.9406 2.1897
" />
<path d="M8.9406 2.1897
L9.0011 2.2502
" />
<path d="M9.0011 2.2502
L9.0616 2.3712
" />
<path d="M9.0616 2.3712
L9.0616 2.5526
" />
<path d="M9.0616 2.5526
L9.0011 2.6736
" />
<path d="M9.0011 2.6736
L8.9406 2.7340
" />
<path d="M8.9406 2.7340
L8.8197 2.7945
" />
<path d="M8.8197 2.7945
L8.3359 2.7945
" />
<path d="M9.6059 2.7340
L10.0292 2.7340
" />
<path d="M10.2106 3.3993
L9.6059 3.3993
" />
<path d="M9.6059 3.3993
L9.6059 2.1293
" />
<path d="M9.6059 2.1293
L10.2106 2.1293
" />
<path d="M11.1783 2.7340
L10.7549 2.7340
" />
<path d="M10.7549 3.3993
L10.7549 2.1293
" />
<path d="M10.7549 2.1293
L11.3597 2.1293
" />
<path d="M12.0249 2.1293
L12.0249 2.4317
" />
<path d="M11.7226 2.3107
L12.0249 2.4317
" />
<path d="M12.0249 2.4317
L12.3273 2.3107
" />
<path d="M11.8435 2.6736
L12.0249 2.4317
" />
<path d="M12.0249 2.4317
L12.2064 2.6736
" />
<path d="M12.9926 2.1293
L12.9926 2.4317
" />
<path d="M12.6902 2.3107
L12.9926 2.4317
" />
<path d="M12.9926 2.4317
L13.2949 2.3107
" />
<path d="M12.8111 2.6736
L12.9926 2.4317
" />
<path d="M12.9926 2.4317
L13.1740 2.6736
" />
</g></g>
<g style="fill:none; 
stroke:#F2EDA1; stroke-width:0.1200; stroke-opacity:1; 
stroke-linecap:round; stroke-linejoin:round;">
<path d="M7.9949 0.0600
L7.9949 0.4600
" />
<path d="M7.9949 0.0600
L13.5149 0.0600
" />
<path d="M7.9949 5.5800
L7.9949 5.1800
" />
<path d="M7.9949 5.5800
L13.5149 5.5800
" />
<path d="M13.5149 0.0600
L13.5149 0.4600
" />
<path d="M13.5149 5.5800
L13.5149 5.1800
" />
</g>
<g style="fill:none; 
stroke:#FF26E2; stroke-width:0.0500; stroke-opacity:1; 
stroke-linecap:round; stroke-linejoin:round;">
<path d="M7.9549 0.0700
L7.9549 5.5700
" />
<path d="M7.9549 5.5700
L13.5549 5.5700
" />
<path d="M13.5549 0.0700
L7.9549 0.0700
" />
<path d="M13.5549 5.5700
L13.5549 0.0700
" />
</g>
<g style="fill:none; 
stroke:#AFAFAF; stroke-width:0.1588; stroke-opacity:1; 
stroke-linecap:round; stroke-linejoin:round;">
<text x="10.7549" y="3.4550"
textLength="21.5099" font-size="1.6933" lengthAdjust="spacingAndGlyphs"
text-anchor="middle" opacity="0">L_Sunlord_SWPA5040S</text>
<g class="stroked-text"><desc>L_Sunlord_SWPA5040S</desc>
<path d="M1.0183 3.3993
L0.4135 3.3993
" />
<path d="M0.4135 3.3993
L0.4135 2.1293
" />
<path d="M1.1392 3.5202
L2.1068 3.5202
" />
<path d="M2.3487 3.3388
L2.5302 3.3993
" />
<path d="M2.5302 3.3993
L2.8326 3.3993
" />
<path d="M2.8326 3.3993
L2.9535 3.3388
" />
<path d="M2.9535 3.3388
L3.0140 3.2783
" />
<path d="M3.0140 3.2783
L3.0745 3.1574
" />
<path d="M3.0745 3.1574
L3.0745 3.0364
" />
<path d="M3.0745 3.0364
L3.0140 2.9155
" />
<path d="M3.0140 2.9155
L2.9535 2.8550
" />
<path d="M2.9535 2.8550
L2.8326 2.7945
" />
<path d="M2.8326 2.7945
L2.5906 2.7340
" />
<path d="M2.5906 2.7340
L2.4697 2.6736
" />
<path d="M2.4697 2.6736
L2.4092 2.6131
" />
<path d="M2.4092 2.6131
L2.3487 2.4921
" />
<path d="M2.3487 2.4921
L2.3487 2.3712
" />
<path d="M2.3487 2.3712
L2.4092 2.2502
" />
<path d="M2.4092 2.2502
L2.4697 2.1897
" />
<path d="M2.4697 2.1897
L2.5906 2.1293
" />
<path d="M2.5906 2.1293
L2.8930 2.1293
" />
<path d="M2.8930 2.1293
L3.0745 2.1897
" />
<path d="M4.1630 2.5526
L4.1630 3.3993
" />
<path d="M3.6187 2.5526
L3.6187 3.2178
" />
<path d="M3.6187 3.2178
L3.6792 3.3388
" />
<path d="M3.6792 3.3388
L3.8002 3.3993
" />
<path d="M3.8002 3.3993
L3.9816 3.3993
" />
<path d="M3.9816 3.3993
L4.1026 3.3388
" />
<path d="M4.1026 3.3388
L4.1630 3.2783
" />
<path d="M4.7678 2.5526
L4.7678 3.3993
" />
<path d="M4.7678 2.6736
L4.8283 2.6131
" />
<path d="M4.8283 2.6131
L4.9492 2.5526
" />
<path d="M4.9492 2.5526
L5.1307 2.5526
" />
<path d="M5.1307 2.5526
L5.2516 2.6131
" />
<path d="M5.2516 2.6131
L5.3121 2.7340
" />
<path d="M5.3121 2.7340
L5.3121 3.3993
" />
<path d="M6.0983 3.3993
L5.9773 3.3388
" />
<path d="M5.9773 3.3388
L5.9168 3.2178
" />
<path d="M5.9168 3.2178
L5.9168 2.1293
" />
<path d="M6.7635 3.3993
L6.6426 3.3388
" />
<path d="M6.6426 3.3388
L6.5821 3.2783
" />
<path d="M6.5821 3.2783
L6.5216 3.1574
" />
<path d="M6.5216 3.1574
L6.5216 2.7945
" />
<path d="M6.5216 2.7945
L6.5821 2.6736
" />
<path d="M6.5821 2.6736
L6.6426 2.6131
" />
<path d="M6.6426 2.6131
L6.7635 2.5526
" />
<path d="M6.7635 2.5526
L6.9449 2.5526
" />
<path d="M6.9449 2.5526
L7.0659 2.6131
" />
<path d="M7.0659 2.6131
L7.1264 2.6736
" />
<path d="M7.1264 2.6736
L7.1868 2.7945
" />
<path d="M7.1868 2.7945
L7.1868 3.1574
" />
<path d="M7.1868 3.1574
L7.1264 3.2783
" />
<path d="M7.1264 3.2783
L7.0659 3.3388
" />
<path d="M7.0659 3.3388
L6.9449 3.3993
" />
<path d="M6.9449 3.3993
L6.7635 3.3993
" />
<path d="M7.7311 3.3993
L7.7311 2.5526
" />
<path d="M7.7311 2.7945
L7.7916 2.6736
" />
<path d="M7.7916 2.6736
L7.8521 2.6131
" />
<path d="M7.8521 2.6131
L7.9730 2.5526
" />
<path d="M7.9730 2.5526
L8.0940 2.5526
" />
<path d="M9.0616 3.3993
L9.0616 2.1293
" />
<path d="M9.0616 3.3388
L8.9406 3.3993
" />
<path d="M8.9406 3.3993
L8.6987 3.3993
" />
<path d="M8.6987 3.3993
L8.5778 3.3388
" />
<path d="M8.5778 3.3388
L8.5173 3.2783
" />
<path d="M8.5173 3.2783
L8.4568 3.1574
" />
<path d="M8.4568 3.1574
L8.4568 2.7945
" />
<path d="M8.4568 2.7945
L8.5173 2.6736
" />
<path d="M8.5173 2.6736
L8.5778 2.6131
" />
<path d="M8.5778 2.6131
L8.6987 2.5526
" />
<path d="M8.6987 2.5526
L8.9406 2.5526
" />
<path d="M8.9406 2.5526
L9.0616 2.6131
" />
<path d="M9.3640 3.5202
L10.3316 3.5202
" />
<path d="M10.5735 3.3388
L10.7549 3.3993
" />
<path d="M10.7549 3.3993
L11.0573 3.3993
" />
<path d="M11.0573 3.3993
L11.1783 3.3388
" />
<path d="M11.1783 3.3388
L11.2387 3.2783
" />
<path d="M11.2387 3.2783
L11.2992 3.1574
" />
<path d="M11.2992 3.1574
L11.2992 3.0364
" />
<path d="M11.2992 3.0364
L11.2387 2.9155
" />
<path d="M11.2387 2.9155
L11.1783 2.8550
" />
<path d="M11.1783 2.8550
L11.0573 2.7945
" />
<path d="M11.0573 2.7945
L10.8154 2.7340
" />
<path d="M10.8154 2.7340
L10.6945 2.6736
" />
<path d="M10.6945 2.6736
L10.6340 2.6131
" />
<path d="M10.6340 2.6131
L10.5735 2.4921
" />
<path d="M10.5735 2.4921
L10.5735 2.3712
" />
<path d="M10.5735 2.3712
L10.6340 2.2502
" />
<path d="M10.6340 2.2502
L10.6945 2.1897
" />
<path d="M10.6945 2.1897
L10.8154 2.1293
" />
<path d="M10.8154 2.1293
L11.1178 2.1293
" />
<path d="M11.1178 2.1293
L11.2992 2.1897
" />
<path d="M11.7226 2.1293
L12.0249 3.3993
" />
<path d="M12.0249 3.3993
L12.2668 2.4921
" />
<path d="M12.2668 2.4921
L12.5087 3.3993
" />
<path d="M12.5087 3.3993
L12.8111 2.1293
" />
<path d="M13.2949 3.3993
L13.2949 2.1293
" />
<path d="M13.2949 2.1293
L13.7787 2.1293
" />
<path d="M13.7787 2.1293
L13.8997 2.1897
" />
<path d="M13.8997 2.1897
L13.9602 2.2502
" />
<path d="M13.9602 2.2502
L14.0206 2.3712
" />
<path d="M14.0206 2.3712
L14.0206 2.5526
" />
<path d="M14.0206 2.5526
L13.9602 2.6736
" />
<path d="M13.9602 2.6736
L13.8997 2.7340
" />
<path d="M13.8997 2.7340
L13.7787 2.7945
" />
<path d="M13.7787 2.7945
L13.2949 2.7945
" />
<path d="M14.5045 3.0364
L15.1092 3.0364
" />
<path d="M14.3835 3.3993
L14.8068 2.1293
" />
<path d="M14.8068 2.1293
L15.2302 3.3993
" />
<path d="M16.2583 2.1293
L15.6535 2.1293
" />
<path d="M15.6535 2.1293
L15.5930 2.7340
" />
<path d="M15.5930 2.7340
L15.6535 2.6736
" />
<path d="M15.6535 2.6736
L15.7745 2.6131
" />
<path d="M15.7745 2.6131
L16.0768 2.6131
" />
<path d="M16.0768 2.6131
L16.1978 2.6736
" />
<path d="M16.1978 2.6736
L16.2583 2.7340
" />
<path d="M16.2583 2.7340
L16.3187 2.8550
" />
<path d="M16.3187 2.8550
L16.3187 3.1574
" />
<path d="M16.3187 3.1574
L16.2583 3.2783
" />
<path d="M16.2583 3.2783
L16.1978 3.3388
" />
<path d="M16.1978 3.3388
L16.0768 3.3993
" />
<path d="M16.0768 3.3993
L15.7745 3.3993
" />
<path d="M15.7745 3.3993
L15.6535 3.3388
" />
<path d="M15.6535 3.3388
L15.5930 3.2783
" />
<path d="M17.1049 2.1293
L17.2259 2.1293
" />
<path d="M17.2259 2.1293
L17.3468 2.1897
" />
<path d="M17.3468 2.1897
L17.4073 2.2502
" />
<path d="M17.4073 2.2502
L17.4678 2.3712
" />
<path d="M17.4678 2.3712
L17.5283 2.6131
" />
<path d="M17.5283 2.6131
L17.5283 2.9155
" />
<path d="M17.5283 2.9155
L17.4678 3.1574
" />
<path d="M17.4678 3.1574
L17.4073 3.2783
" />
<path d="M17.4073 3.2783
L17.3468 3.3388
" />
<path d="M17.3468 3.3388
L17.2259 3.3993
" />
<path d="M17.2259 3.3993
L17.1049 3.3993
" />
<path d="M17.1049 3.3993
L16.9840 3.3388
" />
<path d="M16.9840 3.3388
L16.9235 3.2783
" />
<path d="M16.9235 3.2783
L16.8630 3.1574
" />
<path d="M16.8630 3.1574
L16.8026 2.9155
" />
<path d="M16.8026 2.9155
L16.8026 2.6131
" />
<path d="M16.8026 2.6131
L16.8630 2.3712
" />
<path d="M16.8630 2.3712
L16.9235 2.2502
" />
<path d="M16.9235 2.2502
L16.9840 2.1897
" />
<path d="M16.9840 2.1897
L17.1049 2.1293
" />
<path d="M18.6168 2.5526
L18.6168 3.3993
" />
<path d="M18.3145 2.0688
L18.0121 2.9759
" />
<path d="M18.0121 2.9759
L18.7983 2.9759
" />
<path d="M19.5240 2.1293
L19.6449 2.1293
" />
<path d="M19.6449 2.1293
L19.7659 2.1897
" />
<path d="M19.7659 2.1897
L19.8264 2.2502
" />
<path d="M19.8264 2.2502
L19.8868 2.3712
" />
<path d="M19.8868 2.3712
L19.9473 2.6131
" />
<path d="M19.9473 2.6131
L19.9473 2.9155
" />
<path d="M19.9473 2.9155
L19.8868 3.1574
" />
<path d="M19.8868 3.1574
L19.8264 3.2783
" />
<path d="M19.8264 3.2783
L19.7659 3.3388
" />
<path d="M19.7659 3.3388
L19.6449 3.3993
" />
<path d="M19.6449 3.3993
L19.5240 3.3993
" />
<path d="M19.5240 3.3993
L19.4030 3.3388
" />
<path d="M19.4030 3.3388
L19.3426 3.2783
" />
<path d="M19.3426 3.2783
L19.2821 3.1574
" />
<path d="M19.2821 3.1574
L19.2216 2.9155
" />
<path d="M19.2216 2.9155
L19.2216 2.6131
" />
<path d="M19.2216 2.6131
L19.2821 2.3712
" />
<path d="M19.2821 2.3712
L19.3426 2.2502
" />
<path d="M19.3426 2.2502
L19.4030 2.1897
" />
<path d="M19.4030 2.1897
L19.5240 2.1293
" />
<path d="M20.4311 3.3388
L20.6126 3.3993
" />
<path d="M20.6126 3.3993
L20.9149 3.3993
" />
<path d="M20.9149 3.3993
L21.0359 3.3388
" />
<path d="M21.0359 3.3388
L21.0964 3.2783
" />
<path d="M21.0964 3.2783
L21.1568 3.1574
" />
<path d="M21.1568 3.1574
L21.1568 3.0364
" />
<path d="M21.1568 3.0364
L21.0964 2.9155
" />
<path d="M21.0964 2.9155
L21.0359 2.8550
" />
<path d="M21.0359 2.8550
L20.9149 2.7945
" />
<path d="M20.9149 2.7945
L20.6730 2.7340
" />
<path d="M20.6730 2.7340
L20.5521 2.6736
" />
<path d="M20.5521 2.6736
L20.4916 2.6131
" />
<path d="M20.4916 2.6131
L20.4311 2.4921
" />
<path d="M20.4311 2.4921
L20.4311 2.3712
" />
<path d="M20.4311 2.3712
L20.4916 2.2502
" />
<path d="M20.4916 2.2502
L20.5521 2.1897
" />
<path d="M20.5521 2.1897
L20.6730 2.1293
" />
<path d="M20.6730 2.1293
L20.9754 2.1293
" />
<path d="M20.9754 2.1293
L21.1568 2.1897
" />
</g></g>
<g style="fill:none; 
stroke:#AFAFAF; stroke-width:0.0750; stroke-opacity:1; 
stroke-linecap:round; stroke-linejoin:round;">
<text x="10.7549" y="3.0700"
textLength="2.2679" font-size="0.6667" lengthAdjust="spacingAndGlyphs"
text-anchor="middle" opacity="0">REF**</text>
<g class="stroked-text"><desc>REF**</desc>
<path d="M10.0883 3.0474
L9.9216 2.8093
" />
<path d="M9.8026 3.0474
L9.8026 2.5474
" />
<path d="M9.8026 2.5474
L9.9930 2.5474
" />
<path d="M9.9930 2.5474
L10.0406 2.5712
" />
<path d="M10.0406 2.5712
L10.0645 2.5950
" />
<path d="M10.0645 2.5950
L10.0883 2.6426
" />
<path d="M10.0883 2.6426
L10.0883 2.7141
" />
<path d="M10.0883 2.7141
L10.0645 2.7617
" />
<path d="M10.0645 2.7617
L10.0406 2.7855
" />
<path d="M10.0406 2.7855
L9.9930 2.8093
" />
<path d="M9.9930 2.8093
L9.8026 2.8093
" />
<path d="M10.3026 2.7855
L10.4692 2.7855
" />
<path d="M10.5406 3.0474
L10.3026 3.0474
" />
<path d="M10.3026 3.0474
L10.3026 2.5474
" />
<path d="M10.3026 2.5474
L10.5406 2.5474
" />
<path d="M10.9216 2.7855
L10.7549 2.7855
" />
<path d="M10.7549 3.0474
L10.7549 2.5474
" />
<path d="M10.7549 2.5474
L10.9930 2.5474
" />
<path d="M11.2549 2.5474
L11.2549 2.6665
" />
<path d="M11.1359 2.6188
L11.2549 2.6665
" />
<path d="M11.2549 2.6665
L11.3740 2.6188
" />
<path d="M11.1835 2.7617
L11.2549 2.6665
" />
<path d="M11.2549 2.6665
L11.3264 2.7617
" />
<path d="M11.6359 2.5474
L11.6359 2.6665
" />
<path d="M11.5168 2.6188
L11.6359 2.6665
" />
<path d="M11.6359 2.6665
L11.7549 2.6188
" />
<path d="M11.5645 2.7617
L11.6359 2.6665
" />
<path d="M11.6359 2.6665
L11.7073 2.7617
" />
</g></g>
<g style="fill:none; 
stroke:#AFAFAF; stroke-width:0.1000; stroke-opacity:1; 
stroke-linecap:round; stroke-linejoin:round;">
<path d="M8.2549 0.3200
L8.2549 5.3200
" />
<path d="M8.2549 5.3200
L13.2549 5.3200
" />
<path d="M13.2549 0.3200
L8.2549 0.3200
" />
<path d="M13.2549 5.3200
L13.2549 0.3200
" />
</g> 
</svg>
