<?xml version="1.0" standalone="no"?>
 <!DOCTYPE svg PUBLIC "-//W3C//DTD SVG 1.1//EN" 
 "http://www.w3.org/Graphics/SVG/1.1/DTD/svg11.dtd"> 
<svg
  xmlns:svg="http://www.w3.org/2000/svg"
  xmlns="http://www.w3.org/2000/svg"
  xmlns:xlink="http://www.w3.org/1999/xlink"
  version="1.1"
  width="59.2836mm" height="7.9248mm" viewBox="0.0000 0.0000 59.2836 7.9248">
<title>SVG Image created as working-brd.svg date 2024/04/07 22:33:10 </title>
  <desc>Image generated by PCBNEW </desc>
<g style="fill:#000000; fill-opacity:1.0000;stroke:#000000; stroke-opacity:1.0000;
stroke-linecap:round; stroke-linejoin:round;"
 transform="translate(0 0) scale(1 1)">
</g>
<g style="fill:#FFFFFF; fill-opacity:1.0000; stroke:none;">
<circle cx="29.6537" cy="3.9750" r="0.5000" /> 
</g>
<g style="fill:#02FFEE; fill-opacity:0.4000; stroke:none;">
<circle cx="29.6537" cy="3.9750" r="0.5000" /> 
</g>
<g style="fill:#FFFFFF; fill-opacity:1.0000; stroke:none;">
<circle cx="29.6537" cy="3.9750" r="0.5000" /> 
</g>
<g style="fill:#C83434; fill-opacity:1.0000; stroke:none;">
<circle cx="27.5537" cy="3.9750" r="1.4000" /> 
</g>
<g style="fill:#C83434; fill-opacity:1.0000; stroke:none;">
<circle cx="29.6537" cy="1.8750" r="1.4000" /> 
</g>
<g style="fill:#C83434; fill-opacity:1.0000; stroke:none;">
<circle cx="29.6537" cy="6.0750" r="1.4000" /> 
<path style="fill:#C83434; fill-opacity:1.0000; stroke:none;fill-rule:evenodd;"
d="M 30.0405,0.2953
30.4230,0.3559
30.7971,0.4561
31.1587,0.5949
31.5037,0.7707
31.8286,0.9816
32.1295,1.2254
32.4034,1.4992
32.6471,1.8002
32.8580,2.1250
33.0339,2.4701
33.1727,2.8316
33.2729,3.2057
33.3335,3.5882
33.3537,3.9750
33.3335,4.3618
33.2729,4.7443
33.1727,5.1184
33.0339,5.4799
32.8580,5.8250
32.6471,6.1498
32.4034,6.4508
32.1295,6.7246
31.8286,6.9684
31.5037,7.1793
31.1587,7.3551
30.7971,7.4939
30.4230,7.5941
30.0405,7.6547
29.6537,7.6750
29.2670,7.6547
28.8845,7.5941
28.5104,7.4939
28.1488,7.3551
27.8037,7.1793
27.4789,6.9684
27.1780,6.7246
26.9041,6.4508
26.6604,6.1498
26.4495,5.8250
26.2736,5.4799
26.1348,5.1184
26.0346,4.7443
25.9740,4.3618
25.9537,3.9750
29.1486,3.9750
29.1691,4.1173
29.2288,4.2481
29.3229,4.3568
29.4439,4.4345
29.5819,4.4750
29.7256,4.4750
29.8636,4.4345
29.9845,4.3568
30.0787,4.2481
30.1384,4.1173
30.1589,3.9750
30.1384,3.8327
30.0787,3.7019
29.9845,3.5932
29.8636,3.5155
29.7256,3.4750
29.5819,3.4750
29.4439,3.5155
29.3229,3.5932
29.2288,3.7019
29.1691,3.8327
29.1486,3.9750
25.9537,3.9750
25.9740,3.5882
26.0346,3.2057
26.1348,2.8316
26.2736,2.4701
26.4495,2.1250
26.6604,1.8002
26.9041,1.4992
27.1780,1.2254
27.4789,0.9816
27.8037,0.7707
28.1488,0.5949
28.5104,0.4561
28.8845,0.3559
29.2670,0.2953
29.6537,0.2750
Z" /> 
</g>
<g style="fill:#FFFFFF; fill-opacity:1.0000; stroke:none;">
<circle cx="29.6537" cy="3.9750" r="0.5000" /> 
</g>
<g style="fill:#D864FF; fill-opacity:0.4000; stroke:none;">
<circle cx="29.6537" cy="3.9750" r="0.5000" /> 
<path style="fill:#D864FF; fill-opacity:0.4000; stroke:none;fill-rule:evenodd;"
d="M 30.0405,0.2953
30.4230,0.3559
30.7971,0.4561
31.1587,0.5949
31.5037,0.7707
31.8286,0.9816
32.1295,1.2254
32.4034,1.4992
32.6471,1.8002
32.8580,2.1250
33.0339,2.4701
33.1727,2.8316
33.2729,3.2057
33.3335,3.5882
33.3537,3.9750
33.3335,4.3618
33.2729,4.7443
33.1727,5.1184
33.0339,5.4799
32.8580,5.8250
32.6471,6.1498
32.4034,6.4508
32.1295,6.7246
31.8286,6.9684
31.5037,7.1793
31.1587,7.3551
30.7971,7.4939
30.4230,7.5941
30.0405,7.6547
29.6537,7.6750
29.2670,7.6547
28.8845,7.5941
28.5104,7.4939
28.1488,7.3551
27.8037,7.1793
27.4789,6.9684
27.1780,6.7246
26.9041,6.4508
26.6604,6.1498
26.4495,5.8250
26.2736,5.4799
26.1348,5.1184
26.0346,4.7443
25.9740,4.3618
25.9537,3.9750
29.1486,3.9750
29.1691,4.1173
29.2288,4.2481
29.3229,4.3568
29.4439,4.4345
29.5819,4.4750
29.7256,4.4750
29.8636,4.4345
29.9845,4.3568
30.0787,4.2481
30.1384,4.1173
30.1589,3.9750
30.1384,3.8327
30.0787,3.7019
29.9845,3.5932
29.8636,3.5155
29.7256,3.4750
29.5819,3.4750
29.4439,3.5155
29.3229,3.5932
29.2288,3.7019
29.1691,3.8327
29.1486,3.9750
25.9537,3.9750
25.9740,3.5882
26.0346,3.2057
26.1348,2.8316
26.2736,2.4701
26.4495,2.1250
26.6604,1.8002
26.9041,1.4992
27.1780,1.2254
27.4789,0.9816
27.8037,0.7707
28.1488,0.5949
28.5104,0.4561
28.8845,0.3559
29.2670,0.2953
29.6537,0.2750
Z" /> 
<path style="fill:#B4A09A; fill-opacity:0.9000; stroke:none;fill-rule:evenodd;"
d="M 30.2054,0.4175
30.5679,0.4930
30.9208,0.6053
31.2602,0.7533
31.5827,0.9354
31.8847,1.1496
32.1632,1.3938
32.4151,1.6652
32.6377,1.9611
32.8288,2.2783
32.9863,2.6134
33.1086,2.9630
33.1943,3.3233
33.1942,3.3243
33.1947,3.3255
33.1947,3.3645
33.1797,3.4006
33.1521,3.4281
33.1161,3.4431
30.8988,3.4444
30.8982,3.4446
30.8978,3.4444
29.9589,3.4450
29.9394,3.4431
29.9227,3.4362
29.9145,3.4346
29.8534,3.4052
29.7211,3.3750
29.5855,3.3751
29.4533,3.4055
29.3922,3.4350
29.3837,3.4366
29.3681,3.4431
29.3500,3.4431
29.3414,3.4447
29.3367,3.4431
29.1766,3.4432
29.1747,3.4440
29.1680,3.4432
28.8650,3.4434
28.8614,3.4438
28.8606,3.4434
28.7500,3.4435
28.7434,3.4446
28.7402,3.4435
28.6356,3.4435
28.6295,3.4450
28.6247,3.4435
28.5232,3.4436
28.5184,3.4450
28.5128,3.4436
28.4128,3.4437
28.4092,3.4448
28.4035,3.4437
28.3038,3.4437
28.3015,3.4446
28.2965,3.4437
28.1961,3.4438
28.1949,3.4443
28.1914,3.4438
28.0894,3.4439
28.0891,3.4440
28.0882,3.4439
26.2109,3.4450
26.1937,3.4433
26.1929,3.4434
26.1925,3.4432
26.1914,3.4431
26.1554,3.4281
26.1504,3.4232
26.1461,3.4212
26.1411,3.4139
26.1278,3.4006
26.1216,3.3856
26.1167,3.3786
26.1163,3.3728
26.1128,3.3645
26.1128,3.3306
26.1125,3.3270
26.1128,3.3258
26.1128,3.3255
26.1130,3.3251
26.1978,2.9666
26.3197,2.6170
26.4769,2.2816
26.6676,1.9643
26.8900,1.6681
27.1416,1.3964
27.4198,1.1520
27.7216,0.9374
28.0439,0.7550
28.3832,0.6067
28.7359,0.4940
29.0984,0.4181
29.4667,0.3799
29.8370,0.3797
Z" /> 
<path style="fill:#B4A09A; fill-opacity:0.9000; stroke:none;fill-rule:evenodd;"
d="M 33.1138,4.5067
33.1146,4.5066
33.1150,4.5068
33.1161,4.5069
33.1521,4.5219
33.1571,4.5268
33.1614,4.5288
33.1664,4.5361
33.1797,4.5494
33.1859,4.5644
33.1908,4.5714
33.1912,4.5772
33.1947,4.5855
33.1947,4.6194
33.1949,4.6230
33.1947,4.6242
33.1947,4.6245
33.1945,4.6249
33.1096,4.9834
32.9878,5.3330
32.8306,5.6683
32.6399,5.9857
32.4175,6.2819
32.1659,6.5536
31.8877,6.7980
31.5859,7.0126
31.2636,7.1950
30.9243,7.3433
30.5716,7.4560
30.2091,7.5319
29.8408,7.5701
29.4705,7.5703
29.1021,7.5325
28.7396,7.4570
28.3867,7.3447
28.0473,7.1967
27.7248,7.0146
27.4228,6.8004
27.1443,6.5562
26.8924,6.2848
26.6698,5.9889
26.4787,5.6717
26.3212,5.3366
26.1989,4.9870
26.1132,4.6267
26.1133,4.6257
26.1128,4.6245
26.1128,4.5855
26.1278,4.5494
26.1554,4.5219
26.1914,4.5069
28.4086,4.5056
28.4093,4.5054
28.4097,4.5056
29.3486,4.5050
29.3681,4.5069
29.3848,4.5138
29.3930,4.5154
29.4541,4.5448
29.5864,4.5750
29.7220,4.5749
29.8542,4.5445
29.9153,4.5150
29.9238,4.5134
29.9394,4.5069
29.9575,4.5069
29.9661,4.5053
29.9708,4.5069
30.1309,4.5068
30.1328,4.5060
30.1395,4.5068
30.4425,4.5066
30.4461,4.5062
30.4469,4.5066
30.5575,4.5065
30.5641,4.5054
30.5673,4.5065
30.6719,4.5065
30.6780,4.5050
30.6827,4.5065
30.7843,4.5064
30.7891,4.5050
30.7947,4.5064
30.8947,4.5063
30.8983,4.5052
30.9039,4.5063
31.0037,4.5063
31.0060,4.5054
31.0110,4.5063
31.1114,4.5062
31.1126,4.5057
31.1161,4.5062
31.2181,4.5061
31.2184,4.5060
31.2193,4.5061
33.0966,4.5050
Z" /> 
</g>
<g style="fill:none; 
stroke:#F2EDA1; stroke-width:0.1588; stroke-opacity:1; 
stroke-linecap:round; stroke-linejoin:round;">
<text x="29.6537" y="4.6100"
textLength="5.6651" font-size="1.6933" lengthAdjust="spacingAndGlyphs"
text-anchor="middle" opacity="0">REF**</text>
<g class="stroked-text"><desc>REF**</desc>
<path d="M27.9604 4.5543
L27.5371 3.9495
" />
<path d="M27.2347 4.5543
L27.2347 3.2843
" />
<path d="M27.2347 3.2843
L27.7185 3.2843
" />
<path d="M27.7185 3.2843
L27.8395 3.3447
" />
<path d="M27.8395 3.3447
L27.8999 3.4052
" />
<path d="M27.8999 3.4052
L27.9604 3.5262
" />
<path d="M27.9604 3.5262
L27.9604 3.7076
" />
<path d="M27.9604 3.7076
L27.8999 3.8286
" />
<path d="M27.8999 3.8286
L27.8395 3.8890
" />
<path d="M27.8395 3.8890
L27.7185 3.9495
" />
<path d="M27.7185 3.9495
L27.2347 3.9495
" />
<path d="M28.5047 3.8890
L28.9280 3.8890
" />
<path d="M29.1095 4.5543
L28.5047 4.5543
" />
<path d="M28.5047 4.5543
L28.5047 3.2843
" />
<path d="M28.5047 3.2843
L29.1095 3.2843
" />
<path d="M30.0771 3.8890
L29.6537 3.8890
" />
<path d="M29.6537 4.5543
L29.6537 3.2843
" />
<path d="M29.6537 3.2843
L30.2585 3.2843
" />
<path d="M30.9237 3.2843
L30.9237 3.5867
" />
<path d="M30.6214 3.4657
L30.9237 3.5867
" />
<path d="M30.9237 3.5867
L31.2261 3.4657
" />
<path d="M30.7423 3.8286
L30.9237 3.5867
" />
<path d="M30.9237 3.5867
L31.1052 3.8286
" />
<path d="M31.8914 3.2843
L31.8914 3.5867
" />
<path d="M31.5890 3.4657
L31.8914 3.5867
" />
<path d="M31.8914 3.5867
L32.1937 3.4657
" />
<path d="M31.7099 3.8286
L31.8914 3.5867
" />
<path d="M31.8914 3.5867
L32.0728 3.8286
" />
</g></g>
<g style="fill:#FFFFFF; fill-opacity:1.0000; stroke:none;">
<circle cx="29.6537" cy="3.9750" r="0.5000" /> 
</g>
<g style="fill:none; 
stroke:#FF26E2; stroke-width:0.0500; stroke-opacity:1; 
stroke-linecap:round; stroke-linejoin:round;">
<circle cx="29.6537" cy="3.9750" r="3.9500" /> 
</g>
<g style="fill:none; 
stroke:#AFAFAF; stroke-width:0.1588; stroke-opacity:1; 
stroke-linecap:round; stroke-linejoin:round;">
<text x="29.6537" y="4.6100"
textLength="59.3075" font-size="1.6933" lengthAdjust="spacingAndGlyphs"
text-anchor="middle" opacity="0">Mounting_Wuerth_WA-SMSE-ExternalM3_H14mm_9771140360</text>
<g class="stroked-text"><desc>Mounting_Wuerth_WA-SMSE-ExternalM3_H14mm_9771140360</desc>
<path d="M0.4135 4.5543
L0.4135 3.2843
" />
<path d="M0.4135 3.2843
L0.8368 4.1914
" />
<path d="M0.8368 4.1914
L1.2602 3.2843
" />
<path d="M1.2602 3.2843
L1.2602 4.5543
" />
<path d="M2.0464 4.5543
L1.9254 4.4938
" />
<path d="M1.9254 4.4938
L1.8649 4.4333
" />
<path d="M1.8649 4.4333
L1.8045 4.3124
" />
<path d="M1.8045 4.3124
L1.8045 3.9495
" />
<path d="M1.8045 3.9495
L1.8649 3.8286
" />
<path d="M1.8649 3.8286
L1.9254 3.7681
" />
<path d="M1.9254 3.7681
L2.0464 3.7076
" />
<path d="M2.0464 3.7076
L2.2278 3.7076
" />
<path d="M2.2278 3.7076
L2.3487 3.7681
" />
<path d="M2.3487 3.7681
L2.4092 3.8286
" />
<path d="M2.4092 3.8286
L2.4697 3.9495
" />
<path d="M2.4697 3.9495
L2.4697 4.3124
" />
<path d="M2.4697 4.3124
L2.4092 4.4333
" />
<path d="M2.4092 4.4333
L2.3487 4.4938
" />
<path d="M2.3487 4.4938
L2.2278 4.5543
" />
<path d="M2.2278 4.5543
L2.0464 4.5543
" />
<path d="M3.5583 3.7076
L3.5583 4.5543
" />
<path d="M3.0140 3.7076
L3.0140 4.3728
" />
<path d="M3.0140 4.3728
L3.0745 4.4938
" />
<path d="M3.0745 4.4938
L3.1954 4.5543
" />
<path d="M3.1954 4.5543
L3.3768 4.5543
" />
<path d="M3.3768 4.5543
L3.4978 4.4938
" />
<path d="M3.4978 4.4938
L3.5583 4.4333
" />
<path d="M4.1630 3.7076
L4.1630 4.5543
" />
<path d="M4.1630 3.8286
L4.2235 3.7681
" />
<path d="M4.2235 3.7681
L4.3445 3.7076
" />
<path d="M4.3445 3.7076
L4.5259 3.7076
" />
<path d="M4.5259 3.7076
L4.6468 3.7681
" />
<path d="M4.6468 3.7681
L4.7073 3.8890
" />
<path d="M4.7073 3.8890
L4.7073 4.5543
" />
<path d="M5.1307 3.7076
L5.6145 3.7076
" />
<path d="M5.3121 3.2843
L5.3121 4.3728
" />
<path d="M5.3121 4.3728
L5.3726 4.4938
" />
<path d="M5.3726 4.4938
L5.4935 4.5543
" />
<path d="M5.4935 4.5543
L5.6145 4.5543
" />
<path d="M6.0378 4.5543
L6.0378 3.7076
" />
<path d="M6.0378 3.2843
L5.9773 3.3447
" />
<path d="M5.9773 3.3447
L6.0378 3.4052
" />
<path d="M6.0378 3.4052
L6.0983 3.3447
" />
<path d="M6.0983 3.3447
L6.0378 3.2843
" />
<path d="M6.0378 3.2843
L6.0378 3.4052
" />
<path d="M6.6426 3.7076
L6.6426 4.5543
" />
<path d="M6.6426 3.8286
L6.7030 3.7681
" />
<path d="M6.7030 3.7681
L6.8240 3.7076
" />
<path d="M6.8240 3.7076
L7.0054 3.7076
" />
<path d="M7.0054 3.7076
L7.1264 3.7681
" />
<path d="M7.1264 3.7681
L7.1868 3.8890
" />
<path d="M7.1868 3.8890
L7.1868 4.5543
" />
<path d="M8.3359 3.7076
L8.3359 4.7357
" />
<path d="M8.3359 4.7357
L8.2754 4.8567
" />
<path d="M8.2754 4.8567
L8.2149 4.9171
" />
<path d="M8.2149 4.9171
L8.0940 4.9776
" />
<path d="M8.0940 4.9776
L7.9126 4.9776
" />
<path d="M7.9126 4.9776
L7.7916 4.9171
" />
<path d="M8.3359 4.4938
L8.2149 4.5543
" />
<path d="M8.2149 4.5543
L7.9730 4.5543
" />
<path d="M7.9730 4.5543
L7.8521 4.4938
" />
<path d="M7.8521 4.4938
L7.7916 4.4333
" />
<path d="M7.7916 4.4333
L7.7311 4.3124
" />
<path d="M7.7311 4.3124
L7.7311 3.9495
" />
<path d="M7.7311 3.9495
L7.7916 3.8286
" />
<path d="M7.7916 3.8286
L7.8521 3.7681
" />
<path d="M7.8521 3.7681
L7.9730 3.7076
" />
<path d="M7.9730 3.7076
L8.2149 3.7076
" />
<path d="M8.2149 3.7076
L8.3359 3.7681
" />
<path d="M8.6383 4.6752
L9.6059 4.6752
" />
<path d="M9.7873 3.2843
L10.0897 4.5543
" />
<path d="M10.0897 4.5543
L10.3316 3.6471
" />
<path d="M10.3316 3.6471
L10.5735 4.5543
" />
<path d="M10.5735 4.5543
L10.8759 3.2843
" />
<path d="M11.9040 3.7076
L11.9040 4.5543
" />
<path d="M11.3597 3.7076
L11.3597 4.3728
" />
<path d="M11.3597 4.3728
L11.4202 4.4938
" />
<path d="M11.4202 4.4938
L11.5411 4.5543
" />
<path d="M11.5411 4.5543
L11.7226 4.5543
" />
<path d="M11.7226 4.5543
L11.8435 4.4938
" />
<path d="M11.8435 4.4938
L11.9040 4.4333
" />
<path d="M12.9926 4.4938
L12.8716 4.5543
" />
<path d="M12.8716 4.5543
L12.6297 4.5543
" />
<path d="M12.6297 4.5543
L12.5087 4.4938
" />
<path d="M12.5087 4.4938
L12.4483 4.3728
" />
<path d="M12.4483 4.3728
L12.4483 3.8890
" />
<path d="M12.4483 3.8890
L12.5087 3.7681
" />
<path d="M12.5087 3.7681
L12.6297 3.7076
" />
<path d="M12.6297 3.7076
L12.8716 3.7076
" />
<path d="M12.8716 3.7076
L12.9926 3.7681
" />
<path d="M12.9926 3.7681
L13.0530 3.8890
" />
<path d="M13.0530 3.8890
L13.0530 4.0100
" />
<path d="M13.0530 4.0100
L12.4483 4.1309
" />
<path d="M13.5973 4.5543
L13.5973 3.7076
" />
<path d="M13.5973 3.9495
L13.6578 3.8286
" />
<path d="M13.6578 3.8286
L13.7183 3.7681
" />
<path d="M13.7183 3.7681
L13.8392 3.7076
" />
<path d="M13.8392 3.7076
L13.9602 3.7076
" />
<path d="M14.2021 3.7076
L14.6859 3.7076
" />
<path d="M14.3835 3.2843
L14.3835 4.3728
" />
<path d="M14.3835 4.3728
L14.4440 4.4938
" />
<path d="M14.4440 4.4938
L14.5649 4.5543
" />
<path d="M14.5649 4.5543
L14.6859 4.5543
" />
<path d="M15.1092 4.5543
L15.1092 3.2843
" />
<path d="M15.6535 4.5543
L15.6535 3.8890
" />
<path d="M15.6535 3.8890
L15.5930 3.7681
" />
<path d="M15.5930 3.7681
L15.4721 3.7076
" />
<path d="M15.4721 3.7076
L15.2907 3.7076
" />
<path d="M15.2907 3.7076
L15.1697 3.7681
" />
<path d="M15.1697 3.7681
L15.1092 3.8286
" />
<path d="M15.9559 4.6752
L16.9235 4.6752
" />
<path d="M17.1049 3.2843
L17.4073 4.5543
" />
<path d="M17.4073 4.5543
L17.6492 3.6471
" />
<path d="M17.6492 3.6471
L17.8911 4.5543
" />
<path d="M17.8911 4.5543
L18.1935 3.2843
" />
<path d="M18.6168 4.1914
L19.2216 4.1914
" />
<path d="M18.4959 4.5543
L18.9192 3.2843
" />
<path d="M18.9192 3.2843
L19.3426 4.5543
" />
<path d="M19.7659 4.0705
L20.7335 4.0705
" />
<path d="M21.2778 4.4938
L21.4592 4.5543
" />
<path d="M21.4592 4.5543
L21.7616 4.5543
" />
<path d="M21.7616 4.5543
L21.8826 4.4938
" />
<path d="M21.8826 4.4938
L21.9430 4.4333
" />
<path d="M21.9430 4.4333
L22.0035 4.3124
" />
<path d="M22.0035 4.3124
L22.0035 4.1914
" />
<path d="M22.0035 4.1914
L21.9430 4.0705
" />
<path d="M21.9430 4.0705
L21.8826 4.0100
" />
<path d="M21.8826 4.0100
L21.7616 3.9495
" />
<path d="M21.7616 3.9495
L21.5197 3.8890
" />
<path d="M21.5197 3.8890
L21.3987 3.8286
" />
<path d="M21.3987 3.8286
L21.3383 3.7681
" />
<path d="M21.3383 3.7681
L21.2778 3.6471
" />
<path d="M21.2778 3.6471
L21.2778 3.5262
" />
<path d="M21.2778 3.5262
L21.3383 3.4052
" />
<path d="M21.3383 3.4052
L21.3987 3.3447
" />
<path d="M21.3987 3.3447
L21.5197 3.2843
" />
<path d="M21.5197 3.2843
L21.8221 3.2843
" />
<path d="M21.8221 3.2843
L22.0035 3.3447
" />
<path d="M22.5478 4.5543
L22.5478 3.2843
" />
<path d="M22.5478 3.2843
L22.9711 4.1914
" />
<path d="M22.9711 4.1914
L23.3945 3.2843
" />
<path d="M23.3945 3.2843
L23.3945 4.5543
" />
<path d="M23.9387 4.4938
L24.1202 4.5543
" />
<path d="M24.1202 4.5543
L24.4226 4.5543
" />
<path d="M24.4226 4.5543
L24.5435 4.4938
" />
<path d="M24.5435 4.4938
L24.6040 4.4333
" />
<path d="M24.6040 4.4333
L24.6645 4.3124
" />
<path d="M24.6645 4.3124
L24.6645 4.1914
" />
<path d="M24.6645 4.1914
L24.6040 4.0705
" />
<path d="M24.6040 4.0705
L24.5435 4.0100
" />
<path d="M24.5435 4.0100
L24.4226 3.9495
" />
<path d="M24.4226 3.9495
L24.1807 3.8890
" />
<path d="M24.1807 3.8890
L24.0597 3.8286
" />
<path d="M24.0597 3.8286
L23.9992 3.7681
" />
<path d="M23.9992 3.7681
L23.9387 3.6471
" />
<path d="M23.9387 3.6471
L23.9387 3.5262
" />
<path d="M23.9387 3.5262
L23.9992 3.4052
" />
<path d="M23.9992 3.4052
L24.0597 3.3447
" />
<path d="M24.0597 3.3447
L24.1807 3.2843
" />
<path d="M24.1807 3.2843
L24.4830 3.2843
" />
<path d="M24.4830 3.2843
L24.6645 3.3447
" />
<path d="M25.2087 3.8890
L25.6321 3.8890
" />
<path d="M25.8135 4.5543
L25.2087 4.5543
" />
<path d="M25.2087 4.5543
L25.2087 3.2843
" />
<path d="M25.2087 3.2843
L25.8135 3.2843
" />
<path d="M26.3578 4.0705
L27.3254 4.0705
" />
<path d="M27.9302 3.8890
L28.3535 3.8890
" />
<path d="M28.5349 4.5543
L27.9302 4.5543
" />
<path d="M27.9302 4.5543
L27.9302 3.2843
" />
<path d="M27.9302 3.2843
L28.5349 3.2843
" />
<path d="M28.9583 4.5543
L29.6235 3.7076
" />
<path d="M28.9583 3.7076
L29.6235 4.5543
" />
<path d="M29.9259 3.7076
L30.4097 3.7076
" />
<path d="M30.1073 3.2843
L30.1073 4.3728
" />
<path d="M30.1073 4.3728
L30.1678 4.4938
" />
<path d="M30.1678 4.4938
L30.2887 4.5543
" />
<path d="M30.2887 4.5543
L30.4097 4.5543
" />
<path d="M31.3168 4.4938
L31.1959 4.5543
" />
<path d="M31.1959 4.5543
L30.9540 4.5543
" />
<path d="M30.9540 4.5543
L30.8330 4.4938
" />
<path d="M30.8330 4.4938
L30.7726 4.3728
" />
<path d="M30.7726 4.3728
L30.7726 3.8890
" />
<path d="M30.7726 3.8890
L30.8330 3.7681
" />
<path d="M30.8330 3.7681
L30.9540 3.7076
" />
<path d="M30.9540 3.7076
L31.1959 3.7076
" />
<path d="M31.1959 3.7076
L31.3168 3.7681
" />
<path d="M31.3168 3.7681
L31.3773 3.8890
" />
<path d="M31.3773 3.8890
L31.3773 4.0100
" />
<path d="M31.3773 4.0100
L30.7726 4.1309
" />
<path d="M31.9216 4.5543
L31.9216 3.7076
" />
<path d="M31.9216 3.9495
L31.9821 3.8286
" />
<path d="M31.9821 3.8286
L32.0426 3.7681
" />
<path d="M32.0426 3.7681
L32.1635 3.7076
" />
<path d="M32.1635 3.7076
L32.2845 3.7076
" />
<path d="M32.7078 3.7076
L32.7078 4.5543
" />
<path d="M32.7078 3.8286
L32.7683 3.7681
" />
<path d="M32.7683 3.7681
L32.8892 3.7076
" />
<path d="M32.8892 3.7076
L33.0707 3.7076
" />
<path d="M33.0707 3.7076
L33.1916 3.7681
" />
<path d="M33.1916 3.7681
L33.2521 3.8890
" />
<path d="M33.2521 3.8890
L33.2521 4.5543
" />
<path d="M34.4011 4.5543
L34.4011 3.8890
" />
<path d="M34.4011 3.8890
L34.3407 3.7681
" />
<path d="M34.3407 3.7681
L34.2197 3.7076
" />
<path d="M34.2197 3.7076
L33.9778 3.7076
" />
<path d="M33.9778 3.7076
L33.8568 3.7681
" />
<path d="M34.4011 4.4938
L34.2802 4.5543
" />
<path d="M34.2802 4.5543
L33.9778 4.5543
" />
<path d="M33.9778 4.5543
L33.8568 4.4938
" />
<path d="M33.8568 4.4938
L33.7964 4.3728
" />
<path d="M33.7964 4.3728
L33.7964 4.2519
" />
<path d="M33.7964 4.2519
L33.8568 4.1309
" />
<path d="M33.8568 4.1309
L33.9778 4.0705
" />
<path d="M33.9778 4.0705
L34.2802 4.0705
" />
<path d="M34.2802 4.0705
L34.4011 4.0100
" />
<path d="M35.1873 4.5543
L35.0664 4.4938
" />
<path d="M35.0664 4.4938
L35.0059 4.3728
" />
<path d="M35.0059 4.3728
L35.0059 3.2843
" />
<path d="M35.6711 4.5543
L35.6711 3.2843
" />
<path d="M35.6711 3.2843
L36.0945 4.1914
" />
<path d="M36.0945 4.1914
L36.5178 3.2843
" />
<path d="M36.5178 3.2843
L36.5178 4.5543
" />
<path d="M37.0016 3.2843
L37.7878 3.2843
" />
<path d="M37.7878 3.2843
L37.3645 3.7681
" />
<path d="M37.3645 3.7681
L37.5459 3.7681
" />
<path d="M37.5459 3.7681
L37.6668 3.8286
" />
<path d="M37.6668 3.8286
L37.7273 3.8890
" />
<path d="M37.7273 3.8890
L37.7878 4.0100
" />
<path d="M37.7878 4.0100
L37.7878 4.3124
" />
<path d="M37.7878 4.3124
L37.7273 4.4333
" />
<path d="M37.7273 4.4333
L37.6668 4.4938
" />
<path d="M37.6668 4.4938
L37.5459 4.5543
" />
<path d="M37.5459 4.5543
L37.1830 4.5543
" />
<path d="M37.1830 4.5543
L37.0621 4.4938
" />
<path d="M37.0621 4.4938
L37.0016 4.4333
" />
<path d="M38.0297 4.6752
L38.9973 4.6752
" />
<path d="M39.2997 4.5543
L39.2997 3.2843
" />
<path d="M39.2997 3.8890
L40.0254 3.8890
" />
<path d="M40.0254 4.5543
L40.0254 3.2843
" />
<path d="M41.2954 4.5543
L40.5697 4.5543
" />
<path d="M40.9326 4.5543
L40.9326 3.2843
" />
<path d="M40.9326 3.2843
L40.8116 3.4657
" />
<path d="M40.8116 3.4657
L40.6907 3.5867
" />
<path d="M40.6907 3.5867
L40.5697 3.6471
" />
<path d="M42.3840 3.7076
L42.3840 4.5543
" />
<path d="M42.0816 3.2238
L41.7792 4.1309
" />
<path d="M41.7792 4.1309
L42.5654 4.1309
" />
<path d="M43.0492 4.5543
L43.0492 3.7076
" />
<path d="M43.0492 3.8286
L43.1097 3.7681
" />
<path d="M43.1097 3.7681
L43.2307 3.7076
" />
<path d="M43.2307 3.7076
L43.4121 3.7076
" />
<path d="M43.4121 3.7076
L43.5330 3.7681
" />
<path d="M43.5330 3.7681
L43.5935 3.8890
" />
<path d="M43.5935 3.8890
L43.5935 4.5543
" />
<path d="M43.5935 3.8890
L43.6540 3.7681
" />
<path d="M43.6540 3.7681
L43.7749 3.7076
" />
<path d="M43.7749 3.7076
L43.9564 3.7076
" />
<path d="M43.9564 3.7076
L44.0773 3.7681
" />
<path d="M44.0773 3.7681
L44.1378 3.8890
" />
<path d="M44.1378 3.8890
L44.1378 4.5543
" />
<path d="M44.7426 4.5543
L44.7426 3.7076
" />
<path d="M44.7426 3.8286
L44.8030 3.7681
" />
<path d="M44.8030 3.7681
L44.9240 3.7076
" />
<path d="M44.9240 3.7076
L45.1054 3.7076
" />
<path d="M45.1054 3.7076
L45.2264 3.7681
" />
<path d="M45.2264 3.7681
L45.2868 3.8890
" />
<path d="M45.2868 3.8890
L45.2868 4.5543
" />
<path d="M45.2868 3.8890
L45.3473 3.7681
" />
<path d="M45.3473 3.7681
L45.4683 3.7076
" />
<path d="M45.4683 3.7076
L45.6497 3.7076
" />
<path d="M45.6497 3.7076
L45.7707 3.7681
" />
<path d="M45.7707 3.7681
L45.8311 3.8890
" />
<path d="M45.8311 3.8890
L45.8311 4.5543
" />
<path d="M46.1335 4.6752
L47.1011 4.6752
" />
<path d="M47.4640 4.5543
L47.7059 4.5543
" />
<path d="M47.7059 4.5543
L47.8268 4.4938
" />
<path d="M47.8268 4.4938
L47.8873 4.4333
" />
<path d="M47.8873 4.4333
L48.0083 4.2519
" />
<path d="M48.0083 4.2519
L48.0687 4.0100
" />
<path d="M48.0687 4.0100
L48.0687 3.5262
" />
<path d="M48.0687 3.5262
L48.0083 3.4052
" />
<path d="M48.0083 3.4052
L47.9478 3.3447
" />
<path d="M47.9478 3.3447
L47.8268 3.2843
" />
<path d="M47.8268 3.2843
L47.5849 3.2843
" />
<path d="M47.5849 3.2843
L47.4640 3.3447
" />
<path d="M47.4640 3.3447
L47.4035 3.4052
" />
<path d="M47.4035 3.4052
L47.3430 3.5262
" />
<path d="M47.3430 3.5262
L47.3430 3.8286
" />
<path d="M47.3430 3.8286
L47.4035 3.9495
" />
<path d="M47.4035 3.9495
L47.4640 4.0100
" />
<path d="M47.4640 4.0100
L47.5849 4.0705
" />
<path d="M47.5849 4.0705
L47.8268 4.0705
" />
<path d="M47.8268 4.0705
L47.9478 4.0100
" />
<path d="M47.9478 4.0100
L48.0083 3.9495
" />
<path d="M48.0083 3.9495
L48.0687 3.8286
" />
<path d="M48.4921 3.2843
L49.3387 3.2843
" />
<path d="M49.3387 3.2843
L48.7945 4.5543
" />
<path d="M49.7016 3.2843
L50.5483 3.2843
" />
<path d="M50.5483 3.2843
L50.0040 4.5543
" />
<path d="M51.6973 4.5543
L50.9716 4.5543
" />
<path d="M51.3345 4.5543
L51.3345 3.2843
" />
<path d="M51.3345 3.2843
L51.2135 3.4657
" />
<path d="M51.2135 3.4657
L51.0926 3.5867
" />
<path d="M51.0926 3.5867
L50.9716 3.6471
" />
<path d="M52.9068 4.5543
L52.1811 4.5543
" />
<path d="M52.5440 4.5543
L52.5440 3.2843
" />
<path d="M52.5440 3.2843
L52.4230 3.4657
" />
<path d="M52.4230 3.4657
L52.3021 3.5867
" />
<path d="M52.3021 3.5867
L52.1811 3.6471
" />
<path d="M53.9954 3.7076
L53.9954 4.5543
" />
<path d="M53.6930 3.2238
L53.3907 4.1309
" />
<path d="M53.3907 4.1309
L54.1768 4.1309
" />
<path d="M54.9026 3.2843
L55.0235 3.2843
" />
<path d="M55.0235 3.2843
L55.1445 3.3447
" />
<path d="M55.1445 3.3447
L55.2049 3.4052
" />
<path d="M55.2049 3.4052
L55.2654 3.5262
" />
<path d="M55.2654 3.5262
L55.3259 3.7681
" />
<path d="M55.3259 3.7681
L55.3259 4.0705
" />
<path d="M55.3259 4.0705
L55.2654 4.3124
" />
<path d="M55.2654 4.3124
L55.2049 4.4333
" />
<path d="M55.2049 4.4333
L55.1445 4.4938
" />
<path d="M55.1445 4.4938
L55.0235 4.5543
" />
<path d="M55.0235 4.5543
L54.9026 4.5543
" />
<path d="M54.9026 4.5543
L54.7816 4.4938
" />
<path d="M54.7816 4.4938
L54.7211 4.4333
" />
<path d="M54.7211 4.4333
L54.6607 4.3124
" />
<path d="M54.6607 4.3124
L54.6002 4.0705
" />
<path d="M54.6002 4.0705
L54.6002 3.7681
" />
<path d="M54.6002 3.7681
L54.6607 3.5262
" />
<path d="M54.6607 3.5262
L54.7211 3.4052
" />
<path d="M54.7211 3.4052
L54.7816 3.3447
" />
<path d="M54.7816 3.3447
L54.9026 3.2843
" />
<path d="M55.7492 3.2843
L56.5354 3.2843
" />
<path d="M56.5354 3.2843
L56.1121 3.7681
" />
<path d="M56.1121 3.7681
L56.2935 3.7681
" />
<path d="M56.2935 3.7681
L56.4145 3.8286
" />
<path d="M56.4145 3.8286
L56.4749 3.8890
" />
<path d="M56.4749 3.8890
L56.5354 4.0100
" />
<path d="M56.5354 4.0100
L56.5354 4.3124
" />
<path d="M56.5354 4.3124
L56.4749 4.4333
" />
<path d="M56.4749 4.4333
L56.4145 4.4938
" />
<path d="M56.4145 4.4938
L56.2935 4.5543
" />
<path d="M56.2935 4.5543
L55.9307 4.5543
" />
<path d="M55.9307 4.5543
L55.8097 4.4938
" />
<path d="M55.8097 4.4938
L55.7492 4.4333
" />
<path d="M57.6240 3.2843
L57.3821 3.2843
" />
<path d="M57.3821 3.2843
L57.2611 3.3447
" />
<path d="M57.2611 3.3447
L57.2007 3.4052
" />
<path d="M57.2007 3.4052
L57.0797 3.5867
" />
<path d="M57.0797 3.5867
L57.0192 3.8286
" />
<path d="M57.0192 3.8286
L57.0192 4.3124
" />
<path d="M57.0192 4.3124
L57.0797 4.4333
" />
<path d="M57.0797 4.4333
L57.1402 4.4938
" />
<path d="M57.1402 4.4938
L57.2611 4.5543
" />
<path d="M57.2611 4.5543
L57.5030 4.5543
" />
<path d="M57.5030 4.5543
L57.6240 4.4938
" />
<path d="M57.6240 4.4938
L57.6845 4.4333
" />
<path d="M57.6845 4.4333
L57.7449 4.3124
" />
<path d="M57.7449 4.3124
L57.7449 4.0100
" />
<path d="M57.7449 4.0100
L57.6845 3.8890
" />
<path d="M57.6845 3.8890
L57.6240 3.8286
" />
<path d="M57.6240 3.8286
L57.5030 3.7681
" />
<path d="M57.5030 3.7681
L57.2611 3.7681
" />
<path d="M57.2611 3.7681
L57.1402 3.8286
" />
<path d="M57.1402 3.8286
L57.0797 3.8890
" />
<path d="M57.0797 3.8890
L57.0192 4.0100
" />
<path d="M58.5311 3.2843
L58.6521 3.2843
" />
<path d="M58.6521 3.2843
L58.7730 3.3447
" />
<path d="M58.7730 3.3447
L58.8335 3.4052
" />
<path d="M58.8335 3.4052
L58.8940 3.5262
" />
<path d="M58.8940 3.5262
L58.9545 3.7681
" />
<path d="M58.9545 3.7681
L58.9545 4.0705
" />
<path d="M58.9545 4.0705
L58.8940 4.3124
" />
<path d="M58.8940 4.3124
L58.8335 4.4333
" />
<path d="M58.8335 4.4333
L58.7730 4.4938
" />
<path d="M58.7730 4.4938
L58.6521 4.5543
" />
<path d="M58.6521 4.5543
L58.5311 4.5543
" />
<path d="M58.5311 4.5543
L58.4102 4.4938
" />
<path d="M58.4102 4.4938
L58.3497 4.4333
" />
<path d="M58.3497 4.4333
L58.2892 4.3124
" />
<path d="M58.2892 4.3124
L58.2287 4.0705
" />
<path d="M58.2287 4.0705
L58.2287 3.7681
" />
<path d="M58.2287 3.7681
L58.2892 3.5262
" />
<path d="M58.2892 3.5262
L58.3497 3.4052
" />
<path d="M58.3497 3.4052
L58.4102 3.3447
" />
<path d="M58.4102 3.3447
L58.5311 3.2843
" />
</g></g>
<g style="fill:none; 
stroke:#AFAFAF; stroke-width:0.1500; stroke-opacity:1; 
stroke-linecap:round; stroke-linejoin:round;">
<text x="29.6537" y="4.4750"
textLength="4.5357" font-size="1.3333" lengthAdjust="spacingAndGlyphs"
text-anchor="middle" opacity="0">REF**</text>
<g class="stroked-text"><desc>REF**</desc>
<path d="M28.3204 4.4298
L27.9871 3.9536
" />
<path d="M27.7490 4.4298
L27.7490 3.4298
" />
<path d="M27.7490 3.4298
L28.1299 3.4298
" />
<path d="M28.1299 3.4298
L28.2252 3.4774
" />
<path d="M28.2252 3.4774
L28.2728 3.5251
" />
<path d="M28.2728 3.5251
L28.3204 3.6203
" />
<path d="M28.3204 3.6203
L28.3204 3.7632
" />
<path d="M28.3204 3.7632
L28.2728 3.8584
" />
<path d="M28.2728 3.8584
L28.2252 3.9060
" />
<path d="M28.2252 3.9060
L28.1299 3.9536
" />
<path d="M28.1299 3.9536
L27.7490 3.9536
" />
<path d="M28.7490 3.9060
L29.0823 3.9060
" />
<path d="M29.2252 4.4298
L28.7490 4.4298
" />
<path d="M28.7490 4.4298
L28.7490 3.4298
" />
<path d="M28.7490 3.4298
L29.2252 3.4298
" />
<path d="M29.9871 3.9060
L29.6537 3.9060
" />
<path d="M29.6537 4.4298
L29.6537 3.4298
" />
<path d="M29.6537 3.4298
L30.1299 3.4298
" />
<path d="M30.6537 3.4298
L30.6537 3.6679
" />
<path d="M30.4157 3.5727
L30.6537 3.6679
" />
<path d="M30.6537 3.6679
L30.8918 3.5727
" />
<path d="M30.5109 3.8584
L30.6537 3.6679
" />
<path d="M30.6537 3.6679
L30.7966 3.8584
" />
<path d="M31.4157 3.4298
L31.4157 3.6679
" />
<path d="M31.1776 3.5727
L31.4157 3.6679
" />
<path d="M31.4157 3.6679
L31.6537 3.5727
" />
<path d="M31.2728 3.8584
L31.4157 3.6679
" />
<path d="M31.4157 3.6679
L31.5585 3.8584
" />
</g></g>
<g style="fill:none; 
stroke:#AFAFAF; stroke-width:0.1000; stroke-opacity:1; 
stroke-linecap:round; stroke-linejoin:round;">
<circle cx="29.6537" cy="3.9750" r="3.0000" /> 
</g> 
</svg>
