<?xml version="1.0" standalone="no"?>
 <!DOCTYPE svg PUBLIC "-//W3C//DTD SVG 1.1//EN" 
 "http://www.w3.org/Graphics/SVG/1.1/DTD/svg11.dtd"> 
<svg
  xmlns:svg="http://www.w3.org/2000/svg"
  xmlns="http://www.w3.org/2000/svg"
  xmlns:xlink="http://www.w3.org/1999/xlink"
  version="1.1"
  width="18.5928mm" height="3.2004mm" viewBox="0.0000 0.0000 18.5928 3.2004">
<title>SVG Image created as working-brd.svg date 2024/04/06 21:04:29 </title>
  <desc>Image generated by PCBNEW </desc>
<g style="fill:#000000; fill-opacity:1.0000;stroke:#000000; stroke-opacity:1.0000;
stroke-linecap:round; stroke-linejoin:round;"
 transform="translate(0 0) scale(1 1)">
<path style="fill:#C83434; fill-opacity:1.0000; stroke:none;fill-rule:evenodd;"
d="M 7.2785,0.5300
7.2975,0.4343
7.3517,0.3532
7.4328,0.2990
7.5285,0.2800
8.2785,0.2800
8.3742,0.2990
8.4553,0.3532
8.5095,0.4343
8.5285,0.5300
8.5285,2.6800
8.5095,2.7757
8.4553,2.8568
8.3742,2.9110
8.2785,2.9300
7.5285,2.9300
7.4328,2.9110
7.3517,2.8568
7.2975,2.7757
7.2785,2.6800
Z" /> 
<path style="fill:#C83434; fill-opacity:1.0000; stroke:none;fill-rule:evenodd;"
d="M 10.0785,0.5300
10.0975,0.4343
10.1517,0.3532
10.2328,0.2990
10.3285,0.2800
11.0785,0.2800
11.1742,0.2990
11.2553,0.3532
11.3095,0.4343
11.3285,0.5300
11.3285,2.6800
11.3095,2.7757
11.2553,2.8568
11.1742,2.9110
11.0785,2.9300
10.3285,2.9300
10.2328,2.9110
10.1517,2.8568
10.0975,2.7757
10.0785,2.6800
Z" /> 
<path style="fill:#D864FF; fill-opacity:0.4000; stroke:none;fill-rule:evenodd;"
d="M 7.2785,0.5300
7.2975,0.4343
7.3517,0.3532
7.4328,0.2990
7.5285,0.2800
8.2785,0.2800
8.3742,0.2990
8.4553,0.3532
8.5095,0.4343
8.5285,0.5300
8.5285,2.6800
8.5095,2.7757
8.4553,2.8568
8.3742,2.9110
8.2785,2.9300
7.5285,2.9300
7.4328,2.9110
7.3517,2.8568
7.2975,2.7757
7.2785,2.6800
Z" /> 
<path style="fill:#D864FF; fill-opacity:0.4000; stroke:none;fill-rule:evenodd;"
d="M 10.0785,0.5300
10.0975,0.4343
10.1517,0.3532
10.2328,0.2990
10.3285,0.2800
11.0785,0.2800
11.1742,0.2990
11.2553,0.3532
11.3095,0.4343
11.3285,0.5300
11.3285,2.6800
11.3095,2.7757
11.2553,2.8568
11.1742,2.9110
11.0785,2.9300
10.3285,2.9300
10.2328,2.9110
10.1517,2.8568
10.0975,2.7757
10.0785,2.6800
Z" /> 
<path style="fill:#B4A09A; fill-opacity:0.9000; stroke:none;fill-rule:evenodd;"
d="M 7.2785,0.5300
7.2975,0.4343
7.3517,0.3532
7.4328,0.2990
7.5285,0.2800
8.2785,0.2800
8.3742,0.2990
8.4553,0.3532
8.5095,0.4343
8.5285,0.5300
8.5285,2.6800
8.5095,2.7757
8.4553,2.8568
8.3742,2.9110
8.2785,2.9300
7.5285,2.9300
7.4328,2.9110
7.3517,2.8568
7.2975,2.7757
7.2785,2.6800
Z" /> 
<path style="fill:#B4A09A; fill-opacity:0.9000; stroke:none;fill-rule:evenodd;"
d="M 10.0785,0.5300
10.0975,0.4343
10.1517,0.3532
10.2328,0.2990
10.3285,0.2800
11.0785,0.2800
11.1742,0.2990
11.2553,0.3532
11.3095,0.4343
11.3285,0.5300
11.3285,2.6800
11.3095,2.7757
11.2553,2.8568
11.1742,2.9110
11.0785,2.9300
10.3285,2.9300
10.2328,2.9110
10.1517,2.8568
10.0975,2.7757
10.0785,2.6800
Z" /> 
</g>
<g style="fill:none; 
stroke:#F2EDA1; stroke-width:0.1588; stroke-opacity:1; 
stroke-linecap:round; stroke-linejoin:round;">
<text x="9.3035" y="2.2400"
textLength="5.6651" font-size="1.6933" lengthAdjust="spacingAndGlyphs"
text-anchor="middle" opacity="0">REF**</text>
<g class="stroked-text"><desc>REF**</desc>
<path d="M7.6102 2.1843
L7.1868 1.5795
" />
<path d="M6.8845 2.1843
L6.8845 0.9143
" />
<path d="M6.8845 0.9143
L7.3683 0.9143
" />
<path d="M7.3683 0.9143
L7.4892 0.9747
" />
<path d="M7.4892 0.9747
L7.5497 1.0352
" />
<path d="M7.5497 1.0352
L7.6102 1.1562
" />
<path d="M7.6102 1.1562
L7.6102 1.3376
" />
<path d="M7.6102 1.3376
L7.5497 1.4586
" />
<path d="M7.5497 1.4586
L7.4892 1.5190
" />
<path d="M7.4892 1.5190
L7.3683 1.5795
" />
<path d="M7.3683 1.5795
L6.8845 1.5795
" />
<path d="M8.1545 1.5190
L8.5778 1.5190
" />
<path d="M8.7592 2.1843
L8.1545 2.1843
" />
<path d="M8.1545 2.1843
L8.1545 0.9143
" />
<path d="M8.1545 0.9143
L8.7592 0.9143
" />
<path d="M9.7268 1.5190
L9.3035 1.5190
" />
<path d="M9.3035 2.1843
L9.3035 0.9143
" />
<path d="M9.3035 0.9143
L9.9083 0.9143
" />
<path d="M10.5735 0.9143
L10.5735 1.2167
" />
<path d="M10.2711 1.0957
L10.5735 1.2167
" />
<path d="M10.5735 1.2167
L10.8759 1.0957
" />
<path d="M10.3921 1.4586
L10.5735 1.2167
" />
<path d="M10.5735 1.2167
L10.7549 1.4586
" />
<path d="M11.5411 0.9143
L11.5411 1.2167
" />
<path d="M11.2387 1.0957
L11.5411 1.2167
" />
<path d="M11.5411 1.2167
L11.8435 1.0957
" />
<path d="M11.3597 1.4586
L11.5411 1.2167
" />
<path d="M11.5411 1.2167
L11.7226 1.4586
" />
</g></g>
<g style="fill:none; 
stroke:#F2EDA1; stroke-width:0.1200; stroke-opacity:1; 
stroke-linecap:round; stroke-linejoin:round;">
<path d="M8.7014 0.2450
L9.9056 0.2450
" />
<path d="M8.7014 2.9650
L9.9056 2.9650
" />
</g>
<g style="fill:none; 
stroke:#FF26E2; stroke-width:0.0500; stroke-opacity:1; 
stroke-linecap:round; stroke-linejoin:round;">
<path d="M7.0235 0.0250
L11.5835 0.0250
" />
<path d="M7.0235 3.1850
L7.0235 0.0250
" />
<path d="M11.5835 0.0250
L11.5835 3.1850
" />
<path d="M11.5835 3.1850
L7.0235 3.1850
" />
</g>
<g style="fill:none; 
stroke:#AFAFAF; stroke-width:0.1588; stroke-opacity:1; 
stroke-linecap:round; stroke-linejoin:round;">
<text x="9.3035" y="2.2400"
textLength="18.6070" font-size="1.6933" lengthAdjust="spacingAndGlyphs"
text-anchor="middle" opacity="0">L_1210_3225Metric</text>
<g class="stroked-text"><desc>L_1210_3225Metric</desc>
<path d="M1.0183 2.1843
L0.4135 2.1843
" />
<path d="M0.4135 2.1843
L0.4135 0.9143
" />
<path d="M1.1392 2.3052
L2.1068 2.3052
" />
<path d="M3.0745 2.1843
L2.3487 2.1843
" />
<path d="M2.7116 2.1843
L2.7116 0.9143
" />
<path d="M2.7116 0.9143
L2.5906 1.0957
" />
<path d="M2.5906 1.0957
L2.4697 1.2167
" />
<path d="M2.4697 1.2167
L2.3487 1.2771
" />
<path d="M3.5583 1.0352
L3.6187 0.9747
" />
<path d="M3.6187 0.9747
L3.7397 0.9143
" />
<path d="M3.7397 0.9143
L4.0421 0.9143
" />
<path d="M4.0421 0.9143
L4.1630 0.9747
" />
<path d="M4.1630 0.9747
L4.2235 1.0352
" />
<path d="M4.2235 1.0352
L4.2840 1.1562
" />
<path d="M4.2840 1.1562
L4.2840 1.2771
" />
<path d="M4.2840 1.2771
L4.2235 1.4586
" />
<path d="M4.2235 1.4586
L3.4978 2.1843
" />
<path d="M3.4978 2.1843
L4.2840 2.1843
" />
<path d="M5.4935 2.1843
L4.7678 2.1843
" />
<path d="M5.1306 2.1843
L5.1306 0.9143
" />
<path d="M5.1306 0.9143
L5.0097 1.0957
" />
<path d="M5.0097 1.0957
L4.8887 1.2167
" />
<path d="M4.8887 1.2167
L4.7678 1.2771
" />
<path d="M6.2797 0.9143
L6.4006 0.9143
" />
<path d="M6.4006 0.9143
L6.5216 0.9747
" />
<path d="M6.5216 0.9747
L6.5821 1.0352
" />
<path d="M6.5821 1.0352
L6.6426 1.1562
" />
<path d="M6.6426 1.1562
L6.7030 1.3981
" />
<path d="M6.7030 1.3981
L6.7030 1.7005
" />
<path d="M6.7030 1.7005
L6.6426 1.9424
" />
<path d="M6.6426 1.9424
L6.5821 2.0633
" />
<path d="M6.5821 2.0633
L6.5216 2.1238
" />
<path d="M6.5216 2.1238
L6.4006 2.1843
" />
<path d="M6.4006 2.1843
L6.2797 2.1843
" />
<path d="M6.2797 2.1843
L6.1587 2.1238
" />
<path d="M6.1587 2.1238
L6.0983 2.0633
" />
<path d="M6.0983 2.0633
L6.0378 1.9424
" />
<path d="M6.0378 1.9424
L5.9773 1.7005
" />
<path d="M5.9773 1.7005
L5.9773 1.3981
" />
<path d="M5.9773 1.3981
L6.0378 1.1562
" />
<path d="M6.0378 1.1562
L6.0983 1.0352
" />
<path d="M6.0983 1.0352
L6.1587 0.9747
" />
<path d="M6.1587 0.9747
L6.2797 0.9143
" />
<path d="M6.9449 2.3052
L7.9126 2.3052
" />
<path d="M8.0940 0.9143
L8.8802 0.9143
" />
<path d="M8.8802 0.9143
L8.4568 1.3981
" />
<path d="M8.4568 1.3981
L8.6383 1.3981
" />
<path d="M8.6383 1.3981
L8.7592 1.4586
" />
<path d="M8.7592 1.4586
L8.8197 1.5190
" />
<path d="M8.8197 1.5190
L8.8802 1.6400
" />
<path d="M8.8802 1.6400
L8.8802 1.9424
" />
<path d="M8.8802 1.9424
L8.8197 2.0633
" />
<path d="M8.8197 2.0633
L8.7592 2.1238
" />
<path d="M8.7592 2.1238
L8.6383 2.1843
" />
<path d="M8.6383 2.1843
L8.2754 2.1843
" />
<path d="M8.2754 2.1843
L8.1545 2.1238
" />
<path d="M8.1545 2.1238
L8.0940 2.0633
" />
<path d="M9.3640 1.0352
L9.4245 0.9747
" />
<path d="M9.4245 0.9747
L9.5454 0.9143
" />
<path d="M9.5454 0.9143
L9.8478 0.9143
" />
<path d="M9.8478 0.9143
L9.9687 0.9747
" />
<path d="M9.9687 0.9747
L10.0292 1.0352
" />
<path d="M10.0292 1.0352
L10.0897 1.1562
" />
<path d="M10.0897 1.1562
L10.0897 1.2771
" />
<path d="M10.0897 1.2771
L10.0292 1.4586
" />
<path d="M10.0292 1.4586
L9.3035 2.1843
" />
<path d="M9.3035 2.1843
L10.0897 2.1843
" />
<path d="M10.5735 1.0352
L10.6340 0.9747
" />
<path d="M10.6340 0.9747
L10.7549 0.9143
" />
<path d="M10.7549 0.9143
L11.0573 0.9143
" />
<path d="M11.0573 0.9143
L11.1783 0.9747
" />
<path d="M11.1783 0.9747
L11.2387 1.0352
" />
<path d="M11.2387 1.0352
L11.2992 1.1562
" />
<path d="M11.2992 1.1562
L11.2992 1.2771
" />
<path d="M11.2992 1.2771
L11.2387 1.4586
" />
<path d="M11.2387 1.4586
L10.5130 2.1843
" />
<path d="M10.5130 2.1843
L11.2992 2.1843
" />
<path d="M12.4483 0.9143
L11.8435 0.9143
" />
<path d="M11.8435 0.9143
L11.7830 1.5190
" />
<path d="M11.7830 1.5190
L11.8435 1.4586
" />
<path d="M11.8435 1.4586
L11.9645 1.3981
" />
<path d="M11.9645 1.3981
L12.2668 1.3981
" />
<path d="M12.2668 1.3981
L12.3878 1.4586
" />
<path d="M12.3878 1.4586
L12.4483 1.5190
" />
<path d="M12.4483 1.5190
L12.5087 1.6400
" />
<path d="M12.5087 1.6400
L12.5087 1.9424
" />
<path d="M12.5087 1.9424
L12.4483 2.0633
" />
<path d="M12.4483 2.0633
L12.3878 2.1238
" />
<path d="M12.3878 2.1238
L12.2668 2.1843
" />
<path d="M12.2668 2.1843
L11.9645 2.1843
" />
<path d="M11.9645 2.1843
L11.8435 2.1238
" />
<path d="M11.8435 2.1238
L11.7830 2.0633
" />
<path d="M13.0530 2.1843
L13.0530 0.9143
" />
<path d="M13.0530 0.9143
L13.4764 1.8214
" />
<path d="M13.4764 1.8214
L13.8997 0.9143
" />
<path d="M13.8997 0.9143
L13.8997 2.1843
" />
<path d="M14.9883 2.1238
L14.8673 2.1843
" />
<path d="M14.8673 2.1843
L14.6254 2.1843
" />
<path d="M14.6254 2.1843
L14.5045 2.1238
" />
<path d="M14.5045 2.1238
L14.4440 2.0028
" />
<path d="M14.4440 2.0028
L14.4440 1.5190
" />
<path d="M14.4440 1.5190
L14.5045 1.3981
" />
<path d="M14.5045 1.3981
L14.6254 1.3376
" />
<path d="M14.6254 1.3376
L14.8673 1.3376
" />
<path d="M14.8673 1.3376
L14.9883 1.3981
" />
<path d="M14.9883 1.3981
L15.0487 1.5190
" />
<path d="M15.0487 1.5190
L15.0487 1.6400
" />
<path d="M15.0487 1.6400
L14.4440 1.7609
" />
<path d="M15.4116 1.3376
L15.8954 1.3376
" />
<path d="M15.5930 0.9143
L15.5930 2.0028
" />
<path d="M15.5930 2.0028
L15.6535 2.1238
" />
<path d="M15.6535 2.1238
L15.7745 2.1843
" />
<path d="M15.7745 2.1843
L15.8954 2.1843
" />
<path d="M16.3187 2.1843
L16.3187 1.3376
" />
<path d="M16.3187 1.5795
L16.3792 1.4586
" />
<path d="M16.3792 1.4586
L16.4397 1.3981
" />
<path d="M16.4397 1.3981
L16.5606 1.3376
" />
<path d="M16.5606 1.3376
L16.6816 1.3376
" />
<path d="M17.1049 2.1843
L17.1049 1.3376
" />
<path d="M17.1049 0.9143
L17.0445 0.9747
" />
<path d="M17.0445 0.9747
L17.1049 1.0352
" />
<path d="M17.1049 1.0352
L17.1654 0.9747
" />
<path d="M17.1654 0.9747
L17.1049 0.9143
" />
<path d="M17.1049 0.9143
L17.1049 1.0352
" />
<path d="M18.2540 2.1238
L18.1330 2.1843
" />
<path d="M18.1330 2.1843
L17.8911 2.1843
" />
<path d="M17.8911 2.1843
L17.7702 2.1238
" />
<path d="M17.7702 2.1238
L17.7097 2.0633
" />
<path d="M17.7097 2.0633
L17.6492 1.9424
" />
<path d="M17.6492 1.9424
L17.6492 1.5795
" />
<path d="M17.6492 1.5795
L17.7097 1.4586
" />
<path d="M17.7097 1.4586
L17.7702 1.3981
" />
<path d="M17.7702 1.3981
L17.8911 1.3376
" />
<path d="M17.8911 1.3376
L18.1330 1.3376
" />
<path d="M18.1330 1.3376
L18.2540 1.3981
" />
</g></g>
<g style="fill:none; 
stroke:#AFAFAF; stroke-width:0.1200; stroke-opacity:1; 
stroke-linecap:round; stroke-linejoin:round;">
<text x="9.3035" y="2.0050"
textLength="3.6286" font-size="1.0667" lengthAdjust="spacingAndGlyphs"
text-anchor="middle" opacity="0">REF**</text>
<g class="stroked-text"><desc>REF**</desc>
<path d="M8.2368 1.9689
L7.9702 1.5879
" />
<path d="M7.7797 1.9689
L7.7797 1.1689
" />
<path d="M7.7797 1.1689
L8.0845 1.1689
" />
<path d="M8.0845 1.1689
L8.1606 1.2070
" />
<path d="M8.1606 1.2070
L8.1987 1.2450
" />
<path d="M8.1987 1.2450
L8.2368 1.3212
" />
<path d="M8.2368 1.3212
L8.2368 1.4355
" />
<path d="M8.2368 1.4355
L8.1987 1.5117
" />
<path d="M8.1987 1.5117
L8.1606 1.5498
" />
<path d="M8.1606 1.5498
L8.0845 1.5879
" />
<path d="M8.0845 1.5879
L7.7797 1.5879
" />
<path d="M8.5797 1.5498
L8.8464 1.5498
" />
<path d="M8.9606 1.9689
L8.5797 1.9689
" />
<path d="M8.5797 1.9689
L8.5797 1.1689
" />
<path d="M8.5797 1.1689
L8.9606 1.1689
" />
<path d="M9.5702 1.5498
L9.3035 1.5498
" />
<path d="M9.3035 1.9689
L9.3035 1.1689
" />
<path d="M9.3035 1.1689
L9.6845 1.1689
" />
<path d="M10.1035 1.1689
L10.1035 1.3593
" />
<path d="M9.9130 1.2831
L10.1035 1.3593
" />
<path d="M10.1035 1.3593
L10.2940 1.2831
" />
<path d="M9.9892 1.5117
L10.1035 1.3593
" />
<path d="M10.1035 1.3593
L10.2178 1.5117
" />
<path d="M10.7130 1.1689
L10.7130 1.3593
" />
<path d="M10.5226 1.2831
L10.7130 1.3593
" />
<path d="M10.7130 1.3593
L10.9035 1.2831
" />
<path d="M10.5987 1.5117
L10.7130 1.3593
" />
<path d="M10.7130 1.3593
L10.8273 1.5117
" />
</g></g>
<g style="fill:none; 
stroke:#AFAFAF; stroke-width:0.1000; stroke-opacity:1; 
stroke-linecap:round; stroke-linejoin:round;">
<path d="M7.7035 0.3550
L10.9035 0.3550
" />
<path d="M7.7035 2.8550
L7.7035 0.3550
" />
<path d="M10.9035 0.3550
L10.9035 2.8550
" />
<path d="M10.9035 2.8550
L7.7035 2.8550
" />
</g> 
</svg>
