<?xml version="1.0" standalone="no"?>
 <!DOCTYPE svg PUBLIC "-//W3C//DTD SVG 1.1//EN" 
 "http://www.w3.org/Graphics/SVG/1.1/DTD/svg11.dtd"> 
<svg
  xmlns:svg="http://www.w3.org/2000/svg"
  xmlns="http://www.w3.org/2000/svg"
  xmlns:xlink="http://www.w3.org/1999/xlink"
  version="1.1"
  width="27.6098mm" height="10.9728mm" viewBox="0.0000 0.0000 27.6098 10.9728">
<title>SVG Image created as working-brd.svg date 2024/04/21 13:51:28 </title>
  <desc>Image generated by PCBNEW </desc>
<g style="fill:#000000; fill-opacity:1.0000;stroke:#000000; stroke-opacity:1.0000;
stroke-linecap:round; stroke-linejoin:round;"
 transform="translate(0 0) scale(1 1)">
</g>
<g style="fill:#FFFFFF; fill-opacity:1.0000; stroke:none;">
<circle cx="13.8090" cy="1.1100" r="0.4000" /> 
</g>
<g style="fill:#FFFFFF; fill-opacity:1.0000; stroke:none;">
<circle cx="13.8090" cy="2.8900" r="0.4000" /> 
</g>
<g style="fill:#FFFFFF; fill-opacity:1.0000; stroke:none;">
<circle cx="13.8090" cy="4.6700" r="0.4000" /> 
</g>
<g style="fill:#FFFFFF; fill-opacity:1.0000; stroke:none;">
<circle cx="13.8090" cy="6.4500" r="0.4000" /> 
</g>
<g style="fill:#FFFFFF; fill-opacity:1.0000; stroke:none;">
<circle cx="13.8090" cy="10.0100" r="0.4000" /> 
</g>
<g style="fill:#FFFFFF; fill-opacity:1.0000; stroke:none;">
<circle cx="3.6490" cy="10.0100" r="0.4000" /> 
</g>
<g style="fill:#FFFFFF; fill-opacity:1.0000; stroke:none;">
<circle cx="3.6490" cy="8.2300" r="0.4000" /> 
</g>
<g style="fill:#FFFFFF; fill-opacity:1.0000; stroke:none;">
<circle cx="3.6490" cy="6.4500" r="0.4000" /> 
</g>
<g style="fill:#FFFFFF; fill-opacity:1.0000; stroke:none;">
<circle cx="3.6490" cy="4.6700" r="0.4000" /> 
</g>
<g style="fill:#FFFFFF; fill-opacity:1.0000; stroke:none;">
<circle cx="3.6490" cy="2.8900" r="0.4000" /> 
</g>
<g style="fill:#FFFFFF; fill-opacity:1.0000; stroke:none;">
<circle cx="3.6490" cy="1.1100" r="0.4000" /> 
<path style="fill:#02FFEE; fill-opacity:0.4000; stroke:none;fill-rule:evenodd;"
d="M 13.1090,1.8100
13.1090,0.4100
14.5090,0.4100
14.5090,1.8100
Z" /> 
</g>
<g style="fill:#02FFEE; fill-opacity:0.4000; stroke:none;">
<circle cx="13.8090" cy="2.8900" r="0.7000" /> 
<circle cx="13.8090" cy="4.6700" r="0.7000" /> 
<circle cx="13.8090" cy="6.4500" r="0.7000" /> 
<circle cx="13.8090" cy="10.0100" r="0.7000" /> 
<circle cx="3.6490" cy="10.0100" r="0.7000" /> 
<circle cx="3.6490" cy="8.2300" r="0.7000" /> 
<circle cx="3.6490" cy="6.4500" r="0.7000" /> 
<circle cx="3.6490" cy="4.6700" r="0.7000" /> 
<circle cx="3.6490" cy="2.8900" r="0.7000" /> 
<circle cx="3.6490" cy="1.1100" r="0.7000" /> 
</g>
<g style="fill:#FFFFFF; fill-opacity:1.0000; stroke:none;">
<circle cx="13.8090" cy="1.1100" r="0.4000" /> 
</g>
<g style="fill:#FFFFFF; fill-opacity:1.0000; stroke:none;">
<circle cx="13.8090" cy="2.8900" r="0.4000" /> 
</g>
<g style="fill:#FFFFFF; fill-opacity:1.0000; stroke:none;">
<circle cx="13.8090" cy="4.6700" r="0.4000" /> 
</g>
<g style="fill:#FFFFFF; fill-opacity:1.0000; stroke:none;">
<circle cx="13.8090" cy="6.4500" r="0.4000" /> 
</g>
<g style="fill:#FFFFFF; fill-opacity:1.0000; stroke:none;">
<circle cx="13.8090" cy="10.0100" r="0.4000" /> 
</g>
<g style="fill:#FFFFFF; fill-opacity:1.0000; stroke:none;">
<circle cx="3.6490" cy="10.0100" r="0.4000" /> 
</g>
<g style="fill:#FFFFFF; fill-opacity:1.0000; stroke:none;">
<circle cx="3.6490" cy="8.2300" r="0.4000" /> 
</g>
<g style="fill:#FFFFFF; fill-opacity:1.0000; stroke:none;">
<circle cx="3.6490" cy="6.4500" r="0.4000" /> 
</g>
<g style="fill:#FFFFFF; fill-opacity:1.0000; stroke:none;">
<circle cx="3.6490" cy="4.6700" r="0.4000" /> 
</g>
<g style="fill:#FFFFFF; fill-opacity:1.0000; stroke:none;">
<circle cx="3.6490" cy="2.8900" r="0.4000" /> 
</g>
<g style="fill:#FFFFFF; fill-opacity:1.0000; stroke:none;">
<circle cx="3.6490" cy="1.1100" r="0.4000" /> 
</g>
<g style="fill:#FFFFFF; fill-opacity:1.0000; stroke:none;">
<circle cx="13.8090" cy="1.1100" r="0.4000" /> 
</g>
<g style="fill:#FFFFFF; fill-opacity:1.0000; stroke:none;">
<circle cx="13.8090" cy="2.8900" r="0.4000" /> 
</g>
<g style="fill:#FFFFFF; fill-opacity:1.0000; stroke:none;">
<circle cx="13.8090" cy="4.6700" r="0.4000" /> 
</g>
<g style="fill:#FFFFFF; fill-opacity:1.0000; stroke:none;">
<circle cx="13.8090" cy="6.4500" r="0.4000" /> 
</g>
<g style="fill:#FFFFFF; fill-opacity:1.0000; stroke:none;">
<circle cx="13.8090" cy="10.0100" r="0.4000" /> 
</g>
<g style="fill:#FFFFFF; fill-opacity:1.0000; stroke:none;">
<circle cx="3.6490" cy="10.0100" r="0.4000" /> 
</g>
<g style="fill:#FFFFFF; fill-opacity:1.0000; stroke:none;">
<circle cx="3.6490" cy="8.2300" r="0.4000" /> 
</g>
<g style="fill:#FFFFFF; fill-opacity:1.0000; stroke:none;">
<circle cx="3.6490" cy="6.4500" r="0.4000" /> 
</g>
<g style="fill:#FFFFFF; fill-opacity:1.0000; stroke:none;">
<circle cx="3.6490" cy="4.6700" r="0.4000" /> 
</g>
<g style="fill:#FFFFFF; fill-opacity:1.0000; stroke:none;">
<circle cx="3.6490" cy="2.8900" r="0.4000" /> 
</g>
<g style="fill:#FFFFFF; fill-opacity:1.0000; stroke:none;">
<circle cx="3.6490" cy="1.1100" r="0.4000" /> 
<path style="fill:#D864FF; fill-opacity:0.4000; stroke:none;fill-rule:evenodd;"
d="M 13.1090,1.8100
13.1090,0.4100
14.5090,0.4100
14.5090,1.8100
Z" /> 
</g>
<g style="fill:#D864FF; fill-opacity:0.4000; stroke:none;">
<circle cx="13.8090" cy="2.8900" r="0.7000" /> 
<circle cx="13.8090" cy="4.6700" r="0.7000" /> 
<circle cx="13.8090" cy="6.4500" r="0.7000" /> 
<circle cx="13.8090" cy="10.0100" r="0.7000" /> 
<circle cx="3.6490" cy="10.0100" r="0.7000" /> 
<circle cx="3.6490" cy="8.2300" r="0.7000" /> 
<circle cx="3.6490" cy="6.4500" r="0.7000" /> 
<circle cx="3.6490" cy="4.6700" r="0.7000" /> 
<circle cx="3.6490" cy="2.8900" r="0.7000" /> 
<circle cx="3.6490" cy="1.1100" r="0.7000" /> 
</g>
<g style="fill:none; 
stroke:#F2EDA1; stroke-width:0.1588; stroke-opacity:1; 
stroke-linecap:round; stroke-linejoin:round;">
<text x="13.8090" y="1.7450"
textLength="5.6651" font-size="1.6933" lengthAdjust="spacingAndGlyphs"
text-anchor="middle" opacity="0">REF**</text>
<g class="stroked-text"><desc>REF**</desc>
<path d="M12.1156 1.6893
L11.6923 1.0845
" />
<path d="M11.3899 1.6893
L11.3899 0.4193
" />
<path d="M11.3899 0.4193
L11.8737 0.4193
" />
<path d="M11.8737 0.4193
L11.9947 0.4797
" />
<path d="M11.9947 0.4797
L12.0552 0.5402
" />
<path d="M12.0552 0.5402
L12.1156 0.6612
" />
<path d="M12.1156 0.6612
L12.1156 0.8426
" />
<path d="M12.1156 0.8426
L12.0552 0.9636
" />
<path d="M12.0552 0.9636
L11.9947 1.0240
" />
<path d="M11.9947 1.0240
L11.8737 1.0845
" />
<path d="M11.8737 1.0845
L11.3899 1.0845
" />
<path d="M12.6599 1.0240
L13.0833 1.0240
" />
<path d="M13.2647 1.6893
L12.6599 1.6893
" />
<path d="M12.6599 1.6893
L12.6599 0.4193
" />
<path d="M12.6599 0.4193
L13.2647 0.4193
" />
<path d="M14.2323 1.0240
L13.8090 1.0240
" />
<path d="M13.8090 1.6893
L13.8090 0.4193
" />
<path d="M13.8090 0.4193
L14.4137 0.4193
" />
<path d="M15.0790 0.4193
L15.0790 0.7217
" />
<path d="M14.7766 0.6007
L15.0790 0.7217
" />
<path d="M15.0790 0.7217
L15.3814 0.6007
" />
<path d="M14.8976 0.9636
L15.0790 0.7217
" />
<path d="M15.0790 0.7217
L15.2604 0.9636
" />
<path d="M16.0466 0.4193
L16.0466 0.7217
" />
<path d="M15.7442 0.6007
L16.0466 0.7217
" />
<path d="M16.0466 0.7217
L16.3490 0.6007
" />
<path d="M15.8652 0.9636
L16.0466 0.7217
" />
<path d="M16.0466 0.7217
L16.2280 0.9636
" />
</g></g>
<g style="fill:none; 
stroke:#F2EDA1; stroke-width:0.1200; stroke-opacity:1; 
stroke-linecap:round; stroke-linejoin:round;">
<path d="M2.9290 0.0600
L6.0290 0.0600
" />
</g>
<g style="fill:none; 
stroke:#F2EDA1; stroke-width:0.1000; stroke-opacity:1; 
stroke-linecap:round; stroke-linejoin:round;">
<path d="M4.7290 0.3600
L4.7290 10.7600
" />
<path d="M4.7290 10.7600
L12.7290 10.7600
" />
<path d="M12.7290 0.3600
L4.7290 0.3600
" />
<path d="M12.7290 10.7600
L12.7290 0.3600
" />
</g>
<g style="fill:#FFFFFF; fill-opacity:1.0000; stroke:none;">
<circle cx="13.8090" cy="1.1100" r="0.4000" /> 
</g>
<g style="fill:#FFFFFF; fill-opacity:1.0000; stroke:none;">
<circle cx="13.8090" cy="2.8900" r="0.4000" /> 
</g>
<g style="fill:#FFFFFF; fill-opacity:1.0000; stroke:none;">
<circle cx="13.8090" cy="4.6700" r="0.4000" /> 
</g>
<g style="fill:#FFFFFF; fill-opacity:1.0000; stroke:none;">
<circle cx="13.8090" cy="6.4500" r="0.4000" /> 
</g>
<g style="fill:#FFFFFF; fill-opacity:1.0000; stroke:none;">
<circle cx="13.8090" cy="10.0100" r="0.4000" /> 
</g>
<g style="fill:#FFFFFF; fill-opacity:1.0000; stroke:none;">
<circle cx="3.6490" cy="10.0100" r="0.4000" /> 
</g>
<g style="fill:#FFFFFF; fill-opacity:1.0000; stroke:none;">
<circle cx="3.6490" cy="8.2300" r="0.4000" /> 
</g>
<g style="fill:#FFFFFF; fill-opacity:1.0000; stroke:none;">
<circle cx="3.6490" cy="6.4500" r="0.4000" /> 
</g>
<g style="fill:#FFFFFF; fill-opacity:1.0000; stroke:none;">
<circle cx="3.6490" cy="4.6700" r="0.4000" /> 
</g>
<g style="fill:#FFFFFF; fill-opacity:1.0000; stroke:none;">
<circle cx="3.6490" cy="2.8900" r="0.4000" /> 
</g>
<g style="fill:#FFFFFF; fill-opacity:1.0000; stroke:none;">
<circle cx="3.6490" cy="1.1100" r="0.4000" /> 
</g>
<g style="fill:none; 
stroke:#FF26E2; stroke-width:0.0500; stroke-opacity:1; 
stroke-linecap:round; stroke-linejoin:round;">
<path d="M2.6990 0.1600
L2.6990 10.9600
" />
<path d="M2.6990 0.1600
L14.7590 0.1600
" />
<path d="M14.7590 10.9600
L2.6990 10.9600
" />
<path d="M14.7590 10.9600
L14.7590 0.1600
" />
</g>
<g style="fill:none; 
stroke:#AFAFAF; stroke-width:0.1588; stroke-opacity:1; 
stroke-linecap:round; stroke-linejoin:round;">
<text x="13.8090" y="1.7450"
textLength="27.6180" font-size="1.6933" lengthAdjust="spacingAndGlyphs"
text-anchor="middle" opacity="0">PowerIntegrations_eDIP-12B</text>
<g class="stroked-text"><desc>PowerIntegrations_eDIP-12B</desc>
<path d="M0.4135 1.6893
L0.4135 0.4193
" />
<path d="M0.4135 0.4193
L0.8973 0.4193
" />
<path d="M0.8973 0.4193
L1.0183 0.4797
" />
<path d="M1.0183 0.4797
L1.0787 0.5402
" />
<path d="M1.0787 0.5402
L1.1392 0.6612
" />
<path d="M1.1392 0.6612
L1.1392 0.8426
" />
<path d="M1.1392 0.8426
L1.0787 0.9636
" />
<path d="M1.0787 0.9636
L1.0183 1.0240
" />
<path d="M1.0183 1.0240
L0.8973 1.0845
" />
<path d="M0.8973 1.0845
L0.4135 1.0845
" />
<path d="M1.8649 1.6893
L1.7440 1.6288
" />
<path d="M1.7440 1.6288
L1.6835 1.5683
" />
<path d="M1.6835 1.5683
L1.6230 1.4474
" />
<path d="M1.6230 1.4474
L1.6230 1.0845
" />
<path d="M1.6230 1.0845
L1.6835 0.9636
" />
<path d="M1.6835 0.9636
L1.7440 0.9031
" />
<path d="M1.7440 0.9031
L1.8649 0.8426
" />
<path d="M1.8649 0.8426
L2.0464 0.8426
" />
<path d="M2.0464 0.8426
L2.1673 0.9031
" />
<path d="M2.1673 0.9031
L2.2278 0.9636
" />
<path d="M2.2278 0.9636
L2.2883 1.0845
" />
<path d="M2.2883 1.0845
L2.2883 1.4474
" />
<path d="M2.2883 1.4474
L2.2278 1.5683
" />
<path d="M2.2278 1.5683
L2.1673 1.6288
" />
<path d="M2.1673 1.6288
L2.0464 1.6893
" />
<path d="M2.0464 1.6893
L1.8649 1.6893
" />
<path d="M2.7116 0.8426
L2.9535 1.6893
" />
<path d="M2.9535 1.6893
L3.1954 1.0845
" />
<path d="M3.1954 1.0845
L3.4373 1.6893
" />
<path d="M3.4373 1.6893
L3.6792 0.8426
" />
<path d="M4.6468 1.6288
L4.5259 1.6893
" />
<path d="M4.5259 1.6893
L4.2840 1.6893
" />
<path d="M4.2840 1.6893
L4.1630 1.6288
" />
<path d="M4.1630 1.6288
L4.1026 1.5078
" />
<path d="M4.1026 1.5078
L4.1026 1.0240
" />
<path d="M4.1026 1.0240
L4.1630 0.9031
" />
<path d="M4.1630 0.9031
L4.2840 0.8426
" />
<path d="M4.2840 0.8426
L4.5259 0.8426
" />
<path d="M4.5259 0.8426
L4.6468 0.9031
" />
<path d="M4.6468 0.9031
L4.7073 1.0240
" />
<path d="M4.7073 1.0240
L4.7073 1.1450
" />
<path d="M4.7073 1.1450
L4.1026 1.2659
" />
<path d="M5.2516 1.6893
L5.2516 0.8426
" />
<path d="M5.2516 1.0845
L5.3121 0.9636
" />
<path d="M5.3121 0.9636
L5.3726 0.9031
" />
<path d="M5.3726 0.9031
L5.4935 0.8426
" />
<path d="M5.4935 0.8426
L5.6145 0.8426
" />
<path d="M6.0378 1.6893
L6.0378 0.4193
" />
<path d="M6.6426 0.8426
L6.6426 1.6893
" />
<path d="M6.6426 0.9636
L6.7030 0.9031
" />
<path d="M6.7030 0.9031
L6.8240 0.8426
" />
<path d="M6.8240 0.8426
L7.0054 0.8426
" />
<path d="M7.0054 0.8426
L7.1264 0.9031
" />
<path d="M7.1264 0.9031
L7.1868 1.0240
" />
<path d="M7.1868 1.0240
L7.1868 1.6893
" />
<path d="M7.6102 0.8426
L8.0940 0.8426
" />
<path d="M7.7916 0.4193
L7.7916 1.5078
" />
<path d="M7.7916 1.5078
L7.8521 1.6288
" />
<path d="M7.8521 1.6288
L7.9730 1.6893
" />
<path d="M7.9730 1.6893
L8.0940 1.6893
" />
<path d="M9.0011 1.6288
L8.8802 1.6893
" />
<path d="M8.8802 1.6893
L8.6383 1.6893
" />
<path d="M8.6383 1.6893
L8.5173 1.6288
" />
<path d="M8.5173 1.6288
L8.4568 1.5078
" />
<path d="M8.4568 1.5078
L8.4568 1.0240
" />
<path d="M8.4568 1.0240
L8.5173 0.9031
" />
<path d="M8.5173 0.9031
L8.6383 0.8426
" />
<path d="M8.6383 0.8426
L8.8802 0.8426
" />
<path d="M8.8802 0.8426
L9.0011 0.9031
" />
<path d="M9.0011 0.9031
L9.0616 1.0240
" />
<path d="M9.0616 1.0240
L9.0616 1.1450
" />
<path d="M9.0616 1.1450
L8.4568 1.2659
" />
<path d="M10.1502 0.8426
L10.1502 1.8707
" />
<path d="M10.1502 1.8707
L10.0897 1.9917
" />
<path d="M10.0897 1.9917
L10.0292 2.0521
" />
<path d="M10.0292 2.0521
L9.9083 2.1126
" />
<path d="M9.9083 2.1126
L9.7268 2.1126
" />
<path d="M9.7268 2.1126
L9.6059 2.0521
" />
<path d="M10.1502 1.6288
L10.0292 1.6893
" />
<path d="M10.0292 1.6893
L9.7873 1.6893
" />
<path d="M9.7873 1.6893
L9.6664 1.6288
" />
<path d="M9.6664 1.6288
L9.6059 1.5683
" />
<path d="M9.6059 1.5683
L9.5454 1.4474
" />
<path d="M9.5454 1.4474
L9.5454 1.0845
" />
<path d="M9.5454 1.0845
L9.6059 0.9636
" />
<path d="M9.6059 0.9636
L9.6664 0.9031
" />
<path d="M9.6664 0.9031
L9.7873 0.8426
" />
<path d="M9.7873 0.8426
L10.0292 0.8426
" />
<path d="M10.0292 0.8426
L10.1502 0.9031
" />
<path d="M10.7549 1.6893
L10.7549 0.8426
" />
<path d="M10.7549 1.0845
L10.8154 0.9636
" />
<path d="M10.8154 0.9636
L10.8759 0.9031
" />
<path d="M10.8759 0.9031
L10.9968 0.8426
" />
<path d="M10.9968 0.8426
L11.1178 0.8426
" />
<path d="M12.0854 1.6893
L12.0854 1.0240
" />
<path d="M12.0854 1.0240
L12.0249 0.9031
" />
<path d="M12.0249 0.9031
L11.9040 0.8426
" />
<path d="M11.9040 0.8426
L11.6621 0.8426
" />
<path d="M11.6621 0.8426
L11.5411 0.9031
" />
<path d="M12.0854 1.6288
L11.9645 1.6893
" />
<path d="M11.9645 1.6893
L11.6621 1.6893
" />
<path d="M11.6621 1.6893
L11.5411 1.6288
" />
<path d="M11.5411 1.6288
L11.4806 1.5078
" />
<path d="M11.4806 1.5078
L11.4806 1.3869
" />
<path d="M11.4806 1.3869
L11.5411 1.2659
" />
<path d="M11.5411 1.2659
L11.6621 1.2055
" />
<path d="M11.6621 1.2055
L11.9645 1.2055
" />
<path d="M11.9645 1.2055
L12.0854 1.1450
" />
<path d="M12.5087 0.8426
L12.9926 0.8426
" />
<path d="M12.6902 0.4193
L12.6902 1.5078
" />
<path d="M12.6902 1.5078
L12.7506 1.6288
" />
<path d="M12.7506 1.6288
L12.8716 1.6893
" />
<path d="M12.8716 1.6893
L12.9926 1.6893
" />
<path d="M13.4159 1.6893
L13.4159 0.8426
" />
<path d="M13.4159 0.4193
L13.3554 0.4797
" />
<path d="M13.3554 0.4797
L13.4159 0.5402
" />
<path d="M13.4159 0.5402
L13.4764 0.4797
" />
<path d="M13.4764 0.4797
L13.4159 0.4193
" />
<path d="M13.4159 0.4193
L13.4159 0.5402
" />
<path d="M14.2021 1.6893
L14.0811 1.6288
" />
<path d="M14.0811 1.6288
L14.0206 1.5683
" />
<path d="M14.0206 1.5683
L13.9602 1.4474
" />
<path d="M13.9602 1.4474
L13.9602 1.0845
" />
<path d="M13.9602 1.0845
L14.0206 0.9636
" />
<path d="M14.0206 0.9636
L14.0811 0.9031
" />
<path d="M14.0811 0.9031
L14.2021 0.8426
" />
<path d="M14.2021 0.8426
L14.3835 0.8426
" />
<path d="M14.3835 0.8426
L14.5045 0.9031
" />
<path d="M14.5045 0.9031
L14.5649 0.9636
" />
<path d="M14.5649 0.9636
L14.6254 1.0845
" />
<path d="M14.6254 1.0845
L14.6254 1.4474
" />
<path d="M14.6254 1.4474
L14.5649 1.5683
" />
<path d="M14.5649 1.5683
L14.5045 1.6288
" />
<path d="M14.5045 1.6288
L14.3835 1.6893
" />
<path d="M14.3835 1.6893
L14.2021 1.6893
" />
<path d="M15.1697 0.8426
L15.1697 1.6893
" />
<path d="M15.1697 0.9636
L15.2302 0.9031
" />
<path d="M15.2302 0.9031
L15.3511 0.8426
" />
<path d="M15.3511 0.8426
L15.5326 0.8426
" />
<path d="M15.5326 0.8426
L15.6535 0.9031
" />
<path d="M15.6535 0.9031
L15.7140 1.0240
" />
<path d="M15.7140 1.0240
L15.7140 1.6893
" />
<path d="M16.2583 1.6288
L16.3792 1.6893
" />
<path d="M16.3792 1.6893
L16.6211 1.6893
" />
<path d="M16.6211 1.6893
L16.7421 1.6288
" />
<path d="M16.7421 1.6288
L16.8026 1.5078
" />
<path d="M16.8026 1.5078
L16.8026 1.4474
" />
<path d="M16.8026 1.4474
L16.7421 1.3264
" />
<path d="M16.7421 1.3264
L16.6211 1.2659
" />
<path d="M16.6211 1.2659
L16.4397 1.2659
" />
<path d="M16.4397 1.2659
L16.3187 1.2055
" />
<path d="M16.3187 1.2055
L16.2583 1.0845
" />
<path d="M16.2583 1.0845
L16.2583 1.0240
" />
<path d="M16.2583 1.0240
L16.3187 0.9031
" />
<path d="M16.3187 0.9031
L16.4397 0.8426
" />
<path d="M16.4397 0.8426
L16.6211 0.8426
" />
<path d="M16.6211 0.8426
L16.7421 0.9031
" />
<path d="M17.0445 1.8102
L18.0121 1.8102
" />
<path d="M18.7983 1.6288
L18.6773 1.6893
" />
<path d="M18.6773 1.6893
L18.4354 1.6893
" />
<path d="M18.4354 1.6893
L18.3145 1.6288
" />
<path d="M18.3145 1.6288
L18.2540 1.5078
" />
<path d="M18.2540 1.5078
L18.2540 1.0240
" />
<path d="M18.2540 1.0240
L18.3145 0.9031
" />
<path d="M18.3145 0.9031
L18.4354 0.8426
" />
<path d="M18.4354 0.8426
L18.6773 0.8426
" />
<path d="M18.6773 0.8426
L18.7983 0.9031
" />
<path d="M18.7983 0.9031
L18.8587 1.0240
" />
<path d="M18.8587 1.0240
L18.8587 1.1450
" />
<path d="M18.8587 1.1450
L18.2540 1.2659
" />
<path d="M19.4030 1.6893
L19.4030 0.4193
" />
<path d="M19.4030 0.4193
L19.7054 0.4193
" />
<path d="M19.7054 0.4193
L19.8868 0.4797
" />
<path d="M19.8868 0.4797
L20.0078 0.6007
" />
<path d="M20.0078 0.6007
L20.0683 0.7217
" />
<path d="M20.0683 0.7217
L20.1287 0.9636
" />
<path d="M20.1287 0.9636
L20.1287 1.1450
" />
<path d="M20.1287 1.1450
L20.0683 1.3869
" />
<path d="M20.0683 1.3869
L20.0078 1.5078
" />
<path d="M20.0078 1.5078
L19.8868 1.6288
" />
<path d="M19.8868 1.6288
L19.7054 1.6893
" />
<path d="M19.7054 1.6893
L19.4030 1.6893
" />
<path d="M20.6730 1.6893
L20.6730 0.4193
" />
<path d="M21.2778 1.6893
L21.2778 0.4193
" />
<path d="M21.2778 0.4193
L21.7616 0.4193
" />
<path d="M21.7616 0.4193
L21.8826 0.4797
" />
<path d="M21.8826 0.4797
L21.9430 0.5402
" />
<path d="M21.9430 0.5402
L22.0035 0.6612
" />
<path d="M22.0035 0.6612
L22.0035 0.8426
" />
<path d="M22.0035 0.8426
L21.9430 0.9636
" />
<path d="M21.9430 0.9636
L21.8826 1.0240
" />
<path d="M21.8826 1.0240
L21.7616 1.0845
" />
<path d="M21.7616 1.0845
L21.2778 1.0845
" />
<path d="M22.5478 1.2055
L23.5154 1.2055
" />
<path d="M24.7854 1.6893
L24.0597 1.6893
" />
<path d="M24.4226 1.6893
L24.4226 0.4193
" />
<path d="M24.4226 0.4193
L24.3016 0.6007
" />
<path d="M24.3016 0.6007
L24.1806 0.7217
" />
<path d="M24.1806 0.7217
L24.0597 0.7821
" />
<path d="M25.2692 0.5402
L25.3297 0.4797
" />
<path d="M25.3297 0.4797
L25.4506 0.4193
" />
<path d="M25.4506 0.4193
L25.7530 0.4193
" />
<path d="M25.7530 0.4193
L25.8740 0.4797
" />
<path d="M25.8740 0.4797
L25.9345 0.5402
" />
<path d="M25.9345 0.5402
L25.9949 0.6612
" />
<path d="M25.9949 0.6612
L25.9949 0.7821
" />
<path d="M25.9949 0.7821
L25.9345 0.9636
" />
<path d="M25.9345 0.9636
L25.2087 1.6893
" />
<path d="M25.2087 1.6893
L25.9949 1.6893
" />
<path d="M26.9626 1.0240
L27.1440 1.0845
" />
<path d="M27.1440 1.0845
L27.2045 1.1450
" />
<path d="M27.2045 1.1450
L27.2649 1.2659
" />
<path d="M27.2649 1.2659
L27.2649 1.4474
" />
<path d="M27.2649 1.4474
L27.2045 1.5683
" />
<path d="M27.2045 1.5683
L27.1440 1.6288
" />
<path d="M27.1440 1.6288
L27.0230 1.6893
" />
<path d="M27.0230 1.6893
L26.5392 1.6893
" />
<path d="M26.5392 1.6893
L26.5392 0.4193
" />
<path d="M26.5392 0.4193
L26.9626 0.4193
" />
<path d="M26.9626 0.4193
L27.0835 0.4797
" />
<path d="M27.0835 0.4797
L27.1440 0.5402
" />
<path d="M27.1440 0.5402
L27.2045 0.6612
" />
<path d="M27.2045 0.6612
L27.2045 0.7821
" />
<path d="M27.2045 0.7821
L27.1440 0.9031
" />
<path d="M27.1440 0.9031
L27.0835 0.9636
" />
<path d="M27.0835 0.9636
L26.9626 1.0240
" />
<path d="M26.9626 1.0240
L26.5392 1.0240
" />
</g></g>
<g style="fill:none; 
stroke:#AFAFAF; stroke-width:0.1500; stroke-opacity:1; 
stroke-linecap:round; stroke-linejoin:round;">
<text x="8.7290" y="6.0600"
textLength="4.5357" font-size="1.3333" lengthAdjust="spacingAndGlyphs"
text-anchor="middle" opacity="0">REF**</text>
<g class="stroked-text"><desc>REF**</desc>
<path d="M7.3956 6.0148
L7.0623 5.5386
" />
<path d="M6.8242 6.0148
L6.8242 5.0148
" />
<path d="M6.8242 5.0148
L7.2052 5.0148
" />
<path d="M7.2052 5.0148
L7.3004 5.0624
" />
<path d="M7.3004 5.0624
L7.3480 5.1101
" />
<path d="M7.3480 5.1101
L7.3956 5.2053
" />
<path d="M7.3956 5.2053
L7.3956 5.3482
" />
<path d="M7.3956 5.3482
L7.3480 5.4434
" />
<path d="M7.3480 5.4434
L7.3004 5.4910
" />
<path d="M7.3004 5.4910
L7.2052 5.5386
" />
<path d="M7.2052 5.5386
L6.8242 5.5386
" />
<path d="M7.8242 5.4910
L8.1576 5.4910
" />
<path d="M8.3004 6.0148
L7.8242 6.0148
" />
<path d="M7.8242 6.0148
L7.8242 5.0148
" />
<path d="M7.8242 5.0148
L8.3004 5.0148
" />
<path d="M9.0623 5.4910
L8.7290 5.4910
" />
<path d="M8.7290 6.0148
L8.7290 5.0148
" />
<path d="M8.7290 5.0148
L9.2052 5.0148
" />
<path d="M9.7290 5.0148
L9.7290 5.2529
" />
<path d="M9.4909 5.1577
L9.7290 5.2529
" />
<path d="M9.7290 5.2529
L9.9671 5.1577
" />
<path d="M9.5861 5.4434
L9.7290 5.2529
" />
<path d="M9.7290 5.2529
L9.8718 5.4434
" />
<path d="M10.4909 5.0148
L10.4909 5.2529
" />
<path d="M10.2528 5.1577
L10.4909 5.2529
" />
<path d="M10.4909 5.2529
L10.7290 5.1577
" />
<path d="M10.3480 5.4434
L10.4909 5.2529
" />
<path d="M10.4909 5.2529
L10.6337 5.4434
" />
</g></g>
<g style="fill:none; 
stroke:#AFAFAF; stroke-width:0.1200; stroke-opacity:1; 
stroke-linecap:round; stroke-linejoin:round;">
<path d="M4.2290 1.9600
L4.2290 10.6600
" />
<path d="M4.2290 10.6600
L13.2290 10.6600
" />
<path d="M5.6290 0.4600
L4.2290 1.9600
" />
<path d="M13.2290 0.4600
L5.6290 0.4600
" />
<path d="M13.2290 10.6600
L13.2290 0.4600
" />
</g> 
</svg>
