<?xml version="1.0" standalone="no"?>
 <!DOCTYPE svg PUBLIC "-//W3C//DTD SVG 1.1//EN" 
 "http://www.w3.org/Graphics/SVG/1.1/DTD/svg11.dtd"> 
<svg
  xmlns:svg="http://www.w3.org/2000/svg"
  xmlns="http://www.w3.org/2000/svg"
  xmlns:xlink="http://www.w3.org/1999/xlink"
  version="1.1"
  width="46.8376mm" height="17.5260mm" viewBox="0.0000 0.0000 46.8376 17.5260">
<title>SVG Image created as working-brd.svg date 2024/04/16 07:37:49 </title>
  <desc>Image generated by PCBNEW </desc>
<g style="fill:#000000; fill-opacity:1.0000;stroke:#000000; stroke-opacity:1.0000;
stroke-linecap:round; stroke-linejoin:round;"
 transform="translate(0 0) scale(1 1)">
<path style="fill:#C83434; fill-opacity:1.0000; stroke:none;fill-rule:evenodd;"
d="M 21.4747,1.5250
21.4747,1.0250
23.4247,1.0250
23.4247,1.5250
Z" /> 
<path style="fill:#C83434; fill-opacity:1.0000; stroke:none;fill-rule:evenodd;"
d="M 23.4247,2.5250
23.4247,2.0250
25.3747,2.0250
25.3747,2.5250
Z" /> 
<path style="fill:#C83434; fill-opacity:1.0000; stroke:none;fill-rule:evenodd;"
d="M 21.4747,3.5250
21.4747,3.0250
23.4247,3.0250
23.4247,3.5250
Z" /> 
<path style="fill:#C83434; fill-opacity:1.0000; stroke:none;fill-rule:evenodd;"
d="M 23.4247,4.5250
23.4247,4.0250
25.3747,4.0250
25.3747,4.5250
Z" /> 
<path style="fill:#C83434; fill-opacity:1.0000; stroke:none;fill-rule:evenodd;"
d="M 21.4747,5.5250
21.4747,5.0250
23.4247,5.0250
23.4247,5.5250
Z" /> 
<path style="fill:#C83434; fill-opacity:1.0000; stroke:none;fill-rule:evenodd;"
d="M 23.4247,6.5250
23.4247,6.0250
25.3747,6.0250
25.3747,6.5250
Z" /> 
<path style="fill:#C83434; fill-opacity:1.0000; stroke:none;fill-rule:evenodd;"
d="M 21.4747,7.5250
21.4747,7.0250
23.4247,7.0250
23.4247,7.5250
Z" /> 
<path style="fill:#C83434; fill-opacity:1.0000; stroke:none;fill-rule:evenodd;"
d="M 23.4247,8.5250
23.4247,8.0250
25.3747,8.0250
25.3747,8.5250
Z" /> 
<path style="fill:#C83434; fill-opacity:1.0000; stroke:none;fill-rule:evenodd;"
d="M 21.4747,9.5250
21.4747,9.0250
23.4247,9.0250
23.4247,9.5250
Z" /> 
<path style="fill:#C83434; fill-opacity:1.0000; stroke:none;fill-rule:evenodd;"
d="M 23.4247,10.5250
23.4247,10.0250
25.3747,10.0250
25.3747,10.5250
Z" /> 
<path style="fill:#C83434; fill-opacity:1.0000; stroke:none;fill-rule:evenodd;"
d="M 21.4747,11.5250
21.4747,11.0250
23.4247,11.0250
23.4247,11.5250
Z" /> 
<path style="fill:#C83434; fill-opacity:1.0000; stroke:none;fill-rule:evenodd;"
d="M 23.4247,12.5250
23.4247,12.0250
25.3747,12.0250
25.3747,12.5250
Z" /> 
<path style="fill:#C83434; fill-opacity:1.0000; stroke:none;fill-rule:evenodd;"
d="M 21.4747,13.5250
21.4747,13.0250
23.4247,13.0250
23.4247,13.5250
Z" /> 
<path style="fill:#C83434; fill-opacity:1.0000; stroke:none;fill-rule:evenodd;"
d="M 23.4247,14.5250
23.4247,14.0250
25.3747,14.0250
25.3747,14.5250
Z" /> 
<path style="fill:#C83434; fill-opacity:1.0000; stroke:none;fill-rule:evenodd;"
d="M 21.4747,15.5250
21.4747,15.0250
23.4247,15.0250
23.4247,15.5250
Z" /> 
<path style="fill:#C83434; fill-opacity:1.0000; stroke:none;fill-rule:evenodd;"
d="M 23.4247,16.5250
23.4247,16.0250
25.3747,16.0250
25.3747,16.5250
Z" /> 
<path style="fill:#D864FF; fill-opacity:0.4000; stroke:none;fill-rule:evenodd;"
d="M 21.4747,1.5250
21.4747,1.0250
23.4247,1.0250
23.4247,1.5250
Z" /> 
<path style="fill:#D864FF; fill-opacity:0.4000; stroke:none;fill-rule:evenodd;"
d="M 23.4247,2.5250
23.4247,2.0250
25.3747,2.0250
25.3747,2.5250
Z" /> 
<path style="fill:#D864FF; fill-opacity:0.4000; stroke:none;fill-rule:evenodd;"
d="M 21.4747,3.5250
21.4747,3.0250
23.4247,3.0250
23.4247,3.5250
Z" /> 
<path style="fill:#D864FF; fill-opacity:0.4000; stroke:none;fill-rule:evenodd;"
d="M 23.4247,4.5250
23.4247,4.0250
25.3747,4.0250
25.3747,4.5250
Z" /> 
<path style="fill:#D864FF; fill-opacity:0.4000; stroke:none;fill-rule:evenodd;"
d="M 21.4747,5.5250
21.4747,5.0250
23.4247,5.0250
23.4247,5.5250
Z" /> 
<path style="fill:#D864FF; fill-opacity:0.4000; stroke:none;fill-rule:evenodd;"
d="M 23.4247,6.5250
23.4247,6.0250
25.3747,6.0250
25.3747,6.5250
Z" /> 
<path style="fill:#D864FF; fill-opacity:0.4000; stroke:none;fill-rule:evenodd;"
d="M 21.4747,7.5250
21.4747,7.0250
23.4247,7.0250
23.4247,7.5250
Z" /> 
<path style="fill:#D864FF; fill-opacity:0.4000; stroke:none;fill-rule:evenodd;"
d="M 23.4247,8.5250
23.4247,8.0250
25.3747,8.0250
25.3747,8.5250
Z" /> 
<path style="fill:#D864FF; fill-opacity:0.4000; stroke:none;fill-rule:evenodd;"
d="M 21.4747,9.5250
21.4747,9.0250
23.4247,9.0250
23.4247,9.5250
Z" /> 
<path style="fill:#D864FF; fill-opacity:0.4000; stroke:none;fill-rule:evenodd;"
d="M 23.4247,10.5250
23.4247,10.0250
25.3747,10.0250
25.3747,10.5250
Z" /> 
<path style="fill:#D864FF; fill-opacity:0.4000; stroke:none;fill-rule:evenodd;"
d="M 21.4747,11.5250
21.4747,11.0250
23.4247,11.0250
23.4247,11.5250
Z" /> 
<path style="fill:#D864FF; fill-opacity:0.4000; stroke:none;fill-rule:evenodd;"
d="M 23.4247,12.5250
23.4247,12.0250
25.3747,12.0250
25.3747,12.5250
Z" /> 
<path style="fill:#D864FF; fill-opacity:0.4000; stroke:none;fill-rule:evenodd;"
d="M 21.4747,13.5250
21.4747,13.0250
23.4247,13.0250
23.4247,13.5250
Z" /> 
<path style="fill:#D864FF; fill-opacity:0.4000; stroke:none;fill-rule:evenodd;"
d="M 23.4247,14.5250
23.4247,14.0250
25.3747,14.0250
25.3747,14.5250
Z" /> 
<path style="fill:#D864FF; fill-opacity:0.4000; stroke:none;fill-rule:evenodd;"
d="M 21.4747,15.5250
21.4747,15.0250
23.4247,15.0250
23.4247,15.5250
Z" /> 
<path style="fill:#D864FF; fill-opacity:0.4000; stroke:none;fill-rule:evenodd;"
d="M 23.4247,16.5250
23.4247,16.0250
25.3747,16.0250
25.3747,16.5250
Z" /> 
<path style="fill:#B4A09A; fill-opacity:0.9000; stroke:none;fill-rule:evenodd;"
d="M 21.4747,1.5250
21.4747,1.0250
23.4247,1.0250
23.4247,1.5250
Z" /> 
<path style="fill:#B4A09A; fill-opacity:0.9000; stroke:none;fill-rule:evenodd;"
d="M 23.4247,2.5250
23.4247,2.0250
25.3747,2.0250
25.3747,2.5250
Z" /> 
<path style="fill:#B4A09A; fill-opacity:0.9000; stroke:none;fill-rule:evenodd;"
d="M 21.4747,3.5250
21.4747,3.0250
23.4247,3.0250
23.4247,3.5250
Z" /> 
<path style="fill:#B4A09A; fill-opacity:0.9000; stroke:none;fill-rule:evenodd;"
d="M 23.4247,4.5250
23.4247,4.0250
25.3747,4.0250
25.3747,4.5250
Z" /> 
<path style="fill:#B4A09A; fill-opacity:0.9000; stroke:none;fill-rule:evenodd;"
d="M 21.4747,5.5250
21.4747,5.0250
23.4247,5.0250
23.4247,5.5250
Z" /> 
<path style="fill:#B4A09A; fill-opacity:0.9000; stroke:none;fill-rule:evenodd;"
d="M 23.4247,6.5250
23.4247,6.0250
25.3747,6.0250
25.3747,6.5250
Z" /> 
<path style="fill:#B4A09A; fill-opacity:0.9000; stroke:none;fill-rule:evenodd;"
d="M 21.4747,7.5250
21.4747,7.0250
23.4247,7.0250
23.4247,7.5250
Z" /> 
<path style="fill:#B4A09A; fill-opacity:0.9000; stroke:none;fill-rule:evenodd;"
d="M 23.4247,8.5250
23.4247,8.0250
25.3747,8.0250
25.3747,8.5250
Z" /> 
<path style="fill:#B4A09A; fill-opacity:0.9000; stroke:none;fill-rule:evenodd;"
d="M 21.4747,9.5250
21.4747,9.0250
23.4247,9.0250
23.4247,9.5250
Z" /> 
<path style="fill:#B4A09A; fill-opacity:0.9000; stroke:none;fill-rule:evenodd;"
d="M 23.4247,10.5250
23.4247,10.0250
25.3747,10.0250
25.3747,10.5250
Z" /> 
<path style="fill:#B4A09A; fill-opacity:0.9000; stroke:none;fill-rule:evenodd;"
d="M 21.4747,11.5250
21.4747,11.0250
23.4247,11.0250
23.4247,11.5250
Z" /> 
<path style="fill:#B4A09A; fill-opacity:0.9000; stroke:none;fill-rule:evenodd;"
d="M 23.4247,12.5250
23.4247,12.0250
25.3747,12.0250
25.3747,12.5250
Z" /> 
<path style="fill:#B4A09A; fill-opacity:0.9000; stroke:none;fill-rule:evenodd;"
d="M 21.4747,13.5250
21.4747,13.0250
23.4247,13.0250
23.4247,13.5250
Z" /> 
<path style="fill:#B4A09A; fill-opacity:0.9000; stroke:none;fill-rule:evenodd;"
d="M 23.4247,14.5250
23.4247,14.0250
25.3747,14.0250
25.3747,14.5250
Z" /> 
<path style="fill:#B4A09A; fill-opacity:0.9000; stroke:none;fill-rule:evenodd;"
d="M 21.4747,15.5250
21.4747,15.0250
23.4247,15.0250
23.4247,15.5250
Z" /> 
<path style="fill:#B4A09A; fill-opacity:0.9000; stroke:none;fill-rule:evenodd;"
d="M 23.4247,16.5250
23.4247,16.0250
25.3747,16.0250
25.3747,16.5250
Z" /> 
</g>
<g style="fill:none; 
stroke:#F2EDA1; stroke-width:0.1588; stroke-opacity:1; 
stroke-linecap:round; stroke-linejoin:round;">
<text x="23.4247" y="9.4100"
textLength="5.6651" font-size="1.6933" lengthAdjust="spacingAndGlyphs"
text-anchor="middle" opacity="0">REF**</text>
<g class="stroked-text"><desc>REF**</desc>
<path d="M21.7314 9.3543
L21.3080 8.7495
" />
<path d="M21.0056 9.3543
L21.0056 8.0843
" />
<path d="M21.0056 8.0843
L21.4895 8.0843
" />
<path d="M21.4895 8.0843
L21.6104 8.1447
" />
<path d="M21.6104 8.1447
L21.6709 8.2052
" />
<path d="M21.6709 8.2052
L21.7314 8.3262
" />
<path d="M21.7314 8.3262
L21.7314 8.5076
" />
<path d="M21.7314 8.5076
L21.6709 8.6286
" />
<path d="M21.6709 8.6286
L21.6104 8.6890
" />
<path d="M21.6104 8.6890
L21.4895 8.7495
" />
<path d="M21.4895 8.7495
L21.0056 8.7495
" />
<path d="M22.2756 8.6890
L22.6990 8.6890
" />
<path d="M22.8804 9.3543
L22.2756 9.3543
" />
<path d="M22.2756 9.3543
L22.2756 8.0843
" />
<path d="M22.2756 8.0843
L22.8804 8.0843
" />
<path d="M23.8480 8.6890
L23.4247 8.6890
" />
<path d="M23.4247 9.3543
L23.4247 8.0843
" />
<path d="M23.4247 8.0843
L24.0295 8.0843
" />
<path d="M24.6947 8.0843
L24.6947 8.3867
" />
<path d="M24.3923 8.2657
L24.6947 8.3867
" />
<path d="M24.6947 8.3867
L24.9971 8.2657
" />
<path d="M24.5133 8.6286
L24.6947 8.3867
" />
<path d="M24.6947 8.3867
L24.8761 8.6286
" />
<path d="M25.6623 8.0843
L25.6623 8.3867
" />
<path d="M25.3599 8.2657
L25.6623 8.3867
" />
<path d="M25.6623 8.3867
L25.9647 8.2657
" />
<path d="M25.4809 8.6286
L25.6623 8.3867
" />
<path d="M25.6623 8.3867
L25.8437 8.6286
" />
</g></g>
<g style="fill:none; 
stroke:#F2EDA1; stroke-width:0.1200; stroke-opacity:1; 
stroke-linecap:round; stroke-linejoin:round;">
<path d="M21.5347 0.7650
L22.6147 0.7650
" />
<path d="M22.6147 0.4650
L22.6147 0.7650
" />
<path d="M22.6147 0.4650
L24.2347 0.4650
" />
<path d="M22.6147 1.7850
L22.6147 2.7650
" />
<path d="M22.6147 3.7850
L22.6147 4.7650
" />
<path d="M22.6147 5.7850
L22.6147 6.7650
" />
<path d="M22.6147 7.7850
L22.6147 8.7650
" />
<path d="M22.6147 9.7850
L22.6147 10.7650
" />
<path d="M22.6147 11.7850
L22.6147 12.7650
" />
<path d="M22.6147 13.7850
L22.6147 14.7650
" />
<path d="M22.6147 15.7850
L22.6147 17.0850
" />
<path d="M22.6147 17.0850
L24.2347 17.0850
" />
<path d="M24.2347 0.4650
L24.2347 1.7650
" />
<path d="M24.2347 2.7850
L24.2347 3.7650
" />
<path d="M24.2347 4.7850
L24.2347 5.7650
" />
<path d="M24.2347 6.7850
L24.2347 7.7650
" />
<path d="M24.2347 8.7850
L24.2347 9.7650
" />
<path d="M24.2347 10.7850
L24.2347 11.7650
" />
<path d="M24.2347 12.7850
L24.2347 13.7650
" />
<path d="M24.2347 14.7850
L24.2347 15.7650
" />
<path d="M24.2347 16.7850
L24.2347 17.0850
" />
</g>
<g style="fill:none; 
stroke:#FF26E2; stroke-width:0.0500; stroke-opacity:1; 
stroke-linecap:round; stroke-linejoin:round;">
<path d="M20.9747 0.0250
L25.8747 0.0250
" />
<path d="M20.9747 17.5250
L20.9747 0.0250
" />
<path d="M25.8747 0.0250
L25.8747 17.5250
" />
<path d="M25.8747 17.5250
L20.9747 17.5250
" />
</g>
<g style="fill:none; 
stroke:#AFAFAF; stroke-width:0.1588; stroke-opacity:1; 
stroke-linecap:round; stroke-linejoin:round;">
<text x="23.4247" y="9.4100"
textLength="46.8494" font-size="1.6933" lengthAdjust="spacingAndGlyphs"
text-anchor="middle" opacity="0">PinSocket_1x16_P1.00mm_Vertical_SMD_Pin1Left</text>
<g class="stroked-text"><desc>PinSocket_1x16_P1.00mm_Vertical_SMD_Pin1Left</desc>
<path d="M0.4135 9.3543
L0.4135 8.0843
" />
<path d="M0.4135 8.0843
L0.8973 8.0843
" />
<path d="M0.8973 8.0843
L1.0183 8.1447
" />
<path d="M1.0183 8.1447
L1.0787 8.2052
" />
<path d="M1.0787 8.2052
L1.1392 8.3262
" />
<path d="M1.1392 8.3262
L1.1392 8.5076
" />
<path d="M1.1392 8.5076
L1.0787 8.6286
" />
<path d="M1.0787 8.6286
L1.0183 8.6890
" />
<path d="M1.0183 8.6890
L0.8973 8.7495
" />
<path d="M0.8973 8.7495
L0.4135 8.7495
" />
<path d="M1.6835 9.3543
L1.6835 8.5076
" />
<path d="M1.6835 8.0843
L1.6230 8.1447
" />
<path d="M1.6230 8.1447
L1.6835 8.2052
" />
<path d="M1.6835 8.2052
L1.7440 8.1447
" />
<path d="M1.7440 8.1447
L1.6835 8.0843
" />
<path d="M1.6835 8.0843
L1.6835 8.2052
" />
<path d="M2.2883 8.5076
L2.2883 9.3543
" />
<path d="M2.2883 8.6286
L2.3487 8.5681
" />
<path d="M2.3487 8.5681
L2.4697 8.5076
" />
<path d="M2.4697 8.5076
L2.6511 8.5076
" />
<path d="M2.6511 8.5076
L2.7721 8.5681
" />
<path d="M2.7721 8.5681
L2.8326 8.6890
" />
<path d="M2.8326 8.6890
L2.8326 9.3543
" />
<path d="M3.3768 9.2938
L3.5583 9.3543
" />
<path d="M3.5583 9.3543
L3.8606 9.3543
" />
<path d="M3.8606 9.3543
L3.9816 9.2938
" />
<path d="M3.9816 9.2938
L4.0421 9.2333
" />
<path d="M4.0421 9.2333
L4.1026 9.1124
" />
<path d="M4.1026 9.1124
L4.1026 8.9914
" />
<path d="M4.1026 8.9914
L4.0421 8.8705
" />
<path d="M4.0421 8.8705
L3.9816 8.8100
" />
<path d="M3.9816 8.8100
L3.8606 8.7495
" />
<path d="M3.8606 8.7495
L3.6187 8.6890
" />
<path d="M3.6187 8.6890
L3.4978 8.6286
" />
<path d="M3.4978 8.6286
L3.4373 8.5681
" />
<path d="M3.4373 8.5681
L3.3768 8.4471
" />
<path d="M3.3768 8.4471
L3.3768 8.3262
" />
<path d="M3.3768 8.3262
L3.4373 8.2052
" />
<path d="M3.4373 8.2052
L3.4978 8.1447
" />
<path d="M3.4978 8.1447
L3.6187 8.0843
" />
<path d="M3.6187 8.0843
L3.9211 8.0843
" />
<path d="M3.9211 8.0843
L4.1026 8.1447
" />
<path d="M4.8283 9.3543
L4.7073 9.2938
" />
<path d="M4.7073 9.2938
L4.6468 9.2333
" />
<path d="M4.6468 9.2333
L4.5864 9.1124
" />
<path d="M4.5864 9.1124
L4.5864 8.7495
" />
<path d="M4.5864 8.7495
L4.6468 8.6286
" />
<path d="M4.6468 8.6286
L4.7073 8.5681
" />
<path d="M4.7073 8.5681
L4.8283 8.5076
" />
<path d="M4.8283 8.5076
L5.0097 8.5076
" />
<path d="M5.0097 8.5076
L5.1307 8.5681
" />
<path d="M5.1307 8.5681
L5.1911 8.6286
" />
<path d="M5.1911 8.6286
L5.2516 8.7495
" />
<path d="M5.2516 8.7495
L5.2516 9.1124
" />
<path d="M5.2516 9.1124
L5.1911 9.2333
" />
<path d="M5.1911 9.2333
L5.1307 9.2938
" />
<path d="M5.1307 9.2938
L5.0097 9.3543
" />
<path d="M5.0097 9.3543
L4.8283 9.3543
" />
<path d="M6.3402 9.2938
L6.2192 9.3543
" />
<path d="M6.2192 9.3543
L5.9773 9.3543
" />
<path d="M5.9773 9.3543
L5.8564 9.2938
" />
<path d="M5.8564 9.2938
L5.7959 9.2333
" />
<path d="M5.7959 9.2333
L5.7354 9.1124
" />
<path d="M5.7354 9.1124
L5.7354 8.7495
" />
<path d="M5.7354 8.7495
L5.7959 8.6286
" />
<path d="M5.7959 8.6286
L5.8564 8.5681
" />
<path d="M5.8564 8.5681
L5.9773 8.5076
" />
<path d="M5.9773 8.5076
L6.2192 8.5076
" />
<path d="M6.2192 8.5076
L6.3402 8.5681
" />
<path d="M6.8845 9.3543
L6.8845 8.0843
" />
<path d="M7.0054 8.8705
L7.3683 9.3543
" />
<path d="M7.3683 8.5076
L6.8845 8.9914
" />
<path d="M8.3964 9.2938
L8.2754 9.3543
" />
<path d="M8.2754 9.3543
L8.0335 9.3543
" />
<path d="M8.0335 9.3543
L7.9126 9.2938
" />
<path d="M7.9126 9.2938
L7.8521 9.1728
" />
<path d="M7.8521 9.1728
L7.8521 8.6890
" />
<path d="M7.8521 8.6890
L7.9126 8.5681
" />
<path d="M7.9126 8.5681
L8.0335 8.5076
" />
<path d="M8.0335 8.5076
L8.2754 8.5076
" />
<path d="M8.2754 8.5076
L8.3964 8.5681
" />
<path d="M8.3964 8.5681
L8.4568 8.6890
" />
<path d="M8.4568 8.6890
L8.4568 8.8100
" />
<path d="M8.4568 8.8100
L7.8521 8.9309
" />
<path d="M8.8197 8.5076
L9.3035 8.5076
" />
<path d="M9.0011 8.0843
L9.0011 9.1728
" />
<path d="M9.0011 9.1728
L9.0616 9.2938
" />
<path d="M9.0616 9.2938
L9.1826 9.3543
" />
<path d="M9.1826 9.3543
L9.3035 9.3543
" />
<path d="M9.4245 9.4752
L10.3921 9.4752
" />
<path d="M11.3597 9.3543
L10.6340 9.3543
" />
<path d="M10.9968 9.3543
L10.9968 8.0843
" />
<path d="M10.9968 8.0843
L10.8759 8.2657
" />
<path d="M10.8759 8.2657
L10.7549 8.3867
" />
<path d="M10.7549 8.3867
L10.6340 8.4471
" />
<path d="M11.7830 9.3543
L12.4483 8.5076
" />
<path d="M11.7830 8.5076
L12.4483 9.3543
" />
<path d="M13.5973 9.3543
L12.8716 9.3543
" />
<path d="M13.2345 9.3543
L13.2345 8.0843
" />
<path d="M13.2345 8.0843
L13.1135 8.2657
" />
<path d="M13.1135 8.2657
L12.9926 8.3867
" />
<path d="M12.9926 8.3867
L12.8716 8.4471
" />
<path d="M14.6859 8.0843
L14.4440 8.0843
" />
<path d="M14.4440 8.0843
L14.3230 8.1447
" />
<path d="M14.3230 8.1447
L14.2626 8.2052
" />
<path d="M14.2626 8.2052
L14.1416 8.3867
" />
<path d="M14.1416 8.3867
L14.0811 8.6286
" />
<path d="M14.0811 8.6286
L14.0811 9.1124
" />
<path d="M14.0811 9.1124
L14.1416 9.2333
" />
<path d="M14.1416 9.2333
L14.2021 9.2938
" />
<path d="M14.2021 9.2938
L14.3230 9.3543
" />
<path d="M14.3230 9.3543
L14.5649 9.3543
" />
<path d="M14.5649 9.3543
L14.6859 9.2938
" />
<path d="M14.6859 9.2938
L14.7464 9.2333
" />
<path d="M14.7464 9.2333
L14.8068 9.1124
" />
<path d="M14.8068 9.1124
L14.8068 8.8100
" />
<path d="M14.8068 8.8100
L14.7464 8.6890
" />
<path d="M14.7464 8.6890
L14.6859 8.6286
" />
<path d="M14.6859 8.6286
L14.5649 8.5681
" />
<path d="M14.5649 8.5681
L14.3230 8.5681
" />
<path d="M14.3230 8.5681
L14.2021 8.6286
" />
<path d="M14.2021 8.6286
L14.1416 8.6890
" />
<path d="M14.1416 8.6890
L14.0811 8.8100
" />
<path d="M15.0487 9.4752
L16.0164 9.4752
" />
<path d="M16.3187 9.3543
L16.3187 8.0843
" />
<path d="M16.3187 8.0843
L16.8026 8.0843
" />
<path d="M16.8026 8.0843
L16.9235 8.1447
" />
<path d="M16.9235 8.1447
L16.9840 8.2052
" />
<path d="M16.9840 8.2052
L17.0445 8.3262
" />
<path d="M17.0445 8.3262
L17.0445 8.5076
" />
<path d="M17.0445 8.5076
L16.9840 8.6286
" />
<path d="M16.9840 8.6286
L16.9235 8.6890
" />
<path d="M16.9235 8.6890
L16.8026 8.7495
" />
<path d="M16.8026 8.7495
L16.3187 8.7495
" />
<path d="M18.2540 9.3543
L17.5283 9.3543
" />
<path d="M17.8911 9.3543
L17.8911 8.0843
" />
<path d="M17.8911 8.0843
L17.7702 8.2657
" />
<path d="M17.7702 8.2657
L17.6492 8.3867
" />
<path d="M17.6492 8.3867
L17.5283 8.4471
" />
<path d="M18.7983 9.2333
L18.8587 9.2938
" />
<path d="M18.8587 9.2938
L18.7983 9.3543
" />
<path d="M18.7983 9.3543
L18.7378 9.2938
" />
<path d="M18.7378 9.2938
L18.7983 9.2333
" />
<path d="M18.7983 9.2333
L18.7983 9.3543
" />
<path d="M19.6449 8.0843
L19.7659 8.0843
" />
<path d="M19.7659 8.0843
L19.8868 8.1447
" />
<path d="M19.8868 8.1447
L19.9473 8.2052
" />
<path d="M19.9473 8.2052
L20.0078 8.3262
" />
<path d="M20.0078 8.3262
L20.0683 8.5681
" />
<path d="M20.0683 8.5681
L20.0683 8.8705
" />
<path d="M20.0683 8.8705
L20.0078 9.1124
" />
<path d="M20.0078 9.1124
L19.9473 9.2333
" />
<path d="M19.9473 9.2333
L19.8868 9.2938
" />
<path d="M19.8868 9.2938
L19.7659 9.3543
" />
<path d="M19.7659 9.3543
L19.6449 9.3543
" />
<path d="M19.6449 9.3543
L19.5240 9.2938
" />
<path d="M19.5240 9.2938
L19.4635 9.2333
" />
<path d="M19.4635 9.2333
L19.4030 9.1124
" />
<path d="M19.4030 9.1124
L19.3426 8.8705
" />
<path d="M19.3426 8.8705
L19.3426 8.5681
" />
<path d="M19.3426 8.5681
L19.4030 8.3262
" />
<path d="M19.4030 8.3262
L19.4635 8.2052
" />
<path d="M19.4635 8.2052
L19.5240 8.1447
" />
<path d="M19.5240 8.1447
L19.6449 8.0843
" />
<path d="M20.8545 8.0843
L20.9754 8.0843
" />
<path d="M20.9754 8.0843
L21.0964 8.1447
" />
<path d="M21.0964 8.1447
L21.1568 8.2052
" />
<path d="M21.1568 8.2052
L21.2173 8.3262
" />
<path d="M21.2173 8.3262
L21.2778 8.5681
" />
<path d="M21.2778 8.5681
L21.2778 8.8705
" />
<path d="M21.2778 8.8705
L21.2173 9.1124
" />
<path d="M21.2173 9.1124
L21.1568 9.2333
" />
<path d="M21.1568 9.2333
L21.0964 9.2938
" />
<path d="M21.0964 9.2938
L20.9754 9.3543
" />
<path d="M20.9754 9.3543
L20.8545 9.3543
" />
<path d="M20.8545 9.3543
L20.7335 9.2938
" />
<path d="M20.7335 9.2938
L20.6730 9.2333
" />
<path d="M20.6730 9.2333
L20.6126 9.1124
" />
<path d="M20.6126 9.1124
L20.5521 8.8705
" />
<path d="M20.5521 8.8705
L20.5521 8.5681
" />
<path d="M20.5521 8.5681
L20.6126 8.3262
" />
<path d="M20.6126 8.3262
L20.6730 8.2052
" />
<path d="M20.6730 8.2052
L20.7335 8.1447
" />
<path d="M20.7335 8.1447
L20.8545 8.0843
" />
<path d="M21.8221 9.3543
L21.8221 8.5076
" />
<path d="M21.8221 8.6286
L21.8826 8.5681
" />
<path d="M21.8826 8.5681
L22.0035 8.5076
" />
<path d="M22.0035 8.5076
L22.1849 8.5076
" />
<path d="M22.1849 8.5076
L22.3059 8.5681
" />
<path d="M22.3059 8.5681
L22.3664 8.6890
" />
<path d="M22.3664 8.6890
L22.3664 9.3543
" />
<path d="M22.3664 8.6890
L22.4268 8.5681
" />
<path d="M22.4268 8.5681
L22.5478 8.5076
" />
<path d="M22.5478 8.5076
L22.7292 8.5076
" />
<path d="M22.7292 8.5076
L22.8502 8.5681
" />
<path d="M22.8502 8.5681
L22.9107 8.6890
" />
<path d="M22.9107 8.6890
L22.9107 9.3543
" />
<path d="M23.5154 9.3543
L23.5154 8.5076
" />
<path d="M23.5154 8.6286
L23.5759 8.5681
" />
<path d="M23.5759 8.5681
L23.6968 8.5076
" />
<path d="M23.6968 8.5076
L23.8783 8.5076
" />
<path d="M23.8783 8.5076
L23.9992 8.5681
" />
<path d="M23.9992 8.5681
L24.0597 8.6890
" />
<path d="M24.0597 8.6890
L24.0597 9.3543
" />
<path d="M24.0597 8.6890
L24.1202 8.5681
" />
<path d="M24.1202 8.5681
L24.2411 8.5076
" />
<path d="M24.2411 8.5076
L24.4226 8.5076
" />
<path d="M24.4226 8.5076
L24.5435 8.5681
" />
<path d="M24.5435 8.5681
L24.6040 8.6890
" />
<path d="M24.6040 8.6890
L24.6040 9.3543
" />
<path d="M24.9064 9.4752
L25.8740 9.4752
" />
<path d="M25.9949 8.0843
L26.4183 9.3543
" />
<path d="M26.4183 9.3543
L26.8416 8.0843
" />
<path d="M27.7487 9.2938
L27.6278 9.3543
" />
<path d="M27.6278 9.3543
L27.3859 9.3543
" />
<path d="M27.3859 9.3543
L27.2649 9.2938
" />
<path d="M27.2649 9.2938
L27.2045 9.1728
" />
<path d="M27.2045 9.1728
L27.2045 8.6890
" />
<path d="M27.2045 8.6890
L27.2649 8.5681
" />
<path d="M27.2649 8.5681
L27.3859 8.5076
" />
<path d="M27.3859 8.5076
L27.6278 8.5076
" />
<path d="M27.6278 8.5076
L27.7487 8.5681
" />
<path d="M27.7487 8.5681
L27.8092 8.6890
" />
<path d="M27.8092 8.6890
L27.8092 8.8100
" />
<path d="M27.8092 8.8100
L27.2045 8.9309
" />
<path d="M28.3535 9.3543
L28.3535 8.5076
" />
<path d="M28.3535 8.7495
L28.4140 8.6286
" />
<path d="M28.4140 8.6286
L28.4745 8.5681
" />
<path d="M28.4745 8.5681
L28.5954 8.5076
" />
<path d="M28.5954 8.5076
L28.7164 8.5076
" />
<path d="M28.9583 8.5076
L29.4421 8.5076
" />
<path d="M29.1397 8.0843
L29.1397 9.1728
" />
<path d="M29.1397 9.1728
L29.2002 9.2938
" />
<path d="M29.2002 9.2938
L29.3211 9.3543
" />
<path d="M29.3211 9.3543
L29.4421 9.3543
" />
<path d="M29.8654 9.3543
L29.8654 8.5076
" />
<path d="M29.8654 8.0843
L29.8049 8.1447
" />
<path d="M29.8049 8.1447
L29.8654 8.2052
" />
<path d="M29.8654 8.2052
L29.9259 8.1447
" />
<path d="M29.9259 8.1447
L29.8654 8.0843
" />
<path d="M29.8654 8.0843
L29.8654 8.2052
" />
<path d="M31.0145 9.2938
L30.8935 9.3543
" />
<path d="M30.8935 9.3543
L30.6516 9.3543
" />
<path d="M30.6516 9.3543
L30.5306 9.2938
" />
<path d="M30.5306 9.2938
L30.4702 9.2333
" />
<path d="M30.4702 9.2333
L30.4097 9.1124
" />
<path d="M30.4097 9.1124
L30.4097 8.7495
" />
<path d="M30.4097 8.7495
L30.4702 8.6286
" />
<path d="M30.4702 8.6286
L30.5306 8.5681
" />
<path d="M30.5306 8.5681
L30.6516 8.5076
" />
<path d="M30.6516 8.5076
L30.8935 8.5076
" />
<path d="M30.8935 8.5076
L31.0145 8.5681
" />
<path d="M32.1030 9.3543
L32.1030 8.6890
" />
<path d="M32.1030 8.6890
L32.0426 8.5681
" />
<path d="M32.0426 8.5681
L31.9216 8.5076
" />
<path d="M31.9216 8.5076
L31.6797 8.5076
" />
<path d="M31.6797 8.5076
L31.5587 8.5681
" />
<path d="M32.1030 9.2938
L31.9821 9.3543
" />
<path d="M31.9821 9.3543
L31.6797 9.3543
" />
<path d="M31.6797 9.3543
L31.5587 9.2938
" />
<path d="M31.5587 9.2938
L31.4983 9.1728
" />
<path d="M31.4983 9.1728
L31.4983 9.0519
" />
<path d="M31.4983 9.0519
L31.5587 8.9309
" />
<path d="M31.5587 8.9309
L31.6797 8.8705
" />
<path d="M31.6797 8.8705
L31.9821 8.8705
" />
<path d="M31.9821 8.8705
L32.1030 8.8100
" />
<path d="M32.8892 9.3543
L32.7683 9.2938
" />
<path d="M32.7683 9.2938
L32.7078 9.1728
" />
<path d="M32.7078 9.1728
L32.7078 8.0843
" />
<path d="M33.0706 9.4752
L34.0383 9.4752
" />
<path d="M34.2802 9.2938
L34.4616 9.3543
" />
<path d="M34.4616 9.3543
L34.7640 9.3543
" />
<path d="M34.7640 9.3543
L34.8849 9.2938
" />
<path d="M34.8849 9.2938
L34.9454 9.2333
" />
<path d="M34.9454 9.2333
L35.0059 9.1124
" />
<path d="M35.0059 9.1124
L35.0059 8.9914
" />
<path d="M35.0059 8.9914
L34.9454 8.8705
" />
<path d="M34.9454 8.8705
L34.8849 8.8100
" />
<path d="M34.8849 8.8100
L34.7640 8.7495
" />
<path d="M34.7640 8.7495
L34.5221 8.6890
" />
<path d="M34.5221 8.6890
L34.4011 8.6286
" />
<path d="M34.4011 8.6286
L34.3406 8.5681
" />
<path d="M34.3406 8.5681
L34.2802 8.4471
" />
<path d="M34.2802 8.4471
L34.2802 8.3262
" />
<path d="M34.2802 8.3262
L34.3406 8.2052
" />
<path d="M34.3406 8.2052
L34.4011 8.1447
" />
<path d="M34.4011 8.1447
L34.5221 8.0843
" />
<path d="M34.5221 8.0843
L34.8245 8.0843
" />
<path d="M34.8245 8.0843
L35.0059 8.1447
" />
<path d="M35.5502 9.3543
L35.5502 8.0843
" />
<path d="M35.5502 8.0843
L35.9735 8.9914
" />
<path d="M35.9735 8.9914
L36.3968 8.0843
" />
<path d="M36.3968 8.0843
L36.3968 9.3543
" />
<path d="M37.0016 9.3543
L37.0016 8.0843
" />
<path d="M37.0016 8.0843
L37.3040 8.0843
" />
<path d="M37.3040 8.0843
L37.4854 8.1447
" />
<path d="M37.4854 8.1447
L37.6064 8.2657
" />
<path d="M37.6064 8.2657
L37.6668 8.3867
" />
<path d="M37.6668 8.3867
L37.7273 8.6286
" />
<path d="M37.7273 8.6286
L37.7273 8.8100
" />
<path d="M37.7273 8.8100
L37.6668 9.0519
" />
<path d="M37.6668 9.0519
L37.6064 9.1728
" />
<path d="M37.6064 9.1728
L37.4854 9.2938
" />
<path d="M37.4854 9.2938
L37.3040 9.3543
" />
<path d="M37.3040 9.3543
L37.0016 9.3543
" />
<path d="M37.9692 9.4752
L38.9368 9.4752
" />
<path d="M39.2392 9.3543
L39.2392 8.0843
" />
<path d="M39.2392 8.0843
L39.7230 8.0843
" />
<path d="M39.7230 8.0843
L39.8440 8.1447
" />
<path d="M39.8440 8.1447
L39.9045 8.2052
" />
<path d="M39.9045 8.2052
L39.9649 8.3262
" />
<path d="M39.9649 8.3262
L39.9649 8.5076
" />
<path d="M39.9649 8.5076
L39.9045 8.6286
" />
<path d="M39.9045 8.6286
L39.8440 8.6890
" />
<path d="M39.8440 8.6890
L39.7230 8.7495
" />
<path d="M39.7230 8.7495
L39.2392 8.7495
" />
<path d="M40.5092 9.3543
L40.5092 8.5076
" />
<path d="M40.5092 8.0843
L40.4487 8.1447
" />
<path d="M40.4487 8.1447
L40.5092 8.2052
" />
<path d="M40.5092 8.2052
L40.5697 8.1447
" />
<path d="M40.5697 8.1447
L40.5092 8.0843
" />
<path d="M40.5092 8.0843
L40.5092 8.2052
" />
<path d="M41.1140 8.5076
L41.1140 9.3543
" />
<path d="M41.1140 8.6286
L41.1745 8.5681
" />
<path d="M41.1745 8.5681
L41.2954 8.5076
" />
<path d="M41.2954 8.5076
L41.4768 8.5076
" />
<path d="M41.4768 8.5076
L41.5978 8.5681
" />
<path d="M41.5978 8.5681
L41.6583 8.6890
" />
<path d="M41.6583 8.6890
L41.6583 9.3543
" />
<path d="M42.9283 9.3543
L42.2026 9.3543
" />
<path d="M42.5654 9.3543
L42.5654 8.0843
" />
<path d="M42.5654 8.0843
L42.4445 8.2657
" />
<path d="M42.4445 8.2657
L42.3235 8.3867
" />
<path d="M42.3235 8.3867
L42.2026 8.4471
" />
<path d="M44.0773 9.3543
L43.4726 9.3543
" />
<path d="M43.4726 9.3543
L43.4726 8.0843
" />
<path d="M44.9845 9.2938
L44.8635 9.3543
" />
<path d="M44.8635 9.3543
L44.6216 9.3543
" />
<path d="M44.6216 9.3543
L44.5006 9.2938
" />
<path d="M44.5006 9.2938
L44.4402 9.1728
" />
<path d="M44.4402 9.1728
L44.4402 8.6890
" />
<path d="M44.4402 8.6890
L44.5006 8.5681
" />
<path d="M44.5006 8.5681
L44.6216 8.5076
" />
<path d="M44.6216 8.5076
L44.8635 8.5076
" />
<path d="M44.8635 8.5076
L44.9845 8.5681
" />
<path d="M44.9845 8.5681
L45.0449 8.6890
" />
<path d="M45.0449 8.6890
L45.0449 8.8100
" />
<path d="M45.0449 8.8100
L44.4402 8.9309
" />
<path d="M45.4078 8.5076
L45.8916 8.5076
" />
<path d="M45.5892 9.3543
L45.5892 8.2657
" />
<path d="M45.5892 8.2657
L45.6497 8.1447
" />
<path d="M45.6497 8.1447
L45.7706 8.0843
" />
<path d="M45.7706 8.0843
L45.8916 8.0843
" />
<path d="M46.1335 8.5076
L46.6173 8.5076
" />
<path d="M46.3149 8.0843
L46.3149 9.1728
" />
<path d="M46.3149 9.1728
L46.3754 9.2938
" />
<path d="M46.3754 9.2938
L46.4964 9.3543
" />
<path d="M46.4964 9.3543
L46.6173 9.3543
" />
</g></g>
<g style="fill:none; 
stroke:#AFAFAF; stroke-width:0.1400; stroke-opacity:1; 
stroke-linecap:round; stroke-linejoin:round;">
<g transform="rotate(-90.000000 23.4247 8.7750)">
<text x="23.4247" y="9.2250"
textLength="4.0971" font-size="1.2000" lengthAdjust="spacingAndGlyphs"
text-anchor="middle" opacity="0">REF**</text>
</g>
<g class="stroked-text"><desc>REF**</desc>
<path d="M23.8338 9.9750
L23.4052 10.2750
" />
<path d="M23.8338 10.4893
L22.9338 10.4893
" />
<path d="M22.9338 10.4893
L22.9338 10.1464
" />
<path d="M22.9338 10.1464
L22.9766 10.0607
" />
<path d="M22.9766 10.0607
L23.0195 10.0179
" />
<path d="M23.0195 10.0179
L23.1052 9.9750
" />
<path d="M23.1052 9.9750
L23.2338 9.9750
" />
<path d="M23.2338 9.9750
L23.3195 10.0179
" />
<path d="M23.3195 10.0179
L23.3623 10.0607
" />
<path d="M23.3623 10.0607
L23.4052 10.1464
" />
<path d="M23.4052 10.1464
L23.4052 10.4893
" />
<path d="M23.3623 9.5893
L23.3623 9.2893
" />
<path d="M23.8338 9.1607
L23.8338 9.5893
" />
<path d="M23.8338 9.5893
L22.9338 9.5893
" />
<path d="M22.9338 9.5893
L22.9338 9.1607
" />
<path d="M23.3623 8.4750
L23.3623 8.7750
" />
<path d="M23.8338 8.7750
L22.9338 8.7750
" />
<path d="M22.9338 8.7750
L22.9338 8.3464
" />
<path d="M22.9338 7.8750
L23.1481 7.8750
" />
<path d="M23.0623 8.0893
L23.1481 7.8750
" />
<path d="M23.1481 7.8750
L23.0623 7.6607
" />
<path d="M23.3195 8.0036
L23.1481 7.8750
" />
<path d="M23.1481 7.8750
L23.3195 7.7464
" />
<path d="M22.9338 7.1893
L23.1481 7.1893
" />
<path d="M23.0623 7.4036
L23.1481 7.1893
" />
<path d="M23.1481 7.1893
L23.0623 6.9750
" />
<path d="M23.3195 7.3179
L23.1481 7.1893
" />
<path d="M23.1481 7.1893
L23.3195 7.0607
" />
</g></g>
<g style="fill:none; 
stroke:#AFAFAF; stroke-width:0.1000; stroke-opacity:1; 
stroke-linecap:round; stroke-linejoin:round;">
<path d="M21.9747 1.1250
L22.6747 1.1250
" />
<path d="M21.9747 1.4250
L21.9747 1.1250
" />
<path d="M21.9747 3.1250
L22.6747 3.1250
" />
<path d="M21.9747 3.4250
L21.9747 3.1250
" />
<path d="M21.9747 5.1250
L22.6747 5.1250
" />
<path d="M21.9747 5.4250
L21.9747 5.1250
" />
<path d="M21.9747 7.1250
L22.6747 7.1250
" />
<path d="M21.9747 7.4250
L21.9747 7.1250
" />
<path d="M21.9747 9.1250
L22.6747 9.1250
" />
<path d="M21.9747 9.4250
L21.9747 9.1250
" />
<path d="M21.9747 11.1250
L22.6747 11.1250
" />
<path d="M21.9747 11.4250
L21.9747 11.1250
" />
<path d="M21.9747 13.1250
L22.6747 13.1250
" />
<path d="M21.9747 13.4250
L21.9747 13.1250
" />
<path d="M21.9747 15.1250
L22.6747 15.1250
" />
<path d="M21.9747 15.4250
L21.9747 15.1250
" />
<path d="M22.6747 0.9000
L23.0497 0.5250
" />
<path d="M22.6747 1.4250
L21.9747 1.4250
" />
<path d="M22.6747 3.4250
L21.9747 3.4250
" />
<path d="M22.6747 5.4250
L21.9747 5.4250
" />
<path d="M22.6747 7.4250
L21.9747 7.4250
" />
<path d="M22.6747 9.4250
L21.9747 9.4250
" />
<path d="M22.6747 11.4250
L21.9747 11.4250
" />
<path d="M22.6747 13.4250
L21.9747 13.4250
" />
<path d="M22.6747 15.4250
L21.9747 15.4250
" />
<path d="M22.6747 17.0250
L22.6747 0.9000
" />
<path d="M23.0497 0.5250
L24.1747 0.5250
" />
<path d="M24.1747 0.5250
L24.1747 17.0250
" />
<path d="M24.1747 2.1250
L24.8747 2.1250
" />
<path d="M24.1747 4.1250
L24.8747 4.1250
" />
<path d="M24.1747 6.1250
L24.8747 6.1250
" />
<path d="M24.1747 8.1250
L24.8747 8.1250
" />
<path d="M24.1747 10.1250
L24.8747 10.1250
" />
<path d="M24.1747 12.1250
L24.8747 12.1250
" />
<path d="M24.1747 14.1250
L24.8747 14.1250
" />
<path d="M24.1747 16.1250
L24.8747 16.1250
" />
<path d="M24.1747 17.0250
L22.6747 17.0250
" />
<path d="M24.8747 2.1250
L24.8747 2.4250
" />
<path d="M24.8747 2.4250
L24.1747 2.4250
" />
<path d="M24.8747 4.1250
L24.8747 4.4250
" />
<path d="M24.8747 4.4250
L24.1747 4.4250
" />
<path d="M24.8747 6.1250
L24.8747 6.4250
" />
<path d="M24.8747 6.4250
L24.1747 6.4250
" />
<path d="M24.8747 8.1250
L24.8747 8.4250
" />
<path d="M24.8747 8.4250
L24.1747 8.4250
" />
<path d="M24.8747 10.1250
L24.8747 10.4250
" />
<path d="M24.8747 10.4250
L24.1747 10.4250
" />
<path d="M24.8747 12.1250
L24.8747 12.4250
" />
<path d="M24.8747 12.4250
L24.1747 12.4250
" />
<path d="M24.8747 14.1250
L24.8747 14.4250
" />
<path d="M24.8747 14.4250
L24.1747 14.4250
" />
<path d="M24.8747 16.1250
L24.8747 16.4250
" />
<path d="M24.8747 16.4250
L24.1747 16.4250
" />
</g> 
</svg>
