<?xml version="1.0" standalone="no"?>
 <!DOCTYPE svg PUBLIC "-//W3C//DTD SVG 1.1//EN" 
 "http://www.w3.org/Graphics/SVG/1.1/DTD/svg11.dtd"> 
<svg
  xmlns:svg="http://www.w3.org/2000/svg"
  xmlns="http://www.w3.org/2000/svg"
  xmlns:xlink="http://www.w3.org/1999/xlink"
  version="1.1"
  width="20.2946mm" height="11.3284mm" viewBox="0.0000 0.0000 20.2946 11.3284">
<title>SVG Image created as working-brd.svg date 2024/04/22 08:12:00 </title>
  <desc>Image generated by PCBNEW </desc>
<g style="fill:#000000; fill-opacity:1.0000;stroke:#000000; stroke-opacity:1.0000;
stroke-linecap:round; stroke-linejoin:round;"
 transform="translate(0 0) scale(1 1)">
<path style="fill:#C83434; fill-opacity:1.0000; stroke:none;fill-rule:evenodd;"
d="M 0.2750,1.6425
0.2866,1.5841
0.3197,1.5347
0.3691,1.5016
0.4275,1.4900
4.7225,1.4900
4.7809,1.5016
4.8303,1.5347
4.8634,1.5841
4.8750,1.6425
4.8750,1.9475
4.8634,2.0059
4.8303,2.0553
4.7809,2.0884
4.7225,2.1000
0.4275,2.1000
0.3691,2.0884
0.3197,2.0553
0.2866,2.0059
0.2750,1.9475
Z" /> 
<path style="fill:#C83434; fill-opacity:1.0000; stroke:none;fill-rule:evenodd;"
d="M 0.2750,2.6125
0.2866,2.5541
0.3197,2.5047
0.3691,2.4716
0.4275,2.4600
4.7225,2.4600
4.7809,2.4716
4.8303,2.5047
4.8634,2.5541
4.8750,2.6125
4.8750,2.9175
4.8634,2.9759
4.8303,3.0253
4.7809,3.0584
4.7225,3.0700
0.4275,3.0700
0.3691,3.0584
0.3197,3.0253
0.2866,2.9759
0.2750,2.9175
Z" /> 
<path style="fill:#C83434; fill-opacity:1.0000; stroke:none;fill-rule:evenodd;"
d="M 0.2750,3.5825
0.2866,3.5241
0.3197,3.4747
0.3691,3.4416
0.4275,3.4300
4.7225,3.4300
4.7809,3.4416
4.8303,3.4747
4.8634,3.5241
4.8750,3.5825
4.8750,3.8875
4.8634,3.9459
4.8303,3.9953
4.7809,4.0284
4.7225,4.0400
0.4275,4.0400
0.3691,4.0284
0.3197,3.9953
0.2866,3.9459
0.2750,3.8875
Z" /> 
<path style="fill:#C83434; fill-opacity:1.0000; stroke:none;fill-rule:evenodd;"
d="M 0.2750,4.5525
0.2866,4.4941
0.3197,4.4447
0.3691,4.4116
0.4275,4.4000
4.7225,4.4000
4.7809,4.4116
4.8303,4.4447
4.8634,4.4941
4.8750,4.5525
4.8750,4.8575
4.8634,4.9159
4.8303,4.9653
4.7809,4.9984
4.7225,5.0100
0.4275,5.0100
0.3691,4.9984
0.3197,4.9653
0.2866,4.9159
0.2750,4.8575
Z" /> 
<path style="fill:#C83434; fill-opacity:1.0000; stroke:none;fill-rule:evenodd;"
d="M 0.2750,5.5225
0.2866,5.4641
0.3197,5.4147
0.3691,5.3816
0.4275,5.3700
4.7225,5.3700
4.7809,5.3816
4.8303,5.4147
4.8634,5.4641
4.8750,5.5225
4.8750,5.8275
4.8634,5.8859
4.8303,5.9353
4.7809,5.9684
4.7225,5.9800
0.4275,5.9800
0.3691,5.9684
0.3197,5.9353
0.2866,5.8859
0.2750,5.8275
Z" /> 
<path style="fill:#C83434; fill-opacity:1.0000; stroke:none;fill-rule:evenodd;"
d="M 0.2750,6.4925
0.2866,6.4341
0.3197,6.3847
0.3691,6.3516
0.4275,6.3400
4.7225,6.3400
4.7809,6.3516
4.8303,6.3847
4.8634,6.4341
4.8750,6.4925
4.8750,6.7975
4.8634,6.8559
4.8303,6.9053
4.7809,6.9384
4.7225,6.9500
0.4275,6.9500
0.3691,6.9384
0.3197,6.9053
0.2866,6.8559
0.2750,6.7975
Z" /> 
<path style="fill:#C83434; fill-opacity:1.0000; stroke:none;fill-rule:evenodd;"
d="M 0.2750,7.4625
0.2866,7.4041
0.3197,7.3547
0.3691,7.3216
0.4275,7.3100
4.7225,7.3100
4.7809,7.3216
4.8303,7.3547
4.8634,7.4041
4.8750,7.4625
4.8750,7.7675
4.8634,7.8259
4.8303,7.8753
4.7809,7.9084
4.7225,7.9200
0.4275,7.9200
0.3691,7.9084
0.3197,7.8753
0.2866,7.8259
0.2750,7.7675
Z" /> 
<path style="fill:#C83434; fill-opacity:1.0000; stroke:none;fill-rule:evenodd;"
d="M 0.2750,8.4325
0.2866,8.3741
0.3197,8.3247
0.3691,8.2916
0.4275,8.2800
4.7225,8.2800
4.7809,8.2916
4.8303,8.3247
4.8634,8.3741
4.8750,8.4325
4.8750,8.7375
4.8634,8.7959
4.8303,8.8453
4.7809,8.8784
4.7225,8.8900
0.4275,8.8900
0.3691,8.8784
0.3197,8.8453
0.2866,8.7959
0.2750,8.7375
Z" /> 
<path style="fill:#C83434; fill-opacity:1.0000; stroke:none;fill-rule:evenodd;"
d="M 0.2750,9.4025
0.2866,9.3441
0.3197,9.2947
0.3691,9.2616
0.4275,9.2500
4.7225,9.2500
4.7809,9.2616
4.8303,9.2947
4.8634,9.3441
4.8750,9.4025
4.8750,9.7075
4.8634,9.7659
4.8303,9.8153
4.7809,9.8484
4.7225,9.8600
0.4275,9.8600
0.3691,9.8484
0.3197,9.8153
0.2866,9.7659
0.2750,9.7075
Z" /> 
<path style="fill:#C83434; fill-opacity:1.0000; stroke:none;fill-rule:evenodd;"
d="M 7.0250,0.5250
7.0440,0.4293
7.0982,0.3482
7.1793,0.2940
7.2750,0.2750
16.1750,0.2750
16.2707,0.2940
16.3518,0.3482
16.4060,0.4293
16.4250,0.5250
16.4250,10.8250
16.4060,10.9207
16.3518,11.0018
16.2707,11.0560
16.1750,11.0750
7.2750,11.0750
7.1793,11.0560
7.0982,11.0018
7.0440,10.9207
7.0250,10.8250
Z" /> 
<path style="fill:#D864FF; fill-opacity:0.4000; stroke:none;fill-rule:evenodd;"
d="M 0.2750,1.6425
0.2866,1.5841
0.3197,1.5347
0.3691,1.5016
0.4275,1.4900
4.7225,1.4900
4.7809,1.5016
4.8303,1.5347
4.8634,1.5841
4.8750,1.6425
4.8750,1.9475
4.8634,2.0059
4.8303,2.0553
4.7809,2.0884
4.7225,2.1000
0.4275,2.1000
0.3691,2.0884
0.3197,2.0553
0.2866,2.0059
0.2750,1.9475
Z" /> 
<path style="fill:#D864FF; fill-opacity:0.4000; stroke:none;fill-rule:evenodd;"
d="M 0.2750,2.6125
0.2866,2.5541
0.3197,2.5047
0.3691,2.4716
0.4275,2.4600
4.7225,2.4600
4.7809,2.4716
4.8303,2.5047
4.8634,2.5541
4.8750,2.6125
4.8750,2.9175
4.8634,2.9759
4.8303,3.0253
4.7809,3.0584
4.7225,3.0700
0.4275,3.0700
0.3691,3.0584
0.3197,3.0253
0.2866,2.9759
0.2750,2.9175
Z" /> 
<path style="fill:#D864FF; fill-opacity:0.4000; stroke:none;fill-rule:evenodd;"
d="M 0.2750,3.5825
0.2866,3.5241
0.3197,3.4747
0.3691,3.4416
0.4275,3.4300
4.7225,3.4300
4.7809,3.4416
4.8303,3.4747
4.8634,3.5241
4.8750,3.5825
4.8750,3.8875
4.8634,3.9459
4.8303,3.9953
4.7809,4.0284
4.7225,4.0400
0.4275,4.0400
0.3691,4.0284
0.3197,3.9953
0.2866,3.9459
0.2750,3.8875
Z" /> 
<path style="fill:#D864FF; fill-opacity:0.4000; stroke:none;fill-rule:evenodd;"
d="M 0.2750,4.5525
0.2866,4.4941
0.3197,4.4447
0.3691,4.4116
0.4275,4.4000
4.7225,4.4000
4.7809,4.4116
4.8303,4.4447
4.8634,4.4941
4.8750,4.5525
4.8750,4.8575
4.8634,4.9159
4.8303,4.9653
4.7809,4.9984
4.7225,5.0100
0.4275,5.0100
0.3691,4.9984
0.3197,4.9653
0.2866,4.9159
0.2750,4.8575
Z" /> 
<path style="fill:#D864FF; fill-opacity:0.4000; stroke:none;fill-rule:evenodd;"
d="M 0.2750,5.5225
0.2866,5.4641
0.3197,5.4147
0.3691,5.3816
0.4275,5.3700
4.7225,5.3700
4.7809,5.3816
4.8303,5.4147
4.8634,5.4641
4.8750,5.5225
4.8750,5.8275
4.8634,5.8859
4.8303,5.9353
4.7809,5.9684
4.7225,5.9800
0.4275,5.9800
0.3691,5.9684
0.3197,5.9353
0.2866,5.8859
0.2750,5.8275
Z" /> 
<path style="fill:#D864FF; fill-opacity:0.4000; stroke:none;fill-rule:evenodd;"
d="M 0.2750,6.4925
0.2866,6.4341
0.3197,6.3847
0.3691,6.3516
0.4275,6.3400
4.7225,6.3400
4.7809,6.3516
4.8303,6.3847
4.8634,6.4341
4.8750,6.4925
4.8750,6.7975
4.8634,6.8559
4.8303,6.9053
4.7809,6.9384
4.7225,6.9500
0.4275,6.9500
0.3691,6.9384
0.3197,6.9053
0.2866,6.8559
0.2750,6.7975
Z" /> 
<path style="fill:#D864FF; fill-opacity:0.4000; stroke:none;fill-rule:evenodd;"
d="M 0.2750,7.4625
0.2866,7.4041
0.3197,7.3547
0.3691,7.3216
0.4275,7.3100
4.7225,7.3100
4.7809,7.3216
4.8303,7.3547
4.8634,7.4041
4.8750,7.4625
4.8750,7.7675
4.8634,7.8259
4.8303,7.8753
4.7809,7.9084
4.7225,7.9200
0.4275,7.9200
0.3691,7.9084
0.3197,7.8753
0.2866,7.8259
0.2750,7.7675
Z" /> 
<path style="fill:#D864FF; fill-opacity:0.4000; stroke:none;fill-rule:evenodd;"
d="M 0.2750,8.4325
0.2866,8.3741
0.3197,8.3247
0.3691,8.2916
0.4275,8.2800
4.7225,8.2800
4.7809,8.2916
4.8303,8.3247
4.8634,8.3741
4.8750,8.4325
4.8750,8.7375
4.8634,8.7959
4.8303,8.8453
4.7809,8.8784
4.7225,8.8900
0.4275,8.8900
0.3691,8.8784
0.3197,8.8453
0.2866,8.7959
0.2750,8.7375
Z" /> 
<path style="fill:#D864FF; fill-opacity:0.4000; stroke:none;fill-rule:evenodd;"
d="M 0.2750,9.4025
0.2866,9.3441
0.3197,9.2947
0.3691,9.2616
0.4275,9.2500
4.7225,9.2500
4.7809,9.2616
4.8303,9.2947
4.8634,9.3441
4.8750,9.4025
4.8750,9.7075
4.8634,9.7659
4.8303,9.8153
4.7809,9.8484
4.7225,9.8600
0.4275,9.8600
0.3691,9.8484
0.3197,9.8153
0.2866,9.7659
0.2750,9.7075
Z" /> 
<path style="fill:#D864FF; fill-opacity:0.4000; stroke:none;fill-rule:evenodd;"
d="M 7.0250,0.5250
7.0440,0.4293
7.0982,0.3482
7.1793,0.2940
7.2750,0.2750
16.1750,0.2750
16.2707,0.2940
16.3518,0.3482
16.4060,0.4293
16.4250,0.5250
16.4250,10.8250
16.4060,10.9207
16.3518,11.0018
16.2707,11.0560
16.1750,11.0750
7.2750,11.0750
7.1793,11.0560
7.0982,11.0018
7.0440,10.9207
7.0250,10.8250
Z" /> 
<path style="fill:#B4A09A; fill-opacity:0.9000; stroke:none;fill-rule:evenodd;"
d="M 7.0250,0.5250
7.0440,0.4293
7.0982,0.3482
7.1793,0.2940
7.2750,0.2750
11.3250,0.2750
11.4207,0.2940
11.5018,0.3482
11.5560,0.4293
11.5750,0.5250
11.5750,5.2750
11.5560,5.3707
11.5018,5.4518
11.4207,5.5060
11.3250,5.5250
7.2750,5.5250
7.1793,5.5060
7.0982,5.4518
7.0440,5.3707
7.0250,5.2750
Z" /> 
<path style="fill:#B4A09A; fill-opacity:0.9000; stroke:none;fill-rule:evenodd;"
d="M 7.0250,6.0750
7.0440,5.9793
7.0982,5.8982
7.1793,5.8440
7.2750,5.8250
11.3250,5.8250
11.4207,5.8440
11.5018,5.8982
11.5560,5.9793
11.5750,6.0750
11.5750,10.8250
11.5560,10.9207
11.5018,11.0018
11.4207,11.0560
11.3250,11.0750
7.2750,11.0750
7.1793,11.0560
7.0982,11.0018
7.0440,10.9207
7.0250,10.8250
Z" /> 
<path style="fill:#B4A09A; fill-opacity:0.9000; stroke:none;fill-rule:evenodd;"
d="M 11.8750,0.5250
11.8940,0.4293
11.9482,0.3482
12.0293,0.2940
12.1250,0.2750
16.1750,0.2750
16.2707,0.2940
16.3518,0.3482
16.4060,0.4293
16.4250,0.5250
16.4250,5.2750
16.4060,5.3707
16.3518,5.4518
16.2707,5.5060
16.1750,5.5250
12.1250,5.5250
12.0293,5.5060
11.9482,5.4518
11.8940,5.3707
11.8750,5.2750
Z" /> 
<path style="fill:#B4A09A; fill-opacity:0.9000; stroke:none;fill-rule:evenodd;"
d="M 11.8750,6.0750
11.8940,5.9793
11.9482,5.8982
12.0293,5.8440
12.1250,5.8250
16.1750,5.8250
16.2707,5.8440
16.3518,5.8982
16.4060,5.9793
16.4250,6.0750
16.4250,10.8250
16.4060,10.9207
16.3518,11.0018
16.2707,11.0560
16.1750,11.0750
12.1250,11.0750
12.0293,11.0560
11.9482,11.0018
11.8940,10.9207
11.8750,10.8250
Z" /> 
<path style="fill:#B4A09A; fill-opacity:0.9000; stroke:none;fill-rule:evenodd;"
d="M 0.2750,1.6425
0.2866,1.5841
0.3197,1.5347
0.3691,1.5016
0.4275,1.4900
4.7225,1.4900
4.7809,1.5016
4.8303,1.5347
4.8634,1.5841
4.8750,1.6425
4.8750,1.9475
4.8634,2.0059
4.8303,2.0553
4.7809,2.0884
4.7225,2.1000
0.4275,2.1000
0.3691,2.0884
0.3197,2.0553
0.2866,2.0059
0.2750,1.9475
Z" /> 
<path style="fill:#B4A09A; fill-opacity:0.9000; stroke:none;fill-rule:evenodd;"
d="M 0.2750,2.6125
0.2866,2.5541
0.3197,2.5047
0.3691,2.4716
0.4275,2.4600
4.7225,2.4600
4.7809,2.4716
4.8303,2.5047
4.8634,2.5541
4.8750,2.6125
4.8750,2.9175
4.8634,2.9759
4.8303,3.0253
4.7809,3.0584
4.7225,3.0700
0.4275,3.0700
0.3691,3.0584
0.3197,3.0253
0.2866,2.9759
0.2750,2.9175
Z" /> 
<path style="fill:#B4A09A; fill-opacity:0.9000; stroke:none;fill-rule:evenodd;"
d="M 0.2750,3.5825
0.2866,3.5241
0.3197,3.4747
0.3691,3.4416
0.4275,3.4300
4.7225,3.4300
4.7809,3.4416
4.8303,3.4747
4.8634,3.5241
4.8750,3.5825
4.8750,3.8875
4.8634,3.9459
4.8303,3.9953
4.7809,4.0284
4.7225,4.0400
0.4275,4.0400
0.3691,4.0284
0.3197,3.9953
0.2866,3.9459
0.2750,3.8875
Z" /> 
<path style="fill:#B4A09A; fill-opacity:0.9000; stroke:none;fill-rule:evenodd;"
d="M 0.2750,4.5525
0.2866,4.4941
0.3197,4.4447
0.3691,4.4116
0.4275,4.4000
4.7225,4.4000
4.7809,4.4116
4.8303,4.4447
4.8634,4.4941
4.8750,4.5525
4.8750,4.8575
4.8634,4.9159
4.8303,4.9653
4.7809,4.9984
4.7225,5.0100
0.4275,5.0100
0.3691,4.9984
0.3197,4.9653
0.2866,4.9159
0.2750,4.8575
Z" /> 
<path style="fill:#B4A09A; fill-opacity:0.9000; stroke:none;fill-rule:evenodd;"
d="M 0.2750,5.5225
0.2866,5.4641
0.3197,5.4147
0.3691,5.3816
0.4275,5.3700
4.7225,5.3700
4.7809,5.3816
4.8303,5.4147
4.8634,5.4641
4.8750,5.5225
4.8750,5.8275
4.8634,5.8859
4.8303,5.9353
4.7809,5.9684
4.7225,5.9800
0.4275,5.9800
0.3691,5.9684
0.3197,5.9353
0.2866,5.8859
0.2750,5.8275
Z" /> 
<path style="fill:#B4A09A; fill-opacity:0.9000; stroke:none;fill-rule:evenodd;"
d="M 0.2750,6.4925
0.2866,6.4341
0.3197,6.3847
0.3691,6.3516
0.4275,6.3400
4.7225,6.3400
4.7809,6.3516
4.8303,6.3847
4.8634,6.4341
4.8750,6.4925
4.8750,6.7975
4.8634,6.8559
4.8303,6.9053
4.7809,6.9384
4.7225,6.9500
0.4275,6.9500
0.3691,6.9384
0.3197,6.9053
0.2866,6.8559
0.2750,6.7975
Z" /> 
<path style="fill:#B4A09A; fill-opacity:0.9000; stroke:none;fill-rule:evenodd;"
d="M 0.2750,7.4625
0.2866,7.4041
0.3197,7.3547
0.3691,7.3216
0.4275,7.3100
4.7225,7.3100
4.7809,7.3216
4.8303,7.3547
4.8634,7.4041
4.8750,7.4625
4.8750,7.7675
4.8634,7.8259
4.8303,7.8753
4.7809,7.9084
4.7225,7.9200
0.4275,7.9200
0.3691,7.9084
0.3197,7.8753
0.2866,7.8259
0.2750,7.7675
Z" /> 
<path style="fill:#B4A09A; fill-opacity:0.9000; stroke:none;fill-rule:evenodd;"
d="M 0.2750,8.4325
0.2866,8.3741
0.3197,8.3247
0.3691,8.2916
0.4275,8.2800
4.7225,8.2800
4.7809,8.2916
4.8303,8.3247
4.8634,8.3741
4.8750,8.4325
4.8750,8.7375
4.8634,8.7959
4.8303,8.8453
4.7809,8.8784
4.7225,8.8900
0.4275,8.8900
0.3691,8.8784
0.3197,8.8453
0.2866,8.7959
0.2750,8.7375
Z" /> 
<path style="fill:#B4A09A; fill-opacity:0.9000; stroke:none;fill-rule:evenodd;"
d="M 0.2750,9.4025
0.2866,9.3441
0.3197,9.2947
0.3691,9.2616
0.4275,9.2500
4.7225,9.2500
4.7809,9.2616
4.8303,9.2947
4.8634,9.3441
4.8750,9.4025
4.8750,9.7075
4.8634,9.7659
4.8303,9.8153
4.7809,9.8484
4.7225,9.8600
0.4275,9.8600
0.3691,9.8484
0.3197,9.8153
0.2866,9.7659
0.2750,9.7075
Z" /> 
</g>
<g style="fill:none; 
stroke:#F2EDA1; stroke-width:0.1588; stroke-opacity:1; 
stroke-linecap:round; stroke-linejoin:round;">
<text x="10.2250" y="6.3100"
textLength="5.6651" font-size="1.6933" lengthAdjust="spacingAndGlyphs"
text-anchor="middle" opacity="0">REF**</text>
<g class="stroked-text"><desc>REF**</desc>
<path d="M8.5317 6.2543
L8.1083 5.6495
" />
<path d="M7.8060 6.2543
L7.8060 4.9843
" />
<path d="M7.8060 4.9843
L8.2898 4.9843
" />
<path d="M8.2898 4.9843
L8.4107 5.0447
" />
<path d="M8.4107 5.0447
L8.4712 5.1052
" />
<path d="M8.4712 5.1052
L8.5317 5.2262
" />
<path d="M8.5317 5.2262
L8.5317 5.4076
" />
<path d="M8.5317 5.4076
L8.4712 5.5286
" />
<path d="M8.4712 5.5286
L8.4107 5.5890
" />
<path d="M8.4107 5.5890
L8.2898 5.6495
" />
<path d="M8.2898 5.6495
L7.8060 5.6495
" />
<path d="M9.0760 5.5890
L9.4993 5.5890
" />
<path d="M9.6807 6.2543
L9.0760 6.2543
" />
<path d="M9.0760 6.2543
L9.0760 4.9843
" />
<path d="M9.0760 4.9843
L9.6807 4.9843
" />
<path d="M10.6483 5.5890
L10.2250 5.5890
" />
<path d="M10.2250 6.2543
L10.2250 4.9843
" />
<path d="M10.2250 4.9843
L10.8298 4.9843
" />
<path d="M11.4950 4.9843
L11.4950 5.2867
" />
<path d="M11.1926 5.1657
L11.4950 5.2867
" />
<path d="M11.4950 5.2867
L11.7974 5.1657
" />
<path d="M11.3136 5.5286
L11.4950 5.2867
" />
<path d="M11.4950 5.2867
L11.6764 5.5286
" />
<path d="M12.4626 4.9843
L12.4626 5.2867
" />
<path d="M12.1602 5.1657
L12.4626 5.2867
" />
<path d="M12.4626 5.2867
L12.7650 5.1657
" />
<path d="M12.2812 5.5286
L12.4626 5.2867
" />
<path d="M12.4626 5.2867
L12.6440 5.5286
" />
</g></g>
<g style="fill:none; 
stroke:#F2EDA1; stroke-width:0.1200; stroke-opacity:1; 
stroke-linecap:round; stroke-linejoin:round;">
<path d="M5.4000 0.4750
L5.4000 1.1650
" />
<path d="M5.4000 10.8750
L5.4000 10.1850
" />
<path d="M6.9000 0.4750
L5.4000 0.4750
" />
<path d="M6.9000 10.8750
L5.4000 10.8750
" />
<path style="fill:#F2EDA1; fill-opacity:1.0000; 
stroke:#F2EDA1; stroke-width:0.1200; stroke-opacity:1; 
stroke-linecap:round; stroke-linejoin:round;fill-rule:evenodd;"
d="M 2.8375,1.1650
2.5975,0.8350
3.0775,0.8350
Z" /> 
</g>
<g style="fill:none; 
stroke:#FF26E2; stroke-width:0.0500; stroke-opacity:1; 
stroke-linecap:round; stroke-linejoin:round;">
<path d="M0.0250 0.0250
L0.0250 11.3250
" />
<path d="M0.0250 11.3250
L16.6750 11.3250
" />
<path d="M16.6750 0.0250
L0.0250 0.0250
" />
<path d="M16.6750 11.3250
L16.6750 0.0250
" />
</g>
<g style="fill:none; 
stroke:#AFAFAF; stroke-width:0.1588; stroke-opacity:1; 
stroke-linecap:round; stroke-linejoin:round;">
<text x="10.2250" y="6.3100"
textLength="20.1794" font-size="1.6933" lengthAdjust="spacingAndGlyphs"
text-anchor="middle" opacity="0">TO-263-9_TabPin10</text>
<g class="stroked-text"><desc>TO-263-9_TabPin10</desc>
<path d="M0.3674 4.9843
L1.0931 4.9843
" />
<path d="M0.7302 6.2543
L0.7302 4.9843
" />
<path d="M1.7583 4.9843
L2.0002 4.9843
" />
<path d="M2.0002 4.9843
L2.1212 5.0447
" />
<path d="M2.1212 5.0447
L2.2421 5.1657
" />
<path d="M2.2421 5.1657
L2.3026 5.4076
" />
<path d="M2.3026 5.4076
L2.3026 5.8309
" />
<path d="M2.3026 5.8309
L2.2421 6.0728
" />
<path d="M2.2421 6.0728
L2.1212 6.1938
" />
<path d="M2.1212 6.1938
L2.0002 6.2543
" />
<path d="M2.0002 6.2543
L1.7583 6.2543
" />
<path d="M1.7583 6.2543
L1.6374 6.1938
" />
<path d="M1.6374 6.1938
L1.5164 6.0728
" />
<path d="M1.5164 6.0728
L1.4560 5.8309
" />
<path d="M1.4560 5.8309
L1.4560 5.4076
" />
<path d="M1.4560 5.4076
L1.5164 5.1657
" />
<path d="M1.5164 5.1657
L1.6374 5.0447
" />
<path d="M1.6374 5.0447
L1.7583 4.9843
" />
<path d="M2.8469 5.7705
L3.8145 5.7705
" />
<path d="M4.3588 5.1052
L4.4193 5.0447
" />
<path d="M4.4193 5.0447
L4.5402 4.9843
" />
<path d="M4.5402 4.9843
L4.8426 4.9843
" />
<path d="M4.8426 4.9843
L4.9636 5.0447
" />
<path d="M4.9636 5.0447
L5.0240 5.1052
" />
<path d="M5.0240 5.1052
L5.0845 5.2262
" />
<path d="M5.0845 5.2262
L5.0845 5.3471
" />
<path d="M5.0845 5.3471
L5.0240 5.5286
" />
<path d="M5.0240 5.5286
L4.2983 6.2543
" />
<path d="M4.2983 6.2543
L5.0845 6.2543
" />
<path d="M6.1731 4.9843
L5.9312 4.9843
" />
<path d="M5.9312 4.9843
L5.8102 5.0447
" />
<path d="M5.8102 5.0447
L5.7498 5.1052
" />
<path d="M5.7498 5.1052
L5.6288 5.2867
" />
<path d="M5.6288 5.2867
L5.5683 5.5286
" />
<path d="M5.5683 5.5286
L5.5683 6.0124
" />
<path d="M5.5683 6.0124
L5.6288 6.1333
" />
<path d="M5.6288 6.1333
L5.6893 6.1938
" />
<path d="M5.6893 6.1938
L5.8102 6.2543
" />
<path d="M5.8102 6.2543
L6.0521 6.2543
" />
<path d="M6.0521 6.2543
L6.1731 6.1938
" />
<path d="M6.1731 6.1938
L6.2336 6.1333
" />
<path d="M6.2336 6.1333
L6.2940 6.0124
" />
<path d="M6.2940 6.0124
L6.2940 5.7100
" />
<path d="M6.2940 5.7100
L6.2336 5.5890
" />
<path d="M6.2336 5.5890
L6.1731 5.5286
" />
<path d="M6.1731 5.5286
L6.0521 5.4681
" />
<path d="M6.0521 5.4681
L5.8102 5.4681
" />
<path d="M5.8102 5.4681
L5.6893 5.5286
" />
<path d="M5.6893 5.5286
L5.6288 5.5890
" />
<path d="M5.6288 5.5890
L5.5683 5.7100
" />
<path d="M6.7174 4.9843
L7.5036 4.9843
" />
<path d="M7.5036 4.9843
L7.0802 5.4681
" />
<path d="M7.0802 5.4681
L7.2617 5.4681
" />
<path d="M7.2617 5.4681
L7.3826 5.5286
" />
<path d="M7.3826 5.5286
L7.4431 5.5890
" />
<path d="M7.4431 5.5890
L7.5036 5.7100
" />
<path d="M7.5036 5.7100
L7.5036 6.0124
" />
<path d="M7.5036 6.0124
L7.4431 6.1333
" />
<path d="M7.4431 6.1333
L7.3826 6.1938
" />
<path d="M7.3826 6.1938
L7.2617 6.2543
" />
<path d="M7.2617 6.2543
L6.8988 6.2543
" />
<path d="M6.8988 6.2543
L6.7779 6.1938
" />
<path d="M6.7779 6.1938
L6.7174 6.1333
" />
<path d="M8.0479 5.7705
L9.0155 5.7705
" />
<path d="M9.6807 6.2543
L9.9226 6.2543
" />
<path d="M9.9226 6.2543
L10.0436 6.1938
" />
<path d="M10.0436 6.1938
L10.1040 6.1333
" />
<path d="M10.1040 6.1333
L10.2250 5.9519
" />
<path d="M10.2250 5.9519
L10.2855 5.7100
" />
<path d="M10.2855 5.7100
L10.2855 5.2262
" />
<path d="M10.2855 5.2262
L10.2250 5.1052
" />
<path d="M10.2250 5.1052
L10.1645 5.0447
" />
<path d="M10.1645 5.0447
L10.0436 4.9843
" />
<path d="M10.0436 4.9843
L9.8017 4.9843
" />
<path d="M9.8017 4.9843
L9.6807 5.0447
" />
<path d="M9.6807 5.0447
L9.6202 5.1052
" />
<path d="M9.6202 5.1052
L9.5598 5.2262
" />
<path d="M9.5598 5.2262
L9.5598 5.5286
" />
<path d="M9.5598 5.5286
L9.6202 5.6495
" />
<path d="M9.6202 5.6495
L9.6807 5.7100
" />
<path d="M9.6807 5.7100
L9.8017 5.7705
" />
<path d="M9.8017 5.7705
L10.0436 5.7705
" />
<path d="M10.0436 5.7705
L10.1645 5.7100
" />
<path d="M10.1645 5.7100
L10.2250 5.6495
" />
<path d="M10.2250 5.6495
L10.2855 5.5286
" />
<path d="M10.5274 6.3752
L11.4950 6.3752
" />
<path d="M11.6160 4.9843
L12.3417 4.9843
" />
<path d="M11.9788 6.2543
L11.9788 4.9843
" />
<path d="M13.3093 6.2543
L13.3093 5.5890
" />
<path d="M13.3093 5.5890
L13.2488 5.4681
" />
<path d="M13.2488 5.4681
L13.1279 5.4076
" />
<path d="M13.1279 5.4076
L12.8860 5.4076
" />
<path d="M12.8860 5.4076
L12.7650 5.4681
" />
<path d="M13.3093 6.1938
L13.1883 6.2543
" />
<path d="M13.1883 6.2543
L12.8860 6.2543
" />
<path d="M12.8860 6.2543
L12.7650 6.1938
" />
<path d="M12.7650 6.1938
L12.7045 6.0728
" />
<path d="M12.7045 6.0728
L12.7045 5.9519
" />
<path d="M12.7045 5.9519
L12.7650 5.8309
" />
<path d="M12.7650 5.8309
L12.8860 5.7705
" />
<path d="M12.8860 5.7705
L13.1883 5.7705
" />
<path d="M13.1883 5.7705
L13.3093 5.7100
" />
<path d="M13.9140 6.2543
L13.9140 4.9843
" />
<path d="M13.9140 5.4681
L14.0350 5.4076
" />
<path d="M14.0350 5.4076
L14.2769 5.4076
" />
<path d="M14.2769 5.4076
L14.3979 5.4681
" />
<path d="M14.3979 5.4681
L14.4583 5.5286
" />
<path d="M14.4583 5.5286
L14.5188 5.6495
" />
<path d="M14.5188 5.6495
L14.5188 6.0124
" />
<path d="M14.5188 6.0124
L14.4583 6.1333
" />
<path d="M14.4583 6.1333
L14.3979 6.1938
" />
<path d="M14.3979 6.1938
L14.2769 6.2543
" />
<path d="M14.2769 6.2543
L14.0350 6.2543
" />
<path d="M14.0350 6.2543
L13.9140 6.1938
" />
<path d="M15.0631 6.2543
L15.0631 4.9843
" />
<path d="M15.0631 4.9843
L15.5469 4.9843
" />
<path d="M15.5469 4.9843
L15.6679 5.0447
" />
<path d="M15.6679 5.0447
L15.7283 5.1052
" />
<path d="M15.7283 5.1052
L15.7888 5.2262
" />
<path d="M15.7888 5.2262
L15.7888 5.4076
" />
<path d="M15.7888 5.4076
L15.7283 5.5286
" />
<path d="M15.7283 5.5286
L15.6679 5.5890
" />
<path d="M15.6679 5.5890
L15.5469 5.6495
" />
<path d="M15.5469 5.6495
L15.0631 5.6495
" />
<path d="M16.3331 6.2543
L16.3331 5.4076
" />
<path d="M16.3331 4.9843
L16.2726 5.0447
" />
<path d="M16.2726 5.0447
L16.3331 5.1052
" />
<path d="M16.3331 5.1052
L16.3936 5.0447
" />
<path d="M16.3936 5.0447
L16.3331 4.9843
" />
<path d="M16.3331 4.9843
L16.3331 5.1052
" />
<path d="M16.9379 5.4076
L16.9379 6.2543
" />
<path d="M16.9379 5.5286
L16.9983 5.4681
" />
<path d="M16.9983 5.4681
L17.1193 5.4076
" />
<path d="M17.1193 5.4076
L17.3007 5.4076
" />
<path d="M17.3007 5.4076
L17.4217 5.4681
" />
<path d="M17.4217 5.4681
L17.4821 5.5890
" />
<path d="M17.4821 5.5890
L17.4821 6.2543
" />
<path d="M18.7521 6.2543
L18.0264 6.2543
" />
<path d="M18.3893 6.2543
L18.3893 4.9843
" />
<path d="M18.3893 4.9843
L18.2683 5.1657
" />
<path d="M18.2683 5.1657
L18.1474 5.2867
" />
<path d="M18.1474 5.2867
L18.0264 5.3471
" />
<path d="M19.5383 4.9843
L19.6593 4.9843
" />
<path d="M19.6593 4.9843
L19.7802 5.0447
" />
<path d="M19.7802 5.0447
L19.8407 5.1052
" />
<path d="M19.8407 5.1052
L19.9012 5.2262
" />
<path d="M19.9012 5.2262
L19.9617 5.4681
" />
<path d="M19.9617 5.4681
L19.9617 5.7705
" />
<path d="M19.9617 5.7705
L19.9012 6.0124
" />
<path d="M19.9012 6.0124
L19.8407 6.1333
" />
<path d="M19.8407 6.1333
L19.7802 6.1938
" />
<path d="M19.7802 6.1938
L19.6593 6.2543
" />
<path d="M19.6593 6.2543
L19.5383 6.2543
" />
<path d="M19.5383 6.2543
L19.4174 6.1938
" />
<path d="M19.4174 6.1938
L19.3569 6.1333
" />
<path d="M19.3569 6.1333
L19.2964 6.0124
" />
<path d="M19.2964 6.0124
L19.2360 5.7705
" />
<path d="M19.2360 5.7705
L19.2360 5.4681
" />
<path d="M19.2360 5.4681
L19.2964 5.2262
" />
<path d="M19.2964 5.2262
L19.3569 5.1052
" />
<path d="M19.3569 5.1052
L19.4174 5.0447
" />
<path d="M19.4174 5.0447
L19.5383 4.9843
" />
</g></g>
<g style="fill:none; 
stroke:#AFAFAF; stroke-width:0.1500; stroke-opacity:1; 
stroke-linecap:round; stroke-linejoin:round;">
<text x="8.3500" y="6.1750"
textLength="4.5357" font-size="1.3333" lengthAdjust="spacingAndGlyphs"
text-anchor="middle" opacity="0">REF**</text>
<g class="stroked-text"><desc>REF**</desc>
<path d="M7.0167 6.1298
L6.6833 5.6536
" />
<path d="M6.4452 6.1298
L6.4452 5.1298
" />
<path d="M6.4452 5.1298
L6.8262 5.1298
" />
<path d="M6.8262 5.1298
L6.9214 5.1774
" />
<path d="M6.9214 5.1774
L6.9690 5.2251
" />
<path d="M6.9690 5.2251
L7.0167 5.3203
" />
<path d="M7.0167 5.3203
L7.0167 5.4632
" />
<path d="M7.0167 5.4632
L6.9690 5.5584
" />
<path d="M6.9690 5.5584
L6.9214 5.6060
" />
<path d="M6.9214 5.6060
L6.8262 5.6536
" />
<path d="M6.8262 5.6536
L6.4452 5.6536
" />
<path d="M7.4452 5.6060
L7.7786 5.6060
" />
<path d="M7.9214 6.1298
L7.4452 6.1298
" />
<path d="M7.4452 6.1298
L7.4452 5.1298
" />
<path d="M7.4452 5.1298
L7.9214 5.1298
" />
<path d="M8.6833 5.6060
L8.3500 5.6060
" />
<path d="M8.3500 6.1298
L8.3500 5.1298
" />
<path d="M8.3500 5.1298
L8.8262 5.1298
" />
<path d="M9.3500 5.1298
L9.3500 5.3679
" />
<path d="M9.1119 5.2727
L9.3500 5.3679
" />
<path d="M9.3500 5.3679
L9.5881 5.2727
" />
<path d="M9.2071 5.5584
L9.3500 5.3679
" />
<path d="M9.3500 5.3679
L9.4929 5.5584
" />
<path d="M10.1119 5.1298
L10.1119 5.3679
" />
<path d="M9.8738 5.2727
L10.1119 5.3679
" />
<path d="M10.1119 5.3679
L10.3500 5.2727
" />
<path d="M9.9690 5.5584
L10.1119 5.3679
" />
<path d="M10.1119 5.3679
L10.2548 5.5584
" />
</g></g>
<g style="fill:none; 
stroke:#AFAFAF; stroke-width:0.1000; stroke-opacity:1; 
stroke-linecap:round; stroke-linejoin:round;">
<path d="M0.9000 1.5400
L0.9000 2.0500
" />
<path d="M0.9000 2.0500
L5.6000 2.0500
" />
<path d="M0.9000 2.5100
L0.9000 3.0200
" />
<path d="M0.9000 3.0200
L5.6000 3.0200
" />
<path d="M0.9000 3.4800
L0.9000 3.9900
" />
<path d="M0.9000 3.9900
L5.6000 3.9900
" />
<path d="M0.9000 4.4500
L0.9000 4.9600
" />
<path d="M0.9000 4.9600
L5.6000 4.9600
" />
<path d="M0.9000 5.4200
L0.9000 5.9300
" />
<path d="M0.9000 5.9300
L5.6000 5.9300
" />
<path d="M0.9000 6.3900
L0.9000 6.9000
" />
<path d="M0.9000 6.9000
L5.6000 6.9000
" />
<path d="M0.9000 7.3600
L0.9000 7.8700
" />
<path d="M0.9000 7.8700
L5.6000 7.8700
" />
<path d="M0.9000 8.3300
L0.9000 8.8400
" />
<path d="M0.9000 8.8400
L5.6000 8.8400
" />
<path d="M0.9000 9.3000
L0.9000 9.8100
" />
<path d="M0.9000 9.8100
L5.6000 9.8100
" />
<path d="M5.6000 1.6750
L6.6000 0.6750
" />
<path d="M5.6000 2.5100
L0.9000 2.5100
" />
<path d="M5.6000 3.4800
L0.9000 3.4800
" />
<path d="M5.6000 4.4500
L0.9000 4.4500
" />
<path d="M5.6000 5.4200
L0.9000 5.4200
" />
<path d="M5.6000 6.3900
L0.9000 6.3900
" />
<path d="M5.6000 7.3600
L0.9000 7.3600
" />
<path d="M5.6000 8.3300
L0.9000 8.3300
" />
<path d="M5.6000 9.3000
L0.9000 9.3000
" />
<path d="M5.6000 10.6750
L5.6000 1.6750
" />
<path d="M5.7350 1.5400
L0.9000 1.5400
" />
<path d="M6.6000 0.6750
L14.8500 0.6750
" />
<path d="M14.8500 0.6750
L14.8500 10.6750
" />
<path d="M14.8500 0.6750
L15.8500 0.6750
" />
<path d="M14.8500 10.6750
L5.6000 10.6750
" />
<path d="M15.8500 0.6750
L15.8500 10.6750
" />
<path d="M15.8500 10.6750
L14.8500 10.6750
" />
</g> 
</svg>
