<?xml version="1.0" standalone="no"?>
 <!DOCTYPE svg PUBLIC "-//W3C//DTD SVG 1.1//EN" 
 "http://www.w3.org/Graphics/SVG/1.1/DTD/svg11.dtd"> 
<svg
  xmlns:svg="http://www.w3.org/2000/svg"
  xmlns="http://www.w3.org/2000/svg"
  xmlns:xlink="http://www.w3.org/1999/xlink"
  version="1.1"
  width="56.3372mm" height="5.4102mm" viewBox="0.0000 0.0000 56.3372 5.4102">
<title>SVG Image created as working-brd.svg date 2024/04/20 17:59:30 </title>
  <desc>Image generated by PCBNEW </desc>
<g style="fill:#000000; fill-opacity:1.0000;stroke:#000000; stroke-opacity:1.0000;
stroke-linecap:round; stroke-linejoin:round;"
 transform="translate(0 0) scale(1 1)">
</g>
<g style="fill:#C83434; fill-opacity:1.0000; stroke:none;">
<circle cx="26.8431" cy="1.5270" r="0.1250" /> 
</g>
<g style="fill:#C83434; fill-opacity:1.0000; stroke:none;">
<circle cx="27.2431" cy="1.5270" r="0.1250" /> 
</g>
<g style="fill:#C83434; fill-opacity:1.0000; stroke:none;">
<circle cx="27.6431" cy="1.5270" r="0.1250" /> 
</g>
<g style="fill:#C83434; fill-opacity:1.0000; stroke:none;">
<circle cx="28.0431" cy="1.5270" r="0.1250" /> 
</g>
<g style="fill:#C83434; fill-opacity:1.0000; stroke:none;">
<circle cx="28.4431" cy="1.5270" r="0.1250" /> 
</g>
<g style="fill:#C83434; fill-opacity:1.0000; stroke:none;">
<circle cx="28.8431" cy="1.5270" r="0.1250" /> 
</g>
<g style="fill:#C83434; fill-opacity:1.0000; stroke:none;">
<circle cx="29.2431" cy="1.5270" r="0.1250" /> 
</g>
<g style="fill:#C83434; fill-opacity:1.0000; stroke:none;">
<circle cx="26.8431" cy="1.9270" r="0.1250" /> 
</g>
<g style="fill:#C83434; fill-opacity:1.0000; stroke:none;">
<circle cx="27.2431" cy="1.9270" r="0.1250" /> 
</g>
<g style="fill:#C83434; fill-opacity:1.0000; stroke:none;">
<circle cx="27.6431" cy="1.9270" r="0.1250" /> 
</g>
<g style="fill:#C83434; fill-opacity:1.0000; stroke:none;">
<circle cx="28.0431" cy="1.9270" r="0.1250" /> 
</g>
<g style="fill:#C83434; fill-opacity:1.0000; stroke:none;">
<circle cx="28.4431" cy="1.9270" r="0.1250" /> 
</g>
<g style="fill:#C83434; fill-opacity:1.0000; stroke:none;">
<circle cx="28.8431" cy="1.9270" r="0.1250" /> 
</g>
<g style="fill:#C83434; fill-opacity:1.0000; stroke:none;">
<circle cx="29.2431" cy="1.9270" r="0.1250" /> 
</g>
<g style="fill:#C83434; fill-opacity:1.0000; stroke:none;">
<circle cx="26.8431" cy="2.3270" r="0.1250" /> 
</g>
<g style="fill:#C83434; fill-opacity:1.0000; stroke:none;">
<circle cx="27.2431" cy="2.3270" r="0.1250" /> 
</g>
<g style="fill:#C83434; fill-opacity:1.0000; stroke:none;">
<circle cx="27.6431" cy="2.3270" r="0.1250" /> 
</g>
<g style="fill:#C83434; fill-opacity:1.0000; stroke:none;">
<circle cx="28.0431" cy="2.3270" r="0.1250" /> 
</g>
<g style="fill:#C83434; fill-opacity:1.0000; stroke:none;">
<circle cx="28.4431" cy="2.3270" r="0.1250" /> 
</g>
<g style="fill:#C83434; fill-opacity:1.0000; stroke:none;">
<circle cx="28.8431" cy="2.3270" r="0.1250" /> 
</g>
<g style="fill:#C83434; fill-opacity:1.0000; stroke:none;">
<circle cx="29.2431" cy="2.3270" r="0.1250" /> 
</g>
<g style="fill:#C83434; fill-opacity:1.0000; stroke:none;">
<circle cx="26.8431" cy="2.7270" r="0.1250" /> 
</g>
<g style="fill:#C83434; fill-opacity:1.0000; stroke:none;">
<circle cx="27.2431" cy="2.7270" r="0.1250" /> 
</g>
<g style="fill:#C83434; fill-opacity:1.0000; stroke:none;">
<circle cx="27.6431" cy="2.7270" r="0.1250" /> 
</g>
<g style="fill:#C83434; fill-opacity:1.0000; stroke:none;">
<circle cx="28.0431" cy="2.7270" r="0.1250" /> 
</g>
<g style="fill:#C83434; fill-opacity:1.0000; stroke:none;">
<circle cx="28.4431" cy="2.7270" r="0.1250" /> 
</g>
<g style="fill:#C83434; fill-opacity:1.0000; stroke:none;">
<circle cx="28.8431" cy="2.7270" r="0.1250" /> 
</g>
<g style="fill:#C83434; fill-opacity:1.0000; stroke:none;">
<circle cx="29.2431" cy="2.7270" r="0.1250" /> 
</g>
<g style="fill:#C83434; fill-opacity:1.0000; stroke:none;">
<circle cx="26.8431" cy="3.1270" r="0.1250" /> 
</g>
<g style="fill:#C83434; fill-opacity:1.0000; stroke:none;">
<circle cx="27.2431" cy="3.1270" r="0.1250" /> 
</g>
<g style="fill:#C83434; fill-opacity:1.0000; stroke:none;">
<circle cx="27.6431" cy="3.1270" r="0.1250" /> 
</g>
<g style="fill:#C83434; fill-opacity:1.0000; stroke:none;">
<circle cx="28.0431" cy="3.1270" r="0.1250" /> 
</g>
<g style="fill:#C83434; fill-opacity:1.0000; stroke:none;">
<circle cx="28.4431" cy="3.1270" r="0.1250" /> 
</g>
<g style="fill:#C83434; fill-opacity:1.0000; stroke:none;">
<circle cx="28.8431" cy="3.1270" r="0.1250" /> 
</g>
<g style="fill:#C83434; fill-opacity:1.0000; stroke:none;">
<circle cx="29.2431" cy="3.1270" r="0.1250" /> 
</g>
<g style="fill:#C83434; fill-opacity:1.0000; stroke:none;">
<circle cx="26.8431" cy="3.5270" r="0.1250" /> 
</g>
<g style="fill:#C83434; fill-opacity:1.0000; stroke:none;">
<circle cx="27.2431" cy="3.5270" r="0.1250" /> 
</g>
<g style="fill:#C83434; fill-opacity:1.0000; stroke:none;">
<circle cx="27.6431" cy="3.5270" r="0.1250" /> 
</g>
<g style="fill:#C83434; fill-opacity:1.0000; stroke:none;">
<circle cx="28.0431" cy="3.5270" r="0.1250" /> 
</g>
<g style="fill:#C83434; fill-opacity:1.0000; stroke:none;">
<circle cx="28.4431" cy="3.5270" r="0.1250" /> 
</g>
<g style="fill:#C83434; fill-opacity:1.0000; stroke:none;">
<circle cx="28.8431" cy="3.5270" r="0.1250" /> 
</g>
<g style="fill:#C83434; fill-opacity:1.0000; stroke:none;">
<circle cx="29.2431" cy="3.5270" r="0.1250" /> 
</g>
<g style="fill:#C83434; fill-opacity:1.0000; stroke:none;">
<circle cx="26.8431" cy="3.9270" r="0.1250" /> 
</g>
<g style="fill:#C83434; fill-opacity:1.0000; stroke:none;">
<circle cx="27.2431" cy="3.9270" r="0.1250" /> 
</g>
<g style="fill:#C83434; fill-opacity:1.0000; stroke:none;">
<circle cx="27.6431" cy="3.9270" r="0.1250" /> 
</g>
<g style="fill:#C83434; fill-opacity:1.0000; stroke:none;">
<circle cx="28.0431" cy="3.9270" r="0.1250" /> 
</g>
<g style="fill:#C83434; fill-opacity:1.0000; stroke:none;">
<circle cx="28.4431" cy="3.9270" r="0.1250" /> 
</g>
<g style="fill:#C83434; fill-opacity:1.0000; stroke:none;">
<circle cx="28.8431" cy="3.9270" r="0.1250" /> 
</g>
<g style="fill:#C83434; fill-opacity:1.0000; stroke:none;">
<circle cx="29.2431" cy="3.9270" r="0.1250" /> 
</g>
<g style="fill:#D864FF; fill-opacity:0.4000; stroke:none;">
<circle cx="26.8431" cy="1.5270" r="0.1575" /> 
</g>
<g style="fill:#D864FF; fill-opacity:0.4000; stroke:none;">
<circle cx="27.2431" cy="1.5270" r="0.1575" /> 
</g>
<g style="fill:#D864FF; fill-opacity:0.4000; stroke:none;">
<circle cx="27.6431" cy="1.5270" r="0.1575" /> 
</g>
<g style="fill:#D864FF; fill-opacity:0.4000; stroke:none;">
<circle cx="28.0431" cy="1.5270" r="0.1575" /> 
</g>
<g style="fill:#D864FF; fill-opacity:0.4000; stroke:none;">
<circle cx="28.4431" cy="1.5270" r="0.1575" /> 
</g>
<g style="fill:#D864FF; fill-opacity:0.4000; stroke:none;">
<circle cx="28.8431" cy="1.5270" r="0.1575" /> 
</g>
<g style="fill:#D864FF; fill-opacity:0.4000; stroke:none;">
<circle cx="29.2431" cy="1.5270" r="0.1575" /> 
</g>
<g style="fill:#D864FF; fill-opacity:0.4000; stroke:none;">
<circle cx="26.8431" cy="1.9270" r="0.1575" /> 
</g>
<g style="fill:#D864FF; fill-opacity:0.4000; stroke:none;">
<circle cx="27.2431" cy="1.9270" r="0.1575" /> 
</g>
<g style="fill:#D864FF; fill-opacity:0.4000; stroke:none;">
<circle cx="27.6431" cy="1.9270" r="0.1575" /> 
</g>
<g style="fill:#D864FF; fill-opacity:0.4000; stroke:none;">
<circle cx="28.0431" cy="1.9270" r="0.1575" /> 
</g>
<g style="fill:#D864FF; fill-opacity:0.4000; stroke:none;">
<circle cx="28.4431" cy="1.9270" r="0.1575" /> 
</g>
<g style="fill:#D864FF; fill-opacity:0.4000; stroke:none;">
<circle cx="28.8431" cy="1.9270" r="0.1575" /> 
</g>
<g style="fill:#D864FF; fill-opacity:0.4000; stroke:none;">
<circle cx="29.2431" cy="1.9270" r="0.1575" /> 
</g>
<g style="fill:#D864FF; fill-opacity:0.4000; stroke:none;">
<circle cx="26.8431" cy="2.3270" r="0.1575" /> 
</g>
<g style="fill:#D864FF; fill-opacity:0.4000; stroke:none;">
<circle cx="27.2431" cy="2.3270" r="0.1575" /> 
</g>
<g style="fill:#D864FF; fill-opacity:0.4000; stroke:none;">
<circle cx="27.6431" cy="2.3270" r="0.1575" /> 
</g>
<g style="fill:#D864FF; fill-opacity:0.4000; stroke:none;">
<circle cx="28.0431" cy="2.3270" r="0.1575" /> 
</g>
<g style="fill:#D864FF; fill-opacity:0.4000; stroke:none;">
<circle cx="28.4431" cy="2.3270" r="0.1575" /> 
</g>
<g style="fill:#D864FF; fill-opacity:0.4000; stroke:none;">
<circle cx="28.8431" cy="2.3270" r="0.1575" /> 
</g>
<g style="fill:#D864FF; fill-opacity:0.4000; stroke:none;">
<circle cx="29.2431" cy="2.3270" r="0.1575" /> 
</g>
<g style="fill:#D864FF; fill-opacity:0.4000; stroke:none;">
<circle cx="26.8431" cy="2.7270" r="0.1575" /> 
</g>
<g style="fill:#D864FF; fill-opacity:0.4000; stroke:none;">
<circle cx="27.2431" cy="2.7270" r="0.1575" /> 
</g>
<g style="fill:#D864FF; fill-opacity:0.4000; stroke:none;">
<circle cx="27.6431" cy="2.7270" r="0.1575" /> 
</g>
<g style="fill:#D864FF; fill-opacity:0.4000; stroke:none;">
<circle cx="28.0431" cy="2.7270" r="0.1575" /> 
</g>
<g style="fill:#D864FF; fill-opacity:0.4000; stroke:none;">
<circle cx="28.4431" cy="2.7270" r="0.1575" /> 
</g>
<g style="fill:#D864FF; fill-opacity:0.4000; stroke:none;">
<circle cx="28.8431" cy="2.7270" r="0.1575" /> 
</g>
<g style="fill:#D864FF; fill-opacity:0.4000; stroke:none;">
<circle cx="29.2431" cy="2.7270" r="0.1575" /> 
</g>
<g style="fill:#D864FF; fill-opacity:0.4000; stroke:none;">
<circle cx="26.8431" cy="3.1270" r="0.1575" /> 
</g>
<g style="fill:#D864FF; fill-opacity:0.4000; stroke:none;">
<circle cx="27.2431" cy="3.1270" r="0.1575" /> 
</g>
<g style="fill:#D864FF; fill-opacity:0.4000; stroke:none;">
<circle cx="27.6431" cy="3.1270" r="0.1575" /> 
</g>
<g style="fill:#D864FF; fill-opacity:0.4000; stroke:none;">
<circle cx="28.0431" cy="3.1270" r="0.1575" /> 
</g>
<g style="fill:#D864FF; fill-opacity:0.4000; stroke:none;">
<circle cx="28.4431" cy="3.1270" r="0.1575" /> 
</g>
<g style="fill:#D864FF; fill-opacity:0.4000; stroke:none;">
<circle cx="28.8431" cy="3.1270" r="0.1575" /> 
</g>
<g style="fill:#D864FF; fill-opacity:0.4000; stroke:none;">
<circle cx="29.2431" cy="3.1270" r="0.1575" /> 
</g>
<g style="fill:#D864FF; fill-opacity:0.4000; stroke:none;">
<circle cx="26.8431" cy="3.5270" r="0.1575" /> 
</g>
<g style="fill:#D864FF; fill-opacity:0.4000; stroke:none;">
<circle cx="27.2431" cy="3.5270" r="0.1575" /> 
</g>
<g style="fill:#D864FF; fill-opacity:0.4000; stroke:none;">
<circle cx="27.6431" cy="3.5270" r="0.1575" /> 
</g>
<g style="fill:#D864FF; fill-opacity:0.4000; stroke:none;">
<circle cx="28.0431" cy="3.5270" r="0.1575" /> 
</g>
<g style="fill:#D864FF; fill-opacity:0.4000; stroke:none;">
<circle cx="28.4431" cy="3.5270" r="0.1575" /> 
</g>
<g style="fill:#D864FF; fill-opacity:0.4000; stroke:none;">
<circle cx="28.8431" cy="3.5270" r="0.1575" /> 
</g>
<g style="fill:#D864FF; fill-opacity:0.4000; stroke:none;">
<circle cx="29.2431" cy="3.5270" r="0.1575" /> 
</g>
<g style="fill:#D864FF; fill-opacity:0.4000; stroke:none;">
<circle cx="26.8431" cy="3.9270" r="0.1575" /> 
</g>
<g style="fill:#D864FF; fill-opacity:0.4000; stroke:none;">
<circle cx="27.2431" cy="3.9270" r="0.1575" /> 
</g>
<g style="fill:#D864FF; fill-opacity:0.4000; stroke:none;">
<circle cx="27.6431" cy="3.9270" r="0.1575" /> 
</g>
<g style="fill:#D864FF; fill-opacity:0.4000; stroke:none;">
<circle cx="28.0431" cy="3.9270" r="0.1575" /> 
</g>
<g style="fill:#D864FF; fill-opacity:0.4000; stroke:none;">
<circle cx="28.4431" cy="3.9270" r="0.1575" /> 
</g>
<g style="fill:#D864FF; fill-opacity:0.4000; stroke:none;">
<circle cx="28.8431" cy="3.9270" r="0.1575" /> 
</g>
<g style="fill:#D864FF; fill-opacity:0.4000; stroke:none;">
<circle cx="29.2431" cy="3.9270" r="0.1575" /> 
</g>
<g style="fill:#B4A09A; fill-opacity:0.9000; stroke:none;">
<circle cx="26.8431" cy="1.5270" r="0.1375" /> 
</g>
<g style="fill:#B4A09A; fill-opacity:0.9000; stroke:none;">
<circle cx="27.2431" cy="1.5270" r="0.1375" /> 
</g>
<g style="fill:#B4A09A; fill-opacity:0.9000; stroke:none;">
<circle cx="27.6431" cy="1.5270" r="0.1375" /> 
</g>
<g style="fill:#B4A09A; fill-opacity:0.9000; stroke:none;">
<circle cx="28.0431" cy="1.5270" r="0.1375" /> 
</g>
<g style="fill:#B4A09A; fill-opacity:0.9000; stroke:none;">
<circle cx="28.4431" cy="1.5270" r="0.1375" /> 
</g>
<g style="fill:#B4A09A; fill-opacity:0.9000; stroke:none;">
<circle cx="28.8431" cy="1.5270" r="0.1375" /> 
</g>
<g style="fill:#B4A09A; fill-opacity:0.9000; stroke:none;">
<circle cx="29.2431" cy="1.5270" r="0.1375" /> 
</g>
<g style="fill:#B4A09A; fill-opacity:0.9000; stroke:none;">
<circle cx="26.8431" cy="1.9270" r="0.1375" /> 
</g>
<g style="fill:#B4A09A; fill-opacity:0.9000; stroke:none;">
<circle cx="27.2431" cy="1.9270" r="0.1375" /> 
</g>
<g style="fill:#B4A09A; fill-opacity:0.9000; stroke:none;">
<circle cx="27.6431" cy="1.9270" r="0.1375" /> 
</g>
<g style="fill:#B4A09A; fill-opacity:0.9000; stroke:none;">
<circle cx="28.0431" cy="1.9270" r="0.1375" /> 
</g>
<g style="fill:#B4A09A; fill-opacity:0.9000; stroke:none;">
<circle cx="28.4431" cy="1.9270" r="0.1375" /> 
</g>
<g style="fill:#B4A09A; fill-opacity:0.9000; stroke:none;">
<circle cx="28.8431" cy="1.9270" r="0.1375" /> 
</g>
<g style="fill:#B4A09A; fill-opacity:0.9000; stroke:none;">
<circle cx="29.2431" cy="1.9270" r="0.1375" /> 
</g>
<g style="fill:#B4A09A; fill-opacity:0.9000; stroke:none;">
<circle cx="26.8431" cy="2.3270" r="0.1375" /> 
</g>
<g style="fill:#B4A09A; fill-opacity:0.9000; stroke:none;">
<circle cx="27.2431" cy="2.3270" r="0.1375" /> 
</g>
<g style="fill:#B4A09A; fill-opacity:0.9000; stroke:none;">
<circle cx="27.6431" cy="2.3270" r="0.1375" /> 
</g>
<g style="fill:#B4A09A; fill-opacity:0.9000; stroke:none;">
<circle cx="28.0431" cy="2.3270" r="0.1375" /> 
</g>
<g style="fill:#B4A09A; fill-opacity:0.9000; stroke:none;">
<circle cx="28.4431" cy="2.3270" r="0.1375" /> 
</g>
<g style="fill:#B4A09A; fill-opacity:0.9000; stroke:none;">
<circle cx="28.8431" cy="2.3270" r="0.1375" /> 
</g>
<g style="fill:#B4A09A; fill-opacity:0.9000; stroke:none;">
<circle cx="29.2431" cy="2.3270" r="0.1375" /> 
</g>
<g style="fill:#B4A09A; fill-opacity:0.9000; stroke:none;">
<circle cx="26.8431" cy="2.7270" r="0.1375" /> 
</g>
<g style="fill:#B4A09A; fill-opacity:0.9000; stroke:none;">
<circle cx="27.2431" cy="2.7270" r="0.1375" /> 
</g>
<g style="fill:#B4A09A; fill-opacity:0.9000; stroke:none;">
<circle cx="27.6431" cy="2.7270" r="0.1375" /> 
</g>
<g style="fill:#B4A09A; fill-opacity:0.9000; stroke:none;">
<circle cx="28.0431" cy="2.7270" r="0.1375" /> 
</g>
<g style="fill:#B4A09A; fill-opacity:0.9000; stroke:none;">
<circle cx="28.4431" cy="2.7270" r="0.1375" /> 
</g>
<g style="fill:#B4A09A; fill-opacity:0.9000; stroke:none;">
<circle cx="28.8431" cy="2.7270" r="0.1375" /> 
</g>
<g style="fill:#B4A09A; fill-opacity:0.9000; stroke:none;">
<circle cx="29.2431" cy="2.7270" r="0.1375" /> 
</g>
<g style="fill:#B4A09A; fill-opacity:0.9000; stroke:none;">
<circle cx="26.8431" cy="3.1270" r="0.1375" /> 
</g>
<g style="fill:#B4A09A; fill-opacity:0.9000; stroke:none;">
<circle cx="27.2431" cy="3.1270" r="0.1375" /> 
</g>
<g style="fill:#B4A09A; fill-opacity:0.9000; stroke:none;">
<circle cx="27.6431" cy="3.1270" r="0.1375" /> 
</g>
<g style="fill:#B4A09A; fill-opacity:0.9000; stroke:none;">
<circle cx="28.0431" cy="3.1270" r="0.1375" /> 
</g>
<g style="fill:#B4A09A; fill-opacity:0.9000; stroke:none;">
<circle cx="28.4431" cy="3.1270" r="0.1375" /> 
</g>
<g style="fill:#B4A09A; fill-opacity:0.9000; stroke:none;">
<circle cx="28.8431" cy="3.1270" r="0.1375" /> 
</g>
<g style="fill:#B4A09A; fill-opacity:0.9000; stroke:none;">
<circle cx="29.2431" cy="3.1270" r="0.1375" /> 
</g>
<g style="fill:#B4A09A; fill-opacity:0.9000; stroke:none;">
<circle cx="26.8431" cy="3.5270" r="0.1375" /> 
</g>
<g style="fill:#B4A09A; fill-opacity:0.9000; stroke:none;">
<circle cx="27.2431" cy="3.5270" r="0.1375" /> 
</g>
<g style="fill:#B4A09A; fill-opacity:0.9000; stroke:none;">
<circle cx="27.6431" cy="3.5270" r="0.1375" /> 
</g>
<g style="fill:#B4A09A; fill-opacity:0.9000; stroke:none;">
<circle cx="28.0431" cy="3.5270" r="0.1375" /> 
</g>
<g style="fill:#B4A09A; fill-opacity:0.9000; stroke:none;">
<circle cx="28.4431" cy="3.5270" r="0.1375" /> 
</g>
<g style="fill:#B4A09A; fill-opacity:0.9000; stroke:none;">
<circle cx="28.8431" cy="3.5270" r="0.1375" /> 
</g>
<g style="fill:#B4A09A; fill-opacity:0.9000; stroke:none;">
<circle cx="29.2431" cy="3.5270" r="0.1375" /> 
</g>
<g style="fill:#B4A09A; fill-opacity:0.9000; stroke:none;">
<circle cx="26.8431" cy="3.9270" r="0.1375" /> 
</g>
<g style="fill:#B4A09A; fill-opacity:0.9000; stroke:none;">
<circle cx="27.2431" cy="3.9270" r="0.1375" /> 
</g>
<g style="fill:#B4A09A; fill-opacity:0.9000; stroke:none;">
<circle cx="27.6431" cy="3.9270" r="0.1375" /> 
</g>
<g style="fill:#B4A09A; fill-opacity:0.9000; stroke:none;">
<circle cx="28.0431" cy="3.9270" r="0.1375" /> 
</g>
<g style="fill:#B4A09A; fill-opacity:0.9000; stroke:none;">
<circle cx="28.4431" cy="3.9270" r="0.1375" /> 
</g>
<g style="fill:#B4A09A; fill-opacity:0.9000; stroke:none;">
<circle cx="28.8431" cy="3.9270" r="0.1375" /> 
</g>
<g style="fill:#B4A09A; fill-opacity:0.9000; stroke:none;">
<circle cx="29.2431" cy="3.9270" r="0.1375" /> 
</g>
<g style="fill:none; 
stroke:#F2EDA1; stroke-width:0.1588; stroke-opacity:1; 
stroke-linecap:round; stroke-linejoin:round;">
<text x="28.1721" y="3.3500"
textLength="5.6651" font-size="1.6933" lengthAdjust="spacingAndGlyphs"
text-anchor="middle" opacity="0">REF**</text>
<g class="stroked-text"><desc>REF**</desc>
<path d="M26.4787 3.2943
L26.0554 2.6895
" />
<path d="M25.7530 3.2943
L25.7530 2.0243
" />
<path d="M25.7530 2.0243
L26.2368 2.0243
" />
<path d="M26.2368 2.0243
L26.3578 2.0847
" />
<path d="M26.3578 2.0847
L26.4183 2.1452
" />
<path d="M26.4183 2.1452
L26.4787 2.2662
" />
<path d="M26.4787 2.2662
L26.4787 2.4476
" />
<path d="M26.4787 2.4476
L26.4183 2.5686
" />
<path d="M26.4183 2.5686
L26.3578 2.6290
" />
<path d="M26.3578 2.6290
L26.2368 2.6895
" />
<path d="M26.2368 2.6895
L25.7530 2.6895
" />
<path d="M27.0230 2.6290
L27.4464 2.6290
" />
<path d="M27.6278 3.2943
L27.0230 3.2943
" />
<path d="M27.0230 3.2943
L27.0230 2.0243
" />
<path d="M27.0230 2.0243
L27.6278 2.0243
" />
<path d="M28.5954 2.6290
L28.1721 2.6290
" />
<path d="M28.1721 3.2943
L28.1721 2.0243
" />
<path d="M28.1721 2.0243
L28.7768 2.0243
" />
<path d="M29.4421 2.0243
L29.4421 2.3267
" />
<path d="M29.1397 2.2057
L29.4421 2.3267
" />
<path d="M29.4421 2.3267
L29.7445 2.2057
" />
<path d="M29.2606 2.5686
L29.4421 2.3267
" />
<path d="M29.4421 2.3267
L29.6235 2.5686
" />
<path d="M30.4097 2.0243
L30.4097 2.3267
" />
<path d="M30.1073 2.2057
L30.4097 2.3267
" />
<path d="M30.4097 2.3267
L30.7121 2.2057
" />
<path d="M30.2283 2.5686
L30.4097 2.3267
" />
<path d="M30.4097 2.3267
L30.5911 2.5686
" />
</g></g>
<g style="fill:none; 
stroke:#F2EDA1; stroke-width:0.1200; stroke-opacity:1; 
stroke-linecap:round; stroke-linejoin:round;">
<path d="M26.4121 4.5150
L26.4121 1.7400
" />
<path d="M27.2371 0.9150
L29.9321 0.9150
" />
<path d="M29.9321 0.9150
L29.9321 4.5150
" />
<path d="M29.9321 4.5150
L26.4121 4.5150
" />
<path style="fill:#F2EDA1; fill-opacity:1.0000; 
stroke:#F2EDA1; stroke-width:0.1200; stroke-opacity:1; 
stroke-linecap:round; stroke-linejoin:round;fill-rule:evenodd;"
d="M 26.4121,0.9150
25.9121,0.9150
26.4121,0.4150
Z" /> 
</g>
<g style="fill:none; 
stroke:#FF26E2; stroke-width:0.0500; stroke-opacity:1; 
stroke-linecap:round; stroke-linejoin:round;">
<path d="M25.5221 0.0250
L25.5221 5.4050
" />
<path d="M25.5221 5.4050
L30.8221 5.4050
" />
<path d="M30.8221 0.0250
L25.5221 0.0250
" />
<path d="M30.8221 5.4050
L30.8221 0.0250
" />
</g>
<g style="fill:none; 
stroke:#AFAFAF; stroke-width:0.1588; stroke-opacity:1; 
stroke-linecap:round; stroke-linejoin:round;">
<text x="28.1721" y="3.3500"
textLength="56.3442" font-size="1.6933" lengthAdjust="spacingAndGlyphs"
text-anchor="middle" opacity="0">ST_WLCSP-49_3.30x3.38mm_Layout7x7_P0.4mm_Offcenter</text>
<g class="stroked-text"><desc>ST_WLCSP-49_3.30x3.38mm_Layout7x7_P0.4mm_Offcenter</desc>
<path d="M0.3530 3.2338
L0.5345 3.2943
" />
<path d="M0.5345 3.2943
L0.8368 3.2943
" />
<path d="M0.8368 3.2943
L0.9578 3.2338
" />
<path d="M0.9578 3.2338
L1.0183 3.1733
" />
<path d="M1.0183 3.1733
L1.0787 3.0524
" />
<path d="M1.0787 3.0524
L1.0787 2.9314
" />
<path d="M1.0787 2.9314
L1.0183 2.8105
" />
<path d="M1.0183 2.8105
L0.9578 2.7500
" />
<path d="M0.9578 2.7500
L0.8368 2.6895
" />
<path d="M0.8368 2.6895
L0.5949 2.6290
" />
<path d="M0.5949 2.6290
L0.4740 2.5686
" />
<path d="M0.4740 2.5686
L0.4135 2.5081
" />
<path d="M0.4135 2.5081
L0.3530 2.3871
" />
<path d="M0.3530 2.3871
L0.3530 2.2662
" />
<path d="M0.3530 2.2662
L0.4135 2.1452
" />
<path d="M0.4135 2.1452
L0.4740 2.0847
" />
<path d="M0.4740 2.0847
L0.5949 2.0243
" />
<path d="M0.5949 2.0243
L0.8973 2.0243
" />
<path d="M0.8973 2.0243
L1.0787 2.0847
" />
<path d="M1.4416 2.0243
L2.1673 2.0243
" />
<path d="M1.8045 3.2943
L1.8045 2.0243
" />
<path d="M2.2883 3.4152
L3.2559 3.4152
" />
<path d="M3.4373 2.0243
L3.7397 3.2943
" />
<path d="M3.7397 3.2943
L3.9816 2.3871
" />
<path d="M3.9816 2.3871
L4.2235 3.2943
" />
<path d="M4.2235 3.2943
L4.5259 2.0243
" />
<path d="M5.6145 3.2943
L5.0097 3.2943
" />
<path d="M5.0097 3.2943
L5.0097 2.0243
" />
<path d="M6.7635 3.1733
L6.7030 3.2338
" />
<path d="M6.7030 3.2338
L6.5216 3.2943
" />
<path d="M6.5216 3.2943
L6.4006 3.2943
" />
<path d="M6.4006 3.2943
L6.2192 3.2338
" />
<path d="M6.2192 3.2338
L6.0983 3.1128
" />
<path d="M6.0983 3.1128
L6.0378 2.9919
" />
<path d="M6.0378 2.9919
L5.9773 2.7500
" />
<path d="M5.9773 2.7500
L5.9773 2.5686
" />
<path d="M5.9773 2.5686
L6.0378 2.3267
" />
<path d="M6.0378 2.3267
L6.0983 2.2057
" />
<path d="M6.0983 2.2057
L6.2192 2.0847
" />
<path d="M6.2192 2.0847
L6.4006 2.0243
" />
<path d="M6.4006 2.0243
L6.5216 2.0243
" />
<path d="M6.5216 2.0243
L6.7030 2.0847
" />
<path d="M6.7030 2.0847
L6.7635 2.1452
" />
<path d="M7.2473 3.2338
L7.4287 3.2943
" />
<path d="M7.4287 3.2943
L7.7311 3.2943
" />
<path d="M7.7311 3.2943
L7.8521 3.2338
" />
<path d="M7.8521 3.2338
L7.9126 3.1733
" />
<path d="M7.9126 3.1733
L7.9730 3.0524
" />
<path d="M7.9730 3.0524
L7.9730 2.9314
" />
<path d="M7.9730 2.9314
L7.9126 2.8105
" />
<path d="M7.9126 2.8105
L7.8521 2.7500
" />
<path d="M7.8521 2.7500
L7.7311 2.6895
" />
<path d="M7.7311 2.6895
L7.4892 2.6290
" />
<path d="M7.4892 2.6290
L7.3683 2.5686
" />
<path d="M7.3683 2.5686
L7.3078 2.5081
" />
<path d="M7.3078 2.5081
L7.2473 2.3871
" />
<path d="M7.2473 2.3871
L7.2473 2.2662
" />
<path d="M7.2473 2.2662
L7.3078 2.1452
" />
<path d="M7.3078 2.1452
L7.3683 2.0847
" />
<path d="M7.3683 2.0847
L7.4892 2.0243
" />
<path d="M7.4892 2.0243
L7.7916 2.0243
" />
<path d="M7.7916 2.0243
L7.9730 2.0847
" />
<path d="M8.5173 3.2943
L8.5173 2.0243
" />
<path d="M8.5173 2.0243
L9.0011 2.0243
" />
<path d="M9.0011 2.0243
L9.1221 2.0847
" />
<path d="M9.1221 2.0847
L9.1826 2.1452
" />
<path d="M9.1826 2.1452
L9.2430 2.2662
" />
<path d="M9.2430 2.2662
L9.2430 2.4476
" />
<path d="M9.2430 2.4476
L9.1826 2.5686
" />
<path d="M9.1826 2.5686
L9.1221 2.6290
" />
<path d="M9.1221 2.6290
L9.0011 2.6895
" />
<path d="M9.0011 2.6895
L8.5173 2.6895
" />
<path d="M9.7873 2.8105
L10.7549 2.8105
" />
<path d="M11.9040 2.4476
L11.9040 3.2943
" />
<path d="M11.6016 1.9638
L11.2992 2.8709
" />
<path d="M11.2992 2.8709
L12.0854 2.8709
" />
<path d="M12.6297 3.2943
L12.8716 3.2943
" />
<path d="M12.8716 3.2943
L12.9926 3.2338
" />
<path d="M12.9926 3.2338
L13.0530 3.1733
" />
<path d="M13.0530 3.1733
L13.1740 2.9919
" />
<path d="M13.1740 2.9919
L13.2345 2.7500
" />
<path d="M13.2345 2.7500
L13.2345 2.2662
" />
<path d="M13.2345 2.2662
L13.1740 2.1452
" />
<path d="M13.1740 2.1452
L13.1135 2.0847
" />
<path d="M13.1135 2.0847
L12.9926 2.0243
" />
<path d="M12.9926 2.0243
L12.7507 2.0243
" />
<path d="M12.7507 2.0243
L12.6297 2.0847
" />
<path d="M12.6297 2.0847
L12.5692 2.1452
" />
<path d="M12.5692 2.1452
L12.5087 2.2662
" />
<path d="M12.5087 2.2662
L12.5087 2.5686
" />
<path d="M12.5087 2.5686
L12.5692 2.6895
" />
<path d="M12.5692 2.6895
L12.6297 2.7500
" />
<path d="M12.6297 2.7500
L12.7507 2.8105
" />
<path d="M12.7507 2.8105
L12.9926 2.8105
" />
<path d="M12.9926 2.8105
L13.1135 2.7500
" />
<path d="M13.1135 2.7500
L13.1740 2.6895
" />
<path d="M13.1740 2.6895
L13.2345 2.5686
" />
<path d="M13.4764 3.4152
L14.4440 3.4152
" />
<path d="M14.6254 2.0243
L15.4116 2.0243
" />
<path d="M15.4116 2.0243
L14.9883 2.5081
" />
<path d="M14.9883 2.5081
L15.1697 2.5081
" />
<path d="M15.1697 2.5081
L15.2906 2.5686
" />
<path d="M15.2906 2.5686
L15.3511 2.6290
" />
<path d="M15.3511 2.6290
L15.4116 2.7500
" />
<path d="M15.4116 2.7500
L15.4116 3.0524
" />
<path d="M15.4116 3.0524
L15.3511 3.1733
" />
<path d="M15.3511 3.1733
L15.2906 3.2338
" />
<path d="M15.2906 3.2338
L15.1697 3.2943
" />
<path d="M15.1697 3.2943
L14.8068 3.2943
" />
<path d="M14.8068 3.2943
L14.6859 3.2338
" />
<path d="M14.6859 3.2338
L14.6254 3.1733
" />
<path d="M15.9559 3.1733
L16.0164 3.2338
" />
<path d="M16.0164 3.2338
L15.9559 3.2943
" />
<path d="M15.9559 3.2943
L15.8954 3.2338
" />
<path d="M15.8954 3.2338
L15.9559 3.1733
" />
<path d="M15.9559 3.1733
L15.9559 3.2943
" />
<path d="M16.4397 2.0243
L17.2259 2.0243
" />
<path d="M17.2259 2.0243
L16.8026 2.5081
" />
<path d="M16.8026 2.5081
L16.9840 2.5081
" />
<path d="M16.9840 2.5081
L17.1049 2.5686
" />
<path d="M17.1049 2.5686
L17.1654 2.6290
" />
<path d="M17.1654 2.6290
L17.2259 2.7500
" />
<path d="M17.2259 2.7500
L17.2259 3.0524
" />
<path d="M17.2259 3.0524
L17.1654 3.1733
" />
<path d="M17.1654 3.1733
L17.1049 3.2338
" />
<path d="M17.1049 3.2338
L16.9840 3.2943
" />
<path d="M16.9840 3.2943
L16.6211 3.2943
" />
<path d="M16.6211 3.2943
L16.5002 3.2338
" />
<path d="M16.5002 3.2338
L16.4397 3.1733
" />
<path d="M18.0121 2.0243
L18.1330 2.0243
" />
<path d="M18.1330 2.0243
L18.2540 2.0847
" />
<path d="M18.2540 2.0847
L18.3145 2.1452
" />
<path d="M18.3145 2.1452
L18.3749 2.2662
" />
<path d="M18.3749 2.2662
L18.4354 2.5081
" />
<path d="M18.4354 2.5081
L18.4354 2.8105
" />
<path d="M18.4354 2.8105
L18.3749 3.0524
" />
<path d="M18.3749 3.0524
L18.3145 3.1733
" />
<path d="M18.3145 3.1733
L18.2540 3.2338
" />
<path d="M18.2540 3.2338
L18.1330 3.2943
" />
<path d="M18.1330 3.2943
L18.0121 3.2943
" />
<path d="M18.0121 3.2943
L17.8911 3.2338
" />
<path d="M17.8911 3.2338
L17.8307 3.1733
" />
<path d="M17.8307 3.1733
L17.7702 3.0524
" />
<path d="M17.7702 3.0524
L17.7097 2.8105
" />
<path d="M17.7097 2.8105
L17.7097 2.5081
" />
<path d="M17.7097 2.5081
L17.7702 2.2662
" />
<path d="M17.7702 2.2662
L17.8307 2.1452
" />
<path d="M17.8307 2.1452
L17.8911 2.0847
" />
<path d="M17.8911 2.0847
L18.0121 2.0243
" />
<path d="M18.8587 3.2943
L19.5240 2.4476
" />
<path d="M18.8587 2.4476
L19.5240 3.2943
" />
<path d="M19.8868 2.0243
L20.6730 2.0243
" />
<path d="M20.6730 2.0243
L20.2497 2.5081
" />
<path d="M20.2497 2.5081
L20.4311 2.5081
" />
<path d="M20.4311 2.5081
L20.5521 2.5686
" />
<path d="M20.5521 2.5686
L20.6126 2.6290
" />
<path d="M20.6126 2.6290
L20.6730 2.7500
" />
<path d="M20.6730 2.7500
L20.6730 3.0524
" />
<path d="M20.6730 3.0524
L20.6126 3.1733
" />
<path d="M20.6126 3.1733
L20.5521 3.2338
" />
<path d="M20.5521 3.2338
L20.4311 3.2943
" />
<path d="M20.4311 3.2943
L20.0683 3.2943
" />
<path d="M20.0683 3.2943
L19.9473 3.2338
" />
<path d="M19.9473 3.2338
L19.8868 3.1733
" />
<path d="M21.2173 3.1733
L21.2778 3.2338
" />
<path d="M21.2778 3.2338
L21.2173 3.2943
" />
<path d="M21.2173 3.2943
L21.1568 3.2338
" />
<path d="M21.1568 3.2338
L21.2173 3.1733
" />
<path d="M21.2173 3.1733
L21.2173 3.2943
" />
<path d="M21.7011 2.0243
L22.4873 2.0243
" />
<path d="M22.4873 2.0243
L22.0640 2.5081
" />
<path d="M22.0640 2.5081
L22.2454 2.5081
" />
<path d="M22.2454 2.5081
L22.3664 2.5686
" />
<path d="M22.3664 2.5686
L22.4268 2.6290
" />
<path d="M22.4268 2.6290
L22.4873 2.7500
" />
<path d="M22.4873 2.7500
L22.4873 3.0524
" />
<path d="M22.4873 3.0524
L22.4268 3.1733
" />
<path d="M22.4268 3.1733
L22.3664 3.2338
" />
<path d="M22.3664 3.2338
L22.2454 3.2943
" />
<path d="M22.2454 3.2943
L21.8826 3.2943
" />
<path d="M21.8826 3.2943
L21.7616 3.2338
" />
<path d="M21.7616 3.2338
L21.7011 3.1733
" />
<path d="M23.2130 2.5686
L23.0921 2.5081
" />
<path d="M23.0921 2.5081
L23.0316 2.4476
" />
<path d="M23.0316 2.4476
L22.9711 2.3267
" />
<path d="M22.9711 2.3267
L22.9711 2.2662
" />
<path d="M22.9711 2.2662
L23.0316 2.1452
" />
<path d="M23.0316 2.1452
L23.0921 2.0847
" />
<path d="M23.0921 2.0847
L23.2130 2.0243
" />
<path d="M23.2130 2.0243
L23.4549 2.0243
" />
<path d="M23.4549 2.0243
L23.5759 2.0847
" />
<path d="M23.5759 2.0847
L23.6364 2.1452
" />
<path d="M23.6364 2.1452
L23.6968 2.2662
" />
<path d="M23.6968 2.2662
L23.6968 2.3267
" />
<path d="M23.6968 2.3267
L23.6364 2.4476
" />
<path d="M23.6364 2.4476
L23.5759 2.5081
" />
<path d="M23.5759 2.5081
L23.4549 2.5686
" />
<path d="M23.4549 2.5686
L23.2130 2.5686
" />
<path d="M23.2130 2.5686
L23.0921 2.6290
" />
<path d="M23.0921 2.6290
L23.0316 2.6895
" />
<path d="M23.0316 2.6895
L22.9711 2.8105
" />
<path d="M22.9711 2.8105
L22.9711 3.0524
" />
<path d="M22.9711 3.0524
L23.0316 3.1733
" />
<path d="M23.0316 3.1733
L23.0921 3.2338
" />
<path d="M23.0921 3.2338
L23.2130 3.2943
" />
<path d="M23.2130 3.2943
L23.4549 3.2943
" />
<path d="M23.4549 3.2943
L23.5759 3.2338
" />
<path d="M23.5759 3.2338
L23.6364 3.1733
" />
<path d="M23.6364 3.1733
L23.6968 3.0524
" />
<path d="M23.6968 3.0524
L23.6968 2.8105
" />
<path d="M23.6968 2.8105
L23.6364 2.6895
" />
<path d="M23.6364 2.6895
L23.5759 2.6290
" />
<path d="M23.5759 2.6290
L23.4549 2.5686
" />
<path d="M24.2411 3.2943
L24.2411 2.4476
" />
<path d="M24.2411 2.5686
L24.3016 2.5081
" />
<path d="M24.3016 2.5081
L24.4226 2.4476
" />
<path d="M24.4226 2.4476
L24.6040 2.4476
" />
<path d="M24.6040 2.4476
L24.7249 2.5081
" />
<path d="M24.7249 2.5081
L24.7854 2.6290
" />
<path d="M24.7854 2.6290
L24.7854 3.2943
" />
<path d="M24.7854 2.6290
L24.8459 2.5081
" />
<path d="M24.8459 2.5081
L24.9668 2.4476
" />
<path d="M24.9668 2.4476
L25.1483 2.4476
" />
<path d="M25.1483 2.4476
L25.2692 2.5081
" />
<path d="M25.2692 2.5081
L25.3297 2.6290
" />
<path d="M25.3297 2.6290
L25.3297 3.2943
" />
<path d="M25.9345 3.2943
L25.9345 2.4476
" />
<path d="M25.9345 2.5686
L25.9949 2.5081
" />
<path d="M25.9949 2.5081
L26.1159 2.4476
" />
<path d="M26.1159 2.4476
L26.2973 2.4476
" />
<path d="M26.2973 2.4476
L26.4183 2.5081
" />
<path d="M26.4183 2.5081
L26.4787 2.6290
" />
<path d="M26.4787 2.6290
L26.4787 3.2943
" />
<path d="M26.4787 2.6290
L26.5392 2.5081
" />
<path d="M26.5392 2.5081
L26.6602 2.4476
" />
<path d="M26.6602 2.4476
L26.8416 2.4476
" />
<path d="M26.8416 2.4476
L26.9626 2.5081
" />
<path d="M26.9626 2.5081
L27.0230 2.6290
" />
<path d="M27.0230 2.6290
L27.0230 3.2943
" />
<path d="M27.3254 3.4152
L28.2930 3.4152
" />
<path d="M29.2002 3.2943
L28.5954 3.2943
" />
<path d="M28.5954 3.2943
L28.5954 2.0243
" />
<path d="M30.1678 3.2943
L30.1678 2.6290
" />
<path d="M30.1678 2.6290
L30.1073 2.5081
" />
<path d="M30.1073 2.5081
L29.9864 2.4476
" />
<path d="M29.9864 2.4476
L29.7445 2.4476
" />
<path d="M29.7445 2.4476
L29.6235 2.5081
" />
<path d="M30.1678 3.2338
L30.0468 3.2943
" />
<path d="M30.0468 3.2943
L29.7445 3.2943
" />
<path d="M29.7445 3.2943
L29.6235 3.2338
" />
<path d="M29.6235 3.2338
L29.5630 3.1128
" />
<path d="M29.5630 3.1128
L29.5630 2.9919
" />
<path d="M29.5630 2.9919
L29.6235 2.8709
" />
<path d="M29.6235 2.8709
L29.7445 2.8105
" />
<path d="M29.7445 2.8105
L30.0468 2.8105
" />
<path d="M30.0468 2.8105
L30.1678 2.7500
" />
<path d="M30.6516 2.4476
L30.9540 3.2943
" />
<path d="M31.2564 2.4476
L30.9540 3.2943
" />
<path d="M30.9540 3.2943
L30.8330 3.5967
" />
<path d="M30.8330 3.5967
L30.7726 3.6571
" />
<path d="M30.7726 3.6571
L30.6516 3.7176
" />
<path d="M31.9216 3.2943
L31.8006 3.2338
" />
<path d="M31.8006 3.2338
L31.7402 3.1733
" />
<path d="M31.7402 3.1733
L31.6797 3.0524
" />
<path d="M31.6797 3.0524
L31.6797 2.6895
" />
<path d="M31.6797 2.6895
L31.7402 2.5686
" />
<path d="M31.7402 2.5686
L31.8006 2.5081
" />
<path d="M31.8006 2.5081
L31.9216 2.4476
" />
<path d="M31.9216 2.4476
L32.1030 2.4476
" />
<path d="M32.1030 2.4476
L32.2240 2.5081
" />
<path d="M32.2240 2.5081
L32.2845 2.5686
" />
<path d="M32.2845 2.5686
L32.3449 2.6895
" />
<path d="M32.3449 2.6895
L32.3449 3.0524
" />
<path d="M32.3449 3.0524
L32.2845 3.1733
" />
<path d="M32.2845 3.1733
L32.2240 3.2338
" />
<path d="M32.2240 3.2338
L32.1030 3.2943
" />
<path d="M32.1030 3.2943
L31.9216 3.2943
" />
<path d="M33.4335 2.4476
L33.4335 3.2943
" />
<path d="M32.8892 2.4476
L32.8892 3.1128
" />
<path d="M32.8892 3.1128
L32.9497 3.2338
" />
<path d="M32.9497 3.2338
L33.0707 3.2943
" />
<path d="M33.0707 3.2943
L33.2521 3.2943
" />
<path d="M33.2521 3.2943
L33.3730 3.2338
" />
<path d="M33.3730 3.2338
L33.4335 3.1733
" />
<path d="M33.8568 2.4476
L34.3406 2.4476
" />
<path d="M34.0383 2.0243
L34.0383 3.1128
" />
<path d="M34.0383 3.1128
L34.0987 3.2338
" />
<path d="M34.0987 3.2338
L34.2197 3.2943
" />
<path d="M34.2197 3.2943
L34.3406 3.2943
" />
<path d="M34.6430 2.0243
L35.4897 2.0243
" />
<path d="M35.4897 2.0243
L34.9454 3.2943
" />
<path d="M35.8526 3.2943
L36.5178 2.4476
" />
<path d="M35.8526 2.4476
L36.5178 3.2943
" />
<path d="M36.8806 2.0243
L37.7273 2.0243
" />
<path d="M37.7273 2.0243
L37.1830 3.2943
" />
<path d="M37.9087 3.4152
L38.8764 3.4152
" />
<path d="M39.1787 3.2943
L39.1787 2.0243
" />
<path d="M39.1787 2.0243
L39.6626 2.0243
" />
<path d="M39.6626 2.0243
L39.7835 2.0847
" />
<path d="M39.7835 2.0847
L39.8440 2.1452
" />
<path d="M39.8440 2.1452
L39.9045 2.2662
" />
<path d="M39.9045 2.2662
L39.9045 2.4476
" />
<path d="M39.9045 2.4476
L39.8440 2.5686
" />
<path d="M39.8440 2.5686
L39.7835 2.6290
" />
<path d="M39.7835 2.6290
L39.6626 2.6895
" />
<path d="M39.6626 2.6895
L39.1787 2.6895
" />
<path d="M40.6906 2.0243
L40.8116 2.0243
" />
<path d="M40.8116 2.0243
L40.9326 2.0847
" />
<path d="M40.9326 2.0847
L40.9930 2.1452
" />
<path d="M40.9930 2.1452
L41.0535 2.2662
" />
<path d="M41.0535 2.2662
L41.1140 2.5081
" />
<path d="M41.1140 2.5081
L41.1140 2.8105
" />
<path d="M41.1140 2.8105
L41.0535 3.0524
" />
<path d="M41.0535 3.0524
L40.9930 3.1733
" />
<path d="M40.9930 3.1733
L40.9326 3.2338
" />
<path d="M40.9326 3.2338
L40.8116 3.2943
" />
<path d="M40.8116 3.2943
L40.6906 3.2943
" />
<path d="M40.6906 3.2943
L40.5697 3.2338
" />
<path d="M40.5697 3.2338
L40.5092 3.1733
" />
<path d="M40.5092 3.1733
L40.4487 3.0524
" />
<path d="M40.4487 3.0524
L40.3883 2.8105
" />
<path d="M40.3883 2.8105
L40.3883 2.5081
" />
<path d="M40.3883 2.5081
L40.4487 2.2662
" />
<path d="M40.4487 2.2662
L40.5092 2.1452
" />
<path d="M40.5092 2.1452
L40.5697 2.0847
" />
<path d="M40.5697 2.0847
L40.6906 2.0243
" />
<path d="M41.6583 3.1733
L41.7187 3.2338
" />
<path d="M41.7187 3.2338
L41.6583 3.2943
" />
<path d="M41.6583 3.2943
L41.5978 3.2338
" />
<path d="M41.5978 3.2338
L41.6583 3.1733
" />
<path d="M41.6583 3.1733
L41.6583 3.2943
" />
<path d="M42.8073 2.4476
L42.8073 3.2943
" />
<path d="M42.5049 1.9638
L42.2026 2.8709
" />
<path d="M42.2026 2.8709
L42.9887 2.8709
" />
<path d="M43.4726 3.2943
L43.4726 2.4476
" />
<path d="M43.4726 2.5686
L43.5330 2.5081
" />
<path d="M43.5330 2.5081
L43.6540 2.4476
" />
<path d="M43.6540 2.4476
L43.8354 2.4476
" />
<path d="M43.8354 2.4476
L43.9564 2.5081
" />
<path d="M43.9564 2.5081
L44.0168 2.6290
" />
<path d="M44.0168 2.6290
L44.0168 3.2943
" />
<path d="M44.0168 2.6290
L44.0773 2.5081
" />
<path d="M44.0773 2.5081
L44.1983 2.4476
" />
<path d="M44.1983 2.4476
L44.3797 2.4476
" />
<path d="M44.3797 2.4476
L44.5007 2.5081
" />
<path d="M44.5007 2.5081
L44.5611 2.6290
" />
<path d="M44.5611 2.6290
L44.5611 3.2943
" />
<path d="M45.1659 3.2943
L45.1659 2.4476
" />
<path d="M45.1659 2.5686
L45.2264 2.5081
" />
<path d="M45.2264 2.5081
L45.3473 2.4476
" />
<path d="M45.3473 2.4476
L45.5287 2.4476
" />
<path d="M45.5287 2.4476
L45.6497 2.5081
" />
<path d="M45.6497 2.5081
L45.7102 2.6290
" />
<path d="M45.7102 2.6290
L45.7102 3.2943
" />
<path d="M45.7102 2.6290
L45.7706 2.5081
" />
<path d="M45.7706 2.5081
L45.8916 2.4476
" />
<path d="M45.8916 2.4476
L46.0730 2.4476
" />
<path d="M46.0730 2.4476
L46.1940 2.5081
" />
<path d="M46.1940 2.5081
L46.2545 2.6290
" />
<path d="M46.2545 2.6290
L46.2545 3.2943
" />
<path d="M46.5568 3.4152
L47.5245 3.4152
" />
<path d="M48.0687 2.0243
L48.3106 2.0243
" />
<path d="M48.3106 2.0243
L48.4316 2.0847
" />
<path d="M48.4316 2.0847
L48.5526 2.2057
" />
<path d="M48.5526 2.2057
L48.6130 2.4476
" />
<path d="M48.6130 2.4476
L48.6130 2.8709
" />
<path d="M48.6130 2.8709
L48.5526 3.1128
" />
<path d="M48.5526 3.1128
L48.4316 3.2338
" />
<path d="M48.4316 3.2338
L48.3106 3.2943
" />
<path d="M48.3106 3.2943
L48.0687 3.2943
" />
<path d="M48.0687 3.2943
L47.9478 3.2338
" />
<path d="M47.9478 3.2338
L47.8268 3.1128
" />
<path d="M47.8268 3.1128
L47.7664 2.8709
" />
<path d="M47.7664 2.8709
L47.7664 2.4476
" />
<path d="M47.7664 2.4476
L47.8268 2.2057
" />
<path d="M47.8268 2.2057
L47.9478 2.0847
" />
<path d="M47.9478 2.0847
L48.0687 2.0243
" />
<path d="M48.9759 2.4476
L49.4597 2.4476
" />
<path d="M49.1573 3.2943
L49.1573 2.2057
" />
<path d="M49.1573 2.2057
L49.2178 2.0847
" />
<path d="M49.2178 2.0847
L49.3387 2.0243
" />
<path d="M49.3387 2.0243
L49.4597 2.0243
" />
<path d="M49.7016 2.4476
L50.1854 2.4476
" />
<path d="M49.8830 3.2943
L49.8830 2.2057
" />
<path d="M49.8830 2.2057
L49.9435 2.0847
" />
<path d="M49.9435 2.0847
L50.0645 2.0243
" />
<path d="M50.0645 2.0243
L50.1854 2.0243
" />
<path d="M51.1530 3.2338
L51.0321 3.2943
" />
<path d="M51.0321 3.2943
L50.7902 3.2943
" />
<path d="M50.7902 3.2943
L50.6692 3.2338
" />
<path d="M50.6692 3.2338
L50.6087 3.1733
" />
<path d="M50.6087 3.1733
L50.5483 3.0524
" />
<path d="M50.5483 3.0524
L50.5483 2.6895
" />
<path d="M50.5483 2.6895
L50.6087 2.5686
" />
<path d="M50.6087 2.5686
L50.6692 2.5081
" />
<path d="M50.6692 2.5081
L50.7902 2.4476
" />
<path d="M50.7902 2.4476
L51.0321 2.4476
" />
<path d="M51.0321 2.4476
L51.1530 2.5081
" />
<path d="M52.1811 3.2338
L52.0602 3.2943
" />
<path d="M52.0602 3.2943
L51.8183 3.2943
" />
<path d="M51.8183 3.2943
L51.6973 3.2338
" />
<path d="M51.6973 3.2338
L51.6368 3.1128
" />
<path d="M51.6368 3.1128
L51.6368 2.6290
" />
<path d="M51.6368 2.6290
L51.6973 2.5081
" />
<path d="M51.6973 2.5081
L51.8183 2.4476
" />
<path d="M51.8183 2.4476
L52.0602 2.4476
" />
<path d="M52.0602 2.4476
L52.1811 2.5081
" />
<path d="M52.1811 2.5081
L52.2416 2.6290
" />
<path d="M52.2416 2.6290
L52.2416 2.7500
" />
<path d="M52.2416 2.7500
L51.6368 2.8709
" />
<path d="M52.7859 2.4476
L52.7859 3.2943
" />
<path d="M52.7859 2.5686
L52.8464 2.5081
" />
<path d="M52.8464 2.5081
L52.9673 2.4476
" />
<path d="M52.9673 2.4476
L53.1487 2.4476
" />
<path d="M53.1487 2.4476
L53.2697 2.5081
" />
<path d="M53.2697 2.5081
L53.3302 2.6290
" />
<path d="M53.3302 2.6290
L53.3302 3.2943
" />
<path d="M53.7535 2.4476
L54.2373 2.4476
" />
<path d="M53.9349 2.0243
L53.9349 3.1128
" />
<path d="M53.9349 3.1128
L53.9954 3.2338
" />
<path d="M53.9954 3.2338
L54.1164 3.2943
" />
<path d="M54.1164 3.2943
L54.2373 3.2943
" />
<path d="M55.1445 3.2338
L55.0235 3.2943
" />
<path d="M55.0235 3.2943
L54.7816 3.2943
" />
<path d="M54.7816 3.2943
L54.6606 3.2338
" />
<path d="M54.6606 3.2338
L54.6002 3.1128
" />
<path d="M54.6002 3.1128
L54.6002 2.6290
" />
<path d="M54.6002 2.6290
L54.6606 2.5081
" />
<path d="M54.6606 2.5081
L54.7816 2.4476
" />
<path d="M54.7816 2.4476
L55.0235 2.4476
" />
<path d="M55.0235 2.4476
L55.1445 2.5081
" />
<path d="M55.1445 2.5081
L55.2049 2.6290
" />
<path d="M55.2049 2.6290
L55.2049 2.7500
" />
<path d="M55.2049 2.7500
L54.6002 2.8709
" />
<path d="M55.7492 3.2943
L55.7492 2.4476
" />
<path d="M55.7492 2.6895
L55.8097 2.5686
" />
<path d="M55.8097 2.5686
L55.8702 2.5081
" />
<path d="M55.8702 2.5081
L55.9911 2.4476
" />
<path d="M55.9911 2.4476
L56.1121 2.4476
" />
</g></g>
<g style="fill:none; 
stroke:#AFAFAF; stroke-width:0.1185; stroke-opacity:1; 
stroke-linecap:round; stroke-linejoin:round;">
<g transform="rotate(-90.000000 28.1721 2.7150)">
<text x="28.1721" y="3.1100"
textLength="3.5832" font-size="1.0533" lengthAdjust="spacingAndGlyphs"
text-anchor="middle" opacity="0">REF**</text>
</g>
<g class="stroked-text"><desc>REF**</desc>
<path d="M28.5314 3.7683
L28.1552 4.0317
" />
<path d="M28.5314 4.2198
L27.7414 4.2198
" />
<path d="M27.7414 4.2198
L27.7414 3.9188
" />
<path d="M27.7414 3.9188
L27.7790 3.8436
" />
<path d="M27.7790 3.8436
L27.8166 3.8060
" />
<path d="M27.8166 3.8060
L27.8919 3.7683
" />
<path d="M27.8919 3.7683
L28.0047 3.7683
" />
<path d="M28.0047 3.7683
L28.0800 3.8060
" />
<path d="M28.0800 3.8060
L28.1176 3.8436
" />
<path d="M28.1176 3.8436
L28.1552 3.9188
" />
<path d="M28.1552 3.9188
L28.1552 4.2198
" />
<path d="M28.1176 3.4298
L28.1176 3.1664
" />
<path d="M28.5314 3.0536
L28.5314 3.4298
" />
<path d="M28.5314 3.4298
L27.7414 3.4298
" />
<path d="M27.7414 3.4298
L27.7414 3.0536
" />
<path d="M28.1176 2.4517
L28.1176 2.7150
" />
<path d="M28.5314 2.7150
L27.7414 2.7150
" />
<path d="M27.7414 2.7150
L27.7414 2.3388
" />
<path d="M27.7414 1.9250
L27.9295 1.9250
" />
<path d="M27.8542 2.1131
L27.9295 1.9250
" />
<path d="M27.9295 1.9250
L27.8542 1.7369
" />
<path d="M28.0800 2.0379
L27.9295 1.9250
" />
<path d="M27.9295 1.9250
L28.0800 1.8121
" />
<path d="M27.7414 1.3231
L27.9295 1.3231
" />
<path d="M27.8542 1.5112
L27.9295 1.3231
" />
<path d="M27.9295 1.3231
L27.8542 1.1350
" />
<path d="M28.0800 1.4360
L27.9295 1.3231
" />
<path d="M27.9295 1.3231
L28.0800 1.2102
" />
</g></g>
<g style="fill:none; 
stroke:#AFAFAF; stroke-width:0.1000; stroke-opacity:1; 
stroke-linecap:round; stroke-linejoin:round;">
<path d="M26.5221 1.8500
L27.3471 1.0250
" />
<path d="M26.5221 4.4050
L26.5221 1.8500
" />
<path d="M27.3471 1.0250
L29.8221 1.0250
" />
<path d="M29.8221 1.0250
L29.8221 4.4050
" />
<path d="M29.8221 4.4050
L26.5221 4.4050
" />
</g> 
</svg>
