<?xml version="1.0" standalone="no"?>
 <!DOCTYPE svg PUBLIC "-//W3C//DTD SVG 1.1//EN" 
 "http://www.w3.org/Graphics/SVG/1.1/DTD/svg11.dtd"> 
<svg
  xmlns:svg="http://www.w3.org/2000/svg"
  xmlns="http://www.w3.org/2000/svg"
  xmlns:xlink="http://www.w3.org/1999/xlink"
  version="1.1"
  width="36.5506mm" height="21.4376mm" viewBox="0.0000 0.0000 36.5506 21.4376">
<title>SVG Image created as working-brd.svg date 2024/04/22 08:26:50 </title>
  <desc>Image generated by PCBNEW </desc>
<g style="fill:#000000; fill-opacity:1.0000;stroke:#000000; stroke-opacity:1.0000;
stroke-linecap:round; stroke-linejoin:round;"
 transform="translate(0 0) scale(1 1)">
</g>
<g style="fill:#FFFFFF; fill-opacity:1.0000; stroke:none;">
<circle cx="18.9842" cy="10.6250" r="2.7500" /> 
</g>
<g style="fill:#02FFEE; fill-opacity:0.4000; stroke:none;">
<circle cx="18.9842" cy="10.6250" r="2.7500" /> 
</g>
<g style="fill:#FFFFFF; fill-opacity:1.0000; stroke:none;">
<circle cx="18.9842" cy="10.6250" r="2.7500" /> 
<path style="fill:#C83434; fill-opacity:1.0000; stroke:none;fill-rule:evenodd;"
d="M 29.2842,11.3750
22.2842,11.3750
22.2842,9.8750
29.2842,9.8750
Z" /> 
<path style="fill:#C83434; fill-opacity:1.0000; stroke:none;fill-rule:evenodd;"
d="M 19.7342,7.3250
18.2342,7.3250
18.2342,0.3250
19.7342,0.3250
Z" /> 
<path style="fill:#C83434; fill-opacity:1.0000; stroke:none;fill-rule:evenodd;"
d="M 15.7842,11.3750
5.7842,11.3750
5.7842,9.8750
15.7842,9.8750
Z" /> 
<path style="fill:#C83434; fill-opacity:1.0000; stroke:none;fill-rule:evenodd;"
d="M 19.7342,20.9250
18.2342,20.9250
18.2342,13.9250
19.7342,13.9250
Z" /> 
</g>
<g style="fill:#FFFFFF; fill-opacity:1.0000; stroke:none;">
<circle cx="18.9842" cy="10.6250" r="2.7500" /> 
</g>
<g style="fill:#D864FF; fill-opacity:0.4000; stroke:none;">
<circle cx="18.9842" cy="10.6250" r="2.7500" /> 
<path style="fill:#D864FF; fill-opacity:0.4000; stroke:none;fill-rule:evenodd;"
d="M 29.2842,11.3750
22.2842,11.3750
22.2842,9.8750
29.2842,9.8750
Z" /> 
<path style="fill:#D864FF; fill-opacity:0.4000; stroke:none;fill-rule:evenodd;"
d="M 19.7342,7.3250
18.2342,7.3250
18.2342,0.3250
19.7342,0.3250
Z" /> 
<path style="fill:#D864FF; fill-opacity:0.4000; stroke:none;fill-rule:evenodd;"
d="M 15.7842,11.3750
5.7842,11.3750
5.7842,9.8750
15.7842,9.8750
Z" /> 
<path style="fill:#D864FF; fill-opacity:0.4000; stroke:none;fill-rule:evenodd;"
d="M 19.7342,20.9250
18.2342,20.9250
18.2342,13.9250
19.7342,13.9250
Z" /> 
<path style="fill:#B4A09A; fill-opacity:0.9000; stroke:none;fill-rule:evenodd;"
d="M 29.2842,11.3750
22.2842,11.3750
22.2842,9.8750
29.2842,9.8750
Z" /> 
<path style="fill:#B4A09A; fill-opacity:0.9000; stroke:none;fill-rule:evenodd;"
d="M 19.7342,7.3250
18.2342,7.3250
18.2342,0.3250
19.7342,0.3250
Z" /> 
<path style="fill:#B4A09A; fill-opacity:0.9000; stroke:none;fill-rule:evenodd;"
d="M 15.7842,11.3750
5.7842,11.3750
5.7842,9.8750
15.7842,9.8750
Z" /> 
<path style="fill:#B4A09A; fill-opacity:0.9000; stroke:none;fill-rule:evenodd;"
d="M 19.7342,20.9250
18.2342,20.9250
18.2342,13.9250
19.7342,13.9250
Z" /> 
</g>
<g style="fill:none; 
stroke:#F2EDA1; stroke-width:0.1588; stroke-opacity:1; 
stroke-linecap:round; stroke-linejoin:round;">
<text x="18.2842" y="11.2600"
textLength="5.6651" font-size="1.6933" lengthAdjust="spacingAndGlyphs"
text-anchor="middle" opacity="0">REF**</text>
<g class="stroked-text"><desc>REF**</desc>
<path d="M16.5909 11.2043
L16.1676 10.5995
" />
<path d="M15.8652 11.2043
L15.8652 9.9343
" />
<path d="M15.8652 9.9343
L16.3490 9.9343
" />
<path d="M16.3490 9.9343
L16.4699 9.9947
" />
<path d="M16.4699 9.9947
L16.5304 10.0552
" />
<path d="M16.5304 10.0552
L16.5909 10.1762
" />
<path d="M16.5909 10.1762
L16.5909 10.3576
" />
<path d="M16.5909 10.3576
L16.5304 10.4786
" />
<path d="M16.5304 10.4786
L16.4699 10.5390
" />
<path d="M16.4699 10.5390
L16.3490 10.5995
" />
<path d="M16.3490 10.5995
L15.8652 10.5995
" />
<path d="M17.1352 10.5390
L17.5585 10.5390
" />
<path d="M17.7399 11.2043
L17.1352 11.2043
" />
<path d="M17.1352 11.2043
L17.1352 9.9343
" />
<path d="M17.1352 9.9343
L17.7399 9.9343
" />
<path d="M18.7076 10.5390
L18.2842 10.5390
" />
<path d="M18.2842 11.2043
L18.2842 9.9343
" />
<path d="M18.2842 9.9343
L18.8890 9.9343
" />
<path d="M19.5542 9.9343
L19.5542 10.2367
" />
<path d="M19.2518 10.1157
L19.5542 10.2367
" />
<path d="M19.5542 10.2367
L19.8566 10.1157
" />
<path d="M19.3728 10.4786
L19.5542 10.2367
" />
<path d="M19.5542 10.2367
L19.7357 10.4786
" />
<path d="M20.5218 9.9343
L20.5218 10.2367
" />
<path d="M20.2195 10.1157
L20.5218 10.2367
" />
<path d="M20.5218 10.2367
L20.8242 10.1157
" />
<path d="M20.3404 10.4786
L20.5218 10.2367
" />
<path d="M20.5218 10.2367
L20.7033 10.4786
" />
</g><path style="fill:#F2EDA1; fill-opacity:1.0000; 
stroke:#F2EDA1; stroke-width:0.1200; stroke-opacity:1; 
stroke-linecap:round; stroke-linejoin:round;fill-rule:evenodd;"
d="M 25.2942,9.4150
25.0542,9.0850
25.5342,9.0850
Z" /> 
</g>
<g style="fill:#FFFFFF; fill-opacity:1.0000; stroke:none;">
<circle cx="18.9842" cy="10.6250" r="2.7500" /> 
</g>
<g style="fill:none; 
stroke:#FF26E2; stroke-width:0.0500; stroke-opacity:1; 
stroke-linecap:round; stroke-linejoin:round;">
<path d="M5.1842 9.4250
L15.7842 9.4250
" />
<path d="M5.1842 11.8250
L5.1842 9.4250
" />
<path d="M15.7842 9.4250
L17.7842 7.4250
" />
<path d="M15.7842 11.8250
L5.1842 11.8250
" />
<path d="M17.7842 0.0250
L20.1842 0.0250
" />
<path d="M17.7842 7.4250
L17.7842 0.0250
" />
<path d="M17.7842 13.8250
L15.7842 11.8250
" />
<path d="M17.7842 21.4250
L17.7842 13.8250
" />
<path d="M20.1842 0.0250
L20.1842 7.4250
" />
<path d="M20.1842 7.4250
L22.1842 9.4250
" />
<path d="M20.1842 13.8250
L20.1842 21.4250
" />
<path d="M20.1842 21.4250
L17.7842 21.4250
" />
<path d="M22.1842 9.4250
L29.5842 9.4250
" />
<path d="M22.1842 11.8250
L20.1842 13.8250
" />
<path d="M29.5842 9.4250
L29.5842 11.8250
" />
<path d="M29.5842 11.8250
L22.1842 11.8250
" />
</g>
<g style="fill:none; 
stroke:#AFAFAF; stroke-width:0.1588; stroke-opacity:1; 
stroke-linecap:round; stroke-linejoin:round;">
<text x="18.2842" y="11.2600"
textLength="36.5684" font-size="1.6933" lengthAdjust="spacingAndGlyphs"
text-anchor="middle" opacity="0">TO-50-4_LongPad-WithHole_Housing</text>
<g class="stroked-text"><desc>TO-50-4_LongPad-WithHole_Housing</desc>
<path d="M0.2321 9.9343
L0.9578 9.9343
" />
<path d="M0.5949 11.2043
L0.5949 9.9343
" />
<path d="M1.6230 9.9343
L1.8649 9.9343
" />
<path d="M1.8649 9.9343
L1.9859 9.9947
" />
<path d="M1.9859 9.9947
L2.1068 10.1157
" />
<path d="M2.1068 10.1157
L2.1673 10.3576
" />
<path d="M2.1673 10.3576
L2.1673 10.7809
" />
<path d="M2.1673 10.7809
L2.1068 11.0228
" />
<path d="M2.1068 11.0228
L1.9859 11.1438
" />
<path d="M1.9859 11.1438
L1.8649 11.2043
" />
<path d="M1.8649 11.2043
L1.6230 11.2043
" />
<path d="M1.6230 11.2043
L1.5021 11.1438
" />
<path d="M1.5021 11.1438
L1.3811 11.0228
" />
<path d="M1.3811 11.0228
L1.3206 10.7809
" />
<path d="M1.3206 10.7809
L1.3206 10.3576
" />
<path d="M1.3206 10.3576
L1.3811 10.1157
" />
<path d="M1.3811 10.1157
L1.5021 9.9947
" />
<path d="M1.5021 9.9947
L1.6230 9.9343
" />
<path d="M2.7116 10.7205
L3.6792 10.7205
" />
<path d="M4.8887 9.9343
L4.2840 9.9343
" />
<path d="M4.2840 9.9343
L4.2235 10.5390
" />
<path d="M4.2235 10.5390
L4.2840 10.4786
" />
<path d="M4.2840 10.4786
L4.4049 10.4181
" />
<path d="M4.4049 10.4181
L4.7073 10.4181
" />
<path d="M4.7073 10.4181
L4.8283 10.4786
" />
<path d="M4.8283 10.4786
L4.8887 10.5390
" />
<path d="M4.8887 10.5390
L4.9492 10.6600
" />
<path d="M4.9492 10.6600
L4.9492 10.9624
" />
<path d="M4.9492 10.9624
L4.8887 11.0833
" />
<path d="M4.8887 11.0833
L4.8283 11.1438
" />
<path d="M4.8283 11.1438
L4.7073 11.2043
" />
<path d="M4.7073 11.2043
L4.4049 11.2043
" />
<path d="M4.4049 11.2043
L4.2840 11.1438
" />
<path d="M4.2840 11.1438
L4.2235 11.0833
" />
<path d="M5.7354 9.9343
L5.8564 9.9343
" />
<path d="M5.8564 9.9343
L5.9773 9.9947
" />
<path d="M5.9773 9.9947
L6.0378 10.0552
" />
<path d="M6.0378 10.0552
L6.0983 10.1762
" />
<path d="M6.0983 10.1762
L6.1587 10.4181
" />
<path d="M6.1587 10.4181
L6.1587 10.7205
" />
<path d="M6.1587 10.7205
L6.0983 10.9624
" />
<path d="M6.0983 10.9624
L6.0378 11.0833
" />
<path d="M6.0378 11.0833
L5.9773 11.1438
" />
<path d="M5.9773 11.1438
L5.8564 11.2043
" />
<path d="M5.8564 11.2043
L5.7354 11.2043
" />
<path d="M5.7354 11.2043
L5.6145 11.1438
" />
<path d="M5.6145 11.1438
L5.5540 11.0833
" />
<path d="M5.5540 11.0833
L5.4935 10.9624
" />
<path d="M5.4935 10.9624
L5.4330 10.7205
" />
<path d="M5.4330 10.7205
L5.4330 10.4181
" />
<path d="M5.4330 10.4181
L5.4935 10.1762
" />
<path d="M5.4935 10.1762
L5.5540 10.0552
" />
<path d="M5.5540 10.0552
L5.6145 9.9947
" />
<path d="M5.6145 9.9947
L5.7354 9.9343
" />
<path d="M6.7030 10.7205
L7.6706 10.7205
" />
<path d="M8.8197 10.3576
L8.8197 11.2043
" />
<path d="M8.5173 9.8738
L8.2149 10.7809
" />
<path d="M8.2149 10.7809
L9.0011 10.7809
" />
<path d="M9.1826 11.3252
L10.1502 11.3252
" />
<path d="M11.0573 11.2043
L10.4526 11.2043
" />
<path d="M10.4526 11.2043
L10.4526 9.9343
" />
<path d="M11.6621 11.2043
L11.5411 11.1438
" />
<path d="M11.5411 11.1438
L11.4806 11.0833
" />
<path d="M11.4806 11.0833
L11.4202 10.9624
" />
<path d="M11.4202 10.9624
L11.4202 10.5995
" />
<path d="M11.4202 10.5995
L11.4806 10.4786
" />
<path d="M11.4806 10.4786
L11.5411 10.4181
" />
<path d="M11.5411 10.4181
L11.6621 10.3576
" />
<path d="M11.6621 10.3576
L11.8435 10.3576
" />
<path d="M11.8435 10.3576
L11.9645 10.4181
" />
<path d="M11.9645 10.4181
L12.0249 10.4786
" />
<path d="M12.0249 10.4786
L12.0854 10.5995
" />
<path d="M12.0854 10.5995
L12.0854 10.9624
" />
<path d="M12.0854 10.9624
L12.0249 11.0833
" />
<path d="M12.0249 11.0833
L11.9645 11.1438
" />
<path d="M11.9645 11.1438
L11.8435 11.2043
" />
<path d="M11.8435 11.2043
L11.6621 11.2043
" />
<path d="M12.6297 10.3576
L12.6297 11.2043
" />
<path d="M12.6297 10.4786
L12.6902 10.4181
" />
<path d="M12.6902 10.4181
L12.8111 10.3576
" />
<path d="M12.8111 10.3576
L12.9926 10.3576
" />
<path d="M12.9926 10.3576
L13.1135 10.4181
" />
<path d="M13.1135 10.4181
L13.1740 10.5390
" />
<path d="M13.1740 10.5390
L13.1740 11.2043
" />
<path d="M14.3230 10.3576
L14.3230 11.3857
" />
<path d="M14.3230 11.3857
L14.2626 11.5067
" />
<path d="M14.2626 11.5067
L14.2021 11.5671
" />
<path d="M14.2021 11.5671
L14.0811 11.6276
" />
<path d="M14.0811 11.6276
L13.8997 11.6276
" />
<path d="M13.8997 11.6276
L13.7787 11.5671
" />
<path d="M14.3230 11.1438
L14.2021 11.2043
" />
<path d="M14.2021 11.2043
L13.9602 11.2043
" />
<path d="M13.9602 11.2043
L13.8392 11.1438
" />
<path d="M13.8392 11.1438
L13.7787 11.0833
" />
<path d="M13.7787 11.0833
L13.7183 10.9624
" />
<path d="M13.7183 10.9624
L13.7183 10.5995
" />
<path d="M13.7183 10.5995
L13.7787 10.4786
" />
<path d="M13.7787 10.4786
L13.8392 10.4181
" />
<path d="M13.8392 10.4181
L13.9602 10.3576
" />
<path d="M13.9602 10.3576
L14.2021 10.3576
" />
<path d="M14.2021 10.3576
L14.3230 10.4181
" />
<path d="M14.9278 11.2043
L14.9278 9.9343
" />
<path d="M14.9278 9.9343
L15.4116 9.9343
" />
<path d="M15.4116 9.9343
L15.5326 9.9947
" />
<path d="M15.5326 9.9947
L15.5930 10.0552
" />
<path d="M15.5930 10.0552
L15.6535 10.1762
" />
<path d="M15.6535 10.1762
L15.6535 10.3576
" />
<path d="M15.6535 10.3576
L15.5930 10.4786
" />
<path d="M15.5930 10.4786
L15.5326 10.5390
" />
<path d="M15.5326 10.5390
L15.4116 10.5995
" />
<path d="M15.4116 10.5995
L14.9278 10.5995
" />
<path d="M16.7421 11.2043
L16.7421 10.5390
" />
<path d="M16.7421 10.5390
L16.6816 10.4181
" />
<path d="M16.6816 10.4181
L16.5607 10.3576
" />
<path d="M16.5607 10.3576
L16.3187 10.3576
" />
<path d="M16.3187 10.3576
L16.1978 10.4181
" />
<path d="M16.7421 11.1438
L16.6211 11.2043
" />
<path d="M16.6211 11.2043
L16.3187 11.2043
" />
<path d="M16.3187 11.2043
L16.1978 11.1438
" />
<path d="M16.1978 11.1438
L16.1373 11.0228
" />
<path d="M16.1373 11.0228
L16.1373 10.9019
" />
<path d="M16.1373 10.9019
L16.1978 10.7809
" />
<path d="M16.1978 10.7809
L16.3187 10.7205
" />
<path d="M16.3187 10.7205
L16.6211 10.7205
" />
<path d="M16.6211 10.7205
L16.7421 10.6600
" />
<path d="M17.8911 11.2043
L17.8911 9.9343
" />
<path d="M17.8911 11.1438
L17.7702 11.2043
" />
<path d="M17.7702 11.2043
L17.5283 11.2043
" />
<path d="M17.5283 11.2043
L17.4073 11.1438
" />
<path d="M17.4073 11.1438
L17.3468 11.0833
" />
<path d="M17.3468 11.0833
L17.2864 10.9624
" />
<path d="M17.2864 10.9624
L17.2864 10.5995
" />
<path d="M17.2864 10.5995
L17.3468 10.4786
" />
<path d="M17.3468 10.4786
L17.4073 10.4181
" />
<path d="M17.4073 10.4181
L17.5283 10.3576
" />
<path d="M17.5283 10.3576
L17.7702 10.3576
" />
<path d="M17.7702 10.3576
L17.8911 10.4181
" />
<path d="M18.4959 10.7205
L19.4635 10.7205
" />
<path d="M19.9473 9.9343
L20.2497 11.2043
" />
<path d="M20.2497 11.2043
L20.4916 10.2971
" />
<path d="M20.4916 10.2971
L20.7335 11.2043
" />
<path d="M20.7335 11.2043
L21.0359 9.9343
" />
<path d="M21.5197 11.2043
L21.5197 10.3576
" />
<path d="M21.5197 9.9343
L21.4592 9.9947
" />
<path d="M21.4592 9.9947
L21.5197 10.0552
" />
<path d="M21.5197 10.0552
L21.5802 9.9947
" />
<path d="M21.5802 9.9947
L21.5197 9.9343
" />
<path d="M21.5197 9.9343
L21.5197 10.0552
" />
<path d="M21.9430 10.3576
L22.4268 10.3576
" />
<path d="M22.1245 9.9343
L22.1245 11.0228
" />
<path d="M22.1245 11.0228
L22.1849 11.1438
" />
<path d="M22.1849 11.1438
L22.3059 11.2043
" />
<path d="M22.3059 11.2043
L22.4268 11.2043
" />
<path d="M22.8502 11.2043
L22.8502 9.9343
" />
<path d="M23.3945 11.2043
L23.3945 10.5390
" />
<path d="M23.3945 10.5390
L23.3340 10.4181
" />
<path d="M23.3340 10.4181
L23.2130 10.3576
" />
<path d="M23.2130 10.3576
L23.0316 10.3576
" />
<path d="M23.0316 10.3576
L22.9107 10.4181
" />
<path d="M22.9107 10.4181
L22.8502 10.4786
" />
<path d="M23.9992 11.2043
L23.9992 9.9343
" />
<path d="M23.9992 10.5390
L24.7249 10.5390
" />
<path d="M24.7249 11.2043
L24.7249 9.9343
" />
<path d="M25.5111 11.2043
L25.3902 11.1438
" />
<path d="M25.3902 11.1438
L25.3297 11.0833
" />
<path d="M25.3297 11.0833
L25.2692 10.9624
" />
<path d="M25.2692 10.9624
L25.2692 10.5995
" />
<path d="M25.2692 10.5995
L25.3297 10.4786
" />
<path d="M25.3297 10.4786
L25.3902 10.4181
" />
<path d="M25.3902 10.4181
L25.5111 10.3576
" />
<path d="M25.5111 10.3576
L25.6926 10.3576
" />
<path d="M25.6926 10.3576
L25.8135 10.4181
" />
<path d="M25.8135 10.4181
L25.8740 10.4786
" />
<path d="M25.8740 10.4786
L25.9345 10.5995
" />
<path d="M25.9345 10.5995
L25.9345 10.9624
" />
<path d="M25.9345 10.9624
L25.8740 11.0833
" />
<path d="M25.8740 11.0833
L25.8135 11.1438
" />
<path d="M25.8135 11.1438
L25.6926 11.2043
" />
<path d="M25.6926 11.2043
L25.5111 11.2043
" />
<path d="M26.6602 11.2043
L26.5392 11.1438
" />
<path d="M26.5392 11.1438
L26.4787 11.0228
" />
<path d="M26.4787 11.0228
L26.4787 9.9343
" />
<path d="M27.6278 11.1438
L27.5068 11.2043
" />
<path d="M27.5068 11.2043
L27.2649 11.2043
" />
<path d="M27.2649 11.2043
L27.1440 11.1438
" />
<path d="M27.1440 11.1438
L27.0835 11.0228
" />
<path d="M27.0835 11.0228
L27.0835 10.5390
" />
<path d="M27.0835 10.5390
L27.1440 10.4181
" />
<path d="M27.1440 10.4181
L27.2649 10.3576
" />
<path d="M27.2649 10.3576
L27.5068 10.3576
" />
<path d="M27.5068 10.3576
L27.6278 10.4181
" />
<path d="M27.6278 10.4181
L27.6883 10.5390
" />
<path d="M27.6883 10.5390
L27.6883 10.6600
" />
<path d="M27.6883 10.6600
L27.0835 10.7809
" />
<path d="M27.9302 11.3252
L28.8978 11.3252
" />
<path d="M29.2002 11.2043
L29.2002 9.9343
" />
<path d="M29.2002 10.5390
L29.9259 10.5390
" />
<path d="M29.9259 11.2043
L29.9259 9.9343
" />
<path d="M30.7121 11.2043
L30.5911 11.1438
" />
<path d="M30.5911 11.1438
L30.5306 11.0833
" />
<path d="M30.5306 11.0833
L30.4702 10.9624
" />
<path d="M30.4702 10.9624
L30.4702 10.5995
" />
<path d="M30.4702 10.5995
L30.5306 10.4786
" />
<path d="M30.5306 10.4786
L30.5911 10.4181
" />
<path d="M30.5911 10.4181
L30.7121 10.3576
" />
<path d="M30.7121 10.3576
L30.8935 10.3576
" />
<path d="M30.8935 10.3576
L31.0145 10.4181
" />
<path d="M31.0145 10.4181
L31.0749 10.4786
" />
<path d="M31.0749 10.4786
L31.1354 10.5995
" />
<path d="M31.1354 10.5995
L31.1354 10.9624
" />
<path d="M31.1354 10.9624
L31.0749 11.0833
" />
<path d="M31.0749 11.0833
L31.0145 11.1438
" />
<path d="M31.0145 11.1438
L30.8935 11.2043
" />
<path d="M30.8935 11.2043
L30.7121 11.2043
" />
<path d="M32.2240 10.3576
L32.2240 11.2043
" />
<path d="M31.6797 10.3576
L31.6797 11.0228
" />
<path d="M31.6797 11.0228
L31.7402 11.1438
" />
<path d="M31.7402 11.1438
L31.8611 11.2043
" />
<path d="M31.8611 11.2043
L32.0426 11.2043
" />
<path d="M32.0426 11.2043
L32.1635 11.1438
" />
<path d="M32.1635 11.1438
L32.2240 11.0833
" />
<path d="M32.7683 11.1438
L32.8892 11.2043
" />
<path d="M32.8892 11.2043
L33.1311 11.2043
" />
<path d="M33.1311 11.2043
L33.2521 11.1438
" />
<path d="M33.2521 11.1438
L33.3126 11.0228
" />
<path d="M33.3126 11.0228
L33.3126 10.9624
" />
<path d="M33.3126 10.9624
L33.2521 10.8414
" />
<path d="M33.2521 10.8414
L33.1311 10.7809
" />
<path d="M33.1311 10.7809
L32.9497 10.7809
" />
<path d="M32.9497 10.7809
L32.8287 10.7205
" />
<path d="M32.8287 10.7205
L32.7683 10.5995
" />
<path d="M32.7683 10.5995
L32.7683 10.5390
" />
<path d="M32.7683 10.5390
L32.8287 10.4181
" />
<path d="M32.8287 10.4181
L32.9497 10.3576
" />
<path d="M32.9497 10.3576
L33.1311 10.3576
" />
<path d="M33.1311 10.3576
L33.2521 10.4181
" />
<path d="M33.8568 11.2043
L33.8568 10.3576
" />
<path d="M33.8568 9.9343
L33.7964 9.9947
" />
<path d="M33.7964 9.9947
L33.8568 10.0552
" />
<path d="M33.8568 10.0552
L33.9173 9.9947
" />
<path d="M33.9173 9.9947
L33.8568 9.9343
" />
<path d="M33.8568 9.9343
L33.8568 10.0552
" />
<path d="M34.4616 10.3576
L34.4616 11.2043
" />
<path d="M34.4616 10.4786
L34.5221 10.4181
" />
<path d="M34.5221 10.4181
L34.6430 10.3576
" />
<path d="M34.6430 10.3576
L34.8245 10.3576
" />
<path d="M34.8245 10.3576
L34.9454 10.4181
" />
<path d="M34.9454 10.4181
L35.0059 10.5390
" />
<path d="M35.0059 10.5390
L35.0059 11.2043
" />
<path d="M36.1549 10.3576
L36.1549 11.3857
" />
<path d="M36.1549 11.3857
L36.0945 11.5067
" />
<path d="M36.0945 11.5067
L36.0340 11.5671
" />
<path d="M36.0340 11.5671
L35.9130 11.6276
" />
<path d="M35.9130 11.6276
L35.7316 11.6276
" />
<path d="M35.7316 11.6276
L35.6107 11.5671
" />
<path d="M36.1549 11.1438
L36.0340 11.2043
" />
<path d="M36.0340 11.2043
L35.7921 11.2043
" />
<path d="M35.7921 11.2043
L35.6711 11.1438
" />
<path d="M35.6711 11.1438
L35.6107 11.0833
" />
<path d="M35.6107 11.0833
L35.5502 10.9624
" />
<path d="M35.5502 10.9624
L35.5502 10.5995
" />
<path d="M35.5502 10.5995
L35.6107 10.4786
" />
<path d="M35.6107 10.4786
L35.6711 10.4181
" />
<path d="M35.6711 10.4181
L35.7921 10.3576
" />
<path d="M35.7921 10.3576
L36.0340 10.3576
" />
<path d="M36.0340 10.3576
L36.1549 10.4181
" />
</g></g>
<g style="fill:none; 
stroke:#AFAFAF; stroke-width:0.1500; stroke-opacity:1; 
stroke-linecap:round; stroke-linejoin:round;">
<text x="17.5342" y="11.1250"
textLength="4.5357" font-size="1.3333" lengthAdjust="spacingAndGlyphs"
text-anchor="middle" opacity="0">REF**</text>
<g class="stroked-text"><desc>REF**</desc>
<path d="M16.2009 11.0798
L15.8676 10.6036
" />
<path d="M15.6295 11.0798
L15.6295 10.0798
" />
<path d="M15.6295 10.0798
L16.0104 10.0798
" />
<path d="M16.0104 10.0798
L16.1057 10.1274
" />
<path d="M16.1057 10.1274
L16.1533 10.1751
" />
<path d="M16.1533 10.1751
L16.2009 10.2703
" />
<path d="M16.2009 10.2703
L16.2009 10.4132
" />
<path d="M16.2009 10.4132
L16.1533 10.5084
" />
<path d="M16.1533 10.5084
L16.1057 10.5560
" />
<path d="M16.1057 10.5560
L16.0104 10.6036
" />
<path d="M16.0104 10.6036
L15.6295 10.6036
" />
<path d="M16.6295 10.5560
L16.9628 10.5560
" />
<path d="M17.1057 11.0798
L16.6295 11.0798
" />
<path d="M16.6295 11.0798
L16.6295 10.0798
" />
<path d="M16.6295 10.0798
L17.1057 10.0798
" />
<path d="M17.8676 10.5560
L17.5342 10.5560
" />
<path d="M17.5342 11.0798
L17.5342 10.0798
" />
<path d="M17.5342 10.0798
L18.0104 10.0798
" />
<path d="M18.5342 10.0798
L18.5342 10.3179
" />
<path d="M18.2961 10.2227
L18.5342 10.3179
" />
<path d="M18.5342 10.3179
L18.7723 10.2227
" />
<path d="M18.3914 10.5084
L18.5342 10.3179
" />
<path d="M18.5342 10.3179
L18.6771 10.5084
" />
<path d="M19.2961 10.0798
L19.2961 10.3179
" />
<path d="M19.0580 10.2227
L19.2961 10.3179
" />
<path d="M19.2961 10.3179
L19.5342 10.2227
" />
<path d="M19.1533 10.5084
L19.2961 10.3179
" />
<path d="M19.2961 10.3179
L19.4390 10.5084
" />
</g></g>
<g style="fill:none; 
stroke:#AFAFAF; stroke-width:0.1000; stroke-opacity:1; 
stroke-linecap:round; stroke-linejoin:round;">
<circle cx="18.9842" cy="10.6250" r="2.5505" /> 
</g> 
</svg>
