<?xml version="1.0" standalone="no"?>
 <!DOCTYPE svg PUBLIC "-//W3C//DTD SVG 1.1//EN" 
 "http://www.w3.org/Graphics/SVG/1.1/DTD/svg11.dtd"> 
<svg
  xmlns:svg="http://www.w3.org/2000/svg"
  xmlns="http://www.w3.org/2000/svg"
  xmlns:xlink="http://www.w3.org/1999/xlink"
  version="1.1"
  width="38.3794mm" height="84.9376mm" viewBox="0.0000 0.0000 38.3794 84.9376">
<title>SVG Image created as working-brd.svg date 2024/04/16 06:09:10 </title>
  <desc>Image generated by PCBNEW </desc>
<g style="fill:#000000; fill-opacity:1.0000;stroke:#000000; stroke-opacity:1.0000;
stroke-linecap:round; stroke-linejoin:round;"
 transform="translate(0 0) scale(1 1)">
<path style="fill:#C83434; fill-opacity:1.0000; stroke:none;fill-rule:evenodd;"
d="M 15.0914,2.3350
15.0914,1.3350
18.2414,1.3350
18.2414,2.3350
Z" /> 
<path style="fill:#C83434; fill-opacity:1.0000; stroke:none;fill-rule:evenodd;"
d="M 20.1414,2.3350
20.1414,1.3350
23.2914,1.3350
23.2914,2.3350
Z" /> 
<path style="fill:#C83434; fill-opacity:1.0000; stroke:none;fill-rule:evenodd;"
d="M 15.0914,4.8750
15.0914,3.8750
18.2414,3.8750
18.2414,4.8750
Z" /> 
<path style="fill:#C83434; fill-opacity:1.0000; stroke:none;fill-rule:evenodd;"
d="M 20.1414,4.8750
20.1414,3.8750
23.2914,3.8750
23.2914,4.8750
Z" /> 
<path style="fill:#C83434; fill-opacity:1.0000; stroke:none;fill-rule:evenodd;"
d="M 15.0914,7.4150
15.0914,6.4150
18.2414,6.4150
18.2414,7.4150
Z" /> 
<path style="fill:#C83434; fill-opacity:1.0000; stroke:none;fill-rule:evenodd;"
d="M 20.1414,7.4150
20.1414,6.4150
23.2914,6.4150
23.2914,7.4150
Z" /> 
<path style="fill:#C83434; fill-opacity:1.0000; stroke:none;fill-rule:evenodd;"
d="M 15.0914,9.9550
15.0914,8.9550
18.2414,8.9550
18.2414,9.9550
Z" /> 
<path style="fill:#C83434; fill-opacity:1.0000; stroke:none;fill-rule:evenodd;"
d="M 20.1414,9.9550
20.1414,8.9550
23.2914,8.9550
23.2914,9.9550
Z" /> 
<path style="fill:#C83434; fill-opacity:1.0000; stroke:none;fill-rule:evenodd;"
d="M 15.0914,12.4950
15.0914,11.4950
18.2414,11.4950
18.2414,12.4950
Z" /> 
<path style="fill:#C83434; fill-opacity:1.0000; stroke:none;fill-rule:evenodd;"
d="M 20.1414,12.4950
20.1414,11.4950
23.2914,11.4950
23.2914,12.4950
Z" /> 
<path style="fill:#C83434; fill-opacity:1.0000; stroke:none;fill-rule:evenodd;"
d="M 15.0914,15.0350
15.0914,14.0350
18.2414,14.0350
18.2414,15.0350
Z" /> 
<path style="fill:#C83434; fill-opacity:1.0000; stroke:none;fill-rule:evenodd;"
d="M 20.1414,15.0350
20.1414,14.0350
23.2914,14.0350
23.2914,15.0350
Z" /> 
<path style="fill:#C83434; fill-opacity:1.0000; stroke:none;fill-rule:evenodd;"
d="M 15.0914,17.5750
15.0914,16.5750
18.2414,16.5750
18.2414,17.5750
Z" /> 
<path style="fill:#C83434; fill-opacity:1.0000; stroke:none;fill-rule:evenodd;"
d="M 20.1414,17.5750
20.1414,16.5750
23.2914,16.5750
23.2914,17.5750
Z" /> 
<path style="fill:#C83434; fill-opacity:1.0000; stroke:none;fill-rule:evenodd;"
d="M 15.0914,20.1150
15.0914,19.1150
18.2414,19.1150
18.2414,20.1150
Z" /> 
<path style="fill:#C83434; fill-opacity:1.0000; stroke:none;fill-rule:evenodd;"
d="M 20.1414,20.1150
20.1414,19.1150
23.2914,19.1150
23.2914,20.1150
Z" /> 
<path style="fill:#C83434; fill-opacity:1.0000; stroke:none;fill-rule:evenodd;"
d="M 15.0914,22.6550
15.0914,21.6550
18.2414,21.6550
18.2414,22.6550
Z" /> 
<path style="fill:#C83434; fill-opacity:1.0000; stroke:none;fill-rule:evenodd;"
d="M 20.1414,22.6550
20.1414,21.6550
23.2914,21.6550
23.2914,22.6550
Z" /> 
<path style="fill:#C83434; fill-opacity:1.0000; stroke:none;fill-rule:evenodd;"
d="M 15.0914,25.1950
15.0914,24.1950
18.2414,24.1950
18.2414,25.1950
Z" /> 
<path style="fill:#C83434; fill-opacity:1.0000; stroke:none;fill-rule:evenodd;"
d="M 20.1414,25.1950
20.1414,24.1950
23.2914,24.1950
23.2914,25.1950
Z" /> 
<path style="fill:#C83434; fill-opacity:1.0000; stroke:none;fill-rule:evenodd;"
d="M 15.0914,27.7350
15.0914,26.7350
18.2414,26.7350
18.2414,27.7350
Z" /> 
<path style="fill:#C83434; fill-opacity:1.0000; stroke:none;fill-rule:evenodd;"
d="M 20.1414,27.7350
20.1414,26.7350
23.2914,26.7350
23.2914,27.7350
Z" /> 
<path style="fill:#C83434; fill-opacity:1.0000; stroke:none;fill-rule:evenodd;"
d="M 15.0914,30.2750
15.0914,29.2750
18.2414,29.2750
18.2414,30.2750
Z" /> 
<path style="fill:#C83434; fill-opacity:1.0000; stroke:none;fill-rule:evenodd;"
d="M 20.1414,30.2750
20.1414,29.2750
23.2914,29.2750
23.2914,30.2750
Z" /> 
<path style="fill:#C83434; fill-opacity:1.0000; stroke:none;fill-rule:evenodd;"
d="M 15.0914,32.8150
15.0914,31.8150
18.2414,31.8150
18.2414,32.8150
Z" /> 
<path style="fill:#C83434; fill-opacity:1.0000; stroke:none;fill-rule:evenodd;"
d="M 20.1414,32.8150
20.1414,31.8150
23.2914,31.8150
23.2914,32.8150
Z" /> 
<path style="fill:#C83434; fill-opacity:1.0000; stroke:none;fill-rule:evenodd;"
d="M 15.0914,35.3550
15.0914,34.3550
18.2414,34.3550
18.2414,35.3550
Z" /> 
<path style="fill:#C83434; fill-opacity:1.0000; stroke:none;fill-rule:evenodd;"
d="M 20.1414,35.3550
20.1414,34.3550
23.2914,34.3550
23.2914,35.3550
Z" /> 
<path style="fill:#C83434; fill-opacity:1.0000; stroke:none;fill-rule:evenodd;"
d="M 15.0914,37.8950
15.0914,36.8950
18.2414,36.8950
18.2414,37.8950
Z" /> 
<path style="fill:#C83434; fill-opacity:1.0000; stroke:none;fill-rule:evenodd;"
d="M 20.1414,37.8950
20.1414,36.8950
23.2914,36.8950
23.2914,37.8950
Z" /> 
<path style="fill:#C83434; fill-opacity:1.0000; stroke:none;fill-rule:evenodd;"
d="M 15.0914,40.4350
15.0914,39.4350
18.2414,39.4350
18.2414,40.4350
Z" /> 
<path style="fill:#C83434; fill-opacity:1.0000; stroke:none;fill-rule:evenodd;"
d="M 20.1414,40.4350
20.1414,39.4350
23.2914,39.4350
23.2914,40.4350
Z" /> 
<path style="fill:#C83434; fill-opacity:1.0000; stroke:none;fill-rule:evenodd;"
d="M 15.0914,42.9750
15.0914,41.9750
18.2414,41.9750
18.2414,42.9750
Z" /> 
<path style="fill:#C83434; fill-opacity:1.0000; stroke:none;fill-rule:evenodd;"
d="M 20.1414,42.9750
20.1414,41.9750
23.2914,41.9750
23.2914,42.9750
Z" /> 
<path style="fill:#C83434; fill-opacity:1.0000; stroke:none;fill-rule:evenodd;"
d="M 15.0914,45.5150
15.0914,44.5150
18.2414,44.5150
18.2414,45.5150
Z" /> 
<path style="fill:#C83434; fill-opacity:1.0000; stroke:none;fill-rule:evenodd;"
d="M 20.1414,45.5150
20.1414,44.5150
23.2914,44.5150
23.2914,45.5150
Z" /> 
<path style="fill:#C83434; fill-opacity:1.0000; stroke:none;fill-rule:evenodd;"
d="M 15.0914,48.0550
15.0914,47.0550
18.2414,47.0550
18.2414,48.0550
Z" /> 
<path style="fill:#C83434; fill-opacity:1.0000; stroke:none;fill-rule:evenodd;"
d="M 20.1414,48.0550
20.1414,47.0550
23.2914,47.0550
23.2914,48.0550
Z" /> 
<path style="fill:#C83434; fill-opacity:1.0000; stroke:none;fill-rule:evenodd;"
d="M 15.0914,50.5950
15.0914,49.5950
18.2414,49.5950
18.2414,50.5950
Z" /> 
<path style="fill:#C83434; fill-opacity:1.0000; stroke:none;fill-rule:evenodd;"
d="M 20.1414,50.5950
20.1414,49.5950
23.2914,49.5950
23.2914,50.5950
Z" /> 
<path style="fill:#C83434; fill-opacity:1.0000; stroke:none;fill-rule:evenodd;"
d="M 15.0914,53.1350
15.0914,52.1350
18.2414,52.1350
18.2414,53.1350
Z" /> 
<path style="fill:#C83434; fill-opacity:1.0000; stroke:none;fill-rule:evenodd;"
d="M 20.1414,53.1350
20.1414,52.1350
23.2914,52.1350
23.2914,53.1350
Z" /> 
<path style="fill:#C83434; fill-opacity:1.0000; stroke:none;fill-rule:evenodd;"
d="M 15.0914,55.6750
15.0914,54.6750
18.2414,54.6750
18.2414,55.6750
Z" /> 
<path style="fill:#C83434; fill-opacity:1.0000; stroke:none;fill-rule:evenodd;"
d="M 20.1414,55.6750
20.1414,54.6750
23.2914,54.6750
23.2914,55.6750
Z" /> 
<path style="fill:#C83434; fill-opacity:1.0000; stroke:none;fill-rule:evenodd;"
d="M 15.0914,58.2150
15.0914,57.2150
18.2414,57.2150
18.2414,58.2150
Z" /> 
<path style="fill:#C83434; fill-opacity:1.0000; stroke:none;fill-rule:evenodd;"
d="M 20.1414,58.2150
20.1414,57.2150
23.2914,57.2150
23.2914,58.2150
Z" /> 
<path style="fill:#C83434; fill-opacity:1.0000; stroke:none;fill-rule:evenodd;"
d="M 15.0914,60.7550
15.0914,59.7550
18.2414,59.7550
18.2414,60.7550
Z" /> 
<path style="fill:#C83434; fill-opacity:1.0000; stroke:none;fill-rule:evenodd;"
d="M 20.1414,60.7550
20.1414,59.7550
23.2914,59.7550
23.2914,60.7550
Z" /> 
<path style="fill:#C83434; fill-opacity:1.0000; stroke:none;fill-rule:evenodd;"
d="M 15.0914,63.2950
15.0914,62.2950
18.2414,62.2950
18.2414,63.2950
Z" /> 
<path style="fill:#C83434; fill-opacity:1.0000; stroke:none;fill-rule:evenodd;"
d="M 20.1414,63.2950
20.1414,62.2950
23.2914,62.2950
23.2914,63.2950
Z" /> 
<path style="fill:#C83434; fill-opacity:1.0000; stroke:none;fill-rule:evenodd;"
d="M 15.0914,65.8350
15.0914,64.8350
18.2414,64.8350
18.2414,65.8350
Z" /> 
<path style="fill:#C83434; fill-opacity:1.0000; stroke:none;fill-rule:evenodd;"
d="M 20.1414,65.8350
20.1414,64.8350
23.2914,64.8350
23.2914,65.8350
Z" /> 
<path style="fill:#C83434; fill-opacity:1.0000; stroke:none;fill-rule:evenodd;"
d="M 15.0914,68.3750
15.0914,67.3750
18.2414,67.3750
18.2414,68.3750
Z" /> 
<path style="fill:#C83434; fill-opacity:1.0000; stroke:none;fill-rule:evenodd;"
d="M 20.1414,68.3750
20.1414,67.3750
23.2914,67.3750
23.2914,68.3750
Z" /> 
<path style="fill:#C83434; fill-opacity:1.0000; stroke:none;fill-rule:evenodd;"
d="M 15.0914,70.9150
15.0914,69.9150
18.2414,69.9150
18.2414,70.9150
Z" /> 
<path style="fill:#C83434; fill-opacity:1.0000; stroke:none;fill-rule:evenodd;"
d="M 20.1414,70.9150
20.1414,69.9150
23.2914,69.9150
23.2914,70.9150
Z" /> 
<path style="fill:#C83434; fill-opacity:1.0000; stroke:none;fill-rule:evenodd;"
d="M 15.0914,73.4550
15.0914,72.4550
18.2414,72.4550
18.2414,73.4550
Z" /> 
<path style="fill:#C83434; fill-opacity:1.0000; stroke:none;fill-rule:evenodd;"
d="M 20.1414,73.4550
20.1414,72.4550
23.2914,72.4550
23.2914,73.4550
Z" /> 
<path style="fill:#C83434; fill-opacity:1.0000; stroke:none;fill-rule:evenodd;"
d="M 15.0914,75.9950
15.0914,74.9950
18.2414,74.9950
18.2414,75.9950
Z" /> 
<path style="fill:#C83434; fill-opacity:1.0000; stroke:none;fill-rule:evenodd;"
d="M 20.1414,75.9950
20.1414,74.9950
23.2914,74.9950
23.2914,75.9950
Z" /> 
<path style="fill:#C83434; fill-opacity:1.0000; stroke:none;fill-rule:evenodd;"
d="M 15.0914,78.5350
15.0914,77.5350
18.2414,77.5350
18.2414,78.5350
Z" /> 
<path style="fill:#C83434; fill-opacity:1.0000; stroke:none;fill-rule:evenodd;"
d="M 20.1414,78.5350
20.1414,77.5350
23.2914,77.5350
23.2914,78.5350
Z" /> 
<path style="fill:#C83434; fill-opacity:1.0000; stroke:none;fill-rule:evenodd;"
d="M 15.0914,81.0750
15.0914,80.0750
18.2414,80.0750
18.2414,81.0750
Z" /> 
<path style="fill:#C83434; fill-opacity:1.0000; stroke:none;fill-rule:evenodd;"
d="M 20.1414,81.0750
20.1414,80.0750
23.2914,80.0750
23.2914,81.0750
Z" /> 
<path style="fill:#C83434; fill-opacity:1.0000; stroke:none;fill-rule:evenodd;"
d="M 15.0914,83.6150
15.0914,82.6150
18.2414,82.6150
18.2414,83.6150
Z" /> 
<path style="fill:#C83434; fill-opacity:1.0000; stroke:none;fill-rule:evenodd;"
d="M 20.1414,83.6150
20.1414,82.6150
23.2914,82.6150
23.2914,83.6150
Z" /> 
<path style="fill:#D864FF; fill-opacity:0.4000; stroke:none;fill-rule:evenodd;"
d="M 15.0914,2.3350
15.0914,1.3350
18.2414,1.3350
18.2414,2.3350
Z" /> 
<path style="fill:#D864FF; fill-opacity:0.4000; stroke:none;fill-rule:evenodd;"
d="M 20.1414,2.3350
20.1414,1.3350
23.2914,1.3350
23.2914,2.3350
Z" /> 
<path style="fill:#D864FF; fill-opacity:0.4000; stroke:none;fill-rule:evenodd;"
d="M 15.0914,4.8750
15.0914,3.8750
18.2414,3.8750
18.2414,4.8750
Z" /> 
<path style="fill:#D864FF; fill-opacity:0.4000; stroke:none;fill-rule:evenodd;"
d="M 20.1414,4.8750
20.1414,3.8750
23.2914,3.8750
23.2914,4.8750
Z" /> 
<path style="fill:#D864FF; fill-opacity:0.4000; stroke:none;fill-rule:evenodd;"
d="M 15.0914,7.4150
15.0914,6.4150
18.2414,6.4150
18.2414,7.4150
Z" /> 
<path style="fill:#D864FF; fill-opacity:0.4000; stroke:none;fill-rule:evenodd;"
d="M 20.1414,7.4150
20.1414,6.4150
23.2914,6.4150
23.2914,7.4150
Z" /> 
<path style="fill:#D864FF; fill-opacity:0.4000; stroke:none;fill-rule:evenodd;"
d="M 15.0914,9.9550
15.0914,8.9550
18.2414,8.9550
18.2414,9.9550
Z" /> 
<path style="fill:#D864FF; fill-opacity:0.4000; stroke:none;fill-rule:evenodd;"
d="M 20.1414,9.9550
20.1414,8.9550
23.2914,8.9550
23.2914,9.9550
Z" /> 
<path style="fill:#D864FF; fill-opacity:0.4000; stroke:none;fill-rule:evenodd;"
d="M 15.0914,12.4950
15.0914,11.4950
18.2414,11.4950
18.2414,12.4950
Z" /> 
<path style="fill:#D864FF; fill-opacity:0.4000; stroke:none;fill-rule:evenodd;"
d="M 20.1414,12.4950
20.1414,11.4950
23.2914,11.4950
23.2914,12.4950
Z" /> 
<path style="fill:#D864FF; fill-opacity:0.4000; stroke:none;fill-rule:evenodd;"
d="M 15.0914,15.0350
15.0914,14.0350
18.2414,14.0350
18.2414,15.0350
Z" /> 
<path style="fill:#D864FF; fill-opacity:0.4000; stroke:none;fill-rule:evenodd;"
d="M 20.1414,15.0350
20.1414,14.0350
23.2914,14.0350
23.2914,15.0350
Z" /> 
<path style="fill:#D864FF; fill-opacity:0.4000; stroke:none;fill-rule:evenodd;"
d="M 15.0914,17.5750
15.0914,16.5750
18.2414,16.5750
18.2414,17.5750
Z" /> 
<path style="fill:#D864FF; fill-opacity:0.4000; stroke:none;fill-rule:evenodd;"
d="M 20.1414,17.5750
20.1414,16.5750
23.2914,16.5750
23.2914,17.5750
Z" /> 
<path style="fill:#D864FF; fill-opacity:0.4000; stroke:none;fill-rule:evenodd;"
d="M 15.0914,20.1150
15.0914,19.1150
18.2414,19.1150
18.2414,20.1150
Z" /> 
<path style="fill:#D864FF; fill-opacity:0.4000; stroke:none;fill-rule:evenodd;"
d="M 20.1414,20.1150
20.1414,19.1150
23.2914,19.1150
23.2914,20.1150
Z" /> 
<path style="fill:#D864FF; fill-opacity:0.4000; stroke:none;fill-rule:evenodd;"
d="M 15.0914,22.6550
15.0914,21.6550
18.2414,21.6550
18.2414,22.6550
Z" /> 
<path style="fill:#D864FF; fill-opacity:0.4000; stroke:none;fill-rule:evenodd;"
d="M 20.1414,22.6550
20.1414,21.6550
23.2914,21.6550
23.2914,22.6550
Z" /> 
<path style="fill:#D864FF; fill-opacity:0.4000; stroke:none;fill-rule:evenodd;"
d="M 15.0914,25.1950
15.0914,24.1950
18.2414,24.1950
18.2414,25.1950
Z" /> 
<path style="fill:#D864FF; fill-opacity:0.4000; stroke:none;fill-rule:evenodd;"
d="M 20.1414,25.1950
20.1414,24.1950
23.2914,24.1950
23.2914,25.1950
Z" /> 
<path style="fill:#D864FF; fill-opacity:0.4000; stroke:none;fill-rule:evenodd;"
d="M 15.0914,27.7350
15.0914,26.7350
18.2414,26.7350
18.2414,27.7350
Z" /> 
<path style="fill:#D864FF; fill-opacity:0.4000; stroke:none;fill-rule:evenodd;"
d="M 20.1414,27.7350
20.1414,26.7350
23.2914,26.7350
23.2914,27.7350
Z" /> 
<path style="fill:#D864FF; fill-opacity:0.4000; stroke:none;fill-rule:evenodd;"
d="M 15.0914,30.2750
15.0914,29.2750
18.2414,29.2750
18.2414,30.2750
Z" /> 
<path style="fill:#D864FF; fill-opacity:0.4000; stroke:none;fill-rule:evenodd;"
d="M 20.1414,30.2750
20.1414,29.2750
23.2914,29.2750
23.2914,30.2750
Z" /> 
<path style="fill:#D864FF; fill-opacity:0.4000; stroke:none;fill-rule:evenodd;"
d="M 15.0914,32.8150
15.0914,31.8150
18.2414,31.8150
18.2414,32.8150
Z" /> 
<path style="fill:#D864FF; fill-opacity:0.4000; stroke:none;fill-rule:evenodd;"
d="M 20.1414,32.8150
20.1414,31.8150
23.2914,31.8150
23.2914,32.8150
Z" /> 
<path style="fill:#D864FF; fill-opacity:0.4000; stroke:none;fill-rule:evenodd;"
d="M 15.0914,35.3550
15.0914,34.3550
18.2414,34.3550
18.2414,35.3550
Z" /> 
<path style="fill:#D864FF; fill-opacity:0.4000; stroke:none;fill-rule:evenodd;"
d="M 20.1414,35.3550
20.1414,34.3550
23.2914,34.3550
23.2914,35.3550
Z" /> 
<path style="fill:#D864FF; fill-opacity:0.4000; stroke:none;fill-rule:evenodd;"
d="M 15.0914,37.8950
15.0914,36.8950
18.2414,36.8950
18.2414,37.8950
Z" /> 
<path style="fill:#D864FF; fill-opacity:0.4000; stroke:none;fill-rule:evenodd;"
d="M 20.1414,37.8950
20.1414,36.8950
23.2914,36.8950
23.2914,37.8950
Z" /> 
<path style="fill:#D864FF; fill-opacity:0.4000; stroke:none;fill-rule:evenodd;"
d="M 15.0914,40.4350
15.0914,39.4350
18.2414,39.4350
18.2414,40.4350
Z" /> 
<path style="fill:#D864FF; fill-opacity:0.4000; stroke:none;fill-rule:evenodd;"
d="M 20.1414,40.4350
20.1414,39.4350
23.2914,39.4350
23.2914,40.4350
Z" /> 
<path style="fill:#D864FF; fill-opacity:0.4000; stroke:none;fill-rule:evenodd;"
d="M 15.0914,42.9750
15.0914,41.9750
18.2414,41.9750
18.2414,42.9750
Z" /> 
<path style="fill:#D864FF; fill-opacity:0.4000; stroke:none;fill-rule:evenodd;"
d="M 20.1414,42.9750
20.1414,41.9750
23.2914,41.9750
23.2914,42.9750
Z" /> 
<path style="fill:#D864FF; fill-opacity:0.4000; stroke:none;fill-rule:evenodd;"
d="M 15.0914,45.5150
15.0914,44.5150
18.2414,44.5150
18.2414,45.5150
Z" /> 
<path style="fill:#D864FF; fill-opacity:0.4000; stroke:none;fill-rule:evenodd;"
d="M 20.1414,45.5150
20.1414,44.5150
23.2914,44.5150
23.2914,45.5150
Z" /> 
<path style="fill:#D864FF; fill-opacity:0.4000; stroke:none;fill-rule:evenodd;"
d="M 15.0914,48.0550
15.0914,47.0550
18.2414,47.0550
18.2414,48.0550
Z" /> 
<path style="fill:#D864FF; fill-opacity:0.4000; stroke:none;fill-rule:evenodd;"
d="M 20.1414,48.0550
20.1414,47.0550
23.2914,47.0550
23.2914,48.0550
Z" /> 
<path style="fill:#D864FF; fill-opacity:0.4000; stroke:none;fill-rule:evenodd;"
d="M 15.0914,50.5950
15.0914,49.5950
18.2414,49.5950
18.2414,50.5950
Z" /> 
<path style="fill:#D864FF; fill-opacity:0.4000; stroke:none;fill-rule:evenodd;"
d="M 20.1414,50.5950
20.1414,49.5950
23.2914,49.5950
23.2914,50.5950
Z" /> 
<path style="fill:#D864FF; fill-opacity:0.4000; stroke:none;fill-rule:evenodd;"
d="M 15.0914,53.1350
15.0914,52.1350
18.2414,52.1350
18.2414,53.1350
Z" /> 
<path style="fill:#D864FF; fill-opacity:0.4000; stroke:none;fill-rule:evenodd;"
d="M 20.1414,53.1350
20.1414,52.1350
23.2914,52.1350
23.2914,53.1350
Z" /> 
<path style="fill:#D864FF; fill-opacity:0.4000; stroke:none;fill-rule:evenodd;"
d="M 15.0914,55.6750
15.0914,54.6750
18.2414,54.6750
18.2414,55.6750
Z" /> 
<path style="fill:#D864FF; fill-opacity:0.4000; stroke:none;fill-rule:evenodd;"
d="M 20.1414,55.6750
20.1414,54.6750
23.2914,54.6750
23.2914,55.6750
Z" /> 
<path style="fill:#D864FF; fill-opacity:0.4000; stroke:none;fill-rule:evenodd;"
d="M 15.0914,58.2150
15.0914,57.2150
18.2414,57.2150
18.2414,58.2150
Z" /> 
<path style="fill:#D864FF; fill-opacity:0.4000; stroke:none;fill-rule:evenodd;"
d="M 20.1414,58.2150
20.1414,57.2150
23.2914,57.2150
23.2914,58.2150
Z" /> 
<path style="fill:#D864FF; fill-opacity:0.4000; stroke:none;fill-rule:evenodd;"
d="M 15.0914,60.7550
15.0914,59.7550
18.2414,59.7550
18.2414,60.7550
Z" /> 
<path style="fill:#D864FF; fill-opacity:0.4000; stroke:none;fill-rule:evenodd;"
d="M 20.1414,60.7550
20.1414,59.7550
23.2914,59.7550
23.2914,60.7550
Z" /> 
<path style="fill:#D864FF; fill-opacity:0.4000; stroke:none;fill-rule:evenodd;"
d="M 15.0914,63.2950
15.0914,62.2950
18.2414,62.2950
18.2414,63.2950
Z" /> 
<path style="fill:#D864FF; fill-opacity:0.4000; stroke:none;fill-rule:evenodd;"
d="M 20.1414,63.2950
20.1414,62.2950
23.2914,62.2950
23.2914,63.2950
Z" /> 
<path style="fill:#D864FF; fill-opacity:0.4000; stroke:none;fill-rule:evenodd;"
d="M 15.0914,65.8350
15.0914,64.8350
18.2414,64.8350
18.2414,65.8350
Z" /> 
<path style="fill:#D864FF; fill-opacity:0.4000; stroke:none;fill-rule:evenodd;"
d="M 20.1414,65.8350
20.1414,64.8350
23.2914,64.8350
23.2914,65.8350
Z" /> 
<path style="fill:#D864FF; fill-opacity:0.4000; stroke:none;fill-rule:evenodd;"
d="M 15.0914,68.3750
15.0914,67.3750
18.2414,67.3750
18.2414,68.3750
Z" /> 
<path style="fill:#D864FF; fill-opacity:0.4000; stroke:none;fill-rule:evenodd;"
d="M 20.1414,68.3750
20.1414,67.3750
23.2914,67.3750
23.2914,68.3750
Z" /> 
<path style="fill:#D864FF; fill-opacity:0.4000; stroke:none;fill-rule:evenodd;"
d="M 15.0914,70.9150
15.0914,69.9150
18.2414,69.9150
18.2414,70.9150
Z" /> 
<path style="fill:#D864FF; fill-opacity:0.4000; stroke:none;fill-rule:evenodd;"
d="M 20.1414,70.9150
20.1414,69.9150
23.2914,69.9150
23.2914,70.9150
Z" /> 
<path style="fill:#D864FF; fill-opacity:0.4000; stroke:none;fill-rule:evenodd;"
d="M 15.0914,73.4550
15.0914,72.4550
18.2414,72.4550
18.2414,73.4550
Z" /> 
<path style="fill:#D864FF; fill-opacity:0.4000; stroke:none;fill-rule:evenodd;"
d="M 20.1414,73.4550
20.1414,72.4550
23.2914,72.4550
23.2914,73.4550
Z" /> 
<path style="fill:#D864FF; fill-opacity:0.4000; stroke:none;fill-rule:evenodd;"
d="M 15.0914,75.9950
15.0914,74.9950
18.2414,74.9950
18.2414,75.9950
Z" /> 
<path style="fill:#D864FF; fill-opacity:0.4000; stroke:none;fill-rule:evenodd;"
d="M 20.1414,75.9950
20.1414,74.9950
23.2914,74.9950
23.2914,75.9950
Z" /> 
<path style="fill:#D864FF; fill-opacity:0.4000; stroke:none;fill-rule:evenodd;"
d="M 15.0914,78.5350
15.0914,77.5350
18.2414,77.5350
18.2414,78.5350
Z" /> 
<path style="fill:#D864FF; fill-opacity:0.4000; stroke:none;fill-rule:evenodd;"
d="M 20.1414,78.5350
20.1414,77.5350
23.2914,77.5350
23.2914,78.5350
Z" /> 
<path style="fill:#D864FF; fill-opacity:0.4000; stroke:none;fill-rule:evenodd;"
d="M 15.0914,81.0750
15.0914,80.0750
18.2414,80.0750
18.2414,81.0750
Z" /> 
<path style="fill:#D864FF; fill-opacity:0.4000; stroke:none;fill-rule:evenodd;"
d="M 20.1414,81.0750
20.1414,80.0750
23.2914,80.0750
23.2914,81.0750
Z" /> 
<path style="fill:#D864FF; fill-opacity:0.4000; stroke:none;fill-rule:evenodd;"
d="M 15.0914,83.6150
15.0914,82.6150
18.2414,82.6150
18.2414,83.6150
Z" /> 
<path style="fill:#D864FF; fill-opacity:0.4000; stroke:none;fill-rule:evenodd;"
d="M 20.1414,83.6150
20.1414,82.6150
23.2914,82.6150
23.2914,83.6150
Z" /> 
<path style="fill:#B4A09A; fill-opacity:0.9000; stroke:none;fill-rule:evenodd;"
d="M 15.0914,2.3350
15.0914,1.3350
18.2414,1.3350
18.2414,2.3350
Z" /> 
<path style="fill:#B4A09A; fill-opacity:0.9000; stroke:none;fill-rule:evenodd;"
d="M 20.1414,2.3350
20.1414,1.3350
23.2914,1.3350
23.2914,2.3350
Z" /> 
<path style="fill:#B4A09A; fill-opacity:0.9000; stroke:none;fill-rule:evenodd;"
d="M 15.0914,4.8750
15.0914,3.8750
18.2414,3.8750
18.2414,4.8750
Z" /> 
<path style="fill:#B4A09A; fill-opacity:0.9000; stroke:none;fill-rule:evenodd;"
d="M 20.1414,4.8750
20.1414,3.8750
23.2914,3.8750
23.2914,4.8750
Z" /> 
<path style="fill:#B4A09A; fill-opacity:0.9000; stroke:none;fill-rule:evenodd;"
d="M 15.0914,7.4150
15.0914,6.4150
18.2414,6.4150
18.2414,7.4150
Z" /> 
<path style="fill:#B4A09A; fill-opacity:0.9000; stroke:none;fill-rule:evenodd;"
d="M 20.1414,7.4150
20.1414,6.4150
23.2914,6.4150
23.2914,7.4150
Z" /> 
<path style="fill:#B4A09A; fill-opacity:0.9000; stroke:none;fill-rule:evenodd;"
d="M 15.0914,9.9550
15.0914,8.9550
18.2414,8.9550
18.2414,9.9550
Z" /> 
<path style="fill:#B4A09A; fill-opacity:0.9000; stroke:none;fill-rule:evenodd;"
d="M 20.1414,9.9550
20.1414,8.9550
23.2914,8.9550
23.2914,9.9550
Z" /> 
<path style="fill:#B4A09A; fill-opacity:0.9000; stroke:none;fill-rule:evenodd;"
d="M 15.0914,12.4950
15.0914,11.4950
18.2414,11.4950
18.2414,12.4950
Z" /> 
<path style="fill:#B4A09A; fill-opacity:0.9000; stroke:none;fill-rule:evenodd;"
d="M 20.1414,12.4950
20.1414,11.4950
23.2914,11.4950
23.2914,12.4950
Z" /> 
<path style="fill:#B4A09A; fill-opacity:0.9000; stroke:none;fill-rule:evenodd;"
d="M 15.0914,15.0350
15.0914,14.0350
18.2414,14.0350
18.2414,15.0350
Z" /> 
<path style="fill:#B4A09A; fill-opacity:0.9000; stroke:none;fill-rule:evenodd;"
d="M 20.1414,15.0350
20.1414,14.0350
23.2914,14.0350
23.2914,15.0350
Z" /> 
<path style="fill:#B4A09A; fill-opacity:0.9000; stroke:none;fill-rule:evenodd;"
d="M 15.0914,17.5750
15.0914,16.5750
18.2414,16.5750
18.2414,17.5750
Z" /> 
<path style="fill:#B4A09A; fill-opacity:0.9000; stroke:none;fill-rule:evenodd;"
d="M 20.1414,17.5750
20.1414,16.5750
23.2914,16.5750
23.2914,17.5750
Z" /> 
<path style="fill:#B4A09A; fill-opacity:0.9000; stroke:none;fill-rule:evenodd;"
d="M 15.0914,20.1150
15.0914,19.1150
18.2414,19.1150
18.2414,20.1150
Z" /> 
<path style="fill:#B4A09A; fill-opacity:0.9000; stroke:none;fill-rule:evenodd;"
d="M 20.1414,20.1150
20.1414,19.1150
23.2914,19.1150
23.2914,20.1150
Z" /> 
<path style="fill:#B4A09A; fill-opacity:0.9000; stroke:none;fill-rule:evenodd;"
d="M 15.0914,22.6550
15.0914,21.6550
18.2414,21.6550
18.2414,22.6550
Z" /> 
<path style="fill:#B4A09A; fill-opacity:0.9000; stroke:none;fill-rule:evenodd;"
d="M 20.1414,22.6550
20.1414,21.6550
23.2914,21.6550
23.2914,22.6550
Z" /> 
<path style="fill:#B4A09A; fill-opacity:0.9000; stroke:none;fill-rule:evenodd;"
d="M 15.0914,25.1950
15.0914,24.1950
18.2414,24.1950
18.2414,25.1950
Z" /> 
<path style="fill:#B4A09A; fill-opacity:0.9000; stroke:none;fill-rule:evenodd;"
d="M 20.1414,25.1950
20.1414,24.1950
23.2914,24.1950
23.2914,25.1950
Z" /> 
<path style="fill:#B4A09A; fill-opacity:0.9000; stroke:none;fill-rule:evenodd;"
d="M 15.0914,27.7350
15.0914,26.7350
18.2414,26.7350
18.2414,27.7350
Z" /> 
<path style="fill:#B4A09A; fill-opacity:0.9000; stroke:none;fill-rule:evenodd;"
d="M 20.1414,27.7350
20.1414,26.7350
23.2914,26.7350
23.2914,27.7350
Z" /> 
<path style="fill:#B4A09A; fill-opacity:0.9000; stroke:none;fill-rule:evenodd;"
d="M 15.0914,30.2750
15.0914,29.2750
18.2414,29.2750
18.2414,30.2750
Z" /> 
<path style="fill:#B4A09A; fill-opacity:0.9000; stroke:none;fill-rule:evenodd;"
d="M 20.1414,30.2750
20.1414,29.2750
23.2914,29.2750
23.2914,30.2750
Z" /> 
<path style="fill:#B4A09A; fill-opacity:0.9000; stroke:none;fill-rule:evenodd;"
d="M 15.0914,32.8150
15.0914,31.8150
18.2414,31.8150
18.2414,32.8150
Z" /> 
<path style="fill:#B4A09A; fill-opacity:0.9000; stroke:none;fill-rule:evenodd;"
d="M 20.1414,32.8150
20.1414,31.8150
23.2914,31.8150
23.2914,32.8150
Z" /> 
<path style="fill:#B4A09A; fill-opacity:0.9000; stroke:none;fill-rule:evenodd;"
d="M 15.0914,35.3550
15.0914,34.3550
18.2414,34.3550
18.2414,35.3550
Z" /> 
<path style="fill:#B4A09A; fill-opacity:0.9000; stroke:none;fill-rule:evenodd;"
d="M 20.1414,35.3550
20.1414,34.3550
23.2914,34.3550
23.2914,35.3550
Z" /> 
<path style="fill:#B4A09A; fill-opacity:0.9000; stroke:none;fill-rule:evenodd;"
d="M 15.0914,37.8950
15.0914,36.8950
18.2414,36.8950
18.2414,37.8950
Z" /> 
<path style="fill:#B4A09A; fill-opacity:0.9000; stroke:none;fill-rule:evenodd;"
d="M 20.1414,37.8950
20.1414,36.8950
23.2914,36.8950
23.2914,37.8950
Z" /> 
<path style="fill:#B4A09A; fill-opacity:0.9000; stroke:none;fill-rule:evenodd;"
d="M 15.0914,40.4350
15.0914,39.4350
18.2414,39.4350
18.2414,40.4350
Z" /> 
<path style="fill:#B4A09A; fill-opacity:0.9000; stroke:none;fill-rule:evenodd;"
d="M 20.1414,40.4350
20.1414,39.4350
23.2914,39.4350
23.2914,40.4350
Z" /> 
<path style="fill:#B4A09A; fill-opacity:0.9000; stroke:none;fill-rule:evenodd;"
d="M 15.0914,42.9750
15.0914,41.9750
18.2414,41.9750
18.2414,42.9750
Z" /> 
<path style="fill:#B4A09A; fill-opacity:0.9000; stroke:none;fill-rule:evenodd;"
d="M 20.1414,42.9750
20.1414,41.9750
23.2914,41.9750
23.2914,42.9750
Z" /> 
<path style="fill:#B4A09A; fill-opacity:0.9000; stroke:none;fill-rule:evenodd;"
d="M 15.0914,45.5150
15.0914,44.5150
18.2414,44.5150
18.2414,45.5150
Z" /> 
<path style="fill:#B4A09A; fill-opacity:0.9000; stroke:none;fill-rule:evenodd;"
d="M 20.1414,45.5150
20.1414,44.5150
23.2914,44.5150
23.2914,45.5150
Z" /> 
<path style="fill:#B4A09A; fill-opacity:0.9000; stroke:none;fill-rule:evenodd;"
d="M 15.0914,48.0550
15.0914,47.0550
18.2414,47.0550
18.2414,48.0550
Z" /> 
<path style="fill:#B4A09A; fill-opacity:0.9000; stroke:none;fill-rule:evenodd;"
d="M 20.1414,48.0550
20.1414,47.0550
23.2914,47.0550
23.2914,48.0550
Z" /> 
<path style="fill:#B4A09A; fill-opacity:0.9000; stroke:none;fill-rule:evenodd;"
d="M 15.0914,50.5950
15.0914,49.5950
18.2414,49.5950
18.2414,50.5950
Z" /> 
<path style="fill:#B4A09A; fill-opacity:0.9000; stroke:none;fill-rule:evenodd;"
d="M 20.1414,50.5950
20.1414,49.5950
23.2914,49.5950
23.2914,50.5950
Z" /> 
<path style="fill:#B4A09A; fill-opacity:0.9000; stroke:none;fill-rule:evenodd;"
d="M 15.0914,53.1350
15.0914,52.1350
18.2414,52.1350
18.2414,53.1350
Z" /> 
<path style="fill:#B4A09A; fill-opacity:0.9000; stroke:none;fill-rule:evenodd;"
d="M 20.1414,53.1350
20.1414,52.1350
23.2914,52.1350
23.2914,53.1350
Z" /> 
<path style="fill:#B4A09A; fill-opacity:0.9000; stroke:none;fill-rule:evenodd;"
d="M 15.0914,55.6750
15.0914,54.6750
18.2414,54.6750
18.2414,55.6750
Z" /> 
<path style="fill:#B4A09A; fill-opacity:0.9000; stroke:none;fill-rule:evenodd;"
d="M 20.1414,55.6750
20.1414,54.6750
23.2914,54.6750
23.2914,55.6750
Z" /> 
<path style="fill:#B4A09A; fill-opacity:0.9000; stroke:none;fill-rule:evenodd;"
d="M 15.0914,58.2150
15.0914,57.2150
18.2414,57.2150
18.2414,58.2150
Z" /> 
<path style="fill:#B4A09A; fill-opacity:0.9000; stroke:none;fill-rule:evenodd;"
d="M 20.1414,58.2150
20.1414,57.2150
23.2914,57.2150
23.2914,58.2150
Z" /> 
<path style="fill:#B4A09A; fill-opacity:0.9000; stroke:none;fill-rule:evenodd;"
d="M 15.0914,60.7550
15.0914,59.7550
18.2414,59.7550
18.2414,60.7550
Z" /> 
<path style="fill:#B4A09A; fill-opacity:0.9000; stroke:none;fill-rule:evenodd;"
d="M 20.1414,60.7550
20.1414,59.7550
23.2914,59.7550
23.2914,60.7550
Z" /> 
<path style="fill:#B4A09A; fill-opacity:0.9000; stroke:none;fill-rule:evenodd;"
d="M 15.0914,63.2950
15.0914,62.2950
18.2414,62.2950
18.2414,63.2950
Z" /> 
<path style="fill:#B4A09A; fill-opacity:0.9000; stroke:none;fill-rule:evenodd;"
d="M 20.1414,63.2950
20.1414,62.2950
23.2914,62.2950
23.2914,63.2950
Z" /> 
<path style="fill:#B4A09A; fill-opacity:0.9000; stroke:none;fill-rule:evenodd;"
d="M 15.0914,65.8350
15.0914,64.8350
18.2414,64.8350
18.2414,65.8350
Z" /> 
<path style="fill:#B4A09A; fill-opacity:0.9000; stroke:none;fill-rule:evenodd;"
d="M 20.1414,65.8350
20.1414,64.8350
23.2914,64.8350
23.2914,65.8350
Z" /> 
<path style="fill:#B4A09A; fill-opacity:0.9000; stroke:none;fill-rule:evenodd;"
d="M 15.0914,68.3750
15.0914,67.3750
18.2414,67.3750
18.2414,68.3750
Z" /> 
<path style="fill:#B4A09A; fill-opacity:0.9000; stroke:none;fill-rule:evenodd;"
d="M 20.1414,68.3750
20.1414,67.3750
23.2914,67.3750
23.2914,68.3750
Z" /> 
<path style="fill:#B4A09A; fill-opacity:0.9000; stroke:none;fill-rule:evenodd;"
d="M 15.0914,70.9150
15.0914,69.9150
18.2414,69.9150
18.2414,70.9150
Z" /> 
<path style="fill:#B4A09A; fill-opacity:0.9000; stroke:none;fill-rule:evenodd;"
d="M 20.1414,70.9150
20.1414,69.9150
23.2914,69.9150
23.2914,70.9150
Z" /> 
<path style="fill:#B4A09A; fill-opacity:0.9000; stroke:none;fill-rule:evenodd;"
d="M 15.0914,73.4550
15.0914,72.4550
18.2414,72.4550
18.2414,73.4550
Z" /> 
<path style="fill:#B4A09A; fill-opacity:0.9000; stroke:none;fill-rule:evenodd;"
d="M 20.1414,73.4550
20.1414,72.4550
23.2914,72.4550
23.2914,73.4550
Z" /> 
<path style="fill:#B4A09A; fill-opacity:0.9000; stroke:none;fill-rule:evenodd;"
d="M 15.0914,75.9950
15.0914,74.9950
18.2414,74.9950
18.2414,75.9950
Z" /> 
<path style="fill:#B4A09A; fill-opacity:0.9000; stroke:none;fill-rule:evenodd;"
d="M 20.1414,75.9950
20.1414,74.9950
23.2914,74.9950
23.2914,75.9950
Z" /> 
<path style="fill:#B4A09A; fill-opacity:0.9000; stroke:none;fill-rule:evenodd;"
d="M 15.0914,78.5350
15.0914,77.5350
18.2414,77.5350
18.2414,78.5350
Z" /> 
<path style="fill:#B4A09A; fill-opacity:0.9000; stroke:none;fill-rule:evenodd;"
d="M 20.1414,78.5350
20.1414,77.5350
23.2914,77.5350
23.2914,78.5350
Z" /> 
<path style="fill:#B4A09A; fill-opacity:0.9000; stroke:none;fill-rule:evenodd;"
d="M 15.0914,81.0750
15.0914,80.0750
18.2414,80.0750
18.2414,81.0750
Z" /> 
<path style="fill:#B4A09A; fill-opacity:0.9000; stroke:none;fill-rule:evenodd;"
d="M 20.1414,81.0750
20.1414,80.0750
23.2914,80.0750
23.2914,81.0750
Z" /> 
<path style="fill:#B4A09A; fill-opacity:0.9000; stroke:none;fill-rule:evenodd;"
d="M 15.0914,83.6150
15.0914,82.6150
18.2414,82.6150
18.2414,83.6150
Z" /> 
<path style="fill:#B4A09A; fill-opacity:0.9000; stroke:none;fill-rule:evenodd;"
d="M 20.1414,83.6150
20.1414,82.6150
23.2914,82.6150
23.2914,83.6150
Z" /> 
</g>
<g style="fill:none; 
stroke:#F2EDA1; stroke-width:0.1588; stroke-opacity:1; 
stroke-linecap:round; stroke-linejoin:round;">
<text x="19.1914" y="43.1100"
textLength="5.6651" font-size="1.6933" lengthAdjust="spacingAndGlyphs"
text-anchor="middle" opacity="0">REF**</text>
<g class="stroked-text"><desc>REF**</desc>
<path d="M17.4980 43.0543
L17.0747 42.4495
" />
<path d="M16.7723 43.0543
L16.7723 41.7843
" />
<path d="M16.7723 41.7843
L17.2561 41.7843
" />
<path d="M17.2561 41.7843
L17.3771 41.8447
" />
<path d="M17.3771 41.8447
L17.4376 41.9052
" />
<path d="M17.4376 41.9052
L17.4980 42.0262
" />
<path d="M17.4980 42.0262
L17.4980 42.2076
" />
<path d="M17.4980 42.2076
L17.4376 42.3286
" />
<path d="M17.4376 42.3286
L17.3771 42.3890
" />
<path d="M17.3771 42.3890
L17.2561 42.4495
" />
<path d="M17.2561 42.4495
L16.7723 42.4495
" />
<path d="M18.0423 42.3890
L18.4656 42.3890
" />
<path d="M18.6471 43.0543
L18.0423 43.0543
" />
<path d="M18.0423 43.0543
L18.0423 41.7843
" />
<path d="M18.0423 41.7843
L18.6471 41.7843
" />
<path d="M19.6147 42.3890
L19.1914 42.3890
" />
<path d="M19.1914 43.0543
L19.1914 41.7843
" />
<path d="M19.1914 41.7843
L19.7961 41.7843
" />
<path d="M20.4614 41.7843
L20.4614 42.0867
" />
<path d="M20.1590 41.9657
L20.4614 42.0867
" />
<path d="M20.4614 42.0867
L20.7637 41.9657
" />
<path d="M20.2799 42.3286
L20.4614 42.0867
" />
<path d="M20.4614 42.0867
L20.6428 42.3286
" />
<path d="M21.4290 41.7843
L21.4290 42.0867
" />
<path d="M21.1266 41.9657
L21.4290 42.0867
" />
<path d="M21.4290 42.0867
L21.7314 41.9657
" />
<path d="M21.2476 42.3286
L21.4290 42.0867
" />
<path d="M21.4290 42.0867
L21.6104 42.3286
" />
</g></g>
<g style="fill:none; 
stroke:#F2EDA1; stroke-width:0.1200; stroke-opacity:1; 
stroke-linecap:round; stroke-linejoin:round;">
<path d="M15.1514 1.0750
L16.5914 1.0750
" />
<path d="M16.5914 0.5050
L16.5914 1.0750
" />
<path d="M16.5914 0.5050
L21.7914 0.5050
" />
<path d="M16.5914 2.5950
L16.5914 3.6150
" />
<path d="M16.5914 5.1350
L16.5914 6.1550
" />
<path d="M16.5914 7.6750
L16.5914 8.6950
" />
<path d="M16.5914 10.2150
L16.5914 11.2350
" />
<path d="M16.5914 12.7550
L16.5914 13.7750
" />
<path d="M16.5914 15.2950
L16.5914 16.3150
" />
<path d="M16.5914 17.8350
L16.5914 18.8550
" />
<path d="M16.5914 20.3750
L16.5914 21.3950
" />
<path d="M16.5914 22.9150
L16.5914 23.9350
" />
<path d="M16.5914 25.4550
L16.5914 26.4750
" />
<path d="M16.5914 27.9950
L16.5914 29.0150
" />
<path d="M16.5914 30.5350
L16.5914 31.5550
" />
<path d="M16.5914 33.0750
L16.5914 34.0950
" />
<path d="M16.5914 35.6150
L16.5914 36.6350
" />
<path d="M16.5914 38.1550
L16.5914 39.1750
" />
<path d="M16.5914 40.6950
L16.5914 41.7150
" />
<path d="M16.5914 43.2350
L16.5914 44.2550
" />
<path d="M16.5914 45.7750
L16.5914 46.7950
" />
<path d="M16.5914 48.3150
L16.5914 49.3350
" />
<path d="M16.5914 50.8550
L16.5914 51.8750
" />
<path d="M16.5914 53.3950
L16.5914 54.4150
" />
<path d="M16.5914 55.9350
L16.5914 56.9550
" />
<path d="M16.5914 58.4750
L16.5914 59.4950
" />
<path d="M16.5914 61.0150
L16.5914 62.0350
" />
<path d="M16.5914 63.5550
L16.5914 64.5750
" />
<path d="M16.5914 66.0950
L16.5914 67.1150
" />
<path d="M16.5914 68.6350
L16.5914 69.6550
" />
<path d="M16.5914 71.1750
L16.5914 72.1950
" />
<path d="M16.5914 73.7150
L16.5914 74.7350
" />
<path d="M16.5914 76.2550
L16.5914 77.2750
" />
<path d="M16.5914 78.7950
L16.5914 79.8150
" />
<path d="M16.5914 81.3350
L16.5914 82.3550
" />
<path d="M16.5914 83.8750
L16.5914 84.4450
" />
<path d="M16.5914 84.4450
L21.7914 84.4450
" />
<path d="M21.7914 0.5050
L21.7914 1.0750
" />
<path d="M21.7914 2.5950
L21.7914 3.6150
" />
<path d="M21.7914 5.1350
L21.7914 6.1550
" />
<path d="M21.7914 7.6750
L21.7914 8.6950
" />
<path d="M21.7914 10.2150
L21.7914 11.2350
" />
<path d="M21.7914 12.7550
L21.7914 13.7750
" />
<path d="M21.7914 15.2950
L21.7914 16.3150
" />
<path d="M21.7914 17.8350
L21.7914 18.8550
" />
<path d="M21.7914 20.3750
L21.7914 21.3950
" />
<path d="M21.7914 22.9150
L21.7914 23.9350
" />
<path d="M21.7914 25.4550
L21.7914 26.4750
" />
<path d="M21.7914 27.9950
L21.7914 29.0150
" />
<path d="M21.7914 30.5350
L21.7914 31.5550
" />
<path d="M21.7914 33.0750
L21.7914 34.0950
" />
<path d="M21.7914 35.6150
L21.7914 36.6350
" />
<path d="M21.7914 38.1550
L21.7914 39.1750
" />
<path d="M21.7914 40.6950
L21.7914 41.7150
" />
<path d="M21.7914 43.2350
L21.7914 44.2550
" />
<path d="M21.7914 45.7750
L21.7914 46.7950
" />
<path d="M21.7914 48.3150
L21.7914 49.3350
" />
<path d="M21.7914 50.8550
L21.7914 51.8750
" />
<path d="M21.7914 53.3950
L21.7914 54.4150
" />
<path d="M21.7914 55.9350
L21.7914 56.9550
" />
<path d="M21.7914 58.4750
L21.7914 59.4950
" />
<path d="M21.7914 61.0150
L21.7914 62.0350
" />
<path d="M21.7914 63.5550
L21.7914 64.5750
" />
<path d="M21.7914 66.0950
L21.7914 67.1150
" />
<path d="M21.7914 68.6350
L21.7914 69.6550
" />
<path d="M21.7914 71.1750
L21.7914 72.1950
" />
<path d="M21.7914 73.7150
L21.7914 74.7350
" />
<path d="M21.7914 76.2550
L21.7914 77.2750
" />
<path d="M21.7914 78.7950
L21.7914 79.8150
" />
<path d="M21.7914 81.3350
L21.7914 82.3550
" />
<path d="M21.7914 83.8750
L21.7914 84.4450
" />
</g>
<g style="fill:none; 
stroke:#FF26E2; stroke-width:0.0500; stroke-opacity:1; 
stroke-linecap:round; stroke-linejoin:round;">
<path d="M13.2914 0.0250
L13.2914 84.9250
" />
<path d="M13.2914 84.9250
L25.0914 84.9250
" />
<path d="M25.0914 0.0250
L13.2914 0.0250
" />
<path d="M25.0914 84.9250
L25.0914 0.0250
" />
</g>
<g style="fill:none; 
stroke:#AFAFAF; stroke-width:0.1588; stroke-opacity:1; 
stroke-linecap:round; stroke-linejoin:round;">
<text x="19.1914" y="43.1100"
textLength="38.3827" font-size="1.6933" lengthAdjust="spacingAndGlyphs"
text-anchor="middle" opacity="0">PinHeader_2x33_P2.54mm_Vertical_SMD</text>
<g class="stroked-text"><desc>PinHeader_2x33_P2.54mm_Vertical_SMD</desc>
<path d="M0.4135 43.0543
L0.4135 41.7843
" />
<path d="M0.4135 41.7843
L0.8973 41.7843
" />
<path d="M0.8973 41.7843
L1.0183 41.8447
" />
<path d="M1.0183 41.8447
L1.0787 41.9052
" />
<path d="M1.0787 41.9052
L1.1392 42.0262
" />
<path d="M1.1392 42.0262
L1.1392 42.2076
" />
<path d="M1.1392 42.2076
L1.0787 42.3286
" />
<path d="M1.0787 42.3286
L1.0183 42.3890
" />
<path d="M1.0183 42.3890
L0.8973 42.4495
" />
<path d="M0.8973 42.4495
L0.4135 42.4495
" />
<path d="M1.6835 43.0543
L1.6835 42.2076
" />
<path d="M1.6835 41.7843
L1.6230 41.8447
" />
<path d="M1.6230 41.8447
L1.6835 41.9052
" />
<path d="M1.6835 41.9052
L1.7440 41.8447
" />
<path d="M1.7440 41.8447
L1.6835 41.7843
" />
<path d="M1.6835 41.7843
L1.6835 41.9052
" />
<path d="M2.2883 42.2076
L2.2883 43.0543
" />
<path d="M2.2883 42.3286
L2.3487 42.2681
" />
<path d="M2.3487 42.2681
L2.4697 42.2076
" />
<path d="M2.4697 42.2076
L2.6511 42.2076
" />
<path d="M2.6511 42.2076
L2.7721 42.2681
" />
<path d="M2.7721 42.2681
L2.8326 42.3890
" />
<path d="M2.8326 42.3890
L2.8326 43.0543
" />
<path d="M3.4373 43.0543
L3.4373 41.7843
" />
<path d="M3.4373 42.3890
L4.1630 42.3890
" />
<path d="M4.1630 43.0543
L4.1630 41.7843
" />
<path d="M5.2516 42.9938
L5.1307 43.0543
" />
<path d="M5.1307 43.0543
L4.8887 43.0543
" />
<path d="M4.8887 43.0543
L4.7678 42.9938
" />
<path d="M4.7678 42.9938
L4.7073 42.8728
" />
<path d="M4.7073 42.8728
L4.7073 42.3890
" />
<path d="M4.7073 42.3890
L4.7678 42.2681
" />
<path d="M4.7678 42.2681
L4.8887 42.2076
" />
<path d="M4.8887 42.2076
L5.1307 42.2076
" />
<path d="M5.1307 42.2076
L5.2516 42.2681
" />
<path d="M5.2516 42.2681
L5.3121 42.3890
" />
<path d="M5.3121 42.3890
L5.3121 42.5100
" />
<path d="M5.3121 42.5100
L4.7073 42.6309
" />
<path d="M6.4006 43.0543
L6.4006 42.3890
" />
<path d="M6.4006 42.3890
L6.3402 42.2681
" />
<path d="M6.3402 42.2681
L6.2192 42.2076
" />
<path d="M6.2192 42.2076
L5.9773 42.2076
" />
<path d="M5.9773 42.2076
L5.8564 42.2681
" />
<path d="M6.4006 42.9938
L6.2797 43.0543
" />
<path d="M6.2797 43.0543
L5.9773 43.0543
" />
<path d="M5.9773 43.0543
L5.8564 42.9938
" />
<path d="M5.8564 42.9938
L5.7959 42.8728
" />
<path d="M5.7959 42.8728
L5.7959 42.7519
" />
<path d="M5.7959 42.7519
L5.8564 42.6309
" />
<path d="M5.8564 42.6309
L5.9773 42.5705
" />
<path d="M5.9773 42.5705
L6.2797 42.5705
" />
<path d="M6.2797 42.5705
L6.4006 42.5100
" />
<path d="M7.5497 43.0543
L7.5497 41.7843
" />
<path d="M7.5497 42.9938
L7.4287 43.0543
" />
<path d="M7.4287 43.0543
L7.1868 43.0543
" />
<path d="M7.1868 43.0543
L7.0659 42.9938
" />
<path d="M7.0659 42.9938
L7.0054 42.9333
" />
<path d="M7.0054 42.9333
L6.9449 42.8124
" />
<path d="M6.9449 42.8124
L6.9449 42.4495
" />
<path d="M6.9449 42.4495
L7.0054 42.3286
" />
<path d="M7.0054 42.3286
L7.0659 42.2681
" />
<path d="M7.0659 42.2681
L7.1868 42.2076
" />
<path d="M7.1868 42.2076
L7.4287 42.2076
" />
<path d="M7.4287 42.2076
L7.5497 42.2681
" />
<path d="M8.6383 42.9938
L8.5173 43.0543
" />
<path d="M8.5173 43.0543
L8.2754 43.0543
" />
<path d="M8.2754 43.0543
L8.1545 42.9938
" />
<path d="M8.1545 42.9938
L8.0940 42.8728
" />
<path d="M8.0940 42.8728
L8.0940 42.3890
" />
<path d="M8.0940 42.3890
L8.1545 42.2681
" />
<path d="M8.1545 42.2681
L8.2754 42.2076
" />
<path d="M8.2754 42.2076
L8.5173 42.2076
" />
<path d="M8.5173 42.2076
L8.6383 42.2681
" />
<path d="M8.6383 42.2681
L8.6987 42.3890
" />
<path d="M8.6987 42.3890
L8.6987 42.5100
" />
<path d="M8.6987 42.5100
L8.0940 42.6309
" />
<path d="M9.2430 43.0543
L9.2430 42.2076
" />
<path d="M9.2430 42.4495
L9.3035 42.3286
" />
<path d="M9.3035 42.3286
L9.3640 42.2681
" />
<path d="M9.3640 42.2681
L9.4849 42.2076
" />
<path d="M9.4849 42.2076
L9.6059 42.2076
" />
<path d="M9.7268 43.1752
L10.6945 43.1752
" />
<path d="M10.9364 41.9052
L10.9968 41.8447
" />
<path d="M10.9968 41.8447
L11.1178 41.7843
" />
<path d="M11.1178 41.7843
L11.4202 41.7843
" />
<path d="M11.4202 41.7843
L11.5411 41.8447
" />
<path d="M11.5411 41.8447
L11.6016 41.9052
" />
<path d="M11.6016 41.9052
L11.6621 42.0262
" />
<path d="M11.6621 42.0262
L11.6621 42.1471
" />
<path d="M11.6621 42.1471
L11.6016 42.3286
" />
<path d="M11.6016 42.3286
L10.8759 43.0543
" />
<path d="M10.8759 43.0543
L11.6621 43.0543
" />
<path d="M12.0854 43.0543
L12.7506 42.2076
" />
<path d="M12.0854 42.2076
L12.7506 43.0543
" />
<path d="M13.1135 41.7843
L13.8997 41.7843
" />
<path d="M13.8997 41.7843
L13.4764 42.2681
" />
<path d="M13.4764 42.2681
L13.6578 42.2681
" />
<path d="M13.6578 42.2681
L13.7787 42.3286
" />
<path d="M13.7787 42.3286
L13.8392 42.3890
" />
<path d="M13.8392 42.3890
L13.8997 42.5100
" />
<path d="M13.8997 42.5100
L13.8997 42.8124
" />
<path d="M13.8997 42.8124
L13.8392 42.9333
" />
<path d="M13.8392 42.9333
L13.7787 42.9938
" />
<path d="M13.7787 42.9938
L13.6578 43.0543
" />
<path d="M13.6578 43.0543
L13.2949 43.0543
" />
<path d="M13.2949 43.0543
L13.1740 42.9938
" />
<path d="M13.1740 42.9938
L13.1135 42.9333
" />
<path d="M14.3230 41.7843
L15.1092 41.7843
" />
<path d="M15.1092 41.7843
L14.6859 42.2681
" />
<path d="M14.6859 42.2681
L14.8673 42.2681
" />
<path d="M14.8673 42.2681
L14.9883 42.3286
" />
<path d="M14.9883 42.3286
L15.0487 42.3890
" />
<path d="M15.0487 42.3890
L15.1092 42.5100
" />
<path d="M15.1092 42.5100
L15.1092 42.8124
" />
<path d="M15.1092 42.8124
L15.0487 42.9333
" />
<path d="M15.0487 42.9333
L14.9883 42.9938
" />
<path d="M14.9883 42.9938
L14.8673 43.0543
" />
<path d="M14.8673 43.0543
L14.5045 43.0543
" />
<path d="M14.5045 43.0543
L14.3835 42.9938
" />
<path d="M14.3835 42.9938
L14.3230 42.9333
" />
<path d="M15.3511 43.1752
L16.3187 43.1752
" />
<path d="M16.6211 43.0543
L16.6211 41.7843
" />
<path d="M16.6211 41.7843
L17.1049 41.7843
" />
<path d="M17.1049 41.7843
L17.2259 41.8447
" />
<path d="M17.2259 41.8447
L17.2864 41.9052
" />
<path d="M17.2864 41.9052
L17.3468 42.0262
" />
<path d="M17.3468 42.0262
L17.3468 42.2076
" />
<path d="M17.3468 42.2076
L17.2864 42.3286
" />
<path d="M17.2864 42.3286
L17.2259 42.3890
" />
<path d="M17.2259 42.3890
L17.1049 42.4495
" />
<path d="M17.1049 42.4495
L16.6211 42.4495
" />
<path d="M17.8306 41.9052
L17.8911 41.8447
" />
<path d="M17.8911 41.8447
L18.0121 41.7843
" />
<path d="M18.0121 41.7843
L18.3145 41.7843
" />
<path d="M18.3145 41.7843
L18.4354 41.8447
" />
<path d="M18.4354 41.8447
L18.4959 41.9052
" />
<path d="M18.4959 41.9052
L18.5564 42.0262
" />
<path d="M18.5564 42.0262
L18.5564 42.1471
" />
<path d="M18.5564 42.1471
L18.4959 42.3286
" />
<path d="M18.4959 42.3286
L17.7702 43.0543
" />
<path d="M17.7702 43.0543
L18.5564 43.0543
" />
<path d="M19.1006 42.9333
L19.1611 42.9938
" />
<path d="M19.1611 42.9938
L19.1006 43.0543
" />
<path d="M19.1006 43.0543
L19.0402 42.9938
" />
<path d="M19.0402 42.9938
L19.1006 42.9333
" />
<path d="M19.1006 42.9333
L19.1006 43.0543
" />
<path d="M20.3102 41.7843
L19.7054 41.7843
" />
<path d="M19.7054 41.7843
L19.6449 42.3890
" />
<path d="M19.6449 42.3890
L19.7054 42.3286
" />
<path d="M19.7054 42.3286
L19.8264 42.2681
" />
<path d="M19.8264 42.2681
L20.1287 42.2681
" />
<path d="M20.1287 42.2681
L20.2497 42.3286
" />
<path d="M20.2497 42.3286
L20.3102 42.3890
" />
<path d="M20.3102 42.3890
L20.3706 42.5100
" />
<path d="M20.3706 42.5100
L20.3706 42.8124
" />
<path d="M20.3706 42.8124
L20.3102 42.9333
" />
<path d="M20.3102 42.9333
L20.2497 42.9938
" />
<path d="M20.2497 42.9938
L20.1287 43.0543
" />
<path d="M20.1287 43.0543
L19.8264 43.0543
" />
<path d="M19.8264 43.0543
L19.7054 42.9938
" />
<path d="M19.7054 42.9938
L19.6449 42.9333
" />
<path d="M21.4592 42.2076
L21.4592 43.0543
" />
<path d="M21.1568 41.7238
L20.8545 42.6309
" />
<path d="M20.8545 42.6309
L21.6406 42.6309
" />
<path d="M22.1245 43.0543
L22.1245 42.2076
" />
<path d="M22.1245 42.3286
L22.1849 42.2681
" />
<path d="M22.1849 42.2681
L22.3059 42.2076
" />
<path d="M22.3059 42.2076
L22.4873 42.2076
" />
<path d="M22.4873 42.2076
L22.6083 42.2681
" />
<path d="M22.6083 42.2681
L22.6687 42.3890
" />
<path d="M22.6687 42.3890
L22.6687 43.0543
" />
<path d="M22.6687 42.3890
L22.7292 42.2681
" />
<path d="M22.7292 42.2681
L22.8502 42.2076
" />
<path d="M22.8502 42.2076
L23.0316 42.2076
" />
<path d="M23.0316 42.2076
L23.1526 42.2681
" />
<path d="M23.1526 42.2681
L23.2130 42.3890
" />
<path d="M23.2130 42.3890
L23.2130 43.0543
" />
<path d="M23.8178 43.0543
L23.8178 42.2076
" />
<path d="M23.8178 42.3286
L23.8783 42.2681
" />
<path d="M23.8783 42.2681
L23.9992 42.2076
" />
<path d="M23.9992 42.2076
L24.1806 42.2076
" />
<path d="M24.1806 42.2076
L24.3016 42.2681
" />
<path d="M24.3016 42.2681
L24.3621 42.3890
" />
<path d="M24.3621 42.3890
L24.3621 43.0543
" />
<path d="M24.3621 42.3890
L24.4226 42.2681
" />
<path d="M24.4226 42.2681
L24.5435 42.2076
" />
<path d="M24.5435 42.2076
L24.7249 42.2076
" />
<path d="M24.7249 42.2076
L24.8459 42.2681
" />
<path d="M24.8459 42.2681
L24.9064 42.3890
" />
<path d="M24.9064 42.3890
L24.9064 43.0543
" />
<path d="M25.2087 43.1752
L26.1764 43.1752
" />
<path d="M26.2973 41.7843
L26.7206 43.0543
" />
<path d="M26.7206 43.0543
L27.1440 41.7843
" />
<path d="M28.0511 42.9938
L27.9302 43.0543
" />
<path d="M27.9302 43.0543
L27.6883 43.0543
" />
<path d="M27.6883 43.0543
L27.5673 42.9938
" />
<path d="M27.5673 42.9938
L27.5068 42.8728
" />
<path d="M27.5068 42.8728
L27.5068 42.3890
" />
<path d="M27.5068 42.3890
L27.5673 42.2681
" />
<path d="M27.5673 42.2681
L27.6883 42.2076
" />
<path d="M27.6883 42.2076
L27.9302 42.2076
" />
<path d="M27.9302 42.2076
L28.0511 42.2681
" />
<path d="M28.0511 42.2681
L28.1116 42.3890
" />
<path d="M28.1116 42.3890
L28.1116 42.5100
" />
<path d="M28.1116 42.5100
L27.5068 42.6309
" />
<path d="M28.6559 43.0543
L28.6559 42.2076
" />
<path d="M28.6559 42.4495
L28.7164 42.3286
" />
<path d="M28.7164 42.3286
L28.7768 42.2681
" />
<path d="M28.7768 42.2681
L28.8978 42.2076
" />
<path d="M28.8978 42.2076
L29.0187 42.2076
" />
<path d="M29.2606 42.2076
L29.7445 42.2076
" />
<path d="M29.4421 41.7843
L29.4421 42.8728
" />
<path d="M29.4421 42.8728
L29.5026 42.9938
" />
<path d="M29.5026 42.9938
L29.6235 43.0543
" />
<path d="M29.6235 43.0543
L29.7445 43.0543
" />
<path d="M30.1678 43.0543
L30.1678 42.2076
" />
<path d="M30.1678 41.7843
L30.1073 41.8447
" />
<path d="M30.1073 41.8447
L30.1678 41.9052
" />
<path d="M30.1678 41.9052
L30.2283 41.8447
" />
<path d="M30.2283 41.8447
L30.1678 41.7843
" />
<path d="M30.1678 41.7843
L30.1678 41.9052
" />
<path d="M31.3168 42.9938
L31.1959 43.0543
" />
<path d="M31.1959 43.0543
L30.9540 43.0543
" />
<path d="M30.9540 43.0543
L30.8330 42.9938
" />
<path d="M30.8330 42.9938
L30.7726 42.9333
" />
<path d="M30.7726 42.9333
L30.7121 42.8124
" />
<path d="M30.7121 42.8124
L30.7121 42.4495
" />
<path d="M30.7121 42.4495
L30.7726 42.3286
" />
<path d="M30.7726 42.3286
L30.8330 42.2681
" />
<path d="M30.8330 42.2681
L30.9540 42.2076
" />
<path d="M30.9540 42.2076
L31.1959 42.2076
" />
<path d="M31.1959 42.2076
L31.3168 42.2681
" />
<path d="M32.4054 43.0543
L32.4054 42.3890
" />
<path d="M32.4054 42.3890
L32.3449 42.2681
" />
<path d="M32.3449 42.2681
L32.2240 42.2076
" />
<path d="M32.2240 42.2076
L31.9821 42.2076
" />
<path d="M31.9821 42.2076
L31.8611 42.2681
" />
<path d="M32.4054 42.9938
L32.2845 43.0543
" />
<path d="M32.2845 43.0543
L31.9821 43.0543
" />
<path d="M31.9821 43.0543
L31.8611 42.9938
" />
<path d="M31.8611 42.9938
L31.8006 42.8728
" />
<path d="M31.8006 42.8728
L31.8006 42.7519
" />
<path d="M31.8006 42.7519
L31.8611 42.6309
" />
<path d="M31.8611 42.6309
L31.9821 42.5705
" />
<path d="M31.9821 42.5705
L32.2845 42.5705
" />
<path d="M32.2845 42.5705
L32.4054 42.5100
" />
<path d="M33.1916 43.0543
L33.0706 42.9938
" />
<path d="M33.0706 42.9938
L33.0102 42.8728
" />
<path d="M33.0102 42.8728
L33.0102 41.7843
" />
<path d="M33.3730 43.1752
L34.3406 43.1752
" />
<path d="M34.5826 42.9938
L34.7640 43.0543
" />
<path d="M34.7640 43.0543
L35.0664 43.0543
" />
<path d="M35.0664 43.0543
L35.1873 42.9938
" />
<path d="M35.1873 42.9938
L35.2478 42.9333
" />
<path d="M35.2478 42.9333
L35.3083 42.8124
" />
<path d="M35.3083 42.8124
L35.3083 42.6914
" />
<path d="M35.3083 42.6914
L35.2478 42.5705
" />
<path d="M35.2478 42.5705
L35.1873 42.5100
" />
<path d="M35.1873 42.5100
L35.0664 42.4495
" />
<path d="M35.0664 42.4495
L34.8245 42.3890
" />
<path d="M34.8245 42.3890
L34.7035 42.3286
" />
<path d="M34.7035 42.3286
L34.6430 42.2681
" />
<path d="M34.6430 42.2681
L34.5826 42.1471
" />
<path d="M34.5826 42.1471
L34.5826 42.0262
" />
<path d="M34.5826 42.0262
L34.6430 41.9052
" />
<path d="M34.6430 41.9052
L34.7035 41.8447
" />
<path d="M34.7035 41.8447
L34.8245 41.7843
" />
<path d="M34.8245 41.7843
L35.1268 41.7843
" />
<path d="M35.1268 41.7843
L35.3083 41.8447
" />
<path d="M35.8526 43.0543
L35.8526 41.7843
" />
<path d="M35.8526 41.7843
L36.2759 42.6914
" />
<path d="M36.2759 42.6914
L36.6992 41.7843
" />
<path d="M36.6992 41.7843
L36.6992 43.0543
" />
<path d="M37.3040 43.0543
L37.3040 41.7843
" />
<path d="M37.3040 41.7843
L37.6064 41.7843
" />
<path d="M37.6064 41.7843
L37.7878 41.8447
" />
<path d="M37.7878 41.8447
L37.9087 41.9657
" />
<path d="M37.9087 41.9657
L37.9692 42.0867
" />
<path d="M37.9692 42.0867
L38.0297 42.3286
" />
<path d="M38.0297 42.3286
L38.0297 42.5100
" />
<path d="M38.0297 42.5100
L37.9692 42.7519
" />
<path d="M37.9692 42.7519
L37.9087 42.8728
" />
<path d="M37.9087 42.8728
L37.7878 42.9938
" />
<path d="M37.7878 42.9938
L37.6064 43.0543
" />
<path d="M37.6064 43.0543
L37.3040 43.0543
" />
</g></g>
<g style="fill:none; 
stroke:#AFAFAF; stroke-width:0.1500; stroke-opacity:1; 
stroke-linecap:round; stroke-linejoin:round;">
<g transform="rotate(-90.000000 19.1914 42.4750)">
<text x="19.1914" y="42.9750"
textLength="4.5357" font-size="1.3333" lengthAdjust="spacingAndGlyphs"
text-anchor="middle" opacity="0">REF**</text>
</g>
<g class="stroked-text"><desc>REF**</desc>
<path d="M19.6462 43.8083
L19.1700 44.1417
" />
<path d="M19.6462 44.3798
L18.6462 44.3798
" />
<path d="M18.6462 44.3798
L18.6462 43.9988
" />
<path d="M18.6462 43.9988
L18.6938 43.9036
" />
<path d="M18.6938 43.9036
L18.7414 43.8560
" />
<path d="M18.7414 43.8560
L18.8367 43.8083
" />
<path d="M18.8367 43.8083
L18.9795 43.8083
" />
<path d="M18.9795 43.8083
L19.0748 43.8560
" />
<path d="M19.0748 43.8560
L19.1224 43.9036
" />
<path d="M19.1224 43.9036
L19.1700 43.9988
" />
<path d="M19.1700 43.9988
L19.1700 44.3798
" />
<path d="M19.1224 43.3798
L19.1224 43.0464
" />
<path d="M19.6462 42.9036
L19.6462 43.3798
" />
<path d="M19.6462 43.3798
L18.6462 43.3798
" />
<path d="M18.6462 43.3798
L18.6462 42.9036
" />
<path d="M19.1224 42.1417
L19.1224 42.4750
" />
<path d="M19.6462 42.4750
L18.6462 42.4750
" />
<path d="M18.6462 42.4750
L18.6462 41.9988
" />
<path d="M18.6462 41.4750
L18.8843 41.4750
" />
<path d="M18.7890 41.7131
L18.8843 41.4750
" />
<path d="M18.8843 41.4750
L18.7890 41.2369
" />
<path d="M19.0748 41.6179
L18.8843 41.4750
" />
<path d="M18.8843 41.4750
L19.0748 41.3321
" />
<path d="M18.6462 40.7131
L18.8843 40.7131
" />
<path d="M18.7890 40.9512
L18.8843 40.7131
" />
<path d="M18.8843 40.7131
L18.7890 40.4750
" />
<path d="M19.0748 40.8560
L18.8843 40.7131
" />
<path d="M18.8843 40.7131
L19.0748 40.5702
" />
</g></g>
<g style="fill:none; 
stroke:#AFAFAF; stroke-width:0.1000; stroke-opacity:1; 
stroke-linecap:round; stroke-linejoin:round;">
<path d="M15.5914 1.5150
L15.5914 2.1550
" />
<path d="M15.5914 2.1550
L16.6514 2.1550
" />
<path d="M15.5914 4.0550
L15.5914 4.6950
" />
<path d="M15.5914 4.6950
L16.6514 4.6950
" />
<path d="M15.5914 6.5950
L15.5914 7.2350
" />
<path d="M15.5914 7.2350
L16.6514 7.2350
" />
<path d="M15.5914 9.1350
L15.5914 9.7750
" />
<path d="M15.5914 9.7750
L16.6514 9.7750
" />
<path d="M15.5914 11.6750
L15.5914 12.3150
" />
<path d="M15.5914 12.3150
L16.6514 12.3150
" />
<path d="M15.5914 14.2150
L15.5914 14.8550
" />
<path d="M15.5914 14.8550
L16.6514 14.8550
" />
<path d="M15.5914 16.7550
L15.5914 17.3950
" />
<path d="M15.5914 17.3950
L16.6514 17.3950
" />
<path d="M15.5914 19.2950
L15.5914 19.9350
" />
<path d="M15.5914 19.9350
L16.6514 19.9350
" />
<path d="M15.5914 21.8350
L15.5914 22.4750
" />
<path d="M15.5914 22.4750
L16.6514 22.4750
" />
<path d="M15.5914 24.3750
L15.5914 25.0150
" />
<path d="M15.5914 25.0150
L16.6514 25.0150
" />
<path d="M15.5914 26.9150
L15.5914 27.5550
" />
<path d="M15.5914 27.5550
L16.6514 27.5550
" />
<path d="M15.5914 29.4550
L15.5914 30.0950
" />
<path d="M15.5914 30.0950
L16.6514 30.0950
" />
<path d="M15.5914 31.9950
L15.5914 32.6350
" />
<path d="M15.5914 32.6350
L16.6514 32.6350
" />
<path d="M15.5914 34.5350
L15.5914 35.1750
" />
<path d="M15.5914 35.1750
L16.6514 35.1750
" />
<path d="M15.5914 37.0750
L15.5914 37.7150
" />
<path d="M15.5914 37.7150
L16.6514 37.7150
" />
<path d="M15.5914 39.6150
L15.5914 40.2550
" />
<path d="M15.5914 40.2550
L16.6514 40.2550
" />
<path d="M15.5914 42.1550
L15.5914 42.7950
" />
<path d="M15.5914 42.7950
L16.6514 42.7950
" />
<path d="M15.5914 44.6950
L15.5914 45.3350
" />
<path d="M15.5914 45.3350
L16.6514 45.3350
" />
<path d="M15.5914 47.2350
L15.5914 47.8750
" />
<path d="M15.5914 47.8750
L16.6514 47.8750
" />
<path d="M15.5914 49.7750
L15.5914 50.4150
" />
<path d="M15.5914 50.4150
L16.6514 50.4150
" />
<path d="M15.5914 52.3150
L15.5914 52.9550
" />
<path d="M15.5914 52.9550
L16.6514 52.9550
" />
<path d="M15.5914 54.8550
L15.5914 55.4950
" />
<path d="M15.5914 55.4950
L16.6514 55.4950
" />
<path d="M15.5914 57.3950
L15.5914 58.0350
" />
<path d="M15.5914 58.0350
L16.6514 58.0350
" />
<path d="M15.5914 59.9350
L15.5914 60.5750
" />
<path d="M15.5914 60.5750
L16.6514 60.5750
" />
<path d="M15.5914 62.4750
L15.5914 63.1150
" />
<path d="M15.5914 63.1150
L16.6514 63.1150
" />
<path d="M15.5914 65.0150
L15.5914 65.6550
" />
<path d="M15.5914 65.6550
L16.6514 65.6550
" />
<path d="M15.5914 67.5550
L15.5914 68.1950
" />
<path d="M15.5914 68.1950
L16.6514 68.1950
" />
<path d="M15.5914 70.0950
L15.5914 70.7350
" />
<path d="M15.5914 70.7350
L16.6514 70.7350
" />
<path d="M15.5914 72.6350
L15.5914 73.2750
" />
<path d="M15.5914 73.2750
L16.6514 73.2750
" />
<path d="M15.5914 75.1750
L15.5914 75.8150
" />
<path d="M15.5914 75.8150
L16.6514 75.8150
" />
<path d="M15.5914 77.7150
L15.5914 78.3550
" />
<path d="M15.5914 78.3550
L16.6514 78.3550
" />
<path d="M15.5914 80.2550
L15.5914 80.8950
" />
<path d="M15.5914 80.8950
L16.6514 80.8950
" />
<path d="M15.5914 82.7950
L15.5914 83.4350
" />
<path d="M15.5914 83.4350
L16.6514 83.4350
" />
<path d="M16.6514 1.5150
L15.5914 1.5150
" />
<path d="M16.6514 1.5150
L17.6014 0.5650
" />
<path d="M16.6514 4.0550
L15.5914 4.0550
" />
<path d="M16.6514 6.5950
L15.5914 6.5950
" />
<path d="M16.6514 9.1350
L15.5914 9.1350
" />
<path d="M16.6514 11.6750
L15.5914 11.6750
" />
<path d="M16.6514 14.2150
L15.5914 14.2150
" />
<path d="M16.6514 16.7550
L15.5914 16.7550
" />
<path d="M16.6514 19.2950
L15.5914 19.2950
" />
<path d="M16.6514 21.8350
L15.5914 21.8350
" />
<path d="M16.6514 24.3750
L15.5914 24.3750
" />
<path d="M16.6514 26.9150
L15.5914 26.9150
" />
<path d="M16.6514 29.4550
L15.5914 29.4550
" />
<path d="M16.6514 31.9950
L15.5914 31.9950
" />
<path d="M16.6514 34.5350
L15.5914 34.5350
" />
<path d="M16.6514 37.0750
L15.5914 37.0750
" />
<path d="M16.6514 39.6150
L15.5914 39.6150
" />
<path d="M16.6514 42.1550
L15.5914 42.1550
" />
<path d="M16.6514 44.6950
L15.5914 44.6950
" />
<path d="M16.6514 47.2350
L15.5914 47.2350
" />
<path d="M16.6514 49.7750
L15.5914 49.7750
" />
<path d="M16.6514 52.3150
L15.5914 52.3150
" />
<path d="M16.6514 54.8550
L15.5914 54.8550
" />
<path d="M16.6514 57.3950
L15.5914 57.3950
" />
<path d="M16.6514 59.9350
L15.5914 59.9350
" />
<path d="M16.6514 62.4750
L15.5914 62.4750
" />
<path d="M16.6514 65.0150
L15.5914 65.0150
" />
<path d="M16.6514 67.5550
L15.5914 67.5550
" />
<path d="M16.6514 70.0950
L15.5914 70.0950
" />
<path d="M16.6514 72.6350
L15.5914 72.6350
" />
<path d="M16.6514 75.1750
L15.5914 75.1750
" />
<path d="M16.6514 77.7150
L15.5914 77.7150
" />
<path d="M16.6514 80.2550
L15.5914 80.2550
" />
<path d="M16.6514 82.7950
L15.5914 82.7950
" />
<path d="M16.6514 84.3850
L16.6514 1.5150
" />
<path d="M17.6014 0.5650
L21.7314 0.5650
" />
<path d="M21.7314 0.5650
L21.7314 84.3850
" />
<path d="M21.7314 1.5150
L22.7914 1.5150
" />
<path d="M21.7314 4.0550
L22.7914 4.0550
" />
<path d="M21.7314 6.5950
L22.7914 6.5950
" />
<path d="M21.7314 9.1350
L22.7914 9.1350
" />
<path d="M21.7314 11.6750
L22.7914 11.6750
" />
<path d="M21.7314 14.2150
L22.7914 14.2150
" />
<path d="M21.7314 16.7550
L22.7914 16.7550
" />
<path d="M21.7314 19.2950
L22.7914 19.2950
" />
<path d="M21.7314 21.8350
L22.7914 21.8350
" />
<path d="M21.7314 24.3750
L22.7914 24.3750
" />
<path d="M21.7314 26.9150
L22.7914 26.9150
" />
<path d="M21.7314 29.4550
L22.7914 29.4550
" />
<path d="M21.7314 31.9950
L22.7914 31.9950
" />
<path d="M21.7314 34.5350
L22.7914 34.5350
" />
<path d="M21.7314 37.0750
L22.7914 37.0750
" />
<path d="M21.7314 39.6150
L22.7914 39.6150
" />
<path d="M21.7314 42.1550
L22.7914 42.1550
" />
<path d="M21.7314 44.6950
L22.7914 44.6950
" />
<path d="M21.7314 47.2350
L22.7914 47.2350
" />
<path d="M21.7314 49.7750
L22.7914 49.7750
" />
<path d="M21.7314 52.3150
L22.7914 52.3150
" />
<path d="M21.7314 54.8550
L22.7914 54.8550
" />
<path d="M21.7314 57.3950
L22.7914 57.3950
" />
<path d="M21.7314 59.9350
L22.7914 59.9350
" />
<path d="M21.7314 62.4750
L22.7914 62.4750
" />
<path d="M21.7314 65.0150
L22.7914 65.0150
" />
<path d="M21.7314 67.5550
L22.7914 67.5550
" />
<path d="M21.7314 70.0950
L22.7914 70.0950
" />
<path d="M21.7314 72.6350
L22.7914 72.6350
" />
<path d="M21.7314 75.1750
L22.7914 75.1750
" />
<path d="M21.7314 77.7150
L22.7914 77.7150
" />
<path d="M21.7314 80.2550
L22.7914 80.2550
" />
<path d="M21.7314 82.7950
L22.7914 82.7950
" />
<path d="M21.7314 84.3850
L16.6514 84.3850
" />
<path d="M22.7914 1.5150
L22.7914 2.1550
" />
<path d="M22.7914 2.1550
L21.7314 2.1550
" />
<path d="M22.7914 4.0550
L22.7914 4.6950
" />
<path d="M22.7914 4.6950
L21.7314 4.6950
" />
<path d="M22.7914 6.5950
L22.7914 7.2350
" />
<path d="M22.7914 7.2350
L21.7314 7.2350
" />
<path d="M22.7914 9.1350
L22.7914 9.7750
" />
<path d="M22.7914 9.7750
L21.7314 9.7750
" />
<path d="M22.7914 11.6750
L22.7914 12.3150
" />
<path d="M22.7914 12.3150
L21.7314 12.3150
" />
<path d="M22.7914 14.2150
L22.7914 14.8550
" />
<path d="M22.7914 14.8550
L21.7314 14.8550
" />
<path d="M22.7914 16.7550
L22.7914 17.3950
" />
<path d="M22.7914 17.3950
L21.7314 17.3950
" />
<path d="M22.7914 19.2950
L22.7914 19.9350
" />
<path d="M22.7914 19.9350
L21.7314 19.9350
" />
<path d="M22.7914 21.8350
L22.7914 22.4750
" />
<path d="M22.7914 22.4750
L21.7314 22.4750
" />
<path d="M22.7914 24.3750
L22.7914 25.0150
" />
<path d="M22.7914 25.0150
L21.7314 25.0150
" />
<path d="M22.7914 26.9150
L22.7914 27.5550
" />
<path d="M22.7914 27.5550
L21.7314 27.5550
" />
<path d="M22.7914 29.4550
L22.7914 30.0950
" />
<path d="M22.7914 30.0950
L21.7314 30.0950
" />
<path d="M22.7914 31.9950
L22.7914 32.6350
" />
<path d="M22.7914 32.6350
L21.7314 32.6350
" />
<path d="M22.7914 34.5350
L22.7914 35.1750
" />
<path d="M22.7914 35.1750
L21.7314 35.1750
" />
<path d="M22.7914 37.0750
L22.7914 37.7150
" />
<path d="M22.7914 37.7150
L21.7314 37.7150
" />
<path d="M22.7914 39.6150
L22.7914 40.2550
" />
<path d="M22.7914 40.2550
L21.7314 40.2550
" />
<path d="M22.7914 42.1550
L22.7914 42.7950
" />
<path d="M22.7914 42.7950
L21.7314 42.7950
" />
<path d="M22.7914 44.6950
L22.7914 45.3350
" />
<path d="M22.7914 45.3350
L21.7314 45.3350
" />
<path d="M22.7914 47.2350
L22.7914 47.8750
" />
<path d="M22.7914 47.8750
L21.7314 47.8750
" />
<path d="M22.7914 49.7750
L22.7914 50.4150
" />
<path d="M22.7914 50.4150
L21.7314 50.4150
" />
<path d="M22.7914 52.3150
L22.7914 52.9550
" />
<path d="M22.7914 52.9550
L21.7314 52.9550
" />
<path d="M22.7914 54.8550
L22.7914 55.4950
" />
<path d="M22.7914 55.4950
L21.7314 55.4950
" />
<path d="M22.7914 57.3950
L22.7914 58.0350
" />
<path d="M22.7914 58.0350
L21.7314 58.0350
" />
<path d="M22.7914 59.9350
L22.7914 60.5750
" />
<path d="M22.7914 60.5750
L21.7314 60.5750
" />
<path d="M22.7914 62.4750
L22.7914 63.1150
" />
<path d="M22.7914 63.1150
L21.7314 63.1150
" />
<path d="M22.7914 65.0150
L22.7914 65.6550
" />
<path d="M22.7914 65.6550
L21.7314 65.6550
" />
<path d="M22.7914 67.5550
L22.7914 68.1950
" />
<path d="M22.7914 68.1950
L21.7314 68.1950
" />
<path d="M22.7914 70.0950
L22.7914 70.7350
" />
<path d="M22.7914 70.7350
L21.7314 70.7350
" />
<path d="M22.7914 72.6350
L22.7914 73.2750
" />
<path d="M22.7914 73.2750
L21.7314 73.2750
" />
<path d="M22.7914 75.1750
L22.7914 75.8150
" />
<path d="M22.7914 75.8150
L21.7314 75.8150
" />
<path d="M22.7914 77.7150
L22.7914 78.3550
" />
<path d="M22.7914 78.3550
L21.7314 78.3550
" />
<path d="M22.7914 80.2550
L22.7914 80.8950
" />
<path d="M22.7914 80.8950
L21.7314 80.8950
" />
<path d="M22.7914 82.7950
L22.7914 83.4350
" />
<path d="M22.7914 83.4350
L21.7314 83.4350
" />
</g> 
</svg>
