<?xml version="1.0" standalone="no"?>
 <!DOCTYPE svg PUBLIC "-//W3C//DTD SVG 1.1//EN" 
 "http://www.w3.org/Graphics/SVG/1.1/DTD/svg11.dtd"> 
<svg
  xmlns:svg="http://www.w3.org/2000/svg"
  xmlns="http://www.w3.org/2000/svg"
  xmlns:xlink="http://www.w3.org/1999/xlink"
  version="1.1"
  width="38.0746mm" height="45.4914mm" viewBox="0.0000 0.0000 38.0746 45.4914">
<title>SVG Image created as working-brd.svg date 2024/04/04 10:24:43 </title>
  <desc>Image generated by PCBNEW </desc>
<g style="fill:#000000; fill-opacity:1.0000;stroke:#000000; stroke-opacity:1.0000;
stroke-linecap:round; stroke-linejoin:round;"
 transform="translate(0 0) scale(1 1)">
<path style="fill:#C83434; fill-opacity:1.0000; stroke:none;fill-rule:evenodd;"
d="M 19.7902,1.5600
19.7902,0.8100
21.8902,0.8100
21.8902,1.5600
Z" /> 
<path style="fill:#C83434; fill-opacity:1.0000; stroke:none;fill-rule:evenodd;"
d="M 16.1902,1.5600
16.1902,0.8100
18.2902,0.8100
18.2902,1.5600
Z" /> 
<path style="fill:#C83434; fill-opacity:1.0000; stroke:none;fill-rule:evenodd;"
d="M 19.7902,2.8300
19.7902,2.0800
21.8902,2.0800
21.8902,2.8300
Z" /> 
<path style="fill:#C83434; fill-opacity:1.0000; stroke:none;fill-rule:evenodd;"
d="M 16.1902,2.8300
16.1902,2.0800
18.2902,2.0800
18.2902,2.8300
Z" /> 
<path style="fill:#C83434; fill-opacity:1.0000; stroke:none;fill-rule:evenodd;"
d="M 19.7902,4.1000
19.7902,3.3500
21.8902,3.3500
21.8902,4.1000
Z" /> 
<path style="fill:#C83434; fill-opacity:1.0000; stroke:none;fill-rule:evenodd;"
d="M 16.1902,4.1000
16.1902,3.3500
18.2902,3.3500
18.2902,4.1000
Z" /> 
<path style="fill:#C83434; fill-opacity:1.0000; stroke:none;fill-rule:evenodd;"
d="M 19.7902,5.3700
19.7902,4.6200
21.8902,4.6200
21.8902,5.3700
Z" /> 
<path style="fill:#C83434; fill-opacity:1.0000; stroke:none;fill-rule:evenodd;"
d="M 16.1902,5.3700
16.1902,4.6200
18.2902,4.6200
18.2902,5.3700
Z" /> 
<path style="fill:#C83434; fill-opacity:1.0000; stroke:none;fill-rule:evenodd;"
d="M 19.7902,6.6400
19.7902,5.8900
21.8902,5.8900
21.8902,6.6400
Z" /> 
<path style="fill:#C83434; fill-opacity:1.0000; stroke:none;fill-rule:evenodd;"
d="M 16.1902,6.6400
16.1902,5.8900
18.2902,5.8900
18.2902,6.6400
Z" /> 
<path style="fill:#C83434; fill-opacity:1.0000; stroke:none;fill-rule:evenodd;"
d="M 19.7902,7.9100
19.7902,7.1600
21.8902,7.1600
21.8902,7.9100
Z" /> 
<path style="fill:#C83434; fill-opacity:1.0000; stroke:none;fill-rule:evenodd;"
d="M 16.1902,7.9100
16.1902,7.1600
18.2902,7.1600
18.2902,7.9100
Z" /> 
<path style="fill:#C83434; fill-opacity:1.0000; stroke:none;fill-rule:evenodd;"
d="M 19.7902,9.1800
19.7902,8.4300
21.8902,8.4300
21.8902,9.1800
Z" /> 
<path style="fill:#C83434; fill-opacity:1.0000; stroke:none;fill-rule:evenodd;"
d="M 16.1902,9.1800
16.1902,8.4300
18.2902,8.4300
18.2902,9.1800
Z" /> 
<path style="fill:#C83434; fill-opacity:1.0000; stroke:none;fill-rule:evenodd;"
d="M 19.7902,10.4500
19.7902,9.7000
21.8902,9.7000
21.8902,10.4500
Z" /> 
<path style="fill:#C83434; fill-opacity:1.0000; stroke:none;fill-rule:evenodd;"
d="M 16.1902,10.4500
16.1902,9.7000
18.2902,9.7000
18.2902,10.4500
Z" /> 
<path style="fill:#C83434; fill-opacity:1.0000; stroke:none;fill-rule:evenodd;"
d="M 19.7902,11.7200
19.7902,10.9700
21.8902,10.9700
21.8902,11.7200
Z" /> 
<path style="fill:#C83434; fill-opacity:1.0000; stroke:none;fill-rule:evenodd;"
d="M 16.1902,11.7200
16.1902,10.9700
18.2902,10.9700
18.2902,11.7200
Z" /> 
<path style="fill:#C83434; fill-opacity:1.0000; stroke:none;fill-rule:evenodd;"
d="M 19.7902,12.9900
19.7902,12.2400
21.8902,12.2400
21.8902,12.9900
Z" /> 
<path style="fill:#C83434; fill-opacity:1.0000; stroke:none;fill-rule:evenodd;"
d="M 16.1902,12.9900
16.1902,12.2400
18.2902,12.2400
18.2902,12.9900
Z" /> 
<path style="fill:#C83434; fill-opacity:1.0000; stroke:none;fill-rule:evenodd;"
d="M 19.7902,14.2600
19.7902,13.5100
21.8902,13.5100
21.8902,14.2600
Z" /> 
<path style="fill:#C83434; fill-opacity:1.0000; stroke:none;fill-rule:evenodd;"
d="M 16.1902,14.2600
16.1902,13.5100
18.2902,13.5100
18.2902,14.2600
Z" /> 
<path style="fill:#C83434; fill-opacity:1.0000; stroke:none;fill-rule:evenodd;"
d="M 19.7902,15.5300
19.7902,14.7800
21.8902,14.7800
21.8902,15.5300
Z" /> 
<path style="fill:#C83434; fill-opacity:1.0000; stroke:none;fill-rule:evenodd;"
d="M 16.1902,15.5300
16.1902,14.7800
18.2902,14.7800
18.2902,15.5300
Z" /> 
<path style="fill:#C83434; fill-opacity:1.0000; stroke:none;fill-rule:evenodd;"
d="M 19.7902,16.8000
19.7902,16.0500
21.8902,16.0500
21.8902,16.8000
Z" /> 
<path style="fill:#C83434; fill-opacity:1.0000; stroke:none;fill-rule:evenodd;"
d="M 16.1902,16.8000
16.1902,16.0500
18.2902,16.0500
18.2902,16.8000
Z" /> 
<path style="fill:#C83434; fill-opacity:1.0000; stroke:none;fill-rule:evenodd;"
d="M 19.7902,18.0700
19.7902,17.3200
21.8902,17.3200
21.8902,18.0700
Z" /> 
<path style="fill:#C83434; fill-opacity:1.0000; stroke:none;fill-rule:evenodd;"
d="M 16.1902,18.0700
16.1902,17.3200
18.2902,17.3200
18.2902,18.0700
Z" /> 
<path style="fill:#C83434; fill-opacity:1.0000; stroke:none;fill-rule:evenodd;"
d="M 19.7902,19.3400
19.7902,18.5900
21.8902,18.5900
21.8902,19.3400
Z" /> 
<path style="fill:#C83434; fill-opacity:1.0000; stroke:none;fill-rule:evenodd;"
d="M 16.1902,19.3400
16.1902,18.5900
18.2902,18.5900
18.2902,19.3400
Z" /> 
<path style="fill:#C83434; fill-opacity:1.0000; stroke:none;fill-rule:evenodd;"
d="M 19.7902,20.6100
19.7902,19.8600
21.8902,19.8600
21.8902,20.6100
Z" /> 
<path style="fill:#C83434; fill-opacity:1.0000; stroke:none;fill-rule:evenodd;"
d="M 16.1902,20.6100
16.1902,19.8600
18.2902,19.8600
18.2902,20.6100
Z" /> 
<path style="fill:#C83434; fill-opacity:1.0000; stroke:none;fill-rule:evenodd;"
d="M 19.7902,21.8800
19.7902,21.1300
21.8902,21.1300
21.8902,21.8800
Z" /> 
<path style="fill:#C83434; fill-opacity:1.0000; stroke:none;fill-rule:evenodd;"
d="M 16.1902,21.8800
16.1902,21.1300
18.2902,21.1300
18.2902,21.8800
Z" /> 
<path style="fill:#C83434; fill-opacity:1.0000; stroke:none;fill-rule:evenodd;"
d="M 19.7902,23.1500
19.7902,22.4000
21.8902,22.4000
21.8902,23.1500
Z" /> 
<path style="fill:#C83434; fill-opacity:1.0000; stroke:none;fill-rule:evenodd;"
d="M 16.1902,23.1500
16.1902,22.4000
18.2902,22.4000
18.2902,23.1500
Z" /> 
<path style="fill:#C83434; fill-opacity:1.0000; stroke:none;fill-rule:evenodd;"
d="M 19.7902,24.4200
19.7902,23.6700
21.8902,23.6700
21.8902,24.4200
Z" /> 
<path style="fill:#C83434; fill-opacity:1.0000; stroke:none;fill-rule:evenodd;"
d="M 16.1902,24.4200
16.1902,23.6700
18.2902,23.6700
18.2902,24.4200
Z" /> 
<path style="fill:#C83434; fill-opacity:1.0000; stroke:none;fill-rule:evenodd;"
d="M 19.7902,25.6900
19.7902,24.9400
21.8902,24.9400
21.8902,25.6900
Z" /> 
<path style="fill:#C83434; fill-opacity:1.0000; stroke:none;fill-rule:evenodd;"
d="M 16.1902,25.6900
16.1902,24.9400
18.2902,24.9400
18.2902,25.6900
Z" /> 
<path style="fill:#C83434; fill-opacity:1.0000; stroke:none;fill-rule:evenodd;"
d="M 19.7902,26.9600
19.7902,26.2100
21.8902,26.2100
21.8902,26.9600
Z" /> 
<path style="fill:#C83434; fill-opacity:1.0000; stroke:none;fill-rule:evenodd;"
d="M 16.1902,26.9600
16.1902,26.2100
18.2902,26.2100
18.2902,26.9600
Z" /> 
<path style="fill:#C83434; fill-opacity:1.0000; stroke:none;fill-rule:evenodd;"
d="M 19.7902,28.2300
19.7902,27.4800
21.8902,27.4800
21.8902,28.2300
Z" /> 
<path style="fill:#C83434; fill-opacity:1.0000; stroke:none;fill-rule:evenodd;"
d="M 16.1902,28.2300
16.1902,27.4800
18.2902,27.4800
18.2902,28.2300
Z" /> 
<path style="fill:#C83434; fill-opacity:1.0000; stroke:none;fill-rule:evenodd;"
d="M 19.7902,29.5000
19.7902,28.7500
21.8902,28.7500
21.8902,29.5000
Z" /> 
<path style="fill:#C83434; fill-opacity:1.0000; stroke:none;fill-rule:evenodd;"
d="M 16.1902,29.5000
16.1902,28.7500
18.2902,28.7500
18.2902,29.5000
Z" /> 
<path style="fill:#C83434; fill-opacity:1.0000; stroke:none;fill-rule:evenodd;"
d="M 19.7902,30.7700
19.7902,30.0200
21.8902,30.0200
21.8902,30.7700
Z" /> 
<path style="fill:#C83434; fill-opacity:1.0000; stroke:none;fill-rule:evenodd;"
d="M 16.1902,30.7700
16.1902,30.0200
18.2902,30.0200
18.2902,30.7700
Z" /> 
<path style="fill:#C83434; fill-opacity:1.0000; stroke:none;fill-rule:evenodd;"
d="M 19.7902,32.0400
19.7902,31.2900
21.8902,31.2900
21.8902,32.0400
Z" /> 
<path style="fill:#C83434; fill-opacity:1.0000; stroke:none;fill-rule:evenodd;"
d="M 16.1902,32.0400
16.1902,31.2900
18.2902,31.2900
18.2902,32.0400
Z" /> 
<path style="fill:#C83434; fill-opacity:1.0000; stroke:none;fill-rule:evenodd;"
d="M 19.7902,33.3100
19.7902,32.5600
21.8902,32.5600
21.8902,33.3100
Z" /> 
<path style="fill:#C83434; fill-opacity:1.0000; stroke:none;fill-rule:evenodd;"
d="M 16.1902,33.3100
16.1902,32.5600
18.2902,32.5600
18.2902,33.3100
Z" /> 
<path style="fill:#C83434; fill-opacity:1.0000; stroke:none;fill-rule:evenodd;"
d="M 19.7902,34.5800
19.7902,33.8300
21.8902,33.8300
21.8902,34.5800
Z" /> 
<path style="fill:#C83434; fill-opacity:1.0000; stroke:none;fill-rule:evenodd;"
d="M 16.1902,34.5800
16.1902,33.8300
18.2902,33.8300
18.2902,34.5800
Z" /> 
<path style="fill:#C83434; fill-opacity:1.0000; stroke:none;fill-rule:evenodd;"
d="M 19.7902,35.8500
19.7902,35.1000
21.8902,35.1000
21.8902,35.8500
Z" /> 
<path style="fill:#C83434; fill-opacity:1.0000; stroke:none;fill-rule:evenodd;"
d="M 16.1902,35.8500
16.1902,35.1000
18.2902,35.1000
18.2902,35.8500
Z" /> 
<path style="fill:#C83434; fill-opacity:1.0000; stroke:none;fill-rule:evenodd;"
d="M 19.7902,37.1200
19.7902,36.3700
21.8902,36.3700
21.8902,37.1200
Z" /> 
<path style="fill:#C83434; fill-opacity:1.0000; stroke:none;fill-rule:evenodd;"
d="M 16.1902,37.1200
16.1902,36.3700
18.2902,36.3700
18.2902,37.1200
Z" /> 
<path style="fill:#C83434; fill-opacity:1.0000; stroke:none;fill-rule:evenodd;"
d="M 19.7902,38.3900
19.7902,37.6400
21.8902,37.6400
21.8902,38.3900
Z" /> 
<path style="fill:#C83434; fill-opacity:1.0000; stroke:none;fill-rule:evenodd;"
d="M 16.1902,38.3900
16.1902,37.6400
18.2902,37.6400
18.2902,38.3900
Z" /> 
<path style="fill:#C83434; fill-opacity:1.0000; stroke:none;fill-rule:evenodd;"
d="M 19.7902,39.6600
19.7902,38.9100
21.8902,38.9100
21.8902,39.6600
Z" /> 
<path style="fill:#C83434; fill-opacity:1.0000; stroke:none;fill-rule:evenodd;"
d="M 16.1902,39.6600
16.1902,38.9100
18.2902,38.9100
18.2902,39.6600
Z" /> 
<path style="fill:#C83434; fill-opacity:1.0000; stroke:none;fill-rule:evenodd;"
d="M 19.7902,40.9300
19.7902,40.1800
21.8902,40.1800
21.8902,40.9300
Z" /> 
<path style="fill:#C83434; fill-opacity:1.0000; stroke:none;fill-rule:evenodd;"
d="M 16.1902,40.9300
16.1902,40.1800
18.2902,40.1800
18.2902,40.9300
Z" /> 
<path style="fill:#C83434; fill-opacity:1.0000; stroke:none;fill-rule:evenodd;"
d="M 19.7902,42.2000
19.7902,41.4500
21.8902,41.4500
21.8902,42.2000
Z" /> 
<path style="fill:#C83434; fill-opacity:1.0000; stroke:none;fill-rule:evenodd;"
d="M 16.1902,42.2000
16.1902,41.4500
18.2902,41.4500
18.2902,42.2000
Z" /> 
<path style="fill:#C83434; fill-opacity:1.0000; stroke:none;fill-rule:evenodd;"
d="M 19.7902,43.4700
19.7902,42.7200
21.8902,42.7200
21.8902,43.4700
Z" /> 
<path style="fill:#C83434; fill-opacity:1.0000; stroke:none;fill-rule:evenodd;"
d="M 16.1902,43.4700
16.1902,42.7200
18.2902,42.7200
18.2902,43.4700
Z" /> 
<path style="fill:#C83434; fill-opacity:1.0000; stroke:none;fill-rule:evenodd;"
d="M 19.7902,44.7400
19.7902,43.9900
21.8902,43.9900
21.8902,44.7400
Z" /> 
<path style="fill:#C83434; fill-opacity:1.0000; stroke:none;fill-rule:evenodd;"
d="M 16.1902,44.7400
16.1902,43.9900
18.2902,43.9900
18.2902,44.7400
Z" /> 
<path style="fill:#D864FF; fill-opacity:0.4000; stroke:none;fill-rule:evenodd;"
d="M 19.7902,1.5600
19.7902,0.8100
21.8902,0.8100
21.8902,1.5600
Z" /> 
<path style="fill:#D864FF; fill-opacity:0.4000; stroke:none;fill-rule:evenodd;"
d="M 16.1902,1.5600
16.1902,0.8100
18.2902,0.8100
18.2902,1.5600
Z" /> 
<path style="fill:#D864FF; fill-opacity:0.4000; stroke:none;fill-rule:evenodd;"
d="M 19.7902,2.8300
19.7902,2.0800
21.8902,2.0800
21.8902,2.8300
Z" /> 
<path style="fill:#D864FF; fill-opacity:0.4000; stroke:none;fill-rule:evenodd;"
d="M 16.1902,2.8300
16.1902,2.0800
18.2902,2.0800
18.2902,2.8300
Z" /> 
<path style="fill:#D864FF; fill-opacity:0.4000; stroke:none;fill-rule:evenodd;"
d="M 19.7902,4.1000
19.7902,3.3500
21.8902,3.3500
21.8902,4.1000
Z" /> 
<path style="fill:#D864FF; fill-opacity:0.4000; stroke:none;fill-rule:evenodd;"
d="M 16.1902,4.1000
16.1902,3.3500
18.2902,3.3500
18.2902,4.1000
Z" /> 
<path style="fill:#D864FF; fill-opacity:0.4000; stroke:none;fill-rule:evenodd;"
d="M 19.7902,5.3700
19.7902,4.6200
21.8902,4.6200
21.8902,5.3700
Z" /> 
<path style="fill:#D864FF; fill-opacity:0.4000; stroke:none;fill-rule:evenodd;"
d="M 16.1902,5.3700
16.1902,4.6200
18.2902,4.6200
18.2902,5.3700
Z" /> 
<path style="fill:#D864FF; fill-opacity:0.4000; stroke:none;fill-rule:evenodd;"
d="M 19.7902,6.6400
19.7902,5.8900
21.8902,5.8900
21.8902,6.6400
Z" /> 
<path style="fill:#D864FF; fill-opacity:0.4000; stroke:none;fill-rule:evenodd;"
d="M 16.1902,6.6400
16.1902,5.8900
18.2902,5.8900
18.2902,6.6400
Z" /> 
<path style="fill:#D864FF; fill-opacity:0.4000; stroke:none;fill-rule:evenodd;"
d="M 19.7902,7.9100
19.7902,7.1600
21.8902,7.1600
21.8902,7.9100
Z" /> 
<path style="fill:#D864FF; fill-opacity:0.4000; stroke:none;fill-rule:evenodd;"
d="M 16.1902,7.9100
16.1902,7.1600
18.2902,7.1600
18.2902,7.9100
Z" /> 
<path style="fill:#D864FF; fill-opacity:0.4000; stroke:none;fill-rule:evenodd;"
d="M 19.7902,9.1800
19.7902,8.4300
21.8902,8.4300
21.8902,9.1800
Z" /> 
<path style="fill:#D864FF; fill-opacity:0.4000; stroke:none;fill-rule:evenodd;"
d="M 16.1902,9.1800
16.1902,8.4300
18.2902,8.4300
18.2902,9.1800
Z" /> 
<path style="fill:#D864FF; fill-opacity:0.4000; stroke:none;fill-rule:evenodd;"
d="M 19.7902,10.4500
19.7902,9.7000
21.8902,9.7000
21.8902,10.4500
Z" /> 
<path style="fill:#D864FF; fill-opacity:0.4000; stroke:none;fill-rule:evenodd;"
d="M 16.1902,10.4500
16.1902,9.7000
18.2902,9.7000
18.2902,10.4500
Z" /> 
<path style="fill:#D864FF; fill-opacity:0.4000; stroke:none;fill-rule:evenodd;"
d="M 19.7902,11.7200
19.7902,10.9700
21.8902,10.9700
21.8902,11.7200
Z" /> 
<path style="fill:#D864FF; fill-opacity:0.4000; stroke:none;fill-rule:evenodd;"
d="M 16.1902,11.7200
16.1902,10.9700
18.2902,10.9700
18.2902,11.7200
Z" /> 
<path style="fill:#D864FF; fill-opacity:0.4000; stroke:none;fill-rule:evenodd;"
d="M 19.7902,12.9900
19.7902,12.2400
21.8902,12.2400
21.8902,12.9900
Z" /> 
<path style="fill:#D864FF; fill-opacity:0.4000; stroke:none;fill-rule:evenodd;"
d="M 16.1902,12.9900
16.1902,12.2400
18.2902,12.2400
18.2902,12.9900
Z" /> 
<path style="fill:#D864FF; fill-opacity:0.4000; stroke:none;fill-rule:evenodd;"
d="M 19.7902,14.2600
19.7902,13.5100
21.8902,13.5100
21.8902,14.2600
Z" /> 
<path style="fill:#D864FF; fill-opacity:0.4000; stroke:none;fill-rule:evenodd;"
d="M 16.1902,14.2600
16.1902,13.5100
18.2902,13.5100
18.2902,14.2600
Z" /> 
<path style="fill:#D864FF; fill-opacity:0.4000; stroke:none;fill-rule:evenodd;"
d="M 19.7902,15.5300
19.7902,14.7800
21.8902,14.7800
21.8902,15.5300
Z" /> 
<path style="fill:#D864FF; fill-opacity:0.4000; stroke:none;fill-rule:evenodd;"
d="M 16.1902,15.5300
16.1902,14.7800
18.2902,14.7800
18.2902,15.5300
Z" /> 
<path style="fill:#D864FF; fill-opacity:0.4000; stroke:none;fill-rule:evenodd;"
d="M 19.7902,16.8000
19.7902,16.0500
21.8902,16.0500
21.8902,16.8000
Z" /> 
<path style="fill:#D864FF; fill-opacity:0.4000; stroke:none;fill-rule:evenodd;"
d="M 16.1902,16.8000
16.1902,16.0500
18.2902,16.0500
18.2902,16.8000
Z" /> 
<path style="fill:#D864FF; fill-opacity:0.4000; stroke:none;fill-rule:evenodd;"
d="M 19.7902,18.0700
19.7902,17.3200
21.8902,17.3200
21.8902,18.0700
Z" /> 
<path style="fill:#D864FF; fill-opacity:0.4000; stroke:none;fill-rule:evenodd;"
d="M 16.1902,18.0700
16.1902,17.3200
18.2902,17.3200
18.2902,18.0700
Z" /> 
<path style="fill:#D864FF; fill-opacity:0.4000; stroke:none;fill-rule:evenodd;"
d="M 19.7902,19.3400
19.7902,18.5900
21.8902,18.5900
21.8902,19.3400
Z" /> 
<path style="fill:#D864FF; fill-opacity:0.4000; stroke:none;fill-rule:evenodd;"
d="M 16.1902,19.3400
16.1902,18.5900
18.2902,18.5900
18.2902,19.3400
Z" /> 
<path style="fill:#D864FF; fill-opacity:0.4000; stroke:none;fill-rule:evenodd;"
d="M 19.7902,20.6100
19.7902,19.8600
21.8902,19.8600
21.8902,20.6100
Z" /> 
<path style="fill:#D864FF; fill-opacity:0.4000; stroke:none;fill-rule:evenodd;"
d="M 16.1902,20.6100
16.1902,19.8600
18.2902,19.8600
18.2902,20.6100
Z" /> 
<path style="fill:#D864FF; fill-opacity:0.4000; stroke:none;fill-rule:evenodd;"
d="M 19.7902,21.8800
19.7902,21.1300
21.8902,21.1300
21.8902,21.8800
Z" /> 
<path style="fill:#D864FF; fill-opacity:0.4000; stroke:none;fill-rule:evenodd;"
d="M 16.1902,21.8800
16.1902,21.1300
18.2902,21.1300
18.2902,21.8800
Z" /> 
<path style="fill:#D864FF; fill-opacity:0.4000; stroke:none;fill-rule:evenodd;"
d="M 19.7902,23.1500
19.7902,22.4000
21.8902,22.4000
21.8902,23.1500
Z" /> 
<path style="fill:#D864FF; fill-opacity:0.4000; stroke:none;fill-rule:evenodd;"
d="M 16.1902,23.1500
16.1902,22.4000
18.2902,22.4000
18.2902,23.1500
Z" /> 
<path style="fill:#D864FF; fill-opacity:0.4000; stroke:none;fill-rule:evenodd;"
d="M 19.7902,24.4200
19.7902,23.6700
21.8902,23.6700
21.8902,24.4200
Z" /> 
<path style="fill:#D864FF; fill-opacity:0.4000; stroke:none;fill-rule:evenodd;"
d="M 16.1902,24.4200
16.1902,23.6700
18.2902,23.6700
18.2902,24.4200
Z" /> 
<path style="fill:#D864FF; fill-opacity:0.4000; stroke:none;fill-rule:evenodd;"
d="M 19.7902,25.6900
19.7902,24.9400
21.8902,24.9400
21.8902,25.6900
Z" /> 
<path style="fill:#D864FF; fill-opacity:0.4000; stroke:none;fill-rule:evenodd;"
d="M 16.1902,25.6900
16.1902,24.9400
18.2902,24.9400
18.2902,25.6900
Z" /> 
<path style="fill:#D864FF; fill-opacity:0.4000; stroke:none;fill-rule:evenodd;"
d="M 19.7902,26.9600
19.7902,26.2100
21.8902,26.2100
21.8902,26.9600
Z" /> 
<path style="fill:#D864FF; fill-opacity:0.4000; stroke:none;fill-rule:evenodd;"
d="M 16.1902,26.9600
16.1902,26.2100
18.2902,26.2100
18.2902,26.9600
Z" /> 
<path style="fill:#D864FF; fill-opacity:0.4000; stroke:none;fill-rule:evenodd;"
d="M 19.7902,28.2300
19.7902,27.4800
21.8902,27.4800
21.8902,28.2300
Z" /> 
<path style="fill:#D864FF; fill-opacity:0.4000; stroke:none;fill-rule:evenodd;"
d="M 16.1902,28.2300
16.1902,27.4800
18.2902,27.4800
18.2902,28.2300
Z" /> 
<path style="fill:#D864FF; fill-opacity:0.4000; stroke:none;fill-rule:evenodd;"
d="M 19.7902,29.5000
19.7902,28.7500
21.8902,28.7500
21.8902,29.5000
Z" /> 
<path style="fill:#D864FF; fill-opacity:0.4000; stroke:none;fill-rule:evenodd;"
d="M 16.1902,29.5000
16.1902,28.7500
18.2902,28.7500
18.2902,29.5000
Z" /> 
<path style="fill:#D864FF; fill-opacity:0.4000; stroke:none;fill-rule:evenodd;"
d="M 19.7902,30.7700
19.7902,30.0200
21.8902,30.0200
21.8902,30.7700
Z" /> 
<path style="fill:#D864FF; fill-opacity:0.4000; stroke:none;fill-rule:evenodd;"
d="M 16.1902,30.7700
16.1902,30.0200
18.2902,30.0200
18.2902,30.7700
Z" /> 
<path style="fill:#D864FF; fill-opacity:0.4000; stroke:none;fill-rule:evenodd;"
d="M 19.7902,32.0400
19.7902,31.2900
21.8902,31.2900
21.8902,32.0400
Z" /> 
<path style="fill:#D864FF; fill-opacity:0.4000; stroke:none;fill-rule:evenodd;"
d="M 16.1902,32.0400
16.1902,31.2900
18.2902,31.2900
18.2902,32.0400
Z" /> 
<path style="fill:#D864FF; fill-opacity:0.4000; stroke:none;fill-rule:evenodd;"
d="M 19.7902,33.3100
19.7902,32.5600
21.8902,32.5600
21.8902,33.3100
Z" /> 
<path style="fill:#D864FF; fill-opacity:0.4000; stroke:none;fill-rule:evenodd;"
d="M 16.1902,33.3100
16.1902,32.5600
18.2902,32.5600
18.2902,33.3100
Z" /> 
<path style="fill:#D864FF; fill-opacity:0.4000; stroke:none;fill-rule:evenodd;"
d="M 19.7902,34.5800
19.7902,33.8300
21.8902,33.8300
21.8902,34.5800
Z" /> 
<path style="fill:#D864FF; fill-opacity:0.4000; stroke:none;fill-rule:evenodd;"
d="M 16.1902,34.5800
16.1902,33.8300
18.2902,33.8300
18.2902,34.5800
Z" /> 
<path style="fill:#D864FF; fill-opacity:0.4000; stroke:none;fill-rule:evenodd;"
d="M 19.7902,35.8500
19.7902,35.1000
21.8902,35.1000
21.8902,35.8500
Z" /> 
<path style="fill:#D864FF; fill-opacity:0.4000; stroke:none;fill-rule:evenodd;"
d="M 16.1902,35.8500
16.1902,35.1000
18.2902,35.1000
18.2902,35.8500
Z" /> 
<path style="fill:#D864FF; fill-opacity:0.4000; stroke:none;fill-rule:evenodd;"
d="M 19.7902,37.1200
19.7902,36.3700
21.8902,36.3700
21.8902,37.1200
Z" /> 
<path style="fill:#D864FF; fill-opacity:0.4000; stroke:none;fill-rule:evenodd;"
d="M 16.1902,37.1200
16.1902,36.3700
18.2902,36.3700
18.2902,37.1200
Z" /> 
<path style="fill:#D864FF; fill-opacity:0.4000; stroke:none;fill-rule:evenodd;"
d="M 19.7902,38.3900
19.7902,37.6400
21.8902,37.6400
21.8902,38.3900
Z" /> 
<path style="fill:#D864FF; fill-opacity:0.4000; stroke:none;fill-rule:evenodd;"
d="M 16.1902,38.3900
16.1902,37.6400
18.2902,37.6400
18.2902,38.3900
Z" /> 
<path style="fill:#D864FF; fill-opacity:0.4000; stroke:none;fill-rule:evenodd;"
d="M 19.7902,39.6600
19.7902,38.9100
21.8902,38.9100
21.8902,39.6600
Z" /> 
<path style="fill:#D864FF; fill-opacity:0.4000; stroke:none;fill-rule:evenodd;"
d="M 16.1902,39.6600
16.1902,38.9100
18.2902,38.9100
18.2902,39.6600
Z" /> 
<path style="fill:#D864FF; fill-opacity:0.4000; stroke:none;fill-rule:evenodd;"
d="M 19.7902,40.9300
19.7902,40.1800
21.8902,40.1800
21.8902,40.9300
Z" /> 
<path style="fill:#D864FF; fill-opacity:0.4000; stroke:none;fill-rule:evenodd;"
d="M 16.1902,40.9300
16.1902,40.1800
18.2902,40.1800
18.2902,40.9300
Z" /> 
<path style="fill:#D864FF; fill-opacity:0.4000; stroke:none;fill-rule:evenodd;"
d="M 19.7902,42.2000
19.7902,41.4500
21.8902,41.4500
21.8902,42.2000
Z" /> 
<path style="fill:#D864FF; fill-opacity:0.4000; stroke:none;fill-rule:evenodd;"
d="M 16.1902,42.2000
16.1902,41.4500
18.2902,41.4500
18.2902,42.2000
Z" /> 
<path style="fill:#D864FF; fill-opacity:0.4000; stroke:none;fill-rule:evenodd;"
d="M 19.7902,43.4700
19.7902,42.7200
21.8902,42.7200
21.8902,43.4700
Z" /> 
<path style="fill:#D864FF; fill-opacity:0.4000; stroke:none;fill-rule:evenodd;"
d="M 16.1902,43.4700
16.1902,42.7200
18.2902,42.7200
18.2902,43.4700
Z" /> 
<path style="fill:#D864FF; fill-opacity:0.4000; stroke:none;fill-rule:evenodd;"
d="M 19.7902,44.7400
19.7902,43.9900
21.8902,43.9900
21.8902,44.7400
Z" /> 
<path style="fill:#D864FF; fill-opacity:0.4000; stroke:none;fill-rule:evenodd;"
d="M 16.1902,44.7400
16.1902,43.9900
18.2902,43.9900
18.2902,44.7400
Z" /> 
<path style="fill:#B4A09A; fill-opacity:0.9000; stroke:none;fill-rule:evenodd;"
d="M 19.7902,1.5600
19.7902,0.8100
21.8902,0.8100
21.8902,1.5600
Z" /> 
<path style="fill:#B4A09A; fill-opacity:0.9000; stroke:none;fill-rule:evenodd;"
d="M 16.1902,1.5600
16.1902,0.8100
18.2902,0.8100
18.2902,1.5600
Z" /> 
<path style="fill:#B4A09A; fill-opacity:0.9000; stroke:none;fill-rule:evenodd;"
d="M 19.7902,2.8300
19.7902,2.0800
21.8902,2.0800
21.8902,2.8300
Z" /> 
<path style="fill:#B4A09A; fill-opacity:0.9000; stroke:none;fill-rule:evenodd;"
d="M 16.1902,2.8300
16.1902,2.0800
18.2902,2.0800
18.2902,2.8300
Z" /> 
<path style="fill:#B4A09A; fill-opacity:0.9000; stroke:none;fill-rule:evenodd;"
d="M 19.7902,4.1000
19.7902,3.3500
21.8902,3.3500
21.8902,4.1000
Z" /> 
<path style="fill:#B4A09A; fill-opacity:0.9000; stroke:none;fill-rule:evenodd;"
d="M 16.1902,4.1000
16.1902,3.3500
18.2902,3.3500
18.2902,4.1000
Z" /> 
<path style="fill:#B4A09A; fill-opacity:0.9000; stroke:none;fill-rule:evenodd;"
d="M 19.7902,5.3700
19.7902,4.6200
21.8902,4.6200
21.8902,5.3700
Z" /> 
<path style="fill:#B4A09A; fill-opacity:0.9000; stroke:none;fill-rule:evenodd;"
d="M 16.1902,5.3700
16.1902,4.6200
18.2902,4.6200
18.2902,5.3700
Z" /> 
<path style="fill:#B4A09A; fill-opacity:0.9000; stroke:none;fill-rule:evenodd;"
d="M 19.7902,6.6400
19.7902,5.8900
21.8902,5.8900
21.8902,6.6400
Z" /> 
<path style="fill:#B4A09A; fill-opacity:0.9000; stroke:none;fill-rule:evenodd;"
d="M 16.1902,6.6400
16.1902,5.8900
18.2902,5.8900
18.2902,6.6400
Z" /> 
<path style="fill:#B4A09A; fill-opacity:0.9000; stroke:none;fill-rule:evenodd;"
d="M 19.7902,7.9100
19.7902,7.1600
21.8902,7.1600
21.8902,7.9100
Z" /> 
<path style="fill:#B4A09A; fill-opacity:0.9000; stroke:none;fill-rule:evenodd;"
d="M 16.1902,7.9100
16.1902,7.1600
18.2902,7.1600
18.2902,7.9100
Z" /> 
<path style="fill:#B4A09A; fill-opacity:0.9000; stroke:none;fill-rule:evenodd;"
d="M 19.7902,9.1800
19.7902,8.4300
21.8902,8.4300
21.8902,9.1800
Z" /> 
<path style="fill:#B4A09A; fill-opacity:0.9000; stroke:none;fill-rule:evenodd;"
d="M 16.1902,9.1800
16.1902,8.4300
18.2902,8.4300
18.2902,9.1800
Z" /> 
<path style="fill:#B4A09A; fill-opacity:0.9000; stroke:none;fill-rule:evenodd;"
d="M 19.7902,10.4500
19.7902,9.7000
21.8902,9.7000
21.8902,10.4500
Z" /> 
<path style="fill:#B4A09A; fill-opacity:0.9000; stroke:none;fill-rule:evenodd;"
d="M 16.1902,10.4500
16.1902,9.7000
18.2902,9.7000
18.2902,10.4500
Z" /> 
<path style="fill:#B4A09A; fill-opacity:0.9000; stroke:none;fill-rule:evenodd;"
d="M 19.7902,11.7200
19.7902,10.9700
21.8902,10.9700
21.8902,11.7200
Z" /> 
<path style="fill:#B4A09A; fill-opacity:0.9000; stroke:none;fill-rule:evenodd;"
d="M 16.1902,11.7200
16.1902,10.9700
18.2902,10.9700
18.2902,11.7200
Z" /> 
<path style="fill:#B4A09A; fill-opacity:0.9000; stroke:none;fill-rule:evenodd;"
d="M 19.7902,12.9900
19.7902,12.2400
21.8902,12.2400
21.8902,12.9900
Z" /> 
<path style="fill:#B4A09A; fill-opacity:0.9000; stroke:none;fill-rule:evenodd;"
d="M 16.1902,12.9900
16.1902,12.2400
18.2902,12.2400
18.2902,12.9900
Z" /> 
<path style="fill:#B4A09A; fill-opacity:0.9000; stroke:none;fill-rule:evenodd;"
d="M 19.7902,14.2600
19.7902,13.5100
21.8902,13.5100
21.8902,14.2600
Z" /> 
<path style="fill:#B4A09A; fill-opacity:0.9000; stroke:none;fill-rule:evenodd;"
d="M 16.1902,14.2600
16.1902,13.5100
18.2902,13.5100
18.2902,14.2600
Z" /> 
<path style="fill:#B4A09A; fill-opacity:0.9000; stroke:none;fill-rule:evenodd;"
d="M 19.7902,15.5300
19.7902,14.7800
21.8902,14.7800
21.8902,15.5300
Z" /> 
<path style="fill:#B4A09A; fill-opacity:0.9000; stroke:none;fill-rule:evenodd;"
d="M 16.1902,15.5300
16.1902,14.7800
18.2902,14.7800
18.2902,15.5300
Z" /> 
<path style="fill:#B4A09A; fill-opacity:0.9000; stroke:none;fill-rule:evenodd;"
d="M 19.7902,16.8000
19.7902,16.0500
21.8902,16.0500
21.8902,16.8000
Z" /> 
<path style="fill:#B4A09A; fill-opacity:0.9000; stroke:none;fill-rule:evenodd;"
d="M 16.1902,16.8000
16.1902,16.0500
18.2902,16.0500
18.2902,16.8000
Z" /> 
<path style="fill:#B4A09A; fill-opacity:0.9000; stroke:none;fill-rule:evenodd;"
d="M 19.7902,18.0700
19.7902,17.3200
21.8902,17.3200
21.8902,18.0700
Z" /> 
<path style="fill:#B4A09A; fill-opacity:0.9000; stroke:none;fill-rule:evenodd;"
d="M 16.1902,18.0700
16.1902,17.3200
18.2902,17.3200
18.2902,18.0700
Z" /> 
<path style="fill:#B4A09A; fill-opacity:0.9000; stroke:none;fill-rule:evenodd;"
d="M 19.7902,19.3400
19.7902,18.5900
21.8902,18.5900
21.8902,19.3400
Z" /> 
<path style="fill:#B4A09A; fill-opacity:0.9000; stroke:none;fill-rule:evenodd;"
d="M 16.1902,19.3400
16.1902,18.5900
18.2902,18.5900
18.2902,19.3400
Z" /> 
<path style="fill:#B4A09A; fill-opacity:0.9000; stroke:none;fill-rule:evenodd;"
d="M 19.7902,20.6100
19.7902,19.8600
21.8902,19.8600
21.8902,20.6100
Z" /> 
<path style="fill:#B4A09A; fill-opacity:0.9000; stroke:none;fill-rule:evenodd;"
d="M 16.1902,20.6100
16.1902,19.8600
18.2902,19.8600
18.2902,20.6100
Z" /> 
<path style="fill:#B4A09A; fill-opacity:0.9000; stroke:none;fill-rule:evenodd;"
d="M 19.7902,21.8800
19.7902,21.1300
21.8902,21.1300
21.8902,21.8800
Z" /> 
<path style="fill:#B4A09A; fill-opacity:0.9000; stroke:none;fill-rule:evenodd;"
d="M 16.1902,21.8800
16.1902,21.1300
18.2902,21.1300
18.2902,21.8800
Z" /> 
<path style="fill:#B4A09A; fill-opacity:0.9000; stroke:none;fill-rule:evenodd;"
d="M 19.7902,23.1500
19.7902,22.4000
21.8902,22.4000
21.8902,23.1500
Z" /> 
<path style="fill:#B4A09A; fill-opacity:0.9000; stroke:none;fill-rule:evenodd;"
d="M 16.1902,23.1500
16.1902,22.4000
18.2902,22.4000
18.2902,23.1500
Z" /> 
<path style="fill:#B4A09A; fill-opacity:0.9000; stroke:none;fill-rule:evenodd;"
d="M 19.7902,24.4200
19.7902,23.6700
21.8902,23.6700
21.8902,24.4200
Z" /> 
<path style="fill:#B4A09A; fill-opacity:0.9000; stroke:none;fill-rule:evenodd;"
d="M 16.1902,24.4200
16.1902,23.6700
18.2902,23.6700
18.2902,24.4200
Z" /> 
<path style="fill:#B4A09A; fill-opacity:0.9000; stroke:none;fill-rule:evenodd;"
d="M 19.7902,25.6900
19.7902,24.9400
21.8902,24.9400
21.8902,25.6900
Z" /> 
<path style="fill:#B4A09A; fill-opacity:0.9000; stroke:none;fill-rule:evenodd;"
d="M 16.1902,25.6900
16.1902,24.9400
18.2902,24.9400
18.2902,25.6900
Z" /> 
<path style="fill:#B4A09A; fill-opacity:0.9000; stroke:none;fill-rule:evenodd;"
d="M 19.7902,26.9600
19.7902,26.2100
21.8902,26.2100
21.8902,26.9600
Z" /> 
<path style="fill:#B4A09A; fill-opacity:0.9000; stroke:none;fill-rule:evenodd;"
d="M 16.1902,26.9600
16.1902,26.2100
18.2902,26.2100
18.2902,26.9600
Z" /> 
<path style="fill:#B4A09A; fill-opacity:0.9000; stroke:none;fill-rule:evenodd;"
d="M 19.7902,28.2300
19.7902,27.4800
21.8902,27.4800
21.8902,28.2300
Z" /> 
<path style="fill:#B4A09A; fill-opacity:0.9000; stroke:none;fill-rule:evenodd;"
d="M 16.1902,28.2300
16.1902,27.4800
18.2902,27.4800
18.2902,28.2300
Z" /> 
<path style="fill:#B4A09A; fill-opacity:0.9000; stroke:none;fill-rule:evenodd;"
d="M 19.7902,29.5000
19.7902,28.7500
21.8902,28.7500
21.8902,29.5000
Z" /> 
<path style="fill:#B4A09A; fill-opacity:0.9000; stroke:none;fill-rule:evenodd;"
d="M 16.1902,29.5000
16.1902,28.7500
18.2902,28.7500
18.2902,29.5000
Z" /> 
<path style="fill:#B4A09A; fill-opacity:0.9000; stroke:none;fill-rule:evenodd;"
d="M 19.7902,30.7700
19.7902,30.0200
21.8902,30.0200
21.8902,30.7700
Z" /> 
<path style="fill:#B4A09A; fill-opacity:0.9000; stroke:none;fill-rule:evenodd;"
d="M 16.1902,30.7700
16.1902,30.0200
18.2902,30.0200
18.2902,30.7700
Z" /> 
<path style="fill:#B4A09A; fill-opacity:0.9000; stroke:none;fill-rule:evenodd;"
d="M 19.7902,32.0400
19.7902,31.2900
21.8902,31.2900
21.8902,32.0400
Z" /> 
<path style="fill:#B4A09A; fill-opacity:0.9000; stroke:none;fill-rule:evenodd;"
d="M 16.1902,32.0400
16.1902,31.2900
18.2902,31.2900
18.2902,32.0400
Z" /> 
<path style="fill:#B4A09A; fill-opacity:0.9000; stroke:none;fill-rule:evenodd;"
d="M 19.7902,33.3100
19.7902,32.5600
21.8902,32.5600
21.8902,33.3100
Z" /> 
<path style="fill:#B4A09A; fill-opacity:0.9000; stroke:none;fill-rule:evenodd;"
d="M 16.1902,33.3100
16.1902,32.5600
18.2902,32.5600
18.2902,33.3100
Z" /> 
<path style="fill:#B4A09A; fill-opacity:0.9000; stroke:none;fill-rule:evenodd;"
d="M 19.7902,34.5800
19.7902,33.8300
21.8902,33.8300
21.8902,34.5800
Z" /> 
<path style="fill:#B4A09A; fill-opacity:0.9000; stroke:none;fill-rule:evenodd;"
d="M 16.1902,34.5800
16.1902,33.8300
18.2902,33.8300
18.2902,34.5800
Z" /> 
<path style="fill:#B4A09A; fill-opacity:0.9000; stroke:none;fill-rule:evenodd;"
d="M 19.7902,35.8500
19.7902,35.1000
21.8902,35.1000
21.8902,35.8500
Z" /> 
<path style="fill:#B4A09A; fill-opacity:0.9000; stroke:none;fill-rule:evenodd;"
d="M 16.1902,35.8500
16.1902,35.1000
18.2902,35.1000
18.2902,35.8500
Z" /> 
<path style="fill:#B4A09A; fill-opacity:0.9000; stroke:none;fill-rule:evenodd;"
d="M 19.7902,37.1200
19.7902,36.3700
21.8902,36.3700
21.8902,37.1200
Z" /> 
<path style="fill:#B4A09A; fill-opacity:0.9000; stroke:none;fill-rule:evenodd;"
d="M 16.1902,37.1200
16.1902,36.3700
18.2902,36.3700
18.2902,37.1200
Z" /> 
<path style="fill:#B4A09A; fill-opacity:0.9000; stroke:none;fill-rule:evenodd;"
d="M 19.7902,38.3900
19.7902,37.6400
21.8902,37.6400
21.8902,38.3900
Z" /> 
<path style="fill:#B4A09A; fill-opacity:0.9000; stroke:none;fill-rule:evenodd;"
d="M 16.1902,38.3900
16.1902,37.6400
18.2902,37.6400
18.2902,38.3900
Z" /> 
<path style="fill:#B4A09A; fill-opacity:0.9000; stroke:none;fill-rule:evenodd;"
d="M 19.7902,39.6600
19.7902,38.9100
21.8902,38.9100
21.8902,39.6600
Z" /> 
<path style="fill:#B4A09A; fill-opacity:0.9000; stroke:none;fill-rule:evenodd;"
d="M 16.1902,39.6600
16.1902,38.9100
18.2902,38.9100
18.2902,39.6600
Z" /> 
<path style="fill:#B4A09A; fill-opacity:0.9000; stroke:none;fill-rule:evenodd;"
d="M 19.7902,40.9300
19.7902,40.1800
21.8902,40.1800
21.8902,40.9300
Z" /> 
<path style="fill:#B4A09A; fill-opacity:0.9000; stroke:none;fill-rule:evenodd;"
d="M 16.1902,40.9300
16.1902,40.1800
18.2902,40.1800
18.2902,40.9300
Z" /> 
<path style="fill:#B4A09A; fill-opacity:0.9000; stroke:none;fill-rule:evenodd;"
d="M 19.7902,42.2000
19.7902,41.4500
21.8902,41.4500
21.8902,42.2000
Z" /> 
<path style="fill:#B4A09A; fill-opacity:0.9000; stroke:none;fill-rule:evenodd;"
d="M 16.1902,42.2000
16.1902,41.4500
18.2902,41.4500
18.2902,42.2000
Z" /> 
<path style="fill:#B4A09A; fill-opacity:0.9000; stroke:none;fill-rule:evenodd;"
d="M 19.7902,43.4700
19.7902,42.7200
21.8902,42.7200
21.8902,43.4700
Z" /> 
<path style="fill:#B4A09A; fill-opacity:0.9000; stroke:none;fill-rule:evenodd;"
d="M 16.1902,43.4700
16.1902,42.7200
18.2902,42.7200
18.2902,43.4700
Z" /> 
<path style="fill:#B4A09A; fill-opacity:0.9000; stroke:none;fill-rule:evenodd;"
d="M 19.7902,44.7400
19.7902,43.9900
21.8902,43.9900
21.8902,44.7400
Z" /> 
<path style="fill:#B4A09A; fill-opacity:0.9000; stroke:none;fill-rule:evenodd;"
d="M 16.1902,44.7400
16.1902,43.9900
18.2902,43.9900
18.2902,44.7400
Z" /> 
</g>
<g style="fill:none; 
stroke:#F2EDA1; stroke-width:0.1588; stroke-opacity:1; 
stroke-linecap:round; stroke-linejoin:round;">
<text x="19.0402" y="23.4100"
textLength="5.6651" font-size="1.6933" lengthAdjust="spacingAndGlyphs"
text-anchor="middle" opacity="0">REF**</text>
<g class="stroked-text"><desc>REF**</desc>
<path d="M17.3468 23.3543
L16.9235 22.7495
" />
<path d="M16.6211 23.3543
L16.6211 22.0843
" />
<path d="M16.6211 22.0843
L17.1049 22.0843
" />
<path d="M17.1049 22.0843
L17.2259 22.1447
" />
<path d="M17.2259 22.1447
L17.2864 22.2052
" />
<path d="M17.2864 22.2052
L17.3468 22.3262
" />
<path d="M17.3468 22.3262
L17.3468 22.5076
" />
<path d="M17.3468 22.5076
L17.2864 22.6286
" />
<path d="M17.2864 22.6286
L17.2259 22.6890
" />
<path d="M17.2259 22.6890
L17.1049 22.7495
" />
<path d="M17.1049 22.7495
L16.6211 22.7495
" />
<path d="M17.8911 22.6890
L18.3145 22.6890
" />
<path d="M18.4959 23.3543
L17.8911 23.3543
" />
<path d="M17.8911 23.3543
L17.8911 22.0843
" />
<path d="M17.8911 22.0843
L18.4959 22.0843
" />
<path d="M19.4635 22.6890
L19.0402 22.6890
" />
<path d="M19.0402 23.3543
L19.0402 22.0843
" />
<path d="M19.0402 22.0843
L19.6449 22.0843
" />
<path d="M20.3102 22.0843
L20.3102 22.3867
" />
<path d="M20.0078 22.2657
L20.3102 22.3867
" />
<path d="M20.3102 22.3867
L20.6126 22.2657
" />
<path d="M20.1287 22.6286
L20.3102 22.3867
" />
<path d="M20.3102 22.3867
L20.4916 22.6286
" />
<path d="M21.2778 22.0843
L21.2778 22.3867
" />
<path d="M20.9754 22.2657
L21.2778 22.3867
" />
<path d="M21.2778 22.3867
L21.5802 22.2657
" />
<path d="M21.0964 22.6286
L21.2778 22.3867
" />
<path d="M21.2778 22.3867
L21.4592 22.6286
" />
</g></g>
<g style="fill:none; 
stroke:#F2EDA1; stroke-width:0.1200; stroke-opacity:1; 
stroke-linecap:round; stroke-linejoin:round;">
<path d="M17.7102 0.4900
L17.7102 0.5500
" />
<path d="M17.7102 0.4900
L20.3702 0.4900
" />
<path d="M17.7102 45.0000
L17.7102 45.0600
" />
<path d="M17.7102 45.0600
L20.3702 45.0600
" />
<path d="M20.3702 0.4900
L20.3702 0.5500
" />
<path d="M20.3702 0.5500
L21.8302 0.5500
" />
<path d="M20.3702 45.0000
L20.3702 45.0600
" />
</g>
<g style="fill:none; 
stroke:#FF26E2; stroke-width:0.0500; stroke-opacity:1; 
stroke-linecap:round; stroke-linejoin:round;">
<path d="M15.6902 0.0250
L22.3902 0.0250
" />
<path d="M15.6902 45.4750
L15.6902 0.0250
" />
<path d="M22.3902 0.0250
L22.3902 45.4750
" />
<path d="M22.3902 45.4750
L15.6902 45.4750
" />
</g>
<g style="fill:none; 
stroke:#AFAFAF; stroke-width:0.1588; stroke-opacity:1; 
stroke-linecap:round; stroke-linejoin:round;">
<text x="19.0402" y="23.4100"
textLength="38.0803" font-size="1.6933" lengthAdjust="spacingAndGlyphs"
text-anchor="middle" opacity="0">PinSocket_2x35_P1.27mm_Vertical_SMD</text>
<g class="stroked-text"><desc>PinSocket_2x35_P1.27mm_Vertical_SMD</desc>
<path d="M0.4135 23.3543
L0.4135 22.0843
" />
<path d="M0.4135 22.0843
L0.8973 22.0843
" />
<path d="M0.8973 22.0843
L1.0183 22.1447
" />
<path d="M1.0183 22.1447
L1.0787 22.2052
" />
<path d="M1.0787 22.2052
L1.1392 22.3262
" />
<path d="M1.1392 22.3262
L1.1392 22.5076
" />
<path d="M1.1392 22.5076
L1.0787 22.6286
" />
<path d="M1.0787 22.6286
L1.0183 22.6890
" />
<path d="M1.0183 22.6890
L0.8973 22.7495
" />
<path d="M0.8973 22.7495
L0.4135 22.7495
" />
<path d="M1.6835 23.3543
L1.6835 22.5076
" />
<path d="M1.6835 22.0843
L1.6230 22.1447
" />
<path d="M1.6230 22.1447
L1.6835 22.2052
" />
<path d="M1.6835 22.2052
L1.7440 22.1447
" />
<path d="M1.7440 22.1447
L1.6835 22.0843
" />
<path d="M1.6835 22.0843
L1.6835 22.2052
" />
<path d="M2.2883 22.5076
L2.2883 23.3543
" />
<path d="M2.2883 22.6286
L2.3487 22.5681
" />
<path d="M2.3487 22.5681
L2.4697 22.5076
" />
<path d="M2.4697 22.5076
L2.6511 22.5076
" />
<path d="M2.6511 22.5076
L2.7721 22.5681
" />
<path d="M2.7721 22.5681
L2.8326 22.6890
" />
<path d="M2.8326 22.6890
L2.8326 23.3543
" />
<path d="M3.3768 23.2938
L3.5583 23.3543
" />
<path d="M3.5583 23.3543
L3.8606 23.3543
" />
<path d="M3.8606 23.3543
L3.9816 23.2938
" />
<path d="M3.9816 23.2938
L4.0421 23.2333
" />
<path d="M4.0421 23.2333
L4.1026 23.1124
" />
<path d="M4.1026 23.1124
L4.1026 22.9914
" />
<path d="M4.1026 22.9914
L4.0421 22.8705
" />
<path d="M4.0421 22.8705
L3.9816 22.8100
" />
<path d="M3.9816 22.8100
L3.8606 22.7495
" />
<path d="M3.8606 22.7495
L3.6187 22.6890
" />
<path d="M3.6187 22.6890
L3.4978 22.6286
" />
<path d="M3.4978 22.6286
L3.4373 22.5681
" />
<path d="M3.4373 22.5681
L3.3768 22.4471
" />
<path d="M3.3768 22.4471
L3.3768 22.3262
" />
<path d="M3.3768 22.3262
L3.4373 22.2052
" />
<path d="M3.4373 22.2052
L3.4978 22.1447
" />
<path d="M3.4978 22.1447
L3.6187 22.0843
" />
<path d="M3.6187 22.0843
L3.9211 22.0843
" />
<path d="M3.9211 22.0843
L4.1026 22.1447
" />
<path d="M4.8283 23.3543
L4.7073 23.2938
" />
<path d="M4.7073 23.2938
L4.6468 23.2333
" />
<path d="M4.6468 23.2333
L4.5864 23.1124
" />
<path d="M4.5864 23.1124
L4.5864 22.7495
" />
<path d="M4.5864 22.7495
L4.6468 22.6286
" />
<path d="M4.6468 22.6286
L4.7073 22.5681
" />
<path d="M4.7073 22.5681
L4.8283 22.5076
" />
<path d="M4.8283 22.5076
L5.0097 22.5076
" />
<path d="M5.0097 22.5076
L5.1307 22.5681
" />
<path d="M5.1307 22.5681
L5.1911 22.6286
" />
<path d="M5.1911 22.6286
L5.2516 22.7495
" />
<path d="M5.2516 22.7495
L5.2516 23.1124
" />
<path d="M5.2516 23.1124
L5.1911 23.2333
" />
<path d="M5.1911 23.2333
L5.1307 23.2938
" />
<path d="M5.1307 23.2938
L5.0097 23.3543
" />
<path d="M5.0097 23.3543
L4.8283 23.3543
" />
<path d="M6.3402 23.2938
L6.2192 23.3543
" />
<path d="M6.2192 23.3543
L5.9773 23.3543
" />
<path d="M5.9773 23.3543
L5.8564 23.2938
" />
<path d="M5.8564 23.2938
L5.7959 23.2333
" />
<path d="M5.7959 23.2333
L5.7354 23.1124
" />
<path d="M5.7354 23.1124
L5.7354 22.7495
" />
<path d="M5.7354 22.7495
L5.7959 22.6286
" />
<path d="M5.7959 22.6286
L5.8564 22.5681
" />
<path d="M5.8564 22.5681
L5.9773 22.5076
" />
<path d="M5.9773 22.5076
L6.2192 22.5076
" />
<path d="M6.2192 22.5076
L6.3402 22.5681
" />
<path d="M6.8845 23.3543
L6.8845 22.0843
" />
<path d="M7.0054 22.8705
L7.3683 23.3543
" />
<path d="M7.3683 22.5076
L6.8845 22.9914
" />
<path d="M8.3964 23.2938
L8.2754 23.3543
" />
<path d="M8.2754 23.3543
L8.0335 23.3543
" />
<path d="M8.0335 23.3543
L7.9126 23.2938
" />
<path d="M7.9126 23.2938
L7.8521 23.1728
" />
<path d="M7.8521 23.1728
L7.8521 22.6890
" />
<path d="M7.8521 22.6890
L7.9126 22.5681
" />
<path d="M7.9126 22.5681
L8.0335 22.5076
" />
<path d="M8.0335 22.5076
L8.2754 22.5076
" />
<path d="M8.2754 22.5076
L8.3964 22.5681
" />
<path d="M8.3964 22.5681
L8.4568 22.6890
" />
<path d="M8.4568 22.6890
L8.4568 22.8100
" />
<path d="M8.4568 22.8100
L7.8521 22.9309
" />
<path d="M8.8197 22.5076
L9.3035 22.5076
" />
<path d="M9.0011 22.0843
L9.0011 23.1728
" />
<path d="M9.0011 23.1728
L9.0616 23.2938
" />
<path d="M9.0616 23.2938
L9.1826 23.3543
" />
<path d="M9.1826 23.3543
L9.3035 23.3543
" />
<path d="M9.4245 23.4752
L10.3921 23.4752
" />
<path d="M10.6340 22.2052
L10.6945 22.1447
" />
<path d="M10.6945 22.1447
L10.8154 22.0843
" />
<path d="M10.8154 22.0843
L11.1178 22.0843
" />
<path d="M11.1178 22.0843
L11.2387 22.1447
" />
<path d="M11.2387 22.1447
L11.2992 22.2052
" />
<path d="M11.2992 22.2052
L11.3597 22.3262
" />
<path d="M11.3597 22.3262
L11.3597 22.4471
" />
<path d="M11.3597 22.4471
L11.2992 22.6286
" />
<path d="M11.2992 22.6286
L10.5735 23.3543
" />
<path d="M10.5735 23.3543
L11.3597 23.3543
" />
<path d="M11.7830 23.3543
L12.4483 22.5076
" />
<path d="M11.7830 22.5076
L12.4483 23.3543
" />
<path d="M12.8111 22.0843
L13.5973 22.0843
" />
<path d="M13.5973 22.0843
L13.1740 22.5681
" />
<path d="M13.1740 22.5681
L13.3554 22.5681
" />
<path d="M13.3554 22.5681
L13.4764 22.6286
" />
<path d="M13.4764 22.6286
L13.5368 22.6890
" />
<path d="M13.5368 22.6890
L13.5973 22.8100
" />
<path d="M13.5973 22.8100
L13.5973 23.1124
" />
<path d="M13.5973 23.1124
L13.5368 23.2333
" />
<path d="M13.5368 23.2333
L13.4764 23.2938
" />
<path d="M13.4764 23.2938
L13.3554 23.3543
" />
<path d="M13.3554 23.3543
L12.9926 23.3543
" />
<path d="M12.9926 23.3543
L12.8716 23.2938
" />
<path d="M12.8716 23.2938
L12.8111 23.2333
" />
<path d="M14.7464 22.0843
L14.1416 22.0843
" />
<path d="M14.1416 22.0843
L14.0811 22.6890
" />
<path d="M14.0811 22.6890
L14.1416 22.6286
" />
<path d="M14.1416 22.6286
L14.2626 22.5681
" />
<path d="M14.2626 22.5681
L14.5649 22.5681
" />
<path d="M14.5649 22.5681
L14.6859 22.6286
" />
<path d="M14.6859 22.6286
L14.7464 22.6890
" />
<path d="M14.7464 22.6890
L14.8068 22.8100
" />
<path d="M14.8068 22.8100
L14.8068 23.1124
" />
<path d="M14.8068 23.1124
L14.7464 23.2333
" />
<path d="M14.7464 23.2333
L14.6859 23.2938
" />
<path d="M14.6859 23.2938
L14.5649 23.3543
" />
<path d="M14.5649 23.3543
L14.2626 23.3543
" />
<path d="M14.2626 23.3543
L14.1416 23.2938
" />
<path d="M14.1416 23.2938
L14.0811 23.2333
" />
<path d="M15.0487 23.4752
L16.0164 23.4752
" />
<path d="M16.3187 23.3543
L16.3187 22.0843
" />
<path d="M16.3187 22.0843
L16.8026 22.0843
" />
<path d="M16.8026 22.0843
L16.9235 22.1447
" />
<path d="M16.9235 22.1447
L16.9840 22.2052
" />
<path d="M16.9840 22.2052
L17.0445 22.3262
" />
<path d="M17.0445 22.3262
L17.0445 22.5076
" />
<path d="M17.0445 22.5076
L16.9840 22.6286
" />
<path d="M16.9840 22.6286
L16.9235 22.6890
" />
<path d="M16.9235 22.6890
L16.8026 22.7495
" />
<path d="M16.8026 22.7495
L16.3187 22.7495
" />
<path d="M18.2540 23.3543
L17.5283 23.3543
" />
<path d="M17.8911 23.3543
L17.8911 22.0843
" />
<path d="M17.8911 22.0843
L17.7702 22.2657
" />
<path d="M17.7702 22.2657
L17.6492 22.3867
" />
<path d="M17.6492 22.3867
L17.5283 22.4471
" />
<path d="M18.7983 23.2333
L18.8587 23.2938
" />
<path d="M18.8587 23.2938
L18.7983 23.3543
" />
<path d="M18.7983 23.3543
L18.7378 23.2938
" />
<path d="M18.7378 23.2938
L18.7983 23.2333
" />
<path d="M18.7983 23.2333
L18.7983 23.3543
" />
<path d="M19.3426 22.2052
L19.4030 22.1447
" />
<path d="M19.4030 22.1447
L19.5240 22.0843
" />
<path d="M19.5240 22.0843
L19.8264 22.0843
" />
<path d="M19.8264 22.0843
L19.9473 22.1447
" />
<path d="M19.9473 22.1447
L20.0078 22.2052
" />
<path d="M20.0078 22.2052
L20.0683 22.3262
" />
<path d="M20.0683 22.3262
L20.0683 22.4471
" />
<path d="M20.0683 22.4471
L20.0078 22.6286
" />
<path d="M20.0078 22.6286
L19.2821 23.3543
" />
<path d="M19.2821 23.3543
L20.0683 23.3543
" />
<path d="M20.4916 22.0843
L21.3383 22.0843
" />
<path d="M21.3383 22.0843
L20.7940 23.3543
" />
<path d="M21.8221 23.3543
L21.8221 22.5076
" />
<path d="M21.8221 22.6286
L21.8826 22.5681
" />
<path d="M21.8826 22.5681
L22.0035 22.5076
" />
<path d="M22.0035 22.5076
L22.1849 22.5076
" />
<path d="M22.1849 22.5076
L22.3059 22.5681
" />
<path d="M22.3059 22.5681
L22.3664 22.6890
" />
<path d="M22.3664 22.6890
L22.3664 23.3543
" />
<path d="M22.3664 22.6890
L22.4268 22.5681
" />
<path d="M22.4268 22.5681
L22.5478 22.5076
" />
<path d="M22.5478 22.5076
L22.7292 22.5076
" />
<path d="M22.7292 22.5076
L22.8502 22.5681
" />
<path d="M22.8502 22.5681
L22.9106 22.6890
" />
<path d="M22.9106 22.6890
L22.9106 23.3543
" />
<path d="M23.5154 23.3543
L23.5154 22.5076
" />
<path d="M23.5154 22.6286
L23.5759 22.5681
" />
<path d="M23.5759 22.5681
L23.6968 22.5076
" />
<path d="M23.6968 22.5076
L23.8783 22.5076
" />
<path d="M23.8783 22.5076
L23.9992 22.5681
" />
<path d="M23.9992 22.5681
L24.0597 22.6890
" />
<path d="M24.0597 22.6890
L24.0597 23.3543
" />
<path d="M24.0597 22.6890
L24.1202 22.5681
" />
<path d="M24.1202 22.5681
L24.2411 22.5076
" />
<path d="M24.2411 22.5076
L24.4226 22.5076
" />
<path d="M24.4226 22.5076
L24.5435 22.5681
" />
<path d="M24.5435 22.5681
L24.6040 22.6890
" />
<path d="M24.6040 22.6890
L24.6040 23.3543
" />
<path d="M24.9064 23.4752
L25.8740 23.4752
" />
<path d="M25.9949 22.0843
L26.4183 23.3543
" />
<path d="M26.4183 23.3543
L26.8416 22.0843
" />
<path d="M27.7487 23.2938
L27.6278 23.3543
" />
<path d="M27.6278 23.3543
L27.3859 23.3543
" />
<path d="M27.3859 23.3543
L27.2649 23.2938
" />
<path d="M27.2649 23.2938
L27.2045 23.1728
" />
<path d="M27.2045 23.1728
L27.2045 22.6890
" />
<path d="M27.2045 22.6890
L27.2649 22.5681
" />
<path d="M27.2649 22.5681
L27.3859 22.5076
" />
<path d="M27.3859 22.5076
L27.6278 22.5076
" />
<path d="M27.6278 22.5076
L27.7487 22.5681
" />
<path d="M27.7487 22.5681
L27.8092 22.6890
" />
<path d="M27.8092 22.6890
L27.8092 22.8100
" />
<path d="M27.8092 22.8100
L27.2045 22.9309
" />
<path d="M28.3535 23.3543
L28.3535 22.5076
" />
<path d="M28.3535 22.7495
L28.4140 22.6286
" />
<path d="M28.4140 22.6286
L28.4745 22.5681
" />
<path d="M28.4745 22.5681
L28.5954 22.5076
" />
<path d="M28.5954 22.5076
L28.7164 22.5076
" />
<path d="M28.9583 22.5076
L29.4421 22.5076
" />
<path d="M29.1397 22.0843
L29.1397 23.1728
" />
<path d="M29.1397 23.1728
L29.2002 23.2938
" />
<path d="M29.2002 23.2938
L29.3211 23.3543
" />
<path d="M29.3211 23.3543
L29.4421 23.3543
" />
<path d="M29.8654 23.3543
L29.8654 22.5076
" />
<path d="M29.8654 22.0843
L29.8049 22.1447
" />
<path d="M29.8049 22.1447
L29.8654 22.2052
" />
<path d="M29.8654 22.2052
L29.9259 22.1447
" />
<path d="M29.9259 22.1447
L29.8654 22.0843
" />
<path d="M29.8654 22.0843
L29.8654 22.2052
" />
<path d="M31.0145 23.2938
L30.8935 23.3543
" />
<path d="M30.8935 23.3543
L30.6516 23.3543
" />
<path d="M30.6516 23.3543
L30.5306 23.2938
" />
<path d="M30.5306 23.2938
L30.4702 23.2333
" />
<path d="M30.4702 23.2333
L30.4097 23.1124
" />
<path d="M30.4097 23.1124
L30.4097 22.7495
" />
<path d="M30.4097 22.7495
L30.4702 22.6286
" />
<path d="M30.4702 22.6286
L30.5306 22.5681
" />
<path d="M30.5306 22.5681
L30.6516 22.5076
" />
<path d="M30.6516 22.5076
L30.8935 22.5076
" />
<path d="M30.8935 22.5076
L31.0145 22.5681
" />
<path d="M32.1030 23.3543
L32.1030 22.6890
" />
<path d="M32.1030 22.6890
L32.0426 22.5681
" />
<path d="M32.0426 22.5681
L31.9216 22.5076
" />
<path d="M31.9216 22.5076
L31.6797 22.5076
" />
<path d="M31.6797 22.5076
L31.5587 22.5681
" />
<path d="M32.1030 23.2938
L31.9821 23.3543
" />
<path d="M31.9821 23.3543
L31.6797 23.3543
" />
<path d="M31.6797 23.3543
L31.5587 23.2938
" />
<path d="M31.5587 23.2938
L31.4983 23.1728
" />
<path d="M31.4983 23.1728
L31.4983 23.0519
" />
<path d="M31.4983 23.0519
L31.5587 22.9309
" />
<path d="M31.5587 22.9309
L31.6797 22.8705
" />
<path d="M31.6797 22.8705
L31.9821 22.8705
" />
<path d="M31.9821 22.8705
L32.1030 22.8100
" />
<path d="M32.8892 23.3543
L32.7683 23.2938
" />
<path d="M32.7683 23.2938
L32.7078 23.1728
" />
<path d="M32.7078 23.1728
L32.7078 22.0843
" />
<path d="M33.0706 23.4752
L34.0383 23.4752
" />
<path d="M34.2802 23.2938
L34.4616 23.3543
" />
<path d="M34.4616 23.3543
L34.7640 23.3543
" />
<path d="M34.7640 23.3543
L34.8849 23.2938
" />
<path d="M34.8849 23.2938
L34.9454 23.2333
" />
<path d="M34.9454 23.2333
L35.0059 23.1124
" />
<path d="M35.0059 23.1124
L35.0059 22.9914
" />
<path d="M35.0059 22.9914
L34.9454 22.8705
" />
<path d="M34.9454 22.8705
L34.8849 22.8100
" />
<path d="M34.8849 22.8100
L34.7640 22.7495
" />
<path d="M34.7640 22.7495
L34.5221 22.6890
" />
<path d="M34.5221 22.6890
L34.4011 22.6286
" />
<path d="M34.4011 22.6286
L34.3406 22.5681
" />
<path d="M34.3406 22.5681
L34.2802 22.4471
" />
<path d="M34.2802 22.4471
L34.2802 22.3262
" />
<path d="M34.2802 22.3262
L34.3406 22.2052
" />
<path d="M34.3406 22.2052
L34.4011 22.1447
" />
<path d="M34.4011 22.1447
L34.5221 22.0843
" />
<path d="M34.5221 22.0843
L34.8245 22.0843
" />
<path d="M34.8245 22.0843
L35.0059 22.1447
" />
<path d="M35.5502 23.3543
L35.5502 22.0843
" />
<path d="M35.5502 22.0843
L35.9735 22.9914
" />
<path d="M35.9735 22.9914
L36.3968 22.0843
" />
<path d="M36.3968 22.0843
L36.3968 23.3543
" />
<path d="M37.0016 23.3543
L37.0016 22.0843
" />
<path d="M37.0016 22.0843
L37.3040 22.0843
" />
<path d="M37.3040 22.0843
L37.4854 22.1447
" />
<path d="M37.4854 22.1447
L37.6064 22.2657
" />
<path d="M37.6064 22.2657
L37.6668 22.3867
" />
<path d="M37.6668 22.3867
L37.7273 22.6286
" />
<path d="M37.7273 22.6286
L37.7273 22.8100
" />
<path d="M37.7273 22.8100
L37.6668 23.0519
" />
<path d="M37.6668 23.0519
L37.6064 23.1728
" />
<path d="M37.6064 23.1728
L37.4854 23.2938
" />
<path d="M37.4854 23.2938
L37.3040 23.3543
" />
<path d="M37.3040 23.3543
L37.0016 23.3543
" />
</g></g>
<g style="fill:none; 
stroke:#AFAFAF; stroke-width:0.1500; stroke-opacity:1; 
stroke-linecap:round; stroke-linejoin:round;">
<g transform="rotate(-90.000000 19.0402 22.7750)">
<text x="19.0402" y="23.2750"
textLength="4.5357" font-size="1.3333" lengthAdjust="spacingAndGlyphs"
text-anchor="middle" opacity="0">REF**</text>
</g>
<g class="stroked-text"><desc>REF**</desc>
<path d="M19.4950 24.1083
L19.0188 24.4417
" />
<path d="M19.4950 24.6798
L18.4950 24.6798
" />
<path d="M18.4950 24.6798
L18.4950 24.2988
" />
<path d="M18.4950 24.2988
L18.5426 24.2036
" />
<path d="M18.5426 24.2036
L18.5902 24.1560
" />
<path d="M18.5902 24.1560
L18.6855 24.1083
" />
<path d="M18.6855 24.1083
L18.8283 24.1083
" />
<path d="M18.8283 24.1083
L18.9236 24.1560
" />
<path d="M18.9236 24.1560
L18.9712 24.2036
" />
<path d="M18.9712 24.2036
L19.0188 24.2988
" />
<path d="M19.0188 24.2988
L19.0188 24.6798
" />
<path d="M18.9712 23.6798
L18.9712 23.3464
" />
<path d="M19.4950 23.2036
L19.4950 23.6798
" />
<path d="M19.4950 23.6798
L18.4950 23.6798
" />
<path d="M18.4950 23.6798
L18.4950 23.2036
" />
<path d="M18.9712 22.4417
L18.9712 22.7750
" />
<path d="M19.4950 22.7750
L18.4950 22.7750
" />
<path d="M18.4950 22.7750
L18.4950 22.2988
" />
<path d="M18.4950 21.7750
L18.7331 21.7750
" />
<path d="M18.6378 22.0131
L18.7331 21.7750
" />
<path d="M18.7331 21.7750
L18.6378 21.5369
" />
<path d="M18.9236 21.9179
L18.7331 21.7750
" />
<path d="M18.7331 21.7750
L18.9236 21.6321
" />
<path d="M18.4950 21.0131
L18.7331 21.0131
" />
<path d="M18.6378 21.2512
L18.7331 21.0131
" />
<path d="M18.7331 21.0131
L18.6378 20.7750
" />
<path d="M18.9236 21.1560
L18.7331 21.0131
" />
<path d="M18.7331 21.0131
L18.9236 20.8702
" />
</g></g>
<g style="fill:none; 
stroke:#AFAFAF; stroke-width:0.1000; stroke-opacity:1; 
stroke-linecap:round; stroke-linejoin:round;">
<path d="M16.4852 0.9850
L17.7702 0.9850
" />
<path d="M16.4852 1.3850
L16.4852 0.9850
" />
<path d="M16.4852 2.2550
L17.7702 2.2550
" />
<path d="M16.4852 2.6550
L16.4852 2.2550
" />
<path d="M16.4852 3.5250
L17.7702 3.5250
" />
<path d="M16.4852 3.9250
L16.4852 3.5250
" />
<path d="M16.4852 4.7950
L17.7702 4.7950
" />
<path d="M16.4852 5.1950
L16.4852 4.7950
" />
<path d="M16.4852 6.0650
L17.7702 6.0650
" />
<path d="M16.4852 6.4650
L16.4852 6.0650
" />
<path d="M16.4852 7.3350
L17.7702 7.3350
" />
<path d="M16.4852 7.7350
L16.4852 7.3350
" />
<path d="M16.4852 8.6050
L17.7702 8.6050
" />
<path d="M16.4852 9.0050
L16.4852 8.6050
" />
<path d="M16.4852 9.8750
L17.7702 9.8750
" />
<path d="M16.4852 10.2750
L16.4852 9.8750
" />
<path d="M16.4852 11.1450
L17.7702 11.1450
" />
<path d="M16.4852 11.5450
L16.4852 11.1450
" />
<path d="M16.4852 12.4150
L17.7702 12.4150
" />
<path d="M16.4852 12.8150
L16.4852 12.4150
" />
<path d="M16.4852 13.6850
L17.7702 13.6850
" />
<path d="M16.4852 14.0850
L16.4852 13.6850
" />
<path d="M16.4852 14.9550
L17.7702 14.9550
" />
<path d="M16.4852 15.3550
L16.4852 14.9550
" />
<path d="M16.4852 16.2250
L17.7702 16.2250
" />
<path d="M16.4852 16.6250
L16.4852 16.2250
" />
<path d="M16.4852 17.4950
L17.7702 17.4950
" />
<path d="M16.4852 17.8950
L16.4852 17.4950
" />
<path d="M16.4852 18.7650
L17.7702 18.7650
" />
<path d="M16.4852 19.1650
L16.4852 18.7650
" />
<path d="M16.4852 20.0350
L17.7702 20.0350
" />
<path d="M16.4852 20.4350
L16.4852 20.0350
" />
<path d="M16.4852 21.3050
L17.7702 21.3050
" />
<path d="M16.4852 21.7050
L16.4852 21.3050
" />
<path d="M16.4852 22.5750
L17.7702 22.5750
" />
<path d="M16.4852 22.9750
L16.4852 22.5750
" />
<path d="M16.4852 23.8450
L17.7702 23.8450
" />
<path d="M16.4852 24.2450
L16.4852 23.8450
" />
<path d="M16.4852 25.1150
L17.7702 25.1150
" />
<path d="M16.4852 25.5150
L16.4852 25.1150
" />
<path d="M16.4852 26.3850
L17.7702 26.3850
" />
<path d="M16.4852 26.7850
L16.4852 26.3850
" />
<path d="M16.4852 27.6550
L17.7702 27.6550
" />
<path d="M16.4852 28.0550
L16.4852 27.6550
" />
<path d="M16.4852 28.9250
L17.7702 28.9250
" />
<path d="M16.4852 29.3250
L16.4852 28.9250
" />
<path d="M16.4852 30.1950
L17.7702 30.1950
" />
<path d="M16.4852 30.5950
L16.4852 30.1950
" />
<path d="M16.4852 31.4650
L17.7702 31.4650
" />
<path d="M16.4852 31.8650
L16.4852 31.4650
" />
<path d="M16.4852 32.7350
L17.7702 32.7350
" />
<path d="M16.4852 33.1350
L16.4852 32.7350
" />
<path d="M16.4852 34.0050
L17.7702 34.0050
" />
<path d="M16.4852 34.4050
L16.4852 34.0050
" />
<path d="M16.4852 35.2750
L17.7702 35.2750
" />
<path d="M16.4852 35.6750
L16.4852 35.2750
" />
<path d="M16.4852 36.5450
L17.7702 36.5450
" />
<path d="M16.4852 36.9450
L16.4852 36.5450
" />
<path d="M16.4852 37.8150
L17.7702 37.8150
" />
<path d="M16.4852 38.2150
L16.4852 37.8150
" />
<path d="M16.4852 39.0850
L17.7702 39.0850
" />
<path d="M16.4852 39.4850
L16.4852 39.0850
" />
<path d="M16.4852 40.3550
L17.7702 40.3550
" />
<path d="M16.4852 40.7550
L16.4852 40.3550
" />
<path d="M16.4852 41.6250
L17.7702 41.6250
" />
<path d="M16.4852 42.0250
L16.4852 41.6250
" />
<path d="M16.4852 42.8950
L17.7702 42.8950
" />
<path d="M16.4852 43.2950
L16.4852 42.8950
" />
<path d="M16.4852 44.1650
L17.7702 44.1650
" />
<path d="M16.4852 44.5650
L16.4852 44.1650
" />
<path d="M17.7702 0.5500
L19.6752 0.5500
" />
<path d="M17.7702 1.3850
L16.4852 1.3850
" />
<path d="M17.7702 2.6550
L16.4852 2.6550
" />
<path d="M17.7702 3.9250
L16.4852 3.9250
" />
<path d="M17.7702 5.1950
L16.4852 5.1950
" />
<path d="M17.7702 6.4650
L16.4852 6.4650
" />
<path d="M17.7702 7.7350
L16.4852 7.7350
" />
<path d="M17.7702 9.0050
L16.4852 9.0050
" />
<path d="M17.7702 10.2750
L16.4852 10.2750
" />
<path d="M17.7702 11.5450
L16.4852 11.5450
" />
<path d="M17.7702 12.8150
L16.4852 12.8150
" />
<path d="M17.7702 14.0850
L16.4852 14.0850
" />
<path d="M17.7702 15.3550
L16.4852 15.3550
" />
<path d="M17.7702 16.6250
L16.4852 16.6250
" />
<path d="M17.7702 17.8950
L16.4852 17.8950
" />
<path d="M17.7702 19.1650
L16.4852 19.1650
" />
<path d="M17.7702 20.4350
L16.4852 20.4350
" />
<path d="M17.7702 21.7050
L16.4852 21.7050
" />
<path d="M17.7702 22.9750
L16.4852 22.9750
" />
<path d="M17.7702 24.2450
L16.4852 24.2450
" />
<path d="M17.7702 25.5150
L16.4852 25.5150
" />
<path d="M17.7702 26.7850
L16.4852 26.7850
" />
<path d="M17.7702 28.0550
L16.4852 28.0550
" />
<path d="M17.7702 29.3250
L16.4852 29.3250
" />
<path d="M17.7702 30.5950
L16.4852 30.5950
" />
<path d="M17.7702 31.8650
L16.4852 31.8650
" />
<path d="M17.7702 33.1350
L16.4852 33.1350
" />
<path d="M17.7702 34.4050
L16.4852 34.4050
" />
<path d="M17.7702 35.6750
L16.4852 35.6750
" />
<path d="M17.7702 36.9450
L16.4852 36.9450
" />
<path d="M17.7702 38.2150
L16.4852 38.2150
" />
<path d="M17.7702 39.4850
L16.4852 39.4850
" />
<path d="M17.7702 40.7550
L16.4852 40.7550
" />
<path d="M17.7702 42.0250
L16.4852 42.0250
" />
<path d="M17.7702 43.2950
L16.4852 43.2950
" />
<path d="M17.7702 44.5650
L16.4852 44.5650
" />
<path d="M17.7702 45.0000
L17.7702 0.5500
" />
<path d="M19.6752 0.5500
L20.3102 1.1850
" />
<path d="M20.3102 0.9850
L21.5952 0.9850
" />
<path d="M20.3102 1.1850
L20.3102 45.0000
" />
<path d="M20.3102 2.2550
L21.5952 2.2550
" />
<path d="M20.3102 3.5250
L21.5952 3.5250
" />
<path d="M20.3102 4.7950
L21.5952 4.7950
" />
<path d="M20.3102 6.0650
L21.5952 6.0650
" />
<path d="M20.3102 7.3350
L21.5952 7.3350
" />
<path d="M20.3102 8.6050
L21.5952 8.6050
" />
<path d="M20.3102 9.8750
L21.5952 9.8750
" />
<path d="M20.3102 11.1450
L21.5952 11.1450
" />
<path d="M20.3102 12.4150
L21.5952 12.4150
" />
<path d="M20.3102 13.6850
L21.5952 13.6850
" />
<path d="M20.3102 14.9550
L21.5952 14.9550
" />
<path d="M20.3102 16.2250
L21.5952 16.2250
" />
<path d="M20.3102 17.4950
L21.5952 17.4950
" />
<path d="M20.3102 18.7650
L21.5952 18.7650
" />
<path d="M20.3102 20.0350
L21.5952 20.0350
" />
<path d="M20.3102 21.3050
L21.5952 21.3050
" />
<path d="M20.3102 22.5750
L21.5952 22.5750
" />
<path d="M20.3102 23.8450
L21.5952 23.8450
" />
<path d="M20.3102 25.1150
L21.5952 25.1150
" />
<path d="M20.3102 26.3850
L21.5952 26.3850
" />
<path d="M20.3102 27.6550
L21.5952 27.6550
" />
<path d="M20.3102 28.9250
L21.5952 28.9250
" />
<path d="M20.3102 30.1950
L21.5952 30.1950
" />
<path d="M20.3102 31.4650
L21.5952 31.4650
" />
<path d="M20.3102 32.7350
L21.5952 32.7350
" />
<path d="M20.3102 34.0050
L21.5952 34.0050
" />
<path d="M20.3102 35.2750
L21.5952 35.2750
" />
<path d="M20.3102 36.5450
L21.5952 36.5450
" />
<path d="M20.3102 37.8150
L21.5952 37.8150
" />
<path d="M20.3102 39.0850
L21.5952 39.0850
" />
<path d="M20.3102 40.3550
L21.5952 40.3550
" />
<path d="M20.3102 41.6250
L21.5952 41.6250
" />
<path d="M20.3102 42.8950
L21.5952 42.8950
" />
<path d="M20.3102 44.1650
L21.5952 44.1650
" />
<path d="M20.3102 45.0000
L17.7702 45.0000
" />
<path d="M21.5952 0.9850
L21.5952 1.3850
" />
<path d="M21.5952 1.3850
L20.3102 1.3850
" />
<path d="M21.5952 2.2550
L21.5952 2.6550
" />
<path d="M21.5952 2.6550
L20.3102 2.6550
" />
<path d="M21.5952 3.5250
L21.5952 3.9250
" />
<path d="M21.5952 3.9250
L20.3102 3.9250
" />
<path d="M21.5952 4.7950
L21.5952 5.1950
" />
<path d="M21.5952 5.1950
L20.3102 5.1950
" />
<path d="M21.5952 6.0650
L21.5952 6.4650
" />
<path d="M21.5952 6.4650
L20.3102 6.4650
" />
<path d="M21.5952 7.3350
L21.5952 7.7350
" />
<path d="M21.5952 7.7350
L20.3102 7.7350
" />
<path d="M21.5952 8.6050
L21.5952 9.0050
" />
<path d="M21.5952 9.0050
L20.3102 9.0050
" />
<path d="M21.5952 9.8750
L21.5952 10.2750
" />
<path d="M21.5952 10.2750
L20.3102 10.2750
" />
<path d="M21.5952 11.1450
L21.5952 11.5450
" />
<path d="M21.5952 11.5450
L20.3102 11.5450
" />
<path d="M21.5952 12.4150
L21.5952 12.8150
" />
<path d="M21.5952 12.8150
L20.3102 12.8150
" />
<path d="M21.5952 13.6850
L21.5952 14.0850
" />
<path d="M21.5952 14.0850
L20.3102 14.0850
" />
<path d="M21.5952 14.9550
L21.5952 15.3550
" />
<path d="M21.5952 15.3550
L20.3102 15.3550
" />
<path d="M21.5952 16.2250
L21.5952 16.6250
" />
<path d="M21.5952 16.6250
L20.3102 16.6250
" />
<path d="M21.5952 17.4950
L21.5952 17.8950
" />
<path d="M21.5952 17.8950
L20.3102 17.8950
" />
<path d="M21.5952 18.7650
L21.5952 19.1650
" />
<path d="M21.5952 19.1650
L20.3102 19.1650
" />
<path d="M21.5952 20.0350
L21.5952 20.4350
" />
<path d="M21.5952 20.4350
L20.3102 20.4350
" />
<path d="M21.5952 21.3050
L21.5952 21.7050
" />
<path d="M21.5952 21.7050
L20.3102 21.7050
" />
<path d="M21.5952 22.5750
L21.5952 22.9750
" />
<path d="M21.5952 22.9750
L20.3102 22.9750
" />
<path d="M21.5952 23.8450
L21.5952 24.2450
" />
<path d="M21.5952 24.2450
L20.3102 24.2450
" />
<path d="M21.5952 25.1150
L21.5952 25.5150
" />
<path d="M21.5952 25.5150
L20.3102 25.5150
" />
<path d="M21.5952 26.3850
L21.5952 26.7850
" />
<path d="M21.5952 26.7850
L20.3102 26.7850
" />
<path d="M21.5952 27.6550
L21.5952 28.0550
" />
<path d="M21.5952 28.0550
L20.3102 28.0550
" />
<path d="M21.5952 28.9250
L21.5952 29.3250
" />
<path d="M21.5952 29.3250
L20.3102 29.3250
" />
<path d="M21.5952 30.1950
L21.5952 30.5950
" />
<path d="M21.5952 30.5950
L20.3102 30.5950
" />
<path d="M21.5952 31.4650
L21.5952 31.8650
" />
<path d="M21.5952 31.8650
L20.3102 31.8650
" />
<path d="M21.5952 32.7350
L21.5952 33.1350
" />
<path d="M21.5952 33.1350
L20.3102 33.1350
" />
<path d="M21.5952 34.0050
L21.5952 34.4050
" />
<path d="M21.5952 34.4050
L20.3102 34.4050
" />
<path d="M21.5952 35.2750
L21.5952 35.6750
" />
<path d="M21.5952 35.6750
L20.3102 35.6750
" />
<path d="M21.5952 36.5450
L21.5952 36.9450
" />
<path d="M21.5952 36.9450
L20.3102 36.9450
" />
<path d="M21.5952 37.8150
L21.5952 38.2150
" />
<path d="M21.5952 38.2150
L20.3102 38.2150
" />
<path d="M21.5952 39.0850
L21.5952 39.4850
" />
<path d="M21.5952 39.4850
L20.3102 39.4850
" />
<path d="M21.5952 40.3550
L21.5952 40.7550
" />
<path d="M21.5952 40.7550
L20.3102 40.7550
" />
<path d="M21.5952 41.6250
L21.5952 42.0250
" />
<path d="M21.5952 42.0250
L20.3102 42.0250
" />
<path d="M21.5952 42.8950
L21.5952 43.2950
" />
<path d="M21.5952 43.2950
L20.3102 43.2950
" />
<path d="M21.5952 44.1650
L21.5952 44.5650
" />
<path d="M21.5952 44.5650
L20.3102 44.5650
" />
</g> 
</svg>
