<?xml version="1.0" standalone="no"?>
 <!DOCTYPE svg PUBLIC "-//W3C//DTD SVG 1.1//EN" 
 "http://www.w3.org/Graphics/SVG/1.1/DTD/svg11.dtd"> 
<svg
  xmlns:svg="http://www.w3.org/2000/svg"
  xmlns="http://www.w3.org/2000/svg"
  xmlns:xlink="http://www.w3.org/1999/xlink"
  version="1.1"
  width="58.1406mm" height="3.6068mm" viewBox="0.0000 0.0000 58.1406 3.6068">
<title>SVG Image created as working-brd.svg date 2024/04/20 19:17:50 </title>
  <desc>Image generated by PCBNEW </desc>
<g style="fill:#000000; fill-opacity:1.0000;stroke:#000000; stroke-opacity:1.0000;
stroke-linecap:round; stroke-linejoin:round;"
 transform="translate(0 0) scale(1 1)">
</g>
<g style="fill:#4D7FC4; fill-opacity:1.0000; stroke:none;">
<circle cx="28.5392" cy="0.9150" r="0.2500" /> 
</g>
<g style="fill:#4D7FC4; fill-opacity:1.0000; stroke:none;">
<circle cx="28.5392" cy="1.8400" r="0.2500" /> 
</g>
<g style="fill:#4D7FC4; fill-opacity:1.0000; stroke:none;">
<circle cx="28.5392" cy="2.7650" r="0.2500" /> 
<path style="fill:#4D7FC4; fill-opacity:1.0000; stroke:none;fill-rule:evenodd;"
d="M 28.2892,3.0150
28.2892,0.6650
29.8692,0.6650
29.8692,3.0150
Z" /> 
</g>
<g style="fill:#4D7FC4; fill-opacity:1.0000; stroke:none;">
<circle cx="29.6192" cy="0.9150" r="0.2500" /> 
</g>
<g style="fill:#4D7FC4; fill-opacity:1.0000; stroke:none;">
<circle cx="29.6192" cy="1.8400" r="0.2500" /> 
</g>
<g style="fill:#4D7FC4; fill-opacity:1.0000; stroke:none;">
<circle cx="29.6192" cy="2.7650" r="0.2500" /> 
</g>
<g style="fill:#FFFFFF; fill-opacity:1.0000; stroke:none;">
<circle cx="28.5392" cy="0.9150" r="0.1000" /> 
</g>
<g style="fill:#FFFFFF; fill-opacity:1.0000; stroke:none;">
<circle cx="28.5392" cy="1.8400" r="0.1000" /> 
</g>
<g style="fill:#FFFFFF; fill-opacity:1.0000; stroke:none;">
<circle cx="28.5392" cy="2.7650" r="0.1000" /> 
</g>
<g style="fill:#FFFFFF; fill-opacity:1.0000; stroke:none;">
<circle cx="29.6192" cy="0.9150" r="0.1000" /> 
</g>
<g style="fill:#FFFFFF; fill-opacity:1.0000; stroke:none;">
<circle cx="29.6192" cy="1.8400" r="0.1000" /> 
</g>
<g style="fill:#FFFFFF; fill-opacity:1.0000; stroke:none;">
<circle cx="29.6192" cy="2.7650" r="0.1000" /> 
</g>
<g style="fill:#FFFFFF; fill-opacity:1.0000; stroke:none;">
<circle cx="28.5392" cy="0.9150" r="0.1000" /> 
</g>
<g style="fill:#FFFFFF; fill-opacity:1.0000; stroke:none;">
<circle cx="28.5392" cy="1.8400" r="0.1000" /> 
</g>
<g style="fill:#FFFFFF; fill-opacity:1.0000; stroke:none;">
<circle cx="28.5392" cy="2.7650" r="0.1000" /> 
</g>
<g style="fill:#FFFFFF; fill-opacity:1.0000; stroke:none;">
<circle cx="29.6192" cy="0.9150" r="0.1000" /> 
</g>
<g style="fill:#FFFFFF; fill-opacity:1.0000; stroke:none;">
<circle cx="29.6192" cy="1.8400" r="0.1000" /> 
</g>
<g style="fill:#FFFFFF; fill-opacity:1.0000; stroke:none;">
<circle cx="29.6192" cy="2.7650" r="0.1000" /> 
<path style="fill:#C83434; fill-opacity:1.0000; stroke:none;fill-rule:evenodd;"
d="M 27.2292,0.7775
27.2340,0.7536
27.2475,0.7333
27.2678,0.7198
27.2917,0.7150
27.9917,0.7150
28.0156,0.7198
28.0359,0.7333
28.0495,0.7536
28.0542,0.7775
28.0542,0.9025
28.0495,0.9264
28.0359,0.9467
28.0156,0.9602
27.9917,0.9650
27.2917,0.9650
27.2678,0.9602
27.2475,0.9467
27.2340,0.9264
27.2292,0.9025
Z" /> 
<path style="fill:#C83434; fill-opacity:1.0000; stroke:none;fill-rule:evenodd;"
d="M 27.2292,1.2775
27.2340,1.2536
27.2475,1.2333
27.2678,1.2198
27.2917,1.2150
27.9917,1.2150
28.0156,1.2198
28.0359,1.2333
28.0495,1.2536
28.0542,1.2775
28.0542,1.4025
28.0495,1.4264
28.0359,1.4467
28.0156,1.4602
27.9917,1.4650
27.2917,1.4650
27.2678,1.4602
27.2475,1.4467
27.2340,1.4264
27.2292,1.4025
Z" /> 
<path style="fill:#C83434; fill-opacity:1.0000; stroke:none;fill-rule:evenodd;"
d="M 27.2292,1.7775
27.2340,1.7536
27.2475,1.7333
27.2678,1.7198
27.2917,1.7150
27.9917,1.7150
28.0156,1.7198
28.0359,1.7333
28.0495,1.7536
28.0542,1.7775
28.0542,1.9025
28.0495,1.9264
28.0359,1.9467
28.0156,1.9602
27.9917,1.9650
27.2917,1.9650
27.2678,1.9602
27.2475,1.9467
27.2340,1.9264
27.2292,1.9025
Z" /> 
<path style="fill:#C83434; fill-opacity:1.0000; stroke:none;fill-rule:evenodd;"
d="M 27.2292,2.2775
27.2340,2.2536
27.2475,2.2333
27.2678,2.2198
27.2917,2.2150
27.9917,2.2150
28.0156,2.2198
28.0359,2.2333
28.0495,2.2536
28.0542,2.2775
28.0542,2.4025
28.0495,2.4264
28.0359,2.4467
28.0156,2.4602
27.9917,2.4650
27.2917,2.4650
27.2678,2.4602
27.2475,2.4467
27.2340,2.4264
27.2292,2.4025
Z" /> 
<path style="fill:#C83434; fill-opacity:1.0000; stroke:none;fill-rule:evenodd;"
d="M 27.2292,2.7775
27.2340,2.7536
27.2475,2.7333
27.2678,2.7198
27.2917,2.7150
27.9917,2.7150
28.0156,2.7198
28.0359,2.7333
28.0495,2.7536
28.0542,2.7775
28.0542,2.9025
28.0495,2.9264
28.0359,2.9467
28.0156,2.9602
27.9917,2.9650
27.2917,2.9650
27.2678,2.9602
27.2475,2.9467
27.2340,2.9264
27.2292,2.9025
Z" /> 
<path style="fill:#C83434; fill-opacity:1.0000; stroke:none;fill-rule:evenodd;"
d="M 30.1042,2.7775
30.1090,2.7536
30.1225,2.7333
30.1428,2.7198
30.1667,2.7150
30.8667,2.7150
30.8906,2.7198
30.9109,2.7333
30.9245,2.7536
30.9292,2.7775
30.9292,2.9025
30.9245,2.9264
30.9109,2.9467
30.8906,2.9602
30.8667,2.9650
30.1667,2.9650
30.1428,2.9602
30.1225,2.9467
30.1090,2.9264
30.1042,2.9025
Z" /> 
<path style="fill:#C83434; fill-opacity:1.0000; stroke:none;fill-rule:evenodd;"
d="M 30.1042,2.2775
30.1090,2.2536
30.1225,2.2333
30.1428,2.2198
30.1667,2.2150
30.8667,2.2150
30.8906,2.2198
30.9109,2.2333
30.9245,2.2536
30.9292,2.2775
30.9292,2.4025
30.9245,2.4264
30.9109,2.4467
30.8906,2.4602
30.8667,2.4650
30.1667,2.4650
30.1428,2.4602
30.1225,2.4467
30.1090,2.4264
30.1042,2.4025
Z" /> 
<path style="fill:#C83434; fill-opacity:1.0000; stroke:none;fill-rule:evenodd;"
d="M 30.1042,1.7775
30.1090,1.7536
30.1225,1.7333
30.1428,1.7198
30.1667,1.7150
30.8667,1.7150
30.8906,1.7198
30.9109,1.7333
30.9245,1.7536
30.9292,1.7775
30.9292,1.9025
30.9245,1.9264
30.9109,1.9467
30.8906,1.9602
30.8667,1.9650
30.1667,1.9650
30.1428,1.9602
30.1225,1.9467
30.1090,1.9264
30.1042,1.9025
Z" /> 
<path style="fill:#C83434; fill-opacity:1.0000; stroke:none;fill-rule:evenodd;"
d="M 30.1042,1.2775
30.1090,1.2536
30.1225,1.2333
30.1428,1.2198
30.1667,1.2150
30.8667,1.2150
30.8906,1.2198
30.9109,1.2333
30.9245,1.2536
30.9292,1.2775
30.9292,1.4025
30.9245,1.4264
30.9109,1.4467
30.8906,1.4602
30.8667,1.4650
30.1667,1.4650
30.1428,1.4602
30.1225,1.4467
30.1090,1.4264
30.1042,1.4025
Z" /> 
<path style="fill:#C83434; fill-opacity:1.0000; stroke:none;fill-rule:evenodd;"
d="M 30.1042,0.7775
30.1090,0.7536
30.1225,0.7333
30.1428,0.7198
30.1667,0.7150
30.8667,0.7150
30.8906,0.7198
30.9109,0.7333
30.9245,0.7536
30.9292,0.7775
30.9292,0.9025
30.9245,0.9264
30.9109,0.9467
30.8906,0.9602
30.8667,0.9650
30.1667,0.9650
30.1428,0.9602
30.1225,0.9467
30.1090,0.9264
30.1042,0.9025
Z" /> 
</g>
<g style="fill:#C83434; fill-opacity:1.0000; stroke:none;">
<circle cx="28.5392" cy="0.9150" r="0.2500" /> 
</g>
<g style="fill:#C83434; fill-opacity:1.0000; stroke:none;">
<circle cx="28.5392" cy="1.8400" r="0.2500" /> 
</g>
<g style="fill:#C83434; fill-opacity:1.0000; stroke:none;">
<circle cx="28.5392" cy="2.7650" r="0.2500" /> 
<path style="fill:#C83434; fill-opacity:1.0000; stroke:none;fill-rule:evenodd;"
d="M 28.2892,3.0150
28.2892,0.6650
29.8692,0.6650
29.8692,3.0150
Z" /> 
</g>
<g style="fill:#C83434; fill-opacity:1.0000; stroke:none;">
<circle cx="29.6192" cy="0.9150" r="0.2500" /> 
</g>
<g style="fill:#C83434; fill-opacity:1.0000; stroke:none;">
<circle cx="29.6192" cy="1.8400" r="0.2500" /> 
</g>
<g style="fill:#C83434; fill-opacity:1.0000; stroke:none;">
<circle cx="29.6192" cy="2.7650" r="0.2500" /> 
</g>
<g style="fill:#FFFFFF; fill-opacity:1.0000; stroke:none;">
<circle cx="28.5392" cy="0.9150" r="0.1000" /> 
</g>
<g style="fill:#FFFFFF; fill-opacity:1.0000; stroke:none;">
<circle cx="28.5392" cy="1.8400" r="0.1000" /> 
</g>
<g style="fill:#FFFFFF; fill-opacity:1.0000; stroke:none;">
<circle cx="28.5392" cy="2.7650" r="0.1000" /> 
</g>
<g style="fill:#FFFFFF; fill-opacity:1.0000; stroke:none;">
<circle cx="29.6192" cy="0.9150" r="0.1000" /> 
</g>
<g style="fill:#FFFFFF; fill-opacity:1.0000; stroke:none;">
<circle cx="29.6192" cy="1.8400" r="0.1000" /> 
</g>
<g style="fill:#FFFFFF; fill-opacity:1.0000; stroke:none;">
<circle cx="29.6192" cy="2.7650" r="0.1000" /> 
<path style="fill:#D864FF; fill-opacity:0.4000; stroke:none;fill-rule:evenodd;"
d="M 27.2292,0.7775
27.2340,0.7536
27.2475,0.7333
27.2678,0.7198
27.2917,0.7150
27.9917,0.7150
28.0156,0.7198
28.0359,0.7333
28.0495,0.7536
28.0542,0.7775
28.0542,0.9025
28.0495,0.9264
28.0359,0.9467
28.0156,0.9602
27.9917,0.9650
27.2917,0.9650
27.2678,0.9602
27.2475,0.9467
27.2340,0.9264
27.2292,0.9025
Z" /> 
<path style="fill:#D864FF; fill-opacity:0.4000; stroke:none;fill-rule:evenodd;"
d="M 27.2292,1.2775
27.2340,1.2536
27.2475,1.2333
27.2678,1.2198
27.2917,1.2150
27.9917,1.2150
28.0156,1.2198
28.0359,1.2333
28.0495,1.2536
28.0542,1.2775
28.0542,1.4025
28.0495,1.4264
28.0359,1.4467
28.0156,1.4602
27.9917,1.4650
27.2917,1.4650
27.2678,1.4602
27.2475,1.4467
27.2340,1.4264
27.2292,1.4025
Z" /> 
<path style="fill:#D864FF; fill-opacity:0.4000; stroke:none;fill-rule:evenodd;"
d="M 27.2292,1.7775
27.2340,1.7536
27.2475,1.7333
27.2678,1.7198
27.2917,1.7150
27.9917,1.7150
28.0156,1.7198
28.0359,1.7333
28.0495,1.7536
28.0542,1.7775
28.0542,1.9025
28.0495,1.9264
28.0359,1.9467
28.0156,1.9602
27.9917,1.9650
27.2917,1.9650
27.2678,1.9602
27.2475,1.9467
27.2340,1.9264
27.2292,1.9025
Z" /> 
<path style="fill:#D864FF; fill-opacity:0.4000; stroke:none;fill-rule:evenodd;"
d="M 27.2292,2.2775
27.2340,2.2536
27.2475,2.2333
27.2678,2.2198
27.2917,2.2150
27.9917,2.2150
28.0156,2.2198
28.0359,2.2333
28.0495,2.2536
28.0542,2.2775
28.0542,2.4025
28.0495,2.4264
28.0359,2.4467
28.0156,2.4602
27.9917,2.4650
27.2917,2.4650
27.2678,2.4602
27.2475,2.4467
27.2340,2.4264
27.2292,2.4025
Z" /> 
<path style="fill:#D864FF; fill-opacity:0.4000; stroke:none;fill-rule:evenodd;"
d="M 27.2292,2.7775
27.2340,2.7536
27.2475,2.7333
27.2678,2.7198
27.2917,2.7150
27.9917,2.7150
28.0156,2.7198
28.0359,2.7333
28.0495,2.7536
28.0542,2.7775
28.0542,2.9025
28.0495,2.9264
28.0359,2.9467
28.0156,2.9602
27.9917,2.9650
27.2917,2.9650
27.2678,2.9602
27.2475,2.9467
27.2340,2.9264
27.2292,2.9025
Z" /> 
<path style="fill:#D864FF; fill-opacity:0.4000; stroke:none;fill-rule:evenodd;"
d="M 30.1042,2.7775
30.1090,2.7536
30.1225,2.7333
30.1428,2.7198
30.1667,2.7150
30.8667,2.7150
30.8906,2.7198
30.9109,2.7333
30.9245,2.7536
30.9292,2.7775
30.9292,2.9025
30.9245,2.9264
30.9109,2.9467
30.8906,2.9602
30.8667,2.9650
30.1667,2.9650
30.1428,2.9602
30.1225,2.9467
30.1090,2.9264
30.1042,2.9025
Z" /> 
<path style="fill:#D864FF; fill-opacity:0.4000; stroke:none;fill-rule:evenodd;"
d="M 30.1042,2.2775
30.1090,2.2536
30.1225,2.2333
30.1428,2.2198
30.1667,2.2150
30.8667,2.2150
30.8906,2.2198
30.9109,2.2333
30.9245,2.2536
30.9292,2.2775
30.9292,2.4025
30.9245,2.4264
30.9109,2.4467
30.8906,2.4602
30.8667,2.4650
30.1667,2.4650
30.1428,2.4602
30.1225,2.4467
30.1090,2.4264
30.1042,2.4025
Z" /> 
<path style="fill:#D864FF; fill-opacity:0.4000; stroke:none;fill-rule:evenodd;"
d="M 30.1042,1.7775
30.1090,1.7536
30.1225,1.7333
30.1428,1.7198
30.1667,1.7150
30.8667,1.7150
30.8906,1.7198
30.9109,1.7333
30.9245,1.7536
30.9292,1.7775
30.9292,1.9025
30.9245,1.9264
30.9109,1.9467
30.8906,1.9602
30.8667,1.9650
30.1667,1.9650
30.1428,1.9602
30.1225,1.9467
30.1090,1.9264
30.1042,1.9025
Z" /> 
<path style="fill:#D864FF; fill-opacity:0.4000; stroke:none;fill-rule:evenodd;"
d="M 30.1042,1.2775
30.1090,1.2536
30.1225,1.2333
30.1428,1.2198
30.1667,1.2150
30.8667,1.2150
30.8906,1.2198
30.9109,1.2333
30.9245,1.2536
30.9292,1.2775
30.9292,1.4025
30.9245,1.4264
30.9109,1.4467
30.8906,1.4602
30.8667,1.4650
30.1667,1.4650
30.1428,1.4602
30.1225,1.4467
30.1090,1.4264
30.1042,1.4025
Z" /> 
<path style="fill:#D864FF; fill-opacity:0.4000; stroke:none;fill-rule:evenodd;"
d="M 30.1042,0.7775
30.1090,0.7536
30.1225,0.7333
30.1428,0.7198
30.1667,0.7150
30.8667,0.7150
30.8906,0.7198
30.9109,0.7333
30.9245,0.7536
30.9292,0.7775
30.9292,0.9025
30.9245,0.9264
30.9109,0.9467
30.8906,0.9602
30.8667,0.9650
30.1667,0.9650
30.1428,0.9602
30.1225,0.9467
30.1090,0.9264
30.1042,0.9025
Z" /> 
<path style="fill:#D864FF; fill-opacity:0.4000; stroke:none;fill-rule:evenodd;"
d="M 28.2892,3.0150
28.2892,0.6650
29.8692,0.6650
29.8692,3.0150
Z" /> 
<path style="fill:#B4A09A; fill-opacity:0.9000; stroke:none;fill-rule:evenodd;"
d="M 28.4442,1.0125
28.4623,0.9216
28.5138,0.8446
28.5908,0.7931
28.6817,0.7750
29.4767,0.7750
29.5676,0.7931
29.6447,0.8446
29.6961,0.9216
29.7142,1.0125
29.7142,1.4875
29.6961,1.5784
29.6447,1.6554
29.5676,1.7069
29.4767,1.7250
28.6817,1.7250
28.5908,1.7069
28.5138,1.6554
28.4623,1.5784
28.4442,1.4875
Z" /> 
<path style="fill:#B4A09A; fill-opacity:0.9000; stroke:none;fill-rule:evenodd;"
d="M 28.4442,2.1925
28.4623,2.1016
28.5138,2.0246
28.5908,1.9731
28.6817,1.9550
29.4767,1.9550
29.5676,1.9731
29.6447,2.0246
29.6961,2.1016
29.7142,2.1925
29.7142,2.6675
29.6961,2.7584
29.6447,2.8354
29.5676,2.8869
29.4767,2.9050
28.6817,2.9050
28.5908,2.8869
28.5138,2.8354
28.4623,2.7584
28.4442,2.6675
Z" /> 
<path style="fill:#B4A09A; fill-opacity:0.9000; stroke:none;fill-rule:evenodd;"
d="M 27.2292,0.7775
27.2340,0.7536
27.2475,0.7333
27.2678,0.7198
27.2917,0.7150
27.9917,0.7150
28.0156,0.7198
28.0359,0.7333
28.0495,0.7536
28.0542,0.7775
28.0542,0.9025
28.0495,0.9264
28.0359,0.9467
28.0156,0.9602
27.9917,0.9650
27.2917,0.9650
27.2678,0.9602
27.2475,0.9467
27.2340,0.9264
27.2292,0.9025
Z" /> 
<path style="fill:#B4A09A; fill-opacity:0.9000; stroke:none;fill-rule:evenodd;"
d="M 27.2292,1.2775
27.2340,1.2536
27.2475,1.2333
27.2678,1.2198
27.2917,1.2150
27.9917,1.2150
28.0156,1.2198
28.0359,1.2333
28.0495,1.2536
28.0542,1.2775
28.0542,1.4025
28.0495,1.4264
28.0359,1.4467
28.0156,1.4602
27.9917,1.4650
27.2917,1.4650
27.2678,1.4602
27.2475,1.4467
27.2340,1.4264
27.2292,1.4025
Z" /> 
<path style="fill:#B4A09A; fill-opacity:0.9000; stroke:none;fill-rule:evenodd;"
d="M 27.2292,1.7775
27.2340,1.7536
27.2475,1.7333
27.2678,1.7198
27.2917,1.7150
27.9917,1.7150
28.0156,1.7198
28.0359,1.7333
28.0495,1.7536
28.0542,1.7775
28.0542,1.9025
28.0495,1.9264
28.0359,1.9467
28.0156,1.9602
27.9917,1.9650
27.2917,1.9650
27.2678,1.9602
27.2475,1.9467
27.2340,1.9264
27.2292,1.9025
Z" /> 
<path style="fill:#B4A09A; fill-opacity:0.9000; stroke:none;fill-rule:evenodd;"
d="M 27.2292,2.2775
27.2340,2.2536
27.2475,2.2333
27.2678,2.2198
27.2917,2.2150
27.9917,2.2150
28.0156,2.2198
28.0359,2.2333
28.0495,2.2536
28.0542,2.2775
28.0542,2.4025
28.0495,2.4264
28.0359,2.4467
28.0156,2.4602
27.9917,2.4650
27.2917,2.4650
27.2678,2.4602
27.2475,2.4467
27.2340,2.4264
27.2292,2.4025
Z" /> 
<path style="fill:#B4A09A; fill-opacity:0.9000; stroke:none;fill-rule:evenodd;"
d="M 27.2292,2.7775
27.2340,2.7536
27.2475,2.7333
27.2678,2.7198
27.2917,2.7150
27.9917,2.7150
28.0156,2.7198
28.0359,2.7333
28.0495,2.7536
28.0542,2.7775
28.0542,2.9025
28.0495,2.9264
28.0359,2.9467
28.0156,2.9602
27.9917,2.9650
27.2917,2.9650
27.2678,2.9602
27.2475,2.9467
27.2340,2.9264
27.2292,2.9025
Z" /> 
<path style="fill:#B4A09A; fill-opacity:0.9000; stroke:none;fill-rule:evenodd;"
d="M 30.1042,2.7775
30.1090,2.7536
30.1225,2.7333
30.1428,2.7198
30.1667,2.7150
30.8667,2.7150
30.8906,2.7198
30.9109,2.7333
30.9245,2.7536
30.9292,2.7775
30.9292,2.9025
30.9245,2.9264
30.9109,2.9467
30.8906,2.9602
30.8667,2.9650
30.1667,2.9650
30.1428,2.9602
30.1225,2.9467
30.1090,2.9264
30.1042,2.9025
Z" /> 
<path style="fill:#B4A09A; fill-opacity:0.9000; stroke:none;fill-rule:evenodd;"
d="M 30.1042,2.2775
30.1090,2.2536
30.1225,2.2333
30.1428,2.2198
30.1667,2.2150
30.8667,2.2150
30.8906,2.2198
30.9109,2.2333
30.9245,2.2536
30.9292,2.2775
30.9292,2.4025
30.9245,2.4264
30.9109,2.4467
30.8906,2.4602
30.8667,2.4650
30.1667,2.4650
30.1428,2.4602
30.1225,2.4467
30.1090,2.4264
30.1042,2.4025
Z" /> 
<path style="fill:#B4A09A; fill-opacity:0.9000; stroke:none;fill-rule:evenodd;"
d="M 30.1042,1.7775
30.1090,1.7536
30.1225,1.7333
30.1428,1.7198
30.1667,1.7150
30.8667,1.7150
30.8906,1.7198
30.9109,1.7333
30.9245,1.7536
30.9292,1.7775
30.9292,1.9025
30.9245,1.9264
30.9109,1.9467
30.8906,1.9602
30.8667,1.9650
30.1667,1.9650
30.1428,1.9602
30.1225,1.9467
30.1090,1.9264
30.1042,1.9025
Z" /> 
<path style="fill:#B4A09A; fill-opacity:0.9000; stroke:none;fill-rule:evenodd;"
d="M 30.1042,1.2775
30.1090,1.2536
30.1225,1.2333
30.1428,1.2198
30.1667,1.2150
30.8667,1.2150
30.8906,1.2198
30.9109,1.2333
30.9245,1.2536
30.9292,1.2775
30.9292,1.4025
30.9245,1.4264
30.9109,1.4467
30.8906,1.4602
30.8667,1.4650
30.1667,1.4650
30.1428,1.4602
30.1225,1.4467
30.1090,1.4264
30.1042,1.4025
Z" /> 
<path style="fill:#B4A09A; fill-opacity:0.9000; stroke:none;fill-rule:evenodd;"
d="M 30.1042,0.7775
30.1090,0.7536
30.1225,0.7333
30.1428,0.7198
30.1667,0.7150
30.8667,0.7150
30.8906,0.7198
30.9109,0.7333
30.9245,0.7536
30.9292,0.7775
30.9292,0.9025
30.9245,0.9264
30.9109,0.9467
30.8906,0.9602
30.8667,0.9650
30.1667,0.9650
30.1428,0.9602
30.1225,0.9467
30.1090,0.9264
30.1042,0.9025
Z" /> 
</g>
<g style="fill:none; 
stroke:#F2EDA1; stroke-width:0.1588; stroke-opacity:1; 
stroke-linecap:round; stroke-linejoin:round;">
<text x="29.0792" y="2.4750"
textLength="5.6651" font-size="1.6933" lengthAdjust="spacingAndGlyphs"
text-anchor="middle" opacity="0">REF**</text>
<g class="stroked-text"><desc>REF**</desc>
<path d="M27.3859 2.4193
L26.9626 1.8145
" />
<path d="M26.6602 2.4193
L26.6602 1.1493
" />
<path d="M26.6602 1.1493
L27.1440 1.1493
" />
<path d="M27.1440 1.1493
L27.2649 1.2097
" />
<path d="M27.2649 1.2097
L27.3254 1.2702
" />
<path d="M27.3254 1.2702
L27.3859 1.3912
" />
<path d="M27.3859 1.3912
L27.3859 1.5726
" />
<path d="M27.3859 1.5726
L27.3254 1.6936
" />
<path d="M27.3254 1.6936
L27.2649 1.7540
" />
<path d="M27.2649 1.7540
L27.1440 1.8145
" />
<path d="M27.1440 1.8145
L26.6602 1.8145
" />
<path d="M27.9302 1.7540
L28.3535 1.7540
" />
<path d="M28.5349 2.4193
L27.9302 2.4193
" />
<path d="M27.9302 2.4193
L27.9302 1.1493
" />
<path d="M27.9302 1.1493
L28.5349 1.1493
" />
<path d="M29.5026 1.7540
L29.0792 1.7540
" />
<path d="M29.0792 2.4193
L29.0792 1.1493
" />
<path d="M29.0792 1.1493
L29.6840 1.1493
" />
<path d="M30.3492 1.1493
L30.3492 1.4517
" />
<path d="M30.0468 1.3307
L30.3492 1.4517
" />
<path d="M30.3492 1.4517
L30.6516 1.3307
" />
<path d="M30.1678 1.6936
L30.3492 1.4517
" />
<path d="M30.3492 1.4517
L30.5306 1.6936
" />
<path d="M31.3168 1.1493
L31.3168 1.4517
" />
<path d="M31.0145 1.3307
L31.3168 1.4517
" />
<path d="M31.3168 1.4517
L31.6192 1.3307
" />
<path d="M31.1354 1.6936
L31.3168 1.4517
" />
<path d="M31.3168 1.4517
L31.4983 1.6936
" />
</g></g>
<g style="fill:none; 
stroke:#F2EDA1; stroke-width:0.1200; stroke-opacity:1; 
stroke-linecap:round; stroke-linejoin:round;">
<path d="M27.5792 0.2300
L30.5792 0.2300
" />
<path d="M27.5792 3.4500
L30.5792 3.4500
" />
<path style="fill:#F2EDA1; fill-opacity:1.0000; 
stroke:#F2EDA1; stroke-width:0.1200; stroke-opacity:1; 
stroke-linecap:round; stroke-linejoin:round;fill-rule:evenodd;"
d="M 27.0592,0.5400
26.5792,0.5400
27.0592,0.0600
Z" /> 
</g>
<g style="fill:#FFFFFF; fill-opacity:1.0000; stroke:none;">
<circle cx="28.5392" cy="0.9150" r="0.1000" /> 
</g>
<g style="fill:#FFFFFF; fill-opacity:1.0000; stroke:none;">
<circle cx="28.5392" cy="1.8400" r="0.1000" /> 
</g>
<g style="fill:#FFFFFF; fill-opacity:1.0000; stroke:none;">
<circle cx="28.5392" cy="2.7650" r="0.1000" /> 
</g>
<g style="fill:#FFFFFF; fill-opacity:1.0000; stroke:none;">
<circle cx="29.6192" cy="0.9150" r="0.1000" /> 
</g>
<g style="fill:#FFFFFF; fill-opacity:1.0000; stroke:none;">
<circle cx="29.6192" cy="1.8400" r="0.1000" /> 
</g>
<g style="fill:#FFFFFF; fill-opacity:1.0000; stroke:none;">
<circle cx="29.6192" cy="2.7650" r="0.1000" /> 
</g>
<g style="fill:none; 
stroke:#FF26E2; stroke-width:0.0500; stroke-opacity:1; 
stroke-linecap:round; stroke-linejoin:round;">
<path d="M26.9792 0.0900
L26.9792 3.5900
" />
<path d="M26.9792 3.5900
L31.1792 3.5900
" />
<path d="M31.1792 0.0900
L26.9792 0.0900
" />
<path d="M31.1792 3.5900
L31.1792 0.0900
" />
</g>
<g style="fill:none; 
stroke:#AFAFAF; stroke-width:0.1588; stroke-opacity:1; 
stroke-linecap:round; stroke-linejoin:round;">
<text x="29.0792" y="2.4750"
textLength="58.1584" font-size="1.6933" lengthAdjust="spacingAndGlyphs"
text-anchor="middle" opacity="0">DFN-10-1EP_3x3mm_P0.5mm_EP1.58x2.35mm_ThermalVias</text>
<g class="stroked-text"><desc>DFN-10-1EP_3x3mm_P0.5mm_EP1.58x2.35mm_ThermalVias</desc>
<path d="M0.4135 2.4193
L0.4135 1.1493
" />
<path d="M0.4135 1.1493
L0.7159 1.1493
" />
<path d="M0.7159 1.1493
L0.8973 1.2097
" />
<path d="M0.8973 1.2097
L1.0183 1.3307
" />
<path d="M1.0183 1.3307
L1.0787 1.4517
" />
<path d="M1.0787 1.4517
L1.1392 1.6936
" />
<path d="M1.1392 1.6936
L1.1392 1.8750
" />
<path d="M1.1392 1.8750
L1.0787 2.1169
" />
<path d="M1.0787 2.1169
L1.0183 2.2378
" />
<path d="M1.0183 2.2378
L0.8973 2.3588
" />
<path d="M0.8973 2.3588
L0.7159 2.4193
" />
<path d="M0.7159 2.4193
L0.4135 2.4193
" />
<path d="M2.1068 1.7540
L1.6835 1.7540
" />
<path d="M1.6835 2.4193
L1.6835 1.1493
" />
<path d="M1.6835 1.1493
L2.2883 1.1493
" />
<path d="M2.7721 2.4193
L2.7721 1.1493
" />
<path d="M2.7721 1.1493
L3.4978 2.4193
" />
<path d="M3.4978 2.4193
L3.4978 1.1493
" />
<path d="M4.1026 1.9355
L5.0702 1.9355
" />
<path d="M6.3402 2.4193
L5.6145 2.4193
" />
<path d="M5.9773 2.4193
L5.9773 1.1493
" />
<path d="M5.9773 1.1493
L5.8564 1.3307
" />
<path d="M5.8564 1.3307
L5.7354 1.4517
" />
<path d="M5.7354 1.4517
L5.6145 1.5121
" />
<path d="M7.1264 1.1493
L7.2473 1.1493
" />
<path d="M7.2473 1.1493
L7.3683 1.2097
" />
<path d="M7.3683 1.2097
L7.4287 1.2702
" />
<path d="M7.4287 1.2702
L7.4892 1.3912
" />
<path d="M7.4892 1.3912
L7.5497 1.6331
" />
<path d="M7.5497 1.6331
L7.5497 1.9355
" />
<path d="M7.5497 1.9355
L7.4892 2.1774
" />
<path d="M7.4892 2.1774
L7.4287 2.2983
" />
<path d="M7.4287 2.2983
L7.3683 2.3588
" />
<path d="M7.3683 2.3588
L7.2473 2.4193
" />
<path d="M7.2473 2.4193
L7.1264 2.4193
" />
<path d="M7.1264 2.4193
L7.0054 2.3588
" />
<path d="M7.0054 2.3588
L6.9449 2.2983
" />
<path d="M6.9449 2.2983
L6.8845 2.1774
" />
<path d="M6.8845 2.1774
L6.8240 1.9355
" />
<path d="M6.8240 1.9355
L6.8240 1.6331
" />
<path d="M6.8240 1.6331
L6.8845 1.3912
" />
<path d="M6.8845 1.3912
L6.9449 1.2702
" />
<path d="M6.9449 1.2702
L7.0054 1.2097
" />
<path d="M7.0054 1.2097
L7.1264 1.1493
" />
<path d="M8.0940 1.9355
L9.0616 1.9355
" />
<path d="M10.3316 2.4193
L9.6059 2.4193
" />
<path d="M9.9687 2.4193
L9.9687 1.1493
" />
<path d="M9.9687 1.1493
L9.8478 1.3307
" />
<path d="M9.8478 1.3307
L9.7268 1.4517
" />
<path d="M9.7268 1.4517
L9.6059 1.5121
" />
<path d="M10.8759 1.7540
L11.2992 1.7540
" />
<path d="M11.4806 2.4193
L10.8759 2.4193
" />
<path d="M10.8759 2.4193
L10.8759 1.1493
" />
<path d="M10.8759 1.1493
L11.4806 1.1493
" />
<path d="M12.0249 2.4193
L12.0249 1.1493
" />
<path d="M12.0249 1.1493
L12.5087 1.1493
" />
<path d="M12.5087 1.1493
L12.6297 1.2097
" />
<path d="M12.6297 1.2097
L12.6902 1.2702
" />
<path d="M12.6902 1.2702
L12.7507 1.3912
" />
<path d="M12.7507 1.3912
L12.7507 1.5726
" />
<path d="M12.7507 1.5726
L12.6902 1.6936
" />
<path d="M12.6902 1.6936
L12.6297 1.7540
" />
<path d="M12.6297 1.7540
L12.5087 1.8145
" />
<path d="M12.5087 1.8145
L12.0249 1.8145
" />
<path d="M12.9926 2.5402
L13.9602 2.5402
" />
<path d="M14.1416 1.1493
L14.9278 1.1493
" />
<path d="M14.9278 1.1493
L14.5045 1.6331
" />
<path d="M14.5045 1.6331
L14.6859 1.6331
" />
<path d="M14.6859 1.6331
L14.8068 1.6936
" />
<path d="M14.8068 1.6936
L14.8673 1.7540
" />
<path d="M14.8673 1.7540
L14.9278 1.8750
" />
<path d="M14.9278 1.8750
L14.9278 2.1774
" />
<path d="M14.9278 2.1774
L14.8673 2.2983
" />
<path d="M14.8673 2.2983
L14.8068 2.3588
" />
<path d="M14.8068 2.3588
L14.6859 2.4193
" />
<path d="M14.6859 2.4193
L14.3230 2.4193
" />
<path d="M14.3230 2.4193
L14.2021 2.3588
" />
<path d="M14.2021 2.3588
L14.1416 2.2983
" />
<path d="M15.3511 2.4193
L16.0164 1.5726
" />
<path d="M15.3511 1.5726
L16.0164 2.4193
" />
<path d="M16.3792 1.1493
L17.1654 1.1493
" />
<path d="M17.1654 1.1493
L16.7421 1.6331
" />
<path d="M16.7421 1.6331
L16.9235 1.6331
" />
<path d="M16.9235 1.6331
L17.0445 1.6936
" />
<path d="M17.0445 1.6936
L17.1049 1.7540
" />
<path d="M17.1049 1.7540
L17.1654 1.8750
" />
<path d="M17.1654 1.8750
L17.1654 2.1774
" />
<path d="M17.1654 2.1774
L17.1049 2.2983
" />
<path d="M17.1049 2.2983
L17.0445 2.3588
" />
<path d="M17.0445 2.3588
L16.9235 2.4193
" />
<path d="M16.9235 2.4193
L16.5606 2.4193
" />
<path d="M16.5606 2.4193
L16.4397 2.3588
" />
<path d="M16.4397 2.3588
L16.3792 2.2983
" />
<path d="M17.7097 2.4193
L17.7097 1.5726
" />
<path d="M17.7097 1.6936
L17.7702 1.6331
" />
<path d="M17.7702 1.6331
L17.8911 1.5726
" />
<path d="M17.8911 1.5726
L18.0726 1.5726
" />
<path d="M18.0726 1.5726
L18.1935 1.6331
" />
<path d="M18.1935 1.6331
L18.2540 1.7540
" />
<path d="M18.2540 1.7540
L18.2540 2.4193
" />
<path d="M18.2540 1.7540
L18.3145 1.6331
" />
<path d="M18.3145 1.6331
L18.4354 1.5726
" />
<path d="M18.4354 1.5726
L18.6168 1.5726
" />
<path d="M18.6168 1.5726
L18.7378 1.6331
" />
<path d="M18.7378 1.6331
L18.7983 1.7540
" />
<path d="M18.7983 1.7540
L18.7983 2.4193
" />
<path d="M19.4030 2.4193
L19.4030 1.5726
" />
<path d="M19.4030 1.6936
L19.4635 1.6331
" />
<path d="M19.4635 1.6331
L19.5845 1.5726
" />
<path d="M19.5845 1.5726
L19.7659 1.5726
" />
<path d="M19.7659 1.5726
L19.8868 1.6331
" />
<path d="M19.8868 1.6331
L19.9473 1.7540
" />
<path d="M19.9473 1.7540
L19.9473 2.4193
" />
<path d="M19.9473 1.7540
L20.0078 1.6331
" />
<path d="M20.0078 1.6331
L20.1287 1.5726
" />
<path d="M20.1287 1.5726
L20.3102 1.5726
" />
<path d="M20.3102 1.5726
L20.4311 1.6331
" />
<path d="M20.4311 1.6331
L20.4916 1.7540
" />
<path d="M20.4916 1.7540
L20.4916 2.4193
" />
<path d="M20.7940 2.5402
L21.7616 2.5402
" />
<path d="M22.0640 2.4193
L22.0640 1.1493
" />
<path d="M22.0640 1.1493
L22.5478 1.1493
" />
<path d="M22.5478 1.1493
L22.6687 1.2097
" />
<path d="M22.6687 1.2097
L22.7292 1.2702
" />
<path d="M22.7292 1.2702
L22.7897 1.3912
" />
<path d="M22.7897 1.3912
L22.7897 1.5726
" />
<path d="M22.7897 1.5726
L22.7292 1.6936
" />
<path d="M22.7292 1.6936
L22.6687 1.7540
" />
<path d="M22.6687 1.7540
L22.5478 1.8145
" />
<path d="M22.5478 1.8145
L22.0640 1.8145
" />
<path d="M23.5759 1.1493
L23.6968 1.1493
" />
<path d="M23.6968 1.1493
L23.8178 1.2097
" />
<path d="M23.8178 1.2097
L23.8783 1.2702
" />
<path d="M23.8783 1.2702
L23.9387 1.3912
" />
<path d="M23.9387 1.3912
L23.9992 1.6331
" />
<path d="M23.9992 1.6331
L23.9992 1.9355
" />
<path d="M23.9992 1.9355
L23.9387 2.1774
" />
<path d="M23.9387 2.1774
L23.8783 2.2983
" />
<path d="M23.8783 2.2983
L23.8178 2.3588
" />
<path d="M23.8178 2.3588
L23.6968 2.4193
" />
<path d="M23.6968 2.4193
L23.5759 2.4193
" />
<path d="M23.5759 2.4193
L23.4549 2.3588
" />
<path d="M23.4549 2.3588
L23.3945 2.2983
" />
<path d="M23.3945 2.2983
L23.3340 2.1774
" />
<path d="M23.3340 2.1774
L23.2735 1.9355
" />
<path d="M23.2735 1.9355
L23.2735 1.6331
" />
<path d="M23.2735 1.6331
L23.3340 1.3912
" />
<path d="M23.3340 1.3912
L23.3945 1.2702
" />
<path d="M23.3945 1.2702
L23.4549 1.2097
" />
<path d="M23.4549 1.2097
L23.5759 1.1493
" />
<path d="M24.5435 2.2983
L24.6040 2.3588
" />
<path d="M24.6040 2.3588
L24.5435 2.4193
" />
<path d="M24.5435 2.4193
L24.4830 2.3588
" />
<path d="M24.4830 2.3588
L24.5435 2.2983
" />
<path d="M24.5435 2.2983
L24.5435 2.4193
" />
<path d="M25.7530 1.1493
L25.1483 1.1493
" />
<path d="M25.1483 1.1493
L25.0878 1.7540
" />
<path d="M25.0878 1.7540
L25.1483 1.6936
" />
<path d="M25.1483 1.6936
L25.2692 1.6331
" />
<path d="M25.2692 1.6331
L25.5716 1.6331
" />
<path d="M25.5716 1.6331
L25.6926 1.6936
" />
<path d="M25.6926 1.6936
L25.7530 1.7540
" />
<path d="M25.7530 1.7540
L25.8135 1.8750
" />
<path d="M25.8135 1.8750
L25.8135 2.1774
" />
<path d="M25.8135 2.1774
L25.7530 2.2983
" />
<path d="M25.7530 2.2983
L25.6926 2.3588
" />
<path d="M25.6926 2.3588
L25.5716 2.4193
" />
<path d="M25.5716 2.4193
L25.2692 2.4193
" />
<path d="M25.2692 2.4193
L25.1483 2.3588
" />
<path d="M25.1483 2.3588
L25.0878 2.2983
" />
<path d="M26.3578 2.4193
L26.3578 1.5726
" />
<path d="M26.3578 1.6936
L26.4183 1.6331
" />
<path d="M26.4183 1.6331
L26.5392 1.5726
" />
<path d="M26.5392 1.5726
L26.7206 1.5726
" />
<path d="M26.7206 1.5726
L26.8416 1.6331
" />
<path d="M26.8416 1.6331
L26.9021 1.7540
" />
<path d="M26.9021 1.7540
L26.9021 2.4193
" />
<path d="M26.9021 1.7540
L26.9626 1.6331
" />
<path d="M26.9626 1.6331
L27.0835 1.5726
" />
<path d="M27.0835 1.5726
L27.2649 1.5726
" />
<path d="M27.2649 1.5726
L27.3859 1.6331
" />
<path d="M27.3859 1.6331
L27.4464 1.7540
" />
<path d="M27.4464 1.7540
L27.4464 2.4193
" />
<path d="M28.0511 2.4193
L28.0511 1.5726
" />
<path d="M28.0511 1.6936
L28.1116 1.6331
" />
<path d="M28.1116 1.6331
L28.2326 1.5726
" />
<path d="M28.2326 1.5726
L28.4140 1.5726
" />
<path d="M28.4140 1.5726
L28.5349 1.6331
" />
<path d="M28.5349 1.6331
L28.5954 1.7540
" />
<path d="M28.5954 1.7540
L28.5954 2.4193
" />
<path d="M28.5954 1.7540
L28.6559 1.6331
" />
<path d="M28.6559 1.6331
L28.7768 1.5726
" />
<path d="M28.7768 1.5726
L28.9583 1.5726
" />
<path d="M28.9583 1.5726
L29.0792 1.6331
" />
<path d="M29.0792 1.6331
L29.1397 1.7540
" />
<path d="M29.1397 1.7540
L29.1397 2.4193
" />
<path d="M29.4421 2.5402
L30.4097 2.5402
" />
<path d="M30.7121 1.7540
L31.1354 1.7540
" />
<path d="M31.3168 2.4193
L30.7121 2.4193
" />
<path d="M30.7121 2.4193
L30.7121 1.1493
" />
<path d="M30.7121 1.1493
L31.3168 1.1493
" />
<path d="M31.8611 2.4193
L31.8611 1.1493
" />
<path d="M31.8611 1.1493
L32.3449 1.1493
" />
<path d="M32.3449 1.1493
L32.4659 1.2097
" />
<path d="M32.4659 1.2097
L32.5264 1.2702
" />
<path d="M32.5264 1.2702
L32.5868 1.3912
" />
<path d="M32.5868 1.3912
L32.5868 1.5726
" />
<path d="M32.5868 1.5726
L32.5264 1.6936
" />
<path d="M32.5264 1.6936
L32.4659 1.7540
" />
<path d="M32.4659 1.7540
L32.3449 1.8145
" />
<path d="M32.3449 1.8145
L31.8611 1.8145
" />
<path d="M33.7964 2.4193
L33.0706 2.4193
" />
<path d="M33.4335 2.4193
L33.4335 1.1493
" />
<path d="M33.4335 1.1493
L33.3126 1.3307
" />
<path d="M33.3126 1.3307
L33.1916 1.4517
" />
<path d="M33.1916 1.4517
L33.0706 1.5121
" />
<path d="M34.3406 2.2983
L34.4011 2.3588
" />
<path d="M34.4011 2.3588
L34.3406 2.4193
" />
<path d="M34.3406 2.4193
L34.2802 2.3588
" />
<path d="M34.2802 2.3588
L34.3406 2.2983
" />
<path d="M34.3406 2.2983
L34.3406 2.4193
" />
<path d="M35.5502 1.1493
L34.9454 1.1493
" />
<path d="M34.9454 1.1493
L34.8849 1.7540
" />
<path d="M34.8849 1.7540
L34.9454 1.6936
" />
<path d="M34.9454 1.6936
L35.0664 1.6331
" />
<path d="M35.0664 1.6331
L35.3687 1.6331
" />
<path d="M35.3687 1.6331
L35.4897 1.6936
" />
<path d="M35.4897 1.6936
L35.5502 1.7540
" />
<path d="M35.5502 1.7540
L35.6106 1.8750
" />
<path d="M35.6106 1.8750
L35.6106 2.1774
" />
<path d="M35.6106 2.1774
L35.5502 2.2983
" />
<path d="M35.5502 2.2983
L35.4897 2.3588
" />
<path d="M35.4897 2.3588
L35.3687 2.4193
" />
<path d="M35.3687 2.4193
L35.0664 2.4193
" />
<path d="M35.0664 2.4193
L34.9454 2.3588
" />
<path d="M34.9454 2.3588
L34.8849 2.2983
" />
<path d="M36.3364 1.6936
L36.2154 1.6331
" />
<path d="M36.2154 1.6331
L36.1549 1.5726
" />
<path d="M36.1549 1.5726
L36.0945 1.4517
" />
<path d="M36.0945 1.4517
L36.0945 1.3912
" />
<path d="M36.0945 1.3912
L36.1549 1.2702
" />
<path d="M36.1549 1.2702
L36.2154 1.2097
" />
<path d="M36.2154 1.2097
L36.3364 1.1493
" />
<path d="M36.3364 1.1493
L36.5783 1.1493
" />
<path d="M36.5783 1.1493
L36.6992 1.2097
" />
<path d="M36.6992 1.2097
L36.7597 1.2702
" />
<path d="M36.7597 1.2702
L36.8202 1.3912
" />
<path d="M36.8202 1.3912
L36.8202 1.4517
" />
<path d="M36.8202 1.4517
L36.7597 1.5726
" />
<path d="M36.7597 1.5726
L36.6992 1.6331
" />
<path d="M36.6992 1.6331
L36.5783 1.6936
" />
<path d="M36.5783 1.6936
L36.3364 1.6936
" />
<path d="M36.3364 1.6936
L36.2154 1.7540
" />
<path d="M36.2154 1.7540
L36.1549 1.8145
" />
<path d="M36.1549 1.8145
L36.0945 1.9355
" />
<path d="M36.0945 1.9355
L36.0945 2.1774
" />
<path d="M36.0945 2.1774
L36.1549 2.2983
" />
<path d="M36.1549 2.2983
L36.2154 2.3588
" />
<path d="M36.2154 2.3588
L36.3364 2.4193
" />
<path d="M36.3364 2.4193
L36.5783 2.4193
" />
<path d="M36.5783 2.4193
L36.6992 2.3588
" />
<path d="M36.6992 2.3588
L36.7597 2.2983
" />
<path d="M36.7597 2.2983
L36.8202 2.1774
" />
<path d="M36.8202 2.1774
L36.8202 1.9355
" />
<path d="M36.8202 1.9355
L36.7597 1.8145
" />
<path d="M36.7597 1.8145
L36.6992 1.7540
" />
<path d="M36.6992 1.7540
L36.5783 1.6936
" />
<path d="M37.2435 2.4193
L37.9087 1.5726
" />
<path d="M37.2435 1.5726
L37.9087 2.4193
" />
<path d="M38.3321 1.2702
L38.3926 1.2097
" />
<path d="M38.3926 1.2097
L38.5135 1.1493
" />
<path d="M38.5135 1.1493
L38.8159 1.1493
" />
<path d="M38.8159 1.1493
L38.9368 1.2097
" />
<path d="M38.9368 1.2097
L38.9973 1.2702
" />
<path d="M38.9973 1.2702
L39.0578 1.3912
" />
<path d="M39.0578 1.3912
L39.0578 1.5121
" />
<path d="M39.0578 1.5121
L38.9973 1.6936
" />
<path d="M38.9973 1.6936
L38.2716 2.4193
" />
<path d="M38.2716 2.4193
L39.0578 2.4193
" />
<path d="M39.6021 2.2983
L39.6626 2.3588
" />
<path d="M39.6626 2.3588
L39.6021 2.4193
" />
<path d="M39.6021 2.4193
L39.5416 2.3588
" />
<path d="M39.5416 2.3588
L39.6021 2.2983
" />
<path d="M39.6021 2.2983
L39.6021 2.4193
" />
<path d="M40.0859 1.1493
L40.8721 1.1493
" />
<path d="M40.8721 1.1493
L40.4487 1.6331
" />
<path d="M40.4487 1.6331
L40.6302 1.6331
" />
<path d="M40.6302 1.6331
L40.7511 1.6936
" />
<path d="M40.7511 1.6936
L40.8116 1.7540
" />
<path d="M40.8116 1.7540
L40.8721 1.8750
" />
<path d="M40.8721 1.8750
L40.8721 2.1774
" />
<path d="M40.8721 2.1774
L40.8116 2.2983
" />
<path d="M40.8116 2.2983
L40.7511 2.3588
" />
<path d="M40.7511 2.3588
L40.6302 2.4193
" />
<path d="M40.6302 2.4193
L40.2673 2.4193
" />
<path d="M40.2673 2.4193
L40.1464 2.3588
" />
<path d="M40.1464 2.3588
L40.0859 2.2983
" />
<path d="M42.0211 1.1493
L41.4164 1.1493
" />
<path d="M41.4164 1.1493
L41.3559 1.7540
" />
<path d="M41.3559 1.7540
L41.4164 1.6936
" />
<path d="M41.4164 1.6936
L41.5373 1.6331
" />
<path d="M41.5373 1.6331
L41.8397 1.6331
" />
<path d="M41.8397 1.6331
L41.9606 1.6936
" />
<path d="M41.9606 1.6936
L42.0211 1.7540
" />
<path d="M42.0211 1.7540
L42.0816 1.8750
" />
<path d="M42.0816 1.8750
L42.0816 2.1774
" />
<path d="M42.0816 2.1774
L42.0211 2.2983
" />
<path d="M42.0211 2.2983
L41.9606 2.3588
" />
<path d="M41.9606 2.3588
L41.8397 2.4193
" />
<path d="M41.8397 2.4193
L41.5373 2.4193
" />
<path d="M41.5373 2.4193
L41.4164 2.3588
" />
<path d="M41.4164 2.3588
L41.3559 2.2983
" />
<path d="M42.6259 2.4193
L42.6259 1.5726
" />
<path d="M42.6259 1.6936
L42.6864 1.6331
" />
<path d="M42.6864 1.6331
L42.8073 1.5726
" />
<path d="M42.8073 1.5726
L42.9887 1.5726
" />
<path d="M42.9887 1.5726
L43.1097 1.6331
" />
<path d="M43.1097 1.6331
L43.1702 1.7540
" />
<path d="M43.1702 1.7540
L43.1702 2.4193
" />
<path d="M43.1702 1.7540
L43.2306 1.6331
" />
<path d="M43.2306 1.6331
L43.3516 1.5726
" />
<path d="M43.3516 1.5726
L43.5330 1.5726
" />
<path d="M43.5330 1.5726
L43.6540 1.6331
" />
<path d="M43.6540 1.6331
L43.7145 1.7540
" />
<path d="M43.7145 1.7540
L43.7145 2.4193
" />
<path d="M44.3192 2.4193
L44.3192 1.5726
" />
<path d="M44.3192 1.6936
L44.3797 1.6331
" />
<path d="M44.3797 1.6331
L44.5006 1.5726
" />
<path d="M44.5006 1.5726
L44.6821 1.5726
" />
<path d="M44.6821 1.5726
L44.8030 1.6331
" />
<path d="M44.8030 1.6331
L44.8635 1.7540
" />
<path d="M44.8635 1.7540
L44.8635 2.4193
" />
<path d="M44.8635 1.7540
L44.9240 1.6331
" />
<path d="M44.9240 1.6331
L45.0449 1.5726
" />
<path d="M45.0449 1.5726
L45.2264 1.5726
" />
<path d="M45.2264 1.5726
L45.3473 1.6331
" />
<path d="M45.3473 1.6331
L45.4078 1.7540
" />
<path d="M45.4078 1.7540
L45.4078 2.4193
" />
<path d="M45.7102 2.5402
L46.6778 2.5402
" />
<path d="M46.7987 1.1493
L47.5245 1.1493
" />
<path d="M47.1616 2.4193
L47.1616 1.1493
" />
<path d="M47.9478 2.4193
L47.9478 1.1493
" />
<path d="M48.4921 2.4193
L48.4921 1.7540
" />
<path d="M48.4921 1.7540
L48.4316 1.6331
" />
<path d="M48.4316 1.6331
L48.3106 1.5726
" />
<path d="M48.3106 1.5726
L48.1292 1.5726
" />
<path d="M48.1292 1.5726
L48.0083 1.6331
" />
<path d="M48.0083 1.6331
L47.9478 1.6936
" />
<path d="M49.5806 2.3588
L49.4597 2.4193
" />
<path d="M49.4597 2.4193
L49.2178 2.4193
" />
<path d="M49.2178 2.4193
L49.0968 2.3588
" />
<path d="M49.0968 2.3588
L49.0364 2.2378
" />
<path d="M49.0364 2.2378
L49.0364 1.7540
" />
<path d="M49.0364 1.7540
L49.0968 1.6331
" />
<path d="M49.0968 1.6331
L49.2178 1.5726
" />
<path d="M49.2178 1.5726
L49.4597 1.5726
" />
<path d="M49.4597 1.5726
L49.5806 1.6331
" />
<path d="M49.5806 1.6331
L49.6411 1.7540
" />
<path d="M49.6411 1.7540
L49.6411 1.8750
" />
<path d="M49.6411 1.8750
L49.0364 1.9959
" />
<path d="M50.1854 2.4193
L50.1854 1.5726
" />
<path d="M50.1854 1.8145
L50.2459 1.6936
" />
<path d="M50.2459 1.6936
L50.3064 1.6331
" />
<path d="M50.3064 1.6331
L50.4273 1.5726
" />
<path d="M50.4273 1.5726
L50.5483 1.5726
" />
<path d="M50.9716 2.4193
L50.9716 1.5726
" />
<path d="M50.9716 1.6936
L51.0321 1.6331
" />
<path d="M51.0321 1.6331
L51.1530 1.5726
" />
<path d="M51.1530 1.5726
L51.3345 1.5726
" />
<path d="M51.3345 1.5726
L51.4554 1.6331
" />
<path d="M51.4554 1.6331
L51.5159 1.7540
" />
<path d="M51.5159 1.7540
L51.5159 2.4193
" />
<path d="M51.5159 1.7540
L51.5764 1.6331
" />
<path d="M51.5764 1.6331
L51.6973 1.5726
" />
<path d="M51.6973 1.5726
L51.8787 1.5726
" />
<path d="M51.8787 1.5726
L51.9997 1.6331
" />
<path d="M51.9997 1.6331
L52.0602 1.7540
" />
<path d="M52.0602 1.7540
L52.0602 2.4193
" />
<path d="M53.2092 2.4193
L53.2092 1.7540
" />
<path d="M53.2092 1.7540
L53.1487 1.6331
" />
<path d="M53.1487 1.6331
L53.0278 1.5726
" />
<path d="M53.0278 1.5726
L52.7859 1.5726
" />
<path d="M52.7859 1.5726
L52.6649 1.6331
" />
<path d="M53.2092 2.3588
L53.0883 2.4193
" />
<path d="M53.0883 2.4193
L52.7859 2.4193
" />
<path d="M52.7859 2.4193
L52.6649 2.3588
" />
<path d="M52.6649 2.3588
L52.6045 2.2378
" />
<path d="M52.6045 2.2378
L52.6045 2.1169
" />
<path d="M52.6045 2.1169
L52.6649 1.9959
" />
<path d="M52.6649 1.9959
L52.7859 1.9355
" />
<path d="M52.7859 1.9355
L53.0883 1.9355
" />
<path d="M53.0883 1.9355
L53.2092 1.8750
" />
<path d="M53.9954 2.4193
L53.8745 2.3588
" />
<path d="M53.8745 2.3588
L53.8140 2.2378
" />
<path d="M53.8140 2.2378
L53.8140 1.1493
" />
<path d="M54.2978 1.1493
L54.7211 2.4193
" />
<path d="M54.7211 2.4193
L55.1445 1.1493
" />
<path d="M55.5678 2.4193
L55.5678 1.5726
" />
<path d="M55.5678 1.1493
L55.5073 1.2097
" />
<path d="M55.5073 1.2097
L55.5678 1.2702
" />
<path d="M55.5678 1.2702
L55.6283 1.2097
" />
<path d="M55.6283 1.2097
L55.5678 1.1493
" />
<path d="M55.5678 1.1493
L55.5678 1.2702
" />
<path d="M56.7168 2.4193
L56.7168 1.7540
" />
<path d="M56.7168 1.7540
L56.6564 1.6331
" />
<path d="M56.6564 1.6331
L56.5354 1.5726
" />
<path d="M56.5354 1.5726
L56.2935 1.5726
" />
<path d="M56.2935 1.5726
L56.1726 1.6331
" />
<path d="M56.7168 2.3588
L56.5959 2.4193
" />
<path d="M56.5959 2.4193
L56.2935 2.4193
" />
<path d="M56.2935 2.4193
L56.1726 2.3588
" />
<path d="M56.1726 2.3588
L56.1121 2.2378
" />
<path d="M56.1121 2.2378
L56.1121 2.1169
" />
<path d="M56.1121 2.1169
L56.1726 1.9959
" />
<path d="M56.1726 1.9959
L56.2935 1.9355
" />
<path d="M56.2935 1.9355
L56.5959 1.9355
" />
<path d="M56.5959 1.9355
L56.7168 1.8750
" />
<path d="M57.2611 2.3588
L57.3821 2.4193
" />
<path d="M57.3821 2.4193
L57.6240 2.4193
" />
<path d="M57.6240 2.4193
L57.7449 2.3588
" />
<path d="M57.7449 2.3588
L57.8054 2.2378
" />
<path d="M57.8054 2.2378
L57.8054 2.1774
" />
<path d="M57.8054 2.1774
L57.7449 2.0564
" />
<path d="M57.7449 2.0564
L57.6240 1.9959
" />
<path d="M57.6240 1.9959
L57.4426 1.9959
" />
<path d="M57.4426 1.9959
L57.3216 1.9355
" />
<path d="M57.3216 1.9355
L57.2611 1.8145
" />
<path d="M57.2611 1.8145
L57.2611 1.7540
" />
<path d="M57.2611 1.7540
L57.3216 1.6331
" />
<path d="M57.3216 1.6331
L57.4426 1.5726
" />
<path d="M57.4426 1.5726
L57.6240 1.5726
" />
<path d="M57.6240 1.5726
L57.7449 1.6331
" />
</g></g>
<g style="fill:none; 
stroke:#AFAFAF; stroke-width:0.1100; stroke-opacity:1; 
stroke-linecap:round; stroke-linejoin:round;">
<text x="29.0792" y="2.2150"
textLength="3.3943" font-size="1.0000" lengthAdjust="spacingAndGlyphs"
text-anchor="middle" opacity="0">REF**</text>
<g class="stroked-text"><desc>REF**</desc>
<path d="M28.0792 2.1812
L27.8292 1.8241
" />
<path d="M27.6506 2.1812
L27.6506 1.4312
" />
<path d="M27.6506 1.4312
L27.9364 1.4312
" />
<path d="M27.9364 1.4312
L28.0078 1.4670
" />
<path d="M28.0078 1.4670
L28.0435 1.5027
" />
<path d="M28.0435 1.5027
L28.0792 1.5741
" />
<path d="M28.0792 1.5741
L28.0792 1.6812
" />
<path d="M28.0792 1.6812
L28.0435 1.7527
" />
<path d="M28.0435 1.7527
L28.0078 1.7884
" />
<path d="M28.0078 1.7884
L27.9364 1.8241
" />
<path d="M27.9364 1.8241
L27.6506 1.8241
" />
<path d="M28.4006 1.7884
L28.6506 1.7884
" />
<path d="M28.7578 2.1812
L28.4006 2.1812
" />
<path d="M28.4006 2.1812
L28.4006 1.4312
" />
<path d="M28.4006 1.4312
L28.7578 1.4312
" />
<path d="M29.3292 1.7884
L29.0792 1.7884
" />
<path d="M29.0792 2.1812
L29.0792 1.4312
" />
<path d="M29.0792 1.4312
L29.4364 1.4312
" />
<path d="M29.8292 1.4312
L29.8292 1.6098
" />
<path d="M29.6506 1.5384
L29.8292 1.6098
" />
<path d="M29.8292 1.6098
L30.0078 1.5384
" />
<path d="M29.7221 1.7527
L29.8292 1.6098
" />
<path d="M29.8292 1.6098
L29.9364 1.7527
" />
<path d="M30.4006 1.4312
L30.4006 1.6098
" />
<path d="M30.2221 1.5384
L30.4006 1.6098
" />
<path d="M30.4006 1.6098
L30.5792 1.5384
" />
<path d="M30.2935 1.7527
L30.4006 1.6098
" />
<path d="M30.4006 1.6098
L30.5078 1.7527
" />
</g></g>
<g style="fill:none; 
stroke:#AFAFAF; stroke-width:0.1000; stroke-opacity:1; 
stroke-linecap:round; stroke-linejoin:round;">
<path d="M27.5792 1.0900
L28.3292 0.3400
" />
<path d="M27.5792 3.3400
L27.5792 1.0900
" />
<path d="M28.3292 0.3400
L30.5792 0.3400
" />
<path d="M30.5792 0.3400
L30.5792 3.3400
" />
<path d="M30.5792 3.3400
L27.5792 3.3400
" />
</g> 
</svg>
