<?xml version="1.0" standalone="no"?>
 <!DOCTYPE svg PUBLIC "-//W3C//DTD SVG 1.1//EN" 
 "http://www.w3.org/Graphics/SVG/1.1/DTD/svg11.dtd"> 
<svg
  xmlns:svg="http://www.w3.org/2000/svg"
  xmlns="http://www.w3.org/2000/svg"
  xmlns:xlink="http://www.w3.org/1999/xlink"
  version="1.1"
  width="55.8546mm" height="27.0256mm" viewBox="0.0000 0.0000 55.8546 27.0256">
<title>SVG Image created as working-brd.svg date 2024/03/26 22:44:41 </title>
  <desc>Image generated by PCBNEW </desc>
<g style="fill:#000000; fill-opacity:1.0000;stroke:#000000; stroke-opacity:1.0000;
stroke-linecap:round; stroke-linejoin:round;"
 transform="translate(0 0) scale(1 1)">
</g>
<g style="fill:#FFFFFF; fill-opacity:1.0000; stroke:none;">
<circle cx="23.6364" cy="10.3450" r="0.6000" /> 
</g>
<g style="fill:#FFFFFF; fill-opacity:1.0000; stroke:none;">
<circle cx="28.0764" cy="19.8750" r="0.6000" /> 
</g>
<g style="fill:#FFFFFF; fill-opacity:1.0000; stroke:none;">
<circle cx="28.0764" cy="13.5250" r="0.6000" /> 
</g>
<g style="fill:#FFFFFF; fill-opacity:1.0000; stroke:none;">
<circle cx="28.0764" cy="7.1750" r="0.6000" /> 
</g>
<g style="fill:#02FFEE; fill-opacity:0.4000; stroke:none;">
<circle cx="23.6364" cy="10.3450" r="1.5000" /> 
</g>
<g style="fill:#02FFEE; fill-opacity:0.4000; stroke:none;">
<circle cx="28.0764" cy="19.8750" r="1.5000" /> 
</g>
<g style="fill:#02FFEE; fill-opacity:0.4000; stroke:none;">
<circle cx="28.0764" cy="13.5250" r="1.5000" /> 
</g>
<g style="fill:#02FFEE; fill-opacity:0.4000; stroke:none;">
<circle cx="28.0764" cy="7.1750" r="1.5000" /> 
</g>
<g style="fill:#FFFFFF; fill-opacity:1.0000; stroke:none;">
<circle cx="23.6364" cy="10.3450" r="0.6000" /> 
</g>
<g style="fill:#FFFFFF; fill-opacity:1.0000; stroke:none;">
<circle cx="28.0764" cy="19.8750" r="0.6000" /> 
</g>
<g style="fill:#FFFFFF; fill-opacity:1.0000; stroke:none;">
<circle cx="28.0764" cy="13.5250" r="0.6000" /> 
</g>
<g style="fill:#FFFFFF; fill-opacity:1.0000; stroke:none;">
<circle cx="28.0764" cy="7.1750" r="0.6000" /> 
</g>
<g style="fill:#FFFFFF; fill-opacity:1.0000; stroke:none;">
<circle cx="23.6364" cy="10.3450" r="0.6000" /> 
</g>
<g style="fill:#FFFFFF; fill-opacity:1.0000; stroke:none;">
<circle cx="28.0764" cy="19.8750" r="0.6000" /> 
</g>
<g style="fill:#FFFFFF; fill-opacity:1.0000; stroke:none;">
<circle cx="28.0764" cy="13.5250" r="0.6000" /> 
</g>
<g style="fill:#FFFFFF; fill-opacity:1.0000; stroke:none;">
<circle cx="28.0764" cy="7.1750" r="0.6000" /> 
</g>
<g style="fill:#D864FF; fill-opacity:0.4000; stroke:none;">
<circle cx="23.6364" cy="10.3450" r="1.5000" /> 
</g>
<g style="fill:#D864FF; fill-opacity:0.4000; stroke:none;">
<circle cx="28.0764" cy="19.8750" r="1.5000" /> 
</g>
<g style="fill:#D864FF; fill-opacity:0.4000; stroke:none;">
<circle cx="28.0764" cy="13.5250" r="1.5000" /> 
</g>
<g style="fill:#D864FF; fill-opacity:0.4000; stroke:none;">
<circle cx="28.0764" cy="7.1750" r="1.5000" /> 
</g>
<g style="fill:none; 
stroke:#F2EDA1; stroke-width:0.1588; stroke-opacity:1; 
stroke-linecap:round; stroke-linejoin:round;">
<text x="23.6364" y="10.9800"
textLength="5.6651" font-size="1.6933" lengthAdjust="spacingAndGlyphs"
text-anchor="middle" opacity="0">REF**</text>
<g class="stroked-text"><desc>REF**</desc>
<path d="M21.9430 10.9243
L21.5197 10.3195
" />
<path d="M21.2173 10.9243
L21.2173 9.6543
" />
<path d="M21.2173 9.6543
L21.7011 9.6543
" />
<path d="M21.7011 9.6543
L21.8221 9.7147
" />
<path d="M21.8221 9.7147
L21.8826 9.7752
" />
<path d="M21.8826 9.7752
L21.9430 9.8962
" />
<path d="M21.9430 9.8962
L21.9430 10.0776
" />
<path d="M21.9430 10.0776
L21.8826 10.1986
" />
<path d="M21.8826 10.1986
L21.8221 10.2590
" />
<path d="M21.8221 10.2590
L21.7011 10.3195
" />
<path d="M21.7011 10.3195
L21.2173 10.3195
" />
<path d="M22.4873 10.2590
L22.9106 10.2590
" />
<path d="M23.0921 10.9243
L22.4873 10.9243
" />
<path d="M22.4873 10.9243
L22.4873 9.6543
" />
<path d="M22.4873 9.6543
L23.0921 9.6543
" />
<path d="M24.0597 10.2590
L23.6364 10.2590
" />
<path d="M23.6364 10.9243
L23.6364 9.6543
" />
<path d="M23.6364 9.6543
L24.2411 9.6543
" />
<path d="M24.9064 9.6543
L24.9064 9.9567
" />
<path d="M24.6040 9.8357
L24.9064 9.9567
" />
<path d="M24.9064 9.9567
L25.2087 9.8357
" />
<path d="M24.7249 10.1986
L24.9064 9.9567
" />
<path d="M24.9064 9.9567
L25.0878 10.1986
" />
<path d="M25.8740 9.6543
L25.8740 9.9567
" />
<path d="M25.5716 9.8357
L25.8740 9.9567
" />
<path d="M25.8740 9.9567
L26.1764 9.8357
" />
<path d="M25.6926 10.1986
L25.8740 9.9567
" />
<path d="M25.8740 9.9567
L26.0554 10.1986
" />
</g></g>
<g style="fill:none; 
stroke:#F2EDA1; stroke-width:0.1200; stroke-opacity:1; 
stroke-linecap:round; stroke-linejoin:round;">
<path d="M28.9564 1.5050
L48.2264 1.5050
" />
<path d="M28.9564 5.5750
L28.9564 1.5050
" />
<path d="M28.9564 11.9250
L28.9564 8.7750
" />
<path d="M28.9564 18.2750
L28.9564 15.1250
" />
<path d="M28.9564 25.5450
L28.9564 21.4750
" />
<path d="M28.9564 25.5450
L48.2264 25.5450
" />
<path d="M48.2264 0.4050
L48.2264 1.5050
" />
<path d="M48.2264 0.4050
L52.9664 0.4050
" />
<path d="M48.2264 26.6450
L48.2264 25.5450
" />
<path d="M48.2264 26.6450
L52.9664 26.6450
" />
<path d="M52.9664 0.4050
L52.9664 1.4050
" />
<path d="M52.9664 26.6450
L52.9664 25.6450
" />
<path d="M55.4664 1.4050
L52.9664 1.4050
" />
<path d="M55.4664 25.6450
L52.9664 25.6450
" />
<path d="M55.4664 25.6450
L55.4664 1.4050
" />
</g>
<g style="fill:#FFFFFF; fill-opacity:1.0000; stroke:none;">
<circle cx="23.6364" cy="10.3450" r="0.6000" /> 
</g>
<g style="fill:#FFFFFF; fill-opacity:1.0000; stroke:none;">
<circle cx="28.0764" cy="19.8750" r="0.6000" /> 
</g>
<g style="fill:#FFFFFF; fill-opacity:1.0000; stroke:none;">
<circle cx="28.0764" cy="13.5250" r="0.6000" /> 
</g>
<g style="fill:#FFFFFF; fill-opacity:1.0000; stroke:none;">
<circle cx="28.0764" cy="7.1750" r="0.6000" /> 
</g>
<g style="fill:none; 
stroke:#FF26E2; stroke-width:0.0500; stroke-opacity:1; 
stroke-linecap:round; stroke-linejoin:round;">
<path d="M21.6364 27.0250
L21.6364 0.0250
" />
<path d="M21.6364 27.0250
L55.8464 27.0250
" />
<path d="M55.8464 0.0250
L21.6364 0.0250
" />
<path d="M55.8464 0.0250
L55.8464 27.0250
" />
</g>
<g style="fill:none; 
stroke:#AFAFAF; stroke-width:0.1588; stroke-opacity:1; 
stroke-linecap:round; stroke-linejoin:round;">
<text x="23.6364" y="10.9800"
textLength="47.2727" font-size="1.6933" lengthAdjust="spacingAndGlyphs"
text-anchor="middle" opacity="0">Jack_speakON_Neutrik_NL4MDXX-H-2_Horizontal</text>
<g class="stroked-text"><desc>Jack_speakON_Neutrik_NL4MDXX-H-2_Horizontal</desc>
<path d="M0.7764 9.6543
L0.7764 10.5614
" />
<path d="M0.7764 10.5614
L0.7159 10.7428
" />
<path d="M0.7159 10.7428
L0.5949 10.8638
" />
<path d="M0.5949 10.8638
L0.4135 10.9243
" />
<path d="M0.4135 10.9243
L0.2926 10.9243
" />
<path d="M1.9254 10.9243
L1.9254 10.2590
" />
<path d="M1.9254 10.2590
L1.8649 10.1381
" />
<path d="M1.8649 10.1381
L1.7440 10.0776
" />
<path d="M1.7440 10.0776
L1.5021 10.0776
" />
<path d="M1.5021 10.0776
L1.3811 10.1381
" />
<path d="M1.9254 10.8638
L1.8045 10.9243
" />
<path d="M1.8045 10.9243
L1.5021 10.9243
" />
<path d="M1.5021 10.9243
L1.3811 10.8638
" />
<path d="M1.3811 10.8638
L1.3206 10.7428
" />
<path d="M1.3206 10.7428
L1.3206 10.6219
" />
<path d="M1.3206 10.6219
L1.3811 10.5009
" />
<path d="M1.3811 10.5009
L1.5021 10.4405
" />
<path d="M1.5021 10.4405
L1.8045 10.4405
" />
<path d="M1.8045 10.4405
L1.9254 10.3800
" />
<path d="M3.0745 10.8638
L2.9535 10.9243
" />
<path d="M2.9535 10.9243
L2.7116 10.9243
" />
<path d="M2.7116 10.9243
L2.5906 10.8638
" />
<path d="M2.5906 10.8638
L2.5302 10.8033
" />
<path d="M2.5302 10.8033
L2.4697 10.6824
" />
<path d="M2.4697 10.6824
L2.4697 10.3195
" />
<path d="M2.4697 10.3195
L2.5302 10.1986
" />
<path d="M2.5302 10.1986
L2.5906 10.1381
" />
<path d="M2.5906 10.1381
L2.7116 10.0776
" />
<path d="M2.7116 10.0776
L2.9535 10.0776
" />
<path d="M2.9535 10.0776
L3.0745 10.1381
" />
<path d="M3.6187 10.9243
L3.6187 9.6543
" />
<path d="M3.7397 10.4405
L4.1026 10.9243
" />
<path d="M4.1026 10.0776
L3.6187 10.5614
" />
<path d="M4.3445 11.0452
L5.3121 11.0452
" />
<path d="M5.5540 10.8638
L5.6749 10.9243
" />
<path d="M5.6749 10.9243
L5.9168 10.9243
" />
<path d="M5.9168 10.9243
L6.0378 10.8638
" />
<path d="M6.0378 10.8638
L6.0983 10.7428
" />
<path d="M6.0983 10.7428
L6.0983 10.6824
" />
<path d="M6.0983 10.6824
L6.0378 10.5614
" />
<path d="M6.0378 10.5614
L5.9168 10.5009
" />
<path d="M5.9168 10.5009
L5.7354 10.5009
" />
<path d="M5.7354 10.5009
L5.6145 10.4405
" />
<path d="M5.6145 10.4405
L5.5540 10.3195
" />
<path d="M5.5540 10.3195
L5.5540 10.2590
" />
<path d="M5.5540 10.2590
L5.6145 10.1381
" />
<path d="M5.6145 10.1381
L5.7354 10.0776
" />
<path d="M5.7354 10.0776
L5.9168 10.0776
" />
<path d="M5.9168 10.0776
L6.0378 10.1381
" />
<path d="M6.6426 10.0776
L6.6426 11.3476
" />
<path d="M6.6426 10.1381
L6.7635 10.0776
" />
<path d="M6.7635 10.0776
L7.0054 10.0776
" />
<path d="M7.0054 10.0776
L7.1264 10.1381
" />
<path d="M7.1264 10.1381
L7.1868 10.1986
" />
<path d="M7.1868 10.1986
L7.2473 10.3195
" />
<path d="M7.2473 10.3195
L7.2473 10.6824
" />
<path d="M7.2473 10.6824
L7.1868 10.8033
" />
<path d="M7.1868 10.8033
L7.1264 10.8638
" />
<path d="M7.1264 10.8638
L7.0054 10.9243
" />
<path d="M7.0054 10.9243
L6.7635 10.9243
" />
<path d="M6.7635 10.9243
L6.6426 10.8638
" />
<path d="M8.2754 10.8638
L8.1545 10.9243
" />
<path d="M8.1545 10.9243
L7.9126 10.9243
" />
<path d="M7.9126 10.9243
L7.7916 10.8638
" />
<path d="M7.7916 10.8638
L7.7311 10.7428
" />
<path d="M7.7311 10.7428
L7.7311 10.2590
" />
<path d="M7.7311 10.2590
L7.7916 10.1381
" />
<path d="M7.7916 10.1381
L7.9126 10.0776
" />
<path d="M7.9126 10.0776
L8.1545 10.0776
" />
<path d="M8.1545 10.0776
L8.2754 10.1381
" />
<path d="M8.2754 10.1381
L8.3359 10.2590
" />
<path d="M8.3359 10.2590
L8.3359 10.3800
" />
<path d="M8.3359 10.3800
L7.7311 10.5009
" />
<path d="M9.4245 10.9243
L9.4245 10.2590
" />
<path d="M9.4245 10.2590
L9.3640 10.1381
" />
<path d="M9.3640 10.1381
L9.2430 10.0776
" />
<path d="M9.2430 10.0776
L9.0011 10.0776
" />
<path d="M9.0011 10.0776
L8.8802 10.1381
" />
<path d="M9.4245 10.8638
L9.3035 10.9243
" />
<path d="M9.3035 10.9243
L9.0011 10.9243
" />
<path d="M9.0011 10.9243
L8.8802 10.8638
" />
<path d="M8.8802 10.8638
L8.8197 10.7428
" />
<path d="M8.8197 10.7428
L8.8197 10.6219
" />
<path d="M8.8197 10.6219
L8.8802 10.5009
" />
<path d="M8.8802 10.5009
L9.0011 10.4405
" />
<path d="M9.0011 10.4405
L9.3035 10.4405
" />
<path d="M9.3035 10.4405
L9.4245 10.3800
" />
<path d="M10.0292 10.9243
L10.0292 9.6543
" />
<path d="M10.1502 10.4405
L10.5130 10.9243
" />
<path d="M10.5130 10.0776
L10.0292 10.5614
" />
<path d="M11.2992 9.6543
L11.5411 9.6543
" />
<path d="M11.5411 9.6543
L11.6621 9.7147
" />
<path d="M11.6621 9.7147
L11.7830 9.8357
" />
<path d="M11.7830 9.8357
L11.8435 10.0776
" />
<path d="M11.8435 10.0776
L11.8435 10.5009
" />
<path d="M11.8435 10.5009
L11.7830 10.7428
" />
<path d="M11.7830 10.7428
L11.6621 10.8638
" />
<path d="M11.6621 10.8638
L11.5411 10.9243
" />
<path d="M11.5411 10.9243
L11.2992 10.9243
" />
<path d="M11.2992 10.9243
L11.1783 10.8638
" />
<path d="M11.1783 10.8638
L11.0573 10.7428
" />
<path d="M11.0573 10.7428
L10.9968 10.5009
" />
<path d="M10.9968 10.5009
L10.9968 10.0776
" />
<path d="M10.9968 10.0776
L11.0573 9.8357
" />
<path d="M11.0573 9.8357
L11.1783 9.7147
" />
<path d="M11.1783 9.7147
L11.2992 9.6543
" />
<path d="M12.3878 10.9243
L12.3878 9.6543
" />
<path d="M12.3878 9.6543
L13.1135 10.9243
" />
<path d="M13.1135 10.9243
L13.1135 9.6543
" />
<path d="M13.4159 11.0452
L14.3835 11.0452
" />
<path d="M14.6859 10.9243
L14.6859 9.6543
" />
<path d="M14.6859 9.6543
L15.4116 10.9243
" />
<path d="M15.4116 10.9243
L15.4116 9.6543
" />
<path d="M16.5002 10.8638
L16.3792 10.9243
" />
<path d="M16.3792 10.9243
L16.1373 10.9243
" />
<path d="M16.1373 10.9243
L16.0164 10.8638
" />
<path d="M16.0164 10.8638
L15.9559 10.7428
" />
<path d="M15.9559 10.7428
L15.9559 10.2590
" />
<path d="M15.9559 10.2590
L16.0164 10.1381
" />
<path d="M16.0164 10.1381
L16.1373 10.0776
" />
<path d="M16.1373 10.0776
L16.3792 10.0776
" />
<path d="M16.3792 10.0776
L16.5002 10.1381
" />
<path d="M16.5002 10.1381
L16.5606 10.2590
" />
<path d="M16.5606 10.2590
L16.5606 10.3800
" />
<path d="M16.5606 10.3800
L15.9559 10.5009
" />
<path d="M17.6492 10.0776
L17.6492 10.9243
" />
<path d="M17.1049 10.0776
L17.1049 10.7428
" />
<path d="M17.1049 10.7428
L17.1654 10.8638
" />
<path d="M17.1654 10.8638
L17.2864 10.9243
" />
<path d="M17.2864 10.9243
L17.4678 10.9243
" />
<path d="M17.4678 10.9243
L17.5887 10.8638
" />
<path d="M17.5887 10.8638
L17.6492 10.8033
" />
<path d="M18.0726 10.0776
L18.5564 10.0776
" />
<path d="M18.2540 9.6543
L18.2540 10.7428
" />
<path d="M18.2540 10.7428
L18.3145 10.8638
" />
<path d="M18.3145 10.8638
L18.4354 10.9243
" />
<path d="M18.4354 10.9243
L18.5564 10.9243
" />
<path d="M18.9797 10.9243
L18.9797 10.0776
" />
<path d="M18.9797 10.3195
L19.0402 10.1986
" />
<path d="M19.0402 10.1986
L19.1006 10.1381
" />
<path d="M19.1006 10.1381
L19.2216 10.0776
" />
<path d="M19.2216 10.0776
L19.3426 10.0776
" />
<path d="M19.7659 10.9243
L19.7659 10.0776
" />
<path d="M19.7659 9.6543
L19.7054 9.7147
" />
<path d="M19.7054 9.7147
L19.7659 9.7752
" />
<path d="M19.7659 9.7752
L19.8264 9.7147
" />
<path d="M19.8264 9.7147
L19.7659 9.6543
" />
<path d="M19.7659 9.6543
L19.7659 9.7752
" />
<path d="M20.3706 10.9243
L20.3706 9.6543
" />
<path d="M20.4916 10.4405
L20.8545 10.9243
" />
<path d="M20.8545 10.0776
L20.3706 10.5614
" />
<path d="M21.0964 11.0452
L22.0640 11.0452
" />
<path d="M22.3664 10.9243
L22.3664 9.6543
" />
<path d="M22.3664 9.6543
L23.0921 10.9243
" />
<path d="M23.0921 10.9243
L23.0921 9.6543
" />
<path d="M24.3016 10.9243
L23.6968 10.9243
" />
<path d="M23.6968 10.9243
L23.6968 9.6543
" />
<path d="M25.2692 10.0776
L25.2692 10.9243
" />
<path d="M24.9668 9.5938
L24.6645 10.5009
" />
<path d="M24.6645 10.5009
L25.4506 10.5009
" />
<path d="M25.9345 10.9243
L25.9345 9.6543
" />
<path d="M25.9345 9.6543
L26.3578 10.5614
" />
<path d="M26.3578 10.5614
L26.7811 9.6543
" />
<path d="M26.7811 9.6543
L26.7811 10.9243
" />
<path d="M27.3859 10.9243
L27.3859 9.6543
" />
<path d="M27.3859 9.6543
L27.6883 9.6543
" />
<path d="M27.6883 9.6543
L27.8697 9.7147
" />
<path d="M27.8697 9.7147
L27.9906 9.8357
" />
<path d="M27.9906 9.8357
L28.0511 9.9567
" />
<path d="M28.0511 9.9567
L28.1116 10.1986
" />
<path d="M28.1116 10.1986
L28.1116 10.3800
" />
<path d="M28.1116 10.3800
L28.0511 10.6219
" />
<path d="M28.0511 10.6219
L27.9906 10.7428
" />
<path d="M27.9906 10.7428
L27.8697 10.8638
" />
<path d="M27.8697 10.8638
L27.6883 10.9243
" />
<path d="M27.6883 10.9243
L27.3859 10.9243
" />
<path d="M28.5349 9.6543
L29.3816 10.9243
" />
<path d="M29.3816 9.6543
L28.5349 10.9243
" />
<path d="M29.7445 9.6543
L30.5911 10.9243
" />
<path d="M30.5911 9.6543
L29.7445 10.9243
" />
<path d="M31.0749 10.4405
L32.0426 10.4405
" />
<path d="M32.6473 10.9243
L32.6473 9.6543
" />
<path d="M32.6473 10.2590
L33.3730 10.2590
" />
<path d="M33.3730 10.9243
L33.3730 9.6543
" />
<path d="M33.9778 10.4405
L34.9454 10.4405
" />
<path d="M35.4897 9.7752
L35.5502 9.7147
" />
<path d="M35.5502 9.7147
L35.6711 9.6543
" />
<path d="M35.6711 9.6543
L35.9735 9.6543
" />
<path d="M35.9735 9.6543
L36.0945 9.7147
" />
<path d="M36.0945 9.7147
L36.1549 9.7752
" />
<path d="M36.1549 9.7752
L36.2154 9.8962
" />
<path d="M36.2154 9.8962
L36.2154 10.0171
" />
<path d="M36.2154 10.0171
L36.1549 10.1986
" />
<path d="M36.1549 10.1986
L35.4292 10.9243
" />
<path d="M35.4292 10.9243
L36.2154 10.9243
" />
<path d="M36.4573 11.0452
L37.4249 11.0452
" />
<path d="M37.7273 10.9243
L37.7273 9.6543
" />
<path d="M37.7273 10.2590
L38.4530 10.2590
" />
<path d="M38.4530 10.9243
L38.4530 9.6543
" />
<path d="M39.2392 10.9243
L39.1183 10.8638
" />
<path d="M39.1183 10.8638
L39.0578 10.8033
" />
<path d="M39.0578 10.8033
L38.9973 10.6824
" />
<path d="M38.9973 10.6824
L38.9973 10.3195
" />
<path d="M38.9973 10.3195
L39.0578 10.1986
" />
<path d="M39.0578 10.1986
L39.1183 10.1381
" />
<path d="M39.1183 10.1381
L39.2392 10.0776
" />
<path d="M39.2392 10.0776
L39.4206 10.0776
" />
<path d="M39.4206 10.0776
L39.5416 10.1381
" />
<path d="M39.5416 10.1381
L39.6021 10.1986
" />
<path d="M39.6021 10.1986
L39.6626 10.3195
" />
<path d="M39.6626 10.3195
L39.6626 10.6824
" />
<path d="M39.6626 10.6824
L39.6021 10.8033
" />
<path d="M39.6021 10.8033
L39.5416 10.8638
" />
<path d="M39.5416 10.8638
L39.4206 10.9243
" />
<path d="M39.4206 10.9243
L39.2392 10.9243
" />
<path d="M40.2068 10.9243
L40.2068 10.0776
" />
<path d="M40.2068 10.3195
L40.2673 10.1986
" />
<path d="M40.2673 10.1986
L40.3278 10.1381
" />
<path d="M40.3278 10.1381
L40.4487 10.0776
" />
<path d="M40.4487 10.0776
L40.5697 10.0776
" />
<path d="M40.9930 10.9243
L40.9930 10.0776
" />
<path d="M40.9930 9.6543
L40.9326 9.7147
" />
<path d="M40.9326 9.7147
L40.9930 9.7752
" />
<path d="M40.9930 9.7752
L41.0535 9.7147
" />
<path d="M41.0535 9.7147
L40.9930 9.6543
" />
<path d="M40.9930 9.6543
L40.9930 9.7752
" />
<path d="M41.4768 10.0776
L42.1421 10.0776
" />
<path d="M42.1421 10.0776
L41.4768 10.9243
" />
<path d="M41.4768 10.9243
L42.1421 10.9243
" />
<path d="M42.8073 10.9243
L42.6864 10.8638
" />
<path d="M42.6864 10.8638
L42.6259 10.8033
" />
<path d="M42.6259 10.8033
L42.5654 10.6824
" />
<path d="M42.5654 10.6824
L42.5654 10.3195
" />
<path d="M42.5654 10.3195
L42.6259 10.1986
" />
<path d="M42.6259 10.1986
L42.6864 10.1381
" />
<path d="M42.6864 10.1381
L42.8073 10.0776
" />
<path d="M42.8073 10.0776
L42.9887 10.0776
" />
<path d="M42.9887 10.0776
L43.1097 10.1381
" />
<path d="M43.1097 10.1381
L43.1702 10.1986
" />
<path d="M43.1702 10.1986
L43.2306 10.3195
" />
<path d="M43.2306 10.3195
L43.2306 10.6824
" />
<path d="M43.2306 10.6824
L43.1702 10.8033
" />
<path d="M43.1702 10.8033
L43.1097 10.8638
" />
<path d="M43.1097 10.8638
L42.9887 10.9243
" />
<path d="M42.9887 10.9243
L42.8073 10.9243
" />
<path d="M43.7749 10.0776
L43.7749 10.9243
" />
<path d="M43.7749 10.1986
L43.8354 10.1381
" />
<path d="M43.8354 10.1381
L43.9564 10.0776
" />
<path d="M43.9564 10.0776
L44.1378 10.0776
" />
<path d="M44.1378 10.0776
L44.2587 10.1381
" />
<path d="M44.2587 10.1381
L44.3192 10.2590
" />
<path d="M44.3192 10.2590
L44.3192 10.9243
" />
<path d="M44.7426 10.0776
L45.2264 10.0776
" />
<path d="M44.9240 9.6543
L44.9240 10.7428
" />
<path d="M44.9240 10.7428
L44.9845 10.8638
" />
<path d="M44.9845 10.8638
L45.1054 10.9243
" />
<path d="M45.1054 10.9243
L45.2264 10.9243
" />
<path d="M46.1940 10.9243
L46.1940 10.2590
" />
<path d="M46.1940 10.2590
L46.1335 10.1381
" />
<path d="M46.1335 10.1381
L46.0126 10.0776
" />
<path d="M46.0126 10.0776
L45.7706 10.0776
" />
<path d="M45.7706 10.0776
L45.6497 10.1381
" />
<path d="M46.1940 10.8638
L46.0730 10.9243
" />
<path d="M46.0730 10.9243
L45.7706 10.9243
" />
<path d="M45.7706 10.9243
L45.6497 10.8638
" />
<path d="M45.6497 10.8638
L45.5892 10.7428
" />
<path d="M45.5892 10.7428
L45.5892 10.6219
" />
<path d="M45.5892 10.6219
L45.6497 10.5009
" />
<path d="M45.6497 10.5009
L45.7706 10.4405
" />
<path d="M45.7706 10.4405
L46.0730 10.4405
" />
<path d="M46.0730 10.4405
L46.1940 10.3800
" />
<path d="M46.9802 10.9243
L46.8592 10.8638
" />
<path d="M46.8592 10.8638
L46.7987 10.7428
" />
<path d="M46.7987 10.7428
L46.7987 9.6543
" />
</g></g>
<g style="fill:none; 
stroke:#AFAFAF; stroke-width:0.1500; stroke-opacity:1; 
stroke-linecap:round; stroke-linejoin:round;">
<text x="41.1364" y="15.6100"
textLength="4.5357" font-size="1.3333" lengthAdjust="spacingAndGlyphs"
text-anchor="middle" opacity="0">REF**</text>
<g class="stroked-text"><desc>REF**</desc>
<path d="M39.8030 15.5648
L39.4697 15.0886
" />
<path d="M39.2316 15.5648
L39.2316 14.5648
" />
<path d="M39.2316 14.5648
L39.6126 14.5648
" />
<path d="M39.6126 14.5648
L39.7078 14.6124
" />
<path d="M39.7078 14.6124
L39.7554 14.6601
" />
<path d="M39.7554 14.6601
L39.8030 14.7553
" />
<path d="M39.8030 14.7553
L39.8030 14.8982
" />
<path d="M39.8030 14.8982
L39.7554 14.9934
" />
<path d="M39.7554 14.9934
L39.7078 15.0410
" />
<path d="M39.7078 15.0410
L39.6126 15.0886
" />
<path d="M39.6126 15.0886
L39.2316 15.0886
" />
<path d="M40.2316 15.0410
L40.5649 15.0410
" />
<path d="M40.7078 15.5648
L40.2316 15.5648
" />
<path d="M40.2316 15.5648
L40.2316 14.5648
" />
<path d="M40.2316 14.5648
L40.7078 14.5648
" />
<path d="M41.4697 15.0410
L41.1364 15.0410
" />
<path d="M41.1364 15.5648
L41.1364 14.5648
" />
<path d="M41.1364 14.5648
L41.6126 14.5648
" />
<path d="M42.1364 14.5648
L42.1364 14.8029
" />
<path d="M41.8983 14.7077
L42.1364 14.8029
" />
<path d="M42.1364 14.8029
L42.3745 14.7077
" />
<path d="M41.9935 14.9934
L42.1364 14.8029
" />
<path d="M42.1364 14.8029
L42.2792 14.9934
" />
<path d="M42.8983 14.5648
L42.8983 14.8029
" />
<path d="M42.6602 14.7077
L42.8983 14.8029
" />
<path d="M42.8983 14.8029
L43.1364 14.7077
" />
<path d="M42.7554 14.9934
L42.8983 14.8029
" />
<path d="M42.8983 14.8029
L43.0411 14.9934
" />
</g></g>
<g style="fill:none; 
stroke:#AFAFAF; stroke-width:0.1000; stroke-opacity:1; 
stroke-linecap:round; stroke-linejoin:round;">
<path d="M29.0764 1.6250
L48.3464 1.6250
" />
<path d="M29.0764 25.4250
L29.0764 1.6250
" />
<path d="M29.0764 25.4250
L48.3464 25.4250
" />
<path d="M48.3464 0.5250
L52.8464 0.5250
" />
<path d="M48.3464 2.4250
L52.8464 2.4250
" />
<path d="M48.3464 5.6250
L52.8464 5.6250
" />
<path d="M48.3464 21.4250
L52.8464 21.4250
" />
<path d="M48.3464 24.6250
L52.8464 24.6250
" />
<path d="M48.3464 26.5250
L48.3464 0.5250
" />
<path d="M48.3464 26.5250
L52.8464 26.5250
" />
<path d="M52.8464 26.5250
L52.8464 0.5250
" />
<path d="M55.3464 1.5250
L52.8464 1.5250
" />
<path d="M55.3464 25.5250
L52.8464 25.5250
" />
<path d="M55.3464 25.5250
L55.3464 1.5250
" />
</g>
<g style="fill:none; 
stroke:#C2C2C2; stroke-width:0.1000; stroke-opacity:1; 
stroke-linecap:round; stroke-linejoin:round;">
<path d="M52.8464 26.5250
L52.8464 0.5250
" />
</g> 
</svg>
