<?xml version="1.0" standalone="no"?>
 <!DOCTYPE svg PUBLIC "-//W3C//DTD SVG 1.1//EN" 
 "http://www.w3.org/Graphics/SVG/1.1/DTD/svg11.dtd"> 
<svg
  xmlns:svg="http://www.w3.org/2000/svg"
  xmlns="http://www.w3.org/2000/svg"
  xmlns:xlink="http://www.w3.org/1999/xlink"
  version="1.1"
  width="102.9208mm" height="13.4874mm" viewBox="0.0000 0.0000 102.9208 13.4874">
<title>SVG Image created as working-brd.svg date 2024/04/02 13:13:30 </title>
  <desc>Image generated by PCBNEW </desc>
<g style="fill:#000000; fill-opacity:1.0000;stroke:#000000; stroke-opacity:1.0000;
stroke-linecap:round; stroke-linejoin:round;"
 transform="translate(0 0) scale(1 1)">
</g>
<g style="fill:#FFFFFF; fill-opacity:1.0000; stroke:none;">
<circle cx="39.9649" cy="2.9700" r="0.7000" /> 
</g>
<g style="fill:#FFFFFF; fill-opacity:1.0000; stroke:none;">
<circle cx="47.5849" cy="2.9700" r="0.7000" /> 
</g>
<g style="fill:#FFFFFF; fill-opacity:1.0000; stroke:none;">
<circle cx="55.2049" cy="2.9700" r="0.7000" /> 
</g>
<g style="fill:#FFFFFF; fill-opacity:1.0000; stroke:none;">
<circle cx="62.8249" cy="2.9700" r="0.7000" /> 
</g>
<g style="fill:#FFFFFF; fill-opacity:1.0000; stroke:none;">
<circle cx="70.4449" cy="2.9700" r="0.7000" /> 
</g>
<g style="fill:#FFFFFF; fill-opacity:1.0000; stroke:none;">
<circle cx="78.0649" cy="2.9700" r="0.7000" /> 
</g>
<g style="fill:#FFFFFF; fill-opacity:1.0000; stroke:none;">
<circle cx="85.6849" cy="2.9700" r="0.7000" /> 
</g>
<g style="fill:#FFFFFF; fill-opacity:1.0000; stroke:none;">
<circle cx="93.3049" cy="2.9700" r="0.7000" /> 
<path style="fill:#02FFEE; fill-opacity:0.4000; stroke:none;fill-rule:evenodd;"
d="M 38.9149,1.4200
38.9340,1.3243
38.9882,1.2432
39.0693,1.1890
39.1649,1.1700
40.7649,1.1700
40.8606,1.1890
40.9417,1.2432
40.9959,1.3243
41.0149,1.4200
41.0149,4.5200
40.9959,4.6157
40.9417,4.6968
40.8606,4.7510
40.7649,4.7700
39.1649,4.7700
39.0693,4.7510
38.9882,4.6968
38.9340,4.6157
38.9149,4.5200
Z" /> 
</g>
<g style="fill:none; 
stroke:#02FFEE; stroke-width:2.1000; stroke-opacity:1; 
stroke-linecap:round; stroke-linejoin:round;">
<path d="M47.5849 2.2200
L47.5849 3.7200
" />
<path d="M55.2049 2.2200
L55.2049 3.7200
" />
<path d="M62.8249 2.2200
L62.8249 3.7200
" />
<path d="M70.4449 2.2200
L70.4449 3.7200
" />
<path d="M78.0649 2.2200
L78.0649 3.7200
" />
<path d="M85.6849 2.2200
L85.6849 3.7200
" />
<path d="M93.3049 2.2200
L93.3049 3.7200
" />
</g>
<g style="fill:#FFFFFF; fill-opacity:1.0000; stroke:none;">
<circle cx="39.9649" cy="2.9700" r="0.7000" /> 
</g>
<g style="fill:#FFFFFF; fill-opacity:1.0000; stroke:none;">
<circle cx="47.5849" cy="2.9700" r="0.7000" /> 
</g>
<g style="fill:#FFFFFF; fill-opacity:1.0000; stroke:none;">
<circle cx="55.2049" cy="2.9700" r="0.7000" /> 
</g>
<g style="fill:#FFFFFF; fill-opacity:1.0000; stroke:none;">
<circle cx="62.8249" cy="2.9700" r="0.7000" /> 
</g>
<g style="fill:#FFFFFF; fill-opacity:1.0000; stroke:none;">
<circle cx="70.4449" cy="2.9700" r="0.7000" /> 
</g>
<g style="fill:#FFFFFF; fill-opacity:1.0000; stroke:none;">
<circle cx="78.0649" cy="2.9700" r="0.7000" /> 
</g>
<g style="fill:#FFFFFF; fill-opacity:1.0000; stroke:none;">
<circle cx="85.6849" cy="2.9700" r="0.7000" /> 
</g>
<g style="fill:#FFFFFF; fill-opacity:1.0000; stroke:none;">
<circle cx="93.3049" cy="2.9700" r="0.7000" /> 
</g>
<g style="fill:#FFFFFF; fill-opacity:1.0000; stroke:none;">
<circle cx="39.9649" cy="2.9700" r="0.7000" /> 
</g>
<g style="fill:#FFFFFF; fill-opacity:1.0000; stroke:none;">
<circle cx="47.5849" cy="2.9700" r="0.7000" /> 
</g>
<g style="fill:#FFFFFF; fill-opacity:1.0000; stroke:none;">
<circle cx="55.2049" cy="2.9700" r="0.7000" /> 
</g>
<g style="fill:#FFFFFF; fill-opacity:1.0000; stroke:none;">
<circle cx="62.8249" cy="2.9700" r="0.7000" /> 
</g>
<g style="fill:#FFFFFF; fill-opacity:1.0000; stroke:none;">
<circle cx="70.4449" cy="2.9700" r="0.7000" /> 
</g>
<g style="fill:#FFFFFF; fill-opacity:1.0000; stroke:none;">
<circle cx="78.0649" cy="2.9700" r="0.7000" /> 
</g>
<g style="fill:#FFFFFF; fill-opacity:1.0000; stroke:none;">
<circle cx="85.6849" cy="2.9700" r="0.7000" /> 
</g>
<g style="fill:#FFFFFF; fill-opacity:1.0000; stroke:none;">
<circle cx="93.3049" cy="2.9700" r="0.7000" /> 
<path style="fill:#D864FF; fill-opacity:0.4000; stroke:none;fill-rule:evenodd;"
d="M 38.9149,1.4200
38.9340,1.3243
38.9882,1.2432
39.0693,1.1890
39.1649,1.1700
40.7649,1.1700
40.8606,1.1890
40.9417,1.2432
40.9959,1.3243
41.0149,1.4200
41.0149,4.5200
40.9959,4.6157
40.9417,4.6968
40.8606,4.7510
40.7649,4.7700
39.1649,4.7700
39.0693,4.7510
38.9882,4.6968
38.9340,4.6157
38.9149,4.5200
Z" /> 
</g>
<g style="fill:none; 
stroke:#D864FF; stroke-width:2.1000; stroke-opacity:1; 
stroke-linecap:round; stroke-linejoin:round;">
<path d="M47.5849 2.2200
L47.5849 3.7200
" />
<path d="M55.2049 2.2200
L55.2049 3.7200
" />
<path d="M62.8249 2.2200
L62.8249 3.7200
" />
<path d="M70.4449 2.2200
L70.4449 3.7200
" />
<path d="M78.0649 2.2200
L78.0649 3.7200
" />
<path d="M85.6849 2.2200
L85.6849 3.7200
" />
<path d="M93.3049 2.2200
L93.3049 3.7200
" />
</g>
<g style="fill:none; 
stroke:#F2EDA1; stroke-width:0.1588; stroke-opacity:1; 
stroke-linecap:round; stroke-linejoin:round;">
<text x="39.9649" y="3.6050"
textLength="5.6651" font-size="1.6933" lengthAdjust="spacingAndGlyphs"
text-anchor="middle" opacity="0">REF**</text>
<g class="stroked-text"><desc>REF**</desc>
<path d="M38.2716 3.5493
L37.8483 2.9445
" />
<path d="M37.5459 3.5493
L37.5459 2.2793
" />
<path d="M37.5459 2.2793
L38.0297 2.2793
" />
<path d="M38.0297 2.2793
L38.1507 2.3397
" />
<path d="M38.1507 2.3397
L38.2111 2.4002
" />
<path d="M38.2111 2.4002
L38.2716 2.5212
" />
<path d="M38.2716 2.5212
L38.2716 2.7026
" />
<path d="M38.2716 2.7026
L38.2111 2.8236
" />
<path d="M38.2111 2.8236
L38.1507 2.8840
" />
<path d="M38.1507 2.8840
L38.0297 2.9445
" />
<path d="M38.0297 2.9445
L37.5459 2.9445
" />
<path d="M38.8159 2.8840
L39.2392 2.8840
" />
<path d="M39.4207 3.5493
L38.8159 3.5493
" />
<path d="M38.8159 3.5493
L38.8159 2.2793
" />
<path d="M38.8159 2.2793
L39.4207 2.2793
" />
<path d="M40.3883 2.8840
L39.9649 2.8840
" />
<path d="M39.9649 3.5493
L39.9649 2.2793
" />
<path d="M39.9649 2.2793
L40.5697 2.2793
" />
<path d="M41.2349 2.2793
L41.2349 2.5817
" />
<path d="M40.9326 2.4607
L41.2349 2.5817
" />
<path d="M41.2349 2.5817
L41.5373 2.4607
" />
<path d="M41.0535 2.8236
L41.2349 2.5817
" />
<path d="M41.2349 2.5817
L41.4164 2.8236
" />
<path d="M42.2026 2.2793
L42.2026 2.5817
" />
<path d="M41.9002 2.4607
L42.2026 2.5817
" />
<path d="M42.2026 2.5817
L42.5049 2.4607
" />
<path d="M42.0211 2.8236
L42.2026 2.5817
" />
<path d="M42.2026 2.5817
L42.3840 2.8236
" />
</g></g>
<g style="fill:none; 
stroke:#F2EDA1; stroke-width:0.1200; stroke-opacity:1; 
stroke-linecap:round; stroke-linejoin:round;">
<path d="M30.7549 0.8600
L30.7549 13.0800
" />
<path d="M30.7549 9.7800
L102.5149 9.7800
" />
<path d="M30.7549 11.5800
L30.7549 9.7800
" />
<path d="M30.7549 13.0800
L102.5149 13.0800
" />
<path d="M32.8649 13.0800
L34.8649 13.0800
" />
<path d="M33.1149 11.5800
L32.8649 13.0800
" />
<path d="M34.6149 11.5800
L33.1149 11.5800
" />
<path d="M34.8649 13.0800
L34.6149 11.5800
" />
<path d="M38.9649 13.0800
L40.9649 13.0800
" />
<path d="M39.2149 11.5800
L38.9649 13.0800
" />
<path d="M39.6649 0.0600
L40.2649 0.0600
" />
<path d="M39.9649 0.6600
L39.6649 0.0600
" />
<path d="M40.2649 0.0600
L39.9649 0.6600
" />
<path d="M40.7149 11.5800
L39.2149 11.5800
" />
<path d="M40.9649 13.0800
L40.7149 11.5800
" />
<path d="M46.5849 13.0800
L48.5849 13.0800
" />
<path d="M46.8349 11.5800
L46.5849 13.0800
" />
<path d="M48.3349 11.5800
L46.8349 11.5800
" />
<path d="M48.5849 13.0800
L48.3349 11.5800
" />
<path d="M54.2049 13.0800
L56.2049 13.0800
" />
<path d="M54.4549 11.5800
L54.2049 13.0800
" />
<path d="M55.9549 11.5800
L54.4549 11.5800
" />
<path d="M56.2049 13.0800
L55.9549 11.5800
" />
<path d="M61.8249 13.0800
L63.8249 13.0800
" />
<path d="M62.0749 11.5800
L61.8249 13.0800
" />
<path d="M63.5749 11.5800
L62.0749 11.5800
" />
<path d="M63.8249 13.0800
L63.5749 11.5800
" />
<path d="M69.4449 13.0800
L71.4449 13.0800
" />
<path d="M69.6949 11.5800
L69.4449 13.0800
" />
<path d="M71.1949 11.5800
L69.6949 11.5800
" />
<path d="M71.4449 13.0800
L71.1949 11.5800
" />
<path d="M77.0649 13.0800
L79.0649 13.0800
" />
<path d="M77.3149 11.5800
L77.0649 13.0800
" />
<path d="M78.8149 11.5800
L77.3149 11.5800
" />
<path d="M79.0649 13.0800
L78.8149 11.5800
" />
<path d="M84.6849 13.0800
L86.6849 13.0800
" />
<path d="M84.9349 11.5800
L84.6849 13.0800
" />
<path d="M86.4349 11.5800
L84.9349 11.5800
" />
<path d="M86.6849 13.0800
L86.4349 11.5800
" />
<path d="M92.3049 13.0800
L94.3049 13.0800
" />
<path d="M92.5549 11.5800
L92.3049 13.0800
" />
<path d="M94.0549 11.5800
L92.5549 11.5800
" />
<path d="M94.3049 13.0800
L94.0549 11.5800
" />
<path d="M98.4049 13.0800
L100.4049 13.0800
" />
<path d="M98.6549 11.5800
L98.4049 13.0800
" />
<path d="M100.1549 11.5800
L98.6549 11.5800
" />
<path d="M100.4049 13.0800
L100.1549 11.5800
" />
<path d="M102.5149 0.8600
L30.7549 0.8600
" />
<path d="M102.5149 9.7800
L102.5149 11.5800
" />
<path d="M102.5149 11.5800
L30.7549 11.5800
" />
<path d="M102.5149 13.0800
L102.5149 0.8600
" />
</g>
<g style="fill:#FFFFFF; fill-opacity:1.0000; stroke:none;">
<circle cx="39.9649" cy="2.9700" r="0.7000" /> 
</g>
<g style="fill:#FFFFFF; fill-opacity:1.0000; stroke:none;">
<circle cx="47.5849" cy="2.9700" r="0.7000" /> 
</g>
<g style="fill:#FFFFFF; fill-opacity:1.0000; stroke:none;">
<circle cx="55.2049" cy="2.9700" r="0.7000" /> 
</g>
<g style="fill:#FFFFFF; fill-opacity:1.0000; stroke:none;">
<circle cx="62.8249" cy="2.9700" r="0.7000" /> 
</g>
<g style="fill:#FFFFFF; fill-opacity:1.0000; stroke:none;">
<circle cx="70.4449" cy="2.9700" r="0.7000" /> 
</g>
<g style="fill:#FFFFFF; fill-opacity:1.0000; stroke:none;">
<circle cx="78.0649" cy="2.9700" r="0.7000" /> 
</g>
<g style="fill:#FFFFFF; fill-opacity:1.0000; stroke:none;">
<circle cx="85.6849" cy="2.9700" r="0.7000" /> 
</g>
<g style="fill:#FFFFFF; fill-opacity:1.0000; stroke:none;">
<circle cx="93.3049" cy="2.9700" r="0.7000" /> 
</g>
<g style="fill:none; 
stroke:#FF26E2; stroke-width:0.0500; stroke-opacity:1; 
stroke-linecap:round; stroke-linejoin:round;">
<path d="M30.3649 0.4700
L30.3649 13.4700
" />
<path d="M30.3649 13.4700
L102.9049 13.4700
" />
<path d="M102.9049 0.4700
L30.3649 0.4700
" />
<path d="M102.9049 13.4700
L102.9049 0.4700
" />
</g>
<g style="fill:none; 
stroke:#AFAFAF; stroke-width:0.1588; stroke-opacity:1; 
stroke-linecap:round; stroke-linejoin:round;">
<text x="39.9649" y="3.6050"
textLength="79.9299" font-size="1.6933" lengthAdjust="spacingAndGlyphs"
text-anchor="middle" opacity="0">PhoenixContact_GMSTB_2,5_8-GF-7,62_1x08_P7.62mm_Horizontal_ThreadedFlange</text>
<g class="stroked-text"><desc>PhoenixContact_GMSTB_2,5_8-GF-7,62_1x08_P7.62mm_Horizontal_ThreadedFlange</desc>
<path d="M0.4135 3.5493
L0.4135 2.2793
" />
<path d="M0.4135 2.2793
L0.8973 2.2793
" />
<path d="M0.8973 2.2793
L1.0183 2.3397
" />
<path d="M1.0183 2.3397
L1.0787 2.4002
" />
<path d="M1.0787 2.4002
L1.1392 2.5212
" />
<path d="M1.1392 2.5212
L1.1392 2.7026
" />
<path d="M1.1392 2.7026
L1.0787 2.8236
" />
<path d="M1.0787 2.8236
L1.0183 2.8840
" />
<path d="M1.0183 2.8840
L0.8973 2.9445
" />
<path d="M0.8973 2.9445
L0.4135 2.9445
" />
<path d="M1.6835 3.5493
L1.6835 2.2793
" />
<path d="M2.2278 3.5493
L2.2278 2.8840
" />
<path d="M2.2278 2.8840
L2.1673 2.7631
" />
<path d="M2.1673 2.7631
L2.0464 2.7026
" />
<path d="M2.0464 2.7026
L1.8649 2.7026
" />
<path d="M1.8649 2.7026
L1.7440 2.7631
" />
<path d="M1.7440 2.7631
L1.6835 2.8236
" />
<path d="M3.0140 3.5493
L2.8930 3.4888
" />
<path d="M2.8930 3.4888
L2.8326 3.4283
" />
<path d="M2.8326 3.4283
L2.7721 3.3074
" />
<path d="M2.7721 3.3074
L2.7721 2.9445
" />
<path d="M2.7721 2.9445
L2.8326 2.8236
" />
<path d="M2.8326 2.8236
L2.8930 2.7631
" />
<path d="M2.8930 2.7631
L3.0140 2.7026
" />
<path d="M3.0140 2.7026
L3.1954 2.7026
" />
<path d="M3.1954 2.7026
L3.3164 2.7631
" />
<path d="M3.3164 2.7631
L3.3768 2.8236
" />
<path d="M3.3768 2.8236
L3.4373 2.9445
" />
<path d="M3.4373 2.9445
L3.4373 3.3074
" />
<path d="M3.4373 3.3074
L3.3768 3.4283
" />
<path d="M3.3768 3.4283
L3.3164 3.4888
" />
<path d="M3.3164 3.4888
L3.1954 3.5493
" />
<path d="M3.1954 3.5493
L3.0140 3.5493
" />
<path d="M4.4654 3.4888
L4.3445 3.5493
" />
<path d="M4.3445 3.5493
L4.1026 3.5493
" />
<path d="M4.1026 3.5493
L3.9816 3.4888
" />
<path d="M3.9816 3.4888
L3.9211 3.3678
" />
<path d="M3.9211 3.3678
L3.9211 2.8840
" />
<path d="M3.9211 2.8840
L3.9816 2.7631
" />
<path d="M3.9816 2.7631
L4.1026 2.7026
" />
<path d="M4.1026 2.7026
L4.3445 2.7026
" />
<path d="M4.3445 2.7026
L4.4654 2.7631
" />
<path d="M4.4654 2.7631
L4.5259 2.8840
" />
<path d="M4.5259 2.8840
L4.5259 3.0050
" />
<path d="M4.5259 3.0050
L3.9211 3.1259
" />
<path d="M5.0702 2.7026
L5.0702 3.5493
" />
<path d="M5.0702 2.8236
L5.1307 2.7631
" />
<path d="M5.1307 2.7631
L5.2516 2.7026
" />
<path d="M5.2516 2.7026
L5.4330 2.7026
" />
<path d="M5.4330 2.7026
L5.5540 2.7631
" />
<path d="M5.5540 2.7631
L5.6145 2.8840
" />
<path d="M5.6145 2.8840
L5.6145 3.5493
" />
<path d="M6.2192 3.5493
L6.2192 2.7026
" />
<path d="M6.2192 2.2793
L6.1587 2.3397
" />
<path d="M6.1587 2.3397
L6.2192 2.4002
" />
<path d="M6.2192 2.4002
L6.2797 2.3397
" />
<path d="M6.2797 2.3397
L6.2192 2.2793
" />
<path d="M6.2192 2.2793
L6.2192 2.4002
" />
<path d="M6.7030 3.5493
L7.3683 2.7026
" />
<path d="M6.7030 2.7026
L7.3683 3.5493
" />
<path d="M8.5778 3.4283
L8.5173 3.4888
" />
<path d="M8.5173 3.4888
L8.3359 3.5493
" />
<path d="M8.3359 3.5493
L8.2149 3.5493
" />
<path d="M8.2149 3.5493
L8.0335 3.4888
" />
<path d="M8.0335 3.4888
L7.9126 3.3678
" />
<path d="M7.9126 3.3678
L7.8521 3.2469
" />
<path d="M7.8521 3.2469
L7.7916 3.0050
" />
<path d="M7.7916 3.0050
L7.7916 2.8236
" />
<path d="M7.7916 2.8236
L7.8521 2.5817
" />
<path d="M7.8521 2.5817
L7.9126 2.4607
" />
<path d="M7.9126 2.4607
L8.0335 2.3397
" />
<path d="M8.0335 2.3397
L8.2149 2.2793
" />
<path d="M8.2149 2.2793
L8.3359 2.2793
" />
<path d="M8.3359 2.2793
L8.5173 2.3397
" />
<path d="M8.5173 2.3397
L8.5778 2.4002
" />
<path d="M9.3035 3.5493
L9.1826 3.4888
" />
<path d="M9.1826 3.4888
L9.1221 3.4283
" />
<path d="M9.1221 3.4283
L9.0616 3.3074
" />
<path d="M9.0616 3.3074
L9.0616 2.9445
" />
<path d="M9.0616 2.9445
L9.1221 2.8236
" />
<path d="M9.1221 2.8236
L9.1826 2.7631
" />
<path d="M9.1826 2.7631
L9.3035 2.7026
" />
<path d="M9.3035 2.7026
L9.4849 2.7026
" />
<path d="M9.4849 2.7026
L9.6059 2.7631
" />
<path d="M9.6059 2.7631
L9.6664 2.8236
" />
<path d="M9.6664 2.8236
L9.7268 2.9445
" />
<path d="M9.7268 2.9445
L9.7268 3.3074
" />
<path d="M9.7268 3.3074
L9.6664 3.4283
" />
<path d="M9.6664 3.4283
L9.6059 3.4888
" />
<path d="M9.6059 3.4888
L9.4849 3.5493
" />
<path d="M9.4849 3.5493
L9.3035 3.5493
" />
<path d="M10.2711 2.7026
L10.2711 3.5493
" />
<path d="M10.2711 2.8236
L10.3316 2.7631
" />
<path d="M10.3316 2.7631
L10.4526 2.7026
" />
<path d="M10.4526 2.7026
L10.6340 2.7026
" />
<path d="M10.6340 2.7026
L10.7549 2.7631
" />
<path d="M10.7549 2.7631
L10.8154 2.8840
" />
<path d="M10.8154 2.8840
L10.8154 3.5493
" />
<path d="M11.2387 2.7026
L11.7226 2.7026
" />
<path d="M11.4202 2.2793
L11.4202 3.3678
" />
<path d="M11.4202 3.3678
L11.4807 3.4888
" />
<path d="M11.4807 3.4888
L11.6016 3.5493
" />
<path d="M11.6016 3.5493
L11.7226 3.5493
" />
<path d="M12.6902 3.5493
L12.6902 2.8840
" />
<path d="M12.6902 2.8840
L12.6297 2.7631
" />
<path d="M12.6297 2.7631
L12.5087 2.7026
" />
<path d="M12.5087 2.7026
L12.2668 2.7026
" />
<path d="M12.2668 2.7026
L12.1459 2.7631
" />
<path d="M12.6902 3.4888
L12.5692 3.5493
" />
<path d="M12.5692 3.5493
L12.2668 3.5493
" />
<path d="M12.2668 3.5493
L12.1459 3.4888
" />
<path d="M12.1459 3.4888
L12.0854 3.3678
" />
<path d="M12.0854 3.3678
L12.0854 3.2469
" />
<path d="M12.0854 3.2469
L12.1459 3.1259
" />
<path d="M12.1459 3.1259
L12.2668 3.0655
" />
<path d="M12.2668 3.0655
L12.5692 3.0655
" />
<path d="M12.5692 3.0655
L12.6902 3.0050
" />
<path d="M13.8392 3.4888
L13.7183 3.5493
" />
<path d="M13.7183 3.5493
L13.4764 3.5493
" />
<path d="M13.4764 3.5493
L13.3554 3.4888
" />
<path d="M13.3554 3.4888
L13.2949 3.4283
" />
<path d="M13.2949 3.4283
L13.2345 3.3074
" />
<path d="M13.2345 3.3074
L13.2345 2.9445
" />
<path d="M13.2345 2.9445
L13.2949 2.8236
" />
<path d="M13.2949 2.8236
L13.3554 2.7631
" />
<path d="M13.3554 2.7631
L13.4764 2.7026
" />
<path d="M13.4764 2.7026
L13.7183 2.7026
" />
<path d="M13.7183 2.7026
L13.8392 2.7631
" />
<path d="M14.2021 2.7026
L14.6859 2.7026
" />
<path d="M14.3835 2.2793
L14.3835 3.3678
" />
<path d="M14.3835 3.3678
L14.4440 3.4888
" />
<path d="M14.4440 3.4888
L14.5649 3.5493
" />
<path d="M14.5649 3.5493
L14.6859 3.5493
" />
<path d="M14.8068 3.6702
L15.7745 3.6702
" />
<path d="M16.7421 2.3397
L16.6211 2.2793
" />
<path d="M16.6211 2.2793
L16.4397 2.2793
" />
<path d="M16.4397 2.2793
L16.2583 2.3397
" />
<path d="M16.2583 2.3397
L16.1373 2.4607
" />
<path d="M16.1373 2.4607
L16.0768 2.5817
" />
<path d="M16.0768 2.5817
L16.0164 2.8236
" />
<path d="M16.0164 2.8236
L16.0164 3.0050
" />
<path d="M16.0164 3.0050
L16.0768 3.2469
" />
<path d="M16.0768 3.2469
L16.1373 3.3678
" />
<path d="M16.1373 3.3678
L16.2583 3.4888
" />
<path d="M16.2583 3.4888
L16.4397 3.5493
" />
<path d="M16.4397 3.5493
L16.5606 3.5493
" />
<path d="M16.5606 3.5493
L16.7421 3.4888
" />
<path d="M16.7421 3.4888
L16.8026 3.4283
" />
<path d="M16.8026 3.4283
L16.8026 3.0050
" />
<path d="M16.8026 3.0050
L16.5606 3.0050
" />
<path d="M17.3468 3.5493
L17.3468 2.2793
" />
<path d="M17.3468 2.2793
L17.7702 3.1864
" />
<path d="M17.7702 3.1864
L18.1935 2.2793
" />
<path d="M18.1935 2.2793
L18.1935 3.5493
" />
<path d="M18.7378 3.4888
L18.9192 3.5493
" />
<path d="M18.9192 3.5493
L19.2216 3.5493
" />
<path d="M19.2216 3.5493
L19.3426 3.4888
" />
<path d="M19.3426 3.4888
L19.4030 3.4283
" />
<path d="M19.4030 3.4283
L19.4635 3.3074
" />
<path d="M19.4635 3.3074
L19.4635 3.1864
" />
<path d="M19.4635 3.1864
L19.4030 3.0655
" />
<path d="M19.4030 3.0655
L19.3426 3.0050
" />
<path d="M19.3426 3.0050
L19.2216 2.9445
" />
<path d="M19.2216 2.9445
L18.9797 2.8840
" />
<path d="M18.9797 2.8840
L18.8587 2.8236
" />
<path d="M18.8587 2.8236
L18.7983 2.7631
" />
<path d="M18.7983 2.7631
L18.7378 2.6421
" />
<path d="M18.7378 2.6421
L18.7378 2.5212
" />
<path d="M18.7378 2.5212
L18.7983 2.4002
" />
<path d="M18.7983 2.4002
L18.8587 2.3397
" />
<path d="M18.8587 2.3397
L18.9797 2.2793
" />
<path d="M18.9797 2.2793
L19.2821 2.2793
" />
<path d="M19.2821 2.2793
L19.4635 2.3397
" />
<path d="M19.8264 2.2793
L20.5521 2.2793
" />
<path d="M20.1892 3.5493
L20.1892 2.2793
" />
<path d="M21.3987 2.8840
L21.5802 2.9445
" />
<path d="M21.5802 2.9445
L21.6407 3.0050
" />
<path d="M21.6407 3.0050
L21.7011 3.1259
" />
<path d="M21.7011 3.1259
L21.7011 3.3074
" />
<path d="M21.7011 3.3074
L21.6407 3.4283
" />
<path d="M21.6407 3.4283
L21.5802 3.4888
" />
<path d="M21.5802 3.4888
L21.4592 3.5493
" />
<path d="M21.4592 3.5493
L20.9754 3.5493
" />
<path d="M20.9754 3.5493
L20.9754 2.2793
" />
<path d="M20.9754 2.2793
L21.3987 2.2793
" />
<path d="M21.3987 2.2793
L21.5197 2.3397
" />
<path d="M21.5197 2.3397
L21.5802 2.4002
" />
<path d="M21.5802 2.4002
L21.6407 2.5212
" />
<path d="M21.6407 2.5212
L21.6407 2.6421
" />
<path d="M21.6407 2.6421
L21.5802 2.7631
" />
<path d="M21.5802 2.7631
L21.5197 2.8236
" />
<path d="M21.5197 2.8236
L21.3987 2.8840
" />
<path d="M21.3987 2.8840
L20.9754 2.8840
" />
<path d="M21.9430 3.6702
L22.9107 3.6702
" />
<path d="M23.1526 2.4002
L23.2130 2.3397
" />
<path d="M23.2130 2.3397
L23.3340 2.2793
" />
<path d="M23.3340 2.2793
L23.6364 2.2793
" />
<path d="M23.6364 2.2793
L23.7573 2.3397
" />
<path d="M23.7573 2.3397
L23.8178 2.4002
" />
<path d="M23.8178 2.4002
L23.8783 2.5212
" />
<path d="M23.8783 2.5212
L23.8783 2.6421
" />
<path d="M23.8783 2.6421
L23.8178 2.8236
" />
<path d="M23.8178 2.8236
L23.0921 3.5493
" />
<path d="M23.0921 3.5493
L23.8783 3.5493
" />
<path d="M24.4830 3.4888
L24.4830 3.5493
" />
<path d="M24.4830 3.5493
L24.4226 3.6702
" />
<path d="M24.4226 3.6702
L24.3621 3.7307
" />
<path d="M25.6321 2.2793
L25.0273 2.2793
" />
<path d="M25.0273 2.2793
L24.9668 2.8840
" />
<path d="M24.9668 2.8840
L25.0273 2.8236
" />
<path d="M25.0273 2.8236
L25.1483 2.7631
" />
<path d="M25.1483 2.7631
L25.4507 2.7631
" />
<path d="M25.4507 2.7631
L25.5716 2.8236
" />
<path d="M25.5716 2.8236
L25.6321 2.8840
" />
<path d="M25.6321 2.8840
L25.6926 3.0050
" />
<path d="M25.6926 3.0050
L25.6926 3.3074
" />
<path d="M25.6926 3.3074
L25.6321 3.4283
" />
<path d="M25.6321 3.4283
L25.5716 3.4888
" />
<path d="M25.5716 3.4888
L25.4507 3.5493
" />
<path d="M25.4507 3.5493
L25.1483 3.5493
" />
<path d="M25.1483 3.5493
L25.0273 3.4888
" />
<path d="M25.0273 3.4888
L24.9668 3.4283
" />
<path d="M25.9345 3.6702
L26.9021 3.6702
" />
<path d="M27.3859 2.8236
L27.2649 2.7631
" />
<path d="M27.2649 2.7631
L27.2045 2.7026
" />
<path d="M27.2045 2.7026
L27.1440 2.5817
" />
<path d="M27.1440 2.5817
L27.1440 2.5212
" />
<path d="M27.1440 2.5212
L27.2045 2.4002
" />
<path d="M27.2045 2.4002
L27.2649 2.3397
" />
<path d="M27.2649 2.3397
L27.3859 2.2793
" />
<path d="M27.3859 2.2793
L27.6278 2.2793
" />
<path d="M27.6278 2.2793
L27.7487 2.3397
" />
<path d="M27.7487 2.3397
L27.8092 2.4002
" />
<path d="M27.8092 2.4002
L27.8697 2.5212
" />
<path d="M27.8697 2.5212
L27.8697 2.5817
" />
<path d="M27.8697 2.5817
L27.8092 2.7026
" />
<path d="M27.8092 2.7026
L27.7487 2.7631
" />
<path d="M27.7487 2.7631
L27.6278 2.8236
" />
<path d="M27.6278 2.8236
L27.3859 2.8236
" />
<path d="M27.3859 2.8236
L27.2649 2.8840
" />
<path d="M27.2649 2.8840
L27.2045 2.9445
" />
<path d="M27.2045 2.9445
L27.1440 3.0655
" />
<path d="M27.1440 3.0655
L27.1440 3.3074
" />
<path d="M27.1440 3.3074
L27.2045 3.4283
" />
<path d="M27.2045 3.4283
L27.2649 3.4888
" />
<path d="M27.2649 3.4888
L27.3859 3.5493
" />
<path d="M27.3859 3.5493
L27.6278 3.5493
" />
<path d="M27.6278 3.5493
L27.7487 3.4888
" />
<path d="M27.7487 3.4888
L27.8092 3.4283
" />
<path d="M27.8092 3.4283
L27.8697 3.3074
" />
<path d="M27.8697 3.3074
L27.8697 3.0655
" />
<path d="M27.8697 3.0655
L27.8092 2.9445
" />
<path d="M27.8092 2.9445
L27.7487 2.8840
" />
<path d="M27.7487 2.8840
L27.6278 2.8236
" />
<path d="M28.4140 3.0655
L29.3816 3.0655
" />
<path d="M30.6516 2.3397
L30.5307 2.2793
" />
<path d="M30.5307 2.2793
L30.3492 2.2793
" />
<path d="M30.3492 2.2793
L30.1678 2.3397
" />
<path d="M30.1678 2.3397
L30.0468 2.4607
" />
<path d="M30.0468 2.4607
L29.9864 2.5817
" />
<path d="M29.9864 2.5817
L29.9259 2.8236
" />
<path d="M29.9259 2.8236
L29.9259 3.0050
" />
<path d="M29.9259 3.0050
L29.9864 3.2469
" />
<path d="M29.9864 3.2469
L30.0468 3.3678
" />
<path d="M30.0468 3.3678
L30.1678 3.4888
" />
<path d="M30.1678 3.4888
L30.3492 3.5493
" />
<path d="M30.3492 3.5493
L30.4702 3.5493
" />
<path d="M30.4702 3.5493
L30.6516 3.4888
" />
<path d="M30.6516 3.4888
L30.7121 3.4283
" />
<path d="M30.7121 3.4283
L30.7121 3.0050
" />
<path d="M30.7121 3.0050
L30.4702 3.0050
" />
<path d="M31.6797 2.8840
L31.2564 2.8840
" />
<path d="M31.2564 3.5493
L31.2564 2.2793
" />
<path d="M31.2564 2.2793
L31.8611 2.2793
" />
<path d="M32.3449 3.0655
L33.3126 3.0655
" />
<path d="M33.7964 2.2793
L34.6430 2.2793
" />
<path d="M34.6430 2.2793
L34.0987 3.5493
" />
<path d="M35.1873 3.4888
L35.1873 3.5493
" />
<path d="M35.1873 3.5493
L35.1268 3.6702
" />
<path d="M35.1268 3.6702
L35.0664 3.7307
" />
<path d="M36.2759 2.2793
L36.0340 2.2793
" />
<path d="M36.0340 2.2793
L35.9130 2.3397
" />
<path d="M35.9130 2.3397
L35.8526 2.4002
" />
<path d="M35.8526 2.4002
L35.7316 2.5817
" />
<path d="M35.7316 2.5817
L35.6711 2.8236
" />
<path d="M35.6711 2.8236
L35.6711 3.3074
" />
<path d="M35.6711 3.3074
L35.7316 3.4283
" />
<path d="M35.7316 3.4283
L35.7921 3.4888
" />
<path d="M35.7921 3.4888
L35.9130 3.5493
" />
<path d="M35.9130 3.5493
L36.1549 3.5493
" />
<path d="M36.1549 3.5493
L36.2759 3.4888
" />
<path d="M36.2759 3.4888
L36.3364 3.4283
" />
<path d="M36.3364 3.4283
L36.3968 3.3074
" />
<path d="M36.3968 3.3074
L36.3968 3.0050
" />
<path d="M36.3968 3.0050
L36.3364 2.8840
" />
<path d="M36.3364 2.8840
L36.2759 2.8236
" />
<path d="M36.2759 2.8236
L36.1549 2.7631
" />
<path d="M36.1549 2.7631
L35.9130 2.7631
" />
<path d="M35.9130 2.7631
L35.7921 2.8236
" />
<path d="M35.7921 2.8236
L35.7316 2.8840
" />
<path d="M35.7316 2.8840
L35.6711 3.0050
" />
<path d="M36.8807 2.4002
L36.9411 2.3397
" />
<path d="M36.9411 2.3397
L37.0621 2.2793
" />
<path d="M37.0621 2.2793
L37.3645 2.2793
" />
<path d="M37.3645 2.2793
L37.4854 2.3397
" />
<path d="M37.4854 2.3397
L37.5459 2.4002
" />
<path d="M37.5459 2.4002
L37.6064 2.5212
" />
<path d="M37.6064 2.5212
L37.6064 2.6421
" />
<path d="M37.6064 2.6421
L37.5459 2.8236
" />
<path d="M37.5459 2.8236
L36.8202 3.5493
" />
<path d="M36.8202 3.5493
L37.6064 3.5493
" />
<path d="M37.8483 3.6702
L38.8159 3.6702
" />
<path d="M39.7835 3.5493
L39.0578 3.5493
" />
<path d="M39.4207 3.5493
L39.4207 2.2793
" />
<path d="M39.4207 2.2793
L39.2997 2.4607
" />
<path d="M39.2997 2.4607
L39.1787 2.5817
" />
<path d="M39.1787 2.5817
L39.0578 2.6421
" />
<path d="M40.2068 3.5493
L40.8721 2.7026
" />
<path d="M40.2068 2.7026
L40.8721 3.5493
" />
<path d="M41.5978 2.2793
L41.7187 2.2793
" />
<path d="M41.7187 2.2793
L41.8397 2.3397
" />
<path d="M41.8397 2.3397
L41.9002 2.4002
" />
<path d="M41.9002 2.4002
L41.9607 2.5212
" />
<path d="M41.9607 2.5212
L42.0211 2.7631
" />
<path d="M42.0211 2.7631
L42.0211 3.0655
" />
<path d="M42.0211 3.0655
L41.9607 3.3074
" />
<path d="M41.9607 3.3074
L41.9002 3.4283
" />
<path d="M41.9002 3.4283
L41.8397 3.4888
" />
<path d="M41.8397 3.4888
L41.7187 3.5493
" />
<path d="M41.7187 3.5493
L41.5978 3.5493
" />
<path d="M41.5978 3.5493
L41.4768 3.4888
" />
<path d="M41.4768 3.4888
L41.4164 3.4283
" />
<path d="M41.4164 3.4283
L41.3559 3.3074
" />
<path d="M41.3559 3.3074
L41.2954 3.0655
" />
<path d="M41.2954 3.0655
L41.2954 2.7631
" />
<path d="M41.2954 2.7631
L41.3559 2.5212
" />
<path d="M41.3559 2.5212
L41.4164 2.4002
" />
<path d="M41.4164 2.4002
L41.4768 2.3397
" />
<path d="M41.4768 2.3397
L41.5978 2.2793
" />
<path d="M42.7468 2.8236
L42.6259 2.7631
" />
<path d="M42.6259 2.7631
L42.5654 2.7026
" />
<path d="M42.5654 2.7026
L42.5049 2.5817
" />
<path d="M42.5049 2.5817
L42.5049 2.5212
" />
<path d="M42.5049 2.5212
L42.5654 2.4002
" />
<path d="M42.5654 2.4002
L42.6259 2.3397
" />
<path d="M42.6259 2.3397
L42.7468 2.2793
" />
<path d="M42.7468 2.2793
L42.9887 2.2793
" />
<path d="M42.9887 2.2793
L43.1097 2.3397
" />
<path d="M43.1097 2.3397
L43.1702 2.4002
" />
<path d="M43.1702 2.4002
L43.2307 2.5212
" />
<path d="M43.2307 2.5212
L43.2307 2.5817
" />
<path d="M43.2307 2.5817
L43.1702 2.7026
" />
<path d="M43.1702 2.7026
L43.1097 2.7631
" />
<path d="M43.1097 2.7631
L42.9887 2.8236
" />
<path d="M42.9887 2.8236
L42.7468 2.8236
" />
<path d="M42.7468 2.8236
L42.6259 2.8840
" />
<path d="M42.6259 2.8840
L42.5654 2.9445
" />
<path d="M42.5654 2.9445
L42.5049 3.0655
" />
<path d="M42.5049 3.0655
L42.5049 3.3074
" />
<path d="M42.5049 3.3074
L42.5654 3.4283
" />
<path d="M42.5654 3.4283
L42.6259 3.4888
" />
<path d="M42.6259 3.4888
L42.7468 3.5493
" />
<path d="M42.7468 3.5493
L42.9887 3.5493
" />
<path d="M42.9887 3.5493
L43.1097 3.4888
" />
<path d="M43.1097 3.4888
L43.1702 3.4283
" />
<path d="M43.1702 3.4283
L43.2307 3.3074
" />
<path d="M43.2307 3.3074
L43.2307 3.0655
" />
<path d="M43.2307 3.0655
L43.1702 2.9445
" />
<path d="M43.1702 2.9445
L43.1097 2.8840
" />
<path d="M43.1097 2.8840
L42.9887 2.8236
" />
<path d="M43.4726 3.6702
L44.4402 3.6702
" />
<path d="M44.7426 3.5493
L44.7426 2.2793
" />
<path d="M44.7426 2.2793
L45.2264 2.2793
" />
<path d="M45.2264 2.2793
L45.3473 2.3397
" />
<path d="M45.3473 2.3397
L45.4078 2.4002
" />
<path d="M45.4078 2.4002
L45.4683 2.5212
" />
<path d="M45.4683 2.5212
L45.4683 2.7026
" />
<path d="M45.4683 2.7026
L45.4078 2.8236
" />
<path d="M45.4078 2.8236
L45.3473 2.8840
" />
<path d="M45.3473 2.8840
L45.2264 2.9445
" />
<path d="M45.2264 2.9445
L44.7426 2.9445
" />
<path d="M45.8916 2.2793
L46.7383 2.2793
" />
<path d="M46.7383 2.2793
L46.1940 3.5493
" />
<path d="M47.2221 3.4283
L47.2826 3.4888
" />
<path d="M47.2826 3.4888
L47.2221 3.5493
" />
<path d="M47.2221 3.5493
L47.1616 3.4888
" />
<path d="M47.1616 3.4888
L47.2221 3.4283
" />
<path d="M47.2221 3.4283
L47.2221 3.5493
" />
<path d="M48.3711 2.2793
L48.1292 2.2793
" />
<path d="M48.1292 2.2793
L48.0083 2.3397
" />
<path d="M48.0083 2.3397
L47.9478 2.4002
" />
<path d="M47.9478 2.4002
L47.8268 2.5817
" />
<path d="M47.8268 2.5817
L47.7664 2.8236
" />
<path d="M47.7664 2.8236
L47.7664 3.3074
" />
<path d="M47.7664 3.3074
L47.8268 3.4283
" />
<path d="M47.8268 3.4283
L47.8873 3.4888
" />
<path d="M47.8873 3.4888
L48.0083 3.5493
" />
<path d="M48.0083 3.5493
L48.2502 3.5493
" />
<path d="M48.2502 3.5493
L48.3711 3.4888
" />
<path d="M48.3711 3.4888
L48.4316 3.4283
" />
<path d="M48.4316 3.4283
L48.4921 3.3074
" />
<path d="M48.4921 3.3074
L48.4921 3.0050
" />
<path d="M48.4921 3.0050
L48.4316 2.8840
" />
<path d="M48.4316 2.8840
L48.3711 2.8236
" />
<path d="M48.3711 2.8236
L48.2502 2.7631
" />
<path d="M48.2502 2.7631
L48.0083 2.7631
" />
<path d="M48.0083 2.7631
L47.8873 2.8236
" />
<path d="M47.8873 2.8236
L47.8268 2.8840
" />
<path d="M47.8268 2.8840
L47.7664 3.0050
" />
<path d="M48.9759 2.4002
L49.0364 2.3397
" />
<path d="M49.0364 2.3397
L49.1573 2.2793
" />
<path d="M49.1573 2.2793
L49.4597 2.2793
" />
<path d="M49.4597 2.2793
L49.5807 2.3397
" />
<path d="M49.5807 2.3397
L49.6411 2.4002
" />
<path d="M49.6411 2.4002
L49.7016 2.5212
" />
<path d="M49.7016 2.5212
L49.7016 2.6421
" />
<path d="M49.7016 2.6421
L49.6411 2.8236
" />
<path d="M49.6411 2.8236
L48.9154 3.5493
" />
<path d="M48.9154 3.5493
L49.7016 3.5493
" />
<path d="M50.2459 3.5493
L50.2459 2.7026
" />
<path d="M50.2459 2.8236
L50.3064 2.7631
" />
<path d="M50.3064 2.7631
L50.4273 2.7026
" />
<path d="M50.4273 2.7026
L50.6087 2.7026
" />
<path d="M50.6087 2.7026
L50.7297 2.7631
" />
<path d="M50.7297 2.7631
L50.7902 2.8840
" />
<path d="M50.7902 2.8840
L50.7902 3.5493
" />
<path d="M50.7902 2.8840
L50.8507 2.7631
" />
<path d="M50.8507 2.7631
L50.9716 2.7026
" />
<path d="M50.9716 2.7026
L51.1530 2.7026
" />
<path d="M51.1530 2.7026
L51.2740 2.7631
" />
<path d="M51.2740 2.7631
L51.3345 2.8840
" />
<path d="M51.3345 2.8840
L51.3345 3.5493
" />
<path d="M51.9392 3.5493
L51.9392 2.7026
" />
<path d="M51.9392 2.8236
L51.9997 2.7631
" />
<path d="M51.9997 2.7631
L52.1207 2.7026
" />
<path d="M52.1207 2.7026
L52.3021 2.7026
" />
<path d="M52.3021 2.7026
L52.4230 2.7631
" />
<path d="M52.4230 2.7631
L52.4835 2.8840
" />
<path d="M52.4835 2.8840
L52.4835 3.5493
" />
<path d="M52.4835 2.8840
L52.5440 2.7631
" />
<path d="M52.5440 2.7631
L52.6649 2.7026
" />
<path d="M52.6649 2.7026
L52.8464 2.7026
" />
<path d="M52.8464 2.7026
L52.9673 2.7631
" />
<path d="M52.9673 2.7631
L53.0278 2.8840
" />
<path d="M53.0278 2.8840
L53.0278 3.5493
" />
<path d="M53.3302 3.6702
L54.2978 3.6702
" />
<path d="M54.6002 3.5493
L54.6002 2.2793
" />
<path d="M54.6002 2.8840
L55.3259 2.8840
" />
<path d="M55.3259 3.5493
L55.3259 2.2793
" />
<path d="M56.1121 3.5493
L55.9911 3.4888
" />
<path d="M55.9911 3.4888
L55.9306 3.4283
" />
<path d="M55.9306 3.4283
L55.8702 3.3074
" />
<path d="M55.8702 3.3074
L55.8702 2.9445
" />
<path d="M55.8702 2.9445
L55.9306 2.8236
" />
<path d="M55.9306 2.8236
L55.9911 2.7631
" />
<path d="M55.9911 2.7631
L56.1121 2.7026
" />
<path d="M56.1121 2.7026
L56.2935 2.7026
" />
<path d="M56.2935 2.7026
L56.4145 2.7631
" />
<path d="M56.4145 2.7631
L56.4749 2.8236
" />
<path d="M56.4749 2.8236
L56.5354 2.9445
" />
<path d="M56.5354 2.9445
L56.5354 3.3074
" />
<path d="M56.5354 3.3074
L56.4749 3.4283
" />
<path d="M56.4749 3.4283
L56.4145 3.4888
" />
<path d="M56.4145 3.4888
L56.2935 3.5493
" />
<path d="M56.2935 3.5493
L56.1121 3.5493
" />
<path d="M57.0797 3.5493
L57.0797 2.7026
" />
<path d="M57.0797 2.9445
L57.1402 2.8236
" />
<path d="M57.1402 2.8236
L57.2007 2.7631
" />
<path d="M57.2007 2.7631
L57.3216 2.7026
" />
<path d="M57.3216 2.7026
L57.4426 2.7026
" />
<path d="M57.8659 3.5493
L57.8659 2.7026
" />
<path d="M57.8659 2.2793
L57.8054 2.3397
" />
<path d="M57.8054 2.3397
L57.8659 2.4002
" />
<path d="M57.8659 2.4002
L57.9264 2.3397
" />
<path d="M57.9264 2.3397
L57.8659 2.2793
" />
<path d="M57.8659 2.2793
L57.8659 2.4002
" />
<path d="M58.3497 2.7026
L59.0149 2.7026
" />
<path d="M59.0149 2.7026
L58.3497 3.5493
" />
<path d="M58.3497 3.5493
L59.0149 3.5493
" />
<path d="M59.6802 3.5493
L59.5592 3.4888
" />
<path d="M59.5592 3.4888
L59.4987 3.4283
" />
<path d="M59.4987 3.4283
L59.4383 3.3074
" />
<path d="M59.4383 3.3074
L59.4383 2.9445
" />
<path d="M59.4383 2.9445
L59.4987 2.8236
" />
<path d="M59.4987 2.8236
L59.5592 2.7631
" />
<path d="M59.5592 2.7631
L59.6802 2.7026
" />
<path d="M59.6802 2.7026
L59.8616 2.7026
" />
<path d="M59.8616 2.7026
L59.9826 2.7631
" />
<path d="M59.9826 2.7631
L60.0430 2.8236
" />
<path d="M60.0430 2.8236
L60.1035 2.9445
" />
<path d="M60.1035 2.9445
L60.1035 3.3074
" />
<path d="M60.1035 3.3074
L60.0430 3.4283
" />
<path d="M60.0430 3.4283
L59.9826 3.4888
" />
<path d="M59.9826 3.4888
L59.8616 3.5493
" />
<path d="M59.8616 3.5493
L59.6802 3.5493
" />
<path d="M60.6478 2.7026
L60.6478 3.5493
" />
<path d="M60.6478 2.8236
L60.7083 2.7631
" />
<path d="M60.7083 2.7631
L60.8292 2.7026
" />
<path d="M60.8292 2.7026
L61.0107 2.7026
" />
<path d="M61.0107 2.7026
L61.1316 2.7631
" />
<path d="M61.1316 2.7631
L61.1921 2.8840
" />
<path d="M61.1921 2.8840
L61.1921 3.5493
" />
<path d="M61.6154 2.7026
L62.0992 2.7026
" />
<path d="M61.7968 2.2793
L61.7968 3.3678
" />
<path d="M61.7968 3.3678
L61.8573 3.4888
" />
<path d="M61.8573 3.4888
L61.9783 3.5493
" />
<path d="M61.9783 3.5493
L62.0992 3.5493
" />
<path d="M63.0668 3.5493
L63.0668 2.8840
" />
<path d="M63.0668 2.8840
L63.0064 2.7631
" />
<path d="M63.0064 2.7631
L62.8854 2.7026
" />
<path d="M62.8854 2.7026
L62.6435 2.7026
" />
<path d="M62.6435 2.7026
L62.5226 2.7631
" />
<path d="M63.0668 3.4888
L62.9459 3.5493
" />
<path d="M62.9459 3.5493
L62.6435 3.5493
" />
<path d="M62.6435 3.5493
L62.5226 3.4888
" />
<path d="M62.5226 3.4888
L62.4621 3.3678
" />
<path d="M62.4621 3.3678
L62.4621 3.2469
" />
<path d="M62.4621 3.2469
L62.5226 3.1259
" />
<path d="M62.5226 3.1259
L62.6435 3.0655
" />
<path d="M62.6435 3.0655
L62.9459 3.0655
" />
<path d="M62.9459 3.0655
L63.0668 3.0050
" />
<path d="M63.8530 3.5493
L63.7321 3.4888
" />
<path d="M63.7321 3.4888
L63.6716 3.3678
" />
<path d="M63.6716 3.3678
L63.6716 2.2793
" />
<path d="M64.0345 3.6702
L65.0021 3.6702
" />
<path d="M65.1230 2.2793
L65.8487 2.2793
" />
<path d="M65.4859 3.5493
L65.4859 2.2793
" />
<path d="M66.2721 3.5493
L66.2721 2.2793
" />
<path d="M66.8164 3.5493
L66.8164 2.8840
" />
<path d="M66.8164 2.8840
L66.7559 2.7631
" />
<path d="M66.7559 2.7631
L66.6349 2.7026
" />
<path d="M66.6349 2.7026
L66.4535 2.7026
" />
<path d="M66.4535 2.7026
L66.3326 2.7631
" />
<path d="M66.3326 2.7631
L66.2721 2.8236
" />
<path d="M67.4211 3.5493
L67.4211 2.7026
" />
<path d="M67.4211 2.9445
L67.4816 2.8236
" />
<path d="M67.4816 2.8236
L67.5421 2.7631
" />
<path d="M67.5421 2.7631
L67.6630 2.7026
" />
<path d="M67.6630 2.7026
L67.7840 2.7026
" />
<path d="M68.6911 3.4888
L68.5702 3.5493
" />
<path d="M68.5702 3.5493
L68.3283 3.5493
" />
<path d="M68.3283 3.5493
L68.2073 3.4888
" />
<path d="M68.2073 3.4888
L68.1468 3.3678
" />
<path d="M68.1468 3.3678
L68.1468 2.8840
" />
<path d="M68.1468 2.8840
L68.2073 2.7631
" />
<path d="M68.2073 2.7631
L68.3283 2.7026
" />
<path d="M68.3283 2.7026
L68.5702 2.7026
" />
<path d="M68.5702 2.7026
L68.6911 2.7631
" />
<path d="M68.6911 2.7631
L68.7516 2.8840
" />
<path d="M68.7516 2.8840
L68.7516 3.0050
" />
<path d="M68.7516 3.0050
L68.1468 3.1259
" />
<path d="M69.8402 3.5493
L69.8402 2.8840
" />
<path d="M69.8402 2.8840
L69.7797 2.7631
" />
<path d="M69.7797 2.7631
L69.6587 2.7026
" />
<path d="M69.6587 2.7026
L69.4168 2.7026
" />
<path d="M69.4168 2.7026
L69.2959 2.7631
" />
<path d="M69.8402 3.4888
L69.7192 3.5493
" />
<path d="M69.7192 3.5493
L69.4168 3.5493
" />
<path d="M69.4168 3.5493
L69.2959 3.4888
" />
<path d="M69.2959 3.4888
L69.2354 3.3678
" />
<path d="M69.2354 3.3678
L69.2354 3.2469
" />
<path d="M69.2354 3.2469
L69.2959 3.1259
" />
<path d="M69.2959 3.1259
L69.4168 3.0655
" />
<path d="M69.4168 3.0655
L69.7192 3.0655
" />
<path d="M69.7192 3.0655
L69.8402 3.0050
" />
<path d="M70.9892 3.5493
L70.9892 2.2793
" />
<path d="M70.9892 3.4888
L70.8683 3.5493
" />
<path d="M70.8683 3.5493
L70.6264 3.5493
" />
<path d="M70.6264 3.5493
L70.5054 3.4888
" />
<path d="M70.5054 3.4888
L70.4449 3.4283
" />
<path d="M70.4449 3.4283
L70.3845 3.3074
" />
<path d="M70.3845 3.3074
L70.3845 2.9445
" />
<path d="M70.3845 2.9445
L70.4449 2.8236
" />
<path d="M70.4449 2.8236
L70.5054 2.7631
" />
<path d="M70.5054 2.7631
L70.6264 2.7026
" />
<path d="M70.6264 2.7026
L70.8683 2.7026
" />
<path d="M70.8683 2.7026
L70.9892 2.7631
" />
<path d="M72.0778 3.4888
L71.9568 3.5493
" />
<path d="M71.9568 3.5493
L71.7149 3.5493
" />
<path d="M71.7149 3.5493
L71.5940 3.4888
" />
<path d="M71.5940 3.4888
L71.5335 3.3678
" />
<path d="M71.5335 3.3678
L71.5335 2.8840
" />
<path d="M71.5335 2.8840
L71.5940 2.7631
" />
<path d="M71.5940 2.7631
L71.7149 2.7026
" />
<path d="M71.7149 2.7026
L71.9568 2.7026
" />
<path d="M71.9568 2.7026
L72.0778 2.7631
" />
<path d="M72.0778 2.7631
L72.1383 2.8840
" />
<path d="M72.1383 2.8840
L72.1383 3.0050
" />
<path d="M72.1383 3.0050
L71.5335 3.1259
" />
<path d="M73.2268 3.5493
L73.2268 2.2793
" />
<path d="M73.2268 3.4888
L73.1059 3.5493
" />
<path d="M73.1059 3.5493
L72.8640 3.5493
" />
<path d="M72.8640 3.5493
L72.7430 3.4888
" />
<path d="M72.7430 3.4888
L72.6826 3.4283
" />
<path d="M72.6826 3.4283
L72.6221 3.3074
" />
<path d="M72.6221 3.3074
L72.6221 2.9445
" />
<path d="M72.6221 2.9445
L72.6826 2.8236
" />
<path d="M72.6826 2.8236
L72.7430 2.7631
" />
<path d="M72.7430 2.7631
L72.8640 2.7026
" />
<path d="M72.8640 2.7026
L73.1059 2.7026
" />
<path d="M73.1059 2.7026
L73.2268 2.7631
" />
<path d="M74.2549 2.8840
L73.8316 2.8840
" />
<path d="M73.8316 3.5493
L73.8316 2.2793
" />
<path d="M73.8316 2.2793
L74.4364 2.2793
" />
<path d="M75.1016 3.5493
L74.9807 3.4888
" />
<path d="M74.9807 3.4888
L74.9202 3.3678
" />
<path d="M74.9202 3.3678
L74.9202 2.2793
" />
<path d="M76.1297 3.5493
L76.1297 2.8840
" />
<path d="M76.1297 2.8840
L76.0692 2.7631
" />
<path d="M76.0692 2.7631
L75.9483 2.7026
" />
<path d="M75.9483 2.7026
L75.7064 2.7026
" />
<path d="M75.7064 2.7026
L75.5854 2.7631
" />
<path d="M76.1297 3.4888
L76.0087 3.5493
" />
<path d="M76.0087 3.5493
L75.7064 3.5493
" />
<path d="M75.7064 3.5493
L75.5854 3.4888
" />
<path d="M75.5854 3.4888
L75.5249 3.3678
" />
<path d="M75.5249 3.3678
L75.5249 3.2469
" />
<path d="M75.5249 3.2469
L75.5854 3.1259
" />
<path d="M75.5854 3.1259
L75.7064 3.0655
" />
<path d="M75.7064 3.0655
L76.0087 3.0655
" />
<path d="M76.0087 3.0655
L76.1297 3.0050
" />
<path d="M76.7345 2.7026
L76.7345 3.5493
" />
<path d="M76.7345 2.8236
L76.7949 2.7631
" />
<path d="M76.7949 2.7631
L76.9159 2.7026
" />
<path d="M76.9159 2.7026
L77.0973 2.7026
" />
<path d="M77.0973 2.7026
L77.2183 2.7631
" />
<path d="M77.2183 2.7631
L77.2787 2.8840
" />
<path d="M77.2787 2.8840
L77.2787 3.5493
" />
<path d="M78.4278 2.7026
L78.4278 3.7307
" />
<path d="M78.4278 3.7307
L78.3673 3.8517
" />
<path d="M78.3673 3.8517
L78.3068 3.9121
" />
<path d="M78.3068 3.9121
L78.1859 3.9726
" />
<path d="M78.1859 3.9726
L78.0045 3.9726
" />
<path d="M78.0045 3.9726
L77.8835 3.9121
" />
<path d="M78.4278 3.4888
L78.3068 3.5493
" />
<path d="M78.3068 3.5493
L78.0649 3.5493
" />
<path d="M78.0649 3.5493
L77.9440 3.4888
" />
<path d="M77.9440 3.4888
L77.8835 3.4283
" />
<path d="M77.8835 3.4283
L77.8230 3.3074
" />
<path d="M77.8230 3.3074
L77.8230 2.9445
" />
<path d="M77.8230 2.9445
L77.8835 2.8236
" />
<path d="M77.8835 2.8236
L77.9440 2.7631
" />
<path d="M77.9440 2.7631
L78.0649 2.7026
" />
<path d="M78.0649 2.7026
L78.3068 2.7026
" />
<path d="M78.3068 2.7026
L78.4278 2.7631
" />
<path d="M79.5164 3.4888
L79.3954 3.5493
" />
<path d="M79.3954 3.5493
L79.1535 3.5493
" />
<path d="M79.1535 3.5493
L79.0326 3.4888
" />
<path d="M79.0326 3.4888
L78.9721 3.3678
" />
<path d="M78.9721 3.3678
L78.9721 2.8840
" />
<path d="M78.9721 2.8840
L79.0326 2.7631
" />
<path d="M79.0326 2.7631
L79.1535 2.7026
" />
<path d="M79.1535 2.7026
L79.3954 2.7026
" />
<path d="M79.3954 2.7026
L79.5164 2.7631
" />
<path d="M79.5164 2.7631
L79.5768 2.8840
" />
<path d="M79.5768 2.8840
L79.5768 3.0050
" />
<path d="M79.5768 3.0050
L78.9721 3.1259
" />
</g></g>
<g style="fill:none; 
stroke:#AFAFAF; stroke-width:0.1500; stroke-opacity:1; 
stroke-linecap:round; stroke-linejoin:round;">
<text x="66.6349" y="2.1700"
textLength="4.5357" font-size="1.3333" lengthAdjust="spacingAndGlyphs"
text-anchor="middle" opacity="0">REF**</text>
<g class="stroked-text"><desc>REF**</desc>
<path d="M65.3016 2.1248
L64.9683 1.6486
" />
<path d="M64.7302 2.1248
L64.7302 1.1248
" />
<path d="M64.7302 1.1248
L65.1111 1.1248
" />
<path d="M65.1111 1.1248
L65.2064 1.1724
" />
<path d="M65.2064 1.1724
L65.2540 1.2201
" />
<path d="M65.2540 1.2201
L65.3016 1.3153
" />
<path d="M65.3016 1.3153
L65.3016 1.4582
" />
<path d="M65.3016 1.4582
L65.2540 1.5534
" />
<path d="M65.2540 1.5534
L65.2064 1.6010
" />
<path d="M65.2064 1.6010
L65.1111 1.6486
" />
<path d="M65.1111 1.6486
L64.7302 1.6486
" />
<path d="M65.7302 1.6010
L66.0635 1.6010
" />
<path d="M66.2064 2.1248
L65.7302 2.1248
" />
<path d="M65.7302 2.1248
L65.7302 1.1248
" />
<path d="M65.7302 1.1248
L66.2064 1.1248
" />
<path d="M66.9683 1.6010
L66.6349 1.6010
" />
<path d="M66.6349 2.1248
L66.6349 1.1248
" />
<path d="M66.6349 1.1248
L67.1111 1.1248
" />
<path d="M67.6349 1.1248
L67.6349 1.3629
" />
<path d="M67.3968 1.2677
L67.6349 1.3629
" />
<path d="M67.6349 1.3629
L67.8730 1.2677
" />
<path d="M67.4921 1.5534
L67.6349 1.3629
" />
<path d="M67.6349 1.3629
L67.7778 1.5534
" />
<path d="M68.3968 1.1248
L68.3968 1.3629
" />
<path d="M68.1587 1.2677
L68.3968 1.3629
" />
<path d="M68.3968 1.3629
L68.6349 1.2677
" />
<path d="M68.2540 1.5534
L68.3968 1.3629
" />
<path d="M68.3968 1.3629
L68.5397 1.5534
" />
</g></g>
<g style="fill:none; 
stroke:#AFAFAF; stroke-width:0.1000; stroke-opacity:1; 
stroke-linecap:round; stroke-linejoin:round;">
<path d="M30.8649 0.9700
L30.8649 12.9700
" />
<path d="M30.8649 12.9700
L102.4049 12.9700
" />
<path d="M39.9649 2.4700
L39.0149 0.9700
" />
<path d="M40.9149 0.9700
L39.9649 2.4700
" />
<path d="M102.4049 0.9700
L30.8649 0.9700
" />
<path d="M102.4049 12.9700
L102.4049 0.9700
" />
</g> 
</svg>
