<?xml version="1.0" standalone="no"?>
 <!DOCTYPE svg PUBLIC "-//W3C//DTD SVG 1.1//EN" 
 "http://www.w3.org/Graphics/SVG/1.1/DTD/svg11.dtd"> 
<svg
  xmlns:svg="http://www.w3.org/2000/svg"
  xmlns="http://www.w3.org/2000/svg"
  xmlns:xlink="http://www.w3.org/1999/xlink"
  version="1.1"
  width="49.4284mm" height="8.2296mm" viewBox="0.0000 0.0000 49.4284 8.2296">
<title>SVG Image created as working-brd.svg date 2024/04/18 00:50:43 </title>
  <desc>Image generated by PCBNEW </desc>
<g style="fill:#000000; fill-opacity:1.0000;stroke:#000000; stroke-opacity:1.0000;
stroke-linecap:round; stroke-linejoin:round;"
 transform="translate(0 0) scale(1 1)">
</g>
<g style="fill:#FFFFFF; fill-opacity:1.0000; stroke:none;">
<circle cx="22.2249" cy="2.5650" r="0.4000" /> 
</g>
<g style="fill:#FFFFFF; fill-opacity:1.0000; stroke:none;">
<circle cx="27.2249" cy="2.5650" r="0.4000" /> 
</g>
<g style="fill:#FFFFFF; fill-opacity:1.0000; stroke:none;">
<circle cx="20.8499" cy="5.3150" r="0.6000" /> 
</g>
<g style="fill:#FFFFFF; fill-opacity:1.0000; stroke:none;">
<circle cx="20.9999" cy="1.5150" r="0.7000" /> 
</g>
<g style="fill:#FFFFFF; fill-opacity:1.0000; stroke:none;">
<circle cx="28.4499" cy="1.5150" r="0.7000" /> 
</g>
<g style="fill:#FFFFFF; fill-opacity:1.0000; stroke:none;">
<circle cx="28.5999" cy="5.3150" r="0.6000" /> 
</g>
<g style="fill:#02FFEE; fill-opacity:0.4000; stroke:none;">
<circle cx="22.2249" cy="2.5650" r="0.4000" /> 
</g>
<g style="fill:#02FFEE; fill-opacity:0.4000; stroke:none;">
<circle cx="27.2249" cy="2.5650" r="0.4000" /> 
</g>
<g style="fill:#02FFEE; fill-opacity:0.4000; stroke:none;">
<circle cx="20.8499" cy="5.3150" r="0.9000" /> 
</g>
<g style="fill:#02FFEE; fill-opacity:0.4000; stroke:none;">
<circle cx="20.9999" cy="1.5150" r="1.0000" /> 
</g>
<g style="fill:#02FFEE; fill-opacity:0.4000; stroke:none;">
<circle cx="28.4499" cy="1.5150" r="1.0000" /> 
</g>
<g style="fill:#02FFEE; fill-opacity:0.4000; stroke:none;">
<circle cx="28.5999" cy="5.3150" r="0.9000" /> 
</g>
<g style="fill:#FFFFFF; fill-opacity:1.0000; stroke:none;">
<circle cx="22.2249" cy="2.5650" r="0.4000" /> 
</g>
<g style="fill:#FFFFFF; fill-opacity:1.0000; stroke:none;">
<circle cx="27.2249" cy="2.5650" r="0.4000" /> 
</g>
<g style="fill:#FFFFFF; fill-opacity:1.0000; stroke:none;">
<circle cx="20.8499" cy="5.3150" r="0.6000" /> 
</g>
<g style="fill:#FFFFFF; fill-opacity:1.0000; stroke:none;">
<circle cx="20.9999" cy="1.5150" r="0.7000" /> 
</g>
<g style="fill:#FFFFFF; fill-opacity:1.0000; stroke:none;">
<circle cx="28.4499" cy="1.5150" r="0.7000" /> 
</g>
<g style="fill:#FFFFFF; fill-opacity:1.0000; stroke:none;">
<circle cx="28.5999" cy="5.3150" r="0.6000" /> 
<path style="fill:#C83434; fill-opacity:1.0000; stroke:none;fill-rule:evenodd;"
d="M 23.1999,2.1150
23.1999,0.8150
23.6499,0.8150
23.6499,2.1150
Z" /> 
<path style="fill:#C83434; fill-opacity:1.0000; stroke:none;fill-rule:evenodd;"
d="M 23.8499,2.1150
23.8499,0.8150
24.2999,0.8150
24.2999,2.1150
Z" /> 
<path style="fill:#C83434; fill-opacity:1.0000; stroke:none;fill-rule:evenodd;"
d="M 24.4999,2.1150
24.4999,0.8150
24.9499,0.8150
24.9499,2.1150
Z" /> 
<path style="fill:#C83434; fill-opacity:1.0000; stroke:none;fill-rule:evenodd;"
d="M 25.1499,2.1150
25.1499,0.8150
25.5999,0.8150
25.5999,2.1150
Z" /> 
<path style="fill:#C83434; fill-opacity:1.0000; stroke:none;fill-rule:evenodd;"
d="M 25.7999,2.1150
25.7999,0.8150
26.2499,0.8150
26.2499,2.1150
Z" /> 
</g>
<g style="fill:#FFFFFF; fill-opacity:1.0000; stroke:none;">
<circle cx="22.2249" cy="2.5650" r="0.4000" /> 
</g>
<g style="fill:#FFFFFF; fill-opacity:1.0000; stroke:none;">
<circle cx="27.2249" cy="2.5650" r="0.4000" /> 
</g>
<g style="fill:#FFFFFF; fill-opacity:1.0000; stroke:none;">
<circle cx="20.8499" cy="5.3150" r="0.6000" /> 
</g>
<g style="fill:#FFFFFF; fill-opacity:1.0000; stroke:none;">
<circle cx="20.9999" cy="1.5150" r="0.7000" /> 
</g>
<g style="fill:#FFFFFF; fill-opacity:1.0000; stroke:none;">
<circle cx="28.4499" cy="1.5150" r="0.7000" /> 
</g>
<g style="fill:#FFFFFF; fill-opacity:1.0000; stroke:none;">
<circle cx="28.5999" cy="5.3150" r="0.6000" /> 
</g>
<g style="fill:#D864FF; fill-opacity:0.4000; stroke:none;">
<circle cx="22.2249" cy="2.5650" r="0.4000" /> 
</g>
<g style="fill:#D864FF; fill-opacity:0.4000; stroke:none;">
<circle cx="27.2249" cy="2.5650" r="0.4000" /> 
<path style="fill:#D864FF; fill-opacity:0.4000; stroke:none;fill-rule:evenodd;"
d="M 23.1999,2.1150
23.1999,0.8150
23.6499,0.8150
23.6499,2.1150
Z" /> 
<path style="fill:#D864FF; fill-opacity:0.4000; stroke:none;fill-rule:evenodd;"
d="M 23.8499,2.1150
23.8499,0.8150
24.2999,0.8150
24.2999,2.1150
Z" /> 
<path style="fill:#D864FF; fill-opacity:0.4000; stroke:none;fill-rule:evenodd;"
d="M 24.4999,2.1150
24.4999,0.8150
24.9499,0.8150
24.9499,2.1150
Z" /> 
<path style="fill:#D864FF; fill-opacity:0.4000; stroke:none;fill-rule:evenodd;"
d="M 25.1499,2.1150
25.1499,0.8150
25.5999,0.8150
25.5999,2.1150
Z" /> 
<path style="fill:#D864FF; fill-opacity:0.4000; stroke:none;fill-rule:evenodd;"
d="M 25.7999,2.1150
25.7999,0.8150
26.2499,0.8150
26.2499,2.1150
Z" /> 
</g>
<g style="fill:#D864FF; fill-opacity:0.4000; stroke:none;">
<circle cx="20.8499" cy="5.3150" r="0.9000" /> 
</g>
<g style="fill:#D864FF; fill-opacity:0.4000; stroke:none;">
<circle cx="20.9999" cy="1.5150" r="1.0000" /> 
</g>
<g style="fill:#D864FF; fill-opacity:0.4000; stroke:none;">
<circle cx="28.4499" cy="1.5150" r="1.0000" /> 
</g>
<g style="fill:#D864FF; fill-opacity:0.4000; stroke:none;">
<circle cx="28.5999" cy="5.3150" r="0.9000" /> 
<path style="fill:#B4A09A; fill-opacity:0.9000; stroke:none;fill-rule:evenodd;"
d="M 23.1999,2.1150
23.1999,0.8150
23.6499,0.8150
23.6499,2.1150
Z" /> 
<path style="fill:#B4A09A; fill-opacity:0.9000; stroke:none;fill-rule:evenodd;"
d="M 23.8499,2.1150
23.8499,0.8150
24.2999,0.8150
24.2999,2.1150
Z" /> 
<path style="fill:#B4A09A; fill-opacity:0.9000; stroke:none;fill-rule:evenodd;"
d="M 24.4999,2.1150
24.4999,0.8150
24.9499,0.8150
24.9499,2.1150
Z" /> 
<path style="fill:#B4A09A; fill-opacity:0.9000; stroke:none;fill-rule:evenodd;"
d="M 25.1499,2.1150
25.1499,0.8150
25.5999,0.8150
25.5999,2.1150
Z" /> 
<path style="fill:#B4A09A; fill-opacity:0.9000; stroke:none;fill-rule:evenodd;"
d="M 25.7999,2.1150
25.7999,0.8150
26.2499,0.8150
26.2499,2.1150
Z" /> 
</g>
<g style="fill:none; 
stroke:#F2EDA1; stroke-width:0.1588; stroke-opacity:1; 
stroke-linecap:round; stroke-linejoin:round;">
<text x="24.7249" y="4.0000"
textLength="5.6651" font-size="1.6933" lengthAdjust="spacingAndGlyphs"
text-anchor="middle" opacity="0">REF**</text>
<g class="stroked-text"><desc>REF**</desc>
<path d="M23.0316 3.9443
L22.6083 3.3395
" />
<path d="M22.3059 3.9443
L22.3059 2.6743
" />
<path d="M22.3059 2.6743
L22.7897 2.6743
" />
<path d="M22.7897 2.6743
L22.9107 2.7347
" />
<path d="M22.9107 2.7347
L22.9711 2.7952
" />
<path d="M22.9711 2.7952
L23.0316 2.9162
" />
<path d="M23.0316 2.9162
L23.0316 3.0976
" />
<path d="M23.0316 3.0976
L22.9711 3.2186
" />
<path d="M22.9711 3.2186
L22.9107 3.2790
" />
<path d="M22.9107 3.2790
L22.7897 3.3395
" />
<path d="M22.7897 3.3395
L22.3059 3.3395
" />
<path d="M23.5759 3.2790
L23.9992 3.2790
" />
<path d="M24.1806 3.9443
L23.5759 3.9443
" />
<path d="M23.5759 3.9443
L23.5759 2.6743
" />
<path d="M23.5759 2.6743
L24.1806 2.6743
" />
<path d="M25.1483 3.2790
L24.7249 3.2790
" />
<path d="M24.7249 3.9443
L24.7249 2.6743
" />
<path d="M24.7249 2.6743
L25.3297 2.6743
" />
<path d="M25.9949 2.6743
L25.9949 2.9767
" />
<path d="M25.6926 2.8557
L25.9949 2.9767
" />
<path d="M25.9949 2.9767
L26.2973 2.8557
" />
<path d="M25.8135 3.2186
L25.9949 2.9767
" />
<path d="M25.9949 2.9767
L26.1764 3.2186
" />
<path d="M26.9626 2.6743
L26.9626 2.9767
" />
<path d="M26.6602 2.8557
L26.9626 2.9767
" />
<path d="M26.9626 2.9767
L27.2649 2.8557
" />
<path d="M26.7811 3.2186
L26.9626 2.9767
" />
<path d="M26.9626 2.9767
L27.1440 3.2186
" />
</g></g>
<g style="fill:none; 
stroke:#F2EDA1; stroke-width:0.1500; stroke-opacity:1; 
stroke-linecap:round; stroke-linejoin:round;">
<path d="M20.5749 2.7150
L20.5749 4.1150
" />
<path d="M20.5749 6.5150
L20.5749 6.6650
" />
<path d="M20.5749 6.6650
L20.8749 6.6650
" />
<path d="M20.8749 6.6650
L20.8749 7.1150
" />
<path d="M22.9249 0.5400
L22.9249 0.9650
" />
<path d="M22.9249 0.9650
L22.1999 0.9650
" />
<path d="M23.6499 0.5400
L22.9249 0.5400
" />
<path d="M26.5249 0.9650
L27.2499 0.9650
" />
<path d="M28.5749 6.6650
L28.8749 6.6650
" />
<path d="M28.5749 7.1150
L28.5749 6.6650
" />
<path d="M28.8749 4.1150
L28.8749 2.7150
" />
<path d="M28.8749 6.6650
L28.8749 6.5150
" />
</g>
<g style="fill:#FFFFFF; fill-opacity:1.0000; stroke:none;">
<circle cx="22.2249" cy="2.5650" r="0.4000" /> 
</g>
<g style="fill:#FFFFFF; fill-opacity:1.0000; stroke:none;">
<circle cx="27.2249" cy="2.5650" r="0.4000" /> 
</g>
<g style="fill:#FFFFFF; fill-opacity:1.0000; stroke:none;">
<circle cx="20.8499" cy="5.3150" r="0.6000" /> 
</g>
<g style="fill:#FFFFFF; fill-opacity:1.0000; stroke:none;">
<circle cx="20.9999" cy="1.5150" r="0.7000" /> 
</g>
<g style="fill:#FFFFFF; fill-opacity:1.0000; stroke:none;">
<circle cx="28.4499" cy="1.5150" r="0.7000" /> 
</g>
<g style="fill:#FFFFFF; fill-opacity:1.0000; stroke:none;">
<circle cx="28.5999" cy="5.3150" r="0.6000" /> 
</g>
<g style="fill:none; 
stroke:#FF26E2; stroke-width:0.0500; stroke-opacity:1; 
stroke-linecap:round; stroke-linejoin:round;">
<path d="M19.4549 0.0250
L19.4549 8.2150
" />
<path d="M19.4549 8.2150
L30.0049 8.2150
" />
<path d="M30.0049 0.0250
L19.4549 0.0250
" />
<path d="M30.0049 8.2150
L30.0049 0.0250
" />
</g>
<g style="fill:none; 
stroke:#AFAFAF; stroke-width:0.1588; stroke-opacity:1; 
stroke-linecap:round; stroke-linejoin:round;">
<text x="24.7249" y="4.0000"
textLength="49.4499" font-size="1.6933" lengthAdjust="spacingAndGlyphs"
text-anchor="middle" opacity="0">USB_Micro-B_Wuerth_629105150521_CircularHoles</text>
<g class="stroked-text"><desc>USB_Micro-B_Wuerth_629105150521_CircularHoles</desc>
<path d="M0.4135 2.6743
L0.4135 3.7024
" />
<path d="M0.4135 3.7024
L0.4740 3.8233
" />
<path d="M0.4740 3.8233
L0.5345 3.8838
" />
<path d="M0.5345 3.8838
L0.6554 3.9443
" />
<path d="M0.6554 3.9443
L0.8973 3.9443
" />
<path d="M0.8973 3.9443
L1.0183 3.8838
" />
<path d="M1.0183 3.8838
L1.0787 3.8233
" />
<path d="M1.0787 3.8233
L1.1392 3.7024
" />
<path d="M1.1392 3.7024
L1.1392 2.6743
" />
<path d="M1.6835 3.8838
L1.8649 3.9443
" />
<path d="M1.8649 3.9443
L2.1673 3.9443
" />
<path d="M2.1673 3.9443
L2.2883 3.8838
" />
<path d="M2.2883 3.8838
L2.3487 3.8233
" />
<path d="M2.3487 3.8233
L2.4092 3.7024
" />
<path d="M2.4092 3.7024
L2.4092 3.5814
" />
<path d="M2.4092 3.5814
L2.3487 3.4605
" />
<path d="M2.3487 3.4605
L2.2883 3.4000
" />
<path d="M2.2883 3.4000
L2.1673 3.3395
" />
<path d="M2.1673 3.3395
L1.9254 3.2790
" />
<path d="M1.9254 3.2790
L1.8045 3.2186
" />
<path d="M1.8045 3.2186
L1.7440 3.1581
" />
<path d="M1.7440 3.1581
L1.6835 3.0371
" />
<path d="M1.6835 3.0371
L1.6835 2.9162
" />
<path d="M1.6835 2.9162
L1.7440 2.7952
" />
<path d="M1.7440 2.7952
L1.8045 2.7347
" />
<path d="M1.8045 2.7347
L1.9254 2.6743
" />
<path d="M1.9254 2.6743
L2.2278 2.6743
" />
<path d="M2.2278 2.6743
L2.4092 2.7347
" />
<path d="M3.3768 3.2790
L3.5583 3.3395
" />
<path d="M3.5583 3.3395
L3.6187 3.4000
" />
<path d="M3.6187 3.4000
L3.6792 3.5209
" />
<path d="M3.6792 3.5209
L3.6792 3.7024
" />
<path d="M3.6792 3.7024
L3.6187 3.8233
" />
<path d="M3.6187 3.8233
L3.5583 3.8838
" />
<path d="M3.5583 3.8838
L3.4373 3.9443
" />
<path d="M3.4373 3.9443
L2.9535 3.9443
" />
<path d="M2.9535 3.9443
L2.9535 2.6743
" />
<path d="M2.9535 2.6743
L3.3768 2.6743
" />
<path d="M3.3768 2.6743
L3.4978 2.7347
" />
<path d="M3.4978 2.7347
L3.5583 2.7952
" />
<path d="M3.5583 2.7952
L3.6187 2.9162
" />
<path d="M3.6187 2.9162
L3.6187 3.0371
" />
<path d="M3.6187 3.0371
L3.5583 3.1581
" />
<path d="M3.5583 3.1581
L3.4978 3.2186
" />
<path d="M3.4978 3.2186
L3.3768 3.2790
" />
<path d="M3.3768 3.2790
L2.9535 3.2790
" />
<path d="M3.9211 4.0652
L4.8887 4.0652
" />
<path d="M5.1911 3.9443
L5.1911 2.6743
" />
<path d="M5.1911 2.6743
L5.6145 3.5814
" />
<path d="M5.6145 3.5814
L6.0378 2.6743
" />
<path d="M6.0378 2.6743
L6.0378 3.9443
" />
<path d="M6.6426 3.9443
L6.6426 3.0976
" />
<path d="M6.6426 2.6743
L6.5821 2.7347
" />
<path d="M6.5821 2.7347
L6.6426 2.7952
" />
<path d="M6.6426 2.7952
L6.7030 2.7347
" />
<path d="M6.7030 2.7347
L6.6426 2.6743
" />
<path d="M6.6426 2.6743
L6.6426 2.7952
" />
<path d="M7.7916 3.8838
L7.6706 3.9443
" />
<path d="M7.6706 3.9443
L7.4287 3.9443
" />
<path d="M7.4287 3.9443
L7.3078 3.8838
" />
<path d="M7.3078 3.8838
L7.2473 3.8233
" />
<path d="M7.2473 3.8233
L7.1868 3.7024
" />
<path d="M7.1868 3.7024
L7.1868 3.3395
" />
<path d="M7.1868 3.3395
L7.2473 3.2186
" />
<path d="M7.2473 3.2186
L7.3078 3.1581
" />
<path d="M7.3078 3.1581
L7.4287 3.0976
" />
<path d="M7.4287 3.0976
L7.6706 3.0976
" />
<path d="M7.6706 3.0976
L7.7916 3.1581
" />
<path d="M8.3359 3.9443
L8.3359 3.0976
" />
<path d="M8.3359 3.3395
L8.3964 3.2186
" />
<path d="M8.3964 3.2186
L8.4568 3.1581
" />
<path d="M8.4568 3.1581
L8.5778 3.0976
" />
<path d="M8.5778 3.0976
L8.6987 3.0976
" />
<path d="M9.3035 3.9443
L9.1826 3.8838
" />
<path d="M9.1826 3.8838
L9.1221 3.8233
" />
<path d="M9.1221 3.8233
L9.0616 3.7024
" />
<path d="M9.0616 3.7024
L9.0616 3.3395
" />
<path d="M9.0616 3.3395
L9.1221 3.2186
" />
<path d="M9.1221 3.2186
L9.1826 3.1581
" />
<path d="M9.1826 3.1581
L9.3035 3.0976
" />
<path d="M9.3035 3.0976
L9.4849 3.0976
" />
<path d="M9.4849 3.0976
L9.6059 3.1581
" />
<path d="M9.6059 3.1581
L9.6664 3.2186
" />
<path d="M9.6664 3.2186
L9.7268 3.3395
" />
<path d="M9.7268 3.3395
L9.7268 3.7024
" />
<path d="M9.7268 3.7024
L9.6664 3.8233
" />
<path d="M9.6664 3.8233
L9.6059 3.8838
" />
<path d="M9.6059 3.8838
L9.4849 3.9443
" />
<path d="M9.4849 3.9443
L9.3035 3.9443
" />
<path d="M10.2711 3.4605
L11.2387 3.4605
" />
<path d="M12.2668 3.2790
L12.4483 3.3395
" />
<path d="M12.4483 3.3395
L12.5087 3.4000
" />
<path d="M12.5087 3.4000
L12.5692 3.5209
" />
<path d="M12.5692 3.5209
L12.5692 3.7024
" />
<path d="M12.5692 3.7024
L12.5087 3.8233
" />
<path d="M12.5087 3.8233
L12.4483 3.8838
" />
<path d="M12.4483 3.8838
L12.3273 3.9443
" />
<path d="M12.3273 3.9443
L11.8435 3.9443
" />
<path d="M11.8435 3.9443
L11.8435 2.6743
" />
<path d="M11.8435 2.6743
L12.2668 2.6743
" />
<path d="M12.2668 2.6743
L12.3878 2.7347
" />
<path d="M12.3878 2.7347
L12.4483 2.7952
" />
<path d="M12.4483 2.7952
L12.5087 2.9162
" />
<path d="M12.5087 2.9162
L12.5087 3.0371
" />
<path d="M12.5087 3.0371
L12.4483 3.1581
" />
<path d="M12.4483 3.1581
L12.3878 3.2186
" />
<path d="M12.3878 3.2186
L12.2668 3.2790
" />
<path d="M12.2668 3.2790
L11.8435 3.2790
" />
<path d="M12.8111 4.0652
L13.7787 4.0652
" />
<path d="M13.9602 2.6743
L14.2626 3.9443
" />
<path d="M14.2626 3.9443
L14.5045 3.0371
" />
<path d="M14.5045 3.0371
L14.7464 3.9443
" />
<path d="M14.7464 3.9443
L15.0487 2.6743
" />
<path d="M16.0768 3.0976
L16.0768 3.9443
" />
<path d="M15.5326 3.0976
L15.5326 3.7628
" />
<path d="M15.5326 3.7628
L15.5930 3.8838
" />
<path d="M15.5930 3.8838
L15.7140 3.9443
" />
<path d="M15.7140 3.9443
L15.8954 3.9443
" />
<path d="M15.8954 3.9443
L16.0164 3.8838
" />
<path d="M16.0164 3.8838
L16.0768 3.8233
" />
<path d="M17.1654 3.8838
L17.0445 3.9443
" />
<path d="M17.0445 3.9443
L16.8026 3.9443
" />
<path d="M16.8026 3.9443
L16.6816 3.8838
" />
<path d="M16.6816 3.8838
L16.6211 3.7628
" />
<path d="M16.6211 3.7628
L16.6211 3.2790
" />
<path d="M16.6211 3.2790
L16.6816 3.1581
" />
<path d="M16.6816 3.1581
L16.8026 3.0976
" />
<path d="M16.8026 3.0976
L17.0445 3.0976
" />
<path d="M17.0445 3.0976
L17.1654 3.1581
" />
<path d="M17.1654 3.1581
L17.2259 3.2790
" />
<path d="M17.2259 3.2790
L17.2259 3.4000
" />
<path d="M17.2259 3.4000
L16.6211 3.5209
" />
<path d="M17.7702 3.9443
L17.7702 3.0976
" />
<path d="M17.7702 3.3395
L17.8306 3.2186
" />
<path d="M17.8306 3.2186
L17.8911 3.1581
" />
<path d="M17.8911 3.1581
L18.0121 3.0976
" />
<path d="M18.0121 3.0976
L18.1330 3.0976
" />
<path d="M18.3749 3.0976
L18.8587 3.0976
" />
<path d="M18.5564 2.6743
L18.5564 3.7628
" />
<path d="M18.5564 3.7628
L18.6168 3.8838
" />
<path d="M18.6168 3.8838
L18.7378 3.9443
" />
<path d="M18.7378 3.9443
L18.8587 3.9443
" />
<path d="M19.2821 3.9443
L19.2821 2.6743
" />
<path d="M19.8264 3.9443
L19.8264 3.2790
" />
<path d="M19.8264 3.2790
L19.7659 3.1581
" />
<path d="M19.7659 3.1581
L19.6449 3.0976
" />
<path d="M19.6449 3.0976
L19.4635 3.0976
" />
<path d="M19.4635 3.0976
L19.3426 3.1581
" />
<path d="M19.3426 3.1581
L19.2821 3.2186
" />
<path d="M20.1287 4.0652
L21.0964 4.0652
" />
<path d="M21.9430 2.6743
L21.7011 2.6743
" />
<path d="M21.7011 2.6743
L21.5802 2.7347
" />
<path d="M21.5802 2.7347
L21.5197 2.7952
" />
<path d="M21.5197 2.7952
L21.3987 2.9767
" />
<path d="M21.3987 2.9767
L21.3383 3.2186
" />
<path d="M21.3383 3.2186
L21.3383 3.7024
" />
<path d="M21.3383 3.7024
L21.3987 3.8233
" />
<path d="M21.3987 3.8233
L21.4592 3.8838
" />
<path d="M21.4592 3.8838
L21.5802 3.9443
" />
<path d="M21.5802 3.9443
L21.8221 3.9443
" />
<path d="M21.8221 3.9443
L21.9430 3.8838
" />
<path d="M21.9430 3.8838
L22.0035 3.8233
" />
<path d="M22.0035 3.8233
L22.0640 3.7024
" />
<path d="M22.0640 3.7024
L22.0640 3.4000
" />
<path d="M22.0640 3.4000
L22.0035 3.2790
" />
<path d="M22.0035 3.2790
L21.9430 3.2186
" />
<path d="M21.9430 3.2186
L21.8221 3.1581
" />
<path d="M21.8221 3.1581
L21.5802 3.1581
" />
<path d="M21.5802 3.1581
L21.4592 3.2186
" />
<path d="M21.4592 3.2186
L21.3987 3.2790
" />
<path d="M21.3987 3.2790
L21.3383 3.4000
" />
<path d="M22.5478 2.7952
L22.6083 2.7347
" />
<path d="M22.6083 2.7347
L22.7292 2.6743
" />
<path d="M22.7292 2.6743
L23.0316 2.6743
" />
<path d="M23.0316 2.6743
L23.1526 2.7347
" />
<path d="M23.1526 2.7347
L23.2130 2.7952
" />
<path d="M23.2130 2.7952
L23.2735 2.9162
" />
<path d="M23.2735 2.9162
L23.2735 3.0371
" />
<path d="M23.2735 3.0371
L23.2130 3.2186
" />
<path d="M23.2130 3.2186
L22.4873 3.9443
" />
<path d="M22.4873 3.9443
L23.2735 3.9443
" />
<path d="M23.8783 3.9443
L24.1202 3.9443
" />
<path d="M24.1202 3.9443
L24.2411 3.8838
" />
<path d="M24.2411 3.8838
L24.3016 3.8233
" />
<path d="M24.3016 3.8233
L24.4226 3.6419
" />
<path d="M24.4226 3.6419
L24.4830 3.4000
" />
<path d="M24.4830 3.4000
L24.4830 2.9162
" />
<path d="M24.4830 2.9162
L24.4226 2.7952
" />
<path d="M24.4226 2.7952
L24.3621 2.7347
" />
<path d="M24.3621 2.7347
L24.2411 2.6743
" />
<path d="M24.2411 2.6743
L23.9992 2.6743
" />
<path d="M23.9992 2.6743
L23.8783 2.7347
" />
<path d="M23.8783 2.7347
L23.8178 2.7952
" />
<path d="M23.8178 2.7952
L23.7573 2.9162
" />
<path d="M23.7573 2.9162
L23.7573 3.2186
" />
<path d="M23.7573 3.2186
L23.8178 3.3395
" />
<path d="M23.8178 3.3395
L23.8783 3.4000
" />
<path d="M23.8783 3.4000
L23.9992 3.4605
" />
<path d="M23.9992 3.4605
L24.2411 3.4605
" />
<path d="M24.2411 3.4605
L24.3621 3.4000
" />
<path d="M24.3621 3.4000
L24.4226 3.3395
" />
<path d="M24.4226 3.3395
L24.4830 3.2186
" />
<path d="M25.6926 3.9443
L24.9668 3.9443
" />
<path d="M25.3297 3.9443
L25.3297 2.6743
" />
<path d="M25.3297 2.6743
L25.2087 2.8557
" />
<path d="M25.2087 2.8557
L25.0878 2.9767
" />
<path d="M25.0878 2.9767
L24.9668 3.0371
" />
<path d="M26.4787 2.6743
L26.5997 2.6743
" />
<path d="M26.5997 2.6743
L26.7206 2.7347
" />
<path d="M26.7206 2.7347
L26.7811 2.7952
" />
<path d="M26.7811 2.7952
L26.8416 2.9162
" />
<path d="M26.8416 2.9162
L26.9021 3.1581
" />
<path d="M26.9021 3.1581
L26.9021 3.4605
" />
<path d="M26.9021 3.4605
L26.8416 3.7024
" />
<path d="M26.8416 3.7024
L26.7811 3.8233
" />
<path d="M26.7811 3.8233
L26.7206 3.8838
" />
<path d="M26.7206 3.8838
L26.5997 3.9443
" />
<path d="M26.5997 3.9443
L26.4787 3.9443
" />
<path d="M26.4787 3.9443
L26.3578 3.8838
" />
<path d="M26.3578 3.8838
L26.2973 3.8233
" />
<path d="M26.2973 3.8233
L26.2368 3.7024
" />
<path d="M26.2368 3.7024
L26.1764 3.4605
" />
<path d="M26.1764 3.4605
L26.1764 3.1581
" />
<path d="M26.1764 3.1581
L26.2368 2.9162
" />
<path d="M26.2368 2.9162
L26.2973 2.7952
" />
<path d="M26.2973 2.7952
L26.3578 2.7347
" />
<path d="M26.3578 2.7347
L26.4787 2.6743
" />
<path d="M28.0511 2.6743
L27.4464 2.6743
" />
<path d="M27.4464 2.6743
L27.3859 3.2790
" />
<path d="M27.3859 3.2790
L27.4464 3.2186
" />
<path d="M27.4464 3.2186
L27.5673 3.1581
" />
<path d="M27.5673 3.1581
L27.8697 3.1581
" />
<path d="M27.8697 3.1581
L27.9906 3.2186
" />
<path d="M27.9906 3.2186
L28.0511 3.2790
" />
<path d="M28.0511 3.2790
L28.1116 3.4000
" />
<path d="M28.1116 3.4000
L28.1116 3.7024
" />
<path d="M28.1116 3.7024
L28.0511 3.8233
" />
<path d="M28.0511 3.8233
L27.9906 3.8838
" />
<path d="M27.9906 3.8838
L27.8697 3.9443
" />
<path d="M27.8697 3.9443
L27.5673 3.9443
" />
<path d="M27.5673 3.9443
L27.4464 3.8838
" />
<path d="M27.4464 3.8838
L27.3859 3.8233
" />
<path d="M29.3211 3.9443
L28.5954 3.9443
" />
<path d="M28.9583 3.9443
L28.9583 2.6743
" />
<path d="M28.9583 2.6743
L28.8373 2.8557
" />
<path d="M28.8373 2.8557
L28.7164 2.9767
" />
<path d="M28.7164 2.9767
L28.5954 3.0371
" />
<path d="M30.4702 2.6743
L29.8654 2.6743
" />
<path d="M29.8654 2.6743
L29.8049 3.2790
" />
<path d="M29.8049 3.2790
L29.8654 3.2186
" />
<path d="M29.8654 3.2186
L29.9864 3.1581
" />
<path d="M29.9864 3.1581
L30.2887 3.1581
" />
<path d="M30.2887 3.1581
L30.4097 3.2186
" />
<path d="M30.4097 3.2186
L30.4702 3.2790
" />
<path d="M30.4702 3.2790
L30.5306 3.4000
" />
<path d="M30.5306 3.4000
L30.5306 3.7024
" />
<path d="M30.5306 3.7024
L30.4702 3.8233
" />
<path d="M30.4702 3.8233
L30.4097 3.8838
" />
<path d="M30.4097 3.8838
L30.2887 3.9443
" />
<path d="M30.2887 3.9443
L29.9864 3.9443
" />
<path d="M29.9864 3.9443
L29.8654 3.8838
" />
<path d="M29.8654 3.8838
L29.8049 3.8233
" />
<path d="M31.3168 2.6743
L31.4378 2.6743
" />
<path d="M31.4378 2.6743
L31.5587 2.7347
" />
<path d="M31.5587 2.7347
L31.6192 2.7952
" />
<path d="M31.6192 2.7952
L31.6797 2.9162
" />
<path d="M31.6797 2.9162
L31.7402 3.1581
" />
<path d="M31.7402 3.1581
L31.7402 3.4605
" />
<path d="M31.7402 3.4605
L31.6797 3.7024
" />
<path d="M31.6797 3.7024
L31.6192 3.8233
" />
<path d="M31.6192 3.8233
L31.5587 3.8838
" />
<path d="M31.5587 3.8838
L31.4378 3.9443
" />
<path d="M31.4378 3.9443
L31.3168 3.9443
" />
<path d="M31.3168 3.9443
L31.1959 3.8838
" />
<path d="M31.1959 3.8838
L31.1354 3.8233
" />
<path d="M31.1354 3.8233
L31.0749 3.7024
" />
<path d="M31.0749 3.7024
L31.0145 3.4605
" />
<path d="M31.0145 3.4605
L31.0145 3.1581
" />
<path d="M31.0145 3.1581
L31.0749 2.9162
" />
<path d="M31.0749 2.9162
L31.1354 2.7952
" />
<path d="M31.1354 2.7952
L31.1959 2.7347
" />
<path d="M31.1959 2.7347
L31.3168 2.6743
" />
<path d="M32.8892 2.6743
L32.2845 2.6743
" />
<path d="M32.2845 2.6743
L32.2240 3.2790
" />
<path d="M32.2240 3.2790
L32.2845 3.2186
" />
<path d="M32.2845 3.2186
L32.4054 3.1581
" />
<path d="M32.4054 3.1581
L32.7078 3.1581
" />
<path d="M32.7078 3.1581
L32.8287 3.2186
" />
<path d="M32.8287 3.2186
L32.8892 3.2790
" />
<path d="M32.8892 3.2790
L32.9497 3.4000
" />
<path d="M32.9497 3.4000
L32.9497 3.7024
" />
<path d="M32.9497 3.7024
L32.8892 3.8233
" />
<path d="M32.8892 3.8233
L32.8287 3.8838
" />
<path d="M32.8287 3.8838
L32.7078 3.9443
" />
<path d="M32.7078 3.9443
L32.4054 3.9443
" />
<path d="M32.4054 3.9443
L32.2845 3.8838
" />
<path d="M32.2845 3.8838
L32.2240 3.8233
" />
<path d="M33.4335 2.7952
L33.4940 2.7347
" />
<path d="M33.4940 2.7347
L33.6149 2.6743
" />
<path d="M33.6149 2.6743
L33.9173 2.6743
" />
<path d="M33.9173 2.6743
L34.0383 2.7347
" />
<path d="M34.0383 2.7347
L34.0987 2.7952
" />
<path d="M34.0987 2.7952
L34.1592 2.9162
" />
<path d="M34.1592 2.9162
L34.1592 3.0371
" />
<path d="M34.1592 3.0371
L34.0987 3.2186
" />
<path d="M34.0987 3.2186
L33.3730 3.9443
" />
<path d="M33.3730 3.9443
L34.1592 3.9443
" />
<path d="M35.3687 3.9443
L34.6430 3.9443
" />
<path d="M35.0059 3.9443
L35.0059 2.6743
" />
<path d="M35.0059 2.6743
L34.8849 2.8557
" />
<path d="M34.8849 2.8557
L34.7640 2.9767
" />
<path d="M34.7640 2.9767
L34.6430 3.0371
" />
<path d="M35.6107 4.0652
L36.5783 4.0652
" />
<path d="M37.6064 3.8233
L37.5459 3.8838
" />
<path d="M37.5459 3.8838
L37.3645 3.9443
" />
<path d="M37.3645 3.9443
L37.2435 3.9443
" />
<path d="M37.2435 3.9443
L37.0621 3.8838
" />
<path d="M37.0621 3.8838
L36.9411 3.7628
" />
<path d="M36.9411 3.7628
L36.8806 3.6419
" />
<path d="M36.8806 3.6419
L36.8202 3.4000
" />
<path d="M36.8202 3.4000
L36.8202 3.2186
" />
<path d="M36.8202 3.2186
L36.8806 2.9767
" />
<path d="M36.8806 2.9767
L36.9411 2.8557
" />
<path d="M36.9411 2.8557
L37.0621 2.7347
" />
<path d="M37.0621 2.7347
L37.2435 2.6743
" />
<path d="M37.2435 2.6743
L37.3645 2.6743
" />
<path d="M37.3645 2.6743
L37.5459 2.7347
" />
<path d="M37.5459 2.7347
L37.6064 2.7952
" />
<path d="M38.1506 3.9443
L38.1506 3.0976
" />
<path d="M38.1506 2.6743
L38.0902 2.7347
" />
<path d="M38.0902 2.7347
L38.1506 2.7952
" />
<path d="M38.1506 2.7952
L38.2111 2.7347
" />
<path d="M38.2111 2.7347
L38.1506 2.6743
" />
<path d="M38.1506 2.6743
L38.1506 2.7952
" />
<path d="M38.7554 3.9443
L38.7554 3.0976
" />
<path d="M38.7554 3.3395
L38.8159 3.2186
" />
<path d="M38.8159 3.2186
L38.8764 3.1581
" />
<path d="M38.8764 3.1581
L38.9973 3.0976
" />
<path d="M38.9973 3.0976
L39.1183 3.0976
" />
<path d="M40.0859 3.8838
L39.9649 3.9443
" />
<path d="M39.9649 3.9443
L39.7230 3.9443
" />
<path d="M39.7230 3.9443
L39.6021 3.8838
" />
<path d="M39.6021 3.8838
L39.5416 3.8233
" />
<path d="M39.5416 3.8233
L39.4811 3.7024
" />
<path d="M39.4811 3.7024
L39.4811 3.3395
" />
<path d="M39.4811 3.3395
L39.5416 3.2186
" />
<path d="M39.5416 3.2186
L39.6021 3.1581
" />
<path d="M39.6021 3.1581
L39.7230 3.0976
" />
<path d="M39.7230 3.0976
L39.9649 3.0976
" />
<path d="M39.9649 3.0976
L40.0859 3.1581
" />
<path d="M41.1745 3.0976
L41.1745 3.9443
" />
<path d="M40.6302 3.0976
L40.6302 3.7628
" />
<path d="M40.6302 3.7628
L40.6906 3.8838
" />
<path d="M40.6906 3.8838
L40.8116 3.9443
" />
<path d="M40.8116 3.9443
L40.9930 3.9443
" />
<path d="M40.9930 3.9443
L41.1140 3.8838
" />
<path d="M41.1140 3.8838
L41.1745 3.8233
" />
<path d="M41.9607 3.9443
L41.8397 3.8838
" />
<path d="M41.8397 3.8838
L41.7792 3.7628
" />
<path d="M41.7792 3.7628
L41.7792 2.6743
" />
<path d="M42.9887 3.9443
L42.9887 3.2790
" />
<path d="M42.9887 3.2790
L42.9283 3.1581
" />
<path d="M42.9283 3.1581
L42.8073 3.0976
" />
<path d="M42.8073 3.0976
L42.5654 3.0976
" />
<path d="M42.5654 3.0976
L42.4445 3.1581
" />
<path d="M42.9887 3.8838
L42.8678 3.9443
" />
<path d="M42.8678 3.9443
L42.5654 3.9443
" />
<path d="M42.5654 3.9443
L42.4445 3.8838
" />
<path d="M42.4445 3.8838
L42.3840 3.7628
" />
<path d="M42.3840 3.7628
L42.3840 3.6419
" />
<path d="M42.3840 3.6419
L42.4445 3.5209
" />
<path d="M42.4445 3.5209
L42.5654 3.4605
" />
<path d="M42.5654 3.4605
L42.8678 3.4605
" />
<path d="M42.8678 3.4605
L42.9887 3.4000
" />
<path d="M43.5935 3.9443
L43.5935 3.0976
" />
<path d="M43.5935 3.3395
L43.6540 3.2186
" />
<path d="M43.6540 3.2186
L43.7145 3.1581
" />
<path d="M43.7145 3.1581
L43.8354 3.0976
" />
<path d="M43.8354 3.0976
L43.9564 3.0976
" />
<path d="M44.3797 3.9443
L44.3797 2.6743
" />
<path d="M44.3797 3.2790
L45.1054 3.2790
" />
<path d="M45.1054 3.9443
L45.1054 2.6743
" />
<path d="M45.8916 3.9443
L45.7706 3.8838
" />
<path d="M45.7706 3.8838
L45.7102 3.8233
" />
<path d="M45.7102 3.8233
L45.6497 3.7024
" />
<path d="M45.6497 3.7024
L45.6497 3.3395
" />
<path d="M45.6497 3.3395
L45.7102 3.2186
" />
<path d="M45.7102 3.2186
L45.7706 3.1581
" />
<path d="M45.7706 3.1581
L45.8916 3.0976
" />
<path d="M45.8916 3.0976
L46.0730 3.0976
" />
<path d="M46.0730 3.0976
L46.1940 3.1581
" />
<path d="M46.1940 3.1581
L46.2545 3.2186
" />
<path d="M46.2545 3.2186
L46.3149 3.3395
" />
<path d="M46.3149 3.3395
L46.3149 3.7024
" />
<path d="M46.3149 3.7024
L46.2545 3.8233
" />
<path d="M46.2545 3.8233
L46.1940 3.8838
" />
<path d="M46.1940 3.8838
L46.0730 3.9443
" />
<path d="M46.0730 3.9443
L45.8916 3.9443
" />
<path d="M47.0406 3.9443
L46.9197 3.8838
" />
<path d="M46.9197 3.8838
L46.8592 3.7628
" />
<path d="M46.8592 3.7628
L46.8592 2.6743
" />
<path d="M48.0083 3.8838
L47.8873 3.9443
" />
<path d="M47.8873 3.9443
L47.6454 3.9443
" />
<path d="M47.6454 3.9443
L47.5245 3.8838
" />
<path d="M47.5245 3.8838
L47.4640 3.7628
" />
<path d="M47.4640 3.7628
L47.4640 3.2790
" />
<path d="M47.4640 3.2790
L47.5245 3.1581
" />
<path d="M47.5245 3.1581
L47.6454 3.0976
" />
<path d="M47.6454 3.0976
L47.8873 3.0976
" />
<path d="M47.8873 3.0976
L48.0083 3.1581
" />
<path d="M48.0083 3.1581
L48.0687 3.2790
" />
<path d="M48.0687 3.2790
L48.0687 3.4000
" />
<path d="M48.0687 3.4000
L47.4640 3.5209
" />
<path d="M48.5526 3.8838
L48.6735 3.9443
" />
<path d="M48.6735 3.9443
L48.9154 3.9443
" />
<path d="M48.9154 3.9443
L49.0364 3.8838
" />
<path d="M49.0364 3.8838
L49.0968 3.7628
" />
<path d="M49.0968 3.7628
L49.0968 3.7024
" />
<path d="M49.0968 3.7024
L49.0364 3.5814
" />
<path d="M49.0364 3.5814
L48.9154 3.5209
" />
<path d="M48.9154 3.5209
L48.7340 3.5209
" />
<path d="M48.7340 3.5209
L48.6130 3.4605
" />
<path d="M48.6130 3.4605
L48.5526 3.3395
" />
<path d="M48.5526 3.3395
L48.5526 3.2790
" />
<path d="M48.5526 3.2790
L48.6130 3.1581
" />
<path d="M48.6130 3.1581
L48.7340 3.0976
" />
<path d="M48.7340 3.0976
L48.9154 3.0976
" />
<path d="M48.9154 3.0976
L49.0364 3.1581
" />
</g></g>
<g style="fill:none; 
stroke:#AFAFAF; stroke-width:0.1500; stroke-opacity:1; 
stroke-linecap:round; stroke-linejoin:round;">
<text x="24.7249" y="4.9150"
textLength="4.5357" font-size="1.3333" lengthAdjust="spacingAndGlyphs"
text-anchor="middle" opacity="0">REF**</text>
<g class="stroked-text"><desc>REF**</desc>
<path d="M23.3916 4.8698
L23.0583 4.3936
" />
<path d="M22.8202 4.8698
L22.8202 3.8698
" />
<path d="M22.8202 3.8698
L23.2011 3.8698
" />
<path d="M23.2011 3.8698
L23.2964 3.9174
" />
<path d="M23.2964 3.9174
L23.3440 3.9651
" />
<path d="M23.3440 3.9651
L23.3916 4.0603
" />
<path d="M23.3916 4.0603
L23.3916 4.2032
" />
<path d="M23.3916 4.2032
L23.3440 4.2984
" />
<path d="M23.3440 4.2984
L23.2964 4.3460
" />
<path d="M23.2964 4.3460
L23.2011 4.3936
" />
<path d="M23.2011 4.3936
L22.8202 4.3936
" />
<path d="M23.8202 4.3460
L24.1535 4.3460
" />
<path d="M24.2964 4.8698
L23.8202 4.8698
" />
<path d="M23.8202 4.8698
L23.8202 3.8698
" />
<path d="M23.8202 3.8698
L24.2964 3.8698
" />
<path d="M25.0583 4.3460
L24.7249 4.3460
" />
<path d="M24.7249 4.8698
L24.7249 3.8698
" />
<path d="M24.7249 3.8698
L25.2011 3.8698
" />
<path d="M25.7249 3.8698
L25.7249 4.1079
" />
<path d="M25.4868 4.0127
L25.7249 4.1079
" />
<path d="M25.7249 4.1079
L25.9630 4.0127
" />
<path d="M25.5821 4.2984
L25.7249 4.1079
" />
<path d="M25.7249 4.1079
L25.8678 4.2984
" />
<path d="M26.4868 3.8698
L26.4868 4.1079
" />
<path d="M26.2487 4.0127
L26.4868 4.1079
" />
<path d="M26.4868 4.1079
L26.7249 4.0127
" />
<path d="M26.3440 4.2984
L26.4868 4.1079
" />
<path d="M26.4868 4.1079
L26.6297 4.2984
" />
</g><path d="M20.7249 1.1150
L20.7249 6.5150
" />
<path d="M20.7249 6.5150
L21.0249 6.5150
" />
<path d="M21.0249 6.5150
L21.0249 7.7150
" />
<path d="M21.0249 7.7150
L28.4249 7.7150
" />
<path d="M22.0249 7.1150
L27.4249 7.1150
" />
<path d="M23.1999 0.4150
L23.6499 0.4150
" />
<path d="M23.1999 0.6400
L23.1999 0.4150
" />
<path d="M23.4249 0.8150
L23.1999 0.6400
" />
<path d="M23.6499 0.4150
L23.6499 0.6400
" />
<path d="M23.6499 0.6400
L23.4249 0.8150
" />
<path d="M28.4249 6.5150
L28.7249 6.5150
" />
<path d="M28.4249 7.7150
L28.4249 6.5150
" />
<path d="M28.7249 1.1150
L20.7249 1.1150
" />
<path d="M28.7249 6.5150
L28.7249 1.1150
" />
</g>
<g style="fill:none; 
stroke:#C2C2C2; stroke-width:0.0800; stroke-opacity:1; 
stroke-linecap:round; stroke-linejoin:round;">
<text x="24.7249" y="7.3650"
textLength="3.8067" font-size="0.6667" lengthAdjust="spacingAndGlyphs"
text-anchor="middle" opacity="0">PCB Edge</text>
<g class="stroked-text"><desc>PCB Edge</desc>
<path d="M23.0106 7.3421
L23.0106 6.8421
" />
<path d="M23.0106 6.8421
L23.2011 6.8421
" />
<path d="M23.2011 6.8421
L23.2487 6.8660
" />
<path d="M23.2487 6.8660
L23.2726 6.8898
" />
<path d="M23.2726 6.8898
L23.2964 6.9374
" />
<path d="M23.2964 6.9374
L23.2964 7.0088
" />
<path d="M23.2964 7.0088
L23.2726 7.0564
" />
<path d="M23.2726 7.0564
L23.2487 7.0802
" />
<path d="M23.2487 7.0802
L23.2011 7.1041
" />
<path d="M23.2011 7.1041
L23.0106 7.1041
" />
<path d="M23.7964 7.2945
L23.7726 7.3183
" />
<path d="M23.7726 7.3183
L23.7011 7.3421
" />
<path d="M23.7011 7.3421
L23.6535 7.3421
" />
<path d="M23.6535 7.3421
L23.5821 7.3183
" />
<path d="M23.5821 7.3183
L23.5345 7.2707
" />
<path d="M23.5345 7.2707
L23.5106 7.2231
" />
<path d="M23.5106 7.2231
L23.4868 7.1279
" />
<path d="M23.4868 7.1279
L23.4868 7.0564
" />
<path d="M23.4868 7.0564
L23.5106 6.9612
" />
<path d="M23.5106 6.9612
L23.5345 6.9136
" />
<path d="M23.5345 6.9136
L23.5821 6.8660
" />
<path d="M23.5821 6.8660
L23.6535 6.8421
" />
<path d="M23.6535 6.8421
L23.7011 6.8421
" />
<path d="M23.7011 6.8421
L23.7726 6.8660
" />
<path d="M23.7726 6.8660
L23.7964 6.8898
" />
<path d="M24.1773 7.0802
L24.2487 7.1041
" />
<path d="M24.2487 7.1041
L24.2726 7.1279
" />
<path d="M24.2726 7.1279
L24.2964 7.1755
" />
<path d="M24.2964 7.1755
L24.2964 7.2469
" />
<path d="M24.2964 7.2469
L24.2726 7.2945
" />
<path d="M24.2726 7.2945
L24.2487 7.3183
" />
<path d="M24.2487 7.3183
L24.2011 7.3421
" />
<path d="M24.2011 7.3421
L24.0106 7.3421
" />
<path d="M24.0106 7.3421
L24.0106 6.8421
" />
<path d="M24.0106 6.8421
L24.1773 6.8421
" />
<path d="M24.1773 6.8421
L24.2249 6.8660
" />
<path d="M24.2249 6.8660
L24.2487 6.8898
" />
<path d="M24.2487 6.8898
L24.2726 6.9374
" />
<path d="M24.2726 6.9374
L24.2726 6.9850
" />
<path d="M24.2726 6.9850
L24.2487 7.0326
" />
<path d="M24.2487 7.0326
L24.2249 7.0564
" />
<path d="M24.2249 7.0564
L24.1773 7.0802
" />
<path d="M24.1773 7.0802
L24.0106 7.0802
" />
<path d="M24.8916 7.0802
L25.0583 7.0802
" />
<path d="M25.1297 7.3421
L24.8916 7.3421
" />
<path d="M24.8916 7.3421
L24.8916 6.8421
" />
<path d="M24.8916 6.8421
L25.1297 6.8421
" />
<path d="M25.5583 7.3421
L25.5583 6.8421
" />
<path d="M25.5583 7.3183
L25.5106 7.3421
" />
<path d="M25.5106 7.3421
L25.4154 7.3421
" />
<path d="M25.4154 7.3421
L25.3678 7.3183
" />
<path d="M25.3678 7.3183
L25.3440 7.2945
" />
<path d="M25.3440 7.2945
L25.3202 7.2469
" />
<path d="M25.3202 7.2469
L25.3202 7.1041
" />
<path d="M25.3202 7.1041
L25.3440 7.0564
" />
<path d="M25.3440 7.0564
L25.3678 7.0326
" />
<path d="M25.3678 7.0326
L25.4154 7.0088
" />
<path d="M25.4154 7.0088
L25.5106 7.0088
" />
<path d="M25.5106 7.0088
L25.5583 7.0326
" />
<path d="M26.0106 7.0088
L26.0106 7.4136
" />
<path d="M26.0106 7.4136
L25.9868 7.4612
" />
<path d="M25.9868 7.4612
L25.9630 7.4850
" />
<path d="M25.9630 7.4850
L25.9154 7.5088
" />
<path d="M25.9154 7.5088
L25.8440 7.5088
" />
<path d="M25.8440 7.5088
L25.7964 7.4850
" />
<path d="M26.0106 7.3183
L25.9630 7.3421
" />
<path d="M25.9630 7.3421
L25.8678 7.3421
" />
<path d="M25.8678 7.3421
L25.8202 7.3183
" />
<path d="M25.8202 7.3183
L25.7964 7.2945
" />
<path d="M25.7964 7.2945
L25.7726 7.2469
" />
<path d="M25.7726 7.2469
L25.7726 7.1041
" />
<path d="M25.7726 7.1041
L25.7964 7.0564
" />
<path d="M25.7964 7.0564
L25.8202 7.0326
" />
<path d="M25.8202 7.0326
L25.8678 7.0088
" />
<path d="M25.8678 7.0088
L25.9630 7.0088
" />
<path d="M25.9630 7.0088
L26.0106 7.0326
" />
<path d="M26.4392 7.3183
L26.3916 7.3421
" />
<path d="M26.3916 7.3421
L26.2964 7.3421
" />
<path d="M26.2964 7.3421
L26.2487 7.3183
" />
<path d="M26.2487 7.3183
L26.2249 7.2707
" />
<path d="M26.2249 7.2707
L26.2249 7.0802
" />
<path d="M26.2249 7.0802
L26.2487 7.0326
" />
<path d="M26.2487 7.0326
L26.2964 7.0088
" />
<path d="M26.2964 7.0088
L26.3916 7.0088
" />
<path d="M26.3916 7.0088
L26.4392 7.0326
" />
<path d="M26.4392 7.0326
L26.4630 7.0802
" />
<path d="M26.4630 7.0802
L26.4630 7.1279
" />
<path d="M26.4630 7.1279
L26.2249 7.1755
" />
</g></g> 
</svg>
