<?xml version="1.0" standalone="no"?>
 <!DOCTYPE svg PUBLIC "-//W3C//DTD SVG 1.1//EN" 
 "http://www.w3.org/Graphics/SVG/1.1/DTD/svg11.dtd"> 
<svg
  xmlns:svg="http://www.w3.org/2000/svg"
  xmlns="http://www.w3.org/2000/svg"
  xmlns:xlink="http://www.w3.org/1999/xlink"
  version="1.1"
  width="8.9154mm" height="2.4638mm" viewBox="0.0000 0.0000 8.9154 2.4638">
<title>SVG Image created as working-brd.svg date 2024/04/22 07:18:12 </title>
  <desc>Image generated by PCBNEW </desc>
<g style="fill:#000000; fill-opacity:1.0000;stroke:#000000; stroke-opacity:1.0000;
stroke-linecap:round; stroke-linejoin:round;"
 transform="translate(0 0) scale(1 1)">
<path style="fill:#C83434; fill-opacity:1.0000; stroke:none;fill-rule:evenodd;"
d="M 3.3654,0.6950
3.3726,0.6586
3.3932,0.6278
3.4241,0.6072
3.4604,0.6000
3.7704,0.6000
3.8068,0.6072
3.8376,0.6278
3.8582,0.6586
3.8654,0.6950
3.8654,0.8850
3.8582,0.9214
3.8376,0.9522
3.8068,0.9728
3.7704,0.9800
3.4604,0.9800
3.4241,0.9728
3.3932,0.9522
3.3726,0.9214
3.3654,0.8850
Z" /> 
<path style="fill:#C83434; fill-opacity:1.0000; stroke:none;fill-rule:evenodd;"
d="M 3.2104,1.2550
3.2161,1.2263
3.2324,1.2020
3.2567,1.1857
3.2854,1.1800
3.7854,1.1800
3.8141,1.1857
3.8384,1.2020
3.8547,1.2263
3.8604,1.2550
3.8604,1.4050
3.8547,1.4337
3.8384,1.4580
3.8141,1.4743
3.7854,1.4800
3.2854,1.4800
3.2567,1.4743
3.2324,1.4580
3.2161,1.4337
3.2104,1.4050
Z" /> 
<path style="fill:#C83434; fill-opacity:1.0000; stroke:none;fill-rule:evenodd;"
d="M 3.3654,1.7750
3.3726,1.7386
3.3932,1.7078
3.4241,1.6872
3.4604,1.6800
3.7704,1.6800
3.8068,1.6872
3.8376,1.7078
3.8582,1.7386
3.8654,1.7750
3.8654,1.9650
3.8582,2.0014
3.8376,2.0322
3.8068,2.0528
3.7704,2.0600
3.4604,2.0600
3.4241,2.0528
3.3932,2.0322
3.3726,2.0014
3.3654,1.9650
Z" /> 
<path style="fill:#C83434; fill-opacity:1.0000; stroke:none;fill-rule:evenodd;"
d="M 5.0654,1.7750
5.0726,1.7386
5.0932,1.7078
5.1241,1.6872
5.1604,1.6800
5.4704,1.6800
5.5068,1.6872
5.5376,1.7078
5.5582,1.7386
5.5654,1.7750
5.5654,1.9650
5.5582,2.0014
5.5376,2.0322
5.5068,2.0528
5.4704,2.0600
5.1604,2.0600
5.1241,2.0528
5.0932,2.0322
5.0726,2.0014
5.0654,1.9650
Z" /> 
<path style="fill:#C83434; fill-opacity:1.0000; stroke:none;fill-rule:evenodd;"
d="M 5.0654,0.6950
5.0726,0.6586
5.0932,0.6278
5.1241,0.6072
5.1604,0.6000
5.4704,0.6000
5.5068,0.6072
5.5376,0.6278
5.5582,0.6586
5.5654,0.6950
5.5654,0.8850
5.5582,0.9214
5.5376,0.9522
5.5068,0.9728
5.4704,0.9800
5.1604,0.9800
5.1241,0.9728
5.0932,0.9522
5.0726,0.9214
5.0654,0.8850
Z" /> 
<path style="fill:#D864FF; fill-opacity:0.4000; stroke:none;fill-rule:evenodd;"
d="M 3.3654,0.6950
3.3726,0.6586
3.3932,0.6278
3.4241,0.6072
3.4604,0.6000
3.7704,0.6000
3.8068,0.6072
3.8376,0.6278
3.8582,0.6586
3.8654,0.6950
3.8654,0.8850
3.8582,0.9214
3.8376,0.9522
3.8068,0.9728
3.7704,0.9800
3.4604,0.9800
3.4241,0.9728
3.3932,0.9522
3.3726,0.9214
3.3654,0.8850
Z" /> 
<path style="fill:#D864FF; fill-opacity:0.4000; stroke:none;fill-rule:evenodd;"
d="M 3.2104,1.2550
3.2161,1.2263
3.2324,1.2020
3.2567,1.1857
3.2854,1.1800
3.7854,1.1800
3.8141,1.1857
3.8384,1.2020
3.8547,1.2263
3.8604,1.2550
3.8604,1.4050
3.8547,1.4337
3.8384,1.4580
3.8141,1.4743
3.7854,1.4800
3.2854,1.4800
3.2567,1.4743
3.2324,1.4580
3.2161,1.4337
3.2104,1.4050
Z" /> 
<path style="fill:#D864FF; fill-opacity:0.4000; stroke:none;fill-rule:evenodd;"
d="M 3.3654,1.7750
3.3726,1.7386
3.3932,1.7078
3.4241,1.6872
3.4604,1.6800
3.7704,1.6800
3.8068,1.6872
3.8376,1.7078
3.8582,1.7386
3.8654,1.7750
3.8654,1.9650
3.8582,2.0014
3.8376,2.0322
3.8068,2.0528
3.7704,2.0600
3.4604,2.0600
3.4241,2.0528
3.3932,2.0322
3.3726,2.0014
3.3654,1.9650
Z" /> 
<path style="fill:#D864FF; fill-opacity:0.4000; stroke:none;fill-rule:evenodd;"
d="M 5.0654,1.7750
5.0726,1.7386
5.0932,1.7078
5.1241,1.6872
5.1604,1.6800
5.4704,1.6800
5.5068,1.6872
5.5376,1.7078
5.5582,1.7386
5.5654,1.7750
5.5654,1.9650
5.5582,2.0014
5.5376,2.0322
5.5068,2.0528
5.4704,2.0600
5.1604,2.0600
5.1241,2.0528
5.0932,2.0322
5.0726,2.0014
5.0654,1.9650
Z" /> 
<path style="fill:#D864FF; fill-opacity:0.4000; stroke:none;fill-rule:evenodd;"
d="M 5.0654,0.6950
5.0726,0.6586
5.0932,0.6278
5.1241,0.6072
5.1604,0.6000
5.4704,0.6000
5.5068,0.6072
5.5376,0.6278
5.5582,0.6586
5.5654,0.6950
5.5654,0.8850
5.5582,0.9214
5.5376,0.9522
5.5068,0.9728
5.4704,0.9800
5.1604,0.9800
5.1241,0.9728
5.0932,0.9522
5.0726,0.9214
5.0654,0.8850
Z" /> 
<path style="fill:#B4A09A; fill-opacity:0.9000; stroke:none;fill-rule:evenodd;"
d="M 3.3654,0.6950
3.3726,0.6586
3.3932,0.6278
3.4241,0.6072
3.4604,0.6000
3.7704,0.6000
3.8068,0.6072
3.8376,0.6278
3.8582,0.6586
3.8654,0.6950
3.8654,0.8850
3.8582,0.9214
3.8376,0.9522
3.8068,0.9728
3.7704,0.9800
3.4604,0.9800
3.4241,0.9728
3.3932,0.9522
3.3726,0.9214
3.3654,0.8850
Z" /> 
<path style="fill:#B4A09A; fill-opacity:0.9000; stroke:none;fill-rule:evenodd;"
d="M 3.2104,1.2550
3.2161,1.2263
3.2324,1.2020
3.2567,1.1857
3.2854,1.1800
3.7854,1.1800
3.8141,1.1857
3.8384,1.2020
3.8547,1.2263
3.8604,1.2550
3.8604,1.4050
3.8547,1.4337
3.8384,1.4580
3.8141,1.4743
3.7854,1.4800
3.2854,1.4800
3.2567,1.4743
3.2324,1.4580
3.2161,1.4337
3.2104,1.4050
Z" /> 
<path style="fill:#B4A09A; fill-opacity:0.9000; stroke:none;fill-rule:evenodd;"
d="M 3.3654,1.7750
3.3726,1.7386
3.3932,1.7078
3.4241,1.6872
3.4604,1.6800
3.7704,1.6800
3.8068,1.6872
3.8376,1.7078
3.8582,1.7386
3.8654,1.7750
3.8654,1.9650
3.8582,2.0014
3.8376,2.0322
3.8068,2.0528
3.7704,2.0600
3.4604,2.0600
3.4241,2.0528
3.3932,2.0322
3.3726,2.0014
3.3654,1.9650
Z" /> 
<path style="fill:#B4A09A; fill-opacity:0.9000; stroke:none;fill-rule:evenodd;"
d="M 5.0654,1.7750
5.0726,1.7386
5.0932,1.7078
5.1241,1.6872
5.1604,1.6800
5.4704,1.6800
5.5068,1.6872
5.5376,1.7078
5.5582,1.7386
5.5654,1.7750
5.5654,1.9650
5.5582,2.0014
5.5376,2.0322
5.5068,2.0528
5.4704,2.0600
5.1604,2.0600
5.1241,2.0528
5.0932,2.0322
5.0726,2.0014
5.0654,1.9650
Z" /> 
<path style="fill:#B4A09A; fill-opacity:0.9000; stroke:none;fill-rule:evenodd;"
d="M 5.0654,0.6950
5.0726,0.6586
5.0932,0.6278
5.1241,0.6072
5.1604,0.6000
5.4704,0.6000
5.5068,0.6072
5.5376,0.6278
5.5582,0.6586
5.5654,0.6950
5.5654,0.8850
5.5582,0.9214
5.5376,0.9522
5.5068,0.9728
5.4704,0.9800
5.1604,0.9800
5.1241,0.9728
5.0932,0.9522
5.0726,0.9214
5.0654,0.8850
Z" /> 
</g>
<g style="fill:none; 
stroke:#F2EDA1; stroke-width:0.1588; stroke-opacity:1; 
stroke-linecap:round; stroke-linejoin:round;">
<text x="4.4654" y="1.9650"
textLength="5.6651" font-size="1.6933" lengthAdjust="spacingAndGlyphs"
text-anchor="middle" opacity="0">REF**</text>
<g class="stroked-text"><desc>REF**</desc>
<path d="M2.7721 1.9093
L2.3487 1.3045
" />
<path d="M2.0464 1.9093
L2.0464 0.6393
" />
<path d="M2.0464 0.6393
L2.5302 0.6393
" />
<path d="M2.5302 0.6393
L2.6511 0.6997
" />
<path d="M2.6511 0.6997
L2.7116 0.7602
" />
<path d="M2.7116 0.7602
L2.7721 0.8812
" />
<path d="M2.7721 0.8812
L2.7721 1.0626
" />
<path d="M2.7721 1.0626
L2.7116 1.1836
" />
<path d="M2.7116 1.1836
L2.6511 1.2440
" />
<path d="M2.6511 1.2440
L2.5302 1.3045
" />
<path d="M2.5302 1.3045
L2.0464 1.3045
" />
<path d="M3.3164 1.2440
L3.7397 1.2440
" />
<path d="M3.9211 1.9093
L3.3164 1.9093
" />
<path d="M3.3164 1.9093
L3.3164 0.6393
" />
<path d="M3.3164 0.6393
L3.9211 0.6393
" />
<path d="M4.8887 1.2440
L4.4654 1.2440
" />
<path d="M4.4654 1.9093
L4.4654 0.6393
" />
<path d="M4.4654 0.6393
L5.0702 0.6393
" />
<path d="M5.7354 0.6393
L5.7354 0.9417
" />
<path d="M5.4330 0.8207
L5.7354 0.9417
" />
<path d="M5.7354 0.9417
L6.0378 0.8207
" />
<path d="M5.5540 1.1836
L5.7354 0.9417
" />
<path d="M5.7354 0.9417
L5.9168 1.1836
" />
<path d="M6.7030 0.6393
L6.7030 0.9417
" />
<path d="M6.4006 0.8207
L6.7030 0.9417
" />
<path d="M6.7030 0.9417
L7.0054 0.8207
" />
<path d="M6.5216 1.1836
L6.7030 0.9417
" />
<path d="M6.7030 0.9417
L6.8845 1.1836
" />
</g></g>
<g style="fill:none; 
stroke:#F2EDA1; stroke-width:0.1200; stroke-opacity:1; 
stroke-linecap:round; stroke-linejoin:round;">
<path d="M3.8154 2.3200
L5.1154 2.3200
" />
<path d="M5.1154 0.3400
L4.0654 0.3400
" />
<path style="fill:#F2EDA1; fill-opacity:1.0000; 
stroke:#F2EDA1; stroke-width:0.1200; stroke-opacity:1; 
stroke-linecap:round; stroke-linejoin:round;fill-rule:evenodd;"
d="M 3.6954,0.3400
3.4154,0.3400
3.6954,0.0600
Z" /> 
</g>
<g style="fill:none; 
stroke:#FF26E2; stroke-width:0.0500; stroke-opacity:1; 
stroke-linecap:round; stroke-linejoin:round;">
<path d="M2.9654 0.2300
L2.9654 2.4300
" />
<path d="M2.9654 0.2300
L5.8654 0.2300
" />
<path d="M2.9654 2.4300
L5.8654 2.4300
" />
<path d="M5.8654 2.4300
L5.8654 0.2300
" />
</g>
<g style="fill:none; 
stroke:#AFAFAF; stroke-width:0.1588; stroke-opacity:1; 
stroke-linecap:round; stroke-linejoin:round;">
<text x="4.4654" y="1.9650"
textLength="8.9308" font-size="1.6933" lengthAdjust="spacingAndGlyphs"
text-anchor="middle" opacity="0">SOT-665</text>
<g class="stroked-text"><desc>SOT-665</desc>
<path d="M0.3530 1.8488
L0.5345 1.9093
" />
<path d="M0.5345 1.9093
L0.8368 1.9093
" />
<path d="M0.8368 1.9093
L0.9578 1.8488
" />
<path d="M0.9578 1.8488
L1.0183 1.7883
" />
<path d="M1.0183 1.7883
L1.0787 1.6674
" />
<path d="M1.0787 1.6674
L1.0787 1.5464
" />
<path d="M1.0787 1.5464
L1.0183 1.4255
" />
<path d="M1.0183 1.4255
L0.9578 1.3650
" />
<path d="M0.9578 1.3650
L0.8368 1.3045
" />
<path d="M0.8368 1.3045
L0.5949 1.2440
" />
<path d="M0.5949 1.2440
L0.4740 1.1836
" />
<path d="M0.4740 1.1836
L0.4135 1.1231
" />
<path d="M0.4135 1.1231
L0.3530 1.0021
" />
<path d="M0.3530 1.0021
L0.3530 0.8812
" />
<path d="M0.3530 0.8812
L0.4135 0.7602
" />
<path d="M0.4135 0.7602
L0.4740 0.6997
" />
<path d="M0.4740 0.6997
L0.5949 0.6393
" />
<path d="M0.5949 0.6393
L0.8973 0.6393
" />
<path d="M0.8973 0.6393
L1.0787 0.6997
" />
<path d="M1.8649 0.6393
L2.1068 0.6393
" />
<path d="M2.1068 0.6393
L2.2278 0.6997
" />
<path d="M2.2278 0.6997
L2.3487 0.8207
" />
<path d="M2.3487 0.8207
L2.4092 1.0626
" />
<path d="M2.4092 1.0626
L2.4092 1.4859
" />
<path d="M2.4092 1.4859
L2.3487 1.7278
" />
<path d="M2.3487 1.7278
L2.2278 1.8488
" />
<path d="M2.2278 1.8488
L2.1068 1.9093
" />
<path d="M2.1068 1.9093
L1.8649 1.9093
" />
<path d="M1.8649 1.9093
L1.7440 1.8488
" />
<path d="M1.7440 1.8488
L1.6230 1.7278
" />
<path d="M1.6230 1.7278
L1.5626 1.4859
" />
<path d="M1.5626 1.4859
L1.5626 1.0626
" />
<path d="M1.5626 1.0626
L1.6230 0.8207
" />
<path d="M1.6230 0.8207
L1.7440 0.6997
" />
<path d="M1.7440 0.6997
L1.8649 0.6393
" />
<path d="M2.7721 0.6393
L3.4978 0.6393
" />
<path d="M3.1349 1.9093
L3.1349 0.6393
" />
<path d="M3.9211 1.4255
L4.8887 1.4255
" />
<path d="M6.0378 0.6393
L5.7959 0.6393
" />
<path d="M5.7959 0.6393
L5.6749 0.6997
" />
<path d="M5.6749 0.6997
L5.6145 0.7602
" />
<path d="M5.6145 0.7602
L5.4935 0.9417
" />
<path d="M5.4935 0.9417
L5.4330 1.1836
" />
<path d="M5.4330 1.1836
L5.4330 1.6674
" />
<path d="M5.4330 1.6674
L5.4935 1.7883
" />
<path d="M5.4935 1.7883
L5.5540 1.8488
" />
<path d="M5.5540 1.8488
L5.6749 1.9093
" />
<path d="M5.6749 1.9093
L5.9168 1.9093
" />
<path d="M5.9168 1.9093
L6.0378 1.8488
" />
<path d="M6.0378 1.8488
L6.0983 1.7883
" />
<path d="M6.0983 1.7883
L6.1587 1.6674
" />
<path d="M6.1587 1.6674
L6.1587 1.3650
" />
<path d="M6.1587 1.3650
L6.0983 1.2440
" />
<path d="M6.0983 1.2440
L6.0378 1.1836
" />
<path d="M6.0378 1.1836
L5.9168 1.1231
" />
<path d="M5.9168 1.1231
L5.6749 1.1231
" />
<path d="M5.6749 1.1231
L5.5540 1.1836
" />
<path d="M5.5540 1.1836
L5.4935 1.2440
" />
<path d="M5.4935 1.2440
L5.4330 1.3650
" />
<path d="M7.2473 0.6393
L7.0054 0.6393
" />
<path d="M7.0054 0.6393
L6.8845 0.6997
" />
<path d="M6.8845 0.6997
L6.8240 0.7602
" />
<path d="M6.8240 0.7602
L6.7030 0.9417
" />
<path d="M6.7030 0.9417
L6.6426 1.1836
" />
<path d="M6.6426 1.1836
L6.6426 1.6674
" />
<path d="M6.6426 1.6674
L6.7030 1.7883
" />
<path d="M6.7030 1.7883
L6.7635 1.8488
" />
<path d="M6.7635 1.8488
L6.8845 1.9093
" />
<path d="M6.8845 1.9093
L7.1264 1.9093
" />
<path d="M7.1264 1.9093
L7.2473 1.8488
" />
<path d="M7.2473 1.8488
L7.3078 1.7883
" />
<path d="M7.3078 1.7883
L7.3683 1.6674
" />
<path d="M7.3683 1.6674
L7.3683 1.3650
" />
<path d="M7.3683 1.3650
L7.3078 1.2440
" />
<path d="M7.3078 1.2440
L7.2473 1.1836
" />
<path d="M7.2473 1.1836
L7.1264 1.1231
" />
<path d="M7.1264 1.1231
L6.8845 1.1231
" />
<path d="M6.8845 1.1231
L6.7635 1.1836
" />
<path d="M6.7635 1.1836
L6.7030 1.2440
" />
<path d="M6.7030 1.2440
L6.6426 1.3650
" />
<path d="M8.5173 0.6393
L7.9126 0.6393
" />
<path d="M7.9126 0.6393
L7.8521 1.2440
" />
<path d="M7.8521 1.2440
L7.9126 1.1836
" />
<path d="M7.9126 1.1836
L8.0335 1.1231
" />
<path d="M8.0335 1.1231
L8.3359 1.1231
" />
<path d="M8.3359 1.1231
L8.4568 1.1836
" />
<path d="M8.4568 1.1836
L8.5173 1.2440
" />
<path d="M8.5173 1.2440
L8.5778 1.3650
" />
<path d="M8.5778 1.3650
L8.5778 1.6674
" />
<path d="M8.5778 1.6674
L8.5173 1.7883
" />
<path d="M8.5173 1.7883
L8.4568 1.8488
" />
<path d="M8.4568 1.8488
L8.3359 1.9093
" />
<path d="M8.3359 1.9093
L8.0335 1.9093
" />
<path d="M8.0335 1.9093
L7.9126 1.8488
" />
<path d="M7.9126 1.8488
L7.8521 1.7883
" />
</g></g>
<g style="fill:none; 
stroke:#AFAFAF; stroke-width:0.0750; stroke-opacity:1; 
stroke-linecap:round; stroke-linejoin:round;">
<g transform="rotate(-90.000000 4.4654 1.3300)">
<text x="4.4654" y="1.5800"
textLength="2.2679" font-size="0.6667" lengthAdjust="spacingAndGlyphs"
text-anchor="middle" opacity="0">REF**</text>
</g>
<g class="stroked-text"><desc>REF**</desc>
<path d="M4.6928 1.9967
L4.4547 2.1633
" />
<path d="M4.6928 2.2824
L4.1928 2.2824
" />
<path d="M4.1928 2.2824
L4.1928 2.0919
" />
<path d="M4.1928 2.0919
L4.2166 2.0443
" />
<path d="M4.2166 2.0443
L4.2404 2.0205
" />
<path d="M4.2404 2.0205
L4.2881 1.9967
" />
<path d="M4.2881 1.9967
L4.3595 1.9967
" />
<path d="M4.3595 1.9967
L4.4071 2.0205
" />
<path d="M4.4071 2.0205
L4.4309 2.0443
" />
<path d="M4.4309 2.0443
L4.4547 2.0919
" />
<path d="M4.4547 2.0919
L4.4547 2.2824
" />
<path d="M4.4309 1.7824
L4.4309 1.6157
" />
<path d="M4.6928 1.5443
L4.6928 1.7824
" />
<path d="M4.6928 1.7824
L4.1928 1.7824
" />
<path d="M4.1928 1.7824
L4.1928 1.5443
" />
<path d="M4.4309 1.1633
L4.4309 1.3300
" />
<path d="M4.6928 1.3300
L4.1928 1.3300
" />
<path d="M4.1928 1.3300
L4.1928 1.0919
" />
<path d="M4.1928 0.8300
L4.3119 0.8300
" />
<path d="M4.2642 0.9490
L4.3119 0.8300
" />
<path d="M4.3119 0.8300
L4.2642 0.7110
" />
<path d="M4.4071 0.9014
L4.3119 0.8300
" />
<path d="M4.3119 0.8300
L4.4071 0.7586
" />
<path d="M4.1928 0.4490
L4.3119 0.4490
" />
<path d="M4.2642 0.5681
L4.3119 0.4490
" />
<path d="M4.3119 0.4490
L4.2642 0.3300
" />
<path d="M4.4071 0.5205
L4.3119 0.4490
" />
<path d="M4.3119 0.4490
L4.4071 0.3776
" />
</g></g>
<g style="fill:none; 
stroke:#AFAFAF; stroke-width:0.1000; stroke-opacity:1; 
stroke-linecap:round; stroke-linejoin:round;">
<path d="M3.8154 0.8000
L4.1354 0.4800
" />
<path d="M3.8154 0.8200
L3.8154 2.1800
" />
<path d="M5.1154 0.4800
L4.1354 0.4800
" />
<path d="M5.1154 0.4800
L5.1154 2.1800
" />
<path d="M5.1154 2.1800
L3.8154 2.1800
" />
</g> 
</svg>
