<?xml version="1.0" standalone="no"?>
 <!DOCTYPE svg PUBLIC "-//W3C//DTD SVG 1.1//EN" 
 "http://www.w3.org/Graphics/SVG/1.1/DTD/svg11.dtd"> 
<svg
  xmlns:svg="http://www.w3.org/2000/svg"
  xmlns="http://www.w3.org/2000/svg"
  xmlns:xlink="http://www.w3.org/1999/xlink"
  version="1.1"
  width="58.2168mm" height="4.2926mm" viewBox="0.0000 0.0000 58.2168 4.2926">
<title>SVG Image created as working-brd.svg date 2024/04/20 23:02:54 </title>
  <desc>Image generated by PCBNEW </desc>
<g style="fill:#000000; fill-opacity:1.0000;stroke:#000000; stroke-opacity:1.0000;
stroke-linecap:round; stroke-linejoin:round;"
 transform="translate(0 0) scale(1 1)">
</g>
<g style="fill:#4D7FC4; fill-opacity:1.0000; stroke:none;">
<circle cx="28.5345" cy="1.5800" r="0.2500" /> 
</g>
<g style="fill:#4D7FC4; fill-opacity:1.0000; stroke:none;">
<circle cx="28.5345" cy="2.7300" r="0.2500" /> 
<path style="fill:#4D7FC4; fill-opacity:1.0000; stroke:none;fill-rule:evenodd;"
d="M 28.2845,2.9800
28.2845,1.3300
29.9345,1.3300
29.9345,2.9800
Z" /> 
</g>
<g style="fill:#4D7FC4; fill-opacity:1.0000; stroke:none;">
<circle cx="29.6845" cy="1.5800" r="0.2500" /> 
</g>
<g style="fill:#4D7FC4; fill-opacity:1.0000; stroke:none;">
<circle cx="29.6845" cy="2.7300" r="0.2500" /> 
</g>
<g style="fill:#FFFFFF; fill-opacity:1.0000; stroke:none;">
<circle cx="28.5345" cy="1.5800" r="0.1000" /> 
</g>
<g style="fill:#FFFFFF; fill-opacity:1.0000; stroke:none;">
<circle cx="28.5345" cy="2.7300" r="0.1000" /> 
</g>
<g style="fill:#FFFFFF; fill-opacity:1.0000; stroke:none;">
<circle cx="29.6845" cy="1.5800" r="0.1000" /> 
</g>
<g style="fill:#FFFFFF; fill-opacity:1.0000; stroke:none;">
<circle cx="29.6845" cy="2.7300" r="0.1000" /> 
</g>
<g style="fill:#FFFFFF; fill-opacity:1.0000; stroke:none;">
<circle cx="28.5345" cy="1.5800" r="0.1000" /> 
</g>
<g style="fill:#FFFFFF; fill-opacity:1.0000; stroke:none;">
<circle cx="28.5345" cy="2.7300" r="0.1000" /> 
</g>
<g style="fill:#FFFFFF; fill-opacity:1.0000; stroke:none;">
<circle cx="29.6845" cy="1.5800" r="0.1000" /> 
</g>
<g style="fill:#FFFFFF; fill-opacity:1.0000; stroke:none;">
<circle cx="29.6845" cy="2.7300" r="0.1000" /> 
<path style="fill:#C83434; fill-opacity:1.0000; stroke:none;fill-rule:evenodd;"
d="M 27.2345,1.3050
27.2383,1.2859
27.2491,1.2696
27.2653,1.2588
27.2845,1.2550
28.0345,1.2550
28.0536,1.2588
28.0698,1.2696
28.0807,1.2859
28.0845,1.3050
28.0845,1.4050
28.0807,1.4241
28.0698,1.4404
28.0536,1.4512
28.0345,1.4550
27.2845,1.4550
27.2653,1.4512
27.2491,1.4404
27.2383,1.4241
27.2345,1.4050
Z" /> 
<path style="fill:#C83434; fill-opacity:1.0000; stroke:none;fill-rule:evenodd;"
d="M 27.2345,1.7050
27.2383,1.6859
27.2491,1.6696
27.2653,1.6588
27.2845,1.6550
28.0345,1.6550
28.0536,1.6588
28.0698,1.6696
28.0807,1.6859
28.0845,1.7050
28.0845,1.8050
28.0807,1.8241
28.0698,1.8404
28.0536,1.8512
28.0345,1.8550
27.2845,1.8550
27.2653,1.8512
27.2491,1.8404
27.2383,1.8241
27.2345,1.8050
Z" /> 
<path style="fill:#C83434; fill-opacity:1.0000; stroke:none;fill-rule:evenodd;"
d="M 27.2345,2.1050
27.2383,2.0859
27.2491,2.0696
27.2653,2.0588
27.2845,2.0550
28.0345,2.0550
28.0536,2.0588
28.0698,2.0696
28.0807,2.0859
28.0845,2.1050
28.0845,2.2050
28.0807,2.2241
28.0698,2.2404
28.0536,2.2512
28.0345,2.2550
27.2845,2.2550
27.2653,2.2512
27.2491,2.2404
27.2383,2.2241
27.2345,2.2050
Z" /> 
<path style="fill:#C83434; fill-opacity:1.0000; stroke:none;fill-rule:evenodd;"
d="M 27.2345,2.5050
27.2383,2.4859
27.2491,2.4696
27.2653,2.4588
27.2845,2.4550
28.0345,2.4550
28.0536,2.4588
28.0698,2.4696
28.0807,2.4859
28.0845,2.5050
28.0845,2.6050
28.0807,2.6241
28.0698,2.6404
28.0536,2.6512
28.0345,2.6550
27.2845,2.6550
27.2653,2.6512
27.2491,2.6404
27.2383,2.6241
27.2345,2.6050
Z" /> 
<path style="fill:#C83434; fill-opacity:1.0000; stroke:none;fill-rule:evenodd;"
d="M 27.2345,2.9050
27.2383,2.8859
27.2491,2.8696
27.2653,2.8588
27.2845,2.8550
28.0345,2.8550
28.0536,2.8588
28.0698,2.8696
28.0807,2.8859
28.0845,2.9050
28.0845,3.0050
28.0807,3.0241
28.0698,3.0404
28.0536,3.0512
28.0345,3.0550
27.2845,3.0550
27.2653,3.0512
27.2491,3.0404
27.2383,3.0241
27.2345,3.0050
Z" /> 
<path style="fill:#C83434; fill-opacity:1.0000; stroke:none;fill-rule:evenodd;"
d="M 28.2095,3.2300
28.2133,3.2109
28.2241,3.1946
28.2403,3.1838
28.2595,3.1800
28.3595,3.1800
28.3786,3.1838
28.3948,3.1946
28.4057,3.2109
28.4095,3.2300
28.4095,3.9800
28.4057,3.9991
28.3948,4.0154
28.3786,4.0262
28.3595,4.0300
28.2595,4.0300
28.2403,4.0262
28.2241,4.0154
28.2133,3.9991
28.2095,3.9800
Z" /> 
<path style="fill:#C83434; fill-opacity:1.0000; stroke:none;fill-rule:evenodd;"
d="M 28.6095,3.2300
28.6133,3.2109
28.6241,3.1946
28.6403,3.1838
28.6595,3.1800
28.7595,3.1800
28.7786,3.1838
28.7948,3.1946
28.8057,3.2109
28.8095,3.2300
28.8095,3.9800
28.8057,3.9991
28.7948,4.0154
28.7786,4.0262
28.7595,4.0300
28.6595,4.0300
28.6403,4.0262
28.6241,4.0154
28.6133,3.9991
28.6095,3.9800
Z" /> 
<path style="fill:#C83434; fill-opacity:1.0000; stroke:none;fill-rule:evenodd;"
d="M 29.0095,3.2300
29.0133,3.2109
29.0241,3.1946
29.0403,3.1838
29.0595,3.1800
29.1595,3.1800
29.1786,3.1838
29.1948,3.1946
29.2057,3.2109
29.2095,3.2300
29.2095,3.9800
29.2057,3.9991
29.1948,4.0154
29.1786,4.0262
29.1595,4.0300
29.0595,4.0300
29.0403,4.0262
29.0241,4.0154
29.0133,3.9991
29.0095,3.9800
Z" /> 
<path style="fill:#C83434; fill-opacity:1.0000; stroke:none;fill-rule:evenodd;"
d="M 29.4095,3.2300
29.4133,3.2109
29.4241,3.1946
29.4403,3.1838
29.4595,3.1800
29.5595,3.1800
29.5786,3.1838
29.5948,3.1946
29.6057,3.2109
29.6095,3.2300
29.6095,3.9800
29.6057,3.9991
29.5948,4.0154
29.5786,4.0262
29.5595,4.0300
29.4595,4.0300
29.4403,4.0262
29.4241,4.0154
29.4133,3.9991
29.4095,3.9800
Z" /> 
<path style="fill:#C83434; fill-opacity:1.0000; stroke:none;fill-rule:evenodd;"
d="M 29.8095,3.2300
29.8133,3.2109
29.8241,3.1946
29.8403,3.1838
29.8595,3.1800
29.9595,3.1800
29.9786,3.1838
29.9948,3.1946
30.0057,3.2109
30.0095,3.2300
30.0095,3.9800
30.0057,3.9991
29.9948,4.0154
29.9786,4.0262
29.9595,4.0300
29.8595,4.0300
29.8403,4.0262
29.8241,4.0154
29.8133,3.9991
29.8095,3.9800
Z" /> 
<path style="fill:#C83434; fill-opacity:1.0000; stroke:none;fill-rule:evenodd;"
d="M 30.1345,2.9050
30.1383,2.8859
30.1491,2.8696
30.1653,2.8588
30.1845,2.8550
30.9345,2.8550
30.9536,2.8588
30.9698,2.8696
30.9807,2.8859
30.9845,2.9050
30.9845,3.0050
30.9807,3.0241
30.9698,3.0404
30.9536,3.0512
30.9345,3.0550
30.1845,3.0550
30.1653,3.0512
30.1491,3.0404
30.1383,3.0241
30.1345,3.0050
Z" /> 
<path style="fill:#C83434; fill-opacity:1.0000; stroke:none;fill-rule:evenodd;"
d="M 30.1345,2.5050
30.1383,2.4859
30.1491,2.4696
30.1653,2.4588
30.1845,2.4550
30.9345,2.4550
30.9536,2.4588
30.9698,2.4696
30.9807,2.4859
30.9845,2.5050
30.9845,2.6050
30.9807,2.6241
30.9698,2.6404
30.9536,2.6512
30.9345,2.6550
30.1845,2.6550
30.1653,2.6512
30.1491,2.6404
30.1383,2.6241
30.1345,2.6050
Z" /> 
<path style="fill:#C83434; fill-opacity:1.0000; stroke:none;fill-rule:evenodd;"
d="M 30.1345,2.1050
30.1383,2.0859
30.1491,2.0696
30.1653,2.0588
30.1845,2.0550
30.9345,2.0550
30.9536,2.0588
30.9698,2.0696
30.9807,2.0859
30.9845,2.1050
30.9845,2.2050
30.9807,2.2241
30.9698,2.2404
30.9536,2.2512
30.9345,2.2550
30.1845,2.2550
30.1653,2.2512
30.1491,2.2404
30.1383,2.2241
30.1345,2.2050
Z" /> 
<path style="fill:#C83434; fill-opacity:1.0000; stroke:none;fill-rule:evenodd;"
d="M 30.1345,1.7050
30.1383,1.6859
30.1491,1.6696
30.1653,1.6588
30.1845,1.6550
30.9345,1.6550
30.9536,1.6588
30.9698,1.6696
30.9807,1.6859
30.9845,1.7050
30.9845,1.8050
30.9807,1.8241
30.9698,1.8404
30.9536,1.8512
30.9345,1.8550
30.1845,1.8550
30.1653,1.8512
30.1491,1.8404
30.1383,1.8241
30.1345,1.8050
Z" /> 
<path style="fill:#C83434; fill-opacity:1.0000; stroke:none;fill-rule:evenodd;"
d="M 30.1345,1.3050
30.1383,1.2859
30.1491,1.2696
30.1653,1.2588
30.1845,1.2550
30.9345,1.2550
30.9536,1.2588
30.9698,1.2696
30.9807,1.2859
30.9845,1.3050
30.9845,1.4050
30.9807,1.4241
30.9698,1.4404
30.9536,1.4512
30.9345,1.4550
30.1845,1.4550
30.1653,1.4512
30.1491,1.4404
30.1383,1.4241
30.1345,1.4050
Z" /> 
<path style="fill:#C83434; fill-opacity:1.0000; stroke:none;fill-rule:evenodd;"
d="M 29.8095,0.3300
29.8133,0.3109
29.8241,0.2946
29.8403,0.2838
29.8595,0.2800
29.9595,0.2800
29.9786,0.2838
29.9948,0.2946
30.0057,0.3109
30.0095,0.3300
30.0095,1.0800
30.0057,1.0991
29.9948,1.1154
29.9786,1.1262
29.9595,1.1300
29.8595,1.1300
29.8403,1.1262
29.8241,1.1154
29.8133,1.0991
29.8095,1.0800
Z" /> 
<path style="fill:#C83434; fill-opacity:1.0000; stroke:none;fill-rule:evenodd;"
d="M 29.4095,0.3300
29.4133,0.3109
29.4241,0.2946
29.4403,0.2838
29.4595,0.2800
29.5595,0.2800
29.5786,0.2838
29.5948,0.2946
29.6057,0.3109
29.6095,0.3300
29.6095,1.0800
29.6057,1.0991
29.5948,1.1154
29.5786,1.1262
29.5595,1.1300
29.4595,1.1300
29.4403,1.1262
29.4241,1.1154
29.4133,1.0991
29.4095,1.0800
Z" /> 
<path style="fill:#C83434; fill-opacity:1.0000; stroke:none;fill-rule:evenodd;"
d="M 29.0095,0.3300
29.0133,0.3109
29.0241,0.2946
29.0403,0.2838
29.0595,0.2800
29.1595,0.2800
29.1786,0.2838
29.1948,0.2946
29.2057,0.3109
29.2095,0.3300
29.2095,1.0800
29.2057,1.0991
29.1948,1.1154
29.1786,1.1262
29.1595,1.1300
29.0595,1.1300
29.0403,1.1262
29.0241,1.1154
29.0133,1.0991
29.0095,1.0800
Z" /> 
<path style="fill:#C83434; fill-opacity:1.0000; stroke:none;fill-rule:evenodd;"
d="M 28.6095,0.3300
28.6133,0.3109
28.6241,0.2946
28.6403,0.2838
28.6595,0.2800
28.7595,0.2800
28.7786,0.2838
28.7948,0.2946
28.8057,0.3109
28.8095,0.3300
28.8095,1.0800
28.8057,1.0991
28.7948,1.1154
28.7786,1.1262
28.7595,1.1300
28.6595,1.1300
28.6403,1.1262
28.6241,1.1154
28.6133,1.0991
28.6095,1.0800
Z" /> 
<path style="fill:#C83434; fill-opacity:1.0000; stroke:none;fill-rule:evenodd;"
d="M 28.2095,0.3300
28.2133,0.3109
28.2241,0.2946
28.2403,0.2838
28.2595,0.2800
28.3595,0.2800
28.3786,0.2838
28.3948,0.2946
28.4057,0.3109
28.4095,0.3300
28.4095,1.0800
28.4057,1.0991
28.3948,1.1154
28.3786,1.1262
28.3595,1.1300
28.2595,1.1300
28.2403,1.1262
28.2241,1.1154
28.2133,1.0991
28.2095,1.0800
Z" /> 
</g>
<g style="fill:#C83434; fill-opacity:1.0000; stroke:none;">
<circle cx="28.5345" cy="1.5800" r="0.2500" /> 
</g>
<g style="fill:#C83434; fill-opacity:1.0000; stroke:none;">
<circle cx="28.5345" cy="2.7300" r="0.2500" /> 
<path style="fill:#C83434; fill-opacity:1.0000; stroke:none;fill-rule:evenodd;"
d="M 28.2845,2.9800
28.2845,1.3300
29.9345,1.3300
29.9345,2.9800
Z" /> 
</g>
<g style="fill:#C83434; fill-opacity:1.0000; stroke:none;">
<circle cx="29.6845" cy="1.5800" r="0.2500" /> 
</g>
<g style="fill:#C83434; fill-opacity:1.0000; stroke:none;">
<circle cx="29.6845" cy="2.7300" r="0.2500" /> 
</g>
<g style="fill:#FFFFFF; fill-opacity:1.0000; stroke:none;">
<circle cx="28.5345" cy="1.5800" r="0.1000" /> 
</g>
<g style="fill:#FFFFFF; fill-opacity:1.0000; stroke:none;">
<circle cx="28.5345" cy="2.7300" r="0.1000" /> 
</g>
<g style="fill:#FFFFFF; fill-opacity:1.0000; stroke:none;">
<circle cx="29.6845" cy="1.5800" r="0.1000" /> 
</g>
<g style="fill:#FFFFFF; fill-opacity:1.0000; stroke:none;">
<circle cx="29.6845" cy="2.7300" r="0.1000" /> 
<path style="fill:#D864FF; fill-opacity:0.4000; stroke:none;fill-rule:evenodd;"
d="M 27.2345,1.3050
27.2383,1.2859
27.2491,1.2696
27.2653,1.2588
27.2845,1.2550
28.0345,1.2550
28.0536,1.2588
28.0698,1.2696
28.0807,1.2859
28.0845,1.3050
28.0845,1.4050
28.0807,1.4241
28.0698,1.4404
28.0536,1.4512
28.0345,1.4550
27.2845,1.4550
27.2653,1.4512
27.2491,1.4404
27.2383,1.4241
27.2345,1.4050
Z" /> 
<path style="fill:#D864FF; fill-opacity:0.4000; stroke:none;fill-rule:evenodd;"
d="M 27.2345,1.7050
27.2383,1.6859
27.2491,1.6696
27.2653,1.6588
27.2845,1.6550
28.0345,1.6550
28.0536,1.6588
28.0698,1.6696
28.0807,1.6859
28.0845,1.7050
28.0845,1.8050
28.0807,1.8241
28.0698,1.8404
28.0536,1.8512
28.0345,1.8550
27.2845,1.8550
27.2653,1.8512
27.2491,1.8404
27.2383,1.8241
27.2345,1.8050
Z" /> 
<path style="fill:#D864FF; fill-opacity:0.4000; stroke:none;fill-rule:evenodd;"
d="M 27.2345,2.1050
27.2383,2.0859
27.2491,2.0696
27.2653,2.0588
27.2845,2.0550
28.0345,2.0550
28.0536,2.0588
28.0698,2.0696
28.0807,2.0859
28.0845,2.1050
28.0845,2.2050
28.0807,2.2241
28.0698,2.2404
28.0536,2.2512
28.0345,2.2550
27.2845,2.2550
27.2653,2.2512
27.2491,2.2404
27.2383,2.2241
27.2345,2.2050
Z" /> 
<path style="fill:#D864FF; fill-opacity:0.4000; stroke:none;fill-rule:evenodd;"
d="M 27.2345,2.5050
27.2383,2.4859
27.2491,2.4696
27.2653,2.4588
27.2845,2.4550
28.0345,2.4550
28.0536,2.4588
28.0698,2.4696
28.0807,2.4859
28.0845,2.5050
28.0845,2.6050
28.0807,2.6241
28.0698,2.6404
28.0536,2.6512
28.0345,2.6550
27.2845,2.6550
27.2653,2.6512
27.2491,2.6404
27.2383,2.6241
27.2345,2.6050
Z" /> 
<path style="fill:#D864FF; fill-opacity:0.4000; stroke:none;fill-rule:evenodd;"
d="M 27.2345,2.9050
27.2383,2.8859
27.2491,2.8696
27.2653,2.8588
27.2845,2.8550
28.0345,2.8550
28.0536,2.8588
28.0698,2.8696
28.0807,2.8859
28.0845,2.9050
28.0845,3.0050
28.0807,3.0241
28.0698,3.0404
28.0536,3.0512
28.0345,3.0550
27.2845,3.0550
27.2653,3.0512
27.2491,3.0404
27.2383,3.0241
27.2345,3.0050
Z" /> 
<path style="fill:#D864FF; fill-opacity:0.4000; stroke:none;fill-rule:evenodd;"
d="M 28.2095,3.2300
28.2133,3.2109
28.2241,3.1946
28.2403,3.1838
28.2595,3.1800
28.3595,3.1800
28.3786,3.1838
28.3948,3.1946
28.4057,3.2109
28.4095,3.2300
28.4095,3.9800
28.4057,3.9991
28.3948,4.0154
28.3786,4.0262
28.3595,4.0300
28.2595,4.0300
28.2403,4.0262
28.2241,4.0154
28.2133,3.9991
28.2095,3.9800
Z" /> 
<path style="fill:#D864FF; fill-opacity:0.4000; stroke:none;fill-rule:evenodd;"
d="M 28.6095,3.2300
28.6133,3.2109
28.6241,3.1946
28.6403,3.1838
28.6595,3.1800
28.7595,3.1800
28.7786,3.1838
28.7948,3.1946
28.8057,3.2109
28.8095,3.2300
28.8095,3.9800
28.8057,3.9991
28.7948,4.0154
28.7786,4.0262
28.7595,4.0300
28.6595,4.0300
28.6403,4.0262
28.6241,4.0154
28.6133,3.9991
28.6095,3.9800
Z" /> 
<path style="fill:#D864FF; fill-opacity:0.4000; stroke:none;fill-rule:evenodd;"
d="M 29.0095,3.2300
29.0133,3.2109
29.0241,3.1946
29.0403,3.1838
29.0595,3.1800
29.1595,3.1800
29.1786,3.1838
29.1948,3.1946
29.2057,3.2109
29.2095,3.2300
29.2095,3.9800
29.2057,3.9991
29.1948,4.0154
29.1786,4.0262
29.1595,4.0300
29.0595,4.0300
29.0403,4.0262
29.0241,4.0154
29.0133,3.9991
29.0095,3.9800
Z" /> 
<path style="fill:#D864FF; fill-opacity:0.4000; stroke:none;fill-rule:evenodd;"
d="M 29.4095,3.2300
29.4133,3.2109
29.4241,3.1946
29.4403,3.1838
29.4595,3.1800
29.5595,3.1800
29.5786,3.1838
29.5948,3.1946
29.6057,3.2109
29.6095,3.2300
29.6095,3.9800
29.6057,3.9991
29.5948,4.0154
29.5786,4.0262
29.5595,4.0300
29.4595,4.0300
29.4403,4.0262
29.4241,4.0154
29.4133,3.9991
29.4095,3.9800
Z" /> 
<path style="fill:#D864FF; fill-opacity:0.4000; stroke:none;fill-rule:evenodd;"
d="M 29.8095,3.2300
29.8133,3.2109
29.8241,3.1946
29.8403,3.1838
29.8595,3.1800
29.9595,3.1800
29.9786,3.1838
29.9948,3.1946
30.0057,3.2109
30.0095,3.2300
30.0095,3.9800
30.0057,3.9991
29.9948,4.0154
29.9786,4.0262
29.9595,4.0300
29.8595,4.0300
29.8403,4.0262
29.8241,4.0154
29.8133,3.9991
29.8095,3.9800
Z" /> 
<path style="fill:#D864FF; fill-opacity:0.4000; stroke:none;fill-rule:evenodd;"
d="M 30.1345,2.9050
30.1383,2.8859
30.1491,2.8696
30.1653,2.8588
30.1845,2.8550
30.9345,2.8550
30.9536,2.8588
30.9698,2.8696
30.9807,2.8859
30.9845,2.9050
30.9845,3.0050
30.9807,3.0241
30.9698,3.0404
30.9536,3.0512
30.9345,3.0550
30.1845,3.0550
30.1653,3.0512
30.1491,3.0404
30.1383,3.0241
30.1345,3.0050
Z" /> 
<path style="fill:#D864FF; fill-opacity:0.4000; stroke:none;fill-rule:evenodd;"
d="M 30.1345,2.5050
30.1383,2.4859
30.1491,2.4696
30.1653,2.4588
30.1845,2.4550
30.9345,2.4550
30.9536,2.4588
30.9698,2.4696
30.9807,2.4859
30.9845,2.5050
30.9845,2.6050
30.9807,2.6241
30.9698,2.6404
30.9536,2.6512
30.9345,2.6550
30.1845,2.6550
30.1653,2.6512
30.1491,2.6404
30.1383,2.6241
30.1345,2.6050
Z" /> 
<path style="fill:#D864FF; fill-opacity:0.4000; stroke:none;fill-rule:evenodd;"
d="M 30.1345,2.1050
30.1383,2.0859
30.1491,2.0696
30.1653,2.0588
30.1845,2.0550
30.9345,2.0550
30.9536,2.0588
30.9698,2.0696
30.9807,2.0859
30.9845,2.1050
30.9845,2.2050
30.9807,2.2241
30.9698,2.2404
30.9536,2.2512
30.9345,2.2550
30.1845,2.2550
30.1653,2.2512
30.1491,2.2404
30.1383,2.2241
30.1345,2.2050
Z" /> 
<path style="fill:#D864FF; fill-opacity:0.4000; stroke:none;fill-rule:evenodd;"
d="M 30.1345,1.7050
30.1383,1.6859
30.1491,1.6696
30.1653,1.6588
30.1845,1.6550
30.9345,1.6550
30.9536,1.6588
30.9698,1.6696
30.9807,1.6859
30.9845,1.7050
30.9845,1.8050
30.9807,1.8241
30.9698,1.8404
30.9536,1.8512
30.9345,1.8550
30.1845,1.8550
30.1653,1.8512
30.1491,1.8404
30.1383,1.8241
30.1345,1.8050
Z" /> 
<path style="fill:#D864FF; fill-opacity:0.4000; stroke:none;fill-rule:evenodd;"
d="M 30.1345,1.3050
30.1383,1.2859
30.1491,1.2696
30.1653,1.2588
30.1845,1.2550
30.9345,1.2550
30.9536,1.2588
30.9698,1.2696
30.9807,1.2859
30.9845,1.3050
30.9845,1.4050
30.9807,1.4241
30.9698,1.4404
30.9536,1.4512
30.9345,1.4550
30.1845,1.4550
30.1653,1.4512
30.1491,1.4404
30.1383,1.4241
30.1345,1.4050
Z" /> 
<path style="fill:#D864FF; fill-opacity:0.4000; stroke:none;fill-rule:evenodd;"
d="M 29.8095,0.3300
29.8133,0.3109
29.8241,0.2946
29.8403,0.2838
29.8595,0.2800
29.9595,0.2800
29.9786,0.2838
29.9948,0.2946
30.0057,0.3109
30.0095,0.3300
30.0095,1.0800
30.0057,1.0991
29.9948,1.1154
29.9786,1.1262
29.9595,1.1300
29.8595,1.1300
29.8403,1.1262
29.8241,1.1154
29.8133,1.0991
29.8095,1.0800
Z" /> 
<path style="fill:#D864FF; fill-opacity:0.4000; stroke:none;fill-rule:evenodd;"
d="M 29.4095,0.3300
29.4133,0.3109
29.4241,0.2946
29.4403,0.2838
29.4595,0.2800
29.5595,0.2800
29.5786,0.2838
29.5948,0.2946
29.6057,0.3109
29.6095,0.3300
29.6095,1.0800
29.6057,1.0991
29.5948,1.1154
29.5786,1.1262
29.5595,1.1300
29.4595,1.1300
29.4403,1.1262
29.4241,1.1154
29.4133,1.0991
29.4095,1.0800
Z" /> 
<path style="fill:#D864FF; fill-opacity:0.4000; stroke:none;fill-rule:evenodd;"
d="M 29.0095,0.3300
29.0133,0.3109
29.0241,0.2946
29.0403,0.2838
29.0595,0.2800
29.1595,0.2800
29.1786,0.2838
29.1948,0.2946
29.2057,0.3109
29.2095,0.3300
29.2095,1.0800
29.2057,1.0991
29.1948,1.1154
29.1786,1.1262
29.1595,1.1300
29.0595,1.1300
29.0403,1.1262
29.0241,1.1154
29.0133,1.0991
29.0095,1.0800
Z" /> 
<path style="fill:#D864FF; fill-opacity:0.4000; stroke:none;fill-rule:evenodd;"
d="M 28.6095,0.3300
28.6133,0.3109
28.6241,0.2946
28.6403,0.2838
28.6595,0.2800
28.7595,0.2800
28.7786,0.2838
28.7948,0.2946
28.8057,0.3109
28.8095,0.3300
28.8095,1.0800
28.8057,1.0991
28.7948,1.1154
28.7786,1.1262
28.7595,1.1300
28.6595,1.1300
28.6403,1.1262
28.6241,1.1154
28.6133,1.0991
28.6095,1.0800
Z" /> 
<path style="fill:#D864FF; fill-opacity:0.4000; stroke:none;fill-rule:evenodd;"
d="M 28.2095,0.3300
28.2133,0.3109
28.2241,0.2946
28.2403,0.2838
28.2595,0.2800
28.3595,0.2800
28.3786,0.2838
28.3948,0.2946
28.4057,0.3109
28.4095,0.3300
28.4095,1.0800
28.4057,1.0991
28.3948,1.1154
28.3786,1.1262
28.3595,1.1300
28.2595,1.1300
28.2403,1.1262
28.2241,1.1154
28.2133,1.0991
28.2095,1.0800
Z" /> 
<path style="fill:#D864FF; fill-opacity:0.4000; stroke:none;fill-rule:evenodd;"
d="M 28.2845,2.9800
28.2845,1.3300
29.9345,1.3300
29.9345,2.9800
Z" /> 
<path style="fill:#B4A09A; fill-opacity:0.9000; stroke:none;fill-rule:evenodd;"
d="M 28.3545,1.5725
28.3676,1.5065
28.4050,1.4505
28.4609,1.4131
28.5270,1.4000
28.8720,1.4000
28.9380,1.4131
28.9939,1.4505
29.0313,1.5065
29.0445,1.5725
29.0445,1.9175
29.0313,1.9835
28.9939,2.0395
28.9380,2.0769
28.8720,2.0900
28.5270,2.0900
28.4609,2.0769
28.4050,2.0395
28.3676,1.9835
28.3545,1.9175
Z" /> 
<path style="fill:#B4A09A; fill-opacity:0.9000; stroke:none;fill-rule:evenodd;"
d="M 28.3545,2.3925
28.3676,2.3265
28.4050,2.2705
28.4609,2.2331
28.5270,2.2200
28.8720,2.2200
28.9380,2.2331
28.9939,2.2705
29.0313,2.3265
29.0445,2.3925
29.0445,2.7375
29.0313,2.8035
28.9939,2.8595
28.9380,2.8969
28.8720,2.9100
28.5270,2.9100
28.4609,2.8969
28.4050,2.8595
28.3676,2.8035
28.3545,2.7375
Z" /> 
<path style="fill:#B4A09A; fill-opacity:0.9000; stroke:none;fill-rule:evenodd;"
d="M 29.1745,1.5725
29.1876,1.5065
29.2250,1.4505
29.2809,1.4131
29.3470,1.4000
29.6920,1.4000
29.7580,1.4131
29.8139,1.4505
29.8513,1.5065
29.8645,1.5725
29.8645,1.9175
29.8513,1.9835
29.8139,2.0395
29.7580,2.0769
29.6920,2.0900
29.3470,2.0900
29.2809,2.0769
29.2250,2.0395
29.1876,1.9835
29.1745,1.9175
Z" /> 
<path style="fill:#B4A09A; fill-opacity:0.9000; stroke:none;fill-rule:evenodd;"
d="M 29.1745,2.3925
29.1876,2.3265
29.2250,2.2705
29.2809,2.2331
29.3470,2.2200
29.6920,2.2200
29.7580,2.2331
29.8139,2.2705
29.8513,2.3265
29.8645,2.3925
29.8645,2.7375
29.8513,2.8035
29.8139,2.8595
29.7580,2.8969
29.6920,2.9100
29.3470,2.9100
29.2809,2.8969
29.2250,2.8595
29.1876,2.8035
29.1745,2.7375
Z" /> 
<path style="fill:#B4A09A; fill-opacity:0.9000; stroke:none;fill-rule:evenodd;"
d="M 27.2345,1.3050
27.2383,1.2859
27.2491,1.2696
27.2653,1.2588
27.2845,1.2550
28.0345,1.2550
28.0536,1.2588
28.0698,1.2696
28.0807,1.2859
28.0845,1.3050
28.0845,1.4050
28.0807,1.4241
28.0698,1.4404
28.0536,1.4512
28.0345,1.4550
27.2845,1.4550
27.2653,1.4512
27.2491,1.4404
27.2383,1.4241
27.2345,1.4050
Z" /> 
<path style="fill:#B4A09A; fill-opacity:0.9000; stroke:none;fill-rule:evenodd;"
d="M 27.2345,1.7050
27.2383,1.6859
27.2491,1.6696
27.2653,1.6588
27.2845,1.6550
28.0345,1.6550
28.0536,1.6588
28.0698,1.6696
28.0807,1.6859
28.0845,1.7050
28.0845,1.8050
28.0807,1.8241
28.0698,1.8404
28.0536,1.8512
28.0345,1.8550
27.2845,1.8550
27.2653,1.8512
27.2491,1.8404
27.2383,1.8241
27.2345,1.8050
Z" /> 
<path style="fill:#B4A09A; fill-opacity:0.9000; stroke:none;fill-rule:evenodd;"
d="M 27.2345,2.1050
27.2383,2.0859
27.2491,2.0696
27.2653,2.0588
27.2845,2.0550
28.0345,2.0550
28.0536,2.0588
28.0698,2.0696
28.0807,2.0859
28.0845,2.1050
28.0845,2.2050
28.0807,2.2241
28.0698,2.2404
28.0536,2.2512
28.0345,2.2550
27.2845,2.2550
27.2653,2.2512
27.2491,2.2404
27.2383,2.2241
27.2345,2.2050
Z" /> 
<path style="fill:#B4A09A; fill-opacity:0.9000; stroke:none;fill-rule:evenodd;"
d="M 27.2345,2.5050
27.2383,2.4859
27.2491,2.4696
27.2653,2.4588
27.2845,2.4550
28.0345,2.4550
28.0536,2.4588
28.0698,2.4696
28.0807,2.4859
28.0845,2.5050
28.0845,2.6050
28.0807,2.6241
28.0698,2.6404
28.0536,2.6512
28.0345,2.6550
27.2845,2.6550
27.2653,2.6512
27.2491,2.6404
27.2383,2.6241
27.2345,2.6050
Z" /> 
<path style="fill:#B4A09A; fill-opacity:0.9000; stroke:none;fill-rule:evenodd;"
d="M 27.2345,2.9050
27.2383,2.8859
27.2491,2.8696
27.2653,2.8588
27.2845,2.8550
28.0345,2.8550
28.0536,2.8588
28.0698,2.8696
28.0807,2.8859
28.0845,2.9050
28.0845,3.0050
28.0807,3.0241
28.0698,3.0404
28.0536,3.0512
28.0345,3.0550
27.2845,3.0550
27.2653,3.0512
27.2491,3.0404
27.2383,3.0241
27.2345,3.0050
Z" /> 
<path style="fill:#B4A09A; fill-opacity:0.9000; stroke:none;fill-rule:evenodd;"
d="M 28.2095,3.2300
28.2133,3.2109
28.2241,3.1946
28.2403,3.1838
28.2595,3.1800
28.3595,3.1800
28.3786,3.1838
28.3948,3.1946
28.4057,3.2109
28.4095,3.2300
28.4095,3.9800
28.4057,3.9991
28.3948,4.0154
28.3786,4.0262
28.3595,4.0300
28.2595,4.0300
28.2403,4.0262
28.2241,4.0154
28.2133,3.9991
28.2095,3.9800
Z" /> 
<path style="fill:#B4A09A; fill-opacity:0.9000; stroke:none;fill-rule:evenodd;"
d="M 28.6095,3.2300
28.6133,3.2109
28.6241,3.1946
28.6403,3.1838
28.6595,3.1800
28.7595,3.1800
28.7786,3.1838
28.7948,3.1946
28.8057,3.2109
28.8095,3.2300
28.8095,3.9800
28.8057,3.9991
28.7948,4.0154
28.7786,4.0262
28.7595,4.0300
28.6595,4.0300
28.6403,4.0262
28.6241,4.0154
28.6133,3.9991
28.6095,3.9800
Z" /> 
<path style="fill:#B4A09A; fill-opacity:0.9000; stroke:none;fill-rule:evenodd;"
d="M 29.0095,3.2300
29.0133,3.2109
29.0241,3.1946
29.0403,3.1838
29.0595,3.1800
29.1595,3.1800
29.1786,3.1838
29.1948,3.1946
29.2057,3.2109
29.2095,3.2300
29.2095,3.9800
29.2057,3.9991
29.1948,4.0154
29.1786,4.0262
29.1595,4.0300
29.0595,4.0300
29.0403,4.0262
29.0241,4.0154
29.0133,3.9991
29.0095,3.9800
Z" /> 
<path style="fill:#B4A09A; fill-opacity:0.9000; stroke:none;fill-rule:evenodd;"
d="M 29.4095,3.2300
29.4133,3.2109
29.4241,3.1946
29.4403,3.1838
29.4595,3.1800
29.5595,3.1800
29.5786,3.1838
29.5948,3.1946
29.6057,3.2109
29.6095,3.2300
29.6095,3.9800
29.6057,3.9991
29.5948,4.0154
29.5786,4.0262
29.5595,4.0300
29.4595,4.0300
29.4403,4.0262
29.4241,4.0154
29.4133,3.9991
29.4095,3.9800
Z" /> 
<path style="fill:#B4A09A; fill-opacity:0.9000; stroke:none;fill-rule:evenodd;"
d="M 29.8095,3.2300
29.8133,3.2109
29.8241,3.1946
29.8403,3.1838
29.8595,3.1800
29.9595,3.1800
29.9786,3.1838
29.9948,3.1946
30.0057,3.2109
30.0095,3.2300
30.0095,3.9800
30.0057,3.9991
29.9948,4.0154
29.9786,4.0262
29.9595,4.0300
29.8595,4.0300
29.8403,4.0262
29.8241,4.0154
29.8133,3.9991
29.8095,3.9800
Z" /> 
<path style="fill:#B4A09A; fill-opacity:0.9000; stroke:none;fill-rule:evenodd;"
d="M 30.1345,2.9050
30.1383,2.8859
30.1491,2.8696
30.1653,2.8588
30.1845,2.8550
30.9345,2.8550
30.9536,2.8588
30.9698,2.8696
30.9807,2.8859
30.9845,2.9050
30.9845,3.0050
30.9807,3.0241
30.9698,3.0404
30.9536,3.0512
30.9345,3.0550
30.1845,3.0550
30.1653,3.0512
30.1491,3.0404
30.1383,3.0241
30.1345,3.0050
Z" /> 
<path style="fill:#B4A09A; fill-opacity:0.9000; stroke:none;fill-rule:evenodd;"
d="M 30.1345,2.5050
30.1383,2.4859
30.1491,2.4696
30.1653,2.4588
30.1845,2.4550
30.9345,2.4550
30.9536,2.4588
30.9698,2.4696
30.9807,2.4859
30.9845,2.5050
30.9845,2.6050
30.9807,2.6241
30.9698,2.6404
30.9536,2.6512
30.9345,2.6550
30.1845,2.6550
30.1653,2.6512
30.1491,2.6404
30.1383,2.6241
30.1345,2.6050
Z" /> 
<path style="fill:#B4A09A; fill-opacity:0.9000; stroke:none;fill-rule:evenodd;"
d="M 30.1345,2.1050
30.1383,2.0859
30.1491,2.0696
30.1653,2.0588
30.1845,2.0550
30.9345,2.0550
30.9536,2.0588
30.9698,2.0696
30.9807,2.0859
30.9845,2.1050
30.9845,2.2050
30.9807,2.2241
30.9698,2.2404
30.9536,2.2512
30.9345,2.2550
30.1845,2.2550
30.1653,2.2512
30.1491,2.2404
30.1383,2.2241
30.1345,2.2050
Z" /> 
<path style="fill:#B4A09A; fill-opacity:0.9000; stroke:none;fill-rule:evenodd;"
d="M 30.1345,1.7050
30.1383,1.6859
30.1491,1.6696
30.1653,1.6588
30.1845,1.6550
30.9345,1.6550
30.9536,1.6588
30.9698,1.6696
30.9807,1.6859
30.9845,1.7050
30.9845,1.8050
30.9807,1.8241
30.9698,1.8404
30.9536,1.8512
30.9345,1.8550
30.1845,1.8550
30.1653,1.8512
30.1491,1.8404
30.1383,1.8241
30.1345,1.8050
Z" /> 
<path style="fill:#B4A09A; fill-opacity:0.9000; stroke:none;fill-rule:evenodd;"
d="M 30.1345,1.3050
30.1383,1.2859
30.1491,1.2696
30.1653,1.2588
30.1845,1.2550
30.9345,1.2550
30.9536,1.2588
30.9698,1.2696
30.9807,1.2859
30.9845,1.3050
30.9845,1.4050
30.9807,1.4241
30.9698,1.4404
30.9536,1.4512
30.9345,1.4550
30.1845,1.4550
30.1653,1.4512
30.1491,1.4404
30.1383,1.4241
30.1345,1.4050
Z" /> 
<path style="fill:#B4A09A; fill-opacity:0.9000; stroke:none;fill-rule:evenodd;"
d="M 29.8095,0.3300
29.8133,0.3109
29.8241,0.2946
29.8403,0.2838
29.8595,0.2800
29.9595,0.2800
29.9786,0.2838
29.9948,0.2946
30.0057,0.3109
30.0095,0.3300
30.0095,1.0800
30.0057,1.0991
29.9948,1.1154
29.9786,1.1262
29.9595,1.1300
29.8595,1.1300
29.8403,1.1262
29.8241,1.1154
29.8133,1.0991
29.8095,1.0800
Z" /> 
<path style="fill:#B4A09A; fill-opacity:0.9000; stroke:none;fill-rule:evenodd;"
d="M 29.4095,0.3300
29.4133,0.3109
29.4241,0.2946
29.4403,0.2838
29.4595,0.2800
29.5595,0.2800
29.5786,0.2838
29.5948,0.2946
29.6057,0.3109
29.6095,0.3300
29.6095,1.0800
29.6057,1.0991
29.5948,1.1154
29.5786,1.1262
29.5595,1.1300
29.4595,1.1300
29.4403,1.1262
29.4241,1.1154
29.4133,1.0991
29.4095,1.0800
Z" /> 
<path style="fill:#B4A09A; fill-opacity:0.9000; stroke:none;fill-rule:evenodd;"
d="M 29.0095,0.3300
29.0133,0.3109
29.0241,0.2946
29.0403,0.2838
29.0595,0.2800
29.1595,0.2800
29.1786,0.2838
29.1948,0.2946
29.2057,0.3109
29.2095,0.3300
29.2095,1.0800
29.2057,1.0991
29.1948,1.1154
29.1786,1.1262
29.1595,1.1300
29.0595,1.1300
29.0403,1.1262
29.0241,1.1154
29.0133,1.0991
29.0095,1.0800
Z" /> 
<path style="fill:#B4A09A; fill-opacity:0.9000; stroke:none;fill-rule:evenodd;"
d="M 28.6095,0.3300
28.6133,0.3109
28.6241,0.2946
28.6403,0.2838
28.6595,0.2800
28.7595,0.2800
28.7786,0.2838
28.7948,0.2946
28.8057,0.3109
28.8095,0.3300
28.8095,1.0800
28.8057,1.0991
28.7948,1.1154
28.7786,1.1262
28.7595,1.1300
28.6595,1.1300
28.6403,1.1262
28.6241,1.1154
28.6133,1.0991
28.6095,1.0800
Z" /> 
<path style="fill:#B4A09A; fill-opacity:0.9000; stroke:none;fill-rule:evenodd;"
d="M 28.2095,0.3300
28.2133,0.3109
28.2241,0.2946
28.2403,0.2838
28.2595,0.2800
28.3595,0.2800
28.3786,0.2838
28.3948,0.2946
28.4057,0.3109
28.4095,0.3300
28.4095,1.0800
28.4057,1.0991
28.3948,1.1154
28.3786,1.1262
28.3595,1.1300
28.2595,1.1300
28.2403,1.1262
28.2241,1.1154
28.2133,1.0991
28.2095,1.0800
Z" /> 
</g>
<g style="fill:none; 
stroke:#F2EDA1; stroke-width:0.1588; stroke-opacity:1; 
stroke-linecap:round; stroke-linejoin:round;">
<text x="29.1095" y="2.7900"
textLength="5.6651" font-size="1.6933" lengthAdjust="spacingAndGlyphs"
text-anchor="middle" opacity="0">REF**</text>
<g class="stroked-text"><desc>REF**</desc>
<path d="M27.4161 2.7343
L26.9928 2.1295
" />
<path d="M26.6904 2.7343
L26.6904 1.4643
" />
<path d="M26.6904 1.4643
L27.1742 1.4643
" />
<path d="M27.1742 1.4643
L27.2952 1.5247
" />
<path d="M27.2952 1.5247
L27.3556 1.5852
" />
<path d="M27.3556 1.5852
L27.4161 1.7062
" />
<path d="M27.4161 1.7062
L27.4161 1.8876
" />
<path d="M27.4161 1.8876
L27.3556 2.0086
" />
<path d="M27.3556 2.0086
L27.2952 2.0690
" />
<path d="M27.2952 2.0690
L27.1742 2.1295
" />
<path d="M27.1742 2.1295
L26.6904 2.1295
" />
<path d="M27.9604 2.0690
L28.3837 2.0690
" />
<path d="M28.5652 2.7343
L27.9604 2.7343
" />
<path d="M27.9604 2.7343
L27.9604 1.4643
" />
<path d="M27.9604 1.4643
L28.5652 1.4643
" />
<path d="M29.5328 2.0690
L29.1095 2.0690
" />
<path d="M29.1095 2.7343
L29.1095 1.4643
" />
<path d="M29.1095 1.4643
L29.7142 1.4643
" />
<path d="M30.3795 1.4643
L30.3795 1.7667
" />
<path d="M30.0771 1.6457
L30.3795 1.7667
" />
<path d="M30.3795 1.7667
L30.6818 1.6457
" />
<path d="M30.1980 2.0086
L30.3795 1.7667
" />
<path d="M30.3795 1.7667
L30.5609 2.0086
" />
<path d="M31.3471 1.4643
L31.3471 1.7667
" />
<path d="M31.0447 1.6457
L31.3471 1.7667
" />
<path d="M31.3471 1.7667
L31.6495 1.6457
" />
<path d="M31.1656 2.0086
L31.3471 1.7667
" />
<path d="M31.3471 1.7667
L31.5285 2.0086
" />
</g></g>
<g style="fill:none; 
stroke:#F2EDA1; stroke-width:0.1200; stroke-opacity:1; 
stroke-linecap:round; stroke-linejoin:round;">
<path d="M27.4995 0.9950
L27.4995 0.7850
" />
<path d="M27.4995 3.7650
L27.4995 3.3150
" />
<path d="M27.9495 0.5450
L27.7995 0.5450
" />
<path d="M27.9495 3.7650
L27.4995 3.7650
" />
<path d="M30.2695 0.5450
L30.7195 0.5450
" />
<path d="M30.2695 3.7650
L30.7195 3.7650
" />
<path d="M30.7195 0.5450
L30.7195 0.9950
" />
<path d="M30.7195 3.7650
L30.7195 3.3150
" />
<path style="fill:#F2EDA1; fill-opacity:1.0000; 
stroke:#F2EDA1; stroke-width:0.1200; stroke-opacity:1; 
stroke-linecap:round; stroke-linejoin:round;fill-rule:evenodd;"
d="M 27.4995,0.5450
27.2595,0.2150
27.7395,0.2150
Z" /> 
</g>
<g style="fill:#FFFFFF; fill-opacity:1.0000; stroke:none;">
<circle cx="28.5345" cy="1.5800" r="0.1000" /> 
</g>
<g style="fill:#FFFFFF; fill-opacity:1.0000; stroke:none;">
<circle cx="28.5345" cy="2.7300" r="0.1000" /> 
</g>
<g style="fill:#FFFFFF; fill-opacity:1.0000; stroke:none;">
<circle cx="29.6845" cy="1.5800" r="0.1000" /> 
</g>
<g style="fill:#FFFFFF; fill-opacity:1.0000; stroke:none;">
<circle cx="29.6845" cy="2.7300" r="0.1000" /> 
</g>
<g style="fill:none; 
stroke:#FF26E2; stroke-width:0.0500; stroke-opacity:1; 
stroke-linecap:round; stroke-linejoin:round;">
<path d="M26.9795 0.0250
L26.9795 4.2850
" />
<path d="M26.9795 4.2850
L31.2395 4.2850
" />
<path d="M31.2395 0.0250
L26.9795 0.0250
" />
<path d="M31.2395 4.2850
L31.2395 0.0250
" />
</g>
<g style="fill:none; 
stroke:#AFAFAF; stroke-width:0.1588; stroke-opacity:1; 
stroke-linecap:round; stroke-linejoin:round;">
<text x="29.1095" y="2.7900"
textLength="58.2189" font-size="1.6933" lengthAdjust="spacingAndGlyphs"
text-anchor="middle" opacity="0">QFN-20-1EP_3x3mm_P0.4mm_EP1.65x1.65mm_ThermalVias</text>
<g class="stroked-text"><desc>QFN-20-1EP_3x3mm_P0.4mm_EP1.65x1.65mm_ThermalVias</desc>
<path d="M1.2602 2.8552
L1.1392 2.7947
" />
<path d="M1.1392 2.7947
L1.0183 2.6738
" />
<path d="M1.0183 2.6738
L0.8368 2.4924
" />
<path d="M0.8368 2.4924
L0.7159 2.4319
" />
<path d="M0.7159 2.4319
L0.5949 2.4319
" />
<path d="M0.6554 2.7343
L0.5345 2.6738
" />
<path d="M0.5345 2.6738
L0.4135 2.5528
" />
<path d="M0.4135 2.5528
L0.3530 2.3109
" />
<path d="M0.3530 2.3109
L0.3530 1.8876
" />
<path d="M0.3530 1.8876
L0.4135 1.6457
" />
<path d="M0.4135 1.6457
L0.5345 1.5247
" />
<path d="M0.5345 1.5247
L0.6554 1.4643
" />
<path d="M0.6554 1.4643
L0.8973 1.4643
" />
<path d="M0.8973 1.4643
L1.0183 1.5247
" />
<path d="M1.0183 1.5247
L1.1392 1.6457
" />
<path d="M1.1392 1.6457
L1.1997 1.8876
" />
<path d="M1.1997 1.8876
L1.1997 2.3109
" />
<path d="M1.1997 2.3109
L1.1392 2.5528
" />
<path d="M1.1392 2.5528
L1.0183 2.6738
" />
<path d="M1.0183 2.6738
L0.8973 2.7343
" />
<path d="M0.8973 2.7343
L0.6554 2.7343
" />
<path d="M2.1673 2.0690
L1.7440 2.0690
" />
<path d="M1.7440 2.7343
L1.7440 1.4643
" />
<path d="M1.7440 1.4643
L2.3487 1.4643
" />
<path d="M2.8326 2.7343
L2.8326 1.4643
" />
<path d="M2.8326 1.4643
L3.5583 2.7343
" />
<path d="M3.5583 2.7343
L3.5583 1.4643
" />
<path d="M4.1630 2.2505
L5.1306 2.2505
" />
<path d="M5.6749 1.5852
L5.7354 1.5247
" />
<path d="M5.7354 1.5247
L5.8564 1.4643
" />
<path d="M5.8564 1.4643
L6.1587 1.4643
" />
<path d="M6.1587 1.4643
L6.2797 1.5247
" />
<path d="M6.2797 1.5247
L6.3402 1.5852
" />
<path d="M6.3402 1.5852
L6.4006 1.7062
" />
<path d="M6.4006 1.7062
L6.4006 1.8271
" />
<path d="M6.4006 1.8271
L6.3402 2.0086
" />
<path d="M6.3402 2.0086
L5.6145 2.7343
" />
<path d="M5.6145 2.7343
L6.4006 2.7343
" />
<path d="M7.1868 1.4643
L7.3078 1.4643
" />
<path d="M7.3078 1.4643
L7.4287 1.5247
" />
<path d="M7.4287 1.5247
L7.4892 1.5852
" />
<path d="M7.4892 1.5852
L7.5497 1.7062
" />
<path d="M7.5497 1.7062
L7.6102 1.9481
" />
<path d="M7.6102 1.9481
L7.6102 2.2505
" />
<path d="M7.6102 2.2505
L7.5497 2.4924
" />
<path d="M7.5497 2.4924
L7.4892 2.6133
" />
<path d="M7.4892 2.6133
L7.4287 2.6738
" />
<path d="M7.4287 2.6738
L7.3078 2.7343
" />
<path d="M7.3078 2.7343
L7.1868 2.7343
" />
<path d="M7.1868 2.7343
L7.0659 2.6738
" />
<path d="M7.0659 2.6738
L7.0054 2.6133
" />
<path d="M7.0054 2.6133
L6.9449 2.4924
" />
<path d="M6.9449 2.4924
L6.8845 2.2505
" />
<path d="M6.8845 2.2505
L6.8845 1.9481
" />
<path d="M6.8845 1.9481
L6.9449 1.7062
" />
<path d="M6.9449 1.7062
L7.0054 1.5852
" />
<path d="M7.0054 1.5852
L7.0659 1.5247
" />
<path d="M7.0659 1.5247
L7.1868 1.4643
" />
<path d="M8.1545 2.2505
L9.1221 2.2505
" />
<path d="M10.3921 2.7343
L9.6664 2.7343
" />
<path d="M10.0292 2.7343
L10.0292 1.4643
" />
<path d="M10.0292 1.4643
L9.9083 1.6457
" />
<path d="M9.9083 1.6457
L9.7873 1.7667
" />
<path d="M9.7873 1.7667
L9.6664 1.8271
" />
<path d="M10.9364 2.0690
L11.3597 2.0690
" />
<path d="M11.5411 2.7343
L10.9364 2.7343
" />
<path d="M10.9364 2.7343
L10.9364 1.4643
" />
<path d="M10.9364 1.4643
L11.5411 1.4643
" />
<path d="M12.0854 2.7343
L12.0854 1.4643
" />
<path d="M12.0854 1.4643
L12.5692 1.4643
" />
<path d="M12.5692 1.4643
L12.6902 1.5247
" />
<path d="M12.6902 1.5247
L12.7507 1.5852
" />
<path d="M12.7507 1.5852
L12.8111 1.7062
" />
<path d="M12.8111 1.7062
L12.8111 1.8876
" />
<path d="M12.8111 1.8876
L12.7507 2.0086
" />
<path d="M12.7507 2.0086
L12.6902 2.0690
" />
<path d="M12.6902 2.0690
L12.5692 2.1295
" />
<path d="M12.5692 2.1295
L12.0854 2.1295
" />
<path d="M13.0530 2.8552
L14.0206 2.8552
" />
<path d="M14.2021 1.4643
L14.9883 1.4643
" />
<path d="M14.9883 1.4643
L14.5649 1.9481
" />
<path d="M14.5649 1.9481
L14.7464 1.9481
" />
<path d="M14.7464 1.9481
L14.8673 2.0086
" />
<path d="M14.8673 2.0086
L14.9278 2.0690
" />
<path d="M14.9278 2.0690
L14.9883 2.1900
" />
<path d="M14.9883 2.1900
L14.9883 2.4924
" />
<path d="M14.9883 2.4924
L14.9278 2.6133
" />
<path d="M14.9278 2.6133
L14.8673 2.6738
" />
<path d="M14.8673 2.6738
L14.7464 2.7343
" />
<path d="M14.7464 2.7343
L14.3835 2.7343
" />
<path d="M14.3835 2.7343
L14.2626 2.6738
" />
<path d="M14.2626 2.6738
L14.2021 2.6133
" />
<path d="M15.4116 2.7343
L16.0768 1.8876
" />
<path d="M15.4116 1.8876
L16.0768 2.7343
" />
<path d="M16.4397 1.4643
L17.2259 1.4643
" />
<path d="M17.2259 1.4643
L16.8026 1.9481
" />
<path d="M16.8026 1.9481
L16.9840 1.9481
" />
<path d="M16.9840 1.9481
L17.1049 2.0086
" />
<path d="M17.1049 2.0086
L17.1654 2.0690
" />
<path d="M17.1654 2.0690
L17.2259 2.1900
" />
<path d="M17.2259 2.1900
L17.2259 2.4924
" />
<path d="M17.2259 2.4924
L17.1654 2.6133
" />
<path d="M17.1654 2.6133
L17.1049 2.6738
" />
<path d="M17.1049 2.6738
L16.9840 2.7343
" />
<path d="M16.9840 2.7343
L16.6211 2.7343
" />
<path d="M16.6211 2.7343
L16.5002 2.6738
" />
<path d="M16.5002 2.6738
L16.4397 2.6133
" />
<path d="M17.7702 2.7343
L17.7702 1.8876
" />
<path d="M17.7702 2.0086
L17.8306 1.9481
" />
<path d="M17.8306 1.9481
L17.9516 1.8876
" />
<path d="M17.9516 1.8876
L18.1330 1.8876
" />
<path d="M18.1330 1.8876
L18.2540 1.9481
" />
<path d="M18.2540 1.9481
L18.3145 2.0690
" />
<path d="M18.3145 2.0690
L18.3145 2.7343
" />
<path d="M18.3145 2.0690
L18.3749 1.9481
" />
<path d="M18.3749 1.9481
L18.4959 1.8876
" />
<path d="M18.4959 1.8876
L18.6773 1.8876
" />
<path d="M18.6773 1.8876
L18.7983 1.9481
" />
<path d="M18.7983 1.9481
L18.8587 2.0690
" />
<path d="M18.8587 2.0690
L18.8587 2.7343
" />
<path d="M19.4635 2.7343
L19.4635 1.8876
" />
<path d="M19.4635 2.0086
L19.5240 1.9481
" />
<path d="M19.5240 1.9481
L19.6449 1.8876
" />
<path d="M19.6449 1.8876
L19.8264 1.8876
" />
<path d="M19.8264 1.8876
L19.9473 1.9481
" />
<path d="M19.9473 1.9481
L20.0078 2.0690
" />
<path d="M20.0078 2.0690
L20.0078 2.7343
" />
<path d="M20.0078 2.0690
L20.0683 1.9481
" />
<path d="M20.0683 1.9481
L20.1892 1.8876
" />
<path d="M20.1892 1.8876
L20.3706 1.8876
" />
<path d="M20.3706 1.8876
L20.4916 1.9481
" />
<path d="M20.4916 1.9481
L20.5521 2.0690
" />
<path d="M20.5521 2.0690
L20.5521 2.7343
" />
<path d="M20.8545 2.8552
L21.8221 2.8552
" />
<path d="M22.1245 2.7343
L22.1245 1.4643
" />
<path d="M22.1245 1.4643
L22.6083 1.4643
" />
<path d="M22.6083 1.4643
L22.7292 1.5247
" />
<path d="M22.7292 1.5247
L22.7897 1.5852
" />
<path d="M22.7897 1.5852
L22.8502 1.7062
" />
<path d="M22.8502 1.7062
L22.8502 1.8876
" />
<path d="M22.8502 1.8876
L22.7897 2.0086
" />
<path d="M22.7897 2.0086
L22.7292 2.0690
" />
<path d="M22.7292 2.0690
L22.6083 2.1295
" />
<path d="M22.6083 2.1295
L22.1245 2.1295
" />
<path d="M23.6364 1.4643
L23.7573 1.4643
" />
<path d="M23.7573 1.4643
L23.8783 1.5247
" />
<path d="M23.8783 1.5247
L23.9387 1.5852
" />
<path d="M23.9387 1.5852
L23.9992 1.7062
" />
<path d="M23.9992 1.7062
L24.0597 1.9481
" />
<path d="M24.0597 1.9481
L24.0597 2.2505
" />
<path d="M24.0597 2.2505
L23.9992 2.4924
" />
<path d="M23.9992 2.4924
L23.9387 2.6133
" />
<path d="M23.9387 2.6133
L23.8783 2.6738
" />
<path d="M23.8783 2.6738
L23.7573 2.7343
" />
<path d="M23.7573 2.7343
L23.6364 2.7343
" />
<path d="M23.6364 2.7343
L23.5154 2.6738
" />
<path d="M23.5154 2.6738
L23.4549 2.6133
" />
<path d="M23.4549 2.6133
L23.3945 2.4924
" />
<path d="M23.3945 2.4924
L23.3340 2.2505
" />
<path d="M23.3340 2.2505
L23.3340 1.9481
" />
<path d="M23.3340 1.9481
L23.3945 1.7062
" />
<path d="M23.3945 1.7062
L23.4549 1.5852
" />
<path d="M23.4549 1.5852
L23.5154 1.5247
" />
<path d="M23.5154 1.5247
L23.6364 1.4643
" />
<path d="M24.6040 2.6133
L24.6645 2.6738
" />
<path d="M24.6645 2.6738
L24.6040 2.7343
" />
<path d="M24.6040 2.7343
L24.5435 2.6738
" />
<path d="M24.5435 2.6738
L24.6040 2.6133
" />
<path d="M24.6040 2.6133
L24.6040 2.7343
" />
<path d="M25.7530 1.8876
L25.7530 2.7343
" />
<path d="M25.4506 1.4038
L25.1483 2.3109
" />
<path d="M25.1483 2.3109
L25.9345 2.3109
" />
<path d="M26.4183 2.7343
L26.4183 1.8876
" />
<path d="M26.4183 2.0086
L26.4787 1.9481
" />
<path d="M26.4787 1.9481
L26.5997 1.8876
" />
<path d="M26.5997 1.8876
L26.7811 1.8876
" />
<path d="M26.7811 1.8876
L26.9021 1.9481
" />
<path d="M26.9021 1.9481
L26.9626 2.0690
" />
<path d="M26.9626 2.0690
L26.9626 2.7343
" />
<path d="M26.9626 2.0690
L27.0230 1.9481
" />
<path d="M27.0230 1.9481
L27.1440 1.8876
" />
<path d="M27.1440 1.8876
L27.3254 1.8876
" />
<path d="M27.3254 1.8876
L27.4464 1.9481
" />
<path d="M27.4464 1.9481
L27.5068 2.0690
" />
<path d="M27.5068 2.0690
L27.5068 2.7343
" />
<path d="M28.1116 2.7343
L28.1116 1.8876
" />
<path d="M28.1116 2.0086
L28.1721 1.9481
" />
<path d="M28.1721 1.9481
L28.2930 1.8876
" />
<path d="M28.2930 1.8876
L28.4745 1.8876
" />
<path d="M28.4745 1.8876
L28.5954 1.9481
" />
<path d="M28.5954 1.9481
L28.6559 2.0690
" />
<path d="M28.6559 2.0690
L28.6559 2.7343
" />
<path d="M28.6559 2.0690
L28.7164 1.9481
" />
<path d="M28.7164 1.9481
L28.8373 1.8876
" />
<path d="M28.8373 1.8876
L29.0187 1.8876
" />
<path d="M29.0187 1.8876
L29.1397 1.9481
" />
<path d="M29.1397 1.9481
L29.2002 2.0690
" />
<path d="M29.2002 2.0690
L29.2002 2.7343
" />
<path d="M29.5026 2.8552
L30.4702 2.8552
" />
<path d="M30.7726 2.0690
L31.1959 2.0690
" />
<path d="M31.3773 2.7343
L30.7726 2.7343
" />
<path d="M30.7726 2.7343
L30.7726 1.4643
" />
<path d="M30.7726 1.4643
L31.3773 1.4643
" />
<path d="M31.9216 2.7343
L31.9216 1.4643
" />
<path d="M31.9216 1.4643
L32.4054 1.4643
" />
<path d="M32.4054 1.4643
L32.5264 1.5247
" />
<path d="M32.5264 1.5247
L32.5868 1.5852
" />
<path d="M32.5868 1.5852
L32.6473 1.7062
" />
<path d="M32.6473 1.7062
L32.6473 1.8876
" />
<path d="M32.6473 1.8876
L32.5868 2.0086
" />
<path d="M32.5868 2.0086
L32.5264 2.0690
" />
<path d="M32.5264 2.0690
L32.4054 2.1295
" />
<path d="M32.4054 2.1295
L31.9216 2.1295
" />
<path d="M33.8568 2.7343
L33.1311 2.7343
" />
<path d="M33.4940 2.7343
L33.4940 1.4643
" />
<path d="M33.4940 1.4643
L33.3730 1.6457
" />
<path d="M33.3730 1.6457
L33.2521 1.7667
" />
<path d="M33.2521 1.7667
L33.1311 1.8271
" />
<path d="M34.4011 2.6133
L34.4616 2.6738
" />
<path d="M34.4616 2.6738
L34.4011 2.7343
" />
<path d="M34.4011 2.7343
L34.3406 2.6738
" />
<path d="M34.3406 2.6738
L34.4011 2.6133
" />
<path d="M34.4011 2.6133
L34.4011 2.7343
" />
<path d="M35.5502 1.4643
L35.3083 1.4643
" />
<path d="M35.3083 1.4643
L35.1873 1.5247
" />
<path d="M35.1873 1.5247
L35.1268 1.5852
" />
<path d="M35.1268 1.5852
L35.0059 1.7667
" />
<path d="M35.0059 1.7667
L34.9454 2.0086
" />
<path d="M34.9454 2.0086
L34.9454 2.4924
" />
<path d="M34.9454 2.4924
L35.0059 2.6133
" />
<path d="M35.0059 2.6133
L35.0664 2.6738
" />
<path d="M35.0664 2.6738
L35.1873 2.7343
" />
<path d="M35.1873 2.7343
L35.4292 2.7343
" />
<path d="M35.4292 2.7343
L35.5502 2.6738
" />
<path d="M35.5502 2.6738
L35.6106 2.6133
" />
<path d="M35.6106 2.6133
L35.6711 2.4924
" />
<path d="M35.6711 2.4924
L35.6711 2.1900
" />
<path d="M35.6711 2.1900
L35.6106 2.0690
" />
<path d="M35.6106 2.0690
L35.5502 2.0086
" />
<path d="M35.5502 2.0086
L35.4292 1.9481
" />
<path d="M35.4292 1.9481
L35.1873 1.9481
" />
<path d="M35.1873 1.9481
L35.0664 2.0086
" />
<path d="M35.0664 2.0086
L35.0059 2.0690
" />
<path d="M35.0059 2.0690
L34.9454 2.1900
" />
<path d="M36.8202 1.4643
L36.2154 1.4643
" />
<path d="M36.2154 1.4643
L36.1549 2.0690
" />
<path d="M36.1549 2.0690
L36.2154 2.0086
" />
<path d="M36.2154 2.0086
L36.3364 1.9481
" />
<path d="M36.3364 1.9481
L36.6387 1.9481
" />
<path d="M36.6387 1.9481
L36.7597 2.0086
" />
<path d="M36.7597 2.0086
L36.8202 2.0690
" />
<path d="M36.8202 2.0690
L36.8806 2.1900
" />
<path d="M36.8806 2.1900
L36.8806 2.4924
" />
<path d="M36.8806 2.4924
L36.8202 2.6133
" />
<path d="M36.8202 2.6133
L36.7597 2.6738
" />
<path d="M36.7597 2.6738
L36.6387 2.7343
" />
<path d="M36.6387 2.7343
L36.3364 2.7343
" />
<path d="M36.3364 2.7343
L36.2154 2.6738
" />
<path d="M36.2154 2.6738
L36.1549 2.6133
" />
<path d="M37.3040 2.7343
L37.9692 1.8876
" />
<path d="M37.3040 1.8876
L37.9692 2.7343
" />
<path d="M39.1183 2.7343
L38.3926 2.7343
" />
<path d="M38.7554 2.7343
L38.7554 1.4643
" />
<path d="M38.7554 1.4643
L38.6345 1.6457
" />
<path d="M38.6345 1.6457
L38.5135 1.7667
" />
<path d="M38.5135 1.7667
L38.3926 1.8271
" />
<path d="M39.6626 2.6133
L39.7230 2.6738
" />
<path d="M39.7230 2.6738
L39.6626 2.7343
" />
<path d="M39.6626 2.7343
L39.6021 2.6738
" />
<path d="M39.6021 2.6738
L39.6626 2.6133
" />
<path d="M39.6626 2.6133
L39.6626 2.7343
" />
<path d="M40.8116 1.4643
L40.5697 1.4643
" />
<path d="M40.5697 1.4643
L40.4487 1.5247
" />
<path d="M40.4487 1.5247
L40.3883 1.5852
" />
<path d="M40.3883 1.5852
L40.2673 1.7667
" />
<path d="M40.2673 1.7667
L40.2068 2.0086
" />
<path d="M40.2068 2.0086
L40.2068 2.4924
" />
<path d="M40.2068 2.4924
L40.2673 2.6133
" />
<path d="M40.2673 2.6133
L40.3278 2.6738
" />
<path d="M40.3278 2.6738
L40.4487 2.7343
" />
<path d="M40.4487 2.7343
L40.6906 2.7343
" />
<path d="M40.6906 2.7343
L40.8116 2.6738
" />
<path d="M40.8116 2.6738
L40.8721 2.6133
" />
<path d="M40.8721 2.6133
L40.9326 2.4924
" />
<path d="M40.9326 2.4924
L40.9326 2.1900
" />
<path d="M40.9326 2.1900
L40.8721 2.0690
" />
<path d="M40.8721 2.0690
L40.8116 2.0086
" />
<path d="M40.8116 2.0086
L40.6906 1.9481
" />
<path d="M40.6906 1.9481
L40.4487 1.9481
" />
<path d="M40.4487 1.9481
L40.3278 2.0086
" />
<path d="M40.3278 2.0086
L40.2673 2.0690
" />
<path d="M40.2673 2.0690
L40.2068 2.1900
" />
<path d="M42.0816 1.4643
L41.4768 1.4643
" />
<path d="M41.4768 1.4643
L41.4164 2.0690
" />
<path d="M41.4164 2.0690
L41.4768 2.0086
" />
<path d="M41.4768 2.0086
L41.5978 1.9481
" />
<path d="M41.5978 1.9481
L41.9002 1.9481
" />
<path d="M41.9002 1.9481
L42.0211 2.0086
" />
<path d="M42.0211 2.0086
L42.0816 2.0690
" />
<path d="M42.0816 2.0690
L42.1421 2.1900
" />
<path d="M42.1421 2.1900
L42.1421 2.4924
" />
<path d="M42.1421 2.4924
L42.0816 2.6133
" />
<path d="M42.0816 2.6133
L42.0211 2.6738
" />
<path d="M42.0211 2.6738
L41.9002 2.7343
" />
<path d="M41.9002 2.7343
L41.5978 2.7343
" />
<path d="M41.5978 2.7343
L41.4768 2.6738
" />
<path d="M41.4768 2.6738
L41.4164 2.6133
" />
<path d="M42.6864 2.7343
L42.6864 1.8876
" />
<path d="M42.6864 2.0086
L42.7468 1.9481
" />
<path d="M42.7468 1.9481
L42.8678 1.8876
" />
<path d="M42.8678 1.8876
L43.0492 1.8876
" />
<path d="M43.0492 1.8876
L43.1702 1.9481
" />
<path d="M43.1702 1.9481
L43.2306 2.0690
" />
<path d="M43.2306 2.0690
L43.2306 2.7343
" />
<path d="M43.2306 2.0690
L43.2911 1.9481
" />
<path d="M43.2911 1.9481
L43.4121 1.8876
" />
<path d="M43.4121 1.8876
L43.5935 1.8876
" />
<path d="M43.5935 1.8876
L43.7145 1.9481
" />
<path d="M43.7145 1.9481
L43.7749 2.0690
" />
<path d="M43.7749 2.0690
L43.7749 2.7343
" />
<path d="M44.3797 2.7343
L44.3797 1.8876
" />
<path d="M44.3797 2.0086
L44.4402 1.9481
" />
<path d="M44.4402 1.9481
L44.5611 1.8876
" />
<path d="M44.5611 1.8876
L44.7426 1.8876
" />
<path d="M44.7426 1.8876
L44.8635 1.9481
" />
<path d="M44.8635 1.9481
L44.9240 2.0690
" />
<path d="M44.9240 2.0690
L44.9240 2.7343
" />
<path d="M44.9240 2.0690
L44.9845 1.9481
" />
<path d="M44.9845 1.9481
L45.1054 1.8876
" />
<path d="M45.1054 1.8876
L45.2868 1.8876
" />
<path d="M45.2868 1.8876
L45.4078 1.9481
" />
<path d="M45.4078 1.9481
L45.4683 2.0690
" />
<path d="M45.4683 2.0690
L45.4683 2.7343
" />
<path d="M45.7706 2.8552
L46.7383 2.8552
" />
<path d="M46.8592 1.4643
L47.5849 1.4643
" />
<path d="M47.2221 2.7343
L47.2221 1.4643
" />
<path d="M48.0083 2.7343
L48.0083 1.4643
" />
<path d="M48.5526 2.7343
L48.5526 2.0690
" />
<path d="M48.5526 2.0690
L48.4921 1.9481
" />
<path d="M48.4921 1.9481
L48.3711 1.8876
" />
<path d="M48.3711 1.8876
L48.1897 1.8876
" />
<path d="M48.1897 1.8876
L48.0687 1.9481
" />
<path d="M48.0687 1.9481
L48.0083 2.0086
" />
<path d="M49.6411 2.6738
L49.5202 2.7343
" />
<path d="M49.5202 2.7343
L49.2783 2.7343
" />
<path d="M49.2783 2.7343
L49.1573 2.6738
" />
<path d="M49.1573 2.6738
L49.0968 2.5528
" />
<path d="M49.0968 2.5528
L49.0968 2.0690
" />
<path d="M49.0968 2.0690
L49.1573 1.9481
" />
<path d="M49.1573 1.9481
L49.2783 1.8876
" />
<path d="M49.2783 1.8876
L49.5202 1.8876
" />
<path d="M49.5202 1.8876
L49.6411 1.9481
" />
<path d="M49.6411 1.9481
L49.7016 2.0690
" />
<path d="M49.7016 2.0690
L49.7016 2.1900
" />
<path d="M49.7016 2.1900
L49.0968 2.3109
" />
<path d="M50.2459 2.7343
L50.2459 1.8876
" />
<path d="M50.2459 2.1295
L50.3064 2.0086
" />
<path d="M50.3064 2.0086
L50.3668 1.9481
" />
<path d="M50.3668 1.9481
L50.4878 1.8876
" />
<path d="M50.4878 1.8876
L50.6087 1.8876
" />
<path d="M51.0321 2.7343
L51.0321 1.8876
" />
<path d="M51.0321 2.0086
L51.0926 1.9481
" />
<path d="M51.0926 1.9481
L51.2135 1.8876
" />
<path d="M51.2135 1.8876
L51.3949 1.8876
" />
<path d="M51.3949 1.8876
L51.5159 1.9481
" />
<path d="M51.5159 1.9481
L51.5764 2.0690
" />
<path d="M51.5764 2.0690
L51.5764 2.7343
" />
<path d="M51.5764 2.0690
L51.6368 1.9481
" />
<path d="M51.6368 1.9481
L51.7578 1.8876
" />
<path d="M51.7578 1.8876
L51.9392 1.8876
" />
<path d="M51.9392 1.8876
L52.0602 1.9481
" />
<path d="M52.0602 1.9481
L52.1206 2.0690
" />
<path d="M52.1206 2.0690
L52.1206 2.7343
" />
<path d="M53.2697 2.7343
L53.2697 2.0690
" />
<path d="M53.2697 2.0690
L53.2092 1.9481
" />
<path d="M53.2092 1.9481
L53.0883 1.8876
" />
<path d="M53.0883 1.8876
L52.8464 1.8876
" />
<path d="M52.8464 1.8876
L52.7254 1.9481
" />
<path d="M53.2697 2.6738
L53.1487 2.7343
" />
<path d="M53.1487 2.7343
L52.8464 2.7343
" />
<path d="M52.8464 2.7343
L52.7254 2.6738
" />
<path d="M52.7254 2.6738
L52.6649 2.5528
" />
<path d="M52.6649 2.5528
L52.6649 2.4319
" />
<path d="M52.6649 2.4319
L52.7254 2.3109
" />
<path d="M52.7254 2.3109
L52.8464 2.2505
" />
<path d="M52.8464 2.2505
L53.1487 2.2505
" />
<path d="M53.1487 2.2505
L53.2697 2.1900
" />
<path d="M54.0559 2.7343
L53.9349 2.6738
" />
<path d="M53.9349 2.6738
L53.8745 2.5528
" />
<path d="M53.8745 2.5528
L53.8745 1.4643
" />
<path d="M54.3583 1.4643
L54.7816 2.7343
" />
<path d="M54.7816 2.7343
L55.2049 1.4643
" />
<path d="M55.6283 2.7343
L55.6283 1.8876
" />
<path d="M55.6283 1.4643
L55.5678 1.5247
" />
<path d="M55.5678 1.5247
L55.6283 1.5852
" />
<path d="M55.6283 1.5852
L55.6887 1.5247
" />
<path d="M55.6887 1.5247
L55.6283 1.4643
" />
<path d="M55.6283 1.4643
L55.6283 1.5852
" />
<path d="M56.7773 2.7343
L56.7773 2.0690
" />
<path d="M56.7773 2.0690
L56.7168 1.9481
" />
<path d="M56.7168 1.9481
L56.5959 1.8876
" />
<path d="M56.5959 1.8876
L56.3540 1.8876
" />
<path d="M56.3540 1.8876
L56.2330 1.9481
" />
<path d="M56.7773 2.6738
L56.6564 2.7343
" />
<path d="M56.6564 2.7343
L56.3540 2.7343
" />
<path d="M56.3540 2.7343
L56.2330 2.6738
" />
<path d="M56.2330 2.6738
L56.1726 2.5528
" />
<path d="M56.1726 2.5528
L56.1726 2.4319
" />
<path d="M56.1726 2.4319
L56.2330 2.3109
" />
<path d="M56.2330 2.3109
L56.3540 2.2505
" />
<path d="M56.3540 2.2505
L56.6564 2.2505
" />
<path d="M56.6564 2.2505
L56.7773 2.1900
" />
<path d="M57.3216 2.6738
L57.4426 2.7343
" />
<path d="M57.4426 2.7343
L57.6845 2.7343
" />
<path d="M57.6845 2.7343
L57.8054 2.6738
" />
<path d="M57.8054 2.6738
L57.8659 2.5528
" />
<path d="M57.8659 2.5528
L57.8659 2.4924
" />
<path d="M57.8659 2.4924
L57.8054 2.3714
" />
<path d="M57.8054 2.3714
L57.6845 2.3109
" />
<path d="M57.6845 2.3109
L57.5030 2.3109
" />
<path d="M57.5030 2.3109
L57.3821 2.2505
" />
<path d="M57.3821 2.2505
L57.3216 2.1295
" />
<path d="M57.3216 2.1295
L57.3216 2.0690
" />
<path d="M57.3216 2.0690
L57.3821 1.9481
" />
<path d="M57.3821 1.9481
L57.5030 1.8876
" />
<path d="M57.5030 1.8876
L57.6845 1.8876
" />
<path d="M57.6845 1.8876
L57.8054 1.9481
" />
</g></g>
<g style="fill:none; 
stroke:#AFAFAF; stroke-width:0.1100; stroke-opacity:1; 
stroke-linecap:round; stroke-linejoin:round;">
<text x="29.1095" y="2.5300"
textLength="3.3943" font-size="1.0000" lengthAdjust="spacingAndGlyphs"
text-anchor="middle" opacity="0">REF**</text>
<g class="stroked-text"><desc>REF**</desc>
<path d="M28.1095 2.4962
L27.8595 2.1391
" />
<path d="M27.6809 2.4962
L27.6809 1.7462
" />
<path d="M27.6809 1.7462
L27.9666 1.7462
" />
<path d="M27.9666 1.7462
L28.0380 1.7820
" />
<path d="M28.0380 1.7820
L28.0737 1.8177
" />
<path d="M28.0737 1.8177
L28.1095 1.8891
" />
<path d="M28.1095 1.8891
L28.1095 1.9962
" />
<path d="M28.1095 1.9962
L28.0737 2.0677
" />
<path d="M28.0737 2.0677
L28.0380 2.1034
" />
<path d="M28.0380 2.1034
L27.9666 2.1391
" />
<path d="M27.9666 2.1391
L27.6809 2.1391
" />
<path d="M28.4309 2.1034
L28.6809 2.1034
" />
<path d="M28.7880 2.4962
L28.4309 2.4962
" />
<path d="M28.4309 2.4962
L28.4309 1.7462
" />
<path d="M28.4309 1.7462
L28.7880 1.7462
" />
<path d="M29.3595 2.1034
L29.1095 2.1034
" />
<path d="M29.1095 2.4962
L29.1095 1.7462
" />
<path d="M29.1095 1.7462
L29.4666 1.7462
" />
<path d="M29.8595 1.7462
L29.8595 1.9248
" />
<path d="M29.6809 1.8534
L29.8595 1.9248
" />
<path d="M29.8595 1.9248
L30.0380 1.8534
" />
<path d="M29.7523 2.0677
L29.8595 1.9248
" />
<path d="M29.8595 1.9248
L29.9666 2.0677
" />
<path d="M30.4309 1.7462
L30.4309 1.9248
" />
<path d="M30.2523 1.8534
L30.4309 1.9248
" />
<path d="M30.4309 1.9248
L30.6095 1.8534
" />
<path d="M30.3237 2.0677
L30.4309 1.9248
" />
<path d="M30.4309 1.9248
L30.5380 2.0677
" />
</g></g>
<g style="fill:none; 
stroke:#AFAFAF; stroke-width:0.1000; stroke-opacity:1; 
stroke-linecap:round; stroke-linejoin:round;">
<path d="M27.6095 1.4050
L28.3595 0.6550
" />
<path d="M27.6095 3.6550
L27.6095 1.4050
" />
<path d="M28.3595 0.6550
L30.6095 0.6550
" />
<path d="M30.6095 0.6550
L30.6095 3.6550
" />
<path d="M30.6095 3.6550
L27.6095 3.6550
" />
</g> 
</svg>
