<?xml version="1.0" standalone="no"?>
 <!DOCTYPE svg PUBLIC "-//W3C//DTD SVG 1.1//EN" 
 "http://www.w3.org/Graphics/SVG/1.1/DTD/svg11.dtd"> 
<svg
  xmlns:svg="http://www.w3.org/2000/svg"
  xmlns="http://www.w3.org/2000/svg"
  xmlns:xlink="http://www.w3.org/1999/xlink"
  version="1.1"
  width="18.5420mm" height="16.5354mm" viewBox="0.0000 0.0000 18.5420 16.5354">
<title>SVG Image created as working-brd.svg date 2024/04/23 00:06:23 </title>
  <desc>Image generated by PCBNEW </desc>
<g style="fill:#000000; fill-opacity:1.0000;stroke:#000000; stroke-opacity:1.0000;
stroke-linecap:round; stroke-linejoin:round;"
 transform="translate(0 0) scale(1 1)">
<path style="fill:#C83434; fill-opacity:1.0000; stroke:none;fill-rule:evenodd;"
d="M 2.7750,1.9250
2.7750,2.9250
0.2750,2.9250
0.2750,1.9250
Z" /> 
<path style="fill:#C83434; fill-opacity:1.0000; stroke:none;fill-rule:evenodd;"
d="M 2.7750,4.4650
2.7750,5.4650
0.2750,5.4650
0.2750,4.4650
Z" /> 
<path style="fill:#C83434; fill-opacity:1.0000; stroke:none;fill-rule:evenodd;"
d="M 2.7750,7.0050
2.7750,8.0050
0.2750,8.0050
0.2750,7.0050
Z" /> 
<path style="fill:#C83434; fill-opacity:1.0000; stroke:none;fill-rule:evenodd;"
d="M 2.7750,9.5450
2.7750,10.5450
0.2750,10.5450
0.2750,9.5450
Z" /> 
<path style="fill:#C83434; fill-opacity:1.0000; stroke:none;fill-rule:evenodd;"
d="M 2.7750,12.0850
2.7750,13.0850
0.2750,13.0850
0.2750,12.0850
Z" /> 
<path style="fill:#C83434; fill-opacity:1.0000; stroke:none;fill-rule:evenodd;"
d="M 2.7750,14.6250
2.7750,15.6250
0.2750,15.6250
0.2750,14.6250
Z" /> 
<path style="fill:#C83434; fill-opacity:1.0000; stroke:none;fill-rule:evenodd;"
d="M 18.2750,14.6250
18.2750,15.6250
15.7750,15.6250
15.7750,14.6250
Z" /> 
<path style="fill:#C83434; fill-opacity:1.0000; stroke:none;fill-rule:evenodd;"
d="M 18.2750,12.0850
18.2750,13.0850
15.7750,13.0850
15.7750,12.0850
Z" /> 
<path style="fill:#C83434; fill-opacity:1.0000; stroke:none;fill-rule:evenodd;"
d="M 18.2750,9.5450
18.2750,10.5450
15.7750,10.5450
15.7750,9.5450
Z" /> 
<path style="fill:#C83434; fill-opacity:1.0000; stroke:none;fill-rule:evenodd;"
d="M 18.2750,7.0050
18.2750,8.0050
15.7750,8.0050
15.7750,7.0050
Z" /> 
<path style="fill:#C83434; fill-opacity:1.0000; stroke:none;fill-rule:evenodd;"
d="M 18.2750,4.4650
18.2750,5.4650
15.7750,5.4650
15.7750,4.4650
Z" /> 
<path style="fill:#C83434; fill-opacity:1.0000; stroke:none;fill-rule:evenodd;"
d="M 18.2750,1.9250
18.2750,2.9250
15.7750,2.9250
15.7750,1.9250
Z" /> 
<path style="fill:#D864FF; fill-opacity:0.4000; stroke:none;fill-rule:evenodd;"
d="M 2.7750,1.9250
2.7750,2.9250
0.2750,2.9250
0.2750,1.9250
Z" /> 
<path style="fill:#D864FF; fill-opacity:0.4000; stroke:none;fill-rule:evenodd;"
d="M 2.7750,4.4650
2.7750,5.4650
0.2750,5.4650
0.2750,4.4650
Z" /> 
<path style="fill:#D864FF; fill-opacity:0.4000; stroke:none;fill-rule:evenodd;"
d="M 2.7750,7.0050
2.7750,8.0050
0.2750,8.0050
0.2750,7.0050
Z" /> 
<path style="fill:#D864FF; fill-opacity:0.4000; stroke:none;fill-rule:evenodd;"
d="M 2.7750,9.5450
2.7750,10.5450
0.2750,10.5450
0.2750,9.5450
Z" /> 
<path style="fill:#D864FF; fill-opacity:0.4000; stroke:none;fill-rule:evenodd;"
d="M 2.7750,12.0850
2.7750,13.0850
0.2750,13.0850
0.2750,12.0850
Z" /> 
<path style="fill:#D864FF; fill-opacity:0.4000; stroke:none;fill-rule:evenodd;"
d="M 2.7750,14.6250
2.7750,15.6250
0.2750,15.6250
0.2750,14.6250
Z" /> 
<path style="fill:#D864FF; fill-opacity:0.4000; stroke:none;fill-rule:evenodd;"
d="M 18.2750,14.6250
18.2750,15.6250
15.7750,15.6250
15.7750,14.6250
Z" /> 
<path style="fill:#D864FF; fill-opacity:0.4000; stroke:none;fill-rule:evenodd;"
d="M 18.2750,12.0850
18.2750,13.0850
15.7750,13.0850
15.7750,12.0850
Z" /> 
<path style="fill:#D864FF; fill-opacity:0.4000; stroke:none;fill-rule:evenodd;"
d="M 18.2750,9.5450
18.2750,10.5450
15.7750,10.5450
15.7750,9.5450
Z" /> 
<path style="fill:#D864FF; fill-opacity:0.4000; stroke:none;fill-rule:evenodd;"
d="M 18.2750,7.0050
18.2750,8.0050
15.7750,8.0050
15.7750,7.0050
Z" /> 
<path style="fill:#D864FF; fill-opacity:0.4000; stroke:none;fill-rule:evenodd;"
d="M 18.2750,4.4650
18.2750,5.4650
15.7750,5.4650
15.7750,4.4650
Z" /> 
<path style="fill:#D864FF; fill-opacity:0.4000; stroke:none;fill-rule:evenodd;"
d="M 18.2750,1.9250
18.2750,2.9250
15.7750,2.9250
15.7750,1.9250
Z" /> 
<path style="fill:#B4A09A; fill-opacity:0.9000; stroke:none;fill-rule:evenodd;"
d="M 2.7750,1.9250
2.7750,2.9250
0.2750,2.9250
0.2750,1.9250
Z" /> 
<path style="fill:#B4A09A; fill-opacity:0.9000; stroke:none;fill-rule:evenodd;"
d="M 2.7750,4.4650
2.7750,5.4650
0.2750,5.4650
0.2750,4.4650
Z" /> 
<path style="fill:#B4A09A; fill-opacity:0.9000; stroke:none;fill-rule:evenodd;"
d="M 2.7750,7.0050
2.7750,8.0050
0.2750,8.0050
0.2750,7.0050
Z" /> 
<path style="fill:#B4A09A; fill-opacity:0.9000; stroke:none;fill-rule:evenodd;"
d="M 2.7750,9.5450
2.7750,10.5450
0.2750,10.5450
0.2750,9.5450
Z" /> 
<path style="fill:#B4A09A; fill-opacity:0.9000; stroke:none;fill-rule:evenodd;"
d="M 2.7750,12.0850
2.7750,13.0850
0.2750,13.0850
0.2750,12.0850
Z" /> 
<path style="fill:#B4A09A; fill-opacity:0.9000; stroke:none;fill-rule:evenodd;"
d="M 2.7750,14.6250
2.7750,15.6250
0.2750,15.6250
0.2750,14.6250
Z" /> 
<path style="fill:#B4A09A; fill-opacity:0.9000; stroke:none;fill-rule:evenodd;"
d="M 18.2750,14.6250
18.2750,15.6250
15.7750,15.6250
15.7750,14.6250
Z" /> 
<path style="fill:#B4A09A; fill-opacity:0.9000; stroke:none;fill-rule:evenodd;"
d="M 18.2750,12.0850
18.2750,13.0850
15.7750,13.0850
15.7750,12.0850
Z" /> 
<path style="fill:#B4A09A; fill-opacity:0.9000; stroke:none;fill-rule:evenodd;"
d="M 18.2750,9.5450
18.2750,10.5450
15.7750,10.5450
15.7750,9.5450
Z" /> 
<path style="fill:#B4A09A; fill-opacity:0.9000; stroke:none;fill-rule:evenodd;"
d="M 18.2750,7.0050
18.2750,8.0050
15.7750,8.0050
15.7750,7.0050
Z" /> 
<path style="fill:#B4A09A; fill-opacity:0.9000; stroke:none;fill-rule:evenodd;"
d="M 18.2750,4.4650
18.2750,5.4650
15.7750,5.4650
15.7750,4.4650
Z" /> 
<path style="fill:#B4A09A; fill-opacity:0.9000; stroke:none;fill-rule:evenodd;"
d="M 18.2750,1.9250
18.2750,2.9250
15.7750,2.9250
15.7750,1.9250
Z" /> 
</g>
<g style="fill:none; 
stroke:#F2EDA1; stroke-width:0.1588; stroke-opacity:1; 
stroke-linecap:round; stroke-linejoin:round;">
<text x="9.2750" y="8.9100"
textLength="5.6651" font-size="1.6933" lengthAdjust="spacingAndGlyphs"
text-anchor="middle" opacity="0">REF**</text>
<g class="stroked-text"><desc>REF**</desc>
<path d="M7.5817 8.8543
L7.1583 8.2495
" />
<path d="M6.8560 8.8543
L6.8560 7.5843
" />
<path d="M6.8560 7.5843
L7.3398 7.5843
" />
<path d="M7.3398 7.5843
L7.4607 7.6447
" />
<path d="M7.4607 7.6447
L7.5212 7.7052
" />
<path d="M7.5212 7.7052
L7.5817 7.8262
" />
<path d="M7.5817 7.8262
L7.5817 8.0076
" />
<path d="M7.5817 8.0076
L7.5212 8.1286
" />
<path d="M7.5212 8.1286
L7.4607 8.1890
" />
<path d="M7.4607 8.1890
L7.3398 8.2495
" />
<path d="M7.3398 8.2495
L6.8560 8.2495
" />
<path d="M8.1260 8.1890
L8.5493 8.1890
" />
<path d="M8.7307 8.8543
L8.1260 8.8543
" />
<path d="M8.1260 8.8543
L8.1260 7.5843
" />
<path d="M8.1260 7.5843
L8.7307 7.5843
" />
<path d="M9.6983 8.1890
L9.2750 8.1890
" />
<path d="M9.2750 8.8543
L9.2750 7.5843
" />
<path d="M9.2750 7.5843
L9.8798 7.5843
" />
<path d="M10.5450 7.5843
L10.5450 7.8867
" />
<path d="M10.2426 7.7657
L10.5450 7.8867
" />
<path d="M10.5450 7.8867
L10.8474 7.7657
" />
<path d="M10.3636 8.1286
L10.5450 7.8867
" />
<path d="M10.5450 7.8867
L10.7264 8.1286
" />
<path d="M11.5126 7.5843
L11.5126 7.8867
" />
<path d="M11.2102 7.7657
L11.5126 7.8867
" />
<path d="M11.5126 7.8867
L11.8150 7.7657
" />
<path d="M11.3312 8.1286
L11.5126 7.8867
" />
<path d="M11.5126 7.8867
L11.6940 8.1286
" />
</g></g>
<g style="fill:none; 
stroke:#F2EDA1; stroke-width:0.1200; stroke-opacity:1; 
stroke-linecap:round; stroke-linejoin:round;">
<path d="M1.1650 0.1650
L1.1650 1.6650
" />
<path d="M1.1650 16.3850
L1.1650 15.8850
" />
<path d="M17.3850 0.1650
L1.1650 0.1650
" />
<path d="M17.3850 0.1650
L17.3850 1.6650
" />
<path d="M17.3850 16.3850
L1.1650 16.3850
" />
<path d="M17.3850 16.3850
L17.3850 15.8850
" />
<path style="fill:#F2EDA1; fill-opacity:1.0000; 
stroke:#F2EDA1; stroke-width:0.1200; stroke-opacity:1; 
stroke-linecap:round; stroke-linejoin:round;fill-rule:evenodd;"
d="M 0.6150,1.6650
0.3750,1.3350
0.8550,1.3350
Z" /> 
</g>
<g style="fill:none; 
stroke:#FF26E2; stroke-width:0.0500; stroke-opacity:1; 
stroke-linecap:round; stroke-linejoin:round;">
<path d="M0.0250 0.0250
L0.0250 16.5250
" />
<path d="M0.0250 0.0250
L18.5250 0.0250
" />
<path d="M0.0250 16.5250
L18.5250 16.5250
" />
<path d="M18.5250 16.5250
L18.5250 0.0250
" />
</g>
<g style="fill:none; 
stroke:#AFAFAF; stroke-width:0.1588; stroke-opacity:1; 
stroke-linecap:round; stroke-linejoin:round;">
<text x="9.2750" y="8.9100"
textLength="14.6156" font-size="1.6933" lengthAdjust="spacingAndGlyphs"
text-anchor="middle" opacity="0">Quectel_L80-R</text>
<g class="stroked-text"><desc>Quectel_L80-R</desc>
<path d="M3.2274 8.9752
L3.1064 8.9147
" />
<path d="M3.1064 8.9147
L2.9855 8.7938
" />
<path d="M2.9855 8.7938
L2.8040 8.6124
" />
<path d="M2.8040 8.6124
L2.6831 8.5519
" />
<path d="M2.6831 8.5519
L2.5621 8.5519
" />
<path d="M2.6226 8.8543
L2.5017 8.7938
" />
<path d="M2.5017 8.7938
L2.3807 8.6728
" />
<path d="M2.3807 8.6728
L2.3202 8.4309
" />
<path d="M2.3202 8.4309
L2.3202 8.0076
" />
<path d="M2.3202 8.0076
L2.3807 7.7657
" />
<path d="M2.3807 7.7657
L2.5017 7.6447
" />
<path d="M2.5017 7.6447
L2.6226 7.5843
" />
<path d="M2.6226 7.5843
L2.8645 7.5843
" />
<path d="M2.8645 7.5843
L2.9855 7.6447
" />
<path d="M2.9855 7.6447
L3.1064 7.7657
" />
<path d="M3.1064 7.7657
L3.1669 8.0076
" />
<path d="M3.1669 8.0076
L3.1669 8.4309
" />
<path d="M3.1669 8.4309
L3.1064 8.6728
" />
<path d="M3.1064 8.6728
L2.9855 8.7938
" />
<path d="M2.9855 8.7938
L2.8645 8.8543
" />
<path d="M2.8645 8.8543
L2.6226 8.8543
" />
<path d="M4.2555 8.0076
L4.2555 8.8543
" />
<path d="M3.7112 8.0076
L3.7112 8.6728
" />
<path d="M3.7112 8.6728
L3.7717 8.7938
" />
<path d="M3.7717 8.7938
L3.8926 8.8543
" />
<path d="M3.8926 8.8543
L4.0740 8.8543
" />
<path d="M4.0740 8.8543
L4.1950 8.7938
" />
<path d="M4.1950 8.7938
L4.2555 8.7333
" />
<path d="M5.3440 8.7938
L5.2231 8.8543
" />
<path d="M5.2231 8.8543
L4.9812 8.8543
" />
<path d="M4.9812 8.8543
L4.8602 8.7938
" />
<path d="M4.8602 8.7938
L4.7998 8.6728
" />
<path d="M4.7998 8.6728
L4.7998 8.1890
" />
<path d="M4.7998 8.1890
L4.8602 8.0681
" />
<path d="M4.8602 8.0681
L4.9812 8.0076
" />
<path d="M4.9812 8.0076
L5.2231 8.0076
" />
<path d="M5.2231 8.0076
L5.3440 8.0681
" />
<path d="M5.3440 8.0681
L5.4045 8.1890
" />
<path d="M5.4045 8.1890
L5.4045 8.3100
" />
<path d="M5.4045 8.3100
L4.7998 8.4309
" />
<path d="M6.4931 8.7938
L6.3721 8.8543
" />
<path d="M6.3721 8.8543
L6.1302 8.8543
" />
<path d="M6.1302 8.8543
L6.0093 8.7938
" />
<path d="M6.0093 8.7938
L5.9488 8.7333
" />
<path d="M5.9488 8.7333
L5.8883 8.6124
" />
<path d="M5.8883 8.6124
L5.8883 8.2495
" />
<path d="M5.8883 8.2495
L5.9488 8.1286
" />
<path d="M5.9488 8.1286
L6.0093 8.0681
" />
<path d="M6.0093 8.0681
L6.1302 8.0076
" />
<path d="M6.1302 8.0076
L6.3721 8.0076
" />
<path d="M6.3721 8.0076
L6.4931 8.0681
" />
<path d="M6.8560 8.0076
L7.3398 8.0076
" />
<path d="M7.0374 7.5843
L7.0374 8.6728
" />
<path d="M7.0374 8.6728
L7.0979 8.7938
" />
<path d="M7.0979 8.7938
L7.2188 8.8543
" />
<path d="M7.2188 8.8543
L7.3398 8.8543
" />
<path d="M8.2469 8.7938
L8.1260 8.8543
" />
<path d="M8.1260 8.8543
L7.8840 8.8543
" />
<path d="M7.8840 8.8543
L7.7631 8.7938
" />
<path d="M7.7631 8.7938
L7.7026 8.6728
" />
<path d="M7.7026 8.6728
L7.7026 8.1890
" />
<path d="M7.7026 8.1890
L7.7631 8.0681
" />
<path d="M7.7631 8.0681
L7.8840 8.0076
" />
<path d="M7.8840 8.0076
L8.1260 8.0076
" />
<path d="M8.1260 8.0076
L8.2469 8.0681
" />
<path d="M8.2469 8.0681
L8.3074 8.1890
" />
<path d="M8.3074 8.1890
L8.3074 8.3100
" />
<path d="M8.3074 8.3100
L7.7026 8.4309
" />
<path d="M9.0331 8.8543
L8.9121 8.7938
" />
<path d="M8.9121 8.7938
L8.8517 8.6728
" />
<path d="M8.8517 8.6728
L8.8517 7.5843
" />
<path d="M9.2145 8.9752
L10.1821 8.9752
" />
<path d="M11.0893 8.8543
L10.4845 8.8543
" />
<path d="M10.4845 8.8543
L10.4845 7.5843
" />
<path d="M11.6940 8.1286
L11.5731 8.0681
" />
<path d="M11.5731 8.0681
L11.5126 8.0076
" />
<path d="M11.5126 8.0076
L11.4521 7.8867
" />
<path d="M11.4521 7.8867
L11.4521 7.8262
" />
<path d="M11.4521 7.8262
L11.5126 7.7052
" />
<path d="M11.5126 7.7052
L11.5731 7.6447
" />
<path d="M11.5731 7.6447
L11.6940 7.5843
" />
<path d="M11.6940 7.5843
L11.9360 7.5843
" />
<path d="M11.9360 7.5843
L12.0569 7.6447
" />
<path d="M12.0569 7.6447
L12.1174 7.7052
" />
<path d="M12.1174 7.7052
L12.1779 7.8262
" />
<path d="M12.1779 7.8262
L12.1779 7.8867
" />
<path d="M12.1779 7.8867
L12.1174 8.0076
" />
<path d="M12.1174 8.0076
L12.0569 8.0681
" />
<path d="M12.0569 8.0681
L11.9360 8.1286
" />
<path d="M11.9360 8.1286
L11.6940 8.1286
" />
<path d="M11.6940 8.1286
L11.5731 8.1890
" />
<path d="M11.5731 8.1890
L11.5126 8.2495
" />
<path d="M11.5126 8.2495
L11.4521 8.3705
" />
<path d="M11.4521 8.3705
L11.4521 8.6124
" />
<path d="M11.4521 8.6124
L11.5126 8.7333
" />
<path d="M11.5126 8.7333
L11.5731 8.7938
" />
<path d="M11.5731 8.7938
L11.6940 8.8543
" />
<path d="M11.6940 8.8543
L11.9360 8.8543
" />
<path d="M11.9360 8.8543
L12.0569 8.7938
" />
<path d="M12.0569 8.7938
L12.1174 8.7333
" />
<path d="M12.1174 8.7333
L12.1779 8.6124
" />
<path d="M12.1779 8.6124
L12.1779 8.3705
" />
<path d="M12.1779 8.3705
L12.1174 8.2495
" />
<path d="M12.1174 8.2495
L12.0569 8.1890
" />
<path d="M12.0569 8.1890
L11.9360 8.1286
" />
<path d="M12.9640 7.5843
L13.0850 7.5843
" />
<path d="M13.0850 7.5843
L13.2060 7.6447
" />
<path d="M13.2060 7.6447
L13.2664 7.7052
" />
<path d="M13.2664 7.7052
L13.3269 7.8262
" />
<path d="M13.3269 7.8262
L13.3874 8.0681
" />
<path d="M13.3874 8.0681
L13.3874 8.3705
" />
<path d="M13.3874 8.3705
L13.3269 8.6124
" />
<path d="M13.3269 8.6124
L13.2664 8.7333
" />
<path d="M13.2664 8.7333
L13.2060 8.7938
" />
<path d="M13.2060 8.7938
L13.0850 8.8543
" />
<path d="M13.0850 8.8543
L12.9640 8.8543
" />
<path d="M12.9640 8.8543
L12.8431 8.7938
" />
<path d="M12.8431 8.7938
L12.7826 8.7333
" />
<path d="M12.7826 8.7333
L12.7221 8.6124
" />
<path d="M12.7221 8.6124
L12.6617 8.3705
" />
<path d="M12.6617 8.3705
L12.6617 8.0681
" />
<path d="M12.6617 8.0681
L12.7221 7.8262
" />
<path d="M12.7221 7.8262
L12.7826 7.7052
" />
<path d="M12.7826 7.7052
L12.8431 7.6447
" />
<path d="M12.8431 7.6447
L12.9640 7.5843
" />
<path d="M13.9317 8.3705
L14.8993 8.3705
" />
<path d="M16.2298 8.8543
L15.8064 8.2495
" />
<path d="M15.5040 8.8543
L15.5040 7.5843
" />
<path d="M15.5040 7.5843
L15.9879 7.5843
" />
<path d="M15.9879 7.5843
L16.1088 7.6447
" />
<path d="M16.1088 7.6447
L16.1693 7.7052
" />
<path d="M16.1693 7.7052
L16.2298 7.8262
" />
<path d="M16.2298 7.8262
L16.2298 8.0076
" />
<path d="M16.2298 8.0076
L16.1693 8.1286
" />
<path d="M16.1693 8.1286
L16.1088 8.1890
" />
<path d="M16.1088 8.1890
L15.9879 8.2495
" />
<path d="M15.9879 8.2495
L15.5040 8.2495
" />
</g></g>
<g style="fill:none; 
stroke:#AFAFAF; stroke-width:0.1500; stroke-opacity:1; 
stroke-linecap:round; stroke-linejoin:round;">
<text x="9.2750" y="10.8070"
textLength="4.5357" font-size="1.3333" lengthAdjust="spacingAndGlyphs"
text-anchor="middle" opacity="0">REF**</text>
<g class="stroked-text"><desc>REF**</desc>
<path d="M7.9417 10.7618
L7.6083 10.2856
" />
<path d="M7.3702 10.7618
L7.3702 9.7618
" />
<path d="M7.3702 9.7618
L7.7512 9.7618
" />
<path d="M7.7512 9.7618
L7.8464 9.8094
" />
<path d="M7.8464 9.8094
L7.8940 9.8571
" />
<path d="M7.8940 9.8571
L7.9417 9.9523
" />
<path d="M7.9417 9.9523
L7.9417 10.0952
" />
<path d="M7.9417 10.0952
L7.8940 10.1904
" />
<path d="M7.8940 10.1904
L7.8464 10.2380
" />
<path d="M7.8464 10.2380
L7.7512 10.2856
" />
<path d="M7.7512 10.2856
L7.3702 10.2856
" />
<path d="M8.3702 10.2380
L8.7036 10.2380
" />
<path d="M8.8464 10.7618
L8.3702 10.7618
" />
<path d="M8.3702 10.7618
L8.3702 9.7618
" />
<path d="M8.3702 9.7618
L8.8464 9.7618
" />
<path d="M9.6083 10.2380
L9.2750 10.2380
" />
<path d="M9.2750 10.7618
L9.2750 9.7618
" />
<path d="M9.2750 9.7618
L9.7512 9.7618
" />
<path d="M10.2750 9.7618
L10.2750 9.9999
" />
<path d="M10.0369 9.9047
L10.2750 9.9999
" />
<path d="M10.2750 9.9999
L10.5131 9.9047
" />
<path d="M10.1321 10.1904
L10.2750 9.9999
" />
<path d="M10.2750 9.9999
L10.4179 10.1904
" />
<path d="M11.0369 9.7618
L11.0369 9.9999
" />
<path d="M10.7988 9.9047
L11.0369 9.9999
" />
<path d="M11.0369 9.9999
L11.2750 9.9047
" />
<path d="M10.8940 10.1904
L11.0369 9.9999
" />
<path d="M11.0369 9.9999
L11.1798 10.1904
" />
</g></g>
<g style="fill:none; 
stroke:#AFAFAF; stroke-width:0.1000; stroke-opacity:1; 
stroke-linecap:round; stroke-linejoin:round;">
<path d="M1.2750 16.2750
L1.2750 0.2750
" />
<path d="M17.2750 0.2750
L1.2750 0.2750
" />
<path d="M17.2750 16.2750
L1.2750 16.2750
" />
<path d="M17.2750 16.2750
L17.2750 0.2750
" />
</g>
<g style="fill:none; 
stroke:#5994DC; stroke-width:0.1000; stroke-opacity:1; 
stroke-linecap:round; stroke-linejoin:round;">
<text x="8.6750" y="7.8450"
textLength="2.6200" font-size="0.5333" lengthAdjust="spacingAndGlyphs"
text-anchor="middle" opacity="0">Keepout</text>
<g class="stroked-text"><desc>Keepout</desc>
<path d="M7.5702 7.8248
L7.5702 7.4248
" />
<path d="M7.7988 7.8248
L7.6274 7.5963
" />
<path d="M7.7988 7.4248
L7.5702 7.6534
" />
<path d="M8.1226 7.8058
L8.0845 7.8248
" />
<path d="M8.0845 7.8248
L8.0083 7.8248
" />
<path d="M8.0083 7.8248
L7.9702 7.8058
" />
<path d="M7.9702 7.8058
L7.9512 7.7677
" />
<path d="M7.9512 7.7677
L7.9512 7.6153
" />
<path d="M7.9512 7.6153
L7.9702 7.5772
" />
<path d="M7.9702 7.5772
L8.0083 7.5582
" />
<path d="M8.0083 7.5582
L8.0845 7.5582
" />
<path d="M8.0845 7.5582
L8.1226 7.5772
" />
<path d="M8.1226 7.5772
L8.1417 7.6153
" />
<path d="M8.1417 7.6153
L8.1417 7.6534
" />
<path d="M8.1417 7.6534
L7.9512 7.6915
" />
<path d="M8.4655 7.8058
L8.4274 7.8248
" />
<path d="M8.4274 7.8248
L8.3512 7.8248
" />
<path d="M8.3512 7.8248
L8.3131 7.8058
" />
<path d="M8.3131 7.8058
L8.2940 7.7677
" />
<path d="M8.2940 7.7677
L8.2940 7.6153
" />
<path d="M8.2940 7.6153
L8.3131 7.5772
" />
<path d="M8.3131 7.5772
L8.3512 7.5582
" />
<path d="M8.3512 7.5582
L8.4274 7.5582
" />
<path d="M8.4274 7.5582
L8.4655 7.5772
" />
<path d="M8.4655 7.5772
L8.4845 7.6153
" />
<path d="M8.4845 7.6153
L8.4845 7.6534
" />
<path d="M8.4845 7.6534
L8.2940 7.6915
" />
<path d="M8.6560 7.5582
L8.6560 7.9582
" />
<path d="M8.6560 7.5772
L8.6940 7.5582
" />
<path d="M8.6940 7.5582
L8.7702 7.5582
" />
<path d="M8.7702 7.5582
L8.8083 7.5772
" />
<path d="M8.8083 7.5772
L8.8274 7.5963
" />
<path d="M8.8274 7.5963
L8.8464 7.6344
" />
<path d="M8.8464 7.6344
L8.8464 7.7487
" />
<path d="M8.8464 7.7487
L8.8274 7.7868
" />
<path d="M8.8274 7.7868
L8.8083 7.8058
" />
<path d="M8.8083 7.8058
L8.7702 7.8248
" />
<path d="M8.7702 7.8248
L8.6940 7.8248
" />
<path d="M8.6940 7.8248
L8.6560 7.8058
" />
<path d="M9.0750 7.8248
L9.0369 7.8058
" />
<path d="M9.0369 7.8058
L9.0179 7.7868
" />
<path d="M9.0179 7.7868
L8.9988 7.7487
" />
<path d="M8.9988 7.7487
L8.9988 7.6344
" />
<path d="M8.9988 7.6344
L9.0179 7.5963
" />
<path d="M9.0179 7.5963
L9.0369 7.5772
" />
<path d="M9.0369 7.5772
L9.0750 7.5582
" />
<path d="M9.0750 7.5582
L9.1321 7.5582
" />
<path d="M9.1321 7.5582
L9.1702 7.5772
" />
<path d="M9.1702 7.5772
L9.1893 7.5963
" />
<path d="M9.1893 7.5963
L9.2083 7.6344
" />
<path d="M9.2083 7.6344
L9.2083 7.7487
" />
<path d="M9.2083 7.7487
L9.1893 7.7868
" />
<path d="M9.1893 7.7868
L9.1702 7.8058
" />
<path d="M9.1702 7.8058
L9.1321 7.8248
" />
<path d="M9.1321 7.8248
L9.0750 7.8248
" />
<path d="M9.5512 7.5582
L9.5512 7.8248
" />
<path d="M9.3798 7.5582
L9.3798 7.7677
" />
<path d="M9.3798 7.7677
L9.3988 7.8058
" />
<path d="M9.3988 7.8058
L9.4369 7.8248
" />
<path d="M9.4369 7.8248
L9.4940 7.8248
" />
<path d="M9.4940 7.8248
L9.5321 7.8058
" />
<path d="M9.5321 7.8058
L9.5512 7.7868
" />
<path d="M9.6845 7.5582
L9.8369 7.5582
" />
<path d="M9.7417 7.4248
L9.7417 7.7677
" />
<path d="M9.7417 7.7677
L9.7607 7.8058
" />
<path d="M9.7607 7.8058
L9.7988 7.8248
" />
<path d="M9.7988 7.8248
L9.8369 7.8248
" />
</g></g> 
</svg>
