<?xml version="1.0" standalone="no"?>
 <!DOCTYPE svg PUBLIC "-//W3C//DTD SVG 1.1//EN" 
 "http://www.w3.org/Graphics/SVG/1.1/DTD/svg11.dtd"> 
<svg
  xmlns:svg="http://www.w3.org/2000/svg"
  xmlns="http://www.w3.org/2000/svg"
  xmlns:xlink="http://www.w3.org/1999/xlink"
  version="1.1"
  width="46.0502mm" height="6.7310mm" viewBox="0.0000 0.0000 46.0502 6.7310">
<title>SVG Image created as working-brd.svg date 2024/04/22 02:51:21 </title>
  <desc>Image generated by PCBNEW </desc>
<g style="fill:#000000; fill-opacity:1.0000;stroke:#000000; stroke-opacity:1.0000;
stroke-linecap:round; stroke-linejoin:round;"
 transform="translate(0 0) scale(1 1)">
<path style="fill:#C83434; fill-opacity:1.0000; stroke:none;fill-rule:evenodd;"
d="M 15.8291,1.7900
15.8291,1.1500
17.7341,1.1500
17.7341,1.7900
Z" /> 
<path style="fill:#C83434; fill-opacity:1.0000; stroke:none;fill-rule:evenodd;"
d="M 15.8291,3.0600
15.8291,2.4200
17.7341,2.4200
17.7341,3.0600
Z" /> 
<path style="fill:#C83434; fill-opacity:1.0000; stroke:none;fill-rule:evenodd;"
d="M 15.8291,4.3300
15.8291,3.6900
17.7341,3.6900
17.7341,4.3300
Z" /> 
<path style="fill:#C83434; fill-opacity:1.0000; stroke:none;fill-rule:evenodd;"
d="M 15.8291,5.6000
15.8291,4.9600
17.7341,4.9600
17.7341,5.6000
Z" /> 
<path style="fill:#C83434; fill-opacity:1.0000; stroke:none;fill-rule:evenodd;"
d="M 28.3291,5.6000
28.3291,4.9600
30.2341,4.9600
30.2341,5.6000
Z" /> 
<path style="fill:#C83434; fill-opacity:1.0000; stroke:none;fill-rule:evenodd;"
d="M 28.3291,4.3300
28.3291,3.6900
30.2341,3.6900
30.2341,4.3300
Z" /> 
<path style="fill:#C83434; fill-opacity:1.0000; stroke:none;fill-rule:evenodd;"
d="M 28.3291,3.0600
28.3291,2.4200
30.2341,2.4200
30.2341,3.0600
Z" /> 
<path style="fill:#C83434; fill-opacity:1.0000; stroke:none;fill-rule:evenodd;"
d="M 28.3291,1.7900
28.3291,1.1500
30.2341,1.1500
30.2341,1.7900
Z" /> 
<path style="fill:#D864FF; fill-opacity:0.4000; stroke:none;fill-rule:evenodd;"
d="M 15.8291,1.7900
15.8291,1.1500
17.7341,1.1500
17.7341,1.7900
Z" /> 
<path style="fill:#D864FF; fill-opacity:0.4000; stroke:none;fill-rule:evenodd;"
d="M 15.8291,3.0600
15.8291,2.4200
17.7341,2.4200
17.7341,3.0600
Z" /> 
<path style="fill:#D864FF; fill-opacity:0.4000; stroke:none;fill-rule:evenodd;"
d="M 15.8291,4.3300
15.8291,3.6900
17.7341,3.6900
17.7341,4.3300
Z" /> 
<path style="fill:#D864FF; fill-opacity:0.4000; stroke:none;fill-rule:evenodd;"
d="M 15.8291,5.6000
15.8291,4.9600
17.7341,4.9600
17.7341,5.6000
Z" /> 
<path style="fill:#D864FF; fill-opacity:0.4000; stroke:none;fill-rule:evenodd;"
d="M 28.3291,5.6000
28.3291,4.9600
30.2341,4.9600
30.2341,5.6000
Z" /> 
<path style="fill:#D864FF; fill-opacity:0.4000; stroke:none;fill-rule:evenodd;"
d="M 28.3291,4.3300
28.3291,3.6900
30.2341,3.6900
30.2341,4.3300
Z" /> 
<path style="fill:#D864FF; fill-opacity:0.4000; stroke:none;fill-rule:evenodd;"
d="M 28.3291,3.0600
28.3291,2.4200
30.2341,2.4200
30.2341,3.0600
Z" /> 
<path style="fill:#D864FF; fill-opacity:0.4000; stroke:none;fill-rule:evenodd;"
d="M 28.3291,1.7900
28.3291,1.1500
30.2341,1.1500
30.2341,1.7900
Z" /> 
<path style="fill:#B4A09A; fill-opacity:0.9000; stroke:none;fill-rule:evenodd;"
d="M 15.8291,1.7900
15.8291,1.1500
17.7341,1.1500
17.7341,1.7900
Z" /> 
<path style="fill:#B4A09A; fill-opacity:0.9000; stroke:none;fill-rule:evenodd;"
d="M 15.8291,3.0600
15.8291,2.4200
17.7341,2.4200
17.7341,3.0600
Z" /> 
<path style="fill:#B4A09A; fill-opacity:0.9000; stroke:none;fill-rule:evenodd;"
d="M 15.8291,4.3300
15.8291,3.6900
17.7341,3.6900
17.7341,4.3300
Z" /> 
<path style="fill:#B4A09A; fill-opacity:0.9000; stroke:none;fill-rule:evenodd;"
d="M 15.8291,5.6000
15.8291,4.9600
17.7341,4.9600
17.7341,5.6000
Z" /> 
<path style="fill:#B4A09A; fill-opacity:0.9000; stroke:none;fill-rule:evenodd;"
d="M 28.3291,5.6000
28.3291,4.9600
30.2341,4.9600
30.2341,5.6000
Z" /> 
<path style="fill:#B4A09A; fill-opacity:0.9000; stroke:none;fill-rule:evenodd;"
d="M 28.3291,4.3300
28.3291,3.6900
30.2341,3.6900
30.2341,4.3300
Z" /> 
<path style="fill:#B4A09A; fill-opacity:0.9000; stroke:none;fill-rule:evenodd;"
d="M 28.3291,3.0600
28.3291,2.4200
30.2341,2.4200
30.2341,3.0600
Z" /> 
<path style="fill:#B4A09A; fill-opacity:0.9000; stroke:none;fill-rule:evenodd;"
d="M 28.3291,1.7900
28.3291,1.1500
30.2341,1.1500
30.2341,1.7900
Z" /> 
</g>
<g style="fill:none; 
stroke:#F2EDA1; stroke-width:0.1588; stroke-opacity:1; 
stroke-linecap:round; stroke-linejoin:round;">
<text x="23.0316" y="4.0100"
textLength="5.6651" font-size="1.6933" lengthAdjust="spacingAndGlyphs"
text-anchor="middle" opacity="0">REF**</text>
<g class="stroked-text"><desc>REF**</desc>
<path d="M21.3383 3.9543
L20.9149 3.3495
" />
<path d="M20.6126 3.9543
L20.6126 2.6843
" />
<path d="M20.6126 2.6843
L21.0964 2.6843
" />
<path d="M21.0964 2.6843
L21.2173 2.7447
" />
<path d="M21.2173 2.7447
L21.2778 2.8052
" />
<path d="M21.2778 2.8052
L21.3383 2.9262
" />
<path d="M21.3383 2.9262
L21.3383 3.1076
" />
<path d="M21.3383 3.1076
L21.2778 3.2286
" />
<path d="M21.2778 3.2286
L21.2173 3.2890
" />
<path d="M21.2173 3.2890
L21.0964 3.3495
" />
<path d="M21.0964 3.3495
L20.6126 3.3495
" />
<path d="M21.8826 3.2890
L22.3059 3.2890
" />
<path d="M22.4873 3.9543
L21.8826 3.9543
" />
<path d="M21.8826 3.9543
L21.8826 2.6843
" />
<path d="M21.8826 2.6843
L22.4873 2.6843
" />
<path d="M23.4549 3.2890
L23.0316 3.2890
" />
<path d="M23.0316 3.9543
L23.0316 2.6843
" />
<path d="M23.0316 2.6843
L23.6364 2.6843
" />
<path d="M24.3016 2.6843
L24.3016 2.9867
" />
<path d="M23.9992 2.8657
L24.3016 2.9867
" />
<path d="M24.3016 2.9867
L24.6040 2.8657
" />
<path d="M24.1202 3.2286
L24.3016 2.9867
" />
<path d="M24.3016 2.9867
L24.4830 3.2286
" />
<path d="M25.2692 2.6843
L25.2692 2.9867
" />
<path d="M24.9668 2.8657
L25.2692 2.9867
" />
<path d="M25.2692 2.9867
L25.5716 2.8657
" />
<path d="M25.0878 3.2286
L25.2692 2.9867
" />
<path d="M25.2692 2.9867
L25.4506 3.2286
" />
</g></g>
<g style="fill:none; 
stroke:#F2EDA1; stroke-width:0.1200; stroke-opacity:1; 
stroke-linecap:round; stroke-linejoin:round;">
<path d="M18.0316 0.0750
L28.0316 0.0750
" />
<path d="M18.0316 0.9750
L18.0316 0.0750
" />
<path d="M18.0316 6.6750
L18.0316 5.7750
" />
<path d="M28.0316 0.0750
L28.0316 0.9750
" />
<path d="M28.0316 5.7750
L28.0316 6.6750
" />
<path d="M28.0316 6.6750
L18.0316 6.6750
" />
<path style="fill:#F2EDA1; fill-opacity:1.0000; 
stroke:#F2EDA1; stroke-width:0.1200; stroke-opacity:1; 
stroke-linecap:round; stroke-linejoin:round;fill-rule:evenodd;"
d="M 17.4816,0.8000
17.2416,0.4700
17.7216,0.4700
Z" /> 
</g>
<g style="fill:none; 
stroke:#FF26E2; stroke-width:0.0500; stroke-opacity:1; 
stroke-linecap:round; stroke-linejoin:round;">
<path d="M15.5816 0.0250
L15.5816 6.7250
" />
<path d="M15.5816 0.0250
L30.4816 0.0250
" />
<path d="M30.4816 6.7250
L15.5816 6.7250
" />
<path d="M30.4816 6.7250
L30.4816 0.0250
" />
</g>
<g style="fill:none; 
stroke:#AFAFAF; stroke-width:0.1588; stroke-opacity:1; 
stroke-linecap:round; stroke-linejoin:round;">
<text x="23.0316" y="4.0100"
textLength="46.0632" font-size="1.6933" lengthAdjust="spacingAndGlyphs"
text-anchor="middle" opacity="0">SSO-8_9.6x6.3mm_P1.27mm_Clearance10.5mm</text>
<g class="stroked-text"><desc>SSO-8_9.6x6.3mm_P1.27mm_Clearance10.5mm</desc>
<path d="M0.3530 3.8938
L0.5345 3.9543
" />
<path d="M0.5345 3.9543
L0.8368 3.9543
" />
<path d="M0.8368 3.9543
L0.9578 3.8938
" />
<path d="M0.9578 3.8938
L1.0183 3.8333
" />
<path d="M1.0183 3.8333
L1.0787 3.7124
" />
<path d="M1.0787 3.7124
L1.0787 3.5914
" />
<path d="M1.0787 3.5914
L1.0183 3.4705
" />
<path d="M1.0183 3.4705
L0.9578 3.4100
" />
<path d="M0.9578 3.4100
L0.8368 3.3495
" />
<path d="M0.8368 3.3495
L0.5949 3.2890
" />
<path d="M0.5949 3.2890
L0.4740 3.2286
" />
<path d="M0.4740 3.2286
L0.4135 3.1681
" />
<path d="M0.4135 3.1681
L0.3530 3.0471
" />
<path d="M0.3530 3.0471
L0.3530 2.9262
" />
<path d="M0.3530 2.9262
L0.4135 2.8052
" />
<path d="M0.4135 2.8052
L0.4740 2.7447
" />
<path d="M0.4740 2.7447
L0.5949 2.6843
" />
<path d="M0.5949 2.6843
L0.8973 2.6843
" />
<path d="M0.8973 2.6843
L1.0787 2.7447
" />
<path d="M1.5626 3.8938
L1.7440 3.9543
" />
<path d="M1.7440 3.9543
L2.0464 3.9543
" />
<path d="M2.0464 3.9543
L2.1673 3.8938
" />
<path d="M2.1673 3.8938
L2.2278 3.8333
" />
<path d="M2.2278 3.8333
L2.2883 3.7124
" />
<path d="M2.2883 3.7124
L2.2883 3.5914
" />
<path d="M2.2883 3.5914
L2.2278 3.4705
" />
<path d="M2.2278 3.4705
L2.1673 3.4100
" />
<path d="M2.1673 3.4100
L2.0464 3.3495
" />
<path d="M2.0464 3.3495
L1.8045 3.2890
" />
<path d="M1.8045 3.2890
L1.6835 3.2286
" />
<path d="M1.6835 3.2286
L1.6230 3.1681
" />
<path d="M1.6230 3.1681
L1.5626 3.0471
" />
<path d="M1.5626 3.0471
L1.5626 2.9262
" />
<path d="M1.5626 2.9262
L1.6230 2.8052
" />
<path d="M1.6230 2.8052
L1.6835 2.7447
" />
<path d="M1.6835 2.7447
L1.8045 2.6843
" />
<path d="M1.8045 2.6843
L2.1068 2.6843
" />
<path d="M2.1068 2.6843
L2.2883 2.7447
" />
<path d="M3.0745 2.6843
L3.3164 2.6843
" />
<path d="M3.3164 2.6843
L3.4373 2.7447
" />
<path d="M3.4373 2.7447
L3.5583 2.8657
" />
<path d="M3.5583 2.8657
L3.6187 3.1076
" />
<path d="M3.6187 3.1076
L3.6187 3.5309
" />
<path d="M3.6187 3.5309
L3.5583 3.7728
" />
<path d="M3.5583 3.7728
L3.4373 3.8938
" />
<path d="M3.4373 3.8938
L3.3164 3.9543
" />
<path d="M3.3164 3.9543
L3.0745 3.9543
" />
<path d="M3.0745 3.9543
L2.9535 3.8938
" />
<path d="M2.9535 3.8938
L2.8326 3.7728
" />
<path d="M2.8326 3.7728
L2.7721 3.5309
" />
<path d="M2.7721 3.5309
L2.7721 3.1076
" />
<path d="M2.7721 3.1076
L2.8326 2.8657
" />
<path d="M2.8326 2.8657
L2.9535 2.7447
" />
<path d="M2.9535 2.7447
L3.0745 2.6843
" />
<path d="M4.1630 3.4705
L5.1306 3.4705
" />
<path d="M5.9168 3.2286
L5.7959 3.1681
" />
<path d="M5.7959 3.1681
L5.7354 3.1076
" />
<path d="M5.7354 3.1076
L5.6749 2.9867
" />
<path d="M5.6749 2.9867
L5.6749 2.9262
" />
<path d="M5.6749 2.9262
L5.7354 2.8052
" />
<path d="M5.7354 2.8052
L5.7959 2.7447
" />
<path d="M5.7959 2.7447
L5.9168 2.6843
" />
<path d="M5.9168 2.6843
L6.1587 2.6843
" />
<path d="M6.1587 2.6843
L6.2797 2.7447
" />
<path d="M6.2797 2.7447
L6.3402 2.8052
" />
<path d="M6.3402 2.8052
L6.4006 2.9262
" />
<path d="M6.4006 2.9262
L6.4006 2.9867
" />
<path d="M6.4006 2.9867
L6.3402 3.1076
" />
<path d="M6.3402 3.1076
L6.2797 3.1681
" />
<path d="M6.2797 3.1681
L6.1587 3.2286
" />
<path d="M6.1587 3.2286
L5.9168 3.2286
" />
<path d="M5.9168 3.2286
L5.7959 3.2890
" />
<path d="M5.7959 3.2890
L5.7354 3.3495
" />
<path d="M5.7354 3.3495
L5.6749 3.4705
" />
<path d="M5.6749 3.4705
L5.6749 3.7124
" />
<path d="M5.6749 3.7124
L5.7354 3.8333
" />
<path d="M5.7354 3.8333
L5.7959 3.8938
" />
<path d="M5.7959 3.8938
L5.9168 3.9543
" />
<path d="M5.9168 3.9543
L6.1587 3.9543
" />
<path d="M6.1587 3.9543
L6.2797 3.8938
" />
<path d="M6.2797 3.8938
L6.3402 3.8333
" />
<path d="M6.3402 3.8333
L6.4006 3.7124
" />
<path d="M6.4006 3.7124
L6.4006 3.4705
" />
<path d="M6.4006 3.4705
L6.3402 3.3495
" />
<path d="M6.3402 3.3495
L6.2797 3.2890
" />
<path d="M6.2797 3.2890
L6.1587 3.2286
" />
<path d="M6.6426 4.0752
L7.6102 4.0752
" />
<path d="M7.9730 3.9543
L8.2149 3.9543
" />
<path d="M8.2149 3.9543
L8.3359 3.8938
" />
<path d="M8.3359 3.8938
L8.3964 3.8333
" />
<path d="M8.3964 3.8333
L8.5173 3.6519
" />
<path d="M8.5173 3.6519
L8.5778 3.4100
" />
<path d="M8.5778 3.4100
L8.5778 2.9262
" />
<path d="M8.5778 2.9262
L8.5173 2.8052
" />
<path d="M8.5173 2.8052
L8.4568 2.7447
" />
<path d="M8.4568 2.7447
L8.3359 2.6843
" />
<path d="M8.3359 2.6843
L8.0940 2.6843
" />
<path d="M8.0940 2.6843
L7.9730 2.7447
" />
<path d="M7.9730 2.7447
L7.9126 2.8052
" />
<path d="M7.9126 2.8052
L7.8521 2.9262
" />
<path d="M7.8521 2.9262
L7.8521 3.2286
" />
<path d="M7.8521 3.2286
L7.9126 3.3495
" />
<path d="M7.9126 3.3495
L7.9730 3.4100
" />
<path d="M7.9730 3.4100
L8.0940 3.4705
" />
<path d="M8.0940 3.4705
L8.3359 3.4705
" />
<path d="M8.3359 3.4705
L8.4568 3.4100
" />
<path d="M8.4568 3.4100
L8.5173 3.3495
" />
<path d="M8.5173 3.3495
L8.5778 3.2286
" />
<path d="M9.1221 3.8333
L9.1826 3.8938
" />
<path d="M9.1826 3.8938
L9.1221 3.9543
" />
<path d="M9.1221 3.9543
L9.0616 3.8938
" />
<path d="M9.0616 3.8938
L9.1221 3.8333
" />
<path d="M9.1221 3.8333
L9.1221 3.9543
" />
<path d="M10.2711 2.6843
L10.0292 2.6843
" />
<path d="M10.0292 2.6843
L9.9083 2.7447
" />
<path d="M9.9083 2.7447
L9.8478 2.8052
" />
<path d="M9.8478 2.8052
L9.7268 2.9867
" />
<path d="M9.7268 2.9867
L9.6664 3.2286
" />
<path d="M9.6664 3.2286
L9.6664 3.7124
" />
<path d="M9.6664 3.7124
L9.7268 3.8333
" />
<path d="M9.7268 3.8333
L9.7873 3.8938
" />
<path d="M9.7873 3.8938
L9.9083 3.9543
" />
<path d="M9.9083 3.9543
L10.1502 3.9543
" />
<path d="M10.1502 3.9543
L10.2711 3.8938
" />
<path d="M10.2711 3.8938
L10.3316 3.8333
" />
<path d="M10.3316 3.8333
L10.3921 3.7124
" />
<path d="M10.3921 3.7124
L10.3921 3.4100
" />
<path d="M10.3921 3.4100
L10.3316 3.2890
" />
<path d="M10.3316 3.2890
L10.2711 3.2286
" />
<path d="M10.2711 3.2286
L10.1502 3.1681
" />
<path d="M10.1502 3.1681
L9.9083 3.1681
" />
<path d="M9.9083 3.1681
L9.7873 3.2286
" />
<path d="M9.7873 3.2286
L9.7268 3.2890
" />
<path d="M9.7268 3.2890
L9.6664 3.4100
" />
<path d="M10.8154 3.9543
L11.4806 3.1076
" />
<path d="M10.8154 3.1076
L11.4806 3.9543
" />
<path d="M12.5087 2.6843
L12.2668 2.6843
" />
<path d="M12.2668 2.6843
L12.1459 2.7447
" />
<path d="M12.1459 2.7447
L12.0854 2.8052
" />
<path d="M12.0854 2.8052
L11.9645 2.9867
" />
<path d="M11.9645 2.9867
L11.9040 3.2286
" />
<path d="M11.9040 3.2286
L11.9040 3.7124
" />
<path d="M11.9040 3.7124
L11.9645 3.8333
" />
<path d="M11.9645 3.8333
L12.0249 3.8938
" />
<path d="M12.0249 3.8938
L12.1459 3.9543
" />
<path d="M12.1459 3.9543
L12.3878 3.9543
" />
<path d="M12.3878 3.9543
L12.5087 3.8938
" />
<path d="M12.5087 3.8938
L12.5692 3.8333
" />
<path d="M12.5692 3.8333
L12.6297 3.7124
" />
<path d="M12.6297 3.7124
L12.6297 3.4100
" />
<path d="M12.6297 3.4100
L12.5692 3.2890
" />
<path d="M12.5692 3.2890
L12.5087 3.2286
" />
<path d="M12.5087 3.2286
L12.3878 3.1681
" />
<path d="M12.3878 3.1681
L12.1459 3.1681
" />
<path d="M12.1459 3.1681
L12.0249 3.2286
" />
<path d="M12.0249 3.2286
L11.9645 3.2890
" />
<path d="M11.9645 3.2890
L11.9040 3.4100
" />
<path d="M13.1740 3.8333
L13.2345 3.8938
" />
<path d="M13.2345 3.8938
L13.1740 3.9543
" />
<path d="M13.1740 3.9543
L13.1135 3.8938
" />
<path d="M13.1135 3.8938
L13.1740 3.8333
" />
<path d="M13.1740 3.8333
L13.1740 3.9543
" />
<path d="M13.6578 2.6843
L14.4440 2.6843
" />
<path d="M14.4440 2.6843
L14.0206 3.1681
" />
<path d="M14.0206 3.1681
L14.2021 3.1681
" />
<path d="M14.2021 3.1681
L14.3230 3.2286
" />
<path d="M14.3230 3.2286
L14.3835 3.2890
" />
<path d="M14.3835 3.2890
L14.4440 3.4100
" />
<path d="M14.4440 3.4100
L14.4440 3.7124
" />
<path d="M14.4440 3.7124
L14.3835 3.8333
" />
<path d="M14.3835 3.8333
L14.3230 3.8938
" />
<path d="M14.3230 3.8938
L14.2021 3.9543
" />
<path d="M14.2021 3.9543
L13.8392 3.9543
" />
<path d="M13.8392 3.9543
L13.7183 3.8938
" />
<path d="M13.7183 3.8938
L13.6578 3.8333
" />
<path d="M14.9883 3.9543
L14.9883 3.1076
" />
<path d="M14.9883 3.2286
L15.0487 3.1681
" />
<path d="M15.0487 3.1681
L15.1697 3.1076
" />
<path d="M15.1697 3.1076
L15.3511 3.1076
" />
<path d="M15.3511 3.1076
L15.4721 3.1681
" />
<path d="M15.4721 3.1681
L15.5326 3.2890
" />
<path d="M15.5326 3.2890
L15.5326 3.9543
" />
<path d="M15.5326 3.2890
L15.5930 3.1681
" />
<path d="M15.5930 3.1681
L15.7140 3.1076
" />
<path d="M15.7140 3.1076
L15.8954 3.1076
" />
<path d="M15.8954 3.1076
L16.0164 3.1681
" />
<path d="M16.0164 3.1681
L16.0768 3.2890
" />
<path d="M16.0768 3.2890
L16.0768 3.9543
" />
<path d="M16.6816 3.9543
L16.6816 3.1076
" />
<path d="M16.6816 3.2286
L16.7421 3.1681
" />
<path d="M16.7421 3.1681
L16.8630 3.1076
" />
<path d="M16.8630 3.1076
L17.0445 3.1076
" />
<path d="M17.0445 3.1076
L17.1654 3.1681
" />
<path d="M17.1654 3.1681
L17.2259 3.2890
" />
<path d="M17.2259 3.2890
L17.2259 3.9543
" />
<path d="M17.2259 3.2890
L17.2864 3.1681
" />
<path d="M17.2864 3.1681
L17.4073 3.1076
" />
<path d="M17.4073 3.1076
L17.5887 3.1076
" />
<path d="M17.5887 3.1076
L17.7097 3.1681
" />
<path d="M17.7097 3.1681
L17.7702 3.2890
" />
<path d="M17.7702 3.2890
L17.7702 3.9543
" />
<path d="M18.0726 4.0752
L19.0402 4.0752
" />
<path d="M19.3426 3.9543
L19.3426 2.6843
" />
<path d="M19.3426 2.6843
L19.8264 2.6843
" />
<path d="M19.8264 2.6843
L19.9473 2.7447
" />
<path d="M19.9473 2.7447
L20.0078 2.8052
" />
<path d="M20.0078 2.8052
L20.0683 2.9262
" />
<path d="M20.0683 2.9262
L20.0683 3.1076
" />
<path d="M20.0683 3.1076
L20.0078 3.2286
" />
<path d="M20.0078 3.2286
L19.9473 3.2890
" />
<path d="M19.9473 3.2890
L19.8264 3.3495
" />
<path d="M19.8264 3.3495
L19.3426 3.3495
" />
<path d="M21.2778 3.9543
L20.5521 3.9543
" />
<path d="M20.9149 3.9543
L20.9149 2.6843
" />
<path d="M20.9149 2.6843
L20.7940 2.8657
" />
<path d="M20.7940 2.8657
L20.6730 2.9867
" />
<path d="M20.6730 2.9867
L20.5521 3.0471
" />
<path d="M21.8221 3.8333
L21.8826 3.8938
" />
<path d="M21.8826 3.8938
L21.8221 3.9543
" />
<path d="M21.8221 3.9543
L21.7616 3.8938
" />
<path d="M21.7616 3.8938
L21.8221 3.8333
" />
<path d="M21.8221 3.8333
L21.8221 3.9543
" />
<path d="M22.3664 2.8052
L22.4268 2.7447
" />
<path d="M22.4268 2.7447
L22.5478 2.6843
" />
<path d="M22.5478 2.6843
L22.8502 2.6843
" />
<path d="M22.8502 2.6843
L22.9711 2.7447
" />
<path d="M22.9711 2.7447
L23.0316 2.8052
" />
<path d="M23.0316 2.8052
L23.0921 2.9262
" />
<path d="M23.0921 2.9262
L23.0921 3.0471
" />
<path d="M23.0921 3.0471
L23.0316 3.2286
" />
<path d="M23.0316 3.2286
L22.3059 3.9543
" />
<path d="M22.3059 3.9543
L23.0921 3.9543
" />
<path d="M23.5154 2.6843
L24.3621 2.6843
" />
<path d="M24.3621 2.6843
L23.8178 3.9543
" />
<path d="M24.8459 3.9543
L24.8459 3.1076
" />
<path d="M24.8459 3.2286
L24.9064 3.1681
" />
<path d="M24.9064 3.1681
L25.0273 3.1076
" />
<path d="M25.0273 3.1076
L25.2087 3.1076
" />
<path d="M25.2087 3.1076
L25.3297 3.1681
" />
<path d="M25.3297 3.1681
L25.3902 3.2890
" />
<path d="M25.3902 3.2890
L25.3902 3.9543
" />
<path d="M25.3902 3.2890
L25.4506 3.1681
" />
<path d="M25.4506 3.1681
L25.5716 3.1076
" />
<path d="M25.5716 3.1076
L25.7530 3.1076
" />
<path d="M25.7530 3.1076
L25.8740 3.1681
" />
<path d="M25.8740 3.1681
L25.9345 3.2890
" />
<path d="M25.9345 3.2890
L25.9345 3.9543
" />
<path d="M26.5392 3.9543
L26.5392 3.1076
" />
<path d="M26.5392 3.2286
L26.5997 3.1681
" />
<path d="M26.5997 3.1681
L26.7206 3.1076
" />
<path d="M26.7206 3.1076
L26.9021 3.1076
" />
<path d="M26.9021 3.1076
L27.0230 3.1681
" />
<path d="M27.0230 3.1681
L27.0835 3.2890
" />
<path d="M27.0835 3.2890
L27.0835 3.9543
" />
<path d="M27.0835 3.2890
L27.1440 3.1681
" />
<path d="M27.1440 3.1681
L27.2649 3.1076
" />
<path d="M27.2649 3.1076
L27.4464 3.1076
" />
<path d="M27.4464 3.1076
L27.5673 3.1681
" />
<path d="M27.5673 3.1681
L27.6278 3.2890
" />
<path d="M27.6278 3.2890
L27.6278 3.9543
" />
<path d="M27.9302 4.0752
L28.8978 4.0752
" />
<path d="M29.9259 3.8333
L29.8654 3.8938
" />
<path d="M29.8654 3.8938
L29.6840 3.9543
" />
<path d="M29.6840 3.9543
L29.5630 3.9543
" />
<path d="M29.5630 3.9543
L29.3816 3.8938
" />
<path d="M29.3816 3.8938
L29.2606 3.7728
" />
<path d="M29.2606 3.7728
L29.2002 3.6519
" />
<path d="M29.2002 3.6519
L29.1397 3.4100
" />
<path d="M29.1397 3.4100
L29.1397 3.2286
" />
<path d="M29.1397 3.2286
L29.2002 2.9867
" />
<path d="M29.2002 2.9867
L29.2606 2.8657
" />
<path d="M29.2606 2.8657
L29.3816 2.7447
" />
<path d="M29.3816 2.7447
L29.5630 2.6843
" />
<path d="M29.5630 2.6843
L29.6840 2.6843
" />
<path d="M29.6840 2.6843
L29.8654 2.7447
" />
<path d="M29.8654 2.7447
L29.9259 2.8052
" />
<path d="M30.6516 3.9543
L30.5306 3.8938
" />
<path d="M30.5306 3.8938
L30.4702 3.7728
" />
<path d="M30.4702 3.7728
L30.4702 2.6843
" />
<path d="M31.6192 3.8938
L31.4983 3.9543
" />
<path d="M31.4983 3.9543
L31.2564 3.9543
" />
<path d="M31.2564 3.9543
L31.1354 3.8938
" />
<path d="M31.1354 3.8938
L31.0749 3.7728
" />
<path d="M31.0749 3.7728
L31.0749 3.2890
" />
<path d="M31.0749 3.2890
L31.1354 3.1681
" />
<path d="M31.1354 3.1681
L31.2564 3.1076
" />
<path d="M31.2564 3.1076
L31.4983 3.1076
" />
<path d="M31.4983 3.1076
L31.6192 3.1681
" />
<path d="M31.6192 3.1681
L31.6797 3.2890
" />
<path d="M31.6797 3.2890
L31.6797 3.4100
" />
<path d="M31.6797 3.4100
L31.0749 3.5309
" />
<path d="M32.7683 3.9543
L32.7683 3.2890
" />
<path d="M32.7683 3.2890
L32.7078 3.1681
" />
<path d="M32.7078 3.1681
L32.5868 3.1076
" />
<path d="M32.5868 3.1076
L32.3449 3.1076
" />
<path d="M32.3449 3.1076
L32.2240 3.1681
" />
<path d="M32.7683 3.8938
L32.6473 3.9543
" />
<path d="M32.6473 3.9543
L32.3449 3.9543
" />
<path d="M32.3449 3.9543
L32.2240 3.8938
" />
<path d="M32.2240 3.8938
L32.1635 3.7728
" />
<path d="M32.1635 3.7728
L32.1635 3.6519
" />
<path d="M32.1635 3.6519
L32.2240 3.5309
" />
<path d="M32.2240 3.5309
L32.3449 3.4705
" />
<path d="M32.3449 3.4705
L32.6473 3.4705
" />
<path d="M32.6473 3.4705
L32.7683 3.4100
" />
<path d="M33.3730 3.9543
L33.3730 3.1076
" />
<path d="M33.3730 3.3495
L33.4335 3.2286
" />
<path d="M33.4335 3.2286
L33.4940 3.1681
" />
<path d="M33.4940 3.1681
L33.6149 3.1076
" />
<path d="M33.6149 3.1076
L33.7359 3.1076
" />
<path d="M34.7035 3.9543
L34.7035 3.2890
" />
<path d="M34.7035 3.2890
L34.6430 3.1681
" />
<path d="M34.6430 3.1681
L34.5221 3.1076
" />
<path d="M34.5221 3.1076
L34.2802 3.1076
" />
<path d="M34.2802 3.1076
L34.1592 3.1681
" />
<path d="M34.7035 3.8938
L34.5826 3.9543
" />
<path d="M34.5826 3.9543
L34.2802 3.9543
" />
<path d="M34.2802 3.9543
L34.1592 3.8938
" />
<path d="M34.1592 3.8938
L34.0987 3.7728
" />
<path d="M34.0987 3.7728
L34.0987 3.6519
" />
<path d="M34.0987 3.6519
L34.1592 3.5309
" />
<path d="M34.1592 3.5309
L34.2802 3.4705
" />
<path d="M34.2802 3.4705
L34.5826 3.4705
" />
<path d="M34.5826 3.4705
L34.7035 3.4100
" />
<path d="M35.3083 3.1076
L35.3083 3.9543
" />
<path d="M35.3083 3.2286
L35.3687 3.1681
" />
<path d="M35.3687 3.1681
L35.4897 3.1076
" />
<path d="M35.4897 3.1076
L35.6711 3.1076
" />
<path d="M35.6711 3.1076
L35.7921 3.1681
" />
<path d="M35.7921 3.1681
L35.8526 3.2890
" />
<path d="M35.8526 3.2890
L35.8526 3.9543
" />
<path d="M37.0016 3.8938
L36.8806 3.9543
" />
<path d="M36.8806 3.9543
L36.6387 3.9543
" />
<path d="M36.6387 3.9543
L36.5178 3.8938
" />
<path d="M36.5178 3.8938
L36.4573 3.8333
" />
<path d="M36.4573 3.8333
L36.3968 3.7124
" />
<path d="M36.3968 3.7124
L36.3968 3.3495
" />
<path d="M36.3968 3.3495
L36.4573 3.2286
" />
<path d="M36.4573 3.2286
L36.5178 3.1681
" />
<path d="M36.5178 3.1681
L36.6387 3.1076
" />
<path d="M36.6387 3.1076
L36.8806 3.1076
" />
<path d="M36.8806 3.1076
L37.0016 3.1681
" />
<path d="M38.0297 3.8938
L37.9087 3.9543
" />
<path d="M37.9087 3.9543
L37.6668 3.9543
" />
<path d="M37.6668 3.9543
L37.5459 3.8938
" />
<path d="M37.5459 3.8938
L37.4854 3.7728
" />
<path d="M37.4854 3.7728
L37.4854 3.2890
" />
<path d="M37.4854 3.2890
L37.5459 3.1681
" />
<path d="M37.5459 3.1681
L37.6668 3.1076
" />
<path d="M37.6668 3.1076
L37.9087 3.1076
" />
<path d="M37.9087 3.1076
L38.0297 3.1681
" />
<path d="M38.0297 3.1681
L38.0902 3.2890
" />
<path d="M38.0902 3.2890
L38.0902 3.4100
" />
<path d="M38.0902 3.4100
L37.4854 3.5309
" />
<path d="M39.2997 3.9543
L38.5740 3.9543
" />
<path d="M38.9368 3.9543
L38.9368 2.6843
" />
<path d="M38.9368 2.6843
L38.8159 2.8657
" />
<path d="M38.8159 2.8657
L38.6949 2.9867
" />
<path d="M38.6949 2.9867
L38.5740 3.0471
" />
<path d="M40.0859 2.6843
L40.2068 2.6843
" />
<path d="M40.2068 2.6843
L40.3278 2.7447
" />
<path d="M40.3278 2.7447
L40.3883 2.8052
" />
<path d="M40.3883 2.8052
L40.4487 2.9262
" />
<path d="M40.4487 2.9262
L40.5092 3.1681
" />
<path d="M40.5092 3.1681
L40.5092 3.4705
" />
<path d="M40.5092 3.4705
L40.4487 3.7124
" />
<path d="M40.4487 3.7124
L40.3883 3.8333
" />
<path d="M40.3883 3.8333
L40.3278 3.8938
" />
<path d="M40.3278 3.8938
L40.2068 3.9543
" />
<path d="M40.2068 3.9543
L40.0859 3.9543
" />
<path d="M40.0859 3.9543
L39.9649 3.8938
" />
<path d="M39.9649 3.8938
L39.9045 3.8333
" />
<path d="M39.9045 3.8333
L39.8440 3.7124
" />
<path d="M39.8440 3.7124
L39.7835 3.4705
" />
<path d="M39.7835 3.4705
L39.7835 3.1681
" />
<path d="M39.7835 3.1681
L39.8440 2.9262
" />
<path d="M39.8440 2.9262
L39.9045 2.8052
" />
<path d="M39.9045 2.8052
L39.9649 2.7447
" />
<path d="M39.9649 2.7447
L40.0859 2.6843
" />
<path d="M41.0535 3.8333
L41.1140 3.8938
" />
<path d="M41.1140 3.8938
L41.0535 3.9543
" />
<path d="M41.0535 3.9543
L40.9930 3.8938
" />
<path d="M40.9930 3.8938
L41.0535 3.8333
" />
<path d="M41.0535 3.8333
L41.0535 3.9543
" />
<path d="M42.2630 2.6843
L41.6583 2.6843
" />
<path d="M41.6583 2.6843
L41.5978 3.2890
" />
<path d="M41.5978 3.2890
L41.6583 3.2286
" />
<path d="M41.6583 3.2286
L41.7792 3.1681
" />
<path d="M41.7792 3.1681
L42.0816 3.1681
" />
<path d="M42.0816 3.1681
L42.2026 3.2286
" />
<path d="M42.2026 3.2286
L42.2630 3.2890
" />
<path d="M42.2630 3.2890
L42.3235 3.4100
" />
<path d="M42.3235 3.4100
L42.3235 3.7124
" />
<path d="M42.3235 3.7124
L42.2630 3.8333
" />
<path d="M42.2630 3.8333
L42.2026 3.8938
" />
<path d="M42.2026 3.8938
L42.0816 3.9543
" />
<path d="M42.0816 3.9543
L41.7792 3.9543
" />
<path d="M41.7792 3.9543
L41.6583 3.8938
" />
<path d="M41.6583 3.8938
L41.5978 3.8333
" />
<path d="M42.8678 3.9543
L42.8678 3.1076
" />
<path d="M42.8678 3.2286
L42.9283 3.1681
" />
<path d="M42.9283 3.1681
L43.0492 3.1076
" />
<path d="M43.0492 3.1076
L43.2306 3.1076
" />
<path d="M43.2306 3.1076
L43.3516 3.1681
" />
<path d="M43.3516 3.1681
L43.4121 3.2890
" />
<path d="M43.4121 3.2890
L43.4121 3.9543
" />
<path d="M43.4121 3.2890
L43.4726 3.1681
" />
<path d="M43.4726 3.1681
L43.5935 3.1076
" />
<path d="M43.5935 3.1076
L43.7749 3.1076
" />
<path d="M43.7749 3.1076
L43.8959 3.1681
" />
<path d="M43.8959 3.1681
L43.9564 3.2890
" />
<path d="M43.9564 3.2890
L43.9564 3.9543
" />
<path d="M44.5611 3.9543
L44.5611 3.1076
" />
<path d="M44.5611 3.2286
L44.6216 3.1681
" />
<path d="M44.6216 3.1681
L44.7426 3.1076
" />
<path d="M44.7426 3.1076
L44.9240 3.1076
" />
<path d="M44.9240 3.1076
L45.0449 3.1681
" />
<path d="M45.0449 3.1681
L45.1054 3.2890
" />
<path d="M45.1054 3.2890
L45.1054 3.9543
" />
<path d="M45.1054 3.2890
L45.1659 3.1681
" />
<path d="M45.1659 3.1681
L45.2868 3.1076
" />
<path d="M45.2868 3.1076
L45.4683 3.1076
" />
<path d="M45.4683 3.1076
L45.5892 3.1681
" />
<path d="M45.5892 3.1681
L45.6497 3.2890
" />
<path d="M45.6497 3.2890
L45.6497 3.9543
" />
</g></g>
<g style="fill:none; 
stroke:#AFAFAF; stroke-width:0.1500; stroke-opacity:1; 
stroke-linecap:round; stroke-linejoin:round;">
<text x="23.0316" y="3.8750"
textLength="4.5357" font-size="1.3333" lengthAdjust="spacingAndGlyphs"
text-anchor="middle" opacity="0">REF**</text>
<g class="stroked-text"><desc>REF**</desc>
<path d="M21.6983 3.8298
L21.3649 3.3536
" />
<path d="M21.1268 3.8298
L21.1268 2.8298
" />
<path d="M21.1268 2.8298
L21.5078 2.8298
" />
<path d="M21.5078 2.8298
L21.6030 2.8774
" />
<path d="M21.6030 2.8774
L21.6506 2.9251
" />
<path d="M21.6506 2.9251
L21.6983 3.0203
" />
<path d="M21.6983 3.0203
L21.6983 3.1632
" />
<path d="M21.6983 3.1632
L21.6506 3.2584
" />
<path d="M21.6506 3.2584
L21.6030 3.3060
" />
<path d="M21.6030 3.3060
L21.5078 3.3536
" />
<path d="M21.5078 3.3536
L21.1268 3.3536
" />
<path d="M22.1268 3.3060
L22.4602 3.3060
" />
<path d="M22.6030 3.8298
L22.1268 3.8298
" />
<path d="M22.1268 3.8298
L22.1268 2.8298
" />
<path d="M22.1268 2.8298
L22.6030 2.8298
" />
<path d="M23.3649 3.3060
L23.0316 3.3060
" />
<path d="M23.0316 3.8298
L23.0316 2.8298
" />
<path d="M23.0316 2.8298
L23.5078 2.8298
" />
<path d="M24.0316 2.8298
L24.0316 3.0679
" />
<path d="M23.7935 2.9727
L24.0316 3.0679
" />
<path d="M24.0316 3.0679
L24.2697 2.9727
" />
<path d="M23.8887 3.2584
L24.0316 3.0679
" />
<path d="M24.0316 3.0679
L24.1745 3.2584
" />
<path d="M24.7935 2.8298
L24.7935 3.0679
" />
<path d="M24.5554 2.9727
L24.7935 3.0679
" />
<path d="M24.7935 3.0679
L25.0316 2.9727
" />
<path d="M24.6506 3.2584
L24.7935 3.0679
" />
<path d="M24.7935 3.0679
L24.9364 3.2584
" />
</g></g>
<g style="fill:none; 
stroke:#AFAFAF; stroke-width:0.1200; stroke-opacity:1; 
stroke-linecap:round; stroke-linejoin:round;">
<path d="M18.2316 1.2750
L18.2316 6.4750
" />
<path d="M18.2316 6.4750
L27.8316 6.4750
" />
<path d="M19.2316 0.2750
L18.2316 1.2750
" />
<path d="M27.8316 0.2750
L19.2316 0.2750
" />
<path d="M27.8316 6.4750
L27.8316 0.2750
" />
</g> 
</svg>
