<?xml version="1.0" standalone="no"?>
 <!DOCTYPE svg PUBLIC "-//W3C//DTD SVG 1.1//EN" 
 "http://www.w3.org/Graphics/SVG/1.1/DTD/svg11.dtd"> 
<svg
  xmlns:svg="http://www.w3.org/2000/svg"
  xmlns="http://www.w3.org/2000/svg"
  xmlns:xlink="http://www.w3.org/1999/xlink"
  version="1.1"
  width="58.0898mm" height="72.2122mm" viewBox="0.0000 0.0000 58.0898 72.2122">
<title>SVG Image created as working-brd.svg date 2024/04/06 16:15:35 </title>
  <desc>Image generated by PCBNEW </desc>
<g style="fill:#000000; fill-opacity:1.0000;stroke:#000000; stroke-opacity:1.0000;
stroke-linecap:round; stroke-linejoin:round;"
 transform="translate(0 0) scale(1 1)">
</g>
<g style="fill:#FFFFFF; fill-opacity:1.0000; stroke:none;">
<circle cx="9.1826" cy="5.7800" r="0.5000" /> 
</g>
<g style="fill:#FFFFFF; fill-opacity:1.0000; stroke:none;">
<circle cx="11.7226" cy="5.7800" r="0.5000" /> 
</g>
<g style="fill:#FFFFFF; fill-opacity:1.0000; stroke:none;">
<circle cx="14.2626" cy="5.7800" r="0.5000" /> 
</g>
<g style="fill:#FFFFFF; fill-opacity:1.0000; stroke:none;">
<circle cx="16.8026" cy="5.7800" r="0.5000" /> 
</g>
<g style="fill:#FFFFFF; fill-opacity:1.0000; stroke:none;">
<circle cx="19.3426" cy="5.7800" r="0.5000" /> 
</g>
<g style="fill:#FFFFFF; fill-opacity:1.0000; stroke:none;">
<circle cx="21.8826" cy="5.7800" r="0.5000" /> 
</g>
<g style="fill:#FFFFFF; fill-opacity:1.0000; stroke:none;">
<circle cx="24.4226" cy="5.7800" r="0.5000" /> 
</g>
<g style="fill:#FFFFFF; fill-opacity:1.0000; stroke:none;">
<circle cx="26.9626" cy="5.7800" r="0.5000" /> 
</g>
<g style="fill:#FFFFFF; fill-opacity:1.0000; stroke:none;">
<circle cx="29.5026" cy="5.7800" r="0.5000" /> 
</g>
<g style="fill:#FFFFFF; fill-opacity:1.0000; stroke:none;">
<circle cx="32.0426" cy="5.7800" r="0.5000" /> 
</g>
<g style="fill:#FFFFFF; fill-opacity:1.0000; stroke:none;">
<circle cx="34.5826" cy="5.7800" r="0.5000" /> 
</g>
<g style="fill:#FFFFFF; fill-opacity:1.0000; stroke:none;">
<circle cx="37.1226" cy="5.7800" r="0.5000" /> 
</g>
<g style="fill:#FFFFFF; fill-opacity:1.0000; stroke:none;">
<circle cx="39.6626" cy="5.7800" r="0.5000" /> 
</g>
<g style="fill:#FFFFFF; fill-opacity:1.0000; stroke:none;">
<circle cx="42.2026" cy="5.7800" r="0.5000" /> 
</g>
<g style="fill:#FFFFFF; fill-opacity:1.0000; stroke:none;">
<circle cx="44.7426" cy="5.7800" r="0.5000" /> 
</g>
<g style="fill:#FFFFFF; fill-opacity:1.0000; stroke:none;">
<circle cx="47.2826" cy="5.7800" r="0.5000" /> 
</g>
<g style="fill:#FFFFFF; fill-opacity:1.0000; stroke:none;">
<circle cx="47.2826" cy="66.7400" r="0.5000" /> 
</g>
<g style="fill:#FFFFFF; fill-opacity:1.0000; stroke:none;">
<circle cx="44.7426" cy="66.7400" r="0.5000" /> 
</g>
<g style="fill:#FFFFFF; fill-opacity:1.0000; stroke:none;">
<circle cx="42.2026" cy="66.7400" r="0.5000" /> 
</g>
<g style="fill:#FFFFFF; fill-opacity:1.0000; stroke:none;">
<circle cx="39.6626" cy="66.7400" r="0.5000" /> 
</g>
<g style="fill:#FFFFFF; fill-opacity:1.0000; stroke:none;">
<circle cx="37.1226" cy="66.7400" r="0.5000" /> 
</g>
<g style="fill:#FFFFFF; fill-opacity:1.0000; stroke:none;">
<circle cx="34.5826" cy="66.7400" r="0.5000" /> 
</g>
<g style="fill:#FFFFFF; fill-opacity:1.0000; stroke:none;">
<circle cx="32.0426" cy="66.7400" r="0.5000" /> 
</g>
<g style="fill:#FFFFFF; fill-opacity:1.0000; stroke:none;">
<circle cx="29.5026" cy="66.7400" r="0.5000" /> 
</g>
<g style="fill:#FFFFFF; fill-opacity:1.0000; stroke:none;">
<circle cx="26.9626" cy="66.7400" r="0.5000" /> 
</g>
<g style="fill:#FFFFFF; fill-opacity:1.0000; stroke:none;">
<circle cx="24.4226" cy="66.7400" r="0.5000" /> 
</g>
<g style="fill:#FFFFFF; fill-opacity:1.0000; stroke:none;">
<circle cx="21.8826" cy="66.7400" r="0.5000" /> 
</g>
<g style="fill:#FFFFFF; fill-opacity:1.0000; stroke:none;">
<circle cx="19.3426" cy="66.7400" r="0.5000" /> 
</g>
<g style="fill:#FFFFFF; fill-opacity:1.0000; stroke:none;">
<circle cx="16.8026" cy="66.7400" r="0.5000" /> 
</g>
<g style="fill:#FFFFFF; fill-opacity:1.0000; stroke:none;">
<circle cx="14.2626" cy="66.7400" r="0.5000" /> 
</g>
<g style="fill:#FFFFFF; fill-opacity:1.0000; stroke:none;">
<circle cx="11.7226" cy="66.7400" r="0.5000" /> 
</g>
<g style="fill:#FFFFFF; fill-opacity:1.0000; stroke:none;">
<circle cx="9.1826" cy="66.7400" r="0.5000" /> 
<path style="fill:#02FFEE; fill-opacity:0.4000; stroke:none;fill-rule:evenodd;"
d="M 8.4326,6.5300
8.4326,5.0300
9.9326,5.0300
9.9326,6.5300
Z" /> 
</g>
<g style="fill:#02FFEE; fill-opacity:0.4000; stroke:none;">
<circle cx="11.7226" cy="5.7800" r="0.7500" /> 
</g>
<g style="fill:#02FFEE; fill-opacity:0.4000; stroke:none;">
<circle cx="14.2626" cy="5.7800" r="0.7500" /> 
</g>
<g style="fill:#02FFEE; fill-opacity:0.4000; stroke:none;">
<circle cx="16.8026" cy="5.7800" r="0.7500" /> 
</g>
<g style="fill:#02FFEE; fill-opacity:0.4000; stroke:none;">
<circle cx="19.3426" cy="5.7800" r="0.7500" /> 
</g>
<g style="fill:#02FFEE; fill-opacity:0.4000; stroke:none;">
<circle cx="21.8826" cy="5.7800" r="0.7500" /> 
</g>
<g style="fill:#02FFEE; fill-opacity:0.4000; stroke:none;">
<circle cx="24.4226" cy="5.7800" r="0.7500" /> 
</g>
<g style="fill:#02FFEE; fill-opacity:0.4000; stroke:none;">
<circle cx="26.9626" cy="5.7800" r="0.7500" /> 
</g>
<g style="fill:#02FFEE; fill-opacity:0.4000; stroke:none;">
<circle cx="29.5026" cy="5.7800" r="0.7500" /> 
</g>
<g style="fill:#02FFEE; fill-opacity:0.4000; stroke:none;">
<circle cx="32.0426" cy="5.7800" r="0.7500" /> 
</g>
<g style="fill:#02FFEE; fill-opacity:0.4000; stroke:none;">
<circle cx="34.5826" cy="5.7800" r="0.7500" /> 
</g>
<g style="fill:#02FFEE; fill-opacity:0.4000; stroke:none;">
<circle cx="37.1226" cy="5.7800" r="0.7500" /> 
</g>
<g style="fill:#02FFEE; fill-opacity:0.4000; stroke:none;">
<circle cx="39.6626" cy="5.7800" r="0.7500" /> 
</g>
<g style="fill:#02FFEE; fill-opacity:0.4000; stroke:none;">
<circle cx="42.2026" cy="5.7800" r="0.7500" /> 
</g>
<g style="fill:#02FFEE; fill-opacity:0.4000; stroke:none;">
<circle cx="44.7426" cy="5.7800" r="0.7500" /> 
</g>
<g style="fill:#02FFEE; fill-opacity:0.4000; stroke:none;">
<circle cx="47.2826" cy="5.7800" r="0.7500" /> 
</g>
<g style="fill:#02FFEE; fill-opacity:0.4000; stroke:none;">
<circle cx="47.2826" cy="66.7400" r="0.7500" /> 
</g>
<g style="fill:#02FFEE; fill-opacity:0.4000; stroke:none;">
<circle cx="44.7426" cy="66.7400" r="0.7500" /> 
</g>
<g style="fill:#02FFEE; fill-opacity:0.4000; stroke:none;">
<circle cx="42.2026" cy="66.7400" r="0.7500" /> 
</g>
<g style="fill:#02FFEE; fill-opacity:0.4000; stroke:none;">
<circle cx="39.6626" cy="66.7400" r="0.7500" /> 
</g>
<g style="fill:#02FFEE; fill-opacity:0.4000; stroke:none;">
<circle cx="37.1226" cy="66.7400" r="0.7500" /> 
</g>
<g style="fill:#02FFEE; fill-opacity:0.4000; stroke:none;">
<circle cx="34.5826" cy="66.7400" r="0.7500" /> 
</g>
<g style="fill:#02FFEE; fill-opacity:0.4000; stroke:none;">
<circle cx="32.0426" cy="66.7400" r="0.7500" /> 
</g>
<g style="fill:#02FFEE; fill-opacity:0.4000; stroke:none;">
<circle cx="29.5026" cy="66.7400" r="0.7500" /> 
</g>
<g style="fill:#02FFEE; fill-opacity:0.4000; stroke:none;">
<circle cx="26.9626" cy="66.7400" r="0.7500" /> 
</g>
<g style="fill:#02FFEE; fill-opacity:0.4000; stroke:none;">
<circle cx="24.4226" cy="66.7400" r="0.7500" /> 
</g>
<g style="fill:#02FFEE; fill-opacity:0.4000; stroke:none;">
<circle cx="21.8826" cy="66.7400" r="0.7500" /> 
</g>
<g style="fill:#02FFEE; fill-opacity:0.4000; stroke:none;">
<circle cx="19.3426" cy="66.7400" r="0.7500" /> 
</g>
<g style="fill:#02FFEE; fill-opacity:0.4000; stroke:none;">
<circle cx="16.8026" cy="66.7400" r="0.7500" /> 
</g>
<g style="fill:#02FFEE; fill-opacity:0.4000; stroke:none;">
<circle cx="14.2626" cy="66.7400" r="0.7500" /> 
</g>
<g style="fill:#02FFEE; fill-opacity:0.4000; stroke:none;">
<circle cx="11.7226" cy="66.7400" r="0.7500" /> 
</g>
<g style="fill:#02FFEE; fill-opacity:0.4000; stroke:none;">
<circle cx="9.1826" cy="66.7400" r="0.7500" /> 
</g>
<g style="fill:#FFFFFF; fill-opacity:1.0000; stroke:none;">
<circle cx="9.1826" cy="5.7800" r="0.5000" /> 
</g>
<g style="fill:#FFFFFF; fill-opacity:1.0000; stroke:none;">
<circle cx="11.7226" cy="5.7800" r="0.5000" /> 
</g>
<g style="fill:#FFFFFF; fill-opacity:1.0000; stroke:none;">
<circle cx="14.2626" cy="5.7800" r="0.5000" /> 
</g>
<g style="fill:#FFFFFF; fill-opacity:1.0000; stroke:none;">
<circle cx="16.8026" cy="5.7800" r="0.5000" /> 
</g>
<g style="fill:#FFFFFF; fill-opacity:1.0000; stroke:none;">
<circle cx="19.3426" cy="5.7800" r="0.5000" /> 
</g>
<g style="fill:#FFFFFF; fill-opacity:1.0000; stroke:none;">
<circle cx="21.8826" cy="5.7800" r="0.5000" /> 
</g>
<g style="fill:#FFFFFF; fill-opacity:1.0000; stroke:none;">
<circle cx="24.4226" cy="5.7800" r="0.5000" /> 
</g>
<g style="fill:#FFFFFF; fill-opacity:1.0000; stroke:none;">
<circle cx="26.9626" cy="5.7800" r="0.5000" /> 
</g>
<g style="fill:#FFFFFF; fill-opacity:1.0000; stroke:none;">
<circle cx="29.5026" cy="5.7800" r="0.5000" /> 
</g>
<g style="fill:#FFFFFF; fill-opacity:1.0000; stroke:none;">
<circle cx="32.0426" cy="5.7800" r="0.5000" /> 
</g>
<g style="fill:#FFFFFF; fill-opacity:1.0000; stroke:none;">
<circle cx="34.5826" cy="5.7800" r="0.5000" /> 
</g>
<g style="fill:#FFFFFF; fill-opacity:1.0000; stroke:none;">
<circle cx="37.1226" cy="5.7800" r="0.5000" /> 
</g>
<g style="fill:#FFFFFF; fill-opacity:1.0000; stroke:none;">
<circle cx="39.6626" cy="5.7800" r="0.5000" /> 
</g>
<g style="fill:#FFFFFF; fill-opacity:1.0000; stroke:none;">
<circle cx="42.2026" cy="5.7800" r="0.5000" /> 
</g>
<g style="fill:#FFFFFF; fill-opacity:1.0000; stroke:none;">
<circle cx="44.7426" cy="5.7800" r="0.5000" /> 
</g>
<g style="fill:#FFFFFF; fill-opacity:1.0000; stroke:none;">
<circle cx="47.2826" cy="5.7800" r="0.5000" /> 
</g>
<g style="fill:#FFFFFF; fill-opacity:1.0000; stroke:none;">
<circle cx="47.2826" cy="66.7400" r="0.5000" /> 
</g>
<g style="fill:#FFFFFF; fill-opacity:1.0000; stroke:none;">
<circle cx="44.7426" cy="66.7400" r="0.5000" /> 
</g>
<g style="fill:#FFFFFF; fill-opacity:1.0000; stroke:none;">
<circle cx="42.2026" cy="66.7400" r="0.5000" /> 
</g>
<g style="fill:#FFFFFF; fill-opacity:1.0000; stroke:none;">
<circle cx="39.6626" cy="66.7400" r="0.5000" /> 
</g>
<g style="fill:#FFFFFF; fill-opacity:1.0000; stroke:none;">
<circle cx="37.1226" cy="66.7400" r="0.5000" /> 
</g>
<g style="fill:#FFFFFF; fill-opacity:1.0000; stroke:none;">
<circle cx="34.5826" cy="66.7400" r="0.5000" /> 
</g>
<g style="fill:#FFFFFF; fill-opacity:1.0000; stroke:none;">
<circle cx="32.0426" cy="66.7400" r="0.5000" /> 
</g>
<g style="fill:#FFFFFF; fill-opacity:1.0000; stroke:none;">
<circle cx="29.5026" cy="66.7400" r="0.5000" /> 
</g>
<g style="fill:#FFFFFF; fill-opacity:1.0000; stroke:none;">
<circle cx="26.9626" cy="66.7400" r="0.5000" /> 
</g>
<g style="fill:#FFFFFF; fill-opacity:1.0000; stroke:none;">
<circle cx="24.4226" cy="66.7400" r="0.5000" /> 
</g>
<g style="fill:#FFFFFF; fill-opacity:1.0000; stroke:none;">
<circle cx="21.8826" cy="66.7400" r="0.5000" /> 
</g>
<g style="fill:#FFFFFF; fill-opacity:1.0000; stroke:none;">
<circle cx="19.3426" cy="66.7400" r="0.5000" /> 
</g>
<g style="fill:#FFFFFF; fill-opacity:1.0000; stroke:none;">
<circle cx="16.8026" cy="66.7400" r="0.5000" /> 
</g>
<g style="fill:#FFFFFF; fill-opacity:1.0000; stroke:none;">
<circle cx="14.2626" cy="66.7400" r="0.5000" /> 
</g>
<g style="fill:#FFFFFF; fill-opacity:1.0000; stroke:none;">
<circle cx="11.7226" cy="66.7400" r="0.5000" /> 
</g>
<g style="fill:#FFFFFF; fill-opacity:1.0000; stroke:none;">
<circle cx="9.1826" cy="66.7400" r="0.5000" /> 
</g>
<g style="fill:#FFFFFF; fill-opacity:1.0000; stroke:none;">
<circle cx="9.1826" cy="5.7800" r="0.5000" /> 
</g>
<g style="fill:#FFFFFF; fill-opacity:1.0000; stroke:none;">
<circle cx="11.7226" cy="5.7800" r="0.5000" /> 
</g>
<g style="fill:#FFFFFF; fill-opacity:1.0000; stroke:none;">
<circle cx="14.2626" cy="5.7800" r="0.5000" /> 
</g>
<g style="fill:#FFFFFF; fill-opacity:1.0000; stroke:none;">
<circle cx="16.8026" cy="5.7800" r="0.5000" /> 
</g>
<g style="fill:#FFFFFF; fill-opacity:1.0000; stroke:none;">
<circle cx="19.3426" cy="5.7800" r="0.5000" /> 
</g>
<g style="fill:#FFFFFF; fill-opacity:1.0000; stroke:none;">
<circle cx="21.8826" cy="5.7800" r="0.5000" /> 
</g>
<g style="fill:#FFFFFF; fill-opacity:1.0000; stroke:none;">
<circle cx="24.4226" cy="5.7800" r="0.5000" /> 
</g>
<g style="fill:#FFFFFF; fill-opacity:1.0000; stroke:none;">
<circle cx="26.9626" cy="5.7800" r="0.5000" /> 
</g>
<g style="fill:#FFFFFF; fill-opacity:1.0000; stroke:none;">
<circle cx="29.5026" cy="5.7800" r="0.5000" /> 
</g>
<g style="fill:#FFFFFF; fill-opacity:1.0000; stroke:none;">
<circle cx="32.0426" cy="5.7800" r="0.5000" /> 
</g>
<g style="fill:#FFFFFF; fill-opacity:1.0000; stroke:none;">
<circle cx="34.5826" cy="5.7800" r="0.5000" /> 
</g>
<g style="fill:#FFFFFF; fill-opacity:1.0000; stroke:none;">
<circle cx="37.1226" cy="5.7800" r="0.5000" /> 
</g>
<g style="fill:#FFFFFF; fill-opacity:1.0000; stroke:none;">
<circle cx="39.6626" cy="5.7800" r="0.5000" /> 
</g>
<g style="fill:#FFFFFF; fill-opacity:1.0000; stroke:none;">
<circle cx="42.2026" cy="5.7800" r="0.5000" /> 
</g>
<g style="fill:#FFFFFF; fill-opacity:1.0000; stroke:none;">
<circle cx="44.7426" cy="5.7800" r="0.5000" /> 
</g>
<g style="fill:#FFFFFF; fill-opacity:1.0000; stroke:none;">
<circle cx="47.2826" cy="5.7800" r="0.5000" /> 
</g>
<g style="fill:#FFFFFF; fill-opacity:1.0000; stroke:none;">
<circle cx="47.2826" cy="66.7400" r="0.5000" /> 
</g>
<g style="fill:#FFFFFF; fill-opacity:1.0000; stroke:none;">
<circle cx="44.7426" cy="66.7400" r="0.5000" /> 
</g>
<g style="fill:#FFFFFF; fill-opacity:1.0000; stroke:none;">
<circle cx="42.2026" cy="66.7400" r="0.5000" /> 
</g>
<g style="fill:#FFFFFF; fill-opacity:1.0000; stroke:none;">
<circle cx="39.6626" cy="66.7400" r="0.5000" /> 
</g>
<g style="fill:#FFFFFF; fill-opacity:1.0000; stroke:none;">
<circle cx="37.1226" cy="66.7400" r="0.5000" /> 
</g>
<g style="fill:#FFFFFF; fill-opacity:1.0000; stroke:none;">
<circle cx="34.5826" cy="66.7400" r="0.5000" /> 
</g>
<g style="fill:#FFFFFF; fill-opacity:1.0000; stroke:none;">
<circle cx="32.0426" cy="66.7400" r="0.5000" /> 
</g>
<g style="fill:#FFFFFF; fill-opacity:1.0000; stroke:none;">
<circle cx="29.5026" cy="66.7400" r="0.5000" /> 
</g>
<g style="fill:#FFFFFF; fill-opacity:1.0000; stroke:none;">
<circle cx="26.9626" cy="66.7400" r="0.5000" /> 
</g>
<g style="fill:#FFFFFF; fill-opacity:1.0000; stroke:none;">
<circle cx="24.4226" cy="66.7400" r="0.5000" /> 
</g>
<g style="fill:#FFFFFF; fill-opacity:1.0000; stroke:none;">
<circle cx="21.8826" cy="66.7400" r="0.5000" /> 
</g>
<g style="fill:#FFFFFF; fill-opacity:1.0000; stroke:none;">
<circle cx="19.3426" cy="66.7400" r="0.5000" /> 
</g>
<g style="fill:#FFFFFF; fill-opacity:1.0000; stroke:none;">
<circle cx="16.8026" cy="66.7400" r="0.5000" /> 
</g>
<g style="fill:#FFFFFF; fill-opacity:1.0000; stroke:none;">
<circle cx="14.2626" cy="66.7400" r="0.5000" /> 
</g>
<g style="fill:#FFFFFF; fill-opacity:1.0000; stroke:none;">
<circle cx="11.7226" cy="66.7400" r="0.5000" /> 
</g>
<g style="fill:#FFFFFF; fill-opacity:1.0000; stroke:none;">
<circle cx="9.1826" cy="66.7400" r="0.5000" /> 
<path style="fill:#D864FF; fill-opacity:0.4000; stroke:none;fill-rule:evenodd;"
d="M 8.4326,6.5300
8.4326,5.0300
9.9326,5.0300
9.9326,6.5300
Z" /> 
</g>
<g style="fill:#D864FF; fill-opacity:0.4000; stroke:none;">
<circle cx="11.7226" cy="5.7800" r="0.7500" /> 
</g>
<g style="fill:#D864FF; fill-opacity:0.4000; stroke:none;">
<circle cx="14.2626" cy="5.7800" r="0.7500" /> 
</g>
<g style="fill:#D864FF; fill-opacity:0.4000; stroke:none;">
<circle cx="16.8026" cy="5.7800" r="0.7500" /> 
</g>
<g style="fill:#D864FF; fill-opacity:0.4000; stroke:none;">
<circle cx="19.3426" cy="5.7800" r="0.7500" /> 
</g>
<g style="fill:#D864FF; fill-opacity:0.4000; stroke:none;">
<circle cx="21.8826" cy="5.7800" r="0.7500" /> 
</g>
<g style="fill:#D864FF; fill-opacity:0.4000; stroke:none;">
<circle cx="24.4226" cy="5.7800" r="0.7500" /> 
</g>
<g style="fill:#D864FF; fill-opacity:0.4000; stroke:none;">
<circle cx="26.9626" cy="5.7800" r="0.7500" /> 
</g>
<g style="fill:#D864FF; fill-opacity:0.4000; stroke:none;">
<circle cx="29.5026" cy="5.7800" r="0.7500" /> 
</g>
<g style="fill:#D864FF; fill-opacity:0.4000; stroke:none;">
<circle cx="32.0426" cy="5.7800" r="0.7500" /> 
</g>
<g style="fill:#D864FF; fill-opacity:0.4000; stroke:none;">
<circle cx="34.5826" cy="5.7800" r="0.7500" /> 
</g>
<g style="fill:#D864FF; fill-opacity:0.4000; stroke:none;">
<circle cx="37.1226" cy="5.7800" r="0.7500" /> 
</g>
<g style="fill:#D864FF; fill-opacity:0.4000; stroke:none;">
<circle cx="39.6626" cy="5.7800" r="0.7500" /> 
</g>
<g style="fill:#D864FF; fill-opacity:0.4000; stroke:none;">
<circle cx="42.2026" cy="5.7800" r="0.7500" /> 
</g>
<g style="fill:#D864FF; fill-opacity:0.4000; stroke:none;">
<circle cx="44.7426" cy="5.7800" r="0.7500" /> 
</g>
<g style="fill:#D864FF; fill-opacity:0.4000; stroke:none;">
<circle cx="47.2826" cy="5.7800" r="0.7500" /> 
</g>
<g style="fill:#D864FF; fill-opacity:0.4000; stroke:none;">
<circle cx="47.2826" cy="66.7400" r="0.7500" /> 
</g>
<g style="fill:#D864FF; fill-opacity:0.4000; stroke:none;">
<circle cx="44.7426" cy="66.7400" r="0.7500" /> 
</g>
<g style="fill:#D864FF; fill-opacity:0.4000; stroke:none;">
<circle cx="42.2026" cy="66.7400" r="0.7500" /> 
</g>
<g style="fill:#D864FF; fill-opacity:0.4000; stroke:none;">
<circle cx="39.6626" cy="66.7400" r="0.7500" /> 
</g>
<g style="fill:#D864FF; fill-opacity:0.4000; stroke:none;">
<circle cx="37.1226" cy="66.7400" r="0.7500" /> 
</g>
<g style="fill:#D864FF; fill-opacity:0.4000; stroke:none;">
<circle cx="34.5826" cy="66.7400" r="0.7500" /> 
</g>
<g style="fill:#D864FF; fill-opacity:0.4000; stroke:none;">
<circle cx="32.0426" cy="66.7400" r="0.7500" /> 
</g>
<g style="fill:#D864FF; fill-opacity:0.4000; stroke:none;">
<circle cx="29.5026" cy="66.7400" r="0.7500" /> 
</g>
<g style="fill:#D864FF; fill-opacity:0.4000; stroke:none;">
<circle cx="26.9626" cy="66.7400" r="0.7500" /> 
</g>
<g style="fill:#D864FF; fill-opacity:0.4000; stroke:none;">
<circle cx="24.4226" cy="66.7400" r="0.7500" /> 
</g>
<g style="fill:#D864FF; fill-opacity:0.4000; stroke:none;">
<circle cx="21.8826" cy="66.7400" r="0.7500" /> 
</g>
<g style="fill:#D864FF; fill-opacity:0.4000; stroke:none;">
<circle cx="19.3426" cy="66.7400" r="0.7500" /> 
</g>
<g style="fill:#D864FF; fill-opacity:0.4000; stroke:none;">
<circle cx="16.8026" cy="66.7400" r="0.7500" /> 
</g>
<g style="fill:#D864FF; fill-opacity:0.4000; stroke:none;">
<circle cx="14.2626" cy="66.7400" r="0.7500" /> 
</g>
<g style="fill:#D864FF; fill-opacity:0.4000; stroke:none;">
<circle cx="11.7226" cy="66.7400" r="0.7500" /> 
</g>
<g style="fill:#D864FF; fill-opacity:0.4000; stroke:none;">
<circle cx="9.1826" cy="66.7400" r="0.7500" /> 
</g>
<g style="fill:none; 
stroke:#F2EDA1; stroke-width:0.1588; stroke-opacity:1; 
stroke-linecap:round; stroke-linejoin:round;">
<text x="9.1826" y="6.4150"
textLength="5.6651" font-size="1.6933" lengthAdjust="spacingAndGlyphs"
text-anchor="middle" opacity="0">REF**</text>
<g class="stroked-text"><desc>REF**</desc>
<path d="M7.4892 6.3593
L7.0659 5.7545
" />
<path d="M6.7635 6.3593
L6.7635 5.0893
" />
<path d="M6.7635 5.0893
L7.2473 5.0893
" />
<path d="M7.2473 5.0893
L7.3683 5.1497
" />
<path d="M7.3683 5.1497
L7.4287 5.2102
" />
<path d="M7.4287 5.2102
L7.4892 5.3312
" />
<path d="M7.4892 5.3312
L7.4892 5.5126
" />
<path d="M7.4892 5.5126
L7.4287 5.6336
" />
<path d="M7.4287 5.6336
L7.3683 5.6940
" />
<path d="M7.3683 5.6940
L7.2473 5.7545
" />
<path d="M7.2473 5.7545
L6.7635 5.7545
" />
<path d="M8.0335 5.6940
L8.4568 5.6940
" />
<path d="M8.6383 6.3593
L8.0335 6.3593
" />
<path d="M8.0335 6.3593
L8.0335 5.0893
" />
<path d="M8.0335 5.0893
L8.6383 5.0893
" />
<path d="M9.6059 5.6940
L9.1826 5.6940
" />
<path d="M9.1826 6.3593
L9.1826 5.0893
" />
<path d="M9.1826 5.0893
L9.7873 5.0893
" />
<path d="M10.4526 5.0893
L10.4526 5.3917
" />
<path d="M10.1502 5.2707
L10.4526 5.3917
" />
<path d="M10.4526 5.3917
L10.7549 5.2707
" />
<path d="M10.2711 5.6336
L10.4526 5.3917
" />
<path d="M10.4526 5.3917
L10.6340 5.6336
" />
<path d="M11.4202 5.0893
L11.4202 5.3917
" />
<path d="M11.1178 5.2707
L11.4202 5.3917
" />
<path d="M11.4202 5.3917
L11.7226 5.2707
" />
<path d="M11.2387 5.6336
L11.4202 5.3917
" />
<path d="M11.4202 5.3917
L11.6016 5.6336
" />
</g></g>
<g style="fill:none; 
stroke:#F2EDA1; stroke-width:0.1200; stroke-opacity:1; 
stroke-linecap:round; stroke-linejoin:round;">
<path d="M3.1126 0.4400
L57.9526 0.4400
" />
<path d="M3.1126 72.0800
L3.1126 0.4400
" />
<path d="M8.1826 0.0600
L17.1826 0.0600
" />
<path d="M11.7626 63.7800
L11.7626 7.7800
" />
<path d="M44.7026 7.7800
L44.7026 63.7800
" />
<path d="M57.9526 0.4400
L57.9526 72.0800
" />
<path d="M57.9526 72.0800
L3.1126 72.0800
" />
</g>
<g style="fill:#FFFFFF; fill-opacity:1.0000; stroke:none;">
<circle cx="9.1826" cy="5.7800" r="0.5000" /> 
</g>
<g style="fill:#FFFFFF; fill-opacity:1.0000; stroke:none;">
<circle cx="11.7226" cy="5.7800" r="0.5000" /> 
</g>
<g style="fill:#FFFFFF; fill-opacity:1.0000; stroke:none;">
<circle cx="14.2626" cy="5.7800" r="0.5000" /> 
</g>
<g style="fill:#FFFFFF; fill-opacity:1.0000; stroke:none;">
<circle cx="16.8026" cy="5.7800" r="0.5000" /> 
</g>
<g style="fill:#FFFFFF; fill-opacity:1.0000; stroke:none;">
<circle cx="19.3426" cy="5.7800" r="0.5000" /> 
</g>
<g style="fill:#FFFFFF; fill-opacity:1.0000; stroke:none;">
<circle cx="21.8826" cy="5.7800" r="0.5000" /> 
</g>
<g style="fill:#FFFFFF; fill-opacity:1.0000; stroke:none;">
<circle cx="24.4226" cy="5.7800" r="0.5000" /> 
</g>
<g style="fill:#FFFFFF; fill-opacity:1.0000; stroke:none;">
<circle cx="26.9626" cy="5.7800" r="0.5000" /> 
</g>
<g style="fill:#FFFFFF; fill-opacity:1.0000; stroke:none;">
<circle cx="29.5026" cy="5.7800" r="0.5000" /> 
</g>
<g style="fill:#FFFFFF; fill-opacity:1.0000; stroke:none;">
<circle cx="32.0426" cy="5.7800" r="0.5000" /> 
</g>
<g style="fill:#FFFFFF; fill-opacity:1.0000; stroke:none;">
<circle cx="34.5826" cy="5.7800" r="0.5000" /> 
</g>
<g style="fill:#FFFFFF; fill-opacity:1.0000; stroke:none;">
<circle cx="37.1226" cy="5.7800" r="0.5000" /> 
</g>
<g style="fill:#FFFFFF; fill-opacity:1.0000; stroke:none;">
<circle cx="39.6626" cy="5.7800" r="0.5000" /> 
</g>
<g style="fill:#FFFFFF; fill-opacity:1.0000; stroke:none;">
<circle cx="42.2026" cy="5.7800" r="0.5000" /> 
</g>
<g style="fill:#FFFFFF; fill-opacity:1.0000; stroke:none;">
<circle cx="44.7426" cy="5.7800" r="0.5000" /> 
</g>
<g style="fill:#FFFFFF; fill-opacity:1.0000; stroke:none;">
<circle cx="47.2826" cy="5.7800" r="0.5000" /> 
</g>
<g style="fill:#FFFFFF; fill-opacity:1.0000; stroke:none;">
<circle cx="47.2826" cy="66.7400" r="0.5000" /> 
</g>
<g style="fill:#FFFFFF; fill-opacity:1.0000; stroke:none;">
<circle cx="44.7426" cy="66.7400" r="0.5000" /> 
</g>
<g style="fill:#FFFFFF; fill-opacity:1.0000; stroke:none;">
<circle cx="42.2026" cy="66.7400" r="0.5000" /> 
</g>
<g style="fill:#FFFFFF; fill-opacity:1.0000; stroke:none;">
<circle cx="39.6626" cy="66.7400" r="0.5000" /> 
</g>
<g style="fill:#FFFFFF; fill-opacity:1.0000; stroke:none;">
<circle cx="37.1226" cy="66.7400" r="0.5000" /> 
</g>
<g style="fill:#FFFFFF; fill-opacity:1.0000; stroke:none;">
<circle cx="34.5826" cy="66.7400" r="0.5000" /> 
</g>
<g style="fill:#FFFFFF; fill-opacity:1.0000; stroke:none;">
<circle cx="32.0426" cy="66.7400" r="0.5000" /> 
</g>
<g style="fill:#FFFFFF; fill-opacity:1.0000; stroke:none;">
<circle cx="29.5026" cy="66.7400" r="0.5000" /> 
</g>
<g style="fill:#FFFFFF; fill-opacity:1.0000; stroke:none;">
<circle cx="26.9626" cy="66.7400" r="0.5000" /> 
</g>
<g style="fill:#FFFFFF; fill-opacity:1.0000; stroke:none;">
<circle cx="24.4226" cy="66.7400" r="0.5000" /> 
</g>
<g style="fill:#FFFFFF; fill-opacity:1.0000; stroke:none;">
<circle cx="21.8826" cy="66.7400" r="0.5000" /> 
</g>
<g style="fill:#FFFFFF; fill-opacity:1.0000; stroke:none;">
<circle cx="19.3426" cy="66.7400" r="0.5000" /> 
</g>
<g style="fill:#FFFFFF; fill-opacity:1.0000; stroke:none;">
<circle cx="16.8026" cy="66.7400" r="0.5000" /> 
</g>
<g style="fill:#FFFFFF; fill-opacity:1.0000; stroke:none;">
<circle cx="14.2626" cy="66.7400" r="0.5000" /> 
</g>
<g style="fill:#FFFFFF; fill-opacity:1.0000; stroke:none;">
<circle cx="11.7226" cy="66.7400" r="0.5000" /> 
</g>
<g style="fill:#FFFFFF; fill-opacity:1.0000; stroke:none;">
<circle cx="9.1826" cy="66.7400" r="0.5000" /> 
</g>
<g style="fill:none; 
stroke:#FF26E2; stroke-width:0.0500; stroke-opacity:1; 
stroke-linecap:round; stroke-linejoin:round;">
<path d="M2.9826 0.3100
L58.0826 0.3100
" />
<path d="M2.9826 72.2100
L2.9826 0.3100
" />
<path d="M58.0826 0.3100
L58.0826 72.2100
" />
<path d="M58.0826 72.2100
L2.9826 72.2100
" />
</g>
<g style="fill:none; 
stroke:#AFAFAF; stroke-width:0.1588; stroke-opacity:1; 
stroke-linecap:round; stroke-linejoin:round;">
<text x="9.1826" y="6.4150"
textLength="18.3651" font-size="1.6933" lengthAdjust="spacingAndGlyphs"
text-anchor="middle" opacity="0">EA-eDIP128B-XXX</text>
<g class="stroked-text"><desc>EA-eDIP128B-XXX</desc>
<path d="M0.4135 5.6940
L0.8368 5.6940
" />
<path d="M1.0183 6.3593
L0.4135 6.3593
" />
<path d="M0.4135 6.3593
L0.4135 5.0893
" />
<path d="M0.4135 5.0893
L1.0183 5.0893
" />
<path d="M1.5021 5.9964
L2.1068 5.9964
" />
<path d="M1.3811 6.3593
L1.8045 5.0893
" />
<path d="M1.8045 5.0893
L2.2278 6.3593
" />
<path d="M2.6511 5.8755
L3.6187 5.8755
" />
<path d="M4.7073 6.2988
L4.5864 6.3593
" />
<path d="M4.5864 6.3593
L4.3445 6.3593
" />
<path d="M4.3445 6.3593
L4.2235 6.2988
" />
<path d="M4.2235 6.2988
L4.1630 6.1778
" />
<path d="M4.1630 6.1778
L4.1630 5.6940
" />
<path d="M4.1630 5.6940
L4.2235 5.5731
" />
<path d="M4.2235 5.5731
L4.3445 5.5126
" />
<path d="M4.3445 5.5126
L4.5864 5.5126
" />
<path d="M4.5864 5.5126
L4.7073 5.5731
" />
<path d="M4.7073 5.5731
L4.7678 5.6940
" />
<path d="M4.7678 5.6940
L4.7678 5.8150
" />
<path d="M4.7678 5.8150
L4.1630 5.9359
" />
<path d="M5.3121 6.3593
L5.3121 5.0893
" />
<path d="M5.3121 5.0893
L5.6145 5.0893
" />
<path d="M5.6145 5.0893
L5.7959 5.1497
" />
<path d="M5.7959 5.1497
L5.9168 5.2707
" />
<path d="M5.9168 5.2707
L5.9773 5.3917
" />
<path d="M5.9773 5.3917
L6.0378 5.6336
" />
<path d="M6.0378 5.6336
L6.0378 5.8150
" />
<path d="M6.0378 5.8150
L5.9773 6.0569
" />
<path d="M5.9773 6.0569
L5.9168 6.1778
" />
<path d="M5.9168 6.1778
L5.7959 6.2988
" />
<path d="M5.7959 6.2988
L5.6145 6.3593
" />
<path d="M5.6145 6.3593
L5.3121 6.3593
" />
<path d="M6.5821 6.3593
L6.5821 5.0893
" />
<path d="M7.1868 6.3593
L7.1868 5.0893
" />
<path d="M7.1868 5.0893
L7.6706 5.0893
" />
<path d="M7.6706 5.0893
L7.7916 5.1497
" />
<path d="M7.7916 5.1497
L7.8521 5.2102
" />
<path d="M7.8521 5.2102
L7.9126 5.3312
" />
<path d="M7.9126 5.3312
L7.9126 5.5126
" />
<path d="M7.9126 5.5126
L7.8521 5.6336
" />
<path d="M7.8521 5.6336
L7.7916 5.6940
" />
<path d="M7.7916 5.6940
L7.6706 5.7545
" />
<path d="M7.6706 5.7545
L7.1868 5.7545
" />
<path d="M9.1221 6.3593
L8.3964 6.3593
" />
<path d="M8.7592 6.3593
L8.7592 5.0893
" />
<path d="M8.7592 5.0893
L8.6383 5.2707
" />
<path d="M8.6383 5.2707
L8.5173 5.3917
" />
<path d="M8.5173 5.3917
L8.3964 5.4521
" />
<path d="M9.6059 5.2102
L9.6664 5.1497
" />
<path d="M9.6664 5.1497
L9.7873 5.0893
" />
<path d="M9.7873 5.0893
L10.0897 5.0893
" />
<path d="M10.0897 5.0893
L10.2106 5.1497
" />
<path d="M10.2106 5.1497
L10.2711 5.2102
" />
<path d="M10.2711 5.2102
L10.3316 5.3312
" />
<path d="M10.3316 5.3312
L10.3316 5.4521
" />
<path d="M10.3316 5.4521
L10.2711 5.6336
" />
<path d="M10.2711 5.6336
L9.5454 6.3593
" />
<path d="M9.5454 6.3593
L10.3316 6.3593
" />
<path d="M11.0573 5.6336
L10.9364 5.5731
" />
<path d="M10.9364 5.5731
L10.8759 5.5126
" />
<path d="M10.8759 5.5126
L10.8154 5.3917
" />
<path d="M10.8154 5.3917
L10.8154 5.3312
" />
<path d="M10.8154 5.3312
L10.8759 5.2102
" />
<path d="M10.8759 5.2102
L10.9364 5.1497
" />
<path d="M10.9364 5.1497
L11.0573 5.0893
" />
<path d="M11.0573 5.0893
L11.2992 5.0893
" />
<path d="M11.2992 5.0893
L11.4202 5.1497
" />
<path d="M11.4202 5.1497
L11.4806 5.2102
" />
<path d="M11.4806 5.2102
L11.5411 5.3312
" />
<path d="M11.5411 5.3312
L11.5411 5.3917
" />
<path d="M11.5411 5.3917
L11.4806 5.5126
" />
<path d="M11.4806 5.5126
L11.4202 5.5731
" />
<path d="M11.4202 5.5731
L11.2992 5.6336
" />
<path d="M11.2992 5.6336
L11.0573 5.6336
" />
<path d="M11.0573 5.6336
L10.9364 5.6940
" />
<path d="M10.9364 5.6940
L10.8759 5.7545
" />
<path d="M10.8759 5.7545
L10.8154 5.8755
" />
<path d="M10.8154 5.8755
L10.8154 6.1174
" />
<path d="M10.8154 6.1174
L10.8759 6.2383
" />
<path d="M10.8759 6.2383
L10.9364 6.2988
" />
<path d="M10.9364 6.2988
L11.0573 6.3593
" />
<path d="M11.0573 6.3593
L11.2992 6.3593
" />
<path d="M11.2992 6.3593
L11.4202 6.2988
" />
<path d="M11.4202 6.2988
L11.4806 6.2383
" />
<path d="M11.4806 6.2383
L11.5411 6.1174
" />
<path d="M11.5411 6.1174
L11.5411 5.8755
" />
<path d="M11.5411 5.8755
L11.4806 5.7545
" />
<path d="M11.4806 5.7545
L11.4202 5.6940
" />
<path d="M11.4202 5.6940
L11.2992 5.6336
" />
<path d="M12.5087 5.6940
L12.6902 5.7545
" />
<path d="M12.6902 5.7545
L12.7506 5.8150
" />
<path d="M12.7506 5.8150
L12.8111 5.9359
" />
<path d="M12.8111 5.9359
L12.8111 6.1174
" />
<path d="M12.8111 6.1174
L12.7506 6.2383
" />
<path d="M12.7506 6.2383
L12.6902 6.2988
" />
<path d="M12.6902 6.2988
L12.5692 6.3593
" />
<path d="M12.5692 6.3593
L12.0854 6.3593
" />
<path d="M12.0854 6.3593
L12.0854 5.0893
" />
<path d="M12.0854 5.0893
L12.5087 5.0893
" />
<path d="M12.5087 5.0893
L12.6297 5.1497
" />
<path d="M12.6297 5.1497
L12.6902 5.2102
" />
<path d="M12.6902 5.2102
L12.7506 5.3312
" />
<path d="M12.7506 5.3312
L12.7506 5.4521
" />
<path d="M12.7506 5.4521
L12.6902 5.5731
" />
<path d="M12.6902 5.5731
L12.6297 5.6336
" />
<path d="M12.6297 5.6336
L12.5087 5.6940
" />
<path d="M12.5087 5.6940
L12.0854 5.6940
" />
<path d="M13.3554 5.8755
L14.3230 5.8755
" />
<path d="M14.8068 5.0893
L15.6535 6.3593
" />
<path d="M15.6535 5.0893
L14.8068 6.3593
" />
<path d="M16.0164 5.0893
L16.8630 6.3593
" />
<path d="M16.8630 5.0893
L16.0164 6.3593
" />
<path d="M17.2259 5.0893
L18.0726 6.3593
" />
<path d="M18.0726 5.0893
L17.2259 6.3593
" />
</g></g>
<g style="fill:none; 
stroke:#AFAFAF; stroke-width:0.1500; stroke-opacity:1; 
stroke-linecap:round; stroke-linejoin:round;">
<text x="29.4326" y="35.5300"
textLength="4.5357" font-size="1.3333" lengthAdjust="spacingAndGlyphs"
text-anchor="middle" opacity="0">REF**</text>
<g class="stroked-text"><desc>REF**</desc>
<path d="M28.0992 35.4848
L27.7659 35.0086
" />
<path d="M27.5278 35.4848
L27.5278 34.4848
" />
<path d="M27.5278 34.4848
L27.9087 34.4848
" />
<path d="M27.9087 34.4848
L28.0040 34.5324
" />
<path d="M28.0040 34.5324
L28.0516 34.5801
" />
<path d="M28.0516 34.5801
L28.0992 34.6753
" />
<path d="M28.0992 34.6753
L28.0992 34.8182
" />
<path d="M28.0992 34.8182
L28.0516 34.9134
" />
<path d="M28.0516 34.9134
L28.0040 34.9610
" />
<path d="M28.0040 34.9610
L27.9087 35.0086
" />
<path d="M27.9087 35.0086
L27.5278 35.0086
" />
<path d="M28.5278 34.9610
L28.8611 34.9610
" />
<path d="M29.0040 35.4848
L28.5278 35.4848
" />
<path d="M28.5278 35.4848
L28.5278 34.4848
" />
<path d="M28.5278 34.4848
L29.0040 34.4848
" />
<path d="M29.7659 34.9610
L29.4326 34.9610
" />
<path d="M29.4326 35.4848
L29.4326 34.4848
" />
<path d="M29.4326 34.4848
L29.9087 34.4848
" />
<path d="M30.4326 34.4848
L30.4326 34.7229
" />
<path d="M30.1945 34.6277
L30.4326 34.7229
" />
<path d="M30.4326 34.7229
L30.6706 34.6277
" />
<path d="M30.2897 34.9134
L30.4326 34.7229
" />
<path d="M30.4326 34.7229
L30.5754 34.9134
" />
<path d="M31.1945 34.4848
L31.1945 34.7229
" />
<path d="M30.9564 34.6277
L31.1945 34.7229
" />
<path d="M31.1945 34.7229
L31.4326 34.6277
" />
<path d="M31.0516 34.9134
L31.1945 34.7229
" />
<path d="M31.1945 34.7229
L31.3373 34.9134
" />
</g></g>
<g style="fill:none; 
stroke:#AFAFAF; stroke-width:0.1000; stroke-opacity:1; 
stroke-linecap:round; stroke-linejoin:round;">
<path d="M3.2326 0.5600
L8.1826 0.5600
" />
<path d="M3.2326 71.9600
L3.2326 0.5600
" />
<path d="M8.1826 0.5600
L9.1826 1.5600
" />
<path d="M9.1826 1.5600
L10.1826 0.5600
" />
<path d="M10.1826 0.5600
L57.8326 0.5600
" />
<path d="M57.8326 0.5600
L57.8326 71.9600
" />
<path d="M57.8326 71.9600
L3.2326 71.9600
" />
</g> 
</svg>
