<?xml version="1.0" standalone="no"?>
 <!DOCTYPE svg PUBLIC "-//W3C//DTD SVG 1.1//EN" 
 "http://www.w3.org/Graphics/SVG/1.1/DTD/svg11.dtd"> 
<svg
  xmlns:svg="http://www.w3.org/2000/svg"
  xmlns="http://www.w3.org/2000/svg"
  xmlns:xlink="http://www.w3.org/1999/xlink"
  version="1.1"
  width="21.9202mm" height="2.0320mm" viewBox="0.0000 0.0000 21.9202 2.0320">
<title>SVG Image created as working-brd.svg date 2024/04/18 23:38:17 </title>
  <desc>Image generated by PCBNEW </desc>
<g style="fill:#000000; fill-opacity:1.0000;stroke:#000000; stroke-opacity:1.0000;
stroke-linecap:round; stroke-linejoin:round;"
 transform="translate(0 0) scale(1 1)">
<path style="fill:#C83434; fill-opacity:1.0000; stroke:none;fill-rule:evenodd;"
d="M 9.7416,0.7653
9.7583,0.6816
9.8057,0.6106
9.8766,0.5632
9.9604,0.5466
10.3979,0.5466
10.4816,0.5632
10.5525,0.6106
10.5999,0.6816
10.6166,0.7653
10.6166,1.2778
10.5999,1.3615
10.5525,1.4325
10.4816,1.4799
10.3979,1.4966
9.9604,1.4966
9.8766,1.4799
9.8057,1.4325
9.7583,1.3615
9.7416,1.2778
Z" /> 
<path style="fill:#C83434; fill-opacity:1.0000; stroke:none;fill-rule:evenodd;"
d="M 11.3166,0.7653
11.3333,0.6816
11.3807,0.6106
11.4516,0.5632
11.5354,0.5466
11.9729,0.5466
12.0566,0.5632
12.1275,0.6106
12.1749,0.6816
12.1916,0.7653
12.1916,1.2778
12.1749,1.3615
12.1275,1.4325
12.0566,1.4799
11.9729,1.4966
11.5354,1.4966
11.4516,1.4799
11.3807,1.4325
11.3333,1.3615
11.3166,1.2778
Z" /> 
<path style="fill:#D864FF; fill-opacity:0.4000; stroke:none;fill-rule:evenodd;"
d="M 9.7416,0.7653
9.7583,0.6816
9.8057,0.6106
9.8766,0.5632
9.9604,0.5466
10.3979,0.5466
10.4816,0.5632
10.5525,0.6106
10.5999,0.6816
10.6166,0.7653
10.6166,1.2778
10.5999,1.3615
10.5525,1.4325
10.4816,1.4799
10.3979,1.4966
9.9604,1.4966
9.8766,1.4799
9.8057,1.4325
9.7583,1.3615
9.7416,1.2778
Z" /> 
<path style="fill:#D864FF; fill-opacity:0.4000; stroke:none;fill-rule:evenodd;"
d="M 11.3166,0.7653
11.3333,0.6816
11.3807,0.6106
11.4516,0.5632
11.5354,0.5466
11.9729,0.5466
12.0566,0.5632
12.1275,0.6106
12.1749,0.6816
12.1916,0.7653
12.1916,1.2778
12.1749,1.3615
12.1275,1.4325
12.0566,1.4799
11.9729,1.4966
11.5354,1.4966
11.4516,1.4799
11.3807,1.4325
11.3333,1.3615
11.3166,1.2778
Z" /> 
<path style="fill:#B4A09A; fill-opacity:0.9000; stroke:none;fill-rule:evenodd;"
d="M 9.7416,0.7653
9.7583,0.6816
9.8057,0.6106
9.8766,0.5632
9.9604,0.5466
10.3979,0.5466
10.4816,0.5632
10.5525,0.6106
10.5999,0.6816
10.6166,0.7653
10.6166,1.2778
10.5999,1.3615
10.5525,1.4325
10.4816,1.4799
10.3979,1.4966
9.9604,1.4966
9.8766,1.4799
9.8057,1.4325
9.7583,1.3615
9.7416,1.2778
Z" /> 
<path style="fill:#B4A09A; fill-opacity:0.9000; stroke:none;fill-rule:evenodd;"
d="M 11.3166,0.7653
11.3333,0.6816
11.3807,0.6106
11.4516,0.5632
11.5354,0.5466
11.9729,0.5466
12.0566,0.5632
12.1275,0.6106
12.1749,0.6816
12.1916,0.7653
12.1916,1.2778
12.1749,1.3615
12.1275,1.4325
12.0566,1.4799
11.9729,1.4966
11.5354,1.4966
11.4516,1.4799
11.3807,1.4325
11.3333,1.3615
11.3166,1.2778
Z" /> 
</g>
<g style="fill:none; 
stroke:#F2EDA1; stroke-width:0.1588; stroke-opacity:1; 
stroke-linecap:round; stroke-linejoin:round;">
<text x="10.9666" y="1.6566"
textLength="5.6651" font-size="1.6933" lengthAdjust="spacingAndGlyphs"
text-anchor="middle" opacity="0">REF**</text>
<g class="stroked-text"><desc>REF**</desc>
<path d="M9.2733 1.6008
L8.8499 0.9961
" />
<path d="M8.5476 1.6008
L8.5476 0.3308
" />
<path d="M8.5476 0.3308
L9.0314 0.3308
" />
<path d="M9.0314 0.3308
L9.1523 0.3913
" />
<path d="M9.1523 0.3913
L9.2128 0.4518
" />
<path d="M9.2128 0.4518
L9.2733 0.5727
" />
<path d="M9.2733 0.5727
L9.2733 0.7542
" />
<path d="M9.2733 0.7542
L9.2128 0.8751
" />
<path d="M9.2128 0.8751
L9.1523 0.9356
" />
<path d="M9.1523 0.9356
L9.0314 0.9961
" />
<path d="M9.0314 0.9961
L8.5476 0.9961
" />
<path d="M9.8176 0.9356
L10.2409 0.9356
" />
<path d="M10.4223 1.6008
L9.8176 1.6008
" />
<path d="M9.8176 1.6008
L9.8176 0.3308
" />
<path d="M9.8176 0.3308
L10.4223 0.3308
" />
<path d="M11.3899 0.9356
L10.9666 0.9356
" />
<path d="M10.9666 1.6008
L10.9666 0.3308
" />
<path d="M10.9666 0.3308
L11.5714 0.3308
" />
<path d="M12.2366 0.3308
L12.2366 0.6332
" />
<path d="M11.9342 0.5123
L12.2366 0.6332
" />
<path d="M12.2366 0.6332
L12.5390 0.5123
" />
<path d="M12.0552 0.8751
L12.2366 0.6332
" />
<path d="M12.2366 0.6332
L12.4180 0.8751
" />
<path d="M13.2042 0.3308
L13.2042 0.6332
" />
<path d="M12.9018 0.5123
L13.2042 0.6332
" />
<path d="M13.2042 0.6332
L13.5066 0.5123
" />
<path d="M13.0228 0.8751
L13.2042 0.6332
" />
<path d="M13.2042 0.6332
L13.3856 0.8751
" />
</g></g>
<g style="fill:none; 
stroke:#F2EDA1; stroke-width:0.1200; stroke-opacity:1; 
stroke-linecap:round; stroke-linejoin:round;">
<path d="M10.8038 0.5116
L11.1294 0.5116
" />
<path d="M10.8038 1.5316
L11.1294 1.5316
" />
</g>
<g style="fill:none; 
stroke:#FF26E2; stroke-width:0.0500; stroke-opacity:1; 
stroke-linecap:round; stroke-linejoin:round;">
<path d="M9.4866 0.2916
L12.4466 0.2916
" />
<path d="M9.4866 1.7516
L9.4866 0.2916
" />
<path d="M12.4466 0.2916
L12.4466 1.7516
" />
<path d="M12.4466 1.7516
L9.4866 1.7516
" />
</g>
<g style="fill:none; 
stroke:#AFAFAF; stroke-width:0.1588; stroke-opacity:1; 
stroke-linecap:round; stroke-linejoin:round;">
<text x="10.9666" y="1.6566"
textLength="21.9332" font-size="1.6933" lengthAdjust="spacingAndGlyphs"
text-anchor="middle" opacity="0">Fuse_0603_1608Metric</text>
<g class="stroked-text"><desc>Fuse_0603_1608Metric</desc>
<path d="M0.8368 0.9356
L0.4135 0.9356
" />
<path d="M0.4135 1.6008
L0.4135 0.3308
" />
<path d="M0.4135 0.3308
L1.0183 0.3308
" />
<path d="M2.0464 0.7542
L2.0464 1.6008
" />
<path d="M1.5021 0.7542
L1.5021 1.4194
" />
<path d="M1.5021 1.4194
L1.5626 1.5404
" />
<path d="M1.5626 1.5404
L1.6835 1.6008
" />
<path d="M1.6835 1.6008
L1.8649 1.6008
" />
<path d="M1.8649 1.6008
L1.9859 1.5404
" />
<path d="M1.9859 1.5404
L2.0464 1.4799
" />
<path d="M2.5906 1.5404
L2.7116 1.6008
" />
<path d="M2.7116 1.6008
L2.9535 1.6008
" />
<path d="M2.9535 1.6008
L3.0745 1.5404
" />
<path d="M3.0745 1.5404
L3.1349 1.4194
" />
<path d="M3.1349 1.4194
L3.1349 1.3589
" />
<path d="M3.1349 1.3589
L3.0745 1.2380
" />
<path d="M3.0745 1.2380
L2.9535 1.1775
" />
<path d="M2.9535 1.1775
L2.7721 1.1775
" />
<path d="M2.7721 1.1775
L2.6511 1.1170
" />
<path d="M2.6511 1.1170
L2.5906 0.9961
" />
<path d="M2.5906 0.9961
L2.5906 0.9356
" />
<path d="M2.5906 0.9356
L2.6511 0.8146
" />
<path d="M2.6511 0.8146
L2.7721 0.7542
" />
<path d="M2.7721 0.7542
L2.9535 0.7542
" />
<path d="M2.9535 0.7542
L3.0745 0.8146
" />
<path d="M4.1630 1.5404
L4.0421 1.6008
" />
<path d="M4.0421 1.6008
L3.8002 1.6008
" />
<path d="M3.8002 1.6008
L3.6792 1.5404
" />
<path d="M3.6792 1.5404
L3.6187 1.4194
" />
<path d="M3.6187 1.4194
L3.6187 0.9356
" />
<path d="M3.6187 0.9356
L3.6792 0.8146
" />
<path d="M3.6792 0.8146
L3.8002 0.7542
" />
<path d="M3.8002 0.7542
L4.0421 0.7542
" />
<path d="M4.0421 0.7542
L4.1630 0.8146
" />
<path d="M4.1630 0.8146
L4.2235 0.9356
" />
<path d="M4.2235 0.9356
L4.2235 1.0565
" />
<path d="M4.2235 1.0565
L3.6187 1.1775
" />
<path d="M4.4654 1.7218
L5.4330 1.7218
" />
<path d="M5.9773 0.3308
L6.0983 0.3308
" />
<path d="M6.0983 0.3308
L6.2192 0.3913
" />
<path d="M6.2192 0.3913
L6.2797 0.4518
" />
<path d="M6.2797 0.4518
L6.3402 0.5727
" />
<path d="M6.3402 0.5727
L6.4006 0.8146
" />
<path d="M6.4006 0.8146
L6.4006 1.1170
" />
<path d="M6.4006 1.1170
L6.3402 1.3589
" />
<path d="M6.3402 1.3589
L6.2797 1.4799
" />
<path d="M6.2797 1.4799
L6.2192 1.5404
" />
<path d="M6.2192 1.5404
L6.0983 1.6008
" />
<path d="M6.0983 1.6008
L5.9773 1.6008
" />
<path d="M5.9773 1.6008
L5.8564 1.5404
" />
<path d="M5.8564 1.5404
L5.7959 1.4799
" />
<path d="M5.7959 1.4799
L5.7354 1.3589
" />
<path d="M5.7354 1.3589
L5.6749 1.1170
" />
<path d="M5.6749 1.1170
L5.6749 0.8146
" />
<path d="M5.6749 0.8146
L5.7354 0.5727
" />
<path d="M5.7354 0.5727
L5.7959 0.4518
" />
<path d="M5.7959 0.4518
L5.8564 0.3913
" />
<path d="M5.8564 0.3913
L5.9773 0.3308
" />
<path d="M7.4892 0.3308
L7.2473 0.3308
" />
<path d="M7.2473 0.3308
L7.1264 0.3913
" />
<path d="M7.1264 0.3913
L7.0659 0.4518
" />
<path d="M7.0659 0.4518
L6.9449 0.6332
" />
<path d="M6.9449 0.6332
L6.8845 0.8751
" />
<path d="M6.8845 0.8751
L6.8845 1.3589
" />
<path d="M6.8845 1.3589
L6.9449 1.4799
" />
<path d="M6.9449 1.4799
L7.0054 1.5404
" />
<path d="M7.0054 1.5404
L7.1264 1.6008
" />
<path d="M7.1264 1.6008
L7.3683 1.6008
" />
<path d="M7.3683 1.6008
L7.4892 1.5404
" />
<path d="M7.4892 1.5404
L7.5497 1.4799
" />
<path d="M7.5497 1.4799
L7.6102 1.3589
" />
<path d="M7.6102 1.3589
L7.6102 1.0565
" />
<path d="M7.6102 1.0565
L7.5497 0.9356
" />
<path d="M7.5497 0.9356
L7.4892 0.8751
" />
<path d="M7.4892 0.8751
L7.3683 0.8146
" />
<path d="M7.3683 0.8146
L7.1264 0.8146
" />
<path d="M7.1264 0.8146
L7.0054 0.8751
" />
<path d="M7.0054 0.8751
L6.9449 0.9356
" />
<path d="M6.9449 0.9356
L6.8845 1.0565
" />
<path d="M8.3964 0.3308
L8.5173 0.3308
" />
<path d="M8.5173 0.3308
L8.6383 0.3913
" />
<path d="M8.6383 0.3913
L8.6987 0.4518
" />
<path d="M8.6987 0.4518
L8.7592 0.5727
" />
<path d="M8.7592 0.5727
L8.8197 0.8146
" />
<path d="M8.8197 0.8146
L8.8197 1.1170
" />
<path d="M8.8197 1.1170
L8.7592 1.3589
" />
<path d="M8.7592 1.3589
L8.6987 1.4799
" />
<path d="M8.6987 1.4799
L8.6383 1.5404
" />
<path d="M8.6383 1.5404
L8.5173 1.6008
" />
<path d="M8.5173 1.6008
L8.3964 1.6008
" />
<path d="M8.3964 1.6008
L8.2754 1.5404
" />
<path d="M8.2754 1.5404
L8.2149 1.4799
" />
<path d="M8.2149 1.4799
L8.1545 1.3589
" />
<path d="M8.1545 1.3589
L8.0940 1.1170
" />
<path d="M8.0940 1.1170
L8.0940 0.8146
" />
<path d="M8.0940 0.8146
L8.1545 0.5727
" />
<path d="M8.1545 0.5727
L8.2149 0.4518
" />
<path d="M8.2149 0.4518
L8.2754 0.3913
" />
<path d="M8.2754 0.3913
L8.3964 0.3308
" />
<path d="M9.2430 0.3308
L10.0292 0.3308
" />
<path d="M10.0292 0.3308
L9.6059 0.8146
" />
<path d="M9.6059 0.8146
L9.7873 0.8146
" />
<path d="M9.7873 0.8146
L9.9083 0.8751
" />
<path d="M9.9083 0.8751
L9.9687 0.9356
" />
<path d="M9.9687 0.9356
L10.0292 1.0565
" />
<path d="M10.0292 1.0565
L10.0292 1.3589
" />
<path d="M10.0292 1.3589
L9.9687 1.4799
" />
<path d="M9.9687 1.4799
L9.9083 1.5404
" />
<path d="M9.9083 1.5404
L9.7873 1.6008
" />
<path d="M9.7873 1.6008
L9.4245 1.6008
" />
<path d="M9.4245 1.6008
L9.3035 1.5404
" />
<path d="M9.3035 1.5404
L9.2430 1.4799
" />
<path d="M10.2711 1.7218
L11.2387 1.7218
" />
<path d="M12.2064 1.6008
L11.4806 1.6008
" />
<path d="M11.8435 1.6008
L11.8435 0.3308
" />
<path d="M11.8435 0.3308
L11.7226 0.5123
" />
<path d="M11.7226 0.5123
L11.6016 0.6332
" />
<path d="M11.6016 0.6332
L11.4806 0.6937
" />
<path d="M13.2949 0.3308
L13.0530 0.3308
" />
<path d="M13.0530 0.3308
L12.9321 0.3913
" />
<path d="M12.9321 0.3913
L12.8716 0.4518
" />
<path d="M12.8716 0.4518
L12.7506 0.6332
" />
<path d="M12.7506 0.6332
L12.6902 0.8751
" />
<path d="M12.6902 0.8751
L12.6902 1.3589
" />
<path d="M12.6902 1.3589
L12.7506 1.4799
" />
<path d="M12.7506 1.4799
L12.8111 1.5404
" />
<path d="M12.8111 1.5404
L12.9321 1.6008
" />
<path d="M12.9321 1.6008
L13.1740 1.6008
" />
<path d="M13.1740 1.6008
L13.2949 1.5404
" />
<path d="M13.2949 1.5404
L13.3554 1.4799
" />
<path d="M13.3554 1.4799
L13.4159 1.3589
" />
<path d="M13.4159 1.3589
L13.4159 1.0565
" />
<path d="M13.4159 1.0565
L13.3554 0.9356
" />
<path d="M13.3554 0.9356
L13.2949 0.8751
" />
<path d="M13.2949 0.8751
L13.1740 0.8146
" />
<path d="M13.1740 0.8146
L12.9321 0.8146
" />
<path d="M12.9321 0.8146
L12.8111 0.8751
" />
<path d="M12.8111 0.8751
L12.7506 0.9356
" />
<path d="M12.7506 0.9356
L12.6902 1.0565
" />
<path d="M14.2021 0.3308
L14.3230 0.3308
" />
<path d="M14.3230 0.3308
L14.4440 0.3913
" />
<path d="M14.4440 0.3913
L14.5045 0.4518
" />
<path d="M14.5045 0.4518
L14.5649 0.5727
" />
<path d="M14.5649 0.5727
L14.6254 0.8146
" />
<path d="M14.6254 0.8146
L14.6254 1.1170
" />
<path d="M14.6254 1.1170
L14.5649 1.3589
" />
<path d="M14.5649 1.3589
L14.5045 1.4799
" />
<path d="M14.5045 1.4799
L14.4440 1.5404
" />
<path d="M14.4440 1.5404
L14.3230 1.6008
" />
<path d="M14.3230 1.6008
L14.2021 1.6008
" />
<path d="M14.2021 1.6008
L14.0811 1.5404
" />
<path d="M14.0811 1.5404
L14.0206 1.4799
" />
<path d="M14.0206 1.4799
L13.9602 1.3589
" />
<path d="M13.9602 1.3589
L13.8997 1.1170
" />
<path d="M13.8997 1.1170
L13.8997 0.8146
" />
<path d="M13.8997 0.8146
L13.9602 0.5727
" />
<path d="M13.9602 0.5727
L14.0206 0.4518
" />
<path d="M14.0206 0.4518
L14.0811 0.3913
" />
<path d="M14.0811 0.3913
L14.2021 0.3308
" />
<path d="M15.3511 0.8751
L15.2302 0.8146
" />
<path d="M15.2302 0.8146
L15.1697 0.7542
" />
<path d="M15.1697 0.7542
L15.1092 0.6332
" />
<path d="M15.1092 0.6332
L15.1092 0.5727
" />
<path d="M15.1092 0.5727
L15.1697 0.4518
" />
<path d="M15.1697 0.4518
L15.2302 0.3913
" />
<path d="M15.2302 0.3913
L15.3511 0.3308
" />
<path d="M15.3511 0.3308
L15.5930 0.3308
" />
<path d="M15.5930 0.3308
L15.7140 0.3913
" />
<path d="M15.7140 0.3913
L15.7745 0.4518
" />
<path d="M15.7745 0.4518
L15.8349 0.5727
" />
<path d="M15.8349 0.5727
L15.8349 0.6332
" />
<path d="M15.8349 0.6332
L15.7745 0.7542
" />
<path d="M15.7745 0.7542
L15.7140 0.8146
" />
<path d="M15.7140 0.8146
L15.5930 0.8751
" />
<path d="M15.5930 0.8751
L15.3511 0.8751
" />
<path d="M15.3511 0.8751
L15.2302 0.9356
" />
<path d="M15.2302 0.9356
L15.1697 0.9961
" />
<path d="M15.1697 0.9961
L15.1092 1.1170
" />
<path d="M15.1092 1.1170
L15.1092 1.3589
" />
<path d="M15.1092 1.3589
L15.1697 1.4799
" />
<path d="M15.1697 1.4799
L15.2302 1.5404
" />
<path d="M15.2302 1.5404
L15.3511 1.6008
" />
<path d="M15.3511 1.6008
L15.5930 1.6008
" />
<path d="M15.5930 1.6008
L15.7140 1.5404
" />
<path d="M15.7140 1.5404
L15.7745 1.4799
" />
<path d="M15.7745 1.4799
L15.8349 1.3589
" />
<path d="M15.8349 1.3589
L15.8349 1.1170
" />
<path d="M15.8349 1.1170
L15.7745 0.9961
" />
<path d="M15.7745 0.9961
L15.7140 0.9356
" />
<path d="M15.7140 0.9356
L15.5930 0.8751
" />
<path d="M16.3792 1.6008
L16.3792 0.3308
" />
<path d="M16.3792 0.3308
L16.8026 1.2380
" />
<path d="M16.8026 1.2380
L17.2259 0.3308
" />
<path d="M17.2259 0.3308
L17.2259 1.6008
" />
<path d="M18.3145 1.5404
L18.1935 1.6008
" />
<path d="M18.1935 1.6008
L17.9516 1.6008
" />
<path d="M17.9516 1.6008
L17.8306 1.5404
" />
<path d="M17.8306 1.5404
L17.7702 1.4194
" />
<path d="M17.7702 1.4194
L17.7702 0.9356
" />
<path d="M17.7702 0.9356
L17.8306 0.8146
" />
<path d="M17.8306 0.8146
L17.9516 0.7542
" />
<path d="M17.9516 0.7542
L18.1935 0.7542
" />
<path d="M18.1935 0.7542
L18.3145 0.8146
" />
<path d="M18.3145 0.8146
L18.3749 0.9356
" />
<path d="M18.3749 0.9356
L18.3749 1.0565
" />
<path d="M18.3749 1.0565
L17.7702 1.1775
" />
<path d="M18.7378 0.7542
L19.2216 0.7542
" />
<path d="M18.9192 0.3308
L18.9192 1.4194
" />
<path d="M18.9192 1.4194
L18.9797 1.5404
" />
<path d="M18.9797 1.5404
L19.1006 1.6008
" />
<path d="M19.1006 1.6008
L19.2216 1.6008
" />
<path d="M19.6449 1.6008
L19.6449 0.7542
" />
<path d="M19.6449 0.9961
L19.7054 0.8751
" />
<path d="M19.7054 0.8751
L19.7659 0.8146
" />
<path d="M19.7659 0.8146
L19.8868 0.7542
" />
<path d="M19.8868 0.7542
L20.0078 0.7542
" />
<path d="M20.4311 1.6008
L20.4311 0.7542
" />
<path d="M20.4311 0.3308
L20.3706 0.3913
" />
<path d="M20.3706 0.3913
L20.4311 0.4518
" />
<path d="M20.4311 0.4518
L20.4916 0.3913
" />
<path d="M20.4916 0.3913
L20.4311 0.3308
" />
<path d="M20.4311 0.3308
L20.4311 0.4518
" />
<path d="M21.5802 1.5404
L21.4592 1.6008
" />
<path d="M21.4592 1.6008
L21.2173 1.6008
" />
<path d="M21.2173 1.6008
L21.0964 1.5404
" />
<path d="M21.0964 1.5404
L21.0359 1.4799
" />
<path d="M21.0359 1.4799
L20.9754 1.3589
" />
<path d="M20.9754 1.3589
L20.9754 0.9961
" />
<path d="M20.9754 0.9961
L21.0359 0.8751
" />
<path d="M21.0359 0.8751
L21.0964 0.8146
" />
<path d="M21.0964 0.8146
L21.2173 0.7542
" />
<path d="M21.2173 0.7542
L21.4592 0.7542
" />
<path d="M21.4592 0.7542
L21.5802 0.8146
" />
</g></g>
<g style="fill:none; 
stroke:#AFAFAF; stroke-width:0.0600; stroke-opacity:1; 
stroke-linecap:round; stroke-linejoin:round;">
<text x="10.9666" y="1.2216"
textLength="1.8143" font-size="0.5333" lengthAdjust="spacingAndGlyphs"
text-anchor="middle" opacity="0">REF**</text>
<g class="stroked-text"><desc>REF**</desc>
<path d="M10.4333 1.2035
L10.2999 1.0130
" />
<path d="M10.2047 1.2035
L10.2047 0.8035
" />
<path d="M10.2047 0.8035
L10.3571 0.8035
" />
<path d="M10.3571 0.8035
L10.3952 0.8225
" />
<path d="M10.3952 0.8225
L10.4142 0.8416
" />
<path d="M10.4142 0.8416
L10.4333 0.8797
" />
<path d="M10.4333 0.8797
L10.4333 0.9368
" />
<path d="M10.4333 0.9368
L10.4142 0.9749
" />
<path d="M10.4142 0.9749
L10.3952 0.9940
" />
<path d="M10.3952 0.9940
L10.3571 1.0130
" />
<path d="M10.3571 1.0130
L10.2047 1.0130
" />
<path d="M10.6047 0.9940
L10.7380 0.9940
" />
<path d="M10.7952 1.2035
L10.6047 1.2035
" />
<path d="M10.6047 1.2035
L10.6047 0.8035
" />
<path d="M10.6047 0.8035
L10.7952 0.8035
" />
<path d="M11.0999 0.9940
L10.9666 0.9940
" />
<path d="M10.9666 1.2035
L10.9666 0.8035
" />
<path d="M10.9666 0.8035
L11.1571 0.8035
" />
<path d="M11.3666 0.8035
L11.3666 0.8987
" />
<path d="M11.2714 0.8606
L11.3666 0.8987
" />
<path d="M11.3666 0.8987
L11.4618 0.8606
" />
<path d="M11.3095 0.9749
L11.3666 0.8987
" />
<path d="M11.3666 0.8987
L11.4237 0.9749
" />
<path d="M11.6714 0.8035
L11.6714 0.8987
" />
<path d="M11.5761 0.8606
L11.6714 0.8987
" />
<path d="M11.6714 0.8987
L11.7666 0.8606
" />
<path d="M11.6142 0.9749
L11.6714 0.8987
" />
<path d="M11.6714 0.8987
L11.7285 0.9749
" />
</g></g>
<g style="fill:none; 
stroke:#AFAFAF; stroke-width:0.1000; stroke-opacity:1; 
stroke-linecap:round; stroke-linejoin:round;">
<path d="M10.1666 0.6216
L11.7666 0.6216
" />
<path d="M10.1666 1.4216
L10.1666 0.6216
" />
<path d="M11.7666 0.6216
L11.7666 1.4216
" />
<path d="M11.7666 1.4216
L10.1666 1.4216
" />
</g> 
</svg>
