<?xml version="1.0" standalone="no"?>
 <!DOCTYPE svg PUBLIC "-//W3C//DTD SVG 1.1//EN" 
 "http://www.w3.org/Graphics/SVG/1.1/DTD/svg11.dtd"> 
<svg
  xmlns:svg="http://www.w3.org/2000/svg"
  xmlns="http://www.w3.org/2000/svg"
  xmlns:xlink="http://www.w3.org/1999/xlink"
  version="1.1"
  width="38.4810mm" height="15.5448mm" viewBox="0.0000 0.0000 38.4810 15.5448">
<title>SVG Image created as working-brd.svg date 2024/04/22 17:14:37 </title>
  <desc>Image generated by PCBNEW </desc>
<g style="fill:#000000; fill-opacity:1.0000;stroke:#000000; stroke-opacity:1.0000;
stroke-linecap:round; stroke-linejoin:round;"
 transform="translate(0 0) scale(1 1)">
<path style="fill:#C83434; fill-opacity:1.0000; stroke:none;fill-rule:evenodd;"
d="M 16.8571,0.8700
16.9527,0.8890
17.0337,0.9431
17.0878,1.0242
17.1068,1.1198
17.1068,1.7302
17.0878,1.8258
17.0337,1.9068
16.9527,1.9610
16.8571,1.9800
15.3566,1.9800
15.2610,1.9610
15.1800,1.9068
15.1258,1.8258
15.1068,1.7302
15.1068,1.1198
15.1258,1.0242
15.1800,0.9431
15.2610,0.8890
15.3566,0.8700
Z" /> 
<path style="fill:#C83434; fill-opacity:1.0000; stroke:none;fill-rule:evenodd;"
d="M 16.8571,5.9500
16.9527,5.9690
17.0337,6.0231
17.0878,6.1042
17.1068,6.1997
17.1068,6.8102
17.0878,6.9058
17.0337,6.9868
16.9527,7.0410
16.8571,7.0600
15.3566,7.0600
15.2610,7.0410
15.1800,6.9868
15.1258,6.9058
15.1068,6.8102
15.1068,6.1997
15.1258,6.1042
15.1800,6.0231
15.2610,5.9690
15.3566,5.9500
Z" /> 
<path style="fill:#C83434; fill-opacity:1.0000; stroke:none;fill-rule:evenodd;"
d="M 16.8571,8.4900
16.9527,8.5090
17.0337,8.5632
17.0878,8.6442
17.1068,8.7397
17.1068,9.3502
17.0878,9.4458
17.0337,9.5268
16.9527,9.5810
16.8571,9.6000
15.3566,9.6000
15.2610,9.5810
15.1800,9.5268
15.1258,9.4458
15.1068,9.3502
15.1068,8.7397
15.1258,8.6442
15.1800,8.5632
15.2610,8.5090
15.3566,8.4900
Z" /> 
<path style="fill:#C83434; fill-opacity:1.0000; stroke:none;fill-rule:evenodd;"
d="M 16.8571,11.0300
16.9527,11.0490
17.0337,11.1031
17.0878,11.1842
17.1068,11.2797
17.1068,11.8902
17.0878,11.9858
17.0337,12.0668
16.9527,12.1210
16.8571,12.1400
15.3566,12.1400
15.2610,12.1210
15.1800,12.0668
15.1258,11.9858
15.1068,11.8902
15.1068,11.2797
15.1258,11.1842
15.1800,11.1031
15.2610,11.0490
15.3566,11.0300
Z" /> 
<path style="fill:#C83434; fill-opacity:1.0000; stroke:none;fill-rule:evenodd;"
d="M 16.8571,13.5700
16.9527,13.5890
17.0337,13.6431
17.0878,13.7242
17.1068,13.8197
17.1068,14.4302
17.0878,14.5258
17.0337,14.6068
16.9527,14.6610
16.8571,14.6800
15.3566,14.6800
15.2610,14.6610
15.1800,14.6068
15.1258,14.5258
15.1068,14.4302
15.1068,13.8197
15.1258,13.7242
15.1800,13.6431
15.2610,13.5890
15.3566,13.5700
Z" /> 
<path style="fill:#C83434; fill-opacity:1.0000; stroke:none;fill-rule:evenodd;"
d="M 23.1471,13.5700
23.2427,13.5890
23.3237,13.6431
23.3778,13.7242
23.3968,13.8197
23.3968,14.4302
23.3778,14.5258
23.3237,14.6068
23.2427,14.6610
23.1471,14.6800
21.6466,14.6800
21.5510,14.6610
21.4700,14.6068
21.4158,14.5258
21.3968,14.4302
21.3968,13.8197
21.4158,13.7242
21.4700,13.6431
21.5510,13.5890
21.6466,13.5700
Z" /> 
<path style="fill:#C83434; fill-opacity:1.0000; stroke:none;fill-rule:evenodd;"
d="M 23.1471,11.0300
23.2427,11.0490
23.3237,11.1031
23.3778,11.1842
23.3968,11.2797
23.3968,11.8902
23.3778,11.9858
23.3237,12.0668
23.2427,12.1210
23.1471,12.1400
21.6466,12.1400
21.5510,12.1210
21.4700,12.0668
21.4158,11.9858
21.3968,11.8902
21.3968,11.2797
21.4158,11.1842
21.4700,11.1031
21.5510,11.0490
21.6466,11.0300
Z" /> 
<path style="fill:#C83434; fill-opacity:1.0000; stroke:none;fill-rule:evenodd;"
d="M 23.1471,8.4900
23.2427,8.5090
23.3237,8.5632
23.3778,8.6442
23.3968,8.7397
23.3968,9.3502
23.3778,9.4458
23.3237,9.5268
23.2427,9.5810
23.1471,9.6000
21.6466,9.6000
21.5510,9.5810
21.4700,9.5268
21.4158,9.4458
21.3968,9.3502
21.3968,8.7397
21.4158,8.6442
21.4700,8.5632
21.5510,8.5090
21.6466,8.4900
Z" /> 
<path style="fill:#C83434; fill-opacity:1.0000; stroke:none;fill-rule:evenodd;"
d="M 23.1471,5.9500
23.2427,5.9690
23.3237,6.0231
23.3778,6.1042
23.3968,6.1997
23.3968,6.8102
23.3778,6.9058
23.3237,6.9868
23.2427,7.0410
23.1471,7.0600
21.6466,7.0600
21.5510,7.0410
21.4700,6.9868
21.4158,6.9058
21.3968,6.8102
21.3968,6.1997
21.4158,6.1042
21.4700,6.0231
21.5510,5.9690
21.6466,5.9500
Z" /> 
<path style="fill:#C83434; fill-opacity:1.0000; stroke:none;fill-rule:evenodd;"
d="M 23.1471,0.8700
23.2427,0.8890
23.3237,0.9431
23.3778,1.0242
23.3968,1.1198
23.3968,1.7302
23.3778,1.8258
23.3237,1.9068
23.2427,1.9610
23.1471,1.9800
21.6466,1.9800
21.5510,1.9610
21.4700,1.9068
21.4158,1.8258
21.3968,1.7302
21.3968,1.1198
21.4158,1.0242
21.4700,0.9431
21.5510,0.8890
21.6466,0.8700
Z" /> 
<path style="fill:#D864FF; fill-opacity:0.4000; stroke:none;fill-rule:evenodd;"
d="M 16.8571,0.8700
16.9527,0.8890
17.0337,0.9431
17.0878,1.0242
17.1068,1.1198
17.1068,1.7302
17.0878,1.8258
17.0337,1.9068
16.9527,1.9610
16.8571,1.9800
15.3566,1.9800
15.2610,1.9610
15.1800,1.9068
15.1258,1.8258
15.1068,1.7302
15.1068,1.1198
15.1258,1.0242
15.1800,0.9431
15.2610,0.8890
15.3566,0.8700
Z" /> 
<path style="fill:#D864FF; fill-opacity:0.4000; stroke:none;fill-rule:evenodd;"
d="M 16.8571,5.9500
16.9527,5.9690
17.0337,6.0231
17.0878,6.1042
17.1068,6.1997
17.1068,6.8102
17.0878,6.9058
17.0337,6.9868
16.9527,7.0410
16.8571,7.0600
15.3566,7.0600
15.2610,7.0410
15.1800,6.9868
15.1258,6.9058
15.1068,6.8102
15.1068,6.1997
15.1258,6.1042
15.1800,6.0231
15.2610,5.9690
15.3566,5.9500
Z" /> 
<path style="fill:#D864FF; fill-opacity:0.4000; stroke:none;fill-rule:evenodd;"
d="M 16.8571,8.4900
16.9527,8.5090
17.0337,8.5632
17.0878,8.6442
17.1068,8.7397
17.1068,9.3502
17.0878,9.4458
17.0337,9.5268
16.9527,9.5810
16.8571,9.6000
15.3566,9.6000
15.2610,9.5810
15.1800,9.5268
15.1258,9.4458
15.1068,9.3502
15.1068,8.7397
15.1258,8.6442
15.1800,8.5632
15.2610,8.5090
15.3566,8.4900
Z" /> 
<path style="fill:#D864FF; fill-opacity:0.4000; stroke:none;fill-rule:evenodd;"
d="M 16.8571,11.0300
16.9527,11.0490
17.0337,11.1031
17.0878,11.1842
17.1068,11.2797
17.1068,11.8902
17.0878,11.9858
17.0337,12.0668
16.9527,12.1210
16.8571,12.1400
15.3566,12.1400
15.2610,12.1210
15.1800,12.0668
15.1258,11.9858
15.1068,11.8902
15.1068,11.2797
15.1258,11.1842
15.1800,11.1031
15.2610,11.0490
15.3566,11.0300
Z" /> 
<path style="fill:#D864FF; fill-opacity:0.4000; stroke:none;fill-rule:evenodd;"
d="M 16.8571,13.5700
16.9527,13.5890
17.0337,13.6431
17.0878,13.7242
17.1068,13.8197
17.1068,14.4302
17.0878,14.5258
17.0337,14.6068
16.9527,14.6610
16.8571,14.6800
15.3566,14.6800
15.2610,14.6610
15.1800,14.6068
15.1258,14.5258
15.1068,14.4302
15.1068,13.8197
15.1258,13.7242
15.1800,13.6431
15.2610,13.5890
15.3566,13.5700
Z" /> 
<path style="fill:#D864FF; fill-opacity:0.4000; stroke:none;fill-rule:evenodd;"
d="M 23.1471,13.5700
23.2427,13.5890
23.3237,13.6431
23.3778,13.7242
23.3968,13.8197
23.3968,14.4302
23.3778,14.5258
23.3237,14.6068
23.2427,14.6610
23.1471,14.6800
21.6466,14.6800
21.5510,14.6610
21.4700,14.6068
21.4158,14.5258
21.3968,14.4302
21.3968,13.8197
21.4158,13.7242
21.4700,13.6431
21.5510,13.5890
21.6466,13.5700
Z" /> 
<path style="fill:#D864FF; fill-opacity:0.4000; stroke:none;fill-rule:evenodd;"
d="M 23.1471,11.0300
23.2427,11.0490
23.3237,11.1031
23.3778,11.1842
23.3968,11.2797
23.3968,11.8902
23.3778,11.9858
23.3237,12.0668
23.2427,12.1210
23.1471,12.1400
21.6466,12.1400
21.5510,12.1210
21.4700,12.0668
21.4158,11.9858
21.3968,11.8902
21.3968,11.2797
21.4158,11.1842
21.4700,11.1031
21.5510,11.0490
21.6466,11.0300
Z" /> 
<path style="fill:#D864FF; fill-opacity:0.4000; stroke:none;fill-rule:evenodd;"
d="M 23.1471,8.4900
23.2427,8.5090
23.3237,8.5632
23.3778,8.6442
23.3968,8.7397
23.3968,9.3502
23.3778,9.4458
23.3237,9.5268
23.2427,9.5810
23.1471,9.6000
21.6466,9.6000
21.5510,9.5810
21.4700,9.5268
21.4158,9.4458
21.3968,9.3502
21.3968,8.7397
21.4158,8.6442
21.4700,8.5632
21.5510,8.5090
21.6466,8.4900
Z" /> 
<path style="fill:#D864FF; fill-opacity:0.4000; stroke:none;fill-rule:evenodd;"
d="M 23.1471,5.9500
23.2427,5.9690
23.3237,6.0231
23.3778,6.1042
23.3968,6.1997
23.3968,6.8102
23.3778,6.9058
23.3237,6.9868
23.2427,7.0410
23.1471,7.0600
21.6466,7.0600
21.5510,7.0410
21.4700,6.9868
21.4158,6.9058
21.3968,6.8102
21.3968,6.1997
21.4158,6.1042
21.4700,6.0231
21.5510,5.9690
21.6466,5.9500
Z" /> 
<path style="fill:#D864FF; fill-opacity:0.4000; stroke:none;fill-rule:evenodd;"
d="M 23.1471,0.8700
23.2427,0.8890
23.3237,0.9431
23.3778,1.0242
23.3968,1.1198
23.3968,1.7302
23.3778,1.8258
23.3237,1.9068
23.2427,1.9610
23.1471,1.9800
21.6466,1.9800
21.5510,1.9610
21.4700,1.9068
21.4158,1.8258
21.3968,1.7302
21.3968,1.1198
21.4158,1.0242
21.4700,0.9431
21.5510,0.8890
21.6466,0.8700
Z" /> 
<path style="fill:#B4A09A; fill-opacity:0.9000; stroke:none;fill-rule:evenodd;"
d="M 16.8571,0.8700
16.9527,0.8890
17.0337,0.9431
17.0878,1.0242
17.1068,1.1198
17.1068,1.7302
17.0878,1.8258
17.0337,1.9068
16.9527,1.9610
16.8571,1.9800
15.3566,1.9800
15.2610,1.9610
15.1800,1.9068
15.1258,1.8258
15.1068,1.7302
15.1068,1.1198
15.1258,1.0242
15.1800,0.9431
15.2610,0.8890
15.3566,0.8700
Z" /> 
<path style="fill:#B4A09A; fill-opacity:0.9000; stroke:none;fill-rule:evenodd;"
d="M 16.8571,5.9500
16.9527,5.9690
17.0337,6.0231
17.0878,6.1042
17.1068,6.1997
17.1068,6.8102
17.0878,6.9058
17.0337,6.9868
16.9527,7.0410
16.8571,7.0600
15.3566,7.0600
15.2610,7.0410
15.1800,6.9868
15.1258,6.9058
15.1068,6.8102
15.1068,6.1997
15.1258,6.1042
15.1800,6.0231
15.2610,5.9690
15.3566,5.9500
Z" /> 
<path style="fill:#B4A09A; fill-opacity:0.9000; stroke:none;fill-rule:evenodd;"
d="M 16.8571,8.4900
16.9527,8.5090
17.0337,8.5632
17.0878,8.6442
17.1068,8.7397
17.1068,9.3502
17.0878,9.4458
17.0337,9.5268
16.9527,9.5810
16.8571,9.6000
15.3566,9.6000
15.2610,9.5810
15.1800,9.5268
15.1258,9.4458
15.1068,9.3502
15.1068,8.7397
15.1258,8.6442
15.1800,8.5632
15.2610,8.5090
15.3566,8.4900
Z" /> 
<path style="fill:#B4A09A; fill-opacity:0.9000; stroke:none;fill-rule:evenodd;"
d="M 16.8571,11.0300
16.9527,11.0490
17.0337,11.1031
17.0878,11.1842
17.1068,11.2797
17.1068,11.8902
17.0878,11.9858
17.0337,12.0668
16.9527,12.1210
16.8571,12.1400
15.3566,12.1400
15.2610,12.1210
15.1800,12.0668
15.1258,11.9858
15.1068,11.8902
15.1068,11.2797
15.1258,11.1842
15.1800,11.1031
15.2610,11.0490
15.3566,11.0300
Z" /> 
<path style="fill:#B4A09A; fill-opacity:0.9000; stroke:none;fill-rule:evenodd;"
d="M 16.8571,13.5700
16.9527,13.5890
17.0337,13.6431
17.0878,13.7242
17.1068,13.8197
17.1068,14.4302
17.0878,14.5258
17.0337,14.6068
16.9527,14.6610
16.8571,14.6800
15.3566,14.6800
15.2610,14.6610
15.1800,14.6068
15.1258,14.5258
15.1068,14.4302
15.1068,13.8197
15.1258,13.7242
15.1800,13.6431
15.2610,13.5890
15.3566,13.5700
Z" /> 
<path style="fill:#B4A09A; fill-opacity:0.9000; stroke:none;fill-rule:evenodd;"
d="M 23.1471,13.5700
23.2427,13.5890
23.3237,13.6431
23.3778,13.7242
23.3968,13.8197
23.3968,14.4302
23.3778,14.5258
23.3237,14.6068
23.2427,14.6610
23.1471,14.6800
21.6466,14.6800
21.5510,14.6610
21.4700,14.6068
21.4158,14.5258
21.3968,14.4302
21.3968,13.8197
21.4158,13.7242
21.4700,13.6431
21.5510,13.5890
21.6466,13.5700
Z" /> 
<path style="fill:#B4A09A; fill-opacity:0.9000; stroke:none;fill-rule:evenodd;"
d="M 23.1471,11.0300
23.2427,11.0490
23.3237,11.1031
23.3778,11.1842
23.3968,11.2797
23.3968,11.8902
23.3778,11.9858
23.3237,12.0668
23.2427,12.1210
23.1471,12.1400
21.6466,12.1400
21.5510,12.1210
21.4700,12.0668
21.4158,11.9858
21.3968,11.8902
21.3968,11.2797
21.4158,11.1842
21.4700,11.1031
21.5510,11.0490
21.6466,11.0300
Z" /> 
<path style="fill:#B4A09A; fill-opacity:0.9000; stroke:none;fill-rule:evenodd;"
d="M 23.1471,8.4900
23.2427,8.5090
23.3237,8.5632
23.3778,8.6442
23.3968,8.7397
23.3968,9.3502
23.3778,9.4458
23.3237,9.5268
23.2427,9.5810
23.1471,9.6000
21.6466,9.6000
21.5510,9.5810
21.4700,9.5268
21.4158,9.4458
21.3968,9.3502
21.3968,8.7397
21.4158,8.6442
21.4700,8.5632
21.5510,8.5090
21.6466,8.4900
Z" /> 
<path style="fill:#B4A09A; fill-opacity:0.9000; stroke:none;fill-rule:evenodd;"
d="M 23.1471,5.9500
23.2427,5.9690
23.3237,6.0231
23.3778,6.1042
23.3968,6.1997
23.3968,6.8102
23.3778,6.9058
23.3237,6.9868
23.2427,7.0410
23.1471,7.0600
21.6466,7.0600
21.5510,7.0410
21.4700,6.9868
21.4158,6.9058
21.3968,6.8102
21.3968,6.1997
21.4158,6.1042
21.4700,6.0231
21.5510,5.9690
21.6466,5.9500
Z" /> 
<path style="fill:#B4A09A; fill-opacity:0.9000; stroke:none;fill-rule:evenodd;"
d="M 23.1471,0.8700
23.2427,0.8890
23.3237,0.9431
23.3778,1.0242
23.3968,1.1198
23.3968,1.7302
23.3778,1.8258
23.3237,1.9068
23.2427,1.9610
23.1471,1.9800
21.6466,1.9800
21.5510,1.9610
21.4700,1.9068
21.4158,1.8258
21.3968,1.7302
21.3968,1.1198
21.4158,1.0242
21.4700,0.9431
21.5510,0.8890
21.6466,0.8700
Z" /> 
</g>
<g style="fill:none; 
stroke:#F2EDA1; stroke-width:0.1588; stroke-opacity:1; 
stroke-linecap:round; stroke-linejoin:round;">
<text x="19.2518" y="8.4100"
textLength="5.6651" font-size="1.6933" lengthAdjust="spacingAndGlyphs"
text-anchor="middle" opacity="0">REF**</text>
<g class="stroked-text"><desc>REF**</desc>
<path d="M17.5585 8.3543
L17.1352 7.7495
" />
<path d="M16.8328 8.3543
L16.8328 7.0843
" />
<path d="M16.8328 7.0843
L17.3166 7.0843
" />
<path d="M17.3166 7.0843
L17.4376 7.1447
" />
<path d="M17.4376 7.1447
L17.4980 7.2052
" />
<path d="M17.4980 7.2052
L17.5585 7.3262
" />
<path d="M17.5585 7.3262
L17.5585 7.5076
" />
<path d="M17.5585 7.5076
L17.4980 7.6286
" />
<path d="M17.4980 7.6286
L17.4376 7.6890
" />
<path d="M17.4376 7.6890
L17.3166 7.7495
" />
<path d="M17.3166 7.7495
L16.8328 7.7495
" />
<path d="M18.1028 7.6890
L18.5261 7.6890
" />
<path d="M18.7076 8.3543
L18.1028 8.3543
" />
<path d="M18.1028 8.3543
L18.1028 7.0843
" />
<path d="M18.1028 7.0843
L18.7076 7.0843
" />
<path d="M19.6752 7.6890
L19.2518 7.6890
" />
<path d="M19.2518 8.3543
L19.2518 7.0843
" />
<path d="M19.2518 7.0843
L19.8566 7.0843
" />
<path d="M20.5218 7.0843
L20.5218 7.3867
" />
<path d="M20.2195 7.2657
L20.5218 7.3867
" />
<path d="M20.5218 7.3867
L20.8242 7.2657
" />
<path d="M20.3404 7.6286
L20.5218 7.3867
" />
<path d="M20.5218 7.3867
L20.7033 7.6286
" />
<path d="M21.4895 7.0843
L21.4895 7.3867
" />
<path d="M21.1871 7.2657
L21.4895 7.3867
" />
<path d="M21.4895 7.3867
L21.7918 7.2657
" />
<path d="M21.3080 7.6286
L21.4895 7.3867
" />
<path d="M21.4895 7.3867
L21.6709 7.6286
" />
</g></g>
<g style="fill:none; 
stroke:#F2EDA1; stroke-width:0.1200; stroke-opacity:1; 
stroke-linecap:round; stroke-linejoin:round;">
<path d="M15.3618 0.1350
L15.3618 0.5950
" />
<path d="M15.3618 0.5950
L15.1718 0.5950
" />
<path d="M15.3618 2.2550
L15.1718 2.2550
" />
<path d="M15.3618 2.2550
L15.3618 5.6750
" />
<path d="M15.3618 14.9550
L15.3618 15.4150
" />
<path d="M18.8418 0.8250
L18.8418 2.0250
" />
<path d="M18.8418 1.6250
L19.5418 1.2250
" />
<path d="M18.8418 2.0250
L19.5418 2.0250
" />
<path d="M18.8418 13.5250
L18.8418 14.7250
" />
<path d="M18.8418 14.3250
L19.5418 13.9250
" />
<path d="M18.8418 14.7250
L19.5418 14.7250
" />
<path d="M19.5418 0.8250
L18.8418 0.8250
" />
<path d="M19.5418 2.0250
L19.5418 0.8250
" />
<path d="M19.5418 13.5250
L18.8418 13.5250
" />
<path d="M19.5418 14.7250
L19.5418 13.5250
" />
<path d="M23.1418 0.1350
L15.3618 0.1350
" />
<path d="M23.1418 0.1350
L23.1418 0.5950
" />
<path d="M23.1418 2.2550
L23.1418 5.6750
" />
<path d="M23.1418 14.9550
L23.1418 15.4150
" />
<path d="M23.1418 15.4150
L15.3618 15.4150
" />
</g>
<g style="fill:none; 
stroke:#FF26E2; stroke-width:0.0500; stroke-opacity:1; 
stroke-linecap:round; stroke-linejoin:round;">
<path d="M14.8518 0.0250
L14.8518 15.5250
" />
<path d="M14.8518 15.5250
L23.6518 15.5250
" />
<path d="M23.6518 0.0250
L14.8518 0.0250
" />
<path d="M23.6518 0.0250
L23.6518 15.5250
" />
</g>
<g style="fill:none; 
stroke:#AFAFAF; stroke-width:0.1588; stroke-opacity:1; 
stroke-linecap:round; stroke-linejoin:round;">
<text x="19.2518" y="8.4100"
textLength="38.5037" font-size="1.6933" lengthAdjust="spacingAndGlyphs"
text-anchor="middle" opacity="0">Relay_DPDT_Kemet_EE2_NUH_DoubleCoil</text>
<g class="stroked-text"><desc>Relay_DPDT_Kemet_EE2_NUH_DoubleCoil</desc>
<path d="M1.1392 8.3543
L0.7159 7.7495
" />
<path d="M0.4135 8.3543
L0.4135 7.0843
" />
<path d="M0.4135 7.0843
L0.8973 7.0843
" />
<path d="M0.8973 7.0843
L1.0183 7.1447
" />
<path d="M1.0183 7.1447
L1.0787 7.2052
" />
<path d="M1.0787 7.2052
L1.1392 7.3262
" />
<path d="M1.1392 7.3262
L1.1392 7.5076
" />
<path d="M1.1392 7.5076
L1.0787 7.6286
" />
<path d="M1.0787 7.6286
L1.0183 7.6890
" />
<path d="M1.0183 7.6890
L0.8973 7.7495
" />
<path d="M0.8973 7.7495
L0.4135 7.7495
" />
<path d="M2.1673 8.2938
L2.0464 8.3543
" />
<path d="M2.0464 8.3543
L1.8045 8.3543
" />
<path d="M1.8045 8.3543
L1.6835 8.2938
" />
<path d="M1.6835 8.2938
L1.6230 8.1728
" />
<path d="M1.6230 8.1728
L1.6230 7.6890
" />
<path d="M1.6230 7.6890
L1.6835 7.5681
" />
<path d="M1.6835 7.5681
L1.8045 7.5076
" />
<path d="M1.8045 7.5076
L2.0464 7.5076
" />
<path d="M2.0464 7.5076
L2.1673 7.5681
" />
<path d="M2.1673 7.5681
L2.2278 7.6890
" />
<path d="M2.2278 7.6890
L2.2278 7.8100
" />
<path d="M2.2278 7.8100
L1.6230 7.9309
" />
<path d="M2.9535 8.3543
L2.8326 8.2938
" />
<path d="M2.8326 8.2938
L2.7721 8.1728
" />
<path d="M2.7721 8.1728
L2.7721 7.0843
" />
<path d="M3.9816 8.3543
L3.9816 7.6890
" />
<path d="M3.9816 7.6890
L3.9211 7.5681
" />
<path d="M3.9211 7.5681
L3.8002 7.5076
" />
<path d="M3.8002 7.5076
L3.5583 7.5076
" />
<path d="M3.5583 7.5076
L3.4373 7.5681
" />
<path d="M3.9816 8.2938
L3.8606 8.3543
" />
<path d="M3.8606 8.3543
L3.5583 8.3543
" />
<path d="M3.5583 8.3543
L3.4373 8.2938
" />
<path d="M3.4373 8.2938
L3.3768 8.1728
" />
<path d="M3.3768 8.1728
L3.3768 8.0519
" />
<path d="M3.3768 8.0519
L3.4373 7.9309
" />
<path d="M3.4373 7.9309
L3.5583 7.8705
" />
<path d="M3.5583 7.8705
L3.8606 7.8705
" />
<path d="M3.8606 7.8705
L3.9816 7.8100
" />
<path d="M4.4654 7.5076
L4.7678 8.3543
" />
<path d="M5.0702 7.5076
L4.7678 8.3543
" />
<path d="M4.7678 8.3543
L4.6468 8.6567
" />
<path d="M4.6468 8.6567
L4.5864 8.7171
" />
<path d="M4.5864 8.7171
L4.4654 8.7776
" />
<path d="M5.2516 8.4752
L6.2192 8.4752
" />
<path d="M6.5216 8.3543
L6.5216 7.0843
" />
<path d="M6.5216 7.0843
L6.8240 7.0843
" />
<path d="M6.8240 7.0843
L7.0054 7.1447
" />
<path d="M7.0054 7.1447
L7.1264 7.2657
" />
<path d="M7.1264 7.2657
L7.1868 7.3867
" />
<path d="M7.1868 7.3867
L7.2473 7.6286
" />
<path d="M7.2473 7.6286
L7.2473 7.8100
" />
<path d="M7.2473 7.8100
L7.1868 8.0519
" />
<path d="M7.1868 8.0519
L7.1264 8.1728
" />
<path d="M7.1264 8.1728
L7.0054 8.2938
" />
<path d="M7.0054 8.2938
L6.8240 8.3543
" />
<path d="M6.8240 8.3543
L6.5216 8.3543
" />
<path d="M7.7916 8.3543
L7.7916 7.0843
" />
<path d="M7.7916 7.0843
L8.2754 7.0843
" />
<path d="M8.2754 7.0843
L8.3964 7.1447
" />
<path d="M8.3964 7.1447
L8.4568 7.2052
" />
<path d="M8.4568 7.2052
L8.5173 7.3262
" />
<path d="M8.5173 7.3262
L8.5173 7.5076
" />
<path d="M8.5173 7.5076
L8.4568 7.6286
" />
<path d="M8.4568 7.6286
L8.3964 7.6890
" />
<path d="M8.3964 7.6890
L8.2754 7.7495
" />
<path d="M8.2754 7.7495
L7.7916 7.7495
" />
<path d="M9.0616 8.3543
L9.0616 7.0843
" />
<path d="M9.0616 7.0843
L9.3640 7.0843
" />
<path d="M9.3640 7.0843
L9.5454 7.1447
" />
<path d="M9.5454 7.1447
L9.6664 7.2657
" />
<path d="M9.6664 7.2657
L9.7268 7.3867
" />
<path d="M9.7268 7.3867
L9.7873 7.6286
" />
<path d="M9.7873 7.6286
L9.7873 7.8100
" />
<path d="M9.7873 7.8100
L9.7268 8.0519
" />
<path d="M9.7268 8.0519
L9.6664 8.1728
" />
<path d="M9.6664 8.1728
L9.5454 8.2938
" />
<path d="M9.5454 8.2938
L9.3640 8.3543
" />
<path d="M9.3640 8.3543
L9.0616 8.3543
" />
<path d="M10.1502 7.0843
L10.8759 7.0843
" />
<path d="M10.5130 8.3543
L10.5130 7.0843
" />
<path d="M10.9968 8.4752
L11.9645 8.4752
" />
<path d="M12.2668 8.3543
L12.2668 7.0843
" />
<path d="M12.9926 8.3543
L12.4483 7.6286
" />
<path d="M12.9926 7.0843
L12.2668 7.8100
" />
<path d="M14.0206 8.2938
L13.8997 8.3543
" />
<path d="M13.8997 8.3543
L13.6578 8.3543
" />
<path d="M13.6578 8.3543
L13.5368 8.2938
" />
<path d="M13.5368 8.2938
L13.4764 8.1728
" />
<path d="M13.4764 8.1728
L13.4764 7.6890
" />
<path d="M13.4764 7.6890
L13.5368 7.5681
" />
<path d="M13.5368 7.5681
L13.6578 7.5076
" />
<path d="M13.6578 7.5076
L13.8997 7.5076
" />
<path d="M13.8997 7.5076
L14.0206 7.5681
" />
<path d="M14.0206 7.5681
L14.0811 7.6890
" />
<path d="M14.0811 7.6890
L14.0811 7.8100
" />
<path d="M14.0811 7.8100
L13.4764 7.9309
" />
<path d="M14.6254 8.3543
L14.6254 7.5076
" />
<path d="M14.6254 7.6286
L14.6859 7.5681
" />
<path d="M14.6859 7.5681
L14.8068 7.5076
" />
<path d="M14.8068 7.5076
L14.9883 7.5076
" />
<path d="M14.9883 7.5076
L15.1092 7.5681
" />
<path d="M15.1092 7.5681
L15.1697 7.6890
" />
<path d="M15.1697 7.6890
L15.1697 8.3543
" />
<path d="M15.1697 7.6890
L15.2302 7.5681
" />
<path d="M15.2302 7.5681
L15.3511 7.5076
" />
<path d="M15.3511 7.5076
L15.5326 7.5076
" />
<path d="M15.5326 7.5076
L15.6535 7.5681
" />
<path d="M15.6535 7.5681
L15.7140 7.6890
" />
<path d="M15.7140 7.6890
L15.7140 8.3543
" />
<path d="M16.8026 8.2938
L16.6816 8.3543
" />
<path d="M16.6816 8.3543
L16.4397 8.3543
" />
<path d="M16.4397 8.3543
L16.3187 8.2938
" />
<path d="M16.3187 8.2938
L16.2583 8.1728
" />
<path d="M16.2583 8.1728
L16.2583 7.6890
" />
<path d="M16.2583 7.6890
L16.3187 7.5681
" />
<path d="M16.3187 7.5681
L16.4397 7.5076
" />
<path d="M16.4397 7.5076
L16.6816 7.5076
" />
<path d="M16.6816 7.5076
L16.8026 7.5681
" />
<path d="M16.8026 7.5681
L16.8630 7.6890
" />
<path d="M16.8630 7.6890
L16.8630 7.8100
" />
<path d="M16.8630 7.8100
L16.2583 7.9309
" />
<path d="M17.2259 7.5076
L17.7097 7.5076
" />
<path d="M17.4073 7.0843
L17.4073 8.1728
" />
<path d="M17.4073 8.1728
L17.4678 8.2938
" />
<path d="M17.4678 8.2938
L17.5887 8.3543
" />
<path d="M17.5887 8.3543
L17.7097 8.3543
" />
<path d="M17.8306 8.4752
L18.7983 8.4752
" />
<path d="M19.1006 7.6890
L19.5240 7.6890
" />
<path d="M19.7054 8.3543
L19.1006 8.3543
" />
<path d="M19.1006 8.3543
L19.1006 7.0843
" />
<path d="M19.1006 7.0843
L19.7054 7.0843
" />
<path d="M20.2497 7.6890
L20.6730 7.6890
" />
<path d="M20.8545 8.3543
L20.2497 8.3543
" />
<path d="M20.2497 8.3543
L20.2497 7.0843
" />
<path d="M20.2497 7.0843
L20.8545 7.0843
" />
<path d="M21.3383 7.2052
L21.3987 7.1447
" />
<path d="M21.3987 7.1447
L21.5197 7.0843
" />
<path d="M21.5197 7.0843
L21.8221 7.0843
" />
<path d="M21.8221 7.0843
L21.9430 7.1447
" />
<path d="M21.9430 7.1447
L22.0035 7.2052
" />
<path d="M22.0035 7.2052
L22.0640 7.3262
" />
<path d="M22.0640 7.3262
L22.0640 7.4471
" />
<path d="M22.0640 7.4471
L22.0035 7.6286
" />
<path d="M22.0035 7.6286
L21.2778 8.3543
" />
<path d="M21.2778 8.3543
L22.0640 8.3543
" />
<path d="M22.3059 8.4752
L23.2735 8.4752
" />
<path d="M23.5759 8.3543
L23.5759 7.0843
" />
<path d="M23.5759 7.0843
L24.3016 8.3543
" />
<path d="M24.3016 8.3543
L24.3016 7.0843
" />
<path d="M24.9064 7.0843
L24.9064 8.1124
" />
<path d="M24.9064 8.1124
L24.9668 8.2333
" />
<path d="M24.9668 8.2333
L25.0273 8.2938
" />
<path d="M25.0273 8.2938
L25.1483 8.3543
" />
<path d="M25.1483 8.3543
L25.3902 8.3543
" />
<path d="M25.3902 8.3543
L25.5111 8.2938
" />
<path d="M25.5111 8.2938
L25.5716 8.2333
" />
<path d="M25.5716 8.2333
L25.6321 8.1124
" />
<path d="M25.6321 8.1124
L25.6321 7.0843
" />
<path d="M26.2368 8.3543
L26.2368 7.0843
" />
<path d="M26.2368 7.6890
L26.9626 7.6890
" />
<path d="M26.9626 8.3543
L26.9626 7.0843
" />
<path d="M27.2649 8.4752
L28.2326 8.4752
" />
<path d="M28.5349 8.3543
L28.5349 7.0843
" />
<path d="M28.5349 7.0843
L28.8373 7.0843
" />
<path d="M28.8373 7.0843
L29.0187 7.1447
" />
<path d="M29.0187 7.1447
L29.1397 7.2657
" />
<path d="M29.1397 7.2657
L29.2002 7.3867
" />
<path d="M29.2002 7.3867
L29.2606 7.6286
" />
<path d="M29.2606 7.6286
L29.2606 7.8100
" />
<path d="M29.2606 7.8100
L29.2002 8.0519
" />
<path d="M29.2002 8.0519
L29.1397 8.1728
" />
<path d="M29.1397 8.1728
L29.0187 8.2938
" />
<path d="M29.0187 8.2938
L28.8373 8.3543
" />
<path d="M28.8373 8.3543
L28.5349 8.3543
" />
<path d="M29.9864 8.3543
L29.8654 8.2938
" />
<path d="M29.8654 8.2938
L29.8049 8.2333
" />
<path d="M29.8049 8.2333
L29.7445 8.1124
" />
<path d="M29.7445 8.1124
L29.7445 7.7495
" />
<path d="M29.7445 7.7495
L29.8049 7.6286
" />
<path d="M29.8049 7.6286
L29.8654 7.5681
" />
<path d="M29.8654 7.5681
L29.9864 7.5076
" />
<path d="M29.9864 7.5076
L30.1678 7.5076
" />
<path d="M30.1678 7.5076
L30.2887 7.5681
" />
<path d="M30.2887 7.5681
L30.3492 7.6286
" />
<path d="M30.3492 7.6286
L30.4097 7.7495
" />
<path d="M30.4097 7.7495
L30.4097 8.1124
" />
<path d="M30.4097 8.1124
L30.3492 8.2333
" />
<path d="M30.3492 8.2333
L30.2887 8.2938
" />
<path d="M30.2887 8.2938
L30.1678 8.3543
" />
<path d="M30.1678 8.3543
L29.9864 8.3543
" />
<path d="M31.4983 7.5076
L31.4983 8.3543
" />
<path d="M30.9540 7.5076
L30.9540 8.1728
" />
<path d="M30.9540 8.1728
L31.0145 8.2938
" />
<path d="M31.0145 8.2938
L31.1354 8.3543
" />
<path d="M31.1354 8.3543
L31.3168 8.3543
" />
<path d="M31.3168 8.3543
L31.4378 8.2938
" />
<path d="M31.4378 8.2938
L31.4983 8.2333
" />
<path d="M32.1030 8.3543
L32.1030 7.0843
" />
<path d="M32.1030 7.5681
L32.2240 7.5076
" />
<path d="M32.2240 7.5076
L32.4659 7.5076
" />
<path d="M32.4659 7.5076
L32.5868 7.5681
" />
<path d="M32.5868 7.5681
L32.6473 7.6286
" />
<path d="M32.6473 7.6286
L32.7078 7.7495
" />
<path d="M32.7078 7.7495
L32.7078 8.1124
" />
<path d="M32.7078 8.1124
L32.6473 8.2333
" />
<path d="M32.6473 8.2333
L32.5868 8.2938
" />
<path d="M32.5868 8.2938
L32.4659 8.3543
" />
<path d="M32.4659 8.3543
L32.2240 8.3543
" />
<path d="M32.2240 8.3543
L32.1030 8.2938
" />
<path d="M33.4335 8.3543
L33.3126 8.2938
" />
<path d="M33.3126 8.2938
L33.2521 8.1728
" />
<path d="M33.2521 8.1728
L33.2521 7.0843
" />
<path d="M34.4011 8.2938
L34.2802 8.3543
" />
<path d="M34.2802 8.3543
L34.0383 8.3543
" />
<path d="M34.0383 8.3543
L33.9173 8.2938
" />
<path d="M33.9173 8.2938
L33.8568 8.1728
" />
<path d="M33.8568 8.1728
L33.8568 7.6890
" />
<path d="M33.8568 7.6890
L33.9173 7.5681
" />
<path d="M33.9173 7.5681
L34.0383 7.5076
" />
<path d="M34.0383 7.5076
L34.2802 7.5076
" />
<path d="M34.2802 7.5076
L34.4011 7.5681
" />
<path d="M34.4011 7.5681
L34.4616 7.6890
" />
<path d="M34.4616 7.6890
L34.4616 7.8100
" />
<path d="M34.4616 7.8100
L33.8568 7.9309
" />
<path d="M35.7316 8.2333
L35.6711 8.2938
" />
<path d="M35.6711 8.2938
L35.4897 8.3543
" />
<path d="M35.4897 8.3543
L35.3687 8.3543
" />
<path d="M35.3687 8.3543
L35.1873 8.2938
" />
<path d="M35.1873 8.2938
L35.0664 8.1728
" />
<path d="M35.0664 8.1728
L35.0059 8.0519
" />
<path d="M35.0059 8.0519
L34.9454 7.8100
" />
<path d="M34.9454 7.8100
L34.9454 7.6286
" />
<path d="M34.9454 7.6286
L35.0059 7.3867
" />
<path d="M35.0059 7.3867
L35.0664 7.2657
" />
<path d="M35.0664 7.2657
L35.1873 7.1447
" />
<path d="M35.1873 7.1447
L35.3687 7.0843
" />
<path d="M35.3687 7.0843
L35.4897 7.0843
" />
<path d="M35.4897 7.0843
L35.6711 7.1447
" />
<path d="M35.6711 7.1447
L35.7316 7.2052
" />
<path d="M36.4573 8.3543
L36.3364 8.2938
" />
<path d="M36.3364 8.2938
L36.2759 8.2333
" />
<path d="M36.2759 8.2333
L36.2154 8.1124
" />
<path d="M36.2154 8.1124
L36.2154 7.7495
" />
<path d="M36.2154 7.7495
L36.2759 7.6286
" />
<path d="M36.2759 7.6286
L36.3364 7.5681
" />
<path d="M36.3364 7.5681
L36.4573 7.5076
" />
<path d="M36.4573 7.5076
L36.6387 7.5076
" />
<path d="M36.6387 7.5076
L36.7597 7.5681
" />
<path d="M36.7597 7.5681
L36.8202 7.6286
" />
<path d="M36.8202 7.6286
L36.8806 7.7495
" />
<path d="M36.8806 7.7495
L36.8806 8.1124
" />
<path d="M36.8806 8.1124
L36.8202 8.2333
" />
<path d="M36.8202 8.2333
L36.7597 8.2938
" />
<path d="M36.7597 8.2938
L36.6387 8.3543
" />
<path d="M36.6387 8.3543
L36.4573 8.3543
" />
<path d="M37.4249 8.3543
L37.4249 7.5076
" />
<path d="M37.4249 7.0843
L37.3645 7.1447
" />
<path d="M37.3645 7.1447
L37.4249 7.2052
" />
<path d="M37.4249 7.2052
L37.4854 7.1447
" />
<path d="M37.4854 7.1447
L37.4249 7.0843
" />
<path d="M37.4249 7.0843
L37.4249 7.2052
" />
<path d="M38.2111 8.3543
L38.0902 8.2938
" />
<path d="M38.0902 8.2938
L38.0297 8.1728
" />
<path d="M38.0297 8.1728
L38.0297 7.0843
" />
</g></g>
<g style="fill:none; 
stroke:#AFAFAF; stroke-width:0.1500; stroke-opacity:1; 
stroke-linecap:round; stroke-linejoin:round;">
<g transform="rotate(-90.000000 19.1118 8.1650)">
<text x="19.1118" y="8.6650"
textLength="4.5357" font-size="1.3333" lengthAdjust="spacingAndGlyphs"
text-anchor="middle" opacity="0">REF**</text>
</g>
<g class="stroked-text"><desc>REF**</desc>
<path d="M19.5667 9.4983
L19.0905 9.8317
" />
<path d="M19.5667 10.0698
L18.5667 10.0698
" />
<path d="M18.5667 10.0698
L18.5667 9.6888
" />
<path d="M18.5667 9.6888
L18.6143 9.5936
" />
<path d="M18.6143 9.5936
L18.6619 9.5460
" />
<path d="M18.6619 9.5460
L18.7571 9.4983
" />
<path d="M18.7571 9.4983
L18.9000 9.4983
" />
<path d="M18.9000 9.4983
L18.9952 9.5460
" />
<path d="M18.9952 9.5460
L19.0428 9.5936
" />
<path d="M19.0428 9.5936
L19.0905 9.6888
" />
<path d="M19.0905 9.6888
L19.0905 10.0698
" />
<path d="M19.0428 9.0698
L19.0428 8.7364
" />
<path d="M19.5667 8.5936
L19.5667 9.0698
" />
<path d="M19.5667 9.0698
L18.5667 9.0698
" />
<path d="M18.5667 9.0698
L18.5667 8.5936
" />
<path d="M19.0428 7.8317
L19.0428 8.1650
" />
<path d="M19.5667 8.1650
L18.5667 8.1650
" />
<path d="M18.5667 8.1650
L18.5667 7.6888
" />
<path d="M18.5667 7.1650
L18.8048 7.1650
" />
<path d="M18.7095 7.4031
L18.8048 7.1650
" />
<path d="M18.8048 7.1650
L18.7095 6.9269
" />
<path d="M18.9952 7.3079
L18.8048 7.1650
" />
<path d="M18.8048 7.1650
L18.9952 7.0221
" />
<path d="M18.5667 6.4031
L18.8048 6.4031
" />
<path d="M18.7095 6.6412
L18.8048 6.4031
" />
<path d="M18.8048 6.4031
L18.7095 6.1650
" />
<path d="M18.9952 6.5460
L18.8048 6.4031
" />
<path d="M18.8048 6.4031
L18.9952 6.2602
" />
</g></g>
<g style="fill:none; 
stroke:#AFAFAF; stroke-width:0.1000; stroke-opacity:1; 
stroke-linecap:round; stroke-linejoin:round;">
<path d="M15.5018 1.2750
L15.5018 15.2750
" />
<path d="M15.5018 1.2750
L16.5018 0.2750
" />
<path d="M17.9818 1.4250
L20.5218 1.4250
" />
<path d="M23.0018 0.2750
L16.5018 0.2750
" />
<path d="M23.0018 0.2750
L23.0018 15.2750
" />
<path d="M23.0018 15.2750
L15.5018 15.2750
" />
</g> 
</svg>
