<?xml version="1.0" standalone="no"?>
 <!DOCTYPE svg PUBLIC "-//W3C//DTD SVG 1.1//EN" 
 "http://www.w3.org/Graphics/SVG/1.1/DTD/svg11.dtd"> 
<svg
  xmlns:svg="http://www.w3.org/2000/svg"
  xmlns="http://www.w3.org/2000/svg"
  xmlns:xlink="http://www.w3.org/1999/xlink"
  version="1.1"
  width="58.2168mm" height="5.2324mm" viewBox="0.0000 0.0000 58.2168 5.2324">
<title>SVG Image created as working-brd.svg date 2024/04/21 00:37:02 </title>
  <desc>Image generated by PCBNEW </desc>
<g style="fill:#000000; fill-opacity:1.0000;stroke:#000000; stroke-opacity:1.0000;
stroke-linecap:round; stroke-linejoin:round;"
 transform="translate(0 0) scale(1 1)">
</g>
<g style="fill:#4D7FC4; fill-opacity:1.0000; stroke:none;">
<circle cx="28.2595" cy="1.7750" r="0.2500" /> 
</g>
<g style="fill:#4D7FC4; fill-opacity:1.0000; stroke:none;">
<circle cx="28.2595" cy="2.6250" r="0.2500" /> 
</g>
<g style="fill:#4D7FC4; fill-opacity:1.0000; stroke:none;">
<circle cx="28.2595" cy="3.4750" r="0.2500" /> 
</g>
<g style="fill:#4D7FC4; fill-opacity:1.0000; stroke:none;">
<circle cx="29.1095" cy="1.7750" r="0.2500" /> 
</g>
<g style="fill:#4D7FC4; fill-opacity:1.0000; stroke:none;">
<circle cx="29.1095" cy="2.6250" r="0.2500" /> 
<path style="fill:#4D7FC4; fill-opacity:1.0000; stroke:none;fill-rule:evenodd;"
d="M 28.0095,3.7250
28.0095,1.5250
30.2095,1.5250
30.2095,3.7250
Z" /> 
</g>
<g style="fill:#4D7FC4; fill-opacity:1.0000; stroke:none;">
<circle cx="29.1095" cy="3.4750" r="0.2500" /> 
</g>
<g style="fill:#4D7FC4; fill-opacity:1.0000; stroke:none;">
<circle cx="29.9595" cy="1.7750" r="0.2500" /> 
</g>
<g style="fill:#4D7FC4; fill-opacity:1.0000; stroke:none;">
<circle cx="29.9595" cy="2.6250" r="0.2500" /> 
</g>
<g style="fill:#4D7FC4; fill-opacity:1.0000; stroke:none;">
<circle cx="29.9595" cy="3.4750" r="0.2500" /> 
</g>
<g style="fill:#FFFFFF; fill-opacity:1.0000; stroke:none;">
<circle cx="28.2595" cy="1.7750" r="0.1000" /> 
</g>
<g style="fill:#FFFFFF; fill-opacity:1.0000; stroke:none;">
<circle cx="28.2595" cy="2.6250" r="0.1000" /> 
</g>
<g style="fill:#FFFFFF; fill-opacity:1.0000; stroke:none;">
<circle cx="28.2595" cy="3.4750" r="0.1000" /> 
</g>
<g style="fill:#FFFFFF; fill-opacity:1.0000; stroke:none;">
<circle cx="29.1095" cy="1.7750" r="0.1000" /> 
</g>
<g style="fill:#FFFFFF; fill-opacity:1.0000; stroke:none;">
<circle cx="29.1095" cy="2.6250" r="0.1000" /> 
</g>
<g style="fill:#FFFFFF; fill-opacity:1.0000; stroke:none;">
<circle cx="29.1095" cy="3.4750" r="0.1000" /> 
</g>
<g style="fill:#FFFFFF; fill-opacity:1.0000; stroke:none;">
<circle cx="29.9595" cy="1.7750" r="0.1000" /> 
</g>
<g style="fill:#FFFFFF; fill-opacity:1.0000; stroke:none;">
<circle cx="29.9595" cy="2.6250" r="0.1000" /> 
</g>
<g style="fill:#FFFFFF; fill-opacity:1.0000; stroke:none;">
<circle cx="29.9595" cy="3.4750" r="0.1000" /> 
</g>
<g style="fill:#FFFFFF; fill-opacity:1.0000; stroke:none;">
<circle cx="28.2595" cy="1.7750" r="0.1000" /> 
</g>
<g style="fill:#FFFFFF; fill-opacity:1.0000; stroke:none;">
<circle cx="28.2595" cy="2.6250" r="0.1000" /> 
</g>
<g style="fill:#FFFFFF; fill-opacity:1.0000; stroke:none;">
<circle cx="28.2595" cy="3.4750" r="0.1000" /> 
</g>
<g style="fill:#FFFFFF; fill-opacity:1.0000; stroke:none;">
<circle cx="29.1095" cy="1.7750" r="0.1000" /> 
</g>
<g style="fill:#FFFFFF; fill-opacity:1.0000; stroke:none;">
<circle cx="29.1095" cy="2.6250" r="0.1000" /> 
</g>
<g style="fill:#FFFFFF; fill-opacity:1.0000; stroke:none;">
<circle cx="29.1095" cy="3.4750" r="0.1000" /> 
</g>
<g style="fill:#FFFFFF; fill-opacity:1.0000; stroke:none;">
<circle cx="29.9595" cy="1.7750" r="0.1000" /> 
</g>
<g style="fill:#FFFFFF; fill-opacity:1.0000; stroke:none;">
<circle cx="29.9595" cy="2.6250" r="0.1000" /> 
</g>
<g style="fill:#FFFFFF; fill-opacity:1.0000; stroke:none;">
<circle cx="29.9595" cy="3.4750" r="0.1000" /> 
<path style="fill:#C83434; fill-opacity:1.0000; stroke:none;fill-rule:evenodd;"
d="M 27.4741,1.1396
27.5448,1.2104
27.5595,1.2457
27.5595,1.2750
27.5448,1.3104
27.5095,1.3250
26.8095,1.3250
26.7741,1.3104
26.7595,1.2750
26.7595,1.1750
26.7741,1.1396
26.8095,1.1250
27.4387,1.1250
Z" /> 
<path style="fill:#C83434; fill-opacity:1.0000; stroke:none;fill-rule:evenodd;"
d="M 26.7595,1.5750
26.7633,1.5559
26.7741,1.5396
26.7903,1.5288
26.8095,1.5250
27.5095,1.5250
27.5286,1.5288
27.5448,1.5396
27.5557,1.5559
27.5595,1.5750
27.5595,1.6750
27.5557,1.6941
27.5448,1.7104
27.5286,1.7212
27.5095,1.7250
26.8095,1.7250
26.7903,1.7212
26.7741,1.7104
26.7633,1.6941
26.7595,1.6750
Z" /> 
<path style="fill:#C83434; fill-opacity:1.0000; stroke:none;fill-rule:evenodd;"
d="M 26.7595,1.9750
26.7633,1.9559
26.7741,1.9396
26.7903,1.9288
26.8095,1.9250
27.5095,1.9250
27.5286,1.9288
27.5448,1.9396
27.5557,1.9559
27.5595,1.9750
27.5595,2.0750
27.5557,2.0941
27.5448,2.1104
27.5286,2.1212
27.5095,2.1250
26.8095,2.1250
26.7903,2.1212
26.7741,2.1104
26.7633,2.0941
26.7595,2.0750
Z" /> 
<path style="fill:#C83434; fill-opacity:1.0000; stroke:none;fill-rule:evenodd;"
d="M 26.7595,2.3750
26.7633,2.3559
26.7741,2.3396
26.7903,2.3288
26.8095,2.3250
27.5095,2.3250
27.5286,2.3288
27.5448,2.3396
27.5557,2.3559
27.5595,2.3750
27.5595,2.4750
27.5557,2.4941
27.5448,2.5104
27.5286,2.5212
27.5095,2.5250
26.8095,2.5250
26.7903,2.5212
26.7741,2.5104
26.7633,2.4941
26.7595,2.4750
Z" /> 
<path style="fill:#C83434; fill-opacity:1.0000; stroke:none;fill-rule:evenodd;"
d="M 26.7595,2.7750
26.7633,2.7559
26.7741,2.7396
26.7903,2.7288
26.8095,2.7250
27.5095,2.7250
27.5286,2.7288
27.5448,2.7396
27.5557,2.7559
27.5595,2.7750
27.5595,2.8750
27.5557,2.8941
27.5448,2.9104
27.5286,2.9212
27.5095,2.9250
26.8095,2.9250
26.7903,2.9212
26.7741,2.9104
26.7633,2.8941
26.7595,2.8750
Z" /> 
<path style="fill:#C83434; fill-opacity:1.0000; stroke:none;fill-rule:evenodd;"
d="M 26.7595,3.1750
26.7633,3.1559
26.7741,3.1396
26.7903,3.1288
26.8095,3.1250
27.5095,3.1250
27.5286,3.1288
27.5448,3.1396
27.5557,3.1559
27.5595,3.1750
27.5595,3.2750
27.5557,3.2941
27.5448,3.3104
27.5286,3.3212
27.5095,3.3250
26.8095,3.3250
26.7903,3.3212
26.7741,3.3104
26.7633,3.2941
26.7595,3.2750
Z" /> 
<path style="fill:#C83434; fill-opacity:1.0000; stroke:none;fill-rule:evenodd;"
d="M 26.7595,3.5750
26.7633,3.5559
26.7741,3.5396
26.7903,3.5288
26.8095,3.5250
27.5095,3.5250
27.5286,3.5288
27.5448,3.5396
27.5557,3.5559
27.5595,3.5750
27.5595,3.6750
27.5557,3.6941
27.5448,3.7104
27.5286,3.7212
27.5095,3.7250
26.8095,3.7250
26.7903,3.7212
26.7741,3.7104
26.7633,3.6941
26.7595,3.6750
Z" /> 
<path style="fill:#C83434; fill-opacity:1.0000; stroke:none;fill-rule:evenodd;"
d="M 27.5448,3.9396
27.5595,3.9750
27.5595,4.0043
27.5448,4.0396
27.4741,4.1104
27.4387,4.1250
26.8095,4.1250
26.7741,4.1104
26.7595,4.0750
26.7595,3.9750
26.7741,3.9396
26.8095,3.9250
27.5095,3.9250
Z" /> 
<path style="fill:#C83434; fill-opacity:1.0000; stroke:none;fill-rule:evenodd;"
d="M 27.7948,4.1896
27.8095,4.2250
27.8095,4.9250
27.7948,4.9604
27.7595,4.9750
27.6595,4.9750
27.6241,4.9604
27.6095,4.9250
27.6095,4.2957
27.6241,4.2604
27.6948,4.1896
27.7302,4.1750
27.7595,4.1750
Z" /> 
<path style="fill:#C83434; fill-opacity:1.0000; stroke:none;fill-rule:evenodd;"
d="M 28.0095,4.2250
28.0133,4.2059
28.0241,4.1896
28.0403,4.1788
28.0595,4.1750
28.1595,4.1750
28.1786,4.1788
28.1948,4.1896
28.2057,4.2059
28.2095,4.2250
28.2095,4.9250
28.2057,4.9441
28.1948,4.9604
28.1786,4.9712
28.1595,4.9750
28.0595,4.9750
28.0403,4.9712
28.0241,4.9604
28.0133,4.9441
28.0095,4.9250
Z" /> 
<path style="fill:#C83434; fill-opacity:1.0000; stroke:none;fill-rule:evenodd;"
d="M 28.4095,4.2250
28.4133,4.2059
28.4241,4.1896
28.4403,4.1788
28.4595,4.1750
28.5595,4.1750
28.5786,4.1788
28.5948,4.1896
28.6057,4.2059
28.6095,4.2250
28.6095,4.9250
28.6057,4.9441
28.5948,4.9604
28.5786,4.9712
28.5595,4.9750
28.4595,4.9750
28.4403,4.9712
28.4241,4.9604
28.4133,4.9441
28.4095,4.9250
Z" /> 
<path style="fill:#C83434; fill-opacity:1.0000; stroke:none;fill-rule:evenodd;"
d="M 28.8095,4.2250
28.8133,4.2059
28.8241,4.1896
28.8403,4.1788
28.8595,4.1750
28.9595,4.1750
28.9786,4.1788
28.9948,4.1896
29.0057,4.2059
29.0095,4.2250
29.0095,4.9250
29.0057,4.9441
28.9948,4.9604
28.9786,4.9712
28.9595,4.9750
28.8595,4.9750
28.8403,4.9712
28.8241,4.9604
28.8133,4.9441
28.8095,4.9250
Z" /> 
<path style="fill:#C83434; fill-opacity:1.0000; stroke:none;fill-rule:evenodd;"
d="M 29.2095,4.2250
29.2133,4.2059
29.2241,4.1896
29.2403,4.1788
29.2595,4.1750
29.3595,4.1750
29.3786,4.1788
29.3948,4.1896
29.4057,4.2059
29.4095,4.2250
29.4095,4.9250
29.4057,4.9441
29.3948,4.9604
29.3786,4.9712
29.3595,4.9750
29.2595,4.9750
29.2403,4.9712
29.2241,4.9604
29.2133,4.9441
29.2095,4.9250
Z" /> 
<path style="fill:#C83434; fill-opacity:1.0000; stroke:none;fill-rule:evenodd;"
d="M 29.6095,4.2250
29.6133,4.2059
29.6241,4.1896
29.6403,4.1788
29.6595,4.1750
29.7595,4.1750
29.7786,4.1788
29.7948,4.1896
29.8057,4.2059
29.8095,4.2250
29.8095,4.9250
29.8057,4.9441
29.7948,4.9604
29.7786,4.9712
29.7595,4.9750
29.6595,4.9750
29.6403,4.9712
29.6241,4.9604
29.6133,4.9441
29.6095,4.9250
Z" /> 
<path style="fill:#C83434; fill-opacity:1.0000; stroke:none;fill-rule:evenodd;"
d="M 30.0095,4.2250
30.0133,4.2059
30.0241,4.1896
30.0403,4.1788
30.0595,4.1750
30.1595,4.1750
30.1786,4.1788
30.1948,4.1896
30.2057,4.2059
30.2095,4.2250
30.2095,4.9250
30.2057,4.9441
30.1948,4.9604
30.1786,4.9712
30.1595,4.9750
30.0595,4.9750
30.0403,4.9712
30.0241,4.9604
30.0133,4.9441
30.0095,4.9250
Z" /> 
<path style="fill:#C83434; fill-opacity:1.0000; stroke:none;fill-rule:evenodd;"
d="M 30.5241,4.1896
30.5948,4.2604
30.6095,4.2957
30.6095,4.9250
30.5948,4.9604
30.5595,4.9750
30.4595,4.9750
30.4241,4.9604
30.4095,4.9250
30.4095,4.2250
30.4241,4.1896
30.4595,4.1750
30.4887,4.1750
Z" /> 
<path style="fill:#C83434; fill-opacity:1.0000; stroke:none;fill-rule:evenodd;"
d="M 31.4448,3.9396
31.4595,3.9750
31.4595,4.0750
31.4448,4.1104
31.4095,4.1250
30.7802,4.1250
30.7448,4.1104
30.6741,4.0396
30.6595,4.0043
30.6595,3.9750
30.6741,3.9396
30.7095,3.9250
31.4095,3.9250
Z" /> 
<path style="fill:#C83434; fill-opacity:1.0000; stroke:none;fill-rule:evenodd;"
d="M 30.6595,3.5750
30.6633,3.5559
30.6741,3.5396
30.6903,3.5288
30.7095,3.5250
31.4095,3.5250
31.4286,3.5288
31.4448,3.5396
31.4557,3.5559
31.4595,3.5750
31.4595,3.6750
31.4557,3.6941
31.4448,3.7104
31.4286,3.7212
31.4095,3.7250
30.7095,3.7250
30.6903,3.7212
30.6741,3.7104
30.6633,3.6941
30.6595,3.6750
Z" /> 
<path style="fill:#C83434; fill-opacity:1.0000; stroke:none;fill-rule:evenodd;"
d="M 30.6595,3.1750
30.6633,3.1559
30.6741,3.1396
30.6903,3.1288
30.7095,3.1250
31.4095,3.1250
31.4286,3.1288
31.4448,3.1396
31.4557,3.1559
31.4595,3.1750
31.4595,3.2750
31.4557,3.2941
31.4448,3.3104
31.4286,3.3212
31.4095,3.3250
30.7095,3.3250
30.6903,3.3212
30.6741,3.3104
30.6633,3.2941
30.6595,3.2750
Z" /> 
<path style="fill:#C83434; fill-opacity:1.0000; stroke:none;fill-rule:evenodd;"
d="M 30.6595,2.7750
30.6633,2.7559
30.6741,2.7396
30.6903,2.7288
30.7095,2.7250
31.4095,2.7250
31.4286,2.7288
31.4448,2.7396
31.4557,2.7559
31.4595,2.7750
31.4595,2.8750
31.4557,2.8941
31.4448,2.9104
31.4286,2.9212
31.4095,2.9250
30.7095,2.9250
30.6903,2.9212
30.6741,2.9104
30.6633,2.8941
30.6595,2.8750
Z" /> 
<path style="fill:#C83434; fill-opacity:1.0000; stroke:none;fill-rule:evenodd;"
d="M 30.6595,2.3750
30.6633,2.3559
30.6741,2.3396
30.6903,2.3288
30.7095,2.3250
31.4095,2.3250
31.4286,2.3288
31.4448,2.3396
31.4557,2.3559
31.4595,2.3750
31.4595,2.4750
31.4557,2.4941
31.4448,2.5104
31.4286,2.5212
31.4095,2.5250
30.7095,2.5250
30.6903,2.5212
30.6741,2.5104
30.6633,2.4941
30.6595,2.4750
Z" /> 
<path style="fill:#C83434; fill-opacity:1.0000; stroke:none;fill-rule:evenodd;"
d="M 30.6595,1.9750
30.6633,1.9559
30.6741,1.9396
30.6903,1.9288
30.7095,1.9250
31.4095,1.9250
31.4286,1.9288
31.4448,1.9396
31.4557,1.9559
31.4595,1.9750
31.4595,2.0750
31.4557,2.0941
31.4448,2.1104
31.4286,2.1212
31.4095,2.1250
30.7095,2.1250
30.6903,2.1212
30.6741,2.1104
30.6633,2.0941
30.6595,2.0750
Z" /> 
<path style="fill:#C83434; fill-opacity:1.0000; stroke:none;fill-rule:evenodd;"
d="M 30.6595,1.5750
30.6633,1.5559
30.6741,1.5396
30.6903,1.5288
30.7095,1.5250
31.4095,1.5250
31.4286,1.5288
31.4448,1.5396
31.4557,1.5559
31.4595,1.5750
31.4595,1.6750
31.4557,1.6941
31.4448,1.7104
31.4286,1.7212
31.4095,1.7250
30.7095,1.7250
30.6903,1.7212
30.6741,1.7104
30.6633,1.6941
30.6595,1.6750
Z" /> 
<path style="fill:#C83434; fill-opacity:1.0000; stroke:none;fill-rule:evenodd;"
d="M 31.4448,1.1396
31.4595,1.1750
31.4595,1.2750
31.4448,1.3104
31.4095,1.3250
30.7095,1.3250
30.6741,1.3104
30.6595,1.2750
30.6595,1.2457
30.6741,1.2104
30.7448,1.1396
30.7802,1.1250
31.4095,1.1250
Z" /> 
<path style="fill:#C83434; fill-opacity:1.0000; stroke:none;fill-rule:evenodd;"
d="M 30.5948,0.2896
30.6095,0.3250
30.6095,0.9543
30.5948,0.9896
30.5241,1.0604
30.4887,1.0750
30.4595,1.0750
30.4241,1.0604
30.4095,1.0250
30.4095,0.3250
30.4241,0.2896
30.4595,0.2750
30.5595,0.2750
Z" /> 
<path style="fill:#C83434; fill-opacity:1.0000; stroke:none;fill-rule:evenodd;"
d="M 30.0095,0.3250
30.0133,0.3059
30.0241,0.2896
30.0403,0.2788
30.0595,0.2750
30.1595,0.2750
30.1786,0.2788
30.1948,0.2896
30.2057,0.3059
30.2095,0.3250
30.2095,1.0250
30.2057,1.0441
30.1948,1.0604
30.1786,1.0712
30.1595,1.0750
30.0595,1.0750
30.0403,1.0712
30.0241,1.0604
30.0133,1.0441
30.0095,1.0250
Z" /> 
<path style="fill:#C83434; fill-opacity:1.0000; stroke:none;fill-rule:evenodd;"
d="M 29.6095,0.3250
29.6133,0.3059
29.6241,0.2896
29.6403,0.2788
29.6595,0.2750
29.7595,0.2750
29.7786,0.2788
29.7948,0.2896
29.8057,0.3059
29.8095,0.3250
29.8095,1.0250
29.8057,1.0441
29.7948,1.0604
29.7786,1.0712
29.7595,1.0750
29.6595,1.0750
29.6403,1.0712
29.6241,1.0604
29.6133,1.0441
29.6095,1.0250
Z" /> 
<path style="fill:#C83434; fill-opacity:1.0000; stroke:none;fill-rule:evenodd;"
d="M 29.2095,0.3250
29.2133,0.3059
29.2241,0.2896
29.2403,0.2788
29.2595,0.2750
29.3595,0.2750
29.3786,0.2788
29.3948,0.2896
29.4057,0.3059
29.4095,0.3250
29.4095,1.0250
29.4057,1.0441
29.3948,1.0604
29.3786,1.0712
29.3595,1.0750
29.2595,1.0750
29.2403,1.0712
29.2241,1.0604
29.2133,1.0441
29.2095,1.0250
Z" /> 
<path style="fill:#C83434; fill-opacity:1.0000; stroke:none;fill-rule:evenodd;"
d="M 28.8095,0.3250
28.8133,0.3059
28.8241,0.2896
28.8403,0.2788
28.8595,0.2750
28.9595,0.2750
28.9786,0.2788
28.9948,0.2896
29.0057,0.3059
29.0095,0.3250
29.0095,1.0250
29.0057,1.0441
28.9948,1.0604
28.9786,1.0712
28.9595,1.0750
28.8595,1.0750
28.8403,1.0712
28.8241,1.0604
28.8133,1.0441
28.8095,1.0250
Z" /> 
<path style="fill:#C83434; fill-opacity:1.0000; stroke:none;fill-rule:evenodd;"
d="M 28.4095,0.3250
28.4133,0.3059
28.4241,0.2896
28.4403,0.2788
28.4595,0.2750
28.5595,0.2750
28.5786,0.2788
28.5948,0.2896
28.6057,0.3059
28.6095,0.3250
28.6095,1.0250
28.6057,1.0441
28.5948,1.0604
28.5786,1.0712
28.5595,1.0750
28.4595,1.0750
28.4403,1.0712
28.4241,1.0604
28.4133,1.0441
28.4095,1.0250
Z" /> 
<path style="fill:#C83434; fill-opacity:1.0000; stroke:none;fill-rule:evenodd;"
d="M 28.0095,0.3250
28.0133,0.3059
28.0241,0.2896
28.0403,0.2788
28.0595,0.2750
28.1595,0.2750
28.1786,0.2788
28.1948,0.2896
28.2057,0.3059
28.2095,0.3250
28.2095,1.0250
28.2057,1.0441
28.1948,1.0604
28.1786,1.0712
28.1595,1.0750
28.0595,1.0750
28.0403,1.0712
28.0241,1.0604
28.0133,1.0441
28.0095,1.0250
Z" /> 
<path style="fill:#C83434; fill-opacity:1.0000; stroke:none;fill-rule:evenodd;"
d="M 27.7948,0.2896
27.8095,0.3250
27.8095,1.0250
27.7948,1.0604
27.7595,1.0750
27.7302,1.0750
27.6948,1.0604
27.6241,0.9896
27.6095,0.9543
27.6095,0.3250
27.6241,0.2896
27.6595,0.2750
27.7595,0.2750
Z" /> 
</g>
<g style="fill:#C83434; fill-opacity:1.0000; stroke:none;">
<circle cx="28.2595" cy="1.7750" r="0.2500" /> 
</g>
<g style="fill:#C83434; fill-opacity:1.0000; stroke:none;">
<circle cx="28.2595" cy="2.6250" r="0.2500" /> 
</g>
<g style="fill:#C83434; fill-opacity:1.0000; stroke:none;">
<circle cx="28.2595" cy="3.4750" r="0.2500" /> 
</g>
<g style="fill:#C83434; fill-opacity:1.0000; stroke:none;">
<circle cx="29.1095" cy="1.7750" r="0.2500" /> 
</g>
<g style="fill:#C83434; fill-opacity:1.0000; stroke:none;">
<circle cx="29.1095" cy="2.6250" r="0.2500" /> 
<path style="fill:#C83434; fill-opacity:1.0000; stroke:none;fill-rule:evenodd;"
d="M 27.7845,3.9500
27.7845,1.3000
30.4345,1.3000
30.4345,3.9500
Z" /> 
</g>
<g style="fill:#C83434; fill-opacity:1.0000; stroke:none;">
<circle cx="29.1095" cy="3.4750" r="0.2500" /> 
</g>
<g style="fill:#C83434; fill-opacity:1.0000; stroke:none;">
<circle cx="29.9595" cy="1.7750" r="0.2500" /> 
</g>
<g style="fill:#C83434; fill-opacity:1.0000; stroke:none;">
<circle cx="29.9595" cy="2.6250" r="0.2500" /> 
</g>
<g style="fill:#C83434; fill-opacity:1.0000; stroke:none;">
<circle cx="29.9595" cy="3.4750" r="0.2500" /> 
</g>
<g style="fill:#FFFFFF; fill-opacity:1.0000; stroke:none;">
<circle cx="28.2595" cy="1.7750" r="0.1000" /> 
</g>
<g style="fill:#FFFFFF; fill-opacity:1.0000; stroke:none;">
<circle cx="28.2595" cy="2.6250" r="0.1000" /> 
</g>
<g style="fill:#FFFFFF; fill-opacity:1.0000; stroke:none;">
<circle cx="28.2595" cy="3.4750" r="0.1000" /> 
</g>
<g style="fill:#FFFFFF; fill-opacity:1.0000; stroke:none;">
<circle cx="29.1095" cy="1.7750" r="0.1000" /> 
</g>
<g style="fill:#FFFFFF; fill-opacity:1.0000; stroke:none;">
<circle cx="29.1095" cy="2.6250" r="0.1000" /> 
</g>
<g style="fill:#FFFFFF; fill-opacity:1.0000; stroke:none;">
<circle cx="29.1095" cy="3.4750" r="0.1000" /> 
</g>
<g style="fill:#FFFFFF; fill-opacity:1.0000; stroke:none;">
<circle cx="29.9595" cy="1.7750" r="0.1000" /> 
</g>
<g style="fill:#FFFFFF; fill-opacity:1.0000; stroke:none;">
<circle cx="29.9595" cy="2.6250" r="0.1000" /> 
</g>
<g style="fill:#FFFFFF; fill-opacity:1.0000; stroke:none;">
<circle cx="29.9595" cy="3.4750" r="0.1000" /> 
<path style="fill:#D864FF; fill-opacity:0.4000; stroke:none;fill-rule:evenodd;"
d="M 27.4741,1.1396
27.5448,1.2104
27.5595,1.2457
27.5595,1.2750
27.5448,1.3104
27.5095,1.3250
26.8095,1.3250
26.7741,1.3104
26.7595,1.2750
26.7595,1.1750
26.7741,1.1396
26.8095,1.1250
27.4387,1.1250
Z" /> 
<path style="fill:#D864FF; fill-opacity:0.4000; stroke:none;fill-rule:evenodd;"
d="M 26.7595,1.5750
26.7633,1.5559
26.7741,1.5396
26.7903,1.5288
26.8095,1.5250
27.5095,1.5250
27.5286,1.5288
27.5448,1.5396
27.5557,1.5559
27.5595,1.5750
27.5595,1.6750
27.5557,1.6941
27.5448,1.7104
27.5286,1.7212
27.5095,1.7250
26.8095,1.7250
26.7903,1.7212
26.7741,1.7104
26.7633,1.6941
26.7595,1.6750
Z" /> 
<path style="fill:#D864FF; fill-opacity:0.4000; stroke:none;fill-rule:evenodd;"
d="M 26.7595,1.9750
26.7633,1.9559
26.7741,1.9396
26.7903,1.9288
26.8095,1.9250
27.5095,1.9250
27.5286,1.9288
27.5448,1.9396
27.5557,1.9559
27.5595,1.9750
27.5595,2.0750
27.5557,2.0941
27.5448,2.1104
27.5286,2.1212
27.5095,2.1250
26.8095,2.1250
26.7903,2.1212
26.7741,2.1104
26.7633,2.0941
26.7595,2.0750
Z" /> 
<path style="fill:#D864FF; fill-opacity:0.4000; stroke:none;fill-rule:evenodd;"
d="M 26.7595,2.3750
26.7633,2.3559
26.7741,2.3396
26.7903,2.3288
26.8095,2.3250
27.5095,2.3250
27.5286,2.3288
27.5448,2.3396
27.5557,2.3559
27.5595,2.3750
27.5595,2.4750
27.5557,2.4941
27.5448,2.5104
27.5286,2.5212
27.5095,2.5250
26.8095,2.5250
26.7903,2.5212
26.7741,2.5104
26.7633,2.4941
26.7595,2.4750
Z" /> 
<path style="fill:#D864FF; fill-opacity:0.4000; stroke:none;fill-rule:evenodd;"
d="M 26.7595,2.7750
26.7633,2.7559
26.7741,2.7396
26.7903,2.7288
26.8095,2.7250
27.5095,2.7250
27.5286,2.7288
27.5448,2.7396
27.5557,2.7559
27.5595,2.7750
27.5595,2.8750
27.5557,2.8941
27.5448,2.9104
27.5286,2.9212
27.5095,2.9250
26.8095,2.9250
26.7903,2.9212
26.7741,2.9104
26.7633,2.8941
26.7595,2.8750
Z" /> 
<path style="fill:#D864FF; fill-opacity:0.4000; stroke:none;fill-rule:evenodd;"
d="M 26.7595,3.1750
26.7633,3.1559
26.7741,3.1396
26.7903,3.1288
26.8095,3.1250
27.5095,3.1250
27.5286,3.1288
27.5448,3.1396
27.5557,3.1559
27.5595,3.1750
27.5595,3.2750
27.5557,3.2941
27.5448,3.3104
27.5286,3.3212
27.5095,3.3250
26.8095,3.3250
26.7903,3.3212
26.7741,3.3104
26.7633,3.2941
26.7595,3.2750
Z" /> 
<path style="fill:#D864FF; fill-opacity:0.4000; stroke:none;fill-rule:evenodd;"
d="M 26.7595,3.5750
26.7633,3.5559
26.7741,3.5396
26.7903,3.5288
26.8095,3.5250
27.5095,3.5250
27.5286,3.5288
27.5448,3.5396
27.5557,3.5559
27.5595,3.5750
27.5595,3.6750
27.5557,3.6941
27.5448,3.7104
27.5286,3.7212
27.5095,3.7250
26.8095,3.7250
26.7903,3.7212
26.7741,3.7104
26.7633,3.6941
26.7595,3.6750
Z" /> 
<path style="fill:#D864FF; fill-opacity:0.4000; stroke:none;fill-rule:evenodd;"
d="M 27.5448,3.9396
27.5595,3.9750
27.5595,4.0043
27.5448,4.0396
27.4741,4.1104
27.4387,4.1250
26.8095,4.1250
26.7741,4.1104
26.7595,4.0750
26.7595,3.9750
26.7741,3.9396
26.8095,3.9250
27.5095,3.9250
Z" /> 
<path style="fill:#D864FF; fill-opacity:0.4000; stroke:none;fill-rule:evenodd;"
d="M 27.7948,4.1896
27.8095,4.2250
27.8095,4.9250
27.7948,4.9604
27.7595,4.9750
27.6595,4.9750
27.6241,4.9604
27.6095,4.9250
27.6095,4.2957
27.6241,4.2604
27.6948,4.1896
27.7302,4.1750
27.7595,4.1750
Z" /> 
<path style="fill:#D864FF; fill-opacity:0.4000; stroke:none;fill-rule:evenodd;"
d="M 28.0095,4.2250
28.0133,4.2059
28.0241,4.1896
28.0403,4.1788
28.0595,4.1750
28.1595,4.1750
28.1786,4.1788
28.1948,4.1896
28.2057,4.2059
28.2095,4.2250
28.2095,4.9250
28.2057,4.9441
28.1948,4.9604
28.1786,4.9712
28.1595,4.9750
28.0595,4.9750
28.0403,4.9712
28.0241,4.9604
28.0133,4.9441
28.0095,4.9250
Z" /> 
<path style="fill:#D864FF; fill-opacity:0.4000; stroke:none;fill-rule:evenodd;"
d="M 28.4095,4.2250
28.4133,4.2059
28.4241,4.1896
28.4403,4.1788
28.4595,4.1750
28.5595,4.1750
28.5786,4.1788
28.5948,4.1896
28.6057,4.2059
28.6095,4.2250
28.6095,4.9250
28.6057,4.9441
28.5948,4.9604
28.5786,4.9712
28.5595,4.9750
28.4595,4.9750
28.4403,4.9712
28.4241,4.9604
28.4133,4.9441
28.4095,4.9250
Z" /> 
<path style="fill:#D864FF; fill-opacity:0.4000; stroke:none;fill-rule:evenodd;"
d="M 28.8095,4.2250
28.8133,4.2059
28.8241,4.1896
28.8403,4.1788
28.8595,4.1750
28.9595,4.1750
28.9786,4.1788
28.9948,4.1896
29.0057,4.2059
29.0095,4.2250
29.0095,4.9250
29.0057,4.9441
28.9948,4.9604
28.9786,4.9712
28.9595,4.9750
28.8595,4.9750
28.8403,4.9712
28.8241,4.9604
28.8133,4.9441
28.8095,4.9250
Z" /> 
<path style="fill:#D864FF; fill-opacity:0.4000; stroke:none;fill-rule:evenodd;"
d="M 29.2095,4.2250
29.2133,4.2059
29.2241,4.1896
29.2403,4.1788
29.2595,4.1750
29.3595,4.1750
29.3786,4.1788
29.3948,4.1896
29.4057,4.2059
29.4095,4.2250
29.4095,4.9250
29.4057,4.9441
29.3948,4.9604
29.3786,4.9712
29.3595,4.9750
29.2595,4.9750
29.2403,4.9712
29.2241,4.9604
29.2133,4.9441
29.2095,4.9250
Z" /> 
<path style="fill:#D864FF; fill-opacity:0.4000; stroke:none;fill-rule:evenodd;"
d="M 29.6095,4.2250
29.6133,4.2059
29.6241,4.1896
29.6403,4.1788
29.6595,4.1750
29.7595,4.1750
29.7786,4.1788
29.7948,4.1896
29.8057,4.2059
29.8095,4.2250
29.8095,4.9250
29.8057,4.9441
29.7948,4.9604
29.7786,4.9712
29.7595,4.9750
29.6595,4.9750
29.6403,4.9712
29.6241,4.9604
29.6133,4.9441
29.6095,4.9250
Z" /> 
<path style="fill:#D864FF; fill-opacity:0.4000; stroke:none;fill-rule:evenodd;"
d="M 30.0095,4.2250
30.0133,4.2059
30.0241,4.1896
30.0403,4.1788
30.0595,4.1750
30.1595,4.1750
30.1786,4.1788
30.1948,4.1896
30.2057,4.2059
30.2095,4.2250
30.2095,4.9250
30.2057,4.9441
30.1948,4.9604
30.1786,4.9712
30.1595,4.9750
30.0595,4.9750
30.0403,4.9712
30.0241,4.9604
30.0133,4.9441
30.0095,4.9250
Z" /> 
<path style="fill:#D864FF; fill-opacity:0.4000; stroke:none;fill-rule:evenodd;"
d="M 30.5241,4.1896
30.5948,4.2604
30.6095,4.2957
30.6095,4.9250
30.5948,4.9604
30.5595,4.9750
30.4595,4.9750
30.4241,4.9604
30.4095,4.9250
30.4095,4.2250
30.4241,4.1896
30.4595,4.1750
30.4887,4.1750
Z" /> 
<path style="fill:#D864FF; fill-opacity:0.4000; stroke:none;fill-rule:evenodd;"
d="M 31.4448,3.9396
31.4595,3.9750
31.4595,4.0750
31.4448,4.1104
31.4095,4.1250
30.7802,4.1250
30.7448,4.1104
30.6741,4.0396
30.6595,4.0043
30.6595,3.9750
30.6741,3.9396
30.7095,3.9250
31.4095,3.9250
Z" /> 
<path style="fill:#D864FF; fill-opacity:0.4000; stroke:none;fill-rule:evenodd;"
d="M 30.6595,3.5750
30.6633,3.5559
30.6741,3.5396
30.6903,3.5288
30.7095,3.5250
31.4095,3.5250
31.4286,3.5288
31.4448,3.5396
31.4557,3.5559
31.4595,3.5750
31.4595,3.6750
31.4557,3.6941
31.4448,3.7104
31.4286,3.7212
31.4095,3.7250
30.7095,3.7250
30.6903,3.7212
30.6741,3.7104
30.6633,3.6941
30.6595,3.6750
Z" /> 
<path style="fill:#D864FF; fill-opacity:0.4000; stroke:none;fill-rule:evenodd;"
d="M 30.6595,3.1750
30.6633,3.1559
30.6741,3.1396
30.6903,3.1288
30.7095,3.1250
31.4095,3.1250
31.4286,3.1288
31.4448,3.1396
31.4557,3.1559
31.4595,3.1750
31.4595,3.2750
31.4557,3.2941
31.4448,3.3104
31.4286,3.3212
31.4095,3.3250
30.7095,3.3250
30.6903,3.3212
30.6741,3.3104
30.6633,3.2941
30.6595,3.2750
Z" /> 
<path style="fill:#D864FF; fill-opacity:0.4000; stroke:none;fill-rule:evenodd;"
d="M 30.6595,2.7750
30.6633,2.7559
30.6741,2.7396
30.6903,2.7288
30.7095,2.7250
31.4095,2.7250
31.4286,2.7288
31.4448,2.7396
31.4557,2.7559
31.4595,2.7750
31.4595,2.8750
31.4557,2.8941
31.4448,2.9104
31.4286,2.9212
31.4095,2.9250
30.7095,2.9250
30.6903,2.9212
30.6741,2.9104
30.6633,2.8941
30.6595,2.8750
Z" /> 
<path style="fill:#D864FF; fill-opacity:0.4000; stroke:none;fill-rule:evenodd;"
d="M 30.6595,2.3750
30.6633,2.3559
30.6741,2.3396
30.6903,2.3288
30.7095,2.3250
31.4095,2.3250
31.4286,2.3288
31.4448,2.3396
31.4557,2.3559
31.4595,2.3750
31.4595,2.4750
31.4557,2.4941
31.4448,2.5104
31.4286,2.5212
31.4095,2.5250
30.7095,2.5250
30.6903,2.5212
30.6741,2.5104
30.6633,2.4941
30.6595,2.4750
Z" /> 
<path style="fill:#D864FF; fill-opacity:0.4000; stroke:none;fill-rule:evenodd;"
d="M 30.6595,1.9750
30.6633,1.9559
30.6741,1.9396
30.6903,1.9288
30.7095,1.9250
31.4095,1.9250
31.4286,1.9288
31.4448,1.9396
31.4557,1.9559
31.4595,1.9750
31.4595,2.0750
31.4557,2.0941
31.4448,2.1104
31.4286,2.1212
31.4095,2.1250
30.7095,2.1250
30.6903,2.1212
30.6741,2.1104
30.6633,2.0941
30.6595,2.0750
Z" /> 
<path style="fill:#D864FF; fill-opacity:0.4000; stroke:none;fill-rule:evenodd;"
d="M 30.6595,1.5750
30.6633,1.5559
30.6741,1.5396
30.6903,1.5288
30.7095,1.5250
31.4095,1.5250
31.4286,1.5288
31.4448,1.5396
31.4557,1.5559
31.4595,1.5750
31.4595,1.6750
31.4557,1.6941
31.4448,1.7104
31.4286,1.7212
31.4095,1.7250
30.7095,1.7250
30.6903,1.7212
30.6741,1.7104
30.6633,1.6941
30.6595,1.6750
Z" /> 
<path style="fill:#D864FF; fill-opacity:0.4000; stroke:none;fill-rule:evenodd;"
d="M 31.4448,1.1396
31.4595,1.1750
31.4595,1.2750
31.4448,1.3104
31.4095,1.3250
30.7095,1.3250
30.6741,1.3104
30.6595,1.2750
30.6595,1.2457
30.6741,1.2104
30.7448,1.1396
30.7802,1.1250
31.4095,1.1250
Z" /> 
<path style="fill:#D864FF; fill-opacity:0.4000; stroke:none;fill-rule:evenodd;"
d="M 30.5948,0.2896
30.6095,0.3250
30.6095,0.9543
30.5948,0.9896
30.5241,1.0604
30.4887,1.0750
30.4595,1.0750
30.4241,1.0604
30.4095,1.0250
30.4095,0.3250
30.4241,0.2896
30.4595,0.2750
30.5595,0.2750
Z" /> 
<path style="fill:#D864FF; fill-opacity:0.4000; stroke:none;fill-rule:evenodd;"
d="M 30.0095,0.3250
30.0133,0.3059
30.0241,0.2896
30.0403,0.2788
30.0595,0.2750
30.1595,0.2750
30.1786,0.2788
30.1948,0.2896
30.2057,0.3059
30.2095,0.3250
30.2095,1.0250
30.2057,1.0441
30.1948,1.0604
30.1786,1.0712
30.1595,1.0750
30.0595,1.0750
30.0403,1.0712
30.0241,1.0604
30.0133,1.0441
30.0095,1.0250
Z" /> 
<path style="fill:#D864FF; fill-opacity:0.4000; stroke:none;fill-rule:evenodd;"
d="M 29.6095,0.3250
29.6133,0.3059
29.6241,0.2896
29.6403,0.2788
29.6595,0.2750
29.7595,0.2750
29.7786,0.2788
29.7948,0.2896
29.8057,0.3059
29.8095,0.3250
29.8095,1.0250
29.8057,1.0441
29.7948,1.0604
29.7786,1.0712
29.7595,1.0750
29.6595,1.0750
29.6403,1.0712
29.6241,1.0604
29.6133,1.0441
29.6095,1.0250
Z" /> 
<path style="fill:#D864FF; fill-opacity:0.4000; stroke:none;fill-rule:evenodd;"
d="M 29.2095,0.3250
29.2133,0.3059
29.2241,0.2896
29.2403,0.2788
29.2595,0.2750
29.3595,0.2750
29.3786,0.2788
29.3948,0.2896
29.4057,0.3059
29.4095,0.3250
29.4095,1.0250
29.4057,1.0441
29.3948,1.0604
29.3786,1.0712
29.3595,1.0750
29.2595,1.0750
29.2403,1.0712
29.2241,1.0604
29.2133,1.0441
29.2095,1.0250
Z" /> 
<path style="fill:#D864FF; fill-opacity:0.4000; stroke:none;fill-rule:evenodd;"
d="M 28.8095,0.3250
28.8133,0.3059
28.8241,0.2896
28.8403,0.2788
28.8595,0.2750
28.9595,0.2750
28.9786,0.2788
28.9948,0.2896
29.0057,0.3059
29.0095,0.3250
29.0095,1.0250
29.0057,1.0441
28.9948,1.0604
28.9786,1.0712
28.9595,1.0750
28.8595,1.0750
28.8403,1.0712
28.8241,1.0604
28.8133,1.0441
28.8095,1.0250
Z" /> 
<path style="fill:#D864FF; fill-opacity:0.4000; stroke:none;fill-rule:evenodd;"
d="M 28.4095,0.3250
28.4133,0.3059
28.4241,0.2896
28.4403,0.2788
28.4595,0.2750
28.5595,0.2750
28.5786,0.2788
28.5948,0.2896
28.6057,0.3059
28.6095,0.3250
28.6095,1.0250
28.6057,1.0441
28.5948,1.0604
28.5786,1.0712
28.5595,1.0750
28.4595,1.0750
28.4403,1.0712
28.4241,1.0604
28.4133,1.0441
28.4095,1.0250
Z" /> 
<path style="fill:#D864FF; fill-opacity:0.4000; stroke:none;fill-rule:evenodd;"
d="M 28.0095,0.3250
28.0133,0.3059
28.0241,0.2896
28.0403,0.2788
28.0595,0.2750
28.1595,0.2750
28.1786,0.2788
28.1948,0.2896
28.2057,0.3059
28.2095,0.3250
28.2095,1.0250
28.2057,1.0441
28.1948,1.0604
28.1786,1.0712
28.1595,1.0750
28.0595,1.0750
28.0403,1.0712
28.0241,1.0604
28.0133,1.0441
28.0095,1.0250
Z" /> 
<path style="fill:#D864FF; fill-opacity:0.4000; stroke:none;fill-rule:evenodd;"
d="M 27.7948,0.2896
27.8095,0.3250
27.8095,1.0250
27.7948,1.0604
27.7595,1.0750
27.7302,1.0750
27.6948,1.0604
27.6241,0.9896
27.6095,0.9543
27.6095,0.3250
27.6241,0.2896
27.6595,0.2750
27.7595,0.2750
Z" /> 
<path style="fill:#D864FF; fill-opacity:0.4000; stroke:none;fill-rule:evenodd;"
d="M 27.7845,3.9500
27.7845,1.3000
30.4345,1.3000
30.4345,3.9500
Z" /> 
<path style="fill:#B4A09A; fill-opacity:0.9000; stroke:none;fill-rule:evenodd;"
d="M 28.1740,1.3643
28.2087,1.4122
28.2134,1.4418
28.2134,1.4985
28.1952,1.5548
28.1854,1.5662
28.0507,1.7009
27.9980,1.7278
27.9830,1.7290
27.9262,1.7290
27.8699,1.7107
27.8352,1.6628
27.8305,1.6332
27.8305,1.4418
27.8488,1.3855
27.8966,1.3507
27.9262,1.3460
28.1177,1.3460
Z" /> 
<path style="fill:#B4A09A; fill-opacity:0.9000; stroke:none;fill-rule:evenodd;"
d="M 28.0756,1.8756
28.0870,1.8854
28.1854,1.9838
28.2123,2.0365
28.2134,2.0515
28.2134,2.3485
28.1952,2.4048
28.1854,2.4162
28.0870,2.5146
28.0343,2.5415
28.0193,2.5426
27.9262,2.5426
27.8699,2.5244
27.8352,2.4765
27.8305,2.4469
27.8305,1.9531
27.8488,1.8968
27.8966,1.8620
27.9262,1.8574
28.0193,1.8574
Z" /> 
<path style="fill:#B4A09A; fill-opacity:0.9000; stroke:none;fill-rule:evenodd;"
d="M 28.0756,2.7256
28.0870,2.7354
28.1854,2.8338
28.2123,2.8865
28.2134,2.9015
28.2134,3.1985
28.1952,3.2548
28.1854,3.2662
28.0870,3.3646
28.0343,3.3915
28.0193,3.3926
27.9262,3.3926
27.8699,3.3744
27.8352,3.3265
27.8305,3.2969
27.8305,2.8031
27.8488,2.7468
27.8966,2.7120
27.9262,2.7074
28.0193,2.7074
Z" /> 
<path style="fill:#B4A09A; fill-opacity:0.9000; stroke:none;fill-rule:evenodd;"
d="M 28.0393,3.5393
28.0507,3.5491
28.1854,3.6838
28.2123,3.7365
28.2134,3.7515
28.2134,3.8082
28.1952,3.8645
28.1473,3.8993
28.1177,3.9040
27.9262,3.9040
27.8699,3.8857
27.8352,3.8378
27.8305,3.8082
27.8305,3.6168
27.8488,3.5605
27.8966,3.5257
27.9262,3.5210
27.9830,3.5210
Z" /> 
<path style="fill:#B4A09A; fill-opacity:0.9000; stroke:none;fill-rule:evenodd;"
d="M 28.9876,1.3643
29.0224,1.4122
29.0271,1.4418
29.0271,1.5349
29.0088,1.5911
28.9991,1.6026
28.9007,1.7009
28.8480,1.7278
28.8330,1.7290
28.5359,1.7290
28.4797,1.7107
28.4682,1.7009
28.3699,1.6026
28.3430,1.5498
28.3418,1.5349
28.3418,1.4418
28.3601,1.3855
28.4080,1.3507
28.4376,1.3460
28.9314,1.3460
Z" /> 
<path style="fill:#B4A09A; fill-opacity:0.9000; stroke:none;fill-rule:evenodd;"
d="M 28.9281,1.8769
28.9334,1.8818
29.0026,1.9510
29.0268,2.0028
29.0271,2.0101
29.0271,2.3899
29.0076,2.4436
29.0026,2.4490
28.9334,2.5182
28.8816,2.5423
28.8744,2.5426
28.4945,2.5426
28.4409,2.5231
28.4355,2.5182
28.3663,2.4490
28.3421,2.3972
28.3418,2.3899
28.3418,2.0101
28.3614,1.9564
28.3663,1.9510
28.4355,1.8818
28.4873,1.8577
28.4945,1.8574
28.8744,1.8574
Z" /> 
<path style="fill:#B4A09A; fill-opacity:0.9000; stroke:none;fill-rule:evenodd;"
d="M 28.9281,2.7269
28.9334,2.7318
29.0026,2.8010
29.0268,2.8528
29.0271,2.8601
29.0271,3.2399
29.0076,3.2936
29.0026,3.2990
28.9334,3.3682
28.8816,3.3923
28.8744,3.3926
28.4945,3.3926
28.4409,3.3731
28.4355,3.3682
28.3663,3.2990
28.3421,3.2472
28.3418,3.2399
28.3418,2.8601
28.3614,2.8064
28.3663,2.8010
28.4355,2.7318
28.4873,2.7077
28.4945,2.7074
28.8744,2.7074
Z" /> 
<path style="fill:#B4A09A; fill-opacity:0.9000; stroke:none;fill-rule:evenodd;"
d="M 28.8893,3.5393
28.9007,3.5491
28.9991,3.6474
29.0259,3.7002
29.0271,3.7151
29.0271,3.8082
29.0088,3.8645
28.9610,3.8993
28.9314,3.9040
28.4376,3.9040
28.3813,3.8857
28.3465,3.8378
28.3418,3.8082
28.3418,3.7151
28.3601,3.6589
28.3699,3.6474
28.4682,3.5491
28.5210,3.5222
28.5359,3.5210
28.8330,3.5210
Z" /> 
<path style="fill:#B4A09A; fill-opacity:0.9000; stroke:none;fill-rule:evenodd;"
d="M 29.8376,1.3643
29.8724,1.4122
29.8771,1.4418
29.8771,1.5349
29.8588,1.5911
29.8491,1.6026
29.7507,1.7009
29.6980,1.7278
29.6830,1.7290
29.3859,1.7290
29.3297,1.7107
29.3182,1.7009
29.2199,1.6026
29.1930,1.5498
29.1918,1.5349
29.1918,1.4418
29.2101,1.3855
29.2580,1.3507
29.2876,1.3460
29.7814,1.3460
Z" /> 
<path style="fill:#B4A09A; fill-opacity:0.9000; stroke:none;fill-rule:evenodd;"
d="M 29.7781,1.8769
29.7834,1.8818
29.8526,1.9510
29.8768,2.0028
29.8771,2.0101
29.8771,2.3899
29.8576,2.4436
29.8526,2.4490
29.7834,2.5182
29.7316,2.5423
29.7244,2.5426
29.3445,2.5426
29.2909,2.5231
29.2855,2.5182
29.2163,2.4490
29.1921,2.3972
29.1918,2.3899
29.1918,2.0101
29.2114,1.9564
29.2163,1.9510
29.2855,1.8818
29.3373,1.8577
29.3445,1.8574
29.7244,1.8574
Z" /> 
<path style="fill:#B4A09A; fill-opacity:0.9000; stroke:none;fill-rule:evenodd;"
d="M 29.7781,2.7269
29.7834,2.7318
29.8526,2.8010
29.8768,2.8528
29.8771,2.8601
29.8771,3.2399
29.8576,3.2936
29.8526,3.2990
29.7834,3.3682
29.7316,3.3923
29.7244,3.3926
29.3445,3.3926
29.2909,3.3731
29.2855,3.3682
29.2163,3.2990
29.1921,3.2472
29.1918,3.2399
29.1918,2.8601
29.2114,2.8064
29.2163,2.8010
29.2855,2.7318
29.3373,2.7077
29.3445,2.7074
29.7244,2.7074
Z" /> 
<path style="fill:#B4A09A; fill-opacity:0.9000; stroke:none;fill-rule:evenodd;"
d="M 29.7393,3.5393
29.7507,3.5491
29.8491,3.6474
29.8759,3.7002
29.8771,3.7151
29.8771,3.8082
29.8588,3.8645
29.8109,3.8993
29.7814,3.9040
29.2876,3.9040
29.2313,3.8857
29.1965,3.8378
29.1918,3.8082
29.1918,3.7151
29.2101,3.6589
29.2199,3.6474
29.3182,3.5491
29.3710,3.5222
29.3859,3.5210
29.6830,3.5210
Z" /> 
<path style="fill:#B4A09A; fill-opacity:0.9000; stroke:none;fill-rule:evenodd;"
d="M 30.3490,1.3643
30.3837,1.4122
30.3884,1.4418
30.3884,1.6332
30.3702,1.6895
30.3223,1.7243
30.2927,1.7290
30.2359,1.7290
30.1797,1.7107
30.1682,1.7009
30.0335,1.5662
30.0067,1.5135
30.0055,1.4985
30.0055,1.4418
30.0238,1.3855
30.0716,1.3507
30.1012,1.3460
30.2927,1.3460
Z" /> 
<path style="fill:#B4A09A; fill-opacity:0.9000; stroke:none;fill-rule:evenodd;"
d="M 30.3490,1.8756
30.3837,1.9235
30.3884,1.9531
30.3884,2.4469
30.3702,2.5032
30.3223,2.5380
30.2927,2.5426
30.1996,2.5426
30.1433,2.5244
30.1319,2.5146
30.0335,2.4162
30.0067,2.3635
30.0055,2.3485
30.0055,2.0515
30.0238,1.9952
30.0335,1.9838
30.1319,1.8854
30.1846,1.8585
30.1996,1.8574
30.2927,1.8574
Z" /> 
<path style="fill:#B4A09A; fill-opacity:0.9000; stroke:none;fill-rule:evenodd;"
d="M 30.3490,2.7256
30.3837,2.7735
30.3884,2.8031
30.3884,3.2969
30.3702,3.3532
30.3223,3.3880
30.2927,3.3926
30.1996,3.3926
30.1433,3.3744
30.1319,3.3646
30.0335,3.2662
30.0067,3.2135
30.0055,3.1985
30.0055,2.9015
30.0238,2.8452
30.0335,2.8338
30.1319,2.7354
30.1846,2.7085
30.1996,2.7074
30.2927,2.7074
Z" /> 
<path style="fill:#B4A09A; fill-opacity:0.9000; stroke:none;fill-rule:evenodd;"
d="M 30.3490,3.5393
30.3837,3.5872
30.3884,3.6168
30.3884,3.8082
30.3702,3.8645
30.3223,3.8993
30.2927,3.9040
30.1012,3.9040
30.0449,3.8857
30.0102,3.8378
30.0055,3.8082
30.0055,3.7515
30.0238,3.6952
30.0335,3.6838
30.1682,3.5491
30.2210,3.5222
30.2359,3.5210
30.2927,3.5210
Z" /> 
<path style="fill:#B4A09A; fill-opacity:0.9000; stroke:none;fill-rule:evenodd;"
d="M 27.4741,1.1396
27.5448,1.2104
27.5595,1.2457
27.5595,1.2750
27.5448,1.3104
27.5095,1.3250
26.8095,1.3250
26.7741,1.3104
26.7595,1.2750
26.7595,1.1750
26.7741,1.1396
26.8095,1.1250
27.4387,1.1250
Z" /> 
<path style="fill:#B4A09A; fill-opacity:0.9000; stroke:none;fill-rule:evenodd;"
d="M 26.7595,1.5750
26.7633,1.5559
26.7741,1.5396
26.7903,1.5288
26.8095,1.5250
27.5095,1.5250
27.5286,1.5288
27.5448,1.5396
27.5557,1.5559
27.5595,1.5750
27.5595,1.6750
27.5557,1.6941
27.5448,1.7104
27.5286,1.7212
27.5095,1.7250
26.8095,1.7250
26.7903,1.7212
26.7741,1.7104
26.7633,1.6941
26.7595,1.6750
Z" /> 
<path style="fill:#B4A09A; fill-opacity:0.9000; stroke:none;fill-rule:evenodd;"
d="M 26.7595,1.9750
26.7633,1.9559
26.7741,1.9396
26.7903,1.9288
26.8095,1.9250
27.5095,1.9250
27.5286,1.9288
27.5448,1.9396
27.5557,1.9559
27.5595,1.9750
27.5595,2.0750
27.5557,2.0941
27.5448,2.1104
27.5286,2.1212
27.5095,2.1250
26.8095,2.1250
26.7903,2.1212
26.7741,2.1104
26.7633,2.0941
26.7595,2.0750
Z" /> 
<path style="fill:#B4A09A; fill-opacity:0.9000; stroke:none;fill-rule:evenodd;"
d="M 26.7595,2.3750
26.7633,2.3559
26.7741,2.3396
26.7903,2.3288
26.8095,2.3250
27.5095,2.3250
27.5286,2.3288
27.5448,2.3396
27.5557,2.3559
27.5595,2.3750
27.5595,2.4750
27.5557,2.4941
27.5448,2.5104
27.5286,2.5212
27.5095,2.5250
26.8095,2.5250
26.7903,2.5212
26.7741,2.5104
26.7633,2.4941
26.7595,2.4750
Z" /> 
<path style="fill:#B4A09A; fill-opacity:0.9000; stroke:none;fill-rule:evenodd;"
d="M 26.7595,2.7750
26.7633,2.7559
26.7741,2.7396
26.7903,2.7288
26.8095,2.7250
27.5095,2.7250
27.5286,2.7288
27.5448,2.7396
27.5557,2.7559
27.5595,2.7750
27.5595,2.8750
27.5557,2.8941
27.5448,2.9104
27.5286,2.9212
27.5095,2.9250
26.8095,2.9250
26.7903,2.9212
26.7741,2.9104
26.7633,2.8941
26.7595,2.8750
Z" /> 
<path style="fill:#B4A09A; fill-opacity:0.9000; stroke:none;fill-rule:evenodd;"
d="M 26.7595,3.1750
26.7633,3.1559
26.7741,3.1396
26.7903,3.1288
26.8095,3.1250
27.5095,3.1250
27.5286,3.1288
27.5448,3.1396
27.5557,3.1559
27.5595,3.1750
27.5595,3.2750
27.5557,3.2941
27.5448,3.3104
27.5286,3.3212
27.5095,3.3250
26.8095,3.3250
26.7903,3.3212
26.7741,3.3104
26.7633,3.2941
26.7595,3.2750
Z" /> 
<path style="fill:#B4A09A; fill-opacity:0.9000; stroke:none;fill-rule:evenodd;"
d="M 26.7595,3.5750
26.7633,3.5559
26.7741,3.5396
26.7903,3.5288
26.8095,3.5250
27.5095,3.5250
27.5286,3.5288
27.5448,3.5396
27.5557,3.5559
27.5595,3.5750
27.5595,3.6750
27.5557,3.6941
27.5448,3.7104
27.5286,3.7212
27.5095,3.7250
26.8095,3.7250
26.7903,3.7212
26.7741,3.7104
26.7633,3.6941
26.7595,3.6750
Z" /> 
<path style="fill:#B4A09A; fill-opacity:0.9000; stroke:none;fill-rule:evenodd;"
d="M 27.5448,3.9396
27.5595,3.9750
27.5595,4.0043
27.5448,4.0396
27.4741,4.1104
27.4387,4.1250
26.8095,4.1250
26.7741,4.1104
26.7595,4.0750
26.7595,3.9750
26.7741,3.9396
26.8095,3.9250
27.5095,3.9250
Z" /> 
<path style="fill:#B4A09A; fill-opacity:0.9000; stroke:none;fill-rule:evenodd;"
d="M 27.7948,4.1896
27.8095,4.2250
27.8095,4.9250
27.7948,4.9604
27.7595,4.9750
27.6595,4.9750
27.6241,4.9604
27.6095,4.9250
27.6095,4.2957
27.6241,4.2604
27.6948,4.1896
27.7302,4.1750
27.7595,4.1750
Z" /> 
<path style="fill:#B4A09A; fill-opacity:0.9000; stroke:none;fill-rule:evenodd;"
d="M 28.0095,4.2250
28.0133,4.2059
28.0241,4.1896
28.0403,4.1788
28.0595,4.1750
28.1595,4.1750
28.1786,4.1788
28.1948,4.1896
28.2057,4.2059
28.2095,4.2250
28.2095,4.9250
28.2057,4.9441
28.1948,4.9604
28.1786,4.9712
28.1595,4.9750
28.0595,4.9750
28.0403,4.9712
28.0241,4.9604
28.0133,4.9441
28.0095,4.9250
Z" /> 
<path style="fill:#B4A09A; fill-opacity:0.9000; stroke:none;fill-rule:evenodd;"
d="M 28.4095,4.2250
28.4133,4.2059
28.4241,4.1896
28.4403,4.1788
28.4595,4.1750
28.5595,4.1750
28.5786,4.1788
28.5948,4.1896
28.6057,4.2059
28.6095,4.2250
28.6095,4.9250
28.6057,4.9441
28.5948,4.9604
28.5786,4.9712
28.5595,4.9750
28.4595,4.9750
28.4403,4.9712
28.4241,4.9604
28.4133,4.9441
28.4095,4.9250
Z" /> 
<path style="fill:#B4A09A; fill-opacity:0.9000; stroke:none;fill-rule:evenodd;"
d="M 28.8095,4.2250
28.8133,4.2059
28.8241,4.1896
28.8403,4.1788
28.8595,4.1750
28.9595,4.1750
28.9786,4.1788
28.9948,4.1896
29.0057,4.2059
29.0095,4.2250
29.0095,4.9250
29.0057,4.9441
28.9948,4.9604
28.9786,4.9712
28.9595,4.9750
28.8595,4.9750
28.8403,4.9712
28.8241,4.9604
28.8133,4.9441
28.8095,4.9250
Z" /> 
<path style="fill:#B4A09A; fill-opacity:0.9000; stroke:none;fill-rule:evenodd;"
d="M 29.2095,4.2250
29.2133,4.2059
29.2241,4.1896
29.2403,4.1788
29.2595,4.1750
29.3595,4.1750
29.3786,4.1788
29.3948,4.1896
29.4057,4.2059
29.4095,4.2250
29.4095,4.9250
29.4057,4.9441
29.3948,4.9604
29.3786,4.9712
29.3595,4.9750
29.2595,4.9750
29.2403,4.9712
29.2241,4.9604
29.2133,4.9441
29.2095,4.9250
Z" /> 
<path style="fill:#B4A09A; fill-opacity:0.9000; stroke:none;fill-rule:evenodd;"
d="M 29.6095,4.2250
29.6133,4.2059
29.6241,4.1896
29.6403,4.1788
29.6595,4.1750
29.7595,4.1750
29.7786,4.1788
29.7948,4.1896
29.8057,4.2059
29.8095,4.2250
29.8095,4.9250
29.8057,4.9441
29.7948,4.9604
29.7786,4.9712
29.7595,4.9750
29.6595,4.9750
29.6403,4.9712
29.6241,4.9604
29.6133,4.9441
29.6095,4.9250
Z" /> 
<path style="fill:#B4A09A; fill-opacity:0.9000; stroke:none;fill-rule:evenodd;"
d="M 30.0095,4.2250
30.0133,4.2059
30.0241,4.1896
30.0403,4.1788
30.0595,4.1750
30.1595,4.1750
30.1786,4.1788
30.1948,4.1896
30.2057,4.2059
30.2095,4.2250
30.2095,4.9250
30.2057,4.9441
30.1948,4.9604
30.1786,4.9712
30.1595,4.9750
30.0595,4.9750
30.0403,4.9712
30.0241,4.9604
30.0133,4.9441
30.0095,4.9250
Z" /> 
<path style="fill:#B4A09A; fill-opacity:0.9000; stroke:none;fill-rule:evenodd;"
d="M 30.5241,4.1896
30.5948,4.2604
30.6095,4.2957
30.6095,4.9250
30.5948,4.9604
30.5595,4.9750
30.4595,4.9750
30.4241,4.9604
30.4095,4.9250
30.4095,4.2250
30.4241,4.1896
30.4595,4.1750
30.4887,4.1750
Z" /> 
<path style="fill:#B4A09A; fill-opacity:0.9000; stroke:none;fill-rule:evenodd;"
d="M 31.4448,3.9396
31.4595,3.9750
31.4595,4.0750
31.4448,4.1104
31.4095,4.1250
30.7802,4.1250
30.7448,4.1104
30.6741,4.0396
30.6595,4.0043
30.6595,3.9750
30.6741,3.9396
30.7095,3.9250
31.4095,3.9250
Z" /> 
<path style="fill:#B4A09A; fill-opacity:0.9000; stroke:none;fill-rule:evenodd;"
d="M 30.6595,3.5750
30.6633,3.5559
30.6741,3.5396
30.6903,3.5288
30.7095,3.5250
31.4095,3.5250
31.4286,3.5288
31.4448,3.5396
31.4557,3.5559
31.4595,3.5750
31.4595,3.6750
31.4557,3.6941
31.4448,3.7104
31.4286,3.7212
31.4095,3.7250
30.7095,3.7250
30.6903,3.7212
30.6741,3.7104
30.6633,3.6941
30.6595,3.6750
Z" /> 
<path style="fill:#B4A09A; fill-opacity:0.9000; stroke:none;fill-rule:evenodd;"
d="M 30.6595,3.1750
30.6633,3.1559
30.6741,3.1396
30.6903,3.1288
30.7095,3.1250
31.4095,3.1250
31.4286,3.1288
31.4448,3.1396
31.4557,3.1559
31.4595,3.1750
31.4595,3.2750
31.4557,3.2941
31.4448,3.3104
31.4286,3.3212
31.4095,3.3250
30.7095,3.3250
30.6903,3.3212
30.6741,3.3104
30.6633,3.2941
30.6595,3.2750
Z" /> 
<path style="fill:#B4A09A; fill-opacity:0.9000; stroke:none;fill-rule:evenodd;"
d="M 30.6595,2.7750
30.6633,2.7559
30.6741,2.7396
30.6903,2.7288
30.7095,2.7250
31.4095,2.7250
31.4286,2.7288
31.4448,2.7396
31.4557,2.7559
31.4595,2.7750
31.4595,2.8750
31.4557,2.8941
31.4448,2.9104
31.4286,2.9212
31.4095,2.9250
30.7095,2.9250
30.6903,2.9212
30.6741,2.9104
30.6633,2.8941
30.6595,2.8750
Z" /> 
<path style="fill:#B4A09A; fill-opacity:0.9000; stroke:none;fill-rule:evenodd;"
d="M 30.6595,2.3750
30.6633,2.3559
30.6741,2.3396
30.6903,2.3288
30.7095,2.3250
31.4095,2.3250
31.4286,2.3288
31.4448,2.3396
31.4557,2.3559
31.4595,2.3750
31.4595,2.4750
31.4557,2.4941
31.4448,2.5104
31.4286,2.5212
31.4095,2.5250
30.7095,2.5250
30.6903,2.5212
30.6741,2.5104
30.6633,2.4941
30.6595,2.4750
Z" /> 
<path style="fill:#B4A09A; fill-opacity:0.9000; stroke:none;fill-rule:evenodd;"
d="M 30.6595,1.9750
30.6633,1.9559
30.6741,1.9396
30.6903,1.9288
30.7095,1.9250
31.4095,1.9250
31.4286,1.9288
31.4448,1.9396
31.4557,1.9559
31.4595,1.9750
31.4595,2.0750
31.4557,2.0941
31.4448,2.1104
31.4286,2.1212
31.4095,2.1250
30.7095,2.1250
30.6903,2.1212
30.6741,2.1104
30.6633,2.0941
30.6595,2.0750
Z" /> 
<path style="fill:#B4A09A; fill-opacity:0.9000; stroke:none;fill-rule:evenodd;"
d="M 30.6595,1.5750
30.6633,1.5559
30.6741,1.5396
30.6903,1.5288
30.7095,1.5250
31.4095,1.5250
31.4286,1.5288
31.4448,1.5396
31.4557,1.5559
31.4595,1.5750
31.4595,1.6750
31.4557,1.6941
31.4448,1.7104
31.4286,1.7212
31.4095,1.7250
30.7095,1.7250
30.6903,1.7212
30.6741,1.7104
30.6633,1.6941
30.6595,1.6750
Z" /> 
<path style="fill:#B4A09A; fill-opacity:0.9000; stroke:none;fill-rule:evenodd;"
d="M 31.4448,1.1396
31.4595,1.1750
31.4595,1.2750
31.4448,1.3104
31.4095,1.3250
30.7095,1.3250
30.6741,1.3104
30.6595,1.2750
30.6595,1.2457
30.6741,1.2104
30.7448,1.1396
30.7802,1.1250
31.4095,1.1250
Z" /> 
<path style="fill:#B4A09A; fill-opacity:0.9000; stroke:none;fill-rule:evenodd;"
d="M 30.5948,0.2896
30.6095,0.3250
30.6095,0.9543
30.5948,0.9896
30.5241,1.0604
30.4887,1.0750
30.4595,1.0750
30.4241,1.0604
30.4095,1.0250
30.4095,0.3250
30.4241,0.2896
30.4595,0.2750
30.5595,0.2750
Z" /> 
<path style="fill:#B4A09A; fill-opacity:0.9000; stroke:none;fill-rule:evenodd;"
d="M 30.0095,0.3250
30.0133,0.3059
30.0241,0.2896
30.0403,0.2788
30.0595,0.2750
30.1595,0.2750
30.1786,0.2788
30.1948,0.2896
30.2057,0.3059
30.2095,0.3250
30.2095,1.0250
30.2057,1.0441
30.1948,1.0604
30.1786,1.0712
30.1595,1.0750
30.0595,1.0750
30.0403,1.0712
30.0241,1.0604
30.0133,1.0441
30.0095,1.0250
Z" /> 
<path style="fill:#B4A09A; fill-opacity:0.9000; stroke:none;fill-rule:evenodd;"
d="M 29.6095,0.3250
29.6133,0.3059
29.6241,0.2896
29.6403,0.2788
29.6595,0.2750
29.7595,0.2750
29.7786,0.2788
29.7948,0.2896
29.8057,0.3059
29.8095,0.3250
29.8095,1.0250
29.8057,1.0441
29.7948,1.0604
29.7786,1.0712
29.7595,1.0750
29.6595,1.0750
29.6403,1.0712
29.6241,1.0604
29.6133,1.0441
29.6095,1.0250
Z" /> 
<path style="fill:#B4A09A; fill-opacity:0.9000; stroke:none;fill-rule:evenodd;"
d="M 29.2095,0.3250
29.2133,0.3059
29.2241,0.2896
29.2403,0.2788
29.2595,0.2750
29.3595,0.2750
29.3786,0.2788
29.3948,0.2896
29.4057,0.3059
29.4095,0.3250
29.4095,1.0250
29.4057,1.0441
29.3948,1.0604
29.3786,1.0712
29.3595,1.0750
29.2595,1.0750
29.2403,1.0712
29.2241,1.0604
29.2133,1.0441
29.2095,1.0250
Z" /> 
<path style="fill:#B4A09A; fill-opacity:0.9000; stroke:none;fill-rule:evenodd;"
d="M 28.8095,0.3250
28.8133,0.3059
28.8241,0.2896
28.8403,0.2788
28.8595,0.2750
28.9595,0.2750
28.9786,0.2788
28.9948,0.2896
29.0057,0.3059
29.0095,0.3250
29.0095,1.0250
29.0057,1.0441
28.9948,1.0604
28.9786,1.0712
28.9595,1.0750
28.8595,1.0750
28.8403,1.0712
28.8241,1.0604
28.8133,1.0441
28.8095,1.0250
Z" /> 
<path style="fill:#B4A09A; fill-opacity:0.9000; stroke:none;fill-rule:evenodd;"
d="M 28.4095,0.3250
28.4133,0.3059
28.4241,0.2896
28.4403,0.2788
28.4595,0.2750
28.5595,0.2750
28.5786,0.2788
28.5948,0.2896
28.6057,0.3059
28.6095,0.3250
28.6095,1.0250
28.6057,1.0441
28.5948,1.0604
28.5786,1.0712
28.5595,1.0750
28.4595,1.0750
28.4403,1.0712
28.4241,1.0604
28.4133,1.0441
28.4095,1.0250
Z" /> 
<path style="fill:#B4A09A; fill-opacity:0.9000; stroke:none;fill-rule:evenodd;"
d="M 28.0095,0.3250
28.0133,0.3059
28.0241,0.2896
28.0403,0.2788
28.0595,0.2750
28.1595,0.2750
28.1786,0.2788
28.1948,0.2896
28.2057,0.3059
28.2095,0.3250
28.2095,1.0250
28.2057,1.0441
28.1948,1.0604
28.1786,1.0712
28.1595,1.0750
28.0595,1.0750
28.0403,1.0712
28.0241,1.0604
28.0133,1.0441
28.0095,1.0250
Z" /> 
<path style="fill:#B4A09A; fill-opacity:0.9000; stroke:none;fill-rule:evenodd;"
d="M 27.7948,0.2896
27.8095,0.3250
27.8095,1.0250
27.7948,1.0604
27.7595,1.0750
27.7302,1.0750
27.6948,1.0604
27.6241,0.9896
27.6095,0.9543
27.6095,0.3250
27.6241,0.2896
27.6595,0.2750
27.7595,0.2750
Z" /> 
</g>
<g style="fill:none; 
stroke:#F2EDA1; stroke-width:0.1588; stroke-opacity:1; 
stroke-linecap:round; stroke-linejoin:round;">
<text x="29.1095" y="3.2600"
textLength="5.6651" font-size="1.6933" lengthAdjust="spacingAndGlyphs"
text-anchor="middle" opacity="0">REF**</text>
<g class="stroked-text"><desc>REF**</desc>
<path d="M27.4161 3.2043
L26.9928 2.5995
" />
<path d="M26.6904 3.2043
L26.6904 1.9343
" />
<path d="M26.6904 1.9343
L27.1742 1.9343
" />
<path d="M27.1742 1.9343
L27.2952 1.9947
" />
<path d="M27.2952 1.9947
L27.3556 2.0552
" />
<path d="M27.3556 2.0552
L27.4161 2.1762
" />
<path d="M27.4161 2.1762
L27.4161 2.3576
" />
<path d="M27.4161 2.3576
L27.3556 2.4786
" />
<path d="M27.3556 2.4786
L27.2952 2.5390
" />
<path d="M27.2952 2.5390
L27.1742 2.5995
" />
<path d="M27.1742 2.5995
L26.6904 2.5995
" />
<path d="M27.9604 2.5390
L28.3837 2.5390
" />
<path d="M28.5652 3.2043
L27.9604 3.2043
" />
<path d="M27.9604 3.2043
L27.9604 1.9343
" />
<path d="M27.9604 1.9343
L28.5652 1.9343
" />
<path d="M29.5328 2.5390
L29.1095 2.5390
" />
<path d="M29.1095 3.2043
L29.1095 1.9343
" />
<path d="M29.1095 1.9343
L29.7142 1.9343
" />
<path d="M30.3795 1.9343
L30.3795 2.2367
" />
<path d="M30.0771 2.1157
L30.3795 2.2367
" />
<path d="M30.3795 2.2367
L30.6818 2.1157
" />
<path d="M30.1980 2.4786
L30.3795 2.2367
" />
<path d="M30.3795 2.2367
L30.5609 2.4786
" />
<path d="M31.3471 1.9343
L31.3471 2.2367
" />
<path d="M31.0447 2.1157
L31.3471 2.2367
" />
<path d="M31.3471 2.2367
L31.6495 2.1157
" />
<path d="M31.1656 2.4786
L31.3471 2.2367
" />
<path d="M31.3471 2.2367
L31.5285 2.4786
" />
</g></g>
<g style="fill:none; 
stroke:#F2EDA1; stroke-width:0.1200; stroke-opacity:1; 
stroke-linecap:round; stroke-linejoin:round;">
<path d="M26.9995 0.8650
L26.9995 0.7550
" />
<path d="M26.9995 4.7350
L26.9995 4.3850
" />
<path d="M27.3495 4.7350
L26.9995 4.7350
" />
<path d="M30.8695 0.5150
L31.2195 0.5150
" />
<path d="M30.8695 4.7350
L31.2195 4.7350
" />
<path d="M31.2195 0.5150
L31.2195 0.8650
" />
<path d="M31.2195 4.7350
L31.2195 4.3850
" />
<path style="fill:#F2EDA1; fill-opacity:1.0000; 
stroke:#F2EDA1; stroke-width:0.1200; stroke-opacity:1; 
stroke-linecap:round; stroke-linejoin:round;fill-rule:evenodd;"
d="M 26.9995,0.5150
26.7595,0.1850
27.2395,0.1850
Z" /> 
</g>
<g style="fill:#FFFFFF; fill-opacity:1.0000; stroke:none;">
<circle cx="28.2595" cy="1.7750" r="0.1000" /> 
</g>
<g style="fill:#FFFFFF; fill-opacity:1.0000; stroke:none;">
<circle cx="28.2595" cy="2.6250" r="0.1000" /> 
</g>
<g style="fill:#FFFFFF; fill-opacity:1.0000; stroke:none;">
<circle cx="28.2595" cy="3.4750" r="0.1000" /> 
</g>
<g style="fill:#FFFFFF; fill-opacity:1.0000; stroke:none;">
<circle cx="29.1095" cy="1.7750" r="0.1000" /> 
</g>
<g style="fill:#FFFFFF; fill-opacity:1.0000; stroke:none;">
<circle cx="29.1095" cy="2.6250" r="0.1000" /> 
</g>
<g style="fill:#FFFFFF; fill-opacity:1.0000; stroke:none;">
<circle cx="29.1095" cy="3.4750" r="0.1000" /> 
</g>
<g style="fill:#FFFFFF; fill-opacity:1.0000; stroke:none;">
<circle cx="29.9595" cy="1.7750" r="0.1000" /> 
</g>
<g style="fill:#FFFFFF; fill-opacity:1.0000; stroke:none;">
<circle cx="29.9595" cy="2.6250" r="0.1000" /> 
</g>
<g style="fill:#FFFFFF; fill-opacity:1.0000; stroke:none;">
<circle cx="29.9595" cy="3.4750" r="0.1000" /> 
</g>
<g style="fill:none; 
stroke:#FF26E2; stroke-width:0.0500; stroke-opacity:1; 
stroke-linecap:round; stroke-linejoin:round;">
<path d="M26.5095 0.0250
L26.5095 5.2250
" />
<path d="M26.5095 5.2250
L31.7095 5.2250
" />
<path d="M31.7095 0.0250
L26.5095 0.0250
" />
<path d="M31.7095 5.2250
L31.7095 0.0250
" />
</g>
<g style="fill:none; 
stroke:#AFAFAF; stroke-width:0.1588; stroke-opacity:1; 
stroke-linecap:round; stroke-linejoin:round;">
<text x="29.1095" y="3.2600"
textLength="58.2189" font-size="1.6933" lengthAdjust="spacingAndGlyphs"
text-anchor="middle" opacity="0">QFN-32-1EP_4x4mm_P0.4mm_EP2.65x2.65mm_ThermalVias</text>
<g class="stroked-text"><desc>QFN-32-1EP_4x4mm_P0.4mm_EP2.65x2.65mm_ThermalVias</desc>
<path d="M1.2602 3.3252
L1.1392 3.2647
" />
<path d="M1.1392 3.2647
L1.0183 3.1438
" />
<path d="M1.0183 3.1438
L0.8368 2.9624
" />
<path d="M0.8368 2.9624
L0.7159 2.9019
" />
<path d="M0.7159 2.9019
L0.5949 2.9019
" />
<path d="M0.6554 3.2043
L0.5345 3.1438
" />
<path d="M0.5345 3.1438
L0.4135 3.0228
" />
<path d="M0.4135 3.0228
L0.3530 2.7809
" />
<path d="M0.3530 2.7809
L0.3530 2.3576
" />
<path d="M0.3530 2.3576
L0.4135 2.1157
" />
<path d="M0.4135 2.1157
L0.5345 1.9947
" />
<path d="M0.5345 1.9947
L0.6554 1.9343
" />
<path d="M0.6554 1.9343
L0.8973 1.9343
" />
<path d="M0.8973 1.9343
L1.0183 1.9947
" />
<path d="M1.0183 1.9947
L1.1392 2.1157
" />
<path d="M1.1392 2.1157
L1.1997 2.3576
" />
<path d="M1.1997 2.3576
L1.1997 2.7809
" />
<path d="M1.1997 2.7809
L1.1392 3.0228
" />
<path d="M1.1392 3.0228
L1.0183 3.1438
" />
<path d="M1.0183 3.1438
L0.8973 3.2043
" />
<path d="M0.8973 3.2043
L0.6554 3.2043
" />
<path d="M2.1673 2.5390
L1.7440 2.5390
" />
<path d="M1.7440 3.2043
L1.7440 1.9343
" />
<path d="M1.7440 1.9343
L2.3487 1.9343
" />
<path d="M2.8326 3.2043
L2.8326 1.9343
" />
<path d="M2.8326 1.9343
L3.5583 3.2043
" />
<path d="M3.5583 3.2043
L3.5583 1.9343
" />
<path d="M4.1630 2.7205
L5.1306 2.7205
" />
<path d="M5.6145 1.9343
L6.4006 1.9343
" />
<path d="M6.4006 1.9343
L5.9773 2.4181
" />
<path d="M5.9773 2.4181
L6.1587 2.4181
" />
<path d="M6.1587 2.4181
L6.2797 2.4786
" />
<path d="M6.2797 2.4786
L6.3402 2.5390
" />
<path d="M6.3402 2.5390
L6.4006 2.6600
" />
<path d="M6.4006 2.6600
L6.4006 2.9624
" />
<path d="M6.4006 2.9624
L6.3402 3.0833
" />
<path d="M6.3402 3.0833
L6.2797 3.1438
" />
<path d="M6.2797 3.1438
L6.1587 3.2043
" />
<path d="M6.1587 3.2043
L5.7959 3.2043
" />
<path d="M5.7959 3.2043
L5.6749 3.1438
" />
<path d="M5.6749 3.1438
L5.6145 3.0833
" />
<path d="M6.8845 2.0552
L6.9449 1.9947
" />
<path d="M6.9449 1.9947
L7.0659 1.9343
" />
<path d="M7.0659 1.9343
L7.3683 1.9343
" />
<path d="M7.3683 1.9343
L7.4892 1.9947
" />
<path d="M7.4892 1.9947
L7.5497 2.0552
" />
<path d="M7.5497 2.0552
L7.6102 2.1762
" />
<path d="M7.6102 2.1762
L7.6102 2.2971
" />
<path d="M7.6102 2.2971
L7.5497 2.4786
" />
<path d="M7.5497 2.4786
L6.8240 3.2043
" />
<path d="M6.8240 3.2043
L7.6102 3.2043
" />
<path d="M8.1545 2.7205
L9.1221 2.7205
" />
<path d="M10.3921 3.2043
L9.6664 3.2043
" />
<path d="M10.0292 3.2043
L10.0292 1.9343
" />
<path d="M10.0292 1.9343
L9.9083 2.1157
" />
<path d="M9.9083 2.1157
L9.7873 2.2367
" />
<path d="M9.7873 2.2367
L9.6664 2.2971
" />
<path d="M10.9364 2.5390
L11.3597 2.5390
" />
<path d="M11.5411 3.2043
L10.9364 3.2043
" />
<path d="M10.9364 3.2043
L10.9364 1.9343
" />
<path d="M10.9364 1.9343
L11.5411 1.9343
" />
<path d="M12.0854 3.2043
L12.0854 1.9343
" />
<path d="M12.0854 1.9343
L12.5692 1.9343
" />
<path d="M12.5692 1.9343
L12.6902 1.9947
" />
<path d="M12.6902 1.9947
L12.7507 2.0552
" />
<path d="M12.7507 2.0552
L12.8111 2.1762
" />
<path d="M12.8111 2.1762
L12.8111 2.3576
" />
<path d="M12.8111 2.3576
L12.7507 2.4786
" />
<path d="M12.7507 2.4786
L12.6902 2.5390
" />
<path d="M12.6902 2.5390
L12.5692 2.5995
" />
<path d="M12.5692 2.5995
L12.0854 2.5995
" />
<path d="M13.0530 3.3252
L14.0206 3.3252
" />
<path d="M14.8673 2.3576
L14.8673 3.2043
" />
<path d="M14.5649 1.8738
L14.2626 2.7809
" />
<path d="M14.2626 2.7809
L15.0487 2.7809
" />
<path d="M15.4116 3.2043
L16.0768 2.3576
" />
<path d="M15.4116 2.3576
L16.0768 3.2043
" />
<path d="M17.1049 2.3576
L17.1049 3.2043
" />
<path d="M16.8026 1.8738
L16.5002 2.7809
" />
<path d="M16.5002 2.7809
L17.2864 2.7809
" />
<path d="M17.7702 3.2043
L17.7702 2.3576
" />
<path d="M17.7702 2.4786
L17.8306 2.4181
" />
<path d="M17.8306 2.4181
L17.9516 2.3576
" />
<path d="M17.9516 2.3576
L18.1330 2.3576
" />
<path d="M18.1330 2.3576
L18.2540 2.4181
" />
<path d="M18.2540 2.4181
L18.3145 2.5390
" />
<path d="M18.3145 2.5390
L18.3145 3.2043
" />
<path d="M18.3145 2.5390
L18.3749 2.4181
" />
<path d="M18.3749 2.4181
L18.4959 2.3576
" />
<path d="M18.4959 2.3576
L18.6773 2.3576
" />
<path d="M18.6773 2.3576
L18.7983 2.4181
" />
<path d="M18.7983 2.4181
L18.8587 2.5390
" />
<path d="M18.8587 2.5390
L18.8587 3.2043
" />
<path d="M19.4635 3.2043
L19.4635 2.3576
" />
<path d="M19.4635 2.4786
L19.5240 2.4181
" />
<path d="M19.5240 2.4181
L19.6449 2.3576
" />
<path d="M19.6449 2.3576
L19.8264 2.3576
" />
<path d="M19.8264 2.3576
L19.9473 2.4181
" />
<path d="M19.9473 2.4181
L20.0078 2.5390
" />
<path d="M20.0078 2.5390
L20.0078 3.2043
" />
<path d="M20.0078 2.5390
L20.0683 2.4181
" />
<path d="M20.0683 2.4181
L20.1892 2.3576
" />
<path d="M20.1892 2.3576
L20.3706 2.3576
" />
<path d="M20.3706 2.3576
L20.4916 2.4181
" />
<path d="M20.4916 2.4181
L20.5521 2.5390
" />
<path d="M20.5521 2.5390
L20.5521 3.2043
" />
<path d="M20.8545 3.3252
L21.8221 3.3252
" />
<path d="M22.1245 3.2043
L22.1245 1.9343
" />
<path d="M22.1245 1.9343
L22.6083 1.9343
" />
<path d="M22.6083 1.9343
L22.7292 1.9947
" />
<path d="M22.7292 1.9947
L22.7897 2.0552
" />
<path d="M22.7897 2.0552
L22.8502 2.1762
" />
<path d="M22.8502 2.1762
L22.8502 2.3576
" />
<path d="M22.8502 2.3576
L22.7897 2.4786
" />
<path d="M22.7897 2.4786
L22.7292 2.5390
" />
<path d="M22.7292 2.5390
L22.6083 2.5995
" />
<path d="M22.6083 2.5995
L22.1245 2.5995
" />
<path d="M23.6364 1.9343
L23.7573 1.9343
" />
<path d="M23.7573 1.9343
L23.8783 1.9947
" />
<path d="M23.8783 1.9947
L23.9387 2.0552
" />
<path d="M23.9387 2.0552
L23.9992 2.1762
" />
<path d="M23.9992 2.1762
L24.0597 2.4181
" />
<path d="M24.0597 2.4181
L24.0597 2.7205
" />
<path d="M24.0597 2.7205
L23.9992 2.9624
" />
<path d="M23.9992 2.9624
L23.9387 3.0833
" />
<path d="M23.9387 3.0833
L23.8783 3.1438
" />
<path d="M23.8783 3.1438
L23.7573 3.2043
" />
<path d="M23.7573 3.2043
L23.6364 3.2043
" />
<path d="M23.6364 3.2043
L23.5154 3.1438
" />
<path d="M23.5154 3.1438
L23.4549 3.0833
" />
<path d="M23.4549 3.0833
L23.3945 2.9624
" />
<path d="M23.3945 2.9624
L23.3340 2.7205
" />
<path d="M23.3340 2.7205
L23.3340 2.4181
" />
<path d="M23.3340 2.4181
L23.3945 2.1762
" />
<path d="M23.3945 2.1762
L23.4549 2.0552
" />
<path d="M23.4549 2.0552
L23.5154 1.9947
" />
<path d="M23.5154 1.9947
L23.6364 1.9343
" />
<path d="M24.6040 3.0833
L24.6645 3.1438
" />
<path d="M24.6645 3.1438
L24.6040 3.2043
" />
<path d="M24.6040 3.2043
L24.5435 3.1438
" />
<path d="M24.5435 3.1438
L24.6040 3.0833
" />
<path d="M24.6040 3.0833
L24.6040 3.2043
" />
<path d="M25.7530 2.3576
L25.7530 3.2043
" />
<path d="M25.4506 1.8738
L25.1483 2.7809
" />
<path d="M25.1483 2.7809
L25.9345 2.7809
" />
<path d="M26.4183 3.2043
L26.4183 2.3576
" />
<path d="M26.4183 2.4786
L26.4787 2.4181
" />
<path d="M26.4787 2.4181
L26.5997 2.3576
" />
<path d="M26.5997 2.3576
L26.7811 2.3576
" />
<path d="M26.7811 2.3576
L26.9021 2.4181
" />
<path d="M26.9021 2.4181
L26.9626 2.5390
" />
<path d="M26.9626 2.5390
L26.9626 3.2043
" />
<path d="M26.9626 2.5390
L27.0230 2.4181
" />
<path d="M27.0230 2.4181
L27.1440 2.3576
" />
<path d="M27.1440 2.3576
L27.3254 2.3576
" />
<path d="M27.3254 2.3576
L27.4464 2.4181
" />
<path d="M27.4464 2.4181
L27.5068 2.5390
" />
<path d="M27.5068 2.5390
L27.5068 3.2043
" />
<path d="M28.1116 3.2043
L28.1116 2.3576
" />
<path d="M28.1116 2.4786
L28.1721 2.4181
" />
<path d="M28.1721 2.4181
L28.2930 2.3576
" />
<path d="M28.2930 2.3576
L28.4745 2.3576
" />
<path d="M28.4745 2.3576
L28.5954 2.4181
" />
<path d="M28.5954 2.4181
L28.6559 2.5390
" />
<path d="M28.6559 2.5390
L28.6559 3.2043
" />
<path d="M28.6559 2.5390
L28.7164 2.4181
" />
<path d="M28.7164 2.4181
L28.8373 2.3576
" />
<path d="M28.8373 2.3576
L29.0187 2.3576
" />
<path d="M29.0187 2.3576
L29.1397 2.4181
" />
<path d="M29.1397 2.4181
L29.2002 2.5390
" />
<path d="M29.2002 2.5390
L29.2002 3.2043
" />
<path d="M29.5026 3.3252
L30.4702 3.3252
" />
<path d="M30.7726 2.5390
L31.1959 2.5390
" />
<path d="M31.3773 3.2043
L30.7726 3.2043
" />
<path d="M30.7726 3.2043
L30.7726 1.9343
" />
<path d="M30.7726 1.9343
L31.3773 1.9343
" />
<path d="M31.9216 3.2043
L31.9216 1.9343
" />
<path d="M31.9216 1.9343
L32.4054 1.9343
" />
<path d="M32.4054 1.9343
L32.5264 1.9947
" />
<path d="M32.5264 1.9947
L32.5868 2.0552
" />
<path d="M32.5868 2.0552
L32.6473 2.1762
" />
<path d="M32.6473 2.1762
L32.6473 2.3576
" />
<path d="M32.6473 2.3576
L32.5868 2.4786
" />
<path d="M32.5868 2.4786
L32.5264 2.5390
" />
<path d="M32.5264 2.5390
L32.4054 2.5995
" />
<path d="M32.4054 2.5995
L31.9216 2.5995
" />
<path d="M33.1311 2.0552
L33.1916 1.9947
" />
<path d="M33.1916 1.9947
L33.3126 1.9343
" />
<path d="M33.3126 1.9343
L33.6149 1.9343
" />
<path d="M33.6149 1.9343
L33.7359 1.9947
" />
<path d="M33.7359 1.9947
L33.7964 2.0552
" />
<path d="M33.7964 2.0552
L33.8568 2.1762
" />
<path d="M33.8568 2.1762
L33.8568 2.2971
" />
<path d="M33.8568 2.2971
L33.7964 2.4786
" />
<path d="M33.7964 2.4786
L33.0706 3.2043
" />
<path d="M33.0706 3.2043
L33.8568 3.2043
" />
<path d="M34.4011 3.0833
L34.4616 3.1438
" />
<path d="M34.4616 3.1438
L34.4011 3.2043
" />
<path d="M34.4011 3.2043
L34.3406 3.1438
" />
<path d="M34.3406 3.1438
L34.4011 3.0833
" />
<path d="M34.4011 3.0833
L34.4011 3.2043
" />
<path d="M35.5502 1.9343
L35.3083 1.9343
" />
<path d="M35.3083 1.9343
L35.1873 1.9947
" />
<path d="M35.1873 1.9947
L35.1268 2.0552
" />
<path d="M35.1268 2.0552
L35.0059 2.2367
" />
<path d="M35.0059 2.2367
L34.9454 2.4786
" />
<path d="M34.9454 2.4786
L34.9454 2.9624
" />
<path d="M34.9454 2.9624
L35.0059 3.0833
" />
<path d="M35.0059 3.0833
L35.0664 3.1438
" />
<path d="M35.0664 3.1438
L35.1873 3.2043
" />
<path d="M35.1873 3.2043
L35.4292 3.2043
" />
<path d="M35.4292 3.2043
L35.5502 3.1438
" />
<path d="M35.5502 3.1438
L35.6106 3.0833
" />
<path d="M35.6106 3.0833
L35.6711 2.9624
" />
<path d="M35.6711 2.9624
L35.6711 2.6600
" />
<path d="M35.6711 2.6600
L35.6106 2.5390
" />
<path d="M35.6106 2.5390
L35.5502 2.4786
" />
<path d="M35.5502 2.4786
L35.4292 2.4181
" />
<path d="M35.4292 2.4181
L35.1873 2.4181
" />
<path d="M35.1873 2.4181
L35.0664 2.4786
" />
<path d="M35.0664 2.4786
L35.0059 2.5390
" />
<path d="M35.0059 2.5390
L34.9454 2.6600
" />
<path d="M36.8202 1.9343
L36.2154 1.9343
" />
<path d="M36.2154 1.9343
L36.1549 2.5390
" />
<path d="M36.1549 2.5390
L36.2154 2.4786
" />
<path d="M36.2154 2.4786
L36.3364 2.4181
" />
<path d="M36.3364 2.4181
L36.6387 2.4181
" />
<path d="M36.6387 2.4181
L36.7597 2.4786
" />
<path d="M36.7597 2.4786
L36.8202 2.5390
" />
<path d="M36.8202 2.5390
L36.8806 2.6600
" />
<path d="M36.8806 2.6600
L36.8806 2.9624
" />
<path d="M36.8806 2.9624
L36.8202 3.0833
" />
<path d="M36.8202 3.0833
L36.7597 3.1438
" />
<path d="M36.7597 3.1438
L36.6387 3.2043
" />
<path d="M36.6387 3.2043
L36.3364 3.2043
" />
<path d="M36.3364 3.2043
L36.2154 3.1438
" />
<path d="M36.2154 3.1438
L36.1549 3.0833
" />
<path d="M37.3040 3.2043
L37.9692 2.3576
" />
<path d="M37.3040 2.3576
L37.9692 3.2043
" />
<path d="M38.3926 2.0552
L38.4530 1.9947
" />
<path d="M38.4530 1.9947
L38.5740 1.9343
" />
<path d="M38.5740 1.9343
L38.8764 1.9343
" />
<path d="M38.8764 1.9343
L38.9973 1.9947
" />
<path d="M38.9973 1.9947
L39.0578 2.0552
" />
<path d="M39.0578 2.0552
L39.1183 2.1762
" />
<path d="M39.1183 2.1762
L39.1183 2.2971
" />
<path d="M39.1183 2.2971
L39.0578 2.4786
" />
<path d="M39.0578 2.4786
L38.3321 3.2043
" />
<path d="M38.3321 3.2043
L39.1183 3.2043
" />
<path d="M39.6626 3.0833
L39.7230 3.1438
" />
<path d="M39.7230 3.1438
L39.6626 3.2043
" />
<path d="M39.6626 3.2043
L39.6021 3.1438
" />
<path d="M39.6021 3.1438
L39.6626 3.0833
" />
<path d="M39.6626 3.0833
L39.6626 3.2043
" />
<path d="M40.8116 1.9343
L40.5697 1.9343
" />
<path d="M40.5697 1.9343
L40.4487 1.9947
" />
<path d="M40.4487 1.9947
L40.3883 2.0552
" />
<path d="M40.3883 2.0552
L40.2673 2.2367
" />
<path d="M40.2673 2.2367
L40.2068 2.4786
" />
<path d="M40.2068 2.4786
L40.2068 2.9624
" />
<path d="M40.2068 2.9624
L40.2673 3.0833
" />
<path d="M40.2673 3.0833
L40.3278 3.1438
" />
<path d="M40.3278 3.1438
L40.4487 3.2043
" />
<path d="M40.4487 3.2043
L40.6906 3.2043
" />
<path d="M40.6906 3.2043
L40.8116 3.1438
" />
<path d="M40.8116 3.1438
L40.8721 3.0833
" />
<path d="M40.8721 3.0833
L40.9326 2.9624
" />
<path d="M40.9326 2.9624
L40.9326 2.6600
" />
<path d="M40.9326 2.6600
L40.8721 2.5390
" />
<path d="M40.8721 2.5390
L40.8116 2.4786
" />
<path d="M40.8116 2.4786
L40.6906 2.4181
" />
<path d="M40.6906 2.4181
L40.4487 2.4181
" />
<path d="M40.4487 2.4181
L40.3278 2.4786
" />
<path d="M40.3278 2.4786
L40.2673 2.5390
" />
<path d="M40.2673 2.5390
L40.2068 2.6600
" />
<path d="M42.0816 1.9343
L41.4768 1.9343
" />
<path d="M41.4768 1.9343
L41.4164 2.5390
" />
<path d="M41.4164 2.5390
L41.4768 2.4786
" />
<path d="M41.4768 2.4786
L41.5978 2.4181
" />
<path d="M41.5978 2.4181
L41.9002 2.4181
" />
<path d="M41.9002 2.4181
L42.0211 2.4786
" />
<path d="M42.0211 2.4786
L42.0816 2.5390
" />
<path d="M42.0816 2.5390
L42.1421 2.6600
" />
<path d="M42.1421 2.6600
L42.1421 2.9624
" />
<path d="M42.1421 2.9624
L42.0816 3.0833
" />
<path d="M42.0816 3.0833
L42.0211 3.1438
" />
<path d="M42.0211 3.1438
L41.9002 3.2043
" />
<path d="M41.9002 3.2043
L41.5978 3.2043
" />
<path d="M41.5978 3.2043
L41.4768 3.1438
" />
<path d="M41.4768 3.1438
L41.4164 3.0833
" />
<path d="M42.6864 3.2043
L42.6864 2.3576
" />
<path d="M42.6864 2.4786
L42.7468 2.4181
" />
<path d="M42.7468 2.4181
L42.8678 2.3576
" />
<path d="M42.8678 2.3576
L43.0492 2.3576
" />
<path d="M43.0492 2.3576
L43.1702 2.4181
" />
<path d="M43.1702 2.4181
L43.2306 2.5390
" />
<path d="M43.2306 2.5390
L43.2306 3.2043
" />
<path d="M43.2306 2.5390
L43.2911 2.4181
" />
<path d="M43.2911 2.4181
L43.4121 2.3576
" />
<path d="M43.4121 2.3576
L43.5935 2.3576
" />
<path d="M43.5935 2.3576
L43.7145 2.4181
" />
<path d="M43.7145 2.4181
L43.7749 2.5390
" />
<path d="M43.7749 2.5390
L43.7749 3.2043
" />
<path d="M44.3797 3.2043
L44.3797 2.3576
" />
<path d="M44.3797 2.4786
L44.4402 2.4181
" />
<path d="M44.4402 2.4181
L44.5611 2.3576
" />
<path d="M44.5611 2.3576
L44.7426 2.3576
" />
<path d="M44.7426 2.3576
L44.8635 2.4181
" />
<path d="M44.8635 2.4181
L44.9240 2.5390
" />
<path d="M44.9240 2.5390
L44.9240 3.2043
" />
<path d="M44.9240 2.5390
L44.9845 2.4181
" />
<path d="M44.9845 2.4181
L45.1054 2.3576
" />
<path d="M45.1054 2.3576
L45.2868 2.3576
" />
<path d="M45.2868 2.3576
L45.4078 2.4181
" />
<path d="M45.4078 2.4181
L45.4683 2.5390
" />
<path d="M45.4683 2.5390
L45.4683 3.2043
" />
<path d="M45.7706 3.3252
L46.7383 3.3252
" />
<path d="M46.8592 1.9343
L47.5849 1.9343
" />
<path d="M47.2221 3.2043
L47.2221 1.9343
" />
<path d="M48.0083 3.2043
L48.0083 1.9343
" />
<path d="M48.5526 3.2043
L48.5526 2.5390
" />
<path d="M48.5526 2.5390
L48.4921 2.4181
" />
<path d="M48.4921 2.4181
L48.3711 2.3576
" />
<path d="M48.3711 2.3576
L48.1897 2.3576
" />
<path d="M48.1897 2.3576
L48.0687 2.4181
" />
<path d="M48.0687 2.4181
L48.0083 2.4786
" />
<path d="M49.6411 3.1438
L49.5202 3.2043
" />
<path d="M49.5202 3.2043
L49.2783 3.2043
" />
<path d="M49.2783 3.2043
L49.1573 3.1438
" />
<path d="M49.1573 3.1438
L49.0968 3.0228
" />
<path d="M49.0968 3.0228
L49.0968 2.5390
" />
<path d="M49.0968 2.5390
L49.1573 2.4181
" />
<path d="M49.1573 2.4181
L49.2783 2.3576
" />
<path d="M49.2783 2.3576
L49.5202 2.3576
" />
<path d="M49.5202 2.3576
L49.6411 2.4181
" />
<path d="M49.6411 2.4181
L49.7016 2.5390
" />
<path d="M49.7016 2.5390
L49.7016 2.6600
" />
<path d="M49.7016 2.6600
L49.0968 2.7809
" />
<path d="M50.2459 3.2043
L50.2459 2.3576
" />
<path d="M50.2459 2.5995
L50.3064 2.4786
" />
<path d="M50.3064 2.4786
L50.3668 2.4181
" />
<path d="M50.3668 2.4181
L50.4878 2.3576
" />
<path d="M50.4878 2.3576
L50.6087 2.3576
" />
<path d="M51.0321 3.2043
L51.0321 2.3576
" />
<path d="M51.0321 2.4786
L51.0926 2.4181
" />
<path d="M51.0926 2.4181
L51.2135 2.3576
" />
<path d="M51.2135 2.3576
L51.3949 2.3576
" />
<path d="M51.3949 2.3576
L51.5159 2.4181
" />
<path d="M51.5159 2.4181
L51.5764 2.5390
" />
<path d="M51.5764 2.5390
L51.5764 3.2043
" />
<path d="M51.5764 2.5390
L51.6368 2.4181
" />
<path d="M51.6368 2.4181
L51.7578 2.3576
" />
<path d="M51.7578 2.3576
L51.9392 2.3576
" />
<path d="M51.9392 2.3576
L52.0602 2.4181
" />
<path d="M52.0602 2.4181
L52.1206 2.5390
" />
<path d="M52.1206 2.5390
L52.1206 3.2043
" />
<path d="M53.2697 3.2043
L53.2697 2.5390
" />
<path d="M53.2697 2.5390
L53.2092 2.4181
" />
<path d="M53.2092 2.4181
L53.0883 2.3576
" />
<path d="M53.0883 2.3576
L52.8464 2.3576
" />
<path d="M52.8464 2.3576
L52.7254 2.4181
" />
<path d="M53.2697 3.1438
L53.1487 3.2043
" />
<path d="M53.1487 3.2043
L52.8464 3.2043
" />
<path d="M52.8464 3.2043
L52.7254 3.1438
" />
<path d="M52.7254 3.1438
L52.6649 3.0228
" />
<path d="M52.6649 3.0228
L52.6649 2.9019
" />
<path d="M52.6649 2.9019
L52.7254 2.7809
" />
<path d="M52.7254 2.7809
L52.8464 2.7205
" />
<path d="M52.8464 2.7205
L53.1487 2.7205
" />
<path d="M53.1487 2.7205
L53.2697 2.6600
" />
<path d="M54.0559 3.2043
L53.9349 3.1438
" />
<path d="M53.9349 3.1438
L53.8745 3.0228
" />
<path d="M53.8745 3.0228
L53.8745 1.9343
" />
<path d="M54.3583 1.9343
L54.7816 3.2043
" />
<path d="M54.7816 3.2043
L55.2049 1.9343
" />
<path d="M55.6283 3.2043
L55.6283 2.3576
" />
<path d="M55.6283 1.9343
L55.5678 1.9947
" />
<path d="M55.5678 1.9947
L55.6283 2.0552
" />
<path d="M55.6283 2.0552
L55.6887 1.9947
" />
<path d="M55.6887 1.9947
L55.6283 1.9343
" />
<path d="M55.6283 1.9343
L55.6283 2.0552
" />
<path d="M56.7773 3.2043
L56.7773 2.5390
" />
<path d="M56.7773 2.5390
L56.7168 2.4181
" />
<path d="M56.7168 2.4181
L56.5959 2.3576
" />
<path d="M56.5959 2.3576
L56.3540 2.3576
" />
<path d="M56.3540 2.3576
L56.2330 2.4181
" />
<path d="M56.7773 3.1438
L56.6564 3.2043
" />
<path d="M56.6564 3.2043
L56.3540 3.2043
" />
<path d="M56.3540 3.2043
L56.2330 3.1438
" />
<path d="M56.2330 3.1438
L56.1726 3.0228
" />
<path d="M56.1726 3.0228
L56.1726 2.9019
" />
<path d="M56.1726 2.9019
L56.2330 2.7809
" />
<path d="M56.2330 2.7809
L56.3540 2.7205
" />
<path d="M56.3540 2.7205
L56.6564 2.7205
" />
<path d="M56.6564 2.7205
L56.7773 2.6600
" />
<path d="M57.3216 3.1438
L57.4426 3.2043
" />
<path d="M57.4426 3.2043
L57.6845 3.2043
" />
<path d="M57.6845 3.2043
L57.8054 3.1438
" />
<path d="M57.8054 3.1438
L57.8659 3.0228
" />
<path d="M57.8659 3.0228
L57.8659 2.9624
" />
<path d="M57.8659 2.9624
L57.8054 2.8414
" />
<path d="M57.8054 2.8414
L57.6845 2.7809
" />
<path d="M57.6845 2.7809
L57.5030 2.7809
" />
<path d="M57.5030 2.7809
L57.3821 2.7205
" />
<path d="M57.3821 2.7205
L57.3216 2.5995
" />
<path d="M57.3216 2.5995
L57.3216 2.5390
" />
<path d="M57.3216 2.5390
L57.3821 2.4181
" />
<path d="M57.3821 2.4181
L57.5030 2.3576
" />
<path d="M57.5030 2.3576
L57.6845 2.3576
" />
<path d="M57.6845 2.3576
L57.8054 2.4181
" />
</g></g>
<g style="fill:none; 
stroke:#AFAFAF; stroke-width:0.1500; stroke-opacity:1; 
stroke-linecap:round; stroke-linejoin:round;">
<text x="29.1095" y="3.1250"
textLength="4.5357" font-size="1.3333" lengthAdjust="spacingAndGlyphs"
text-anchor="middle" opacity="0">REF**</text>
<g class="stroked-text"><desc>REF**</desc>
<path d="M27.7761 3.0798
L27.4428 2.6036
" />
<path d="M27.2047 3.0798
L27.2047 2.0798
" />
<path d="M27.2047 2.0798
L27.5856 2.0798
" />
<path d="M27.5856 2.0798
L27.6809 2.1274
" />
<path d="M27.6809 2.1274
L27.7285 2.1751
" />
<path d="M27.7285 2.1751
L27.7761 2.2703
" />
<path d="M27.7761 2.2703
L27.7761 2.4132
" />
<path d="M27.7761 2.4132
L27.7285 2.5084
" />
<path d="M27.7285 2.5084
L27.6809 2.5560
" />
<path d="M27.6809 2.5560
L27.5856 2.6036
" />
<path d="M27.5856 2.6036
L27.2047 2.6036
" />
<path d="M28.2047 2.5560
L28.5380 2.5560
" />
<path d="M28.6809 3.0798
L28.2047 3.0798
" />
<path d="M28.2047 3.0798
L28.2047 2.0798
" />
<path d="M28.2047 2.0798
L28.6809 2.0798
" />
<path d="M29.4428 2.5560
L29.1095 2.5560
" />
<path d="M29.1095 3.0798
L29.1095 2.0798
" />
<path d="M29.1095 2.0798
L29.5856 2.0798
" />
<path d="M30.1095 2.0798
L30.1095 2.3179
" />
<path d="M29.8714 2.2227
L30.1095 2.3179
" />
<path d="M30.1095 2.3179
L30.3476 2.2227
" />
<path d="M29.9666 2.5084
L30.1095 2.3179
" />
<path d="M30.1095 2.3179
L30.2523 2.5084
" />
<path d="M30.8714 2.0798
L30.8714 2.3179
" />
<path d="M30.6333 2.2227
L30.8714 2.3179
" />
<path d="M30.8714 2.3179
L31.1095 2.2227
" />
<path d="M30.7285 2.5084
L30.8714 2.3179
" />
<path d="M30.8714 2.3179
L31.0142 2.5084
" />
</g></g>
<g style="fill:none; 
stroke:#AFAFAF; stroke-width:0.1000; stroke-opacity:1; 
stroke-linecap:round; stroke-linejoin:round;">
<path d="M27.1095 1.6250
L28.1095 0.6250
" />
<path d="M27.1095 4.6250
L27.1095 1.6250
" />
<path d="M28.1095 0.6250
L31.1095 0.6250
" />
<path d="M31.1095 0.6250
L31.1095 4.6250
" />
<path d="M31.1095 4.6250
L27.1095 4.6250
" />
</g> 
</svg>
