<?xml version="1.0" standalone="no"?>
 <!DOCTYPE svg PUBLIC "-//W3C//DTD SVG 1.1//EN" 
 "http://www.w3.org/Graphics/SVG/1.1/DTD/svg11.dtd"> 
<svg
  xmlns:svg="http://www.w3.org/2000/svg"
  xmlns="http://www.w3.org/2000/svg"
  xmlns:xlink="http://www.w3.org/1999/xlink"
  version="1.1"
  width="39.5224mm" height="21.0312mm" viewBox="0.0000 0.0000 39.5224 21.0312">
<title>SVG Image created as working-brd.svg date 2024/04/21 10:35:56 </title>
  <desc>Image generated by PCBNEW </desc>
<g style="fill:#000000; fill-opacity:1.0000;stroke:#000000; stroke-opacity:1.0000;
stroke-linecap:round; stroke-linejoin:round;"
 transform="translate(0 0) scale(1 1)">
<path style="fill:#C83434; fill-opacity:1.0000; stroke:none;fill-rule:evenodd;"
d="M 15.1559,2.4350
15.1559,0.8350
16.7559,0.8350
16.7559,2.4350
Z" /> 
<path style="fill:#C83434; fill-opacity:1.0000; stroke:none;fill-rule:evenodd;"
d="M 15.1559,4.9750
15.1559,3.3750
16.7559,3.3750
16.7559,4.9750
Z" /> 
<path style="fill:#C83434; fill-opacity:1.0000; stroke:none;fill-rule:evenodd;"
d="M 15.1559,7.5150
15.1559,5.9150
16.7559,5.9150
16.7559,7.5150
Z" /> 
<path style="fill:#C83434; fill-opacity:1.0000; stroke:none;fill-rule:evenodd;"
d="M 15.1559,10.0550
15.1559,8.4550
16.7559,8.4550
16.7559,10.0550
Z" /> 
<path style="fill:#C83434; fill-opacity:1.0000; stroke:none;fill-rule:evenodd;"
d="M 15.1559,12.5950
15.1559,10.9950
16.7559,10.9950
16.7559,12.5950
Z" /> 
<path style="fill:#C83434; fill-opacity:1.0000; stroke:none;fill-rule:evenodd;"
d="M 15.1559,15.1350
15.1559,13.5350
16.7559,13.5350
16.7559,15.1350
Z" /> 
<path style="fill:#C83434; fill-opacity:1.0000; stroke:none;fill-rule:evenodd;"
d="M 15.1559,17.6750
15.1559,16.0750
16.7559,16.0750
16.7559,17.6750
Z" /> 
<path style="fill:#C83434; fill-opacity:1.0000; stroke:none;fill-rule:evenodd;"
d="M 15.1559,20.2150
15.1559,18.6150
16.7559,18.6150
16.7559,20.2150
Z" /> 
<path style="fill:#C83434; fill-opacity:1.0000; stroke:none;fill-rule:evenodd;"
d="M 22.7759,20.2150
22.7759,18.6150
24.3759,18.6150
24.3759,20.2150
Z" /> 
<path style="fill:#C83434; fill-opacity:1.0000; stroke:none;fill-rule:evenodd;"
d="M 22.7759,17.6750
22.7759,16.0750
24.3759,16.0750
24.3759,17.6750
Z" /> 
<path style="fill:#C83434; fill-opacity:1.0000; stroke:none;fill-rule:evenodd;"
d="M 22.7759,15.1350
22.7759,13.5350
24.3759,13.5350
24.3759,15.1350
Z" /> 
<path style="fill:#C83434; fill-opacity:1.0000; stroke:none;fill-rule:evenodd;"
d="M 22.7759,12.5950
22.7759,10.9950
24.3759,10.9950
24.3759,12.5950
Z" /> 
<path style="fill:#C83434; fill-opacity:1.0000; stroke:none;fill-rule:evenodd;"
d="M 22.7759,10.0550
22.7759,8.4550
24.3759,8.4550
24.3759,10.0550
Z" /> 
<path style="fill:#C83434; fill-opacity:1.0000; stroke:none;fill-rule:evenodd;"
d="M 22.7759,7.5150
22.7759,5.9150
24.3759,5.9150
24.3759,7.5150
Z" /> 
<path style="fill:#C83434; fill-opacity:1.0000; stroke:none;fill-rule:evenodd;"
d="M 22.7759,4.9750
22.7759,3.3750
24.3759,3.3750
24.3759,4.9750
Z" /> 
<path style="fill:#C83434; fill-opacity:1.0000; stroke:none;fill-rule:evenodd;"
d="M 22.7759,2.4350
22.7759,0.8350
24.3759,0.8350
24.3759,2.4350
Z" /> 
<path style="fill:#D864FF; fill-opacity:0.4000; stroke:none;fill-rule:evenodd;"
d="M 15.1559,2.4350
15.1559,0.8350
16.7559,0.8350
16.7559,2.4350
Z" /> 
<path style="fill:#D864FF; fill-opacity:0.4000; stroke:none;fill-rule:evenodd;"
d="M 15.1559,4.9750
15.1559,3.3750
16.7559,3.3750
16.7559,4.9750
Z" /> 
<path style="fill:#D864FF; fill-opacity:0.4000; stroke:none;fill-rule:evenodd;"
d="M 15.1559,7.5150
15.1559,5.9150
16.7559,5.9150
16.7559,7.5150
Z" /> 
<path style="fill:#D864FF; fill-opacity:0.4000; stroke:none;fill-rule:evenodd;"
d="M 15.1559,10.0550
15.1559,8.4550
16.7559,8.4550
16.7559,10.0550
Z" /> 
<path style="fill:#D864FF; fill-opacity:0.4000; stroke:none;fill-rule:evenodd;"
d="M 15.1559,12.5950
15.1559,10.9950
16.7559,10.9950
16.7559,12.5950
Z" /> 
<path style="fill:#D864FF; fill-opacity:0.4000; stroke:none;fill-rule:evenodd;"
d="M 15.1559,15.1350
15.1559,13.5350
16.7559,13.5350
16.7559,15.1350
Z" /> 
<path style="fill:#D864FF; fill-opacity:0.4000; stroke:none;fill-rule:evenodd;"
d="M 15.1559,17.6750
15.1559,16.0750
16.7559,16.0750
16.7559,17.6750
Z" /> 
<path style="fill:#D864FF; fill-opacity:0.4000; stroke:none;fill-rule:evenodd;"
d="M 15.1559,20.2150
15.1559,18.6150
16.7559,18.6150
16.7559,20.2150
Z" /> 
<path style="fill:#D864FF; fill-opacity:0.4000; stroke:none;fill-rule:evenodd;"
d="M 22.7759,20.2150
22.7759,18.6150
24.3759,18.6150
24.3759,20.2150
Z" /> 
<path style="fill:#D864FF; fill-opacity:0.4000; stroke:none;fill-rule:evenodd;"
d="M 22.7759,17.6750
22.7759,16.0750
24.3759,16.0750
24.3759,17.6750
Z" /> 
<path style="fill:#D864FF; fill-opacity:0.4000; stroke:none;fill-rule:evenodd;"
d="M 22.7759,15.1350
22.7759,13.5350
24.3759,13.5350
24.3759,15.1350
Z" /> 
<path style="fill:#D864FF; fill-opacity:0.4000; stroke:none;fill-rule:evenodd;"
d="M 22.7759,12.5950
22.7759,10.9950
24.3759,10.9950
24.3759,12.5950
Z" /> 
<path style="fill:#D864FF; fill-opacity:0.4000; stroke:none;fill-rule:evenodd;"
d="M 22.7759,10.0550
22.7759,8.4550
24.3759,8.4550
24.3759,10.0550
Z" /> 
<path style="fill:#D864FF; fill-opacity:0.4000; stroke:none;fill-rule:evenodd;"
d="M 22.7759,7.5150
22.7759,5.9150
24.3759,5.9150
24.3759,7.5150
Z" /> 
<path style="fill:#D864FF; fill-opacity:0.4000; stroke:none;fill-rule:evenodd;"
d="M 22.7759,4.9750
22.7759,3.3750
24.3759,3.3750
24.3759,4.9750
Z" /> 
<path style="fill:#D864FF; fill-opacity:0.4000; stroke:none;fill-rule:evenodd;"
d="M 22.7759,2.4350
22.7759,0.8350
24.3759,0.8350
24.3759,2.4350
Z" /> 
<path style="fill:#B4A09A; fill-opacity:0.9000; stroke:none;fill-rule:evenodd;"
d="M 15.1559,2.4350
15.1559,0.8350
16.7559,0.8350
16.7559,2.4350
Z" /> 
<path style="fill:#B4A09A; fill-opacity:0.9000; stroke:none;fill-rule:evenodd;"
d="M 15.1559,4.9750
15.1559,3.3750
16.7559,3.3750
16.7559,4.9750
Z" /> 
<path style="fill:#B4A09A; fill-opacity:0.9000; stroke:none;fill-rule:evenodd;"
d="M 15.1559,7.5150
15.1559,5.9150
16.7559,5.9150
16.7559,7.5150
Z" /> 
<path style="fill:#B4A09A; fill-opacity:0.9000; stroke:none;fill-rule:evenodd;"
d="M 15.1559,10.0550
15.1559,8.4550
16.7559,8.4550
16.7559,10.0550
Z" /> 
<path style="fill:#B4A09A; fill-opacity:0.9000; stroke:none;fill-rule:evenodd;"
d="M 15.1559,12.5950
15.1559,10.9950
16.7559,10.9950
16.7559,12.5950
Z" /> 
<path style="fill:#B4A09A; fill-opacity:0.9000; stroke:none;fill-rule:evenodd;"
d="M 15.1559,15.1350
15.1559,13.5350
16.7559,13.5350
16.7559,15.1350
Z" /> 
<path style="fill:#B4A09A; fill-opacity:0.9000; stroke:none;fill-rule:evenodd;"
d="M 15.1559,17.6750
15.1559,16.0750
16.7559,16.0750
16.7559,17.6750
Z" /> 
<path style="fill:#B4A09A; fill-opacity:0.9000; stroke:none;fill-rule:evenodd;"
d="M 15.1559,20.2150
15.1559,18.6150
16.7559,18.6150
16.7559,20.2150
Z" /> 
<path style="fill:#B4A09A; fill-opacity:0.9000; stroke:none;fill-rule:evenodd;"
d="M 22.7759,20.2150
22.7759,18.6150
24.3759,18.6150
24.3759,20.2150
Z" /> 
<path style="fill:#B4A09A; fill-opacity:0.9000; stroke:none;fill-rule:evenodd;"
d="M 22.7759,17.6750
22.7759,16.0750
24.3759,16.0750
24.3759,17.6750
Z" /> 
<path style="fill:#B4A09A; fill-opacity:0.9000; stroke:none;fill-rule:evenodd;"
d="M 22.7759,15.1350
22.7759,13.5350
24.3759,13.5350
24.3759,15.1350
Z" /> 
<path style="fill:#B4A09A; fill-opacity:0.9000; stroke:none;fill-rule:evenodd;"
d="M 22.7759,12.5950
22.7759,10.9950
24.3759,10.9950
24.3759,12.5950
Z" /> 
<path style="fill:#B4A09A; fill-opacity:0.9000; stroke:none;fill-rule:evenodd;"
d="M 22.7759,10.0550
22.7759,8.4550
24.3759,8.4550
24.3759,10.0550
Z" /> 
<path style="fill:#B4A09A; fill-opacity:0.9000; stroke:none;fill-rule:evenodd;"
d="M 22.7759,7.5150
22.7759,5.9150
24.3759,5.9150
24.3759,7.5150
Z" /> 
<path style="fill:#B4A09A; fill-opacity:0.9000; stroke:none;fill-rule:evenodd;"
d="M 22.7759,4.9750
22.7759,3.3750
24.3759,3.3750
24.3759,4.9750
Z" /> 
<path style="fill:#B4A09A; fill-opacity:0.9000; stroke:none;fill-rule:evenodd;"
d="M 22.7759,2.4350
22.7759,0.8350
24.3759,0.8350
24.3759,2.4350
Z" /> 
</g>
<g style="fill:none; 
stroke:#F2EDA1; stroke-width:0.1588; stroke-opacity:1; 
stroke-linecap:round; stroke-linejoin:round;">
<text x="19.7659" y="11.1600"
textLength="5.6651" font-size="1.6933" lengthAdjust="spacingAndGlyphs"
text-anchor="middle" opacity="0">REF**</text>
<g class="stroked-text"><desc>REF**</desc>
<path d="M18.0726 11.1043
L17.6492 10.4995
" />
<path d="M17.3468 11.1043
L17.3468 9.8343
" />
<path d="M17.3468 9.8343
L17.8306 9.8343
" />
<path d="M17.8306 9.8343
L17.9516 9.8947
" />
<path d="M17.9516 9.8947
L18.0121 9.9552
" />
<path d="M18.0121 9.9552
L18.0726 10.0762
" />
<path d="M18.0726 10.0762
L18.0726 10.2576
" />
<path d="M18.0726 10.2576
L18.0121 10.3786
" />
<path d="M18.0121 10.3786
L17.9516 10.4390
" />
<path d="M17.9516 10.4390
L17.8306 10.4995
" />
<path d="M17.8306 10.4995
L17.3468 10.4995
" />
<path d="M18.6168 10.4390
L19.0402 10.4390
" />
<path d="M19.2216 11.1043
L18.6168 11.1043
" />
<path d="M18.6168 11.1043
L18.6168 9.8343
" />
<path d="M18.6168 9.8343
L19.2216 9.8343
" />
<path d="M20.1892 10.4390
L19.7659 10.4390
" />
<path d="M19.7659 11.1043
L19.7659 9.8343
" />
<path d="M19.7659 9.8343
L20.3706 9.8343
" />
<path d="M21.0359 9.8343
L21.0359 10.1367
" />
<path d="M20.7335 10.0157
L21.0359 10.1367
" />
<path d="M21.0359 10.1367
L21.3383 10.0157
" />
<path d="M20.8545 10.3786
L21.0359 10.1367
" />
<path d="M21.0359 10.1367
L21.2173 10.3786
" />
<path d="M22.0035 9.8343
L22.0035 10.1367
" />
<path d="M21.7011 10.0157
L22.0035 10.1367
" />
<path d="M22.0035 10.1367
L22.3059 10.0157
" />
<path d="M21.8221 10.3786
L22.0035 10.1367
" />
<path d="M22.0035 10.1367
L22.1849 10.3786
" />
</g></g>
<g style="fill:none; 
stroke:#F2EDA1; stroke-width:0.1200; stroke-opacity:1; 
stroke-linecap:round; stroke-linejoin:round;">
<path d="M14.6259 0.2450
L14.6259 20.8050
" />
<path d="M14.6259 20.8050
L24.9059 20.8050
" />
<path d="M17.1159 0.3050
L17.1159 20.7450
" />
<path d="M17.1159 20.7450
L22.4159 20.7450
" />
<path d="M18.7659 0.3050
L17.1159 0.3050
" />
<path d="M22.4159 0.3050
L20.7659 0.3050
" />
<path d="M22.4159 20.7450
L22.4159 0.3050
" />
<path d="M24.9059 0.2450
L14.6259 0.2450
" />
<path d="M24.9059 20.8050
L24.9059 0.2450
" />
<path d="M18.7659 0.3050 A1.0000 1.0000 0.0 0 0 20.7659 0.3050" />
</g>
<g style="fill:none; 
stroke:#FF26E2; stroke-width:0.0500; stroke-opacity:1; 
stroke-linecap:round; stroke-linejoin:round;">
<path d="M14.4159 0.0250
L14.4159 21.0250
" />
<path d="M14.4159 21.0250
L25.1159 21.0250
" />
<path d="M25.1159 0.0250
L14.4159 0.0250
" />
<path d="M25.1159 21.0250
L25.1159 0.0250
" />
</g>
<g style="fill:none; 
stroke:#AFAFAF; stroke-width:0.1588; stroke-opacity:1; 
stroke-linecap:round; stroke-linejoin:round;">
<text x="19.7659" y="11.1600"
textLength="39.5318" font-size="1.6933" lengthAdjust="spacingAndGlyphs"
text-anchor="middle" opacity="0">DIP-16_W7.62mm_SMDSocket_SmallPads</text>
<g class="stroked-text"><desc>DIP-16_W7.62mm_SMDSocket_SmallPads</desc>
<path d="M0.4135 11.1043
L0.4135 9.8343
" />
<path d="M0.4135 9.8343
L0.7159 9.8343
" />
<path d="M0.7159 9.8343
L0.8973 9.8947
" />
<path d="M0.8973 9.8947
L1.0183 10.0157
" />
<path d="M1.0183 10.0157
L1.0787 10.1367
" />
<path d="M1.0787 10.1367
L1.1392 10.3786
" />
<path d="M1.1392 10.3786
L1.1392 10.5600
" />
<path d="M1.1392 10.5600
L1.0787 10.8019
" />
<path d="M1.0787 10.8019
L1.0183 10.9228
" />
<path d="M1.0183 10.9228
L0.8973 11.0438
" />
<path d="M0.8973 11.0438
L0.7159 11.1043
" />
<path d="M0.7159 11.1043
L0.4135 11.1043
" />
<path d="M1.6835 11.1043
L1.6835 9.8343
" />
<path d="M2.2883 11.1043
L2.2883 9.8343
" />
<path d="M2.2883 9.8343
L2.7721 9.8343
" />
<path d="M2.7721 9.8343
L2.8930 9.8947
" />
<path d="M2.8930 9.8947
L2.9535 9.9552
" />
<path d="M2.9535 9.9552
L3.0140 10.0762
" />
<path d="M3.0140 10.0762
L3.0140 10.2576
" />
<path d="M3.0140 10.2576
L2.9535 10.3786
" />
<path d="M2.9535 10.3786
L2.8930 10.4390
" />
<path d="M2.8930 10.4390
L2.7721 10.4995
" />
<path d="M2.7721 10.4995
L2.2883 10.4995
" />
<path d="M3.5583 10.6205
L4.5259 10.6205
" />
<path d="M5.7959 11.1043
L5.0702 11.1043
" />
<path d="M5.4330 11.1043
L5.4330 9.8343
" />
<path d="M5.4330 9.8343
L5.3121 10.0157
" />
<path d="M5.3121 10.0157
L5.1911 10.1367
" />
<path d="M5.1911 10.1367
L5.0702 10.1971
" />
<path d="M6.8845 9.8343
L6.6426 9.8343
" />
<path d="M6.6426 9.8343
L6.5216 9.8947
" />
<path d="M6.5216 9.8947
L6.4611 9.9552
" />
<path d="M6.4611 9.9552
L6.3402 10.1367
" />
<path d="M6.3402 10.1367
L6.2797 10.3786
" />
<path d="M6.2797 10.3786
L6.2797 10.8624
" />
<path d="M6.2797 10.8624
L6.3402 10.9833
" />
<path d="M6.3402 10.9833
L6.4006 11.0438
" />
<path d="M6.4006 11.0438
L6.5216 11.1043
" />
<path d="M6.5216 11.1043
L6.7635 11.1043
" />
<path d="M6.7635 11.1043
L6.8845 11.0438
" />
<path d="M6.8845 11.0438
L6.9449 10.9833
" />
<path d="M6.9449 10.9833
L7.0054 10.8624
" />
<path d="M7.0054 10.8624
L7.0054 10.5600
" />
<path d="M7.0054 10.5600
L6.9449 10.4390
" />
<path d="M6.9449 10.4390
L6.8845 10.3786
" />
<path d="M6.8845 10.3786
L6.7635 10.3181
" />
<path d="M6.7635 10.3181
L6.5216 10.3181
" />
<path d="M6.5216 10.3181
L6.4006 10.3786
" />
<path d="M6.4006 10.3786
L6.3402 10.4390
" />
<path d="M6.3402 10.4390
L6.2797 10.5600
" />
<path d="M7.2473 11.2252
L8.2149 11.2252
" />
<path d="M8.3964 9.8343
L8.6987 11.1043
" />
<path d="M8.6987 11.1043
L8.9406 10.1971
" />
<path d="M8.9406 10.1971
L9.1826 11.1043
" />
<path d="M9.1826 11.1043
L9.4849 9.8343
" />
<path d="M9.8478 9.8343
L10.6945 9.8343
" />
<path d="M10.6945 9.8343
L10.1502 11.1043
" />
<path d="M11.1783 10.9833
L11.2387 11.0438
" />
<path d="M11.2387 11.0438
L11.1783 11.1043
" />
<path d="M11.1783 11.1043
L11.1178 11.0438
" />
<path d="M11.1178 11.0438
L11.1783 10.9833
" />
<path d="M11.1783 10.9833
L11.1783 11.1043
" />
<path d="M12.3273 9.8343
L12.0854 9.8343
" />
<path d="M12.0854 9.8343
L11.9645 9.8947
" />
<path d="M11.9645 9.8947
L11.9040 9.9552
" />
<path d="M11.9040 9.9552
L11.7830 10.1367
" />
<path d="M11.7830 10.1367
L11.7226 10.3786
" />
<path d="M11.7226 10.3786
L11.7226 10.8624
" />
<path d="M11.7226 10.8624
L11.7830 10.9833
" />
<path d="M11.7830 10.9833
L11.8435 11.0438
" />
<path d="M11.8435 11.0438
L11.9645 11.1043
" />
<path d="M11.9645 11.1043
L12.2064 11.1043
" />
<path d="M12.2064 11.1043
L12.3273 11.0438
" />
<path d="M12.3273 11.0438
L12.3878 10.9833
" />
<path d="M12.3878 10.9833
L12.4483 10.8624
" />
<path d="M12.4483 10.8624
L12.4483 10.5600
" />
<path d="M12.4483 10.5600
L12.3878 10.4390
" />
<path d="M12.3878 10.4390
L12.3273 10.3786
" />
<path d="M12.3273 10.3786
L12.2064 10.3181
" />
<path d="M12.2064 10.3181
L11.9645 10.3181
" />
<path d="M11.9645 10.3181
L11.8435 10.3786
" />
<path d="M11.8435 10.3786
L11.7830 10.4390
" />
<path d="M11.7830 10.4390
L11.7226 10.5600
" />
<path d="M12.9321 9.9552
L12.9926 9.8947
" />
<path d="M12.9926 9.8947
L13.1135 9.8343
" />
<path d="M13.1135 9.8343
L13.4159 9.8343
" />
<path d="M13.4159 9.8343
L13.5368 9.8947
" />
<path d="M13.5368 9.8947
L13.5973 9.9552
" />
<path d="M13.5973 9.9552
L13.6578 10.0762
" />
<path d="M13.6578 10.0762
L13.6578 10.1971
" />
<path d="M13.6578 10.1971
L13.5973 10.3786
" />
<path d="M13.5973 10.3786
L12.8716 11.1043
" />
<path d="M12.8716 11.1043
L13.6578 11.1043
" />
<path d="M14.2021 11.1043
L14.2021 10.2576
" />
<path d="M14.2021 10.3786
L14.2626 10.3181
" />
<path d="M14.2626 10.3181
L14.3835 10.2576
" />
<path d="M14.3835 10.2576
L14.5649 10.2576
" />
<path d="M14.5649 10.2576
L14.6859 10.3181
" />
<path d="M14.6859 10.3181
L14.7464 10.4390
" />
<path d="M14.7464 10.4390
L14.7464 11.1043
" />
<path d="M14.7464 10.4390
L14.8068 10.3181
" />
<path d="M14.8068 10.3181
L14.9278 10.2576
" />
<path d="M14.9278 10.2576
L15.1092 10.2576
" />
<path d="M15.1092 10.2576
L15.2302 10.3181
" />
<path d="M15.2302 10.3181
L15.2907 10.4390
" />
<path d="M15.2907 10.4390
L15.2907 11.1043
" />
<path d="M15.8954 11.1043
L15.8954 10.2576
" />
<path d="M15.8954 10.3786
L15.9559 10.3181
" />
<path d="M15.9559 10.3181
L16.0768 10.2576
" />
<path d="M16.0768 10.2576
L16.2583 10.2576
" />
<path d="M16.2583 10.2576
L16.3792 10.3181
" />
<path d="M16.3792 10.3181
L16.4397 10.4390
" />
<path d="M16.4397 10.4390
L16.4397 11.1043
" />
<path d="M16.4397 10.4390
L16.5002 10.3181
" />
<path d="M16.5002 10.3181
L16.6211 10.2576
" />
<path d="M16.6211 10.2576
L16.8026 10.2576
" />
<path d="M16.8026 10.2576
L16.9235 10.3181
" />
<path d="M16.9235 10.3181
L16.9840 10.4390
" />
<path d="M16.9840 10.4390
L16.9840 11.1043
" />
<path d="M17.2864 11.2252
L18.2540 11.2252
" />
<path d="M18.4959 11.0438
L18.6773 11.1043
" />
<path d="M18.6773 11.1043
L18.9797 11.1043
" />
<path d="M18.9797 11.1043
L19.1006 11.0438
" />
<path d="M19.1006 11.0438
L19.1611 10.9833
" />
<path d="M19.1611 10.9833
L19.2216 10.8624
" />
<path d="M19.2216 10.8624
L19.2216 10.7414
" />
<path d="M19.2216 10.7414
L19.1611 10.6205
" />
<path d="M19.1611 10.6205
L19.1006 10.5600
" />
<path d="M19.1006 10.5600
L18.9797 10.4995
" />
<path d="M18.9797 10.4995
L18.7378 10.4390
" />
<path d="M18.7378 10.4390
L18.6168 10.3786
" />
<path d="M18.6168 10.3786
L18.5564 10.3181
" />
<path d="M18.5564 10.3181
L18.4959 10.1971
" />
<path d="M18.4959 10.1971
L18.4959 10.0762
" />
<path d="M18.4959 10.0762
L18.5564 9.9552
" />
<path d="M18.5564 9.9552
L18.6168 9.8947
" />
<path d="M18.6168 9.8947
L18.7378 9.8343
" />
<path d="M18.7378 9.8343
L19.0402 9.8343
" />
<path d="M19.0402 9.8343
L19.2216 9.8947
" />
<path d="M19.7659 11.1043
L19.7659 9.8343
" />
<path d="M19.7659 9.8343
L20.1892 10.7414
" />
<path d="M20.1892 10.7414
L20.6126 9.8343
" />
<path d="M20.6126 9.8343
L20.6126 11.1043
" />
<path d="M21.2173 11.1043
L21.2173 9.8343
" />
<path d="M21.2173 9.8343
L21.5197 9.8343
" />
<path d="M21.5197 9.8343
L21.7011 9.8947
" />
<path d="M21.7011 9.8947
L21.8221 10.0157
" />
<path d="M21.8221 10.0157
L21.8826 10.1367
" />
<path d="M21.8826 10.1367
L21.9430 10.3786
" />
<path d="M21.9430 10.3786
L21.9430 10.5600
" />
<path d="M21.9430 10.5600
L21.8826 10.8019
" />
<path d="M21.8826 10.8019
L21.8221 10.9228
" />
<path d="M21.8221 10.9228
L21.7011 11.0438
" />
<path d="M21.7011 11.0438
L21.5197 11.1043
" />
<path d="M21.5197 11.1043
L21.2173 11.1043
" />
<path d="M22.4268 11.0438
L22.6083 11.1043
" />
<path d="M22.6083 11.1043
L22.9107 11.1043
" />
<path d="M22.9107 11.1043
L23.0316 11.0438
" />
<path d="M23.0316 11.0438
L23.0921 10.9833
" />
<path d="M23.0921 10.9833
L23.1526 10.8624
" />
<path d="M23.1526 10.8624
L23.1526 10.7414
" />
<path d="M23.1526 10.7414
L23.0921 10.6205
" />
<path d="M23.0921 10.6205
L23.0316 10.5600
" />
<path d="M23.0316 10.5600
L22.9107 10.4995
" />
<path d="M22.9107 10.4995
L22.6687 10.4390
" />
<path d="M22.6687 10.4390
L22.5478 10.3786
" />
<path d="M22.5478 10.3786
L22.4873 10.3181
" />
<path d="M22.4873 10.3181
L22.4268 10.1971
" />
<path d="M22.4268 10.1971
L22.4268 10.0762
" />
<path d="M22.4268 10.0762
L22.4873 9.9552
" />
<path d="M22.4873 9.9552
L22.5478 9.8947
" />
<path d="M22.5478 9.8947
L22.6687 9.8343
" />
<path d="M22.6687 9.8343
L22.9711 9.8343
" />
<path d="M22.9711 9.8343
L23.1526 9.8947
" />
<path d="M23.8783 11.1043
L23.7573 11.0438
" />
<path d="M23.7573 11.0438
L23.6968 10.9833
" />
<path d="M23.6968 10.9833
L23.6364 10.8624
" />
<path d="M23.6364 10.8624
L23.6364 10.4995
" />
<path d="M23.6364 10.4995
L23.6968 10.3786
" />
<path d="M23.6968 10.3786
L23.7573 10.3181
" />
<path d="M23.7573 10.3181
L23.8783 10.2576
" />
<path d="M23.8783 10.2576
L24.0597 10.2576
" />
<path d="M24.0597 10.2576
L24.1806 10.3181
" />
<path d="M24.1806 10.3181
L24.2411 10.3786
" />
<path d="M24.2411 10.3786
L24.3016 10.4995
" />
<path d="M24.3016 10.4995
L24.3016 10.8624
" />
<path d="M24.3016 10.8624
L24.2411 10.9833
" />
<path d="M24.2411 10.9833
L24.1806 11.0438
" />
<path d="M24.1806 11.0438
L24.0597 11.1043
" />
<path d="M24.0597 11.1043
L23.8783 11.1043
" />
<path d="M25.3902 11.0438
L25.2692 11.1043
" />
<path d="M25.2692 11.1043
L25.0273 11.1043
" />
<path d="M25.0273 11.1043
L24.9064 11.0438
" />
<path d="M24.9064 11.0438
L24.8459 10.9833
" />
<path d="M24.8459 10.9833
L24.7854 10.8624
" />
<path d="M24.7854 10.8624
L24.7854 10.4995
" />
<path d="M24.7854 10.4995
L24.8459 10.3786
" />
<path d="M24.8459 10.3786
L24.9064 10.3181
" />
<path d="M24.9064 10.3181
L25.0273 10.2576
" />
<path d="M25.0273 10.2576
L25.2692 10.2576
" />
<path d="M25.2692 10.2576
L25.3902 10.3181
" />
<path d="M25.9345 11.1043
L25.9345 9.8343
" />
<path d="M26.0554 10.6205
L26.4183 11.1043
" />
<path d="M26.4183 10.2576
L25.9345 10.7414
" />
<path d="M27.4464 11.0438
L27.3254 11.1043
" />
<path d="M27.3254 11.1043
L27.0835 11.1043
" />
<path d="M27.0835 11.1043
L26.9626 11.0438
" />
<path d="M26.9626 11.0438
L26.9021 10.9228
" />
<path d="M26.9021 10.9228
L26.9021 10.4390
" />
<path d="M26.9021 10.4390
L26.9626 10.3181
" />
<path d="M26.9626 10.3181
L27.0835 10.2576
" />
<path d="M27.0835 10.2576
L27.3254 10.2576
" />
<path d="M27.3254 10.2576
L27.4464 10.3181
" />
<path d="M27.4464 10.3181
L27.5068 10.4390
" />
<path d="M27.5068 10.4390
L27.5068 10.5600
" />
<path d="M27.5068 10.5600
L26.9021 10.6809
" />
<path d="M27.8697 10.2576
L28.3535 10.2576
" />
<path d="M28.0511 9.8343
L28.0511 10.9228
" />
<path d="M28.0511 10.9228
L28.1116 11.0438
" />
<path d="M28.1116 11.0438
L28.2326 11.1043
" />
<path d="M28.2326 11.1043
L28.3535 11.1043
" />
<path d="M28.4745 11.2252
L29.4421 11.2252
" />
<path d="M29.6840 11.0438
L29.8654 11.1043
" />
<path d="M29.8654 11.1043
L30.1678 11.1043
" />
<path d="M30.1678 11.1043
L30.2887 11.0438
" />
<path d="M30.2887 11.0438
L30.3492 10.9833
" />
<path d="M30.3492 10.9833
L30.4097 10.8624
" />
<path d="M30.4097 10.8624
L30.4097 10.7414
" />
<path d="M30.4097 10.7414
L30.3492 10.6205
" />
<path d="M30.3492 10.6205
L30.2887 10.5600
" />
<path d="M30.2887 10.5600
L30.1678 10.4995
" />
<path d="M30.1678 10.4995
L29.9259 10.4390
" />
<path d="M29.9259 10.4390
L29.8049 10.3786
" />
<path d="M29.8049 10.3786
L29.7445 10.3181
" />
<path d="M29.7445 10.3181
L29.6840 10.1971
" />
<path d="M29.6840 10.1971
L29.6840 10.0762
" />
<path d="M29.6840 10.0762
L29.7445 9.9552
" />
<path d="M29.7445 9.9552
L29.8049 9.8947
" />
<path d="M29.8049 9.8947
L29.9259 9.8343
" />
<path d="M29.9259 9.8343
L30.2283 9.8343
" />
<path d="M30.2283 9.8343
L30.4097 9.8947
" />
<path d="M30.9540 11.1043
L30.9540 10.2576
" />
<path d="M30.9540 10.3786
L31.0145 10.3181
" />
<path d="M31.0145 10.3181
L31.1354 10.2576
" />
<path d="M31.1354 10.2576
L31.3168 10.2576
" />
<path d="M31.3168 10.2576
L31.4378 10.3181
" />
<path d="M31.4378 10.3181
L31.4983 10.4390
" />
<path d="M31.4983 10.4390
L31.4983 11.1043
" />
<path d="M31.4983 10.4390
L31.5587 10.3181
" />
<path d="M31.5587 10.3181
L31.6797 10.2576
" />
<path d="M31.6797 10.2576
L31.8611 10.2576
" />
<path d="M31.8611 10.2576
L31.9821 10.3181
" />
<path d="M31.9821 10.3181
L32.0426 10.4390
" />
<path d="M32.0426 10.4390
L32.0426 11.1043
" />
<path d="M33.1916 11.1043
L33.1916 10.4390
" />
<path d="M33.1916 10.4390
L33.1311 10.3181
" />
<path d="M33.1311 10.3181
L33.0102 10.2576
" />
<path d="M33.0102 10.2576
L32.7683 10.2576
" />
<path d="M32.7683 10.2576
L32.6473 10.3181
" />
<path d="M33.1916 11.0438
L33.0706 11.1043
" />
<path d="M33.0706 11.1043
L32.7683 11.1043
" />
<path d="M32.7683 11.1043
L32.6473 11.0438
" />
<path d="M32.6473 11.0438
L32.5868 10.9228
" />
<path d="M32.5868 10.9228
L32.5868 10.8019
" />
<path d="M32.5868 10.8019
L32.6473 10.6809
" />
<path d="M32.6473 10.6809
L32.7683 10.6205
" />
<path d="M32.7683 10.6205
L33.0706 10.6205
" />
<path d="M33.0706 10.6205
L33.1916 10.5600
" />
<path d="M33.9778 11.1043
L33.8568 11.0438
" />
<path d="M33.8568 11.0438
L33.7964 10.9228
" />
<path d="M33.7964 10.9228
L33.7964 9.8343
" />
<path d="M34.6430 11.1043
L34.5221 11.0438
" />
<path d="M34.5221 11.0438
L34.4616 10.9228
" />
<path d="M34.4616 10.9228
L34.4616 9.8343
" />
<path d="M35.1268 11.1043
L35.1268 9.8343
" />
<path d="M35.1268 9.8343
L35.6106 9.8343
" />
<path d="M35.6106 9.8343
L35.7316 9.8947
" />
<path d="M35.7316 9.8947
L35.7921 9.9552
" />
<path d="M35.7921 9.9552
L35.8526 10.0762
" />
<path d="M35.8526 10.0762
L35.8526 10.2576
" />
<path d="M35.8526 10.2576
L35.7921 10.3786
" />
<path d="M35.7921 10.3786
L35.7316 10.4390
" />
<path d="M35.7316 10.4390
L35.6106 10.4995
" />
<path d="M35.6106 10.4995
L35.1268 10.4995
" />
<path d="M36.9411 11.1043
L36.9411 10.4390
" />
<path d="M36.9411 10.4390
L36.8806 10.3181
" />
<path d="M36.8806 10.3181
L36.7597 10.2576
" />
<path d="M36.7597 10.2576
L36.5178 10.2576
" />
<path d="M36.5178 10.2576
L36.3968 10.3181
" />
<path d="M36.9411 11.0438
L36.8202 11.1043
" />
<path d="M36.8202 11.1043
L36.5178 11.1043
" />
<path d="M36.5178 11.1043
L36.3968 11.0438
" />
<path d="M36.3968 11.0438
L36.3364 10.9228
" />
<path d="M36.3364 10.9228
L36.3364 10.8019
" />
<path d="M36.3364 10.8019
L36.3968 10.6809
" />
<path d="M36.3968 10.6809
L36.5178 10.6205
" />
<path d="M36.5178 10.6205
L36.8202 10.6205
" />
<path d="M36.8202 10.6205
L36.9411 10.5600
" />
<path d="M38.0902 11.1043
L38.0902 9.8343
" />
<path d="M38.0902 11.0438
L37.9692 11.1043
" />
<path d="M37.9692 11.1043
L37.7273 11.1043
" />
<path d="M37.7273 11.1043
L37.6064 11.0438
" />
<path d="M37.6064 11.0438
L37.5459 10.9833
" />
<path d="M37.5459 10.9833
L37.4854 10.8624
" />
<path d="M37.4854 10.8624
L37.4854 10.4995
" />
<path d="M37.4854 10.4995
L37.5459 10.3786
" />
<path d="M37.5459 10.3786
L37.6064 10.3181
" />
<path d="M37.6064 10.3181
L37.7273 10.2576
" />
<path d="M37.7273 10.2576
L37.9692 10.2576
" />
<path d="M37.9692 10.2576
L38.0902 10.3181
" />
<path d="M38.6345 11.0438
L38.7554 11.1043
" />
<path d="M38.7554 11.1043
L38.9973 11.1043
" />
<path d="M38.9973 11.1043
L39.1183 11.0438
" />
<path d="M39.1183 11.0438
L39.1787 10.9228
" />
<path d="M39.1787 10.9228
L39.1787 10.8624
" />
<path d="M39.1787 10.8624
L39.1183 10.7414
" />
<path d="M39.1183 10.7414
L38.9973 10.6809
" />
<path d="M38.9973 10.6809
L38.8159 10.6809
" />
<path d="M38.8159 10.6809
L38.6949 10.6205
" />
<path d="M38.6949 10.6205
L38.6345 10.4995
" />
<path d="M38.6345 10.4995
L38.6345 10.4390
" />
<path d="M38.6345 10.4390
L38.6949 10.3181
" />
<path d="M38.6949 10.3181
L38.8159 10.2576
" />
<path d="M38.8159 10.2576
L38.9973 10.2576
" />
<path d="M38.9973 10.2576
L39.1183 10.3181
" />
</g></g>
<g style="fill:none; 
stroke:#AFAFAF; stroke-width:0.1500; stroke-opacity:1; 
stroke-linecap:round; stroke-linejoin:round;">
<text x="19.7659" y="11.0250"
textLength="4.5357" font-size="1.3333" lengthAdjust="spacingAndGlyphs"
text-anchor="middle" opacity="0">REF**</text>
<g class="stroked-text"><desc>REF**</desc>
<path d="M18.4326 10.9798
L18.0992 10.5036
" />
<path d="M17.8611 10.9798
L17.8611 9.9798
" />
<path d="M17.8611 9.9798
L18.2421 9.9798
" />
<path d="M18.2421 9.9798
L18.3373 10.0274
" />
<path d="M18.3373 10.0274
L18.3849 10.0751
" />
<path d="M18.3849 10.0751
L18.4326 10.1703
" />
<path d="M18.4326 10.1703
L18.4326 10.3132
" />
<path d="M18.4326 10.3132
L18.3849 10.4084
" />
<path d="M18.3849 10.4084
L18.3373 10.4560
" />
<path d="M18.3373 10.4560
L18.2421 10.5036
" />
<path d="M18.2421 10.5036
L17.8611 10.5036
" />
<path d="M18.8611 10.4560
L19.1945 10.4560
" />
<path d="M19.3373 10.9798
L18.8611 10.9798
" />
<path d="M18.8611 10.9798
L18.8611 9.9798
" />
<path d="M18.8611 9.9798
L19.3373 9.9798
" />
<path d="M20.0992 10.4560
L19.7659 10.4560
" />
<path d="M19.7659 10.9798
L19.7659 9.9798
" />
<path d="M19.7659 9.9798
L20.2421 9.9798
" />
<path d="M20.7659 9.9798
L20.7659 10.2179
" />
<path d="M20.5278 10.1227
L20.7659 10.2179
" />
<path d="M20.7659 10.2179
L21.0040 10.1227
" />
<path d="M20.6230 10.4084
L20.7659 10.2179
" />
<path d="M20.7659 10.2179
L20.9087 10.4084
" />
<path d="M21.5278 9.9798
L21.5278 10.2179
" />
<path d="M21.2897 10.1227
L21.5278 10.2179
" />
<path d="M21.5278 10.2179
L21.7659 10.1227
" />
<path d="M21.3849 10.4084
L21.5278 10.2179
" />
<path d="M21.5278 10.2179
L21.6706 10.4084
" />
</g></g>
<g style="fill:none; 
stroke:#AFAFAF; stroke-width:0.1000; stroke-opacity:1; 
stroke-linecap:round; stroke-linejoin:round;">
<path d="M14.6859 0.3050
L14.6859 20.7450
" />
<path d="M14.6859 20.7450
L24.8459 20.7450
" />
<path d="M16.5909 1.3650
L17.5909 0.3650
" />
<path d="M16.5909 20.6850
L16.5909 1.3650
" />
<path d="M17.5909 0.3650
L22.9409 0.3650
" />
<path d="M22.9409 0.3650
L22.9409 20.6850
" />
<path d="M22.9409 20.6850
L16.5909 20.6850
" />
<path d="M24.8459 0.3050
L14.6859 0.3050
" />
<path d="M24.8459 20.7450
L24.8459 0.3050
" />
</g> 
</svg>
