<?xml version="1.0" standalone="no"?>
 <!DOCTYPE svg PUBLIC "-//W3C//DTD SVG 1.1//EN" 
 "http://www.w3.org/Graphics/SVG/1.1/DTD/svg11.dtd"> 
<svg
  xmlns:svg="http://www.w3.org/2000/svg"
  xmlns="http://www.w3.org/2000/svg"
  xmlns:xlink="http://www.w3.org/1999/xlink"
  version="1.1"
  width="62.6110mm" height="6.0452mm" viewBox="0.0000 0.0000 62.6110 6.0452">
<title>SVG Image created as working-brd.svg date 2024/04/06 09:41:49 </title>
  <desc>Image generated by PCBNEW </desc>
<g style="fill:#000000; fill-opacity:1.0000;stroke:#000000; stroke-opacity:1.0000;
stroke-linecap:round; stroke-linejoin:round;"
 transform="translate(0 0) scale(1 1)">
<path style="fill:#C83434; fill-opacity:1.0000; stroke:none;fill-rule:evenodd;"
d="M 28.0568,5.7750
28.0568,3.5250
29.3768,3.5250
29.3768,5.7750
Z" /> 
<path style="fill:#C83434; fill-opacity:1.0000; stroke:none;fill-rule:evenodd;"
d="M 33.2568,5.7750
33.2568,3.5250
34.5768,3.5250
34.5768,5.7750
Z" /> 
<path style="fill:#C83434; fill-opacity:1.0000; stroke:none;fill-rule:evenodd;"
d="M 33.2568,2.5250
33.2568,0.2750
34.5768,0.2750
34.5768,2.5250
Z" /> 
<path style="fill:#C83434; fill-opacity:1.0000; stroke:none;fill-rule:evenodd;"
d="M 28.0568,2.5250
28.0568,0.2750
29.3768,0.2750
29.3768,2.5250
Z" /> 
<path style="fill:#D864FF; fill-opacity:0.4000; stroke:none;fill-rule:evenodd;"
d="M 28.0568,5.7750
28.0568,3.5250
29.3768,3.5250
29.3768,5.7750
Z" /> 
<path style="fill:#D864FF; fill-opacity:0.4000; stroke:none;fill-rule:evenodd;"
d="M 33.2568,5.7750
33.2568,3.5250
34.5768,3.5250
34.5768,5.7750
Z" /> 
<path style="fill:#D864FF; fill-opacity:0.4000; stroke:none;fill-rule:evenodd;"
d="M 33.2568,2.5250
33.2568,0.2750
34.5768,0.2750
34.5768,2.5250
Z" /> 
<path style="fill:#D864FF; fill-opacity:0.4000; stroke:none;fill-rule:evenodd;"
d="M 28.0568,2.5250
28.0568,0.2750
29.3768,0.2750
29.3768,2.5250
Z" /> 
<path style="fill:#B4A09A; fill-opacity:0.9000; stroke:none;fill-rule:evenodd;"
d="M 28.0568,5.7750
28.0568,3.5250
29.3768,3.5250
29.3768,5.7750
Z" /> 
<path style="fill:#B4A09A; fill-opacity:0.9000; stroke:none;fill-rule:evenodd;"
d="M 33.2568,5.7750
33.2568,3.5250
34.5768,3.5250
34.5768,5.7750
Z" /> 
<path style="fill:#B4A09A; fill-opacity:0.9000; stroke:none;fill-rule:evenodd;"
d="M 33.2568,2.5250
33.2568,0.2750
34.5768,0.2750
34.5768,2.5250
Z" /> 
<path style="fill:#B4A09A; fill-opacity:0.9000; stroke:none;fill-rule:evenodd;"
d="M 28.0568,2.5250
28.0568,0.2750
29.3768,0.2750
29.3768,2.5250
Z" /> 
</g>
<g style="fill:none; 
stroke:#F2EDA1; stroke-width:0.1588; stroke-opacity:1; 
stroke-linecap:round; stroke-linejoin:round;">
<text x="31.3168" y="3.6600"
textLength="5.6651" font-size="1.6933" lengthAdjust="spacingAndGlyphs"
text-anchor="middle" opacity="0">REF**</text>
<g class="stroked-text"><desc>REF**</desc>
<path d="M29.6235 3.6043
L29.2002 2.9995
" />
<path d="M28.8978 3.6043
L28.8978 2.3343
" />
<path d="M28.8978 2.3343
L29.3816 2.3343
" />
<path d="M29.3816 2.3343
L29.5026 2.3947
" />
<path d="M29.5026 2.3947
L29.5630 2.4552
" />
<path d="M29.5630 2.4552
L29.6235 2.5762
" />
<path d="M29.6235 2.5762
L29.6235 2.7576
" />
<path d="M29.6235 2.7576
L29.5630 2.8786
" />
<path d="M29.5630 2.8786
L29.5026 2.9390
" />
<path d="M29.5026 2.9390
L29.3816 2.9995
" />
<path d="M29.3816 2.9995
L28.8978 2.9995
" />
<path d="M30.1678 2.9390
L30.5911 2.9390
" />
<path d="M30.7726 3.6043
L30.1678 3.6043
" />
<path d="M30.1678 3.6043
L30.1678 2.3343
" />
<path d="M30.1678 2.3343
L30.7726 2.3343
" />
<path d="M31.7402 2.9390
L31.3168 2.9390
" />
<path d="M31.3168 3.6043
L31.3168 2.3343
" />
<path d="M31.3168 2.3343
L31.9216 2.3343
" />
<path d="M32.5868 2.3343
L32.5868 2.6367
" />
<path d="M32.2845 2.5157
L32.5868 2.6367
" />
<path d="M32.5868 2.6367
L32.8892 2.5157
" />
<path d="M32.4054 2.8786
L32.5868 2.6367
" />
<path d="M32.5868 2.6367
L32.7683 2.8786
" />
<path d="M33.5545 2.3343
L33.5545 2.6367
" />
<path d="M33.2521 2.5157
L33.5545 2.6367
" />
<path d="M33.5545 2.6367
L33.8568 2.5157
" />
<path d="M33.3730 2.8786
L33.5545 2.6367
" />
<path d="M33.5545 2.6367
L33.7359 2.8786
" />
</g></g>
<g style="fill:none; 
stroke:#F2EDA1; stroke-width:0.1200; stroke-opacity:1; 
stroke-linecap:round; stroke-linejoin:round;">
<path d="M27.5668 1.5750
L27.8568 1.5750
" />
<path d="M27.5668 2.5250
L27.5668 1.5750
" />
<path d="M27.5668 4.4750
L27.5668 3.5250
" />
<path d="M27.5668 4.4750
L27.8568 4.4750
" />
<path d="M29.5768 1.5750
L33.0568 1.5750
" />
<path d="M33.0568 4.4750
L29.5768 4.4750
" />
<path d="M34.7768 1.5750
L35.0668 1.5750
" />
<path d="M35.0668 1.5750
L35.0668 4.4750
" />
<path d="M35.0668 4.4750
L34.7768 4.4750
" />
<path d="M27.5668 3.5250 A0.5000 0.5000 0.0 0 0 27.5668 2.5250" />
</g>
<g style="fill:none; 
stroke:#FF26E2; stroke-width:0.0500; stroke-opacity:1; 
stroke-linecap:round; stroke-linejoin:round;">
<path d="M27.5168 0.0250
L27.5168 6.0250
" />
<path d="M27.5168 6.0250
L35.1168 6.0250
" />
<path d="M35.1168 0.0250
L27.5168 0.0250
" />
<path d="M35.1168 6.0250
L35.1168 0.0250
" />
</g>
<g style="fill:none; 
stroke:#AFAFAF; stroke-width:0.1588; stroke-opacity:1; 
stroke-linecap:round; stroke-linejoin:round;">
<text x="31.3168" y="3.6600"
textLength="62.6337" font-size="1.6933" lengthAdjust="spacingAndGlyphs"
text-anchor="middle" opacity="0">Crystal_SMD_SeikoEpson_MC156-4Pin_7.1x2.5mm_HandSoldering</text>
<g class="stroked-text"><desc>Crystal_SMD_SeikoEpson_MC156-4Pin_7.1x2.5mm_HandSoldering</desc>
<path d="M1.1392 3.4833
L1.0787 3.5438
" />
<path d="M1.0787 3.5438
L0.8973 3.6043
" />
<path d="M0.8973 3.6043
L0.7764 3.6043
" />
<path d="M0.7764 3.6043
L0.5949 3.5438
" />
<path d="M0.5949 3.5438
L0.4740 3.4228
" />
<path d="M0.4740 3.4228
L0.4135 3.3019
" />
<path d="M0.4135 3.3019
L0.3530 3.0600
" />
<path d="M0.3530 3.0600
L0.3530 2.8786
" />
<path d="M0.3530 2.8786
L0.4135 2.6367
" />
<path d="M0.4135 2.6367
L0.4740 2.5157
" />
<path d="M0.4740 2.5157
L0.5949 2.3947
" />
<path d="M0.5949 2.3947
L0.7764 2.3343
" />
<path d="M0.7764 2.3343
L0.8973 2.3343
" />
<path d="M0.8973 2.3343
L1.0787 2.3947
" />
<path d="M1.0787 2.3947
L1.1392 2.4552
" />
<path d="M1.6835 3.6043
L1.6835 2.7576
" />
<path d="M1.6835 2.9995
L1.7440 2.8786
" />
<path d="M1.7440 2.8786
L1.8045 2.8181
" />
<path d="M1.8045 2.8181
L1.9254 2.7576
" />
<path d="M1.9254 2.7576
L2.0464 2.7576
" />
<path d="M2.3487 2.7576
L2.6511 3.6043
" />
<path d="M2.9535 2.7576
L2.6511 3.6043
" />
<path d="M2.6511 3.6043
L2.5302 3.9067
" />
<path d="M2.5302 3.9067
L2.4697 3.9671
" />
<path d="M2.4697 3.9671
L2.3487 4.0276
" />
<path d="M3.3768 3.5438
L3.4978 3.6043
" />
<path d="M3.4978 3.6043
L3.7397 3.6043
" />
<path d="M3.7397 3.6043
L3.8606 3.5438
" />
<path d="M3.8606 3.5438
L3.9211 3.4228
" />
<path d="M3.9211 3.4228
L3.9211 3.3624
" />
<path d="M3.9211 3.3624
L3.8606 3.2414
" />
<path d="M3.8606 3.2414
L3.7397 3.1809
" />
<path d="M3.7397 3.1809
L3.5583 3.1809
" />
<path d="M3.5583 3.1809
L3.4373 3.1205
" />
<path d="M3.4373 3.1205
L3.3768 2.9995
" />
<path d="M3.3768 2.9995
L3.3768 2.9390
" />
<path d="M3.3768 2.9390
L3.4373 2.8181
" />
<path d="M3.4373 2.8181
L3.5583 2.7576
" />
<path d="M3.5583 2.7576
L3.7397 2.7576
" />
<path d="M3.7397 2.7576
L3.8606 2.8181
" />
<path d="M4.2840 2.7576
L4.7678 2.7576
" />
<path d="M4.4654 2.3343
L4.4654 3.4228
" />
<path d="M4.4654 3.4228
L4.5259 3.5438
" />
<path d="M4.5259 3.5438
L4.6468 3.6043
" />
<path d="M4.6468 3.6043
L4.7678 3.6043
" />
<path d="M5.7354 3.6043
L5.7354 2.9390
" />
<path d="M5.7354 2.9390
L5.6749 2.8181
" />
<path d="M5.6749 2.8181
L5.5540 2.7576
" />
<path d="M5.5540 2.7576
L5.3121 2.7576
" />
<path d="M5.3121 2.7576
L5.1911 2.8181
" />
<path d="M5.7354 3.5438
L5.6145 3.6043
" />
<path d="M5.6145 3.6043
L5.3121 3.6043
" />
<path d="M5.3121 3.6043
L5.1911 3.5438
" />
<path d="M5.1911 3.5438
L5.1306 3.4228
" />
<path d="M5.1306 3.4228
L5.1306 3.3019
" />
<path d="M5.1306 3.3019
L5.1911 3.1809
" />
<path d="M5.1911 3.1809
L5.3121 3.1205
" />
<path d="M5.3121 3.1205
L5.6145 3.1205
" />
<path d="M5.6145 3.1205
L5.7354 3.0600
" />
<path d="M6.5216 3.6043
L6.4006 3.5438
" />
<path d="M6.4006 3.5438
L6.3402 3.4228
" />
<path d="M6.3402 3.4228
L6.3402 2.3343
" />
<path d="M6.7030 3.7252
L7.6706 3.7252
" />
<path d="M7.9126 3.5438
L8.0940 3.6043
" />
<path d="M8.0940 3.6043
L8.3964 3.6043
" />
<path d="M8.3964 3.6043
L8.5173 3.5438
" />
<path d="M8.5173 3.5438
L8.5778 3.4833
" />
<path d="M8.5778 3.4833
L8.6383 3.3624
" />
<path d="M8.6383 3.3624
L8.6383 3.2414
" />
<path d="M8.6383 3.2414
L8.5778 3.1205
" />
<path d="M8.5778 3.1205
L8.5173 3.0600
" />
<path d="M8.5173 3.0600
L8.3964 2.9995
" />
<path d="M8.3964 2.9995
L8.1545 2.9390
" />
<path d="M8.1545 2.9390
L8.0335 2.8786
" />
<path d="M8.0335 2.8786
L7.9730 2.8181
" />
<path d="M7.9730 2.8181
L7.9126 2.6971
" />
<path d="M7.9126 2.6971
L7.9126 2.5762
" />
<path d="M7.9126 2.5762
L7.9730 2.4552
" />
<path d="M7.9730 2.4552
L8.0335 2.3947
" />
<path d="M8.0335 2.3947
L8.1545 2.3343
" />
<path d="M8.1545 2.3343
L8.4568 2.3343
" />
<path d="M8.4568 2.3343
L8.6383 2.3947
" />
<path d="M9.1826 3.6043
L9.1826 2.3343
" />
<path d="M9.1826 2.3343
L9.6059 3.2414
" />
<path d="M9.6059 3.2414
L10.0292 2.3343
" />
<path d="M10.0292 2.3343
L10.0292 3.6043
" />
<path d="M10.6340 3.6043
L10.6340 2.3343
" />
<path d="M10.6340 2.3343
L10.9364 2.3343
" />
<path d="M10.9364 2.3343
L11.1178 2.3947
" />
<path d="M11.1178 2.3947
L11.2387 2.5157
" />
<path d="M11.2387 2.5157
L11.2992 2.6367
" />
<path d="M11.2992 2.6367
L11.3597 2.8786
" />
<path d="M11.3597 2.8786
L11.3597 3.0600
" />
<path d="M11.3597 3.0600
L11.2992 3.3019
" />
<path d="M11.2992 3.3019
L11.2387 3.4228
" />
<path d="M11.2387 3.4228
L11.1178 3.5438
" />
<path d="M11.1178 3.5438
L10.9364 3.6043
" />
<path d="M10.9364 3.6043
L10.6340 3.6043
" />
<path d="M11.6016 3.7252
L12.5692 3.7252
" />
<path d="M12.8111 3.5438
L12.9926 3.6043
" />
<path d="M12.9926 3.6043
L13.2949 3.6043
" />
<path d="M13.2949 3.6043
L13.4159 3.5438
" />
<path d="M13.4159 3.5438
L13.4764 3.4833
" />
<path d="M13.4764 3.4833
L13.5368 3.3624
" />
<path d="M13.5368 3.3624
L13.5368 3.2414
" />
<path d="M13.5368 3.2414
L13.4764 3.1205
" />
<path d="M13.4764 3.1205
L13.4159 3.0600
" />
<path d="M13.4159 3.0600
L13.2949 2.9995
" />
<path d="M13.2949 2.9995
L13.0530 2.9390
" />
<path d="M13.0530 2.9390
L12.9321 2.8786
" />
<path d="M12.9321 2.8786
L12.8716 2.8181
" />
<path d="M12.8716 2.8181
L12.8111 2.6971
" />
<path d="M12.8111 2.6971
L12.8111 2.5762
" />
<path d="M12.8111 2.5762
L12.8716 2.4552
" />
<path d="M12.8716 2.4552
L12.9321 2.3947
" />
<path d="M12.9321 2.3947
L13.0530 2.3343
" />
<path d="M13.0530 2.3343
L13.3554 2.3343
" />
<path d="M13.3554 2.3343
L13.5368 2.3947
" />
<path d="M14.5649 3.5438
L14.4440 3.6043
" />
<path d="M14.4440 3.6043
L14.2021 3.6043
" />
<path d="M14.2021 3.6043
L14.0811 3.5438
" />
<path d="M14.0811 3.5438
L14.0206 3.4228
" />
<path d="M14.0206 3.4228
L14.0206 2.9390
" />
<path d="M14.0206 2.9390
L14.0811 2.8181
" />
<path d="M14.0811 2.8181
L14.2021 2.7576
" />
<path d="M14.2021 2.7576
L14.4440 2.7576
" />
<path d="M14.4440 2.7576
L14.5649 2.8181
" />
<path d="M14.5649 2.8181
L14.6254 2.9390
" />
<path d="M14.6254 2.9390
L14.6254 3.0600
" />
<path d="M14.6254 3.0600
L14.0206 3.1809
" />
<path d="M15.1697 3.6043
L15.1697 2.7576
" />
<path d="M15.1697 2.3343
L15.1092 2.3947
" />
<path d="M15.1092 2.3947
L15.1697 2.4552
" />
<path d="M15.1697 2.4552
L15.2302 2.3947
" />
<path d="M15.2302 2.3947
L15.1697 2.3343
" />
<path d="M15.1697 2.3343
L15.1697 2.4552
" />
<path d="M15.7745 3.6043
L15.7745 2.3343
" />
<path d="M15.8954 3.1205
L16.2583 3.6043
" />
<path d="M16.2583 2.7576
L15.7745 3.2414
" />
<path d="M16.9840 3.6043
L16.8630 3.5438
" />
<path d="M16.8630 3.5438
L16.8026 3.4833
" />
<path d="M16.8026 3.4833
L16.7421 3.3624
" />
<path d="M16.7421 3.3624
L16.7421 2.9995
" />
<path d="M16.7421 2.9995
L16.8026 2.8786
" />
<path d="M16.8026 2.8786
L16.8630 2.8181
" />
<path d="M16.8630 2.8181
L16.9840 2.7576
" />
<path d="M16.9840 2.7576
L17.1654 2.7576
" />
<path d="M17.1654 2.7576
L17.2864 2.8181
" />
<path d="M17.2864 2.8181
L17.3468 2.8786
" />
<path d="M17.3468 2.8786
L17.4073 2.9995
" />
<path d="M17.4073 2.9995
L17.4073 3.3624
" />
<path d="M17.4073 3.3624
L17.3468 3.4833
" />
<path d="M17.3468 3.4833
L17.2864 3.5438
" />
<path d="M17.2864 3.5438
L17.1654 3.6043
" />
<path d="M17.1654 3.6043
L16.9840 3.6043
" />
<path d="M17.9516 2.9390
L18.3749 2.9390
" />
<path d="M18.5564 3.6043
L17.9516 3.6043
" />
<path d="M17.9516 3.6043
L17.9516 2.3343
" />
<path d="M17.9516 2.3343
L18.5564 2.3343
" />
<path d="M19.1006 2.7576
L19.1006 4.0276
" />
<path d="M19.1006 2.8181
L19.2216 2.7576
" />
<path d="M19.2216 2.7576
L19.4635 2.7576
" />
<path d="M19.4635 2.7576
L19.5845 2.8181
" />
<path d="M19.5845 2.8181
L19.6449 2.8786
" />
<path d="M19.6449 2.8786
L19.7054 2.9995
" />
<path d="M19.7054 2.9995
L19.7054 3.3624
" />
<path d="M19.7054 3.3624
L19.6449 3.4833
" />
<path d="M19.6449 3.4833
L19.5845 3.5438
" />
<path d="M19.5845 3.5438
L19.4635 3.6043
" />
<path d="M19.4635 3.6043
L19.2216 3.6043
" />
<path d="M19.2216 3.6043
L19.1006 3.5438
" />
<path d="M20.1892 3.5438
L20.3102 3.6043
" />
<path d="M20.3102 3.6043
L20.5521 3.6043
" />
<path d="M20.5521 3.6043
L20.6730 3.5438
" />
<path d="M20.6730 3.5438
L20.7335 3.4228
" />
<path d="M20.7335 3.4228
L20.7335 3.3624
" />
<path d="M20.7335 3.3624
L20.6730 3.2414
" />
<path d="M20.6730 3.2414
L20.5521 3.1809
" />
<path d="M20.5521 3.1809
L20.3706 3.1809
" />
<path d="M20.3706 3.1809
L20.2497 3.1205
" />
<path d="M20.2497 3.1205
L20.1892 2.9995
" />
<path d="M20.1892 2.9995
L20.1892 2.9390
" />
<path d="M20.1892 2.9390
L20.2497 2.8181
" />
<path d="M20.2497 2.8181
L20.3706 2.7576
" />
<path d="M20.3706 2.7576
L20.5521 2.7576
" />
<path d="M20.5521 2.7576
L20.6730 2.8181
" />
<path d="M21.4592 3.6043
L21.3383 3.5438
" />
<path d="M21.3383 3.5438
L21.2778 3.4833
" />
<path d="M21.2778 3.4833
L21.2173 3.3624
" />
<path d="M21.2173 3.3624
L21.2173 2.9995
" />
<path d="M21.2173 2.9995
L21.2778 2.8786
" />
<path d="M21.2778 2.8786
L21.3383 2.8181
" />
<path d="M21.3383 2.8181
L21.4592 2.7576
" />
<path d="M21.4592 2.7576
L21.6406 2.7576
" />
<path d="M21.6406 2.7576
L21.7616 2.8181
" />
<path d="M21.7616 2.8181
L21.8221 2.8786
" />
<path d="M21.8221 2.8786
L21.8826 2.9995
" />
<path d="M21.8826 2.9995
L21.8826 3.3624
" />
<path d="M21.8826 3.3624
L21.8221 3.4833
" />
<path d="M21.8221 3.4833
L21.7616 3.5438
" />
<path d="M21.7616 3.5438
L21.6406 3.6043
" />
<path d="M21.6406 3.6043
L21.4592 3.6043
" />
<path d="M22.4268 2.7576
L22.4268 3.6043
" />
<path d="M22.4268 2.8786
L22.4873 2.8181
" />
<path d="M22.4873 2.8181
L22.6083 2.7576
" />
<path d="M22.6083 2.7576
L22.7897 2.7576
" />
<path d="M22.7897 2.7576
L22.9107 2.8181
" />
<path d="M22.9107 2.8181
L22.9711 2.9390
" />
<path d="M22.9711 2.9390
L22.9711 3.6043
" />
<path d="M23.2735 3.7252
L24.2411 3.7252
" />
<path d="M24.5435 3.6043
L24.5435 2.3343
" />
<path d="M24.5435 2.3343
L24.9668 3.2414
" />
<path d="M24.9668 3.2414
L25.3902 2.3343
" />
<path d="M25.3902 2.3343
L25.3902 3.6043
" />
<path d="M26.7207 3.4833
L26.6602 3.5438
" />
<path d="M26.6602 3.5438
L26.4787 3.6043
" />
<path d="M26.4787 3.6043
L26.3578 3.6043
" />
<path d="M26.3578 3.6043
L26.1764 3.5438
" />
<path d="M26.1764 3.5438
L26.0554 3.4228
" />
<path d="M26.0554 3.4228
L25.9949 3.3019
" />
<path d="M25.9949 3.3019
L25.9345 3.0600
" />
<path d="M25.9345 3.0600
L25.9345 2.8786
" />
<path d="M25.9345 2.8786
L25.9949 2.6367
" />
<path d="M25.9949 2.6367
L26.0554 2.5157
" />
<path d="M26.0554 2.5157
L26.1764 2.3947
" />
<path d="M26.1764 2.3947
L26.3578 2.3343
" />
<path d="M26.3578 2.3343
L26.4787 2.3343
" />
<path d="M26.4787 2.3343
L26.6602 2.3947
" />
<path d="M26.6602 2.3947
L26.7207 2.4552
" />
<path d="M27.9302 3.6043
L27.2045 3.6043
" />
<path d="M27.5673 3.6043
L27.5673 2.3343
" />
<path d="M27.5673 2.3343
L27.4464 2.5157
" />
<path d="M27.4464 2.5157
L27.3254 2.6367
" />
<path d="M27.3254 2.6367
L27.2045 2.6971
" />
<path d="M29.0792 2.3343
L28.4745 2.3343
" />
<path d="M28.4745 2.3343
L28.4140 2.9390
" />
<path d="M28.4140 2.9390
L28.4745 2.8786
" />
<path d="M28.4745 2.8786
L28.5954 2.8181
" />
<path d="M28.5954 2.8181
L28.8978 2.8181
" />
<path d="M28.8978 2.8181
L29.0187 2.8786
" />
<path d="M29.0187 2.8786
L29.0792 2.9390
" />
<path d="M29.0792 2.9390
L29.1397 3.0600
" />
<path d="M29.1397 3.0600
L29.1397 3.3624
" />
<path d="M29.1397 3.3624
L29.0792 3.4833
" />
<path d="M29.0792 3.4833
L29.0187 3.5438
" />
<path d="M29.0187 3.5438
L28.8978 3.6043
" />
<path d="M28.8978 3.6043
L28.5954 3.6043
" />
<path d="M28.5954 3.6043
L28.4745 3.5438
" />
<path d="M28.4745 3.5438
L28.4140 3.4833
" />
<path d="M30.2283 2.3343
L29.9864 2.3343
" />
<path d="M29.9864 2.3343
L29.8654 2.3947
" />
<path d="M29.8654 2.3947
L29.8049 2.4552
" />
<path d="M29.8049 2.4552
L29.6840 2.6367
" />
<path d="M29.6840 2.6367
L29.6235 2.8786
" />
<path d="M29.6235 2.8786
L29.6235 3.3624
" />
<path d="M29.6235 3.3624
L29.6840 3.4833
" />
<path d="M29.6840 3.4833
L29.7445 3.5438
" />
<path d="M29.7445 3.5438
L29.8654 3.6043
" />
<path d="M29.8654 3.6043
L30.1073 3.6043
" />
<path d="M30.1073 3.6043
L30.2283 3.5438
" />
<path d="M30.2283 3.5438
L30.2887 3.4833
" />
<path d="M30.2887 3.4833
L30.3492 3.3624
" />
<path d="M30.3492 3.3624
L30.3492 3.0600
" />
<path d="M30.3492 3.0600
L30.2887 2.9390
" />
<path d="M30.2887 2.9390
L30.2283 2.8786
" />
<path d="M30.2283 2.8786
L30.1073 2.8181
" />
<path d="M30.1073 2.8181
L29.8654 2.8181
" />
<path d="M29.8654 2.8181
L29.7445 2.8786
" />
<path d="M29.7445 2.8786
L29.6840 2.9390
" />
<path d="M29.6840 2.9390
L29.6235 3.0600
" />
<path d="M30.8935 3.1205
L31.8611 3.1205
" />
<path d="M33.0102 2.7576
L33.0102 3.6043
" />
<path d="M32.7078 2.2738
L32.4054 3.1809
" />
<path d="M32.4054 3.1809
L33.1916 3.1809
" />
<path d="M33.6754 3.6043
L33.6754 2.3343
" />
<path d="M33.6754 2.3343
L34.1592 2.3343
" />
<path d="M34.1592 2.3343
L34.2802 2.3947
" />
<path d="M34.2802 2.3947
L34.3407 2.4552
" />
<path d="M34.3407 2.4552
L34.4011 2.5762
" />
<path d="M34.4011 2.5762
L34.4011 2.7576
" />
<path d="M34.4011 2.7576
L34.3407 2.8786
" />
<path d="M34.3407 2.8786
L34.2802 2.9390
" />
<path d="M34.2802 2.9390
L34.1592 2.9995
" />
<path d="M34.1592 2.9995
L33.6754 2.9995
" />
<path d="M34.9454 3.6043
L34.9454 2.7576
" />
<path d="M34.9454 2.3343
L34.8849 2.3947
" />
<path d="M34.8849 2.3947
L34.9454 2.4552
" />
<path d="M34.9454 2.4552
L35.0059 2.3947
" />
<path d="M35.0059 2.3947
L34.9454 2.3343
" />
<path d="M34.9454 2.3343
L34.9454 2.4552
" />
<path d="M35.5502 2.7576
L35.5502 3.6043
" />
<path d="M35.5502 2.8786
L35.6107 2.8181
" />
<path d="M35.6107 2.8181
L35.7316 2.7576
" />
<path d="M35.7316 2.7576
L35.9130 2.7576
" />
<path d="M35.9130 2.7576
L36.0340 2.8181
" />
<path d="M36.0340 2.8181
L36.0945 2.9390
" />
<path d="M36.0945 2.9390
L36.0945 3.6043
" />
<path d="M36.3968 3.7252
L37.3645 3.7252
" />
<path d="M37.5459 2.3343
L38.3926 2.3343
" />
<path d="M38.3926 2.3343
L37.8483 3.6043
" />
<path d="M38.8764 3.4833
L38.9368 3.5438
" />
<path d="M38.9368 3.5438
L38.8764 3.6043
" />
<path d="M38.8764 3.6043
L38.8159 3.5438
" />
<path d="M38.8159 3.5438
L38.8764 3.4833
" />
<path d="M38.8764 3.4833
L38.8764 3.6043
" />
<path d="M40.1464 3.6043
L39.4207 3.6043
" />
<path d="M39.7835 3.6043
L39.7835 2.3343
" />
<path d="M39.7835 2.3343
L39.6626 2.5157
" />
<path d="M39.6626 2.5157
L39.5416 2.6367
" />
<path d="M39.5416 2.6367
L39.4207 2.6971
" />
<path d="M40.5697 3.6043
L41.2349 2.7576
" />
<path d="M40.5697 2.7576
L41.2349 3.6043
" />
<path d="M41.6583 2.4552
L41.7187 2.3947
" />
<path d="M41.7187 2.3947
L41.8397 2.3343
" />
<path d="M41.8397 2.3343
L42.1421 2.3343
" />
<path d="M42.1421 2.3343
L42.2630 2.3947
" />
<path d="M42.2630 2.3947
L42.3235 2.4552
" />
<path d="M42.3235 2.4552
L42.3840 2.5762
" />
<path d="M42.3840 2.5762
L42.3840 2.6971
" />
<path d="M42.3840 2.6971
L42.3235 2.8786
" />
<path d="M42.3235 2.8786
L41.5978 3.6043
" />
<path d="M41.5978 3.6043
L42.3840 3.6043
" />
<path d="M42.9283 3.4833
L42.9887 3.5438
" />
<path d="M42.9887 3.5438
L42.9283 3.6043
" />
<path d="M42.9283 3.6043
L42.8678 3.5438
" />
<path d="M42.8678 3.5438
L42.9283 3.4833
" />
<path d="M42.9283 3.4833
L42.9283 3.6043
" />
<path d="M44.1378 2.3343
L43.5330 2.3343
" />
<path d="M43.5330 2.3343
L43.4726 2.9390
" />
<path d="M43.4726 2.9390
L43.5330 2.8786
" />
<path d="M43.5330 2.8786
L43.6540 2.8181
" />
<path d="M43.6540 2.8181
L43.9564 2.8181
" />
<path d="M43.9564 2.8181
L44.0773 2.8786
" />
<path d="M44.0773 2.8786
L44.1378 2.9390
" />
<path d="M44.1378 2.9390
L44.1983 3.0600
" />
<path d="M44.1983 3.0600
L44.1983 3.3624
" />
<path d="M44.1983 3.3624
L44.1378 3.4833
" />
<path d="M44.1378 3.4833
L44.0773 3.5438
" />
<path d="M44.0773 3.5438
L43.9564 3.6043
" />
<path d="M43.9564 3.6043
L43.6540 3.6043
" />
<path d="M43.6540 3.6043
L43.5330 3.5438
" />
<path d="M43.5330 3.5438
L43.4726 3.4833
" />
<path d="M44.7426 3.6043
L44.7426 2.7576
" />
<path d="M44.7426 2.8786
L44.8030 2.8181
" />
<path d="M44.8030 2.8181
L44.9240 2.7576
" />
<path d="M44.9240 2.7576
L45.1054 2.7576
" />
<path d="M45.1054 2.7576
L45.2264 2.8181
" />
<path d="M45.2264 2.8181
L45.2868 2.9390
" />
<path d="M45.2868 2.9390
L45.2868 3.6043
" />
<path d="M45.2868 2.9390
L45.3473 2.8181
" />
<path d="M45.3473 2.8181
L45.4683 2.7576
" />
<path d="M45.4683 2.7576
L45.6497 2.7576
" />
<path d="M45.6497 2.7576
L45.7707 2.8181
" />
<path d="M45.7707 2.8181
L45.8311 2.9390
" />
<path d="M45.8311 2.9390
L45.8311 3.6043
" />
<path d="M46.4359 3.6043
L46.4359 2.7576
" />
<path d="M46.4359 2.8786
L46.4964 2.8181
" />
<path d="M46.4964 2.8181
L46.6173 2.7576
" />
<path d="M46.6173 2.7576
L46.7987 2.7576
" />
<path d="M46.7987 2.7576
L46.9197 2.8181
" />
<path d="M46.9197 2.8181
L46.9802 2.9390
" />
<path d="M46.9802 2.9390
L46.9802 3.6043
" />
<path d="M46.9802 2.9390
L47.0407 2.8181
" />
<path d="M47.0407 2.8181
L47.1616 2.7576
" />
<path d="M47.1616 2.7576
L47.3430 2.7576
" />
<path d="M47.3430 2.7576
L47.4640 2.8181
" />
<path d="M47.4640 2.8181
L47.5245 2.9390
" />
<path d="M47.5245 2.9390
L47.5245 3.6043
" />
<path d="M47.8268 3.7252
L48.7945 3.7252
" />
<path d="M49.0968 3.6043
L49.0968 2.3343
" />
<path d="M49.0968 2.9390
L49.8226 2.9390
" />
<path d="M49.8226 3.6043
L49.8226 2.3343
" />
<path d="M50.9716 3.6043
L50.9716 2.9390
" />
<path d="M50.9716 2.9390
L50.9111 2.8181
" />
<path d="M50.9111 2.8181
L50.7902 2.7576
" />
<path d="M50.7902 2.7576
L50.5483 2.7576
" />
<path d="M50.5483 2.7576
L50.4273 2.8181
" />
<path d="M50.9716 3.5438
L50.8507 3.6043
" />
<path d="M50.8507 3.6043
L50.5483 3.6043
" />
<path d="M50.5483 3.6043
L50.4273 3.5438
" />
<path d="M50.4273 3.5438
L50.3668 3.4228
" />
<path d="M50.3668 3.4228
L50.3668 3.3019
" />
<path d="M50.3668 3.3019
L50.4273 3.1809
" />
<path d="M50.4273 3.1809
L50.5483 3.1205
" />
<path d="M50.5483 3.1205
L50.8507 3.1205
" />
<path d="M50.8507 3.1205
L50.9716 3.0600
" />
<path d="M51.5764 2.7576
L51.5764 3.6043
" />
<path d="M51.5764 2.8786
L51.6368 2.8181
" />
<path d="M51.6368 2.8181
L51.7578 2.7576
" />
<path d="M51.7578 2.7576
L51.9392 2.7576
" />
<path d="M51.9392 2.7576
L52.0602 2.8181
" />
<path d="M52.0602 2.8181
L52.1207 2.9390
" />
<path d="M52.1207 2.9390
L52.1207 3.6043
" />
<path d="M53.2697 3.6043
L53.2697 2.3343
" />
<path d="M53.2697 3.5438
L53.1487 3.6043
" />
<path d="M53.1487 3.6043
L52.9068 3.6043
" />
<path d="M52.9068 3.6043
L52.7859 3.5438
" />
<path d="M52.7859 3.5438
L52.7254 3.4833
" />
<path d="M52.7254 3.4833
L52.6649 3.3624
" />
<path d="M52.6649 3.3624
L52.6649 2.9995
" />
<path d="M52.6649 2.9995
L52.7254 2.8786
" />
<path d="M52.7254 2.8786
L52.7859 2.8181
" />
<path d="M52.7859 2.8181
L52.9068 2.7576
" />
<path d="M52.9068 2.7576
L53.1487 2.7576
" />
<path d="M53.1487 2.7576
L53.2697 2.8181
" />
<path d="M53.8140 3.5438
L53.9954 3.6043
" />
<path d="M53.9954 3.6043
L54.2978 3.6043
" />
<path d="M54.2978 3.6043
L54.4187 3.5438
" />
<path d="M54.4187 3.5438
L54.4792 3.4833
" />
<path d="M54.4792 3.4833
L54.5397 3.3624
" />
<path d="M54.5397 3.3624
L54.5397 3.2414
" />
<path d="M54.5397 3.2414
L54.4792 3.1205
" />
<path d="M54.4792 3.1205
L54.4187 3.0600
" />
<path d="M54.4187 3.0600
L54.2978 2.9995
" />
<path d="M54.2978 2.9995
L54.0559 2.9390
" />
<path d="M54.0559 2.9390
L53.9349 2.8786
" />
<path d="M53.9349 2.8786
L53.8745 2.8181
" />
<path d="M53.8745 2.8181
L53.8140 2.6971
" />
<path d="M53.8140 2.6971
L53.8140 2.5762
" />
<path d="M53.8140 2.5762
L53.8745 2.4552
" />
<path d="M53.8745 2.4552
L53.9349 2.3947
" />
<path d="M53.9349 2.3947
L54.0559 2.3343
" />
<path d="M54.0559 2.3343
L54.3583 2.3343
" />
<path d="M54.3583 2.3343
L54.5397 2.3947
" />
<path d="M55.2654 3.6043
L55.1445 3.5438
" />
<path d="M55.1445 3.5438
L55.0840 3.4833
" />
<path d="M55.0840 3.4833
L55.0235 3.3624
" />
<path d="M55.0235 3.3624
L55.0235 2.9995
" />
<path d="M55.0235 2.9995
L55.0840 2.8786
" />
<path d="M55.0840 2.8786
L55.1445 2.8181
" />
<path d="M55.1445 2.8181
L55.2654 2.7576
" />
<path d="M55.2654 2.7576
L55.4468 2.7576
" />
<path d="M55.4468 2.7576
L55.5678 2.8181
" />
<path d="M55.5678 2.8181
L55.6283 2.8786
" />
<path d="M55.6283 2.8786
L55.6887 2.9995
" />
<path d="M55.6887 2.9995
L55.6887 3.3624
" />
<path d="M55.6887 3.3624
L55.6283 3.4833
" />
<path d="M55.6283 3.4833
L55.5678 3.5438
" />
<path d="M55.5678 3.5438
L55.4468 3.6043
" />
<path d="M55.4468 3.6043
L55.2654 3.6043
" />
<path d="M56.4145 3.6043
L56.2935 3.5438
" />
<path d="M56.2935 3.5438
L56.2330 3.4228
" />
<path d="M56.2330 3.4228
L56.2330 2.3343
" />
<path d="M57.4426 3.6043
L57.4426 2.3343
" />
<path d="M57.4426 3.5438
L57.3216 3.6043
" />
<path d="M57.3216 3.6043
L57.0797 3.6043
" />
<path d="M57.0797 3.6043
L56.9587 3.5438
" />
<path d="M56.9587 3.5438
L56.8983 3.4833
" />
<path d="M56.8983 3.4833
L56.8378 3.3624
" />
<path d="M56.8378 3.3624
L56.8378 2.9995
" />
<path d="M56.8378 2.9995
L56.8983 2.8786
" />
<path d="M56.8983 2.8786
L56.9587 2.8181
" />
<path d="M56.9587 2.8181
L57.0797 2.7576
" />
<path d="M57.0797 2.7576
L57.3216 2.7576
" />
<path d="M57.3216 2.7576
L57.4426 2.8181
" />
<path d="M58.5311 3.5438
L58.4102 3.6043
" />
<path d="M58.4102 3.6043
L58.1683 3.6043
" />
<path d="M58.1683 3.6043
L58.0473 3.5438
" />
<path d="M58.0473 3.5438
L57.9868 3.4228
" />
<path d="M57.9868 3.4228
L57.9868 2.9390
" />
<path d="M57.9868 2.9390
L58.0473 2.8181
" />
<path d="M58.0473 2.8181
L58.1683 2.7576
" />
<path d="M58.1683 2.7576
L58.4102 2.7576
" />
<path d="M58.4102 2.7576
L58.5311 2.8181
" />
<path d="M58.5311 2.8181
L58.5916 2.9390
" />
<path d="M58.5916 2.9390
L58.5916 3.0600
" />
<path d="M58.5916 3.0600
L57.9868 3.1809
" />
<path d="M59.1359 3.6043
L59.1359 2.7576
" />
<path d="M59.1359 2.9995
L59.1964 2.8786
" />
<path d="M59.1964 2.8786
L59.2568 2.8181
" />
<path d="M59.2568 2.8181
L59.3778 2.7576
" />
<path d="M59.3778 2.7576
L59.4987 2.7576
" />
<path d="M59.9221 3.6043
L59.9221 2.7576
" />
<path d="M59.9221 2.3343
L59.8616 2.3947
" />
<path d="M59.8616 2.3947
L59.9221 2.4552
" />
<path d="M59.9221 2.4552
L59.9826 2.3947
" />
<path d="M59.9826 2.3947
L59.9221 2.3343
" />
<path d="M59.9221 2.3343
L59.9221 2.4552
" />
<path d="M60.5268 2.7576
L60.5268 3.6043
" />
<path d="M60.5268 2.8786
L60.5873 2.8181
" />
<path d="M60.5873 2.8181
L60.7083 2.7576
" />
<path d="M60.7083 2.7576
L60.8897 2.7576
" />
<path d="M60.8897 2.7576
L61.0107 2.8181
" />
<path d="M61.0107 2.8181
L61.0711 2.9390
" />
<path d="M61.0711 2.9390
L61.0711 3.6043
" />
<path d="M62.2202 2.7576
L62.2202 3.7857
" />
<path d="M62.2202 3.7857
L62.1597 3.9067
" />
<path d="M62.1597 3.9067
L62.0992 3.9671
" />
<path d="M62.0992 3.9671
L61.9783 4.0276
" />
<path d="M61.9783 4.0276
L61.7968 4.0276
" />
<path d="M61.7968 4.0276
L61.6759 3.9671
" />
<path d="M62.2202 3.5438
L62.0992 3.6043
" />
<path d="M62.0992 3.6043
L61.8573 3.6043
" />
<path d="M61.8573 3.6043
L61.7364 3.5438
" />
<path d="M61.7364 3.5438
L61.6759 3.4833
" />
<path d="M61.6759 3.4833
L61.6154 3.3624
" />
<path d="M61.6154 3.3624
L61.6154 2.9995
" />
<path d="M61.6154 2.9995
L61.6759 2.8786
" />
<path d="M61.6759 2.8786
L61.7364 2.8181
" />
<path d="M61.7364 2.8181
L61.8573 2.7576
" />
<path d="M61.8573 2.7576
L62.0992 2.7576
" />
<path d="M62.0992 2.7576
L62.2202 2.8181
" />
</g></g>
<g style="fill:none; 
stroke:#AFAFAF; stroke-width:0.1500; stroke-opacity:1; 
stroke-linecap:round; stroke-linejoin:round;">
<text x="31.3168" y="3.5250"
textLength="4.5357" font-size="1.3333" lengthAdjust="spacingAndGlyphs"
text-anchor="middle" opacity="0">REF**</text>
<g class="stroked-text"><desc>REF**</desc>
<path d="M29.9835 3.4798
L29.6502 3.0036
" />
<path d="M29.4121 3.4798
L29.4121 2.4798
" />
<path d="M29.4121 2.4798
L29.7930 2.4798
" />
<path d="M29.7930 2.4798
L29.8883 2.5274
" />
<path d="M29.8883 2.5274
L29.9359 2.5751
" />
<path d="M29.9359 2.5751
L29.9835 2.6703
" />
<path d="M29.9835 2.6703
L29.9835 2.8132
" />
<path d="M29.9835 2.8132
L29.9359 2.9084
" />
<path d="M29.9359 2.9084
L29.8883 2.9560
" />
<path d="M29.8883 2.9560
L29.7930 3.0036
" />
<path d="M29.7930 3.0036
L29.4121 3.0036
" />
<path d="M30.4121 2.9560
L30.7454 2.9560
" />
<path d="M30.8883 3.4798
L30.4121 3.4798
" />
<path d="M30.4121 3.4798
L30.4121 2.4798
" />
<path d="M30.4121 2.4798
L30.8883 2.4798
" />
<path d="M31.6502 2.9560
L31.3168 2.9560
" />
<path d="M31.3168 3.4798
L31.3168 2.4798
" />
<path d="M31.3168 2.4798
L31.7930 2.4798
" />
<path d="M32.3168 2.4798
L32.3168 2.7179
" />
<path d="M32.0787 2.6227
L32.3168 2.7179
" />
<path d="M32.3168 2.7179
L32.5549 2.6227
" />
<path d="M32.1740 2.9084
L32.3168 2.7179
" />
<path d="M32.3168 2.7179
L32.4597 2.9084
" />
<path d="M33.0787 2.4798
L33.0787 2.7179
" />
<path d="M32.8407 2.6227
L33.0787 2.7179
" />
<path d="M33.0787 2.7179
L33.3168 2.6227
" />
<path d="M32.9359 2.9084
L33.0787 2.7179
" />
<path d="M33.0787 2.7179
L33.2216 2.9084
" />
</g></g>
<g style="fill:none; 
stroke:#AFAFAF; stroke-width:0.1000; stroke-opacity:1; 
stroke-linecap:round; stroke-linejoin:round;">
<path d="M27.7668 1.7750
L34.8668 1.7750
" />
<path d="M27.7668 2.5250
L27.7668 1.7750
" />
<path d="M27.7668 4.2750
L27.7668 3.5250
" />
<path d="M34.8668 1.7750
L34.8668 4.2750
" />
<path d="M34.8668 4.2750
L27.7668 4.2750
" />
<path d="M27.7668 3.5250 A0.5000 0.5000 0.0 0 0 27.7668 2.5250" />
</g> 
</svg>
