<?xml version="1.0" standalone="no"?>
 <!DOCTYPE svg PUBLIC "-//W3C//DTD SVG 1.1//EN" 
 "http://www.w3.org/Graphics/SVG/1.1/DTD/svg11.dtd"> 
<svg
  xmlns:svg="http://www.w3.org/2000/svg"
  xmlns="http://www.w3.org/2000/svg"
  xmlns:xlink="http://www.w3.org/1999/xlink"
  version="1.1"
  width="61.6458mm" height="8.5344mm" viewBox="0.0000 0.0000 61.6458 8.5344">
<title>SVG Image created as working-brd.svg date 2024/03/31 22:54:10 </title>
  <desc>Image generated by PCBNEW </desc>
<g style="fill:#000000; fill-opacity:1.0000;stroke:#000000; stroke-opacity:1.0000;
stroke-linecap:round; stroke-linejoin:round;"
 transform="translate(0 0) scale(1 1)">
<path style="fill:#C83434; fill-opacity:1.0000; stroke:none;fill-rule:evenodd;"
d="M 24.8080,0.7250
24.8233,0.6485
24.8666,0.5836
24.9315,0.5402
25.0080,0.5250
25.4080,0.5250
25.4846,0.5402
25.5495,0.5836
25.5928,0.6485
25.6080,0.7250
25.6080,2.2250
25.5928,2.3015
25.5495,2.3664
25.4846,2.4098
25.4080,2.4250
25.0080,2.4250
24.9315,2.4098
24.8666,2.3664
24.8233,2.3015
24.8080,2.2250
Z" /> 
<path style="fill:#C83434; fill-opacity:1.0000; stroke:none;fill-rule:evenodd;"
d="M 26.0580,0.7250
26.0733,0.6485
26.1166,0.5836
26.1815,0.5402
26.2580,0.5250
26.6580,0.5250
26.7346,0.5402
26.7995,0.5836
26.8428,0.6485
26.8580,0.7250
26.8580,2.2250
26.8428,2.3015
26.7995,2.3664
26.7346,2.4098
26.6580,2.4250
26.2580,2.4250
26.1815,2.4098
26.1166,2.3664
26.0733,2.3015
26.0580,2.2250
Z" /> 
<path style="fill:#C83434; fill-opacity:1.0000; stroke:none;fill-rule:evenodd;"
d="M 27.3080,0.7250
27.3233,0.6485
27.3666,0.5836
27.4315,0.5402
27.5080,0.5250
27.9080,0.5250
27.9846,0.5402
28.0495,0.5836
28.0928,0.6485
28.1080,0.7250
28.1080,2.2250
28.0928,2.3015
28.0495,2.3664
27.9846,2.4098
27.9080,2.4250
27.5080,2.4250
27.4315,2.4098
27.3666,2.3664
27.3233,2.3015
27.3080,2.2250
Z" /> 
<path style="fill:#C83434; fill-opacity:1.0000; stroke:none;fill-rule:evenodd;"
d="M 28.5580,0.7250
28.5733,0.6485
28.6166,0.5836
28.6815,0.5402
28.7580,0.5250
29.1580,0.5250
29.2346,0.5402
29.2995,0.5836
29.3428,0.6485
29.3580,0.7250
29.3580,2.2250
29.3428,2.3015
29.2995,2.3664
29.2346,2.4098
29.1580,2.4250
28.7580,2.4250
28.6815,2.4098
28.6166,2.3664
28.5733,2.3015
28.5580,2.2250
Z" /> 
<path style="fill:#C83434; fill-opacity:1.0000; stroke:none;fill-rule:evenodd;"
d="M 29.8080,0.7250
29.8233,0.6485
29.8666,0.5836
29.9315,0.5402
30.0080,0.5250
30.4080,0.5250
30.4846,0.5402
30.5495,0.5836
30.5928,0.6485
30.6080,0.7250
30.6080,2.2250
30.5928,2.3015
30.5495,2.3664
30.4846,2.4098
30.4080,2.4250
30.0080,2.4250
29.9315,2.4098
29.8666,2.3664
29.8233,2.3015
29.8080,2.2250
Z" /> 
<path style="fill:#C83434; fill-opacity:1.0000; stroke:none;fill-rule:evenodd;"
d="M 31.0580,0.7250
31.0733,0.6485
31.1166,0.5836
31.1815,0.5402
31.2580,0.5250
31.6580,0.5250
31.7346,0.5402
31.7995,0.5836
31.8428,0.6485
31.8580,0.7250
31.8580,2.2250
31.8428,2.3015
31.7995,2.3664
31.7346,2.4098
31.6580,2.4250
31.2580,2.4250
31.1815,2.4098
31.1166,2.3664
31.0733,2.3015
31.0580,2.2250
Z" /> 
<path style="fill:#C83434; fill-opacity:1.0000; stroke:none;fill-rule:evenodd;"
d="M 32.3080,0.7250
32.3233,0.6485
32.3666,0.5836
32.4315,0.5402
32.5080,0.5250
32.9080,0.5250
32.9846,0.5402
33.0495,0.5836
33.0928,0.6485
33.1080,0.7250
33.1080,2.2250
33.0928,2.3015
33.0495,2.3664
32.9846,2.4098
32.9080,2.4250
32.5080,2.4250
32.4315,2.4098
32.3666,2.3664
32.3233,2.3015
32.3080,2.2250
Z" /> 
<path style="fill:#C83434; fill-opacity:1.0000; stroke:none;fill-rule:evenodd;"
d="M 33.5580,0.7250
33.5733,0.6485
33.6166,0.5836
33.6815,0.5402
33.7580,0.5250
34.1580,0.5250
34.2346,0.5402
34.2995,0.5836
34.3428,0.6485
34.3580,0.7250
34.3580,2.2250
34.3428,2.3015
34.2995,2.3664
34.2346,2.4098
34.1580,2.4250
33.7580,2.4250
33.6815,2.4098
33.6166,2.3664
33.5733,2.3015
33.5580,2.2250
Z" /> 
<path style="fill:#C83434; fill-opacity:1.0000; stroke:none;fill-rule:evenodd;"
d="M 34.8080,0.7250
34.8233,0.6485
34.8666,0.5836
34.9315,0.5402
35.0080,0.5250
35.4080,0.5250
35.4846,0.5402
35.5495,0.5836
35.5928,0.6485
35.6080,0.7250
35.6080,2.2250
35.5928,2.3015
35.5495,2.3664
35.4846,2.4098
35.4080,2.4250
35.0080,2.4250
34.9315,2.4098
34.8666,2.3664
34.8233,2.3015
34.8080,2.2250
Z" /> 
<path style="fill:#C83434; fill-opacity:1.0000; stroke:none;fill-rule:evenodd;"
d="M 36.0580,0.7250
36.0733,0.6485
36.1166,0.5836
36.1815,0.5402
36.2580,0.5250
36.6580,0.5250
36.7346,0.5402
36.7995,0.5836
36.8428,0.6485
36.8580,0.7250
36.8580,2.2250
36.8428,2.3015
36.7995,2.3664
36.7346,2.4098
36.6580,2.4250
36.2580,2.4250
36.1815,2.4098
36.1166,2.3664
36.0733,2.3015
36.0580,2.2250
Z" /> 
<path style="fill:#C83434; fill-opacity:1.0000; stroke:none;fill-rule:evenodd;"
d="M 21.7080,4.9250
21.7271,4.8293
21.7813,4.7482
21.8624,4.6940
21.9580,4.6750
22.7580,4.6750
22.8537,4.6940
22.9348,4.7482
22.9890,4.8293
23.0080,4.9250
23.0080,7.7750
22.9890,7.8707
22.9348,7.9518
22.8537,8.0060
22.7580,8.0250
21.9580,8.0250
21.8624,8.0060
21.7813,7.9518
21.7271,7.8707
21.7080,7.7750
Z" /> 
<path style="fill:#C83434; fill-opacity:1.0000; stroke:none;fill-rule:evenodd;"
d="M 38.6580,4.9250
38.6771,4.8293
38.7313,4.7482
38.8124,4.6940
38.9080,4.6750
39.7080,4.6750
39.8037,4.6940
39.8848,4.7482
39.9390,4.8293
39.9580,4.9250
39.9580,7.7750
39.9390,7.8707
39.8848,7.9518
39.8037,8.0060
39.7080,8.0250
38.9080,8.0250
38.8124,8.0060
38.7313,7.9518
38.6771,7.8707
38.6580,7.7750
Z" /> 
<path style="fill:#D864FF; fill-opacity:0.4000; stroke:none;fill-rule:evenodd;"
d="M 24.8080,0.7250
24.8233,0.6485
24.8666,0.5836
24.9315,0.5402
25.0080,0.5250
25.4080,0.5250
25.4846,0.5402
25.5495,0.5836
25.5928,0.6485
25.6080,0.7250
25.6080,2.2250
25.5928,2.3015
25.5495,2.3664
25.4846,2.4098
25.4080,2.4250
25.0080,2.4250
24.9315,2.4098
24.8666,2.3664
24.8233,2.3015
24.8080,2.2250
Z" /> 
<path style="fill:#D864FF; fill-opacity:0.4000; stroke:none;fill-rule:evenodd;"
d="M 26.0580,0.7250
26.0733,0.6485
26.1166,0.5836
26.1815,0.5402
26.2580,0.5250
26.6580,0.5250
26.7346,0.5402
26.7995,0.5836
26.8428,0.6485
26.8580,0.7250
26.8580,2.2250
26.8428,2.3015
26.7995,2.3664
26.7346,2.4098
26.6580,2.4250
26.2580,2.4250
26.1815,2.4098
26.1166,2.3664
26.0733,2.3015
26.0580,2.2250
Z" /> 
<path style="fill:#D864FF; fill-opacity:0.4000; stroke:none;fill-rule:evenodd;"
d="M 27.3080,0.7250
27.3233,0.6485
27.3666,0.5836
27.4315,0.5402
27.5080,0.5250
27.9080,0.5250
27.9846,0.5402
28.0495,0.5836
28.0928,0.6485
28.1080,0.7250
28.1080,2.2250
28.0928,2.3015
28.0495,2.3664
27.9846,2.4098
27.9080,2.4250
27.5080,2.4250
27.4315,2.4098
27.3666,2.3664
27.3233,2.3015
27.3080,2.2250
Z" /> 
<path style="fill:#D864FF; fill-opacity:0.4000; stroke:none;fill-rule:evenodd;"
d="M 28.5580,0.7250
28.5733,0.6485
28.6166,0.5836
28.6815,0.5402
28.7580,0.5250
29.1580,0.5250
29.2346,0.5402
29.2995,0.5836
29.3428,0.6485
29.3580,0.7250
29.3580,2.2250
29.3428,2.3015
29.2995,2.3664
29.2346,2.4098
29.1580,2.4250
28.7580,2.4250
28.6815,2.4098
28.6166,2.3664
28.5733,2.3015
28.5580,2.2250
Z" /> 
<path style="fill:#D864FF; fill-opacity:0.4000; stroke:none;fill-rule:evenodd;"
d="M 29.8080,0.7250
29.8233,0.6485
29.8666,0.5836
29.9315,0.5402
30.0080,0.5250
30.4080,0.5250
30.4846,0.5402
30.5495,0.5836
30.5928,0.6485
30.6080,0.7250
30.6080,2.2250
30.5928,2.3015
30.5495,2.3664
30.4846,2.4098
30.4080,2.4250
30.0080,2.4250
29.9315,2.4098
29.8666,2.3664
29.8233,2.3015
29.8080,2.2250
Z" /> 
<path style="fill:#D864FF; fill-opacity:0.4000; stroke:none;fill-rule:evenodd;"
d="M 31.0580,0.7250
31.0733,0.6485
31.1166,0.5836
31.1815,0.5402
31.2580,0.5250
31.6580,0.5250
31.7346,0.5402
31.7995,0.5836
31.8428,0.6485
31.8580,0.7250
31.8580,2.2250
31.8428,2.3015
31.7995,2.3664
31.7346,2.4098
31.6580,2.4250
31.2580,2.4250
31.1815,2.4098
31.1166,2.3664
31.0733,2.3015
31.0580,2.2250
Z" /> 
<path style="fill:#D864FF; fill-opacity:0.4000; stroke:none;fill-rule:evenodd;"
d="M 32.3080,0.7250
32.3233,0.6485
32.3666,0.5836
32.4315,0.5402
32.5080,0.5250
32.9080,0.5250
32.9846,0.5402
33.0495,0.5836
33.0928,0.6485
33.1080,0.7250
33.1080,2.2250
33.0928,2.3015
33.0495,2.3664
32.9846,2.4098
32.9080,2.4250
32.5080,2.4250
32.4315,2.4098
32.3666,2.3664
32.3233,2.3015
32.3080,2.2250
Z" /> 
<path style="fill:#D864FF; fill-opacity:0.4000; stroke:none;fill-rule:evenodd;"
d="M 33.5580,0.7250
33.5733,0.6485
33.6166,0.5836
33.6815,0.5402
33.7580,0.5250
34.1580,0.5250
34.2346,0.5402
34.2995,0.5836
34.3428,0.6485
34.3580,0.7250
34.3580,2.2250
34.3428,2.3015
34.2995,2.3664
34.2346,2.4098
34.1580,2.4250
33.7580,2.4250
33.6815,2.4098
33.6166,2.3664
33.5733,2.3015
33.5580,2.2250
Z" /> 
<path style="fill:#D864FF; fill-opacity:0.4000; stroke:none;fill-rule:evenodd;"
d="M 34.8080,0.7250
34.8233,0.6485
34.8666,0.5836
34.9315,0.5402
35.0080,0.5250
35.4080,0.5250
35.4846,0.5402
35.5495,0.5836
35.5928,0.6485
35.6080,0.7250
35.6080,2.2250
35.5928,2.3015
35.5495,2.3664
35.4846,2.4098
35.4080,2.4250
35.0080,2.4250
34.9315,2.4098
34.8666,2.3664
34.8233,2.3015
34.8080,2.2250
Z" /> 
<path style="fill:#D864FF; fill-opacity:0.4000; stroke:none;fill-rule:evenodd;"
d="M 36.0580,0.7250
36.0733,0.6485
36.1166,0.5836
36.1815,0.5402
36.2580,0.5250
36.6580,0.5250
36.7346,0.5402
36.7995,0.5836
36.8428,0.6485
36.8580,0.7250
36.8580,2.2250
36.8428,2.3015
36.7995,2.3664
36.7346,2.4098
36.6580,2.4250
36.2580,2.4250
36.1815,2.4098
36.1166,2.3664
36.0733,2.3015
36.0580,2.2250
Z" /> 
<path style="fill:#D864FF; fill-opacity:0.4000; stroke:none;fill-rule:evenodd;"
d="M 21.7080,4.9250
21.7271,4.8293
21.7813,4.7482
21.8624,4.6940
21.9580,4.6750
22.7580,4.6750
22.8537,4.6940
22.9348,4.7482
22.9890,4.8293
23.0080,4.9250
23.0080,7.7750
22.9890,7.8707
22.9348,7.9518
22.8537,8.0060
22.7580,8.0250
21.9580,8.0250
21.8624,8.0060
21.7813,7.9518
21.7271,7.8707
21.7080,7.7750
Z" /> 
<path style="fill:#D864FF; fill-opacity:0.4000; stroke:none;fill-rule:evenodd;"
d="M 38.6580,4.9250
38.6771,4.8293
38.7313,4.7482
38.8124,4.6940
38.9080,4.6750
39.7080,4.6750
39.8037,4.6940
39.8848,4.7482
39.9390,4.8293
39.9580,4.9250
39.9580,7.7750
39.9390,7.8707
39.8848,7.9518
39.8037,8.0060
39.7080,8.0250
38.9080,8.0250
38.8124,8.0060
38.7313,7.9518
38.6771,7.8707
38.6580,7.7750
Z" /> 
<path style="fill:#B4A09A; fill-opacity:0.9000; stroke:none;fill-rule:evenodd;"
d="M 24.8080,0.7250
24.8233,0.6485
24.8666,0.5836
24.9315,0.5402
25.0080,0.5250
25.4080,0.5250
25.4846,0.5402
25.5495,0.5836
25.5928,0.6485
25.6080,0.7250
25.6080,2.2250
25.5928,2.3015
25.5495,2.3664
25.4846,2.4098
25.4080,2.4250
25.0080,2.4250
24.9315,2.4098
24.8666,2.3664
24.8233,2.3015
24.8080,2.2250
Z" /> 
<path style="fill:#B4A09A; fill-opacity:0.9000; stroke:none;fill-rule:evenodd;"
d="M 26.0580,0.7250
26.0733,0.6485
26.1166,0.5836
26.1815,0.5402
26.2580,0.5250
26.6580,0.5250
26.7346,0.5402
26.7995,0.5836
26.8428,0.6485
26.8580,0.7250
26.8580,2.2250
26.8428,2.3015
26.7995,2.3664
26.7346,2.4098
26.6580,2.4250
26.2580,2.4250
26.1815,2.4098
26.1166,2.3664
26.0733,2.3015
26.0580,2.2250
Z" /> 
<path style="fill:#B4A09A; fill-opacity:0.9000; stroke:none;fill-rule:evenodd;"
d="M 27.3080,0.7250
27.3233,0.6485
27.3666,0.5836
27.4315,0.5402
27.5080,0.5250
27.9080,0.5250
27.9846,0.5402
28.0495,0.5836
28.0928,0.6485
28.1080,0.7250
28.1080,2.2250
28.0928,2.3015
28.0495,2.3664
27.9846,2.4098
27.9080,2.4250
27.5080,2.4250
27.4315,2.4098
27.3666,2.3664
27.3233,2.3015
27.3080,2.2250
Z" /> 
<path style="fill:#B4A09A; fill-opacity:0.9000; stroke:none;fill-rule:evenodd;"
d="M 28.5580,0.7250
28.5733,0.6485
28.6166,0.5836
28.6815,0.5402
28.7580,0.5250
29.1580,0.5250
29.2346,0.5402
29.2995,0.5836
29.3428,0.6485
29.3580,0.7250
29.3580,2.2250
29.3428,2.3015
29.2995,2.3664
29.2346,2.4098
29.1580,2.4250
28.7580,2.4250
28.6815,2.4098
28.6166,2.3664
28.5733,2.3015
28.5580,2.2250
Z" /> 
<path style="fill:#B4A09A; fill-opacity:0.9000; stroke:none;fill-rule:evenodd;"
d="M 29.8080,0.7250
29.8233,0.6485
29.8666,0.5836
29.9315,0.5402
30.0080,0.5250
30.4080,0.5250
30.4846,0.5402
30.5495,0.5836
30.5928,0.6485
30.6080,0.7250
30.6080,2.2250
30.5928,2.3015
30.5495,2.3664
30.4846,2.4098
30.4080,2.4250
30.0080,2.4250
29.9315,2.4098
29.8666,2.3664
29.8233,2.3015
29.8080,2.2250
Z" /> 
<path style="fill:#B4A09A; fill-opacity:0.9000; stroke:none;fill-rule:evenodd;"
d="M 31.0580,0.7250
31.0733,0.6485
31.1166,0.5836
31.1815,0.5402
31.2580,0.5250
31.6580,0.5250
31.7346,0.5402
31.7995,0.5836
31.8428,0.6485
31.8580,0.7250
31.8580,2.2250
31.8428,2.3015
31.7995,2.3664
31.7346,2.4098
31.6580,2.4250
31.2580,2.4250
31.1815,2.4098
31.1166,2.3664
31.0733,2.3015
31.0580,2.2250
Z" /> 
<path style="fill:#B4A09A; fill-opacity:0.9000; stroke:none;fill-rule:evenodd;"
d="M 32.3080,0.7250
32.3233,0.6485
32.3666,0.5836
32.4315,0.5402
32.5080,0.5250
32.9080,0.5250
32.9846,0.5402
33.0495,0.5836
33.0928,0.6485
33.1080,0.7250
33.1080,2.2250
33.0928,2.3015
33.0495,2.3664
32.9846,2.4098
32.9080,2.4250
32.5080,2.4250
32.4315,2.4098
32.3666,2.3664
32.3233,2.3015
32.3080,2.2250
Z" /> 
<path style="fill:#B4A09A; fill-opacity:0.9000; stroke:none;fill-rule:evenodd;"
d="M 33.5580,0.7250
33.5733,0.6485
33.6166,0.5836
33.6815,0.5402
33.7580,0.5250
34.1580,0.5250
34.2346,0.5402
34.2995,0.5836
34.3428,0.6485
34.3580,0.7250
34.3580,2.2250
34.3428,2.3015
34.2995,2.3664
34.2346,2.4098
34.1580,2.4250
33.7580,2.4250
33.6815,2.4098
33.6166,2.3664
33.5733,2.3015
33.5580,2.2250
Z" /> 
<path style="fill:#B4A09A; fill-opacity:0.9000; stroke:none;fill-rule:evenodd;"
d="M 34.8080,0.7250
34.8233,0.6485
34.8666,0.5836
34.9315,0.5402
35.0080,0.5250
35.4080,0.5250
35.4846,0.5402
35.5495,0.5836
35.5928,0.6485
35.6080,0.7250
35.6080,2.2250
35.5928,2.3015
35.5495,2.3664
35.4846,2.4098
35.4080,2.4250
35.0080,2.4250
34.9315,2.4098
34.8666,2.3664
34.8233,2.3015
34.8080,2.2250
Z" /> 
<path style="fill:#B4A09A; fill-opacity:0.9000; stroke:none;fill-rule:evenodd;"
d="M 36.0580,0.7250
36.0733,0.6485
36.1166,0.5836
36.1815,0.5402
36.2580,0.5250
36.6580,0.5250
36.7346,0.5402
36.7995,0.5836
36.8428,0.6485
36.8580,0.7250
36.8580,2.2250
36.8428,2.3015
36.7995,2.3664
36.7346,2.4098
36.6580,2.4250
36.2580,2.4250
36.1815,2.4098
36.1166,2.3664
36.0733,2.3015
36.0580,2.2250
Z" /> 
<path style="fill:#B4A09A; fill-opacity:0.9000; stroke:none;fill-rule:evenodd;"
d="M 21.7080,4.9250
21.7271,4.8293
21.7813,4.7482
21.8624,4.6940
21.9580,4.6750
22.7580,4.6750
22.8537,4.6940
22.9348,4.7482
22.9890,4.8293
23.0080,4.9250
23.0080,7.7750
22.9890,7.8707
22.9348,7.9518
22.8537,8.0060
22.7580,8.0250
21.9580,8.0250
21.8624,8.0060
21.7813,7.9518
21.7271,7.8707
21.7080,7.7750
Z" /> 
<path style="fill:#B4A09A; fill-opacity:0.9000; stroke:none;fill-rule:evenodd;"
d="M 38.6580,4.9250
38.6771,4.8293
38.7313,4.7482
38.8124,4.6940
38.9080,4.6750
39.7080,4.6750
39.8037,4.6940
39.8848,4.7482
39.9390,4.8293
39.9580,4.9250
39.9580,7.7750
39.9390,7.8707
39.8848,7.9518
39.8037,8.0060
39.7080,8.0250
38.9080,8.0250
38.8124,8.0060
38.7313,7.9518
38.6771,7.8707
38.6580,7.7750
Z" /> 
</g>
<g style="fill:none; 
stroke:#F2EDA1; stroke-width:0.1588; stroke-opacity:1; 
stroke-linecap:round; stroke-linejoin:round;">
<text x="30.8330" y="4.9100"
textLength="5.6651" font-size="1.6933" lengthAdjust="spacingAndGlyphs"
text-anchor="middle" opacity="0">REF**</text>
<g class="stroked-text"><desc>REF**</desc>
<path d="M29.1397 4.8543
L28.7164 4.2495
" />
<path d="M28.4140 4.8543
L28.4140 3.5843
" />
<path d="M28.4140 3.5843
L28.8978 3.5843
" />
<path d="M28.8978 3.5843
L29.0187 3.6447
" />
<path d="M29.0187 3.6447
L29.0792 3.7052
" />
<path d="M29.0792 3.7052
L29.1397 3.8262
" />
<path d="M29.1397 3.8262
L29.1397 4.0076
" />
<path d="M29.1397 4.0076
L29.0792 4.1286
" />
<path d="M29.0792 4.1286
L29.0187 4.1890
" />
<path d="M29.0187 4.1890
L28.8978 4.2495
" />
<path d="M28.8978 4.2495
L28.4140 4.2495
" />
<path d="M29.6840 4.1890
L30.1073 4.1890
" />
<path d="M30.2887 4.8543
L29.6840 4.8543
" />
<path d="M29.6840 4.8543
L29.6840 3.5843
" />
<path d="M29.6840 3.5843
L30.2887 3.5843
" />
<path d="M31.2564 4.1890
L30.8330 4.1890
" />
<path d="M30.8330 4.8543
L30.8330 3.5843
" />
<path d="M30.8330 3.5843
L31.4378 3.5843
" />
<path d="M32.1030 3.5843
L32.1030 3.8867
" />
<path d="M31.8006 3.7657
L32.1030 3.8867
" />
<path d="M32.1030 3.8867
L32.4054 3.7657
" />
<path d="M31.9216 4.1286
L32.1030 3.8867
" />
<path d="M32.1030 3.8867
L32.2845 4.1286
" />
<path d="M33.0707 3.5843
L33.0707 3.8867
" />
<path d="M32.7683 3.7657
L33.0707 3.8867
" />
<path d="M33.0707 3.8867
L33.3730 3.7657
" />
<path d="M32.8892 4.1286
L33.0707 3.8867
" />
<path d="M33.0707 3.8867
L33.2521 4.1286
" />
</g></g>
<g style="fill:none; 
stroke:#F2EDA1; stroke-width:0.1200; stroke-opacity:1; 
stroke-linecap:round; stroke-linejoin:round;">
<path d="M21.8980 1.9150
L24.5480 1.9150
" />
<path d="M21.8980 4.4150
L21.8980 1.9150
" />
<path d="M23.2680 8.0350
L24.0180 8.0350
" />
<path d="M24.0180 8.0350
L24.4180 7.0350
" />
<path d="M24.4180 7.0350
L37.2480 7.0350
" />
<path d="M24.5480 1.9150
L24.5480 0.5250
" />
<path d="M37.2480 7.0350
L37.6480 8.0350
" />
<path d="M37.6480 8.0350
L38.3980 8.0350
" />
<path d="M39.7680 1.9150
L37.1180 1.9150
" />
<path d="M39.7680 4.4150
L39.7680 1.9150
" />
</g>
<g style="fill:none; 
stroke:#FF26E2; stroke-width:0.0500; stroke-opacity:1; 
stroke-linecap:round; stroke-linejoin:round;">
<path d="M21.2130 0.0250
L21.2130 8.5250
" />
<path d="M21.2130 8.5250
L40.4530 8.5250
" />
<path d="M40.4530 0.0250
L21.2130 0.0250
" />
<path d="M40.4530 8.5250
L40.4530 0.0250
" />
</g>
<g style="fill:none; 
stroke:#AFAFAF; stroke-width:0.1588; stroke-opacity:1; 
stroke-linecap:round; stroke-linejoin:round;">
<text x="30.8330" y="4.9100"
textLength="61.6661" font-size="1.6933" lengthAdjust="spacingAndGlyphs"
text-anchor="middle" opacity="0">Molex_Panelmate_53780-1070_1x10-1MP_P1.25mm_Horizontal</text>
<g class="stroked-text"><desc>Molex_Panelmate_53780-1070_1x10-1MP_P1.25mm_Horizontal</desc>
<path d="M0.4135 4.8543
L0.4135 3.5843
" />
<path d="M0.4135 3.5843
L0.8368 4.4914
" />
<path d="M0.8368 4.4914
L1.2602 3.5843
" />
<path d="M1.2602 3.5843
L1.2602 4.8543
" />
<path d="M2.0464 4.8543
L1.9254 4.7938
" />
<path d="M1.9254 4.7938
L1.8649 4.7333
" />
<path d="M1.8649 4.7333
L1.8045 4.6124
" />
<path d="M1.8045 4.6124
L1.8045 4.2495
" />
<path d="M1.8045 4.2495
L1.8649 4.1286
" />
<path d="M1.8649 4.1286
L1.9254 4.0681
" />
<path d="M1.9254 4.0681
L2.0464 4.0076
" />
<path d="M2.0464 4.0076
L2.2278 4.0076
" />
<path d="M2.2278 4.0076
L2.3487 4.0681
" />
<path d="M2.3487 4.0681
L2.4092 4.1286
" />
<path d="M2.4092 4.1286
L2.4697 4.2495
" />
<path d="M2.4697 4.2495
L2.4697 4.6124
" />
<path d="M2.4697 4.6124
L2.4092 4.7333
" />
<path d="M2.4092 4.7333
L2.3487 4.7938
" />
<path d="M2.3487 4.7938
L2.2278 4.8543
" />
<path d="M2.2278 4.8543
L2.0464 4.8543
" />
<path d="M3.1954 4.8543
L3.0745 4.7938
" />
<path d="M3.0745 4.7938
L3.0140 4.6728
" />
<path d="M3.0140 4.6728
L3.0140 3.5843
" />
<path d="M4.1630 4.7938
L4.0421 4.8543
" />
<path d="M4.0421 4.8543
L3.8002 4.8543
" />
<path d="M3.8002 4.8543
L3.6792 4.7938
" />
<path d="M3.6792 4.7938
L3.6187 4.6728
" />
<path d="M3.6187 4.6728
L3.6187 4.1890
" />
<path d="M3.6187 4.1890
L3.6792 4.0681
" />
<path d="M3.6792 4.0681
L3.8002 4.0076
" />
<path d="M3.8002 4.0076
L4.0421 4.0076
" />
<path d="M4.0421 4.0076
L4.1630 4.0681
" />
<path d="M4.1630 4.0681
L4.2235 4.1890
" />
<path d="M4.2235 4.1890
L4.2235 4.3100
" />
<path d="M4.2235 4.3100
L3.6187 4.4309
" />
<path d="M4.6468 4.8543
L5.3121 4.0076
" />
<path d="M4.6468 4.0076
L5.3121 4.8543
" />
<path d="M5.4935 4.9752
L6.4611 4.9752
" />
<path d="M6.7635 4.8543
L6.7635 3.5843
" />
<path d="M6.7635 3.5843
L7.2473 3.5843
" />
<path d="M7.2473 3.5843
L7.3683 3.6447
" />
<path d="M7.3683 3.6447
L7.4287 3.7052
" />
<path d="M7.4287 3.7052
L7.4892 3.8262
" />
<path d="M7.4892 3.8262
L7.4892 4.0076
" />
<path d="M7.4892 4.0076
L7.4287 4.1286
" />
<path d="M7.4287 4.1286
L7.3683 4.1890
" />
<path d="M7.3683 4.1890
L7.2473 4.2495
" />
<path d="M7.2473 4.2495
L6.7635 4.2495
" />
<path d="M8.5778 4.8543
L8.5778 4.1890
" />
<path d="M8.5778 4.1890
L8.5173 4.0681
" />
<path d="M8.5173 4.0681
L8.3964 4.0076
" />
<path d="M8.3964 4.0076
L8.1545 4.0076
" />
<path d="M8.1545 4.0076
L8.0335 4.0681
" />
<path d="M8.5778 4.7938
L8.4568 4.8543
" />
<path d="M8.4568 4.8543
L8.1545 4.8543
" />
<path d="M8.1545 4.8543
L8.0335 4.7938
" />
<path d="M8.0335 4.7938
L7.9730 4.6728
" />
<path d="M7.9730 4.6728
L7.9730 4.5519
" />
<path d="M7.9730 4.5519
L8.0335 4.4309
" />
<path d="M8.0335 4.4309
L8.1545 4.3705
" />
<path d="M8.1545 4.3705
L8.4568 4.3705
" />
<path d="M8.4568 4.3705
L8.5778 4.3100
" />
<path d="M9.1826 4.0076
L9.1826 4.8543
" />
<path d="M9.1826 4.1286
L9.2430 4.0681
" />
<path d="M9.2430 4.0681
L9.3640 4.0076
" />
<path d="M9.3640 4.0076
L9.5454 4.0076
" />
<path d="M9.5454 4.0076
L9.6664 4.0681
" />
<path d="M9.6664 4.0681
L9.7268 4.1890
" />
<path d="M9.7268 4.1890
L9.7268 4.8543
" />
<path d="M10.8154 4.7938
L10.6945 4.8543
" />
<path d="M10.6945 4.8543
L10.4526 4.8543
" />
<path d="M10.4526 4.8543
L10.3316 4.7938
" />
<path d="M10.3316 4.7938
L10.2711 4.6728
" />
<path d="M10.2711 4.6728
L10.2711 4.1890
" />
<path d="M10.2711 4.1890
L10.3316 4.0681
" />
<path d="M10.3316 4.0681
L10.4526 4.0076
" />
<path d="M10.4526 4.0076
L10.6945 4.0076
" />
<path d="M10.6945 4.0076
L10.8154 4.0681
" />
<path d="M10.8154 4.0681
L10.8759 4.1890
" />
<path d="M10.8759 4.1890
L10.8759 4.3100
" />
<path d="M10.8759 4.3100
L10.2711 4.4309
" />
<path d="M11.6016 4.8543
L11.4806 4.7938
" />
<path d="M11.4806 4.7938
L11.4202 4.6728
" />
<path d="M11.4202 4.6728
L11.4202 3.5843
" />
<path d="M12.0854 4.8543
L12.0854 4.0076
" />
<path d="M12.0854 4.1286
L12.1459 4.0681
" />
<path d="M12.1459 4.0681
L12.2668 4.0076
" />
<path d="M12.2668 4.0076
L12.4483 4.0076
" />
<path d="M12.4483 4.0076
L12.5692 4.0681
" />
<path d="M12.5692 4.0681
L12.6297 4.1890
" />
<path d="M12.6297 4.1890
L12.6297 4.8543
" />
<path d="M12.6297 4.1890
L12.6902 4.0681
" />
<path d="M12.6902 4.0681
L12.8111 4.0076
" />
<path d="M12.8111 4.0076
L12.9926 4.0076
" />
<path d="M12.9926 4.0076
L13.1135 4.0681
" />
<path d="M13.1135 4.0681
L13.1740 4.1890
" />
<path d="M13.1740 4.1890
L13.1740 4.8543
" />
<path d="M14.3230 4.8543
L14.3230 4.1890
" />
<path d="M14.3230 4.1890
L14.2626 4.0681
" />
<path d="M14.2626 4.0681
L14.1416 4.0076
" />
<path d="M14.1416 4.0076
L13.8997 4.0076
" />
<path d="M13.8997 4.0076
L13.7787 4.0681
" />
<path d="M14.3230 4.7938
L14.2021 4.8543
" />
<path d="M14.2021 4.8543
L13.8997 4.8543
" />
<path d="M13.8997 4.8543
L13.7787 4.7938
" />
<path d="M13.7787 4.7938
L13.7183 4.6728
" />
<path d="M13.7183 4.6728
L13.7183 4.5519
" />
<path d="M13.7183 4.5519
L13.7787 4.4309
" />
<path d="M13.7787 4.4309
L13.8997 4.3705
" />
<path d="M13.8997 4.3705
L14.2021 4.3705
" />
<path d="M14.2021 4.3705
L14.3230 4.3100
" />
<path d="M14.7464 4.0076
L15.2302 4.0076
" />
<path d="M14.9278 3.5843
L14.9278 4.6728
" />
<path d="M14.9278 4.6728
L14.9883 4.7938
" />
<path d="M14.9883 4.7938
L15.1092 4.8543
" />
<path d="M15.1092 4.8543
L15.2302 4.8543
" />
<path d="M16.1373 4.7938
L16.0164 4.8543
" />
<path d="M16.0164 4.8543
L15.7745 4.8543
" />
<path d="M15.7745 4.8543
L15.6535 4.7938
" />
<path d="M15.6535 4.7938
L15.5930 4.6728
" />
<path d="M15.5930 4.6728
L15.5930 4.1890
" />
<path d="M15.5930 4.1890
L15.6535 4.0681
" />
<path d="M15.6535 4.0681
L15.7745 4.0076
" />
<path d="M15.7745 4.0076
L16.0164 4.0076
" />
<path d="M16.0164 4.0076
L16.1373 4.0681
" />
<path d="M16.1373 4.0681
L16.1978 4.1890
" />
<path d="M16.1978 4.1890
L16.1978 4.3100
" />
<path d="M16.1978 4.3100
L15.5930 4.4309
" />
<path d="M16.4397 4.9752
L17.4073 4.9752
" />
<path d="M18.3145 3.5843
L17.7097 3.5843
" />
<path d="M17.7097 3.5843
L17.6492 4.1890
" />
<path d="M17.6492 4.1890
L17.7097 4.1286
" />
<path d="M17.7097 4.1286
L17.8306 4.0681
" />
<path d="M17.8306 4.0681
L18.1330 4.0681
" />
<path d="M18.1330 4.0681
L18.2540 4.1286
" />
<path d="M18.2540 4.1286
L18.3145 4.1890
" />
<path d="M18.3145 4.1890
L18.3749 4.3100
" />
<path d="M18.3749 4.3100
L18.3749 4.6124
" />
<path d="M18.3749 4.6124
L18.3145 4.7333
" />
<path d="M18.3145 4.7333
L18.2540 4.7938
" />
<path d="M18.2540 4.7938
L18.1330 4.8543
" />
<path d="M18.1330 4.8543
L17.8306 4.8543
" />
<path d="M17.8306 4.8543
L17.7097 4.7938
" />
<path d="M17.7097 4.7938
L17.6492 4.7333
" />
<path d="M18.7983 3.5843
L19.5845 3.5843
" />
<path d="M19.5845 3.5843
L19.1611 4.0681
" />
<path d="M19.1611 4.0681
L19.3426 4.0681
" />
<path d="M19.3426 4.0681
L19.4635 4.1286
" />
<path d="M19.4635 4.1286
L19.5240 4.1890
" />
<path d="M19.5240 4.1890
L19.5845 4.3100
" />
<path d="M19.5845 4.3100
L19.5845 4.6124
" />
<path d="M19.5845 4.6124
L19.5240 4.7333
" />
<path d="M19.5240 4.7333
L19.4635 4.7938
" />
<path d="M19.4635 4.7938
L19.3426 4.8543
" />
<path d="M19.3426 4.8543
L18.9797 4.8543
" />
<path d="M18.9797 4.8543
L18.8587 4.7938
" />
<path d="M18.8587 4.7938
L18.7983 4.7333
" />
<path d="M20.0078 3.5843
L20.8545 3.5843
" />
<path d="M20.8545 3.5843
L20.3102 4.8543
" />
<path d="M21.5197 4.1286
L21.3987 4.0681
" />
<path d="M21.3987 4.0681
L21.3383 4.0076
" />
<path d="M21.3383 4.0076
L21.2778 3.8867
" />
<path d="M21.2778 3.8867
L21.2778 3.8262
" />
<path d="M21.2778 3.8262
L21.3383 3.7052
" />
<path d="M21.3383 3.7052
L21.3987 3.6447
" />
<path d="M21.3987 3.6447
L21.5197 3.5843
" />
<path d="M21.5197 3.5843
L21.7616 3.5843
" />
<path d="M21.7616 3.5843
L21.8826 3.6447
" />
<path d="M21.8826 3.6447
L21.9430 3.7052
" />
<path d="M21.9430 3.7052
L22.0035 3.8262
" />
<path d="M22.0035 3.8262
L22.0035 3.8867
" />
<path d="M22.0035 3.8867
L21.9430 4.0076
" />
<path d="M21.9430 4.0076
L21.8826 4.0681
" />
<path d="M21.8826 4.0681
L21.7616 4.1286
" />
<path d="M21.7616 4.1286
L21.5197 4.1286
" />
<path d="M21.5197 4.1286
L21.3987 4.1890
" />
<path d="M21.3987 4.1890
L21.3383 4.2495
" />
<path d="M21.3383 4.2495
L21.2778 4.3705
" />
<path d="M21.2778 4.3705
L21.2778 4.6124
" />
<path d="M21.2778 4.6124
L21.3383 4.7333
" />
<path d="M21.3383 4.7333
L21.3987 4.7938
" />
<path d="M21.3987 4.7938
L21.5197 4.8543
" />
<path d="M21.5197 4.8543
L21.7616 4.8543
" />
<path d="M21.7616 4.8543
L21.8826 4.7938
" />
<path d="M21.8826 4.7938
L21.9430 4.7333
" />
<path d="M21.9430 4.7333
L22.0035 4.6124
" />
<path d="M22.0035 4.6124
L22.0035 4.3705
" />
<path d="M22.0035 4.3705
L21.9430 4.2495
" />
<path d="M21.9430 4.2495
L21.8826 4.1890
" />
<path d="M21.8826 4.1890
L21.7616 4.1286
" />
<path d="M22.7897 3.5843
L22.9107 3.5843
" />
<path d="M22.9107 3.5843
L23.0316 3.6447
" />
<path d="M23.0316 3.6447
L23.0921 3.7052
" />
<path d="M23.0921 3.7052
L23.1526 3.8262
" />
<path d="M23.1526 3.8262
L23.2130 4.0681
" />
<path d="M23.2130 4.0681
L23.2130 4.3705
" />
<path d="M23.2130 4.3705
L23.1526 4.6124
" />
<path d="M23.1526 4.6124
L23.0921 4.7333
" />
<path d="M23.0921 4.7333
L23.0316 4.7938
" />
<path d="M23.0316 4.7938
L22.9107 4.8543
" />
<path d="M22.9107 4.8543
L22.7897 4.8543
" />
<path d="M22.7897 4.8543
L22.6687 4.7938
" />
<path d="M22.6687 4.7938
L22.6083 4.7333
" />
<path d="M22.6083 4.7333
L22.5478 4.6124
" />
<path d="M22.5478 4.6124
L22.4873 4.3705
" />
<path d="M22.4873 4.3705
L22.4873 4.0681
" />
<path d="M22.4873 4.0681
L22.5478 3.8262
" />
<path d="M22.5478 3.8262
L22.6083 3.7052
" />
<path d="M22.6083 3.7052
L22.6687 3.6447
" />
<path d="M22.6687 3.6447
L22.7897 3.5843
" />
<path d="M23.7573 4.3705
L24.7249 4.3705
" />
<path d="M25.9949 4.8543
L25.2692 4.8543
" />
<path d="M25.6321 4.8543
L25.6321 3.5843
" />
<path d="M25.6321 3.5843
L25.5111 3.7657
" />
<path d="M25.5111 3.7657
L25.3902 3.8867
" />
<path d="M25.3902 3.8867
L25.2692 3.9471
" />
<path d="M26.7811 3.5843
L26.9021 3.5843
" />
<path d="M26.9021 3.5843
L27.0230 3.6447
" />
<path d="M27.0230 3.6447
L27.0835 3.7052
" />
<path d="M27.0835 3.7052
L27.1440 3.8262
" />
<path d="M27.1440 3.8262
L27.2045 4.0681
" />
<path d="M27.2045 4.0681
L27.2045 4.3705
" />
<path d="M27.2045 4.3705
L27.1440 4.6124
" />
<path d="M27.1440 4.6124
L27.0835 4.7333
" />
<path d="M27.0835 4.7333
L27.0230 4.7938
" />
<path d="M27.0230 4.7938
L26.9021 4.8543
" />
<path d="M26.9021 4.8543
L26.7811 4.8543
" />
<path d="M26.7811 4.8543
L26.6602 4.7938
" />
<path d="M26.6602 4.7938
L26.5997 4.7333
" />
<path d="M26.5997 4.7333
L26.5392 4.6124
" />
<path d="M26.5392 4.6124
L26.4787 4.3705
" />
<path d="M26.4787 4.3705
L26.4787 4.0681
" />
<path d="M26.4787 4.0681
L26.5392 3.8262
" />
<path d="M26.5392 3.8262
L26.5997 3.7052
" />
<path d="M26.5997 3.7052
L26.6602 3.6447
" />
<path d="M26.6602 3.6447
L26.7811 3.5843
" />
<path d="M27.6278 3.5843
L28.4745 3.5843
" />
<path d="M28.4745 3.5843
L27.9302 4.8543
" />
<path d="M29.2002 3.5843
L29.3211 3.5843
" />
<path d="M29.3211 3.5843
L29.4421 3.6447
" />
<path d="M29.4421 3.6447
L29.5026 3.7052
" />
<path d="M29.5026 3.7052
L29.5630 3.8262
" />
<path d="M29.5630 3.8262
L29.6235 4.0681
" />
<path d="M29.6235 4.0681
L29.6235 4.3705
" />
<path d="M29.6235 4.3705
L29.5630 4.6124
" />
<path d="M29.5630 4.6124
L29.5026 4.7333
" />
<path d="M29.5026 4.7333
L29.4421 4.7938
" />
<path d="M29.4421 4.7938
L29.3211 4.8543
" />
<path d="M29.3211 4.8543
L29.2002 4.8543
" />
<path d="M29.2002 4.8543
L29.0792 4.7938
" />
<path d="M29.0792 4.7938
L29.0187 4.7333
" />
<path d="M29.0187 4.7333
L28.9583 4.6124
" />
<path d="M28.9583 4.6124
L28.8978 4.3705
" />
<path d="M28.8978 4.3705
L28.8978 4.0681
" />
<path d="M28.8978 4.0681
L28.9583 3.8262
" />
<path d="M28.9583 3.8262
L29.0187 3.7052
" />
<path d="M29.0187 3.7052
L29.0792 3.6447
" />
<path d="M29.0792 3.6447
L29.2002 3.5843
" />
<path d="M29.8654 4.9752
L30.8330 4.9752
" />
<path d="M31.8006 4.8543
L31.0749 4.8543
" />
<path d="M31.4378 4.8543
L31.4378 3.5843
" />
<path d="M31.4378 3.5843
L31.3168 3.7657
" />
<path d="M31.3168 3.7657
L31.1959 3.8867
" />
<path d="M31.1959 3.8867
L31.0749 3.9471
" />
<path d="M32.2240 4.8543
L32.8892 4.0076
" />
<path d="M32.2240 4.0076
L32.8892 4.8543
" />
<path d="M34.0383 4.8543
L33.3126 4.8543
" />
<path d="M33.6754 4.8543
L33.6754 3.5843
" />
<path d="M33.6754 3.5843
L33.5545 3.7657
" />
<path d="M33.5545 3.7657
L33.4335 3.8867
" />
<path d="M33.4335 3.8867
L33.3126 3.9471
" />
<path d="M34.8245 3.5843
L34.9454 3.5843
" />
<path d="M34.9454 3.5843
L35.0664 3.6447
" />
<path d="M35.0664 3.6447
L35.1268 3.7052
" />
<path d="M35.1268 3.7052
L35.1873 3.8262
" />
<path d="M35.1873 3.8262
L35.2478 4.0681
" />
<path d="M35.2478 4.0681
L35.2478 4.3705
" />
<path d="M35.2478 4.3705
L35.1873 4.6124
" />
<path d="M35.1873 4.6124
L35.1268 4.7333
" />
<path d="M35.1268 4.7333
L35.0664 4.7938
" />
<path d="M35.0664 4.7938
L34.9454 4.8543
" />
<path d="M34.9454 4.8543
L34.8245 4.8543
" />
<path d="M34.8245 4.8543
L34.7035 4.7938
" />
<path d="M34.7035 4.7938
L34.6430 4.7333
" />
<path d="M34.6430 4.7333
L34.5826 4.6124
" />
<path d="M34.5826 4.6124
L34.5221 4.3705
" />
<path d="M34.5221 4.3705
L34.5221 4.0681
" />
<path d="M34.5221 4.0681
L34.5826 3.8262
" />
<path d="M34.5826 3.8262
L34.6430 3.7052
" />
<path d="M34.6430 3.7052
L34.7035 3.6447
" />
<path d="M34.7035 3.6447
L34.8245 3.5843
" />
<path d="M35.7921 4.3705
L36.7597 4.3705
" />
<path d="M38.0297 4.8543
L37.3040 4.8543
" />
<path d="M37.6668 4.8543
L37.6668 3.5843
" />
<path d="M37.6668 3.5843
L37.5459 3.7657
" />
<path d="M37.5459 3.7657
L37.4249 3.8867
" />
<path d="M37.4249 3.8867
L37.3040 3.9471
" />
<path d="M38.5740 4.8543
L38.5740 3.5843
" />
<path d="M38.5740 3.5843
L38.9973 4.4914
" />
<path d="M38.9973 4.4914
L39.4206 3.5843
" />
<path d="M39.4206 3.5843
L39.4206 4.8543
" />
<path d="M40.0254 4.8543
L40.0254 3.5843
" />
<path d="M40.0254 3.5843
L40.5092 3.5843
" />
<path d="M40.5092 3.5843
L40.6302 3.6447
" />
<path d="M40.6302 3.6447
L40.6907 3.7052
" />
<path d="M40.6907 3.7052
L40.7511 3.8262
" />
<path d="M40.7511 3.8262
L40.7511 4.0076
" />
<path d="M40.7511 4.0076
L40.6907 4.1286
" />
<path d="M40.6907 4.1286
L40.6302 4.1890
" />
<path d="M40.6302 4.1890
L40.5092 4.2495
" />
<path d="M40.5092 4.2495
L40.0254 4.2495
" />
<path d="M40.9930 4.9752
L41.9607 4.9752
" />
<path d="M42.2630 4.8543
L42.2630 3.5843
" />
<path d="M42.2630 3.5843
L42.7468 3.5843
" />
<path d="M42.7468 3.5843
L42.8678 3.6447
" />
<path d="M42.8678 3.6447
L42.9283 3.7052
" />
<path d="M42.9283 3.7052
L42.9887 3.8262
" />
<path d="M42.9887 3.8262
L42.9887 4.0076
" />
<path d="M42.9887 4.0076
L42.9283 4.1286
" />
<path d="M42.9283 4.1286
L42.8678 4.1890
" />
<path d="M42.8678 4.1890
L42.7468 4.2495
" />
<path d="M42.7468 4.2495
L42.2630 4.2495
" />
<path d="M44.1983 4.8543
L43.4726 4.8543
" />
<path d="M43.8354 4.8543
L43.8354 3.5843
" />
<path d="M43.8354 3.5843
L43.7145 3.7657
" />
<path d="M43.7145 3.7657
L43.5935 3.8867
" />
<path d="M43.5935 3.8867
L43.4726 3.9471
" />
<path d="M44.7426 4.7333
L44.8030 4.7938
" />
<path d="M44.8030 4.7938
L44.7426 4.8543
" />
<path d="M44.7426 4.8543
L44.6821 4.7938
" />
<path d="M44.6821 4.7938
L44.7426 4.7333
" />
<path d="M44.7426 4.7333
L44.7426 4.8543
" />
<path d="M45.2868 3.7052
L45.3473 3.6447
" />
<path d="M45.3473 3.6447
L45.4683 3.5843
" />
<path d="M45.4683 3.5843
L45.7707 3.5843
" />
<path d="M45.7707 3.5843
L45.8916 3.6447
" />
<path d="M45.8916 3.6447
L45.9521 3.7052
" />
<path d="M45.9521 3.7052
L46.0126 3.8262
" />
<path d="M46.0126 3.8262
L46.0126 3.9471
" />
<path d="M46.0126 3.9471
L45.9521 4.1286
" />
<path d="M45.9521 4.1286
L45.2264 4.8543
" />
<path d="M45.2264 4.8543
L46.0126 4.8543
" />
<path d="M47.1616 3.5843
L46.5568 3.5843
" />
<path d="M46.5568 3.5843
L46.4964 4.1890
" />
<path d="M46.4964 4.1890
L46.5568 4.1286
" />
<path d="M46.5568 4.1286
L46.6778 4.0681
" />
<path d="M46.6778 4.0681
L46.9802 4.0681
" />
<path d="M46.9802 4.0681
L47.1011 4.1286
" />
<path d="M47.1011 4.1286
L47.1616 4.1890
" />
<path d="M47.1616 4.1890
L47.2221 4.3100
" />
<path d="M47.2221 4.3100
L47.2221 4.6124
" />
<path d="M47.2221 4.6124
L47.1616 4.7333
" />
<path d="M47.1616 4.7333
L47.1011 4.7938
" />
<path d="M47.1011 4.7938
L46.9802 4.8543
" />
<path d="M46.9802 4.8543
L46.6778 4.8543
" />
<path d="M46.6778 4.8543
L46.5568 4.7938
" />
<path d="M46.5568 4.7938
L46.4964 4.7333
" />
<path d="M47.7664 4.8543
L47.7664 4.0076
" />
<path d="M47.7664 4.1286
L47.8268 4.0681
" />
<path d="M47.8268 4.0681
L47.9478 4.0076
" />
<path d="M47.9478 4.0076
L48.1292 4.0076
" />
<path d="M48.1292 4.0076
L48.2502 4.0681
" />
<path d="M48.2502 4.0681
L48.3107 4.1890
" />
<path d="M48.3107 4.1890
L48.3107 4.8543
" />
<path d="M48.3107 4.1890
L48.3711 4.0681
" />
<path d="M48.3711 4.0681
L48.4921 4.0076
" />
<path d="M48.4921 4.0076
L48.6735 4.0076
" />
<path d="M48.6735 4.0076
L48.7945 4.0681
" />
<path d="M48.7945 4.0681
L48.8549 4.1890
" />
<path d="M48.8549 4.1890
L48.8549 4.8543
" />
<path d="M49.4597 4.8543
L49.4597 4.0076
" />
<path d="M49.4597 4.1286
L49.5202 4.0681
" />
<path d="M49.5202 4.0681
L49.6411 4.0076
" />
<path d="M49.6411 4.0076
L49.8226 4.0076
" />
<path d="M49.8226 4.0076
L49.9435 4.0681
" />
<path d="M49.9435 4.0681
L50.0040 4.1890
" />
<path d="M50.0040 4.1890
L50.0040 4.8543
" />
<path d="M50.0040 4.1890
L50.0645 4.0681
" />
<path d="M50.0645 4.0681
L50.1854 4.0076
" />
<path d="M50.1854 4.0076
L50.3668 4.0076
" />
<path d="M50.3668 4.0076
L50.4878 4.0681
" />
<path d="M50.4878 4.0681
L50.5483 4.1890
" />
<path d="M50.5483 4.1890
L50.5483 4.8543
" />
<path d="M50.8507 4.9752
L51.8183 4.9752
" />
<path d="M52.1206 4.8543
L52.1206 3.5843
" />
<path d="M52.1206 4.1890
L52.8464 4.1890
" />
<path d="M52.8464 4.8543
L52.8464 3.5843
" />
<path d="M53.6326 4.8543
L53.5116 4.7938
" />
<path d="M53.5116 4.7938
L53.4511 4.7333
" />
<path d="M53.4511 4.7333
L53.3907 4.6124
" />
<path d="M53.3907 4.6124
L53.3907 4.2495
" />
<path d="M53.3907 4.2495
L53.4511 4.1286
" />
<path d="M53.4511 4.1286
L53.5116 4.0681
" />
<path d="M53.5116 4.0681
L53.6326 4.0076
" />
<path d="M53.6326 4.0076
L53.8140 4.0076
" />
<path d="M53.8140 4.0076
L53.9349 4.0681
" />
<path d="M53.9349 4.0681
L53.9954 4.1286
" />
<path d="M53.9954 4.1286
L54.0559 4.2495
" />
<path d="M54.0559 4.2495
L54.0559 4.6124
" />
<path d="M54.0559 4.6124
L53.9954 4.7333
" />
<path d="M53.9954 4.7333
L53.9349 4.7938
" />
<path d="M53.9349 4.7938
L53.8140 4.8543
" />
<path d="M53.8140 4.8543
L53.6326 4.8543
" />
<path d="M54.6002 4.8543
L54.6002 4.0076
" />
<path d="M54.6002 4.2495
L54.6607 4.1286
" />
<path d="M54.6607 4.1286
L54.7211 4.0681
" />
<path d="M54.7211 4.0681
L54.8421 4.0076
" />
<path d="M54.8421 4.0076
L54.9630 4.0076
" />
<path d="M55.3864 4.8543
L55.3864 4.0076
" />
<path d="M55.3864 3.5843
L55.3259 3.6447
" />
<path d="M55.3259 3.6447
L55.3864 3.7052
" />
<path d="M55.3864 3.7052
L55.4468 3.6447
" />
<path d="M55.4468 3.6447
L55.3864 3.5843
" />
<path d="M55.3864 3.5843
L55.3864 3.7052
" />
<path d="M55.8702 4.0076
L56.5354 4.0076
" />
<path d="M56.5354 4.0076
L55.8702 4.8543
" />
<path d="M55.8702 4.8543
L56.5354 4.8543
" />
<path d="M57.2006 4.8543
L57.0797 4.7938
" />
<path d="M57.0797 4.7938
L57.0192 4.7333
" />
<path d="M57.0192 4.7333
L56.9587 4.6124
" />
<path d="M56.9587 4.6124
L56.9587 4.2495
" />
<path d="M56.9587 4.2495
L57.0192 4.1286
" />
<path d="M57.0192 4.1286
L57.0797 4.0681
" />
<path d="M57.0797 4.0681
L57.2006 4.0076
" />
<path d="M57.2006 4.0076
L57.3821 4.0076
" />
<path d="M57.3821 4.0076
L57.5030 4.0681
" />
<path d="M57.5030 4.0681
L57.5635 4.1286
" />
<path d="M57.5635 4.1286
L57.6240 4.2495
" />
<path d="M57.6240 4.2495
L57.6240 4.6124
" />
<path d="M57.6240 4.6124
L57.5635 4.7333
" />
<path d="M57.5635 4.7333
L57.5030 4.7938
" />
<path d="M57.5030 4.7938
L57.3821 4.8543
" />
<path d="M57.3821 4.8543
L57.2006 4.8543
" />
<path d="M58.1683 4.0076
L58.1683 4.8543
" />
<path d="M58.1683 4.1286
L58.2287 4.0681
" />
<path d="M58.2287 4.0681
L58.3497 4.0076
" />
<path d="M58.3497 4.0076
L58.5311 4.0076
" />
<path d="M58.5311 4.0076
L58.6521 4.0681
" />
<path d="M58.6521 4.0681
L58.7126 4.1890
" />
<path d="M58.7126 4.1890
L58.7126 4.8543
" />
<path d="M59.1359 4.0076
L59.6197 4.0076
" />
<path d="M59.3173 3.5843
L59.3173 4.6728
" />
<path d="M59.3173 4.6728
L59.3778 4.7938
" />
<path d="M59.3778 4.7938
L59.4987 4.8543
" />
<path d="M59.4987 4.8543
L59.6197 4.8543
" />
<path d="M60.5873 4.8543
L60.5873 4.1890
" />
<path d="M60.5873 4.1890
L60.5268 4.0681
" />
<path d="M60.5268 4.0681
L60.4059 4.0076
" />
<path d="M60.4059 4.0076
L60.1640 4.0076
" />
<path d="M60.1640 4.0076
L60.0430 4.0681
" />
<path d="M60.5873 4.7938
L60.4664 4.8543
" />
<path d="M60.4664 4.8543
L60.1640 4.8543
" />
<path d="M60.1640 4.8543
L60.0430 4.7938
" />
<path d="M60.0430 4.7938
L59.9826 4.6728
" />
<path d="M59.9826 4.6728
L59.9826 4.5519
" />
<path d="M59.9826 4.5519
L60.0430 4.4309
" />
<path d="M60.0430 4.4309
L60.1640 4.3705
" />
<path d="M60.1640 4.3705
L60.4664 4.3705
" />
<path d="M60.4664 4.3705
L60.5873 4.3100
" />
<path d="M61.3735 4.8543
L61.2526 4.7938
" />
<path d="M61.2526 4.7938
L61.1921 4.6728
" />
<path d="M61.1921 4.6728
L61.1921 3.5843
" />
</g></g>
<g style="fill:none; 
stroke:#AFAFAF; stroke-width:0.1500; stroke-opacity:1; 
stroke-linecap:round; stroke-linejoin:round;">
<text x="30.8330" y="5.4750"
textLength="4.5357" font-size="1.3333" lengthAdjust="spacingAndGlyphs"
text-anchor="middle" opacity="0">REF**</text>
<g class="stroked-text"><desc>REF**</desc>
<path d="M29.4997 5.4298
L29.1664 4.9536
" />
<path d="M28.9283 5.4298
L28.9283 4.4298
" />
<path d="M28.9283 4.4298
L29.3092 4.4298
" />
<path d="M29.3092 4.4298
L29.4045 4.4774
" />
<path d="M29.4045 4.4774
L29.4521 4.5251
" />
<path d="M29.4521 4.5251
L29.4997 4.6203
" />
<path d="M29.4997 4.6203
L29.4997 4.7632
" />
<path d="M29.4997 4.7632
L29.4521 4.8584
" />
<path d="M29.4521 4.8584
L29.4045 4.9060
" />
<path d="M29.4045 4.9060
L29.3092 4.9536
" />
<path d="M29.3092 4.9536
L28.9283 4.9536
" />
<path d="M29.9283 4.9060
L30.2616 4.9060
" />
<path d="M30.4045 5.4298
L29.9283 5.4298
" />
<path d="M29.9283 5.4298
L29.9283 4.4298
" />
<path d="M29.9283 4.4298
L30.4045 4.4298
" />
<path d="M31.1664 4.9060
L30.8330 4.9060
" />
<path d="M30.8330 5.4298
L30.8330 4.4298
" />
<path d="M30.8330 4.4298
L31.3092 4.4298
" />
<path d="M31.8330 4.4298
L31.8330 4.6679
" />
<path d="M31.5949 4.5727
L31.8330 4.6679
" />
<path d="M31.8330 4.6679
L32.0711 4.5727
" />
<path d="M31.6902 4.8584
L31.8330 4.6679
" />
<path d="M31.8330 4.6679
L31.9759 4.8584
" />
<path d="M32.5949 4.4298
L32.5949 4.6679
" />
<path d="M32.3568 4.5727
L32.5949 4.6679
" />
<path d="M32.5949 4.6679
L32.8330 4.5727
" />
<path d="M32.4521 4.8584
L32.5949 4.6679
" />
<path d="M32.5949 4.6679
L32.7378 4.8584
" />
</g></g>
<g style="fill:none; 
stroke:#AFAFAF; stroke-width:0.1000; stroke-opacity:1; 
stroke-linecap:round; stroke-linejoin:round;">
<path d="M22.0080 2.0250
L22.0080 7.9250
" />
<path d="M22.0080 2.0250
L39.6580 2.0250
" />
<path d="M22.0080 7.9250
L23.9080 7.9250
" />
<path d="M23.9080 7.9250
L24.3080 6.9250
" />
<path d="M24.3080 6.9250
L37.3580 6.9250
" />
<path d="M24.7080 2.0250
L25.2080 2.7321
" />
<path d="M25.2080 2.7321
L25.7080 2.0250
" />
<path d="M37.3580 6.9250
L37.7580 7.9250
" />
<path d="M37.7580 7.9250
L39.6580 7.9250
" />
<path d="M39.6580 2.0250
L39.6580 7.9250
" />
</g> 
</svg>
