<?xml version="1.0" standalone="no"?>
 <!DOCTYPE svg PUBLIC "-//W3C//DTD SVG 1.1//EN" 
 "http://www.w3.org/Graphics/SVG/1.1/DTD/svg11.dtd"> 
<svg
  xmlns:svg="http://www.w3.org/2000/svg"
  xmlns="http://www.w3.org/2000/svg"
  xmlns:xlink="http://www.w3.org/1999/xlink"
  version="1.1"
  width="29.8958mm" height="6.4008mm" viewBox="0.0000 0.0000 29.8958 6.4008">
<title>SVG Image created as working-brd.svg date 2024/04/22 01:18:06 </title>
  <desc>Image generated by PCBNEW </desc>
<g style="fill:#000000; fill-opacity:1.0000;stroke:#000000; stroke-opacity:1.0000;
stroke-linecap:round; stroke-linejoin:round;"
 transform="translate(0 0) scale(1 1)">
<path style="fill:#C83434; fill-opacity:1.0000; stroke:none;fill-rule:evenodd;"
d="M 8.7330,1.1500
8.7444,1.0926
8.7770,1.0439
8.8256,1.0114
8.8830,1.0000
10.3830,1.0000
10.4404,1.0114
10.4891,1.0439
10.5216,1.0926
10.5330,1.1500
10.5330,1.4500
10.5216,1.5074
10.4891,1.5561
10.4404,1.5886
10.3830,1.6000
8.8830,1.6000
8.8256,1.5886
8.7770,1.5561
8.7444,1.5074
8.7330,1.4500
Z" /> 
<path style="fill:#C83434; fill-opacity:1.0000; stroke:none;fill-rule:evenodd;"
d="M 8.7330,2.4200
8.7444,2.3626
8.7770,2.3139
8.8256,2.2814
8.8830,2.2700
10.3830,2.2700
10.4404,2.2814
10.4891,2.3139
10.5216,2.3626
10.5330,2.4200
10.5330,2.7200
10.5216,2.7774
10.4891,2.8261
10.4404,2.8586
10.3830,2.8700
8.8830,2.8700
8.8256,2.8586
8.7770,2.8261
8.7444,2.7774
8.7330,2.7200
Z" /> 
<path style="fill:#C83434; fill-opacity:1.0000; stroke:none;fill-rule:evenodd;"
d="M 8.7330,3.6900
8.7444,3.6326
8.7770,3.5839
8.8256,3.5514
8.8830,3.5400
10.3830,3.5400
10.4404,3.5514
10.4891,3.5839
10.5216,3.6326
10.5330,3.6900
10.5330,3.9900
10.5216,4.0474
10.4891,4.0961
10.4404,4.1286
10.3830,4.1400
8.8830,4.1400
8.8256,4.1286
8.7770,4.0961
8.7444,4.0474
8.7330,3.9900
Z" /> 
<path style="fill:#C83434; fill-opacity:1.0000; stroke:none;fill-rule:evenodd;"
d="M 8.7330,4.9600
8.7444,4.9026
8.7770,4.8539
8.8256,4.8214
8.8830,4.8100
10.3830,4.8100
10.4404,4.8214
10.4891,4.8539
10.5216,4.9026
10.5330,4.9600
10.5330,5.2600
10.5216,5.3174
10.4891,5.3661
10.4404,5.3986
10.3830,5.4100
8.8830,5.4100
8.8256,5.3986
8.7770,5.3661
8.7444,5.3174
8.7330,5.2600
Z" /> 
<path style="fill:#C83434; fill-opacity:1.0000; stroke:none;fill-rule:evenodd;"
d="M 19.3830,4.9600
19.3944,4.9026
19.4270,4.8539
19.4756,4.8214
19.5330,4.8100
21.0330,4.8100
21.0904,4.8214
21.1391,4.8539
21.1716,4.9026
21.1830,4.9600
21.1830,5.2600
21.1716,5.3174
21.1391,5.3661
21.0904,5.3986
21.0330,5.4100
19.5330,5.4100
19.4756,5.3986
19.4270,5.3661
19.3944,5.3174
19.3830,5.2600
Z" /> 
<path style="fill:#C83434; fill-opacity:1.0000; stroke:none;fill-rule:evenodd;"
d="M 19.3830,3.6900
19.3944,3.6326
19.4270,3.5839
19.4756,3.5514
19.5330,3.5400
21.0330,3.5400
21.0904,3.5514
21.1391,3.5839
21.1716,3.6326
21.1830,3.6900
21.1830,3.9900
21.1716,4.0474
21.1391,4.0961
21.0904,4.1286
21.0330,4.1400
19.5330,4.1400
19.4756,4.1286
19.4270,4.0961
19.3944,4.0474
19.3830,3.9900
Z" /> 
<path style="fill:#C83434; fill-opacity:1.0000; stroke:none;fill-rule:evenodd;"
d="M 19.3830,2.4200
19.3944,2.3626
19.4270,2.3139
19.4756,2.2814
19.5330,2.2700
21.0330,2.2700
21.0904,2.2814
21.1391,2.3139
21.1716,2.3626
21.1830,2.4200
21.1830,2.7200
21.1716,2.7774
21.1391,2.8261
21.0904,2.8586
21.0330,2.8700
19.5330,2.8700
19.4756,2.8586
19.4270,2.8261
19.3944,2.7774
19.3830,2.7200
Z" /> 
<path style="fill:#C83434; fill-opacity:1.0000; stroke:none;fill-rule:evenodd;"
d="M 19.3830,1.1500
19.3944,1.0926
19.4270,1.0439
19.4756,1.0114
19.5330,1.0000
21.0330,1.0000
21.0904,1.0114
21.1391,1.0439
21.1716,1.0926
21.1830,1.1500
21.1830,1.4500
21.1716,1.5074
21.1391,1.5561
21.0904,1.5886
21.0330,1.6000
19.5330,1.6000
19.4756,1.5886
19.4270,1.5561
19.3944,1.5074
19.3830,1.4500
Z" /> 
<path style="fill:#D864FF; fill-opacity:0.4000; stroke:none;fill-rule:evenodd;"
d="M 8.7330,1.1500
8.7444,1.0926
8.7770,1.0439
8.8256,1.0114
8.8830,1.0000
10.3830,1.0000
10.4404,1.0114
10.4891,1.0439
10.5216,1.0926
10.5330,1.1500
10.5330,1.4500
10.5216,1.5074
10.4891,1.5561
10.4404,1.5886
10.3830,1.6000
8.8830,1.6000
8.8256,1.5886
8.7770,1.5561
8.7444,1.5074
8.7330,1.4500
Z" /> 
<path style="fill:#D864FF; fill-opacity:0.4000; stroke:none;fill-rule:evenodd;"
d="M 8.7330,2.4200
8.7444,2.3626
8.7770,2.3139
8.8256,2.2814
8.8830,2.2700
10.3830,2.2700
10.4404,2.2814
10.4891,2.3139
10.5216,2.3626
10.5330,2.4200
10.5330,2.7200
10.5216,2.7774
10.4891,2.8261
10.4404,2.8586
10.3830,2.8700
8.8830,2.8700
8.8256,2.8586
8.7770,2.8261
8.7444,2.7774
8.7330,2.7200
Z" /> 
<path style="fill:#D864FF; fill-opacity:0.4000; stroke:none;fill-rule:evenodd;"
d="M 8.7330,3.6900
8.7444,3.6326
8.7770,3.5839
8.8256,3.5514
8.8830,3.5400
10.3830,3.5400
10.4404,3.5514
10.4891,3.5839
10.5216,3.6326
10.5330,3.6900
10.5330,3.9900
10.5216,4.0474
10.4891,4.0961
10.4404,4.1286
10.3830,4.1400
8.8830,4.1400
8.8256,4.1286
8.7770,4.0961
8.7444,4.0474
8.7330,3.9900
Z" /> 
<path style="fill:#D864FF; fill-opacity:0.4000; stroke:none;fill-rule:evenodd;"
d="M 8.7330,4.9600
8.7444,4.9026
8.7770,4.8539
8.8256,4.8214
8.8830,4.8100
10.3830,4.8100
10.4404,4.8214
10.4891,4.8539
10.5216,4.9026
10.5330,4.9600
10.5330,5.2600
10.5216,5.3174
10.4891,5.3661
10.4404,5.3986
10.3830,5.4100
8.8830,5.4100
8.8256,5.3986
8.7770,5.3661
8.7444,5.3174
8.7330,5.2600
Z" /> 
<path style="fill:#D864FF; fill-opacity:0.4000; stroke:none;fill-rule:evenodd;"
d="M 19.3830,4.9600
19.3944,4.9026
19.4270,4.8539
19.4756,4.8214
19.5330,4.8100
21.0330,4.8100
21.0904,4.8214
21.1391,4.8539
21.1716,4.9026
21.1830,4.9600
21.1830,5.2600
21.1716,5.3174
21.1391,5.3661
21.0904,5.3986
21.0330,5.4100
19.5330,5.4100
19.4756,5.3986
19.4270,5.3661
19.3944,5.3174
19.3830,5.2600
Z" /> 
<path style="fill:#D864FF; fill-opacity:0.4000; stroke:none;fill-rule:evenodd;"
d="M 19.3830,3.6900
19.3944,3.6326
19.4270,3.5839
19.4756,3.5514
19.5330,3.5400
21.0330,3.5400
21.0904,3.5514
21.1391,3.5839
21.1716,3.6326
21.1830,3.6900
21.1830,3.9900
21.1716,4.0474
21.1391,4.0961
21.0904,4.1286
21.0330,4.1400
19.5330,4.1400
19.4756,4.1286
19.4270,4.0961
19.3944,4.0474
19.3830,3.9900
Z" /> 
<path style="fill:#D864FF; fill-opacity:0.4000; stroke:none;fill-rule:evenodd;"
d="M 19.3830,2.4200
19.3944,2.3626
19.4270,2.3139
19.4756,2.2814
19.5330,2.2700
21.0330,2.2700
21.0904,2.2814
21.1391,2.3139
21.1716,2.3626
21.1830,2.4200
21.1830,2.7200
21.1716,2.7774
21.1391,2.8261
21.0904,2.8586
21.0330,2.8700
19.5330,2.8700
19.4756,2.8586
19.4270,2.8261
19.3944,2.7774
19.3830,2.7200
Z" /> 
<path style="fill:#D864FF; fill-opacity:0.4000; stroke:none;fill-rule:evenodd;"
d="M 19.3830,1.1500
19.3944,1.0926
19.4270,1.0439
19.4756,1.0114
19.5330,1.0000
21.0330,1.0000
21.0904,1.0114
21.1391,1.0439
21.1716,1.0926
21.1830,1.1500
21.1830,1.4500
21.1716,1.5074
21.1391,1.5561
21.0904,1.5886
21.0330,1.6000
19.5330,1.6000
19.4756,1.5886
19.4270,1.5561
19.3944,1.5074
19.3830,1.4500
Z" /> 
<path style="fill:#B4A09A; fill-opacity:0.9000; stroke:none;fill-rule:evenodd;"
d="M 8.7330,1.1500
8.7444,1.0926
8.7770,1.0439
8.8256,1.0114
8.8830,1.0000
10.3830,1.0000
10.4404,1.0114
10.4891,1.0439
10.5216,1.0926
10.5330,1.1500
10.5330,1.4500
10.5216,1.5074
10.4891,1.5561
10.4404,1.5886
10.3830,1.6000
8.8830,1.6000
8.8256,1.5886
8.7770,1.5561
8.7444,1.5074
8.7330,1.4500
Z" /> 
<path style="fill:#B4A09A; fill-opacity:0.9000; stroke:none;fill-rule:evenodd;"
d="M 8.7330,2.4200
8.7444,2.3626
8.7770,2.3139
8.8256,2.2814
8.8830,2.2700
10.3830,2.2700
10.4404,2.2814
10.4891,2.3139
10.5216,2.3626
10.5330,2.4200
10.5330,2.7200
10.5216,2.7774
10.4891,2.8261
10.4404,2.8586
10.3830,2.8700
8.8830,2.8700
8.8256,2.8586
8.7770,2.8261
8.7444,2.7774
8.7330,2.7200
Z" /> 
<path style="fill:#B4A09A; fill-opacity:0.9000; stroke:none;fill-rule:evenodd;"
d="M 8.7330,3.6900
8.7444,3.6326
8.7770,3.5839
8.8256,3.5514
8.8830,3.5400
10.3830,3.5400
10.4404,3.5514
10.4891,3.5839
10.5216,3.6326
10.5330,3.6900
10.5330,3.9900
10.5216,4.0474
10.4891,4.0961
10.4404,4.1286
10.3830,4.1400
8.8830,4.1400
8.8256,4.1286
8.7770,4.0961
8.7444,4.0474
8.7330,3.9900
Z" /> 
<path style="fill:#B4A09A; fill-opacity:0.9000; stroke:none;fill-rule:evenodd;"
d="M 8.7330,4.9600
8.7444,4.9026
8.7770,4.8539
8.8256,4.8214
8.8830,4.8100
10.3830,4.8100
10.4404,4.8214
10.4891,4.8539
10.5216,4.9026
10.5330,4.9600
10.5330,5.2600
10.5216,5.3174
10.4891,5.3661
10.4404,5.3986
10.3830,5.4100
8.8830,5.4100
8.8256,5.3986
8.7770,5.3661
8.7444,5.3174
8.7330,5.2600
Z" /> 
<path style="fill:#B4A09A; fill-opacity:0.9000; stroke:none;fill-rule:evenodd;"
d="M 19.3830,4.9600
19.3944,4.9026
19.4270,4.8539
19.4756,4.8214
19.5330,4.8100
21.0330,4.8100
21.0904,4.8214
21.1391,4.8539
21.1716,4.9026
21.1830,4.9600
21.1830,5.2600
21.1716,5.3174
21.1391,5.3661
21.0904,5.3986
21.0330,5.4100
19.5330,5.4100
19.4756,5.3986
19.4270,5.3661
19.3944,5.3174
19.3830,5.2600
Z" /> 
<path style="fill:#B4A09A; fill-opacity:0.9000; stroke:none;fill-rule:evenodd;"
d="M 19.3830,3.6900
19.3944,3.6326
19.4270,3.5839
19.4756,3.5514
19.5330,3.5400
21.0330,3.5400
21.0904,3.5514
21.1391,3.5839
21.1716,3.6326
21.1830,3.6900
21.1830,3.9900
21.1716,4.0474
21.1391,4.0961
21.0904,4.1286
21.0330,4.1400
19.5330,4.1400
19.4756,4.1286
19.4270,4.0961
19.3944,4.0474
19.3830,3.9900
Z" /> 
<path style="fill:#B4A09A; fill-opacity:0.9000; stroke:none;fill-rule:evenodd;"
d="M 19.3830,2.4200
19.3944,2.3626
19.4270,2.3139
19.4756,2.2814
19.5330,2.2700
21.0330,2.2700
21.0904,2.2814
21.1391,2.3139
21.1716,2.3626
21.1830,2.4200
21.1830,2.7200
21.1716,2.7774
21.1391,2.8261
21.0904,2.8586
21.0330,2.8700
19.5330,2.8700
19.4756,2.8586
19.4270,2.8261
19.3944,2.7774
19.3830,2.7200
Z" /> 
<path style="fill:#B4A09A; fill-opacity:0.9000; stroke:none;fill-rule:evenodd;"
d="M 19.3830,1.1500
19.3944,1.0926
19.4270,1.0439
19.4756,1.0114
19.5330,1.0000
21.0330,1.0000
21.0904,1.0114
21.1391,1.0439
21.1716,1.0926
21.1830,1.1500
21.1830,1.4500
21.1716,1.5074
21.1391,1.5561
21.0904,1.5886
21.0330,1.6000
19.5330,1.6000
19.4756,1.5886
19.4270,1.5561
19.3944,1.5074
19.3830,1.4500
Z" /> 
</g>
<g style="fill:none; 
stroke:#F2EDA1; stroke-width:0.1588; stroke-opacity:1; 
stroke-linecap:round; stroke-linejoin:round;">
<text x="14.9580" y="3.8400"
textLength="5.6651" font-size="1.6933" lengthAdjust="spacingAndGlyphs"
text-anchor="middle" opacity="0">REF**</text>
<g class="stroked-text"><desc>REF**</desc>
<path d="M13.2647 3.7843
L12.8414 3.1795
" />
<path d="M12.5390 3.7843
L12.5390 2.5143
" />
<path d="M12.5390 2.5143
L13.0228 2.5143
" />
<path d="M13.0228 2.5143
L13.1437 2.5747
" />
<path d="M13.1437 2.5747
L13.2042 2.6352
" />
<path d="M13.2042 2.6352
L13.2647 2.7562
" />
<path d="M13.2647 2.7562
L13.2647 2.9376
" />
<path d="M13.2647 2.9376
L13.2042 3.0586
" />
<path d="M13.2042 3.0586
L13.1437 3.1190
" />
<path d="M13.1437 3.1190
L13.0228 3.1795
" />
<path d="M13.0228 3.1795
L12.5390 3.1795
" />
<path d="M13.8090 3.1190
L14.2323 3.1190
" />
<path d="M14.4137 3.7843
L13.8090 3.7843
" />
<path d="M13.8090 3.7843
L13.8090 2.5143
" />
<path d="M13.8090 2.5143
L14.4137 2.5143
" />
<path d="M15.3814 3.1190
L14.9580 3.1190
" />
<path d="M14.9580 3.7843
L14.9580 2.5143
" />
<path d="M14.9580 2.5143
L15.5628 2.5143
" />
<path d="M16.2280 2.5143
L16.2280 2.8167
" />
<path d="M15.9256 2.6957
L16.2280 2.8167
" />
<path d="M16.2280 2.8167
L16.5304 2.6957
" />
<path d="M16.0466 3.0586
L16.2280 2.8167
" />
<path d="M16.2280 2.8167
L16.4095 3.0586
" />
<path d="M17.1956 2.5143
L17.1956 2.8167
" />
<path d="M16.8933 2.6957
L17.1956 2.8167
" />
<path d="M17.1956 2.8167
L17.4980 2.6957
" />
<path d="M17.0142 3.0586
L17.1956 2.8167
" />
<path d="M17.1956 2.8167
L17.3771 3.0586
" />
</g></g>
<g style="fill:none; 
stroke:#F2EDA1; stroke-width:0.1200; stroke-opacity:1; 
stroke-linecap:round; stroke-linejoin:round;">
<path d="M11.0980 0.1700
L11.0980 0.7400
" />
<path d="M11.0980 6.2400
L11.0980 5.6700
" />
<path d="M14.9580 0.1700
L11.0980 0.1700
" />
<path d="M14.9580 0.1700
L18.8180 0.1700
" />
<path d="M14.9580 6.2400
L11.0980 6.2400
" />
<path d="M14.9580 6.2400
L18.8180 6.2400
" />
<path d="M18.8180 0.1700
L18.8180 0.7400
" />
<path d="M18.8180 6.2400
L18.8180 5.6700
" />
<path style="fill:#F2EDA1; fill-opacity:1.0000; 
stroke:#F2EDA1; stroke-width:0.1200; stroke-opacity:1; 
stroke-linecap:round; stroke-linejoin:round;fill-rule:evenodd;"
d="M 9.9705,0.7400
9.7305,0.4100
10.2105,0.4100
Z" /> 
</g>
<g style="fill:none; 
stroke:#FF26E2; stroke-width:0.0500; stroke-opacity:1; 
stroke-linecap:round; stroke-linejoin:round;">
<path d="M8.4780 0.0250
L8.4780 6.3850
" />
<path d="M8.4780 6.3850
L21.4380 6.3850
" />
<path d="M21.4380 0.0250
L8.4780 0.0250
" />
<path d="M21.4380 6.3850
L21.4380 0.0250
" />
</g>
<g style="fill:none; 
stroke:#AFAFAF; stroke-width:0.1588; stroke-opacity:1; 
stroke-linecap:round; stroke-linejoin:round;">
<text x="14.9580" y="3.8400"
textLength="29.9161" font-size="1.6933" lengthAdjust="spacingAndGlyphs"
text-anchor="middle" opacity="0">SOIC-8_7.5x5.85mm_P1.27mm</text>
<g class="stroked-text"><desc>SOIC-8_7.5x5.85mm_P1.27mm</desc>
<path d="M0.3530 3.7238
L0.5345 3.7843
" />
<path d="M0.5345 3.7843
L0.8368 3.7843
" />
<path d="M0.8368 3.7843
L0.9578 3.7238
" />
<path d="M0.9578 3.7238
L1.0183 3.6633
" />
<path d="M1.0183 3.6633
L1.0787 3.5424
" />
<path d="M1.0787 3.5424
L1.0787 3.4214
" />
<path d="M1.0787 3.4214
L1.0183 3.3005
" />
<path d="M1.0183 3.3005
L0.9578 3.2400
" />
<path d="M0.9578 3.2400
L0.8368 3.1795
" />
<path d="M0.8368 3.1795
L0.5949 3.1190
" />
<path d="M0.5949 3.1190
L0.4740 3.0586
" />
<path d="M0.4740 3.0586
L0.4135 2.9981
" />
<path d="M0.4135 2.9981
L0.3530 2.8771
" />
<path d="M0.3530 2.8771
L0.3530 2.7562
" />
<path d="M0.3530 2.7562
L0.4135 2.6352
" />
<path d="M0.4135 2.6352
L0.4740 2.5747
" />
<path d="M0.4740 2.5747
L0.5949 2.5143
" />
<path d="M0.5949 2.5143
L0.8973 2.5143
" />
<path d="M0.8973 2.5143
L1.0787 2.5747
" />
<path d="M1.8649 2.5143
L2.1068 2.5143
" />
<path d="M2.1068 2.5143
L2.2278 2.5747
" />
<path d="M2.2278 2.5747
L2.3487 2.6957
" />
<path d="M2.3487 2.6957
L2.4092 2.9376
" />
<path d="M2.4092 2.9376
L2.4092 3.3609
" />
<path d="M2.4092 3.3609
L2.3487 3.6028
" />
<path d="M2.3487 3.6028
L2.2278 3.7238
" />
<path d="M2.2278 3.7238
L2.1068 3.7843
" />
<path d="M2.1068 3.7843
L1.8649 3.7843
" />
<path d="M1.8649 3.7843
L1.7440 3.7238
" />
<path d="M1.7440 3.7238
L1.6230 3.6028
" />
<path d="M1.6230 3.6028
L1.5626 3.3609
" />
<path d="M1.5626 3.3609
L1.5626 2.9376
" />
<path d="M1.5626 2.9376
L1.6230 2.6957
" />
<path d="M1.6230 2.6957
L1.7440 2.5747
" />
<path d="M1.7440 2.5747
L1.8649 2.5143
" />
<path d="M2.9535 3.7843
L2.9535 2.5143
" />
<path d="M4.2840 3.6633
L4.2235 3.7238
" />
<path d="M4.2235 3.7238
L4.0421 3.7843
" />
<path d="M4.0421 3.7843
L3.9211 3.7843
" />
<path d="M3.9211 3.7843
L3.7397 3.7238
" />
<path d="M3.7397 3.7238
L3.6187 3.6028
" />
<path d="M3.6187 3.6028
L3.5583 3.4819
" />
<path d="M3.5583 3.4819
L3.4978 3.2400
" />
<path d="M3.4978 3.2400
L3.4978 3.0586
" />
<path d="M3.4978 3.0586
L3.5583 2.8167
" />
<path d="M3.5583 2.8167
L3.6187 2.6957
" />
<path d="M3.6187 2.6957
L3.7397 2.5747
" />
<path d="M3.7397 2.5747
L3.9211 2.5143
" />
<path d="M3.9211 2.5143
L4.0421 2.5143
" />
<path d="M4.0421 2.5143
L4.2235 2.5747
" />
<path d="M4.2235 2.5747
L4.2840 2.6352
" />
<path d="M4.8283 3.3005
L5.7959 3.3005
" />
<path d="M6.5821 3.0586
L6.4611 2.9981
" />
<path d="M6.4611 2.9981
L6.4006 2.9376
" />
<path d="M6.4006 2.9376
L6.3402 2.8167
" />
<path d="M6.3402 2.8167
L6.3402 2.7562
" />
<path d="M6.3402 2.7562
L6.4006 2.6352
" />
<path d="M6.4006 2.6352
L6.4611 2.5747
" />
<path d="M6.4611 2.5747
L6.5821 2.5143
" />
<path d="M6.5821 2.5143
L6.8240 2.5143
" />
<path d="M6.8240 2.5143
L6.9449 2.5747
" />
<path d="M6.9449 2.5747
L7.0054 2.6352
" />
<path d="M7.0054 2.6352
L7.0659 2.7562
" />
<path d="M7.0659 2.7562
L7.0659 2.8167
" />
<path d="M7.0659 2.8167
L7.0054 2.9376
" />
<path d="M7.0054 2.9376
L6.9449 2.9981
" />
<path d="M6.9449 2.9981
L6.8240 3.0586
" />
<path d="M6.8240 3.0586
L6.5821 3.0586
" />
<path d="M6.5821 3.0586
L6.4611 3.1190
" />
<path d="M6.4611 3.1190
L6.4006 3.1795
" />
<path d="M6.4006 3.1795
L6.3402 3.3005
" />
<path d="M6.3402 3.3005
L6.3402 3.5424
" />
<path d="M6.3402 3.5424
L6.4006 3.6633
" />
<path d="M6.4006 3.6633
L6.4611 3.7238
" />
<path d="M6.4611 3.7238
L6.5821 3.7843
" />
<path d="M6.5821 3.7843
L6.8240 3.7843
" />
<path d="M6.8240 3.7843
L6.9449 3.7238
" />
<path d="M6.9449 3.7238
L7.0054 3.6633
" />
<path d="M7.0054 3.6633
L7.0659 3.5424
" />
<path d="M7.0659 3.5424
L7.0659 3.3005
" />
<path d="M7.0659 3.3005
L7.0054 3.1795
" />
<path d="M7.0054 3.1795
L6.9449 3.1190
" />
<path d="M6.9449 3.1190
L6.8240 3.0586
" />
<path d="M7.3078 3.9052
L8.2754 3.9052
" />
<path d="M8.4568 2.5143
L9.3035 2.5143
" />
<path d="M9.3035 2.5143
L8.7592 3.7843
" />
<path d="M9.7873 3.6633
L9.8478 3.7238
" />
<path d="M9.8478 3.7238
L9.7873 3.7843
" />
<path d="M9.7873 3.7843
L9.7268 3.7238
" />
<path d="M9.7268 3.7238
L9.7873 3.6633
" />
<path d="M9.7873 3.6633
L9.7873 3.7843
" />
<path d="M10.9968 2.5143
L10.3921 2.5143
" />
<path d="M10.3921 2.5143
L10.3316 3.1190
" />
<path d="M10.3316 3.1190
L10.3921 3.0586
" />
<path d="M10.3921 3.0586
L10.5130 2.9981
" />
<path d="M10.5130 2.9981
L10.8154 2.9981
" />
<path d="M10.8154 2.9981
L10.9364 3.0586
" />
<path d="M10.9364 3.0586
L10.9968 3.1190
" />
<path d="M10.9968 3.1190
L11.0573 3.2400
" />
<path d="M11.0573 3.2400
L11.0573 3.5424
" />
<path d="M11.0573 3.5424
L10.9968 3.6633
" />
<path d="M10.9968 3.6633
L10.9364 3.7238
" />
<path d="M10.9364 3.7238
L10.8154 3.7843
" />
<path d="M10.8154 3.7843
L10.5130 3.7843
" />
<path d="M10.5130 3.7843
L10.3921 3.7238
" />
<path d="M10.3921 3.7238
L10.3316 3.6633
" />
<path d="M11.4806 3.7843
L12.1459 2.9376
" />
<path d="M11.4806 2.9376
L12.1459 3.7843
" />
<path d="M13.2345 2.5143
L12.6297 2.5143
" />
<path d="M12.6297 2.5143
L12.5692 3.1190
" />
<path d="M12.5692 3.1190
L12.6297 3.0586
" />
<path d="M12.6297 3.0586
L12.7507 2.9981
" />
<path d="M12.7507 2.9981
L13.0530 2.9981
" />
<path d="M13.0530 2.9981
L13.1740 3.0586
" />
<path d="M13.1740 3.0586
L13.2345 3.1190
" />
<path d="M13.2345 3.1190
L13.2949 3.2400
" />
<path d="M13.2949 3.2400
L13.2949 3.5424
" />
<path d="M13.2949 3.5424
L13.2345 3.6633
" />
<path d="M13.2345 3.6633
L13.1740 3.7238
" />
<path d="M13.1740 3.7238
L13.0530 3.7843
" />
<path d="M13.0530 3.7843
L12.7507 3.7843
" />
<path d="M12.7507 3.7843
L12.6297 3.7238
" />
<path d="M12.6297 3.7238
L12.5692 3.6633
" />
<path d="M13.8392 3.6633
L13.8997 3.7238
" />
<path d="M13.8997 3.7238
L13.8392 3.7843
" />
<path d="M13.8392 3.7843
L13.7787 3.7238
" />
<path d="M13.7787 3.7238
L13.8392 3.6633
" />
<path d="M13.8392 3.6633
L13.8392 3.7843
" />
<path d="M14.6254 3.0586
L14.5045 2.9981
" />
<path d="M14.5045 2.9981
L14.4440 2.9376
" />
<path d="M14.4440 2.9376
L14.3835 2.8167
" />
<path d="M14.3835 2.8167
L14.3835 2.7562
" />
<path d="M14.3835 2.7562
L14.4440 2.6352
" />
<path d="M14.4440 2.6352
L14.5045 2.5747
" />
<path d="M14.5045 2.5747
L14.6254 2.5143
" />
<path d="M14.6254 2.5143
L14.8673 2.5143
" />
<path d="M14.8673 2.5143
L14.9883 2.5747
" />
<path d="M14.9883 2.5747
L15.0487 2.6352
" />
<path d="M15.0487 2.6352
L15.1092 2.7562
" />
<path d="M15.1092 2.7562
L15.1092 2.8167
" />
<path d="M15.1092 2.8167
L15.0487 2.9376
" />
<path d="M15.0487 2.9376
L14.9883 2.9981
" />
<path d="M14.9883 2.9981
L14.8673 3.0586
" />
<path d="M14.8673 3.0586
L14.6254 3.0586
" />
<path d="M14.6254 3.0586
L14.5045 3.1190
" />
<path d="M14.5045 3.1190
L14.4440 3.1795
" />
<path d="M14.4440 3.1795
L14.3835 3.3005
" />
<path d="M14.3835 3.3005
L14.3835 3.5424
" />
<path d="M14.3835 3.5424
L14.4440 3.6633
" />
<path d="M14.4440 3.6633
L14.5045 3.7238
" />
<path d="M14.5045 3.7238
L14.6254 3.7843
" />
<path d="M14.6254 3.7843
L14.8673 3.7843
" />
<path d="M14.8673 3.7843
L14.9883 3.7238
" />
<path d="M14.9883 3.7238
L15.0487 3.6633
" />
<path d="M15.0487 3.6633
L15.1092 3.5424
" />
<path d="M15.1092 3.5424
L15.1092 3.3005
" />
<path d="M15.1092 3.3005
L15.0487 3.1795
" />
<path d="M15.0487 3.1795
L14.9883 3.1190
" />
<path d="M14.9883 3.1190
L14.8673 3.0586
" />
<path d="M16.2583 2.5143
L15.6535 2.5143
" />
<path d="M15.6535 2.5143
L15.5930 3.1190
" />
<path d="M15.5930 3.1190
L15.6535 3.0586
" />
<path d="M15.6535 3.0586
L15.7745 2.9981
" />
<path d="M15.7745 2.9981
L16.0768 2.9981
" />
<path d="M16.0768 2.9981
L16.1978 3.0586
" />
<path d="M16.1978 3.0586
L16.2583 3.1190
" />
<path d="M16.2583 3.1190
L16.3187 3.2400
" />
<path d="M16.3187 3.2400
L16.3187 3.5424
" />
<path d="M16.3187 3.5424
L16.2583 3.6633
" />
<path d="M16.2583 3.6633
L16.1978 3.7238
" />
<path d="M16.1978 3.7238
L16.0768 3.7843
" />
<path d="M16.0768 3.7843
L15.7745 3.7843
" />
<path d="M15.7745 3.7843
L15.6535 3.7238
" />
<path d="M15.6535 3.7238
L15.5930 3.6633
" />
<path d="M16.8630 3.7843
L16.8630 2.9376
" />
<path d="M16.8630 3.0586
L16.9235 2.9981
" />
<path d="M16.9235 2.9981
L17.0445 2.9376
" />
<path d="M17.0445 2.9376
L17.2259 2.9376
" />
<path d="M17.2259 2.9376
L17.3468 2.9981
" />
<path d="M17.3468 2.9981
L17.4073 3.1190
" />
<path d="M17.4073 3.1190
L17.4073 3.7843
" />
<path d="M17.4073 3.1190
L17.4678 2.9981
" />
<path d="M17.4678 2.9981
L17.5887 2.9376
" />
<path d="M17.5887 2.9376
L17.7702 2.9376
" />
<path d="M17.7702 2.9376
L17.8911 2.9981
" />
<path d="M17.8911 2.9981
L17.9516 3.1190
" />
<path d="M17.9516 3.1190
L17.9516 3.7843
" />
<path d="M18.5564 3.7843
L18.5564 2.9376
" />
<path d="M18.5564 3.0586
L18.6168 2.9981
" />
<path d="M18.6168 2.9981
L18.7378 2.9376
" />
<path d="M18.7378 2.9376
L18.9192 2.9376
" />
<path d="M18.9192 2.9376
L19.0402 2.9981
" />
<path d="M19.0402 2.9981
L19.1006 3.1190
" />
<path d="M19.1006 3.1190
L19.1006 3.7843
" />
<path d="M19.1006 3.1190
L19.1611 2.9981
" />
<path d="M19.1611 2.9981
L19.2821 2.9376
" />
<path d="M19.2821 2.9376
L19.4635 2.9376
" />
<path d="M19.4635 2.9376
L19.5845 2.9981
" />
<path d="M19.5845 2.9981
L19.6449 3.1190
" />
<path d="M19.6449 3.1190
L19.6449 3.7843
" />
<path d="M19.9473 3.9052
L20.9149 3.9052
" />
<path d="M21.2173 3.7843
L21.2173 2.5143
" />
<path d="M21.2173 2.5143
L21.7011 2.5143
" />
<path d="M21.7011 2.5143
L21.8221 2.5747
" />
<path d="M21.8221 2.5747
L21.8826 2.6352
" />
<path d="M21.8826 2.6352
L21.9430 2.7562
" />
<path d="M21.9430 2.7562
L21.9430 2.9376
" />
<path d="M21.9430 2.9376
L21.8826 3.0586
" />
<path d="M21.8826 3.0586
L21.8221 3.1190
" />
<path d="M21.8221 3.1190
L21.7011 3.1795
" />
<path d="M21.7011 3.1795
L21.2173 3.1795
" />
<path d="M23.1526 3.7843
L22.4268 3.7843
" />
<path d="M22.7897 3.7843
L22.7897 2.5143
" />
<path d="M22.7897 2.5143
L22.6687 2.6957
" />
<path d="M22.6687 2.6957
L22.5478 2.8167
" />
<path d="M22.5478 2.8167
L22.4268 2.8771
" />
<path d="M23.6968 3.6633
L23.7573 3.7238
" />
<path d="M23.7573 3.7238
L23.6968 3.7843
" />
<path d="M23.6968 3.7843
L23.6364 3.7238
" />
<path d="M23.6364 3.7238
L23.6968 3.6633
" />
<path d="M23.6968 3.6633
L23.6968 3.7843
" />
<path d="M24.2411 2.6352
L24.3016 2.5747
" />
<path d="M24.3016 2.5747
L24.4226 2.5143
" />
<path d="M24.4226 2.5143
L24.7249 2.5143
" />
<path d="M24.7249 2.5143
L24.8459 2.5747
" />
<path d="M24.8459 2.5747
L24.9064 2.6352
" />
<path d="M24.9064 2.6352
L24.9668 2.7562
" />
<path d="M24.9668 2.7562
L24.9668 2.8771
" />
<path d="M24.9668 2.8771
L24.9064 3.0586
" />
<path d="M24.9064 3.0586
L24.1806 3.7843
" />
<path d="M24.1806 3.7843
L24.9668 3.7843
" />
<path d="M25.3902 2.5143
L26.2368 2.5143
" />
<path d="M26.2368 2.5143
L25.6926 3.7843
" />
<path d="M26.7206 3.7843
L26.7206 2.9376
" />
<path d="M26.7206 3.0586
L26.7811 2.9981
" />
<path d="M26.7811 2.9981
L26.9021 2.9376
" />
<path d="M26.9021 2.9376
L27.0835 2.9376
" />
<path d="M27.0835 2.9376
L27.2045 2.9981
" />
<path d="M27.2045 2.9981
L27.2649 3.1190
" />
<path d="M27.2649 3.1190
L27.2649 3.7843
" />
<path d="M27.2649 3.1190
L27.3254 2.9981
" />
<path d="M27.3254 2.9981
L27.4464 2.9376
" />
<path d="M27.4464 2.9376
L27.6278 2.9376
" />
<path d="M27.6278 2.9376
L27.7487 2.9981
" />
<path d="M27.7487 2.9981
L27.8092 3.1190
" />
<path d="M27.8092 3.1190
L27.8092 3.7843
" />
<path d="M28.4140 3.7843
L28.4140 2.9376
" />
<path d="M28.4140 3.0586
L28.4745 2.9981
" />
<path d="M28.4745 2.9981
L28.5954 2.9376
" />
<path d="M28.5954 2.9376
L28.7768 2.9376
" />
<path d="M28.7768 2.9376
L28.8978 2.9981
" />
<path d="M28.8978 2.9981
L28.9583 3.1190
" />
<path d="M28.9583 3.1190
L28.9583 3.7843
" />
<path d="M28.9583 3.1190
L29.0187 2.9981
" />
<path d="M29.0187 2.9981
L29.1397 2.9376
" />
<path d="M29.1397 2.9376
L29.3211 2.9376
" />
<path d="M29.3211 2.9376
L29.4421 2.9981
" />
<path d="M29.4421 2.9981
L29.5026 3.1190
" />
<path d="M29.5026 3.1190
L29.5026 3.7843
" />
</g></g>
<g style="fill:none; 
stroke:#AFAFAF; stroke-width:0.1500; stroke-opacity:1; 
stroke-linecap:round; stroke-linejoin:round;">
<text x="14.9580" y="3.7050"
textLength="4.5357" font-size="1.3333" lengthAdjust="spacingAndGlyphs"
text-anchor="middle" opacity="0">REF**</text>
<g class="stroked-text"><desc>REF**</desc>
<path d="M13.6247 3.6598
L13.2914 3.1836
" />
<path d="M13.0533 3.6598
L13.0533 2.6598
" />
<path d="M13.0533 2.6598
L13.4342 2.6598
" />
<path d="M13.4342 2.6598
L13.5295 2.7074
" />
<path d="M13.5295 2.7074
L13.5771 2.7551
" />
<path d="M13.5771 2.7551
L13.6247 2.8503
" />
<path d="M13.6247 2.8503
L13.6247 2.9932
" />
<path d="M13.6247 2.9932
L13.5771 3.0884
" />
<path d="M13.5771 3.0884
L13.5295 3.1360
" />
<path d="M13.5295 3.1360
L13.4342 3.1836
" />
<path d="M13.4342 3.1836
L13.0533 3.1836
" />
<path d="M14.0533 3.1360
L14.3866 3.1360
" />
<path d="M14.5295 3.6598
L14.0533 3.6598
" />
<path d="M14.0533 3.6598
L14.0533 2.6598
" />
<path d="M14.0533 2.6598
L14.5295 2.6598
" />
<path d="M15.2914 3.1360
L14.9580 3.1360
" />
<path d="M14.9580 3.6598
L14.9580 2.6598
" />
<path d="M14.9580 2.6598
L15.4342 2.6598
" />
<path d="M15.9580 2.6598
L15.9580 2.8979
" />
<path d="M15.7199 2.8027
L15.9580 2.8979
" />
<path d="M15.9580 2.8979
L16.1961 2.8027
" />
<path d="M15.8152 3.0884
L15.9580 2.8979
" />
<path d="M15.9580 2.8979
L16.1009 3.0884
" />
<path d="M16.7199 2.6598
L16.7199 2.8979
" />
<path d="M16.4818 2.8027
L16.7199 2.8979
" />
<path d="M16.7199 2.8979
L16.9580 2.8027
" />
<path d="M16.5771 3.0884
L16.7199 2.8979
" />
<path d="M16.7199 2.8979
L16.8628 3.0884
" />
</g></g>
<g style="fill:none; 
stroke:#AFAFAF; stroke-width:0.1000; stroke-opacity:1; 
stroke-linecap:round; stroke-linejoin:round;">
<path d="M11.2080 1.2800
L12.2080 0.2800
" />
<path d="M11.2080 6.1300
L11.2080 1.2800
" />
<path d="M12.2080 0.2800
L18.7080 0.2800
" />
<path d="M18.7080 0.2800
L18.7080 6.1300
" />
<path d="M18.7080 6.1300
L11.2080 6.1300
" />
</g> 
</svg>
