<?xml version="1.0" standalone="no"?>
 <!DOCTYPE svg PUBLIC "-//W3C//DTD SVG 1.1//EN" 
 "http://www.w3.org/Graphics/SVG/1.1/DTD/svg11.dtd"> 
<svg
  xmlns:svg="http://www.w3.org/2000/svg"
  xmlns="http://www.w3.org/2000/svg"
  xmlns:xlink="http://www.w3.org/1999/xlink"
  version="1.1"
  width="87.1728mm" height="20.8788mm" viewBox="0.0000 0.0000 87.1728 20.8788">
<title>SVG Image created as working-brd.svg date 2024/04/19 15:09:06 </title>
  <desc>Image generated by PCBNEW </desc>
<g style="fill:#000000; fill-opacity:1.0000;stroke:#000000; stroke-opacity:1.0000;
stroke-linecap:round; stroke-linejoin:round;"
 transform="translate(0 0) scale(1 1)">
</g>
<g style="fill:#FFFFFF; fill-opacity:1.0000; stroke:none;">
<circle cx="43.5935" cy="2.8250" r="0.7500" /> 
</g>
<g style="fill:#FFFFFF; fill-opacity:1.0000; stroke:none;">
<circle cx="43.5935" cy="18.0650" r="0.7500" /> 
</g>
<g style="fill:#FFFFFF; fill-opacity:1.0000; stroke:none;">
<circle cx="66.4535" cy="18.0650" r="0.7500" /> 
</g>
<g style="fill:#FFFFFF; fill-opacity:1.0000; stroke:none;">
<circle cx="66.4535" cy="2.8250" r="0.7500" /> 
<path style="fill:#02FFEE; fill-opacity:0.4000; stroke:none;fill-rule:evenodd;"
d="M 42.0935,4.3250
42.0935,1.3250
45.0935,1.3250
45.0935,4.3250
Z" /> 
</g>
<g style="fill:#02FFEE; fill-opacity:0.4000; stroke:none;">
<circle cx="43.5935" cy="18.0650" r="1.5000" /> 
</g>
<g style="fill:#02FFEE; fill-opacity:0.4000; stroke:none;">
<circle cx="66.4535" cy="18.0650" r="1.5000" /> 
</g>
<g style="fill:#02FFEE; fill-opacity:0.4000; stroke:none;">
<circle cx="66.4535" cy="2.8250" r="1.5000" /> 
</g>
<g style="fill:#FFFFFF; fill-opacity:1.0000; stroke:none;">
<circle cx="43.5935" cy="2.8250" r="0.7500" /> 
</g>
<g style="fill:#FFFFFF; fill-opacity:1.0000; stroke:none;">
<circle cx="43.5935" cy="18.0650" r="0.7500" /> 
</g>
<g style="fill:#FFFFFF; fill-opacity:1.0000; stroke:none;">
<circle cx="66.4535" cy="18.0650" r="0.7500" /> 
</g>
<g style="fill:#FFFFFF; fill-opacity:1.0000; stroke:none;">
<circle cx="66.4535" cy="2.8250" r="0.7500" /> 
</g>
<g style="fill:#FFFFFF; fill-opacity:1.0000; stroke:none;">
<circle cx="43.5935" cy="2.8250" r="0.7500" /> 
</g>
<g style="fill:#FFFFFF; fill-opacity:1.0000; stroke:none;">
<circle cx="43.5935" cy="18.0650" r="0.7500" /> 
</g>
<g style="fill:#FFFFFF; fill-opacity:1.0000; stroke:none;">
<circle cx="66.4535" cy="18.0650" r="0.7500" /> 
</g>
<g style="fill:#FFFFFF; fill-opacity:1.0000; stroke:none;">
<circle cx="66.4535" cy="2.8250" r="0.7500" /> 
<path style="fill:#D864FF; fill-opacity:0.4000; stroke:none;fill-rule:evenodd;"
d="M 42.0935,4.3250
42.0935,1.3250
45.0935,1.3250
45.0935,4.3250
Z" /> 
</g>
<g style="fill:#D864FF; fill-opacity:0.4000; stroke:none;">
<circle cx="43.5935" cy="18.0650" r="1.5000" /> 
</g>
<g style="fill:#D864FF; fill-opacity:0.4000; stroke:none;">
<circle cx="66.4535" cy="18.0650" r="1.5000" /> 
</g>
<g style="fill:#D864FF; fill-opacity:0.4000; stroke:none;">
<circle cx="66.4535" cy="2.8250" r="1.5000" /> 
</g>
<g style="fill:none; 
stroke:#F2EDA1; stroke-width:0.1588; stroke-opacity:1; 
stroke-linecap:round; stroke-linejoin:round;">
<text x="43.5935" y="3.4600"
textLength="5.6651" font-size="1.6933" lengthAdjust="spacingAndGlyphs"
text-anchor="middle" opacity="0">REF**</text>
<g class="stroked-text"><desc>REF**</desc>
<path d="M41.9002 3.4043
L41.4768 2.7995
" />
<path d="M41.1745 3.4043
L41.1745 2.1343
" />
<path d="M41.1745 2.1343
L41.6583 2.1343
" />
<path d="M41.6583 2.1343
L41.7792 2.1947
" />
<path d="M41.7792 2.1947
L41.8397 2.2552
" />
<path d="M41.8397 2.2552
L41.9002 2.3762
" />
<path d="M41.9002 2.3762
L41.9002 2.5576
" />
<path d="M41.9002 2.5576
L41.8397 2.6786
" />
<path d="M41.8397 2.6786
L41.7792 2.7390
" />
<path d="M41.7792 2.7390
L41.6583 2.7995
" />
<path d="M41.6583 2.7995
L41.1745 2.7995
" />
<path d="M42.4445 2.7390
L42.8678 2.7390
" />
<path d="M43.0492 3.4043
L42.4445 3.4043
" />
<path d="M42.4445 3.4043
L42.4445 2.1343
" />
<path d="M42.4445 2.1343
L43.0492 2.1343
" />
<path d="M44.0168 2.7390
L43.5935 2.7390
" />
<path d="M43.5935 3.4043
L43.5935 2.1343
" />
<path d="M43.5935 2.1343
L44.1983 2.1343
" />
<path d="M44.8635 2.1343
L44.8635 2.4367
" />
<path d="M44.5611 2.3157
L44.8635 2.4367
" />
<path d="M44.8635 2.4367
L45.1659 2.3157
" />
<path d="M44.6821 2.6786
L44.8635 2.4367
" />
<path d="M44.8635 2.4367
L45.0449 2.6786
" />
<path d="M45.8311 2.1343
L45.8311 2.4367
" />
<path d="M45.5287 2.3157
L45.8311 2.4367
" />
<path d="M45.8311 2.4367
L46.1335 2.3157
" />
<path d="M45.6497 2.6786
L45.8311 2.4367
" />
<path d="M45.8311 2.4367
L46.0126 2.6786
" />
</g></g>
<g style="fill:none; 
stroke:#F2EDA1; stroke-width:0.1200; stroke-opacity:1; 
stroke-linecap:round; stroke-linejoin:round;">
<path d="M33.9485 0.1650
L33.9485 20.7250
" />
<path d="M33.9485 0.1650
L76.0985 0.1650
" />
<path d="M33.9485 20.7250
L76.0985 20.7250
" />
<path d="M76.0985 0.1650
L76.0985 20.7250
" />
</g>
<g style="fill:#FFFFFF; fill-opacity:1.0000; stroke:none;">
<circle cx="43.5935" cy="2.8250" r="0.7500" /> 
</g>
<g style="fill:#FFFFFF; fill-opacity:1.0000; stroke:none;">
<circle cx="43.5935" cy="18.0650" r="0.7500" /> 
</g>
<g style="fill:#FFFFFF; fill-opacity:1.0000; stroke:none;">
<circle cx="66.4535" cy="18.0650" r="0.7500" /> 
</g>
<g style="fill:#FFFFFF; fill-opacity:1.0000; stroke:none;">
<circle cx="66.4535" cy="2.8250" r="0.7500" /> 
</g>
<g style="fill:none; 
stroke:#FF26E2; stroke-width:0.0500; stroke-opacity:1; 
stroke-linecap:round; stroke-linejoin:round;">
<path d="M33.8135 0.0250
L33.8135 20.8550
" />
<path d="M33.8135 20.8550
L76.2335 20.8550
" />
<path d="M76.2335 0.0250
L33.8135 0.0250
" />
<path d="M76.2335 20.8550
L76.2335 0.0250
" />
</g>
<g style="fill:none; 
stroke:#AFAFAF; stroke-width:0.1588; stroke-opacity:1; 
stroke-linecap:round; stroke-linejoin:round;">
<text x="43.5935" y="3.4600"
textLength="87.1870" font-size="1.6933" lengthAdjust="spacingAndGlyphs"
text-anchor="middle" opacity="0">L_CommonMode_Toroid_Vertical_L41.9mm_W20.3mm_Px15.24mm_Py22.86mm_Bourns_8100</text>
<g class="stroked-text"><desc>L_CommonMode_Toroid_Vertical_L41.9mm_W20.3mm_Px15.24mm_Py22.86mm_Bourns_8100</desc>
<path d="M1.0183 3.4043
L0.4135 3.4043
" />
<path d="M0.4135 3.4043
L0.4135 2.1343
" />
<path d="M1.1392 3.5252
L2.1068 3.5252
" />
<path d="M3.1349 3.2833
L3.0745 3.3438
" />
<path d="M3.0745 3.3438
L2.8930 3.4043
" />
<path d="M2.8930 3.4043
L2.7721 3.4043
" />
<path d="M2.7721 3.4043
L2.5906 3.3438
" />
<path d="M2.5906 3.3438
L2.4697 3.2228
" />
<path d="M2.4697 3.2228
L2.4092 3.1019
" />
<path d="M2.4092 3.1019
L2.3487 2.8600
" />
<path d="M2.3487 2.8600
L2.3487 2.6786
" />
<path d="M2.3487 2.6786
L2.4092 2.4367
" />
<path d="M2.4092 2.4367
L2.4697 2.3157
" />
<path d="M2.4697 2.3157
L2.5906 2.1947
" />
<path d="M2.5906 2.1947
L2.7721 2.1343
" />
<path d="M2.7721 2.1343
L2.8930 2.1343
" />
<path d="M2.8930 2.1343
L3.0745 2.1947
" />
<path d="M3.0745 2.1947
L3.1349 2.2552
" />
<path d="M3.8606 3.4043
L3.7397 3.3438
" />
<path d="M3.7397 3.3438
L3.6792 3.2833
" />
<path d="M3.6792 3.2833
L3.6187 3.1624
" />
<path d="M3.6187 3.1624
L3.6187 2.7995
" />
<path d="M3.6187 2.7995
L3.6792 2.6786
" />
<path d="M3.6792 2.6786
L3.7397 2.6181
" />
<path d="M3.7397 2.6181
L3.8606 2.5576
" />
<path d="M3.8606 2.5576
L4.0421 2.5576
" />
<path d="M4.0421 2.5576
L4.1630 2.6181
" />
<path d="M4.1630 2.6181
L4.2235 2.6786
" />
<path d="M4.2235 2.6786
L4.2840 2.7995
" />
<path d="M4.2840 2.7995
L4.2840 3.1624
" />
<path d="M4.2840 3.1624
L4.2235 3.2833
" />
<path d="M4.2235 3.2833
L4.1630 3.3438
" />
<path d="M4.1630 3.3438
L4.0421 3.4043
" />
<path d="M4.0421 3.4043
L3.8606 3.4043
" />
<path d="M4.8283 3.4043
L4.8283 2.5576
" />
<path d="M4.8283 2.6786
L4.8887 2.6181
" />
<path d="M4.8887 2.6181
L5.0097 2.5576
" />
<path d="M5.0097 2.5576
L5.1911 2.5576
" />
<path d="M5.1911 2.5576
L5.3121 2.6181
" />
<path d="M5.3121 2.6181
L5.3726 2.7390
" />
<path d="M5.3726 2.7390
L5.3726 3.4043
" />
<path d="M5.3726 2.7390
L5.4330 2.6181
" />
<path d="M5.4330 2.6181
L5.5540 2.5576
" />
<path d="M5.5540 2.5576
L5.7354 2.5576
" />
<path d="M5.7354 2.5576
L5.8564 2.6181
" />
<path d="M5.8564 2.6181
L5.9168 2.7390
" />
<path d="M5.9168 2.7390
L5.9168 3.4043
" />
<path d="M6.5216 3.4043
L6.5216 2.5576
" />
<path d="M6.5216 2.6786
L6.5821 2.6181
" />
<path d="M6.5821 2.6181
L6.7030 2.5576
" />
<path d="M6.7030 2.5576
L6.8845 2.5576
" />
<path d="M6.8845 2.5576
L7.0054 2.6181
" />
<path d="M7.0054 2.6181
L7.0659 2.7390
" />
<path d="M7.0659 2.7390
L7.0659 3.4043
" />
<path d="M7.0659 2.7390
L7.1264 2.6181
" />
<path d="M7.1264 2.6181
L7.2473 2.5576
" />
<path d="M7.2473 2.5576
L7.4287 2.5576
" />
<path d="M7.4287 2.5576
L7.5497 2.6181
" />
<path d="M7.5497 2.6181
L7.6102 2.7390
" />
<path d="M7.6102 2.7390
L7.6102 3.4043
" />
<path d="M8.3964 3.4043
L8.2754 3.3438
" />
<path d="M8.2754 3.3438
L8.2149 3.2833
" />
<path d="M8.2149 3.2833
L8.1545 3.1624
" />
<path d="M8.1545 3.1624
L8.1545 2.7995
" />
<path d="M8.1545 2.7995
L8.2149 2.6786
" />
<path d="M8.2149 2.6786
L8.2754 2.6181
" />
<path d="M8.2754 2.6181
L8.3964 2.5576
" />
<path d="M8.3964 2.5576
L8.5778 2.5576
" />
<path d="M8.5778 2.5576
L8.6987 2.6181
" />
<path d="M8.6987 2.6181
L8.7592 2.6786
" />
<path d="M8.7592 2.6786
L8.8197 2.7995
" />
<path d="M8.8197 2.7995
L8.8197 3.1624
" />
<path d="M8.8197 3.1624
L8.7592 3.2833
" />
<path d="M8.7592 3.2833
L8.6987 3.3438
" />
<path d="M8.6987 3.3438
L8.5778 3.4043
" />
<path d="M8.5778 3.4043
L8.3964 3.4043
" />
<path d="M9.3640 2.5576
L9.3640 3.4043
" />
<path d="M9.3640 2.6786
L9.4245 2.6181
" />
<path d="M9.4245 2.6181
L9.5454 2.5576
" />
<path d="M9.5454 2.5576
L9.7268 2.5576
" />
<path d="M9.7268 2.5576
L9.8478 2.6181
" />
<path d="M9.8478 2.6181
L9.9083 2.7390
" />
<path d="M9.9083 2.7390
L9.9083 3.4043
" />
<path d="M10.5130 3.4043
L10.5130 2.1343
" />
<path d="M10.5130 2.1343
L10.9364 3.0414
" />
<path d="M10.9364 3.0414
L11.3597 2.1343
" />
<path d="M11.3597 2.1343
L11.3597 3.4043
" />
<path d="M12.1459 3.4043
L12.0249 3.3438
" />
<path d="M12.0249 3.3438
L11.9645 3.2833
" />
<path d="M11.9645 3.2833
L11.9040 3.1624
" />
<path d="M11.9040 3.1624
L11.9040 2.7995
" />
<path d="M11.9040 2.7995
L11.9645 2.6786
" />
<path d="M11.9645 2.6786
L12.0249 2.6181
" />
<path d="M12.0249 2.6181
L12.1459 2.5576
" />
<path d="M12.1459 2.5576
L12.3273 2.5576
" />
<path d="M12.3273 2.5576
L12.4483 2.6181
" />
<path d="M12.4483 2.6181
L12.5087 2.6786
" />
<path d="M12.5087 2.6786
L12.5692 2.7995
" />
<path d="M12.5692 2.7995
L12.5692 3.1624
" />
<path d="M12.5692 3.1624
L12.5087 3.2833
" />
<path d="M12.5087 3.2833
L12.4483 3.3438
" />
<path d="M12.4483 3.3438
L12.3273 3.4043
" />
<path d="M12.3273 3.4043
L12.1459 3.4043
" />
<path d="M13.6578 3.4043
L13.6578 2.1343
" />
<path d="M13.6578 3.3438
L13.5368 3.4043
" />
<path d="M13.5368 3.4043
L13.2949 3.4043
" />
<path d="M13.2949 3.4043
L13.1740 3.3438
" />
<path d="M13.1740 3.3438
L13.1135 3.2833
" />
<path d="M13.1135 3.2833
L13.0530 3.1624
" />
<path d="M13.0530 3.1624
L13.0530 2.7995
" />
<path d="M13.0530 2.7995
L13.1135 2.6786
" />
<path d="M13.1135 2.6786
L13.1740 2.6181
" />
<path d="M13.1740 2.6181
L13.2949 2.5576
" />
<path d="M13.2949 2.5576
L13.5368 2.5576
" />
<path d="M13.5368 2.5576
L13.6578 2.6181
" />
<path d="M14.7464 3.3438
L14.6254 3.4043
" />
<path d="M14.6254 3.4043
L14.3835 3.4043
" />
<path d="M14.3835 3.4043
L14.2626 3.3438
" />
<path d="M14.2626 3.3438
L14.2021 3.2228
" />
<path d="M14.2021 3.2228
L14.2021 2.7390
" />
<path d="M14.2021 2.7390
L14.2626 2.6181
" />
<path d="M14.2626 2.6181
L14.3835 2.5576
" />
<path d="M14.3835 2.5576
L14.6254 2.5576
" />
<path d="M14.6254 2.5576
L14.7464 2.6181
" />
<path d="M14.7464 2.6181
L14.8068 2.7390
" />
<path d="M14.8068 2.7390
L14.8068 2.8600
" />
<path d="M14.8068 2.8600
L14.2021 2.9809
" />
<path d="M15.0487 3.5252
L16.0164 3.5252
" />
<path d="M16.1373 2.1343
L16.8630 2.1343
" />
<path d="M16.5002 3.4043
L16.5002 2.1343
" />
<path d="M17.4678 3.4043
L17.3468 3.3438
" />
<path d="M17.3468 3.3438
L17.2864 3.2833
" />
<path d="M17.2864 3.2833
L17.2259 3.1624
" />
<path d="M17.2259 3.1624
L17.2259 2.7995
" />
<path d="M17.2259 2.7995
L17.2864 2.6786
" />
<path d="M17.2864 2.6786
L17.3468 2.6181
" />
<path d="M17.3468 2.6181
L17.4678 2.5576
" />
<path d="M17.4678 2.5576
L17.6492 2.5576
" />
<path d="M17.6492 2.5576
L17.7702 2.6181
" />
<path d="M17.7702 2.6181
L17.8306 2.6786
" />
<path d="M17.8306 2.6786
L17.8911 2.7995
" />
<path d="M17.8911 2.7995
L17.8911 3.1624
" />
<path d="M17.8911 3.1624
L17.8306 3.2833
" />
<path d="M17.8306 3.2833
L17.7702 3.3438
" />
<path d="M17.7702 3.3438
L17.6492 3.4043
" />
<path d="M17.6492 3.4043
L17.4678 3.4043
" />
<path d="M18.4354 3.4043
L18.4354 2.5576
" />
<path d="M18.4354 2.7995
L18.4959 2.6786
" />
<path d="M18.4959 2.6786
L18.5564 2.6181
" />
<path d="M18.5564 2.6181
L18.6773 2.5576
" />
<path d="M18.6773 2.5576
L18.7983 2.5576
" />
<path d="M19.4030 3.4043
L19.2821 3.3438
" />
<path d="M19.2821 3.3438
L19.2216 3.2833
" />
<path d="M19.2216 3.2833
L19.1611 3.1624
" />
<path d="M19.1611 3.1624
L19.1611 2.7995
" />
<path d="M19.1611 2.7995
L19.2216 2.6786
" />
<path d="M19.2216 2.6786
L19.2821 2.6181
" />
<path d="M19.2821 2.6181
L19.4030 2.5576
" />
<path d="M19.4030 2.5576
L19.5845 2.5576
" />
<path d="M19.5845 2.5576
L19.7054 2.6181
" />
<path d="M19.7054 2.6181
L19.7659 2.6786
" />
<path d="M19.7659 2.6786
L19.8264 2.7995
" />
<path d="M19.8264 2.7995
L19.8264 3.1624
" />
<path d="M19.8264 3.1624
L19.7659 3.2833
" />
<path d="M19.7659 3.2833
L19.7054 3.3438
" />
<path d="M19.7054 3.3438
L19.5845 3.4043
" />
<path d="M19.5845 3.4043
L19.4030 3.4043
" />
<path d="M20.3706 3.4043
L20.3706 2.5576
" />
<path d="M20.3706 2.1343
L20.3102 2.1947
" />
<path d="M20.3102 2.1947
L20.3706 2.2552
" />
<path d="M20.3706 2.2552
L20.4311 2.1947
" />
<path d="M20.4311 2.1947
L20.3706 2.1343
" />
<path d="M20.3706 2.1343
L20.3706 2.2552
" />
<path d="M21.5197 3.4043
L21.5197 2.1343
" />
<path d="M21.5197 3.3438
L21.3987 3.4043
" />
<path d="M21.3987 3.4043
L21.1568 3.4043
" />
<path d="M21.1568 3.4043
L21.0359 3.3438
" />
<path d="M21.0359 3.3438
L20.9754 3.2833
" />
<path d="M20.9754 3.2833
L20.9149 3.1624
" />
<path d="M20.9149 3.1624
L20.9149 2.7995
" />
<path d="M20.9149 2.7995
L20.9754 2.6786
" />
<path d="M20.9754 2.6786
L21.0359 2.6181
" />
<path d="M21.0359 2.6181
L21.1568 2.5576
" />
<path d="M21.1568 2.5576
L21.3987 2.5576
" />
<path d="M21.3987 2.5576
L21.5197 2.6181
" />
<path d="M21.8221 3.5252
L22.7897 3.5252
" />
<path d="M22.9107 2.1343
L23.3340 3.4043
" />
<path d="M23.3340 3.4043
L23.7573 2.1343
" />
<path d="M24.6645 3.3438
L24.5435 3.4043
" />
<path d="M24.5435 3.4043
L24.3016 3.4043
" />
<path d="M24.3016 3.4043
L24.1806 3.3438
" />
<path d="M24.1806 3.3438
L24.1202 3.2228
" />
<path d="M24.1202 3.2228
L24.1202 2.7390
" />
<path d="M24.1202 2.7390
L24.1806 2.6181
" />
<path d="M24.1806 2.6181
L24.3016 2.5576
" />
<path d="M24.3016 2.5576
L24.5435 2.5576
" />
<path d="M24.5435 2.5576
L24.6645 2.6181
" />
<path d="M24.6645 2.6181
L24.7249 2.7390
" />
<path d="M24.7249 2.7390
L24.7249 2.8600
" />
<path d="M24.7249 2.8600
L24.1202 2.9809
" />
<path d="M25.2692 3.4043
L25.2692 2.5576
" />
<path d="M25.2692 2.7995
L25.3297 2.6786
" />
<path d="M25.3297 2.6786
L25.3902 2.6181
" />
<path d="M25.3902 2.6181
L25.5111 2.5576
" />
<path d="M25.5111 2.5576
L25.6321 2.5576
" />
<path d="M25.8740 2.5576
L26.3578 2.5576
" />
<path d="M26.0554 2.1343
L26.0554 3.2228
" />
<path d="M26.0554 3.2228
L26.1159 3.3438
" />
<path d="M26.1159 3.3438
L26.2368 3.4043
" />
<path d="M26.2368 3.4043
L26.3578 3.4043
" />
<path d="M26.7811 3.4043
L26.7811 2.5576
" />
<path d="M26.7811 2.1343
L26.7206 2.1947
" />
<path d="M26.7206 2.1947
L26.7811 2.2552
" />
<path d="M26.7811 2.2552
L26.8416 2.1947
" />
<path d="M26.8416 2.1947
L26.7811 2.1343
" />
<path d="M26.7811 2.1343
L26.7811 2.2552
" />
<path d="M27.9302 3.3438
L27.8092 3.4043
" />
<path d="M27.8092 3.4043
L27.5673 3.4043
" />
<path d="M27.5673 3.4043
L27.4464 3.3438
" />
<path d="M27.4464 3.3438
L27.3859 3.2833
" />
<path d="M27.3859 3.2833
L27.3254 3.1624
" />
<path d="M27.3254 3.1624
L27.3254 2.7995
" />
<path d="M27.3254 2.7995
L27.3859 2.6786
" />
<path d="M27.3859 2.6786
L27.4464 2.6181
" />
<path d="M27.4464 2.6181
L27.5673 2.5576
" />
<path d="M27.5673 2.5576
L27.8092 2.5576
" />
<path d="M27.8092 2.5576
L27.9302 2.6181
" />
<path d="M29.0187 3.4043
L29.0187 2.7390
" />
<path d="M29.0187 2.7390
L28.9583 2.6181
" />
<path d="M28.9583 2.6181
L28.8373 2.5576
" />
<path d="M28.8373 2.5576
L28.5954 2.5576
" />
<path d="M28.5954 2.5576
L28.4745 2.6181
" />
<path d="M29.0187 3.3438
L28.8978 3.4043
" />
<path d="M28.8978 3.4043
L28.5954 3.4043
" />
<path d="M28.5954 3.4043
L28.4745 3.3438
" />
<path d="M28.4745 3.3438
L28.4140 3.2228
" />
<path d="M28.4140 3.2228
L28.4140 3.1019
" />
<path d="M28.4140 3.1019
L28.4745 2.9809
" />
<path d="M28.4745 2.9809
L28.5954 2.9205
" />
<path d="M28.5954 2.9205
L28.8978 2.9205
" />
<path d="M28.8978 2.9205
L29.0187 2.8600
" />
<path d="M29.8049 3.4043
L29.6840 3.3438
" />
<path d="M29.6840 3.3438
L29.6235 3.2228
" />
<path d="M29.6235 3.2228
L29.6235 2.1343
" />
<path d="M29.9864 3.5252
L30.9540 3.5252
" />
<path d="M31.8611 3.4043
L31.2564 3.4043
" />
<path d="M31.2564 3.4043
L31.2564 2.1343
" />
<path d="M32.8287 2.5576
L32.8287 3.4043
" />
<path d="M32.5264 2.0738
L32.2240 2.9809
" />
<path d="M32.2240 2.9809
L33.0102 2.9809
" />
<path d="M34.1592 3.4043
L33.4335 3.4043
" />
<path d="M33.7964 3.4043
L33.7964 2.1343
" />
<path d="M33.7964 2.1343
L33.6754 2.3157
" />
<path d="M33.6754 2.3157
L33.5545 2.4367
" />
<path d="M33.5545 2.4367
L33.4335 2.4971
" />
<path d="M34.7035 3.2833
L34.7640 3.3438
" />
<path d="M34.7640 3.3438
L34.7035 3.4043
" />
<path d="M34.7035 3.4043
L34.6430 3.3438
" />
<path d="M34.6430 3.3438
L34.7035 3.2833
" />
<path d="M34.7035 3.2833
L34.7035 3.4043
" />
<path d="M35.3687 3.4043
L35.6106 3.4043
" />
<path d="M35.6106 3.4043
L35.7316 3.3438
" />
<path d="M35.7316 3.3438
L35.7921 3.2833
" />
<path d="M35.7921 3.2833
L35.9130 3.1019
" />
<path d="M35.9130 3.1019
L35.9735 2.8600
" />
<path d="M35.9735 2.8600
L35.9735 2.3762
" />
<path d="M35.9735 2.3762
L35.9130 2.2552
" />
<path d="M35.9130 2.2552
L35.8526 2.1947
" />
<path d="M35.8526 2.1947
L35.7316 2.1343
" />
<path d="M35.7316 2.1343
L35.4897 2.1343
" />
<path d="M35.4897 2.1343
L35.3687 2.1947
" />
<path d="M35.3687 2.1947
L35.3083 2.2552
" />
<path d="M35.3083 2.2552
L35.2478 2.3762
" />
<path d="M35.2478 2.3762
L35.2478 2.6786
" />
<path d="M35.2478 2.6786
L35.3083 2.7995
" />
<path d="M35.3083 2.7995
L35.3687 2.8600
" />
<path d="M35.3687 2.8600
L35.4897 2.9205
" />
<path d="M35.4897 2.9205
L35.7316 2.9205
" />
<path d="M35.7316 2.9205
L35.8526 2.8600
" />
<path d="M35.8526 2.8600
L35.9130 2.7995
" />
<path d="M35.9130 2.7995
L35.9735 2.6786
" />
<path d="M36.5178 3.4043
L36.5178 2.5576
" />
<path d="M36.5178 2.6786
L36.5783 2.6181
" />
<path d="M36.5783 2.6181
L36.6992 2.5576
" />
<path d="M36.6992 2.5576
L36.8806 2.5576
" />
<path d="M36.8806 2.5576
L37.0016 2.6181
" />
<path d="M37.0016 2.6181
L37.0621 2.7390
" />
<path d="M37.0621 2.7390
L37.0621 3.4043
" />
<path d="M37.0621 2.7390
L37.1226 2.6181
" />
<path d="M37.1226 2.6181
L37.2435 2.5576
" />
<path d="M37.2435 2.5576
L37.4249 2.5576
" />
<path d="M37.4249 2.5576
L37.5459 2.6181
" />
<path d="M37.5459 2.6181
L37.6064 2.7390
" />
<path d="M37.6064 2.7390
L37.6064 3.4043
" />
<path d="M38.2111 3.4043
L38.2111 2.5576
" />
<path d="M38.2111 2.6786
L38.2716 2.6181
" />
<path d="M38.2716 2.6181
L38.3926 2.5576
" />
<path d="M38.3926 2.5576
L38.5740 2.5576
" />
<path d="M38.5740 2.5576
L38.6949 2.6181
" />
<path d="M38.6949 2.6181
L38.7554 2.7390
" />
<path d="M38.7554 2.7390
L38.7554 3.4043
" />
<path d="M38.7554 2.7390
L38.8159 2.6181
" />
<path d="M38.8159 2.6181
L38.9368 2.5576
" />
<path d="M38.9368 2.5576
L39.1183 2.5576
" />
<path d="M39.1183 2.5576
L39.2392 2.6181
" />
<path d="M39.2392 2.6181
L39.2997 2.7390
" />
<path d="M39.2997 2.7390
L39.2997 3.4043
" />
<path d="M39.6021 3.5252
L40.5697 3.5252
" />
<path d="M40.7511 2.1343
L41.0535 3.4043
" />
<path d="M41.0535 3.4043
L41.2954 2.4971
" />
<path d="M41.2954 2.4971
L41.5373 3.4043
" />
<path d="M41.5373 3.4043
L41.8397 2.1343
" />
<path d="M42.2630 2.2552
L42.3235 2.1947
" />
<path d="M42.3235 2.1947
L42.4445 2.1343
" />
<path d="M42.4445 2.1343
L42.7468 2.1343
" />
<path d="M42.7468 2.1343
L42.8678 2.1947
" />
<path d="M42.8678 2.1947
L42.9283 2.2552
" />
<path d="M42.9283 2.2552
L42.9887 2.3762
" />
<path d="M42.9887 2.3762
L42.9887 2.4971
" />
<path d="M42.9887 2.4971
L42.9283 2.6786
" />
<path d="M42.9283 2.6786
L42.2026 3.4043
" />
<path d="M42.2026 3.4043
L42.9887 3.4043
" />
<path d="M43.7749 2.1343
L43.8959 2.1343
" />
<path d="M43.8959 2.1343
L44.0168 2.1947
" />
<path d="M44.0168 2.1947
L44.0773 2.2552
" />
<path d="M44.0773 2.2552
L44.1378 2.3762
" />
<path d="M44.1378 2.3762
L44.1983 2.6181
" />
<path d="M44.1983 2.6181
L44.1983 2.9205
" />
<path d="M44.1983 2.9205
L44.1378 3.1624
" />
<path d="M44.1378 3.1624
L44.0773 3.2833
" />
<path d="M44.0773 3.2833
L44.0168 3.3438
" />
<path d="M44.0168 3.3438
L43.8959 3.4043
" />
<path d="M43.8959 3.4043
L43.7749 3.4043
" />
<path d="M43.7749 3.4043
L43.6540 3.3438
" />
<path d="M43.6540 3.3438
L43.5935 3.2833
" />
<path d="M43.5935 3.2833
L43.5330 3.1624
" />
<path d="M43.5330 3.1624
L43.4726 2.9205
" />
<path d="M43.4726 2.9205
L43.4726 2.6181
" />
<path d="M43.4726 2.6181
L43.5330 2.3762
" />
<path d="M43.5330 2.3762
L43.5935 2.2552
" />
<path d="M43.5935 2.2552
L43.6540 2.1947
" />
<path d="M43.6540 2.1947
L43.7749 2.1343
" />
<path d="M44.7426 3.2833
L44.8030 3.3438
" />
<path d="M44.8030 3.3438
L44.7426 3.4043
" />
<path d="M44.7426 3.4043
L44.6821 3.3438
" />
<path d="M44.6821 3.3438
L44.7426 3.2833
" />
<path d="M44.7426 3.2833
L44.7426 3.4043
" />
<path d="M45.2264 2.1343
L46.0126 2.1343
" />
<path d="M46.0126 2.1343
L45.5892 2.6181
" />
<path d="M45.5892 2.6181
L45.7706 2.6181
" />
<path d="M45.7706 2.6181
L45.8916 2.6786
" />
<path d="M45.8916 2.6786
L45.9521 2.7390
" />
<path d="M45.9521 2.7390
L46.0126 2.8600
" />
<path d="M46.0126 2.8600
L46.0126 3.1624
" />
<path d="M46.0126 3.1624
L45.9521 3.2833
" />
<path d="M45.9521 3.2833
L45.8916 3.3438
" />
<path d="M45.8916 3.3438
L45.7706 3.4043
" />
<path d="M45.7706 3.4043
L45.4078 3.4043
" />
<path d="M45.4078 3.4043
L45.2868 3.3438
" />
<path d="M45.2868 3.3438
L45.2264 3.2833
" />
<path d="M46.5568 3.4043
L46.5568 2.5576
" />
<path d="M46.5568 2.6786
L46.6173 2.6181
" />
<path d="M46.6173 2.6181
L46.7383 2.5576
" />
<path d="M46.7383 2.5576
L46.9197 2.5576
" />
<path d="M46.9197 2.5576
L47.0406 2.6181
" />
<path d="M47.0406 2.6181
L47.1011 2.7390
" />
<path d="M47.1011 2.7390
L47.1011 3.4043
" />
<path d="M47.1011 2.7390
L47.1616 2.6181
" />
<path d="M47.1616 2.6181
L47.2826 2.5576
" />
<path d="M47.2826 2.5576
L47.4640 2.5576
" />
<path d="M47.4640 2.5576
L47.5849 2.6181
" />
<path d="M47.5849 2.6181
L47.6454 2.7390
" />
<path d="M47.6454 2.7390
L47.6454 3.4043
" />
<path d="M48.2502 3.4043
L48.2502 2.5576
" />
<path d="M48.2502 2.6786
L48.3106 2.6181
" />
<path d="M48.3106 2.6181
L48.4316 2.5576
" />
<path d="M48.4316 2.5576
L48.6130 2.5576
" />
<path d="M48.6130 2.5576
L48.7340 2.6181
" />
<path d="M48.7340 2.6181
L48.7945 2.7390
" />
<path d="M48.7945 2.7390
L48.7945 3.4043
" />
<path d="M48.7945 2.7390
L48.8549 2.6181
" />
<path d="M48.8549 2.6181
L48.9759 2.5576
" />
<path d="M48.9759 2.5576
L49.1573 2.5576
" />
<path d="M49.1573 2.5576
L49.2783 2.6181
" />
<path d="M49.2783 2.6181
L49.3387 2.7390
" />
<path d="M49.3387 2.7390
L49.3387 3.4043
" />
<path d="M49.6411 3.5252
L50.6087 3.5252
" />
<path d="M50.9111 3.4043
L50.9111 2.1343
" />
<path d="M50.9111 2.1343
L51.3949 2.1343
" />
<path d="M51.3949 2.1343
L51.5159 2.1947
" />
<path d="M51.5159 2.1947
L51.5764 2.2552
" />
<path d="M51.5764 2.2552
L51.6368 2.3762
" />
<path d="M51.6368 2.3762
L51.6368 2.5576
" />
<path d="M51.6368 2.5576
L51.5764 2.6786
" />
<path d="M51.5764 2.6786
L51.5159 2.7390
" />
<path d="M51.5159 2.7390
L51.3949 2.7995
" />
<path d="M51.3949 2.7995
L50.9111 2.7995
" />
<path d="M52.0602 3.4043
L52.7254 2.5576
" />
<path d="M52.0602 2.5576
L52.7254 3.4043
" />
<path d="M53.8745 3.4043
L53.1487 3.4043
" />
<path d="M53.5116 3.4043
L53.5116 2.1343
" />
<path d="M53.5116 2.1343
L53.3906 2.3157
" />
<path d="M53.3906 2.3157
L53.2697 2.4367
" />
<path d="M53.2697 2.4367
L53.1487 2.4971
" />
<path d="M55.0235 2.1343
L54.4187 2.1343
" />
<path d="M54.4187 2.1343
L54.3583 2.7390
" />
<path d="M54.3583 2.7390
L54.4187 2.6786
" />
<path d="M54.4187 2.6786
L54.5397 2.6181
" />
<path d="M54.5397 2.6181
L54.8421 2.6181
" />
<path d="M54.8421 2.6181
L54.9630 2.6786
" />
<path d="M54.9630 2.6786
L55.0235 2.7390
" />
<path d="M55.0235 2.7390
L55.0840 2.8600
" />
<path d="M55.0840 2.8600
L55.0840 3.1624
" />
<path d="M55.0840 3.1624
L55.0235 3.2833
" />
<path d="M55.0235 3.2833
L54.9630 3.3438
" />
<path d="M54.9630 3.3438
L54.8421 3.4043
" />
<path d="M54.8421 3.4043
L54.5397 3.4043
" />
<path d="M54.5397 3.4043
L54.4187 3.3438
" />
<path d="M54.4187 3.3438
L54.3583 3.2833
" />
<path d="M55.6283 3.2833
L55.6887 3.3438
" />
<path d="M55.6887 3.3438
L55.6283 3.4043
" />
<path d="M55.6283 3.4043
L55.5678 3.3438
" />
<path d="M55.5678 3.3438
L55.6283 3.2833
" />
<path d="M55.6283 3.2833
L55.6283 3.4043
" />
<path d="M56.1726 2.2552
L56.2330 2.1947
" />
<path d="M56.2330 2.1947
L56.3540 2.1343
" />
<path d="M56.3540 2.1343
L56.6564 2.1343
" />
<path d="M56.6564 2.1343
L56.7773 2.1947
" />
<path d="M56.7773 2.1947
L56.8378 2.2552
" />
<path d="M56.8378 2.2552
L56.8983 2.3762
" />
<path d="M56.8983 2.3762
L56.8983 2.4971
" />
<path d="M56.8983 2.4971
L56.8378 2.6786
" />
<path d="M56.8378 2.6786
L56.1121 3.4043
" />
<path d="M56.1121 3.4043
L56.8983 3.4043
" />
<path d="M57.9868 2.5576
L57.9868 3.4043
" />
<path d="M57.6845 2.0738
L57.3821 2.9809
" />
<path d="M57.3821 2.9809
L58.1683 2.9809
" />
<path d="M58.6521 3.4043
L58.6521 2.5576
" />
<path d="M58.6521 2.6786
L58.7126 2.6181
" />
<path d="M58.7126 2.6181
L58.8335 2.5576
" />
<path d="M58.8335 2.5576
L59.0149 2.5576
" />
<path d="M59.0149 2.5576
L59.1359 2.6181
" />
<path d="M59.1359 2.6181
L59.1964 2.7390
" />
<path d="M59.1964 2.7390
L59.1964 3.4043
" />
<path d="M59.1964 2.7390
L59.2568 2.6181
" />
<path d="M59.2568 2.6181
L59.3778 2.5576
" />
<path d="M59.3778 2.5576
L59.5592 2.5576
" />
<path d="M59.5592 2.5576
L59.6802 2.6181
" />
<path d="M59.6802 2.6181
L59.7406 2.7390
" />
<path d="M59.7406 2.7390
L59.7406 3.4043
" />
<path d="M60.3454 3.4043
L60.3454 2.5576
" />
<path d="M60.3454 2.6786
L60.4059 2.6181
" />
<path d="M60.4059 2.6181
L60.5268 2.5576
" />
<path d="M60.5268 2.5576
L60.7083 2.5576
" />
<path d="M60.7083 2.5576
L60.8292 2.6181
" />
<path d="M60.8292 2.6181
L60.8897 2.7390
" />
<path d="M60.8897 2.7390
L60.8897 3.4043
" />
<path d="M60.8897 2.7390
L60.9502 2.6181
" />
<path d="M60.9502 2.6181
L61.0711 2.5576
" />
<path d="M61.0711 2.5576
L61.2526 2.5576
" />
<path d="M61.2526 2.5576
L61.3735 2.6181
" />
<path d="M61.3735 2.6181
L61.4340 2.7390
" />
<path d="M61.4340 2.7390
L61.4340 3.4043
" />
<path d="M61.7364 3.5252
L62.7040 3.5252
" />
<path d="M63.0064 3.4043
L63.0064 2.1343
" />
<path d="M63.0064 2.1343
L63.4902 2.1343
" />
<path d="M63.4902 2.1343
L63.6111 2.1947
" />
<path d="M63.6111 2.1947
L63.6716 2.2552
" />
<path d="M63.6716 2.2552
L63.7321 2.3762
" />
<path d="M63.7321 2.3762
L63.7321 2.5576
" />
<path d="M63.7321 2.5576
L63.6716 2.6786
" />
<path d="M63.6716 2.6786
L63.6111 2.7390
" />
<path d="M63.6111 2.7390
L63.4902 2.7995
" />
<path d="M63.4902 2.7995
L63.0064 2.7995
" />
<path d="M64.1554 2.5576
L64.4578 3.4043
" />
<path d="M64.7602 2.5576
L64.4578 3.4043
" />
<path d="M64.4578 3.4043
L64.3368 3.7067
" />
<path d="M64.3368 3.7067
L64.2764 3.7671
" />
<path d="M64.2764 3.7671
L64.1554 3.8276
" />
<path d="M65.1835 2.2552
L65.2440 2.1947
" />
<path d="M65.2440 2.1947
L65.3649 2.1343
" />
<path d="M65.3649 2.1343
L65.6673 2.1343
" />
<path d="M65.6673 2.1343
L65.7883 2.1947
" />
<path d="M65.7883 2.1947
L65.8487 2.2552
" />
<path d="M65.8487 2.2552
L65.9092 2.3762
" />
<path d="M65.9092 2.3762
L65.9092 2.4971
" />
<path d="M65.9092 2.4971
L65.8487 2.6786
" />
<path d="M65.8487 2.6786
L65.1230 3.4043
" />
<path d="M65.1230 3.4043
L65.9092 3.4043
" />
<path d="M66.3930 2.2552
L66.4535 2.1947
" />
<path d="M66.4535 2.1947
L66.5745 2.1343
" />
<path d="M66.5745 2.1343
L66.8768 2.1343
" />
<path d="M66.8768 2.1343
L66.9978 2.1947
" />
<path d="M66.9978 2.1947
L67.0583 2.2552
" />
<path d="M67.0583 2.2552
L67.1187 2.3762
" />
<path d="M67.1187 2.3762
L67.1187 2.4971
" />
<path d="M67.1187 2.4971
L67.0583 2.6786
" />
<path d="M67.0583 2.6786
L66.3326 3.4043
" />
<path d="M66.3326 3.4043
L67.1187 3.4043
" />
<path d="M67.6630 3.2833
L67.7235 3.3438
" />
<path d="M67.7235 3.3438
L67.6630 3.4043
" />
<path d="M67.6630 3.4043
L67.6026 3.3438
" />
<path d="M67.6026 3.3438
L67.6630 3.2833
" />
<path d="M67.6630 3.2833
L67.6630 3.4043
" />
<path d="M68.4492 2.6786
L68.3283 2.6181
" />
<path d="M68.3283 2.6181
L68.2678 2.5576
" />
<path d="M68.2678 2.5576
L68.2073 2.4367
" />
<path d="M68.2073 2.4367
L68.2073 2.3762
" />
<path d="M68.2073 2.3762
L68.2678 2.2552
" />
<path d="M68.2678 2.2552
L68.3283 2.1947
" />
<path d="M68.3283 2.1947
L68.4492 2.1343
" />
<path d="M68.4492 2.1343
L68.6911 2.1343
" />
<path d="M68.6911 2.1343
L68.8121 2.1947
" />
<path d="M68.8121 2.1947
L68.8726 2.2552
" />
<path d="M68.8726 2.2552
L68.9330 2.3762
" />
<path d="M68.9330 2.3762
L68.9330 2.4367
" />
<path d="M68.9330 2.4367
L68.8726 2.5576
" />
<path d="M68.8726 2.5576
L68.8121 2.6181
" />
<path d="M68.8121 2.6181
L68.6911 2.6786
" />
<path d="M68.6911 2.6786
L68.4492 2.6786
" />
<path d="M68.4492 2.6786
L68.3283 2.7390
" />
<path d="M68.3283 2.7390
L68.2678 2.7995
" />
<path d="M68.2678 2.7995
L68.2073 2.9205
" />
<path d="M68.2073 2.9205
L68.2073 3.1624
" />
<path d="M68.2073 3.1624
L68.2678 3.2833
" />
<path d="M68.2678 3.2833
L68.3283 3.3438
" />
<path d="M68.3283 3.3438
L68.4492 3.4043
" />
<path d="M68.4492 3.4043
L68.6911 3.4043
" />
<path d="M68.6911 3.4043
L68.8121 3.3438
" />
<path d="M68.8121 3.3438
L68.8726 3.2833
" />
<path d="M68.8726 3.2833
L68.9330 3.1624
" />
<path d="M68.9330 3.1624
L68.9330 2.9205
" />
<path d="M68.9330 2.9205
L68.8726 2.7995
" />
<path d="M68.8726 2.7995
L68.8121 2.7390
" />
<path d="M68.8121 2.7390
L68.6911 2.6786
" />
<path d="M70.0216 2.1343
L69.7797 2.1343
" />
<path d="M69.7797 2.1343
L69.6587 2.1947
" />
<path d="M69.6587 2.1947
L69.5983 2.2552
" />
<path d="M69.5983 2.2552
L69.4773 2.4367
" />
<path d="M69.4773 2.4367
L69.4168 2.6786
" />
<path d="M69.4168 2.6786
L69.4168 3.1624
" />
<path d="M69.4168 3.1624
L69.4773 3.2833
" />
<path d="M69.4773 3.2833
L69.5378 3.3438
" />
<path d="M69.5378 3.3438
L69.6587 3.4043
" />
<path d="M69.6587 3.4043
L69.9006 3.4043
" />
<path d="M69.9006 3.4043
L70.0216 3.3438
" />
<path d="M70.0216 3.3438
L70.0821 3.2833
" />
<path d="M70.0821 3.2833
L70.1426 3.1624
" />
<path d="M70.1426 3.1624
L70.1426 2.8600
" />
<path d="M70.1426 2.8600
L70.0821 2.7390
" />
<path d="M70.0821 2.7390
L70.0216 2.6786
" />
<path d="M70.0216 2.6786
L69.9006 2.6181
" />
<path d="M69.9006 2.6181
L69.6587 2.6181
" />
<path d="M69.6587 2.6181
L69.5378 2.6786
" />
<path d="M69.5378 2.6786
L69.4773 2.7390
" />
<path d="M69.4773 2.7390
L69.4168 2.8600
" />
<path d="M70.6868 3.4043
L70.6868 2.5576
" />
<path d="M70.6868 2.6786
L70.7473 2.6181
" />
<path d="M70.7473 2.6181
L70.8683 2.5576
" />
<path d="M70.8683 2.5576
L71.0497 2.5576
" />
<path d="M71.0497 2.5576
L71.1706 2.6181
" />
<path d="M71.1706 2.6181
L71.2311 2.7390
" />
<path d="M71.2311 2.7390
L71.2311 3.4043
" />
<path d="M71.2311 2.7390
L71.2916 2.6181
" />
<path d="M71.2916 2.6181
L71.4126 2.5576
" />
<path d="M71.4126 2.5576
L71.5940 2.5576
" />
<path d="M71.5940 2.5576
L71.7149 2.6181
" />
<path d="M71.7149 2.6181
L71.7754 2.7390
" />
<path d="M71.7754 2.7390
L71.7754 3.4043
" />
<path d="M72.3802 3.4043
L72.3802 2.5576
" />
<path d="M72.3802 2.6786
L72.4406 2.6181
" />
<path d="M72.4406 2.6181
L72.5616 2.5576
" />
<path d="M72.5616 2.5576
L72.7430 2.5576
" />
<path d="M72.7430 2.5576
L72.8640 2.6181
" />
<path d="M72.8640 2.6181
L72.9245 2.7390
" />
<path d="M72.9245 2.7390
L72.9245 3.4043
" />
<path d="M72.9245 2.7390
L72.9849 2.6181
" />
<path d="M72.9849 2.6181
L73.1059 2.5576
" />
<path d="M73.1059 2.5576
L73.2873 2.5576
" />
<path d="M73.2873 2.5576
L73.4083 2.6181
" />
<path d="M73.4083 2.6181
L73.4687 2.7390
" />
<path d="M73.4687 2.7390
L73.4687 3.4043
" />
<path d="M73.7711 3.5252
L74.7387 3.5252
" />
<path d="M75.4645 2.7390
L75.6459 2.7995
" />
<path d="M75.6459 2.7995
L75.7064 2.8600
" />
<path d="M75.7064 2.8600
L75.7668 2.9809
" />
<path d="M75.7668 2.9809
L75.7668 3.1624
" />
<path d="M75.7668 3.1624
L75.7064 3.2833
" />
<path d="M75.7064 3.2833
L75.6459 3.3438
" />
<path d="M75.6459 3.3438
L75.5249 3.4043
" />
<path d="M75.5249 3.4043
L75.0411 3.4043
" />
<path d="M75.0411 3.4043
L75.0411 2.1343
" />
<path d="M75.0411 2.1343
L75.4645 2.1343
" />
<path d="M75.4645 2.1343
L75.5854 2.1947
" />
<path d="M75.5854 2.1947
L75.6459 2.2552
" />
<path d="M75.6459 2.2552
L75.7064 2.3762
" />
<path d="M75.7064 2.3762
L75.7064 2.4971
" />
<path d="M75.7064 2.4971
L75.6459 2.6181
" />
<path d="M75.6459 2.6181
L75.5854 2.6786
" />
<path d="M75.5854 2.6786
L75.4645 2.7390
" />
<path d="M75.4645 2.7390
L75.0411 2.7390
" />
<path d="M76.4926 3.4043
L76.3716 3.3438
" />
<path d="M76.3716 3.3438
L76.3111 3.2833
" />
<path d="M76.3111 3.2833
L76.2506 3.1624
" />
<path d="M76.2506 3.1624
L76.2506 2.7995
" />
<path d="M76.2506 2.7995
L76.3111 2.6786
" />
<path d="M76.3111 2.6786
L76.3716 2.6181
" />
<path d="M76.3716 2.6181
L76.4926 2.5576
" />
<path d="M76.4926 2.5576
L76.6740 2.5576
" />
<path d="M76.6740 2.5576
L76.7949 2.6181
" />
<path d="M76.7949 2.6181
L76.8554 2.6786
" />
<path d="M76.8554 2.6786
L76.9159 2.7995
" />
<path d="M76.9159 2.7995
L76.9159 3.1624
" />
<path d="M76.9159 3.1624
L76.8554 3.2833
" />
<path d="M76.8554 3.2833
L76.7949 3.3438
" />
<path d="M76.7949 3.3438
L76.6740 3.4043
" />
<path d="M76.6740 3.4043
L76.4926 3.4043
" />
<path d="M78.0045 2.5576
L78.0045 3.4043
" />
<path d="M77.4602 2.5576
L77.4602 3.2228
" />
<path d="M77.4602 3.2228
L77.5206 3.3438
" />
<path d="M77.5206 3.3438
L77.6416 3.4043
" />
<path d="M77.6416 3.4043
L77.8230 3.4043
" />
<path d="M77.8230 3.4043
L77.9440 3.3438
" />
<path d="M77.9440 3.3438
L78.0045 3.2833
" />
<path d="M78.6092 3.4043
L78.6092 2.5576
" />
<path d="M78.6092 2.7995
L78.6697 2.6786
" />
<path d="M78.6697 2.6786
L78.7302 2.6181
" />
<path d="M78.7302 2.6181
L78.8511 2.5576
" />
<path d="M78.8511 2.5576
L78.9721 2.5576
" />
<path d="M79.3954 2.5576
L79.3954 3.4043
" />
<path d="M79.3954 2.6786
L79.4559 2.6181
" />
<path d="M79.4559 2.6181
L79.5768 2.5576
" />
<path d="M79.5768 2.5576
L79.7583 2.5576
" />
<path d="M79.7583 2.5576
L79.8792 2.6181
" />
<path d="M79.8792 2.6181
L79.9397 2.7390
" />
<path d="M79.9397 2.7390
L79.9397 3.4043
" />
<path d="M80.4840 3.3438
L80.6049 3.4043
" />
<path d="M80.6049 3.4043
L80.8468 3.4043
" />
<path d="M80.8468 3.4043
L80.9678 3.3438
" />
<path d="M80.9678 3.3438
L81.0283 3.2228
" />
<path d="M81.0283 3.2228
L81.0283 3.1624
" />
<path d="M81.0283 3.1624
L80.9678 3.0414
" />
<path d="M80.9678 3.0414
L80.8468 2.9809
" />
<path d="M80.8468 2.9809
L80.6654 2.9809
" />
<path d="M80.6654 2.9809
L80.5445 2.9205
" />
<path d="M80.5445 2.9205
L80.4840 2.7995
" />
<path d="M80.4840 2.7995
L80.4840 2.7390
" />
<path d="M80.4840 2.7390
L80.5445 2.6181
" />
<path d="M80.5445 2.6181
L80.6654 2.5576
" />
<path d="M80.6654 2.5576
L80.8468 2.5576
" />
<path d="M80.8468 2.5576
L80.9678 2.6181
" />
<path d="M81.2702 3.5252
L82.2378 3.5252
" />
<path d="M82.7216 2.6786
L82.6006 2.6181
" />
<path d="M82.6006 2.6181
L82.5402 2.5576
" />
<path d="M82.5402 2.5576
L82.4797 2.4367
" />
<path d="M82.4797 2.4367
L82.4797 2.3762
" />
<path d="M82.4797 2.3762
L82.5402 2.2552
" />
<path d="M82.5402 2.2552
L82.6006 2.1947
" />
<path d="M82.6006 2.1947
L82.7216 2.1343
" />
<path d="M82.7216 2.1343
L82.9635 2.1343
" />
<path d="M82.9635 2.1343
L83.0845 2.1947
" />
<path d="M83.0845 2.1947
L83.1449 2.2552
" />
<path d="M83.1449 2.2552
L83.2054 2.3762
" />
<path d="M83.2054 2.3762
L83.2054 2.4367
" />
<path d="M83.2054 2.4367
L83.1449 2.5576
" />
<path d="M83.1449 2.5576
L83.0845 2.6181
" />
<path d="M83.0845 2.6181
L82.9635 2.6786
" />
<path d="M82.9635 2.6786
L82.7216 2.6786
" />
<path d="M82.7216 2.6786
L82.6006 2.7390
" />
<path d="M82.6006 2.7390
L82.5402 2.7995
" />
<path d="M82.5402 2.7995
L82.4797 2.9205
" />
<path d="M82.4797 2.9205
L82.4797 3.1624
" />
<path d="M82.4797 3.1624
L82.5402 3.2833
" />
<path d="M82.5402 3.2833
L82.6006 3.3438
" />
<path d="M82.6006 3.3438
L82.7216 3.4043
" />
<path d="M82.7216 3.4043
L82.9635 3.4043
" />
<path d="M82.9635 3.4043
L83.0845 3.3438
" />
<path d="M83.0845 3.3438
L83.1449 3.2833
" />
<path d="M83.1449 3.2833
L83.2054 3.1624
" />
<path d="M83.2054 3.1624
L83.2054 2.9205
" />
<path d="M83.2054 2.9205
L83.1449 2.7995
" />
<path d="M83.1449 2.7995
L83.0845 2.7390
" />
<path d="M83.0845 2.7390
L82.9635 2.6786
" />
<path d="M84.4149 3.4043
L83.6892 3.4043
" />
<path d="M84.0521 3.4043
L84.0521 2.1343
" />
<path d="M84.0521 2.1343
L83.9311 2.3157
" />
<path d="M83.9311 2.3157
L83.8102 2.4367
" />
<path d="M83.8102 2.4367
L83.6892 2.4971
" />
<path d="M85.2011 2.1343
L85.3221 2.1343
" />
<path d="M85.3221 2.1343
L85.4430 2.1947
" />
<path d="M85.4430 2.1947
L85.5035 2.2552
" />
<path d="M85.5035 2.2552
L85.5640 2.3762
" />
<path d="M85.5640 2.3762
L85.6245 2.6181
" />
<path d="M85.6245 2.6181
L85.6245 2.9205
" />
<path d="M85.6245 2.9205
L85.5640 3.1624
" />
<path d="M85.5640 3.1624
L85.5035 3.2833
" />
<path d="M85.5035 3.2833
L85.4430 3.3438
" />
<path d="M85.4430 3.3438
L85.3221 3.4043
" />
<path d="M85.3221 3.4043
L85.2011 3.4043
" />
<path d="M85.2011 3.4043
L85.0802 3.3438
" />
<path d="M85.0802 3.3438
L85.0197 3.2833
" />
<path d="M85.0197 3.2833
L84.9592 3.1624
" />
<path d="M84.9592 3.1624
L84.8987 2.9205
" />
<path d="M84.8987 2.9205
L84.8987 2.6181
" />
<path d="M84.8987 2.6181
L84.9592 2.3762
" />
<path d="M84.9592 2.3762
L85.0197 2.2552
" />
<path d="M85.0197 2.2552
L85.0802 2.1947
" />
<path d="M85.0802 2.1947
L85.2011 2.1343
" />
<path d="M86.4106 2.1343
L86.5316 2.1343
" />
<path d="M86.5316 2.1343
L86.6526 2.1947
" />
<path d="M86.6526 2.1947
L86.7130 2.2552
" />
<path d="M86.7130 2.2552
L86.7735 2.3762
" />
<path d="M86.7735 2.3762
L86.8340 2.6181
" />
<path d="M86.8340 2.6181
L86.8340 2.9205
" />
<path d="M86.8340 2.9205
L86.7735 3.1624
" />
<path d="M86.7735 3.1624
L86.7130 3.2833
" />
<path d="M86.7130 3.2833
L86.6526 3.3438
" />
<path d="M86.6526 3.3438
L86.5316 3.4043
" />
<path d="M86.5316 3.4043
L86.4106 3.4043
" />
<path d="M86.4106 3.4043
L86.2897 3.3438
" />
<path d="M86.2897 3.3438
L86.2292 3.2833
" />
<path d="M86.2292 3.2833
L86.1687 3.1624
" />
<path d="M86.1687 3.1624
L86.1083 2.9205
" />
<path d="M86.1083 2.9205
L86.1083 2.6181
" />
<path d="M86.1083 2.6181
L86.1687 2.3762
" />
<path d="M86.1687 2.3762
L86.2292 2.2552
" />
<path d="M86.2292 2.2552
L86.2897 2.1947
" />
<path d="M86.2897 2.1947
L86.4106 2.1343
" />
</g></g>
<g style="fill:none; 
stroke:#AFAFAF; stroke-width:0.1500; stroke-opacity:1; 
stroke-linecap:round; stroke-linejoin:round;">
<text x="51.2135" y="3.3250"
textLength="4.5357" font-size="1.3333" lengthAdjust="spacingAndGlyphs"
text-anchor="middle" opacity="0">REF**</text>
<g class="stroked-text"><desc>REF**</desc>
<path d="M49.8802 3.2798
L49.5468 2.8036
" />
<path d="M49.3087 3.2798
L49.3087 2.2798
" />
<path d="M49.3087 2.2798
L49.6897 2.2798
" />
<path d="M49.6897 2.2798
L49.7849 2.3274
" />
<path d="M49.7849 2.3274
L49.8326 2.3751
" />
<path d="M49.8326 2.3751
L49.8802 2.4703
" />
<path d="M49.8802 2.4703
L49.8802 2.6132
" />
<path d="M49.8802 2.6132
L49.8326 2.7084
" />
<path d="M49.8326 2.7084
L49.7849 2.7560
" />
<path d="M49.7849 2.7560
L49.6897 2.8036
" />
<path d="M49.6897 2.8036
L49.3087 2.8036
" />
<path d="M50.3087 2.7560
L50.6421 2.7560
" />
<path d="M50.7849 3.2798
L50.3087 3.2798
" />
<path d="M50.3087 3.2798
L50.3087 2.2798
" />
<path d="M50.3087 2.2798
L50.7849 2.2798
" />
<path d="M51.5468 2.7560
L51.2135 2.7560
" />
<path d="M51.2135 3.2798
L51.2135 2.2798
" />
<path d="M51.2135 2.2798
L51.6897 2.2798
" />
<path d="M52.2135 2.2798
L52.2135 2.5179
" />
<path d="M51.9754 2.4227
L52.2135 2.5179
" />
<path d="M52.2135 2.5179
L52.4516 2.4227
" />
<path d="M52.0706 2.7084
L52.2135 2.5179
" />
<path d="M52.2135 2.5179
L52.3564 2.7084
" />
<path d="M52.9754 2.2798
L52.9754 2.5179
" />
<path d="M52.7373 2.4227
L52.9754 2.5179
" />
<path d="M52.9754 2.5179
L53.2135 2.4227
" />
<path d="M52.8326 2.7084
L52.9754 2.5179
" />
<path d="M52.9754 2.5179
L53.1183 2.7084
" />
</g></g>
<g style="fill:none; 
stroke:#AFAFAF; stroke-width:0.1000; stroke-opacity:1; 
stroke-linecap:round; stroke-linejoin:round;">
<path d="M34.0685 0.2850
L34.0685 20.6050
" />
<path d="M34.0685 2.8250
L34.0685 18.0650
" />
<path d="M34.0685 2.8250
L36.1640 18.0650
" />
<path d="M34.0685 18.0650
L75.9785 18.0650
" />
<path d="M34.0685 20.6050
L75.9785 20.6050
" />
<path d="M38.2595 2.8250
L40.3550 18.0650
" />
<path d="M42.4505 2.8250
L44.5460 18.0650
" />
<path d="M46.6415 2.8250
L48.7370 18.0650
" />
<path d="M50.8325 2.8250
L52.9280 18.0650
" />
<path d="M55.0235 2.8250
L57.1190 18.0650
" />
<path d="M59.2145 2.8250
L61.3100 18.0650
" />
<path d="M63.4055 2.8250
L65.5010 18.0650
" />
<path d="M67.5965 2.8250
L69.6920 18.0650
" />
<path d="M71.7875 2.8250
L73.8830 18.0650
" />
<path d="M75.9785 0.2850
L34.0685 0.2850
" />
<path d="M75.9785 2.8250
L34.0685 2.8250
" />
<path d="M75.9785 18.0650
L75.9785 2.8250
" />
<path d="M75.9785 20.6050
L75.9785 0.2850
" />
</g> 
</svg>
