<?xml version="1.0" standalone="no"?>
 <!DOCTYPE svg PUBLIC "-//W3C//DTD SVG 1.1//EN" 
 "http://www.w3.org/Graphics/SVG/1.1/DTD/svg11.dtd"> 
<svg
  xmlns:svg="http://www.w3.org/2000/svg"
  xmlns="http://www.w3.org/2000/svg"
  xmlns:xlink="http://www.w3.org/1999/xlink"
  version="1.1"
  width="37.9984mm" height="26.9240mm" viewBox="0.0000 0.0000 37.9984 26.9240">
<title>SVG Image created as working-brd.svg date 2024/04/22 18:24:42 </title>
  <desc>Image generated by PCBNEW </desc>
<g style="fill:#000000; fill-opacity:1.0000;stroke:#000000; stroke-opacity:1.0000;
stroke-linecap:round; stroke-linejoin:round;"
 transform="translate(0 0) scale(1 1)">
</g>
<g style="fill:#FFFFFF; fill-opacity:1.0000; stroke:none;">
<circle cx="32.1459" cy="14.1600" r="0.7500" /> 
</g>
<g style="fill:#FFFFFF; fill-opacity:1.0000; stroke:none;">
<circle cx="28.6459" cy="21.6600" r="0.7500" /> 
</g>
<g style="fill:#FFFFFF; fill-opacity:1.0000; stroke:none;">
<circle cx="35.6459" cy="21.6600" r="0.7500" /> 
</g>
<g style="fill:#FFFFFF; fill-opacity:1.0000; stroke:none;">
<circle cx="12.1459" cy="3.6600" r="0.7500" /> 
</g>
<g style="fill:#FFFFFF; fill-opacity:1.0000; stroke:none;">
<circle cx="12.1459" cy="21.6600" r="0.7500" /> 
</g>
<g style="fill:#02FFEE; fill-opacity:0.4000; stroke:none;">
<circle cx="32.1459" cy="14.1600" r="1.5000" /> 
</g>
<g style="fill:#02FFEE; fill-opacity:0.4000; stroke:none;">
<circle cx="28.6459" cy="21.6600" r="1.5000" /> 
</g>
<g style="fill:#02FFEE; fill-opacity:0.4000; stroke:none;">
<circle cx="35.6459" cy="21.6600" r="1.5000" /> 
<path style="fill:#02FFEE; fill-opacity:0.4000; stroke:none;fill-rule:evenodd;"
d="M 10.6459,5.1600
10.6459,2.1600
13.6459,2.1600
13.6459,5.1600
Z" /> 
</g>
<g style="fill:#02FFEE; fill-opacity:0.4000; stroke:none;">
<circle cx="12.1459" cy="21.6600" r="1.5000" /> 
</g>
<g style="fill:#FFFFFF; fill-opacity:1.0000; stroke:none;">
<circle cx="32.1459" cy="14.1600" r="0.7500" /> 
</g>
<g style="fill:#FFFFFF; fill-opacity:1.0000; stroke:none;">
<circle cx="28.6459" cy="21.6600" r="0.7500" /> 
</g>
<g style="fill:#FFFFFF; fill-opacity:1.0000; stroke:none;">
<circle cx="35.6459" cy="21.6600" r="0.7500" /> 
</g>
<g style="fill:#FFFFFF; fill-opacity:1.0000; stroke:none;">
<circle cx="12.1459" cy="3.6600" r="0.7500" /> 
</g>
<g style="fill:#FFFFFF; fill-opacity:1.0000; stroke:none;">
<circle cx="12.1459" cy="21.6600" r="0.7500" /> 
</g>
<g style="fill:#FFFFFF; fill-opacity:1.0000; stroke:none;">
<circle cx="32.1459" cy="14.1600" r="0.7500" /> 
</g>
<g style="fill:#FFFFFF; fill-opacity:1.0000; stroke:none;">
<circle cx="28.6459" cy="21.6600" r="0.7500" /> 
</g>
<g style="fill:#FFFFFF; fill-opacity:1.0000; stroke:none;">
<circle cx="35.6459" cy="21.6600" r="0.7500" /> 
</g>
<g style="fill:#FFFFFF; fill-opacity:1.0000; stroke:none;">
<circle cx="12.1459" cy="3.6600" r="0.7500" /> 
</g>
<g style="fill:#FFFFFF; fill-opacity:1.0000; stroke:none;">
<circle cx="12.1459" cy="21.6600" r="0.7500" /> 
</g>
<g style="fill:#D864FF; fill-opacity:0.4000; stroke:none;">
<circle cx="32.1459" cy="14.1600" r="1.5000" /> 
</g>
<g style="fill:#D864FF; fill-opacity:0.4000; stroke:none;">
<circle cx="28.6459" cy="21.6600" r="1.5000" /> 
</g>
<g style="fill:#D864FF; fill-opacity:0.4000; stroke:none;">
<circle cx="35.6459" cy="21.6600" r="1.5000" /> 
<path style="fill:#D864FF; fill-opacity:0.4000; stroke:none;fill-rule:evenodd;"
d="M 10.6459,5.1600
10.6459,2.1600
13.6459,2.1600
13.6459,5.1600
Z" /> 
</g>
<g style="fill:#D864FF; fill-opacity:0.4000; stroke:none;">
<circle cx="12.1459" cy="21.6600" r="1.5000" /> 
</g>
<g style="fill:none; 
stroke:#F2EDA1; stroke-width:0.1588; stroke-opacity:1; 
stroke-linecap:round; stroke-linejoin:round;">
<text x="12.1459" y="4.2950"
textLength="5.6651" font-size="1.6933" lengthAdjust="spacingAndGlyphs"
text-anchor="middle" opacity="0">REF**</text>
<g class="stroked-text"><desc>REF**</desc>
<path d="M10.4526 4.2393
L10.0292 3.6345
" />
<path d="M9.7268 4.2393
L9.7268 2.9693
" />
<path d="M9.7268 2.9693
L10.2106 2.9693
" />
<path d="M10.2106 2.9693
L10.3316 3.0297
" />
<path d="M10.3316 3.0297
L10.3921 3.0902
" />
<path d="M10.3921 3.0902
L10.4526 3.2112
" />
<path d="M10.4526 3.2112
L10.4526 3.3926
" />
<path d="M10.4526 3.3926
L10.3921 3.5136
" />
<path d="M10.3921 3.5136
L10.3316 3.5740
" />
<path d="M10.3316 3.5740
L10.2106 3.6345
" />
<path d="M10.2106 3.6345
L9.7268 3.6345
" />
<path d="M10.9968 3.5740
L11.4202 3.5740
" />
<path d="M11.6016 4.2393
L10.9968 4.2393
" />
<path d="M10.9968 4.2393
L10.9968 2.9693
" />
<path d="M10.9968 2.9693
L11.6016 2.9693
" />
<path d="M12.5692 3.5740
L12.1459 3.5740
" />
<path d="M12.1459 4.2393
L12.1459 2.9693
" />
<path d="M12.1459 2.9693
L12.7506 2.9693
" />
<path d="M13.4159 2.9693
L13.4159 3.2717
" />
<path d="M13.1135 3.1507
L13.4159 3.2717
" />
<path d="M13.4159 3.2717
L13.7183 3.1507
" />
<path d="M13.2345 3.5136
L13.4159 3.2717
" />
<path d="M13.4159 3.2717
L13.5973 3.5136
" />
<path d="M14.3835 2.9693
L14.3835 3.2717
" />
<path d="M14.0811 3.1507
L14.3835 3.2717
" />
<path d="M14.3835 3.2717
L14.6859 3.1507
" />
<path d="M14.2021 3.5136
L14.3835 3.2717
" />
<path d="M14.3835 3.2717
L14.5649 3.5136
" />
</g></g>
<g style="fill:none; 
stroke:#F2EDA1; stroke-width:0.1200; stroke-opacity:1; 
stroke-linecap:round; stroke-linejoin:round;">
<path d="M8.9459 2.4600
L8.9459 0.0600
" />
<path d="M9.1459 0.2600
L37.8459 0.2600
" />
<path d="M9.1459 26.7600
L9.1459 0.2600
" />
<path d="M9.1459 26.7600
L37.8459 26.7600
" />
<path d="M10.8359 10.8300
L12.1059 10.8300
" />
<path d="M10.8359 12.1000
L13.3759 13.3700
" />
<path d="M10.8359 15.9100
L10.8359 10.8300
" />
<path d="M11.3459 0.0600
L8.9459 0.0600
" />
<path d="M12.1059 9.5600
L12.1059 10.8300
" />
<path d="M12.1059 10.8300
L13.3759 10.8300
" />
<path d="M12.1059 15.9100
L12.1059 17.1800
" />
<path d="M13.3759 10.8300
L13.3759 15.9100
" />
<path d="M13.3759 15.9100
L10.8359 15.9100
" />
<path d="M37.8459 26.7600
L37.8459 0.2600
" />
</g>
<g style="fill:#FFFFFF; fill-opacity:1.0000; stroke:none;">
<circle cx="32.1459" cy="14.1600" r="0.7500" /> 
</g>
<g style="fill:#FFFFFF; fill-opacity:1.0000; stroke:none;">
<circle cx="28.6459" cy="21.6600" r="0.7500" /> 
</g>
<g style="fill:#FFFFFF; fill-opacity:1.0000; stroke:none;">
<circle cx="35.6459" cy="21.6600" r="0.7500" /> 
</g>
<g style="fill:#FFFFFF; fill-opacity:1.0000; stroke:none;">
<circle cx="12.1459" cy="3.6600" r="0.7500" /> 
</g>
<g style="fill:#FFFFFF; fill-opacity:1.0000; stroke:none;">
<circle cx="12.1459" cy="21.6600" r="0.7500" /> 
</g>
<g style="fill:none; 
stroke:#FF26E2; stroke-width:0.0500; stroke-opacity:1; 
stroke-linecap:round; stroke-linejoin:round;">
<path d="M8.9959 0.1100
L8.9959 26.9100
" />
<path d="M8.9959 0.1100
L37.9959 0.1100
" />
<path d="M37.9959 26.9100
L8.9959 26.9100
" />
<path d="M37.9959 26.9100
L37.9959 0.1100
" />
</g>
<g style="fill:none; 
stroke:#AFAFAF; stroke-width:0.1588; stroke-opacity:1; 
stroke-linecap:round; stroke-linejoin:round;">
<text x="12.1459" y="4.2950"
textLength="24.2918" font-size="1.6933" lengthAdjust="spacingAndGlyphs"
text-anchor="middle" opacity="0">Relay_SPDT_Finder_40.11</text>
<g class="stroked-text"><desc>Relay_SPDT_Finder_40.11</desc>
<path d="M1.1392 4.2393
L0.7159 3.6345
" />
<path d="M0.4135 4.2393
L0.4135 2.9693
" />
<path d="M0.4135 2.9693
L0.8973 2.9693
" />
<path d="M0.8973 2.9693
L1.0183 3.0297
" />
<path d="M1.0183 3.0297
L1.0787 3.0902
" />
<path d="M1.0787 3.0902
L1.1392 3.2112
" />
<path d="M1.1392 3.2112
L1.1392 3.3926
" />
<path d="M1.1392 3.3926
L1.0787 3.5136
" />
<path d="M1.0787 3.5136
L1.0183 3.5740
" />
<path d="M1.0183 3.5740
L0.8973 3.6345
" />
<path d="M0.8973 3.6345
L0.4135 3.6345
" />
<path d="M2.1673 4.1788
L2.0464 4.2393
" />
<path d="M2.0464 4.2393
L1.8045 4.2393
" />
<path d="M1.8045 4.2393
L1.6835 4.1788
" />
<path d="M1.6835 4.1788
L1.6230 4.0578
" />
<path d="M1.6230 4.0578
L1.6230 3.5740
" />
<path d="M1.6230 3.5740
L1.6835 3.4531
" />
<path d="M1.6835 3.4531
L1.8045 3.3926
" />
<path d="M1.8045 3.3926
L2.0464 3.3926
" />
<path d="M2.0464 3.3926
L2.1673 3.4531
" />
<path d="M2.1673 3.4531
L2.2278 3.5740
" />
<path d="M2.2278 3.5740
L2.2278 3.6950
" />
<path d="M2.2278 3.6950
L1.6230 3.8159
" />
<path d="M2.9535 4.2393
L2.8326 4.1788
" />
<path d="M2.8326 4.1788
L2.7721 4.0578
" />
<path d="M2.7721 4.0578
L2.7721 2.9693
" />
<path d="M3.9816 4.2393
L3.9816 3.5740
" />
<path d="M3.9816 3.5740
L3.9211 3.4531
" />
<path d="M3.9211 3.4531
L3.8002 3.3926
" />
<path d="M3.8002 3.3926
L3.5583 3.3926
" />
<path d="M3.5583 3.3926
L3.4373 3.4531
" />
<path d="M3.9816 4.1788
L3.8606 4.2393
" />
<path d="M3.8606 4.2393
L3.5583 4.2393
" />
<path d="M3.5583 4.2393
L3.4373 4.1788
" />
<path d="M3.4373 4.1788
L3.3768 4.0578
" />
<path d="M3.3768 4.0578
L3.3768 3.9369
" />
<path d="M3.3768 3.9369
L3.4373 3.8159
" />
<path d="M3.4373 3.8159
L3.5583 3.7555
" />
<path d="M3.5583 3.7555
L3.8606 3.7555
" />
<path d="M3.8606 3.7555
L3.9816 3.6950
" />
<path d="M4.4654 3.3926
L4.7678 4.2393
" />
<path d="M5.0702 3.3926
L4.7678 4.2393
" />
<path d="M4.7678 4.2393
L4.6468 4.5417
" />
<path d="M4.6468 4.5417
L4.5864 4.6021
" />
<path d="M4.5864 4.6021
L4.4654 4.6626
" />
<path d="M5.2516 4.3602
L6.2192 4.3602
" />
<path d="M6.4611 4.1788
L6.6426 4.2393
" />
<path d="M6.6426 4.2393
L6.9449 4.2393
" />
<path d="M6.9449 4.2393
L7.0659 4.1788
" />
<path d="M7.0659 4.1788
L7.1264 4.1183
" />
<path d="M7.1264 4.1183
L7.1868 3.9974
" />
<path d="M7.1868 3.9974
L7.1868 3.8764
" />
<path d="M7.1868 3.8764
L7.1264 3.7555
" />
<path d="M7.1264 3.7555
L7.0659 3.6950
" />
<path d="M7.0659 3.6950
L6.9449 3.6345
" />
<path d="M6.9449 3.6345
L6.7030 3.5740
" />
<path d="M6.7030 3.5740
L6.5821 3.5136
" />
<path d="M6.5821 3.5136
L6.5216 3.4531
" />
<path d="M6.5216 3.4531
L6.4611 3.3321
" />
<path d="M6.4611 3.3321
L6.4611 3.2112
" />
<path d="M6.4611 3.2112
L6.5216 3.0902
" />
<path d="M6.5216 3.0902
L6.5821 3.0297
" />
<path d="M6.5821 3.0297
L6.7030 2.9693
" />
<path d="M6.7030 2.9693
L7.0054 2.9693
" />
<path d="M7.0054 2.9693
L7.1868 3.0297
" />
<path d="M7.7311 4.2393
L7.7311 2.9693
" />
<path d="M7.7311 2.9693
L8.2149 2.9693
" />
<path d="M8.2149 2.9693
L8.3359 3.0297
" />
<path d="M8.3359 3.0297
L8.3964 3.0902
" />
<path d="M8.3964 3.0902
L8.4568 3.2112
" />
<path d="M8.4568 3.2112
L8.4568 3.3926
" />
<path d="M8.4568 3.3926
L8.3964 3.5136
" />
<path d="M8.3964 3.5136
L8.3359 3.5740
" />
<path d="M8.3359 3.5740
L8.2149 3.6345
" />
<path d="M8.2149 3.6345
L7.7311 3.6345
" />
<path d="M9.0011 4.2393
L9.0011 2.9693
" />
<path d="M9.0011 2.9693
L9.3035 2.9693
" />
<path d="M9.3035 2.9693
L9.4849 3.0297
" />
<path d="M9.4849 3.0297
L9.6059 3.1507
" />
<path d="M9.6059 3.1507
L9.6664 3.2717
" />
<path d="M9.6664 3.2717
L9.7268 3.5136
" />
<path d="M9.7268 3.5136
L9.7268 3.6950
" />
<path d="M9.7268 3.6950
L9.6664 3.9369
" />
<path d="M9.6664 3.9369
L9.6059 4.0578
" />
<path d="M9.6059 4.0578
L9.4849 4.1788
" />
<path d="M9.4849 4.1788
L9.3035 4.2393
" />
<path d="M9.3035 4.2393
L9.0011 4.2393
" />
<path d="M10.0897 2.9693
L10.8154 2.9693
" />
<path d="M10.4526 4.2393
L10.4526 2.9693
" />
<path d="M10.9364 4.3602
L11.9040 4.3602
" />
<path d="M12.6297 3.5740
L12.2064 3.5740
" />
<path d="M12.2064 4.2393
L12.2064 2.9693
" />
<path d="M12.2064 2.9693
L12.8111 2.9693
" />
<path d="M13.2949 4.2393
L13.2949 3.3926
" />
<path d="M13.2949 2.9693
L13.2345 3.0297
" />
<path d="M13.2345 3.0297
L13.2949 3.0902
" />
<path d="M13.2949 3.0902
L13.3554 3.0297
" />
<path d="M13.3554 3.0297
L13.2949 2.9693
" />
<path d="M13.2949 2.9693
L13.2949 3.0902
" />
<path d="M13.8997 3.3926
L13.8997 4.2393
" />
<path d="M13.8997 3.5136
L13.9602 3.4531
" />
<path d="M13.9602 3.4531
L14.0811 3.3926
" />
<path d="M14.0811 3.3926
L14.2626 3.3926
" />
<path d="M14.2626 3.3926
L14.3835 3.4531
" />
<path d="M14.3835 3.4531
L14.4440 3.5740
" />
<path d="M14.4440 3.5740
L14.4440 4.2393
" />
<path d="M15.5930 4.2393
L15.5930 2.9693
" />
<path d="M15.5930 4.1788
L15.4721 4.2393
" />
<path d="M15.4721 4.2393
L15.2302 4.2393
" />
<path d="M15.2302 4.2393
L15.1092 4.1788
" />
<path d="M15.1092 4.1788
L15.0487 4.1183
" />
<path d="M15.0487 4.1183
L14.9883 3.9974
" />
<path d="M14.9883 3.9974
L14.9883 3.6345
" />
<path d="M14.9883 3.6345
L15.0487 3.5136
" />
<path d="M15.0487 3.5136
L15.1092 3.4531
" />
<path d="M15.1092 3.4531
L15.2302 3.3926
" />
<path d="M15.2302 3.3926
L15.4721 3.3926
" />
<path d="M15.4721 3.3926
L15.5930 3.4531
" />
<path d="M16.6816 4.1788
L16.5606 4.2393
" />
<path d="M16.5606 4.2393
L16.3187 4.2393
" />
<path d="M16.3187 4.2393
L16.1978 4.1788
" />
<path d="M16.1978 4.1788
L16.1373 4.0578
" />
<path d="M16.1373 4.0578
L16.1373 3.5740
" />
<path d="M16.1373 3.5740
L16.1978 3.4531
" />
<path d="M16.1978 3.4531
L16.3187 3.3926
" />
<path d="M16.3187 3.3926
L16.5606 3.3926
" />
<path d="M16.5606 3.3926
L16.6816 3.4531
" />
<path d="M16.6816 3.4531
L16.7421 3.5740
" />
<path d="M16.7421 3.5740
L16.7421 3.6950
" />
<path d="M16.7421 3.6950
L16.1373 3.8159
" />
<path d="M17.2864 4.2393
L17.2864 3.3926
" />
<path d="M17.2864 3.6345
L17.3468 3.5136
" />
<path d="M17.3468 3.5136
L17.4073 3.4531
" />
<path d="M17.4073 3.4531
L17.5283 3.3926
" />
<path d="M17.5283 3.3926
L17.6492 3.3926
" />
<path d="M17.7702 4.3602
L18.7378 4.3602
" />
<path d="M19.5845 3.3926
L19.5845 4.2393
" />
<path d="M19.2821 2.9088
L18.9797 3.8159
" />
<path d="M18.9797 3.8159
L19.7659 3.8159
" />
<path d="M20.4916 2.9693
L20.6126 2.9693
" />
<path d="M20.6126 2.9693
L20.7335 3.0297
" />
<path d="M20.7335 3.0297
L20.7940 3.0902
" />
<path d="M20.7940 3.0902
L20.8545 3.2112
" />
<path d="M20.8545 3.2112
L20.9149 3.4531
" />
<path d="M20.9149 3.4531
L20.9149 3.7555
" />
<path d="M20.9149 3.7555
L20.8545 3.9974
" />
<path d="M20.8545 3.9974
L20.7940 4.1183
" />
<path d="M20.7940 4.1183
L20.7335 4.1788
" />
<path d="M20.7335 4.1788
L20.6126 4.2393
" />
<path d="M20.6126 4.2393
L20.4916 4.2393
" />
<path d="M20.4916 4.2393
L20.3706 4.1788
" />
<path d="M20.3706 4.1788
L20.3102 4.1183
" />
<path d="M20.3102 4.1183
L20.2497 3.9974
" />
<path d="M20.2497 3.9974
L20.1892 3.7555
" />
<path d="M20.1892 3.7555
L20.1892 3.4531
" />
<path d="M20.1892 3.4531
L20.2497 3.2112
" />
<path d="M20.2497 3.2112
L20.3102 3.0902
" />
<path d="M20.3102 3.0902
L20.3706 3.0297
" />
<path d="M20.3706 3.0297
L20.4916 2.9693
" />
<path d="M21.4592 4.1183
L21.5197 4.1788
" />
<path d="M21.5197 4.1788
L21.4592 4.2393
" />
<path d="M21.4592 4.2393
L21.3987 4.1788
" />
<path d="M21.3987 4.1788
L21.4592 4.1183
" />
<path d="M21.4592 4.1183
L21.4592 4.2393
" />
<path d="M22.7292 4.2393
L22.0035 4.2393
" />
<path d="M22.3664 4.2393
L22.3664 2.9693
" />
<path d="M22.3664 2.9693
L22.2454 3.1507
" />
<path d="M22.2454 3.1507
L22.1245 3.2717
" />
<path d="M22.1245 3.2717
L22.0035 3.3321
" />
<path d="M23.9387 4.2393
L23.2130 4.2393
" />
<path d="M23.5759 4.2393
L23.5759 2.9693
" />
<path d="M23.5759 2.9693
L23.4549 3.1507
" />
<path d="M23.4549 3.1507
L23.3340 3.2717
" />
<path d="M23.3340 3.2717
L23.2130 3.3321
" />
</g></g>
<g style="fill:none; 
stroke:#AFAFAF; stroke-width:0.1500; stroke-opacity:1; 
stroke-linecap:round; stroke-linejoin:round;">
<text x="22.8459" y="14.7600"
textLength="4.5357" font-size="1.3333" lengthAdjust="spacingAndGlyphs"
text-anchor="middle" opacity="0">REF**</text>
<g class="stroked-text"><desc>REF**</desc>
<path d="M21.5126 14.7148
L21.1792 14.2386
" />
<path d="M20.9411 14.7148
L20.9411 13.7148
" />
<path d="M20.9411 13.7148
L21.3221 13.7148
" />
<path d="M21.3221 13.7148
L21.4173 13.7624
" />
<path d="M21.4173 13.7624
L21.4649 13.8101
" />
<path d="M21.4649 13.8101
L21.5126 13.9053
" />
<path d="M21.5126 13.9053
L21.5126 14.0482
" />
<path d="M21.5126 14.0482
L21.4649 14.1434
" />
<path d="M21.4649 14.1434
L21.4173 14.1910
" />
<path d="M21.4173 14.1910
L21.3221 14.2386
" />
<path d="M21.3221 14.2386
L20.9411 14.2386
" />
<path d="M21.9411 14.1910
L22.2745 14.1910
" />
<path d="M22.4173 14.7148
L21.9411 14.7148
" />
<path d="M21.9411 14.7148
L21.9411 13.7148
" />
<path d="M21.9411 13.7148
L22.4173 13.7148
" />
<path d="M23.1792 14.1910
L22.8459 14.1910
" />
<path d="M22.8459 14.7148
L22.8459 13.7148
" />
<path d="M22.8459 13.7148
L23.3221 13.7148
" />
<path d="M23.8459 13.7148
L23.8459 13.9529
" />
<path d="M23.6078 13.8577
L23.8459 13.9529
" />
<path d="M23.8459 13.9529
L24.0840 13.8577
" />
<path d="M23.7030 14.1434
L23.8459 13.9529
" />
<path d="M23.8459 13.9529
L23.9887 14.1434
" />
<path d="M24.6078 13.7148
L24.6078 13.9529
" />
<path d="M24.3697 13.8577
L24.6078 13.9529
" />
<path d="M24.6078 13.9529
L24.8459 13.8577
" />
<path d="M24.4649 14.1434
L24.6078 13.9529
" />
<path d="M24.6078 13.9529
L24.7506 14.1434
" />
</g></g>
<g style="fill:none; 
stroke:#AFAFAF; stroke-width:0.1200; stroke-opacity:1; 
stroke-linecap:round; stroke-linejoin:round;">
<path d="M9.2459 1.4600
L9.2459 26.6600
" />
<path d="M9.2459 26.6600
L37.7459 26.6600
" />
<path d="M10.2459 0.3600
L9.2459 1.4600
" />
<path d="M37.7459 0.3600
L10.2459 0.3600
" />
<path d="M37.7459 26.6600
L37.7459 0.3600
" />
</g> 
</svg>
