<?xml version="1.0" standalone="no"?>
 <!DOCTYPE svg PUBLIC "-//W3C//DTD SVG 1.1//EN" 
 "http://www.w3.org/Graphics/SVG/1.1/DTD/svg11.dtd"> 
<svg
  xmlns:svg="http://www.w3.org/2000/svg"
  xmlns="http://www.w3.org/2000/svg"
  xmlns:xlink="http://www.w3.org/1999/xlink"
  version="1.1"
  width="46.8376mm" height="44.5770mm" viewBox="0.0000 0.0000 46.8376 44.5770">
<title>SVG Image created as working-brd.svg date 2024/04/04 07:38:57 </title>
  <desc>Image generated by PCBNEW </desc>
<g style="fill:#000000; fill-opacity:1.0000;stroke:#000000; stroke-opacity:1.0000;
stroke-linecap:round; stroke-linejoin:round;"
 transform="translate(0 0) scale(1 1)">
<path style="fill:#C83434; fill-opacity:1.0000; stroke:none;fill-rule:evenodd;"
d="M 21.1747,1.6950
21.1747,1.0450
22.9747,1.0450
22.9747,1.6950
Z" /> 
<path style="fill:#C83434; fill-opacity:1.0000; stroke:none;fill-rule:evenodd;"
d="M 23.8747,2.9650
23.8747,2.3150
25.6747,2.3150
25.6747,2.9650
Z" /> 
<path style="fill:#C83434; fill-opacity:1.0000; stroke:none;fill-rule:evenodd;"
d="M 21.1747,4.2350
21.1747,3.5850
22.9747,3.5850
22.9747,4.2350
Z" /> 
<path style="fill:#C83434; fill-opacity:1.0000; stroke:none;fill-rule:evenodd;"
d="M 23.8747,5.5050
23.8747,4.8550
25.6747,4.8550
25.6747,5.5050
Z" /> 
<path style="fill:#C83434; fill-opacity:1.0000; stroke:none;fill-rule:evenodd;"
d="M 21.1747,6.7750
21.1747,6.1250
22.9747,6.1250
22.9747,6.7750
Z" /> 
<path style="fill:#C83434; fill-opacity:1.0000; stroke:none;fill-rule:evenodd;"
d="M 23.8747,8.0450
23.8747,7.3950
25.6747,7.3950
25.6747,8.0450
Z" /> 
<path style="fill:#C83434; fill-opacity:1.0000; stroke:none;fill-rule:evenodd;"
d="M 21.1747,9.3150
21.1747,8.6650
22.9747,8.6650
22.9747,9.3150
Z" /> 
<path style="fill:#C83434; fill-opacity:1.0000; stroke:none;fill-rule:evenodd;"
d="M 23.8747,10.5850
23.8747,9.9350
25.6747,9.9350
25.6747,10.5850
Z" /> 
<path style="fill:#C83434; fill-opacity:1.0000; stroke:none;fill-rule:evenodd;"
d="M 21.1747,11.8550
21.1747,11.2050
22.9747,11.2050
22.9747,11.8550
Z" /> 
<path style="fill:#C83434; fill-opacity:1.0000; stroke:none;fill-rule:evenodd;"
d="M 23.8747,13.1250
23.8747,12.4750
25.6747,12.4750
25.6747,13.1250
Z" /> 
<path style="fill:#C83434; fill-opacity:1.0000; stroke:none;fill-rule:evenodd;"
d="M 21.1747,14.3950
21.1747,13.7450
22.9747,13.7450
22.9747,14.3950
Z" /> 
<path style="fill:#C83434; fill-opacity:1.0000; stroke:none;fill-rule:evenodd;"
d="M 23.8747,15.6650
23.8747,15.0150
25.6747,15.0150
25.6747,15.6650
Z" /> 
<path style="fill:#C83434; fill-opacity:1.0000; stroke:none;fill-rule:evenodd;"
d="M 21.1747,16.9350
21.1747,16.2850
22.9747,16.2850
22.9747,16.9350
Z" /> 
<path style="fill:#C83434; fill-opacity:1.0000; stroke:none;fill-rule:evenodd;"
d="M 23.8747,18.2050
23.8747,17.5550
25.6747,17.5550
25.6747,18.2050
Z" /> 
<path style="fill:#C83434; fill-opacity:1.0000; stroke:none;fill-rule:evenodd;"
d="M 21.1747,19.4750
21.1747,18.8250
22.9747,18.8250
22.9747,19.4750
Z" /> 
<path style="fill:#C83434; fill-opacity:1.0000; stroke:none;fill-rule:evenodd;"
d="M 23.8747,20.7450
23.8747,20.0950
25.6747,20.0950
25.6747,20.7450
Z" /> 
<path style="fill:#C83434; fill-opacity:1.0000; stroke:none;fill-rule:evenodd;"
d="M 21.1747,22.0150
21.1747,21.3650
22.9747,21.3650
22.9747,22.0150
Z" /> 
<path style="fill:#C83434; fill-opacity:1.0000; stroke:none;fill-rule:evenodd;"
d="M 23.8747,23.2850
23.8747,22.6350
25.6747,22.6350
25.6747,23.2850
Z" /> 
<path style="fill:#C83434; fill-opacity:1.0000; stroke:none;fill-rule:evenodd;"
d="M 21.1747,24.5550
21.1747,23.9050
22.9747,23.9050
22.9747,24.5550
Z" /> 
<path style="fill:#C83434; fill-opacity:1.0000; stroke:none;fill-rule:evenodd;"
d="M 23.8747,25.8250
23.8747,25.1750
25.6747,25.1750
25.6747,25.8250
Z" /> 
<path style="fill:#C83434; fill-opacity:1.0000; stroke:none;fill-rule:evenodd;"
d="M 21.1747,27.0950
21.1747,26.4450
22.9747,26.4450
22.9747,27.0950
Z" /> 
<path style="fill:#C83434; fill-opacity:1.0000; stroke:none;fill-rule:evenodd;"
d="M 23.8747,28.3650
23.8747,27.7150
25.6747,27.7150
25.6747,28.3650
Z" /> 
<path style="fill:#C83434; fill-opacity:1.0000; stroke:none;fill-rule:evenodd;"
d="M 21.1747,29.6350
21.1747,28.9850
22.9747,28.9850
22.9747,29.6350
Z" /> 
<path style="fill:#C83434; fill-opacity:1.0000; stroke:none;fill-rule:evenodd;"
d="M 23.8747,30.9050
23.8747,30.2550
25.6747,30.2550
25.6747,30.9050
Z" /> 
<path style="fill:#C83434; fill-opacity:1.0000; stroke:none;fill-rule:evenodd;"
d="M 21.1747,32.1750
21.1747,31.5250
22.9747,31.5250
22.9747,32.1750
Z" /> 
<path style="fill:#C83434; fill-opacity:1.0000; stroke:none;fill-rule:evenodd;"
d="M 23.8747,33.4450
23.8747,32.7950
25.6747,32.7950
25.6747,33.4450
Z" /> 
<path style="fill:#C83434; fill-opacity:1.0000; stroke:none;fill-rule:evenodd;"
d="M 21.1747,34.7150
21.1747,34.0650
22.9747,34.0650
22.9747,34.7150
Z" /> 
<path style="fill:#C83434; fill-opacity:1.0000; stroke:none;fill-rule:evenodd;"
d="M 23.8747,35.9850
23.8747,35.3350
25.6747,35.3350
25.6747,35.9850
Z" /> 
<path style="fill:#C83434; fill-opacity:1.0000; stroke:none;fill-rule:evenodd;"
d="M 21.1747,37.2550
21.1747,36.6050
22.9747,36.6050
22.9747,37.2550
Z" /> 
<path style="fill:#C83434; fill-opacity:1.0000; stroke:none;fill-rule:evenodd;"
d="M 23.8747,38.5250
23.8747,37.8750
25.6747,37.8750
25.6747,38.5250
Z" /> 
<path style="fill:#C83434; fill-opacity:1.0000; stroke:none;fill-rule:evenodd;"
d="M 21.1747,39.7950
21.1747,39.1450
22.9747,39.1450
22.9747,39.7950
Z" /> 
<path style="fill:#C83434; fill-opacity:1.0000; stroke:none;fill-rule:evenodd;"
d="M 23.8747,41.0650
23.8747,40.4150
25.6747,40.4150
25.6747,41.0650
Z" /> 
<path style="fill:#C83434; fill-opacity:1.0000; stroke:none;fill-rule:evenodd;"
d="M 21.1747,42.3350
21.1747,41.6850
22.9747,41.6850
22.9747,42.3350
Z" /> 
<path style="fill:#C83434; fill-opacity:1.0000; stroke:none;fill-rule:evenodd;"
d="M 23.8747,43.6050
23.8747,42.9550
25.6747,42.9550
25.6747,43.6050
Z" /> 
<path style="fill:#D864FF; fill-opacity:0.4000; stroke:none;fill-rule:evenodd;"
d="M 21.1747,1.6950
21.1747,1.0450
22.9747,1.0450
22.9747,1.6950
Z" /> 
<path style="fill:#D864FF; fill-opacity:0.4000; stroke:none;fill-rule:evenodd;"
d="M 23.8747,2.9650
23.8747,2.3150
25.6747,2.3150
25.6747,2.9650
Z" /> 
<path style="fill:#D864FF; fill-opacity:0.4000; stroke:none;fill-rule:evenodd;"
d="M 21.1747,4.2350
21.1747,3.5850
22.9747,3.5850
22.9747,4.2350
Z" /> 
<path style="fill:#D864FF; fill-opacity:0.4000; stroke:none;fill-rule:evenodd;"
d="M 23.8747,5.5050
23.8747,4.8550
25.6747,4.8550
25.6747,5.5050
Z" /> 
<path style="fill:#D864FF; fill-opacity:0.4000; stroke:none;fill-rule:evenodd;"
d="M 21.1747,6.7750
21.1747,6.1250
22.9747,6.1250
22.9747,6.7750
Z" /> 
<path style="fill:#D864FF; fill-opacity:0.4000; stroke:none;fill-rule:evenodd;"
d="M 23.8747,8.0450
23.8747,7.3950
25.6747,7.3950
25.6747,8.0450
Z" /> 
<path style="fill:#D864FF; fill-opacity:0.4000; stroke:none;fill-rule:evenodd;"
d="M 21.1747,9.3150
21.1747,8.6650
22.9747,8.6650
22.9747,9.3150
Z" /> 
<path style="fill:#D864FF; fill-opacity:0.4000; stroke:none;fill-rule:evenodd;"
d="M 23.8747,10.5850
23.8747,9.9350
25.6747,9.9350
25.6747,10.5850
Z" /> 
<path style="fill:#D864FF; fill-opacity:0.4000; stroke:none;fill-rule:evenodd;"
d="M 21.1747,11.8550
21.1747,11.2050
22.9747,11.2050
22.9747,11.8550
Z" /> 
<path style="fill:#D864FF; fill-opacity:0.4000; stroke:none;fill-rule:evenodd;"
d="M 23.8747,13.1250
23.8747,12.4750
25.6747,12.4750
25.6747,13.1250
Z" /> 
<path style="fill:#D864FF; fill-opacity:0.4000; stroke:none;fill-rule:evenodd;"
d="M 21.1747,14.3950
21.1747,13.7450
22.9747,13.7450
22.9747,14.3950
Z" /> 
<path style="fill:#D864FF; fill-opacity:0.4000; stroke:none;fill-rule:evenodd;"
d="M 23.8747,15.6650
23.8747,15.0150
25.6747,15.0150
25.6747,15.6650
Z" /> 
<path style="fill:#D864FF; fill-opacity:0.4000; stroke:none;fill-rule:evenodd;"
d="M 21.1747,16.9350
21.1747,16.2850
22.9747,16.2850
22.9747,16.9350
Z" /> 
<path style="fill:#D864FF; fill-opacity:0.4000; stroke:none;fill-rule:evenodd;"
d="M 23.8747,18.2050
23.8747,17.5550
25.6747,17.5550
25.6747,18.2050
Z" /> 
<path style="fill:#D864FF; fill-opacity:0.4000; stroke:none;fill-rule:evenodd;"
d="M 21.1747,19.4750
21.1747,18.8250
22.9747,18.8250
22.9747,19.4750
Z" /> 
<path style="fill:#D864FF; fill-opacity:0.4000; stroke:none;fill-rule:evenodd;"
d="M 23.8747,20.7450
23.8747,20.0950
25.6747,20.0950
25.6747,20.7450
Z" /> 
<path style="fill:#D864FF; fill-opacity:0.4000; stroke:none;fill-rule:evenodd;"
d="M 21.1747,22.0150
21.1747,21.3650
22.9747,21.3650
22.9747,22.0150
Z" /> 
<path style="fill:#D864FF; fill-opacity:0.4000; stroke:none;fill-rule:evenodd;"
d="M 23.8747,23.2850
23.8747,22.6350
25.6747,22.6350
25.6747,23.2850
Z" /> 
<path style="fill:#D864FF; fill-opacity:0.4000; stroke:none;fill-rule:evenodd;"
d="M 21.1747,24.5550
21.1747,23.9050
22.9747,23.9050
22.9747,24.5550
Z" /> 
<path style="fill:#D864FF; fill-opacity:0.4000; stroke:none;fill-rule:evenodd;"
d="M 23.8747,25.8250
23.8747,25.1750
25.6747,25.1750
25.6747,25.8250
Z" /> 
<path style="fill:#D864FF; fill-opacity:0.4000; stroke:none;fill-rule:evenodd;"
d="M 21.1747,27.0950
21.1747,26.4450
22.9747,26.4450
22.9747,27.0950
Z" /> 
<path style="fill:#D864FF; fill-opacity:0.4000; stroke:none;fill-rule:evenodd;"
d="M 23.8747,28.3650
23.8747,27.7150
25.6747,27.7150
25.6747,28.3650
Z" /> 
<path style="fill:#D864FF; fill-opacity:0.4000; stroke:none;fill-rule:evenodd;"
d="M 21.1747,29.6350
21.1747,28.9850
22.9747,28.9850
22.9747,29.6350
Z" /> 
<path style="fill:#D864FF; fill-opacity:0.4000; stroke:none;fill-rule:evenodd;"
d="M 23.8747,30.9050
23.8747,30.2550
25.6747,30.2550
25.6747,30.9050
Z" /> 
<path style="fill:#D864FF; fill-opacity:0.4000; stroke:none;fill-rule:evenodd;"
d="M 21.1747,32.1750
21.1747,31.5250
22.9747,31.5250
22.9747,32.1750
Z" /> 
<path style="fill:#D864FF; fill-opacity:0.4000; stroke:none;fill-rule:evenodd;"
d="M 23.8747,33.4450
23.8747,32.7950
25.6747,32.7950
25.6747,33.4450
Z" /> 
<path style="fill:#D864FF; fill-opacity:0.4000; stroke:none;fill-rule:evenodd;"
d="M 21.1747,34.7150
21.1747,34.0650
22.9747,34.0650
22.9747,34.7150
Z" /> 
<path style="fill:#D864FF; fill-opacity:0.4000; stroke:none;fill-rule:evenodd;"
d="M 23.8747,35.9850
23.8747,35.3350
25.6747,35.3350
25.6747,35.9850
Z" /> 
<path style="fill:#D864FF; fill-opacity:0.4000; stroke:none;fill-rule:evenodd;"
d="M 21.1747,37.2550
21.1747,36.6050
22.9747,36.6050
22.9747,37.2550
Z" /> 
<path style="fill:#D864FF; fill-opacity:0.4000; stroke:none;fill-rule:evenodd;"
d="M 23.8747,38.5250
23.8747,37.8750
25.6747,37.8750
25.6747,38.5250
Z" /> 
<path style="fill:#D864FF; fill-opacity:0.4000; stroke:none;fill-rule:evenodd;"
d="M 21.1747,39.7950
21.1747,39.1450
22.9747,39.1450
22.9747,39.7950
Z" /> 
<path style="fill:#D864FF; fill-opacity:0.4000; stroke:none;fill-rule:evenodd;"
d="M 23.8747,41.0650
23.8747,40.4150
25.6747,40.4150
25.6747,41.0650
Z" /> 
<path style="fill:#D864FF; fill-opacity:0.4000; stroke:none;fill-rule:evenodd;"
d="M 21.1747,42.3350
21.1747,41.6850
22.9747,41.6850
22.9747,42.3350
Z" /> 
<path style="fill:#D864FF; fill-opacity:0.4000; stroke:none;fill-rule:evenodd;"
d="M 23.8747,43.6050
23.8747,42.9550
25.6747,42.9550
25.6747,43.6050
Z" /> 
<path style="fill:#B4A09A; fill-opacity:0.9000; stroke:none;fill-rule:evenodd;"
d="M 21.1747,1.6950
21.1747,1.0450
22.9747,1.0450
22.9747,1.6950
Z" /> 
<path style="fill:#B4A09A; fill-opacity:0.9000; stroke:none;fill-rule:evenodd;"
d="M 23.8747,2.9650
23.8747,2.3150
25.6747,2.3150
25.6747,2.9650
Z" /> 
<path style="fill:#B4A09A; fill-opacity:0.9000; stroke:none;fill-rule:evenodd;"
d="M 21.1747,4.2350
21.1747,3.5850
22.9747,3.5850
22.9747,4.2350
Z" /> 
<path style="fill:#B4A09A; fill-opacity:0.9000; stroke:none;fill-rule:evenodd;"
d="M 23.8747,5.5050
23.8747,4.8550
25.6747,4.8550
25.6747,5.5050
Z" /> 
<path style="fill:#B4A09A; fill-opacity:0.9000; stroke:none;fill-rule:evenodd;"
d="M 21.1747,6.7750
21.1747,6.1250
22.9747,6.1250
22.9747,6.7750
Z" /> 
<path style="fill:#B4A09A; fill-opacity:0.9000; stroke:none;fill-rule:evenodd;"
d="M 23.8747,8.0450
23.8747,7.3950
25.6747,7.3950
25.6747,8.0450
Z" /> 
<path style="fill:#B4A09A; fill-opacity:0.9000; stroke:none;fill-rule:evenodd;"
d="M 21.1747,9.3150
21.1747,8.6650
22.9747,8.6650
22.9747,9.3150
Z" /> 
<path style="fill:#B4A09A; fill-opacity:0.9000; stroke:none;fill-rule:evenodd;"
d="M 23.8747,10.5850
23.8747,9.9350
25.6747,9.9350
25.6747,10.5850
Z" /> 
<path style="fill:#B4A09A; fill-opacity:0.9000; stroke:none;fill-rule:evenodd;"
d="M 21.1747,11.8550
21.1747,11.2050
22.9747,11.2050
22.9747,11.8550
Z" /> 
<path style="fill:#B4A09A; fill-opacity:0.9000; stroke:none;fill-rule:evenodd;"
d="M 23.8747,13.1250
23.8747,12.4750
25.6747,12.4750
25.6747,13.1250
Z" /> 
<path style="fill:#B4A09A; fill-opacity:0.9000; stroke:none;fill-rule:evenodd;"
d="M 21.1747,14.3950
21.1747,13.7450
22.9747,13.7450
22.9747,14.3950
Z" /> 
<path style="fill:#B4A09A; fill-opacity:0.9000; stroke:none;fill-rule:evenodd;"
d="M 23.8747,15.6650
23.8747,15.0150
25.6747,15.0150
25.6747,15.6650
Z" /> 
<path style="fill:#B4A09A; fill-opacity:0.9000; stroke:none;fill-rule:evenodd;"
d="M 21.1747,16.9350
21.1747,16.2850
22.9747,16.2850
22.9747,16.9350
Z" /> 
<path style="fill:#B4A09A; fill-opacity:0.9000; stroke:none;fill-rule:evenodd;"
d="M 23.8747,18.2050
23.8747,17.5550
25.6747,17.5550
25.6747,18.2050
Z" /> 
<path style="fill:#B4A09A; fill-opacity:0.9000; stroke:none;fill-rule:evenodd;"
d="M 21.1747,19.4750
21.1747,18.8250
22.9747,18.8250
22.9747,19.4750
Z" /> 
<path style="fill:#B4A09A; fill-opacity:0.9000; stroke:none;fill-rule:evenodd;"
d="M 23.8747,20.7450
23.8747,20.0950
25.6747,20.0950
25.6747,20.7450
Z" /> 
<path style="fill:#B4A09A; fill-opacity:0.9000; stroke:none;fill-rule:evenodd;"
d="M 21.1747,22.0150
21.1747,21.3650
22.9747,21.3650
22.9747,22.0150
Z" /> 
<path style="fill:#B4A09A; fill-opacity:0.9000; stroke:none;fill-rule:evenodd;"
d="M 23.8747,23.2850
23.8747,22.6350
25.6747,22.6350
25.6747,23.2850
Z" /> 
<path style="fill:#B4A09A; fill-opacity:0.9000; stroke:none;fill-rule:evenodd;"
d="M 21.1747,24.5550
21.1747,23.9050
22.9747,23.9050
22.9747,24.5550
Z" /> 
<path style="fill:#B4A09A; fill-opacity:0.9000; stroke:none;fill-rule:evenodd;"
d="M 23.8747,25.8250
23.8747,25.1750
25.6747,25.1750
25.6747,25.8250
Z" /> 
<path style="fill:#B4A09A; fill-opacity:0.9000; stroke:none;fill-rule:evenodd;"
d="M 21.1747,27.0950
21.1747,26.4450
22.9747,26.4450
22.9747,27.0950
Z" /> 
<path style="fill:#B4A09A; fill-opacity:0.9000; stroke:none;fill-rule:evenodd;"
d="M 23.8747,28.3650
23.8747,27.7150
25.6747,27.7150
25.6747,28.3650
Z" /> 
<path style="fill:#B4A09A; fill-opacity:0.9000; stroke:none;fill-rule:evenodd;"
d="M 21.1747,29.6350
21.1747,28.9850
22.9747,28.9850
22.9747,29.6350
Z" /> 
<path style="fill:#B4A09A; fill-opacity:0.9000; stroke:none;fill-rule:evenodd;"
d="M 23.8747,30.9050
23.8747,30.2550
25.6747,30.2550
25.6747,30.9050
Z" /> 
<path style="fill:#B4A09A; fill-opacity:0.9000; stroke:none;fill-rule:evenodd;"
d="M 21.1747,32.1750
21.1747,31.5250
22.9747,31.5250
22.9747,32.1750
Z" /> 
<path style="fill:#B4A09A; fill-opacity:0.9000; stroke:none;fill-rule:evenodd;"
d="M 23.8747,33.4450
23.8747,32.7950
25.6747,32.7950
25.6747,33.4450
Z" /> 
<path style="fill:#B4A09A; fill-opacity:0.9000; stroke:none;fill-rule:evenodd;"
d="M 21.1747,34.7150
21.1747,34.0650
22.9747,34.0650
22.9747,34.7150
Z" /> 
<path style="fill:#B4A09A; fill-opacity:0.9000; stroke:none;fill-rule:evenodd;"
d="M 23.8747,35.9850
23.8747,35.3350
25.6747,35.3350
25.6747,35.9850
Z" /> 
<path style="fill:#B4A09A; fill-opacity:0.9000; stroke:none;fill-rule:evenodd;"
d="M 21.1747,37.2550
21.1747,36.6050
22.9747,36.6050
22.9747,37.2550
Z" /> 
<path style="fill:#B4A09A; fill-opacity:0.9000; stroke:none;fill-rule:evenodd;"
d="M 23.8747,38.5250
23.8747,37.8750
25.6747,37.8750
25.6747,38.5250
Z" /> 
<path style="fill:#B4A09A; fill-opacity:0.9000; stroke:none;fill-rule:evenodd;"
d="M 21.1747,39.7950
21.1747,39.1450
22.9747,39.1450
22.9747,39.7950
Z" /> 
<path style="fill:#B4A09A; fill-opacity:0.9000; stroke:none;fill-rule:evenodd;"
d="M 23.8747,41.0650
23.8747,40.4150
25.6747,40.4150
25.6747,41.0650
Z" /> 
<path style="fill:#B4A09A; fill-opacity:0.9000; stroke:none;fill-rule:evenodd;"
d="M 21.1747,42.3350
21.1747,41.6850
22.9747,41.6850
22.9747,42.3350
Z" /> 
<path style="fill:#B4A09A; fill-opacity:0.9000; stroke:none;fill-rule:evenodd;"
d="M 23.8747,43.6050
23.8747,42.9550
25.6747,42.9550
25.6747,43.6050
Z" /> 
</g>
<g style="fill:none; 
stroke:#F2EDA1; stroke-width:0.1588; stroke-opacity:1; 
stroke-linecap:round; stroke-linejoin:round;">
<text x="23.4247" y="22.9600"
textLength="5.6651" font-size="1.6933" lengthAdjust="spacingAndGlyphs"
text-anchor="middle" opacity="0">REF**</text>
<g class="stroked-text"><desc>REF**</desc>
<path d="M21.7314 22.9043
L21.3080 22.2995
" />
<path d="M21.0056 22.9043
L21.0056 21.6343
" />
<path d="M21.0056 21.6343
L21.4895 21.6343
" />
<path d="M21.4895 21.6343
L21.6104 21.6947
" />
<path d="M21.6104 21.6947
L21.6709 21.7552
" />
<path d="M21.6709 21.7552
L21.7314 21.8762
" />
<path d="M21.7314 21.8762
L21.7314 22.0576
" />
<path d="M21.7314 22.0576
L21.6709 22.1786
" />
<path d="M21.6709 22.1786
L21.6104 22.2390
" />
<path d="M21.6104 22.2390
L21.4895 22.2995
" />
<path d="M21.4895 22.2995
L21.0056 22.2995
" />
<path d="M22.2756 22.2390
L22.6990 22.2390
" />
<path d="M22.8804 22.9043
L22.2756 22.9043
" />
<path d="M22.2756 22.9043
L22.2756 21.6343
" />
<path d="M22.2756 21.6343
L22.8804 21.6343
" />
<path d="M23.8480 22.2390
L23.4247 22.2390
" />
<path d="M23.4247 22.9043
L23.4247 21.6343
" />
<path d="M23.4247 21.6343
L24.0295 21.6343
" />
<path d="M24.6947 21.6343
L24.6947 21.9367
" />
<path d="M24.3923 21.8157
L24.6947 21.9367
" />
<path d="M24.6947 21.9367
L24.9971 21.8157
" />
<path d="M24.5133 22.1786
L24.6947 21.9367
" />
<path d="M24.6947 21.9367
L24.8761 22.1786
" />
<path d="M25.6623 21.6343
L25.6623 21.9367
" />
<path d="M25.3599 21.8157
L25.6623 21.9367
" />
<path d="M25.6623 21.9367
L25.9647 21.8157
" />
<path d="M25.4809 22.1786
L25.6623 21.9367
" />
<path d="M25.6623 21.9367
L25.8437 22.1786
" />
</g></g>
<g style="fill:none; 
stroke:#F2EDA1; stroke-width:0.1200; stroke-opacity:1; 
stroke-linecap:round; stroke-linejoin:round;">
<path d="M21.2347 0.7850
L22.4647 0.7850
" />
<path d="M22.4647 0.5000
L22.4647 0.7850
" />
<path d="M22.4647 0.5000
L24.3847 0.5000
" />
<path d="M22.4647 1.9550
L22.4647 3.3250
" />
<path d="M22.4647 4.4950
L22.4647 5.8650
" />
<path d="M22.4647 7.0350
L22.4647 8.4050
" />
<path d="M22.4647 9.5750
L22.4647 10.9450
" />
<path d="M22.4647 12.1150
L22.4647 13.4850
" />
<path d="M22.4647 14.6550
L22.4647 16.0250
" />
<path d="M22.4647 17.1950
L22.4647 18.5650
" />
<path d="M22.4647 19.7350
L22.4647 21.1050
" />
<path d="M22.4647 22.2750
L22.4647 23.6450
" />
<path d="M22.4647 24.8150
L22.4647 26.1850
" />
<path d="M22.4647 27.3550
L22.4647 28.7250
" />
<path d="M22.4647 29.8950
L22.4647 31.2650
" />
<path d="M22.4647 32.4350
L22.4647 33.8050
" />
<path d="M22.4647 34.9750
L22.4647 36.3450
" />
<path d="M22.4647 37.5150
L22.4647 38.8850
" />
<path d="M22.4647 40.0550
L22.4647 41.4250
" />
<path d="M22.4647 42.5950
L22.4647 44.1500
" />
<path d="M22.4647 44.1500
L24.3847 44.1500
" />
<path d="M24.3847 0.5000
L24.3847 2.0550
" />
<path d="M24.3847 3.2250
L24.3847 4.5950
" />
<path d="M24.3847 5.7650
L24.3847 7.1350
" />
<path d="M24.3847 8.3050
L24.3847 9.6750
" />
<path d="M24.3847 10.8450
L24.3847 12.2150
" />
<path d="M24.3847 13.3850
L24.3847 14.7550
" />
<path d="M24.3847 15.9250
L24.3847 17.2950
" />
<path d="M24.3847 18.4650
L24.3847 19.8350
" />
<path d="M24.3847 21.0050
L24.3847 22.3750
" />
<path d="M24.3847 23.5450
L24.3847 24.9150
" />
<path d="M24.3847 26.0850
L24.3847 27.4550
" />
<path d="M24.3847 28.6250
L24.3847 29.9950
" />
<path d="M24.3847 31.1650
L24.3847 32.5350
" />
<path d="M24.3847 33.7050
L24.3847 35.0750
" />
<path d="M24.3847 36.2450
L24.3847 37.6150
" />
<path d="M24.3847 38.7850
L24.3847 40.1550
" />
<path d="M24.3847 41.3250
L24.3847 42.6950
" />
<path d="M24.3847 43.8650
L24.3847 44.1500
" />
</g>
<g style="fill:none; 
stroke:#FF26E2; stroke-width:0.0500; stroke-opacity:1; 
stroke-linecap:round; stroke-linejoin:round;">
<path d="M20.6747 0.0250
L26.1747 0.0250
" />
<path d="M20.6747 44.5750
L20.6747 0.0250
" />
<path d="M26.1747 0.0250
L26.1747 44.5750
" />
<path d="M26.1747 44.5750
L20.6747 44.5750
" />
</g>
<g style="fill:none; 
stroke:#AFAFAF; stroke-width:0.1588; stroke-opacity:1; 
stroke-linecap:round; stroke-linejoin:round;">
<text x="23.4247" y="22.9600"
textLength="46.8494" font-size="1.6933" lengthAdjust="spacingAndGlyphs"
text-anchor="middle" opacity="0">PinSocket_1x34_P1.27mm_Vertical_SMD_Pin1Left</text>
<g class="stroked-text"><desc>PinSocket_1x34_P1.27mm_Vertical_SMD_Pin1Left</desc>
<path d="M0.4135 22.9043
L0.4135 21.6343
" />
<path d="M0.4135 21.6343
L0.8973 21.6343
" />
<path d="M0.8973 21.6343
L1.0183 21.6947
" />
<path d="M1.0183 21.6947
L1.0787 21.7552
" />
<path d="M1.0787 21.7552
L1.1392 21.8762
" />
<path d="M1.1392 21.8762
L1.1392 22.0576
" />
<path d="M1.1392 22.0576
L1.0787 22.1786
" />
<path d="M1.0787 22.1786
L1.0183 22.2390
" />
<path d="M1.0183 22.2390
L0.8973 22.2995
" />
<path d="M0.8973 22.2995
L0.4135 22.2995
" />
<path d="M1.6835 22.9043
L1.6835 22.0576
" />
<path d="M1.6835 21.6343
L1.6230 21.6947
" />
<path d="M1.6230 21.6947
L1.6835 21.7552
" />
<path d="M1.6835 21.7552
L1.7440 21.6947
" />
<path d="M1.7440 21.6947
L1.6835 21.6343
" />
<path d="M1.6835 21.6343
L1.6835 21.7552
" />
<path d="M2.2883 22.0576
L2.2883 22.9043
" />
<path d="M2.2883 22.1786
L2.3487 22.1181
" />
<path d="M2.3487 22.1181
L2.4697 22.0576
" />
<path d="M2.4697 22.0576
L2.6511 22.0576
" />
<path d="M2.6511 22.0576
L2.7721 22.1181
" />
<path d="M2.7721 22.1181
L2.8326 22.2390
" />
<path d="M2.8326 22.2390
L2.8326 22.9043
" />
<path d="M3.3768 22.8438
L3.5583 22.9043
" />
<path d="M3.5583 22.9043
L3.8606 22.9043
" />
<path d="M3.8606 22.9043
L3.9816 22.8438
" />
<path d="M3.9816 22.8438
L4.0421 22.7833
" />
<path d="M4.0421 22.7833
L4.1026 22.6624
" />
<path d="M4.1026 22.6624
L4.1026 22.5414
" />
<path d="M4.1026 22.5414
L4.0421 22.4205
" />
<path d="M4.0421 22.4205
L3.9816 22.3600
" />
<path d="M3.9816 22.3600
L3.8606 22.2995
" />
<path d="M3.8606 22.2995
L3.6187 22.2390
" />
<path d="M3.6187 22.2390
L3.4978 22.1786
" />
<path d="M3.4978 22.1786
L3.4373 22.1181
" />
<path d="M3.4373 22.1181
L3.3768 21.9971
" />
<path d="M3.3768 21.9971
L3.3768 21.8762
" />
<path d="M3.3768 21.8762
L3.4373 21.7552
" />
<path d="M3.4373 21.7552
L3.4978 21.6947
" />
<path d="M3.4978 21.6947
L3.6187 21.6343
" />
<path d="M3.6187 21.6343
L3.9211 21.6343
" />
<path d="M3.9211 21.6343
L4.1026 21.6947
" />
<path d="M4.8283 22.9043
L4.7073 22.8438
" />
<path d="M4.7073 22.8438
L4.6468 22.7833
" />
<path d="M4.6468 22.7833
L4.5864 22.6624
" />
<path d="M4.5864 22.6624
L4.5864 22.2995
" />
<path d="M4.5864 22.2995
L4.6468 22.1786
" />
<path d="M4.6468 22.1786
L4.7073 22.1181
" />
<path d="M4.7073 22.1181
L4.8283 22.0576
" />
<path d="M4.8283 22.0576
L5.0097 22.0576
" />
<path d="M5.0097 22.0576
L5.1307 22.1181
" />
<path d="M5.1307 22.1181
L5.1911 22.1786
" />
<path d="M5.1911 22.1786
L5.2516 22.2995
" />
<path d="M5.2516 22.2995
L5.2516 22.6624
" />
<path d="M5.2516 22.6624
L5.1911 22.7833
" />
<path d="M5.1911 22.7833
L5.1307 22.8438
" />
<path d="M5.1307 22.8438
L5.0097 22.9043
" />
<path d="M5.0097 22.9043
L4.8283 22.9043
" />
<path d="M6.3402 22.8438
L6.2192 22.9043
" />
<path d="M6.2192 22.9043
L5.9773 22.9043
" />
<path d="M5.9773 22.9043
L5.8564 22.8438
" />
<path d="M5.8564 22.8438
L5.7959 22.7833
" />
<path d="M5.7959 22.7833
L5.7354 22.6624
" />
<path d="M5.7354 22.6624
L5.7354 22.2995
" />
<path d="M5.7354 22.2995
L5.7959 22.1786
" />
<path d="M5.7959 22.1786
L5.8564 22.1181
" />
<path d="M5.8564 22.1181
L5.9773 22.0576
" />
<path d="M5.9773 22.0576
L6.2192 22.0576
" />
<path d="M6.2192 22.0576
L6.3402 22.1181
" />
<path d="M6.8845 22.9043
L6.8845 21.6343
" />
<path d="M7.0054 22.4205
L7.3683 22.9043
" />
<path d="M7.3683 22.0576
L6.8845 22.5414
" />
<path d="M8.3964 22.8438
L8.2754 22.9043
" />
<path d="M8.2754 22.9043
L8.0335 22.9043
" />
<path d="M8.0335 22.9043
L7.9126 22.8438
" />
<path d="M7.9126 22.8438
L7.8521 22.7228
" />
<path d="M7.8521 22.7228
L7.8521 22.2390
" />
<path d="M7.8521 22.2390
L7.9126 22.1181
" />
<path d="M7.9126 22.1181
L8.0335 22.0576
" />
<path d="M8.0335 22.0576
L8.2754 22.0576
" />
<path d="M8.2754 22.0576
L8.3964 22.1181
" />
<path d="M8.3964 22.1181
L8.4568 22.2390
" />
<path d="M8.4568 22.2390
L8.4568 22.3600
" />
<path d="M8.4568 22.3600
L7.8521 22.4809
" />
<path d="M8.8197 22.0576
L9.3035 22.0576
" />
<path d="M9.0011 21.6343
L9.0011 22.7228
" />
<path d="M9.0011 22.7228
L9.0616 22.8438
" />
<path d="M9.0616 22.8438
L9.1826 22.9043
" />
<path d="M9.1826 22.9043
L9.3035 22.9043
" />
<path d="M9.4245 23.0252
L10.3921 23.0252
" />
<path d="M11.3597 22.9043
L10.6340 22.9043
" />
<path d="M10.9968 22.9043
L10.9968 21.6343
" />
<path d="M10.9968 21.6343
L10.8759 21.8157
" />
<path d="M10.8759 21.8157
L10.7549 21.9367
" />
<path d="M10.7549 21.9367
L10.6340 21.9971
" />
<path d="M11.7830 22.9043
L12.4483 22.0576
" />
<path d="M11.7830 22.0576
L12.4483 22.9043
" />
<path d="M12.8111 21.6343
L13.5973 21.6343
" />
<path d="M13.5973 21.6343
L13.1740 22.1181
" />
<path d="M13.1740 22.1181
L13.3554 22.1181
" />
<path d="M13.3554 22.1181
L13.4764 22.1786
" />
<path d="M13.4764 22.1786
L13.5368 22.2390
" />
<path d="M13.5368 22.2390
L13.5973 22.3600
" />
<path d="M13.5973 22.3600
L13.5973 22.6624
" />
<path d="M13.5973 22.6624
L13.5368 22.7833
" />
<path d="M13.5368 22.7833
L13.4764 22.8438
" />
<path d="M13.4764 22.8438
L13.3554 22.9043
" />
<path d="M13.3554 22.9043
L12.9926 22.9043
" />
<path d="M12.9926 22.9043
L12.8716 22.8438
" />
<path d="M12.8716 22.8438
L12.8111 22.7833
" />
<path d="M14.6859 22.0576
L14.6859 22.9043
" />
<path d="M14.3835 21.5738
L14.0811 22.4809
" />
<path d="M14.0811 22.4809
L14.8673 22.4809
" />
<path d="M15.0487 23.0252
L16.0164 23.0252
" />
<path d="M16.3187 22.9043
L16.3187 21.6343
" />
<path d="M16.3187 21.6343
L16.8026 21.6343
" />
<path d="M16.8026 21.6343
L16.9235 21.6947
" />
<path d="M16.9235 21.6947
L16.9840 21.7552
" />
<path d="M16.9840 21.7552
L17.0445 21.8762
" />
<path d="M17.0445 21.8762
L17.0445 22.0576
" />
<path d="M17.0445 22.0576
L16.9840 22.1786
" />
<path d="M16.9840 22.1786
L16.9235 22.2390
" />
<path d="M16.9235 22.2390
L16.8026 22.2995
" />
<path d="M16.8026 22.2995
L16.3187 22.2995
" />
<path d="M18.2540 22.9043
L17.5283 22.9043
" />
<path d="M17.8911 22.9043
L17.8911 21.6343
" />
<path d="M17.8911 21.6343
L17.7702 21.8157
" />
<path d="M17.7702 21.8157
L17.6492 21.9367
" />
<path d="M17.6492 21.9367
L17.5283 21.9971
" />
<path d="M18.7983 22.7833
L18.8587 22.8438
" />
<path d="M18.8587 22.8438
L18.7983 22.9043
" />
<path d="M18.7983 22.9043
L18.7378 22.8438
" />
<path d="M18.7378 22.8438
L18.7983 22.7833
" />
<path d="M18.7983 22.7833
L18.7983 22.9043
" />
<path d="M19.3426 21.7552
L19.4030 21.6947
" />
<path d="M19.4030 21.6947
L19.5240 21.6343
" />
<path d="M19.5240 21.6343
L19.8264 21.6343
" />
<path d="M19.8264 21.6343
L19.9473 21.6947
" />
<path d="M19.9473 21.6947
L20.0078 21.7552
" />
<path d="M20.0078 21.7552
L20.0683 21.8762
" />
<path d="M20.0683 21.8762
L20.0683 21.9971
" />
<path d="M20.0683 21.9971
L20.0078 22.1786
" />
<path d="M20.0078 22.1786
L19.2821 22.9043
" />
<path d="M19.2821 22.9043
L20.0683 22.9043
" />
<path d="M20.4916 21.6343
L21.3383 21.6343
" />
<path d="M21.3383 21.6343
L20.7940 22.9043
" />
<path d="M21.8221 22.9043
L21.8221 22.0576
" />
<path d="M21.8221 22.1786
L21.8826 22.1181
" />
<path d="M21.8826 22.1181
L22.0035 22.0576
" />
<path d="M22.0035 22.0576
L22.1849 22.0576
" />
<path d="M22.1849 22.0576
L22.3059 22.1181
" />
<path d="M22.3059 22.1181
L22.3664 22.2390
" />
<path d="M22.3664 22.2390
L22.3664 22.9043
" />
<path d="M22.3664 22.2390
L22.4268 22.1181
" />
<path d="M22.4268 22.1181
L22.5478 22.0576
" />
<path d="M22.5478 22.0576
L22.7292 22.0576
" />
<path d="M22.7292 22.0576
L22.8502 22.1181
" />
<path d="M22.8502 22.1181
L22.9107 22.2390
" />
<path d="M22.9107 22.2390
L22.9107 22.9043
" />
<path d="M23.5154 22.9043
L23.5154 22.0576
" />
<path d="M23.5154 22.1786
L23.5759 22.1181
" />
<path d="M23.5759 22.1181
L23.6968 22.0576
" />
<path d="M23.6968 22.0576
L23.8783 22.0576
" />
<path d="M23.8783 22.0576
L23.9992 22.1181
" />
<path d="M23.9992 22.1181
L24.0597 22.2390
" />
<path d="M24.0597 22.2390
L24.0597 22.9043
" />
<path d="M24.0597 22.2390
L24.1202 22.1181
" />
<path d="M24.1202 22.1181
L24.2411 22.0576
" />
<path d="M24.2411 22.0576
L24.4226 22.0576
" />
<path d="M24.4226 22.0576
L24.5435 22.1181
" />
<path d="M24.5435 22.1181
L24.6040 22.2390
" />
<path d="M24.6040 22.2390
L24.6040 22.9043
" />
<path d="M24.9064 23.0252
L25.8740 23.0252
" />
<path d="M25.9949 21.6343
L26.4183 22.9043
" />
<path d="M26.4183 22.9043
L26.8416 21.6343
" />
<path d="M27.7487 22.8438
L27.6278 22.9043
" />
<path d="M27.6278 22.9043
L27.3859 22.9043
" />
<path d="M27.3859 22.9043
L27.2649 22.8438
" />
<path d="M27.2649 22.8438
L27.2045 22.7228
" />
<path d="M27.2045 22.7228
L27.2045 22.2390
" />
<path d="M27.2045 22.2390
L27.2649 22.1181
" />
<path d="M27.2649 22.1181
L27.3859 22.0576
" />
<path d="M27.3859 22.0576
L27.6278 22.0576
" />
<path d="M27.6278 22.0576
L27.7487 22.1181
" />
<path d="M27.7487 22.1181
L27.8092 22.2390
" />
<path d="M27.8092 22.2390
L27.8092 22.3600
" />
<path d="M27.8092 22.3600
L27.2045 22.4809
" />
<path d="M28.3535 22.9043
L28.3535 22.0576
" />
<path d="M28.3535 22.2995
L28.4140 22.1786
" />
<path d="M28.4140 22.1786
L28.4745 22.1181
" />
<path d="M28.4745 22.1181
L28.5954 22.0576
" />
<path d="M28.5954 22.0576
L28.7164 22.0576
" />
<path d="M28.9583 22.0576
L29.4421 22.0576
" />
<path d="M29.1397 21.6343
L29.1397 22.7228
" />
<path d="M29.1397 22.7228
L29.2002 22.8438
" />
<path d="M29.2002 22.8438
L29.3211 22.9043
" />
<path d="M29.3211 22.9043
L29.4421 22.9043
" />
<path d="M29.8654 22.9043
L29.8654 22.0576
" />
<path d="M29.8654 21.6343
L29.8049 21.6947
" />
<path d="M29.8049 21.6947
L29.8654 21.7552
" />
<path d="M29.8654 21.7552
L29.9259 21.6947
" />
<path d="M29.9259 21.6947
L29.8654 21.6343
" />
<path d="M29.8654 21.6343
L29.8654 21.7552
" />
<path d="M31.0145 22.8438
L30.8935 22.9043
" />
<path d="M30.8935 22.9043
L30.6516 22.9043
" />
<path d="M30.6516 22.9043
L30.5306 22.8438
" />
<path d="M30.5306 22.8438
L30.4702 22.7833
" />
<path d="M30.4702 22.7833
L30.4097 22.6624
" />
<path d="M30.4097 22.6624
L30.4097 22.2995
" />
<path d="M30.4097 22.2995
L30.4702 22.1786
" />
<path d="M30.4702 22.1786
L30.5306 22.1181
" />
<path d="M30.5306 22.1181
L30.6516 22.0576
" />
<path d="M30.6516 22.0576
L30.8935 22.0576
" />
<path d="M30.8935 22.0576
L31.0145 22.1181
" />
<path d="M32.1030 22.9043
L32.1030 22.2390
" />
<path d="M32.1030 22.2390
L32.0426 22.1181
" />
<path d="M32.0426 22.1181
L31.9216 22.0576
" />
<path d="M31.9216 22.0576
L31.6797 22.0576
" />
<path d="M31.6797 22.0576
L31.5587 22.1181
" />
<path d="M32.1030 22.8438
L31.9821 22.9043
" />
<path d="M31.9821 22.9043
L31.6797 22.9043
" />
<path d="M31.6797 22.9043
L31.5587 22.8438
" />
<path d="M31.5587 22.8438
L31.4983 22.7228
" />
<path d="M31.4983 22.7228
L31.4983 22.6019
" />
<path d="M31.4983 22.6019
L31.5587 22.4809
" />
<path d="M31.5587 22.4809
L31.6797 22.4205
" />
<path d="M31.6797 22.4205
L31.9821 22.4205
" />
<path d="M31.9821 22.4205
L32.1030 22.3600
" />
<path d="M32.8892 22.9043
L32.7683 22.8438
" />
<path d="M32.7683 22.8438
L32.7078 22.7228
" />
<path d="M32.7078 22.7228
L32.7078 21.6343
" />
<path d="M33.0706 23.0252
L34.0383 23.0252
" />
<path d="M34.2802 22.8438
L34.4616 22.9043
" />
<path d="M34.4616 22.9043
L34.7640 22.9043
" />
<path d="M34.7640 22.9043
L34.8849 22.8438
" />
<path d="M34.8849 22.8438
L34.9454 22.7833
" />
<path d="M34.9454 22.7833
L35.0059 22.6624
" />
<path d="M35.0059 22.6624
L35.0059 22.5414
" />
<path d="M35.0059 22.5414
L34.9454 22.4205
" />
<path d="M34.9454 22.4205
L34.8849 22.3600
" />
<path d="M34.8849 22.3600
L34.7640 22.2995
" />
<path d="M34.7640 22.2995
L34.5221 22.2390
" />
<path d="M34.5221 22.2390
L34.4011 22.1786
" />
<path d="M34.4011 22.1786
L34.3406 22.1181
" />
<path d="M34.3406 22.1181
L34.2802 21.9971
" />
<path d="M34.2802 21.9971
L34.2802 21.8762
" />
<path d="M34.2802 21.8762
L34.3406 21.7552
" />
<path d="M34.3406 21.7552
L34.4011 21.6947
" />
<path d="M34.4011 21.6947
L34.5221 21.6343
" />
<path d="M34.5221 21.6343
L34.8245 21.6343
" />
<path d="M34.8245 21.6343
L35.0059 21.6947
" />
<path d="M35.5502 22.9043
L35.5502 21.6343
" />
<path d="M35.5502 21.6343
L35.9735 22.5414
" />
<path d="M35.9735 22.5414
L36.3968 21.6343
" />
<path d="M36.3968 21.6343
L36.3968 22.9043
" />
<path d="M37.0016 22.9043
L37.0016 21.6343
" />
<path d="M37.0016 21.6343
L37.3040 21.6343
" />
<path d="M37.3040 21.6343
L37.4854 21.6947
" />
<path d="M37.4854 21.6947
L37.6064 21.8157
" />
<path d="M37.6064 21.8157
L37.6668 21.9367
" />
<path d="M37.6668 21.9367
L37.7273 22.1786
" />
<path d="M37.7273 22.1786
L37.7273 22.3600
" />
<path d="M37.7273 22.3600
L37.6668 22.6019
" />
<path d="M37.6668 22.6019
L37.6064 22.7228
" />
<path d="M37.6064 22.7228
L37.4854 22.8438
" />
<path d="M37.4854 22.8438
L37.3040 22.9043
" />
<path d="M37.3040 22.9043
L37.0016 22.9043
" />
<path d="M37.9692 23.0252
L38.9368 23.0252
" />
<path d="M39.2392 22.9043
L39.2392 21.6343
" />
<path d="M39.2392 21.6343
L39.7230 21.6343
" />
<path d="M39.7230 21.6343
L39.8440 21.6947
" />
<path d="M39.8440 21.6947
L39.9045 21.7552
" />
<path d="M39.9045 21.7552
L39.9649 21.8762
" />
<path d="M39.9649 21.8762
L39.9649 22.0576
" />
<path d="M39.9649 22.0576
L39.9045 22.1786
" />
<path d="M39.9045 22.1786
L39.8440 22.2390
" />
<path d="M39.8440 22.2390
L39.7230 22.2995
" />
<path d="M39.7230 22.2995
L39.2392 22.2995
" />
<path d="M40.5092 22.9043
L40.5092 22.0576
" />
<path d="M40.5092 21.6343
L40.4487 21.6947
" />
<path d="M40.4487 21.6947
L40.5092 21.7552
" />
<path d="M40.5092 21.7552
L40.5697 21.6947
" />
<path d="M40.5697 21.6947
L40.5092 21.6343
" />
<path d="M40.5092 21.6343
L40.5092 21.7552
" />
<path d="M41.1140 22.0576
L41.1140 22.9043
" />
<path d="M41.1140 22.1786
L41.1745 22.1181
" />
<path d="M41.1745 22.1181
L41.2954 22.0576
" />
<path d="M41.2954 22.0576
L41.4768 22.0576
" />
<path d="M41.4768 22.0576
L41.5978 22.1181
" />
<path d="M41.5978 22.1181
L41.6583 22.2390
" />
<path d="M41.6583 22.2390
L41.6583 22.9043
" />
<path d="M42.9283 22.9043
L42.2026 22.9043
" />
<path d="M42.5654 22.9043
L42.5654 21.6343
" />
<path d="M42.5654 21.6343
L42.4445 21.8157
" />
<path d="M42.4445 21.8157
L42.3235 21.9367
" />
<path d="M42.3235 21.9367
L42.2026 21.9971
" />
<path d="M44.0773 22.9043
L43.4726 22.9043
" />
<path d="M43.4726 22.9043
L43.4726 21.6343
" />
<path d="M44.9845 22.8438
L44.8635 22.9043
" />
<path d="M44.8635 22.9043
L44.6216 22.9043
" />
<path d="M44.6216 22.9043
L44.5006 22.8438
" />
<path d="M44.5006 22.8438
L44.4402 22.7228
" />
<path d="M44.4402 22.7228
L44.4402 22.2390
" />
<path d="M44.4402 22.2390
L44.5006 22.1181
" />
<path d="M44.5006 22.1181
L44.6216 22.0576
" />
<path d="M44.6216 22.0576
L44.8635 22.0576
" />
<path d="M44.8635 22.0576
L44.9845 22.1181
" />
<path d="M44.9845 22.1181
L45.0449 22.2390
" />
<path d="M45.0449 22.2390
L45.0449 22.3600
" />
<path d="M45.0449 22.3600
L44.4402 22.4809
" />
<path d="M45.4078 22.0576
L45.8916 22.0576
" />
<path d="M45.5892 22.9043
L45.5892 21.8157
" />
<path d="M45.5892 21.8157
L45.6497 21.6947
" />
<path d="M45.6497 21.6947
L45.7706 21.6343
" />
<path d="M45.7706 21.6343
L45.8916 21.6343
" />
<path d="M46.1335 22.0576
L46.6173 22.0576
" />
<path d="M46.3149 21.6343
L46.3149 22.7228
" />
<path d="M46.3149 22.7228
L46.3754 22.8438
" />
<path d="M46.3754 22.8438
L46.4964 22.9043
" />
<path d="M46.4964 22.9043
L46.6173 22.9043
" />
</g></g>
<g style="fill:none; 
stroke:#AFAFAF; stroke-width:0.1500; stroke-opacity:1; 
stroke-linecap:round; stroke-linejoin:round;">
<g transform="rotate(-90.000000 23.4247 22.3250)">
<text x="23.4247" y="22.8250"
textLength="4.5357" font-size="1.3333" lengthAdjust="spacingAndGlyphs"
text-anchor="middle" opacity="0">REF**</text>
</g>
<g class="stroked-text"><desc>REF**</desc>
<path d="M23.8795 23.6583
L23.4033 23.9917
" />
<path d="M23.8795 24.2298
L22.8795 24.2298
" />
<path d="M22.8795 24.2298
L22.8795 23.8488
" />
<path d="M22.8795 23.8488
L22.9271 23.7536
" />
<path d="M22.9271 23.7536
L22.9748 23.7060
" />
<path d="M22.9748 23.7060
L23.0700 23.6583
" />
<path d="M23.0700 23.6583
L23.2128 23.6583
" />
<path d="M23.2128 23.6583
L23.3081 23.7060
" />
<path d="M23.3081 23.7060
L23.3557 23.7536
" />
<path d="M23.3557 23.7536
L23.4033 23.8488
" />
<path d="M23.4033 23.8488
L23.4033 24.2298
" />
<path d="M23.3557 23.2298
L23.3557 22.8964
" />
<path d="M23.8795 22.7536
L23.8795 23.2298
" />
<path d="M23.8795 23.2298
L22.8795 23.2298
" />
<path d="M22.8795 23.2298
L22.8795 22.7536
" />
<path d="M23.3557 21.9917
L23.3557 22.3250
" />
<path d="M23.8795 22.3250
L22.8795 22.3250
" />
<path d="M22.8795 22.3250
L22.8795 21.8488
" />
<path d="M22.8795 21.3250
L23.1176 21.3250
" />
<path d="M23.0224 21.5631
L23.1176 21.3250
" />
<path d="M23.1176 21.3250
L23.0224 21.0869
" />
<path d="M23.3081 21.4679
L23.1176 21.3250
" />
<path d="M23.1176 21.3250
L23.3081 21.1821
" />
<path d="M22.8795 20.5631
L23.1176 20.5631
" />
<path d="M23.0224 20.8012
L23.1176 20.5631
" />
<path d="M23.1176 20.5631
L23.0224 20.3250
" />
<path d="M23.3081 20.7060
L23.1176 20.5631
" />
<path d="M23.1176 20.5631
L23.3081 20.4202
" />
</g></g>
<g style="fill:none; 
stroke:#AFAFAF; stroke-width:0.1000; stroke-opacity:1; 
stroke-linecap:round; stroke-linejoin:round;">
<path d="M21.6747 1.1600
L22.5247 1.1600
" />
<path d="M21.6747 1.5800
L21.6747 1.1600
" />
<path d="M21.6747 3.7000
L22.5247 3.7000
" />
<path d="M21.6747 4.1200
L21.6747 3.7000
" />
<path d="M21.6747 6.2400
L22.5247 6.2400
" />
<path d="M21.6747 6.6600
L21.6747 6.2400
" />
<path d="M21.6747 8.7800
L22.5247 8.7800
" />
<path d="M21.6747 9.2000
L21.6747 8.7800
" />
<path d="M21.6747 11.3200
L22.5247 11.3200
" />
<path d="M21.6747 11.7400
L21.6747 11.3200
" />
<path d="M21.6747 13.8600
L22.5247 13.8600
" />
<path d="M21.6747 14.2800
L21.6747 13.8600
" />
<path d="M21.6747 16.4000
L22.5247 16.4000
" />
<path d="M21.6747 16.8200
L21.6747 16.4000
" />
<path d="M21.6747 18.9400
L22.5247 18.9400
" />
<path d="M21.6747 19.3600
L21.6747 18.9400
" />
<path d="M21.6747 21.4800
L22.5247 21.4800
" />
<path d="M21.6747 21.9000
L21.6747 21.4800
" />
<path d="M21.6747 24.0200
L22.5247 24.0200
" />
<path d="M21.6747 24.4400
L21.6747 24.0200
" />
<path d="M21.6747 26.5600
L22.5247 26.5600
" />
<path d="M21.6747 26.9800
L21.6747 26.5600
" />
<path d="M21.6747 29.1000
L22.5247 29.1000
" />
<path d="M21.6747 29.5200
L21.6747 29.1000
" />
<path d="M21.6747 31.6400
L22.5247 31.6400
" />
<path d="M21.6747 32.0600
L21.6747 31.6400
" />
<path d="M21.6747 34.1800
L22.5247 34.1800
" />
<path d="M21.6747 34.6000
L21.6747 34.1800
" />
<path d="M21.6747 36.7200
L22.5247 36.7200
" />
<path d="M21.6747 37.1400
L21.6747 36.7200
" />
<path d="M21.6747 39.2600
L22.5247 39.2600
" />
<path d="M21.6747 39.6800
L21.6747 39.2600
" />
<path d="M21.6747 41.8000
L22.5247 41.8000
" />
<path d="M21.6747 42.2200
L21.6747 41.8000
" />
<path d="M22.5247 1.0100
L22.9747 0.5600
" />
<path d="M22.5247 1.5800
L21.6747 1.5800
" />
<path d="M22.5247 4.1200
L21.6747 4.1200
" />
<path d="M22.5247 6.6600
L21.6747 6.6600
" />
<path d="M22.5247 9.2000
L21.6747 9.2000
" />
<path d="M22.5247 11.7400
L21.6747 11.7400
" />
<path d="M22.5247 14.2800
L21.6747 14.2800
" />
<path d="M22.5247 16.8200
L21.6747 16.8200
" />
<path d="M22.5247 19.3600
L21.6747 19.3600
" />
<path d="M22.5247 21.9000
L21.6747 21.9000
" />
<path d="M22.5247 24.4400
L21.6747 24.4400
" />
<path d="M22.5247 26.9800
L21.6747 26.9800
" />
<path d="M22.5247 29.5200
L21.6747 29.5200
" />
<path d="M22.5247 32.0600
L21.6747 32.0600
" />
<path d="M22.5247 34.6000
L21.6747 34.6000
" />
<path d="M22.5247 37.1400
L21.6747 37.1400
" />
<path d="M22.5247 39.6800
L21.6747 39.6800
" />
<path d="M22.5247 42.2200
L21.6747 42.2200
" />
<path d="M22.5247 44.0900
L22.5247 1.0100
" />
<path d="M22.9747 0.5600
L24.3247 0.5600
" />
<path d="M24.3247 0.5600
L24.3247 44.0900
" />
<path d="M24.3247 2.4300
L25.1747 2.4300
" />
<path d="M24.3247 4.9700
L25.1747 4.9700
" />
<path d="M24.3247 7.5100
L25.1747 7.5100
" />
<path d="M24.3247 10.0500
L25.1747 10.0500
" />
<path d="M24.3247 12.5900
L25.1747 12.5900
" />
<path d="M24.3247 15.1300
L25.1747 15.1300
" />
<path d="M24.3247 17.6700
L25.1747 17.6700
" />
<path d="M24.3247 20.2100
L25.1747 20.2100
" />
<path d="M24.3247 22.7500
L25.1747 22.7500
" />
<path d="M24.3247 25.2900
L25.1747 25.2900
" />
<path d="M24.3247 27.8300
L25.1747 27.8300
" />
<path d="M24.3247 30.3700
L25.1747 30.3700
" />
<path d="M24.3247 32.9100
L25.1747 32.9100
" />
<path d="M24.3247 35.4500
L25.1747 35.4500
" />
<path d="M24.3247 37.9900
L25.1747 37.9900
" />
<path d="M24.3247 40.5300
L25.1747 40.5300
" />
<path d="M24.3247 43.0700
L25.1747 43.0700
" />
<path d="M24.3247 44.0900
L22.5247 44.0900
" />
<path d="M25.1747 2.4300
L25.1747 2.8500
" />
<path d="M25.1747 2.8500
L24.3247 2.8500
" />
<path d="M25.1747 4.9700
L25.1747 5.3900
" />
<path d="M25.1747 5.3900
L24.3247 5.3900
" />
<path d="M25.1747 7.5100
L25.1747 7.9300
" />
<path d="M25.1747 7.9300
L24.3247 7.9300
" />
<path d="M25.1747 10.0500
L25.1747 10.4700
" />
<path d="M25.1747 10.4700
L24.3247 10.4700
" />
<path d="M25.1747 12.5900
L25.1747 13.0100
" />
<path d="M25.1747 13.0100
L24.3247 13.0100
" />
<path d="M25.1747 15.1300
L25.1747 15.5500
" />
<path d="M25.1747 15.5500
L24.3247 15.5500
" />
<path d="M25.1747 17.6700
L25.1747 18.0900
" />
<path d="M25.1747 18.0900
L24.3247 18.0900
" />
<path d="M25.1747 20.2100
L25.1747 20.6300
" />
<path d="M25.1747 20.6300
L24.3247 20.6300
" />
<path d="M25.1747 22.7500
L25.1747 23.1700
" />
<path d="M25.1747 23.1700
L24.3247 23.1700
" />
<path d="M25.1747 25.2900
L25.1747 25.7100
" />
<path d="M25.1747 25.7100
L24.3247 25.7100
" />
<path d="M25.1747 27.8300
L25.1747 28.2500
" />
<path d="M25.1747 28.2500
L24.3247 28.2500
" />
<path d="M25.1747 30.3700
L25.1747 30.7900
" />
<path d="M25.1747 30.7900
L24.3247 30.7900
" />
<path d="M25.1747 32.9100
L25.1747 33.3300
" />
<path d="M25.1747 33.3300
L24.3247 33.3300
" />
<path d="M25.1747 35.4500
L25.1747 35.8700
" />
<path d="M25.1747 35.8700
L24.3247 35.8700
" />
<path d="M25.1747 37.9900
L25.1747 38.4100
" />
<path d="M25.1747 38.4100
L24.3247 38.4100
" />
<path d="M25.1747 40.5300
L25.1747 40.9500
" />
<path d="M25.1747 40.9500
L24.3247 40.9500
" />
<path d="M25.1747 43.0700
L25.1747 43.4900
" />
<path d="M25.1747 43.4900
L24.3247 43.4900
" />
</g> 
</svg>
