<?xml version="1.0" standalone="no"?>
 <!DOCTYPE svg PUBLIC "-//W3C//DTD SVG 1.1//EN" 
 "http://www.w3.org/Graphics/SVG/1.1/DTD/svg11.dtd"> 
<svg
  xmlns:svg="http://www.w3.org/2000/svg"
  xmlns="http://www.w3.org/2000/svg"
  xmlns:xlink="http://www.w3.org/1999/xlink"
  version="1.1"
  width="48.1584mm" height="4.2926mm" viewBox="0.0000 0.0000 48.1584 4.2926">
<title>SVG Image created as working-brd.svg date 2024/04/21 07:47:23 </title>
  <desc>Image generated by PCBNEW </desc>
<g style="fill:#000000; fill-opacity:1.0000;stroke:#000000; stroke-opacity:1.0000;
stroke-linecap:round; stroke-linejoin:round;"
 transform="translate(0 0) scale(1 1)">
<path style="fill:#C83434; fill-opacity:1.0000; stroke:none;fill-rule:evenodd;"
d="M 22.9296,1.1446
23.0503,1.2654
23.0649,1.3007
23.0649,1.3300
23.0503,1.3654
23.0149,1.3800
22.2649,1.3800
22.2296,1.3654
22.2149,1.3300
22.2149,1.1800
22.2296,1.1446
22.2649,1.1300
22.8942,1.1300
Z" /> 
<path style="fill:#C83434; fill-opacity:1.0000; stroke:none;fill-rule:evenodd;"
d="M 22.2149,1.6425
22.2197,1.6186
22.2332,1.5983
22.2535,1.5848
22.2774,1.5800
23.0024,1.5800
23.0264,1.5848
23.0466,1.5983
23.0602,1.6186
23.0649,1.6425
23.0649,1.7675
23.0602,1.7914
23.0466,1.8117
23.0264,1.8252
23.0024,1.8300
22.2774,1.8300
22.2535,1.8252
22.2332,1.8117
22.2197,1.7914
22.2149,1.7675
Z" /> 
<path style="fill:#C83434; fill-opacity:1.0000; stroke:none;fill-rule:evenodd;"
d="M 22.2149,2.0925
22.2197,2.0686
22.2332,2.0483
22.2535,2.0348
22.2774,2.0300
23.0024,2.0300
23.0264,2.0348
23.0466,2.0483
23.0602,2.0686
23.0649,2.0925
23.0649,2.2175
23.0602,2.2414
23.0466,2.2617
23.0264,2.2752
23.0024,2.2800
22.2774,2.2800
22.2535,2.2752
22.2332,2.2617
22.2197,2.2414
22.2149,2.2175
Z" /> 
<path style="fill:#C83434; fill-opacity:1.0000; stroke:none;fill-rule:evenodd;"
d="M 22.2149,2.5425
22.2197,2.5186
22.2332,2.4983
22.2535,2.4848
22.2774,2.4800
23.0024,2.4800
23.0264,2.4848
23.0466,2.4983
23.0602,2.5186
23.0649,2.5425
23.0649,2.6675
23.0602,2.6914
23.0466,2.7117
23.0264,2.7252
23.0024,2.7300
22.2774,2.7300
22.2535,2.7252
22.2332,2.7117
22.2197,2.6914
22.2149,2.6675
Z" /> 
<path style="fill:#C83434; fill-opacity:1.0000; stroke:none;fill-rule:evenodd;"
d="M 23.0503,2.9446
23.0649,2.9800
23.0649,3.0093
23.0503,3.0446
22.9296,3.1654
22.8942,3.1800
22.2649,3.1800
22.2296,3.1654
22.2149,3.1300
22.2149,2.9800
22.2296,2.9446
22.2649,2.9300
23.0149,2.9300
Z" /> 
<path style="fill:#C83434; fill-opacity:1.0000; stroke:none;fill-rule:evenodd;"
d="M 23.3003,3.1946
23.3149,3.2300
23.3149,3.9800
23.3003,4.0154
23.2649,4.0300
23.1149,4.0300
23.0796,4.0154
23.0649,3.9800
23.0649,3.3507
23.0796,3.3154
23.2003,3.1946
23.2356,3.1800
23.2649,3.1800
Z" /> 
<path style="fill:#C83434; fill-opacity:1.0000; stroke:none;fill-rule:evenodd;"
d="M 23.5149,3.2425
23.5197,3.2186
23.5332,3.1983
23.5535,3.1848
23.5774,3.1800
23.7024,3.1800
23.7264,3.1848
23.7466,3.1983
23.7602,3.2186
23.7649,3.2425
23.7649,3.9675
23.7602,3.9914
23.7466,4.0117
23.7264,4.0252
23.7024,4.0300
23.5774,4.0300
23.5535,4.0252
23.5332,4.0117
23.5197,3.9914
23.5149,3.9675
Z" /> 
<path style="fill:#C83434; fill-opacity:1.0000; stroke:none;fill-rule:evenodd;"
d="M 23.9649,3.2425
23.9697,3.2186
23.9832,3.1983
24.0035,3.1848
24.0274,3.1800
24.1524,3.1800
24.1764,3.1848
24.1966,3.1983
24.2102,3.2186
24.2149,3.2425
24.2149,3.9675
24.2102,3.9914
24.1966,4.0117
24.1764,4.0252
24.1524,4.0300
24.0274,4.0300
24.0035,4.0252
23.9832,4.0117
23.9697,3.9914
23.9649,3.9675
Z" /> 
<path style="fill:#C83434; fill-opacity:1.0000; stroke:none;fill-rule:evenodd;"
d="M 24.4149,3.2425
24.4197,3.2186
24.4332,3.1983
24.4535,3.1848
24.4774,3.1800
24.6024,3.1800
24.6264,3.1848
24.6466,3.1983
24.6602,3.2186
24.6649,3.2425
24.6649,3.9675
24.6602,3.9914
24.6466,4.0117
24.6264,4.0252
24.6024,4.0300
24.4774,4.0300
24.4535,4.0252
24.4332,4.0117
24.4197,3.9914
24.4149,3.9675
Z" /> 
<path style="fill:#C83434; fill-opacity:1.0000; stroke:none;fill-rule:evenodd;"
d="M 24.9796,3.1946
25.1003,3.3154
25.1149,3.3507
25.1149,3.9800
25.1003,4.0154
25.0649,4.0300
24.9149,4.0300
24.8796,4.0154
24.8649,3.9800
24.8649,3.2300
24.8796,3.1946
24.9149,3.1800
24.9442,3.1800
Z" /> 
<path style="fill:#C83434; fill-opacity:1.0000; stroke:none;fill-rule:evenodd;"
d="M 25.9503,2.9446
25.9649,2.9800
25.9649,3.1300
25.9503,3.1654
25.9149,3.1800
25.2856,3.1800
25.2503,3.1654
25.1296,3.0446
25.1149,3.0093
25.1149,2.9800
25.1296,2.9446
25.1649,2.9300
25.9149,2.9300
Z" /> 
<path style="fill:#C83434; fill-opacity:1.0000; stroke:none;fill-rule:evenodd;"
d="M 25.1149,2.5425
25.1197,2.5186
25.1332,2.4983
25.1535,2.4848
25.1774,2.4800
25.9024,2.4800
25.9264,2.4848
25.9466,2.4983
25.9602,2.5186
25.9649,2.5425
25.9649,2.6675
25.9602,2.6914
25.9466,2.7117
25.9264,2.7252
25.9024,2.7300
25.1774,2.7300
25.1535,2.7252
25.1332,2.7117
25.1197,2.6914
25.1149,2.6675
Z" /> 
<path style="fill:#C83434; fill-opacity:1.0000; stroke:none;fill-rule:evenodd;"
d="M 25.1149,2.0925
25.1197,2.0686
25.1332,2.0483
25.1535,2.0348
25.1774,2.0300
25.9024,2.0300
25.9264,2.0348
25.9466,2.0483
25.9602,2.0686
25.9649,2.0925
25.9649,2.2175
25.9602,2.2414
25.9466,2.2617
25.9264,2.2752
25.9024,2.2800
25.1774,2.2800
25.1535,2.2752
25.1332,2.2617
25.1197,2.2414
25.1149,2.2175
Z" /> 
<path style="fill:#C83434; fill-opacity:1.0000; stroke:none;fill-rule:evenodd;"
d="M 25.1149,1.6425
25.1197,1.6186
25.1332,1.5983
25.1535,1.5848
25.1774,1.5800
25.9024,1.5800
25.9264,1.5848
25.9466,1.5983
25.9602,1.6186
25.9649,1.6425
25.9649,1.7675
25.9602,1.7914
25.9466,1.8117
25.9264,1.8252
25.9024,1.8300
25.1774,1.8300
25.1535,1.8252
25.1332,1.8117
25.1197,1.7914
25.1149,1.7675
Z" /> 
<path style="fill:#C83434; fill-opacity:1.0000; stroke:none;fill-rule:evenodd;"
d="M 25.9503,1.1446
25.9649,1.1800
25.9649,1.3300
25.9503,1.3654
25.9149,1.3800
25.1649,1.3800
25.1296,1.3654
25.1149,1.3300
25.1149,1.3007
25.1296,1.2654
25.2503,1.1446
25.2856,1.1300
25.9149,1.1300
Z" /> 
<path style="fill:#C83434; fill-opacity:1.0000; stroke:none;fill-rule:evenodd;"
d="M 25.1003,0.2946
25.1149,0.3300
25.1149,0.9593
25.1003,0.9946
24.9796,1.1154
24.9442,1.1300
24.9149,1.1300
24.8796,1.1154
24.8649,1.0800
24.8649,0.3300
24.8796,0.2946
24.9149,0.2800
25.0649,0.2800
Z" /> 
<path style="fill:#C83434; fill-opacity:1.0000; stroke:none;fill-rule:evenodd;"
d="M 24.4149,0.3425
24.4197,0.3186
24.4332,0.2983
24.4535,0.2848
24.4774,0.2800
24.6024,0.2800
24.6264,0.2848
24.6466,0.2983
24.6602,0.3186
24.6649,0.3425
24.6649,1.0675
24.6602,1.0914
24.6466,1.1117
24.6264,1.1252
24.6024,1.1300
24.4774,1.1300
24.4535,1.1252
24.4332,1.1117
24.4197,1.0914
24.4149,1.0675
Z" /> 
<path style="fill:#C83434; fill-opacity:1.0000; stroke:none;fill-rule:evenodd;"
d="M 23.9649,0.3425
23.9697,0.3186
23.9832,0.2983
24.0035,0.2848
24.0274,0.2800
24.1524,0.2800
24.1764,0.2848
24.1966,0.2983
24.2102,0.3186
24.2149,0.3425
24.2149,1.0675
24.2102,1.0914
24.1966,1.1117
24.1764,1.1252
24.1524,1.1300
24.0274,1.1300
24.0035,1.1252
23.9832,1.1117
23.9697,1.0914
23.9649,1.0675
Z" /> 
<path style="fill:#C83434; fill-opacity:1.0000; stroke:none;fill-rule:evenodd;"
d="M 23.5149,0.3425
23.5197,0.3186
23.5332,0.2983
23.5535,0.2848
23.5774,0.2800
23.7024,0.2800
23.7264,0.2848
23.7466,0.2983
23.7602,0.3186
23.7649,0.3425
23.7649,1.0675
23.7602,1.0914
23.7466,1.1117
23.7264,1.1252
23.7024,1.1300
23.5774,1.1300
23.5535,1.1252
23.5332,1.1117
23.5197,1.0914
23.5149,1.0675
Z" /> 
<path style="fill:#C83434; fill-opacity:1.0000; stroke:none;fill-rule:evenodd;"
d="M 23.3003,0.2946
23.3149,0.3300
23.3149,1.0800
23.3003,1.1154
23.2649,1.1300
23.2356,1.1300
23.2003,1.1154
23.0796,0.9946
23.0649,0.9593
23.0649,0.3300
23.0796,0.2946
23.1149,0.2800
23.2649,0.2800
Z" /> 
<path style="fill:#C83434; fill-opacity:1.0000; stroke:none;fill-rule:evenodd;"
d="M 23.3149,2.9300
23.3149,1.3800
24.8649,1.3800
24.8649,2.9300
Z" /> 
<path style="fill:#D864FF; fill-opacity:0.4000; stroke:none;fill-rule:evenodd;"
d="M 22.9296,1.1446
23.0503,1.2654
23.0649,1.3007
23.0649,1.3300
23.0503,1.3654
23.0149,1.3800
22.2649,1.3800
22.2296,1.3654
22.2149,1.3300
22.2149,1.1800
22.2296,1.1446
22.2649,1.1300
22.8942,1.1300
Z" /> 
<path style="fill:#D864FF; fill-opacity:0.4000; stroke:none;fill-rule:evenodd;"
d="M 22.2149,1.6425
22.2197,1.6186
22.2332,1.5983
22.2535,1.5848
22.2774,1.5800
23.0024,1.5800
23.0264,1.5848
23.0466,1.5983
23.0602,1.6186
23.0649,1.6425
23.0649,1.7675
23.0602,1.7914
23.0466,1.8117
23.0264,1.8252
23.0024,1.8300
22.2774,1.8300
22.2535,1.8252
22.2332,1.8117
22.2197,1.7914
22.2149,1.7675
Z" /> 
<path style="fill:#D864FF; fill-opacity:0.4000; stroke:none;fill-rule:evenodd;"
d="M 22.2149,2.0925
22.2197,2.0686
22.2332,2.0483
22.2535,2.0348
22.2774,2.0300
23.0024,2.0300
23.0264,2.0348
23.0466,2.0483
23.0602,2.0686
23.0649,2.0925
23.0649,2.2175
23.0602,2.2414
23.0466,2.2617
23.0264,2.2752
23.0024,2.2800
22.2774,2.2800
22.2535,2.2752
22.2332,2.2617
22.2197,2.2414
22.2149,2.2175
Z" /> 
<path style="fill:#D864FF; fill-opacity:0.4000; stroke:none;fill-rule:evenodd;"
d="M 22.2149,2.5425
22.2197,2.5186
22.2332,2.4983
22.2535,2.4848
22.2774,2.4800
23.0024,2.4800
23.0264,2.4848
23.0466,2.4983
23.0602,2.5186
23.0649,2.5425
23.0649,2.6675
23.0602,2.6914
23.0466,2.7117
23.0264,2.7252
23.0024,2.7300
22.2774,2.7300
22.2535,2.7252
22.2332,2.7117
22.2197,2.6914
22.2149,2.6675
Z" /> 
<path style="fill:#D864FF; fill-opacity:0.4000; stroke:none;fill-rule:evenodd;"
d="M 23.0503,2.9446
23.0649,2.9800
23.0649,3.0093
23.0503,3.0446
22.9296,3.1654
22.8942,3.1800
22.2649,3.1800
22.2296,3.1654
22.2149,3.1300
22.2149,2.9800
22.2296,2.9446
22.2649,2.9300
23.0149,2.9300
Z" /> 
<path style="fill:#D864FF; fill-opacity:0.4000; stroke:none;fill-rule:evenodd;"
d="M 23.3003,3.1946
23.3149,3.2300
23.3149,3.9800
23.3003,4.0154
23.2649,4.0300
23.1149,4.0300
23.0796,4.0154
23.0649,3.9800
23.0649,3.3507
23.0796,3.3154
23.2003,3.1946
23.2356,3.1800
23.2649,3.1800
Z" /> 
<path style="fill:#D864FF; fill-opacity:0.4000; stroke:none;fill-rule:evenodd;"
d="M 23.5149,3.2425
23.5197,3.2186
23.5332,3.1983
23.5535,3.1848
23.5774,3.1800
23.7024,3.1800
23.7264,3.1848
23.7466,3.1983
23.7602,3.2186
23.7649,3.2425
23.7649,3.9675
23.7602,3.9914
23.7466,4.0117
23.7264,4.0252
23.7024,4.0300
23.5774,4.0300
23.5535,4.0252
23.5332,4.0117
23.5197,3.9914
23.5149,3.9675
Z" /> 
<path style="fill:#D864FF; fill-opacity:0.4000; stroke:none;fill-rule:evenodd;"
d="M 23.9649,3.2425
23.9697,3.2186
23.9832,3.1983
24.0035,3.1848
24.0274,3.1800
24.1524,3.1800
24.1764,3.1848
24.1966,3.1983
24.2102,3.2186
24.2149,3.2425
24.2149,3.9675
24.2102,3.9914
24.1966,4.0117
24.1764,4.0252
24.1524,4.0300
24.0274,4.0300
24.0035,4.0252
23.9832,4.0117
23.9697,3.9914
23.9649,3.9675
Z" /> 
<path style="fill:#D864FF; fill-opacity:0.4000; stroke:none;fill-rule:evenodd;"
d="M 24.4149,3.2425
24.4197,3.2186
24.4332,3.1983
24.4535,3.1848
24.4774,3.1800
24.6024,3.1800
24.6264,3.1848
24.6466,3.1983
24.6602,3.2186
24.6649,3.2425
24.6649,3.9675
24.6602,3.9914
24.6466,4.0117
24.6264,4.0252
24.6024,4.0300
24.4774,4.0300
24.4535,4.0252
24.4332,4.0117
24.4197,3.9914
24.4149,3.9675
Z" /> 
<path style="fill:#D864FF; fill-opacity:0.4000; stroke:none;fill-rule:evenodd;"
d="M 24.9796,3.1946
25.1003,3.3154
25.1149,3.3507
25.1149,3.9800
25.1003,4.0154
25.0649,4.0300
24.9149,4.0300
24.8796,4.0154
24.8649,3.9800
24.8649,3.2300
24.8796,3.1946
24.9149,3.1800
24.9442,3.1800
Z" /> 
<path style="fill:#D864FF; fill-opacity:0.4000; stroke:none;fill-rule:evenodd;"
d="M 25.9503,2.9446
25.9649,2.9800
25.9649,3.1300
25.9503,3.1654
25.9149,3.1800
25.2856,3.1800
25.2503,3.1654
25.1296,3.0446
25.1149,3.0093
25.1149,2.9800
25.1296,2.9446
25.1649,2.9300
25.9149,2.9300
Z" /> 
<path style="fill:#D864FF; fill-opacity:0.4000; stroke:none;fill-rule:evenodd;"
d="M 25.1149,2.5425
25.1197,2.5186
25.1332,2.4983
25.1535,2.4848
25.1774,2.4800
25.9024,2.4800
25.9264,2.4848
25.9466,2.4983
25.9602,2.5186
25.9649,2.5425
25.9649,2.6675
25.9602,2.6914
25.9466,2.7117
25.9264,2.7252
25.9024,2.7300
25.1774,2.7300
25.1535,2.7252
25.1332,2.7117
25.1197,2.6914
25.1149,2.6675
Z" /> 
<path style="fill:#D864FF; fill-opacity:0.4000; stroke:none;fill-rule:evenodd;"
d="M 25.1149,2.0925
25.1197,2.0686
25.1332,2.0483
25.1535,2.0348
25.1774,2.0300
25.9024,2.0300
25.9264,2.0348
25.9466,2.0483
25.9602,2.0686
25.9649,2.0925
25.9649,2.2175
25.9602,2.2414
25.9466,2.2617
25.9264,2.2752
25.9024,2.2800
25.1774,2.2800
25.1535,2.2752
25.1332,2.2617
25.1197,2.2414
25.1149,2.2175
Z" /> 
<path style="fill:#D864FF; fill-opacity:0.4000; stroke:none;fill-rule:evenodd;"
d="M 25.1149,1.6425
25.1197,1.6186
25.1332,1.5983
25.1535,1.5848
25.1774,1.5800
25.9024,1.5800
25.9264,1.5848
25.9466,1.5983
25.9602,1.6186
25.9649,1.6425
25.9649,1.7675
25.9602,1.7914
25.9466,1.8117
25.9264,1.8252
25.9024,1.8300
25.1774,1.8300
25.1535,1.8252
25.1332,1.8117
25.1197,1.7914
25.1149,1.7675
Z" /> 
<path style="fill:#D864FF; fill-opacity:0.4000; stroke:none;fill-rule:evenodd;"
d="M 25.9503,1.1446
25.9649,1.1800
25.9649,1.3300
25.9503,1.3654
25.9149,1.3800
25.1649,1.3800
25.1296,1.3654
25.1149,1.3300
25.1149,1.3007
25.1296,1.2654
25.2503,1.1446
25.2856,1.1300
25.9149,1.1300
Z" /> 
<path style="fill:#D864FF; fill-opacity:0.4000; stroke:none;fill-rule:evenodd;"
d="M 25.1003,0.2946
25.1149,0.3300
25.1149,0.9593
25.1003,0.9946
24.9796,1.1154
24.9442,1.1300
24.9149,1.1300
24.8796,1.1154
24.8649,1.0800
24.8649,0.3300
24.8796,0.2946
24.9149,0.2800
25.0649,0.2800
Z" /> 
<path style="fill:#D864FF; fill-opacity:0.4000; stroke:none;fill-rule:evenodd;"
d="M 24.4149,0.3425
24.4197,0.3186
24.4332,0.2983
24.4535,0.2848
24.4774,0.2800
24.6024,0.2800
24.6264,0.2848
24.6466,0.2983
24.6602,0.3186
24.6649,0.3425
24.6649,1.0675
24.6602,1.0914
24.6466,1.1117
24.6264,1.1252
24.6024,1.1300
24.4774,1.1300
24.4535,1.1252
24.4332,1.1117
24.4197,1.0914
24.4149,1.0675
Z" /> 
<path style="fill:#D864FF; fill-opacity:0.4000; stroke:none;fill-rule:evenodd;"
d="M 23.9649,0.3425
23.9697,0.3186
23.9832,0.2983
24.0035,0.2848
24.0274,0.2800
24.1524,0.2800
24.1764,0.2848
24.1966,0.2983
24.2102,0.3186
24.2149,0.3425
24.2149,1.0675
24.2102,1.0914
24.1966,1.1117
24.1764,1.1252
24.1524,1.1300
24.0274,1.1300
24.0035,1.1252
23.9832,1.1117
23.9697,1.0914
23.9649,1.0675
Z" /> 
<path style="fill:#D864FF; fill-opacity:0.4000; stroke:none;fill-rule:evenodd;"
d="M 23.5149,0.3425
23.5197,0.3186
23.5332,0.2983
23.5535,0.2848
23.5774,0.2800
23.7024,0.2800
23.7264,0.2848
23.7466,0.2983
23.7602,0.3186
23.7649,0.3425
23.7649,1.0675
23.7602,1.0914
23.7466,1.1117
23.7264,1.1252
23.7024,1.1300
23.5774,1.1300
23.5535,1.1252
23.5332,1.1117
23.5197,1.0914
23.5149,1.0675
Z" /> 
<path style="fill:#D864FF; fill-opacity:0.4000; stroke:none;fill-rule:evenodd;"
d="M 23.3003,0.2946
23.3149,0.3300
23.3149,1.0800
23.3003,1.1154
23.2649,1.1300
23.2356,1.1300
23.2003,1.1154
23.0796,0.9946
23.0649,0.9593
23.0649,0.3300
23.0796,0.2946
23.1149,0.2800
23.2649,0.2800
Z" /> 
<path style="fill:#D864FF; fill-opacity:0.4000; stroke:none;fill-rule:evenodd;"
d="M 23.3149,2.9300
23.3149,1.3800
24.8649,1.3800
24.8649,2.9300
Z" /> 
<path style="fill:#B4A09A; fill-opacity:0.9000; stroke:none;fill-rule:evenodd;"
d="M 23.3899,1.6100
23.4017,1.5507
23.4353,1.5004
23.4856,1.4668
23.5449,1.4550
23.8549,1.4550
23.9142,1.4668
23.9645,1.5004
23.9981,1.5507
24.0099,1.6100
24.0099,1.9200
23.9981,1.9793
23.9645,2.0296
23.9142,2.0632
23.8549,2.0750
23.5449,2.0750
23.4856,2.0632
23.4353,2.0296
23.4017,1.9793
23.3899,1.9200
Z" /> 
<path style="fill:#B4A09A; fill-opacity:0.9000; stroke:none;fill-rule:evenodd;"
d="M 23.3899,2.3900
23.4017,2.3307
23.4353,2.2804
23.4856,2.2468
23.5449,2.2350
23.8549,2.2350
23.9142,2.2468
23.9645,2.2804
23.9981,2.3307
24.0099,2.3900
24.0099,2.7000
23.9981,2.7593
23.9645,2.8096
23.9142,2.8432
23.8549,2.8550
23.5449,2.8550
23.4856,2.8432
23.4353,2.8096
23.4017,2.7593
23.3899,2.7000
Z" /> 
<path style="fill:#B4A09A; fill-opacity:0.9000; stroke:none;fill-rule:evenodd;"
d="M 24.1699,1.6100
24.1817,1.5507
24.2153,1.5004
24.2656,1.4668
24.3249,1.4550
24.6349,1.4550
24.6943,1.4668
24.7445,1.5004
24.7781,1.5507
24.7899,1.6100
24.7899,1.9200
24.7781,1.9793
24.7445,2.0296
24.6943,2.0632
24.6349,2.0750
24.3249,2.0750
24.2656,2.0632
24.2153,2.0296
24.1817,1.9793
24.1699,1.9200
Z" /> 
<path style="fill:#B4A09A; fill-opacity:0.9000; stroke:none;fill-rule:evenodd;"
d="M 24.1699,2.3900
24.1817,2.3307
24.2153,2.2804
24.2656,2.2468
24.3249,2.2350
24.6349,2.2350
24.6943,2.2468
24.7445,2.2804
24.7781,2.3307
24.7899,2.3900
24.7899,2.7000
24.7781,2.7593
24.7445,2.8096
24.6943,2.8432
24.6349,2.8550
24.3249,2.8550
24.2656,2.8432
24.2153,2.8096
24.1817,2.7593
24.1699,2.7000
Z" /> 
<path style="fill:#B4A09A; fill-opacity:0.9000; stroke:none;fill-rule:evenodd;"
d="M 22.9296,1.1446
23.0503,1.2654
23.0649,1.3007
23.0649,1.3300
23.0503,1.3654
23.0149,1.3800
22.2649,1.3800
22.2296,1.3654
22.2149,1.3300
22.2149,1.1800
22.2296,1.1446
22.2649,1.1300
22.8942,1.1300
Z" /> 
<path style="fill:#B4A09A; fill-opacity:0.9000; stroke:none;fill-rule:evenodd;"
d="M 22.2149,1.6425
22.2197,1.6186
22.2332,1.5983
22.2535,1.5848
22.2774,1.5800
23.0024,1.5800
23.0264,1.5848
23.0466,1.5983
23.0602,1.6186
23.0649,1.6425
23.0649,1.7675
23.0602,1.7914
23.0466,1.8117
23.0264,1.8252
23.0024,1.8300
22.2774,1.8300
22.2535,1.8252
22.2332,1.8117
22.2197,1.7914
22.2149,1.7675
Z" /> 
<path style="fill:#B4A09A; fill-opacity:0.9000; stroke:none;fill-rule:evenodd;"
d="M 22.2149,2.0925
22.2197,2.0686
22.2332,2.0483
22.2535,2.0348
22.2774,2.0300
23.0024,2.0300
23.0264,2.0348
23.0466,2.0483
23.0602,2.0686
23.0649,2.0925
23.0649,2.2175
23.0602,2.2414
23.0466,2.2617
23.0264,2.2752
23.0024,2.2800
22.2774,2.2800
22.2535,2.2752
22.2332,2.2617
22.2197,2.2414
22.2149,2.2175
Z" /> 
<path style="fill:#B4A09A; fill-opacity:0.9000; stroke:none;fill-rule:evenodd;"
d="M 22.2149,2.5425
22.2197,2.5186
22.2332,2.4983
22.2535,2.4848
22.2774,2.4800
23.0024,2.4800
23.0264,2.4848
23.0466,2.4983
23.0602,2.5186
23.0649,2.5425
23.0649,2.6675
23.0602,2.6914
23.0466,2.7117
23.0264,2.7252
23.0024,2.7300
22.2774,2.7300
22.2535,2.7252
22.2332,2.7117
22.2197,2.6914
22.2149,2.6675
Z" /> 
<path style="fill:#B4A09A; fill-opacity:0.9000; stroke:none;fill-rule:evenodd;"
d="M 23.0503,2.9446
23.0649,2.9800
23.0649,3.0093
23.0503,3.0446
22.9296,3.1654
22.8942,3.1800
22.2649,3.1800
22.2296,3.1654
22.2149,3.1300
22.2149,2.9800
22.2296,2.9446
22.2649,2.9300
23.0149,2.9300
Z" /> 
<path style="fill:#B4A09A; fill-opacity:0.9000; stroke:none;fill-rule:evenodd;"
d="M 23.3003,3.1946
23.3149,3.2300
23.3149,3.9800
23.3003,4.0154
23.2649,4.0300
23.1149,4.0300
23.0796,4.0154
23.0649,3.9800
23.0649,3.3507
23.0796,3.3154
23.2003,3.1946
23.2356,3.1800
23.2649,3.1800
Z" /> 
<path style="fill:#B4A09A; fill-opacity:0.9000; stroke:none;fill-rule:evenodd;"
d="M 23.5149,3.2425
23.5197,3.2186
23.5332,3.1983
23.5535,3.1848
23.5774,3.1800
23.7024,3.1800
23.7264,3.1848
23.7466,3.1983
23.7602,3.2186
23.7649,3.2425
23.7649,3.9675
23.7602,3.9914
23.7466,4.0117
23.7264,4.0252
23.7024,4.0300
23.5774,4.0300
23.5535,4.0252
23.5332,4.0117
23.5197,3.9914
23.5149,3.9675
Z" /> 
<path style="fill:#B4A09A; fill-opacity:0.9000; stroke:none;fill-rule:evenodd;"
d="M 23.9649,3.2425
23.9697,3.2186
23.9832,3.1983
24.0035,3.1848
24.0274,3.1800
24.1524,3.1800
24.1764,3.1848
24.1966,3.1983
24.2102,3.2186
24.2149,3.2425
24.2149,3.9675
24.2102,3.9914
24.1966,4.0117
24.1764,4.0252
24.1524,4.0300
24.0274,4.0300
24.0035,4.0252
23.9832,4.0117
23.9697,3.9914
23.9649,3.9675
Z" /> 
<path style="fill:#B4A09A; fill-opacity:0.9000; stroke:none;fill-rule:evenodd;"
d="M 24.4149,3.2425
24.4197,3.2186
24.4332,3.1983
24.4535,3.1848
24.4774,3.1800
24.6024,3.1800
24.6264,3.1848
24.6466,3.1983
24.6602,3.2186
24.6649,3.2425
24.6649,3.9675
24.6602,3.9914
24.6466,4.0117
24.6264,4.0252
24.6024,4.0300
24.4774,4.0300
24.4535,4.0252
24.4332,4.0117
24.4197,3.9914
24.4149,3.9675
Z" /> 
<path style="fill:#B4A09A; fill-opacity:0.9000; stroke:none;fill-rule:evenodd;"
d="M 24.9796,3.1946
25.1003,3.3154
25.1149,3.3507
25.1149,3.9800
25.1003,4.0154
25.0649,4.0300
24.9149,4.0300
24.8796,4.0154
24.8649,3.9800
24.8649,3.2300
24.8796,3.1946
24.9149,3.1800
24.9442,3.1800
Z" /> 
<path style="fill:#B4A09A; fill-opacity:0.9000; stroke:none;fill-rule:evenodd;"
d="M 25.9503,2.9446
25.9649,2.9800
25.9649,3.1300
25.9503,3.1654
25.9149,3.1800
25.2856,3.1800
25.2503,3.1654
25.1296,3.0446
25.1149,3.0093
25.1149,2.9800
25.1296,2.9446
25.1649,2.9300
25.9149,2.9300
Z" /> 
<path style="fill:#B4A09A; fill-opacity:0.9000; stroke:none;fill-rule:evenodd;"
d="M 25.1149,2.5425
25.1197,2.5186
25.1332,2.4983
25.1535,2.4848
25.1774,2.4800
25.9024,2.4800
25.9264,2.4848
25.9466,2.4983
25.9602,2.5186
25.9649,2.5425
25.9649,2.6675
25.9602,2.6914
25.9466,2.7117
25.9264,2.7252
25.9024,2.7300
25.1774,2.7300
25.1535,2.7252
25.1332,2.7117
25.1197,2.6914
25.1149,2.6675
Z" /> 
<path style="fill:#B4A09A; fill-opacity:0.9000; stroke:none;fill-rule:evenodd;"
d="M 25.1149,2.0925
25.1197,2.0686
25.1332,2.0483
25.1535,2.0348
25.1774,2.0300
25.9024,2.0300
25.9264,2.0348
25.9466,2.0483
25.9602,2.0686
25.9649,2.0925
25.9649,2.2175
25.9602,2.2414
25.9466,2.2617
25.9264,2.2752
25.9024,2.2800
25.1774,2.2800
25.1535,2.2752
25.1332,2.2617
25.1197,2.2414
25.1149,2.2175
Z" /> 
<path style="fill:#B4A09A; fill-opacity:0.9000; stroke:none;fill-rule:evenodd;"
d="M 25.1149,1.6425
25.1197,1.6186
25.1332,1.5983
25.1535,1.5848
25.1774,1.5800
25.9024,1.5800
25.9264,1.5848
25.9466,1.5983
25.9602,1.6186
25.9649,1.6425
25.9649,1.7675
25.9602,1.7914
25.9466,1.8117
25.9264,1.8252
25.9024,1.8300
25.1774,1.8300
25.1535,1.8252
25.1332,1.8117
25.1197,1.7914
25.1149,1.7675
Z" /> 
<path style="fill:#B4A09A; fill-opacity:0.9000; stroke:none;fill-rule:evenodd;"
d="M 25.9503,1.1446
25.9649,1.1800
25.9649,1.3300
25.9503,1.3654
25.9149,1.3800
25.1649,1.3800
25.1296,1.3654
25.1149,1.3300
25.1149,1.3007
25.1296,1.2654
25.2503,1.1446
25.2856,1.1300
25.9149,1.1300
Z" /> 
<path style="fill:#B4A09A; fill-opacity:0.9000; stroke:none;fill-rule:evenodd;"
d="M 25.1003,0.2946
25.1149,0.3300
25.1149,0.9593
25.1003,0.9946
24.9796,1.1154
24.9442,1.1300
24.9149,1.1300
24.8796,1.1154
24.8649,1.0800
24.8649,0.3300
24.8796,0.2946
24.9149,0.2800
25.0649,0.2800
Z" /> 
<path style="fill:#B4A09A; fill-opacity:0.9000; stroke:none;fill-rule:evenodd;"
d="M 24.4149,0.3425
24.4197,0.3186
24.4332,0.2983
24.4535,0.2848
24.4774,0.2800
24.6024,0.2800
24.6264,0.2848
24.6466,0.2983
24.6602,0.3186
24.6649,0.3425
24.6649,1.0675
24.6602,1.0914
24.6466,1.1117
24.6264,1.1252
24.6024,1.1300
24.4774,1.1300
24.4535,1.1252
24.4332,1.1117
24.4197,1.0914
24.4149,1.0675
Z" /> 
<path style="fill:#B4A09A; fill-opacity:0.9000; stroke:none;fill-rule:evenodd;"
d="M 23.9649,0.3425
23.9697,0.3186
23.9832,0.2983
24.0035,0.2848
24.0274,0.2800
24.1524,0.2800
24.1764,0.2848
24.1966,0.2983
24.2102,0.3186
24.2149,0.3425
24.2149,1.0675
24.2102,1.0914
24.1966,1.1117
24.1764,1.1252
24.1524,1.1300
24.0274,1.1300
24.0035,1.1252
23.9832,1.1117
23.9697,1.0914
23.9649,1.0675
Z" /> 
<path style="fill:#B4A09A; fill-opacity:0.9000; stroke:none;fill-rule:evenodd;"
d="M 23.5149,0.3425
23.5197,0.3186
23.5332,0.2983
23.5535,0.2848
23.5774,0.2800
23.7024,0.2800
23.7264,0.2848
23.7466,0.2983
23.7602,0.3186
23.7649,0.3425
23.7649,1.0675
23.7602,1.0914
23.7466,1.1117
23.7264,1.1252
23.7024,1.1300
23.5774,1.1300
23.5535,1.1252
23.5332,1.1117
23.5197,1.0914
23.5149,1.0675
Z" /> 
<path style="fill:#B4A09A; fill-opacity:0.9000; stroke:none;fill-rule:evenodd;"
d="M 23.3003,0.2946
23.3149,0.3300
23.3149,1.0800
23.3003,1.1154
23.2649,1.1300
23.2356,1.1300
23.2003,1.1154
23.0796,0.9946
23.0649,0.9593
23.0649,0.3300
23.0796,0.2946
23.1149,0.2800
23.2649,0.2800
Z" /> 
</g>
<g style="fill:none; 
stroke:#F2EDA1; stroke-width:0.1588; stroke-opacity:1; 
stroke-linecap:round; stroke-linejoin:round;">
<text x="24.0899" y="2.7900"
textLength="5.6651" font-size="1.6933" lengthAdjust="spacingAndGlyphs"
text-anchor="middle" opacity="0">REF**</text>
<g class="stroked-text"><desc>REF**</desc>
<path d="M22.3966 2.7343
L21.9733 2.1295
" />
<path d="M21.6709 2.7343
L21.6709 1.4643
" />
<path d="M21.6709 1.4643
L22.1547 1.4643
" />
<path d="M22.1547 1.4643
L22.2756 1.5247
" />
<path d="M22.2756 1.5247
L22.3361 1.5852
" />
<path d="M22.3361 1.5852
L22.3966 1.7062
" />
<path d="M22.3966 1.7062
L22.3966 1.8876
" />
<path d="M22.3966 1.8876
L22.3361 2.0086
" />
<path d="M22.3361 2.0086
L22.2756 2.0690
" />
<path d="M22.2756 2.0690
L22.1547 2.1295
" />
<path d="M22.1547 2.1295
L21.6709 2.1295
" />
<path d="M22.9409 2.0690
L23.3642 2.0690
" />
<path d="M23.5456 2.7343
L22.9409 2.7343
" />
<path d="M22.9409 2.7343
L22.9409 1.4643
" />
<path d="M22.9409 1.4643
L23.5456 1.4643
" />
<path d="M24.5133 2.0690
L24.0899 2.0690
" />
<path d="M24.0899 2.7343
L24.0899 1.4643
" />
<path d="M24.0899 1.4643
L24.6947 1.4643
" />
<path d="M25.3599 1.4643
L25.3599 1.7667
" />
<path d="M25.0576 1.6457
L25.3599 1.7667
" />
<path d="M25.3599 1.7667
L25.6623 1.6457
" />
<path d="M25.1785 2.0086
L25.3599 1.7667
" />
<path d="M25.3599 1.7667
L25.5414 2.0086
" />
<path d="M26.3276 1.4643
L26.3276 1.7667
" />
<path d="M26.0252 1.6457
L26.3276 1.7667
" />
<path d="M26.3276 1.7667
L26.6299 1.6457
" />
<path d="M26.1461 2.0086
L26.3276 1.7667
" />
<path d="M26.3276 1.7667
L26.5090 2.0086
" />
</g></g>
<g style="fill:none; 
stroke:#F2EDA1; stroke-width:0.1200; stroke-opacity:1; 
stroke-linecap:round; stroke-linejoin:round;">
<path d="M22.4799 3.7650
L22.4799 3.4400
" />
<path d="M22.8049 3.7650
L22.4799 3.7650
" />
<path d="M25.3749 0.5450
L25.6999 0.5450
" />
<path d="M25.3749 3.7650
L25.6999 3.7650
" />
<path d="M25.6999 0.5450
L25.6999 0.8700
" />
<path d="M25.6999 3.7650
L25.6999 3.4400
" />
<path style="fill:#F2EDA1; fill-opacity:1.0000; 
stroke:#F2EDA1; stroke-width:0.1200; stroke-opacity:1; 
stroke-linecap:round; stroke-linejoin:round;fill-rule:evenodd;"
d="M 22.4799,0.5450
22.2399,0.2150
22.7199,0.2150
Z" /> 
</g>
<g style="fill:none; 
stroke:#FF26E2; stroke-width:0.0500; stroke-opacity:1; 
stroke-linecap:round; stroke-linejoin:round;">
<path d="M21.9599 0.0250
L21.9599 4.2850
" />
<path d="M21.9599 4.2850
L26.2199 4.2850
" />
<path d="M26.2199 0.0250
L21.9599 0.0250
" />
<path d="M26.2199 4.2850
L26.2199 0.0250
" />
</g>
<g style="fill:none; 
stroke:#AFAFAF; stroke-width:0.1588; stroke-opacity:1; 
stroke-linecap:round; stroke-linejoin:round;">
<text x="24.0899" y="2.7900"
textLength="48.1799" font-size="1.6933" lengthAdjust="spacingAndGlyphs"
text-anchor="middle" opacity="0">VQFN-20-1EP_3x3mm_P0.45mm_EP1.55x1.55mm</text>
<g class="stroked-text"><desc>VQFN-20-1EP_3x3mm_P0.45mm_EP1.55x1.55mm</desc>
<path d="M0.2321 1.4643
L0.6554 2.7343
" />
<path d="M0.6554 2.7343
L1.0787 1.4643
" />
<path d="M2.3487 2.8552
L2.2278 2.7947
" />
<path d="M2.2278 2.7947
L2.1068 2.6738
" />
<path d="M2.1068 2.6738
L1.9254 2.4924
" />
<path d="M1.9254 2.4924
L1.8045 2.4319
" />
<path d="M1.8045 2.4319
L1.6835 2.4319
" />
<path d="M1.7440 2.7343
L1.6230 2.6738
" />
<path d="M1.6230 2.6738
L1.5021 2.5528
" />
<path d="M1.5021 2.5528
L1.4416 2.3109
" />
<path d="M1.4416 2.3109
L1.4416 1.8876
" />
<path d="M1.4416 1.8876
L1.5021 1.6457
" />
<path d="M1.5021 1.6457
L1.6230 1.5247
" />
<path d="M1.6230 1.5247
L1.7440 1.4643
" />
<path d="M1.7440 1.4643
L1.9859 1.4643
" />
<path d="M1.9859 1.4643
L2.1068 1.5247
" />
<path d="M2.1068 1.5247
L2.2278 1.6457
" />
<path d="M2.2278 1.6457
L2.2883 1.8876
" />
<path d="M2.2883 1.8876
L2.2883 2.3109
" />
<path d="M2.2883 2.3109
L2.2278 2.5528
" />
<path d="M2.2278 2.5528
L2.1068 2.6738
" />
<path d="M2.1068 2.6738
L1.9859 2.7343
" />
<path d="M1.9859 2.7343
L1.7440 2.7343
" />
<path d="M3.2559 2.0690
L2.8326 2.0690
" />
<path d="M2.8326 2.7343
L2.8326 1.4643
" />
<path d="M2.8326 1.4643
L3.4373 1.4643
" />
<path d="M3.9211 2.7343
L3.9211 1.4643
" />
<path d="M3.9211 1.4643
L4.6468 2.7343
" />
<path d="M4.6468 2.7343
L4.6468 1.4643
" />
<path d="M5.2516 2.2505
L6.2192 2.2505
" />
<path d="M6.7635 1.5852
L6.8240 1.5247
" />
<path d="M6.8240 1.5247
L6.9449 1.4643
" />
<path d="M6.9449 1.4643
L7.2473 1.4643
" />
<path d="M7.2473 1.4643
L7.3683 1.5247
" />
<path d="M7.3683 1.5247
L7.4287 1.5852
" />
<path d="M7.4287 1.5852
L7.4892 1.7062
" />
<path d="M7.4892 1.7062
L7.4892 1.8271
" />
<path d="M7.4892 1.8271
L7.4287 2.0086
" />
<path d="M7.4287 2.0086
L6.7030 2.7343
" />
<path d="M6.7030 2.7343
L7.4892 2.7343
" />
<path d="M8.2754 1.4643
L8.3964 1.4643
" />
<path d="M8.3964 1.4643
L8.5173 1.5247
" />
<path d="M8.5173 1.5247
L8.5778 1.5852
" />
<path d="M8.5778 1.5852
L8.6383 1.7062
" />
<path d="M8.6383 1.7062
L8.6987 1.9481
" />
<path d="M8.6987 1.9481
L8.6987 2.2505
" />
<path d="M8.6987 2.2505
L8.6383 2.4924
" />
<path d="M8.6383 2.4924
L8.5778 2.6133
" />
<path d="M8.5778 2.6133
L8.5173 2.6738
" />
<path d="M8.5173 2.6738
L8.3964 2.7343
" />
<path d="M8.3964 2.7343
L8.2754 2.7343
" />
<path d="M8.2754 2.7343
L8.1545 2.6738
" />
<path d="M8.1545 2.6738
L8.0940 2.6133
" />
<path d="M8.0940 2.6133
L8.0335 2.4924
" />
<path d="M8.0335 2.4924
L7.9730 2.2505
" />
<path d="M7.9730 2.2505
L7.9730 1.9481
" />
<path d="M7.9730 1.9481
L8.0335 1.7062
" />
<path d="M8.0335 1.7062
L8.0940 1.5852
" />
<path d="M8.0940 1.5852
L8.1545 1.5247
" />
<path d="M8.1545 1.5247
L8.2754 1.4643
" />
<path d="M9.2430 2.2505
L10.2106 2.2505
" />
<path d="M11.4806 2.7343
L10.7549 2.7343
" />
<path d="M11.1178 2.7343
L11.1178 1.4643
" />
<path d="M11.1178 1.4643
L10.9968 1.6457
" />
<path d="M10.9968 1.6457
L10.8759 1.7667
" />
<path d="M10.8759 1.7667
L10.7549 1.8271
" />
<path d="M12.0249 2.0690
L12.4483 2.0690
" />
<path d="M12.6297 2.7343
L12.0249 2.7343
" />
<path d="M12.0249 2.7343
L12.0249 1.4643
" />
<path d="M12.0249 1.4643
L12.6297 1.4643
" />
<path d="M13.1740 2.7343
L13.1740 1.4643
" />
<path d="M13.1740 1.4643
L13.6578 1.4643
" />
<path d="M13.6578 1.4643
L13.7787 1.5247
" />
<path d="M13.7787 1.5247
L13.8392 1.5852
" />
<path d="M13.8392 1.5852
L13.8997 1.7062
" />
<path d="M13.8997 1.7062
L13.8997 1.8876
" />
<path d="M13.8997 1.8876
L13.8392 2.0086
" />
<path d="M13.8392 2.0086
L13.7787 2.0690
" />
<path d="M13.7787 2.0690
L13.6578 2.1295
" />
<path d="M13.6578 2.1295
L13.1740 2.1295
" />
<path d="M14.1416 2.8552
L15.1092 2.8552
" />
<path d="M15.2906 1.4643
L16.0768 1.4643
" />
<path d="M16.0768 1.4643
L15.6535 1.9481
" />
<path d="M15.6535 1.9481
L15.8349 1.9481
" />
<path d="M15.8349 1.9481
L15.9559 2.0086
" />
<path d="M15.9559 2.0086
L16.0164 2.0690
" />
<path d="M16.0164 2.0690
L16.0768 2.1900
" />
<path d="M16.0768 2.1900
L16.0768 2.4924
" />
<path d="M16.0768 2.4924
L16.0164 2.6133
" />
<path d="M16.0164 2.6133
L15.9559 2.6738
" />
<path d="M15.9559 2.6738
L15.8349 2.7343
" />
<path d="M15.8349 2.7343
L15.4721 2.7343
" />
<path d="M15.4721 2.7343
L15.3511 2.6738
" />
<path d="M15.3511 2.6738
L15.2906 2.6133
" />
<path d="M16.5002 2.7343
L17.1654 1.8876
" />
<path d="M16.5002 1.8876
L17.1654 2.7343
" />
<path d="M17.5283 1.4643
L18.3145 1.4643
" />
<path d="M18.3145 1.4643
L17.8911 1.9481
" />
<path d="M17.8911 1.9481
L18.0726 1.9481
" />
<path d="M18.0726 1.9481
L18.1935 2.0086
" />
<path d="M18.1935 2.0086
L18.2540 2.0690
" />
<path d="M18.2540 2.0690
L18.3145 2.1900
" />
<path d="M18.3145 2.1900
L18.3145 2.4924
" />
<path d="M18.3145 2.4924
L18.2540 2.6133
" />
<path d="M18.2540 2.6133
L18.1935 2.6738
" />
<path d="M18.1935 2.6738
L18.0726 2.7343
" />
<path d="M18.0726 2.7343
L17.7097 2.7343
" />
<path d="M17.7097 2.7343
L17.5887 2.6738
" />
<path d="M17.5887 2.6738
L17.5283 2.6133
" />
<path d="M18.8587 2.7343
L18.8587 1.8876
" />
<path d="M18.8587 2.0086
L18.9192 1.9481
" />
<path d="M18.9192 1.9481
L19.0402 1.8876
" />
<path d="M19.0402 1.8876
L19.2216 1.8876
" />
<path d="M19.2216 1.8876
L19.3426 1.9481
" />
<path d="M19.3426 1.9481
L19.4030 2.0690
" />
<path d="M19.4030 2.0690
L19.4030 2.7343
" />
<path d="M19.4030 2.0690
L19.4635 1.9481
" />
<path d="M19.4635 1.9481
L19.5845 1.8876
" />
<path d="M19.5845 1.8876
L19.7659 1.8876
" />
<path d="M19.7659 1.8876
L19.8868 1.9481
" />
<path d="M19.8868 1.9481
L19.9473 2.0690
" />
<path d="M19.9473 2.0690
L19.9473 2.7343
" />
<path d="M20.5521 2.7343
L20.5521 1.8876
" />
<path d="M20.5521 2.0086
L20.6126 1.9481
" />
<path d="M20.6126 1.9481
L20.7335 1.8876
" />
<path d="M20.7335 1.8876
L20.9149 1.8876
" />
<path d="M20.9149 1.8876
L21.0359 1.9481
" />
<path d="M21.0359 1.9481
L21.0964 2.0690
" />
<path d="M21.0964 2.0690
L21.0964 2.7343
" />
<path d="M21.0964 2.0690
L21.1568 1.9481
" />
<path d="M21.1568 1.9481
L21.2778 1.8876
" />
<path d="M21.2778 1.8876
L21.4592 1.8876
" />
<path d="M21.4592 1.8876
L21.5802 1.9481
" />
<path d="M21.5802 1.9481
L21.6406 2.0690
" />
<path d="M21.6406 2.0690
L21.6406 2.7343
" />
<path d="M21.9430 2.8552
L22.9106 2.8552
" />
<path d="M23.2130 2.7343
L23.2130 1.4643
" />
<path d="M23.2130 1.4643
L23.6968 1.4643
" />
<path d="M23.6968 1.4643
L23.8178 1.5247
" />
<path d="M23.8178 1.5247
L23.8783 1.5852
" />
<path d="M23.8783 1.5852
L23.9387 1.7062
" />
<path d="M23.9387 1.7062
L23.9387 1.8876
" />
<path d="M23.9387 1.8876
L23.8783 2.0086
" />
<path d="M23.8783 2.0086
L23.8178 2.0690
" />
<path d="M23.8178 2.0690
L23.6968 2.1295
" />
<path d="M23.6968 2.1295
L23.2130 2.1295
" />
<path d="M24.7249 1.4643
L24.8459 1.4643
" />
<path d="M24.8459 1.4643
L24.9668 1.5247
" />
<path d="M24.9668 1.5247
L25.0273 1.5852
" />
<path d="M25.0273 1.5852
L25.0878 1.7062
" />
<path d="M25.0878 1.7062
L25.1483 1.9481
" />
<path d="M25.1483 1.9481
L25.1483 2.2505
" />
<path d="M25.1483 2.2505
L25.0878 2.4924
" />
<path d="M25.0878 2.4924
L25.0273 2.6133
" />
<path d="M25.0273 2.6133
L24.9668 2.6738
" />
<path d="M24.9668 2.6738
L24.8459 2.7343
" />
<path d="M24.8459 2.7343
L24.7249 2.7343
" />
<path d="M24.7249 2.7343
L24.6040 2.6738
" />
<path d="M24.6040 2.6738
L24.5435 2.6133
" />
<path d="M24.5435 2.6133
L24.4830 2.4924
" />
<path d="M24.4830 2.4924
L24.4226 2.2505
" />
<path d="M24.4226 2.2505
L24.4226 1.9481
" />
<path d="M24.4226 1.9481
L24.4830 1.7062
" />
<path d="M24.4830 1.7062
L24.5435 1.5852
" />
<path d="M24.5435 1.5852
L24.6040 1.5247
" />
<path d="M24.6040 1.5247
L24.7249 1.4643
" />
<path d="M25.6926 2.6133
L25.7530 2.6738
" />
<path d="M25.7530 2.6738
L25.6926 2.7343
" />
<path d="M25.6926 2.7343
L25.6321 2.6738
" />
<path d="M25.6321 2.6738
L25.6926 2.6133
" />
<path d="M25.6926 2.6133
L25.6926 2.7343
" />
<path d="M26.8416 1.8876
L26.8416 2.7343
" />
<path d="M26.5392 1.4038
L26.2368 2.3109
" />
<path d="M26.2368 2.3109
L27.0230 2.3109
" />
<path d="M28.1116 1.4643
L27.5068 1.4643
" />
<path d="M27.5068 1.4643
L27.4464 2.0690
" />
<path d="M27.4464 2.0690
L27.5068 2.0086
" />
<path d="M27.5068 2.0086
L27.6278 1.9481
" />
<path d="M27.6278 1.9481
L27.9302 1.9481
" />
<path d="M27.9302 1.9481
L28.0511 2.0086
" />
<path d="M28.0511 2.0086
L28.1116 2.0690
" />
<path d="M28.1116 2.0690
L28.1721 2.1900
" />
<path d="M28.1721 2.1900
L28.1721 2.4924
" />
<path d="M28.1721 2.4924
L28.1116 2.6133
" />
<path d="M28.1116 2.6133
L28.0511 2.6738
" />
<path d="M28.0511 2.6738
L27.9302 2.7343
" />
<path d="M27.9302 2.7343
L27.6278 2.7343
" />
<path d="M27.6278 2.7343
L27.5068 2.6738
" />
<path d="M27.5068 2.6738
L27.4464 2.6133
" />
<path d="M28.7164 2.7343
L28.7164 1.8876
" />
<path d="M28.7164 2.0086
L28.7768 1.9481
" />
<path d="M28.7768 1.9481
L28.8978 1.8876
" />
<path d="M28.8978 1.8876
L29.0792 1.8876
" />
<path d="M29.0792 1.8876
L29.2002 1.9481
" />
<path d="M29.2002 1.9481
L29.2606 2.0690
" />
<path d="M29.2606 2.0690
L29.2606 2.7343
" />
<path d="M29.2606 2.0690
L29.3211 1.9481
" />
<path d="M29.3211 1.9481
L29.4421 1.8876
" />
<path d="M29.4421 1.8876
L29.6235 1.8876
" />
<path d="M29.6235 1.8876
L29.7445 1.9481
" />
<path d="M29.7445 1.9481
L29.8049 2.0690
" />
<path d="M29.8049 2.0690
L29.8049 2.7343
" />
<path d="M30.4097 2.7343
L30.4097 1.8876
" />
<path d="M30.4097 2.0086
L30.4702 1.9481
" />
<path d="M30.4702 1.9481
L30.5911 1.8876
" />
<path d="M30.5911 1.8876
L30.7726 1.8876
" />
<path d="M30.7726 1.8876
L30.8935 1.9481
" />
<path d="M30.8935 1.9481
L30.9540 2.0690
" />
<path d="M30.9540 2.0690
L30.9540 2.7343
" />
<path d="M30.9540 2.0690
L31.0145 1.9481
" />
<path d="M31.0145 1.9481
L31.1354 1.8876
" />
<path d="M31.1354 1.8876
L31.3168 1.8876
" />
<path d="M31.3168 1.8876
L31.4378 1.9481
" />
<path d="M31.4378 1.9481
L31.4983 2.0690
" />
<path d="M31.4983 2.0690
L31.4983 2.7343
" />
<path d="M31.8006 2.8552
L32.7683 2.8552
" />
<path d="M33.0706 2.0690
L33.4940 2.0690
" />
<path d="M33.6754 2.7343
L33.0706 2.7343
" />
<path d="M33.0706 2.7343
L33.0706 1.4643
" />
<path d="M33.0706 1.4643
L33.6754 1.4643
" />
<path d="M34.2197 2.7343
L34.2197 1.4643
" />
<path d="M34.2197 1.4643
L34.7035 1.4643
" />
<path d="M34.7035 1.4643
L34.8245 1.5247
" />
<path d="M34.8245 1.5247
L34.8849 1.5852
" />
<path d="M34.8849 1.5852
L34.9454 1.7062
" />
<path d="M34.9454 1.7062
L34.9454 1.8876
" />
<path d="M34.9454 1.8876
L34.8849 2.0086
" />
<path d="M34.8849 2.0086
L34.8245 2.0690
" />
<path d="M34.8245 2.0690
L34.7035 2.1295
" />
<path d="M34.7035 2.1295
L34.2197 2.1295
" />
<path d="M36.1549 2.7343
L35.4292 2.7343
" />
<path d="M35.7921 2.7343
L35.7921 1.4643
" />
<path d="M35.7921 1.4643
L35.6711 1.6457
" />
<path d="M35.6711 1.6457
L35.5502 1.7667
" />
<path d="M35.5502 1.7667
L35.4292 1.8271
" />
<path d="M36.6992 2.6133
L36.7597 2.6738
" />
<path d="M36.7597 2.6738
L36.6992 2.7343
" />
<path d="M36.6992 2.7343
L36.6387 2.6738
" />
<path d="M36.6387 2.6738
L36.6992 2.6133
" />
<path d="M36.6992 2.6133
L36.6992 2.7343
" />
<path d="M37.9087 1.4643
L37.3040 1.4643
" />
<path d="M37.3040 1.4643
L37.2435 2.0690
" />
<path d="M37.2435 2.0690
L37.3040 2.0086
" />
<path d="M37.3040 2.0086
L37.4249 1.9481
" />
<path d="M37.4249 1.9481
L37.7273 1.9481
" />
<path d="M37.7273 1.9481
L37.8483 2.0086
" />
<path d="M37.8483 2.0086
L37.9087 2.0690
" />
<path d="M37.9087 2.0690
L37.9692 2.1900
" />
<path d="M37.9692 2.1900
L37.9692 2.4924
" />
<path d="M37.9692 2.4924
L37.9087 2.6133
" />
<path d="M37.9087 2.6133
L37.8483 2.6738
" />
<path d="M37.8483 2.6738
L37.7273 2.7343
" />
<path d="M37.7273 2.7343
L37.4249 2.7343
" />
<path d="M37.4249 2.7343
L37.3040 2.6738
" />
<path d="M37.3040 2.6738
L37.2435 2.6133
" />
<path d="M39.1183 1.4643
L38.5135 1.4643
" />
<path d="M38.5135 1.4643
L38.4530 2.0690
" />
<path d="M38.4530 2.0690
L38.5135 2.0086
" />
<path d="M38.5135 2.0086
L38.6345 1.9481
" />
<path d="M38.6345 1.9481
L38.9368 1.9481
" />
<path d="M38.9368 1.9481
L39.0578 2.0086
" />
<path d="M39.0578 2.0086
L39.1183 2.0690
" />
<path d="M39.1183 2.0690
L39.1787 2.1900
" />
<path d="M39.1787 2.1900
L39.1787 2.4924
" />
<path d="M39.1787 2.4924
L39.1183 2.6133
" />
<path d="M39.1183 2.6133
L39.0578 2.6738
" />
<path d="M39.0578 2.6738
L38.9368 2.7343
" />
<path d="M38.9368 2.7343
L38.6345 2.7343
" />
<path d="M38.6345 2.7343
L38.5135 2.6738
" />
<path d="M38.5135 2.6738
L38.4530 2.6133
" />
<path d="M39.6021 2.7343
L40.2673 1.8876
" />
<path d="M39.6021 1.8876
L40.2673 2.7343
" />
<path d="M41.4164 2.7343
L40.6906 2.7343
" />
<path d="M41.0535 2.7343
L41.0535 1.4643
" />
<path d="M41.0535 1.4643
L40.9326 1.6457
" />
<path d="M40.9326 1.6457
L40.8116 1.7667
" />
<path d="M40.8116 1.7667
L40.6906 1.8271
" />
<path d="M41.9606 2.6133
L42.0211 2.6738
" />
<path d="M42.0211 2.6738
L41.9606 2.7343
" />
<path d="M41.9606 2.7343
L41.9002 2.6738
" />
<path d="M41.9002 2.6738
L41.9606 2.6133
" />
<path d="M41.9606 2.6133
L41.9606 2.7343
" />
<path d="M43.1702 1.4643
L42.5654 1.4643
" />
<path d="M42.5654 1.4643
L42.5049 2.0690
" />
<path d="M42.5049 2.0690
L42.5654 2.0086
" />
<path d="M42.5654 2.0086
L42.6864 1.9481
" />
<path d="M42.6864 1.9481
L42.9887 1.9481
" />
<path d="M42.9887 1.9481
L43.1097 2.0086
" />
<path d="M43.1097 2.0086
L43.1702 2.0690
" />
<path d="M43.1702 2.0690
L43.2306 2.1900
" />
<path d="M43.2306 2.1900
L43.2306 2.4924
" />
<path d="M43.2306 2.4924
L43.1702 2.6133
" />
<path d="M43.1702 2.6133
L43.1097 2.6738
" />
<path d="M43.1097 2.6738
L42.9887 2.7343
" />
<path d="M42.9887 2.7343
L42.6864 2.7343
" />
<path d="M42.6864 2.7343
L42.5654 2.6738
" />
<path d="M42.5654 2.6738
L42.5049 2.6133
" />
<path d="M44.3797 1.4643
L43.7749 1.4643
" />
<path d="M43.7749 1.4643
L43.7145 2.0690
" />
<path d="M43.7145 2.0690
L43.7749 2.0086
" />
<path d="M43.7749 2.0086
L43.8959 1.9481
" />
<path d="M43.8959 1.9481
L44.1983 1.9481
" />
<path d="M44.1983 1.9481
L44.3192 2.0086
" />
<path d="M44.3192 2.0086
L44.3797 2.0690
" />
<path d="M44.3797 2.0690
L44.4402 2.1900
" />
<path d="M44.4402 2.1900
L44.4402 2.4924
" />
<path d="M44.4402 2.4924
L44.3797 2.6133
" />
<path d="M44.3797 2.6133
L44.3192 2.6738
" />
<path d="M44.3192 2.6738
L44.1983 2.7343
" />
<path d="M44.1983 2.7343
L43.8959 2.7343
" />
<path d="M43.8959 2.7343
L43.7749 2.6738
" />
<path d="M43.7749 2.6738
L43.7145 2.6133
" />
<path d="M44.9845 2.7343
L44.9845 1.8876
" />
<path d="M44.9845 2.0086
L45.0449 1.9481
" />
<path d="M45.0449 1.9481
L45.1659 1.8876
" />
<path d="M45.1659 1.8876
L45.3473 1.8876
" />
<path d="M45.3473 1.8876
L45.4683 1.9481
" />
<path d="M45.4683 1.9481
L45.5287 2.0690
" />
<path d="M45.5287 2.0690
L45.5287 2.7343
" />
<path d="M45.5287 2.0690
L45.5892 1.9481
" />
<path d="M45.5892 1.9481
L45.7102 1.8876
" />
<path d="M45.7102 1.8876
L45.8916 1.8876
" />
<path d="M45.8916 1.8876
L46.0126 1.9481
" />
<path d="M46.0126 1.9481
L46.0730 2.0690
" />
<path d="M46.0730 2.0690
L46.0730 2.7343
" />
<path d="M46.6778 2.7343
L46.6778 1.8876
" />
<path d="M46.6778 2.0086
L46.7383 1.9481
" />
<path d="M46.7383 1.9481
L46.8592 1.8876
" />
<path d="M46.8592 1.8876
L47.0406 1.8876
" />
<path d="M47.0406 1.8876
L47.1616 1.9481
" />
<path d="M47.1616 1.9481
L47.2221 2.0690
" />
<path d="M47.2221 2.0690
L47.2221 2.7343
" />
<path d="M47.2221 2.0690
L47.2826 1.9481
" />
<path d="M47.2826 1.9481
L47.4035 1.8876
" />
<path d="M47.4035 1.8876
L47.5849 1.8876
" />
<path d="M47.5849 1.8876
L47.7059 1.9481
" />
<path d="M47.7059 1.9481
L47.7664 2.0690
" />
<path d="M47.7664 2.0690
L47.7664 2.7343
" />
</g></g>
<g style="fill:none; 
stroke:#AFAFAF; stroke-width:0.1100; stroke-opacity:1; 
stroke-linecap:round; stroke-linejoin:round;">
<text x="24.0899" y="2.5300"
textLength="3.3943" font-size="1.0000" lengthAdjust="spacingAndGlyphs"
text-anchor="middle" opacity="0">REF**</text>
<g class="stroked-text"><desc>REF**</desc>
<path d="M23.0899 2.4962
L22.8399 2.1391
" />
<path d="M22.6614 2.4962
L22.6614 1.7462
" />
<path d="M22.6614 1.7462
L22.9471 1.7462
" />
<path d="M22.9471 1.7462
L23.0185 1.7820
" />
<path d="M23.0185 1.7820
L23.0542 1.8177
" />
<path d="M23.0542 1.8177
L23.0899 1.8891
" />
<path d="M23.0899 1.8891
L23.0899 1.9962
" />
<path d="M23.0899 1.9962
L23.0542 2.0677
" />
<path d="M23.0542 2.0677
L23.0185 2.1034
" />
<path d="M23.0185 2.1034
L22.9471 2.1391
" />
<path d="M22.9471 2.1391
L22.6614 2.1391
" />
<path d="M23.4114 2.1034
L23.6614 2.1034
" />
<path d="M23.7685 2.4962
L23.4114 2.4962
" />
<path d="M23.4114 2.4962
L23.4114 1.7462
" />
<path d="M23.4114 1.7462
L23.7685 1.7462
" />
<path d="M24.3399 2.1034
L24.0899 2.1034
" />
<path d="M24.0899 2.4962
L24.0899 1.7462
" />
<path d="M24.0899 1.7462
L24.4471 1.7462
" />
<path d="M24.8399 1.7462
L24.8399 1.9248
" />
<path d="M24.6614 1.8534
L24.8399 1.9248
" />
<path d="M24.8399 1.9248
L25.0185 1.8534
" />
<path d="M24.7328 2.0677
L24.8399 1.9248
" />
<path d="M24.8399 1.9248
L24.9471 2.0677
" />
<path d="M25.4114 1.7462
L25.4114 1.9248
" />
<path d="M25.2328 1.8534
L25.4114 1.9248
" />
<path d="M25.4114 1.9248
L25.5899 1.8534
" />
<path d="M25.3042 2.0677
L25.4114 1.9248
" />
<path d="M25.4114 1.9248
L25.5185 2.0677
" />
</g></g>
<g style="fill:none; 
stroke:#AFAFAF; stroke-width:0.1000; stroke-opacity:1; 
stroke-linecap:round; stroke-linejoin:round;">
<path d="M22.5899 1.4050
L23.3399 0.6550
" />
<path d="M22.5899 3.6550
L22.5899 1.4050
" />
<path d="M23.3399 0.6550
L25.5899 0.6550
" />
<path d="M25.5899 0.6550
L25.5899 3.6550
" />
<path d="M25.5899 3.6550
L22.5899 3.6550
" />
</g> 
</svg>
