<?xml version="1.0" standalone="no"?>
 <!DOCTYPE svg PUBLIC "-//W3C//DTD SVG 1.1//EN" 
 "http://www.w3.org/Graphics/SVG/1.1/DTD/svg11.dtd"> 
<svg
  xmlns:svg="http://www.w3.org/2000/svg"
  xmlns="http://www.w3.org/2000/svg"
  xmlns:xlink="http://www.w3.org/1999/xlink"
  version="1.1"
  width="100.4824mm" height="22.6822mm" viewBox="0.0000 0.0000 100.4824 22.6822">
<title>SVG Image created as working-brd.svg date 2024/04/12 16:55:26 </title>
  <desc>Image generated by PCBNEW </desc>
<g style="fill:#000000; fill-opacity:1.0000;stroke:#000000; stroke-opacity:1.0000;
stroke-linecap:round; stroke-linejoin:round;"
 transform="translate(0 0) scale(1 1)">
</g>
<g style="fill:#FFFFFF; fill-opacity:1.0000; stroke:none;">
<circle cx="32.2059" cy="4.2343" r="1.6000" /> 
</g>
<g style="fill:#FFFFFF; fill-opacity:1.0000; stroke:none;">
<circle cx="57.2059" cy="4.2343" r="1.6000" /> 
</g>
<g style="fill:#FFFFFF; fill-opacity:1.0000; stroke:none;">
<circle cx="50.2459" cy="2.8143" r="0.5000" /> 
</g>
<g style="fill:#FFFFFF; fill-opacity:1.0000; stroke:none;">
<circle cx="47.4759" cy="2.8143" r="0.5000" /> 
</g>
<g style="fill:#FFFFFF; fill-opacity:1.0000; stroke:none;">
<circle cx="44.7059" cy="2.8143" r="0.5000" /> 
</g>
<g style="fill:#FFFFFF; fill-opacity:1.0000; stroke:none;">
<circle cx="41.9359" cy="2.8143" r="0.5000" /> 
</g>
<g style="fill:#FFFFFF; fill-opacity:1.0000; stroke:none;">
<circle cx="39.1659" cy="2.8143" r="0.5000" /> 
</g>
<g style="fill:#FFFFFF; fill-opacity:1.0000; stroke:none;">
<circle cx="48.8609" cy="5.6543" r="0.5000" /> 
</g>
<g style="fill:#FFFFFF; fill-opacity:1.0000; stroke:none;">
<circle cx="46.0909" cy="5.6543" r="0.5000" /> 
</g>
<g style="fill:#FFFFFF; fill-opacity:1.0000; stroke:none;">
<circle cx="43.3209" cy="5.6543" r="0.5000" /> 
</g>
<g style="fill:#FFFFFF; fill-opacity:1.0000; stroke:none;">
<circle cx="40.5509" cy="5.6543" r="0.5000" /> 
</g>
<g style="fill:#02FFEE; fill-opacity:0.4000; stroke:none;">
<circle cx="32.2059" cy="4.2343" r="2.0000" /> 
</g>
<g style="fill:#02FFEE; fill-opacity:0.4000; stroke:none;">
<circle cx="57.2059" cy="4.2343" r="2.0000" /> 
<path style="fill:#02FFEE; fill-opacity:0.4000; stroke:none;fill-rule:evenodd;"
d="M 49.4459,3.6143
49.4459,2.0143
51.0459,2.0143
51.0459,3.6143
Z" /> 
</g>
<g style="fill:#02FFEE; fill-opacity:0.4000; stroke:none;">
<circle cx="47.4759" cy="2.8143" r="0.8000" /> 
</g>
<g style="fill:#02FFEE; fill-opacity:0.4000; stroke:none;">
<circle cx="44.7059" cy="2.8143" r="0.8000" /> 
</g>
<g style="fill:#02FFEE; fill-opacity:0.4000; stroke:none;">
<circle cx="41.9359" cy="2.8143" r="0.8000" /> 
</g>
<g style="fill:#02FFEE; fill-opacity:0.4000; stroke:none;">
<circle cx="39.1659" cy="2.8143" r="0.8000" /> 
</g>
<g style="fill:#02FFEE; fill-opacity:0.4000; stroke:none;">
<circle cx="48.8609" cy="5.6543" r="0.8000" /> 
</g>
<g style="fill:#02FFEE; fill-opacity:0.4000; stroke:none;">
<circle cx="46.0909" cy="5.6543" r="0.8000" /> 
</g>
<g style="fill:#02FFEE; fill-opacity:0.4000; stroke:none;">
<circle cx="43.3209" cy="5.6543" r="0.8000" /> 
</g>
<g style="fill:#02FFEE; fill-opacity:0.4000; stroke:none;">
<circle cx="40.5509" cy="5.6543" r="0.8000" /> 
</g>
<g style="fill:#FFFFFF; fill-opacity:1.0000; stroke:none;">
<circle cx="32.2059" cy="4.2343" r="1.6000" /> 
</g>
<g style="fill:#FFFFFF; fill-opacity:1.0000; stroke:none;">
<circle cx="57.2059" cy="4.2343" r="1.6000" /> 
</g>
<g style="fill:#FFFFFF; fill-opacity:1.0000; stroke:none;">
<circle cx="50.2459" cy="2.8143" r="0.5000" /> 
</g>
<g style="fill:#FFFFFF; fill-opacity:1.0000; stroke:none;">
<circle cx="47.4759" cy="2.8143" r="0.5000" /> 
</g>
<g style="fill:#FFFFFF; fill-opacity:1.0000; stroke:none;">
<circle cx="44.7059" cy="2.8143" r="0.5000" /> 
</g>
<g style="fill:#FFFFFF; fill-opacity:1.0000; stroke:none;">
<circle cx="41.9359" cy="2.8143" r="0.5000" /> 
</g>
<g style="fill:#FFFFFF; fill-opacity:1.0000; stroke:none;">
<circle cx="39.1659" cy="2.8143" r="0.5000" /> 
</g>
<g style="fill:#FFFFFF; fill-opacity:1.0000; stroke:none;">
<circle cx="48.8609" cy="5.6543" r="0.5000" /> 
</g>
<g style="fill:#FFFFFF; fill-opacity:1.0000; stroke:none;">
<circle cx="46.0909" cy="5.6543" r="0.5000" /> 
</g>
<g style="fill:#FFFFFF; fill-opacity:1.0000; stroke:none;">
<circle cx="43.3209" cy="5.6543" r="0.5000" /> 
</g>
<g style="fill:#FFFFFF; fill-opacity:1.0000; stroke:none;">
<circle cx="40.5509" cy="5.6543" r="0.5000" /> 
</g>
<g style="fill:#FFFFFF; fill-opacity:1.0000; stroke:none;">
<circle cx="32.2059" cy="4.2343" r="1.6000" /> 
</g>
<g style="fill:#FFFFFF; fill-opacity:1.0000; stroke:none;">
<circle cx="57.2059" cy="4.2343" r="1.6000" /> 
</g>
<g style="fill:#FFFFFF; fill-opacity:1.0000; stroke:none;">
<circle cx="50.2459" cy="2.8143" r="0.5000" /> 
</g>
<g style="fill:#FFFFFF; fill-opacity:1.0000; stroke:none;">
<circle cx="47.4759" cy="2.8143" r="0.5000" /> 
</g>
<g style="fill:#FFFFFF; fill-opacity:1.0000; stroke:none;">
<circle cx="44.7059" cy="2.8143" r="0.5000" /> 
</g>
<g style="fill:#FFFFFF; fill-opacity:1.0000; stroke:none;">
<circle cx="41.9359" cy="2.8143" r="0.5000" /> 
</g>
<g style="fill:#FFFFFF; fill-opacity:1.0000; stroke:none;">
<circle cx="39.1659" cy="2.8143" r="0.5000" /> 
</g>
<g style="fill:#FFFFFF; fill-opacity:1.0000; stroke:none;">
<circle cx="48.8609" cy="5.6543" r="0.5000" /> 
</g>
<g style="fill:#FFFFFF; fill-opacity:1.0000; stroke:none;">
<circle cx="46.0909" cy="5.6543" r="0.5000" /> 
</g>
<g style="fill:#FFFFFF; fill-opacity:1.0000; stroke:none;">
<circle cx="43.3209" cy="5.6543" r="0.5000" /> 
</g>
<g style="fill:#FFFFFF; fill-opacity:1.0000; stroke:none;">
<circle cx="40.5509" cy="5.6543" r="0.5000" /> 
</g>
<g style="fill:#D864FF; fill-opacity:0.4000; stroke:none;">
<circle cx="32.2059" cy="4.2343" r="2.0000" /> 
</g>
<g style="fill:#D864FF; fill-opacity:0.4000; stroke:none;">
<circle cx="57.2059" cy="4.2343" r="2.0000" /> 
<path style="fill:#D864FF; fill-opacity:0.4000; stroke:none;fill-rule:evenodd;"
d="M 49.4459,3.6143
49.4459,2.0143
51.0459,2.0143
51.0459,3.6143
Z" /> 
</g>
<g style="fill:#D864FF; fill-opacity:0.4000; stroke:none;">
<circle cx="47.4759" cy="2.8143" r="0.8000" /> 
</g>
<g style="fill:#D864FF; fill-opacity:0.4000; stroke:none;">
<circle cx="44.7059" cy="2.8143" r="0.8000" /> 
</g>
<g style="fill:#D864FF; fill-opacity:0.4000; stroke:none;">
<circle cx="41.9359" cy="2.8143" r="0.8000" /> 
</g>
<g style="fill:#D864FF; fill-opacity:0.4000; stroke:none;">
<circle cx="39.1659" cy="2.8143" r="0.8000" /> 
</g>
<g style="fill:#D864FF; fill-opacity:0.4000; stroke:none;">
<circle cx="48.8609" cy="5.6543" r="0.8000" /> 
</g>
<g style="fill:#D864FF; fill-opacity:0.4000; stroke:none;">
<circle cx="46.0909" cy="5.6543" r="0.8000" /> 
</g>
<g style="fill:#D864FF; fill-opacity:0.4000; stroke:none;">
<circle cx="43.3209" cy="5.6543" r="0.8000" /> 
</g>
<g style="fill:#D864FF; fill-opacity:0.4000; stroke:none;">
<circle cx="40.5509" cy="5.6543" r="0.8000" /> 
</g>
<g style="fill:none; 
stroke:#F2EDA1; stroke-width:0.1588; stroke-opacity:1; 
stroke-linecap:round; stroke-linejoin:round;">
<text x="50.2459" y="3.4493"
textLength="5.6651" font-size="1.6933" lengthAdjust="spacingAndGlyphs"
text-anchor="middle" opacity="0">REF**</text>
<g class="stroked-text"><desc>REF**</desc>
<path d="M48.5526 3.3936
L48.1292 2.7888
" />
<path d="M47.8268 3.3936
L47.8268 2.1236
" />
<path d="M47.8268 2.1236
L48.3106 2.1236
" />
<path d="M48.3106 2.1236
L48.4316 2.1841
" />
<path d="M48.4316 2.1841
L48.4921 2.2446
" />
<path d="M48.4921 2.2446
L48.5526 2.3655
" />
<path d="M48.5526 2.3655
L48.5526 2.5469
" />
<path d="M48.5526 2.5469
L48.4921 2.6679
" />
<path d="M48.4921 2.6679
L48.4316 2.7284
" />
<path d="M48.4316 2.7284
L48.3106 2.7888
" />
<path d="M48.3106 2.7888
L47.8268 2.7888
" />
<path d="M49.0968 2.7284
L49.5202 2.7284
" />
<path d="M49.7016 3.3936
L49.0968 3.3936
" />
<path d="M49.0968 3.3936
L49.0968 2.1236
" />
<path d="M49.0968 2.1236
L49.7016 2.1236
" />
<path d="M50.6692 2.7284
L50.2459 2.7284
" />
<path d="M50.2459 3.3936
L50.2459 2.1236
" />
<path d="M50.2459 2.1236
L50.8506 2.1236
" />
<path d="M51.5159 2.1236
L51.5159 2.4260
" />
<path d="M51.2135 2.3050
L51.5159 2.4260
" />
<path d="M51.5159 2.4260
L51.8183 2.3050
" />
<path d="M51.3345 2.6679
L51.5159 2.4260
" />
<path d="M51.5159 2.4260
L51.6973 2.6679
" />
<path d="M52.4835 2.1236
L52.4835 2.4260
" />
<path d="M52.1811 2.3050
L52.4835 2.4260
" />
<path d="M52.4835 2.4260
L52.7859 2.3050
" />
<path d="M52.3021 2.6679
L52.4835 2.4260
" />
<path d="M52.4835 2.4260
L52.6649 2.6679
" />
</g></g>
<g style="fill:none; 
stroke:#F2EDA1; stroke-width:0.1200; stroke-opacity:1; 
stroke-linecap:round; stroke-linejoin:round;">
<path d="M29.2209 0.9543
L60.1909 0.9543
" />
<path d="M29.2209 15.4943
L29.2209 0.9543
" />
<path d="M49.9959 0.0600
L50.4959 0.0600
" />
<path d="M50.2459 0.4930
L49.9959 0.0600
" />
<path d="M50.4959 0.0600
L50.2459 0.4930
" />
<path d="M60.1909 0.9543
L60.1909 15.4943
" />
</g>
<g style="fill:#FFFFFF; fill-opacity:1.0000; stroke:none;">
<circle cx="32.2059" cy="4.2343" r="1.6000" /> 
</g>
<g style="fill:#FFFFFF; fill-opacity:1.0000; stroke:none;">
<circle cx="57.2059" cy="4.2343" r="1.6000" /> 
</g>
<g style="fill:#FFFFFF; fill-opacity:1.0000; stroke:none;">
<circle cx="50.2459" cy="2.8143" r="0.5000" /> 
</g>
<g style="fill:#FFFFFF; fill-opacity:1.0000; stroke:none;">
<circle cx="47.4759" cy="2.8143" r="0.5000" /> 
</g>
<g style="fill:#FFFFFF; fill-opacity:1.0000; stroke:none;">
<circle cx="44.7059" cy="2.8143" r="0.5000" /> 
</g>
<g style="fill:#FFFFFF; fill-opacity:1.0000; stroke:none;">
<circle cx="41.9359" cy="2.8143" r="0.5000" /> 
</g>
<g style="fill:#FFFFFF; fill-opacity:1.0000; stroke:none;">
<circle cx="39.1659" cy="2.8143" r="0.5000" /> 
</g>
<g style="fill:#FFFFFF; fill-opacity:1.0000; stroke:none;">
<circle cx="48.8609" cy="5.6543" r="0.5000" /> 
</g>
<g style="fill:#FFFFFF; fill-opacity:1.0000; stroke:none;">
<circle cx="46.0909" cy="5.6543" r="0.5000" /> 
</g>
<g style="fill:#FFFFFF; fill-opacity:1.0000; stroke:none;">
<circle cx="43.3209" cy="5.6543" r="0.5000" /> 
</g>
<g style="fill:#FFFFFF; fill-opacity:1.0000; stroke:none;">
<circle cx="40.5509" cy="5.6543" r="0.5000" /> 
</g>
<g style="fill:none; 
stroke:#FF26E2; stroke-width:0.0500; stroke-opacity:1; 
stroke-linecap:round; stroke-linejoin:round;">
<path d="M28.7459 0.4643
L28.7459 22.6643
" />
<path d="M28.7459 22.6643
L60.6459 22.6643
" />
<path d="M60.6459 0.4643
L28.7459 0.4643
" />
<path d="M60.6459 22.6643
L60.6459 0.4643
" />
</g>
<g style="fill:none; 
stroke:#AFAFAF; stroke-width:0.1588; stroke-opacity:1; 
stroke-linecap:round; stroke-linejoin:round;">
<text x="50.2459" y="3.4493"
textLength="100.4918" font-size="1.6933" lengthAdjust="spacingAndGlyphs"
text-anchor="middle" opacity="0">DSUB-9_Female_Horizontal_P2.77x2.84mm_EdgePinOffset9.90mm_Housed_MountingHolesOffset11.32mm</text>
<g class="stroked-text"><desc>DSUB-9_Female_Horizontal_P2.77x2.84mm_EdgePinOffset9.90mm_Housed_MountingHolesOffset11.32mm</desc>
<path d="M0.4135 3.3936
L0.4135 2.1236
" />
<path d="M0.4135 2.1236
L0.7159 2.1236
" />
<path d="M0.7159 2.1236
L0.8973 2.1841
" />
<path d="M0.8973 2.1841
L1.0183 2.3050
" />
<path d="M1.0183 2.3050
L1.0787 2.4260
" />
<path d="M1.0787 2.4260
L1.1392 2.6679
" />
<path d="M1.1392 2.6679
L1.1392 2.8493
" />
<path d="M1.1392 2.8493
L1.0787 3.0912
" />
<path d="M1.0787 3.0912
L1.0183 3.2122
" />
<path d="M1.0183 3.2122
L0.8973 3.3331
" />
<path d="M0.8973 3.3331
L0.7159 3.3936
" />
<path d="M0.7159 3.3936
L0.4135 3.3936
" />
<path d="M1.6230 3.3331
L1.8045 3.3936
" />
<path d="M1.8045 3.3936
L2.1068 3.3936
" />
<path d="M2.1068 3.3936
L2.2278 3.3331
" />
<path d="M2.2278 3.3331
L2.2883 3.2727
" />
<path d="M2.2883 3.2727
L2.3487 3.1517
" />
<path d="M2.3487 3.1517
L2.3487 3.0308
" />
<path d="M2.3487 3.0308
L2.2883 2.9098
" />
<path d="M2.2883 2.9098
L2.2278 2.8493
" />
<path d="M2.2278 2.8493
L2.1068 2.7888
" />
<path d="M2.1068 2.7888
L1.8649 2.7284
" />
<path d="M1.8649 2.7284
L1.7440 2.6679
" />
<path d="M1.7440 2.6679
L1.6835 2.6074
" />
<path d="M1.6835 2.6074
L1.6230 2.4865
" />
<path d="M1.6230 2.4865
L1.6230 2.3655
" />
<path d="M1.6230 2.3655
L1.6835 2.2446
" />
<path d="M1.6835 2.2446
L1.7440 2.1841
" />
<path d="M1.7440 2.1841
L1.8649 2.1236
" />
<path d="M1.8649 2.1236
L2.1673 2.1236
" />
<path d="M2.1673 2.1236
L2.3487 2.1841
" />
<path d="M2.8930 2.1236
L2.8930 3.1517
" />
<path d="M2.8930 3.1517
L2.9535 3.2727
" />
<path d="M2.9535 3.2727
L3.0140 3.3331
" />
<path d="M3.0140 3.3331
L3.1349 3.3936
" />
<path d="M3.1349 3.3936
L3.3768 3.3936
" />
<path d="M3.3768 3.3936
L3.4978 3.3331
" />
<path d="M3.4978 3.3331
L3.5583 3.2727
" />
<path d="M3.5583 3.2727
L3.6187 3.1517
" />
<path d="M3.6187 3.1517
L3.6187 2.1236
" />
<path d="M4.6468 2.7284
L4.8283 2.7888
" />
<path d="M4.8283 2.7888
L4.8887 2.8493
" />
<path d="M4.8887 2.8493
L4.9492 2.9703
" />
<path d="M4.9492 2.9703
L4.9492 3.1517
" />
<path d="M4.9492 3.1517
L4.8887 3.2727
" />
<path d="M4.8887 3.2727
L4.8283 3.3331
" />
<path d="M4.8283 3.3331
L4.7073 3.3936
" />
<path d="M4.7073 3.3936
L4.2235 3.3936
" />
<path d="M4.2235 3.3936
L4.2235 2.1236
" />
<path d="M4.2235 2.1236
L4.6468 2.1236
" />
<path d="M4.6468 2.1236
L4.7678 2.1841
" />
<path d="M4.7678 2.1841
L4.8283 2.2446
" />
<path d="M4.8283 2.2446
L4.8887 2.3655
" />
<path d="M4.8887 2.3655
L4.8887 2.4865
" />
<path d="M4.8887 2.4865
L4.8283 2.6074
" />
<path d="M4.8283 2.6074
L4.7678 2.6679
" />
<path d="M4.7678 2.6679
L4.6468 2.7284
" />
<path d="M4.6468 2.7284
L4.2235 2.7284
" />
<path d="M5.4935 2.9098
L6.4611 2.9098
" />
<path d="M7.1264 3.3936
L7.3683 3.3936
" />
<path d="M7.3683 3.3936
L7.4892 3.3331
" />
<path d="M7.4892 3.3331
L7.5497 3.2727
" />
<path d="M7.5497 3.2727
L7.6706 3.0912
" />
<path d="M7.6706 3.0912
L7.7311 2.8493
" />
<path d="M7.7311 2.8493
L7.7311 2.3655
" />
<path d="M7.7311 2.3655
L7.6706 2.2446
" />
<path d="M7.6706 2.2446
L7.6102 2.1841
" />
<path d="M7.6102 2.1841
L7.4892 2.1236
" />
<path d="M7.4892 2.1236
L7.2473 2.1236
" />
<path d="M7.2473 2.1236
L7.1264 2.1841
" />
<path d="M7.1264 2.1841
L7.0659 2.2446
" />
<path d="M7.0659 2.2446
L7.0054 2.3655
" />
<path d="M7.0054 2.3655
L7.0054 2.6679
" />
<path d="M7.0054 2.6679
L7.0659 2.7888
" />
<path d="M7.0659 2.7888
L7.1264 2.8493
" />
<path d="M7.1264 2.8493
L7.2473 2.9098
" />
<path d="M7.2473 2.9098
L7.4892 2.9098
" />
<path d="M7.4892 2.9098
L7.6102 2.8493
" />
<path d="M7.6102 2.8493
L7.6706 2.7888
" />
<path d="M7.6706 2.7888
L7.7311 2.6679
" />
<path d="M7.9730 3.5146
L8.9406 3.5146
" />
<path d="M9.6664 2.7284
L9.2430 2.7284
" />
<path d="M9.2430 3.3936
L9.2430 2.1236
" />
<path d="M9.2430 2.1236
L9.8478 2.1236
" />
<path d="M10.8154 3.3331
L10.6945 3.3936
" />
<path d="M10.6945 3.3936
L10.4526 3.3936
" />
<path d="M10.4526 3.3936
L10.3316 3.3331
" />
<path d="M10.3316 3.3331
L10.2711 3.2122
" />
<path d="M10.2711 3.2122
L10.2711 2.7284
" />
<path d="M10.2711 2.7284
L10.3316 2.6074
" />
<path d="M10.3316 2.6074
L10.4526 2.5469
" />
<path d="M10.4526 2.5469
L10.6945 2.5469
" />
<path d="M10.6945 2.5469
L10.8154 2.6074
" />
<path d="M10.8154 2.6074
L10.8759 2.7284
" />
<path d="M10.8759 2.7284
L10.8759 2.8493
" />
<path d="M10.8759 2.8493
L10.2711 2.9703
" />
<path d="M11.4202 3.3936
L11.4202 2.5469
" />
<path d="M11.4202 2.6679
L11.4806 2.6074
" />
<path d="M11.4806 2.6074
L11.6016 2.5469
" />
<path d="M11.6016 2.5469
L11.7830 2.5469
" />
<path d="M11.7830 2.5469
L11.9040 2.6074
" />
<path d="M11.9040 2.6074
L11.9645 2.7284
" />
<path d="M11.9645 2.7284
L11.9645 3.3936
" />
<path d="M11.9645 2.7284
L12.0249 2.6074
" />
<path d="M12.0249 2.6074
L12.1459 2.5469
" />
<path d="M12.1459 2.5469
L12.3273 2.5469
" />
<path d="M12.3273 2.5469
L12.4483 2.6074
" />
<path d="M12.4483 2.6074
L12.5087 2.7284
" />
<path d="M12.5087 2.7284
L12.5087 3.3936
" />
<path d="M13.6578 3.3936
L13.6578 2.7284
" />
<path d="M13.6578 2.7284
L13.5973 2.6074
" />
<path d="M13.5973 2.6074
L13.4764 2.5469
" />
<path d="M13.4764 2.5469
L13.2345 2.5469
" />
<path d="M13.2345 2.5469
L13.1135 2.6074
" />
<path d="M13.6578 3.3331
L13.5368 3.3936
" />
<path d="M13.5368 3.3936
L13.2345 3.3936
" />
<path d="M13.2345 3.3936
L13.1135 3.3331
" />
<path d="M13.1135 3.3331
L13.0530 3.2122
" />
<path d="M13.0530 3.2122
L13.0530 3.0912
" />
<path d="M13.0530 3.0912
L13.1135 2.9703
" />
<path d="M13.1135 2.9703
L13.2345 2.9098
" />
<path d="M13.2345 2.9098
L13.5368 2.9098
" />
<path d="M13.5368 2.9098
L13.6578 2.8493
" />
<path d="M14.4440 3.3936
L14.3230 3.3331
" />
<path d="M14.3230 3.3331
L14.2626 3.2122
" />
<path d="M14.2626 3.2122
L14.2626 2.1236
" />
<path d="M15.4116 3.3331
L15.2906 3.3936
" />
<path d="M15.2906 3.3936
L15.0487 3.3936
" />
<path d="M15.0487 3.3936
L14.9278 3.3331
" />
<path d="M14.9278 3.3331
L14.8673 3.2122
" />
<path d="M14.8673 3.2122
L14.8673 2.7284
" />
<path d="M14.8673 2.7284
L14.9278 2.6074
" />
<path d="M14.9278 2.6074
L15.0487 2.5469
" />
<path d="M15.0487 2.5469
L15.2906 2.5469
" />
<path d="M15.2906 2.5469
L15.4116 2.6074
" />
<path d="M15.4116 2.6074
L15.4721 2.7284
" />
<path d="M15.4721 2.7284
L15.4721 2.8493
" />
<path d="M15.4721 2.8493
L14.8673 2.9703
" />
<path d="M15.7140 3.5146
L16.6816 3.5146
" />
<path d="M16.9840 3.3936
L16.9840 2.1236
" />
<path d="M16.9840 2.7284
L17.7097 2.7284
" />
<path d="M17.7097 3.3936
L17.7097 2.1236
" />
<path d="M18.4959 3.3936
L18.3749 3.3331
" />
<path d="M18.3749 3.3331
L18.3145 3.2727
" />
<path d="M18.3145 3.2727
L18.2540 3.1517
" />
<path d="M18.2540 3.1517
L18.2540 2.7888
" />
<path d="M18.2540 2.7888
L18.3145 2.6679
" />
<path d="M18.3145 2.6679
L18.3749 2.6074
" />
<path d="M18.3749 2.6074
L18.4959 2.5469
" />
<path d="M18.4959 2.5469
L18.6773 2.5469
" />
<path d="M18.6773 2.5469
L18.7983 2.6074
" />
<path d="M18.7983 2.6074
L18.8587 2.6679
" />
<path d="M18.8587 2.6679
L18.9192 2.7888
" />
<path d="M18.9192 2.7888
L18.9192 3.1517
" />
<path d="M18.9192 3.1517
L18.8587 3.2727
" />
<path d="M18.8587 3.2727
L18.7983 3.3331
" />
<path d="M18.7983 3.3331
L18.6773 3.3936
" />
<path d="M18.6773 3.3936
L18.4959 3.3936
" />
<path d="M19.4635 3.3936
L19.4635 2.5469
" />
<path d="M19.4635 2.7888
L19.5240 2.6679
" />
<path d="M19.5240 2.6679
L19.5845 2.6074
" />
<path d="M19.5845 2.6074
L19.7054 2.5469
" />
<path d="M19.7054 2.5469
L19.8264 2.5469
" />
<path d="M20.2497 3.3936
L20.2497 2.5469
" />
<path d="M20.2497 2.1236
L20.1892 2.1841
" />
<path d="M20.1892 2.1841
L20.2497 2.2446
" />
<path d="M20.2497 2.2446
L20.3102 2.1841
" />
<path d="M20.3102 2.1841
L20.2497 2.1236
" />
<path d="M20.2497 2.1236
L20.2497 2.2446
" />
<path d="M20.7335 2.5469
L21.3987 2.5469
" />
<path d="M21.3987 2.5469
L20.7335 3.3936
" />
<path d="M20.7335 3.3936
L21.3987 3.3936
" />
<path d="M22.0640 3.3936
L21.9430 3.3331
" />
<path d="M21.9430 3.3331
L21.8826 3.2727
" />
<path d="M21.8826 3.2727
L21.8221 3.1517
" />
<path d="M21.8221 3.1517
L21.8221 2.7888
" />
<path d="M21.8221 2.7888
L21.8826 2.6679
" />
<path d="M21.8826 2.6679
L21.9430 2.6074
" />
<path d="M21.9430 2.6074
L22.0640 2.5469
" />
<path d="M22.0640 2.5469
L22.2454 2.5469
" />
<path d="M22.2454 2.5469
L22.3664 2.6074
" />
<path d="M22.3664 2.6074
L22.4268 2.6679
" />
<path d="M22.4268 2.6679
L22.4873 2.7888
" />
<path d="M22.4873 2.7888
L22.4873 3.1517
" />
<path d="M22.4873 3.1517
L22.4268 3.2727
" />
<path d="M22.4268 3.2727
L22.3664 3.3331
" />
<path d="M22.3664 3.3331
L22.2454 3.3936
" />
<path d="M22.2454 3.3936
L22.0640 3.3936
" />
<path d="M23.0316 2.5469
L23.0316 3.3936
" />
<path d="M23.0316 2.6679
L23.0921 2.6074
" />
<path d="M23.0921 2.6074
L23.2130 2.5469
" />
<path d="M23.2130 2.5469
L23.3945 2.5469
" />
<path d="M23.3945 2.5469
L23.5154 2.6074
" />
<path d="M23.5154 2.6074
L23.5759 2.7284
" />
<path d="M23.5759 2.7284
L23.5759 3.3936
" />
<path d="M23.9992 2.5469
L24.4830 2.5469
" />
<path d="M24.1806 2.1236
L24.1806 3.2122
" />
<path d="M24.1806 3.2122
L24.2411 3.3331
" />
<path d="M24.2411 3.3331
L24.3621 3.3936
" />
<path d="M24.3621 3.3936
L24.4830 3.3936
" />
<path d="M25.4506 3.3936
L25.4506 2.7284
" />
<path d="M25.4506 2.7284
L25.3902 2.6074
" />
<path d="M25.3902 2.6074
L25.2692 2.5469
" />
<path d="M25.2692 2.5469
L25.0273 2.5469
" />
<path d="M25.0273 2.5469
L24.9064 2.6074
" />
<path d="M25.4506 3.3331
L25.3297 3.3936
" />
<path d="M25.3297 3.3936
L25.0273 3.3936
" />
<path d="M25.0273 3.3936
L24.9064 3.3331
" />
<path d="M24.9064 3.3331
L24.8459 3.2122
" />
<path d="M24.8459 3.2122
L24.8459 3.0912
" />
<path d="M24.8459 3.0912
L24.9064 2.9703
" />
<path d="M24.9064 2.9703
L25.0273 2.9098
" />
<path d="M25.0273 2.9098
L25.3297 2.9098
" />
<path d="M25.3297 2.9098
L25.4506 2.8493
" />
<path d="M26.2368 3.3936
L26.1159 3.3331
" />
<path d="M26.1159 3.3331
L26.0554 3.2122
" />
<path d="M26.0554 3.2122
L26.0554 2.1236
" />
<path d="M26.4183 3.5146
L27.3859 3.5146
" />
<path d="M27.6883 3.3936
L27.6883 2.1236
" />
<path d="M27.6883 2.1236
L28.1721 2.1236
" />
<path d="M28.1721 2.1236
L28.2930 2.1841
" />
<path d="M28.2930 2.1841
L28.3535 2.2446
" />
<path d="M28.3535 2.2446
L28.4140 2.3655
" />
<path d="M28.4140 2.3655
L28.4140 2.5469
" />
<path d="M28.4140 2.5469
L28.3535 2.6679
" />
<path d="M28.3535 2.6679
L28.2930 2.7284
" />
<path d="M28.2930 2.7284
L28.1721 2.7888
" />
<path d="M28.1721 2.7888
L27.6883 2.7888
" />
<path d="M28.8978 2.2446
L28.9583 2.1841
" />
<path d="M28.9583 2.1841
L29.0792 2.1236
" />
<path d="M29.0792 2.1236
L29.3816 2.1236
" />
<path d="M29.3816 2.1236
L29.5026 2.1841
" />
<path d="M29.5026 2.1841
L29.5630 2.2446
" />
<path d="M29.5630 2.2446
L29.6235 2.3655
" />
<path d="M29.6235 2.3655
L29.6235 2.4865
" />
<path d="M29.6235 2.4865
L29.5630 2.6679
" />
<path d="M29.5630 2.6679
L28.8373 3.3936
" />
<path d="M28.8373 3.3936
L29.6235 3.3936
" />
<path d="M30.1678 3.2727
L30.2283 3.3331
" />
<path d="M30.2283 3.3331
L30.1678 3.3936
" />
<path d="M30.1678 3.3936
L30.1073 3.3331
" />
<path d="M30.1073 3.3331
L30.1678 3.2727
" />
<path d="M30.1678 3.2727
L30.1678 3.3936
" />
<path d="M30.6516 2.1236
L31.4983 2.1236
" />
<path d="M31.4983 2.1236
L30.9540 3.3936
" />
<path d="M31.8611 2.1236
L32.7078 2.1236
" />
<path d="M32.7078 2.1236
L32.1635 3.3936
" />
<path d="M33.0706 3.3936
L33.7359 2.5469
" />
<path d="M33.0706 2.5469
L33.7359 3.3936
" />
<path d="M34.1592 2.2446
L34.2197 2.1841
" />
<path d="M34.2197 2.1841
L34.3406 2.1236
" />
<path d="M34.3406 2.1236
L34.6430 2.1236
" />
<path d="M34.6430 2.1236
L34.7640 2.1841
" />
<path d="M34.7640 2.1841
L34.8245 2.2446
" />
<path d="M34.8245 2.2446
L34.8849 2.3655
" />
<path d="M34.8849 2.3655
L34.8849 2.4865
" />
<path d="M34.8849 2.4865
L34.8245 2.6679
" />
<path d="M34.8245 2.6679
L34.0987 3.3936
" />
<path d="M34.0987 3.3936
L34.8849 3.3936
" />
<path d="M35.4292 3.2727
L35.4897 3.3331
" />
<path d="M35.4897 3.3331
L35.4292 3.3936
" />
<path d="M35.4292 3.3936
L35.3687 3.3331
" />
<path d="M35.3687 3.3331
L35.4292 3.2727
" />
<path d="M35.4292 3.2727
L35.4292 3.3936
" />
<path d="M36.2154 2.6679
L36.0945 2.6074
" />
<path d="M36.0945 2.6074
L36.0340 2.5469
" />
<path d="M36.0340 2.5469
L35.9735 2.4260
" />
<path d="M35.9735 2.4260
L35.9735 2.3655
" />
<path d="M35.9735 2.3655
L36.0340 2.2446
" />
<path d="M36.0340 2.2446
L36.0945 2.1841
" />
<path d="M36.0945 2.1841
L36.2154 2.1236
" />
<path d="M36.2154 2.1236
L36.4573 2.1236
" />
<path d="M36.4573 2.1236
L36.5783 2.1841
" />
<path d="M36.5783 2.1841
L36.6387 2.2446
" />
<path d="M36.6387 2.2446
L36.6992 2.3655
" />
<path d="M36.6992 2.3655
L36.6992 2.4260
" />
<path d="M36.6992 2.4260
L36.6387 2.5469
" />
<path d="M36.6387 2.5469
L36.5783 2.6074
" />
<path d="M36.5783 2.6074
L36.4573 2.6679
" />
<path d="M36.4573 2.6679
L36.2154 2.6679
" />
<path d="M36.2154 2.6679
L36.0945 2.7284
" />
<path d="M36.0945 2.7284
L36.0340 2.7888
" />
<path d="M36.0340 2.7888
L35.9735 2.9098
" />
<path d="M35.9735 2.9098
L35.9735 3.1517
" />
<path d="M35.9735 3.1517
L36.0340 3.2727
" />
<path d="M36.0340 3.2727
L36.0945 3.3331
" />
<path d="M36.0945 3.3331
L36.2154 3.3936
" />
<path d="M36.2154 3.3936
L36.4573 3.3936
" />
<path d="M36.4573 3.3936
L36.5783 3.3331
" />
<path d="M36.5783 3.3331
L36.6387 3.2727
" />
<path d="M36.6387 3.2727
L36.6992 3.1517
" />
<path d="M36.6992 3.1517
L36.6992 2.9098
" />
<path d="M36.6992 2.9098
L36.6387 2.7888
" />
<path d="M36.6387 2.7888
L36.5783 2.7284
" />
<path d="M36.5783 2.7284
L36.4573 2.6679
" />
<path d="M37.7878 2.5469
L37.7878 3.3936
" />
<path d="M37.4854 2.0631
L37.1830 2.9703
" />
<path d="M37.1830 2.9703
L37.9692 2.9703
" />
<path d="M38.4530 3.3936
L38.4530 2.5469
" />
<path d="M38.4530 2.6679
L38.5135 2.6074
" />
<path d="M38.5135 2.6074
L38.6345 2.5469
" />
<path d="M38.6345 2.5469
L38.8159 2.5469
" />
<path d="M38.8159 2.5469
L38.9368 2.6074
" />
<path d="M38.9368 2.6074
L38.9973 2.7284
" />
<path d="M38.9973 2.7284
L38.9973 3.3936
" />
<path d="M38.9973 2.7284
L39.0578 2.6074
" />
<path d="M39.0578 2.6074
L39.1787 2.5469
" />
<path d="M39.1787 2.5469
L39.3602 2.5469
" />
<path d="M39.3602 2.5469
L39.4811 2.6074
" />
<path d="M39.4811 2.6074
L39.5416 2.7284
" />
<path d="M39.5416 2.7284
L39.5416 3.3936
" />
<path d="M40.1464 3.3936
L40.1464 2.5469
" />
<path d="M40.1464 2.6679
L40.2068 2.6074
" />
<path d="M40.2068 2.6074
L40.3278 2.5469
" />
<path d="M40.3278 2.5469
L40.5092 2.5469
" />
<path d="M40.5092 2.5469
L40.6302 2.6074
" />
<path d="M40.6302 2.6074
L40.6906 2.7284
" />
<path d="M40.6906 2.7284
L40.6906 3.3936
" />
<path d="M40.6906 2.7284
L40.7511 2.6074
" />
<path d="M40.7511 2.6074
L40.8721 2.5469
" />
<path d="M40.8721 2.5469
L41.0535 2.5469
" />
<path d="M41.0535 2.5469
L41.1745 2.6074
" />
<path d="M41.1745 2.6074
L41.2349 2.7284
" />
<path d="M41.2349 2.7284
L41.2349 3.3936
" />
<path d="M41.5373 3.5146
L42.5049 3.5146
" />
<path d="M42.8073 2.7284
L43.2306 2.7284
" />
<path d="M43.4121 3.3936
L42.8073 3.3936
" />
<path d="M42.8073 3.3936
L42.8073 2.1236
" />
<path d="M42.8073 2.1236
L43.4121 2.1236
" />
<path d="M44.5006 3.3936
L44.5006 2.1236
" />
<path d="M44.5006 3.3331
L44.3797 3.3936
" />
<path d="M44.3797 3.3936
L44.1378 3.3936
" />
<path d="M44.1378 3.3936
L44.0168 3.3331
" />
<path d="M44.0168 3.3331
L43.9564 3.2727
" />
<path d="M43.9564 3.2727
L43.8959 3.1517
" />
<path d="M43.8959 3.1517
L43.8959 2.7888
" />
<path d="M43.8959 2.7888
L43.9564 2.6679
" />
<path d="M43.9564 2.6679
L44.0168 2.6074
" />
<path d="M44.0168 2.6074
L44.1378 2.5469
" />
<path d="M44.1378 2.5469
L44.3797 2.5469
" />
<path d="M44.3797 2.5469
L44.5006 2.6074
" />
<path d="M45.6497 2.5469
L45.6497 3.5750
" />
<path d="M45.6497 3.5750
L45.5892 3.6960
" />
<path d="M45.5892 3.6960
L45.5287 3.7565
" />
<path d="M45.5287 3.7565
L45.4078 3.8169
" />
<path d="M45.4078 3.8169
L45.2264 3.8169
" />
<path d="M45.2264 3.8169
L45.1054 3.7565
" />
<path d="M45.6497 3.3331
L45.5287 3.3936
" />
<path d="M45.5287 3.3936
L45.2868 3.3936
" />
<path d="M45.2868 3.3936
L45.1659 3.3331
" />
<path d="M45.1659 3.3331
L45.1054 3.2727
" />
<path d="M45.1054 3.2727
L45.0449 3.1517
" />
<path d="M45.0449 3.1517
L45.0449 2.7888
" />
<path d="M45.0449 2.7888
L45.1054 2.6679
" />
<path d="M45.1054 2.6679
L45.1659 2.6074
" />
<path d="M45.1659 2.6074
L45.2868 2.5469
" />
<path d="M45.2868 2.5469
L45.5287 2.5469
" />
<path d="M45.5287 2.5469
L45.6497 2.6074
" />
<path d="M46.7383 3.3331
L46.6173 3.3936
" />
<path d="M46.6173 3.3936
L46.3754 3.3936
" />
<path d="M46.3754 3.3936
L46.2545 3.3331
" />
<path d="M46.2545 3.3331
L46.1940 3.2122
" />
<path d="M46.1940 3.2122
L46.1940 2.7284
" />
<path d="M46.1940 2.7284
L46.2545 2.6074
" />
<path d="M46.2545 2.6074
L46.3754 2.5469
" />
<path d="M46.3754 2.5469
L46.6173 2.5469
" />
<path d="M46.6173 2.5469
L46.7383 2.6074
" />
<path d="M46.7383 2.6074
L46.7987 2.7284
" />
<path d="M46.7987 2.7284
L46.7987 2.8493
" />
<path d="M46.7987 2.8493
L46.1940 2.9703
" />
<path d="M47.3430 3.3936
L47.3430 2.1236
" />
<path d="M47.3430 2.1236
L47.8268 2.1236
" />
<path d="M47.8268 2.1236
L47.9478 2.1841
" />
<path d="M47.9478 2.1841
L48.0083 2.2446
" />
<path d="M48.0083 2.2446
L48.0687 2.3655
" />
<path d="M48.0687 2.3655
L48.0687 2.5469
" />
<path d="M48.0687 2.5469
L48.0083 2.6679
" />
<path d="M48.0083 2.6679
L47.9478 2.7284
" />
<path d="M47.9478 2.7284
L47.8268 2.7888
" />
<path d="M47.8268 2.7888
L47.3430 2.7888
" />
<path d="M48.6130 3.3936
L48.6130 2.5469
" />
<path d="M48.6130 2.1236
L48.5526 2.1841
" />
<path d="M48.5526 2.1841
L48.6130 2.2446
" />
<path d="M48.6130 2.2446
L48.6735 2.1841
" />
<path d="M48.6735 2.1841
L48.6130 2.1236
" />
<path d="M48.6130 2.1236
L48.6130 2.2446
" />
<path d="M49.2178 2.5469
L49.2178 3.3936
" />
<path d="M49.2178 2.6679
L49.2783 2.6074
" />
<path d="M49.2783 2.6074
L49.3992 2.5469
" />
<path d="M49.3992 2.5469
L49.5806 2.5469
" />
<path d="M49.5806 2.5469
L49.7016 2.6074
" />
<path d="M49.7016 2.6074
L49.7621 2.7284
" />
<path d="M49.7621 2.7284
L49.7621 3.3936
" />
<path d="M50.6087 2.1236
L50.8506 2.1236
" />
<path d="M50.8506 2.1236
L50.9716 2.1841
" />
<path d="M50.9716 2.1841
L51.0926 2.3050
" />
<path d="M51.0926 2.3050
L51.1530 2.5469
" />
<path d="M51.1530 2.5469
L51.1530 2.9703
" />
<path d="M51.1530 2.9703
L51.0926 3.2122
" />
<path d="M51.0926 3.2122
L50.9716 3.3331
" />
<path d="M50.9716 3.3331
L50.8506 3.3936
" />
<path d="M50.8506 3.3936
L50.6087 3.3936
" />
<path d="M50.6087 3.3936
L50.4878 3.3331
" />
<path d="M50.4878 3.3331
L50.3668 3.2122
" />
<path d="M50.3668 3.2122
L50.3064 2.9703
" />
<path d="M50.3064 2.9703
L50.3064 2.5469
" />
<path d="M50.3064 2.5469
L50.3668 2.3050
" />
<path d="M50.3668 2.3050
L50.4878 2.1841
" />
<path d="M50.4878 2.1841
L50.6087 2.1236
" />
<path d="M51.5159 2.5469
L51.9997 2.5469
" />
<path d="M51.6973 3.3936
L51.6973 2.3050
" />
<path d="M51.6973 2.3050
L51.7578 2.1841
" />
<path d="M51.7578 2.1841
L51.8787 2.1236
" />
<path d="M51.8787 2.1236
L51.9997 2.1236
" />
<path d="M52.2416 2.5469
L52.7254 2.5469
" />
<path d="M52.4230 3.3936
L52.4230 2.3050
" />
<path d="M52.4230 2.3050
L52.4835 2.1841
" />
<path d="M52.4835 2.1841
L52.6045 2.1236
" />
<path d="M52.6045 2.1236
L52.7254 2.1236
" />
<path d="M53.0883 3.3331
L53.2092 3.3936
" />
<path d="M53.2092 3.3936
L53.4511 3.3936
" />
<path d="M53.4511 3.3936
L53.5721 3.3331
" />
<path d="M53.5721 3.3331
L53.6326 3.2122
" />
<path d="M53.6326 3.2122
L53.6326 3.1517
" />
<path d="M53.6326 3.1517
L53.5721 3.0308
" />
<path d="M53.5721 3.0308
L53.4511 2.9703
" />
<path d="M53.4511 2.9703
L53.2697 2.9703
" />
<path d="M53.2697 2.9703
L53.1487 2.9098
" />
<path d="M53.1487 2.9098
L53.0883 2.7888
" />
<path d="M53.0883 2.7888
L53.0883 2.7284
" />
<path d="M53.0883 2.7284
L53.1487 2.6074
" />
<path d="M53.1487 2.6074
L53.2697 2.5469
" />
<path d="M53.2697 2.5469
L53.4511 2.5469
" />
<path d="M53.4511 2.5469
L53.5721 2.6074
" />
<path d="M54.6606 3.3331
L54.5397 3.3936
" />
<path d="M54.5397 3.3936
L54.2978 3.3936
" />
<path d="M54.2978 3.3936
L54.1768 3.3331
" />
<path d="M54.1768 3.3331
L54.1164 3.2122
" />
<path d="M54.1164 3.2122
L54.1164 2.7284
" />
<path d="M54.1164 2.7284
L54.1768 2.6074
" />
<path d="M54.1768 2.6074
L54.2978 2.5469
" />
<path d="M54.2978 2.5469
L54.5397 2.5469
" />
<path d="M54.5397 2.5469
L54.6606 2.6074
" />
<path d="M54.6606 2.6074
L54.7211 2.7284
" />
<path d="M54.7211 2.7284
L54.7211 2.8493
" />
<path d="M54.7211 2.8493
L54.1164 2.9703
" />
<path d="M55.0840 2.5469
L55.5678 2.5469
" />
<path d="M55.2654 2.1236
L55.2654 3.2122
" />
<path d="M55.2654 3.2122
L55.3259 3.3331
" />
<path d="M55.3259 3.3331
L55.4468 3.3936
" />
<path d="M55.4468 3.3936
L55.5678 3.3936
" />
<path d="M56.0516 3.3936
L56.2935 3.3936
" />
<path d="M56.2935 3.3936
L56.4145 3.3331
" />
<path d="M56.4145 3.3331
L56.4749 3.2727
" />
<path d="M56.4749 3.2727
L56.5959 3.0912
" />
<path d="M56.5959 3.0912
L56.6564 2.8493
" />
<path d="M56.6564 2.8493
L56.6564 2.3655
" />
<path d="M56.6564 2.3655
L56.5959 2.2446
" />
<path d="M56.5959 2.2446
L56.5354 2.1841
" />
<path d="M56.5354 2.1841
L56.4145 2.1236
" />
<path d="M56.4145 2.1236
L56.1726 2.1236
" />
<path d="M56.1726 2.1236
L56.0516 2.1841
" />
<path d="M56.0516 2.1841
L55.9911 2.2446
" />
<path d="M55.9911 2.2446
L55.9306 2.3655
" />
<path d="M55.9306 2.3655
L55.9306 2.6679
" />
<path d="M55.9306 2.6679
L55.9911 2.7888
" />
<path d="M55.9911 2.7888
L56.0516 2.8493
" />
<path d="M56.0516 2.8493
L56.1726 2.9098
" />
<path d="M56.1726 2.9098
L56.4145 2.9098
" />
<path d="M56.4145 2.9098
L56.5354 2.8493
" />
<path d="M56.5354 2.8493
L56.5959 2.7888
" />
<path d="M56.5959 2.7888
L56.6564 2.6679
" />
<path d="M57.2006 3.2727
L57.2611 3.3331
" />
<path d="M57.2611 3.3331
L57.2006 3.3936
" />
<path d="M57.2006 3.3936
L57.1402 3.3331
" />
<path d="M57.1402 3.3331
L57.2006 3.2727
" />
<path d="M57.2006 3.2727
L57.2006 3.3936
" />
<path d="M57.8659 3.3936
L58.1078 3.3936
" />
<path d="M58.1078 3.3936
L58.2287 3.3331
" />
<path d="M58.2287 3.3331
L58.2892 3.2727
" />
<path d="M58.2892 3.2727
L58.4102 3.0912
" />
<path d="M58.4102 3.0912
L58.4706 2.8493
" />
<path d="M58.4706 2.8493
L58.4706 2.3655
" />
<path d="M58.4706 2.3655
L58.4102 2.2446
" />
<path d="M58.4102 2.2446
L58.3497 2.1841
" />
<path d="M58.3497 2.1841
L58.2287 2.1236
" />
<path d="M58.2287 2.1236
L57.9868 2.1236
" />
<path d="M57.9868 2.1236
L57.8659 2.1841
" />
<path d="M57.8659 2.1841
L57.8054 2.2446
" />
<path d="M57.8054 2.2446
L57.7449 2.3655
" />
<path d="M57.7449 2.3655
L57.7449 2.6679
" />
<path d="M57.7449 2.6679
L57.8054 2.7888
" />
<path d="M57.8054 2.7888
L57.8659 2.8493
" />
<path d="M57.8659 2.8493
L57.9868 2.9098
" />
<path d="M57.9868 2.9098
L58.2287 2.9098
" />
<path d="M58.2287 2.9098
L58.3497 2.8493
" />
<path d="M58.3497 2.8493
L58.4102 2.7888
" />
<path d="M58.4102 2.7888
L58.4706 2.6679
" />
<path d="M59.2568 2.1236
L59.3778 2.1236
" />
<path d="M59.3778 2.1236
L59.4987 2.1841
" />
<path d="M59.4987 2.1841
L59.5592 2.2446
" />
<path d="M59.5592 2.2446
L59.6197 2.3655
" />
<path d="M59.6197 2.3655
L59.6802 2.6074
" />
<path d="M59.6802 2.6074
L59.6802 2.9098
" />
<path d="M59.6802 2.9098
L59.6197 3.1517
" />
<path d="M59.6197 3.1517
L59.5592 3.2727
" />
<path d="M59.5592 3.2727
L59.4987 3.3331
" />
<path d="M59.4987 3.3331
L59.3778 3.3936
" />
<path d="M59.3778 3.3936
L59.2568 3.3936
" />
<path d="M59.2568 3.3936
L59.1359 3.3331
" />
<path d="M59.1359 3.3331
L59.0754 3.2727
" />
<path d="M59.0754 3.2727
L59.0149 3.1517
" />
<path d="M59.0149 3.1517
L58.9545 2.9098
" />
<path d="M58.9545 2.9098
L58.9545 2.6074
" />
<path d="M58.9545 2.6074
L59.0149 2.3655
" />
<path d="M59.0149 2.3655
L59.0754 2.2446
" />
<path d="M59.0754 2.2446
L59.1359 2.1841
" />
<path d="M59.1359 2.1841
L59.2568 2.1236
" />
<path d="M60.2245 3.3936
L60.2245 2.5469
" />
<path d="M60.2245 2.6679
L60.2849 2.6074
" />
<path d="M60.2849 2.6074
L60.4059 2.5469
" />
<path d="M60.4059 2.5469
L60.5873 2.5469
" />
<path d="M60.5873 2.5469
L60.7083 2.6074
" />
<path d="M60.7083 2.6074
L60.7687 2.7284
" />
<path d="M60.7687 2.7284
L60.7687 3.3936
" />
<path d="M60.7687 2.7284
L60.8292 2.6074
" />
<path d="M60.8292 2.6074
L60.9502 2.5469
" />
<path d="M60.9502 2.5469
L61.1316 2.5469
" />
<path d="M61.1316 2.5469
L61.2526 2.6074
" />
<path d="M61.2526 2.6074
L61.3130 2.7284
" />
<path d="M61.3130 2.7284
L61.3130 3.3936
" />
<path d="M61.9178 3.3936
L61.9178 2.5469
" />
<path d="M61.9178 2.6679
L61.9783 2.6074
" />
<path d="M61.9783 2.6074
L62.0992 2.5469
" />
<path d="M62.0992 2.5469
L62.2806 2.5469
" />
<path d="M62.2806 2.5469
L62.4016 2.6074
" />
<path d="M62.4016 2.6074
L62.4621 2.7284
" />
<path d="M62.4621 2.7284
L62.4621 3.3936
" />
<path d="M62.4621 2.7284
L62.5226 2.6074
" />
<path d="M62.5226 2.6074
L62.6435 2.5469
" />
<path d="M62.6435 2.5469
L62.8249 2.5469
" />
<path d="M62.8249 2.5469
L62.9459 2.6074
" />
<path d="M62.9459 2.6074
L63.0064 2.7284
" />
<path d="M63.0064 2.7284
L63.0064 3.3936
" />
<path d="M63.3087 3.5146
L64.2764 3.5146
" />
<path d="M64.5787 3.3936
L64.5787 2.1236
" />
<path d="M64.5787 2.7284
L65.3045 2.7284
" />
<path d="M65.3045 3.3936
L65.3045 2.1236
" />
<path d="M66.0906 3.3936
L65.9697 3.3331
" />
<path d="M65.9697 3.3331
L65.9092 3.2727
" />
<path d="M65.9092 3.2727
L65.8487 3.1517
" />
<path d="M65.8487 3.1517
L65.8487 2.7888
" />
<path d="M65.8487 2.7888
L65.9092 2.6679
" />
<path d="M65.9092 2.6679
L65.9697 2.6074
" />
<path d="M65.9697 2.6074
L66.0906 2.5469
" />
<path d="M66.0906 2.5469
L66.2721 2.5469
" />
<path d="M66.2721 2.5469
L66.3930 2.6074
" />
<path d="M66.3930 2.6074
L66.4535 2.6679
" />
<path d="M66.4535 2.6679
L66.5140 2.7888
" />
<path d="M66.5140 2.7888
L66.5140 3.1517
" />
<path d="M66.5140 3.1517
L66.4535 3.2727
" />
<path d="M66.4535 3.2727
L66.3930 3.3331
" />
<path d="M66.3930 3.3331
L66.2721 3.3936
" />
<path d="M66.2721 3.3936
L66.0906 3.3936
" />
<path d="M67.6026 2.5469
L67.6026 3.3936
" />
<path d="M67.0583 2.5469
L67.0583 3.2122
" />
<path d="M67.0583 3.2122
L67.1187 3.3331
" />
<path d="M67.1187 3.3331
L67.2397 3.3936
" />
<path d="M67.2397 3.3936
L67.4211 3.3936
" />
<path d="M67.4211 3.3936
L67.5421 3.3331
" />
<path d="M67.5421 3.3331
L67.6026 3.2727
" />
<path d="M68.1468 3.3331
L68.2678 3.3936
" />
<path d="M68.2678 3.3936
L68.5097 3.3936
" />
<path d="M68.5097 3.3936
L68.6306 3.3331
" />
<path d="M68.6306 3.3331
L68.6911 3.2122
" />
<path d="M68.6911 3.2122
L68.6911 3.1517
" />
<path d="M68.6911 3.1517
L68.6306 3.0308
" />
<path d="M68.6306 3.0308
L68.5097 2.9703
" />
<path d="M68.5097 2.9703
L68.3283 2.9703
" />
<path d="M68.3283 2.9703
L68.2073 2.9098
" />
<path d="M68.2073 2.9098
L68.1468 2.7888
" />
<path d="M68.1468 2.7888
L68.1468 2.7284
" />
<path d="M68.1468 2.7284
L68.2073 2.6074
" />
<path d="M68.2073 2.6074
L68.3283 2.5469
" />
<path d="M68.3283 2.5469
L68.5097 2.5469
" />
<path d="M68.5097 2.5469
L68.6306 2.6074
" />
<path d="M69.7192 3.3331
L69.5983 3.3936
" />
<path d="M69.5983 3.3936
L69.3564 3.3936
" />
<path d="M69.3564 3.3936
L69.2354 3.3331
" />
<path d="M69.2354 3.3331
L69.1749 3.2122
" />
<path d="M69.1749 3.2122
L69.1749 2.7284
" />
<path d="M69.1749 2.7284
L69.2354 2.6074
" />
<path d="M69.2354 2.6074
L69.3564 2.5469
" />
<path d="M69.3564 2.5469
L69.5983 2.5469
" />
<path d="M69.5983 2.5469
L69.7192 2.6074
" />
<path d="M69.7192 2.6074
L69.7797 2.7284
" />
<path d="M69.7797 2.7284
L69.7797 2.8493
" />
<path d="M69.7797 2.8493
L69.1749 2.9703
" />
<path d="M70.8683 3.3936
L70.8683 2.1236
" />
<path d="M70.8683 3.3331
L70.7473 3.3936
" />
<path d="M70.7473 3.3936
L70.5054 3.3936
" />
<path d="M70.5054 3.3936
L70.3845 3.3331
" />
<path d="M70.3845 3.3331
L70.3240 3.2727
" />
<path d="M70.3240 3.2727
L70.2635 3.1517
" />
<path d="M70.2635 3.1517
L70.2635 2.7888
" />
<path d="M70.2635 2.7888
L70.3240 2.6679
" />
<path d="M70.3240 2.6679
L70.3845 2.6074
" />
<path d="M70.3845 2.6074
L70.5054 2.5469
" />
<path d="M70.5054 2.5469
L70.7473 2.5469
" />
<path d="M70.7473 2.5469
L70.8683 2.6074
" />
<path d="M71.1706 3.5146
L72.1383 3.5146
" />
<path d="M72.4406 3.3936
L72.4406 2.1236
" />
<path d="M72.4406 2.1236
L72.8640 3.0308
" />
<path d="M72.8640 3.0308
L73.2873 2.1236
" />
<path d="M73.2873 2.1236
L73.2873 3.3936
" />
<path d="M74.0735 3.3936
L73.9526 3.3331
" />
<path d="M73.9526 3.3331
L73.8921 3.2727
" />
<path d="M73.8921 3.2727
L73.8316 3.1517
" />
<path d="M73.8316 3.1517
L73.8316 2.7888
" />
<path d="M73.8316 2.7888
L73.8921 2.6679
" />
<path d="M73.8921 2.6679
L73.9526 2.6074
" />
<path d="M73.9526 2.6074
L74.0735 2.5469
" />
<path d="M74.0735 2.5469
L74.2549 2.5469
" />
<path d="M74.2549 2.5469
L74.3759 2.6074
" />
<path d="M74.3759 2.6074
L74.4364 2.6679
" />
<path d="M74.4364 2.6679
L74.4968 2.7888
" />
<path d="M74.4968 2.7888
L74.4968 3.1517
" />
<path d="M74.4968 3.1517
L74.4364 3.2727
" />
<path d="M74.4364 3.2727
L74.3759 3.3331
" />
<path d="M74.3759 3.3331
L74.2549 3.3936
" />
<path d="M74.2549 3.3936
L74.0735 3.3936
" />
<path d="M75.5854 2.5469
L75.5854 3.3936
" />
<path d="M75.0411 2.5469
L75.0411 3.2122
" />
<path d="M75.0411 3.2122
L75.1016 3.3331
" />
<path d="M75.1016 3.3331
L75.2226 3.3936
" />
<path d="M75.2226 3.3936
L75.4040 3.3936
" />
<path d="M75.4040 3.3936
L75.5249 3.3331
" />
<path d="M75.5249 3.3331
L75.5854 3.2727
" />
<path d="M76.1902 2.5469
L76.1902 3.3936
" />
<path d="M76.1902 2.6679
L76.2506 2.6074
" />
<path d="M76.2506 2.6074
L76.3716 2.5469
" />
<path d="M76.3716 2.5469
L76.5530 2.5469
" />
<path d="M76.5530 2.5469
L76.6740 2.6074
" />
<path d="M76.6740 2.6074
L76.7345 2.7284
" />
<path d="M76.7345 2.7284
L76.7345 3.3936
" />
<path d="M77.1578 2.5469
L77.6416 2.5469
" />
<path d="M77.3392 2.1236
L77.3392 3.2122
" />
<path d="M77.3392 3.2122
L77.3997 3.3331
" />
<path d="M77.3997 3.3331
L77.5206 3.3936
" />
<path d="M77.5206 3.3936
L77.6416 3.3936
" />
<path d="M78.0649 3.3936
L78.0649 2.5469
" />
<path d="M78.0649 2.1236
L78.0045 2.1841
" />
<path d="M78.0045 2.1841
L78.0649 2.2446
" />
<path d="M78.0649 2.2446
L78.1254 2.1841
" />
<path d="M78.1254 2.1841
L78.0649 2.1236
" />
<path d="M78.0649 2.1236
L78.0649 2.2446
" />
<path d="M78.6697 2.5469
L78.6697 3.3936
" />
<path d="M78.6697 2.6679
L78.7302 2.6074
" />
<path d="M78.7302 2.6074
L78.8511 2.5469
" />
<path d="M78.8511 2.5469
L79.0326 2.5469
" />
<path d="M79.0326 2.5469
L79.1535 2.6074
" />
<path d="M79.1535 2.6074
L79.2140 2.7284
" />
<path d="M79.2140 2.7284
L79.2140 3.3936
" />
<path d="M80.3630 2.5469
L80.3630 3.5750
" />
<path d="M80.3630 3.5750
L80.3026 3.6960
" />
<path d="M80.3026 3.6960
L80.2421 3.7565
" />
<path d="M80.2421 3.7565
L80.1211 3.8169
" />
<path d="M80.1211 3.8169
L79.9397 3.8169
" />
<path d="M79.9397 3.8169
L79.8187 3.7565
" />
<path d="M80.3630 3.3331
L80.2421 3.3936
" />
<path d="M80.2421 3.3936
L80.0002 3.3936
" />
<path d="M80.0002 3.3936
L79.8792 3.3331
" />
<path d="M79.8792 3.3331
L79.8187 3.2727
" />
<path d="M79.8187 3.2727
L79.7583 3.1517
" />
<path d="M79.7583 3.1517
L79.7583 2.7888
" />
<path d="M79.7583 2.7888
L79.8187 2.6679
" />
<path d="M79.8187 2.6679
L79.8792 2.6074
" />
<path d="M79.8792 2.6074
L80.0002 2.5469
" />
<path d="M80.0002 2.5469
L80.2421 2.5469
" />
<path d="M80.2421 2.5469
L80.3630 2.6074
" />
<path d="M80.9678 3.3936
L80.9678 2.1236
" />
<path d="M80.9678 2.7284
L81.6935 2.7284
" />
<path d="M81.6935 3.3936
L81.6935 2.1236
" />
<path d="M82.4797 3.3936
L82.3587 3.3331
" />
<path d="M82.3587 3.3331
L82.2983 3.2727
" />
<path d="M82.2983 3.2727
L82.2378 3.1517
" />
<path d="M82.2378 3.1517
L82.2378 2.7888
" />
<path d="M82.2378 2.7888
L82.2983 2.6679
" />
<path d="M82.2983 2.6679
L82.3587 2.6074
" />
<path d="M82.3587 2.6074
L82.4797 2.5469
" />
<path d="M82.4797 2.5469
L82.6611 2.5469
" />
<path d="M82.6611 2.5469
L82.7821 2.6074
" />
<path d="M82.7821 2.6074
L82.8426 2.6679
" />
<path d="M82.8426 2.6679
L82.9030 2.7888
" />
<path d="M82.9030 2.7888
L82.9030 3.1517
" />
<path d="M82.9030 3.1517
L82.8426 3.2727
" />
<path d="M82.8426 3.2727
L82.7821 3.3331
" />
<path d="M82.7821 3.3331
L82.6611 3.3936
" />
<path d="M82.6611 3.3936
L82.4797 3.3936
" />
<path d="M83.6287 3.3936
L83.5078 3.3331
" />
<path d="M83.5078 3.3331
L83.4473 3.2122
" />
<path d="M83.4473 3.2122
L83.4473 2.1236
" />
<path d="M84.5964 3.3331
L84.4754 3.3936
" />
<path d="M84.4754 3.3936
L84.2335 3.3936
" />
<path d="M84.2335 3.3936
L84.1126 3.3331
" />
<path d="M84.1126 3.3331
L84.0521 3.2122
" />
<path d="M84.0521 3.2122
L84.0521 2.7284
" />
<path d="M84.0521 2.7284
L84.1126 2.6074
" />
<path d="M84.1126 2.6074
L84.2335 2.5469
" />
<path d="M84.2335 2.5469
L84.4754 2.5469
" />
<path d="M84.4754 2.5469
L84.5964 2.6074
" />
<path d="M84.5964 2.6074
L84.6568 2.7284
" />
<path d="M84.6568 2.7284
L84.6568 2.8493
" />
<path d="M84.6568 2.8493
L84.0521 2.9703
" />
<path d="M85.1406 3.3331
L85.2616 3.3936
" />
<path d="M85.2616 3.3936
L85.5035 3.3936
" />
<path d="M85.5035 3.3936
L85.6245 3.3331
" />
<path d="M85.6245 3.3331
L85.6849 3.2122
" />
<path d="M85.6849 3.2122
L85.6849 3.1517
" />
<path d="M85.6849 3.1517
L85.6245 3.0308
" />
<path d="M85.6245 3.0308
L85.5035 2.9703
" />
<path d="M85.5035 2.9703
L85.3221 2.9703
" />
<path d="M85.3221 2.9703
L85.2011 2.9098
" />
<path d="M85.2011 2.9098
L85.1406 2.7888
" />
<path d="M85.1406 2.7888
L85.1406 2.7284
" />
<path d="M85.1406 2.7284
L85.2011 2.6074
" />
<path d="M85.2011 2.6074
L85.3221 2.5469
" />
<path d="M85.3221 2.5469
L85.5035 2.5469
" />
<path d="M85.5035 2.5469
L85.6245 2.6074
" />
<path d="M86.4711 2.1236
L86.7130 2.1236
" />
<path d="M86.7130 2.1236
L86.8340 2.1841
" />
<path d="M86.8340 2.1841
L86.9549 2.3050
" />
<path d="M86.9549 2.3050
L87.0154 2.5469
" />
<path d="M87.0154 2.5469
L87.0154 2.9703
" />
<path d="M87.0154 2.9703
L86.9549 3.2122
" />
<path d="M86.9549 3.2122
L86.8340 3.3331
" />
<path d="M86.8340 3.3331
L86.7130 3.3936
" />
<path d="M86.7130 3.3936
L86.4711 3.3936
" />
<path d="M86.4711 3.3936
L86.3502 3.3331
" />
<path d="M86.3502 3.3331
L86.2292 3.2122
" />
<path d="M86.2292 3.2122
L86.1687 2.9703
" />
<path d="M86.1687 2.9703
L86.1687 2.5469
" />
<path d="M86.1687 2.5469
L86.2292 2.3050
" />
<path d="M86.2292 2.3050
L86.3502 2.1841
" />
<path d="M86.3502 2.1841
L86.4711 2.1236
" />
<path d="M87.3783 2.5469
L87.8621 2.5469
" />
<path d="M87.5597 3.3936
L87.5597 2.3050
" />
<path d="M87.5597 2.3050
L87.6202 2.1841
" />
<path d="M87.6202 2.1841
L87.7411 2.1236
" />
<path d="M87.7411 2.1236
L87.8621 2.1236
" />
<path d="M88.1040 2.5469
L88.5878 2.5469
" />
<path d="M88.2854 3.3936
L88.2854 2.3050
" />
<path d="M88.2854 2.3050
L88.3459 2.1841
" />
<path d="M88.3459 2.1841
L88.4668 2.1236
" />
<path d="M88.4668 2.1236
L88.5878 2.1236
" />
<path d="M88.9506 3.3331
L89.0716 3.3936
" />
<path d="M89.0716 3.3936
L89.3135 3.3936
" />
<path d="M89.3135 3.3936
L89.4345 3.3331
" />
<path d="M89.4345 3.3331
L89.4949 3.2122
" />
<path d="M89.4949 3.2122
L89.4949 3.1517
" />
<path d="M89.4949 3.1517
L89.4345 3.0308
" />
<path d="M89.4345 3.0308
L89.3135 2.9703
" />
<path d="M89.3135 2.9703
L89.1321 2.9703
" />
<path d="M89.1321 2.9703
L89.0111 2.9098
" />
<path d="M89.0111 2.9098
L88.9506 2.7888
" />
<path d="M88.9506 2.7888
L88.9506 2.7284
" />
<path d="M88.9506 2.7284
L89.0111 2.6074
" />
<path d="M89.0111 2.6074
L89.1321 2.5469
" />
<path d="M89.1321 2.5469
L89.3135 2.5469
" />
<path d="M89.3135 2.5469
L89.4345 2.6074
" />
<path d="M90.5230 3.3331
L90.4021 3.3936
" />
<path d="M90.4021 3.3936
L90.1602 3.3936
" />
<path d="M90.1602 3.3936
L90.0392 3.3331
" />
<path d="M90.0392 3.3331
L89.9787 3.2122
" />
<path d="M89.9787 3.2122
L89.9787 2.7284
" />
<path d="M89.9787 2.7284
L90.0392 2.6074
" />
<path d="M90.0392 2.6074
L90.1602 2.5469
" />
<path d="M90.1602 2.5469
L90.4021 2.5469
" />
<path d="M90.4021 2.5469
L90.5230 2.6074
" />
<path d="M90.5230 2.6074
L90.5835 2.7284
" />
<path d="M90.5835 2.7284
L90.5835 2.8493
" />
<path d="M90.5835 2.8493
L89.9787 2.9703
" />
<path d="M90.9464 2.5469
L91.4302 2.5469
" />
<path d="M91.1278 2.1236
L91.1278 3.2122
" />
<path d="M91.1278 3.2122
L91.1883 3.3331
" />
<path d="M91.1883 3.3331
L91.3092 3.3936
" />
<path d="M91.3092 3.3936
L91.4302 3.3936
" />
<path d="M92.5187 3.3936
L91.7930 3.3936
" />
<path d="M92.1559 3.3936
L92.1559 2.1236
" />
<path d="M92.1559 2.1236
L92.0349 2.3050
" />
<path d="M92.0349 2.3050
L91.9140 2.4260
" />
<path d="M91.9140 2.4260
L91.7930 2.4865
" />
<path d="M93.7283 3.3936
L93.0026 3.3936
" />
<path d="M93.3654 3.3936
L93.3654 2.1236
" />
<path d="M93.3654 2.1236
L93.2445 2.3050
" />
<path d="M93.2445 2.3050
L93.1235 2.4260
" />
<path d="M93.1235 2.4260
L93.0026 2.4865
" />
<path d="M94.2726 3.2727
L94.3330 3.3331
" />
<path d="M94.3330 3.3331
L94.2726 3.3936
" />
<path d="M94.2726 3.3936
L94.2121 3.3331
" />
<path d="M94.2121 3.3331
L94.2726 3.2727
" />
<path d="M94.2726 3.2727
L94.2726 3.3936
" />
<path d="M94.7564 2.1236
L95.5426 2.1236
" />
<path d="M95.5426 2.1236
L95.1192 2.6074
" />
<path d="M95.1192 2.6074
L95.3006 2.6074
" />
<path d="M95.3006 2.6074
L95.4216 2.6679
" />
<path d="M95.4216 2.6679
L95.4821 2.7284
" />
<path d="M95.4821 2.7284
L95.5426 2.8493
" />
<path d="M95.5426 2.8493
L95.5426 3.1517
" />
<path d="M95.5426 3.1517
L95.4821 3.2727
" />
<path d="M95.4821 3.2727
L95.4216 3.3331
" />
<path d="M95.4216 3.3331
L95.3006 3.3936
" />
<path d="M95.3006 3.3936
L94.9378 3.3936
" />
<path d="M94.9378 3.3936
L94.8168 3.3331
" />
<path d="M94.8168 3.3331
L94.7564 3.2727
" />
<path d="M96.0264 2.2446
L96.0868 2.1841
" />
<path d="M96.0868 2.1841
L96.2078 2.1236
" />
<path d="M96.2078 2.1236
L96.5102 2.1236
" />
<path d="M96.5102 2.1236
L96.6311 2.1841
" />
<path d="M96.6311 2.1841
L96.6916 2.2446
" />
<path d="M96.6916 2.2446
L96.7521 2.3655
" />
<path d="M96.7521 2.3655
L96.7521 2.4865
" />
<path d="M96.7521 2.4865
L96.6916 2.6679
" />
<path d="M96.6916 2.6679
L95.9659 3.3936
" />
<path d="M95.9659 3.3936
L96.7521 3.3936
" />
<path d="M97.2964 3.3936
L97.2964 2.5469
" />
<path d="M97.2964 2.6679
L97.3568 2.6074
" />
<path d="M97.3568 2.6074
L97.4778 2.5469
" />
<path d="M97.4778 2.5469
L97.6592 2.5469
" />
<path d="M97.6592 2.5469
L97.7802 2.6074
" />
<path d="M97.7802 2.6074
L97.8406 2.7284
" />
<path d="M97.8406 2.7284
L97.8406 3.3936
" />
<path d="M97.8406 2.7284
L97.9011 2.6074
" />
<path d="M97.9011 2.6074
L98.0221 2.5469
" />
<path d="M98.0221 2.5469
L98.2035 2.5469
" />
<path d="M98.2035 2.5469
L98.3245 2.6074
" />
<path d="M98.3245 2.6074
L98.3849 2.7284
" />
<path d="M98.3849 2.7284
L98.3849 3.3936
" />
<path d="M98.9897 3.3936
L98.9897 2.5469
" />
<path d="M98.9897 2.6679
L99.0502 2.6074
" />
<path d="M99.0502 2.6074
L99.1711 2.5469
" />
<path d="M99.1711 2.5469
L99.3526 2.5469
" />
<path d="M99.3526 2.5469
L99.4735 2.6074
" />
<path d="M99.4735 2.6074
L99.5340 2.7284
" />
<path d="M99.5340 2.7284
L99.5340 3.3936
" />
<path d="M99.5340 2.7284
L99.5945 2.6074
" />
<path d="M99.5945 2.6074
L99.7154 2.5469
" />
<path d="M99.7154 2.5469
L99.8968 2.5469
" />
<path d="M99.8968 2.5469
L100.0178 2.6074
" />
<path d="M100.0178 2.6074
L100.0783 2.7284
" />
<path d="M100.0783 2.7284
L100.0783 3.3936
" />
</g></g>
<g style="fill:none; 
stroke:#AFAFAF; stroke-width:0.1500; stroke-opacity:1; 
stroke-linecap:round; stroke-linejoin:round;">
<text x="44.7059" y="19.5393"
textLength="4.5357" font-size="1.3333" lengthAdjust="spacingAndGlyphs"
text-anchor="middle" opacity="0">REF**</text>
<g class="stroked-text"><desc>REF**</desc>
<path d="M43.3726 19.4942
L43.0392 19.0180
" />
<path d="M42.8011 19.4942
L42.8011 18.4942
" />
<path d="M42.8011 18.4942
L43.1821 18.4942
" />
<path d="M43.1821 18.4942
L43.2773 18.5418
" />
<path d="M43.2773 18.5418
L43.3249 18.5894
" />
<path d="M43.3249 18.5894
L43.3726 18.6846
" />
<path d="M43.3726 18.6846
L43.3726 18.8275
" />
<path d="M43.3726 18.8275
L43.3249 18.9227
" />
<path d="M43.3249 18.9227
L43.2773 18.9703
" />
<path d="M43.2773 18.9703
L43.1821 19.0180
" />
<path d="M43.1821 19.0180
L42.8011 19.0180
" />
<path d="M43.8011 18.9703
L44.1345 18.9703
" />
<path d="M44.2773 19.4942
L43.8011 19.4942
" />
<path d="M43.8011 19.4942
L43.8011 18.4942
" />
<path d="M43.8011 18.4942
L44.2773 18.4942
" />
<path d="M45.0392 18.9703
L44.7059 18.9703
" />
<path d="M44.7059 19.4942
L44.7059 18.4942
" />
<path d="M44.7059 18.4942
L45.1821 18.4942
" />
<path d="M45.7059 18.4942
L45.7059 18.7323
" />
<path d="M45.4678 18.6370
L45.7059 18.7323
" />
<path d="M45.7059 18.7323
L45.9440 18.6370
" />
<path d="M45.5630 18.9227
L45.7059 18.7323
" />
<path d="M45.7059 18.7323
L45.8487 18.9227
" />
<path d="M46.4678 18.4942
L46.4678 18.7323
" />
<path d="M46.2297 18.6370
L46.4678 18.7323
" />
<path d="M46.4678 18.7323
L46.7059 18.6370
" />
<path d="M46.3249 18.9227
L46.4678 18.7323
" />
<path d="M46.4678 18.7323
L46.6106 18.9227
" />
</g></g>
<g style="fill:none; 
stroke:#AFAFAF; stroke-width:0.1000; stroke-opacity:1; 
stroke-linecap:round; stroke-linejoin:round;">
<path d="M29.2809 1.0143
L29.2809 15.5543
" />
<path d="M29.2809 15.5543
L29.2809 15.9543
" />
<path d="M29.2809 15.5543
L60.1309 15.5543
" />
<path d="M29.2809 15.9543
L60.1309 15.9543
" />
<path d="M29.7059 15.9543
L29.7059 20.9543
" />
<path d="M29.7059 20.9543
L34.7059 20.9543
" />
<path d="M30.6059 15.5543
L30.6059 4.2343
" />
<path d="M33.8059 15.5543
L33.8059 4.2343
" />
<path d="M34.7059 15.9543
L29.7059 15.9543
" />
<path d="M34.7059 20.9543
L34.7059 15.9543
" />
<path d="M36.5559 15.9543
L36.5559 22.1243
" />
<path d="M36.5559 22.1243
L52.8559 22.1243
" />
<path d="M52.8559 15.9543
L36.5559 15.9543
" />
<path d="M52.8559 22.1243
L52.8559 15.9543
" />
<path d="M54.7059 15.9543
L54.7059 20.9543
" />
<path d="M54.7059 20.9543
L59.7059 20.9543
" />
<path d="M55.6059 15.5543
L55.6059 4.2343
" />
<path d="M58.8059 15.5543
L58.8059 4.2343
" />
<path d="M59.7059 15.9543
L54.7059 15.9543
" />
<path d="M59.7059 20.9543
L59.7059 15.9543
" />
<path d="M60.1309 1.0143
L29.2809 1.0143
" />
<path d="M60.1309 15.5543
L29.2809 15.5543
" />
<path d="M60.1309 15.5543
L60.1309 1.0143
" />
<path d="M60.1309 15.9543
L60.1309 15.5543
" />
<path d="M33.8059 4.2343 A1.6000 1.6000 0.0 0 0 30.6059 4.2343" />
<path d="M58.8059 4.2343 A1.6000 1.6000 0.0 0 0 55.6059 4.2343" />
</g> 
</svg>
