<?xml version="1.0" standalone="no"?>
 <!DOCTYPE svg PUBLIC "-//W3C//DTD SVG 1.1//EN" 
 "http://www.w3.org/Graphics/SVG/1.1/DTD/svg11.dtd"> 
<svg
  xmlns:svg="http://www.w3.org/2000/svg"
  xmlns="http://www.w3.org/2000/svg"
  xmlns:xlink="http://www.w3.org/1999/xlink"
  version="1.1"
  width="48.5394mm" height="41.5798mm" viewBox="0.0000 0.0000 48.5394 41.5798">
<title>SVG Image created as working-brd.svg date 2024/04/23 01:46:07 </title>
  <desc>Image generated by PCBNEW </desc>
<g style="fill:#000000; fill-opacity:1.0000;stroke:#000000; stroke-opacity:1.0000;
stroke-linecap:round; stroke-linejoin:round;"
 transform="translate(0 0) scale(1 1)">
</g>
<g style="fill:#FFFFFF; fill-opacity:1.0000; stroke:none;">
<circle cx="21.3750" cy="29.7850" r="0.1000" /> 
</g>
<g style="fill:#FFFFFF; fill-opacity:1.0000; stroke:none;">
<circle cx="21.3750" cy="31.1850" r="0.1000" /> 
</g>
<g style="fill:#FFFFFF; fill-opacity:1.0000; stroke:none;">
<circle cx="22.0750" cy="29.0850" r="0.1000" /> 
</g>
<g style="fill:#FFFFFF; fill-opacity:1.0000; stroke:none;">
<circle cx="22.0750" cy="30.4850" r="0.1000" /> 
</g>
<g style="fill:#FFFFFF; fill-opacity:1.0000; stroke:none;">
<circle cx="22.0750" cy="31.8850" r="0.1000" /> 
</g>
<g style="fill:#FFFFFF; fill-opacity:1.0000; stroke:none;">
<circle cx="22.7750" cy="29.7850" r="0.1000" /> 
</g>
<g style="fill:#FFFFFF; fill-opacity:1.0000; stroke:none;">
<circle cx="22.7750" cy="31.1850" r="0.1000" /> 
</g>
<g style="fill:#FFFFFF; fill-opacity:1.0000; stroke:none;">
<circle cx="23.4750" cy="29.0850" r="0.1000" /> 
</g>
<g style="fill:#FFFFFF; fill-opacity:1.0000; stroke:none;">
<circle cx="23.4750" cy="30.4850" r="0.1000" /> 
</g>
<g style="fill:#FFFFFF; fill-opacity:1.0000; stroke:none;">
<circle cx="23.4750" cy="31.8850" r="0.1000" /> 
</g>
<g style="fill:#FFFFFF; fill-opacity:1.0000; stroke:none;">
<circle cx="24.1750" cy="29.7850" r="0.1000" /> 
</g>
<g style="fill:#FFFFFF; fill-opacity:1.0000; stroke:none;">
<circle cx="24.1750" cy="31.1850" r="0.1000" /> 
</g>
<g style="fill:#02FFEE; fill-opacity:0.4000; stroke:none;">
<circle cx="21.3750" cy="29.7850" r="0.3000" /> 
</g>
<g style="fill:#02FFEE; fill-opacity:0.4000; stroke:none;">
<circle cx="21.3750" cy="31.1850" r="0.3000" /> 
</g>
<g style="fill:#02FFEE; fill-opacity:0.4000; stroke:none;">
<circle cx="22.0750" cy="29.0850" r="0.3000" /> 
</g>
<g style="fill:#02FFEE; fill-opacity:0.4000; stroke:none;">
<circle cx="22.0750" cy="30.4850" r="0.3000" /> 
</g>
<g style="fill:#02FFEE; fill-opacity:0.4000; stroke:none;">
<circle cx="22.0750" cy="31.8850" r="0.3000" /> 
</g>
<g style="fill:#02FFEE; fill-opacity:0.4000; stroke:none;">
<circle cx="22.7750" cy="29.7850" r="0.3000" /> 
</g>
<g style="fill:#02FFEE; fill-opacity:0.4000; stroke:none;">
<circle cx="22.7750" cy="31.1850" r="0.3000" /> 
</g>
<g style="fill:#02FFEE; fill-opacity:0.4000; stroke:none;">
<circle cx="23.4750" cy="29.0850" r="0.3000" /> 
</g>
<g style="fill:#02FFEE; fill-opacity:0.4000; stroke:none;">
<circle cx="23.4750" cy="30.4850" r="0.3000" /> 
</g>
<g style="fill:#02FFEE; fill-opacity:0.4000; stroke:none;">
<circle cx="23.4750" cy="31.8850" r="0.3000" /> 
</g>
<g style="fill:#02FFEE; fill-opacity:0.4000; stroke:none;">
<circle cx="24.1750" cy="29.7850" r="0.3000" /> 
</g>
<g style="fill:#02FFEE; fill-opacity:0.4000; stroke:none;">
<circle cx="24.1750" cy="31.1850" r="0.3000" /> 
</g>
<g style="fill:#FFFFFF; fill-opacity:1.0000; stroke:none;">
<circle cx="21.3750" cy="29.7850" r="0.1000" /> 
</g>
<g style="fill:#FFFFFF; fill-opacity:1.0000; stroke:none;">
<circle cx="21.3750" cy="31.1850" r="0.1000" /> 
</g>
<g style="fill:#FFFFFF; fill-opacity:1.0000; stroke:none;">
<circle cx="22.0750" cy="29.0850" r="0.1000" /> 
</g>
<g style="fill:#FFFFFF; fill-opacity:1.0000; stroke:none;">
<circle cx="22.0750" cy="30.4850" r="0.1000" /> 
</g>
<g style="fill:#FFFFFF; fill-opacity:1.0000; stroke:none;">
<circle cx="22.0750" cy="31.8850" r="0.1000" /> 
</g>
<g style="fill:#FFFFFF; fill-opacity:1.0000; stroke:none;">
<circle cx="22.7750" cy="29.7850" r="0.1000" /> 
</g>
<g style="fill:#FFFFFF; fill-opacity:1.0000; stroke:none;">
<circle cx="22.7750" cy="31.1850" r="0.1000" /> 
</g>
<g style="fill:#FFFFFF; fill-opacity:1.0000; stroke:none;">
<circle cx="23.4750" cy="29.0850" r="0.1000" /> 
</g>
<g style="fill:#FFFFFF; fill-opacity:1.0000; stroke:none;">
<circle cx="23.4750" cy="30.4850" r="0.1000" /> 
</g>
<g style="fill:#FFFFFF; fill-opacity:1.0000; stroke:none;">
<circle cx="23.4750" cy="31.8850" r="0.1000" /> 
</g>
<g style="fill:#FFFFFF; fill-opacity:1.0000; stroke:none;">
<circle cx="24.1750" cy="29.7850" r="0.1000" /> 
</g>
<g style="fill:#FFFFFF; fill-opacity:1.0000; stroke:none;">
<circle cx="24.1750" cy="31.1850" r="0.1000" /> 
<path style="fill:#C83434; fill-opacity:1.0000; stroke:none;fill-rule:evenodd;"
d="M 14.7750,23.2150
14.7750,22.3150
16.2750,22.3150
16.2750,23.2150
Z" /> 
<path style="fill:#C83434; fill-opacity:1.0000; stroke:none;fill-rule:evenodd;"
d="M 14.7750,24.4850
14.7750,23.5850
16.2750,23.5850
16.2750,24.4850
Z" /> 
<path style="fill:#C83434; fill-opacity:1.0000; stroke:none;fill-rule:evenodd;"
d="M 14.7750,25.7550
14.7750,24.8550
16.2750,24.8550
16.2750,25.7550
Z" /> 
<path style="fill:#C83434; fill-opacity:1.0000; stroke:none;fill-rule:evenodd;"
d="M 14.7750,27.0250
14.7750,26.1250
16.2750,26.1250
16.2750,27.0250
Z" /> 
<path style="fill:#C83434; fill-opacity:1.0000; stroke:none;fill-rule:evenodd;"
d="M 14.7750,28.2950
14.7750,27.3950
16.2750,27.3950
16.2750,28.2950
Z" /> 
<path style="fill:#C83434; fill-opacity:1.0000; stroke:none;fill-rule:evenodd;"
d="M 14.7750,29.5650
14.7750,28.6650
16.2750,28.6650
16.2750,29.5650
Z" /> 
<path style="fill:#C83434; fill-opacity:1.0000; stroke:none;fill-rule:evenodd;"
d="M 14.7750,30.8350
14.7750,29.9350
16.2750,29.9350
16.2750,30.8350
Z" /> 
<path style="fill:#C83434; fill-opacity:1.0000; stroke:none;fill-rule:evenodd;"
d="M 14.7750,32.1050
14.7750,31.2050
16.2750,31.2050
16.2750,32.1050
Z" /> 
<path style="fill:#C83434; fill-opacity:1.0000; stroke:none;fill-rule:evenodd;"
d="M 14.7750,33.3750
14.7750,32.4750
16.2750,32.4750
16.2750,33.3750
Z" /> 
<path style="fill:#C83434; fill-opacity:1.0000; stroke:none;fill-rule:evenodd;"
d="M 14.7750,34.6450
14.7750,33.7450
16.2750,33.7450
16.2750,34.6450
Z" /> 
<path style="fill:#C83434; fill-opacity:1.0000; stroke:none;fill-rule:evenodd;"
d="M 14.7750,35.9150
14.7750,35.0150
16.2750,35.0150
16.2750,35.9150
Z" /> 
<path style="fill:#C83434; fill-opacity:1.0000; stroke:none;fill-rule:evenodd;"
d="M 14.7750,37.1850
14.7750,36.2850
16.2750,36.2850
16.2750,37.1850
Z" /> 
<path style="fill:#C83434; fill-opacity:1.0000; stroke:none;fill-rule:evenodd;"
d="M 14.7750,38.4550
14.7750,37.5550
16.2750,37.5550
16.2750,38.4550
Z" /> 
<path style="fill:#C83434; fill-opacity:1.0000; stroke:none;fill-rule:evenodd;"
d="M 14.7750,39.7250
14.7750,38.8250
16.2750,38.8250
16.2750,39.7250
Z" /> 
<path style="fill:#C83434; fill-opacity:1.0000; stroke:none;fill-rule:evenodd;"
d="M 19.0100,41.2750
18.1100,41.2750
18.1100,39.7750
19.0100,39.7750
Z" /> 
<path style="fill:#C83434; fill-opacity:1.0000; stroke:none;fill-rule:evenodd;"
d="M 20.2800,41.2750
19.3800,41.2750
19.3800,39.7750
20.2800,39.7750
Z" /> 
<path style="fill:#C83434; fill-opacity:1.0000; stroke:none;fill-rule:evenodd;"
d="M 21.5500,41.2750
20.6500,41.2750
20.6500,39.7750
21.5500,39.7750
Z" /> 
<path style="fill:#C83434; fill-opacity:1.0000; stroke:none;fill-rule:evenodd;"
d="M 22.8200,41.2750
21.9200,41.2750
21.9200,39.7750
22.8200,39.7750
Z" /> 
<path style="fill:#C83434; fill-opacity:1.0000; stroke:none;fill-rule:evenodd;"
d="M 24.0900,41.2750
23.1900,41.2750
23.1900,39.7750
24.0900,39.7750
Z" /> 
<path style="fill:#C83434; fill-opacity:1.0000; stroke:none;fill-rule:evenodd;"
d="M 25.3600,41.2750
24.4600,41.2750
24.4600,39.7750
25.3600,39.7750
Z" /> 
<path style="fill:#C83434; fill-opacity:1.0000; stroke:none;fill-rule:evenodd;"
d="M 26.6300,41.2750
25.7300,41.2750
25.7300,39.7750
26.6300,39.7750
Z" /> 
<path style="fill:#C83434; fill-opacity:1.0000; stroke:none;fill-rule:evenodd;"
d="M 27.9000,41.2750
27.0000,41.2750
27.0000,39.7750
27.9000,39.7750
Z" /> 
<path style="fill:#C83434; fill-opacity:1.0000; stroke:none;fill-rule:evenodd;"
d="M 29.1700,41.2750
28.2700,41.2750
28.2700,39.7750
29.1700,39.7750
Z" /> 
<path style="fill:#C83434; fill-opacity:1.0000; stroke:none;fill-rule:evenodd;"
d="M 30.4400,41.2750
29.5400,41.2750
29.5400,39.7750
30.4400,39.7750
Z" /> 
<path style="fill:#C83434; fill-opacity:1.0000; stroke:none;fill-rule:evenodd;"
d="M 32.2750,39.7250
32.2750,38.8250
33.7750,38.8250
33.7750,39.7250
Z" /> 
<path style="fill:#C83434; fill-opacity:1.0000; stroke:none;fill-rule:evenodd;"
d="M 32.2750,38.4550
32.2750,37.5550
33.7750,37.5550
33.7750,38.4550
Z" /> 
<path style="fill:#C83434; fill-opacity:1.0000; stroke:none;fill-rule:evenodd;"
d="M 32.2750,37.1850
32.2750,36.2850
33.7750,36.2850
33.7750,37.1850
Z" /> 
<path style="fill:#C83434; fill-opacity:1.0000; stroke:none;fill-rule:evenodd;"
d="M 32.2750,35.9150
32.2750,35.0150
33.7750,35.0150
33.7750,35.9150
Z" /> 
<path style="fill:#C83434; fill-opacity:1.0000; stroke:none;fill-rule:evenodd;"
d="M 32.2750,34.6450
32.2750,33.7450
33.7750,33.7450
33.7750,34.6450
Z" /> 
<path style="fill:#C83434; fill-opacity:1.0000; stroke:none;fill-rule:evenodd;"
d="M 32.2750,33.3750
32.2750,32.4750
33.7750,32.4750
33.7750,33.3750
Z" /> 
<path style="fill:#C83434; fill-opacity:1.0000; stroke:none;fill-rule:evenodd;"
d="M 32.2750,32.1050
32.2750,31.2050
33.7750,31.2050
33.7750,32.1050
Z" /> 
<path style="fill:#C83434; fill-opacity:1.0000; stroke:none;fill-rule:evenodd;"
d="M 32.2750,30.8350
32.2750,29.9350
33.7750,29.9350
33.7750,30.8350
Z" /> 
<path style="fill:#C83434; fill-opacity:1.0000; stroke:none;fill-rule:evenodd;"
d="M 32.2750,29.5650
32.2750,28.6650
33.7750,28.6650
33.7750,29.5650
Z" /> 
<path style="fill:#C83434; fill-opacity:1.0000; stroke:none;fill-rule:evenodd;"
d="M 32.2750,28.2950
32.2750,27.3950
33.7750,27.3950
33.7750,28.2950
Z" /> 
<path style="fill:#C83434; fill-opacity:1.0000; stroke:none;fill-rule:evenodd;"
d="M 32.2750,27.0250
32.2750,26.1250
33.7750,26.1250
33.7750,27.0250
Z" /> 
<path style="fill:#C83434; fill-opacity:1.0000; stroke:none;fill-rule:evenodd;"
d="M 32.2750,25.7550
32.2750,24.8550
33.7750,24.8550
33.7750,25.7550
Z" /> 
<path style="fill:#C83434; fill-opacity:1.0000; stroke:none;fill-rule:evenodd;"
d="M 32.2750,24.4850
32.2750,23.5850
33.7750,23.5850
33.7750,24.4850
Z" /> 
<path style="fill:#C83434; fill-opacity:1.0000; stroke:none;fill-rule:evenodd;"
d="M 32.2750,23.2150
32.2750,22.3150
33.7750,22.3150
33.7750,23.2150
Z" /> 
<path style="fill:#C83434; fill-opacity:1.0000; stroke:none;fill-rule:evenodd;"
d="M 20.9250,29.5350
20.9250,28.6350
21.8250,28.6350
21.8250,29.5350
Z" /> 
<path style="fill:#C83434; fill-opacity:1.0000; stroke:none;fill-rule:evenodd;"
d="M 20.9250,30.9350
20.9250,30.0350
21.8250,30.0350
21.8250,30.9350
Z" /> 
<path style="fill:#C83434; fill-opacity:1.0000; stroke:none;fill-rule:evenodd;"
d="M 20.9250,32.3350
20.9250,31.4350
21.8250,31.4350
21.8250,32.3350
Z" /> 
<path style="fill:#C83434; fill-opacity:1.0000; stroke:none;fill-rule:evenodd;"
d="M 22.3250,29.5350
22.3250,28.6350
23.2250,28.6350
23.2250,29.5350
Z" /> 
<path style="fill:#C83434; fill-opacity:1.0000; stroke:none;fill-rule:evenodd;"
d="M 22.3250,30.9350
22.3250,30.0350
23.2250,30.0350
23.2250,30.9350
Z" /> 
<path style="fill:#C83434; fill-opacity:1.0000; stroke:none;fill-rule:evenodd;"
d="M 22.3250,32.3350
22.3250,31.4350
23.2250,31.4350
23.2250,32.3350
Z" /> 
<path style="fill:#C83434; fill-opacity:1.0000; stroke:none;fill-rule:evenodd;"
d="M 23.7250,29.5350
23.7250,28.6350
24.6250,28.6350
24.6250,29.5350
Z" /> 
<path style="fill:#C83434; fill-opacity:1.0000; stroke:none;fill-rule:evenodd;"
d="M 23.7250,30.9350
23.7250,30.0350
24.6250,30.0350
24.6250,30.9350
Z" /> 
<path style="fill:#C83434; fill-opacity:1.0000; stroke:none;fill-rule:evenodd;"
d="M 23.7250,32.3350
23.7250,31.4350
24.6250,31.4350
24.6250,32.3350
Z" /> 
</g>
<g style="fill:#FFFFFF; fill-opacity:1.0000; stroke:none;">
<circle cx="21.3750" cy="29.7850" r="0.1000" /> 
</g>
<g style="fill:#FFFFFF; fill-opacity:1.0000; stroke:none;">
<circle cx="21.3750" cy="31.1850" r="0.1000" /> 
</g>
<g style="fill:#FFFFFF; fill-opacity:1.0000; stroke:none;">
<circle cx="22.0750" cy="29.0850" r="0.1000" /> 
</g>
<g style="fill:#FFFFFF; fill-opacity:1.0000; stroke:none;">
<circle cx="22.0750" cy="30.4850" r="0.1000" /> 
</g>
<g style="fill:#FFFFFF; fill-opacity:1.0000; stroke:none;">
<circle cx="22.0750" cy="31.8850" r="0.1000" /> 
</g>
<g style="fill:#FFFFFF; fill-opacity:1.0000; stroke:none;">
<circle cx="22.7750" cy="29.7850" r="0.1000" /> 
</g>
<g style="fill:#FFFFFF; fill-opacity:1.0000; stroke:none;">
<circle cx="22.7750" cy="31.1850" r="0.1000" /> 
</g>
<g style="fill:#FFFFFF; fill-opacity:1.0000; stroke:none;">
<circle cx="23.4750" cy="29.0850" r="0.1000" /> 
</g>
<g style="fill:#FFFFFF; fill-opacity:1.0000; stroke:none;">
<circle cx="23.4750" cy="30.4850" r="0.1000" /> 
</g>
<g style="fill:#FFFFFF; fill-opacity:1.0000; stroke:none;">
<circle cx="23.4750" cy="31.8850" r="0.1000" /> 
</g>
<g style="fill:#FFFFFF; fill-opacity:1.0000; stroke:none;">
<circle cx="24.1750" cy="29.7850" r="0.1000" /> 
</g>
<g style="fill:#FFFFFF; fill-opacity:1.0000; stroke:none;">
<circle cx="24.1750" cy="31.1850" r="0.1000" /> 
<path style="fill:#D864FF; fill-opacity:0.4000; stroke:none;fill-rule:evenodd;"
d="M 14.7750,23.2150
14.7750,22.3150
16.2750,22.3150
16.2750,23.2150
Z" /> 
<path style="fill:#D864FF; fill-opacity:0.4000; stroke:none;fill-rule:evenodd;"
d="M 14.7750,24.4850
14.7750,23.5850
16.2750,23.5850
16.2750,24.4850
Z" /> 
<path style="fill:#D864FF; fill-opacity:0.4000; stroke:none;fill-rule:evenodd;"
d="M 14.7750,25.7550
14.7750,24.8550
16.2750,24.8550
16.2750,25.7550
Z" /> 
<path style="fill:#D864FF; fill-opacity:0.4000; stroke:none;fill-rule:evenodd;"
d="M 14.7750,27.0250
14.7750,26.1250
16.2750,26.1250
16.2750,27.0250
Z" /> 
<path style="fill:#D864FF; fill-opacity:0.4000; stroke:none;fill-rule:evenodd;"
d="M 14.7750,28.2950
14.7750,27.3950
16.2750,27.3950
16.2750,28.2950
Z" /> 
<path style="fill:#D864FF; fill-opacity:0.4000; stroke:none;fill-rule:evenodd;"
d="M 14.7750,29.5650
14.7750,28.6650
16.2750,28.6650
16.2750,29.5650
Z" /> 
<path style="fill:#D864FF; fill-opacity:0.4000; stroke:none;fill-rule:evenodd;"
d="M 14.7750,30.8350
14.7750,29.9350
16.2750,29.9350
16.2750,30.8350
Z" /> 
<path style="fill:#D864FF; fill-opacity:0.4000; stroke:none;fill-rule:evenodd;"
d="M 14.7750,32.1050
14.7750,31.2050
16.2750,31.2050
16.2750,32.1050
Z" /> 
<path style="fill:#D864FF; fill-opacity:0.4000; stroke:none;fill-rule:evenodd;"
d="M 14.7750,33.3750
14.7750,32.4750
16.2750,32.4750
16.2750,33.3750
Z" /> 
<path style="fill:#D864FF; fill-opacity:0.4000; stroke:none;fill-rule:evenodd;"
d="M 14.7750,34.6450
14.7750,33.7450
16.2750,33.7450
16.2750,34.6450
Z" /> 
<path style="fill:#D864FF; fill-opacity:0.4000; stroke:none;fill-rule:evenodd;"
d="M 14.7750,35.9150
14.7750,35.0150
16.2750,35.0150
16.2750,35.9150
Z" /> 
<path style="fill:#D864FF; fill-opacity:0.4000; stroke:none;fill-rule:evenodd;"
d="M 14.7750,37.1850
14.7750,36.2850
16.2750,36.2850
16.2750,37.1850
Z" /> 
<path style="fill:#D864FF; fill-opacity:0.4000; stroke:none;fill-rule:evenodd;"
d="M 14.7750,38.4550
14.7750,37.5550
16.2750,37.5550
16.2750,38.4550
Z" /> 
<path style="fill:#D864FF; fill-opacity:0.4000; stroke:none;fill-rule:evenodd;"
d="M 14.7750,39.7250
14.7750,38.8250
16.2750,38.8250
16.2750,39.7250
Z" /> 
<path style="fill:#D864FF; fill-opacity:0.4000; stroke:none;fill-rule:evenodd;"
d="M 19.0100,41.2750
18.1100,41.2750
18.1100,39.7750
19.0100,39.7750
Z" /> 
<path style="fill:#D864FF; fill-opacity:0.4000; stroke:none;fill-rule:evenodd;"
d="M 20.2800,41.2750
19.3800,41.2750
19.3800,39.7750
20.2800,39.7750
Z" /> 
<path style="fill:#D864FF; fill-opacity:0.4000; stroke:none;fill-rule:evenodd;"
d="M 21.5500,41.2750
20.6500,41.2750
20.6500,39.7750
21.5500,39.7750
Z" /> 
<path style="fill:#D864FF; fill-opacity:0.4000; stroke:none;fill-rule:evenodd;"
d="M 22.8200,41.2750
21.9200,41.2750
21.9200,39.7750
22.8200,39.7750
Z" /> 
<path style="fill:#D864FF; fill-opacity:0.4000; stroke:none;fill-rule:evenodd;"
d="M 24.0900,41.2750
23.1900,41.2750
23.1900,39.7750
24.0900,39.7750
Z" /> 
<path style="fill:#D864FF; fill-opacity:0.4000; stroke:none;fill-rule:evenodd;"
d="M 25.3600,41.2750
24.4600,41.2750
24.4600,39.7750
25.3600,39.7750
Z" /> 
<path style="fill:#D864FF; fill-opacity:0.4000; stroke:none;fill-rule:evenodd;"
d="M 26.6300,41.2750
25.7300,41.2750
25.7300,39.7750
26.6300,39.7750
Z" /> 
<path style="fill:#D864FF; fill-opacity:0.4000; stroke:none;fill-rule:evenodd;"
d="M 27.9000,41.2750
27.0000,41.2750
27.0000,39.7750
27.9000,39.7750
Z" /> 
<path style="fill:#D864FF; fill-opacity:0.4000; stroke:none;fill-rule:evenodd;"
d="M 29.1700,41.2750
28.2700,41.2750
28.2700,39.7750
29.1700,39.7750
Z" /> 
<path style="fill:#D864FF; fill-opacity:0.4000; stroke:none;fill-rule:evenodd;"
d="M 30.4400,41.2750
29.5400,41.2750
29.5400,39.7750
30.4400,39.7750
Z" /> 
<path style="fill:#D864FF; fill-opacity:0.4000; stroke:none;fill-rule:evenodd;"
d="M 32.2750,39.7250
32.2750,38.8250
33.7750,38.8250
33.7750,39.7250
Z" /> 
<path style="fill:#D864FF; fill-opacity:0.4000; stroke:none;fill-rule:evenodd;"
d="M 32.2750,38.4550
32.2750,37.5550
33.7750,37.5550
33.7750,38.4550
Z" /> 
<path style="fill:#D864FF; fill-opacity:0.4000; stroke:none;fill-rule:evenodd;"
d="M 32.2750,37.1850
32.2750,36.2850
33.7750,36.2850
33.7750,37.1850
Z" /> 
<path style="fill:#D864FF; fill-opacity:0.4000; stroke:none;fill-rule:evenodd;"
d="M 32.2750,35.9150
32.2750,35.0150
33.7750,35.0150
33.7750,35.9150
Z" /> 
<path style="fill:#D864FF; fill-opacity:0.4000; stroke:none;fill-rule:evenodd;"
d="M 32.2750,34.6450
32.2750,33.7450
33.7750,33.7450
33.7750,34.6450
Z" /> 
<path style="fill:#D864FF; fill-opacity:0.4000; stroke:none;fill-rule:evenodd;"
d="M 32.2750,33.3750
32.2750,32.4750
33.7750,32.4750
33.7750,33.3750
Z" /> 
<path style="fill:#D864FF; fill-opacity:0.4000; stroke:none;fill-rule:evenodd;"
d="M 32.2750,32.1050
32.2750,31.2050
33.7750,31.2050
33.7750,32.1050
Z" /> 
<path style="fill:#D864FF; fill-opacity:0.4000; stroke:none;fill-rule:evenodd;"
d="M 32.2750,30.8350
32.2750,29.9350
33.7750,29.9350
33.7750,30.8350
Z" /> 
<path style="fill:#D864FF; fill-opacity:0.4000; stroke:none;fill-rule:evenodd;"
d="M 32.2750,29.5650
32.2750,28.6650
33.7750,28.6650
33.7750,29.5650
Z" /> 
<path style="fill:#D864FF; fill-opacity:0.4000; stroke:none;fill-rule:evenodd;"
d="M 32.2750,28.2950
32.2750,27.3950
33.7750,27.3950
33.7750,28.2950
Z" /> 
<path style="fill:#D864FF; fill-opacity:0.4000; stroke:none;fill-rule:evenodd;"
d="M 32.2750,27.0250
32.2750,26.1250
33.7750,26.1250
33.7750,27.0250
Z" /> 
<path style="fill:#D864FF; fill-opacity:0.4000; stroke:none;fill-rule:evenodd;"
d="M 32.2750,25.7550
32.2750,24.8550
33.7750,24.8550
33.7750,25.7550
Z" /> 
<path style="fill:#D864FF; fill-opacity:0.4000; stroke:none;fill-rule:evenodd;"
d="M 32.2750,24.4850
32.2750,23.5850
33.7750,23.5850
33.7750,24.4850
Z" /> 
<path style="fill:#D864FF; fill-opacity:0.4000; stroke:none;fill-rule:evenodd;"
d="M 32.2750,23.2150
32.2750,22.3150
33.7750,22.3150
33.7750,23.2150
Z" /> 
<path style="fill:#D864FF; fill-opacity:0.4000; stroke:none;fill-rule:evenodd;"
d="M 20.9250,29.5350
20.9250,28.6350
21.8250,28.6350
21.8250,29.5350
Z" /> 
</g>
<g style="fill:#D864FF; fill-opacity:0.4000; stroke:none;">
<circle cx="21.3750" cy="29.7850" r="0.3000" /> 
<path style="fill:#D864FF; fill-opacity:0.4000; stroke:none;fill-rule:evenodd;"
d="M 20.9250,30.9350
20.9250,30.0350
21.8250,30.0350
21.8250,30.9350
Z" /> 
</g>
<g style="fill:#D864FF; fill-opacity:0.4000; stroke:none;">
<circle cx="21.3750" cy="31.1850" r="0.3000" /> 
<path style="fill:#D864FF; fill-opacity:0.4000; stroke:none;fill-rule:evenodd;"
d="M 20.9250,32.3350
20.9250,31.4350
21.8250,31.4350
21.8250,32.3350
Z" /> 
</g>
<g style="fill:#D864FF; fill-opacity:0.4000; stroke:none;">
<circle cx="22.0750" cy="29.0850" r="0.3000" /> 
</g>
<g style="fill:#D864FF; fill-opacity:0.4000; stroke:none;">
<circle cx="22.0750" cy="30.4850" r="0.3000" /> 
</g>
<g style="fill:#D864FF; fill-opacity:0.4000; stroke:none;">
<circle cx="22.0750" cy="31.8850" r="0.3000" /> 
<path style="fill:#D864FF; fill-opacity:0.4000; stroke:none;fill-rule:evenodd;"
d="M 22.3250,29.5350
22.3250,28.6350
23.2250,28.6350
23.2250,29.5350
Z" /> 
</g>
<g style="fill:#D864FF; fill-opacity:0.4000; stroke:none;">
<circle cx="22.7750" cy="29.7850" r="0.3000" /> 
<path style="fill:#D864FF; fill-opacity:0.4000; stroke:none;fill-rule:evenodd;"
d="M 22.3250,30.9350
22.3250,30.0350
23.2250,30.0350
23.2250,30.9350
Z" /> 
</g>
<g style="fill:#D864FF; fill-opacity:0.4000; stroke:none;">
<circle cx="22.7750" cy="31.1850" r="0.3000" /> 
<path style="fill:#D864FF; fill-opacity:0.4000; stroke:none;fill-rule:evenodd;"
d="M 22.3250,32.3350
22.3250,31.4350
23.2250,31.4350
23.2250,32.3350
Z" /> 
</g>
<g style="fill:#D864FF; fill-opacity:0.4000; stroke:none;">
<circle cx="23.4750" cy="29.0850" r="0.3000" /> 
</g>
<g style="fill:#D864FF; fill-opacity:0.4000; stroke:none;">
<circle cx="23.4750" cy="30.4850" r="0.3000" /> 
</g>
<g style="fill:#D864FF; fill-opacity:0.4000; stroke:none;">
<circle cx="23.4750" cy="31.8850" r="0.3000" /> 
<path style="fill:#D864FF; fill-opacity:0.4000; stroke:none;fill-rule:evenodd;"
d="M 23.7250,29.5350
23.7250,28.6350
24.6250,28.6350
24.6250,29.5350
Z" /> 
</g>
<g style="fill:#D864FF; fill-opacity:0.4000; stroke:none;">
<circle cx="24.1750" cy="29.7850" r="0.3000" /> 
<path style="fill:#D864FF; fill-opacity:0.4000; stroke:none;fill-rule:evenodd;"
d="M 23.7250,30.9350
23.7250,30.0350
24.6250,30.0350
24.6250,30.9350
Z" /> 
</g>
<g style="fill:#D864FF; fill-opacity:0.4000; stroke:none;">
<circle cx="24.1750" cy="31.1850" r="0.3000" /> 
<path style="fill:#D864FF; fill-opacity:0.4000; stroke:none;fill-rule:evenodd;"
d="M 23.7250,32.3350
23.7250,31.4350
24.6250,31.4350
24.6250,32.3350
Z" /> 
<path style="fill:#B4A09A; fill-opacity:0.9000; stroke:none;fill-rule:evenodd;"
d="M 14.7750,23.2150
14.7750,22.3150
16.2750,22.3150
16.2750,23.2150
Z" /> 
<path style="fill:#B4A09A; fill-opacity:0.9000; stroke:none;fill-rule:evenodd;"
d="M 14.7750,24.4850
14.7750,23.5850
16.2750,23.5850
16.2750,24.4850
Z" /> 
<path style="fill:#B4A09A; fill-opacity:0.9000; stroke:none;fill-rule:evenodd;"
d="M 14.7750,25.7550
14.7750,24.8550
16.2750,24.8550
16.2750,25.7550
Z" /> 
<path style="fill:#B4A09A; fill-opacity:0.9000; stroke:none;fill-rule:evenodd;"
d="M 14.7750,27.0250
14.7750,26.1250
16.2750,26.1250
16.2750,27.0250
Z" /> 
<path style="fill:#B4A09A; fill-opacity:0.9000; stroke:none;fill-rule:evenodd;"
d="M 14.7750,28.2950
14.7750,27.3950
16.2750,27.3950
16.2750,28.2950
Z" /> 
<path style="fill:#B4A09A; fill-opacity:0.9000; stroke:none;fill-rule:evenodd;"
d="M 14.7750,29.5650
14.7750,28.6650
16.2750,28.6650
16.2750,29.5650
Z" /> 
<path style="fill:#B4A09A; fill-opacity:0.9000; stroke:none;fill-rule:evenodd;"
d="M 14.7750,30.8350
14.7750,29.9350
16.2750,29.9350
16.2750,30.8350
Z" /> 
<path style="fill:#B4A09A; fill-opacity:0.9000; stroke:none;fill-rule:evenodd;"
d="M 14.7750,32.1050
14.7750,31.2050
16.2750,31.2050
16.2750,32.1050
Z" /> 
<path style="fill:#B4A09A; fill-opacity:0.9000; stroke:none;fill-rule:evenodd;"
d="M 14.7750,33.3750
14.7750,32.4750
16.2750,32.4750
16.2750,33.3750
Z" /> 
<path style="fill:#B4A09A; fill-opacity:0.9000; stroke:none;fill-rule:evenodd;"
d="M 14.7750,34.6450
14.7750,33.7450
16.2750,33.7450
16.2750,34.6450
Z" /> 
<path style="fill:#B4A09A; fill-opacity:0.9000; stroke:none;fill-rule:evenodd;"
d="M 14.7750,35.9150
14.7750,35.0150
16.2750,35.0150
16.2750,35.9150
Z" /> 
<path style="fill:#B4A09A; fill-opacity:0.9000; stroke:none;fill-rule:evenodd;"
d="M 14.7750,37.1850
14.7750,36.2850
16.2750,36.2850
16.2750,37.1850
Z" /> 
<path style="fill:#B4A09A; fill-opacity:0.9000; stroke:none;fill-rule:evenodd;"
d="M 14.7750,38.4550
14.7750,37.5550
16.2750,37.5550
16.2750,38.4550
Z" /> 
<path style="fill:#B4A09A; fill-opacity:0.9000; stroke:none;fill-rule:evenodd;"
d="M 14.7750,39.7250
14.7750,38.8250
16.2750,38.8250
16.2750,39.7250
Z" /> 
<path style="fill:#B4A09A; fill-opacity:0.9000; stroke:none;fill-rule:evenodd;"
d="M 19.0100,41.2750
18.1100,41.2750
18.1100,39.7750
19.0100,39.7750
Z" /> 
<path style="fill:#B4A09A; fill-opacity:0.9000; stroke:none;fill-rule:evenodd;"
d="M 20.2800,41.2750
19.3800,41.2750
19.3800,39.7750
20.2800,39.7750
Z" /> 
<path style="fill:#B4A09A; fill-opacity:0.9000; stroke:none;fill-rule:evenodd;"
d="M 21.5500,41.2750
20.6500,41.2750
20.6500,39.7750
21.5500,39.7750
Z" /> 
<path style="fill:#B4A09A; fill-opacity:0.9000; stroke:none;fill-rule:evenodd;"
d="M 22.8200,41.2750
21.9200,41.2750
21.9200,39.7750
22.8200,39.7750
Z" /> 
<path style="fill:#B4A09A; fill-opacity:0.9000; stroke:none;fill-rule:evenodd;"
d="M 24.0900,41.2750
23.1900,41.2750
23.1900,39.7750
24.0900,39.7750
Z" /> 
<path style="fill:#B4A09A; fill-opacity:0.9000; stroke:none;fill-rule:evenodd;"
d="M 25.3600,41.2750
24.4600,41.2750
24.4600,39.7750
25.3600,39.7750
Z" /> 
<path style="fill:#B4A09A; fill-opacity:0.9000; stroke:none;fill-rule:evenodd;"
d="M 26.6300,41.2750
25.7300,41.2750
25.7300,39.7750
26.6300,39.7750
Z" /> 
<path style="fill:#B4A09A; fill-opacity:0.9000; stroke:none;fill-rule:evenodd;"
d="M 27.9000,41.2750
27.0000,41.2750
27.0000,39.7750
27.9000,39.7750
Z" /> 
<path style="fill:#B4A09A; fill-opacity:0.9000; stroke:none;fill-rule:evenodd;"
d="M 29.1700,41.2750
28.2700,41.2750
28.2700,39.7750
29.1700,39.7750
Z" /> 
<path style="fill:#B4A09A; fill-opacity:0.9000; stroke:none;fill-rule:evenodd;"
d="M 30.4400,41.2750
29.5400,41.2750
29.5400,39.7750
30.4400,39.7750
Z" /> 
<path style="fill:#B4A09A; fill-opacity:0.9000; stroke:none;fill-rule:evenodd;"
d="M 32.2750,39.7250
32.2750,38.8250
33.7750,38.8250
33.7750,39.7250
Z" /> 
<path style="fill:#B4A09A; fill-opacity:0.9000; stroke:none;fill-rule:evenodd;"
d="M 32.2750,38.4550
32.2750,37.5550
33.7750,37.5550
33.7750,38.4550
Z" /> 
<path style="fill:#B4A09A; fill-opacity:0.9000; stroke:none;fill-rule:evenodd;"
d="M 32.2750,37.1850
32.2750,36.2850
33.7750,36.2850
33.7750,37.1850
Z" /> 
<path style="fill:#B4A09A; fill-opacity:0.9000; stroke:none;fill-rule:evenodd;"
d="M 32.2750,35.9150
32.2750,35.0150
33.7750,35.0150
33.7750,35.9150
Z" /> 
<path style="fill:#B4A09A; fill-opacity:0.9000; stroke:none;fill-rule:evenodd;"
d="M 32.2750,34.6450
32.2750,33.7450
33.7750,33.7450
33.7750,34.6450
Z" /> 
<path style="fill:#B4A09A; fill-opacity:0.9000; stroke:none;fill-rule:evenodd;"
d="M 32.2750,33.3750
32.2750,32.4750
33.7750,32.4750
33.7750,33.3750
Z" /> 
<path style="fill:#B4A09A; fill-opacity:0.9000; stroke:none;fill-rule:evenodd;"
d="M 32.2750,32.1050
32.2750,31.2050
33.7750,31.2050
33.7750,32.1050
Z" /> 
<path style="fill:#B4A09A; fill-opacity:0.9000; stroke:none;fill-rule:evenodd;"
d="M 32.2750,30.8350
32.2750,29.9350
33.7750,29.9350
33.7750,30.8350
Z" /> 
<path style="fill:#B4A09A; fill-opacity:0.9000; stroke:none;fill-rule:evenodd;"
d="M 32.2750,29.5650
32.2750,28.6650
33.7750,28.6650
33.7750,29.5650
Z" /> 
<path style="fill:#B4A09A; fill-opacity:0.9000; stroke:none;fill-rule:evenodd;"
d="M 32.2750,28.2950
32.2750,27.3950
33.7750,27.3950
33.7750,28.2950
Z" /> 
<path style="fill:#B4A09A; fill-opacity:0.9000; stroke:none;fill-rule:evenodd;"
d="M 32.2750,27.0250
32.2750,26.1250
33.7750,26.1250
33.7750,27.0250
Z" /> 
<path style="fill:#B4A09A; fill-opacity:0.9000; stroke:none;fill-rule:evenodd;"
d="M 32.2750,25.7550
32.2750,24.8550
33.7750,24.8550
33.7750,25.7550
Z" /> 
<path style="fill:#B4A09A; fill-opacity:0.9000; stroke:none;fill-rule:evenodd;"
d="M 32.2750,24.4850
32.2750,23.5850
33.7750,23.5850
33.7750,24.4850
Z" /> 
<path style="fill:#B4A09A; fill-opacity:0.9000; stroke:none;fill-rule:evenodd;"
d="M 32.2750,23.2150
32.2750,22.3150
33.7750,22.3150
33.7750,23.2150
Z" /> 
<path style="fill:#B4A09A; fill-opacity:0.9000; stroke:none;fill-rule:evenodd;"
d="M 20.9250,29.5350
20.9250,28.6350
21.8250,28.6350
21.8250,29.5350
Z" /> 
<path style="fill:#B4A09A; fill-opacity:0.9000; stroke:none;fill-rule:evenodd;"
d="M 20.9250,30.9350
20.9250,30.0350
21.8250,30.0350
21.8250,30.9350
Z" /> 
<path style="fill:#B4A09A; fill-opacity:0.9000; stroke:none;fill-rule:evenodd;"
d="M 20.9250,32.3350
20.9250,31.4350
21.8250,31.4350
21.8250,32.3350
Z" /> 
<path style="fill:#B4A09A; fill-opacity:0.9000; stroke:none;fill-rule:evenodd;"
d="M 22.3250,29.5350
22.3250,28.6350
23.2250,28.6350
23.2250,29.5350
Z" /> 
<path style="fill:#B4A09A; fill-opacity:0.9000; stroke:none;fill-rule:evenodd;"
d="M 22.3250,30.9350
22.3250,30.0350
23.2250,30.0350
23.2250,30.9350
Z" /> 
<path style="fill:#B4A09A; fill-opacity:0.9000; stroke:none;fill-rule:evenodd;"
d="M 22.3250,32.3350
22.3250,31.4350
23.2250,31.4350
23.2250,32.3350
Z" /> 
<path style="fill:#B4A09A; fill-opacity:0.9000; stroke:none;fill-rule:evenodd;"
d="M 23.7250,29.5350
23.7250,28.6350
24.6250,28.6350
24.6250,29.5350
Z" /> 
<path style="fill:#B4A09A; fill-opacity:0.9000; stroke:none;fill-rule:evenodd;"
d="M 23.7250,30.9350
23.7250,30.0350
24.6250,30.0350
24.6250,30.9350
Z" /> 
<path style="fill:#B4A09A; fill-opacity:0.9000; stroke:none;fill-rule:evenodd;"
d="M 23.7250,32.3350
23.7250,31.4350
24.6250,31.4350
24.6250,32.3350
Z" /> 
</g>
<g style="fill:none; 
stroke:#F2EDA1; stroke-width:0.1588; stroke-opacity:1; 
stroke-linecap:round; stroke-linejoin:round;">
<text x="24.2750" y="28.6600"
textLength="5.6651" font-size="1.6933" lengthAdjust="spacingAndGlyphs"
text-anchor="middle" opacity="0">REF**</text>
<g class="stroked-text"><desc>REF**</desc>
<path d="M22.5817 28.6043
L22.1583 27.9995
" />
<path d="M21.8560 28.6043
L21.8560 27.3343
" />
<path d="M21.8560 27.3343
L22.3398 27.3343
" />
<path d="M22.3398 27.3343
L22.4607 27.3947
" />
<path d="M22.4607 27.3947
L22.5212 27.4552
" />
<path d="M22.5212 27.4552
L22.5817 27.5762
" />
<path d="M22.5817 27.5762
L22.5817 27.7576
" />
<path d="M22.5817 27.7576
L22.5212 27.8786
" />
<path d="M22.5212 27.8786
L22.4607 27.9390
" />
<path d="M22.4607 27.9390
L22.3398 27.9995
" />
<path d="M22.3398 27.9995
L21.8560 27.9995
" />
<path d="M23.1260 27.9390
L23.5493 27.9390
" />
<path d="M23.7307 28.6043
L23.1260 28.6043
" />
<path d="M23.1260 28.6043
L23.1260 27.3343
" />
<path d="M23.1260 27.3343
L23.7307 27.3343
" />
<path d="M24.6983 27.9390
L24.2750 27.9390
" />
<path d="M24.2750 28.6043
L24.2750 27.3343
" />
<path d="M24.2750 27.3343
L24.8798 27.3343
" />
<path d="M25.5450 27.3343
L25.5450 27.6367
" />
<path d="M25.2426 27.5157
L25.5450 27.6367
" />
<path d="M25.5450 27.6367
L25.8474 27.5157
" />
<path d="M25.3636 27.8786
L25.5450 27.6367
" />
<path d="M25.5450 27.6367
L25.7264 27.8786
" />
<path d="M26.5126 27.3343
L26.5126 27.6367
" />
<path d="M26.2102 27.5157
L26.5126 27.6367
" />
<path d="M26.5126 27.6367
L26.8150 27.5157
" />
<path d="M26.3312 27.8786
L26.5126 27.6367
" />
<path d="M26.5126 27.6367
L26.6940 27.8786
" />
</g></g>
<g style="fill:none; 
stroke:#F2EDA1; stroke-width:0.1200; stroke-opacity:1; 
stroke-linecap:round; stroke-linejoin:round;">
<path d="M15.0750 40.9750
L15.0750 40.0250
" />
<path d="M16.4750 40.9750
L15.0750 40.9750
" />
<path d="M32.0750 40.9750
L33.4750 40.9750
" />
<path d="M33.4750 40.9750
L33.4750 40.0250
" />
<path style="fill:#F2EDA1; fill-opacity:1.0000; 
stroke:#F2EDA1; stroke-width:0.1200; stroke-opacity:1; 
stroke-linecap:round; stroke-linejoin:round;fill-rule:evenodd;"
d="M 15.0750,22.0250
14.5750,22.0250
15.0750,21.5250
Z" /> 
</g>
<g style="fill:#FFFFFF; fill-opacity:1.0000; stroke:none;">
<circle cx="21.3750" cy="29.7850" r="0.1000" /> 
</g>
<g style="fill:#FFFFFF; fill-opacity:1.0000; stroke:none;">
<circle cx="21.3750" cy="31.1850" r="0.1000" /> 
</g>
<g style="fill:#FFFFFF; fill-opacity:1.0000; stroke:none;">
<circle cx="22.0750" cy="29.0850" r="0.1000" /> 
</g>
<g style="fill:#FFFFFF; fill-opacity:1.0000; stroke:none;">
<circle cx="22.0750" cy="30.4850" r="0.1000" /> 
</g>
<g style="fill:#FFFFFF; fill-opacity:1.0000; stroke:none;">
<circle cx="22.0750" cy="31.8850" r="0.1000" /> 
</g>
<g style="fill:#FFFFFF; fill-opacity:1.0000; stroke:none;">
<circle cx="22.7750" cy="29.7850" r="0.1000" /> 
</g>
<g style="fill:#FFFFFF; fill-opacity:1.0000; stroke:none;">
<circle cx="22.7750" cy="31.1850" r="0.1000" /> 
</g>
<g style="fill:#FFFFFF; fill-opacity:1.0000; stroke:none;">
<circle cx="23.4750" cy="29.0850" r="0.1000" /> 
</g>
<g style="fill:#FFFFFF; fill-opacity:1.0000; stroke:none;">
<circle cx="23.4750" cy="30.4850" r="0.1000" /> 
</g>
<g style="fill:#FFFFFF; fill-opacity:1.0000; stroke:none;">
<circle cx="23.4750" cy="31.8850" r="0.1000" /> 
</g>
<g style="fill:#FFFFFF; fill-opacity:1.0000; stroke:none;">
<circle cx="24.1750" cy="29.7850" r="0.1000" /> 
</g>
<g style="fill:#FFFFFF; fill-opacity:1.0000; stroke:none;">
<circle cx="24.1750" cy="31.1850" r="0.1000" /> 
<path style="fill:none; 
stroke:#FF26E2; stroke-width:0.0500; stroke-opacity:1; 
stroke-linecap:round; stroke-linejoin:round;fill:none"
d="M 48.5250,21.7150
34.0250,21.7150
34.0250,41.5650
14.5250,41.5650
14.5250,21.7150
0.0250,21.7150
0.0250,0.0250
48.5250,0.0250
Z" /> 
</g>
<g style="fill:none; 
stroke:#AFAFAF; stroke-width:0.1588; stroke-opacity:1; 
stroke-linecap:round; stroke-linejoin:round;">
<text x="24.2750" y="28.6600"
textLength="19.8165" font-size="1.6933" lengthAdjust="spacingAndGlyphs"
text-anchor="middle" opacity="0">ESP32-WROOM-32E</text>
<g class="stroked-text"><desc>ESP32-WROOM-32E</desc>
<path d="M14.7802 27.9390
L15.2036 27.9390
" />
<path d="M15.3850 28.6043
L14.7802 28.6043
" />
<path d="M14.7802 28.6043
L14.7802 27.3343
" />
<path d="M14.7802 27.3343
L15.3850 27.3343
" />
<path d="M15.8688 28.5438
L16.0502 28.6043
" />
<path d="M16.0502 28.6043
L16.3526 28.6043
" />
<path d="M16.3526 28.6043
L16.4736 28.5438
" />
<path d="M16.4736 28.5438
L16.5340 28.4833
" />
<path d="M16.5340 28.4833
L16.5945 28.3624
" />
<path d="M16.5945 28.3624
L16.5945 28.2414
" />
<path d="M16.5945 28.2414
L16.5340 28.1205
" />
<path d="M16.5340 28.1205
L16.4736 28.0600
" />
<path d="M16.4736 28.0600
L16.3526 27.9995
" />
<path d="M16.3526 27.9995
L16.1107 27.9390
" />
<path d="M16.1107 27.9390
L15.9898 27.8786
" />
<path d="M15.9898 27.8786
L15.9293 27.8181
" />
<path d="M15.9293 27.8181
L15.8688 27.6971
" />
<path d="M15.8688 27.6971
L15.8688 27.5762
" />
<path d="M15.8688 27.5762
L15.9293 27.4552
" />
<path d="M15.9293 27.4552
L15.9898 27.3947
" />
<path d="M15.9898 27.3947
L16.1107 27.3343
" />
<path d="M16.1107 27.3343
L16.4131 27.3343
" />
<path d="M16.4131 27.3343
L16.5945 27.3947
" />
<path d="M17.1388 28.6043
L17.1388 27.3343
" />
<path d="M17.1388 27.3343
L17.6226 27.3343
" />
<path d="M17.6226 27.3343
L17.7436 27.3947
" />
<path d="M17.7436 27.3947
L17.8040 27.4552
" />
<path d="M17.8040 27.4552
L17.8645 27.5762
" />
<path d="M17.8645 27.5762
L17.8645 27.7576
" />
<path d="M17.8645 27.7576
L17.8040 27.8786
" />
<path d="M17.8040 27.8786
L17.7436 27.9390
" />
<path d="M17.7436 27.9390
L17.6226 27.9995
" />
<path d="M17.6226 27.9995
L17.1388 27.9995
" />
<path d="M18.2879 27.3343
L19.0740 27.3343
" />
<path d="M19.0740 27.3343
L18.6507 27.8181
" />
<path d="M18.6507 27.8181
L18.8321 27.8181
" />
<path d="M18.8321 27.8181
L18.9531 27.8786
" />
<path d="M18.9531 27.8786
L19.0136 27.9390
" />
<path d="M19.0136 27.9390
L19.0740 28.0600
" />
<path d="M19.0740 28.0600
L19.0740 28.3624
" />
<path d="M19.0740 28.3624
L19.0136 28.4833
" />
<path d="M19.0136 28.4833
L18.9531 28.5438
" />
<path d="M18.9531 28.5438
L18.8321 28.6043
" />
<path d="M18.8321 28.6043
L18.4693 28.6043
" />
<path d="M18.4693 28.6043
L18.3483 28.5438
" />
<path d="M18.3483 28.5438
L18.2879 28.4833
" />
<path d="M19.5579 27.4552
L19.6183 27.3947
" />
<path d="M19.6183 27.3947
L19.7393 27.3343
" />
<path d="M19.7393 27.3343
L20.0417 27.3343
" />
<path d="M20.0417 27.3343
L20.1626 27.3947
" />
<path d="M20.1626 27.3947
L20.2231 27.4552
" />
<path d="M20.2231 27.4552
L20.2836 27.5762
" />
<path d="M20.2836 27.5762
L20.2836 27.6971
" />
<path d="M20.2836 27.6971
L20.2231 27.8786
" />
<path d="M20.2231 27.8786
L19.4974 28.6043
" />
<path d="M19.4974 28.6043
L20.2836 28.6043
" />
<path d="M20.8279 28.1205
L21.7955 28.1205
" />
<path d="M22.2793 27.3343
L22.5817 28.6043
" />
<path d="M22.5817 28.6043
L22.8236 27.6971
" />
<path d="M22.8236 27.6971
L23.0655 28.6043
" />
<path d="M23.0655 28.6043
L23.3679 27.3343
" />
<path d="M24.5774 28.6043
L24.1540 27.9995
" />
<path d="M23.8517 28.6043
L23.8517 27.3343
" />
<path d="M23.8517 27.3343
L24.3355 27.3343
" />
<path d="M24.3355 27.3343
L24.4564 27.3947
" />
<path d="M24.4564 27.3947
L24.5169 27.4552
" />
<path d="M24.5169 27.4552
L24.5774 27.5762
" />
<path d="M24.5774 27.5762
L24.5774 27.7576
" />
<path d="M24.5774 27.7576
L24.5169 27.8786
" />
<path d="M24.5169 27.8786
L24.4564 27.9390
" />
<path d="M24.4564 27.9390
L24.3355 27.9995
" />
<path d="M24.3355 27.9995
L23.8517 27.9995
" />
<path d="M25.3636 27.3343
L25.6055 27.3343
" />
<path d="M25.6055 27.3343
L25.7264 27.3947
" />
<path d="M25.7264 27.3947
L25.8474 27.5157
" />
<path d="M25.8474 27.5157
L25.9079 27.7576
" />
<path d="M25.9079 27.7576
L25.9079 28.1809
" />
<path d="M25.9079 28.1809
L25.8474 28.4228
" />
<path d="M25.8474 28.4228
L25.7264 28.5438
" />
<path d="M25.7264 28.5438
L25.6055 28.6043
" />
<path d="M25.6055 28.6043
L25.3636 28.6043
" />
<path d="M25.3636 28.6043
L25.2426 28.5438
" />
<path d="M25.2426 28.5438
L25.1217 28.4228
" />
<path d="M25.1217 28.4228
L25.0612 28.1809
" />
<path d="M25.0612 28.1809
L25.0612 27.7576
" />
<path d="M25.0612 27.7576
L25.1217 27.5157
" />
<path d="M25.1217 27.5157
L25.2426 27.3947
" />
<path d="M25.2426 27.3947
L25.3636 27.3343
" />
<path d="M26.6940 27.3343
L26.9360 27.3343
" />
<path d="M26.9360 27.3343
L27.0569 27.3947
" />
<path d="M27.0569 27.3947
L27.1779 27.5157
" />
<path d="M27.1779 27.5157
L27.2383 27.7576
" />
<path d="M27.2383 27.7576
L27.2383 28.1809
" />
<path d="M27.2383 28.1809
L27.1779 28.4228
" />
<path d="M27.1779 28.4228
L27.0569 28.5438
" />
<path d="M27.0569 28.5438
L26.9360 28.6043
" />
<path d="M26.9360 28.6043
L26.6940 28.6043
" />
<path d="M26.6940 28.6043
L26.5731 28.5438
" />
<path d="M26.5731 28.5438
L26.4521 28.4228
" />
<path d="M26.4521 28.4228
L26.3917 28.1809
" />
<path d="M26.3917 28.1809
L26.3917 27.7576
" />
<path d="M26.3917 27.7576
L26.4521 27.5157
" />
<path d="M26.4521 27.5157
L26.5731 27.3947
" />
<path d="M26.5731 27.3947
L26.6940 27.3343
" />
<path d="M27.7826 28.6043
L27.7826 27.3343
" />
<path d="M27.7826 27.3343
L28.2060 28.2414
" />
<path d="M28.2060 28.2414
L28.6293 27.3343
" />
<path d="M28.6293 27.3343
L28.6293 28.6043
" />
<path d="M29.2340 28.1205
L30.2017 28.1205
" />
<path d="M30.6855 27.3343
L31.4717 27.3343
" />
<path d="M31.4717 27.3343
L31.0483 27.8181
" />
<path d="M31.0483 27.8181
L31.2298 27.8181
" />
<path d="M31.2298 27.8181
L31.3507 27.8786
" />
<path d="M31.3507 27.8786
L31.4112 27.9390
" />
<path d="M31.4112 27.9390
L31.4717 28.0600
" />
<path d="M31.4717 28.0600
L31.4717 28.3624
" />
<path d="M31.4717 28.3624
L31.4112 28.4833
" />
<path d="M31.4112 28.4833
L31.3507 28.5438
" />
<path d="M31.3507 28.5438
L31.2298 28.6043
" />
<path d="M31.2298 28.6043
L30.8669 28.6043
" />
<path d="M30.8669 28.6043
L30.7460 28.5438
" />
<path d="M30.7460 28.5438
L30.6855 28.4833
" />
<path d="M31.9555 27.4552
L32.0160 27.3947
" />
<path d="M32.0160 27.3947
L32.1369 27.3343
" />
<path d="M32.1369 27.3343
L32.4393 27.3343
" />
<path d="M32.4393 27.3343
L32.5602 27.3947
" />
<path d="M32.5602 27.3947
L32.6207 27.4552
" />
<path d="M32.6207 27.4552
L32.6812 27.5762
" />
<path d="M32.6812 27.5762
L32.6812 27.6971
" />
<path d="M32.6812 27.6971
L32.6207 27.8786
" />
<path d="M32.6207 27.8786
L31.8950 28.6043
" />
<path d="M31.8950 28.6043
L32.6812 28.6043
" />
<path d="M33.2255 27.9390
L33.6488 27.9390
" />
<path d="M33.8302 28.6043
L33.2255 28.6043
" />
<path d="M33.2255 28.6043
L33.2255 27.3343
" />
<path d="M33.2255 27.3343
L33.8302 27.3343
" />
</g></g>
<g style="fill:none; 
stroke:#AFAFAF; stroke-width:0.1500; stroke-opacity:1; 
stroke-linecap:round; stroke-linejoin:round;">
<text x="24.2750" y="27.5250"
textLength="4.5357" font-size="1.3333" lengthAdjust="spacingAndGlyphs"
text-anchor="middle" opacity="0">REF**</text>
<g class="stroked-text"><desc>REF**</desc>
<path d="M22.9417 27.4798
L22.6083 27.0036
" />
<path d="M22.3702 27.4798
L22.3702 26.4798
" />
<path d="M22.3702 26.4798
L22.7512 26.4798
" />
<path d="M22.7512 26.4798
L22.8464 26.5274
" />
<path d="M22.8464 26.5274
L22.8940 26.5751
" />
<path d="M22.8940 26.5751
L22.9417 26.6703
" />
<path d="M22.9417 26.6703
L22.9417 26.8132
" />
<path d="M22.9417 26.8132
L22.8940 26.9084
" />
<path d="M22.8940 26.9084
L22.8464 26.9560
" />
<path d="M22.8464 26.9560
L22.7512 27.0036
" />
<path d="M22.7512 27.0036
L22.3702 27.0036
" />
<path d="M23.3702 26.9560
L23.7036 26.9560
" />
<path d="M23.8464 27.4798
L23.3702 27.4798
" />
<path d="M23.3702 27.4798
L23.3702 26.4798
" />
<path d="M23.3702 26.4798
L23.8464 26.4798
" />
<path d="M24.6083 26.9560
L24.2750 26.9560
" />
<path d="M24.2750 27.4798
L24.2750 26.4798
" />
<path d="M24.2750 26.4798
L24.7512 26.4798
" />
<path d="M25.2750 26.4798
L25.2750 26.7179
" />
<path d="M25.0369 26.6227
L25.2750 26.7179
" />
<path d="M25.2750 26.7179
L25.5131 26.6227
" />
<path d="M25.1321 26.9084
L25.2750 26.7179
" />
<path d="M25.2750 26.7179
L25.4179 26.9084
" />
<path d="M26.0369 26.4798
L26.0369 26.7179
" />
<path d="M25.7988 26.6227
L26.0369 26.7179
" />
<path d="M26.0369 26.7179
L26.2750 26.6227
" />
<path d="M25.8940 26.9084
L26.0369 26.7179
" />
<path d="M26.0369 26.7179
L26.1798 26.9084
" />
</g></g>
<g style="fill:none; 
stroke:#AFAFAF; stroke-width:0.1000; stroke-opacity:1; 
stroke-linecap:round; stroke-linejoin:round;">
<path d="M15.2750 15.2750
L33.2750 15.2750
" />
<path d="M15.2750 21.4650
L15.2750 15.2750
" />
<path d="M33.2750 15.2750
L33.2750 21.4650
" />
<path style="fill:none; 
stroke:#AFAFAF; stroke-width:0.1000; stroke-opacity:1; 
stroke-linecap:round; stroke-linejoin:round;fill:none"
d="M 15.2750,21.4650
33.2750,21.4650
33.2750,40.7750
15.2750,40.7750
Z" /> 
<path style="fill:#AFAFAF; fill-opacity:1.0000; 
stroke:#AFAFAF; stroke-width:0.1000; stroke-opacity:1; 
stroke-linecap:round; stroke-linejoin:round;fill-rule:evenodd;"
d="M 19.2750,18.2750
21.2750,18.2750
21.2750,15.7750
24.2750,15.7750
24.2750,18.2750
26.2750,18.2750
26.2750,15.7750
31.7750,15.7750
31.7750,21.2750
31.2750,21.2750
31.2750,16.2750
29.2750,16.2750
29.2750,21.2750
28.7750,21.2750
28.7750,16.2750
26.7750,16.2750
26.7750,18.7750
23.7750,18.7750
23.7750,16.2750
21.7750,16.2750
21.7750,18.7750
18.7750,18.7750
18.7750,16.2750
16.7750,16.2750
16.7750,19.7750
16.2750,19.7750
16.2750,15.7750
19.2750,15.7750
Z" /> 
</g> 
</svg>
