<?xml version="1.0" standalone="no"?>
 <!DOCTYPE svg PUBLIC "-//W3C//DTD SVG 1.1//EN" 
 "http://www.w3.org/Graphics/SVG/1.1/DTD/svg11.dtd"> 
<svg
  xmlns:svg="http://www.w3.org/2000/svg"
  xmlns="http://www.w3.org/2000/svg"
  xmlns:xlink="http://www.w3.org/1999/xlink"
  version="1.1"
  width="48.9458mm" height="29.6418mm" viewBox="0.0000 0.0000 48.9458 29.6418">
<title>SVG Image created as working-brd.svg date 2024/04/24 01:04:12 </title>
  <desc>Image generated by PCBNEW </desc>
<g style="fill:#000000; fill-opacity:1.0000;stroke:#000000; stroke-opacity:1.0000;
stroke-linecap:round; stroke-linejoin:round;"
 transform="translate(0 0) scale(1 1)">
</g>
<g style="fill:#FFFFFF; fill-opacity:1.0000; stroke:none;">
<circle cx="21.6406" cy="4.8250" r="0.6500" /> 
</g>
<g style="fill:#FFFFFF; fill-opacity:1.0000; stroke:none;">
<circle cx="41.6406" cy="4.8250" r="0.6500" /> 
</g>
<g style="fill:#FFFFFF; fill-opacity:1.0000; stroke:none;">
<circle cx="41.6406" cy="24.8250" r="0.6500" /> 
</g>
<g style="fill:#FFFFFF; fill-opacity:1.0000; stroke:none;">
<circle cx="36.6406" cy="24.8250" r="0.6500" /> 
</g>
<g style="fill:#FFFFFF; fill-opacity:1.0000; stroke:none;">
<circle cx="26.6406" cy="24.8250" r="0.6500" /> 
</g>
<g style="fill:#FFFFFF; fill-opacity:1.0000; stroke:none;">
<circle cx="21.6406" cy="24.8250" r="0.6500" /> 
<path style="fill:#02FFEE; fill-opacity:0.4000; stroke:none;fill-rule:evenodd;"
d="M 20.4906,5.9750
20.4906,3.6750
22.7906,3.6750
22.7906,5.9750
Z" /> 
</g>
<g style="fill:#02FFEE; fill-opacity:0.4000; stroke:none;">
<circle cx="41.6406" cy="4.8250" r="1.1500" /> 
</g>
<g style="fill:#02FFEE; fill-opacity:0.4000; stroke:none;">
<circle cx="41.6406" cy="24.8250" r="1.1500" /> 
</g>
<g style="fill:#02FFEE; fill-opacity:0.4000; stroke:none;">
<circle cx="36.6406" cy="24.8250" r="1.1500" /> 
</g>
<g style="fill:#02FFEE; fill-opacity:0.4000; stroke:none;">
<circle cx="26.6406" cy="24.8250" r="1.1500" /> 
</g>
<g style="fill:#02FFEE; fill-opacity:0.4000; stroke:none;">
<circle cx="21.6406" cy="24.8250" r="1.1500" /> 
</g>
<g style="fill:#FFFFFF; fill-opacity:1.0000; stroke:none;">
<circle cx="21.6406" cy="4.8250" r="0.6500" /> 
</g>
<g style="fill:#FFFFFF; fill-opacity:1.0000; stroke:none;">
<circle cx="41.6406" cy="4.8250" r="0.6500" /> 
</g>
<g style="fill:#FFFFFF; fill-opacity:1.0000; stroke:none;">
<circle cx="41.6406" cy="24.8250" r="0.6500" /> 
</g>
<g style="fill:#FFFFFF; fill-opacity:1.0000; stroke:none;">
<circle cx="36.6406" cy="24.8250" r="0.6500" /> 
</g>
<g style="fill:#FFFFFF; fill-opacity:1.0000; stroke:none;">
<circle cx="26.6406" cy="24.8250" r="0.6500" /> 
</g>
<g style="fill:#FFFFFF; fill-opacity:1.0000; stroke:none;">
<circle cx="21.6406" cy="24.8250" r="0.6500" /> 
</g>
<g style="fill:#FFFFFF; fill-opacity:1.0000; stroke:none;">
<circle cx="21.6406" cy="4.8250" r="0.6500" /> 
</g>
<g style="fill:#FFFFFF; fill-opacity:1.0000; stroke:none;">
<circle cx="41.6406" cy="4.8250" r="0.6500" /> 
</g>
<g style="fill:#FFFFFF; fill-opacity:1.0000; stroke:none;">
<circle cx="41.6406" cy="24.8250" r="0.6500" /> 
</g>
<g style="fill:#FFFFFF; fill-opacity:1.0000; stroke:none;">
<circle cx="36.6406" cy="24.8250" r="0.6500" /> 
</g>
<g style="fill:#FFFFFF; fill-opacity:1.0000; stroke:none;">
<circle cx="26.6406" cy="24.8250" r="0.6500" /> 
</g>
<g style="fill:#FFFFFF; fill-opacity:1.0000; stroke:none;">
<circle cx="21.6406" cy="24.8250" r="0.6500" /> 
<path style="fill:#D864FF; fill-opacity:0.4000; stroke:none;fill-rule:evenodd;"
d="M 20.4906,5.9750
20.4906,3.6750
22.7906,3.6750
22.7906,5.9750
Z" /> 
</g>
<g style="fill:#D864FF; fill-opacity:0.4000; stroke:none;">
<circle cx="41.6406" cy="4.8250" r="1.1500" /> 
</g>
<g style="fill:#D864FF; fill-opacity:0.4000; stroke:none;">
<circle cx="41.6406" cy="24.8250" r="1.1500" /> 
</g>
<g style="fill:#D864FF; fill-opacity:0.4000; stroke:none;">
<circle cx="36.6406" cy="24.8250" r="1.1500" /> 
</g>
<g style="fill:#D864FF; fill-opacity:0.4000; stroke:none;">
<circle cx="26.6406" cy="24.8250" r="1.1500" /> 
</g>
<g style="fill:#D864FF; fill-opacity:0.4000; stroke:none;">
<circle cx="21.6406" cy="24.8250" r="1.1500" /> 
</g>
<g style="fill:none; 
stroke:#F2EDA1; stroke-width:0.1588; stroke-opacity:1; 
stroke-linecap:round; stroke-linejoin:round;">
<text x="21.6406" y="5.4600"
textLength="5.6651" font-size="1.6933" lengthAdjust="spacingAndGlyphs"
text-anchor="middle" opacity="0">REF**</text>
<g class="stroked-text"><desc>REF**</desc>
<path d="M19.9473 5.4043
L19.5240 4.7995
" />
<path d="M19.2216 5.4043
L19.2216 4.1343
" />
<path d="M19.2216 4.1343
L19.7054 4.1343
" />
<path d="M19.7054 4.1343
L19.8264 4.1947
" />
<path d="M19.8264 4.1947
L19.8868 4.2552
" />
<path d="M19.8868 4.2552
L19.9473 4.3762
" />
<path d="M19.9473 4.3762
L19.9473 4.5576
" />
<path d="M19.9473 4.5576
L19.8868 4.6786
" />
<path d="M19.8868 4.6786
L19.8264 4.7390
" />
<path d="M19.8264 4.7390
L19.7054 4.7995
" />
<path d="M19.7054 4.7995
L19.2216 4.7995
" />
<path d="M20.4916 4.7390
L20.9149 4.7390
" />
<path d="M21.0964 5.4043
L20.4916 5.4043
" />
<path d="M20.4916 5.4043
L20.4916 4.1343
" />
<path d="M20.4916 4.1343
L21.0964 4.1343
" />
<path d="M22.0640 4.7390
L21.6406 4.7390
" />
<path d="M21.6406 5.4043
L21.6406 4.1343
" />
<path d="M21.6406 4.1343
L22.2454 4.1343
" />
<path d="M22.9106 4.1343
L22.9106 4.4367
" />
<path d="M22.6083 4.3157
L22.9106 4.4367
" />
<path d="M22.9106 4.4367
L23.2130 4.3157
" />
<path d="M22.7292 4.6786
L22.9106 4.4367
" />
<path d="M22.9106 4.4367
L23.0921 4.6786
" />
<path d="M23.8783 4.1343
L23.8783 4.4367
" />
<path d="M23.5759 4.3157
L23.8783 4.4367
" />
<path d="M23.8783 4.4367
L24.1806 4.3157
" />
<path d="M23.6968 4.6786
L23.8783 4.4367
" />
<path d="M23.8783 4.4367
L24.0597 4.6786
" />
</g></g>
<g style="fill:none; 
stroke:#F2EDA1; stroke-width:0.1200; stroke-opacity:1; 
stroke-linecap:round; stroke-linejoin:round;">
<path d="M14.6406 3.8250
L14.6406 5.8250
" />
<path style="fill:none; 
stroke:#F2EDA1; stroke-width:0.1200; stroke-opacity:1; 
stroke-linecap:round; stroke-linejoin:round;fill:none"
d="M 48.0506,28.7350
15.2306,28.7350
15.2306,0.9150
48.0506,0.9150
Z" /> 
</g>
<g style="fill:#FFFFFF; fill-opacity:1.0000; stroke:none;">
<circle cx="21.6406" cy="4.8250" r="0.6500" /> 
</g>
<g style="fill:#FFFFFF; fill-opacity:1.0000; stroke:none;">
<circle cx="41.6406" cy="4.8250" r="0.6500" /> 
</g>
<g style="fill:#FFFFFF; fill-opacity:1.0000; stroke:none;">
<circle cx="41.6406" cy="24.8250" r="0.6500" /> 
</g>
<g style="fill:#FFFFFF; fill-opacity:1.0000; stroke:none;">
<circle cx="36.6406" cy="24.8250" r="0.6500" /> 
</g>
<g style="fill:#FFFFFF; fill-opacity:1.0000; stroke:none;">
<circle cx="26.6406" cy="24.8250" r="0.6500" /> 
</g>
<g style="fill:#FFFFFF; fill-opacity:1.0000; stroke:none;">
<circle cx="21.6406" cy="24.8250" r="0.6500" /> 
<path style="fill:none; 
stroke:#FF26E2; stroke-width:0.0500; stroke-opacity:1; 
stroke-linecap:round; stroke-linejoin:round;fill:none"
d="M 48.9406,29.6250
14.3406,29.6250
14.3406,0.0250
48.9406,0.0250
Z" /> 
</g>
<g style="fill:none; 
stroke:#AFAFAF; stroke-width:0.1588; stroke-opacity:1; 
stroke-linecap:round; stroke-linejoin:round;">
<text x="21.6406" y="5.4600"
textLength="43.2813" font-size="1.6933" lengthAdjust="spacingAndGlyphs"
text-anchor="middle" opacity="0">Transformer_Myrra_EI30-5_44000_Horizontal</text>
<g class="stroked-text"><desc>Transformer_Myrra_EI30-5_44000_Horizontal</desc>
<path d="M0.2321 4.1343
L0.9578 4.1343
" />
<path d="M0.5949 5.4043
L0.5949 4.1343
" />
<path d="M1.3811 5.4043
L1.3811 4.5576
" />
<path d="M1.3811 4.7995
L1.4416 4.6786
" />
<path d="M1.4416 4.6786
L1.5021 4.6181
" />
<path d="M1.5021 4.6181
L1.6230 4.5576
" />
<path d="M1.6230 4.5576
L1.7440 4.5576
" />
<path d="M2.7116 5.4043
L2.7116 4.7390
" />
<path d="M2.7116 4.7390
L2.6511 4.6181
" />
<path d="M2.6511 4.6181
L2.5302 4.5576
" />
<path d="M2.5302 4.5576
L2.2883 4.5576
" />
<path d="M2.2883 4.5576
L2.1673 4.6181
" />
<path d="M2.7116 5.3438
L2.5906 5.4043
" />
<path d="M2.5906 5.4043
L2.2883 5.4043
" />
<path d="M2.2883 5.4043
L2.1673 5.3438
" />
<path d="M2.1673 5.3438
L2.1068 5.2228
" />
<path d="M2.1068 5.2228
L2.1068 5.1019
" />
<path d="M2.1068 5.1019
L2.1673 4.9809
" />
<path d="M2.1673 4.9809
L2.2883 4.9205
" />
<path d="M2.2883 4.9205
L2.5906 4.9205
" />
<path d="M2.5906 4.9205
L2.7116 4.8600
" />
<path d="M3.3164 4.5576
L3.3164 5.4043
" />
<path d="M3.3164 4.6786
L3.3768 4.6181
" />
<path d="M3.3768 4.6181
L3.4978 4.5576
" />
<path d="M3.4978 4.5576
L3.6792 4.5576
" />
<path d="M3.6792 4.5576
L3.8002 4.6181
" />
<path d="M3.8002 4.6181
L3.8606 4.7390
" />
<path d="M3.8606 4.7390
L3.8606 5.4043
" />
<path d="M4.4049 5.3438
L4.5259 5.4043
" />
<path d="M4.5259 5.4043
L4.7678 5.4043
" />
<path d="M4.7678 5.4043
L4.8887 5.3438
" />
<path d="M4.8887 5.3438
L4.9492 5.2228
" />
<path d="M4.9492 5.2228
L4.9492 5.1624
" />
<path d="M4.9492 5.1624
L4.8887 5.0414
" />
<path d="M4.8887 5.0414
L4.7678 4.9809
" />
<path d="M4.7678 4.9809
L4.5864 4.9809
" />
<path d="M4.5864 4.9809
L4.4654 4.9205
" />
<path d="M4.4654 4.9205
L4.4049 4.7995
" />
<path d="M4.4049 4.7995
L4.4049 4.7390
" />
<path d="M4.4049 4.7390
L4.4654 4.6181
" />
<path d="M4.4654 4.6181
L4.5864 4.5576
" />
<path d="M4.5864 4.5576
L4.7678 4.5576
" />
<path d="M4.7678 4.5576
L4.8887 4.6181
" />
<path d="M5.3121 4.5576
L5.7959 4.5576
" />
<path d="M5.4935 5.4043
L5.4935 4.3157
" />
<path d="M5.4935 4.3157
L5.5540 4.1947
" />
<path d="M5.5540 4.1947
L5.6749 4.1343
" />
<path d="M5.6749 4.1343
L5.7959 4.1343
" />
<path d="M6.4006 5.4043
L6.2797 5.3438
" />
<path d="M6.2797 5.3438
L6.2192 5.2833
" />
<path d="M6.2192 5.2833
L6.1587 5.1624
" />
<path d="M6.1587 5.1624
L6.1587 4.7995
" />
<path d="M6.1587 4.7995
L6.2192 4.6786
" />
<path d="M6.2192 4.6786
L6.2797 4.6181
" />
<path d="M6.2797 4.6181
L6.4006 4.5576
" />
<path d="M6.4006 4.5576
L6.5821 4.5576
" />
<path d="M6.5821 4.5576
L6.7030 4.6181
" />
<path d="M6.7030 4.6181
L6.7635 4.6786
" />
<path d="M6.7635 4.6786
L6.8240 4.7995
" />
<path d="M6.8240 4.7995
L6.8240 5.1624
" />
<path d="M6.8240 5.1624
L6.7635 5.2833
" />
<path d="M6.7635 5.2833
L6.7030 5.3438
" />
<path d="M6.7030 5.3438
L6.5821 5.4043
" />
<path d="M6.5821 5.4043
L6.4006 5.4043
" />
<path d="M7.3683 5.4043
L7.3683 4.5576
" />
<path d="M7.3683 4.7995
L7.4287 4.6786
" />
<path d="M7.4287 4.6786
L7.4892 4.6181
" />
<path d="M7.4892 4.6181
L7.6102 4.5576
" />
<path d="M7.6102 4.5576
L7.7311 4.5576
" />
<path d="M8.1545 5.4043
L8.1545 4.5576
" />
<path d="M8.1545 4.6786
L8.2149 4.6181
" />
<path d="M8.2149 4.6181
L8.3359 4.5576
" />
<path d="M8.3359 4.5576
L8.5173 4.5576
" />
<path d="M8.5173 4.5576
L8.6383 4.6181
" />
<path d="M8.6383 4.6181
L8.6987 4.7390
" />
<path d="M8.6987 4.7390
L8.6987 5.4043
" />
<path d="M8.6987 4.7390
L8.7592 4.6181
" />
<path d="M8.7592 4.6181
L8.8802 4.5576
" />
<path d="M8.8802 4.5576
L9.0616 4.5576
" />
<path d="M9.0616 4.5576
L9.1826 4.6181
" />
<path d="M9.1826 4.6181
L9.2430 4.7390
" />
<path d="M9.2430 4.7390
L9.2430 5.4043
" />
<path d="M10.3316 5.3438
L10.2106 5.4043
" />
<path d="M10.2106 5.4043
L9.9687 5.4043
" />
<path d="M9.9687 5.4043
L9.8478 5.3438
" />
<path d="M9.8478 5.3438
L9.7873 5.2228
" />
<path d="M9.7873 5.2228
L9.7873 4.7390
" />
<path d="M9.7873 4.7390
L9.8478 4.6181
" />
<path d="M9.8478 4.6181
L9.9687 4.5576
" />
<path d="M9.9687 4.5576
L10.2106 4.5576
" />
<path d="M10.2106 4.5576
L10.3316 4.6181
" />
<path d="M10.3316 4.6181
L10.3921 4.7390
" />
<path d="M10.3921 4.7390
L10.3921 4.8600
" />
<path d="M10.3921 4.8600
L9.7873 4.9809
" />
<path d="M10.9364 5.4043
L10.9364 4.5576
" />
<path d="M10.9364 4.7995
L10.9968 4.6786
" />
<path d="M10.9968 4.6786
L11.0573 4.6181
" />
<path d="M11.0573 4.6181
L11.1783 4.5576
" />
<path d="M11.1783 4.5576
L11.2992 4.5576
" />
<path d="M11.4202 5.5252
L12.3878 5.5252
" />
<path d="M12.6902 5.4043
L12.6902 4.1343
" />
<path d="M12.6902 4.1343
L13.1135 5.0414
" />
<path d="M13.1135 5.0414
L13.5368 4.1343
" />
<path d="M13.5368 4.1343
L13.5368 5.4043
" />
<path d="M14.0206 4.5576
L14.3230 5.4043
" />
<path d="M14.6254 4.5576
L14.3230 5.4043
" />
<path d="M14.3230 5.4043
L14.2021 5.7067
" />
<path d="M14.2021 5.7067
L14.1416 5.7671
" />
<path d="M14.1416 5.7671
L14.0206 5.8276
" />
<path d="M15.1092 5.4043
L15.1092 4.5576
" />
<path d="M15.1092 4.7995
L15.1697 4.6786
" />
<path d="M15.1697 4.6786
L15.2302 4.6181
" />
<path d="M15.2302 4.6181
L15.3511 4.5576
" />
<path d="M15.3511 4.5576
L15.4721 4.5576
" />
<path d="M15.8954 5.4043
L15.8954 4.5576
" />
<path d="M15.8954 4.7995
L15.9559 4.6786
" />
<path d="M15.9559 4.6786
L16.0164 4.6181
" />
<path d="M16.0164 4.6181
L16.1373 4.5576
" />
<path d="M16.1373 4.5576
L16.2583 4.5576
" />
<path d="M17.2259 5.4043
L17.2259 4.7390
" />
<path d="M17.2259 4.7390
L17.1654 4.6181
" />
<path d="M17.1654 4.6181
L17.0445 4.5576
" />
<path d="M17.0445 4.5576
L16.8026 4.5576
" />
<path d="M16.8026 4.5576
L16.6816 4.6181
" />
<path d="M17.2259 5.3438
L17.1049 5.4043
" />
<path d="M17.1049 5.4043
L16.8026 5.4043
" />
<path d="M16.8026 5.4043
L16.6816 5.3438
" />
<path d="M16.6816 5.3438
L16.6211 5.2228
" />
<path d="M16.6211 5.2228
L16.6211 5.1019
" />
<path d="M16.6211 5.1019
L16.6816 4.9809
" />
<path d="M16.6816 4.9809
L16.8026 4.9205
" />
<path d="M16.8026 4.9205
L17.1049 4.9205
" />
<path d="M17.1049 4.9205
L17.2259 4.8600
" />
<path d="M17.5283 5.5252
L18.4959 5.5252
" />
<path d="M18.7983 4.7390
L19.2216 4.7390
" />
<path d="M19.4030 5.4043
L18.7983 5.4043
" />
<path d="M18.7983 5.4043
L18.7983 4.1343
" />
<path d="M18.7983 4.1343
L19.4030 4.1343
" />
<path d="M19.9473 5.4043
L19.9473 4.1343
" />
<path d="M20.4311 4.1343
L21.2173 4.1343
" />
<path d="M21.2173 4.1343
L20.7940 4.6181
" />
<path d="M20.7940 4.6181
L20.9754 4.6181
" />
<path d="M20.9754 4.6181
L21.0964 4.6786
" />
<path d="M21.0964 4.6786
L21.1568 4.7390
" />
<path d="M21.1568 4.7390
L21.2173 4.8600
" />
<path d="M21.2173 4.8600
L21.2173 5.1624
" />
<path d="M21.2173 5.1624
L21.1568 5.2833
" />
<path d="M21.1568 5.2833
L21.0964 5.3438
" />
<path d="M21.0964 5.3438
L20.9754 5.4043
" />
<path d="M20.9754 5.4043
L20.6126 5.4043
" />
<path d="M20.6126 5.4043
L20.4916 5.3438
" />
<path d="M20.4916 5.3438
L20.4311 5.2833
" />
<path d="M22.0035 4.1343
L22.1245 4.1343
" />
<path d="M22.1245 4.1343
L22.2454 4.1947
" />
<path d="M22.2454 4.1947
L22.3059 4.2552
" />
<path d="M22.3059 4.2552
L22.3664 4.3762
" />
<path d="M22.3664 4.3762
L22.4268 4.6181
" />
<path d="M22.4268 4.6181
L22.4268 4.9205
" />
<path d="M22.4268 4.9205
L22.3664 5.1624
" />
<path d="M22.3664 5.1624
L22.3059 5.2833
" />
<path d="M22.3059 5.2833
L22.2454 5.3438
" />
<path d="M22.2454 5.3438
L22.1245 5.4043
" />
<path d="M22.1245 5.4043
L22.0035 5.4043
" />
<path d="M22.0035 5.4043
L21.8826 5.3438
" />
<path d="M21.8826 5.3438
L21.8221 5.2833
" />
<path d="M21.8221 5.2833
L21.7616 5.1624
" />
<path d="M21.7616 5.1624
L21.7011 4.9205
" />
<path d="M21.7011 4.9205
L21.7011 4.6181
" />
<path d="M21.7011 4.6181
L21.7616 4.3762
" />
<path d="M21.7616 4.3762
L21.8221 4.2552
" />
<path d="M21.8221 4.2552
L21.8826 4.1947
" />
<path d="M21.8826 4.1947
L22.0035 4.1343
" />
<path d="M22.9711 4.9205
L23.9387 4.9205
" />
<path d="M25.1483 4.1343
L24.5435 4.1343
" />
<path d="M24.5435 4.1343
L24.4830 4.7390
" />
<path d="M24.4830 4.7390
L24.5435 4.6786
" />
<path d="M24.5435 4.6786
L24.6645 4.6181
" />
<path d="M24.6645 4.6181
L24.9668 4.6181
" />
<path d="M24.9668 4.6181
L25.0878 4.6786
" />
<path d="M25.0878 4.6786
L25.1483 4.7390
" />
<path d="M25.1483 4.7390
L25.2087 4.8600
" />
<path d="M25.2087 4.8600
L25.2087 5.1624
" />
<path d="M25.2087 5.1624
L25.1483 5.2833
" />
<path d="M25.1483 5.2833
L25.0878 5.3438
" />
<path d="M25.0878 5.3438
L24.9668 5.4043
" />
<path d="M24.9668 5.4043
L24.6645 5.4043
" />
<path d="M24.6645 5.4043
L24.5435 5.3438
" />
<path d="M24.5435 5.3438
L24.4830 5.2833
" />
<path d="M25.4506 5.5252
L26.4183 5.5252
" />
<path d="M27.2649 4.5576
L27.2649 5.4043
" />
<path d="M26.9626 4.0738
L26.6602 4.9809
" />
<path d="M26.6602 4.9809
L27.4464 4.9809
" />
<path d="M28.4745 4.5576
L28.4745 5.4043
" />
<path d="M28.1721 4.0738
L27.8697 4.9809
" />
<path d="M27.8697 4.9809
L28.6559 4.9809
" />
<path d="M29.3816 4.1343
L29.5026 4.1343
" />
<path d="M29.5026 4.1343
L29.6235 4.1947
" />
<path d="M29.6235 4.1947
L29.6840 4.2552
" />
<path d="M29.6840 4.2552
L29.7445 4.3762
" />
<path d="M29.7445 4.3762
L29.8049 4.6181
" />
<path d="M29.8049 4.6181
L29.8049 4.9205
" />
<path d="M29.8049 4.9205
L29.7445 5.1624
" />
<path d="M29.7445 5.1624
L29.6840 5.2833
" />
<path d="M29.6840 5.2833
L29.6235 5.3438
" />
<path d="M29.6235 5.3438
L29.5026 5.4043
" />
<path d="M29.5026 5.4043
L29.3816 5.4043
" />
<path d="M29.3816 5.4043
L29.2606 5.3438
" />
<path d="M29.2606 5.3438
L29.2002 5.2833
" />
<path d="M29.2002 5.2833
L29.1397 5.1624
" />
<path d="M29.1397 5.1624
L29.0792 4.9205
" />
<path d="M29.0792 4.9205
L29.0792 4.6181
" />
<path d="M29.0792 4.6181
L29.1397 4.3762
" />
<path d="M29.1397 4.3762
L29.2002 4.2552
" />
<path d="M29.2002 4.2552
L29.2606 4.1947
" />
<path d="M29.2606 4.1947
L29.3816 4.1343
" />
<path d="M30.5911 4.1343
L30.7121 4.1343
" />
<path d="M30.7121 4.1343
L30.8330 4.1947
" />
<path d="M30.8330 4.1947
L30.8935 4.2552
" />
<path d="M30.8935 4.2552
L30.9540 4.3762
" />
<path d="M30.9540 4.3762
L31.0145 4.6181
" />
<path d="M31.0145 4.6181
L31.0145 4.9205
" />
<path d="M31.0145 4.9205
L30.9540 5.1624
" />
<path d="M30.9540 5.1624
L30.8935 5.2833
" />
<path d="M30.8935 5.2833
L30.8330 5.3438
" />
<path d="M30.8330 5.3438
L30.7121 5.4043
" />
<path d="M30.7121 5.4043
L30.5911 5.4043
" />
<path d="M30.5911 5.4043
L30.4702 5.3438
" />
<path d="M30.4702 5.3438
L30.4097 5.2833
" />
<path d="M30.4097 5.2833
L30.3492 5.1624
" />
<path d="M30.3492 5.1624
L30.2887 4.9205
" />
<path d="M30.2887 4.9205
L30.2887 4.6181
" />
<path d="M30.2887 4.6181
L30.3492 4.3762
" />
<path d="M30.3492 4.3762
L30.4097 4.2552
" />
<path d="M30.4097 4.2552
L30.4702 4.1947
" />
<path d="M30.4702 4.1947
L30.5911 4.1343
" />
<path d="M31.8006 4.1343
L31.9216 4.1343
" />
<path d="M31.9216 4.1343
L32.0426 4.1947
" />
<path d="M32.0426 4.1947
L32.1030 4.2552
" />
<path d="M32.1030 4.2552
L32.1635 4.3762
" />
<path d="M32.1635 4.3762
L32.2240 4.6181
" />
<path d="M32.2240 4.6181
L32.2240 4.9205
" />
<path d="M32.2240 4.9205
L32.1635 5.1624
" />
<path d="M32.1635 5.1624
L32.1030 5.2833
" />
<path d="M32.1030 5.2833
L32.0426 5.3438
" />
<path d="M32.0426 5.3438
L31.9216 5.4043
" />
<path d="M31.9216 5.4043
L31.8006 5.4043
" />
<path d="M31.8006 5.4043
L31.6797 5.3438
" />
<path d="M31.6797 5.3438
L31.6192 5.2833
" />
<path d="M31.6192 5.2833
L31.5587 5.1624
" />
<path d="M31.5587 5.1624
L31.4983 4.9205
" />
<path d="M31.4983 4.9205
L31.4983 4.6181
" />
<path d="M31.4983 4.6181
L31.5587 4.3762
" />
<path d="M31.5587 4.3762
L31.6192 4.2552
" />
<path d="M31.6192 4.2552
L31.6797 4.1947
" />
<path d="M31.6797 4.1947
L31.8006 4.1343
" />
<path d="M32.4659 5.5252
L33.4335 5.5252
" />
<path d="M33.7359 5.4043
L33.7359 4.1343
" />
<path d="M33.7359 4.7390
L34.4616 4.7390
" />
<path d="M34.4616 5.4043
L34.4616 4.1343
" />
<path d="M35.2478 5.4043
L35.1268 5.3438
" />
<path d="M35.1268 5.3438
L35.0664 5.2833
" />
<path d="M35.0664 5.2833
L35.0059 5.1624
" />
<path d="M35.0059 5.1624
L35.0059 4.7995
" />
<path d="M35.0059 4.7995
L35.0664 4.6786
" />
<path d="M35.0664 4.6786
L35.1268 4.6181
" />
<path d="M35.1268 4.6181
L35.2478 4.5576
" />
<path d="M35.2478 4.5576
L35.4292 4.5576
" />
<path d="M35.4292 4.5576
L35.5502 4.6181
" />
<path d="M35.5502 4.6181
L35.6106 4.6786
" />
<path d="M35.6106 4.6786
L35.6711 4.7995
" />
<path d="M35.6711 4.7995
L35.6711 5.1624
" />
<path d="M35.6711 5.1624
L35.6106 5.2833
" />
<path d="M35.6106 5.2833
L35.5502 5.3438
" />
<path d="M35.5502 5.3438
L35.4292 5.4043
" />
<path d="M35.4292 5.4043
L35.2478 5.4043
" />
<path d="M36.2154 5.4043
L36.2154 4.5576
" />
<path d="M36.2154 4.7995
L36.2759 4.6786
" />
<path d="M36.2759 4.6786
L36.3364 4.6181
" />
<path d="M36.3364 4.6181
L36.4573 4.5576
" />
<path d="M36.4573 4.5576
L36.5783 4.5576
" />
<path d="M37.0016 5.4043
L37.0016 4.5576
" />
<path d="M37.0016 4.1343
L36.9411 4.1947
" />
<path d="M36.9411 4.1947
L37.0016 4.2552
" />
<path d="M37.0016 4.2552
L37.0621 4.1947
" />
<path d="M37.0621 4.1947
L37.0016 4.1343
" />
<path d="M37.0016 4.1343
L37.0016 4.2552
" />
<path d="M37.4854 4.5576
L38.1506 4.5576
" />
<path d="M38.1506 4.5576
L37.4854 5.4043
" />
<path d="M37.4854 5.4043
L38.1506 5.4043
" />
<path d="M38.8159 5.4043
L38.6949 5.3438
" />
<path d="M38.6949 5.3438
L38.6345 5.2833
" />
<path d="M38.6345 5.2833
L38.5740 5.1624
" />
<path d="M38.5740 5.1624
L38.5740 4.7995
" />
<path d="M38.5740 4.7995
L38.6345 4.6786
" />
<path d="M38.6345 4.6786
L38.6949 4.6181
" />
<path d="M38.6949 4.6181
L38.8159 4.5576
" />
<path d="M38.8159 4.5576
L38.9973 4.5576
" />
<path d="M38.9973 4.5576
L39.1183 4.6181
" />
<path d="M39.1183 4.6181
L39.1787 4.6786
" />
<path d="M39.1787 4.6786
L39.2392 4.7995
" />
<path d="M39.2392 4.7995
L39.2392 5.1624
" />
<path d="M39.2392 5.1624
L39.1787 5.2833
" />
<path d="M39.1787 5.2833
L39.1183 5.3438
" />
<path d="M39.1183 5.3438
L38.9973 5.4043
" />
<path d="M38.9973 5.4043
L38.8159 5.4043
" />
<path d="M39.7835 4.5576
L39.7835 5.4043
" />
<path d="M39.7835 4.6786
L39.8440 4.6181
" />
<path d="M39.8440 4.6181
L39.9649 4.5576
" />
<path d="M39.9649 4.5576
L40.1464 4.5576
" />
<path d="M40.1464 4.5576
L40.2673 4.6181
" />
<path d="M40.2673 4.6181
L40.3278 4.7390
" />
<path d="M40.3278 4.7390
L40.3278 5.4043
" />
<path d="M40.7511 4.5576
L41.2349 4.5576
" />
<path d="M40.9326 4.1343
L40.9326 5.2228
" />
<path d="M40.9326 5.2228
L40.9930 5.3438
" />
<path d="M40.9930 5.3438
L41.1140 5.4043
" />
<path d="M41.1140 5.4043
L41.2349 5.4043
" />
<path d="M42.2026 5.4043
L42.2026 4.7390
" />
<path d="M42.2026 4.7390
L42.1421 4.6181
" />
<path d="M42.1421 4.6181
L42.0211 4.5576
" />
<path d="M42.0211 4.5576
L41.7792 4.5576
" />
<path d="M41.7792 4.5576
L41.6583 4.6181
" />
<path d="M42.2026 5.3438
L42.0816 5.4043
" />
<path d="M42.0816 5.4043
L41.7792 5.4043
" />
<path d="M41.7792 5.4043
L41.6583 5.3438
" />
<path d="M41.6583 5.3438
L41.5978 5.2228
" />
<path d="M41.5978 5.2228
L41.5978 5.1019
" />
<path d="M41.5978 5.1019
L41.6583 4.9809
" />
<path d="M41.6583 4.9809
L41.7792 4.9205
" />
<path d="M41.7792 4.9205
L42.0816 4.9205
" />
<path d="M42.0816 4.9205
L42.2026 4.8600
" />
<path d="M42.9887 5.4043
L42.8678 5.3438
" />
<path d="M42.8678 5.3438
L42.8073 5.2228
" />
<path d="M42.8073 5.2228
L42.8073 4.1343
" />
</g></g>
<g style="fill:none; 
stroke:#AFAFAF; stroke-width:0.1500; stroke-opacity:1; 
stroke-linecap:round; stroke-linejoin:round;">
<text x="31.6406" y="15.3250"
textLength="4.5357" font-size="1.3333" lengthAdjust="spacingAndGlyphs"
text-anchor="middle" opacity="0">REF**</text>
<g class="stroked-text"><desc>REF**</desc>
<path d="M30.3073 15.2798
L29.9740 14.8036
" />
<path d="M29.7359 15.2798
L29.7359 14.2798
" />
<path d="M29.7359 14.2798
L30.1168 14.2798
" />
<path d="M30.1168 14.2798
L30.2121 14.3274
" />
<path d="M30.2121 14.3274
L30.2597 14.3751
" />
<path d="M30.2597 14.3751
L30.3073 14.4703
" />
<path d="M30.3073 14.4703
L30.3073 14.6132
" />
<path d="M30.3073 14.6132
L30.2597 14.7084
" />
<path d="M30.2597 14.7084
L30.2121 14.7560
" />
<path d="M30.2121 14.7560
L30.1168 14.8036
" />
<path d="M30.1168 14.8036
L29.7359 14.8036
" />
<path d="M30.7359 14.7560
L31.0692 14.7560
" />
<path d="M31.2121 15.2798
L30.7359 15.2798
" />
<path d="M30.7359 15.2798
L30.7359 14.2798
" />
<path d="M30.7359 14.2798
L31.2121 14.2798
" />
<path d="M31.9740 14.7560
L31.6406 14.7560
" />
<path d="M31.6406 15.2798
L31.6406 14.2798
" />
<path d="M31.6406 14.2798
L32.1168 14.2798
" />
<path d="M32.6406 14.2798
L32.6406 14.5179
" />
<path d="M32.4026 14.4227
L32.6406 14.5179
" />
<path d="M32.6406 14.5179
L32.8787 14.4227
" />
<path d="M32.4978 14.7084
L32.6406 14.5179
" />
<path d="M32.6406 14.5179
L32.7835 14.7084
" />
<path d="M33.4026 14.2798
L33.4026 14.5179
" />
<path d="M33.1645 14.4227
L33.4026 14.5179
" />
<path d="M33.4026 14.5179
L33.6406 14.4227
" />
<path d="M33.2597 14.7084
L33.4026 14.5179
" />
<path d="M33.4026 14.5179
L33.5454 14.7084
" />
</g><path style="fill:none; 
stroke:#AFAFAF; stroke-width:0.1000; stroke-opacity:1; 
stroke-linecap:round; stroke-linejoin:round;fill:none"
d="M 47.9406,28.6250
15.3406,28.6250
15.3406,1.0250
47.9406,1.0250
Z" /> 
</g> 
</svg>
