<?xml version="1.0" standalone="no"?>
 <!DOCTYPE svg PUBLIC "-//W3C//DTD SVG 1.1//EN" 
 "http://www.w3.org/Graphics/SVG/1.1/DTD/svg11.dtd"> 
<svg
  xmlns:svg="http://www.w3.org/2000/svg"
  xmlns="http://www.w3.org/2000/svg"
  xmlns:xlink="http://www.w3.org/1999/xlink"
  version="1.1"
  width="47.1424mm" height="84.9376mm" viewBox="0.0000 0.0000 47.1424 84.9376">
<title>SVG Image created as working-brd.svg date 2024/04/03 22:29:51 </title>
  <desc>Image generated by PCBNEW </desc>
<g style="fill:#000000; fill-opacity:1.0000;stroke:#000000; stroke-opacity:1.0000;
stroke-linecap:round; stroke-linejoin:round;"
 transform="translate(0 0) scale(1 1)">
<path style="fill:#C83434; fill-opacity:1.0000; stroke:none;fill-rule:evenodd;"
d="M 20.6659,2.3350
20.6659,1.3350
23.1759,1.3350
23.1759,2.3350
Z" /> 
<path style="fill:#C83434; fill-opacity:1.0000; stroke:none;fill-rule:evenodd;"
d="M 23.9759,4.8750
23.9759,3.8750
26.4859,3.8750
26.4859,4.8750
Z" /> 
<path style="fill:#C83434; fill-opacity:1.0000; stroke:none;fill-rule:evenodd;"
d="M 20.6659,7.4150
20.6659,6.4150
23.1759,6.4150
23.1759,7.4150
Z" /> 
<path style="fill:#C83434; fill-opacity:1.0000; stroke:none;fill-rule:evenodd;"
d="M 23.9759,9.9550
23.9759,8.9550
26.4859,8.9550
26.4859,9.9550
Z" /> 
<path style="fill:#C83434; fill-opacity:1.0000; stroke:none;fill-rule:evenodd;"
d="M 20.6659,12.4950
20.6659,11.4950
23.1759,11.4950
23.1759,12.4950
Z" /> 
<path style="fill:#C83434; fill-opacity:1.0000; stroke:none;fill-rule:evenodd;"
d="M 23.9759,15.0350
23.9759,14.0350
26.4859,14.0350
26.4859,15.0350
Z" /> 
<path style="fill:#C83434; fill-opacity:1.0000; stroke:none;fill-rule:evenodd;"
d="M 20.6659,17.5750
20.6659,16.5750
23.1759,16.5750
23.1759,17.5750
Z" /> 
<path style="fill:#C83434; fill-opacity:1.0000; stroke:none;fill-rule:evenodd;"
d="M 23.9759,20.1150
23.9759,19.1150
26.4859,19.1150
26.4859,20.1150
Z" /> 
<path style="fill:#C83434; fill-opacity:1.0000; stroke:none;fill-rule:evenodd;"
d="M 20.6659,22.6550
20.6659,21.6550
23.1759,21.6550
23.1759,22.6550
Z" /> 
<path style="fill:#C83434; fill-opacity:1.0000; stroke:none;fill-rule:evenodd;"
d="M 23.9759,25.1950
23.9759,24.1950
26.4859,24.1950
26.4859,25.1950
Z" /> 
<path style="fill:#C83434; fill-opacity:1.0000; stroke:none;fill-rule:evenodd;"
d="M 20.6659,27.7350
20.6659,26.7350
23.1759,26.7350
23.1759,27.7350
Z" /> 
<path style="fill:#C83434; fill-opacity:1.0000; stroke:none;fill-rule:evenodd;"
d="M 23.9759,30.2750
23.9759,29.2750
26.4859,29.2750
26.4859,30.2750
Z" /> 
<path style="fill:#C83434; fill-opacity:1.0000; stroke:none;fill-rule:evenodd;"
d="M 20.6659,32.8150
20.6659,31.8150
23.1759,31.8150
23.1759,32.8150
Z" /> 
<path style="fill:#C83434; fill-opacity:1.0000; stroke:none;fill-rule:evenodd;"
d="M 23.9759,35.3550
23.9759,34.3550
26.4859,34.3550
26.4859,35.3550
Z" /> 
<path style="fill:#C83434; fill-opacity:1.0000; stroke:none;fill-rule:evenodd;"
d="M 20.6659,37.8950
20.6659,36.8950
23.1759,36.8950
23.1759,37.8950
Z" /> 
<path style="fill:#C83434; fill-opacity:1.0000; stroke:none;fill-rule:evenodd;"
d="M 23.9759,40.4350
23.9759,39.4350
26.4859,39.4350
26.4859,40.4350
Z" /> 
<path style="fill:#C83434; fill-opacity:1.0000; stroke:none;fill-rule:evenodd;"
d="M 20.6659,42.9750
20.6659,41.9750
23.1759,41.9750
23.1759,42.9750
Z" /> 
<path style="fill:#C83434; fill-opacity:1.0000; stroke:none;fill-rule:evenodd;"
d="M 23.9759,45.5150
23.9759,44.5150
26.4859,44.5150
26.4859,45.5150
Z" /> 
<path style="fill:#C83434; fill-opacity:1.0000; stroke:none;fill-rule:evenodd;"
d="M 20.6659,48.0550
20.6659,47.0550
23.1759,47.0550
23.1759,48.0550
Z" /> 
<path style="fill:#C83434; fill-opacity:1.0000; stroke:none;fill-rule:evenodd;"
d="M 23.9759,50.5950
23.9759,49.5950
26.4859,49.5950
26.4859,50.5950
Z" /> 
<path style="fill:#C83434; fill-opacity:1.0000; stroke:none;fill-rule:evenodd;"
d="M 20.6659,53.1350
20.6659,52.1350
23.1759,52.1350
23.1759,53.1350
Z" /> 
<path style="fill:#C83434; fill-opacity:1.0000; stroke:none;fill-rule:evenodd;"
d="M 23.9759,55.6750
23.9759,54.6750
26.4859,54.6750
26.4859,55.6750
Z" /> 
<path style="fill:#C83434; fill-opacity:1.0000; stroke:none;fill-rule:evenodd;"
d="M 20.6659,58.2150
20.6659,57.2150
23.1759,57.2150
23.1759,58.2150
Z" /> 
<path style="fill:#C83434; fill-opacity:1.0000; stroke:none;fill-rule:evenodd;"
d="M 23.9759,60.7550
23.9759,59.7550
26.4859,59.7550
26.4859,60.7550
Z" /> 
<path style="fill:#C83434; fill-opacity:1.0000; stroke:none;fill-rule:evenodd;"
d="M 20.6659,63.2950
20.6659,62.2950
23.1759,62.2950
23.1759,63.2950
Z" /> 
<path style="fill:#C83434; fill-opacity:1.0000; stroke:none;fill-rule:evenodd;"
d="M 23.9759,65.8350
23.9759,64.8350
26.4859,64.8350
26.4859,65.8350
Z" /> 
<path style="fill:#C83434; fill-opacity:1.0000; stroke:none;fill-rule:evenodd;"
d="M 20.6659,68.3750
20.6659,67.3750
23.1759,67.3750
23.1759,68.3750
Z" /> 
<path style="fill:#C83434; fill-opacity:1.0000; stroke:none;fill-rule:evenodd;"
d="M 23.9759,70.9150
23.9759,69.9150
26.4859,69.9150
26.4859,70.9150
Z" /> 
<path style="fill:#C83434; fill-opacity:1.0000; stroke:none;fill-rule:evenodd;"
d="M 20.6659,73.4550
20.6659,72.4550
23.1759,72.4550
23.1759,73.4550
Z" /> 
<path style="fill:#C83434; fill-opacity:1.0000; stroke:none;fill-rule:evenodd;"
d="M 23.9759,75.9950
23.9759,74.9950
26.4859,74.9950
26.4859,75.9950
Z" /> 
<path style="fill:#C83434; fill-opacity:1.0000; stroke:none;fill-rule:evenodd;"
d="M 20.6659,78.5350
20.6659,77.5350
23.1759,77.5350
23.1759,78.5350
Z" /> 
<path style="fill:#C83434; fill-opacity:1.0000; stroke:none;fill-rule:evenodd;"
d="M 23.9759,81.0750
23.9759,80.0750
26.4859,80.0750
26.4859,81.0750
Z" /> 
<path style="fill:#C83434; fill-opacity:1.0000; stroke:none;fill-rule:evenodd;"
d="M 20.6659,83.6150
20.6659,82.6150
23.1759,82.6150
23.1759,83.6150
Z" /> 
<path style="fill:#D864FF; fill-opacity:0.4000; stroke:none;fill-rule:evenodd;"
d="M 20.6659,2.3350
20.6659,1.3350
23.1759,1.3350
23.1759,2.3350
Z" /> 
<path style="fill:#D864FF; fill-opacity:0.4000; stroke:none;fill-rule:evenodd;"
d="M 23.9759,4.8750
23.9759,3.8750
26.4859,3.8750
26.4859,4.8750
Z" /> 
<path style="fill:#D864FF; fill-opacity:0.4000; stroke:none;fill-rule:evenodd;"
d="M 20.6659,7.4150
20.6659,6.4150
23.1759,6.4150
23.1759,7.4150
Z" /> 
<path style="fill:#D864FF; fill-opacity:0.4000; stroke:none;fill-rule:evenodd;"
d="M 23.9759,9.9550
23.9759,8.9550
26.4859,8.9550
26.4859,9.9550
Z" /> 
<path style="fill:#D864FF; fill-opacity:0.4000; stroke:none;fill-rule:evenodd;"
d="M 20.6659,12.4950
20.6659,11.4950
23.1759,11.4950
23.1759,12.4950
Z" /> 
<path style="fill:#D864FF; fill-opacity:0.4000; stroke:none;fill-rule:evenodd;"
d="M 23.9759,15.0350
23.9759,14.0350
26.4859,14.0350
26.4859,15.0350
Z" /> 
<path style="fill:#D864FF; fill-opacity:0.4000; stroke:none;fill-rule:evenodd;"
d="M 20.6659,17.5750
20.6659,16.5750
23.1759,16.5750
23.1759,17.5750
Z" /> 
<path style="fill:#D864FF; fill-opacity:0.4000; stroke:none;fill-rule:evenodd;"
d="M 23.9759,20.1150
23.9759,19.1150
26.4859,19.1150
26.4859,20.1150
Z" /> 
<path style="fill:#D864FF; fill-opacity:0.4000; stroke:none;fill-rule:evenodd;"
d="M 20.6659,22.6550
20.6659,21.6550
23.1759,21.6550
23.1759,22.6550
Z" /> 
<path style="fill:#D864FF; fill-opacity:0.4000; stroke:none;fill-rule:evenodd;"
d="M 23.9759,25.1950
23.9759,24.1950
26.4859,24.1950
26.4859,25.1950
Z" /> 
<path style="fill:#D864FF; fill-opacity:0.4000; stroke:none;fill-rule:evenodd;"
d="M 20.6659,27.7350
20.6659,26.7350
23.1759,26.7350
23.1759,27.7350
Z" /> 
<path style="fill:#D864FF; fill-opacity:0.4000; stroke:none;fill-rule:evenodd;"
d="M 23.9759,30.2750
23.9759,29.2750
26.4859,29.2750
26.4859,30.2750
Z" /> 
<path style="fill:#D864FF; fill-opacity:0.4000; stroke:none;fill-rule:evenodd;"
d="M 20.6659,32.8150
20.6659,31.8150
23.1759,31.8150
23.1759,32.8150
Z" /> 
<path style="fill:#D864FF; fill-opacity:0.4000; stroke:none;fill-rule:evenodd;"
d="M 23.9759,35.3550
23.9759,34.3550
26.4859,34.3550
26.4859,35.3550
Z" /> 
<path style="fill:#D864FF; fill-opacity:0.4000; stroke:none;fill-rule:evenodd;"
d="M 20.6659,37.8950
20.6659,36.8950
23.1759,36.8950
23.1759,37.8950
Z" /> 
<path style="fill:#D864FF; fill-opacity:0.4000; stroke:none;fill-rule:evenodd;"
d="M 23.9759,40.4350
23.9759,39.4350
26.4859,39.4350
26.4859,40.4350
Z" /> 
<path style="fill:#D864FF; fill-opacity:0.4000; stroke:none;fill-rule:evenodd;"
d="M 20.6659,42.9750
20.6659,41.9750
23.1759,41.9750
23.1759,42.9750
Z" /> 
<path style="fill:#D864FF; fill-opacity:0.4000; stroke:none;fill-rule:evenodd;"
d="M 23.9759,45.5150
23.9759,44.5150
26.4859,44.5150
26.4859,45.5150
Z" /> 
<path style="fill:#D864FF; fill-opacity:0.4000; stroke:none;fill-rule:evenodd;"
d="M 20.6659,48.0550
20.6659,47.0550
23.1759,47.0550
23.1759,48.0550
Z" /> 
<path style="fill:#D864FF; fill-opacity:0.4000; stroke:none;fill-rule:evenodd;"
d="M 23.9759,50.5950
23.9759,49.5950
26.4859,49.5950
26.4859,50.5950
Z" /> 
<path style="fill:#D864FF; fill-opacity:0.4000; stroke:none;fill-rule:evenodd;"
d="M 20.6659,53.1350
20.6659,52.1350
23.1759,52.1350
23.1759,53.1350
Z" /> 
<path style="fill:#D864FF; fill-opacity:0.4000; stroke:none;fill-rule:evenodd;"
d="M 23.9759,55.6750
23.9759,54.6750
26.4859,54.6750
26.4859,55.6750
Z" /> 
<path style="fill:#D864FF; fill-opacity:0.4000; stroke:none;fill-rule:evenodd;"
d="M 20.6659,58.2150
20.6659,57.2150
23.1759,57.2150
23.1759,58.2150
Z" /> 
<path style="fill:#D864FF; fill-opacity:0.4000; stroke:none;fill-rule:evenodd;"
d="M 23.9759,60.7550
23.9759,59.7550
26.4859,59.7550
26.4859,60.7550
Z" /> 
<path style="fill:#D864FF; fill-opacity:0.4000; stroke:none;fill-rule:evenodd;"
d="M 20.6659,63.2950
20.6659,62.2950
23.1759,62.2950
23.1759,63.2950
Z" /> 
<path style="fill:#D864FF; fill-opacity:0.4000; stroke:none;fill-rule:evenodd;"
d="M 23.9759,65.8350
23.9759,64.8350
26.4859,64.8350
26.4859,65.8350
Z" /> 
<path style="fill:#D864FF; fill-opacity:0.4000; stroke:none;fill-rule:evenodd;"
d="M 20.6659,68.3750
20.6659,67.3750
23.1759,67.3750
23.1759,68.3750
Z" /> 
<path style="fill:#D864FF; fill-opacity:0.4000; stroke:none;fill-rule:evenodd;"
d="M 23.9759,70.9150
23.9759,69.9150
26.4859,69.9150
26.4859,70.9150
Z" /> 
<path style="fill:#D864FF; fill-opacity:0.4000; stroke:none;fill-rule:evenodd;"
d="M 20.6659,73.4550
20.6659,72.4550
23.1759,72.4550
23.1759,73.4550
Z" /> 
<path style="fill:#D864FF; fill-opacity:0.4000; stroke:none;fill-rule:evenodd;"
d="M 23.9759,75.9950
23.9759,74.9950
26.4859,74.9950
26.4859,75.9950
Z" /> 
<path style="fill:#D864FF; fill-opacity:0.4000; stroke:none;fill-rule:evenodd;"
d="M 20.6659,78.5350
20.6659,77.5350
23.1759,77.5350
23.1759,78.5350
Z" /> 
<path style="fill:#D864FF; fill-opacity:0.4000; stroke:none;fill-rule:evenodd;"
d="M 23.9759,81.0750
23.9759,80.0750
26.4859,80.0750
26.4859,81.0750
Z" /> 
<path style="fill:#D864FF; fill-opacity:0.4000; stroke:none;fill-rule:evenodd;"
d="M 20.6659,83.6150
20.6659,82.6150
23.1759,82.6150
23.1759,83.6150
Z" /> 
<path style="fill:#B4A09A; fill-opacity:0.9000; stroke:none;fill-rule:evenodd;"
d="M 20.6659,2.3350
20.6659,1.3350
23.1759,1.3350
23.1759,2.3350
Z" /> 
<path style="fill:#B4A09A; fill-opacity:0.9000; stroke:none;fill-rule:evenodd;"
d="M 23.9759,4.8750
23.9759,3.8750
26.4859,3.8750
26.4859,4.8750
Z" /> 
<path style="fill:#B4A09A; fill-opacity:0.9000; stroke:none;fill-rule:evenodd;"
d="M 20.6659,7.4150
20.6659,6.4150
23.1759,6.4150
23.1759,7.4150
Z" /> 
<path style="fill:#B4A09A; fill-opacity:0.9000; stroke:none;fill-rule:evenodd;"
d="M 23.9759,9.9550
23.9759,8.9550
26.4859,8.9550
26.4859,9.9550
Z" /> 
<path style="fill:#B4A09A; fill-opacity:0.9000; stroke:none;fill-rule:evenodd;"
d="M 20.6659,12.4950
20.6659,11.4950
23.1759,11.4950
23.1759,12.4950
Z" /> 
<path style="fill:#B4A09A; fill-opacity:0.9000; stroke:none;fill-rule:evenodd;"
d="M 23.9759,15.0350
23.9759,14.0350
26.4859,14.0350
26.4859,15.0350
Z" /> 
<path style="fill:#B4A09A; fill-opacity:0.9000; stroke:none;fill-rule:evenodd;"
d="M 20.6659,17.5750
20.6659,16.5750
23.1759,16.5750
23.1759,17.5750
Z" /> 
<path style="fill:#B4A09A; fill-opacity:0.9000; stroke:none;fill-rule:evenodd;"
d="M 23.9759,20.1150
23.9759,19.1150
26.4859,19.1150
26.4859,20.1150
Z" /> 
<path style="fill:#B4A09A; fill-opacity:0.9000; stroke:none;fill-rule:evenodd;"
d="M 20.6659,22.6550
20.6659,21.6550
23.1759,21.6550
23.1759,22.6550
Z" /> 
<path style="fill:#B4A09A; fill-opacity:0.9000; stroke:none;fill-rule:evenodd;"
d="M 23.9759,25.1950
23.9759,24.1950
26.4859,24.1950
26.4859,25.1950
Z" /> 
<path style="fill:#B4A09A; fill-opacity:0.9000; stroke:none;fill-rule:evenodd;"
d="M 20.6659,27.7350
20.6659,26.7350
23.1759,26.7350
23.1759,27.7350
Z" /> 
<path style="fill:#B4A09A; fill-opacity:0.9000; stroke:none;fill-rule:evenodd;"
d="M 23.9759,30.2750
23.9759,29.2750
26.4859,29.2750
26.4859,30.2750
Z" /> 
<path style="fill:#B4A09A; fill-opacity:0.9000; stroke:none;fill-rule:evenodd;"
d="M 20.6659,32.8150
20.6659,31.8150
23.1759,31.8150
23.1759,32.8150
Z" /> 
<path style="fill:#B4A09A; fill-opacity:0.9000; stroke:none;fill-rule:evenodd;"
d="M 23.9759,35.3550
23.9759,34.3550
26.4859,34.3550
26.4859,35.3550
Z" /> 
<path style="fill:#B4A09A; fill-opacity:0.9000; stroke:none;fill-rule:evenodd;"
d="M 20.6659,37.8950
20.6659,36.8950
23.1759,36.8950
23.1759,37.8950
Z" /> 
<path style="fill:#B4A09A; fill-opacity:0.9000; stroke:none;fill-rule:evenodd;"
d="M 23.9759,40.4350
23.9759,39.4350
26.4859,39.4350
26.4859,40.4350
Z" /> 
<path style="fill:#B4A09A; fill-opacity:0.9000; stroke:none;fill-rule:evenodd;"
d="M 20.6659,42.9750
20.6659,41.9750
23.1759,41.9750
23.1759,42.9750
Z" /> 
<path style="fill:#B4A09A; fill-opacity:0.9000; stroke:none;fill-rule:evenodd;"
d="M 23.9759,45.5150
23.9759,44.5150
26.4859,44.5150
26.4859,45.5150
Z" /> 
<path style="fill:#B4A09A; fill-opacity:0.9000; stroke:none;fill-rule:evenodd;"
d="M 20.6659,48.0550
20.6659,47.0550
23.1759,47.0550
23.1759,48.0550
Z" /> 
<path style="fill:#B4A09A; fill-opacity:0.9000; stroke:none;fill-rule:evenodd;"
d="M 23.9759,50.5950
23.9759,49.5950
26.4859,49.5950
26.4859,50.5950
Z" /> 
<path style="fill:#B4A09A; fill-opacity:0.9000; stroke:none;fill-rule:evenodd;"
d="M 20.6659,53.1350
20.6659,52.1350
23.1759,52.1350
23.1759,53.1350
Z" /> 
<path style="fill:#B4A09A; fill-opacity:0.9000; stroke:none;fill-rule:evenodd;"
d="M 23.9759,55.6750
23.9759,54.6750
26.4859,54.6750
26.4859,55.6750
Z" /> 
<path style="fill:#B4A09A; fill-opacity:0.9000; stroke:none;fill-rule:evenodd;"
d="M 20.6659,58.2150
20.6659,57.2150
23.1759,57.2150
23.1759,58.2150
Z" /> 
<path style="fill:#B4A09A; fill-opacity:0.9000; stroke:none;fill-rule:evenodd;"
d="M 23.9759,60.7550
23.9759,59.7550
26.4859,59.7550
26.4859,60.7550
Z" /> 
<path style="fill:#B4A09A; fill-opacity:0.9000; stroke:none;fill-rule:evenodd;"
d="M 20.6659,63.2950
20.6659,62.2950
23.1759,62.2950
23.1759,63.2950
Z" /> 
<path style="fill:#B4A09A; fill-opacity:0.9000; stroke:none;fill-rule:evenodd;"
d="M 23.9759,65.8350
23.9759,64.8350
26.4859,64.8350
26.4859,65.8350
Z" /> 
<path style="fill:#B4A09A; fill-opacity:0.9000; stroke:none;fill-rule:evenodd;"
d="M 20.6659,68.3750
20.6659,67.3750
23.1759,67.3750
23.1759,68.3750
Z" /> 
<path style="fill:#B4A09A; fill-opacity:0.9000; stroke:none;fill-rule:evenodd;"
d="M 23.9759,70.9150
23.9759,69.9150
26.4859,69.9150
26.4859,70.9150
Z" /> 
<path style="fill:#B4A09A; fill-opacity:0.9000; stroke:none;fill-rule:evenodd;"
d="M 20.6659,73.4550
20.6659,72.4550
23.1759,72.4550
23.1759,73.4550
Z" /> 
<path style="fill:#B4A09A; fill-opacity:0.9000; stroke:none;fill-rule:evenodd;"
d="M 23.9759,75.9950
23.9759,74.9950
26.4859,74.9950
26.4859,75.9950
Z" /> 
<path style="fill:#B4A09A; fill-opacity:0.9000; stroke:none;fill-rule:evenodd;"
d="M 20.6659,78.5350
20.6659,77.5350
23.1759,77.5350
23.1759,78.5350
Z" /> 
<path style="fill:#B4A09A; fill-opacity:0.9000; stroke:none;fill-rule:evenodd;"
d="M 23.9759,81.0750
23.9759,80.0750
26.4859,80.0750
26.4859,81.0750
Z" /> 
<path style="fill:#B4A09A; fill-opacity:0.9000; stroke:none;fill-rule:evenodd;"
d="M 20.6659,83.6150
20.6659,82.6150
23.1759,82.6150
23.1759,83.6150
Z" /> 
</g>
<g style="fill:none; 
stroke:#F2EDA1; stroke-width:0.1588; stroke-opacity:1; 
stroke-linecap:round; stroke-linejoin:round;">
<text x="23.5759" y="43.1100"
textLength="5.6651" font-size="1.6933" lengthAdjust="spacingAndGlyphs"
text-anchor="middle" opacity="0">REF**</text>
<g class="stroked-text"><desc>REF**</desc>
<path d="M21.8826 43.0543
L21.4592 42.4495
" />
<path d="M21.1568 43.0543
L21.1568 41.7843
" />
<path d="M21.1568 41.7843
L21.6406 41.7843
" />
<path d="M21.6406 41.7843
L21.7616 41.8447
" />
<path d="M21.7616 41.8447
L21.8221 41.9052
" />
<path d="M21.8221 41.9052
L21.8826 42.0262
" />
<path d="M21.8826 42.0262
L21.8826 42.2076
" />
<path d="M21.8826 42.2076
L21.8221 42.3286
" />
<path d="M21.8221 42.3286
L21.7616 42.3890
" />
<path d="M21.7616 42.3890
L21.6406 42.4495
" />
<path d="M21.6406 42.4495
L21.1568 42.4495
" />
<path d="M22.4268 42.3890
L22.8502 42.3890
" />
<path d="M23.0316 43.0543
L22.4268 43.0543
" />
<path d="M22.4268 43.0543
L22.4268 41.7843
" />
<path d="M22.4268 41.7843
L23.0316 41.7843
" />
<path d="M23.9992 42.3890
L23.5759 42.3890
" />
<path d="M23.5759 43.0543
L23.5759 41.7843
" />
<path d="M23.5759 41.7843
L24.1806 41.7843
" />
<path d="M24.8459 41.7843
L24.8459 42.0867
" />
<path d="M24.5435 41.9657
L24.8459 42.0867
" />
<path d="M24.8459 42.0867
L25.1483 41.9657
" />
<path d="M24.6645 42.3286
L24.8459 42.0867
" />
<path d="M24.8459 42.0867
L25.0273 42.3286
" />
<path d="M25.8135 41.7843
L25.8135 42.0867
" />
<path d="M25.5111 41.9657
L25.8135 42.0867
" />
<path d="M25.8135 42.0867
L26.1159 41.9657
" />
<path d="M25.6321 42.3286
L25.8135 42.0867
" />
<path d="M25.8135 42.0867
L25.9949 42.3286
" />
</g></g>
<g style="fill:none; 
stroke:#F2EDA1; stroke-width:0.1200; stroke-opacity:1; 
stroke-linecap:round; stroke-linejoin:round;">
<path d="M22.2459 0.5050
L22.2459 1.0750
" />
<path d="M22.2459 0.5050
L24.9059 0.5050
" />
<path d="M22.2459 1.0750
L20.7259 1.0750
" />
<path d="M22.2459 2.5950
L22.2459 6.1550
" />
<path d="M22.2459 7.6750
L22.2459 11.2350
" />
<path d="M22.2459 12.7550
L22.2459 16.3150
" />
<path d="M22.2459 17.8350
L22.2459 21.3950
" />
<path d="M22.2459 22.9150
L22.2459 26.4750
" />
<path d="M22.2459 27.9950
L22.2459 31.5550
" />
<path d="M22.2459 33.0750
L22.2459 36.6350
" />
<path d="M22.2459 38.1550
L22.2459 41.7150
" />
<path d="M22.2459 43.2350
L22.2459 46.7950
" />
<path d="M22.2459 48.3150
L22.2459 51.8750
" />
<path d="M22.2459 53.3950
L22.2459 56.9550
" />
<path d="M22.2459 58.4750
L22.2459 62.0350
" />
<path d="M22.2459 63.5550
L22.2459 67.1150
" />
<path d="M22.2459 68.6350
L22.2459 72.1950
" />
<path d="M22.2459 73.7150
L22.2459 77.2750
" />
<path d="M22.2459 78.7950
L22.2459 82.3550
" />
<path d="M22.2459 84.4450
L24.9059 84.4450
" />
<path d="M24.9059 0.5050
L24.9059 3.6150
" />
<path d="M24.9059 5.1350
L24.9059 8.6950
" />
<path d="M24.9059 10.2150
L24.9059 13.7750
" />
<path d="M24.9059 15.2950
L24.9059 18.8550
" />
<path d="M24.9059 20.3750
L24.9059 23.9350
" />
<path d="M24.9059 25.4550
L24.9059 29.0150
" />
<path d="M24.9059 30.5350
L24.9059 34.0950
" />
<path d="M24.9059 35.6150
L24.9059 39.1750
" />
<path d="M24.9059 40.6950
L24.9059 44.2550
" />
<path d="M24.9059 45.7750
L24.9059 49.3350
" />
<path d="M24.9059 50.8550
L24.9059 54.4150
" />
<path d="M24.9059 55.9350
L24.9059 59.4950
" />
<path d="M24.9059 61.0150
L24.9059 64.5750
" />
<path d="M24.9059 66.0950
L24.9059 69.6550
" />
<path d="M24.9059 71.1750
L24.9059 74.7350
" />
<path d="M24.9059 76.2550
L24.9059 79.8150
" />
<path d="M24.9059 81.3350
L24.9059 84.4450
" />
<path d="M24.9059 83.8750
L24.9059 84.4450
" />
</g>
<g style="fill:none; 
stroke:#FF26E2; stroke-width:0.0500; stroke-opacity:1; 
stroke-linecap:round; stroke-linejoin:round;">
<path d="M20.1259 0.0250
L20.1259 84.9250
" />
<path d="M20.1259 84.9250
L27.0259 84.9250
" />
<path d="M27.0259 0.0250
L20.1259 0.0250
" />
<path d="M27.0259 84.9250
L27.0259 0.0250
" />
</g>
<g style="fill:none; 
stroke:#AFAFAF; stroke-width:0.1588; stroke-opacity:1; 
stroke-linecap:round; stroke-linejoin:round;">
<text x="23.5759" y="43.1100"
textLength="47.1518" font-size="1.6933" lengthAdjust="spacingAndGlyphs"
text-anchor="middle" opacity="0">PinHeader_1x33_P2.54mm_Vertical_SMD_Pin1Left</text>
<g class="stroked-text"><desc>PinHeader_1x33_P2.54mm_Vertical_SMD_Pin1Left</desc>
<path d="M0.4135 43.0543
L0.4135 41.7843
" />
<path d="M0.4135 41.7843
L0.8973 41.7843
" />
<path d="M0.8973 41.7843
L1.0183 41.8447
" />
<path d="M1.0183 41.8447
L1.0787 41.9052
" />
<path d="M1.0787 41.9052
L1.1392 42.0262
" />
<path d="M1.1392 42.0262
L1.1392 42.2076
" />
<path d="M1.1392 42.2076
L1.0787 42.3286
" />
<path d="M1.0787 42.3286
L1.0183 42.3890
" />
<path d="M1.0183 42.3890
L0.8973 42.4495
" />
<path d="M0.8973 42.4495
L0.4135 42.4495
" />
<path d="M1.6835 43.0543
L1.6835 42.2076
" />
<path d="M1.6835 41.7843
L1.6230 41.8447
" />
<path d="M1.6230 41.8447
L1.6835 41.9052
" />
<path d="M1.6835 41.9052
L1.7440 41.8447
" />
<path d="M1.7440 41.8447
L1.6835 41.7843
" />
<path d="M1.6835 41.7843
L1.6835 41.9052
" />
<path d="M2.2883 42.2076
L2.2883 43.0543
" />
<path d="M2.2883 42.3286
L2.3487 42.2681
" />
<path d="M2.3487 42.2681
L2.4697 42.2076
" />
<path d="M2.4697 42.2076
L2.6511 42.2076
" />
<path d="M2.6511 42.2076
L2.7721 42.2681
" />
<path d="M2.7721 42.2681
L2.8326 42.3890
" />
<path d="M2.8326 42.3890
L2.8326 43.0543
" />
<path d="M3.4373 43.0543
L3.4373 41.7843
" />
<path d="M3.4373 42.3890
L4.1630 42.3890
" />
<path d="M4.1630 43.0543
L4.1630 41.7843
" />
<path d="M5.2516 42.9938
L5.1307 43.0543
" />
<path d="M5.1307 43.0543
L4.8887 43.0543
" />
<path d="M4.8887 43.0543
L4.7678 42.9938
" />
<path d="M4.7678 42.9938
L4.7073 42.8728
" />
<path d="M4.7073 42.8728
L4.7073 42.3890
" />
<path d="M4.7073 42.3890
L4.7678 42.2681
" />
<path d="M4.7678 42.2681
L4.8887 42.2076
" />
<path d="M4.8887 42.2076
L5.1307 42.2076
" />
<path d="M5.1307 42.2076
L5.2516 42.2681
" />
<path d="M5.2516 42.2681
L5.3121 42.3890
" />
<path d="M5.3121 42.3890
L5.3121 42.5100
" />
<path d="M5.3121 42.5100
L4.7073 42.6309
" />
<path d="M6.4006 43.0543
L6.4006 42.3890
" />
<path d="M6.4006 42.3890
L6.3402 42.2681
" />
<path d="M6.3402 42.2681
L6.2192 42.2076
" />
<path d="M6.2192 42.2076
L5.9773 42.2076
" />
<path d="M5.9773 42.2076
L5.8564 42.2681
" />
<path d="M6.4006 42.9938
L6.2797 43.0543
" />
<path d="M6.2797 43.0543
L5.9773 43.0543
" />
<path d="M5.9773 43.0543
L5.8564 42.9938
" />
<path d="M5.8564 42.9938
L5.7959 42.8728
" />
<path d="M5.7959 42.8728
L5.7959 42.7519
" />
<path d="M5.7959 42.7519
L5.8564 42.6309
" />
<path d="M5.8564 42.6309
L5.9773 42.5705
" />
<path d="M5.9773 42.5705
L6.2797 42.5705
" />
<path d="M6.2797 42.5705
L6.4006 42.5100
" />
<path d="M7.5497 43.0543
L7.5497 41.7843
" />
<path d="M7.5497 42.9938
L7.4287 43.0543
" />
<path d="M7.4287 43.0543
L7.1868 43.0543
" />
<path d="M7.1868 43.0543
L7.0659 42.9938
" />
<path d="M7.0659 42.9938
L7.0054 42.9333
" />
<path d="M7.0054 42.9333
L6.9449 42.8124
" />
<path d="M6.9449 42.8124
L6.9449 42.4495
" />
<path d="M6.9449 42.4495
L7.0054 42.3286
" />
<path d="M7.0054 42.3286
L7.0659 42.2681
" />
<path d="M7.0659 42.2681
L7.1868 42.2076
" />
<path d="M7.1868 42.2076
L7.4287 42.2076
" />
<path d="M7.4287 42.2076
L7.5497 42.2681
" />
<path d="M8.6383 42.9938
L8.5173 43.0543
" />
<path d="M8.5173 43.0543
L8.2754 43.0543
" />
<path d="M8.2754 43.0543
L8.1545 42.9938
" />
<path d="M8.1545 42.9938
L8.0940 42.8728
" />
<path d="M8.0940 42.8728
L8.0940 42.3890
" />
<path d="M8.0940 42.3890
L8.1545 42.2681
" />
<path d="M8.1545 42.2681
L8.2754 42.2076
" />
<path d="M8.2754 42.2076
L8.5173 42.2076
" />
<path d="M8.5173 42.2076
L8.6383 42.2681
" />
<path d="M8.6383 42.2681
L8.6987 42.3890
" />
<path d="M8.6987 42.3890
L8.6987 42.5100
" />
<path d="M8.6987 42.5100
L8.0940 42.6309
" />
<path d="M9.2430 43.0543
L9.2430 42.2076
" />
<path d="M9.2430 42.4495
L9.3035 42.3286
" />
<path d="M9.3035 42.3286
L9.3640 42.2681
" />
<path d="M9.3640 42.2681
L9.4849 42.2076
" />
<path d="M9.4849 42.2076
L9.6059 42.2076
" />
<path d="M9.7268 43.1752
L10.6945 43.1752
" />
<path d="M11.6621 43.0543
L10.9364 43.0543
" />
<path d="M11.2992 43.0543
L11.2992 41.7843
" />
<path d="M11.2992 41.7843
L11.1783 41.9657
" />
<path d="M11.1783 41.9657
L11.0573 42.0867
" />
<path d="M11.0573 42.0867
L10.9364 42.1471
" />
<path d="M12.0854 43.0543
L12.7506 42.2076
" />
<path d="M12.0854 42.2076
L12.7506 43.0543
" />
<path d="M13.1135 41.7843
L13.8997 41.7843
" />
<path d="M13.8997 41.7843
L13.4764 42.2681
" />
<path d="M13.4764 42.2681
L13.6578 42.2681
" />
<path d="M13.6578 42.2681
L13.7787 42.3286
" />
<path d="M13.7787 42.3286
L13.8392 42.3890
" />
<path d="M13.8392 42.3890
L13.8997 42.5100
" />
<path d="M13.8997 42.5100
L13.8997 42.8124
" />
<path d="M13.8997 42.8124
L13.8392 42.9333
" />
<path d="M13.8392 42.9333
L13.7787 42.9938
" />
<path d="M13.7787 42.9938
L13.6578 43.0543
" />
<path d="M13.6578 43.0543
L13.2949 43.0543
" />
<path d="M13.2949 43.0543
L13.1740 42.9938
" />
<path d="M13.1740 42.9938
L13.1135 42.9333
" />
<path d="M14.3230 41.7843
L15.1092 41.7843
" />
<path d="M15.1092 41.7843
L14.6859 42.2681
" />
<path d="M14.6859 42.2681
L14.8673 42.2681
" />
<path d="M14.8673 42.2681
L14.9883 42.3286
" />
<path d="M14.9883 42.3286
L15.0487 42.3890
" />
<path d="M15.0487 42.3890
L15.1092 42.5100
" />
<path d="M15.1092 42.5100
L15.1092 42.8124
" />
<path d="M15.1092 42.8124
L15.0487 42.9333
" />
<path d="M15.0487 42.9333
L14.9883 42.9938
" />
<path d="M14.9883 42.9938
L14.8673 43.0543
" />
<path d="M14.8673 43.0543
L14.5045 43.0543
" />
<path d="M14.5045 43.0543
L14.3835 42.9938
" />
<path d="M14.3835 42.9938
L14.3230 42.9333
" />
<path d="M15.3511 43.1752
L16.3187 43.1752
" />
<path d="M16.6211 43.0543
L16.6211 41.7843
" />
<path d="M16.6211 41.7843
L17.1049 41.7843
" />
<path d="M17.1049 41.7843
L17.2259 41.8447
" />
<path d="M17.2259 41.8447
L17.2864 41.9052
" />
<path d="M17.2864 41.9052
L17.3468 42.0262
" />
<path d="M17.3468 42.0262
L17.3468 42.2076
" />
<path d="M17.3468 42.2076
L17.2864 42.3286
" />
<path d="M17.2864 42.3286
L17.2259 42.3890
" />
<path d="M17.2259 42.3890
L17.1049 42.4495
" />
<path d="M17.1049 42.4495
L16.6211 42.4495
" />
<path d="M17.8306 41.9052
L17.8911 41.8447
" />
<path d="M17.8911 41.8447
L18.0121 41.7843
" />
<path d="M18.0121 41.7843
L18.3145 41.7843
" />
<path d="M18.3145 41.7843
L18.4354 41.8447
" />
<path d="M18.4354 41.8447
L18.4959 41.9052
" />
<path d="M18.4959 41.9052
L18.5564 42.0262
" />
<path d="M18.5564 42.0262
L18.5564 42.1471
" />
<path d="M18.5564 42.1471
L18.4959 42.3286
" />
<path d="M18.4959 42.3286
L17.7702 43.0543
" />
<path d="M17.7702 43.0543
L18.5564 43.0543
" />
<path d="M19.1006 42.9333
L19.1611 42.9938
" />
<path d="M19.1611 42.9938
L19.1006 43.0543
" />
<path d="M19.1006 43.0543
L19.0402 42.9938
" />
<path d="M19.0402 42.9938
L19.1006 42.9333
" />
<path d="M19.1006 42.9333
L19.1006 43.0543
" />
<path d="M20.3102 41.7843
L19.7054 41.7843
" />
<path d="M19.7054 41.7843
L19.6449 42.3890
" />
<path d="M19.6449 42.3890
L19.7054 42.3286
" />
<path d="M19.7054 42.3286
L19.8264 42.2681
" />
<path d="M19.8264 42.2681
L20.1287 42.2681
" />
<path d="M20.1287 42.2681
L20.2497 42.3286
" />
<path d="M20.2497 42.3286
L20.3102 42.3890
" />
<path d="M20.3102 42.3890
L20.3706 42.5100
" />
<path d="M20.3706 42.5100
L20.3706 42.8124
" />
<path d="M20.3706 42.8124
L20.3102 42.9333
" />
<path d="M20.3102 42.9333
L20.2497 42.9938
" />
<path d="M20.2497 42.9938
L20.1287 43.0543
" />
<path d="M20.1287 43.0543
L19.8264 43.0543
" />
<path d="M19.8264 43.0543
L19.7054 42.9938
" />
<path d="M19.7054 42.9938
L19.6449 42.9333
" />
<path d="M21.4592 42.2076
L21.4592 43.0543
" />
<path d="M21.1568 41.7238
L20.8545 42.6309
" />
<path d="M20.8545 42.6309
L21.6406 42.6309
" />
<path d="M22.1245 43.0543
L22.1245 42.2076
" />
<path d="M22.1245 42.3286
L22.1849 42.2681
" />
<path d="M22.1849 42.2681
L22.3059 42.2076
" />
<path d="M22.3059 42.2076
L22.4873 42.2076
" />
<path d="M22.4873 42.2076
L22.6083 42.2681
" />
<path d="M22.6083 42.2681
L22.6687 42.3890
" />
<path d="M22.6687 42.3890
L22.6687 43.0543
" />
<path d="M22.6687 42.3890
L22.7292 42.2681
" />
<path d="M22.7292 42.2681
L22.8502 42.2076
" />
<path d="M22.8502 42.2076
L23.0316 42.2076
" />
<path d="M23.0316 42.2076
L23.1526 42.2681
" />
<path d="M23.1526 42.2681
L23.2130 42.3890
" />
<path d="M23.2130 42.3890
L23.2130 43.0543
" />
<path d="M23.8178 43.0543
L23.8178 42.2076
" />
<path d="M23.8178 42.3286
L23.8783 42.2681
" />
<path d="M23.8783 42.2681
L23.9992 42.2076
" />
<path d="M23.9992 42.2076
L24.1806 42.2076
" />
<path d="M24.1806 42.2076
L24.3016 42.2681
" />
<path d="M24.3016 42.2681
L24.3621 42.3890
" />
<path d="M24.3621 42.3890
L24.3621 43.0543
" />
<path d="M24.3621 42.3890
L24.4226 42.2681
" />
<path d="M24.4226 42.2681
L24.5435 42.2076
" />
<path d="M24.5435 42.2076
L24.7249 42.2076
" />
<path d="M24.7249 42.2076
L24.8459 42.2681
" />
<path d="M24.8459 42.2681
L24.9064 42.3890
" />
<path d="M24.9064 42.3890
L24.9064 43.0543
" />
<path d="M25.2087 43.1752
L26.1764 43.1752
" />
<path d="M26.2973 41.7843
L26.7206 43.0543
" />
<path d="M26.7206 43.0543
L27.1440 41.7843
" />
<path d="M28.0511 42.9938
L27.9302 43.0543
" />
<path d="M27.9302 43.0543
L27.6883 43.0543
" />
<path d="M27.6883 43.0543
L27.5673 42.9938
" />
<path d="M27.5673 42.9938
L27.5068 42.8728
" />
<path d="M27.5068 42.8728
L27.5068 42.3890
" />
<path d="M27.5068 42.3890
L27.5673 42.2681
" />
<path d="M27.5673 42.2681
L27.6883 42.2076
" />
<path d="M27.6883 42.2076
L27.9302 42.2076
" />
<path d="M27.9302 42.2076
L28.0511 42.2681
" />
<path d="M28.0511 42.2681
L28.1116 42.3890
" />
<path d="M28.1116 42.3890
L28.1116 42.5100
" />
<path d="M28.1116 42.5100
L27.5068 42.6309
" />
<path d="M28.6559 43.0543
L28.6559 42.2076
" />
<path d="M28.6559 42.4495
L28.7164 42.3286
" />
<path d="M28.7164 42.3286
L28.7768 42.2681
" />
<path d="M28.7768 42.2681
L28.8978 42.2076
" />
<path d="M28.8978 42.2076
L29.0187 42.2076
" />
<path d="M29.2606 42.2076
L29.7445 42.2076
" />
<path d="M29.4421 41.7843
L29.4421 42.8728
" />
<path d="M29.4421 42.8728
L29.5026 42.9938
" />
<path d="M29.5026 42.9938
L29.6235 43.0543
" />
<path d="M29.6235 43.0543
L29.7445 43.0543
" />
<path d="M30.1678 43.0543
L30.1678 42.2076
" />
<path d="M30.1678 41.7843
L30.1073 41.8447
" />
<path d="M30.1073 41.8447
L30.1678 41.9052
" />
<path d="M30.1678 41.9052
L30.2283 41.8447
" />
<path d="M30.2283 41.8447
L30.1678 41.7843
" />
<path d="M30.1678 41.7843
L30.1678 41.9052
" />
<path d="M31.3168 42.9938
L31.1959 43.0543
" />
<path d="M31.1959 43.0543
L30.9540 43.0543
" />
<path d="M30.9540 43.0543
L30.8330 42.9938
" />
<path d="M30.8330 42.9938
L30.7726 42.9333
" />
<path d="M30.7726 42.9333
L30.7121 42.8124
" />
<path d="M30.7121 42.8124
L30.7121 42.4495
" />
<path d="M30.7121 42.4495
L30.7726 42.3286
" />
<path d="M30.7726 42.3286
L30.8330 42.2681
" />
<path d="M30.8330 42.2681
L30.9540 42.2076
" />
<path d="M30.9540 42.2076
L31.1959 42.2076
" />
<path d="M31.1959 42.2076
L31.3168 42.2681
" />
<path d="M32.4054 43.0543
L32.4054 42.3890
" />
<path d="M32.4054 42.3890
L32.3449 42.2681
" />
<path d="M32.3449 42.2681
L32.2240 42.2076
" />
<path d="M32.2240 42.2076
L31.9821 42.2076
" />
<path d="M31.9821 42.2076
L31.8611 42.2681
" />
<path d="M32.4054 42.9938
L32.2845 43.0543
" />
<path d="M32.2845 43.0543
L31.9821 43.0543
" />
<path d="M31.9821 43.0543
L31.8611 42.9938
" />
<path d="M31.8611 42.9938
L31.8006 42.8728
" />
<path d="M31.8006 42.8728
L31.8006 42.7519
" />
<path d="M31.8006 42.7519
L31.8611 42.6309
" />
<path d="M31.8611 42.6309
L31.9821 42.5705
" />
<path d="M31.9821 42.5705
L32.2845 42.5705
" />
<path d="M32.2845 42.5705
L32.4054 42.5100
" />
<path d="M33.1916 43.0543
L33.0706 42.9938
" />
<path d="M33.0706 42.9938
L33.0102 42.8728
" />
<path d="M33.0102 42.8728
L33.0102 41.7843
" />
<path d="M33.3730 43.1752
L34.3406 43.1752
" />
<path d="M34.5826 42.9938
L34.7640 43.0543
" />
<path d="M34.7640 43.0543
L35.0664 43.0543
" />
<path d="M35.0664 43.0543
L35.1873 42.9938
" />
<path d="M35.1873 42.9938
L35.2478 42.9333
" />
<path d="M35.2478 42.9333
L35.3083 42.8124
" />
<path d="M35.3083 42.8124
L35.3083 42.6914
" />
<path d="M35.3083 42.6914
L35.2478 42.5705
" />
<path d="M35.2478 42.5705
L35.1873 42.5100
" />
<path d="M35.1873 42.5100
L35.0664 42.4495
" />
<path d="M35.0664 42.4495
L34.8245 42.3890
" />
<path d="M34.8245 42.3890
L34.7035 42.3286
" />
<path d="M34.7035 42.3286
L34.6430 42.2681
" />
<path d="M34.6430 42.2681
L34.5826 42.1471
" />
<path d="M34.5826 42.1471
L34.5826 42.0262
" />
<path d="M34.5826 42.0262
L34.6430 41.9052
" />
<path d="M34.6430 41.9052
L34.7035 41.8447
" />
<path d="M34.7035 41.8447
L34.8245 41.7843
" />
<path d="M34.8245 41.7843
L35.1268 41.7843
" />
<path d="M35.1268 41.7843
L35.3083 41.8447
" />
<path d="M35.8526 43.0543
L35.8526 41.7843
" />
<path d="M35.8526 41.7843
L36.2759 42.6914
" />
<path d="M36.2759 42.6914
L36.6992 41.7843
" />
<path d="M36.6992 41.7843
L36.6992 43.0543
" />
<path d="M37.3040 43.0543
L37.3040 41.7843
" />
<path d="M37.3040 41.7843
L37.6064 41.7843
" />
<path d="M37.6064 41.7843
L37.7878 41.8447
" />
<path d="M37.7878 41.8447
L37.9087 41.9657
" />
<path d="M37.9087 41.9657
L37.9692 42.0867
" />
<path d="M37.9692 42.0867
L38.0297 42.3286
" />
<path d="M38.0297 42.3286
L38.0297 42.5100
" />
<path d="M38.0297 42.5100
L37.9692 42.7519
" />
<path d="M37.9692 42.7519
L37.9087 42.8728
" />
<path d="M37.9087 42.8728
L37.7878 42.9938
" />
<path d="M37.7878 42.9938
L37.6064 43.0543
" />
<path d="M37.6064 43.0543
L37.3040 43.0543
" />
<path d="M38.2716 43.1752
L39.2392 43.1752
" />
<path d="M39.5416 43.0543
L39.5416 41.7843
" />
<path d="M39.5416 41.7843
L40.0254 41.7843
" />
<path d="M40.0254 41.7843
L40.1464 41.8447
" />
<path d="M40.1464 41.8447
L40.2068 41.9052
" />
<path d="M40.2068 41.9052
L40.2673 42.0262
" />
<path d="M40.2673 42.0262
L40.2673 42.2076
" />
<path d="M40.2673 42.2076
L40.2068 42.3286
" />
<path d="M40.2068 42.3286
L40.1464 42.3890
" />
<path d="M40.1464 42.3890
L40.0254 42.4495
" />
<path d="M40.0254 42.4495
L39.5416 42.4495
" />
<path d="M40.8116 43.0543
L40.8116 42.2076
" />
<path d="M40.8116 41.7843
L40.7511 41.8447
" />
<path d="M40.7511 41.8447
L40.8116 41.9052
" />
<path d="M40.8116 41.9052
L40.8721 41.8447
" />
<path d="M40.8721 41.8447
L40.8116 41.7843
" />
<path d="M40.8116 41.7843
L40.8116 41.9052
" />
<path d="M41.4164 42.2076
L41.4164 43.0543
" />
<path d="M41.4164 42.3286
L41.4768 42.2681
" />
<path d="M41.4768 42.2681
L41.5978 42.2076
" />
<path d="M41.5978 42.2076
L41.7792 42.2076
" />
<path d="M41.7792 42.2076
L41.9002 42.2681
" />
<path d="M41.9002 42.2681
L41.9606 42.3890
" />
<path d="M41.9606 42.3890
L41.9606 43.0543
" />
<path d="M43.2306 43.0543
L42.5049 43.0543
" />
<path d="M42.8678 43.0543
L42.8678 41.7843
" />
<path d="M42.8678 41.7843
L42.7468 41.9657
" />
<path d="M42.7468 41.9657
L42.6259 42.0867
" />
<path d="M42.6259 42.0867
L42.5049 42.1471
" />
<path d="M44.3797 43.0543
L43.7749 43.0543
" />
<path d="M43.7749 43.0543
L43.7749 41.7843
" />
<path d="M45.2868 42.9938
L45.1659 43.0543
" />
<path d="M45.1659 43.0543
L44.9240 43.0543
" />
<path d="M44.9240 43.0543
L44.8030 42.9938
" />
<path d="M44.8030 42.9938
L44.7426 42.8728
" />
<path d="M44.7426 42.8728
L44.7426 42.3890
" />
<path d="M44.7426 42.3890
L44.8030 42.2681
" />
<path d="M44.8030 42.2681
L44.9240 42.2076
" />
<path d="M44.9240 42.2076
L45.1659 42.2076
" />
<path d="M45.1659 42.2076
L45.2868 42.2681
" />
<path d="M45.2868 42.2681
L45.3473 42.3890
" />
<path d="M45.3473 42.3890
L45.3473 42.5100
" />
<path d="M45.3473 42.5100
L44.7426 42.6309
" />
<path d="M45.7102 42.2076
L46.1940 42.2076
" />
<path d="M45.8916 43.0543
L45.8916 41.9657
" />
<path d="M45.8916 41.9657
L45.9521 41.8447
" />
<path d="M45.9521 41.8447
L46.0730 41.7843
" />
<path d="M46.0730 41.7843
L46.1940 41.7843
" />
<path d="M46.4359 42.2076
L46.9197 42.2076
" />
<path d="M46.6173 41.7843
L46.6173 42.8728
" />
<path d="M46.6173 42.8728
L46.6778 42.9938
" />
<path d="M46.6778 42.9938
L46.7987 43.0543
" />
<path d="M46.7987 43.0543
L46.9197 43.0543
" />
</g></g>
<g style="fill:none; 
stroke:#AFAFAF; stroke-width:0.1500; stroke-opacity:1; 
stroke-linecap:round; stroke-linejoin:round;">
<g transform="rotate(-90.000000 23.5759 42.4750)">
<text x="23.5759" y="42.9750"
textLength="4.5357" font-size="1.3333" lengthAdjust="spacingAndGlyphs"
text-anchor="middle" opacity="0">REF**</text>
</g>
<g class="stroked-text"><desc>REF**</desc>
<path d="M24.0307 43.8083
L23.5545 44.1417
" />
<path d="M24.0307 44.3798
L23.0307 44.3798
" />
<path d="M23.0307 44.3798
L23.0307 43.9988
" />
<path d="M23.0307 43.9988
L23.0783 43.9036
" />
<path d="M23.0783 43.9036
L23.1259 43.8560
" />
<path d="M23.1259 43.8560
L23.2212 43.8083
" />
<path d="M23.2212 43.8083
L23.3640 43.8083
" />
<path d="M23.3640 43.8083
L23.4593 43.8560
" />
<path d="M23.4593 43.8560
L23.5069 43.9036
" />
<path d="M23.5069 43.9036
L23.5545 43.9988
" />
<path d="M23.5545 43.9988
L23.5545 44.3798
" />
<path d="M23.5069 43.3798
L23.5069 43.0464
" />
<path d="M24.0307 42.9036
L24.0307 43.3798
" />
<path d="M24.0307 43.3798
L23.0307 43.3798
" />
<path d="M23.0307 43.3798
L23.0307 42.9036
" />
<path d="M23.5069 42.1417
L23.5069 42.4750
" />
<path d="M24.0307 42.4750
L23.0307 42.4750
" />
<path d="M23.0307 42.4750
L23.0307 41.9988
" />
<path d="M23.0307 41.4750
L23.2688 41.4750
" />
<path d="M23.1736 41.7131
L23.2688 41.4750
" />
<path d="M23.2688 41.4750
L23.1736 41.2369
" />
<path d="M23.4593 41.6179
L23.2688 41.4750
" />
<path d="M23.2688 41.4750
L23.4593 41.3321
" />
<path d="M23.0307 40.7131
L23.2688 40.7131
" />
<path d="M23.1736 40.9512
L23.2688 40.7131
" />
<path d="M23.2688 40.7131
L23.1736 40.4750
" />
<path d="M23.4593 40.8560
L23.2688 40.7131
" />
<path d="M23.2688 40.7131
L23.4593 40.5702
" />
</g></g>
<g style="fill:none; 
stroke:#AFAFAF; stroke-width:0.1000; stroke-opacity:1; 
stroke-linecap:round; stroke-linejoin:round;">
<path d="M21.0359 1.5150
L21.0359 2.1550
" />
<path d="M21.0359 2.1550
L22.3059 2.1550
" />
<path d="M21.0359 6.5950
L21.0359 7.2350
" />
<path d="M21.0359 7.2350
L22.3059 7.2350
" />
<path d="M21.0359 11.6750
L21.0359 12.3150
" />
<path d="M21.0359 12.3150
L22.3059 12.3150
" />
<path d="M21.0359 16.7550
L21.0359 17.3950
" />
<path d="M21.0359 17.3950
L22.3059 17.3950
" />
<path d="M21.0359 21.8350
L21.0359 22.4750
" />
<path d="M21.0359 22.4750
L22.3059 22.4750
" />
<path d="M21.0359 26.9150
L21.0359 27.5550
" />
<path d="M21.0359 27.5550
L22.3059 27.5550
" />
<path d="M21.0359 31.9950
L21.0359 32.6350
" />
<path d="M21.0359 32.6350
L22.3059 32.6350
" />
<path d="M21.0359 37.0750
L21.0359 37.7150
" />
<path d="M21.0359 37.7150
L22.3059 37.7150
" />
<path d="M21.0359 42.1550
L21.0359 42.7950
" />
<path d="M21.0359 42.7950
L22.3059 42.7950
" />
<path d="M21.0359 47.2350
L21.0359 47.8750
" />
<path d="M21.0359 47.8750
L22.3059 47.8750
" />
<path d="M21.0359 52.3150
L21.0359 52.9550
" />
<path d="M21.0359 52.9550
L22.3059 52.9550
" />
<path d="M21.0359 57.3950
L21.0359 58.0350
" />
<path d="M21.0359 58.0350
L22.3059 58.0350
" />
<path d="M21.0359 62.4750
L21.0359 63.1150
" />
<path d="M21.0359 63.1150
L22.3059 63.1150
" />
<path d="M21.0359 67.5550
L21.0359 68.1950
" />
<path d="M21.0359 68.1950
L22.3059 68.1950
" />
<path d="M21.0359 72.6350
L21.0359 73.2750
" />
<path d="M21.0359 73.2750
L22.3059 73.2750
" />
<path d="M21.0359 77.7150
L21.0359 78.3550
" />
<path d="M21.0359 78.3550
L22.3059 78.3550
" />
<path d="M21.0359 82.7950
L21.0359 83.4350
" />
<path d="M21.0359 83.4350
L22.3059 83.4350
" />
<path d="M22.3059 1.5150
L21.0359 1.5150
" />
<path d="M22.3059 1.5150
L23.2559 0.5650
" />
<path d="M22.3059 6.5950
L21.0359 6.5950
" />
<path d="M22.3059 11.6750
L21.0359 11.6750
" />
<path d="M22.3059 16.7550
L21.0359 16.7550
" />
<path d="M22.3059 21.8350
L21.0359 21.8350
" />
<path d="M22.3059 26.9150
L21.0359 26.9150
" />
<path d="M22.3059 31.9950
L21.0359 31.9950
" />
<path d="M22.3059 37.0750
L21.0359 37.0750
" />
<path d="M22.3059 42.1550
L21.0359 42.1550
" />
<path d="M22.3059 47.2350
L21.0359 47.2350
" />
<path d="M22.3059 52.3150
L21.0359 52.3150
" />
<path d="M22.3059 57.3950
L21.0359 57.3950
" />
<path d="M22.3059 62.4750
L21.0359 62.4750
" />
<path d="M22.3059 67.5550
L21.0359 67.5550
" />
<path d="M22.3059 72.6350
L21.0359 72.6350
" />
<path d="M22.3059 77.7150
L21.0359 77.7150
" />
<path d="M22.3059 82.7950
L21.0359 82.7950
" />
<path d="M22.3059 84.3850
L22.3059 1.5150
" />
<path d="M23.2559 0.5650
L24.8459 0.5650
" />
<path d="M24.8459 0.5650
L24.8459 84.3850
" />
<path d="M24.8459 4.0550
L26.1159 4.0550
" />
<path d="M24.8459 9.1350
L26.1159 9.1350
" />
<path d="M24.8459 14.2150
L26.1159 14.2150
" />
<path d="M24.8459 19.2950
L26.1159 19.2950
" />
<path d="M24.8459 24.3750
L26.1159 24.3750
" />
<path d="M24.8459 29.4550
L26.1159 29.4550
" />
<path d="M24.8459 34.5350
L26.1159 34.5350
" />
<path d="M24.8459 39.6150
L26.1159 39.6150
" />
<path d="M24.8459 44.6950
L26.1159 44.6950
" />
<path d="M24.8459 49.7750
L26.1159 49.7750
" />
<path d="M24.8459 54.8550
L26.1159 54.8550
" />
<path d="M24.8459 59.9350
L26.1159 59.9350
" />
<path d="M24.8459 65.0150
L26.1159 65.0150
" />
<path d="M24.8459 70.0950
L26.1159 70.0950
" />
<path d="M24.8459 75.1750
L26.1159 75.1750
" />
<path d="M24.8459 80.2550
L26.1159 80.2550
" />
<path d="M24.8459 84.3850
L22.3059 84.3850
" />
<path d="M26.1159 4.0550
L26.1159 4.6950
" />
<path d="M26.1159 4.6950
L24.8459 4.6950
" />
<path d="M26.1159 9.1350
L26.1159 9.7750
" />
<path d="M26.1159 9.7750
L24.8459 9.7750
" />
<path d="M26.1159 14.2150
L26.1159 14.8550
" />
<path d="M26.1159 14.8550
L24.8459 14.8550
" />
<path d="M26.1159 19.2950
L26.1159 19.9350
" />
<path d="M26.1159 19.9350
L24.8459 19.9350
" />
<path d="M26.1159 24.3750
L26.1159 25.0150
" />
<path d="M26.1159 25.0150
L24.8459 25.0150
" />
<path d="M26.1159 29.4550
L26.1159 30.0950
" />
<path d="M26.1159 30.0950
L24.8459 30.0950
" />
<path d="M26.1159 34.5350
L26.1159 35.1750
" />
<path d="M26.1159 35.1750
L24.8459 35.1750
" />
<path d="M26.1159 39.6150
L26.1159 40.2550
" />
<path d="M26.1159 40.2550
L24.8459 40.2550
" />
<path d="M26.1159 44.6950
L26.1159 45.3350
" />
<path d="M26.1159 45.3350
L24.8459 45.3350
" />
<path d="M26.1159 49.7750
L26.1159 50.4150
" />
<path d="M26.1159 50.4150
L24.8459 50.4150
" />
<path d="M26.1159 54.8550
L26.1159 55.4950
" />
<path d="M26.1159 55.4950
L24.8459 55.4950
" />
<path d="M26.1159 59.9350
L26.1159 60.5750
" />
<path d="M26.1159 60.5750
L24.8459 60.5750
" />
<path d="M26.1159 65.0150
L26.1159 65.6550
" />
<path d="M26.1159 65.6550
L24.8459 65.6550
" />
<path d="M26.1159 70.0950
L26.1159 70.7350
" />
<path d="M26.1159 70.7350
L24.8459 70.7350
" />
<path d="M26.1159 75.1750
L26.1159 75.8150
" />
<path d="M26.1159 75.8150
L24.8459 75.8150
" />
<path d="M26.1159 80.2550
L26.1159 80.8950
" />
<path d="M26.1159 80.8950
L24.8459 80.8950
" />
</g> 
</svg>
