<?xml version="1.0" standalone="no"?>
 <!DOCTYPE svg PUBLIC "-//W3C//DTD SVG 1.1//EN" 
 "http://www.w3.org/Graphics/SVG/1.1/DTD/svg11.dtd"> 
<svg
  xmlns:svg="http://www.w3.org/2000/svg"
  xmlns="http://www.w3.org/2000/svg"
  xmlns:xlink="http://www.w3.org/1999/xlink"
  version="1.1"
  width="22.1742mm" height="8.0264mm" viewBox="0.0000 0.0000 22.1742 8.0264">
<title>SVG Image created as working-brd.svg date 2024/04/07 01:21:40 </title>
  <desc>Image generated by PCBNEW </desc>
<g style="fill:#000000; fill-opacity:1.0000;stroke:#000000; stroke-opacity:1.0000;
stroke-linecap:round; stroke-linejoin:round;"
 transform="translate(0 0) scale(1 1)">
<path style="fill:#C83434; fill-opacity:1.0000; stroke:none;fill-rule:evenodd;"
d="M 7.0876,7.7750
7.0876,0.2750
10.0876,0.2750
10.0876,7.7750
Z" /> 
<path style="fill:#C83434; fill-opacity:1.0000; stroke:none;fill-rule:evenodd;"
d="M 12.0876,7.7750
12.0876,0.2750
15.0876,0.2750
15.0876,7.7750
Z" /> 
<path style="fill:#D864FF; fill-opacity:0.4000; stroke:none;fill-rule:evenodd;"
d="M 7.0876,7.7750
7.0876,0.2750
10.0876,0.2750
10.0876,7.7750
Z" /> 
<path style="fill:#D864FF; fill-opacity:0.4000; stroke:none;fill-rule:evenodd;"
d="M 12.0876,7.7750
12.0876,0.2750
15.0876,0.2750
15.0876,7.7750
Z" /> 
<path style="fill:#B4A09A; fill-opacity:0.9000; stroke:none;fill-rule:evenodd;"
d="M 7.0876,7.7750
7.0876,0.2750
10.0876,0.2750
10.0876,7.7750
Z" /> 
<path style="fill:#B4A09A; fill-opacity:0.9000; stroke:none;fill-rule:evenodd;"
d="M 12.0876,7.7750
12.0876,0.2750
15.0876,0.2750
15.0876,7.7750
Z" /> 
</g>
<g style="fill:none; 
stroke:#F2EDA1; stroke-width:0.1588; stroke-opacity:1; 
stroke-linecap:round; stroke-linejoin:round;">
<text x="11.0876" y="4.6600"
textLength="5.6651" font-size="1.6933" lengthAdjust="spacingAndGlyphs"
text-anchor="middle" opacity="0">REF**</text>
<g class="stroked-text"><desc>REF**</desc>
<path d="M9.3942 4.6043
L8.9709 3.9995
" />
<path d="M8.6685 4.6043
L8.6685 3.3343
" />
<path d="M8.6685 3.3343
L9.1523 3.3343
" />
<path d="M9.1523 3.3343
L9.2733 3.3947
" />
<path d="M9.2733 3.3947
L9.3337 3.4552
" />
<path d="M9.3337 3.4552
L9.3942 3.5762
" />
<path d="M9.3942 3.5762
L9.3942 3.7576
" />
<path d="M9.3942 3.7576
L9.3337 3.8786
" />
<path d="M9.3337 3.8786
L9.2733 3.9390
" />
<path d="M9.2733 3.9390
L9.1523 3.9995
" />
<path d="M9.1523 3.9995
L8.6685 3.9995
" />
<path d="M9.9385 3.9390
L10.3618 3.9390
" />
<path d="M10.5433 4.6043
L9.9385 4.6043
" />
<path d="M9.9385 4.6043
L9.9385 3.3343
" />
<path d="M9.9385 3.3343
L10.5433 3.3343
" />
<path d="M11.5109 3.9390
L11.0876 3.9390
" />
<path d="M11.0876 4.6043
L11.0876 3.3343
" />
<path d="M11.0876 3.3343
L11.6923 3.3343
" />
<path d="M12.3576 3.3343
L12.3576 3.6367
" />
<path d="M12.0552 3.5157
L12.3576 3.6367
" />
<path d="M12.3576 3.6367
L12.6599 3.5157
" />
<path d="M12.1761 3.8786
L12.3576 3.6367
" />
<path d="M12.3576 3.6367
L12.5390 3.8786
" />
<path d="M13.3252 3.3343
L13.3252 3.6367
" />
<path d="M13.0228 3.5157
L13.3252 3.6367
" />
<path d="M13.3252 3.6367
L13.6276 3.5157
" />
<path d="M13.1437 3.8786
L13.3252 3.6367
" />
<path d="M13.3252 3.6367
L13.5066 3.8786
" />
</g></g>
<g style="fill:none; 
stroke:#F2EDA1; stroke-width:0.1200; stroke-opacity:1; 
stroke-linecap:round; stroke-linejoin:round;">
<path d="M10.2876 0.4150
L11.8876 0.4150
" />
<path d="M10.2876 7.6350
L11.8876 7.6350
" />
</g>
<g style="fill:none; 
stroke:#FF26E2; stroke-width:0.0500; stroke-opacity:1; 
stroke-linecap:round; stroke-linejoin:round;">
<path d="M6.8376 0.0250
L6.8376 8.0250
" />
<path d="M6.8376 8.0250
L15.3376 8.0250
" />
<path d="M15.3376 0.0250
L6.8376 0.0250
" />
<path d="M15.3376 8.0250
L15.3376 0.0250
" />
</g>
<g style="fill:none; 
stroke:#AFAFAF; stroke-width:0.1588; stroke-opacity:1; 
stroke-linecap:round; stroke-linejoin:round;">
<text x="11.0876" y="4.6600"
textLength="22.1751" font-size="1.6933" lengthAdjust="spacingAndGlyphs"
text-anchor="middle" opacity="0">L_Ferrocore_DLG-0705</text>
<g class="stroked-text"><desc>L_Ferrocore_DLG-0705</desc>
<path d="M1.0183 4.6043
L0.4135 4.6043
" />
<path d="M0.4135 4.6043
L0.4135 3.3343
" />
<path d="M1.1392 4.7252
L2.1068 4.7252
" />
<path d="M2.8326 3.9390
L2.4092 3.9390
" />
<path d="M2.4092 4.6043
L2.4092 3.3343
" />
<path d="M2.4092 3.3343
L3.0140 3.3343
" />
<path d="M3.9816 4.5438
L3.8606 4.6043
" />
<path d="M3.8606 4.6043
L3.6187 4.6043
" />
<path d="M3.6187 4.6043
L3.4978 4.5438
" />
<path d="M3.4978 4.5438
L3.4373 4.4228
" />
<path d="M3.4373 4.4228
L3.4373 3.9390
" />
<path d="M3.4373 3.9390
L3.4978 3.8181
" />
<path d="M3.4978 3.8181
L3.6187 3.7576
" />
<path d="M3.6187 3.7576
L3.8606 3.7576
" />
<path d="M3.8606 3.7576
L3.9816 3.8181
" />
<path d="M3.9816 3.8181
L4.0421 3.9390
" />
<path d="M4.0421 3.9390
L4.0421 4.0600
" />
<path d="M4.0421 4.0600
L3.4373 4.1809
" />
<path d="M4.5864 4.6043
L4.5864 3.7576
" />
<path d="M4.5864 3.9995
L4.6468 3.8786
" />
<path d="M4.6468 3.8786
L4.7073 3.8181
" />
<path d="M4.7073 3.8181
L4.8283 3.7576
" />
<path d="M4.8283 3.7576
L4.9492 3.7576
" />
<path d="M5.3726 4.6043
L5.3726 3.7576
" />
<path d="M5.3726 3.9995
L5.4330 3.8786
" />
<path d="M5.4330 3.8786
L5.4935 3.8181
" />
<path d="M5.4935 3.8181
L5.6145 3.7576
" />
<path d="M5.6145 3.7576
L5.7354 3.7576
" />
<path d="M6.3402 4.6043
L6.2192 4.5438
" />
<path d="M6.2192 4.5438
L6.1587 4.4833
" />
<path d="M6.1587 4.4833
L6.0983 4.3624
" />
<path d="M6.0983 4.3624
L6.0983 3.9995
" />
<path d="M6.0983 3.9995
L6.1587 3.8786
" />
<path d="M6.1587 3.8786
L6.2192 3.8181
" />
<path d="M6.2192 3.8181
L6.3402 3.7576
" />
<path d="M6.3402 3.7576
L6.5216 3.7576
" />
<path d="M6.5216 3.7576
L6.6426 3.8181
" />
<path d="M6.6426 3.8181
L6.7030 3.8786
" />
<path d="M6.7030 3.8786
L6.7635 3.9995
" />
<path d="M6.7635 3.9995
L6.7635 4.3624
" />
<path d="M6.7635 4.3624
L6.7030 4.4833
" />
<path d="M6.7030 4.4833
L6.6426 4.5438
" />
<path d="M6.6426 4.5438
L6.5216 4.6043
" />
<path d="M6.5216 4.6043
L6.3402 4.6043
" />
<path d="M7.8521 4.5438
L7.7311 4.6043
" />
<path d="M7.7311 4.6043
L7.4892 4.6043
" />
<path d="M7.4892 4.6043
L7.3683 4.5438
" />
<path d="M7.3683 4.5438
L7.3078 4.4833
" />
<path d="M7.3078 4.4833
L7.2473 4.3624
" />
<path d="M7.2473 4.3624
L7.2473 3.9995
" />
<path d="M7.2473 3.9995
L7.3078 3.8786
" />
<path d="M7.3078 3.8786
L7.3683 3.8181
" />
<path d="M7.3683 3.8181
L7.4892 3.7576
" />
<path d="M7.4892 3.7576
L7.7311 3.7576
" />
<path d="M7.7311 3.7576
L7.8521 3.8181
" />
<path d="M8.5778 4.6043
L8.4568 4.5438
" />
<path d="M8.4568 4.5438
L8.3964 4.4833
" />
<path d="M8.3964 4.4833
L8.3359 4.3624
" />
<path d="M8.3359 4.3624
L8.3359 3.9995
" />
<path d="M8.3359 3.9995
L8.3964 3.8786
" />
<path d="M8.3964 3.8786
L8.4568 3.8181
" />
<path d="M8.4568 3.8181
L8.5778 3.7576
" />
<path d="M8.5778 3.7576
L8.7592 3.7576
" />
<path d="M8.7592 3.7576
L8.8802 3.8181
" />
<path d="M8.8802 3.8181
L8.9406 3.8786
" />
<path d="M8.9406 3.8786
L9.0011 3.9995
" />
<path d="M9.0011 3.9995
L9.0011 4.3624
" />
<path d="M9.0011 4.3624
L8.9406 4.4833
" />
<path d="M8.9406 4.4833
L8.8802 4.5438
" />
<path d="M8.8802 4.5438
L8.7592 4.6043
" />
<path d="M8.7592 4.6043
L8.5778 4.6043
" />
<path d="M9.5454 4.6043
L9.5454 3.7576
" />
<path d="M9.5454 3.9995
L9.6059 3.8786
" />
<path d="M9.6059 3.8786
L9.6664 3.8181
" />
<path d="M9.6664 3.8181
L9.7873 3.7576
" />
<path d="M9.7873 3.7576
L9.9083 3.7576
" />
<path d="M10.8154 4.5438
L10.6945 4.6043
" />
<path d="M10.6945 4.6043
L10.4526 4.6043
" />
<path d="M10.4526 4.6043
L10.3316 4.5438
" />
<path d="M10.3316 4.5438
L10.2711 4.4228
" />
<path d="M10.2711 4.4228
L10.2711 3.9390
" />
<path d="M10.2711 3.9390
L10.3316 3.8181
" />
<path d="M10.3316 3.8181
L10.4526 3.7576
" />
<path d="M10.4526 3.7576
L10.6945 3.7576
" />
<path d="M10.6945 3.7576
L10.8154 3.8181
" />
<path d="M10.8154 3.8181
L10.8759 3.9390
" />
<path d="M10.8759 3.9390
L10.8759 4.0600
" />
<path d="M10.8759 4.0600
L10.2711 4.1809
" />
<path d="M11.1178 4.7252
L12.0854 4.7252
" />
<path d="M12.3878 4.6043
L12.3878 3.3343
" />
<path d="M12.3878 3.3343
L12.6902 3.3343
" />
<path d="M12.6902 3.3343
L12.8716 3.3947
" />
<path d="M12.8716 3.3947
L12.9925 3.5157
" />
<path d="M12.9925 3.5157
L13.0530 3.6367
" />
<path d="M13.0530 3.6367
L13.1135 3.8786
" />
<path d="M13.1135 3.8786
L13.1135 4.0600
" />
<path d="M13.1135 4.0600
L13.0530 4.3019
" />
<path d="M13.0530 4.3019
L12.9925 4.4228
" />
<path d="M12.9925 4.4228
L12.8716 4.5438
" />
<path d="M12.8716 4.5438
L12.6902 4.6043
" />
<path d="M12.6902 4.6043
L12.3878 4.6043
" />
<path d="M14.2625 4.6043
L13.6578 4.6043
" />
<path d="M13.6578 4.6043
L13.6578 3.3343
" />
<path d="M15.3511 3.3947
L15.2302 3.3343
" />
<path d="M15.2302 3.3343
L15.0487 3.3343
" />
<path d="M15.0487 3.3343
L14.8673 3.3947
" />
<path d="M14.8673 3.3947
L14.7464 3.5157
" />
<path d="M14.7464 3.5157
L14.6859 3.6367
" />
<path d="M14.6859 3.6367
L14.6254 3.8786
" />
<path d="M14.6254 3.8786
L14.6254 4.0600
" />
<path d="M14.6254 4.0600
L14.6859 4.3019
" />
<path d="M14.6859 4.3019
L14.7464 4.4228
" />
<path d="M14.7464 4.4228
L14.8673 4.5438
" />
<path d="M14.8673 4.5438
L15.0487 4.6043
" />
<path d="M15.0487 4.6043
L15.1697 4.6043
" />
<path d="M15.1697 4.6043
L15.3511 4.5438
" />
<path d="M15.3511 4.5438
L15.4116 4.4833
" />
<path d="M15.4116 4.4833
L15.4116 4.0600
" />
<path d="M15.4116 4.0600
L15.1697 4.0600
" />
<path d="M15.9559 4.1205
L16.9235 4.1205
" />
<path d="M17.7702 3.3343
L17.8911 3.3343
" />
<path d="M17.8911 3.3343
L18.0121 3.3947
" />
<path d="M18.0121 3.3947
L18.0725 3.4552
" />
<path d="M18.0725 3.4552
L18.1330 3.5762
" />
<path d="M18.1330 3.5762
L18.1935 3.8181
" />
<path d="M18.1935 3.8181
L18.1935 4.1205
" />
<path d="M18.1935 4.1205
L18.1330 4.3624
" />
<path d="M18.1330 4.3624
L18.0725 4.4833
" />
<path d="M18.0725 4.4833
L18.0121 4.5438
" />
<path d="M18.0121 4.5438
L17.8911 4.6043
" />
<path d="M17.8911 4.6043
L17.7702 4.6043
" />
<path d="M17.7702 4.6043
L17.6492 4.5438
" />
<path d="M17.6492 4.5438
L17.5887 4.4833
" />
<path d="M17.5887 4.4833
L17.5283 4.3624
" />
<path d="M17.5283 4.3624
L17.4678 4.1205
" />
<path d="M17.4678 4.1205
L17.4678 3.8181
" />
<path d="M17.4678 3.8181
L17.5283 3.5762
" />
<path d="M17.5283 3.5762
L17.5887 3.4552
" />
<path d="M17.5887 3.4552
L17.6492 3.3947
" />
<path d="M17.6492 3.3947
L17.7702 3.3343
" />
<path d="M18.6168 3.3343
L19.4635 3.3343
" />
<path d="M19.4635 3.3343
L18.9192 4.6043
" />
<path d="M20.1892 3.3343
L20.3102 3.3343
" />
<path d="M20.3102 3.3343
L20.4311 3.3947
" />
<path d="M20.4311 3.3947
L20.4916 3.4552
" />
<path d="M20.4916 3.4552
L20.5521 3.5762
" />
<path d="M20.5521 3.5762
L20.6126 3.8181
" />
<path d="M20.6126 3.8181
L20.6126 4.1205
" />
<path d="M20.6126 4.1205
L20.5521 4.3624
" />
<path d="M20.5521 4.3624
L20.4916 4.4833
" />
<path d="M20.4916 4.4833
L20.4311 4.5438
" />
<path d="M20.4311 4.5438
L20.3102 4.6043
" />
<path d="M20.3102 4.6043
L20.1892 4.6043
" />
<path d="M20.1892 4.6043
L20.0683 4.5438
" />
<path d="M20.0683 4.5438
L20.0078 4.4833
" />
<path d="M20.0078 4.4833
L19.9473 4.3624
" />
<path d="M19.9473 4.3624
L19.8868 4.1205
" />
<path d="M19.8868 4.1205
L19.8868 3.8181
" />
<path d="M19.8868 3.8181
L19.9473 3.5762
" />
<path d="M19.9473 3.5762
L20.0078 3.4552
" />
<path d="M20.0078 3.4552
L20.0683 3.3947
" />
<path d="M20.0683 3.3947
L20.1892 3.3343
" />
<path d="M21.7616 3.3343
L21.1568 3.3343
" />
<path d="M21.1568 3.3343
L21.0964 3.9390
" />
<path d="M21.0964 3.9390
L21.1568 3.8786
" />
<path d="M21.1568 3.8786
L21.2778 3.8181
" />
<path d="M21.2778 3.8181
L21.5802 3.8181
" />
<path d="M21.5802 3.8181
L21.7011 3.8786
" />
<path d="M21.7011 3.8786
L21.7616 3.9390
" />
<path d="M21.7616 3.9390
L21.8221 4.0600
" />
<path d="M21.8221 4.0600
L21.8221 4.3624
" />
<path d="M21.8221 4.3624
L21.7616 4.4833
" />
<path d="M21.7616 4.4833
L21.7011 4.5438
" />
<path d="M21.7011 4.5438
L21.5802 4.6043
" />
<path d="M21.5802 4.6043
L21.2778 4.6043
" />
<path d="M21.2778 4.6043
L21.1568 4.5438
" />
<path d="M21.1568 4.5438
L21.0964 4.4833
" />
</g></g>
<g style="fill:none; 
stroke:#AFAFAF; stroke-width:0.1500; stroke-opacity:1; 
stroke-linecap:round; stroke-linejoin:round;">
<text x="11.0876" y="4.5250"
textLength="4.5357" font-size="1.3333" lengthAdjust="spacingAndGlyphs"
text-anchor="middle" opacity="0">REF**</text>
<g class="stroked-text"><desc>REF**</desc>
<path d="M9.7542 4.4798
L9.4209 4.0036
" />
<path d="M9.1828 4.4798
L9.1828 3.4798
" />
<path d="M9.1828 3.4798
L9.5637 3.4798
" />
<path d="M9.5637 3.4798
L9.6590 3.5274
" />
<path d="M9.6590 3.5274
L9.7066 3.5751
" />
<path d="M9.7066 3.5751
L9.7542 3.6703
" />
<path d="M9.7542 3.6703
L9.7542 3.8132
" />
<path d="M9.7542 3.8132
L9.7066 3.9084
" />
<path d="M9.7066 3.9084
L9.6590 3.9560
" />
<path d="M9.6590 3.9560
L9.5637 4.0036
" />
<path d="M9.5637 4.0036
L9.1828 4.0036
" />
<path d="M10.1828 3.9560
L10.5161 3.9560
" />
<path d="M10.6590 4.4798
L10.1828 4.4798
" />
<path d="M10.1828 4.4798
L10.1828 3.4798
" />
<path d="M10.1828 3.4798
L10.6590 3.4798
" />
<path d="M11.4209 3.9560
L11.0876 3.9560
" />
<path d="M11.0876 4.4798
L11.0876 3.4798
" />
<path d="M11.0876 3.4798
L11.5637 3.4798
" />
<path d="M12.0876 3.4798
L12.0876 3.7179
" />
<path d="M11.8495 3.6227
L12.0876 3.7179
" />
<path d="M12.0876 3.7179
L12.3256 3.6227
" />
<path d="M11.9447 3.9084
L12.0876 3.7179
" />
<path d="M12.0876 3.7179
L12.2304 3.9084
" />
<path d="M12.8495 3.4798
L12.8495 3.7179
" />
<path d="M12.6114 3.6227
L12.8495 3.7179
" />
<path d="M12.8495 3.7179
L13.0876 3.6227
" />
<path d="M12.7066 3.9084
L12.8495 3.7179
" />
<path d="M12.8495 3.7179
L12.9923 3.9084
" />
</g></g>
<g style="fill:none; 
stroke:#AFAFAF; stroke-width:0.1000; stroke-opacity:1; 
stroke-linecap:round; stroke-linejoin:round;">
<path d="M10.0876 0.5250
L12.0876 0.5250
" />
<path d="M10.0876 7.5250
L12.0876 7.5250
" />
<path d="M10.0876 0.5250 A3.5621 3.5621 0.0 0 0 10.0876 7.5250" />
<path d="M12.0876 7.5250 A3.5621 3.5621 0.0 0 0 12.0876 0.5250" />
</g> 
</svg>
