<?xml version="1.0" standalone="no"?>
 <!DOCTYPE svg PUBLIC "-//W3C//DTD SVG 1.1//EN" 
 "http://www.w3.org/Graphics/SVG/1.1/DTD/svg11.dtd"> 
<svg
  xmlns:svg="http://www.w3.org/2000/svg"
  xmlns="http://www.w3.org/2000/svg"
  xmlns:xlink="http://www.w3.org/1999/xlink"
  version="1.1"
  width="36.0172mm" height="3.2512mm" viewBox="0.0000 0.0000 36.0172 3.2512">
<title>SVG Image created as working-brd.svg date 2024/04/15 09:01:26 </title>
  <desc>Image generated by PCBNEW </desc>
<g style="fill:#000000; fill-opacity:1.0000;stroke:#000000; stroke-opacity:1.0000;
stroke-linecap:round; stroke-linejoin:round;"
 transform="translate(0 0) scale(1 1)">
</g>
<g style="fill:#FFFFFF; fill-opacity:1.0000; stroke:none;">
<circle cx="18.0121" cy="1.6329" r="0.2500" /> 
</g>
<g style="fill:#FFFFFF; fill-opacity:1.0000; stroke:none;">
<circle cx="19.0121" cy="1.6329" r="0.2500" /> 
<path style="fill:#02FFEE; fill-opacity:0.4000; stroke:none;fill-rule:evenodd;"
d="M 17.5871,2.0579
17.5871,1.2079
18.4371,1.2079
18.4371,2.0579
Z" /> 
</g>
<g style="fill:#02FFEE; fill-opacity:0.4000; stroke:none;">
<circle cx="19.0121" cy="1.6329" r="0.4250" /> 
</g>
<g style="fill:#FFFFFF; fill-opacity:1.0000; stroke:none;">
<circle cx="18.0121" cy="1.6329" r="0.2500" /> 
</g>
<g style="fill:#FFFFFF; fill-opacity:1.0000; stroke:none;">
<circle cx="19.0121" cy="1.6329" r="0.2500" /> 
</g>
<g style="fill:#FFFFFF; fill-opacity:1.0000; stroke:none;">
<circle cx="18.0121" cy="1.6329" r="0.2500" /> 
</g>
<g style="fill:#FFFFFF; fill-opacity:1.0000; stroke:none;">
<circle cx="19.0121" cy="1.6329" r="0.2500" /> 
<path style="fill:#D864FF; fill-opacity:0.4000; stroke:none;fill-rule:evenodd;"
d="M 17.5871,2.0579
17.5871,1.2079
18.4371,1.2079
18.4371,2.0579
Z" /> 
</g>
<g style="fill:#D864FF; fill-opacity:0.4000; stroke:none;">
<circle cx="19.0121" cy="1.6329" r="0.4250" /> 
</g>
<g style="fill:none; 
stroke:#F2EDA1; stroke-width:0.1588; stroke-opacity:1; 
stroke-linecap:round; stroke-linejoin:round;">
<text x="18.0121" y="2.2679"
textLength="5.6651" font-size="1.6933" lengthAdjust="spacingAndGlyphs"
text-anchor="middle" opacity="0">REF**</text>
<g class="stroked-text"><desc>REF**</desc>
<path d="M16.3187 2.2121
L15.8954 1.6074
" />
<path d="M15.5930 2.2121
L15.5930 0.9421
" />
<path d="M15.5930 0.9421
L16.0768 0.9421
" />
<path d="M16.0768 0.9421
L16.1978 1.0026
" />
<path d="M16.1978 1.0026
L16.2583 1.0631
" />
<path d="M16.2583 1.0631
L16.3187 1.1840
" />
<path d="M16.3187 1.1840
L16.3187 1.3655
" />
<path d="M16.3187 1.3655
L16.2583 1.4864
" />
<path d="M16.2583 1.4864
L16.1978 1.5469
" />
<path d="M16.1978 1.5469
L16.0768 1.6074
" />
<path d="M16.0768 1.6074
L15.5930 1.6074
" />
<path d="M16.8630 1.5469
L17.2864 1.5469
" />
<path d="M17.4678 2.2121
L16.8630 2.2121
" />
<path d="M16.8630 2.2121
L16.8630 0.9421
" />
<path d="M16.8630 0.9421
L17.4678 0.9421
" />
<path d="M18.4354 1.5469
L18.0121 1.5469
" />
<path d="M18.0121 2.2121
L18.0121 0.9421
" />
<path d="M18.0121 0.9421
L18.6168 0.9421
" />
<path d="M19.2821 0.9421
L19.2821 1.2445
" />
<path d="M18.9797 1.1236
L19.2821 1.2445
" />
<path d="M19.2821 1.2445
L19.5845 1.1236
" />
<path d="M19.1006 1.4864
L19.2821 1.2445
" />
<path d="M19.2821 1.2445
L19.4635 1.4864
" />
<path d="M20.2497 0.9421
L20.2497 1.2445
" />
<path d="M19.9473 1.1236
L20.2497 1.2445
" />
<path d="M20.2497 1.2445
L20.5521 1.1236
" />
<path d="M20.0683 1.4864
L20.2497 1.2445
" />
<path d="M20.2497 1.2445
L20.4311 1.4864
" />
</g></g>
<g style="fill:none; 
stroke:#F2EDA1; stroke-width:0.1200; stroke-opacity:1; 
stroke-linecap:round; stroke-linejoin:round;">
<path d="M17.3271 0.9479
L18.0121 0.9479
" />
<path d="M17.3271 1.6329
L17.3271 0.9479
" />
<path d="M19.6641 1.4229
L19.8521 1.4229
" />
<path d="M19.6641 1.8429
L19.8521 1.8429
" />
<path d="M19.8521 1.0729
L19.8521 2.1929
" />
<path d="M19.8521 2.1929
L21.1721 2.1929
" />
<path d="M21.1721 1.0729
L19.8521 1.0729
" />
<path d="M21.1721 1.4229
L23.1721 1.4229
" />
<path d="M21.1721 1.4829
L23.1721 1.4829
" />
<path d="M21.1721 1.6029
L23.1721 1.6029
" />
<path d="M21.1721 1.7229
L23.1721 1.7229
" />
<path d="M21.1721 2.1929
L21.1721 1.0729
" />
<path d="M23.1721 1.4229
L23.1721 1.8429
" />
<path d="M23.1721 1.8429
L21.1721 1.8429
" />
</g>
<g style="fill:#FFFFFF; fill-opacity:1.0000; stroke:none;">
<circle cx="18.0121" cy="1.6329" r="0.2500" /> 
</g>
<g style="fill:#FFFFFF; fill-opacity:1.0000; stroke:none;">
<circle cx="19.0121" cy="1.6329" r="0.2500" /> 
</g>
<g style="fill:none; 
stroke:#FF26E2; stroke-width:0.0500; stroke-opacity:1; 
stroke-linecap:round; stroke-linejoin:round;">
<path d="M17.0121 0.6329
L17.0121 2.6329
" />
<path d="M17.0121 2.6329
L23.6121 2.6329
" />
<path d="M23.6121 0.6329
L17.0121 0.6329
" />
<path d="M23.6121 2.6329
L23.6121 0.6329
" />
</g>
<g style="fill:none; 
stroke:#AFAFAF; stroke-width:0.1588; stroke-opacity:1; 
stroke-linecap:round; stroke-linejoin:round;">
<text x="18.0121" y="2.2679"
textLength="36.0242" font-size="1.6933" lengthAdjust="spacingAndGlyphs"
text-anchor="middle" opacity="0">PinHeader_2x01_P1.00mm_Horizontal</text>
<g class="stroked-text"><desc>PinHeader_2x01_P1.00mm_Horizontal</desc>
<path d="M0.4135 2.2121
L0.4135 0.9421
" />
<path d="M0.4135 0.9421
L0.8973 0.9421
" />
<path d="M0.8973 0.9421
L1.0183 1.0026
" />
<path d="M1.0183 1.0026
L1.0787 1.0631
" />
<path d="M1.0787 1.0631
L1.1392 1.1840
" />
<path d="M1.1392 1.1840
L1.1392 1.3655
" />
<path d="M1.1392 1.3655
L1.0787 1.4864
" />
<path d="M1.0787 1.4864
L1.0183 1.5469
" />
<path d="M1.0183 1.5469
L0.8973 1.6074
" />
<path d="M0.8973 1.6074
L0.4135 1.6074
" />
<path d="M1.6835 2.2121
L1.6835 1.3655
" />
<path d="M1.6835 0.9421
L1.6230 1.0026
" />
<path d="M1.6230 1.0026
L1.6835 1.0631
" />
<path d="M1.6835 1.0631
L1.7440 1.0026
" />
<path d="M1.7440 1.0026
L1.6835 0.9421
" />
<path d="M1.6835 0.9421
L1.6835 1.0631
" />
<path d="M2.2883 1.3655
L2.2883 2.2121
" />
<path d="M2.2883 1.4864
L2.3487 1.4259
" />
<path d="M2.3487 1.4259
L2.4697 1.3655
" />
<path d="M2.4697 1.3655
L2.6511 1.3655
" />
<path d="M2.6511 1.3655
L2.7721 1.4259
" />
<path d="M2.7721 1.4259
L2.8326 1.5469
" />
<path d="M2.8326 1.5469
L2.8326 2.2121
" />
<path d="M3.4373 2.2121
L3.4373 0.9421
" />
<path d="M3.4373 1.5469
L4.1630 1.5469
" />
<path d="M4.1630 2.2121
L4.1630 0.9421
" />
<path d="M5.2516 2.1517
L5.1307 2.2121
" />
<path d="M5.1307 2.2121
L4.8887 2.2121
" />
<path d="M4.8887 2.2121
L4.7678 2.1517
" />
<path d="M4.7678 2.1517
L4.7073 2.0307
" />
<path d="M4.7073 2.0307
L4.7073 1.5469
" />
<path d="M4.7073 1.5469
L4.7678 1.4259
" />
<path d="M4.7678 1.4259
L4.8887 1.3655
" />
<path d="M4.8887 1.3655
L5.1307 1.3655
" />
<path d="M5.1307 1.3655
L5.2516 1.4259
" />
<path d="M5.2516 1.4259
L5.3121 1.5469
" />
<path d="M5.3121 1.5469
L5.3121 1.6678
" />
<path d="M5.3121 1.6678
L4.7073 1.7888
" />
<path d="M6.4006 2.2121
L6.4006 1.5469
" />
<path d="M6.4006 1.5469
L6.3402 1.4259
" />
<path d="M6.3402 1.4259
L6.2192 1.3655
" />
<path d="M6.2192 1.3655
L5.9773 1.3655
" />
<path d="M5.9773 1.3655
L5.8564 1.4259
" />
<path d="M6.4006 2.1517
L6.2797 2.2121
" />
<path d="M6.2797 2.2121
L5.9773 2.2121
" />
<path d="M5.9773 2.2121
L5.8564 2.1517
" />
<path d="M5.8564 2.1517
L5.7959 2.0307
" />
<path d="M5.7959 2.0307
L5.7959 1.9097
" />
<path d="M5.7959 1.9097
L5.8564 1.7888
" />
<path d="M5.8564 1.7888
L5.9773 1.7283
" />
<path d="M5.9773 1.7283
L6.2797 1.7283
" />
<path d="M6.2797 1.7283
L6.4006 1.6678
" />
<path d="M7.5497 2.2121
L7.5497 0.9421
" />
<path d="M7.5497 2.1517
L7.4287 2.2121
" />
<path d="M7.4287 2.2121
L7.1868 2.2121
" />
<path d="M7.1868 2.2121
L7.0659 2.1517
" />
<path d="M7.0659 2.1517
L7.0054 2.0912
" />
<path d="M7.0054 2.0912
L6.9449 1.9702
" />
<path d="M6.9449 1.9702
L6.9449 1.6074
" />
<path d="M6.9449 1.6074
L7.0054 1.4864
" />
<path d="M7.0054 1.4864
L7.0659 1.4259
" />
<path d="M7.0659 1.4259
L7.1868 1.3655
" />
<path d="M7.1868 1.3655
L7.4287 1.3655
" />
<path d="M7.4287 1.3655
L7.5497 1.4259
" />
<path d="M8.6383 2.1517
L8.5173 2.2121
" />
<path d="M8.5173 2.2121
L8.2754 2.2121
" />
<path d="M8.2754 2.2121
L8.1545 2.1517
" />
<path d="M8.1545 2.1517
L8.0940 2.0307
" />
<path d="M8.0940 2.0307
L8.0940 1.5469
" />
<path d="M8.0940 1.5469
L8.1545 1.4259
" />
<path d="M8.1545 1.4259
L8.2754 1.3655
" />
<path d="M8.2754 1.3655
L8.5173 1.3655
" />
<path d="M8.5173 1.3655
L8.6383 1.4259
" />
<path d="M8.6383 1.4259
L8.6987 1.5469
" />
<path d="M8.6987 1.5469
L8.6987 1.6678
" />
<path d="M8.6987 1.6678
L8.0940 1.7888
" />
<path d="M9.2430 2.2121
L9.2430 1.3655
" />
<path d="M9.2430 1.6074
L9.3035 1.4864
" />
<path d="M9.3035 1.4864
L9.3640 1.4259
" />
<path d="M9.3640 1.4259
L9.4849 1.3655
" />
<path d="M9.4849 1.3655
L9.6059 1.3655
" />
<path d="M9.7268 2.3331
L10.6945 2.3331
" />
<path d="M10.9364 1.0631
L10.9968 1.0026
" />
<path d="M10.9968 1.0026
L11.1178 0.9421
" />
<path d="M11.1178 0.9421
L11.4202 0.9421
" />
<path d="M11.4202 0.9421
L11.5411 1.0026
" />
<path d="M11.5411 1.0026
L11.6016 1.0631
" />
<path d="M11.6016 1.0631
L11.6621 1.1840
" />
<path d="M11.6621 1.1840
L11.6621 1.3050
" />
<path d="M11.6621 1.3050
L11.6016 1.4864
" />
<path d="M11.6016 1.4864
L10.8759 2.2121
" />
<path d="M10.8759 2.2121
L11.6621 2.2121
" />
<path d="M12.0854 2.2121
L12.7506 1.3655
" />
<path d="M12.0854 1.3655
L12.7506 2.2121
" />
<path d="M13.4764 0.9421
L13.5973 0.9421
" />
<path d="M13.5973 0.9421
L13.7183 1.0026
" />
<path d="M13.7183 1.0026
L13.7787 1.0631
" />
<path d="M13.7787 1.0631
L13.8392 1.1840
" />
<path d="M13.8392 1.1840
L13.8997 1.4259
" />
<path d="M13.8997 1.4259
L13.8997 1.7283
" />
<path d="M13.8997 1.7283
L13.8392 1.9702
" />
<path d="M13.8392 1.9702
L13.7787 2.0912
" />
<path d="M13.7787 2.0912
L13.7183 2.1517
" />
<path d="M13.7183 2.1517
L13.5973 2.2121
" />
<path d="M13.5973 2.2121
L13.4764 2.2121
" />
<path d="M13.4764 2.2121
L13.3554 2.1517
" />
<path d="M13.3554 2.1517
L13.2949 2.0912
" />
<path d="M13.2949 2.0912
L13.2345 1.9702
" />
<path d="M13.2345 1.9702
L13.1740 1.7283
" />
<path d="M13.1740 1.7283
L13.1740 1.4259
" />
<path d="M13.1740 1.4259
L13.2345 1.1840
" />
<path d="M13.2345 1.1840
L13.2949 1.0631
" />
<path d="M13.2949 1.0631
L13.3554 1.0026
" />
<path d="M13.3554 1.0026
L13.4764 0.9421
" />
<path d="M15.1092 2.2121
L14.3835 2.2121
" />
<path d="M14.7464 2.2121
L14.7464 0.9421
" />
<path d="M14.7464 0.9421
L14.6254 1.1236
" />
<path d="M14.6254 1.1236
L14.5045 1.2445
" />
<path d="M14.5045 1.2445
L14.3835 1.3050
" />
<path d="M15.3511 2.3331
L16.3187 2.3331
" />
<path d="M16.6211 2.2121
L16.6211 0.9421
" />
<path d="M16.6211 0.9421
L17.1049 0.9421
" />
<path d="M17.1049 0.9421
L17.2259 1.0026
" />
<path d="M17.2259 1.0026
L17.2864 1.0631
" />
<path d="M17.2864 1.0631
L17.3468 1.1840
" />
<path d="M17.3468 1.1840
L17.3468 1.3655
" />
<path d="M17.3468 1.3655
L17.2864 1.4864
" />
<path d="M17.2864 1.4864
L17.2259 1.5469
" />
<path d="M17.2259 1.5469
L17.1049 1.6074
" />
<path d="M17.1049 1.6074
L16.6211 1.6074
" />
<path d="M18.5564 2.2121
L17.8306 2.2121
" />
<path d="M18.1935 2.2121
L18.1935 0.9421
" />
<path d="M18.1935 0.9421
L18.0726 1.1236
" />
<path d="M18.0726 1.1236
L17.9516 1.2445
" />
<path d="M17.9516 1.2445
L17.8306 1.3050
" />
<path d="M19.1006 2.0912
L19.1611 2.1517
" />
<path d="M19.1611 2.1517
L19.1006 2.2121
" />
<path d="M19.1006 2.2121
L19.0402 2.1517
" />
<path d="M19.0402 2.1517
L19.1006 2.0912
" />
<path d="M19.1006 2.0912
L19.1006 2.2121
" />
<path d="M19.9473 0.9421
L20.0683 0.9421
" />
<path d="M20.0683 0.9421
L20.1892 1.0026
" />
<path d="M20.1892 1.0026
L20.2497 1.0631
" />
<path d="M20.2497 1.0631
L20.3102 1.1840
" />
<path d="M20.3102 1.1840
L20.3706 1.4259
" />
<path d="M20.3706 1.4259
L20.3706 1.7283
" />
<path d="M20.3706 1.7283
L20.3102 1.9702
" />
<path d="M20.3102 1.9702
L20.2497 2.0912
" />
<path d="M20.2497 2.0912
L20.1892 2.1517
" />
<path d="M20.1892 2.1517
L20.0683 2.2121
" />
<path d="M20.0683 2.2121
L19.9473 2.2121
" />
<path d="M19.9473 2.2121
L19.8264 2.1517
" />
<path d="M19.8264 2.1517
L19.7659 2.0912
" />
<path d="M19.7659 2.0912
L19.7054 1.9702
" />
<path d="M19.7054 1.9702
L19.6449 1.7283
" />
<path d="M19.6449 1.7283
L19.6449 1.4259
" />
<path d="M19.6449 1.4259
L19.7054 1.1840
" />
<path d="M19.7054 1.1840
L19.7659 1.0631
" />
<path d="M19.7659 1.0631
L19.8264 1.0026
" />
<path d="M19.8264 1.0026
L19.9473 0.9421
" />
<path d="M21.1568 0.9421
L21.2778 0.9421
" />
<path d="M21.2778 0.9421
L21.3987 1.0026
" />
<path d="M21.3987 1.0026
L21.4592 1.0631
" />
<path d="M21.4592 1.0631
L21.5197 1.1840
" />
<path d="M21.5197 1.1840
L21.5802 1.4259
" />
<path d="M21.5802 1.4259
L21.5802 1.7283
" />
<path d="M21.5802 1.7283
L21.5197 1.9702
" />
<path d="M21.5197 1.9702
L21.4592 2.0912
" />
<path d="M21.4592 2.0912
L21.3987 2.1517
" />
<path d="M21.3987 2.1517
L21.2778 2.2121
" />
<path d="M21.2778 2.2121
L21.1568 2.2121
" />
<path d="M21.1568 2.2121
L21.0359 2.1517
" />
<path d="M21.0359 2.1517
L20.9754 2.0912
" />
<path d="M20.9754 2.0912
L20.9149 1.9702
" />
<path d="M20.9149 1.9702
L20.8545 1.7283
" />
<path d="M20.8545 1.7283
L20.8545 1.4259
" />
<path d="M20.8545 1.4259
L20.9149 1.1840
" />
<path d="M20.9149 1.1840
L20.9754 1.0631
" />
<path d="M20.9754 1.0631
L21.0359 1.0026
" />
<path d="M21.0359 1.0026
L21.1568 0.9421
" />
<path d="M22.1245 2.2121
L22.1245 1.3655
" />
<path d="M22.1245 1.4864
L22.1849 1.4259
" />
<path d="M22.1849 1.4259
L22.3059 1.3655
" />
<path d="M22.3059 1.3655
L22.4873 1.3655
" />
<path d="M22.4873 1.3655
L22.6083 1.4259
" />
<path d="M22.6083 1.4259
L22.6687 1.5469
" />
<path d="M22.6687 1.5469
L22.6687 2.2121
" />
<path d="M22.6687 1.5469
L22.7292 1.4259
" />
<path d="M22.7292 1.4259
L22.8502 1.3655
" />
<path d="M22.8502 1.3655
L23.0316 1.3655
" />
<path d="M23.0316 1.3655
L23.1526 1.4259
" />
<path d="M23.1526 1.4259
L23.2130 1.5469
" />
<path d="M23.2130 1.5469
L23.2130 2.2121
" />
<path d="M23.8178 2.2121
L23.8178 1.3655
" />
<path d="M23.8178 1.4864
L23.8783 1.4259
" />
<path d="M23.8783 1.4259
L23.9992 1.3655
" />
<path d="M23.9992 1.3655
L24.1806 1.3655
" />
<path d="M24.1806 1.3655
L24.3016 1.4259
" />
<path d="M24.3016 1.4259
L24.3621 1.5469
" />
<path d="M24.3621 1.5469
L24.3621 2.2121
" />
<path d="M24.3621 1.5469
L24.4226 1.4259
" />
<path d="M24.4226 1.4259
L24.5435 1.3655
" />
<path d="M24.5435 1.3655
L24.7249 1.3655
" />
<path d="M24.7249 1.3655
L24.8459 1.4259
" />
<path d="M24.8459 1.4259
L24.9064 1.5469
" />
<path d="M24.9064 1.5469
L24.9064 2.2121
" />
<path d="M25.2087 2.3331
L26.1764 2.3331
" />
<path d="M26.4787 2.2121
L26.4787 0.9421
" />
<path d="M26.4787 1.5469
L27.2045 1.5469
" />
<path d="M27.2045 2.2121
L27.2045 0.9421
" />
<path d="M27.9906 2.2121
L27.8697 2.1517
" />
<path d="M27.8697 2.1517
L27.8092 2.0912
" />
<path d="M27.8092 2.0912
L27.7487 1.9702
" />
<path d="M27.7487 1.9702
L27.7487 1.6074
" />
<path d="M27.7487 1.6074
L27.8092 1.4864
" />
<path d="M27.8092 1.4864
L27.8697 1.4259
" />
<path d="M27.8697 1.4259
L27.9906 1.3655
" />
<path d="M27.9906 1.3655
L28.1721 1.3655
" />
<path d="M28.1721 1.3655
L28.2930 1.4259
" />
<path d="M28.2930 1.4259
L28.3535 1.4864
" />
<path d="M28.3535 1.4864
L28.4140 1.6074
" />
<path d="M28.4140 1.6074
L28.4140 1.9702
" />
<path d="M28.4140 1.9702
L28.3535 2.0912
" />
<path d="M28.3535 2.0912
L28.2930 2.1517
" />
<path d="M28.2930 2.1517
L28.1721 2.2121
" />
<path d="M28.1721 2.2121
L27.9906 2.2121
" />
<path d="M28.9583 2.2121
L28.9583 1.3655
" />
<path d="M28.9583 1.6074
L29.0187 1.4864
" />
<path d="M29.0187 1.4864
L29.0792 1.4259
" />
<path d="M29.0792 1.4259
L29.2002 1.3655
" />
<path d="M29.2002 1.3655
L29.3211 1.3655
" />
<path d="M29.7445 2.2121
L29.7445 1.3655
" />
<path d="M29.7445 0.9421
L29.6840 1.0026
" />
<path d="M29.6840 1.0026
L29.7445 1.0631
" />
<path d="M29.7445 1.0631
L29.8049 1.0026
" />
<path d="M29.8049 1.0026
L29.7445 0.9421
" />
<path d="M29.7445 0.9421
L29.7445 1.0631
" />
<path d="M30.2283 1.3655
L30.8935 1.3655
" />
<path d="M30.8935 1.3655
L30.2283 2.2121
" />
<path d="M30.2283 2.2121
L30.8935 2.2121
" />
<path d="M31.5587 2.2121
L31.4378 2.1517
" />
<path d="M31.4378 2.1517
L31.3773 2.0912
" />
<path d="M31.3773 2.0912
L31.3168 1.9702
" />
<path d="M31.3168 1.9702
L31.3168 1.6074
" />
<path d="M31.3168 1.6074
L31.3773 1.4864
" />
<path d="M31.3773 1.4864
L31.4378 1.4259
" />
<path d="M31.4378 1.4259
L31.5587 1.3655
" />
<path d="M31.5587 1.3655
L31.7402 1.3655
" />
<path d="M31.7402 1.3655
L31.8611 1.4259
" />
<path d="M31.8611 1.4259
L31.9216 1.4864
" />
<path d="M31.9216 1.4864
L31.9821 1.6074
" />
<path d="M31.9821 1.6074
L31.9821 1.9702
" />
<path d="M31.9821 1.9702
L31.9216 2.0912
" />
<path d="M31.9216 2.0912
L31.8611 2.1517
" />
<path d="M31.8611 2.1517
L31.7402 2.2121
" />
<path d="M31.7402 2.2121
L31.5587 2.2121
" />
<path d="M32.5264 1.3655
L32.5264 2.2121
" />
<path d="M32.5264 1.4864
L32.5868 1.4259
" />
<path d="M32.5868 1.4259
L32.7078 1.3655
" />
<path d="M32.7078 1.3655
L32.8892 1.3655
" />
<path d="M32.8892 1.3655
L33.0102 1.4259
" />
<path d="M33.0102 1.4259
L33.0706 1.5469
" />
<path d="M33.0706 1.5469
L33.0706 2.2121
" />
<path d="M33.4940 1.3655
L33.9778 1.3655
" />
<path d="M33.6754 0.9421
L33.6754 2.0307
" />
<path d="M33.6754 2.0307
L33.7359 2.1517
" />
<path d="M33.7359 2.1517
L33.8568 2.2121
" />
<path d="M33.8568 2.2121
L33.9778 2.2121
" />
<path d="M34.9454 2.2121
L34.9454 1.5469
" />
<path d="M34.9454 1.5469
L34.8849 1.4259
" />
<path d="M34.8849 1.4259
L34.7640 1.3655
" />
<path d="M34.7640 1.3655
L34.5221 1.3655
" />
<path d="M34.5221 1.3655
L34.4011 1.4259
" />
<path d="M34.9454 2.1517
L34.8245 2.2121
" />
<path d="M34.8245 2.2121
L34.5221 2.2121
" />
<path d="M34.5221 2.2121
L34.4011 2.1517
" />
<path d="M34.4011 2.1517
L34.3406 2.0307
" />
<path d="M34.3406 2.0307
L34.3406 1.9097
" />
<path d="M34.3406 1.9097
L34.4011 1.7888
" />
<path d="M34.4011 1.7888
L34.5221 1.7283
" />
<path d="M34.5221 1.7283
L34.8245 1.7283
" />
<path d="M34.8245 1.7283
L34.9454 1.6678
" />
<path d="M35.7316 2.2121
L35.6106 2.1517
" />
<path d="M35.6106 2.1517
L35.5502 2.0307
" />
<path d="M35.5502 2.0307
L35.5502 0.9421
" />
</g></g>
<g style="fill:none; 
stroke:#AFAFAF; stroke-width:0.1080; stroke-opacity:1; 
stroke-linecap:round; stroke-linejoin:round;">
<g transform="rotate(-90.000000 20.5121 1.6329)">
<text x="20.5121" y="1.9929"
textLength="3.2657" font-size="0.9600" lengthAdjust="spacingAndGlyphs"
text-anchor="middle" opacity="0">REF**</text>
</g>
<g class="stroked-text"><desc>REF**</desc>
<path d="M20.8395 2.5929
L20.4967 2.8329
" />
<path d="M20.8395 3.0043
L20.1195 3.0043
" />
<path d="M20.1195 3.0043
L20.1195 2.7300
" />
<path d="M20.1195 2.7300
L20.1538 2.6614
" />
<path d="M20.1538 2.6614
L20.1881 2.6271
" />
<path d="M20.1881 2.6271
L20.2567 2.5929
" />
<path d="M20.2567 2.5929
L20.3595 2.5929
" />
<path d="M20.3595 2.5929
L20.4281 2.6271
" />
<path d="M20.4281 2.6271
L20.4624 2.6614
" />
<path d="M20.4624 2.6614
L20.4967 2.7300
" />
<path d="M20.4967 2.7300
L20.4967 3.0043
" />
<path d="M20.4624 2.2843
L20.4624 2.0443
" />
<path d="M20.8395 1.9414
L20.8395 2.2843
" />
<path d="M20.8395 2.2843
L20.1195 2.2843
" />
<path d="M20.1195 2.2843
L20.1195 1.9414
" />
<path d="M20.4624 1.3929
L20.4624 1.6329
" />
<path d="M20.8395 1.6329
L20.1195 1.6329
" />
<path d="M20.1195 1.6329
L20.1195 1.2900
" />
<path d="M20.1195 0.9129
L20.2910 0.9129
" />
<path d="M20.2224 1.0843
L20.2910 0.9129
" />
<path d="M20.2910 0.9129
L20.2224 0.7414
" />
<path d="M20.4281 1.0157
L20.2910 0.9129
" />
<path d="M20.2910 0.9129
L20.4281 0.8100
" />
<path d="M20.1195 0.3643
L20.2910 0.3643
" />
<path d="M20.2224 0.5357
L20.2910 0.3643
" />
<path d="M20.2910 0.3643
L20.2224 0.1929
" />
<path d="M20.4281 0.4671
L20.2910 0.3643
" />
<path d="M20.2910 0.3643
L20.4281 0.2614
" />
</g></g>
<g style="fill:none; 
stroke:#AFAFAF; stroke-width:0.1000; stroke-opacity:1; 
stroke-linecap:round; stroke-linejoin:round;">
<path d="M17.8621 1.4829
L17.8621 1.7829
" />
<path d="M17.8621 1.4829
L19.9121 1.4829
" />
<path d="M17.8621 1.7829
L19.9121 1.7829
" />
<path d="M19.9121 1.4329
L20.2121 1.1329
" />
<path d="M19.9121 2.1329
L19.9121 1.4329
" />
<path d="M20.2121 1.1329
L21.1121 1.1329
" />
<path d="M21.1121 1.1329
L21.1121 2.1329
" />
<path d="M21.1121 1.4829
L23.1121 1.4829
" />
<path d="M21.1121 1.7829
L23.1121 1.7829
" />
<path d="M21.1121 2.1329
L19.9121 2.1329
" />
<path d="M23.1121 1.4829
L23.1121 1.7829
" />
</g> 
</svg>
