<?xml version="1.0" standalone="no"?>
 <!DOCTYPE svg PUBLIC "-//W3C//DTD SVG 1.1//EN" 
 "http://www.w3.org/Graphics/SVG/1.1/DTD/svg11.dtd"> 
<svg
  xmlns:svg="http://www.w3.org/2000/svg"
  xmlns="http://www.w3.org/2000/svg"
  xmlns:xlink="http://www.w3.org/1999/xlink"
  version="1.1"
  width="59.4106mm" height="7.2644mm" viewBox="0.0000 0.0000 59.4106 7.2644">
<title>SVG Image created as working-brd.svg date 2024/04/21 00:30:13 </title>
  <desc>Image generated by PCBNEW </desc>
<g style="fill:#000000; fill-opacity:1.0000;stroke:#000000; stroke-opacity:1.0000;
stroke-linecap:round; stroke-linejoin:round;"
 transform="translate(0 0) scale(1 1)">
</g>
<g style="fill:#4D7FC4; fill-opacity:1.0000; stroke:none;">
<circle cx="28.2892" cy="2.2100" r="0.2500" /> 
</g>
<g style="fill:#4D7FC4; fill-opacity:1.0000; stroke:none;">
<circle cx="28.2892" cy="3.1600" r="0.2500" /> 
</g>
<g style="fill:#4D7FC4; fill-opacity:1.0000; stroke:none;">
<circle cx="28.2892" cy="4.1100" r="0.2500" /> 
</g>
<g style="fill:#4D7FC4; fill-opacity:1.0000; stroke:none;">
<circle cx="28.2892" cy="5.0600" r="0.2500" /> 
</g>
<g style="fill:#4D7FC4; fill-opacity:1.0000; stroke:none;">
<circle cx="29.2392" cy="2.2100" r="0.2500" /> 
</g>
<g style="fill:#4D7FC4; fill-opacity:1.0000; stroke:none;">
<circle cx="29.2392" cy="3.1600" r="0.2500" /> 
</g>
<g style="fill:#4D7FC4; fill-opacity:1.0000; stroke:none;">
<circle cx="29.2392" cy="4.1100" r="0.2500" /> 
</g>
<g style="fill:#4D7FC4; fill-opacity:1.0000; stroke:none;">
<circle cx="29.2392" cy="5.0600" r="0.2500" /> 
<path style="fill:#4D7FC4; fill-opacity:1.0000; stroke:none;fill-rule:evenodd;"
d="M 28.0392,5.3100
28.0392,1.9600
31.3892,1.9600
31.3892,5.3100
Z" /> 
</g>
<g style="fill:#4D7FC4; fill-opacity:1.0000; stroke:none;">
<circle cx="30.1892" cy="2.2100" r="0.2500" /> 
</g>
<g style="fill:#4D7FC4; fill-opacity:1.0000; stroke:none;">
<circle cx="30.1892" cy="3.1600" r="0.2500" /> 
</g>
<g style="fill:#4D7FC4; fill-opacity:1.0000; stroke:none;">
<circle cx="30.1892" cy="4.1100" r="0.2500" /> 
</g>
<g style="fill:#4D7FC4; fill-opacity:1.0000; stroke:none;">
<circle cx="30.1892" cy="5.0600" r="0.2500" /> 
</g>
<g style="fill:#4D7FC4; fill-opacity:1.0000; stroke:none;">
<circle cx="31.1392" cy="2.2100" r="0.2500" /> 
</g>
<g style="fill:#4D7FC4; fill-opacity:1.0000; stroke:none;">
<circle cx="31.1392" cy="3.1600" r="0.2500" /> 
</g>
<g style="fill:#4D7FC4; fill-opacity:1.0000; stroke:none;">
<circle cx="31.1392" cy="4.1100" r="0.2500" /> 
</g>
<g style="fill:#4D7FC4; fill-opacity:1.0000; stroke:none;">
<circle cx="31.1392" cy="5.0600" r="0.2500" /> 
</g>
<g style="fill:#FFFFFF; fill-opacity:1.0000; stroke:none;">
<circle cx="28.2892" cy="2.2100" r="0.1000" /> 
</g>
<g style="fill:#FFFFFF; fill-opacity:1.0000; stroke:none;">
<circle cx="28.2892" cy="3.1600" r="0.1000" /> 
</g>
<g style="fill:#FFFFFF; fill-opacity:1.0000; stroke:none;">
<circle cx="28.2892" cy="4.1100" r="0.1000" /> 
</g>
<g style="fill:#FFFFFF; fill-opacity:1.0000; stroke:none;">
<circle cx="28.2892" cy="5.0600" r="0.1000" /> 
</g>
<g style="fill:#FFFFFF; fill-opacity:1.0000; stroke:none;">
<circle cx="29.2392" cy="2.2100" r="0.1000" /> 
</g>
<g style="fill:#FFFFFF; fill-opacity:1.0000; stroke:none;">
<circle cx="29.2392" cy="3.1600" r="0.1000" /> 
</g>
<g style="fill:#FFFFFF; fill-opacity:1.0000; stroke:none;">
<circle cx="29.2392" cy="4.1100" r="0.1000" /> 
</g>
<g style="fill:#FFFFFF; fill-opacity:1.0000; stroke:none;">
<circle cx="29.2392" cy="5.0600" r="0.1000" /> 
</g>
<g style="fill:#FFFFFF; fill-opacity:1.0000; stroke:none;">
<circle cx="30.1892" cy="2.2100" r="0.1000" /> 
</g>
<g style="fill:#FFFFFF; fill-opacity:1.0000; stroke:none;">
<circle cx="30.1892" cy="3.1600" r="0.1000" /> 
</g>
<g style="fill:#FFFFFF; fill-opacity:1.0000; stroke:none;">
<circle cx="30.1892" cy="4.1100" r="0.1000" /> 
</g>
<g style="fill:#FFFFFF; fill-opacity:1.0000; stroke:none;">
<circle cx="30.1892" cy="5.0600" r="0.1000" /> 
</g>
<g style="fill:#FFFFFF; fill-opacity:1.0000; stroke:none;">
<circle cx="31.1392" cy="2.2100" r="0.1000" /> 
</g>
<g style="fill:#FFFFFF; fill-opacity:1.0000; stroke:none;">
<circle cx="31.1392" cy="3.1600" r="0.1000" /> 
</g>
<g style="fill:#FFFFFF; fill-opacity:1.0000; stroke:none;">
<circle cx="31.1392" cy="4.1100" r="0.1000" /> 
</g>
<g style="fill:#FFFFFF; fill-opacity:1.0000; stroke:none;">
<circle cx="31.1392" cy="5.0600" r="0.1000" /> 
</g>
<g style="fill:#FFFFFF; fill-opacity:1.0000; stroke:none;">
<circle cx="28.2892" cy="2.2100" r="0.1000" /> 
</g>
<g style="fill:#FFFFFF; fill-opacity:1.0000; stroke:none;">
<circle cx="28.2892" cy="3.1600" r="0.1000" /> 
</g>
<g style="fill:#FFFFFF; fill-opacity:1.0000; stroke:none;">
<circle cx="28.2892" cy="4.1100" r="0.1000" /> 
</g>
<g style="fill:#FFFFFF; fill-opacity:1.0000; stroke:none;">
<circle cx="28.2892" cy="5.0600" r="0.1000" /> 
</g>
<g style="fill:#FFFFFF; fill-opacity:1.0000; stroke:none;">
<circle cx="29.2392" cy="2.2100" r="0.1000" /> 
</g>
<g style="fill:#FFFFFF; fill-opacity:1.0000; stroke:none;">
<circle cx="29.2392" cy="3.1600" r="0.1000" /> 
</g>
<g style="fill:#FFFFFF; fill-opacity:1.0000; stroke:none;">
<circle cx="29.2392" cy="4.1100" r="0.1000" /> 
</g>
<g style="fill:#FFFFFF; fill-opacity:1.0000; stroke:none;">
<circle cx="29.2392" cy="5.0600" r="0.1000" /> 
</g>
<g style="fill:#FFFFFF; fill-opacity:1.0000; stroke:none;">
<circle cx="30.1892" cy="2.2100" r="0.1000" /> 
</g>
<g style="fill:#FFFFFF; fill-opacity:1.0000; stroke:none;">
<circle cx="30.1892" cy="3.1600" r="0.1000" /> 
</g>
<g style="fill:#FFFFFF; fill-opacity:1.0000; stroke:none;">
<circle cx="30.1892" cy="4.1100" r="0.1000" /> 
</g>
<g style="fill:#FFFFFF; fill-opacity:1.0000; stroke:none;">
<circle cx="30.1892" cy="5.0600" r="0.1000" /> 
</g>
<g style="fill:#FFFFFF; fill-opacity:1.0000; stroke:none;">
<circle cx="31.1392" cy="2.2100" r="0.1000" /> 
</g>
<g style="fill:#FFFFFF; fill-opacity:1.0000; stroke:none;">
<circle cx="31.1392" cy="3.1600" r="0.1000" /> 
</g>
<g style="fill:#FFFFFF; fill-opacity:1.0000; stroke:none;">
<circle cx="31.1392" cy="4.1100" r="0.1000" /> 
</g>
<g style="fill:#FFFFFF; fill-opacity:1.0000; stroke:none;">
<circle cx="31.1392" cy="5.0600" r="0.1000" /> 
<path style="fill:#C83434; fill-opacity:1.0000; stroke:none;fill-rule:evenodd;"
d="M 26.3642,1.6100
26.3699,1.5813
26.3862,1.5570
26.4105,1.5407
26.4392,1.5350
27.3142,1.5350
27.3429,1.5407
27.3673,1.5570
27.3835,1.5813
27.3892,1.6100
27.3892,1.7600
27.3835,1.7887
27.3673,1.8130
27.3429,1.8293
27.3142,1.8350
26.4392,1.8350
26.4105,1.8293
26.3862,1.8130
26.3699,1.7887
26.3642,1.7600
Z" /> 
<path style="fill:#C83434; fill-opacity:1.0000; stroke:none;fill-rule:evenodd;"
d="M 26.3642,2.2600
26.3699,2.2313
26.3862,2.2070
26.4105,2.1907
26.4392,2.1850
27.3142,2.1850
27.3429,2.1907
27.3673,2.2070
27.3835,2.2313
27.3892,2.2600
27.3892,2.4100
27.3835,2.4387
27.3673,2.4630
27.3429,2.4793
27.3142,2.4850
26.4392,2.4850
26.4105,2.4793
26.3862,2.4630
26.3699,2.4387
26.3642,2.4100
Z" /> 
<path style="fill:#C83434; fill-opacity:1.0000; stroke:none;fill-rule:evenodd;"
d="M 26.3642,2.9100
26.3699,2.8813
26.3862,2.8570
26.4105,2.8407
26.4392,2.8350
27.3142,2.8350
27.3429,2.8407
27.3673,2.8570
27.3835,2.8813
27.3892,2.9100
27.3892,3.0600
27.3835,3.0887
27.3673,3.1130
27.3429,3.1293
27.3142,3.1350
26.4392,3.1350
26.4105,3.1293
26.3862,3.1130
26.3699,3.0887
26.3642,3.0600
Z" /> 
<path style="fill:#C83434; fill-opacity:1.0000; stroke:none;fill-rule:evenodd;"
d="M 26.3642,3.5600
26.3699,3.5313
26.3862,3.5070
26.4105,3.4907
26.4392,3.4850
27.3142,3.4850
27.3429,3.4907
27.3673,3.5070
27.3835,3.5313
27.3892,3.5600
27.3892,3.7100
27.3835,3.7387
27.3673,3.7630
27.3429,3.7793
27.3142,3.7850
26.4392,3.7850
26.4105,3.7793
26.3862,3.7630
26.3699,3.7387
26.3642,3.7100
Z" /> 
<path style="fill:#C83434; fill-opacity:1.0000; stroke:none;fill-rule:evenodd;"
d="M 26.3642,4.2100
26.3699,4.1813
26.3862,4.1570
26.4105,4.1407
26.4392,4.1350
27.3142,4.1350
27.3429,4.1407
27.3673,4.1570
27.3835,4.1813
27.3892,4.2100
27.3892,4.3600
27.3835,4.3887
27.3673,4.4130
27.3429,4.4293
27.3142,4.4350
26.4392,4.4350
26.4105,4.4293
26.3862,4.4130
26.3699,4.3887
26.3642,4.3600
Z" /> 
<path style="fill:#C83434; fill-opacity:1.0000; stroke:none;fill-rule:evenodd;"
d="M 26.3642,4.8600
26.3699,4.8313
26.3862,4.8070
26.4105,4.7907
26.4392,4.7850
27.3142,4.7850
27.3429,4.7907
27.3673,4.8070
27.3835,4.8313
27.3892,4.8600
27.3892,5.0100
27.3835,5.0387
27.3673,5.0630
27.3429,5.0793
27.3142,5.0850
26.4392,5.0850
26.4105,5.0793
26.3862,5.0630
26.3699,5.0387
26.3642,5.0100
Z" /> 
<path style="fill:#C83434; fill-opacity:1.0000; stroke:none;fill-rule:evenodd;"
d="M 26.3642,5.5100
26.3699,5.4813
26.3862,5.4570
26.4105,5.4407
26.4392,5.4350
27.3142,5.4350
27.3429,5.4407
27.3673,5.4570
27.3835,5.4813
27.3892,5.5100
27.3892,5.6600
27.3835,5.6887
27.3673,5.7130
27.3429,5.7293
27.3142,5.7350
26.4392,5.7350
26.4105,5.7293
26.3862,5.7130
26.3699,5.6887
26.3642,5.6600
Z" /> 
<path style="fill:#C83434; fill-opacity:1.0000; stroke:none;fill-rule:evenodd;"
d="M 27.6142,6.0350
27.6199,6.0063
27.6362,5.9820
27.6605,5.9657
27.6892,5.9600
27.8392,5.9600
27.8679,5.9657
27.8923,5.9820
27.9085,6.0063
27.9142,6.0350
27.9142,6.9100
27.9085,6.9387
27.8923,6.9630
27.8679,6.9793
27.8392,6.9850
27.6892,6.9850
27.6605,6.9793
27.6362,6.9630
27.6199,6.9387
27.6142,6.9100
Z" /> 
<path style="fill:#C83434; fill-opacity:1.0000; stroke:none;fill-rule:evenodd;"
d="M 28.2642,6.0350
28.2699,6.0063
28.2862,5.9820
28.3105,5.9657
28.3392,5.9600
28.4892,5.9600
28.5179,5.9657
28.5423,5.9820
28.5585,6.0063
28.5642,6.0350
28.5642,6.9100
28.5585,6.9387
28.5423,6.9630
28.5179,6.9793
28.4892,6.9850
28.3392,6.9850
28.3105,6.9793
28.2862,6.9630
28.2699,6.9387
28.2642,6.9100
Z" /> 
<path style="fill:#C83434; fill-opacity:1.0000; stroke:none;fill-rule:evenodd;"
d="M 28.9142,6.0350
28.9199,6.0063
28.9362,5.9820
28.9605,5.9657
28.9892,5.9600
29.1392,5.9600
29.1679,5.9657
29.1923,5.9820
29.2085,6.0063
29.2142,6.0350
29.2142,6.9100
29.2085,6.9387
29.1923,6.9630
29.1679,6.9793
29.1392,6.9850
28.9892,6.9850
28.9605,6.9793
28.9362,6.9630
28.9199,6.9387
28.9142,6.9100
Z" /> 
<path style="fill:#C83434; fill-opacity:1.0000; stroke:none;fill-rule:evenodd;"
d="M 29.5642,6.0350
29.5699,6.0063
29.5862,5.9820
29.6105,5.9657
29.6392,5.9600
29.7892,5.9600
29.8179,5.9657
29.8423,5.9820
29.8585,6.0063
29.8642,6.0350
29.8642,6.9100
29.8585,6.9387
29.8423,6.9630
29.8179,6.9793
29.7892,6.9850
29.6392,6.9850
29.6105,6.9793
29.5862,6.9630
29.5699,6.9387
29.5642,6.9100
Z" /> 
<path style="fill:#C83434; fill-opacity:1.0000; stroke:none;fill-rule:evenodd;"
d="M 30.2142,6.0350
30.2199,6.0063
30.2362,5.9820
30.2605,5.9657
30.2892,5.9600
30.4392,5.9600
30.4679,5.9657
30.4923,5.9820
30.5085,6.0063
30.5142,6.0350
30.5142,6.9100
30.5085,6.9387
30.4923,6.9630
30.4679,6.9793
30.4392,6.9850
30.2892,6.9850
30.2605,6.9793
30.2362,6.9630
30.2199,6.9387
30.2142,6.9100
Z" /> 
<path style="fill:#C83434; fill-opacity:1.0000; stroke:none;fill-rule:evenodd;"
d="M 30.8642,6.0350
30.8699,6.0063
30.8862,5.9820
30.9105,5.9657
30.9392,5.9600
31.0892,5.9600
31.1179,5.9657
31.1423,5.9820
31.1585,6.0063
31.1642,6.0350
31.1642,6.9100
31.1585,6.9387
31.1423,6.9630
31.1179,6.9793
31.0892,6.9850
30.9392,6.9850
30.9105,6.9793
30.8862,6.9630
30.8699,6.9387
30.8642,6.9100
Z" /> 
<path style="fill:#C83434; fill-opacity:1.0000; stroke:none;fill-rule:evenodd;"
d="M 31.5142,6.0350
31.5199,6.0063
31.5362,5.9820
31.5605,5.9657
31.5892,5.9600
31.7392,5.9600
31.7679,5.9657
31.7923,5.9820
31.8085,6.0063
31.8142,6.0350
31.8142,6.9100
31.8085,6.9387
31.7923,6.9630
31.7679,6.9793
31.7392,6.9850
31.5892,6.9850
31.5605,6.9793
31.5362,6.9630
31.5199,6.9387
31.5142,6.9100
Z" /> 
<path style="fill:#C83434; fill-opacity:1.0000; stroke:none;fill-rule:evenodd;"
d="M 32.0392,5.5100
32.0449,5.4813
32.0612,5.4570
32.0855,5.4407
32.1142,5.4350
32.9892,5.4350
33.0179,5.4407
33.0423,5.4570
33.0585,5.4813
33.0642,5.5100
33.0642,5.6600
33.0585,5.6887
33.0423,5.7130
33.0179,5.7293
32.9892,5.7350
32.1142,5.7350
32.0855,5.7293
32.0612,5.7130
32.0449,5.6887
32.0392,5.6600
Z" /> 
<path style="fill:#C83434; fill-opacity:1.0000; stroke:none;fill-rule:evenodd;"
d="M 32.0392,4.8600
32.0449,4.8313
32.0612,4.8070
32.0855,4.7907
32.1142,4.7850
32.9892,4.7850
33.0179,4.7907
33.0423,4.8070
33.0585,4.8313
33.0642,4.8600
33.0642,5.0100
33.0585,5.0387
33.0423,5.0630
33.0179,5.0793
32.9892,5.0850
32.1142,5.0850
32.0855,5.0793
32.0612,5.0630
32.0449,5.0387
32.0392,5.0100
Z" /> 
<path style="fill:#C83434; fill-opacity:1.0000; stroke:none;fill-rule:evenodd;"
d="M 32.0392,4.2100
32.0449,4.1813
32.0612,4.1570
32.0855,4.1407
32.1142,4.1350
32.9892,4.1350
33.0179,4.1407
33.0423,4.1570
33.0585,4.1813
33.0642,4.2100
33.0642,4.3600
33.0585,4.3887
33.0423,4.4130
33.0179,4.4293
32.9892,4.4350
32.1142,4.4350
32.0855,4.4293
32.0612,4.4130
32.0449,4.3887
32.0392,4.3600
Z" /> 
<path style="fill:#C83434; fill-opacity:1.0000; stroke:none;fill-rule:evenodd;"
d="M 32.0392,3.5600
32.0449,3.5313
32.0612,3.5070
32.0855,3.4907
32.1142,3.4850
32.9892,3.4850
33.0179,3.4907
33.0423,3.5070
33.0585,3.5313
33.0642,3.5600
33.0642,3.7100
33.0585,3.7387
33.0423,3.7630
33.0179,3.7793
32.9892,3.7850
32.1142,3.7850
32.0855,3.7793
32.0612,3.7630
32.0449,3.7387
32.0392,3.7100
Z" /> 
<path style="fill:#C83434; fill-opacity:1.0000; stroke:none;fill-rule:evenodd;"
d="M 32.0392,2.9100
32.0449,2.8813
32.0612,2.8570
32.0855,2.8407
32.1142,2.8350
32.9892,2.8350
33.0179,2.8407
33.0423,2.8570
33.0585,2.8813
33.0642,2.9100
33.0642,3.0600
33.0585,3.0887
33.0423,3.1130
33.0179,3.1293
32.9892,3.1350
32.1142,3.1350
32.0855,3.1293
32.0612,3.1130
32.0449,3.0887
32.0392,3.0600
Z" /> 
<path style="fill:#C83434; fill-opacity:1.0000; stroke:none;fill-rule:evenodd;"
d="M 32.0392,2.2600
32.0449,2.2313
32.0612,2.2070
32.0855,2.1907
32.1142,2.1850
32.9892,2.1850
33.0179,2.1907
33.0423,2.2070
33.0585,2.2313
33.0642,2.2600
33.0642,2.4100
33.0585,2.4387
33.0423,2.4630
33.0179,2.4793
32.9892,2.4850
32.1142,2.4850
32.0855,2.4793
32.0612,2.4630
32.0449,2.4387
32.0392,2.4100
Z" /> 
<path style="fill:#C83434; fill-opacity:1.0000; stroke:none;fill-rule:evenodd;"
d="M 32.0392,1.6100
32.0449,1.5813
32.0612,1.5570
32.0855,1.5407
32.1142,1.5350
32.9892,1.5350
33.0179,1.5407
33.0423,1.5570
33.0585,1.5813
33.0642,1.6100
33.0642,1.7600
33.0585,1.7887
33.0423,1.8130
33.0179,1.8293
32.9892,1.8350
32.1142,1.8350
32.0855,1.8293
32.0612,1.8130
32.0449,1.7887
32.0392,1.7600
Z" /> 
<path style="fill:#C83434; fill-opacity:1.0000; stroke:none;fill-rule:evenodd;"
d="M 31.5142,0.3600
31.5199,0.3313
31.5362,0.3070
31.5605,0.2907
31.5892,0.2850
31.7392,0.2850
31.7679,0.2907
31.7923,0.3070
31.8085,0.3313
31.8142,0.3600
31.8142,1.2350
31.8085,1.2637
31.7923,1.2880
31.7679,1.3043
31.7392,1.3100
31.5892,1.3100
31.5605,1.3043
31.5362,1.2880
31.5199,1.2637
31.5142,1.2350
Z" /> 
<path style="fill:#C83434; fill-opacity:1.0000; stroke:none;fill-rule:evenodd;"
d="M 30.8642,0.3600
30.8699,0.3313
30.8862,0.3070
30.9105,0.2907
30.9392,0.2850
31.0892,0.2850
31.1179,0.2907
31.1423,0.3070
31.1585,0.3313
31.1642,0.3600
31.1642,1.2350
31.1585,1.2637
31.1423,1.2880
31.1179,1.3043
31.0892,1.3100
30.9392,1.3100
30.9105,1.3043
30.8862,1.2880
30.8699,1.2637
30.8642,1.2350
Z" /> 
<path style="fill:#C83434; fill-opacity:1.0000; stroke:none;fill-rule:evenodd;"
d="M 30.2142,0.3600
30.2199,0.3313
30.2362,0.3070
30.2605,0.2907
30.2892,0.2850
30.4392,0.2850
30.4679,0.2907
30.4923,0.3070
30.5085,0.3313
30.5142,0.3600
30.5142,1.2350
30.5085,1.2637
30.4923,1.2880
30.4679,1.3043
30.4392,1.3100
30.2892,1.3100
30.2605,1.3043
30.2362,1.2880
30.2199,1.2637
30.2142,1.2350
Z" /> 
<path style="fill:#C83434; fill-opacity:1.0000; stroke:none;fill-rule:evenodd;"
d="M 29.5642,0.3600
29.5699,0.3313
29.5862,0.3070
29.6105,0.2907
29.6392,0.2850
29.7892,0.2850
29.8179,0.2907
29.8423,0.3070
29.8585,0.3313
29.8642,0.3600
29.8642,1.2350
29.8585,1.2637
29.8423,1.2880
29.8179,1.3043
29.7892,1.3100
29.6392,1.3100
29.6105,1.3043
29.5862,1.2880
29.5699,1.2637
29.5642,1.2350
Z" /> 
<path style="fill:#C83434; fill-opacity:1.0000; stroke:none;fill-rule:evenodd;"
d="M 28.9142,0.3600
28.9199,0.3313
28.9362,0.3070
28.9605,0.2907
28.9892,0.2850
29.1392,0.2850
29.1679,0.2907
29.1923,0.3070
29.2085,0.3313
29.2142,0.3600
29.2142,1.2350
29.2085,1.2637
29.1923,1.2880
29.1679,1.3043
29.1392,1.3100
28.9892,1.3100
28.9605,1.3043
28.9362,1.2880
28.9199,1.2637
28.9142,1.2350
Z" /> 
<path style="fill:#C83434; fill-opacity:1.0000; stroke:none;fill-rule:evenodd;"
d="M 28.2642,0.3600
28.2699,0.3313
28.2862,0.3070
28.3105,0.2907
28.3392,0.2850
28.4892,0.2850
28.5179,0.2907
28.5423,0.3070
28.5585,0.3313
28.5642,0.3600
28.5642,1.2350
28.5585,1.2637
28.5423,1.2880
28.5179,1.3043
28.4892,1.3100
28.3392,1.3100
28.3105,1.3043
28.2862,1.2880
28.2699,1.2637
28.2642,1.2350
Z" /> 
<path style="fill:#C83434; fill-opacity:1.0000; stroke:none;fill-rule:evenodd;"
d="M 27.6142,0.3600
27.6199,0.3313
27.6362,0.3070
27.6605,0.2907
27.6892,0.2850
27.8392,0.2850
27.8679,0.2907
27.8923,0.3070
27.9085,0.3313
27.9142,0.3600
27.9142,1.2350
27.9085,1.2637
27.8923,1.2880
27.8679,1.3043
27.8392,1.3100
27.6892,1.3100
27.6605,1.3043
27.6362,1.2880
27.6199,1.2637
27.6142,1.2350
Z" /> 
</g>
<g style="fill:#C83434; fill-opacity:1.0000; stroke:none;">
<circle cx="28.2892" cy="2.2100" r="0.2500" /> 
</g>
<g style="fill:#C83434; fill-opacity:1.0000; stroke:none;">
<circle cx="28.2892" cy="3.1600" r="0.2500" /> 
</g>
<g style="fill:#C83434; fill-opacity:1.0000; stroke:none;">
<circle cx="28.2892" cy="4.1100" r="0.2500" /> 
</g>
<g style="fill:#C83434; fill-opacity:1.0000; stroke:none;">
<circle cx="28.2892" cy="5.0600" r="0.2500" /> 
</g>
<g style="fill:#C83434; fill-opacity:1.0000; stroke:none;">
<circle cx="29.2392" cy="2.2100" r="0.2500" /> 
</g>
<g style="fill:#C83434; fill-opacity:1.0000; stroke:none;">
<circle cx="29.2392" cy="3.1600" r="0.2500" /> 
</g>
<g style="fill:#C83434; fill-opacity:1.0000; stroke:none;">
<circle cx="29.2392" cy="4.1100" r="0.2500" /> 
</g>
<g style="fill:#C83434; fill-opacity:1.0000; stroke:none;">
<circle cx="29.2392" cy="5.0600" r="0.2500" /> 
<path style="fill:#C83434; fill-opacity:1.0000; stroke:none;fill-rule:evenodd;"
d="M 27.5892,5.7600
27.5892,1.5100
31.8392,1.5100
31.8392,5.7600
Z" /> 
</g>
<g style="fill:#C83434; fill-opacity:1.0000; stroke:none;">
<circle cx="30.1892" cy="2.2100" r="0.2500" /> 
</g>
<g style="fill:#C83434; fill-opacity:1.0000; stroke:none;">
<circle cx="30.1892" cy="3.1600" r="0.2500" /> 
</g>
<g style="fill:#C83434; fill-opacity:1.0000; stroke:none;">
<circle cx="30.1892" cy="4.1100" r="0.2500" /> 
</g>
<g style="fill:#C83434; fill-opacity:1.0000; stroke:none;">
<circle cx="30.1892" cy="5.0600" r="0.2500" /> 
</g>
<g style="fill:#C83434; fill-opacity:1.0000; stroke:none;">
<circle cx="31.1392" cy="2.2100" r="0.2500" /> 
</g>
<g style="fill:#C83434; fill-opacity:1.0000; stroke:none;">
<circle cx="31.1392" cy="3.1600" r="0.2500" /> 
</g>
<g style="fill:#C83434; fill-opacity:1.0000; stroke:none;">
<circle cx="31.1392" cy="4.1100" r="0.2500" /> 
</g>
<g style="fill:#C83434; fill-opacity:1.0000; stroke:none;">
<circle cx="31.1392" cy="5.0600" r="0.2500" /> 
</g>
<g style="fill:#FFFFFF; fill-opacity:1.0000; stroke:none;">
<circle cx="28.2892" cy="2.2100" r="0.1000" /> 
</g>
<g style="fill:#FFFFFF; fill-opacity:1.0000; stroke:none;">
<circle cx="28.2892" cy="3.1600" r="0.1000" /> 
</g>
<g style="fill:#FFFFFF; fill-opacity:1.0000; stroke:none;">
<circle cx="28.2892" cy="4.1100" r="0.1000" /> 
</g>
<g style="fill:#FFFFFF; fill-opacity:1.0000; stroke:none;">
<circle cx="28.2892" cy="5.0600" r="0.1000" /> 
</g>
<g style="fill:#FFFFFF; fill-opacity:1.0000; stroke:none;">
<circle cx="29.2392" cy="2.2100" r="0.1000" /> 
</g>
<g style="fill:#FFFFFF; fill-opacity:1.0000; stroke:none;">
<circle cx="29.2392" cy="3.1600" r="0.1000" /> 
</g>
<g style="fill:#FFFFFF; fill-opacity:1.0000; stroke:none;">
<circle cx="29.2392" cy="4.1100" r="0.1000" /> 
</g>
<g style="fill:#FFFFFF; fill-opacity:1.0000; stroke:none;">
<circle cx="29.2392" cy="5.0600" r="0.1000" /> 
</g>
<g style="fill:#FFFFFF; fill-opacity:1.0000; stroke:none;">
<circle cx="30.1892" cy="2.2100" r="0.1000" /> 
</g>
<g style="fill:#FFFFFF; fill-opacity:1.0000; stroke:none;">
<circle cx="30.1892" cy="3.1600" r="0.1000" /> 
</g>
<g style="fill:#FFFFFF; fill-opacity:1.0000; stroke:none;">
<circle cx="30.1892" cy="4.1100" r="0.1000" /> 
</g>
<g style="fill:#FFFFFF; fill-opacity:1.0000; stroke:none;">
<circle cx="30.1892" cy="5.0600" r="0.1000" /> 
</g>
<g style="fill:#FFFFFF; fill-opacity:1.0000; stroke:none;">
<circle cx="31.1392" cy="2.2100" r="0.1000" /> 
</g>
<g style="fill:#FFFFFF; fill-opacity:1.0000; stroke:none;">
<circle cx="31.1392" cy="3.1600" r="0.1000" /> 
</g>
<g style="fill:#FFFFFF; fill-opacity:1.0000; stroke:none;">
<circle cx="31.1392" cy="4.1100" r="0.1000" /> 
</g>
<g style="fill:#FFFFFF; fill-opacity:1.0000; stroke:none;">
<circle cx="31.1392" cy="5.0600" r="0.1000" /> 
<path style="fill:#D864FF; fill-opacity:0.4000; stroke:none;fill-rule:evenodd;"
d="M 26.3642,1.6100
26.3699,1.5813
26.3862,1.5570
26.4105,1.5407
26.4392,1.5350
27.3142,1.5350
27.3429,1.5407
27.3673,1.5570
27.3835,1.5813
27.3892,1.6100
27.3892,1.7600
27.3835,1.7887
27.3673,1.8130
27.3429,1.8293
27.3142,1.8350
26.4392,1.8350
26.4105,1.8293
26.3862,1.8130
26.3699,1.7887
26.3642,1.7600
Z" /> 
<path style="fill:#D864FF; fill-opacity:0.4000; stroke:none;fill-rule:evenodd;"
d="M 26.3642,2.2600
26.3699,2.2313
26.3862,2.2070
26.4105,2.1907
26.4392,2.1850
27.3142,2.1850
27.3429,2.1907
27.3673,2.2070
27.3835,2.2313
27.3892,2.2600
27.3892,2.4100
27.3835,2.4387
27.3673,2.4630
27.3429,2.4793
27.3142,2.4850
26.4392,2.4850
26.4105,2.4793
26.3862,2.4630
26.3699,2.4387
26.3642,2.4100
Z" /> 
<path style="fill:#D864FF; fill-opacity:0.4000; stroke:none;fill-rule:evenodd;"
d="M 26.3642,2.9100
26.3699,2.8813
26.3862,2.8570
26.4105,2.8407
26.4392,2.8350
27.3142,2.8350
27.3429,2.8407
27.3673,2.8570
27.3835,2.8813
27.3892,2.9100
27.3892,3.0600
27.3835,3.0887
27.3673,3.1130
27.3429,3.1293
27.3142,3.1350
26.4392,3.1350
26.4105,3.1293
26.3862,3.1130
26.3699,3.0887
26.3642,3.0600
Z" /> 
<path style="fill:#D864FF; fill-opacity:0.4000; stroke:none;fill-rule:evenodd;"
d="M 26.3642,3.5600
26.3699,3.5313
26.3862,3.5070
26.4105,3.4907
26.4392,3.4850
27.3142,3.4850
27.3429,3.4907
27.3673,3.5070
27.3835,3.5313
27.3892,3.5600
27.3892,3.7100
27.3835,3.7387
27.3673,3.7630
27.3429,3.7793
27.3142,3.7850
26.4392,3.7850
26.4105,3.7793
26.3862,3.7630
26.3699,3.7387
26.3642,3.7100
Z" /> 
<path style="fill:#D864FF; fill-opacity:0.4000; stroke:none;fill-rule:evenodd;"
d="M 26.3642,4.2100
26.3699,4.1813
26.3862,4.1570
26.4105,4.1407
26.4392,4.1350
27.3142,4.1350
27.3429,4.1407
27.3673,4.1570
27.3835,4.1813
27.3892,4.2100
27.3892,4.3600
27.3835,4.3887
27.3673,4.4130
27.3429,4.4293
27.3142,4.4350
26.4392,4.4350
26.4105,4.4293
26.3862,4.4130
26.3699,4.3887
26.3642,4.3600
Z" /> 
<path style="fill:#D864FF; fill-opacity:0.4000; stroke:none;fill-rule:evenodd;"
d="M 26.3642,4.8600
26.3699,4.8313
26.3862,4.8070
26.4105,4.7907
26.4392,4.7850
27.3142,4.7850
27.3429,4.7907
27.3673,4.8070
27.3835,4.8313
27.3892,4.8600
27.3892,5.0100
27.3835,5.0387
27.3673,5.0630
27.3429,5.0793
27.3142,5.0850
26.4392,5.0850
26.4105,5.0793
26.3862,5.0630
26.3699,5.0387
26.3642,5.0100
Z" /> 
<path style="fill:#D864FF; fill-opacity:0.4000; stroke:none;fill-rule:evenodd;"
d="M 26.3642,5.5100
26.3699,5.4813
26.3862,5.4570
26.4105,5.4407
26.4392,5.4350
27.3142,5.4350
27.3429,5.4407
27.3673,5.4570
27.3835,5.4813
27.3892,5.5100
27.3892,5.6600
27.3835,5.6887
27.3673,5.7130
27.3429,5.7293
27.3142,5.7350
26.4392,5.7350
26.4105,5.7293
26.3862,5.7130
26.3699,5.6887
26.3642,5.6600
Z" /> 
<path style="fill:#D864FF; fill-opacity:0.4000; stroke:none;fill-rule:evenodd;"
d="M 27.6142,6.0350
27.6199,6.0063
27.6362,5.9820
27.6605,5.9657
27.6892,5.9600
27.8392,5.9600
27.8679,5.9657
27.8923,5.9820
27.9085,6.0063
27.9142,6.0350
27.9142,6.9100
27.9085,6.9387
27.8923,6.9630
27.8679,6.9793
27.8392,6.9850
27.6892,6.9850
27.6605,6.9793
27.6362,6.9630
27.6199,6.9387
27.6142,6.9100
Z" /> 
<path style="fill:#D864FF; fill-opacity:0.4000; stroke:none;fill-rule:evenodd;"
d="M 28.2642,6.0350
28.2699,6.0063
28.2862,5.9820
28.3105,5.9657
28.3392,5.9600
28.4892,5.9600
28.5179,5.9657
28.5423,5.9820
28.5585,6.0063
28.5642,6.0350
28.5642,6.9100
28.5585,6.9387
28.5423,6.9630
28.5179,6.9793
28.4892,6.9850
28.3392,6.9850
28.3105,6.9793
28.2862,6.9630
28.2699,6.9387
28.2642,6.9100
Z" /> 
<path style="fill:#D864FF; fill-opacity:0.4000; stroke:none;fill-rule:evenodd;"
d="M 28.9142,6.0350
28.9199,6.0063
28.9362,5.9820
28.9605,5.9657
28.9892,5.9600
29.1392,5.9600
29.1679,5.9657
29.1923,5.9820
29.2085,6.0063
29.2142,6.0350
29.2142,6.9100
29.2085,6.9387
29.1923,6.9630
29.1679,6.9793
29.1392,6.9850
28.9892,6.9850
28.9605,6.9793
28.9362,6.9630
28.9199,6.9387
28.9142,6.9100
Z" /> 
<path style="fill:#D864FF; fill-opacity:0.4000; stroke:none;fill-rule:evenodd;"
d="M 29.5642,6.0350
29.5699,6.0063
29.5862,5.9820
29.6105,5.9657
29.6392,5.9600
29.7892,5.9600
29.8179,5.9657
29.8423,5.9820
29.8585,6.0063
29.8642,6.0350
29.8642,6.9100
29.8585,6.9387
29.8423,6.9630
29.8179,6.9793
29.7892,6.9850
29.6392,6.9850
29.6105,6.9793
29.5862,6.9630
29.5699,6.9387
29.5642,6.9100
Z" /> 
<path style="fill:#D864FF; fill-opacity:0.4000; stroke:none;fill-rule:evenodd;"
d="M 30.2142,6.0350
30.2199,6.0063
30.2362,5.9820
30.2605,5.9657
30.2892,5.9600
30.4392,5.9600
30.4679,5.9657
30.4923,5.9820
30.5085,6.0063
30.5142,6.0350
30.5142,6.9100
30.5085,6.9387
30.4923,6.9630
30.4679,6.9793
30.4392,6.9850
30.2892,6.9850
30.2605,6.9793
30.2362,6.9630
30.2199,6.9387
30.2142,6.9100
Z" /> 
<path style="fill:#D864FF; fill-opacity:0.4000; stroke:none;fill-rule:evenodd;"
d="M 30.8642,6.0350
30.8699,6.0063
30.8862,5.9820
30.9105,5.9657
30.9392,5.9600
31.0892,5.9600
31.1179,5.9657
31.1423,5.9820
31.1585,6.0063
31.1642,6.0350
31.1642,6.9100
31.1585,6.9387
31.1423,6.9630
31.1179,6.9793
31.0892,6.9850
30.9392,6.9850
30.9105,6.9793
30.8862,6.9630
30.8699,6.9387
30.8642,6.9100
Z" /> 
<path style="fill:#D864FF; fill-opacity:0.4000; stroke:none;fill-rule:evenodd;"
d="M 31.5142,6.0350
31.5199,6.0063
31.5362,5.9820
31.5605,5.9657
31.5892,5.9600
31.7392,5.9600
31.7679,5.9657
31.7923,5.9820
31.8085,6.0063
31.8142,6.0350
31.8142,6.9100
31.8085,6.9387
31.7923,6.9630
31.7679,6.9793
31.7392,6.9850
31.5892,6.9850
31.5605,6.9793
31.5362,6.9630
31.5199,6.9387
31.5142,6.9100
Z" /> 
<path style="fill:#D864FF; fill-opacity:0.4000; stroke:none;fill-rule:evenodd;"
d="M 32.0392,5.5100
32.0449,5.4813
32.0612,5.4570
32.0855,5.4407
32.1142,5.4350
32.9892,5.4350
33.0179,5.4407
33.0423,5.4570
33.0585,5.4813
33.0642,5.5100
33.0642,5.6600
33.0585,5.6887
33.0423,5.7130
33.0179,5.7293
32.9892,5.7350
32.1142,5.7350
32.0855,5.7293
32.0612,5.7130
32.0449,5.6887
32.0392,5.6600
Z" /> 
<path style="fill:#D864FF; fill-opacity:0.4000; stroke:none;fill-rule:evenodd;"
d="M 32.0392,4.8600
32.0449,4.8313
32.0612,4.8070
32.0855,4.7907
32.1142,4.7850
32.9892,4.7850
33.0179,4.7907
33.0423,4.8070
33.0585,4.8313
33.0642,4.8600
33.0642,5.0100
33.0585,5.0387
33.0423,5.0630
33.0179,5.0793
32.9892,5.0850
32.1142,5.0850
32.0855,5.0793
32.0612,5.0630
32.0449,5.0387
32.0392,5.0100
Z" /> 
<path style="fill:#D864FF; fill-opacity:0.4000; stroke:none;fill-rule:evenodd;"
d="M 32.0392,4.2100
32.0449,4.1813
32.0612,4.1570
32.0855,4.1407
32.1142,4.1350
32.9892,4.1350
33.0179,4.1407
33.0423,4.1570
33.0585,4.1813
33.0642,4.2100
33.0642,4.3600
33.0585,4.3887
33.0423,4.4130
33.0179,4.4293
32.9892,4.4350
32.1142,4.4350
32.0855,4.4293
32.0612,4.4130
32.0449,4.3887
32.0392,4.3600
Z" /> 
<path style="fill:#D864FF; fill-opacity:0.4000; stroke:none;fill-rule:evenodd;"
d="M 32.0392,3.5600
32.0449,3.5313
32.0612,3.5070
32.0855,3.4907
32.1142,3.4850
32.9892,3.4850
33.0179,3.4907
33.0423,3.5070
33.0585,3.5313
33.0642,3.5600
33.0642,3.7100
33.0585,3.7387
33.0423,3.7630
33.0179,3.7793
32.9892,3.7850
32.1142,3.7850
32.0855,3.7793
32.0612,3.7630
32.0449,3.7387
32.0392,3.7100
Z" /> 
<path style="fill:#D864FF; fill-opacity:0.4000; stroke:none;fill-rule:evenodd;"
d="M 32.0392,2.9100
32.0449,2.8813
32.0612,2.8570
32.0855,2.8407
32.1142,2.8350
32.9892,2.8350
33.0179,2.8407
33.0423,2.8570
33.0585,2.8813
33.0642,2.9100
33.0642,3.0600
33.0585,3.0887
33.0423,3.1130
33.0179,3.1293
32.9892,3.1350
32.1142,3.1350
32.0855,3.1293
32.0612,3.1130
32.0449,3.0887
32.0392,3.0600
Z" /> 
<path style="fill:#D864FF; fill-opacity:0.4000; stroke:none;fill-rule:evenodd;"
d="M 32.0392,2.2600
32.0449,2.2313
32.0612,2.2070
32.0855,2.1907
32.1142,2.1850
32.9892,2.1850
33.0179,2.1907
33.0423,2.2070
33.0585,2.2313
33.0642,2.2600
33.0642,2.4100
33.0585,2.4387
33.0423,2.4630
33.0179,2.4793
32.9892,2.4850
32.1142,2.4850
32.0855,2.4793
32.0612,2.4630
32.0449,2.4387
32.0392,2.4100
Z" /> 
<path style="fill:#D864FF; fill-opacity:0.4000; stroke:none;fill-rule:evenodd;"
d="M 32.0392,1.6100
32.0449,1.5813
32.0612,1.5570
32.0855,1.5407
32.1142,1.5350
32.9892,1.5350
33.0179,1.5407
33.0423,1.5570
33.0585,1.5813
33.0642,1.6100
33.0642,1.7600
33.0585,1.7887
33.0423,1.8130
33.0179,1.8293
32.9892,1.8350
32.1142,1.8350
32.0855,1.8293
32.0612,1.8130
32.0449,1.7887
32.0392,1.7600
Z" /> 
<path style="fill:#D864FF; fill-opacity:0.4000; stroke:none;fill-rule:evenodd;"
d="M 31.5142,0.3600
31.5199,0.3313
31.5362,0.3070
31.5605,0.2907
31.5892,0.2850
31.7392,0.2850
31.7679,0.2907
31.7923,0.3070
31.8085,0.3313
31.8142,0.3600
31.8142,1.2350
31.8085,1.2637
31.7923,1.2880
31.7679,1.3043
31.7392,1.3100
31.5892,1.3100
31.5605,1.3043
31.5362,1.2880
31.5199,1.2637
31.5142,1.2350
Z" /> 
<path style="fill:#D864FF; fill-opacity:0.4000; stroke:none;fill-rule:evenodd;"
d="M 30.8642,0.3600
30.8699,0.3313
30.8862,0.3070
30.9105,0.2907
30.9392,0.2850
31.0892,0.2850
31.1179,0.2907
31.1423,0.3070
31.1585,0.3313
31.1642,0.3600
31.1642,1.2350
31.1585,1.2637
31.1423,1.2880
31.1179,1.3043
31.0892,1.3100
30.9392,1.3100
30.9105,1.3043
30.8862,1.2880
30.8699,1.2637
30.8642,1.2350
Z" /> 
<path style="fill:#D864FF; fill-opacity:0.4000; stroke:none;fill-rule:evenodd;"
d="M 30.2142,0.3600
30.2199,0.3313
30.2362,0.3070
30.2605,0.2907
30.2892,0.2850
30.4392,0.2850
30.4679,0.2907
30.4923,0.3070
30.5085,0.3313
30.5142,0.3600
30.5142,1.2350
30.5085,1.2637
30.4923,1.2880
30.4679,1.3043
30.4392,1.3100
30.2892,1.3100
30.2605,1.3043
30.2362,1.2880
30.2199,1.2637
30.2142,1.2350
Z" /> 
<path style="fill:#D864FF; fill-opacity:0.4000; stroke:none;fill-rule:evenodd;"
d="M 29.5642,0.3600
29.5699,0.3313
29.5862,0.3070
29.6105,0.2907
29.6392,0.2850
29.7892,0.2850
29.8179,0.2907
29.8423,0.3070
29.8585,0.3313
29.8642,0.3600
29.8642,1.2350
29.8585,1.2637
29.8423,1.2880
29.8179,1.3043
29.7892,1.3100
29.6392,1.3100
29.6105,1.3043
29.5862,1.2880
29.5699,1.2637
29.5642,1.2350
Z" /> 
<path style="fill:#D864FF; fill-opacity:0.4000; stroke:none;fill-rule:evenodd;"
d="M 28.9142,0.3600
28.9199,0.3313
28.9362,0.3070
28.9605,0.2907
28.9892,0.2850
29.1392,0.2850
29.1679,0.2907
29.1923,0.3070
29.2085,0.3313
29.2142,0.3600
29.2142,1.2350
29.2085,1.2637
29.1923,1.2880
29.1679,1.3043
29.1392,1.3100
28.9892,1.3100
28.9605,1.3043
28.9362,1.2880
28.9199,1.2637
28.9142,1.2350
Z" /> 
<path style="fill:#D864FF; fill-opacity:0.4000; stroke:none;fill-rule:evenodd;"
d="M 28.2642,0.3600
28.2699,0.3313
28.2862,0.3070
28.3105,0.2907
28.3392,0.2850
28.4892,0.2850
28.5179,0.2907
28.5423,0.3070
28.5585,0.3313
28.5642,0.3600
28.5642,1.2350
28.5585,1.2637
28.5423,1.2880
28.5179,1.3043
28.4892,1.3100
28.3392,1.3100
28.3105,1.3043
28.2862,1.2880
28.2699,1.2637
28.2642,1.2350
Z" /> 
<path style="fill:#D864FF; fill-opacity:0.4000; stroke:none;fill-rule:evenodd;"
d="M 27.6142,0.3600
27.6199,0.3313
27.6362,0.3070
27.6605,0.2907
27.6892,0.2850
27.8392,0.2850
27.8679,0.2907
27.8923,0.3070
27.9085,0.3313
27.9142,0.3600
27.9142,1.2350
27.9085,1.2637
27.8923,1.2880
27.8679,1.3043
27.8392,1.3100
27.6892,1.3100
27.6605,1.3043
27.6362,1.2880
27.6199,1.2637
27.6142,1.2350
Z" /> 
<path style="fill:#D864FF; fill-opacity:0.4000; stroke:none;fill-rule:evenodd;"
d="M 27.5892,5.7600
27.5892,1.5100
31.8392,1.5100
31.8392,5.7600
Z" /> 
<path style="fill:#B4A09A; fill-opacity:0.9000; stroke:none;fill-rule:evenodd;"
d="M 28.1785,1.5977
28.2163,1.6497
28.2214,1.6819
28.2214,1.9519
28.2015,2.0130
28.1909,2.0255
28.1047,2.1117
28.0474,2.1409
28.0311,2.1422
27.7611,2.1422
27.6999,2.1223
27.6621,2.0703
27.6570,2.0381
27.6570,1.6819
27.6769,1.6207
27.7290,1.5829
27.7611,1.5778
28.1173,1.5778
Z" /> 
<path style="fill:#B4A09A; fill-opacity:0.9000; stroke:none;fill-rule:evenodd;"
d="M 28.1183,2.3224
28.1239,2.3275
28.1959,2.3996
28.2211,2.4535
28.2214,2.4610
28.2214,2.9090
28.2011,2.9649
28.1959,2.9704
28.1239,3.0425
28.0700,3.0676
28.0624,3.0680
27.7440,3.0680
27.6881,3.0476
27.6584,2.9961
27.6570,2.9810
27.6570,2.3890
27.6774,2.3331
27.7289,2.3034
27.7440,2.3020
28.0624,2.3020
Z" /> 
<path style="fill:#B4A09A; fill-opacity:0.9000; stroke:none;fill-rule:evenodd;"
d="M 28.1183,3.2724
28.1239,3.2775
28.1959,3.3496
28.2211,3.4035
28.2214,3.4110
28.2214,3.8590
28.2011,3.9149
28.1959,3.9204
28.1239,3.9925
28.0700,4.0176
28.0624,4.0180
27.7440,4.0180
27.6881,3.9976
27.6584,3.9461
27.6570,3.9310
27.6570,3.3390
27.6774,3.2831
27.7289,3.2534
27.7440,3.2520
28.0624,3.2520
Z" /> 
<path style="fill:#B4A09A; fill-opacity:0.9000; stroke:none;fill-rule:evenodd;"
d="M 28.1183,4.2224
28.1239,4.2275
28.1959,4.2996
28.2211,4.3535
28.2214,4.3610
28.2214,4.8090
28.2011,4.8649
28.1959,4.8704
28.1239,4.9425
28.0700,4.9676
28.0624,4.9680
27.7440,4.9680
27.6881,4.9476
27.6584,4.8961
27.6570,4.8810
27.6570,4.2890
27.6774,4.2331
27.7289,4.2034
27.7440,4.2020
28.0624,4.2020
Z" /> 
<path style="fill:#B4A09A; fill-opacity:0.9000; stroke:none;fill-rule:evenodd;"
d="M 28.0923,5.1477
28.1047,5.1583
28.1909,5.2445
28.2201,5.3019
28.2214,5.3181
28.2214,5.5881
28.2015,5.6493
28.1495,5.6871
28.1173,5.6922
27.7611,5.6922
27.6999,5.6723
27.6621,5.6203
27.6570,5.5881
27.6570,5.2319
27.6769,5.1707
27.7290,5.1329
27.7611,5.1278
28.0311,5.1278
Z" /> 
<path style="fill:#B4A09A; fill-opacity:0.9000; stroke:none;fill-rule:evenodd;"
d="M 29.1161,1.5982
29.1459,1.6497
29.1472,1.6648
29.1472,1.9832
29.1268,2.0391
29.1217,2.0447
29.0497,2.1167
28.9958,2.1418
28.9882,2.1422
28.5403,2.1422
28.4844,2.1218
28.4788,2.1167
28.4067,2.0447
28.3816,1.9908
28.3813,1.9832
28.3813,1.6648
28.4016,1.6089
28.4531,1.5791
28.4682,1.5778
29.0602,1.5778
Z" /> 
<path style="fill:#B4A09A; fill-opacity:0.9000; stroke:none;fill-rule:evenodd;"
d="M 28.3813,2.4935
28.3958,2.4202
28.4373,2.3581
28.4995,2.3166
28.5727,2.3020
28.9557,2.3020
29.0290,2.3166
29.0911,2.3581
29.1326,2.4202
29.1472,2.4935
29.1472,2.8765
29.1326,2.9498
29.0911,3.0119
29.0290,3.0534
28.9557,3.0680
28.5727,3.0680
28.4995,3.0534
28.4373,3.0119
28.3958,2.9498
28.3813,2.8765
Z" /> 
<path style="fill:#B4A09A; fill-opacity:0.9000; stroke:none;fill-rule:evenodd;"
d="M 28.3813,3.4435
28.3958,3.3702
28.4373,3.3081
28.4995,3.2666
28.5727,3.2520
28.9557,3.2520
29.0290,3.2666
29.0911,3.3081
29.1326,3.3702
29.1472,3.4435
29.1472,3.8265
29.1326,3.8998
29.0911,3.9619
29.0290,4.0034
28.9557,4.0180
28.5727,4.0180
28.4995,4.0034
28.4373,3.9619
28.3958,3.8998
28.3813,3.8265
Z" /> 
<path style="fill:#B4A09A; fill-opacity:0.9000; stroke:none;fill-rule:evenodd;"
d="M 28.3813,4.3935
28.3958,4.3202
28.4373,4.2581
28.4995,4.2166
28.5727,4.2020
28.9557,4.2020
29.0290,4.2166
29.0911,4.2581
29.1326,4.3202
29.1472,4.3935
29.1472,4.7765
29.1326,4.8498
29.0911,4.9119
29.0290,4.9534
28.9557,4.9680
28.5727,4.9680
28.4995,4.9534
28.4373,4.9119
28.3958,4.8498
28.3813,4.7765
Z" /> 
<path style="fill:#B4A09A; fill-opacity:0.9000; stroke:none;fill-rule:evenodd;"
d="M 29.0441,5.1482
29.0497,5.1533
29.1217,5.2253
29.1468,5.2792
29.1472,5.2868
29.1472,5.6052
29.1268,5.6611
29.0753,5.6909
29.0602,5.6922
28.4682,5.6922
28.4123,5.6718
28.3826,5.6203
28.3813,5.6052
28.3813,5.2868
28.4016,5.2309
28.4067,5.2253
28.4788,5.1533
28.5327,5.1282
28.5403,5.1278
28.9882,5.1278
Z" /> 
<path style="fill:#B4A09A; fill-opacity:0.9000; stroke:none;fill-rule:evenodd;"
d="M 30.0661,1.5982
30.0959,1.6497
30.0972,1.6648
30.0972,1.9832
30.0768,2.0391
30.0717,2.0447
29.9997,2.1167
29.9458,2.1418
29.9382,2.1422
29.4903,2.1422
29.4344,2.1218
29.4288,2.1167
29.3567,2.0447
29.3316,1.9908
29.3313,1.9832
29.3313,1.6648
29.3516,1.6089
29.4031,1.5791
29.4182,1.5778
30.0102,1.5778
Z" /> 
<path style="fill:#B4A09A; fill-opacity:0.9000; stroke:none;fill-rule:evenodd;"
d="M 29.3313,2.4935
29.3458,2.4202
29.3873,2.3581
29.4495,2.3166
29.5227,2.3020
29.9057,2.3020
29.9790,2.3166
30.0411,2.3581
30.0826,2.4202
30.0972,2.4935
30.0972,2.8765
30.0826,2.9498
30.0411,3.0119
29.9790,3.0534
29.9057,3.0680
29.5227,3.0680
29.4495,3.0534
29.3873,3.0119
29.3458,2.9498
29.3313,2.8765
Z" /> 
<path style="fill:#B4A09A; fill-opacity:0.9000; stroke:none;fill-rule:evenodd;"
d="M 29.3313,3.4435
29.3458,3.3702
29.3873,3.3081
29.4495,3.2666
29.5227,3.2520
29.9057,3.2520
29.9790,3.2666
30.0411,3.3081
30.0826,3.3702
30.0972,3.4435
30.0972,3.8265
30.0826,3.8998
30.0411,3.9619
29.9790,4.0034
29.9057,4.0180
29.5227,4.0180
29.4495,4.0034
29.3873,3.9619
29.3458,3.8998
29.3313,3.8265
Z" /> 
<path style="fill:#B4A09A; fill-opacity:0.9000; stroke:none;fill-rule:evenodd;"
d="M 29.3313,4.3935
29.3458,4.3202
29.3873,4.2581
29.4495,4.2166
29.5227,4.2020
29.9057,4.2020
29.9790,4.2166
30.0411,4.2581
30.0826,4.3202
30.0972,4.3935
30.0972,4.7765
30.0826,4.8498
30.0411,4.9119
29.9790,4.9534
29.9057,4.9680
29.5227,4.9680
29.4495,4.9534
29.3873,4.9119
29.3458,4.8498
29.3313,4.7765
Z" /> 
<path style="fill:#B4A09A; fill-opacity:0.9000; stroke:none;fill-rule:evenodd;"
d="M 29.9941,5.1482
29.9997,5.1533
30.0717,5.2253
30.0968,5.2792
30.0972,5.2868
30.0972,5.6052
30.0768,5.6611
30.0253,5.6909
30.0102,5.6922
29.4182,5.6922
29.3623,5.6718
29.3326,5.6203
29.3313,5.6052
29.3313,5.2868
29.3516,5.2309
29.3567,5.2253
29.4288,5.1533
29.4827,5.1282
29.4903,5.1278
29.9382,5.1278
Z" /> 
<path style="fill:#B4A09A; fill-opacity:0.9000; stroke:none;fill-rule:evenodd;"
d="M 31.0161,1.5982
31.0459,1.6497
31.0472,1.6648
31.0472,1.9832
31.0268,2.0391
31.0217,2.0447
30.9497,2.1167
30.8958,2.1418
30.8882,2.1422
30.4403,2.1422
30.3844,2.1218
30.3788,2.1167
30.3067,2.0447
30.2816,1.9908
30.2813,1.9832
30.2813,1.6648
30.3016,1.6089
30.3531,1.5791
30.3682,1.5778
30.9602,1.5778
Z" /> 
<path style="fill:#B4A09A; fill-opacity:0.9000; stroke:none;fill-rule:evenodd;"
d="M 30.2813,2.4935
30.2958,2.4202
30.3373,2.3581
30.3995,2.3166
30.4727,2.3020
30.8557,2.3020
30.9290,2.3166
30.9911,2.3581
31.0326,2.4202
31.0472,2.4935
31.0472,2.8765
31.0326,2.9498
30.9911,3.0119
30.9290,3.0534
30.8557,3.0680
30.4727,3.0680
30.3995,3.0534
30.3373,3.0119
30.2958,2.9498
30.2813,2.8765
Z" /> 
<path style="fill:#B4A09A; fill-opacity:0.9000; stroke:none;fill-rule:evenodd;"
d="M 30.2813,3.4435
30.2958,3.3702
30.3373,3.3081
30.3995,3.2666
30.4727,3.2520
30.8557,3.2520
30.9290,3.2666
30.9911,3.3081
31.0326,3.3702
31.0472,3.4435
31.0472,3.8265
31.0326,3.8998
30.9911,3.9619
30.9290,4.0034
30.8557,4.0180
30.4727,4.0180
30.3995,4.0034
30.3373,3.9619
30.2958,3.8998
30.2813,3.8265
Z" /> 
<path style="fill:#B4A09A; fill-opacity:0.9000; stroke:none;fill-rule:evenodd;"
d="M 30.2813,4.3935
30.2958,4.3202
30.3373,4.2581
30.3995,4.2166
30.4727,4.2020
30.8557,4.2020
30.9290,4.2166
30.9911,4.2581
31.0326,4.3202
31.0472,4.3935
31.0472,4.7765
31.0326,4.8498
30.9911,4.9119
30.9290,4.9534
30.8557,4.9680
30.4727,4.9680
30.3995,4.9534
30.3373,4.9119
30.2958,4.8498
30.2813,4.7765
Z" /> 
<path style="fill:#B4A09A; fill-opacity:0.9000; stroke:none;fill-rule:evenodd;"
d="M 30.9441,5.1482
30.9497,5.1533
31.0217,5.2253
31.0468,5.2792
31.0472,5.2868
31.0472,5.6052
31.0268,5.6611
30.9753,5.6909
30.9602,5.6922
30.3682,5.6922
30.3123,5.6718
30.2826,5.6203
30.2813,5.6052
30.2813,5.2868
30.3016,5.2309
30.3067,5.2253
30.3788,5.1533
30.4327,5.1282
30.4403,5.1278
30.8882,5.1278
Z" /> 
<path style="fill:#B4A09A; fill-opacity:0.9000; stroke:none;fill-rule:evenodd;"
d="M 31.7285,1.5977
31.7663,1.6497
31.7714,1.6819
31.7714,2.0381
31.7515,2.0993
31.6995,2.1371
31.6673,2.1422
31.3974,2.1422
31.3362,2.1223
31.3238,2.1117
31.2375,2.0255
31.2083,1.9681
31.2070,1.9519
31.2070,1.6819
31.2269,1.6207
31.2790,1.5829
31.3111,1.5778
31.6673,1.5778
Z" /> 
<path style="fill:#B4A09A; fill-opacity:0.9000; stroke:none;fill-rule:evenodd;"
d="M 31.7403,2.3224
31.7701,2.3739
31.7714,2.3890
31.7714,2.9810
31.7511,3.0369
31.6995,3.0666
31.6844,3.0680
31.3660,3.0680
31.3101,3.0476
31.3046,3.0425
31.2325,2.9704
31.2074,2.9165
31.2070,2.9090
31.2070,2.4610
31.2274,2.4051
31.2325,2.3996
31.3046,2.3275
31.3585,2.3024
31.3660,2.3020
31.6844,2.3020
Z" /> 
<path style="fill:#B4A09A; fill-opacity:0.9000; stroke:none;fill-rule:evenodd;"
d="M 31.7403,3.2724
31.7701,3.3239
31.7714,3.3390
31.7714,3.9310
31.7511,3.9869
31.6995,4.0166
31.6844,4.0180
31.3660,4.0180
31.3101,3.9976
31.3046,3.9925
31.2325,3.9204
31.2074,3.8665
31.2070,3.8590
31.2070,3.4110
31.2274,3.3551
31.2325,3.3496
31.3046,3.2775
31.3585,3.2524
31.3660,3.2520
31.6844,3.2520
Z" /> 
<path style="fill:#B4A09A; fill-opacity:0.9000; stroke:none;fill-rule:evenodd;"
d="M 31.7403,4.2224
31.7701,4.2739
31.7714,4.2890
31.7714,4.8810
31.7511,4.9369
31.6995,4.9666
31.6844,4.9680
31.3660,4.9680
31.3101,4.9476
31.3046,4.9425
31.2325,4.8704
31.2074,4.8165
31.2070,4.8090
31.2070,4.3610
31.2274,4.3051
31.2325,4.2996
31.3046,4.2275
31.3585,4.2024
31.3660,4.2020
31.6844,4.2020
Z" /> 
<path style="fill:#B4A09A; fill-opacity:0.9000; stroke:none;fill-rule:evenodd;"
d="M 31.7285,5.1477
31.7663,5.1997
31.7714,5.2319
31.7714,5.5881
31.7515,5.6493
31.6995,5.6871
31.6673,5.6922
31.3111,5.6922
31.2499,5.6723
31.2121,5.6203
31.2070,5.5881
31.2070,5.3181
31.2269,5.2570
31.2375,5.2445
31.3238,5.1583
31.3811,5.1291
31.3974,5.1278
31.6673,5.1278
Z" /> 
<path style="fill:#B4A09A; fill-opacity:0.9000; stroke:none;fill-rule:evenodd;"
d="M 26.3642,1.6100
26.3699,1.5813
26.3862,1.5570
26.4105,1.5407
26.4392,1.5350
27.3142,1.5350
27.3429,1.5407
27.3673,1.5570
27.3835,1.5813
27.3892,1.6100
27.3892,1.7600
27.3835,1.7887
27.3673,1.8130
27.3429,1.8293
27.3142,1.8350
26.4392,1.8350
26.4105,1.8293
26.3862,1.8130
26.3699,1.7887
26.3642,1.7600
Z" /> 
<path style="fill:#B4A09A; fill-opacity:0.9000; stroke:none;fill-rule:evenodd;"
d="M 26.3642,2.2600
26.3699,2.2313
26.3862,2.2070
26.4105,2.1907
26.4392,2.1850
27.3142,2.1850
27.3429,2.1907
27.3673,2.2070
27.3835,2.2313
27.3892,2.2600
27.3892,2.4100
27.3835,2.4387
27.3673,2.4630
27.3429,2.4793
27.3142,2.4850
26.4392,2.4850
26.4105,2.4793
26.3862,2.4630
26.3699,2.4387
26.3642,2.4100
Z" /> 
<path style="fill:#B4A09A; fill-opacity:0.9000; stroke:none;fill-rule:evenodd;"
d="M 26.3642,2.9100
26.3699,2.8813
26.3862,2.8570
26.4105,2.8407
26.4392,2.8350
27.3142,2.8350
27.3429,2.8407
27.3673,2.8570
27.3835,2.8813
27.3892,2.9100
27.3892,3.0600
27.3835,3.0887
27.3673,3.1130
27.3429,3.1293
27.3142,3.1350
26.4392,3.1350
26.4105,3.1293
26.3862,3.1130
26.3699,3.0887
26.3642,3.0600
Z" /> 
<path style="fill:#B4A09A; fill-opacity:0.9000; stroke:none;fill-rule:evenodd;"
d="M 26.3642,3.5600
26.3699,3.5313
26.3862,3.5070
26.4105,3.4907
26.4392,3.4850
27.3142,3.4850
27.3429,3.4907
27.3673,3.5070
27.3835,3.5313
27.3892,3.5600
27.3892,3.7100
27.3835,3.7387
27.3673,3.7630
27.3429,3.7793
27.3142,3.7850
26.4392,3.7850
26.4105,3.7793
26.3862,3.7630
26.3699,3.7387
26.3642,3.7100
Z" /> 
<path style="fill:#B4A09A; fill-opacity:0.9000; stroke:none;fill-rule:evenodd;"
d="M 26.3642,4.2100
26.3699,4.1813
26.3862,4.1570
26.4105,4.1407
26.4392,4.1350
27.3142,4.1350
27.3429,4.1407
27.3673,4.1570
27.3835,4.1813
27.3892,4.2100
27.3892,4.3600
27.3835,4.3887
27.3673,4.4130
27.3429,4.4293
27.3142,4.4350
26.4392,4.4350
26.4105,4.4293
26.3862,4.4130
26.3699,4.3887
26.3642,4.3600
Z" /> 
<path style="fill:#B4A09A; fill-opacity:0.9000; stroke:none;fill-rule:evenodd;"
d="M 26.3642,4.8600
26.3699,4.8313
26.3862,4.8070
26.4105,4.7907
26.4392,4.7850
27.3142,4.7850
27.3429,4.7907
27.3673,4.8070
27.3835,4.8313
27.3892,4.8600
27.3892,5.0100
27.3835,5.0387
27.3673,5.0630
27.3429,5.0793
27.3142,5.0850
26.4392,5.0850
26.4105,5.0793
26.3862,5.0630
26.3699,5.0387
26.3642,5.0100
Z" /> 
<path style="fill:#B4A09A; fill-opacity:0.9000; stroke:none;fill-rule:evenodd;"
d="M 26.3642,5.5100
26.3699,5.4813
26.3862,5.4570
26.4105,5.4407
26.4392,5.4350
27.3142,5.4350
27.3429,5.4407
27.3673,5.4570
27.3835,5.4813
27.3892,5.5100
27.3892,5.6600
27.3835,5.6887
27.3673,5.7130
27.3429,5.7293
27.3142,5.7350
26.4392,5.7350
26.4105,5.7293
26.3862,5.7130
26.3699,5.6887
26.3642,5.6600
Z" /> 
<path style="fill:#B4A09A; fill-opacity:0.9000; stroke:none;fill-rule:evenodd;"
d="M 27.6142,6.0350
27.6199,6.0063
27.6362,5.9820
27.6605,5.9657
27.6892,5.9600
27.8392,5.9600
27.8679,5.9657
27.8923,5.9820
27.9085,6.0063
27.9142,6.0350
27.9142,6.9100
27.9085,6.9387
27.8923,6.9630
27.8679,6.9793
27.8392,6.9850
27.6892,6.9850
27.6605,6.9793
27.6362,6.9630
27.6199,6.9387
27.6142,6.9100
Z" /> 
<path style="fill:#B4A09A; fill-opacity:0.9000; stroke:none;fill-rule:evenodd;"
d="M 28.2642,6.0350
28.2699,6.0063
28.2862,5.9820
28.3105,5.9657
28.3392,5.9600
28.4892,5.9600
28.5179,5.9657
28.5423,5.9820
28.5585,6.0063
28.5642,6.0350
28.5642,6.9100
28.5585,6.9387
28.5423,6.9630
28.5179,6.9793
28.4892,6.9850
28.3392,6.9850
28.3105,6.9793
28.2862,6.9630
28.2699,6.9387
28.2642,6.9100
Z" /> 
<path style="fill:#B4A09A; fill-opacity:0.9000; stroke:none;fill-rule:evenodd;"
d="M 28.9142,6.0350
28.9199,6.0063
28.9362,5.9820
28.9605,5.9657
28.9892,5.9600
29.1392,5.9600
29.1679,5.9657
29.1923,5.9820
29.2085,6.0063
29.2142,6.0350
29.2142,6.9100
29.2085,6.9387
29.1923,6.9630
29.1679,6.9793
29.1392,6.9850
28.9892,6.9850
28.9605,6.9793
28.9362,6.9630
28.9199,6.9387
28.9142,6.9100
Z" /> 
<path style="fill:#B4A09A; fill-opacity:0.9000; stroke:none;fill-rule:evenodd;"
d="M 29.5642,6.0350
29.5699,6.0063
29.5862,5.9820
29.6105,5.9657
29.6392,5.9600
29.7892,5.9600
29.8179,5.9657
29.8423,5.9820
29.8585,6.0063
29.8642,6.0350
29.8642,6.9100
29.8585,6.9387
29.8423,6.9630
29.8179,6.9793
29.7892,6.9850
29.6392,6.9850
29.6105,6.9793
29.5862,6.9630
29.5699,6.9387
29.5642,6.9100
Z" /> 
<path style="fill:#B4A09A; fill-opacity:0.9000; stroke:none;fill-rule:evenodd;"
d="M 30.2142,6.0350
30.2199,6.0063
30.2362,5.9820
30.2605,5.9657
30.2892,5.9600
30.4392,5.9600
30.4679,5.9657
30.4923,5.9820
30.5085,6.0063
30.5142,6.0350
30.5142,6.9100
30.5085,6.9387
30.4923,6.9630
30.4679,6.9793
30.4392,6.9850
30.2892,6.9850
30.2605,6.9793
30.2362,6.9630
30.2199,6.9387
30.2142,6.9100
Z" /> 
<path style="fill:#B4A09A; fill-opacity:0.9000; stroke:none;fill-rule:evenodd;"
d="M 30.8642,6.0350
30.8699,6.0063
30.8862,5.9820
30.9105,5.9657
30.9392,5.9600
31.0892,5.9600
31.1179,5.9657
31.1423,5.9820
31.1585,6.0063
31.1642,6.0350
31.1642,6.9100
31.1585,6.9387
31.1423,6.9630
31.1179,6.9793
31.0892,6.9850
30.9392,6.9850
30.9105,6.9793
30.8862,6.9630
30.8699,6.9387
30.8642,6.9100
Z" /> 
<path style="fill:#B4A09A; fill-opacity:0.9000; stroke:none;fill-rule:evenodd;"
d="M 31.5142,6.0350
31.5199,6.0063
31.5362,5.9820
31.5605,5.9657
31.5892,5.9600
31.7392,5.9600
31.7679,5.9657
31.7923,5.9820
31.8085,6.0063
31.8142,6.0350
31.8142,6.9100
31.8085,6.9387
31.7923,6.9630
31.7679,6.9793
31.7392,6.9850
31.5892,6.9850
31.5605,6.9793
31.5362,6.9630
31.5199,6.9387
31.5142,6.9100
Z" /> 
<path style="fill:#B4A09A; fill-opacity:0.9000; stroke:none;fill-rule:evenodd;"
d="M 32.0392,5.5100
32.0449,5.4813
32.0612,5.4570
32.0855,5.4407
32.1142,5.4350
32.9892,5.4350
33.0179,5.4407
33.0423,5.4570
33.0585,5.4813
33.0642,5.5100
33.0642,5.6600
33.0585,5.6887
33.0423,5.7130
33.0179,5.7293
32.9892,5.7350
32.1142,5.7350
32.0855,5.7293
32.0612,5.7130
32.0449,5.6887
32.0392,5.6600
Z" /> 
<path style="fill:#B4A09A; fill-opacity:0.9000; stroke:none;fill-rule:evenodd;"
d="M 32.0392,4.8600
32.0449,4.8313
32.0612,4.8070
32.0855,4.7907
32.1142,4.7850
32.9892,4.7850
33.0179,4.7907
33.0423,4.8070
33.0585,4.8313
33.0642,4.8600
33.0642,5.0100
33.0585,5.0387
33.0423,5.0630
33.0179,5.0793
32.9892,5.0850
32.1142,5.0850
32.0855,5.0793
32.0612,5.0630
32.0449,5.0387
32.0392,5.0100
Z" /> 
<path style="fill:#B4A09A; fill-opacity:0.9000; stroke:none;fill-rule:evenodd;"
d="M 32.0392,4.2100
32.0449,4.1813
32.0612,4.1570
32.0855,4.1407
32.1142,4.1350
32.9892,4.1350
33.0179,4.1407
33.0423,4.1570
33.0585,4.1813
33.0642,4.2100
33.0642,4.3600
33.0585,4.3887
33.0423,4.4130
33.0179,4.4293
32.9892,4.4350
32.1142,4.4350
32.0855,4.4293
32.0612,4.4130
32.0449,4.3887
32.0392,4.3600
Z" /> 
<path style="fill:#B4A09A; fill-opacity:0.9000; stroke:none;fill-rule:evenodd;"
d="M 32.0392,3.5600
32.0449,3.5313
32.0612,3.5070
32.0855,3.4907
32.1142,3.4850
32.9892,3.4850
33.0179,3.4907
33.0423,3.5070
33.0585,3.5313
33.0642,3.5600
33.0642,3.7100
33.0585,3.7387
33.0423,3.7630
33.0179,3.7793
32.9892,3.7850
32.1142,3.7850
32.0855,3.7793
32.0612,3.7630
32.0449,3.7387
32.0392,3.7100
Z" /> 
<path style="fill:#B4A09A; fill-opacity:0.9000; stroke:none;fill-rule:evenodd;"
d="M 32.0392,2.9100
32.0449,2.8813
32.0612,2.8570
32.0855,2.8407
32.1142,2.8350
32.9892,2.8350
33.0179,2.8407
33.0423,2.8570
33.0585,2.8813
33.0642,2.9100
33.0642,3.0600
33.0585,3.0887
33.0423,3.1130
33.0179,3.1293
32.9892,3.1350
32.1142,3.1350
32.0855,3.1293
32.0612,3.1130
32.0449,3.0887
32.0392,3.0600
Z" /> 
<path style="fill:#B4A09A; fill-opacity:0.9000; stroke:none;fill-rule:evenodd;"
d="M 32.0392,2.2600
32.0449,2.2313
32.0612,2.2070
32.0855,2.1907
32.1142,2.1850
32.9892,2.1850
33.0179,2.1907
33.0423,2.2070
33.0585,2.2313
33.0642,2.2600
33.0642,2.4100
33.0585,2.4387
33.0423,2.4630
33.0179,2.4793
32.9892,2.4850
32.1142,2.4850
32.0855,2.4793
32.0612,2.4630
32.0449,2.4387
32.0392,2.4100
Z" /> 
<path style="fill:#B4A09A; fill-opacity:0.9000; stroke:none;fill-rule:evenodd;"
d="M 32.0392,1.6100
32.0449,1.5813
32.0612,1.5570
32.0855,1.5407
32.1142,1.5350
32.9892,1.5350
33.0179,1.5407
33.0423,1.5570
33.0585,1.5813
33.0642,1.6100
33.0642,1.7600
33.0585,1.7887
33.0423,1.8130
33.0179,1.8293
32.9892,1.8350
32.1142,1.8350
32.0855,1.8293
32.0612,1.8130
32.0449,1.7887
32.0392,1.7600
Z" /> 
<path style="fill:#B4A09A; fill-opacity:0.9000; stroke:none;fill-rule:evenodd;"
d="M 31.5142,0.3600
31.5199,0.3313
31.5362,0.3070
31.5605,0.2907
31.5892,0.2850
31.7392,0.2850
31.7679,0.2907
31.7923,0.3070
31.8085,0.3313
31.8142,0.3600
31.8142,1.2350
31.8085,1.2637
31.7923,1.2880
31.7679,1.3043
31.7392,1.3100
31.5892,1.3100
31.5605,1.3043
31.5362,1.2880
31.5199,1.2637
31.5142,1.2350
Z" /> 
<path style="fill:#B4A09A; fill-opacity:0.9000; stroke:none;fill-rule:evenodd;"
d="M 30.8642,0.3600
30.8699,0.3313
30.8862,0.3070
30.9105,0.2907
30.9392,0.2850
31.0892,0.2850
31.1179,0.2907
31.1423,0.3070
31.1585,0.3313
31.1642,0.3600
31.1642,1.2350
31.1585,1.2637
31.1423,1.2880
31.1179,1.3043
31.0892,1.3100
30.9392,1.3100
30.9105,1.3043
30.8862,1.2880
30.8699,1.2637
30.8642,1.2350
Z" /> 
<path style="fill:#B4A09A; fill-opacity:0.9000; stroke:none;fill-rule:evenodd;"
d="M 30.2142,0.3600
30.2199,0.3313
30.2362,0.3070
30.2605,0.2907
30.2892,0.2850
30.4392,0.2850
30.4679,0.2907
30.4923,0.3070
30.5085,0.3313
30.5142,0.3600
30.5142,1.2350
30.5085,1.2637
30.4923,1.2880
30.4679,1.3043
30.4392,1.3100
30.2892,1.3100
30.2605,1.3043
30.2362,1.2880
30.2199,1.2637
30.2142,1.2350
Z" /> 
<path style="fill:#B4A09A; fill-opacity:0.9000; stroke:none;fill-rule:evenodd;"
d="M 29.5642,0.3600
29.5699,0.3313
29.5862,0.3070
29.6105,0.2907
29.6392,0.2850
29.7892,0.2850
29.8179,0.2907
29.8423,0.3070
29.8585,0.3313
29.8642,0.3600
29.8642,1.2350
29.8585,1.2637
29.8423,1.2880
29.8179,1.3043
29.7892,1.3100
29.6392,1.3100
29.6105,1.3043
29.5862,1.2880
29.5699,1.2637
29.5642,1.2350
Z" /> 
<path style="fill:#B4A09A; fill-opacity:0.9000; stroke:none;fill-rule:evenodd;"
d="M 28.9142,0.3600
28.9199,0.3313
28.9362,0.3070
28.9605,0.2907
28.9892,0.2850
29.1392,0.2850
29.1679,0.2907
29.1923,0.3070
29.2085,0.3313
29.2142,0.3600
29.2142,1.2350
29.2085,1.2637
29.1923,1.2880
29.1679,1.3043
29.1392,1.3100
28.9892,1.3100
28.9605,1.3043
28.9362,1.2880
28.9199,1.2637
28.9142,1.2350
Z" /> 
<path style="fill:#B4A09A; fill-opacity:0.9000; stroke:none;fill-rule:evenodd;"
d="M 28.2642,0.3600
28.2699,0.3313
28.2862,0.3070
28.3105,0.2907
28.3392,0.2850
28.4892,0.2850
28.5179,0.2907
28.5423,0.3070
28.5585,0.3313
28.5642,0.3600
28.5642,1.2350
28.5585,1.2637
28.5423,1.2880
28.5179,1.3043
28.4892,1.3100
28.3392,1.3100
28.3105,1.3043
28.2862,1.2880
28.2699,1.2637
28.2642,1.2350
Z" /> 
<path style="fill:#B4A09A; fill-opacity:0.9000; stroke:none;fill-rule:evenodd;"
d="M 27.6142,0.3600
27.6199,0.3313
27.6362,0.3070
27.6605,0.2907
27.6892,0.2850
27.8392,0.2850
27.8679,0.2907
27.8923,0.3070
27.9085,0.3313
27.9142,0.3600
27.9142,1.2350
27.9085,1.2637
27.8923,1.2880
27.8679,1.3043
27.8392,1.3100
27.6892,1.3100
27.6605,1.3043
27.6362,1.2880
27.6199,1.2637
27.6142,1.2350
Z" /> 
</g>
<g style="fill:none; 
stroke:#F2EDA1; stroke-width:0.1588; stroke-opacity:1; 
stroke-linecap:round; stroke-linejoin:round;">
<text x="29.7142" y="4.2700"
textLength="5.6651" font-size="1.6933" lengthAdjust="spacingAndGlyphs"
text-anchor="middle" opacity="0">REF**</text>
<g class="stroked-text"><desc>REF**</desc>
<path d="M28.0209 4.2143
L27.5976 3.6095
" />
<path d="M27.2952 4.2143
L27.2952 2.9443
" />
<path d="M27.2952 2.9443
L27.7790 2.9443
" />
<path d="M27.7790 2.9443
L27.8999 3.0047
" />
<path d="M27.8999 3.0047
L27.9604 3.0652
" />
<path d="M27.9604 3.0652
L28.0209 3.1862
" />
<path d="M28.0209 3.1862
L28.0209 3.3676
" />
<path d="M28.0209 3.3676
L27.9604 3.4886
" />
<path d="M27.9604 3.4886
L27.8999 3.5490
" />
<path d="M27.8999 3.5490
L27.7790 3.6095
" />
<path d="M27.7790 3.6095
L27.2952 3.6095
" />
<path d="M28.5652 3.5490
L28.9885 3.5490
" />
<path d="M29.1699 4.2143
L28.5652 4.2143
" />
<path d="M28.5652 4.2143
L28.5652 2.9443
" />
<path d="M28.5652 2.9443
L29.1699 2.9443
" />
<path d="M30.1376 3.5490
L29.7142 3.5490
" />
<path d="M29.7142 4.2143
L29.7142 2.9443
" />
<path d="M29.7142 2.9443
L30.3190 2.9443
" />
<path d="M30.9842 2.9443
L30.9842 3.2467
" />
<path d="M30.6818 3.1257
L30.9842 3.2467
" />
<path d="M30.9842 3.2467
L31.2866 3.1257
" />
<path d="M30.8028 3.4886
L30.9842 3.2467
" />
<path d="M30.9842 3.2467
L31.1656 3.4886
" />
<path d="M31.9518 2.9443
L31.9518 3.2467
" />
<path d="M31.6495 3.1257
L31.9518 3.2467
" />
<path d="M31.9518 3.2467
L32.2542 3.1257
" />
<path d="M31.7704 3.4886
L31.9518 3.2467
" />
<path d="M31.9518 3.2467
L32.1333 3.4886
" />
</g></g>
<g style="fill:none; 
stroke:#F2EDA1; stroke-width:0.1200; stroke-opacity:1; 
stroke-linecap:round; stroke-linejoin:round;">
<path d="M26.6042 1.2750
L26.6042 0.7650
" />
<path d="M26.6042 6.7450
L26.6042 5.9950
" />
<path d="M27.3542 0.5250
L26.9042 0.5250
" />
<path d="M27.3542 6.7450
L26.6042 6.7450
" />
<path d="M32.0742 0.5250
L32.8242 0.5250
" />
<path d="M32.0742 6.7450
L32.8242 6.7450
" />
<path d="M32.8242 0.5250
L32.8242 1.2750
" />
<path d="M32.8242 6.7450
L32.8242 5.9950
" />
<path style="fill:#F2EDA1; fill-opacity:1.0000; 
stroke:#F2EDA1; stroke-width:0.1200; stroke-opacity:1; 
stroke-linecap:round; stroke-linejoin:round;fill-rule:evenodd;"
d="M 26.6042,0.5250
26.3642,0.1950
26.8442,0.1950
Z" /> 
</g>
<g style="fill:#FFFFFF; fill-opacity:1.0000; stroke:none;">
<circle cx="28.2892" cy="2.2100" r="0.1000" /> 
</g>
<g style="fill:#FFFFFF; fill-opacity:1.0000; stroke:none;">
<circle cx="28.2892" cy="3.1600" r="0.1000" /> 
</g>
<g style="fill:#FFFFFF; fill-opacity:1.0000; stroke:none;">
<circle cx="28.2892" cy="4.1100" r="0.1000" /> 
</g>
<g style="fill:#FFFFFF; fill-opacity:1.0000; stroke:none;">
<circle cx="28.2892" cy="5.0600" r="0.1000" /> 
</g>
<g style="fill:#FFFFFF; fill-opacity:1.0000; stroke:none;">
<circle cx="29.2392" cy="2.2100" r="0.1000" /> 
</g>
<g style="fill:#FFFFFF; fill-opacity:1.0000; stroke:none;">
<circle cx="29.2392" cy="3.1600" r="0.1000" /> 
</g>
<g style="fill:#FFFFFF; fill-opacity:1.0000; stroke:none;">
<circle cx="29.2392" cy="4.1100" r="0.1000" /> 
</g>
<g style="fill:#FFFFFF; fill-opacity:1.0000; stroke:none;">
<circle cx="29.2392" cy="5.0600" r="0.1000" /> 
</g>
<g style="fill:#FFFFFF; fill-opacity:1.0000; stroke:none;">
<circle cx="30.1892" cy="2.2100" r="0.1000" /> 
</g>
<g style="fill:#FFFFFF; fill-opacity:1.0000; stroke:none;">
<circle cx="30.1892" cy="3.1600" r="0.1000" /> 
</g>
<g style="fill:#FFFFFF; fill-opacity:1.0000; stroke:none;">
<circle cx="30.1892" cy="4.1100" r="0.1000" /> 
</g>
<g style="fill:#FFFFFF; fill-opacity:1.0000; stroke:none;">
<circle cx="30.1892" cy="5.0600" r="0.1000" /> 
</g>
<g style="fill:#FFFFFF; fill-opacity:1.0000; stroke:none;">
<circle cx="31.1392" cy="2.2100" r="0.1000" /> 
</g>
<g style="fill:#FFFFFF; fill-opacity:1.0000; stroke:none;">
<circle cx="31.1392" cy="3.1600" r="0.1000" /> 
</g>
<g style="fill:#FFFFFF; fill-opacity:1.0000; stroke:none;">
<circle cx="31.1392" cy="4.1100" r="0.1000" /> 
</g>
<g style="fill:#FFFFFF; fill-opacity:1.0000; stroke:none;">
<circle cx="31.1392" cy="5.0600" r="0.1000" /> 
</g>
<g style="fill:none; 
stroke:#FF26E2; stroke-width:0.0500; stroke-opacity:1; 
stroke-linecap:round; stroke-linejoin:round;">
<path d="M26.1042 0.0250
L26.1042 7.2450
" />
<path d="M26.1042 7.2450
L33.3242 7.2450
" />
<path d="M33.3242 0.0250
L26.1042 0.0250
" />
<path d="M33.3242 7.2450
L33.3242 0.0250
" />
</g>
<g style="fill:none; 
stroke:#AFAFAF; stroke-width:0.1588; stroke-opacity:1; 
stroke-linecap:round; stroke-linejoin:round;">
<text x="29.7142" y="4.2700"
textLength="59.4284" font-size="1.6933" lengthAdjust="spacingAndGlyphs"
text-anchor="middle" opacity="0">QFN-28-1EP_6x6mm_P0.65mm_EP4.25x4.25mm_ThermalVias</text>
<g class="stroked-text"><desc>QFN-28-1EP_6x6mm_P0.65mm_EP4.25x4.25mm_ThermalVias</desc>
<path d="M1.2602 4.3352
L1.1392 4.2747
" />
<path d="M1.1392 4.2747
L1.0183 4.1538
" />
<path d="M1.0183 4.1538
L0.8368 3.9724
" />
<path d="M0.8368 3.9724
L0.7159 3.9119
" />
<path d="M0.7159 3.9119
L0.5949 3.9119
" />
<path d="M0.6554 4.2143
L0.5345 4.1538
" />
<path d="M0.5345 4.1538
L0.4135 4.0328
" />
<path d="M0.4135 4.0328
L0.3530 3.7909
" />
<path d="M0.3530 3.7909
L0.3530 3.3676
" />
<path d="M0.3530 3.3676
L0.4135 3.1257
" />
<path d="M0.4135 3.1257
L0.5345 3.0047
" />
<path d="M0.5345 3.0047
L0.6554 2.9443
" />
<path d="M0.6554 2.9443
L0.8973 2.9443
" />
<path d="M0.8973 2.9443
L1.0183 3.0047
" />
<path d="M1.0183 3.0047
L1.1392 3.1257
" />
<path d="M1.1392 3.1257
L1.1997 3.3676
" />
<path d="M1.1997 3.3676
L1.1997 3.7909
" />
<path d="M1.1997 3.7909
L1.1392 4.0328
" />
<path d="M1.1392 4.0328
L1.0183 4.1538
" />
<path d="M1.0183 4.1538
L0.8973 4.2143
" />
<path d="M0.8973 4.2143
L0.6554 4.2143
" />
<path d="M2.1673 3.5490
L1.7440 3.5490
" />
<path d="M1.7440 4.2143
L1.7440 2.9443
" />
<path d="M1.7440 2.9443
L2.3487 2.9443
" />
<path d="M2.8326 4.2143
L2.8326 2.9443
" />
<path d="M2.8326 2.9443
L3.5583 4.2143
" />
<path d="M3.5583 4.2143
L3.5583 2.9443
" />
<path d="M4.1630 3.7305
L5.1306 3.7305
" />
<path d="M5.6749 3.0652
L5.7354 3.0047
" />
<path d="M5.7354 3.0047
L5.8564 2.9443
" />
<path d="M5.8564 2.9443
L6.1587 2.9443
" />
<path d="M6.1587 2.9443
L6.2797 3.0047
" />
<path d="M6.2797 3.0047
L6.3402 3.0652
" />
<path d="M6.3402 3.0652
L6.4006 3.1862
" />
<path d="M6.4006 3.1862
L6.4006 3.3071
" />
<path d="M6.4006 3.3071
L6.3402 3.4886
" />
<path d="M6.3402 3.4886
L5.6145 4.2143
" />
<path d="M5.6145 4.2143
L6.4006 4.2143
" />
<path d="M7.1264 3.4886
L7.0054 3.4281
" />
<path d="M7.0054 3.4281
L6.9449 3.3676
" />
<path d="M6.9449 3.3676
L6.8845 3.2467
" />
<path d="M6.8845 3.2467
L6.8845 3.1862
" />
<path d="M6.8845 3.1862
L6.9449 3.0652
" />
<path d="M6.9449 3.0652
L7.0054 3.0047
" />
<path d="M7.0054 3.0047
L7.1264 2.9443
" />
<path d="M7.1264 2.9443
L7.3683 2.9443
" />
<path d="M7.3683 2.9443
L7.4892 3.0047
" />
<path d="M7.4892 3.0047
L7.5497 3.0652
" />
<path d="M7.5497 3.0652
L7.6102 3.1862
" />
<path d="M7.6102 3.1862
L7.6102 3.2467
" />
<path d="M7.6102 3.2467
L7.5497 3.3676
" />
<path d="M7.5497 3.3676
L7.4892 3.4281
" />
<path d="M7.4892 3.4281
L7.3683 3.4886
" />
<path d="M7.3683 3.4886
L7.1264 3.4886
" />
<path d="M7.1264 3.4886
L7.0054 3.5490
" />
<path d="M7.0054 3.5490
L6.9449 3.6095
" />
<path d="M6.9449 3.6095
L6.8845 3.7305
" />
<path d="M6.8845 3.7305
L6.8845 3.9724
" />
<path d="M6.8845 3.9724
L6.9449 4.0933
" />
<path d="M6.9449 4.0933
L7.0054 4.1538
" />
<path d="M7.0054 4.1538
L7.1264 4.2143
" />
<path d="M7.1264 4.2143
L7.3683 4.2143
" />
<path d="M7.3683 4.2143
L7.4892 4.1538
" />
<path d="M7.4892 4.1538
L7.5497 4.0933
" />
<path d="M7.5497 4.0933
L7.6102 3.9724
" />
<path d="M7.6102 3.9724
L7.6102 3.7305
" />
<path d="M7.6102 3.7305
L7.5497 3.6095
" />
<path d="M7.5497 3.6095
L7.4892 3.5490
" />
<path d="M7.4892 3.5490
L7.3683 3.4886
" />
<path d="M8.1545 3.7305
L9.1221 3.7305
" />
<path d="M10.3921 4.2143
L9.6664 4.2143
" />
<path d="M10.0292 4.2143
L10.0292 2.9443
" />
<path d="M10.0292 2.9443
L9.9083 3.1257
" />
<path d="M9.9083 3.1257
L9.7873 3.2467
" />
<path d="M9.7873 3.2467
L9.6664 3.3071
" />
<path d="M10.9364 3.5490
L11.3597 3.5490
" />
<path d="M11.5411 4.2143
L10.9364 4.2143
" />
<path d="M10.9364 4.2143
L10.9364 2.9443
" />
<path d="M10.9364 2.9443
L11.5411 2.9443
" />
<path d="M12.0854 4.2143
L12.0854 2.9443
" />
<path d="M12.0854 2.9443
L12.5692 2.9443
" />
<path d="M12.5692 2.9443
L12.6902 3.0047
" />
<path d="M12.6902 3.0047
L12.7507 3.0652
" />
<path d="M12.7507 3.0652
L12.8111 3.1862
" />
<path d="M12.8111 3.1862
L12.8111 3.3676
" />
<path d="M12.8111 3.3676
L12.7507 3.4886
" />
<path d="M12.7507 3.4886
L12.6902 3.5490
" />
<path d="M12.6902 3.5490
L12.5692 3.6095
" />
<path d="M12.5692 3.6095
L12.0854 3.6095
" />
<path d="M13.0530 4.3352
L14.0206 4.3352
" />
<path d="M14.8673 2.9443
L14.6254 2.9443
" />
<path d="M14.6254 2.9443
L14.5045 3.0047
" />
<path d="M14.5045 3.0047
L14.4440 3.0652
" />
<path d="M14.4440 3.0652
L14.3230 3.2467
" />
<path d="M14.3230 3.2467
L14.2626 3.4886
" />
<path d="M14.2626 3.4886
L14.2626 3.9724
" />
<path d="M14.2626 3.9724
L14.3230 4.0933
" />
<path d="M14.3230 4.0933
L14.3835 4.1538
" />
<path d="M14.3835 4.1538
L14.5045 4.2143
" />
<path d="M14.5045 4.2143
L14.7464 4.2143
" />
<path d="M14.7464 4.2143
L14.8673 4.1538
" />
<path d="M14.8673 4.1538
L14.9278 4.0933
" />
<path d="M14.9278 4.0933
L14.9883 3.9724
" />
<path d="M14.9883 3.9724
L14.9883 3.6700
" />
<path d="M14.9883 3.6700
L14.9278 3.5490
" />
<path d="M14.9278 3.5490
L14.8673 3.4886
" />
<path d="M14.8673 3.4886
L14.7464 3.4281
" />
<path d="M14.7464 3.4281
L14.5045 3.4281
" />
<path d="M14.5045 3.4281
L14.3835 3.4886
" />
<path d="M14.3835 3.4886
L14.3230 3.5490
" />
<path d="M14.3230 3.5490
L14.2626 3.6700
" />
<path d="M15.4116 4.2143
L16.0768 3.3676
" />
<path d="M15.4116 3.3676
L16.0768 4.2143
" />
<path d="M17.1049 2.9443
L16.8630 2.9443
" />
<path d="M16.8630 2.9443
L16.7421 3.0047
" />
<path d="M16.7421 3.0047
L16.6816 3.0652
" />
<path d="M16.6816 3.0652
L16.5606 3.2467
" />
<path d="M16.5606 3.2467
L16.5002 3.4886
" />
<path d="M16.5002 3.4886
L16.5002 3.9724
" />
<path d="M16.5002 3.9724
L16.5606 4.0933
" />
<path d="M16.5606 4.0933
L16.6211 4.1538
" />
<path d="M16.6211 4.1538
L16.7421 4.2143
" />
<path d="M16.7421 4.2143
L16.9840 4.2143
" />
<path d="M16.9840 4.2143
L17.1049 4.1538
" />
<path d="M17.1049 4.1538
L17.1654 4.0933
" />
<path d="M17.1654 4.0933
L17.2259 3.9724
" />
<path d="M17.2259 3.9724
L17.2259 3.6700
" />
<path d="M17.2259 3.6700
L17.1654 3.5490
" />
<path d="M17.1654 3.5490
L17.1049 3.4886
" />
<path d="M17.1049 3.4886
L16.9840 3.4281
" />
<path d="M16.9840 3.4281
L16.7421 3.4281
" />
<path d="M16.7421 3.4281
L16.6211 3.4886
" />
<path d="M16.6211 3.4886
L16.5606 3.5490
" />
<path d="M16.5606 3.5490
L16.5002 3.6700
" />
<path d="M17.7702 4.2143
L17.7702 3.3676
" />
<path d="M17.7702 3.4886
L17.8306 3.4281
" />
<path d="M17.8306 3.4281
L17.9516 3.3676
" />
<path d="M17.9516 3.3676
L18.1330 3.3676
" />
<path d="M18.1330 3.3676
L18.2540 3.4281
" />
<path d="M18.2540 3.4281
L18.3145 3.5490
" />
<path d="M18.3145 3.5490
L18.3145 4.2143
" />
<path d="M18.3145 3.5490
L18.3749 3.4281
" />
<path d="M18.3749 3.4281
L18.4959 3.3676
" />
<path d="M18.4959 3.3676
L18.6773 3.3676
" />
<path d="M18.6773 3.3676
L18.7983 3.4281
" />
<path d="M18.7983 3.4281
L18.8587 3.5490
" />
<path d="M18.8587 3.5490
L18.8587 4.2143
" />
<path d="M19.4635 4.2143
L19.4635 3.3676
" />
<path d="M19.4635 3.4886
L19.5240 3.4281
" />
<path d="M19.5240 3.4281
L19.6449 3.3676
" />
<path d="M19.6449 3.3676
L19.8264 3.3676
" />
<path d="M19.8264 3.3676
L19.9473 3.4281
" />
<path d="M19.9473 3.4281
L20.0078 3.5490
" />
<path d="M20.0078 3.5490
L20.0078 4.2143
" />
<path d="M20.0078 3.5490
L20.0683 3.4281
" />
<path d="M20.0683 3.4281
L20.1892 3.3676
" />
<path d="M20.1892 3.3676
L20.3706 3.3676
" />
<path d="M20.3706 3.3676
L20.4916 3.4281
" />
<path d="M20.4916 3.4281
L20.5521 3.5490
" />
<path d="M20.5521 3.5490
L20.5521 4.2143
" />
<path d="M20.8545 4.3352
L21.8221 4.3352
" />
<path d="M22.1245 4.2143
L22.1245 2.9443
" />
<path d="M22.1245 2.9443
L22.6083 2.9443
" />
<path d="M22.6083 2.9443
L22.7292 3.0047
" />
<path d="M22.7292 3.0047
L22.7897 3.0652
" />
<path d="M22.7897 3.0652
L22.8502 3.1862
" />
<path d="M22.8502 3.1862
L22.8502 3.3676
" />
<path d="M22.8502 3.3676
L22.7897 3.4886
" />
<path d="M22.7897 3.4886
L22.7292 3.5490
" />
<path d="M22.7292 3.5490
L22.6083 3.6095
" />
<path d="M22.6083 3.6095
L22.1245 3.6095
" />
<path d="M23.6364 2.9443
L23.7573 2.9443
" />
<path d="M23.7573 2.9443
L23.8783 3.0047
" />
<path d="M23.8783 3.0047
L23.9387 3.0652
" />
<path d="M23.9387 3.0652
L23.9992 3.1862
" />
<path d="M23.9992 3.1862
L24.0597 3.4281
" />
<path d="M24.0597 3.4281
L24.0597 3.7305
" />
<path d="M24.0597 3.7305
L23.9992 3.9724
" />
<path d="M23.9992 3.9724
L23.9387 4.0933
" />
<path d="M23.9387 4.0933
L23.8783 4.1538
" />
<path d="M23.8783 4.1538
L23.7573 4.2143
" />
<path d="M23.7573 4.2143
L23.6364 4.2143
" />
<path d="M23.6364 4.2143
L23.5154 4.1538
" />
<path d="M23.5154 4.1538
L23.4549 4.0933
" />
<path d="M23.4549 4.0933
L23.3945 3.9724
" />
<path d="M23.3945 3.9724
L23.3340 3.7305
" />
<path d="M23.3340 3.7305
L23.3340 3.4281
" />
<path d="M23.3340 3.4281
L23.3945 3.1862
" />
<path d="M23.3945 3.1862
L23.4549 3.0652
" />
<path d="M23.4549 3.0652
L23.5154 3.0047
" />
<path d="M23.5154 3.0047
L23.6364 2.9443
" />
<path d="M24.6040 4.0933
L24.6645 4.1538
" />
<path d="M24.6645 4.1538
L24.6040 4.2143
" />
<path d="M24.6040 4.2143
L24.5435 4.1538
" />
<path d="M24.5435 4.1538
L24.6040 4.0933
" />
<path d="M24.6040 4.0933
L24.6040 4.2143
" />
<path d="M25.7530 2.9443
L25.5111 2.9443
" />
<path d="M25.5111 2.9443
L25.3902 3.0047
" />
<path d="M25.3902 3.0047
L25.3297 3.0652
" />
<path d="M25.3297 3.0652
L25.2087 3.2467
" />
<path d="M25.2087 3.2467
L25.1483 3.4886
" />
<path d="M25.1483 3.4886
L25.1483 3.9724
" />
<path d="M25.1483 3.9724
L25.2087 4.0933
" />
<path d="M25.2087 4.0933
L25.2692 4.1538
" />
<path d="M25.2692 4.1538
L25.3902 4.2143
" />
<path d="M25.3902 4.2143
L25.6321 4.2143
" />
<path d="M25.6321 4.2143
L25.7530 4.1538
" />
<path d="M25.7530 4.1538
L25.8135 4.0933
" />
<path d="M25.8135 4.0933
L25.8740 3.9724
" />
<path d="M25.8740 3.9724
L25.8740 3.6700
" />
<path d="M25.8740 3.6700
L25.8135 3.5490
" />
<path d="M25.8135 3.5490
L25.7530 3.4886
" />
<path d="M25.7530 3.4886
L25.6321 3.4281
" />
<path d="M25.6321 3.4281
L25.3902 3.4281
" />
<path d="M25.3902 3.4281
L25.2692 3.4886
" />
<path d="M25.2692 3.4886
L25.2087 3.5490
" />
<path d="M25.2087 3.5490
L25.1483 3.6700
" />
<path d="M27.0230 2.9443
L26.4183 2.9443
" />
<path d="M26.4183 2.9443
L26.3578 3.5490
" />
<path d="M26.3578 3.5490
L26.4183 3.4886
" />
<path d="M26.4183 3.4886
L26.5392 3.4281
" />
<path d="M26.5392 3.4281
L26.8416 3.4281
" />
<path d="M26.8416 3.4281
L26.9626 3.4886
" />
<path d="M26.9626 3.4886
L27.0230 3.5490
" />
<path d="M27.0230 3.5490
L27.0835 3.6700
" />
<path d="M27.0835 3.6700
L27.0835 3.9724
" />
<path d="M27.0835 3.9724
L27.0230 4.0933
" />
<path d="M27.0230 4.0933
L26.9626 4.1538
" />
<path d="M26.9626 4.1538
L26.8416 4.2143
" />
<path d="M26.8416 4.2143
L26.5392 4.2143
" />
<path d="M26.5392 4.2143
L26.4183 4.1538
" />
<path d="M26.4183 4.1538
L26.3578 4.0933
" />
<path d="M27.6278 4.2143
L27.6278 3.3676
" />
<path d="M27.6278 3.4886
L27.6883 3.4281
" />
<path d="M27.6883 3.4281
L27.8092 3.3676
" />
<path d="M27.8092 3.3676
L27.9906 3.3676
" />
<path d="M27.9906 3.3676
L28.1116 3.4281
" />
<path d="M28.1116 3.4281
L28.1721 3.5490
" />
<path d="M28.1721 3.5490
L28.1721 4.2143
" />
<path d="M28.1721 3.5490
L28.2326 3.4281
" />
<path d="M28.2326 3.4281
L28.3535 3.3676
" />
<path d="M28.3535 3.3676
L28.5349 3.3676
" />
<path d="M28.5349 3.3676
L28.6559 3.4281
" />
<path d="M28.6559 3.4281
L28.7164 3.5490
" />
<path d="M28.7164 3.5490
L28.7164 4.2143
" />
<path d="M29.3211 4.2143
L29.3211 3.3676
" />
<path d="M29.3211 3.4886
L29.3816 3.4281
" />
<path d="M29.3816 3.4281
L29.5026 3.3676
" />
<path d="M29.5026 3.3676
L29.6840 3.3676
" />
<path d="M29.6840 3.3676
L29.8049 3.4281
" />
<path d="M29.8049 3.4281
L29.8654 3.5490
" />
<path d="M29.8654 3.5490
L29.8654 4.2143
" />
<path d="M29.8654 3.5490
L29.9259 3.4281
" />
<path d="M29.9259 3.4281
L30.0468 3.3676
" />
<path d="M30.0468 3.3676
L30.2283 3.3676
" />
<path d="M30.2283 3.3676
L30.3492 3.4281
" />
<path d="M30.3492 3.4281
L30.4097 3.5490
" />
<path d="M30.4097 3.5490
L30.4097 4.2143
" />
<path d="M30.7121 4.3352
L31.6797 4.3352
" />
<path d="M31.9821 3.5490
L32.4054 3.5490
" />
<path d="M32.5868 4.2143
L31.9821 4.2143
" />
<path d="M31.9821 4.2143
L31.9821 2.9443
" />
<path d="M31.9821 2.9443
L32.5868 2.9443
" />
<path d="M33.1311 4.2143
L33.1311 2.9443
" />
<path d="M33.1311 2.9443
L33.6149 2.9443
" />
<path d="M33.6149 2.9443
L33.7359 3.0047
" />
<path d="M33.7359 3.0047
L33.7964 3.0652
" />
<path d="M33.7964 3.0652
L33.8568 3.1862
" />
<path d="M33.8568 3.1862
L33.8568 3.3676
" />
<path d="M33.8568 3.3676
L33.7964 3.4886
" />
<path d="M33.7964 3.4886
L33.7359 3.5490
" />
<path d="M33.7359 3.5490
L33.6149 3.6095
" />
<path d="M33.6149 3.6095
L33.1311 3.6095
" />
<path d="M34.9454 3.3676
L34.9454 4.2143
" />
<path d="M34.6430 2.8838
L34.3406 3.7909
" />
<path d="M34.3406 3.7909
L35.1268 3.7909
" />
<path d="M35.6106 4.0933
L35.6711 4.1538
" />
<path d="M35.6711 4.1538
L35.6106 4.2143
" />
<path d="M35.6106 4.2143
L35.5502 4.1538
" />
<path d="M35.5502 4.1538
L35.6106 4.0933
" />
<path d="M35.6106 4.0933
L35.6106 4.2143
" />
<path d="M36.1549 3.0652
L36.2154 3.0047
" />
<path d="M36.2154 3.0047
L36.3364 2.9443
" />
<path d="M36.3364 2.9443
L36.6387 2.9443
" />
<path d="M36.6387 2.9443
L36.7597 3.0047
" />
<path d="M36.7597 3.0047
L36.8202 3.0652
" />
<path d="M36.8202 3.0652
L36.8806 3.1862
" />
<path d="M36.8806 3.1862
L36.8806 3.3071
" />
<path d="M36.8806 3.3071
L36.8202 3.4886
" />
<path d="M36.8202 3.4886
L36.0945 4.2143
" />
<path d="M36.0945 4.2143
L36.8806 4.2143
" />
<path d="M38.0297 2.9443
L37.4249 2.9443
" />
<path d="M37.4249 2.9443
L37.3645 3.5490
" />
<path d="M37.3645 3.5490
L37.4249 3.4886
" />
<path d="M37.4249 3.4886
L37.5459 3.4281
" />
<path d="M37.5459 3.4281
L37.8483 3.4281
" />
<path d="M37.8483 3.4281
L37.9692 3.4886
" />
<path d="M37.9692 3.4886
L38.0297 3.5490
" />
<path d="M38.0297 3.5490
L38.0902 3.6700
" />
<path d="M38.0902 3.6700
L38.0902 3.9724
" />
<path d="M38.0902 3.9724
L38.0297 4.0933
" />
<path d="M38.0297 4.0933
L37.9692 4.1538
" />
<path d="M37.9692 4.1538
L37.8483 4.2143
" />
<path d="M37.8483 4.2143
L37.5459 4.2143
" />
<path d="M37.5459 4.2143
L37.4249 4.1538
" />
<path d="M37.4249 4.1538
L37.3645 4.0933
" />
<path d="M38.5135 4.2143
L39.1787 3.3676
" />
<path d="M38.5135 3.3676
L39.1787 4.2143
" />
<path d="M40.2068 3.3676
L40.2068 4.2143
" />
<path d="M39.9045 2.8838
L39.6021 3.7909
" />
<path d="M39.6021 3.7909
L40.3883 3.7909
" />
<path d="M40.8721 4.0933
L40.9326 4.1538
" />
<path d="M40.9326 4.1538
L40.8721 4.2143
" />
<path d="M40.8721 4.2143
L40.8116 4.1538
" />
<path d="M40.8116 4.1538
L40.8721 4.0933
" />
<path d="M40.8721 4.0933
L40.8721 4.2143
" />
<path d="M41.4164 3.0652
L41.4768 3.0047
" />
<path d="M41.4768 3.0047
L41.5978 2.9443
" />
<path d="M41.5978 2.9443
L41.9002 2.9443
" />
<path d="M41.9002 2.9443
L42.0211 3.0047
" />
<path d="M42.0211 3.0047
L42.0816 3.0652
" />
<path d="M42.0816 3.0652
L42.1421 3.1862
" />
<path d="M42.1421 3.1862
L42.1421 3.3071
" />
<path d="M42.1421 3.3071
L42.0816 3.4886
" />
<path d="M42.0816 3.4886
L41.3559 4.2143
" />
<path d="M41.3559 4.2143
L42.1421 4.2143
" />
<path d="M43.2911 2.9443
L42.6864 2.9443
" />
<path d="M42.6864 2.9443
L42.6259 3.5490
" />
<path d="M42.6259 3.5490
L42.6864 3.4886
" />
<path d="M42.6864 3.4886
L42.8073 3.4281
" />
<path d="M42.8073 3.4281
L43.1097 3.4281
" />
<path d="M43.1097 3.4281
L43.2306 3.4886
" />
<path d="M43.2306 3.4886
L43.2911 3.5490
" />
<path d="M43.2911 3.5490
L43.3516 3.6700
" />
<path d="M43.3516 3.6700
L43.3516 3.9724
" />
<path d="M43.3516 3.9724
L43.2911 4.0933
" />
<path d="M43.2911 4.0933
L43.2306 4.1538
" />
<path d="M43.2306 4.1538
L43.1097 4.2143
" />
<path d="M43.1097 4.2143
L42.8073 4.2143
" />
<path d="M42.8073 4.2143
L42.6864 4.1538
" />
<path d="M42.6864 4.1538
L42.6259 4.0933
" />
<path d="M43.8959 4.2143
L43.8959 3.3676
" />
<path d="M43.8959 3.4886
L43.9564 3.4281
" />
<path d="M43.9564 3.4281
L44.0773 3.3676
" />
<path d="M44.0773 3.3676
L44.2587 3.3676
" />
<path d="M44.2587 3.3676
L44.3797 3.4281
" />
<path d="M44.3797 3.4281
L44.4402 3.5490
" />
<path d="M44.4402 3.5490
L44.4402 4.2143
" />
<path d="M44.4402 3.5490
L44.5006 3.4281
" />
<path d="M44.5006 3.4281
L44.6216 3.3676
" />
<path d="M44.6216 3.3676
L44.8030 3.3676
" />
<path d="M44.8030 3.3676
L44.9240 3.4281
" />
<path d="M44.9240 3.4281
L44.9845 3.5490
" />
<path d="M44.9845 3.5490
L44.9845 4.2143
" />
<path d="M45.5892 4.2143
L45.5892 3.3676
" />
<path d="M45.5892 3.4886
L45.6497 3.4281
" />
<path d="M45.6497 3.4281
L45.7706 3.3676
" />
<path d="M45.7706 3.3676
L45.9521 3.3676
" />
<path d="M45.9521 3.3676
L46.0730 3.4281
" />
<path d="M46.0730 3.4281
L46.1335 3.5490
" />
<path d="M46.1335 3.5490
L46.1335 4.2143
" />
<path d="M46.1335 3.5490
L46.1940 3.4281
" />
<path d="M46.1940 3.4281
L46.3149 3.3676
" />
<path d="M46.3149 3.3676
L46.4964 3.3676
" />
<path d="M46.4964 3.3676
L46.6173 3.4281
" />
<path d="M46.6173 3.4281
L46.6778 3.5490
" />
<path d="M46.6778 3.5490
L46.6778 4.2143
" />
<path d="M46.9802 4.3352
L47.9478 4.3352
" />
<path d="M48.0687 2.9443
L48.7945 2.9443
" />
<path d="M48.4316 4.2143
L48.4316 2.9443
" />
<path d="M49.2178 4.2143
L49.2178 2.9443
" />
<path d="M49.7621 4.2143
L49.7621 3.5490
" />
<path d="M49.7621 3.5490
L49.7016 3.4281
" />
<path d="M49.7016 3.4281
L49.5806 3.3676
" />
<path d="M49.5806 3.3676
L49.3992 3.3676
" />
<path d="M49.3992 3.3676
L49.2783 3.4281
" />
<path d="M49.2783 3.4281
L49.2178 3.4886
" />
<path d="M50.8506 4.1538
L50.7297 4.2143
" />
<path d="M50.7297 4.2143
L50.4878 4.2143
" />
<path d="M50.4878 4.2143
L50.3668 4.1538
" />
<path d="M50.3668 4.1538
L50.3064 4.0328
" />
<path d="M50.3064 4.0328
L50.3064 3.5490
" />
<path d="M50.3064 3.5490
L50.3668 3.4281
" />
<path d="M50.3668 3.4281
L50.4878 3.3676
" />
<path d="M50.4878 3.3676
L50.7297 3.3676
" />
<path d="M50.7297 3.3676
L50.8506 3.4281
" />
<path d="M50.8506 3.4281
L50.9111 3.5490
" />
<path d="M50.9111 3.5490
L50.9111 3.6700
" />
<path d="M50.9111 3.6700
L50.3064 3.7909
" />
<path d="M51.4554 4.2143
L51.4554 3.3676
" />
<path d="M51.4554 3.6095
L51.5159 3.4886
" />
<path d="M51.5159 3.4886
L51.5764 3.4281
" />
<path d="M51.5764 3.4281
L51.6973 3.3676
" />
<path d="M51.6973 3.3676
L51.8183 3.3676
" />
<path d="M52.2416 4.2143
L52.2416 3.3676
" />
<path d="M52.2416 3.4886
L52.3021 3.4281
" />
<path d="M52.3021 3.4281
L52.4230 3.3676
" />
<path d="M52.4230 3.3676
L52.6045 3.3676
" />
<path d="M52.6045 3.3676
L52.7254 3.4281
" />
<path d="M52.7254 3.4281
L52.7859 3.5490
" />
<path d="M52.7859 3.5490
L52.7859 4.2143
" />
<path d="M52.7859 3.5490
L52.8464 3.4281
" />
<path d="M52.8464 3.4281
L52.9673 3.3676
" />
<path d="M52.9673 3.3676
L53.1487 3.3676
" />
<path d="M53.1487 3.3676
L53.2697 3.4281
" />
<path d="M53.2697 3.4281
L53.3302 3.5490
" />
<path d="M53.3302 3.5490
L53.3302 4.2143
" />
<path d="M54.4792 4.2143
L54.4792 3.5490
" />
<path d="M54.4792 3.5490
L54.4187 3.4281
" />
<path d="M54.4187 3.4281
L54.2978 3.3676
" />
<path d="M54.2978 3.3676
L54.0559 3.3676
" />
<path d="M54.0559 3.3676
L53.9349 3.4281
" />
<path d="M54.4792 4.1538
L54.3583 4.2143
" />
<path d="M54.3583 4.2143
L54.0559 4.2143
" />
<path d="M54.0559 4.2143
L53.9349 4.1538
" />
<path d="M53.9349 4.1538
L53.8745 4.0328
" />
<path d="M53.8745 4.0328
L53.8745 3.9119
" />
<path d="M53.8745 3.9119
L53.9349 3.7909
" />
<path d="M53.9349 3.7909
L54.0559 3.7305
" />
<path d="M54.0559 3.7305
L54.3583 3.7305
" />
<path d="M54.3583 3.7305
L54.4792 3.6700
" />
<path d="M55.2654 4.2143
L55.1445 4.1538
" />
<path d="M55.1445 4.1538
L55.0840 4.0328
" />
<path d="M55.0840 4.0328
L55.0840 2.9443
" />
<path d="M55.5678 2.9443
L55.9911 4.2143
" />
<path d="M55.9911 4.2143
L56.4145 2.9443
" />
<path d="M56.8378 4.2143
L56.8378 3.3676
" />
<path d="M56.8378 2.9443
L56.7773 3.0047
" />
<path d="M56.7773 3.0047
L56.8378 3.0652
" />
<path d="M56.8378 3.0652
L56.8983 3.0047
" />
<path d="M56.8983 3.0047
L56.8378 2.9443
" />
<path d="M56.8378 2.9443
L56.8378 3.0652
" />
<path d="M57.9868 4.2143
L57.9868 3.5490
" />
<path d="M57.9868 3.5490
L57.9264 3.4281
" />
<path d="M57.9264 3.4281
L57.8054 3.3676
" />
<path d="M57.8054 3.3676
L57.5635 3.3676
" />
<path d="M57.5635 3.3676
L57.4426 3.4281
" />
<path d="M57.9868 4.1538
L57.8659 4.2143
" />
<path d="M57.8659 4.2143
L57.5635 4.2143
" />
<path d="M57.5635 4.2143
L57.4426 4.1538
" />
<path d="M57.4426 4.1538
L57.3821 4.0328
" />
<path d="M57.3821 4.0328
L57.3821 3.9119
" />
<path d="M57.3821 3.9119
L57.4426 3.7909
" />
<path d="M57.4426 3.7909
L57.5635 3.7305
" />
<path d="M57.5635 3.7305
L57.8659 3.7305
" />
<path d="M57.8659 3.7305
L57.9868 3.6700
" />
<path d="M58.5311 4.1538
L58.6521 4.2143
" />
<path d="M58.6521 4.2143
L58.8940 4.2143
" />
<path d="M58.8940 4.2143
L59.0149 4.1538
" />
<path d="M59.0149 4.1538
L59.0754 4.0328
" />
<path d="M59.0754 4.0328
L59.0754 3.9724
" />
<path d="M59.0754 3.9724
L59.0149 3.8514
" />
<path d="M59.0149 3.8514
L58.8940 3.7909
" />
<path d="M58.8940 3.7909
L58.7126 3.7909
" />
<path d="M58.7126 3.7909
L58.5916 3.7305
" />
<path d="M58.5916 3.7305
L58.5311 3.6095
" />
<path d="M58.5311 3.6095
L58.5311 3.5490
" />
<path d="M58.5311 3.5490
L58.5916 3.4281
" />
<path d="M58.5916 3.4281
L58.7126 3.3676
" />
<path d="M58.7126 3.3676
L58.8940 3.3676
" />
<path d="M58.8940 3.3676
L59.0149 3.4281
" />
</g></g>
<g style="fill:none; 
stroke:#AFAFAF; stroke-width:0.1500; stroke-opacity:1; 
stroke-linecap:round; stroke-linejoin:round;">
<text x="29.7142" y="4.1350"
textLength="4.5357" font-size="1.3333" lengthAdjust="spacingAndGlyphs"
text-anchor="middle" opacity="0">REF**</text>
<g class="stroked-text"><desc>REF**</desc>
<path d="M28.3809 4.0898
L28.0476 3.6136
" />
<path d="M27.8095 4.0898
L27.8095 3.0898
" />
<path d="M27.8095 3.0898
L28.1904 3.0898
" />
<path d="M28.1904 3.0898
L28.2856 3.1374
" />
<path d="M28.2856 3.1374
L28.3333 3.1851
" />
<path d="M28.3333 3.1851
L28.3809 3.2803
" />
<path d="M28.3809 3.2803
L28.3809 3.4232
" />
<path d="M28.3809 3.4232
L28.3333 3.5184
" />
<path d="M28.3333 3.5184
L28.2856 3.5660
" />
<path d="M28.2856 3.5660
L28.1904 3.6136
" />
<path d="M28.1904 3.6136
L27.8095 3.6136
" />
<path d="M28.8095 3.5660
L29.1428 3.5660
" />
<path d="M29.2856 4.0898
L28.8095 4.0898
" />
<path d="M28.8095 4.0898
L28.8095 3.0898
" />
<path d="M28.8095 3.0898
L29.2856 3.0898
" />
<path d="M30.0476 3.5660
L29.7142 3.5660
" />
<path d="M29.7142 4.0898
L29.7142 3.0898
" />
<path d="M29.7142 3.0898
L30.1904 3.0898
" />
<path d="M30.7142 3.0898
L30.7142 3.3279
" />
<path d="M30.4761 3.2327
L30.7142 3.3279
" />
<path d="M30.7142 3.3279
L30.9523 3.2327
" />
<path d="M30.5714 3.5184
L30.7142 3.3279
" />
<path d="M30.7142 3.3279
L30.8571 3.5184
" />
<path d="M31.4761 3.0898
L31.4761 3.3279
" />
<path d="M31.2380 3.2327
L31.4761 3.3279
" />
<path d="M31.4761 3.3279
L31.7142 3.2327
" />
<path d="M31.3333 3.5184
L31.4761 3.3279
" />
<path d="M31.4761 3.3279
L31.6190 3.5184
" />
</g></g>
<g style="fill:none; 
stroke:#AFAFAF; stroke-width:0.1000; stroke-opacity:1; 
stroke-linecap:round; stroke-linejoin:round;">
<path d="M26.7142 1.6350
L27.7142 0.6350
" />
<path d="M26.7142 6.6350
L26.7142 1.6350
" />
<path d="M27.7142 0.6350
L32.7142 0.6350
" />
<path d="M32.7142 0.6350
L32.7142 6.6350
" />
<path d="M32.7142 6.6350
L26.7142 6.6350
" />
</g> 
</svg>
