<?xml version="1.0" standalone="no"?>
 <!DOCTYPE svg PUBLIC "-//W3C//DTD SVG 1.1//EN" 
 "http://www.w3.org/Graphics/SVG/1.1/DTD/svg11.dtd"> 
<svg
  xmlns:svg="http://www.w3.org/2000/svg"
  xmlns="http://www.w3.org/2000/svg"
  xmlns:xlink="http://www.w3.org/1999/xlink"
  version="1.1"
  width="27.7876mm" height="17.3990mm" viewBox="0.0000 0.0000 27.7876 17.3990">
<title>SVG Image created as working-brd.svg date 2024/04/21 17:56:43 </title>
  <desc>Image generated by PCBNEW </desc>
<g style="fill:#000000; fill-opacity:1.0000;stroke:#000000; stroke-opacity:1.0000;
stroke-linecap:round; stroke-linejoin:round;"
 transform="translate(0 0) scale(1 1)">
<path style="fill:#C83434; fill-opacity:1.0000; stroke:none;fill-rule:evenodd;"
d="M 5.4747,2.5675
5.4852,2.5149
5.5150,2.4703
5.5596,2.4405
5.6122,2.4300
6.8372,2.4300
6.8898,2.4405
6.9344,2.4703
6.9642,2.5149
6.9747,2.5675
6.9747,2.8425
6.9642,2.8951
6.9344,2.9397
6.8898,2.9695
6.8372,2.9800
5.6122,2.9800
5.5596,2.9695
5.5150,2.9397
5.4852,2.8951
5.4747,2.8425
Z" /> 
<path style="fill:#C83434; fill-opacity:1.0000; stroke:none;fill-rule:evenodd;"
d="M 5.4747,3.3675
5.4852,3.3149
5.5150,3.2703
5.5596,3.2405
5.6122,3.2300
6.8372,3.2300
6.8898,3.2405
6.9344,3.2703
6.9642,3.3149
6.9747,3.3675
6.9747,3.6425
6.9642,3.6951
6.9344,3.7397
6.8898,3.7695
6.8372,3.7800
5.6122,3.7800
5.5596,3.7695
5.5150,3.7397
5.4852,3.6951
5.4747,3.6425
Z" /> 
<path style="fill:#C83434; fill-opacity:1.0000; stroke:none;fill-rule:evenodd;"
d="M 5.4747,4.1675
5.4852,4.1149
5.5150,4.0703
5.5596,4.0405
5.6122,4.0300
6.8372,4.0300
6.8898,4.0405
6.9344,4.0703
6.9642,4.1149
6.9747,4.1675
6.9747,4.4425
6.9642,4.4951
6.9344,4.5397
6.8898,4.5695
6.8372,4.5800
5.6122,4.5800
5.5596,4.5695
5.5150,4.5397
5.4852,4.4951
5.4747,4.4425
Z" /> 
<path style="fill:#C83434; fill-opacity:1.0000; stroke:none;fill-rule:evenodd;"
d="M 5.4747,4.9675
5.4852,4.9149
5.5150,4.8703
5.5596,4.8405
5.6122,4.8300
6.8372,4.8300
6.8898,4.8405
6.9344,4.8703
6.9642,4.9149
6.9747,4.9675
6.9747,5.2425
6.9642,5.2951
6.9344,5.3397
6.8898,5.3695
6.8372,5.3800
5.6122,5.3800
5.5596,5.3695
5.5150,5.3397
5.4852,5.2951
5.4747,5.2425
Z" /> 
<path style="fill:#C83434; fill-opacity:1.0000; stroke:none;fill-rule:evenodd;"
d="M 5.4747,5.7675
5.4852,5.7149
5.5150,5.6703
5.5596,5.6405
5.6122,5.6300
6.8372,5.6300
6.8898,5.6405
6.9344,5.6703
6.9642,5.7149
6.9747,5.7675
6.9747,6.0425
6.9642,6.0951
6.9344,6.1397
6.8898,6.1695
6.8372,6.1800
5.6122,6.1800
5.5596,6.1695
5.5150,6.1397
5.4852,6.0951
5.4747,6.0425
Z" /> 
<path style="fill:#C83434; fill-opacity:1.0000; stroke:none;fill-rule:evenodd;"
d="M 5.4747,6.5675
5.4852,6.5149
5.5150,6.4703
5.5596,6.4405
5.6122,6.4300
6.8372,6.4300
6.8898,6.4405
6.9344,6.4703
6.9642,6.5149
6.9747,6.5675
6.9747,6.8425
6.9642,6.8951
6.9344,6.9397
6.8898,6.9695
6.8372,6.9800
5.6122,6.9800
5.5596,6.9695
5.5150,6.9397
5.4852,6.8951
5.4747,6.8425
Z" /> 
<path style="fill:#C83434; fill-opacity:1.0000; stroke:none;fill-rule:evenodd;"
d="M 5.4747,7.3675
5.4852,7.3149
5.5150,7.2703
5.5596,7.2405
5.6122,7.2300
6.8372,7.2300
6.8898,7.2405
6.9344,7.2703
6.9642,7.3149
6.9747,7.3675
6.9747,7.6425
6.9642,7.6951
6.9344,7.7397
6.8898,7.7695
6.8372,7.7800
5.6122,7.7800
5.5596,7.7695
5.5150,7.7397
5.4852,7.6951
5.4747,7.6425
Z" /> 
<path style="fill:#C83434; fill-opacity:1.0000; stroke:none;fill-rule:evenodd;"
d="M 5.4747,8.1675
5.4852,8.1149
5.5150,8.0703
5.5596,8.0405
5.6122,8.0300
6.8372,8.0300
6.8898,8.0405
6.9344,8.0703
6.9642,8.1149
6.9747,8.1675
6.9747,8.4425
6.9642,8.4951
6.9344,8.5397
6.8898,8.5695
6.8372,8.5800
5.6122,8.5800
5.5596,8.5695
5.5150,8.5397
5.4852,8.4951
5.4747,8.4425
Z" /> 
<path style="fill:#C83434; fill-opacity:1.0000; stroke:none;fill-rule:evenodd;"
d="M 5.4747,8.9675
5.4852,8.9149
5.5150,8.8703
5.5596,8.8405
5.6122,8.8300
6.8372,8.8300
6.8898,8.8405
6.9344,8.8703
6.9642,8.9149
6.9747,8.9675
6.9747,9.2425
6.9642,9.2951
6.9344,9.3397
6.8898,9.3695
6.8372,9.3800
5.6122,9.3800
5.5596,9.3695
5.5150,9.3397
5.4852,9.2951
5.4747,9.2425
Z" /> 
<path style="fill:#C83434; fill-opacity:1.0000; stroke:none;fill-rule:evenodd;"
d="M 5.4747,9.7675
5.4852,9.7149
5.5150,9.6703
5.5596,9.6405
5.6122,9.6300
6.8372,9.6300
6.8898,9.6405
6.9344,9.6703
6.9642,9.7149
6.9747,9.7675
6.9747,10.0425
6.9642,10.0951
6.9344,10.1397
6.8898,10.1695
6.8372,10.1800
5.6122,10.1800
5.5596,10.1695
5.5150,10.1397
5.4852,10.0951
5.4747,10.0425
Z" /> 
<path style="fill:#C83434; fill-opacity:1.0000; stroke:none;fill-rule:evenodd;"
d="M 5.4747,10.5675
5.4852,10.5149
5.5150,10.4703
5.5596,10.4405
5.6122,10.4300
6.8372,10.4300
6.8898,10.4405
6.9344,10.4703
6.9642,10.5149
6.9747,10.5675
6.9747,10.8425
6.9642,10.8951
6.9344,10.9397
6.8898,10.9695
6.8372,10.9800
5.6122,10.9800
5.5596,10.9695
5.5150,10.9397
5.4852,10.8951
5.4747,10.8425
Z" /> 
<path style="fill:#C83434; fill-opacity:1.0000; stroke:none;fill-rule:evenodd;"
d="M 5.4747,11.3675
5.4852,11.3149
5.5150,11.2703
5.5596,11.2405
5.6122,11.2300
6.8372,11.2300
6.8898,11.2405
6.9344,11.2703
6.9642,11.3149
6.9747,11.3675
6.9747,11.6425
6.9642,11.6951
6.9344,11.7397
6.8898,11.7695
6.8372,11.7800
5.6122,11.7800
5.5596,11.7695
5.5150,11.7397
5.4852,11.6951
5.4747,11.6425
Z" /> 
<path style="fill:#C83434; fill-opacity:1.0000; stroke:none;fill-rule:evenodd;"
d="M 5.4747,12.1675
5.4852,12.1149
5.5150,12.0703
5.5596,12.0405
5.6122,12.0300
6.8372,12.0300
6.8898,12.0405
6.9344,12.0703
6.9642,12.1149
6.9747,12.1675
6.9747,12.4425
6.9642,12.4951
6.9344,12.5397
6.8898,12.5695
6.8372,12.5800
5.6122,12.5800
5.5596,12.5695
5.5150,12.5397
5.4852,12.4951
5.4747,12.4425
Z" /> 
<path style="fill:#C83434; fill-opacity:1.0000; stroke:none;fill-rule:evenodd;"
d="M 5.4747,12.9675
5.4852,12.9149
5.5150,12.8703
5.5596,12.8405
5.6122,12.8300
6.8372,12.8300
6.8898,12.8405
6.9344,12.8703
6.9642,12.9149
6.9747,12.9675
6.9747,13.2425
6.9642,13.2951
6.9344,13.3397
6.8898,13.3695
6.8372,13.3800
5.6122,13.3800
5.5596,13.3695
5.5150,13.3397
5.4852,13.2951
5.4747,13.2425
Z" /> 
<path style="fill:#C83434; fill-opacity:1.0000; stroke:none;fill-rule:evenodd;"
d="M 5.4747,13.7675
5.4852,13.7149
5.5150,13.6703
5.5596,13.6405
5.6122,13.6300
6.8372,13.6300
6.8898,13.6405
6.9344,13.6703
6.9642,13.7149
6.9747,13.7675
6.9747,14.0425
6.9642,14.0951
6.9344,14.1397
6.8898,14.1695
6.8372,14.1800
5.6122,14.1800
5.5596,14.1695
5.5150,14.1397
5.4852,14.0951
5.4747,14.0425
Z" /> 
<path style="fill:#C83434; fill-opacity:1.0000; stroke:none;fill-rule:evenodd;"
d="M 5.4747,14.5675
5.4852,14.5149
5.5150,14.4703
5.5596,14.4405
5.6122,14.4300
6.8372,14.4300
6.8898,14.4405
6.9344,14.4703
6.9642,14.5149
6.9747,14.5675
6.9747,14.8425
6.9642,14.8951
6.9344,14.9397
6.8898,14.9695
6.8372,14.9800
5.6122,14.9800
5.5596,14.9695
5.5150,14.9397
5.4852,14.8951
5.4747,14.8425
Z" /> 
<path style="fill:#C83434; fill-opacity:1.0000; stroke:none;fill-rule:evenodd;"
d="M 7.6247,15.7675
7.6352,15.7149
7.6650,15.6703
7.7096,15.6405
7.7622,15.6300
8.0372,15.6300
8.0898,15.6405
8.1344,15.6703
8.1642,15.7149
8.1747,15.7675
8.1747,16.9925
8.1642,17.0451
8.1344,17.0897
8.0898,17.1195
8.0372,17.1300
7.7622,17.1300
7.7096,17.1195
7.6650,17.0897
7.6352,17.0451
7.6247,16.9925
Z" /> 
<path style="fill:#C83434; fill-opacity:1.0000; stroke:none;fill-rule:evenodd;"
d="M 8.4247,15.7675
8.4352,15.7149
8.4650,15.6703
8.5096,15.6405
8.5622,15.6300
8.8372,15.6300
8.8898,15.6405
8.9344,15.6703
8.9642,15.7149
8.9747,15.7675
8.9747,16.9925
8.9642,17.0451
8.9344,17.0897
8.8898,17.1195
8.8372,17.1300
8.5622,17.1300
8.5096,17.1195
8.4650,17.0897
8.4352,17.0451
8.4247,16.9925
Z" /> 
<path style="fill:#C83434; fill-opacity:1.0000; stroke:none;fill-rule:evenodd;"
d="M 9.2247,15.7675
9.2352,15.7149
9.2650,15.6703
9.3096,15.6405
9.3622,15.6300
9.6372,15.6300
9.6898,15.6405
9.7344,15.6703
9.7642,15.7149
9.7747,15.7675
9.7747,16.9925
9.7642,17.0451
9.7344,17.0897
9.6898,17.1195
9.6372,17.1300
9.3622,17.1300
9.3096,17.1195
9.2650,17.0897
9.2352,17.0451
9.2247,16.9925
Z" /> 
<path style="fill:#C83434; fill-opacity:1.0000; stroke:none;fill-rule:evenodd;"
d="M 10.0247,15.7675
10.0352,15.7149
10.0650,15.6703
10.1096,15.6405
10.1622,15.6300
10.4372,15.6300
10.4898,15.6405
10.5344,15.6703
10.5642,15.7149
10.5747,15.7675
10.5747,16.9925
10.5642,17.0451
10.5344,17.0897
10.4898,17.1195
10.4372,17.1300
10.1622,17.1300
10.1096,17.1195
10.0650,17.0897
10.0352,17.0451
10.0247,16.9925
Z" /> 
<path style="fill:#C83434; fill-opacity:1.0000; stroke:none;fill-rule:evenodd;"
d="M 10.8247,15.7675
10.8352,15.7149
10.8650,15.6703
10.9096,15.6405
10.9622,15.6300
11.2372,15.6300
11.2898,15.6405
11.3344,15.6703
11.3642,15.7149
11.3747,15.7675
11.3747,16.9925
11.3642,17.0451
11.3344,17.0897
11.2898,17.1195
11.2372,17.1300
10.9622,17.1300
10.9096,17.1195
10.8650,17.0897
10.8352,17.0451
10.8247,16.9925
Z" /> 
<path style="fill:#C83434; fill-opacity:1.0000; stroke:none;fill-rule:evenodd;"
d="M 11.6247,15.7675
11.6352,15.7149
11.6650,15.6703
11.7096,15.6405
11.7622,15.6300
12.0372,15.6300
12.0898,15.6405
12.1344,15.6703
12.1642,15.7149
12.1747,15.7675
12.1747,16.9925
12.1642,17.0451
12.1344,17.0897
12.0898,17.1195
12.0372,17.1300
11.7622,17.1300
11.7096,17.1195
11.6650,17.0897
11.6352,17.0451
11.6247,16.9925
Z" /> 
<path style="fill:#C83434; fill-opacity:1.0000; stroke:none;fill-rule:evenodd;"
d="M 12.4247,15.7675
12.4352,15.7149
12.4650,15.6703
12.5096,15.6405
12.5622,15.6300
12.8372,15.6300
12.8898,15.6405
12.9344,15.6703
12.9642,15.7149
12.9747,15.7675
12.9747,16.9925
12.9642,17.0451
12.9344,17.0897
12.8898,17.1195
12.8372,17.1300
12.5622,17.1300
12.5096,17.1195
12.4650,17.0897
12.4352,17.0451
12.4247,16.9925
Z" /> 
<path style="fill:#C83434; fill-opacity:1.0000; stroke:none;fill-rule:evenodd;"
d="M 13.2247,15.7675
13.2352,15.7149
13.2650,15.6703
13.3096,15.6405
13.3622,15.6300
13.6372,15.6300
13.6898,15.6405
13.7344,15.6703
13.7642,15.7149
13.7747,15.7675
13.7747,16.9925
13.7642,17.0451
13.7344,17.0897
13.6898,17.1195
13.6372,17.1300
13.3622,17.1300
13.3096,17.1195
13.2650,17.0897
13.2352,17.0451
13.2247,16.9925
Z" /> 
<path style="fill:#C83434; fill-opacity:1.0000; stroke:none;fill-rule:evenodd;"
d="M 14.0247,15.7675
14.0352,15.7149
14.0650,15.6703
14.1096,15.6405
14.1622,15.6300
14.4372,15.6300
14.4898,15.6405
14.5344,15.6703
14.5642,15.7149
14.5747,15.7675
14.5747,16.9925
14.5642,17.0451
14.5344,17.0897
14.4898,17.1195
14.4372,17.1300
14.1622,17.1300
14.1096,17.1195
14.0650,17.0897
14.0352,17.0451
14.0247,16.9925
Z" /> 
<path style="fill:#C83434; fill-opacity:1.0000; stroke:none;fill-rule:evenodd;"
d="M 14.8247,15.7675
14.8352,15.7149
14.8650,15.6703
14.9096,15.6405
14.9622,15.6300
15.2372,15.6300
15.2898,15.6405
15.3344,15.6703
15.3642,15.7149
15.3747,15.7675
15.3747,16.9925
15.3642,17.0451
15.3344,17.0897
15.2898,17.1195
15.2372,17.1300
14.9622,17.1300
14.9096,17.1195
14.8650,17.0897
14.8352,17.0451
14.8247,16.9925
Z" /> 
<path style="fill:#C83434; fill-opacity:1.0000; stroke:none;fill-rule:evenodd;"
d="M 15.6247,15.7675
15.6352,15.7149
15.6650,15.6703
15.7096,15.6405
15.7622,15.6300
16.0372,15.6300
16.0898,15.6405
16.1344,15.6703
16.1642,15.7149
16.1747,15.7675
16.1747,16.9925
16.1642,17.0451
16.1344,17.0897
16.0898,17.1195
16.0372,17.1300
15.7622,17.1300
15.7096,17.1195
15.6650,17.0897
15.6352,17.0451
15.6247,16.9925
Z" /> 
<path style="fill:#C83434; fill-opacity:1.0000; stroke:none;fill-rule:evenodd;"
d="M 16.4247,15.7675
16.4352,15.7149
16.4650,15.6703
16.5096,15.6405
16.5622,15.6300
16.8372,15.6300
16.8898,15.6405
16.9344,15.6703
16.9642,15.7149
16.9747,15.7675
16.9747,16.9925
16.9642,17.0451
16.9344,17.0897
16.8898,17.1195
16.8372,17.1300
16.5622,17.1300
16.5096,17.1195
16.4650,17.0897
16.4352,17.0451
16.4247,16.9925
Z" /> 
<path style="fill:#C83434; fill-opacity:1.0000; stroke:none;fill-rule:evenodd;"
d="M 17.2247,15.7675
17.2352,15.7149
17.2650,15.6703
17.3096,15.6405
17.3622,15.6300
17.6372,15.6300
17.6898,15.6405
17.7344,15.6703
17.7642,15.7149
17.7747,15.7675
17.7747,16.9925
17.7642,17.0451
17.7344,17.0897
17.6898,17.1195
17.6372,17.1300
17.3622,17.1300
17.3096,17.1195
17.2650,17.0897
17.2352,17.0451
17.2247,16.9925
Z" /> 
<path style="fill:#C83434; fill-opacity:1.0000; stroke:none;fill-rule:evenodd;"
d="M 18.0247,15.7675
18.0352,15.7149
18.0650,15.6703
18.1096,15.6405
18.1622,15.6300
18.4372,15.6300
18.4898,15.6405
18.5344,15.6703
18.5642,15.7149
18.5747,15.7675
18.5747,16.9925
18.5642,17.0451
18.5344,17.0897
18.4898,17.1195
18.4372,17.1300
18.1622,17.1300
18.1096,17.1195
18.0650,17.0897
18.0352,17.0451
18.0247,16.9925
Z" /> 
<path style="fill:#C83434; fill-opacity:1.0000; stroke:none;fill-rule:evenodd;"
d="M 18.8247,15.7675
18.8352,15.7149
18.8650,15.6703
18.9096,15.6405
18.9622,15.6300
19.2372,15.6300
19.2898,15.6405
19.3344,15.6703
19.3642,15.7149
19.3747,15.7675
19.3747,16.9925
19.3642,17.0451
19.3344,17.0897
19.2898,17.1195
19.2372,17.1300
18.9622,17.1300
18.9096,17.1195
18.8650,17.0897
18.8352,17.0451
18.8247,16.9925
Z" /> 
<path style="fill:#C83434; fill-opacity:1.0000; stroke:none;fill-rule:evenodd;"
d="M 19.6247,15.7675
19.6352,15.7149
19.6650,15.6703
19.7096,15.6405
19.7622,15.6300
20.0372,15.6300
20.0898,15.6405
20.1344,15.6703
20.1642,15.7149
20.1747,15.7675
20.1747,16.9925
20.1642,17.0451
20.1344,17.0897
20.0898,17.1195
20.0372,17.1300
19.7622,17.1300
19.7096,17.1195
19.6650,17.0897
19.6352,17.0451
19.6247,16.9925
Z" /> 
<path style="fill:#C83434; fill-opacity:1.0000; stroke:none;fill-rule:evenodd;"
d="M 20.8247,14.5675
20.8352,14.5149
20.8650,14.4703
20.9096,14.4405
20.9622,14.4300
22.1872,14.4300
22.2398,14.4405
22.2844,14.4703
22.3142,14.5149
22.3247,14.5675
22.3247,14.8425
22.3142,14.8951
22.2844,14.9397
22.2398,14.9695
22.1872,14.9800
20.9622,14.9800
20.9096,14.9695
20.8650,14.9397
20.8352,14.8951
20.8247,14.8425
Z" /> 
<path style="fill:#C83434; fill-opacity:1.0000; stroke:none;fill-rule:evenodd;"
d="M 20.8247,13.7675
20.8352,13.7149
20.8650,13.6703
20.9096,13.6405
20.9622,13.6300
22.1872,13.6300
22.2398,13.6405
22.2844,13.6703
22.3142,13.7149
22.3247,13.7675
22.3247,14.0425
22.3142,14.0951
22.2844,14.1397
22.2398,14.1695
22.1872,14.1800
20.9622,14.1800
20.9096,14.1695
20.8650,14.1397
20.8352,14.0951
20.8247,14.0425
Z" /> 
<path style="fill:#C83434; fill-opacity:1.0000; stroke:none;fill-rule:evenodd;"
d="M 20.8247,12.9675
20.8352,12.9149
20.8650,12.8703
20.9096,12.8405
20.9622,12.8300
22.1872,12.8300
22.2398,12.8405
22.2844,12.8703
22.3142,12.9149
22.3247,12.9675
22.3247,13.2425
22.3142,13.2951
22.2844,13.3397
22.2398,13.3695
22.1872,13.3800
20.9622,13.3800
20.9096,13.3695
20.8650,13.3397
20.8352,13.2951
20.8247,13.2425
Z" /> 
<path style="fill:#C83434; fill-opacity:1.0000; stroke:none;fill-rule:evenodd;"
d="M 20.8247,12.1675
20.8352,12.1149
20.8650,12.0703
20.9096,12.0405
20.9622,12.0300
22.1872,12.0300
22.2398,12.0405
22.2844,12.0703
22.3142,12.1149
22.3247,12.1675
22.3247,12.4425
22.3142,12.4951
22.2844,12.5397
22.2398,12.5695
22.1872,12.5800
20.9622,12.5800
20.9096,12.5695
20.8650,12.5397
20.8352,12.4951
20.8247,12.4425
Z" /> 
<path style="fill:#C83434; fill-opacity:1.0000; stroke:none;fill-rule:evenodd;"
d="M 20.8247,11.3675
20.8352,11.3149
20.8650,11.2703
20.9096,11.2405
20.9622,11.2300
22.1872,11.2300
22.2398,11.2405
22.2844,11.2703
22.3142,11.3149
22.3247,11.3675
22.3247,11.6425
22.3142,11.6951
22.2844,11.7397
22.2398,11.7695
22.1872,11.7800
20.9622,11.7800
20.9096,11.7695
20.8650,11.7397
20.8352,11.6951
20.8247,11.6425
Z" /> 
<path style="fill:#C83434; fill-opacity:1.0000; stroke:none;fill-rule:evenodd;"
d="M 20.8247,10.5675
20.8352,10.5149
20.8650,10.4703
20.9096,10.4405
20.9622,10.4300
22.1872,10.4300
22.2398,10.4405
22.2844,10.4703
22.3142,10.5149
22.3247,10.5675
22.3247,10.8425
22.3142,10.8951
22.2844,10.9397
22.2398,10.9695
22.1872,10.9800
20.9622,10.9800
20.9096,10.9695
20.8650,10.9397
20.8352,10.8951
20.8247,10.8425
Z" /> 
<path style="fill:#C83434; fill-opacity:1.0000; stroke:none;fill-rule:evenodd;"
d="M 20.8247,9.7675
20.8352,9.7149
20.8650,9.6703
20.9096,9.6405
20.9622,9.6300
22.1872,9.6300
22.2398,9.6405
22.2844,9.6703
22.3142,9.7149
22.3247,9.7675
22.3247,10.0425
22.3142,10.0951
22.2844,10.1397
22.2398,10.1695
22.1872,10.1800
20.9622,10.1800
20.9096,10.1695
20.8650,10.1397
20.8352,10.0951
20.8247,10.0425
Z" /> 
<path style="fill:#C83434; fill-opacity:1.0000; stroke:none;fill-rule:evenodd;"
d="M 20.8247,8.9675
20.8352,8.9149
20.8650,8.8703
20.9096,8.8405
20.9622,8.8300
22.1872,8.8300
22.2398,8.8405
22.2844,8.8703
22.3142,8.9149
22.3247,8.9675
22.3247,9.2425
22.3142,9.2951
22.2844,9.3397
22.2398,9.3695
22.1872,9.3800
20.9622,9.3800
20.9096,9.3695
20.8650,9.3397
20.8352,9.2951
20.8247,9.2425
Z" /> 
<path style="fill:#C83434; fill-opacity:1.0000; stroke:none;fill-rule:evenodd;"
d="M 20.8247,8.1675
20.8352,8.1149
20.8650,8.0703
20.9096,8.0405
20.9622,8.0300
22.1872,8.0300
22.2398,8.0405
22.2844,8.0703
22.3142,8.1149
22.3247,8.1675
22.3247,8.4425
22.3142,8.4951
22.2844,8.5397
22.2398,8.5695
22.1872,8.5800
20.9622,8.5800
20.9096,8.5695
20.8650,8.5397
20.8352,8.4951
20.8247,8.4425
Z" /> 
<path style="fill:#C83434; fill-opacity:1.0000; stroke:none;fill-rule:evenodd;"
d="M 20.8247,7.3675
20.8352,7.3149
20.8650,7.2703
20.9096,7.2405
20.9622,7.2300
22.1872,7.2300
22.2398,7.2405
22.2844,7.2703
22.3142,7.3149
22.3247,7.3675
22.3247,7.6425
22.3142,7.6951
22.2844,7.7397
22.2398,7.7695
22.1872,7.7800
20.9622,7.7800
20.9096,7.7695
20.8650,7.7397
20.8352,7.6951
20.8247,7.6425
Z" /> 
<path style="fill:#C83434; fill-opacity:1.0000; stroke:none;fill-rule:evenodd;"
d="M 20.8247,6.5675
20.8352,6.5149
20.8650,6.4703
20.9096,6.4405
20.9622,6.4300
22.1872,6.4300
22.2398,6.4405
22.2844,6.4703
22.3142,6.5149
22.3247,6.5675
22.3247,6.8425
22.3142,6.8951
22.2844,6.9397
22.2398,6.9695
22.1872,6.9800
20.9622,6.9800
20.9096,6.9695
20.8650,6.9397
20.8352,6.8951
20.8247,6.8425
Z" /> 
<path style="fill:#C83434; fill-opacity:1.0000; stroke:none;fill-rule:evenodd;"
d="M 20.8247,5.7675
20.8352,5.7149
20.8650,5.6703
20.9096,5.6405
20.9622,5.6300
22.1872,5.6300
22.2398,5.6405
22.2844,5.6703
22.3142,5.7149
22.3247,5.7675
22.3247,6.0425
22.3142,6.0951
22.2844,6.1397
22.2398,6.1695
22.1872,6.1800
20.9622,6.1800
20.9096,6.1695
20.8650,6.1397
20.8352,6.0951
20.8247,6.0425
Z" /> 
<path style="fill:#C83434; fill-opacity:1.0000; stroke:none;fill-rule:evenodd;"
d="M 20.8247,4.9675
20.8352,4.9149
20.8650,4.8703
20.9096,4.8405
20.9622,4.8300
22.1872,4.8300
22.2398,4.8405
22.2844,4.8703
22.3142,4.9149
22.3247,4.9675
22.3247,5.2425
22.3142,5.2951
22.2844,5.3397
22.2398,5.3695
22.1872,5.3800
20.9622,5.3800
20.9096,5.3695
20.8650,5.3397
20.8352,5.2951
20.8247,5.2425
Z" /> 
<path style="fill:#C83434; fill-opacity:1.0000; stroke:none;fill-rule:evenodd;"
d="M 20.8247,4.1675
20.8352,4.1149
20.8650,4.0703
20.9096,4.0405
20.9622,4.0300
22.1872,4.0300
22.2398,4.0405
22.2844,4.0703
22.3142,4.1149
22.3247,4.1675
22.3247,4.4425
22.3142,4.4951
22.2844,4.5397
22.2398,4.5695
22.1872,4.5800
20.9622,4.5800
20.9096,4.5695
20.8650,4.5397
20.8352,4.4951
20.8247,4.4425
Z" /> 
<path style="fill:#C83434; fill-opacity:1.0000; stroke:none;fill-rule:evenodd;"
d="M 20.8247,3.3675
20.8352,3.3149
20.8650,3.2703
20.9096,3.2405
20.9622,3.2300
22.1872,3.2300
22.2398,3.2405
22.2844,3.2703
22.3142,3.3149
22.3247,3.3675
22.3247,3.6425
22.3142,3.6951
22.2844,3.7397
22.2398,3.7695
22.1872,3.7800
20.9622,3.7800
20.9096,3.7695
20.8650,3.7397
20.8352,3.6951
20.8247,3.6425
Z" /> 
<path style="fill:#C83434; fill-opacity:1.0000; stroke:none;fill-rule:evenodd;"
d="M 20.8247,2.5675
20.8352,2.5149
20.8650,2.4703
20.9096,2.4405
20.9622,2.4300
22.1872,2.4300
22.2398,2.4405
22.2844,2.4703
22.3142,2.5149
22.3247,2.5675
22.3247,2.8425
22.3142,2.8951
22.2844,2.9397
22.2398,2.9695
22.1872,2.9800
20.9622,2.9800
20.9096,2.9695
20.8650,2.9397
20.8352,2.8951
20.8247,2.8425
Z" /> 
<path style="fill:#C83434; fill-opacity:1.0000; stroke:none;fill-rule:evenodd;"
d="M 19.6247,0.4175
19.6352,0.3649
19.6650,0.3203
19.7096,0.2905
19.7622,0.2800
20.0372,0.2800
20.0898,0.2905
20.1344,0.3203
20.1642,0.3649
20.1747,0.4175
20.1747,1.6425
20.1642,1.6951
20.1344,1.7397
20.0898,1.7695
20.0372,1.7800
19.7622,1.7800
19.7096,1.7695
19.6650,1.7397
19.6352,1.6951
19.6247,1.6425
Z" /> 
<path style="fill:#C83434; fill-opacity:1.0000; stroke:none;fill-rule:evenodd;"
d="M 18.8247,0.4175
18.8352,0.3649
18.8650,0.3203
18.9096,0.2905
18.9622,0.2800
19.2372,0.2800
19.2898,0.2905
19.3344,0.3203
19.3642,0.3649
19.3747,0.4175
19.3747,1.6425
19.3642,1.6951
19.3344,1.7397
19.2898,1.7695
19.2372,1.7800
18.9622,1.7800
18.9096,1.7695
18.8650,1.7397
18.8352,1.6951
18.8247,1.6425
Z" /> 
<path style="fill:#C83434; fill-opacity:1.0000; stroke:none;fill-rule:evenodd;"
d="M 18.0247,0.4175
18.0352,0.3649
18.0650,0.3203
18.1096,0.2905
18.1622,0.2800
18.4372,0.2800
18.4898,0.2905
18.5344,0.3203
18.5642,0.3649
18.5747,0.4175
18.5747,1.6425
18.5642,1.6951
18.5344,1.7397
18.4898,1.7695
18.4372,1.7800
18.1622,1.7800
18.1096,1.7695
18.0650,1.7397
18.0352,1.6951
18.0247,1.6425
Z" /> 
<path style="fill:#C83434; fill-opacity:1.0000; stroke:none;fill-rule:evenodd;"
d="M 17.2247,0.4175
17.2352,0.3649
17.2650,0.3203
17.3096,0.2905
17.3622,0.2800
17.6372,0.2800
17.6898,0.2905
17.7344,0.3203
17.7642,0.3649
17.7747,0.4175
17.7747,1.6425
17.7642,1.6951
17.7344,1.7397
17.6898,1.7695
17.6372,1.7800
17.3622,1.7800
17.3096,1.7695
17.2650,1.7397
17.2352,1.6951
17.2247,1.6425
Z" /> 
<path style="fill:#C83434; fill-opacity:1.0000; stroke:none;fill-rule:evenodd;"
d="M 16.4247,0.4175
16.4352,0.3649
16.4650,0.3203
16.5096,0.2905
16.5622,0.2800
16.8372,0.2800
16.8898,0.2905
16.9344,0.3203
16.9642,0.3649
16.9747,0.4175
16.9747,1.6425
16.9642,1.6951
16.9344,1.7397
16.8898,1.7695
16.8372,1.7800
16.5622,1.7800
16.5096,1.7695
16.4650,1.7397
16.4352,1.6951
16.4247,1.6425
Z" /> 
<path style="fill:#C83434; fill-opacity:1.0000; stroke:none;fill-rule:evenodd;"
d="M 15.6247,0.4175
15.6352,0.3649
15.6650,0.3203
15.7096,0.2905
15.7622,0.2800
16.0372,0.2800
16.0898,0.2905
16.1344,0.3203
16.1642,0.3649
16.1747,0.4175
16.1747,1.6425
16.1642,1.6951
16.1344,1.7397
16.0898,1.7695
16.0372,1.7800
15.7622,1.7800
15.7096,1.7695
15.6650,1.7397
15.6352,1.6951
15.6247,1.6425
Z" /> 
<path style="fill:#C83434; fill-opacity:1.0000; stroke:none;fill-rule:evenodd;"
d="M 14.8247,0.4175
14.8352,0.3649
14.8650,0.3203
14.9096,0.2905
14.9622,0.2800
15.2372,0.2800
15.2898,0.2905
15.3344,0.3203
15.3642,0.3649
15.3747,0.4175
15.3747,1.6425
15.3642,1.6951
15.3344,1.7397
15.2898,1.7695
15.2372,1.7800
14.9622,1.7800
14.9096,1.7695
14.8650,1.7397
14.8352,1.6951
14.8247,1.6425
Z" /> 
<path style="fill:#C83434; fill-opacity:1.0000; stroke:none;fill-rule:evenodd;"
d="M 14.0247,0.4175
14.0352,0.3649
14.0650,0.3203
14.1096,0.2905
14.1622,0.2800
14.4372,0.2800
14.4898,0.2905
14.5344,0.3203
14.5642,0.3649
14.5747,0.4175
14.5747,1.6425
14.5642,1.6951
14.5344,1.7397
14.4898,1.7695
14.4372,1.7800
14.1622,1.7800
14.1096,1.7695
14.0650,1.7397
14.0352,1.6951
14.0247,1.6425
Z" /> 
<path style="fill:#C83434; fill-opacity:1.0000; stroke:none;fill-rule:evenodd;"
d="M 13.2247,0.4175
13.2352,0.3649
13.2650,0.3203
13.3096,0.2905
13.3622,0.2800
13.6372,0.2800
13.6898,0.2905
13.7344,0.3203
13.7642,0.3649
13.7747,0.4175
13.7747,1.6425
13.7642,1.6951
13.7344,1.7397
13.6898,1.7695
13.6372,1.7800
13.3622,1.7800
13.3096,1.7695
13.2650,1.7397
13.2352,1.6951
13.2247,1.6425
Z" /> 
<path style="fill:#C83434; fill-opacity:1.0000; stroke:none;fill-rule:evenodd;"
d="M 12.4247,0.4175
12.4352,0.3649
12.4650,0.3203
12.5096,0.2905
12.5622,0.2800
12.8372,0.2800
12.8898,0.2905
12.9344,0.3203
12.9642,0.3649
12.9747,0.4175
12.9747,1.6425
12.9642,1.6951
12.9344,1.7397
12.8898,1.7695
12.8372,1.7800
12.5622,1.7800
12.5096,1.7695
12.4650,1.7397
12.4352,1.6951
12.4247,1.6425
Z" /> 
<path style="fill:#C83434; fill-opacity:1.0000; stroke:none;fill-rule:evenodd;"
d="M 11.6247,0.4175
11.6352,0.3649
11.6650,0.3203
11.7096,0.2905
11.7622,0.2800
12.0372,0.2800
12.0898,0.2905
12.1344,0.3203
12.1642,0.3649
12.1747,0.4175
12.1747,1.6425
12.1642,1.6951
12.1344,1.7397
12.0898,1.7695
12.0372,1.7800
11.7622,1.7800
11.7096,1.7695
11.6650,1.7397
11.6352,1.6951
11.6247,1.6425
Z" /> 
<path style="fill:#C83434; fill-opacity:1.0000; stroke:none;fill-rule:evenodd;"
d="M 10.8247,0.4175
10.8352,0.3649
10.8650,0.3203
10.9096,0.2905
10.9622,0.2800
11.2372,0.2800
11.2898,0.2905
11.3344,0.3203
11.3642,0.3649
11.3747,0.4175
11.3747,1.6425
11.3642,1.6951
11.3344,1.7397
11.2898,1.7695
11.2372,1.7800
10.9622,1.7800
10.9096,1.7695
10.8650,1.7397
10.8352,1.6951
10.8247,1.6425
Z" /> 
<path style="fill:#C83434; fill-opacity:1.0000; stroke:none;fill-rule:evenodd;"
d="M 10.0247,0.4175
10.0352,0.3649
10.0650,0.3203
10.1096,0.2905
10.1622,0.2800
10.4372,0.2800
10.4898,0.2905
10.5344,0.3203
10.5642,0.3649
10.5747,0.4175
10.5747,1.6425
10.5642,1.6951
10.5344,1.7397
10.4898,1.7695
10.4372,1.7800
10.1622,1.7800
10.1096,1.7695
10.0650,1.7397
10.0352,1.6951
10.0247,1.6425
Z" /> 
<path style="fill:#C83434; fill-opacity:1.0000; stroke:none;fill-rule:evenodd;"
d="M 9.2247,0.4175
9.2352,0.3649
9.2650,0.3203
9.3096,0.2905
9.3622,0.2800
9.6372,0.2800
9.6898,0.2905
9.7344,0.3203
9.7642,0.3649
9.7747,0.4175
9.7747,1.6425
9.7642,1.6951
9.7344,1.7397
9.6898,1.7695
9.6372,1.7800
9.3622,1.7800
9.3096,1.7695
9.2650,1.7397
9.2352,1.6951
9.2247,1.6425
Z" /> 
<path style="fill:#C83434; fill-opacity:1.0000; stroke:none;fill-rule:evenodd;"
d="M 8.4247,0.4175
8.4352,0.3649
8.4650,0.3203
8.5096,0.2905
8.5622,0.2800
8.8372,0.2800
8.8898,0.2905
8.9344,0.3203
8.9642,0.3649
8.9747,0.4175
8.9747,1.6425
8.9642,1.6951
8.9344,1.7397
8.8898,1.7695
8.8372,1.7800
8.5622,1.7800
8.5096,1.7695
8.4650,1.7397
8.4352,1.6951
8.4247,1.6425
Z" /> 
<path style="fill:#C83434; fill-opacity:1.0000; stroke:none;fill-rule:evenodd;"
d="M 7.6247,0.4175
7.6352,0.3649
7.6650,0.3203
7.7096,0.2905
7.7622,0.2800
8.0372,0.2800
8.0898,0.2905
8.1344,0.3203
8.1642,0.3649
8.1747,0.4175
8.1747,1.6425
8.1642,1.6951
8.1344,1.7397
8.0898,1.7695
8.0372,1.7800
7.7622,1.7800
7.7096,1.7695
7.6650,1.7397
7.6352,1.6951
7.6247,1.6425
Z" /> 
<path style="fill:#D864FF; fill-opacity:0.4000; stroke:none;fill-rule:evenodd;"
d="M 5.4747,2.5675
5.4852,2.5149
5.5150,2.4703
5.5596,2.4405
5.6122,2.4300
6.8372,2.4300
6.8898,2.4405
6.9344,2.4703
6.9642,2.5149
6.9747,2.5675
6.9747,2.8425
6.9642,2.8951
6.9344,2.9397
6.8898,2.9695
6.8372,2.9800
5.6122,2.9800
5.5596,2.9695
5.5150,2.9397
5.4852,2.8951
5.4747,2.8425
Z" /> 
<path style="fill:#D864FF; fill-opacity:0.4000; stroke:none;fill-rule:evenodd;"
d="M 5.4747,3.3675
5.4852,3.3149
5.5150,3.2703
5.5596,3.2405
5.6122,3.2300
6.8372,3.2300
6.8898,3.2405
6.9344,3.2703
6.9642,3.3149
6.9747,3.3675
6.9747,3.6425
6.9642,3.6951
6.9344,3.7397
6.8898,3.7695
6.8372,3.7800
5.6122,3.7800
5.5596,3.7695
5.5150,3.7397
5.4852,3.6951
5.4747,3.6425
Z" /> 
<path style="fill:#D864FF; fill-opacity:0.4000; stroke:none;fill-rule:evenodd;"
d="M 5.4747,4.1675
5.4852,4.1149
5.5150,4.0703
5.5596,4.0405
5.6122,4.0300
6.8372,4.0300
6.8898,4.0405
6.9344,4.0703
6.9642,4.1149
6.9747,4.1675
6.9747,4.4425
6.9642,4.4951
6.9344,4.5397
6.8898,4.5695
6.8372,4.5800
5.6122,4.5800
5.5596,4.5695
5.5150,4.5397
5.4852,4.4951
5.4747,4.4425
Z" /> 
<path style="fill:#D864FF; fill-opacity:0.4000; stroke:none;fill-rule:evenodd;"
d="M 5.4747,4.9675
5.4852,4.9149
5.5150,4.8703
5.5596,4.8405
5.6122,4.8300
6.8372,4.8300
6.8898,4.8405
6.9344,4.8703
6.9642,4.9149
6.9747,4.9675
6.9747,5.2425
6.9642,5.2951
6.9344,5.3397
6.8898,5.3695
6.8372,5.3800
5.6122,5.3800
5.5596,5.3695
5.5150,5.3397
5.4852,5.2951
5.4747,5.2425
Z" /> 
<path style="fill:#D864FF; fill-opacity:0.4000; stroke:none;fill-rule:evenodd;"
d="M 5.4747,5.7675
5.4852,5.7149
5.5150,5.6703
5.5596,5.6405
5.6122,5.6300
6.8372,5.6300
6.8898,5.6405
6.9344,5.6703
6.9642,5.7149
6.9747,5.7675
6.9747,6.0425
6.9642,6.0951
6.9344,6.1397
6.8898,6.1695
6.8372,6.1800
5.6122,6.1800
5.5596,6.1695
5.5150,6.1397
5.4852,6.0951
5.4747,6.0425
Z" /> 
<path style="fill:#D864FF; fill-opacity:0.4000; stroke:none;fill-rule:evenodd;"
d="M 5.4747,6.5675
5.4852,6.5149
5.5150,6.4703
5.5596,6.4405
5.6122,6.4300
6.8372,6.4300
6.8898,6.4405
6.9344,6.4703
6.9642,6.5149
6.9747,6.5675
6.9747,6.8425
6.9642,6.8951
6.9344,6.9397
6.8898,6.9695
6.8372,6.9800
5.6122,6.9800
5.5596,6.9695
5.5150,6.9397
5.4852,6.8951
5.4747,6.8425
Z" /> 
<path style="fill:#D864FF; fill-opacity:0.4000; stroke:none;fill-rule:evenodd;"
d="M 5.4747,7.3675
5.4852,7.3149
5.5150,7.2703
5.5596,7.2405
5.6122,7.2300
6.8372,7.2300
6.8898,7.2405
6.9344,7.2703
6.9642,7.3149
6.9747,7.3675
6.9747,7.6425
6.9642,7.6951
6.9344,7.7397
6.8898,7.7695
6.8372,7.7800
5.6122,7.7800
5.5596,7.7695
5.5150,7.7397
5.4852,7.6951
5.4747,7.6425
Z" /> 
<path style="fill:#D864FF; fill-opacity:0.4000; stroke:none;fill-rule:evenodd;"
d="M 5.4747,8.1675
5.4852,8.1149
5.5150,8.0703
5.5596,8.0405
5.6122,8.0300
6.8372,8.0300
6.8898,8.0405
6.9344,8.0703
6.9642,8.1149
6.9747,8.1675
6.9747,8.4425
6.9642,8.4951
6.9344,8.5397
6.8898,8.5695
6.8372,8.5800
5.6122,8.5800
5.5596,8.5695
5.5150,8.5397
5.4852,8.4951
5.4747,8.4425
Z" /> 
<path style="fill:#D864FF; fill-opacity:0.4000; stroke:none;fill-rule:evenodd;"
d="M 5.4747,8.9675
5.4852,8.9149
5.5150,8.8703
5.5596,8.8405
5.6122,8.8300
6.8372,8.8300
6.8898,8.8405
6.9344,8.8703
6.9642,8.9149
6.9747,8.9675
6.9747,9.2425
6.9642,9.2951
6.9344,9.3397
6.8898,9.3695
6.8372,9.3800
5.6122,9.3800
5.5596,9.3695
5.5150,9.3397
5.4852,9.2951
5.4747,9.2425
Z" /> 
<path style="fill:#D864FF; fill-opacity:0.4000; stroke:none;fill-rule:evenodd;"
d="M 5.4747,9.7675
5.4852,9.7149
5.5150,9.6703
5.5596,9.6405
5.6122,9.6300
6.8372,9.6300
6.8898,9.6405
6.9344,9.6703
6.9642,9.7149
6.9747,9.7675
6.9747,10.0425
6.9642,10.0951
6.9344,10.1397
6.8898,10.1695
6.8372,10.1800
5.6122,10.1800
5.5596,10.1695
5.5150,10.1397
5.4852,10.0951
5.4747,10.0425
Z" /> 
<path style="fill:#D864FF; fill-opacity:0.4000; stroke:none;fill-rule:evenodd;"
d="M 5.4747,10.5675
5.4852,10.5149
5.5150,10.4703
5.5596,10.4405
5.6122,10.4300
6.8372,10.4300
6.8898,10.4405
6.9344,10.4703
6.9642,10.5149
6.9747,10.5675
6.9747,10.8425
6.9642,10.8951
6.9344,10.9397
6.8898,10.9695
6.8372,10.9800
5.6122,10.9800
5.5596,10.9695
5.5150,10.9397
5.4852,10.8951
5.4747,10.8425
Z" /> 
<path style="fill:#D864FF; fill-opacity:0.4000; stroke:none;fill-rule:evenodd;"
d="M 5.4747,11.3675
5.4852,11.3149
5.5150,11.2703
5.5596,11.2405
5.6122,11.2300
6.8372,11.2300
6.8898,11.2405
6.9344,11.2703
6.9642,11.3149
6.9747,11.3675
6.9747,11.6425
6.9642,11.6951
6.9344,11.7397
6.8898,11.7695
6.8372,11.7800
5.6122,11.7800
5.5596,11.7695
5.5150,11.7397
5.4852,11.6951
5.4747,11.6425
Z" /> 
<path style="fill:#D864FF; fill-opacity:0.4000; stroke:none;fill-rule:evenodd;"
d="M 5.4747,12.1675
5.4852,12.1149
5.5150,12.0703
5.5596,12.0405
5.6122,12.0300
6.8372,12.0300
6.8898,12.0405
6.9344,12.0703
6.9642,12.1149
6.9747,12.1675
6.9747,12.4425
6.9642,12.4951
6.9344,12.5397
6.8898,12.5695
6.8372,12.5800
5.6122,12.5800
5.5596,12.5695
5.5150,12.5397
5.4852,12.4951
5.4747,12.4425
Z" /> 
<path style="fill:#D864FF; fill-opacity:0.4000; stroke:none;fill-rule:evenodd;"
d="M 5.4747,12.9675
5.4852,12.9149
5.5150,12.8703
5.5596,12.8405
5.6122,12.8300
6.8372,12.8300
6.8898,12.8405
6.9344,12.8703
6.9642,12.9149
6.9747,12.9675
6.9747,13.2425
6.9642,13.2951
6.9344,13.3397
6.8898,13.3695
6.8372,13.3800
5.6122,13.3800
5.5596,13.3695
5.5150,13.3397
5.4852,13.2951
5.4747,13.2425
Z" /> 
<path style="fill:#D864FF; fill-opacity:0.4000; stroke:none;fill-rule:evenodd;"
d="M 5.4747,13.7675
5.4852,13.7149
5.5150,13.6703
5.5596,13.6405
5.6122,13.6300
6.8372,13.6300
6.8898,13.6405
6.9344,13.6703
6.9642,13.7149
6.9747,13.7675
6.9747,14.0425
6.9642,14.0951
6.9344,14.1397
6.8898,14.1695
6.8372,14.1800
5.6122,14.1800
5.5596,14.1695
5.5150,14.1397
5.4852,14.0951
5.4747,14.0425
Z" /> 
<path style="fill:#D864FF; fill-opacity:0.4000; stroke:none;fill-rule:evenodd;"
d="M 5.4747,14.5675
5.4852,14.5149
5.5150,14.4703
5.5596,14.4405
5.6122,14.4300
6.8372,14.4300
6.8898,14.4405
6.9344,14.4703
6.9642,14.5149
6.9747,14.5675
6.9747,14.8425
6.9642,14.8951
6.9344,14.9397
6.8898,14.9695
6.8372,14.9800
5.6122,14.9800
5.5596,14.9695
5.5150,14.9397
5.4852,14.8951
5.4747,14.8425
Z" /> 
<path style="fill:#D864FF; fill-opacity:0.4000; stroke:none;fill-rule:evenodd;"
d="M 7.6247,15.7675
7.6352,15.7149
7.6650,15.6703
7.7096,15.6405
7.7622,15.6300
8.0372,15.6300
8.0898,15.6405
8.1344,15.6703
8.1642,15.7149
8.1747,15.7675
8.1747,16.9925
8.1642,17.0451
8.1344,17.0897
8.0898,17.1195
8.0372,17.1300
7.7622,17.1300
7.7096,17.1195
7.6650,17.0897
7.6352,17.0451
7.6247,16.9925
Z" /> 
<path style="fill:#D864FF; fill-opacity:0.4000; stroke:none;fill-rule:evenodd;"
d="M 8.4247,15.7675
8.4352,15.7149
8.4650,15.6703
8.5096,15.6405
8.5622,15.6300
8.8372,15.6300
8.8898,15.6405
8.9344,15.6703
8.9642,15.7149
8.9747,15.7675
8.9747,16.9925
8.9642,17.0451
8.9344,17.0897
8.8898,17.1195
8.8372,17.1300
8.5622,17.1300
8.5096,17.1195
8.4650,17.0897
8.4352,17.0451
8.4247,16.9925
Z" /> 
<path style="fill:#D864FF; fill-opacity:0.4000; stroke:none;fill-rule:evenodd;"
d="M 9.2247,15.7675
9.2352,15.7149
9.2650,15.6703
9.3096,15.6405
9.3622,15.6300
9.6372,15.6300
9.6898,15.6405
9.7344,15.6703
9.7642,15.7149
9.7747,15.7675
9.7747,16.9925
9.7642,17.0451
9.7344,17.0897
9.6898,17.1195
9.6372,17.1300
9.3622,17.1300
9.3096,17.1195
9.2650,17.0897
9.2352,17.0451
9.2247,16.9925
Z" /> 
<path style="fill:#D864FF; fill-opacity:0.4000; stroke:none;fill-rule:evenodd;"
d="M 10.0247,15.7675
10.0352,15.7149
10.0650,15.6703
10.1096,15.6405
10.1622,15.6300
10.4372,15.6300
10.4898,15.6405
10.5344,15.6703
10.5642,15.7149
10.5747,15.7675
10.5747,16.9925
10.5642,17.0451
10.5344,17.0897
10.4898,17.1195
10.4372,17.1300
10.1622,17.1300
10.1096,17.1195
10.0650,17.0897
10.0352,17.0451
10.0247,16.9925
Z" /> 
<path style="fill:#D864FF; fill-opacity:0.4000; stroke:none;fill-rule:evenodd;"
d="M 10.8247,15.7675
10.8352,15.7149
10.8650,15.6703
10.9096,15.6405
10.9622,15.6300
11.2372,15.6300
11.2898,15.6405
11.3344,15.6703
11.3642,15.7149
11.3747,15.7675
11.3747,16.9925
11.3642,17.0451
11.3344,17.0897
11.2898,17.1195
11.2372,17.1300
10.9622,17.1300
10.9096,17.1195
10.8650,17.0897
10.8352,17.0451
10.8247,16.9925
Z" /> 
<path style="fill:#D864FF; fill-opacity:0.4000; stroke:none;fill-rule:evenodd;"
d="M 11.6247,15.7675
11.6352,15.7149
11.6650,15.6703
11.7096,15.6405
11.7622,15.6300
12.0372,15.6300
12.0898,15.6405
12.1344,15.6703
12.1642,15.7149
12.1747,15.7675
12.1747,16.9925
12.1642,17.0451
12.1344,17.0897
12.0898,17.1195
12.0372,17.1300
11.7622,17.1300
11.7096,17.1195
11.6650,17.0897
11.6352,17.0451
11.6247,16.9925
Z" /> 
<path style="fill:#D864FF; fill-opacity:0.4000; stroke:none;fill-rule:evenodd;"
d="M 12.4247,15.7675
12.4352,15.7149
12.4650,15.6703
12.5096,15.6405
12.5622,15.6300
12.8372,15.6300
12.8898,15.6405
12.9344,15.6703
12.9642,15.7149
12.9747,15.7675
12.9747,16.9925
12.9642,17.0451
12.9344,17.0897
12.8898,17.1195
12.8372,17.1300
12.5622,17.1300
12.5096,17.1195
12.4650,17.0897
12.4352,17.0451
12.4247,16.9925
Z" /> 
<path style="fill:#D864FF; fill-opacity:0.4000; stroke:none;fill-rule:evenodd;"
d="M 13.2247,15.7675
13.2352,15.7149
13.2650,15.6703
13.3096,15.6405
13.3622,15.6300
13.6372,15.6300
13.6898,15.6405
13.7344,15.6703
13.7642,15.7149
13.7747,15.7675
13.7747,16.9925
13.7642,17.0451
13.7344,17.0897
13.6898,17.1195
13.6372,17.1300
13.3622,17.1300
13.3096,17.1195
13.2650,17.0897
13.2352,17.0451
13.2247,16.9925
Z" /> 
<path style="fill:#D864FF; fill-opacity:0.4000; stroke:none;fill-rule:evenodd;"
d="M 14.0247,15.7675
14.0352,15.7149
14.0650,15.6703
14.1096,15.6405
14.1622,15.6300
14.4372,15.6300
14.4898,15.6405
14.5344,15.6703
14.5642,15.7149
14.5747,15.7675
14.5747,16.9925
14.5642,17.0451
14.5344,17.0897
14.4898,17.1195
14.4372,17.1300
14.1622,17.1300
14.1096,17.1195
14.0650,17.0897
14.0352,17.0451
14.0247,16.9925
Z" /> 
<path style="fill:#D864FF; fill-opacity:0.4000; stroke:none;fill-rule:evenodd;"
d="M 14.8247,15.7675
14.8352,15.7149
14.8650,15.6703
14.9096,15.6405
14.9622,15.6300
15.2372,15.6300
15.2898,15.6405
15.3344,15.6703
15.3642,15.7149
15.3747,15.7675
15.3747,16.9925
15.3642,17.0451
15.3344,17.0897
15.2898,17.1195
15.2372,17.1300
14.9622,17.1300
14.9096,17.1195
14.8650,17.0897
14.8352,17.0451
14.8247,16.9925
Z" /> 
<path style="fill:#D864FF; fill-opacity:0.4000; stroke:none;fill-rule:evenodd;"
d="M 15.6247,15.7675
15.6352,15.7149
15.6650,15.6703
15.7096,15.6405
15.7622,15.6300
16.0372,15.6300
16.0898,15.6405
16.1344,15.6703
16.1642,15.7149
16.1747,15.7675
16.1747,16.9925
16.1642,17.0451
16.1344,17.0897
16.0898,17.1195
16.0372,17.1300
15.7622,17.1300
15.7096,17.1195
15.6650,17.0897
15.6352,17.0451
15.6247,16.9925
Z" /> 
<path style="fill:#D864FF; fill-opacity:0.4000; stroke:none;fill-rule:evenodd;"
d="M 16.4247,15.7675
16.4352,15.7149
16.4650,15.6703
16.5096,15.6405
16.5622,15.6300
16.8372,15.6300
16.8898,15.6405
16.9344,15.6703
16.9642,15.7149
16.9747,15.7675
16.9747,16.9925
16.9642,17.0451
16.9344,17.0897
16.8898,17.1195
16.8372,17.1300
16.5622,17.1300
16.5096,17.1195
16.4650,17.0897
16.4352,17.0451
16.4247,16.9925
Z" /> 
<path style="fill:#D864FF; fill-opacity:0.4000; stroke:none;fill-rule:evenodd;"
d="M 17.2247,15.7675
17.2352,15.7149
17.2650,15.6703
17.3096,15.6405
17.3622,15.6300
17.6372,15.6300
17.6898,15.6405
17.7344,15.6703
17.7642,15.7149
17.7747,15.7675
17.7747,16.9925
17.7642,17.0451
17.7344,17.0897
17.6898,17.1195
17.6372,17.1300
17.3622,17.1300
17.3096,17.1195
17.2650,17.0897
17.2352,17.0451
17.2247,16.9925
Z" /> 
<path style="fill:#D864FF; fill-opacity:0.4000; stroke:none;fill-rule:evenodd;"
d="M 18.0247,15.7675
18.0352,15.7149
18.0650,15.6703
18.1096,15.6405
18.1622,15.6300
18.4372,15.6300
18.4898,15.6405
18.5344,15.6703
18.5642,15.7149
18.5747,15.7675
18.5747,16.9925
18.5642,17.0451
18.5344,17.0897
18.4898,17.1195
18.4372,17.1300
18.1622,17.1300
18.1096,17.1195
18.0650,17.0897
18.0352,17.0451
18.0247,16.9925
Z" /> 
<path style="fill:#D864FF; fill-opacity:0.4000; stroke:none;fill-rule:evenodd;"
d="M 18.8247,15.7675
18.8352,15.7149
18.8650,15.6703
18.9096,15.6405
18.9622,15.6300
19.2372,15.6300
19.2898,15.6405
19.3344,15.6703
19.3642,15.7149
19.3747,15.7675
19.3747,16.9925
19.3642,17.0451
19.3344,17.0897
19.2898,17.1195
19.2372,17.1300
18.9622,17.1300
18.9096,17.1195
18.8650,17.0897
18.8352,17.0451
18.8247,16.9925
Z" /> 
<path style="fill:#D864FF; fill-opacity:0.4000; stroke:none;fill-rule:evenodd;"
d="M 19.6247,15.7675
19.6352,15.7149
19.6650,15.6703
19.7096,15.6405
19.7622,15.6300
20.0372,15.6300
20.0898,15.6405
20.1344,15.6703
20.1642,15.7149
20.1747,15.7675
20.1747,16.9925
20.1642,17.0451
20.1344,17.0897
20.0898,17.1195
20.0372,17.1300
19.7622,17.1300
19.7096,17.1195
19.6650,17.0897
19.6352,17.0451
19.6247,16.9925
Z" /> 
<path style="fill:#D864FF; fill-opacity:0.4000; stroke:none;fill-rule:evenodd;"
d="M 20.8247,14.5675
20.8352,14.5149
20.8650,14.4703
20.9096,14.4405
20.9622,14.4300
22.1872,14.4300
22.2398,14.4405
22.2844,14.4703
22.3142,14.5149
22.3247,14.5675
22.3247,14.8425
22.3142,14.8951
22.2844,14.9397
22.2398,14.9695
22.1872,14.9800
20.9622,14.9800
20.9096,14.9695
20.8650,14.9397
20.8352,14.8951
20.8247,14.8425
Z" /> 
<path style="fill:#D864FF; fill-opacity:0.4000; stroke:none;fill-rule:evenodd;"
d="M 20.8247,13.7675
20.8352,13.7149
20.8650,13.6703
20.9096,13.6405
20.9622,13.6300
22.1872,13.6300
22.2398,13.6405
22.2844,13.6703
22.3142,13.7149
22.3247,13.7675
22.3247,14.0425
22.3142,14.0951
22.2844,14.1397
22.2398,14.1695
22.1872,14.1800
20.9622,14.1800
20.9096,14.1695
20.8650,14.1397
20.8352,14.0951
20.8247,14.0425
Z" /> 
<path style="fill:#D864FF; fill-opacity:0.4000; stroke:none;fill-rule:evenodd;"
d="M 20.8247,12.9675
20.8352,12.9149
20.8650,12.8703
20.9096,12.8405
20.9622,12.8300
22.1872,12.8300
22.2398,12.8405
22.2844,12.8703
22.3142,12.9149
22.3247,12.9675
22.3247,13.2425
22.3142,13.2951
22.2844,13.3397
22.2398,13.3695
22.1872,13.3800
20.9622,13.3800
20.9096,13.3695
20.8650,13.3397
20.8352,13.2951
20.8247,13.2425
Z" /> 
<path style="fill:#D864FF; fill-opacity:0.4000; stroke:none;fill-rule:evenodd;"
d="M 20.8247,12.1675
20.8352,12.1149
20.8650,12.0703
20.9096,12.0405
20.9622,12.0300
22.1872,12.0300
22.2398,12.0405
22.2844,12.0703
22.3142,12.1149
22.3247,12.1675
22.3247,12.4425
22.3142,12.4951
22.2844,12.5397
22.2398,12.5695
22.1872,12.5800
20.9622,12.5800
20.9096,12.5695
20.8650,12.5397
20.8352,12.4951
20.8247,12.4425
Z" /> 
<path style="fill:#D864FF; fill-opacity:0.4000; stroke:none;fill-rule:evenodd;"
d="M 20.8247,11.3675
20.8352,11.3149
20.8650,11.2703
20.9096,11.2405
20.9622,11.2300
22.1872,11.2300
22.2398,11.2405
22.2844,11.2703
22.3142,11.3149
22.3247,11.3675
22.3247,11.6425
22.3142,11.6951
22.2844,11.7397
22.2398,11.7695
22.1872,11.7800
20.9622,11.7800
20.9096,11.7695
20.8650,11.7397
20.8352,11.6951
20.8247,11.6425
Z" /> 
<path style="fill:#D864FF; fill-opacity:0.4000; stroke:none;fill-rule:evenodd;"
d="M 20.8247,10.5675
20.8352,10.5149
20.8650,10.4703
20.9096,10.4405
20.9622,10.4300
22.1872,10.4300
22.2398,10.4405
22.2844,10.4703
22.3142,10.5149
22.3247,10.5675
22.3247,10.8425
22.3142,10.8951
22.2844,10.9397
22.2398,10.9695
22.1872,10.9800
20.9622,10.9800
20.9096,10.9695
20.8650,10.9397
20.8352,10.8951
20.8247,10.8425
Z" /> 
<path style="fill:#D864FF; fill-opacity:0.4000; stroke:none;fill-rule:evenodd;"
d="M 20.8247,9.7675
20.8352,9.7149
20.8650,9.6703
20.9096,9.6405
20.9622,9.6300
22.1872,9.6300
22.2398,9.6405
22.2844,9.6703
22.3142,9.7149
22.3247,9.7675
22.3247,10.0425
22.3142,10.0951
22.2844,10.1397
22.2398,10.1695
22.1872,10.1800
20.9622,10.1800
20.9096,10.1695
20.8650,10.1397
20.8352,10.0951
20.8247,10.0425
Z" /> 
<path style="fill:#D864FF; fill-opacity:0.4000; stroke:none;fill-rule:evenodd;"
d="M 20.8247,8.9675
20.8352,8.9149
20.8650,8.8703
20.9096,8.8405
20.9622,8.8300
22.1872,8.8300
22.2398,8.8405
22.2844,8.8703
22.3142,8.9149
22.3247,8.9675
22.3247,9.2425
22.3142,9.2951
22.2844,9.3397
22.2398,9.3695
22.1872,9.3800
20.9622,9.3800
20.9096,9.3695
20.8650,9.3397
20.8352,9.2951
20.8247,9.2425
Z" /> 
<path style="fill:#D864FF; fill-opacity:0.4000; stroke:none;fill-rule:evenodd;"
d="M 20.8247,8.1675
20.8352,8.1149
20.8650,8.0703
20.9096,8.0405
20.9622,8.0300
22.1872,8.0300
22.2398,8.0405
22.2844,8.0703
22.3142,8.1149
22.3247,8.1675
22.3247,8.4425
22.3142,8.4951
22.2844,8.5397
22.2398,8.5695
22.1872,8.5800
20.9622,8.5800
20.9096,8.5695
20.8650,8.5397
20.8352,8.4951
20.8247,8.4425
Z" /> 
<path style="fill:#D864FF; fill-opacity:0.4000; stroke:none;fill-rule:evenodd;"
d="M 20.8247,7.3675
20.8352,7.3149
20.8650,7.2703
20.9096,7.2405
20.9622,7.2300
22.1872,7.2300
22.2398,7.2405
22.2844,7.2703
22.3142,7.3149
22.3247,7.3675
22.3247,7.6425
22.3142,7.6951
22.2844,7.7397
22.2398,7.7695
22.1872,7.7800
20.9622,7.7800
20.9096,7.7695
20.8650,7.7397
20.8352,7.6951
20.8247,7.6425
Z" /> 
<path style="fill:#D864FF; fill-opacity:0.4000; stroke:none;fill-rule:evenodd;"
d="M 20.8247,6.5675
20.8352,6.5149
20.8650,6.4703
20.9096,6.4405
20.9622,6.4300
22.1872,6.4300
22.2398,6.4405
22.2844,6.4703
22.3142,6.5149
22.3247,6.5675
22.3247,6.8425
22.3142,6.8951
22.2844,6.9397
22.2398,6.9695
22.1872,6.9800
20.9622,6.9800
20.9096,6.9695
20.8650,6.9397
20.8352,6.8951
20.8247,6.8425
Z" /> 
<path style="fill:#D864FF; fill-opacity:0.4000; stroke:none;fill-rule:evenodd;"
d="M 20.8247,5.7675
20.8352,5.7149
20.8650,5.6703
20.9096,5.6405
20.9622,5.6300
22.1872,5.6300
22.2398,5.6405
22.2844,5.6703
22.3142,5.7149
22.3247,5.7675
22.3247,6.0425
22.3142,6.0951
22.2844,6.1397
22.2398,6.1695
22.1872,6.1800
20.9622,6.1800
20.9096,6.1695
20.8650,6.1397
20.8352,6.0951
20.8247,6.0425
Z" /> 
<path style="fill:#D864FF; fill-opacity:0.4000; stroke:none;fill-rule:evenodd;"
d="M 20.8247,4.9675
20.8352,4.9149
20.8650,4.8703
20.9096,4.8405
20.9622,4.8300
22.1872,4.8300
22.2398,4.8405
22.2844,4.8703
22.3142,4.9149
22.3247,4.9675
22.3247,5.2425
22.3142,5.2951
22.2844,5.3397
22.2398,5.3695
22.1872,5.3800
20.9622,5.3800
20.9096,5.3695
20.8650,5.3397
20.8352,5.2951
20.8247,5.2425
Z" /> 
<path style="fill:#D864FF; fill-opacity:0.4000; stroke:none;fill-rule:evenodd;"
d="M 20.8247,4.1675
20.8352,4.1149
20.8650,4.0703
20.9096,4.0405
20.9622,4.0300
22.1872,4.0300
22.2398,4.0405
22.2844,4.0703
22.3142,4.1149
22.3247,4.1675
22.3247,4.4425
22.3142,4.4951
22.2844,4.5397
22.2398,4.5695
22.1872,4.5800
20.9622,4.5800
20.9096,4.5695
20.8650,4.5397
20.8352,4.4951
20.8247,4.4425
Z" /> 
<path style="fill:#D864FF; fill-opacity:0.4000; stroke:none;fill-rule:evenodd;"
d="M 20.8247,3.3675
20.8352,3.3149
20.8650,3.2703
20.9096,3.2405
20.9622,3.2300
22.1872,3.2300
22.2398,3.2405
22.2844,3.2703
22.3142,3.3149
22.3247,3.3675
22.3247,3.6425
22.3142,3.6951
22.2844,3.7397
22.2398,3.7695
22.1872,3.7800
20.9622,3.7800
20.9096,3.7695
20.8650,3.7397
20.8352,3.6951
20.8247,3.6425
Z" /> 
<path style="fill:#D864FF; fill-opacity:0.4000; stroke:none;fill-rule:evenodd;"
d="M 20.8247,2.5675
20.8352,2.5149
20.8650,2.4703
20.9096,2.4405
20.9622,2.4300
22.1872,2.4300
22.2398,2.4405
22.2844,2.4703
22.3142,2.5149
22.3247,2.5675
22.3247,2.8425
22.3142,2.8951
22.2844,2.9397
22.2398,2.9695
22.1872,2.9800
20.9622,2.9800
20.9096,2.9695
20.8650,2.9397
20.8352,2.8951
20.8247,2.8425
Z" /> 
<path style="fill:#D864FF; fill-opacity:0.4000; stroke:none;fill-rule:evenodd;"
d="M 19.6247,0.4175
19.6352,0.3649
19.6650,0.3203
19.7096,0.2905
19.7622,0.2800
20.0372,0.2800
20.0898,0.2905
20.1344,0.3203
20.1642,0.3649
20.1747,0.4175
20.1747,1.6425
20.1642,1.6951
20.1344,1.7397
20.0898,1.7695
20.0372,1.7800
19.7622,1.7800
19.7096,1.7695
19.6650,1.7397
19.6352,1.6951
19.6247,1.6425
Z" /> 
<path style="fill:#D864FF; fill-opacity:0.4000; stroke:none;fill-rule:evenodd;"
d="M 18.8247,0.4175
18.8352,0.3649
18.8650,0.3203
18.9096,0.2905
18.9622,0.2800
19.2372,0.2800
19.2898,0.2905
19.3344,0.3203
19.3642,0.3649
19.3747,0.4175
19.3747,1.6425
19.3642,1.6951
19.3344,1.7397
19.2898,1.7695
19.2372,1.7800
18.9622,1.7800
18.9096,1.7695
18.8650,1.7397
18.8352,1.6951
18.8247,1.6425
Z" /> 
<path style="fill:#D864FF; fill-opacity:0.4000; stroke:none;fill-rule:evenodd;"
d="M 18.0247,0.4175
18.0352,0.3649
18.0650,0.3203
18.1096,0.2905
18.1622,0.2800
18.4372,0.2800
18.4898,0.2905
18.5344,0.3203
18.5642,0.3649
18.5747,0.4175
18.5747,1.6425
18.5642,1.6951
18.5344,1.7397
18.4898,1.7695
18.4372,1.7800
18.1622,1.7800
18.1096,1.7695
18.0650,1.7397
18.0352,1.6951
18.0247,1.6425
Z" /> 
<path style="fill:#D864FF; fill-opacity:0.4000; stroke:none;fill-rule:evenodd;"
d="M 17.2247,0.4175
17.2352,0.3649
17.2650,0.3203
17.3096,0.2905
17.3622,0.2800
17.6372,0.2800
17.6898,0.2905
17.7344,0.3203
17.7642,0.3649
17.7747,0.4175
17.7747,1.6425
17.7642,1.6951
17.7344,1.7397
17.6898,1.7695
17.6372,1.7800
17.3622,1.7800
17.3096,1.7695
17.2650,1.7397
17.2352,1.6951
17.2247,1.6425
Z" /> 
<path style="fill:#D864FF; fill-opacity:0.4000; stroke:none;fill-rule:evenodd;"
d="M 16.4247,0.4175
16.4352,0.3649
16.4650,0.3203
16.5096,0.2905
16.5622,0.2800
16.8372,0.2800
16.8898,0.2905
16.9344,0.3203
16.9642,0.3649
16.9747,0.4175
16.9747,1.6425
16.9642,1.6951
16.9344,1.7397
16.8898,1.7695
16.8372,1.7800
16.5622,1.7800
16.5096,1.7695
16.4650,1.7397
16.4352,1.6951
16.4247,1.6425
Z" /> 
<path style="fill:#D864FF; fill-opacity:0.4000; stroke:none;fill-rule:evenodd;"
d="M 15.6247,0.4175
15.6352,0.3649
15.6650,0.3203
15.7096,0.2905
15.7622,0.2800
16.0372,0.2800
16.0898,0.2905
16.1344,0.3203
16.1642,0.3649
16.1747,0.4175
16.1747,1.6425
16.1642,1.6951
16.1344,1.7397
16.0898,1.7695
16.0372,1.7800
15.7622,1.7800
15.7096,1.7695
15.6650,1.7397
15.6352,1.6951
15.6247,1.6425
Z" /> 
<path style="fill:#D864FF; fill-opacity:0.4000; stroke:none;fill-rule:evenodd;"
d="M 14.8247,0.4175
14.8352,0.3649
14.8650,0.3203
14.9096,0.2905
14.9622,0.2800
15.2372,0.2800
15.2898,0.2905
15.3344,0.3203
15.3642,0.3649
15.3747,0.4175
15.3747,1.6425
15.3642,1.6951
15.3344,1.7397
15.2898,1.7695
15.2372,1.7800
14.9622,1.7800
14.9096,1.7695
14.8650,1.7397
14.8352,1.6951
14.8247,1.6425
Z" /> 
<path style="fill:#D864FF; fill-opacity:0.4000; stroke:none;fill-rule:evenodd;"
d="M 14.0247,0.4175
14.0352,0.3649
14.0650,0.3203
14.1096,0.2905
14.1622,0.2800
14.4372,0.2800
14.4898,0.2905
14.5344,0.3203
14.5642,0.3649
14.5747,0.4175
14.5747,1.6425
14.5642,1.6951
14.5344,1.7397
14.4898,1.7695
14.4372,1.7800
14.1622,1.7800
14.1096,1.7695
14.0650,1.7397
14.0352,1.6951
14.0247,1.6425
Z" /> 
<path style="fill:#D864FF; fill-opacity:0.4000; stroke:none;fill-rule:evenodd;"
d="M 13.2247,0.4175
13.2352,0.3649
13.2650,0.3203
13.3096,0.2905
13.3622,0.2800
13.6372,0.2800
13.6898,0.2905
13.7344,0.3203
13.7642,0.3649
13.7747,0.4175
13.7747,1.6425
13.7642,1.6951
13.7344,1.7397
13.6898,1.7695
13.6372,1.7800
13.3622,1.7800
13.3096,1.7695
13.2650,1.7397
13.2352,1.6951
13.2247,1.6425
Z" /> 
<path style="fill:#D864FF; fill-opacity:0.4000; stroke:none;fill-rule:evenodd;"
d="M 12.4247,0.4175
12.4352,0.3649
12.4650,0.3203
12.5096,0.2905
12.5622,0.2800
12.8372,0.2800
12.8898,0.2905
12.9344,0.3203
12.9642,0.3649
12.9747,0.4175
12.9747,1.6425
12.9642,1.6951
12.9344,1.7397
12.8898,1.7695
12.8372,1.7800
12.5622,1.7800
12.5096,1.7695
12.4650,1.7397
12.4352,1.6951
12.4247,1.6425
Z" /> 
<path style="fill:#D864FF; fill-opacity:0.4000; stroke:none;fill-rule:evenodd;"
d="M 11.6247,0.4175
11.6352,0.3649
11.6650,0.3203
11.7096,0.2905
11.7622,0.2800
12.0372,0.2800
12.0898,0.2905
12.1344,0.3203
12.1642,0.3649
12.1747,0.4175
12.1747,1.6425
12.1642,1.6951
12.1344,1.7397
12.0898,1.7695
12.0372,1.7800
11.7622,1.7800
11.7096,1.7695
11.6650,1.7397
11.6352,1.6951
11.6247,1.6425
Z" /> 
<path style="fill:#D864FF; fill-opacity:0.4000; stroke:none;fill-rule:evenodd;"
d="M 10.8247,0.4175
10.8352,0.3649
10.8650,0.3203
10.9096,0.2905
10.9622,0.2800
11.2372,0.2800
11.2898,0.2905
11.3344,0.3203
11.3642,0.3649
11.3747,0.4175
11.3747,1.6425
11.3642,1.6951
11.3344,1.7397
11.2898,1.7695
11.2372,1.7800
10.9622,1.7800
10.9096,1.7695
10.8650,1.7397
10.8352,1.6951
10.8247,1.6425
Z" /> 
<path style="fill:#D864FF; fill-opacity:0.4000; stroke:none;fill-rule:evenodd;"
d="M 10.0247,0.4175
10.0352,0.3649
10.0650,0.3203
10.1096,0.2905
10.1622,0.2800
10.4372,0.2800
10.4898,0.2905
10.5344,0.3203
10.5642,0.3649
10.5747,0.4175
10.5747,1.6425
10.5642,1.6951
10.5344,1.7397
10.4898,1.7695
10.4372,1.7800
10.1622,1.7800
10.1096,1.7695
10.0650,1.7397
10.0352,1.6951
10.0247,1.6425
Z" /> 
<path style="fill:#D864FF; fill-opacity:0.4000; stroke:none;fill-rule:evenodd;"
d="M 9.2247,0.4175
9.2352,0.3649
9.2650,0.3203
9.3096,0.2905
9.3622,0.2800
9.6372,0.2800
9.6898,0.2905
9.7344,0.3203
9.7642,0.3649
9.7747,0.4175
9.7747,1.6425
9.7642,1.6951
9.7344,1.7397
9.6898,1.7695
9.6372,1.7800
9.3622,1.7800
9.3096,1.7695
9.2650,1.7397
9.2352,1.6951
9.2247,1.6425
Z" /> 
<path style="fill:#D864FF; fill-opacity:0.4000; stroke:none;fill-rule:evenodd;"
d="M 8.4247,0.4175
8.4352,0.3649
8.4650,0.3203
8.5096,0.2905
8.5622,0.2800
8.8372,0.2800
8.8898,0.2905
8.9344,0.3203
8.9642,0.3649
8.9747,0.4175
8.9747,1.6425
8.9642,1.6951
8.9344,1.7397
8.8898,1.7695
8.8372,1.7800
8.5622,1.7800
8.5096,1.7695
8.4650,1.7397
8.4352,1.6951
8.4247,1.6425
Z" /> 
<path style="fill:#D864FF; fill-opacity:0.4000; stroke:none;fill-rule:evenodd;"
d="M 7.6247,0.4175
7.6352,0.3649
7.6650,0.3203
7.7096,0.2905
7.7622,0.2800
8.0372,0.2800
8.0898,0.2905
8.1344,0.3203
8.1642,0.3649
8.1747,0.4175
8.1747,1.6425
8.1642,1.6951
8.1344,1.7397
8.0898,1.7695
8.0372,1.7800
7.7622,1.7800
7.7096,1.7695
7.6650,1.7397
7.6352,1.6951
7.6247,1.6425
Z" /> 
<path style="fill:#B4A09A; fill-opacity:0.9000; stroke:none;fill-rule:evenodd;"
d="M 5.4747,2.5675
5.4852,2.5149
5.5150,2.4703
5.5596,2.4405
5.6122,2.4300
6.8372,2.4300
6.8898,2.4405
6.9344,2.4703
6.9642,2.5149
6.9747,2.5675
6.9747,2.8425
6.9642,2.8951
6.9344,2.9397
6.8898,2.9695
6.8372,2.9800
5.6122,2.9800
5.5596,2.9695
5.5150,2.9397
5.4852,2.8951
5.4747,2.8425
Z" /> 
<path style="fill:#B4A09A; fill-opacity:0.9000; stroke:none;fill-rule:evenodd;"
d="M 5.4747,3.3675
5.4852,3.3149
5.5150,3.2703
5.5596,3.2405
5.6122,3.2300
6.8372,3.2300
6.8898,3.2405
6.9344,3.2703
6.9642,3.3149
6.9747,3.3675
6.9747,3.6425
6.9642,3.6951
6.9344,3.7397
6.8898,3.7695
6.8372,3.7800
5.6122,3.7800
5.5596,3.7695
5.5150,3.7397
5.4852,3.6951
5.4747,3.6425
Z" /> 
<path style="fill:#B4A09A; fill-opacity:0.9000; stroke:none;fill-rule:evenodd;"
d="M 5.4747,4.1675
5.4852,4.1149
5.5150,4.0703
5.5596,4.0405
5.6122,4.0300
6.8372,4.0300
6.8898,4.0405
6.9344,4.0703
6.9642,4.1149
6.9747,4.1675
6.9747,4.4425
6.9642,4.4951
6.9344,4.5397
6.8898,4.5695
6.8372,4.5800
5.6122,4.5800
5.5596,4.5695
5.5150,4.5397
5.4852,4.4951
5.4747,4.4425
Z" /> 
<path style="fill:#B4A09A; fill-opacity:0.9000; stroke:none;fill-rule:evenodd;"
d="M 5.4747,4.9675
5.4852,4.9149
5.5150,4.8703
5.5596,4.8405
5.6122,4.8300
6.8372,4.8300
6.8898,4.8405
6.9344,4.8703
6.9642,4.9149
6.9747,4.9675
6.9747,5.2425
6.9642,5.2951
6.9344,5.3397
6.8898,5.3695
6.8372,5.3800
5.6122,5.3800
5.5596,5.3695
5.5150,5.3397
5.4852,5.2951
5.4747,5.2425
Z" /> 
<path style="fill:#B4A09A; fill-opacity:0.9000; stroke:none;fill-rule:evenodd;"
d="M 5.4747,5.7675
5.4852,5.7149
5.5150,5.6703
5.5596,5.6405
5.6122,5.6300
6.8372,5.6300
6.8898,5.6405
6.9344,5.6703
6.9642,5.7149
6.9747,5.7675
6.9747,6.0425
6.9642,6.0951
6.9344,6.1397
6.8898,6.1695
6.8372,6.1800
5.6122,6.1800
5.5596,6.1695
5.5150,6.1397
5.4852,6.0951
5.4747,6.0425
Z" /> 
<path style="fill:#B4A09A; fill-opacity:0.9000; stroke:none;fill-rule:evenodd;"
d="M 5.4747,6.5675
5.4852,6.5149
5.5150,6.4703
5.5596,6.4405
5.6122,6.4300
6.8372,6.4300
6.8898,6.4405
6.9344,6.4703
6.9642,6.5149
6.9747,6.5675
6.9747,6.8425
6.9642,6.8951
6.9344,6.9397
6.8898,6.9695
6.8372,6.9800
5.6122,6.9800
5.5596,6.9695
5.5150,6.9397
5.4852,6.8951
5.4747,6.8425
Z" /> 
<path style="fill:#B4A09A; fill-opacity:0.9000; stroke:none;fill-rule:evenodd;"
d="M 5.4747,7.3675
5.4852,7.3149
5.5150,7.2703
5.5596,7.2405
5.6122,7.2300
6.8372,7.2300
6.8898,7.2405
6.9344,7.2703
6.9642,7.3149
6.9747,7.3675
6.9747,7.6425
6.9642,7.6951
6.9344,7.7397
6.8898,7.7695
6.8372,7.7800
5.6122,7.7800
5.5596,7.7695
5.5150,7.7397
5.4852,7.6951
5.4747,7.6425
Z" /> 
<path style="fill:#B4A09A; fill-opacity:0.9000; stroke:none;fill-rule:evenodd;"
d="M 5.4747,8.1675
5.4852,8.1149
5.5150,8.0703
5.5596,8.0405
5.6122,8.0300
6.8372,8.0300
6.8898,8.0405
6.9344,8.0703
6.9642,8.1149
6.9747,8.1675
6.9747,8.4425
6.9642,8.4951
6.9344,8.5397
6.8898,8.5695
6.8372,8.5800
5.6122,8.5800
5.5596,8.5695
5.5150,8.5397
5.4852,8.4951
5.4747,8.4425
Z" /> 
<path style="fill:#B4A09A; fill-opacity:0.9000; stroke:none;fill-rule:evenodd;"
d="M 5.4747,8.9675
5.4852,8.9149
5.5150,8.8703
5.5596,8.8405
5.6122,8.8300
6.8372,8.8300
6.8898,8.8405
6.9344,8.8703
6.9642,8.9149
6.9747,8.9675
6.9747,9.2425
6.9642,9.2951
6.9344,9.3397
6.8898,9.3695
6.8372,9.3800
5.6122,9.3800
5.5596,9.3695
5.5150,9.3397
5.4852,9.2951
5.4747,9.2425
Z" /> 
<path style="fill:#B4A09A; fill-opacity:0.9000; stroke:none;fill-rule:evenodd;"
d="M 5.4747,9.7675
5.4852,9.7149
5.5150,9.6703
5.5596,9.6405
5.6122,9.6300
6.8372,9.6300
6.8898,9.6405
6.9344,9.6703
6.9642,9.7149
6.9747,9.7675
6.9747,10.0425
6.9642,10.0951
6.9344,10.1397
6.8898,10.1695
6.8372,10.1800
5.6122,10.1800
5.5596,10.1695
5.5150,10.1397
5.4852,10.0951
5.4747,10.0425
Z" /> 
<path style="fill:#B4A09A; fill-opacity:0.9000; stroke:none;fill-rule:evenodd;"
d="M 5.4747,10.5675
5.4852,10.5149
5.5150,10.4703
5.5596,10.4405
5.6122,10.4300
6.8372,10.4300
6.8898,10.4405
6.9344,10.4703
6.9642,10.5149
6.9747,10.5675
6.9747,10.8425
6.9642,10.8951
6.9344,10.9397
6.8898,10.9695
6.8372,10.9800
5.6122,10.9800
5.5596,10.9695
5.5150,10.9397
5.4852,10.8951
5.4747,10.8425
Z" /> 
<path style="fill:#B4A09A; fill-opacity:0.9000; stroke:none;fill-rule:evenodd;"
d="M 5.4747,11.3675
5.4852,11.3149
5.5150,11.2703
5.5596,11.2405
5.6122,11.2300
6.8372,11.2300
6.8898,11.2405
6.9344,11.2703
6.9642,11.3149
6.9747,11.3675
6.9747,11.6425
6.9642,11.6951
6.9344,11.7397
6.8898,11.7695
6.8372,11.7800
5.6122,11.7800
5.5596,11.7695
5.5150,11.7397
5.4852,11.6951
5.4747,11.6425
Z" /> 
<path style="fill:#B4A09A; fill-opacity:0.9000; stroke:none;fill-rule:evenodd;"
d="M 5.4747,12.1675
5.4852,12.1149
5.5150,12.0703
5.5596,12.0405
5.6122,12.0300
6.8372,12.0300
6.8898,12.0405
6.9344,12.0703
6.9642,12.1149
6.9747,12.1675
6.9747,12.4425
6.9642,12.4951
6.9344,12.5397
6.8898,12.5695
6.8372,12.5800
5.6122,12.5800
5.5596,12.5695
5.5150,12.5397
5.4852,12.4951
5.4747,12.4425
Z" /> 
<path style="fill:#B4A09A; fill-opacity:0.9000; stroke:none;fill-rule:evenodd;"
d="M 5.4747,12.9675
5.4852,12.9149
5.5150,12.8703
5.5596,12.8405
5.6122,12.8300
6.8372,12.8300
6.8898,12.8405
6.9344,12.8703
6.9642,12.9149
6.9747,12.9675
6.9747,13.2425
6.9642,13.2951
6.9344,13.3397
6.8898,13.3695
6.8372,13.3800
5.6122,13.3800
5.5596,13.3695
5.5150,13.3397
5.4852,13.2951
5.4747,13.2425
Z" /> 
<path style="fill:#B4A09A; fill-opacity:0.9000; stroke:none;fill-rule:evenodd;"
d="M 5.4747,13.7675
5.4852,13.7149
5.5150,13.6703
5.5596,13.6405
5.6122,13.6300
6.8372,13.6300
6.8898,13.6405
6.9344,13.6703
6.9642,13.7149
6.9747,13.7675
6.9747,14.0425
6.9642,14.0951
6.9344,14.1397
6.8898,14.1695
6.8372,14.1800
5.6122,14.1800
5.5596,14.1695
5.5150,14.1397
5.4852,14.0951
5.4747,14.0425
Z" /> 
<path style="fill:#B4A09A; fill-opacity:0.9000; stroke:none;fill-rule:evenodd;"
d="M 5.4747,14.5675
5.4852,14.5149
5.5150,14.4703
5.5596,14.4405
5.6122,14.4300
6.8372,14.4300
6.8898,14.4405
6.9344,14.4703
6.9642,14.5149
6.9747,14.5675
6.9747,14.8425
6.9642,14.8951
6.9344,14.9397
6.8898,14.9695
6.8372,14.9800
5.6122,14.9800
5.5596,14.9695
5.5150,14.9397
5.4852,14.8951
5.4747,14.8425
Z" /> 
<path style="fill:#B4A09A; fill-opacity:0.9000; stroke:none;fill-rule:evenodd;"
d="M 7.6247,15.7675
7.6352,15.7149
7.6650,15.6703
7.7096,15.6405
7.7622,15.6300
8.0372,15.6300
8.0898,15.6405
8.1344,15.6703
8.1642,15.7149
8.1747,15.7675
8.1747,16.9925
8.1642,17.0451
8.1344,17.0897
8.0898,17.1195
8.0372,17.1300
7.7622,17.1300
7.7096,17.1195
7.6650,17.0897
7.6352,17.0451
7.6247,16.9925
Z" /> 
<path style="fill:#B4A09A; fill-opacity:0.9000; stroke:none;fill-rule:evenodd;"
d="M 8.4247,15.7675
8.4352,15.7149
8.4650,15.6703
8.5096,15.6405
8.5622,15.6300
8.8372,15.6300
8.8898,15.6405
8.9344,15.6703
8.9642,15.7149
8.9747,15.7675
8.9747,16.9925
8.9642,17.0451
8.9344,17.0897
8.8898,17.1195
8.8372,17.1300
8.5622,17.1300
8.5096,17.1195
8.4650,17.0897
8.4352,17.0451
8.4247,16.9925
Z" /> 
<path style="fill:#B4A09A; fill-opacity:0.9000; stroke:none;fill-rule:evenodd;"
d="M 9.2247,15.7675
9.2352,15.7149
9.2650,15.6703
9.3096,15.6405
9.3622,15.6300
9.6372,15.6300
9.6898,15.6405
9.7344,15.6703
9.7642,15.7149
9.7747,15.7675
9.7747,16.9925
9.7642,17.0451
9.7344,17.0897
9.6898,17.1195
9.6372,17.1300
9.3622,17.1300
9.3096,17.1195
9.2650,17.0897
9.2352,17.0451
9.2247,16.9925
Z" /> 
<path style="fill:#B4A09A; fill-opacity:0.9000; stroke:none;fill-rule:evenodd;"
d="M 10.0247,15.7675
10.0352,15.7149
10.0650,15.6703
10.1096,15.6405
10.1622,15.6300
10.4372,15.6300
10.4898,15.6405
10.5344,15.6703
10.5642,15.7149
10.5747,15.7675
10.5747,16.9925
10.5642,17.0451
10.5344,17.0897
10.4898,17.1195
10.4372,17.1300
10.1622,17.1300
10.1096,17.1195
10.0650,17.0897
10.0352,17.0451
10.0247,16.9925
Z" /> 
<path style="fill:#B4A09A; fill-opacity:0.9000; stroke:none;fill-rule:evenodd;"
d="M 10.8247,15.7675
10.8352,15.7149
10.8650,15.6703
10.9096,15.6405
10.9622,15.6300
11.2372,15.6300
11.2898,15.6405
11.3344,15.6703
11.3642,15.7149
11.3747,15.7675
11.3747,16.9925
11.3642,17.0451
11.3344,17.0897
11.2898,17.1195
11.2372,17.1300
10.9622,17.1300
10.9096,17.1195
10.8650,17.0897
10.8352,17.0451
10.8247,16.9925
Z" /> 
<path style="fill:#B4A09A; fill-opacity:0.9000; stroke:none;fill-rule:evenodd;"
d="M 11.6247,15.7675
11.6352,15.7149
11.6650,15.6703
11.7096,15.6405
11.7622,15.6300
12.0372,15.6300
12.0898,15.6405
12.1344,15.6703
12.1642,15.7149
12.1747,15.7675
12.1747,16.9925
12.1642,17.0451
12.1344,17.0897
12.0898,17.1195
12.0372,17.1300
11.7622,17.1300
11.7096,17.1195
11.6650,17.0897
11.6352,17.0451
11.6247,16.9925
Z" /> 
<path style="fill:#B4A09A; fill-opacity:0.9000; stroke:none;fill-rule:evenodd;"
d="M 12.4247,15.7675
12.4352,15.7149
12.4650,15.6703
12.5096,15.6405
12.5622,15.6300
12.8372,15.6300
12.8898,15.6405
12.9344,15.6703
12.9642,15.7149
12.9747,15.7675
12.9747,16.9925
12.9642,17.0451
12.9344,17.0897
12.8898,17.1195
12.8372,17.1300
12.5622,17.1300
12.5096,17.1195
12.4650,17.0897
12.4352,17.0451
12.4247,16.9925
Z" /> 
<path style="fill:#B4A09A; fill-opacity:0.9000; stroke:none;fill-rule:evenodd;"
d="M 13.2247,15.7675
13.2352,15.7149
13.2650,15.6703
13.3096,15.6405
13.3622,15.6300
13.6372,15.6300
13.6898,15.6405
13.7344,15.6703
13.7642,15.7149
13.7747,15.7675
13.7747,16.9925
13.7642,17.0451
13.7344,17.0897
13.6898,17.1195
13.6372,17.1300
13.3622,17.1300
13.3096,17.1195
13.2650,17.0897
13.2352,17.0451
13.2247,16.9925
Z" /> 
<path style="fill:#B4A09A; fill-opacity:0.9000; stroke:none;fill-rule:evenodd;"
d="M 14.0247,15.7675
14.0352,15.7149
14.0650,15.6703
14.1096,15.6405
14.1622,15.6300
14.4372,15.6300
14.4898,15.6405
14.5344,15.6703
14.5642,15.7149
14.5747,15.7675
14.5747,16.9925
14.5642,17.0451
14.5344,17.0897
14.4898,17.1195
14.4372,17.1300
14.1622,17.1300
14.1096,17.1195
14.0650,17.0897
14.0352,17.0451
14.0247,16.9925
Z" /> 
<path style="fill:#B4A09A; fill-opacity:0.9000; stroke:none;fill-rule:evenodd;"
d="M 14.8247,15.7675
14.8352,15.7149
14.8650,15.6703
14.9096,15.6405
14.9622,15.6300
15.2372,15.6300
15.2898,15.6405
15.3344,15.6703
15.3642,15.7149
15.3747,15.7675
15.3747,16.9925
15.3642,17.0451
15.3344,17.0897
15.2898,17.1195
15.2372,17.1300
14.9622,17.1300
14.9096,17.1195
14.8650,17.0897
14.8352,17.0451
14.8247,16.9925
Z" /> 
<path style="fill:#B4A09A; fill-opacity:0.9000; stroke:none;fill-rule:evenodd;"
d="M 15.6247,15.7675
15.6352,15.7149
15.6650,15.6703
15.7096,15.6405
15.7622,15.6300
16.0372,15.6300
16.0898,15.6405
16.1344,15.6703
16.1642,15.7149
16.1747,15.7675
16.1747,16.9925
16.1642,17.0451
16.1344,17.0897
16.0898,17.1195
16.0372,17.1300
15.7622,17.1300
15.7096,17.1195
15.6650,17.0897
15.6352,17.0451
15.6247,16.9925
Z" /> 
<path style="fill:#B4A09A; fill-opacity:0.9000; stroke:none;fill-rule:evenodd;"
d="M 16.4247,15.7675
16.4352,15.7149
16.4650,15.6703
16.5096,15.6405
16.5622,15.6300
16.8372,15.6300
16.8898,15.6405
16.9344,15.6703
16.9642,15.7149
16.9747,15.7675
16.9747,16.9925
16.9642,17.0451
16.9344,17.0897
16.8898,17.1195
16.8372,17.1300
16.5622,17.1300
16.5096,17.1195
16.4650,17.0897
16.4352,17.0451
16.4247,16.9925
Z" /> 
<path style="fill:#B4A09A; fill-opacity:0.9000; stroke:none;fill-rule:evenodd;"
d="M 17.2247,15.7675
17.2352,15.7149
17.2650,15.6703
17.3096,15.6405
17.3622,15.6300
17.6372,15.6300
17.6898,15.6405
17.7344,15.6703
17.7642,15.7149
17.7747,15.7675
17.7747,16.9925
17.7642,17.0451
17.7344,17.0897
17.6898,17.1195
17.6372,17.1300
17.3622,17.1300
17.3096,17.1195
17.2650,17.0897
17.2352,17.0451
17.2247,16.9925
Z" /> 
<path style="fill:#B4A09A; fill-opacity:0.9000; stroke:none;fill-rule:evenodd;"
d="M 18.0247,15.7675
18.0352,15.7149
18.0650,15.6703
18.1096,15.6405
18.1622,15.6300
18.4372,15.6300
18.4898,15.6405
18.5344,15.6703
18.5642,15.7149
18.5747,15.7675
18.5747,16.9925
18.5642,17.0451
18.5344,17.0897
18.4898,17.1195
18.4372,17.1300
18.1622,17.1300
18.1096,17.1195
18.0650,17.0897
18.0352,17.0451
18.0247,16.9925
Z" /> 
<path style="fill:#B4A09A; fill-opacity:0.9000; stroke:none;fill-rule:evenodd;"
d="M 18.8247,15.7675
18.8352,15.7149
18.8650,15.6703
18.9096,15.6405
18.9622,15.6300
19.2372,15.6300
19.2898,15.6405
19.3344,15.6703
19.3642,15.7149
19.3747,15.7675
19.3747,16.9925
19.3642,17.0451
19.3344,17.0897
19.2898,17.1195
19.2372,17.1300
18.9622,17.1300
18.9096,17.1195
18.8650,17.0897
18.8352,17.0451
18.8247,16.9925
Z" /> 
<path style="fill:#B4A09A; fill-opacity:0.9000; stroke:none;fill-rule:evenodd;"
d="M 19.6247,15.7675
19.6352,15.7149
19.6650,15.6703
19.7096,15.6405
19.7622,15.6300
20.0372,15.6300
20.0898,15.6405
20.1344,15.6703
20.1642,15.7149
20.1747,15.7675
20.1747,16.9925
20.1642,17.0451
20.1344,17.0897
20.0898,17.1195
20.0372,17.1300
19.7622,17.1300
19.7096,17.1195
19.6650,17.0897
19.6352,17.0451
19.6247,16.9925
Z" /> 
<path style="fill:#B4A09A; fill-opacity:0.9000; stroke:none;fill-rule:evenodd;"
d="M 20.8247,14.5675
20.8352,14.5149
20.8650,14.4703
20.9096,14.4405
20.9622,14.4300
22.1872,14.4300
22.2398,14.4405
22.2844,14.4703
22.3142,14.5149
22.3247,14.5675
22.3247,14.8425
22.3142,14.8951
22.2844,14.9397
22.2398,14.9695
22.1872,14.9800
20.9622,14.9800
20.9096,14.9695
20.8650,14.9397
20.8352,14.8951
20.8247,14.8425
Z" /> 
<path style="fill:#B4A09A; fill-opacity:0.9000; stroke:none;fill-rule:evenodd;"
d="M 20.8247,13.7675
20.8352,13.7149
20.8650,13.6703
20.9096,13.6405
20.9622,13.6300
22.1872,13.6300
22.2398,13.6405
22.2844,13.6703
22.3142,13.7149
22.3247,13.7675
22.3247,14.0425
22.3142,14.0951
22.2844,14.1397
22.2398,14.1695
22.1872,14.1800
20.9622,14.1800
20.9096,14.1695
20.8650,14.1397
20.8352,14.0951
20.8247,14.0425
Z" /> 
<path style="fill:#B4A09A; fill-opacity:0.9000; stroke:none;fill-rule:evenodd;"
d="M 20.8247,12.9675
20.8352,12.9149
20.8650,12.8703
20.9096,12.8405
20.9622,12.8300
22.1872,12.8300
22.2398,12.8405
22.2844,12.8703
22.3142,12.9149
22.3247,12.9675
22.3247,13.2425
22.3142,13.2951
22.2844,13.3397
22.2398,13.3695
22.1872,13.3800
20.9622,13.3800
20.9096,13.3695
20.8650,13.3397
20.8352,13.2951
20.8247,13.2425
Z" /> 
<path style="fill:#B4A09A; fill-opacity:0.9000; stroke:none;fill-rule:evenodd;"
d="M 20.8247,12.1675
20.8352,12.1149
20.8650,12.0703
20.9096,12.0405
20.9622,12.0300
22.1872,12.0300
22.2398,12.0405
22.2844,12.0703
22.3142,12.1149
22.3247,12.1675
22.3247,12.4425
22.3142,12.4951
22.2844,12.5397
22.2398,12.5695
22.1872,12.5800
20.9622,12.5800
20.9096,12.5695
20.8650,12.5397
20.8352,12.4951
20.8247,12.4425
Z" /> 
<path style="fill:#B4A09A; fill-opacity:0.9000; stroke:none;fill-rule:evenodd;"
d="M 20.8247,11.3675
20.8352,11.3149
20.8650,11.2703
20.9096,11.2405
20.9622,11.2300
22.1872,11.2300
22.2398,11.2405
22.2844,11.2703
22.3142,11.3149
22.3247,11.3675
22.3247,11.6425
22.3142,11.6951
22.2844,11.7397
22.2398,11.7695
22.1872,11.7800
20.9622,11.7800
20.9096,11.7695
20.8650,11.7397
20.8352,11.6951
20.8247,11.6425
Z" /> 
<path style="fill:#B4A09A; fill-opacity:0.9000; stroke:none;fill-rule:evenodd;"
d="M 20.8247,10.5675
20.8352,10.5149
20.8650,10.4703
20.9096,10.4405
20.9622,10.4300
22.1872,10.4300
22.2398,10.4405
22.2844,10.4703
22.3142,10.5149
22.3247,10.5675
22.3247,10.8425
22.3142,10.8951
22.2844,10.9397
22.2398,10.9695
22.1872,10.9800
20.9622,10.9800
20.9096,10.9695
20.8650,10.9397
20.8352,10.8951
20.8247,10.8425
Z" /> 
<path style="fill:#B4A09A; fill-opacity:0.9000; stroke:none;fill-rule:evenodd;"
d="M 20.8247,9.7675
20.8352,9.7149
20.8650,9.6703
20.9096,9.6405
20.9622,9.6300
22.1872,9.6300
22.2398,9.6405
22.2844,9.6703
22.3142,9.7149
22.3247,9.7675
22.3247,10.0425
22.3142,10.0951
22.2844,10.1397
22.2398,10.1695
22.1872,10.1800
20.9622,10.1800
20.9096,10.1695
20.8650,10.1397
20.8352,10.0951
20.8247,10.0425
Z" /> 
<path style="fill:#B4A09A; fill-opacity:0.9000; stroke:none;fill-rule:evenodd;"
d="M 20.8247,8.9675
20.8352,8.9149
20.8650,8.8703
20.9096,8.8405
20.9622,8.8300
22.1872,8.8300
22.2398,8.8405
22.2844,8.8703
22.3142,8.9149
22.3247,8.9675
22.3247,9.2425
22.3142,9.2951
22.2844,9.3397
22.2398,9.3695
22.1872,9.3800
20.9622,9.3800
20.9096,9.3695
20.8650,9.3397
20.8352,9.2951
20.8247,9.2425
Z" /> 
<path style="fill:#B4A09A; fill-opacity:0.9000; stroke:none;fill-rule:evenodd;"
d="M 20.8247,8.1675
20.8352,8.1149
20.8650,8.0703
20.9096,8.0405
20.9622,8.0300
22.1872,8.0300
22.2398,8.0405
22.2844,8.0703
22.3142,8.1149
22.3247,8.1675
22.3247,8.4425
22.3142,8.4951
22.2844,8.5397
22.2398,8.5695
22.1872,8.5800
20.9622,8.5800
20.9096,8.5695
20.8650,8.5397
20.8352,8.4951
20.8247,8.4425
Z" /> 
<path style="fill:#B4A09A; fill-opacity:0.9000; stroke:none;fill-rule:evenodd;"
d="M 20.8247,7.3675
20.8352,7.3149
20.8650,7.2703
20.9096,7.2405
20.9622,7.2300
22.1872,7.2300
22.2398,7.2405
22.2844,7.2703
22.3142,7.3149
22.3247,7.3675
22.3247,7.6425
22.3142,7.6951
22.2844,7.7397
22.2398,7.7695
22.1872,7.7800
20.9622,7.7800
20.9096,7.7695
20.8650,7.7397
20.8352,7.6951
20.8247,7.6425
Z" /> 
<path style="fill:#B4A09A; fill-opacity:0.9000; stroke:none;fill-rule:evenodd;"
d="M 20.8247,6.5675
20.8352,6.5149
20.8650,6.4703
20.9096,6.4405
20.9622,6.4300
22.1872,6.4300
22.2398,6.4405
22.2844,6.4703
22.3142,6.5149
22.3247,6.5675
22.3247,6.8425
22.3142,6.8951
22.2844,6.9397
22.2398,6.9695
22.1872,6.9800
20.9622,6.9800
20.9096,6.9695
20.8650,6.9397
20.8352,6.8951
20.8247,6.8425
Z" /> 
<path style="fill:#B4A09A; fill-opacity:0.9000; stroke:none;fill-rule:evenodd;"
d="M 20.8247,5.7675
20.8352,5.7149
20.8650,5.6703
20.9096,5.6405
20.9622,5.6300
22.1872,5.6300
22.2398,5.6405
22.2844,5.6703
22.3142,5.7149
22.3247,5.7675
22.3247,6.0425
22.3142,6.0951
22.2844,6.1397
22.2398,6.1695
22.1872,6.1800
20.9622,6.1800
20.9096,6.1695
20.8650,6.1397
20.8352,6.0951
20.8247,6.0425
Z" /> 
<path style="fill:#B4A09A; fill-opacity:0.9000; stroke:none;fill-rule:evenodd;"
d="M 20.8247,4.9675
20.8352,4.9149
20.8650,4.8703
20.9096,4.8405
20.9622,4.8300
22.1872,4.8300
22.2398,4.8405
22.2844,4.8703
22.3142,4.9149
22.3247,4.9675
22.3247,5.2425
22.3142,5.2951
22.2844,5.3397
22.2398,5.3695
22.1872,5.3800
20.9622,5.3800
20.9096,5.3695
20.8650,5.3397
20.8352,5.2951
20.8247,5.2425
Z" /> 
<path style="fill:#B4A09A; fill-opacity:0.9000; stroke:none;fill-rule:evenodd;"
d="M 20.8247,4.1675
20.8352,4.1149
20.8650,4.0703
20.9096,4.0405
20.9622,4.0300
22.1872,4.0300
22.2398,4.0405
22.2844,4.0703
22.3142,4.1149
22.3247,4.1675
22.3247,4.4425
22.3142,4.4951
22.2844,4.5397
22.2398,4.5695
22.1872,4.5800
20.9622,4.5800
20.9096,4.5695
20.8650,4.5397
20.8352,4.4951
20.8247,4.4425
Z" /> 
<path style="fill:#B4A09A; fill-opacity:0.9000; stroke:none;fill-rule:evenodd;"
d="M 20.8247,3.3675
20.8352,3.3149
20.8650,3.2703
20.9096,3.2405
20.9622,3.2300
22.1872,3.2300
22.2398,3.2405
22.2844,3.2703
22.3142,3.3149
22.3247,3.3675
22.3247,3.6425
22.3142,3.6951
22.2844,3.7397
22.2398,3.7695
22.1872,3.7800
20.9622,3.7800
20.9096,3.7695
20.8650,3.7397
20.8352,3.6951
20.8247,3.6425
Z" /> 
<path style="fill:#B4A09A; fill-opacity:0.9000; stroke:none;fill-rule:evenodd;"
d="M 20.8247,2.5675
20.8352,2.5149
20.8650,2.4703
20.9096,2.4405
20.9622,2.4300
22.1872,2.4300
22.2398,2.4405
22.2844,2.4703
22.3142,2.5149
22.3247,2.5675
22.3247,2.8425
22.3142,2.8951
22.2844,2.9397
22.2398,2.9695
22.1872,2.9800
20.9622,2.9800
20.9096,2.9695
20.8650,2.9397
20.8352,2.8951
20.8247,2.8425
Z" /> 
<path style="fill:#B4A09A; fill-opacity:0.9000; stroke:none;fill-rule:evenodd;"
d="M 19.6247,0.4175
19.6352,0.3649
19.6650,0.3203
19.7096,0.2905
19.7622,0.2800
20.0372,0.2800
20.0898,0.2905
20.1344,0.3203
20.1642,0.3649
20.1747,0.4175
20.1747,1.6425
20.1642,1.6951
20.1344,1.7397
20.0898,1.7695
20.0372,1.7800
19.7622,1.7800
19.7096,1.7695
19.6650,1.7397
19.6352,1.6951
19.6247,1.6425
Z" /> 
<path style="fill:#B4A09A; fill-opacity:0.9000; stroke:none;fill-rule:evenodd;"
d="M 18.8247,0.4175
18.8352,0.3649
18.8650,0.3203
18.9096,0.2905
18.9622,0.2800
19.2372,0.2800
19.2898,0.2905
19.3344,0.3203
19.3642,0.3649
19.3747,0.4175
19.3747,1.6425
19.3642,1.6951
19.3344,1.7397
19.2898,1.7695
19.2372,1.7800
18.9622,1.7800
18.9096,1.7695
18.8650,1.7397
18.8352,1.6951
18.8247,1.6425
Z" /> 
<path style="fill:#B4A09A; fill-opacity:0.9000; stroke:none;fill-rule:evenodd;"
d="M 18.0247,0.4175
18.0352,0.3649
18.0650,0.3203
18.1096,0.2905
18.1622,0.2800
18.4372,0.2800
18.4898,0.2905
18.5344,0.3203
18.5642,0.3649
18.5747,0.4175
18.5747,1.6425
18.5642,1.6951
18.5344,1.7397
18.4898,1.7695
18.4372,1.7800
18.1622,1.7800
18.1096,1.7695
18.0650,1.7397
18.0352,1.6951
18.0247,1.6425
Z" /> 
<path style="fill:#B4A09A; fill-opacity:0.9000; stroke:none;fill-rule:evenodd;"
d="M 17.2247,0.4175
17.2352,0.3649
17.2650,0.3203
17.3096,0.2905
17.3622,0.2800
17.6372,0.2800
17.6898,0.2905
17.7344,0.3203
17.7642,0.3649
17.7747,0.4175
17.7747,1.6425
17.7642,1.6951
17.7344,1.7397
17.6898,1.7695
17.6372,1.7800
17.3622,1.7800
17.3096,1.7695
17.2650,1.7397
17.2352,1.6951
17.2247,1.6425
Z" /> 
<path style="fill:#B4A09A; fill-opacity:0.9000; stroke:none;fill-rule:evenodd;"
d="M 16.4247,0.4175
16.4352,0.3649
16.4650,0.3203
16.5096,0.2905
16.5622,0.2800
16.8372,0.2800
16.8898,0.2905
16.9344,0.3203
16.9642,0.3649
16.9747,0.4175
16.9747,1.6425
16.9642,1.6951
16.9344,1.7397
16.8898,1.7695
16.8372,1.7800
16.5622,1.7800
16.5096,1.7695
16.4650,1.7397
16.4352,1.6951
16.4247,1.6425
Z" /> 
<path style="fill:#B4A09A; fill-opacity:0.9000; stroke:none;fill-rule:evenodd;"
d="M 15.6247,0.4175
15.6352,0.3649
15.6650,0.3203
15.7096,0.2905
15.7622,0.2800
16.0372,0.2800
16.0898,0.2905
16.1344,0.3203
16.1642,0.3649
16.1747,0.4175
16.1747,1.6425
16.1642,1.6951
16.1344,1.7397
16.0898,1.7695
16.0372,1.7800
15.7622,1.7800
15.7096,1.7695
15.6650,1.7397
15.6352,1.6951
15.6247,1.6425
Z" /> 
<path style="fill:#B4A09A; fill-opacity:0.9000; stroke:none;fill-rule:evenodd;"
d="M 14.8247,0.4175
14.8352,0.3649
14.8650,0.3203
14.9096,0.2905
14.9622,0.2800
15.2372,0.2800
15.2898,0.2905
15.3344,0.3203
15.3642,0.3649
15.3747,0.4175
15.3747,1.6425
15.3642,1.6951
15.3344,1.7397
15.2898,1.7695
15.2372,1.7800
14.9622,1.7800
14.9096,1.7695
14.8650,1.7397
14.8352,1.6951
14.8247,1.6425
Z" /> 
<path style="fill:#B4A09A; fill-opacity:0.9000; stroke:none;fill-rule:evenodd;"
d="M 14.0247,0.4175
14.0352,0.3649
14.0650,0.3203
14.1096,0.2905
14.1622,0.2800
14.4372,0.2800
14.4898,0.2905
14.5344,0.3203
14.5642,0.3649
14.5747,0.4175
14.5747,1.6425
14.5642,1.6951
14.5344,1.7397
14.4898,1.7695
14.4372,1.7800
14.1622,1.7800
14.1096,1.7695
14.0650,1.7397
14.0352,1.6951
14.0247,1.6425
Z" /> 
<path style="fill:#B4A09A; fill-opacity:0.9000; stroke:none;fill-rule:evenodd;"
d="M 13.2247,0.4175
13.2352,0.3649
13.2650,0.3203
13.3096,0.2905
13.3622,0.2800
13.6372,0.2800
13.6898,0.2905
13.7344,0.3203
13.7642,0.3649
13.7747,0.4175
13.7747,1.6425
13.7642,1.6951
13.7344,1.7397
13.6898,1.7695
13.6372,1.7800
13.3622,1.7800
13.3096,1.7695
13.2650,1.7397
13.2352,1.6951
13.2247,1.6425
Z" /> 
<path style="fill:#B4A09A; fill-opacity:0.9000; stroke:none;fill-rule:evenodd;"
d="M 12.4247,0.4175
12.4352,0.3649
12.4650,0.3203
12.5096,0.2905
12.5622,0.2800
12.8372,0.2800
12.8898,0.2905
12.9344,0.3203
12.9642,0.3649
12.9747,0.4175
12.9747,1.6425
12.9642,1.6951
12.9344,1.7397
12.8898,1.7695
12.8372,1.7800
12.5622,1.7800
12.5096,1.7695
12.4650,1.7397
12.4352,1.6951
12.4247,1.6425
Z" /> 
<path style="fill:#B4A09A; fill-opacity:0.9000; stroke:none;fill-rule:evenodd;"
d="M 11.6247,0.4175
11.6352,0.3649
11.6650,0.3203
11.7096,0.2905
11.7622,0.2800
12.0372,0.2800
12.0898,0.2905
12.1344,0.3203
12.1642,0.3649
12.1747,0.4175
12.1747,1.6425
12.1642,1.6951
12.1344,1.7397
12.0898,1.7695
12.0372,1.7800
11.7622,1.7800
11.7096,1.7695
11.6650,1.7397
11.6352,1.6951
11.6247,1.6425
Z" /> 
<path style="fill:#B4A09A; fill-opacity:0.9000; stroke:none;fill-rule:evenodd;"
d="M 10.8247,0.4175
10.8352,0.3649
10.8650,0.3203
10.9096,0.2905
10.9622,0.2800
11.2372,0.2800
11.2898,0.2905
11.3344,0.3203
11.3642,0.3649
11.3747,0.4175
11.3747,1.6425
11.3642,1.6951
11.3344,1.7397
11.2898,1.7695
11.2372,1.7800
10.9622,1.7800
10.9096,1.7695
10.8650,1.7397
10.8352,1.6951
10.8247,1.6425
Z" /> 
<path style="fill:#B4A09A; fill-opacity:0.9000; stroke:none;fill-rule:evenodd;"
d="M 10.0247,0.4175
10.0352,0.3649
10.0650,0.3203
10.1096,0.2905
10.1622,0.2800
10.4372,0.2800
10.4898,0.2905
10.5344,0.3203
10.5642,0.3649
10.5747,0.4175
10.5747,1.6425
10.5642,1.6951
10.5344,1.7397
10.4898,1.7695
10.4372,1.7800
10.1622,1.7800
10.1096,1.7695
10.0650,1.7397
10.0352,1.6951
10.0247,1.6425
Z" /> 
<path style="fill:#B4A09A; fill-opacity:0.9000; stroke:none;fill-rule:evenodd;"
d="M 9.2247,0.4175
9.2352,0.3649
9.2650,0.3203
9.3096,0.2905
9.3622,0.2800
9.6372,0.2800
9.6898,0.2905
9.7344,0.3203
9.7642,0.3649
9.7747,0.4175
9.7747,1.6425
9.7642,1.6951
9.7344,1.7397
9.6898,1.7695
9.6372,1.7800
9.3622,1.7800
9.3096,1.7695
9.2650,1.7397
9.2352,1.6951
9.2247,1.6425
Z" /> 
<path style="fill:#B4A09A; fill-opacity:0.9000; stroke:none;fill-rule:evenodd;"
d="M 8.4247,0.4175
8.4352,0.3649
8.4650,0.3203
8.5096,0.2905
8.5622,0.2800
8.8372,0.2800
8.8898,0.2905
8.9344,0.3203
8.9642,0.3649
8.9747,0.4175
8.9747,1.6425
8.9642,1.6951
8.9344,1.7397
8.8898,1.7695
8.8372,1.7800
8.5622,1.7800
8.5096,1.7695
8.4650,1.7397
8.4352,1.6951
8.4247,1.6425
Z" /> 
<path style="fill:#B4A09A; fill-opacity:0.9000; stroke:none;fill-rule:evenodd;"
d="M 7.6247,0.4175
7.6352,0.3649
7.6650,0.3203
7.7096,0.2905
7.7622,0.2800
8.0372,0.2800
8.0898,0.2905
8.1344,0.3203
8.1642,0.3649
8.1747,0.4175
8.1747,1.6425
8.1642,1.6951
8.1344,1.7397
8.0898,1.7695
8.0372,1.7800
7.7622,1.7800
7.7096,1.7695
7.6650,1.7397
7.6352,1.6951
7.6247,1.6425
Z" /> 
</g>
<g style="fill:none; 
stroke:#F2EDA1; stroke-width:0.1588; stroke-opacity:1; 
stroke-linecap:round; stroke-linejoin:round;">
<text x="13.8997" y="9.3400"
textLength="5.6651" font-size="1.6933" lengthAdjust="spacingAndGlyphs"
text-anchor="middle" opacity="0">REF**</text>
<g class="stroked-text"><desc>REF**</desc>
<path d="M12.2064 9.2843
L11.7830 8.6795
" />
<path d="M11.4806 9.2843
L11.4806 8.0143
" />
<path d="M11.4806 8.0143
L11.9645 8.0143
" />
<path d="M11.9645 8.0143
L12.0854 8.0747
" />
<path d="M12.0854 8.0747
L12.1459 8.1352
" />
<path d="M12.1459 8.1352
L12.2064 8.2562
" />
<path d="M12.2064 8.2562
L12.2064 8.4376
" />
<path d="M12.2064 8.4376
L12.1459 8.5586
" />
<path d="M12.1459 8.5586
L12.0854 8.6190
" />
<path d="M12.0854 8.6190
L11.9645 8.6795
" />
<path d="M11.9645 8.6795
L11.4806 8.6795
" />
<path d="M12.7506 8.6190
L13.1740 8.6190
" />
<path d="M13.3554 9.2843
L12.7506 9.2843
" />
<path d="M12.7506 9.2843
L12.7506 8.0143
" />
<path d="M12.7506 8.0143
L13.3554 8.0143
" />
<path d="M14.3230 8.6190
L13.8997 8.6190
" />
<path d="M13.8997 9.2843
L13.8997 8.0143
" />
<path d="M13.8997 8.0143
L14.5045 8.0143
" />
<path d="M15.1697 8.0143
L15.1697 8.3167
" />
<path d="M14.8673 8.1957
L15.1697 8.3167
" />
<path d="M15.1697 8.3167
L15.4721 8.1957
" />
<path d="M14.9883 8.5586
L15.1697 8.3167
" />
<path d="M15.1697 8.3167
L15.3511 8.5586
" />
<path d="M16.1373 8.0143
L16.1373 8.3167
" />
<path d="M15.8349 8.1957
L16.1373 8.3167
" />
<path d="M16.1373 8.3167
L16.4397 8.1957
" />
<path d="M15.9559 8.5586
L16.1373 8.3167
" />
<path d="M16.1373 8.3167
L16.3187 8.5586
" />
</g></g>
<g style="fill:none; 
stroke:#F2EDA1; stroke-width:0.1200; stroke-opacity:1; 
stroke-linecap:round; stroke-linejoin:round;">
<path d="M6.7897 1.5950
L6.7897 2.1700
" />
<path d="M6.7897 15.8150
L6.7897 15.2400
" />
<path d="M7.3647 1.5950
L6.7897 1.5950
" />
<path d="M7.3647 15.8150
L6.7897 15.8150
" />
<path d="M20.4347 1.5950
L21.0097 1.5950
" />
<path d="M20.4347 15.8150
L21.0097 15.8150
" />
<path d="M21.0097 1.5950
L21.0097 2.1700
" />
<path d="M21.0097 15.8150
L21.0097 15.2400
" />
<path style="fill:#F2EDA1; fill-opacity:1.0000; 
stroke:#F2EDA1; stroke-width:0.1200; stroke-opacity:1; 
stroke-linecap:round; stroke-linejoin:round;fill-rule:evenodd;"
d="M 6.1872,2.1700
5.8472,1.7000
6.5272,1.7000
Z" /> 
</g>
<g style="fill:none; 
stroke:#FF26E2; stroke-width:0.0500; stroke-opacity:1; 
stroke-linecap:round; stroke-linejoin:round;">
<path d="M5.2197 2.1850
L5.2197 8.7050
" />
<path d="M5.2197 15.2250
L5.2197 8.7050
" />
<path d="M6.6497 1.4550
L6.6497 2.1850
" />
<path d="M6.6497 2.1850
L5.2197 2.1850
" />
<path d="M6.6497 15.2250
L5.2197 15.2250
" />
<path d="M6.6497 15.9550
L6.6497 15.2250
" />
<path d="M7.3797 0.0250
L7.3797 1.4550
" />
<path d="M7.3797 1.4550
L6.6497 1.4550
" />
<path d="M7.3797 15.9550
L6.6497 15.9550
" />
<path d="M7.3797 17.3850
L7.3797 15.9550
" />
<path d="M13.8997 0.0250
L7.3797 0.0250
" />
<path d="M13.8997 0.0250
L20.4197 0.0250
" />
<path d="M13.8997 17.3850
L7.3797 17.3850
" />
<path d="M13.8997 17.3850
L20.4197 17.3850
" />
<path d="M20.4197 0.0250
L20.4197 1.4550
" />
<path d="M20.4197 1.4550
L21.1497 1.4550
" />
<path d="M20.4197 15.9550
L21.1497 15.9550
" />
<path d="M20.4197 17.3850
L20.4197 15.9550
" />
<path d="M21.1497 1.4550
L21.1497 2.1850
" />
<path d="M21.1497 2.1850
L22.5797 2.1850
" />
<path d="M21.1497 15.2250
L22.5797 15.2250
" />
<path d="M21.1497 15.9550
L21.1497 15.2250
" />
<path d="M22.5797 2.1850
L22.5797 8.7050
" />
<path d="M22.5797 15.2250
L22.5797 8.7050
" />
</g>
<g style="fill:none; 
stroke:#AFAFAF; stroke-width:0.1588; stroke-opacity:1; 
stroke-linecap:round; stroke-linejoin:round;">
<text x="13.8997" y="9.3400"
textLength="27.7994" font-size="1.6933" lengthAdjust="spacingAndGlyphs"
text-anchor="middle" opacity="0">LQFP-64_14x14mm_P0.8mm</text>
<g class="stroked-text"><desc>LQFP-64_14x14mm_P0.8mm</desc>
<path d="M1.0183 9.2843
L0.4135 9.2843
" />
<path d="M0.4135 9.2843
L0.4135 8.0143
" />
<path d="M2.2883 9.4052
L2.1673 9.3447
" />
<path d="M2.1673 9.3447
L2.0464 9.2238
" />
<path d="M2.0464 9.2238
L1.8649 9.0424
" />
<path d="M1.8649 9.0424
L1.7440 8.9819
" />
<path d="M1.7440 8.9819
L1.6230 8.9819
" />
<path d="M1.6835 9.2843
L1.5626 9.2238
" />
<path d="M1.5626 9.2238
L1.4416 9.1028
" />
<path d="M1.4416 9.1028
L1.3811 8.8609
" />
<path d="M1.3811 8.8609
L1.3811 8.4376
" />
<path d="M1.3811 8.4376
L1.4416 8.1957
" />
<path d="M1.4416 8.1957
L1.5626 8.0747
" />
<path d="M1.5626 8.0747
L1.6835 8.0143
" />
<path d="M1.6835 8.0143
L1.9254 8.0143
" />
<path d="M1.9254 8.0143
L2.0464 8.0747
" />
<path d="M2.0464 8.0747
L2.1673 8.1957
" />
<path d="M2.1673 8.1957
L2.2278 8.4376
" />
<path d="M2.2278 8.4376
L2.2278 8.8609
" />
<path d="M2.2278 8.8609
L2.1673 9.1028
" />
<path d="M2.1673 9.1028
L2.0464 9.2238
" />
<path d="M2.0464 9.2238
L1.9254 9.2843
" />
<path d="M1.9254 9.2843
L1.6835 9.2843
" />
<path d="M3.1954 8.6190
L2.7721 8.6190
" />
<path d="M2.7721 9.2843
L2.7721 8.0143
" />
<path d="M2.7721 8.0143
L3.3768 8.0143
" />
<path d="M3.8606 9.2843
L3.8606 8.0143
" />
<path d="M3.8606 8.0143
L4.3445 8.0143
" />
<path d="M4.3445 8.0143
L4.4654 8.0747
" />
<path d="M4.4654 8.0747
L4.5259 8.1352
" />
<path d="M4.5259 8.1352
L4.5864 8.2562
" />
<path d="M4.5864 8.2562
L4.5864 8.4376
" />
<path d="M4.5864 8.4376
L4.5259 8.5586
" />
<path d="M4.5259 8.5586
L4.4654 8.6190
" />
<path d="M4.4654 8.6190
L4.3445 8.6795
" />
<path d="M4.3445 8.6795
L3.8606 8.6795
" />
<path d="M5.1306 8.8005
L6.0983 8.8005
" />
<path d="M7.2473 8.0143
L7.0054 8.0143
" />
<path d="M7.0054 8.0143
L6.8845 8.0747
" />
<path d="M6.8845 8.0747
L6.8240 8.1352
" />
<path d="M6.8240 8.1352
L6.7030 8.3167
" />
<path d="M6.7030 8.3167
L6.6426 8.5586
" />
<path d="M6.6426 8.5586
L6.6426 9.0424
" />
<path d="M6.6426 9.0424
L6.7030 9.1633
" />
<path d="M6.7030 9.1633
L6.7635 9.2238
" />
<path d="M6.7635 9.2238
L6.8845 9.2843
" />
<path d="M6.8845 9.2843
L7.1264 9.2843
" />
<path d="M7.1264 9.2843
L7.2473 9.2238
" />
<path d="M7.2473 9.2238
L7.3078 9.1633
" />
<path d="M7.3078 9.1633
L7.3683 9.0424
" />
<path d="M7.3683 9.0424
L7.3683 8.7400
" />
<path d="M7.3683 8.7400
L7.3078 8.6190
" />
<path d="M7.3078 8.6190
L7.2473 8.5586
" />
<path d="M7.2473 8.5586
L7.1264 8.4981
" />
<path d="M7.1264 8.4981
L6.8845 8.4981
" />
<path d="M6.8845 8.4981
L6.7635 8.5586
" />
<path d="M6.7635 8.5586
L6.7030 8.6190
" />
<path d="M6.7030 8.6190
L6.6426 8.7400
" />
<path d="M8.4568 8.4376
L8.4568 9.2843
" />
<path d="M8.1545 7.9538
L7.8521 8.8609
" />
<path d="M7.8521 8.8609
L8.6383 8.8609
" />
<path d="M8.8197 9.4052
L9.7873 9.4052
" />
<path d="M10.7549 9.2843
L10.0292 9.2843
" />
<path d="M10.3921 9.2843
L10.3921 8.0143
" />
<path d="M10.3921 8.0143
L10.2711 8.1957
" />
<path d="M10.2711 8.1957
L10.1502 8.3167
" />
<path d="M10.1502 8.3167
L10.0292 8.3771
" />
<path d="M11.8435 8.4376
L11.8435 9.2843
" />
<path d="M11.5411 7.9538
L11.2387 8.8609
" />
<path d="M11.2387 8.8609
L12.0249 8.8609
" />
<path d="M12.3878 9.2843
L13.0530 8.4376
" />
<path d="M12.3878 8.4376
L13.0530 9.2843
" />
<path d="M14.2021 9.2843
L13.4764 9.2843
" />
<path d="M13.8392 9.2843
L13.8392 8.0143
" />
<path d="M13.8392 8.0143
L13.7183 8.1957
" />
<path d="M13.7183 8.1957
L13.5973 8.3167
" />
<path d="M13.5973 8.3167
L13.4764 8.3771
" />
<path d="M15.2906 8.4376
L15.2906 9.2843
" />
<path d="M14.9883 7.9538
L14.6859 8.8609
" />
<path d="M14.6859 8.8609
L15.4721 8.8609
" />
<path d="M15.9559 9.2843
L15.9559 8.4376
" />
<path d="M15.9559 8.5586
L16.0164 8.4981
" />
<path d="M16.0164 8.4981
L16.1373 8.4376
" />
<path d="M16.1373 8.4376
L16.3187 8.4376
" />
<path d="M16.3187 8.4376
L16.4397 8.4981
" />
<path d="M16.4397 8.4981
L16.5002 8.6190
" />
<path d="M16.5002 8.6190
L16.5002 9.2843
" />
<path d="M16.5002 8.6190
L16.5606 8.4981
" />
<path d="M16.5606 8.4981
L16.6816 8.4376
" />
<path d="M16.6816 8.4376
L16.8630 8.4376
" />
<path d="M16.8630 8.4376
L16.9840 8.4981
" />
<path d="M16.9840 8.4981
L17.0445 8.6190
" />
<path d="M17.0445 8.6190
L17.0445 9.2843
" />
<path d="M17.6492 9.2843
L17.6492 8.4376
" />
<path d="M17.6492 8.5586
L17.7097 8.4981
" />
<path d="M17.7097 8.4981
L17.8306 8.4376
" />
<path d="M17.8306 8.4376
L18.0121 8.4376
" />
<path d="M18.0121 8.4376
L18.1330 8.4981
" />
<path d="M18.1330 8.4981
L18.1935 8.6190
" />
<path d="M18.1935 8.6190
L18.1935 9.2843
" />
<path d="M18.1935 8.6190
L18.2540 8.4981
" />
<path d="M18.2540 8.4981
L18.3749 8.4376
" />
<path d="M18.3749 8.4376
L18.5564 8.4376
" />
<path d="M18.5564 8.4376
L18.6773 8.4981
" />
<path d="M18.6773 8.4981
L18.7378 8.6190
" />
<path d="M18.7378 8.6190
L18.7378 9.2843
" />
<path d="M19.0402 9.4052
L20.0078 9.4052
" />
<path d="M20.3102 9.2843
L20.3102 8.0143
" />
<path d="M20.3102 8.0143
L20.7940 8.0143
" />
<path d="M20.7940 8.0143
L20.9149 8.0747
" />
<path d="M20.9149 8.0747
L20.9754 8.1352
" />
<path d="M20.9754 8.1352
L21.0359 8.2562
" />
<path d="M21.0359 8.2562
L21.0359 8.4376
" />
<path d="M21.0359 8.4376
L20.9754 8.5586
" />
<path d="M20.9754 8.5586
L20.9149 8.6190
" />
<path d="M20.9149 8.6190
L20.7940 8.6795
" />
<path d="M20.7940 8.6795
L20.3102 8.6795
" />
<path d="M21.8221 8.0143
L21.9430 8.0143
" />
<path d="M21.9430 8.0143
L22.0640 8.0747
" />
<path d="M22.0640 8.0747
L22.1245 8.1352
" />
<path d="M22.1245 8.1352
L22.1849 8.2562
" />
<path d="M22.1849 8.2562
L22.2454 8.4981
" />
<path d="M22.2454 8.4981
L22.2454 8.8005
" />
<path d="M22.2454 8.8005
L22.1849 9.0424
" />
<path d="M22.1849 9.0424
L22.1245 9.1633
" />
<path d="M22.1245 9.1633
L22.0640 9.2238
" />
<path d="M22.0640 9.2238
L21.9430 9.2843
" />
<path d="M21.9430 9.2843
L21.8221 9.2843
" />
<path d="M21.8221 9.2843
L21.7011 9.2238
" />
<path d="M21.7011 9.2238
L21.6406 9.1633
" />
<path d="M21.6406 9.1633
L21.5802 9.0424
" />
<path d="M21.5802 9.0424
L21.5197 8.8005
" />
<path d="M21.5197 8.8005
L21.5197 8.4981
" />
<path d="M21.5197 8.4981
L21.5802 8.2562
" />
<path d="M21.5802 8.2562
L21.6406 8.1352
" />
<path d="M21.6406 8.1352
L21.7011 8.0747
" />
<path d="M21.7011 8.0747
L21.8221 8.0143
" />
<path d="M22.7897 9.1633
L22.8502 9.2238
" />
<path d="M22.8502 9.2238
L22.7897 9.2843
" />
<path d="M22.7897 9.2843
L22.7292 9.2238
" />
<path d="M22.7292 9.2238
L22.7897 9.1633
" />
<path d="M22.7897 9.1633
L22.7897 9.2843
" />
<path d="M23.5759 8.5586
L23.4549 8.4981
" />
<path d="M23.4549 8.4981
L23.3945 8.4376
" />
<path d="M23.3945 8.4376
L23.3340 8.3167
" />
<path d="M23.3340 8.3167
L23.3340 8.2562
" />
<path d="M23.3340 8.2562
L23.3945 8.1352
" />
<path d="M23.3945 8.1352
L23.4549 8.0747
" />
<path d="M23.4549 8.0747
L23.5759 8.0143
" />
<path d="M23.5759 8.0143
L23.8178 8.0143
" />
<path d="M23.8178 8.0143
L23.9387 8.0747
" />
<path d="M23.9387 8.0747
L23.9992 8.1352
" />
<path d="M23.9992 8.1352
L24.0597 8.2562
" />
<path d="M24.0597 8.2562
L24.0597 8.3167
" />
<path d="M24.0597 8.3167
L23.9992 8.4376
" />
<path d="M23.9992 8.4376
L23.9387 8.4981
" />
<path d="M23.9387 8.4981
L23.8178 8.5586
" />
<path d="M23.8178 8.5586
L23.5759 8.5586
" />
<path d="M23.5759 8.5586
L23.4549 8.6190
" />
<path d="M23.4549 8.6190
L23.3945 8.6795
" />
<path d="M23.3945 8.6795
L23.3340 8.8005
" />
<path d="M23.3340 8.8005
L23.3340 9.0424
" />
<path d="M23.3340 9.0424
L23.3945 9.1633
" />
<path d="M23.3945 9.1633
L23.4549 9.2238
" />
<path d="M23.4549 9.2238
L23.5759 9.2843
" />
<path d="M23.5759 9.2843
L23.8178 9.2843
" />
<path d="M23.8178 9.2843
L23.9387 9.2238
" />
<path d="M23.9387 9.2238
L23.9992 9.1633
" />
<path d="M23.9992 9.1633
L24.0597 9.0424
" />
<path d="M24.0597 9.0424
L24.0597 8.8005
" />
<path d="M24.0597 8.8005
L23.9992 8.6795
" />
<path d="M23.9992 8.6795
L23.9387 8.6190
" />
<path d="M23.9387 8.6190
L23.8178 8.5586
" />
<path d="M24.6040 9.2843
L24.6040 8.4376
" />
<path d="M24.6040 8.5586
L24.6645 8.4981
" />
<path d="M24.6645 8.4981
L24.7854 8.4376
" />
<path d="M24.7854 8.4376
L24.9668 8.4376
" />
<path d="M24.9668 8.4376
L25.0878 8.4981
" />
<path d="M25.0878 8.4981
L25.1483 8.6190
" />
<path d="M25.1483 8.6190
L25.1483 9.2843
" />
<path d="M25.1483 8.6190
L25.2087 8.4981
" />
<path d="M25.2087 8.4981
L25.3297 8.4376
" />
<path d="M25.3297 8.4376
L25.5111 8.4376
" />
<path d="M25.5111 8.4376
L25.6321 8.4981
" />
<path d="M25.6321 8.4981
L25.6926 8.6190
" />
<path d="M25.6926 8.6190
L25.6926 9.2843
" />
<path d="M26.2973 9.2843
L26.2973 8.4376
" />
<path d="M26.2973 8.5586
L26.3578 8.4981
" />
<path d="M26.3578 8.4981
L26.4787 8.4376
" />
<path d="M26.4787 8.4376
L26.6602 8.4376
" />
<path d="M26.6602 8.4376
L26.7811 8.4981
" />
<path d="M26.7811 8.4981
L26.8416 8.6190
" />
<path d="M26.8416 8.6190
L26.8416 9.2843
" />
<path d="M26.8416 8.6190
L26.9021 8.4981
" />
<path d="M26.9021 8.4981
L27.0230 8.4376
" />
<path d="M27.0230 8.4376
L27.2045 8.4376
" />
<path d="M27.2045 8.4376
L27.3254 8.4981
" />
<path d="M27.3254 8.4981
L27.3859 8.6190
" />
<path d="M27.3859 8.6190
L27.3859 9.2843
" />
</g></g>
<g style="fill:none; 
stroke:#AFAFAF; stroke-width:0.1500; stroke-opacity:1; 
stroke-linecap:round; stroke-linejoin:round;">
<text x="13.8997" y="9.2050"
textLength="4.5357" font-size="1.3333" lengthAdjust="spacingAndGlyphs"
text-anchor="middle" opacity="0">REF**</text>
<g class="stroked-text"><desc>REF**</desc>
<path d="M12.5664 9.1598
L12.2330 8.6836
" />
<path d="M11.9949 9.1598
L11.9949 8.1598
" />
<path d="M11.9949 8.1598
L12.3759 8.1598
" />
<path d="M12.3759 8.1598
L12.4711 8.2074
" />
<path d="M12.4711 8.2074
L12.5187 8.2551
" />
<path d="M12.5187 8.2551
L12.5664 8.3503
" />
<path d="M12.5664 8.3503
L12.5664 8.4932
" />
<path d="M12.5664 8.4932
L12.5187 8.5884
" />
<path d="M12.5187 8.5884
L12.4711 8.6360
" />
<path d="M12.4711 8.6360
L12.3759 8.6836
" />
<path d="M12.3759 8.6836
L11.9949 8.6836
" />
<path d="M12.9949 8.6360
L13.3283 8.6360
" />
<path d="M13.4711 9.1598
L12.9949 9.1598
" />
<path d="M12.9949 9.1598
L12.9949 8.1598
" />
<path d="M12.9949 8.1598
L13.4711 8.1598
" />
<path d="M14.2330 8.6360
L13.8997 8.6360
" />
<path d="M13.8997 9.1598
L13.8997 8.1598
" />
<path d="M13.8997 8.1598
L14.3759 8.1598
" />
<path d="M14.8997 8.1598
L14.8997 8.3979
" />
<path d="M14.6616 8.3027
L14.8997 8.3979
" />
<path d="M14.8997 8.3979
L15.1378 8.3027
" />
<path d="M14.7568 8.5884
L14.8997 8.3979
" />
<path d="M14.8997 8.3979
L15.0426 8.5884
" />
<path d="M15.6616 8.1598
L15.6616 8.3979
" />
<path d="M15.4235 8.3027
L15.6616 8.3979
" />
<path d="M15.6616 8.3979
L15.8997 8.3027
" />
<path d="M15.5187 8.5884
L15.6616 8.3979
" />
<path d="M15.6616 8.3979
L15.8045 8.5884
" />
</g></g>
<g style="fill:none; 
stroke:#AFAFAF; stroke-width:0.1000; stroke-opacity:1; 
stroke-linecap:round; stroke-linejoin:round;">
<path d="M6.8997 2.7050
L7.8997 1.7050
" />
<path d="M6.8997 15.7050
L6.8997 2.7050
" />
<path d="M7.8997 1.7050
L20.8997 1.7050
" />
<path d="M20.8997 1.7050
L20.8997 15.7050
" />
<path d="M20.8997 15.7050
L6.8997 15.7050
" />
</g> 
</svg>
