<?xml version="1.0" standalone="no"?>
 <!DOCTYPE svg PUBLIC "-//W3C//DTD SVG 1.1//EN" 
 "http://www.w3.org/Graphics/SVG/1.1/DTD/svg11.dtd"> 
<svg
  xmlns:svg="http://www.w3.org/2000/svg"
  xmlns="http://www.w3.org/2000/svg"
  xmlns:xlink="http://www.w3.org/1999/xlink"
  version="1.1"
  width="35.6362mm" height="6.8326mm" viewBox="0.0000 0.0000 35.6362 6.8326">
<title>SVG Image created as working-brd.svg date 2024/04/12 01:59:32 </title>
  <desc>Image generated by PCBNEW </desc>
<g style="fill:#000000; fill-opacity:1.0000;stroke:#000000; stroke-opacity:1.0000;
stroke-linecap:round; stroke-linejoin:round;"
 transform="translate(0 0) scale(1 1)">
</g>
<g style="fill:#FFFFFF; fill-opacity:1.0000; stroke:none;">
<circle cx="17.8306" cy="3.4250" r="0.4000" /> 
</g>
<g style="fill:#FFFFFF; fill-opacity:1.0000; stroke:none;">
<circle cx="20.3306" cy="3.4250" r="0.4000" /> 
</g>
<g style="fill:#02FFEE; fill-opacity:0.4000; stroke:none;">
<circle cx="17.8306" cy="3.4250" r="0.8000" /> 
</g>
<g style="fill:#02FFEE; fill-opacity:0.4000; stroke:none;">
<circle cx="20.3306" cy="3.4250" r="0.8000" /> 
</g>
<g style="fill:#FFFFFF; fill-opacity:1.0000; stroke:none;">
<circle cx="17.8306" cy="3.4250" r="0.4000" /> 
</g>
<g style="fill:#FFFFFF; fill-opacity:1.0000; stroke:none;">
<circle cx="20.3306" cy="3.4250" r="0.4000" /> 
</g>
<g style="fill:#FFFFFF; fill-opacity:1.0000; stroke:none;">
<circle cx="17.8306" cy="3.4250" r="0.4000" /> 
</g>
<g style="fill:#FFFFFF; fill-opacity:1.0000; stroke:none;">
<circle cx="20.3306" cy="3.4250" r="0.4000" /> 
</g>
<g style="fill:#D864FF; fill-opacity:0.4000; stroke:none;">
<circle cx="17.8306" cy="3.4250" r="0.8000" /> 
</g>
<g style="fill:#D864FF; fill-opacity:0.4000; stroke:none;">
<circle cx="20.3306" cy="3.4250" r="0.8000" /> 
</g>
<g style="fill:none; 
stroke:#F2EDA1; stroke-width:0.1588; stroke-opacity:1; 
stroke-linecap:round; stroke-linejoin:round;">
<text x="17.8306" y="4.0600"
textLength="5.6651" font-size="1.6933" lengthAdjust="spacingAndGlyphs"
text-anchor="middle" opacity="0">REF**</text>
<g class="stroked-text"><desc>REF**</desc>
<path d="M16.1373 4.0043
L15.7140 3.3995
" />
<path d="M15.4116 4.0043
L15.4116 2.7343
" />
<path d="M15.4116 2.7343
L15.8954 2.7343
" />
<path d="M15.8954 2.7343
L16.0164 2.7947
" />
<path d="M16.0164 2.7947
L16.0768 2.8552
" />
<path d="M16.0768 2.8552
L16.1373 2.9762
" />
<path d="M16.1373 2.9762
L16.1373 3.1576
" />
<path d="M16.1373 3.1576
L16.0768 3.2786
" />
<path d="M16.0768 3.2786
L16.0164 3.3390
" />
<path d="M16.0164 3.3390
L15.8954 3.3995
" />
<path d="M15.8954 3.3995
L15.4116 3.3995
" />
<path d="M16.6816 3.3390
L17.1049 3.3390
" />
<path d="M17.2864 4.0043
L16.6816 4.0043
" />
<path d="M16.6816 4.0043
L16.6816 2.7343
" />
<path d="M16.6816 2.7343
L17.2864 2.7343
" />
<path d="M18.2540 3.3390
L17.8306 3.3390
" />
<path d="M17.8306 4.0043
L17.8306 2.7343
" />
<path d="M17.8306 2.7343
L18.4354 2.7343
" />
<path d="M19.1006 2.7343
L19.1006 3.0367
" />
<path d="M18.7983 2.9157
L19.1006 3.0367
" />
<path d="M19.1006 3.0367
L19.4030 2.9157
" />
<path d="M18.9192 3.2786
L19.1006 3.0367
" />
<path d="M19.1006 3.0367
L19.2821 3.2786
" />
<path d="M20.0683 2.7343
L20.0683 3.0367
" />
<path d="M19.7659 2.9157
L20.0683 3.0367
" />
<path d="M20.0683 3.0367
L20.3706 2.9157
" />
<path d="M19.8868 3.2786
L20.0683 3.0367
" />
<path d="M20.0683 3.0367
L20.2497 3.2786
" />
</g></g>
<g style="fill:none; 
stroke:#F2EDA1; stroke-width:0.1200; stroke-opacity:1; 
stroke-linecap:round; stroke-linejoin:round;">
<circle cx="19.0806" cy="3.4250" r="3.2700" /> 
</g>
<g style="fill:#FFFFFF; fill-opacity:1.0000; stroke:none;">
<circle cx="17.8306" cy="3.4250" r="0.4000" /> 
</g>
<g style="fill:#FFFFFF; fill-opacity:1.0000; stroke:none;">
<circle cx="20.3306" cy="3.4250" r="0.4000" /> 
</g>
<g style="fill:none; 
stroke:#FF26E2; stroke-width:0.0500; stroke-opacity:1; 
stroke-linecap:round; stroke-linejoin:round;">
<circle cx="19.0806" cy="3.4250" r="3.4000" /> 
</g>
<g style="fill:none; 
stroke:#AFAFAF; stroke-width:0.1588; stroke-opacity:1; 
stroke-linecap:round; stroke-linejoin:round;">
<text x="17.8306" y="4.0600"
textLength="35.6613" font-size="1.6933" lengthAdjust="spacingAndGlyphs"
text-anchor="middle" opacity="0">C_Radial_D6.3mm_H5.0mm_P2.50mm</text>
<g class="stroked-text"><desc>C_Radial_D6.3mm_H5.0mm_P2.50mm</desc>
<path d="M1.1392 3.8833
L1.0787 3.9438
" />
<path d="M1.0787 3.9438
L0.8973 4.0043
" />
<path d="M0.8973 4.0043
L0.7764 4.0043
" />
<path d="M0.7764 4.0043
L0.5949 3.9438
" />
<path d="M0.5949 3.9438
L0.4740 3.8228
" />
<path d="M0.4740 3.8228
L0.4135 3.7019
" />
<path d="M0.4135 3.7019
L0.3530 3.4600
" />
<path d="M0.3530 3.4600
L0.3530 3.2786
" />
<path d="M0.3530 3.2786
L0.4135 3.0367
" />
<path d="M0.4135 3.0367
L0.4740 2.9157
" />
<path d="M0.4740 2.9157
L0.5949 2.7947
" />
<path d="M0.5949 2.7947
L0.7764 2.7343
" />
<path d="M0.7764 2.7343
L0.8973 2.7343
" />
<path d="M0.8973 2.7343
L1.0787 2.7947
" />
<path d="M1.0787 2.7947
L1.1392 2.8552
" />
<path d="M1.3811 4.1252
L2.3487 4.1252
" />
<path d="M3.3768 4.0043
L2.9535 3.3995
" />
<path d="M2.6511 4.0043
L2.6511 2.7343
" />
<path d="M2.6511 2.7343
L3.1349 2.7343
" />
<path d="M3.1349 2.7343
L3.2559 2.7947
" />
<path d="M3.2559 2.7947
L3.3164 2.8552
" />
<path d="M3.3164 2.8552
L3.3768 2.9762
" />
<path d="M3.3768 2.9762
L3.3768 3.1576
" />
<path d="M3.3768 3.1576
L3.3164 3.2786
" />
<path d="M3.3164 3.2786
L3.2559 3.3390
" />
<path d="M3.2559 3.3390
L3.1349 3.3995
" />
<path d="M3.1349 3.3995
L2.6511 3.3995
" />
<path d="M4.4654 4.0043
L4.4654 3.3390
" />
<path d="M4.4654 3.3390
L4.4049 3.2181
" />
<path d="M4.4049 3.2181
L4.2840 3.1576
" />
<path d="M4.2840 3.1576
L4.0421 3.1576
" />
<path d="M4.0421 3.1576
L3.9211 3.2181
" />
<path d="M4.4654 3.9438
L4.3445 4.0043
" />
<path d="M4.3445 4.0043
L4.0421 4.0043
" />
<path d="M4.0421 4.0043
L3.9211 3.9438
" />
<path d="M3.9211 3.9438
L3.8606 3.8228
" />
<path d="M3.8606 3.8228
L3.8606 3.7019
" />
<path d="M3.8606 3.7019
L3.9211 3.5809
" />
<path d="M3.9211 3.5809
L4.0421 3.5205
" />
<path d="M4.0421 3.5205
L4.3445 3.5205
" />
<path d="M4.3445 3.5205
L4.4654 3.4600
" />
<path d="M5.6145 4.0043
L5.6145 2.7343
" />
<path d="M5.6145 3.9438
L5.4935 4.0043
" />
<path d="M5.4935 4.0043
L5.2516 4.0043
" />
<path d="M5.2516 4.0043
L5.1307 3.9438
" />
<path d="M5.1307 3.9438
L5.0702 3.8833
" />
<path d="M5.0702 3.8833
L5.0097 3.7624
" />
<path d="M5.0097 3.7624
L5.0097 3.3995
" />
<path d="M5.0097 3.3995
L5.0702 3.2786
" />
<path d="M5.0702 3.2786
L5.1307 3.2181
" />
<path d="M5.1307 3.2181
L5.2516 3.1576
" />
<path d="M5.2516 3.1576
L5.4935 3.1576
" />
<path d="M5.4935 3.1576
L5.6145 3.2181
" />
<path d="M6.2192 4.0043
L6.2192 3.1576
" />
<path d="M6.2192 2.7343
L6.1587 2.7947
" />
<path d="M6.1587 2.7947
L6.2192 2.8552
" />
<path d="M6.2192 2.8552
L6.2797 2.7947
" />
<path d="M6.2797 2.7947
L6.2192 2.7343
" />
<path d="M6.2192 2.7343
L6.2192 2.8552
" />
<path d="M7.3683 4.0043
L7.3683 3.3390
" />
<path d="M7.3683 3.3390
L7.3078 3.2181
" />
<path d="M7.3078 3.2181
L7.1868 3.1576
" />
<path d="M7.1868 3.1576
L6.9449 3.1576
" />
<path d="M6.9449 3.1576
L6.8240 3.2181
" />
<path d="M7.3683 3.9438
L7.2473 4.0043
" />
<path d="M7.2473 4.0043
L6.9449 4.0043
" />
<path d="M6.9449 4.0043
L6.8240 3.9438
" />
<path d="M6.8240 3.9438
L6.7635 3.8228
" />
<path d="M6.7635 3.8228
L6.7635 3.7019
" />
<path d="M6.7635 3.7019
L6.8240 3.5809
" />
<path d="M6.8240 3.5809
L6.9449 3.5205
" />
<path d="M6.9449 3.5205
L7.2473 3.5205
" />
<path d="M7.2473 3.5205
L7.3683 3.4600
" />
<path d="M8.1545 4.0043
L8.0335 3.9438
" />
<path d="M8.0335 3.9438
L7.9730 3.8228
" />
<path d="M7.9730 3.8228
L7.9730 2.7343
" />
<path d="M8.3359 4.1252
L9.3035 4.1252
" />
<path d="M9.6059 4.0043
L9.6059 2.7343
" />
<path d="M9.6059 2.7343
L9.9083 2.7343
" />
<path d="M9.9083 2.7343
L10.0897 2.7947
" />
<path d="M10.0897 2.7947
L10.2106 2.9157
" />
<path d="M10.2106 2.9157
L10.2711 3.0367
" />
<path d="M10.2711 3.0367
L10.3316 3.2786
" />
<path d="M10.3316 3.2786
L10.3316 3.4600
" />
<path d="M10.3316 3.4600
L10.2711 3.7019
" />
<path d="M10.2711 3.7019
L10.2106 3.8228
" />
<path d="M10.2106 3.8228
L10.0897 3.9438
" />
<path d="M10.0897 3.9438
L9.9083 4.0043
" />
<path d="M9.9083 4.0043
L9.6059 4.0043
" />
<path d="M11.4202 2.7343
L11.1783 2.7343
" />
<path d="M11.1783 2.7343
L11.0573 2.7947
" />
<path d="M11.0573 2.7947
L10.9968 2.8552
" />
<path d="M10.9968 2.8552
L10.8759 3.0367
" />
<path d="M10.8759 3.0367
L10.8154 3.2786
" />
<path d="M10.8154 3.2786
L10.8154 3.7624
" />
<path d="M10.8154 3.7624
L10.8759 3.8833
" />
<path d="M10.8759 3.8833
L10.9364 3.9438
" />
<path d="M10.9364 3.9438
L11.0573 4.0043
" />
<path d="M11.0573 4.0043
L11.2992 4.0043
" />
<path d="M11.2992 4.0043
L11.4202 3.9438
" />
<path d="M11.4202 3.9438
L11.4806 3.8833
" />
<path d="M11.4806 3.8833
L11.5411 3.7624
" />
<path d="M11.5411 3.7624
L11.5411 3.4600
" />
<path d="M11.5411 3.4600
L11.4806 3.3390
" />
<path d="M11.4806 3.3390
L11.4202 3.2786
" />
<path d="M11.4202 3.2786
L11.2992 3.2181
" />
<path d="M11.2992 3.2181
L11.0573 3.2181
" />
<path d="M11.0573 3.2181
L10.9364 3.2786
" />
<path d="M10.9364 3.2786
L10.8759 3.3390
" />
<path d="M10.8759 3.3390
L10.8154 3.4600
" />
<path d="M12.0854 3.8833
L12.1459 3.9438
" />
<path d="M12.1459 3.9438
L12.0854 4.0043
" />
<path d="M12.0854 4.0043
L12.0249 3.9438
" />
<path d="M12.0249 3.9438
L12.0854 3.8833
" />
<path d="M12.0854 3.8833
L12.0854 4.0043
" />
<path d="M12.5692 2.7343
L13.3554 2.7343
" />
<path d="M13.3554 2.7343
L12.9321 3.2181
" />
<path d="M12.9321 3.2181
L13.1135 3.2181
" />
<path d="M13.1135 3.2181
L13.2345 3.2786
" />
<path d="M13.2345 3.2786
L13.2949 3.3390
" />
<path d="M13.2949 3.3390
L13.3554 3.4600
" />
<path d="M13.3554 3.4600
L13.3554 3.7624
" />
<path d="M13.3554 3.7624
L13.2949 3.8833
" />
<path d="M13.2949 3.8833
L13.2345 3.9438
" />
<path d="M13.2345 3.9438
L13.1135 4.0043
" />
<path d="M13.1135 4.0043
L12.7507 4.0043
" />
<path d="M12.7507 4.0043
L12.6297 3.9438
" />
<path d="M12.6297 3.9438
L12.5692 3.8833
" />
<path d="M13.8997 4.0043
L13.8997 3.1576
" />
<path d="M13.8997 3.2786
L13.9602 3.2181
" />
<path d="M13.9602 3.2181
L14.0811 3.1576
" />
<path d="M14.0811 3.1576
L14.2626 3.1576
" />
<path d="M14.2626 3.1576
L14.3835 3.2181
" />
<path d="M14.3835 3.2181
L14.4440 3.3390
" />
<path d="M14.4440 3.3390
L14.4440 4.0043
" />
<path d="M14.4440 3.3390
L14.5045 3.2181
" />
<path d="M14.5045 3.2181
L14.6254 3.1576
" />
<path d="M14.6254 3.1576
L14.8068 3.1576
" />
<path d="M14.8068 3.1576
L14.9278 3.2181
" />
<path d="M14.9278 3.2181
L14.9883 3.3390
" />
<path d="M14.9883 3.3390
L14.9883 4.0043
" />
<path d="M15.5930 4.0043
L15.5930 3.1576
" />
<path d="M15.5930 3.2786
L15.6535 3.2181
" />
<path d="M15.6535 3.2181
L15.7745 3.1576
" />
<path d="M15.7745 3.1576
L15.9559 3.1576
" />
<path d="M15.9559 3.1576
L16.0768 3.2181
" />
<path d="M16.0768 3.2181
L16.1373 3.3390
" />
<path d="M16.1373 3.3390
L16.1373 4.0043
" />
<path d="M16.1373 3.3390
L16.1978 3.2181
" />
<path d="M16.1978 3.2181
L16.3187 3.1576
" />
<path d="M16.3187 3.1576
L16.5002 3.1576
" />
<path d="M16.5002 3.1576
L16.6211 3.2181
" />
<path d="M16.6211 3.2181
L16.6816 3.3390
" />
<path d="M16.6816 3.3390
L16.6816 4.0043
" />
<path d="M16.9840 4.1252
L17.9516 4.1252
" />
<path d="M18.2540 4.0043
L18.2540 2.7343
" />
<path d="M18.2540 3.3390
L18.9797 3.3390
" />
<path d="M18.9797 4.0043
L18.9797 2.7343
" />
<path d="M20.1892 2.7343
L19.5845 2.7343
" />
<path d="M19.5845 2.7343
L19.5240 3.3390
" />
<path d="M19.5240 3.3390
L19.5845 3.2786
" />
<path d="M19.5845 3.2786
L19.7054 3.2181
" />
<path d="M19.7054 3.2181
L20.0078 3.2181
" />
<path d="M20.0078 3.2181
L20.1287 3.2786
" />
<path d="M20.1287 3.2786
L20.1892 3.3390
" />
<path d="M20.1892 3.3390
L20.2497 3.4600
" />
<path d="M20.2497 3.4600
L20.2497 3.7624
" />
<path d="M20.2497 3.7624
L20.1892 3.8833
" />
<path d="M20.1892 3.8833
L20.1287 3.9438
" />
<path d="M20.1287 3.9438
L20.0078 4.0043
" />
<path d="M20.0078 4.0043
L19.7054 4.0043
" />
<path d="M19.7054 4.0043
L19.5845 3.9438
" />
<path d="M19.5845 3.9438
L19.5240 3.8833
" />
<path d="M20.7940 3.8833
L20.8545 3.9438
" />
<path d="M20.8545 3.9438
L20.7940 4.0043
" />
<path d="M20.7940 4.0043
L20.7335 3.9438
" />
<path d="M20.7335 3.9438
L20.7940 3.8833
" />
<path d="M20.7940 3.8833
L20.7940 4.0043
" />
<path d="M21.6406 2.7343
L21.7616 2.7343
" />
<path d="M21.7616 2.7343
L21.8826 2.7947
" />
<path d="M21.8826 2.7947
L21.9430 2.8552
" />
<path d="M21.9430 2.8552
L22.0035 2.9762
" />
<path d="M22.0035 2.9762
L22.0640 3.2181
" />
<path d="M22.0640 3.2181
L22.0640 3.5205
" />
<path d="M22.0640 3.5205
L22.0035 3.7624
" />
<path d="M22.0035 3.7624
L21.9430 3.8833
" />
<path d="M21.9430 3.8833
L21.8826 3.9438
" />
<path d="M21.8826 3.9438
L21.7616 4.0043
" />
<path d="M21.7616 4.0043
L21.6406 4.0043
" />
<path d="M21.6406 4.0043
L21.5197 3.9438
" />
<path d="M21.5197 3.9438
L21.4592 3.8833
" />
<path d="M21.4592 3.8833
L21.3987 3.7624
" />
<path d="M21.3987 3.7624
L21.3383 3.5205
" />
<path d="M21.3383 3.5205
L21.3383 3.2181
" />
<path d="M21.3383 3.2181
L21.3987 2.9762
" />
<path d="M21.3987 2.9762
L21.4592 2.8552
" />
<path d="M21.4592 2.8552
L21.5197 2.7947
" />
<path d="M21.5197 2.7947
L21.6406 2.7343
" />
<path d="M22.6083 4.0043
L22.6083 3.1576
" />
<path d="M22.6083 3.2786
L22.6687 3.2181
" />
<path d="M22.6687 3.2181
L22.7897 3.1576
" />
<path d="M22.7897 3.1576
L22.9711 3.1576
" />
<path d="M22.9711 3.1576
L23.0921 3.2181
" />
<path d="M23.0921 3.2181
L23.1526 3.3390
" />
<path d="M23.1526 3.3390
L23.1526 4.0043
" />
<path d="M23.1526 3.3390
L23.2130 3.2181
" />
<path d="M23.2130 3.2181
L23.3340 3.1576
" />
<path d="M23.3340 3.1576
L23.5154 3.1576
" />
<path d="M23.5154 3.1576
L23.6364 3.2181
" />
<path d="M23.6364 3.2181
L23.6968 3.3390
" />
<path d="M23.6968 3.3390
L23.6968 4.0043
" />
<path d="M24.3016 4.0043
L24.3016 3.1576
" />
<path d="M24.3016 3.2786
L24.3621 3.2181
" />
<path d="M24.3621 3.2181
L24.4830 3.1576
" />
<path d="M24.4830 3.1576
L24.6645 3.1576
" />
<path d="M24.6645 3.1576
L24.7854 3.2181
" />
<path d="M24.7854 3.2181
L24.8459 3.3390
" />
<path d="M24.8459 3.3390
L24.8459 4.0043
" />
<path d="M24.8459 3.3390
L24.9064 3.2181
" />
<path d="M24.9064 3.2181
L25.0273 3.1576
" />
<path d="M25.0273 3.1576
L25.2087 3.1576
" />
<path d="M25.2087 3.1576
L25.3297 3.2181
" />
<path d="M25.3297 3.2181
L25.3902 3.3390
" />
<path d="M25.3902 3.3390
L25.3902 4.0043
" />
<path d="M25.6926 4.1252
L26.6602 4.1252
" />
<path d="M26.9626 4.0043
L26.9626 2.7343
" />
<path d="M26.9626 2.7343
L27.4464 2.7343
" />
<path d="M27.4464 2.7343
L27.5673 2.7947
" />
<path d="M27.5673 2.7947
L27.6278 2.8552
" />
<path d="M27.6278 2.8552
L27.6883 2.9762
" />
<path d="M27.6883 2.9762
L27.6883 3.1576
" />
<path d="M27.6883 3.1576
L27.6278 3.2786
" />
<path d="M27.6278 3.2786
L27.5673 3.3390
" />
<path d="M27.5673 3.3390
L27.4464 3.3995
" />
<path d="M27.4464 3.3995
L26.9626 3.3995
" />
<path d="M28.1721 2.8552
L28.2326 2.7947
" />
<path d="M28.2326 2.7947
L28.3535 2.7343
" />
<path d="M28.3535 2.7343
L28.6559 2.7343
" />
<path d="M28.6559 2.7343
L28.7768 2.7947
" />
<path d="M28.7768 2.7947
L28.8373 2.8552
" />
<path d="M28.8373 2.8552
L28.8978 2.9762
" />
<path d="M28.8978 2.9762
L28.8978 3.0971
" />
<path d="M28.8978 3.0971
L28.8373 3.2786
" />
<path d="M28.8373 3.2786
L28.1116 4.0043
" />
<path d="M28.1116 4.0043
L28.8978 4.0043
" />
<path d="M29.4421 3.8833
L29.5026 3.9438
" />
<path d="M29.5026 3.9438
L29.4421 4.0043
" />
<path d="M29.4421 4.0043
L29.3816 3.9438
" />
<path d="M29.3816 3.9438
L29.4421 3.8833
" />
<path d="M29.4421 3.8833
L29.4421 4.0043
" />
<path d="M30.6516 2.7343
L30.0468 2.7343
" />
<path d="M30.0468 2.7343
L29.9864 3.3390
" />
<path d="M29.9864 3.3390
L30.0468 3.2786
" />
<path d="M30.0468 3.2786
L30.1678 3.2181
" />
<path d="M30.1678 3.2181
L30.4702 3.2181
" />
<path d="M30.4702 3.2181
L30.5911 3.2786
" />
<path d="M30.5911 3.2786
L30.6516 3.3390
" />
<path d="M30.6516 3.3390
L30.7121 3.4600
" />
<path d="M30.7121 3.4600
L30.7121 3.7624
" />
<path d="M30.7121 3.7624
L30.6516 3.8833
" />
<path d="M30.6516 3.8833
L30.5911 3.9438
" />
<path d="M30.5911 3.9438
L30.4702 4.0043
" />
<path d="M30.4702 4.0043
L30.1678 4.0043
" />
<path d="M30.1678 4.0043
L30.0468 3.9438
" />
<path d="M30.0468 3.9438
L29.9864 3.8833
" />
<path d="M31.4983 2.7343
L31.6192 2.7343
" />
<path d="M31.6192 2.7343
L31.7402 2.7947
" />
<path d="M31.7402 2.7947
L31.8006 2.8552
" />
<path d="M31.8006 2.8552
L31.8611 2.9762
" />
<path d="M31.8611 2.9762
L31.9216 3.2181
" />
<path d="M31.9216 3.2181
L31.9216 3.5205
" />
<path d="M31.9216 3.5205
L31.8611 3.7624
" />
<path d="M31.8611 3.7624
L31.8006 3.8833
" />
<path d="M31.8006 3.8833
L31.7402 3.9438
" />
<path d="M31.7402 3.9438
L31.6192 4.0043
" />
<path d="M31.6192 4.0043
L31.4983 4.0043
" />
<path d="M31.4983 4.0043
L31.3773 3.9438
" />
<path d="M31.3773 3.9438
L31.3168 3.8833
" />
<path d="M31.3168 3.8833
L31.2564 3.7624
" />
<path d="M31.2564 3.7624
L31.1959 3.5205
" />
<path d="M31.1959 3.5205
L31.1959 3.2181
" />
<path d="M31.1959 3.2181
L31.2564 2.9762
" />
<path d="M31.2564 2.9762
L31.3168 2.8552
" />
<path d="M31.3168 2.8552
L31.3773 2.7947
" />
<path d="M31.3773 2.7947
L31.4983 2.7343
" />
<path d="M32.4659 4.0043
L32.4659 3.1576
" />
<path d="M32.4659 3.2786
L32.5264 3.2181
" />
<path d="M32.5264 3.2181
L32.6473 3.1576
" />
<path d="M32.6473 3.1576
L32.8287 3.1576
" />
<path d="M32.8287 3.1576
L32.9497 3.2181
" />
<path d="M32.9497 3.2181
L33.0102 3.3390
" />
<path d="M33.0102 3.3390
L33.0102 4.0043
" />
<path d="M33.0102 3.3390
L33.0706 3.2181
" />
<path d="M33.0706 3.2181
L33.1916 3.1576
" />
<path d="M33.1916 3.1576
L33.3730 3.1576
" />
<path d="M33.3730 3.1576
L33.4940 3.2181
" />
<path d="M33.4940 3.2181
L33.5545 3.3390
" />
<path d="M33.5545 3.3390
L33.5545 4.0043
" />
<path d="M34.1592 4.0043
L34.1592 3.1576
" />
<path d="M34.1592 3.2786
L34.2197 3.2181
" />
<path d="M34.2197 3.2181
L34.3406 3.1576
" />
<path d="M34.3406 3.1576
L34.5221 3.1576
" />
<path d="M34.5221 3.1576
L34.6430 3.2181
" />
<path d="M34.6430 3.2181
L34.7035 3.3390
" />
<path d="M34.7035 3.3390
L34.7035 4.0043
" />
<path d="M34.7035 3.3390
L34.7640 3.2181
" />
<path d="M34.7640 3.2181
L34.8849 3.1576
" />
<path d="M34.8849 3.1576
L35.0664 3.1576
" />
<path d="M35.0664 3.1576
L35.1873 3.2181
" />
<path d="M35.1873 3.2181
L35.2478 3.3390
" />
<path d="M35.2478 3.3390
L35.2478 4.0043
" />
</g></g>
<g style="fill:none; 
stroke:#AFAFAF; stroke-width:0.1500; stroke-opacity:1; 
stroke-linecap:round; stroke-linejoin:round;">
<text x="19.0806" y="3.9250"
textLength="4.5357" font-size="1.3333" lengthAdjust="spacingAndGlyphs"
text-anchor="middle" opacity="0">REF**</text>
<g class="stroked-text"><desc>REF**</desc>
<path d="M17.7473 3.8798
L17.4140 3.4036
" />
<path d="M17.1759 3.8798
L17.1759 2.8798
" />
<path d="M17.1759 2.8798
L17.5568 2.8798
" />
<path d="M17.5568 2.8798
L17.6521 2.9274
" />
<path d="M17.6521 2.9274
L17.6997 2.9751
" />
<path d="M17.6997 2.9751
L17.7473 3.0703
" />
<path d="M17.7473 3.0703
L17.7473 3.2132
" />
<path d="M17.7473 3.2132
L17.6997 3.3084
" />
<path d="M17.6997 3.3084
L17.6521 3.3560
" />
<path d="M17.6521 3.3560
L17.5568 3.4036
" />
<path d="M17.5568 3.4036
L17.1759 3.4036
" />
<path d="M18.1759 3.3560
L18.5092 3.3560
" />
<path d="M18.6521 3.8798
L18.1759 3.8798
" />
<path d="M18.1759 3.8798
L18.1759 2.8798
" />
<path d="M18.1759 2.8798
L18.6521 2.8798
" />
<path d="M19.4140 3.3560
L19.0806 3.3560
" />
<path d="M19.0806 3.8798
L19.0806 2.8798
" />
<path d="M19.0806 2.8798
L19.5568 2.8798
" />
<path d="M20.0806 2.8798
L20.0806 3.1179
" />
<path d="M19.8426 3.0227
L20.0806 3.1179
" />
<path d="M20.0806 3.1179
L20.3187 3.0227
" />
<path d="M19.9378 3.3084
L20.0806 3.1179
" />
<path d="M20.0806 3.1179
L20.2235 3.3084
" />
<path d="M20.8426 2.8798
L20.8426 3.1179
" />
<path d="M20.6045 3.0227
L20.8426 3.1179
" />
<path d="M20.8426 3.1179
L21.0806 3.0227
" />
<path d="M20.6997 3.3084
L20.8426 3.1179
" />
<path d="M20.8426 3.1179
L20.9854 3.3084
" />
</g></g>
<g style="fill:none; 
stroke:#AFAFAF; stroke-width:0.1000; stroke-opacity:1; 
stroke-linecap:round; stroke-linejoin:round;">
<circle cx="19.0806" cy="3.4250" r="3.1500" /> 
</g> 
</svg>
