<?xml version="1.0" standalone="no"?>
 <!DOCTYPE svg PUBLIC "-//W3C//DTD SVG 1.1//EN" 
 "http://www.w3.org/Graphics/SVG/1.1/DTD/svg11.dtd"> 
<svg
  xmlns:svg="http://www.w3.org/2000/svg"
  xmlns="http://www.w3.org/2000/svg"
  xmlns:xlink="http://www.w3.org/1999/xlink"
  version="1.1"
  width="47.2694mm" height="16.2814mm" viewBox="0.0000 0.0000 47.2694 16.2814">
<title>SVG Image created as working-brd.svg date 2024/04/13 00:30:02 </title>
  <desc>Image generated by PCBNEW </desc>
<g style="fill:#000000; fill-opacity:1.0000;stroke:#000000; stroke-opacity:1.0000;
stroke-linecap:round; stroke-linejoin:round;"
 transform="translate(0 0) scale(1 1)">
<path style="fill:#C83434; fill-opacity:1.0000; stroke:none;fill-rule:evenodd;"
d="M 16.8614,2.2950
16.8614,1.2950
19.3614,1.2950
19.3614,2.2950
Z" /> 
<path style="fill:#C83434; fill-opacity:1.0000; stroke:none;fill-rule:evenodd;"
d="M 16.8614,4.8350
16.8614,3.8350
19.3614,3.8350
19.3614,4.8350
Z" /> 
<path style="fill:#C83434; fill-opacity:1.0000; stroke:none;fill-rule:evenodd;"
d="M 16.8614,7.3750
16.8614,6.3750
19.3614,6.3750
19.3614,7.3750
Z" /> 
<path style="fill:#C83434; fill-opacity:1.0000; stroke:none;fill-rule:evenodd;"
d="M 16.8614,9.9150
16.8614,8.9150
19.3614,8.9150
19.3614,9.9150
Z" /> 
<path style="fill:#C83434; fill-opacity:1.0000; stroke:none;fill-rule:evenodd;"
d="M 16.8614,12.4550
16.8614,11.4550
19.3614,11.4550
19.3614,12.4550
Z" /> 
<path style="fill:#C83434; fill-opacity:1.0000; stroke:none;fill-rule:evenodd;"
d="M 16.8614,14.9950
16.8614,13.9950
19.3614,13.9950
19.3614,14.9950
Z" /> 
<path style="fill:#D864FF; fill-opacity:0.4000; stroke:none;fill-rule:evenodd;"
d="M 16.8614,2.2950
16.8614,1.2950
19.3614,1.2950
19.3614,2.2950
Z" /> 
<path style="fill:#D864FF; fill-opacity:0.4000; stroke:none;fill-rule:evenodd;"
d="M 16.8614,4.8350
16.8614,3.8350
19.3614,3.8350
19.3614,4.8350
Z" /> 
<path style="fill:#D864FF; fill-opacity:0.4000; stroke:none;fill-rule:evenodd;"
d="M 16.8614,7.3750
16.8614,6.3750
19.3614,6.3750
19.3614,7.3750
Z" /> 
<path style="fill:#D864FF; fill-opacity:0.4000; stroke:none;fill-rule:evenodd;"
d="M 16.8614,9.9150
16.8614,8.9150
19.3614,8.9150
19.3614,9.9150
Z" /> 
<path style="fill:#D864FF; fill-opacity:0.4000; stroke:none;fill-rule:evenodd;"
d="M 16.8614,12.4550
16.8614,11.4550
19.3614,11.4550
19.3614,12.4550
Z" /> 
<path style="fill:#D864FF; fill-opacity:0.4000; stroke:none;fill-rule:evenodd;"
d="M 16.8614,14.9950
16.8614,13.9950
19.3614,13.9950
19.3614,14.9950
Z" /> 
<path style="fill:#B4A09A; fill-opacity:0.9000; stroke:none;fill-rule:evenodd;"
d="M 16.8614,2.2950
16.8614,1.2950
19.3614,1.2950
19.3614,2.2950
Z" /> 
<path style="fill:#B4A09A; fill-opacity:0.9000; stroke:none;fill-rule:evenodd;"
d="M 16.8614,4.8350
16.8614,3.8350
19.3614,3.8350
19.3614,4.8350
Z" /> 
<path style="fill:#B4A09A; fill-opacity:0.9000; stroke:none;fill-rule:evenodd;"
d="M 16.8614,7.3750
16.8614,6.3750
19.3614,6.3750
19.3614,7.3750
Z" /> 
<path style="fill:#B4A09A; fill-opacity:0.9000; stroke:none;fill-rule:evenodd;"
d="M 16.8614,9.9150
16.8614,8.9150
19.3614,8.9150
19.3614,9.9150
Z" /> 
<path style="fill:#B4A09A; fill-opacity:0.9000; stroke:none;fill-rule:evenodd;"
d="M 16.8614,12.4550
16.8614,11.4550
19.3614,11.4550
19.3614,12.4550
Z" /> 
<path style="fill:#B4A09A; fill-opacity:0.9000; stroke:none;fill-rule:evenodd;"
d="M 16.8614,14.9950
16.8614,13.9950
19.3614,13.9950
19.3614,14.9950
Z" /> 
</g>
<g style="fill:none; 
stroke:#F2EDA1; stroke-width:0.1588; stroke-opacity:1; 
stroke-linecap:round; stroke-linejoin:round;">
<text x="23.6364" y="8.7800"
textLength="5.6651" font-size="1.6933" lengthAdjust="spacingAndGlyphs"
text-anchor="middle" opacity="0">REF**</text>
<g class="stroked-text"><desc>REF**</desc>
<path d="M21.9430 8.7243
L21.5197 8.1195
" />
<path d="M21.2173 8.7243
L21.2173 7.4543
" />
<path d="M21.2173 7.4543
L21.7011 7.4543
" />
<path d="M21.7011 7.4543
L21.8221 7.5147
" />
<path d="M21.8221 7.5147
L21.8826 7.5752
" />
<path d="M21.8826 7.5752
L21.9430 7.6962
" />
<path d="M21.9430 7.6962
L21.9430 7.8776
" />
<path d="M21.9430 7.8776
L21.8826 7.9986
" />
<path d="M21.8826 7.9986
L21.8221 8.0590
" />
<path d="M21.8221 8.0590
L21.7011 8.1195
" />
<path d="M21.7011 8.1195
L21.2173 8.1195
" />
<path d="M22.4873 8.0590
L22.9107 8.0590
" />
<path d="M23.0921 8.7243
L22.4873 8.7243
" />
<path d="M22.4873 8.7243
L22.4873 7.4543
" />
<path d="M22.4873 7.4543
L23.0921 7.4543
" />
<path d="M24.0597 8.0590
L23.6364 8.0590
" />
<path d="M23.6364 8.7243
L23.6364 7.4543
" />
<path d="M23.6364 7.4543
L24.2411 7.4543
" />
<path d="M24.9064 7.4543
L24.9064 7.7567
" />
<path d="M24.6040 7.6357
L24.9064 7.7567
" />
<path d="M24.9064 7.7567
L25.2087 7.6357
" />
<path d="M24.7249 7.9986
L24.9064 7.7567
" />
<path d="M24.9064 7.7567
L25.0878 7.9986
" />
<path d="M25.8740 7.4543
L25.8740 7.7567
" />
<path d="M25.5716 7.6357
L25.8740 7.7567
" />
<path d="M25.8740 7.7567
L26.1764 7.6357
" />
<path d="M25.6926 7.9986
L25.8740 7.7567
" />
<path d="M25.8740 7.7567
L26.0554 7.9986
" />
</g></g>
<g style="fill:none; 
stroke:#F2EDA1; stroke-width:0.1200; stroke-opacity:1; 
stroke-linecap:round; stroke-linejoin:round;">
<path d="M16.5414 0.9750
L18.1114 0.9750
" />
<path d="M16.5414 1.7950
L16.5414 0.9750
" />
<path d="M19.6814 1.3550
L21.7914 1.3550
" />
<path d="M19.6814 2.2350
L21.7914 2.2350
" />
<path d="M19.6814 3.8950
L21.7914 3.8950
" />
<path d="M19.6814 4.7750
L21.7914 4.7750
" />
<path d="M19.6814 6.4350
L21.7914 6.4350
" />
<path d="M19.6814 7.3150
L21.7914 7.3150
" />
<path d="M19.6814 8.9750
L21.7914 8.9750
" />
<path d="M19.6814 9.8550
L21.7914 9.8550
" />
<path d="M19.6814 11.5150
L21.7914 11.5150
" />
<path d="M19.6814 12.3950
L21.7914 12.3950
" />
<path d="M19.6814 14.0550
L21.7914 14.0550
" />
<path d="M19.6814 14.9350
L21.7914 14.9350
" />
<path d="M21.7914 0.4050
L24.5314 0.4050
" />
<path d="M21.7914 15.8850
L21.7914 0.4050
" />
<path d="M24.5314 0.4050
L24.5314 15.8850
" />
<path d="M24.5314 1.3550
L30.5314 1.3550
" />
<path d="M24.5314 3.8950
L30.5314 3.8950
" />
<path d="M24.5314 6.4350
L30.5314 6.4350
" />
<path d="M24.5314 8.9750
L30.5314 8.9750
" />
<path d="M24.5314 11.5150
L30.5314 11.5150
" />
<path d="M24.5314 14.0550
L30.5314 14.0550
" />
<path d="M24.5314 15.8850
L21.7914 15.8850
" />
<path d="M30.5314 1.3550
L30.5314 2.2350
" />
<path d="M30.5314 2.2350
L24.5314 2.2350
" />
<path d="M30.5314 3.8950
L30.5314 4.7750
" />
<path d="M30.5314 4.7750
L24.5314 4.7750
" />
<path d="M30.5314 6.4350
L30.5314 7.3150
" />
<path d="M30.5314 7.3150
L24.5314 7.3150
" />
<path d="M30.5314 8.9750
L30.5314 9.8550
" />
<path d="M30.5314 9.8550
L24.5314 9.8550
" />
<path d="M30.5314 11.5150
L30.5314 12.3950
" />
<path d="M30.5314 12.3950
L24.5314 12.3950
" />
<path d="M30.5314 14.0550
L30.5314 14.9350
" />
<path d="M30.5314 14.9350
L24.5314 14.9350
" />
<path style="fill:#F2EDA1; fill-opacity:1.0000; stroke:none;fill-rule:evenodd;"
d="M 24.5314,2.1750
24.5314,1.4150
30.5314,1.4150
30.5314,2.1750
Z" /> 
</g>
<g style="fill:none; 
stroke:#FF26E2; stroke-width:0.0500; stroke-opacity:1; 
stroke-linecap:round; stroke-linejoin:round;">
<path d="M16.3564 0.0250
L30.9164 0.0250
" />
<path d="M16.3564 16.2650
L16.3564 0.0250
" />
<path d="M30.9164 0.0250
L30.9164 16.2650
" />
<path d="M30.9164 16.2650
L16.3564 16.2650
" />
</g>
<g style="fill:none; 
stroke:#AFAFAF; stroke-width:0.1588; stroke-opacity:1; 
stroke-linecap:round; stroke-linejoin:round;">
<text x="23.6364" y="8.7800"
textLength="47.2727" font-size="1.6933" lengthAdjust="spacingAndGlyphs"
text-anchor="middle" opacity="0">Harwin_M20-89006xx_1x06_P2.54mm_Horizontal</text>
<g class="stroked-text"><desc>Harwin_M20-89006xx_1x06_P2.54mm_Horizontal</desc>
<path d="M0.4135 8.7243
L0.4135 7.4543
" />
<path d="M0.4135 8.0590
L1.1392 8.0590
" />
<path d="M1.1392 8.7243
L1.1392 7.4543
" />
<path d="M2.2883 8.7243
L2.2883 8.0590
" />
<path d="M2.2883 8.0590
L2.2278 7.9381
" />
<path d="M2.2278 7.9381
L2.1068 7.8776
" />
<path d="M2.1068 7.8776
L1.8649 7.8776
" />
<path d="M1.8649 7.8776
L1.7440 7.9381
" />
<path d="M2.2883 8.6638
L2.1673 8.7243
" />
<path d="M2.1673 8.7243
L1.8649 8.7243
" />
<path d="M1.8649 8.7243
L1.7440 8.6638
" />
<path d="M1.7440 8.6638
L1.6835 8.5428
" />
<path d="M1.6835 8.5428
L1.6835 8.4219
" />
<path d="M1.6835 8.4219
L1.7440 8.3009
" />
<path d="M1.7440 8.3009
L1.8649 8.2405
" />
<path d="M1.8649 8.2405
L2.1673 8.2405
" />
<path d="M2.1673 8.2405
L2.2883 8.1800
" />
<path d="M2.8930 8.7243
L2.8930 7.8776
" />
<path d="M2.8930 8.1195
L2.9535 7.9986
" />
<path d="M2.9535 7.9986
L3.0140 7.9381
" />
<path d="M3.0140 7.9381
L3.1349 7.8776
" />
<path d="M3.1349 7.8776
L3.2559 7.8776
" />
<path d="M3.5583 7.8776
L3.8002 8.7243
" />
<path d="M3.8002 8.7243
L4.0421 8.1195
" />
<path d="M4.0421 8.1195
L4.2840 8.7243
" />
<path d="M4.2840 8.7243
L4.5259 7.8776
" />
<path d="M5.0097 8.7243
L5.0097 7.8776
" />
<path d="M5.0097 7.4543
L4.9492 7.5147
" />
<path d="M4.9492 7.5147
L5.0097 7.5752
" />
<path d="M5.0097 7.5752
L5.0702 7.5147
" />
<path d="M5.0702 7.5147
L5.0097 7.4543
" />
<path d="M5.0097 7.4543
L5.0097 7.5752
" />
<path d="M5.6145 7.8776
L5.6145 8.7243
" />
<path d="M5.6145 7.9986
L5.6749 7.9381
" />
<path d="M5.6749 7.9381
L5.7959 7.8776
" />
<path d="M5.7959 7.8776
L5.9773 7.8776
" />
<path d="M5.9773 7.8776
L6.0983 7.9381
" />
<path d="M6.0983 7.9381
L6.1587 8.0590
" />
<path d="M6.1587 8.0590
L6.1587 8.7243
" />
<path d="M6.4611 8.8452
L7.4287 8.8452
" />
<path d="M7.7311 8.7243
L7.7311 7.4543
" />
<path d="M7.7311 7.4543
L8.1545 8.3614
" />
<path d="M8.1545 8.3614
L8.5778 7.4543
" />
<path d="M8.5778 7.4543
L8.5778 8.7243
" />
<path d="M9.1221 7.5752
L9.1826 7.5147
" />
<path d="M9.1826 7.5147
L9.3035 7.4543
" />
<path d="M9.3035 7.4543
L9.6059 7.4543
" />
<path d="M9.6059 7.4543
L9.7268 7.5147
" />
<path d="M9.7268 7.5147
L9.7873 7.5752
" />
<path d="M9.7873 7.5752
L9.8478 7.6962
" />
<path d="M9.8478 7.6962
L9.8478 7.8171
" />
<path d="M9.8478 7.8171
L9.7873 7.9986
" />
<path d="M9.7873 7.9986
L9.0616 8.7243
" />
<path d="M9.0616 8.7243
L9.8478 8.7243
" />
<path d="M10.6340 7.4543
L10.7549 7.4543
" />
<path d="M10.7549 7.4543
L10.8759 7.5147
" />
<path d="M10.8759 7.5147
L10.9364 7.5752
" />
<path d="M10.9364 7.5752
L10.9968 7.6962
" />
<path d="M10.9968 7.6962
L11.0573 7.9381
" />
<path d="M11.0573 7.9381
L11.0573 8.2405
" />
<path d="M11.0573 8.2405
L10.9968 8.4824
" />
<path d="M10.9968 8.4824
L10.9364 8.6033
" />
<path d="M10.9364 8.6033
L10.8759 8.6638
" />
<path d="M10.8759 8.6638
L10.7549 8.7243
" />
<path d="M10.7549 8.7243
L10.6340 8.7243
" />
<path d="M10.6340 8.7243
L10.5130 8.6638
" />
<path d="M10.5130 8.6638
L10.4526 8.6033
" />
<path d="M10.4526 8.6033
L10.3921 8.4824
" />
<path d="M10.3921 8.4824
L10.3316 8.2405
" />
<path d="M10.3316 8.2405
L10.3316 7.9381
" />
<path d="M10.3316 7.9381
L10.3921 7.6962
" />
<path d="M10.3921 7.6962
L10.4526 7.5752
" />
<path d="M10.4526 7.5752
L10.5130 7.5147
" />
<path d="M10.5130 7.5147
L10.6340 7.4543
" />
<path d="M11.6016 8.2405
L12.5692 8.2405
" />
<path d="M13.3554 7.9986
L13.2345 7.9381
" />
<path d="M13.2345 7.9381
L13.1740 7.8776
" />
<path d="M13.1740 7.8776
L13.1135 7.7567
" />
<path d="M13.1135 7.7567
L13.1135 7.6962
" />
<path d="M13.1135 7.6962
L13.1740 7.5752
" />
<path d="M13.1740 7.5752
L13.2345 7.5147
" />
<path d="M13.2345 7.5147
L13.3554 7.4543
" />
<path d="M13.3554 7.4543
L13.5973 7.4543
" />
<path d="M13.5973 7.4543
L13.7183 7.5147
" />
<path d="M13.7183 7.5147
L13.7787 7.5752
" />
<path d="M13.7787 7.5752
L13.8392 7.6962
" />
<path d="M13.8392 7.6962
L13.8392 7.7567
" />
<path d="M13.8392 7.7567
L13.7787 7.8776
" />
<path d="M13.7787 7.8776
L13.7183 7.9381
" />
<path d="M13.7183 7.9381
L13.5973 7.9986
" />
<path d="M13.5973 7.9986
L13.3554 7.9986
" />
<path d="M13.3554 7.9986
L13.2345 8.0590
" />
<path d="M13.2345 8.0590
L13.1740 8.1195
" />
<path d="M13.1740 8.1195
L13.1135 8.2405
" />
<path d="M13.1135 8.2405
L13.1135 8.4824
" />
<path d="M13.1135 8.4824
L13.1740 8.6033
" />
<path d="M13.1740 8.6033
L13.2345 8.6638
" />
<path d="M13.2345 8.6638
L13.3554 8.7243
" />
<path d="M13.3554 8.7243
L13.5973 8.7243
" />
<path d="M13.5973 8.7243
L13.7183 8.6638
" />
<path d="M13.7183 8.6638
L13.7787 8.6033
" />
<path d="M13.7787 8.6033
L13.8392 8.4824
" />
<path d="M13.8392 8.4824
L13.8392 8.2405
" />
<path d="M13.8392 8.2405
L13.7787 8.1195
" />
<path d="M13.7787 8.1195
L13.7183 8.0590
" />
<path d="M13.7183 8.0590
L13.5973 7.9986
" />
<path d="M14.4440 8.7243
L14.6859 8.7243
" />
<path d="M14.6859 8.7243
L14.8068 8.6638
" />
<path d="M14.8068 8.6638
L14.8673 8.6033
" />
<path d="M14.8673 8.6033
L14.9883 8.4219
" />
<path d="M14.9883 8.4219
L15.0487 8.1800
" />
<path d="M15.0487 8.1800
L15.0487 7.6962
" />
<path d="M15.0487 7.6962
L14.9883 7.5752
" />
<path d="M14.9883 7.5752
L14.9278 7.5147
" />
<path d="M14.9278 7.5147
L14.8068 7.4543
" />
<path d="M14.8068 7.4543
L14.5649 7.4543
" />
<path d="M14.5649 7.4543
L14.4440 7.5147
" />
<path d="M14.4440 7.5147
L14.3835 7.5752
" />
<path d="M14.3835 7.5752
L14.3230 7.6962
" />
<path d="M14.3230 7.6962
L14.3230 7.9986
" />
<path d="M14.3230 7.9986
L14.3835 8.1195
" />
<path d="M14.3835 8.1195
L14.4440 8.1800
" />
<path d="M14.4440 8.1800
L14.5649 8.2405
" />
<path d="M14.5649 8.2405
L14.8068 8.2405
" />
<path d="M14.8068 8.2405
L14.9278 8.1800
" />
<path d="M14.9278 8.1800
L14.9883 8.1195
" />
<path d="M14.9883 8.1195
L15.0487 7.9986
" />
<path d="M15.8349 7.4543
L15.9559 7.4543
" />
<path d="M15.9559 7.4543
L16.0768 7.5147
" />
<path d="M16.0768 7.5147
L16.1373 7.5752
" />
<path d="M16.1373 7.5752
L16.1978 7.6962
" />
<path d="M16.1978 7.6962
L16.2583 7.9381
" />
<path d="M16.2583 7.9381
L16.2583 8.2405
" />
<path d="M16.2583 8.2405
L16.1978 8.4824
" />
<path d="M16.1978 8.4824
L16.1373 8.6033
" />
<path d="M16.1373 8.6033
L16.0768 8.6638
" />
<path d="M16.0768 8.6638
L15.9559 8.7243
" />
<path d="M15.9559 8.7243
L15.8349 8.7243
" />
<path d="M15.8349 8.7243
L15.7140 8.6638
" />
<path d="M15.7140 8.6638
L15.6535 8.6033
" />
<path d="M15.6535 8.6033
L15.5930 8.4824
" />
<path d="M15.5930 8.4824
L15.5326 8.2405
" />
<path d="M15.5326 8.2405
L15.5326 7.9381
" />
<path d="M15.5326 7.9381
L15.5930 7.6962
" />
<path d="M15.5930 7.6962
L15.6535 7.5752
" />
<path d="M15.6535 7.5752
L15.7140 7.5147
" />
<path d="M15.7140 7.5147
L15.8349 7.4543
" />
<path d="M17.0445 7.4543
L17.1654 7.4543
" />
<path d="M17.1654 7.4543
L17.2864 7.5147
" />
<path d="M17.2864 7.5147
L17.3468 7.5752
" />
<path d="M17.3468 7.5752
L17.4073 7.6962
" />
<path d="M17.4073 7.6962
L17.4678 7.9381
" />
<path d="M17.4678 7.9381
L17.4678 8.2405
" />
<path d="M17.4678 8.2405
L17.4073 8.4824
" />
<path d="M17.4073 8.4824
L17.3468 8.6033
" />
<path d="M17.3468 8.6033
L17.2864 8.6638
" />
<path d="M17.2864 8.6638
L17.1654 8.7243
" />
<path d="M17.1654 8.7243
L17.0445 8.7243
" />
<path d="M17.0445 8.7243
L16.9235 8.6638
" />
<path d="M16.9235 8.6638
L16.8630 8.6033
" />
<path d="M16.8630 8.6033
L16.8026 8.4824
" />
<path d="M16.8026 8.4824
L16.7421 8.2405
" />
<path d="M16.7421 8.2405
L16.7421 7.9381
" />
<path d="M16.7421 7.9381
L16.8026 7.6962
" />
<path d="M16.8026 7.6962
L16.8630 7.5752
" />
<path d="M16.8630 7.5752
L16.9235 7.5147
" />
<path d="M16.9235 7.5147
L17.0445 7.4543
" />
<path d="M18.5564 7.4543
L18.3145 7.4543
" />
<path d="M18.3145 7.4543
L18.1935 7.5147
" />
<path d="M18.1935 7.5147
L18.1330 7.5752
" />
<path d="M18.1330 7.5752
L18.0121 7.7567
" />
<path d="M18.0121 7.7567
L17.9516 7.9986
" />
<path d="M17.9516 7.9986
L17.9516 8.4824
" />
<path d="M17.9516 8.4824
L18.0121 8.6033
" />
<path d="M18.0121 8.6033
L18.0726 8.6638
" />
<path d="M18.0726 8.6638
L18.1935 8.7243
" />
<path d="M18.1935 8.7243
L18.4354 8.7243
" />
<path d="M18.4354 8.7243
L18.5564 8.6638
" />
<path d="M18.5564 8.6638
L18.6168 8.6033
" />
<path d="M18.6168 8.6033
L18.6773 8.4824
" />
<path d="M18.6773 8.4824
L18.6773 8.1800
" />
<path d="M18.6773 8.1800
L18.6168 8.0590
" />
<path d="M18.6168 8.0590
L18.5564 7.9986
" />
<path d="M18.5564 7.9986
L18.4354 7.9381
" />
<path d="M18.4354 7.9381
L18.1935 7.9381
" />
<path d="M18.1935 7.9381
L18.0726 7.9986
" />
<path d="M18.0726 7.9986
L18.0121 8.0590
" />
<path d="M18.0121 8.0590
L17.9516 8.1800
" />
<path d="M19.1007 8.7243
L19.7659 7.8776
" />
<path d="M19.1007 7.8776
L19.7659 8.7243
" />
<path d="M20.1287 8.7243
L20.7940 7.8776
" />
<path d="M20.1287 7.8776
L20.7940 8.7243
" />
<path d="M20.9754 8.8452
L21.9430 8.8452
" />
<path d="M22.9107 8.7243
L22.1849 8.7243
" />
<path d="M22.5478 8.7243
L22.5478 7.4543
" />
<path d="M22.5478 7.4543
L22.4268 7.6357
" />
<path d="M22.4268 7.6357
L22.3059 7.7567
" />
<path d="M22.3059 7.7567
L22.1849 7.8171
" />
<path d="M23.3340 8.7243
L23.9992 7.8776
" />
<path d="M23.3340 7.8776
L23.9992 8.7243
" />
<path d="M24.7249 7.4543
L24.8459 7.4543
" />
<path d="M24.8459 7.4543
L24.9668 7.5147
" />
<path d="M24.9668 7.5147
L25.0273 7.5752
" />
<path d="M25.0273 7.5752
L25.0878 7.6962
" />
<path d="M25.0878 7.6962
L25.1483 7.9381
" />
<path d="M25.1483 7.9381
L25.1483 8.2405
" />
<path d="M25.1483 8.2405
L25.0878 8.4824
" />
<path d="M25.0878 8.4824
L25.0273 8.6033
" />
<path d="M25.0273 8.6033
L24.9668 8.6638
" />
<path d="M24.9668 8.6638
L24.8459 8.7243
" />
<path d="M24.8459 8.7243
L24.7249 8.7243
" />
<path d="M24.7249 8.7243
L24.6040 8.6638
" />
<path d="M24.6040 8.6638
L24.5435 8.6033
" />
<path d="M24.5435 8.6033
L24.4830 8.4824
" />
<path d="M24.4830 8.4824
L24.4226 8.2405
" />
<path d="M24.4226 8.2405
L24.4226 7.9381
" />
<path d="M24.4226 7.9381
L24.4830 7.6962
" />
<path d="M24.4830 7.6962
L24.5435 7.5752
" />
<path d="M24.5435 7.5752
L24.6040 7.5147
" />
<path d="M24.6040 7.5147
L24.7249 7.4543
" />
<path d="M26.2368 7.4543
L25.9949 7.4543
" />
<path d="M25.9949 7.4543
L25.8740 7.5147
" />
<path d="M25.8740 7.5147
L25.8135 7.5752
" />
<path d="M25.8135 7.5752
L25.6926 7.7567
" />
<path d="M25.6926 7.7567
L25.6321 7.9986
" />
<path d="M25.6321 7.9986
L25.6321 8.4824
" />
<path d="M25.6321 8.4824
L25.6926 8.6033
" />
<path d="M25.6926 8.6033
L25.7530 8.6638
" />
<path d="M25.7530 8.6638
L25.8740 8.7243
" />
<path d="M25.8740 8.7243
L26.1159 8.7243
" />
<path d="M26.1159 8.7243
L26.2368 8.6638
" />
<path d="M26.2368 8.6638
L26.2973 8.6033
" />
<path d="M26.2973 8.6033
L26.3578 8.4824
" />
<path d="M26.3578 8.4824
L26.3578 8.1800
" />
<path d="M26.3578 8.1800
L26.2973 8.0590
" />
<path d="M26.2973 8.0590
L26.2368 7.9986
" />
<path d="M26.2368 7.9986
L26.1159 7.9381
" />
<path d="M26.1159 7.9381
L25.8740 7.9381
" />
<path d="M25.8740 7.9381
L25.7530 7.9986
" />
<path d="M25.7530 7.9986
L25.6926 8.0590
" />
<path d="M25.6926 8.0590
L25.6321 8.1800
" />
<path d="M26.5997 8.8452
L27.5673 8.8452
" />
<path d="M27.8697 8.7243
L27.8697 7.4543
" />
<path d="M27.8697 7.4543
L28.3535 7.4543
" />
<path d="M28.3535 7.4543
L28.4745 7.5147
" />
<path d="M28.4745 7.5147
L28.5349 7.5752
" />
<path d="M28.5349 7.5752
L28.5954 7.6962
" />
<path d="M28.5954 7.6962
L28.5954 7.8776
" />
<path d="M28.5954 7.8776
L28.5349 7.9986
" />
<path d="M28.5349 7.9986
L28.4745 8.0590
" />
<path d="M28.4745 8.0590
L28.3535 8.1195
" />
<path d="M28.3535 8.1195
L27.8697 8.1195
" />
<path d="M29.0792 7.5752
L29.1397 7.5147
" />
<path d="M29.1397 7.5147
L29.2606 7.4543
" />
<path d="M29.2606 7.4543
L29.5630 7.4543
" />
<path d="M29.5630 7.4543
L29.6840 7.5147
" />
<path d="M29.6840 7.5147
L29.7445 7.5752
" />
<path d="M29.7445 7.5752
L29.8049 7.6962
" />
<path d="M29.8049 7.6962
L29.8049 7.8171
" />
<path d="M29.8049 7.8171
L29.7445 7.9986
" />
<path d="M29.7445 7.9986
L29.0187 8.7243
" />
<path d="M29.0187 8.7243
L29.8049 8.7243
" />
<path d="M30.3492 8.6033
L30.4097 8.6638
" />
<path d="M30.4097 8.6638
L30.3492 8.7243
" />
<path d="M30.3492 8.7243
L30.2887 8.6638
" />
<path d="M30.2887 8.6638
L30.3492 8.6033
" />
<path d="M30.3492 8.6033
L30.3492 8.7243
" />
<path d="M31.5587 7.4543
L30.9540 7.4543
" />
<path d="M30.9540 7.4543
L30.8935 8.0590
" />
<path d="M30.8935 8.0590
L30.9540 7.9986
" />
<path d="M30.9540 7.9986
L31.0749 7.9381
" />
<path d="M31.0749 7.9381
L31.3773 7.9381
" />
<path d="M31.3773 7.9381
L31.4983 7.9986
" />
<path d="M31.4983 7.9986
L31.5587 8.0590
" />
<path d="M31.5587 8.0590
L31.6192 8.1800
" />
<path d="M31.6192 8.1800
L31.6192 8.4824
" />
<path d="M31.6192 8.4824
L31.5587 8.6033
" />
<path d="M31.5587 8.6033
L31.4983 8.6638
" />
<path d="M31.4983 8.6638
L31.3773 8.7243
" />
<path d="M31.3773 8.7243
L31.0749 8.7243
" />
<path d="M31.0749 8.7243
L30.9540 8.6638
" />
<path d="M30.9540 8.6638
L30.8935 8.6033
" />
<path d="M32.7078 7.8776
L32.7078 8.7243
" />
<path d="M32.4054 7.3938
L32.1030 8.3009
" />
<path d="M32.1030 8.3009
L32.8892 8.3009
" />
<path d="M33.3730 8.7243
L33.3730 7.8776
" />
<path d="M33.3730 7.9986
L33.4335 7.9381
" />
<path d="M33.4335 7.9381
L33.5545 7.8776
" />
<path d="M33.5545 7.8776
L33.7359 7.8776
" />
<path d="M33.7359 7.8776
L33.8568 7.9381
" />
<path d="M33.8568 7.9381
L33.9173 8.0590
" />
<path d="M33.9173 8.0590
L33.9173 8.7243
" />
<path d="M33.9173 8.0590
L33.9778 7.9381
" />
<path d="M33.9778 7.9381
L34.0987 7.8776
" />
<path d="M34.0987 7.8776
L34.2802 7.8776
" />
<path d="M34.2802 7.8776
L34.4011 7.9381
" />
<path d="M34.4011 7.9381
L34.4616 8.0590
" />
<path d="M34.4616 8.0590
L34.4616 8.7243
" />
<path d="M35.0664 8.7243
L35.0664 7.8776
" />
<path d="M35.0664 7.9986
L35.1268 7.9381
" />
<path d="M35.1268 7.9381
L35.2478 7.8776
" />
<path d="M35.2478 7.8776
L35.4292 7.8776
" />
<path d="M35.4292 7.8776
L35.5502 7.9381
" />
<path d="M35.5502 7.9381
L35.6106 8.0590
" />
<path d="M35.6106 8.0590
L35.6106 8.7243
" />
<path d="M35.6106 8.0590
L35.6711 7.9381
" />
<path d="M35.6711 7.9381
L35.7921 7.8776
" />
<path d="M35.7921 7.8776
L35.9735 7.8776
" />
<path d="M35.9735 7.8776
L36.0945 7.9381
" />
<path d="M36.0945 7.9381
L36.1549 8.0590
" />
<path d="M36.1549 8.0590
L36.1549 8.7243
" />
<path d="M36.4573 8.8452
L37.4249 8.8452
" />
<path d="M37.7273 8.7243
L37.7273 7.4543
" />
<path d="M37.7273 8.0590
L38.4530 8.0590
" />
<path d="M38.4530 8.7243
L38.4530 7.4543
" />
<path d="M39.2392 8.7243
L39.1183 8.6638
" />
<path d="M39.1183 8.6638
L39.0578 8.6033
" />
<path d="M39.0578 8.6033
L38.9973 8.4824
" />
<path d="M38.9973 8.4824
L38.9973 8.1195
" />
<path d="M38.9973 8.1195
L39.0578 7.9986
" />
<path d="M39.0578 7.9986
L39.1183 7.9381
" />
<path d="M39.1183 7.9381
L39.2392 7.8776
" />
<path d="M39.2392 7.8776
L39.4206 7.8776
" />
<path d="M39.4206 7.8776
L39.5416 7.9381
" />
<path d="M39.5416 7.9381
L39.6021 7.9986
" />
<path d="M39.6021 7.9986
L39.6626 8.1195
" />
<path d="M39.6626 8.1195
L39.6626 8.4824
" />
<path d="M39.6626 8.4824
L39.6021 8.6033
" />
<path d="M39.6021 8.6033
L39.5416 8.6638
" />
<path d="M39.5416 8.6638
L39.4206 8.7243
" />
<path d="M39.4206 8.7243
L39.2392 8.7243
" />
<path d="M40.2068 8.7243
L40.2068 7.8776
" />
<path d="M40.2068 8.1195
L40.2673 7.9986
" />
<path d="M40.2673 7.9986
L40.3278 7.9381
" />
<path d="M40.3278 7.9381
L40.4487 7.8776
" />
<path d="M40.4487 7.8776
L40.5697 7.8776
" />
<path d="M40.9930 8.7243
L40.9930 7.8776
" />
<path d="M40.9930 7.4543
L40.9326 7.5147
" />
<path d="M40.9326 7.5147
L40.9930 7.5752
" />
<path d="M40.9930 7.5752
L41.0535 7.5147
" />
<path d="M41.0535 7.5147
L40.9930 7.4543
" />
<path d="M40.9930 7.4543
L40.9930 7.5752
" />
<path d="M41.4768 7.8776
L42.1421 7.8776
" />
<path d="M42.1421 7.8776
L41.4768 8.7243
" />
<path d="M41.4768 8.7243
L42.1421 8.7243
" />
<path d="M42.8073 8.7243
L42.6864 8.6638
" />
<path d="M42.6864 8.6638
L42.6259 8.6033
" />
<path d="M42.6259 8.6033
L42.5654 8.4824
" />
<path d="M42.5654 8.4824
L42.5654 8.1195
" />
<path d="M42.5654 8.1195
L42.6259 7.9986
" />
<path d="M42.6259 7.9986
L42.6864 7.9381
" />
<path d="M42.6864 7.9381
L42.8073 7.8776
" />
<path d="M42.8073 7.8776
L42.9887 7.8776
" />
<path d="M42.9887 7.8776
L43.1097 7.9381
" />
<path d="M43.1097 7.9381
L43.1702 7.9986
" />
<path d="M43.1702 7.9986
L43.2306 8.1195
" />
<path d="M43.2306 8.1195
L43.2306 8.4824
" />
<path d="M43.2306 8.4824
L43.1702 8.6033
" />
<path d="M43.1702 8.6033
L43.1097 8.6638
" />
<path d="M43.1097 8.6638
L42.9887 8.7243
" />
<path d="M42.9887 8.7243
L42.8073 8.7243
" />
<path d="M43.7749 7.8776
L43.7749 8.7243
" />
<path d="M43.7749 7.9986
L43.8354 7.9381
" />
<path d="M43.8354 7.9381
L43.9564 7.8776
" />
<path d="M43.9564 7.8776
L44.1378 7.8776
" />
<path d="M44.1378 7.8776
L44.2587 7.9381
" />
<path d="M44.2587 7.9381
L44.3192 8.0590
" />
<path d="M44.3192 8.0590
L44.3192 8.7243
" />
<path d="M44.7426 7.8776
L45.2264 7.8776
" />
<path d="M44.9240 7.4543
L44.9240 8.5428
" />
<path d="M44.9240 8.5428
L44.9845 8.6638
" />
<path d="M44.9845 8.6638
L45.1054 8.7243
" />
<path d="M45.1054 8.7243
L45.2264 8.7243
" />
<path d="M46.1940 8.7243
L46.1940 8.0590
" />
<path d="M46.1940 8.0590
L46.1335 7.9381
" />
<path d="M46.1335 7.9381
L46.0126 7.8776
" />
<path d="M46.0126 7.8776
L45.7706 7.8776
" />
<path d="M45.7706 7.8776
L45.6497 7.9381
" />
<path d="M46.1940 8.6638
L46.0730 8.7243
" />
<path d="M46.0730 8.7243
L45.7706 8.7243
" />
<path d="M45.7706 8.7243
L45.6497 8.6638
" />
<path d="M45.6497 8.6638
L45.5892 8.5428
" />
<path d="M45.5892 8.5428
L45.5892 8.4219
" />
<path d="M45.5892 8.4219
L45.6497 8.3009
" />
<path d="M45.6497 8.3009
L45.7706 8.2405
" />
<path d="M45.7706 8.2405
L46.0730 8.2405
" />
<path d="M46.0730 8.2405
L46.1940 8.1800
" />
<path d="M46.9802 8.7243
L46.8592 8.6638
" />
<path d="M46.8592 8.6638
L46.7987 8.5428
" />
<path d="M46.7987 8.5428
L46.7987 7.4543
" />
</g></g>
<g style="fill:none; 
stroke:#AFAFAF; stroke-width:0.1500; stroke-opacity:1; 
stroke-linecap:round; stroke-linejoin:round;">
<g transform="rotate(-90.000000 23.1564 8.1450)">
<text x="23.1564" y="8.6450"
textLength="4.5357" font-size="1.3333" lengthAdjust="spacingAndGlyphs"
text-anchor="middle" opacity="0">REF**</text>
</g>
<g class="stroked-text"><desc>REF**</desc>
<path d="M23.6112 9.4783
L23.1350 9.8117
" />
<path d="M23.6112 10.0498
L22.6112 10.0498
" />
<path d="M22.6112 10.0498
L22.6112 9.6688
" />
<path d="M22.6112 9.6688
L22.6588 9.5736
" />
<path d="M22.6588 9.5736
L22.7064 9.5260
" />
<path d="M22.7064 9.5260
L22.8017 9.4783
" />
<path d="M22.8017 9.4783
L22.9445 9.4783
" />
<path d="M22.9445 9.4783
L23.0398 9.5260
" />
<path d="M23.0398 9.5260
L23.0874 9.5736
" />
<path d="M23.0874 9.5736
L23.1350 9.6688
" />
<path d="M23.1350 9.6688
L23.1350 10.0498
" />
<path d="M23.0874 9.0498
L23.0874 8.7164
" />
<path d="M23.6112 8.5736
L23.6112 9.0498
" />
<path d="M23.6112 9.0498
L22.6112 9.0498
" />
<path d="M22.6112 9.0498
L22.6112 8.5736
" />
<path d="M23.0874 7.8117
L23.0874 8.1450
" />
<path d="M23.6112 8.1450
L22.6112 8.1450
" />
<path d="M22.6112 8.1450
L22.6112 7.6688
" />
<path d="M22.6112 7.1450
L22.8493 7.1450
" />
<path d="M22.7540 7.3831
L22.8493 7.1450
" />
<path d="M22.8493 7.1450
L22.7540 6.9069
" />
<path d="M23.0398 7.2879
L22.8493 7.1450
" />
<path d="M22.8493 7.1450
L23.0398 7.0021
" />
<path d="M22.6112 6.3831
L22.8493 6.3831
" />
<path d="M22.7540 6.6212
L22.8493 6.3831
" />
<path d="M22.8493 6.3831
L22.7540 6.1450
" />
<path d="M23.0398 6.5260
L22.8493 6.3831
" />
<path d="M22.8493 6.3831
L23.0398 6.2402
" />
</g></g>
<g style="fill:none; 
stroke:#AFAFAF; stroke-width:0.1000; stroke-opacity:1; 
stroke-linecap:round; stroke-linejoin:round;">
<path d="M17.2114 1.4750
L17.2114 2.1150
" />
<path d="M17.2114 2.1150
L21.9114 2.1150
" />
<path d="M17.2114 4.0150
L17.2114 4.6550
" />
<path d="M17.2114 4.6550
L21.9114 4.6550
" />
<path d="M17.2114 6.5550
L17.2114 7.1950
" />
<path d="M17.2114 7.1950
L21.9114 7.1950
" />
<path d="M17.2114 9.0950
L17.2114 9.7350
" />
<path d="M17.2114 9.7350
L21.9114 9.7350
" />
<path d="M17.2114 11.6350
L17.2114 12.2750
" />
<path d="M17.2114 12.2750
L21.9114 12.2750
" />
<path d="M17.2114 14.1750
L17.2114 14.8150
" />
<path d="M17.2114 14.8150
L21.9114 14.8150
" />
<path d="M21.9114 0.9250
L22.3114 0.5250
" />
<path d="M21.9114 1.4750
L17.2114 1.4750
" />
<path d="M21.9114 4.0150
L17.2114 4.0150
" />
<path d="M21.9114 6.5550
L17.2114 6.5550
" />
<path d="M21.9114 9.0950
L17.2114 9.0950
" />
<path d="M21.9114 11.6350
L17.2114 11.6350
" />
<path d="M21.9114 14.1750
L17.2114 14.1750
" />
<path d="M21.9114 15.7650
L21.9114 0.9250
" />
<path d="M22.3114 0.5250
L24.4114 0.5250
" />
<path d="M24.4114 0.5250
L24.4114 15.7650
" />
<path d="M24.4114 1.4750
L30.4114 1.4750
" />
<path d="M24.4114 4.0150
L30.4114 4.0150
" />
<path d="M24.4114 6.5550
L30.4114 6.5550
" />
<path d="M24.4114 9.0950
L30.4114 9.0950
" />
<path d="M24.4114 11.6350
L30.4114 11.6350
" />
<path d="M24.4114 14.1750
L30.4114 14.1750
" />
<path d="M24.4114 15.7650
L21.9114 15.7650
" />
<path d="M30.4114 1.4750
L30.4114 2.1150
" />
<path d="M30.4114 2.1150
L24.4114 2.1150
" />
<path d="M30.4114 4.0150
L30.4114 4.6550
" />
<path d="M30.4114 4.6550
L24.4114 4.6550
" />
<path d="M30.4114 6.5550
L30.4114 7.1950
" />
<path d="M30.4114 7.1950
L24.4114 7.1950
" />
<path d="M30.4114 9.0950
L30.4114 9.7350
" />
<path d="M30.4114 9.7350
L24.4114 9.7350
" />
<path d="M30.4114 11.6350
L30.4114 12.2750
" />
<path d="M30.4114 12.2750
L24.4114 12.2750
" />
<path d="M30.4114 14.1750
L30.4114 14.8150
" />
<path d="M30.4114 14.8150
L24.4114 14.8150
" />
</g> 
</svg>
