<?xml version="1.0" standalone="no"?>
 <!DOCTYPE svg PUBLIC "-//W3C//DTD SVG 1.1//EN" 
 "http://www.w3.org/Graphics/SVG/1.1/DTD/svg11.dtd"> 
<svg
  xmlns:svg="http://www.w3.org/2000/svg"
  xmlns="http://www.w3.org/2000/svg"
  xmlns:xlink="http://www.w3.org/1999/xlink"
  version="1.1"
  width="47.6504mm" height="17.2974mm" viewBox="0.0000 0.0000 47.6504 17.2974">
<title>SVG Image created as working-brd.svg date 2024/03/28 06:05:00 </title>
  <desc>Image generated by PCBNEW </desc>
<g style="fill:#000000; fill-opacity:1.0000;stroke:#000000; stroke-opacity:1.0000;
stroke-linecap:round; stroke-linejoin:round;"
 transform="translate(0 0) scale(1 1)">
</g>
<g style="fill:#FFFFFF; fill-opacity:1.0000; stroke:none;">
<circle cx="21.4290" cy="1.8750" r="0.8500" /> 
</g>
<g style="fill:#FFFFFF; fill-opacity:1.0000; stroke:none;">
<circle cx="25.3890" cy="1.8750" r="0.8500" /> 
</g>
<g style="fill:#FFFFFF; fill-opacity:1.0000; stroke:none;">
<circle cx="29.3490" cy="1.8750" r="0.8500" /> 
</g>
<g style="fill:#FFFFFF; fill-opacity:1.0000; stroke:none;">
<circle cx="33.3090" cy="1.8750" r="0.8500" /> 
</g>
<g style="fill:#FFFFFF; fill-opacity:1.0000; stroke:none;">
<circle cx="37.2690" cy="1.8750" r="0.8500" /> 
</g>
<g style="fill:#FFFFFF; fill-opacity:1.0000; stroke:none;">
<circle cx="41.2290" cy="1.8750" r="0.8500" /> 
</g>
<g style="fill:#FFFFFF; fill-opacity:1.0000; stroke:none;">
<circle cx="45.1890" cy="1.8750" r="0.8500" /> 
<path style="fill:#02FFEE; fill-opacity:0.4000; stroke:none;fill-rule:evenodd;"
d="M 20.0790,0.7750
20.0980,0.6793
20.1522,0.5982
20.2333,0.5440
20.3290,0.5250
22.5290,0.5250
22.6247,0.5440
22.7058,0.5982
22.7600,0.6793
22.7790,0.7750
22.7790,2.9750
22.7600,3.0707
22.7058,3.1518
22.6247,3.2060
22.5290,3.2250
20.3290,3.2250
20.2333,3.2060
20.1522,3.1518
20.0980,3.0707
20.0790,2.9750
Z" /> 
</g>
<g style="fill:#02FFEE; fill-opacity:0.4000; stroke:none;">
<circle cx="25.3890" cy="1.8750" r="1.3500" /> 
</g>
<g style="fill:#02FFEE; fill-opacity:0.4000; stroke:none;">
<circle cx="29.3490" cy="1.8750" r="1.3500" /> 
</g>
<g style="fill:#02FFEE; fill-opacity:0.4000; stroke:none;">
<circle cx="33.3090" cy="1.8750" r="1.3500" /> 
</g>
<g style="fill:#02FFEE; fill-opacity:0.4000; stroke:none;">
<circle cx="37.2690" cy="1.8750" r="1.3500" /> 
</g>
<g style="fill:#02FFEE; fill-opacity:0.4000; stroke:none;">
<circle cx="41.2290" cy="1.8750" r="1.3500" /> 
</g>
<g style="fill:#02FFEE; fill-opacity:0.4000; stroke:none;">
<circle cx="45.1890" cy="1.8750" r="1.3500" /> 
</g>
<g style="fill:#FFFFFF; fill-opacity:1.0000; stroke:none;">
<circle cx="21.4290" cy="1.8750" r="0.8500" /> 
</g>
<g style="fill:#FFFFFF; fill-opacity:1.0000; stroke:none;">
<circle cx="25.3890" cy="1.8750" r="0.8500" /> 
</g>
<g style="fill:#FFFFFF; fill-opacity:1.0000; stroke:none;">
<circle cx="29.3490" cy="1.8750" r="0.8500" /> 
</g>
<g style="fill:#FFFFFF; fill-opacity:1.0000; stroke:none;">
<circle cx="33.3090" cy="1.8750" r="0.8500" /> 
</g>
<g style="fill:#FFFFFF; fill-opacity:1.0000; stroke:none;">
<circle cx="37.2690" cy="1.8750" r="0.8500" /> 
</g>
<g style="fill:#FFFFFF; fill-opacity:1.0000; stroke:none;">
<circle cx="41.2290" cy="1.8750" r="0.8500" /> 
</g>
<g style="fill:#FFFFFF; fill-opacity:1.0000; stroke:none;">
<circle cx="45.1890" cy="1.8750" r="0.8500" /> 
</g>
<g style="fill:#FFFFFF; fill-opacity:1.0000; stroke:none;">
<circle cx="21.4290" cy="1.8750" r="0.8500" /> 
</g>
<g style="fill:#FFFFFF; fill-opacity:1.0000; stroke:none;">
<circle cx="25.3890" cy="1.8750" r="0.8500" /> 
</g>
<g style="fill:#FFFFFF; fill-opacity:1.0000; stroke:none;">
<circle cx="29.3490" cy="1.8750" r="0.8500" /> 
</g>
<g style="fill:#FFFFFF; fill-opacity:1.0000; stroke:none;">
<circle cx="33.3090" cy="1.8750" r="0.8500" /> 
</g>
<g style="fill:#FFFFFF; fill-opacity:1.0000; stroke:none;">
<circle cx="37.2690" cy="1.8750" r="0.8500" /> 
</g>
<g style="fill:#FFFFFF; fill-opacity:1.0000; stroke:none;">
<circle cx="41.2290" cy="1.8750" r="0.8500" /> 
</g>
<g style="fill:#FFFFFF; fill-opacity:1.0000; stroke:none;">
<circle cx="45.1890" cy="1.8750" r="0.8500" /> 
<path style="fill:#D864FF; fill-opacity:0.4000; stroke:none;fill-rule:evenodd;"
d="M 20.0790,0.7750
20.0980,0.6793
20.1522,0.5982
20.2333,0.5440
20.3290,0.5250
22.5290,0.5250
22.6247,0.5440
22.7058,0.5982
22.7600,0.6793
22.7790,0.7750
22.7790,2.9750
22.7600,3.0707
22.7058,3.1518
22.6247,3.2060
22.5290,3.2250
20.3290,3.2250
20.2333,3.2060
20.1522,3.1518
20.0980,3.0707
20.0790,2.9750
Z" /> 
</g>
<g style="fill:#D864FF; fill-opacity:0.4000; stroke:none;">
<circle cx="25.3890" cy="1.8750" r="1.3500" /> 
</g>
<g style="fill:#D864FF; fill-opacity:0.4000; stroke:none;">
<circle cx="29.3490" cy="1.8750" r="1.3500" /> 
</g>
<g style="fill:#D864FF; fill-opacity:0.4000; stroke:none;">
<circle cx="33.3090" cy="1.8750" r="1.3500" /> 
</g>
<g style="fill:#D864FF; fill-opacity:0.4000; stroke:none;">
<circle cx="37.2690" cy="1.8750" r="1.3500" /> 
</g>
<g style="fill:#D864FF; fill-opacity:0.4000; stroke:none;">
<circle cx="41.2290" cy="1.8750" r="1.3500" /> 
</g>
<g style="fill:#D864FF; fill-opacity:0.4000; stroke:none;">
<circle cx="45.1890" cy="1.8750" r="1.3500" /> 
</g>
<g style="fill:none; 
stroke:#F2EDA1; stroke-width:0.1588; stroke-opacity:1; 
stroke-linecap:round; stroke-linejoin:round;">
<text x="21.4290" y="2.5100"
textLength="5.6651" font-size="1.6933" lengthAdjust="spacingAndGlyphs"
text-anchor="middle" opacity="0">REF**</text>
<g class="stroked-text"><desc>REF**</desc>
<path d="M19.7356 2.4543
L19.3123 1.8495
" />
<path d="M19.0099 2.4543
L19.0099 1.1843
" />
<path d="M19.0099 1.1843
L19.4937 1.1843
" />
<path d="M19.4937 1.1843
L19.6147 1.2447
" />
<path d="M19.6147 1.2447
L19.6752 1.3052
" />
<path d="M19.6752 1.3052
L19.7356 1.4262
" />
<path d="M19.7356 1.4262
L19.7356 1.6076
" />
<path d="M19.7356 1.6076
L19.6752 1.7286
" />
<path d="M19.6752 1.7286
L19.6147 1.7890
" />
<path d="M19.6147 1.7890
L19.4937 1.8495
" />
<path d="M19.4937 1.8495
L19.0099 1.8495
" />
<path d="M20.2799 1.7890
L20.7033 1.7890
" />
<path d="M20.8847 2.4543
L20.2799 2.4543
" />
<path d="M20.2799 2.4543
L20.2799 1.1843
" />
<path d="M20.2799 1.1843
L20.8847 1.1843
" />
<path d="M21.8523 1.7890
L21.4290 1.7890
" />
<path d="M21.4290 2.4543
L21.4290 1.1843
" />
<path d="M21.4290 1.1843
L22.0337 1.1843
" />
<path d="M22.6990 1.1843
L22.6990 1.4867
" />
<path d="M22.3966 1.3657
L22.6990 1.4867
" />
<path d="M22.6990 1.4867
L23.0014 1.3657
" />
<path d="M22.5176 1.7286
L22.6990 1.4867
" />
<path d="M22.6990 1.4867
L22.8804 1.7286
" />
<path d="M23.6666 1.1843
L23.6666 1.4867
" />
<path d="M23.3642 1.3657
L23.6666 1.4867
" />
<path d="M23.6666 1.4867
L23.9690 1.3657
" />
<path d="M23.4852 1.7286
L23.6666 1.4867
" />
<path d="M23.6666 1.4867
L23.8480 1.7286
" />
</g></g>
<g style="fill:none; 
stroke:#F2EDA1; stroke-width:0.1200; stroke-opacity:1; 
stroke-linecap:round; stroke-linejoin:round;">
<path d="M19.3690 5.7650
L47.2490 5.7650
" />
<path d="M19.3690 9.1850
L19.3690 5.7650
" />
<path d="M19.8190 0.2650
L19.8190 1.8750
" />
<path d="M20.4190 9.1850
L19.3690 9.1850
" />
<path d="M20.4190 15.3850
L20.4190 9.1850
" />
<path d="M20.6090 15.3850
L20.6090 16.8850
" />
<path d="M20.6090 16.8850
L22.2490 16.8850
" />
<path d="M21.4290 0.2650
L19.8190 0.2650
" />
<path d="M22.2490 16.8850
L22.2490 15.3850
" />
<path d="M24.5690 15.3850
L24.5690 16.8850
" />
<path d="M24.5690 16.8850
L26.2090 16.8850
" />
<path d="M26.2090 16.8850
L26.2090 15.3850
" />
<path d="M28.5290 15.3850
L28.5290 16.8850
" />
<path d="M28.5290 16.8850
L30.1690 16.8850
" />
<path d="M30.1690 16.8850
L30.1690 15.3850
" />
<path d="M32.4890 15.3850
L32.4890 16.8850
" />
<path d="M32.4890 16.8850
L34.1290 16.8850
" />
<path d="M34.1290 16.8850
L34.1290 15.3850
" />
<path d="M36.4490 15.3850
L36.4490 16.8850
" />
<path d="M36.4490 16.8850
L38.0890 16.8850
" />
<path d="M38.0890 16.8850
L38.0890 15.3850
" />
<path d="M40.4090 15.3850
L40.4090 16.8850
" />
<path d="M40.4090 16.8850
L42.0490 16.8850
" />
<path d="M42.0490 16.8850
L42.0490 15.3850
" />
<path d="M44.3690 15.3850
L44.3690 16.8850
" />
<path d="M44.3690 16.8850
L46.0090 16.8850
" />
<path d="M46.0090 16.8850
L46.0090 15.3850
" />
<path d="M46.1990 9.1850
L46.1990 15.3850
" />
<path d="M46.1990 15.3850
L20.4190 15.3850
" />
<path d="M47.2490 5.7650
L47.2490 9.1850
" />
<path d="M47.2490 9.1850
L46.1990 9.1850
" />
</g>
<g style="fill:#FFFFFF; fill-opacity:1.0000; stroke:none;">
<circle cx="21.4290" cy="1.8750" r="0.8500" /> 
</g>
<g style="fill:#FFFFFF; fill-opacity:1.0000; stroke:none;">
<circle cx="25.3890" cy="1.8750" r="0.8500" /> 
</g>
<g style="fill:#FFFFFF; fill-opacity:1.0000; stroke:none;">
<circle cx="29.3490" cy="1.8750" r="0.8500" /> 
</g>
<g style="fill:#FFFFFF; fill-opacity:1.0000; stroke:none;">
<circle cx="33.3090" cy="1.8750" r="0.8500" /> 
</g>
<g style="fill:#FFFFFF; fill-opacity:1.0000; stroke:none;">
<circle cx="37.2690" cy="1.8750" r="0.8500" /> 
</g>
<g style="fill:#FFFFFF; fill-opacity:1.0000; stroke:none;">
<circle cx="41.2290" cy="1.8750" r="0.8500" /> 
</g>
<g style="fill:#FFFFFF; fill-opacity:1.0000; stroke:none;">
<circle cx="45.1890" cy="1.8750" r="0.8500" /> 
</g>
<g style="fill:none; 
stroke:#FF26E2; stroke-width:0.0500; stroke-opacity:1; 
stroke-linecap:round; stroke-linejoin:round;">
<path d="M18.9790 0.0250
L18.9790 17.2750
" />
<path d="M18.9790 17.2750
L47.6390 17.2750
" />
<path d="M47.6390 0.0250
L18.9790 0.0250
" />
<path d="M47.6390 17.2750
L47.6390 0.0250
" />
</g>
<g style="fill:none; 
stroke:#AFAFAF; stroke-width:0.1588; stroke-opacity:1; 
stroke-linecap:round; stroke-linejoin:round;">
<text x="21.4290" y="2.5100"
textLength="42.8580" font-size="1.6933" lengthAdjust="spacingAndGlyphs"
text-anchor="middle" opacity="0">JST_VH_B7PS-VH_1x07_P3.96mm_Horizontal</text>
<g class="stroked-text"><desc>JST_VH_B7PS-VH_1x07_P3.96mm_Horizontal</desc>
<path d="M0.7764 1.1843
L0.7764 2.0914
" />
<path d="M0.7764 2.0914
L0.7159 2.2728
" />
<path d="M0.7159 2.2728
L0.5949 2.3938
" />
<path d="M0.5949 2.3938
L0.4135 2.4543
" />
<path d="M0.4135 2.4543
L0.2926 2.4543
" />
<path d="M1.3206 2.3938
L1.5021 2.4543
" />
<path d="M1.5021 2.4543
L1.8045 2.4543
" />
<path d="M1.8045 2.4543
L1.9254 2.3938
" />
<path d="M1.9254 2.3938
L1.9859 2.3333
" />
<path d="M1.9859 2.3333
L2.0464 2.2124
" />
<path d="M2.0464 2.2124
L2.0464 2.0914
" />
<path d="M2.0464 2.0914
L1.9859 1.9705
" />
<path d="M1.9859 1.9705
L1.9254 1.9100
" />
<path d="M1.9254 1.9100
L1.8045 1.8495
" />
<path d="M1.8045 1.8495
L1.5626 1.7890
" />
<path d="M1.5626 1.7890
L1.4416 1.7286
" />
<path d="M1.4416 1.7286
L1.3811 1.6681
" />
<path d="M1.3811 1.6681
L1.3206 1.5471
" />
<path d="M1.3206 1.5471
L1.3206 1.4262
" />
<path d="M1.3206 1.4262
L1.3811 1.3052
" />
<path d="M1.3811 1.3052
L1.4416 1.2447
" />
<path d="M1.4416 1.2447
L1.5626 1.1843
" />
<path d="M1.5626 1.1843
L1.8649 1.1843
" />
<path d="M1.8649 1.1843
L2.0464 1.2447
" />
<path d="M2.4092 1.1843
L3.1349 1.1843
" />
<path d="M2.7721 2.4543
L2.7721 1.1843
" />
<path d="M3.2559 2.5752
L4.2235 2.5752
" />
<path d="M4.3445 1.1843
L4.7678 2.4543
" />
<path d="M4.7678 2.4543
L5.1911 1.1843
" />
<path d="M5.6145 2.4543
L5.6145 1.1843
" />
<path d="M5.6145 1.7890
L6.3402 1.7890
" />
<path d="M6.3402 2.4543
L6.3402 1.1843
" />
<path d="M6.6426 2.5752
L7.6102 2.5752
" />
<path d="M8.3359 1.7890
L8.5173 1.8495
" />
<path d="M8.5173 1.8495
L8.5778 1.9100
" />
<path d="M8.5778 1.9100
L8.6383 2.0309
" />
<path d="M8.6383 2.0309
L8.6383 2.2124
" />
<path d="M8.6383 2.2124
L8.5778 2.3333
" />
<path d="M8.5778 2.3333
L8.5173 2.3938
" />
<path d="M8.5173 2.3938
L8.3964 2.4543
" />
<path d="M8.3964 2.4543
L7.9126 2.4543
" />
<path d="M7.9126 2.4543
L7.9126 1.1843
" />
<path d="M7.9126 1.1843
L8.3359 1.1843
" />
<path d="M8.3359 1.1843
L8.4568 1.2447
" />
<path d="M8.4568 1.2447
L8.5173 1.3052
" />
<path d="M8.5173 1.3052
L8.5778 1.4262
" />
<path d="M8.5778 1.4262
L8.5778 1.5471
" />
<path d="M8.5778 1.5471
L8.5173 1.6681
" />
<path d="M8.5173 1.6681
L8.4568 1.7286
" />
<path d="M8.4568 1.7286
L8.3359 1.7890
" />
<path d="M8.3359 1.7890
L7.9126 1.7890
" />
<path d="M9.0616 1.1843
L9.9083 1.1843
" />
<path d="M9.9083 1.1843
L9.3640 2.4543
" />
<path d="M10.3921 2.4543
L10.3921 1.1843
" />
<path d="M10.3921 1.1843
L10.8759 1.1843
" />
<path d="M10.8759 1.1843
L10.9968 1.2447
" />
<path d="M10.9968 1.2447
L11.0573 1.3052
" />
<path d="M11.0573 1.3052
L11.1178 1.4262
" />
<path d="M11.1178 1.4262
L11.1178 1.6076
" />
<path d="M11.1178 1.6076
L11.0573 1.7286
" />
<path d="M11.0573 1.7286
L10.9968 1.7890
" />
<path d="M10.9968 1.7890
L10.8759 1.8495
" />
<path d="M10.8759 1.8495
L10.3921 1.8495
" />
<path d="M11.6016 2.3938
L11.7830 2.4543
" />
<path d="M11.7830 2.4543
L12.0854 2.4543
" />
<path d="M12.0854 2.4543
L12.2064 2.3938
" />
<path d="M12.2064 2.3938
L12.2668 2.3333
" />
<path d="M12.2668 2.3333
L12.3273 2.2124
" />
<path d="M12.3273 2.2124
L12.3273 2.0914
" />
<path d="M12.3273 2.0914
L12.2668 1.9705
" />
<path d="M12.2668 1.9705
L12.2064 1.9100
" />
<path d="M12.2064 1.9100
L12.0854 1.8495
" />
<path d="M12.0854 1.8495
L11.8435 1.7890
" />
<path d="M11.8435 1.7890
L11.7226 1.7286
" />
<path d="M11.7226 1.7286
L11.6621 1.6681
" />
<path d="M11.6621 1.6681
L11.6016 1.5471
" />
<path d="M11.6016 1.5471
L11.6016 1.4262
" />
<path d="M11.6016 1.4262
L11.6621 1.3052
" />
<path d="M11.6621 1.3052
L11.7226 1.2447
" />
<path d="M11.7226 1.2447
L11.8435 1.1843
" />
<path d="M11.8435 1.1843
L12.1459 1.1843
" />
<path d="M12.1459 1.1843
L12.3273 1.2447
" />
<path d="M12.8716 1.9705
L13.8392 1.9705
" />
<path d="M14.2626 1.1843
L14.6859 2.4543
" />
<path d="M14.6859 2.4543
L15.1092 1.1843
" />
<path d="M15.5326 2.4543
L15.5326 1.1843
" />
<path d="M15.5326 1.7890
L16.2583 1.7890
" />
<path d="M16.2583 2.4543
L16.2583 1.1843
" />
<path d="M16.5606 2.5752
L17.5283 2.5752
" />
<path d="M18.4959 2.4543
L17.7702 2.4543
" />
<path d="M18.1330 2.4543
L18.1330 1.1843
" />
<path d="M18.1330 1.1843
L18.0121 1.3657
" />
<path d="M18.0121 1.3657
L17.8911 1.4867
" />
<path d="M17.8911 1.4867
L17.7702 1.5471
" />
<path d="M18.9192 2.4543
L19.5845 1.6076
" />
<path d="M18.9192 1.6076
L19.5845 2.4543
" />
<path d="M20.3102 1.1843
L20.4311 1.1843
" />
<path d="M20.4311 1.1843
L20.5521 1.2447
" />
<path d="M20.5521 1.2447
L20.6126 1.3052
" />
<path d="M20.6126 1.3052
L20.6730 1.4262
" />
<path d="M20.6730 1.4262
L20.7335 1.6681
" />
<path d="M20.7335 1.6681
L20.7335 1.9705
" />
<path d="M20.7335 1.9705
L20.6730 2.2124
" />
<path d="M20.6730 2.2124
L20.6126 2.3333
" />
<path d="M20.6126 2.3333
L20.5521 2.3938
" />
<path d="M20.5521 2.3938
L20.4311 2.4543
" />
<path d="M20.4311 2.4543
L20.3102 2.4543
" />
<path d="M20.3102 2.4543
L20.1892 2.3938
" />
<path d="M20.1892 2.3938
L20.1287 2.3333
" />
<path d="M20.1287 2.3333
L20.0683 2.2124
" />
<path d="M20.0683 2.2124
L20.0078 1.9705
" />
<path d="M20.0078 1.9705
L20.0078 1.6681
" />
<path d="M20.0078 1.6681
L20.0683 1.4262
" />
<path d="M20.0683 1.4262
L20.1287 1.3052
" />
<path d="M20.1287 1.3052
L20.1892 1.2447
" />
<path d="M20.1892 1.2447
L20.3102 1.1843
" />
<path d="M21.1568 1.1843
L22.0035 1.1843
" />
<path d="M22.0035 1.1843
L21.4592 2.4543
" />
<path d="M22.1849 2.5752
L23.1526 2.5752
" />
<path d="M23.4549 2.4543
L23.4549 1.1843
" />
<path d="M23.4549 1.1843
L23.9387 1.1843
" />
<path d="M23.9387 1.1843
L24.0597 1.2447
" />
<path d="M24.0597 1.2447
L24.1202 1.3052
" />
<path d="M24.1202 1.3052
L24.1806 1.4262
" />
<path d="M24.1806 1.4262
L24.1806 1.6076
" />
<path d="M24.1806 1.6076
L24.1202 1.7286
" />
<path d="M24.1202 1.7286
L24.0597 1.7890
" />
<path d="M24.0597 1.7890
L23.9387 1.8495
" />
<path d="M23.9387 1.8495
L23.4549 1.8495
" />
<path d="M24.6040 1.1843
L25.3902 1.1843
" />
<path d="M25.3902 1.1843
L24.9668 1.6681
" />
<path d="M24.9668 1.6681
L25.1483 1.6681
" />
<path d="M25.1483 1.6681
L25.2692 1.7286
" />
<path d="M25.2692 1.7286
L25.3297 1.7890
" />
<path d="M25.3297 1.7890
L25.3902 1.9100
" />
<path d="M25.3902 1.9100
L25.3902 2.2124
" />
<path d="M25.3902 2.2124
L25.3297 2.3333
" />
<path d="M25.3297 2.3333
L25.2692 2.3938
" />
<path d="M25.2692 2.3938
L25.1483 2.4543
" />
<path d="M25.1483 2.4543
L24.7854 2.4543
" />
<path d="M24.7854 2.4543
L24.6645 2.3938
" />
<path d="M24.6645 2.3938
L24.6040 2.3333
" />
<path d="M25.9345 2.3333
L25.9949 2.3938
" />
<path d="M25.9949 2.3938
L25.9345 2.4543
" />
<path d="M25.9345 2.4543
L25.8740 2.3938
" />
<path d="M25.8740 2.3938
L25.9345 2.3333
" />
<path d="M25.9345 2.3333
L25.9345 2.4543
" />
<path d="M26.5997 2.4543
L26.8416 2.4543
" />
<path d="M26.8416 2.4543
L26.9626 2.3938
" />
<path d="M26.9626 2.3938
L27.0230 2.3333
" />
<path d="M27.0230 2.3333
L27.1440 2.1519
" />
<path d="M27.1440 2.1519
L27.2045 1.9100
" />
<path d="M27.2045 1.9100
L27.2045 1.4262
" />
<path d="M27.2045 1.4262
L27.1440 1.3052
" />
<path d="M27.1440 1.3052
L27.0835 1.2447
" />
<path d="M27.0835 1.2447
L26.9626 1.1843
" />
<path d="M26.9626 1.1843
L26.7206 1.1843
" />
<path d="M26.7206 1.1843
L26.5997 1.2447
" />
<path d="M26.5997 1.2447
L26.5392 1.3052
" />
<path d="M26.5392 1.3052
L26.4787 1.4262
" />
<path d="M26.4787 1.4262
L26.4787 1.7286
" />
<path d="M26.4787 1.7286
L26.5392 1.8495
" />
<path d="M26.5392 1.8495
L26.5997 1.9100
" />
<path d="M26.5997 1.9100
L26.7206 1.9705
" />
<path d="M26.7206 1.9705
L26.9626 1.9705
" />
<path d="M26.9626 1.9705
L27.0835 1.9100
" />
<path d="M27.0835 1.9100
L27.1440 1.8495
" />
<path d="M27.1440 1.8495
L27.2045 1.7286
" />
<path d="M28.2930 1.1843
L28.0511 1.1843
" />
<path d="M28.0511 1.1843
L27.9302 1.2447
" />
<path d="M27.9302 1.2447
L27.8697 1.3052
" />
<path d="M27.8697 1.3052
L27.7487 1.4867
" />
<path d="M27.7487 1.4867
L27.6883 1.7286
" />
<path d="M27.6883 1.7286
L27.6883 2.2124
" />
<path d="M27.6883 2.2124
L27.7487 2.3333
" />
<path d="M27.7487 2.3333
L27.8092 2.3938
" />
<path d="M27.8092 2.3938
L27.9302 2.4543
" />
<path d="M27.9302 2.4543
L28.1721 2.4543
" />
<path d="M28.1721 2.4543
L28.2930 2.3938
" />
<path d="M28.2930 2.3938
L28.3535 2.3333
" />
<path d="M28.3535 2.3333
L28.4140 2.2124
" />
<path d="M28.4140 2.2124
L28.4140 1.9100
" />
<path d="M28.4140 1.9100
L28.3535 1.7890
" />
<path d="M28.3535 1.7890
L28.2930 1.7286
" />
<path d="M28.2930 1.7286
L28.1721 1.6681
" />
<path d="M28.1721 1.6681
L27.9302 1.6681
" />
<path d="M27.9302 1.6681
L27.8092 1.7286
" />
<path d="M27.8092 1.7286
L27.7487 1.7890
" />
<path d="M27.7487 1.7890
L27.6883 1.9100
" />
<path d="M28.9583 2.4543
L28.9583 1.6076
" />
<path d="M28.9583 1.7286
L29.0187 1.6681
" />
<path d="M29.0187 1.6681
L29.1397 1.6076
" />
<path d="M29.1397 1.6076
L29.3211 1.6076
" />
<path d="M29.3211 1.6076
L29.4421 1.6681
" />
<path d="M29.4421 1.6681
L29.5026 1.7890
" />
<path d="M29.5026 1.7890
L29.5026 2.4543
" />
<path d="M29.5026 1.7890
L29.5630 1.6681
" />
<path d="M29.5630 1.6681
L29.6840 1.6076
" />
<path d="M29.6840 1.6076
L29.8654 1.6076
" />
<path d="M29.8654 1.6076
L29.9864 1.6681
" />
<path d="M29.9864 1.6681
L30.0468 1.7890
" />
<path d="M30.0468 1.7890
L30.0468 2.4543
" />
<path d="M30.6516 2.4543
L30.6516 1.6076
" />
<path d="M30.6516 1.7286
L30.7121 1.6681
" />
<path d="M30.7121 1.6681
L30.8330 1.6076
" />
<path d="M30.8330 1.6076
L31.0145 1.6076
" />
<path d="M31.0145 1.6076
L31.1354 1.6681
" />
<path d="M31.1354 1.6681
L31.1959 1.7890
" />
<path d="M31.1959 1.7890
L31.1959 2.4543
" />
<path d="M31.1959 1.7890
L31.2564 1.6681
" />
<path d="M31.2564 1.6681
L31.3773 1.6076
" />
<path d="M31.3773 1.6076
L31.5587 1.6076
" />
<path d="M31.5587 1.6076
L31.6797 1.6681
" />
<path d="M31.6797 1.6681
L31.7402 1.7890
" />
<path d="M31.7402 1.7890
L31.7402 2.4543
" />
<path d="M32.0426 2.5752
L33.0102 2.5752
" />
<path d="M33.3126 2.4543
L33.3126 1.1843
" />
<path d="M33.3126 1.7890
L34.0383 1.7890
" />
<path d="M34.0383 2.4543
L34.0383 1.1843
" />
<path d="M34.8245 2.4543
L34.7035 2.3938
" />
<path d="M34.7035 2.3938
L34.6430 2.3333
" />
<path d="M34.6430 2.3333
L34.5826 2.2124
" />
<path d="M34.5826 2.2124
L34.5826 1.8495
" />
<path d="M34.5826 1.8495
L34.6430 1.7286
" />
<path d="M34.6430 1.7286
L34.7035 1.6681
" />
<path d="M34.7035 1.6681
L34.8245 1.6076
" />
<path d="M34.8245 1.6076
L35.0059 1.6076
" />
<path d="M35.0059 1.6076
L35.1268 1.6681
" />
<path d="M35.1268 1.6681
L35.1873 1.7286
" />
<path d="M35.1873 1.7286
L35.2478 1.8495
" />
<path d="M35.2478 1.8495
L35.2478 2.2124
" />
<path d="M35.2478 2.2124
L35.1873 2.3333
" />
<path d="M35.1873 2.3333
L35.1268 2.3938
" />
<path d="M35.1268 2.3938
L35.0059 2.4543
" />
<path d="M35.0059 2.4543
L34.8245 2.4543
" />
<path d="M35.7921 2.4543
L35.7921 1.6076
" />
<path d="M35.7921 1.8495
L35.8526 1.7286
" />
<path d="M35.8526 1.7286
L35.9130 1.6681
" />
<path d="M35.9130 1.6681
L36.0340 1.6076
" />
<path d="M36.0340 1.6076
L36.1549 1.6076
" />
<path d="M36.5783 2.4543
L36.5783 1.6076
" />
<path d="M36.5783 1.1843
L36.5178 1.2447
" />
<path d="M36.5178 1.2447
L36.5783 1.3052
" />
<path d="M36.5783 1.3052
L36.6387 1.2447
" />
<path d="M36.6387 1.2447
L36.5783 1.1843
" />
<path d="M36.5783 1.1843
L36.5783 1.3052
" />
<path d="M37.0621 1.6076
L37.7273 1.6076
" />
<path d="M37.7273 1.6076
L37.0621 2.4543
" />
<path d="M37.0621 2.4543
L37.7273 2.4543
" />
<path d="M38.3926 2.4543
L38.2716 2.3938
" />
<path d="M38.2716 2.3938
L38.2111 2.3333
" />
<path d="M38.2111 2.3333
L38.1506 2.2124
" />
<path d="M38.1506 2.2124
L38.1506 1.8495
" />
<path d="M38.1506 1.8495
L38.2111 1.7286
" />
<path d="M38.2111 1.7286
L38.2716 1.6681
" />
<path d="M38.2716 1.6681
L38.3926 1.6076
" />
<path d="M38.3926 1.6076
L38.5740 1.6076
" />
<path d="M38.5740 1.6076
L38.6949 1.6681
" />
<path d="M38.6949 1.6681
L38.7554 1.7286
" />
<path d="M38.7554 1.7286
L38.8159 1.8495
" />
<path d="M38.8159 1.8495
L38.8159 2.2124
" />
<path d="M38.8159 2.2124
L38.7554 2.3333
" />
<path d="M38.7554 2.3333
L38.6949 2.3938
" />
<path d="M38.6949 2.3938
L38.5740 2.4543
" />
<path d="M38.5740 2.4543
L38.3926 2.4543
" />
<path d="M39.3602 1.6076
L39.3602 2.4543
" />
<path d="M39.3602 1.7286
L39.4206 1.6681
" />
<path d="M39.4206 1.6681
L39.5416 1.6076
" />
<path d="M39.5416 1.6076
L39.7230 1.6076
" />
<path d="M39.7230 1.6076
L39.8440 1.6681
" />
<path d="M39.8440 1.6681
L39.9045 1.7890
" />
<path d="M39.9045 1.7890
L39.9045 2.4543
" />
<path d="M40.3278 1.6076
L40.8116 1.6076
" />
<path d="M40.5092 1.1843
L40.5092 2.2728
" />
<path d="M40.5092 2.2728
L40.5697 2.3938
" />
<path d="M40.5697 2.3938
L40.6906 2.4543
" />
<path d="M40.6906 2.4543
L40.8116 2.4543
" />
<path d="M41.7792 2.4543
L41.7792 1.7890
" />
<path d="M41.7792 1.7890
L41.7187 1.6681
" />
<path d="M41.7187 1.6681
L41.5978 1.6076
" />
<path d="M41.5978 1.6076
L41.3559 1.6076
" />
<path d="M41.3559 1.6076
L41.2349 1.6681
" />
<path d="M41.7792 2.3938
L41.6583 2.4543
" />
<path d="M41.6583 2.4543
L41.3559 2.4543
" />
<path d="M41.3559 2.4543
L41.2349 2.3938
" />
<path d="M41.2349 2.3938
L41.1745 2.2728
" />
<path d="M41.1745 2.2728
L41.1745 2.1519
" />
<path d="M41.1745 2.1519
L41.2349 2.0309
" />
<path d="M41.2349 2.0309
L41.3559 1.9705
" />
<path d="M41.3559 1.9705
L41.6583 1.9705
" />
<path d="M41.6583 1.9705
L41.7792 1.9100
" />
<path d="M42.5654 2.4543
L42.4445 2.3938
" />
<path d="M42.4445 2.3938
L42.3840 2.2728
" />
<path d="M42.3840 2.2728
L42.3840 1.1843
" />
</g></g>
<g style="fill:none; 
stroke:#AFAFAF; stroke-width:0.1500; stroke-opacity:1; 
stroke-linecap:round; stroke-linejoin:round;">
<text x="33.3090" y="11.8250"
textLength="4.5357" font-size="1.3333" lengthAdjust="spacingAndGlyphs"
text-anchor="middle" opacity="0">REF**</text>
<g class="stroked-text"><desc>REF**</desc>
<path d="M31.9756 11.7798
L31.6423 11.3036
" />
<path d="M31.4042 11.7798
L31.4042 10.7798
" />
<path d="M31.4042 10.7798
L31.7852 10.7798
" />
<path d="M31.7852 10.7798
L31.8804 10.8274
" />
<path d="M31.8804 10.8274
L31.9280 10.8751
" />
<path d="M31.9280 10.8751
L31.9756 10.9703
" />
<path d="M31.9756 10.9703
L31.9756 11.1132
" />
<path d="M31.9756 11.1132
L31.9280 11.2084
" />
<path d="M31.9280 11.2084
L31.8804 11.2560
" />
<path d="M31.8804 11.2560
L31.7852 11.3036
" />
<path d="M31.7852 11.3036
L31.4042 11.3036
" />
<path d="M32.4042 11.2560
L32.7376 11.2560
" />
<path d="M32.8804 11.7798
L32.4042 11.7798
" />
<path d="M32.4042 11.7798
L32.4042 10.7798
" />
<path d="M32.4042 10.7798
L32.8804 10.7798
" />
<path d="M33.6423 11.2560
L33.3090 11.2560
" />
<path d="M33.3090 11.7798
L33.3090 10.7798
" />
<path d="M33.3090 10.7798
L33.7852 10.7798
" />
<path d="M34.3090 10.7798
L34.3090 11.0179
" />
<path d="M34.0709 10.9227
L34.3090 11.0179
" />
<path d="M34.3090 11.0179
L34.5471 10.9227
" />
<path d="M34.1661 11.2084
L34.3090 11.0179
" />
<path d="M34.3090 11.0179
L34.4518 11.2084
" />
<path d="M35.0709 10.7798
L35.0709 11.0179
" />
<path d="M34.8328 10.9227
L35.0709 11.0179
" />
<path d="M35.0709 11.0179
L35.3090 10.9227
" />
<path d="M34.9280 11.2084
L35.0709 11.0179
" />
<path d="M35.0709 11.0179
L35.2137 11.2084
" />
</g></g>
<g style="fill:none; 
stroke:#AFAFAF; stroke-width:0.1000; stroke-opacity:1; 
stroke-linecap:round; stroke-linejoin:round;">
<path d="M19.4790 5.8750
L20.5290 5.8750
" />
<path d="M19.4790 9.0750
L19.4790 5.8750
" />
<path d="M20.5290 5.8750
L20.5290 15.2750
" />
<path d="M20.5290 9.0750
L19.4790 9.0750
" />
<path d="M20.5290 15.2750
L46.0890 15.2750
" />
<path d="M20.6290 5.8750
L21.4290 6.6750
" />
<path d="M20.7290 1.8750
L22.1290 1.8750
" />
<path d="M20.7290 5.8750
L20.7290 1.8750
" />
<path d="M20.7290 15.2750
L20.7290 16.7750
" />
<path d="M20.7290 16.7750
L22.1290 16.7750
" />
<path d="M21.4290 6.6750
L22.2290 5.8750
" />
<path d="M22.1290 1.8750
L22.1290 5.8750
" />
<path d="M22.1290 16.7750
L22.1290 15.2750
" />
<path d="M24.6890 1.8750
L26.0890 1.8750
" />
<path d="M24.6890 5.8750
L24.6890 1.8750
" />
<path d="M24.6890 15.2750
L24.6890 16.7750
" />
<path d="M24.6890 16.7750
L26.0890 16.7750
" />
<path d="M26.0890 1.8750
L26.0890 5.8750
" />
<path d="M26.0890 16.7750
L26.0890 15.2750
" />
<path d="M28.6490 1.8750
L30.0490 1.8750
" />
<path d="M28.6490 5.8750
L28.6490 1.8750
" />
<path d="M28.6490 15.2750
L28.6490 16.7750
" />
<path d="M28.6490 16.7750
L30.0490 16.7750
" />
<path d="M30.0490 1.8750
L30.0490 5.8750
" />
<path d="M30.0490 16.7750
L30.0490 15.2750
" />
<path d="M32.6090 1.8750
L34.0090 1.8750
" />
<path d="M32.6090 5.8750
L32.6090 1.8750
" />
<path d="M32.6090 15.2750
L32.6090 16.7750
" />
<path d="M32.6090 16.7750
L34.0090 16.7750
" />
<path d="M34.0090 1.8750
L34.0090 5.8750
" />
<path d="M34.0090 16.7750
L34.0090 15.2750
" />
<path d="M36.5690 1.8750
L37.9690 1.8750
" />
<path d="M36.5690 5.8750
L36.5690 1.8750
" />
<path d="M36.5690 15.2750
L36.5690 16.7750
" />
<path d="M36.5690 16.7750
L37.9690 16.7750
" />
<path d="M37.9690 1.8750
L37.9690 5.8750
" />
<path d="M37.9690 16.7750
L37.9690 15.2750
" />
<path d="M40.5290 1.8750
L41.9290 1.8750
" />
<path d="M40.5290 5.8750
L40.5290 1.8750
" />
<path d="M40.5290 15.2750
L40.5290 16.7750
" />
<path d="M40.5290 16.7750
L41.9290 16.7750
" />
<path d="M41.9290 1.8750
L41.9290 5.8750
" />
<path d="M41.9290 16.7750
L41.9290 15.2750
" />
<path d="M44.4890 1.8750
L45.8890 1.8750
" />
<path d="M44.4890 5.8750
L44.4890 1.8750
" />
<path d="M44.4890 15.2750
L44.4890 16.7750
" />
<path d="M44.4890 16.7750
L45.8890 16.7750
" />
<path d="M45.8890 1.8750
L45.8890 5.8750
" />
<path d="M45.8890 16.7750
L45.8890 15.2750
" />
<path d="M46.0890 5.8750
L20.5290 5.8750
" />
<path d="M46.0890 5.8750
L47.1390 5.8750
" />
<path d="M46.0890 15.2750
L46.0890 5.8750
" />
<path d="M47.1390 5.8750
L47.1390 9.0750
" />
<path d="M47.1390 9.0750
L46.0890 9.0750
" />
</g> 
</svg>
