<?xml version="1.0" standalone="no"?>
 <!DOCTYPE svg PUBLIC "-//W3C//DTD SVG 1.1//EN" 
 "http://www.w3.org/Graphics/SVG/1.1/DTD/svg11.dtd"> 
<svg
  xmlns:svg="http://www.w3.org/2000/svg"
  xmlns="http://www.w3.org/2000/svg"
  xmlns:xlink="http://www.w3.org/1999/xlink"
  version="1.1"
  width="26.7462mm" height="2.0828mm" viewBox="0.0000 0.0000 26.7462 2.0828">
<title>SVG Image created as working-brd.svg date 2024/04/20 20:15:11 </title>
  <desc>Image generated by PCBNEW </desc>
<g style="fill:#000000; fill-opacity:1.0000;stroke:#000000; stroke-opacity:1.0000;
stroke-linecap:round; stroke-linejoin:round;"
 transform="translate(0 0) scale(1 1)">
<path style="fill:#C83434; fill-opacity:1.0000; stroke:none;fill-rule:evenodd;"
d="M 12.7526,0.8100
12.7526,0.5300
13.2826,0.5300
13.2826,0.8100
Z" /> 
<path style="fill:#C83434; fill-opacity:1.0000; stroke:none;fill-rule:evenodd;"
d="M 12.7526,1.2100
12.7526,0.9300
13.2826,0.9300
13.2826,1.2100
Z" /> 
<path style="fill:#C83434; fill-opacity:1.0000; stroke:none;fill-rule:evenodd;"
d="M 12.7526,1.6100
12.7526,1.3300
13.2826,1.3300
13.2826,1.6100
Z" /> 
<path style="fill:#C83434; fill-opacity:1.0000; stroke:none;fill-rule:evenodd;"
d="M 13.4886,1.6100
13.4886,1.3300
14.0186,1.3300
14.0186,1.6100
Z" /> 
<path style="fill:#C83434; fill-opacity:1.0000; stroke:none;fill-rule:evenodd;"
d="M 13.4886,1.2100
13.4886,0.9300
14.0186,0.9300
14.0186,1.2100
Z" /> 
<path style="fill:#C83434; fill-opacity:1.0000; stroke:none;fill-rule:evenodd;"
d="M 13.4886,0.8100
13.4886,0.5300
14.0186,0.5300
14.0186,0.8100
Z" /> 
<path style="fill:#D864FF; fill-opacity:0.4000; stroke:none;fill-rule:evenodd;"
d="M 12.7526,0.8100
12.7526,0.5300
13.2826,0.5300
13.2826,0.8100
Z" /> 
<path style="fill:#D864FF; fill-opacity:0.4000; stroke:none;fill-rule:evenodd;"
d="M 12.7526,1.2100
12.7526,0.9300
13.2826,0.9300
13.2826,1.2100
Z" /> 
<path style="fill:#D864FF; fill-opacity:0.4000; stroke:none;fill-rule:evenodd;"
d="M 12.7526,1.6100
12.7526,1.3300
13.2826,1.3300
13.2826,1.6100
Z" /> 
<path style="fill:#D864FF; fill-opacity:0.4000; stroke:none;fill-rule:evenodd;"
d="M 13.4886,1.6100
13.4886,1.3300
14.0186,1.3300
14.0186,1.6100
Z" /> 
<path style="fill:#D864FF; fill-opacity:0.4000; stroke:none;fill-rule:evenodd;"
d="M 13.4886,1.2100
13.4886,0.9300
14.0186,0.9300
14.0186,1.2100
Z" /> 
<path style="fill:#D864FF; fill-opacity:0.4000; stroke:none;fill-rule:evenodd;"
d="M 13.4886,0.8100
13.4886,0.5300
14.0186,0.5300
14.0186,0.8100
Z" /> 
<path style="fill:#B4A09A; fill-opacity:0.9000; stroke:none;fill-rule:evenodd;"
d="M 12.7526,0.8100
12.7526,0.5300
13.2826,0.5300
13.2826,0.8100
Z" /> 
<path style="fill:#B4A09A; fill-opacity:0.9000; stroke:none;fill-rule:evenodd;"
d="M 12.7526,1.2100
12.7526,0.9300
13.2826,0.9300
13.2826,1.2100
Z" /> 
<path style="fill:#B4A09A; fill-opacity:0.9000; stroke:none;fill-rule:evenodd;"
d="M 12.7526,1.6100
12.7526,1.3300
13.2826,1.3300
13.2826,1.6100
Z" /> 
<path style="fill:#B4A09A; fill-opacity:0.9000; stroke:none;fill-rule:evenodd;"
d="M 13.4886,1.6100
13.4886,1.3300
14.0186,1.3300
14.0186,1.6100
Z" /> 
<path style="fill:#B4A09A; fill-opacity:0.9000; stroke:none;fill-rule:evenodd;"
d="M 13.4886,1.2100
13.4886,0.9300
14.0186,0.9300
14.0186,1.2100
Z" /> 
<path style="fill:#B4A09A; fill-opacity:0.9000; stroke:none;fill-rule:evenodd;"
d="M 13.4886,0.8100
13.4886,0.5300
14.0186,0.5300
14.0186,0.8100
Z" /> 
</g>
<g style="fill:none; 
stroke:#F2EDA1; stroke-width:0.1588; stroke-opacity:1; 
stroke-linecap:round; stroke-linejoin:round;">
<text x="13.3856" y="1.7050"
textLength="5.6651" font-size="1.6933" lengthAdjust="spacingAndGlyphs"
text-anchor="middle" opacity="0">REF**</text>
<g class="stroked-text"><desc>REF**</desc>
<path d="M11.6923 1.6493
L11.2690 1.0445
" />
<path d="M10.9666 1.6493
L10.9666 0.3793
" />
<path d="M10.9666 0.3793
L11.4504 0.3793
" />
<path d="M11.4504 0.3793
L11.5714 0.4397
" />
<path d="M11.5714 0.4397
L11.6318 0.5002
" />
<path d="M11.6318 0.5002
L11.6923 0.6212
" />
<path d="M11.6923 0.6212
L11.6923 0.8026
" />
<path d="M11.6923 0.8026
L11.6318 0.9236
" />
<path d="M11.6318 0.9236
L11.5714 0.9840
" />
<path d="M11.5714 0.9840
L11.4504 1.0445
" />
<path d="M11.4504 1.0445
L10.9666 1.0445
" />
<path d="M12.2366 0.9840
L12.6599 0.9840
" />
<path d="M12.8414 1.6493
L12.2366 1.6493
" />
<path d="M12.2366 1.6493
L12.2366 0.3793
" />
<path d="M12.2366 0.3793
L12.8414 0.3793
" />
<path d="M13.8090 0.9840
L13.3856 0.9840
" />
<path d="M13.3856 1.6493
L13.3856 0.3793
" />
<path d="M13.3856 0.3793
L13.9904 0.3793
" />
<path d="M14.6556 0.3793
L14.6556 0.6817
" />
<path d="M14.3533 0.5607
L14.6556 0.6817
" />
<path d="M14.6556 0.6817
L14.9580 0.5607
" />
<path d="M14.4742 0.9236
L14.6556 0.6817
" />
<path d="M14.6556 0.6817
L14.8371 0.9236
" />
<path d="M15.6233 0.3793
L15.6233 0.6817
" />
<path d="M15.3209 0.5607
L15.6233 0.6817
" />
<path d="M15.6233 0.6817
L15.9256 0.5607
" />
<path d="M15.4418 0.9236
L15.6233 0.6817
" />
<path d="M15.6233 0.6817
L15.8047 0.9236
" />
</g></g>
<g style="fill:none; 
stroke:#F2EDA1; stroke-width:0.1200; stroke-opacity:1; 
stroke-linecap:round; stroke-linejoin:round;">
<path d="M12.7356 1.8800
L14.0356 1.8800
" />
<path d="M12.8956 0.2600
L14.0356 0.2600
" />
<path style="fill:#F2EDA1; fill-opacity:1.0000; 
stroke:#F2EDA1; stroke-width:0.1200; stroke-opacity:1; 
stroke-linecap:round; stroke-linejoin:round;fill-rule:evenodd;"
d="M 12.5656,0.3400
12.2856,0.3400
12.5656,0.0600
Z" /> 
</g>
<g style="fill:none; 
stroke:#FF26E2; stroke-width:0.0500; stroke-opacity:1; 
stroke-linecap:round; stroke-linejoin:round;">
<path d="M12.5856 0.3700
L12.5856 1.8200
" />
<path d="M12.5856 0.3700
L14.1856 0.3700
" />
<path d="M14.1856 1.8200
L12.5856 1.8200
" />
<path d="M14.1856 1.8200
L14.1856 0.3700
" />
</g>
<g style="fill:none; 
stroke:#AFAFAF; stroke-width:0.1588; stroke-opacity:1; 
stroke-linecap:round; stroke-linejoin:round;">
<text x="13.3856" y="1.7050"
textLength="26.7713" font-size="1.6933" lengthAdjust="spacingAndGlyphs"
text-anchor="middle" opacity="0">DFN-6_1.3x1.2mm_P0.4mm</text>
<g class="stroked-text"><desc>DFN-6_1.3x1.2mm_P0.4mm</desc>
<path d="M0.4135 1.6493
L0.4135 0.3793
" />
<path d="M0.4135 0.3793
L0.7159 0.3793
" />
<path d="M0.7159 0.3793
L0.8973 0.4397
" />
<path d="M0.8973 0.4397
L1.0183 0.5607
" />
<path d="M1.0183 0.5607
L1.0787 0.6817
" />
<path d="M1.0787 0.6817
L1.1392 0.9236
" />
<path d="M1.1392 0.9236
L1.1392 1.1050
" />
<path d="M1.1392 1.1050
L1.0787 1.3469
" />
<path d="M1.0787 1.3469
L1.0183 1.4678
" />
<path d="M1.0183 1.4678
L0.8973 1.5888
" />
<path d="M0.8973 1.5888
L0.7159 1.6493
" />
<path d="M0.7159 1.6493
L0.4135 1.6493
" />
<path d="M2.1068 0.9840
L1.6835 0.9840
" />
<path d="M1.6835 1.6493
L1.6835 0.3793
" />
<path d="M1.6835 0.3793
L2.2883 0.3793
" />
<path d="M2.7721 1.6493
L2.7721 0.3793
" />
<path d="M2.7721 0.3793
L3.4978 1.6493
" />
<path d="M3.4978 1.6493
L3.4978 0.3793
" />
<path d="M4.1026 1.1655
L5.0702 1.1655
" />
<path d="M6.2192 0.3793
L5.9773 0.3793
" />
<path d="M5.9773 0.3793
L5.8564 0.4397
" />
<path d="M5.8564 0.4397
L5.7959 0.5002
" />
<path d="M5.7959 0.5002
L5.6749 0.6817
" />
<path d="M5.6749 0.6817
L5.6145 0.9236
" />
<path d="M5.6145 0.9236
L5.6145 1.4074
" />
<path d="M5.6145 1.4074
L5.6749 1.5283
" />
<path d="M5.6749 1.5283
L5.7354 1.5888
" />
<path d="M5.7354 1.5888
L5.8564 1.6493
" />
<path d="M5.8564 1.6493
L6.0983 1.6493
" />
<path d="M6.0983 1.6493
L6.2192 1.5888
" />
<path d="M6.2192 1.5888
L6.2797 1.5283
" />
<path d="M6.2797 1.5283
L6.3402 1.4074
" />
<path d="M6.3402 1.4074
L6.3402 1.1050
" />
<path d="M6.3402 1.1050
L6.2797 0.9840
" />
<path d="M6.2797 0.9840
L6.2192 0.9236
" />
<path d="M6.2192 0.9236
L6.0983 0.8631
" />
<path d="M6.0983 0.8631
L5.8564 0.8631
" />
<path d="M5.8564 0.8631
L5.7354 0.9236
" />
<path d="M5.7354 0.9236
L5.6749 0.9840
" />
<path d="M5.6749 0.9840
L5.6145 1.1050
" />
<path d="M6.5821 1.7702
L7.5497 1.7702
" />
<path d="M8.5173 1.6493
L7.7916 1.6493
" />
<path d="M8.1545 1.6493
L8.1545 0.3793
" />
<path d="M8.1545 0.3793
L8.0335 0.5607
" />
<path d="M8.0335 0.5607
L7.9126 0.6817
" />
<path d="M7.9126 0.6817
L7.7916 0.7421
" />
<path d="M9.0616 1.5283
L9.1221 1.5888
" />
<path d="M9.1221 1.5888
L9.0616 1.6493
" />
<path d="M9.0616 1.6493
L9.0011 1.5888
" />
<path d="M9.0011 1.5888
L9.0616 1.5283
" />
<path d="M9.0616 1.5283
L9.0616 1.6493
" />
<path d="M9.5454 0.3793
L10.3316 0.3793
" />
<path d="M10.3316 0.3793
L9.9083 0.8631
" />
<path d="M9.9083 0.8631
L10.0897 0.8631
" />
<path d="M10.0897 0.8631
L10.2106 0.9236
" />
<path d="M10.2106 0.9236
L10.2711 0.9840
" />
<path d="M10.2711 0.9840
L10.3316 1.1050
" />
<path d="M10.3316 1.1050
L10.3316 1.4074
" />
<path d="M10.3316 1.4074
L10.2711 1.5283
" />
<path d="M10.2711 1.5283
L10.2106 1.5888
" />
<path d="M10.2106 1.5888
L10.0897 1.6493
" />
<path d="M10.0897 1.6493
L9.7268 1.6493
" />
<path d="M9.7268 1.6493
L9.6059 1.5888
" />
<path d="M9.6059 1.5888
L9.5454 1.5283
" />
<path d="M10.7549 1.6493
L11.4202 0.8026
" />
<path d="M10.7549 0.8026
L11.4202 1.6493
" />
<path d="M12.5692 1.6493
L11.8435 1.6493
" />
<path d="M12.2064 1.6493
L12.2064 0.3793
" />
<path d="M12.2064 0.3793
L12.0854 0.5607
" />
<path d="M12.0854 0.5607
L11.9645 0.6817
" />
<path d="M11.9645 0.6817
L11.8435 0.7421
" />
<path d="M13.1135 1.5283
L13.1740 1.5888
" />
<path d="M13.1740 1.5888
L13.1135 1.6493
" />
<path d="M13.1135 1.6493
L13.0530 1.5888
" />
<path d="M13.0530 1.5888
L13.1135 1.5283
" />
<path d="M13.1135 1.5283
L13.1135 1.6493
" />
<path d="M13.6578 0.5002
L13.7183 0.4397
" />
<path d="M13.7183 0.4397
L13.8392 0.3793
" />
<path d="M13.8392 0.3793
L14.1416 0.3793
" />
<path d="M14.1416 0.3793
L14.2626 0.4397
" />
<path d="M14.2626 0.4397
L14.3230 0.5002
" />
<path d="M14.3230 0.5002
L14.3835 0.6212
" />
<path d="M14.3835 0.6212
L14.3835 0.7421
" />
<path d="M14.3835 0.7421
L14.3230 0.9236
" />
<path d="M14.3230 0.9236
L13.5973 1.6493
" />
<path d="M13.5973 1.6493
L14.3835 1.6493
" />
<path d="M14.9278 1.6493
L14.9278 0.8026
" />
<path d="M14.9278 0.9236
L14.9883 0.8631
" />
<path d="M14.9883 0.8631
L15.1092 0.8026
" />
<path d="M15.1092 0.8026
L15.2906 0.8026
" />
<path d="M15.2906 0.8026
L15.4116 0.8631
" />
<path d="M15.4116 0.8631
L15.4721 0.9840
" />
<path d="M15.4721 0.9840
L15.4721 1.6493
" />
<path d="M15.4721 0.9840
L15.5326 0.8631
" />
<path d="M15.5326 0.8631
L15.6535 0.8026
" />
<path d="M15.6535 0.8026
L15.8349 0.8026
" />
<path d="M15.8349 0.8026
L15.9559 0.8631
" />
<path d="M15.9559 0.8631
L16.0164 0.9840
" />
<path d="M16.0164 0.9840
L16.0164 1.6493
" />
<path d="M16.6211 1.6493
L16.6211 0.8026
" />
<path d="M16.6211 0.9236
L16.6816 0.8631
" />
<path d="M16.6816 0.8631
L16.8026 0.8026
" />
<path d="M16.8026 0.8026
L16.9840 0.8026
" />
<path d="M16.9840 0.8026
L17.1049 0.8631
" />
<path d="M17.1049 0.8631
L17.1654 0.9840
" />
<path d="M17.1654 0.9840
L17.1654 1.6493
" />
<path d="M17.1654 0.9840
L17.2259 0.8631
" />
<path d="M17.2259 0.8631
L17.3468 0.8026
" />
<path d="M17.3468 0.8026
L17.5283 0.8026
" />
<path d="M17.5283 0.8026
L17.6492 0.8631
" />
<path d="M17.6492 0.8631
L17.7097 0.9840
" />
<path d="M17.7097 0.9840
L17.7097 1.6493
" />
<path d="M18.0121 1.7702
L18.9797 1.7702
" />
<path d="M19.2821 1.6493
L19.2821 0.3793
" />
<path d="M19.2821 0.3793
L19.7659 0.3793
" />
<path d="M19.7659 0.3793
L19.8868 0.4397
" />
<path d="M19.8868 0.4397
L19.9473 0.5002
" />
<path d="M19.9473 0.5002
L20.0078 0.6212
" />
<path d="M20.0078 0.6212
L20.0078 0.8026
" />
<path d="M20.0078 0.8026
L19.9473 0.9236
" />
<path d="M19.9473 0.9236
L19.8868 0.9840
" />
<path d="M19.8868 0.9840
L19.7659 1.0445
" />
<path d="M19.7659 1.0445
L19.2821 1.0445
" />
<path d="M20.7940 0.3793
L20.9149 0.3793
" />
<path d="M20.9149 0.3793
L21.0359 0.4397
" />
<path d="M21.0359 0.4397
L21.0964 0.5002
" />
<path d="M21.0964 0.5002
L21.1568 0.6212
" />
<path d="M21.1568 0.6212
L21.2173 0.8631
" />
<path d="M21.2173 0.8631
L21.2173 1.1655
" />
<path d="M21.2173 1.1655
L21.1568 1.4074
" />
<path d="M21.1568 1.4074
L21.0964 1.5283
" />
<path d="M21.0964 1.5283
L21.0359 1.5888
" />
<path d="M21.0359 1.5888
L20.9149 1.6493
" />
<path d="M20.9149 1.6493
L20.7940 1.6493
" />
<path d="M20.7940 1.6493
L20.6730 1.5888
" />
<path d="M20.6730 1.5888
L20.6126 1.5283
" />
<path d="M20.6126 1.5283
L20.5521 1.4074
" />
<path d="M20.5521 1.4074
L20.4916 1.1655
" />
<path d="M20.4916 1.1655
L20.4916 0.8631
" />
<path d="M20.4916 0.8631
L20.5521 0.6212
" />
<path d="M20.5521 0.6212
L20.6126 0.5002
" />
<path d="M20.6126 0.5002
L20.6730 0.4397
" />
<path d="M20.6730 0.4397
L20.7940 0.3793
" />
<path d="M21.7616 1.5283
L21.8221 1.5888
" />
<path d="M21.8221 1.5888
L21.7616 1.6493
" />
<path d="M21.7616 1.6493
L21.7011 1.5888
" />
<path d="M21.7011 1.5888
L21.7616 1.5283
" />
<path d="M21.7616 1.5283
L21.7616 1.6493
" />
<path d="M22.9106 0.8026
L22.9106 1.6493
" />
<path d="M22.6083 0.3188
L22.3059 1.2259
" />
<path d="M22.3059 1.2259
L23.0921 1.2259
" />
<path d="M23.5759 1.6493
L23.5759 0.8026
" />
<path d="M23.5759 0.9236
L23.6364 0.8631
" />
<path d="M23.6364 0.8631
L23.7573 0.8026
" />
<path d="M23.7573 0.8026
L23.9387 0.8026
" />
<path d="M23.9387 0.8026
L24.0597 0.8631
" />
<path d="M24.0597 0.8631
L24.1202 0.9840
" />
<path d="M24.1202 0.9840
L24.1202 1.6493
" />
<path d="M24.1202 0.9840
L24.1806 0.8631
" />
<path d="M24.1806 0.8631
L24.3016 0.8026
" />
<path d="M24.3016 0.8026
L24.4830 0.8026
" />
<path d="M24.4830 0.8026
L24.6040 0.8631
" />
<path d="M24.6040 0.8631
L24.6645 0.9840
" />
<path d="M24.6645 0.9840
L24.6645 1.6493
" />
<path d="M25.2692 1.6493
L25.2692 0.8026
" />
<path d="M25.2692 0.9236
L25.3297 0.8631
" />
<path d="M25.3297 0.8631
L25.4506 0.8026
" />
<path d="M25.4506 0.8026
L25.6321 0.8026
" />
<path d="M25.6321 0.8026
L25.7530 0.8631
" />
<path d="M25.7530 0.8631
L25.8135 0.9840
" />
<path d="M25.8135 0.9840
L25.8135 1.6493
" />
<path d="M25.8135 0.9840
L25.8740 0.8631
" />
<path d="M25.8740 0.8631
L25.9949 0.8026
" />
<path d="M25.9949 0.8026
L26.1764 0.8026
" />
<path d="M26.1764 0.8026
L26.2973 0.8631
" />
<path d="M26.2973 0.8631
L26.3578 0.9840
" />
<path d="M26.3578 0.9840
L26.3578 1.6493
" />
</g></g>
<g style="fill:none; 
stroke:#AFAFAF; stroke-width:0.0750; stroke-opacity:1; 
stroke-linecap:round; stroke-linejoin:round;">
<text x="13.3856" y="1.3450"
textLength="2.2679" font-size="0.6667" lengthAdjust="spacingAndGlyphs"
text-anchor="middle" opacity="0">REF**</text>
<g class="stroked-text"><desc>REF**</desc>
<path d="M12.7190 1.3224
L12.5523 1.0843
" />
<path d="M12.4333 1.3224
L12.4333 0.8224
" />
<path d="M12.4333 0.8224
L12.6237 0.8224
" />
<path d="M12.6237 0.8224
L12.6714 0.8462
" />
<path d="M12.6714 0.8462
L12.6952 0.8700
" />
<path d="M12.6952 0.8700
L12.7190 0.9176
" />
<path d="M12.7190 0.9176
L12.7190 0.9891
" />
<path d="M12.7190 0.9891
L12.6952 1.0367
" />
<path d="M12.6952 1.0367
L12.6714 1.0605
" />
<path d="M12.6714 1.0605
L12.6237 1.0843
" />
<path d="M12.6237 1.0843
L12.4333 1.0843
" />
<path d="M12.9333 1.0605
L13.0999 1.0605
" />
<path d="M13.1714 1.3224
L12.9333 1.3224
" />
<path d="M12.9333 1.3224
L12.9333 0.8224
" />
<path d="M12.9333 0.8224
L13.1714 0.8224
" />
<path d="M13.5523 1.0605
L13.3856 1.0605
" />
<path d="M13.3856 1.3224
L13.3856 0.8224
" />
<path d="M13.3856 0.8224
L13.6237 0.8224
" />
<path d="M13.8856 0.8224
L13.8856 0.9415
" />
<path d="M13.7666 0.8938
L13.8856 0.9415
" />
<path d="M13.8856 0.9415
L14.0047 0.8938
" />
<path d="M13.8142 1.0367
L13.8856 0.9415
" />
<path d="M13.8856 0.9415
L13.9571 1.0367
" />
<path d="M14.2666 0.8224
L14.2666 0.9415
" />
<path d="M14.1476 0.8938
L14.2666 0.9415
" />
<path d="M14.2666 0.9415
L14.3856 0.8938
" />
<path d="M14.1952 1.0367
L14.2666 0.9415
" />
<path d="M14.2666 0.9415
L14.3380 1.0367
" />
</g></g>
<g style="fill:none; 
stroke:#AFAFAF; stroke-width:0.1000; stroke-opacity:1; 
stroke-linecap:round; stroke-linejoin:round;">
<path d="M12.7356 1.0700
L12.7356 1.6700
" />
<path d="M12.7356 1.6700
L14.0356 1.6700
" />
<path d="M13.2856 0.5200
L12.7356 1.0700
" />
<path d="M14.0356 0.5200
L13.2856 0.5200
" />
<path d="M14.0356 1.6700
L14.0356 0.5200
" />
</g> 
</svg>
