<?xml version="1.0" standalone="no"?>
 <!DOCTYPE svg PUBLIC "-//W3C//DTD SVG 1.1//EN" 
 "http://www.w3.org/Graphics/SVG/1.1/DTD/svg11.dtd"> 
<svg
  xmlns:svg="http://www.w3.org/2000/svg"
  xmlns="http://www.w3.org/2000/svg"
  xmlns:xlink="http://www.w3.org/1999/xlink"
  version="1.1"
  width="35.7124mm" height="50.5968mm" viewBox="0.0000 0.0000 35.7124 50.5968">
<title>SVG Image created as working-brd.svg date 2024/04/04 10:38:15 </title>
  <desc>Image generated by PCBNEW </desc>
<g style="fill:#000000; fill-opacity:1.0000;stroke:#000000; stroke-opacity:1.0000;
stroke-linecap:round; stroke-linejoin:round;"
 transform="translate(0 0) scale(1 1)">
</g>
<g style="fill:#FFFFFF; fill-opacity:1.0000; stroke:none;">
<circle cx="17.8609" cy="1.1750" r="0.3250" /> 
</g>
<g style="fill:#FFFFFF; fill-opacity:1.0000; stroke:none;">
<circle cx="16.5909" cy="1.1750" r="0.3250" /> 
</g>
<g style="fill:#FFFFFF; fill-opacity:1.0000; stroke:none;">
<circle cx="17.8609" cy="2.4450" r="0.3250" /> 
</g>
<g style="fill:#FFFFFF; fill-opacity:1.0000; stroke:none;">
<circle cx="16.5909" cy="2.4450" r="0.3250" /> 
</g>
<g style="fill:#FFFFFF; fill-opacity:1.0000; stroke:none;">
<circle cx="17.8609" cy="3.7150" r="0.3250" /> 
</g>
<g style="fill:#FFFFFF; fill-opacity:1.0000; stroke:none;">
<circle cx="16.5909" cy="3.7150" r="0.3250" /> 
</g>
<g style="fill:#FFFFFF; fill-opacity:1.0000; stroke:none;">
<circle cx="17.8609" cy="4.9850" r="0.3250" /> 
</g>
<g style="fill:#FFFFFF; fill-opacity:1.0000; stroke:none;">
<circle cx="16.5909" cy="4.9850" r="0.3250" /> 
</g>
<g style="fill:#FFFFFF; fill-opacity:1.0000; stroke:none;">
<circle cx="17.8609" cy="6.2550" r="0.3250" /> 
</g>
<g style="fill:#FFFFFF; fill-opacity:1.0000; stroke:none;">
<circle cx="16.5909" cy="6.2550" r="0.3250" /> 
</g>
<g style="fill:#FFFFFF; fill-opacity:1.0000; stroke:none;">
<circle cx="17.8609" cy="7.5250" r="0.3250" /> 
</g>
<g style="fill:#FFFFFF; fill-opacity:1.0000; stroke:none;">
<circle cx="16.5909" cy="7.5250" r="0.3250" /> 
</g>
<g style="fill:#FFFFFF; fill-opacity:1.0000; stroke:none;">
<circle cx="17.8609" cy="8.7950" r="0.3250" /> 
</g>
<g style="fill:#FFFFFF; fill-opacity:1.0000; stroke:none;">
<circle cx="16.5909" cy="8.7950" r="0.3250" /> 
</g>
<g style="fill:#FFFFFF; fill-opacity:1.0000; stroke:none;">
<circle cx="17.8609" cy="10.0650" r="0.3250" /> 
</g>
<g style="fill:#FFFFFF; fill-opacity:1.0000; stroke:none;">
<circle cx="16.5909" cy="10.0650" r="0.3250" /> 
</g>
<g style="fill:#FFFFFF; fill-opacity:1.0000; stroke:none;">
<circle cx="17.8609" cy="11.3350" r="0.3250" /> 
</g>
<g style="fill:#FFFFFF; fill-opacity:1.0000; stroke:none;">
<circle cx="16.5909" cy="11.3350" r="0.3250" /> 
</g>
<g style="fill:#FFFFFF; fill-opacity:1.0000; stroke:none;">
<circle cx="17.8609" cy="12.6050" r="0.3250" /> 
</g>
<g style="fill:#FFFFFF; fill-opacity:1.0000; stroke:none;">
<circle cx="16.5909" cy="12.6050" r="0.3250" /> 
</g>
<g style="fill:#FFFFFF; fill-opacity:1.0000; stroke:none;">
<circle cx="17.8609" cy="13.8750" r="0.3250" /> 
</g>
<g style="fill:#FFFFFF; fill-opacity:1.0000; stroke:none;">
<circle cx="16.5909" cy="13.8750" r="0.3250" /> 
</g>
<g style="fill:#FFFFFF; fill-opacity:1.0000; stroke:none;">
<circle cx="17.8609" cy="15.1450" r="0.3250" /> 
</g>
<g style="fill:#FFFFFF; fill-opacity:1.0000; stroke:none;">
<circle cx="16.5909" cy="15.1450" r="0.3250" /> 
</g>
<g style="fill:#FFFFFF; fill-opacity:1.0000; stroke:none;">
<circle cx="17.8609" cy="16.4150" r="0.3250" /> 
</g>
<g style="fill:#FFFFFF; fill-opacity:1.0000; stroke:none;">
<circle cx="16.5909" cy="16.4150" r="0.3250" /> 
</g>
<g style="fill:#FFFFFF; fill-opacity:1.0000; stroke:none;">
<circle cx="17.8609" cy="17.6850" r="0.3250" /> 
</g>
<g style="fill:#FFFFFF; fill-opacity:1.0000; stroke:none;">
<circle cx="16.5909" cy="17.6850" r="0.3250" /> 
</g>
<g style="fill:#FFFFFF; fill-opacity:1.0000; stroke:none;">
<circle cx="17.8609" cy="18.9550" r="0.3250" /> 
</g>
<g style="fill:#FFFFFF; fill-opacity:1.0000; stroke:none;">
<circle cx="16.5909" cy="18.9550" r="0.3250" /> 
</g>
<g style="fill:#FFFFFF; fill-opacity:1.0000; stroke:none;">
<circle cx="17.8609" cy="20.2250" r="0.3250" /> 
</g>
<g style="fill:#FFFFFF; fill-opacity:1.0000; stroke:none;">
<circle cx="16.5909" cy="20.2250" r="0.3250" /> 
</g>
<g style="fill:#FFFFFF; fill-opacity:1.0000; stroke:none;">
<circle cx="17.8609" cy="21.4950" r="0.3250" /> 
</g>
<g style="fill:#FFFFFF; fill-opacity:1.0000; stroke:none;">
<circle cx="16.5909" cy="21.4950" r="0.3250" /> 
</g>
<g style="fill:#FFFFFF; fill-opacity:1.0000; stroke:none;">
<circle cx="17.8609" cy="22.7650" r="0.3250" /> 
</g>
<g style="fill:#FFFFFF; fill-opacity:1.0000; stroke:none;">
<circle cx="16.5909" cy="22.7650" r="0.3250" /> 
</g>
<g style="fill:#FFFFFF; fill-opacity:1.0000; stroke:none;">
<circle cx="17.8609" cy="24.0350" r="0.3250" /> 
</g>
<g style="fill:#FFFFFF; fill-opacity:1.0000; stroke:none;">
<circle cx="16.5909" cy="24.0350" r="0.3250" /> 
</g>
<g style="fill:#FFFFFF; fill-opacity:1.0000; stroke:none;">
<circle cx="17.8609" cy="25.3050" r="0.3250" /> 
</g>
<g style="fill:#FFFFFF; fill-opacity:1.0000; stroke:none;">
<circle cx="16.5909" cy="25.3050" r="0.3250" /> 
</g>
<g style="fill:#FFFFFF; fill-opacity:1.0000; stroke:none;">
<circle cx="17.8609" cy="26.5750" r="0.3250" /> 
</g>
<g style="fill:#FFFFFF; fill-opacity:1.0000; stroke:none;">
<circle cx="16.5909" cy="26.5750" r="0.3250" /> 
</g>
<g style="fill:#FFFFFF; fill-opacity:1.0000; stroke:none;">
<circle cx="17.8609" cy="27.8450" r="0.3250" /> 
</g>
<g style="fill:#FFFFFF; fill-opacity:1.0000; stroke:none;">
<circle cx="16.5909" cy="27.8450" r="0.3250" /> 
</g>
<g style="fill:#FFFFFF; fill-opacity:1.0000; stroke:none;">
<circle cx="17.8609" cy="29.1150" r="0.3250" /> 
</g>
<g style="fill:#FFFFFF; fill-opacity:1.0000; stroke:none;">
<circle cx="16.5909" cy="29.1150" r="0.3250" /> 
</g>
<g style="fill:#FFFFFF; fill-opacity:1.0000; stroke:none;">
<circle cx="17.8609" cy="30.3850" r="0.3250" /> 
</g>
<g style="fill:#FFFFFF; fill-opacity:1.0000; stroke:none;">
<circle cx="16.5909" cy="30.3850" r="0.3250" /> 
</g>
<g style="fill:#FFFFFF; fill-opacity:1.0000; stroke:none;">
<circle cx="17.8609" cy="31.6550" r="0.3250" /> 
</g>
<g style="fill:#FFFFFF; fill-opacity:1.0000; stroke:none;">
<circle cx="16.5909" cy="31.6550" r="0.3250" /> 
</g>
<g style="fill:#FFFFFF; fill-opacity:1.0000; stroke:none;">
<circle cx="17.8609" cy="32.9250" r="0.3250" /> 
</g>
<g style="fill:#FFFFFF; fill-opacity:1.0000; stroke:none;">
<circle cx="16.5909" cy="32.9250" r="0.3250" /> 
</g>
<g style="fill:#FFFFFF; fill-opacity:1.0000; stroke:none;">
<circle cx="17.8609" cy="34.1950" r="0.3250" /> 
</g>
<g style="fill:#FFFFFF; fill-opacity:1.0000; stroke:none;">
<circle cx="16.5909" cy="34.1950" r="0.3250" /> 
</g>
<g style="fill:#FFFFFF; fill-opacity:1.0000; stroke:none;">
<circle cx="17.8609" cy="35.4650" r="0.3250" /> 
</g>
<g style="fill:#FFFFFF; fill-opacity:1.0000; stroke:none;">
<circle cx="16.5909" cy="35.4650" r="0.3250" /> 
</g>
<g style="fill:#FFFFFF; fill-opacity:1.0000; stroke:none;">
<circle cx="17.8609" cy="36.7350" r="0.3250" /> 
</g>
<g style="fill:#FFFFFF; fill-opacity:1.0000; stroke:none;">
<circle cx="16.5909" cy="36.7350" r="0.3250" /> 
</g>
<g style="fill:#FFFFFF; fill-opacity:1.0000; stroke:none;">
<circle cx="17.8609" cy="38.0050" r="0.3250" /> 
</g>
<g style="fill:#FFFFFF; fill-opacity:1.0000; stroke:none;">
<circle cx="16.5909" cy="38.0050" r="0.3250" /> 
</g>
<g style="fill:#FFFFFF; fill-opacity:1.0000; stroke:none;">
<circle cx="17.8609" cy="39.2750" r="0.3250" /> 
</g>
<g style="fill:#FFFFFF; fill-opacity:1.0000; stroke:none;">
<circle cx="16.5909" cy="39.2750" r="0.3250" /> 
</g>
<g style="fill:#FFFFFF; fill-opacity:1.0000; stroke:none;">
<circle cx="17.8609" cy="40.5450" r="0.3250" /> 
</g>
<g style="fill:#FFFFFF; fill-opacity:1.0000; stroke:none;">
<circle cx="16.5909" cy="40.5450" r="0.3250" /> 
</g>
<g style="fill:#FFFFFF; fill-opacity:1.0000; stroke:none;">
<circle cx="17.8609" cy="41.8150" r="0.3250" /> 
</g>
<g style="fill:#FFFFFF; fill-opacity:1.0000; stroke:none;">
<circle cx="16.5909" cy="41.8150" r="0.3250" /> 
</g>
<g style="fill:#FFFFFF; fill-opacity:1.0000; stroke:none;">
<circle cx="17.8609" cy="43.0850" r="0.3250" /> 
</g>
<g style="fill:#FFFFFF; fill-opacity:1.0000; stroke:none;">
<circle cx="16.5909" cy="43.0850" r="0.3250" /> 
</g>
<g style="fill:#FFFFFF; fill-opacity:1.0000; stroke:none;">
<circle cx="17.8609" cy="44.3550" r="0.3250" /> 
</g>
<g style="fill:#FFFFFF; fill-opacity:1.0000; stroke:none;">
<circle cx="16.5909" cy="44.3550" r="0.3250" /> 
</g>
<g style="fill:#FFFFFF; fill-opacity:1.0000; stroke:none;">
<circle cx="17.8609" cy="45.6250" r="0.3250" /> 
</g>
<g style="fill:#FFFFFF; fill-opacity:1.0000; stroke:none;">
<circle cx="16.5909" cy="45.6250" r="0.3250" /> 
</g>
<g style="fill:#FFFFFF; fill-opacity:1.0000; stroke:none;">
<circle cx="17.8609" cy="46.8950" r="0.3250" /> 
</g>
<g style="fill:#FFFFFF; fill-opacity:1.0000; stroke:none;">
<circle cx="16.5909" cy="46.8950" r="0.3250" /> 
</g>
<g style="fill:#FFFFFF; fill-opacity:1.0000; stroke:none;">
<circle cx="17.8609" cy="48.1650" r="0.3250" /> 
</g>
<g style="fill:#FFFFFF; fill-opacity:1.0000; stroke:none;">
<circle cx="16.5909" cy="48.1650" r="0.3250" /> 
</g>
<g style="fill:#FFFFFF; fill-opacity:1.0000; stroke:none;">
<circle cx="17.8609" cy="49.4350" r="0.3250" /> 
</g>
<g style="fill:#FFFFFF; fill-opacity:1.0000; stroke:none;">
<circle cx="16.5909" cy="49.4350" r="0.3250" /> 
<path style="fill:#02FFEE; fill-opacity:0.4000; stroke:none;fill-rule:evenodd;"
d="M 17.3609,1.6750
17.3609,0.6750
18.3609,0.6750
18.3609,1.6750
Z" /> 
</g>
<g style="fill:#02FFEE; fill-opacity:0.4000; stroke:none;">
<circle cx="16.5909" cy="1.1750" r="0.5000" /> 
<circle cx="17.8609" cy="2.4450" r="0.5000" /> 
<circle cx="16.5909" cy="2.4450" r="0.5000" /> 
<circle cx="17.8609" cy="3.7150" r="0.5000" /> 
<circle cx="16.5909" cy="3.7150" r="0.5000" /> 
<circle cx="17.8609" cy="4.9850" r="0.5000" /> 
<circle cx="16.5909" cy="4.9850" r="0.5000" /> 
<circle cx="17.8609" cy="6.2550" r="0.5000" /> 
<circle cx="16.5909" cy="6.2550" r="0.5000" /> 
<circle cx="17.8609" cy="7.5250" r="0.5000" /> 
<circle cx="16.5909" cy="7.5250" r="0.5000" /> 
<circle cx="17.8609" cy="8.7950" r="0.5000" /> 
<circle cx="16.5909" cy="8.7950" r="0.5000" /> 
<circle cx="17.8609" cy="10.0650" r="0.5000" /> 
<circle cx="16.5909" cy="10.0650" r="0.5000" /> 
<circle cx="17.8609" cy="11.3350" r="0.5000" /> 
<circle cx="16.5909" cy="11.3350" r="0.5000" /> 
<circle cx="17.8609" cy="12.6050" r="0.5000" /> 
<circle cx="16.5909" cy="12.6050" r="0.5000" /> 
<circle cx="17.8609" cy="13.8750" r="0.5000" /> 
<circle cx="16.5909" cy="13.8750" r="0.5000" /> 
<circle cx="17.8609" cy="15.1450" r="0.5000" /> 
<circle cx="16.5909" cy="15.1450" r="0.5000" /> 
<circle cx="17.8609" cy="16.4150" r="0.5000" /> 
<circle cx="16.5909" cy="16.4150" r="0.5000" /> 
<circle cx="17.8609" cy="17.6850" r="0.5000" /> 
<circle cx="16.5909" cy="17.6850" r="0.5000" /> 
<circle cx="17.8609" cy="18.9550" r="0.5000" /> 
<circle cx="16.5909" cy="18.9550" r="0.5000" /> 
<circle cx="17.8609" cy="20.2250" r="0.5000" /> 
<circle cx="16.5909" cy="20.2250" r="0.5000" /> 
<circle cx="17.8609" cy="21.4950" r="0.5000" /> 
<circle cx="16.5909" cy="21.4950" r="0.5000" /> 
<circle cx="17.8609" cy="22.7650" r="0.5000" /> 
<circle cx="16.5909" cy="22.7650" r="0.5000" /> 
<circle cx="17.8609" cy="24.0350" r="0.5000" /> 
<circle cx="16.5909" cy="24.0350" r="0.5000" /> 
<circle cx="17.8609" cy="25.3050" r="0.5000" /> 
<circle cx="16.5909" cy="25.3050" r="0.5000" /> 
<circle cx="17.8609" cy="26.5750" r="0.5000" /> 
<circle cx="16.5909" cy="26.5750" r="0.5000" /> 
<circle cx="17.8609" cy="27.8450" r="0.5000" /> 
<circle cx="16.5909" cy="27.8450" r="0.5000" /> 
<circle cx="17.8609" cy="29.1150" r="0.5000" /> 
<circle cx="16.5909" cy="29.1150" r="0.5000" /> 
<circle cx="17.8609" cy="30.3850" r="0.5000" /> 
<circle cx="16.5909" cy="30.3850" r="0.5000" /> 
<circle cx="17.8609" cy="31.6550" r="0.5000" /> 
<circle cx="16.5909" cy="31.6550" r="0.5000" /> 
<circle cx="17.8609" cy="32.9250" r="0.5000" /> 
<circle cx="16.5909" cy="32.9250" r="0.5000" /> 
<circle cx="17.8609" cy="34.1950" r="0.5000" /> 
<circle cx="16.5909" cy="34.1950" r="0.5000" /> 
<circle cx="17.8609" cy="35.4650" r="0.5000" /> 
<circle cx="16.5909" cy="35.4650" r="0.5000" /> 
<circle cx="17.8609" cy="36.7350" r="0.5000" /> 
<circle cx="16.5909" cy="36.7350" r="0.5000" /> 
<circle cx="17.8609" cy="38.0050" r="0.5000" /> 
<circle cx="16.5909" cy="38.0050" r="0.5000" /> 
<circle cx="17.8609" cy="39.2750" r="0.5000" /> 
<circle cx="16.5909" cy="39.2750" r="0.5000" /> 
<circle cx="17.8609" cy="40.5450" r="0.5000" /> 
<circle cx="16.5909" cy="40.5450" r="0.5000" /> 
<circle cx="17.8609" cy="41.8150" r="0.5000" /> 
<circle cx="16.5909" cy="41.8150" r="0.5000" /> 
<circle cx="17.8609" cy="43.0850" r="0.5000" /> 
<circle cx="16.5909" cy="43.0850" r="0.5000" /> 
<circle cx="17.8609" cy="44.3550" r="0.5000" /> 
<circle cx="16.5909" cy="44.3550" r="0.5000" /> 
<circle cx="17.8609" cy="45.6250" r="0.5000" /> 
<circle cx="16.5909" cy="45.6250" r="0.5000" /> 
<circle cx="17.8609" cy="46.8950" r="0.5000" /> 
<circle cx="16.5909" cy="46.8950" r="0.5000" /> 
<circle cx="17.8609" cy="48.1650" r="0.5000" /> 
<circle cx="16.5909" cy="48.1650" r="0.5000" /> 
<circle cx="17.8609" cy="49.4350" r="0.5000" /> 
<circle cx="16.5909" cy="49.4350" r="0.5000" /> 
</g>
<g style="fill:#FFFFFF; fill-opacity:1.0000; stroke:none;">
<circle cx="17.8609" cy="1.1750" r="0.3250" /> 
</g>
<g style="fill:#FFFFFF; fill-opacity:1.0000; stroke:none;">
<circle cx="16.5909" cy="1.1750" r="0.3250" /> 
</g>
<g style="fill:#FFFFFF; fill-opacity:1.0000; stroke:none;">
<circle cx="17.8609" cy="2.4450" r="0.3250" /> 
</g>
<g style="fill:#FFFFFF; fill-opacity:1.0000; stroke:none;">
<circle cx="16.5909" cy="2.4450" r="0.3250" /> 
</g>
<g style="fill:#FFFFFF; fill-opacity:1.0000; stroke:none;">
<circle cx="17.8609" cy="3.7150" r="0.3250" /> 
</g>
<g style="fill:#FFFFFF; fill-opacity:1.0000; stroke:none;">
<circle cx="16.5909" cy="3.7150" r="0.3250" /> 
</g>
<g style="fill:#FFFFFF; fill-opacity:1.0000; stroke:none;">
<circle cx="17.8609" cy="4.9850" r="0.3250" /> 
</g>
<g style="fill:#FFFFFF; fill-opacity:1.0000; stroke:none;">
<circle cx="16.5909" cy="4.9850" r="0.3250" /> 
</g>
<g style="fill:#FFFFFF; fill-opacity:1.0000; stroke:none;">
<circle cx="17.8609" cy="6.2550" r="0.3250" /> 
</g>
<g style="fill:#FFFFFF; fill-opacity:1.0000; stroke:none;">
<circle cx="16.5909" cy="6.2550" r="0.3250" /> 
</g>
<g style="fill:#FFFFFF; fill-opacity:1.0000; stroke:none;">
<circle cx="17.8609" cy="7.5250" r="0.3250" /> 
</g>
<g style="fill:#FFFFFF; fill-opacity:1.0000; stroke:none;">
<circle cx="16.5909" cy="7.5250" r="0.3250" /> 
</g>
<g style="fill:#FFFFFF; fill-opacity:1.0000; stroke:none;">
<circle cx="17.8609" cy="8.7950" r="0.3250" /> 
</g>
<g style="fill:#FFFFFF; fill-opacity:1.0000; stroke:none;">
<circle cx="16.5909" cy="8.7950" r="0.3250" /> 
</g>
<g style="fill:#FFFFFF; fill-opacity:1.0000; stroke:none;">
<circle cx="17.8609" cy="10.0650" r="0.3250" /> 
</g>
<g style="fill:#FFFFFF; fill-opacity:1.0000; stroke:none;">
<circle cx="16.5909" cy="10.0650" r="0.3250" /> 
</g>
<g style="fill:#FFFFFF; fill-opacity:1.0000; stroke:none;">
<circle cx="17.8609" cy="11.3350" r="0.3250" /> 
</g>
<g style="fill:#FFFFFF; fill-opacity:1.0000; stroke:none;">
<circle cx="16.5909" cy="11.3350" r="0.3250" /> 
</g>
<g style="fill:#FFFFFF; fill-opacity:1.0000; stroke:none;">
<circle cx="17.8609" cy="12.6050" r="0.3250" /> 
</g>
<g style="fill:#FFFFFF; fill-opacity:1.0000; stroke:none;">
<circle cx="16.5909" cy="12.6050" r="0.3250" /> 
</g>
<g style="fill:#FFFFFF; fill-opacity:1.0000; stroke:none;">
<circle cx="17.8609" cy="13.8750" r="0.3250" /> 
</g>
<g style="fill:#FFFFFF; fill-opacity:1.0000; stroke:none;">
<circle cx="16.5909" cy="13.8750" r="0.3250" /> 
</g>
<g style="fill:#FFFFFF; fill-opacity:1.0000; stroke:none;">
<circle cx="17.8609" cy="15.1450" r="0.3250" /> 
</g>
<g style="fill:#FFFFFF; fill-opacity:1.0000; stroke:none;">
<circle cx="16.5909" cy="15.1450" r="0.3250" /> 
</g>
<g style="fill:#FFFFFF; fill-opacity:1.0000; stroke:none;">
<circle cx="17.8609" cy="16.4150" r="0.3250" /> 
</g>
<g style="fill:#FFFFFF; fill-opacity:1.0000; stroke:none;">
<circle cx="16.5909" cy="16.4150" r="0.3250" /> 
</g>
<g style="fill:#FFFFFF; fill-opacity:1.0000; stroke:none;">
<circle cx="17.8609" cy="17.6850" r="0.3250" /> 
</g>
<g style="fill:#FFFFFF; fill-opacity:1.0000; stroke:none;">
<circle cx="16.5909" cy="17.6850" r="0.3250" /> 
</g>
<g style="fill:#FFFFFF; fill-opacity:1.0000; stroke:none;">
<circle cx="17.8609" cy="18.9550" r="0.3250" /> 
</g>
<g style="fill:#FFFFFF; fill-opacity:1.0000; stroke:none;">
<circle cx="16.5909" cy="18.9550" r="0.3250" /> 
</g>
<g style="fill:#FFFFFF; fill-opacity:1.0000; stroke:none;">
<circle cx="17.8609" cy="20.2250" r="0.3250" /> 
</g>
<g style="fill:#FFFFFF; fill-opacity:1.0000; stroke:none;">
<circle cx="16.5909" cy="20.2250" r="0.3250" /> 
</g>
<g style="fill:#FFFFFF; fill-opacity:1.0000; stroke:none;">
<circle cx="17.8609" cy="21.4950" r="0.3250" /> 
</g>
<g style="fill:#FFFFFF; fill-opacity:1.0000; stroke:none;">
<circle cx="16.5909" cy="21.4950" r="0.3250" /> 
</g>
<g style="fill:#FFFFFF; fill-opacity:1.0000; stroke:none;">
<circle cx="17.8609" cy="22.7650" r="0.3250" /> 
</g>
<g style="fill:#FFFFFF; fill-opacity:1.0000; stroke:none;">
<circle cx="16.5909" cy="22.7650" r="0.3250" /> 
</g>
<g style="fill:#FFFFFF; fill-opacity:1.0000; stroke:none;">
<circle cx="17.8609" cy="24.0350" r="0.3250" /> 
</g>
<g style="fill:#FFFFFF; fill-opacity:1.0000; stroke:none;">
<circle cx="16.5909" cy="24.0350" r="0.3250" /> 
</g>
<g style="fill:#FFFFFF; fill-opacity:1.0000; stroke:none;">
<circle cx="17.8609" cy="25.3050" r="0.3250" /> 
</g>
<g style="fill:#FFFFFF; fill-opacity:1.0000; stroke:none;">
<circle cx="16.5909" cy="25.3050" r="0.3250" /> 
</g>
<g style="fill:#FFFFFF; fill-opacity:1.0000; stroke:none;">
<circle cx="17.8609" cy="26.5750" r="0.3250" /> 
</g>
<g style="fill:#FFFFFF; fill-opacity:1.0000; stroke:none;">
<circle cx="16.5909" cy="26.5750" r="0.3250" /> 
</g>
<g style="fill:#FFFFFF; fill-opacity:1.0000; stroke:none;">
<circle cx="17.8609" cy="27.8450" r="0.3250" /> 
</g>
<g style="fill:#FFFFFF; fill-opacity:1.0000; stroke:none;">
<circle cx="16.5909" cy="27.8450" r="0.3250" /> 
</g>
<g style="fill:#FFFFFF; fill-opacity:1.0000; stroke:none;">
<circle cx="17.8609" cy="29.1150" r="0.3250" /> 
</g>
<g style="fill:#FFFFFF; fill-opacity:1.0000; stroke:none;">
<circle cx="16.5909" cy="29.1150" r="0.3250" /> 
</g>
<g style="fill:#FFFFFF; fill-opacity:1.0000; stroke:none;">
<circle cx="17.8609" cy="30.3850" r="0.3250" /> 
</g>
<g style="fill:#FFFFFF; fill-opacity:1.0000; stroke:none;">
<circle cx="16.5909" cy="30.3850" r="0.3250" /> 
</g>
<g style="fill:#FFFFFF; fill-opacity:1.0000; stroke:none;">
<circle cx="17.8609" cy="31.6550" r="0.3250" /> 
</g>
<g style="fill:#FFFFFF; fill-opacity:1.0000; stroke:none;">
<circle cx="16.5909" cy="31.6550" r="0.3250" /> 
</g>
<g style="fill:#FFFFFF; fill-opacity:1.0000; stroke:none;">
<circle cx="17.8609" cy="32.9250" r="0.3250" /> 
</g>
<g style="fill:#FFFFFF; fill-opacity:1.0000; stroke:none;">
<circle cx="16.5909" cy="32.9250" r="0.3250" /> 
</g>
<g style="fill:#FFFFFF; fill-opacity:1.0000; stroke:none;">
<circle cx="17.8609" cy="34.1950" r="0.3250" /> 
</g>
<g style="fill:#FFFFFF; fill-opacity:1.0000; stroke:none;">
<circle cx="16.5909" cy="34.1950" r="0.3250" /> 
</g>
<g style="fill:#FFFFFF; fill-opacity:1.0000; stroke:none;">
<circle cx="17.8609" cy="35.4650" r="0.3250" /> 
</g>
<g style="fill:#FFFFFF; fill-opacity:1.0000; stroke:none;">
<circle cx="16.5909" cy="35.4650" r="0.3250" /> 
</g>
<g style="fill:#FFFFFF; fill-opacity:1.0000; stroke:none;">
<circle cx="17.8609" cy="36.7350" r="0.3250" /> 
</g>
<g style="fill:#FFFFFF; fill-opacity:1.0000; stroke:none;">
<circle cx="16.5909" cy="36.7350" r="0.3250" /> 
</g>
<g style="fill:#FFFFFF; fill-opacity:1.0000; stroke:none;">
<circle cx="17.8609" cy="38.0050" r="0.3250" /> 
</g>
<g style="fill:#FFFFFF; fill-opacity:1.0000; stroke:none;">
<circle cx="16.5909" cy="38.0050" r="0.3250" /> 
</g>
<g style="fill:#FFFFFF; fill-opacity:1.0000; stroke:none;">
<circle cx="17.8609" cy="39.2750" r="0.3250" /> 
</g>
<g style="fill:#FFFFFF; fill-opacity:1.0000; stroke:none;">
<circle cx="16.5909" cy="39.2750" r="0.3250" /> 
</g>
<g style="fill:#FFFFFF; fill-opacity:1.0000; stroke:none;">
<circle cx="17.8609" cy="40.5450" r="0.3250" /> 
</g>
<g style="fill:#FFFFFF; fill-opacity:1.0000; stroke:none;">
<circle cx="16.5909" cy="40.5450" r="0.3250" /> 
</g>
<g style="fill:#FFFFFF; fill-opacity:1.0000; stroke:none;">
<circle cx="17.8609" cy="41.8150" r="0.3250" /> 
</g>
<g style="fill:#FFFFFF; fill-opacity:1.0000; stroke:none;">
<circle cx="16.5909" cy="41.8150" r="0.3250" /> 
</g>
<g style="fill:#FFFFFF; fill-opacity:1.0000; stroke:none;">
<circle cx="17.8609" cy="43.0850" r="0.3250" /> 
</g>
<g style="fill:#FFFFFF; fill-opacity:1.0000; stroke:none;">
<circle cx="16.5909" cy="43.0850" r="0.3250" /> 
</g>
<g style="fill:#FFFFFF; fill-opacity:1.0000; stroke:none;">
<circle cx="17.8609" cy="44.3550" r="0.3250" /> 
</g>
<g style="fill:#FFFFFF; fill-opacity:1.0000; stroke:none;">
<circle cx="16.5909" cy="44.3550" r="0.3250" /> 
</g>
<g style="fill:#FFFFFF; fill-opacity:1.0000; stroke:none;">
<circle cx="17.8609" cy="45.6250" r="0.3250" /> 
</g>
<g style="fill:#FFFFFF; fill-opacity:1.0000; stroke:none;">
<circle cx="16.5909" cy="45.6250" r="0.3250" /> 
</g>
<g style="fill:#FFFFFF; fill-opacity:1.0000; stroke:none;">
<circle cx="17.8609" cy="46.8950" r="0.3250" /> 
</g>
<g style="fill:#FFFFFF; fill-opacity:1.0000; stroke:none;">
<circle cx="16.5909" cy="46.8950" r="0.3250" /> 
</g>
<g style="fill:#FFFFFF; fill-opacity:1.0000; stroke:none;">
<circle cx="17.8609" cy="48.1650" r="0.3250" /> 
</g>
<g style="fill:#FFFFFF; fill-opacity:1.0000; stroke:none;">
<circle cx="16.5909" cy="48.1650" r="0.3250" /> 
</g>
<g style="fill:#FFFFFF; fill-opacity:1.0000; stroke:none;">
<circle cx="17.8609" cy="49.4350" r="0.3250" /> 
</g>
<g style="fill:#FFFFFF; fill-opacity:1.0000; stroke:none;">
<circle cx="16.5909" cy="49.4350" r="0.3250" /> 
</g>
<g style="fill:#FFFFFF; fill-opacity:1.0000; stroke:none;">
<circle cx="17.8609" cy="1.1750" r="0.3250" /> 
</g>
<g style="fill:#FFFFFF; fill-opacity:1.0000; stroke:none;">
<circle cx="16.5909" cy="1.1750" r="0.3250" /> 
</g>
<g style="fill:#FFFFFF; fill-opacity:1.0000; stroke:none;">
<circle cx="17.8609" cy="2.4450" r="0.3250" /> 
</g>
<g style="fill:#FFFFFF; fill-opacity:1.0000; stroke:none;">
<circle cx="16.5909" cy="2.4450" r="0.3250" /> 
</g>
<g style="fill:#FFFFFF; fill-opacity:1.0000; stroke:none;">
<circle cx="17.8609" cy="3.7150" r="0.3250" /> 
</g>
<g style="fill:#FFFFFF; fill-opacity:1.0000; stroke:none;">
<circle cx="16.5909" cy="3.7150" r="0.3250" /> 
</g>
<g style="fill:#FFFFFF; fill-opacity:1.0000; stroke:none;">
<circle cx="17.8609" cy="4.9850" r="0.3250" /> 
</g>
<g style="fill:#FFFFFF; fill-opacity:1.0000; stroke:none;">
<circle cx="16.5909" cy="4.9850" r="0.3250" /> 
</g>
<g style="fill:#FFFFFF; fill-opacity:1.0000; stroke:none;">
<circle cx="17.8609" cy="6.2550" r="0.3250" /> 
</g>
<g style="fill:#FFFFFF; fill-opacity:1.0000; stroke:none;">
<circle cx="16.5909" cy="6.2550" r="0.3250" /> 
</g>
<g style="fill:#FFFFFF; fill-opacity:1.0000; stroke:none;">
<circle cx="17.8609" cy="7.5250" r="0.3250" /> 
</g>
<g style="fill:#FFFFFF; fill-opacity:1.0000; stroke:none;">
<circle cx="16.5909" cy="7.5250" r="0.3250" /> 
</g>
<g style="fill:#FFFFFF; fill-opacity:1.0000; stroke:none;">
<circle cx="17.8609" cy="8.7950" r="0.3250" /> 
</g>
<g style="fill:#FFFFFF; fill-opacity:1.0000; stroke:none;">
<circle cx="16.5909" cy="8.7950" r="0.3250" /> 
</g>
<g style="fill:#FFFFFF; fill-opacity:1.0000; stroke:none;">
<circle cx="17.8609" cy="10.0650" r="0.3250" /> 
</g>
<g style="fill:#FFFFFF; fill-opacity:1.0000; stroke:none;">
<circle cx="16.5909" cy="10.0650" r="0.3250" /> 
</g>
<g style="fill:#FFFFFF; fill-opacity:1.0000; stroke:none;">
<circle cx="17.8609" cy="11.3350" r="0.3250" /> 
</g>
<g style="fill:#FFFFFF; fill-opacity:1.0000; stroke:none;">
<circle cx="16.5909" cy="11.3350" r="0.3250" /> 
</g>
<g style="fill:#FFFFFF; fill-opacity:1.0000; stroke:none;">
<circle cx="17.8609" cy="12.6050" r="0.3250" /> 
</g>
<g style="fill:#FFFFFF; fill-opacity:1.0000; stroke:none;">
<circle cx="16.5909" cy="12.6050" r="0.3250" /> 
</g>
<g style="fill:#FFFFFF; fill-opacity:1.0000; stroke:none;">
<circle cx="17.8609" cy="13.8750" r="0.3250" /> 
</g>
<g style="fill:#FFFFFF; fill-opacity:1.0000; stroke:none;">
<circle cx="16.5909" cy="13.8750" r="0.3250" /> 
</g>
<g style="fill:#FFFFFF; fill-opacity:1.0000; stroke:none;">
<circle cx="17.8609" cy="15.1450" r="0.3250" /> 
</g>
<g style="fill:#FFFFFF; fill-opacity:1.0000; stroke:none;">
<circle cx="16.5909" cy="15.1450" r="0.3250" /> 
</g>
<g style="fill:#FFFFFF; fill-opacity:1.0000; stroke:none;">
<circle cx="17.8609" cy="16.4150" r="0.3250" /> 
</g>
<g style="fill:#FFFFFF; fill-opacity:1.0000; stroke:none;">
<circle cx="16.5909" cy="16.4150" r="0.3250" /> 
</g>
<g style="fill:#FFFFFF; fill-opacity:1.0000; stroke:none;">
<circle cx="17.8609" cy="17.6850" r="0.3250" /> 
</g>
<g style="fill:#FFFFFF; fill-opacity:1.0000; stroke:none;">
<circle cx="16.5909" cy="17.6850" r="0.3250" /> 
</g>
<g style="fill:#FFFFFF; fill-opacity:1.0000; stroke:none;">
<circle cx="17.8609" cy="18.9550" r="0.3250" /> 
</g>
<g style="fill:#FFFFFF; fill-opacity:1.0000; stroke:none;">
<circle cx="16.5909" cy="18.9550" r="0.3250" /> 
</g>
<g style="fill:#FFFFFF; fill-opacity:1.0000; stroke:none;">
<circle cx="17.8609" cy="20.2250" r="0.3250" /> 
</g>
<g style="fill:#FFFFFF; fill-opacity:1.0000; stroke:none;">
<circle cx="16.5909" cy="20.2250" r="0.3250" /> 
</g>
<g style="fill:#FFFFFF; fill-opacity:1.0000; stroke:none;">
<circle cx="17.8609" cy="21.4950" r="0.3250" /> 
</g>
<g style="fill:#FFFFFF; fill-opacity:1.0000; stroke:none;">
<circle cx="16.5909" cy="21.4950" r="0.3250" /> 
</g>
<g style="fill:#FFFFFF; fill-opacity:1.0000; stroke:none;">
<circle cx="17.8609" cy="22.7650" r="0.3250" /> 
</g>
<g style="fill:#FFFFFF; fill-opacity:1.0000; stroke:none;">
<circle cx="16.5909" cy="22.7650" r="0.3250" /> 
</g>
<g style="fill:#FFFFFF; fill-opacity:1.0000; stroke:none;">
<circle cx="17.8609" cy="24.0350" r="0.3250" /> 
</g>
<g style="fill:#FFFFFF; fill-opacity:1.0000; stroke:none;">
<circle cx="16.5909" cy="24.0350" r="0.3250" /> 
</g>
<g style="fill:#FFFFFF; fill-opacity:1.0000; stroke:none;">
<circle cx="17.8609" cy="25.3050" r="0.3250" /> 
</g>
<g style="fill:#FFFFFF; fill-opacity:1.0000; stroke:none;">
<circle cx="16.5909" cy="25.3050" r="0.3250" /> 
</g>
<g style="fill:#FFFFFF; fill-opacity:1.0000; stroke:none;">
<circle cx="17.8609" cy="26.5750" r="0.3250" /> 
</g>
<g style="fill:#FFFFFF; fill-opacity:1.0000; stroke:none;">
<circle cx="16.5909" cy="26.5750" r="0.3250" /> 
</g>
<g style="fill:#FFFFFF; fill-opacity:1.0000; stroke:none;">
<circle cx="17.8609" cy="27.8450" r="0.3250" /> 
</g>
<g style="fill:#FFFFFF; fill-opacity:1.0000; stroke:none;">
<circle cx="16.5909" cy="27.8450" r="0.3250" /> 
</g>
<g style="fill:#FFFFFF; fill-opacity:1.0000; stroke:none;">
<circle cx="17.8609" cy="29.1150" r="0.3250" /> 
</g>
<g style="fill:#FFFFFF; fill-opacity:1.0000; stroke:none;">
<circle cx="16.5909" cy="29.1150" r="0.3250" /> 
</g>
<g style="fill:#FFFFFF; fill-opacity:1.0000; stroke:none;">
<circle cx="17.8609" cy="30.3850" r="0.3250" /> 
</g>
<g style="fill:#FFFFFF; fill-opacity:1.0000; stroke:none;">
<circle cx="16.5909" cy="30.3850" r="0.3250" /> 
</g>
<g style="fill:#FFFFFF; fill-opacity:1.0000; stroke:none;">
<circle cx="17.8609" cy="31.6550" r="0.3250" /> 
</g>
<g style="fill:#FFFFFF; fill-opacity:1.0000; stroke:none;">
<circle cx="16.5909" cy="31.6550" r="0.3250" /> 
</g>
<g style="fill:#FFFFFF; fill-opacity:1.0000; stroke:none;">
<circle cx="17.8609" cy="32.9250" r="0.3250" /> 
</g>
<g style="fill:#FFFFFF; fill-opacity:1.0000; stroke:none;">
<circle cx="16.5909" cy="32.9250" r="0.3250" /> 
</g>
<g style="fill:#FFFFFF; fill-opacity:1.0000; stroke:none;">
<circle cx="17.8609" cy="34.1950" r="0.3250" /> 
</g>
<g style="fill:#FFFFFF; fill-opacity:1.0000; stroke:none;">
<circle cx="16.5909" cy="34.1950" r="0.3250" /> 
</g>
<g style="fill:#FFFFFF; fill-opacity:1.0000; stroke:none;">
<circle cx="17.8609" cy="35.4650" r="0.3250" /> 
</g>
<g style="fill:#FFFFFF; fill-opacity:1.0000; stroke:none;">
<circle cx="16.5909" cy="35.4650" r="0.3250" /> 
</g>
<g style="fill:#FFFFFF; fill-opacity:1.0000; stroke:none;">
<circle cx="17.8609" cy="36.7350" r="0.3250" /> 
</g>
<g style="fill:#FFFFFF; fill-opacity:1.0000; stroke:none;">
<circle cx="16.5909" cy="36.7350" r="0.3250" /> 
</g>
<g style="fill:#FFFFFF; fill-opacity:1.0000; stroke:none;">
<circle cx="17.8609" cy="38.0050" r="0.3250" /> 
</g>
<g style="fill:#FFFFFF; fill-opacity:1.0000; stroke:none;">
<circle cx="16.5909" cy="38.0050" r="0.3250" /> 
</g>
<g style="fill:#FFFFFF; fill-opacity:1.0000; stroke:none;">
<circle cx="17.8609" cy="39.2750" r="0.3250" /> 
</g>
<g style="fill:#FFFFFF; fill-opacity:1.0000; stroke:none;">
<circle cx="16.5909" cy="39.2750" r="0.3250" /> 
</g>
<g style="fill:#FFFFFF; fill-opacity:1.0000; stroke:none;">
<circle cx="17.8609" cy="40.5450" r="0.3250" /> 
</g>
<g style="fill:#FFFFFF; fill-opacity:1.0000; stroke:none;">
<circle cx="16.5909" cy="40.5450" r="0.3250" /> 
</g>
<g style="fill:#FFFFFF; fill-opacity:1.0000; stroke:none;">
<circle cx="17.8609" cy="41.8150" r="0.3250" /> 
</g>
<g style="fill:#FFFFFF; fill-opacity:1.0000; stroke:none;">
<circle cx="16.5909" cy="41.8150" r="0.3250" /> 
</g>
<g style="fill:#FFFFFF; fill-opacity:1.0000; stroke:none;">
<circle cx="17.8609" cy="43.0850" r="0.3250" /> 
</g>
<g style="fill:#FFFFFF; fill-opacity:1.0000; stroke:none;">
<circle cx="16.5909" cy="43.0850" r="0.3250" /> 
</g>
<g style="fill:#FFFFFF; fill-opacity:1.0000; stroke:none;">
<circle cx="17.8609" cy="44.3550" r="0.3250" /> 
</g>
<g style="fill:#FFFFFF; fill-opacity:1.0000; stroke:none;">
<circle cx="16.5909" cy="44.3550" r="0.3250" /> 
</g>
<g style="fill:#FFFFFF; fill-opacity:1.0000; stroke:none;">
<circle cx="17.8609" cy="45.6250" r="0.3250" /> 
</g>
<g style="fill:#FFFFFF; fill-opacity:1.0000; stroke:none;">
<circle cx="16.5909" cy="45.6250" r="0.3250" /> 
</g>
<g style="fill:#FFFFFF; fill-opacity:1.0000; stroke:none;">
<circle cx="17.8609" cy="46.8950" r="0.3250" /> 
</g>
<g style="fill:#FFFFFF; fill-opacity:1.0000; stroke:none;">
<circle cx="16.5909" cy="46.8950" r="0.3250" /> 
</g>
<g style="fill:#FFFFFF; fill-opacity:1.0000; stroke:none;">
<circle cx="17.8609" cy="48.1650" r="0.3250" /> 
</g>
<g style="fill:#FFFFFF; fill-opacity:1.0000; stroke:none;">
<circle cx="16.5909" cy="48.1650" r="0.3250" /> 
</g>
<g style="fill:#FFFFFF; fill-opacity:1.0000; stroke:none;">
<circle cx="17.8609" cy="49.4350" r="0.3250" /> 
</g>
<g style="fill:#FFFFFF; fill-opacity:1.0000; stroke:none;">
<circle cx="16.5909" cy="49.4350" r="0.3250" /> 
<path style="fill:#D864FF; fill-opacity:0.4000; stroke:none;fill-rule:evenodd;"
d="M 17.3609,1.6750
17.3609,0.6750
18.3609,0.6750
18.3609,1.6750
Z" /> 
</g>
<g style="fill:#D864FF; fill-opacity:0.4000; stroke:none;">
<circle cx="16.5909" cy="1.1750" r="0.5000" /> 
<circle cx="17.8609" cy="2.4450" r="0.5000" /> 
<circle cx="16.5909" cy="2.4450" r="0.5000" /> 
<circle cx="17.8609" cy="3.7150" r="0.5000" /> 
<circle cx="16.5909" cy="3.7150" r="0.5000" /> 
<circle cx="17.8609" cy="4.9850" r="0.5000" /> 
<circle cx="16.5909" cy="4.9850" r="0.5000" /> 
<circle cx="17.8609" cy="6.2550" r="0.5000" /> 
<circle cx="16.5909" cy="6.2550" r="0.5000" /> 
<circle cx="17.8609" cy="7.5250" r="0.5000" /> 
<circle cx="16.5909" cy="7.5250" r="0.5000" /> 
<circle cx="17.8609" cy="8.7950" r="0.5000" /> 
<circle cx="16.5909" cy="8.7950" r="0.5000" /> 
<circle cx="17.8609" cy="10.0650" r="0.5000" /> 
<circle cx="16.5909" cy="10.0650" r="0.5000" /> 
<circle cx="17.8609" cy="11.3350" r="0.5000" /> 
<circle cx="16.5909" cy="11.3350" r="0.5000" /> 
<circle cx="17.8609" cy="12.6050" r="0.5000" /> 
<circle cx="16.5909" cy="12.6050" r="0.5000" /> 
<circle cx="17.8609" cy="13.8750" r="0.5000" /> 
<circle cx="16.5909" cy="13.8750" r="0.5000" /> 
<circle cx="17.8609" cy="15.1450" r="0.5000" /> 
<circle cx="16.5909" cy="15.1450" r="0.5000" /> 
<circle cx="17.8609" cy="16.4150" r="0.5000" /> 
<circle cx="16.5909" cy="16.4150" r="0.5000" /> 
<circle cx="17.8609" cy="17.6850" r="0.5000" /> 
<circle cx="16.5909" cy="17.6850" r="0.5000" /> 
<circle cx="17.8609" cy="18.9550" r="0.5000" /> 
<circle cx="16.5909" cy="18.9550" r="0.5000" /> 
<circle cx="17.8609" cy="20.2250" r="0.5000" /> 
<circle cx="16.5909" cy="20.2250" r="0.5000" /> 
<circle cx="17.8609" cy="21.4950" r="0.5000" /> 
<circle cx="16.5909" cy="21.4950" r="0.5000" /> 
<circle cx="17.8609" cy="22.7650" r="0.5000" /> 
<circle cx="16.5909" cy="22.7650" r="0.5000" /> 
<circle cx="17.8609" cy="24.0350" r="0.5000" /> 
<circle cx="16.5909" cy="24.0350" r="0.5000" /> 
<circle cx="17.8609" cy="25.3050" r="0.5000" /> 
<circle cx="16.5909" cy="25.3050" r="0.5000" /> 
<circle cx="17.8609" cy="26.5750" r="0.5000" /> 
<circle cx="16.5909" cy="26.5750" r="0.5000" /> 
<circle cx="17.8609" cy="27.8450" r="0.5000" /> 
<circle cx="16.5909" cy="27.8450" r="0.5000" /> 
<circle cx="17.8609" cy="29.1150" r="0.5000" /> 
<circle cx="16.5909" cy="29.1150" r="0.5000" /> 
<circle cx="17.8609" cy="30.3850" r="0.5000" /> 
<circle cx="16.5909" cy="30.3850" r="0.5000" /> 
<circle cx="17.8609" cy="31.6550" r="0.5000" /> 
<circle cx="16.5909" cy="31.6550" r="0.5000" /> 
<circle cx="17.8609" cy="32.9250" r="0.5000" /> 
<circle cx="16.5909" cy="32.9250" r="0.5000" /> 
<circle cx="17.8609" cy="34.1950" r="0.5000" /> 
<circle cx="16.5909" cy="34.1950" r="0.5000" /> 
<circle cx="17.8609" cy="35.4650" r="0.5000" /> 
<circle cx="16.5909" cy="35.4650" r="0.5000" /> 
<circle cx="17.8609" cy="36.7350" r="0.5000" /> 
<circle cx="16.5909" cy="36.7350" r="0.5000" /> 
<circle cx="17.8609" cy="38.0050" r="0.5000" /> 
<circle cx="16.5909" cy="38.0050" r="0.5000" /> 
<circle cx="17.8609" cy="39.2750" r="0.5000" /> 
<circle cx="16.5909" cy="39.2750" r="0.5000" /> 
<circle cx="17.8609" cy="40.5450" r="0.5000" /> 
<circle cx="16.5909" cy="40.5450" r="0.5000" /> 
<circle cx="17.8609" cy="41.8150" r="0.5000" /> 
<circle cx="16.5909" cy="41.8150" r="0.5000" /> 
<circle cx="17.8609" cy="43.0850" r="0.5000" /> 
<circle cx="16.5909" cy="43.0850" r="0.5000" /> 
<circle cx="17.8609" cy="44.3550" r="0.5000" /> 
<circle cx="16.5909" cy="44.3550" r="0.5000" /> 
<circle cx="17.8609" cy="45.6250" r="0.5000" /> 
<circle cx="16.5909" cy="45.6250" r="0.5000" /> 
<circle cx="17.8609" cy="46.8950" r="0.5000" /> 
<circle cx="16.5909" cy="46.8950" r="0.5000" /> 
<circle cx="17.8609" cy="48.1650" r="0.5000" /> 
<circle cx="16.5909" cy="48.1650" r="0.5000" /> 
<circle cx="17.8609" cy="49.4350" r="0.5000" /> 
<circle cx="16.5909" cy="49.4350" r="0.5000" /> 
</g>
<g style="fill:none; 
stroke:#F2EDA1; stroke-width:0.1588; stroke-opacity:1; 
stroke-linecap:round; stroke-linejoin:round;">
<text x="17.8609" y="1.8100"
textLength="5.6651" font-size="1.6933" lengthAdjust="spacingAndGlyphs"
text-anchor="middle" opacity="0">REF**</text>
<g class="stroked-text"><desc>REF**</desc>
<path d="M16.1676 1.7543
L15.7442 1.1495
" />
<path d="M15.4418 1.7543
L15.4418 0.4843
" />
<path d="M15.4418 0.4843
L15.9256 0.4843
" />
<path d="M15.9256 0.4843
L16.0466 0.5447
" />
<path d="M16.0466 0.5447
L16.1071 0.6052
" />
<path d="M16.1071 0.6052
L16.1676 0.7262
" />
<path d="M16.1676 0.7262
L16.1676 0.9076
" />
<path d="M16.1676 0.9076
L16.1071 1.0286
" />
<path d="M16.1071 1.0286
L16.0466 1.0890
" />
<path d="M16.0466 1.0890
L15.9256 1.1495
" />
<path d="M15.9256 1.1495
L15.4418 1.1495
" />
<path d="M16.7118 1.0890
L17.1352 1.0890
" />
<path d="M17.3166 1.7543
L16.7118 1.7543
" />
<path d="M16.7118 1.7543
L16.7118 0.4843
" />
<path d="M16.7118 0.4843
L17.3166 0.4843
" />
<path d="M18.2842 1.0890
L17.8609 1.0890
" />
<path d="M17.8609 1.7543
L17.8609 0.4843
" />
<path d="M17.8609 0.4843
L18.4656 0.4843
" />
<path d="M19.1309 0.4843
L19.1309 0.7867
" />
<path d="M18.8285 0.6657
L19.1309 0.7867
" />
<path d="M19.1309 0.7867
L19.4333 0.6657
" />
<path d="M18.9495 1.0286
L19.1309 0.7867
" />
<path d="M19.1309 0.7867
L19.3123 1.0286
" />
<path d="M20.0985 0.4843
L20.0985 0.7867
" />
<path d="M19.7961 0.6657
L20.0985 0.7867
" />
<path d="M20.0985 0.7867
L20.4009 0.6657
" />
<path d="M19.9171 1.0286
L20.0985 0.7867
" />
<path d="M20.0985 0.7867
L20.2799 1.0286
" />
</g></g>
<g style="fill:none; 
stroke:#F2EDA1; stroke-width:0.1200; stroke-opacity:1; 
stroke-linecap:round; stroke-linejoin:round;">
<path d="M11.9809 0.4800
L11.9809 50.1300
" />
<path d="M11.9809 0.4800
L16.2834 0.4800
" />
<path d="M11.9809 0.6000
L16.0939 0.6000
" />
<path d="M11.9809 0.7100
L15.9897 0.7100
" />
<path d="M11.9809 0.8200
L15.9189 0.8200
" />
<path d="M11.9809 0.9300
L15.8715 0.9300
" />
<path d="M11.9809 1.0400
L15.8430 1.0400
" />
<path d="M11.9809 1.1500
L15.8313 1.1500
" />
<path d="M11.9809 1.2600
L15.8357 1.2600
" />
<path d="M11.9809 1.3700
L15.8563 1.3700
" />
<path d="M11.9809 1.4800
L15.8948 1.4800
" />
<path d="M11.9809 1.5900
L15.9542 1.5900
" />
<path d="M11.9809 1.7000
L16.0414 1.7000
" />
<path d="M11.9809 1.8100
L16.1733 1.8100
" />
<path d="M11.9809 3.0800
L16.1733 3.0800
" />
<path d="M11.9809 4.3500
L16.1733 4.3500
" />
<path d="M11.9809 5.6200
L16.1733 5.6200
" />
<path d="M11.9809 6.8900
L16.1733 6.8900
" />
<path d="M11.9809 8.1600
L16.1733 8.1600
" />
<path d="M11.9809 9.4300
L16.1733 9.4300
" />
<path d="M11.9809 10.7000
L16.1733 10.7000
" />
<path d="M11.9809 11.9700
L16.1733 11.9700
" />
<path d="M11.9809 13.2400
L16.1733 13.2400
" />
<path d="M11.9809 14.5100
L16.1733 14.5100
" />
<path d="M11.9809 15.7800
L16.1733 15.7800
" />
<path d="M11.9809 17.0500
L16.1733 17.0500
" />
<path d="M11.9809 18.3200
L16.1733 18.3200
" />
<path d="M11.9809 19.5900
L16.1733 19.5900
" />
<path d="M11.9809 20.8600
L16.1733 20.8600
" />
<path d="M11.9809 22.1300
L16.1733 22.1300
" />
<path d="M11.9809 23.4000
L16.1733 23.4000
" />
<path d="M11.9809 24.6700
L16.1733 24.6700
" />
<path d="M11.9809 25.9400
L16.1733 25.9400
" />
<path d="M11.9809 27.2100
L16.1733 27.2100
" />
<path d="M11.9809 28.4800
L16.1733 28.4800
" />
<path d="M11.9809 29.7500
L16.1733 29.7500
" />
<path d="M11.9809 31.0200
L16.1733 31.0200
" />
<path d="M11.9809 32.2900
L16.1733 32.2900
" />
<path d="M11.9809 33.5600
L16.1733 33.5600
" />
<path d="M11.9809 34.8300
L16.1733 34.8300
" />
<path d="M11.9809 36.1000
L16.1733 36.1000
" />
<path d="M11.9809 37.3700
L16.1733 37.3700
" />
<path d="M11.9809 38.6400
L16.1733 38.6400
" />
<path d="M11.9809 39.9100
L16.1733 39.9100
" />
<path d="M11.9809 41.1800
L16.1733 41.1800
" />
<path d="M11.9809 42.4500
L16.1733 42.4500
" />
<path d="M11.9809 43.7200
L16.1733 43.7200
" />
<path d="M11.9809 44.9900
L16.1733 44.9900
" />
<path d="M11.9809 46.2600
L16.1733 46.2600
" />
<path d="M11.9809 47.5300
L16.1733 47.5300
" />
<path d="M11.9809 48.8000
L16.1733 48.8000
" />
<path d="M11.9809 50.1300
L16.2834 50.1300
" />
<path d="M17.8609 0.4150
L18.6209 0.4150
" />
<path d="M18.6209 0.4150
L18.6209 1.1750
" />
</g>
<g style="fill:#FFFFFF; fill-opacity:1.0000; stroke:none;">
<circle cx="17.8609" cy="1.1750" r="0.3250" /> 
</g>
<g style="fill:#FFFFFF; fill-opacity:1.0000; stroke:none;">
<circle cx="16.5909" cy="1.1750" r="0.3250" /> 
</g>
<g style="fill:#FFFFFF; fill-opacity:1.0000; stroke:none;">
<circle cx="17.8609" cy="2.4450" r="0.3250" /> 
</g>
<g style="fill:#FFFFFF; fill-opacity:1.0000; stroke:none;">
<circle cx="16.5909" cy="2.4450" r="0.3250" /> 
</g>
<g style="fill:#FFFFFF; fill-opacity:1.0000; stroke:none;">
<circle cx="17.8609" cy="3.7150" r="0.3250" /> 
</g>
<g style="fill:#FFFFFF; fill-opacity:1.0000; stroke:none;">
<circle cx="16.5909" cy="3.7150" r="0.3250" /> 
</g>
<g style="fill:#FFFFFF; fill-opacity:1.0000; stroke:none;">
<circle cx="17.8609" cy="4.9850" r="0.3250" /> 
</g>
<g style="fill:#FFFFFF; fill-opacity:1.0000; stroke:none;">
<circle cx="16.5909" cy="4.9850" r="0.3250" /> 
</g>
<g style="fill:#FFFFFF; fill-opacity:1.0000; stroke:none;">
<circle cx="17.8609" cy="6.2550" r="0.3250" /> 
</g>
<g style="fill:#FFFFFF; fill-opacity:1.0000; stroke:none;">
<circle cx="16.5909" cy="6.2550" r="0.3250" /> 
</g>
<g style="fill:#FFFFFF; fill-opacity:1.0000; stroke:none;">
<circle cx="17.8609" cy="7.5250" r="0.3250" /> 
</g>
<g style="fill:#FFFFFF; fill-opacity:1.0000; stroke:none;">
<circle cx="16.5909" cy="7.5250" r="0.3250" /> 
</g>
<g style="fill:#FFFFFF; fill-opacity:1.0000; stroke:none;">
<circle cx="17.8609" cy="8.7950" r="0.3250" /> 
</g>
<g style="fill:#FFFFFF; fill-opacity:1.0000; stroke:none;">
<circle cx="16.5909" cy="8.7950" r="0.3250" /> 
</g>
<g style="fill:#FFFFFF; fill-opacity:1.0000; stroke:none;">
<circle cx="17.8609" cy="10.0650" r="0.3250" /> 
</g>
<g style="fill:#FFFFFF; fill-opacity:1.0000; stroke:none;">
<circle cx="16.5909" cy="10.0650" r="0.3250" /> 
</g>
<g style="fill:#FFFFFF; fill-opacity:1.0000; stroke:none;">
<circle cx="17.8609" cy="11.3350" r="0.3250" /> 
</g>
<g style="fill:#FFFFFF; fill-opacity:1.0000; stroke:none;">
<circle cx="16.5909" cy="11.3350" r="0.3250" /> 
</g>
<g style="fill:#FFFFFF; fill-opacity:1.0000; stroke:none;">
<circle cx="17.8609" cy="12.6050" r="0.3250" /> 
</g>
<g style="fill:#FFFFFF; fill-opacity:1.0000; stroke:none;">
<circle cx="16.5909" cy="12.6050" r="0.3250" /> 
</g>
<g style="fill:#FFFFFF; fill-opacity:1.0000; stroke:none;">
<circle cx="17.8609" cy="13.8750" r="0.3250" /> 
</g>
<g style="fill:#FFFFFF; fill-opacity:1.0000; stroke:none;">
<circle cx="16.5909" cy="13.8750" r="0.3250" /> 
</g>
<g style="fill:#FFFFFF; fill-opacity:1.0000; stroke:none;">
<circle cx="17.8609" cy="15.1450" r="0.3250" /> 
</g>
<g style="fill:#FFFFFF; fill-opacity:1.0000; stroke:none;">
<circle cx="16.5909" cy="15.1450" r="0.3250" /> 
</g>
<g style="fill:#FFFFFF; fill-opacity:1.0000; stroke:none;">
<circle cx="17.8609" cy="16.4150" r="0.3250" /> 
</g>
<g style="fill:#FFFFFF; fill-opacity:1.0000; stroke:none;">
<circle cx="16.5909" cy="16.4150" r="0.3250" /> 
</g>
<g style="fill:#FFFFFF; fill-opacity:1.0000; stroke:none;">
<circle cx="17.8609" cy="17.6850" r="0.3250" /> 
</g>
<g style="fill:#FFFFFF; fill-opacity:1.0000; stroke:none;">
<circle cx="16.5909" cy="17.6850" r="0.3250" /> 
</g>
<g style="fill:#FFFFFF; fill-opacity:1.0000; stroke:none;">
<circle cx="17.8609" cy="18.9550" r="0.3250" /> 
</g>
<g style="fill:#FFFFFF; fill-opacity:1.0000; stroke:none;">
<circle cx="16.5909" cy="18.9550" r="0.3250" /> 
</g>
<g style="fill:#FFFFFF; fill-opacity:1.0000; stroke:none;">
<circle cx="17.8609" cy="20.2250" r="0.3250" /> 
</g>
<g style="fill:#FFFFFF; fill-opacity:1.0000; stroke:none;">
<circle cx="16.5909" cy="20.2250" r="0.3250" /> 
</g>
<g style="fill:#FFFFFF; fill-opacity:1.0000; stroke:none;">
<circle cx="17.8609" cy="21.4950" r="0.3250" /> 
</g>
<g style="fill:#FFFFFF; fill-opacity:1.0000; stroke:none;">
<circle cx="16.5909" cy="21.4950" r="0.3250" /> 
</g>
<g style="fill:#FFFFFF; fill-opacity:1.0000; stroke:none;">
<circle cx="17.8609" cy="22.7650" r="0.3250" /> 
</g>
<g style="fill:#FFFFFF; fill-opacity:1.0000; stroke:none;">
<circle cx="16.5909" cy="22.7650" r="0.3250" /> 
</g>
<g style="fill:#FFFFFF; fill-opacity:1.0000; stroke:none;">
<circle cx="17.8609" cy="24.0350" r="0.3250" /> 
</g>
<g style="fill:#FFFFFF; fill-opacity:1.0000; stroke:none;">
<circle cx="16.5909" cy="24.0350" r="0.3250" /> 
</g>
<g style="fill:#FFFFFF; fill-opacity:1.0000; stroke:none;">
<circle cx="17.8609" cy="25.3050" r="0.3250" /> 
</g>
<g style="fill:#FFFFFF; fill-opacity:1.0000; stroke:none;">
<circle cx="16.5909" cy="25.3050" r="0.3250" /> 
</g>
<g style="fill:#FFFFFF; fill-opacity:1.0000; stroke:none;">
<circle cx="17.8609" cy="26.5750" r="0.3250" /> 
</g>
<g style="fill:#FFFFFF; fill-opacity:1.0000; stroke:none;">
<circle cx="16.5909" cy="26.5750" r="0.3250" /> 
</g>
<g style="fill:#FFFFFF; fill-opacity:1.0000; stroke:none;">
<circle cx="17.8609" cy="27.8450" r="0.3250" /> 
</g>
<g style="fill:#FFFFFF; fill-opacity:1.0000; stroke:none;">
<circle cx="16.5909" cy="27.8450" r="0.3250" /> 
</g>
<g style="fill:#FFFFFF; fill-opacity:1.0000; stroke:none;">
<circle cx="17.8609" cy="29.1150" r="0.3250" /> 
</g>
<g style="fill:#FFFFFF; fill-opacity:1.0000; stroke:none;">
<circle cx="16.5909" cy="29.1150" r="0.3250" /> 
</g>
<g style="fill:#FFFFFF; fill-opacity:1.0000; stroke:none;">
<circle cx="17.8609" cy="30.3850" r="0.3250" /> 
</g>
<g style="fill:#FFFFFF; fill-opacity:1.0000; stroke:none;">
<circle cx="16.5909" cy="30.3850" r="0.3250" /> 
</g>
<g style="fill:#FFFFFF; fill-opacity:1.0000; stroke:none;">
<circle cx="17.8609" cy="31.6550" r="0.3250" /> 
</g>
<g style="fill:#FFFFFF; fill-opacity:1.0000; stroke:none;">
<circle cx="16.5909" cy="31.6550" r="0.3250" /> 
</g>
<g style="fill:#FFFFFF; fill-opacity:1.0000; stroke:none;">
<circle cx="17.8609" cy="32.9250" r="0.3250" /> 
</g>
<g style="fill:#FFFFFF; fill-opacity:1.0000; stroke:none;">
<circle cx="16.5909" cy="32.9250" r="0.3250" /> 
</g>
<g style="fill:#FFFFFF; fill-opacity:1.0000; stroke:none;">
<circle cx="17.8609" cy="34.1950" r="0.3250" /> 
</g>
<g style="fill:#FFFFFF; fill-opacity:1.0000; stroke:none;">
<circle cx="16.5909" cy="34.1950" r="0.3250" /> 
</g>
<g style="fill:#FFFFFF; fill-opacity:1.0000; stroke:none;">
<circle cx="17.8609" cy="35.4650" r="0.3250" /> 
</g>
<g style="fill:#FFFFFF; fill-opacity:1.0000; stroke:none;">
<circle cx="16.5909" cy="35.4650" r="0.3250" /> 
</g>
<g style="fill:#FFFFFF; fill-opacity:1.0000; stroke:none;">
<circle cx="17.8609" cy="36.7350" r="0.3250" /> 
</g>
<g style="fill:#FFFFFF; fill-opacity:1.0000; stroke:none;">
<circle cx="16.5909" cy="36.7350" r="0.3250" /> 
</g>
<g style="fill:#FFFFFF; fill-opacity:1.0000; stroke:none;">
<circle cx="17.8609" cy="38.0050" r="0.3250" /> 
</g>
<g style="fill:#FFFFFF; fill-opacity:1.0000; stroke:none;">
<circle cx="16.5909" cy="38.0050" r="0.3250" /> 
</g>
<g style="fill:#FFFFFF; fill-opacity:1.0000; stroke:none;">
<circle cx="17.8609" cy="39.2750" r="0.3250" /> 
</g>
<g style="fill:#FFFFFF; fill-opacity:1.0000; stroke:none;">
<circle cx="16.5909" cy="39.2750" r="0.3250" /> 
</g>
<g style="fill:#FFFFFF; fill-opacity:1.0000; stroke:none;">
<circle cx="17.8609" cy="40.5450" r="0.3250" /> 
</g>
<g style="fill:#FFFFFF; fill-opacity:1.0000; stroke:none;">
<circle cx="16.5909" cy="40.5450" r="0.3250" /> 
</g>
<g style="fill:#FFFFFF; fill-opacity:1.0000; stroke:none;">
<circle cx="17.8609" cy="41.8150" r="0.3250" /> 
</g>
<g style="fill:#FFFFFF; fill-opacity:1.0000; stroke:none;">
<circle cx="16.5909" cy="41.8150" r="0.3250" /> 
</g>
<g style="fill:#FFFFFF; fill-opacity:1.0000; stroke:none;">
<circle cx="17.8609" cy="43.0850" r="0.3250" /> 
</g>
<g style="fill:#FFFFFF; fill-opacity:1.0000; stroke:none;">
<circle cx="16.5909" cy="43.0850" r="0.3250" /> 
</g>
<g style="fill:#FFFFFF; fill-opacity:1.0000; stroke:none;">
<circle cx="17.8609" cy="44.3550" r="0.3250" /> 
</g>
<g style="fill:#FFFFFF; fill-opacity:1.0000; stroke:none;">
<circle cx="16.5909" cy="44.3550" r="0.3250" /> 
</g>
<g style="fill:#FFFFFF; fill-opacity:1.0000; stroke:none;">
<circle cx="17.8609" cy="45.6250" r="0.3250" /> 
</g>
<g style="fill:#FFFFFF; fill-opacity:1.0000; stroke:none;">
<circle cx="16.5909" cy="45.6250" r="0.3250" /> 
</g>
<g style="fill:#FFFFFF; fill-opacity:1.0000; stroke:none;">
<circle cx="17.8609" cy="46.8950" r="0.3250" /> 
</g>
<g style="fill:#FFFFFF; fill-opacity:1.0000; stroke:none;">
<circle cx="16.5909" cy="46.8950" r="0.3250" /> 
</g>
<g style="fill:#FFFFFF; fill-opacity:1.0000; stroke:none;">
<circle cx="17.8609" cy="48.1650" r="0.3250" /> 
</g>
<g style="fill:#FFFFFF; fill-opacity:1.0000; stroke:none;">
<circle cx="16.5909" cy="48.1650" r="0.3250" /> 
</g>
<g style="fill:#FFFFFF; fill-opacity:1.0000; stroke:none;">
<circle cx="17.8609" cy="49.4350" r="0.3250" /> 
</g>
<g style="fill:#FFFFFF; fill-opacity:1.0000; stroke:none;">
<circle cx="16.5909" cy="49.4350" r="0.3250" /> 
</g>
<g style="fill:none; 
stroke:#FF26E2; stroke-width:0.0500; stroke-opacity:1; 
stroke-linecap:round; stroke-linejoin:round;">
<path d="M11.5109 0.0250
L11.5109 50.5750
" />
<path d="M11.5109 50.5750
L19.0109 50.5750
" />
<path d="M19.0109 0.0250
L11.5109 0.0250
" />
<path d="M19.0109 50.5750
L19.0109 0.0250
" />
</g>
<g style="fill:none; 
stroke:#AFAFAF; stroke-width:0.1588; stroke-opacity:1; 
stroke-linecap:round; stroke-linejoin:round;">
<text x="17.8609" y="1.8100"
textLength="35.7218" font-size="1.6933" lengthAdjust="spacingAndGlyphs"
text-anchor="middle" opacity="0">PinSocket_2x39_P1.27mm_Horizontal</text>
<g class="stroked-text"><desc>PinSocket_2x39_P1.27mm_Horizontal</desc>
<path d="M0.4135 1.7543
L0.4135 0.4843
" />
<path d="M0.4135 0.4843
L0.8973 0.4843
" />
<path d="M0.8973 0.4843
L1.0183 0.5447
" />
<path d="M1.0183 0.5447
L1.0787 0.6052
" />
<path d="M1.0787 0.6052
L1.1392 0.7262
" />
<path d="M1.1392 0.7262
L1.1392 0.9076
" />
<path d="M1.1392 0.9076
L1.0787 1.0286
" />
<path d="M1.0787 1.0286
L1.0183 1.0890
" />
<path d="M1.0183 1.0890
L0.8973 1.1495
" />
<path d="M0.8973 1.1495
L0.4135 1.1495
" />
<path d="M1.6835 1.7543
L1.6835 0.9076
" />
<path d="M1.6835 0.4843
L1.6230 0.5447
" />
<path d="M1.6230 0.5447
L1.6835 0.6052
" />
<path d="M1.6835 0.6052
L1.7440 0.5447
" />
<path d="M1.7440 0.5447
L1.6835 0.4843
" />
<path d="M1.6835 0.4843
L1.6835 0.6052
" />
<path d="M2.2883 0.9076
L2.2883 1.7543
" />
<path d="M2.2883 1.0286
L2.3487 0.9681
" />
<path d="M2.3487 0.9681
L2.4697 0.9076
" />
<path d="M2.4697 0.9076
L2.6511 0.9076
" />
<path d="M2.6511 0.9076
L2.7721 0.9681
" />
<path d="M2.7721 0.9681
L2.8326 1.0890
" />
<path d="M2.8326 1.0890
L2.8326 1.7543
" />
<path d="M3.3768 1.6938
L3.5583 1.7543
" />
<path d="M3.5583 1.7543
L3.8606 1.7543
" />
<path d="M3.8606 1.7543
L3.9816 1.6938
" />
<path d="M3.9816 1.6938
L4.0421 1.6333
" />
<path d="M4.0421 1.6333
L4.1026 1.5124
" />
<path d="M4.1026 1.5124
L4.1026 1.3914
" />
<path d="M4.1026 1.3914
L4.0421 1.2705
" />
<path d="M4.0421 1.2705
L3.9816 1.2100
" />
<path d="M3.9816 1.2100
L3.8606 1.1495
" />
<path d="M3.8606 1.1495
L3.6187 1.0890
" />
<path d="M3.6187 1.0890
L3.4978 1.0286
" />
<path d="M3.4978 1.0286
L3.4373 0.9681
" />
<path d="M3.4373 0.9681
L3.3768 0.8471
" />
<path d="M3.3768 0.8471
L3.3768 0.7262
" />
<path d="M3.3768 0.7262
L3.4373 0.6052
" />
<path d="M3.4373 0.6052
L3.4978 0.5447
" />
<path d="M3.4978 0.5447
L3.6187 0.4843
" />
<path d="M3.6187 0.4843
L3.9211 0.4843
" />
<path d="M3.9211 0.4843
L4.1026 0.5447
" />
<path d="M4.8283 1.7543
L4.7073 1.6938
" />
<path d="M4.7073 1.6938
L4.6468 1.6333
" />
<path d="M4.6468 1.6333
L4.5864 1.5124
" />
<path d="M4.5864 1.5124
L4.5864 1.1495
" />
<path d="M4.5864 1.1495
L4.6468 1.0286
" />
<path d="M4.6468 1.0286
L4.7073 0.9681
" />
<path d="M4.7073 0.9681
L4.8283 0.9076
" />
<path d="M4.8283 0.9076
L5.0097 0.9076
" />
<path d="M5.0097 0.9076
L5.1307 0.9681
" />
<path d="M5.1307 0.9681
L5.1911 1.0286
" />
<path d="M5.1911 1.0286
L5.2516 1.1495
" />
<path d="M5.2516 1.1495
L5.2516 1.5124
" />
<path d="M5.2516 1.5124
L5.1911 1.6333
" />
<path d="M5.1911 1.6333
L5.1307 1.6938
" />
<path d="M5.1307 1.6938
L5.0097 1.7543
" />
<path d="M5.0097 1.7543
L4.8283 1.7543
" />
<path d="M6.3402 1.6938
L6.2192 1.7543
" />
<path d="M6.2192 1.7543
L5.9773 1.7543
" />
<path d="M5.9773 1.7543
L5.8564 1.6938
" />
<path d="M5.8564 1.6938
L5.7959 1.6333
" />
<path d="M5.7959 1.6333
L5.7354 1.5124
" />
<path d="M5.7354 1.5124
L5.7354 1.1495
" />
<path d="M5.7354 1.1495
L5.7959 1.0286
" />
<path d="M5.7959 1.0286
L5.8564 0.9681
" />
<path d="M5.8564 0.9681
L5.9773 0.9076
" />
<path d="M5.9773 0.9076
L6.2192 0.9076
" />
<path d="M6.2192 0.9076
L6.3402 0.9681
" />
<path d="M6.8845 1.7543
L6.8845 0.4843
" />
<path d="M7.0054 1.2705
L7.3683 1.7543
" />
<path d="M7.3683 0.9076
L6.8845 1.3914
" />
<path d="M8.3964 1.6938
L8.2754 1.7543
" />
<path d="M8.2754 1.7543
L8.0335 1.7543
" />
<path d="M8.0335 1.7543
L7.9126 1.6938
" />
<path d="M7.9126 1.6938
L7.8521 1.5728
" />
<path d="M7.8521 1.5728
L7.8521 1.0890
" />
<path d="M7.8521 1.0890
L7.9126 0.9681
" />
<path d="M7.9126 0.9681
L8.0335 0.9076
" />
<path d="M8.0335 0.9076
L8.2754 0.9076
" />
<path d="M8.2754 0.9076
L8.3964 0.9681
" />
<path d="M8.3964 0.9681
L8.4568 1.0890
" />
<path d="M8.4568 1.0890
L8.4568 1.2100
" />
<path d="M8.4568 1.2100
L7.8521 1.3309
" />
<path d="M8.8197 0.9076
L9.3035 0.9076
" />
<path d="M9.0011 0.4843
L9.0011 1.5728
" />
<path d="M9.0011 1.5728
L9.0616 1.6938
" />
<path d="M9.0616 1.6938
L9.1826 1.7543
" />
<path d="M9.1826 1.7543
L9.3035 1.7543
" />
<path d="M9.4245 1.8752
L10.3921 1.8752
" />
<path d="M10.6340 0.6052
L10.6945 0.5447
" />
<path d="M10.6945 0.5447
L10.8154 0.4843
" />
<path d="M10.8154 0.4843
L11.1178 0.4843
" />
<path d="M11.1178 0.4843
L11.2387 0.5447
" />
<path d="M11.2387 0.5447
L11.2992 0.6052
" />
<path d="M11.2992 0.6052
L11.3597 0.7262
" />
<path d="M11.3597 0.7262
L11.3597 0.8471
" />
<path d="M11.3597 0.8471
L11.2992 1.0286
" />
<path d="M11.2992 1.0286
L10.5735 1.7543
" />
<path d="M10.5735 1.7543
L11.3597 1.7543
" />
<path d="M11.7830 1.7543
L12.4483 0.9076
" />
<path d="M11.7830 0.9076
L12.4483 1.7543
" />
<path d="M12.8111 0.4843
L13.5973 0.4843
" />
<path d="M13.5973 0.4843
L13.1740 0.9681
" />
<path d="M13.1740 0.9681
L13.3554 0.9681
" />
<path d="M13.3554 0.9681
L13.4764 1.0286
" />
<path d="M13.4764 1.0286
L13.5368 1.0890
" />
<path d="M13.5368 1.0890
L13.5973 1.2100
" />
<path d="M13.5973 1.2100
L13.5973 1.5124
" />
<path d="M13.5973 1.5124
L13.5368 1.6333
" />
<path d="M13.5368 1.6333
L13.4764 1.6938
" />
<path d="M13.4764 1.6938
L13.3554 1.7543
" />
<path d="M13.3554 1.7543
L12.9926 1.7543
" />
<path d="M12.9926 1.7543
L12.8716 1.6938
" />
<path d="M12.8716 1.6938
L12.8111 1.6333
" />
<path d="M14.2021 1.7543
L14.4440 1.7543
" />
<path d="M14.4440 1.7543
L14.5649 1.6938
" />
<path d="M14.5649 1.6938
L14.6254 1.6333
" />
<path d="M14.6254 1.6333
L14.7464 1.4519
" />
<path d="M14.7464 1.4519
L14.8068 1.2100
" />
<path d="M14.8068 1.2100
L14.8068 0.7262
" />
<path d="M14.8068 0.7262
L14.7464 0.6052
" />
<path d="M14.7464 0.6052
L14.6859 0.5447
" />
<path d="M14.6859 0.5447
L14.5649 0.4843
" />
<path d="M14.5649 0.4843
L14.3230 0.4843
" />
<path d="M14.3230 0.4843
L14.2021 0.5447
" />
<path d="M14.2021 0.5447
L14.1416 0.6052
" />
<path d="M14.1416 0.6052
L14.0811 0.7262
" />
<path d="M14.0811 0.7262
L14.0811 1.0286
" />
<path d="M14.0811 1.0286
L14.1416 1.1495
" />
<path d="M14.1416 1.1495
L14.2021 1.2100
" />
<path d="M14.2021 1.2100
L14.3230 1.2705
" />
<path d="M14.3230 1.2705
L14.5649 1.2705
" />
<path d="M14.5649 1.2705
L14.6859 1.2100
" />
<path d="M14.6859 1.2100
L14.7464 1.1495
" />
<path d="M14.7464 1.1495
L14.8068 1.0286
" />
<path d="M15.0487 1.8752
L16.0164 1.8752
" />
<path d="M16.3187 1.7543
L16.3187 0.4843
" />
<path d="M16.3187 0.4843
L16.8026 0.4843
" />
<path d="M16.8026 0.4843
L16.9235 0.5447
" />
<path d="M16.9235 0.5447
L16.9840 0.6052
" />
<path d="M16.9840 0.6052
L17.0445 0.7262
" />
<path d="M17.0445 0.7262
L17.0445 0.9076
" />
<path d="M17.0445 0.9076
L16.9840 1.0286
" />
<path d="M16.9840 1.0286
L16.9235 1.0890
" />
<path d="M16.9235 1.0890
L16.8026 1.1495
" />
<path d="M16.8026 1.1495
L16.3187 1.1495
" />
<path d="M18.2540 1.7543
L17.5283 1.7543
" />
<path d="M17.8911 1.7543
L17.8911 0.4843
" />
<path d="M17.8911 0.4843
L17.7702 0.6657
" />
<path d="M17.7702 0.6657
L17.6492 0.7867
" />
<path d="M17.6492 0.7867
L17.5283 0.8471
" />
<path d="M18.7983 1.6333
L18.8587 1.6938
" />
<path d="M18.8587 1.6938
L18.7983 1.7543
" />
<path d="M18.7983 1.7543
L18.7378 1.6938
" />
<path d="M18.7378 1.6938
L18.7983 1.6333
" />
<path d="M18.7983 1.6333
L18.7983 1.7543
" />
<path d="M19.3426 0.6052
L19.4030 0.5447
" />
<path d="M19.4030 0.5447
L19.5240 0.4843
" />
<path d="M19.5240 0.4843
L19.8264 0.4843
" />
<path d="M19.8264 0.4843
L19.9473 0.5447
" />
<path d="M19.9473 0.5447
L20.0078 0.6052
" />
<path d="M20.0078 0.6052
L20.0683 0.7262
" />
<path d="M20.0683 0.7262
L20.0683 0.8471
" />
<path d="M20.0683 0.8471
L20.0078 1.0286
" />
<path d="M20.0078 1.0286
L19.2821 1.7543
" />
<path d="M19.2821 1.7543
L20.0683 1.7543
" />
<path d="M20.4916 0.4843
L21.3383 0.4843
" />
<path d="M21.3383 0.4843
L20.7940 1.7543
" />
<path d="M21.8221 1.7543
L21.8221 0.9076
" />
<path d="M21.8221 1.0286
L21.8826 0.9681
" />
<path d="M21.8826 0.9681
L22.0035 0.9076
" />
<path d="M22.0035 0.9076
L22.1849 0.9076
" />
<path d="M22.1849 0.9076
L22.3059 0.9681
" />
<path d="M22.3059 0.9681
L22.3664 1.0890
" />
<path d="M22.3664 1.0890
L22.3664 1.7543
" />
<path d="M22.3664 1.0890
L22.4268 0.9681
" />
<path d="M22.4268 0.9681
L22.5478 0.9076
" />
<path d="M22.5478 0.9076
L22.7292 0.9076
" />
<path d="M22.7292 0.9076
L22.8502 0.9681
" />
<path d="M22.8502 0.9681
L22.9106 1.0890
" />
<path d="M22.9106 1.0890
L22.9106 1.7543
" />
<path d="M23.5154 1.7543
L23.5154 0.9076
" />
<path d="M23.5154 1.0286
L23.5759 0.9681
" />
<path d="M23.5759 0.9681
L23.6968 0.9076
" />
<path d="M23.6968 0.9076
L23.8783 0.9076
" />
<path d="M23.8783 0.9076
L23.9992 0.9681
" />
<path d="M23.9992 0.9681
L24.0597 1.0890
" />
<path d="M24.0597 1.0890
L24.0597 1.7543
" />
<path d="M24.0597 1.0890
L24.1202 0.9681
" />
<path d="M24.1202 0.9681
L24.2411 0.9076
" />
<path d="M24.2411 0.9076
L24.4226 0.9076
" />
<path d="M24.4226 0.9076
L24.5435 0.9681
" />
<path d="M24.5435 0.9681
L24.6040 1.0890
" />
<path d="M24.6040 1.0890
L24.6040 1.7543
" />
<path d="M24.9064 1.8752
L25.8740 1.8752
" />
<path d="M26.1764 1.7543
L26.1764 0.4843
" />
<path d="M26.1764 1.0890
L26.9021 1.0890
" />
<path d="M26.9021 1.7543
L26.9021 0.4843
" />
<path d="M27.6883 1.7543
L27.5673 1.6938
" />
<path d="M27.5673 1.6938
L27.5068 1.6333
" />
<path d="M27.5068 1.6333
L27.4464 1.5124
" />
<path d="M27.4464 1.5124
L27.4464 1.1495
" />
<path d="M27.4464 1.1495
L27.5068 1.0286
" />
<path d="M27.5068 1.0286
L27.5673 0.9681
" />
<path d="M27.5673 0.9681
L27.6883 0.9076
" />
<path d="M27.6883 0.9076
L27.8697 0.9076
" />
<path d="M27.8697 0.9076
L27.9906 0.9681
" />
<path d="M27.9906 0.9681
L28.0511 1.0286
" />
<path d="M28.0511 1.0286
L28.1116 1.1495
" />
<path d="M28.1116 1.1495
L28.1116 1.5124
" />
<path d="M28.1116 1.5124
L28.0511 1.6333
" />
<path d="M28.0511 1.6333
L27.9906 1.6938
" />
<path d="M27.9906 1.6938
L27.8697 1.7543
" />
<path d="M27.8697 1.7543
L27.6883 1.7543
" />
<path d="M28.6559 1.7543
L28.6559 0.9076
" />
<path d="M28.6559 1.1495
L28.7164 1.0286
" />
<path d="M28.7164 1.0286
L28.7768 0.9681
" />
<path d="M28.7768 0.9681
L28.8978 0.9076
" />
<path d="M28.8978 0.9076
L29.0187 0.9076
" />
<path d="M29.4421 1.7543
L29.4421 0.9076
" />
<path d="M29.4421 0.4843
L29.3816 0.5447
" />
<path d="M29.3816 0.5447
L29.4421 0.6052
" />
<path d="M29.4421 0.6052
L29.5026 0.5447
" />
<path d="M29.5026 0.5447
L29.4421 0.4843
" />
<path d="M29.4421 0.4843
L29.4421 0.6052
" />
<path d="M29.9259 0.9076
L30.5911 0.9076
" />
<path d="M30.5911 0.9076
L29.9259 1.7543
" />
<path d="M29.9259 1.7543
L30.5911 1.7543
" />
<path d="M31.2564 1.7543
L31.1354 1.6938
" />
<path d="M31.1354 1.6938
L31.0749 1.6333
" />
<path d="M31.0749 1.6333
L31.0145 1.5124
" />
<path d="M31.0145 1.5124
L31.0145 1.1495
" />
<path d="M31.0145 1.1495
L31.0749 1.0286
" />
<path d="M31.0749 1.0286
L31.1354 0.9681
" />
<path d="M31.1354 0.9681
L31.2564 0.9076
" />
<path d="M31.2564 0.9076
L31.4378 0.9076
" />
<path d="M31.4378 0.9076
L31.5587 0.9681
" />
<path d="M31.5587 0.9681
L31.6192 1.0286
" />
<path d="M31.6192 1.0286
L31.6797 1.1495
" />
<path d="M31.6797 1.1495
L31.6797 1.5124
" />
<path d="M31.6797 1.5124
L31.6192 1.6333
" />
<path d="M31.6192 1.6333
L31.5587 1.6938
" />
<path d="M31.5587 1.6938
L31.4378 1.7543
" />
<path d="M31.4378 1.7543
L31.2564 1.7543
" />
<path d="M32.2240 0.9076
L32.2240 1.7543
" />
<path d="M32.2240 1.0286
L32.2845 0.9681
" />
<path d="M32.2845 0.9681
L32.4054 0.9076
" />
<path d="M32.4054 0.9076
L32.5868 0.9076
" />
<path d="M32.5868 0.9076
L32.7078 0.9681
" />
<path d="M32.7078 0.9681
L32.7683 1.0890
" />
<path d="M32.7683 1.0890
L32.7683 1.7543
" />
<path d="M33.1916 0.9076
L33.6754 0.9076
" />
<path d="M33.3730 0.4843
L33.3730 1.5728
" />
<path d="M33.3730 1.5728
L33.4335 1.6938
" />
<path d="M33.4335 1.6938
L33.5545 1.7543
" />
<path d="M33.5545 1.7543
L33.6754 1.7543
" />
<path d="M34.6430 1.7543
L34.6430 1.0890
" />
<path d="M34.6430 1.0890
L34.5826 0.9681
" />
<path d="M34.5826 0.9681
L34.4616 0.9076
" />
<path d="M34.4616 0.9076
L34.2197 0.9076
" />
<path d="M34.2197 0.9076
L34.0987 0.9681
" />
<path d="M34.6430 1.6938
L34.5221 1.7543
" />
<path d="M34.5221 1.7543
L34.2197 1.7543
" />
<path d="M34.2197 1.7543
L34.0987 1.6938
" />
<path d="M34.0987 1.6938
L34.0383 1.5728
" />
<path d="M34.0383 1.5728
L34.0383 1.4519
" />
<path d="M34.0383 1.4519
L34.0987 1.3309
" />
<path d="M34.0987 1.3309
L34.2197 1.2705
" />
<path d="M34.2197 1.2705
L34.5221 1.2705
" />
<path d="M34.5221 1.2705
L34.6430 1.2100
" />
<path d="M35.4292 1.7543
L35.3083 1.6938
" />
<path d="M35.3083 1.6938
L35.2478 1.5728
" />
<path d="M35.2478 1.5728
L35.2478 0.4843
" />
</g></g>
<g style="fill:none; 
stroke:#AFAFAF; stroke-width:0.1500; stroke-opacity:1; 
stroke-linecap:round; stroke-linejoin:round;">
<g transform="rotate(-90.000000 14.2409 25.3050)">
<text x="14.2409" y="25.8050"
textLength="4.5357" font-size="1.3333" lengthAdjust="spacingAndGlyphs"
text-anchor="middle" opacity="0">REF**</text>
</g>
<g class="stroked-text"><desc>REF**</desc>
<path d="M14.6957 26.6383
L14.2195 26.9717
" />
<path d="M14.6957 27.2098
L13.6957 27.2098
" />
<path d="M13.6957 27.2098
L13.6957 26.8288
" />
<path d="M13.6957 26.8288
L13.7433 26.7336
" />
<path d="M13.7433 26.7336
L13.7909 26.6860
" />
<path d="M13.7909 26.6860
L13.8862 26.6383
" />
<path d="M13.8862 26.6383
L14.0290 26.6383
" />
<path d="M14.0290 26.6383
L14.1243 26.6860
" />
<path d="M14.1243 26.6860
L14.1719 26.7336
" />
<path d="M14.1719 26.7336
L14.2195 26.8288
" />
<path d="M14.2195 26.8288
L14.2195 27.2098
" />
<path d="M14.1719 26.2098
L14.1719 25.8764
" />
<path d="M14.6957 25.7336
L14.6957 26.2098
" />
<path d="M14.6957 26.2098
L13.6957 26.2098
" />
<path d="M13.6957 26.2098
L13.6957 25.7336
" />
<path d="M14.1719 24.9717
L14.1719 25.3050
" />
<path d="M14.6957 25.3050
L13.6957 25.3050
" />
<path d="M13.6957 25.3050
L13.6957 24.8288
" />
<path d="M13.6957 24.3050
L13.9338 24.3050
" />
<path d="M13.8386 24.5431
L13.9338 24.3050
" />
<path d="M13.9338 24.3050
L13.8386 24.0669
" />
<path d="M14.1243 24.4479
L13.9338 24.3050
" />
<path d="M13.9338 24.3050
L14.1243 24.1621
" />
<path d="M13.6957 23.5431
L13.9338 23.5431
" />
<path d="M13.8386 23.7812
L13.9338 23.5431
" />
<path d="M13.9338 23.5431
L13.8386 23.3050
" />
<path d="M14.1243 23.6860
L13.9338 23.5431
" />
<path d="M13.9338 23.5431
L14.1243 23.4002
" />
</g></g>
<g style="fill:none; 
stroke:#AFAFAF; stroke-width:0.1000; stroke-opacity:1; 
stroke-linecap:round; stroke-linejoin:round;">
<path d="M12.0409 0.5400
L16.0559 0.5400
" />
<path d="M12.0409 50.0700
L12.0409 0.5400
" />
<path d="M16.0559 0.5400
L16.4409 0.9250
" />
<path d="M16.4409 0.9250
L16.4409 50.0700
" />
<path d="M16.4409 1.4250
L17.8609 1.4250
" />
<path d="M16.4409 2.6950
L17.8609 2.6950
" />
<path d="M16.4409 3.9650
L17.8609 3.9650
" />
<path d="M16.4409 5.2350
L17.8609 5.2350
" />
<path d="M16.4409 6.5050
L17.8609 6.5050
" />
<path d="M16.4409 7.7750
L17.8609 7.7750
" />
<path d="M16.4409 9.0450
L17.8609 9.0450
" />
<path d="M16.4409 10.3150
L17.8609 10.3150
" />
<path d="M16.4409 11.5850
L17.8609 11.5850
" />
<path d="M16.4409 12.8550
L17.8609 12.8550
" />
<path d="M16.4409 14.1250
L17.8609 14.1250
" />
<path d="M16.4409 15.3950
L17.8609 15.3950
" />
<path d="M16.4409 16.6650
L17.8609 16.6650
" />
<path d="M16.4409 17.9350
L17.8609 17.9350
" />
<path d="M16.4409 19.2050
L17.8609 19.2050
" />
<path d="M16.4409 20.4750
L17.8609 20.4750
" />
<path d="M16.4409 21.7450
L17.8609 21.7450
" />
<path d="M16.4409 23.0150
L17.8609 23.0150
" />
<path d="M16.4409 24.2850
L17.8609 24.2850
" />
<path d="M16.4409 25.5550
L17.8609 25.5550
" />
<path d="M16.4409 26.8250
L17.8609 26.8250
" />
<path d="M16.4409 28.0950
L17.8609 28.0950
" />
<path d="M16.4409 29.3650
L17.8609 29.3650
" />
<path d="M16.4409 30.6350
L17.8609 30.6350
" />
<path d="M16.4409 31.9050
L17.8609 31.9050
" />
<path d="M16.4409 33.1750
L17.8609 33.1750
" />
<path d="M16.4409 34.4450
L17.8609 34.4450
" />
<path d="M16.4409 35.7150
L17.8609 35.7150
" />
<path d="M16.4409 36.9850
L17.8609 36.9850
" />
<path d="M16.4409 38.2550
L17.8609 38.2550
" />
<path d="M16.4409 39.5250
L17.8609 39.5250
" />
<path d="M16.4409 40.7950
L17.8609 40.7950
" />
<path d="M16.4409 42.0650
L17.8609 42.0650
" />
<path d="M16.4409 43.3350
L17.8609 43.3350
" />
<path d="M16.4409 44.6050
L17.8609 44.6050
" />
<path d="M16.4409 45.8750
L17.8609 45.8750
" />
<path d="M16.4409 47.1450
L17.8609 47.1450
" />
<path d="M16.4409 48.4150
L17.8609 48.4150
" />
<path d="M16.4409 49.6850
L17.8609 49.6850
" />
<path d="M16.4409 50.0700
L12.0409 50.0700
" />
<path d="M17.8609 0.9250
L16.4409 0.9250
" />
<path d="M17.8609 1.4250
L17.8609 0.9250
" />
<path d="M17.8609 2.1950
L16.4409 2.1950
" />
<path d="M17.8609 2.6950
L17.8609 2.1950
" />
<path d="M17.8609 3.4650
L16.4409 3.4650
" />
<path d="M17.8609 3.9650
L17.8609 3.4650
" />
<path d="M17.8609 4.7350
L16.4409 4.7350
" />
<path d="M17.8609 5.2350
L17.8609 4.7350
" />
<path d="M17.8609 6.0050
L16.4409 6.0050
" />
<path d="M17.8609 6.5050
L17.8609 6.0050
" />
<path d="M17.8609 7.2750
L16.4409 7.2750
" />
<path d="M17.8609 7.7750
L17.8609 7.2750
" />
<path d="M17.8609 8.5450
L16.4409 8.5450
" />
<path d="M17.8609 9.0450
L17.8609 8.5450
" />
<path d="M17.8609 9.8150
L16.4409 9.8150
" />
<path d="M17.8609 10.3150
L17.8609 9.8150
" />
<path d="M17.8609 11.0850
L16.4409 11.0850
" />
<path d="M17.8609 11.5850
L17.8609 11.0850
" />
<path d="M17.8609 12.3550
L16.4409 12.3550
" />
<path d="M17.8609 12.8550
L17.8609 12.3550
" />
<path d="M17.8609 13.6250
L16.4409 13.6250
" />
<path d="M17.8609 14.1250
L17.8609 13.6250
" />
<path d="M17.8609 14.8950
L16.4409 14.8950
" />
<path d="M17.8609 15.3950
L17.8609 14.8950
" />
<path d="M17.8609 16.1650
L16.4409 16.1650
" />
<path d="M17.8609 16.6650
L17.8609 16.1650
" />
<path d="M17.8609 17.4350
L16.4409 17.4350
" />
<path d="M17.8609 17.9350
L17.8609 17.4350
" />
<path d="M17.8609 18.7050
L16.4409 18.7050
" />
<path d="M17.8609 19.2050
L17.8609 18.7050
" />
<path d="M17.8609 19.9750
L16.4409 19.9750
" />
<path d="M17.8609 20.4750
L17.8609 19.9750
" />
<path d="M17.8609 21.2450
L16.4409 21.2450
" />
<path d="M17.8609 21.7450
L17.8609 21.2450
" />
<path d="M17.8609 22.5150
L16.4409 22.5150
" />
<path d="M17.8609 23.0150
L17.8609 22.5150
" />
<path d="M17.8609 23.7850
L16.4409 23.7850
" />
<path d="M17.8609 24.2850
L17.8609 23.7850
" />
<path d="M17.8609 25.0550
L16.4409 25.0550
" />
<path d="M17.8609 25.5550
L17.8609 25.0550
" />
<path d="M17.8609 26.3250
L16.4409 26.3250
" />
<path d="M17.8609 26.8250
L17.8609 26.3250
" />
<path d="M17.8609 27.5950
L16.4409 27.5950
" />
<path d="M17.8609 28.0950
L17.8609 27.5950
" />
<path d="M17.8609 28.8650
L16.4409 28.8650
" />
<path d="M17.8609 29.3650
L17.8609 28.8650
" />
<path d="M17.8609 30.1350
L16.4409 30.1350
" />
<path d="M17.8609 30.6350
L17.8609 30.1350
" />
<path d="M17.8609 31.4050
L16.4409 31.4050
" />
<path d="M17.8609 31.9050
L17.8609 31.4050
" />
<path d="M17.8609 32.6750
L16.4409 32.6750
" />
<path d="M17.8609 33.1750
L17.8609 32.6750
" />
<path d="M17.8609 33.9450
L16.4409 33.9450
" />
<path d="M17.8609 34.4450
L17.8609 33.9450
" />
<path d="M17.8609 35.2150
L16.4409 35.2150
" />
<path d="M17.8609 35.7150
L17.8609 35.2150
" />
<path d="M17.8609 36.4850
L16.4409 36.4850
" />
<path d="M17.8609 36.9850
L17.8609 36.4850
" />
<path d="M17.8609 37.7550
L16.4409 37.7550
" />
<path d="M17.8609 38.2550
L17.8609 37.7550
" />
<path d="M17.8609 39.0250
L16.4409 39.0250
" />
<path d="M17.8609 39.5250
L17.8609 39.0250
" />
<path d="M17.8609 40.2950
L16.4409 40.2950
" />
<path d="M17.8609 40.7950
L17.8609 40.2950
" />
<path d="M17.8609 41.5650
L16.4409 41.5650
" />
<path d="M17.8609 42.0650
L17.8609 41.5650
" />
<path d="M17.8609 42.8350
L16.4409 42.8350
" />
<path d="M17.8609 43.3350
L17.8609 42.8350
" />
<path d="M17.8609 44.1050
L16.4409 44.1050
" />
<path d="M17.8609 44.6050
L17.8609 44.1050
" />
<path d="M17.8609 45.3750
L16.4409 45.3750
" />
<path d="M17.8609 45.8750
L17.8609 45.3750
" />
<path d="M17.8609 46.6450
L16.4409 46.6450
" />
<path d="M17.8609 47.1450
L17.8609 46.6450
" />
<path d="M17.8609 47.9150
L16.4409 47.9150
" />
<path d="M17.8609 48.4150
L17.8609 47.9150
" />
<path d="M17.8609 49.1850
L16.4409 49.1850
" />
<path d="M17.8609 49.6850
L17.8609 49.1850
" />
</g> 
</svg>
