<?xml version="1.0" standalone="no"?>
 <!DOCTYPE svg PUBLIC "-//W3C//DTD SVG 1.1//EN" 
 "http://www.w3.org/Graphics/SVG/1.1/DTD/svg11.dtd"> 
<svg
  xmlns:svg="http://www.w3.org/2000/svg"
  xmlns="http://www.w3.org/2000/svg"
  xmlns:xlink="http://www.w3.org/1999/xlink"
  version="1.1"
  width="38.1762mm" height="2.1844mm" viewBox="0.0000 0.0000 38.1762 2.1844">
<title>SVG Image created as working-brd.svg date 2024/04/07 01:08:23 </title>
  <desc>Image generated by PCBNEW </desc>
<g style="fill:#000000; fill-opacity:1.0000;stroke:#000000; stroke-opacity:1.0000;
stroke-linecap:round; stroke-linejoin:round;"
 transform="translate(0 0) scale(1 1)">
<path style="fill:#C83434; fill-opacity:1.0000; stroke:none;fill-rule:evenodd;"
d="M 17.2006,0.4200
17.2098,0.3741
17.2358,0.3351
17.2747,0.3091
17.3207,0.3000
18.1806,0.3000
18.2266,0.3091
18.2655,0.3351
18.2915,0.3741
18.3006,0.4200
18.3006,0.7800
18.2915,0.8259
18.2655,0.8649
18.2266,0.8909
18.1806,0.9000
17.3207,0.9000
17.2747,0.8909
17.2358,0.8649
17.2098,0.8259
17.2006,0.7800
Z" /> 
<path style="fill:#C83434; fill-opacity:1.0000; stroke:none;fill-rule:evenodd;"
d="M 19.9006,0.4200
19.9098,0.3741
19.9358,0.3351
19.9747,0.3091
20.0206,0.3000
20.8806,0.3000
20.9266,0.3091
20.9655,0.3351
20.9915,0.3741
21.0007,0.4200
21.0007,0.7800
20.9915,0.8259
20.9655,0.8649
20.9266,0.8909
20.8806,0.9000
20.0206,0.9000
19.9747,0.8909
19.9358,0.8649
19.9098,0.8259
19.9006,0.7800
Z" /> 
<path style="fill:#C83434; fill-opacity:1.0000; stroke:none;fill-rule:evenodd;"
d="M 19.9006,1.4200
19.9098,1.3741
19.9358,1.3351
19.9747,1.3091
20.0206,1.3000
20.8806,1.3000
20.9266,1.3091
20.9655,1.3351
20.9915,1.3741
21.0007,1.4200
21.0007,1.7800
20.9915,1.8259
20.9655,1.8649
20.9266,1.8909
20.8806,1.9000
20.0206,1.9000
19.9747,1.8909
19.9358,1.8649
19.9098,1.8259
19.9006,1.7800
Z" /> 
<path style="fill:#C83434; fill-opacity:1.0000; stroke:none;fill-rule:evenodd;"
d="M 17.2006,1.4200
17.2098,1.3741
17.2358,1.3351
17.2747,1.3091
17.3207,1.3000
18.1806,1.3000
18.2266,1.3091
18.2655,1.3351
18.2915,1.3741
18.3006,1.4200
18.3006,1.7800
18.2915,1.8259
18.2655,1.8649
18.2266,1.8909
18.1806,1.9000
17.3207,1.9000
17.2747,1.8909
17.2358,1.8649
17.2098,1.8259
17.2006,1.7800
Z" /> 
<path style="fill:#D864FF; fill-opacity:0.4000; stroke:none;fill-rule:evenodd;"
d="M 17.2006,0.4200
17.2098,0.3741
17.2358,0.3351
17.2747,0.3091
17.3207,0.3000
18.1806,0.3000
18.2266,0.3091
18.2655,0.3351
18.2915,0.3741
18.3006,0.4200
18.3006,0.7800
18.2915,0.8259
18.2655,0.8649
18.2266,0.8909
18.1806,0.9000
17.3207,0.9000
17.2747,0.8909
17.2358,0.8649
17.2098,0.8259
17.2006,0.7800
Z" /> 
<path style="fill:#D864FF; fill-opacity:0.4000; stroke:none;fill-rule:evenodd;"
d="M 19.9006,0.4200
19.9098,0.3741
19.9358,0.3351
19.9747,0.3091
20.0206,0.3000
20.8806,0.3000
20.9266,0.3091
20.9655,0.3351
20.9915,0.3741
21.0007,0.4200
21.0007,0.7800
20.9915,0.8259
20.9655,0.8649
20.9266,0.8909
20.8806,0.9000
20.0206,0.9000
19.9747,0.8909
19.9358,0.8649
19.9098,0.8259
19.9006,0.7800
Z" /> 
<path style="fill:#D864FF; fill-opacity:0.4000; stroke:none;fill-rule:evenodd;"
d="M 19.9006,1.4200
19.9098,1.3741
19.9358,1.3351
19.9747,1.3091
20.0206,1.3000
20.8806,1.3000
20.9266,1.3091
20.9655,1.3351
20.9915,1.3741
21.0007,1.4200
21.0007,1.7800
20.9915,1.8259
20.9655,1.8649
20.9266,1.8909
20.8806,1.9000
20.0206,1.9000
19.9747,1.8909
19.9358,1.8649
19.9098,1.8259
19.9006,1.7800
Z" /> 
<path style="fill:#D864FF; fill-opacity:0.4000; stroke:none;fill-rule:evenodd;"
d="M 17.2006,1.4200
17.2098,1.3741
17.2358,1.3351
17.2747,1.3091
17.3207,1.3000
18.1806,1.3000
18.2266,1.3091
18.2655,1.3351
18.2915,1.3741
18.3006,1.4200
18.3006,1.7800
18.2915,1.8259
18.2655,1.8649
18.2266,1.8909
18.1806,1.9000
17.3207,1.9000
17.2747,1.8909
17.2358,1.8649
17.2098,1.8259
17.2006,1.7800
Z" /> 
<path style="fill:#B4A09A; fill-opacity:0.9000; stroke:none;fill-rule:evenodd;"
d="M 17.2006,0.4200
17.2098,0.3741
17.2358,0.3351
17.2747,0.3091
17.3207,0.3000
18.1806,0.3000
18.2266,0.3091
18.2655,0.3351
18.2915,0.3741
18.3006,0.4200
18.3006,0.7800
18.2915,0.8259
18.2655,0.8649
18.2266,0.8909
18.1806,0.9000
17.3207,0.9000
17.2747,0.8909
17.2358,0.8649
17.2098,0.8259
17.2006,0.7800
Z" /> 
<path style="fill:#B4A09A; fill-opacity:0.9000; stroke:none;fill-rule:evenodd;"
d="M 19.9006,0.4200
19.9098,0.3741
19.9358,0.3351
19.9747,0.3091
20.0206,0.3000
20.8806,0.3000
20.9266,0.3091
20.9655,0.3351
20.9915,0.3741
21.0007,0.4200
21.0007,0.7800
20.9915,0.8259
20.9655,0.8649
20.9266,0.8909
20.8806,0.9000
20.0206,0.9000
19.9747,0.8909
19.9358,0.8649
19.9098,0.8259
19.9006,0.7800
Z" /> 
<path style="fill:#B4A09A; fill-opacity:0.9000; stroke:none;fill-rule:evenodd;"
d="M 19.9006,1.4200
19.9098,1.3741
19.9358,1.3351
19.9747,1.3091
20.0206,1.3000
20.8806,1.3000
20.9266,1.3091
20.9655,1.3351
20.9915,1.3741
21.0007,1.4200
21.0007,1.7800
20.9915,1.8259
20.9655,1.8649
20.9266,1.8909
20.8806,1.9000
20.0206,1.9000
19.9747,1.8909
19.9358,1.8649
19.9098,1.8259
19.9006,1.7800
Z" /> 
<path style="fill:#B4A09A; fill-opacity:0.9000; stroke:none;fill-rule:evenodd;"
d="M 17.2006,1.4200
17.2098,1.3741
17.2358,1.3351
17.2747,1.3091
17.3207,1.3000
18.1806,1.3000
18.2266,1.3091
18.2655,1.3351
18.2915,1.3741
18.3006,1.4200
18.3006,1.7800
18.2915,1.8259
18.2655,1.8649
18.2266,1.8909
18.1806,1.9000
17.3207,1.9000
17.2747,1.8909
17.2358,1.8649
17.2098,1.8259
17.2006,1.7800
Z" /> 
</g>
<g style="fill:none; 
stroke:#F2EDA1; stroke-width:0.1588; stroke-opacity:1; 
stroke-linecap:round; stroke-linejoin:round;">
<text x="19.1006" y="1.7350"
textLength="5.6651" font-size="1.6933" lengthAdjust="spacingAndGlyphs"
text-anchor="middle" opacity="0">REF**</text>
<g class="stroked-text"><desc>REF**</desc>
<path d="M17.4073 1.6793
L16.9840 1.0745
" />
<path d="M16.6816 1.6793
L16.6816 0.4093
" />
<path d="M16.6816 0.4093
L17.1654 0.4093
" />
<path d="M17.1654 0.4093
L17.2864 0.4697
" />
<path d="M17.2864 0.4697
L17.3468 0.5302
" />
<path d="M17.3468 0.5302
L17.4073 0.6512
" />
<path d="M17.4073 0.6512
L17.4073 0.8326
" />
<path d="M17.4073 0.8326
L17.3468 0.9536
" />
<path d="M17.3468 0.9536
L17.2864 1.0140
" />
<path d="M17.2864 1.0140
L17.1654 1.0745
" />
<path d="M17.1654 1.0745
L16.6816 1.0745
" />
<path d="M17.9516 1.0140
L18.3749 1.0140
" />
<path d="M18.5564 1.6793
L17.9516 1.6793
" />
<path d="M17.9516 1.6793
L17.9516 0.4093
" />
<path d="M17.9516 0.4093
L18.5564 0.4093
" />
<path d="M19.5240 1.0140
L19.1006 1.0140
" />
<path d="M19.1006 1.6793
L19.1006 0.4093
" />
<path d="M19.1006 0.4093
L19.7054 0.4093
" />
<path d="M20.3706 0.4093
L20.3706 0.7117
" />
<path d="M20.0683 0.5907
L20.3706 0.7117
" />
<path d="M20.3706 0.7117
L20.6730 0.5907
" />
<path d="M20.1892 0.9536
L20.3706 0.7117
" />
<path d="M20.3706 0.7117
L20.5521 0.9536
" />
<path d="M21.3383 0.4093
L21.3383 0.7117
" />
<path d="M21.0359 0.5907
L21.3383 0.7117
" />
<path d="M21.3383 0.7117
L21.6406 0.5907
" />
<path d="M21.1568 0.9536
L21.3383 0.7117
" />
<path d="M21.3383 0.7117
L21.5197 0.9536
" />
</g></g>
<g style="fill:none; 
stroke:#F2EDA1; stroke-width:0.1000; stroke-opacity:1; 
stroke-linecap:round; stroke-linejoin:round;">
<path d="M17.0507 0.0500
L20.4506 0.0500
" />
<path d="M17.7507 2.1500
L20.4506 2.1500
" />
<path style="fill:none; 
stroke:#FF26E2; stroke-width:0.0500; stroke-opacity:1; 
stroke-linecap:round; stroke-linejoin:round;fill:none"
d="M 16.9506,0.0500
21.2507,0.0500
21.2507,2.1500
16.9506,2.1500
Z" /> 
</g>
<g style="fill:none; 
stroke:#AFAFAF; stroke-width:0.1588; stroke-opacity:1; 
stroke-linecap:round; stroke-linejoin:round;">
<text x="19.1006" y="1.7350"
textLength="38.2013" font-size="1.6933" lengthAdjust="spacingAndGlyphs"
text-anchor="middle" opacity="0">L_CommonMode_Wurth_WE-CNSW-1206</text>
<g class="stroked-text"><desc>L_CommonMode_Wurth_WE-CNSW-1206</desc>
<path d="M1.0183 1.6793
L0.4135 1.6793
" />
<path d="M0.4135 1.6793
L0.4135 0.4093
" />
<path d="M1.1392 1.8002
L2.1068 1.8002
" />
<path d="M3.1349 1.5583
L3.0745 1.6188
" />
<path d="M3.0745 1.6188
L2.8930 1.6793
" />
<path d="M2.8930 1.6793
L2.7721 1.6793
" />
<path d="M2.7721 1.6793
L2.5906 1.6188
" />
<path d="M2.5906 1.6188
L2.4697 1.4978
" />
<path d="M2.4697 1.4978
L2.4092 1.3769
" />
<path d="M2.4092 1.3769
L2.3487 1.1350
" />
<path d="M2.3487 1.1350
L2.3487 0.9536
" />
<path d="M2.3487 0.9536
L2.4092 0.7117
" />
<path d="M2.4092 0.7117
L2.4697 0.5907
" />
<path d="M2.4697 0.5907
L2.5906 0.4697
" />
<path d="M2.5906 0.4697
L2.7721 0.4093
" />
<path d="M2.7721 0.4093
L2.8930 0.4093
" />
<path d="M2.8930 0.4093
L3.0745 0.4697
" />
<path d="M3.0745 0.4697
L3.1349 0.5302
" />
<path d="M3.8606 1.6793
L3.7397 1.6188
" />
<path d="M3.7397 1.6188
L3.6792 1.5583
" />
<path d="M3.6792 1.5583
L3.6187 1.4374
" />
<path d="M3.6187 1.4374
L3.6187 1.0745
" />
<path d="M3.6187 1.0745
L3.6792 0.9536
" />
<path d="M3.6792 0.9536
L3.7397 0.8931
" />
<path d="M3.7397 0.8931
L3.8606 0.8326
" />
<path d="M3.8606 0.8326
L4.0421 0.8326
" />
<path d="M4.0421 0.8326
L4.1630 0.8931
" />
<path d="M4.1630 0.8931
L4.2235 0.9536
" />
<path d="M4.2235 0.9536
L4.2840 1.0745
" />
<path d="M4.2840 1.0745
L4.2840 1.4374
" />
<path d="M4.2840 1.4374
L4.2235 1.5583
" />
<path d="M4.2235 1.5583
L4.1630 1.6188
" />
<path d="M4.1630 1.6188
L4.0421 1.6793
" />
<path d="M4.0421 1.6793
L3.8606 1.6793
" />
<path d="M4.8283 1.6793
L4.8283 0.8326
" />
<path d="M4.8283 0.9536
L4.8887 0.8931
" />
<path d="M4.8887 0.8931
L5.0097 0.8326
" />
<path d="M5.0097 0.8326
L5.1911 0.8326
" />
<path d="M5.1911 0.8326
L5.3121 0.8931
" />
<path d="M5.3121 0.8931
L5.3726 1.0140
" />
<path d="M5.3726 1.0140
L5.3726 1.6793
" />
<path d="M5.3726 1.0140
L5.4330 0.8931
" />
<path d="M5.4330 0.8931
L5.5540 0.8326
" />
<path d="M5.5540 0.8326
L5.7354 0.8326
" />
<path d="M5.7354 0.8326
L5.8564 0.8931
" />
<path d="M5.8564 0.8931
L5.9168 1.0140
" />
<path d="M5.9168 1.0140
L5.9168 1.6793
" />
<path d="M6.5216 1.6793
L6.5216 0.8326
" />
<path d="M6.5216 0.9536
L6.5821 0.8931
" />
<path d="M6.5821 0.8931
L6.7030 0.8326
" />
<path d="M6.7030 0.8326
L6.8845 0.8326
" />
<path d="M6.8845 0.8326
L7.0054 0.8931
" />
<path d="M7.0054 0.8931
L7.0659 1.0140
" />
<path d="M7.0659 1.0140
L7.0659 1.6793
" />
<path d="M7.0659 1.0140
L7.1264 0.8931
" />
<path d="M7.1264 0.8931
L7.2473 0.8326
" />
<path d="M7.2473 0.8326
L7.4287 0.8326
" />
<path d="M7.4287 0.8326
L7.5497 0.8931
" />
<path d="M7.5497 0.8931
L7.6102 1.0140
" />
<path d="M7.6102 1.0140
L7.6102 1.6793
" />
<path d="M8.3964 1.6793
L8.2754 1.6188
" />
<path d="M8.2754 1.6188
L8.2149 1.5583
" />
<path d="M8.2149 1.5583
L8.1545 1.4374
" />
<path d="M8.1545 1.4374
L8.1545 1.0745
" />
<path d="M8.1545 1.0745
L8.2149 0.9536
" />
<path d="M8.2149 0.9536
L8.2754 0.8931
" />
<path d="M8.2754 0.8931
L8.3964 0.8326
" />
<path d="M8.3964 0.8326
L8.5778 0.8326
" />
<path d="M8.5778 0.8326
L8.6987 0.8931
" />
<path d="M8.6987 0.8931
L8.7592 0.9536
" />
<path d="M8.7592 0.9536
L8.8197 1.0745
" />
<path d="M8.8197 1.0745
L8.8197 1.4374
" />
<path d="M8.8197 1.4374
L8.7592 1.5583
" />
<path d="M8.7592 1.5583
L8.6987 1.6188
" />
<path d="M8.6987 1.6188
L8.5778 1.6793
" />
<path d="M8.5778 1.6793
L8.3964 1.6793
" />
<path d="M9.3640 0.8326
L9.3640 1.6793
" />
<path d="M9.3640 0.9536
L9.4245 0.8931
" />
<path d="M9.4245 0.8931
L9.5454 0.8326
" />
<path d="M9.5454 0.8326
L9.7268 0.8326
" />
<path d="M9.7268 0.8326
L9.8478 0.8931
" />
<path d="M9.8478 0.8931
L9.9083 1.0140
" />
<path d="M9.9083 1.0140
L9.9083 1.6793
" />
<path d="M10.5130 1.6793
L10.5130 0.4093
" />
<path d="M10.5130 0.4093
L10.9364 1.3164
" />
<path d="M10.9364 1.3164
L11.3597 0.4093
" />
<path d="M11.3597 0.4093
L11.3597 1.6793
" />
<path d="M12.1459 1.6793
L12.0249 1.6188
" />
<path d="M12.0249 1.6188
L11.9645 1.5583
" />
<path d="M11.9645 1.5583
L11.9040 1.4374
" />
<path d="M11.9040 1.4374
L11.9040 1.0745
" />
<path d="M11.9040 1.0745
L11.9645 0.9536
" />
<path d="M11.9645 0.9536
L12.0249 0.8931
" />
<path d="M12.0249 0.8931
L12.1459 0.8326
" />
<path d="M12.1459 0.8326
L12.3273 0.8326
" />
<path d="M12.3273 0.8326
L12.4483 0.8931
" />
<path d="M12.4483 0.8931
L12.5087 0.9536
" />
<path d="M12.5087 0.9536
L12.5692 1.0745
" />
<path d="M12.5692 1.0745
L12.5692 1.4374
" />
<path d="M12.5692 1.4374
L12.5087 1.5583
" />
<path d="M12.5087 1.5583
L12.4483 1.6188
" />
<path d="M12.4483 1.6188
L12.3273 1.6793
" />
<path d="M12.3273 1.6793
L12.1459 1.6793
" />
<path d="M13.6578 1.6793
L13.6578 0.4093
" />
<path d="M13.6578 1.6188
L13.5368 1.6793
" />
<path d="M13.5368 1.6793
L13.2949 1.6793
" />
<path d="M13.2949 1.6793
L13.1740 1.6188
" />
<path d="M13.1740 1.6188
L13.1135 1.5583
" />
<path d="M13.1135 1.5583
L13.0530 1.4374
" />
<path d="M13.0530 1.4374
L13.0530 1.0745
" />
<path d="M13.0530 1.0745
L13.1135 0.9536
" />
<path d="M13.1135 0.9536
L13.1740 0.8931
" />
<path d="M13.1740 0.8931
L13.2949 0.8326
" />
<path d="M13.2949 0.8326
L13.5368 0.8326
" />
<path d="M13.5368 0.8326
L13.6578 0.8931
" />
<path d="M14.7464 1.6188
L14.6254 1.6793
" />
<path d="M14.6254 1.6793
L14.3835 1.6793
" />
<path d="M14.3835 1.6793
L14.2626 1.6188
" />
<path d="M14.2626 1.6188
L14.2021 1.4978
" />
<path d="M14.2021 1.4978
L14.2021 1.0140
" />
<path d="M14.2021 1.0140
L14.2626 0.8931
" />
<path d="M14.2626 0.8931
L14.3835 0.8326
" />
<path d="M14.3835 0.8326
L14.6254 0.8326
" />
<path d="M14.6254 0.8326
L14.7464 0.8931
" />
<path d="M14.7464 0.8931
L14.8068 1.0140
" />
<path d="M14.8068 1.0140
L14.8068 1.1350
" />
<path d="M14.8068 1.1350
L14.2021 1.2559
" />
<path d="M15.0487 1.8002
L16.0164 1.8002
" />
<path d="M16.1978 0.4093
L16.5002 1.6793
" />
<path d="M16.5002 1.6793
L16.7421 0.7721
" />
<path d="M16.7421 0.7721
L16.9840 1.6793
" />
<path d="M16.9840 1.6793
L17.2864 0.4093
" />
<path d="M18.3145 0.8326
L18.3145 1.6793
" />
<path d="M17.7702 0.8326
L17.7702 1.4978
" />
<path d="M17.7702 1.4978
L17.8307 1.6188
" />
<path d="M17.8307 1.6188
L17.9516 1.6793
" />
<path d="M17.9516 1.6793
L18.1330 1.6793
" />
<path d="M18.1330 1.6793
L18.2540 1.6188
" />
<path d="M18.2540 1.6188
L18.3145 1.5583
" />
<path d="M18.9192 1.6793
L18.9192 0.8326
" />
<path d="M18.9192 1.0745
L18.9797 0.9536
" />
<path d="M18.9797 0.9536
L19.0402 0.8931
" />
<path d="M19.0402 0.8931
L19.1611 0.8326
" />
<path d="M19.1611 0.8326
L19.2821 0.8326
" />
<path d="M19.5240 0.8326
L20.0078 0.8326
" />
<path d="M19.7054 0.4093
L19.7054 1.4978
" />
<path d="M19.7054 1.4978
L19.7659 1.6188
" />
<path d="M19.7659 1.6188
L19.8868 1.6793
" />
<path d="M19.8868 1.6793
L20.0078 1.6793
" />
<path d="M20.4311 1.6793
L20.4311 0.4093
" />
<path d="M20.9754 1.6793
L20.9754 1.0140
" />
<path d="M20.9754 1.0140
L20.9149 0.8931
" />
<path d="M20.9149 0.8931
L20.7940 0.8326
" />
<path d="M20.7940 0.8326
L20.6126 0.8326
" />
<path d="M20.6126 0.8326
L20.4916 0.8931
" />
<path d="M20.4916 0.8931
L20.4311 0.9536
" />
<path d="M21.2778 1.8002
L22.2454 1.8002
" />
<path d="M22.4268 0.4093
L22.7292 1.6793
" />
<path d="M22.7292 1.6793
L22.9711 0.7721
" />
<path d="M22.9711 0.7721
L23.2130 1.6793
" />
<path d="M23.2130 1.6793
L23.5154 0.4093
" />
<path d="M23.9992 1.0140
L24.4226 1.0140
" />
<path d="M24.6040 1.6793
L23.9992 1.6793
" />
<path d="M23.9992 1.6793
L23.9992 0.4093
" />
<path d="M23.9992 0.4093
L24.6040 0.4093
" />
<path d="M25.1483 1.1955
L26.1159 1.1955
" />
<path d="M27.4464 1.5583
L27.3859 1.6188
" />
<path d="M27.3859 1.6188
L27.2045 1.6793
" />
<path d="M27.2045 1.6793
L27.0835 1.6793
" />
<path d="M27.0835 1.6793
L26.9021 1.6188
" />
<path d="M26.9021 1.6188
L26.7811 1.4978
" />
<path d="M26.7811 1.4978
L26.7206 1.3769
" />
<path d="M26.7206 1.3769
L26.6602 1.1350
" />
<path d="M26.6602 1.1350
L26.6602 0.9536
" />
<path d="M26.6602 0.9536
L26.7206 0.7117
" />
<path d="M26.7206 0.7117
L26.7811 0.5907
" />
<path d="M26.7811 0.5907
L26.9021 0.4697
" />
<path d="M26.9021 0.4697
L27.0835 0.4093
" />
<path d="M27.0835 0.4093
L27.2045 0.4093
" />
<path d="M27.2045 0.4093
L27.3859 0.4697
" />
<path d="M27.3859 0.4697
L27.4464 0.5302
" />
<path d="M27.9906 1.6793
L27.9906 0.4093
" />
<path d="M27.9906 0.4093
L28.7164 1.6793
" />
<path d="M28.7164 1.6793
L28.7164 0.4093
" />
<path d="M29.2606 1.6188
L29.4421 1.6793
" />
<path d="M29.4421 1.6793
L29.7445 1.6793
" />
<path d="M29.7445 1.6793
L29.8654 1.6188
" />
<path d="M29.8654 1.6188
L29.9259 1.5583
" />
<path d="M29.9259 1.5583
L29.9864 1.4374
" />
<path d="M29.9864 1.4374
L29.9864 1.3164
" />
<path d="M29.9864 1.3164
L29.9259 1.1955
" />
<path d="M29.9259 1.1955
L29.8654 1.1350
" />
<path d="M29.8654 1.1350
L29.7445 1.0745
" />
<path d="M29.7445 1.0745
L29.5026 1.0140
" />
<path d="M29.5026 1.0140
L29.3816 0.9536
" />
<path d="M29.3816 0.9536
L29.3211 0.8931
" />
<path d="M29.3211 0.8931
L29.2606 0.7721
" />
<path d="M29.2606 0.7721
L29.2606 0.6512
" />
<path d="M29.2606 0.6512
L29.3211 0.5302
" />
<path d="M29.3211 0.5302
L29.3816 0.4697
" />
<path d="M29.3816 0.4697
L29.5026 0.4093
" />
<path d="M29.5026 0.4093
L29.8049 0.4093
" />
<path d="M29.8049 0.4093
L29.9864 0.4697
" />
<path d="M30.4097 0.4093
L30.7121 1.6793
" />
<path d="M30.7121 1.6793
L30.9540 0.7721
" />
<path d="M30.9540 0.7721
L31.1959 1.6793
" />
<path d="M31.1959 1.6793
L31.4983 0.4093
" />
<path d="M31.9821 1.1955
L32.9497 1.1955
" />
<path d="M34.2197 1.6793
L33.4940 1.6793
" />
<path d="M33.8568 1.6793
L33.8568 0.4093
" />
<path d="M33.8568 0.4093
L33.7359 0.5907
" />
<path d="M33.7359 0.5907
L33.6149 0.7117
" />
<path d="M33.6149 0.7117
L33.4940 0.7721
" />
<path d="M34.7035 0.5302
L34.7640 0.4697
" />
<path d="M34.7640 0.4697
L34.8849 0.4093
" />
<path d="M34.8849 0.4093
L35.1873 0.4093
" />
<path d="M35.1873 0.4093
L35.3083 0.4697
" />
<path d="M35.3083 0.4697
L35.3687 0.5302
" />
<path d="M35.3687 0.5302
L35.4292 0.6512
" />
<path d="M35.4292 0.6512
L35.4292 0.7721
" />
<path d="M35.4292 0.7721
L35.3687 0.9536
" />
<path d="M35.3687 0.9536
L34.6430 1.6793
" />
<path d="M34.6430 1.6793
L35.4292 1.6793
" />
<path d="M36.2154 0.4093
L36.3364 0.4093
" />
<path d="M36.3364 0.4093
L36.4573 0.4697
" />
<path d="M36.4573 0.4697
L36.5178 0.5302
" />
<path d="M36.5178 0.5302
L36.5783 0.6512
" />
<path d="M36.5783 0.6512
L36.6387 0.8931
" />
<path d="M36.6387 0.8931
L36.6387 1.1955
" />
<path d="M36.6387 1.1955
L36.5783 1.4374
" />
<path d="M36.5783 1.4374
L36.5178 1.5583
" />
<path d="M36.5178 1.5583
L36.4573 1.6188
" />
<path d="M36.4573 1.6188
L36.3364 1.6793
" />
<path d="M36.3364 1.6793
L36.2154 1.6793
" />
<path d="M36.2154 1.6793
L36.0945 1.6188
" />
<path d="M36.0945 1.6188
L36.0340 1.5583
" />
<path d="M36.0340 1.5583
L35.9735 1.4374
" />
<path d="M35.9735 1.4374
L35.9130 1.1955
" />
<path d="M35.9130 1.1955
L35.9130 0.8931
" />
<path d="M35.9130 0.8931
L35.9735 0.6512
" />
<path d="M35.9735 0.6512
L36.0340 0.5302
" />
<path d="M36.0340 0.5302
L36.0945 0.4697
" />
<path d="M36.0945 0.4697
L36.2154 0.4093
" />
<path d="M37.7273 0.4093
L37.4854 0.4093
" />
<path d="M37.4854 0.4093
L37.3645 0.4697
" />
<path d="M37.3645 0.4697
L37.3040 0.5302
" />
<path d="M37.3040 0.5302
L37.1830 0.7117
" />
<path d="M37.1830 0.7117
L37.1226 0.9536
" />
<path d="M37.1226 0.9536
L37.1226 1.4374
" />
<path d="M37.1226 1.4374
L37.1830 1.5583
" />
<path d="M37.1830 1.5583
L37.2435 1.6188
" />
<path d="M37.2435 1.6188
L37.3645 1.6793
" />
<path d="M37.3645 1.6793
L37.6064 1.6793
" />
<path d="M37.6064 1.6793
L37.7273 1.6188
" />
<path d="M37.7273 1.6188
L37.7878 1.5583
" />
<path d="M37.7878 1.5583
L37.8483 1.4374
" />
<path d="M37.8483 1.4374
L37.8483 1.1350
" />
<path d="M37.8483 1.1350
L37.7878 1.0140
" />
<path d="M37.7878 1.0140
L37.7273 0.9536
" />
<path d="M37.7273 0.9536
L37.6064 0.8931
" />
<path d="M37.6064 0.8931
L37.3645 0.8931
" />
<path d="M37.3645 0.8931
L37.2435 0.9536
" />
<path d="M37.2435 0.9536
L37.1830 1.0140
" />
<path d="M37.1830 1.0140
L37.1226 1.1350
" />
</g></g>
<g style="fill:none; 
stroke:#AFAFAF; stroke-width:0.1050; stroke-opacity:1; 
stroke-linecap:round; stroke-linejoin:round;">
<text x="19.1006" y="1.4500"
textLength="3.1750" font-size="0.9333" lengthAdjust="spacingAndGlyphs"
text-anchor="middle" opacity="0">REF**</text>
<g class="stroked-text"><desc>REF**</desc>
<path d="M18.1673 1.4184
L17.9340 1.0850
" />
<path d="M17.7673 1.4184
L17.7673 0.7184
" />
<path d="M17.7673 0.7184
L18.0340 0.7184
" />
<path d="M18.0340 0.7184
L18.1007 0.7517
" />
<path d="M18.1007 0.7517
L18.1340 0.7850
" />
<path d="M18.1340 0.7850
L18.1673 0.8517
" />
<path d="M18.1673 0.8517
L18.1673 0.9517
" />
<path d="M18.1673 0.9517
L18.1340 1.0184
" />
<path d="M18.1340 1.0184
L18.1007 1.0517
" />
<path d="M18.1007 1.0517
L18.0340 1.0850
" />
<path d="M18.0340 1.0850
L17.7673 1.0850
" />
<path d="M18.4673 1.0517
L18.7007 1.0517
" />
<path d="M18.8007 1.4184
L18.4673 1.4184
" />
<path d="M18.4673 1.4184
L18.4673 0.7184
" />
<path d="M18.4673 0.7184
L18.8007 0.7184
" />
<path d="M19.3340 1.0517
L19.1006 1.0517
" />
<path d="M19.1006 1.4184
L19.1006 0.7184
" />
<path d="M19.1006 0.7184
L19.4340 0.7184
" />
<path d="M19.8006 0.7184
L19.8006 0.8850
" />
<path d="M19.6340 0.8184
L19.8006 0.8850
" />
<path d="M19.8006 0.8850
L19.9673 0.8184
" />
<path d="M19.7006 1.0184
L19.8006 0.8850
" />
<path d="M19.8006 0.8850
L19.9006 1.0184
" />
<path d="M20.3340 0.7184
L20.3340 0.8850
" />
<path d="M20.1673 0.8184
L20.3340 0.8850
" />
<path d="M20.3340 0.8850
L20.5007 0.8184
" />
<path d="M20.2340 1.0184
L20.3340 0.8850
" />
<path d="M20.3340 0.8850
L20.4340 1.0184
" />
</g></g>
<g style="fill:none; 
stroke:#AFAFAF; stroke-width:0.1000; stroke-opacity:1; 
stroke-linecap:round; stroke-linejoin:round;">
<path d="M17.5007 0.8000
L18.0007 0.3000
" />
<path d="M17.5007 1.9000
L17.5007 0.8000
" />
<path d="M18.0007 0.3000
L20.7006 0.3000
" />
<path d="M20.7006 0.3000
L20.7006 1.9000
" />
<path d="M20.7006 1.9000
L17.5007 1.9000
" />
</g> 
</svg>
