<?xml version="1.0" standalone="no"?>
 <!DOCTYPE svg PUBLIC "-//W3C//DTD SVG 1.1//EN" 
 "http://www.w3.org/Graphics/SVG/1.1/DTD/svg11.dtd"> 
<svg
  xmlns:svg="http://www.w3.org/2000/svg"
  xmlns="http://www.w3.org/2000/svg"
  xmlns:xlink="http://www.w3.org/1999/xlink"
  version="1.1"
  width="72.8472mm" height="4.4450mm" viewBox="0.0000 0.0000 72.8472 4.4450">
<title>SVG Image created as working-brd.svg date 2024/04/08 06:43:06 </title>
  <desc>Image generated by PCBNEW </desc>
<g style="fill:#000000; fill-opacity:1.0000;stroke:#000000; stroke-opacity:1.0000;
stroke-linecap:round; stroke-linejoin:round;"
 transform="translate(0 0) scale(1 1)">
</g>
<g style="fill:#C83434; fill-opacity:1.0000; stroke:none;">
<circle cx="35.4271" cy="1.4400" r="0.1000" /> 
</g>
<g style="fill:#C83434; fill-opacity:1.0000; stroke:none;">
<circle cx="35.8271" cy="1.4400" r="0.1000" /> 
</g>
<g style="fill:#C83434; fill-opacity:1.0000; stroke:none;">
<circle cx="36.2271" cy="1.4400" r="0.1000" /> 
</g>
<g style="fill:#C83434; fill-opacity:1.0000; stroke:none;">
<circle cx="36.6271" cy="1.4400" r="0.1000" /> 
</g>
<g style="fill:#C83434; fill-opacity:1.0000; stroke:none;">
<circle cx="37.0271" cy="1.4400" r="0.1000" /> 
</g>
<g style="fill:#C83434; fill-opacity:1.0000; stroke:none;">
<circle cx="37.4271" cy="1.4400" r="0.1000" /> 
</g>
<g style="fill:#C83434; fill-opacity:1.0000; stroke:none;">
<circle cx="35.4271" cy="1.8400" r="0.1000" /> 
</g>
<g style="fill:#C83434; fill-opacity:1.0000; stroke:none;">
<circle cx="35.8271" cy="1.8400" r="0.1000" /> 
</g>
<g style="fill:#C83434; fill-opacity:1.0000; stroke:none;">
<circle cx="36.2271" cy="1.8400" r="0.1000" /> 
</g>
<g style="fill:#C83434; fill-opacity:1.0000; stroke:none;">
<circle cx="36.6271" cy="1.8400" r="0.1000" /> 
</g>
<g style="fill:#C83434; fill-opacity:1.0000; stroke:none;">
<circle cx="37.0271" cy="1.8400" r="0.1000" /> 
</g>
<g style="fill:#C83434; fill-opacity:1.0000; stroke:none;">
<circle cx="37.4271" cy="1.8400" r="0.1000" /> 
</g>
<g style="fill:#C83434; fill-opacity:1.0000; stroke:none;">
<circle cx="35.4271" cy="2.2400" r="0.1000" /> 
</g>
<g style="fill:#C83434; fill-opacity:1.0000; stroke:none;">
<circle cx="35.8271" cy="2.2400" r="0.1000" /> 
</g>
<g style="fill:#C83434; fill-opacity:1.0000; stroke:none;">
<circle cx="36.2271" cy="2.2400" r="0.1000" /> 
</g>
<g style="fill:#C83434; fill-opacity:1.0000; stroke:none;">
<circle cx="36.6271" cy="2.2400" r="0.1000" /> 
</g>
<g style="fill:#C83434; fill-opacity:1.0000; stroke:none;">
<circle cx="37.0271" cy="2.2400" r="0.1000" /> 
</g>
<g style="fill:#C83434; fill-opacity:1.0000; stroke:none;">
<circle cx="37.4271" cy="2.2400" r="0.1000" /> 
</g>
<g style="fill:#C83434; fill-opacity:1.0000; stroke:none;">
<circle cx="35.4271" cy="2.6400" r="0.1000" /> 
</g>
<g style="fill:#C83434; fill-opacity:1.0000; stroke:none;">
<circle cx="35.8271" cy="2.6400" r="0.1000" /> 
</g>
<g style="fill:#C83434; fill-opacity:1.0000; stroke:none;">
<circle cx="36.2271" cy="2.6400" r="0.1000" /> 
</g>
<g style="fill:#C83434; fill-opacity:1.0000; stroke:none;">
<circle cx="36.6271" cy="2.6400" r="0.1000" /> 
</g>
<g style="fill:#C83434; fill-opacity:1.0000; stroke:none;">
<circle cx="37.0271" cy="2.6400" r="0.1000" /> 
</g>
<g style="fill:#C83434; fill-opacity:1.0000; stroke:none;">
<circle cx="37.4271" cy="2.6400" r="0.1000" /> 
</g>
<g style="fill:#C83434; fill-opacity:1.0000; stroke:none;">
<circle cx="35.4271" cy="3.0400" r="0.1000" /> 
</g>
<g style="fill:#C83434; fill-opacity:1.0000; stroke:none;">
<circle cx="35.8271" cy="3.0400" r="0.1000" /> 
</g>
<g style="fill:#C83434; fill-opacity:1.0000; stroke:none;">
<circle cx="36.2271" cy="3.0400" r="0.1000" /> 
</g>
<g style="fill:#C83434; fill-opacity:1.0000; stroke:none;">
<circle cx="36.6271" cy="3.0400" r="0.1000" /> 
</g>
<g style="fill:#C83434; fill-opacity:1.0000; stroke:none;">
<circle cx="37.0271" cy="3.0400" r="0.1000" /> 
</g>
<g style="fill:#C83434; fill-opacity:1.0000; stroke:none;">
<circle cx="37.4271" cy="3.0400" r="0.1000" /> 
</g>
<g style="fill:#C83434; fill-opacity:1.0000; stroke:none;">
<circle cx="35.4271" cy="3.4400" r="0.1000" /> 
</g>
<g style="fill:#C83434; fill-opacity:1.0000; stroke:none;">
<circle cx="35.8271" cy="3.4400" r="0.1000" /> 
</g>
<g style="fill:#C83434; fill-opacity:1.0000; stroke:none;">
<circle cx="36.2271" cy="3.4400" r="0.1000" /> 
</g>
<g style="fill:#C83434; fill-opacity:1.0000; stroke:none;">
<circle cx="36.6271" cy="3.4400" r="0.1000" /> 
</g>
<g style="fill:#C83434; fill-opacity:1.0000; stroke:none;">
<circle cx="37.0271" cy="3.4400" r="0.1000" /> 
</g>
<g style="fill:#C83434; fill-opacity:1.0000; stroke:none;">
<circle cx="37.4271" cy="3.4400" r="0.1000" /> 
</g>
<g style="fill:#D864FF; fill-opacity:0.4000; stroke:none;">
<circle cx="35.4271" cy="1.4400" r="0.1000" /> 
</g>
<g style="fill:#D864FF; fill-opacity:0.4000; stroke:none;">
<circle cx="35.8271" cy="1.4400" r="0.1000" /> 
</g>
<g style="fill:#D864FF; fill-opacity:0.4000; stroke:none;">
<circle cx="36.2271" cy="1.4400" r="0.1000" /> 
</g>
<g style="fill:#D864FF; fill-opacity:0.4000; stroke:none;">
<circle cx="36.6271" cy="1.4400" r="0.1000" /> 
</g>
<g style="fill:#D864FF; fill-opacity:0.4000; stroke:none;">
<circle cx="37.0271" cy="1.4400" r="0.1000" /> 
</g>
<g style="fill:#D864FF; fill-opacity:0.4000; stroke:none;">
<circle cx="37.4271" cy="1.4400" r="0.1000" /> 
</g>
<g style="fill:#D864FF; fill-opacity:0.4000; stroke:none;">
<circle cx="35.4271" cy="1.8400" r="0.1000" /> 
</g>
<g style="fill:#D864FF; fill-opacity:0.4000; stroke:none;">
<circle cx="35.8271" cy="1.8400" r="0.1000" /> 
</g>
<g style="fill:#D864FF; fill-opacity:0.4000; stroke:none;">
<circle cx="36.2271" cy="1.8400" r="0.1000" /> 
</g>
<g style="fill:#D864FF; fill-opacity:0.4000; stroke:none;">
<circle cx="36.6271" cy="1.8400" r="0.1000" /> 
</g>
<g style="fill:#D864FF; fill-opacity:0.4000; stroke:none;">
<circle cx="37.0271" cy="1.8400" r="0.1000" /> 
</g>
<g style="fill:#D864FF; fill-opacity:0.4000; stroke:none;">
<circle cx="37.4271" cy="1.8400" r="0.1000" /> 
</g>
<g style="fill:#D864FF; fill-opacity:0.4000; stroke:none;">
<circle cx="35.4271" cy="2.2400" r="0.1000" /> 
</g>
<g style="fill:#D864FF; fill-opacity:0.4000; stroke:none;">
<circle cx="35.8271" cy="2.2400" r="0.1000" /> 
</g>
<g style="fill:#D864FF; fill-opacity:0.4000; stroke:none;">
<circle cx="36.2271" cy="2.2400" r="0.1000" /> 
</g>
<g style="fill:#D864FF; fill-opacity:0.4000; stroke:none;">
<circle cx="36.6271" cy="2.2400" r="0.1000" /> 
</g>
<g style="fill:#D864FF; fill-opacity:0.4000; stroke:none;">
<circle cx="37.0271" cy="2.2400" r="0.1000" /> 
</g>
<g style="fill:#D864FF; fill-opacity:0.4000; stroke:none;">
<circle cx="37.4271" cy="2.2400" r="0.1000" /> 
</g>
<g style="fill:#D864FF; fill-opacity:0.4000; stroke:none;">
<circle cx="35.4271" cy="2.6400" r="0.1000" /> 
</g>
<g style="fill:#D864FF; fill-opacity:0.4000; stroke:none;">
<circle cx="35.8271" cy="2.6400" r="0.1000" /> 
</g>
<g style="fill:#D864FF; fill-opacity:0.4000; stroke:none;">
<circle cx="36.2271" cy="2.6400" r="0.1000" /> 
</g>
<g style="fill:#D864FF; fill-opacity:0.4000; stroke:none;">
<circle cx="36.6271" cy="2.6400" r="0.1000" /> 
</g>
<g style="fill:#D864FF; fill-opacity:0.4000; stroke:none;">
<circle cx="37.0271" cy="2.6400" r="0.1000" /> 
</g>
<g style="fill:#D864FF; fill-opacity:0.4000; stroke:none;">
<circle cx="37.4271" cy="2.6400" r="0.1000" /> 
</g>
<g style="fill:#D864FF; fill-opacity:0.4000; stroke:none;">
<circle cx="35.4271" cy="3.0400" r="0.1000" /> 
</g>
<g style="fill:#D864FF; fill-opacity:0.4000; stroke:none;">
<circle cx="35.8271" cy="3.0400" r="0.1000" /> 
</g>
<g style="fill:#D864FF; fill-opacity:0.4000; stroke:none;">
<circle cx="36.2271" cy="3.0400" r="0.1000" /> 
</g>
<g style="fill:#D864FF; fill-opacity:0.4000; stroke:none;">
<circle cx="36.6271" cy="3.0400" r="0.1000" /> 
</g>
<g style="fill:#D864FF; fill-opacity:0.4000; stroke:none;">
<circle cx="37.0271" cy="3.0400" r="0.1000" /> 
</g>
<g style="fill:#D864FF; fill-opacity:0.4000; stroke:none;">
<circle cx="37.4271" cy="3.0400" r="0.1000" /> 
</g>
<g style="fill:#D864FF; fill-opacity:0.4000; stroke:none;">
<circle cx="35.4271" cy="3.4400" r="0.1000" /> 
</g>
<g style="fill:#D864FF; fill-opacity:0.4000; stroke:none;">
<circle cx="35.8271" cy="3.4400" r="0.1000" /> 
</g>
<g style="fill:#D864FF; fill-opacity:0.4000; stroke:none;">
<circle cx="36.2271" cy="3.4400" r="0.1000" /> 
</g>
<g style="fill:#D864FF; fill-opacity:0.4000; stroke:none;">
<circle cx="36.6271" cy="3.4400" r="0.1000" /> 
</g>
<g style="fill:#D864FF; fill-opacity:0.4000; stroke:none;">
<circle cx="37.0271" cy="3.4400" r="0.1000" /> 
</g>
<g style="fill:#D864FF; fill-opacity:0.4000; stroke:none;">
<circle cx="37.4271" cy="3.4400" r="0.1000" /> 
</g>
<g style="fill:#B4A09A; fill-opacity:0.9000; stroke:none;">
<circle cx="35.4271" cy="1.4400" r="0.1000" /> 
</g>
<g style="fill:#B4A09A; fill-opacity:0.9000; stroke:none;">
<circle cx="35.8271" cy="1.4400" r="0.1000" /> 
</g>
<g style="fill:#B4A09A; fill-opacity:0.9000; stroke:none;">
<circle cx="36.2271" cy="1.4400" r="0.1000" /> 
</g>
<g style="fill:#B4A09A; fill-opacity:0.9000; stroke:none;">
<circle cx="36.6271" cy="1.4400" r="0.1000" /> 
</g>
<g style="fill:#B4A09A; fill-opacity:0.9000; stroke:none;">
<circle cx="37.0271" cy="1.4400" r="0.1000" /> 
</g>
<g style="fill:#B4A09A; fill-opacity:0.9000; stroke:none;">
<circle cx="37.4271" cy="1.4400" r="0.1000" /> 
</g>
<g style="fill:#B4A09A; fill-opacity:0.9000; stroke:none;">
<circle cx="35.4271" cy="1.8400" r="0.1000" /> 
</g>
<g style="fill:#B4A09A; fill-opacity:0.9000; stroke:none;">
<circle cx="35.8271" cy="1.8400" r="0.1000" /> 
</g>
<g style="fill:#B4A09A; fill-opacity:0.9000; stroke:none;">
<circle cx="36.2271" cy="1.8400" r="0.1000" /> 
</g>
<g style="fill:#B4A09A; fill-opacity:0.9000; stroke:none;">
<circle cx="36.6271" cy="1.8400" r="0.1000" /> 
</g>
<g style="fill:#B4A09A; fill-opacity:0.9000; stroke:none;">
<circle cx="37.0271" cy="1.8400" r="0.1000" /> 
</g>
<g style="fill:#B4A09A; fill-opacity:0.9000; stroke:none;">
<circle cx="37.4271" cy="1.8400" r="0.1000" /> 
</g>
<g style="fill:#B4A09A; fill-opacity:0.9000; stroke:none;">
<circle cx="35.4271" cy="2.2400" r="0.1000" /> 
</g>
<g style="fill:#B4A09A; fill-opacity:0.9000; stroke:none;">
<circle cx="35.8271" cy="2.2400" r="0.1000" /> 
</g>
<g style="fill:#B4A09A; fill-opacity:0.9000; stroke:none;">
<circle cx="36.2271" cy="2.2400" r="0.1000" /> 
</g>
<g style="fill:#B4A09A; fill-opacity:0.9000; stroke:none;">
<circle cx="36.6271" cy="2.2400" r="0.1000" /> 
</g>
<g style="fill:#B4A09A; fill-opacity:0.9000; stroke:none;">
<circle cx="37.0271" cy="2.2400" r="0.1000" /> 
</g>
<g style="fill:#B4A09A; fill-opacity:0.9000; stroke:none;">
<circle cx="37.4271" cy="2.2400" r="0.1000" /> 
</g>
<g style="fill:#B4A09A; fill-opacity:0.9000; stroke:none;">
<circle cx="35.4271" cy="2.6400" r="0.1000" /> 
</g>
<g style="fill:#B4A09A; fill-opacity:0.9000; stroke:none;">
<circle cx="35.8271" cy="2.6400" r="0.1000" /> 
</g>
<g style="fill:#B4A09A; fill-opacity:0.9000; stroke:none;">
<circle cx="36.2271" cy="2.6400" r="0.1000" /> 
</g>
<g style="fill:#B4A09A; fill-opacity:0.9000; stroke:none;">
<circle cx="36.6271" cy="2.6400" r="0.1000" /> 
</g>
<g style="fill:#B4A09A; fill-opacity:0.9000; stroke:none;">
<circle cx="37.0271" cy="2.6400" r="0.1000" /> 
</g>
<g style="fill:#B4A09A; fill-opacity:0.9000; stroke:none;">
<circle cx="37.4271" cy="2.6400" r="0.1000" /> 
</g>
<g style="fill:#B4A09A; fill-opacity:0.9000; stroke:none;">
<circle cx="35.4271" cy="3.0400" r="0.1000" /> 
</g>
<g style="fill:#B4A09A; fill-opacity:0.9000; stroke:none;">
<circle cx="35.8271" cy="3.0400" r="0.1000" /> 
</g>
<g style="fill:#B4A09A; fill-opacity:0.9000; stroke:none;">
<circle cx="36.2271" cy="3.0400" r="0.1000" /> 
</g>
<g style="fill:#B4A09A; fill-opacity:0.9000; stroke:none;">
<circle cx="36.6271" cy="3.0400" r="0.1000" /> 
</g>
<g style="fill:#B4A09A; fill-opacity:0.9000; stroke:none;">
<circle cx="37.0271" cy="3.0400" r="0.1000" /> 
</g>
<g style="fill:#B4A09A; fill-opacity:0.9000; stroke:none;">
<circle cx="37.4271" cy="3.0400" r="0.1000" /> 
</g>
<g style="fill:#B4A09A; fill-opacity:0.9000; stroke:none;">
<circle cx="35.4271" cy="3.4400" r="0.1000" /> 
</g>
<g style="fill:#B4A09A; fill-opacity:0.9000; stroke:none;">
<circle cx="35.8271" cy="3.4400" r="0.1000" /> 
</g>
<g style="fill:#B4A09A; fill-opacity:0.9000; stroke:none;">
<circle cx="36.2271" cy="3.4400" r="0.1000" /> 
</g>
<g style="fill:#B4A09A; fill-opacity:0.9000; stroke:none;">
<circle cx="36.6271" cy="3.4400" r="0.1000" /> 
</g>
<g style="fill:#B4A09A; fill-opacity:0.9000; stroke:none;">
<circle cx="37.0271" cy="3.4400" r="0.1000" /> 
</g>
<g style="fill:#B4A09A; fill-opacity:0.9000; stroke:none;">
<circle cx="37.4271" cy="3.4400" r="0.1000" /> 
</g>
<g style="fill:none; 
stroke:#F2EDA1; stroke-width:0.1588; stroke-opacity:1; 
stroke-linecap:round; stroke-linejoin:round;">
<text x="36.4271" y="3.0750"
textLength="5.6651" font-size="1.6933" lengthAdjust="spacingAndGlyphs"
text-anchor="middle" opacity="0">REF**</text>
<g class="stroked-text"><desc>REF**</desc>
<path d="M34.7337 3.0193
L34.3104 2.4145
" />
<path d="M34.0080 3.0193
L34.0080 1.7493
" />
<path d="M34.0080 1.7493
L34.4918 1.7493
" />
<path d="M34.4918 1.7493
L34.6128 1.8097
" />
<path d="M34.6128 1.8097
L34.6733 1.8702
" />
<path d="M34.6733 1.8702
L34.7337 1.9912
" />
<path d="M34.7337 1.9912
L34.7337 2.1726
" />
<path d="M34.7337 2.1726
L34.6733 2.2936
" />
<path d="M34.6733 2.2936
L34.6128 2.3540
" />
<path d="M34.6128 2.3540
L34.4918 2.4145
" />
<path d="M34.4918 2.4145
L34.0080 2.4145
" />
<path d="M35.2780 2.3540
L35.7014 2.3540
" />
<path d="M35.8828 3.0193
L35.2780 3.0193
" />
<path d="M35.2780 3.0193
L35.2780 1.7493
" />
<path d="M35.2780 1.7493
L35.8828 1.7493
" />
<path d="M36.8504 2.3540
L36.4271 2.3540
" />
<path d="M36.4271 3.0193
L36.4271 1.7493
" />
<path d="M36.4271 1.7493
L37.0318 1.7493
" />
<path d="M37.6971 1.7493
L37.6971 2.0517
" />
<path d="M37.3947 1.9307
L37.6971 2.0517
" />
<path d="M37.6971 2.0517
L37.9995 1.9307
" />
<path d="M37.5156 2.2936
L37.6971 2.0517
" />
<path d="M37.6971 2.0517
L37.8785 2.2936
" />
<path d="M38.6647 1.7493
L38.6647 2.0517
" />
<path d="M38.3623 1.9307
L38.6647 2.0517
" />
<path d="M38.6647 2.0517
L38.9671 1.9307
" />
<path d="M38.4833 2.2936
L38.6647 2.0517
" />
<path d="M38.6647 2.0517
L38.8461 2.2936
" />
</g></g>
<g style="fill:none; 
stroke:#F2EDA1; stroke-width:0.1500; stroke-opacity:1; 
stroke-linecap:round; stroke-linejoin:round;">
<path d="M34.5791 4.3230
L34.5771 0.8800
" />
<path d="M34.8971 0.5600
L38.2751 0.5570
" />
<path d="M35.4281 4.3230
L34.5791 4.3230
" />
<path d="M37.4261 0.5570
L38.2751 0.5570
" />
<path d="M37.4261 0.5570
L38.2751 0.5570
" />
<path d="M37.4261 4.3230
L38.2751 4.3230
" />
<path d="M38.2751 0.5570
L38.2751 1.4235
" />
<path d="M38.2751 0.5570
L38.2751 1.4235
" />
<path d="M38.2751 0.5570
L38.2751 1.4235
" />
<path d="M38.2751 4.3230
L38.2751 3.4565
" />
<path style="fill:#F2EDA1; fill-opacity:1.0000; 
stroke:#F2EDA1; stroke-width:0.1200; stroke-opacity:1; 
stroke-linecap:round; stroke-linejoin:round;fill-rule:evenodd;"
d="M 34.5771,0.5600
34.0771,0.5600
34.5771,0.0600
Z" /> 
</g>
<g style="fill:none; 
stroke:#FF26E2; stroke-width:0.0500; stroke-opacity:1; 
stroke-linecap:round; stroke-linejoin:round;">
<path d="M34.4771 0.4400
L38.3771 0.4400
" />
<path d="M34.4771 4.4400
L34.4771 0.4400
" />
<path d="M38.3771 0.4400
L38.3771 4.4400
" />
<path d="M38.3771 4.4400
L34.4771 4.4400
" />
</g>
<g style="fill:none; 
stroke:#AFAFAF; stroke-width:0.1588; stroke-opacity:1; 
stroke-linecap:round; stroke-linejoin:round;">
<text x="36.4271" y="3.0750"
textLength="72.8542" font-size="1.6933" lengthAdjust="spacingAndGlyphs"
text-anchor="middle" opacity="0">BGA-36_3.396x3.466mm_Layout6x6_P0.4mm_Ball0.25mm_Pad0.2mm_NSMD</text>
<g class="stroked-text"><desc>BGA-36_3.396x3.466mm_Layout6x6_P0.4mm_Ball0.25mm_Pad0.2mm_NSMD</desc>
<path d="M0.8368 2.3540
L1.0183 2.4145
" />
<path d="M1.0183 2.4145
L1.0787 2.4750
" />
<path d="M1.0787 2.4750
L1.1392 2.5959
" />
<path d="M1.1392 2.5959
L1.1392 2.7774
" />
<path d="M1.1392 2.7774
L1.0787 2.8983
" />
<path d="M1.0787 2.8983
L1.0183 2.9588
" />
<path d="M1.0183 2.9588
L0.8973 3.0193
" />
<path d="M0.8973 3.0193
L0.4135 3.0193
" />
<path d="M0.4135 3.0193
L0.4135 1.7493
" />
<path d="M0.4135 1.7493
L0.8368 1.7493
" />
<path d="M0.8368 1.7493
L0.9578 1.8097
" />
<path d="M0.9578 1.8097
L1.0183 1.8702
" />
<path d="M1.0183 1.8702
L1.0787 1.9912
" />
<path d="M1.0787 1.9912
L1.0787 2.1121
" />
<path d="M1.0787 2.1121
L1.0183 2.2331
" />
<path d="M1.0183 2.2331
L0.9578 2.2936
" />
<path d="M0.9578 2.2936
L0.8368 2.3540
" />
<path d="M0.8368 2.3540
L0.4135 2.3540
" />
<path d="M2.3487 1.8097
L2.2278 1.7493
" />
<path d="M2.2278 1.7493
L2.0464 1.7493
" />
<path d="M2.0464 1.7493
L1.8649 1.8097
" />
<path d="M1.8649 1.8097
L1.7440 1.9307
" />
<path d="M1.7440 1.9307
L1.6835 2.0517
" />
<path d="M1.6835 2.0517
L1.6230 2.2936
" />
<path d="M1.6230 2.2936
L1.6230 2.4750
" />
<path d="M1.6230 2.4750
L1.6835 2.7169
" />
<path d="M1.6835 2.7169
L1.7440 2.8378
" />
<path d="M1.7440 2.8378
L1.8649 2.9588
" />
<path d="M1.8649 2.9588
L2.0464 3.0193
" />
<path d="M2.0464 3.0193
L2.1673 3.0193
" />
<path d="M2.1673 3.0193
L2.3487 2.9588
" />
<path d="M2.3487 2.9588
L2.4092 2.8983
" />
<path d="M2.4092 2.8983
L2.4092 2.4750
" />
<path d="M2.4092 2.4750
L2.1673 2.4750
" />
<path d="M2.8930 2.6564
L3.4978 2.6564
" />
<path d="M2.7721 3.0193
L3.1954 1.7493
" />
<path d="M3.1954 1.7493
L3.6187 3.0193
" />
<path d="M4.0421 2.5355
L5.0097 2.5355
" />
<path d="M5.4935 1.7493
L6.2797 1.7493
" />
<path d="M6.2797 1.7493
L5.8564 2.2331
" />
<path d="M5.8564 2.2331
L6.0378 2.2331
" />
<path d="M6.0378 2.2331
L6.1587 2.2936
" />
<path d="M6.1587 2.2936
L6.2192 2.3540
" />
<path d="M6.2192 2.3540
L6.2797 2.4750
" />
<path d="M6.2797 2.4750
L6.2797 2.7774
" />
<path d="M6.2797 2.7774
L6.2192 2.8983
" />
<path d="M6.2192 2.8983
L6.1587 2.9588
" />
<path d="M6.1587 2.9588
L6.0378 3.0193
" />
<path d="M6.0378 3.0193
L5.6749 3.0193
" />
<path d="M5.6749 3.0193
L5.5540 2.9588
" />
<path d="M5.5540 2.9588
L5.4935 2.8983
" />
<path d="M7.3683 1.7493
L7.1264 1.7493
" />
<path d="M7.1264 1.7493
L7.0054 1.8097
" />
<path d="M7.0054 1.8097
L6.9449 1.8702
" />
<path d="M6.9449 1.8702
L6.8240 2.0517
" />
<path d="M6.8240 2.0517
L6.7635 2.2936
" />
<path d="M6.7635 2.2936
L6.7635 2.7774
" />
<path d="M6.7635 2.7774
L6.8240 2.8983
" />
<path d="M6.8240 2.8983
L6.8845 2.9588
" />
<path d="M6.8845 2.9588
L7.0054 3.0193
" />
<path d="M7.0054 3.0193
L7.2473 3.0193
" />
<path d="M7.2473 3.0193
L7.3683 2.9588
" />
<path d="M7.3683 2.9588
L7.4287 2.8983
" />
<path d="M7.4287 2.8983
L7.4892 2.7774
" />
<path d="M7.4892 2.7774
L7.4892 2.4750
" />
<path d="M7.4892 2.4750
L7.4287 2.3540
" />
<path d="M7.4287 2.3540
L7.3683 2.2936
" />
<path d="M7.3683 2.2936
L7.2473 2.2331
" />
<path d="M7.2473 2.2331
L7.0054 2.2331
" />
<path d="M7.0054 2.2331
L6.8845 2.2936
" />
<path d="M6.8845 2.2936
L6.8240 2.3540
" />
<path d="M6.8240 2.3540
L6.7635 2.4750
" />
<path d="M7.7311 3.1402
L8.6987 3.1402
" />
<path d="M8.8802 1.7493
L9.6664 1.7493
" />
<path d="M9.6664 1.7493
L9.2430 2.2331
" />
<path d="M9.2430 2.2331
L9.4245 2.2331
" />
<path d="M9.4245 2.2331
L9.5454 2.2936
" />
<path d="M9.5454 2.2936
L9.6059 2.3540
" />
<path d="M9.6059 2.3540
L9.6664 2.4750
" />
<path d="M9.6664 2.4750
L9.6664 2.7774
" />
<path d="M9.6664 2.7774
L9.6059 2.8983
" />
<path d="M9.6059 2.8983
L9.5454 2.9588
" />
<path d="M9.5454 2.9588
L9.4245 3.0193
" />
<path d="M9.4245 3.0193
L9.0616 3.0193
" />
<path d="M9.0616 3.0193
L8.9406 2.9588
" />
<path d="M8.9406 2.9588
L8.8802 2.8983
" />
<path d="M10.2106 2.8983
L10.2711 2.9588
" />
<path d="M10.2711 2.9588
L10.2106 3.0193
" />
<path d="M10.2106 3.0193
L10.1502 2.9588
" />
<path d="M10.1502 2.9588
L10.2106 2.8983
" />
<path d="M10.2106 2.8983
L10.2106 3.0193
" />
<path d="M10.6945 1.7493
L11.4806 1.7493
" />
<path d="M11.4806 1.7493
L11.0573 2.2331
" />
<path d="M11.0573 2.2331
L11.2387 2.2331
" />
<path d="M11.2387 2.2331
L11.3597 2.2936
" />
<path d="M11.3597 2.2936
L11.4202 2.3540
" />
<path d="M11.4202 2.3540
L11.4806 2.4750
" />
<path d="M11.4806 2.4750
L11.4806 2.7774
" />
<path d="M11.4806 2.7774
L11.4202 2.8983
" />
<path d="M11.4202 2.8983
L11.3597 2.9588
" />
<path d="M11.3597 2.9588
L11.2387 3.0193
" />
<path d="M11.2387 3.0193
L10.8759 3.0193
" />
<path d="M10.8759 3.0193
L10.7549 2.9588
" />
<path d="M10.7549 2.9588
L10.6945 2.8983
" />
<path d="M12.0854 3.0193
L12.3273 3.0193
" />
<path d="M12.3273 3.0193
L12.4483 2.9588
" />
<path d="M12.4483 2.9588
L12.5087 2.8983
" />
<path d="M12.5087 2.8983
L12.6297 2.7169
" />
<path d="M12.6297 2.7169
L12.6902 2.4750
" />
<path d="M12.6902 2.4750
L12.6902 1.9912
" />
<path d="M12.6902 1.9912
L12.6297 1.8702
" />
<path d="M12.6297 1.8702
L12.5692 1.8097
" />
<path d="M12.5692 1.8097
L12.4483 1.7493
" />
<path d="M12.4483 1.7493
L12.2064 1.7493
" />
<path d="M12.2064 1.7493
L12.0854 1.8097
" />
<path d="M12.0854 1.8097
L12.0249 1.8702
" />
<path d="M12.0249 1.8702
L11.9645 1.9912
" />
<path d="M11.9645 1.9912
L11.9645 2.2936
" />
<path d="M11.9645 2.2936
L12.0249 2.4145
" />
<path d="M12.0249 2.4145
L12.0854 2.4750
" />
<path d="M12.0854 2.4750
L12.2064 2.5355
" />
<path d="M12.2064 2.5355
L12.4483 2.5355
" />
<path d="M12.4483 2.5355
L12.5692 2.4750
" />
<path d="M12.5692 2.4750
L12.6297 2.4145
" />
<path d="M12.6297 2.4145
L12.6902 2.2936
" />
<path d="M13.7787 1.7493
L13.5368 1.7493
" />
<path d="M13.5368 1.7493
L13.4159 1.8097
" />
<path d="M13.4159 1.8097
L13.3554 1.8702
" />
<path d="M13.3554 1.8702
L13.2345 2.0517
" />
<path d="M13.2345 2.0517
L13.1740 2.2936
" />
<path d="M13.1740 2.2936
L13.1740 2.7774
" />
<path d="M13.1740 2.7774
L13.2345 2.8983
" />
<path d="M13.2345 2.8983
L13.2949 2.9588
" />
<path d="M13.2949 2.9588
L13.4159 3.0193
" />
<path d="M13.4159 3.0193
L13.6578 3.0193
" />
<path d="M13.6578 3.0193
L13.7787 2.9588
" />
<path d="M13.7787 2.9588
L13.8392 2.8983
" />
<path d="M13.8392 2.8983
L13.8997 2.7774
" />
<path d="M13.8997 2.7774
L13.8997 2.4750
" />
<path d="M13.8997 2.4750
L13.8392 2.3540
" />
<path d="M13.8392 2.3540
L13.7787 2.2936
" />
<path d="M13.7787 2.2936
L13.6578 2.2331
" />
<path d="M13.6578 2.2331
L13.4159 2.2331
" />
<path d="M13.4159 2.2331
L13.2949 2.2936
" />
<path d="M13.2949 2.2936
L13.2345 2.3540
" />
<path d="M13.2345 2.3540
L13.1740 2.4750
" />
<path d="M14.3230 3.0193
L14.9883 2.1726
" />
<path d="M14.3230 2.1726
L14.9883 3.0193
" />
<path d="M15.3511 1.7493
L16.1373 1.7493
" />
<path d="M16.1373 1.7493
L15.7140 2.2331
" />
<path d="M15.7140 2.2331
L15.8954 2.2331
" />
<path d="M15.8954 2.2331
L16.0164 2.2936
" />
<path d="M16.0164 2.2936
L16.0768 2.3540
" />
<path d="M16.0768 2.3540
L16.1373 2.4750
" />
<path d="M16.1373 2.4750
L16.1373 2.7774
" />
<path d="M16.1373 2.7774
L16.0768 2.8983
" />
<path d="M16.0768 2.8983
L16.0164 2.9588
" />
<path d="M16.0164 2.9588
L15.8954 3.0193
" />
<path d="M15.8954 3.0193
L15.5326 3.0193
" />
<path d="M15.5326 3.0193
L15.4116 2.9588
" />
<path d="M15.4116 2.9588
L15.3511 2.8983
" />
<path d="M16.6816 2.8983
L16.7421 2.9588
" />
<path d="M16.7421 2.9588
L16.6816 3.0193
" />
<path d="M16.6816 3.0193
L16.6211 2.9588
" />
<path d="M16.6211 2.9588
L16.6816 2.8983
" />
<path d="M16.6816 2.8983
L16.6816 3.0193
" />
<path d="M17.8306 2.1726
L17.8306 3.0193
" />
<path d="M17.5283 1.6888
L17.2259 2.5959
" />
<path d="M17.2259 2.5959
L18.0121 2.5959
" />
<path d="M19.0402 1.7493
L18.7983 1.7493
" />
<path d="M18.7983 1.7493
L18.6773 1.8097
" />
<path d="M18.6773 1.8097
L18.6168 1.8702
" />
<path d="M18.6168 1.8702
L18.4959 2.0517
" />
<path d="M18.4959 2.0517
L18.4354 2.2936
" />
<path d="M18.4354 2.2936
L18.4354 2.7774
" />
<path d="M18.4354 2.7774
L18.4959 2.8983
" />
<path d="M18.4959 2.8983
L18.5564 2.9588
" />
<path d="M18.5564 2.9588
L18.6773 3.0193
" />
<path d="M18.6773 3.0193
L18.9192 3.0193
" />
<path d="M18.9192 3.0193
L19.0402 2.9588
" />
<path d="M19.0402 2.9588
L19.1006 2.8983
" />
<path d="M19.1006 2.8983
L19.1611 2.7774
" />
<path d="M19.1611 2.7774
L19.1611 2.4750
" />
<path d="M19.1611 2.4750
L19.1006 2.3540
" />
<path d="M19.1006 2.3540
L19.0402 2.2936
" />
<path d="M19.0402 2.2936
L18.9192 2.2331
" />
<path d="M18.9192 2.2331
L18.6773 2.2331
" />
<path d="M18.6773 2.2331
L18.5564 2.2936
" />
<path d="M18.5564 2.2936
L18.4959 2.3540
" />
<path d="M18.4959 2.3540
L18.4354 2.4750
" />
<path d="M20.2497 1.7493
L20.0078 1.7493
" />
<path d="M20.0078 1.7493
L19.8868 1.8097
" />
<path d="M19.8868 1.8097
L19.8264 1.8702
" />
<path d="M19.8264 1.8702
L19.7054 2.0517
" />
<path d="M19.7054 2.0517
L19.6449 2.2936
" />
<path d="M19.6449 2.2936
L19.6449 2.7774
" />
<path d="M19.6449 2.7774
L19.7054 2.8983
" />
<path d="M19.7054 2.8983
L19.7659 2.9588
" />
<path d="M19.7659 2.9588
L19.8868 3.0193
" />
<path d="M19.8868 3.0193
L20.1287 3.0193
" />
<path d="M20.1287 3.0193
L20.2497 2.9588
" />
<path d="M20.2497 2.9588
L20.3102 2.8983
" />
<path d="M20.3102 2.8983
L20.3707 2.7774
" />
<path d="M20.3707 2.7774
L20.3707 2.4750
" />
<path d="M20.3707 2.4750
L20.3102 2.3540
" />
<path d="M20.3102 2.3540
L20.2497 2.2936
" />
<path d="M20.2497 2.2936
L20.1287 2.2331
" />
<path d="M20.1287 2.2331
L19.8868 2.2331
" />
<path d="M19.8868 2.2331
L19.7659 2.2936
" />
<path d="M19.7659 2.2936
L19.7054 2.3540
" />
<path d="M19.7054 2.3540
L19.6449 2.4750
" />
<path d="M20.9149 3.0193
L20.9149 2.1726
" />
<path d="M20.9149 2.2936
L20.9754 2.2331
" />
<path d="M20.9754 2.2331
L21.0964 2.1726
" />
<path d="M21.0964 2.1726
L21.2778 2.1726
" />
<path d="M21.2778 2.1726
L21.3987 2.2331
" />
<path d="M21.3987 2.2331
L21.4592 2.3540
" />
<path d="M21.4592 2.3540
L21.4592 3.0193
" />
<path d="M21.4592 2.3540
L21.5197 2.2331
" />
<path d="M21.5197 2.2331
L21.6407 2.1726
" />
<path d="M21.6407 2.1726
L21.8221 2.1726
" />
<path d="M21.8221 2.1726
L21.9430 2.2331
" />
<path d="M21.9430 2.2331
L22.0035 2.3540
" />
<path d="M22.0035 2.3540
L22.0035 3.0193
" />
<path d="M22.6083 3.0193
L22.6083 2.1726
" />
<path d="M22.6083 2.2936
L22.6687 2.2331
" />
<path d="M22.6687 2.2331
L22.7897 2.1726
" />
<path d="M22.7897 2.1726
L22.9711 2.1726
" />
<path d="M22.9711 2.1726
L23.0921 2.2331
" />
<path d="M23.0921 2.2331
L23.1526 2.3540
" />
<path d="M23.1526 2.3540
L23.1526 3.0193
" />
<path d="M23.1526 2.3540
L23.2130 2.2331
" />
<path d="M23.2130 2.2331
L23.3340 2.1726
" />
<path d="M23.3340 2.1726
L23.5154 2.1726
" />
<path d="M23.5154 2.1726
L23.6364 2.2331
" />
<path d="M23.6364 2.2331
L23.6968 2.3540
" />
<path d="M23.6968 2.3540
L23.6968 3.0193
" />
<path d="M23.9992 3.1402
L24.9668 3.1402
" />
<path d="M25.8740 3.0193
L25.2692 3.0193
" />
<path d="M25.2692 3.0193
L25.2692 1.7493
" />
<path d="M26.8416 3.0193
L26.8416 2.3540
" />
<path d="M26.8416 2.3540
L26.7811 2.2331
" />
<path d="M26.7811 2.2331
L26.6602 2.1726
" />
<path d="M26.6602 2.1726
L26.4183 2.1726
" />
<path d="M26.4183 2.1726
L26.2973 2.2331
" />
<path d="M26.8416 2.9588
L26.7206 3.0193
" />
<path d="M26.7206 3.0193
L26.4183 3.0193
" />
<path d="M26.4183 3.0193
L26.2973 2.9588
" />
<path d="M26.2973 2.9588
L26.2368 2.8378
" />
<path d="M26.2368 2.8378
L26.2368 2.7169
" />
<path d="M26.2368 2.7169
L26.2973 2.5959
" />
<path d="M26.2973 2.5959
L26.4183 2.5355
" />
<path d="M26.4183 2.5355
L26.7206 2.5355
" />
<path d="M26.7206 2.5355
L26.8416 2.4750
" />
<path d="M27.3254 2.1726
L27.6278 3.0193
" />
<path d="M27.9302 2.1726
L27.6278 3.0193
" />
<path d="M27.6278 3.0193
L27.5068 3.3217
" />
<path d="M27.5068 3.3217
L27.4464 3.3821
" />
<path d="M27.4464 3.3821
L27.3254 3.4426
" />
<path d="M28.5954 3.0193
L28.4745 2.9588
" />
<path d="M28.4745 2.9588
L28.4140 2.8983
" />
<path d="M28.4140 2.8983
L28.3535 2.7774
" />
<path d="M28.3535 2.7774
L28.3535 2.4145
" />
<path d="M28.3535 2.4145
L28.4140 2.2936
" />
<path d="M28.4140 2.2936
L28.4745 2.2331
" />
<path d="M28.4745 2.2331
L28.5954 2.1726
" />
<path d="M28.5954 2.1726
L28.7768 2.1726
" />
<path d="M28.7768 2.1726
L28.8978 2.2331
" />
<path d="M28.8978 2.2331
L28.9583 2.2936
" />
<path d="M28.9583 2.2936
L29.0187 2.4145
" />
<path d="M29.0187 2.4145
L29.0187 2.7774
" />
<path d="M29.0187 2.7774
L28.9583 2.8983
" />
<path d="M28.9583 2.8983
L28.8978 2.9588
" />
<path d="M28.8978 2.9588
L28.7768 3.0193
" />
<path d="M28.7768 3.0193
L28.5954 3.0193
" />
<path d="M30.1073 2.1726
L30.1073 3.0193
" />
<path d="M29.5630 2.1726
L29.5630 2.8378
" />
<path d="M29.5630 2.8378
L29.6235 2.9588
" />
<path d="M29.6235 2.9588
L29.7445 3.0193
" />
<path d="M29.7445 3.0193
L29.9259 3.0193
" />
<path d="M29.9259 3.0193
L30.0468 2.9588
" />
<path d="M30.0468 2.9588
L30.1073 2.8983
" />
<path d="M30.5307 2.1726
L31.0145 2.1726
" />
<path d="M30.7121 1.7493
L30.7121 2.8378
" />
<path d="M30.7121 2.8378
L30.7726 2.9588
" />
<path d="M30.7726 2.9588
L30.8935 3.0193
" />
<path d="M30.8935 3.0193
L31.0145 3.0193
" />
<path d="M31.9821 1.7493
L31.7402 1.7493
" />
<path d="M31.7402 1.7493
L31.6192 1.8097
" />
<path d="M31.6192 1.8097
L31.5587 1.8702
" />
<path d="M31.5587 1.8702
L31.4378 2.0517
" />
<path d="M31.4378 2.0517
L31.3773 2.2936
" />
<path d="M31.3773 2.2936
L31.3773 2.7774
" />
<path d="M31.3773 2.7774
L31.4378 2.8983
" />
<path d="M31.4378 2.8983
L31.4983 2.9588
" />
<path d="M31.4983 2.9588
L31.6192 3.0193
" />
<path d="M31.6192 3.0193
L31.8611 3.0193
" />
<path d="M31.8611 3.0193
L31.9821 2.9588
" />
<path d="M31.9821 2.9588
L32.0426 2.8983
" />
<path d="M32.0426 2.8983
L32.1030 2.7774
" />
<path d="M32.1030 2.7774
L32.1030 2.4750
" />
<path d="M32.1030 2.4750
L32.0426 2.3540
" />
<path d="M32.0426 2.3540
L31.9821 2.2936
" />
<path d="M31.9821 2.2936
L31.8611 2.2331
" />
<path d="M31.8611 2.2331
L31.6192 2.2331
" />
<path d="M31.6192 2.2331
L31.4983 2.2936
" />
<path d="M31.4983 2.2936
L31.4378 2.3540
" />
<path d="M31.4378 2.3540
L31.3773 2.4750
" />
<path d="M32.5264 3.0193
L33.1916 2.1726
" />
<path d="M32.5264 2.1726
L33.1916 3.0193
" />
<path d="M34.2197 1.7493
L33.9778 1.7493
" />
<path d="M33.9778 1.7493
L33.8568 1.8097
" />
<path d="M33.8568 1.8097
L33.7964 1.8702
" />
<path d="M33.7964 1.8702
L33.6754 2.0517
" />
<path d="M33.6754 2.0517
L33.6149 2.2936
" />
<path d="M33.6149 2.2936
L33.6149 2.7774
" />
<path d="M33.6149 2.7774
L33.6754 2.8983
" />
<path d="M33.6754 2.8983
L33.7359 2.9588
" />
<path d="M33.7359 2.9588
L33.8568 3.0193
" />
<path d="M33.8568 3.0193
L34.0987 3.0193
" />
<path d="M34.0987 3.0193
L34.2197 2.9588
" />
<path d="M34.2197 2.9588
L34.2802 2.8983
" />
<path d="M34.2802 2.8983
L34.3407 2.7774
" />
<path d="M34.3407 2.7774
L34.3407 2.4750
" />
<path d="M34.3407 2.4750
L34.2802 2.3540
" />
<path d="M34.2802 2.3540
L34.2197 2.2936
" />
<path d="M34.2197 2.2936
L34.0987 2.2331
" />
<path d="M34.0987 2.2331
L33.8568 2.2331
" />
<path d="M33.8568 2.2331
L33.7359 2.2936
" />
<path d="M33.7359 2.2936
L33.6754 2.3540
" />
<path d="M33.6754 2.3540
L33.6149 2.4750
" />
<path d="M34.5826 3.1402
L35.5502 3.1402
" />
<path d="M35.8526 3.0193
L35.8526 1.7493
" />
<path d="M35.8526 1.7493
L36.3364 1.7493
" />
<path d="M36.3364 1.7493
L36.4573 1.8097
" />
<path d="M36.4573 1.8097
L36.5178 1.8702
" />
<path d="M36.5178 1.8702
L36.5783 1.9912
" />
<path d="M36.5783 1.9912
L36.5783 2.1726
" />
<path d="M36.5783 2.1726
L36.5178 2.2936
" />
<path d="M36.5178 2.2936
L36.4573 2.3540
" />
<path d="M36.4573 2.3540
L36.3364 2.4145
" />
<path d="M36.3364 2.4145
L35.8526 2.4145
" />
<path d="M37.3645 1.7493
L37.4854 1.7493
" />
<path d="M37.4854 1.7493
L37.6064 1.8097
" />
<path d="M37.6064 1.8097
L37.6668 1.8702
" />
<path d="M37.6668 1.8702
L37.7273 1.9912
" />
<path d="M37.7273 1.9912
L37.7878 2.2331
" />
<path d="M37.7878 2.2331
L37.7878 2.5355
" />
<path d="M37.7878 2.5355
L37.7273 2.7774
" />
<path d="M37.7273 2.7774
L37.6668 2.8983
" />
<path d="M37.6668 2.8983
L37.6064 2.9588
" />
<path d="M37.6064 2.9588
L37.4854 3.0193
" />
<path d="M37.4854 3.0193
L37.3645 3.0193
" />
<path d="M37.3645 3.0193
L37.2435 2.9588
" />
<path d="M37.2435 2.9588
L37.1830 2.8983
" />
<path d="M37.1830 2.8983
L37.1226 2.7774
" />
<path d="M37.1226 2.7774
L37.0621 2.5355
" />
<path d="M37.0621 2.5355
L37.0621 2.2331
" />
<path d="M37.0621 2.2331
L37.1226 1.9912
" />
<path d="M37.1226 1.9912
L37.1830 1.8702
" />
<path d="M37.1830 1.8702
L37.2435 1.8097
" />
<path d="M37.2435 1.8097
L37.3645 1.7493
" />
<path d="M38.3321 2.8983
L38.3926 2.9588
" />
<path d="M38.3926 2.9588
L38.3321 3.0193
" />
<path d="M38.3321 3.0193
L38.2716 2.9588
" />
<path d="M38.2716 2.9588
L38.3321 2.8983
" />
<path d="M38.3321 2.8983
L38.3321 3.0193
" />
<path d="M39.4811 2.1726
L39.4811 3.0193
" />
<path d="M39.1787 1.6888
L38.8764 2.5959
" />
<path d="M38.8764 2.5959
L39.6626 2.5959
" />
<path d="M40.1464 3.0193
L40.1464 2.1726
" />
<path d="M40.1464 2.2936
L40.2068 2.2331
" />
<path d="M40.2068 2.2331
L40.3278 2.1726
" />
<path d="M40.3278 2.1726
L40.5092 2.1726
" />
<path d="M40.5092 2.1726
L40.6302 2.2331
" />
<path d="M40.6302 2.2331
L40.6906 2.3540
" />
<path d="M40.6906 2.3540
L40.6906 3.0193
" />
<path d="M40.6906 2.3540
L40.7511 2.2331
" />
<path d="M40.7511 2.2331
L40.8721 2.1726
" />
<path d="M40.8721 2.1726
L41.0535 2.1726
" />
<path d="M41.0535 2.1726
L41.1745 2.2331
" />
<path d="M41.1745 2.2331
L41.2349 2.3540
" />
<path d="M41.2349 2.3540
L41.2349 3.0193
" />
<path d="M41.8397 3.0193
L41.8397 2.1726
" />
<path d="M41.8397 2.2936
L41.9002 2.2331
" />
<path d="M41.9002 2.2331
L42.0211 2.1726
" />
<path d="M42.0211 2.1726
L42.2026 2.1726
" />
<path d="M42.2026 2.1726
L42.3235 2.2331
" />
<path d="M42.3235 2.2331
L42.3840 2.3540
" />
<path d="M42.3840 2.3540
L42.3840 3.0193
" />
<path d="M42.3840 2.3540
L42.4445 2.2331
" />
<path d="M42.4445 2.2331
L42.5654 2.1726
" />
<path d="M42.5654 2.1726
L42.7468 2.1726
" />
<path d="M42.7468 2.1726
L42.8678 2.2331
" />
<path d="M42.8678 2.2331
L42.9283 2.3540
" />
<path d="M42.9283 2.3540
L42.9283 3.0193
" />
<path d="M43.2306 3.1402
L44.1983 3.1402
" />
<path d="M44.9240 2.3540
L45.1054 2.4145
" />
<path d="M45.1054 2.4145
L45.1659 2.4750
" />
<path d="M45.1659 2.4750
L45.2264 2.5959
" />
<path d="M45.2264 2.5959
L45.2264 2.7774
" />
<path d="M45.2264 2.7774
L45.1659 2.8983
" />
<path d="M45.1659 2.8983
L45.1054 2.9588
" />
<path d="M45.1054 2.9588
L44.9845 3.0193
" />
<path d="M44.9845 3.0193
L44.5006 3.0193
" />
<path d="M44.5006 3.0193
L44.5006 1.7493
" />
<path d="M44.5006 1.7493
L44.9240 1.7493
" />
<path d="M44.9240 1.7493
L45.0449 1.8097
" />
<path d="M45.0449 1.8097
L45.1054 1.8702
" />
<path d="M45.1054 1.8702
L45.1659 1.9912
" />
<path d="M45.1659 1.9912
L45.1659 2.1121
" />
<path d="M45.1659 2.1121
L45.1054 2.2331
" />
<path d="M45.1054 2.2331
L45.0449 2.2936
" />
<path d="M45.0449 2.2936
L44.9240 2.3540
" />
<path d="M44.9240 2.3540
L44.5006 2.3540
" />
<path d="M46.3149 3.0193
L46.3149 2.3540
" />
<path d="M46.3149 2.3540
L46.2545 2.2331
" />
<path d="M46.2545 2.2331
L46.1335 2.1726
" />
<path d="M46.1335 2.1726
L45.8916 2.1726
" />
<path d="M45.8916 2.1726
L45.7706 2.2331
" />
<path d="M46.3149 2.9588
L46.1940 3.0193
" />
<path d="M46.1940 3.0193
L45.8916 3.0193
" />
<path d="M45.8916 3.0193
L45.7706 2.9588
" />
<path d="M45.7706 2.9588
L45.7102 2.8378
" />
<path d="M45.7102 2.8378
L45.7102 2.7169
" />
<path d="M45.7102 2.7169
L45.7706 2.5959
" />
<path d="M45.7706 2.5959
L45.8916 2.5355
" />
<path d="M45.8916 2.5355
L46.1940 2.5355
" />
<path d="M46.1940 2.5355
L46.3149 2.4750
" />
<path d="M47.1011 3.0193
L46.9802 2.9588
" />
<path d="M46.9802 2.9588
L46.9197 2.8378
" />
<path d="M46.9197 2.8378
L46.9197 1.7493
" />
<path d="M47.7664 3.0193
L47.6454 2.9588
" />
<path d="M47.6454 2.9588
L47.5849 2.8378
" />
<path d="M47.5849 2.8378
L47.5849 1.7493
" />
<path d="M48.4921 1.7493
L48.6130 1.7493
" />
<path d="M48.6130 1.7493
L48.7340 1.8097
" />
<path d="M48.7340 1.8097
L48.7945 1.8702
" />
<path d="M48.7945 1.8702
L48.8549 1.9912
" />
<path d="M48.8549 1.9912
L48.9154 2.2331
" />
<path d="M48.9154 2.2331
L48.9154 2.5355
" />
<path d="M48.9154 2.5355
L48.8549 2.7774
" />
<path d="M48.8549 2.7774
L48.7945 2.8983
" />
<path d="M48.7945 2.8983
L48.7340 2.9588
" />
<path d="M48.7340 2.9588
L48.6130 3.0193
" />
<path d="M48.6130 3.0193
L48.4921 3.0193
" />
<path d="M48.4921 3.0193
L48.3711 2.9588
" />
<path d="M48.3711 2.9588
L48.3106 2.8983
" />
<path d="M48.3106 2.8983
L48.2502 2.7774
" />
<path d="M48.2502 2.7774
L48.1897 2.5355
" />
<path d="M48.1897 2.5355
L48.1897 2.2331
" />
<path d="M48.1897 2.2331
L48.2502 1.9912
" />
<path d="M48.2502 1.9912
L48.3106 1.8702
" />
<path d="M48.3106 1.8702
L48.3711 1.8097
" />
<path d="M48.3711 1.8097
L48.4921 1.7493
" />
<path d="M49.4597 2.8983
L49.5202 2.9588
" />
<path d="M49.5202 2.9588
L49.4597 3.0193
" />
<path d="M49.4597 3.0193
L49.3992 2.9588
" />
<path d="M49.3992 2.9588
L49.4597 2.8983
" />
<path d="M49.4597 2.8983
L49.4597 3.0193
" />
<path d="M50.0040 1.8702
L50.0645 1.8097
" />
<path d="M50.0645 1.8097
L50.1854 1.7493
" />
<path d="M50.1854 1.7493
L50.4878 1.7493
" />
<path d="M50.4878 1.7493
L50.6087 1.8097
" />
<path d="M50.6087 1.8097
L50.6692 1.8702
" />
<path d="M50.6692 1.8702
L50.7297 1.9912
" />
<path d="M50.7297 1.9912
L50.7297 2.1121
" />
<path d="M50.7297 2.1121
L50.6692 2.2936
" />
<path d="M50.6692 2.2936
L49.9435 3.0193
" />
<path d="M49.9435 3.0193
L50.7297 3.0193
" />
<path d="M51.8787 1.7493
L51.2740 1.7493
" />
<path d="M51.2740 1.7493
L51.2135 2.3540
" />
<path d="M51.2135 2.3540
L51.2740 2.2936
" />
<path d="M51.2740 2.2936
L51.3949 2.2331
" />
<path d="M51.3949 2.2331
L51.6973 2.2331
" />
<path d="M51.6973 2.2331
L51.8183 2.2936
" />
<path d="M51.8183 2.2936
L51.8787 2.3540
" />
<path d="M51.8787 2.3540
L51.9392 2.4750
" />
<path d="M51.9392 2.4750
L51.9392 2.7774
" />
<path d="M51.9392 2.7774
L51.8787 2.8983
" />
<path d="M51.8787 2.8983
L51.8183 2.9588
" />
<path d="M51.8183 2.9588
L51.6973 3.0193
" />
<path d="M51.6973 3.0193
L51.3949 3.0193
" />
<path d="M51.3949 3.0193
L51.2740 2.9588
" />
<path d="M51.2740 2.9588
L51.2135 2.8983
" />
<path d="M52.4835 3.0193
L52.4835 2.1726
" />
<path d="M52.4835 2.2936
L52.5440 2.2331
" />
<path d="M52.5440 2.2331
L52.6649 2.1726
" />
<path d="M52.6649 2.1726
L52.8464 2.1726
" />
<path d="M52.8464 2.1726
L52.9673 2.2331
" />
<path d="M52.9673 2.2331
L53.0278 2.3540
" />
<path d="M53.0278 2.3540
L53.0278 3.0193
" />
<path d="M53.0278 2.3540
L53.0883 2.2331
" />
<path d="M53.0883 2.2331
L53.2092 2.1726
" />
<path d="M53.2092 2.1726
L53.3907 2.1726
" />
<path d="M53.3907 2.1726
L53.5116 2.2331
" />
<path d="M53.5116 2.2331
L53.5721 2.3540
" />
<path d="M53.5721 2.3540
L53.5721 3.0193
" />
<path d="M54.1768 3.0193
L54.1768 2.1726
" />
<path d="M54.1768 2.2936
L54.2373 2.2331
" />
<path d="M54.2373 2.2331
L54.3583 2.1726
" />
<path d="M54.3583 2.1726
L54.5397 2.1726
" />
<path d="M54.5397 2.1726
L54.6606 2.2331
" />
<path d="M54.6606 2.2331
L54.7211 2.3540
" />
<path d="M54.7211 2.3540
L54.7211 3.0193
" />
<path d="M54.7211 2.3540
L54.7816 2.2331
" />
<path d="M54.7816 2.2331
L54.9026 2.1726
" />
<path d="M54.9026 2.1726
L55.0840 2.1726
" />
<path d="M55.0840 2.1726
L55.2049 2.2331
" />
<path d="M55.2049 2.2331
L55.2654 2.3540
" />
<path d="M55.2654 2.3540
L55.2654 3.0193
" />
<path d="M55.5678 3.1402
L56.5354 3.1402
" />
<path d="M56.8378 3.0193
L56.8378 1.7493
" />
<path d="M56.8378 1.7493
L57.3216 1.7493
" />
<path d="M57.3216 1.7493
L57.4426 1.8097
" />
<path d="M57.4426 1.8097
L57.5030 1.8702
" />
<path d="M57.5030 1.8702
L57.5635 1.9912
" />
<path d="M57.5635 1.9912
L57.5635 2.1726
" />
<path d="M57.5635 2.1726
L57.5030 2.2936
" />
<path d="M57.5030 2.2936
L57.4426 2.3540
" />
<path d="M57.4426 2.3540
L57.3216 2.4145
" />
<path d="M57.3216 2.4145
L56.8378 2.4145
" />
<path d="M58.6521 3.0193
L58.6521 2.3540
" />
<path d="M58.6521 2.3540
L58.5916 2.2331
" />
<path d="M58.5916 2.2331
L58.4706 2.1726
" />
<path d="M58.4706 2.1726
L58.2287 2.1726
" />
<path d="M58.2287 2.1726
L58.1078 2.2331
" />
<path d="M58.6521 2.9588
L58.5311 3.0193
" />
<path d="M58.5311 3.0193
L58.2287 3.0193
" />
<path d="M58.2287 3.0193
L58.1078 2.9588
" />
<path d="M58.1078 2.9588
L58.0473 2.8378
" />
<path d="M58.0473 2.8378
L58.0473 2.7169
" />
<path d="M58.0473 2.7169
L58.1078 2.5959
" />
<path d="M58.1078 2.5959
L58.2287 2.5355
" />
<path d="M58.2287 2.5355
L58.5311 2.5355
" />
<path d="M58.5311 2.5355
L58.6521 2.4750
" />
<path d="M59.8011 3.0193
L59.8011 1.7493
" />
<path d="M59.8011 2.9588
L59.6802 3.0193
" />
<path d="M59.6802 3.0193
L59.4383 3.0193
" />
<path d="M59.4383 3.0193
L59.3173 2.9588
" />
<path d="M59.3173 2.9588
L59.2568 2.8983
" />
<path d="M59.2568 2.8983
L59.1964 2.7774
" />
<path d="M59.1964 2.7774
L59.1964 2.4145
" />
<path d="M59.1964 2.4145
L59.2568 2.2936
" />
<path d="M59.2568 2.2936
L59.3173 2.2331
" />
<path d="M59.3173 2.2331
L59.4383 2.1726
" />
<path d="M59.4383 2.1726
L59.6802 2.1726
" />
<path d="M59.6802 2.1726
L59.8011 2.2331
" />
<path d="M60.6478 1.7493
L60.7687 1.7493
" />
<path d="M60.7687 1.7493
L60.8897 1.8097
" />
<path d="M60.8897 1.8097
L60.9502 1.8702
" />
<path d="M60.9502 1.8702
L61.0106 1.9912
" />
<path d="M61.0106 1.9912
L61.0711 2.2331
" />
<path d="M61.0711 2.2331
L61.0711 2.5355
" />
<path d="M61.0711 2.5355
L61.0106 2.7774
" />
<path d="M61.0106 2.7774
L60.9502 2.8983
" />
<path d="M60.9502 2.8983
L60.8897 2.9588
" />
<path d="M60.8897 2.9588
L60.7687 3.0193
" />
<path d="M60.7687 3.0193
L60.6478 3.0193
" />
<path d="M60.6478 3.0193
L60.5268 2.9588
" />
<path d="M60.5268 2.9588
L60.4664 2.8983
" />
<path d="M60.4664 2.8983
L60.4059 2.7774
" />
<path d="M60.4059 2.7774
L60.3454 2.5355
" />
<path d="M60.3454 2.5355
L60.3454 2.2331
" />
<path d="M60.3454 2.2331
L60.4059 1.9912
" />
<path d="M60.4059 1.9912
L60.4664 1.8702
" />
<path d="M60.4664 1.8702
L60.5268 1.8097
" />
<path d="M60.5268 1.8097
L60.6478 1.7493
" />
<path d="M61.6154 2.8983
L61.6759 2.9588
" />
<path d="M61.6759 2.9588
L61.6154 3.0193
" />
<path d="M61.6154 3.0193
L61.5549 2.9588
" />
<path d="M61.5549 2.9588
L61.6154 2.8983
" />
<path d="M61.6154 2.8983
L61.6154 3.0193
" />
<path d="M62.1597 1.8702
L62.2202 1.8097
" />
<path d="M62.2202 1.8097
L62.3411 1.7493
" />
<path d="M62.3411 1.7493
L62.6435 1.7493
" />
<path d="M62.6435 1.7493
L62.7645 1.8097
" />
<path d="M62.7645 1.8097
L62.8249 1.8702
" />
<path d="M62.8249 1.8702
L62.8854 1.9912
" />
<path d="M62.8854 1.9912
L62.8854 2.1121
" />
<path d="M62.8854 2.1121
L62.8249 2.2936
" />
<path d="M62.8249 2.2936
L62.0992 3.0193
" />
<path d="M62.0992 3.0193
L62.8854 3.0193
" />
<path d="M63.4297 3.0193
L63.4297 2.1726
" />
<path d="M63.4297 2.2936
L63.4902 2.2331
" />
<path d="M63.4902 2.2331
L63.6111 2.1726
" />
<path d="M63.6111 2.1726
L63.7926 2.1726
" />
<path d="M63.7926 2.1726
L63.9135 2.2331
" />
<path d="M63.9135 2.2331
L63.9740 2.3540
" />
<path d="M63.9740 2.3540
L63.9740 3.0193
" />
<path d="M63.9740 2.3540
L64.0345 2.2331
" />
<path d="M64.0345 2.2331
L64.1554 2.1726
" />
<path d="M64.1554 2.1726
L64.3368 2.1726
" />
<path d="M64.3368 2.1726
L64.4578 2.2331
" />
<path d="M64.4578 2.2331
L64.5183 2.3540
" />
<path d="M64.5183 2.3540
L64.5183 3.0193
" />
<path d="M65.1230 3.0193
L65.1230 2.1726
" />
<path d="M65.1230 2.2936
L65.1835 2.2331
" />
<path d="M65.1835 2.2331
L65.3045 2.1726
" />
<path d="M65.3045 2.1726
L65.4859 2.1726
" />
<path d="M65.4859 2.1726
L65.6068 2.2331
" />
<path d="M65.6068 2.2331
L65.6673 2.3540
" />
<path d="M65.6673 2.3540
L65.6673 3.0193
" />
<path d="M65.6673 2.3540
L65.7278 2.2331
" />
<path d="M65.7278 2.2331
L65.8487 2.1726
" />
<path d="M65.8487 2.1726
L66.0302 2.1726
" />
<path d="M66.0302 2.1726
L66.1511 2.2331
" />
<path d="M66.1511 2.2331
L66.2116 2.3540
" />
<path d="M66.2116 2.3540
L66.2116 3.0193
" />
<path d="M66.5140 3.1402
L67.4816 3.1402
" />
<path d="M67.7840 3.0193
L67.7840 1.7493
" />
<path d="M67.7840 1.7493
L68.5097 3.0193
" />
<path d="M68.5097 3.0193
L68.5097 1.7493
" />
<path d="M69.0540 2.9588
L69.2354 3.0193
" />
<path d="M69.2354 3.0193
L69.5378 3.0193
" />
<path d="M69.5378 3.0193
L69.6587 2.9588
" />
<path d="M69.6587 2.9588
L69.7192 2.8983
" />
<path d="M69.7192 2.8983
L69.7797 2.7774
" />
<path d="M69.7797 2.7774
L69.7797 2.6564
" />
<path d="M69.7797 2.6564
L69.7192 2.5355
" />
<path d="M69.7192 2.5355
L69.6587 2.4750
" />
<path d="M69.6587 2.4750
L69.5378 2.4145
" />
<path d="M69.5378 2.4145
L69.2959 2.3540
" />
<path d="M69.2959 2.3540
L69.1749 2.2936
" />
<path d="M69.1749 2.2936
L69.1145 2.2331
" />
<path d="M69.1145 2.2331
L69.0540 2.1121
" />
<path d="M69.0540 2.1121
L69.0540 1.9912
" />
<path d="M69.0540 1.9912
L69.1145 1.8702
" />
<path d="M69.1145 1.8702
L69.1749 1.8097
" />
<path d="M69.1749 1.8097
L69.2959 1.7493
" />
<path d="M69.2959 1.7493
L69.5983 1.7493
" />
<path d="M69.5983 1.7493
L69.7797 1.8097
" />
<path d="M70.3240 3.0193
L70.3240 1.7493
" />
<path d="M70.3240 1.7493
L70.7473 2.6564
" />
<path d="M70.7473 2.6564
L71.1706 1.7493
" />
<path d="M71.1706 1.7493
L71.1706 3.0193
" />
<path d="M71.7754 3.0193
L71.7754 1.7493
" />
<path d="M71.7754 1.7493
L72.0778 1.7493
" />
<path d="M72.0778 1.7493
L72.2592 1.8097
" />
<path d="M72.2592 1.8097
L72.3802 1.9307
" />
<path d="M72.3802 1.9307
L72.4407 2.0517
" />
<path d="M72.4407 2.0517
L72.5011 2.2936
" />
<path d="M72.5011 2.2936
L72.5011 2.4750
" />
<path d="M72.5011 2.4750
L72.4407 2.7169
" />
<path d="M72.4407 2.7169
L72.3802 2.8378
" />
<path d="M72.3802 2.8378
L72.2592 2.9588
" />
<path d="M72.2592 2.9588
L72.0778 3.0193
" />
<path d="M72.0778 3.0193
L71.7754 3.0193
" />
</g></g>
<g style="fill:none; 
stroke:#AFAFAF; stroke-width:0.1500; stroke-opacity:1; 
stroke-linecap:round; stroke-linejoin:round;">
<text x="36.4271" y="2.9400"
textLength="4.5357" font-size="1.3333" lengthAdjust="spacingAndGlyphs"
text-anchor="middle" opacity="0">REF**</text>
<g class="stroked-text"><desc>REF**</desc>
<path d="M35.0937 2.8948
L34.7604 2.4186
" />
<path d="M34.5223 2.8948
L34.5223 1.8948
" />
<path d="M34.5223 1.8948
L34.9033 1.8948
" />
<path d="M34.9033 1.8948
L34.9985 1.9424
" />
<path d="M34.9985 1.9424
L35.0461 1.9901
" />
<path d="M35.0461 1.9901
L35.0937 2.0853
" />
<path d="M35.0937 2.0853
L35.0937 2.2282
" />
<path d="M35.0937 2.2282
L35.0461 2.3234
" />
<path d="M35.0461 2.3234
L34.9985 2.3710
" />
<path d="M34.9985 2.3710
L34.9033 2.4186
" />
<path d="M34.9033 2.4186
L34.5223 2.4186
" />
<path d="M35.5223 2.3710
L35.8556 2.3710
" />
<path d="M35.9985 2.8948
L35.5223 2.8948
" />
<path d="M35.5223 2.8948
L35.5223 1.8948
" />
<path d="M35.5223 1.8948
L35.9985 1.8948
" />
<path d="M36.7604 2.3710
L36.4271 2.3710
" />
<path d="M36.4271 2.8948
L36.4271 1.8948
" />
<path d="M36.4271 1.8948
L36.9033 1.8948
" />
<path d="M37.4271 1.8948
L37.4271 2.1329
" />
<path d="M37.1890 2.0377
L37.4271 2.1329
" />
<path d="M37.4271 2.1329
L37.6652 2.0377
" />
<path d="M37.2842 2.3234
L37.4271 2.1329
" />
<path d="M37.4271 2.1329
L37.5699 2.3234
" />
<path d="M38.1890 1.8948
L38.1890 2.1329
" />
<path d="M37.9509 2.0377
L38.1890 2.1329
" />
<path d="M38.1890 2.1329
L38.4271 2.0377
" />
<path d="M38.0461 2.3234
L38.1890 2.1329
" />
<path d="M38.1890 2.1329
L38.3318 2.3234
" />
</g><path d="M34.7291 1.6070
L34.7291 4.1730
" />
<path d="M34.7291 4.1730
L38.1251 4.1730
" />
<path d="M35.6291 0.7070
L34.7291 1.6070
" />
<path d="M38.1251 0.7070
L35.6291 0.7070
" />
<path d="M38.1251 4.1730
L38.1251 0.7070
" />
</g> 
</svg>
