<?xml version="1.0" standalone="no"?>
 <!DOCTYPE svg PUBLIC "-//W3C//DTD SVG 1.1//EN" 
 "http://www.w3.org/Graphics/SVG/1.1/DTD/svg11.dtd"> 
<svg
  xmlns:svg="http://www.w3.org/2000/svg"
  xmlns="http://www.w3.org/2000/svg"
  xmlns:xlink="http://www.w3.org/1999/xlink"
  version="1.1"
  width="47.1424mm" height="40.0304mm" viewBox="0.0000 0.0000 47.1424 40.0304">
<title>SVG Image created as working-brd.svg date 2024/04/03 04:09:38 </title>
  <desc>Image generated by PCBNEW </desc>
<g style="fill:#000000; fill-opacity:1.0000;stroke:#000000; stroke-opacity:1.0000;
stroke-linecap:round; stroke-linejoin:round;"
 transform="translate(0 0) scale(1 1)">
<path style="fill:#C83434; fill-opacity:1.0000; stroke:none;fill-rule:evenodd;"
d="M 21.8259,1.3250
21.8259,0.7250
23.5759,0.7250
23.5759,1.3250
Z" /> 
<path style="fill:#C83434; fill-opacity:1.0000; stroke:none;fill-rule:evenodd;"
d="M 23.5759,2.3250
23.5759,1.7250
25.3259,1.7250
25.3259,2.3250
Z" /> 
<path style="fill:#C83434; fill-opacity:1.0000; stroke:none;fill-rule:evenodd;"
d="M 21.8259,3.3250
21.8259,2.7250
23.5759,2.7250
23.5759,3.3250
Z" /> 
<path style="fill:#C83434; fill-opacity:1.0000; stroke:none;fill-rule:evenodd;"
d="M 23.5759,4.3250
23.5759,3.7250
25.3259,3.7250
25.3259,4.3250
Z" /> 
<path style="fill:#C83434; fill-opacity:1.0000; stroke:none;fill-rule:evenodd;"
d="M 21.8259,5.3250
21.8259,4.7250
23.5759,4.7250
23.5759,5.3250
Z" /> 
<path style="fill:#C83434; fill-opacity:1.0000; stroke:none;fill-rule:evenodd;"
d="M 23.5759,6.3250
23.5759,5.7250
25.3259,5.7250
25.3259,6.3250
Z" /> 
<path style="fill:#C83434; fill-opacity:1.0000; stroke:none;fill-rule:evenodd;"
d="M 21.8259,7.3250
21.8259,6.7250
23.5759,6.7250
23.5759,7.3250
Z" /> 
<path style="fill:#C83434; fill-opacity:1.0000; stroke:none;fill-rule:evenodd;"
d="M 23.5759,8.3250
23.5759,7.7250
25.3259,7.7250
25.3259,8.3250
Z" /> 
<path style="fill:#C83434; fill-opacity:1.0000; stroke:none;fill-rule:evenodd;"
d="M 21.8259,9.3250
21.8259,8.7250
23.5759,8.7250
23.5759,9.3250
Z" /> 
<path style="fill:#C83434; fill-opacity:1.0000; stroke:none;fill-rule:evenodd;"
d="M 23.5759,10.3250
23.5759,9.7250
25.3259,9.7250
25.3259,10.3250
Z" /> 
<path style="fill:#C83434; fill-opacity:1.0000; stroke:none;fill-rule:evenodd;"
d="M 21.8259,11.3250
21.8259,10.7250
23.5759,10.7250
23.5759,11.3250
Z" /> 
<path style="fill:#C83434; fill-opacity:1.0000; stroke:none;fill-rule:evenodd;"
d="M 23.5759,12.3250
23.5759,11.7250
25.3259,11.7250
25.3259,12.3250
Z" /> 
<path style="fill:#C83434; fill-opacity:1.0000; stroke:none;fill-rule:evenodd;"
d="M 21.8259,13.3250
21.8259,12.7250
23.5759,12.7250
23.5759,13.3250
Z" /> 
<path style="fill:#C83434; fill-opacity:1.0000; stroke:none;fill-rule:evenodd;"
d="M 23.5759,14.3250
23.5759,13.7250
25.3259,13.7250
25.3259,14.3250
Z" /> 
<path style="fill:#C83434; fill-opacity:1.0000; stroke:none;fill-rule:evenodd;"
d="M 21.8259,15.3250
21.8259,14.7250
23.5759,14.7250
23.5759,15.3250
Z" /> 
<path style="fill:#C83434; fill-opacity:1.0000; stroke:none;fill-rule:evenodd;"
d="M 23.5759,16.3250
23.5759,15.7250
25.3259,15.7250
25.3259,16.3250
Z" /> 
<path style="fill:#C83434; fill-opacity:1.0000; stroke:none;fill-rule:evenodd;"
d="M 21.8259,17.3250
21.8259,16.7250
23.5759,16.7250
23.5759,17.3250
Z" /> 
<path style="fill:#C83434; fill-opacity:1.0000; stroke:none;fill-rule:evenodd;"
d="M 23.5759,18.3250
23.5759,17.7250
25.3259,17.7250
25.3259,18.3250
Z" /> 
<path style="fill:#C83434; fill-opacity:1.0000; stroke:none;fill-rule:evenodd;"
d="M 21.8259,19.3250
21.8259,18.7250
23.5759,18.7250
23.5759,19.3250
Z" /> 
<path style="fill:#C83434; fill-opacity:1.0000; stroke:none;fill-rule:evenodd;"
d="M 23.5759,20.3250
23.5759,19.7250
25.3259,19.7250
25.3259,20.3250
Z" /> 
<path style="fill:#C83434; fill-opacity:1.0000; stroke:none;fill-rule:evenodd;"
d="M 21.8259,21.3250
21.8259,20.7250
23.5759,20.7250
23.5759,21.3250
Z" /> 
<path style="fill:#C83434; fill-opacity:1.0000; stroke:none;fill-rule:evenodd;"
d="M 23.5759,22.3250
23.5759,21.7250
25.3259,21.7250
25.3259,22.3250
Z" /> 
<path style="fill:#C83434; fill-opacity:1.0000; stroke:none;fill-rule:evenodd;"
d="M 21.8259,23.3250
21.8259,22.7250
23.5759,22.7250
23.5759,23.3250
Z" /> 
<path style="fill:#C83434; fill-opacity:1.0000; stroke:none;fill-rule:evenodd;"
d="M 23.5759,24.3250
23.5759,23.7250
25.3259,23.7250
25.3259,24.3250
Z" /> 
<path style="fill:#C83434; fill-opacity:1.0000; stroke:none;fill-rule:evenodd;"
d="M 21.8259,25.3250
21.8259,24.7250
23.5759,24.7250
23.5759,25.3250
Z" /> 
<path style="fill:#C83434; fill-opacity:1.0000; stroke:none;fill-rule:evenodd;"
d="M 23.5759,26.3250
23.5759,25.7250
25.3259,25.7250
25.3259,26.3250
Z" /> 
<path style="fill:#C83434; fill-opacity:1.0000; stroke:none;fill-rule:evenodd;"
d="M 21.8259,27.3250
21.8259,26.7250
23.5759,26.7250
23.5759,27.3250
Z" /> 
<path style="fill:#C83434; fill-opacity:1.0000; stroke:none;fill-rule:evenodd;"
d="M 23.5759,28.3250
23.5759,27.7250
25.3259,27.7250
25.3259,28.3250
Z" /> 
<path style="fill:#C83434; fill-opacity:1.0000; stroke:none;fill-rule:evenodd;"
d="M 21.8259,29.3250
21.8259,28.7250
23.5759,28.7250
23.5759,29.3250
Z" /> 
<path style="fill:#C83434; fill-opacity:1.0000; stroke:none;fill-rule:evenodd;"
d="M 23.5759,30.3250
23.5759,29.7250
25.3259,29.7250
25.3259,30.3250
Z" /> 
<path style="fill:#C83434; fill-opacity:1.0000; stroke:none;fill-rule:evenodd;"
d="M 21.8259,31.3250
21.8259,30.7250
23.5759,30.7250
23.5759,31.3250
Z" /> 
<path style="fill:#C83434; fill-opacity:1.0000; stroke:none;fill-rule:evenodd;"
d="M 23.5759,32.3250
23.5759,31.7250
25.3259,31.7250
25.3259,32.3250
Z" /> 
<path style="fill:#C83434; fill-opacity:1.0000; stroke:none;fill-rule:evenodd;"
d="M 21.8259,33.3250
21.8259,32.7250
23.5759,32.7250
23.5759,33.3250
Z" /> 
<path style="fill:#C83434; fill-opacity:1.0000; stroke:none;fill-rule:evenodd;"
d="M 23.5759,34.3250
23.5759,33.7250
25.3259,33.7250
25.3259,34.3250
Z" /> 
<path style="fill:#C83434; fill-opacity:1.0000; stroke:none;fill-rule:evenodd;"
d="M 21.8259,35.3250
21.8259,34.7250
23.5759,34.7250
23.5759,35.3250
Z" /> 
<path style="fill:#C83434; fill-opacity:1.0000; stroke:none;fill-rule:evenodd;"
d="M 23.5759,36.3250
23.5759,35.7250
25.3259,35.7250
25.3259,36.3250
Z" /> 
<path style="fill:#C83434; fill-opacity:1.0000; stroke:none;fill-rule:evenodd;"
d="M 21.8259,37.3250
21.8259,36.7250
23.5759,36.7250
23.5759,37.3250
Z" /> 
<path style="fill:#C83434; fill-opacity:1.0000; stroke:none;fill-rule:evenodd;"
d="M 23.5759,38.3250
23.5759,37.7250
25.3259,37.7250
25.3259,38.3250
Z" /> 
<path style="fill:#C83434; fill-opacity:1.0000; stroke:none;fill-rule:evenodd;"
d="M 21.8259,39.3250
21.8259,38.7250
23.5759,38.7250
23.5759,39.3250
Z" /> 
<path style="fill:#D864FF; fill-opacity:0.4000; stroke:none;fill-rule:evenodd;"
d="M 21.8259,1.3250
21.8259,0.7250
23.5759,0.7250
23.5759,1.3250
Z" /> 
<path style="fill:#D864FF; fill-opacity:0.4000; stroke:none;fill-rule:evenodd;"
d="M 23.5759,2.3250
23.5759,1.7250
25.3259,1.7250
25.3259,2.3250
Z" /> 
<path style="fill:#D864FF; fill-opacity:0.4000; stroke:none;fill-rule:evenodd;"
d="M 21.8259,3.3250
21.8259,2.7250
23.5759,2.7250
23.5759,3.3250
Z" /> 
<path style="fill:#D864FF; fill-opacity:0.4000; stroke:none;fill-rule:evenodd;"
d="M 23.5759,4.3250
23.5759,3.7250
25.3259,3.7250
25.3259,4.3250
Z" /> 
<path style="fill:#D864FF; fill-opacity:0.4000; stroke:none;fill-rule:evenodd;"
d="M 21.8259,5.3250
21.8259,4.7250
23.5759,4.7250
23.5759,5.3250
Z" /> 
<path style="fill:#D864FF; fill-opacity:0.4000; stroke:none;fill-rule:evenodd;"
d="M 23.5759,6.3250
23.5759,5.7250
25.3259,5.7250
25.3259,6.3250
Z" /> 
<path style="fill:#D864FF; fill-opacity:0.4000; stroke:none;fill-rule:evenodd;"
d="M 21.8259,7.3250
21.8259,6.7250
23.5759,6.7250
23.5759,7.3250
Z" /> 
<path style="fill:#D864FF; fill-opacity:0.4000; stroke:none;fill-rule:evenodd;"
d="M 23.5759,8.3250
23.5759,7.7250
25.3259,7.7250
25.3259,8.3250
Z" /> 
<path style="fill:#D864FF; fill-opacity:0.4000; stroke:none;fill-rule:evenodd;"
d="M 21.8259,9.3250
21.8259,8.7250
23.5759,8.7250
23.5759,9.3250
Z" /> 
<path style="fill:#D864FF; fill-opacity:0.4000; stroke:none;fill-rule:evenodd;"
d="M 23.5759,10.3250
23.5759,9.7250
25.3259,9.7250
25.3259,10.3250
Z" /> 
<path style="fill:#D864FF; fill-opacity:0.4000; stroke:none;fill-rule:evenodd;"
d="M 21.8259,11.3250
21.8259,10.7250
23.5759,10.7250
23.5759,11.3250
Z" /> 
<path style="fill:#D864FF; fill-opacity:0.4000; stroke:none;fill-rule:evenodd;"
d="M 23.5759,12.3250
23.5759,11.7250
25.3259,11.7250
25.3259,12.3250
Z" /> 
<path style="fill:#D864FF; fill-opacity:0.4000; stroke:none;fill-rule:evenodd;"
d="M 21.8259,13.3250
21.8259,12.7250
23.5759,12.7250
23.5759,13.3250
Z" /> 
<path style="fill:#D864FF; fill-opacity:0.4000; stroke:none;fill-rule:evenodd;"
d="M 23.5759,14.3250
23.5759,13.7250
25.3259,13.7250
25.3259,14.3250
Z" /> 
<path style="fill:#D864FF; fill-opacity:0.4000; stroke:none;fill-rule:evenodd;"
d="M 21.8259,15.3250
21.8259,14.7250
23.5759,14.7250
23.5759,15.3250
Z" /> 
<path style="fill:#D864FF; fill-opacity:0.4000; stroke:none;fill-rule:evenodd;"
d="M 23.5759,16.3250
23.5759,15.7250
25.3259,15.7250
25.3259,16.3250
Z" /> 
<path style="fill:#D864FF; fill-opacity:0.4000; stroke:none;fill-rule:evenodd;"
d="M 21.8259,17.3250
21.8259,16.7250
23.5759,16.7250
23.5759,17.3250
Z" /> 
<path style="fill:#D864FF; fill-opacity:0.4000; stroke:none;fill-rule:evenodd;"
d="M 23.5759,18.3250
23.5759,17.7250
25.3259,17.7250
25.3259,18.3250
Z" /> 
<path style="fill:#D864FF; fill-opacity:0.4000; stroke:none;fill-rule:evenodd;"
d="M 21.8259,19.3250
21.8259,18.7250
23.5759,18.7250
23.5759,19.3250
Z" /> 
<path style="fill:#D864FF; fill-opacity:0.4000; stroke:none;fill-rule:evenodd;"
d="M 23.5759,20.3250
23.5759,19.7250
25.3259,19.7250
25.3259,20.3250
Z" /> 
<path style="fill:#D864FF; fill-opacity:0.4000; stroke:none;fill-rule:evenodd;"
d="M 21.8259,21.3250
21.8259,20.7250
23.5759,20.7250
23.5759,21.3250
Z" /> 
<path style="fill:#D864FF; fill-opacity:0.4000; stroke:none;fill-rule:evenodd;"
d="M 23.5759,22.3250
23.5759,21.7250
25.3259,21.7250
25.3259,22.3250
Z" /> 
<path style="fill:#D864FF; fill-opacity:0.4000; stroke:none;fill-rule:evenodd;"
d="M 21.8259,23.3250
21.8259,22.7250
23.5759,22.7250
23.5759,23.3250
Z" /> 
<path style="fill:#D864FF; fill-opacity:0.4000; stroke:none;fill-rule:evenodd;"
d="M 23.5759,24.3250
23.5759,23.7250
25.3259,23.7250
25.3259,24.3250
Z" /> 
<path style="fill:#D864FF; fill-opacity:0.4000; stroke:none;fill-rule:evenodd;"
d="M 21.8259,25.3250
21.8259,24.7250
23.5759,24.7250
23.5759,25.3250
Z" /> 
<path style="fill:#D864FF; fill-opacity:0.4000; stroke:none;fill-rule:evenodd;"
d="M 23.5759,26.3250
23.5759,25.7250
25.3259,25.7250
25.3259,26.3250
Z" /> 
<path style="fill:#D864FF; fill-opacity:0.4000; stroke:none;fill-rule:evenodd;"
d="M 21.8259,27.3250
21.8259,26.7250
23.5759,26.7250
23.5759,27.3250
Z" /> 
<path style="fill:#D864FF; fill-opacity:0.4000; stroke:none;fill-rule:evenodd;"
d="M 23.5759,28.3250
23.5759,27.7250
25.3259,27.7250
25.3259,28.3250
Z" /> 
<path style="fill:#D864FF; fill-opacity:0.4000; stroke:none;fill-rule:evenodd;"
d="M 21.8259,29.3250
21.8259,28.7250
23.5759,28.7250
23.5759,29.3250
Z" /> 
<path style="fill:#D864FF; fill-opacity:0.4000; stroke:none;fill-rule:evenodd;"
d="M 23.5759,30.3250
23.5759,29.7250
25.3259,29.7250
25.3259,30.3250
Z" /> 
<path style="fill:#D864FF; fill-opacity:0.4000; stroke:none;fill-rule:evenodd;"
d="M 21.8259,31.3250
21.8259,30.7250
23.5759,30.7250
23.5759,31.3250
Z" /> 
<path style="fill:#D864FF; fill-opacity:0.4000; stroke:none;fill-rule:evenodd;"
d="M 23.5759,32.3250
23.5759,31.7250
25.3259,31.7250
25.3259,32.3250
Z" /> 
<path style="fill:#D864FF; fill-opacity:0.4000; stroke:none;fill-rule:evenodd;"
d="M 21.8259,33.3250
21.8259,32.7250
23.5759,32.7250
23.5759,33.3250
Z" /> 
<path style="fill:#D864FF; fill-opacity:0.4000; stroke:none;fill-rule:evenodd;"
d="M 23.5759,34.3250
23.5759,33.7250
25.3259,33.7250
25.3259,34.3250
Z" /> 
<path style="fill:#D864FF; fill-opacity:0.4000; stroke:none;fill-rule:evenodd;"
d="M 21.8259,35.3250
21.8259,34.7250
23.5759,34.7250
23.5759,35.3250
Z" /> 
<path style="fill:#D864FF; fill-opacity:0.4000; stroke:none;fill-rule:evenodd;"
d="M 23.5759,36.3250
23.5759,35.7250
25.3259,35.7250
25.3259,36.3250
Z" /> 
<path style="fill:#D864FF; fill-opacity:0.4000; stroke:none;fill-rule:evenodd;"
d="M 21.8259,37.3250
21.8259,36.7250
23.5759,36.7250
23.5759,37.3250
Z" /> 
<path style="fill:#D864FF; fill-opacity:0.4000; stroke:none;fill-rule:evenodd;"
d="M 23.5759,38.3250
23.5759,37.7250
25.3259,37.7250
25.3259,38.3250
Z" /> 
<path style="fill:#D864FF; fill-opacity:0.4000; stroke:none;fill-rule:evenodd;"
d="M 21.8259,39.3250
21.8259,38.7250
23.5759,38.7250
23.5759,39.3250
Z" /> 
<path style="fill:#B4A09A; fill-opacity:0.9000; stroke:none;fill-rule:evenodd;"
d="M 21.8259,1.3250
21.8259,0.7250
23.5759,0.7250
23.5759,1.3250
Z" /> 
<path style="fill:#B4A09A; fill-opacity:0.9000; stroke:none;fill-rule:evenodd;"
d="M 23.5759,2.3250
23.5759,1.7250
25.3259,1.7250
25.3259,2.3250
Z" /> 
<path style="fill:#B4A09A; fill-opacity:0.9000; stroke:none;fill-rule:evenodd;"
d="M 21.8259,3.3250
21.8259,2.7250
23.5759,2.7250
23.5759,3.3250
Z" /> 
<path style="fill:#B4A09A; fill-opacity:0.9000; stroke:none;fill-rule:evenodd;"
d="M 23.5759,4.3250
23.5759,3.7250
25.3259,3.7250
25.3259,4.3250
Z" /> 
<path style="fill:#B4A09A; fill-opacity:0.9000; stroke:none;fill-rule:evenodd;"
d="M 21.8259,5.3250
21.8259,4.7250
23.5759,4.7250
23.5759,5.3250
Z" /> 
<path style="fill:#B4A09A; fill-opacity:0.9000; stroke:none;fill-rule:evenodd;"
d="M 23.5759,6.3250
23.5759,5.7250
25.3259,5.7250
25.3259,6.3250
Z" /> 
<path style="fill:#B4A09A; fill-opacity:0.9000; stroke:none;fill-rule:evenodd;"
d="M 21.8259,7.3250
21.8259,6.7250
23.5759,6.7250
23.5759,7.3250
Z" /> 
<path style="fill:#B4A09A; fill-opacity:0.9000; stroke:none;fill-rule:evenodd;"
d="M 23.5759,8.3250
23.5759,7.7250
25.3259,7.7250
25.3259,8.3250
Z" /> 
<path style="fill:#B4A09A; fill-opacity:0.9000; stroke:none;fill-rule:evenodd;"
d="M 21.8259,9.3250
21.8259,8.7250
23.5759,8.7250
23.5759,9.3250
Z" /> 
<path style="fill:#B4A09A; fill-opacity:0.9000; stroke:none;fill-rule:evenodd;"
d="M 23.5759,10.3250
23.5759,9.7250
25.3259,9.7250
25.3259,10.3250
Z" /> 
<path style="fill:#B4A09A; fill-opacity:0.9000; stroke:none;fill-rule:evenodd;"
d="M 21.8259,11.3250
21.8259,10.7250
23.5759,10.7250
23.5759,11.3250
Z" /> 
<path style="fill:#B4A09A; fill-opacity:0.9000; stroke:none;fill-rule:evenodd;"
d="M 23.5759,12.3250
23.5759,11.7250
25.3259,11.7250
25.3259,12.3250
Z" /> 
<path style="fill:#B4A09A; fill-opacity:0.9000; stroke:none;fill-rule:evenodd;"
d="M 21.8259,13.3250
21.8259,12.7250
23.5759,12.7250
23.5759,13.3250
Z" /> 
<path style="fill:#B4A09A; fill-opacity:0.9000; stroke:none;fill-rule:evenodd;"
d="M 23.5759,14.3250
23.5759,13.7250
25.3259,13.7250
25.3259,14.3250
Z" /> 
<path style="fill:#B4A09A; fill-opacity:0.9000; stroke:none;fill-rule:evenodd;"
d="M 21.8259,15.3250
21.8259,14.7250
23.5759,14.7250
23.5759,15.3250
Z" /> 
<path style="fill:#B4A09A; fill-opacity:0.9000; stroke:none;fill-rule:evenodd;"
d="M 23.5759,16.3250
23.5759,15.7250
25.3259,15.7250
25.3259,16.3250
Z" /> 
<path style="fill:#B4A09A; fill-opacity:0.9000; stroke:none;fill-rule:evenodd;"
d="M 21.8259,17.3250
21.8259,16.7250
23.5759,16.7250
23.5759,17.3250
Z" /> 
<path style="fill:#B4A09A; fill-opacity:0.9000; stroke:none;fill-rule:evenodd;"
d="M 23.5759,18.3250
23.5759,17.7250
25.3259,17.7250
25.3259,18.3250
Z" /> 
<path style="fill:#B4A09A; fill-opacity:0.9000; stroke:none;fill-rule:evenodd;"
d="M 21.8259,19.3250
21.8259,18.7250
23.5759,18.7250
23.5759,19.3250
Z" /> 
<path style="fill:#B4A09A; fill-opacity:0.9000; stroke:none;fill-rule:evenodd;"
d="M 23.5759,20.3250
23.5759,19.7250
25.3259,19.7250
25.3259,20.3250
Z" /> 
<path style="fill:#B4A09A; fill-opacity:0.9000; stroke:none;fill-rule:evenodd;"
d="M 21.8259,21.3250
21.8259,20.7250
23.5759,20.7250
23.5759,21.3250
Z" /> 
<path style="fill:#B4A09A; fill-opacity:0.9000; stroke:none;fill-rule:evenodd;"
d="M 23.5759,22.3250
23.5759,21.7250
25.3259,21.7250
25.3259,22.3250
Z" /> 
<path style="fill:#B4A09A; fill-opacity:0.9000; stroke:none;fill-rule:evenodd;"
d="M 21.8259,23.3250
21.8259,22.7250
23.5759,22.7250
23.5759,23.3250
Z" /> 
<path style="fill:#B4A09A; fill-opacity:0.9000; stroke:none;fill-rule:evenodd;"
d="M 23.5759,24.3250
23.5759,23.7250
25.3259,23.7250
25.3259,24.3250
Z" /> 
<path style="fill:#B4A09A; fill-opacity:0.9000; stroke:none;fill-rule:evenodd;"
d="M 21.8259,25.3250
21.8259,24.7250
23.5759,24.7250
23.5759,25.3250
Z" /> 
<path style="fill:#B4A09A; fill-opacity:0.9000; stroke:none;fill-rule:evenodd;"
d="M 23.5759,26.3250
23.5759,25.7250
25.3259,25.7250
25.3259,26.3250
Z" /> 
<path style="fill:#B4A09A; fill-opacity:0.9000; stroke:none;fill-rule:evenodd;"
d="M 21.8259,27.3250
21.8259,26.7250
23.5759,26.7250
23.5759,27.3250
Z" /> 
<path style="fill:#B4A09A; fill-opacity:0.9000; stroke:none;fill-rule:evenodd;"
d="M 23.5759,28.3250
23.5759,27.7250
25.3259,27.7250
25.3259,28.3250
Z" /> 
<path style="fill:#B4A09A; fill-opacity:0.9000; stroke:none;fill-rule:evenodd;"
d="M 21.8259,29.3250
21.8259,28.7250
23.5759,28.7250
23.5759,29.3250
Z" /> 
<path style="fill:#B4A09A; fill-opacity:0.9000; stroke:none;fill-rule:evenodd;"
d="M 23.5759,30.3250
23.5759,29.7250
25.3259,29.7250
25.3259,30.3250
Z" /> 
<path style="fill:#B4A09A; fill-opacity:0.9000; stroke:none;fill-rule:evenodd;"
d="M 21.8259,31.3250
21.8259,30.7250
23.5759,30.7250
23.5759,31.3250
Z" /> 
<path style="fill:#B4A09A; fill-opacity:0.9000; stroke:none;fill-rule:evenodd;"
d="M 23.5759,32.3250
23.5759,31.7250
25.3259,31.7250
25.3259,32.3250
Z" /> 
<path style="fill:#B4A09A; fill-opacity:0.9000; stroke:none;fill-rule:evenodd;"
d="M 21.8259,33.3250
21.8259,32.7250
23.5759,32.7250
23.5759,33.3250
Z" /> 
<path style="fill:#B4A09A; fill-opacity:0.9000; stroke:none;fill-rule:evenodd;"
d="M 23.5759,34.3250
23.5759,33.7250
25.3259,33.7250
25.3259,34.3250
Z" /> 
<path style="fill:#B4A09A; fill-opacity:0.9000; stroke:none;fill-rule:evenodd;"
d="M 21.8259,35.3250
21.8259,34.7250
23.5759,34.7250
23.5759,35.3250
Z" /> 
<path style="fill:#B4A09A; fill-opacity:0.9000; stroke:none;fill-rule:evenodd;"
d="M 23.5759,36.3250
23.5759,35.7250
25.3259,35.7250
25.3259,36.3250
Z" /> 
<path style="fill:#B4A09A; fill-opacity:0.9000; stroke:none;fill-rule:evenodd;"
d="M 21.8259,37.3250
21.8259,36.7250
23.5759,36.7250
23.5759,37.3250
Z" /> 
<path style="fill:#B4A09A; fill-opacity:0.9000; stroke:none;fill-rule:evenodd;"
d="M 23.5759,38.3250
23.5759,37.7250
25.3259,37.7250
25.3259,38.3250
Z" /> 
<path style="fill:#B4A09A; fill-opacity:0.9000; stroke:none;fill-rule:evenodd;"
d="M 21.8259,39.3250
21.8259,38.7250
23.5759,38.7250
23.5759,39.3250
Z" /> 
</g>
<g style="fill:none; 
stroke:#F2EDA1; stroke-width:0.1588; stroke-opacity:1; 
stroke-linecap:round; stroke-linejoin:round;">
<text x="23.5759" y="20.6600"
textLength="5.6651" font-size="1.6933" lengthAdjust="spacingAndGlyphs"
text-anchor="middle" opacity="0">REF**</text>
<g class="stroked-text"><desc>REF**</desc>
<path d="M21.8826 20.6043
L21.4592 19.9995
" />
<path d="M21.1568 20.6043
L21.1568 19.3343
" />
<path d="M21.1568 19.3343
L21.6406 19.3343
" />
<path d="M21.6406 19.3343
L21.7616 19.3947
" />
<path d="M21.7616 19.3947
L21.8221 19.4552
" />
<path d="M21.8221 19.4552
L21.8826 19.5762
" />
<path d="M21.8826 19.5762
L21.8826 19.7576
" />
<path d="M21.8826 19.7576
L21.8221 19.8786
" />
<path d="M21.8221 19.8786
L21.7616 19.9390
" />
<path d="M21.7616 19.9390
L21.6406 19.9995
" />
<path d="M21.6406 19.9995
L21.1568 19.9995
" />
<path d="M22.4268 19.9390
L22.8502 19.9390
" />
<path d="M23.0316 20.6043
L22.4268 20.6043
" />
<path d="M22.4268 20.6043
L22.4268 19.3343
" />
<path d="M22.4268 19.3343
L23.0316 19.3343
" />
<path d="M23.9992 19.9390
L23.5759 19.9390
" />
<path d="M23.5759 20.6043
L23.5759 19.3343
" />
<path d="M23.5759 19.3343
L24.1806 19.3343
" />
<path d="M24.8459 19.3343
L24.8459 19.6367
" />
<path d="M24.5435 19.5157
L24.8459 19.6367
" />
<path d="M24.8459 19.6367
L25.1483 19.5157
" />
<path d="M24.6645 19.8786
L24.8459 19.6367
" />
<path d="M24.8459 19.6367
L25.0273 19.8786
" />
<path d="M25.8135 19.3343
L25.8135 19.6367
" />
<path d="M25.5111 19.5157
L25.8135 19.6367
" />
<path d="M25.8135 19.6367
L26.1159 19.5157
" />
<path d="M25.6321 19.8786
L25.8135 19.6367
" />
<path d="M25.8135 19.6367
L25.9949 19.8786
" />
</g></g>
<g style="fill:none; 
stroke:#F2EDA1; stroke-width:0.1200; stroke-opacity:1; 
stroke-linecap:round; stroke-linejoin:round;">
<path d="M22.8809 0.4650
L21.8859 0.4650
" />
</g>
<g style="fill:#F2EDA1; fill-opacity:1.0000; stroke:none;">
<circle cx="22.8809" cy="0.4650" r="0.0600" /> 
</g>
<g style="fill:none; 
stroke:#F2EDA1; stroke-width:0.1200; stroke-opacity:1; 
stroke-linecap:round; stroke-linejoin:round;">
<path d="M22.8809 0.4650
L24.2709 0.4650
" />
<path d="M22.8809 1.5850
L22.8809 2.4650
" />
<path d="M22.8809 3.5850
L22.8809 4.4650
" />
<path d="M22.8809 5.5850
L22.8809 6.4650
" />
<path d="M22.8809 7.5850
L22.8809 8.4650
" />
<path d="M22.8809 9.5850
L22.8809 10.4650
" />
<path d="M22.8809 11.5850
L22.8809 12.4650
" />
<path d="M22.8809 13.5850
L22.8809 14.4650
" />
<path d="M22.8809 15.5850
L22.8809 16.4650
" />
<path d="M22.8809 17.5850
L22.8809 18.4650
" />
<path d="M22.8809 19.5850
L22.8809 20.4650
" />
<path d="M22.8809 21.5850
L22.8809 22.4650
" />
<path d="M22.8809 23.5850
L22.8809 24.4650
" />
<path d="M22.8809 25.5850
L22.8809 26.4650
" />
<path d="M22.8809 27.5850
L22.8809 28.4650
" />
<path d="M22.8809 29.5850
L22.8809 30.4650
" />
<path d="M22.8809 31.5850
L22.8809 32.4650
" />
<path d="M22.8809 33.5850
L22.8809 34.4650
" />
<path d="M22.8809 35.5850
L22.8809 36.4650
" />
<path d="M22.8809 37.5850
L22.8809 38.4650
" />
<path d="M22.8809 39.5850
L24.2709 39.5850
" />
<path d="M24.2709 0.4650
L24.2709 1.4650
" />
<path d="M24.2709 2.5850
L24.2709 3.4650
" />
<path d="M24.2709 4.5850
L24.2709 5.4650
" />
<path d="M24.2709 6.5850
L24.2709 7.4650
" />
<path d="M24.2709 8.5850
L24.2709 9.4650
" />
<path d="M24.2709 10.5850
L24.2709 11.4650
" />
<path d="M24.2709 12.5850
L24.2709 13.4650
" />
<path d="M24.2709 14.5850
L24.2709 15.4650
" />
<path d="M24.2709 16.5850
L24.2709 17.4650
" />
<path d="M24.2709 18.5850
L24.2709 19.4650
" />
<path d="M24.2709 20.5850
L24.2709 21.4650
" />
<path d="M24.2709 22.5850
L24.2709 23.4650
" />
<path d="M24.2709 24.5850
L24.2709 25.4650
" />
<path d="M24.2709 26.5850
L24.2709 27.4650
" />
<path d="M24.2709 28.5850
L24.2709 29.4650
" />
<path d="M24.2709 30.5850
L24.2709 31.4650
" />
<path d="M24.2709 32.5850
L24.2709 33.4650
" />
<path d="M24.2709 34.5850
L24.2709 35.4650
" />
<path d="M24.2709 36.5850
L24.2709 37.4650
" />
<path d="M24.2709 38.5850
L24.2709 39.5850
" />
</g>
<g style="fill:#F2EDA1; fill-opacity:1.0000; stroke:none;">
<circle cx="24.2709" cy="39.5850" r="0.0600" /> 
</g>
<g style="fill:none; 
stroke:#FF26E2; stroke-width:0.0500; stroke-opacity:1; 
stroke-linecap:round; stroke-linejoin:round;">
<path d="M21.3259 0.0250
L21.3259 40.0250
" />
<path d="M21.3259 40.0250
L25.8259 40.0250
" />
<path d="M25.8259 0.0250
L21.3259 0.0250
" />
<path d="M25.8259 40.0250
L25.8259 0.0250
" />
</g>
<g style="fill:none; 
stroke:#AFAFAF; stroke-width:0.1588; stroke-opacity:1; 
stroke-linecap:round; stroke-linejoin:round;">
<text x="23.5759" y="20.6600"
textLength="47.1518" font-size="1.6933" lengthAdjust="spacingAndGlyphs"
text-anchor="middle" opacity="0">PinHeader_1x39_P1.00mm_Vertical_SMD_Pin1Left</text>
<g class="stroked-text"><desc>PinHeader_1x39_P1.00mm_Vertical_SMD_Pin1Left</desc>
<path d="M0.4135 20.6043
L0.4135 19.3343
" />
<path d="M0.4135 19.3343
L0.8973 19.3343
" />
<path d="M0.8973 19.3343
L1.0183 19.3947
" />
<path d="M1.0183 19.3947
L1.0787 19.4552
" />
<path d="M1.0787 19.4552
L1.1392 19.5762
" />
<path d="M1.1392 19.5762
L1.1392 19.7576
" />
<path d="M1.1392 19.7576
L1.0787 19.8786
" />
<path d="M1.0787 19.8786
L1.0183 19.9390
" />
<path d="M1.0183 19.9390
L0.8973 19.9995
" />
<path d="M0.8973 19.9995
L0.4135 19.9995
" />
<path d="M1.6835 20.6043
L1.6835 19.7576
" />
<path d="M1.6835 19.3343
L1.6230 19.3947
" />
<path d="M1.6230 19.3947
L1.6835 19.4552
" />
<path d="M1.6835 19.4552
L1.7440 19.3947
" />
<path d="M1.7440 19.3947
L1.6835 19.3343
" />
<path d="M1.6835 19.3343
L1.6835 19.4552
" />
<path d="M2.2883 19.7576
L2.2883 20.6043
" />
<path d="M2.2883 19.8786
L2.3487 19.8181
" />
<path d="M2.3487 19.8181
L2.4697 19.7576
" />
<path d="M2.4697 19.7576
L2.6511 19.7576
" />
<path d="M2.6511 19.7576
L2.7721 19.8181
" />
<path d="M2.7721 19.8181
L2.8326 19.9390
" />
<path d="M2.8326 19.9390
L2.8326 20.6043
" />
<path d="M3.4373 20.6043
L3.4373 19.3343
" />
<path d="M3.4373 19.9390
L4.1630 19.9390
" />
<path d="M4.1630 20.6043
L4.1630 19.3343
" />
<path d="M5.2516 20.5438
L5.1307 20.6043
" />
<path d="M5.1307 20.6043
L4.8887 20.6043
" />
<path d="M4.8887 20.6043
L4.7678 20.5438
" />
<path d="M4.7678 20.5438
L4.7073 20.4228
" />
<path d="M4.7073 20.4228
L4.7073 19.9390
" />
<path d="M4.7073 19.9390
L4.7678 19.8181
" />
<path d="M4.7678 19.8181
L4.8887 19.7576
" />
<path d="M4.8887 19.7576
L5.1307 19.7576
" />
<path d="M5.1307 19.7576
L5.2516 19.8181
" />
<path d="M5.2516 19.8181
L5.3121 19.9390
" />
<path d="M5.3121 19.9390
L5.3121 20.0600
" />
<path d="M5.3121 20.0600
L4.7073 20.1809
" />
<path d="M6.4006 20.6043
L6.4006 19.9390
" />
<path d="M6.4006 19.9390
L6.3402 19.8181
" />
<path d="M6.3402 19.8181
L6.2192 19.7576
" />
<path d="M6.2192 19.7576
L5.9773 19.7576
" />
<path d="M5.9773 19.7576
L5.8564 19.8181
" />
<path d="M6.4006 20.5438
L6.2797 20.6043
" />
<path d="M6.2797 20.6043
L5.9773 20.6043
" />
<path d="M5.9773 20.6043
L5.8564 20.5438
" />
<path d="M5.8564 20.5438
L5.7959 20.4228
" />
<path d="M5.7959 20.4228
L5.7959 20.3019
" />
<path d="M5.7959 20.3019
L5.8564 20.1809
" />
<path d="M5.8564 20.1809
L5.9773 20.1205
" />
<path d="M5.9773 20.1205
L6.2797 20.1205
" />
<path d="M6.2797 20.1205
L6.4006 20.0600
" />
<path d="M7.5497 20.6043
L7.5497 19.3343
" />
<path d="M7.5497 20.5438
L7.4287 20.6043
" />
<path d="M7.4287 20.6043
L7.1868 20.6043
" />
<path d="M7.1868 20.6043
L7.0659 20.5438
" />
<path d="M7.0659 20.5438
L7.0054 20.4833
" />
<path d="M7.0054 20.4833
L6.9449 20.3624
" />
<path d="M6.9449 20.3624
L6.9449 19.9995
" />
<path d="M6.9449 19.9995
L7.0054 19.8786
" />
<path d="M7.0054 19.8786
L7.0659 19.8181
" />
<path d="M7.0659 19.8181
L7.1868 19.7576
" />
<path d="M7.1868 19.7576
L7.4287 19.7576
" />
<path d="M7.4287 19.7576
L7.5497 19.8181
" />
<path d="M8.6383 20.5438
L8.5173 20.6043
" />
<path d="M8.5173 20.6043
L8.2754 20.6043
" />
<path d="M8.2754 20.6043
L8.1545 20.5438
" />
<path d="M8.1545 20.5438
L8.0940 20.4228
" />
<path d="M8.0940 20.4228
L8.0940 19.9390
" />
<path d="M8.0940 19.9390
L8.1545 19.8181
" />
<path d="M8.1545 19.8181
L8.2754 19.7576
" />
<path d="M8.2754 19.7576
L8.5173 19.7576
" />
<path d="M8.5173 19.7576
L8.6383 19.8181
" />
<path d="M8.6383 19.8181
L8.6987 19.9390
" />
<path d="M8.6987 19.9390
L8.6987 20.0600
" />
<path d="M8.6987 20.0600
L8.0940 20.1809
" />
<path d="M9.2430 20.6043
L9.2430 19.7576
" />
<path d="M9.2430 19.9995
L9.3035 19.8786
" />
<path d="M9.3035 19.8786
L9.3640 19.8181
" />
<path d="M9.3640 19.8181
L9.4849 19.7576
" />
<path d="M9.4849 19.7576
L9.6059 19.7576
" />
<path d="M9.7268 20.7252
L10.6945 20.7252
" />
<path d="M11.6621 20.6043
L10.9364 20.6043
" />
<path d="M11.2992 20.6043
L11.2992 19.3343
" />
<path d="M11.2992 19.3343
L11.1783 19.5157
" />
<path d="M11.1783 19.5157
L11.0573 19.6367
" />
<path d="M11.0573 19.6367
L10.9364 19.6971
" />
<path d="M12.0854 20.6043
L12.7506 19.7576
" />
<path d="M12.0854 19.7576
L12.7506 20.6043
" />
<path d="M13.1135 19.3343
L13.8997 19.3343
" />
<path d="M13.8997 19.3343
L13.4764 19.8181
" />
<path d="M13.4764 19.8181
L13.6578 19.8181
" />
<path d="M13.6578 19.8181
L13.7787 19.8786
" />
<path d="M13.7787 19.8786
L13.8392 19.9390
" />
<path d="M13.8392 19.9390
L13.8997 20.0600
" />
<path d="M13.8997 20.0600
L13.8997 20.3624
" />
<path d="M13.8997 20.3624
L13.8392 20.4833
" />
<path d="M13.8392 20.4833
L13.7787 20.5438
" />
<path d="M13.7787 20.5438
L13.6578 20.6043
" />
<path d="M13.6578 20.6043
L13.2949 20.6043
" />
<path d="M13.2949 20.6043
L13.1740 20.5438
" />
<path d="M13.1740 20.5438
L13.1135 20.4833
" />
<path d="M14.5045 20.6043
L14.7464 20.6043
" />
<path d="M14.7464 20.6043
L14.8673 20.5438
" />
<path d="M14.8673 20.5438
L14.9278 20.4833
" />
<path d="M14.9278 20.4833
L15.0487 20.3019
" />
<path d="M15.0487 20.3019
L15.1092 20.0600
" />
<path d="M15.1092 20.0600
L15.1092 19.5762
" />
<path d="M15.1092 19.5762
L15.0487 19.4552
" />
<path d="M15.0487 19.4552
L14.9883 19.3947
" />
<path d="M14.9883 19.3947
L14.8673 19.3343
" />
<path d="M14.8673 19.3343
L14.6254 19.3343
" />
<path d="M14.6254 19.3343
L14.5045 19.3947
" />
<path d="M14.5045 19.3947
L14.4440 19.4552
" />
<path d="M14.4440 19.4552
L14.3835 19.5762
" />
<path d="M14.3835 19.5762
L14.3835 19.8786
" />
<path d="M14.3835 19.8786
L14.4440 19.9995
" />
<path d="M14.4440 19.9995
L14.5045 20.0600
" />
<path d="M14.5045 20.0600
L14.6254 20.1205
" />
<path d="M14.6254 20.1205
L14.8673 20.1205
" />
<path d="M14.8673 20.1205
L14.9883 20.0600
" />
<path d="M14.9883 20.0600
L15.0487 19.9995
" />
<path d="M15.0487 19.9995
L15.1092 19.8786
" />
<path d="M15.3511 20.7252
L16.3187 20.7252
" />
<path d="M16.6211 20.6043
L16.6211 19.3343
" />
<path d="M16.6211 19.3343
L17.1049 19.3343
" />
<path d="M17.1049 19.3343
L17.2259 19.3947
" />
<path d="M17.2259 19.3947
L17.2864 19.4552
" />
<path d="M17.2864 19.4552
L17.3468 19.5762
" />
<path d="M17.3468 19.5762
L17.3468 19.7576
" />
<path d="M17.3468 19.7576
L17.2864 19.8786
" />
<path d="M17.2864 19.8786
L17.2259 19.9390
" />
<path d="M17.2259 19.9390
L17.1049 19.9995
" />
<path d="M17.1049 19.9995
L16.6211 19.9995
" />
<path d="M18.5564 20.6043
L17.8306 20.6043
" />
<path d="M18.1935 20.6043
L18.1935 19.3343
" />
<path d="M18.1935 19.3343
L18.0726 19.5157
" />
<path d="M18.0726 19.5157
L17.9516 19.6367
" />
<path d="M17.9516 19.6367
L17.8306 19.6971
" />
<path d="M19.1006 20.4833
L19.1611 20.5438
" />
<path d="M19.1611 20.5438
L19.1006 20.6043
" />
<path d="M19.1006 20.6043
L19.0402 20.5438
" />
<path d="M19.0402 20.5438
L19.1006 20.4833
" />
<path d="M19.1006 20.4833
L19.1006 20.6043
" />
<path d="M19.9473 19.3343
L20.0683 19.3343
" />
<path d="M20.0683 19.3343
L20.1892 19.3947
" />
<path d="M20.1892 19.3947
L20.2497 19.4552
" />
<path d="M20.2497 19.4552
L20.3102 19.5762
" />
<path d="M20.3102 19.5762
L20.3706 19.8181
" />
<path d="M20.3706 19.8181
L20.3706 20.1205
" />
<path d="M20.3706 20.1205
L20.3102 20.3624
" />
<path d="M20.3102 20.3624
L20.2497 20.4833
" />
<path d="M20.2497 20.4833
L20.1892 20.5438
" />
<path d="M20.1892 20.5438
L20.0683 20.6043
" />
<path d="M20.0683 20.6043
L19.9473 20.6043
" />
<path d="M19.9473 20.6043
L19.8264 20.5438
" />
<path d="M19.8264 20.5438
L19.7659 20.4833
" />
<path d="M19.7659 20.4833
L19.7054 20.3624
" />
<path d="M19.7054 20.3624
L19.6449 20.1205
" />
<path d="M19.6449 20.1205
L19.6449 19.8181
" />
<path d="M19.6449 19.8181
L19.7054 19.5762
" />
<path d="M19.7054 19.5762
L19.7659 19.4552
" />
<path d="M19.7659 19.4552
L19.8264 19.3947
" />
<path d="M19.8264 19.3947
L19.9473 19.3343
" />
<path d="M21.1568 19.3343
L21.2778 19.3343
" />
<path d="M21.2778 19.3343
L21.3987 19.3947
" />
<path d="M21.3987 19.3947
L21.4592 19.4552
" />
<path d="M21.4592 19.4552
L21.5197 19.5762
" />
<path d="M21.5197 19.5762
L21.5802 19.8181
" />
<path d="M21.5802 19.8181
L21.5802 20.1205
" />
<path d="M21.5802 20.1205
L21.5197 20.3624
" />
<path d="M21.5197 20.3624
L21.4592 20.4833
" />
<path d="M21.4592 20.4833
L21.3987 20.5438
" />
<path d="M21.3987 20.5438
L21.2778 20.6043
" />
<path d="M21.2778 20.6043
L21.1568 20.6043
" />
<path d="M21.1568 20.6043
L21.0359 20.5438
" />
<path d="M21.0359 20.5438
L20.9754 20.4833
" />
<path d="M20.9754 20.4833
L20.9149 20.3624
" />
<path d="M20.9149 20.3624
L20.8545 20.1205
" />
<path d="M20.8545 20.1205
L20.8545 19.8181
" />
<path d="M20.8545 19.8181
L20.9149 19.5762
" />
<path d="M20.9149 19.5762
L20.9754 19.4552
" />
<path d="M20.9754 19.4552
L21.0359 19.3947
" />
<path d="M21.0359 19.3947
L21.1568 19.3343
" />
<path d="M22.1245 20.6043
L22.1245 19.7576
" />
<path d="M22.1245 19.8786
L22.1849 19.8181
" />
<path d="M22.1849 19.8181
L22.3059 19.7576
" />
<path d="M22.3059 19.7576
L22.4873 19.7576
" />
<path d="M22.4873 19.7576
L22.6083 19.8181
" />
<path d="M22.6083 19.8181
L22.6687 19.9390
" />
<path d="M22.6687 19.9390
L22.6687 20.6043
" />
<path d="M22.6687 19.9390
L22.7292 19.8181
" />
<path d="M22.7292 19.8181
L22.8502 19.7576
" />
<path d="M22.8502 19.7576
L23.0316 19.7576
" />
<path d="M23.0316 19.7576
L23.1526 19.8181
" />
<path d="M23.1526 19.8181
L23.2130 19.9390
" />
<path d="M23.2130 19.9390
L23.2130 20.6043
" />
<path d="M23.8178 20.6043
L23.8178 19.7576
" />
<path d="M23.8178 19.8786
L23.8783 19.8181
" />
<path d="M23.8783 19.8181
L23.9992 19.7576
" />
<path d="M23.9992 19.7576
L24.1806 19.7576
" />
<path d="M24.1806 19.7576
L24.3016 19.8181
" />
<path d="M24.3016 19.8181
L24.3621 19.9390
" />
<path d="M24.3621 19.9390
L24.3621 20.6043
" />
<path d="M24.3621 19.9390
L24.4226 19.8181
" />
<path d="M24.4226 19.8181
L24.5435 19.7576
" />
<path d="M24.5435 19.7576
L24.7249 19.7576
" />
<path d="M24.7249 19.7576
L24.8459 19.8181
" />
<path d="M24.8459 19.8181
L24.9064 19.9390
" />
<path d="M24.9064 19.9390
L24.9064 20.6043
" />
<path d="M25.2087 20.7252
L26.1764 20.7252
" />
<path d="M26.2973 19.3343
L26.7206 20.6043
" />
<path d="M26.7206 20.6043
L27.1440 19.3343
" />
<path d="M28.0511 20.5438
L27.9302 20.6043
" />
<path d="M27.9302 20.6043
L27.6883 20.6043
" />
<path d="M27.6883 20.6043
L27.5673 20.5438
" />
<path d="M27.5673 20.5438
L27.5068 20.4228
" />
<path d="M27.5068 20.4228
L27.5068 19.9390
" />
<path d="M27.5068 19.9390
L27.5673 19.8181
" />
<path d="M27.5673 19.8181
L27.6883 19.7576
" />
<path d="M27.6883 19.7576
L27.9302 19.7576
" />
<path d="M27.9302 19.7576
L28.0511 19.8181
" />
<path d="M28.0511 19.8181
L28.1116 19.9390
" />
<path d="M28.1116 19.9390
L28.1116 20.0600
" />
<path d="M28.1116 20.0600
L27.5068 20.1809
" />
<path d="M28.6559 20.6043
L28.6559 19.7576
" />
<path d="M28.6559 19.9995
L28.7164 19.8786
" />
<path d="M28.7164 19.8786
L28.7768 19.8181
" />
<path d="M28.7768 19.8181
L28.8978 19.7576
" />
<path d="M28.8978 19.7576
L29.0187 19.7576
" />
<path d="M29.2606 19.7576
L29.7445 19.7576
" />
<path d="M29.4421 19.3343
L29.4421 20.4228
" />
<path d="M29.4421 20.4228
L29.5026 20.5438
" />
<path d="M29.5026 20.5438
L29.6235 20.6043
" />
<path d="M29.6235 20.6043
L29.7445 20.6043
" />
<path d="M30.1678 20.6043
L30.1678 19.7576
" />
<path d="M30.1678 19.3343
L30.1073 19.3947
" />
<path d="M30.1073 19.3947
L30.1678 19.4552
" />
<path d="M30.1678 19.4552
L30.2283 19.3947
" />
<path d="M30.2283 19.3947
L30.1678 19.3343
" />
<path d="M30.1678 19.3343
L30.1678 19.4552
" />
<path d="M31.3168 20.5438
L31.1959 20.6043
" />
<path d="M31.1959 20.6043
L30.9540 20.6043
" />
<path d="M30.9540 20.6043
L30.8330 20.5438
" />
<path d="M30.8330 20.5438
L30.7726 20.4833
" />
<path d="M30.7726 20.4833
L30.7121 20.3624
" />
<path d="M30.7121 20.3624
L30.7121 19.9995
" />
<path d="M30.7121 19.9995
L30.7726 19.8786
" />
<path d="M30.7726 19.8786
L30.8330 19.8181
" />
<path d="M30.8330 19.8181
L30.9540 19.7576
" />
<path d="M30.9540 19.7576
L31.1959 19.7576
" />
<path d="M31.1959 19.7576
L31.3168 19.8181
" />
<path d="M32.4054 20.6043
L32.4054 19.9390
" />
<path d="M32.4054 19.9390
L32.3449 19.8181
" />
<path d="M32.3449 19.8181
L32.2240 19.7576
" />
<path d="M32.2240 19.7576
L31.9821 19.7576
" />
<path d="M31.9821 19.7576
L31.8611 19.8181
" />
<path d="M32.4054 20.5438
L32.2845 20.6043
" />
<path d="M32.2845 20.6043
L31.9821 20.6043
" />
<path d="M31.9821 20.6043
L31.8611 20.5438
" />
<path d="M31.8611 20.5438
L31.8006 20.4228
" />
<path d="M31.8006 20.4228
L31.8006 20.3019
" />
<path d="M31.8006 20.3019
L31.8611 20.1809
" />
<path d="M31.8611 20.1809
L31.9821 20.1205
" />
<path d="M31.9821 20.1205
L32.2845 20.1205
" />
<path d="M32.2845 20.1205
L32.4054 20.0600
" />
<path d="M33.1916 20.6043
L33.0706 20.5438
" />
<path d="M33.0706 20.5438
L33.0102 20.4228
" />
<path d="M33.0102 20.4228
L33.0102 19.3343
" />
<path d="M33.3730 20.7252
L34.3406 20.7252
" />
<path d="M34.5826 20.5438
L34.7640 20.6043
" />
<path d="M34.7640 20.6043
L35.0664 20.6043
" />
<path d="M35.0664 20.6043
L35.1873 20.5438
" />
<path d="M35.1873 20.5438
L35.2478 20.4833
" />
<path d="M35.2478 20.4833
L35.3083 20.3624
" />
<path d="M35.3083 20.3624
L35.3083 20.2414
" />
<path d="M35.3083 20.2414
L35.2478 20.1205
" />
<path d="M35.2478 20.1205
L35.1873 20.0600
" />
<path d="M35.1873 20.0600
L35.0664 19.9995
" />
<path d="M35.0664 19.9995
L34.8245 19.9390
" />
<path d="M34.8245 19.9390
L34.7035 19.8786
" />
<path d="M34.7035 19.8786
L34.6430 19.8181
" />
<path d="M34.6430 19.8181
L34.5826 19.6971
" />
<path d="M34.5826 19.6971
L34.5826 19.5762
" />
<path d="M34.5826 19.5762
L34.6430 19.4552
" />
<path d="M34.6430 19.4552
L34.7035 19.3947
" />
<path d="M34.7035 19.3947
L34.8245 19.3343
" />
<path d="M34.8245 19.3343
L35.1268 19.3343
" />
<path d="M35.1268 19.3343
L35.3083 19.3947
" />
<path d="M35.8526 20.6043
L35.8526 19.3343
" />
<path d="M35.8526 19.3343
L36.2759 20.2414
" />
<path d="M36.2759 20.2414
L36.6992 19.3343
" />
<path d="M36.6992 19.3343
L36.6992 20.6043
" />
<path d="M37.3040 20.6043
L37.3040 19.3343
" />
<path d="M37.3040 19.3343
L37.6064 19.3343
" />
<path d="M37.6064 19.3343
L37.7878 19.3947
" />
<path d="M37.7878 19.3947
L37.9087 19.5157
" />
<path d="M37.9087 19.5157
L37.9692 19.6367
" />
<path d="M37.9692 19.6367
L38.0297 19.8786
" />
<path d="M38.0297 19.8786
L38.0297 20.0600
" />
<path d="M38.0297 20.0600
L37.9692 20.3019
" />
<path d="M37.9692 20.3019
L37.9087 20.4228
" />
<path d="M37.9087 20.4228
L37.7878 20.5438
" />
<path d="M37.7878 20.5438
L37.6064 20.6043
" />
<path d="M37.6064 20.6043
L37.3040 20.6043
" />
<path d="M38.2716 20.7252
L39.2392 20.7252
" />
<path d="M39.5416 20.6043
L39.5416 19.3343
" />
<path d="M39.5416 19.3343
L40.0254 19.3343
" />
<path d="M40.0254 19.3343
L40.1464 19.3947
" />
<path d="M40.1464 19.3947
L40.2068 19.4552
" />
<path d="M40.2068 19.4552
L40.2673 19.5762
" />
<path d="M40.2673 19.5762
L40.2673 19.7576
" />
<path d="M40.2673 19.7576
L40.2068 19.8786
" />
<path d="M40.2068 19.8786
L40.1464 19.9390
" />
<path d="M40.1464 19.9390
L40.0254 19.9995
" />
<path d="M40.0254 19.9995
L39.5416 19.9995
" />
<path d="M40.8116 20.6043
L40.8116 19.7576
" />
<path d="M40.8116 19.3343
L40.7511 19.3947
" />
<path d="M40.7511 19.3947
L40.8116 19.4552
" />
<path d="M40.8116 19.4552
L40.8721 19.3947
" />
<path d="M40.8721 19.3947
L40.8116 19.3343
" />
<path d="M40.8116 19.3343
L40.8116 19.4552
" />
<path d="M41.4164 19.7576
L41.4164 20.6043
" />
<path d="M41.4164 19.8786
L41.4768 19.8181
" />
<path d="M41.4768 19.8181
L41.5978 19.7576
" />
<path d="M41.5978 19.7576
L41.7792 19.7576
" />
<path d="M41.7792 19.7576
L41.9002 19.8181
" />
<path d="M41.9002 19.8181
L41.9606 19.9390
" />
<path d="M41.9606 19.9390
L41.9606 20.6043
" />
<path d="M43.2306 20.6043
L42.5049 20.6043
" />
<path d="M42.8678 20.6043
L42.8678 19.3343
" />
<path d="M42.8678 19.3343
L42.7468 19.5157
" />
<path d="M42.7468 19.5157
L42.6259 19.6367
" />
<path d="M42.6259 19.6367
L42.5049 19.6971
" />
<path d="M44.3797 20.6043
L43.7749 20.6043
" />
<path d="M43.7749 20.6043
L43.7749 19.3343
" />
<path d="M45.2868 20.5438
L45.1659 20.6043
" />
<path d="M45.1659 20.6043
L44.9240 20.6043
" />
<path d="M44.9240 20.6043
L44.8030 20.5438
" />
<path d="M44.8030 20.5438
L44.7426 20.4228
" />
<path d="M44.7426 20.4228
L44.7426 19.9390
" />
<path d="M44.7426 19.9390
L44.8030 19.8181
" />
<path d="M44.8030 19.8181
L44.9240 19.7576
" />
<path d="M44.9240 19.7576
L45.1659 19.7576
" />
<path d="M45.1659 19.7576
L45.2868 19.8181
" />
<path d="M45.2868 19.8181
L45.3473 19.9390
" />
<path d="M45.3473 19.9390
L45.3473 20.0600
" />
<path d="M45.3473 20.0600
L44.7426 20.1809
" />
<path d="M45.7102 19.7576
L46.1940 19.7576
" />
<path d="M45.8916 20.6043
L45.8916 19.5157
" />
<path d="M45.8916 19.5157
L45.9521 19.3947
" />
<path d="M45.9521 19.3947
L46.0730 19.3343
" />
<path d="M46.0730 19.3343
L46.1940 19.3343
" />
<path d="M46.4359 19.7576
L46.9197 19.7576
" />
<path d="M46.6173 19.3343
L46.6173 20.4228
" />
<path d="M46.6173 20.4228
L46.6778 20.5438
" />
<path d="M46.6778 20.5438
L46.7987 20.6043
" />
<path d="M46.7987 20.6043
L46.9197 20.6043
" />
</g></g>
<g style="fill:none; 
stroke:#AFAFAF; stroke-width:0.1500; stroke-opacity:1; 
stroke-linecap:round; stroke-linejoin:round;">
<g transform="rotate(-90.000000 23.5759 20.0250)">
<text x="23.5759" y="20.5250"
textLength="4.5357" font-size="1.3333" lengthAdjust="spacingAndGlyphs"
text-anchor="middle" opacity="0">REF**</text>
</g>
<g class="stroked-text"><desc>REF**</desc>
<path d="M24.0307 21.3583
L23.5545 21.6917
" />
<path d="M24.0307 21.9298
L23.0307 21.9298
" />
<path d="M23.0307 21.9298
L23.0307 21.5488
" />
<path d="M23.0307 21.5488
L23.0783 21.4536
" />
<path d="M23.0783 21.4536
L23.1259 21.4060
" />
<path d="M23.1259 21.4060
L23.2212 21.3583
" />
<path d="M23.2212 21.3583
L23.3640 21.3583
" />
<path d="M23.3640 21.3583
L23.4593 21.4060
" />
<path d="M23.4593 21.4060
L23.5069 21.4536
" />
<path d="M23.5069 21.4536
L23.5545 21.5488
" />
<path d="M23.5545 21.5488
L23.5545 21.9298
" />
<path d="M23.5069 20.9298
L23.5069 20.5964
" />
<path d="M24.0307 20.4536
L24.0307 20.9298
" />
<path d="M24.0307 20.9298
L23.0307 20.9298
" />
<path d="M23.0307 20.9298
L23.0307 20.4536
" />
<path d="M23.5069 19.6917
L23.5069 20.0250
" />
<path d="M24.0307 20.0250
L23.0307 20.0250
" />
<path d="M23.0307 20.0250
L23.0307 19.5488
" />
<path d="M23.0307 19.0250
L23.2688 19.0250
" />
<path d="M23.1736 19.2631
L23.2688 19.0250
" />
<path d="M23.2688 19.0250
L23.1736 18.7869
" />
<path d="M23.4593 19.1679
L23.2688 19.0250
" />
<path d="M23.2688 19.0250
L23.4593 18.8821
" />
<path d="M23.0307 18.2631
L23.2688 18.2631
" />
<path d="M23.1736 18.5012
L23.2688 18.2631
" />
<path d="M23.2688 18.2631
L23.1736 18.0250
" />
<path d="M23.4593 18.4060
L23.2688 18.2631
" />
<path d="M23.2688 18.2631
L23.4593 18.1202
" />
</g></g>
<g style="fill:none; 
stroke:#AFAFAF; stroke-width:0.1000; stroke-opacity:1; 
stroke-linecap:round; stroke-linejoin:round;">
<path d="M22.3259 0.8750
L22.3259 1.1750
" />
<path d="M22.3259 1.1750
L22.9409 1.1750
" />
<path d="M22.3259 2.8750
L22.3259 3.1750
" />
<path d="M22.3259 3.1750
L22.9409 3.1750
" />
<path d="M22.3259 4.8750
L22.3259 5.1750
" />
<path d="M22.3259 5.1750
L22.9409 5.1750
" />
<path d="M22.3259 6.8750
L22.3259 7.1750
" />
<path d="M22.3259 7.1750
L22.9409 7.1750
" />
<path d="M22.3259 8.8750
L22.3259 9.1750
" />
<path d="M22.3259 9.1750
L22.9409 9.1750
" />
<path d="M22.3259 10.8750
L22.3259 11.1750
" />
<path d="M22.3259 11.1750
L22.9409 11.1750
" />
<path d="M22.3259 12.8750
L22.3259 13.1750
" />
<path d="M22.3259 13.1750
L22.9409 13.1750
" />
<path d="M22.3259 14.8750
L22.3259 15.1750
" />
<path d="M22.3259 15.1750
L22.9409 15.1750
" />
<path d="M22.3259 16.8750
L22.3259 17.1750
" />
<path d="M22.3259 17.1750
L22.9409 17.1750
" />
<path d="M22.3259 18.8750
L22.3259 19.1750
" />
<path d="M22.3259 19.1750
L22.9409 19.1750
" />
<path d="M22.3259 20.8750
L22.3259 21.1750
" />
<path d="M22.3259 21.1750
L22.9409 21.1750
" />
<path d="M22.3259 22.8750
L22.3259 23.1750
" />
<path d="M22.3259 23.1750
L22.9409 23.1750
" />
<path d="M22.3259 24.8750
L22.3259 25.1750
" />
<path d="M22.3259 25.1750
L22.9409 25.1750
" />
<path d="M22.3259 26.8750
L22.3259 27.1750
" />
<path d="M22.3259 27.1750
L22.9409 27.1750
" />
<path d="M22.3259 28.8750
L22.3259 29.1750
" />
<path d="M22.3259 29.1750
L22.9409 29.1750
" />
<path d="M22.3259 30.8750
L22.3259 31.1750
" />
<path d="M22.3259 31.1750
L22.9409 31.1750
" />
<path d="M22.3259 32.8750
L22.3259 33.1750
" />
<path d="M22.3259 33.1750
L22.9409 33.1750
" />
<path d="M22.3259 34.8750
L22.3259 35.1750
" />
<path d="M22.3259 35.1750
L22.9409 35.1750
" />
<path d="M22.3259 36.8750
L22.3259 37.1750
" />
<path d="M22.3259 37.1750
L22.9409 37.1750
" />
<path d="M22.3259 38.8750
L22.3259 39.1750
" />
<path d="M22.3259 39.1750
L22.9409 39.1750
" />
<path d="M22.9409 0.8750
L22.3259 0.8750
" />
<path d="M22.9409 0.8750
L23.2909 0.5250
" />
<path d="M22.9409 2.8750
L22.3259 2.8750
" />
<path d="M22.9409 4.8750
L22.3259 4.8750
" />
<path d="M22.9409 6.8750
L22.3259 6.8750
" />
<path d="M22.9409 8.8750
L22.3259 8.8750
" />
<path d="M22.9409 10.8750
L22.3259 10.8750
" />
<path d="M22.9409 12.8750
L22.3259 12.8750
" />
<path d="M22.9409 14.8750
L22.3259 14.8750
" />
<path d="M22.9409 16.8750
L22.3259 16.8750
" />
<path d="M22.9409 18.8750
L22.3259 18.8750
" />
<path d="M22.9409 20.8750
L22.3259 20.8750
" />
<path d="M22.9409 22.8750
L22.3259 22.8750
" />
<path d="M22.9409 24.8750
L22.3259 24.8750
" />
<path d="M22.9409 26.8750
L22.3259 26.8750
" />
<path d="M22.9409 28.8750
L22.3259 28.8750
" />
<path d="M22.9409 30.8750
L22.3259 30.8750
" />
<path d="M22.9409 32.8750
L22.3259 32.8750
" />
<path d="M22.9409 34.8750
L22.3259 34.8750
" />
<path d="M22.9409 36.8750
L22.3259 36.8750
" />
<path d="M22.9409 38.8750
L22.3259 38.8750
" />
<path d="M22.9409 39.5250
L22.9409 0.8750
" />
<path d="M23.2909 0.5250
L24.2109 0.5250
" />
<path d="M24.2109 0.5250
L24.2109 39.5250
" />
<path d="M24.2109 1.8750
L24.8259 1.8750
" />
<path d="M24.2109 3.8750
L24.8259 3.8750
" />
<path d="M24.2109 5.8750
L24.8259 5.8750
" />
<path d="M24.2109 7.8750
L24.8259 7.8750
" />
<path d="M24.2109 9.8750
L24.8259 9.8750
" />
<path d="M24.2109 11.8750
L24.8259 11.8750
" />
<path d="M24.2109 13.8750
L24.8259 13.8750
" />
<path d="M24.2109 15.8750
L24.8259 15.8750
" />
<path d="M24.2109 17.8750
L24.8259 17.8750
" />
<path d="M24.2109 19.8750
L24.8259 19.8750
" />
<path d="M24.2109 21.8750
L24.8259 21.8750
" />
<path d="M24.2109 23.8750
L24.8259 23.8750
" />
<path d="M24.2109 25.8750
L24.8259 25.8750
" />
<path d="M24.2109 27.8750
L24.8259 27.8750
" />
<path d="M24.2109 29.8750
L24.8259 29.8750
" />
<path d="M24.2109 31.8750
L24.8259 31.8750
" />
<path d="M24.2109 33.8750
L24.8259 33.8750
" />
<path d="M24.2109 35.8750
L24.8259 35.8750
" />
<path d="M24.2109 37.8750
L24.8259 37.8750
" />
<path d="M24.2109 39.5250
L22.9409 39.5250
" />
<path d="M24.8259 1.8750
L24.8259 2.1750
" />
<path d="M24.8259 2.1750
L24.2109 2.1750
" />
<path d="M24.8259 3.8750
L24.8259 4.1750
" />
<path d="M24.8259 4.1750
L24.2109 4.1750
" />
<path d="M24.8259 5.8750
L24.8259 6.1750
" />
<path d="M24.8259 6.1750
L24.2109 6.1750
" />
<path d="M24.8259 7.8750
L24.8259 8.1750
" />
<path d="M24.8259 8.1750
L24.2109 8.1750
" />
<path d="M24.8259 9.8750
L24.8259 10.1750
" />
<path d="M24.8259 10.1750
L24.2109 10.1750
" />
<path d="M24.8259 11.8750
L24.8259 12.1750
" />
<path d="M24.8259 12.1750
L24.2109 12.1750
" />
<path d="M24.8259 13.8750
L24.8259 14.1750
" />
<path d="M24.8259 14.1750
L24.2109 14.1750
" />
<path d="M24.8259 15.8750
L24.8259 16.1750
" />
<path d="M24.8259 16.1750
L24.2109 16.1750
" />
<path d="M24.8259 17.8750
L24.8259 18.1750
" />
<path d="M24.8259 18.1750
L24.2109 18.1750
" />
<path d="M24.8259 19.8750
L24.8259 20.1750
" />
<path d="M24.8259 20.1750
L24.2109 20.1750
" />
<path d="M24.8259 21.8750
L24.8259 22.1750
" />
<path d="M24.8259 22.1750
L24.2109 22.1750
" />
<path d="M24.8259 23.8750
L24.8259 24.1750
" />
<path d="M24.8259 24.1750
L24.2109 24.1750
" />
<path d="M24.8259 25.8750
L24.8259 26.1750
" />
<path d="M24.8259 26.1750
L24.2109 26.1750
" />
<path d="M24.8259 27.8750
L24.8259 28.1750
" />
<path d="M24.8259 28.1750
L24.2109 28.1750
" />
<path d="M24.8259 29.8750
L24.8259 30.1750
" />
<path d="M24.8259 30.1750
L24.2109 30.1750
" />
<path d="M24.8259 31.8750
L24.8259 32.1750
" />
<path d="M24.8259 32.1750
L24.2109 32.1750
" />
<path d="M24.8259 33.8750
L24.8259 34.1750
" />
<path d="M24.8259 34.1750
L24.2109 34.1750
" />
<path d="M24.8259 35.8750
L24.8259 36.1750
" />
<path d="M24.8259 36.1750
L24.2109 36.1750
" />
<path d="M24.8259 37.8750
L24.8259 38.1750
" />
<path d="M24.8259 38.1750
L24.2109 38.1750
" />
</g> 
</svg>
