<?xml version="1.0" standalone="no"?>
 <!DOCTYPE svg PUBLIC "-//W3C//DTD SVG 1.1//EN" 
 "http://www.w3.org/Graphics/SVG/1.1/DTD/svg11.dtd"> 
<svg
  xmlns:svg="http://www.w3.org/2000/svg"
  xmlns="http://www.w3.org/2000/svg"
  xmlns:xlink="http://www.w3.org/1999/xlink"
  version="1.1"
  width="31.8262mm" height="8.8392mm" viewBox="0.0000 0.0000 31.8262 8.8392">
<title>SVG Image created as working-brd.svg date 2024/04/23 03:43:59 </title>
  <desc>Image generated by PCBNEW </desc>
<g style="fill:#000000; fill-opacity:1.0000;stroke:#000000; stroke-opacity:1.0000;
stroke-linecap:round; stroke-linejoin:round;"
 transform="translate(0 0) scale(1 1)">
</g>
<g style="fill:#FFFFFF; fill-opacity:1.0000; stroke:none;">
<circle cx="15.9256" cy="3.0250" r="0.4000" /> 
</g>
<g style="fill:#FFFFFF; fill-opacity:1.0000; stroke:none;">
<circle cx="18.4656" cy="3.0250" r="0.4000" /> 
</g>
<g style="fill:#FFFFFF; fill-opacity:1.0000; stroke:none;">
<circle cx="21.0056" cy="3.0250" r="0.4000" /> 
</g>
<g style="fill:#FFFFFF; fill-opacity:1.0000; stroke:none;">
<circle cx="23.5456" cy="3.0250" r="0.4000" /> 
<path style="fill:#02FFEE; fill-opacity:0.4000; stroke:none;fill-rule:evenodd;"
d="M 16.6756,3.7750
15.1756,3.7750
15.1756,2.2750
16.6756,2.2750
Z" /> 
</g>
<g style="fill:#02FFEE; fill-opacity:0.4000; stroke:none;">
<circle cx="18.4656" cy="3.0250" r="0.7500" /> 
</g>
<g style="fill:#02FFEE; fill-opacity:0.4000; stroke:none;">
<circle cx="21.0056" cy="3.0250" r="0.7500" /> 
</g>
<g style="fill:#02FFEE; fill-opacity:0.4000; stroke:none;">
<circle cx="23.5456" cy="3.0250" r="0.7500" /> 
</g>
<g style="fill:#FFFFFF; fill-opacity:1.0000; stroke:none;">
<circle cx="15.9256" cy="3.0250" r="0.4000" /> 
</g>
<g style="fill:#FFFFFF; fill-opacity:1.0000; stroke:none;">
<circle cx="18.4656" cy="3.0250" r="0.4000" /> 
</g>
<g style="fill:#FFFFFF; fill-opacity:1.0000; stroke:none;">
<circle cx="21.0056" cy="3.0250" r="0.4000" /> 
</g>
<g style="fill:#FFFFFF; fill-opacity:1.0000; stroke:none;">
<circle cx="23.5456" cy="3.0250" r="0.4000" /> 
</g>
<g style="fill:#FFFFFF; fill-opacity:1.0000; stroke:none;">
<circle cx="15.9256" cy="3.0250" r="0.4000" /> 
</g>
<g style="fill:#FFFFFF; fill-opacity:1.0000; stroke:none;">
<circle cx="18.4656" cy="3.0250" r="0.4000" /> 
</g>
<g style="fill:#FFFFFF; fill-opacity:1.0000; stroke:none;">
<circle cx="21.0056" cy="3.0250" r="0.4000" /> 
</g>
<g style="fill:#FFFFFF; fill-opacity:1.0000; stroke:none;">
<circle cx="23.5456" cy="3.0250" r="0.4000" /> 
<path style="fill:#D864FF; fill-opacity:0.4000; stroke:none;fill-rule:evenodd;"
d="M 16.6756,3.7750
15.1756,3.7750
15.1756,2.2750
16.6756,2.2750
Z" /> 
</g>
<g style="fill:#D864FF; fill-opacity:0.4000; stroke:none;">
<circle cx="18.4656" cy="3.0250" r="0.7500" /> 
</g>
<g style="fill:#D864FF; fill-opacity:0.4000; stroke:none;">
<circle cx="21.0056" cy="3.0250" r="0.7500" /> 
</g>
<g style="fill:#D864FF; fill-opacity:0.4000; stroke:none;">
<circle cx="23.5456" cy="3.0250" r="0.7500" /> 
</g>
<g style="fill:none; 
stroke:#F2EDA1; stroke-width:0.1588; stroke-opacity:1; 
stroke-linecap:round; stroke-linejoin:round;">
<text x="15.9256" y="3.6600"
textLength="5.6651" font-size="1.6933" lengthAdjust="spacingAndGlyphs"
text-anchor="middle" opacity="0">REF**</text>
<g class="stroked-text"><desc>REF**</desc>
<path d="M14.2323 3.6043
L13.8090 2.9995
" />
<path d="M13.5066 3.6043
L13.5066 2.3343
" />
<path d="M13.5066 2.3343
L13.9904 2.3343
" />
<path d="M13.9904 2.3343
L14.1114 2.3947
" />
<path d="M14.1114 2.3947
L14.1718 2.4552
" />
<path d="M14.1718 2.4552
L14.2323 2.5762
" />
<path d="M14.2323 2.5762
L14.2323 2.7576
" />
<path d="M14.2323 2.7576
L14.1718 2.8786
" />
<path d="M14.1718 2.8786
L14.1114 2.9390
" />
<path d="M14.1114 2.9390
L13.9904 2.9995
" />
<path d="M13.9904 2.9995
L13.5066 2.9995
" />
<path d="M14.7766 2.9390
L15.1999 2.9390
" />
<path d="M15.3814 3.6043
L14.7766 3.6043
" />
<path d="M14.7766 3.6043
L14.7766 2.3343
" />
<path d="M14.7766 2.3343
L15.3814 2.3343
" />
<path d="M16.3490 2.9390
L15.9256 2.9390
" />
<path d="M15.9256 3.6043
L15.9256 2.3343
" />
<path d="M15.9256 2.3343
L16.5304 2.3343
" />
<path d="M17.1956 2.3343
L17.1956 2.6367
" />
<path d="M16.8933 2.5157
L17.1956 2.6367
" />
<path d="M17.1956 2.6367
L17.4980 2.5157
" />
<path d="M17.0142 2.8786
L17.1956 2.6367
" />
<path d="M17.1956 2.6367
L17.3771 2.8786
" />
<path d="M18.1633 2.3343
L18.1633 2.6367
" />
<path d="M17.8609 2.5157
L18.1633 2.6367
" />
<path d="M18.1633 2.6367
L18.4656 2.5157
" />
<path d="M17.9818 2.8786
L18.1633 2.6367
" />
<path d="M18.1633 2.6367
L18.3447 2.8786
" />
</g></g>
<g style="fill:none; 
stroke:#F2EDA1; stroke-width:0.1200; stroke-opacity:1; 
stroke-linecap:round; stroke-linejoin:round;">
<path d="M11.6856 0.1750
L12.9556 0.1750
" />
<path d="M11.6856 1.4450
L11.6856 0.1750
" />
<path d="M11.9356 0.4250
L27.5356 0.4250
" />
<path d="M11.9356 8.4250
L11.9356 0.4250
" />
<path d="M27.5356 0.4250
L27.5356 8.4250
" />
<path d="M27.5356 8.4250
L11.9356 8.4250
" />
</g>
<g style="fill:#FFFFFF; fill-opacity:1.0000; stroke:none;">
<circle cx="15.9256" cy="3.0250" r="0.4000" /> 
</g>
<g style="fill:#FFFFFF; fill-opacity:1.0000; stroke:none;">
<circle cx="18.4656" cy="3.0250" r="0.4000" /> 
</g>
<g style="fill:#FFFFFF; fill-opacity:1.0000; stroke:none;">
<circle cx="21.0056" cy="3.0250" r="0.4000" /> 
</g>
<g style="fill:#FFFFFF; fill-opacity:1.0000; stroke:none;">
<circle cx="23.5456" cy="3.0250" r="0.4000" /> 
</g>
<g style="fill:none; 
stroke:#FF26E2; stroke-width:0.0500; stroke-opacity:1; 
stroke-linecap:round; stroke-linejoin:round;">
<path d="M11.5356 0.0250
L27.9356 0.0250
" />
<path d="M11.5356 8.8250
L11.5356 0.0250
" />
<path d="M27.9356 0.0250
L27.9356 8.8250
" />
<path d="M27.9356 8.8250
L11.5356 8.8250
" />
</g>
<g style="fill:none; 
stroke:#AFAFAF; stroke-width:0.1588; stroke-opacity:1; 
stroke-linecap:round; stroke-linejoin:round;">
<text x="15.9256" y="3.6600"
textLength="31.8513" font-size="1.6933" lengthAdjust="spacingAndGlyphs"
text-anchor="middle" opacity="0">ASAIR_AM2302_P2.54mm_Vertical</text>
<g class="stroked-text"><desc>ASAIR_AM2302_P2.54mm_Vertical</desc>
<path d="M0.3530 3.2414
L0.9578 3.2414
" />
<path d="M0.2321 3.6043
L0.6554 2.3343
" />
<path d="M0.6554 2.3343
L1.0787 3.6043
" />
<path d="M1.4416 3.5438
L1.6230 3.6043
" />
<path d="M1.6230 3.6043
L1.9254 3.6043
" />
<path d="M1.9254 3.6043
L2.0464 3.5438
" />
<path d="M2.0464 3.5438
L2.1068 3.4833
" />
<path d="M2.1068 3.4833
L2.1673 3.3624
" />
<path d="M2.1673 3.3624
L2.1673 3.2414
" />
<path d="M2.1673 3.2414
L2.1068 3.1205
" />
<path d="M2.1068 3.1205
L2.0464 3.0600
" />
<path d="M2.0464 3.0600
L1.9254 2.9995
" />
<path d="M1.9254 2.9995
L1.6835 2.9390
" />
<path d="M1.6835 2.9390
L1.5626 2.8786
" />
<path d="M1.5626 2.8786
L1.5021 2.8181
" />
<path d="M1.5021 2.8181
L1.4416 2.6971
" />
<path d="M1.4416 2.6971
L1.4416 2.5762
" />
<path d="M1.4416 2.5762
L1.5021 2.4552
" />
<path d="M1.5021 2.4552
L1.5626 2.3947
" />
<path d="M1.5626 2.3947
L1.6835 2.3343
" />
<path d="M1.6835 2.3343
L1.9859 2.3343
" />
<path d="M1.9859 2.3343
L2.1673 2.3947
" />
<path d="M2.6511 3.2414
L3.2559 3.2414
" />
<path d="M2.5302 3.6043
L2.9535 2.3343
" />
<path d="M2.9535 2.3343
L3.3768 3.6043
" />
<path d="M3.8002 3.6043
L3.8002 2.3343
" />
<path d="M5.1306 3.6043
L4.7073 2.9995
" />
<path d="M4.4049 3.6043
L4.4049 2.3343
" />
<path d="M4.4049 2.3343
L4.8887 2.3343
" />
<path d="M4.8887 2.3343
L5.0097 2.3947
" />
<path d="M5.0097 2.3947
L5.0702 2.4552
" />
<path d="M5.0702 2.4552
L5.1306 2.5762
" />
<path d="M5.1306 2.5762
L5.1306 2.7576
" />
<path d="M5.1306 2.7576
L5.0702 2.8786
" />
<path d="M5.0702 2.8786
L5.0097 2.9390
" />
<path d="M5.0097 2.9390
L4.8887 2.9995
" />
<path d="M4.8887 2.9995
L4.4049 2.9995
" />
<path d="M5.3726 3.7252
L6.3402 3.7252
" />
<path d="M6.5821 3.2414
L7.1868 3.2414
" />
<path d="M6.4611 3.6043
L6.8845 2.3343
" />
<path d="M6.8845 2.3343
L7.3078 3.6043
" />
<path d="M7.7311 3.6043
L7.7311 2.3343
" />
<path d="M7.7311 2.3343
L8.1545 3.2414
" />
<path d="M8.1545 3.2414
L8.5778 2.3343
" />
<path d="M8.5778 2.3343
L8.5778 3.6043
" />
<path d="M9.1221 2.4552
L9.1826 2.3947
" />
<path d="M9.1826 2.3947
L9.3035 2.3343
" />
<path d="M9.3035 2.3343
L9.6059 2.3343
" />
<path d="M9.6059 2.3343
L9.7268 2.3947
" />
<path d="M9.7268 2.3947
L9.7873 2.4552
" />
<path d="M9.7873 2.4552
L9.8478 2.5762
" />
<path d="M9.8478 2.5762
L9.8478 2.6971
" />
<path d="M9.8478 2.6971
L9.7873 2.8786
" />
<path d="M9.7873 2.8786
L9.0616 3.6043
" />
<path d="M9.0616 3.6043
L9.8478 3.6043
" />
<path d="M10.2711 2.3343
L11.0573 2.3343
" />
<path d="M11.0573 2.3343
L10.6340 2.8181
" />
<path d="M10.6340 2.8181
L10.8154 2.8181
" />
<path d="M10.8154 2.8181
L10.9364 2.8786
" />
<path d="M10.9364 2.8786
L10.9968 2.9390
" />
<path d="M10.9968 2.9390
L11.0573 3.0600
" />
<path d="M11.0573 3.0600
L11.0573 3.3624
" />
<path d="M11.0573 3.3624
L10.9968 3.4833
" />
<path d="M10.9968 3.4833
L10.9364 3.5438
" />
<path d="M10.9364 3.5438
L10.8154 3.6043
" />
<path d="M10.8154 3.6043
L10.4526 3.6043
" />
<path d="M10.4526 3.6043
L10.3316 3.5438
" />
<path d="M10.3316 3.5438
L10.2711 3.4833
" />
<path d="M11.8435 2.3343
L11.9645 2.3343
" />
<path d="M11.9645 2.3343
L12.0854 2.3947
" />
<path d="M12.0854 2.3947
L12.1459 2.4552
" />
<path d="M12.1459 2.4552
L12.2064 2.5762
" />
<path d="M12.2064 2.5762
L12.2668 2.8181
" />
<path d="M12.2668 2.8181
L12.2668 3.1205
" />
<path d="M12.2668 3.1205
L12.2064 3.3624
" />
<path d="M12.2064 3.3624
L12.1459 3.4833
" />
<path d="M12.1459 3.4833
L12.0854 3.5438
" />
<path d="M12.0854 3.5438
L11.9645 3.6043
" />
<path d="M11.9645 3.6043
L11.8435 3.6043
" />
<path d="M11.8435 3.6043
L11.7226 3.5438
" />
<path d="M11.7226 3.5438
L11.6621 3.4833
" />
<path d="M11.6621 3.4833
L11.6016 3.3624
" />
<path d="M11.6016 3.3624
L11.5411 3.1205
" />
<path d="M11.5411 3.1205
L11.5411 2.8181
" />
<path d="M11.5411 2.8181
L11.6016 2.5762
" />
<path d="M11.6016 2.5762
L11.6621 2.4552
" />
<path d="M11.6621 2.4552
L11.7226 2.3947
" />
<path d="M11.7226 2.3947
L11.8435 2.3343
" />
<path d="M12.7506 2.4552
L12.8111 2.3947
" />
<path d="M12.8111 2.3947
L12.9321 2.3343
" />
<path d="M12.9321 2.3343
L13.2345 2.3343
" />
<path d="M13.2345 2.3343
L13.3554 2.3947
" />
<path d="M13.3554 2.3947
L13.4159 2.4552
" />
<path d="M13.4159 2.4552
L13.4764 2.5762
" />
<path d="M13.4764 2.5762
L13.4764 2.6971
" />
<path d="M13.4764 2.6971
L13.4159 2.8786
" />
<path d="M13.4159 2.8786
L12.6902 3.6043
" />
<path d="M12.6902 3.6043
L13.4764 3.6043
" />
<path d="M13.7183 3.7252
L14.6859 3.7252
" />
<path d="M14.9883 3.6043
L14.9883 2.3343
" />
<path d="M14.9883 2.3343
L15.4721 2.3343
" />
<path d="M15.4721 2.3343
L15.5930 2.3947
" />
<path d="M15.5930 2.3947
L15.6535 2.4552
" />
<path d="M15.6535 2.4552
L15.7140 2.5762
" />
<path d="M15.7140 2.5762
L15.7140 2.7576
" />
<path d="M15.7140 2.7576
L15.6535 2.8786
" />
<path d="M15.6535 2.8786
L15.5930 2.9390
" />
<path d="M15.5930 2.9390
L15.4721 2.9995
" />
<path d="M15.4721 2.9995
L14.9883 2.9995
" />
<path d="M16.1978 2.4552
L16.2583 2.3947
" />
<path d="M16.2583 2.3947
L16.3792 2.3343
" />
<path d="M16.3792 2.3343
L16.6816 2.3343
" />
<path d="M16.6816 2.3343
L16.8026 2.3947
" />
<path d="M16.8026 2.3947
L16.8630 2.4552
" />
<path d="M16.8630 2.4552
L16.9235 2.5762
" />
<path d="M16.9235 2.5762
L16.9235 2.6971
" />
<path d="M16.9235 2.6971
L16.8630 2.8786
" />
<path d="M16.8630 2.8786
L16.1373 3.6043
" />
<path d="M16.1373 3.6043
L16.9235 3.6043
" />
<path d="M17.4678 3.4833
L17.5283 3.5438
" />
<path d="M17.5283 3.5438
L17.4678 3.6043
" />
<path d="M17.4678 3.6043
L17.4073 3.5438
" />
<path d="M17.4073 3.5438
L17.4678 3.4833
" />
<path d="M17.4678 3.4833
L17.4678 3.6043
" />
<path d="M18.6773 2.3343
L18.0726 2.3343
" />
<path d="M18.0726 2.3343
L18.0121 2.9390
" />
<path d="M18.0121 2.9390
L18.0726 2.8786
" />
<path d="M18.0726 2.8786
L18.1935 2.8181
" />
<path d="M18.1935 2.8181
L18.4959 2.8181
" />
<path d="M18.4959 2.8181
L18.6168 2.8786
" />
<path d="M18.6168 2.8786
L18.6773 2.9390
" />
<path d="M18.6773 2.9390
L18.7378 3.0600
" />
<path d="M18.7378 3.0600
L18.7378 3.3624
" />
<path d="M18.7378 3.3624
L18.6773 3.4833
" />
<path d="M18.6773 3.4833
L18.6168 3.5438
" />
<path d="M18.6168 3.5438
L18.4959 3.6043
" />
<path d="M18.4959 3.6043
L18.1935 3.6043
" />
<path d="M18.1935 3.6043
L18.0726 3.5438
" />
<path d="M18.0726 3.5438
L18.0121 3.4833
" />
<path d="M19.8264 2.7576
L19.8264 3.6043
" />
<path d="M19.5240 2.2738
L19.2216 3.1809
" />
<path d="M19.2216 3.1809
L20.0078 3.1809
" />
<path d="M20.4916 3.6043
L20.4916 2.7576
" />
<path d="M20.4916 2.8786
L20.5521 2.8181
" />
<path d="M20.5521 2.8181
L20.6730 2.7576
" />
<path d="M20.6730 2.7576
L20.8545 2.7576
" />
<path d="M20.8545 2.7576
L20.9754 2.8181
" />
<path d="M20.9754 2.8181
L21.0359 2.9390
" />
<path d="M21.0359 2.9390
L21.0359 3.6043
" />
<path d="M21.0359 2.9390
L21.0964 2.8181
" />
<path d="M21.0964 2.8181
L21.2173 2.7576
" />
<path d="M21.2173 2.7576
L21.3987 2.7576
" />
<path d="M21.3987 2.7576
L21.5197 2.8181
" />
<path d="M21.5197 2.8181
L21.5802 2.9390
" />
<path d="M21.5802 2.9390
L21.5802 3.6043
" />
<path d="M22.1849 3.6043
L22.1849 2.7576
" />
<path d="M22.1849 2.8786
L22.2454 2.8181
" />
<path d="M22.2454 2.8181
L22.3664 2.7576
" />
<path d="M22.3664 2.7576
L22.5478 2.7576
" />
<path d="M22.5478 2.7576
L22.6687 2.8181
" />
<path d="M22.6687 2.8181
L22.7292 2.9390
" />
<path d="M22.7292 2.9390
L22.7292 3.6043
" />
<path d="M22.7292 2.9390
L22.7897 2.8181
" />
<path d="M22.7897 2.8181
L22.9106 2.7576
" />
<path d="M22.9106 2.7576
L23.0921 2.7576
" />
<path d="M23.0921 2.7576
L23.2130 2.8181
" />
<path d="M23.2130 2.8181
L23.2735 2.9390
" />
<path d="M23.2735 2.9390
L23.2735 3.6043
" />
<path d="M23.5759 3.7252
L24.5435 3.7252
" />
<path d="M24.6645 2.3343
L25.0878 3.6043
" />
<path d="M25.0878 3.6043
L25.5111 2.3343
" />
<path d="M26.4183 3.5438
L26.2973 3.6043
" />
<path d="M26.2973 3.6043
L26.0554 3.6043
" />
<path d="M26.0554 3.6043
L25.9345 3.5438
" />
<path d="M25.9345 3.5438
L25.8740 3.4228
" />
<path d="M25.8740 3.4228
L25.8740 2.9390
" />
<path d="M25.8740 2.9390
L25.9345 2.8181
" />
<path d="M25.9345 2.8181
L26.0554 2.7576
" />
<path d="M26.0554 2.7576
L26.2973 2.7576
" />
<path d="M26.2973 2.7576
L26.4183 2.8181
" />
<path d="M26.4183 2.8181
L26.4787 2.9390
" />
<path d="M26.4787 2.9390
L26.4787 3.0600
" />
<path d="M26.4787 3.0600
L25.8740 3.1809
" />
<path d="M27.0230 3.6043
L27.0230 2.7576
" />
<path d="M27.0230 2.9995
L27.0835 2.8786
" />
<path d="M27.0835 2.8786
L27.1440 2.8181
" />
<path d="M27.1440 2.8181
L27.2649 2.7576
" />
<path d="M27.2649 2.7576
L27.3859 2.7576
" />
<path d="M27.6278 2.7576
L28.1116 2.7576
" />
<path d="M27.8092 2.3343
L27.8092 3.4228
" />
<path d="M27.8092 3.4228
L27.8697 3.5438
" />
<path d="M27.8697 3.5438
L27.9906 3.6043
" />
<path d="M27.9906 3.6043
L28.1116 3.6043
" />
<path d="M28.5349 3.6043
L28.5349 2.7576
" />
<path d="M28.5349 2.3343
L28.4745 2.3947
" />
<path d="M28.4745 2.3947
L28.5349 2.4552
" />
<path d="M28.5349 2.4552
L28.5954 2.3947
" />
<path d="M28.5954 2.3947
L28.5349 2.3343
" />
<path d="M28.5349 2.3343
L28.5349 2.4552
" />
<path d="M29.6840 3.5438
L29.5630 3.6043
" />
<path d="M29.5630 3.6043
L29.3211 3.6043
" />
<path d="M29.3211 3.6043
L29.2002 3.5438
" />
<path d="M29.2002 3.5438
L29.1397 3.4833
" />
<path d="M29.1397 3.4833
L29.0792 3.3624
" />
<path d="M29.0792 3.3624
L29.0792 2.9995
" />
<path d="M29.0792 2.9995
L29.1397 2.8786
" />
<path d="M29.1397 2.8786
L29.2002 2.8181
" />
<path d="M29.2002 2.8181
L29.3211 2.7576
" />
<path d="M29.3211 2.7576
L29.5630 2.7576
" />
<path d="M29.5630 2.7576
L29.6840 2.8181
" />
<path d="M30.7726 3.6043
L30.7726 2.9390
" />
<path d="M30.7726 2.9390
L30.7121 2.8181
" />
<path d="M30.7121 2.8181
L30.5911 2.7576
" />
<path d="M30.5911 2.7576
L30.3492 2.7576
" />
<path d="M30.3492 2.7576
L30.2283 2.8181
" />
<path d="M30.7726 3.5438
L30.6516 3.6043
" />
<path d="M30.6516 3.6043
L30.3492 3.6043
" />
<path d="M30.3492 3.6043
L30.2283 3.5438
" />
<path d="M30.2283 3.5438
L30.1678 3.4228
" />
<path d="M30.1678 3.4228
L30.1678 3.3019
" />
<path d="M30.1678 3.3019
L30.2283 3.1809
" />
<path d="M30.2283 3.1809
L30.3492 3.1205
" />
<path d="M30.3492 3.1205
L30.6516 3.1205
" />
<path d="M30.6516 3.1205
L30.7726 3.0600
" />
<path d="M31.5587 3.6043
L31.4378 3.5438
" />
<path d="M31.4378 3.5438
L31.3773 3.4228
" />
<path d="M31.3773 3.4228
L31.3773 2.3343
" />
</g></g>
<g style="fill:none; 
stroke:#AFAFAF; stroke-width:0.1500; stroke-opacity:1; 
stroke-linecap:round; stroke-linejoin:round;">
<text x="19.7256" y="4.9250"
textLength="4.5357" font-size="1.3333" lengthAdjust="spacingAndGlyphs"
text-anchor="middle" opacity="0">REF**</text>
<g class="stroked-text"><desc>REF**</desc>
<path d="M18.3923 4.8798
L18.0590 4.4036
" />
<path d="M17.8209 4.8798
L17.8209 3.8798
" />
<path d="M17.8209 3.8798
L18.2018 3.8798
" />
<path d="M18.2018 3.8798
L18.2971 3.9274
" />
<path d="M18.2971 3.9274
L18.3447 3.9751
" />
<path d="M18.3447 3.9751
L18.3923 4.0703
" />
<path d="M18.3923 4.0703
L18.3923 4.2132
" />
<path d="M18.3923 4.2132
L18.3447 4.3084
" />
<path d="M18.3447 4.3084
L18.2971 4.3560
" />
<path d="M18.2971 4.3560
L18.2018 4.4036
" />
<path d="M18.2018 4.4036
L17.8209 4.4036
" />
<path d="M18.8209 4.3560
L19.1542 4.3560
" />
<path d="M19.2971 4.8798
L18.8209 4.8798
" />
<path d="M18.8209 4.8798
L18.8209 3.8798
" />
<path d="M18.8209 3.8798
L19.2971 3.8798
" />
<path d="M20.0590 4.3560
L19.7256 4.3560
" />
<path d="M19.7256 4.8798
L19.7256 3.8798
" />
<path d="M19.7256 3.8798
L20.2018 3.8798
" />
<path d="M20.7256 3.8798
L20.7256 4.1179
" />
<path d="M20.4876 4.0227
L20.7256 4.1179
" />
<path d="M20.7256 4.1179
L20.9637 4.0227
" />
<path d="M20.5828 4.3084
L20.7256 4.1179
" />
<path d="M20.7256 4.1179
L20.8685 4.3084
" />
<path d="M21.4876 3.8798
L21.4876 4.1179
" />
<path d="M21.2495 4.0227
L21.4876 4.1179
" />
<path d="M21.4876 4.1179
L21.7256 4.0227
" />
<path d="M21.3447 4.3084
L21.4876 4.1179
" />
<path d="M21.4876 4.1179
L21.6304 4.3084
" />
</g></g>
<g style="fill:none; 
stroke:#AFAFAF; stroke-width:0.1000; stroke-opacity:1; 
stroke-linecap:round; stroke-linejoin:round;">
<path d="M12.0356 8.3250
L12.0356 1.5250
" />
<path d="M12.0356 8.3250
L27.4356 8.3250
" />
<path d="M13.0356 0.5250
L12.0356 1.5250
" />
<path d="M13.0356 0.5250
L27.4356 0.5250
" />
<path d="M27.4356 0.5250
L27.4356 8.3250
" />
</g> 
</svg>
