<?xml version="1.0" standalone="no"?>
 <!DOCTYPE svg PUBLIC "-//W3C//DTD SVG 1.1//EN" 
 "http://www.w3.org/Graphics/SVG/1.1/DTD/svg11.dtd"> 
<svg
  xmlns:svg="http://www.w3.org/2000/svg"
  xmlns="http://www.w3.org/2000/svg"
  xmlns:xlink="http://www.w3.org/1999/xlink"
  version="1.1"
  width="10.0076mm" height="2.7686mm" viewBox="0.0000 0.0000 10.0076 2.7686">
<title>SVG Image created as working-brd.svg date 2024/04/22 07:07:28 </title>
  <desc>Image generated by PCBNEW </desc>
<g style="fill:#000000; fill-opacity:1.0000;stroke:#000000; stroke-opacity:1.0000;
stroke-linecap:round; stroke-linejoin:round;"
 transform="translate(0 0) scale(1 1)">
<path style="fill:#C83434; fill-opacity:1.0000; stroke:none;fill-rule:evenodd;"
d="M 3.9347,0.6750
3.9404,0.6463
3.9567,0.6220
3.9810,0.6057
4.0097,0.6000
4.4897,0.6000
4.5184,0.6057
4.5427,0.6220
4.5590,0.6463
4.5647,0.6750
4.5647,0.8250
4.5590,0.8537
4.5427,0.8780
4.5184,0.8943
4.4897,0.9000
4.0097,0.9000
3.9810,0.8943
3.9567,0.8780
3.9404,0.8537
3.9347,0.8250
Z" /> 
<path style="fill:#C83434; fill-opacity:1.0000; stroke:none;fill-rule:evenodd;"
d="M 3.9347,1.1750
3.9404,1.1463
3.9567,1.1220
3.9810,1.1057
4.0097,1.1000
4.4897,1.1000
4.5184,1.1057
4.5427,1.1220
4.5590,1.1463
4.5647,1.1750
4.5647,1.3250
4.5590,1.3537
4.5427,1.3780
4.5184,1.3943
4.4897,1.4000
4.0097,1.4000
3.9810,1.3943
3.9567,1.3780
3.9404,1.3537
3.9347,1.3250
Z" /> 
<path style="fill:#C83434; fill-opacity:1.0000; stroke:none;fill-rule:evenodd;"
d="M 3.9347,1.6750
3.9404,1.6463
3.9567,1.6220
3.9810,1.6057
4.0097,1.6000
4.4897,1.6000
4.5184,1.6057
4.5427,1.6220
4.5590,1.6463
4.5647,1.6750
4.5647,1.8250
4.5590,1.8537
4.5427,1.8780
4.5184,1.8943
4.4897,1.9000
4.0097,1.9000
3.9810,1.8943
3.9567,1.8780
3.9404,1.8537
3.9347,1.8250
Z" /> 
<path style="fill:#C83434; fill-opacity:1.0000; stroke:none;fill-rule:evenodd;"
d="M 3.9347,2.1750
3.9404,2.1463
3.9567,2.1220
3.9810,2.1057
4.0097,2.1000
4.4897,2.1000
4.5184,2.1057
4.5427,2.1220
4.5590,2.1463
4.5647,2.1750
4.5647,2.3250
4.5590,2.3537
4.5427,2.3780
4.5184,2.3943
4.4897,2.4000
4.0097,2.4000
3.9810,2.3943
3.9567,2.3780
3.9404,2.3537
3.9347,2.3250
Z" /> 
<path style="fill:#C83434; fill-opacity:1.0000; stroke:none;fill-rule:evenodd;"
d="M 5.4547,2.1750
5.4604,2.1463
5.4767,2.1220
5.5010,2.1057
5.5297,2.1000
6.0097,2.1000
6.0384,2.1057
6.0627,2.1220
6.0790,2.1463
6.0847,2.1750
6.0847,2.3250
6.0790,2.3537
6.0627,2.3780
6.0384,2.3943
6.0097,2.4000
5.5297,2.4000
5.5010,2.3943
5.4767,2.3780
5.4604,2.3537
5.4547,2.3250
Z" /> 
<path style="fill:#C83434; fill-opacity:1.0000; stroke:none;fill-rule:evenodd;"
d="M 5.4547,1.6750
5.4604,1.6463
5.4767,1.6220
5.5010,1.6057
5.5297,1.6000
6.0097,1.6000
6.0384,1.6057
6.0627,1.6220
6.0790,1.6463
6.0847,1.6750
6.0847,1.8250
6.0790,1.8537
6.0627,1.8780
6.0384,1.8943
6.0097,1.9000
5.5297,1.9000
5.5010,1.8943
5.4767,1.8780
5.4604,1.8537
5.4547,1.8250
Z" /> 
<path style="fill:#C83434; fill-opacity:1.0000; stroke:none;fill-rule:evenodd;"
d="M 5.4547,1.1750
5.4604,1.1463
5.4767,1.1220
5.5010,1.1057
5.5297,1.1000
6.0097,1.1000
6.0384,1.1057
6.0627,1.1220
6.0790,1.1463
6.0847,1.1750
6.0847,1.3250
6.0790,1.3537
6.0627,1.3780
6.0384,1.3943
6.0097,1.4000
5.5297,1.4000
5.5010,1.3943
5.4767,1.3780
5.4604,1.3537
5.4547,1.3250
Z" /> 
<path style="fill:#C83434; fill-opacity:1.0000; stroke:none;fill-rule:evenodd;"
d="M 5.4547,0.6750
5.4604,0.6463
5.4767,0.6220
5.5010,0.6057
5.5297,0.6000
6.0097,0.6000
6.0384,0.6057
6.0627,0.6220
6.0790,0.6463
6.0847,0.6750
6.0847,0.8250
6.0790,0.8537
6.0627,0.8780
6.0384,0.8943
6.0097,0.9000
5.5297,0.9000
5.5010,0.8943
5.4767,0.8780
5.4604,0.8537
5.4547,0.8250
Z" /> 
<path style="fill:#C83434; fill-opacity:1.0000; stroke:none;fill-rule:evenodd;"
d="M 4.7847,0.8625
4.7933,0.8194
4.8176,0.7829
4.8541,0.7586
4.8972,0.7500
5.1222,0.7500
5.1652,0.7586
5.2017,0.7829
5.2261,0.8194
5.2347,0.8625
5.2347,2.1375
5.2261,2.1806
5.2017,2.2170
5.1652,2.2414
5.1222,2.2500
4.8972,2.2500
4.8541,2.2414
4.8176,2.2170
4.7933,2.1806
4.7847,2.1375
Z" /> 
<path style="fill:#D864FF; fill-opacity:0.4000; stroke:none;fill-rule:evenodd;"
d="M 3.9347,0.6750
3.9404,0.6463
3.9567,0.6220
3.9810,0.6057
4.0097,0.6000
4.4897,0.6000
4.5184,0.6057
4.5427,0.6220
4.5590,0.6463
4.5647,0.6750
4.5647,0.8250
4.5590,0.8537
4.5427,0.8780
4.5184,0.8943
4.4897,0.9000
4.0097,0.9000
3.9810,0.8943
3.9567,0.8780
3.9404,0.8537
3.9347,0.8250
Z" /> 
<path style="fill:#D864FF; fill-opacity:0.4000; stroke:none;fill-rule:evenodd;"
d="M 3.9347,1.1750
3.9404,1.1463
3.9567,1.1220
3.9810,1.1057
4.0097,1.1000
4.4897,1.1000
4.5184,1.1057
4.5427,1.1220
4.5590,1.1463
4.5647,1.1750
4.5647,1.3250
4.5590,1.3537
4.5427,1.3780
4.5184,1.3943
4.4897,1.4000
4.0097,1.4000
3.9810,1.3943
3.9567,1.3780
3.9404,1.3537
3.9347,1.3250
Z" /> 
<path style="fill:#D864FF; fill-opacity:0.4000; stroke:none;fill-rule:evenodd;"
d="M 3.9347,1.6750
3.9404,1.6463
3.9567,1.6220
3.9810,1.6057
4.0097,1.6000
4.4897,1.6000
4.5184,1.6057
4.5427,1.6220
4.5590,1.6463
4.5647,1.6750
4.5647,1.8250
4.5590,1.8537
4.5427,1.8780
4.5184,1.8943
4.4897,1.9000
4.0097,1.9000
3.9810,1.8943
3.9567,1.8780
3.9404,1.8537
3.9347,1.8250
Z" /> 
<path style="fill:#D864FF; fill-opacity:0.4000; stroke:none;fill-rule:evenodd;"
d="M 3.9347,2.1750
3.9404,2.1463
3.9567,2.1220
3.9810,2.1057
4.0097,2.1000
4.4897,2.1000
4.5184,2.1057
4.5427,2.1220
4.5590,2.1463
4.5647,2.1750
4.5647,2.3250
4.5590,2.3537
4.5427,2.3780
4.5184,2.3943
4.4897,2.4000
4.0097,2.4000
3.9810,2.3943
3.9567,2.3780
3.9404,2.3537
3.9347,2.3250
Z" /> 
<path style="fill:#D864FF; fill-opacity:0.4000; stroke:none;fill-rule:evenodd;"
d="M 5.4547,2.1750
5.4604,2.1463
5.4767,2.1220
5.5010,2.1057
5.5297,2.1000
6.0097,2.1000
6.0384,2.1057
6.0627,2.1220
6.0790,2.1463
6.0847,2.1750
6.0847,2.3250
6.0790,2.3537
6.0627,2.3780
6.0384,2.3943
6.0097,2.4000
5.5297,2.4000
5.5010,2.3943
5.4767,2.3780
5.4604,2.3537
5.4547,2.3250
Z" /> 
<path style="fill:#D864FF; fill-opacity:0.4000; stroke:none;fill-rule:evenodd;"
d="M 5.4547,1.6750
5.4604,1.6463
5.4767,1.6220
5.5010,1.6057
5.5297,1.6000
6.0097,1.6000
6.0384,1.6057
6.0627,1.6220
6.0790,1.6463
6.0847,1.6750
6.0847,1.8250
6.0790,1.8537
6.0627,1.8780
6.0384,1.8943
6.0097,1.9000
5.5297,1.9000
5.5010,1.8943
5.4767,1.8780
5.4604,1.8537
5.4547,1.8250
Z" /> 
<path style="fill:#D864FF; fill-opacity:0.4000; stroke:none;fill-rule:evenodd;"
d="M 5.4547,1.1750
5.4604,1.1463
5.4767,1.1220
5.5010,1.1057
5.5297,1.1000
6.0097,1.1000
6.0384,1.1057
6.0627,1.1220
6.0790,1.1463
6.0847,1.1750
6.0847,1.3250
6.0790,1.3537
6.0627,1.3780
6.0384,1.3943
6.0097,1.4000
5.5297,1.4000
5.5010,1.3943
5.4767,1.3780
5.4604,1.3537
5.4547,1.3250
Z" /> 
<path style="fill:#D864FF; fill-opacity:0.4000; stroke:none;fill-rule:evenodd;"
d="M 5.4547,0.6750
5.4604,0.6463
5.4767,0.6220
5.5010,0.6057
5.5297,0.6000
6.0097,0.6000
6.0384,0.6057
6.0627,0.6220
6.0790,0.6463
6.0847,0.6750
6.0847,0.8250
6.0790,0.8537
6.0627,0.8780
6.0384,0.8943
6.0097,0.9000
5.5297,0.9000
5.5010,0.8943
5.4767,0.8780
5.4604,0.8537
5.4547,0.8250
Z" /> 
<path style="fill:#D864FF; fill-opacity:0.4000; stroke:none;fill-rule:evenodd;"
d="M 4.7847,0.8625
4.7933,0.8194
4.8176,0.7829
4.8541,0.7586
4.8972,0.7500
5.1222,0.7500
5.1652,0.7586
5.2017,0.7829
5.2261,0.8194
5.2347,0.8625
5.2347,2.1375
5.2261,2.1806
5.2017,2.2170
5.1652,2.2414
5.1222,2.2500
4.8972,2.2500
4.8541,2.2414
4.8176,2.2170
4.7933,2.1806
4.7847,2.1375
Z" /> 
<path style="fill:#B4A09A; fill-opacity:0.9000; stroke:none;fill-rule:evenodd;"
d="M 3.9347,0.6750
3.9404,0.6463
3.9567,0.6220
3.9810,0.6057
4.0097,0.6000
4.4897,0.6000
4.5184,0.6057
4.5427,0.6220
4.5590,0.6463
4.5647,0.6750
4.5647,0.8250
4.5590,0.8537
4.5427,0.8780
4.5184,0.8943
4.4897,0.9000
4.0097,0.9000
3.9810,0.8943
3.9567,0.8780
3.9404,0.8537
3.9347,0.8250
Z" /> 
<path style="fill:#B4A09A; fill-opacity:0.9000; stroke:none;fill-rule:evenodd;"
d="M 3.9347,1.1750
3.9404,1.1463
3.9567,1.1220
3.9810,1.1057
4.0097,1.1000
4.4897,1.1000
4.5184,1.1057
4.5427,1.1220
4.5590,1.1463
4.5647,1.1750
4.5647,1.3250
4.5590,1.3537
4.5427,1.3780
4.5184,1.3943
4.4897,1.4000
4.0097,1.4000
3.9810,1.3943
3.9567,1.3780
3.9404,1.3537
3.9347,1.3250
Z" /> 
<path style="fill:#B4A09A; fill-opacity:0.9000; stroke:none;fill-rule:evenodd;"
d="M 3.9347,1.6750
3.9404,1.6463
3.9567,1.6220
3.9810,1.6057
4.0097,1.6000
4.4897,1.6000
4.5184,1.6057
4.5427,1.6220
4.5590,1.6463
4.5647,1.6750
4.5647,1.8250
4.5590,1.8537
4.5427,1.8780
4.5184,1.8943
4.4897,1.9000
4.0097,1.9000
3.9810,1.8943
3.9567,1.8780
3.9404,1.8537
3.9347,1.8250
Z" /> 
<path style="fill:#B4A09A; fill-opacity:0.9000; stroke:none;fill-rule:evenodd;"
d="M 3.9347,2.1750
3.9404,2.1463
3.9567,2.1220
3.9810,2.1057
4.0097,2.1000
4.4897,2.1000
4.5184,2.1057
4.5427,2.1220
4.5590,2.1463
4.5647,2.1750
4.5647,2.3250
4.5590,2.3537
4.5427,2.3780
4.5184,2.3943
4.4897,2.4000
4.0097,2.4000
3.9810,2.3943
3.9567,2.3780
3.9404,2.3537
3.9347,2.3250
Z" /> 
<path style="fill:#B4A09A; fill-opacity:0.9000; stroke:none;fill-rule:evenodd;"
d="M 5.4547,2.1750
5.4604,2.1463
5.4767,2.1220
5.5010,2.1057
5.5297,2.1000
6.0097,2.1000
6.0384,2.1057
6.0627,2.1220
6.0790,2.1463
6.0847,2.1750
6.0847,2.3250
6.0790,2.3537
6.0627,2.3780
6.0384,2.3943
6.0097,2.4000
5.5297,2.4000
5.5010,2.3943
5.4767,2.3780
5.4604,2.3537
5.4547,2.3250
Z" /> 
<path style="fill:#B4A09A; fill-opacity:0.9000; stroke:none;fill-rule:evenodd;"
d="M 5.4547,1.6750
5.4604,1.6463
5.4767,1.6220
5.5010,1.6057
5.5297,1.6000
6.0097,1.6000
6.0384,1.6057
6.0627,1.6220
6.0790,1.6463
6.0847,1.6750
6.0847,1.8250
6.0790,1.8537
6.0627,1.8780
6.0384,1.8943
6.0097,1.9000
5.5297,1.9000
5.5010,1.8943
5.4767,1.8780
5.4604,1.8537
5.4547,1.8250
Z" /> 
<path style="fill:#B4A09A; fill-opacity:0.9000; stroke:none;fill-rule:evenodd;"
d="M 5.4547,1.1750
5.4604,1.1463
5.4767,1.1220
5.5010,1.1057
5.5297,1.1000
6.0097,1.1000
6.0384,1.1057
6.0627,1.1220
6.0790,1.1463
6.0847,1.1750
6.0847,1.3250
6.0790,1.3537
6.0627,1.3780
6.0384,1.3943
6.0097,1.4000
5.5297,1.4000
5.5010,1.3943
5.4767,1.3780
5.4604,1.3537
5.4547,1.3250
Z" /> 
<path style="fill:#B4A09A; fill-opacity:0.9000; stroke:none;fill-rule:evenodd;"
d="M 5.4547,0.6750
5.4604,0.6463
5.4767,0.6220
5.5010,0.6057
5.5297,0.6000
6.0097,0.6000
6.0384,0.6057
6.0627,0.6220
6.0790,0.6463
6.0847,0.6750
6.0847,0.8250
6.0790,0.8537
6.0627,0.8780
6.0384,0.8943
6.0097,0.9000
5.5297,0.9000
5.5010,0.8943
5.4767,0.8780
5.4604,0.8537
5.4547,0.8250
Z" /> 
<path style="fill:#B4A09A; fill-opacity:0.9000; stroke:none;fill-rule:evenodd;"
d="M 4.7847,0.8625
4.7933,0.8194
4.8176,0.7829
4.8541,0.7586
4.8972,0.7500
5.1222,0.7500
5.1652,0.7586
5.2017,0.7829
5.2261,0.8194
5.2347,0.8625
5.2347,2.1375
5.2261,2.1806
5.2017,2.2170
5.1652,2.2414
5.1222,2.2500
4.8972,2.2500
4.8541,2.2414
4.8176,2.2170
4.7933,2.1806
4.7847,2.1375
Z" /> 
</g>
<g style="fill:none; 
stroke:#F2EDA1; stroke-width:0.1588; stroke-opacity:1; 
stroke-linecap:round; stroke-linejoin:round;">
<text x="5.0097" y="2.1350"
textLength="5.6651" font-size="1.6933" lengthAdjust="spacingAndGlyphs"
text-anchor="middle" opacity="0">REF**</text>
<g class="stroked-text"><desc>REF**</desc>
<path d="M3.3164 2.0793
L2.8930 1.4745
" />
<path d="M2.5906 2.0793
L2.5906 0.8093
" />
<path d="M2.5906 0.8093
L3.0745 0.8093
" />
<path d="M3.0745 0.8093
L3.1954 0.8697
" />
<path d="M3.1954 0.8697
L3.2559 0.9302
" />
<path d="M3.2559 0.9302
L3.3164 1.0512
" />
<path d="M3.3164 1.0512
L3.3164 1.2326
" />
<path d="M3.3164 1.2326
L3.2559 1.3536
" />
<path d="M3.2559 1.3536
L3.1954 1.4140
" />
<path d="M3.1954 1.4140
L3.0745 1.4745
" />
<path d="M3.0745 1.4745
L2.5906 1.4745
" />
<path d="M3.8606 1.4140
L4.2840 1.4140
" />
<path d="M4.4654 2.0793
L3.8606 2.0793
" />
<path d="M3.8606 2.0793
L3.8606 0.8093
" />
<path d="M3.8606 0.8093
L4.4654 0.8093
" />
<path d="M5.4330 1.4140
L5.0097 1.4140
" />
<path d="M5.0097 2.0793
L5.0097 0.8093
" />
<path d="M5.0097 0.8093
L5.6145 0.8093
" />
<path d="M6.2797 0.8093
L6.2797 1.1117
" />
<path d="M5.9773 0.9907
L6.2797 1.1117
" />
<path d="M6.2797 1.1117
L6.5821 0.9907
" />
<path d="M6.0983 1.3536
L6.2797 1.1117
" />
<path d="M6.2797 1.1117
L6.4611 1.3536
" />
<path d="M7.2473 0.8093
L7.2473 1.1117
" />
<path d="M6.9449 0.9907
L7.2473 1.1117
" />
<path d="M7.2473 1.1117
L7.5497 0.9907
" />
<path d="M7.0659 1.3536
L7.2473 1.1117
" />
<path d="M7.2473 1.1117
L7.4287 1.3536
" />
</g></g>
<g style="fill:none; 
stroke:#F2EDA1; stroke-width:0.1200; stroke-opacity:1; 
stroke-linecap:round; stroke-linejoin:round;">
<path d="M4.1597 2.6600
L5.8597 2.6600
" />
<path d="M5.8597 0.3400
L4.3097 0.3400
" />
<path style="fill:#F2EDA1; fill-opacity:1.0000; 
stroke:#F2EDA1; stroke-width:0.1200; stroke-opacity:1; 
stroke-linecap:round; stroke-linejoin:round;fill-rule:evenodd;"
d="M 4.0197,0.3400
3.7397,0.3400
4.0197,0.0600
Z" /> 
</g>
<g style="fill:none; 
stroke:#FF26E2; stroke-width:0.0500; stroke-opacity:1; 
stroke-linecap:round; stroke-linejoin:round;">
<path d="M3.6897 0.2500
L3.6897 2.7500
" />
<path d="M3.6897 0.2500
L6.3297 0.2500
" />
<path d="M6.3297 2.7500
L3.6897 2.7500
" />
<path d="M6.3297 2.7500
L6.3297 0.2500
" />
</g>
<g style="fill:none; 
stroke:#AFAFAF; stroke-width:0.1588; stroke-opacity:1; 
stroke-linecap:round; stroke-linejoin:round;">
<text x="5.0097" y="2.1350"
textLength="10.0194" font-size="1.6933" lengthAdjust="spacingAndGlyphs"
text-anchor="middle" opacity="0">SOT-383F</text>
<g class="stroked-text"><desc>SOT-383F</desc>
<path d="M0.3530 2.0188
L0.5345 2.0793
" />
<path d="M0.5345 2.0793
L0.8368 2.0793
" />
<path d="M0.8368 2.0793
L0.9578 2.0188
" />
<path d="M0.9578 2.0188
L1.0183 1.9583
" />
<path d="M1.0183 1.9583
L1.0787 1.8374
" />
<path d="M1.0787 1.8374
L1.0787 1.7164
" />
<path d="M1.0787 1.7164
L1.0183 1.5955
" />
<path d="M1.0183 1.5955
L0.9578 1.5350
" />
<path d="M0.9578 1.5350
L0.8368 1.4745
" />
<path d="M0.8368 1.4745
L0.5949 1.4140
" />
<path d="M0.5949 1.4140
L0.4740 1.3536
" />
<path d="M0.4740 1.3536
L0.4135 1.2931
" />
<path d="M0.4135 1.2931
L0.3530 1.1721
" />
<path d="M0.3530 1.1721
L0.3530 1.0512
" />
<path d="M0.3530 1.0512
L0.4135 0.9302
" />
<path d="M0.4135 0.9302
L0.4740 0.8697
" />
<path d="M0.4740 0.8697
L0.5949 0.8093
" />
<path d="M0.5949 0.8093
L0.8973 0.8093
" />
<path d="M0.8973 0.8093
L1.0787 0.8697
" />
<path d="M1.8649 0.8093
L2.1068 0.8093
" />
<path d="M2.1068 0.8093
L2.2278 0.8697
" />
<path d="M2.2278 0.8697
L2.3487 0.9907
" />
<path d="M2.3487 0.9907
L2.4092 1.2326
" />
<path d="M2.4092 1.2326
L2.4092 1.6559
" />
<path d="M2.4092 1.6559
L2.3487 1.8978
" />
<path d="M2.3487 1.8978
L2.2278 2.0188
" />
<path d="M2.2278 2.0188
L2.1068 2.0793
" />
<path d="M2.1068 2.0793
L1.8649 2.0793
" />
<path d="M1.8649 2.0793
L1.7440 2.0188
" />
<path d="M1.7440 2.0188
L1.6230 1.8978
" />
<path d="M1.6230 1.8978
L1.5626 1.6559
" />
<path d="M1.5626 1.6559
L1.5626 1.2326
" />
<path d="M1.5626 1.2326
L1.6230 0.9907
" />
<path d="M1.6230 0.9907
L1.7440 0.8697
" />
<path d="M1.7440 0.8697
L1.8649 0.8093
" />
<path d="M2.7721 0.8093
L3.4978 0.8093
" />
<path d="M3.1349 2.0793
L3.1349 0.8093
" />
<path d="M3.9211 1.5955
L4.8887 1.5955
" />
<path d="M5.3726 0.8093
L6.1587 0.8093
" />
<path d="M6.1587 0.8093
L5.7354 1.2931
" />
<path d="M5.7354 1.2931
L5.9168 1.2931
" />
<path d="M5.9168 1.2931
L6.0378 1.3536
" />
<path d="M6.0378 1.3536
L6.0983 1.4140
" />
<path d="M6.0983 1.4140
L6.1587 1.5350
" />
<path d="M6.1587 1.5350
L6.1587 1.8374
" />
<path d="M6.1587 1.8374
L6.0983 1.9583
" />
<path d="M6.0983 1.9583
L6.0378 2.0188
" />
<path d="M6.0378 2.0188
L5.9168 2.0793
" />
<path d="M5.9168 2.0793
L5.5540 2.0793
" />
<path d="M5.5540 2.0793
L5.4330 2.0188
" />
<path d="M5.4330 2.0188
L5.3726 1.9583
" />
<path d="M6.8845 1.3536
L6.7635 1.2931
" />
<path d="M6.7635 1.2931
L6.7030 1.2326
" />
<path d="M6.7030 1.2326
L6.6426 1.1117
" />
<path d="M6.6426 1.1117
L6.6426 1.0512
" />
<path d="M6.6426 1.0512
L6.7030 0.9302
" />
<path d="M6.7030 0.9302
L6.7635 0.8697
" />
<path d="M6.7635 0.8697
L6.8845 0.8093
" />
<path d="M6.8845 0.8093
L7.1264 0.8093
" />
<path d="M7.1264 0.8093
L7.2473 0.8697
" />
<path d="M7.2473 0.8697
L7.3078 0.9302
" />
<path d="M7.3078 0.9302
L7.3683 1.0512
" />
<path d="M7.3683 1.0512
L7.3683 1.1117
" />
<path d="M7.3683 1.1117
L7.3078 1.2326
" />
<path d="M7.3078 1.2326
L7.2473 1.2931
" />
<path d="M7.2473 1.2931
L7.1264 1.3536
" />
<path d="M7.1264 1.3536
L6.8845 1.3536
" />
<path d="M6.8845 1.3536
L6.7635 1.4140
" />
<path d="M6.7635 1.4140
L6.7030 1.4745
" />
<path d="M6.7030 1.4745
L6.6426 1.5955
" />
<path d="M6.6426 1.5955
L6.6426 1.8374
" />
<path d="M6.6426 1.8374
L6.7030 1.9583
" />
<path d="M6.7030 1.9583
L6.7635 2.0188
" />
<path d="M6.7635 2.0188
L6.8845 2.0793
" />
<path d="M6.8845 2.0793
L7.1264 2.0793
" />
<path d="M7.1264 2.0793
L7.2473 2.0188
" />
<path d="M7.2473 2.0188
L7.3078 1.9583
" />
<path d="M7.3078 1.9583
L7.3683 1.8374
" />
<path d="M7.3683 1.8374
L7.3683 1.5955
" />
<path d="M7.3683 1.5955
L7.3078 1.4745
" />
<path d="M7.3078 1.4745
L7.2473 1.4140
" />
<path d="M7.2473 1.4140
L7.1264 1.3536
" />
<path d="M7.7916 0.8093
L8.5778 0.8093
" />
<path d="M8.5778 0.8093
L8.1545 1.2931
" />
<path d="M8.1545 1.2931
L8.3359 1.2931
" />
<path d="M8.3359 1.2931
L8.4568 1.3536
" />
<path d="M8.4568 1.3536
L8.5173 1.4140
" />
<path d="M8.5173 1.4140
L8.5778 1.5350
" />
<path d="M8.5778 1.5350
L8.5778 1.8374
" />
<path d="M8.5778 1.8374
L8.5173 1.9583
" />
<path d="M8.5173 1.9583
L8.4568 2.0188
" />
<path d="M8.4568 2.0188
L8.3359 2.0793
" />
<path d="M8.3359 2.0793
L7.9730 2.0793
" />
<path d="M7.9730 2.0793
L7.8521 2.0188
" />
<path d="M7.8521 2.0188
L7.7916 1.9583
" />
<path d="M9.5454 1.4140
L9.1221 1.4140
" />
<path d="M9.1221 2.0793
L9.1221 0.8093
" />
<path d="M9.1221 0.8093
L9.7268 0.8093
" />
</g></g>
<g style="fill:none; 
stroke:#AFAFAF; stroke-width:0.0750; stroke-opacity:1; 
stroke-linecap:round; stroke-linejoin:round;">
<g transform="rotate(-90.000000 5.0097 1.5000)">
<text x="5.0097" y="1.7500"
textLength="2.2679" font-size="0.6667" lengthAdjust="spacingAndGlyphs"
text-anchor="middle" opacity="0">REF**</text>
</g>
<g class="stroked-text"><desc>REF**</desc>
<path d="M5.2371 2.1667
L4.9990 2.3333
" />
<path d="M5.2371 2.4524
L4.7371 2.4524
" />
<path d="M4.7371 2.4524
L4.7371 2.2619
" />
<path d="M4.7371 2.2619
L4.7609 2.2143
" />
<path d="M4.7609 2.2143
L4.7847 2.1905
" />
<path d="M4.7847 2.1905
L4.8323 2.1667
" />
<path d="M4.8323 2.1667
L4.9038 2.1667
" />
<path d="M4.9038 2.1667
L4.9514 2.1905
" />
<path d="M4.9514 2.1905
L4.9752 2.2143
" />
<path d="M4.9752 2.2143
L4.9990 2.2619
" />
<path d="M4.9990 2.2619
L4.9990 2.4524
" />
<path d="M4.9752 1.9524
L4.9752 1.7857
" />
<path d="M5.2371 1.7143
L5.2371 1.9524
" />
<path d="M5.2371 1.9524
L4.7371 1.9524
" />
<path d="M4.7371 1.9524
L4.7371 1.7143
" />
<path d="M4.9752 1.3333
L4.9752 1.5000
" />
<path d="M5.2371 1.5000
L4.7371 1.5000
" />
<path d="M4.7371 1.5000
L4.7371 1.2619
" />
<path d="M4.7371 1.0000
L4.8562 1.0000
" />
<path d="M4.8085 1.1190
L4.8562 1.0000
" />
<path d="M4.8562 1.0000
L4.8085 0.8810
" />
<path d="M4.9514 1.0714
L4.8562 1.0000
" />
<path d="M4.8562 1.0000
L4.9514 0.9286
" />
<path d="M4.7371 0.6190
L4.8562 0.6190
" />
<path d="M4.8085 0.7381
L4.8562 0.6190
" />
<path d="M4.8562 0.6190
L4.8085 0.5000
" />
<path d="M4.9514 0.6905
L4.8562 0.6190
" />
<path d="M4.8562 0.6190
L4.9514 0.5476
" />
</g></g>
<g style="fill:none; 
stroke:#AFAFAF; stroke-width:0.1000; stroke-opacity:1; 
stroke-linecap:round; stroke-linejoin:round;">
<path d="M4.1597 0.7500
L4.1597 2.5000
" />
<path d="M4.1597 0.7500
L4.4097 0.5000
" />
<path d="M4.1597 2.5000
L5.8597 2.5000
" />
<path d="M4.4097 0.5000
L5.8597 0.5000
" />
<path d="M5.8597 2.5000
L5.8597 0.5000
" />
</g> 
</svg>
