<?xml version="1.0" standalone="no"?>
 <!DOCTYPE svg PUBLIC "-//W3C//DTD SVG 1.1//EN" 
 "http://www.w3.org/Graphics/SVG/1.1/DTD/svg11.dtd"> 
<svg
  xmlns:svg="http://www.w3.org/2000/svg"
  xmlns="http://www.w3.org/2000/svg"
  xmlns:xlink="http://www.w3.org/1999/xlink"
  version="1.1"
  width="38.9636mm" height="19.8374mm" viewBox="0.0000 0.0000 38.9636 19.8374">
<title>SVG Image created as working-brd.svg date 2024/04/06 06:16:08 </title>
  <desc>Image generated by PCBNEW </desc>
<g style="fill:#000000; fill-opacity:1.0000;stroke:#000000; stroke-opacity:1.0000;
stroke-linecap:round; stroke-linejoin:round;"
 transform="translate(0 0) scale(1 1)">
</g>
<g style="fill:#FFFFFF; fill-opacity:1.0000; stroke:none;">
<circle cx="19.4937" cy="2.0550" r="0.4250" /> 
</g>
<g style="fill:#FFFFFF; fill-opacity:1.0000; stroke:none;">
<circle cx="19.4937" cy="4.5950" r="0.4250" /> 
</g>
<g style="fill:#FFFFFF; fill-opacity:1.0000; stroke:none;">
<circle cx="19.4937" cy="9.6750" r="0.4250" /> 
</g>
<g style="fill:#FFFFFF; fill-opacity:1.0000; stroke:none;">
<circle cx="19.4937" cy="12.2150" r="0.4250" /> 
</g>
<g style="fill:#FFFFFF; fill-opacity:1.0000; stroke:none;">
<circle cx="19.4937" cy="14.7550" r="0.4250" /> 
<path style="fill:#02FFEE; fill-opacity:0.4000; stroke:none;fill-rule:evenodd;"
d="M 18.5687,2.9800
18.5687,1.1300
20.4187,1.1300
20.4187,2.9800
Z" /> 
</g>
<g style="fill:#02FFEE; fill-opacity:0.4000; stroke:none;">
<circle cx="19.4937" cy="4.5950" r="0.9250" /> 
</g>
<g style="fill:#02FFEE; fill-opacity:0.4000; stroke:none;">
<circle cx="19.4937" cy="9.6750" r="0.9250" /> 
</g>
<g style="fill:#02FFEE; fill-opacity:0.4000; stroke:none;">
<circle cx="19.4937" cy="12.2150" r="0.9250" /> 
</g>
<g style="fill:#02FFEE; fill-opacity:0.4000; stroke:none;">
<circle cx="19.4937" cy="14.7550" r="0.9250" /> 
</g>
<g style="fill:#FFFFFF; fill-opacity:1.0000; stroke:none;">
<circle cx="19.4937" cy="2.0550" r="0.4250" /> 
</g>
<g style="fill:#FFFFFF; fill-opacity:1.0000; stroke:none;">
<circle cx="19.4937" cy="4.5950" r="0.4250" /> 
</g>
<g style="fill:#FFFFFF; fill-opacity:1.0000; stroke:none;">
<circle cx="19.4937" cy="9.6750" r="0.4250" /> 
</g>
<g style="fill:#FFFFFF; fill-opacity:1.0000; stroke:none;">
<circle cx="19.4937" cy="12.2150" r="0.4250" /> 
</g>
<g style="fill:#FFFFFF; fill-opacity:1.0000; stroke:none;">
<circle cx="19.4937" cy="14.7550" r="0.4250" /> 
</g>
<g style="fill:#FFFFFF; fill-opacity:1.0000; stroke:none;">
<circle cx="19.4937" cy="2.0550" r="0.4250" /> 
</g>
<g style="fill:#FFFFFF; fill-opacity:1.0000; stroke:none;">
<circle cx="19.4937" cy="4.5950" r="0.4250" /> 
</g>
<g style="fill:#FFFFFF; fill-opacity:1.0000; stroke:none;">
<circle cx="19.4937" cy="9.6750" r="0.4250" /> 
</g>
<g style="fill:#FFFFFF; fill-opacity:1.0000; stroke:none;">
<circle cx="19.4937" cy="12.2150" r="0.4250" /> 
</g>
<g style="fill:#FFFFFF; fill-opacity:1.0000; stroke:none;">
<circle cx="19.4937" cy="14.7550" r="0.4250" /> 
<path style="fill:#D864FF; fill-opacity:0.4000; stroke:none;fill-rule:evenodd;"
d="M 18.5687,2.9800
18.5687,1.1300
20.4187,1.1300
20.4187,2.9800
Z" /> 
</g>
<g style="fill:#D864FF; fill-opacity:0.4000; stroke:none;">
<circle cx="19.4937" cy="4.5950" r="0.9250" /> 
</g>
<g style="fill:#D864FF; fill-opacity:0.4000; stroke:none;">
<circle cx="19.4937" cy="9.6750" r="0.9250" /> 
</g>
<g style="fill:#D864FF; fill-opacity:0.4000; stroke:none;">
<circle cx="19.4937" cy="12.2150" r="0.9250" /> 
</g>
<g style="fill:#D864FF; fill-opacity:0.4000; stroke:none;">
<circle cx="19.4937" cy="14.7550" r="0.9250" /> 
</g>
<g style="fill:none; 
stroke:#F2EDA1; stroke-width:0.1588; stroke-opacity:1; 
stroke-linecap:round; stroke-linejoin:round;">
<text x="19.4937" y="2.6900"
textLength="5.6651" font-size="1.6933" lengthAdjust="spacingAndGlyphs"
text-anchor="middle" opacity="0">REF**</text>
<g class="stroked-text"><desc>REF**</desc>
<path d="M17.8004 2.6343
L17.3771 2.0295
" />
<path d="M17.0747 2.6343
L17.0747 1.3643
" />
<path d="M17.0747 1.3643
L17.5585 1.3643
" />
<path d="M17.5585 1.3643
L17.6795 1.4247
" />
<path d="M17.6795 1.4247
L17.7399 1.4852
" />
<path d="M17.7399 1.4852
L17.8004 1.6062
" />
<path d="M17.8004 1.6062
L17.8004 1.7876
" />
<path d="M17.8004 1.7876
L17.7399 1.9086
" />
<path d="M17.7399 1.9086
L17.6795 1.9690
" />
<path d="M17.6795 1.9690
L17.5585 2.0295
" />
<path d="M17.5585 2.0295
L17.0747 2.0295
" />
<path d="M18.3447 1.9690
L18.7680 1.9690
" />
<path d="M18.9495 2.6343
L18.3447 2.6343
" />
<path d="M18.3447 2.6343
L18.3447 1.3643
" />
<path d="M18.3447 1.3643
L18.9495 1.3643
" />
<path d="M19.9171 1.9690
L19.4937 1.9690
" />
<path d="M19.4937 2.6343
L19.4937 1.3643
" />
<path d="M19.4937 1.3643
L20.0985 1.3643
" />
<path d="M20.7637 1.3643
L20.7637 1.6667
" />
<path d="M20.4614 1.5457
L20.7637 1.6667
" />
<path d="M20.7637 1.6667
L21.0661 1.5457
" />
<path d="M20.5823 1.9086
L20.7637 1.6667
" />
<path d="M20.7637 1.6667
L20.9452 1.9086
" />
<path d="M21.7314 1.3643
L21.7314 1.6667
" />
<path d="M21.4290 1.5457
L21.7314 1.6667
" />
<path d="M21.7314 1.6667
L22.0337 1.5457
" />
<path d="M21.5499 1.9086
L21.7314 1.6667
" />
<path d="M21.7314 1.6667
L21.9128 1.9086
" />
</g></g>
<g style="fill:none; 
stroke:#F2EDA1; stroke-width:0.1200; stroke-opacity:1; 
stroke-linecap:round; stroke-linejoin:round;">
<path d="M14.8937 0.1150
L14.8937 1.3650
" />
<path d="M15.1937 0.4150
L15.1937 19.4350
" />
<path d="M15.1937 19.4350
L21.0037 19.4350
" />
<path d="M16.1437 0.1150
L14.8937 0.1150
" />
<path d="M21.0037 0.4150
L15.1937 0.4150
" />
<path d="M21.0037 19.4350
L21.0037 0.4150
" />
</g>
<g style="fill:#FFFFFF; fill-opacity:1.0000; stroke:none;">
<circle cx="19.4937" cy="2.0550" r="0.4250" /> 
</g>
<g style="fill:#FFFFFF; fill-opacity:1.0000; stroke:none;">
<circle cx="19.4937" cy="4.5950" r="0.4250" /> 
</g>
<g style="fill:#FFFFFF; fill-opacity:1.0000; stroke:none;">
<circle cx="19.4937" cy="9.6750" r="0.4250" /> 
</g>
<g style="fill:#FFFFFF; fill-opacity:1.0000; stroke:none;">
<circle cx="19.4937" cy="12.2150" r="0.4250" /> 
</g>
<g style="fill:#FFFFFF; fill-opacity:1.0000; stroke:none;">
<circle cx="19.4937" cy="14.7550" r="0.4250" /> 
</g>
<g style="fill:none; 
stroke:#FF26E2; stroke-width:0.0500; stroke-opacity:1; 
stroke-linecap:round; stroke-linejoin:round;">
<path d="M14.8037 0.0250
L14.8037 19.8250
" />
<path d="M14.8037 19.8250
L21.3937 19.8250
" />
<path d="M21.3937 0.0250
L14.8037 0.0250
" />
<path d="M21.3937 19.8250
L21.3937 0.0250
" />
</g>
<g style="fill:none; 
stroke:#AFAFAF; stroke-width:0.1588; stroke-opacity:1; 
stroke-linecap:round; stroke-linejoin:round;">
<text x="19.4937" y="2.6900"
textLength="38.9875" font-size="1.6933" lengthAdjust="spacingAndGlyphs"
text-anchor="middle" opacity="0">Converter_DCDC_XP_POWER-IAxxxxS_THT</text>
<g class="stroked-text"><desc>Converter_DCDC_XP_POWER-IAxxxxS_THT</desc>
<path d="M1.1392 2.5133
L1.0787 2.5738
" />
<path d="M1.0787 2.5738
L0.8973 2.6343
" />
<path d="M0.8973 2.6343
L0.7764 2.6343
" />
<path d="M0.7764 2.6343
L0.5949 2.5738
" />
<path d="M0.5949 2.5738
L0.4740 2.4528
" />
<path d="M0.4740 2.4528
L0.4135 2.3319
" />
<path d="M0.4135 2.3319
L0.3530 2.0900
" />
<path d="M0.3530 2.0900
L0.3530 1.9086
" />
<path d="M0.3530 1.9086
L0.4135 1.6667
" />
<path d="M0.4135 1.6667
L0.4740 1.5457
" />
<path d="M0.4740 1.5457
L0.5949 1.4247
" />
<path d="M0.5949 1.4247
L0.7764 1.3643
" />
<path d="M0.7764 1.3643
L0.8973 1.3643
" />
<path d="M0.8973 1.3643
L1.0787 1.4247
" />
<path d="M1.0787 1.4247
L1.1392 1.4852
" />
<path d="M1.8649 2.6343
L1.7440 2.5738
" />
<path d="M1.7440 2.5738
L1.6835 2.5133
" />
<path d="M1.6835 2.5133
L1.6230 2.3924
" />
<path d="M1.6230 2.3924
L1.6230 2.0295
" />
<path d="M1.6230 2.0295
L1.6835 1.9086
" />
<path d="M1.6835 1.9086
L1.7440 1.8481
" />
<path d="M1.7440 1.8481
L1.8649 1.7876
" />
<path d="M1.8649 1.7876
L2.0464 1.7876
" />
<path d="M2.0464 1.7876
L2.1673 1.8481
" />
<path d="M2.1673 1.8481
L2.2278 1.9086
" />
<path d="M2.2278 1.9086
L2.2883 2.0295
" />
<path d="M2.2883 2.0295
L2.2883 2.3924
" />
<path d="M2.2883 2.3924
L2.2278 2.5133
" />
<path d="M2.2278 2.5133
L2.1673 2.5738
" />
<path d="M2.1673 2.5738
L2.0464 2.6343
" />
<path d="M2.0464 2.6343
L1.8649 2.6343
" />
<path d="M2.8326 1.7876
L2.8326 2.6343
" />
<path d="M2.8326 1.9086
L2.8930 1.8481
" />
<path d="M2.8930 1.8481
L3.0140 1.7876
" />
<path d="M3.0140 1.7876
L3.1954 1.7876
" />
<path d="M3.1954 1.7876
L3.3164 1.8481
" />
<path d="M3.3164 1.8481
L3.3768 1.9690
" />
<path d="M3.3768 1.9690
L3.3768 2.6343
" />
<path d="M3.8606 1.7876
L4.1630 2.6343
" />
<path d="M4.1630 2.6343
L4.4654 1.7876
" />
<path d="M5.4330 2.5738
L5.3121 2.6343
" />
<path d="M5.3121 2.6343
L5.0702 2.6343
" />
<path d="M5.0702 2.6343
L4.9492 2.5738
" />
<path d="M4.9492 2.5738
L4.8887 2.4528
" />
<path d="M4.8887 2.4528
L4.8887 1.9690
" />
<path d="M4.8887 1.9690
L4.9492 1.8481
" />
<path d="M4.9492 1.8481
L5.0702 1.7876
" />
<path d="M5.0702 1.7876
L5.3121 1.7876
" />
<path d="M5.3121 1.7876
L5.4330 1.8481
" />
<path d="M5.4330 1.8481
L5.4935 1.9690
" />
<path d="M5.4935 1.9690
L5.4935 2.0900
" />
<path d="M5.4935 2.0900
L4.8887 2.2109
" />
<path d="M6.0378 2.6343
L6.0378 1.7876
" />
<path d="M6.0378 2.0295
L6.0983 1.9086
" />
<path d="M6.0983 1.9086
L6.1587 1.8481
" />
<path d="M6.1587 1.8481
L6.2797 1.7876
" />
<path d="M6.2797 1.7876
L6.4006 1.7876
" />
<path d="M6.6426 1.7876
L7.1264 1.7876
" />
<path d="M6.8240 1.3643
L6.8240 2.4528
" />
<path d="M6.8240 2.4528
L6.8845 2.5738
" />
<path d="M6.8845 2.5738
L7.0054 2.6343
" />
<path d="M7.0054 2.6343
L7.1264 2.6343
" />
<path d="M8.0335 2.5738
L7.9126 2.6343
" />
<path d="M7.9126 2.6343
L7.6706 2.6343
" />
<path d="M7.6706 2.6343
L7.5497 2.5738
" />
<path d="M7.5497 2.5738
L7.4892 2.4528
" />
<path d="M7.4892 2.4528
L7.4892 1.9690
" />
<path d="M7.4892 1.9690
L7.5497 1.8481
" />
<path d="M7.5497 1.8481
L7.6706 1.7876
" />
<path d="M7.6706 1.7876
L7.9126 1.7876
" />
<path d="M7.9126 1.7876
L8.0335 1.8481
" />
<path d="M8.0335 1.8481
L8.0940 1.9690
" />
<path d="M8.0940 1.9690
L8.0940 2.0900
" />
<path d="M8.0940 2.0900
L7.4892 2.2109
" />
<path d="M8.6383 2.6343
L8.6383 1.7876
" />
<path d="M8.6383 2.0295
L8.6987 1.9086
" />
<path d="M8.6987 1.9086
L8.7592 1.8481
" />
<path d="M8.7592 1.8481
L8.8802 1.7876
" />
<path d="M8.8802 1.7876
L9.0011 1.7876
" />
<path d="M9.1221 2.7552
L10.0897 2.7552
" />
<path d="M10.3921 2.6343
L10.3921 1.3643
" />
<path d="M10.3921 1.3643
L10.6945 1.3643
" />
<path d="M10.6945 1.3643
L10.8759 1.4247
" />
<path d="M10.8759 1.4247
L10.9968 1.5457
" />
<path d="M10.9968 1.5457
L11.0573 1.6667
" />
<path d="M11.0573 1.6667
L11.1178 1.9086
" />
<path d="M11.1178 1.9086
L11.1178 2.0900
" />
<path d="M11.1178 2.0900
L11.0573 2.3319
" />
<path d="M11.0573 2.3319
L10.9968 2.4528
" />
<path d="M10.9968 2.4528
L10.8759 2.5738
" />
<path d="M10.8759 2.5738
L10.6945 2.6343
" />
<path d="M10.6945 2.6343
L10.3921 2.6343
" />
<path d="M12.3878 2.5133
L12.3273 2.5738
" />
<path d="M12.3273 2.5738
L12.1459 2.6343
" />
<path d="M12.1459 2.6343
L12.0249 2.6343
" />
<path d="M12.0249 2.6343
L11.8435 2.5738
" />
<path d="M11.8435 2.5738
L11.7226 2.4528
" />
<path d="M11.7226 2.4528
L11.6621 2.3319
" />
<path d="M11.6621 2.3319
L11.6016 2.0900
" />
<path d="M11.6016 2.0900
L11.6016 1.9086
" />
<path d="M11.6016 1.9086
L11.6621 1.6667
" />
<path d="M11.6621 1.6667
L11.7226 1.5457
" />
<path d="M11.7226 1.5457
L11.8435 1.4247
" />
<path d="M11.8435 1.4247
L12.0249 1.3643
" />
<path d="M12.0249 1.3643
L12.1459 1.3643
" />
<path d="M12.1459 1.3643
L12.3273 1.4247
" />
<path d="M12.3273 1.4247
L12.3878 1.4852
" />
<path d="M12.9321 2.6343
L12.9321 1.3643
" />
<path d="M12.9321 1.3643
L13.2345 1.3643
" />
<path d="M13.2345 1.3643
L13.4159 1.4247
" />
<path d="M13.4159 1.4247
L13.5368 1.5457
" />
<path d="M13.5368 1.5457
L13.5973 1.6667
" />
<path d="M13.5973 1.6667
L13.6578 1.9086
" />
<path d="M13.6578 1.9086
L13.6578 2.0900
" />
<path d="M13.6578 2.0900
L13.5973 2.3319
" />
<path d="M13.5973 2.3319
L13.5368 2.4528
" />
<path d="M13.5368 2.4528
L13.4159 2.5738
" />
<path d="M13.4159 2.5738
L13.2345 2.6343
" />
<path d="M13.2345 2.6343
L12.9321 2.6343
" />
<path d="M14.9278 2.5133
L14.8673 2.5738
" />
<path d="M14.8673 2.5738
L14.6859 2.6343
" />
<path d="M14.6859 2.6343
L14.5649 2.6343
" />
<path d="M14.5649 2.6343
L14.3835 2.5738
" />
<path d="M14.3835 2.5738
L14.2626 2.4528
" />
<path d="M14.2626 2.4528
L14.2021 2.3319
" />
<path d="M14.2021 2.3319
L14.1416 2.0900
" />
<path d="M14.1416 2.0900
L14.1416 1.9086
" />
<path d="M14.1416 1.9086
L14.2021 1.6667
" />
<path d="M14.2021 1.6667
L14.2626 1.5457
" />
<path d="M14.2626 1.5457
L14.3835 1.4247
" />
<path d="M14.3835 1.4247
L14.5649 1.3643
" />
<path d="M14.5649 1.3643
L14.6859 1.3643
" />
<path d="M14.6859 1.3643
L14.8673 1.4247
" />
<path d="M14.8673 1.4247
L14.9278 1.4852
" />
<path d="M15.1697 2.7552
L16.1373 2.7552
" />
<path d="M16.3187 1.3643
L17.1654 2.6343
" />
<path d="M17.1654 1.3643
L16.3187 2.6343
" />
<path d="M17.6492 2.6343
L17.6492 1.3643
" />
<path d="M17.6492 1.3643
L18.1330 1.3643
" />
<path d="M18.1330 1.3643
L18.2540 1.4247
" />
<path d="M18.2540 1.4247
L18.3145 1.4852
" />
<path d="M18.3145 1.4852
L18.3749 1.6062
" />
<path d="M18.3749 1.6062
L18.3749 1.7876
" />
<path d="M18.3749 1.7876
L18.3145 1.9086
" />
<path d="M18.3145 1.9086
L18.2540 1.9690
" />
<path d="M18.2540 1.9690
L18.1330 2.0295
" />
<path d="M18.1330 2.0295
L17.6492 2.0295
" />
<path d="M18.6168 2.7552
L19.5845 2.7552
" />
<path d="M19.8868 2.6343
L19.8868 1.3643
" />
<path d="M19.8868 1.3643
L20.3706 1.3643
" />
<path d="M20.3706 1.3643
L20.4916 1.4247
" />
<path d="M20.4916 1.4247
L20.5521 1.4852
" />
<path d="M20.5521 1.4852
L20.6126 1.6062
" />
<path d="M20.6126 1.6062
L20.6126 1.7876
" />
<path d="M20.6126 1.7876
L20.5521 1.9086
" />
<path d="M20.5521 1.9086
L20.4916 1.9690
" />
<path d="M20.4916 1.9690
L20.3706 2.0295
" />
<path d="M20.3706 2.0295
L19.8868 2.0295
" />
<path d="M21.3987 1.3643
L21.6406 1.3643
" />
<path d="M21.6406 1.3643
L21.7616 1.4247
" />
<path d="M21.7616 1.4247
L21.8826 1.5457
" />
<path d="M21.8826 1.5457
L21.9430 1.7876
" />
<path d="M21.9430 1.7876
L21.9430 2.2109
" />
<path d="M21.9430 2.2109
L21.8826 2.4528
" />
<path d="M21.8826 2.4528
L21.7616 2.5738
" />
<path d="M21.7616 2.5738
L21.6406 2.6343
" />
<path d="M21.6406 2.6343
L21.3987 2.6343
" />
<path d="M21.3987 2.6343
L21.2778 2.5738
" />
<path d="M21.2778 2.5738
L21.1568 2.4528
" />
<path d="M21.1568 2.4528
L21.0964 2.2109
" />
<path d="M21.0964 2.2109
L21.0964 1.7876
" />
<path d="M21.0964 1.7876
L21.1568 1.5457
" />
<path d="M21.1568 1.5457
L21.2778 1.4247
" />
<path d="M21.2778 1.4247
L21.3987 1.3643
" />
<path d="M22.3664 1.3643
L22.6687 2.6343
" />
<path d="M22.6687 2.6343
L22.9106 1.7271
" />
<path d="M22.9106 1.7271
L23.1526 2.6343
" />
<path d="M23.1526 2.6343
L23.4549 1.3643
" />
<path d="M23.9387 1.9690
L24.3621 1.9690
" />
<path d="M24.5435 2.6343
L23.9387 2.6343
" />
<path d="M23.9387 2.6343
L23.9387 1.3643
" />
<path d="M23.9387 1.3643
L24.5435 1.3643
" />
<path d="M25.8135 2.6343
L25.3902 2.0295
" />
<path d="M25.0878 2.6343
L25.0878 1.3643
" />
<path d="M25.0878 1.3643
L25.5716 1.3643
" />
<path d="M25.5716 1.3643
L25.6926 1.4247
" />
<path d="M25.6926 1.4247
L25.7530 1.4852
" />
<path d="M25.7530 1.4852
L25.8135 1.6062
" />
<path d="M25.8135 1.6062
L25.8135 1.7876
" />
<path d="M25.8135 1.7876
L25.7530 1.9086
" />
<path d="M25.7530 1.9086
L25.6926 1.9690
" />
<path d="M25.6926 1.9690
L25.5716 2.0295
" />
<path d="M25.5716 2.0295
L25.0878 2.0295
" />
<path d="M26.3578 2.1505
L27.3254 2.1505
" />
<path d="M27.9302 2.6343
L27.9302 1.3643
" />
<path d="M28.4745 2.2714
L29.0792 2.2714
" />
<path d="M28.3535 2.6343
L28.7768 1.3643
" />
<path d="M28.7768 1.3643
L29.2002 2.6343
" />
<path d="M29.5026 2.6343
L30.1678 1.7876
" />
<path d="M29.5026 1.7876
L30.1678 2.6343
" />
<path d="M30.5306 2.6343
L31.1959 1.7876
" />
<path d="M30.5306 1.7876
L31.1959 2.6343
" />
<path d="M31.5587 2.6343
L32.2240 1.7876
" />
<path d="M31.5587 1.7876
L32.2240 2.6343
" />
<path d="M32.5868 2.6343
L33.2521 1.7876
" />
<path d="M32.5868 1.7876
L33.2521 2.6343
" />
<path d="M33.6754 2.5738
L33.8568 2.6343
" />
<path d="M33.8568 2.6343
L34.1592 2.6343
" />
<path d="M34.1592 2.6343
L34.2802 2.5738
" />
<path d="M34.2802 2.5738
L34.3406 2.5133
" />
<path d="M34.3406 2.5133
L34.4011 2.3924
" />
<path d="M34.4011 2.3924
L34.4011 2.2714
" />
<path d="M34.4011 2.2714
L34.3406 2.1505
" />
<path d="M34.3406 2.1505
L34.2802 2.0900
" />
<path d="M34.2802 2.0900
L34.1592 2.0295
" />
<path d="M34.1592 2.0295
L33.9173 1.9690
" />
<path d="M33.9173 1.9690
L33.7964 1.9086
" />
<path d="M33.7964 1.9086
L33.7359 1.8481
" />
<path d="M33.7359 1.8481
L33.6754 1.7271
" />
<path d="M33.6754 1.7271
L33.6754 1.6062
" />
<path d="M33.6754 1.6062
L33.7359 1.4852
" />
<path d="M33.7359 1.4852
L33.7964 1.4247
" />
<path d="M33.7964 1.4247
L33.9173 1.3643
" />
<path d="M33.9173 1.3643
L34.2197 1.3643
" />
<path d="M34.2197 1.3643
L34.4011 1.4247
" />
<path d="M34.6430 2.7552
L35.6106 2.7552
" />
<path d="M35.7316 1.3643
L36.4573 1.3643
" />
<path d="M36.0945 2.6343
L36.0945 1.3643
" />
<path d="M36.8806 2.6343
L36.8806 1.3643
" />
<path d="M36.8806 1.9690
L37.6064 1.9690
" />
<path d="M37.6064 2.6343
L37.6064 1.3643
" />
<path d="M38.0297 1.3643
L38.7554 1.3643
" />
<path d="M38.3926 2.6343
L38.3926 1.3643
" />
</g></g>
<g style="fill:none; 
stroke:#AFAFAF; stroke-width:0.1500; stroke-opacity:1; 
stroke-linecap:round; stroke-linejoin:round;">
<text x="18.1037" y="4.0550"
textLength="4.5357" font-size="1.3333" lengthAdjust="spacingAndGlyphs"
text-anchor="middle" opacity="0">REF**</text>
<g class="stroked-text"><desc>REF**</desc>
<path d="M16.7704 4.0098
L16.4371 3.5336
" />
<path d="M16.1990 4.0098
L16.1990 3.0098
" />
<path d="M16.1990 3.0098
L16.5799 3.0098
" />
<path d="M16.5799 3.0098
L16.6752 3.0574
" />
<path d="M16.6752 3.0574
L16.7228 3.1051
" />
<path d="M16.7228 3.1051
L16.7704 3.2003
" />
<path d="M16.7704 3.2003
L16.7704 3.3432
" />
<path d="M16.7704 3.3432
L16.7228 3.4384
" />
<path d="M16.7228 3.4384
L16.6752 3.4860
" />
<path d="M16.6752 3.4860
L16.5799 3.5336
" />
<path d="M16.5799 3.5336
L16.1990 3.5336
" />
<path d="M17.1990 3.4860
L17.5323 3.4860
" />
<path d="M17.6752 4.0098
L17.1990 4.0098
" />
<path d="M17.1990 4.0098
L17.1990 3.0098
" />
<path d="M17.1990 3.0098
L17.6752 3.0098
" />
<path d="M18.4371 3.4860
L18.1037 3.4860
" />
<path d="M18.1037 4.0098
L18.1037 3.0098
" />
<path d="M18.1037 3.0098
L18.5799 3.0098
" />
<path d="M19.1037 3.0098
L19.1037 3.2479
" />
<path d="M18.8656 3.1527
L19.1037 3.2479
" />
<path d="M19.1037 3.2479
L19.3418 3.1527
" />
<path d="M18.9609 3.4384
L19.1037 3.2479
" />
<path d="M19.1037 3.2479
L19.2466 3.4384
" />
<path d="M19.8656 3.0098
L19.8656 3.2479
" />
<path d="M19.6276 3.1527
L19.8656 3.2479
" />
<path d="M19.8656 3.2479
L20.1037 3.1527
" />
<path d="M19.7228 3.4384
L19.8656 3.2479
" />
<path d="M19.8656 3.2479
L20.0085 3.4384
" />
</g></g>
<g style="fill:none; 
stroke:#AFAFAF; stroke-width:0.1000; stroke-opacity:1; 
stroke-linecap:round; stroke-linejoin:round;">
<path d="M14.8937 0.1150
L14.8937 1.3650
" />
<path d="M15.3037 0.5250
L15.3037 19.3250
" />
<path d="M15.3037 19.3250
L20.8937 19.3250
" />
<path d="M16.1437 0.1150
L14.8937 0.1150
" />
<path d="M20.8937 0.5250
L15.3037 0.5250
" />
<path d="M20.8937 19.3250
L20.8937 0.5250
" />
</g> 
</svg>
