<?xml version="1.0" standalone="no"?>
 <!DOCTYPE svg PUBLIC "-//W3C//DTD SVG 1.1//EN" 
 "http://www.w3.org/Graphics/SVG/1.1/DTD/svg11.dtd"> 
<svg
  xmlns:svg="http://www.w3.org/2000/svg"
  xmlns="http://www.w3.org/2000/svg"
  xmlns:xlink="http://www.w3.org/1999/xlink"
  version="1.1"
  width="66.2432mm" height="4.6228mm" viewBox="0.0000 0.0000 66.2432 4.6228">
<title>SVG Image created as working-brd.svg date 2024/04/20 22:53:20 </title>
  <desc>Image generated by PCBNEW </desc>
<g style="fill:#000000; fill-opacity:1.0000;stroke:#000000; stroke-opacity:1.0000;
stroke-linecap:round; stroke-linejoin:round;"
 transform="translate(0 0) scale(1 1)">
</g>
<g style="fill:#4D7FC4; fill-opacity:1.0000; stroke:none;">
<circle cx="32.0311" cy="1.2600" r="0.2500" /> 
</g>
<g style="fill:#4D7FC4; fill-opacity:1.0000; stroke:none;">
<circle cx="32.0311" cy="2.3600" r="0.2500" /> 
</g>
<g style="fill:#4D7FC4; fill-opacity:1.0000; stroke:none;">
<circle cx="32.0311" cy="3.4600" r="0.2500" /> 
</g>
<g style="fill:#4D7FC4; fill-opacity:1.0000; stroke:none;">
<circle cx="33.1311" cy="1.2600" r="0.2500" /> 
</g>
<g style="fill:#4D7FC4; fill-opacity:1.0000; stroke:none;">
<circle cx="33.1311" cy="2.3600" r="0.2500" /> 
<path style="fill:#4D7FC4; fill-opacity:1.0000; stroke:none;fill-rule:evenodd;"
d="M 31.7811,3.7100
31.7811,1.0100
34.4811,1.0100
34.4811,3.7100
Z" /> 
</g>
<g style="fill:#4D7FC4; fill-opacity:1.0000; stroke:none;">
<circle cx="33.1311" cy="3.4600" r="0.2500" /> 
</g>
<g style="fill:#4D7FC4; fill-opacity:1.0000; stroke:none;">
<circle cx="34.2311" cy="1.2600" r="0.2500" /> 
</g>
<g style="fill:#4D7FC4; fill-opacity:1.0000; stroke:none;">
<circle cx="34.2311" cy="2.3600" r="0.2500" /> 
</g>
<g style="fill:#4D7FC4; fill-opacity:1.0000; stroke:none;">
<circle cx="34.2311" cy="3.4600" r="0.2500" /> 
</g>
<g style="fill:#FFFFFF; fill-opacity:1.0000; stroke:none;">
<circle cx="32.0311" cy="1.2600" r="0.1000" /> 
</g>
<g style="fill:#FFFFFF; fill-opacity:1.0000; stroke:none;">
<circle cx="32.0311" cy="2.3600" r="0.1000" /> 
</g>
<g style="fill:#FFFFFF; fill-opacity:1.0000; stroke:none;">
<circle cx="32.0311" cy="3.4600" r="0.1000" /> 
</g>
<g style="fill:#FFFFFF; fill-opacity:1.0000; stroke:none;">
<circle cx="33.1311" cy="1.2600" r="0.1000" /> 
</g>
<g style="fill:#FFFFFF; fill-opacity:1.0000; stroke:none;">
<circle cx="33.1311" cy="2.3600" r="0.1000" /> 
</g>
<g style="fill:#FFFFFF; fill-opacity:1.0000; stroke:none;">
<circle cx="33.1311" cy="3.4600" r="0.1000" /> 
</g>
<g style="fill:#FFFFFF; fill-opacity:1.0000; stroke:none;">
<circle cx="34.2311" cy="1.2600" r="0.1000" /> 
</g>
<g style="fill:#FFFFFF; fill-opacity:1.0000; stroke:none;">
<circle cx="34.2311" cy="2.3600" r="0.1000" /> 
</g>
<g style="fill:#FFFFFF; fill-opacity:1.0000; stroke:none;">
<circle cx="34.2311" cy="3.4600" r="0.1000" /> 
</g>
<g style="fill:#FFFFFF; fill-opacity:1.0000; stroke:none;">
<circle cx="32.0311" cy="1.2600" r="0.1000" /> 
</g>
<g style="fill:#FFFFFF; fill-opacity:1.0000; stroke:none;">
<circle cx="32.0311" cy="2.3600" r="0.1000" /> 
</g>
<g style="fill:#FFFFFF; fill-opacity:1.0000; stroke:none;">
<circle cx="32.0311" cy="3.4600" r="0.1000" /> 
</g>
<g style="fill:#FFFFFF; fill-opacity:1.0000; stroke:none;">
<circle cx="33.1311" cy="1.2600" r="0.1000" /> 
</g>
<g style="fill:#FFFFFF; fill-opacity:1.0000; stroke:none;">
<circle cx="33.1311" cy="2.3600" r="0.1000" /> 
</g>
<g style="fill:#FFFFFF; fill-opacity:1.0000; stroke:none;">
<circle cx="33.1311" cy="3.4600" r="0.1000" /> 
</g>
<g style="fill:#FFFFFF; fill-opacity:1.0000; stroke:none;">
<circle cx="34.2311" cy="1.2600" r="0.1000" /> 
</g>
<g style="fill:#FFFFFF; fill-opacity:1.0000; stroke:none;">
<circle cx="34.2311" cy="2.3600" r="0.1000" /> 
</g>
<g style="fill:#FFFFFF; fill-opacity:1.0000; stroke:none;">
<circle cx="34.2311" cy="3.4600" r="0.1000" /> 
<path style="fill:#C83434; fill-opacity:1.0000; stroke:none;fill-rule:evenodd;"
d="M 31.1311,1.2850
31.1387,1.2467
31.1604,1.2143
31.1929,1.1926
31.2311,1.1850
31.4811,1.1850
31.5194,1.1926
31.5518,1.2143
31.5735,1.2467
31.5811,1.2850
31.5811,1.4850
31.5735,1.5233
31.5518,1.5557
31.5194,1.5774
31.4811,1.5850
31.2311,1.5850
31.1929,1.5774
31.1604,1.5557
31.1387,1.5233
31.1311,1.4850
Z" /> 
<path style="fill:#C83434; fill-opacity:1.0000; stroke:none;fill-rule:evenodd;"
d="M 31.1311,1.9350
31.1387,1.8967
31.1604,1.8643
31.1929,1.8426
31.2311,1.8350
31.4811,1.8350
31.5194,1.8426
31.5518,1.8643
31.5735,1.8967
31.5811,1.9350
31.5811,2.1350
31.5735,2.1733
31.5518,2.2057
31.5194,2.2274
31.4811,2.2350
31.2311,2.2350
31.1929,2.2274
31.1604,2.2057
31.1387,2.1733
31.1311,2.1350
Z" /> 
<path style="fill:#C83434; fill-opacity:1.0000; stroke:none;fill-rule:evenodd;"
d="M 31.1311,2.5850
31.1387,2.5467
31.1604,2.5143
31.1929,2.4926
31.2311,2.4850
31.4811,2.4850
31.5194,2.4926
31.5518,2.5143
31.5735,2.5467
31.5811,2.5850
31.5811,2.7850
31.5735,2.8233
31.5518,2.8557
31.5194,2.8774
31.4811,2.8850
31.2311,2.8850
31.1929,2.8774
31.1604,2.8557
31.1387,2.8233
31.1311,2.7850
Z" /> 
<path style="fill:#C83434; fill-opacity:1.0000; stroke:none;fill-rule:evenodd;"
d="M 31.1311,3.2350
31.1387,3.1967
31.1604,3.1643
31.1929,3.1426
31.2311,3.1350
31.4811,3.1350
31.5194,3.1426
31.5518,3.1643
31.5735,3.1967
31.5811,3.2350
31.5811,3.4350
31.5735,3.4733
31.5518,3.5057
31.5194,3.5274
31.4811,3.5350
31.2311,3.5350
31.1929,3.5274
31.1604,3.5057
31.1387,3.4733
31.1311,3.4350
Z" /> 
<path style="fill:#C83434; fill-opacity:1.0000; stroke:none;fill-rule:evenodd;"
d="M 31.9561,4.0100
31.9637,3.9717
31.9854,3.9393
32.0179,3.9176
32.0561,3.9100
32.2561,3.9100
32.2944,3.9176
32.3268,3.9393
32.3485,3.9717
32.3561,4.0100
32.3561,4.2600
32.3485,4.2983
32.3268,4.3307
32.2944,4.3524
32.2561,4.3600
32.0561,4.3600
32.0179,4.3524
31.9854,4.3307
31.9637,4.2983
31.9561,4.2600
Z" /> 
<path style="fill:#C83434; fill-opacity:1.0000; stroke:none;fill-rule:evenodd;"
d="M 32.6061,4.0100
32.6137,3.9717
32.6354,3.9393
32.6679,3.9176
32.7061,3.9100
32.9061,3.9100
32.9444,3.9176
32.9768,3.9393
32.9985,3.9717
33.0061,4.0100
33.0061,4.2600
32.9985,4.2983
32.9768,4.3307
32.9444,4.3524
32.9061,4.3600
32.7061,4.3600
32.6679,4.3524
32.6354,4.3307
32.6137,4.2983
32.6061,4.2600
Z" /> 
<path style="fill:#C83434; fill-opacity:1.0000; stroke:none;fill-rule:evenodd;"
d="M 33.2561,4.0100
33.2637,3.9717
33.2854,3.9393
33.3179,3.9176
33.3561,3.9100
33.5561,3.9100
33.5944,3.9176
33.6268,3.9393
33.6485,3.9717
33.6561,4.0100
33.6561,4.2600
33.6485,4.2983
33.6268,4.3307
33.5944,4.3524
33.5561,4.3600
33.3561,4.3600
33.3179,4.3524
33.2854,4.3307
33.2637,4.2983
33.2561,4.2600
Z" /> 
<path style="fill:#C83434; fill-opacity:1.0000; stroke:none;fill-rule:evenodd;"
d="M 33.9061,4.0100
33.9137,3.9717
33.9354,3.9393
33.9679,3.9176
34.0061,3.9100
34.2061,3.9100
34.2444,3.9176
34.2768,3.9393
34.2985,3.9717
34.3061,4.0100
34.3061,4.2600
34.2985,4.2983
34.2768,4.3307
34.2444,4.3524
34.2061,4.3600
34.0061,4.3600
33.9679,4.3524
33.9354,4.3307
33.9137,4.2983
33.9061,4.2600
Z" /> 
<path style="fill:#C83434; fill-opacity:1.0000; stroke:none;fill-rule:evenodd;"
d="M 34.6811,3.2350
34.6887,3.1967
34.7104,3.1643
34.7429,3.1426
34.7811,3.1350
35.0311,3.1350
35.0694,3.1426
35.1018,3.1643
35.1235,3.1967
35.1311,3.2350
35.1311,3.4350
35.1235,3.4733
35.1018,3.5057
35.0694,3.5274
35.0311,3.5350
34.7811,3.5350
34.7429,3.5274
34.7104,3.5057
34.6887,3.4733
34.6811,3.4350
Z" /> 
<path style="fill:#C83434; fill-opacity:1.0000; stroke:none;fill-rule:evenodd;"
d="M 34.6811,2.5850
34.6887,2.5467
34.7104,2.5143
34.7429,2.4926
34.7811,2.4850
35.0311,2.4850
35.0694,2.4926
35.1018,2.5143
35.1235,2.5467
35.1311,2.5850
35.1311,2.7850
35.1235,2.8233
35.1018,2.8557
35.0694,2.8774
35.0311,2.8850
34.7811,2.8850
34.7429,2.8774
34.7104,2.8557
34.6887,2.8233
34.6811,2.7850
Z" /> 
<path style="fill:#C83434; fill-opacity:1.0000; stroke:none;fill-rule:evenodd;"
d="M 34.6811,1.9350
34.6887,1.8967
34.7104,1.8643
34.7429,1.8426
34.7811,1.8350
35.0311,1.8350
35.0694,1.8426
35.1018,1.8643
35.1235,1.8967
35.1311,1.9350
35.1311,2.1350
35.1235,2.1733
35.1018,2.2057
35.0694,2.2274
35.0311,2.2350
34.7811,2.2350
34.7429,2.2274
34.7104,2.2057
34.6887,2.1733
34.6811,2.1350
Z" /> 
<path style="fill:#C83434; fill-opacity:1.0000; stroke:none;fill-rule:evenodd;"
d="M 34.6811,1.2850
34.6887,1.2467
34.7104,1.2143
34.7429,1.1926
34.7811,1.1850
35.0311,1.1850
35.0694,1.1926
35.1018,1.2143
35.1235,1.2467
35.1311,1.2850
35.1311,1.4850
35.1235,1.5233
35.1018,1.5557
35.0694,1.5774
35.0311,1.5850
34.7811,1.5850
34.7429,1.5774
34.7104,1.5557
34.6887,1.5233
34.6811,1.4850
Z" /> 
<path style="fill:#C83434; fill-opacity:1.0000; stroke:none;fill-rule:evenodd;"
d="M 33.9061,0.4600
33.9137,0.4217
33.9354,0.3893
33.9679,0.3676
34.0061,0.3600
34.2061,0.3600
34.2444,0.3676
34.2768,0.3893
34.2985,0.4217
34.3061,0.4600
34.3061,0.7100
34.2985,0.7483
34.2768,0.7807
34.2444,0.8024
34.2061,0.8100
34.0061,0.8100
33.9679,0.8024
33.9354,0.7807
33.9137,0.7483
33.9061,0.7100
Z" /> 
<path style="fill:#C83434; fill-opacity:1.0000; stroke:none;fill-rule:evenodd;"
d="M 33.2561,0.4600
33.2637,0.4217
33.2854,0.3893
33.3179,0.3676
33.3561,0.3600
33.5561,0.3600
33.5944,0.3676
33.6268,0.3893
33.6485,0.4217
33.6561,0.4600
33.6561,0.7100
33.6485,0.7483
33.6268,0.7807
33.5944,0.8024
33.5561,0.8100
33.3561,0.8100
33.3179,0.8024
33.2854,0.7807
33.2637,0.7483
33.2561,0.7100
Z" /> 
<path style="fill:#C83434; fill-opacity:1.0000; stroke:none;fill-rule:evenodd;"
d="M 32.6061,0.4600
32.6137,0.4217
32.6354,0.3893
32.6679,0.3676
32.7061,0.3600
32.9061,0.3600
32.9444,0.3676
32.9768,0.3893
32.9985,0.4217
33.0061,0.4600
33.0061,0.7100
32.9985,0.7483
32.9768,0.7807
32.9444,0.8024
32.9061,0.8100
32.7061,0.8100
32.6679,0.8024
32.6354,0.7807
32.6137,0.7483
32.6061,0.7100
Z" /> 
<path style="fill:#C83434; fill-opacity:1.0000; stroke:none;fill-rule:evenodd;"
d="M 31.9561,0.4600
31.9637,0.4217
31.9854,0.3893
32.0179,0.3676
32.0561,0.3600
32.2561,0.3600
32.2944,0.3676
32.3268,0.3893
32.3485,0.4217
32.3561,0.4600
32.3561,0.7100
32.3485,0.7483
32.3268,0.7807
32.2944,0.8024
32.2561,0.8100
32.0561,0.8100
32.0179,0.8024
31.9854,0.7807
31.9637,0.7483
31.9561,0.7100
Z" /> 
</g>
<g style="fill:#C83434; fill-opacity:1.0000; stroke:none;">
<circle cx="32.0311" cy="1.2600" r="0.2500" /> 
</g>
<g style="fill:#C83434; fill-opacity:1.0000; stroke:none;">
<circle cx="32.0311" cy="2.3600" r="0.2500" /> 
</g>
<g style="fill:#C83434; fill-opacity:1.0000; stroke:none;">
<circle cx="32.0311" cy="3.4600" r="0.2500" /> 
</g>
<g style="fill:#C83434; fill-opacity:1.0000; stroke:none;">
<circle cx="33.1311" cy="1.2600" r="0.2500" /> 
</g>
<g style="fill:#C83434; fill-opacity:1.0000; stroke:none;">
<circle cx="33.1311" cy="2.3600" r="0.2500" /> 
<path style="fill:#C83434; fill-opacity:1.0000; stroke:none;fill-rule:evenodd;"
d="M 31.7811,3.7100
31.7811,1.0100
34.4811,1.0100
34.4811,3.7100
Z" /> 
</g>
<g style="fill:#C83434; fill-opacity:1.0000; stroke:none;">
<circle cx="33.1311" cy="3.4600" r="0.2500" /> 
</g>
<g style="fill:#C83434; fill-opacity:1.0000; stroke:none;">
<circle cx="34.2311" cy="1.2600" r="0.2500" /> 
</g>
<g style="fill:#C83434; fill-opacity:1.0000; stroke:none;">
<circle cx="34.2311" cy="2.3600" r="0.2500" /> 
</g>
<g style="fill:#C83434; fill-opacity:1.0000; stroke:none;">
<circle cx="34.2311" cy="3.4600" r="0.2500" /> 
</g>
<g style="fill:#FFFFFF; fill-opacity:1.0000; stroke:none;">
<circle cx="32.0311" cy="1.2600" r="0.1000" /> 
</g>
<g style="fill:#FFFFFF; fill-opacity:1.0000; stroke:none;">
<circle cx="32.0311" cy="2.3600" r="0.1000" /> 
</g>
<g style="fill:#FFFFFF; fill-opacity:1.0000; stroke:none;">
<circle cx="32.0311" cy="3.4600" r="0.1000" /> 
</g>
<g style="fill:#FFFFFF; fill-opacity:1.0000; stroke:none;">
<circle cx="33.1311" cy="1.2600" r="0.1000" /> 
</g>
<g style="fill:#FFFFFF; fill-opacity:1.0000; stroke:none;">
<circle cx="33.1311" cy="2.3600" r="0.1000" /> 
</g>
<g style="fill:#FFFFFF; fill-opacity:1.0000; stroke:none;">
<circle cx="33.1311" cy="3.4600" r="0.1000" /> 
</g>
<g style="fill:#FFFFFF; fill-opacity:1.0000; stroke:none;">
<circle cx="34.2311" cy="1.2600" r="0.1000" /> 
</g>
<g style="fill:#FFFFFF; fill-opacity:1.0000; stroke:none;">
<circle cx="34.2311" cy="2.3600" r="0.1000" /> 
</g>
<g style="fill:#FFFFFF; fill-opacity:1.0000; stroke:none;">
<circle cx="34.2311" cy="3.4600" r="0.1000" /> 
<path style="fill:#D864FF; fill-opacity:0.4000; stroke:none;fill-rule:evenodd;"
d="M 31.1311,1.2850
31.1387,1.2467
31.1604,1.2143
31.1929,1.1926
31.2311,1.1850
31.4811,1.1850
31.5194,1.1926
31.5518,1.2143
31.5735,1.2467
31.5811,1.2850
31.5811,1.4850
31.5735,1.5233
31.5518,1.5557
31.5194,1.5774
31.4811,1.5850
31.2311,1.5850
31.1929,1.5774
31.1604,1.5557
31.1387,1.5233
31.1311,1.4850
Z" /> 
<path style="fill:#D864FF; fill-opacity:0.4000; stroke:none;fill-rule:evenodd;"
d="M 31.1311,1.9350
31.1387,1.8967
31.1604,1.8643
31.1929,1.8426
31.2311,1.8350
31.4811,1.8350
31.5194,1.8426
31.5518,1.8643
31.5735,1.8967
31.5811,1.9350
31.5811,2.1350
31.5735,2.1733
31.5518,2.2057
31.5194,2.2274
31.4811,2.2350
31.2311,2.2350
31.1929,2.2274
31.1604,2.2057
31.1387,2.1733
31.1311,2.1350
Z" /> 
<path style="fill:#D864FF; fill-opacity:0.4000; stroke:none;fill-rule:evenodd;"
d="M 31.1311,2.5850
31.1387,2.5467
31.1604,2.5143
31.1929,2.4926
31.2311,2.4850
31.4811,2.4850
31.5194,2.4926
31.5518,2.5143
31.5735,2.5467
31.5811,2.5850
31.5811,2.7850
31.5735,2.8233
31.5518,2.8557
31.5194,2.8774
31.4811,2.8850
31.2311,2.8850
31.1929,2.8774
31.1604,2.8557
31.1387,2.8233
31.1311,2.7850
Z" /> 
<path style="fill:#D864FF; fill-opacity:0.4000; stroke:none;fill-rule:evenodd;"
d="M 31.1311,3.2350
31.1387,3.1967
31.1604,3.1643
31.1929,3.1426
31.2311,3.1350
31.4811,3.1350
31.5194,3.1426
31.5518,3.1643
31.5735,3.1967
31.5811,3.2350
31.5811,3.4350
31.5735,3.4733
31.5518,3.5057
31.5194,3.5274
31.4811,3.5350
31.2311,3.5350
31.1929,3.5274
31.1604,3.5057
31.1387,3.4733
31.1311,3.4350
Z" /> 
<path style="fill:#D864FF; fill-opacity:0.4000; stroke:none;fill-rule:evenodd;"
d="M 31.9561,4.0100
31.9637,3.9717
31.9854,3.9393
32.0179,3.9176
32.0561,3.9100
32.2561,3.9100
32.2944,3.9176
32.3268,3.9393
32.3485,3.9717
32.3561,4.0100
32.3561,4.2600
32.3485,4.2983
32.3268,4.3307
32.2944,4.3524
32.2561,4.3600
32.0561,4.3600
32.0179,4.3524
31.9854,4.3307
31.9637,4.2983
31.9561,4.2600
Z" /> 
<path style="fill:#D864FF; fill-opacity:0.4000; stroke:none;fill-rule:evenodd;"
d="M 32.6061,4.0100
32.6137,3.9717
32.6354,3.9393
32.6679,3.9176
32.7061,3.9100
32.9061,3.9100
32.9444,3.9176
32.9768,3.9393
32.9985,3.9717
33.0061,4.0100
33.0061,4.2600
32.9985,4.2983
32.9768,4.3307
32.9444,4.3524
32.9061,4.3600
32.7061,4.3600
32.6679,4.3524
32.6354,4.3307
32.6137,4.2983
32.6061,4.2600
Z" /> 
<path style="fill:#D864FF; fill-opacity:0.4000; stroke:none;fill-rule:evenodd;"
d="M 33.2561,4.0100
33.2637,3.9717
33.2854,3.9393
33.3179,3.9176
33.3561,3.9100
33.5561,3.9100
33.5944,3.9176
33.6268,3.9393
33.6485,3.9717
33.6561,4.0100
33.6561,4.2600
33.6485,4.2983
33.6268,4.3307
33.5944,4.3524
33.5561,4.3600
33.3561,4.3600
33.3179,4.3524
33.2854,4.3307
33.2637,4.2983
33.2561,4.2600
Z" /> 
<path style="fill:#D864FF; fill-opacity:0.4000; stroke:none;fill-rule:evenodd;"
d="M 33.9061,4.0100
33.9137,3.9717
33.9354,3.9393
33.9679,3.9176
34.0061,3.9100
34.2061,3.9100
34.2444,3.9176
34.2768,3.9393
34.2985,3.9717
34.3061,4.0100
34.3061,4.2600
34.2985,4.2983
34.2768,4.3307
34.2444,4.3524
34.2061,4.3600
34.0061,4.3600
33.9679,4.3524
33.9354,4.3307
33.9137,4.2983
33.9061,4.2600
Z" /> 
<path style="fill:#D864FF; fill-opacity:0.4000; stroke:none;fill-rule:evenodd;"
d="M 34.6811,3.2350
34.6887,3.1967
34.7104,3.1643
34.7429,3.1426
34.7811,3.1350
35.0311,3.1350
35.0694,3.1426
35.1018,3.1643
35.1235,3.1967
35.1311,3.2350
35.1311,3.4350
35.1235,3.4733
35.1018,3.5057
35.0694,3.5274
35.0311,3.5350
34.7811,3.5350
34.7429,3.5274
34.7104,3.5057
34.6887,3.4733
34.6811,3.4350
Z" /> 
<path style="fill:#D864FF; fill-opacity:0.4000; stroke:none;fill-rule:evenodd;"
d="M 34.6811,2.5850
34.6887,2.5467
34.7104,2.5143
34.7429,2.4926
34.7811,2.4850
35.0311,2.4850
35.0694,2.4926
35.1018,2.5143
35.1235,2.5467
35.1311,2.5850
35.1311,2.7850
35.1235,2.8233
35.1018,2.8557
35.0694,2.8774
35.0311,2.8850
34.7811,2.8850
34.7429,2.8774
34.7104,2.8557
34.6887,2.8233
34.6811,2.7850
Z" /> 
<path style="fill:#D864FF; fill-opacity:0.4000; stroke:none;fill-rule:evenodd;"
d="M 34.6811,1.9350
34.6887,1.8967
34.7104,1.8643
34.7429,1.8426
34.7811,1.8350
35.0311,1.8350
35.0694,1.8426
35.1018,1.8643
35.1235,1.8967
35.1311,1.9350
35.1311,2.1350
35.1235,2.1733
35.1018,2.2057
35.0694,2.2274
35.0311,2.2350
34.7811,2.2350
34.7429,2.2274
34.7104,2.2057
34.6887,2.1733
34.6811,2.1350
Z" /> 
<path style="fill:#D864FF; fill-opacity:0.4000; stroke:none;fill-rule:evenodd;"
d="M 34.6811,1.2850
34.6887,1.2467
34.7104,1.2143
34.7429,1.1926
34.7811,1.1850
35.0311,1.1850
35.0694,1.1926
35.1018,1.2143
35.1235,1.2467
35.1311,1.2850
35.1311,1.4850
35.1235,1.5233
35.1018,1.5557
35.0694,1.5774
35.0311,1.5850
34.7811,1.5850
34.7429,1.5774
34.7104,1.5557
34.6887,1.5233
34.6811,1.4850
Z" /> 
<path style="fill:#D864FF; fill-opacity:0.4000; stroke:none;fill-rule:evenodd;"
d="M 33.9061,0.4600
33.9137,0.4217
33.9354,0.3893
33.9679,0.3676
34.0061,0.3600
34.2061,0.3600
34.2444,0.3676
34.2768,0.3893
34.2985,0.4217
34.3061,0.4600
34.3061,0.7100
34.2985,0.7483
34.2768,0.7807
34.2444,0.8024
34.2061,0.8100
34.0061,0.8100
33.9679,0.8024
33.9354,0.7807
33.9137,0.7483
33.9061,0.7100
Z" /> 
<path style="fill:#D864FF; fill-opacity:0.4000; stroke:none;fill-rule:evenodd;"
d="M 33.2561,0.4600
33.2637,0.4217
33.2854,0.3893
33.3179,0.3676
33.3561,0.3600
33.5561,0.3600
33.5944,0.3676
33.6268,0.3893
33.6485,0.4217
33.6561,0.4600
33.6561,0.7100
33.6485,0.7483
33.6268,0.7807
33.5944,0.8024
33.5561,0.8100
33.3561,0.8100
33.3179,0.8024
33.2854,0.7807
33.2637,0.7483
33.2561,0.7100
Z" /> 
<path style="fill:#D864FF; fill-opacity:0.4000; stroke:none;fill-rule:evenodd;"
d="M 32.6061,0.4600
32.6137,0.4217
32.6354,0.3893
32.6679,0.3676
32.7061,0.3600
32.9061,0.3600
32.9444,0.3676
32.9768,0.3893
32.9985,0.4217
33.0061,0.4600
33.0061,0.7100
32.9985,0.7483
32.9768,0.7807
32.9444,0.8024
32.9061,0.8100
32.7061,0.8100
32.6679,0.8024
32.6354,0.7807
32.6137,0.7483
32.6061,0.7100
Z" /> 
<path style="fill:#D864FF; fill-opacity:0.4000; stroke:none;fill-rule:evenodd;"
d="M 31.9561,0.4600
31.9637,0.4217
31.9854,0.3893
32.0179,0.3676
32.0561,0.3600
32.2561,0.3600
32.2944,0.3676
32.3268,0.3893
32.3485,0.4217
32.3561,0.4600
32.3561,0.7100
32.3485,0.7483
32.3268,0.7807
32.2944,0.8024
32.2561,0.8100
32.0561,0.8100
32.0179,0.8024
31.9854,0.7807
31.9637,0.7483
31.9561,0.7100
Z" /> 
<path style="fill:#D864FF; fill-opacity:0.4000; stroke:none;fill-rule:evenodd;"
d="M 31.7811,3.7100
31.7811,1.0100
34.4811,1.0100
34.4811,3.7100
Z" /> 
<path style="fill:#B4A09A; fill-opacity:0.9000; stroke:none;fill-rule:evenodd;"
d="M 31.8711,1.3500
31.8902,1.2543
31.9443,1.1732
32.0255,1.1190
32.1211,1.1000
32.7911,1.1000
32.8868,1.1190
32.9679,1.1732
33.0221,1.2543
33.0411,1.3500
33.0411,2.0200
33.0221,2.1157
32.9679,2.1968
32.8868,2.2510
32.7911,2.2700
32.1211,2.2700
32.0255,2.2510
31.9443,2.1968
31.8902,2.1157
31.8711,2.0200
Z" /> 
<path style="fill:#B4A09A; fill-opacity:0.9000; stroke:none;fill-rule:evenodd;"
d="M 31.8711,2.7000
31.8902,2.6043
31.9443,2.5232
32.0255,2.4690
32.1211,2.4500
32.7911,2.4500
32.8868,2.4690
32.9679,2.5232
33.0221,2.6043
33.0411,2.7000
33.0411,3.3700
33.0221,3.4657
32.9679,3.5468
32.8868,3.6010
32.7911,3.6200
32.1211,3.6200
32.0255,3.6010
31.9443,3.5468
31.8902,3.4657
31.8711,3.3700
Z" /> 
<path style="fill:#B4A09A; fill-opacity:0.9000; stroke:none;fill-rule:evenodd;"
d="M 33.2211,1.3500
33.2402,1.2543
33.2943,1.1732
33.3755,1.1190
33.4711,1.1000
34.1411,1.1000
34.2368,1.1190
34.3179,1.1732
34.3721,1.2543
34.3911,1.3500
34.3911,2.0200
34.3721,2.1157
34.3179,2.1968
34.2368,2.2510
34.1411,2.2700
33.4711,2.2700
33.3755,2.2510
33.2943,2.1968
33.2402,2.1157
33.2211,2.0200
Z" /> 
<path style="fill:#B4A09A; fill-opacity:0.9000; stroke:none;fill-rule:evenodd;"
d="M 33.2211,2.7000
33.2402,2.6043
33.2943,2.5232
33.3755,2.4690
33.4711,2.4500
34.1411,2.4500
34.2368,2.4690
34.3179,2.5232
34.3721,2.6043
34.3911,2.7000
34.3911,3.3700
34.3721,3.4657
34.3179,3.5468
34.2368,3.6010
34.1411,3.6200
33.4711,3.6200
33.3755,3.6010
33.2943,3.5468
33.2402,3.4657
33.2211,3.3700
Z" /> 
<path style="fill:#B4A09A; fill-opacity:0.9000; stroke:none;fill-rule:evenodd;"
d="M 31.1311,1.2850
31.1387,1.2467
31.1604,1.2143
31.1929,1.1926
31.2311,1.1850
31.4811,1.1850
31.5194,1.1926
31.5518,1.2143
31.5735,1.2467
31.5811,1.2850
31.5811,1.4850
31.5735,1.5233
31.5518,1.5557
31.5194,1.5774
31.4811,1.5850
31.2311,1.5850
31.1929,1.5774
31.1604,1.5557
31.1387,1.5233
31.1311,1.4850
Z" /> 
<path style="fill:#B4A09A; fill-opacity:0.9000; stroke:none;fill-rule:evenodd;"
d="M 31.1311,1.9350
31.1387,1.8967
31.1604,1.8643
31.1929,1.8426
31.2311,1.8350
31.4811,1.8350
31.5194,1.8426
31.5518,1.8643
31.5735,1.8967
31.5811,1.9350
31.5811,2.1350
31.5735,2.1733
31.5518,2.2057
31.5194,2.2274
31.4811,2.2350
31.2311,2.2350
31.1929,2.2274
31.1604,2.2057
31.1387,2.1733
31.1311,2.1350
Z" /> 
<path style="fill:#B4A09A; fill-opacity:0.9000; stroke:none;fill-rule:evenodd;"
d="M 31.1311,2.5850
31.1387,2.5467
31.1604,2.5143
31.1929,2.4926
31.2311,2.4850
31.4811,2.4850
31.5194,2.4926
31.5518,2.5143
31.5735,2.5467
31.5811,2.5850
31.5811,2.7850
31.5735,2.8233
31.5518,2.8557
31.5194,2.8774
31.4811,2.8850
31.2311,2.8850
31.1929,2.8774
31.1604,2.8557
31.1387,2.8233
31.1311,2.7850
Z" /> 
<path style="fill:#B4A09A; fill-opacity:0.9000; stroke:none;fill-rule:evenodd;"
d="M 31.1311,3.2350
31.1387,3.1967
31.1604,3.1643
31.1929,3.1426
31.2311,3.1350
31.4811,3.1350
31.5194,3.1426
31.5518,3.1643
31.5735,3.1967
31.5811,3.2350
31.5811,3.4350
31.5735,3.4733
31.5518,3.5057
31.5194,3.5274
31.4811,3.5350
31.2311,3.5350
31.1929,3.5274
31.1604,3.5057
31.1387,3.4733
31.1311,3.4350
Z" /> 
<path style="fill:#B4A09A; fill-opacity:0.9000; stroke:none;fill-rule:evenodd;"
d="M 31.9561,4.0100
31.9637,3.9717
31.9854,3.9393
32.0179,3.9176
32.0561,3.9100
32.2561,3.9100
32.2944,3.9176
32.3268,3.9393
32.3485,3.9717
32.3561,4.0100
32.3561,4.2600
32.3485,4.2983
32.3268,4.3307
32.2944,4.3524
32.2561,4.3600
32.0561,4.3600
32.0179,4.3524
31.9854,4.3307
31.9637,4.2983
31.9561,4.2600
Z" /> 
<path style="fill:#B4A09A; fill-opacity:0.9000; stroke:none;fill-rule:evenodd;"
d="M 32.6061,4.0100
32.6137,3.9717
32.6354,3.9393
32.6679,3.9176
32.7061,3.9100
32.9061,3.9100
32.9444,3.9176
32.9768,3.9393
32.9985,3.9717
33.0061,4.0100
33.0061,4.2600
32.9985,4.2983
32.9768,4.3307
32.9444,4.3524
32.9061,4.3600
32.7061,4.3600
32.6679,4.3524
32.6354,4.3307
32.6137,4.2983
32.6061,4.2600
Z" /> 
<path style="fill:#B4A09A; fill-opacity:0.9000; stroke:none;fill-rule:evenodd;"
d="M 33.2561,4.0100
33.2637,3.9717
33.2854,3.9393
33.3179,3.9176
33.3561,3.9100
33.5561,3.9100
33.5944,3.9176
33.6268,3.9393
33.6485,3.9717
33.6561,4.0100
33.6561,4.2600
33.6485,4.2983
33.6268,4.3307
33.5944,4.3524
33.5561,4.3600
33.3561,4.3600
33.3179,4.3524
33.2854,4.3307
33.2637,4.2983
33.2561,4.2600
Z" /> 
<path style="fill:#B4A09A; fill-opacity:0.9000; stroke:none;fill-rule:evenodd;"
d="M 33.9061,4.0100
33.9137,3.9717
33.9354,3.9393
33.9679,3.9176
34.0061,3.9100
34.2061,3.9100
34.2444,3.9176
34.2768,3.9393
34.2985,3.9717
34.3061,4.0100
34.3061,4.2600
34.2985,4.2983
34.2768,4.3307
34.2444,4.3524
34.2061,4.3600
34.0061,4.3600
33.9679,4.3524
33.9354,4.3307
33.9137,4.2983
33.9061,4.2600
Z" /> 
<path style="fill:#B4A09A; fill-opacity:0.9000; stroke:none;fill-rule:evenodd;"
d="M 34.6811,3.2350
34.6887,3.1967
34.7104,3.1643
34.7429,3.1426
34.7811,3.1350
35.0311,3.1350
35.0694,3.1426
35.1018,3.1643
35.1235,3.1967
35.1311,3.2350
35.1311,3.4350
35.1235,3.4733
35.1018,3.5057
35.0694,3.5274
35.0311,3.5350
34.7811,3.5350
34.7429,3.5274
34.7104,3.5057
34.6887,3.4733
34.6811,3.4350
Z" /> 
<path style="fill:#B4A09A; fill-opacity:0.9000; stroke:none;fill-rule:evenodd;"
d="M 34.6811,2.5850
34.6887,2.5467
34.7104,2.5143
34.7429,2.4926
34.7811,2.4850
35.0311,2.4850
35.0694,2.4926
35.1018,2.5143
35.1235,2.5467
35.1311,2.5850
35.1311,2.7850
35.1235,2.8233
35.1018,2.8557
35.0694,2.8774
35.0311,2.8850
34.7811,2.8850
34.7429,2.8774
34.7104,2.8557
34.6887,2.8233
34.6811,2.7850
Z" /> 
<path style="fill:#B4A09A; fill-opacity:0.9000; stroke:none;fill-rule:evenodd;"
d="M 34.6811,1.9350
34.6887,1.8967
34.7104,1.8643
34.7429,1.8426
34.7811,1.8350
35.0311,1.8350
35.0694,1.8426
35.1018,1.8643
35.1235,1.8967
35.1311,1.9350
35.1311,2.1350
35.1235,2.1733
35.1018,2.2057
35.0694,2.2274
35.0311,2.2350
34.7811,2.2350
34.7429,2.2274
34.7104,2.2057
34.6887,2.1733
34.6811,2.1350
Z" /> 
<path style="fill:#B4A09A; fill-opacity:0.9000; stroke:none;fill-rule:evenodd;"
d="M 34.6811,1.2850
34.6887,1.2467
34.7104,1.2143
34.7429,1.1926
34.7811,1.1850
35.0311,1.1850
35.0694,1.1926
35.1018,1.2143
35.1235,1.2467
35.1311,1.2850
35.1311,1.4850
35.1235,1.5233
35.1018,1.5557
35.0694,1.5774
35.0311,1.5850
34.7811,1.5850
34.7429,1.5774
34.7104,1.5557
34.6887,1.5233
34.6811,1.4850
Z" /> 
<path style="fill:#B4A09A; fill-opacity:0.9000; stroke:none;fill-rule:evenodd;"
d="M 33.9061,0.4600
33.9137,0.4217
33.9354,0.3893
33.9679,0.3676
34.0061,0.3600
34.2061,0.3600
34.2444,0.3676
34.2768,0.3893
34.2985,0.4217
34.3061,0.4600
34.3061,0.7100
34.2985,0.7483
34.2768,0.7807
34.2444,0.8024
34.2061,0.8100
34.0061,0.8100
33.9679,0.8024
33.9354,0.7807
33.9137,0.7483
33.9061,0.7100
Z" /> 
<path style="fill:#B4A09A; fill-opacity:0.9000; stroke:none;fill-rule:evenodd;"
d="M 33.2561,0.4600
33.2637,0.4217
33.2854,0.3893
33.3179,0.3676
33.3561,0.3600
33.5561,0.3600
33.5944,0.3676
33.6268,0.3893
33.6485,0.4217
33.6561,0.4600
33.6561,0.7100
33.6485,0.7483
33.6268,0.7807
33.5944,0.8024
33.5561,0.8100
33.3561,0.8100
33.3179,0.8024
33.2854,0.7807
33.2637,0.7483
33.2561,0.7100
Z" /> 
<path style="fill:#B4A09A; fill-opacity:0.9000; stroke:none;fill-rule:evenodd;"
d="M 32.6061,0.4600
32.6137,0.4217
32.6354,0.3893
32.6679,0.3676
32.7061,0.3600
32.9061,0.3600
32.9444,0.3676
32.9768,0.3893
32.9985,0.4217
33.0061,0.4600
33.0061,0.7100
32.9985,0.7483
32.9768,0.7807
32.9444,0.8024
32.9061,0.8100
32.7061,0.8100
32.6679,0.8024
32.6354,0.7807
32.6137,0.7483
32.6061,0.7100
Z" /> 
<path style="fill:#B4A09A; fill-opacity:0.9000; stroke:none;fill-rule:evenodd;"
d="M 31.9561,0.4600
31.9637,0.4217
31.9854,0.3893
32.0179,0.3676
32.0561,0.3600
32.2561,0.3600
32.2944,0.3676
32.3268,0.3893
32.3485,0.4217
32.3561,0.4600
32.3561,0.7100
32.3485,0.7483
32.3268,0.7807
32.2944,0.8024
32.2561,0.8100
32.0561,0.8100
32.0179,0.8024
31.9854,0.7807
31.9637,0.7483
31.9561,0.7100
Z" /> 
</g>
<g style="fill:none; 
stroke:#F2EDA1; stroke-width:0.1588; stroke-opacity:1; 
stroke-linecap:round; stroke-linejoin:round;">
<text x="33.1311" y="2.9950"
textLength="5.6651" font-size="1.6933" lengthAdjust="spacingAndGlyphs"
text-anchor="middle" opacity="0">REF**</text>
<g class="stroked-text"><desc>REF**</desc>
<path d="M31.4378 2.9393
L31.0145 2.3345
" />
<path d="M30.7121 2.9393
L30.7121 1.6693
" />
<path d="M30.7121 1.6693
L31.1959 1.6693
" />
<path d="M31.1959 1.6693
L31.3168 1.7297
" />
<path d="M31.3168 1.7297
L31.3773 1.7902
" />
<path d="M31.3773 1.7902
L31.4378 1.9112
" />
<path d="M31.4378 1.9112
L31.4378 2.0926
" />
<path d="M31.4378 2.0926
L31.3773 2.2136
" />
<path d="M31.3773 2.2136
L31.3168 2.2740
" />
<path d="M31.3168 2.2740
L31.1959 2.3345
" />
<path d="M31.1959 2.3345
L30.7121 2.3345
" />
<path d="M31.9821 2.2740
L32.4054 2.2740
" />
<path d="M32.5868 2.9393
L31.9821 2.9393
" />
<path d="M31.9821 2.9393
L31.9821 1.6693
" />
<path d="M31.9821 1.6693
L32.5868 1.6693
" />
<path d="M33.5545 2.2740
L33.1311 2.2740
" />
<path d="M33.1311 2.9393
L33.1311 1.6693
" />
<path d="M33.1311 1.6693
L33.7359 1.6693
" />
<path d="M34.4011 1.6693
L34.4011 1.9717
" />
<path d="M34.0987 1.8507
L34.4011 1.9717
" />
<path d="M34.4011 1.9717
L34.7035 1.8507
" />
<path d="M34.2197 2.2136
L34.4011 1.9717
" />
<path d="M34.4011 1.9717
L34.5826 2.2136
" />
<path d="M35.3687 1.6693
L35.3687 1.9717
" />
<path d="M35.0664 1.8507
L35.3687 1.9717
" />
<path d="M35.3687 1.9717
L35.6711 1.8507
" />
<path d="M35.1873 2.2136
L35.3687 1.9717
" />
<path d="M35.3687 1.9717
L35.5502 2.2136
" />
</g></g>
<g style="fill:none; 
stroke:#F2EDA1; stroke-width:0.1200; stroke-opacity:1; 
stroke-linecap:round; stroke-linejoin:round;">
<path d="M31.0211 0.9250
L31.0211 0.4900
" />
<path d="M31.0211 4.4700
L31.0211 3.7950
" />
<path d="M31.6961 0.2500
L31.3211 0.2500
" />
<path d="M31.6961 4.4700
L31.0211 4.4700
" />
<path d="M34.5661 0.2500
L35.2411 0.2500
" />
<path d="M34.5661 4.4700
L35.2411 4.4700
" />
<path d="M35.2411 0.2500
L35.2411 0.9250
" />
<path d="M35.2411 4.4700
L35.2411 3.7950
" />
<path style="fill:#F2EDA1; fill-opacity:1.0000; 
stroke:#F2EDA1; stroke-width:0.1200; stroke-opacity:1; 
stroke-linecap:round; stroke-linejoin:round;fill-rule:evenodd;"
d="M 31.0211,0.2500
30.8811,0.0600
31.1611,0.0600
Z" /> 
</g>
<g style="fill:#FFFFFF; fill-opacity:1.0000; stroke:none;">
<circle cx="32.0311" cy="1.2600" r="0.1000" /> 
</g>
<g style="fill:#FFFFFF; fill-opacity:1.0000; stroke:none;">
<circle cx="32.0311" cy="2.3600" r="0.1000" /> 
</g>
<g style="fill:#FFFFFF; fill-opacity:1.0000; stroke:none;">
<circle cx="32.0311" cy="3.4600" r="0.1000" /> 
</g>
<g style="fill:#FFFFFF; fill-opacity:1.0000; stroke:none;">
<circle cx="33.1311" cy="1.2600" r="0.1000" /> 
</g>
<g style="fill:#FFFFFF; fill-opacity:1.0000; stroke:none;">
<circle cx="33.1311" cy="2.3600" r="0.1000" /> 
</g>
<g style="fill:#FFFFFF; fill-opacity:1.0000; stroke:none;">
<circle cx="33.1311" cy="3.4600" r="0.1000" /> 
</g>
<g style="fill:#FFFFFF; fill-opacity:1.0000; stroke:none;">
<circle cx="34.2311" cy="1.2600" r="0.1000" /> 
</g>
<g style="fill:#FFFFFF; fill-opacity:1.0000; stroke:none;">
<circle cx="34.2311" cy="2.3600" r="0.1000" /> 
</g>
<g style="fill:#FFFFFF; fill-opacity:1.0000; stroke:none;">
<circle cx="34.2311" cy="3.4600" r="0.1000" /> 
</g>
<g style="fill:none; 
stroke:#FF26E2; stroke-width:0.0500; stroke-opacity:1; 
stroke-linecap:round; stroke-linejoin:round;">
<path d="M30.8811 0.1100
L30.8811 4.6100
" />
<path d="M30.8811 4.6100
L35.3811 4.6100
" />
<path d="M35.3811 0.1100
L30.8811 0.1100
" />
<path d="M35.3811 4.6100
L35.3811 0.1100
" />
</g>
<g style="fill:none; 
stroke:#AFAFAF; stroke-width:0.1588; stroke-opacity:1; 
stroke-linecap:round; stroke-linejoin:round;">
<text x="33.1311" y="2.9950"
textLength="66.2622" font-size="1.6933" lengthAdjust="spacingAndGlyphs"
text-anchor="middle" opacity="0">QFN-16-1EP_4x4mm_P0.65mm_EP2.7x2.7mm_PullBack_ThermalVias</text>
<g class="stroked-text"><desc>QFN-16-1EP_4x4mm_P0.65mm_EP2.7x2.7mm_PullBack_ThermalVias</desc>
<path d="M1.2602 3.0602
L1.1392 2.9997
" />
<path d="M1.1392 2.9997
L1.0183 2.8788
" />
<path d="M1.0183 2.8788
L0.8368 2.6974
" />
<path d="M0.8368 2.6974
L0.7159 2.6369
" />
<path d="M0.7159 2.6369
L0.5949 2.6369
" />
<path d="M0.6554 2.9393
L0.5345 2.8788
" />
<path d="M0.5345 2.8788
L0.4135 2.7578
" />
<path d="M0.4135 2.7578
L0.3530 2.5159
" />
<path d="M0.3530 2.5159
L0.3530 2.0926
" />
<path d="M0.3530 2.0926
L0.4135 1.8507
" />
<path d="M0.4135 1.8507
L0.5345 1.7297
" />
<path d="M0.5345 1.7297
L0.6554 1.6693
" />
<path d="M0.6554 1.6693
L0.8973 1.6693
" />
<path d="M0.8973 1.6693
L1.0183 1.7297
" />
<path d="M1.0183 1.7297
L1.1392 1.8507
" />
<path d="M1.1392 1.8507
L1.1997 2.0926
" />
<path d="M1.1997 2.0926
L1.1997 2.5159
" />
<path d="M1.1997 2.5159
L1.1392 2.7578
" />
<path d="M1.1392 2.7578
L1.0183 2.8788
" />
<path d="M1.0183 2.8788
L0.8973 2.9393
" />
<path d="M0.8973 2.9393
L0.6554 2.9393
" />
<path d="M2.1673 2.2740
L1.7440 2.2740
" />
<path d="M1.7440 2.9393
L1.7440 1.6693
" />
<path d="M1.7440 1.6693
L2.3487 1.6693
" />
<path d="M2.8326 2.9393
L2.8326 1.6693
" />
<path d="M2.8326 1.6693
L3.5583 2.9393
" />
<path d="M3.5583 2.9393
L3.5583 1.6693
" />
<path d="M4.1630 2.4555
L5.1306 2.4555
" />
<path d="M6.4006 2.9393
L5.6749 2.9393
" />
<path d="M6.0378 2.9393
L6.0378 1.6693
" />
<path d="M6.0378 1.6693
L5.9168 1.8507
" />
<path d="M5.9168 1.8507
L5.7959 1.9717
" />
<path d="M5.7959 1.9717
L5.6749 2.0321
" />
<path d="M7.4892 1.6693
L7.2473 1.6693
" />
<path d="M7.2473 1.6693
L7.1264 1.7297
" />
<path d="M7.1264 1.7297
L7.0659 1.7902
" />
<path d="M7.0659 1.7902
L6.9449 1.9717
" />
<path d="M6.9449 1.9717
L6.8845 2.2136
" />
<path d="M6.8845 2.2136
L6.8845 2.6974
" />
<path d="M6.8845 2.6974
L6.9449 2.8183
" />
<path d="M6.9449 2.8183
L7.0054 2.8788
" />
<path d="M7.0054 2.8788
L7.1264 2.9393
" />
<path d="M7.1264 2.9393
L7.3683 2.9393
" />
<path d="M7.3683 2.9393
L7.4892 2.8788
" />
<path d="M7.4892 2.8788
L7.5497 2.8183
" />
<path d="M7.5497 2.8183
L7.6102 2.6974
" />
<path d="M7.6102 2.6974
L7.6102 2.3950
" />
<path d="M7.6102 2.3950
L7.5497 2.2740
" />
<path d="M7.5497 2.2740
L7.4892 2.2136
" />
<path d="M7.4892 2.2136
L7.3683 2.1531
" />
<path d="M7.3683 2.1531
L7.1264 2.1531
" />
<path d="M7.1264 2.1531
L7.0054 2.2136
" />
<path d="M7.0054 2.2136
L6.9449 2.2740
" />
<path d="M6.9449 2.2740
L6.8845 2.3950
" />
<path d="M8.1545 2.4555
L9.1221 2.4555
" />
<path d="M10.3921 2.9393
L9.6664 2.9393
" />
<path d="M10.0292 2.9393
L10.0292 1.6693
" />
<path d="M10.0292 1.6693
L9.9083 1.8507
" />
<path d="M9.9083 1.8507
L9.7873 1.9717
" />
<path d="M9.7873 1.9717
L9.6664 2.0321
" />
<path d="M10.9364 2.2740
L11.3597 2.2740
" />
<path d="M11.5411 2.9393
L10.9364 2.9393
" />
<path d="M10.9364 2.9393
L10.9364 1.6693
" />
<path d="M10.9364 1.6693
L11.5411 1.6693
" />
<path d="M12.0854 2.9393
L12.0854 1.6693
" />
<path d="M12.0854 1.6693
L12.5692 1.6693
" />
<path d="M12.5692 1.6693
L12.6902 1.7297
" />
<path d="M12.6902 1.7297
L12.7507 1.7902
" />
<path d="M12.7507 1.7902
L12.8111 1.9112
" />
<path d="M12.8111 1.9112
L12.8111 2.0926
" />
<path d="M12.8111 2.0926
L12.7507 2.2136
" />
<path d="M12.7507 2.2136
L12.6902 2.2740
" />
<path d="M12.6902 2.2740
L12.5692 2.3345
" />
<path d="M12.5692 2.3345
L12.0854 2.3345
" />
<path d="M13.0530 3.0602
L14.0206 3.0602
" />
<path d="M14.8673 2.0926
L14.8673 2.9393
" />
<path d="M14.5649 1.6088
L14.2626 2.5159
" />
<path d="M14.2626 2.5159
L15.0487 2.5159
" />
<path d="M15.4116 2.9393
L16.0768 2.0926
" />
<path d="M15.4116 2.0926
L16.0768 2.9393
" />
<path d="M17.1049 2.0926
L17.1049 2.9393
" />
<path d="M16.8026 1.6088
L16.5002 2.5159
" />
<path d="M16.5002 2.5159
L17.2864 2.5159
" />
<path d="M17.7702 2.9393
L17.7702 2.0926
" />
<path d="M17.7702 2.2136
L17.8306 2.1531
" />
<path d="M17.8306 2.1531
L17.9516 2.0926
" />
<path d="M17.9516 2.0926
L18.1330 2.0926
" />
<path d="M18.1330 2.0926
L18.2540 2.1531
" />
<path d="M18.2540 2.1531
L18.3145 2.2740
" />
<path d="M18.3145 2.2740
L18.3145 2.9393
" />
<path d="M18.3145 2.2740
L18.3749 2.1531
" />
<path d="M18.3749 2.1531
L18.4959 2.0926
" />
<path d="M18.4959 2.0926
L18.6773 2.0926
" />
<path d="M18.6773 2.0926
L18.7983 2.1531
" />
<path d="M18.7983 2.1531
L18.8587 2.2740
" />
<path d="M18.8587 2.2740
L18.8587 2.9393
" />
<path d="M19.4635 2.9393
L19.4635 2.0926
" />
<path d="M19.4635 2.2136
L19.5240 2.1531
" />
<path d="M19.5240 2.1531
L19.6449 2.0926
" />
<path d="M19.6449 2.0926
L19.8264 2.0926
" />
<path d="M19.8264 2.0926
L19.9473 2.1531
" />
<path d="M19.9473 2.1531
L20.0078 2.2740
" />
<path d="M20.0078 2.2740
L20.0078 2.9393
" />
<path d="M20.0078 2.2740
L20.0683 2.1531
" />
<path d="M20.0683 2.1531
L20.1892 2.0926
" />
<path d="M20.1892 2.0926
L20.3706 2.0926
" />
<path d="M20.3706 2.0926
L20.4916 2.1531
" />
<path d="M20.4916 2.1531
L20.5521 2.2740
" />
<path d="M20.5521 2.2740
L20.5521 2.9393
" />
<path d="M20.8545 3.0602
L21.8221 3.0602
" />
<path d="M22.1245 2.9393
L22.1245 1.6693
" />
<path d="M22.1245 1.6693
L22.6083 1.6693
" />
<path d="M22.6083 1.6693
L22.7292 1.7297
" />
<path d="M22.7292 1.7297
L22.7897 1.7902
" />
<path d="M22.7897 1.7902
L22.8502 1.9112
" />
<path d="M22.8502 1.9112
L22.8502 2.0926
" />
<path d="M22.8502 2.0926
L22.7897 2.2136
" />
<path d="M22.7897 2.2136
L22.7292 2.2740
" />
<path d="M22.7292 2.2740
L22.6083 2.3345
" />
<path d="M22.6083 2.3345
L22.1245 2.3345
" />
<path d="M23.6364 1.6693
L23.7573 1.6693
" />
<path d="M23.7573 1.6693
L23.8783 1.7297
" />
<path d="M23.8783 1.7297
L23.9387 1.7902
" />
<path d="M23.9387 1.7902
L23.9992 1.9112
" />
<path d="M23.9992 1.9112
L24.0597 2.1531
" />
<path d="M24.0597 2.1531
L24.0597 2.4555
" />
<path d="M24.0597 2.4555
L23.9992 2.6974
" />
<path d="M23.9992 2.6974
L23.9387 2.8183
" />
<path d="M23.9387 2.8183
L23.8783 2.8788
" />
<path d="M23.8783 2.8788
L23.7573 2.9393
" />
<path d="M23.7573 2.9393
L23.6364 2.9393
" />
<path d="M23.6364 2.9393
L23.5154 2.8788
" />
<path d="M23.5154 2.8788
L23.4549 2.8183
" />
<path d="M23.4549 2.8183
L23.3945 2.6974
" />
<path d="M23.3945 2.6974
L23.3340 2.4555
" />
<path d="M23.3340 2.4555
L23.3340 2.1531
" />
<path d="M23.3340 2.1531
L23.3945 1.9112
" />
<path d="M23.3945 1.9112
L23.4549 1.7902
" />
<path d="M23.4549 1.7902
L23.5154 1.7297
" />
<path d="M23.5154 1.7297
L23.6364 1.6693
" />
<path d="M24.6040 2.8183
L24.6645 2.8788
" />
<path d="M24.6645 2.8788
L24.6040 2.9393
" />
<path d="M24.6040 2.9393
L24.5435 2.8788
" />
<path d="M24.5435 2.8788
L24.6040 2.8183
" />
<path d="M24.6040 2.8183
L24.6040 2.9393
" />
<path d="M25.7530 1.6693
L25.5111 1.6693
" />
<path d="M25.5111 1.6693
L25.3902 1.7297
" />
<path d="M25.3902 1.7297
L25.3297 1.7902
" />
<path d="M25.3297 1.7902
L25.2087 1.9717
" />
<path d="M25.2087 1.9717
L25.1483 2.2136
" />
<path d="M25.1483 2.2136
L25.1483 2.6974
" />
<path d="M25.1483 2.6974
L25.2087 2.8183
" />
<path d="M25.2087 2.8183
L25.2692 2.8788
" />
<path d="M25.2692 2.8788
L25.3902 2.9393
" />
<path d="M25.3902 2.9393
L25.6321 2.9393
" />
<path d="M25.6321 2.9393
L25.7530 2.8788
" />
<path d="M25.7530 2.8788
L25.8135 2.8183
" />
<path d="M25.8135 2.8183
L25.8740 2.6974
" />
<path d="M25.8740 2.6974
L25.8740 2.3950
" />
<path d="M25.8740 2.3950
L25.8135 2.2740
" />
<path d="M25.8135 2.2740
L25.7530 2.2136
" />
<path d="M25.7530 2.2136
L25.6321 2.1531
" />
<path d="M25.6321 2.1531
L25.3902 2.1531
" />
<path d="M25.3902 2.1531
L25.2692 2.2136
" />
<path d="M25.2692 2.2136
L25.2087 2.2740
" />
<path d="M25.2087 2.2740
L25.1483 2.3950
" />
<path d="M27.0230 1.6693
L26.4183 1.6693
" />
<path d="M26.4183 1.6693
L26.3578 2.2740
" />
<path d="M26.3578 2.2740
L26.4183 2.2136
" />
<path d="M26.4183 2.2136
L26.5392 2.1531
" />
<path d="M26.5392 2.1531
L26.8416 2.1531
" />
<path d="M26.8416 2.1531
L26.9626 2.2136
" />
<path d="M26.9626 2.2136
L27.0230 2.2740
" />
<path d="M27.0230 2.2740
L27.0835 2.3950
" />
<path d="M27.0835 2.3950
L27.0835 2.6974
" />
<path d="M27.0835 2.6974
L27.0230 2.8183
" />
<path d="M27.0230 2.8183
L26.9626 2.8788
" />
<path d="M26.9626 2.8788
L26.8416 2.9393
" />
<path d="M26.8416 2.9393
L26.5392 2.9393
" />
<path d="M26.5392 2.9393
L26.4183 2.8788
" />
<path d="M26.4183 2.8788
L26.3578 2.8183
" />
<path d="M27.6278 2.9393
L27.6278 2.0926
" />
<path d="M27.6278 2.2136
L27.6883 2.1531
" />
<path d="M27.6883 2.1531
L27.8092 2.0926
" />
<path d="M27.8092 2.0926
L27.9906 2.0926
" />
<path d="M27.9906 2.0926
L28.1116 2.1531
" />
<path d="M28.1116 2.1531
L28.1721 2.2740
" />
<path d="M28.1721 2.2740
L28.1721 2.9393
" />
<path d="M28.1721 2.2740
L28.2326 2.1531
" />
<path d="M28.2326 2.1531
L28.3535 2.0926
" />
<path d="M28.3535 2.0926
L28.5349 2.0926
" />
<path d="M28.5349 2.0926
L28.6559 2.1531
" />
<path d="M28.6559 2.1531
L28.7164 2.2740
" />
<path d="M28.7164 2.2740
L28.7164 2.9393
" />
<path d="M29.3211 2.9393
L29.3211 2.0926
" />
<path d="M29.3211 2.2136
L29.3816 2.1531
" />
<path d="M29.3816 2.1531
L29.5026 2.0926
" />
<path d="M29.5026 2.0926
L29.6840 2.0926
" />
<path d="M29.6840 2.0926
L29.8049 2.1531
" />
<path d="M29.8049 2.1531
L29.8654 2.2740
" />
<path d="M29.8654 2.2740
L29.8654 2.9393
" />
<path d="M29.8654 2.2740
L29.9259 2.1531
" />
<path d="M29.9259 2.1531
L30.0468 2.0926
" />
<path d="M30.0468 2.0926
L30.2283 2.0926
" />
<path d="M30.2283 2.0926
L30.3492 2.1531
" />
<path d="M30.3492 2.1531
L30.4097 2.2740
" />
<path d="M30.4097 2.2740
L30.4097 2.9393
" />
<path d="M30.7121 3.0602
L31.6797 3.0602
" />
<path d="M31.9821 2.2740
L32.4054 2.2740
" />
<path d="M32.5868 2.9393
L31.9821 2.9393
" />
<path d="M31.9821 2.9393
L31.9821 1.6693
" />
<path d="M31.9821 1.6693
L32.5868 1.6693
" />
<path d="M33.1311 2.9393
L33.1311 1.6693
" />
<path d="M33.1311 1.6693
L33.6149 1.6693
" />
<path d="M33.6149 1.6693
L33.7359 1.7297
" />
<path d="M33.7359 1.7297
L33.7964 1.7902
" />
<path d="M33.7964 1.7902
L33.8568 1.9112
" />
<path d="M33.8568 1.9112
L33.8568 2.0926
" />
<path d="M33.8568 2.0926
L33.7964 2.2136
" />
<path d="M33.7964 2.2136
L33.7359 2.2740
" />
<path d="M33.7359 2.2740
L33.6149 2.3345
" />
<path d="M33.6149 2.3345
L33.1311 2.3345
" />
<path d="M34.3406 1.7902
L34.4011 1.7297
" />
<path d="M34.4011 1.7297
L34.5221 1.6693
" />
<path d="M34.5221 1.6693
L34.8245 1.6693
" />
<path d="M34.8245 1.6693
L34.9454 1.7297
" />
<path d="M34.9454 1.7297
L35.0059 1.7902
" />
<path d="M35.0059 1.7902
L35.0664 1.9112
" />
<path d="M35.0664 1.9112
L35.0664 2.0321
" />
<path d="M35.0664 2.0321
L35.0059 2.2136
" />
<path d="M35.0059 2.2136
L34.2802 2.9393
" />
<path d="M34.2802 2.9393
L35.0664 2.9393
" />
<path d="M35.6106 2.8183
L35.6711 2.8788
" />
<path d="M35.6711 2.8788
L35.6106 2.9393
" />
<path d="M35.6106 2.9393
L35.5502 2.8788
" />
<path d="M35.5502 2.8788
L35.6106 2.8183
" />
<path d="M35.6106 2.8183
L35.6106 2.9393
" />
<path d="M36.0945 1.6693
L36.9411 1.6693
" />
<path d="M36.9411 1.6693
L36.3968 2.9393
" />
<path d="M37.3040 2.9393
L37.9692 2.0926
" />
<path d="M37.3040 2.0926
L37.9692 2.9393
" />
<path d="M38.3926 1.7902
L38.4530 1.7297
" />
<path d="M38.4530 1.7297
L38.5740 1.6693
" />
<path d="M38.5740 1.6693
L38.8764 1.6693
" />
<path d="M38.8764 1.6693
L38.9973 1.7297
" />
<path d="M38.9973 1.7297
L39.0578 1.7902
" />
<path d="M39.0578 1.7902
L39.1183 1.9112
" />
<path d="M39.1183 1.9112
L39.1183 2.0321
" />
<path d="M39.1183 2.0321
L39.0578 2.2136
" />
<path d="M39.0578 2.2136
L38.3321 2.9393
" />
<path d="M38.3321 2.9393
L39.1183 2.9393
" />
<path d="M39.6626 2.8183
L39.7230 2.8788
" />
<path d="M39.7230 2.8788
L39.6626 2.9393
" />
<path d="M39.6626 2.9393
L39.6021 2.8788
" />
<path d="M39.6021 2.8788
L39.6626 2.8183
" />
<path d="M39.6626 2.8183
L39.6626 2.9393
" />
<path d="M40.1464 1.6693
L40.9930 1.6693
" />
<path d="M40.9930 1.6693
L40.4487 2.9393
" />
<path d="M41.4768 2.9393
L41.4768 2.0926
" />
<path d="M41.4768 2.2136
L41.5373 2.1531
" />
<path d="M41.5373 2.1531
L41.6583 2.0926
" />
<path d="M41.6583 2.0926
L41.8397 2.0926
" />
<path d="M41.8397 2.0926
L41.9606 2.1531
" />
<path d="M41.9606 2.1531
L42.0211 2.2740
" />
<path d="M42.0211 2.2740
L42.0211 2.9393
" />
<path d="M42.0211 2.2740
L42.0816 2.1531
" />
<path d="M42.0816 2.1531
L42.2026 2.0926
" />
<path d="M42.2026 2.0926
L42.3840 2.0926
" />
<path d="M42.3840 2.0926
L42.5049 2.1531
" />
<path d="M42.5049 2.1531
L42.5654 2.2740
" />
<path d="M42.5654 2.2740
L42.5654 2.9393
" />
<path d="M43.1702 2.9393
L43.1702 2.0926
" />
<path d="M43.1702 2.2136
L43.2306 2.1531
" />
<path d="M43.2306 2.1531
L43.3516 2.0926
" />
<path d="M43.3516 2.0926
L43.5330 2.0926
" />
<path d="M43.5330 2.0926
L43.6540 2.1531
" />
<path d="M43.6540 2.1531
L43.7145 2.2740
" />
<path d="M43.7145 2.2740
L43.7145 2.9393
" />
<path d="M43.7145 2.2740
L43.7749 2.1531
" />
<path d="M43.7749 2.1531
L43.8959 2.0926
" />
<path d="M43.8959 2.0926
L44.0773 2.0926
" />
<path d="M44.0773 2.0926
L44.1983 2.1531
" />
<path d="M44.1983 2.1531
L44.2587 2.2740
" />
<path d="M44.2587 2.2740
L44.2587 2.9393
" />
<path d="M44.5611 3.0602
L45.5287 3.0602
" />
<path d="M45.8311 2.9393
L45.8311 1.6693
" />
<path d="M45.8311 1.6693
L46.3149 1.6693
" />
<path d="M46.3149 1.6693
L46.4359 1.7297
" />
<path d="M46.4359 1.7297
L46.4964 1.7902
" />
<path d="M46.4964 1.7902
L46.5568 1.9112
" />
<path d="M46.5568 1.9112
L46.5568 2.0926
" />
<path d="M46.5568 2.0926
L46.4964 2.2136
" />
<path d="M46.4964 2.2136
L46.4359 2.2740
" />
<path d="M46.4359 2.2740
L46.3149 2.3345
" />
<path d="M46.3149 2.3345
L45.8311 2.3345
" />
<path d="M47.6454 2.0926
L47.6454 2.9393
" />
<path d="M47.1011 2.0926
L47.1011 2.7578
" />
<path d="M47.1011 2.7578
L47.1616 2.8788
" />
<path d="M47.1616 2.8788
L47.2826 2.9393
" />
<path d="M47.2826 2.9393
L47.4640 2.9393
" />
<path d="M47.4640 2.9393
L47.5849 2.8788
" />
<path d="M47.5849 2.8788
L47.6454 2.8183
" />
<path d="M48.4316 2.9393
L48.3106 2.8788
" />
<path d="M48.3106 2.8788
L48.2502 2.7578
" />
<path d="M48.2502 2.7578
L48.2502 1.6693
" />
<path d="M49.0968 2.9393
L48.9759 2.8788
" />
<path d="M48.9759 2.8788
L48.9154 2.7578
" />
<path d="M48.9154 2.7578
L48.9154 1.6693
" />
<path d="M50.0040 2.2740
L50.1854 2.3345
" />
<path d="M50.1854 2.3345
L50.2459 2.3950
" />
<path d="M50.2459 2.3950
L50.3064 2.5159
" />
<path d="M50.3064 2.5159
L50.3064 2.6974
" />
<path d="M50.3064 2.6974
L50.2459 2.8183
" />
<path d="M50.2459 2.8183
L50.1854 2.8788
" />
<path d="M50.1854 2.8788
L50.0645 2.9393
" />
<path d="M50.0645 2.9393
L49.5806 2.9393
" />
<path d="M49.5806 2.9393
L49.5806 1.6693
" />
<path d="M49.5806 1.6693
L50.0040 1.6693
" />
<path d="M50.0040 1.6693
L50.1249 1.7297
" />
<path d="M50.1249 1.7297
L50.1854 1.7902
" />
<path d="M50.1854 1.7902
L50.2459 1.9112
" />
<path d="M50.2459 1.9112
L50.2459 2.0321
" />
<path d="M50.2459 2.0321
L50.1854 2.1531
" />
<path d="M50.1854 2.1531
L50.1249 2.2136
" />
<path d="M50.1249 2.2136
L50.0040 2.2740
" />
<path d="M50.0040 2.2740
L49.5806 2.2740
" />
<path d="M51.3949 2.9393
L51.3949 2.2740
" />
<path d="M51.3949 2.2740
L51.3345 2.1531
" />
<path d="M51.3345 2.1531
L51.2135 2.0926
" />
<path d="M51.2135 2.0926
L50.9716 2.0926
" />
<path d="M50.9716 2.0926
L50.8506 2.1531
" />
<path d="M51.3949 2.8788
L51.2740 2.9393
" />
<path d="M51.2740 2.9393
L50.9716 2.9393
" />
<path d="M50.9716 2.9393
L50.8506 2.8788
" />
<path d="M50.8506 2.8788
L50.7902 2.7578
" />
<path d="M50.7902 2.7578
L50.7902 2.6369
" />
<path d="M50.7902 2.6369
L50.8506 2.5159
" />
<path d="M50.8506 2.5159
L50.9716 2.4555
" />
<path d="M50.9716 2.4555
L51.2740 2.4555
" />
<path d="M51.2740 2.4555
L51.3949 2.3950
" />
<path d="M52.5440 2.8788
L52.4230 2.9393
" />
<path d="M52.4230 2.9393
L52.1811 2.9393
" />
<path d="M52.1811 2.9393
L52.0602 2.8788
" />
<path d="M52.0602 2.8788
L51.9997 2.8183
" />
<path d="M51.9997 2.8183
L51.9392 2.6974
" />
<path d="M51.9392 2.6974
L51.9392 2.3345
" />
<path d="M51.9392 2.3345
L51.9997 2.2136
" />
<path d="M51.9997 2.2136
L52.0602 2.1531
" />
<path d="M52.0602 2.1531
L52.1811 2.0926
" />
<path d="M52.1811 2.0926
L52.4230 2.0926
" />
<path d="M52.4230 2.0926
L52.5440 2.1531
" />
<path d="M53.0883 2.9393
L53.0883 1.6693
" />
<path d="M53.2092 2.4555
L53.5721 2.9393
" />
<path d="M53.5721 2.0926
L53.0883 2.5764
" />
<path d="M53.8140 3.0602
L54.7816 3.0602
" />
<path d="M54.9026 1.6693
L55.6283 1.6693
" />
<path d="M55.2654 2.9393
L55.2654 1.6693
" />
<path d="M56.0516 2.9393
L56.0516 1.6693
" />
<path d="M56.5959 2.9393
L56.5959 2.2740
" />
<path d="M56.5959 2.2740
L56.5354 2.1531
" />
<path d="M56.5354 2.1531
L56.4145 2.0926
" />
<path d="M56.4145 2.0926
L56.2330 2.0926
" />
<path d="M56.2330 2.0926
L56.1121 2.1531
" />
<path d="M56.1121 2.1531
L56.0516 2.2136
" />
<path d="M57.6845 2.8788
L57.5635 2.9393
" />
<path d="M57.5635 2.9393
L57.3216 2.9393
" />
<path d="M57.3216 2.9393
L57.2006 2.8788
" />
<path d="M57.2006 2.8788
L57.1402 2.7578
" />
<path d="M57.1402 2.7578
L57.1402 2.2740
" />
<path d="M57.1402 2.2740
L57.2006 2.1531
" />
<path d="M57.2006 2.1531
L57.3216 2.0926
" />
<path d="M57.3216 2.0926
L57.5635 2.0926
" />
<path d="M57.5635 2.0926
L57.6845 2.1531
" />
<path d="M57.6845 2.1531
L57.7449 2.2740
" />
<path d="M57.7449 2.2740
L57.7449 2.3950
" />
<path d="M57.7449 2.3950
L57.1402 2.5159
" />
<path d="M58.2892 2.9393
L58.2892 2.0926
" />
<path d="M58.2892 2.3345
L58.3497 2.2136
" />
<path d="M58.3497 2.2136
L58.4102 2.1531
" />
<path d="M58.4102 2.1531
L58.5311 2.0926
" />
<path d="M58.5311 2.0926
L58.6521 2.0926
" />
<path d="M59.0754 2.9393
L59.0754 2.0926
" />
<path d="M59.0754 2.2136
L59.1359 2.1531
" />
<path d="M59.1359 2.1531
L59.2568 2.0926
" />
<path d="M59.2568 2.0926
L59.4383 2.0926
" />
<path d="M59.4383 2.0926
L59.5592 2.1531
" />
<path d="M59.5592 2.1531
L59.6197 2.2740
" />
<path d="M59.6197 2.2740
L59.6197 2.9393
" />
<path d="M59.6197 2.2740
L59.6802 2.1531
" />
<path d="M59.6802 2.1531
L59.8011 2.0926
" />
<path d="M59.8011 2.0926
L59.9826 2.0926
" />
<path d="M59.9826 2.0926
L60.1035 2.1531
" />
<path d="M60.1035 2.1531
L60.1640 2.2740
" />
<path d="M60.1640 2.2740
L60.1640 2.9393
" />
<path d="M61.3130 2.9393
L61.3130 2.2740
" />
<path d="M61.3130 2.2740
L61.2526 2.1531
" />
<path d="M61.2526 2.1531
L61.1316 2.0926
" />
<path d="M61.1316 2.0926
L60.8897 2.0926
" />
<path d="M60.8897 2.0926
L60.7687 2.1531
" />
<path d="M61.3130 2.8788
L61.1921 2.9393
" />
<path d="M61.1921 2.9393
L60.8897 2.9393
" />
<path d="M60.8897 2.9393
L60.7687 2.8788
" />
<path d="M60.7687 2.8788
L60.7083 2.7578
" />
<path d="M60.7083 2.7578
L60.7083 2.6369
" />
<path d="M60.7083 2.6369
L60.7687 2.5159
" />
<path d="M60.7687 2.5159
L60.8897 2.4555
" />
<path d="M60.8897 2.4555
L61.1921 2.4555
" />
<path d="M61.1921 2.4555
L61.3130 2.3950
" />
<path d="M62.0992 2.9393
L61.9783 2.8788
" />
<path d="M61.9783 2.8788
L61.9178 2.7578
" />
<path d="M61.9178 2.7578
L61.9178 1.6693
" />
<path d="M62.4016 1.6693
L62.8249 2.9393
" />
<path d="M62.8249 2.9393
L63.2483 1.6693
" />
<path d="M63.6716 2.9393
L63.6716 2.0926
" />
<path d="M63.6716 1.6693
L63.6111 1.7297
" />
<path d="M63.6111 1.7297
L63.6716 1.7902
" />
<path d="M63.6716 1.7902
L63.7321 1.7297
" />
<path d="M63.7321 1.7297
L63.6716 1.6693
" />
<path d="M63.6716 1.6693
L63.6716 1.7902
" />
<path d="M64.8206 2.9393
L64.8206 2.2740
" />
<path d="M64.8206 2.2740
L64.7602 2.1531
" />
<path d="M64.7602 2.1531
L64.6392 2.0926
" />
<path d="M64.6392 2.0926
L64.3973 2.0926
" />
<path d="M64.3973 2.0926
L64.2764 2.1531
" />
<path d="M64.8206 2.8788
L64.6997 2.9393
" />
<path d="M64.6997 2.9393
L64.3973 2.9393
" />
<path d="M64.3973 2.9393
L64.2764 2.8788
" />
<path d="M64.2764 2.8788
L64.2159 2.7578
" />
<path d="M64.2159 2.7578
L64.2159 2.6369
" />
<path d="M64.2159 2.6369
L64.2764 2.5159
" />
<path d="M64.2764 2.5159
L64.3973 2.4555
" />
<path d="M64.3973 2.4555
L64.6997 2.4555
" />
<path d="M64.6997 2.4555
L64.8206 2.3950
" />
<path d="M65.3649 2.8788
L65.4859 2.9393
" />
<path d="M65.4859 2.9393
L65.7278 2.9393
" />
<path d="M65.7278 2.9393
L65.8487 2.8788
" />
<path d="M65.8487 2.8788
L65.9092 2.7578
" />
<path d="M65.9092 2.7578
L65.9092 2.6974
" />
<path d="M65.9092 2.6974
L65.8487 2.5764
" />
<path d="M65.8487 2.5764
L65.7278 2.5159
" />
<path d="M65.7278 2.5159
L65.5464 2.5159
" />
<path d="M65.5464 2.5159
L65.4254 2.4555
" />
<path d="M65.4254 2.4555
L65.3649 2.3345
" />
<path d="M65.3649 2.3345
L65.3649 2.2740
" />
<path d="M65.3649 2.2740
L65.4254 2.1531
" />
<path d="M65.4254 2.1531
L65.5464 2.0926
" />
<path d="M65.5464 2.0926
L65.7278 2.0926
" />
<path d="M65.7278 2.0926
L65.8487 2.1531
" />
</g></g>
<g style="fill:none; 
stroke:#AFAFAF; stroke-width:0.1500; stroke-opacity:1; 
stroke-linecap:round; stroke-linejoin:round;">
<text x="33.1311" y="2.8600"
textLength="4.5357" font-size="1.3333" lengthAdjust="spacingAndGlyphs"
text-anchor="middle" opacity="0">REF**</text>
<g class="stroked-text"><desc>REF**</desc>
<path d="M31.7978 2.8148
L31.4645 2.3386
" />
<path d="M31.2264 2.8148
L31.2264 1.8148
" />
<path d="M31.2264 1.8148
L31.6073 1.8148
" />
<path d="M31.6073 1.8148
L31.7026 1.8624
" />
<path d="M31.7026 1.8624
L31.7502 1.9101
" />
<path d="M31.7502 1.9101
L31.7978 2.0053
" />
<path d="M31.7978 2.0053
L31.7978 2.1482
" />
<path d="M31.7978 2.1482
L31.7502 2.2434
" />
<path d="M31.7502 2.2434
L31.7026 2.2910
" />
<path d="M31.7026 2.2910
L31.6073 2.3386
" />
<path d="M31.6073 2.3386
L31.2264 2.3386
" />
<path d="M32.2264 2.2910
L32.5597 2.2910
" />
<path d="M32.7026 2.8148
L32.2264 2.8148
" />
<path d="M32.2264 2.8148
L32.2264 1.8148
" />
<path d="M32.2264 1.8148
L32.7026 1.8148
" />
<path d="M33.4645 2.2910
L33.1311 2.2910
" />
<path d="M33.1311 2.8148
L33.1311 1.8148
" />
<path d="M33.1311 1.8148
L33.6073 1.8148
" />
<path d="M34.1311 1.8148
L34.1311 2.0529
" />
<path d="M33.8930 1.9577
L34.1311 2.0529
" />
<path d="M34.1311 2.0529
L34.3692 1.9577
" />
<path d="M33.9883 2.2434
L34.1311 2.0529
" />
<path d="M34.1311 2.0529
L34.2740 2.2434
" />
<path d="M34.8930 1.8148
L34.8930 2.0529
" />
<path d="M34.6549 1.9577
L34.8930 2.0529
" />
<path d="M34.8930 2.0529
L35.1311 1.9577
" />
<path d="M34.7502 2.2434
L34.8930 2.0529
" />
<path d="M34.8930 2.0529
L35.0359 2.2434
" />
</g></g>
<g style="fill:none; 
stroke:#AFAFAF; stroke-width:0.1000; stroke-opacity:1; 
stroke-linecap:round; stroke-linejoin:round;">
<path d="M31.1311 1.3600
L32.1311 0.3600
" />
<path d="M31.1311 4.3600
L31.1311 1.3600
" />
<path d="M32.1311 0.3600
L35.1311 0.3600
" />
<path d="M35.1311 0.3600
L35.1311 4.3600
" />
<path d="M35.1311 4.3600
L31.1311 4.3600
" />
</g> 
</svg>
