<?xml version="1.0" standalone="no"?>
 <!DOCTYPE svg PUBLIC "-//W3C//DTD SVG 1.1//EN" 
 "http://www.w3.org/Graphics/SVG/1.1/DTD/svg11.dtd"> 
<svg
  xmlns:svg="http://www.w3.org/2000/svg"
  xmlns="http://www.w3.org/2000/svg"
  xmlns:xlink="http://www.w3.org/1999/xlink"
  version="1.1"
  width="43.0784mm" height="18.9992mm" viewBox="0.0000 0.0000 43.0784 18.9992">
<title>SVG Image created as working-brd.svg date 2024/04/05 00:19:17 </title>
  <desc>Image generated by PCBNEW </desc>
<g style="fill:#000000; fill-opacity:1.0000;stroke:#000000; stroke-opacity:1.0000;
stroke-linecap:round; stroke-linejoin:round;"
 transform="translate(0 0) scale(1 1)">
</g>
<g style="fill:#FFFFFF; fill-opacity:1.0000; stroke:none;">
<circle cx="30.4399" cy="3.7850" r="1.6000" /> 
</g>
<g style="fill:#FFFFFF; fill-opacity:1.0000; stroke:none;">
<circle cx="30.4399" cy="15.2150" r="1.6000" /> 
</g>
<g style="fill:#FFFFFF; fill-opacity:1.0000; stroke:none;">
<circle cx="21.5499" cy="5.0550" r="0.4450" /> 
</g>
<g style="fill:#FFFFFF; fill-opacity:1.0000; stroke:none;">
<circle cx="24.0899" cy="6.3250" r="0.4450" /> 
</g>
<g style="fill:#FFFFFF; fill-opacity:1.0000; stroke:none;">
<circle cx="21.5499" cy="7.5950" r="0.4450" /> 
</g>
<g style="fill:#FFFFFF; fill-opacity:1.0000; stroke:none;">
<circle cx="24.0899" cy="8.8650" r="0.4450" /> 
</g>
<g style="fill:#FFFFFF; fill-opacity:1.0000; stroke:none;">
<circle cx="21.5499" cy="10.1350" r="0.4450" /> 
</g>
<g style="fill:#FFFFFF; fill-opacity:1.0000; stroke:none;">
<circle cx="24.0899" cy="11.4050" r="0.4450" /> 
</g>
<g style="fill:#FFFFFF; fill-opacity:1.0000; stroke:none;">
<circle cx="21.5499" cy="12.6750" r="0.4450" /> 
</g>
<g style="fill:#FFFFFF; fill-opacity:1.0000; stroke:none;">
<circle cx="24.0899" cy="13.9450" r="0.4450" /> 
</g>
<g style="fill:#FFFFFF; fill-opacity:1.0000; stroke:none;">
<circle cx="24.0899" cy="3.7850" r="0.4450" /> 
</g>
<g style="fill:#FFFFFF; fill-opacity:1.0000; stroke:none;">
<circle cx="21.5499" cy="15.2150" r="0.4450" /> 
</g>
<g style="fill:#FFFFFF; fill-opacity:1.0000; stroke:none;">
<circle cx="35.0099" cy="2.7750" r="0.5100" /> 
</g>
<g style="fill:#FFFFFF; fill-opacity:1.0000; stroke:none;">
<circle cx="32.9799" cy="2.7750" r="0.5100" /> 
</g>
<g style="fill:#FFFFFF; fill-opacity:1.0000; stroke:none;">
<circle cx="35.0099" cy="16.2250" r="0.5100" /> 
</g>
<g style="fill:#FFFFFF; fill-opacity:1.0000; stroke:none;">
<circle cx="32.9799" cy="16.2250" r="0.5100" /> 
</g>
<g style="fill:#FFFFFF; fill-opacity:1.0000; stroke:none;">
<circle cx="27.3899" cy="1.6250" r="0.8150" /> 
</g>
<g style="fill:#FFFFFF; fill-opacity:1.0000; stroke:none;">
<circle cx="27.3899" cy="17.3750" r="0.8150" /> 
</g>
<g style="fill:#02FFEE; fill-opacity:0.4000; stroke:none;">
<circle cx="30.4399" cy="3.7850" r="1.6000" /> 
</g>
<g style="fill:#02FFEE; fill-opacity:0.4000; stroke:none;">
<circle cx="30.4399" cy="15.2150" r="1.6000" /> 
<path style="fill:#02FFEE; fill-opacity:0.4000; stroke:none;fill-rule:evenodd;"
d="M 20.9979,5.8550
20.9030,5.8361
20.8226,5.7824
20.7688,5.7019
20.7499,5.6070
20.7499,4.5030
20.7688,4.4081
20.8226,4.3276
20.9030,4.2739
20.9979,4.2550
22.1019,4.2550
22.1968,4.2739
22.2773,4.3276
22.3311,4.4081
22.3499,4.5030
22.3499,5.6070
22.3311,5.7019
22.2773,5.7824
22.1968,5.8361
22.1019,5.8550
Z" /> 
</g>
<g style="fill:#02FFEE; fill-opacity:0.4000; stroke:none;">
<circle cx="24.0899" cy="6.3250" r="0.8000" /> 
</g>
<g style="fill:#02FFEE; fill-opacity:0.4000; stroke:none;">
<circle cx="21.5499" cy="7.5950" r="0.8000" /> 
</g>
<g style="fill:#02FFEE; fill-opacity:0.4000; stroke:none;">
<circle cx="24.0899" cy="8.8650" r="0.8000" /> 
</g>
<g style="fill:#02FFEE; fill-opacity:0.4000; stroke:none;">
<circle cx="21.5499" cy="10.1350" r="0.8000" /> 
</g>
<g style="fill:#02FFEE; fill-opacity:0.4000; stroke:none;">
<circle cx="24.0899" cy="11.4050" r="0.8000" /> 
</g>
<g style="fill:#02FFEE; fill-opacity:0.4000; stroke:none;">
<circle cx="21.5499" cy="12.6750" r="0.8000" /> 
</g>
<g style="fill:#02FFEE; fill-opacity:0.4000; stroke:none;">
<circle cx="24.0899" cy="13.9450" r="0.8000" /> 
</g>
<g style="fill:#02FFEE; fill-opacity:0.4000; stroke:none;">
<circle cx="24.0899" cy="3.7850" r="0.8000" /> 
</g>
<g style="fill:#02FFEE; fill-opacity:0.4000; stroke:none;">
<circle cx="21.5499" cy="15.2150" r="0.8000" /> 
</g>
<g style="fill:#02FFEE; fill-opacity:0.4000; stroke:none;">
<circle cx="35.0099" cy="2.7750" r="0.8600" /> 
</g>
<g style="fill:#02FFEE; fill-opacity:0.4000; stroke:none;">
<circle cx="32.9799" cy="2.7750" r="0.8600" /> 
</g>
<g style="fill:#02FFEE; fill-opacity:0.4000; stroke:none;">
<circle cx="35.0099" cy="16.2250" r="0.8600" /> 
</g>
<g style="fill:#02FFEE; fill-opacity:0.4000; stroke:none;">
<circle cx="32.9799" cy="16.2250" r="0.8600" /> 
</g>
<g style="fill:#02FFEE; fill-opacity:0.4000; stroke:none;">
<circle cx="27.3899" cy="1.6250" r="1.1000" /> 
</g>
<g style="fill:#02FFEE; fill-opacity:0.4000; stroke:none;">
<circle cx="27.3899" cy="17.3750" r="1.1000" /> 
</g>
<g style="fill:#FFFFFF; fill-opacity:1.0000; stroke:none;">
<circle cx="30.4399" cy="3.7850" r="1.6000" /> 
</g>
<g style="fill:#FFFFFF; fill-opacity:1.0000; stroke:none;">
<circle cx="30.4399" cy="15.2150" r="1.6000" /> 
</g>
<g style="fill:#FFFFFF; fill-opacity:1.0000; stroke:none;">
<circle cx="21.5499" cy="5.0550" r="0.4450" /> 
</g>
<g style="fill:#FFFFFF; fill-opacity:1.0000; stroke:none;">
<circle cx="24.0899" cy="6.3250" r="0.4450" /> 
</g>
<g style="fill:#FFFFFF; fill-opacity:1.0000; stroke:none;">
<circle cx="21.5499" cy="7.5950" r="0.4450" /> 
</g>
<g style="fill:#FFFFFF; fill-opacity:1.0000; stroke:none;">
<circle cx="24.0899" cy="8.8650" r="0.4450" /> 
</g>
<g style="fill:#FFFFFF; fill-opacity:1.0000; stroke:none;">
<circle cx="21.5499" cy="10.1350" r="0.4450" /> 
</g>
<g style="fill:#FFFFFF; fill-opacity:1.0000; stroke:none;">
<circle cx="24.0899" cy="11.4050" r="0.4450" /> 
</g>
<g style="fill:#FFFFFF; fill-opacity:1.0000; stroke:none;">
<circle cx="21.5499" cy="12.6750" r="0.4450" /> 
</g>
<g style="fill:#FFFFFF; fill-opacity:1.0000; stroke:none;">
<circle cx="24.0899" cy="13.9450" r="0.4450" /> 
</g>
<g style="fill:#FFFFFF; fill-opacity:1.0000; stroke:none;">
<circle cx="24.0899" cy="3.7850" r="0.4450" /> 
</g>
<g style="fill:#FFFFFF; fill-opacity:1.0000; stroke:none;">
<circle cx="21.5499" cy="15.2150" r="0.4450" /> 
</g>
<g style="fill:#FFFFFF; fill-opacity:1.0000; stroke:none;">
<circle cx="35.0099" cy="2.7750" r="0.5100" /> 
</g>
<g style="fill:#FFFFFF; fill-opacity:1.0000; stroke:none;">
<circle cx="32.9799" cy="2.7750" r="0.5100" /> 
</g>
<g style="fill:#FFFFFF; fill-opacity:1.0000; stroke:none;">
<circle cx="35.0099" cy="16.2250" r="0.5100" /> 
</g>
<g style="fill:#FFFFFF; fill-opacity:1.0000; stroke:none;">
<circle cx="32.9799" cy="16.2250" r="0.5100" /> 
</g>
<g style="fill:#FFFFFF; fill-opacity:1.0000; stroke:none;">
<circle cx="27.3899" cy="1.6250" r="0.8150" /> 
</g>
<g style="fill:#FFFFFF; fill-opacity:1.0000; stroke:none;">
<circle cx="27.3899" cy="17.3750" r="0.8150" /> 
</g>
<g style="fill:#FFFFFF; fill-opacity:1.0000; stroke:none;">
<circle cx="30.4399" cy="3.7850" r="1.6000" /> 
</g>
<g style="fill:#FFFFFF; fill-opacity:1.0000; stroke:none;">
<circle cx="30.4399" cy="15.2150" r="1.6000" /> 
</g>
<g style="fill:#FFFFFF; fill-opacity:1.0000; stroke:none;">
<circle cx="21.5499" cy="5.0550" r="0.4450" /> 
</g>
<g style="fill:#FFFFFF; fill-opacity:1.0000; stroke:none;">
<circle cx="24.0899" cy="6.3250" r="0.4450" /> 
</g>
<g style="fill:#FFFFFF; fill-opacity:1.0000; stroke:none;">
<circle cx="21.5499" cy="7.5950" r="0.4450" /> 
</g>
<g style="fill:#FFFFFF; fill-opacity:1.0000; stroke:none;">
<circle cx="24.0899" cy="8.8650" r="0.4450" /> 
</g>
<g style="fill:#FFFFFF; fill-opacity:1.0000; stroke:none;">
<circle cx="21.5499" cy="10.1350" r="0.4450" /> 
</g>
<g style="fill:#FFFFFF; fill-opacity:1.0000; stroke:none;">
<circle cx="24.0899" cy="11.4050" r="0.4450" /> 
</g>
<g style="fill:#FFFFFF; fill-opacity:1.0000; stroke:none;">
<circle cx="21.5499" cy="12.6750" r="0.4450" /> 
</g>
<g style="fill:#FFFFFF; fill-opacity:1.0000; stroke:none;">
<circle cx="24.0899" cy="13.9450" r="0.4450" /> 
</g>
<g style="fill:#FFFFFF; fill-opacity:1.0000; stroke:none;">
<circle cx="24.0899" cy="3.7850" r="0.4450" /> 
</g>
<g style="fill:#FFFFFF; fill-opacity:1.0000; stroke:none;">
<circle cx="21.5499" cy="15.2150" r="0.4450" /> 
</g>
<g style="fill:#FFFFFF; fill-opacity:1.0000; stroke:none;">
<circle cx="35.0099" cy="2.7750" r="0.5100" /> 
</g>
<g style="fill:#FFFFFF; fill-opacity:1.0000; stroke:none;">
<circle cx="32.9799" cy="2.7750" r="0.5100" /> 
</g>
<g style="fill:#FFFFFF; fill-opacity:1.0000; stroke:none;">
<circle cx="35.0099" cy="16.2250" r="0.5100" /> 
</g>
<g style="fill:#FFFFFF; fill-opacity:1.0000; stroke:none;">
<circle cx="32.9799" cy="16.2250" r="0.5100" /> 
</g>
<g style="fill:#FFFFFF; fill-opacity:1.0000; stroke:none;">
<circle cx="27.3899" cy="1.6250" r="0.8150" /> 
</g>
<g style="fill:#FFFFFF; fill-opacity:1.0000; stroke:none;">
<circle cx="27.3899" cy="17.3750" r="0.8150" /> 
</g>
<g style="fill:#D864FF; fill-opacity:0.4000; stroke:none;">
<circle cx="30.4399" cy="3.7850" r="1.6000" /> 
</g>
<g style="fill:#D864FF; fill-opacity:0.4000; stroke:none;">
<circle cx="30.4399" cy="15.2150" r="1.6000" /> 
<path style="fill:#D864FF; fill-opacity:0.4000; stroke:none;fill-rule:evenodd;"
d="M 20.9979,5.8550
20.9030,5.8361
20.8226,5.7824
20.7688,5.7019
20.7499,5.6070
20.7499,4.5030
20.7688,4.4081
20.8226,4.3276
20.9030,4.2739
20.9979,4.2550
22.1019,4.2550
22.1968,4.2739
22.2773,4.3276
22.3311,4.4081
22.3499,4.5030
22.3499,5.6070
22.3311,5.7019
22.2773,5.7824
22.1968,5.8361
22.1019,5.8550
Z" /> 
</g>
<g style="fill:#D864FF; fill-opacity:0.4000; stroke:none;">
<circle cx="24.0899" cy="6.3250" r="0.8000" /> 
</g>
<g style="fill:#D864FF; fill-opacity:0.4000; stroke:none;">
<circle cx="21.5499" cy="7.5950" r="0.8000" /> 
</g>
<g style="fill:#D864FF; fill-opacity:0.4000; stroke:none;">
<circle cx="24.0899" cy="8.8650" r="0.8000" /> 
</g>
<g style="fill:#D864FF; fill-opacity:0.4000; stroke:none;">
<circle cx="21.5499" cy="10.1350" r="0.8000" /> 
</g>
<g style="fill:#D864FF; fill-opacity:0.4000; stroke:none;">
<circle cx="24.0899" cy="11.4050" r="0.8000" /> 
</g>
<g style="fill:#D864FF; fill-opacity:0.4000; stroke:none;">
<circle cx="21.5499" cy="12.6750" r="0.8000" /> 
</g>
<g style="fill:#D864FF; fill-opacity:0.4000; stroke:none;">
<circle cx="24.0899" cy="13.9450" r="0.8000" /> 
</g>
<g style="fill:#D864FF; fill-opacity:0.4000; stroke:none;">
<circle cx="24.0899" cy="3.7850" r="0.8000" /> 
</g>
<g style="fill:#D864FF; fill-opacity:0.4000; stroke:none;">
<circle cx="21.5499" cy="15.2150" r="0.8000" /> 
</g>
<g style="fill:#D864FF; fill-opacity:0.4000; stroke:none;">
<circle cx="35.0099" cy="2.7750" r="0.8600" /> 
</g>
<g style="fill:#D864FF; fill-opacity:0.4000; stroke:none;">
<circle cx="32.9799" cy="2.7750" r="0.8600" /> 
</g>
<g style="fill:#D864FF; fill-opacity:0.4000; stroke:none;">
<circle cx="35.0099" cy="16.2250" r="0.8600" /> 
</g>
<g style="fill:#D864FF; fill-opacity:0.4000; stroke:none;">
<circle cx="32.9799" cy="16.2250" r="0.8600" /> 
</g>
<g style="fill:#D864FF; fill-opacity:0.4000; stroke:none;">
<circle cx="27.3899" cy="1.6250" r="1.1000" /> 
</g>
<g style="fill:#D864FF; fill-opacity:0.4000; stroke:none;">
<circle cx="27.3899" cy="17.3750" r="1.1000" /> 
</g>
<g style="fill:none; 
stroke:#F2EDA1; stroke-width:0.1588; stroke-opacity:1; 
stroke-linecap:round; stroke-linejoin:round;">
<text x="21.5499" y="5.6900"
textLength="5.6651" font-size="1.6933" lengthAdjust="spacingAndGlyphs"
text-anchor="middle" opacity="0">REF**</text>
<g class="stroked-text"><desc>REF**</desc>
<path d="M19.8566 5.6343
L19.4333 5.0295
" />
<path d="M19.1309 5.6343
L19.1309 4.3643
" />
<path d="M19.1309 4.3643
L19.6147 4.3643
" />
<path d="M19.6147 4.3643
L19.7356 4.4247
" />
<path d="M19.7356 4.4247
L19.7961 4.4852
" />
<path d="M19.7961 4.4852
L19.8566 4.6062
" />
<path d="M19.8566 4.6062
L19.8566 4.7876
" />
<path d="M19.8566 4.7876
L19.7961 4.9086
" />
<path d="M19.7961 4.9086
L19.7356 4.9690
" />
<path d="M19.7356 4.9690
L19.6147 5.0295
" />
<path d="M19.6147 5.0295
L19.1309 5.0295
" />
<path d="M20.4009 4.9690
L20.8242 4.9690
" />
<path d="M21.0056 5.6343
L20.4009 5.6343
" />
<path d="M20.4009 5.6343
L20.4009 4.3643
" />
<path d="M20.4009 4.3643
L21.0056 4.3643
" />
<path d="M21.9733 4.9690
L21.5499 4.9690
" />
<path d="M21.5499 5.6343
L21.5499 4.3643
" />
<path d="M21.5499 4.3643
L22.1547 4.3643
" />
<path d="M22.8199 4.3643
L22.8199 4.6667
" />
<path d="M22.5176 4.5457
L22.8199 4.6667
" />
<path d="M22.8199 4.6667
L23.1223 4.5457
" />
<path d="M22.6385 4.9086
L22.8199 4.6667
" />
<path d="M22.8199 4.6667
L23.0014 4.9086
" />
<path d="M23.7876 4.3643
L23.7876 4.6667
" />
<path d="M23.4852 4.5457
L23.7876 4.6667
" />
<path d="M23.7876 4.6667
L24.0899 4.5457
" />
<path d="M23.6061 4.9086
L23.7876 4.6667
" />
<path d="M23.7876 4.6667
L23.9690 4.9086
" />
</g></g>
<g style="fill:none; 
stroke:#F2EDA1; stroke-width:0.1200; stroke-opacity:1; 
stroke-linecap:round; stroke-linejoin:round;">
<path d="M19.7699 1.4050
L19.7699 17.5950
" />
<path d="M19.7699 17.5950
L26.0199 17.5950
" />
<path d="M20.5499 1.1550
L22.5499 1.1550
" />
<path d="M26.0199 1.4050
L19.7699 1.4050
" />
<path d="M28.7599 17.5950
L41.3599 17.5950
" />
<path d="M41.3599 1.4050
L28.7599 1.4050
" />
<path d="M41.3599 17.5950
L41.3599 1.4050
" />
</g>
<g style="fill:#FFFFFF; fill-opacity:1.0000; stroke:none;">
<circle cx="30.4399" cy="3.7850" r="1.6000" /> 
</g>
<g style="fill:#FFFFFF; fill-opacity:1.0000; stroke:none;">
<circle cx="30.4399" cy="15.2150" r="1.6000" /> 
</g>
<g style="fill:#FFFFFF; fill-opacity:1.0000; stroke:none;">
<circle cx="21.5499" cy="5.0550" r="0.4450" /> 
</g>
<g style="fill:#FFFFFF; fill-opacity:1.0000; stroke:none;">
<circle cx="24.0899" cy="6.3250" r="0.4450" /> 
</g>
<g style="fill:#FFFFFF; fill-opacity:1.0000; stroke:none;">
<circle cx="21.5499" cy="7.5950" r="0.4450" /> 
</g>
<g style="fill:#FFFFFF; fill-opacity:1.0000; stroke:none;">
<circle cx="24.0899" cy="8.8650" r="0.4450" /> 
</g>
<g style="fill:#FFFFFF; fill-opacity:1.0000; stroke:none;">
<circle cx="21.5499" cy="10.1350" r="0.4450" /> 
</g>
<g style="fill:#FFFFFF; fill-opacity:1.0000; stroke:none;">
<circle cx="24.0899" cy="11.4050" r="0.4450" /> 
</g>
<g style="fill:#FFFFFF; fill-opacity:1.0000; stroke:none;">
<circle cx="21.5499" cy="12.6750" r="0.4450" /> 
</g>
<g style="fill:#FFFFFF; fill-opacity:1.0000; stroke:none;">
<circle cx="24.0899" cy="13.9450" r="0.4450" /> 
</g>
<g style="fill:#FFFFFF; fill-opacity:1.0000; stroke:none;">
<circle cx="24.0899" cy="3.7850" r="0.4450" /> 
</g>
<g style="fill:#FFFFFF; fill-opacity:1.0000; stroke:none;">
<circle cx="21.5499" cy="15.2150" r="0.4450" /> 
</g>
<g style="fill:#FFFFFF; fill-opacity:1.0000; stroke:none;">
<circle cx="35.0099" cy="2.7750" r="0.5100" /> 
</g>
<g style="fill:#FFFFFF; fill-opacity:1.0000; stroke:none;">
<circle cx="32.9799" cy="2.7750" r="0.5100" /> 
</g>
<g style="fill:#FFFFFF; fill-opacity:1.0000; stroke:none;">
<circle cx="35.0099" cy="16.2250" r="0.5100" /> 
</g>
<g style="fill:#FFFFFF; fill-opacity:1.0000; stroke:none;">
<circle cx="32.9799" cy="16.2250" r="0.5100" /> 
</g>
<g style="fill:#FFFFFF; fill-opacity:1.0000; stroke:none;">
<circle cx="27.3899" cy="1.6250" r="0.8150" /> 
</g>
<g style="fill:#FFFFFF; fill-opacity:1.0000; stroke:none;">
<circle cx="27.3899" cy="17.3750" r="0.8150" /> 
</g>
<g style="fill:none; 
stroke:#FF26E2; stroke-width:0.0500; stroke-opacity:1; 
stroke-linecap:round; stroke-linejoin:round;">
<path d="M19.3899 0.0250
L19.3899 18.9750
" />
<path d="M41.7399 0.0250
L19.3899 0.0250
" />
<path d="M41.7399 18.9750
L19.3899 18.9750
" />
<path d="M41.7399 18.9750
L41.7399 0.0250
" />
</g>
<g style="fill:none; 
stroke:#AFAFAF; stroke-width:0.1588; stroke-opacity:1; 
stroke-linecap:round; stroke-linejoin:round;">
<text x="21.5499" y="5.6900"
textLength="43.0999" font-size="1.6933" lengthAdjust="spacingAndGlyphs"
text-anchor="middle" opacity="0">RJ45_Kycon_G7LX-A88S7-BP-xx_Horizontal</text>
<g class="stroked-text"><desc>RJ45_Kycon_G7LX-A88S7-BP-xx_Horizontal</desc>
<path d="M1.1392 5.6343
L0.7159 5.0295
" />
<path d="M0.4135 5.6343
L0.4135 4.3643
" />
<path d="M0.4135 4.3643
L0.8973 4.3643
" />
<path d="M0.8973 4.3643
L1.0183 4.4247
" />
<path d="M1.0183 4.4247
L1.0787 4.4852
" />
<path d="M1.0787 4.4852
L1.1392 4.6062
" />
<path d="M1.1392 4.6062
L1.1392 4.7876
" />
<path d="M1.1392 4.7876
L1.0787 4.9086
" />
<path d="M1.0787 4.9086
L1.0183 4.9690
" />
<path d="M1.0183 4.9690
L0.8973 5.0295
" />
<path d="M0.8973 5.0295
L0.4135 5.0295
" />
<path d="M2.0464 4.3643
L2.0464 5.2714
" />
<path d="M2.0464 5.2714
L1.9859 5.4528
" />
<path d="M1.9859 5.4528
L1.8649 5.5738
" />
<path d="M1.8649 5.5738
L1.6835 5.6343
" />
<path d="M1.6835 5.6343
L1.5626 5.6343
" />
<path d="M3.1954 4.7876
L3.1954 5.6343
" />
<path d="M2.8930 4.3038
L2.5906 5.2109
" />
<path d="M2.5906 5.2109
L3.3768 5.2109
" />
<path d="M4.4654 4.3643
L3.8606 4.3643
" />
<path d="M3.8606 4.3643
L3.8002 4.9690
" />
<path d="M3.8002 4.9690
L3.8606 4.9086
" />
<path d="M3.8606 4.9086
L3.9816 4.8481
" />
<path d="M3.9816 4.8481
L4.2840 4.8481
" />
<path d="M4.2840 4.8481
L4.4049 4.9086
" />
<path d="M4.4049 4.9086
L4.4654 4.9690
" />
<path d="M4.4654 4.9690
L4.5259 5.0900
" />
<path d="M4.5259 5.0900
L4.5259 5.3924
" />
<path d="M4.5259 5.3924
L4.4654 5.5133
" />
<path d="M4.4654 5.5133
L4.4049 5.5738
" />
<path d="M4.4049 5.5738
L4.2840 5.6343
" />
<path d="M4.2840 5.6343
L3.9816 5.6343
" />
<path d="M3.9816 5.6343
L3.8606 5.5738
" />
<path d="M3.8606 5.5738
L3.8002 5.5133
" />
<path d="M4.7678 5.7552
L5.7354 5.7552
" />
<path d="M6.0378 5.6343
L6.0378 4.3643
" />
<path d="M6.7635 5.6343
L6.2192 4.9086
" />
<path d="M6.7635 4.3643
L6.0378 5.0900
" />
<path d="M7.1868 4.7876
L7.4892 5.6343
" />
<path d="M7.7916 4.7876
L7.4892 5.6343
" />
<path d="M7.4892 5.6343
L7.3683 5.9367
" />
<path d="M7.3683 5.9367
L7.3078 5.9971
" />
<path d="M7.3078 5.9971
L7.1868 6.0576
" />
<path d="M8.8197 5.5738
L8.6987 5.6343
" />
<path d="M8.6987 5.6343
L8.4568 5.6343
" />
<path d="M8.4568 5.6343
L8.3359 5.5738
" />
<path d="M8.3359 5.5738
L8.2754 5.5133
" />
<path d="M8.2754 5.5133
L8.2149 5.3924
" />
<path d="M8.2149 5.3924
L8.2149 5.0295
" />
<path d="M8.2149 5.0295
L8.2754 4.9086
" />
<path d="M8.2754 4.9086
L8.3359 4.8481
" />
<path d="M8.3359 4.8481
L8.4568 4.7876
" />
<path d="M8.4568 4.7876
L8.6987 4.7876
" />
<path d="M8.6987 4.7876
L8.8197 4.8481
" />
<path d="M9.5454 5.6343
L9.4245 5.5738
" />
<path d="M9.4245 5.5738
L9.3640 5.5133
" />
<path d="M9.3640 5.5133
L9.3035 5.3924
" />
<path d="M9.3035 5.3924
L9.3035 5.0295
" />
<path d="M9.3035 5.0295
L9.3640 4.9086
" />
<path d="M9.3640 4.9086
L9.4245 4.8481
" />
<path d="M9.4245 4.8481
L9.5454 4.7876
" />
<path d="M9.5454 4.7876
L9.7268 4.7876
" />
<path d="M9.7268 4.7876
L9.8478 4.8481
" />
<path d="M9.8478 4.8481
L9.9083 4.9086
" />
<path d="M9.9083 4.9086
L9.9687 5.0295
" />
<path d="M9.9687 5.0295
L9.9687 5.3924
" />
<path d="M9.9687 5.3924
L9.9083 5.5133
" />
<path d="M9.9083 5.5133
L9.8478 5.5738
" />
<path d="M9.8478 5.5738
L9.7268 5.6343
" />
<path d="M9.7268 5.6343
L9.5454 5.6343
" />
<path d="M10.5130 4.7876
L10.5130 5.6343
" />
<path d="M10.5130 4.9086
L10.5735 4.8481
" />
<path d="M10.5735 4.8481
L10.6945 4.7876
" />
<path d="M10.6945 4.7876
L10.8759 4.7876
" />
<path d="M10.8759 4.7876
L10.9968 4.8481
" />
<path d="M10.9968 4.8481
L11.0573 4.9690
" />
<path d="M11.0573 4.9690
L11.0573 5.6343
" />
<path d="M11.3597 5.7552
L12.3273 5.7552
" />
<path d="M13.2949 4.4247
L13.1740 4.3643
" />
<path d="M13.1740 4.3643
L12.9926 4.3643
" />
<path d="M12.9926 4.3643
L12.8111 4.4247
" />
<path d="M12.8111 4.4247
L12.6902 4.5457
" />
<path d="M12.6902 4.5457
L12.6297 4.6667
" />
<path d="M12.6297 4.6667
L12.5692 4.9086
" />
<path d="M12.5692 4.9086
L12.5692 5.0900
" />
<path d="M12.5692 5.0900
L12.6297 5.3319
" />
<path d="M12.6297 5.3319
L12.6902 5.4528
" />
<path d="M12.6902 5.4528
L12.8111 5.5738
" />
<path d="M12.8111 5.5738
L12.9926 5.6343
" />
<path d="M12.9926 5.6343
L13.1135 5.6343
" />
<path d="M13.1135 5.6343
L13.2949 5.5738
" />
<path d="M13.2949 5.5738
L13.3554 5.5133
" />
<path d="M13.3554 5.5133
L13.3554 5.0900
" />
<path d="M13.3554 5.0900
L13.1135 5.0900
" />
<path d="M13.7787 4.3643
L14.6254 4.3643
" />
<path d="M14.6254 4.3643
L14.0811 5.6343
" />
<path d="M15.7140 5.6343
L15.1092 5.6343
" />
<path d="M15.1092 5.6343
L15.1092 4.3643
" />
<path d="M16.0164 4.3643
L16.8630 5.6343
" />
<path d="M16.8630 4.3643
L16.0164 5.6343
" />
<path d="M17.3468 5.1505
L18.3145 5.1505
" />
<path d="M18.8587 5.2714
L19.4635 5.2714
" />
<path d="M18.7378 5.6343
L19.1611 4.3643
" />
<path d="M19.1611 4.3643
L19.5845 5.6343
" />
<path d="M20.1892 4.9086
L20.0683 4.8481
" />
<path d="M20.0683 4.8481
L20.0078 4.7876
" />
<path d="M20.0078 4.7876
L19.9473 4.6667
" />
<path d="M19.9473 4.6667
L19.9473 4.6062
" />
<path d="M19.9473 4.6062
L20.0078 4.4852
" />
<path d="M20.0078 4.4852
L20.0683 4.4247
" />
<path d="M20.0683 4.4247
L20.1892 4.3643
" />
<path d="M20.1892 4.3643
L20.4311 4.3643
" />
<path d="M20.4311 4.3643
L20.5521 4.4247
" />
<path d="M20.5521 4.4247
L20.6126 4.4852
" />
<path d="M20.6126 4.4852
L20.6730 4.6062
" />
<path d="M20.6730 4.6062
L20.6730 4.6667
" />
<path d="M20.6730 4.6667
L20.6126 4.7876
" />
<path d="M20.6126 4.7876
L20.5521 4.8481
" />
<path d="M20.5521 4.8481
L20.4311 4.9086
" />
<path d="M20.4311 4.9086
L20.1892 4.9086
" />
<path d="M20.1892 4.9086
L20.0683 4.9690
" />
<path d="M20.0683 4.9690
L20.0078 5.0295
" />
<path d="M20.0078 5.0295
L19.9473 5.1505
" />
<path d="M19.9473 5.1505
L19.9473 5.3924
" />
<path d="M19.9473 5.3924
L20.0078 5.5133
" />
<path d="M20.0078 5.5133
L20.0683 5.5738
" />
<path d="M20.0683 5.5738
L20.1892 5.6343
" />
<path d="M20.1892 5.6343
L20.4311 5.6343
" />
<path d="M20.4311 5.6343
L20.5521 5.5738
" />
<path d="M20.5521 5.5738
L20.6126 5.5133
" />
<path d="M20.6126 5.5133
L20.6730 5.3924
" />
<path d="M20.6730 5.3924
L20.6730 5.1505
" />
<path d="M20.6730 5.1505
L20.6126 5.0295
" />
<path d="M20.6126 5.0295
L20.5521 4.9690
" />
<path d="M20.5521 4.9690
L20.4311 4.9086
" />
<path d="M21.3987 4.9086
L21.2778 4.8481
" />
<path d="M21.2778 4.8481
L21.2173 4.7876
" />
<path d="M21.2173 4.7876
L21.1568 4.6667
" />
<path d="M21.1568 4.6667
L21.1568 4.6062
" />
<path d="M21.1568 4.6062
L21.2173 4.4852
" />
<path d="M21.2173 4.4852
L21.2778 4.4247
" />
<path d="M21.2778 4.4247
L21.3987 4.3643
" />
<path d="M21.3987 4.3643
L21.6406 4.3643
" />
<path d="M21.6406 4.3643
L21.7616 4.4247
" />
<path d="M21.7616 4.4247
L21.8221 4.4852
" />
<path d="M21.8221 4.4852
L21.8826 4.6062
" />
<path d="M21.8826 4.6062
L21.8826 4.6667
" />
<path d="M21.8826 4.6667
L21.8221 4.7876
" />
<path d="M21.8221 4.7876
L21.7616 4.8481
" />
<path d="M21.7616 4.8481
L21.6406 4.9086
" />
<path d="M21.6406 4.9086
L21.3987 4.9086
" />
<path d="M21.3987 4.9086
L21.2778 4.9690
" />
<path d="M21.2778 4.9690
L21.2173 5.0295
" />
<path d="M21.2173 5.0295
L21.1568 5.1505
" />
<path d="M21.1568 5.1505
L21.1568 5.3924
" />
<path d="M21.1568 5.3924
L21.2173 5.5133
" />
<path d="M21.2173 5.5133
L21.2778 5.5738
" />
<path d="M21.2778 5.5738
L21.3987 5.6343
" />
<path d="M21.3987 5.6343
L21.6406 5.6343
" />
<path d="M21.6406 5.6343
L21.7616 5.5738
" />
<path d="M21.7616 5.5738
L21.8221 5.5133
" />
<path d="M21.8221 5.5133
L21.8826 5.3924
" />
<path d="M21.8826 5.3924
L21.8826 5.1505
" />
<path d="M21.8826 5.1505
L21.8221 5.0295
" />
<path d="M21.8221 5.0295
L21.7616 4.9690
" />
<path d="M21.7616 4.9690
L21.6406 4.9086
" />
<path d="M22.3664 5.5738
L22.5478 5.6343
" />
<path d="M22.5478 5.6343
L22.8502 5.6343
" />
<path d="M22.8502 5.6343
L22.9711 5.5738
" />
<path d="M22.9711 5.5738
L23.0316 5.5133
" />
<path d="M23.0316 5.5133
L23.0921 5.3924
" />
<path d="M23.0921 5.3924
L23.0921 5.2714
" />
<path d="M23.0921 5.2714
L23.0316 5.1505
" />
<path d="M23.0316 5.1505
L22.9711 5.0900
" />
<path d="M22.9711 5.0900
L22.8502 5.0295
" />
<path d="M22.8502 5.0295
L22.6083 4.9690
" />
<path d="M22.6083 4.9690
L22.4873 4.9086
" />
<path d="M22.4873 4.9086
L22.4268 4.8481
" />
<path d="M22.4268 4.8481
L22.3664 4.7271
" />
<path d="M22.3664 4.7271
L22.3664 4.6062
" />
<path d="M22.3664 4.6062
L22.4268 4.4852
" />
<path d="M22.4268 4.4852
L22.4873 4.4247
" />
<path d="M22.4873 4.4247
L22.6083 4.3643
" />
<path d="M22.6083 4.3643
L22.9106 4.3643
" />
<path d="M22.9106 4.3643
L23.0921 4.4247
" />
<path d="M23.5154 4.3643
L24.3621 4.3643
" />
<path d="M24.3621 4.3643
L23.8178 5.6343
" />
<path d="M24.8459 5.1505
L25.8135 5.1505
" />
<path d="M26.8416 4.9690
L27.0230 5.0295
" />
<path d="M27.0230 5.0295
L27.0835 5.0900
" />
<path d="M27.0835 5.0900
L27.1440 5.2109
" />
<path d="M27.1440 5.2109
L27.1440 5.3924
" />
<path d="M27.1440 5.3924
L27.0835 5.5133
" />
<path d="M27.0835 5.5133
L27.0230 5.5738
" />
<path d="M27.0230 5.5738
L26.9021 5.6343
" />
<path d="M26.9021 5.6343
L26.4183 5.6343
" />
<path d="M26.4183 5.6343
L26.4183 4.3643
" />
<path d="M26.4183 4.3643
L26.8416 4.3643
" />
<path d="M26.8416 4.3643
L26.9626 4.4247
" />
<path d="M26.9626 4.4247
L27.0230 4.4852
" />
<path d="M27.0230 4.4852
L27.0835 4.6062
" />
<path d="M27.0835 4.6062
L27.0835 4.7271
" />
<path d="M27.0835 4.7271
L27.0230 4.8481
" />
<path d="M27.0230 4.8481
L26.9626 4.9086
" />
<path d="M26.9626 4.9086
L26.8416 4.9690
" />
<path d="M26.8416 4.9690
L26.4183 4.9690
" />
<path d="M27.6883 5.6343
L27.6883 4.3643
" />
<path d="M27.6883 4.3643
L28.1721 4.3643
" />
<path d="M28.1721 4.3643
L28.2930 4.4247
" />
<path d="M28.2930 4.4247
L28.3535 4.4852
" />
<path d="M28.3535 4.4852
L28.4140 4.6062
" />
<path d="M28.4140 4.6062
L28.4140 4.7876
" />
<path d="M28.4140 4.7876
L28.3535 4.9086
" />
<path d="M28.3535 4.9086
L28.2930 4.9690
" />
<path d="M28.2930 4.9690
L28.1721 5.0295
" />
<path d="M28.1721 5.0295
L27.6883 5.0295
" />
<path d="M28.9583 5.1505
L29.9259 5.1505
" />
<path d="M30.4097 5.6343
L31.0749 4.7876
" />
<path d="M30.4097 4.7876
L31.0749 5.6343
" />
<path d="M31.4378 5.6343
L32.1030 4.7876
" />
<path d="M31.4378 4.7876
L32.1030 5.6343
" />
<path d="M32.2845 5.7552
L33.2521 5.7552
" />
<path d="M33.5545 5.6343
L33.5545 4.3643
" />
<path d="M33.5545 4.9690
L34.2802 4.9690
" />
<path d="M34.2802 5.6343
L34.2802 4.3643
" />
<path d="M35.0664 5.6343
L34.9454 5.5738
" />
<path d="M34.9454 5.5738
L34.8849 5.5133
" />
<path d="M34.8849 5.5133
L34.8245 5.3924
" />
<path d="M34.8245 5.3924
L34.8245 5.0295
" />
<path d="M34.8245 5.0295
L34.8849 4.9086
" />
<path d="M34.8849 4.9086
L34.9454 4.8481
" />
<path d="M34.9454 4.8481
L35.0664 4.7876
" />
<path d="M35.0664 4.7876
L35.2478 4.7876
" />
<path d="M35.2478 4.7876
L35.3687 4.8481
" />
<path d="M35.3687 4.8481
L35.4292 4.9086
" />
<path d="M35.4292 4.9086
L35.4897 5.0295
" />
<path d="M35.4897 5.0295
L35.4897 5.3924
" />
<path d="M35.4897 5.3924
L35.4292 5.5133
" />
<path d="M35.4292 5.5133
L35.3687 5.5738
" />
<path d="M35.3687 5.5738
L35.2478 5.6343
" />
<path d="M35.2478 5.6343
L35.0664 5.6343
" />
<path d="M36.0340 5.6343
L36.0340 4.7876
" />
<path d="M36.0340 5.0295
L36.0945 4.9086
" />
<path d="M36.0945 4.9086
L36.1549 4.8481
" />
<path d="M36.1549 4.8481
L36.2759 4.7876
" />
<path d="M36.2759 4.7876
L36.3968 4.7876
" />
<path d="M36.8202 5.6343
L36.8202 4.7876
" />
<path d="M36.8202 4.3643
L36.7597 4.4247
" />
<path d="M36.7597 4.4247
L36.8202 4.4852
" />
<path d="M36.8202 4.4852
L36.8806 4.4247
" />
<path d="M36.8806 4.4247
L36.8202 4.3643
" />
<path d="M36.8202 4.3643
L36.8202 4.4852
" />
<path d="M37.3040 4.7876
L37.9692 4.7876
" />
<path d="M37.9692 4.7876
L37.3040 5.6343
" />
<path d="M37.3040 5.6343
L37.9692 5.6343
" />
<path d="M38.6345 5.6343
L38.5135 5.5738
" />
<path d="M38.5135 5.5738
L38.4530 5.5133
" />
<path d="M38.4530 5.5133
L38.3926 5.3924
" />
<path d="M38.3926 5.3924
L38.3926 5.0295
" />
<path d="M38.3926 5.0295
L38.4530 4.9086
" />
<path d="M38.4530 4.9086
L38.5135 4.8481
" />
<path d="M38.5135 4.8481
L38.6345 4.7876
" />
<path d="M38.6345 4.7876
L38.8159 4.7876
" />
<path d="M38.8159 4.7876
L38.9368 4.8481
" />
<path d="M38.9368 4.8481
L38.9973 4.9086
" />
<path d="M38.9973 4.9086
L39.0578 5.0295
" />
<path d="M39.0578 5.0295
L39.0578 5.3924
" />
<path d="M39.0578 5.3924
L38.9973 5.5133
" />
<path d="M38.9973 5.5133
L38.9368 5.5738
" />
<path d="M38.9368 5.5738
L38.8159 5.6343
" />
<path d="M38.8159 5.6343
L38.6345 5.6343
" />
<path d="M39.6021 4.7876
L39.6021 5.6343
" />
<path d="M39.6021 4.9086
L39.6626 4.8481
" />
<path d="M39.6626 4.8481
L39.7835 4.7876
" />
<path d="M39.7835 4.7876
L39.9649 4.7876
" />
<path d="M39.9649 4.7876
L40.0859 4.8481
" />
<path d="M40.0859 4.8481
L40.1464 4.9690
" />
<path d="M40.1464 4.9690
L40.1464 5.6343
" />
<path d="M40.5697 4.7876
L41.0535 4.7876
" />
<path d="M40.7511 4.3643
L40.7511 5.4528
" />
<path d="M40.7511 5.4528
L40.8116 5.5738
" />
<path d="M40.8116 5.5738
L40.9326 5.6343
" />
<path d="M40.9326 5.6343
L41.0535 5.6343
" />
<path d="M42.0211 5.6343
L42.0211 4.9690
" />
<path d="M42.0211 4.9690
L41.9606 4.8481
" />
<path d="M41.9606 4.8481
L41.8397 4.7876
" />
<path d="M41.8397 4.7876
L41.5978 4.7876
" />
<path d="M41.5978 4.7876
L41.4768 4.8481
" />
<path d="M42.0211 5.5738
L41.9002 5.6343
" />
<path d="M41.9002 5.6343
L41.5978 5.6343
" />
<path d="M41.5978 5.6343
L41.4768 5.5738
" />
<path d="M41.4768 5.5738
L41.4164 5.4528
" />
<path d="M41.4164 5.4528
L41.4164 5.3319
" />
<path d="M41.4164 5.3319
L41.4768 5.2109
" />
<path d="M41.4768 5.2109
L41.5978 5.1505
" />
<path d="M41.5978 5.1505
L41.9002 5.1505
" />
<path d="M41.9002 5.1505
L42.0211 5.0900
" />
<path d="M42.8073 5.6343
L42.6864 5.5738
" />
<path d="M42.6864 5.5738
L42.6259 5.4528
" />
<path d="M42.6259 5.4528
L42.6259 4.3643
" />
</g></g>
<g style="fill:none; 
stroke:#AFAFAF; stroke-width:0.1500; stroke-opacity:1; 
stroke-linecap:round; stroke-linejoin:round;">
<text x="29.0499" y="9.5550"
textLength="4.5357" font-size="1.3333" lengthAdjust="spacingAndGlyphs"
text-anchor="middle" opacity="0">REF**</text>
<g class="stroked-text"><desc>REF**</desc>
<path d="M27.7166 9.5098
L27.3833 9.0336
" />
<path d="M27.1452 9.5098
L27.1452 8.5098
" />
<path d="M27.1452 8.5098
L27.5261 8.5098
" />
<path d="M27.5261 8.5098
L27.6214 8.5574
" />
<path d="M27.6214 8.5574
L27.6690 8.6051
" />
<path d="M27.6690 8.6051
L27.7166 8.7003
" />
<path d="M27.7166 8.7003
L27.7166 8.8432
" />
<path d="M27.7166 8.8432
L27.6690 8.9384
" />
<path d="M27.6690 8.9384
L27.6214 8.9860
" />
<path d="M27.6214 8.9860
L27.5261 9.0336
" />
<path d="M27.5261 9.0336
L27.1452 9.0336
" />
<path d="M28.1452 8.9860
L28.4785 8.9860
" />
<path d="M28.6214 9.5098
L28.1452 9.5098
" />
<path d="M28.1452 9.5098
L28.1452 8.5098
" />
<path d="M28.1452 8.5098
L28.6214 8.5098
" />
<path d="M29.3833 8.9860
L29.0499 8.9860
" />
<path d="M29.0499 9.5098
L29.0499 8.5098
" />
<path d="M29.0499 8.5098
L29.5261 8.5098
" />
<path d="M30.0499 8.5098
L30.0499 8.7479
" />
<path d="M29.8118 8.6527
L30.0499 8.7479
" />
<path d="M30.0499 8.7479
L30.2880 8.6527
" />
<path d="M29.9071 8.9384
L30.0499 8.7479
" />
<path d="M30.0499 8.7479
L30.1928 8.9384
" />
<path d="M30.8118 8.5098
L30.8118 8.7479
" />
<path d="M30.5737 8.6527
L30.8118 8.7479
" />
<path d="M30.8118 8.7479
L31.0499 8.6527
" />
<path d="M30.6690 8.9384
L30.8118 8.7479
" />
<path d="M30.8118 8.7479
L30.9547 8.9384
" />
</g></g>
<g style="fill:none; 
stroke:#AFAFAF; stroke-width:0.1000; stroke-opacity:1; 
stroke-linecap:round; stroke-linejoin:round;">
<path d="M19.8899 1.5250
L19.8899 17.4750
" />
<path d="M19.8899 17.4750
L41.2399 17.4750
" />
<path d="M20.5499 1.5250
L19.8899 1.5250
" />
<path d="M21.5499 2.5250
L20.5499 1.5250
" />
<path d="M21.5499 2.5250
L22.5499 1.5250
" />
<path d="M41.2399 1.5250
L22.5499 1.5250
" />
<path d="M41.2399 17.4750
L41.2399 1.5250
" />
</g> 
</svg>
