<?xml version="1.0" standalone="no"?>
 <!DOCTYPE svg PUBLIC "-//W3C//DTD SVG 1.1//EN" 
 "http://www.w3.org/Graphics/SVG/1.1/DTD/svg11.dtd"> 
<svg
  xmlns:svg="http://www.w3.org/2000/svg"
  xmlns="http://www.w3.org/2000/svg"
  xmlns:xlink="http://www.w3.org/1999/xlink"
  version="1.1"
  width="66.4210mm" height="5.3086mm" viewBox="0.0000 0.0000 66.4210 5.3086">
<title>SVG Image created as working-brd.svg date 2024/04/20 15:42:01 </title>
  <desc>Image generated by PCBNEW </desc>
<g style="fill:#000000; fill-opacity:1.0000;stroke:#000000; stroke-opacity:1.0000;
stroke-linecap:round; stroke-linejoin:round;"
 transform="translate(0 0) scale(1 1)">
</g>
<g style="fill:#4D7FC4; fill-opacity:1.0000; stroke:none;">
<circle cx="32.4718" cy="1.9050" r="0.3000" /> 
</g>
<g style="fill:#4D7FC4; fill-opacity:1.0000; stroke:none;">
<circle cx="32.4718" cy="2.6550" r="0.3000" /> 
</g>
<g style="fill:#4D7FC4; fill-opacity:1.0000; stroke:none;">
<circle cx="32.4718" cy="3.4050" r="0.3000" /> 
</g>
<g style="fill:#4D7FC4; fill-opacity:1.0000; stroke:none;">
<circle cx="33.2218" cy="1.9050" r="0.3000" /> 
</g>
<g style="fill:#4D7FC4; fill-opacity:1.0000; stroke:none;">
<circle cx="33.2218" cy="2.6550" r="0.3000" /> 
<path style="fill:#4D7FC4; fill-opacity:1.0000; stroke:none;fill-rule:evenodd;"
d="M 32.1718,3.7050
32.1718,1.6050
34.2718,1.6050
34.2718,3.7050
Z" /> 
</g>
<g style="fill:#4D7FC4; fill-opacity:1.0000; stroke:none;">
<circle cx="33.2218" cy="3.4050" r="0.3000" /> 
</g>
<g style="fill:#4D7FC4; fill-opacity:1.0000; stroke:none;">
<circle cx="33.9718" cy="1.9050" r="0.3000" /> 
</g>
<g style="fill:#4D7FC4; fill-opacity:1.0000; stroke:none;">
<circle cx="33.9718" cy="2.6550" r="0.3000" /> 
</g>
<g style="fill:#4D7FC4; fill-opacity:1.0000; stroke:none;">
<circle cx="33.9718" cy="3.4050" r="0.3000" /> 
</g>
<g style="fill:#FFFFFF; fill-opacity:1.0000; stroke:none;">
<circle cx="32.4718" cy="1.9050" r="0.1500" /> 
</g>
<g style="fill:#FFFFFF; fill-opacity:1.0000; stroke:none;">
<circle cx="32.4718" cy="2.6550" r="0.1500" /> 
</g>
<g style="fill:#FFFFFF; fill-opacity:1.0000; stroke:none;">
<circle cx="32.4718" cy="3.4050" r="0.1500" /> 
</g>
<g style="fill:#FFFFFF; fill-opacity:1.0000; stroke:none;">
<circle cx="33.2218" cy="1.9050" r="0.1500" /> 
</g>
<g style="fill:#FFFFFF; fill-opacity:1.0000; stroke:none;">
<circle cx="33.2218" cy="2.6550" r="0.1500" /> 
</g>
<g style="fill:#FFFFFF; fill-opacity:1.0000; stroke:none;">
<circle cx="33.2218" cy="3.4050" r="0.1500" /> 
</g>
<g style="fill:#FFFFFF; fill-opacity:1.0000; stroke:none;">
<circle cx="33.9718" cy="1.9050" r="0.1500" /> 
</g>
<g style="fill:#FFFFFF; fill-opacity:1.0000; stroke:none;">
<circle cx="33.9718" cy="2.6550" r="0.1500" /> 
</g>
<g style="fill:#FFFFFF; fill-opacity:1.0000; stroke:none;">
<circle cx="33.9718" cy="3.4050" r="0.1500" /> 
</g>
<g style="fill:#FFFFFF; fill-opacity:1.0000; stroke:none;">
<circle cx="32.4718" cy="1.9050" r="0.1500" /> 
</g>
<g style="fill:#FFFFFF; fill-opacity:1.0000; stroke:none;">
<circle cx="32.4718" cy="2.6550" r="0.1500" /> 
</g>
<g style="fill:#FFFFFF; fill-opacity:1.0000; stroke:none;">
<circle cx="32.4718" cy="3.4050" r="0.1500" /> 
</g>
<g style="fill:#FFFFFF; fill-opacity:1.0000; stroke:none;">
<circle cx="33.2218" cy="1.9050" r="0.1500" /> 
</g>
<g style="fill:#FFFFFF; fill-opacity:1.0000; stroke:none;">
<circle cx="33.2218" cy="2.6550" r="0.1500" /> 
</g>
<g style="fill:#FFFFFF; fill-opacity:1.0000; stroke:none;">
<circle cx="33.2218" cy="3.4050" r="0.1500" /> 
</g>
<g style="fill:#FFFFFF; fill-opacity:1.0000; stroke:none;">
<circle cx="33.9718" cy="1.9050" r="0.1500" /> 
</g>
<g style="fill:#FFFFFF; fill-opacity:1.0000; stroke:none;">
<circle cx="33.9718" cy="2.6550" r="0.1500" /> 
</g>
<g style="fill:#FFFFFF; fill-opacity:1.0000; stroke:none;">
<circle cx="33.9718" cy="3.4050" r="0.1500" /> 
<path style="fill:#C83434; fill-opacity:1.0000; stroke:none;fill-rule:evenodd;"
d="M 30.8468,1.6050
30.8525,1.5763
30.8688,1.5520
30.8931,1.5357
30.9218,1.5300
31.8468,1.5300
31.8755,1.5357
31.8999,1.5520
31.9161,1.5763
31.9218,1.6050
31.9218,1.7550
31.9161,1.7837
31.8999,1.8080
31.8755,1.8243
31.8468,1.8300
30.9218,1.8300
30.8931,1.8243
30.8688,1.8080
30.8525,1.7837
30.8468,1.7550
Z" /> 
<path style="fill:#C83434; fill-opacity:1.0000; stroke:none;fill-rule:evenodd;"
d="M 30.8468,2.2550
30.8525,2.2263
30.8688,2.2020
30.8931,2.1857
30.9218,2.1800
31.8468,2.1800
31.8755,2.1857
31.8999,2.2020
31.9161,2.2263
31.9218,2.2550
31.9218,2.4050
31.9161,2.4337
31.8999,2.4580
31.8755,2.4743
31.8468,2.4800
30.9218,2.4800
30.8931,2.4743
30.8688,2.4580
30.8525,2.4337
30.8468,2.4050
Z" /> 
<path style="fill:#C83434; fill-opacity:1.0000; stroke:none;fill-rule:evenodd;"
d="M 30.8468,2.9050
30.8525,2.8763
30.8688,2.8520
30.8931,2.8357
30.9218,2.8300
31.8468,2.8300
31.8755,2.8357
31.8999,2.8520
31.9161,2.8763
31.9218,2.9050
31.9218,3.0550
31.9161,3.0837
31.8999,3.1080
31.8755,3.1243
31.8468,3.1300
30.9218,3.1300
30.8931,3.1243
30.8688,3.1080
30.8525,3.0837
30.8468,3.0550
Z" /> 
<path style="fill:#C83434; fill-opacity:1.0000; stroke:none;fill-rule:evenodd;"
d="M 30.8468,3.5550
30.8525,3.5263
30.8688,3.5020
30.8931,3.4857
30.9218,3.4800
31.8468,3.4800
31.8755,3.4857
31.8999,3.5020
31.9161,3.5263
31.9218,3.5550
31.9218,3.7050
31.9161,3.7337
31.8999,3.7580
31.8755,3.7743
31.8468,3.7800
30.9218,3.7800
30.8931,3.7743
30.8688,3.7580
30.8525,3.7337
30.8468,3.7050
Z" /> 
<path style="fill:#C83434; fill-opacity:1.0000; stroke:none;fill-rule:evenodd;"
d="M 32.0968,4.0300
32.1025,4.0013
32.1188,3.9770
32.1431,3.9607
32.1718,3.9550
32.3218,3.9550
32.3505,3.9607
32.3749,3.9770
32.3911,4.0013
32.3968,4.0300
32.3968,4.9550
32.3911,4.9837
32.3749,5.0080
32.3505,5.0243
32.3218,5.0300
32.1718,5.0300
32.1431,5.0243
32.1188,5.0080
32.1025,4.9837
32.0968,4.9550
Z" /> 
<path style="fill:#C83434; fill-opacity:1.0000; stroke:none;fill-rule:evenodd;"
d="M 32.7468,4.0300
32.7525,4.0013
32.7688,3.9770
32.7931,3.9607
32.8218,3.9550
32.9718,3.9550
33.0005,3.9607
33.0249,3.9770
33.0411,4.0013
33.0468,4.0300
33.0468,4.9550
33.0411,4.9837
33.0249,5.0080
33.0005,5.0243
32.9718,5.0300
32.8218,5.0300
32.7931,5.0243
32.7688,5.0080
32.7525,4.9837
32.7468,4.9550
Z" /> 
<path style="fill:#C83434; fill-opacity:1.0000; stroke:none;fill-rule:evenodd;"
d="M 33.3968,4.0300
33.4025,4.0013
33.4188,3.9770
33.4431,3.9607
33.4718,3.9550
33.6218,3.9550
33.6505,3.9607
33.6749,3.9770
33.6911,4.0013
33.6968,4.0300
33.6968,4.9550
33.6911,4.9837
33.6749,5.0080
33.6505,5.0243
33.6218,5.0300
33.4718,5.0300
33.4431,5.0243
33.4188,5.0080
33.4025,4.9837
33.3968,4.9550
Z" /> 
<path style="fill:#C83434; fill-opacity:1.0000; stroke:none;fill-rule:evenodd;"
d="M 34.0468,4.0300
34.0525,4.0013
34.0688,3.9770
34.0931,3.9607
34.1218,3.9550
34.2718,3.9550
34.3005,3.9607
34.3249,3.9770
34.3411,4.0013
34.3468,4.0300
34.3468,4.9550
34.3411,4.9837
34.3249,5.0080
34.3005,5.0243
34.2718,5.0300
34.1218,5.0300
34.0931,5.0243
34.0688,5.0080
34.0525,4.9837
34.0468,4.9550
Z" /> 
<path style="fill:#C83434; fill-opacity:1.0000; stroke:none;fill-rule:evenodd;"
d="M 34.5218,3.5550
34.5275,3.5263
34.5438,3.5020
34.5681,3.4857
34.5968,3.4800
35.5218,3.4800
35.5505,3.4857
35.5749,3.5020
35.5911,3.5263
35.5968,3.5550
35.5968,3.7050
35.5911,3.7337
35.5749,3.7580
35.5505,3.7743
35.5218,3.7800
34.5968,3.7800
34.5681,3.7743
34.5438,3.7580
34.5275,3.7337
34.5218,3.7050
Z" /> 
<path style="fill:#C83434; fill-opacity:1.0000; stroke:none;fill-rule:evenodd;"
d="M 34.5218,2.9050
34.5275,2.8763
34.5438,2.8520
34.5681,2.8357
34.5968,2.8300
35.5218,2.8300
35.5505,2.8357
35.5749,2.8520
35.5911,2.8763
35.5968,2.9050
35.5968,3.0550
35.5911,3.0837
35.5749,3.1080
35.5505,3.1243
35.5218,3.1300
34.5968,3.1300
34.5681,3.1243
34.5438,3.1080
34.5275,3.0837
34.5218,3.0550
Z" /> 
<path style="fill:#C83434; fill-opacity:1.0000; stroke:none;fill-rule:evenodd;"
d="M 34.5218,2.2550
34.5275,2.2263
34.5438,2.2020
34.5681,2.1857
34.5968,2.1800
35.5218,2.1800
35.5505,2.1857
35.5749,2.2020
35.5911,2.2263
35.5968,2.2550
35.5968,2.4050
35.5911,2.4337
35.5749,2.4580
35.5505,2.4743
35.5218,2.4800
34.5968,2.4800
34.5681,2.4743
34.5438,2.4580
34.5275,2.4337
34.5218,2.4050
Z" /> 
<path style="fill:#C83434; fill-opacity:1.0000; stroke:none;fill-rule:evenodd;"
d="M 34.5218,1.6050
34.5275,1.5763
34.5438,1.5520
34.5681,1.5357
34.5968,1.5300
35.5218,1.5300
35.5505,1.5357
35.5749,1.5520
35.5911,1.5763
35.5968,1.6050
35.5968,1.7550
35.5911,1.7837
35.5749,1.8080
35.5505,1.8243
35.5218,1.8300
34.5968,1.8300
34.5681,1.8243
34.5438,1.8080
34.5275,1.7837
34.5218,1.7550
Z" /> 
<path style="fill:#C83434; fill-opacity:1.0000; stroke:none;fill-rule:evenodd;"
d="M 34.0468,0.3550
34.0525,0.3263
34.0688,0.3020
34.0931,0.2857
34.1218,0.2800
34.2718,0.2800
34.3005,0.2857
34.3249,0.3020
34.3411,0.3263
34.3468,0.3550
34.3468,1.2800
34.3411,1.3087
34.3249,1.3330
34.3005,1.3493
34.2718,1.3550
34.1218,1.3550
34.0931,1.3493
34.0688,1.3330
34.0525,1.3087
34.0468,1.2800
Z" /> 
<path style="fill:#C83434; fill-opacity:1.0000; stroke:none;fill-rule:evenodd;"
d="M 33.3968,0.3550
33.4025,0.3263
33.4188,0.3020
33.4431,0.2857
33.4718,0.2800
33.6218,0.2800
33.6505,0.2857
33.6749,0.3020
33.6911,0.3263
33.6968,0.3550
33.6968,1.2800
33.6911,1.3087
33.6749,1.3330
33.6505,1.3493
33.6218,1.3550
33.4718,1.3550
33.4431,1.3493
33.4188,1.3330
33.4025,1.3087
33.3968,1.2800
Z" /> 
<path style="fill:#C83434; fill-opacity:1.0000; stroke:none;fill-rule:evenodd;"
d="M 32.7468,0.3550
32.7525,0.3263
32.7688,0.3020
32.7931,0.2857
32.8218,0.2800
32.9718,0.2800
33.0005,0.2857
33.0249,0.3020
33.0411,0.3263
33.0468,0.3550
33.0468,1.2800
33.0411,1.3087
33.0249,1.3330
33.0005,1.3493
32.9718,1.3550
32.8218,1.3550
32.7931,1.3493
32.7688,1.3330
32.7525,1.3087
32.7468,1.2800
Z" /> 
<path style="fill:#C83434; fill-opacity:1.0000; stroke:none;fill-rule:evenodd;"
d="M 32.0968,0.3550
32.1025,0.3263
32.1188,0.3020
32.1431,0.2857
32.1718,0.2800
32.3218,0.2800
32.3505,0.2857
32.3749,0.3020
32.3911,0.3263
32.3968,0.3550
32.3968,1.2800
32.3911,1.3087
32.3749,1.3330
32.3505,1.3493
32.3218,1.3550
32.1718,1.3550
32.1431,1.3493
32.1188,1.3330
32.1025,1.3087
32.0968,1.2800
Z" /> 
</g>
<g style="fill:#C83434; fill-opacity:1.0000; stroke:none;">
<circle cx="32.4718" cy="1.9050" r="0.3000" /> 
</g>
<g style="fill:#C83434; fill-opacity:1.0000; stroke:none;">
<circle cx="32.4718" cy="2.6550" r="0.3000" /> 
</g>
<g style="fill:#C83434; fill-opacity:1.0000; stroke:none;">
<circle cx="32.4718" cy="3.4050" r="0.3000" /> 
</g>
<g style="fill:#C83434; fill-opacity:1.0000; stroke:none;">
<circle cx="33.2218" cy="1.9050" r="0.3000" /> 
</g>
<g style="fill:#C83434; fill-opacity:1.0000; stroke:none;">
<circle cx="33.2218" cy="2.6550" r="0.3000" /> 
<path style="fill:#C83434; fill-opacity:1.0000; stroke:none;fill-rule:evenodd;"
d="M 32.1718,3.7050
32.1718,1.6050
34.2718,1.6050
34.2718,3.7050
Z" /> 
</g>
<g style="fill:#C83434; fill-opacity:1.0000; stroke:none;">
<circle cx="33.2218" cy="3.4050" r="0.3000" /> 
</g>
<g style="fill:#C83434; fill-opacity:1.0000; stroke:none;">
<circle cx="33.9718" cy="1.9050" r="0.3000" /> 
</g>
<g style="fill:#C83434; fill-opacity:1.0000; stroke:none;">
<circle cx="33.9718" cy="2.6550" r="0.3000" /> 
</g>
<g style="fill:#C83434; fill-opacity:1.0000; stroke:none;">
<circle cx="33.9718" cy="3.4050" r="0.3000" /> 
</g>
<g style="fill:#FFFFFF; fill-opacity:1.0000; stroke:none;">
<circle cx="32.4718" cy="1.9050" r="0.1500" /> 
</g>
<g style="fill:#FFFFFF; fill-opacity:1.0000; stroke:none;">
<circle cx="32.4718" cy="2.6550" r="0.1500" /> 
</g>
<g style="fill:#FFFFFF; fill-opacity:1.0000; stroke:none;">
<circle cx="32.4718" cy="3.4050" r="0.1500" /> 
</g>
<g style="fill:#FFFFFF; fill-opacity:1.0000; stroke:none;">
<circle cx="33.2218" cy="1.9050" r="0.1500" /> 
</g>
<g style="fill:#FFFFFF; fill-opacity:1.0000; stroke:none;">
<circle cx="33.2218" cy="2.6550" r="0.1500" /> 
</g>
<g style="fill:#FFFFFF; fill-opacity:1.0000; stroke:none;">
<circle cx="33.2218" cy="3.4050" r="0.1500" /> 
</g>
<g style="fill:#FFFFFF; fill-opacity:1.0000; stroke:none;">
<circle cx="33.9718" cy="1.9050" r="0.1500" /> 
</g>
<g style="fill:#FFFFFF; fill-opacity:1.0000; stroke:none;">
<circle cx="33.9718" cy="2.6550" r="0.1500" /> 
</g>
<g style="fill:#FFFFFF; fill-opacity:1.0000; stroke:none;">
<circle cx="33.9718" cy="3.4050" r="0.1500" /> 
<path style="fill:#D864FF; fill-opacity:0.4000; stroke:none;fill-rule:evenodd;"
d="M 30.8468,1.6050
30.8525,1.5763
30.8688,1.5520
30.8931,1.5357
30.9218,1.5300
31.8468,1.5300
31.8755,1.5357
31.8999,1.5520
31.9161,1.5763
31.9218,1.6050
31.9218,1.7550
31.9161,1.7837
31.8999,1.8080
31.8755,1.8243
31.8468,1.8300
30.9218,1.8300
30.8931,1.8243
30.8688,1.8080
30.8525,1.7837
30.8468,1.7550
Z" /> 
<path style="fill:#D864FF; fill-opacity:0.4000; stroke:none;fill-rule:evenodd;"
d="M 30.8468,2.2550
30.8525,2.2263
30.8688,2.2020
30.8931,2.1857
30.9218,2.1800
31.8468,2.1800
31.8755,2.1857
31.8999,2.2020
31.9161,2.2263
31.9218,2.2550
31.9218,2.4050
31.9161,2.4337
31.8999,2.4580
31.8755,2.4743
31.8468,2.4800
30.9218,2.4800
30.8931,2.4743
30.8688,2.4580
30.8525,2.4337
30.8468,2.4050
Z" /> 
<path style="fill:#D864FF; fill-opacity:0.4000; stroke:none;fill-rule:evenodd;"
d="M 30.8468,2.9050
30.8525,2.8763
30.8688,2.8520
30.8931,2.8357
30.9218,2.8300
31.8468,2.8300
31.8755,2.8357
31.8999,2.8520
31.9161,2.8763
31.9218,2.9050
31.9218,3.0550
31.9161,3.0837
31.8999,3.1080
31.8755,3.1243
31.8468,3.1300
30.9218,3.1300
30.8931,3.1243
30.8688,3.1080
30.8525,3.0837
30.8468,3.0550
Z" /> 
<path style="fill:#D864FF; fill-opacity:0.4000; stroke:none;fill-rule:evenodd;"
d="M 30.8468,3.5550
30.8525,3.5263
30.8688,3.5020
30.8931,3.4857
30.9218,3.4800
31.8468,3.4800
31.8755,3.4857
31.8999,3.5020
31.9161,3.5263
31.9218,3.5550
31.9218,3.7050
31.9161,3.7337
31.8999,3.7580
31.8755,3.7743
31.8468,3.7800
30.9218,3.7800
30.8931,3.7743
30.8688,3.7580
30.8525,3.7337
30.8468,3.7050
Z" /> 
<path style="fill:#D864FF; fill-opacity:0.4000; stroke:none;fill-rule:evenodd;"
d="M 32.0968,4.0300
32.1025,4.0013
32.1188,3.9770
32.1431,3.9607
32.1718,3.9550
32.3218,3.9550
32.3505,3.9607
32.3749,3.9770
32.3911,4.0013
32.3968,4.0300
32.3968,4.9550
32.3911,4.9837
32.3749,5.0080
32.3505,5.0243
32.3218,5.0300
32.1718,5.0300
32.1431,5.0243
32.1188,5.0080
32.1025,4.9837
32.0968,4.9550
Z" /> 
<path style="fill:#D864FF; fill-opacity:0.4000; stroke:none;fill-rule:evenodd;"
d="M 32.7468,4.0300
32.7525,4.0013
32.7688,3.9770
32.7931,3.9607
32.8218,3.9550
32.9718,3.9550
33.0005,3.9607
33.0249,3.9770
33.0411,4.0013
33.0468,4.0300
33.0468,4.9550
33.0411,4.9837
33.0249,5.0080
33.0005,5.0243
32.9718,5.0300
32.8218,5.0300
32.7931,5.0243
32.7688,5.0080
32.7525,4.9837
32.7468,4.9550
Z" /> 
<path style="fill:#D864FF; fill-opacity:0.4000; stroke:none;fill-rule:evenodd;"
d="M 33.3968,4.0300
33.4025,4.0013
33.4188,3.9770
33.4431,3.9607
33.4718,3.9550
33.6218,3.9550
33.6505,3.9607
33.6749,3.9770
33.6911,4.0013
33.6968,4.0300
33.6968,4.9550
33.6911,4.9837
33.6749,5.0080
33.6505,5.0243
33.6218,5.0300
33.4718,5.0300
33.4431,5.0243
33.4188,5.0080
33.4025,4.9837
33.3968,4.9550
Z" /> 
<path style="fill:#D864FF; fill-opacity:0.4000; stroke:none;fill-rule:evenodd;"
d="M 34.0468,4.0300
34.0525,4.0013
34.0688,3.9770
34.0931,3.9607
34.1218,3.9550
34.2718,3.9550
34.3005,3.9607
34.3249,3.9770
34.3411,4.0013
34.3468,4.0300
34.3468,4.9550
34.3411,4.9837
34.3249,5.0080
34.3005,5.0243
34.2718,5.0300
34.1218,5.0300
34.0931,5.0243
34.0688,5.0080
34.0525,4.9837
34.0468,4.9550
Z" /> 
<path style="fill:#D864FF; fill-opacity:0.4000; stroke:none;fill-rule:evenodd;"
d="M 34.5218,3.5550
34.5275,3.5263
34.5438,3.5020
34.5681,3.4857
34.5968,3.4800
35.5218,3.4800
35.5505,3.4857
35.5749,3.5020
35.5911,3.5263
35.5968,3.5550
35.5968,3.7050
35.5911,3.7337
35.5749,3.7580
35.5505,3.7743
35.5218,3.7800
34.5968,3.7800
34.5681,3.7743
34.5438,3.7580
34.5275,3.7337
34.5218,3.7050
Z" /> 
<path style="fill:#D864FF; fill-opacity:0.4000; stroke:none;fill-rule:evenodd;"
d="M 34.5218,2.9050
34.5275,2.8763
34.5438,2.8520
34.5681,2.8357
34.5968,2.8300
35.5218,2.8300
35.5505,2.8357
35.5749,2.8520
35.5911,2.8763
35.5968,2.9050
35.5968,3.0550
35.5911,3.0837
35.5749,3.1080
35.5505,3.1243
35.5218,3.1300
34.5968,3.1300
34.5681,3.1243
34.5438,3.1080
34.5275,3.0837
34.5218,3.0550
Z" /> 
<path style="fill:#D864FF; fill-opacity:0.4000; stroke:none;fill-rule:evenodd;"
d="M 34.5218,2.2550
34.5275,2.2263
34.5438,2.2020
34.5681,2.1857
34.5968,2.1800
35.5218,2.1800
35.5505,2.1857
35.5749,2.2020
35.5911,2.2263
35.5968,2.2550
35.5968,2.4050
35.5911,2.4337
35.5749,2.4580
35.5505,2.4743
35.5218,2.4800
34.5968,2.4800
34.5681,2.4743
34.5438,2.4580
34.5275,2.4337
34.5218,2.4050
Z" /> 
<path style="fill:#D864FF; fill-opacity:0.4000; stroke:none;fill-rule:evenodd;"
d="M 34.5218,1.6050
34.5275,1.5763
34.5438,1.5520
34.5681,1.5357
34.5968,1.5300
35.5218,1.5300
35.5505,1.5357
35.5749,1.5520
35.5911,1.5763
35.5968,1.6050
35.5968,1.7550
35.5911,1.7837
35.5749,1.8080
35.5505,1.8243
35.5218,1.8300
34.5968,1.8300
34.5681,1.8243
34.5438,1.8080
34.5275,1.7837
34.5218,1.7550
Z" /> 
<path style="fill:#D864FF; fill-opacity:0.4000; stroke:none;fill-rule:evenodd;"
d="M 34.0468,0.3550
34.0525,0.3263
34.0688,0.3020
34.0931,0.2857
34.1218,0.2800
34.2718,0.2800
34.3005,0.2857
34.3249,0.3020
34.3411,0.3263
34.3468,0.3550
34.3468,1.2800
34.3411,1.3087
34.3249,1.3330
34.3005,1.3493
34.2718,1.3550
34.1218,1.3550
34.0931,1.3493
34.0688,1.3330
34.0525,1.3087
34.0468,1.2800
Z" /> 
<path style="fill:#D864FF; fill-opacity:0.4000; stroke:none;fill-rule:evenodd;"
d="M 33.3968,0.3550
33.4025,0.3263
33.4188,0.3020
33.4431,0.2857
33.4718,0.2800
33.6218,0.2800
33.6505,0.2857
33.6749,0.3020
33.6911,0.3263
33.6968,0.3550
33.6968,1.2800
33.6911,1.3087
33.6749,1.3330
33.6505,1.3493
33.6218,1.3550
33.4718,1.3550
33.4431,1.3493
33.4188,1.3330
33.4025,1.3087
33.3968,1.2800
Z" /> 
<path style="fill:#D864FF; fill-opacity:0.4000; stroke:none;fill-rule:evenodd;"
d="M 32.7468,0.3550
32.7525,0.3263
32.7688,0.3020
32.7931,0.2857
32.8218,0.2800
32.9718,0.2800
33.0005,0.2857
33.0249,0.3020
33.0411,0.3263
33.0468,0.3550
33.0468,1.2800
33.0411,1.3087
33.0249,1.3330
33.0005,1.3493
32.9718,1.3550
32.8218,1.3550
32.7931,1.3493
32.7688,1.3330
32.7525,1.3087
32.7468,1.2800
Z" /> 
<path style="fill:#D864FF; fill-opacity:0.4000; stroke:none;fill-rule:evenodd;"
d="M 32.0968,0.3550
32.1025,0.3263
32.1188,0.3020
32.1431,0.2857
32.1718,0.2800
32.3218,0.2800
32.3505,0.2857
32.3749,0.3020
32.3911,0.3263
32.3968,0.3550
32.3968,1.2800
32.3911,1.3087
32.3749,1.3330
32.3505,1.3493
32.3218,1.3550
32.1718,1.3550
32.1431,1.3493
32.1188,1.3330
32.1025,1.3087
32.0968,1.2800
Z" /> 
<path style="fill:#D864FF; fill-opacity:0.4000; stroke:none;fill-rule:evenodd;"
d="M 32.1718,3.7050
32.1718,1.6050
34.2718,1.6050
34.2718,3.7050
Z" /> 
<path style="fill:#B4A09A; fill-opacity:0.9000; stroke:none;fill-rule:evenodd;"
d="M 32.2418,1.9025
32.2592,1.8154
32.3085,1.7416
32.3823,1.6923
32.4693,1.6750
32.9243,1.6750
33.0114,1.6923
33.0852,1.7416
33.1345,1.8154
33.1518,1.9025
33.1518,2.3575
33.1345,2.4446
33.0852,2.5184
33.0114,2.5677
32.9243,2.5850
32.4693,2.5850
32.3823,2.5677
32.3085,2.5184
32.2592,2.4446
32.2418,2.3575
Z" /> 
<path style="fill:#B4A09A; fill-opacity:0.9000; stroke:none;fill-rule:evenodd;"
d="M 32.2418,2.9525
32.2592,2.8654
32.3085,2.7916
32.3823,2.7423
32.4693,2.7250
32.9243,2.7250
33.0114,2.7423
33.0852,2.7916
33.1345,2.8654
33.1518,2.9525
33.1518,3.4075
33.1345,3.4946
33.0852,3.5684
33.0114,3.6177
32.9243,3.6350
32.4693,3.6350
32.3823,3.6177
32.3085,3.5684
32.2592,3.4946
32.2418,3.4075
Z" /> 
<path style="fill:#B4A09A; fill-opacity:0.9000; stroke:none;fill-rule:evenodd;"
d="M 33.2918,1.9025
33.3092,1.8154
33.3585,1.7416
33.4323,1.6923
33.5193,1.6750
33.9743,1.6750
34.0614,1.6923
34.1352,1.7416
34.1845,1.8154
34.2018,1.9025
34.2018,2.3575
34.1845,2.4446
34.1352,2.5184
34.0614,2.5677
33.9743,2.5850
33.5193,2.5850
33.4323,2.5677
33.3585,2.5184
33.3092,2.4446
33.2918,2.3575
Z" /> 
<path style="fill:#B4A09A; fill-opacity:0.9000; stroke:none;fill-rule:evenodd;"
d="M 33.2918,2.9525
33.3092,2.8654
33.3585,2.7916
33.4323,2.7423
33.5193,2.7250
33.9743,2.7250
34.0614,2.7423
34.1352,2.7916
34.1845,2.8654
34.2018,2.9525
34.2018,3.4075
34.1845,3.4946
34.1352,3.5684
34.0614,3.6177
33.9743,3.6350
33.5193,3.6350
33.4323,3.6177
33.3585,3.5684
33.3092,3.4946
33.2918,3.4075
Z" /> 
<path style="fill:#B4A09A; fill-opacity:0.9000; stroke:none;fill-rule:evenodd;"
d="M 30.8468,1.6050
30.8525,1.5763
30.8688,1.5520
30.8931,1.5357
30.9218,1.5300
31.8468,1.5300
31.8755,1.5357
31.8999,1.5520
31.9161,1.5763
31.9218,1.6050
31.9218,1.7550
31.9161,1.7837
31.8999,1.8080
31.8755,1.8243
31.8468,1.8300
30.9218,1.8300
30.8931,1.8243
30.8688,1.8080
30.8525,1.7837
30.8468,1.7550
Z" /> 
<path style="fill:#B4A09A; fill-opacity:0.9000; stroke:none;fill-rule:evenodd;"
d="M 30.8468,2.2550
30.8525,2.2263
30.8688,2.2020
30.8931,2.1857
30.9218,2.1800
31.8468,2.1800
31.8755,2.1857
31.8999,2.2020
31.9161,2.2263
31.9218,2.2550
31.9218,2.4050
31.9161,2.4337
31.8999,2.4580
31.8755,2.4743
31.8468,2.4800
30.9218,2.4800
30.8931,2.4743
30.8688,2.4580
30.8525,2.4337
30.8468,2.4050
Z" /> 
<path style="fill:#B4A09A; fill-opacity:0.9000; stroke:none;fill-rule:evenodd;"
d="M 30.8468,2.9050
30.8525,2.8763
30.8688,2.8520
30.8931,2.8357
30.9218,2.8300
31.8468,2.8300
31.8755,2.8357
31.8999,2.8520
31.9161,2.8763
31.9218,2.9050
31.9218,3.0550
31.9161,3.0837
31.8999,3.1080
31.8755,3.1243
31.8468,3.1300
30.9218,3.1300
30.8931,3.1243
30.8688,3.1080
30.8525,3.0837
30.8468,3.0550
Z" /> 
<path style="fill:#B4A09A; fill-opacity:0.9000; stroke:none;fill-rule:evenodd;"
d="M 30.8468,3.5550
30.8525,3.5263
30.8688,3.5020
30.8931,3.4857
30.9218,3.4800
31.8468,3.4800
31.8755,3.4857
31.8999,3.5020
31.9161,3.5263
31.9218,3.5550
31.9218,3.7050
31.9161,3.7337
31.8999,3.7580
31.8755,3.7743
31.8468,3.7800
30.9218,3.7800
30.8931,3.7743
30.8688,3.7580
30.8525,3.7337
30.8468,3.7050
Z" /> 
<path style="fill:#B4A09A; fill-opacity:0.9000; stroke:none;fill-rule:evenodd;"
d="M 32.0968,4.0300
32.1025,4.0013
32.1188,3.9770
32.1431,3.9607
32.1718,3.9550
32.3218,3.9550
32.3505,3.9607
32.3749,3.9770
32.3911,4.0013
32.3968,4.0300
32.3968,4.9550
32.3911,4.9837
32.3749,5.0080
32.3505,5.0243
32.3218,5.0300
32.1718,5.0300
32.1431,5.0243
32.1188,5.0080
32.1025,4.9837
32.0968,4.9550
Z" /> 
<path style="fill:#B4A09A; fill-opacity:0.9000; stroke:none;fill-rule:evenodd;"
d="M 32.7468,4.0300
32.7525,4.0013
32.7688,3.9770
32.7931,3.9607
32.8218,3.9550
32.9718,3.9550
33.0005,3.9607
33.0249,3.9770
33.0411,4.0013
33.0468,4.0300
33.0468,4.9550
33.0411,4.9837
33.0249,5.0080
33.0005,5.0243
32.9718,5.0300
32.8218,5.0300
32.7931,5.0243
32.7688,5.0080
32.7525,4.9837
32.7468,4.9550
Z" /> 
<path style="fill:#B4A09A; fill-opacity:0.9000; stroke:none;fill-rule:evenodd;"
d="M 33.3968,4.0300
33.4025,4.0013
33.4188,3.9770
33.4431,3.9607
33.4718,3.9550
33.6218,3.9550
33.6505,3.9607
33.6749,3.9770
33.6911,4.0013
33.6968,4.0300
33.6968,4.9550
33.6911,4.9837
33.6749,5.0080
33.6505,5.0243
33.6218,5.0300
33.4718,5.0300
33.4431,5.0243
33.4188,5.0080
33.4025,4.9837
33.3968,4.9550
Z" /> 
<path style="fill:#B4A09A; fill-opacity:0.9000; stroke:none;fill-rule:evenodd;"
d="M 34.0468,4.0300
34.0525,4.0013
34.0688,3.9770
34.0931,3.9607
34.1218,3.9550
34.2718,3.9550
34.3005,3.9607
34.3249,3.9770
34.3411,4.0013
34.3468,4.0300
34.3468,4.9550
34.3411,4.9837
34.3249,5.0080
34.3005,5.0243
34.2718,5.0300
34.1218,5.0300
34.0931,5.0243
34.0688,5.0080
34.0525,4.9837
34.0468,4.9550
Z" /> 
<path style="fill:#B4A09A; fill-opacity:0.9000; stroke:none;fill-rule:evenodd;"
d="M 34.5218,3.5550
34.5275,3.5263
34.5438,3.5020
34.5681,3.4857
34.5968,3.4800
35.5218,3.4800
35.5505,3.4857
35.5749,3.5020
35.5911,3.5263
35.5968,3.5550
35.5968,3.7050
35.5911,3.7337
35.5749,3.7580
35.5505,3.7743
35.5218,3.7800
34.5968,3.7800
34.5681,3.7743
34.5438,3.7580
34.5275,3.7337
34.5218,3.7050
Z" /> 
<path style="fill:#B4A09A; fill-opacity:0.9000; stroke:none;fill-rule:evenodd;"
d="M 34.5218,2.9050
34.5275,2.8763
34.5438,2.8520
34.5681,2.8357
34.5968,2.8300
35.5218,2.8300
35.5505,2.8357
35.5749,2.8520
35.5911,2.8763
35.5968,2.9050
35.5968,3.0550
35.5911,3.0837
35.5749,3.1080
35.5505,3.1243
35.5218,3.1300
34.5968,3.1300
34.5681,3.1243
34.5438,3.1080
34.5275,3.0837
34.5218,3.0550
Z" /> 
<path style="fill:#B4A09A; fill-opacity:0.9000; stroke:none;fill-rule:evenodd;"
d="M 34.5218,2.2550
34.5275,2.2263
34.5438,2.2020
34.5681,2.1857
34.5968,2.1800
35.5218,2.1800
35.5505,2.1857
35.5749,2.2020
35.5911,2.2263
35.5968,2.2550
35.5968,2.4050
35.5911,2.4337
35.5749,2.4580
35.5505,2.4743
35.5218,2.4800
34.5968,2.4800
34.5681,2.4743
34.5438,2.4580
34.5275,2.4337
34.5218,2.4050
Z" /> 
<path style="fill:#B4A09A; fill-opacity:0.9000; stroke:none;fill-rule:evenodd;"
d="M 34.5218,1.6050
34.5275,1.5763
34.5438,1.5520
34.5681,1.5357
34.5968,1.5300
35.5218,1.5300
35.5505,1.5357
35.5749,1.5520
35.5911,1.5763
35.5968,1.6050
35.5968,1.7550
35.5911,1.7837
35.5749,1.8080
35.5505,1.8243
35.5218,1.8300
34.5968,1.8300
34.5681,1.8243
34.5438,1.8080
34.5275,1.7837
34.5218,1.7550
Z" /> 
<path style="fill:#B4A09A; fill-opacity:0.9000; stroke:none;fill-rule:evenodd;"
d="M 34.0468,0.3550
34.0525,0.3263
34.0688,0.3020
34.0931,0.2857
34.1218,0.2800
34.2718,0.2800
34.3005,0.2857
34.3249,0.3020
34.3411,0.3263
34.3468,0.3550
34.3468,1.2800
34.3411,1.3087
34.3249,1.3330
34.3005,1.3493
34.2718,1.3550
34.1218,1.3550
34.0931,1.3493
34.0688,1.3330
34.0525,1.3087
34.0468,1.2800
Z" /> 
<path style="fill:#B4A09A; fill-opacity:0.9000; stroke:none;fill-rule:evenodd;"
d="M 33.3968,0.3550
33.4025,0.3263
33.4188,0.3020
33.4431,0.2857
33.4718,0.2800
33.6218,0.2800
33.6505,0.2857
33.6749,0.3020
33.6911,0.3263
33.6968,0.3550
33.6968,1.2800
33.6911,1.3087
33.6749,1.3330
33.6505,1.3493
33.6218,1.3550
33.4718,1.3550
33.4431,1.3493
33.4188,1.3330
33.4025,1.3087
33.3968,1.2800
Z" /> 
<path style="fill:#B4A09A; fill-opacity:0.9000; stroke:none;fill-rule:evenodd;"
d="M 32.7468,0.3550
32.7525,0.3263
32.7688,0.3020
32.7931,0.2857
32.8218,0.2800
32.9718,0.2800
33.0005,0.2857
33.0249,0.3020
33.0411,0.3263
33.0468,0.3550
33.0468,1.2800
33.0411,1.3087
33.0249,1.3330
33.0005,1.3493
32.9718,1.3550
32.8218,1.3550
32.7931,1.3493
32.7688,1.3330
32.7525,1.3087
32.7468,1.2800
Z" /> 
<path style="fill:#B4A09A; fill-opacity:0.9000; stroke:none;fill-rule:evenodd;"
d="M 32.0968,0.3550
32.1025,0.3263
32.1188,0.3020
32.1431,0.2857
32.1718,0.2800
32.3218,0.2800
32.3505,0.2857
32.3749,0.3020
32.3911,0.3263
32.3968,0.3550
32.3968,1.2800
32.3911,1.3087
32.3749,1.3330
32.3505,1.3493
32.3218,1.3550
32.1718,1.3550
32.1431,1.3493
32.1188,1.3330
32.1025,1.3087
32.0968,1.2800
Z" /> 
</g>
<g style="fill:none; 
stroke:#F2EDA1; stroke-width:0.1588; stroke-opacity:1; 
stroke-linecap:round; stroke-linejoin:round;">
<text x="33.2218" y="3.2900"
textLength="5.6651" font-size="1.6933" lengthAdjust="spacingAndGlyphs"
text-anchor="middle" opacity="0">REF**</text>
<g class="stroked-text"><desc>REF**</desc>
<path d="M31.5285 3.2343
L31.1052 2.6295
" />
<path d="M30.8028 3.2343
L30.8028 1.9643
" />
<path d="M30.8028 1.9643
L31.2866 1.9643
" />
<path d="M31.2866 1.9643
L31.4076 2.0247
" />
<path d="M31.4076 2.0247
L31.4680 2.0852
" />
<path d="M31.4680 2.0852
L31.5285 2.2062
" />
<path d="M31.5285 2.2062
L31.5285 2.3876
" />
<path d="M31.5285 2.3876
L31.4680 2.5086
" />
<path d="M31.4680 2.5086
L31.4076 2.5690
" />
<path d="M31.4076 2.5690
L31.2866 2.6295
" />
<path d="M31.2866 2.6295
L30.8028 2.6295
" />
<path d="M32.0728 2.5690
L32.4961 2.5690
" />
<path d="M32.6776 3.2343
L32.0728 3.2343
" />
<path d="M32.0728 3.2343
L32.0728 1.9643
" />
<path d="M32.0728 1.9643
L32.6776 1.9643
" />
<path d="M33.6452 2.5690
L33.2218 2.5690
" />
<path d="M33.2218 3.2343
L33.2218 1.9643
" />
<path d="M33.2218 1.9643
L33.8266 1.9643
" />
<path d="M34.4918 1.9643
L34.4918 2.2667
" />
<path d="M34.1895 2.1457
L34.4918 2.2667
" />
<path d="M34.4918 2.2667
L34.7942 2.1457
" />
<path d="M34.3104 2.5086
L34.4918 2.2667
" />
<path d="M34.4918 2.2667
L34.6733 2.5086
" />
<path d="M35.4595 1.9643
L35.4595 2.2667
" />
<path d="M35.1571 2.1457
L35.4595 2.2667
" />
<path d="M35.4595 2.2667
L35.7618 2.1457
" />
<path d="M35.2780 2.5086
L35.4595 2.2667
" />
<path d="M35.4595 2.2667
L35.6409 2.5086
" />
</g></g>
<g style="fill:none; 
stroke:#F2EDA1; stroke-width:0.1200; stroke-opacity:1; 
stroke-linecap:round; stroke-linejoin:round;">
<path d="M31.1118 1.2700
L31.1118 0.7850
" />
<path d="M31.1118 4.7650
L31.1118 4.0400
" />
<path d="M31.8368 0.5450
L31.4118 0.5450
" />
<path d="M31.8368 4.7650
L31.1118 4.7650
" />
<path d="M34.6068 0.5450
L35.3318 0.5450
" />
<path d="M34.6068 4.7650
L35.3318 4.7650
" />
<path d="M35.3318 0.5450
L35.3318 1.2700
" />
<path d="M35.3318 4.7650
L35.3318 4.0400
" />
<path style="fill:#F2EDA1; fill-opacity:1.0000; 
stroke:#F2EDA1; stroke-width:0.1200; stroke-opacity:1; 
stroke-linecap:round; stroke-linejoin:round;fill-rule:evenodd;"
d="M 31.1118,0.5450
30.8718,0.2150
31.3518,0.2150
Z" /> 
</g>
<g style="fill:#FFFFFF; fill-opacity:1.0000; stroke:none;">
<circle cx="32.4718" cy="1.9050" r="0.1500" /> 
</g>
<g style="fill:#FFFFFF; fill-opacity:1.0000; stroke:none;">
<circle cx="32.4718" cy="2.6550" r="0.1500" /> 
</g>
<g style="fill:#FFFFFF; fill-opacity:1.0000; stroke:none;">
<circle cx="32.4718" cy="3.4050" r="0.1500" /> 
</g>
<g style="fill:#FFFFFF; fill-opacity:1.0000; stroke:none;">
<circle cx="33.2218" cy="1.9050" r="0.1500" /> 
</g>
<g style="fill:#FFFFFF; fill-opacity:1.0000; stroke:none;">
<circle cx="33.2218" cy="2.6550" r="0.1500" /> 
</g>
<g style="fill:#FFFFFF; fill-opacity:1.0000; stroke:none;">
<circle cx="33.2218" cy="3.4050" r="0.1500" /> 
</g>
<g style="fill:#FFFFFF; fill-opacity:1.0000; stroke:none;">
<circle cx="33.9718" cy="1.9050" r="0.1500" /> 
</g>
<g style="fill:#FFFFFF; fill-opacity:1.0000; stroke:none;">
<circle cx="33.9718" cy="2.6550" r="0.1500" /> 
</g>
<g style="fill:#FFFFFF; fill-opacity:1.0000; stroke:none;">
<circle cx="33.9718" cy="3.4050" r="0.1500" /> 
</g>
<g style="fill:none; 
stroke:#FF26E2; stroke-width:0.0500; stroke-opacity:1; 
stroke-linecap:round; stroke-linejoin:round;">
<path d="M30.5918 0.0250
L30.5918 5.2850
" />
<path d="M30.5918 5.2850
L35.8518 5.2850
" />
<path d="M35.8518 0.0250
L30.5918 0.0250
" />
<path d="M35.8518 5.2850
L35.8518 0.0250
" />
</g>
<g style="fill:none; 
stroke:#AFAFAF; stroke-width:0.1588; stroke-opacity:1; 
stroke-linecap:round; stroke-linejoin:round;">
<text x="33.2218" y="3.2900"
textLength="66.4437" font-size="1.6933" lengthAdjust="spacingAndGlyphs"
text-anchor="middle" opacity="0">Analog_LFCSP-16-1EP_4x4mm_P0.65mm_EP2.1x2.1mm_ThermalVias</text>
<g class="stroked-text"><desc>Analog_LFCSP-16-1EP_4x4mm_P0.65mm_EP2.1x2.1mm_ThermalVias</desc>
<path d="M0.3530 2.8714
L0.9578 2.8714
" />
<path d="M0.2321 3.2343
L0.6554 1.9643
" />
<path d="M0.6554 1.9643
L1.0787 3.2343
" />
<path d="M1.5021 2.3876
L1.5021 3.2343
" />
<path d="M1.5021 2.5086
L1.5626 2.4481
" />
<path d="M1.5626 2.4481
L1.6835 2.3876
" />
<path d="M1.6835 2.3876
L1.8649 2.3876
" />
<path d="M1.8649 2.3876
L1.9859 2.4481
" />
<path d="M1.9859 2.4481
L2.0464 2.5690
" />
<path d="M2.0464 2.5690
L2.0464 3.2343
" />
<path d="M3.1954 3.2343
L3.1954 2.5690
" />
<path d="M3.1954 2.5690
L3.1349 2.4481
" />
<path d="M3.1349 2.4481
L3.0140 2.3876
" />
<path d="M3.0140 2.3876
L2.7721 2.3876
" />
<path d="M2.7721 2.3876
L2.6511 2.4481
" />
<path d="M3.1954 3.1738
L3.0745 3.2343
" />
<path d="M3.0745 3.2343
L2.7721 3.2343
" />
<path d="M2.7721 3.2343
L2.6511 3.1738
" />
<path d="M2.6511 3.1738
L2.5906 3.0528
" />
<path d="M2.5906 3.0528
L2.5906 2.9319
" />
<path d="M2.5906 2.9319
L2.6511 2.8109
" />
<path d="M2.6511 2.8109
L2.7721 2.7505
" />
<path d="M2.7721 2.7505
L3.0745 2.7505
" />
<path d="M3.0745 2.7505
L3.1954 2.6900
" />
<path d="M3.9816 3.2343
L3.8606 3.1738
" />
<path d="M3.8606 3.1738
L3.8002 3.0528
" />
<path d="M3.8002 3.0528
L3.8002 1.9643
" />
<path d="M4.6468 3.2343
L4.5259 3.1738
" />
<path d="M4.5259 3.1738
L4.4654 3.1133
" />
<path d="M4.4654 3.1133
L4.4049 2.9924
" />
<path d="M4.4049 2.9924
L4.4049 2.6295
" />
<path d="M4.4049 2.6295
L4.4654 2.5086
" />
<path d="M4.4654 2.5086
L4.5259 2.4481
" />
<path d="M4.5259 2.4481
L4.6468 2.3876
" />
<path d="M4.6468 2.3876
L4.8283 2.3876
" />
<path d="M4.8283 2.3876
L4.9492 2.4481
" />
<path d="M4.9492 2.4481
L5.0097 2.5086
" />
<path d="M5.0097 2.5086
L5.0702 2.6295
" />
<path d="M5.0702 2.6295
L5.0702 2.9924
" />
<path d="M5.0702 2.9924
L5.0097 3.1133
" />
<path d="M5.0097 3.1133
L4.9492 3.1738
" />
<path d="M4.9492 3.1738
L4.8283 3.2343
" />
<path d="M4.8283 3.2343
L4.6468 3.2343
" />
<path d="M6.1587 2.3876
L6.1587 3.4157
" />
<path d="M6.1587 3.4157
L6.0983 3.5367
" />
<path d="M6.0983 3.5367
L6.0378 3.5971
" />
<path d="M6.0378 3.5971
L5.9168 3.6576
" />
<path d="M5.9168 3.6576
L5.7354 3.6576
" />
<path d="M5.7354 3.6576
L5.6145 3.5971
" />
<path d="M6.1587 3.1738
L6.0378 3.2343
" />
<path d="M6.0378 3.2343
L5.7959 3.2343
" />
<path d="M5.7959 3.2343
L5.6749 3.1738
" />
<path d="M5.6749 3.1738
L5.6145 3.1133
" />
<path d="M5.6145 3.1133
L5.5540 2.9924
" />
<path d="M5.5540 2.9924
L5.5540 2.6295
" />
<path d="M5.5540 2.6295
L5.6145 2.5086
" />
<path d="M5.6145 2.5086
L5.6749 2.4481
" />
<path d="M5.6749 2.4481
L5.7959 2.3876
" />
<path d="M5.7959 2.3876
L6.0378 2.3876
" />
<path d="M6.0378 2.3876
L6.1587 2.4481
" />
<path d="M6.4611 3.3552
L7.4287 3.3552
" />
<path d="M8.3359 3.2343
L7.7311 3.2343
" />
<path d="M7.7311 3.2343
L7.7311 1.9643
" />
<path d="M9.1826 2.5690
L8.7592 2.5690
" />
<path d="M8.7592 3.2343
L8.7592 1.9643
" />
<path d="M8.7592 1.9643
L9.3640 1.9643
" />
<path d="M10.5735 3.1133
L10.5130 3.1738
" />
<path d="M10.5130 3.1738
L10.3316 3.2343
" />
<path d="M10.3316 3.2343
L10.2106 3.2343
" />
<path d="M10.2106 3.2343
L10.0292 3.1738
" />
<path d="M10.0292 3.1738
L9.9083 3.0528
" />
<path d="M9.9083 3.0528
L9.8478 2.9319
" />
<path d="M9.8478 2.9319
L9.7873 2.6900
" />
<path d="M9.7873 2.6900
L9.7873 2.5086
" />
<path d="M9.7873 2.5086
L9.8478 2.2667
" />
<path d="M9.8478 2.2667
L9.9083 2.1457
" />
<path d="M9.9083 2.1457
L10.0292 2.0247
" />
<path d="M10.0292 2.0247
L10.2106 1.9643
" />
<path d="M10.2106 1.9643
L10.3316 1.9643
" />
<path d="M10.3316 1.9643
L10.5130 2.0247
" />
<path d="M10.5130 2.0247
L10.5735 2.0852
" />
<path d="M11.0573 3.1738
L11.2387 3.2343
" />
<path d="M11.2387 3.2343
L11.5411 3.2343
" />
<path d="M11.5411 3.2343
L11.6621 3.1738
" />
<path d="M11.6621 3.1738
L11.7226 3.1133
" />
<path d="M11.7226 3.1133
L11.7830 2.9924
" />
<path d="M11.7830 2.9924
L11.7830 2.8714
" />
<path d="M11.7830 2.8714
L11.7226 2.7505
" />
<path d="M11.7226 2.7505
L11.6621 2.6900
" />
<path d="M11.6621 2.6900
L11.5411 2.6295
" />
<path d="M11.5411 2.6295
L11.2992 2.5690
" />
<path d="M11.2992 2.5690
L11.1783 2.5086
" />
<path d="M11.1783 2.5086
L11.1178 2.4481
" />
<path d="M11.1178 2.4481
L11.0573 2.3271
" />
<path d="M11.0573 2.3271
L11.0573 2.2062
" />
<path d="M11.0573 2.2062
L11.1178 2.0852
" />
<path d="M11.1178 2.0852
L11.1783 2.0247
" />
<path d="M11.1783 2.0247
L11.2992 1.9643
" />
<path d="M11.2992 1.9643
L11.6016 1.9643
" />
<path d="M11.6016 1.9643
L11.7830 2.0247
" />
<path d="M12.3273 3.2343
L12.3273 1.9643
" />
<path d="M12.3273 1.9643
L12.8111 1.9643
" />
<path d="M12.8111 1.9643
L12.9321 2.0247
" />
<path d="M12.9321 2.0247
L12.9926 2.0852
" />
<path d="M12.9926 2.0852
L13.0530 2.2062
" />
<path d="M13.0530 2.2062
L13.0530 2.3876
" />
<path d="M13.0530 2.3876
L12.9926 2.5086
" />
<path d="M12.9926 2.5086
L12.9321 2.5690
" />
<path d="M12.9321 2.5690
L12.8111 2.6295
" />
<path d="M12.8111 2.6295
L12.3273 2.6295
" />
<path d="M13.5973 2.7505
L14.5649 2.7505
" />
<path d="M15.8349 3.2343
L15.1092 3.2343
" />
<path d="M15.4721 3.2343
L15.4721 1.9643
" />
<path d="M15.4721 1.9643
L15.3511 2.1457
" />
<path d="M15.3511 2.1457
L15.2302 2.2667
" />
<path d="M15.2302 2.2667
L15.1092 2.3271
" />
<path d="M16.9235 1.9643
L16.6816 1.9643
" />
<path d="M16.6816 1.9643
L16.5606 2.0247
" />
<path d="M16.5606 2.0247
L16.5002 2.0852
" />
<path d="M16.5002 2.0852
L16.3792 2.2667
" />
<path d="M16.3792 2.2667
L16.3187 2.5086
" />
<path d="M16.3187 2.5086
L16.3187 2.9924
" />
<path d="M16.3187 2.9924
L16.3792 3.1133
" />
<path d="M16.3792 3.1133
L16.4397 3.1738
" />
<path d="M16.4397 3.1738
L16.5606 3.2343
" />
<path d="M16.5606 3.2343
L16.8026 3.2343
" />
<path d="M16.8026 3.2343
L16.9235 3.1738
" />
<path d="M16.9235 3.1738
L16.9840 3.1133
" />
<path d="M16.9840 3.1133
L17.0445 2.9924
" />
<path d="M17.0445 2.9924
L17.0445 2.6900
" />
<path d="M17.0445 2.6900
L16.9840 2.5690
" />
<path d="M16.9840 2.5690
L16.9235 2.5086
" />
<path d="M16.9235 2.5086
L16.8026 2.4481
" />
<path d="M16.8026 2.4481
L16.5606 2.4481
" />
<path d="M16.5606 2.4481
L16.4397 2.5086
" />
<path d="M16.4397 2.5086
L16.3792 2.5690
" />
<path d="M16.3792 2.5690
L16.3187 2.6900
" />
<path d="M17.5887 2.7505
L18.5564 2.7505
" />
<path d="M19.8264 3.2343
L19.1006 3.2343
" />
<path d="M19.4635 3.2343
L19.4635 1.9643
" />
<path d="M19.4635 1.9643
L19.3426 2.1457
" />
<path d="M19.3426 2.1457
L19.2216 2.2667
" />
<path d="M19.2216 2.2667
L19.1006 2.3271
" />
<path d="M20.3706 2.5690
L20.7940 2.5690
" />
<path d="M20.9754 3.2343
L20.3706 3.2343
" />
<path d="M20.3706 3.2343
L20.3706 1.9643
" />
<path d="M20.3706 1.9643
L20.9754 1.9643
" />
<path d="M21.5197 3.2343
L21.5197 1.9643
" />
<path d="M21.5197 1.9643
L22.0035 1.9643
" />
<path d="M22.0035 1.9643
L22.1245 2.0247
" />
<path d="M22.1245 2.0247
L22.1849 2.0852
" />
<path d="M22.1849 2.0852
L22.2454 2.2062
" />
<path d="M22.2454 2.2062
L22.2454 2.3876
" />
<path d="M22.2454 2.3876
L22.1849 2.5086
" />
<path d="M22.1849 2.5086
L22.1245 2.5690
" />
<path d="M22.1245 2.5690
L22.0035 2.6295
" />
<path d="M22.0035 2.6295
L21.5197 2.6295
" />
<path d="M22.4873 3.3552
L23.4549 3.3552
" />
<path d="M24.3016 2.3876
L24.3016 3.2343
" />
<path d="M23.9992 1.9038
L23.6968 2.8109
" />
<path d="M23.6968 2.8109
L24.4830 2.8109
" />
<path d="M24.8459 3.2343
L25.5111 2.3876
" />
<path d="M24.8459 2.3876
L25.5111 3.2343
" />
<path d="M26.5392 2.3876
L26.5392 3.2343
" />
<path d="M26.2368 1.9038
L25.9345 2.8109
" />
<path d="M25.9345 2.8109
L26.7207 2.8109
" />
<path d="M27.2045 3.2343
L27.2045 2.3876
" />
<path d="M27.2045 2.5086
L27.2649 2.4481
" />
<path d="M27.2649 2.4481
L27.3859 2.3876
" />
<path d="M27.3859 2.3876
L27.5673 2.3876
" />
<path d="M27.5673 2.3876
L27.6883 2.4481
" />
<path d="M27.6883 2.4481
L27.7487 2.5690
" />
<path d="M27.7487 2.5690
L27.7487 3.2343
" />
<path d="M27.7487 2.5690
L27.8092 2.4481
" />
<path d="M27.8092 2.4481
L27.9302 2.3876
" />
<path d="M27.9302 2.3876
L28.1116 2.3876
" />
<path d="M28.1116 2.3876
L28.2326 2.4481
" />
<path d="M28.2326 2.4481
L28.2930 2.5690
" />
<path d="M28.2930 2.5690
L28.2930 3.2343
" />
<path d="M28.8978 3.2343
L28.8978 2.3876
" />
<path d="M28.8978 2.5086
L28.9583 2.4481
" />
<path d="M28.9583 2.4481
L29.0792 2.3876
" />
<path d="M29.0792 2.3876
L29.2607 2.3876
" />
<path d="M29.2607 2.3876
L29.3816 2.4481
" />
<path d="M29.3816 2.4481
L29.4421 2.5690
" />
<path d="M29.4421 2.5690
L29.4421 3.2343
" />
<path d="M29.4421 2.5690
L29.5026 2.4481
" />
<path d="M29.5026 2.4481
L29.6235 2.3876
" />
<path d="M29.6235 2.3876
L29.8049 2.3876
" />
<path d="M29.8049 2.3876
L29.9259 2.4481
" />
<path d="M29.9259 2.4481
L29.9864 2.5690
" />
<path d="M29.9864 2.5690
L29.9864 3.2343
" />
<path d="M30.2887 3.3552
L31.2564 3.3552
" />
<path d="M31.5587 3.2343
L31.5587 1.9643
" />
<path d="M31.5587 1.9643
L32.0426 1.9643
" />
<path d="M32.0426 1.9643
L32.1635 2.0247
" />
<path d="M32.1635 2.0247
L32.2240 2.0852
" />
<path d="M32.2240 2.0852
L32.2845 2.2062
" />
<path d="M32.2845 2.2062
L32.2845 2.3876
" />
<path d="M32.2845 2.3876
L32.2240 2.5086
" />
<path d="M32.2240 2.5086
L32.1635 2.5690
" />
<path d="M32.1635 2.5690
L32.0426 2.6295
" />
<path d="M32.0426 2.6295
L31.5587 2.6295
" />
<path d="M33.0707 1.9643
L33.1916 1.9643
" />
<path d="M33.1916 1.9643
L33.3126 2.0247
" />
<path d="M33.3126 2.0247
L33.3730 2.0852
" />
<path d="M33.3730 2.0852
L33.4335 2.2062
" />
<path d="M33.4335 2.2062
L33.4940 2.4481
" />
<path d="M33.4940 2.4481
L33.4940 2.7505
" />
<path d="M33.4940 2.7505
L33.4335 2.9924
" />
<path d="M33.4335 2.9924
L33.3730 3.1133
" />
<path d="M33.3730 3.1133
L33.3126 3.1738
" />
<path d="M33.3126 3.1738
L33.1916 3.2343
" />
<path d="M33.1916 3.2343
L33.0707 3.2343
" />
<path d="M33.0707 3.2343
L32.9497 3.1738
" />
<path d="M32.9497 3.1738
L32.8892 3.1133
" />
<path d="M32.8892 3.1133
L32.8287 2.9924
" />
<path d="M32.8287 2.9924
L32.7683 2.7505
" />
<path d="M32.7683 2.7505
L32.7683 2.4481
" />
<path d="M32.7683 2.4481
L32.8287 2.2062
" />
<path d="M32.8287 2.2062
L32.8892 2.0852
" />
<path d="M32.8892 2.0852
L32.9497 2.0247
" />
<path d="M32.9497 2.0247
L33.0707 1.9643
" />
<path d="M34.0383 3.1133
L34.0987 3.1738
" />
<path d="M34.0987 3.1738
L34.0383 3.2343
" />
<path d="M34.0383 3.2343
L33.9778 3.1738
" />
<path d="M33.9778 3.1738
L34.0383 3.1133
" />
<path d="M34.0383 3.1133
L34.0383 3.2343
" />
<path d="M35.1873 1.9643
L34.9454 1.9643
" />
<path d="M34.9454 1.9643
L34.8245 2.0247
" />
<path d="M34.8245 2.0247
L34.7640 2.0852
" />
<path d="M34.7640 2.0852
L34.6430 2.2667
" />
<path d="M34.6430 2.2667
L34.5826 2.5086
" />
<path d="M34.5826 2.5086
L34.5826 2.9924
" />
<path d="M34.5826 2.9924
L34.6430 3.1133
" />
<path d="M34.6430 3.1133
L34.7035 3.1738
" />
<path d="M34.7035 3.1738
L34.8245 3.2343
" />
<path d="M34.8245 3.2343
L35.0664 3.2343
" />
<path d="M35.0664 3.2343
L35.1873 3.1738
" />
<path d="M35.1873 3.1738
L35.2478 3.1133
" />
<path d="M35.2478 3.1133
L35.3083 2.9924
" />
<path d="M35.3083 2.9924
L35.3083 2.6900
" />
<path d="M35.3083 2.6900
L35.2478 2.5690
" />
<path d="M35.2478 2.5690
L35.1873 2.5086
" />
<path d="M35.1873 2.5086
L35.0664 2.4481
" />
<path d="M35.0664 2.4481
L34.8245 2.4481
" />
<path d="M34.8245 2.4481
L34.7035 2.5086
" />
<path d="M34.7035 2.5086
L34.6430 2.5690
" />
<path d="M34.6430 2.5690
L34.5826 2.6900
" />
<path d="M36.4573 1.9643
L35.8526 1.9643
" />
<path d="M35.8526 1.9643
L35.7921 2.5690
" />
<path d="M35.7921 2.5690
L35.8526 2.5086
" />
<path d="M35.8526 2.5086
L35.9735 2.4481
" />
<path d="M35.9735 2.4481
L36.2759 2.4481
" />
<path d="M36.2759 2.4481
L36.3968 2.5086
" />
<path d="M36.3968 2.5086
L36.4573 2.5690
" />
<path d="M36.4573 2.5690
L36.5178 2.6900
" />
<path d="M36.5178 2.6900
L36.5178 2.9924
" />
<path d="M36.5178 2.9924
L36.4573 3.1133
" />
<path d="M36.4573 3.1133
L36.3968 3.1738
" />
<path d="M36.3968 3.1738
L36.2759 3.2343
" />
<path d="M36.2759 3.2343
L35.9735 3.2343
" />
<path d="M35.9735 3.2343
L35.8526 3.1738
" />
<path d="M35.8526 3.1738
L35.7921 3.1133
" />
<path d="M37.0621 3.2343
L37.0621 2.3876
" />
<path d="M37.0621 2.5086
L37.1226 2.4481
" />
<path d="M37.1226 2.4481
L37.2435 2.3876
" />
<path d="M37.2435 2.3876
L37.4249 2.3876
" />
<path d="M37.4249 2.3876
L37.5459 2.4481
" />
<path d="M37.5459 2.4481
L37.6064 2.5690
" />
<path d="M37.6064 2.5690
L37.6064 3.2343
" />
<path d="M37.6064 2.5690
L37.6668 2.4481
" />
<path d="M37.6668 2.4481
L37.7878 2.3876
" />
<path d="M37.7878 2.3876
L37.9692 2.3876
" />
<path d="M37.9692 2.3876
L38.0902 2.4481
" />
<path d="M38.0902 2.4481
L38.1506 2.5690
" />
<path d="M38.1506 2.5690
L38.1506 3.2343
" />
<path d="M38.7554 3.2343
L38.7554 2.3876
" />
<path d="M38.7554 2.5086
L38.8159 2.4481
" />
<path d="M38.8159 2.4481
L38.9368 2.3876
" />
<path d="M38.9368 2.3876
L39.1183 2.3876
" />
<path d="M39.1183 2.3876
L39.2392 2.4481
" />
<path d="M39.2392 2.4481
L39.2997 2.5690
" />
<path d="M39.2997 2.5690
L39.2997 3.2343
" />
<path d="M39.2997 2.5690
L39.3602 2.4481
" />
<path d="M39.3602 2.4481
L39.4811 2.3876
" />
<path d="M39.4811 2.3876
L39.6626 2.3876
" />
<path d="M39.6626 2.3876
L39.7835 2.4481
" />
<path d="M39.7835 2.4481
L39.8440 2.5690
" />
<path d="M39.8440 2.5690
L39.8440 3.2343
" />
<path d="M40.1464 3.3552
L41.1140 3.3552
" />
<path d="M41.4164 2.5690
L41.8397 2.5690
" />
<path d="M42.0211 3.2343
L41.4164 3.2343
" />
<path d="M41.4164 3.2343
L41.4164 1.9643
" />
<path d="M41.4164 1.9643
L42.0211 1.9643
" />
<path d="M42.5654 3.2343
L42.5654 1.9643
" />
<path d="M42.5654 1.9643
L43.0492 1.9643
" />
<path d="M43.0492 1.9643
L43.1702 2.0247
" />
<path d="M43.1702 2.0247
L43.2306 2.0852
" />
<path d="M43.2306 2.0852
L43.2911 2.2062
" />
<path d="M43.2911 2.2062
L43.2911 2.3876
" />
<path d="M43.2911 2.3876
L43.2306 2.5086
" />
<path d="M43.2306 2.5086
L43.1702 2.5690
" />
<path d="M43.1702 2.5690
L43.0492 2.6295
" />
<path d="M43.0492 2.6295
L42.5654 2.6295
" />
<path d="M43.7749 2.0852
L43.8354 2.0247
" />
<path d="M43.8354 2.0247
L43.9564 1.9643
" />
<path d="M43.9564 1.9643
L44.2587 1.9643
" />
<path d="M44.2587 1.9643
L44.3797 2.0247
" />
<path d="M44.3797 2.0247
L44.4402 2.0852
" />
<path d="M44.4402 2.0852
L44.5007 2.2062
" />
<path d="M44.5007 2.2062
L44.5007 2.3271
" />
<path d="M44.5007 2.3271
L44.4402 2.5086
" />
<path d="M44.4402 2.5086
L43.7145 3.2343
" />
<path d="M43.7145 3.2343
L44.5007 3.2343
" />
<path d="M45.0449 3.1133
L45.1054 3.1738
" />
<path d="M45.1054 3.1738
L45.0449 3.2343
" />
<path d="M45.0449 3.2343
L44.9845 3.1738
" />
<path d="M44.9845 3.1738
L45.0449 3.1133
" />
<path d="M45.0449 3.1133
L45.0449 3.2343
" />
<path d="M46.3149 3.2343
L45.5892 3.2343
" />
<path d="M45.9521 3.2343
L45.9521 1.9643
" />
<path d="M45.9521 1.9643
L45.8311 2.1457
" />
<path d="M45.8311 2.1457
L45.7102 2.2667
" />
<path d="M45.7102 2.2667
L45.5892 2.3271
" />
<path d="M46.7383 3.2343
L47.4035 2.3876
" />
<path d="M46.7383 2.3876
L47.4035 3.2343
" />
<path d="M47.8268 2.0852
L47.8873 2.0247
" />
<path d="M47.8873 2.0247
L48.0083 1.9643
" />
<path d="M48.0083 1.9643
L48.3106 1.9643
" />
<path d="M48.3106 1.9643
L48.4316 2.0247
" />
<path d="M48.4316 2.0247
L48.4921 2.0852
" />
<path d="M48.4921 2.0852
L48.5526 2.2062
" />
<path d="M48.5526 2.2062
L48.5526 2.3271
" />
<path d="M48.5526 2.3271
L48.4921 2.5086
" />
<path d="M48.4921 2.5086
L47.7664 3.2343
" />
<path d="M47.7664 3.2343
L48.5526 3.2343
" />
<path d="M49.0968 3.1133
L49.1573 3.1738
" />
<path d="M49.1573 3.1738
L49.0968 3.2343
" />
<path d="M49.0968 3.2343
L49.0364 3.1738
" />
<path d="M49.0364 3.1738
L49.0968 3.1133
" />
<path d="M49.0968 3.1133
L49.0968 3.2343
" />
<path d="M50.3668 3.2343
L49.6411 3.2343
" />
<path d="M50.0040 3.2343
L50.0040 1.9643
" />
<path d="M50.0040 1.9643
L49.8830 2.1457
" />
<path d="M49.8830 2.1457
L49.7621 2.2667
" />
<path d="M49.7621 2.2667
L49.6411 2.3271
" />
<path d="M50.9111 3.2343
L50.9111 2.3876
" />
<path d="M50.9111 2.5086
L50.9716 2.4481
" />
<path d="M50.9716 2.4481
L51.0926 2.3876
" />
<path d="M51.0926 2.3876
L51.2740 2.3876
" />
<path d="M51.2740 2.3876
L51.3949 2.4481
" />
<path d="M51.3949 2.4481
L51.4554 2.5690
" />
<path d="M51.4554 2.5690
L51.4554 3.2343
" />
<path d="M51.4554 2.5690
L51.5159 2.4481
" />
<path d="M51.5159 2.4481
L51.6368 2.3876
" />
<path d="M51.6368 2.3876
L51.8183 2.3876
" />
<path d="M51.8183 2.3876
L51.9392 2.4481
" />
<path d="M51.9392 2.4481
L51.9997 2.5690
" />
<path d="M51.9997 2.5690
L51.9997 3.2343
" />
<path d="M52.6045 3.2343
L52.6045 2.3876
" />
<path d="M52.6045 2.5086
L52.6649 2.4481
" />
<path d="M52.6649 2.4481
L52.7859 2.3876
" />
<path d="M52.7859 2.3876
L52.9673 2.3876
" />
<path d="M52.9673 2.3876
L53.0883 2.4481
" />
<path d="M53.0883 2.4481
L53.1487 2.5690
" />
<path d="M53.1487 2.5690
L53.1487 3.2343
" />
<path d="M53.1487 2.5690
L53.2092 2.4481
" />
<path d="M53.2092 2.4481
L53.3302 2.3876
" />
<path d="M53.3302 2.3876
L53.5116 2.3876
" />
<path d="M53.5116 2.3876
L53.6326 2.4481
" />
<path d="M53.6326 2.4481
L53.6930 2.5690
" />
<path d="M53.6930 2.5690
L53.6930 3.2343
" />
<path d="M53.9954 3.3552
L54.9630 3.3552
" />
<path d="M55.0840 1.9643
L55.8097 1.9643
" />
<path d="M55.4468 3.2343
L55.4468 1.9643
" />
<path d="M56.2330 3.2343
L56.2330 1.9643
" />
<path d="M56.7773 3.2343
L56.7773 2.5690
" />
<path d="M56.7773 2.5690
L56.7168 2.4481
" />
<path d="M56.7168 2.4481
L56.5959 2.3876
" />
<path d="M56.5959 2.3876
L56.4145 2.3876
" />
<path d="M56.4145 2.3876
L56.2935 2.4481
" />
<path d="M56.2935 2.4481
L56.2330 2.5086
" />
<path d="M57.8659 3.1738
L57.7449 3.2343
" />
<path d="M57.7449 3.2343
L57.5030 3.2343
" />
<path d="M57.5030 3.2343
L57.3821 3.1738
" />
<path d="M57.3821 3.1738
L57.3216 3.0528
" />
<path d="M57.3216 3.0528
L57.3216 2.5690
" />
<path d="M57.3216 2.5690
L57.3821 2.4481
" />
<path d="M57.3821 2.4481
L57.5030 2.3876
" />
<path d="M57.5030 2.3876
L57.7449 2.3876
" />
<path d="M57.7449 2.3876
L57.8659 2.4481
" />
<path d="M57.8659 2.4481
L57.9264 2.5690
" />
<path d="M57.9264 2.5690
L57.9264 2.6900
" />
<path d="M57.9264 2.6900
L57.3216 2.8109
" />
<path d="M58.4706 3.2343
L58.4706 2.3876
" />
<path d="M58.4706 2.6295
L58.5311 2.5086
" />
<path d="M58.5311 2.5086
L58.5916 2.4481
" />
<path d="M58.5916 2.4481
L58.7126 2.3876
" />
<path d="M58.7126 2.3876
L58.8335 2.3876
" />
<path d="M59.2568 3.2343
L59.2568 2.3876
" />
<path d="M59.2568 2.5086
L59.3173 2.4481
" />
<path d="M59.3173 2.4481
L59.4383 2.3876
" />
<path d="M59.4383 2.3876
L59.6197 2.3876
" />
<path d="M59.6197 2.3876
L59.7406 2.4481
" />
<path d="M59.7406 2.4481
L59.8011 2.5690
" />
<path d="M59.8011 2.5690
L59.8011 3.2343
" />
<path d="M59.8011 2.5690
L59.8616 2.4481
" />
<path d="M59.8616 2.4481
L59.9826 2.3876
" />
<path d="M59.9826 2.3876
L60.1640 2.3876
" />
<path d="M60.1640 2.3876
L60.2849 2.4481
" />
<path d="M60.2849 2.4481
L60.3454 2.5690
" />
<path d="M60.3454 2.5690
L60.3454 3.2343
" />
<path d="M61.4945 3.2343
L61.4945 2.5690
" />
<path d="M61.4945 2.5690
L61.4340 2.4481
" />
<path d="M61.4340 2.4481
L61.3130 2.3876
" />
<path d="M61.3130 2.3876
L61.0711 2.3876
" />
<path d="M61.0711 2.3876
L60.9502 2.4481
" />
<path d="M61.4945 3.1738
L61.3735 3.2343
" />
<path d="M61.3735 3.2343
L61.0711 3.2343
" />
<path d="M61.0711 3.2343
L60.9502 3.1738
" />
<path d="M60.9502 3.1738
L60.8897 3.0528
" />
<path d="M60.8897 3.0528
L60.8897 2.9319
" />
<path d="M60.8897 2.9319
L60.9502 2.8109
" />
<path d="M60.9502 2.8109
L61.0711 2.7505
" />
<path d="M61.0711 2.7505
L61.3735 2.7505
" />
<path d="M61.3735 2.7505
L61.4945 2.6900
" />
<path d="M62.2806 3.2343
L62.1597 3.1738
" />
<path d="M62.1597 3.1738
L62.0992 3.0528
" />
<path d="M62.0992 3.0528
L62.0992 1.9643
" />
<path d="M62.5830 1.9643
L63.0064 3.2343
" />
<path d="M63.0064 3.2343
L63.4297 1.9643
" />
<path d="M63.8530 3.2343
L63.8530 2.3876
" />
<path d="M63.8530 1.9643
L63.7926 2.0247
" />
<path d="M63.7926 2.0247
L63.8530 2.0852
" />
<path d="M63.8530 2.0852
L63.9135 2.0247
" />
<path d="M63.9135 2.0247
L63.8530 1.9643
" />
<path d="M63.8530 1.9643
L63.8530 2.0852
" />
<path d="M65.0021 3.2343
L65.0021 2.5690
" />
<path d="M65.0021 2.5690
L64.9416 2.4481
" />
<path d="M64.9416 2.4481
L64.8206 2.3876
" />
<path d="M64.8206 2.3876
L64.5787 2.3876
" />
<path d="M64.5787 2.3876
L64.4578 2.4481
" />
<path d="M65.0021 3.1738
L64.8811 3.2343
" />
<path d="M64.8811 3.2343
L64.5787 3.2343
" />
<path d="M64.5787 3.2343
L64.4578 3.1738
" />
<path d="M64.4578 3.1738
L64.3973 3.0528
" />
<path d="M64.3973 3.0528
L64.3973 2.9319
" />
<path d="M64.3973 2.9319
L64.4578 2.8109
" />
<path d="M64.4578 2.8109
L64.5787 2.7505
" />
<path d="M64.5787 2.7505
L64.8811 2.7505
" />
<path d="M64.8811 2.7505
L65.0021 2.6900
" />
<path d="M65.5464 3.1738
L65.6673 3.2343
" />
<path d="M65.6673 3.2343
L65.9092 3.2343
" />
<path d="M65.9092 3.2343
L66.0302 3.1738
" />
<path d="M66.0302 3.1738
L66.0906 3.0528
" />
<path d="M66.0906 3.0528
L66.0906 2.9924
" />
<path d="M66.0906 2.9924
L66.0302 2.8714
" />
<path d="M66.0302 2.8714
L65.9092 2.8109
" />
<path d="M65.9092 2.8109
L65.7278 2.8109
" />
<path d="M65.7278 2.8109
L65.6068 2.7505
" />
<path d="M65.6068 2.7505
L65.5464 2.6295
" />
<path d="M65.5464 2.6295
L65.5464 2.5690
" />
<path d="M65.5464 2.5690
L65.6068 2.4481
" />
<path d="M65.6068 2.4481
L65.7278 2.3876
" />
<path d="M65.7278 2.3876
L65.9092 2.3876
" />
<path d="M65.9092 2.3876
L66.0302 2.4481
" />
</g></g>
<g style="fill:none; 
stroke:#AFAFAF; stroke-width:0.1500; stroke-opacity:1; 
stroke-linecap:round; stroke-linejoin:round;">
<text x="33.2218" y="3.1550"
textLength="4.5357" font-size="1.3333" lengthAdjust="spacingAndGlyphs"
text-anchor="middle" opacity="0">REF**</text>
<g class="stroked-text"><desc>REF**</desc>
<path d="M31.8885 3.1098
L31.5552 2.6336
" />
<path d="M31.3171 3.1098
L31.3171 2.1098
" />
<path d="M31.3171 2.1098
L31.6980 2.1098
" />
<path d="M31.6980 2.1098
L31.7933 2.1574
" />
<path d="M31.7933 2.1574
L31.8409 2.2051
" />
<path d="M31.8409 2.2051
L31.8885 2.3003
" />
<path d="M31.8885 2.3003
L31.8885 2.4432
" />
<path d="M31.8885 2.4432
L31.8409 2.5384
" />
<path d="M31.8409 2.5384
L31.7933 2.5860
" />
<path d="M31.7933 2.5860
L31.6980 2.6336
" />
<path d="M31.6980 2.6336
L31.3171 2.6336
" />
<path d="M32.3171 2.5860
L32.6504 2.5860
" />
<path d="M32.7933 3.1098
L32.3171 3.1098
" />
<path d="M32.3171 3.1098
L32.3171 2.1098
" />
<path d="M32.3171 2.1098
L32.7933 2.1098
" />
<path d="M33.5552 2.5860
L33.2218 2.5860
" />
<path d="M33.2218 3.1098
L33.2218 2.1098
" />
<path d="M33.2218 2.1098
L33.6980 2.1098
" />
<path d="M34.2218 2.1098
L34.2218 2.3479
" />
<path d="M33.9837 2.2527
L34.2218 2.3479
" />
<path d="M34.2218 2.3479
L34.4599 2.2527
" />
<path d="M34.0790 2.5384
L34.2218 2.3479
" />
<path d="M34.2218 2.3479
L34.3647 2.5384
" />
<path d="M34.9837 2.1098
L34.9837 2.3479
" />
<path d="M34.7456 2.2527
L34.9837 2.3479
" />
<path d="M34.9837 2.3479
L35.2218 2.2527
" />
<path d="M34.8409 2.5384
L34.9837 2.3479
" />
<path d="M34.9837 2.3479
L35.1266 2.5384
" />
</g></g>
<g style="fill:none; 
stroke:#AFAFAF; stroke-width:0.1000; stroke-opacity:1; 
stroke-linecap:round; stroke-linejoin:round;">
<path d="M31.2218 1.6550
L32.2218 0.6550
" />
<path d="M31.2218 4.6550
L31.2218 1.6550
" />
<path d="M32.2218 0.6550
L35.2218 0.6550
" />
<path d="M35.2218 0.6550
L35.2218 4.6550
" />
<path d="M35.2218 4.6550
L31.2218 4.6550
" />
</g> 
</svg>
