<?xml version="1.0" standalone="no"?>
 <!DOCTYPE svg PUBLIC "-//W3C//DTD SVG 1.1//EN" 
 "http://www.w3.org/Graphics/SVG/1.1/DTD/svg11.dtd"> 
<svg
  xmlns:svg="http://www.w3.org/2000/svg"
  xmlns="http://www.w3.org/2000/svg"
  xmlns:xlink="http://www.w3.org/1999/xlink"
  version="1.1"
  width="18.8468mm" height="5.7658mm" viewBox="0.0000 0.0000 18.8468 5.7658">
<title>SVG Image created as working-brd.svg date 2024/04/06 11:16:08 </title>
  <desc>Image generated by PCBNEW </desc>
<g style="fill:#000000; fill-opacity:1.0000;stroke:#000000; stroke-opacity:1.0000;
stroke-linecap:round; stroke-linejoin:round;"
 transform="translate(0 0) scale(1 1)">
<path style="fill:#C83434; fill-opacity:1.0000; stroke:none;fill-rule:evenodd;"
d="M 4.9995,0.5700
5.0185,0.4743
5.0727,0.3932
5.1538,0.3390
5.2495,0.3200
7.2245,0.3200
7.3201,0.3390
7.4012,0.3932
7.4554,0.4743
7.4745,0.5700
7.4745,5.2200
7.4554,5.3157
7.4012,5.3968
7.3201,5.4510
7.2245,5.4700
5.2495,5.4700
5.1538,5.4510
5.0727,5.3968
5.0185,5.3157
4.9995,5.2200
Z" /> 
<path style="fill:#C83434; fill-opacity:1.0000; stroke:none;fill-rule:evenodd;"
d="M 11.3745,0.5700
11.3935,0.4743
11.4477,0.3932
11.5288,0.3390
11.6245,0.3200
13.5995,0.3200
13.6951,0.3390
13.7762,0.3932
13.8304,0.4743
13.8495,0.5700
13.8495,5.2200
13.8304,5.3157
13.7762,5.3968
13.6951,5.4510
13.5995,5.4700
11.6245,5.4700
11.5288,5.4510
11.4477,5.3968
11.3935,5.3157
11.3745,5.2200
Z" /> 
<path style="fill:#D864FF; fill-opacity:0.4000; stroke:none;fill-rule:evenodd;"
d="M 4.9995,0.5700
5.0185,0.4743
5.0727,0.3932
5.1538,0.3390
5.2495,0.3200
7.2245,0.3200
7.3201,0.3390
7.4012,0.3932
7.4554,0.4743
7.4745,0.5700
7.4745,5.2200
7.4554,5.3157
7.4012,5.3968
7.3201,5.4510
7.2245,5.4700
5.2495,5.4700
5.1538,5.4510
5.0727,5.3968
5.0185,5.3157
4.9995,5.2200
Z" /> 
<path style="fill:#D864FF; fill-opacity:0.4000; stroke:none;fill-rule:evenodd;"
d="M 11.3745,0.5700
11.3935,0.4743
11.4477,0.3932
11.5288,0.3390
11.6245,0.3200
13.5995,0.3200
13.6951,0.3390
13.7762,0.3932
13.8304,0.4743
13.8495,0.5700
13.8495,5.2200
13.8304,5.3157
13.7762,5.3968
13.6951,5.4510
13.5995,5.4700
11.6245,5.4700
11.5288,5.4510
11.4477,5.3968
11.3935,5.3157
11.3745,5.2200
Z" /> 
<path style="fill:#B4A09A; fill-opacity:0.9000; stroke:none;fill-rule:evenodd;"
d="M 4.9995,0.5700
5.0185,0.4743
5.0727,0.3932
5.1538,0.3390
5.2495,0.3200
7.2245,0.3200
7.3201,0.3390
7.4012,0.3932
7.4554,0.4743
7.4745,0.5700
7.4745,5.2200
7.4554,5.3157
7.4012,5.3968
7.3201,5.4510
7.2245,5.4700
5.2495,5.4700
5.1538,5.4510
5.0727,5.3968
5.0185,5.3157
4.9995,5.2200
Z" /> 
<path style="fill:#B4A09A; fill-opacity:0.9000; stroke:none;fill-rule:evenodd;"
d="M 11.3745,0.5700
11.3935,0.4743
11.4477,0.3932
11.5288,0.3390
11.6245,0.3200
13.5995,0.3200
13.6951,0.3390
13.7762,0.3932
13.8304,0.4743
13.8495,0.5700
13.8495,5.2200
13.8304,5.3157
13.7762,5.3968
13.6951,5.4510
13.5995,5.4700
11.6245,5.4700
11.5288,5.4510
11.4477,5.3968
11.3935,5.3157
11.3745,5.2200
Z" /> 
</g>
<g style="fill:none; 
stroke:#F2EDA1; stroke-width:0.1588; stroke-opacity:1; 
stroke-linecap:round; stroke-linejoin:round;">
<text x="9.4245" y="3.5300"
textLength="5.6651" font-size="1.6933" lengthAdjust="spacingAndGlyphs"
text-anchor="middle" opacity="0">REF**</text>
<g class="stroked-text"><desc>REF**</desc>
<path d="M7.7311 3.4743
L7.3078 2.8695
" />
<path d="M7.0054 3.4743
L7.0054 2.2043
" />
<path d="M7.0054 2.2043
L7.4892 2.2043
" />
<path d="M7.4892 2.2043
L7.6102 2.2647
" />
<path d="M7.6102 2.2647
L7.6706 2.3252
" />
<path d="M7.6706 2.3252
L7.7311 2.4462
" />
<path d="M7.7311 2.4462
L7.7311 2.6276
" />
<path d="M7.7311 2.6276
L7.6706 2.7486
" />
<path d="M7.6706 2.7486
L7.6102 2.8090
" />
<path d="M7.6102 2.8090
L7.4892 2.8695
" />
<path d="M7.4892 2.8695
L7.0054 2.8695
" />
<path d="M8.2754 2.8090
L8.6987 2.8090
" />
<path d="M8.8802 3.4743
L8.2754 3.4743
" />
<path d="M8.2754 3.4743
L8.2754 2.2043
" />
<path d="M8.2754 2.2043
L8.8802 2.2043
" />
<path d="M9.8478 2.8090
L9.4245 2.8090
" />
<path d="M9.4245 3.4743
L9.4245 2.2043
" />
<path d="M9.4245 2.2043
L10.0292 2.2043
" />
<path d="M10.6945 2.2043
L10.6945 2.5067
" />
<path d="M10.3921 2.3857
L10.6945 2.5067
" />
<path d="M10.6945 2.5067
L10.9968 2.3857
" />
<path d="M10.5130 2.7486
L10.6945 2.5067
" />
<path d="M10.6945 2.5067
L10.8759 2.7486
" />
<path d="M11.6621 2.2043
L11.6621 2.5067
" />
<path d="M11.3597 2.3857
L11.6621 2.5067
" />
<path d="M11.6621 2.5067
L11.9645 2.3857
" />
<path d="M11.4806 2.7486
L11.6621 2.5067
" />
<path d="M11.6621 2.5067
L11.8435 2.7486
" />
</g></g>
<g style="fill:none; 
stroke:#F2EDA1; stroke-width:0.1200; stroke-opacity:1; 
stroke-linecap:round; stroke-linejoin:round;">
<path d="M4.7395 0.0600
L4.7395 5.7300
" />
<path d="M4.7395 5.7300
L13.4245 5.7300
" />
<path d="M13.4245 0.0600
L4.7395 0.0600
" />
</g>
<g style="fill:none; 
stroke:#FF26E2; stroke-width:0.0500; stroke-opacity:1; 
stroke-linecap:round; stroke-linejoin:round;">
<path d="M4.7445 0.0750
L14.1045 0.0750
" />
<path d="M4.7445 5.7150
L4.7445 0.0750
" />
<path d="M14.1045 0.0750
L14.1045 5.7150
" />
<path d="M14.1045 5.7150
L4.7445 5.7150
" />
</g>
<g style="fill:none; 
stroke:#AFAFAF; stroke-width:0.1588; stroke-opacity:1; 
stroke-linecap:round; stroke-linejoin:round;">
<text x="9.4245" y="3.5300"
textLength="18.8489" font-size="1.6933" lengthAdjust="spacingAndGlyphs"
text-anchor="middle" opacity="0">D_3220_8050Metric</text>
<g class="stroked-text"><desc>D_3220_8050Metric</desc>
<path d="M0.4135 3.4743
L0.4135 2.2043
" />
<path d="M0.4135 2.2043
L0.7159 2.2043
" />
<path d="M0.7159 2.2043
L0.8973 2.2647
" />
<path d="M0.8973 2.2647
L1.0183 2.3857
" />
<path d="M1.0183 2.3857
L1.0787 2.5067
" />
<path d="M1.0787 2.5067
L1.1392 2.7486
" />
<path d="M1.1392 2.7486
L1.1392 2.9300
" />
<path d="M1.1392 2.9300
L1.0787 3.1719
" />
<path d="M1.0787 3.1719
L1.0183 3.2928
" />
<path d="M1.0183 3.2928
L0.8973 3.4138
" />
<path d="M0.8973 3.4138
L0.7159 3.4743
" />
<path d="M0.7159 3.4743
L0.4135 3.4743
" />
<path d="M1.3811 3.5952
L2.3487 3.5952
" />
<path d="M2.5302 2.2043
L3.3164 2.2043
" />
<path d="M3.3164 2.2043
L2.8930 2.6881
" />
<path d="M2.8930 2.6881
L3.0745 2.6881
" />
<path d="M3.0745 2.6881
L3.1954 2.7486
" />
<path d="M3.1954 2.7486
L3.2559 2.8090
" />
<path d="M3.2559 2.8090
L3.3164 2.9300
" />
<path d="M3.3164 2.9300
L3.3164 3.2324
" />
<path d="M3.3164 3.2324
L3.2559 3.3533
" />
<path d="M3.2559 3.3533
L3.1954 3.4138
" />
<path d="M3.1954 3.4138
L3.0745 3.4743
" />
<path d="M3.0745 3.4743
L2.7116 3.4743
" />
<path d="M2.7116 3.4743
L2.5906 3.4138
" />
<path d="M2.5906 3.4138
L2.5302 3.3533
" />
<path d="M3.8002 2.3252
L3.8606 2.2647
" />
<path d="M3.8606 2.2647
L3.9816 2.2043
" />
<path d="M3.9816 2.2043
L4.2840 2.2043
" />
<path d="M4.2840 2.2043
L4.4049 2.2647
" />
<path d="M4.4049 2.2647
L4.4654 2.3252
" />
<path d="M4.4654 2.3252
L4.5259 2.4462
" />
<path d="M4.5259 2.4462
L4.5259 2.5671
" />
<path d="M4.5259 2.5671
L4.4654 2.7486
" />
<path d="M4.4654 2.7486
L3.7397 3.4743
" />
<path d="M3.7397 3.4743
L4.5259 3.4743
" />
<path d="M5.0097 2.3252
L5.0702 2.2647
" />
<path d="M5.0702 2.2647
L5.1911 2.2043
" />
<path d="M5.1911 2.2043
L5.4935 2.2043
" />
<path d="M5.4935 2.2043
L5.6145 2.2647
" />
<path d="M5.6145 2.2647
L5.6749 2.3252
" />
<path d="M5.6749 2.3252
L5.7354 2.4462
" />
<path d="M5.7354 2.4462
L5.7354 2.5671
" />
<path d="M5.7354 2.5671
L5.6749 2.7486
" />
<path d="M5.6749 2.7486
L4.9492 3.4743
" />
<path d="M4.9492 3.4743
L5.7354 3.4743
" />
<path d="M6.5216 2.2043
L6.6426 2.2043
" />
<path d="M6.6426 2.2043
L6.7635 2.2647
" />
<path d="M6.7635 2.2647
L6.8240 2.3252
" />
<path d="M6.8240 2.3252
L6.8845 2.4462
" />
<path d="M6.8845 2.4462
L6.9449 2.6881
" />
<path d="M6.9449 2.6881
L6.9449 2.9905
" />
<path d="M6.9449 2.9905
L6.8845 3.2324
" />
<path d="M6.8845 3.2324
L6.8240 3.3533
" />
<path d="M6.8240 3.3533
L6.7635 3.4138
" />
<path d="M6.7635 3.4138
L6.6426 3.4743
" />
<path d="M6.6426 3.4743
L6.5216 3.4743
" />
<path d="M6.5216 3.4743
L6.4006 3.4138
" />
<path d="M6.4006 3.4138
L6.3402 3.3533
" />
<path d="M6.3402 3.3533
L6.2797 3.2324
" />
<path d="M6.2797 3.2324
L6.2192 2.9905
" />
<path d="M6.2192 2.9905
L6.2192 2.6881
" />
<path d="M6.2192 2.6881
L6.2797 2.4462
" />
<path d="M6.2797 2.4462
L6.3402 2.3252
" />
<path d="M6.3402 2.3252
L6.4006 2.2647
" />
<path d="M6.4006 2.2647
L6.5216 2.2043
" />
<path d="M7.1868 3.5952
L8.1545 3.5952
" />
<path d="M8.6383 2.7486
L8.5173 2.6881
" />
<path d="M8.5173 2.6881
L8.4568 2.6276
" />
<path d="M8.4568 2.6276
L8.3964 2.5067
" />
<path d="M8.3964 2.5067
L8.3964 2.4462
" />
<path d="M8.3964 2.4462
L8.4568 2.3252
" />
<path d="M8.4568 2.3252
L8.5173 2.2647
" />
<path d="M8.5173 2.2647
L8.6383 2.2043
" />
<path d="M8.6383 2.2043
L8.8802 2.2043
" />
<path d="M8.8802 2.2043
L9.0011 2.2647
" />
<path d="M9.0011 2.2647
L9.0616 2.3252
" />
<path d="M9.0616 2.3252
L9.1221 2.4462
" />
<path d="M9.1221 2.4462
L9.1221 2.5067
" />
<path d="M9.1221 2.5067
L9.0616 2.6276
" />
<path d="M9.0616 2.6276
L9.0011 2.6881
" />
<path d="M9.0011 2.6881
L8.8802 2.7486
" />
<path d="M8.8802 2.7486
L8.6383 2.7486
" />
<path d="M8.6383 2.7486
L8.5173 2.8090
" />
<path d="M8.5173 2.8090
L8.4568 2.8695
" />
<path d="M8.4568 2.8695
L8.3964 2.9905
" />
<path d="M8.3964 2.9905
L8.3964 3.2324
" />
<path d="M8.3964 3.2324
L8.4568 3.3533
" />
<path d="M8.4568 3.3533
L8.5173 3.4138
" />
<path d="M8.5173 3.4138
L8.6383 3.4743
" />
<path d="M8.6383 3.4743
L8.8802 3.4743
" />
<path d="M8.8802 3.4743
L9.0011 3.4138
" />
<path d="M9.0011 3.4138
L9.0616 3.3533
" />
<path d="M9.0616 3.3533
L9.1221 3.2324
" />
<path d="M9.1221 3.2324
L9.1221 2.9905
" />
<path d="M9.1221 2.9905
L9.0616 2.8695
" />
<path d="M9.0616 2.8695
L9.0011 2.8090
" />
<path d="M9.0011 2.8090
L8.8802 2.7486
" />
<path d="M9.9083 2.2043
L10.0292 2.2043
" />
<path d="M10.0292 2.2043
L10.1502 2.2647
" />
<path d="M10.1502 2.2647
L10.2106 2.3252
" />
<path d="M10.2106 2.3252
L10.2711 2.4462
" />
<path d="M10.2711 2.4462
L10.3316 2.6881
" />
<path d="M10.3316 2.6881
L10.3316 2.9905
" />
<path d="M10.3316 2.9905
L10.2711 3.2324
" />
<path d="M10.2711 3.2324
L10.2106 3.3533
" />
<path d="M10.2106 3.3533
L10.1502 3.4138
" />
<path d="M10.1502 3.4138
L10.0292 3.4743
" />
<path d="M10.0292 3.4743
L9.9083 3.4743
" />
<path d="M9.9083 3.4743
L9.7873 3.4138
" />
<path d="M9.7873 3.4138
L9.7268 3.3533
" />
<path d="M9.7268 3.3533
L9.6664 3.2324
" />
<path d="M9.6664 3.2324
L9.6059 2.9905
" />
<path d="M9.6059 2.9905
L9.6059 2.6881
" />
<path d="M9.6059 2.6881
L9.6664 2.4462
" />
<path d="M9.6664 2.4462
L9.7268 2.3252
" />
<path d="M9.7268 2.3252
L9.7873 2.2647
" />
<path d="M9.7873 2.2647
L9.9083 2.2043
" />
<path d="M11.4806 2.2043
L10.8759 2.2043
" />
<path d="M10.8759 2.2043
L10.8154 2.8090
" />
<path d="M10.8154 2.8090
L10.8759 2.7486
" />
<path d="M10.8759 2.7486
L10.9968 2.6881
" />
<path d="M10.9968 2.6881
L11.2992 2.6881
" />
<path d="M11.2992 2.6881
L11.4202 2.7486
" />
<path d="M11.4202 2.7486
L11.4806 2.8090
" />
<path d="M11.4806 2.8090
L11.5411 2.9300
" />
<path d="M11.5411 2.9300
L11.5411 3.2324
" />
<path d="M11.5411 3.2324
L11.4806 3.3533
" />
<path d="M11.4806 3.3533
L11.4202 3.4138
" />
<path d="M11.4202 3.4138
L11.2992 3.4743
" />
<path d="M11.2992 3.4743
L10.9968 3.4743
" />
<path d="M10.9968 3.4743
L10.8759 3.4138
" />
<path d="M10.8759 3.4138
L10.8154 3.3533
" />
<path d="M12.3273 2.2043
L12.4483 2.2043
" />
<path d="M12.4483 2.2043
L12.5692 2.2647
" />
<path d="M12.5692 2.2647
L12.6297 2.3252
" />
<path d="M12.6297 2.3252
L12.6902 2.4462
" />
<path d="M12.6902 2.4462
L12.7507 2.6881
" />
<path d="M12.7507 2.6881
L12.7507 2.9905
" />
<path d="M12.7507 2.9905
L12.6902 3.2324
" />
<path d="M12.6902 3.2324
L12.6297 3.3533
" />
<path d="M12.6297 3.3533
L12.5692 3.4138
" />
<path d="M12.5692 3.4138
L12.4483 3.4743
" />
<path d="M12.4483 3.4743
L12.3273 3.4743
" />
<path d="M12.3273 3.4743
L12.2064 3.4138
" />
<path d="M12.2064 3.4138
L12.1459 3.3533
" />
<path d="M12.1459 3.3533
L12.0854 3.2324
" />
<path d="M12.0854 3.2324
L12.0249 2.9905
" />
<path d="M12.0249 2.9905
L12.0249 2.6881
" />
<path d="M12.0249 2.6881
L12.0854 2.4462
" />
<path d="M12.0854 2.4462
L12.1459 2.3252
" />
<path d="M12.1459 2.3252
L12.2064 2.2647
" />
<path d="M12.2064 2.2647
L12.3273 2.2043
" />
<path d="M13.2949 3.4743
L13.2949 2.2043
" />
<path d="M13.2949 2.2043
L13.7183 3.1114
" />
<path d="M13.7183 3.1114
L14.1416 2.2043
" />
<path d="M14.1416 2.2043
L14.1416 3.4743
" />
<path d="M15.2302 3.4138
L15.1092 3.4743
" />
<path d="M15.1092 3.4743
L14.8673 3.4743
" />
<path d="M14.8673 3.4743
L14.7464 3.4138
" />
<path d="M14.7464 3.4138
L14.6859 3.2928
" />
<path d="M14.6859 3.2928
L14.6859 2.8090
" />
<path d="M14.6859 2.8090
L14.7464 2.6881
" />
<path d="M14.7464 2.6881
L14.8673 2.6276
" />
<path d="M14.8673 2.6276
L15.1092 2.6276
" />
<path d="M15.1092 2.6276
L15.2302 2.6881
" />
<path d="M15.2302 2.6881
L15.2906 2.8090
" />
<path d="M15.2906 2.8090
L15.2906 2.9300
" />
<path d="M15.2906 2.9300
L14.6859 3.0509
" />
<path d="M15.6535 2.6276
L16.1373 2.6276
" />
<path d="M15.8349 2.2043
L15.8349 3.2928
" />
<path d="M15.8349 3.2928
L15.8954 3.4138
" />
<path d="M15.8954 3.4138
L16.0164 3.4743
" />
<path d="M16.0164 3.4743
L16.1373 3.4743
" />
<path d="M16.5606 3.4743
L16.5606 2.6276
" />
<path d="M16.5606 2.8695
L16.6211 2.7486
" />
<path d="M16.6211 2.7486
L16.6816 2.6881
" />
<path d="M16.6816 2.6881
L16.8026 2.6276
" />
<path d="M16.8026 2.6276
L16.9235 2.6276
" />
<path d="M17.3468 3.4743
L17.3468 2.6276
" />
<path d="M17.3468 2.2043
L17.2864 2.2647
" />
<path d="M17.2864 2.2647
L17.3468 2.3252
" />
<path d="M17.3468 2.3252
L17.4073 2.2647
" />
<path d="M17.4073 2.2647
L17.3468 2.2043
" />
<path d="M17.3468 2.2043
L17.3468 2.3252
" />
<path d="M18.4959 3.4138
L18.3749 3.4743
" />
<path d="M18.3749 3.4743
L18.1330 3.4743
" />
<path d="M18.1330 3.4743
L18.0121 3.4138
" />
<path d="M18.0121 3.4138
L17.9516 3.3533
" />
<path d="M17.9516 3.3533
L17.8911 3.2324
" />
<path d="M17.8911 3.2324
L17.8911 2.8695
" />
<path d="M17.8911 2.8695
L17.9516 2.7486
" />
<path d="M17.9516 2.7486
L18.0121 2.6881
" />
<path d="M18.0121 2.6881
L18.1330 2.6276
" />
<path d="M18.1330 2.6276
L18.3749 2.6276
" />
<path d="M18.3749 2.6276
L18.4959 2.6881
" />
</g></g>
<g style="fill:none; 
stroke:#AFAFAF; stroke-width:0.1500; stroke-opacity:1; 
stroke-linecap:round; stroke-linejoin:round;">
<text x="9.4245" y="3.3950"
textLength="4.5357" font-size="1.3333" lengthAdjust="spacingAndGlyphs"
text-anchor="middle" opacity="0">REF**</text>
<g class="stroked-text"><desc>REF**</desc>
<path d="M8.0911 3.3498
L7.7578 2.8736
" />
<path d="M7.5197 3.3498
L7.5197 2.3498
" />
<path d="M7.5197 2.3498
L7.9006 2.3498
" />
<path d="M7.9006 2.3498
L7.9959 2.3974
" />
<path d="M7.9959 2.3974
L8.0435 2.4451
" />
<path d="M8.0435 2.4451
L8.0911 2.5403
" />
<path d="M8.0911 2.5403
L8.0911 2.6832
" />
<path d="M8.0911 2.6832
L8.0435 2.7784
" />
<path d="M8.0435 2.7784
L7.9959 2.8260
" />
<path d="M7.9959 2.8260
L7.9006 2.8736
" />
<path d="M7.9006 2.8736
L7.5197 2.8736
" />
<path d="M8.5197 2.8260
L8.8530 2.8260
" />
<path d="M8.9959 3.3498
L8.5197 3.3498
" />
<path d="M8.5197 3.3498
L8.5197 2.3498
" />
<path d="M8.5197 2.3498
L8.9959 2.3498
" />
<path d="M9.7578 2.8260
L9.4245 2.8260
" />
<path d="M9.4245 3.3498
L9.4245 2.3498
" />
<path d="M9.4245 2.3498
L9.9006 2.3498
" />
<path d="M10.4245 2.3498
L10.4245 2.5879
" />
<path d="M10.1864 2.4927
L10.4245 2.5879
" />
<path d="M10.4245 2.5879
L10.6626 2.4927
" />
<path d="M10.2816 2.7784
L10.4245 2.5879
" />
<path d="M10.4245 2.5879
L10.5673 2.7784
" />
<path d="M11.1864 2.3498
L11.1864 2.5879
" />
<path d="M10.9483 2.4927
L11.1864 2.5879
" />
<path d="M11.1864 2.5879
L11.4245 2.4927
" />
<path d="M11.0435 2.7784
L11.1864 2.5879
" />
<path d="M11.1864 2.5879
L11.3292 2.7784
" />
</g></g>
<g style="fill:none; 
stroke:#AFAFAF; stroke-width:0.1000; stroke-opacity:1; 
stroke-linecap:round; stroke-linejoin:round;">
<path d="M5.4245 1.3950
L5.4245 5.3950
" />
<path d="M5.4245 5.3950
L13.4245 5.3950
" />
<path d="M6.4245 0.3950
L5.4245 1.3950
" />
<path d="M13.4245 0.3950
L6.4245 0.3950
" />
<path d="M13.4245 5.3950
L13.4245 0.3950
" />
</g> 
</svg>
