<?xml version="1.0" standalone="no"?>
 <!DOCTYPE svg PUBLIC "-//W3C//DTD SVG 1.1//EN" 
 "http://www.w3.org/Graphics/SVG/1.1/DTD/svg11.dtd"> 
<svg
  xmlns:svg="http://www.w3.org/2000/svg"
  xmlns="http://www.w3.org/2000/svg"
  xmlns:xlink="http://www.w3.org/1999/xlink"
  version="1.1"
  width="50.0380mm" height="9.5250mm" viewBox="0.0000 0.0000 50.0380 9.5250">
<title>SVG Image created as working-brd.svg date 2024/04/22 22:46:15 </title>
  <desc>Image generated by PCBNEW </desc>
<g style="fill:#000000; fill-opacity:1.0000;stroke:#000000; stroke-opacity:1.0000;
stroke-linecap:round; stroke-linejoin:round;"
 transform="translate(0 0) scale(1 1)">
</g>
<g style="fill:#FFFFFF; fill-opacity:1.0000; stroke:none;">
<circle cx="25.0273" cy="4.7750" r="0.6000" /> 
</g>
<g style="fill:#FFFFFF; fill-opacity:1.0000; stroke:none;">
<circle cx="32.6473" cy="4.7750" r="0.6000" /> 
</g>
<g style="fill:#02FFEE; fill-opacity:0.4000; stroke:none;">
<circle cx="25.0273" cy="4.7750" r="1.2000" /> 
</g>
<g style="fill:#02FFEE; fill-opacity:0.4000; stroke:none;">
<circle cx="32.6473" cy="4.7750" r="1.2000" /> 
</g>
<g style="fill:#FFFFFF; fill-opacity:1.0000; stroke:none;">
<circle cx="25.0273" cy="4.7750" r="0.6000" /> 
</g>
<g style="fill:#FFFFFF; fill-opacity:1.0000; stroke:none;">
<circle cx="32.6473" cy="4.7750" r="0.6000" /> 
</g>
<g style="fill:#FFFFFF; fill-opacity:1.0000; stroke:none;">
<circle cx="25.0273" cy="4.7750" r="0.6000" /> 
</g>
<g style="fill:#FFFFFF; fill-opacity:1.0000; stroke:none;">
<circle cx="32.6473" cy="4.7750" r="0.6000" /> 
</g>
<g style="fill:#D864FF; fill-opacity:0.4000; stroke:none;">
<circle cx="25.0273" cy="4.7750" r="1.2000" /> 
</g>
<g style="fill:#D864FF; fill-opacity:0.4000; stroke:none;">
<circle cx="32.6473" cy="4.7750" r="1.2000" /> 
</g>
<g style="fill:none; 
stroke:#F2EDA1; stroke-width:0.1588; stroke-opacity:1; 
stroke-linecap:round; stroke-linejoin:round;">
<text x="25.0273" y="5.4100"
textLength="5.6651" font-size="1.6933" lengthAdjust="spacingAndGlyphs"
text-anchor="middle" opacity="0">REF**</text>
<g class="stroked-text"><desc>REF**</desc>
<path d="M23.3340 5.3543
L22.9106 4.7495
" />
<path d="M22.6083 5.3543
L22.6083 4.0843
" />
<path d="M22.6083 4.0843
L23.0921 4.0843
" />
<path d="M23.0921 4.0843
L23.2130 4.1447
" />
<path d="M23.2130 4.1447
L23.2735 4.2052
" />
<path d="M23.2735 4.2052
L23.3340 4.3262
" />
<path d="M23.3340 4.3262
L23.3340 4.5076
" />
<path d="M23.3340 4.5076
L23.2735 4.6286
" />
<path d="M23.2735 4.6286
L23.2130 4.6890
" />
<path d="M23.2130 4.6890
L23.0921 4.7495
" />
<path d="M23.0921 4.7495
L22.6083 4.7495
" />
<path d="M23.8783 4.6890
L24.3016 4.6890
" />
<path d="M24.4830 5.3543
L23.8783 5.3543
" />
<path d="M23.8783 5.3543
L23.8783 4.0843
" />
<path d="M23.8783 4.0843
L24.4830 4.0843
" />
<path d="M25.4506 4.6890
L25.0273 4.6890
" />
<path d="M25.0273 5.3543
L25.0273 4.0843
" />
<path d="M25.0273 4.0843
L25.6321 4.0843
" />
<path d="M26.2973 4.0843
L26.2973 4.3867
" />
<path d="M25.9949 4.2657
L26.2973 4.3867
" />
<path d="M26.2973 4.3867
L26.5997 4.2657
" />
<path d="M26.1159 4.6286
L26.2973 4.3867
" />
<path d="M26.2973 4.3867
L26.4787 4.6286
" />
<path d="M27.2649 4.0843
L27.2649 4.3867
" />
<path d="M26.9626 4.2657
L27.2649 4.3867
" />
<path d="M27.2649 4.3867
L27.5673 4.2657
" />
<path d="M27.0835 4.6286
L27.2649 4.3867
" />
<path d="M27.2649 4.3867
L27.4464 4.6286
" />
</g></g>
<g style="fill:none; 
stroke:#F2EDA1; stroke-width:0.1200; stroke-opacity:1; 
stroke-linecap:round; stroke-linejoin:round;">
<path d="M20.4073 0.1550
L20.4073 9.3950
" />
<path d="M20.4073 9.3950
L29.6473 9.3950
" />
<path d="M29.6473 0.1550
L20.4073 0.1550
" />
<path d="M29.6473 4.7750
L31.1473 4.7750
" />
<path d="M29.6473 9.3950
L29.6473 0.1550
" />
</g>
<g style="fill:#FFFFFF; fill-opacity:1.0000; stroke:none;">
<circle cx="25.0273" cy="4.7750" r="0.6000" /> 
</g>
<g style="fill:#FFFFFF; fill-opacity:1.0000; stroke:none;">
<circle cx="32.6473" cy="4.7750" r="0.6000" /> 
</g>
<g style="fill:none; 
stroke:#FF26E2; stroke-width:0.0500; stroke-opacity:1; 
stroke-linecap:round; stroke-linejoin:round;">
<path d="M20.2773 0.0250
L20.2773 9.5250
" />
<path d="M20.2773 9.5250
L34.0973 9.5250
" />
<path d="M34.0973 0.0250
L20.2773 0.0250
" />
<path d="M34.0973 9.5250
L34.0973 0.0250
" />
</g>
<g style="fill:none; 
stroke:#AFAFAF; stroke-width:0.1588; stroke-opacity:1; 
stroke-linecap:round; stroke-linejoin:round;">
<text x="25.0273" y="5.4100"
textLength="50.0546" font-size="1.6933" lengthAdjust="spacingAndGlyphs"
text-anchor="middle" opacity="0">R_Axial_Power_L25.0mm_W9.0mm_P7.62mm_Vertical</text>
<g class="stroked-text"><desc>R_Axial_Power_L25.0mm_W9.0mm_P7.62mm_Vertical</desc>
<path d="M1.1392 5.3543
L0.7159 4.7495
" />
<path d="M0.4135 5.3543
L0.4135 4.0843
" />
<path d="M0.4135 4.0843
L0.8973 4.0843
" />
<path d="M0.8973 4.0843
L1.0183 4.1447
" />
<path d="M1.0183 4.1447
L1.0787 4.2052
" />
<path d="M1.0787 4.2052
L1.1392 4.3262
" />
<path d="M1.1392 4.3262
L1.1392 4.5076
" />
<path d="M1.1392 4.5076
L1.0787 4.6286
" />
<path d="M1.0787 4.6286
L1.0183 4.6890
" />
<path d="M1.0183 4.6890
L0.8973 4.7495
" />
<path d="M0.8973 4.7495
L0.4135 4.7495
" />
<path d="M1.3811 5.4752
L2.3487 5.4752
" />
<path d="M2.5906 4.9914
L3.1954 4.9914
" />
<path d="M2.4697 5.3543
L2.8930 4.0843
" />
<path d="M2.8930 4.0843
L3.3164 5.3543
" />
<path d="M3.6187 5.3543
L4.2840 4.5076
" />
<path d="M3.6187 4.5076
L4.2840 5.3543
" />
<path d="M4.7678 5.3543
L4.7678 4.5076
" />
<path d="M4.7678 4.0843
L4.7073 4.1447
" />
<path d="M4.7073 4.1447
L4.7678 4.2052
" />
<path d="M4.7678 4.2052
L4.8283 4.1447
" />
<path d="M4.8283 4.1447
L4.7678 4.0843
" />
<path d="M4.7678 4.0843
L4.7678 4.2052
" />
<path d="M5.9168 5.3543
L5.9168 4.6890
" />
<path d="M5.9168 4.6890
L5.8564 4.5681
" />
<path d="M5.8564 4.5681
L5.7354 4.5076
" />
<path d="M5.7354 4.5076
L5.4935 4.5076
" />
<path d="M5.4935 4.5076
L5.3726 4.5681
" />
<path d="M5.9168 5.2938
L5.7959 5.3543
" />
<path d="M5.7959 5.3543
L5.4935 5.3543
" />
<path d="M5.4935 5.3543
L5.3726 5.2938
" />
<path d="M5.3726 5.2938
L5.3121 5.1728
" />
<path d="M5.3121 5.1728
L5.3121 5.0519
" />
<path d="M5.3121 5.0519
L5.3726 4.9309
" />
<path d="M5.3726 4.9309
L5.4935 4.8705
" />
<path d="M5.4935 4.8705
L5.7959 4.8705
" />
<path d="M5.7959 4.8705
L5.9168 4.8100
" />
<path d="M6.7030 5.3543
L6.5821 5.2938
" />
<path d="M6.5821 5.2938
L6.5216 5.1728
" />
<path d="M6.5216 5.1728
L6.5216 4.0843
" />
<path d="M6.8845 5.4752
L7.8521 5.4752
" />
<path d="M8.1545 5.3543
L8.1545 4.0843
" />
<path d="M8.1545 4.0843
L8.6383 4.0843
" />
<path d="M8.6383 4.0843
L8.7592 4.1447
" />
<path d="M8.7592 4.1447
L8.8197 4.2052
" />
<path d="M8.8197 4.2052
L8.8802 4.3262
" />
<path d="M8.8802 4.3262
L8.8802 4.5076
" />
<path d="M8.8802 4.5076
L8.8197 4.6286
" />
<path d="M8.8197 4.6286
L8.7592 4.6890
" />
<path d="M8.7592 4.6890
L8.6383 4.7495
" />
<path d="M8.6383 4.7495
L8.1545 4.7495
" />
<path d="M9.6059 5.3543
L9.4849 5.2938
" />
<path d="M9.4849 5.2938
L9.4245 5.2333
" />
<path d="M9.4245 5.2333
L9.3640 5.1124
" />
<path d="M9.3640 5.1124
L9.3640 4.7495
" />
<path d="M9.3640 4.7495
L9.4245 4.6286
" />
<path d="M9.4245 4.6286
L9.4849 4.5681
" />
<path d="M9.4849 4.5681
L9.6059 4.5076
" />
<path d="M9.6059 4.5076
L9.7873 4.5076
" />
<path d="M9.7873 4.5076
L9.9083 4.5681
" />
<path d="M9.9083 4.5681
L9.9687 4.6286
" />
<path d="M9.9687 4.6286
L10.0292 4.7495
" />
<path d="M10.0292 4.7495
L10.0292 5.1124
" />
<path d="M10.0292 5.1124
L9.9687 5.2333
" />
<path d="M9.9687 5.2333
L9.9083 5.2938
" />
<path d="M9.9083 5.2938
L9.7873 5.3543
" />
<path d="M9.7873 5.3543
L9.6059 5.3543
" />
<path d="M10.4526 4.5076
L10.6945 5.3543
" />
<path d="M10.6945 5.3543
L10.9364 4.7495
" />
<path d="M10.9364 4.7495
L11.1783 5.3543
" />
<path d="M11.1783 5.3543
L11.4202 4.5076
" />
<path d="M12.3878 5.2938
L12.2668 5.3543
" />
<path d="M12.2668 5.3543
L12.0249 5.3543
" />
<path d="M12.0249 5.3543
L11.9040 5.2938
" />
<path d="M11.9040 5.2938
L11.8435 5.1728
" />
<path d="M11.8435 5.1728
L11.8435 4.6890
" />
<path d="M11.8435 4.6890
L11.9040 4.5681
" />
<path d="M11.9040 4.5681
L12.0249 4.5076
" />
<path d="M12.0249 4.5076
L12.2668 4.5076
" />
<path d="M12.2668 4.5076
L12.3878 4.5681
" />
<path d="M12.3878 4.5681
L12.4483 4.6890
" />
<path d="M12.4483 4.6890
L12.4483 4.8100
" />
<path d="M12.4483 4.8100
L11.8435 4.9309
" />
<path d="M12.9926 5.3543
L12.9926 4.5076
" />
<path d="M12.9926 4.7495
L13.0530 4.6286
" />
<path d="M13.0530 4.6286
L13.1135 4.5681
" />
<path d="M13.1135 4.5681
L13.2345 4.5076
" />
<path d="M13.2345 4.5076
L13.3554 4.5076
" />
<path d="M13.4764 5.4752
L14.4440 5.4752
" />
<path d="M15.3511 5.3543
L14.7464 5.3543
" />
<path d="M14.7464 5.3543
L14.7464 4.0843
" />
<path d="M15.7140 4.2052
L15.7745 4.1447
" />
<path d="M15.7745 4.1447
L15.8954 4.0843
" />
<path d="M15.8954 4.0843
L16.1978 4.0843
" />
<path d="M16.1978 4.0843
L16.3187 4.1447
" />
<path d="M16.3187 4.1447
L16.3792 4.2052
" />
<path d="M16.3792 4.2052
L16.4397 4.3262
" />
<path d="M16.4397 4.3262
L16.4397 4.4471
" />
<path d="M16.4397 4.4471
L16.3792 4.6286
" />
<path d="M16.3792 4.6286
L15.6535 5.3543
" />
<path d="M15.6535 5.3543
L16.4397 5.3543
" />
<path d="M17.5887 4.0843
L16.9840 4.0843
" />
<path d="M16.9840 4.0843
L16.9235 4.6890
" />
<path d="M16.9235 4.6890
L16.9840 4.6286
" />
<path d="M16.9840 4.6286
L17.1049 4.5681
" />
<path d="M17.1049 4.5681
L17.4073 4.5681
" />
<path d="M17.4073 4.5681
L17.5283 4.6286
" />
<path d="M17.5283 4.6286
L17.5887 4.6890
" />
<path d="M17.5887 4.6890
L17.6492 4.8100
" />
<path d="M17.6492 4.8100
L17.6492 5.1124
" />
<path d="M17.6492 5.1124
L17.5887 5.2333
" />
<path d="M17.5887 5.2333
L17.5283 5.2938
" />
<path d="M17.5283 5.2938
L17.4073 5.3543
" />
<path d="M17.4073 5.3543
L17.1049 5.3543
" />
<path d="M17.1049 5.3543
L16.9840 5.2938
" />
<path d="M16.9840 5.2938
L16.9235 5.2333
" />
<path d="M18.1935 5.2333
L18.2540 5.2938
" />
<path d="M18.2540 5.2938
L18.1935 5.3543
" />
<path d="M18.1935 5.3543
L18.1330 5.2938
" />
<path d="M18.1330 5.2938
L18.1935 5.2333
" />
<path d="M18.1935 5.2333
L18.1935 5.3543
" />
<path d="M19.0402 4.0843
L19.1611 4.0843
" />
<path d="M19.1611 4.0843
L19.2821 4.1447
" />
<path d="M19.2821 4.1447
L19.3426 4.2052
" />
<path d="M19.3426 4.2052
L19.4030 4.3262
" />
<path d="M19.4030 4.3262
L19.4635 4.5681
" />
<path d="M19.4635 4.5681
L19.4635 4.8705
" />
<path d="M19.4635 4.8705
L19.4030 5.1124
" />
<path d="M19.4030 5.1124
L19.3426 5.2333
" />
<path d="M19.3426 5.2333
L19.2821 5.2938
" />
<path d="M19.2821 5.2938
L19.1611 5.3543
" />
<path d="M19.1611 5.3543
L19.0402 5.3543
" />
<path d="M19.0402 5.3543
L18.9192 5.2938
" />
<path d="M18.9192 5.2938
L18.8587 5.2333
" />
<path d="M18.8587 5.2333
L18.7983 5.1124
" />
<path d="M18.7983 5.1124
L18.7378 4.8705
" />
<path d="M18.7378 4.8705
L18.7378 4.5681
" />
<path d="M18.7378 4.5681
L18.7983 4.3262
" />
<path d="M18.7983 4.3262
L18.8587 4.2052
" />
<path d="M18.8587 4.2052
L18.9192 4.1447
" />
<path d="M18.9192 4.1447
L19.0402 4.0843
" />
<path d="M20.0078 5.3543
L20.0078 4.5076
" />
<path d="M20.0078 4.6286
L20.0683 4.5681
" />
<path d="M20.0683 4.5681
L20.1892 4.5076
" />
<path d="M20.1892 4.5076
L20.3706 4.5076
" />
<path d="M20.3706 4.5076
L20.4916 4.5681
" />
<path d="M20.4916 4.5681
L20.5521 4.6890
" />
<path d="M20.5521 4.6890
L20.5521 5.3543
" />
<path d="M20.5521 4.6890
L20.6126 4.5681
" />
<path d="M20.6126 4.5681
L20.7335 4.5076
" />
<path d="M20.7335 4.5076
L20.9149 4.5076
" />
<path d="M20.9149 4.5076
L21.0359 4.5681
" />
<path d="M21.0359 4.5681
L21.0964 4.6890
" />
<path d="M21.0964 4.6890
L21.0964 5.3543
" />
<path d="M21.7011 5.3543
L21.7011 4.5076
" />
<path d="M21.7011 4.6286
L21.7616 4.5681
" />
<path d="M21.7616 4.5681
L21.8826 4.5076
" />
<path d="M21.8826 4.5076
L22.0640 4.5076
" />
<path d="M22.0640 4.5076
L22.1849 4.5681
" />
<path d="M22.1849 4.5681
L22.2454 4.6890
" />
<path d="M22.2454 4.6890
L22.2454 5.3543
" />
<path d="M22.2454 4.6890
L22.3059 4.5681
" />
<path d="M22.3059 4.5681
L22.4268 4.5076
" />
<path d="M22.4268 4.5076
L22.6083 4.5076
" />
<path d="M22.6083 4.5076
L22.7292 4.5681
" />
<path d="M22.7292 4.5681
L22.7897 4.6890
" />
<path d="M22.7897 4.6890
L22.7897 5.3543
" />
<path d="M23.0921 5.4752
L24.0597 5.4752
" />
<path d="M24.2411 4.0843
L24.5435 5.3543
" />
<path d="M24.5435 5.3543
L24.7854 4.4471
" />
<path d="M24.7854 4.4471
L25.0273 5.3543
" />
<path d="M25.0273 5.3543
L25.3297 4.0843
" />
<path d="M25.8740 5.3543
L26.1159 5.3543
" />
<path d="M26.1159 5.3543
L26.2368 5.2938
" />
<path d="M26.2368 5.2938
L26.2973 5.2333
" />
<path d="M26.2973 5.2333
L26.4183 5.0519
" />
<path d="M26.4183 5.0519
L26.4787 4.8100
" />
<path d="M26.4787 4.8100
L26.4787 4.3262
" />
<path d="M26.4787 4.3262
L26.4183 4.2052
" />
<path d="M26.4183 4.2052
L26.3578 4.1447
" />
<path d="M26.3578 4.1447
L26.2368 4.0843
" />
<path d="M26.2368 4.0843
L25.9949 4.0843
" />
<path d="M25.9949 4.0843
L25.8740 4.1447
" />
<path d="M25.8740 4.1447
L25.8135 4.2052
" />
<path d="M25.8135 4.2052
L25.7530 4.3262
" />
<path d="M25.7530 4.3262
L25.7530 4.6286
" />
<path d="M25.7530 4.6286
L25.8135 4.7495
" />
<path d="M25.8135 4.7495
L25.8740 4.8100
" />
<path d="M25.8740 4.8100
L25.9949 4.8705
" />
<path d="M25.9949 4.8705
L26.2368 4.8705
" />
<path d="M26.2368 4.8705
L26.3578 4.8100
" />
<path d="M26.3578 4.8100
L26.4183 4.7495
" />
<path d="M26.4183 4.7495
L26.4787 4.6286
" />
<path d="M27.0230 5.2333
L27.0835 5.2938
" />
<path d="M27.0835 5.2938
L27.0230 5.3543
" />
<path d="M27.0230 5.3543
L26.9626 5.2938
" />
<path d="M26.9626 5.2938
L27.0230 5.2333
" />
<path d="M27.0230 5.2333
L27.0230 5.3543
" />
<path d="M27.8697 4.0843
L27.9906 4.0843
" />
<path d="M27.9906 4.0843
L28.1116 4.1447
" />
<path d="M28.1116 4.1447
L28.1721 4.2052
" />
<path d="M28.1721 4.2052
L28.2326 4.3262
" />
<path d="M28.2326 4.3262
L28.2930 4.5681
" />
<path d="M28.2930 4.5681
L28.2930 4.8705
" />
<path d="M28.2930 4.8705
L28.2326 5.1124
" />
<path d="M28.2326 5.1124
L28.1721 5.2333
" />
<path d="M28.1721 5.2333
L28.1116 5.2938
" />
<path d="M28.1116 5.2938
L27.9906 5.3543
" />
<path d="M27.9906 5.3543
L27.8697 5.3543
" />
<path d="M27.8697 5.3543
L27.7487 5.2938
" />
<path d="M27.7487 5.2938
L27.6883 5.2333
" />
<path d="M27.6883 5.2333
L27.6278 5.1124
" />
<path d="M27.6278 5.1124
L27.5673 4.8705
" />
<path d="M27.5673 4.8705
L27.5673 4.5681
" />
<path d="M27.5673 4.5681
L27.6278 4.3262
" />
<path d="M27.6278 4.3262
L27.6883 4.2052
" />
<path d="M27.6883 4.2052
L27.7487 4.1447
" />
<path d="M27.7487 4.1447
L27.8697 4.0843
" />
<path d="M28.8373 5.3543
L28.8373 4.5076
" />
<path d="M28.8373 4.6286
L28.8978 4.5681
" />
<path d="M28.8978 4.5681
L29.0187 4.5076
" />
<path d="M29.0187 4.5076
L29.2002 4.5076
" />
<path d="M29.2002 4.5076
L29.3211 4.5681
" />
<path d="M29.3211 4.5681
L29.3816 4.6890
" />
<path d="M29.3816 4.6890
L29.3816 5.3543
" />
<path d="M29.3816 4.6890
L29.4421 4.5681
" />
<path d="M29.4421 4.5681
L29.5630 4.5076
" />
<path d="M29.5630 4.5076
L29.7445 4.5076
" />
<path d="M29.7445 4.5076
L29.8654 4.5681
" />
<path d="M29.8654 4.5681
L29.9259 4.6890
" />
<path d="M29.9259 4.6890
L29.9259 5.3543
" />
<path d="M30.5306 5.3543
L30.5306 4.5076
" />
<path d="M30.5306 4.6286
L30.5911 4.5681
" />
<path d="M30.5911 4.5681
L30.7121 4.5076
" />
<path d="M30.7121 4.5076
L30.8935 4.5076
" />
<path d="M30.8935 4.5076
L31.0145 4.5681
" />
<path d="M31.0145 4.5681
L31.0749 4.6890
" />
<path d="M31.0749 4.6890
L31.0749 5.3543
" />
<path d="M31.0749 4.6890
L31.1354 4.5681
" />
<path d="M31.1354 4.5681
L31.2564 4.5076
" />
<path d="M31.2564 4.5076
L31.4378 4.5076
" />
<path d="M31.4378 4.5076
L31.5587 4.5681
" />
<path d="M31.5587 4.5681
L31.6192 4.6890
" />
<path d="M31.6192 4.6890
L31.6192 5.3543
" />
<path d="M31.9216 5.4752
L32.8892 5.4752
" />
<path d="M33.1916 5.3543
L33.1916 4.0843
" />
<path d="M33.1916 4.0843
L33.6754 4.0843
" />
<path d="M33.6754 4.0843
L33.7964 4.1447
" />
<path d="M33.7964 4.1447
L33.8568 4.2052
" />
<path d="M33.8568 4.2052
L33.9173 4.3262
" />
<path d="M33.9173 4.3262
L33.9173 4.5076
" />
<path d="M33.9173 4.5076
L33.8568 4.6286
" />
<path d="M33.8568 4.6286
L33.7964 4.6890
" />
<path d="M33.7964 4.6890
L33.6754 4.7495
" />
<path d="M33.6754 4.7495
L33.1916 4.7495
" />
<path d="M34.3406 4.0843
L35.1873 4.0843
" />
<path d="M35.1873 4.0843
L34.6430 5.3543
" />
<path d="M35.6711 5.2333
L35.7316 5.2938
" />
<path d="M35.7316 5.2938
L35.6711 5.3543
" />
<path d="M35.6711 5.3543
L35.6106 5.2938
" />
<path d="M35.6106 5.2938
L35.6711 5.2333
" />
<path d="M35.6711 5.2333
L35.6711 5.3543
" />
<path d="M36.8202 4.0843
L36.5783 4.0843
" />
<path d="M36.5783 4.0843
L36.4573 4.1447
" />
<path d="M36.4573 4.1447
L36.3968 4.2052
" />
<path d="M36.3968 4.2052
L36.2759 4.3867
" />
<path d="M36.2759 4.3867
L36.2154 4.6286
" />
<path d="M36.2154 4.6286
L36.2154 5.1124
" />
<path d="M36.2154 5.1124
L36.2759 5.2333
" />
<path d="M36.2759 5.2333
L36.3364 5.2938
" />
<path d="M36.3364 5.2938
L36.4573 5.3543
" />
<path d="M36.4573 5.3543
L36.6992 5.3543
" />
<path d="M36.6992 5.3543
L36.8202 5.2938
" />
<path d="M36.8202 5.2938
L36.8806 5.2333
" />
<path d="M36.8806 5.2333
L36.9411 5.1124
" />
<path d="M36.9411 5.1124
L36.9411 4.8100
" />
<path d="M36.9411 4.8100
L36.8806 4.6890
" />
<path d="M36.8806 4.6890
L36.8202 4.6286
" />
<path d="M36.8202 4.6286
L36.6992 4.5681
" />
<path d="M36.6992 4.5681
L36.4573 4.5681
" />
<path d="M36.4573 4.5681
L36.3364 4.6286
" />
<path d="M36.3364 4.6286
L36.2759 4.6890
" />
<path d="M36.2759 4.6890
L36.2154 4.8100
" />
<path d="M37.4249 4.2052
L37.4854 4.1447
" />
<path d="M37.4854 4.1447
L37.6064 4.0843
" />
<path d="M37.6064 4.0843
L37.9087 4.0843
" />
<path d="M37.9087 4.0843
L38.0297 4.1447
" />
<path d="M38.0297 4.1447
L38.0902 4.2052
" />
<path d="M38.0902 4.2052
L38.1506 4.3262
" />
<path d="M38.1506 4.3262
L38.1506 4.4471
" />
<path d="M38.1506 4.4471
L38.0902 4.6286
" />
<path d="M38.0902 4.6286
L37.3645 5.3543
" />
<path d="M37.3645 5.3543
L38.1506 5.3543
" />
<path d="M38.6949 5.3543
L38.6949 4.5076
" />
<path d="M38.6949 4.6286
L38.7554 4.5681
" />
<path d="M38.7554 4.5681
L38.8764 4.5076
" />
<path d="M38.8764 4.5076
L39.0578 4.5076
" />
<path d="M39.0578 4.5076
L39.1787 4.5681
" />
<path d="M39.1787 4.5681
L39.2392 4.6890
" />
<path d="M39.2392 4.6890
L39.2392 5.3543
" />
<path d="M39.2392 4.6890
L39.2997 4.5681
" />
<path d="M39.2997 4.5681
L39.4206 4.5076
" />
<path d="M39.4206 4.5076
L39.6021 4.5076
" />
<path d="M39.6021 4.5076
L39.7230 4.5681
" />
<path d="M39.7230 4.5681
L39.7835 4.6890
" />
<path d="M39.7835 4.6890
L39.7835 5.3543
" />
<path d="M40.3883 5.3543
L40.3883 4.5076
" />
<path d="M40.3883 4.6286
L40.4487 4.5681
" />
<path d="M40.4487 4.5681
L40.5697 4.5076
" />
<path d="M40.5697 4.5076
L40.7511 4.5076
" />
<path d="M40.7511 4.5076
L40.8721 4.5681
" />
<path d="M40.8721 4.5681
L40.9326 4.6890
" />
<path d="M40.9326 4.6890
L40.9326 5.3543
" />
<path d="M40.9326 4.6890
L40.9930 4.5681
" />
<path d="M40.9930 4.5681
L41.1140 4.5076
" />
<path d="M41.1140 4.5076
L41.2954 4.5076
" />
<path d="M41.2954 4.5076
L41.4164 4.5681
" />
<path d="M41.4164 4.5681
L41.4768 4.6890
" />
<path d="M41.4768 4.6890
L41.4768 5.3543
" />
<path d="M41.7792 5.4752
L42.7468 5.4752
" />
<path d="M42.8678 4.0843
L43.2911 5.3543
" />
<path d="M43.2911 5.3543
L43.7145 4.0843
" />
<path d="M44.6216 5.2938
L44.5006 5.3543
" />
<path d="M44.5006 5.3543
L44.2587 5.3543
" />
<path d="M44.2587 5.3543
L44.1378 5.2938
" />
<path d="M44.1378 5.2938
L44.0773 5.1728
" />
<path d="M44.0773 5.1728
L44.0773 4.6890
" />
<path d="M44.0773 4.6890
L44.1378 4.5681
" />
<path d="M44.1378 4.5681
L44.2587 4.5076
" />
<path d="M44.2587 4.5076
L44.5006 4.5076
" />
<path d="M44.5006 4.5076
L44.6216 4.5681
" />
<path d="M44.6216 4.5681
L44.6821 4.6890
" />
<path d="M44.6821 4.6890
L44.6821 4.8100
" />
<path d="M44.6821 4.8100
L44.0773 4.9309
" />
<path d="M45.2264 5.3543
L45.2264 4.5076
" />
<path d="M45.2264 4.7495
L45.2868 4.6286
" />
<path d="M45.2868 4.6286
L45.3473 4.5681
" />
<path d="M45.3473 4.5681
L45.4683 4.5076
" />
<path d="M45.4683 4.5076
L45.5892 4.5076
" />
<path d="M45.8311 4.5076
L46.3149 4.5076
" />
<path d="M46.0125 4.0843
L46.0125 5.1728
" />
<path d="M46.0125 5.1728
L46.0730 5.2938
" />
<path d="M46.0730 5.2938
L46.1940 5.3543
" />
<path d="M46.1940 5.3543
L46.3149 5.3543
" />
<path d="M46.7383 5.3543
L46.7383 4.5076
" />
<path d="M46.7383 4.0843
L46.6778 4.1447
" />
<path d="M46.6778 4.1447
L46.7383 4.2052
" />
<path d="M46.7383 4.2052
L46.7987 4.1447
" />
<path d="M46.7987 4.1447
L46.7383 4.0843
" />
<path d="M46.7383 4.0843
L46.7383 4.2052
" />
<path d="M47.8873 5.2938
L47.7664 5.3543
" />
<path d="M47.7664 5.3543
L47.5245 5.3543
" />
<path d="M47.5245 5.3543
L47.4035 5.2938
" />
<path d="M47.4035 5.2938
L47.3430 5.2333
" />
<path d="M47.3430 5.2333
L47.2826 5.1124
" />
<path d="M47.2826 5.1124
L47.2826 4.7495
" />
<path d="M47.2826 4.7495
L47.3430 4.6286
" />
<path d="M47.3430 4.6286
L47.4035 4.5681
" />
<path d="M47.4035 4.5681
L47.5245 4.5076
" />
<path d="M47.5245 4.5076
L47.7664 4.5076
" />
<path d="M47.7664 4.5076
L47.8873 4.5681
" />
<path d="M48.9759 5.3543
L48.9759 4.6890
" />
<path d="M48.9759 4.6890
L48.9154 4.5681
" />
<path d="M48.9154 4.5681
L48.7945 4.5076
" />
<path d="M48.7945 4.5076
L48.5525 4.5076
" />
<path d="M48.5525 4.5076
L48.4316 4.5681
" />
<path d="M48.9759 5.2938
L48.8549 5.3543
" />
<path d="M48.8549 5.3543
L48.5525 5.3543
" />
<path d="M48.5525 5.3543
L48.4316 5.2938
" />
<path d="M48.4316 5.2938
L48.3711 5.1728
" />
<path d="M48.3711 5.1728
L48.3711 5.0519
" />
<path d="M48.3711 5.0519
L48.4316 4.9309
" />
<path d="M48.4316 4.9309
L48.5525 4.8705
" />
<path d="M48.5525 4.8705
L48.8549 4.8705
" />
<path d="M48.8549 4.8705
L48.9759 4.8100
" />
<path d="M49.7621 5.3543
L49.6411 5.2938
" />
<path d="M49.6411 5.2938
L49.5806 5.1728
" />
<path d="M49.5806 5.1728
L49.5806 4.0843
" />
</g></g>
<g style="fill:none; 
stroke:#AFAFAF; stroke-width:0.1500; stroke-opacity:1; 
stroke-linecap:round; stroke-linejoin:round;">
<text x="25.0273" y="3.5750"
textLength="4.5357" font-size="1.3333" lengthAdjust="spacingAndGlyphs"
text-anchor="middle" opacity="0">REF**</text>
<g class="stroked-text"><desc>REF**</desc>
<path d="M23.6940 3.5298
L23.3606 3.0536
" />
<path d="M23.1226 3.5298
L23.1226 2.5298
" />
<path d="M23.1226 2.5298
L23.5035 2.5298
" />
<path d="M23.5035 2.5298
L23.5987 2.5774
" />
<path d="M23.5987 2.5774
L23.6464 2.6251
" />
<path d="M23.6464 2.6251
L23.6940 2.7203
" />
<path d="M23.6940 2.7203
L23.6940 2.8632
" />
<path d="M23.6940 2.8632
L23.6464 2.9584
" />
<path d="M23.6464 2.9584
L23.5987 3.0060
" />
<path d="M23.5987 3.0060
L23.5035 3.0536
" />
<path d="M23.5035 3.0536
L23.1226 3.0536
" />
<path d="M24.1226 3.0060
L24.4559 3.0060
" />
<path d="M24.5987 3.5298
L24.1226 3.5298
" />
<path d="M24.1226 3.5298
L24.1226 2.5298
" />
<path d="M24.1226 2.5298
L24.5987 2.5298
" />
<path d="M25.3606 3.0060
L25.0273 3.0060
" />
<path d="M25.0273 3.5298
L25.0273 2.5298
" />
<path d="M25.0273 2.5298
L25.5035 2.5298
" />
<path d="M26.0273 2.5298
L26.0273 2.7679
" />
<path d="M25.7892 2.6727
L26.0273 2.7679
" />
<path d="M26.0273 2.7679
L26.2654 2.6727
" />
<path d="M25.8845 2.9584
L26.0273 2.7679
" />
<path d="M26.0273 2.7679
L26.1702 2.9584
" />
<path d="M26.7892 2.5298
L26.7892 2.7679
" />
<path d="M26.5511 2.6727
L26.7892 2.7679
" />
<path d="M26.7892 2.7679
L27.0273 2.6727
" />
<path d="M26.6464 2.9584
L26.7892 2.7679
" />
<path d="M26.7892 2.7679
L26.9321 2.9584
" />
</g></g>
<g style="fill:none; 
stroke:#AFAFAF; stroke-width:0.1000; stroke-opacity:1; 
stroke-linecap:round; stroke-linejoin:round;">
<path d="M20.5273 0.2750
L20.5273 9.2750
" />
<path d="M20.5273 9.2750
L29.5273 9.2750
" />
<path d="M25.0273 4.7750
L32.6473 4.7750
" />
<path d="M29.5273 0.2750
L20.5273 0.2750
" />
<path d="M29.5273 9.2750
L29.5273 0.2750
" />
</g> 
</svg>
