<?xml version="1.0" standalone="no"?>
 <!DOCTYPE svg PUBLIC "-//W3C//DTD SVG 1.1//EN" 
 "http://www.w3.org/Graphics/SVG/1.1/DTD/svg11.dtd"> 
<svg
  xmlns:svg="http://www.w3.org/2000/svg"
  xmlns="http://www.w3.org/2000/svg"
  xmlns:xlink="http://www.w3.org/1999/xlink"
  version="1.1"
  width="16.7894mm" height="25.2222mm" viewBox="0.0000 0.0000 16.7894 25.2222">
<title>SVG Image created as working-brd.svg date 2024/04/23 04:22:01 </title>
  <desc>Image generated by PCBNEW </desc>
<g style="fill:#000000; fill-opacity:1.0000;stroke:#000000; stroke-opacity:1.0000;
stroke-linecap:round; stroke-linejoin:round;"
 transform="translate(0 0) scale(1 1)">
</g>
<g style="fill:#FFFFFF; fill-opacity:1.0000; stroke:none;">
<circle cx="6.4309" cy="1.0216" r="0.4500" /> 
</g>
<g style="fill:#FFFFFF; fill-opacity:1.0000; stroke:none;">
<circle cx="7.7009" cy="2.9266" r="0.4500" /> 
</g>
<g style="fill:#FFFFFF; fill-opacity:1.0000; stroke:none;">
<circle cx="8.9709" cy="1.0216" r="0.4500" /> 
</g>
<g style="fill:#FFFFFF; fill-opacity:1.0000; stroke:none;">
<circle cx="10.2409" cy="2.9266" r="0.4500" /> 
</g>
<g style="fill:#FFFFFF; fill-opacity:1.0000; stroke:none;">
<circle cx="11.5109" cy="1.0216" r="0.4500" /> 
</g>
<g style="fill:#FFFFFF; fill-opacity:1.0000; stroke:none;">
<circle cx="12.7809" cy="2.9266" r="0.4500" /> 
</g>
<g style="fill:#FFFFFF; fill-opacity:1.0000; stroke:none;">
<circle cx="14.0509" cy="1.0216" r="0.4500" /> 
</g>
<g style="fill:#FFFFFF; fill-opacity:1.0000; stroke:none;">
<circle cx="15.1409" cy="12.7566" r="0.7500" /> 
</g>
<g style="fill:#FFFFFF; fill-opacity:1.0000; stroke:none;">
<circle cx="15.1409" cy="15.8566" r="0.7500" /> 
</g>
<g style="fill:#FFFFFF; fill-opacity:1.0000; stroke:none;">
<circle cx="15.1409" cy="18.9566" r="0.7500" /> 
</g>
<g style="fill:#FFFFFF; fill-opacity:1.0000; stroke:none;">
<circle cx="5.3409" cy="18.9566" r="0.7500" /> 
</g>
<g style="fill:#FFFFFF; fill-opacity:1.0000; stroke:none;">
<circle cx="5.3409" cy="15.8566" r="0.7500" /> 
</g>
<g style="fill:#FFFFFF; fill-opacity:1.0000; stroke:none;">
<circle cx="5.3409" cy="12.7566" r="0.7500" /> 
<path style="fill:#02FFEE; fill-opacity:0.4000; stroke:none;fill-rule:evenodd;"
d="M 5.7309,1.7216
5.7309,0.3216
7.1309,0.3216
7.1309,1.7216
Z" /> 
</g>
<g style="fill:#02FFEE; fill-opacity:0.4000; stroke:none;">
<circle cx="7.7009" cy="2.9266" r="0.7000" /> 
</g>
<g style="fill:#02FFEE; fill-opacity:0.4000; stroke:none;">
<circle cx="8.9709" cy="1.0216" r="0.7000" /> 
</g>
<g style="fill:#02FFEE; fill-opacity:0.4000; stroke:none;">
<circle cx="10.2409" cy="2.9266" r="0.7000" /> 
</g>
<g style="fill:#02FFEE; fill-opacity:0.4000; stroke:none;">
<circle cx="11.5109" cy="1.0216" r="0.7000" /> 
</g>
<g style="fill:#02FFEE; fill-opacity:0.4000; stroke:none;">
<circle cx="12.7809" cy="2.9266" r="0.7000" /> 
</g>
<g style="fill:#02FFEE; fill-opacity:0.4000; stroke:none;">
<circle cx="14.0509" cy="1.0216" r="0.7000" /> 
</g>
<g style="fill:none; 
stroke:#02FFEE; stroke-width:2.1000; stroke-opacity:1; 
stroke-linecap:round; stroke-linejoin:round;">
<path d="M14.8159 12.7566
L15.4659 12.7566
" />
<path d="M14.8159 15.8566
L15.4659 15.8566
" />
<path d="M14.8159 18.9566
L15.4659 18.9566
" />
<path d="M5.0159 18.9566
L5.6659 18.9566
" />
<path d="M5.0159 15.8566
L5.6659 15.8566
" />
<path d="M5.0159 12.7566
L5.6659 12.7566
" />
</g>
<g style="fill:#FFFFFF; fill-opacity:1.0000; stroke:none;">
<circle cx="6.4309" cy="1.0216" r="0.4500" /> 
</g>
<g style="fill:#FFFFFF; fill-opacity:1.0000; stroke:none;">
<circle cx="7.7009" cy="2.9266" r="0.4500" /> 
</g>
<g style="fill:#FFFFFF; fill-opacity:1.0000; stroke:none;">
<circle cx="8.9709" cy="1.0216" r="0.4500" /> 
</g>
<g style="fill:#FFFFFF; fill-opacity:1.0000; stroke:none;">
<circle cx="10.2409" cy="2.9266" r="0.4500" /> 
</g>
<g style="fill:#FFFFFF; fill-opacity:1.0000; stroke:none;">
<circle cx="11.5109" cy="1.0216" r="0.4500" /> 
</g>
<g style="fill:#FFFFFF; fill-opacity:1.0000; stroke:none;">
<circle cx="12.7809" cy="2.9266" r="0.4500" /> 
</g>
<g style="fill:#FFFFFF; fill-opacity:1.0000; stroke:none;">
<circle cx="14.0509" cy="1.0216" r="0.4500" /> 
</g>
<g style="fill:#FFFFFF; fill-opacity:1.0000; stroke:none;">
<circle cx="15.1409" cy="12.7566" r="0.7500" /> 
</g>
<g style="fill:#FFFFFF; fill-opacity:1.0000; stroke:none;">
<circle cx="15.1409" cy="15.8566" r="0.7500" /> 
</g>
<g style="fill:#FFFFFF; fill-opacity:1.0000; stroke:none;">
<circle cx="15.1409" cy="18.9566" r="0.7500" /> 
</g>
<g style="fill:#FFFFFF; fill-opacity:1.0000; stroke:none;">
<circle cx="5.3409" cy="18.9566" r="0.7500" /> 
</g>
<g style="fill:#FFFFFF; fill-opacity:1.0000; stroke:none;">
<circle cx="5.3409" cy="15.8566" r="0.7500" /> 
</g>
<g style="fill:#FFFFFF; fill-opacity:1.0000; stroke:none;">
<circle cx="5.3409" cy="12.7566" r="0.7500" /> 
</g>
<g style="fill:#FFFFFF; fill-opacity:1.0000; stroke:none;">
<circle cx="6.4309" cy="1.0216" r="0.4500" /> 
</g>
<g style="fill:#FFFFFF; fill-opacity:1.0000; stroke:none;">
<circle cx="7.7009" cy="2.9266" r="0.4500" /> 
</g>
<g style="fill:#FFFFFF; fill-opacity:1.0000; stroke:none;">
<circle cx="8.9709" cy="1.0216" r="0.4500" /> 
</g>
<g style="fill:#FFFFFF; fill-opacity:1.0000; stroke:none;">
<circle cx="10.2409" cy="2.9266" r="0.4500" /> 
</g>
<g style="fill:#FFFFFF; fill-opacity:1.0000; stroke:none;">
<circle cx="11.5109" cy="1.0216" r="0.4500" /> 
</g>
<g style="fill:#FFFFFF; fill-opacity:1.0000; stroke:none;">
<circle cx="12.7809" cy="2.9266" r="0.4500" /> 
</g>
<g style="fill:#FFFFFF; fill-opacity:1.0000; stroke:none;">
<circle cx="14.0509" cy="1.0216" r="0.4500" /> 
</g>
<g style="fill:#FFFFFF; fill-opacity:1.0000; stroke:none;">
<circle cx="15.1409" cy="12.7566" r="0.7500" /> 
</g>
<g style="fill:#FFFFFF; fill-opacity:1.0000; stroke:none;">
<circle cx="15.1409" cy="15.8566" r="0.7500" /> 
</g>
<g style="fill:#FFFFFF; fill-opacity:1.0000; stroke:none;">
<circle cx="15.1409" cy="18.9566" r="0.7500" /> 
</g>
<g style="fill:#FFFFFF; fill-opacity:1.0000; stroke:none;">
<circle cx="5.3409" cy="18.9566" r="0.7500" /> 
</g>
<g style="fill:#FFFFFF; fill-opacity:1.0000; stroke:none;">
<circle cx="5.3409" cy="15.8566" r="0.7500" /> 
</g>
<g style="fill:#FFFFFF; fill-opacity:1.0000; stroke:none;">
<circle cx="5.3409" cy="12.7566" r="0.7500" /> 
<path style="fill:#D864FF; fill-opacity:0.4000; stroke:none;fill-rule:evenodd;"
d="M 5.7309,1.7216
5.7309,0.3216
7.1309,0.3216
7.1309,1.7216
Z" /> 
</g>
<g style="fill:#D864FF; fill-opacity:0.4000; stroke:none;">
<circle cx="7.7009" cy="2.9266" r="0.7000" /> 
</g>
<g style="fill:#D864FF; fill-opacity:0.4000; stroke:none;">
<circle cx="8.9709" cy="1.0216" r="0.7000" /> 
</g>
<g style="fill:#D864FF; fill-opacity:0.4000; stroke:none;">
<circle cx="10.2409" cy="2.9266" r="0.7000" /> 
</g>
<g style="fill:#D864FF; fill-opacity:0.4000; stroke:none;">
<circle cx="11.5109" cy="1.0216" r="0.7000" /> 
</g>
<g style="fill:#D864FF; fill-opacity:0.4000; stroke:none;">
<circle cx="12.7809" cy="2.9266" r="0.7000" /> 
</g>
<g style="fill:#D864FF; fill-opacity:0.4000; stroke:none;">
<circle cx="14.0509" cy="1.0216" r="0.7000" /> 
</g>
<g style="fill:none; 
stroke:#D864FF; stroke-width:2.1000; stroke-opacity:1; 
stroke-linecap:round; stroke-linejoin:round;">
<path d="M14.8159 12.7566
L15.4659 12.7566
" />
<path d="M14.8159 15.8566
L15.4659 15.8566
" />
<path d="M14.8159 18.9566
L15.4659 18.9566
" />
<path d="M5.0159 18.9566
L5.6659 18.9566
" />
<path d="M5.0159 15.8566
L5.6659 15.8566
" />
<path d="M5.0159 12.7566
L5.6659 12.7566
" />
</g>
<g style="fill:none; 
stroke:#F2EDA1; stroke-width:0.1588; stroke-opacity:1; 
stroke-linecap:round; stroke-linejoin:round;">
<text x="6.4309" y="1.6566"
textLength="5.6651" font-size="1.6933" lengthAdjust="spacingAndGlyphs"
text-anchor="middle" opacity="0">REF**</text>
<g class="stroked-text"><desc>REF**</desc>
<path d="M4.7376 1.6008
L4.3142 0.9961
" />
<path d="M4.0118 1.6008
L4.0118 0.3308
" />
<path d="M4.0118 0.3308
L4.4956 0.3308
" />
<path d="M4.4956 0.3308
L4.6166 0.3913
" />
<path d="M4.6166 0.3913
L4.6771 0.4518
" />
<path d="M4.6771 0.4518
L4.7376 0.5727
" />
<path d="M4.7376 0.5727
L4.7376 0.7542
" />
<path d="M4.7376 0.7542
L4.6771 0.8751
" />
<path d="M4.6771 0.8751
L4.6166 0.9356
" />
<path d="M4.6166 0.9356
L4.4956 0.9961
" />
<path d="M4.4956 0.9961
L4.0118 0.9961
" />
<path d="M5.2818 0.9356
L5.7052 0.9356
" />
<path d="M5.8866 1.6008
L5.2818 1.6008
" />
<path d="M5.2818 1.6008
L5.2818 0.3308
" />
<path d="M5.2818 0.3308
L5.8866 0.3308
" />
<path d="M6.8542 0.9356
L6.4309 0.9356
" />
<path d="M6.4309 1.6008
L6.4309 0.3308
" />
<path d="M6.4309 0.3308
L7.0356 0.3308
" />
<path d="M7.7009 0.3308
L7.7009 0.6332
" />
<path d="M7.3985 0.5123
L7.7009 0.6332
" />
<path d="M7.7009 0.6332
L8.0033 0.5123
" />
<path d="M7.5195 0.8751
L7.7009 0.6332
" />
<path d="M7.7009 0.6332
L7.8823 0.8751
" />
<path d="M8.6685 0.3308
L8.6685 0.6332
" />
<path d="M8.3661 0.5123
L8.6685 0.6332
" />
<path d="M8.6685 0.6332
L8.9709 0.5123
" />
<path d="M8.4871 0.8751
L8.6685 0.6332
" />
<path d="M8.6685 0.6332
L8.8499 0.8751
" />
</g></g>
<g style="fill:none; 
stroke:#F2EDA1; stroke-width:0.1200; stroke-opacity:1; 
stroke-linecap:round; stroke-linejoin:round;">
<path d="M4.1309 1.8516
L4.1309 11.8216
" />
<path d="M4.1309 1.8516
L5.4809 1.8516
" />
<path d="M4.7809 14.0216
L4.7809 14.6216
" />
<path d="M4.7809 17.1216
L4.7809 17.7216
" />
<path d="M4.7809 20.2216
L4.7809 21.2616
" />
<path d="M4.7809 21.2716
L6.3309 21.2716
" />
<path d="M6.3309 21.2716
L6.3309 25.0716
" />
<path d="M6.3309 25.0716
L14.1509 25.0716
" />
<path d="M14.1509 21.2716
L15.7009 21.2716
" />
<path d="M14.1509 25.0716
L14.1509 21.2716
" />
<path d="M15.7009 14.0216
L15.7009 14.6216
" />
<path d="M15.7009 17.1216
L15.7009 17.7216
" />
<path d="M15.7009 20.2216
L15.7009 21.2616
" />
<path d="M16.3509 1.8516
L14.8309 1.8516
" />
<path d="M16.3509 11.8216
L16.3509 1.8516
" />
<path style="fill:#F2EDA1; fill-opacity:1.0000; 
stroke:#F2EDA1; stroke-width:0.1200; stroke-opacity:1; 
stroke-linecap:round; stroke-linejoin:round;fill-rule:evenodd;"
d="M 5.4809,1.0216
5.1509,1.2616
5.1509,0.7816
Z" /> 
</g>
<g style="fill:#FFFFFF; fill-opacity:1.0000; stroke:none;">
<circle cx="6.4309" cy="1.0216" r="0.4500" /> 
</g>
<g style="fill:#FFFFFF; fill-opacity:1.0000; stroke:none;">
<circle cx="7.7009" cy="2.9266" r="0.4500" /> 
</g>
<g style="fill:#FFFFFF; fill-opacity:1.0000; stroke:none;">
<circle cx="8.9709" cy="1.0216" r="0.4500" /> 
</g>
<g style="fill:#FFFFFF; fill-opacity:1.0000; stroke:none;">
<circle cx="10.2409" cy="2.9266" r="0.4500" /> 
</g>
<g style="fill:#FFFFFF; fill-opacity:1.0000; stroke:none;">
<circle cx="11.5109" cy="1.0216" r="0.4500" /> 
</g>
<g style="fill:#FFFFFF; fill-opacity:1.0000; stroke:none;">
<circle cx="12.7809" cy="2.9266" r="0.4500" /> 
</g>
<g style="fill:#FFFFFF; fill-opacity:1.0000; stroke:none;">
<circle cx="14.0509" cy="1.0216" r="0.4500" /> 
</g>
<g style="fill:#FFFFFF; fill-opacity:1.0000; stroke:none;">
<circle cx="15.1409" cy="12.7566" r="0.7500" /> 
</g>
<g style="fill:#FFFFFF; fill-opacity:1.0000; stroke:none;">
<circle cx="15.1409" cy="15.8566" r="0.7500" /> 
</g>
<g style="fill:#FFFFFF; fill-opacity:1.0000; stroke:none;">
<circle cx="15.1409" cy="18.9566" r="0.7500" /> 
</g>
<g style="fill:#FFFFFF; fill-opacity:1.0000; stroke:none;">
<circle cx="5.3409" cy="18.9566" r="0.7500" /> 
</g>
<g style="fill:#FFFFFF; fill-opacity:1.0000; stroke:none;">
<circle cx="5.3409" cy="15.8566" r="0.7500" /> 
</g>
<g style="fill:#FFFFFF; fill-opacity:1.0000; stroke:none;">
<circle cx="5.3409" cy="12.7566" r="0.7500" /> 
</g>
<g style="fill:none; 
stroke:#FF26E2; stroke-width:0.0500; stroke-opacity:1; 
stroke-linecap:round; stroke-linejoin:round;">
<path d="M3.7109 0.0716
L3.7109 25.2116
" />
<path d="M3.7109 25.2116
L16.7709 25.2116
" />
<path d="M16.7709 0.0716
L3.7109 0.0716
" />
<path d="M16.7709 25.2116
L16.7709 0.0716
" />
</g>
<g style="fill:none; 
stroke:#AFAFAF; stroke-width:0.1588; stroke-opacity:1; 
stroke-linecap:round; stroke-linejoin:round;">
<text x="6.4309" y="1.6566"
textLength="12.8618" font-size="1.6933" lengthAdjust="spacingAndGlyphs"
text-anchor="middle" opacity="0">LEM_HO8-NP</text>
<g class="stroked-text"><desc>LEM_HO8-NP</desc>
<path d="M1.0183 1.6008
L0.4135 1.6008
" />
<path d="M0.4135 1.6008
L0.4135 0.3308
" />
<path d="M1.4416 0.9356
L1.8649 0.9356
" />
<path d="M2.0464 1.6008
L1.4416 1.6008
" />
<path d="M1.4416 1.6008
L1.4416 0.3308
" />
<path d="M1.4416 0.3308
L2.0464 0.3308
" />
<path d="M2.5906 1.6008
L2.5906 0.3308
" />
<path d="M2.5906 0.3308
L3.0140 1.2380
" />
<path d="M3.0140 1.2380
L3.4373 0.3308
" />
<path d="M3.4373 0.3308
L3.4373 1.6008
" />
<path d="M3.7397 1.7218
L4.7073 1.7218
" />
<path d="M5.0097 1.6008
L5.0097 0.3308
" />
<path d="M5.0097 0.9356
L5.7354 0.9356
" />
<path d="M5.7354 1.6008
L5.7354 0.3308
" />
<path d="M6.5821 0.3308
L6.8240 0.3308
" />
<path d="M6.8240 0.3308
L6.9449 0.3913
" />
<path d="M6.9449 0.3913
L7.0659 0.5123
" />
<path d="M7.0659 0.5123
L7.1264 0.7542
" />
<path d="M7.1264 0.7542
L7.1264 1.1775
" />
<path d="M7.1264 1.1775
L7.0659 1.4194
" />
<path d="M7.0659 1.4194
L6.9449 1.5404
" />
<path d="M6.9449 1.5404
L6.8240 1.6008
" />
<path d="M6.8240 1.6008
L6.5821 1.6008
" />
<path d="M6.5821 1.6008
L6.4611 1.5404
" />
<path d="M6.4611 1.5404
L6.3402 1.4194
" />
<path d="M6.3402 1.4194
L6.2797 1.1775
" />
<path d="M6.2797 1.1775
L6.2797 0.7542
" />
<path d="M6.2797 0.7542
L6.3402 0.5123
" />
<path d="M6.3402 0.5123
L6.4611 0.3913
" />
<path d="M6.4611 0.3913
L6.5821 0.3308
" />
<path d="M7.8521 0.8751
L7.7311 0.8146
" />
<path d="M7.7311 0.8146
L7.6706 0.7542
" />
<path d="M7.6706 0.7542
L7.6102 0.6332
" />
<path d="M7.6102 0.6332
L7.6102 0.5727
" />
<path d="M7.6102 0.5727
L7.6706 0.4518
" />
<path d="M7.6706 0.4518
L7.7311 0.3913
" />
<path d="M7.7311 0.3913
L7.8521 0.3308
" />
<path d="M7.8521 0.3308
L8.0940 0.3308
" />
<path d="M8.0940 0.3308
L8.2149 0.3913
" />
<path d="M8.2149 0.3913
L8.2754 0.4518
" />
<path d="M8.2754 0.4518
L8.3359 0.5727
" />
<path d="M8.3359 0.5727
L8.3359 0.6332
" />
<path d="M8.3359 0.6332
L8.2754 0.7542
" />
<path d="M8.2754 0.7542
L8.2149 0.8146
" />
<path d="M8.2149 0.8146
L8.0940 0.8751
" />
<path d="M8.0940 0.8751
L7.8521 0.8751
" />
<path d="M7.8521 0.8751
L7.7311 0.9356
" />
<path d="M7.7311 0.9356
L7.6706 0.9961
" />
<path d="M7.6706 0.9961
L7.6102 1.1170
" />
<path d="M7.6102 1.1170
L7.6102 1.3589
" />
<path d="M7.6102 1.3589
L7.6706 1.4799
" />
<path d="M7.6706 1.4799
L7.7311 1.5404
" />
<path d="M7.7311 1.5404
L7.8521 1.6008
" />
<path d="M7.8521 1.6008
L8.0940 1.6008
" />
<path d="M8.0940 1.6008
L8.2149 1.5404
" />
<path d="M8.2149 1.5404
L8.2754 1.4799
" />
<path d="M8.2754 1.4799
L8.3359 1.3589
" />
<path d="M8.3359 1.3589
L8.3359 1.1170
" />
<path d="M8.3359 1.1170
L8.2754 0.9961
" />
<path d="M8.2754 0.9961
L8.2149 0.9356
" />
<path d="M8.2149 0.9356
L8.0940 0.8751
" />
<path d="M8.8802 1.1170
L9.8478 1.1170
" />
<path d="M10.4526 1.6008
L10.4526 0.3308
" />
<path d="M10.4526 0.3308
L11.1783 1.6008
" />
<path d="M11.1783 1.6008
L11.1783 0.3308
" />
<path d="M11.7830 1.6008
L11.7830 0.3308
" />
<path d="M11.7830 0.3308
L12.2668 0.3308
" />
<path d="M12.2668 0.3308
L12.3878 0.3913
" />
<path d="M12.3878 0.3913
L12.4483 0.4518
" />
<path d="M12.4483 0.4518
L12.5087 0.5727
" />
<path d="M12.5087 0.5727
L12.5087 0.7542
" />
<path d="M12.5087 0.7542
L12.4483 0.8751
" />
<path d="M12.4483 0.8751
L12.3878 0.9356
" />
<path d="M12.3878 0.9356
L12.2668 0.9961
" />
<path d="M12.2668 0.9961
L11.7830 0.9961
" />
</g></g>
<g style="fill:none; 
stroke:#AFAFAF; stroke-width:0.1500; stroke-opacity:1; 
stroke-linecap:round; stroke-linejoin:round;">
<g transform="rotate(-90.000000 11.4409 12.7566)">
<text x="11.4409" y="13.2566"
textLength="4.5357" font-size="1.3333" lengthAdjust="spacingAndGlyphs"
text-anchor="middle" opacity="0">REF**</text>
</g>
<g class="stroked-text"><desc>REF**</desc>
<path d="M11.8957 14.0899
L11.4195 14.4232
" />
<path d="M11.8957 14.6613
L10.8957 14.6613
" />
<path d="M10.8957 14.6613
L10.8957 14.2804
" />
<path d="M10.8957 14.2804
L10.9433 14.1851
" />
<path d="M10.9433 14.1851
L10.9909 14.1375
" />
<path d="M10.9909 14.1375
L11.0862 14.0899
" />
<path d="M11.0862 14.0899
L11.2290 14.0899
" />
<path d="M11.2290 14.0899
L11.3243 14.1375
" />
<path d="M11.3243 14.1375
L11.3719 14.1851
" />
<path d="M11.3719 14.1851
L11.4195 14.2804
" />
<path d="M11.4195 14.2804
L11.4195 14.6613
" />
<path d="M11.3719 13.6613
L11.3719 13.3280
" />
<path d="M11.8957 13.1851
L11.8957 13.6613
" />
<path d="M11.8957 13.6613
L10.8957 13.6613
" />
<path d="M10.8957 13.6613
L10.8957 13.1851
" />
<path d="M11.3719 12.4232
L11.3719 12.7566
" />
<path d="M11.8957 12.7566
L10.8957 12.7566
" />
<path d="M10.8957 12.7566
L10.8957 12.2804
" />
<path d="M10.8957 11.7566
L11.1338 11.7566
" />
<path d="M11.0386 11.9947
L11.1338 11.7566
" />
<path d="M11.1338 11.7566
L11.0386 11.5185
" />
<path d="M11.3243 11.8994
L11.1338 11.7566
" />
<path d="M11.1338 11.7566
L11.3243 11.6137
" />
<path d="M10.8957 10.9947
L11.1338 10.9947
" />
<path d="M11.0386 11.2327
L11.1338 10.9947
" />
<path d="M11.1338 10.9947
L11.0386 10.7566
" />
<path d="M11.3243 11.1375
L11.1338 10.9947
" />
<path d="M11.1338 10.9947
L11.3243 10.8518
" />
</g></g>
<g style="fill:none; 
stroke:#AFAFAF; stroke-width:0.1000; stroke-opacity:1; 
stroke-linecap:round; stroke-linejoin:round;">
<path d="M4.2409 11.9616
L4.2409 1.9616
" />
<path d="M4.2409 11.9616
L4.8909 11.9616
" />
<path d="M4.8909 11.9616
L4.8909 21.1616
" />
<path d="M5.9309 1.9616
L6.4309 2.4616
" />
<path d="M6.4309 2.4616
L6.9309 1.9616
" />
<path d="M6.4409 21.1616
L4.8909 21.1616
" />
<path d="M6.4409 24.9616
L6.4409 21.1616
" />
<path d="M6.4409 24.9616
L14.0409 24.9616
" />
<path d="M14.0409 21.1616
L15.5909 21.1616
" />
<path d="M14.0409 24.9616
L14.0409 21.1616
" />
<path d="M15.5909 11.9616
L15.5909 21.1616
" />
<path d="M16.2409 1.9616
L4.2409 1.9616
" />
<path d="M16.2409 1.9616
L16.2409 11.9616
" />
<path d="M16.2409 11.9616
L15.5909 11.9616
" />
</g> 
</svg>
