<?xml version="1.0" standalone="no"?>
 <!DOCTYPE svg PUBLIC "-//W3C//DTD SVG 1.1//EN" 
 "http://www.w3.org/Graphics/SVG/1.1/DTD/svg11.dtd"> 
<svg
  xmlns:svg="http://www.w3.org/2000/svg"
  xmlns="http://www.w3.org/2000/svg"
  xmlns:xlink="http://www.w3.org/1999/xlink"
  version="1.1"
  width="21.8694mm" height="9.0170mm" viewBox="0.0000 0.0000 21.8694 9.0170">
<title>SVG Image created as working-brd.svg date 2024/03/25 19:05:44 </title>
  <desc>Image generated by PCBNEW </desc>
<g style="fill:#000000; fill-opacity:1.0000;stroke:#000000; stroke-opacity:1.0000;
stroke-linecap:round; stroke-linejoin:round;"
 transform="translate(0 0) scale(1 1)">
<path style="fill:#C83434; fill-opacity:1.0000; stroke:none;fill-rule:evenodd;"
d="M 6.6864,3.8482
6.6864,2.8482
9.4364,2.8482
9.4364,3.8482
Z" /> 
<path style="fill:#C83434; fill-opacity:1.0000; stroke:none;fill-rule:evenodd;"
d="M 12.4364,3.8482
12.4364,2.8482
15.1864,2.8482
15.1864,3.8482
Z" /> 
<path style="fill:#C83434; fill-opacity:1.0000; stroke:none;fill-rule:evenodd;"
d="M 6.6864,7.8482
6.6864,6.8482
9.4364,6.8482
9.4364,7.8482
Z" /> 
<path style="fill:#C83434; fill-opacity:1.0000; stroke:none;fill-rule:evenodd;"
d="M 12.4364,7.8482
12.4364,6.8482
15.1864,6.8482
15.1864,7.8482
Z" /> 
<path style="fill:#D864FF; fill-opacity:0.4000; stroke:none;fill-rule:evenodd;"
d="M 6.6864,3.8482
6.6864,2.8482
9.4364,2.8482
9.4364,3.8482
Z" /> 
<path style="fill:#D864FF; fill-opacity:0.4000; stroke:none;fill-rule:evenodd;"
d="M 12.4364,3.8482
12.4364,2.8482
15.1864,2.8482
15.1864,3.8482
Z" /> 
<path style="fill:#D864FF; fill-opacity:0.4000; stroke:none;fill-rule:evenodd;"
d="M 6.6864,7.8482
6.6864,6.8482
9.4364,6.8482
9.4364,7.8482
Z" /> 
<path style="fill:#D864FF; fill-opacity:0.4000; stroke:none;fill-rule:evenodd;"
d="M 12.4364,7.8482
12.4364,6.8482
15.1864,6.8482
15.1864,7.8482
Z" /> 
<path style="fill:#B4A09A; fill-opacity:0.9000; stroke:none;fill-rule:evenodd;"
d="M 6.6864,3.8482
6.6864,2.8482
9.4364,2.8482
9.4364,3.8482
Z" /> 
<path style="fill:#B4A09A; fill-opacity:0.9000; stroke:none;fill-rule:evenodd;"
d="M 12.4364,3.8482
12.4364,2.8482
15.1864,2.8482
15.1864,3.8482
Z" /> 
<path style="fill:#B4A09A; fill-opacity:0.9000; stroke:none;fill-rule:evenodd;"
d="M 6.6864,7.8482
6.6864,6.8482
9.4364,6.8482
9.4364,7.8482
Z" /> 
<path style="fill:#B4A09A; fill-opacity:0.9000; stroke:none;fill-rule:evenodd;"
d="M 12.4364,7.8482
12.4364,6.8482
15.1864,6.8482
15.1864,7.8482
Z" /> 
</g>
<g style="fill:none; 
stroke:#F2EDA1; stroke-width:0.1588; stroke-opacity:1; 
stroke-linecap:round; stroke-linejoin:round;">
<text x="10.9364" y="5.9832"
textLength="5.6651" font-size="1.6933" lengthAdjust="spacingAndGlyphs"
text-anchor="middle" opacity="0">REF**</text>
<g class="stroked-text"><desc>REF**</desc>
<path d="M9.2430 5.9275
L8.8197 5.3228
" />
<path d="M8.5173 5.9275
L8.5173 4.6575
" />
<path d="M8.5173 4.6575
L9.0011 4.6575
" />
<path d="M9.0011 4.6575
L9.1221 4.7180
" />
<path d="M9.1221 4.7180
L9.1826 4.7785
" />
<path d="M9.1826 4.7785
L9.2430 4.8994
" />
<path d="M9.2430 4.8994
L9.2430 5.0809
" />
<path d="M9.2430 5.0809
L9.1826 5.2018
" />
<path d="M9.1826 5.2018
L9.1221 5.2623
" />
<path d="M9.1221 5.2623
L9.0011 5.3228
" />
<path d="M9.0011 5.3228
L8.5173 5.3228
" />
<path d="M9.7873 5.2623
L10.2107 5.2623
" />
<path d="M10.3921 5.9275
L9.7873 5.9275
" />
<path d="M9.7873 5.9275
L9.7873 4.6575
" />
<path d="M9.7873 4.6575
L10.3921 4.6575
" />
<path d="M11.3597 5.2623
L10.9364 5.2623
" />
<path d="M10.9364 5.9275
L10.9364 4.6575
" />
<path d="M10.9364 4.6575
L11.5411 4.6575
" />
<path d="M12.2064 4.6575
L12.2064 4.9599
" />
<path d="M11.9040 4.8389
L12.2064 4.9599
" />
<path d="M12.2064 4.9599
L12.5087 4.8389
" />
<path d="M12.0249 5.2018
L12.2064 4.9599
" />
<path d="M12.2064 4.9599
L12.3878 5.2018
" />
<path d="M13.1740 4.6575
L13.1740 4.9599
" />
<path d="M12.8716 4.8389
L13.1740 4.9599
" />
<path d="M13.1740 4.9599
L13.4764 4.8389
" />
<path d="M12.9926 5.2018
L13.1740 4.9599
" />
<path d="M13.1740 4.9599
L13.3554 5.2018
" />
</g></g>
<g style="fill:none; 
stroke:#F2EDA1; stroke-width:0.1200; stroke-opacity:1; 
stroke-linecap:round; stroke-linejoin:round;">
<path d="M7.6864 1.9482
L7.6864 2.5982
" />
<path d="M7.6864 4.0983
L7.6864 6.5982
" />
<path d="M7.6864 8.7482
L7.6864 8.0983
" />
<path d="M14.1864 1.9482
L7.6864 1.9482
" />
<path d="M14.1864 2.5982
L14.1864 1.9482
" />
<path d="M14.1864 4.0983
L14.1864 6.5982
" />
<path d="M14.1864 8.0983
L14.1864 8.7482
" />
<path d="M14.1864 8.7482
L7.6864 8.7482
" />
</g>
<g style="fill:none; 
stroke:#FF26E2; stroke-width:0.0500; stroke-opacity:1; 
stroke-linecap:round; stroke-linejoin:round;">
<path d="M6.4364 1.6982
L6.4364 8.9982
" />
<path d="M6.4364 8.9982
L15.4364 8.9982
" />
<path d="M15.4364 1.6982
L6.4364 1.6982
" />
<path d="M15.4364 8.9982
L15.4364 1.6982
" />
</g>
<g style="fill:none; 
stroke:#AFAFAF; stroke-width:0.1588; stroke-opacity:1; 
stroke-linecap:round; stroke-linejoin:round;">
<text x="10.9364" y="5.9832"
textLength="21.8727" font-size="1.6933" lengthAdjust="spacingAndGlyphs"
text-anchor="middle" opacity="0">SW_SPST_B3SL-1002P</text>
<g class="stroked-text"><desc>SW_SPST_B3SL-1002P</desc>
<path d="M0.3530 5.8670
L0.5345 5.9275
" />
<path d="M0.5345 5.9275
L0.8368 5.9275
" />
<path d="M0.8368 5.9275
L0.9578 5.8670
" />
<path d="M0.9578 5.8670
L1.0183 5.8066
" />
<path d="M1.0183 5.8066
L1.0787 5.6856
" />
<path d="M1.0787 5.6856
L1.0787 5.5647
" />
<path d="M1.0787 5.5647
L1.0183 5.4437
" />
<path d="M1.0183 5.4437
L0.9578 5.3832
" />
<path d="M0.9578 5.3832
L0.8368 5.3228
" />
<path d="M0.8368 5.3228
L0.5949 5.2623
" />
<path d="M0.5949 5.2623
L0.4740 5.2018
" />
<path d="M0.4740 5.2018
L0.4135 5.1413
" />
<path d="M0.4135 5.1413
L0.3530 5.0204
" />
<path d="M0.3530 5.0204
L0.3530 4.8994
" />
<path d="M0.3530 4.8994
L0.4135 4.7785
" />
<path d="M0.4135 4.7785
L0.4740 4.7180
" />
<path d="M0.4740 4.7180
L0.5949 4.6575
" />
<path d="M0.5949 4.6575
L0.8973 4.6575
" />
<path d="M0.8973 4.6575
L1.0787 4.7180
" />
<path d="M1.5021 4.6575
L1.8045 5.9275
" />
<path d="M1.8045 5.9275
L2.0464 5.0204
" />
<path d="M2.0464 5.0204
L2.2883 5.9275
" />
<path d="M2.2883 5.9275
L2.5906 4.6575
" />
<path d="M2.7721 6.0485
L3.7397 6.0485
" />
<path d="M3.9816 5.8670
L4.1630 5.9275
" />
<path d="M4.1630 5.9275
L4.4654 5.9275
" />
<path d="M4.4654 5.9275
L4.5864 5.8670
" />
<path d="M4.5864 5.8670
L4.6468 5.8066
" />
<path d="M4.6468 5.8066
L4.7073 5.6856
" />
<path d="M4.7073 5.6856
L4.7073 5.5647
" />
<path d="M4.7073 5.5647
L4.6468 5.4437
" />
<path d="M4.6468 5.4437
L4.5864 5.3832
" />
<path d="M4.5864 5.3832
L4.4654 5.3228
" />
<path d="M4.4654 5.3228
L4.2235 5.2623
" />
<path d="M4.2235 5.2623
L4.1026 5.2018
" />
<path d="M4.1026 5.2018
L4.0421 5.1413
" />
<path d="M4.0421 5.1413
L3.9816 5.0204
" />
<path d="M3.9816 5.0204
L3.9816 4.8994
" />
<path d="M3.9816 4.8994
L4.0421 4.7785
" />
<path d="M4.0421 4.7785
L4.1026 4.7180
" />
<path d="M4.1026 4.7180
L4.2235 4.6575
" />
<path d="M4.2235 4.6575
L4.5259 4.6575
" />
<path d="M4.5259 4.6575
L4.7073 4.7180
" />
<path d="M5.2516 5.9275
L5.2516 4.6575
" />
<path d="M5.2516 4.6575
L5.7354 4.6575
" />
<path d="M5.7354 4.6575
L5.8564 4.7180
" />
<path d="M5.8564 4.7180
L5.9168 4.7785
" />
<path d="M5.9168 4.7785
L5.9773 4.8994
" />
<path d="M5.9773 4.8994
L5.9773 5.0809
" />
<path d="M5.9773 5.0809
L5.9168 5.2018
" />
<path d="M5.9168 5.2018
L5.8564 5.2623
" />
<path d="M5.8564 5.2623
L5.7354 5.3228
" />
<path d="M5.7354 5.3228
L5.2516 5.3228
" />
<path d="M6.4611 5.8670
L6.6426 5.9275
" />
<path d="M6.6426 5.9275
L6.9449 5.9275
" />
<path d="M6.9449 5.9275
L7.0659 5.8670
" />
<path d="M7.0659 5.8670
L7.1264 5.8066
" />
<path d="M7.1264 5.8066
L7.1868 5.6856
" />
<path d="M7.1868 5.6856
L7.1868 5.5647
" />
<path d="M7.1868 5.5647
L7.1264 5.4437
" />
<path d="M7.1264 5.4437
L7.0659 5.3832
" />
<path d="M7.0659 5.3832
L6.9449 5.3228
" />
<path d="M6.9449 5.3228
L6.7030 5.2623
" />
<path d="M6.7030 5.2623
L6.5821 5.2018
" />
<path d="M6.5821 5.2018
L6.5216 5.1413
" />
<path d="M6.5216 5.1413
L6.4611 5.0204
" />
<path d="M6.4611 5.0204
L6.4611 4.8994
" />
<path d="M6.4611 4.8994
L6.5216 4.7785
" />
<path d="M6.5216 4.7785
L6.5821 4.7180
" />
<path d="M6.5821 4.7180
L6.7030 4.6575
" />
<path d="M6.7030 4.6575
L7.0054 4.6575
" />
<path d="M7.0054 4.6575
L7.1868 4.7180
" />
<path d="M7.5497 4.6575
L8.2754 4.6575
" />
<path d="M7.9126 5.9275
L7.9126 4.6575
" />
<path d="M8.3964 6.0485
L9.3640 6.0485
" />
<path d="M10.0897 5.2623
L10.2711 5.3228
" />
<path d="M10.2711 5.3228
L10.3316 5.3832
" />
<path d="M10.3316 5.3832
L10.3921 5.5042
" />
<path d="M10.3921 5.5042
L10.3921 5.6856
" />
<path d="M10.3921 5.6856
L10.3316 5.8066
" />
<path d="M10.3316 5.8066
L10.2711 5.8670
" />
<path d="M10.2711 5.8670
L10.1502 5.9275
" />
<path d="M10.1502 5.9275
L9.6664 5.9275
" />
<path d="M9.6664 5.9275
L9.6664 4.6575
" />
<path d="M9.6664 4.6575
L10.0897 4.6575
" />
<path d="M10.0897 4.6575
L10.2106 4.7180
" />
<path d="M10.2106 4.7180
L10.2711 4.7785
" />
<path d="M10.2711 4.7785
L10.3316 4.8994
" />
<path d="M10.3316 4.8994
L10.3316 5.0204
" />
<path d="M10.3316 5.0204
L10.2711 5.1413
" />
<path d="M10.2711 5.1413
L10.2106 5.2018
" />
<path d="M10.2106 5.2018
L10.0897 5.2623
" />
<path d="M10.0897 5.2623
L9.6664 5.2623
" />
<path d="M10.8154 4.6575
L11.6016 4.6575
" />
<path d="M11.6016 4.6575
L11.1783 5.1413
" />
<path d="M11.1783 5.1413
L11.3597 5.1413
" />
<path d="M11.3597 5.1413
L11.4806 5.2018
" />
<path d="M11.4806 5.2018
L11.5411 5.2623
" />
<path d="M11.5411 5.2623
L11.6016 5.3832
" />
<path d="M11.6016 5.3832
L11.6016 5.6856
" />
<path d="M11.6016 5.6856
L11.5411 5.8066
" />
<path d="M11.5411 5.8066
L11.4806 5.8670
" />
<path d="M11.4806 5.8670
L11.3597 5.9275
" />
<path d="M11.3597 5.9275
L10.9968 5.9275
" />
<path d="M10.9968 5.9275
L10.8759 5.8670
" />
<path d="M10.8759 5.8670
L10.8154 5.8066
" />
<path d="M12.0854 5.8670
L12.2668 5.9275
" />
<path d="M12.2668 5.9275
L12.5692 5.9275
" />
<path d="M12.5692 5.9275
L12.6902 5.8670
" />
<path d="M12.6902 5.8670
L12.7506 5.8066
" />
<path d="M12.7506 5.8066
L12.8111 5.6856
" />
<path d="M12.8111 5.6856
L12.8111 5.5647
" />
<path d="M12.8111 5.5647
L12.7506 5.4437
" />
<path d="M12.7506 5.4437
L12.6902 5.3832
" />
<path d="M12.6902 5.3832
L12.5692 5.3228
" />
<path d="M12.5692 5.3228
L12.3273 5.2623
" />
<path d="M12.3273 5.2623
L12.2064 5.2018
" />
<path d="M12.2064 5.2018
L12.1459 5.1413
" />
<path d="M12.1459 5.1413
L12.0854 5.0204
" />
<path d="M12.0854 5.0204
L12.0854 4.8994
" />
<path d="M12.0854 4.8994
L12.1459 4.7785
" />
<path d="M12.1459 4.7785
L12.2064 4.7180
" />
<path d="M12.2064 4.7180
L12.3273 4.6575
" />
<path d="M12.3273 4.6575
L12.6297 4.6575
" />
<path d="M12.6297 4.6575
L12.8111 4.7180
" />
<path d="M13.9602 5.9275
L13.3554 5.9275
" />
<path d="M13.3554 5.9275
L13.3554 4.6575
" />
<path d="M14.3835 5.4437
L15.3511 5.4437
" />
<path d="M16.6211 5.9275
L15.8954 5.9275
" />
<path d="M16.2583 5.9275
L16.2583 4.6575
" />
<path d="M16.2583 4.6575
L16.1373 4.8389
" />
<path d="M16.1373 4.8389
L16.0164 4.9599
" />
<path d="M16.0164 4.9599
L15.8954 5.0204
" />
<path d="M17.4073 4.6575
L17.5283 4.6575
" />
<path d="M17.5283 4.6575
L17.6492 4.7180
" />
<path d="M17.6492 4.7180
L17.7097 4.7785
" />
<path d="M17.7097 4.7785
L17.7702 4.8994
" />
<path d="M17.7702 4.8994
L17.8306 5.1413
" />
<path d="M17.8306 5.1413
L17.8306 5.4437
" />
<path d="M17.8306 5.4437
L17.7702 5.6856
" />
<path d="M17.7702 5.6856
L17.7097 5.8066
" />
<path d="M17.7097 5.8066
L17.6492 5.8670
" />
<path d="M17.6492 5.8670
L17.5283 5.9275
" />
<path d="M17.5283 5.9275
L17.4073 5.9275
" />
<path d="M17.4073 5.9275
L17.2864 5.8670
" />
<path d="M17.2864 5.8670
L17.2259 5.8066
" />
<path d="M17.2259 5.8066
L17.1654 5.6856
" />
<path d="M17.1654 5.6856
L17.1049 5.4437
" />
<path d="M17.1049 5.4437
L17.1049 5.1413
" />
<path d="M17.1049 5.1413
L17.1654 4.8994
" />
<path d="M17.1654 4.8994
L17.2259 4.7785
" />
<path d="M17.2259 4.7785
L17.2864 4.7180
" />
<path d="M17.2864 4.7180
L17.4073 4.6575
" />
<path d="M18.6168 4.6575
L18.7378 4.6575
" />
<path d="M18.7378 4.6575
L18.8587 4.7180
" />
<path d="M18.8587 4.7180
L18.9192 4.7785
" />
<path d="M18.9192 4.7785
L18.9797 4.8994
" />
<path d="M18.9797 4.8994
L19.0402 5.1413
" />
<path d="M19.0402 5.1413
L19.0402 5.4437
" />
<path d="M19.0402 5.4437
L18.9797 5.6856
" />
<path d="M18.9797 5.6856
L18.9192 5.8066
" />
<path d="M18.9192 5.8066
L18.8587 5.8670
" />
<path d="M18.8587 5.8670
L18.7378 5.9275
" />
<path d="M18.7378 5.9275
L18.6168 5.9275
" />
<path d="M18.6168 5.9275
L18.4959 5.8670
" />
<path d="M18.4959 5.8670
L18.4354 5.8066
" />
<path d="M18.4354 5.8066
L18.3749 5.6856
" />
<path d="M18.3749 5.6856
L18.3145 5.4437
" />
<path d="M18.3145 5.4437
L18.3145 5.1413
" />
<path d="M18.3145 5.1413
L18.3749 4.8994
" />
<path d="M18.3749 4.8994
L18.4354 4.7785
" />
<path d="M18.4354 4.7785
L18.4959 4.7180
" />
<path d="M18.4959 4.7180
L18.6168 4.6575
" />
<path d="M19.5240 4.7785
L19.5845 4.7180
" />
<path d="M19.5845 4.7180
L19.7054 4.6575
" />
<path d="M19.7054 4.6575
L20.0078 4.6575
" />
<path d="M20.0078 4.6575
L20.1287 4.7180
" />
<path d="M20.1287 4.7180
L20.1892 4.7785
" />
<path d="M20.1892 4.7785
L20.2497 4.8994
" />
<path d="M20.2497 4.8994
L20.2497 5.0204
" />
<path d="M20.2497 5.0204
L20.1892 5.2018
" />
<path d="M20.1892 5.2018
L19.4635 5.9275
" />
<path d="M19.4635 5.9275
L20.2497 5.9275
" />
<path d="M20.7940 5.9275
L20.7940 4.6575
" />
<path d="M20.7940 4.6575
L21.2778 4.6575
" />
<path d="M21.2778 4.6575
L21.3987 4.7180
" />
<path d="M21.3987 4.7180
L21.4592 4.7785
" />
<path d="M21.4592 4.7785
L21.5197 4.8994
" />
<path d="M21.5197 4.8994
L21.5197 5.0809
" />
<path d="M21.5197 5.0809
L21.4592 5.2018
" />
<path d="M21.4592 5.2018
L21.3987 5.2623
" />
<path d="M21.3987 5.2623
L21.2778 5.3228
" />
<path d="M21.2778 5.3228
L20.7940 5.3228
" />
</g></g>
<g style="fill:none; 
stroke:#AFAFAF; stroke-width:0.1500; stroke-opacity:1; 
stroke-linecap:round; stroke-linejoin:round;">
<text x="10.9364" y="1.3482"
textLength="4.5357" font-size="1.3333" lengthAdjust="spacingAndGlyphs"
text-anchor="middle" opacity="0">REF**</text>
<g class="stroked-text"><desc>REF**</desc>
<path d="M9.6030 1.3031
L9.2697 0.8269
" />
<path d="M9.0316 1.3031
L9.0316 0.3031
" />
<path d="M9.0316 0.3031
L9.4126 0.3031
" />
<path d="M9.4126 0.3031
L9.5078 0.3507
" />
<path d="M9.5078 0.3507
L9.5554 0.3983
" />
<path d="M9.5554 0.3983
L9.6030 0.4935
" />
<path d="M9.6030 0.4935
L9.6030 0.6364
" />
<path d="M9.6030 0.6364
L9.5554 0.7316
" />
<path d="M9.5554 0.7316
L9.5078 0.7793
" />
<path d="M9.5078 0.7793
L9.4126 0.8269
" />
<path d="M9.4126 0.8269
L9.0316 0.8269
" />
<path d="M10.0316 0.7793
L10.3649 0.7793
" />
<path d="M10.5078 1.3031
L10.0316 1.3031
" />
<path d="M10.0316 1.3031
L10.0316 0.3031
" />
<path d="M10.0316 0.3031
L10.5078 0.3031
" />
<path d="M11.2697 0.7793
L10.9364 0.7793
" />
<path d="M10.9364 1.3031
L10.9364 0.3031
" />
<path d="M10.9364 0.3031
L11.4126 0.3031
" />
<path d="M11.9364 0.3031
L11.9364 0.5412
" />
<path d="M11.6983 0.4459
L11.9364 0.5412
" />
<path d="M11.9364 0.5412
L12.1745 0.4459
" />
<path d="M11.7935 0.7316
L11.9364 0.5412
" />
<path d="M11.9364 0.5412
L12.0792 0.7316
" />
<path d="M12.6983 0.3031
L12.6983 0.5412
" />
<path d="M12.4602 0.4459
L12.6983 0.5412
" />
<path d="M12.6983 0.5412
L12.9364 0.4459
" />
<path d="M12.5554 0.7316
L12.6983 0.5412
" />
<path d="M12.6983 0.5412
L12.8411 0.7316
" />
</g></g>
<g style="fill:none; 
stroke:#AFAFAF; stroke-width:0.1000; stroke-opacity:1; 
stroke-linecap:round; stroke-linejoin:round;">
<path d="M7.8364 2.0982
L14.0364 2.0982
" />
<path d="M7.8364 8.5983
L7.8364 2.0982
" />
<path d="M14.0364 2.0982
L14.0364 8.5983
" />
<path d="M14.0364 8.5983
L7.8364 8.5983
" />
<circle cx="10.9364" cy="5.3483" r="1.2500" /> 
</g> 
</svg>
