<?xml version="1.0" standalone="no"?>
 <!DOCTYPE svg PUBLIC "-//W3C//DTD SVG 1.1//EN" 
 "http://www.w3.org/Graphics/SVG/1.1/DTD/svg11.dtd"> 
<svg
  xmlns:svg="http://www.w3.org/2000/svg"
  xmlns="http://www.w3.org/2000/svg"
  xmlns:xlink="http://www.w3.org/1999/xlink"
  version="1.1"
  width="84.6328mm" height="8.3312mm" viewBox="0.0000 0.0000 84.6328 8.3312">
<title>SVG Image created as working-brd.svg date 2024/04/02 15:58:41 </title>
  <desc>Image generated by PCBNEW </desc>
<g style="fill:#000000; fill-opacity:1.0000;stroke:#000000; stroke-opacity:1.0000;
stroke-linecap:round; stroke-linejoin:round;"
 transform="translate(0 0) scale(1 1)">
</g>
<g style="fill:#FFFFFF; fill-opacity:1.0000; stroke:none;">
<circle cx="38.0235" cy="4.8100" r="1.2000" /> 
</g>
<g style="fill:#FFFFFF; fill-opacity:1.0000; stroke:none;">
<circle cx="53.6235" cy="4.8100" r="1.2000" /> 
</g>
<g style="fill:#FFFFFF; fill-opacity:1.0000; stroke:none;">
<circle cx="42.3235" cy="4.8100" r="0.6000" /> 
</g>
<g style="fill:#FFFFFF; fill-opacity:1.0000; stroke:none;">
<circle cx="45.8235" cy="4.8100" r="0.6000" /> 
</g>
<g style="fill:#FFFFFF; fill-opacity:1.0000; stroke:none;">
<circle cx="49.3235" cy="4.8100" r="0.6000" /> 
</g>
<g style="fill:#02FFEE; fill-opacity:0.4000; stroke:none;">
<circle cx="38.0235" cy="4.8100" r="1.2000" /> 
</g>
<g style="fill:#02FFEE; fill-opacity:0.4000; stroke:none;">
<circle cx="53.6235" cy="4.8100" r="1.2000" /> 
<path style="fill:#02FFEE; fill-opacity:0.4000; stroke:none;fill-rule:evenodd;"
d="M 41.4235,3.2600
41.4425,3.1643
41.4967,3.0832
41.5778,3.0290
41.6735,3.0100
42.9735,3.0100
43.0692,3.0290
43.1503,3.0832
43.2045,3.1643
43.2235,3.2600
43.2235,6.3600
43.2045,6.4557
43.1503,6.5368
43.0692,6.5910
42.9735,6.6100
41.6735,6.6100
41.5778,6.5910
41.4967,6.5368
41.4425,6.4557
41.4235,6.3600
Z" /> 
</g>
<g style="fill:none; 
stroke:#02FFEE; stroke-width:1.8000; stroke-opacity:1; 
stroke-linecap:round; stroke-linejoin:round;">
<path d="M45.8235 3.9100
L45.8235 5.7100
" />
<path d="M49.3235 3.9100
L49.3235 5.7100
" />
</g>
<g style="fill:none; 
stroke:#E8B2A7; stroke-width:0.1200; stroke-opacity:1; 
stroke-linecap:round; stroke-linejoin:round;">
<circle cx="38.0235" cy="4.8100" r="2.2100" /> 
<circle cx="53.6235" cy="4.8100" r="2.2100" /> 
</g>
<g style="fill:#FFFFFF; fill-opacity:1.0000; stroke:none;">
<circle cx="38.0235" cy="4.8100" r="1.2000" /> 
</g>
<g style="fill:#FFFFFF; fill-opacity:1.0000; stroke:none;">
<circle cx="53.6235" cy="4.8100" r="1.2000" /> 
</g>
<g style="fill:#FFFFFF; fill-opacity:1.0000; stroke:none;">
<circle cx="42.3235" cy="4.8100" r="0.6000" /> 
</g>
<g style="fill:#FFFFFF; fill-opacity:1.0000; stroke:none;">
<circle cx="45.8235" cy="4.8100" r="0.6000" /> 
</g>
<g style="fill:#FFFFFF; fill-opacity:1.0000; stroke:none;">
<circle cx="49.3235" cy="4.8100" r="0.6000" /> 
</g>
<g style="fill:none; 
stroke:#26E9FF; stroke-width:0.0500; stroke-opacity:1; 
stroke-linecap:round; stroke-linejoin:round;">
<circle cx="38.0235" cy="4.8100" r="2.6000" /> 
<circle cx="53.6235" cy="4.8100" r="2.6000" /> 
</g>
<g style="fill:none; 
stroke:#585D84; stroke-width:0.1000; stroke-opacity:1; 
stroke-linecap:round; stroke-linejoin:round;">
<circle cx="38.0235" cy="4.8100" r="2.1000" /> 
<circle cx="53.6235" cy="4.8100" r="2.1000" /> 
</g>
<g style="fill:#FFFFFF; fill-opacity:1.0000; stroke:none;">
<circle cx="38.0235" cy="4.8100" r="1.2000" /> 
</g>
<g style="fill:#FFFFFF; fill-opacity:1.0000; stroke:none;">
<circle cx="53.6235" cy="4.8100" r="1.2000" /> 
</g>
<g style="fill:#FFFFFF; fill-opacity:1.0000; stroke:none;">
<circle cx="42.3235" cy="4.8100" r="0.6000" /> 
</g>
<g style="fill:#FFFFFF; fill-opacity:1.0000; stroke:none;">
<circle cx="45.8235" cy="4.8100" r="0.6000" /> 
</g>
<g style="fill:#FFFFFF; fill-opacity:1.0000; stroke:none;">
<circle cx="49.3235" cy="4.8100" r="0.6000" /> 
</g>
<g style="fill:#D864FF; fill-opacity:0.4000; stroke:none;">
<circle cx="38.0235" cy="4.8100" r="1.2000" /> 
</g>
<g style="fill:#D864FF; fill-opacity:0.4000; stroke:none;">
<circle cx="53.6235" cy="4.8100" r="1.2000" /> 
<path style="fill:#D864FF; fill-opacity:0.4000; stroke:none;fill-rule:evenodd;"
d="M 41.4235,3.2600
41.4425,3.1643
41.4967,3.0832
41.5778,3.0290
41.6735,3.0100
42.9735,3.0100
43.0692,3.0290
43.1503,3.0832
43.2045,3.1643
43.2235,3.2600
43.2235,6.3600
43.2045,6.4557
43.1503,6.5368
43.0692,6.5910
42.9735,6.6100
41.6735,6.6100
41.5778,6.5910
41.4967,6.5368
41.4425,6.4557
41.4235,6.3600
Z" /> 
</g>
<g style="fill:none; 
stroke:#D864FF; stroke-width:1.8000; stroke-opacity:1; 
stroke-linecap:round; stroke-linejoin:round;">
<path d="M45.8235 3.9100
L45.8235 5.7100
" />
<path d="M49.3235 3.9100
L49.3235 5.7100
" />
</g>
<g style="fill:none; 
stroke:#F2EDA1; stroke-width:0.1588; stroke-opacity:1; 
stroke-linecap:round; stroke-linejoin:round;">
<text x="42.3235" y="5.4450"
textLength="5.6651" font-size="1.6933" lengthAdjust="spacingAndGlyphs"
text-anchor="middle" opacity="0">REF**</text>
<g class="stroked-text"><desc>REF**</desc>
<path d="M40.6302 5.3893
L40.2068 4.7845
" />
<path d="M39.9045 5.3893
L39.9045 4.1193
" />
<path d="M39.9045 4.1193
L40.3883 4.1193
" />
<path d="M40.3883 4.1193
L40.5092 4.1797
" />
<path d="M40.5092 4.1797
L40.5697 4.2402
" />
<path d="M40.5697 4.2402
L40.6302 4.3612
" />
<path d="M40.6302 4.3612
L40.6302 4.5426
" />
<path d="M40.6302 4.5426
L40.5697 4.6636
" />
<path d="M40.5697 4.6636
L40.5092 4.7240
" />
<path d="M40.5092 4.7240
L40.3883 4.7845
" />
<path d="M40.3883 4.7845
L39.9045 4.7845
" />
<path d="M41.1745 4.7240
L41.5978 4.7240
" />
<path d="M41.7792 5.3893
L41.1745 5.3893
" />
<path d="M41.1745 5.3893
L41.1745 4.1193
" />
<path d="M41.1745 4.1193
L41.7792 4.1193
" />
<path d="M42.7468 4.7240
L42.3235 4.7240
" />
<path d="M42.3235 5.3893
L42.3235 4.1193
" />
<path d="M42.3235 4.1193
L42.9283 4.1193
" />
<path d="M43.5935 4.1193
L43.5935 4.4217
" />
<path d="M43.2911 4.3007
L43.5935 4.4217
" />
<path d="M43.5935 4.4217
L43.8959 4.3007
" />
<path d="M43.4121 4.6636
L43.5935 4.4217
" />
<path d="M43.5935 4.4217
L43.7749 4.6636
" />
<path d="M44.5611 4.1193
L44.5611 4.4217
" />
<path d="M44.2587 4.3007
L44.5611 4.4217
" />
<path d="M44.5611 4.4217
L44.8635 4.3007
" />
<path d="M44.3797 4.6636
L44.5611 4.4217
" />
<path d="M44.5611 4.4217
L44.7426 4.6636
" />
</g></g>
<g style="fill:none; 
stroke:#F2EDA1; stroke-width:0.1200; stroke-opacity:1; 
stroke-linecap:round; stroke-linejoin:round;">
<path d="M35.3135 1.7000
L35.3135 7.9200
" />
<path d="M35.3135 7.9200
L56.3335 7.9200
" />
<path d="M39.7235 0.0600
L41.7235 0.0600
" />
<path d="M39.7235 1.3100
L39.7235 0.0600
" />
<path d="M40.1135 0.4500
L40.1135 1.7000
" />
<path d="M40.1135 1.7000
L35.3135 1.7000
" />
<path d="M40.8235 1.4100
L43.8235 1.4100
" />
<path d="M40.8235 2.7600
L41.5735 2.7600
" />
<path d="M40.8235 7.0600
L40.8235 2.7600
" />
<path d="M41.0735 2.4100
L40.8235 1.4100
" />
<path d="M41.5735 2.4100
L41.0735 2.4100
" />
<path d="M41.5735 2.7600
L41.5735 2.4100
" />
<path d="M41.5735 7.0600
L40.8235 7.0600
" />
<path d="M43.0735 2.4100
L43.0735 2.7600
" />
<path d="M43.0735 2.7600
L43.8235 2.7600
" />
<path d="M43.5735 2.4100
L43.0735 2.4100
" />
<path d="M43.8235 1.4100
L43.5735 2.4100
" />
<path d="M43.8235 2.7600
L43.8235 7.0600
" />
<path d="M43.8235 7.0600
L43.0735 7.0600
" />
<path d="M44.3235 1.4100
L47.3235 1.4100
" />
<path d="M44.3235 2.7600
L45.0735 2.7600
" />
<path d="M44.3235 7.0600
L44.3235 2.7600
" />
<path d="M44.5735 2.4100
L44.3235 1.4100
" />
<path d="M45.0735 2.4100
L44.5735 2.4100
" />
<path d="M45.0735 2.7600
L45.0735 2.4100
" />
<path d="M45.0735 7.0600
L44.3235 7.0600
" />
<path d="M46.5735 2.4100
L46.5735 2.7600
" />
<path d="M46.5735 2.7600
L47.3235 2.7600
" />
<path d="M47.0735 2.4100
L46.5735 2.4100
" />
<path d="M47.3235 1.4100
L47.0735 2.4100
" />
<path d="M47.3235 2.7600
L47.3235 7.0600
" />
<path d="M47.3235 7.0600
L46.5735 7.0600
" />
<path d="M47.8235 1.4100
L50.8235 1.4100
" />
<path d="M47.8235 2.7600
L48.5735 2.7600
" />
<path d="M47.8235 7.0600
L47.8235 2.7600
" />
<path d="M48.0735 2.4100
L47.8235 1.4100
" />
<path d="M48.5735 2.4100
L48.0735 2.4100
" />
<path d="M48.5735 2.7600
L48.5735 2.4100
" />
<path d="M48.5735 7.0600
L47.8235 7.0600
" />
<path d="M50.0735 2.4100
L50.0735 2.7600
" />
<path d="M50.0735 2.7600
L50.8235 2.7600
" />
<path d="M50.5735 2.4100
L50.0735 2.4100
" />
<path d="M50.8235 1.4100
L50.5735 2.4100
" />
<path d="M50.8235 2.7600
L50.8235 7.0600
" />
<path d="M50.8235 7.0600
L50.0735 7.0600
" />
<path d="M51.5335 0.4500
L40.1135 0.4500
" />
<path d="M51.5335 1.7000
L51.5335 0.4500
" />
<path d="M56.3335 1.7000
L51.5335 1.7000
" />
<path d="M56.3335 7.9200
L56.3335 1.7000
" />
<path d="M43.0732 7.0598 A1.8581 1.8581 0.0 0 0 41.5735 7.0600" />
<path d="M46.5732 7.0598 A1.8581 1.8581 0.0 0 0 45.0735 7.0600" />
<path d="M50.0732 7.0598 A1.8581 1.8581 0.0 0 0 48.5735 7.0600" />
<circle cx="38.0235" cy="4.8100" r="1.9000" /> 
<circle cx="53.6235" cy="4.8100" r="1.9000" /> 
</g>
<g style="fill:#FFFFFF; fill-opacity:1.0000; stroke:none;">
<circle cx="38.0235" cy="4.8100" r="1.2000" /> 
</g>
<g style="fill:#FFFFFF; fill-opacity:1.0000; stroke:none;">
<circle cx="53.6235" cy="4.8100" r="1.2000" /> 
</g>
<g style="fill:#FFFFFF; fill-opacity:1.0000; stroke:none;">
<circle cx="42.3235" cy="4.8100" r="0.6000" /> 
</g>
<g style="fill:#FFFFFF; fill-opacity:1.0000; stroke:none;">
<circle cx="45.8235" cy="4.8100" r="0.6000" /> 
</g>
<g style="fill:#FFFFFF; fill-opacity:1.0000; stroke:none;">
<circle cx="49.3235" cy="4.8100" r="0.6000" /> 
</g>
<g style="fill:none; 
stroke:#FF26E2; stroke-width:0.0500; stroke-opacity:1; 
stroke-linecap:round; stroke-linejoin:round;">
<path d="M34.9235 0.0600
L34.9235 8.3100
" />
<path d="M34.9235 8.3100
L56.7235 8.3100
" />
<path d="M56.7235 0.0600
L34.9235 0.0600
" />
<path d="M56.7235 8.3100
L56.7235 0.0600
" />
</g>
<g style="fill:none; 
stroke:#AFAFAF; stroke-width:0.1588; stroke-opacity:1; 
stroke-linecap:round; stroke-linejoin:round;">
<text x="42.3235" y="5.4450"
textLength="84.6470" font-size="1.6933" lengthAdjust="spacingAndGlyphs"
text-anchor="middle" opacity="0">PhoenixContact_MCV_1,5_3-GF-3.5_1x03_P3.50mm_Vertical_ThreadedFlange_MountHole</text>
<g class="stroked-text"><desc>PhoenixContact_MCV_1,5_3-GF-3.5_1x03_P3.50mm_Vertical_ThreadedFlange_MountHole</desc>
<path d="M0.4135 5.3893
L0.4135 4.1193
" />
<path d="M0.4135 4.1193
L0.8973 4.1193
" />
<path d="M0.8973 4.1193
L1.0183 4.1797
" />
<path d="M1.0183 4.1797
L1.0787 4.2402
" />
<path d="M1.0787 4.2402
L1.1392 4.3612
" />
<path d="M1.1392 4.3612
L1.1392 4.5426
" />
<path d="M1.1392 4.5426
L1.0787 4.6636
" />
<path d="M1.0787 4.6636
L1.0183 4.7240
" />
<path d="M1.0183 4.7240
L0.8973 4.7845
" />
<path d="M0.8973 4.7845
L0.4135 4.7845
" />
<path d="M1.6835 5.3893
L1.6835 4.1193
" />
<path d="M2.2278 5.3893
L2.2278 4.7240
" />
<path d="M2.2278 4.7240
L2.1673 4.6031
" />
<path d="M2.1673 4.6031
L2.0464 4.5426
" />
<path d="M2.0464 4.5426
L1.8649 4.5426
" />
<path d="M1.8649 4.5426
L1.7440 4.6031
" />
<path d="M1.7440 4.6031
L1.6835 4.6636
" />
<path d="M3.0140 5.3893
L2.8930 5.3288
" />
<path d="M2.8930 5.3288
L2.8326 5.2683
" />
<path d="M2.8326 5.2683
L2.7721 5.1474
" />
<path d="M2.7721 5.1474
L2.7721 4.7845
" />
<path d="M2.7721 4.7845
L2.8326 4.6636
" />
<path d="M2.8326 4.6636
L2.8930 4.6031
" />
<path d="M2.8930 4.6031
L3.0140 4.5426
" />
<path d="M3.0140 4.5426
L3.1954 4.5426
" />
<path d="M3.1954 4.5426
L3.3164 4.6031
" />
<path d="M3.3164 4.6031
L3.3768 4.6636
" />
<path d="M3.3768 4.6636
L3.4373 4.7845
" />
<path d="M3.4373 4.7845
L3.4373 5.1474
" />
<path d="M3.4373 5.1474
L3.3768 5.2683
" />
<path d="M3.3768 5.2683
L3.3164 5.3288
" />
<path d="M3.3164 5.3288
L3.1954 5.3893
" />
<path d="M3.1954 5.3893
L3.0140 5.3893
" />
<path d="M4.4654 5.3288
L4.3445 5.3893
" />
<path d="M4.3445 5.3893
L4.1026 5.3893
" />
<path d="M4.1026 5.3893
L3.9816 5.3288
" />
<path d="M3.9816 5.3288
L3.9211 5.2078
" />
<path d="M3.9211 5.2078
L3.9211 4.7240
" />
<path d="M3.9211 4.7240
L3.9816 4.6031
" />
<path d="M3.9816 4.6031
L4.1026 4.5426
" />
<path d="M4.1026 4.5426
L4.3445 4.5426
" />
<path d="M4.3445 4.5426
L4.4654 4.6031
" />
<path d="M4.4654 4.6031
L4.5259 4.7240
" />
<path d="M4.5259 4.7240
L4.5259 4.8450
" />
<path d="M4.5259 4.8450
L3.9211 4.9659
" />
<path d="M5.0702 4.5426
L5.0702 5.3893
" />
<path d="M5.0702 4.6636
L5.1307 4.6031
" />
<path d="M5.1307 4.6031
L5.2516 4.5426
" />
<path d="M5.2516 4.5426
L5.4330 4.5426
" />
<path d="M5.4330 4.5426
L5.5540 4.6031
" />
<path d="M5.5540 4.6031
L5.6145 4.7240
" />
<path d="M5.6145 4.7240
L5.6145 5.3893
" />
<path d="M6.2192 5.3893
L6.2192 4.5426
" />
<path d="M6.2192 4.1193
L6.1587 4.1797
" />
<path d="M6.1587 4.1797
L6.2192 4.2402
" />
<path d="M6.2192 4.2402
L6.2797 4.1797
" />
<path d="M6.2797 4.1797
L6.2192 4.1193
" />
<path d="M6.2192 4.1193
L6.2192 4.2402
" />
<path d="M6.7030 5.3893
L7.3683 4.5426
" />
<path d="M6.7030 4.5426
L7.3683 5.3893
" />
<path d="M8.5778 5.2683
L8.5173 5.3288
" />
<path d="M8.5173 5.3288
L8.3359 5.3893
" />
<path d="M8.3359 5.3893
L8.2149 5.3893
" />
<path d="M8.2149 5.3893
L8.0335 5.3288
" />
<path d="M8.0335 5.3288
L7.9126 5.2078
" />
<path d="M7.9126 5.2078
L7.8521 5.0869
" />
<path d="M7.8521 5.0869
L7.7916 4.8450
" />
<path d="M7.7916 4.8450
L7.7916 4.6636
" />
<path d="M7.7916 4.6636
L7.8521 4.4217
" />
<path d="M7.8521 4.4217
L7.9126 4.3007
" />
<path d="M7.9126 4.3007
L8.0335 4.1797
" />
<path d="M8.0335 4.1797
L8.2149 4.1193
" />
<path d="M8.2149 4.1193
L8.3359 4.1193
" />
<path d="M8.3359 4.1193
L8.5173 4.1797
" />
<path d="M8.5173 4.1797
L8.5778 4.2402
" />
<path d="M9.3035 5.3893
L9.1826 5.3288
" />
<path d="M9.1826 5.3288
L9.1221 5.2683
" />
<path d="M9.1221 5.2683
L9.0616 5.1474
" />
<path d="M9.0616 5.1474
L9.0616 4.7845
" />
<path d="M9.0616 4.7845
L9.1221 4.6636
" />
<path d="M9.1221 4.6636
L9.1826 4.6031
" />
<path d="M9.1826 4.6031
L9.3035 4.5426
" />
<path d="M9.3035 4.5426
L9.4849 4.5426
" />
<path d="M9.4849 4.5426
L9.6059 4.6031
" />
<path d="M9.6059 4.6031
L9.6664 4.6636
" />
<path d="M9.6664 4.6636
L9.7268 4.7845
" />
<path d="M9.7268 4.7845
L9.7268 5.1474
" />
<path d="M9.7268 5.1474
L9.6664 5.2683
" />
<path d="M9.6664 5.2683
L9.6059 5.3288
" />
<path d="M9.6059 5.3288
L9.4849 5.3893
" />
<path d="M9.4849 5.3893
L9.3035 5.3893
" />
<path d="M10.2711 4.5426
L10.2711 5.3893
" />
<path d="M10.2711 4.6636
L10.3316 4.6031
" />
<path d="M10.3316 4.6031
L10.4526 4.5426
" />
<path d="M10.4526 4.5426
L10.6340 4.5426
" />
<path d="M10.6340 4.5426
L10.7549 4.6031
" />
<path d="M10.7549 4.6031
L10.8154 4.7240
" />
<path d="M10.8154 4.7240
L10.8154 5.3893
" />
<path d="M11.2387 4.5426
L11.7226 4.5426
" />
<path d="M11.4202 4.1193
L11.4202 5.2078
" />
<path d="M11.4202 5.2078
L11.4807 5.3288
" />
<path d="M11.4807 5.3288
L11.6016 5.3893
" />
<path d="M11.6016 5.3893
L11.7226 5.3893
" />
<path d="M12.6902 5.3893
L12.6902 4.7240
" />
<path d="M12.6902 4.7240
L12.6297 4.6031
" />
<path d="M12.6297 4.6031
L12.5087 4.5426
" />
<path d="M12.5087 4.5426
L12.2668 4.5426
" />
<path d="M12.2668 4.5426
L12.1459 4.6031
" />
<path d="M12.6902 5.3288
L12.5692 5.3893
" />
<path d="M12.5692 5.3893
L12.2668 5.3893
" />
<path d="M12.2668 5.3893
L12.1459 5.3288
" />
<path d="M12.1459 5.3288
L12.0854 5.2078
" />
<path d="M12.0854 5.2078
L12.0854 5.0869
" />
<path d="M12.0854 5.0869
L12.1459 4.9659
" />
<path d="M12.1459 4.9659
L12.2668 4.9055
" />
<path d="M12.2668 4.9055
L12.5692 4.9055
" />
<path d="M12.5692 4.9055
L12.6902 4.8450
" />
<path d="M13.8392 5.3288
L13.7183 5.3893
" />
<path d="M13.7183 5.3893
L13.4764 5.3893
" />
<path d="M13.4764 5.3893
L13.3554 5.3288
" />
<path d="M13.3554 5.3288
L13.2949 5.2683
" />
<path d="M13.2949 5.2683
L13.2345 5.1474
" />
<path d="M13.2345 5.1474
L13.2345 4.7845
" />
<path d="M13.2345 4.7845
L13.2949 4.6636
" />
<path d="M13.2949 4.6636
L13.3554 4.6031
" />
<path d="M13.3554 4.6031
L13.4764 4.5426
" />
<path d="M13.4764 4.5426
L13.7183 4.5426
" />
<path d="M13.7183 4.5426
L13.8392 4.6031
" />
<path d="M14.2021 4.5426
L14.6859 4.5426
" />
<path d="M14.3835 4.1193
L14.3835 5.2078
" />
<path d="M14.3835 5.2078
L14.4440 5.3288
" />
<path d="M14.4440 5.3288
L14.5649 5.3893
" />
<path d="M14.5649 5.3893
L14.6859 5.3893
" />
<path d="M14.8068 5.5102
L15.7745 5.5102
" />
<path d="M16.0768 5.3893
L16.0768 4.1193
" />
<path d="M16.0768 4.1193
L16.5002 5.0264
" />
<path d="M16.5002 5.0264
L16.9235 4.1193
" />
<path d="M16.9235 4.1193
L16.9235 5.3893
" />
<path d="M18.2540 5.2683
L18.1935 5.3288
" />
<path d="M18.1935 5.3288
L18.0121 5.3893
" />
<path d="M18.0121 5.3893
L17.8911 5.3893
" />
<path d="M17.8911 5.3893
L17.7097 5.3288
" />
<path d="M17.7097 5.3288
L17.5887 5.2078
" />
<path d="M17.5887 5.2078
L17.5283 5.0869
" />
<path d="M17.5283 5.0869
L17.4678 4.8450
" />
<path d="M17.4678 4.8450
L17.4678 4.6636
" />
<path d="M17.4678 4.6636
L17.5283 4.4217
" />
<path d="M17.5283 4.4217
L17.5887 4.3007
" />
<path d="M17.5887 4.3007
L17.7097 4.1797
" />
<path d="M17.7097 4.1797
L17.8911 4.1193
" />
<path d="M17.8911 4.1193
L18.0121 4.1193
" />
<path d="M18.0121 4.1193
L18.1935 4.1797
" />
<path d="M18.1935 4.1797
L18.2540 4.2402
" />
<path d="M18.6168 4.1193
L19.0402 5.3893
" />
<path d="M19.0402 5.3893
L19.4635 4.1193
" />
<path d="M19.5845 5.5102
L20.5521 5.5102
" />
<path d="M21.5197 5.3893
L20.7940 5.3893
" />
<path d="M21.1568 5.3893
L21.1568 4.1193
" />
<path d="M21.1568 4.1193
L21.0359 4.3007
" />
<path d="M21.0359 4.3007
L20.9149 4.4217
" />
<path d="M20.9149 4.4217
L20.7940 4.4821
" />
<path d="M22.1245 5.3288
L22.1245 5.3893
" />
<path d="M22.1245 5.3893
L22.0640 5.5102
" />
<path d="M22.0640 5.5102
L22.0035 5.5707
" />
<path d="M23.2735 4.1193
L22.6687 4.1193
" />
<path d="M22.6687 4.1193
L22.6083 4.7240
" />
<path d="M22.6083 4.7240
L22.6687 4.6636
" />
<path d="M22.6687 4.6636
L22.7897 4.6031
" />
<path d="M22.7897 4.6031
L23.0921 4.6031
" />
<path d="M23.0921 4.6031
L23.2130 4.6636
" />
<path d="M23.2130 4.6636
L23.2735 4.7240
" />
<path d="M23.2735 4.7240
L23.3340 4.8450
" />
<path d="M23.3340 4.8450
L23.3340 5.1474
" />
<path d="M23.3340 5.1474
L23.2735 5.2683
" />
<path d="M23.2735 5.2683
L23.2130 5.3288
" />
<path d="M23.2130 5.3288
L23.0921 5.3893
" />
<path d="M23.0921 5.3893
L22.7897 5.3893
" />
<path d="M22.7897 5.3893
L22.6687 5.3288
" />
<path d="M22.6687 5.3288
L22.6083 5.2683
" />
<path d="M23.5759 5.5102
L24.5435 5.5102
" />
<path d="M24.7249 4.1193
L25.5111 4.1193
" />
<path d="M25.5111 4.1193
L25.0878 4.6031
" />
<path d="M25.0878 4.6031
L25.2692 4.6031
" />
<path d="M25.2692 4.6031
L25.3902 4.6636
" />
<path d="M25.3902 4.6636
L25.4506 4.7240
" />
<path d="M25.4506 4.7240
L25.5111 4.8450
" />
<path d="M25.5111 4.8450
L25.5111 5.1474
" />
<path d="M25.5111 5.1474
L25.4506 5.2683
" />
<path d="M25.4506 5.2683
L25.3902 5.3288
" />
<path d="M25.3902 5.3288
L25.2692 5.3893
" />
<path d="M25.2692 5.3893
L24.9064 5.3893
" />
<path d="M24.9064 5.3893
L24.7854 5.3288
" />
<path d="M24.7854 5.3288
L24.7249 5.2683
" />
<path d="M26.0554 4.9055
L27.0230 4.9055
" />
<path d="M28.2930 4.1797
L28.1721 4.1193
" />
<path d="M28.1721 4.1193
L27.9907 4.1193
" />
<path d="M27.9907 4.1193
L27.8092 4.1797
" />
<path d="M27.8092 4.1797
L27.6883 4.3007
" />
<path d="M27.6883 4.3007
L27.6278 4.4217
" />
<path d="M27.6278 4.4217
L27.5673 4.6636
" />
<path d="M27.5673 4.6636
L27.5673 4.8450
" />
<path d="M27.5673 4.8450
L27.6278 5.0869
" />
<path d="M27.6278 5.0869
L27.6883 5.2078
" />
<path d="M27.6883 5.2078
L27.8092 5.3288
" />
<path d="M27.8092 5.3288
L27.9907 5.3893
" />
<path d="M27.9907 5.3893
L28.1116 5.3893
" />
<path d="M28.1116 5.3893
L28.2930 5.3288
" />
<path d="M28.2930 5.3288
L28.3535 5.2683
" />
<path d="M28.3535 5.2683
L28.3535 4.8450
" />
<path d="M28.3535 4.8450
L28.1116 4.8450
" />
<path d="M29.3211 4.7240
L28.8978 4.7240
" />
<path d="M28.8978 5.3893
L28.8978 4.1193
" />
<path d="M28.8978 4.1193
L29.5026 4.1193
" />
<path d="M29.9864 4.9055
L30.9540 4.9055
" />
<path d="M31.4378 4.1193
L32.2240 4.1193
" />
<path d="M32.2240 4.1193
L31.8006 4.6031
" />
<path d="M31.8006 4.6031
L31.9821 4.6031
" />
<path d="M31.9821 4.6031
L32.1030 4.6636
" />
<path d="M32.1030 4.6636
L32.1635 4.7240
" />
<path d="M32.1635 4.7240
L32.2240 4.8450
" />
<path d="M32.2240 4.8450
L32.2240 5.1474
" />
<path d="M32.2240 5.1474
L32.1635 5.2683
" />
<path d="M32.1635 5.2683
L32.1030 5.3288
" />
<path d="M32.1030 5.3288
L31.9821 5.3893
" />
<path d="M31.9821 5.3893
L31.6192 5.3893
" />
<path d="M31.6192 5.3893
L31.4983 5.3288
" />
<path d="M31.4983 5.3288
L31.4378 5.2683
" />
<path d="M32.7683 5.2683
L32.8287 5.3288
" />
<path d="M32.8287 5.3288
L32.7683 5.3893
" />
<path d="M32.7683 5.3893
L32.7078 5.3288
" />
<path d="M32.7078 5.3288
L32.7683 5.2683
" />
<path d="M32.7683 5.2683
L32.7683 5.3893
" />
<path d="M33.9778 4.1193
L33.3730 4.1193
" />
<path d="M33.3730 4.1193
L33.3126 4.7240
" />
<path d="M33.3126 4.7240
L33.3730 4.6636
" />
<path d="M33.3730 4.6636
L33.4940 4.6031
" />
<path d="M33.4940 4.6031
L33.7964 4.6031
" />
<path d="M33.7964 4.6031
L33.9173 4.6636
" />
<path d="M33.9173 4.6636
L33.9778 4.7240
" />
<path d="M33.9778 4.7240
L34.0383 4.8450
" />
<path d="M34.0383 4.8450
L34.0383 5.1474
" />
<path d="M34.0383 5.1474
L33.9778 5.2683
" />
<path d="M33.9778 5.2683
L33.9173 5.3288
" />
<path d="M33.9173 5.3288
L33.7964 5.3893
" />
<path d="M33.7964 5.3893
L33.4940 5.3893
" />
<path d="M33.4940 5.3893
L33.3730 5.3288
" />
<path d="M33.3730 5.3288
L33.3126 5.2683
" />
<path d="M34.2802 5.5102
L35.2478 5.5102
" />
<path d="M36.2154 5.3893
L35.4897 5.3893
" />
<path d="M35.8526 5.3893
L35.8526 4.1193
" />
<path d="M35.8526 4.1193
L35.7316 4.3007
" />
<path d="M35.7316 4.3007
L35.6107 4.4217
" />
<path d="M35.6107 4.4217
L35.4897 4.4821
" />
<path d="M36.6387 5.3893
L37.3040 4.5426
" />
<path d="M36.6387 4.5426
L37.3040 5.3893
" />
<path d="M38.0297 4.1193
L38.1507 4.1193
" />
<path d="M38.1507 4.1193
L38.2716 4.1797
" />
<path d="M38.2716 4.1797
L38.3321 4.2402
" />
<path d="M38.3321 4.2402
L38.3926 4.3612
" />
<path d="M38.3926 4.3612
L38.4530 4.6031
" />
<path d="M38.4530 4.6031
L38.4530 4.9055
" />
<path d="M38.4530 4.9055
L38.3926 5.1474
" />
<path d="M38.3926 5.1474
L38.3321 5.2683
" />
<path d="M38.3321 5.2683
L38.2716 5.3288
" />
<path d="M38.2716 5.3288
L38.1507 5.3893
" />
<path d="M38.1507 5.3893
L38.0297 5.3893
" />
<path d="M38.0297 5.3893
L37.9087 5.3288
" />
<path d="M37.9087 5.3288
L37.8483 5.2683
" />
<path d="M37.8483 5.2683
L37.7878 5.1474
" />
<path d="M37.7878 5.1474
L37.7273 4.9055
" />
<path d="M37.7273 4.9055
L37.7273 4.6031
" />
<path d="M37.7273 4.6031
L37.7878 4.3612
" />
<path d="M37.7878 4.3612
L37.8483 4.2402
" />
<path d="M37.8483 4.2402
L37.9087 4.1797
" />
<path d="M37.9087 4.1797
L38.0297 4.1193
" />
<path d="M38.8764 4.1193
L39.6626 4.1193
" />
<path d="M39.6626 4.1193
L39.2392 4.6031
" />
<path d="M39.2392 4.6031
L39.4207 4.6031
" />
<path d="M39.4207 4.6031
L39.5416 4.6636
" />
<path d="M39.5416 4.6636
L39.6021 4.7240
" />
<path d="M39.6021 4.7240
L39.6626 4.8450
" />
<path d="M39.6626 4.8450
L39.6626 5.1474
" />
<path d="M39.6626 5.1474
L39.6021 5.2683
" />
<path d="M39.6021 5.2683
L39.5416 5.3288
" />
<path d="M39.5416 5.3288
L39.4207 5.3893
" />
<path d="M39.4207 5.3893
L39.0578 5.3893
" />
<path d="M39.0578 5.3893
L38.9368 5.3288
" />
<path d="M38.9368 5.3288
L38.8764 5.2683
" />
<path d="M39.9045 5.5102
L40.8721 5.5102
" />
<path d="M41.1745 5.3893
L41.1745 4.1193
" />
<path d="M41.1745 4.1193
L41.6583 4.1193
" />
<path d="M41.6583 4.1193
L41.7792 4.1797
" />
<path d="M41.7792 4.1797
L41.8397 4.2402
" />
<path d="M41.8397 4.2402
L41.9002 4.3612
" />
<path d="M41.9002 4.3612
L41.9002 4.5426
" />
<path d="M41.9002 4.5426
L41.8397 4.6636
" />
<path d="M41.8397 4.6636
L41.7792 4.7240
" />
<path d="M41.7792 4.7240
L41.6583 4.7845
" />
<path d="M41.6583 4.7845
L41.1745 4.7845
" />
<path d="M42.3235 4.1193
L43.1097 4.1193
" />
<path d="M43.1097 4.1193
L42.6864 4.6031
" />
<path d="M42.6864 4.6031
L42.8678 4.6031
" />
<path d="M42.8678 4.6031
L42.9887 4.6636
" />
<path d="M42.9887 4.6636
L43.0492 4.7240
" />
<path d="M43.0492 4.7240
L43.1097 4.8450
" />
<path d="M43.1097 4.8450
L43.1097 5.1474
" />
<path d="M43.1097 5.1474
L43.0492 5.2683
" />
<path d="M43.0492 5.2683
L42.9887 5.3288
" />
<path d="M42.9887 5.3288
L42.8678 5.3893
" />
<path d="M42.8678 5.3893
L42.5049 5.3893
" />
<path d="M42.5049 5.3893
L42.3840 5.3288
" />
<path d="M42.3840 5.3288
L42.3235 5.2683
" />
<path d="M43.6540 5.2683
L43.7145 5.3288
" />
<path d="M43.7145 5.3288
L43.6540 5.3893
" />
<path d="M43.6540 5.3893
L43.5935 5.3288
" />
<path d="M43.5935 5.3288
L43.6540 5.2683
" />
<path d="M43.6540 5.2683
L43.6540 5.3893
" />
<path d="M44.8635 4.1193
L44.2587 4.1193
" />
<path d="M44.2587 4.1193
L44.1983 4.7240
" />
<path d="M44.1983 4.7240
L44.2587 4.6636
" />
<path d="M44.2587 4.6636
L44.3797 4.6031
" />
<path d="M44.3797 4.6031
L44.6821 4.6031
" />
<path d="M44.6821 4.6031
L44.8030 4.6636
" />
<path d="M44.8030 4.6636
L44.8635 4.7240
" />
<path d="M44.8635 4.7240
L44.9240 4.8450
" />
<path d="M44.9240 4.8450
L44.9240 5.1474
" />
<path d="M44.9240 5.1474
L44.8635 5.2683
" />
<path d="M44.8635 5.2683
L44.8030 5.3288
" />
<path d="M44.8030 5.3288
L44.6821 5.3893
" />
<path d="M44.6821 5.3893
L44.3797 5.3893
" />
<path d="M44.3797 5.3893
L44.2587 5.3288
" />
<path d="M44.2587 5.3288
L44.1983 5.2683
" />
<path d="M45.7102 4.1193
L45.8311 4.1193
" />
<path d="M45.8311 4.1193
L45.9521 4.1797
" />
<path d="M45.9521 4.1797
L46.0126 4.2402
" />
<path d="M46.0126 4.2402
L46.0730 4.3612
" />
<path d="M46.0730 4.3612
L46.1335 4.6031
" />
<path d="M46.1335 4.6031
L46.1335 4.9055
" />
<path d="M46.1335 4.9055
L46.0730 5.1474
" />
<path d="M46.0730 5.1474
L46.0126 5.2683
" />
<path d="M46.0126 5.2683
L45.9521 5.3288
" />
<path d="M45.9521 5.3288
L45.8311 5.3893
" />
<path d="M45.8311 5.3893
L45.7102 5.3893
" />
<path d="M45.7102 5.3893
L45.5892 5.3288
" />
<path d="M45.5892 5.3288
L45.5287 5.2683
" />
<path d="M45.5287 5.2683
L45.4683 5.1474
" />
<path d="M45.4683 5.1474
L45.4078 4.9055
" />
<path d="M45.4078 4.9055
L45.4078 4.6031
" />
<path d="M45.4078 4.6031
L45.4683 4.3612
" />
<path d="M45.4683 4.3612
L45.5287 4.2402
" />
<path d="M45.5287 4.2402
L45.5892 4.1797
" />
<path d="M45.5892 4.1797
L45.7102 4.1193
" />
<path d="M46.6778 5.3893
L46.6778 4.5426
" />
<path d="M46.6778 4.6636
L46.7383 4.6031
" />
<path d="M46.7383 4.6031
L46.8592 4.5426
" />
<path d="M46.8592 4.5426
L47.0407 4.5426
" />
<path d="M47.0407 4.5426
L47.1616 4.6031
" />
<path d="M47.1616 4.6031
L47.2221 4.7240
" />
<path d="M47.2221 4.7240
L47.2221 5.3893
" />
<path d="M47.2221 4.7240
L47.2826 4.6031
" />
<path d="M47.2826 4.6031
L47.4035 4.5426
" />
<path d="M47.4035 4.5426
L47.5849 4.5426
" />
<path d="M47.5849 4.5426
L47.7059 4.6031
" />
<path d="M47.7059 4.6031
L47.7664 4.7240
" />
<path d="M47.7664 4.7240
L47.7664 5.3893
" />
<path d="M48.3711 5.3893
L48.3711 4.5426
" />
<path d="M48.3711 4.6636
L48.4316 4.6031
" />
<path d="M48.4316 4.6031
L48.5526 4.5426
" />
<path d="M48.5526 4.5426
L48.7340 4.5426
" />
<path d="M48.7340 4.5426
L48.8549 4.6031
" />
<path d="M48.8549 4.6031
L48.9154 4.7240
" />
<path d="M48.9154 4.7240
L48.9154 5.3893
" />
<path d="M48.9154 4.7240
L48.9759 4.6031
" />
<path d="M48.9759 4.6031
L49.0968 4.5426
" />
<path d="M49.0968 4.5426
L49.2783 4.5426
" />
<path d="M49.2783 4.5426
L49.3992 4.6031
" />
<path d="M49.3992 4.6031
L49.4597 4.7240
" />
<path d="M49.4597 4.7240
L49.4597 5.3893
" />
<path d="M49.7621 5.5102
L50.7297 5.5102
" />
<path d="M50.8506 4.1193
L51.2740 5.3893
" />
<path d="M51.2740 5.3893
L51.6973 4.1193
" />
<path d="M52.6045 5.3288
L52.4835 5.3893
" />
<path d="M52.4835 5.3893
L52.2416 5.3893
" />
<path d="M52.2416 5.3893
L52.1206 5.3288
" />
<path d="M52.1206 5.3288
L52.0602 5.2078
" />
<path d="M52.0602 5.2078
L52.0602 4.7240
" />
<path d="M52.0602 4.7240
L52.1206 4.6031
" />
<path d="M52.1206 4.6031
L52.2416 4.5426
" />
<path d="M52.2416 4.5426
L52.4835 4.5426
" />
<path d="M52.4835 4.5426
L52.6045 4.6031
" />
<path d="M52.6045 4.6031
L52.6649 4.7240
" />
<path d="M52.6649 4.7240
L52.6649 4.8450
" />
<path d="M52.6649 4.8450
L52.0602 4.9659
" />
<path d="M53.2092 5.3893
L53.2092 4.5426
" />
<path d="M53.2092 4.7845
L53.2697 4.6636
" />
<path d="M53.2697 4.6636
L53.3302 4.6031
" />
<path d="M53.3302 4.6031
L53.4511 4.5426
" />
<path d="M53.4511 4.5426
L53.5721 4.5426
" />
<path d="M53.8140 4.5426
L54.2978 4.5426
" />
<path d="M53.9954 4.1193
L53.9954 5.2078
" />
<path d="M53.9954 5.2078
L54.0559 5.3288
" />
<path d="M54.0559 5.3288
L54.1768 5.3893
" />
<path d="M54.1768 5.3893
L54.2978 5.3893
" />
<path d="M54.7211 5.3893
L54.7211 4.5426
" />
<path d="M54.7211 4.1193
L54.6606 4.1797
" />
<path d="M54.6606 4.1797
L54.7211 4.2402
" />
<path d="M54.7211 4.2402
L54.7816 4.1797
" />
<path d="M54.7816 4.1797
L54.7211 4.1193
" />
<path d="M54.7211 4.1193
L54.7211 4.2402
" />
<path d="M55.8702 5.3288
L55.7492 5.3893
" />
<path d="M55.7492 5.3893
L55.5073 5.3893
" />
<path d="M55.5073 5.3893
L55.3864 5.3288
" />
<path d="M55.3864 5.3288
L55.3259 5.2683
" />
<path d="M55.3259 5.2683
L55.2654 5.1474
" />
<path d="M55.2654 5.1474
L55.2654 4.7845
" />
<path d="M55.2654 4.7845
L55.3259 4.6636
" />
<path d="M55.3259 4.6636
L55.3864 4.6031
" />
<path d="M55.3864 4.6031
L55.5073 4.5426
" />
<path d="M55.5073 4.5426
L55.7492 4.5426
" />
<path d="M55.7492 4.5426
L55.8702 4.6031
" />
<path d="M56.9587 5.3893
L56.9587 4.7240
" />
<path d="M56.9587 4.7240
L56.8983 4.6031
" />
<path d="M56.8983 4.6031
L56.7773 4.5426
" />
<path d="M56.7773 4.5426
L56.5354 4.5426
" />
<path d="M56.5354 4.5426
L56.4145 4.6031
" />
<path d="M56.9587 5.3288
L56.8378 5.3893
" />
<path d="M56.8378 5.3893
L56.5354 5.3893
" />
<path d="M56.5354 5.3893
L56.4145 5.3288
" />
<path d="M56.4145 5.3288
L56.3540 5.2078
" />
<path d="M56.3540 5.2078
L56.3540 5.0869
" />
<path d="M56.3540 5.0869
L56.4145 4.9659
" />
<path d="M56.4145 4.9659
L56.5354 4.9055
" />
<path d="M56.5354 4.9055
L56.8378 4.9055
" />
<path d="M56.8378 4.9055
L56.9587 4.8450
" />
<path d="M57.7449 5.3893
L57.6240 5.3288
" />
<path d="M57.6240 5.3288
L57.5635 5.2078
" />
<path d="M57.5635 5.2078
L57.5635 4.1193
" />
<path d="M57.9264 5.5102
L58.8940 5.5102
" />
<path d="M59.0149 4.1193
L59.7406 4.1193
" />
<path d="M59.3778 5.3893
L59.3778 4.1193
" />
<path d="M60.1640 5.3893
L60.1640 4.1193
" />
<path d="M60.7083 5.3893
L60.7083 4.7240
" />
<path d="M60.7083 4.7240
L60.6478 4.6031
" />
<path d="M60.6478 4.6031
L60.5268 4.5426
" />
<path d="M60.5268 4.5426
L60.3454 4.5426
" />
<path d="M60.3454 4.5426
L60.2245 4.6031
" />
<path d="M60.2245 4.6031
L60.1640 4.6636
" />
<path d="M61.3130 5.3893
L61.3130 4.5426
" />
<path d="M61.3130 4.7845
L61.3735 4.6636
" />
<path d="M61.3735 4.6636
L61.4340 4.6031
" />
<path d="M61.4340 4.6031
L61.5549 4.5426
" />
<path d="M61.5549 4.5426
L61.6759 4.5426
" />
<path d="M62.5830 5.3288
L62.4621 5.3893
" />
<path d="M62.4621 5.3893
L62.2202 5.3893
" />
<path d="M62.2202 5.3893
L62.0992 5.3288
" />
<path d="M62.0992 5.3288
L62.0387 5.2078
" />
<path d="M62.0387 5.2078
L62.0387 4.7240
" />
<path d="M62.0387 4.7240
L62.0992 4.6031
" />
<path d="M62.0992 4.6031
L62.2202 4.5426
" />
<path d="M62.2202 4.5426
L62.4621 4.5426
" />
<path d="M62.4621 4.5426
L62.5830 4.6031
" />
<path d="M62.5830 4.6031
L62.6435 4.7240
" />
<path d="M62.6435 4.7240
L62.6435 4.8450
" />
<path d="M62.6435 4.8450
L62.0387 4.9659
" />
<path d="M63.7321 5.3893
L63.7321 4.7240
" />
<path d="M63.7321 4.7240
L63.6716 4.6031
" />
<path d="M63.6716 4.6031
L63.5506 4.5426
" />
<path d="M63.5506 4.5426
L63.3087 4.5426
" />
<path d="M63.3087 4.5426
L63.1878 4.6031
" />
<path d="M63.7321 5.3288
L63.6111 5.3893
" />
<path d="M63.6111 5.3893
L63.3087 5.3893
" />
<path d="M63.3087 5.3893
L63.1878 5.3288
" />
<path d="M63.1878 5.3288
L63.1273 5.2078
" />
<path d="M63.1273 5.2078
L63.1273 5.0869
" />
<path d="M63.1273 5.0869
L63.1878 4.9659
" />
<path d="M63.1878 4.9659
L63.3087 4.9055
" />
<path d="M63.3087 4.9055
L63.6111 4.9055
" />
<path d="M63.6111 4.9055
L63.7321 4.8450
" />
<path d="M64.8811 5.3893
L64.8811 4.1193
" />
<path d="M64.8811 5.3288
L64.7602 5.3893
" />
<path d="M64.7602 5.3893
L64.5183 5.3893
" />
<path d="M64.5183 5.3893
L64.3973 5.3288
" />
<path d="M64.3973 5.3288
L64.3368 5.2683
" />
<path d="M64.3368 5.2683
L64.2764 5.1474
" />
<path d="M64.2764 5.1474
L64.2764 4.7845
" />
<path d="M64.2764 4.7845
L64.3368 4.6636
" />
<path d="M64.3368 4.6636
L64.3973 4.6031
" />
<path d="M64.3973 4.6031
L64.5183 4.5426
" />
<path d="M64.5183 4.5426
L64.7602 4.5426
" />
<path d="M64.7602 4.5426
L64.8811 4.6031
" />
<path d="M65.9697 5.3288
L65.8487 5.3893
" />
<path d="M65.8487 5.3893
L65.6068 5.3893
" />
<path d="M65.6068 5.3893
L65.4859 5.3288
" />
<path d="M65.4859 5.3288
L65.4254 5.2078
" />
<path d="M65.4254 5.2078
L65.4254 4.7240
" />
<path d="M65.4254 4.7240
L65.4859 4.6031
" />
<path d="M65.4859 4.6031
L65.6068 4.5426
" />
<path d="M65.6068 4.5426
L65.8487 4.5426
" />
<path d="M65.8487 4.5426
L65.9697 4.6031
" />
<path d="M65.9697 4.6031
L66.0302 4.7240
" />
<path d="M66.0302 4.7240
L66.0302 4.8450
" />
<path d="M66.0302 4.8450
L65.4254 4.9659
" />
<path d="M67.1187 5.3893
L67.1187 4.1193
" />
<path d="M67.1187 5.3288
L66.9978 5.3893
" />
<path d="M66.9978 5.3893
L66.7559 5.3893
" />
<path d="M66.7559 5.3893
L66.6349 5.3288
" />
<path d="M66.6349 5.3288
L66.5745 5.2683
" />
<path d="M66.5745 5.2683
L66.5140 5.1474
" />
<path d="M66.5140 5.1474
L66.5140 4.7845
" />
<path d="M66.5140 4.7845
L66.5745 4.6636
" />
<path d="M66.5745 4.6636
L66.6349 4.6031
" />
<path d="M66.6349 4.6031
L66.7559 4.5426
" />
<path d="M66.7559 4.5426
L66.9978 4.5426
" />
<path d="M66.9978 4.5426
L67.1187 4.6031
" />
<path d="M68.1468 4.7240
L67.7235 4.7240
" />
<path d="M67.7235 5.3893
L67.7235 4.1193
" />
<path d="M67.7235 4.1193
L68.3283 4.1193
" />
<path d="M68.9935 5.3893
L68.8726 5.3288
" />
<path d="M68.8726 5.3288
L68.8121 5.2078
" />
<path d="M68.8121 5.2078
L68.8121 4.1193
" />
<path d="M70.0216 5.3893
L70.0216 4.7240
" />
<path d="M70.0216 4.7240
L69.9611 4.6031
" />
<path d="M69.9611 4.6031
L69.8402 4.5426
" />
<path d="M69.8402 4.5426
L69.5983 4.5426
" />
<path d="M69.5983 4.5426
L69.4773 4.6031
" />
<path d="M70.0216 5.3288
L69.9006 5.3893
" />
<path d="M69.9006 5.3893
L69.5983 5.3893
" />
<path d="M69.5983 5.3893
L69.4773 5.3288
" />
<path d="M69.4773 5.3288
L69.4168 5.2078
" />
<path d="M69.4168 5.2078
L69.4168 5.0869
" />
<path d="M69.4168 5.0869
L69.4773 4.9659
" />
<path d="M69.4773 4.9659
L69.5983 4.9055
" />
<path d="M69.5983 4.9055
L69.9006 4.9055
" />
<path d="M69.9006 4.9055
L70.0216 4.8450
" />
<path d="M70.6264 4.5426
L70.6264 5.3893
" />
<path d="M70.6264 4.6636
L70.6868 4.6031
" />
<path d="M70.6868 4.6031
L70.8078 4.5426
" />
<path d="M70.8078 4.5426
L70.9892 4.5426
" />
<path d="M70.9892 4.5426
L71.1102 4.6031
" />
<path d="M71.1102 4.6031
L71.1706 4.7240
" />
<path d="M71.1706 4.7240
L71.1706 5.3893
" />
<path d="M72.3197 4.5426
L72.3197 5.5707
" />
<path d="M72.3197 5.5707
L72.2592 5.6917
" />
<path d="M72.2592 5.6917
L72.1987 5.7521
" />
<path d="M72.1987 5.7521
L72.0778 5.8126
" />
<path d="M72.0778 5.8126
L71.8964 5.8126
" />
<path d="M71.8964 5.8126
L71.7754 5.7521
" />
<path d="M72.3197 5.3288
L72.1987 5.3893
" />
<path d="M72.1987 5.3893
L71.9568 5.3893
" />
<path d="M71.9568 5.3893
L71.8359 5.3288
" />
<path d="M71.8359 5.3288
L71.7754 5.2683
" />
<path d="M71.7754 5.2683
L71.7149 5.1474
" />
<path d="M71.7149 5.1474
L71.7149 4.7845
" />
<path d="M71.7149 4.7845
L71.7754 4.6636
" />
<path d="M71.7754 4.6636
L71.8359 4.6031
" />
<path d="M71.8359 4.6031
L71.9568 4.5426
" />
<path d="M71.9568 4.5426
L72.1987 4.5426
" />
<path d="M72.1987 4.5426
L72.3197 4.6031
" />
<path d="M73.4083 5.3288
L73.2873 5.3893
" />
<path d="M73.2873 5.3893
L73.0454 5.3893
" />
<path d="M73.0454 5.3893
L72.9245 5.3288
" />
<path d="M72.9245 5.3288
L72.8640 5.2078
" />
<path d="M72.8640 5.2078
L72.8640 4.7240
" />
<path d="M72.8640 4.7240
L72.9245 4.6031
" />
<path d="M72.9245 4.6031
L73.0454 4.5426
" />
<path d="M73.0454 4.5426
L73.2873 4.5426
" />
<path d="M73.2873 4.5426
L73.4083 4.6031
" />
<path d="M73.4083 4.6031
L73.4687 4.7240
" />
<path d="M73.4687 4.7240
L73.4687 4.8450
" />
<path d="M73.4687 4.8450
L72.8640 4.9659
" />
<path d="M73.7106 5.5102
L74.6783 5.5102
" />
<path d="M74.9806 5.3893
L74.9806 4.1193
" />
<path d="M74.9806 4.1193
L75.4040 5.0264
" />
<path d="M75.4040 5.0264
L75.8273 4.1193
" />
<path d="M75.8273 4.1193
L75.8273 5.3893
" />
<path d="M76.6135 5.3893
L76.4926 5.3288
" />
<path d="M76.4926 5.3288
L76.4321 5.2683
" />
<path d="M76.4321 5.2683
L76.3716 5.1474
" />
<path d="M76.3716 5.1474
L76.3716 4.7845
" />
<path d="M76.3716 4.7845
L76.4321 4.6636
" />
<path d="M76.4321 4.6636
L76.4926 4.6031
" />
<path d="M76.4926 4.6031
L76.6135 4.5426
" />
<path d="M76.6135 4.5426
L76.7949 4.5426
" />
<path d="M76.7949 4.5426
L76.9159 4.6031
" />
<path d="M76.9159 4.6031
L76.9764 4.6636
" />
<path d="M76.9764 4.6636
L77.0368 4.7845
" />
<path d="M77.0368 4.7845
L77.0368 5.1474
" />
<path d="M77.0368 5.1474
L76.9764 5.2683
" />
<path d="M76.9764 5.2683
L76.9159 5.3288
" />
<path d="M76.9159 5.3288
L76.7949 5.3893
" />
<path d="M76.7949 5.3893
L76.6135 5.3893
" />
<path d="M78.1254 4.5426
L78.1254 5.3893
" />
<path d="M77.5811 4.5426
L77.5811 5.2078
" />
<path d="M77.5811 5.2078
L77.6416 5.3288
" />
<path d="M77.6416 5.3288
L77.7626 5.3893
" />
<path d="M77.7626 5.3893
L77.9440 5.3893
" />
<path d="M77.9440 5.3893
L78.0649 5.3288
" />
<path d="M78.0649 5.3288
L78.1254 5.2683
" />
<path d="M78.7302 4.5426
L78.7302 5.3893
" />
<path d="M78.7302 4.6636
L78.7906 4.6031
" />
<path d="M78.7906 4.6031
L78.9116 4.5426
" />
<path d="M78.9116 4.5426
L79.0930 4.5426
" />
<path d="M79.0930 4.5426
L79.2140 4.6031
" />
<path d="M79.2140 4.6031
L79.2745 4.7240
" />
<path d="M79.2745 4.7240
L79.2745 5.3893
" />
<path d="M79.6978 4.5426
L80.1816 4.5426
" />
<path d="M79.8792 4.1193
L79.8792 5.2078
" />
<path d="M79.8792 5.2078
L79.9397 5.3288
" />
<path d="M79.9397 5.3288
L80.0606 5.3893
" />
<path d="M80.0606 5.3893
L80.1816 5.3893
" />
<path d="M80.6049 5.3893
L80.6049 4.1193
" />
<path d="M80.6049 4.7240
L81.3306 4.7240
" />
<path d="M81.3306 5.3893
L81.3306 4.1193
" />
<path d="M82.1168 5.3893
L81.9959 5.3288
" />
<path d="M81.9959 5.3288
L81.9354 5.2683
" />
<path d="M81.9354 5.2683
L81.8749 5.1474
" />
<path d="M81.8749 5.1474
L81.8749 4.7845
" />
<path d="M81.8749 4.7845
L81.9354 4.6636
" />
<path d="M81.9354 4.6636
L81.9959 4.6031
" />
<path d="M81.9959 4.6031
L82.1168 4.5426
" />
<path d="M82.1168 4.5426
L82.2983 4.5426
" />
<path d="M82.2983 4.5426
L82.4192 4.6031
" />
<path d="M82.4192 4.6031
L82.4797 4.6636
" />
<path d="M82.4797 4.6636
L82.5402 4.7845
" />
<path d="M82.5402 4.7845
L82.5402 5.1474
" />
<path d="M82.5402 5.1474
L82.4797 5.2683
" />
<path d="M82.4797 5.2683
L82.4192 5.3288
" />
<path d="M82.4192 5.3288
L82.2983 5.3893
" />
<path d="M82.2983 5.3893
L82.1168 5.3893
" />
<path d="M83.2659 5.3893
L83.1449 5.3288
" />
<path d="M83.1449 5.3288
L83.0845 5.2078
" />
<path d="M83.0845 5.2078
L83.0845 4.1193
" />
<path d="M84.2335 5.3288
L84.1126 5.3893
" />
<path d="M84.1126 5.3893
L83.8706 5.3893
" />
<path d="M83.8706 5.3893
L83.7497 5.3288
" />
<path d="M83.7497 5.3288
L83.6892 5.2078
" />
<path d="M83.6892 5.2078
L83.6892 4.7240
" />
<path d="M83.6892 4.7240
L83.7497 4.6031
" />
<path d="M83.7497 4.6031
L83.8706 4.5426
" />
<path d="M83.8706 4.5426
L84.1126 4.5426
" />
<path d="M84.1126 4.5426
L84.2335 4.6031
" />
<path d="M84.2335 4.6031
L84.2940 4.7240
" />
<path d="M84.2940 4.7240
L84.2940 4.8450
" />
<path d="M84.2940 4.8450
L83.6892 4.9659
" />
</g></g>
<g style="fill:none; 
stroke:#AFAFAF; stroke-width:0.1500; stroke-opacity:1; 
stroke-linecap:round; stroke-linejoin:round;">
<text x="45.8235" y="1.7600"
textLength="4.5357" font-size="1.3333" lengthAdjust="spacingAndGlyphs"
text-anchor="middle" opacity="0">REF**</text>
<g class="stroked-text"><desc>REF**</desc>
<path d="M44.4902 1.7148
L44.1568 1.2386
" />
<path d="M43.9187 1.7148
L43.9187 0.7148
" />
<path d="M43.9187 0.7148
L44.2997 0.7148
" />
<path d="M44.2997 0.7148
L44.3949 0.7624
" />
<path d="M44.3949 0.7624
L44.4426 0.8101
" />
<path d="M44.4426 0.8101
L44.4902 0.9053
" />
<path d="M44.4902 0.9053
L44.4902 1.0482
" />
<path d="M44.4902 1.0482
L44.4426 1.1434
" />
<path d="M44.4426 1.1434
L44.3949 1.1910
" />
<path d="M44.3949 1.1910
L44.2997 1.2386
" />
<path d="M44.2997 1.2386
L43.9187 1.2386
" />
<path d="M44.9187 1.1910
L45.2521 1.1910
" />
<path d="M45.3949 1.7148
L44.9187 1.7148
" />
<path d="M44.9187 1.7148
L44.9187 0.7148
" />
<path d="M44.9187 0.7148
L45.3949 0.7148
" />
<path d="M46.1568 1.1910
L45.8235 1.1910
" />
<path d="M45.8235 1.7148
L45.8235 0.7148
" />
<path d="M45.8235 0.7148
L46.2997 0.7148
" />
<path d="M46.8235 0.7148
L46.8235 0.9529
" />
<path d="M46.5854 0.8577
L46.8235 0.9529
" />
<path d="M46.8235 0.9529
L47.0616 0.8577
" />
<path d="M46.6806 1.1434
L46.8235 0.9529
" />
<path d="M46.8235 0.9529
L46.9664 1.1434
" />
<path d="M47.5854 0.7148
L47.5854 0.9529
" />
<path d="M47.3473 0.8577
L47.5854 0.9529
" />
<path d="M47.5854 0.9529
L47.8235 0.8577
" />
<path d="M47.4426 1.1434
L47.5854 0.9529
" />
<path d="M47.5854 0.9529
L47.7283 1.1434
" />
</g></g>
<g style="fill:none; 
stroke:#AFAFAF; stroke-width:0.1000; stroke-opacity:1; 
stroke-linecap:round; stroke-linejoin:round;">
<path d="M35.4235 1.8100
L35.4235 7.8100
" />
<path d="M35.4235 7.8100
L56.2235 7.8100
" />
<path d="M39.7235 0.0600
L41.7235 0.0600
" />
<path d="M39.7235 1.3100
L39.7235 0.0600
" />
<path d="M40.2235 0.5600
L40.2235 1.8100
" />
<path d="M40.2235 1.8100
L35.4235 1.8100
" />
<path d="M51.4235 0.5600
L40.2235 0.5600
" />
<path d="M51.4235 1.8100
L51.4235 0.5600
" />
<path d="M56.2235 1.8100
L51.4235 1.8100
" />
<path d="M56.2235 7.8100
L56.2235 1.8100
" />
</g> 
</svg>
