<?xml version="1.0" standalone="no"?>
 <!DOCTYPE svg PUBLIC "-//W3C//DTD SVG 1.1//EN" 
 "http://www.w3.org/Graphics/SVG/1.1/DTD/svg11.dtd"> 
<svg
  xmlns:svg="http://www.w3.org/2000/svg"
  xmlns="http://www.w3.org/2000/svg"
  xmlns:xlink="http://www.w3.org/1999/xlink"
  version="1.1"
  width="38.4048mm" height="13.1318mm" viewBox="0.0000 0.0000 38.4048 13.1318">
<title>SVG Image created as working-brd.svg date 2024/04/22 18:26:03 </title>
  <desc>Image generated by PCBNEW </desc>
<g style="fill:#000000; fill-opacity:1.0000;stroke:#000000; stroke-opacity:1.0000;
stroke-linecap:round; stroke-linejoin:round;"
 transform="translate(0 0) scale(1 1)">
</g>
<g style="fill:#FFFFFF; fill-opacity:1.0000; stroke:none;">
<circle cx="32.1459" cy="2.8600" r="0.7500" /> 
</g>
<g style="fill:#FFFFFF; fill-opacity:1.0000; stroke:none;">
<circle cx="28.6459" cy="10.3600" r="0.7500" /> 
</g>
<g style="fill:#FFFFFF; fill-opacity:1.0000; stroke:none;">
<circle cx="35.6459" cy="10.3600" r="0.7500" /> 
</g>
<g style="fill:#FFFFFF; fill-opacity:1.0000; stroke:none;">
<circle cx="12.1459" cy="2.8600" r="0.7500" /> 
</g>
<g style="fill:#FFFFFF; fill-opacity:1.0000; stroke:none;">
<circle cx="12.1459" cy="10.3600" r="0.7500" /> 
</g>
<g style="fill:#02FFEE; fill-opacity:0.4000; stroke:none;">
<circle cx="32.1459" cy="2.8600" r="1.5000" /> 
</g>
<g style="fill:#02FFEE; fill-opacity:0.4000; stroke:none;">
<circle cx="28.6459" cy="10.3600" r="1.5000" /> 
</g>
<g style="fill:#02FFEE; fill-opacity:0.4000; stroke:none;">
<circle cx="35.6459" cy="10.3600" r="1.5000" /> 
<path style="fill:#02FFEE; fill-opacity:0.4000; stroke:none;fill-rule:evenodd;"
d="M 10.6459,4.3600
10.6459,1.3600
13.6459,1.3600
13.6459,4.3600
Z" /> 
</g>
<g style="fill:#02FFEE; fill-opacity:0.4000; stroke:none;">
<circle cx="12.1459" cy="10.3600" r="1.5000" /> 
</g>
<g style="fill:#FFFFFF; fill-opacity:1.0000; stroke:none;">
<circle cx="32.1459" cy="2.8600" r="0.7500" /> 
</g>
<g style="fill:#FFFFFF; fill-opacity:1.0000; stroke:none;">
<circle cx="28.6459" cy="10.3600" r="0.7500" /> 
</g>
<g style="fill:#FFFFFF; fill-opacity:1.0000; stroke:none;">
<circle cx="35.6459" cy="10.3600" r="0.7500" /> 
</g>
<g style="fill:#FFFFFF; fill-opacity:1.0000; stroke:none;">
<circle cx="12.1459" cy="2.8600" r="0.7500" /> 
</g>
<g style="fill:#FFFFFF; fill-opacity:1.0000; stroke:none;">
<circle cx="12.1459" cy="10.3600" r="0.7500" /> 
</g>
<g style="fill:#FFFFFF; fill-opacity:1.0000; stroke:none;">
<circle cx="32.1459" cy="2.8600" r="0.7500" /> 
</g>
<g style="fill:#FFFFFF; fill-opacity:1.0000; stroke:none;">
<circle cx="28.6459" cy="10.3600" r="0.7500" /> 
</g>
<g style="fill:#FFFFFF; fill-opacity:1.0000; stroke:none;">
<circle cx="35.6459" cy="10.3600" r="0.7500" /> 
</g>
<g style="fill:#FFFFFF; fill-opacity:1.0000; stroke:none;">
<circle cx="12.1459" cy="2.8600" r="0.7500" /> 
</g>
<g style="fill:#FFFFFF; fill-opacity:1.0000; stroke:none;">
<circle cx="12.1459" cy="10.3600" r="0.7500" /> 
</g>
<g style="fill:#D864FF; fill-opacity:0.4000; stroke:none;">
<circle cx="32.1459" cy="2.8600" r="1.5000" /> 
</g>
<g style="fill:#D864FF; fill-opacity:0.4000; stroke:none;">
<circle cx="28.6459" cy="10.3600" r="1.5000" /> 
</g>
<g style="fill:#D864FF; fill-opacity:0.4000; stroke:none;">
<circle cx="35.6459" cy="10.3600" r="1.5000" /> 
<path style="fill:#D864FF; fill-opacity:0.4000; stroke:none;fill-rule:evenodd;"
d="M 10.6459,4.3600
10.6459,1.3600
13.6459,1.3600
13.6459,4.3600
Z" /> 
</g>
<g style="fill:#D864FF; fill-opacity:0.4000; stroke:none;">
<circle cx="12.1459" cy="10.3600" r="1.5000" /> 
</g>
<g style="fill:none; 
stroke:#F2EDA1; stroke-width:0.1588; stroke-opacity:1; 
stroke-linecap:round; stroke-linejoin:round;">
<text x="12.1459" y="3.4950"
textLength="5.6651" font-size="1.6933" lengthAdjust="spacingAndGlyphs"
text-anchor="middle" opacity="0">REF**</text>
<g class="stroked-text"><desc>REF**</desc>
<path d="M10.4526 3.4393
L10.0292 2.8345
" />
<path d="M9.7268 3.4393
L9.7268 2.1693
" />
<path d="M9.7268 2.1693
L10.2106 2.1693
" />
<path d="M10.2106 2.1693
L10.3316 2.2297
" />
<path d="M10.3316 2.2297
L10.3921 2.2902
" />
<path d="M10.3921 2.2902
L10.4526 2.4112
" />
<path d="M10.4526 2.4112
L10.4526 2.5926
" />
<path d="M10.4526 2.5926
L10.3921 2.7136
" />
<path d="M10.3921 2.7136
L10.3316 2.7740
" />
<path d="M10.3316 2.7740
L10.2106 2.8345
" />
<path d="M10.2106 2.8345
L9.7268 2.8345
" />
<path d="M10.9968 2.7740
L11.4202 2.7740
" />
<path d="M11.6016 3.4393
L10.9968 3.4393
" />
<path d="M10.9968 3.4393
L10.9968 2.1693
" />
<path d="M10.9968 2.1693
L11.6016 2.1693
" />
<path d="M12.5692 2.7740
L12.1459 2.7740
" />
<path d="M12.1459 3.4393
L12.1459 2.1693
" />
<path d="M12.1459 2.1693
L12.7506 2.1693
" />
<path d="M13.4159 2.1693
L13.4159 2.4717
" />
<path d="M13.1135 2.3507
L13.4159 2.4717
" />
<path d="M13.4159 2.4717
L13.7183 2.3507
" />
<path d="M13.2345 2.7136
L13.4159 2.4717
" />
<path d="M13.4159 2.4717
L13.5973 2.7136
" />
<path d="M14.3835 2.1693
L14.3835 2.4717
" />
<path d="M14.0811 2.3507
L14.3835 2.4717
" />
<path d="M14.3835 2.4717
L14.6859 2.3507
" />
<path d="M14.2021 2.7136
L14.3835 2.4717
" />
<path d="M14.3835 2.4717
L14.5649 2.7136
" />
</g></g>
<g style="fill:none; 
stroke:#F2EDA1; stroke-width:0.1200; stroke-opacity:1; 
stroke-linecap:round; stroke-linejoin:round;">
<path d="M8.8459 2.4600
L8.8459 0.0600
" />
<path d="M9.0459 0.2600
L38.2459 0.2600
" />
<path d="M9.0459 12.9600
L9.0459 0.2600
" />
<path d="M11.2459 0.0600
L8.8459 0.0600
" />
<path d="M14.6859 2.8600
L15.9559 2.8600
" />
<path d="M14.6859 4.1300
L15.9559 4.1300
" />
<path d="M14.6859 5.4000
L17.2259 6.6700
" />
<path d="M14.6859 9.2100
L14.6859 4.1300
" />
<path d="M15.9559 2.8600
L15.9559 4.1300
" />
<path d="M15.9559 4.1300
L17.2259 4.1300
" />
<path d="M15.9559 9.2100
L15.9559 10.4800
" />
<path d="M15.9559 10.4800
L14.6859 10.4800
" />
<path d="M17.2259 4.1300
L17.2259 9.2100
" />
<path d="M17.2259 9.2100
L14.6859 9.2100
" />
<path d="M38.2459 0.2600
L38.2459 12.9600
" />
<path d="M38.2459 12.9600
L9.0459 12.9600
" />
</g>
<g style="fill:#FFFFFF; fill-opacity:1.0000; stroke:none;">
<circle cx="32.1459" cy="2.8600" r="0.7500" /> 
</g>
<g style="fill:#FFFFFF; fill-opacity:1.0000; stroke:none;">
<circle cx="28.6459" cy="10.3600" r="0.7500" /> 
</g>
<g style="fill:#FFFFFF; fill-opacity:1.0000; stroke:none;">
<circle cx="35.6459" cy="10.3600" r="0.7500" /> 
</g>
<g style="fill:#FFFFFF; fill-opacity:1.0000; stroke:none;">
<circle cx="12.1459" cy="2.8600" r="0.7500" /> 
</g>
<g style="fill:#FFFFFF; fill-opacity:1.0000; stroke:none;">
<circle cx="12.1459" cy="10.3600" r="0.7500" /> 
</g>
<g style="fill:none; 
stroke:#FF26E2; stroke-width:0.0500; stroke-opacity:1; 
stroke-linecap:round; stroke-linejoin:round;">
<path d="M8.8959 0.1100
L8.8959 13.1100
" />
<path d="M8.8959 0.1100
L38.3959 0.1100
" />
<path d="M38.3959 13.1100
L8.8959 13.1100
" />
<path d="M38.3959 13.1100
L38.3959 0.1100
" />
</g>
<g style="fill:none; 
stroke:#AFAFAF; stroke-width:0.1588; stroke-opacity:1; 
stroke-linecap:round; stroke-linejoin:round;">
<text x="12.1459" y="3.4950"
textLength="24.2918" font-size="1.6933" lengthAdjust="spacingAndGlyphs"
text-anchor="middle" opacity="0">Relay_SPDT_Finder_40.31</text>
<g class="stroked-text"><desc>Relay_SPDT_Finder_40.31</desc>
<path d="M1.1392 3.4393
L0.7159 2.8345
" />
<path d="M0.4135 3.4393
L0.4135 2.1693
" />
<path d="M0.4135 2.1693
L0.8973 2.1693
" />
<path d="M0.8973 2.1693
L1.0183 2.2297
" />
<path d="M1.0183 2.2297
L1.0787 2.2902
" />
<path d="M1.0787 2.2902
L1.1392 2.4112
" />
<path d="M1.1392 2.4112
L1.1392 2.5926
" />
<path d="M1.1392 2.5926
L1.0787 2.7136
" />
<path d="M1.0787 2.7136
L1.0183 2.7740
" />
<path d="M1.0183 2.7740
L0.8973 2.8345
" />
<path d="M0.8973 2.8345
L0.4135 2.8345
" />
<path d="M2.1673 3.3788
L2.0464 3.4393
" />
<path d="M2.0464 3.4393
L1.8045 3.4393
" />
<path d="M1.8045 3.4393
L1.6835 3.3788
" />
<path d="M1.6835 3.3788
L1.6230 3.2578
" />
<path d="M1.6230 3.2578
L1.6230 2.7740
" />
<path d="M1.6230 2.7740
L1.6835 2.6531
" />
<path d="M1.6835 2.6531
L1.8045 2.5926
" />
<path d="M1.8045 2.5926
L2.0464 2.5926
" />
<path d="M2.0464 2.5926
L2.1673 2.6531
" />
<path d="M2.1673 2.6531
L2.2278 2.7740
" />
<path d="M2.2278 2.7740
L2.2278 2.8950
" />
<path d="M2.2278 2.8950
L1.6230 3.0159
" />
<path d="M2.9535 3.4393
L2.8326 3.3788
" />
<path d="M2.8326 3.3788
L2.7721 3.2578
" />
<path d="M2.7721 3.2578
L2.7721 2.1693
" />
<path d="M3.9816 3.4393
L3.9816 2.7740
" />
<path d="M3.9816 2.7740
L3.9211 2.6531
" />
<path d="M3.9211 2.6531
L3.8002 2.5926
" />
<path d="M3.8002 2.5926
L3.5583 2.5926
" />
<path d="M3.5583 2.5926
L3.4373 2.6531
" />
<path d="M3.9816 3.3788
L3.8606 3.4393
" />
<path d="M3.8606 3.4393
L3.5583 3.4393
" />
<path d="M3.5583 3.4393
L3.4373 3.3788
" />
<path d="M3.4373 3.3788
L3.3768 3.2578
" />
<path d="M3.3768 3.2578
L3.3768 3.1369
" />
<path d="M3.3768 3.1369
L3.4373 3.0159
" />
<path d="M3.4373 3.0159
L3.5583 2.9555
" />
<path d="M3.5583 2.9555
L3.8606 2.9555
" />
<path d="M3.8606 2.9555
L3.9816 2.8950
" />
<path d="M4.4654 2.5926
L4.7678 3.4393
" />
<path d="M5.0702 2.5926
L4.7678 3.4393
" />
<path d="M4.7678 3.4393
L4.6468 3.7417
" />
<path d="M4.6468 3.7417
L4.5864 3.8021
" />
<path d="M4.5864 3.8021
L4.4654 3.8626
" />
<path d="M5.2516 3.5602
L6.2192 3.5602
" />
<path d="M6.4611 3.3788
L6.6426 3.4393
" />
<path d="M6.6426 3.4393
L6.9449 3.4393
" />
<path d="M6.9449 3.4393
L7.0659 3.3788
" />
<path d="M7.0659 3.3788
L7.1264 3.3183
" />
<path d="M7.1264 3.3183
L7.1868 3.1974
" />
<path d="M7.1868 3.1974
L7.1868 3.0764
" />
<path d="M7.1868 3.0764
L7.1264 2.9555
" />
<path d="M7.1264 2.9555
L7.0659 2.8950
" />
<path d="M7.0659 2.8950
L6.9449 2.8345
" />
<path d="M6.9449 2.8345
L6.7030 2.7740
" />
<path d="M6.7030 2.7740
L6.5821 2.7136
" />
<path d="M6.5821 2.7136
L6.5216 2.6531
" />
<path d="M6.5216 2.6531
L6.4611 2.5321
" />
<path d="M6.4611 2.5321
L6.4611 2.4112
" />
<path d="M6.4611 2.4112
L6.5216 2.2902
" />
<path d="M6.5216 2.2902
L6.5821 2.2297
" />
<path d="M6.5821 2.2297
L6.7030 2.1693
" />
<path d="M6.7030 2.1693
L7.0054 2.1693
" />
<path d="M7.0054 2.1693
L7.1868 2.2297
" />
<path d="M7.7311 3.4393
L7.7311 2.1693
" />
<path d="M7.7311 2.1693
L8.2149 2.1693
" />
<path d="M8.2149 2.1693
L8.3359 2.2297
" />
<path d="M8.3359 2.2297
L8.3964 2.2902
" />
<path d="M8.3964 2.2902
L8.4568 2.4112
" />
<path d="M8.4568 2.4112
L8.4568 2.5926
" />
<path d="M8.4568 2.5926
L8.3964 2.7136
" />
<path d="M8.3964 2.7136
L8.3359 2.7740
" />
<path d="M8.3359 2.7740
L8.2149 2.8345
" />
<path d="M8.2149 2.8345
L7.7311 2.8345
" />
<path d="M9.0011 3.4393
L9.0011 2.1693
" />
<path d="M9.0011 2.1693
L9.3035 2.1693
" />
<path d="M9.3035 2.1693
L9.4849 2.2297
" />
<path d="M9.4849 2.2297
L9.6059 2.3507
" />
<path d="M9.6059 2.3507
L9.6664 2.4717
" />
<path d="M9.6664 2.4717
L9.7268 2.7136
" />
<path d="M9.7268 2.7136
L9.7268 2.8950
" />
<path d="M9.7268 2.8950
L9.6664 3.1369
" />
<path d="M9.6664 3.1369
L9.6059 3.2578
" />
<path d="M9.6059 3.2578
L9.4849 3.3788
" />
<path d="M9.4849 3.3788
L9.3035 3.4393
" />
<path d="M9.3035 3.4393
L9.0011 3.4393
" />
<path d="M10.0897 2.1693
L10.8154 2.1693
" />
<path d="M10.4526 3.4393
L10.4526 2.1693
" />
<path d="M10.9364 3.5602
L11.9040 3.5602
" />
<path d="M12.6297 2.7740
L12.2064 2.7740
" />
<path d="M12.2064 3.4393
L12.2064 2.1693
" />
<path d="M12.2064 2.1693
L12.8111 2.1693
" />
<path d="M13.2949 3.4393
L13.2949 2.5926
" />
<path d="M13.2949 2.1693
L13.2345 2.2297
" />
<path d="M13.2345 2.2297
L13.2949 2.2902
" />
<path d="M13.2949 2.2902
L13.3554 2.2297
" />
<path d="M13.3554 2.2297
L13.2949 2.1693
" />
<path d="M13.2949 2.1693
L13.2949 2.2902
" />
<path d="M13.8997 2.5926
L13.8997 3.4393
" />
<path d="M13.8997 2.7136
L13.9602 2.6531
" />
<path d="M13.9602 2.6531
L14.0811 2.5926
" />
<path d="M14.0811 2.5926
L14.2626 2.5926
" />
<path d="M14.2626 2.5926
L14.3835 2.6531
" />
<path d="M14.3835 2.6531
L14.4440 2.7740
" />
<path d="M14.4440 2.7740
L14.4440 3.4393
" />
<path d="M15.5930 3.4393
L15.5930 2.1693
" />
<path d="M15.5930 3.3788
L15.4721 3.4393
" />
<path d="M15.4721 3.4393
L15.2302 3.4393
" />
<path d="M15.2302 3.4393
L15.1092 3.3788
" />
<path d="M15.1092 3.3788
L15.0487 3.3183
" />
<path d="M15.0487 3.3183
L14.9883 3.1974
" />
<path d="M14.9883 3.1974
L14.9883 2.8345
" />
<path d="M14.9883 2.8345
L15.0487 2.7136
" />
<path d="M15.0487 2.7136
L15.1092 2.6531
" />
<path d="M15.1092 2.6531
L15.2302 2.5926
" />
<path d="M15.2302 2.5926
L15.4721 2.5926
" />
<path d="M15.4721 2.5926
L15.5930 2.6531
" />
<path d="M16.6816 3.3788
L16.5606 3.4393
" />
<path d="M16.5606 3.4393
L16.3187 3.4393
" />
<path d="M16.3187 3.4393
L16.1978 3.3788
" />
<path d="M16.1978 3.3788
L16.1373 3.2578
" />
<path d="M16.1373 3.2578
L16.1373 2.7740
" />
<path d="M16.1373 2.7740
L16.1978 2.6531
" />
<path d="M16.1978 2.6531
L16.3187 2.5926
" />
<path d="M16.3187 2.5926
L16.5606 2.5926
" />
<path d="M16.5606 2.5926
L16.6816 2.6531
" />
<path d="M16.6816 2.6531
L16.7421 2.7740
" />
<path d="M16.7421 2.7740
L16.7421 2.8950
" />
<path d="M16.7421 2.8950
L16.1373 3.0159
" />
<path d="M17.2864 3.4393
L17.2864 2.5926
" />
<path d="M17.2864 2.8345
L17.3468 2.7136
" />
<path d="M17.3468 2.7136
L17.4073 2.6531
" />
<path d="M17.4073 2.6531
L17.5283 2.5926
" />
<path d="M17.5283 2.5926
L17.6492 2.5926
" />
<path d="M17.7702 3.5602
L18.7378 3.5602
" />
<path d="M19.5845 2.5926
L19.5845 3.4393
" />
<path d="M19.2821 2.1088
L18.9797 3.0159
" />
<path d="M18.9797 3.0159
L19.7659 3.0159
" />
<path d="M20.4916 2.1693
L20.6126 2.1693
" />
<path d="M20.6126 2.1693
L20.7335 2.2297
" />
<path d="M20.7335 2.2297
L20.7940 2.2902
" />
<path d="M20.7940 2.2902
L20.8545 2.4112
" />
<path d="M20.8545 2.4112
L20.9149 2.6531
" />
<path d="M20.9149 2.6531
L20.9149 2.9555
" />
<path d="M20.9149 2.9555
L20.8545 3.1974
" />
<path d="M20.8545 3.1974
L20.7940 3.3183
" />
<path d="M20.7940 3.3183
L20.7335 3.3788
" />
<path d="M20.7335 3.3788
L20.6126 3.4393
" />
<path d="M20.6126 3.4393
L20.4916 3.4393
" />
<path d="M20.4916 3.4393
L20.3706 3.3788
" />
<path d="M20.3706 3.3788
L20.3102 3.3183
" />
<path d="M20.3102 3.3183
L20.2497 3.1974
" />
<path d="M20.2497 3.1974
L20.1892 2.9555
" />
<path d="M20.1892 2.9555
L20.1892 2.6531
" />
<path d="M20.1892 2.6531
L20.2497 2.4112
" />
<path d="M20.2497 2.4112
L20.3102 2.2902
" />
<path d="M20.3102 2.2902
L20.3706 2.2297
" />
<path d="M20.3706 2.2297
L20.4916 2.1693
" />
<path d="M21.4592 3.3183
L21.5197 3.3788
" />
<path d="M21.5197 3.3788
L21.4592 3.4393
" />
<path d="M21.4592 3.4393
L21.3987 3.3788
" />
<path d="M21.3987 3.3788
L21.4592 3.3183
" />
<path d="M21.4592 3.3183
L21.4592 3.4393
" />
<path d="M21.9430 2.1693
L22.7292 2.1693
" />
<path d="M22.7292 2.1693
L22.3059 2.6531
" />
<path d="M22.3059 2.6531
L22.4873 2.6531
" />
<path d="M22.4873 2.6531
L22.6083 2.7136
" />
<path d="M22.6083 2.7136
L22.6687 2.7740
" />
<path d="M22.6687 2.7740
L22.7292 2.8950
" />
<path d="M22.7292 2.8950
L22.7292 3.1974
" />
<path d="M22.7292 3.1974
L22.6687 3.3183
" />
<path d="M22.6687 3.3183
L22.6083 3.3788
" />
<path d="M22.6083 3.3788
L22.4873 3.4393
" />
<path d="M22.4873 3.4393
L22.1245 3.4393
" />
<path d="M22.1245 3.4393
L22.0035 3.3788
" />
<path d="M22.0035 3.3788
L21.9430 3.3183
" />
<path d="M23.9387 3.4393
L23.2130 3.4393
" />
<path d="M23.5759 3.4393
L23.5759 2.1693
" />
<path d="M23.5759 2.1693
L23.4549 2.3507
" />
<path d="M23.4549 2.3507
L23.3340 2.4717
" />
<path d="M23.3340 2.4717
L23.2130 2.5321
" />
</g></g>
<g style="fill:none; 
stroke:#AFAFAF; stroke-width:0.1500; stroke-opacity:1; 
stroke-linecap:round; stroke-linejoin:round;">
<text x="24.2109" y="7.1700"
textLength="4.5357" font-size="1.3333" lengthAdjust="spacingAndGlyphs"
text-anchor="middle" opacity="0">REF**</text>
<g class="stroked-text"><desc>REF**</desc>
<path d="M22.8776 7.1248
L22.5442 6.6486
" />
<path d="M22.3061 7.1248
L22.3061 6.1248
" />
<path d="M22.3061 6.1248
L22.6871 6.1248
" />
<path d="M22.6871 6.1248
L22.7823 6.1724
" />
<path d="M22.7823 6.1724
L22.8299 6.2201
" />
<path d="M22.8299 6.2201
L22.8776 6.3153
" />
<path d="M22.8776 6.3153
L22.8776 6.4582
" />
<path d="M22.8776 6.4582
L22.8299 6.5534
" />
<path d="M22.8299 6.5534
L22.7823 6.6010
" />
<path d="M22.7823 6.6010
L22.6871 6.6486
" />
<path d="M22.6871 6.6486
L22.3061 6.6486
" />
<path d="M23.3061 6.6010
L23.6395 6.6010
" />
<path d="M23.7823 7.1248
L23.3061 7.1248
" />
<path d="M23.3061 7.1248
L23.3061 6.1248
" />
<path d="M23.3061 6.1248
L23.7823 6.1248
" />
<path d="M24.5442 6.6010
L24.2109 6.6010
" />
<path d="M24.2109 7.1248
L24.2109 6.1248
" />
<path d="M24.2109 6.1248
L24.6871 6.1248
" />
<path d="M25.2109 6.1248
L25.2109 6.3629
" />
<path d="M24.9728 6.2677
L25.2109 6.3629
" />
<path d="M25.2109 6.3629
L25.4490 6.2677
" />
<path d="M25.0680 6.5534
L25.2109 6.3629
" />
<path d="M25.2109 6.3629
L25.3537 6.5534
" />
<path d="M25.9728 6.1248
L25.9728 6.3629
" />
<path d="M25.7347 6.2677
L25.9728 6.3629
" />
<path d="M25.9728 6.3629
L26.2109 6.2677
" />
<path d="M25.8299 6.5534
L25.9728 6.3629
" />
<path d="M25.9728 6.3629
L26.1156 6.5534
" />
</g></g>
<g style="fill:none; 
stroke:#AFAFAF; stroke-width:0.1200; stroke-opacity:1; 
stroke-linecap:round; stroke-linejoin:round;">
<path d="M9.1459 1.4600
L9.1459 12.8600
" />
<path d="M9.1459 12.8600
L38.1459 12.8600
" />
<path d="M10.1459 0.3600
L9.1459 1.4600
" />
<path d="M12.1459 4.6600
L12.1459 8.6600
" />
<path d="M38.1459 0.3600
L10.1459 0.3600
" />
<path d="M38.1459 12.8600
L38.1459 0.3600
" />
</g> 
</svg>
