<?xml version="1.0" standalone="no"?>
 <!DOCTYPE svg PUBLIC "-//W3C//DTD SVG 1.1//EN" 
 "http://www.w3.org/Graphics/SVG/1.1/DTD/svg11.dtd"> 
<svg
  xmlns:svg="http://www.w3.org/2000/svg"
  xmlns="http://www.w3.org/2000/svg"
  xmlns:xlink="http://www.w3.org/1999/xlink"
  version="1.1"
  width="18.5928mm" height="2.0320mm" viewBox="0.0000 0.0000 18.5928 2.0320">
<title>SVG Image created as working-brd.svg date 2024/04/06 20:44:25 </title>
  <desc>Image generated by PCBNEW </desc>
<g style="fill:#000000; fill-opacity:1.0000;stroke:#000000; stroke-opacity:1.0000;
stroke-linecap:round; stroke-linejoin:round;"
 transform="translate(0 0) scale(1 1)">
<path style="fill:#C83434; fill-opacity:1.0000; stroke:none;fill-rule:evenodd;"
d="M 8.7535,0.9216
8.7611,0.8833
8.7828,0.8508
8.8152,0.8292
8.8535,0.8216
9.1135,0.8216
9.1518,0.8292
9.1842,0.8508
9.2059,0.8833
9.2135,0.9216
9.2135,1.1216
9.2059,1.1598
9.1842,1.1923
9.1518,1.2139
9.1135,1.2216
8.8535,1.2216
8.8152,1.2139
8.7828,1.1923
8.7611,1.1598
8.7535,1.1216
Z" /> 
<path style="fill:#C83434; fill-opacity:1.0000; stroke:none;fill-rule:evenodd;"
d="M 9.3935,0.9216
9.4011,0.8833
9.4228,0.8508
9.4552,0.8292
9.4935,0.8216
9.7535,0.8216
9.7918,0.8292
9.8242,0.8508
9.8459,0.8833
9.8535,0.9216
9.8535,1.1216
9.8459,1.1598
9.8242,1.1923
9.7918,1.2139
9.7535,1.2216
9.4935,1.2216
9.4552,1.2139
9.4228,1.1923
9.4011,1.1598
9.3935,1.1216
Z" /> 
<path style="fill:#D864FF; fill-opacity:0.4000; stroke:none;fill-rule:evenodd;"
d="M 8.7535,0.9216
8.7611,0.8833
8.7828,0.8508
8.8152,0.8292
8.8535,0.8216
9.1135,0.8216
9.1518,0.8292
9.1842,0.8508
9.2059,0.8833
9.2135,0.9216
9.2135,1.1216
9.2059,1.1598
9.1842,1.1923
9.1518,1.2139
9.1135,1.2216
8.8535,1.2216
8.8152,1.2139
8.7828,1.1923
8.7611,1.1598
8.7535,1.1216
Z" /> 
<path style="fill:#D864FF; fill-opacity:0.4000; stroke:none;fill-rule:evenodd;"
d="M 9.3935,0.9216
9.4011,0.8833
9.4228,0.8508
9.4552,0.8292
9.4935,0.8216
9.7535,0.8216
9.7918,0.8292
9.8242,0.8508
9.8459,0.8833
9.8535,0.9216
9.8535,1.1216
9.8459,1.1598
9.8242,1.1923
9.7918,1.2139
9.7535,1.2216
9.4935,1.2216
9.4552,1.2139
9.4228,1.1923
9.4011,1.1598
9.3935,1.1216
Z" /> 
<path style="fill:#B4A09A; fill-opacity:0.9000; stroke:none;fill-rule:evenodd;"
d="M 8.7995,0.9211
8.8056,0.8906
8.8228,0.8648
8.8486,0.8476
8.8790,0.8416
9.0380,0.8416
9.0684,0.8476
9.0942,0.8648
9.1115,0.8906
9.1175,0.9211
9.1175,1.1221
9.1115,1.1525
9.0942,1.1783
9.0684,1.1955
9.0380,1.2016
8.8790,1.2016
8.8486,1.1955
8.8228,1.1783
8.8056,1.1525
8.7995,1.1221
Z" /> 
<path style="fill:#B4A09A; fill-opacity:0.9000; stroke:none;fill-rule:evenodd;"
d="M 9.4895,0.9211
9.4956,0.8906
9.5128,0.8648
9.5386,0.8476
9.5690,0.8416
9.7280,0.8416
9.7584,0.8476
9.7842,0.8648
9.8015,0.8906
9.8075,0.9211
9.8075,1.1221
9.8015,1.1525
9.7842,1.1783
9.7584,1.1955
9.7280,1.2016
9.5690,1.2016
9.5386,1.1955
9.5128,1.1783
9.4956,1.1525
9.4895,1.1221
Z" /> 
</g>
<g style="fill:none; 
stroke:#F2EDA1; stroke-width:0.1588; stroke-opacity:1; 
stroke-linecap:round; stroke-linejoin:round;">
<text x="9.3035" y="1.6566"
textLength="5.6651" font-size="1.6933" lengthAdjust="spacingAndGlyphs"
text-anchor="middle" opacity="0">REF**</text>
<g class="stroked-text"><desc>REF**</desc>
<path d="M7.6102 1.6008
L7.1868 0.9961
" />
<path d="M6.8845 1.6008
L6.8845 0.3308
" />
<path d="M6.8845 0.3308
L7.3683 0.3308
" />
<path d="M7.3683 0.3308
L7.4892 0.3913
" />
<path d="M7.4892 0.3913
L7.5497 0.4518
" />
<path d="M7.5497 0.4518
L7.6102 0.5727
" />
<path d="M7.6102 0.5727
L7.6102 0.7542
" />
<path d="M7.6102 0.7542
L7.5497 0.8751
" />
<path d="M7.5497 0.8751
L7.4892 0.9356
" />
<path d="M7.4892 0.9356
L7.3683 0.9961
" />
<path d="M7.3683 0.9961
L6.8845 0.9961
" />
<path d="M8.1545 0.9356
L8.5778 0.9356
" />
<path d="M8.7592 1.6008
L8.1545 1.6008
" />
<path d="M8.1545 1.6008
L8.1545 0.3308
" />
<path d="M8.1545 0.3308
L8.7592 0.3308
" />
<path d="M9.7268 0.9356
L9.3035 0.9356
" />
<path d="M9.3035 1.6008
L9.3035 0.3308
" />
<path d="M9.3035 0.3308
L9.9083 0.3308
" />
<path d="M10.5735 0.3308
L10.5735 0.6332
" />
<path d="M10.2711 0.5123
L10.5735 0.6332
" />
<path d="M10.5735 0.6332
L10.8759 0.5123
" />
<path d="M10.3921 0.8751
L10.5735 0.6332
" />
<path d="M10.5735 0.6332
L10.7549 0.8751
" />
<path d="M11.5411 0.3308
L11.5411 0.6332
" />
<path d="M11.2387 0.5123
L11.5411 0.6332
" />
<path d="M11.5411 0.6332
L11.8435 0.5123
" />
<path d="M11.3597 0.8751
L11.5411 0.6332
" />
<path d="M11.5411 0.6332
L11.7226 0.8751
" />
</g></g>
<g style="fill:none; 
stroke:#FF26E2; stroke-width:0.0500; stroke-opacity:1; 
stroke-linecap:round; stroke-linejoin:round;">
<path d="M8.6035 0.6716
L10.0035 0.6716
" />
<path d="M8.6035 1.3716
L8.6035 0.6716
" />
<path d="M10.0035 0.6716
L10.0035 1.3716
" />
<path d="M10.0035 1.3716
L8.6035 1.3716
" />
</g>
<g style="fill:none; 
stroke:#AFAFAF; stroke-width:0.1588; stroke-opacity:1; 
stroke-linecap:round; stroke-linejoin:round;">
<text x="9.3035" y="1.6566"
textLength="18.6070" font-size="1.6933" lengthAdjust="spacingAndGlyphs"
text-anchor="middle" opacity="0">L_0201_0603Metric</text>
<g class="stroked-text"><desc>L_0201_0603Metric</desc>
<path d="M1.0183 1.6008
L0.4135 1.6008
" />
<path d="M0.4135 1.6008
L0.4135 0.3308
" />
<path d="M1.1392 1.7218
L2.1068 1.7218
" />
<path d="M2.6511 0.3308
L2.7721 0.3308
" />
<path d="M2.7721 0.3308
L2.8930 0.3913
" />
<path d="M2.8930 0.3913
L2.9535 0.4518
" />
<path d="M2.9535 0.4518
L3.0140 0.5727
" />
<path d="M3.0140 0.5727
L3.0745 0.8146
" />
<path d="M3.0745 0.8146
L3.0745 1.1170
" />
<path d="M3.0745 1.1170
L3.0140 1.3589
" />
<path d="M3.0140 1.3589
L2.9535 1.4799
" />
<path d="M2.9535 1.4799
L2.8930 1.5404
" />
<path d="M2.8930 1.5404
L2.7721 1.6008
" />
<path d="M2.7721 1.6008
L2.6511 1.6008
" />
<path d="M2.6511 1.6008
L2.5302 1.5404
" />
<path d="M2.5302 1.5404
L2.4697 1.4799
" />
<path d="M2.4697 1.4799
L2.4092 1.3589
" />
<path d="M2.4092 1.3589
L2.3487 1.1170
" />
<path d="M2.3487 1.1170
L2.3487 0.8146
" />
<path d="M2.3487 0.8146
L2.4092 0.5727
" />
<path d="M2.4092 0.5727
L2.4697 0.4518
" />
<path d="M2.4697 0.4518
L2.5302 0.3913
" />
<path d="M2.5302 0.3913
L2.6511 0.3308
" />
<path d="M3.5583 0.4518
L3.6187 0.3913
" />
<path d="M3.6187 0.3913
L3.7397 0.3308
" />
<path d="M3.7397 0.3308
L4.0421 0.3308
" />
<path d="M4.0421 0.3308
L4.1630 0.3913
" />
<path d="M4.1630 0.3913
L4.2235 0.4518
" />
<path d="M4.2235 0.4518
L4.2840 0.5727
" />
<path d="M4.2840 0.5727
L4.2840 0.6937
" />
<path d="M4.2840 0.6937
L4.2235 0.8751
" />
<path d="M4.2235 0.8751
L3.4978 1.6008
" />
<path d="M3.4978 1.6008
L4.2840 1.6008
" />
<path d="M5.0702 0.3308
L5.1911 0.3308
" />
<path d="M5.1911 0.3308
L5.3121 0.3913
" />
<path d="M5.3121 0.3913
L5.3726 0.4518
" />
<path d="M5.3726 0.4518
L5.4330 0.5727
" />
<path d="M5.4330 0.5727
L5.4935 0.8146
" />
<path d="M5.4935 0.8146
L5.4935 1.1170
" />
<path d="M5.4935 1.1170
L5.4330 1.3589
" />
<path d="M5.4330 1.3589
L5.3726 1.4799
" />
<path d="M5.3726 1.4799
L5.3121 1.5404
" />
<path d="M5.3121 1.5404
L5.1911 1.6008
" />
<path d="M5.1911 1.6008
L5.0702 1.6008
" />
<path d="M5.0702 1.6008
L4.9492 1.5404
" />
<path d="M4.9492 1.5404
L4.8887 1.4799
" />
<path d="M4.8887 1.4799
L4.8283 1.3589
" />
<path d="M4.8283 1.3589
L4.7678 1.1170
" />
<path d="M4.7678 1.1170
L4.7678 0.8146
" />
<path d="M4.7678 0.8146
L4.8283 0.5727
" />
<path d="M4.8283 0.5727
L4.8887 0.4518
" />
<path d="M4.8887 0.4518
L4.9492 0.3913
" />
<path d="M4.9492 0.3913
L5.0702 0.3308
" />
<path d="M6.7030 1.6008
L5.9773 1.6008
" />
<path d="M6.3402 1.6008
L6.3402 0.3308
" />
<path d="M6.3402 0.3308
L6.2192 0.5123
" />
<path d="M6.2192 0.5123
L6.0983 0.6332
" />
<path d="M6.0983 0.6332
L5.9773 0.6937
" />
<path d="M6.9449 1.7218
L7.9126 1.7218
" />
<path d="M8.4568 0.3308
L8.5778 0.3308
" />
<path d="M8.5778 0.3308
L8.6987 0.3913
" />
<path d="M8.6987 0.3913
L8.7592 0.4518
" />
<path d="M8.7592 0.4518
L8.8197 0.5727
" />
<path d="M8.8197 0.5727
L8.8802 0.8146
" />
<path d="M8.8802 0.8146
L8.8802 1.1170
" />
<path d="M8.8802 1.1170
L8.8197 1.3589
" />
<path d="M8.8197 1.3589
L8.7592 1.4799
" />
<path d="M8.7592 1.4799
L8.6987 1.5404
" />
<path d="M8.6987 1.5404
L8.5778 1.6008
" />
<path d="M8.5778 1.6008
L8.4568 1.6008
" />
<path d="M8.4568 1.6008
L8.3359 1.5404
" />
<path d="M8.3359 1.5404
L8.2754 1.4799
" />
<path d="M8.2754 1.4799
L8.2149 1.3589
" />
<path d="M8.2149 1.3589
L8.1545 1.1170
" />
<path d="M8.1545 1.1170
L8.1545 0.8146
" />
<path d="M8.1545 0.8146
L8.2149 0.5727
" />
<path d="M8.2149 0.5727
L8.2754 0.4518
" />
<path d="M8.2754 0.4518
L8.3359 0.3913
" />
<path d="M8.3359 0.3913
L8.4568 0.3308
" />
<path d="M9.9687 0.3308
L9.7268 0.3308
" />
<path d="M9.7268 0.3308
L9.6059 0.3913
" />
<path d="M9.6059 0.3913
L9.5454 0.4518
" />
<path d="M9.5454 0.4518
L9.4245 0.6332
" />
<path d="M9.4245 0.6332
L9.3640 0.8751
" />
<path d="M9.3640 0.8751
L9.3640 1.3589
" />
<path d="M9.3640 1.3589
L9.4245 1.4799
" />
<path d="M9.4245 1.4799
L9.4849 1.5404
" />
<path d="M9.4849 1.5404
L9.6059 1.6008
" />
<path d="M9.6059 1.6008
L9.8478 1.6008
" />
<path d="M9.8478 1.6008
L9.9687 1.5404
" />
<path d="M9.9687 1.5404
L10.0292 1.4799
" />
<path d="M10.0292 1.4799
L10.0897 1.3589
" />
<path d="M10.0897 1.3589
L10.0897 1.0565
" />
<path d="M10.0897 1.0565
L10.0292 0.9356
" />
<path d="M10.0292 0.9356
L9.9687 0.8751
" />
<path d="M9.9687 0.8751
L9.8478 0.8146
" />
<path d="M9.8478 0.8146
L9.6059 0.8146
" />
<path d="M9.6059 0.8146
L9.4849 0.8751
" />
<path d="M9.4849 0.8751
L9.4245 0.9356
" />
<path d="M9.4245 0.9356
L9.3640 1.0565
" />
<path d="M10.8759 0.3308
L10.9968 0.3308
" />
<path d="M10.9968 0.3308
L11.1178 0.3913
" />
<path d="M11.1178 0.3913
L11.1783 0.4518
" />
<path d="M11.1783 0.4518
L11.2387 0.5727
" />
<path d="M11.2387 0.5727
L11.2992 0.8146
" />
<path d="M11.2992 0.8146
L11.2992 1.1170
" />
<path d="M11.2992 1.1170
L11.2387 1.3589
" />
<path d="M11.2387 1.3589
L11.1783 1.4799
" />
<path d="M11.1783 1.4799
L11.1178 1.5404
" />
<path d="M11.1178 1.5404
L10.9968 1.6008
" />
<path d="M10.9968 1.6008
L10.8759 1.6008
" />
<path d="M10.8759 1.6008
L10.7549 1.5404
" />
<path d="M10.7549 1.5404
L10.6945 1.4799
" />
<path d="M10.6945 1.4799
L10.6340 1.3589
" />
<path d="M10.6340 1.3589
L10.5735 1.1170
" />
<path d="M10.5735 1.1170
L10.5735 0.8146
" />
<path d="M10.5735 0.8146
L10.6340 0.5727
" />
<path d="M10.6340 0.5727
L10.6945 0.4518
" />
<path d="M10.6945 0.4518
L10.7549 0.3913
" />
<path d="M10.7549 0.3913
L10.8759 0.3308
" />
<path d="M11.7226 0.3308
L12.5087 0.3308
" />
<path d="M12.5087 0.3308
L12.0854 0.8146
" />
<path d="M12.0854 0.8146
L12.2668 0.8146
" />
<path d="M12.2668 0.8146
L12.3878 0.8751
" />
<path d="M12.3878 0.8751
L12.4483 0.9356
" />
<path d="M12.4483 0.9356
L12.5087 1.0565
" />
<path d="M12.5087 1.0565
L12.5087 1.3589
" />
<path d="M12.5087 1.3589
L12.4483 1.4799
" />
<path d="M12.4483 1.4799
L12.3878 1.5404
" />
<path d="M12.3878 1.5404
L12.2668 1.6008
" />
<path d="M12.2668 1.6008
L11.9040 1.6008
" />
<path d="M11.9040 1.6008
L11.7830 1.5404
" />
<path d="M11.7830 1.5404
L11.7226 1.4799
" />
<path d="M13.0530 1.6008
L13.0530 0.3308
" />
<path d="M13.0530 0.3308
L13.4764 1.2380
" />
<path d="M13.4764 1.2380
L13.8997 0.3308
" />
<path d="M13.8997 0.3308
L13.8997 1.6008
" />
<path d="M14.9883 1.5404
L14.8673 1.6008
" />
<path d="M14.8673 1.6008
L14.6254 1.6008
" />
<path d="M14.6254 1.6008
L14.5045 1.5404
" />
<path d="M14.5045 1.5404
L14.4440 1.4194
" />
<path d="M14.4440 1.4194
L14.4440 0.9356
" />
<path d="M14.4440 0.9356
L14.5045 0.8146
" />
<path d="M14.5045 0.8146
L14.6254 0.7542
" />
<path d="M14.6254 0.7542
L14.8673 0.7542
" />
<path d="M14.8673 0.7542
L14.9883 0.8146
" />
<path d="M14.9883 0.8146
L15.0487 0.9356
" />
<path d="M15.0487 0.9356
L15.0487 1.0565
" />
<path d="M15.0487 1.0565
L14.4440 1.1775
" />
<path d="M15.4116 0.7542
L15.8954 0.7542
" />
<path d="M15.5930 0.3308
L15.5930 1.4194
" />
<path d="M15.5930 1.4194
L15.6535 1.5404
" />
<path d="M15.6535 1.5404
L15.7745 1.6008
" />
<path d="M15.7745 1.6008
L15.8954 1.6008
" />
<path d="M16.3187 1.6008
L16.3187 0.7542
" />
<path d="M16.3187 0.9961
L16.3792 0.8751
" />
<path d="M16.3792 0.8751
L16.4397 0.8146
" />
<path d="M16.4397 0.8146
L16.5606 0.7542
" />
<path d="M16.5606 0.7542
L16.6816 0.7542
" />
<path d="M17.1049 1.6008
L17.1049 0.7542
" />
<path d="M17.1049 0.3308
L17.0445 0.3913
" />
<path d="M17.0445 0.3913
L17.1049 0.4518
" />
<path d="M17.1049 0.4518
L17.1654 0.3913
" />
<path d="M17.1654 0.3913
L17.1049 0.3308
" />
<path d="M17.1049 0.3308
L17.1049 0.4518
" />
<path d="M18.2540 1.5404
L18.1330 1.6008
" />
<path d="M18.1330 1.6008
L17.8911 1.6008
" />
<path d="M17.8911 1.6008
L17.7702 1.5404
" />
<path d="M17.7702 1.5404
L17.7097 1.4799
" />
<path d="M17.7097 1.4799
L17.6492 1.3589
" />
<path d="M17.6492 1.3589
L17.6492 0.9961
" />
<path d="M17.6492 0.9961
L17.7097 0.8751
" />
<path d="M17.7097 0.8751
L17.7702 0.8146
" />
<path d="M17.7702 0.8146
L17.8911 0.7542
" />
<path d="M17.8911 0.7542
L18.1330 0.7542
" />
<path d="M18.1330 0.7542
L18.2540 0.8146
" />
</g></g>
<g style="fill:none; 
stroke:#AFAFAF; stroke-width:0.0400; stroke-opacity:1; 
stroke-linecap:round; stroke-linejoin:round;">
<text x="9.3035" y="0.4666"
textLength="1.1414" font-size="0.3333" lengthAdjust="spacingAndGlyphs"
text-anchor="middle" opacity="0">REF**</text>
<g class="stroked-text"><desc>REF**</desc>
<path d="M8.9702 0.4551
L8.8868 0.3361
" />
<path d="M8.8273 0.4551
L8.8273 0.2051
" />
<path d="M8.8273 0.2051
L8.9226 0.2051
" />
<path d="M8.9226 0.2051
L8.9464 0.2170
" />
<path d="M8.9464 0.2170
L8.9583 0.2289
" />
<path d="M8.9583 0.2289
L8.9702 0.2527
" />
<path d="M8.9702 0.2527
L8.9702 0.2885
" />
<path d="M8.9702 0.2885
L8.9583 0.3123
" />
<path d="M8.9583 0.3123
L8.9464 0.3242
" />
<path d="M8.9464 0.3242
L8.9226 0.3361
" />
<path d="M8.9226 0.3361
L8.8273 0.3361
" />
<path d="M9.0773 0.3242
L9.1607 0.3242
" />
<path d="M9.1964 0.4551
L9.0773 0.4551
" />
<path d="M9.0773 0.4551
L9.0773 0.2051
" />
<path d="M9.0773 0.2051
L9.1964 0.2051
" />
<path d="M9.3868 0.3242
L9.3035 0.3242
" />
<path d="M9.3035 0.4551
L9.3035 0.2051
" />
<path d="M9.3035 0.2051
L9.4226 0.2051
" />
<path d="M9.5535 0.2051
L9.5535 0.2647
" />
<path d="M9.4940 0.2408
L9.5535 0.2647
" />
<path d="M9.5535 0.2647
L9.6130 0.2408
" />
<path d="M9.5178 0.3123
L9.5535 0.2647
" />
<path d="M9.5535 0.2647
L9.5892 0.3123
" />
<path d="M9.7440 0.2051
L9.7440 0.2647
" />
<path d="M9.6845 0.2408
L9.7440 0.2647
" />
<path d="M9.7440 0.2647
L9.8035 0.2408
" />
<path d="M9.7083 0.3123
L9.7440 0.2647
" />
<path d="M9.7440 0.2647
L9.7797 0.3123
" />
</g></g>
<g style="fill:none; 
stroke:#AFAFAF; stroke-width:0.1000; stroke-opacity:1; 
stroke-linecap:round; stroke-linejoin:round;">
<path d="M9.0035 0.8716
L9.6035 0.8716
" />
<path d="M9.0035 1.1716
L9.0035 0.8716
" />
<path d="M9.6035 0.8716
L9.6035 1.1716
" />
<path d="M9.6035 1.1716
L9.0035 1.1716
" />
</g> 
</svg>
