<?xml version="1.0" standalone="no"?>
 <!DOCTYPE svg PUBLIC "-//W3C//DTD SVG 1.1//EN" 
 "http://www.w3.org/Graphics/SVG/1.1/DTD/svg11.dtd"> 
<svg
  xmlns:svg="http://www.w3.org/2000/svg"
  xmlns="http://www.w3.org/2000/svg"
  xmlns:xlink="http://www.w3.org/1999/xlink"
  version="1.1"
  width="46.5328mm" height="13.3350mm" viewBox="0.0000 0.0000 46.5328 13.3350">
<title>SVG Image created as working-brd.svg date 2024/04/22 16:07:32 </title>
  <desc>Image generated by PCBNEW </desc>
<g style="fill:#000000; fill-opacity:1.0000;stroke:#000000; stroke-opacity:1.0000;
stroke-linecap:round; stroke-linejoin:round;"
 transform="translate(0 0) scale(1 1)">
</g>
<g style="fill:#4D7FC4; fill-opacity:1.0000; stroke:none;">
<circle cx="30.2735" cy="2.2750" r="2.0000" /> 
</g>
<g style="fill:#4D7FC4; fill-opacity:1.0000; stroke:none;">
<circle cx="30.2735" cy="11.0750" r="2.0000" /> 
</g>
<g style="fill:#FFFFFF; fill-opacity:1.0000; stroke:none;">
<circle cx="30.2735" cy="2.2750" r="1.1000" /> 
</g>
<g style="fill:#FFFFFF; fill-opacity:1.0000; stroke:none;">
<circle cx="30.2735" cy="11.0750" r="1.1000" /> 
</g>
<g style="fill:#FFFFFF; fill-opacity:1.0000; stroke:none;">
<circle cx="23.2735" cy="9.1750" r="0.5000" /> 
</g>
<g style="fill:#FFFFFF; fill-opacity:1.0000; stroke:none;">
<circle cx="23.2735" cy="6.6750" r="0.5000" /> 
</g>
<g style="fill:#FFFFFF; fill-opacity:1.0000; stroke:none;">
<circle cx="23.2735" cy="4.1750" r="0.5000" /> 
</g>
<g style="fill:#02FFEE; fill-opacity:0.4000; stroke:none;">
<circle cx="30.2735" cy="2.2750" r="2.0000" /> 
</g>
<g style="fill:#02FFEE; fill-opacity:0.4000; stroke:none;">
<circle cx="30.2735" cy="11.0750" r="2.0000" /> 
</g>
<g style="fill:#02FFEE; fill-opacity:0.4000; stroke:none;">
<circle cx="23.2735" cy="9.1750" r="0.9000" /> 
</g>
<g style="fill:#02FFEE; fill-opacity:0.4000; stroke:none;">
<circle cx="23.2735" cy="6.6750" r="0.9000" /> 
</g>
<g style="fill:#02FFEE; fill-opacity:0.4000; stroke:none;">
<circle cx="23.2735" cy="4.1750" r="0.9000" /> 
</g>
<g style="fill:#FFFFFF; fill-opacity:1.0000; stroke:none;">
<circle cx="30.2735" cy="2.2750" r="1.1000" /> 
</g>
<g style="fill:#FFFFFF; fill-opacity:1.0000; stroke:none;">
<circle cx="30.2735" cy="11.0750" r="1.1000" /> 
</g>
<g style="fill:#FFFFFF; fill-opacity:1.0000; stroke:none;">
<circle cx="23.2735" cy="9.1750" r="0.5000" /> 
</g>
<g style="fill:#FFFFFF; fill-opacity:1.0000; stroke:none;">
<circle cx="23.2735" cy="6.6750" r="0.5000" /> 
</g>
<g style="fill:#FFFFFF; fill-opacity:1.0000; stroke:none;">
<circle cx="23.2735" cy="4.1750" r="0.5000" /> 
</g>
<g style="fill:#C83434; fill-opacity:1.0000; stroke:none;">
<circle cx="30.2735" cy="2.2750" r="2.0000" /> 
</g>
<g style="fill:#C83434; fill-opacity:1.0000; stroke:none;">
<circle cx="30.2735" cy="11.0750" r="2.0000" /> 
</g>
<g style="fill:#FFFFFF; fill-opacity:1.0000; stroke:none;">
<circle cx="30.2735" cy="2.2750" r="1.1000" /> 
</g>
<g style="fill:#FFFFFF; fill-opacity:1.0000; stroke:none;">
<circle cx="30.2735" cy="11.0750" r="1.1000" /> 
</g>
<g style="fill:#FFFFFF; fill-opacity:1.0000; stroke:none;">
<circle cx="23.2735" cy="9.1750" r="0.5000" /> 
</g>
<g style="fill:#FFFFFF; fill-opacity:1.0000; stroke:none;">
<circle cx="23.2735" cy="6.6750" r="0.5000" /> 
</g>
<g style="fill:#FFFFFF; fill-opacity:1.0000; stroke:none;">
<circle cx="23.2735" cy="4.1750" r="0.5000" /> 
</g>
<g style="fill:#D864FF; fill-opacity:0.4000; stroke:none;">
<circle cx="30.2735" cy="2.2750" r="2.0000" /> 
</g>
<g style="fill:#D864FF; fill-opacity:0.4000; stroke:none;">
<circle cx="30.2735" cy="11.0750" r="2.0000" /> 
</g>
<g style="fill:#D864FF; fill-opacity:0.4000; stroke:none;">
<circle cx="23.2735" cy="9.1750" r="0.9000" /> 
</g>
<g style="fill:#D864FF; fill-opacity:0.4000; stroke:none;">
<circle cx="23.2735" cy="6.6750" r="0.9000" /> 
</g>
<g style="fill:#D864FF; fill-opacity:0.4000; stroke:none;">
<circle cx="23.2735" cy="4.1750" r="0.9000" /> 
</g>
<g style="fill:none; 
stroke:#F2EDA1; stroke-width:0.1588; stroke-opacity:1; 
stroke-linecap:round; stroke-linejoin:round;">
<text x="23.2735" y="9.8100"
textLength="5.6651" font-size="1.6933" lengthAdjust="spacingAndGlyphs"
text-anchor="middle" opacity="0">REF**</text>
<g class="stroked-text"><desc>REF**</desc>
<path d="M21.5802 9.7543
L21.1568 9.1495
" />
<path d="M20.8545 9.7543
L20.8545 8.4843
" />
<path d="M20.8545 8.4843
L21.3383 8.4843
" />
<path d="M21.3383 8.4843
L21.4592 8.5447
" />
<path d="M21.4592 8.5447
L21.5197 8.6052
" />
<path d="M21.5197 8.6052
L21.5802 8.7262
" />
<path d="M21.5802 8.7262
L21.5802 8.9076
" />
<path d="M21.5802 8.9076
L21.5197 9.0286
" />
<path d="M21.5197 9.0286
L21.4592 9.0890
" />
<path d="M21.4592 9.0890
L21.3383 9.1495
" />
<path d="M21.3383 9.1495
L20.8545 9.1495
" />
<path d="M22.1245 9.0890
L22.5478 9.0890
" />
<path d="M22.7292 9.7543
L22.1245 9.7543
" />
<path d="M22.1245 9.7543
L22.1245 8.4843
" />
<path d="M22.1245 8.4843
L22.7292 8.4843
" />
<path d="M23.6968 9.0890
L23.2735 9.0890
" />
<path d="M23.2735 9.7543
L23.2735 8.4843
" />
<path d="M23.2735 8.4843
L23.8783 8.4843
" />
<path d="M24.5435 8.4843
L24.5435 8.7867
" />
<path d="M24.2411 8.6657
L24.5435 8.7867
" />
<path d="M24.5435 8.7867
L24.8459 8.6657
" />
<path d="M24.3621 9.0286
L24.5435 8.7867
" />
<path d="M24.5435 8.7867
L24.7249 9.0286
" />
<path d="M25.5111 8.4843
L25.5111 8.7867
" />
<path d="M25.2087 8.6657
L25.5111 8.7867
" />
<path d="M25.5111 8.7867
L25.8135 8.6657
" />
<path d="M25.3297 9.0286
L25.5111 8.7867
" />
<path d="M25.5111 8.7867
L25.6926 9.0286
" />
</g></g>
<g style="fill:none; 
stroke:#F2EDA1; stroke-width:0.1200; stroke-opacity:1; 
stroke-linecap:round; stroke-linejoin:round;">
<path d="M24.1535 1.7050
L24.1535 3.3040
" />
<path d="M24.1535 1.7050
L28.0185 1.7050
" />
<path d="M24.1535 5.0460
L24.1535 5.8050
" />
<path d="M24.1535 7.5460
L24.1535 8.3050
" />
<path d="M24.1535 10.0450
L24.1535 11.6450
" />
<path d="M24.1535 11.6450
L28.0185 11.6450
" />
<path d="M32.5285 1.7050
L36.3935 1.7050
" />
<path d="M32.5285 11.6450
L36.3935 11.6450
" />
<path d="M36.3935 1.7050
L36.3935 11.6450
" />
</g>
<g style="fill:#FFFFFF; fill-opacity:1.0000; stroke:none;">
<circle cx="30.2735" cy="2.2750" r="1.1000" /> 
</g>
<g style="fill:#FFFFFF; fill-opacity:1.0000; stroke:none;">
<circle cx="30.2735" cy="11.0750" r="1.1000" /> 
</g>
<g style="fill:#FFFFFF; fill-opacity:1.0000; stroke:none;">
<circle cx="23.2735" cy="9.1750" r="0.5000" /> 
</g>
<g style="fill:#FFFFFF; fill-opacity:1.0000; stroke:none;">
<circle cx="23.2735" cy="6.6750" r="0.5000" /> 
</g>
<g style="fill:#FFFFFF; fill-opacity:1.0000; stroke:none;">
<circle cx="23.2735" cy="4.1750" r="0.5000" /> 
</g>
<g style="fill:none; 
stroke:#FF26E2; stroke-width:0.0500; stroke-opacity:1; 
stroke-linecap:round; stroke-linejoin:round;">
<path d="M22.1235 0.0250
L22.1235 13.3250
" />
<path d="M22.1235 13.3250
L36.5235 13.3250
" />
<path d="M36.5235 0.0250
L22.1235 0.0250
" />
<path d="M36.5235 13.3250
L36.5235 0.0250
" />
</g>
<g style="fill:none; 
stroke:#AFAFAF; stroke-width:0.1588; stroke-opacity:1; 
stroke-linecap:round; stroke-linejoin:round;">
<text x="23.2735" y="9.8100"
textLength="46.5470" font-size="1.6933" lengthAdjust="spacingAndGlyphs"
text-anchor="middle" opacity="0">Potentiometer_Bourns_PTV09A-1_Single_Vertical</text>
<g class="stroked-text"><desc>Potentiometer_Bourns_PTV09A-1_Single_Vertical</desc>
<path d="M0.4135 9.7543
L0.4135 8.4843
" />
<path d="M0.4135 8.4843
L0.8973 8.4843
" />
<path d="M0.8973 8.4843
L1.0183 8.5447
" />
<path d="M1.0183 8.5447
L1.0787 8.6052
" />
<path d="M1.0787 8.6052
L1.1392 8.7262
" />
<path d="M1.1392 8.7262
L1.1392 8.9076
" />
<path d="M1.1392 8.9076
L1.0787 9.0286
" />
<path d="M1.0787 9.0286
L1.0183 9.0890
" />
<path d="M1.0183 9.0890
L0.8973 9.1495
" />
<path d="M0.8973 9.1495
L0.4135 9.1495
" />
<path d="M1.8649 9.7543
L1.7440 9.6938
" />
<path d="M1.7440 9.6938
L1.6835 9.6333
" />
<path d="M1.6835 9.6333
L1.6230 9.5124
" />
<path d="M1.6230 9.5124
L1.6230 9.1495
" />
<path d="M1.6230 9.1495
L1.6835 9.0286
" />
<path d="M1.6835 9.0286
L1.7440 8.9681
" />
<path d="M1.7440 8.9681
L1.8649 8.9076
" />
<path d="M1.8649 8.9076
L2.0464 8.9076
" />
<path d="M2.0464 8.9076
L2.1673 8.9681
" />
<path d="M2.1673 8.9681
L2.2278 9.0286
" />
<path d="M2.2278 9.0286
L2.2883 9.1495
" />
<path d="M2.2883 9.1495
L2.2883 9.5124
" />
<path d="M2.2883 9.5124
L2.2278 9.6333
" />
<path d="M2.2278 9.6333
L2.1673 9.6938
" />
<path d="M2.1673 9.6938
L2.0464 9.7543
" />
<path d="M2.0464 9.7543
L1.8649 9.7543
" />
<path d="M2.6511 8.9076
L3.1349 8.9076
" />
<path d="M2.8326 8.4843
L2.8326 9.5728
" />
<path d="M2.8326 9.5728
L2.8930 9.6938
" />
<path d="M2.8930 9.6938
L3.0140 9.7543
" />
<path d="M3.0140 9.7543
L3.1349 9.7543
" />
<path d="M4.0421 9.6938
L3.9211 9.7543
" />
<path d="M3.9211 9.7543
L3.6792 9.7543
" />
<path d="M3.6792 9.7543
L3.5583 9.6938
" />
<path d="M3.5583 9.6938
L3.4978 9.5728
" />
<path d="M3.4978 9.5728
L3.4978 9.0890
" />
<path d="M3.4978 9.0890
L3.5583 8.9681
" />
<path d="M3.5583 8.9681
L3.6792 8.9076
" />
<path d="M3.6792 8.9076
L3.9211 8.9076
" />
<path d="M3.9211 8.9076
L4.0421 8.9681
" />
<path d="M4.0421 8.9681
L4.1026 9.0890
" />
<path d="M4.1026 9.0890
L4.1026 9.2100
" />
<path d="M4.1026 9.2100
L3.4978 9.3309
" />
<path d="M4.6468 8.9076
L4.6468 9.7543
" />
<path d="M4.6468 9.0286
L4.7073 8.9681
" />
<path d="M4.7073 8.9681
L4.8283 8.9076
" />
<path d="M4.8283 8.9076
L5.0097 8.9076
" />
<path d="M5.0097 8.9076
L5.1306 8.9681
" />
<path d="M5.1306 8.9681
L5.1911 9.0890
" />
<path d="M5.1911 9.0890
L5.1911 9.7543
" />
<path d="M5.6145 8.9076
L6.0983 8.9076
" />
<path d="M5.7959 8.4843
L5.7959 9.5728
" />
<path d="M5.7959 9.5728
L5.8564 9.6938
" />
<path d="M5.8564 9.6938
L5.9773 9.7543
" />
<path d="M5.9773 9.7543
L6.0983 9.7543
" />
<path d="M6.5216 9.7543
L6.5216 8.9076
" />
<path d="M6.5216 8.4843
L6.4611 8.5447
" />
<path d="M6.4611 8.5447
L6.5216 8.6052
" />
<path d="M6.5216 8.6052
L6.5821 8.5447
" />
<path d="M6.5821 8.5447
L6.5216 8.4843
" />
<path d="M6.5216 8.4843
L6.5216 8.6052
" />
<path d="M7.3078 9.7543
L7.1868 9.6938
" />
<path d="M7.1868 9.6938
L7.1264 9.6333
" />
<path d="M7.1264 9.6333
L7.0659 9.5124
" />
<path d="M7.0659 9.5124
L7.0659 9.1495
" />
<path d="M7.0659 9.1495
L7.1264 9.0286
" />
<path d="M7.1264 9.0286
L7.1868 8.9681
" />
<path d="M7.1868 8.9681
L7.3078 8.9076
" />
<path d="M7.3078 8.9076
L7.4892 8.9076
" />
<path d="M7.4892 8.9076
L7.6102 8.9681
" />
<path d="M7.6102 8.9681
L7.6706 9.0286
" />
<path d="M7.6706 9.0286
L7.7311 9.1495
" />
<path d="M7.7311 9.1495
L7.7311 9.5124
" />
<path d="M7.7311 9.5124
L7.6706 9.6333
" />
<path d="M7.6706 9.6333
L7.6102 9.6938
" />
<path d="M7.6102 9.6938
L7.4892 9.7543
" />
<path d="M7.4892 9.7543
L7.3078 9.7543
" />
<path d="M8.2754 9.7543
L8.2754 8.9076
" />
<path d="M8.2754 9.0286
L8.3359 8.9681
" />
<path d="M8.3359 8.9681
L8.4568 8.9076
" />
<path d="M8.4568 8.9076
L8.6383 8.9076
" />
<path d="M8.6383 8.9076
L8.7592 8.9681
" />
<path d="M8.7592 8.9681
L8.8197 9.0890
" />
<path d="M8.8197 9.0890
L8.8197 9.7543
" />
<path d="M8.8197 9.0890
L8.8802 8.9681
" />
<path d="M8.8802 8.9681
L9.0011 8.9076
" />
<path d="M9.0011 8.9076
L9.1826 8.9076
" />
<path d="M9.1826 8.9076
L9.3035 8.9681
" />
<path d="M9.3035 8.9681
L9.3640 9.0890
" />
<path d="M9.3640 9.0890
L9.3640 9.7543
" />
<path d="M10.4526 9.6938
L10.3316 9.7543
" />
<path d="M10.3316 9.7543
L10.0897 9.7543
" />
<path d="M10.0897 9.7543
L9.9687 9.6938
" />
<path d="M9.9687 9.6938
L9.9083 9.5728
" />
<path d="M9.9083 9.5728
L9.9083 9.0890
" />
<path d="M9.9083 9.0890
L9.9687 8.9681
" />
<path d="M9.9687 8.9681
L10.0897 8.9076
" />
<path d="M10.0897 8.9076
L10.3316 8.9076
" />
<path d="M10.3316 8.9076
L10.4526 8.9681
" />
<path d="M10.4526 8.9681
L10.5130 9.0890
" />
<path d="M10.5130 9.0890
L10.5130 9.2100
" />
<path d="M10.5130 9.2100
L9.9083 9.3309
" />
<path d="M10.8759 8.9076
L11.3597 8.9076
" />
<path d="M11.0573 8.4843
L11.0573 9.5728
" />
<path d="M11.0573 9.5728
L11.1178 9.6938
" />
<path d="M11.1178 9.6938
L11.2387 9.7543
" />
<path d="M11.2387 9.7543
L11.3597 9.7543
" />
<path d="M12.2668 9.6938
L12.1459 9.7543
" />
<path d="M12.1459 9.7543
L11.9040 9.7543
" />
<path d="M11.9040 9.7543
L11.7830 9.6938
" />
<path d="M11.7830 9.6938
L11.7226 9.5728
" />
<path d="M11.7226 9.5728
L11.7226 9.0890
" />
<path d="M11.7226 9.0890
L11.7830 8.9681
" />
<path d="M11.7830 8.9681
L11.9040 8.9076
" />
<path d="M11.9040 8.9076
L12.1459 8.9076
" />
<path d="M12.1459 8.9076
L12.2668 8.9681
" />
<path d="M12.2668 8.9681
L12.3273 9.0890
" />
<path d="M12.3273 9.0890
L12.3273 9.2100
" />
<path d="M12.3273 9.2100
L11.7226 9.3309
" />
<path d="M12.8716 9.7543
L12.8716 8.9076
" />
<path d="M12.8716 9.1495
L12.9321 9.0286
" />
<path d="M12.9321 9.0286
L12.9926 8.9681
" />
<path d="M12.9926 8.9681
L13.1135 8.9076
" />
<path d="M13.1135 8.9076
L13.2345 8.9076
" />
<path d="M13.3554 9.8752
L14.3230 9.8752
" />
<path d="M15.0487 9.0890
L15.2302 9.1495
" />
<path d="M15.2302 9.1495
L15.2906 9.2100
" />
<path d="M15.2906 9.2100
L15.3511 9.3309
" />
<path d="M15.3511 9.3309
L15.3511 9.5124
" />
<path d="M15.3511 9.5124
L15.2906 9.6333
" />
<path d="M15.2906 9.6333
L15.2302 9.6938
" />
<path d="M15.2302 9.6938
L15.1092 9.7543
" />
<path d="M15.1092 9.7543
L14.6254 9.7543
" />
<path d="M14.6254 9.7543
L14.6254 8.4843
" />
<path d="M14.6254 8.4843
L15.0487 8.4843
" />
<path d="M15.0487 8.4843
L15.1697 8.5447
" />
<path d="M15.1697 8.5447
L15.2302 8.6052
" />
<path d="M15.2302 8.6052
L15.2906 8.7262
" />
<path d="M15.2906 8.7262
L15.2906 8.8471
" />
<path d="M15.2906 8.8471
L15.2302 8.9681
" />
<path d="M15.2302 8.9681
L15.1697 9.0286
" />
<path d="M15.1697 9.0286
L15.0487 9.0890
" />
<path d="M15.0487 9.0890
L14.6254 9.0890
" />
<path d="M16.0768 9.7543
L15.9559 9.6938
" />
<path d="M15.9559 9.6938
L15.8954 9.6333
" />
<path d="M15.8954 9.6333
L15.8349 9.5124
" />
<path d="M15.8349 9.5124
L15.8349 9.1495
" />
<path d="M15.8349 9.1495
L15.8954 9.0286
" />
<path d="M15.8954 9.0286
L15.9559 8.9681
" />
<path d="M15.9559 8.9681
L16.0768 8.9076
" />
<path d="M16.0768 8.9076
L16.2583 8.9076
" />
<path d="M16.2583 8.9076
L16.3792 8.9681
" />
<path d="M16.3792 8.9681
L16.4397 9.0286
" />
<path d="M16.4397 9.0286
L16.5002 9.1495
" />
<path d="M16.5002 9.1495
L16.5002 9.5124
" />
<path d="M16.5002 9.5124
L16.4397 9.6333
" />
<path d="M16.4397 9.6333
L16.3792 9.6938
" />
<path d="M16.3792 9.6938
L16.2583 9.7543
" />
<path d="M16.2583 9.7543
L16.0768 9.7543
" />
<path d="M17.5887 8.9076
L17.5887 9.7543
" />
<path d="M17.0445 8.9076
L17.0445 9.5728
" />
<path d="M17.0445 9.5728
L17.1049 9.6938
" />
<path d="M17.1049 9.6938
L17.2259 9.7543
" />
<path d="M17.2259 9.7543
L17.4073 9.7543
" />
<path d="M17.4073 9.7543
L17.5283 9.6938
" />
<path d="M17.5283 9.6938
L17.5887 9.6333
" />
<path d="M18.1935 9.7543
L18.1935 8.9076
" />
<path d="M18.1935 9.1495
L18.2540 9.0286
" />
<path d="M18.2540 9.0286
L18.3145 8.9681
" />
<path d="M18.3145 8.9681
L18.4354 8.9076
" />
<path d="M18.4354 8.9076
L18.5564 8.9076
" />
<path d="M18.9797 8.9076
L18.9797 9.7543
" />
<path d="M18.9797 9.0286
L19.0402 8.9681
" />
<path d="M19.0402 8.9681
L19.1611 8.9076
" />
<path d="M19.1611 8.9076
L19.3426 8.9076
" />
<path d="M19.3426 8.9076
L19.4635 8.9681
" />
<path d="M19.4635 8.9681
L19.5240 9.0890
" />
<path d="M19.5240 9.0890
L19.5240 9.7543
" />
<path d="M20.0683 9.6938
L20.1892 9.7543
" />
<path d="M20.1892 9.7543
L20.4311 9.7543
" />
<path d="M20.4311 9.7543
L20.5521 9.6938
" />
<path d="M20.5521 9.6938
L20.6126 9.5728
" />
<path d="M20.6126 9.5728
L20.6126 9.5124
" />
<path d="M20.6126 9.5124
L20.5521 9.3914
" />
<path d="M20.5521 9.3914
L20.4311 9.3309
" />
<path d="M20.4311 9.3309
L20.2497 9.3309
" />
<path d="M20.2497 9.3309
L20.1287 9.2705
" />
<path d="M20.1287 9.2705
L20.0683 9.1495
" />
<path d="M20.0683 9.1495
L20.0683 9.0890
" />
<path d="M20.0683 9.0890
L20.1287 8.9681
" />
<path d="M20.1287 8.9681
L20.2497 8.9076
" />
<path d="M20.2497 8.9076
L20.4311 8.9076
" />
<path d="M20.4311 8.9076
L20.5521 8.9681
" />
<path d="M20.8545 9.8752
L21.8221 9.8752
" />
<path d="M22.1245 9.7543
L22.1245 8.4843
" />
<path d="M22.1245 8.4843
L22.6083 8.4843
" />
<path d="M22.6083 8.4843
L22.7292 8.5447
" />
<path d="M22.7292 8.5447
L22.7897 8.6052
" />
<path d="M22.7897 8.6052
L22.8502 8.7262
" />
<path d="M22.8502 8.7262
L22.8502 8.9076
" />
<path d="M22.8502 8.9076
L22.7897 9.0286
" />
<path d="M22.7897 9.0286
L22.7292 9.0890
" />
<path d="M22.7292 9.0890
L22.6083 9.1495
" />
<path d="M22.6083 9.1495
L22.1245 9.1495
" />
<path d="M23.2130 8.4843
L23.9387 8.4843
" />
<path d="M23.5759 9.7543
L23.5759 8.4843
" />
<path d="M24.1806 8.4843
L24.6040 9.7543
" />
<path d="M24.6040 9.7543
L25.0273 8.4843
" />
<path d="M25.6926 8.4843
L25.8135 8.4843
" />
<path d="M25.8135 8.4843
L25.9345 8.5447
" />
<path d="M25.9345 8.5447
L25.9949 8.6052
" />
<path d="M25.9949 8.6052
L26.0554 8.7262
" />
<path d="M26.0554 8.7262
L26.1159 8.9681
" />
<path d="M26.1159 8.9681
L26.1159 9.2705
" />
<path d="M26.1159 9.2705
L26.0554 9.5124
" />
<path d="M26.0554 9.5124
L25.9949 9.6333
" />
<path d="M25.9949 9.6333
L25.9345 9.6938
" />
<path d="M25.9345 9.6938
L25.8135 9.7543
" />
<path d="M25.8135 9.7543
L25.6926 9.7543
" />
<path d="M25.6926 9.7543
L25.5716 9.6938
" />
<path d="M25.5716 9.6938
L25.5111 9.6333
" />
<path d="M25.5111 9.6333
L25.4506 9.5124
" />
<path d="M25.4506 9.5124
L25.3902 9.2705
" />
<path d="M25.3902 9.2705
L25.3902 8.9681
" />
<path d="M25.3902 8.9681
L25.4506 8.7262
" />
<path d="M25.4506 8.7262
L25.5111 8.6052
" />
<path d="M25.5111 8.6052
L25.5716 8.5447
" />
<path d="M25.5716 8.5447
L25.6926 8.4843
" />
<path d="M26.7206 9.7543
L26.9626 9.7543
" />
<path d="M26.9626 9.7543
L27.0835 9.6938
" />
<path d="M27.0835 9.6938
L27.1440 9.6333
" />
<path d="M27.1440 9.6333
L27.2649 9.4519
" />
<path d="M27.2649 9.4519
L27.3254 9.2100
" />
<path d="M27.3254 9.2100
L27.3254 8.7262
" />
<path d="M27.3254 8.7262
L27.2649 8.6052
" />
<path d="M27.2649 8.6052
L27.2045 8.5447
" />
<path d="M27.2045 8.5447
L27.0835 8.4843
" />
<path d="M27.0835 8.4843
L26.8416 8.4843
" />
<path d="M26.8416 8.4843
L26.7206 8.5447
" />
<path d="M26.7206 8.5447
L26.6602 8.6052
" />
<path d="M26.6602 8.6052
L26.5997 8.7262
" />
<path d="M26.5997 8.7262
L26.5997 9.0286
" />
<path d="M26.5997 9.0286
L26.6602 9.1495
" />
<path d="M26.6602 9.1495
L26.7206 9.2100
" />
<path d="M26.7206 9.2100
L26.8416 9.2705
" />
<path d="M26.8416 9.2705
L27.0835 9.2705
" />
<path d="M27.0835 9.2705
L27.2045 9.2100
" />
<path d="M27.2045 9.2100
L27.2649 9.1495
" />
<path d="M27.2649 9.1495
L27.3254 9.0286
" />
<path d="M27.8092 9.3914
L28.4140 9.3914
" />
<path d="M27.6883 9.7543
L28.1116 8.4843
" />
<path d="M28.1116 8.4843
L28.5349 9.7543
" />
<path d="M28.9583 9.2705
L29.9259 9.2705
" />
<path d="M31.1959 9.7543
L30.4702 9.7543
" />
<path d="M30.8330 9.7543
L30.8330 8.4843
" />
<path d="M30.8330 8.4843
L30.7121 8.6657
" />
<path d="M30.7121 8.6657
L30.5911 8.7867
" />
<path d="M30.5911 8.7867
L30.4702 8.8471
" />
<path d="M31.4378 9.8752
L32.4054 9.8752
" />
<path d="M32.6473 9.6938
L32.8287 9.7543
" />
<path d="M32.8287 9.7543
L33.1311 9.7543
" />
<path d="M33.1311 9.7543
L33.2521 9.6938
" />
<path d="M33.2521 9.6938
L33.3126 9.6333
" />
<path d="M33.3126 9.6333
L33.3730 9.5124
" />
<path d="M33.3730 9.5124
L33.3730 9.3914
" />
<path d="M33.3730 9.3914
L33.3126 9.2705
" />
<path d="M33.3126 9.2705
L33.2521 9.2100
" />
<path d="M33.2521 9.2100
L33.1311 9.1495
" />
<path d="M33.1311 9.1495
L32.8892 9.0890
" />
<path d="M32.8892 9.0890
L32.7683 9.0286
" />
<path d="M32.7683 9.0286
L32.7078 8.9681
" />
<path d="M32.7078 8.9681
L32.6473 8.8471
" />
<path d="M32.6473 8.8471
L32.6473 8.7262
" />
<path d="M32.6473 8.7262
L32.7078 8.6052
" />
<path d="M32.7078 8.6052
L32.7683 8.5447
" />
<path d="M32.7683 8.5447
L32.8892 8.4843
" />
<path d="M32.8892 8.4843
L33.1916 8.4843
" />
<path d="M33.1916 8.4843
L33.3730 8.5447
" />
<path d="M33.9173 9.7543
L33.9173 8.9076
" />
<path d="M33.9173 8.4843
L33.8568 8.5447
" />
<path d="M33.8568 8.5447
L33.9173 8.6052
" />
<path d="M33.9173 8.6052
L33.9778 8.5447
" />
<path d="M33.9778 8.5447
L33.9173 8.4843
" />
<path d="M33.9173 8.4843
L33.9173 8.6052
" />
<path d="M34.5221 8.9076
L34.5221 9.7543
" />
<path d="M34.5221 9.0286
L34.5826 8.9681
" />
<path d="M34.5826 8.9681
L34.7035 8.9076
" />
<path d="M34.7035 8.9076
L34.8849 8.9076
" />
<path d="M34.8849 8.9076
L35.0059 8.9681
" />
<path d="M35.0059 8.9681
L35.0664 9.0890
" />
<path d="M35.0664 9.0890
L35.0664 9.7543
" />
<path d="M36.2154 8.9076
L36.2154 9.9357
" />
<path d="M36.2154 9.9357
L36.1549 10.0567
" />
<path d="M36.1549 10.0567
L36.0945 10.1171
" />
<path d="M36.0945 10.1171
L35.9735 10.1776
" />
<path d="M35.9735 10.1776
L35.7921 10.1776
" />
<path d="M35.7921 10.1776
L35.6711 10.1171
" />
<path d="M36.2154 9.6938
L36.0945 9.7543
" />
<path d="M36.0945 9.7543
L35.8526 9.7543
" />
<path d="M35.8526 9.7543
L35.7316 9.6938
" />
<path d="M35.7316 9.6938
L35.6711 9.6333
" />
<path d="M35.6711 9.6333
L35.6106 9.5124
" />
<path d="M35.6106 9.5124
L35.6106 9.1495
" />
<path d="M35.6106 9.1495
L35.6711 9.0286
" />
<path d="M35.6711 9.0286
L35.7316 8.9681
" />
<path d="M35.7316 8.9681
L35.8526 8.9076
" />
<path d="M35.8526 8.9076
L36.0945 8.9076
" />
<path d="M36.0945 8.9076
L36.2154 8.9681
" />
<path d="M37.0016 9.7543
L36.8806 9.6938
" />
<path d="M36.8806 9.6938
L36.8202 9.5728
" />
<path d="M36.8202 9.5728
L36.8202 8.4843
" />
<path d="M37.9692 9.6938
L37.8483 9.7543
" />
<path d="M37.8483 9.7543
L37.6064 9.7543
" />
<path d="M37.6064 9.7543
L37.4854 9.6938
" />
<path d="M37.4854 9.6938
L37.4249 9.5728
" />
<path d="M37.4249 9.5728
L37.4249 9.0890
" />
<path d="M37.4249 9.0890
L37.4854 8.9681
" />
<path d="M37.4854 8.9681
L37.6064 8.9076
" />
<path d="M37.6064 8.9076
L37.8483 8.9076
" />
<path d="M37.8483 8.9076
L37.9692 8.9681
" />
<path d="M37.9692 8.9681
L38.0297 9.0890
" />
<path d="M38.0297 9.0890
L38.0297 9.2100
" />
<path d="M38.0297 9.2100
L37.4249 9.3309
" />
<path d="M38.2716 9.8752
L39.2392 9.8752
" />
<path d="M39.3602 8.4843
L39.7835 9.7543
" />
<path d="M39.7835 9.7543
L40.2068 8.4843
" />
<path d="M41.1140 9.6938
L40.9930 9.7543
" />
<path d="M40.9930 9.7543
L40.7511 9.7543
" />
<path d="M40.7511 9.7543
L40.6302 9.6938
" />
<path d="M40.6302 9.6938
L40.5697 9.5728
" />
<path d="M40.5697 9.5728
L40.5697 9.0890
" />
<path d="M40.5697 9.0890
L40.6302 8.9681
" />
<path d="M40.6302 8.9681
L40.7511 8.9076
" />
<path d="M40.7511 8.9076
L40.9930 8.9076
" />
<path d="M40.9930 8.9076
L41.1140 8.9681
" />
<path d="M41.1140 8.9681
L41.1745 9.0890
" />
<path d="M41.1745 9.0890
L41.1745 9.2100
" />
<path d="M41.1745 9.2100
L40.5697 9.3309
" />
<path d="M41.7187 9.7543
L41.7187 8.9076
" />
<path d="M41.7187 9.1495
L41.7792 9.0286
" />
<path d="M41.7792 9.0286
L41.8397 8.9681
" />
<path d="M41.8397 8.9681
L41.9606 8.9076
" />
<path d="M41.9606 8.9076
L42.0816 8.9076
" />
<path d="M42.3235 8.9076
L42.8073 8.9076
" />
<path d="M42.5049 8.4843
L42.5049 9.5728
" />
<path d="M42.5049 9.5728
L42.5654 9.6938
" />
<path d="M42.5654 9.6938
L42.6864 9.7543
" />
<path d="M42.6864 9.7543
L42.8073 9.7543
" />
<path d="M43.2306 9.7543
L43.2306 8.9076
" />
<path d="M43.2306 8.4843
L43.1702 8.5447
" />
<path d="M43.1702 8.5447
L43.2306 8.6052
" />
<path d="M43.2306 8.6052
L43.2911 8.5447
" />
<path d="M43.2911 8.5447
L43.2306 8.4843
" />
<path d="M43.2306 8.4843
L43.2306 8.6052
" />
<path d="M44.3797 9.6938
L44.2587 9.7543
" />
<path d="M44.2587 9.7543
L44.0168 9.7543
" />
<path d="M44.0168 9.7543
L43.8959 9.6938
" />
<path d="M43.8959 9.6938
L43.8354 9.6333
" />
<path d="M43.8354 9.6333
L43.7749 9.5124
" />
<path d="M43.7749 9.5124
L43.7749 9.1495
" />
<path d="M43.7749 9.1495
L43.8354 9.0286
" />
<path d="M43.8354 9.0286
L43.8959 8.9681
" />
<path d="M43.8959 8.9681
L44.0168 8.9076
" />
<path d="M44.0168 8.9076
L44.2587 8.9076
" />
<path d="M44.2587 8.9076
L44.3797 8.9681
" />
<path d="M45.4683 9.7543
L45.4683 9.0890
" />
<path d="M45.4683 9.0890
L45.4078 8.9681
" />
<path d="M45.4078 8.9681
L45.2868 8.9076
" />
<path d="M45.2868 8.9076
L45.0449 8.9076
" />
<path d="M45.0449 8.9076
L44.9240 8.9681
" />
<path d="M45.4683 9.6938
L45.3473 9.7543
" />
<path d="M45.3473 9.7543
L45.0449 9.7543
" />
<path d="M45.0449 9.7543
L44.9240 9.6938
" />
<path d="M44.9240 9.6938
L44.8635 9.5728
" />
<path d="M44.8635 9.5728
L44.8635 9.4519
" />
<path d="M44.8635 9.4519
L44.9240 9.3309
" />
<path d="M44.9240 9.3309
L45.0449 9.2705
" />
<path d="M45.0449 9.2705
L45.3473 9.2705
" />
<path d="M45.3473 9.2705
L45.4683 9.2100
" />
<path d="M46.2545 9.7543
L46.1335 9.6938
" />
<path d="M46.1335 9.6938
L46.0730 9.5728
" />
<path d="M46.0730 9.5728
L46.0730 8.4843
" />
</g></g>
<g style="fill:none; 
stroke:#AFAFAF; stroke-width:0.1500; stroke-opacity:1; 
stroke-linecap:round; stroke-linejoin:round;">
<g transform="rotate(-90.000000 25.2735 6.6750)">
<text x="25.2735" y="7.1750"
textLength="4.5357" font-size="1.3333" lengthAdjust="spacingAndGlyphs"
text-anchor="middle" opacity="0">REF**</text>
</g>
<g class="stroked-text"><desc>REF**</desc>
<path d="M25.7283 8.0083
L25.2521 8.3417
" />
<path d="M25.7283 8.5798
L24.7283 8.5798
" />
<path d="M24.7283 8.5798
L24.7283 8.1988
" />
<path d="M24.7283 8.1988
L24.7759 8.1036
" />
<path d="M24.7759 8.1036
L24.8236 8.0560
" />
<path d="M24.8236 8.0560
L24.9188 8.0083
" />
<path d="M24.9188 8.0083
L25.0617 8.0083
" />
<path d="M25.0617 8.0083
L25.1569 8.0560
" />
<path d="M25.1569 8.0560
L25.2045 8.1036
" />
<path d="M25.2045 8.1036
L25.2521 8.1988
" />
<path d="M25.2521 8.1988
L25.2521 8.5798
" />
<path d="M25.2045 7.5798
L25.2045 7.2464
" />
<path d="M25.7283 7.1036
L25.7283 7.5798
" />
<path d="M25.7283 7.5798
L24.7283 7.5798
" />
<path d="M24.7283 7.5798
L24.7283 7.1036
" />
<path d="M25.2045 6.3417
L25.2045 6.6750
" />
<path d="M25.7283 6.6750
L24.7283 6.6750
" />
<path d="M24.7283 6.6750
L24.7283 6.1988
" />
<path d="M24.7283 5.6750
L24.9664 5.6750
" />
<path d="M24.8712 5.9131
L24.9664 5.6750
" />
<path d="M24.9664 5.6750
L24.8712 5.4369
" />
<path d="M25.1569 5.8179
L24.9664 5.6750
" />
<path d="M24.9664 5.6750
L25.1569 5.5321
" />
<path d="M24.7283 4.9131
L24.9664 4.9131
" />
<path d="M24.8712 5.1512
L24.9664 4.9131
" />
<path d="M24.9664 4.9131
L24.8712 4.6750
" />
<path d="M25.1569 5.0560
L24.9664 4.9131
" />
<path d="M24.9664 4.9131
L25.1569 4.7702
" />
</g></g>
<g style="fill:none; 
stroke:#AFAFAF; stroke-width:0.1000; stroke-opacity:1; 
stroke-linecap:round; stroke-linejoin:round;">
<path d="M24.2735 1.8250
L24.2735 11.5250
" />
<path d="M24.2735 11.5250
L36.2735 11.5250
" />
<path d="M36.2735 1.8250
L24.2735 1.8250
" />
<path d="M36.2735 11.5250
L36.2735 1.8250
" />
<circle cx="30.2735" cy="6.6750" r="3.0000" /> 
</g> 
</svg>
