<?xml version="1.0" standalone="no"?>
 <!DOCTYPE svg PUBLIC "-//W3C//DTD SVG 1.1//EN" 
 "http://www.w3.org/Graphics/SVG/1.1/DTD/svg11.dtd"> 
<svg
  xmlns:svg="http://www.w3.org/2000/svg"
  xmlns="http://www.w3.org/2000/svg"
  xmlns:xlink="http://www.w3.org/1999/xlink"
  version="1.1"
  width="24.3332mm" height="3.6322mm" viewBox="0.0000 0.0000 24.3332 3.6322">
<title>SVG Image created as working-brd.svg date 2024/04/07 04:49:25 </title>
  <desc>Image generated by PCBNEW </desc>
<g style="fill:#000000; fill-opacity:1.0000;stroke:#000000; stroke-opacity:1.0000;
stroke-linecap:round; stroke-linejoin:round;"
 transform="translate(0 0) scale(1 1)">
<path style="fill:#C83434; fill-opacity:1.0000; stroke:none;fill-rule:evenodd;"
d="M 10.6761,3.1750
10.6761,0.4750
11.4761,0.4750
11.4761,3.1750
Z" /> 
<path style="fill:#C83434; fill-opacity:1.0000; stroke:none;fill-rule:evenodd;"
d="M 12.8761,3.1750
12.8761,0.4750
13.6761,0.4750
13.6761,3.1750
Z" /> 
<path style="fill:#D864FF; fill-opacity:0.4000; stroke:none;fill-rule:evenodd;"
d="M 10.6761,3.1750
10.6761,0.4750
11.4761,0.4750
11.4761,3.1750
Z" /> 
<path style="fill:#D864FF; fill-opacity:0.4000; stroke:none;fill-rule:evenodd;"
d="M 12.8761,3.1750
12.8761,0.4750
13.6761,0.4750
13.6761,3.1750
Z" /> 
<path style="fill:#B4A09A; fill-opacity:0.9000; stroke:none;fill-rule:evenodd;"
d="M 10.6761,3.1750
10.6761,0.4750
11.4761,0.4750
11.4761,3.1750
Z" /> 
<path style="fill:#B4A09A; fill-opacity:0.9000; stroke:none;fill-rule:evenodd;"
d="M 12.8761,3.1750
12.8761,0.4750
13.6761,0.4750
13.6761,3.1750
Z" /> 
</g>
<g style="fill:none; 
stroke:#F2EDA1; stroke-width:0.1588; stroke-opacity:1; 
stroke-linecap:round; stroke-linejoin:round;">
<text x="12.1761" y="2.4600"
textLength="5.6651" font-size="1.6933" lengthAdjust="spacingAndGlyphs"
text-anchor="middle" opacity="0">REF**</text>
<g class="stroked-text"><desc>REF**</desc>
<path d="M10.4828 2.4043
L10.0595 1.7995
" />
<path d="M9.7571 2.4043
L9.7571 1.1343
" />
<path d="M9.7571 1.1343
L10.2409 1.1343
" />
<path d="M10.2409 1.1343
L10.3618 1.1947
" />
<path d="M10.3618 1.1947
L10.4223 1.2552
" />
<path d="M10.4223 1.2552
L10.4828 1.3762
" />
<path d="M10.4828 1.3762
L10.4828 1.5576
" />
<path d="M10.4828 1.5576
L10.4223 1.6786
" />
<path d="M10.4223 1.6786
L10.3618 1.7390
" />
<path d="M10.3618 1.7390
L10.2409 1.7995
" />
<path d="M10.2409 1.7995
L9.7571 1.7995
" />
<path d="M11.0271 1.7390
L11.4504 1.7390
" />
<path d="M11.6318 2.4043
L11.0271 2.4043
" />
<path d="M11.0271 2.4043
L11.0271 1.1343
" />
<path d="M11.0271 1.1343
L11.6318 1.1343
" />
<path d="M12.5995 1.7390
L12.1761 1.7390
" />
<path d="M12.1761 2.4043
L12.1761 1.1343
" />
<path d="M12.1761 1.1343
L12.7809 1.1343
" />
<path d="M13.4461 1.1343
L13.4461 1.4367
" />
<path d="M13.1437 1.3157
L13.4461 1.4367
" />
<path d="M13.4461 1.4367
L13.7485 1.3157
" />
<path d="M13.2647 1.6786
L13.4461 1.4367
" />
<path d="M13.4461 1.4367
L13.6276 1.6786
" />
<path d="M14.4137 1.1343
L14.4137 1.4367
" />
<path d="M14.1114 1.3157
L14.4137 1.4367
" />
<path d="M14.4137 1.4367
L14.7161 1.3157
" />
<path d="M14.2323 1.6786
L14.4137 1.4367
" />
<path d="M14.4137 1.4367
L14.5952 1.6786
" />
</g></g>
<g style="fill:none; 
stroke:#F2EDA1; stroke-width:0.1200; stroke-opacity:1; 
stroke-linecap:round; stroke-linejoin:round;">
<path d="M10.6761 0.2250
L13.6761 0.2250
" />
<path d="M10.6761 3.4250
L13.6761 3.4250
" />
</g>
<g style="fill:none; 
stroke:#FF26E2; stroke-width:0.0500; stroke-opacity:1; 
stroke-linecap:round; stroke-linejoin:round;">
<path d="M10.3761 0.0250
L10.3761 3.6250
" />
<path d="M10.3761 3.6250
L13.9761 3.6250
" />
<path d="M13.9761 0.0250
L10.3761 0.0250
" />
<path d="M13.9761 3.6250
L13.9761 0.0250
" />
</g>
<g style="fill:none; 
stroke:#AFAFAF; stroke-width:0.1588; stroke-opacity:1; 
stroke-linecap:round; stroke-linejoin:round;">
<text x="12.1761" y="2.4600"
textLength="24.3523" font-size="1.6933" lengthAdjust="spacingAndGlyphs"
text-anchor="middle" opacity="0">L_Taiyo-Yuden_MD-3030</text>
<g class="stroked-text"><desc>L_Taiyo-Yuden_MD-3030</desc>
<path d="M1.0183 2.4043
L0.4135 2.4043
" />
<path d="M0.4135 2.4043
L0.4135 1.1343
" />
<path d="M1.1392 2.5252
L2.1068 2.5252
" />
<path d="M2.2278 1.1343
L2.9535 1.1343
" />
<path d="M2.5906 2.4043
L2.5906 1.1343
" />
<path d="M3.9211 2.4043
L3.9211 1.7390
" />
<path d="M3.9211 1.7390
L3.8606 1.6181
" />
<path d="M3.8606 1.6181
L3.7397 1.5576
" />
<path d="M3.7397 1.5576
L3.4978 1.5576
" />
<path d="M3.4978 1.5576
L3.3768 1.6181
" />
<path d="M3.9211 2.3438
L3.8002 2.4043
" />
<path d="M3.8002 2.4043
L3.4978 2.4043
" />
<path d="M3.4978 2.4043
L3.3768 2.3438
" />
<path d="M3.3768 2.3438
L3.3164 2.2228
" />
<path d="M3.3164 2.2228
L3.3164 2.1019
" />
<path d="M3.3164 2.1019
L3.3768 1.9809
" />
<path d="M3.3768 1.9809
L3.4978 1.9205
" />
<path d="M3.4978 1.9205
L3.8002 1.9205
" />
<path d="M3.8002 1.9205
L3.9211 1.8600
" />
<path d="M4.5259 2.4043
L4.5259 1.5576
" />
<path d="M4.5259 1.1343
L4.4654 1.1947
" />
<path d="M4.4654 1.1947
L4.5259 1.2552
" />
<path d="M4.5259 1.2552
L4.5864 1.1947
" />
<path d="M4.5864 1.1947
L4.5259 1.1343
" />
<path d="M4.5259 1.1343
L4.5259 1.2552
" />
<path d="M5.0097 1.5576
L5.3121 2.4043
" />
<path d="M5.6145 1.5576
L5.3121 2.4043
" />
<path d="M5.3121 2.4043
L5.1911 2.7067
" />
<path d="M5.1911 2.7067
L5.1306 2.7671
" />
<path d="M5.1306 2.7671
L5.0097 2.8276
" />
<path d="M6.2797 2.4043
L6.1587 2.3438
" />
<path d="M6.1587 2.3438
L6.0983 2.2833
" />
<path d="M6.0983 2.2833
L6.0378 2.1624
" />
<path d="M6.0378 2.1624
L6.0378 1.7995
" />
<path d="M6.0378 1.7995
L6.0983 1.6786
" />
<path d="M6.0983 1.6786
L6.1587 1.6181
" />
<path d="M6.1587 1.6181
L6.2797 1.5576
" />
<path d="M6.2797 1.5576
L6.4611 1.5576
" />
<path d="M6.4611 1.5576
L6.5821 1.6181
" />
<path d="M6.5821 1.6181
L6.6426 1.6786
" />
<path d="M6.6426 1.6786
L6.7030 1.7995
" />
<path d="M6.7030 1.7995
L6.7030 2.1624
" />
<path d="M6.7030 2.1624
L6.6426 2.2833
" />
<path d="M6.6426 2.2833
L6.5821 2.3438
" />
<path d="M6.5821 2.3438
L6.4611 2.4043
" />
<path d="M6.4611 2.4043
L6.2797 2.4043
" />
<path d="M7.2473 1.9205
L8.2149 1.9205
" />
<path d="M9.0616 1.7995
L9.0616 2.4043
" />
<path d="M8.6383 1.1343
L9.0616 1.7995
" />
<path d="M9.0616 1.7995
L9.4849 1.1343
" />
<path d="M10.4526 1.5576
L10.4526 2.4043
" />
<path d="M9.9083 1.5576
L9.9083 2.2228
" />
<path d="M9.9083 2.2228
L9.9687 2.3438
" />
<path d="M9.9687 2.3438
L10.0897 2.4043
" />
<path d="M10.0897 2.4043
L10.2711 2.4043
" />
<path d="M10.2711 2.4043
L10.3921 2.3438
" />
<path d="M10.3921 2.3438
L10.4526 2.2833
" />
<path d="M11.6016 2.4043
L11.6016 1.1343
" />
<path d="M11.6016 2.3438
L11.4806 2.4043
" />
<path d="M11.4806 2.4043
L11.2387 2.4043
" />
<path d="M11.2387 2.4043
L11.1178 2.3438
" />
<path d="M11.1178 2.3438
L11.0573 2.2833
" />
<path d="M11.0573 2.2833
L10.9968 2.1624
" />
<path d="M10.9968 2.1624
L10.9968 1.7995
" />
<path d="M10.9968 1.7995
L11.0573 1.6786
" />
<path d="M11.0573 1.6786
L11.1178 1.6181
" />
<path d="M11.1178 1.6181
L11.2387 1.5576
" />
<path d="M11.2387 1.5576
L11.4806 1.5576
" />
<path d="M11.4806 1.5576
L11.6016 1.6181
" />
<path d="M12.6902 2.3438
L12.5692 2.4043
" />
<path d="M12.5692 2.4043
L12.3273 2.4043
" />
<path d="M12.3273 2.4043
L12.2064 2.3438
" />
<path d="M12.2064 2.3438
L12.1459 2.2228
" />
<path d="M12.1459 2.2228
L12.1459 1.7390
" />
<path d="M12.1459 1.7390
L12.2064 1.6181
" />
<path d="M12.2064 1.6181
L12.3273 1.5576
" />
<path d="M12.3273 1.5576
L12.5692 1.5576
" />
<path d="M12.5692 1.5576
L12.6902 1.6181
" />
<path d="M12.6902 1.6181
L12.7506 1.7390
" />
<path d="M12.7506 1.7390
L12.7506 1.8600
" />
<path d="M12.7506 1.8600
L12.1459 1.9809
" />
<path d="M13.2949 1.5576
L13.2949 2.4043
" />
<path d="M13.2949 1.6786
L13.3554 1.6181
" />
<path d="M13.3554 1.6181
L13.4764 1.5576
" />
<path d="M13.4764 1.5576
L13.6578 1.5576
" />
<path d="M13.6578 1.5576
L13.7787 1.6181
" />
<path d="M13.7787 1.6181
L13.8392 1.7390
" />
<path d="M13.8392 1.7390
L13.8392 2.4043
" />
<path d="M14.1416 2.5252
L15.1092 2.5252
" />
<path d="M15.4116 2.4043
L15.4116 1.1343
" />
<path d="M15.4116 1.1343
L15.8349 2.0414
" />
<path d="M15.8349 2.0414
L16.2583 1.1343
" />
<path d="M16.2583 1.1343
L16.2583 2.4043
" />
<path d="M16.8630 2.4043
L16.8630 1.1343
" />
<path d="M16.8630 1.1343
L17.1654 1.1343
" />
<path d="M17.1654 1.1343
L17.3468 1.1947
" />
<path d="M17.3468 1.1947
L17.4678 1.3157
" />
<path d="M17.4678 1.3157
L17.5283 1.4367
" />
<path d="M17.5283 1.4367
L17.5887 1.6786
" />
<path d="M17.5887 1.6786
L17.5887 1.8600
" />
<path d="M17.5887 1.8600
L17.5283 2.1019
" />
<path d="M17.5283 2.1019
L17.4678 2.2228
" />
<path d="M17.4678 2.2228
L17.3468 2.3438
" />
<path d="M17.3468 2.3438
L17.1654 2.4043
" />
<path d="M17.1654 2.4043
L16.8630 2.4043
" />
<path d="M18.1330 1.9205
L19.1006 1.9205
" />
<path d="M19.5845 1.1343
L20.3706 1.1343
" />
<path d="M20.3706 1.1343
L19.9473 1.6181
" />
<path d="M19.9473 1.6181
L20.1287 1.6181
" />
<path d="M20.1287 1.6181
L20.2497 1.6786
" />
<path d="M20.2497 1.6786
L20.3102 1.7390
" />
<path d="M20.3102 1.7390
L20.3706 1.8600
" />
<path d="M20.3706 1.8600
L20.3706 2.1624
" />
<path d="M20.3706 2.1624
L20.3102 2.2833
" />
<path d="M20.3102 2.2833
L20.2497 2.3438
" />
<path d="M20.2497 2.3438
L20.1287 2.4043
" />
<path d="M20.1287 2.4043
L19.7659 2.4043
" />
<path d="M19.7659 2.4043
L19.6449 2.3438
" />
<path d="M19.6449 2.3438
L19.5845 2.2833
" />
<path d="M21.1568 1.1343
L21.2778 1.1343
" />
<path d="M21.2778 1.1343
L21.3987 1.1947
" />
<path d="M21.3987 1.1947
L21.4592 1.2552
" />
<path d="M21.4592 1.2552
L21.5197 1.3762
" />
<path d="M21.5197 1.3762
L21.5802 1.6181
" />
<path d="M21.5802 1.6181
L21.5802 1.9205
" />
<path d="M21.5802 1.9205
L21.5197 2.1624
" />
<path d="M21.5197 2.1624
L21.4592 2.2833
" />
<path d="M21.4592 2.2833
L21.3987 2.3438
" />
<path d="M21.3987 2.3438
L21.2778 2.4043
" />
<path d="M21.2778 2.4043
L21.1568 2.4043
" />
<path d="M21.1568 2.4043
L21.0359 2.3438
" />
<path d="M21.0359 2.3438
L20.9754 2.2833
" />
<path d="M20.9754 2.2833
L20.9149 2.1624
" />
<path d="M20.9149 2.1624
L20.8545 1.9205
" />
<path d="M20.8545 1.9205
L20.8545 1.6181
" />
<path d="M20.8545 1.6181
L20.9149 1.3762
" />
<path d="M20.9149 1.3762
L20.9754 1.2552
" />
<path d="M20.9754 1.2552
L21.0359 1.1947
" />
<path d="M21.0359 1.1947
L21.1568 1.1343
" />
<path d="M22.0035 1.1343
L22.7897 1.1343
" />
<path d="M22.7897 1.1343
L22.3664 1.6181
" />
<path d="M22.3664 1.6181
L22.5478 1.6181
" />
<path d="M22.5478 1.6181
L22.6687 1.6786
" />
<path d="M22.6687 1.6786
L22.7292 1.7390
" />
<path d="M22.7292 1.7390
L22.7897 1.8600
" />
<path d="M22.7897 1.8600
L22.7897 2.1624
" />
<path d="M22.7897 2.1624
L22.7292 2.2833
" />
<path d="M22.7292 2.2833
L22.6687 2.3438
" />
<path d="M22.6687 2.3438
L22.5478 2.4043
" />
<path d="M22.5478 2.4043
L22.1849 2.4043
" />
<path d="M22.1849 2.4043
L22.0640 2.3438
" />
<path d="M22.0640 2.3438
L22.0035 2.2833
" />
<path d="M23.5759 1.1343
L23.6968 1.1343
" />
<path d="M23.6968 1.1343
L23.8178 1.1947
" />
<path d="M23.8178 1.1947
L23.8783 1.2552
" />
<path d="M23.8783 1.2552
L23.9387 1.3762
" />
<path d="M23.9387 1.3762
L23.9992 1.6181
" />
<path d="M23.9992 1.6181
L23.9992 1.9205
" />
<path d="M23.9992 1.9205
L23.9387 2.1624
" />
<path d="M23.9387 2.1624
L23.8783 2.2833
" />
<path d="M23.8783 2.2833
L23.8178 2.3438
" />
<path d="M23.8178 2.3438
L23.6968 2.4043
" />
<path d="M23.6968 2.4043
L23.5759 2.4043
" />
<path d="M23.5759 2.4043
L23.4549 2.3438
" />
<path d="M23.4549 2.3438
L23.3945 2.2833
" />
<path d="M23.3945 2.2833
L23.3340 2.1624
" />
<path d="M23.3340 2.1624
L23.2735 1.9205
" />
<path d="M23.2735 1.9205
L23.2735 1.6181
" />
<path d="M23.2735 1.6181
L23.3340 1.3762
" />
<path d="M23.3340 1.3762
L23.3945 1.2552
" />
<path d="M23.3945 1.2552
L23.4549 1.1947
" />
<path d="M23.4549 1.1947
L23.5759 1.1343
" />
</g></g>
<g style="fill:none; 
stroke:#AFAFAF; stroke-width:0.1050; stroke-opacity:1; 
stroke-linecap:round; stroke-linejoin:round;">
<text x="12.1761" y="2.1750"
textLength="3.1750" font-size="0.9333" lengthAdjust="spacingAndGlyphs"
text-anchor="middle" opacity="0">REF**</text>
<g class="stroked-text"><desc>REF**</desc>
<path d="M11.2428 2.1434
L11.0095 1.8100
" />
<path d="M10.8428 2.1434
L10.8428 1.4434
" />
<path d="M10.8428 1.4434
L11.1095 1.4434
" />
<path d="M11.1095 1.4434
L11.1761 1.4767
" />
<path d="M11.1761 1.4767
L11.2095 1.5100
" />
<path d="M11.2095 1.5100
L11.2428 1.5767
" />
<path d="M11.2428 1.5767
L11.2428 1.6767
" />
<path d="M11.2428 1.6767
L11.2095 1.7434
" />
<path d="M11.2095 1.7434
L11.1761 1.7767
" />
<path d="M11.1761 1.7767
L11.1095 1.8100
" />
<path d="M11.1095 1.8100
L10.8428 1.8100
" />
<path d="M11.5428 1.7767
L11.7761 1.7767
" />
<path d="M11.8761 2.1434
L11.5428 2.1434
" />
<path d="M11.5428 2.1434
L11.5428 1.4434
" />
<path d="M11.5428 1.4434
L11.8761 1.4434
" />
<path d="M12.4095 1.7767
L12.1761 1.7767
" />
<path d="M12.1761 2.1434
L12.1761 1.4434
" />
<path d="M12.1761 1.4434
L12.5095 1.4434
" />
<path d="M12.8761 1.4434
L12.8761 1.6100
" />
<path d="M12.7095 1.5434
L12.8761 1.6100
" />
<path d="M12.8761 1.6100
L13.0428 1.5434
" />
<path d="M12.7761 1.7434
L12.8761 1.6100
" />
<path d="M12.8761 1.6100
L12.9761 1.7434
" />
<path d="M13.4095 1.4434
L13.4095 1.6100
" />
<path d="M13.2428 1.5434
L13.4095 1.6100
" />
<path d="M13.4095 1.6100
L13.5761 1.5434
" />
<path d="M13.3095 1.7434
L13.4095 1.6100
" />
<path d="M13.4095 1.6100
L13.5095 1.7434
" />
</g></g>
<g style="fill:none; 
stroke:#AFAFAF; stroke-width:0.1000; stroke-opacity:1; 
stroke-linecap:round; stroke-linejoin:round;">
<path d="M10.6761 0.3250
L10.6761 3.3250
" />
<path d="M10.6761 3.3250
L13.6761 3.3250
" />
<path d="M13.6761 0.3250
L10.6761 0.3250
" />
<path d="M13.6761 3.3250
L13.6761 0.3250
" />
</g> 
</svg>
