<?xml version="1.0" standalone="no"?>
 <!DOCTYPE svg PUBLIC "-//W3C//DTD SVG 1.1//EN" 
 "http://www.w3.org/Graphics/SVG/1.1/DTD/svg11.dtd"> 
<svg
  xmlns:svg="http://www.w3.org/2000/svg"
  xmlns="http://www.w3.org/2000/svg"
  xmlns:xlink="http://www.w3.org/1999/xlink"
  version="1.1"
  width="44.6532mm" height="6.2992mm" viewBox="0.0000 0.0000 44.6532 6.2992">
<title>SVG Image created as working-brd.svg date 2024/04/20 23:56:08 </title>
  <desc>Image generated by PCBNEW </desc>
<g style="fill:#000000; fill-opacity:1.0000;stroke:#000000; stroke-opacity:1.0000;
stroke-linecap:round; stroke-linejoin:round;"
 transform="translate(0 0) scale(1 1)">
<path style="fill:#C83434; fill-opacity:1.0000; stroke:none;fill-rule:evenodd;"
d="M 19.4611,1.4675
19.4659,1.4436
19.4794,1.4233
19.4997,1.4098
19.5236,1.4050
20.2486,1.4050
20.2725,1.4098
20.2928,1.4233
20.3064,1.4436
20.3111,1.4675
20.3111,1.5925
20.3064,1.6164
20.2928,1.6367
20.2725,1.6502
20.2486,1.6550
19.5236,1.6550
19.4997,1.6502
19.4794,1.6367
19.4659,1.6164
19.4611,1.5925
Z" /> 
<path style="fill:#C83434; fill-opacity:1.0000; stroke:none;fill-rule:evenodd;"
d="M 19.4611,2.1175
19.4659,2.0936
19.4794,2.0733
19.4997,2.0598
19.5236,2.0550
20.2486,2.0550
20.2725,2.0598
20.2928,2.0733
20.3064,2.0936
20.3111,2.1175
20.3111,2.2425
20.3064,2.2664
20.2928,2.2867
20.2725,2.3002
20.2486,2.3050
19.5236,2.3050
19.4997,2.3002
19.4794,2.2867
19.4659,2.2664
19.4611,2.2425
Z" /> 
<path style="fill:#C83434; fill-opacity:1.0000; stroke:none;fill-rule:evenodd;"
d="M 19.4611,2.7675
19.4659,2.7436
19.4794,2.7233
19.4997,2.7098
19.5236,2.7050
20.2486,2.7050
20.2725,2.7098
20.2928,2.7233
20.3064,2.7436
20.3111,2.7675
20.3111,2.8925
20.3064,2.9164
20.2928,2.9367
20.2725,2.9502
20.2486,2.9550
19.5236,2.9550
19.4997,2.9502
19.4794,2.9367
19.4659,2.9164
19.4611,2.8925
Z" /> 
<path style="fill:#C83434; fill-opacity:1.0000; stroke:none;fill-rule:evenodd;"
d="M 19.4611,3.4175
19.4659,3.3936
19.4794,3.3733
19.4997,3.3598
19.5236,3.3550
20.2486,3.3550
20.2725,3.3598
20.2928,3.3733
20.3064,3.3936
20.3111,3.4175
20.3111,3.5425
20.3064,3.5664
20.2928,3.5867
20.2725,3.6002
20.2486,3.6050
19.5236,3.6050
19.4997,3.6002
19.4794,3.5867
19.4659,3.5664
19.4611,3.5425
Z" /> 
<path style="fill:#C83434; fill-opacity:1.0000; stroke:none;fill-rule:evenodd;"
d="M 19.4611,4.0675
19.4659,4.0436
19.4794,4.0233
19.4997,4.0098
19.5236,4.0050
20.2486,4.0050
20.2725,4.0098
20.2928,4.0233
20.3064,4.0436
20.3111,4.0675
20.3111,4.1925
20.3064,4.2164
20.2928,4.2367
20.2725,4.2502
20.2486,4.2550
19.5236,4.2550
19.4997,4.2502
19.4794,4.2367
19.4659,4.2164
19.4611,4.1925
Z" /> 
<path style="fill:#C83434; fill-opacity:1.0000; stroke:none;fill-rule:evenodd;"
d="M 19.4611,4.7175
19.4659,4.6936
19.4794,4.6733
19.4997,4.6598
19.5236,4.6550
20.2486,4.6550
20.2725,4.6598
20.2928,4.6733
20.3064,4.6936
20.3111,4.7175
20.3111,4.8425
20.3064,4.8664
20.2928,4.8867
20.2725,4.9002
20.2486,4.9050
19.5236,4.9050
19.4997,4.9002
19.4794,4.8867
19.4659,4.8664
19.4611,4.8425
Z" /> 
<path style="fill:#C83434; fill-opacity:1.0000; stroke:none;fill-rule:evenodd;"
d="M 20.5861,5.2425
20.5909,5.2186
20.6044,5.1983
20.6247,5.1848
20.6486,5.1800
20.7736,5.1800
20.7975,5.1848
20.8178,5.1983
20.8314,5.2186
20.8361,5.2425
20.8361,5.9675
20.8314,5.9914
20.8178,6.0117
20.7975,6.0252
20.7736,6.0300
20.6486,6.0300
20.6247,6.0252
20.6044,6.0117
20.5909,5.9914
20.5861,5.9675
Z" /> 
<path style="fill:#C83434; fill-opacity:1.0000; stroke:none;fill-rule:evenodd;"
d="M 21.2361,5.2425
21.2409,5.2186
21.2544,5.1983
21.2747,5.1848
21.2986,5.1800
21.4236,5.1800
21.4475,5.1848
21.4678,5.1983
21.4814,5.2186
21.4861,5.2425
21.4861,5.9675
21.4814,5.9914
21.4678,6.0117
21.4475,6.0252
21.4236,6.0300
21.2986,6.0300
21.2747,6.0252
21.2544,6.0117
21.2409,5.9914
21.2361,5.9675
Z" /> 
<path style="fill:#C83434; fill-opacity:1.0000; stroke:none;fill-rule:evenodd;"
d="M 21.8861,5.2425
21.8909,5.2186
21.9044,5.1983
21.9247,5.1848
21.9486,5.1800
22.0736,5.1800
22.0975,5.1848
22.1178,5.1983
22.1314,5.2186
22.1361,5.2425
22.1361,5.9675
22.1314,5.9914
22.1178,6.0117
22.0975,6.0252
22.0736,6.0300
21.9486,6.0300
21.9247,6.0252
21.9044,6.0117
21.8909,5.9914
21.8861,5.9675
Z" /> 
<path style="fill:#C83434; fill-opacity:1.0000; stroke:none;fill-rule:evenodd;"
d="M 22.5361,5.2425
22.5409,5.2186
22.5544,5.1983
22.5747,5.1848
22.5986,5.1800
22.7236,5.1800
22.7475,5.1848
22.7678,5.1983
22.7814,5.2186
22.7861,5.2425
22.7861,5.9675
22.7814,5.9914
22.7678,6.0117
22.7475,6.0252
22.7236,6.0300
22.5986,6.0300
22.5747,6.0252
22.5544,6.0117
22.5409,5.9914
22.5361,5.9675
Z" /> 
<path style="fill:#C83434; fill-opacity:1.0000; stroke:none;fill-rule:evenodd;"
d="M 23.1861,5.2425
23.1909,5.2186
23.2044,5.1983
23.2247,5.1848
23.2486,5.1800
23.3736,5.1800
23.3975,5.1848
23.4178,5.1983
23.4314,5.2186
23.4361,5.2425
23.4361,5.9675
23.4314,5.9914
23.4178,6.0117
23.3975,6.0252
23.3736,6.0300
23.2486,6.0300
23.2247,6.0252
23.2044,6.0117
23.1909,5.9914
23.1861,5.9675
Z" /> 
<path style="fill:#C83434; fill-opacity:1.0000; stroke:none;fill-rule:evenodd;"
d="M 23.8361,5.2425
23.8409,5.2186
23.8544,5.1983
23.8747,5.1848
23.8986,5.1800
24.0236,5.1800
24.0475,5.1848
24.0678,5.1983
24.0814,5.2186
24.0861,5.2425
24.0861,5.9675
24.0814,5.9914
24.0678,6.0117
24.0475,6.0252
24.0236,6.0300
23.8986,6.0300
23.8747,6.0252
23.8544,6.0117
23.8409,5.9914
23.8361,5.9675
Z" /> 
<path style="fill:#C83434; fill-opacity:1.0000; stroke:none;fill-rule:evenodd;"
d="M 24.3611,4.7175
24.3659,4.6936
24.3794,4.6733
24.3997,4.6598
24.4236,4.6550
25.1486,4.6550
25.1725,4.6598
25.1928,4.6733
25.2064,4.6936
25.2111,4.7175
25.2111,4.8425
25.2064,4.8664
25.1928,4.8867
25.1725,4.9002
25.1486,4.9050
24.4236,4.9050
24.3997,4.9002
24.3794,4.8867
24.3659,4.8664
24.3611,4.8425
Z" /> 
<path style="fill:#C83434; fill-opacity:1.0000; stroke:none;fill-rule:evenodd;"
d="M 24.3611,4.0675
24.3659,4.0436
24.3794,4.0233
24.3997,4.0098
24.4236,4.0050
25.1486,4.0050
25.1725,4.0098
25.1928,4.0233
25.2064,4.0436
25.2111,4.0675
25.2111,4.1925
25.2064,4.2164
25.1928,4.2367
25.1725,4.2502
25.1486,4.2550
24.4236,4.2550
24.3997,4.2502
24.3794,4.2367
24.3659,4.2164
24.3611,4.1925
Z" /> 
<path style="fill:#C83434; fill-opacity:1.0000; stroke:none;fill-rule:evenodd;"
d="M 24.3611,3.4175
24.3659,3.3936
24.3794,3.3733
24.3997,3.3598
24.4236,3.3550
25.1486,3.3550
25.1725,3.3598
25.1928,3.3733
25.2064,3.3936
25.2111,3.4175
25.2111,3.5425
25.2064,3.5664
25.1928,3.5867
25.1725,3.6002
25.1486,3.6050
24.4236,3.6050
24.3997,3.6002
24.3794,3.5867
24.3659,3.5664
24.3611,3.5425
Z" /> 
<path style="fill:#C83434; fill-opacity:1.0000; stroke:none;fill-rule:evenodd;"
d="M 24.3611,2.7675
24.3659,2.7436
24.3794,2.7233
24.3997,2.7098
24.4236,2.7050
25.1486,2.7050
25.1725,2.7098
25.1928,2.7233
25.2064,2.7436
25.2111,2.7675
25.2111,2.8925
25.2064,2.9164
25.1928,2.9367
25.1725,2.9502
25.1486,2.9550
24.4236,2.9550
24.3997,2.9502
24.3794,2.9367
24.3659,2.9164
24.3611,2.8925
Z" /> 
<path style="fill:#C83434; fill-opacity:1.0000; stroke:none;fill-rule:evenodd;"
d="M 24.3611,2.1175
24.3659,2.0936
24.3794,2.0733
24.3997,2.0598
24.4236,2.0550
25.1486,2.0550
25.1725,2.0598
25.1928,2.0733
25.2064,2.0936
25.2111,2.1175
25.2111,2.2425
25.2064,2.2664
25.1928,2.2867
25.1725,2.3002
25.1486,2.3050
24.4236,2.3050
24.3997,2.3002
24.3794,2.2867
24.3659,2.2664
24.3611,2.2425
Z" /> 
<path style="fill:#C83434; fill-opacity:1.0000; stroke:none;fill-rule:evenodd;"
d="M 24.3611,1.4675
24.3659,1.4436
24.3794,1.4233
24.3997,1.4098
24.4236,1.4050
25.1486,1.4050
25.1725,1.4098
25.1928,1.4233
25.2064,1.4436
25.2111,1.4675
25.2111,1.5925
25.2064,1.6164
25.1928,1.6367
25.1725,1.6502
25.1486,1.6550
24.4236,1.6550
24.3997,1.6502
24.3794,1.6367
24.3659,1.6164
24.3611,1.5925
Z" /> 
<path style="fill:#C83434; fill-opacity:1.0000; stroke:none;fill-rule:evenodd;"
d="M 23.8361,0.3425
23.8409,0.3186
23.8544,0.2983
23.8747,0.2848
23.8986,0.2800
24.0236,0.2800
24.0475,0.2848
24.0678,0.2983
24.0814,0.3186
24.0861,0.3425
24.0861,1.0675
24.0814,1.0914
24.0678,1.1117
24.0475,1.1252
24.0236,1.1300
23.8986,1.1300
23.8747,1.1252
23.8544,1.1117
23.8409,1.0914
23.8361,1.0675
Z" /> 
<path style="fill:#C83434; fill-opacity:1.0000; stroke:none;fill-rule:evenodd;"
d="M 23.1861,0.3425
23.1909,0.3186
23.2044,0.2983
23.2247,0.2848
23.2486,0.2800
23.3736,0.2800
23.3975,0.2848
23.4178,0.2983
23.4314,0.3186
23.4361,0.3425
23.4361,1.0675
23.4314,1.0914
23.4178,1.1117
23.3975,1.1252
23.3736,1.1300
23.2486,1.1300
23.2247,1.1252
23.2044,1.1117
23.1909,1.0914
23.1861,1.0675
Z" /> 
<path style="fill:#C83434; fill-opacity:1.0000; stroke:none;fill-rule:evenodd;"
d="M 22.5361,0.3425
22.5409,0.3186
22.5544,0.2983
22.5747,0.2848
22.5986,0.2800
22.7236,0.2800
22.7475,0.2848
22.7678,0.2983
22.7814,0.3186
22.7861,0.3425
22.7861,1.0675
22.7814,1.0914
22.7678,1.1117
22.7475,1.1252
22.7236,1.1300
22.5986,1.1300
22.5747,1.1252
22.5544,1.1117
22.5409,1.0914
22.5361,1.0675
Z" /> 
<path style="fill:#C83434; fill-opacity:1.0000; stroke:none;fill-rule:evenodd;"
d="M 21.8861,0.3425
21.8909,0.3186
21.9044,0.2983
21.9247,0.2848
21.9486,0.2800
22.0736,0.2800
22.0975,0.2848
22.1178,0.2983
22.1314,0.3186
22.1361,0.3425
22.1361,1.0675
22.1314,1.0914
22.1178,1.1117
22.0975,1.1252
22.0736,1.1300
21.9486,1.1300
21.9247,1.1252
21.9044,1.1117
21.8909,1.0914
21.8861,1.0675
Z" /> 
<path style="fill:#C83434; fill-opacity:1.0000; stroke:none;fill-rule:evenodd;"
d="M 21.2361,0.3425
21.2409,0.3186
21.2544,0.2983
21.2747,0.2848
21.2986,0.2800
21.4236,0.2800
21.4475,0.2848
21.4678,0.2983
21.4814,0.3186
21.4861,0.3425
21.4861,1.0675
21.4814,1.0914
21.4678,1.1117
21.4475,1.1252
21.4236,1.1300
21.2986,1.1300
21.2747,1.1252
21.2544,1.1117
21.2409,1.0914
21.2361,1.0675
Z" /> 
<path style="fill:#C83434; fill-opacity:1.0000; stroke:none;fill-rule:evenodd;"
d="M 20.5861,0.3425
20.5909,0.3186
20.6044,0.2983
20.6247,0.2848
20.6486,0.2800
20.7736,0.2800
20.7975,0.2848
20.8178,0.2983
20.8314,0.3186
20.8361,0.3425
20.8361,1.0675
20.8314,1.0914
20.8178,1.1117
20.7975,1.1252
20.7736,1.1300
20.6486,1.1300
20.6247,1.1252
20.6044,1.1117
20.5909,1.0914
20.5861,1.0675
Z" /> 
<path style="fill:#C83434; fill-opacity:1.0000; stroke:none;fill-rule:evenodd;"
d="M 20.6361,4.8550
20.6361,1.4550
24.0361,1.4550
24.0361,4.8550
Z" /> 
<path style="fill:#D864FF; fill-opacity:0.4000; stroke:none;fill-rule:evenodd;"
d="M 19.4611,1.4675
19.4659,1.4436
19.4794,1.4233
19.4997,1.4098
19.5236,1.4050
20.2486,1.4050
20.2725,1.4098
20.2928,1.4233
20.3064,1.4436
20.3111,1.4675
20.3111,1.5925
20.3064,1.6164
20.2928,1.6367
20.2725,1.6502
20.2486,1.6550
19.5236,1.6550
19.4997,1.6502
19.4794,1.6367
19.4659,1.6164
19.4611,1.5925
Z" /> 
<path style="fill:#D864FF; fill-opacity:0.4000; stroke:none;fill-rule:evenodd;"
d="M 19.4611,2.1175
19.4659,2.0936
19.4794,2.0733
19.4997,2.0598
19.5236,2.0550
20.2486,2.0550
20.2725,2.0598
20.2928,2.0733
20.3064,2.0936
20.3111,2.1175
20.3111,2.2425
20.3064,2.2664
20.2928,2.2867
20.2725,2.3002
20.2486,2.3050
19.5236,2.3050
19.4997,2.3002
19.4794,2.2867
19.4659,2.2664
19.4611,2.2425
Z" /> 
<path style="fill:#D864FF; fill-opacity:0.4000; stroke:none;fill-rule:evenodd;"
d="M 19.4611,2.7675
19.4659,2.7436
19.4794,2.7233
19.4997,2.7098
19.5236,2.7050
20.2486,2.7050
20.2725,2.7098
20.2928,2.7233
20.3064,2.7436
20.3111,2.7675
20.3111,2.8925
20.3064,2.9164
20.2928,2.9367
20.2725,2.9502
20.2486,2.9550
19.5236,2.9550
19.4997,2.9502
19.4794,2.9367
19.4659,2.9164
19.4611,2.8925
Z" /> 
<path style="fill:#D864FF; fill-opacity:0.4000; stroke:none;fill-rule:evenodd;"
d="M 19.4611,3.4175
19.4659,3.3936
19.4794,3.3733
19.4997,3.3598
19.5236,3.3550
20.2486,3.3550
20.2725,3.3598
20.2928,3.3733
20.3064,3.3936
20.3111,3.4175
20.3111,3.5425
20.3064,3.5664
20.2928,3.5867
20.2725,3.6002
20.2486,3.6050
19.5236,3.6050
19.4997,3.6002
19.4794,3.5867
19.4659,3.5664
19.4611,3.5425
Z" /> 
<path style="fill:#D864FF; fill-opacity:0.4000; stroke:none;fill-rule:evenodd;"
d="M 19.4611,4.0675
19.4659,4.0436
19.4794,4.0233
19.4997,4.0098
19.5236,4.0050
20.2486,4.0050
20.2725,4.0098
20.2928,4.0233
20.3064,4.0436
20.3111,4.0675
20.3111,4.1925
20.3064,4.2164
20.2928,4.2367
20.2725,4.2502
20.2486,4.2550
19.5236,4.2550
19.4997,4.2502
19.4794,4.2367
19.4659,4.2164
19.4611,4.1925
Z" /> 
<path style="fill:#D864FF; fill-opacity:0.4000; stroke:none;fill-rule:evenodd;"
d="M 19.4611,4.7175
19.4659,4.6936
19.4794,4.6733
19.4997,4.6598
19.5236,4.6550
20.2486,4.6550
20.2725,4.6598
20.2928,4.6733
20.3064,4.6936
20.3111,4.7175
20.3111,4.8425
20.3064,4.8664
20.2928,4.8867
20.2725,4.9002
20.2486,4.9050
19.5236,4.9050
19.4997,4.9002
19.4794,4.8867
19.4659,4.8664
19.4611,4.8425
Z" /> 
<path style="fill:#D864FF; fill-opacity:0.4000; stroke:none;fill-rule:evenodd;"
d="M 20.5861,5.2425
20.5909,5.2186
20.6044,5.1983
20.6247,5.1848
20.6486,5.1800
20.7736,5.1800
20.7975,5.1848
20.8178,5.1983
20.8314,5.2186
20.8361,5.2425
20.8361,5.9675
20.8314,5.9914
20.8178,6.0117
20.7975,6.0252
20.7736,6.0300
20.6486,6.0300
20.6247,6.0252
20.6044,6.0117
20.5909,5.9914
20.5861,5.9675
Z" /> 
<path style="fill:#D864FF; fill-opacity:0.4000; stroke:none;fill-rule:evenodd;"
d="M 21.2361,5.2425
21.2409,5.2186
21.2544,5.1983
21.2747,5.1848
21.2986,5.1800
21.4236,5.1800
21.4475,5.1848
21.4678,5.1983
21.4814,5.2186
21.4861,5.2425
21.4861,5.9675
21.4814,5.9914
21.4678,6.0117
21.4475,6.0252
21.4236,6.0300
21.2986,6.0300
21.2747,6.0252
21.2544,6.0117
21.2409,5.9914
21.2361,5.9675
Z" /> 
<path style="fill:#D864FF; fill-opacity:0.4000; stroke:none;fill-rule:evenodd;"
d="M 21.8861,5.2425
21.8909,5.2186
21.9044,5.1983
21.9247,5.1848
21.9486,5.1800
22.0736,5.1800
22.0975,5.1848
22.1178,5.1983
22.1314,5.2186
22.1361,5.2425
22.1361,5.9675
22.1314,5.9914
22.1178,6.0117
22.0975,6.0252
22.0736,6.0300
21.9486,6.0300
21.9247,6.0252
21.9044,6.0117
21.8909,5.9914
21.8861,5.9675
Z" /> 
<path style="fill:#D864FF; fill-opacity:0.4000; stroke:none;fill-rule:evenodd;"
d="M 22.5361,5.2425
22.5409,5.2186
22.5544,5.1983
22.5747,5.1848
22.5986,5.1800
22.7236,5.1800
22.7475,5.1848
22.7678,5.1983
22.7814,5.2186
22.7861,5.2425
22.7861,5.9675
22.7814,5.9914
22.7678,6.0117
22.7475,6.0252
22.7236,6.0300
22.5986,6.0300
22.5747,6.0252
22.5544,6.0117
22.5409,5.9914
22.5361,5.9675
Z" /> 
<path style="fill:#D864FF; fill-opacity:0.4000; stroke:none;fill-rule:evenodd;"
d="M 23.1861,5.2425
23.1909,5.2186
23.2044,5.1983
23.2247,5.1848
23.2486,5.1800
23.3736,5.1800
23.3975,5.1848
23.4178,5.1983
23.4314,5.2186
23.4361,5.2425
23.4361,5.9675
23.4314,5.9914
23.4178,6.0117
23.3975,6.0252
23.3736,6.0300
23.2486,6.0300
23.2247,6.0252
23.2044,6.0117
23.1909,5.9914
23.1861,5.9675
Z" /> 
<path style="fill:#D864FF; fill-opacity:0.4000; stroke:none;fill-rule:evenodd;"
d="M 23.8361,5.2425
23.8409,5.2186
23.8544,5.1983
23.8747,5.1848
23.8986,5.1800
24.0236,5.1800
24.0475,5.1848
24.0678,5.1983
24.0814,5.2186
24.0861,5.2425
24.0861,5.9675
24.0814,5.9914
24.0678,6.0117
24.0475,6.0252
24.0236,6.0300
23.8986,6.0300
23.8747,6.0252
23.8544,6.0117
23.8409,5.9914
23.8361,5.9675
Z" /> 
<path style="fill:#D864FF; fill-opacity:0.4000; stroke:none;fill-rule:evenodd;"
d="M 24.3611,4.7175
24.3659,4.6936
24.3794,4.6733
24.3997,4.6598
24.4236,4.6550
25.1486,4.6550
25.1725,4.6598
25.1928,4.6733
25.2064,4.6936
25.2111,4.7175
25.2111,4.8425
25.2064,4.8664
25.1928,4.8867
25.1725,4.9002
25.1486,4.9050
24.4236,4.9050
24.3997,4.9002
24.3794,4.8867
24.3659,4.8664
24.3611,4.8425
Z" /> 
<path style="fill:#D864FF; fill-opacity:0.4000; stroke:none;fill-rule:evenodd;"
d="M 24.3611,4.0675
24.3659,4.0436
24.3794,4.0233
24.3997,4.0098
24.4236,4.0050
25.1486,4.0050
25.1725,4.0098
25.1928,4.0233
25.2064,4.0436
25.2111,4.0675
25.2111,4.1925
25.2064,4.2164
25.1928,4.2367
25.1725,4.2502
25.1486,4.2550
24.4236,4.2550
24.3997,4.2502
24.3794,4.2367
24.3659,4.2164
24.3611,4.1925
Z" /> 
<path style="fill:#D864FF; fill-opacity:0.4000; stroke:none;fill-rule:evenodd;"
d="M 24.3611,3.4175
24.3659,3.3936
24.3794,3.3733
24.3997,3.3598
24.4236,3.3550
25.1486,3.3550
25.1725,3.3598
25.1928,3.3733
25.2064,3.3936
25.2111,3.4175
25.2111,3.5425
25.2064,3.5664
25.1928,3.5867
25.1725,3.6002
25.1486,3.6050
24.4236,3.6050
24.3997,3.6002
24.3794,3.5867
24.3659,3.5664
24.3611,3.5425
Z" /> 
<path style="fill:#D864FF; fill-opacity:0.4000; stroke:none;fill-rule:evenodd;"
d="M 24.3611,2.7675
24.3659,2.7436
24.3794,2.7233
24.3997,2.7098
24.4236,2.7050
25.1486,2.7050
25.1725,2.7098
25.1928,2.7233
25.2064,2.7436
25.2111,2.7675
25.2111,2.8925
25.2064,2.9164
25.1928,2.9367
25.1725,2.9502
25.1486,2.9550
24.4236,2.9550
24.3997,2.9502
24.3794,2.9367
24.3659,2.9164
24.3611,2.8925
Z" /> 
<path style="fill:#D864FF; fill-opacity:0.4000; stroke:none;fill-rule:evenodd;"
d="M 24.3611,2.1175
24.3659,2.0936
24.3794,2.0733
24.3997,2.0598
24.4236,2.0550
25.1486,2.0550
25.1725,2.0598
25.1928,2.0733
25.2064,2.0936
25.2111,2.1175
25.2111,2.2425
25.2064,2.2664
25.1928,2.2867
25.1725,2.3002
25.1486,2.3050
24.4236,2.3050
24.3997,2.3002
24.3794,2.2867
24.3659,2.2664
24.3611,2.2425
Z" /> 
<path style="fill:#D864FF; fill-opacity:0.4000; stroke:none;fill-rule:evenodd;"
d="M 24.3611,1.4675
24.3659,1.4436
24.3794,1.4233
24.3997,1.4098
24.4236,1.4050
25.1486,1.4050
25.1725,1.4098
25.1928,1.4233
25.2064,1.4436
25.2111,1.4675
25.2111,1.5925
25.2064,1.6164
25.1928,1.6367
25.1725,1.6502
25.1486,1.6550
24.4236,1.6550
24.3997,1.6502
24.3794,1.6367
24.3659,1.6164
24.3611,1.5925
Z" /> 
<path style="fill:#D864FF; fill-opacity:0.4000; stroke:none;fill-rule:evenodd;"
d="M 23.8361,0.3425
23.8409,0.3186
23.8544,0.2983
23.8747,0.2848
23.8986,0.2800
24.0236,0.2800
24.0475,0.2848
24.0678,0.2983
24.0814,0.3186
24.0861,0.3425
24.0861,1.0675
24.0814,1.0914
24.0678,1.1117
24.0475,1.1252
24.0236,1.1300
23.8986,1.1300
23.8747,1.1252
23.8544,1.1117
23.8409,1.0914
23.8361,1.0675
Z" /> 
<path style="fill:#D864FF; fill-opacity:0.4000; stroke:none;fill-rule:evenodd;"
d="M 23.1861,0.3425
23.1909,0.3186
23.2044,0.2983
23.2247,0.2848
23.2486,0.2800
23.3736,0.2800
23.3975,0.2848
23.4178,0.2983
23.4314,0.3186
23.4361,0.3425
23.4361,1.0675
23.4314,1.0914
23.4178,1.1117
23.3975,1.1252
23.3736,1.1300
23.2486,1.1300
23.2247,1.1252
23.2044,1.1117
23.1909,1.0914
23.1861,1.0675
Z" /> 
<path style="fill:#D864FF; fill-opacity:0.4000; stroke:none;fill-rule:evenodd;"
d="M 22.5361,0.3425
22.5409,0.3186
22.5544,0.2983
22.5747,0.2848
22.5986,0.2800
22.7236,0.2800
22.7475,0.2848
22.7678,0.2983
22.7814,0.3186
22.7861,0.3425
22.7861,1.0675
22.7814,1.0914
22.7678,1.1117
22.7475,1.1252
22.7236,1.1300
22.5986,1.1300
22.5747,1.1252
22.5544,1.1117
22.5409,1.0914
22.5361,1.0675
Z" /> 
<path style="fill:#D864FF; fill-opacity:0.4000; stroke:none;fill-rule:evenodd;"
d="M 21.8861,0.3425
21.8909,0.3186
21.9044,0.2983
21.9247,0.2848
21.9486,0.2800
22.0736,0.2800
22.0975,0.2848
22.1178,0.2983
22.1314,0.3186
22.1361,0.3425
22.1361,1.0675
22.1314,1.0914
22.1178,1.1117
22.0975,1.1252
22.0736,1.1300
21.9486,1.1300
21.9247,1.1252
21.9044,1.1117
21.8909,1.0914
21.8861,1.0675
Z" /> 
<path style="fill:#D864FF; fill-opacity:0.4000; stroke:none;fill-rule:evenodd;"
d="M 21.2361,0.3425
21.2409,0.3186
21.2544,0.2983
21.2747,0.2848
21.2986,0.2800
21.4236,0.2800
21.4475,0.2848
21.4678,0.2983
21.4814,0.3186
21.4861,0.3425
21.4861,1.0675
21.4814,1.0914
21.4678,1.1117
21.4475,1.1252
21.4236,1.1300
21.2986,1.1300
21.2747,1.1252
21.2544,1.1117
21.2409,1.0914
21.2361,1.0675
Z" /> 
<path style="fill:#D864FF; fill-opacity:0.4000; stroke:none;fill-rule:evenodd;"
d="M 20.5861,0.3425
20.5909,0.3186
20.6044,0.2983
20.6247,0.2848
20.6486,0.2800
20.7736,0.2800
20.7975,0.2848
20.8178,0.2983
20.8314,0.3186
20.8361,0.3425
20.8361,1.0675
20.8314,1.0914
20.8178,1.1117
20.7975,1.1252
20.7736,1.1300
20.6486,1.1300
20.6247,1.1252
20.6044,1.1117
20.5909,1.0914
20.5861,1.0675
Z" /> 
<path style="fill:#D864FF; fill-opacity:0.4000; stroke:none;fill-rule:evenodd;"
d="M 20.6361,4.8550
20.6361,1.4550
24.0361,1.4550
24.0361,4.8550
Z" /> 
<path style="fill:#B4A09A; fill-opacity:0.9000; stroke:none;fill-rule:evenodd;"
d="M 20.8011,1.8700
20.8202,1.7743
20.8743,1.6932
20.9555,1.6390
21.0511,1.6200
21.9211,1.6200
22.0168,1.6390
22.0979,1.6932
22.1521,1.7743
22.1711,1.8700
22.1711,2.7400
22.1521,2.8357
22.0979,2.9168
22.0168,2.9710
21.9211,2.9900
21.0511,2.9900
20.9555,2.9710
20.8743,2.9168
20.8202,2.8357
20.8011,2.7400
Z" /> 
<path style="fill:#B4A09A; fill-opacity:0.9000; stroke:none;fill-rule:evenodd;"
d="M 20.8011,3.5700
20.8202,3.4743
20.8743,3.3932
20.9555,3.3390
21.0511,3.3200
21.9211,3.3200
22.0168,3.3390
22.0979,3.3932
22.1521,3.4743
22.1711,3.5700
22.1711,4.4400
22.1521,4.5357
22.0979,4.6168
22.0168,4.6710
21.9211,4.6900
21.0511,4.6900
20.9555,4.6710
20.8743,4.6168
20.8202,4.5357
20.8011,4.4400
Z" /> 
<path style="fill:#B4A09A; fill-opacity:0.9000; stroke:none;fill-rule:evenodd;"
d="M 22.5011,1.8700
22.5202,1.7743
22.5743,1.6932
22.6555,1.6390
22.7511,1.6200
23.6211,1.6200
23.7168,1.6390
23.7979,1.6932
23.8521,1.7743
23.8711,1.8700
23.8711,2.7400
23.8521,2.8357
23.7979,2.9168
23.7168,2.9710
23.6211,2.9900
22.7511,2.9900
22.6555,2.9710
22.5743,2.9168
22.5202,2.8357
22.5011,2.7400
Z" /> 
<path style="fill:#B4A09A; fill-opacity:0.9000; stroke:none;fill-rule:evenodd;"
d="M 22.5011,3.5700
22.5202,3.4743
22.5743,3.3932
22.6555,3.3390
22.7511,3.3200
23.6211,3.3200
23.7168,3.3390
23.7979,3.3932
23.8521,3.4743
23.8711,3.5700
23.8711,4.4400
23.8521,4.5357
23.7979,4.6168
23.7168,4.6710
23.6211,4.6900
22.7511,4.6900
22.6555,4.6710
22.5743,4.6168
22.5202,4.5357
22.5011,4.4400
Z" /> 
<path style="fill:#B4A09A; fill-opacity:0.9000; stroke:none;fill-rule:evenodd;"
d="M 19.4611,1.4675
19.4659,1.4436
19.4794,1.4233
19.4997,1.4098
19.5236,1.4050
20.2486,1.4050
20.2725,1.4098
20.2928,1.4233
20.3064,1.4436
20.3111,1.4675
20.3111,1.5925
20.3064,1.6164
20.2928,1.6367
20.2725,1.6502
20.2486,1.6550
19.5236,1.6550
19.4997,1.6502
19.4794,1.6367
19.4659,1.6164
19.4611,1.5925
Z" /> 
<path style="fill:#B4A09A; fill-opacity:0.9000; stroke:none;fill-rule:evenodd;"
d="M 19.4611,2.1175
19.4659,2.0936
19.4794,2.0733
19.4997,2.0598
19.5236,2.0550
20.2486,2.0550
20.2725,2.0598
20.2928,2.0733
20.3064,2.0936
20.3111,2.1175
20.3111,2.2425
20.3064,2.2664
20.2928,2.2867
20.2725,2.3002
20.2486,2.3050
19.5236,2.3050
19.4997,2.3002
19.4794,2.2867
19.4659,2.2664
19.4611,2.2425
Z" /> 
<path style="fill:#B4A09A; fill-opacity:0.9000; stroke:none;fill-rule:evenodd;"
d="M 19.4611,2.7675
19.4659,2.7436
19.4794,2.7233
19.4997,2.7098
19.5236,2.7050
20.2486,2.7050
20.2725,2.7098
20.2928,2.7233
20.3064,2.7436
20.3111,2.7675
20.3111,2.8925
20.3064,2.9164
20.2928,2.9367
20.2725,2.9502
20.2486,2.9550
19.5236,2.9550
19.4997,2.9502
19.4794,2.9367
19.4659,2.9164
19.4611,2.8925
Z" /> 
<path style="fill:#B4A09A; fill-opacity:0.9000; stroke:none;fill-rule:evenodd;"
d="M 19.4611,3.4175
19.4659,3.3936
19.4794,3.3733
19.4997,3.3598
19.5236,3.3550
20.2486,3.3550
20.2725,3.3598
20.2928,3.3733
20.3064,3.3936
20.3111,3.4175
20.3111,3.5425
20.3064,3.5664
20.2928,3.5867
20.2725,3.6002
20.2486,3.6050
19.5236,3.6050
19.4997,3.6002
19.4794,3.5867
19.4659,3.5664
19.4611,3.5425
Z" /> 
<path style="fill:#B4A09A; fill-opacity:0.9000; stroke:none;fill-rule:evenodd;"
d="M 19.4611,4.0675
19.4659,4.0436
19.4794,4.0233
19.4997,4.0098
19.5236,4.0050
20.2486,4.0050
20.2725,4.0098
20.2928,4.0233
20.3064,4.0436
20.3111,4.0675
20.3111,4.1925
20.3064,4.2164
20.2928,4.2367
20.2725,4.2502
20.2486,4.2550
19.5236,4.2550
19.4997,4.2502
19.4794,4.2367
19.4659,4.2164
19.4611,4.1925
Z" /> 
<path style="fill:#B4A09A; fill-opacity:0.9000; stroke:none;fill-rule:evenodd;"
d="M 19.4611,4.7175
19.4659,4.6936
19.4794,4.6733
19.4997,4.6598
19.5236,4.6550
20.2486,4.6550
20.2725,4.6598
20.2928,4.6733
20.3064,4.6936
20.3111,4.7175
20.3111,4.8425
20.3064,4.8664
20.2928,4.8867
20.2725,4.9002
20.2486,4.9050
19.5236,4.9050
19.4997,4.9002
19.4794,4.8867
19.4659,4.8664
19.4611,4.8425
Z" /> 
<path style="fill:#B4A09A; fill-opacity:0.9000; stroke:none;fill-rule:evenodd;"
d="M 20.5861,5.2425
20.5909,5.2186
20.6044,5.1983
20.6247,5.1848
20.6486,5.1800
20.7736,5.1800
20.7975,5.1848
20.8178,5.1983
20.8314,5.2186
20.8361,5.2425
20.8361,5.9675
20.8314,5.9914
20.8178,6.0117
20.7975,6.0252
20.7736,6.0300
20.6486,6.0300
20.6247,6.0252
20.6044,6.0117
20.5909,5.9914
20.5861,5.9675
Z" /> 
<path style="fill:#B4A09A; fill-opacity:0.9000; stroke:none;fill-rule:evenodd;"
d="M 21.2361,5.2425
21.2409,5.2186
21.2544,5.1983
21.2747,5.1848
21.2986,5.1800
21.4236,5.1800
21.4475,5.1848
21.4678,5.1983
21.4814,5.2186
21.4861,5.2425
21.4861,5.9675
21.4814,5.9914
21.4678,6.0117
21.4475,6.0252
21.4236,6.0300
21.2986,6.0300
21.2747,6.0252
21.2544,6.0117
21.2409,5.9914
21.2361,5.9675
Z" /> 
<path style="fill:#B4A09A; fill-opacity:0.9000; stroke:none;fill-rule:evenodd;"
d="M 21.8861,5.2425
21.8909,5.2186
21.9044,5.1983
21.9247,5.1848
21.9486,5.1800
22.0736,5.1800
22.0975,5.1848
22.1178,5.1983
22.1314,5.2186
22.1361,5.2425
22.1361,5.9675
22.1314,5.9914
22.1178,6.0117
22.0975,6.0252
22.0736,6.0300
21.9486,6.0300
21.9247,6.0252
21.9044,6.0117
21.8909,5.9914
21.8861,5.9675
Z" /> 
<path style="fill:#B4A09A; fill-opacity:0.9000; stroke:none;fill-rule:evenodd;"
d="M 22.5361,5.2425
22.5409,5.2186
22.5544,5.1983
22.5747,5.1848
22.5986,5.1800
22.7236,5.1800
22.7475,5.1848
22.7678,5.1983
22.7814,5.2186
22.7861,5.2425
22.7861,5.9675
22.7814,5.9914
22.7678,6.0117
22.7475,6.0252
22.7236,6.0300
22.5986,6.0300
22.5747,6.0252
22.5544,6.0117
22.5409,5.9914
22.5361,5.9675
Z" /> 
<path style="fill:#B4A09A; fill-opacity:0.9000; stroke:none;fill-rule:evenodd;"
d="M 23.1861,5.2425
23.1909,5.2186
23.2044,5.1983
23.2247,5.1848
23.2486,5.1800
23.3736,5.1800
23.3975,5.1848
23.4178,5.1983
23.4314,5.2186
23.4361,5.2425
23.4361,5.9675
23.4314,5.9914
23.4178,6.0117
23.3975,6.0252
23.3736,6.0300
23.2486,6.0300
23.2247,6.0252
23.2044,6.0117
23.1909,5.9914
23.1861,5.9675
Z" /> 
<path style="fill:#B4A09A; fill-opacity:0.9000; stroke:none;fill-rule:evenodd;"
d="M 23.8361,5.2425
23.8409,5.2186
23.8544,5.1983
23.8747,5.1848
23.8986,5.1800
24.0236,5.1800
24.0475,5.1848
24.0678,5.1983
24.0814,5.2186
24.0861,5.2425
24.0861,5.9675
24.0814,5.9914
24.0678,6.0117
24.0475,6.0252
24.0236,6.0300
23.8986,6.0300
23.8747,6.0252
23.8544,6.0117
23.8409,5.9914
23.8361,5.9675
Z" /> 
<path style="fill:#B4A09A; fill-opacity:0.9000; stroke:none;fill-rule:evenodd;"
d="M 24.3611,4.7175
24.3659,4.6936
24.3794,4.6733
24.3997,4.6598
24.4236,4.6550
25.1486,4.6550
25.1725,4.6598
25.1928,4.6733
25.2064,4.6936
25.2111,4.7175
25.2111,4.8425
25.2064,4.8664
25.1928,4.8867
25.1725,4.9002
25.1486,4.9050
24.4236,4.9050
24.3997,4.9002
24.3794,4.8867
24.3659,4.8664
24.3611,4.8425
Z" /> 
<path style="fill:#B4A09A; fill-opacity:0.9000; stroke:none;fill-rule:evenodd;"
d="M 24.3611,4.0675
24.3659,4.0436
24.3794,4.0233
24.3997,4.0098
24.4236,4.0050
25.1486,4.0050
25.1725,4.0098
25.1928,4.0233
25.2064,4.0436
25.2111,4.0675
25.2111,4.1925
25.2064,4.2164
25.1928,4.2367
25.1725,4.2502
25.1486,4.2550
24.4236,4.2550
24.3997,4.2502
24.3794,4.2367
24.3659,4.2164
24.3611,4.1925
Z" /> 
<path style="fill:#B4A09A; fill-opacity:0.9000; stroke:none;fill-rule:evenodd;"
d="M 24.3611,3.4175
24.3659,3.3936
24.3794,3.3733
24.3997,3.3598
24.4236,3.3550
25.1486,3.3550
25.1725,3.3598
25.1928,3.3733
25.2064,3.3936
25.2111,3.4175
25.2111,3.5425
25.2064,3.5664
25.1928,3.5867
25.1725,3.6002
25.1486,3.6050
24.4236,3.6050
24.3997,3.6002
24.3794,3.5867
24.3659,3.5664
24.3611,3.5425
Z" /> 
<path style="fill:#B4A09A; fill-opacity:0.9000; stroke:none;fill-rule:evenodd;"
d="M 24.3611,2.7675
24.3659,2.7436
24.3794,2.7233
24.3997,2.7098
24.4236,2.7050
25.1486,2.7050
25.1725,2.7098
25.1928,2.7233
25.2064,2.7436
25.2111,2.7675
25.2111,2.8925
25.2064,2.9164
25.1928,2.9367
25.1725,2.9502
25.1486,2.9550
24.4236,2.9550
24.3997,2.9502
24.3794,2.9367
24.3659,2.9164
24.3611,2.8925
Z" /> 
<path style="fill:#B4A09A; fill-opacity:0.9000; stroke:none;fill-rule:evenodd;"
d="M 24.3611,2.1175
24.3659,2.0936
24.3794,2.0733
24.3997,2.0598
24.4236,2.0550
25.1486,2.0550
25.1725,2.0598
25.1928,2.0733
25.2064,2.0936
25.2111,2.1175
25.2111,2.2425
25.2064,2.2664
25.1928,2.2867
25.1725,2.3002
25.1486,2.3050
24.4236,2.3050
24.3997,2.3002
24.3794,2.2867
24.3659,2.2664
24.3611,2.2425
Z" /> 
<path style="fill:#B4A09A; fill-opacity:0.9000; stroke:none;fill-rule:evenodd;"
d="M 24.3611,1.4675
24.3659,1.4436
24.3794,1.4233
24.3997,1.4098
24.4236,1.4050
25.1486,1.4050
25.1725,1.4098
25.1928,1.4233
25.2064,1.4436
25.2111,1.4675
25.2111,1.5925
25.2064,1.6164
25.1928,1.6367
25.1725,1.6502
25.1486,1.6550
24.4236,1.6550
24.3997,1.6502
24.3794,1.6367
24.3659,1.6164
24.3611,1.5925
Z" /> 
<path style="fill:#B4A09A; fill-opacity:0.9000; stroke:none;fill-rule:evenodd;"
d="M 23.8361,0.3425
23.8409,0.3186
23.8544,0.2983
23.8747,0.2848
23.8986,0.2800
24.0236,0.2800
24.0475,0.2848
24.0678,0.2983
24.0814,0.3186
24.0861,0.3425
24.0861,1.0675
24.0814,1.0914
24.0678,1.1117
24.0475,1.1252
24.0236,1.1300
23.8986,1.1300
23.8747,1.1252
23.8544,1.1117
23.8409,1.0914
23.8361,1.0675
Z" /> 
<path style="fill:#B4A09A; fill-opacity:0.9000; stroke:none;fill-rule:evenodd;"
d="M 23.1861,0.3425
23.1909,0.3186
23.2044,0.2983
23.2247,0.2848
23.2486,0.2800
23.3736,0.2800
23.3975,0.2848
23.4178,0.2983
23.4314,0.3186
23.4361,0.3425
23.4361,1.0675
23.4314,1.0914
23.4178,1.1117
23.3975,1.1252
23.3736,1.1300
23.2486,1.1300
23.2247,1.1252
23.2044,1.1117
23.1909,1.0914
23.1861,1.0675
Z" /> 
<path style="fill:#B4A09A; fill-opacity:0.9000; stroke:none;fill-rule:evenodd;"
d="M 22.5361,0.3425
22.5409,0.3186
22.5544,0.2983
22.5747,0.2848
22.5986,0.2800
22.7236,0.2800
22.7475,0.2848
22.7678,0.2983
22.7814,0.3186
22.7861,0.3425
22.7861,1.0675
22.7814,1.0914
22.7678,1.1117
22.7475,1.1252
22.7236,1.1300
22.5986,1.1300
22.5747,1.1252
22.5544,1.1117
22.5409,1.0914
22.5361,1.0675
Z" /> 
<path style="fill:#B4A09A; fill-opacity:0.9000; stroke:none;fill-rule:evenodd;"
d="M 21.8861,0.3425
21.8909,0.3186
21.9044,0.2983
21.9247,0.2848
21.9486,0.2800
22.0736,0.2800
22.0975,0.2848
22.1178,0.2983
22.1314,0.3186
22.1361,0.3425
22.1361,1.0675
22.1314,1.0914
22.1178,1.1117
22.0975,1.1252
22.0736,1.1300
21.9486,1.1300
21.9247,1.1252
21.9044,1.1117
21.8909,1.0914
21.8861,1.0675
Z" /> 
<path style="fill:#B4A09A; fill-opacity:0.9000; stroke:none;fill-rule:evenodd;"
d="M 21.2361,0.3425
21.2409,0.3186
21.2544,0.2983
21.2747,0.2848
21.2986,0.2800
21.4236,0.2800
21.4475,0.2848
21.4678,0.2983
21.4814,0.3186
21.4861,0.3425
21.4861,1.0675
21.4814,1.0914
21.4678,1.1117
21.4475,1.1252
21.4236,1.1300
21.2986,1.1300
21.2747,1.1252
21.2544,1.1117
21.2409,1.0914
21.2361,1.0675
Z" /> 
<path style="fill:#B4A09A; fill-opacity:0.9000; stroke:none;fill-rule:evenodd;"
d="M 20.5861,0.3425
20.5909,0.3186
20.6044,0.2983
20.6247,0.2848
20.6486,0.2800
20.7736,0.2800
20.7975,0.2848
20.8178,0.2983
20.8314,0.3186
20.8361,0.3425
20.8361,1.0675
20.8314,1.0914
20.8178,1.1117
20.7975,1.1252
20.7736,1.1300
20.6486,1.1300
20.6247,1.1252
20.6044,1.1117
20.5909,1.0914
20.5861,1.0675
Z" /> 
</g>
<g style="fill:none; 
stroke:#F2EDA1; stroke-width:0.1588; stroke-opacity:1; 
stroke-linecap:round; stroke-linejoin:round;">
<text x="22.3361" y="3.7900"
textLength="5.6651" font-size="1.6933" lengthAdjust="spacingAndGlyphs"
text-anchor="middle" opacity="0">REF**</text>
<g class="stroked-text"><desc>REF**</desc>
<path d="M20.6428 3.7343
L20.2195 3.1295
" />
<path d="M19.9171 3.7343
L19.9171 2.4643
" />
<path d="M19.9171 2.4643
L20.4009 2.4643
" />
<path d="M20.4009 2.4643
L20.5218 2.5247
" />
<path d="M20.5218 2.5247
L20.5823 2.5852
" />
<path d="M20.5823 2.5852
L20.6428 2.7062
" />
<path d="M20.6428 2.7062
L20.6428 2.8876
" />
<path d="M20.6428 2.8876
L20.5823 3.0086
" />
<path d="M20.5823 3.0086
L20.5218 3.0690
" />
<path d="M20.5218 3.0690
L20.4009 3.1295
" />
<path d="M20.4009 3.1295
L19.9171 3.1295
" />
<path d="M21.1871 3.0690
L21.6104 3.0690
" />
<path d="M21.7918 3.7343
L21.1871 3.7343
" />
<path d="M21.1871 3.7343
L21.1871 2.4643
" />
<path d="M21.1871 2.4643
L21.7918 2.4643
" />
<path d="M22.7595 3.0690
L22.3361 3.0690
" />
<path d="M22.3361 3.7343
L22.3361 2.4643
" />
<path d="M22.3361 2.4643
L22.9409 2.4643
" />
<path d="M23.6061 2.4643
L23.6061 2.7667
" />
<path d="M23.3037 2.6457
L23.6061 2.7667
" />
<path d="M23.6061 2.7667
L23.9085 2.6457
" />
<path d="M23.4247 3.0086
L23.6061 2.7667
" />
<path d="M23.6061 2.7667
L23.7876 3.0086
" />
<path d="M24.5737 2.4643
L24.5737 2.7667
" />
<path d="M24.2714 2.6457
L24.5737 2.7667
" />
<path d="M24.5737 2.7667
L24.8761 2.6457
" />
<path d="M24.3923 3.0086
L24.5737 2.7667
" />
<path d="M24.5737 2.7667
L24.7552 3.0086
" />
</g></g>
<g style="fill:none; 
stroke:#F2EDA1; stroke-width:0.1200; stroke-opacity:1; 
stroke-linecap:round; stroke-linejoin:round;">
<path d="M19.7261 1.1450
L19.7261 0.7850
" />
<path d="M19.7261 5.7650
L19.7261 5.1650
" />
<path d="M20.3261 0.5450
L20.0261 0.5450
" />
<path d="M20.3261 5.7650
L19.7261 5.7650
" />
<path d="M24.3461 0.5450
L24.9461 0.5450
" />
<path d="M24.3461 5.7650
L24.9461 5.7650
" />
<path d="M24.9461 0.5450
L24.9461 1.1450
" />
<path d="M24.9461 5.7650
L24.9461 5.1650
" />
<path style="fill:#F2EDA1; fill-opacity:1.0000; 
stroke:#F2EDA1; stroke-width:0.1200; stroke-opacity:1; 
stroke-linecap:round; stroke-linejoin:round;fill-rule:evenodd;"
d="M 19.7261,0.5450
19.4861,0.2150
19.9661,0.2150
Z" /> 
</g>
<g style="fill:none; 
stroke:#FF26E2; stroke-width:0.0500; stroke-opacity:1; 
stroke-linecap:round; stroke-linejoin:round;">
<path d="M19.2061 0.0250
L19.2061 6.2850
" />
<path d="M19.2061 6.2850
L25.4661 6.2850
" />
<path d="M25.4661 0.0250
L19.2061 0.0250
" />
<path d="M25.4661 6.2850
L25.4661 0.0250
" />
</g>
<g style="fill:none; 
stroke:#AFAFAF; stroke-width:0.1588; stroke-opacity:1; 
stroke-linecap:round; stroke-linejoin:round;">
<text x="22.3361" y="3.7900"
textLength="44.6722" font-size="1.6933" lengthAdjust="spacingAndGlyphs"
text-anchor="middle" opacity="0">QFN-24-1EP_5x5mm_P0.65mm_EP3.4x3.4mm</text>
<g class="stroked-text"><desc>QFN-24-1EP_5x5mm_P0.65mm_EP3.4x3.4mm</desc>
<path d="M1.2602 3.8552
L1.1392 3.7947
" />
<path d="M1.1392 3.7947
L1.0183 3.6738
" />
<path d="M1.0183 3.6738
L0.8368 3.4924
" />
<path d="M0.8368 3.4924
L0.7159 3.4319
" />
<path d="M0.7159 3.4319
L0.5949 3.4319
" />
<path d="M0.6554 3.7343
L0.5345 3.6738
" />
<path d="M0.5345 3.6738
L0.4135 3.5528
" />
<path d="M0.4135 3.5528
L0.3530 3.3109
" />
<path d="M0.3530 3.3109
L0.3530 2.8876
" />
<path d="M0.3530 2.8876
L0.4135 2.6457
" />
<path d="M0.4135 2.6457
L0.5345 2.5247
" />
<path d="M0.5345 2.5247
L0.6554 2.4643
" />
<path d="M0.6554 2.4643
L0.8973 2.4643
" />
<path d="M0.8973 2.4643
L1.0183 2.5247
" />
<path d="M1.0183 2.5247
L1.1392 2.6457
" />
<path d="M1.1392 2.6457
L1.1997 2.8876
" />
<path d="M1.1997 2.8876
L1.1997 3.3109
" />
<path d="M1.1997 3.3109
L1.1392 3.5528
" />
<path d="M1.1392 3.5528
L1.0183 3.6738
" />
<path d="M1.0183 3.6738
L0.8973 3.7343
" />
<path d="M0.8973 3.7343
L0.6554 3.7343
" />
<path d="M2.1673 3.0690
L1.7440 3.0690
" />
<path d="M1.7440 3.7343
L1.7440 2.4643
" />
<path d="M1.7440 2.4643
L2.3487 2.4643
" />
<path d="M2.8326 3.7343
L2.8326 2.4643
" />
<path d="M2.8326 2.4643
L3.5583 3.7343
" />
<path d="M3.5583 3.7343
L3.5583 2.4643
" />
<path d="M4.1630 3.2505
L5.1306 3.2505
" />
<path d="M5.6749 2.5852
L5.7354 2.5247
" />
<path d="M5.7354 2.5247
L5.8564 2.4643
" />
<path d="M5.8564 2.4643
L6.1587 2.4643
" />
<path d="M6.1587 2.4643
L6.2797 2.5247
" />
<path d="M6.2797 2.5247
L6.3402 2.5852
" />
<path d="M6.3402 2.5852
L6.4006 2.7062
" />
<path d="M6.4006 2.7062
L6.4006 2.8271
" />
<path d="M6.4006 2.8271
L6.3402 3.0086
" />
<path d="M6.3402 3.0086
L5.6145 3.7343
" />
<path d="M5.6145 3.7343
L6.4006 3.7343
" />
<path d="M7.4892 2.8876
L7.4892 3.7343
" />
<path d="M7.1868 2.4038
L6.8845 3.3109
" />
<path d="M6.8845 3.3109
L7.6706 3.3109
" />
<path d="M8.1545 3.2505
L9.1221 3.2505
" />
<path d="M10.3921 3.7343
L9.6664 3.7343
" />
<path d="M10.0292 3.7343
L10.0292 2.4643
" />
<path d="M10.0292 2.4643
L9.9083 2.6457
" />
<path d="M9.9083 2.6457
L9.7873 2.7667
" />
<path d="M9.7873 2.7667
L9.6664 2.8271
" />
<path d="M10.9364 3.0690
L11.3597 3.0690
" />
<path d="M11.5411 3.7343
L10.9364 3.7343
" />
<path d="M10.9364 3.7343
L10.9364 2.4643
" />
<path d="M10.9364 2.4643
L11.5411 2.4643
" />
<path d="M12.0854 3.7343
L12.0854 2.4643
" />
<path d="M12.0854 2.4643
L12.5692 2.4643
" />
<path d="M12.5692 2.4643
L12.6902 2.5247
" />
<path d="M12.6902 2.5247
L12.7507 2.5852
" />
<path d="M12.7507 2.5852
L12.8111 2.7062
" />
<path d="M12.8111 2.7062
L12.8111 2.8876
" />
<path d="M12.8111 2.8876
L12.7507 3.0086
" />
<path d="M12.7507 3.0086
L12.6902 3.0690
" />
<path d="M12.6902 3.0690
L12.5692 3.1295
" />
<path d="M12.5692 3.1295
L12.0854 3.1295
" />
<path d="M13.0530 3.8552
L14.0206 3.8552
" />
<path d="M14.9278 2.4643
L14.3230 2.4643
" />
<path d="M14.3230 2.4643
L14.2626 3.0690
" />
<path d="M14.2626 3.0690
L14.3230 3.0086
" />
<path d="M14.3230 3.0086
L14.4440 2.9481
" />
<path d="M14.4440 2.9481
L14.7464 2.9481
" />
<path d="M14.7464 2.9481
L14.8673 3.0086
" />
<path d="M14.8673 3.0086
L14.9278 3.0690
" />
<path d="M14.9278 3.0690
L14.9883 3.1900
" />
<path d="M14.9883 3.1900
L14.9883 3.4924
" />
<path d="M14.9883 3.4924
L14.9278 3.6133
" />
<path d="M14.9278 3.6133
L14.8673 3.6738
" />
<path d="M14.8673 3.6738
L14.7464 3.7343
" />
<path d="M14.7464 3.7343
L14.4440 3.7343
" />
<path d="M14.4440 3.7343
L14.3230 3.6738
" />
<path d="M14.3230 3.6738
L14.2626 3.6133
" />
<path d="M15.4116 3.7343
L16.0768 2.8876
" />
<path d="M15.4116 2.8876
L16.0768 3.7343
" />
<path d="M17.1654 2.4643
L16.5606 2.4643
" />
<path d="M16.5606 2.4643
L16.5002 3.0690
" />
<path d="M16.5002 3.0690
L16.5606 3.0086
" />
<path d="M16.5606 3.0086
L16.6816 2.9481
" />
<path d="M16.6816 2.9481
L16.9840 2.9481
" />
<path d="M16.9840 2.9481
L17.1049 3.0086
" />
<path d="M17.1049 3.0086
L17.1654 3.0690
" />
<path d="M17.1654 3.0690
L17.2259 3.1900
" />
<path d="M17.2259 3.1900
L17.2259 3.4924
" />
<path d="M17.2259 3.4924
L17.1654 3.6133
" />
<path d="M17.1654 3.6133
L17.1049 3.6738
" />
<path d="M17.1049 3.6738
L16.9840 3.7343
" />
<path d="M16.9840 3.7343
L16.6816 3.7343
" />
<path d="M16.6816 3.7343
L16.5606 3.6738
" />
<path d="M16.5606 3.6738
L16.5002 3.6133
" />
<path d="M17.7702 3.7343
L17.7702 2.8876
" />
<path d="M17.7702 3.0086
L17.8306 2.9481
" />
<path d="M17.8306 2.9481
L17.9516 2.8876
" />
<path d="M17.9516 2.8876
L18.1330 2.8876
" />
<path d="M18.1330 2.8876
L18.2540 2.9481
" />
<path d="M18.2540 2.9481
L18.3145 3.0690
" />
<path d="M18.3145 3.0690
L18.3145 3.7343
" />
<path d="M18.3145 3.0690
L18.3749 2.9481
" />
<path d="M18.3749 2.9481
L18.4959 2.8876
" />
<path d="M18.4959 2.8876
L18.6773 2.8876
" />
<path d="M18.6773 2.8876
L18.7983 2.9481
" />
<path d="M18.7983 2.9481
L18.8587 3.0690
" />
<path d="M18.8587 3.0690
L18.8587 3.7343
" />
<path d="M19.4635 3.7343
L19.4635 2.8876
" />
<path d="M19.4635 3.0086
L19.5240 2.9481
" />
<path d="M19.5240 2.9481
L19.6449 2.8876
" />
<path d="M19.6449 2.8876
L19.8264 2.8876
" />
<path d="M19.8264 2.8876
L19.9473 2.9481
" />
<path d="M19.9473 2.9481
L20.0078 3.0690
" />
<path d="M20.0078 3.0690
L20.0078 3.7343
" />
<path d="M20.0078 3.0690
L20.0683 2.9481
" />
<path d="M20.0683 2.9481
L20.1892 2.8876
" />
<path d="M20.1892 2.8876
L20.3706 2.8876
" />
<path d="M20.3706 2.8876
L20.4916 2.9481
" />
<path d="M20.4916 2.9481
L20.5521 3.0690
" />
<path d="M20.5521 3.0690
L20.5521 3.7343
" />
<path d="M20.8545 3.8552
L21.8221 3.8552
" />
<path d="M22.1245 3.7343
L22.1245 2.4643
" />
<path d="M22.1245 2.4643
L22.6083 2.4643
" />
<path d="M22.6083 2.4643
L22.7292 2.5247
" />
<path d="M22.7292 2.5247
L22.7897 2.5852
" />
<path d="M22.7897 2.5852
L22.8502 2.7062
" />
<path d="M22.8502 2.7062
L22.8502 2.8876
" />
<path d="M22.8502 2.8876
L22.7897 3.0086
" />
<path d="M22.7897 3.0086
L22.7292 3.0690
" />
<path d="M22.7292 3.0690
L22.6083 3.1295
" />
<path d="M22.6083 3.1295
L22.1245 3.1295
" />
<path d="M23.6364 2.4643
L23.7573 2.4643
" />
<path d="M23.7573 2.4643
L23.8783 2.5247
" />
<path d="M23.8783 2.5247
L23.9387 2.5852
" />
<path d="M23.9387 2.5852
L23.9992 2.7062
" />
<path d="M23.9992 2.7062
L24.0597 2.9481
" />
<path d="M24.0597 2.9481
L24.0597 3.2505
" />
<path d="M24.0597 3.2505
L23.9992 3.4924
" />
<path d="M23.9992 3.4924
L23.9387 3.6133
" />
<path d="M23.9387 3.6133
L23.8783 3.6738
" />
<path d="M23.8783 3.6738
L23.7573 3.7343
" />
<path d="M23.7573 3.7343
L23.6364 3.7343
" />
<path d="M23.6364 3.7343
L23.5154 3.6738
" />
<path d="M23.5154 3.6738
L23.4549 3.6133
" />
<path d="M23.4549 3.6133
L23.3945 3.4924
" />
<path d="M23.3945 3.4924
L23.3340 3.2505
" />
<path d="M23.3340 3.2505
L23.3340 2.9481
" />
<path d="M23.3340 2.9481
L23.3945 2.7062
" />
<path d="M23.3945 2.7062
L23.4549 2.5852
" />
<path d="M23.4549 2.5852
L23.5154 2.5247
" />
<path d="M23.5154 2.5247
L23.6364 2.4643
" />
<path d="M24.6040 3.6133
L24.6645 3.6738
" />
<path d="M24.6645 3.6738
L24.6040 3.7343
" />
<path d="M24.6040 3.7343
L24.5435 3.6738
" />
<path d="M24.5435 3.6738
L24.6040 3.6133
" />
<path d="M24.6040 3.6133
L24.6040 3.7343
" />
<path d="M25.7530 2.4643
L25.5111 2.4643
" />
<path d="M25.5111 2.4643
L25.3902 2.5247
" />
<path d="M25.3902 2.5247
L25.3297 2.5852
" />
<path d="M25.3297 2.5852
L25.2087 2.7667
" />
<path d="M25.2087 2.7667
L25.1483 3.0086
" />
<path d="M25.1483 3.0086
L25.1483 3.4924
" />
<path d="M25.1483 3.4924
L25.2087 3.6133
" />
<path d="M25.2087 3.6133
L25.2692 3.6738
" />
<path d="M25.2692 3.6738
L25.3902 3.7343
" />
<path d="M25.3902 3.7343
L25.6321 3.7343
" />
<path d="M25.6321 3.7343
L25.7530 3.6738
" />
<path d="M25.7530 3.6738
L25.8135 3.6133
" />
<path d="M25.8135 3.6133
L25.8740 3.4924
" />
<path d="M25.8740 3.4924
L25.8740 3.1900
" />
<path d="M25.8740 3.1900
L25.8135 3.0690
" />
<path d="M25.8135 3.0690
L25.7530 3.0086
" />
<path d="M25.7530 3.0086
L25.6321 2.9481
" />
<path d="M25.6321 2.9481
L25.3902 2.9481
" />
<path d="M25.3902 2.9481
L25.2692 3.0086
" />
<path d="M25.2692 3.0086
L25.2087 3.0690
" />
<path d="M25.2087 3.0690
L25.1483 3.1900
" />
<path d="M27.0230 2.4643
L26.4183 2.4643
" />
<path d="M26.4183 2.4643
L26.3578 3.0690
" />
<path d="M26.3578 3.0690
L26.4183 3.0086
" />
<path d="M26.4183 3.0086
L26.5392 2.9481
" />
<path d="M26.5392 2.9481
L26.8416 2.9481
" />
<path d="M26.8416 2.9481
L26.9626 3.0086
" />
<path d="M26.9626 3.0086
L27.0230 3.0690
" />
<path d="M27.0230 3.0690
L27.0835 3.1900
" />
<path d="M27.0835 3.1900
L27.0835 3.4924
" />
<path d="M27.0835 3.4924
L27.0230 3.6133
" />
<path d="M27.0230 3.6133
L26.9626 3.6738
" />
<path d="M26.9626 3.6738
L26.8416 3.7343
" />
<path d="M26.8416 3.7343
L26.5392 3.7343
" />
<path d="M26.5392 3.7343
L26.4183 3.6738
" />
<path d="M26.4183 3.6738
L26.3578 3.6133
" />
<path d="M27.6278 3.7343
L27.6278 2.8876
" />
<path d="M27.6278 3.0086
L27.6883 2.9481
" />
<path d="M27.6883 2.9481
L27.8092 2.8876
" />
<path d="M27.8092 2.8876
L27.9906 2.8876
" />
<path d="M27.9906 2.8876
L28.1116 2.9481
" />
<path d="M28.1116 2.9481
L28.1721 3.0690
" />
<path d="M28.1721 3.0690
L28.1721 3.7343
" />
<path d="M28.1721 3.0690
L28.2326 2.9481
" />
<path d="M28.2326 2.9481
L28.3535 2.8876
" />
<path d="M28.3535 2.8876
L28.5349 2.8876
" />
<path d="M28.5349 2.8876
L28.6559 2.9481
" />
<path d="M28.6559 2.9481
L28.7164 3.0690
" />
<path d="M28.7164 3.0690
L28.7164 3.7343
" />
<path d="M29.3211 3.7343
L29.3211 2.8876
" />
<path d="M29.3211 3.0086
L29.3816 2.9481
" />
<path d="M29.3816 2.9481
L29.5026 2.8876
" />
<path d="M29.5026 2.8876
L29.6840 2.8876
" />
<path d="M29.6840 2.8876
L29.8049 2.9481
" />
<path d="M29.8049 2.9481
L29.8654 3.0690
" />
<path d="M29.8654 3.0690
L29.8654 3.7343
" />
<path d="M29.8654 3.0690
L29.9259 2.9481
" />
<path d="M29.9259 2.9481
L30.0468 2.8876
" />
<path d="M30.0468 2.8876
L30.2283 2.8876
" />
<path d="M30.2283 2.8876
L30.3492 2.9481
" />
<path d="M30.3492 2.9481
L30.4097 3.0690
" />
<path d="M30.4097 3.0690
L30.4097 3.7343
" />
<path d="M30.7121 3.8552
L31.6797 3.8552
" />
<path d="M31.9821 3.0690
L32.4054 3.0690
" />
<path d="M32.5868 3.7343
L31.9821 3.7343
" />
<path d="M31.9821 3.7343
L31.9821 2.4643
" />
<path d="M31.9821 2.4643
L32.5868 2.4643
" />
<path d="M33.1311 3.7343
L33.1311 2.4643
" />
<path d="M33.1311 2.4643
L33.6149 2.4643
" />
<path d="M33.6149 2.4643
L33.7359 2.5247
" />
<path d="M33.7359 2.5247
L33.7964 2.5852
" />
<path d="M33.7964 2.5852
L33.8568 2.7062
" />
<path d="M33.8568 2.7062
L33.8568 2.8876
" />
<path d="M33.8568 2.8876
L33.7964 3.0086
" />
<path d="M33.7964 3.0086
L33.7359 3.0690
" />
<path d="M33.7359 3.0690
L33.6149 3.1295
" />
<path d="M33.6149 3.1295
L33.1311 3.1295
" />
<path d="M34.2802 2.4643
L35.0664 2.4643
" />
<path d="M35.0664 2.4643
L34.6430 2.9481
" />
<path d="M34.6430 2.9481
L34.8245 2.9481
" />
<path d="M34.8245 2.9481
L34.9454 3.0086
" />
<path d="M34.9454 3.0086
L35.0059 3.0690
" />
<path d="M35.0059 3.0690
L35.0664 3.1900
" />
<path d="M35.0664 3.1900
L35.0664 3.4924
" />
<path d="M35.0664 3.4924
L35.0059 3.6133
" />
<path d="M35.0059 3.6133
L34.9454 3.6738
" />
<path d="M34.9454 3.6738
L34.8245 3.7343
" />
<path d="M34.8245 3.7343
L34.4616 3.7343
" />
<path d="M34.4616 3.7343
L34.3406 3.6738
" />
<path d="M34.3406 3.6738
L34.2802 3.6133
" />
<path d="M35.6106 3.6133
L35.6711 3.6738
" />
<path d="M35.6711 3.6738
L35.6106 3.7343
" />
<path d="M35.6106 3.7343
L35.5502 3.6738
" />
<path d="M35.5502 3.6738
L35.6106 3.6133
" />
<path d="M35.6106 3.6133
L35.6106 3.7343
" />
<path d="M36.7597 2.8876
L36.7597 3.7343
" />
<path d="M36.4573 2.4038
L36.1549 3.3109
" />
<path d="M36.1549 3.3109
L36.9411 3.3109
" />
<path d="M37.3040 3.7343
L37.9692 2.8876
" />
<path d="M37.3040 2.8876
L37.9692 3.7343
" />
<path d="M38.3321 2.4643
L39.1183 2.4643
" />
<path d="M39.1183 2.4643
L38.6949 2.9481
" />
<path d="M38.6949 2.9481
L38.8764 2.9481
" />
<path d="M38.8764 2.9481
L38.9973 3.0086
" />
<path d="M38.9973 3.0086
L39.0578 3.0690
" />
<path d="M39.0578 3.0690
L39.1183 3.1900
" />
<path d="M39.1183 3.1900
L39.1183 3.4924
" />
<path d="M39.1183 3.4924
L39.0578 3.6133
" />
<path d="M39.0578 3.6133
L38.9973 3.6738
" />
<path d="M38.9973 3.6738
L38.8764 3.7343
" />
<path d="M38.8764 3.7343
L38.5135 3.7343
" />
<path d="M38.5135 3.7343
L38.3926 3.6738
" />
<path d="M38.3926 3.6738
L38.3321 3.6133
" />
<path d="M39.6626 3.6133
L39.7230 3.6738
" />
<path d="M39.7230 3.6738
L39.6626 3.7343
" />
<path d="M39.6626 3.7343
L39.6021 3.6738
" />
<path d="M39.6021 3.6738
L39.6626 3.6133
" />
<path d="M39.6626 3.6133
L39.6626 3.7343
" />
<path d="M40.8116 2.8876
L40.8116 3.7343
" />
<path d="M40.5092 2.4038
L40.2068 3.3109
" />
<path d="M40.2068 3.3109
L40.9930 3.3109
" />
<path d="M41.4768 3.7343
L41.4768 2.8876
" />
<path d="M41.4768 3.0086
L41.5373 2.9481
" />
<path d="M41.5373 2.9481
L41.6583 2.8876
" />
<path d="M41.6583 2.8876
L41.8397 2.8876
" />
<path d="M41.8397 2.8876
L41.9606 2.9481
" />
<path d="M41.9606 2.9481
L42.0211 3.0690
" />
<path d="M42.0211 3.0690
L42.0211 3.7343
" />
<path d="M42.0211 3.0690
L42.0816 2.9481
" />
<path d="M42.0816 2.9481
L42.2026 2.8876
" />
<path d="M42.2026 2.8876
L42.3840 2.8876
" />
<path d="M42.3840 2.8876
L42.5049 2.9481
" />
<path d="M42.5049 2.9481
L42.5654 3.0690
" />
<path d="M42.5654 3.0690
L42.5654 3.7343
" />
<path d="M43.1702 3.7343
L43.1702 2.8876
" />
<path d="M43.1702 3.0086
L43.2306 2.9481
" />
<path d="M43.2306 2.9481
L43.3516 2.8876
" />
<path d="M43.3516 2.8876
L43.5330 2.8876
" />
<path d="M43.5330 2.8876
L43.6540 2.9481
" />
<path d="M43.6540 2.9481
L43.7145 3.0690
" />
<path d="M43.7145 3.0690
L43.7145 3.7343
" />
<path d="M43.7145 3.0690
L43.7749 2.9481
" />
<path d="M43.7749 2.9481
L43.8959 2.8876
" />
<path d="M43.8959 2.8876
L44.0773 2.8876
" />
<path d="M44.0773 2.8876
L44.1983 2.9481
" />
<path d="M44.1983 2.9481
L44.2587 3.0690
" />
<path d="M44.2587 3.0690
L44.2587 3.7343
" />
</g></g>
<g style="fill:none; 
stroke:#AFAFAF; stroke-width:0.1500; stroke-opacity:1; 
stroke-linecap:round; stroke-linejoin:round;">
<text x="22.3361" y="3.6550"
textLength="4.5357" font-size="1.3333" lengthAdjust="spacingAndGlyphs"
text-anchor="middle" opacity="0">REF**</text>
<g class="stroked-text"><desc>REF**</desc>
<path d="M21.0028 3.6098
L20.6695 3.1336
" />
<path d="M20.4314 3.6098
L20.4314 2.6098
" />
<path d="M20.4314 2.6098
L20.8123 2.6098
" />
<path d="M20.8123 2.6098
L20.9076 2.6574
" />
<path d="M20.9076 2.6574
L20.9552 2.7051
" />
<path d="M20.9552 2.7051
L21.0028 2.8003
" />
<path d="M21.0028 2.8003
L21.0028 2.9432
" />
<path d="M21.0028 2.9432
L20.9552 3.0384
" />
<path d="M20.9552 3.0384
L20.9076 3.0860
" />
<path d="M20.9076 3.0860
L20.8123 3.1336
" />
<path d="M20.8123 3.1336
L20.4314 3.1336
" />
<path d="M21.4314 3.0860
L21.7647 3.0860
" />
<path d="M21.9076 3.6098
L21.4314 3.6098
" />
<path d="M21.4314 3.6098
L21.4314 2.6098
" />
<path d="M21.4314 2.6098
L21.9076 2.6098
" />
<path d="M22.6695 3.0860
L22.3361 3.0860
" />
<path d="M22.3361 3.6098
L22.3361 2.6098
" />
<path d="M22.3361 2.6098
L22.8123 2.6098
" />
<path d="M23.3361 2.6098
L23.3361 2.8479
" />
<path d="M23.0980 2.7527
L23.3361 2.8479
" />
<path d="M23.3361 2.8479
L23.5742 2.7527
" />
<path d="M23.1933 3.0384
L23.3361 2.8479
" />
<path d="M23.3361 2.8479
L23.4790 3.0384
" />
<path d="M24.0980 2.6098
L24.0980 2.8479
" />
<path d="M23.8599 2.7527
L24.0980 2.8479
" />
<path d="M24.0980 2.8479
L24.3361 2.7527
" />
<path d="M23.9552 3.0384
L24.0980 2.8479
" />
<path d="M24.0980 2.8479
L24.2409 3.0384
" />
</g></g>
<g style="fill:none; 
stroke:#AFAFAF; stroke-width:0.1000; stroke-opacity:1; 
stroke-linecap:round; stroke-linejoin:round;">
<path d="M19.8361 1.6550
L20.8361 0.6550
" />
<path d="M19.8361 5.6550
L19.8361 1.6550
" />
<path d="M20.8361 0.6550
L24.8361 0.6550
" />
<path d="M24.8361 0.6550
L24.8361 5.6550
" />
<path d="M24.8361 5.6550
L19.8361 5.6550
" />
</g> 
</svg>
