<?xml version="1.0" standalone="no"?>
 <!DOCTYPE svg PUBLIC "-//W3C//DTD SVG 1.1//EN" 
 "http://www.w3.org/Graphics/SVG/1.1/DTD/svg11.dtd"> 
<svg
  xmlns:svg="http://www.w3.org/2000/svg"
  xmlns="http://www.w3.org/2000/svg"
  xmlns:xlink="http://www.w3.org/1999/xlink"
  version="1.1"
  width="37.8968mm" height="3.4290mm" viewBox="0.0000 0.0000 37.8968 3.4290">
<title>SVG Image created as working-brd.svg date 2024/04/18 11:54:51 </title>
  <desc>Image generated by PCBNEW </desc>
<g style="fill:#000000; fill-opacity:1.0000;stroke:#000000; stroke-opacity:1.0000;
stroke-linecap:round; stroke-linejoin:round;"
 transform="translate(0 0) scale(1 1)">
</g>
<g style="fill:#FFFFFF; fill-opacity:1.0000; stroke:none;">
<circle cx="18.9495" cy="1.7250" r="0.2500" /> 
</g>
<g style="fill:#FFFFFF; fill-opacity:1.0000; stroke:none;">
<circle cx="20.8495" cy="1.7250" r="0.2500" /> 
</g>
<g style="fill:#02FFEE; fill-opacity:0.4000; stroke:none;">
<circle cx="18.9495" cy="1.7250" r="0.5000" /> 
</g>
<g style="fill:#02FFEE; fill-opacity:0.4000; stroke:none;">
<circle cx="20.8495" cy="1.7250" r="0.5000" /> 
</g>
<g style="fill:#FFFFFF; fill-opacity:1.0000; stroke:none;">
<circle cx="18.9495" cy="1.7250" r="0.2500" /> 
</g>
<g style="fill:#FFFFFF; fill-opacity:1.0000; stroke:none;">
<circle cx="20.8495" cy="1.7250" r="0.2500" /> 
</g>
<g style="fill:#FFFFFF; fill-opacity:1.0000; stroke:none;">
<circle cx="18.9495" cy="1.7250" r="0.2500" /> 
</g>
<g style="fill:#FFFFFF; fill-opacity:1.0000; stroke:none;">
<circle cx="20.8495" cy="1.7250" r="0.2500" /> 
</g>
<g style="fill:#D864FF; fill-opacity:0.4000; stroke:none;">
<circle cx="18.9495" cy="1.7250" r="0.5000" /> 
</g>
<g style="fill:#D864FF; fill-opacity:0.4000; stroke:none;">
<circle cx="20.8495" cy="1.7250" r="0.5000" /> 
</g>
<g style="fill:none; 
stroke:#F2EDA1; stroke-width:0.1588; stroke-opacity:1; 
stroke-linecap:round; stroke-linejoin:round;">
<text x="18.9495" y="2.3600"
textLength="5.6651" font-size="1.6933" lengthAdjust="spacingAndGlyphs"
text-anchor="middle" opacity="0">REF**</text>
<g class="stroked-text"><desc>REF**</desc>
<path d="M17.2561 2.3043
L16.8328 1.6995
" />
<path d="M16.5304 2.3043
L16.5304 1.0343
" />
<path d="M16.5304 1.0343
L17.0142 1.0343
" />
<path d="M17.0142 1.0343
L17.1352 1.0947
" />
<path d="M17.1352 1.0947
L17.1956 1.1552
" />
<path d="M17.1956 1.1552
L17.2561 1.2762
" />
<path d="M17.2561 1.2762
L17.2561 1.4576
" />
<path d="M17.2561 1.4576
L17.1956 1.5786
" />
<path d="M17.1956 1.5786
L17.1352 1.6390
" />
<path d="M17.1352 1.6390
L17.0142 1.6995
" />
<path d="M17.0142 1.6995
L16.5304 1.6995
" />
<path d="M17.8004 1.6390
L18.2237 1.6390
" />
<path d="M18.4052 2.3043
L17.8004 2.3043
" />
<path d="M17.8004 2.3043
L17.8004 1.0343
" />
<path d="M17.8004 1.0343
L18.4052 1.0343
" />
<path d="M19.3728 1.6390
L18.9495 1.6390
" />
<path d="M18.9495 2.3043
L18.9495 1.0343
" />
<path d="M18.9495 1.0343
L19.5542 1.0343
" />
<path d="M20.2195 1.0343
L20.2195 1.3367
" />
<path d="M19.9171 1.2157
L20.2195 1.3367
" />
<path d="M20.2195 1.3367
L20.5218 1.2157
" />
<path d="M20.0380 1.5786
L20.2195 1.3367
" />
<path d="M20.2195 1.3367
L20.4009 1.5786
" />
<path d="M21.1871 1.0343
L21.1871 1.3367
" />
<path d="M20.8847 1.2157
L21.1871 1.3367
" />
<path d="M21.1871 1.3367
L21.4895 1.2157
" />
<path d="M21.0056 1.5786
L21.1871 1.3367
" />
<path d="M21.1871 1.3367
L21.3685 1.5786
" />
</g></g>
<g style="fill:none; 
stroke:#F2EDA1; stroke-width:0.1200; stroke-opacity:1; 
stroke-linecap:round; stroke-linejoin:round;">
<path d="M20.8497 0.9921 A1.2000 1.2000 0.0 0 0 18.9495 0.9919" />
<path d="M18.9495 2.4581 A1.2000 1.2000 0.0 0 0 20.8497 2.4579" />
</g>
<g style="fill:#FFFFFF; fill-opacity:1.0000; stroke:none;">
<circle cx="18.9495" cy="1.7250" r="0.2500" /> 
</g>
<g style="fill:#FFFFFF; fill-opacity:1.0000; stroke:none;">
<circle cx="20.8495" cy="1.7250" r="0.2500" /> 
</g>
<g style="fill:none; 
stroke:#FF26E2; stroke-width:0.0500; stroke-opacity:1; 
stroke-linecap:round; stroke-linejoin:round;">
<circle cx="19.8995" cy="1.7250" r="1.7000" /> 
</g>
<g style="fill:none; 
stroke:#AFAFAF; stroke-width:0.1588; stroke-opacity:1; 
stroke-linecap:round; stroke-linejoin:round;">
<text x="18.9495" y="2.3600"
textLength="37.8989" font-size="1.6933" lengthAdjust="spacingAndGlyphs"
text-anchor="middle" opacity="0">Crystal_DS26_D2.0mm_L6.0mm_Vertical</text>
<g class="stroked-text"><desc>Crystal_DS26_D2.0mm_L6.0mm_Vertical</desc>
<path d="M1.1392 2.1833
L1.0787 2.2438
" />
<path d="M1.0787 2.2438
L0.8973 2.3043
" />
<path d="M0.8973 2.3043
L0.7764 2.3043
" />
<path d="M0.7764 2.3043
L0.5949 2.2438
" />
<path d="M0.5949 2.2438
L0.4740 2.1228
" />
<path d="M0.4740 2.1228
L0.4135 2.0019
" />
<path d="M0.4135 2.0019
L0.3530 1.7600
" />
<path d="M0.3530 1.7600
L0.3530 1.5786
" />
<path d="M0.3530 1.5786
L0.4135 1.3367
" />
<path d="M0.4135 1.3367
L0.4740 1.2157
" />
<path d="M0.4740 1.2157
L0.5949 1.0947
" />
<path d="M0.5949 1.0947
L0.7764 1.0343
" />
<path d="M0.7764 1.0343
L0.8973 1.0343
" />
<path d="M0.8973 1.0343
L1.0787 1.0947
" />
<path d="M1.0787 1.0947
L1.1392 1.1552
" />
<path d="M1.6835 2.3043
L1.6835 1.4576
" />
<path d="M1.6835 1.6995
L1.7440 1.5786
" />
<path d="M1.7440 1.5786
L1.8045 1.5181
" />
<path d="M1.8045 1.5181
L1.9254 1.4576
" />
<path d="M1.9254 1.4576
L2.0464 1.4576
" />
<path d="M2.3487 1.4576
L2.6511 2.3043
" />
<path d="M2.9535 1.4576
L2.6511 2.3043
" />
<path d="M2.6511 2.3043
L2.5302 2.6067
" />
<path d="M2.5302 2.6067
L2.4697 2.6671
" />
<path d="M2.4697 2.6671
L2.3487 2.7276
" />
<path d="M3.3768 2.2438
L3.4978 2.3043
" />
<path d="M3.4978 2.3043
L3.7397 2.3043
" />
<path d="M3.7397 2.3043
L3.8606 2.2438
" />
<path d="M3.8606 2.2438
L3.9211 2.1228
" />
<path d="M3.9211 2.1228
L3.9211 2.0624
" />
<path d="M3.9211 2.0624
L3.8606 1.9414
" />
<path d="M3.8606 1.9414
L3.7397 1.8809
" />
<path d="M3.7397 1.8809
L3.5583 1.8809
" />
<path d="M3.5583 1.8809
L3.4373 1.8205
" />
<path d="M3.4373 1.8205
L3.3768 1.6995
" />
<path d="M3.3768 1.6995
L3.3768 1.6390
" />
<path d="M3.3768 1.6390
L3.4373 1.5181
" />
<path d="M3.4373 1.5181
L3.5583 1.4576
" />
<path d="M3.5583 1.4576
L3.7397 1.4576
" />
<path d="M3.7397 1.4576
L3.8606 1.5181
" />
<path d="M4.2840 1.4576
L4.7678 1.4576
" />
<path d="M4.4654 1.0343
L4.4654 2.1228
" />
<path d="M4.4654 2.1228
L4.5259 2.2438
" />
<path d="M4.5259 2.2438
L4.6468 2.3043
" />
<path d="M4.6468 2.3043
L4.7678 2.3043
" />
<path d="M5.7354 2.3043
L5.7354 1.6390
" />
<path d="M5.7354 1.6390
L5.6749 1.5181
" />
<path d="M5.6749 1.5181
L5.5540 1.4576
" />
<path d="M5.5540 1.4576
L5.3121 1.4576
" />
<path d="M5.3121 1.4576
L5.1911 1.5181
" />
<path d="M5.7354 2.2438
L5.6145 2.3043
" />
<path d="M5.6145 2.3043
L5.3121 2.3043
" />
<path d="M5.3121 2.3043
L5.1911 2.2438
" />
<path d="M5.1911 2.2438
L5.1306 2.1228
" />
<path d="M5.1306 2.1228
L5.1306 2.0019
" />
<path d="M5.1306 2.0019
L5.1911 1.8809
" />
<path d="M5.1911 1.8809
L5.3121 1.8205
" />
<path d="M5.3121 1.8205
L5.6145 1.8205
" />
<path d="M5.6145 1.8205
L5.7354 1.7600
" />
<path d="M6.5216 2.3043
L6.4006 2.2438
" />
<path d="M6.4006 2.2438
L6.3402 2.1228
" />
<path d="M6.3402 2.1228
L6.3402 1.0343
" />
<path d="M6.7030 2.4252
L7.6706 2.4252
" />
<path d="M7.9730 2.3043
L7.9730 1.0343
" />
<path d="M7.9730 1.0343
L8.2754 1.0343
" />
<path d="M8.2754 1.0343
L8.4568 1.0947
" />
<path d="M8.4568 1.0947
L8.5778 1.2157
" />
<path d="M8.5778 1.2157
L8.6383 1.3367
" />
<path d="M8.6383 1.3367
L8.6987 1.5786
" />
<path d="M8.6987 1.5786
L8.6987 1.7600
" />
<path d="M8.6987 1.7600
L8.6383 2.0019
" />
<path d="M8.6383 2.0019
L8.5778 2.1228
" />
<path d="M8.5778 2.1228
L8.4568 2.2438
" />
<path d="M8.4568 2.2438
L8.2754 2.3043
" />
<path d="M8.2754 2.3043
L7.9730 2.3043
" />
<path d="M9.1826 2.2438
L9.3640 2.3043
" />
<path d="M9.3640 2.3043
L9.6664 2.3043
" />
<path d="M9.6664 2.3043
L9.7873 2.2438
" />
<path d="M9.7873 2.2438
L9.8478 2.1833
" />
<path d="M9.8478 2.1833
L9.9083 2.0624
" />
<path d="M9.9083 2.0624
L9.9083 1.9414
" />
<path d="M9.9083 1.9414
L9.8478 1.8205
" />
<path d="M9.8478 1.8205
L9.7873 1.7600
" />
<path d="M9.7873 1.7600
L9.6664 1.6995
" />
<path d="M9.6664 1.6995
L9.4245 1.6390
" />
<path d="M9.4245 1.6390
L9.3035 1.5786
" />
<path d="M9.3035 1.5786
L9.2430 1.5181
" />
<path d="M9.2430 1.5181
L9.1826 1.3971
" />
<path d="M9.1826 1.3971
L9.1826 1.2762
" />
<path d="M9.1826 1.2762
L9.2430 1.1552
" />
<path d="M9.2430 1.1552
L9.3035 1.0947
" />
<path d="M9.3035 1.0947
L9.4245 1.0343
" />
<path d="M9.4245 1.0343
L9.7268 1.0343
" />
<path d="M9.7268 1.0343
L9.9083 1.0947
" />
<path d="M10.3921 1.1552
L10.4526 1.0947
" />
<path d="M10.4526 1.0947
L10.5735 1.0343
" />
<path d="M10.5735 1.0343
L10.8759 1.0343
" />
<path d="M10.8759 1.0343
L10.9968 1.0947
" />
<path d="M10.9968 1.0947
L11.0573 1.1552
" />
<path d="M11.0573 1.1552
L11.1178 1.2762
" />
<path d="M11.1178 1.2762
L11.1178 1.3971
" />
<path d="M11.1178 1.3971
L11.0573 1.5786
" />
<path d="M11.0573 1.5786
L10.3316 2.3043
" />
<path d="M10.3316 2.3043
L11.1178 2.3043
" />
<path d="M12.2064 1.0343
L11.9645 1.0343
" />
<path d="M11.9645 1.0343
L11.8435 1.0947
" />
<path d="M11.8435 1.0947
L11.7830 1.1552
" />
<path d="M11.7830 1.1552
L11.6621 1.3367
" />
<path d="M11.6621 1.3367
L11.6016 1.5786
" />
<path d="M11.6016 1.5786
L11.6016 2.0624
" />
<path d="M11.6016 2.0624
L11.6621 2.1833
" />
<path d="M11.6621 2.1833
L11.7226 2.2438
" />
<path d="M11.7226 2.2438
L11.8435 2.3043
" />
<path d="M11.8435 2.3043
L12.0854 2.3043
" />
<path d="M12.0854 2.3043
L12.2064 2.2438
" />
<path d="M12.2064 2.2438
L12.2668 2.1833
" />
<path d="M12.2668 2.1833
L12.3273 2.0624
" />
<path d="M12.3273 2.0624
L12.3273 1.7600
" />
<path d="M12.3273 1.7600
L12.2668 1.6390
" />
<path d="M12.2668 1.6390
L12.2064 1.5786
" />
<path d="M12.2064 1.5786
L12.0854 1.5181
" />
<path d="M12.0854 1.5181
L11.8435 1.5181
" />
<path d="M11.8435 1.5181
L11.7226 1.5786
" />
<path d="M11.7226 1.5786
L11.6621 1.6390
" />
<path d="M11.6621 1.6390
L11.6016 1.7600
" />
<path d="M12.5692 2.4252
L13.5368 2.4252
" />
<path d="M13.8392 2.3043
L13.8392 1.0343
" />
<path d="M13.8392 1.0343
L14.1416 1.0343
" />
<path d="M14.1416 1.0343
L14.3230 1.0947
" />
<path d="M14.3230 1.0947
L14.4440 1.2157
" />
<path d="M14.4440 1.2157
L14.5045 1.3367
" />
<path d="M14.5045 1.3367
L14.5649 1.5786
" />
<path d="M14.5649 1.5786
L14.5649 1.7600
" />
<path d="M14.5649 1.7600
L14.5045 2.0019
" />
<path d="M14.5045 2.0019
L14.4440 2.1228
" />
<path d="M14.4440 2.1228
L14.3230 2.2438
" />
<path d="M14.3230 2.2438
L14.1416 2.3043
" />
<path d="M14.1416 2.3043
L13.8392 2.3043
" />
<path d="M15.0487 1.1552
L15.1092 1.0947
" />
<path d="M15.1092 1.0947
L15.2302 1.0343
" />
<path d="M15.2302 1.0343
L15.5326 1.0343
" />
<path d="M15.5326 1.0343
L15.6535 1.0947
" />
<path d="M15.6535 1.0947
L15.7140 1.1552
" />
<path d="M15.7140 1.1552
L15.7745 1.2762
" />
<path d="M15.7745 1.2762
L15.7745 1.3971
" />
<path d="M15.7745 1.3971
L15.7140 1.5786
" />
<path d="M15.7140 1.5786
L14.9883 2.3043
" />
<path d="M14.9883 2.3043
L15.7745 2.3043
" />
<path d="M16.3187 2.1833
L16.3792 2.2438
" />
<path d="M16.3792 2.2438
L16.3187 2.3043
" />
<path d="M16.3187 2.3043
L16.2583 2.2438
" />
<path d="M16.2583 2.2438
L16.3187 2.1833
" />
<path d="M16.3187 2.1833
L16.3187 2.3043
" />
<path d="M17.1654 1.0343
L17.2864 1.0343
" />
<path d="M17.2864 1.0343
L17.4073 1.0947
" />
<path d="M17.4073 1.0947
L17.4678 1.1552
" />
<path d="M17.4678 1.1552
L17.5283 1.2762
" />
<path d="M17.5283 1.2762
L17.5887 1.5181
" />
<path d="M17.5887 1.5181
L17.5887 1.8205
" />
<path d="M17.5887 1.8205
L17.5283 2.0624
" />
<path d="M17.5283 2.0624
L17.4678 2.1833
" />
<path d="M17.4678 2.1833
L17.4073 2.2438
" />
<path d="M17.4073 2.2438
L17.2864 2.3043
" />
<path d="M17.2864 2.3043
L17.1654 2.3043
" />
<path d="M17.1654 2.3043
L17.0445 2.2438
" />
<path d="M17.0445 2.2438
L16.9840 2.1833
" />
<path d="M16.9840 2.1833
L16.9235 2.0624
" />
<path d="M16.9235 2.0624
L16.8630 1.8205
" />
<path d="M16.8630 1.8205
L16.8630 1.5181
" />
<path d="M16.8630 1.5181
L16.9235 1.2762
" />
<path d="M16.9235 1.2762
L16.9840 1.1552
" />
<path d="M16.9840 1.1552
L17.0445 1.0947
" />
<path d="M17.0445 1.0947
L17.1654 1.0343
" />
<path d="M18.1330 2.3043
L18.1330 1.4576
" />
<path d="M18.1330 1.5786
L18.1935 1.5181
" />
<path d="M18.1935 1.5181
L18.3145 1.4576
" />
<path d="M18.3145 1.4576
L18.4959 1.4576
" />
<path d="M18.4959 1.4576
L18.6168 1.5181
" />
<path d="M18.6168 1.5181
L18.6773 1.6390
" />
<path d="M18.6773 1.6390
L18.6773 2.3043
" />
<path d="M18.6773 1.6390
L18.7378 1.5181
" />
<path d="M18.7378 1.5181
L18.8587 1.4576
" />
<path d="M18.8587 1.4576
L19.0402 1.4576
" />
<path d="M19.0402 1.4576
L19.1611 1.5181
" />
<path d="M19.1611 1.5181
L19.2216 1.6390
" />
<path d="M19.2216 1.6390
L19.2216 2.3043
" />
<path d="M19.8264 2.3043
L19.8264 1.4576
" />
<path d="M19.8264 1.5786
L19.8868 1.5181
" />
<path d="M19.8868 1.5181
L20.0078 1.4576
" />
<path d="M20.0078 1.4576
L20.1892 1.4576
" />
<path d="M20.1892 1.4576
L20.3102 1.5181
" />
<path d="M20.3102 1.5181
L20.3706 1.6390
" />
<path d="M20.3706 1.6390
L20.3706 2.3043
" />
<path d="M20.3706 1.6390
L20.4311 1.5181
" />
<path d="M20.4311 1.5181
L20.5521 1.4576
" />
<path d="M20.5521 1.4576
L20.7335 1.4576
" />
<path d="M20.7335 1.4576
L20.8545 1.5181
" />
<path d="M20.8545 1.5181
L20.9149 1.6390
" />
<path d="M20.9149 1.6390
L20.9149 2.3043
" />
<path d="M21.2173 2.4252
L22.1849 2.4252
" />
<path d="M23.0921 2.3043
L22.4873 2.3043
" />
<path d="M22.4873 2.3043
L22.4873 1.0343
" />
<path d="M24.0597 1.0343
L23.8178 1.0343
" />
<path d="M23.8178 1.0343
L23.6968 1.0947
" />
<path d="M23.6968 1.0947
L23.6364 1.1552
" />
<path d="M23.6364 1.1552
L23.5154 1.3367
" />
<path d="M23.5154 1.3367
L23.4549 1.5786
" />
<path d="M23.4549 1.5786
L23.4549 2.0624
" />
<path d="M23.4549 2.0624
L23.5154 2.1833
" />
<path d="M23.5154 2.1833
L23.5759 2.2438
" />
<path d="M23.5759 2.2438
L23.6968 2.3043
" />
<path d="M23.6968 2.3043
L23.9387 2.3043
" />
<path d="M23.9387 2.3043
L24.0597 2.2438
" />
<path d="M24.0597 2.2438
L24.1202 2.1833
" />
<path d="M24.1202 2.1833
L24.1806 2.0624
" />
<path d="M24.1806 2.0624
L24.1806 1.7600
" />
<path d="M24.1806 1.7600
L24.1202 1.6390
" />
<path d="M24.1202 1.6390
L24.0597 1.5786
" />
<path d="M24.0597 1.5786
L23.9387 1.5181
" />
<path d="M23.9387 1.5181
L23.6968 1.5181
" />
<path d="M23.6968 1.5181
L23.5759 1.5786
" />
<path d="M23.5759 1.5786
L23.5154 1.6390
" />
<path d="M23.5154 1.6390
L23.4549 1.7600
" />
<path d="M24.7249 2.1833
L24.7854 2.2438
" />
<path d="M24.7854 2.2438
L24.7249 2.3043
" />
<path d="M24.7249 2.3043
L24.6645 2.2438
" />
<path d="M24.6645 2.2438
L24.7249 2.1833
" />
<path d="M24.7249 2.1833
L24.7249 2.3043
" />
<path d="M25.5716 1.0343
L25.6926 1.0343
" />
<path d="M25.6926 1.0343
L25.8135 1.0947
" />
<path d="M25.8135 1.0947
L25.8740 1.1552
" />
<path d="M25.8740 1.1552
L25.9345 1.2762
" />
<path d="M25.9345 1.2762
L25.9949 1.5181
" />
<path d="M25.9949 1.5181
L25.9949 1.8205
" />
<path d="M25.9949 1.8205
L25.9345 2.0624
" />
<path d="M25.9345 2.0624
L25.8740 2.1833
" />
<path d="M25.8740 2.1833
L25.8135 2.2438
" />
<path d="M25.8135 2.2438
L25.6926 2.3043
" />
<path d="M25.6926 2.3043
L25.5716 2.3043
" />
<path d="M25.5716 2.3043
L25.4506 2.2438
" />
<path d="M25.4506 2.2438
L25.3902 2.1833
" />
<path d="M25.3902 2.1833
L25.3297 2.0624
" />
<path d="M25.3297 2.0624
L25.2692 1.8205
" />
<path d="M25.2692 1.8205
L25.2692 1.5181
" />
<path d="M25.2692 1.5181
L25.3297 1.2762
" />
<path d="M25.3297 1.2762
L25.3902 1.1552
" />
<path d="M25.3902 1.1552
L25.4506 1.0947
" />
<path d="M25.4506 1.0947
L25.5716 1.0343
" />
<path d="M26.5392 2.3043
L26.5392 1.4576
" />
<path d="M26.5392 1.5786
L26.5997 1.5181
" />
<path d="M26.5997 1.5181
L26.7206 1.4576
" />
<path d="M26.7206 1.4576
L26.9021 1.4576
" />
<path d="M26.9021 1.4576
L27.0230 1.5181
" />
<path d="M27.0230 1.5181
L27.0835 1.6390
" />
<path d="M27.0835 1.6390
L27.0835 2.3043
" />
<path d="M27.0835 1.6390
L27.1440 1.5181
" />
<path d="M27.1440 1.5181
L27.2649 1.4576
" />
<path d="M27.2649 1.4576
L27.4464 1.4576
" />
<path d="M27.4464 1.4576
L27.5673 1.5181
" />
<path d="M27.5673 1.5181
L27.6278 1.6390
" />
<path d="M27.6278 1.6390
L27.6278 2.3043
" />
<path d="M28.2326 2.3043
L28.2326 1.4576
" />
<path d="M28.2326 1.5786
L28.2930 1.5181
" />
<path d="M28.2930 1.5181
L28.4140 1.4576
" />
<path d="M28.4140 1.4576
L28.5954 1.4576
" />
<path d="M28.5954 1.4576
L28.7164 1.5181
" />
<path d="M28.7164 1.5181
L28.7768 1.6390
" />
<path d="M28.7768 1.6390
L28.7768 2.3043
" />
<path d="M28.7768 1.6390
L28.8373 1.5181
" />
<path d="M28.8373 1.5181
L28.9583 1.4576
" />
<path d="M28.9583 1.4576
L29.1397 1.4576
" />
<path d="M29.1397 1.4576
L29.2606 1.5181
" />
<path d="M29.2606 1.5181
L29.3211 1.6390
" />
<path d="M29.3211 1.6390
L29.3211 2.3043
" />
<path d="M29.6235 2.4252
L30.5911 2.4252
" />
<path d="M30.7121 1.0343
L31.1354 2.3043
" />
<path d="M31.1354 2.3043
L31.5587 1.0343
" />
<path d="M32.4659 2.2438
L32.3449 2.3043
" />
<path d="M32.3449 2.3043
L32.1030 2.3043
" />
<path d="M32.1030 2.3043
L31.9821 2.2438
" />
<path d="M31.9821 2.2438
L31.9216 2.1228
" />
<path d="M31.9216 2.1228
L31.9216 1.6390
" />
<path d="M31.9216 1.6390
L31.9821 1.5181
" />
<path d="M31.9821 1.5181
L32.1030 1.4576
" />
<path d="M32.1030 1.4576
L32.3449 1.4576
" />
<path d="M32.3449 1.4576
L32.4659 1.5181
" />
<path d="M32.4659 1.5181
L32.5264 1.6390
" />
<path d="M32.5264 1.6390
L32.5264 1.7600
" />
<path d="M32.5264 1.7600
L31.9216 1.8809
" />
<path d="M33.0706 2.3043
L33.0706 1.4576
" />
<path d="M33.0706 1.6995
L33.1311 1.5786
" />
<path d="M33.1311 1.5786
L33.1916 1.5181
" />
<path d="M33.1916 1.5181
L33.3126 1.4576
" />
<path d="M33.3126 1.4576
L33.4335 1.4576
" />
<path d="M33.6754 1.4576
L34.1592 1.4576
" />
<path d="M33.8568 1.0343
L33.8568 2.1228
" />
<path d="M33.8568 2.1228
L33.9173 2.2438
" />
<path d="M33.9173 2.2438
L34.0383 2.3043
" />
<path d="M34.0383 2.3043
L34.1592 2.3043
" />
<path d="M34.5825 2.3043
L34.5825 1.4576
" />
<path d="M34.5825 1.0343
L34.5221 1.0947
" />
<path d="M34.5221 1.0947
L34.5825 1.1552
" />
<path d="M34.5825 1.1552
L34.6430 1.0947
" />
<path d="M34.6430 1.0947
L34.5825 1.0343
" />
<path d="M34.5825 1.0343
L34.5825 1.1552
" />
<path d="M35.7316 2.2438
L35.6106 2.3043
" />
<path d="M35.6106 2.3043
L35.3687 2.3043
" />
<path d="M35.3687 2.3043
L35.2478 2.2438
" />
<path d="M35.2478 2.2438
L35.1873 2.1833
" />
<path d="M35.1873 2.1833
L35.1268 2.0624
" />
<path d="M35.1268 2.0624
L35.1268 1.6995
" />
<path d="M35.1268 1.6995
L35.1873 1.5786
" />
<path d="M35.1873 1.5786
L35.2478 1.5181
" />
<path d="M35.2478 1.5181
L35.3687 1.4576
" />
<path d="M35.3687 1.4576
L35.6106 1.4576
" />
<path d="M35.6106 1.4576
L35.7316 1.5181
" />
<path d="M36.8202 2.3043
L36.8202 1.6390
" />
<path d="M36.8202 1.6390
L36.7597 1.5181
" />
<path d="M36.7597 1.5181
L36.6387 1.4576
" />
<path d="M36.6387 1.4576
L36.3968 1.4576
" />
<path d="M36.3968 1.4576
L36.2759 1.5181
" />
<path d="M36.8202 2.2438
L36.6992 2.3043
" />
<path d="M36.6992 2.3043
L36.3968 2.3043
" />
<path d="M36.3968 2.3043
L36.2759 2.2438
" />
<path d="M36.2759 2.2438
L36.2154 2.1228
" />
<path d="M36.2154 2.1228
L36.2154 2.0019
" />
<path d="M36.2154 2.0019
L36.2759 1.8809
" />
<path d="M36.2759 1.8809
L36.3968 1.8205
" />
<path d="M36.3968 1.8205
L36.6992 1.8205
" />
<path d="M36.6992 1.8205
L36.8202 1.7600
" />
<path d="M37.6064 2.3043
L37.4854 2.2438
" />
<path d="M37.4854 2.2438
L37.4249 2.1228
" />
<path d="M37.4249 2.1228
L37.4249 1.0343
" />
</g></g>
<g style="fill:none; 
stroke:#AFAFAF; stroke-width:0.1050; stroke-opacity:1; 
stroke-linecap:round; stroke-linejoin:round;">
<text x="22.4495" y="2.0750"
textLength="3.1750" font-size="0.9333" lengthAdjust="spacingAndGlyphs"
text-anchor="middle" opacity="0">REF**</text>
<g class="stroked-text"><desc>REF**</desc>
<path d="M21.5161 2.0434
L21.2828 1.7100
" />
<path d="M21.1161 2.0434
L21.1161 1.3434
" />
<path d="M21.1161 1.3434
L21.3828 1.3434
" />
<path d="M21.3828 1.3434
L21.4495 1.3767
" />
<path d="M21.4495 1.3767
L21.4828 1.4100
" />
<path d="M21.4828 1.4100
L21.5161 1.4767
" />
<path d="M21.5161 1.4767
L21.5161 1.5767
" />
<path d="M21.5161 1.5767
L21.4828 1.6434
" />
<path d="M21.4828 1.6434
L21.4495 1.6767
" />
<path d="M21.4495 1.6767
L21.3828 1.7100
" />
<path d="M21.3828 1.7100
L21.1161 1.7100
" />
<path d="M21.8161 1.6767
L22.0495 1.6767
" />
<path d="M22.1495 2.0434
L21.8161 2.0434
" />
<path d="M21.8161 2.0434
L21.8161 1.3434
" />
<path d="M21.8161 1.3434
L22.1495 1.3434
" />
<path d="M22.6828 1.6767
L22.4495 1.6767
" />
<path d="M22.4495 2.0434
L22.4495 1.3434
" />
<path d="M22.4495 1.3434
L22.7828 1.3434
" />
<path d="M23.1495 1.3434
L23.1495 1.5100
" />
<path d="M22.9828 1.4434
L23.1495 1.5100
" />
<path d="M23.1495 1.5100
L23.3161 1.4434
" />
<path d="M23.0495 1.6434
L23.1495 1.5100
" />
<path d="M23.1495 1.5100
L23.2495 1.6434
" />
<path d="M23.6828 1.3434
L23.6828 1.5100
" />
<path d="M23.5161 1.4434
L23.6828 1.5100
" />
<path d="M23.6828 1.5100
L23.8495 1.4434
" />
<path d="M23.5828 1.6434
L23.6828 1.5100
" />
<path d="M23.6828 1.5100
L23.7828 1.6434
" />
</g></g>
<g style="fill:none; 
stroke:#AFAFAF; stroke-width:0.1000; stroke-opacity:1; 
stroke-linecap:round; stroke-linejoin:round;">
<circle cx="19.8995" cy="1.7250" r="1.0000" /> 
</g> 
</svg>
