<?xml version="1.0" standalone="no"?>
 <!DOCTYPE svg PUBLIC "-//W3C//DTD SVG 1.1//EN" 
 "http://www.w3.org/Graphics/SVG/1.1/DTD/svg11.dtd"> 
<svg
  xmlns:svg="http://www.w3.org/2000/svg"
  xmlns="http://www.w3.org/2000/svg"
  xmlns:xlink="http://www.w3.org/1999/xlink"
  version="1.1"
  width="48.5902mm" height="23.3934mm" viewBox="0.0000 0.0000 48.5902 23.3934">
<title>SVG Image created as working-brd.svg date 2024/04/19 15:26:40 </title>
  <desc>Image generated by PCBNEW </desc>
<g style="fill:#000000; fill-opacity:1.0000;stroke:#000000; stroke-opacity:1.0000;
stroke-linecap:round; stroke-linejoin:round;"
 transform="translate(0 0) scale(1 1)">
</g>
<g style="fill:#FFFFFF; fill-opacity:1.0000; stroke:none;">
<circle cx="13.2345" cy="20.5950" r="0.7000" /> 
</g>
<g style="fill:#FFFFFF; fill-opacity:1.0000; stroke:none;">
<circle cx="43.7145" cy="2.8150" r="0.7000" /> 
</g>
<g style="fill:#FFFFFF; fill-opacity:1.0000; stroke:none;">
<circle cx="13.2345" cy="2.8150" r="0.7000" /> 
</g>
<g style="fill:#FFFFFF; fill-opacity:1.0000; stroke:none;">
<circle cx="43.7145" cy="20.5950" r="0.7000" /> 
</g>
<g style="fill:#02FFEE; fill-opacity:0.4000; stroke:none;">
<circle cx="13.2345" cy="20.5950" r="1.2000" /> 
</g>
<g style="fill:#02FFEE; fill-opacity:0.4000; stroke:none;">
<circle cx="43.7145" cy="2.8150" r="1.2000" /> 
</g>
<g style="fill:#02FFEE; fill-opacity:0.4000; stroke:none;">
<circle cx="13.2345" cy="2.8150" r="1.2000" /> 
</g>
<g style="fill:#02FFEE; fill-opacity:0.4000; stroke:none;">
<circle cx="43.7145" cy="20.5950" r="1.2000" /> 
</g>
<g style="fill:#FFFFFF; fill-opacity:1.0000; stroke:none;">
<circle cx="13.2345" cy="20.5950" r="0.7000" /> 
</g>
<g style="fill:#FFFFFF; fill-opacity:1.0000; stroke:none;">
<circle cx="43.7145" cy="2.8150" r="0.7000" /> 
</g>
<g style="fill:#FFFFFF; fill-opacity:1.0000; stroke:none;">
<circle cx="13.2345" cy="2.8150" r="0.7000" /> 
</g>
<g style="fill:#FFFFFF; fill-opacity:1.0000; stroke:none;">
<circle cx="43.7145" cy="20.5950" r="0.7000" /> 
</g>
<g style="fill:#FFFFFF; fill-opacity:1.0000; stroke:none;">
<circle cx="13.2345" cy="20.5950" r="0.7000" /> 
</g>
<g style="fill:#FFFFFF; fill-opacity:1.0000; stroke:none;">
<circle cx="43.7145" cy="2.8150" r="0.7000" /> 
</g>
<g style="fill:#FFFFFF; fill-opacity:1.0000; stroke:none;">
<circle cx="13.2345" cy="2.8150" r="0.7000" /> 
</g>
<g style="fill:#FFFFFF; fill-opacity:1.0000; stroke:none;">
<circle cx="43.7145" cy="20.5950" r="0.7000" /> 
</g>
<g style="fill:#D864FF; fill-opacity:0.4000; stroke:none;">
<circle cx="13.2345" cy="20.5950" r="1.2000" /> 
</g>
<g style="fill:#D864FF; fill-opacity:0.4000; stroke:none;">
<circle cx="43.7145" cy="2.8150" r="1.2000" /> 
</g>
<g style="fill:#D864FF; fill-opacity:0.4000; stroke:none;">
<circle cx="13.2345" cy="2.8150" r="1.2000" /> 
</g>
<g style="fill:#D864FF; fill-opacity:0.4000; stroke:none;">
<circle cx="43.7145" cy="20.5950" r="1.2000" /> 
</g>
<g style="fill:none; 
stroke:#F2EDA1; stroke-width:0.1588; stroke-opacity:1; 
stroke-linecap:round; stroke-linejoin:round;">
<text x="13.2345" y="21.2300"
textLength="5.6651" font-size="1.6933" lengthAdjust="spacingAndGlyphs"
text-anchor="middle" opacity="0">REF**</text>
<g class="stroked-text"><desc>REF**</desc>
<path d="M11.5411 21.1743
L11.1178 20.5695
" />
<path d="M10.8154 21.1743
L10.8154 19.9043
" />
<path d="M10.8154 19.9043
L11.2992 19.9043
" />
<path d="M11.2992 19.9043
L11.4202 19.9647
" />
<path d="M11.4202 19.9647
L11.4807 20.0252
" />
<path d="M11.4807 20.0252
L11.5411 20.1462
" />
<path d="M11.5411 20.1462
L11.5411 20.3276
" />
<path d="M11.5411 20.3276
L11.4807 20.4486
" />
<path d="M11.4807 20.4486
L11.4202 20.5090
" />
<path d="M11.4202 20.5090
L11.2992 20.5695
" />
<path d="M11.2992 20.5695
L10.8154 20.5695
" />
<path d="M12.0854 20.5090
L12.5087 20.5090
" />
<path d="M12.6902 21.1743
L12.0854 21.1743
" />
<path d="M12.0854 21.1743
L12.0854 19.9043
" />
<path d="M12.0854 19.9043
L12.6902 19.9043
" />
<path d="M13.6578 20.5090
L13.2345 20.5090
" />
<path d="M13.2345 21.1743
L13.2345 19.9043
" />
<path d="M13.2345 19.9043
L13.8392 19.9043
" />
<path d="M14.5045 19.9043
L14.5045 20.2067
" />
<path d="M14.2021 20.0857
L14.5045 20.2067
" />
<path d="M14.5045 20.2067
L14.8068 20.0857
" />
<path d="M14.3230 20.4486
L14.5045 20.2067
" />
<path d="M14.5045 20.2067
L14.6859 20.4486
" />
<path d="M15.4721 19.9043
L15.4721 20.2067
" />
<path d="M15.1697 20.0857
L15.4721 20.2067
" />
<path d="M15.4721 20.2067
L15.7745 20.0857
" />
<path d="M15.2906 20.4486
L15.4721 20.2067
" />
<path d="M15.4721 20.2067
L15.6535 20.4486
" />
</g></g>
<g style="fill:none; 
stroke:#F2EDA1; stroke-width:0.1200; stroke-opacity:1; 
stroke-linecap:round; stroke-linejoin:round;">
<path d="M13.1245 17.9450
L13.1245 5.4650
" />
<path d="M13.2345 0.1650
L43.7145 0.1650
" />
<path d="M13.2345 23.2450
L43.7145 23.2450
" />
<path d="M43.8245 17.9450
L43.8245 5.4650
" />
<path d="M13.2345 0.1650 A2.6500 2.6500 0.0 0 0 13.1235 5.4627" />
<path d="M13.1235 17.9473 A2.6500 2.6500 0.0 0 0 13.2345 23.2450" />
<path d="M43.8254 5.4627 A2.6500 2.6500 0.0 0 0 43.7145 0.1650" />
<path d="M43.7145 23.2450 A2.6500 2.6500 0.0 0 0 43.8254 17.9473" />
</g>
<g style="fill:#FFFFFF; fill-opacity:1.0000; stroke:none;">
<circle cx="13.2345" cy="20.5950" r="0.7000" /> 
</g>
<g style="fill:#FFFFFF; fill-opacity:1.0000; stroke:none;">
<circle cx="43.7145" cy="2.8150" r="0.7000" /> 
</g>
<g style="fill:#FFFFFF; fill-opacity:1.0000; stroke:none;">
<circle cx="13.2345" cy="2.8150" r="0.7000" /> 
</g>
<g style="fill:#FFFFFF; fill-opacity:1.0000; stroke:none;">
<circle cx="43.7145" cy="20.5950" r="0.7000" /> 
</g>
<g style="fill:none; 
stroke:#FF26E2; stroke-width:0.0500; stroke-opacity:1; 
stroke-linecap:round; stroke-linejoin:round;">
<path d="M10.4445 0.0250
L46.5045 0.0250
" />
<path d="M10.4445 23.3850
L10.4445 0.0250
" />
<path d="M10.4445 23.3850
L46.5045 23.3850
" />
<path d="M46.5045 23.3850
L46.5045 0.0250
" />
</g>
<g style="fill:none; 
stroke:#AFAFAF; stroke-width:0.1588; stroke-opacity:1; 
stroke-linecap:round; stroke-linejoin:round;">
<text x="13.2345" y="21.2300"
textLength="26.4689" font-size="1.6933" lengthAdjust="spacingAndGlyphs"
text-anchor="middle" opacity="0">L_Mount_Lodestone_VTM254</text>
<g class="stroked-text"><desc>L_Mount_Lodestone_VTM254</desc>
<path d="M1.0183 21.1743
L0.4135 21.1743
" />
<path d="M0.4135 21.1743
L0.4135 19.9043
" />
<path d="M1.1392 21.2952
L2.1068 21.2952
" />
<path d="M2.4092 21.1743
L2.4092 19.9043
" />
<path d="M2.4092 19.9043
L2.8326 20.8114
" />
<path d="M2.8326 20.8114
L3.2559 19.9043
" />
<path d="M3.2559 19.9043
L3.2559 21.1743
" />
<path d="M4.0421 21.1743
L3.9211 21.1138
" />
<path d="M3.9211 21.1138
L3.8606 21.0533
" />
<path d="M3.8606 21.0533
L3.8002 20.9324
" />
<path d="M3.8002 20.9324
L3.8002 20.5695
" />
<path d="M3.8002 20.5695
L3.8606 20.4486
" />
<path d="M3.8606 20.4486
L3.9211 20.3881
" />
<path d="M3.9211 20.3881
L4.0421 20.3276
" />
<path d="M4.0421 20.3276
L4.2235 20.3276
" />
<path d="M4.2235 20.3276
L4.3445 20.3881
" />
<path d="M4.3445 20.3881
L4.4049 20.4486
" />
<path d="M4.4049 20.4486
L4.4654 20.5695
" />
<path d="M4.4654 20.5695
L4.4654 20.9324
" />
<path d="M4.4654 20.9324
L4.4049 21.0533
" />
<path d="M4.4049 21.0533
L4.3445 21.1138
" />
<path d="M4.3445 21.1138
L4.2235 21.1743
" />
<path d="M4.2235 21.1743
L4.0421 21.1743
" />
<path d="M5.5540 20.3276
L5.5540 21.1743
" />
<path d="M5.0097 20.3276
L5.0097 20.9928
" />
<path d="M5.0097 20.9928
L5.0702 21.1138
" />
<path d="M5.0702 21.1138
L5.1911 21.1743
" />
<path d="M5.1911 21.1743
L5.3726 21.1743
" />
<path d="M5.3726 21.1743
L5.4935 21.1138
" />
<path d="M5.4935 21.1138
L5.5540 21.0533
" />
<path d="M6.1587 20.3276
L6.1587 21.1743
" />
<path d="M6.1587 20.4486
L6.2192 20.3881
" />
<path d="M6.2192 20.3881
L6.3402 20.3276
" />
<path d="M6.3402 20.3276
L6.5216 20.3276
" />
<path d="M6.5216 20.3276
L6.6426 20.3881
" />
<path d="M6.6426 20.3881
L6.7030 20.5090
" />
<path d="M6.7030 20.5090
L6.7030 21.1743
" />
<path d="M7.1264 20.3276
L7.6102 20.3276
" />
<path d="M7.3078 19.9043
L7.3078 20.9928
" />
<path d="M7.3078 20.9928
L7.3683 21.1138
" />
<path d="M7.3683 21.1138
L7.4892 21.1743
" />
<path d="M7.4892 21.1743
L7.6102 21.1743
" />
<path d="M7.7311 21.2952
L8.6987 21.2952
" />
<path d="M9.6059 21.1743
L9.0011 21.1743
" />
<path d="M9.0011 21.1743
L9.0011 19.9043
" />
<path d="M10.2106 21.1743
L10.0897 21.1138
" />
<path d="M10.0897 21.1138
L10.0292 21.0533
" />
<path d="M10.0292 21.0533
L9.9687 20.9324
" />
<path d="M9.9687 20.9324
L9.9687 20.5695
" />
<path d="M9.9687 20.5695
L10.0292 20.4486
" />
<path d="M10.0292 20.4486
L10.0897 20.3881
" />
<path d="M10.0897 20.3881
L10.2106 20.3276
" />
<path d="M10.2106 20.3276
L10.3921 20.3276
" />
<path d="M10.3921 20.3276
L10.5130 20.3881
" />
<path d="M10.5130 20.3881
L10.5735 20.4486
" />
<path d="M10.5735 20.4486
L10.6340 20.5695
" />
<path d="M10.6340 20.5695
L10.6340 20.9324
" />
<path d="M10.6340 20.9324
L10.5735 21.0533
" />
<path d="M10.5735 21.0533
L10.5130 21.1138
" />
<path d="M10.5130 21.1138
L10.3921 21.1743
" />
<path d="M10.3921 21.1743
L10.2106 21.1743
" />
<path d="M11.7226 21.1743
L11.7226 19.9043
" />
<path d="M11.7226 21.1138
L11.6016 21.1743
" />
<path d="M11.6016 21.1743
L11.3597 21.1743
" />
<path d="M11.3597 21.1743
L11.2387 21.1138
" />
<path d="M11.2387 21.1138
L11.1783 21.0533
" />
<path d="M11.1783 21.0533
L11.1178 20.9324
" />
<path d="M11.1178 20.9324
L11.1178 20.5695
" />
<path d="M11.1178 20.5695
L11.1783 20.4486
" />
<path d="M11.1783 20.4486
L11.2387 20.3881
" />
<path d="M11.2387 20.3881
L11.3597 20.3276
" />
<path d="M11.3597 20.3276
L11.6016 20.3276
" />
<path d="M11.6016 20.3276
L11.7226 20.3881
" />
<path d="M12.8111 21.1138
L12.6902 21.1743
" />
<path d="M12.6902 21.1743
L12.4483 21.1743
" />
<path d="M12.4483 21.1743
L12.3273 21.1138
" />
<path d="M12.3273 21.1138
L12.2668 20.9928
" />
<path d="M12.2668 20.9928
L12.2668 20.5090
" />
<path d="M12.2668 20.5090
L12.3273 20.3881
" />
<path d="M12.3273 20.3881
L12.4483 20.3276
" />
<path d="M12.4483 20.3276
L12.6902 20.3276
" />
<path d="M12.6902 20.3276
L12.8111 20.3881
" />
<path d="M12.8111 20.3881
L12.8716 20.5090
" />
<path d="M12.8716 20.5090
L12.8716 20.6300
" />
<path d="M12.8716 20.6300
L12.2668 20.7509
" />
<path d="M13.3554 21.1138
L13.4764 21.1743
" />
<path d="M13.4764 21.1743
L13.7183 21.1743
" />
<path d="M13.7183 21.1743
L13.8392 21.1138
" />
<path d="M13.8392 21.1138
L13.8997 20.9928
" />
<path d="M13.8997 20.9928
L13.8997 20.9324
" />
<path d="M13.8997 20.9324
L13.8392 20.8114
" />
<path d="M13.8392 20.8114
L13.7183 20.7509
" />
<path d="M13.7183 20.7509
L13.5368 20.7509
" />
<path d="M13.5368 20.7509
L13.4159 20.6905
" />
<path d="M13.4159 20.6905
L13.3554 20.5695
" />
<path d="M13.3554 20.5695
L13.3554 20.5090
" />
<path d="M13.3554 20.5090
L13.4159 20.3881
" />
<path d="M13.4159 20.3881
L13.5368 20.3276
" />
<path d="M13.5368 20.3276
L13.7183 20.3276
" />
<path d="M13.7183 20.3276
L13.8392 20.3881
" />
<path d="M14.2626 20.3276
L14.7464 20.3276
" />
<path d="M14.4440 19.9043
L14.4440 20.9928
" />
<path d="M14.4440 20.9928
L14.5045 21.1138
" />
<path d="M14.5045 21.1138
L14.6254 21.1743
" />
<path d="M14.6254 21.1743
L14.7464 21.1743
" />
<path d="M15.3511 21.1743
L15.2302 21.1138
" />
<path d="M15.2302 21.1138
L15.1697 21.0533
" />
<path d="M15.1697 21.0533
L15.1092 20.9324
" />
<path d="M15.1092 20.9324
L15.1092 20.5695
" />
<path d="M15.1092 20.5695
L15.1697 20.4486
" />
<path d="M15.1697 20.4486
L15.2302 20.3881
" />
<path d="M15.2302 20.3881
L15.3511 20.3276
" />
<path d="M15.3511 20.3276
L15.5326 20.3276
" />
<path d="M15.5326 20.3276
L15.6535 20.3881
" />
<path d="M15.6535 20.3881
L15.7140 20.4486
" />
<path d="M15.7140 20.4486
L15.7745 20.5695
" />
<path d="M15.7745 20.5695
L15.7745 20.9324
" />
<path d="M15.7745 20.9324
L15.7140 21.0533
" />
<path d="M15.7140 21.0533
L15.6535 21.1138
" />
<path d="M15.6535 21.1138
L15.5326 21.1743
" />
<path d="M15.5326 21.1743
L15.3511 21.1743
" />
<path d="M16.3187 20.3276
L16.3187 21.1743
" />
<path d="M16.3187 20.4486
L16.3792 20.3881
" />
<path d="M16.3792 20.3881
L16.5002 20.3276
" />
<path d="M16.5002 20.3276
L16.6816 20.3276
" />
<path d="M16.6816 20.3276
L16.8026 20.3881
" />
<path d="M16.8026 20.3881
L16.8630 20.5090
" />
<path d="M16.8630 20.5090
L16.8630 21.1743
" />
<path d="M17.9516 21.1138
L17.8306 21.1743
" />
<path d="M17.8306 21.1743
L17.5887 21.1743
" />
<path d="M17.5887 21.1743
L17.4678 21.1138
" />
<path d="M17.4678 21.1138
L17.4073 20.9928
" />
<path d="M17.4073 20.9928
L17.4073 20.5090
" />
<path d="M17.4073 20.5090
L17.4678 20.3881
" />
<path d="M17.4678 20.3881
L17.5887 20.3276
" />
<path d="M17.5887 20.3276
L17.8306 20.3276
" />
<path d="M17.8306 20.3276
L17.9516 20.3881
" />
<path d="M17.9516 20.3881
L18.0121 20.5090
" />
<path d="M18.0121 20.5090
L18.0121 20.6300
" />
<path d="M18.0121 20.6300
L17.4073 20.7509
" />
<path d="M18.2540 21.2952
L19.2216 21.2952
" />
<path d="M19.3426 19.9043
L19.7659 21.1743
" />
<path d="M19.7659 21.1743
L20.1892 19.9043
" />
<path d="M20.4311 19.9043
L21.1568 19.9043
" />
<path d="M20.7940 21.1743
L20.7940 19.9043
" />
<path d="M21.5802 21.1743
L21.5802 19.9043
" />
<path d="M21.5802 19.9043
L22.0035 20.8114
" />
<path d="M22.0035 20.8114
L22.4268 19.9043
" />
<path d="M22.4268 19.9043
L22.4268 21.1743
" />
<path d="M22.9711 20.0252
L23.0316 19.9647
" />
<path d="M23.0316 19.9647
L23.1526 19.9043
" />
<path d="M23.1526 19.9043
L23.4549 19.9043
" />
<path d="M23.4549 19.9043
L23.5759 19.9647
" />
<path d="M23.5759 19.9647
L23.6364 20.0252
" />
<path d="M23.6364 20.0252
L23.6968 20.1462
" />
<path d="M23.6968 20.1462
L23.6968 20.2671
" />
<path d="M23.6968 20.2671
L23.6364 20.4486
" />
<path d="M23.6364 20.4486
L22.9106 21.1743
" />
<path d="M22.9106 21.1743
L23.6968 21.1743
" />
<path d="M24.8459 19.9043
L24.2411 19.9043
" />
<path d="M24.2411 19.9043
L24.1806 20.5090
" />
<path d="M24.1806 20.5090
L24.2411 20.4486
" />
<path d="M24.2411 20.4486
L24.3621 20.3881
" />
<path d="M24.3621 20.3881
L24.6645 20.3881
" />
<path d="M24.6645 20.3881
L24.7854 20.4486
" />
<path d="M24.7854 20.4486
L24.8459 20.5090
" />
<path d="M24.8459 20.5090
L24.9064 20.6300
" />
<path d="M24.9064 20.6300
L24.9064 20.9324
" />
<path d="M24.9064 20.9324
L24.8459 21.0533
" />
<path d="M24.8459 21.0533
L24.7854 21.1138
" />
<path d="M24.7854 21.1138
L24.6645 21.1743
" />
<path d="M24.6645 21.1743
L24.3621 21.1743
" />
<path d="M24.3621 21.1743
L24.2411 21.1138
" />
<path d="M24.2411 21.1138
L24.1806 21.0533
" />
<path d="M25.9949 20.3276
L25.9949 21.1743
" />
<path d="M25.6926 19.8438
L25.3902 20.7509
" />
<path d="M25.3902 20.7509
L26.1764 20.7509
" />
</g></g>
<g style="fill:none; 
stroke:#AFAFAF; stroke-width:0.1500; stroke-opacity:1; 
stroke-linecap:round; stroke-linejoin:round;">
<text x="28.4745" y="12.2050"
textLength="4.5357" font-size="1.3333" lengthAdjust="spacingAndGlyphs"
text-anchor="middle" opacity="0">REF**</text>
<g class="stroked-text"><desc>REF**</desc>
<path d="M27.1411 12.1598
L26.8078 11.6836
" />
<path d="M26.5697 12.1598
L26.5697 11.1598
" />
<path d="M26.5697 11.1598
L26.9506 11.1598
" />
<path d="M26.9506 11.1598
L27.0459 11.2074
" />
<path d="M27.0459 11.2074
L27.0935 11.2551
" />
<path d="M27.0935 11.2551
L27.1411 11.3503
" />
<path d="M27.1411 11.3503
L27.1411 11.4932
" />
<path d="M27.1411 11.4932
L27.0935 11.5884
" />
<path d="M27.0935 11.5884
L27.0459 11.6360
" />
<path d="M27.0459 11.6360
L26.9506 11.6836
" />
<path d="M26.9506 11.6836
L26.5697 11.6836
" />
<path d="M27.5697 11.6360
L27.9030 11.6360
" />
<path d="M28.0459 12.1598
L27.5697 12.1598
" />
<path d="M27.5697 12.1598
L27.5697 11.1598
" />
<path d="M27.5697 11.1598
L28.0459 11.1598
" />
<path d="M28.8078 11.6360
L28.4745 11.6360
" />
<path d="M28.4745 12.1598
L28.4745 11.1598
" />
<path d="M28.4745 11.1598
L28.9506 11.1598
" />
<path d="M29.4745 11.1598
L29.4745 11.3979
" />
<path d="M29.2364 11.3027
L29.4745 11.3979
" />
<path d="M29.4745 11.3979
L29.7126 11.3027
" />
<path d="M29.3316 11.5884
L29.4745 11.3979
" />
<path d="M29.4745 11.3979
L29.6173 11.5884
" />
<path d="M30.2364 11.1598
L30.2364 11.3979
" />
<path d="M29.9983 11.3027
L30.2364 11.3979
" />
<path d="M30.2364 11.3979
L30.4745 11.3027
" />
<path d="M30.0935 11.5884
L30.2364 11.3979
" />
<path d="M30.2364 11.3979
L30.3792 11.5884
" />
</g></g>
<g style="fill:none; 
stroke:#AFAFAF; stroke-width:0.1000; stroke-opacity:1; 
stroke-linecap:round; stroke-linejoin:round;">
<path d="M8.3945 2.1800
L13.2345 2.1800
" />
<path d="M8.3945 3.4500
L8.3945 2.1800
" />
<path d="M8.3945 19.9600
L13.2345 19.9600
" />
<path d="M8.3945 21.2300
L8.3945 19.9600
" />
<path d="M13.2345 0.2750
L43.7145 0.2750
" />
<path d="M13.2345 3.4500
L8.3945 3.4500
" />
<path d="M13.2345 18.0550
L13.2345 5.3550
" />
<path d="M13.2345 21.2300
L8.3945 21.2300
" />
<path d="M13.2345 23.1350
L43.7145 23.1350
" />
<path d="M17.8045 21.9900
L17.8045 23.1350
" />
<path d="M17.8045 21.9900
L39.1445 21.9900
" />
<path d="M39.1445 21.9900
L39.1445 23.1350
" />
<path d="M43.7145 2.1800
L48.5545 2.1800
" />
<path d="M43.7145 18.0550
L43.7145 5.3550
" />
<path d="M43.7145 19.9600
L48.5545 19.9600
" />
<path d="M48.5545 2.1800
L48.5545 3.4500
" />
<path d="M48.5545 3.4500
L43.7145 3.4500
" />
<path d="M48.5545 19.9600
L48.5545 21.2300
" />
<path d="M48.5545 21.2300
L43.7145 21.2300
" />
<path d="M13.2345 3.4500 A0.6350 0.6350 0.0 0 0 13.2345 2.1800" />
<path d="M13.2345 0.2750 A2.5400 2.5400 0.0 0 0 13.2345 5.3550" />
<path d="M13.2345 21.2300 A0.6350 0.6350 0.0 0 0 13.2345 19.9600" />
<path d="M13.2345 18.0550 A2.5400 2.5400 0.0 0 0 13.2345 23.1350" />
<path d="M43.7145 5.3550 A2.5400 2.5400 0.0 0 0 43.7145 0.2750" />
<path d="M43.7145 2.1800 A0.6350 0.6350 0.0 0 0 43.7145 3.4500" />
<path d="M43.7145 23.1350 A2.5400 2.5400 0.0 0 0 43.7145 18.0550" />
<path d="M43.7145 19.9600 A0.6350 0.6350 0.0 0 0 43.7145 21.2300" />
</g> 
</svg>
