<?xml version="1.0" standalone="no"?>
 <!DOCTYPE svg PUBLIC "-//W3C//DTD SVG 1.1//EN" 
 "http://www.w3.org/Graphics/SVG/1.1/DTD/svg11.dtd"> 
<svg
  xmlns:svg="http://www.w3.org/2000/svg"
  xmlns="http://www.w3.org/2000/svg"
  xmlns:xlink="http://www.w3.org/1999/xlink"
  version="1.1"
  width="32.0802mm" height="6.0198mm" viewBox="0.0000 0.0000 32.0802 6.0198">
<title>SVG Image created as working-brd.svg date 2024/04/23 07:17:09 </title>
  <desc>Image generated by PCBNEW </desc>
<g style="fill:#000000; fill-opacity:1.0000;stroke:#000000; stroke-opacity:1.0000;
stroke-linecap:round; stroke-linejoin:round;"
 transform="translate(0 0) scale(1 1)">
</g>
<g style="fill:none; 
stroke:#F2EDA1; stroke-width:0.1588; stroke-opacity:1; 
stroke-linecap:round; stroke-linejoin:round;">
<text x="16.0466" y="3.6515"
textLength="5.6651" font-size="1.6933" lengthAdjust="spacingAndGlyphs"
text-anchor="middle" opacity="0">REF**</text>
<g class="stroked-text"><desc>REF**</desc>
<path d="M14.3533 3.5958
L13.9299 2.9910
" />
<path d="M13.6276 3.5958
L13.6276 2.3258
" />
<path d="M13.6276 2.3258
L14.1114 2.3258
" />
<path d="M14.1114 2.3258
L14.2323 2.3863
" />
<path d="M14.2323 2.3863
L14.2928 2.4468
" />
<path d="M14.2928 2.4468
L14.3533 2.5677
" />
<path d="M14.3533 2.5677
L14.3533 2.7491
" />
<path d="M14.3533 2.7491
L14.2928 2.8701
" />
<path d="M14.2928 2.8701
L14.2323 2.9306
" />
<path d="M14.2323 2.9306
L14.1114 2.9910
" />
<path d="M14.1114 2.9910
L13.6276 2.9910
" />
<path d="M14.8976 2.9306
L15.3209 2.9306
" />
<path d="M15.5023 3.5958
L14.8976 3.5958
" />
<path d="M14.8976 3.5958
L14.8976 2.3258
" />
<path d="M14.8976 2.3258
L15.5023 2.3258
" />
<path d="M16.4699 2.9306
L16.0466 2.9306
" />
<path d="M16.0466 3.5958
L16.0466 2.3258
" />
<path d="M16.0466 2.3258
L16.6514 2.3258
" />
<path d="M17.3166 2.3258
L17.3166 2.6282
" />
<path d="M17.0142 2.5072
L17.3166 2.6282
" />
<path d="M17.3166 2.6282
L17.6190 2.5072
" />
<path d="M17.1352 2.8701
L17.3166 2.6282
" />
<path d="M17.3166 2.6282
L17.4980 2.8701
" />
<path d="M18.2842 2.3258
L18.2842 2.6282
" />
<path d="M17.9818 2.5072
L18.2842 2.6282
" />
<path d="M18.2842 2.6282
L18.5866 2.5072
" />
<path d="M18.1028 2.8701
L18.2842 2.6282
" />
<path d="M18.2842 2.6282
L18.4656 2.8701
" />
</g><path style="fill:#F2EDA1; fill-opacity:1.0000; 
stroke:#F2EDA1; stroke-width:0.0100; stroke-opacity:1; 
stroke-linecap:round; stroke-linejoin:round;fill-rule:evenodd;"
d="M 17.8461,4.4746
17.8893,4.4878
17.9172,4.5045
17.9262,4.5177
17.9237,4.5333
17.9075,4.5579
17.8938,4.5753
17.8656,4.6068
17.8444,4.6201
17.8263,4.6192
17.7726,4.6055
17.7332,4.6062
17.7012,4.6216
17.6905,4.6307
17.6561,4.6626
17.6561,5.0787
17.5178,5.0787
17.5178,4.4751
17.5869,4.4751
17.6285,4.4768
17.6499,4.4826
17.6561,4.4940
17.6561,4.4943
17.6590,4.5062
17.6723,4.5047
17.6907,4.4961
17.7286,4.4801
17.7595,4.4705
17.7991,4.4680
Z" /> 
<path style="fill:#F2EDA1; fill-opacity:1.0000; 
stroke:#F2EDA1; stroke-width:0.0100; stroke-opacity:1; 
stroke-linecap:round; stroke-linejoin:round;fill-rule:evenodd;"
d="M 17.6819,5.4180
17.7302,5.4275
17.7577,5.4417
17.7867,5.4651
17.7455,5.5171
17.7201,5.5486
17.7028,5.5640
17.6857,5.5663
17.6606,5.5588
17.6489,5.5545
17.6009,5.5482
17.5569,5.5617
17.5247,5.5922
17.5194,5.6020
17.5137,5.6278
17.5093,5.6754
17.5064,5.7413
17.5052,5.8222
17.5052,5.8338
17.5052,6.0344
17.3669,6.0344
17.3669,5.4182
17.4361,5.4182
17.4759,5.4193
17.4967,5.4239
17.5044,5.4344
17.5052,5.4443
17.5052,5.4703
17.5383,5.4443
17.5763,5.4265
17.6274,5.4177
Z" /> 
<path style="fill:#F2EDA1; fill-opacity:1.0000; 
stroke:#F2EDA1; stroke-width:0.0100; stroke-opacity:1; 
stroke-linecap:round; stroke-linejoin:round;fill-rule:evenodd;"
d="M 15.0532,5.4196
15.0721,5.4252
15.0781,5.4376
15.0784,5.4432
15.0795,5.4588
15.0870,5.4612
15.1072,5.4505
15.1192,5.4432
15.1572,5.4276
15.2025,5.4199
15.2501,5.4193
15.2946,5.4250
15.3310,5.4364
15.3541,5.4526
15.3586,5.4729
15.3563,5.4784
15.3396,5.5012
15.3136,5.5292
15.3089,5.5337
15.2842,5.5545
15.2629,5.5613
15.2330,5.5566
15.2211,5.5535
15.1839,5.5460
15.1577,5.5493
15.1357,5.5612
15.1154,5.5772
15.1005,5.5972
15.0902,5.6252
15.0836,5.6650
15.0800,5.7204
15.0785,5.7951
15.0784,5.8403
15.0784,6.0344
14.9526,6.0344
14.9526,5.4182
15.0155,5.4182
Z" /> 
<path style="fill:#F2EDA1; fill-opacity:1.0000; 
stroke:#F2EDA1; stroke-width:0.0100; stroke-opacity:1; 
stroke-linecap:round; stroke-linejoin:round;fill-rule:evenodd;"
d="M 17.0400,4.6709
17.0412,4.7631
17.0455,4.8331
17.0542,4.8839
17.0683,4.9183
17.0891,4.9392
17.1177,4.9495
17.1531,4.9522
17.1902,4.9492
17.2184,4.9384
17.2388,4.9169
17.2527,4.8817
17.2611,4.8300
17.2652,4.7589
17.2663,4.6709
17.2663,4.4751
17.4046,4.4751
17.4046,5.0787
17.3355,5.0787
17.2938,5.0770
17.2723,5.0711
17.2663,5.0598
17.2627,5.0498
17.2483,5.0519
17.2193,5.0661
17.1529,5.0880
17.0825,5.0865
17.0150,5.0627
16.9828,5.0439
16.9583,5.0236
16.9404,4.9981
16.9281,4.9640
16.9203,4.9177
16.9161,4.8555
16.9144,4.7741
16.9142,4.7111
16.9142,4.4751
17.0400,4.4751
Z" /> 
<path style="fill:#F2EDA1; fill-opacity:1.0000; 
stroke:#F2EDA1; stroke-width:0.0100; stroke-opacity:1; 
stroke-linecap:round; stroke-linejoin:round;fill-rule:evenodd;"
d="M 15.2926,4.4855
15.3239,4.5005
15.3542,4.5221
15.3773,4.5469
15.3941,4.5786
15.4056,4.6207
15.4127,4.6769
15.4164,4.7506
15.4176,4.8456
15.4176,4.8555
15.4179,5.0787
15.2796,5.0787
15.2796,4.8730
15.2795,4.7967
15.2788,4.7415
15.2769,4.7030
15.2734,4.6772
15.2675,4.6599
15.2587,4.6469
15.2464,4.6340
15.2036,4.6064
15.1568,4.6013
15.1122,4.6188
15.0967,4.6318
15.0853,4.6440
15.0771,4.6571
15.0716,4.6751
15.0683,4.7023
15.0665,4.7427
15.0659,4.8004
15.0658,4.8707
15.0658,5.0787
14.9275,5.0787
14.9275,4.4751
14.9967,4.4751
15.0382,4.4768
15.0596,4.4826
15.0658,4.4940
15.0658,4.4943
15.0687,4.5055
15.0814,4.5042
15.1067,4.4920
15.1640,4.4740
15.2296,4.4720
Z" /> 
<path style="fill:#F2EDA1; fill-opacity:1.0000; 
stroke:#F2EDA1; stroke-width:0.0100; stroke-opacity:1; 
stroke-linecap:round; stroke-linejoin:round;fill-rule:evenodd;"
d="M 18.2638,4.4804
18.3367,4.5114
18.3596,4.5264
18.3890,4.5496
18.4074,4.5678
18.4106,4.5737
18.4015,4.5869
18.3784,4.6092
18.3599,4.6248
18.3093,4.6655
18.2694,4.6318
18.2385,4.6101
18.2084,4.6026
18.1739,4.6045
18.1192,4.6181
18.0815,4.6463
18.0586,4.6920
18.0482,4.7578
18.0482,4.7579
18.0491,4.8315
18.0631,4.8855
18.0909,4.9223
18.1099,4.9347
18.1604,4.9502
18.2143,4.9502
18.2611,4.9352
18.2722,4.9278
18.3001,4.9090
18.3218,4.9060
18.3453,4.9199
18.3712,4.9450
18.4123,4.9874
18.3667,5.0250
18.2963,5.0674
18.2168,5.0883
18.1338,5.0868
18.0793,5.0729
18.0156,5.0387
17.9646,4.9847
17.9415,4.9467
17.9227,4.8921
17.9133,4.8229
17.9132,4.7479
17.9224,4.6759
17.9408,4.6157
17.9437,4.6095
17.9866,4.5489
18.0446,4.5048
18.1132,4.4780
18.1878,4.4696
Z" /> 
<path style="fill:#F2EDA1; fill-opacity:1.0000; 
stroke:#F2EDA1; stroke-width:0.0100; stroke-opacity:1; 
stroke-linecap:round; stroke-linejoin:round;fill-rule:evenodd;"
d="M 16.6574,4.4826
16.7210,4.5172
16.7707,4.5719
16.7942,4.6164
16.8042,4.6557
16.8108,4.7116
16.8136,4.7762
16.8124,4.8410
16.8072,4.8979
16.8011,4.9283
16.7806,4.9698
16.7451,5.0140
16.7022,5.0526
16.6598,5.0776
16.6588,5.0780
16.6062,5.0889
16.5438,5.0891
16.4845,5.0792
16.4616,5.0713
16.4027,5.0378
16.3605,4.9940
16.3328,4.9361
16.3173,4.8601
16.3137,4.8203
16.3142,4.7703
16.4490,4.7703
16.4535,4.8433
16.4666,4.8989
16.4874,4.9344
16.5022,4.9446
16.5401,4.9516
16.5851,4.9495
16.6241,4.9393
16.6343,4.9337
16.6613,4.9011
16.6791,4.8511
16.6866,4.7902
16.6829,4.7250
16.6747,4.6858
16.6509,4.6403
16.6135,4.6119
16.5683,4.6021
16.5216,4.6124
16.4857,4.6376
16.4669,4.6585
16.4559,4.6790
16.4506,4.7067
16.4490,4.7493
16.4490,4.7703
16.3142,4.7703
16.3147,4.7141
16.3320,4.6270
16.3656,4.5591
16.4156,4.5102
16.4820,4.4804
16.4962,4.4770
16.5818,4.4689
Z" /> 
<path style="fill:#F2EDA1; fill-opacity:1.0000; 
stroke:#F2EDA1; stroke-width:0.0100; stroke-opacity:1; 
stroke-linecap:round; stroke-linejoin:round;fill-rule:evenodd;"
d="M 16.3281,5.4208
16.3779,5.4245
16.5079,5.8143
16.5283,5.7451
16.5405,5.7024
16.5567,5.6446
16.5741,5.5812
16.5833,5.5471
16.6180,5.4182
16.7610,5.4182
16.7182,5.5534
16.6972,5.6199
16.6718,5.7001
16.6452,5.7837
16.6215,5.8583
16.5675,6.0281
16.5092,6.0319
16.4509,6.0357
16.4193,5.9313
16.3998,5.8664
16.3785,5.7949
16.3599,5.7318
16.3592,5.7293
16.3453,5.6865
16.3330,5.6573
16.3244,5.6463
16.3227,5.6476
16.3165,5.6647
16.3047,5.7013
16.2888,5.7529
16.2702,5.8148
16.2601,5.8489
16.2056,6.0344
16.0899,6.0344
15.9973,5.7420
15.9713,5.6600
15.9477,5.5855
15.9274,5.5221
15.9117,5.4732
15.9017,5.4423
15.8987,5.4333
15.9011,5.4240
15.9200,5.4200
15.9594,5.4204
15.9656,5.4207
16.0387,5.4245
16.0866,5.6005
16.1042,5.6647
16.1199,5.7212
16.1323,5.7650
16.1402,5.7912
16.1416,5.7954
16.1476,5.7905
16.1597,5.7651
16.1765,5.7225
16.1966,5.6664
16.2136,5.6157
16.2784,5.4170
Z" /> 
<path style="fill:#F2EDA1; fill-opacity:1.0000; 
stroke:#F2EDA1; stroke-width:0.0100; stroke-opacity:1; 
stroke-linecap:round; stroke-linejoin:round;fill-rule:evenodd;"
d="M 13.5083,4.4817
13.5741,4.5108
13.6241,4.5593
13.6582,4.6274
13.6767,4.7152
13.6780,4.7289
13.6791,4.8255
13.6656,4.9101
13.6385,4.9788
13.6240,5.0008
13.5734,5.0475
13.5090,5.0778
13.4369,5.0904
13.3634,5.0840
13.3075,5.0643
13.2595,5.0312
13.2202,4.9877
13.2195,4.9867
13.2036,4.9599
13.1932,4.9329
13.1869,4.8989
13.1832,4.8508
13.1816,4.8115
13.1809,4.7758
13.3066,4.7758
13.3079,4.8113
13.3123,4.8586
13.3202,4.8890
13.3344,4.9106
13.3477,4.9232
13.3948,4.9497
13.4441,4.9532
13.4900,4.9342
13.5130,4.9129
13.5295,4.8914
13.5392,4.8708
13.5434,4.8441
13.5437,4.8041
13.5424,4.7672
13.5396,4.7145
13.5351,4.6803
13.5271,4.6580
13.5135,4.6410
13.5028,4.6312
13.4578,4.6057
13.4094,4.6044
13.3687,4.6195
13.3340,4.6512
13.3134,4.7032
13.3066,4.7758
13.1809,4.7758
13.1801,4.7332
13.1827,4.6746
13.1902,4.6305
13.2039,4.5958
13.2247,4.5651
13.2325,4.5560
13.2807,4.5106
13.3325,4.4840
13.3958,4.4729
13.4266,4.4720
Z" /> 
<path style="fill:#F2EDA1; fill-opacity:1.0000; 
stroke:#F2EDA1; stroke-width:0.0100; stroke-opacity:1; 
stroke-linecap:round; stroke-linejoin:round;fill-rule:evenodd;"
d="M 15.8454,6.0344
15.7763,6.0344
15.7361,6.0332
15.7152,6.0283
15.7077,6.0177
15.7071,6.0106
15.7058,5.9962
15.6978,5.9935
15.6768,6.0023
15.6604,6.0106
15.5976,6.0301
15.5294,6.0313
15.4738,6.0167
15.4222,5.9814
15.3828,5.9294
15.3612,5.8680
15.3606,5.8646
15.3574,5.8271
15.3558,5.7733
15.3560,5.7327
15.4933,5.7327
15.4965,5.7867
15.5037,5.8313
15.5135,5.8564
15.5506,5.8908
15.5946,5.9031
15.6400,5.8932
15.6788,5.8634
15.6935,5.8434
15.7021,5.8196
15.7061,5.7848
15.7071,5.7325
15.7053,5.6807
15.7006,5.6352
15.6940,5.6047
15.6929,5.6020
15.6661,5.5695
15.6270,5.5517
15.5833,5.5488
15.5426,5.5612
15.5125,5.5891
15.5094,5.5947
15.4996,5.6286
15.4943,5.6773
15.4933,5.7327
15.3560,5.7327
15.3560,5.7121
15.3569,5.6791
15.3631,5.5975
15.3759,5.5363
15.3971,5.4910
15.4287,5.4573
15.4594,5.4375
15.5022,5.4237
15.5555,5.4189
15.6101,5.4228
15.6568,5.4348
15.6815,5.4492
15.7071,5.4724
15.7071,5.1793
15.8454,5.1793
Z" /> 
<path style="fill:#F2EDA1; fill-opacity:1.0000; 
stroke:#F2EDA1; stroke-width:0.0100; stroke-opacity:1; 
stroke-linecap:round; stroke-linejoin:round;fill-rule:evenodd;"
d="M 18.7245,4.4730
18.7567,4.4808
18.8184,4.5095
18.8712,4.5532
18.9077,4.6057
18.9128,4.6174
18.9196,4.6483
18.9245,4.6939
18.9261,4.7400
18.9261,4.8272
18.7438,4.8272
18.6686,4.8275
18.6156,4.8292
18.5819,4.8337
18.5646,4.8423
18.5608,4.8562
18.5674,4.8768
18.5794,4.9008
18.6127,4.9411
18.6590,4.9611
18.7155,4.9604
18.7796,4.9386
18.8350,4.9117
18.8810,4.9481
18.9269,4.9844
18.8837,5.0244
18.8260,5.0621
18.7550,5.0849
18.6786,5.0912
18.6048,5.0798
18.5929,5.0759
18.5280,5.0420
18.4797,4.9915
18.4471,4.9229
18.4290,4.8345
18.4288,4.8327
18.4272,4.7364
18.4337,4.7021
18.5615,4.7021
18.5732,4.7074
18.6050,4.7114
18.6520,4.7137
18.6818,4.7141
18.7372,4.7138
18.7719,4.7124
18.7902,4.7088
18.7964,4.7017
18.7948,4.6902
18.7935,4.6858
18.7710,4.6439
18.7356,4.6101
18.7044,4.5953
18.6629,4.5962
18.6209,4.6147
18.5856,4.6453
18.5645,4.6826
18.5615,4.7021
18.4337,4.7021
18.4433,4.6518
18.4753,4.5807
18.5213,4.5253
18.5794,4.4875
18.6478,4.4694
Z" /> 
<path style="fill:#F2EDA1; fill-opacity:1.0000; 
stroke:#F2EDA1; stroke-width:0.0100; stroke-opacity:1; 
stroke-linecap:round; stroke-linejoin:round;fill-rule:evenodd;"
d="M 16.0606,4.4730
16.1082,4.4820
16.1576,4.5009
16.1629,4.5033
16.2004,4.5230
16.2263,4.5413
16.2347,4.5530
16.2267,4.5722
16.2073,4.6004
16.1987,4.6109
16.1632,4.6524
16.1175,4.6254
16.0740,4.6074
16.0237,4.5978
15.9754,4.5972
15.9381,4.6062
15.9291,4.6119
15.9120,4.6377
15.9100,4.6675
15.9227,4.6907
15.9303,4.6952
15.9529,4.7008
15.9927,4.7074
16.0418,4.7137
16.0508,4.7147
16.1296,4.7283
16.1867,4.7515
16.2246,4.7863
16.2457,4.8349
16.2522,4.8943
16.2432,4.9617
16.2138,5.0147
16.1639,5.0533
16.0934,5.0776
16.0152,5.0872
15.9514,5.0871
15.8996,5.0784
15.8643,5.0664
15.8196,5.0454
15.7783,5.0211
15.7637,5.0104
15.7260,4.9796
15.7715,4.9336
15.8169,4.8875
15.8687,4.9218
15.9206,4.9475
15.9760,4.9609
16.0292,4.9624
16.0746,4.9520
16.1066,4.9300
16.1169,4.9115
16.1154,4.8818
16.0897,4.8591
16.0401,4.8435
15.9856,4.8362
15.9019,4.8224
15.8396,4.7963
15.7981,4.7572
15.7765,4.7044
15.7735,4.6417
15.7883,4.5762
15.8221,4.5267
15.8751,4.4929
15.9477,4.4747
16.0015,4.4712
Z" /> 
<path style="fill:#F2EDA1; fill-opacity:1.0000; 
stroke:#F2EDA1; stroke-width:0.0100; stroke-opacity:1; 
stroke-linecap:round; stroke-linejoin:round;fill-rule:evenodd;"
d="M 18.0792,5.4215
18.1393,5.4371
18.1896,5.4694
18.2140,5.4935
18.2539,5.5504
18.2768,5.6165
18.2847,5.6977
18.2847,5.7043
18.2848,5.7703
17.9049,5.7703
17.9130,5.8049
17.9276,5.8362
17.9532,5.8688
17.9585,5.8740
18.0045,5.9022
18.0570,5.9070
18.1174,5.8885
18.1276,5.8835
18.1590,5.8683
18.1801,5.8596
18.1837,5.8588
18.1965,5.8666
18.2210,5.8856
18.2334,5.8960
18.2591,5.9199
18.2675,5.9356
18.2617,5.9501
18.2585,5.9541
18.2373,5.9714
18.2023,5.9925
18.1779,6.0048
18.1087,6.0265
18.0320,6.0335
17.9594,6.0252
17.9390,6.0192
17.8761,5.9855
17.8294,5.9336
17.7988,5.8630
17.7839,5.7732
17.7822,5.7263
17.7870,5.6579
17.9076,5.6579
17.9193,5.6630
17.9506,5.6670
17.9962,5.6693
18.0270,5.6697
18.0826,5.6693
18.1176,5.6675
18.1369,5.6633
18.1449,5.6557
18.1465,5.6448
18.1357,5.6109
18.1086,5.5775
18.0729,5.5518
18.0372,5.5413
17.9886,5.5506
17.9467,5.5775
17.9175,5.6164
17.9076,5.6579
17.7870,5.6579
17.7892,5.6268
17.8107,5.5475
17.8471,5.4878
17.8989,5.4471
17.9666,5.4247
18.0033,5.4204
Z" /> 
<path style="fill:#F2EDA1; fill-opacity:1.0000; 
stroke:#F2EDA1; stroke-width:0.0100; stroke-opacity:1; 
stroke-linecap:round; stroke-linejoin:round;fill-rule:evenodd;"
d="M 14.6899,4.4891
14.7024,4.4950
14.7458,4.5268
14.7868,4.5732
14.8174,4.6242
14.8261,4.6477
14.8341,4.6896
14.8388,4.7403
14.8394,4.7612
14.8395,4.8272
14.4595,4.8272
14.4676,4.8618
14.4875,4.9027
14.5223,4.9380
14.5636,4.9608
14.5900,4.9655
14.6257,4.9598
14.6683,4.9454
14.6828,4.9388
14.7364,4.9120
14.7821,4.9469
14.8084,4.9705
14.8225,4.9900
14.8232,4.9957
14.8106,5.0095
14.7832,5.0305
14.7582,5.0470
14.6909,5.0765
14.6155,5.0898
14.5407,5.0863
14.4811,5.0682
14.4197,5.0293
14.3760,4.9781
14.3487,4.9119
14.3363,4.8279
14.3352,4.7895
14.3396,4.7014
14.3401,4.6988
14.4660,4.6988
14.4695,4.7071
14.4837,4.7116
14.5131,4.7136
14.5620,4.7141
14.5809,4.7141
14.6381,4.7134
14.6745,4.7109
14.6940,4.7060
14.7009,4.6980
14.7012,4.6954
14.6933,4.6750
14.6735,4.6463
14.6650,4.6363
14.6335,4.6079
14.6007,4.5968
14.5829,4.5959
14.5351,4.6075
14.4949,4.6388
14.4694,4.6843
14.4690,4.6858
14.4660,4.6988
14.3401,4.6988
14.3542,4.6320
14.3806,4.5766
14.4128,4.5372
14.4724,4.4945
14.5424,4.4716
14.6169,4.4696
Z" /> 
<path style="fill:#F2EDA1; fill-opacity:1.0000; 
stroke:#F2EDA1; stroke-width:0.0100; stroke-opacity:1; 
stroke-linecap:round; stroke-linejoin:round;fill-rule:evenodd;"
d="M 17.0850,5.4220
17.1380,5.4348
17.1533,5.4416
17.1830,5.4595
17.2058,5.4796
17.2227,5.5055
17.2346,5.5406
17.2425,5.5885
17.2475,5.6525
17.2504,5.7363
17.2515,5.7923
17.2557,6.0344
17.1855,6.0344
17.1430,6.0326
17.1211,6.0265
17.1154,6.0162
17.1124,6.0052
17.0991,6.0073
17.0808,6.0162
17.0352,6.0298
16.9766,6.0334
16.9150,6.0274
16.8602,6.0121
16.8553,6.0099
16.8053,5.9748
16.7724,5.9260
16.7572,5.8689
16.7583,5.8484
16.8821,5.8484
16.8930,5.8760
16.9253,5.8957
16.9775,5.9064
17.0054,5.9078
17.0518,5.9042
17.0827,5.8901
17.0903,5.8835
17.1107,5.8472
17.1154,5.8143
17.1154,5.7703
17.0541,5.7703
16.9829,5.7739
16.9329,5.7854
16.9013,5.8054
16.8942,5.8143
16.8821,5.8484
16.7583,5.8484
16.7606,5.8090
16.7833,5.7518
16.8142,5.7131
16.8330,5.6964
16.8513,5.6854
16.8752,5.6787
16.9106,5.6749
16.9633,5.6724
16.9842,5.6717
17.1154,5.6674
17.1152,5.6277
17.1101,5.5859
17.0918,5.5607
17.0546,5.5446
17.0536,5.5443
17.0010,5.5379
16.9495,5.5462
16.9112,5.5664
16.8959,5.5763
16.8793,5.5749
16.8539,5.5605
16.8389,5.5504
16.8097,5.5286
16.7916,5.5123
16.7887,5.5077
16.8006,5.4835
16.8360,5.4547
16.8514,5.4450
16.8955,5.4282
16.9550,5.4188
17.0211,5.4166
Z" /> 
<path style="fill:#F2EDA1; fill-opacity:1.0000; 
stroke:#F2EDA1; stroke-width:0.0100; stroke-opacity:1; 
stroke-linecap:round; stroke-linejoin:round;fill-rule:evenodd;"
d="M 14.6624,5.4231
14.7215,5.4389
14.7666,5.4675
14.7984,5.5050
14.8082,5.5209
14.8155,5.5377
14.8206,5.5591
14.8239,5.5892
14.8258,5.6317
14.8267,5.6907
14.8269,5.7700
14.8269,5.7910
14.8269,6.0344
14.7665,6.0344
14.7280,6.0317
14.6996,6.0248
14.6924,6.0206
14.6729,6.0133
14.6530,6.0206
14.6202,6.0297
14.5726,6.0333
14.5198,6.0318
14.4716,6.0251
14.4434,6.0166
14.3888,5.9816
14.3548,5.9330
14.3394,5.8684
14.3393,5.8668
14.3406,5.8381
14.4622,5.8381
14.4729,5.8707
14.4902,5.8890
14.5249,5.9029
14.5708,5.9085
14.6176,5.9057
14.6551,5.8948
14.6656,5.8878
14.6839,5.8554
14.6886,5.8186
14.6886,5.7703
14.6190,5.7703
14.5529,5.7754
14.5028,5.7898
14.4717,5.8123
14.4622,5.8381
14.3406,5.8381
14.3426,5.7962
14.3659,5.7404
14.4097,5.6982
14.4157,5.6943
14.4417,5.6818
14.4739,5.6743
14.5188,5.6706
14.5723,5.6697
14.6886,5.6697
14.6886,5.6209
14.6836,5.5831
14.6711,5.5578
14.6696,5.5564
14.6416,5.5453
14.5993,5.5410
14.5525,5.5431
14.5112,5.5513
14.4866,5.5635
14.4733,5.5733
14.4593,5.5751
14.4399,5.5671
14.4106,5.5473
14.3668,5.5136
14.3628,5.5104
14.3648,5.4988
14.3820,5.4794
14.4082,5.4578
14.4370,5.4396
14.4461,5.4353
14.4792,5.4268
14.5277,5.4207
14.5819,5.4182
14.5844,5.4182
Z" /> 
<path style="fill:#F2EDA1; fill-opacity:1.0000; 
stroke:#F2EDA1; stroke-width:0.0100; stroke-opacity:1; 
stroke-linecap:round; stroke-linejoin:round;fill-rule:evenodd;"
d="M 14.1378,4.4857
14.1644,4.4988
14.1970,4.5216
14.2209,4.5465
14.2372,4.5778
14.2474,4.6197
14.2527,4.6766
14.2547,4.7527
14.2548,4.7855
14.2544,4.8572
14.2531,4.9085
14.2501,4.9439
14.2450,4.9683
14.2371,4.9862
14.2288,4.9984
14.1764,5.0504
14.1147,5.0817
14.0481,5.0911
13.9810,5.0775
13.9598,5.0679
13.9090,5.0414
13.9090,5.4566
13.9461,5.4374
13.9950,5.4226
14.0550,5.4188
14.1150,5.4258
14.1603,5.4415
14.1979,5.4716
14.2300,5.5146
14.2325,5.5190
14.2426,5.5398
14.2501,5.5607
14.2552,5.5861
14.2584,5.6202
14.2602,5.6672
14.2609,5.7314
14.2611,5.8037
14.2611,6.0344
14.1227,6.0344
14.1227,5.6091
14.0841,5.5765
14.0439,5.5505
14.0058,5.5457
13.9675,5.5579
13.9471,5.5699
13.9320,5.5868
13.9212,5.6125
13.9139,5.6505
13.9094,5.7045
13.9068,5.7780
13.9058,5.8269
13.9027,6.0281
13.8367,6.0319
13.7707,6.0357
13.7707,4.7872
13.9090,4.7872
13.9125,4.8568
13.9244,4.9051
13.9466,4.9352
13.9810,4.9500
14.0159,4.9530
14.0553,4.9496
14.0814,4.9362
14.0978,4.9184
14.1107,4.8994
14.1183,4.8781
14.1217,4.8484
14.1219,4.8038
14.1207,4.7664
14.1181,4.7101
14.1141,4.6732
14.1075,4.6498
14.0969,4.6340
14.0868,4.6249
14.0446,4.6051
13.9948,4.6019
13.9661,4.6087
13.9378,4.6330
13.9190,4.6803
13.9099,4.7502
13.9090,4.7872
13.7707,4.7872
13.7707,4.4751
13.8398,4.4751
13.8813,4.4768
13.9028,4.4826
13.9090,4.4940
13.9090,4.4943
13.9119,4.5055
13.9246,4.5042
13.9498,4.4920
14.0087,4.4732
14.0750,4.4713
Z" /> 
<path style="fill:#F2EDA1; fill-opacity:1.0000; 
stroke:#F2EDA1; stroke-width:0.0100; stroke-opacity:1; 
stroke-linecap:round; stroke-linejoin:round;fill-rule:evenodd;"
d="M 16.4236,0.3066
16.4804,0.6081
16.8999,0.7810
17.1516,0.6099
17.2221,0.5623
17.2858,0.5197
17.3397,0.4842
17.3810,0.4577
17.4065,0.4422
17.4135,0.4388
17.4260,0.4474
17.4528,0.4713
17.4909,0.5074
17.5372,0.5526
17.5887,0.6039
17.6425,0.6582
17.6955,0.7126
17.7448,0.7638
17.7873,0.8090
17.8200,0.8450
17.8400,0.8688
17.8447,0.8767
17.8379,0.8914
17.8186,0.9235
17.7890,0.9700
17.7511,1.0277
17.7069,1.0934
17.6813,1.1309
17.6345,1.1993
17.5930,1.2611
17.5587,1.3131
17.5337,1.3522
17.5199,1.3755
17.5178,1.3804
17.5225,1.3943
17.5353,1.4267
17.5543,1.4730
17.5776,1.5287
17.6032,1.5893
17.6291,1.6501
17.6536,1.7067
17.6745,1.7544
17.6899,1.7887
17.6981,1.8051
17.6986,1.8057
17.7113,1.8089
17.7453,1.8159
17.7969,1.8260
17.8628,1.8386
17.9393,1.8530
17.9839,1.8614
18.0656,1.8769
18.1394,1.8917
18.2016,1.9050
18.2484,1.9158
18.2761,1.9235
18.2817,1.9260
18.2871,1.9425
18.2915,1.9797
18.2949,2.0334
18.2972,2.0991
18.2984,2.1726
18.2986,2.2493
18.2978,2.3251
18.2960,2.3954
18.2931,2.4560
18.2892,2.5025
18.2842,2.5306
18.2813,2.5364
18.2635,2.5435
18.2260,2.5535
18.1736,2.5653
18.1113,2.5778
18.0895,2.5818
17.9846,2.6011
17.9018,2.6165
17.8382,2.6289
17.7912,2.6387
17.7581,2.6466
17.7360,2.6533
17.7222,2.6593
17.7141,2.6653
17.7129,2.6664
17.7016,2.6854
17.6842,2.7222
17.6627,2.7724
17.6386,2.8316
17.6137,2.8951
17.5898,2.9585
17.5685,3.0172
17.5517,3.0668
17.5410,3.1027
17.5382,3.1204
17.5385,3.1210
17.5479,3.1355
17.5694,3.1674
17.6007,3.2133
17.6394,3.2700
17.6834,3.3342
17.6959,3.3524
17.7406,3.4184
17.7799,3.4787
17.8117,3.5298
17.8338,3.5681
17.8442,3.5902
17.8447,3.5930
17.8360,3.6073
17.8119,3.6356
17.7756,3.6749
17.7301,3.7222
17.6785,3.7744
17.6239,3.8284
17.5694,3.8812
17.5181,3.9298
17.4732,3.9711
17.4376,4.0020
17.4145,4.0196
17.4082,4.0225
17.3933,4.0157
17.3629,3.9975
17.3219,3.9708
17.2903,3.9494
17.2331,3.9100
17.1654,3.8637
17.0975,3.8174
17.0610,3.7927
16.9374,3.7091
16.8336,3.7652
16.7863,3.7898
16.7461,3.8089
16.7189,3.8198
16.7120,3.8213
16.7037,3.8101
16.6873,3.7785
16.6640,3.7293
16.6350,3.6655
16.6017,3.5901
16.5651,3.5059
16.5266,3.4158
16.4873,3.3229
16.4485,3.2299
16.4114,3.1398
16.3773,3.0555
16.3473,2.9799
16.3227,2.9161
16.3047,2.8668
16.2946,2.8350
16.2930,2.8240
16.3059,2.8101
16.3342,2.7875
16.3719,2.7609
16.3751,2.7588
16.4727,2.6806
16.5514,2.5895
16.6105,2.4883
16.6493,2.3799
16.6672,2.2671
16.6635,2.1531
16.6375,2.0406
16.5884,1.9325
16.5740,1.9089
16.4990,1.8134
16.4103,1.7368
16.3111,1.6793
16.2045,1.6415
16.0934,1.6236
15.9810,1.6262
15.8704,1.6495
15.7645,1.6940
15.6665,1.7602
15.6362,1.7870
15.5590,1.8710
15.5028,1.9595
15.4643,2.0586
15.4428,2.1568
15.4375,2.2672
15.4552,2.3782
15.4940,2.4859
15.5523,2.5867
15.6281,2.6768
15.7198,2.7524
15.7318,2.7604
15.7700,2.7865
15.7990,2.8091
15.8129,2.8236
15.8131,2.8240
15.8101,2.8397
15.7983,2.8751
15.7789,2.9275
15.7531,2.9939
15.7222,3.0713
15.6874,3.1570
15.6498,3.2479
15.6108,3.3411
15.5716,3.4337
15.5333,3.5229
15.4973,3.6056
15.4647,3.6790
15.4367,3.7401
15.4147,3.7861
15.3998,3.8140
15.3938,3.8213
15.3754,3.8156
15.3410,3.8003
15.2966,3.7781
15.2722,3.7652
15.1684,3.7091
15.0448,3.7927
14.9817,3.8355
14.9126,3.8827
14.8479,3.9270
14.8155,3.9494
14.7699,3.9800
14.7312,4.0043
14.7046,4.0191
14.6960,4.0223
14.6834,4.0138
14.6556,3.9902
14.6152,3.9538
14.5650,3.9072
14.5076,3.8529
14.4713,3.8179
14.4078,3.7555
14.3529,3.6997
14.3089,3.6529
14.2779,3.6174
14.2622,3.5957
14.2607,3.5913
14.2677,3.5745
14.2870,3.5406
14.3165,3.4930
14.3541,3.4351
14.3975,3.3704
14.4099,3.3524
14.4549,3.2868
14.4953,3.2278
14.5288,3.1786
14.5531,3.1426
14.5661,3.1230
14.5673,3.1210
14.5654,3.1055
14.5555,3.0712
14.5393,3.0229
14.5184,2.9649
14.4947,2.9018
14.4698,2.8381
14.4456,2.7783
14.4236,2.7269
14.4058,2.6885
14.3937,2.6674
14.3928,2.6664
14.3854,2.6604
14.3730,2.6545
14.3527,2.6480
14.3218,2.6403
14.2777,2.6309
14.2175,2.6191
14.1385,2.6043
14.0380,2.5858
14.0163,2.5818
13.9518,2.5694
13.8956,2.5572
13.8526,2.5465
13.8278,2.5383
13.8245,2.5364
13.8190,2.5197
13.8146,2.4822
13.8112,2.4283
13.8088,2.3625
13.8074,2.2890
13.8071,2.2122
13.8078,2.1365
13.8096,2.0663
13.8124,2.0058
13.8162,1.9595
13.8211,1.9317
13.8241,1.9260
13.8406,1.9202
13.8780,1.9109
13.9328,1.8987
14.0012,1.8846
14.0793,1.8694
14.1219,1.8614
14.2027,1.8463
14.2747,1.8326
14.3345,1.8210
14.3785,1.8122
14.4032,1.8069
14.4072,1.8057
14.4141,1.7925
14.4286,1.7606
14.4488,1.7146
14.4728,1.6590
14.4987,1.5985
14.5244,1.5375
14.5482,1.4807
14.5679,1.4325
14.5818,1.3976
14.5879,1.3806
14.5880,1.3798
14.5811,1.3663
14.5619,1.3353
14.5323,1.2898
14.4944,1.2330
14.4502,1.1678
14.4245,1.1304
14.3777,1.0618
14.3361,0.9995
14.3018,0.9467
14.2767,0.9065
14.2630,0.8820
14.2611,0.8766
14.2696,0.8638
14.2931,0.8366
14.3286,0.7980
14.3732,0.7510
14.4237,0.6986
14.4773,0.6440
14.5308,0.5902
14.5813,0.5402
14.6258,0.4971
14.6613,0.4639
14.6847,0.4436
14.6926,0.4388
14.7053,0.4456
14.7359,0.4647
14.7812,0.4941
14.8384,0.5319
14.9044,0.5762
14.9542,0.6099
15.2058,0.7810
15.4156,0.6946
15.6254,0.6081
15.6822,0.3066
15.7391,0.0050
16.3667,0.0050
Z" /> 
</g>
<g style="fill:none; 
stroke:#AFAFAF; stroke-width:0.1588; stroke-opacity:1; 
stroke-linecap:round; stroke-linejoin:round;">
<text x="16.0466" y="3.6515"
textLength="32.0932" font-size="1.6933" lengthAdjust="spacingAndGlyphs"
text-anchor="middle" opacity="0">OSHW-Logo_5.7x6mm_SilkScreen</text>
<g class="stroked-text"><desc>OSHW-Logo_5.7x6mm_SilkScreen</desc>
<path d="M0.6554 2.3258
L0.8973 2.3258
" />
<path d="M0.8973 2.3258
L1.0183 2.3863
" />
<path d="M1.0183 2.3863
L1.1392 2.5072
" />
<path d="M1.1392 2.5072
L1.1997 2.7491
" />
<path d="M1.1997 2.7491
L1.1997 3.1725
" />
<path d="M1.1997 3.1725
L1.1392 3.4144
" />
<path d="M1.1392 3.4144
L1.0183 3.5353
" />
<path d="M1.0183 3.5353
L0.8973 3.5958
" />
<path d="M0.8973 3.5958
L0.6554 3.5958
" />
<path d="M0.6554 3.5958
L0.5345 3.5353
" />
<path d="M0.5345 3.5353
L0.4135 3.4144
" />
<path d="M0.4135 3.4144
L0.3530 3.1725
" />
<path d="M0.3530 3.1725
L0.3530 2.7491
" />
<path d="M0.3530 2.7491
L0.4135 2.5072
" />
<path d="M0.4135 2.5072
L0.5345 2.3863
" />
<path d="M0.5345 2.3863
L0.6554 2.3258
" />
<path d="M1.6835 3.5353
L1.8649 3.5958
" />
<path d="M1.8649 3.5958
L2.1673 3.5958
" />
<path d="M2.1673 3.5958
L2.2883 3.5353
" />
<path d="M2.2883 3.5353
L2.3487 3.4749
" />
<path d="M2.3487 3.4749
L2.4092 3.3539
" />
<path d="M2.4092 3.3539
L2.4092 3.2329
" />
<path d="M2.4092 3.2329
L2.3487 3.1120
" />
<path d="M2.3487 3.1120
L2.2883 3.0515
" />
<path d="M2.2883 3.0515
L2.1673 2.9910
" />
<path d="M2.1673 2.9910
L1.9254 2.9306
" />
<path d="M1.9254 2.9306
L1.8045 2.8701
" />
<path d="M1.8045 2.8701
L1.7440 2.8096
" />
<path d="M1.7440 2.8096
L1.6835 2.6887
" />
<path d="M1.6835 2.6887
L1.6835 2.5677
" />
<path d="M1.6835 2.5677
L1.7440 2.4468
" />
<path d="M1.7440 2.4468
L1.8045 2.3863
" />
<path d="M1.8045 2.3863
L1.9254 2.3258
" />
<path d="M1.9254 2.3258
L2.2278 2.3258
" />
<path d="M2.2278 2.3258
L2.4092 2.3863
" />
<path d="M2.9535 3.5958
L2.9535 2.3258
" />
<path d="M2.9535 2.9306
L3.6792 2.9306
" />
<path d="M3.6792 3.5958
L3.6792 2.3258
" />
<path d="M4.1630 2.3258
L4.4654 3.5958
" />
<path d="M4.4654 3.5958
L4.7073 2.6887
" />
<path d="M4.7073 2.6887
L4.9492 3.5958
" />
<path d="M4.9492 3.5958
L5.2516 2.3258
" />
<path d="M5.7354 3.1120
L6.7030 3.1120
" />
<path d="M7.9126 3.5958
L7.3078 3.5958
" />
<path d="M7.3078 3.5958
L7.3078 2.3258
" />
<path d="M8.5173 3.5958
L8.3964 3.5353
" />
<path d="M8.3964 3.5353
L8.3359 3.4749
" />
<path d="M8.3359 3.4749
L8.2754 3.3539
" />
<path d="M8.2754 3.3539
L8.2754 2.9910
" />
<path d="M8.2754 2.9910
L8.3359 2.8701
" />
<path d="M8.3359 2.8701
L8.3964 2.8096
" />
<path d="M8.3964 2.8096
L8.5173 2.7491
" />
<path d="M8.5173 2.7491
L8.6987 2.7491
" />
<path d="M8.6987 2.7491
L8.8197 2.8096
" />
<path d="M8.8197 2.8096
L8.8802 2.8701
" />
<path d="M8.8802 2.8701
L8.9406 2.9910
" />
<path d="M8.9406 2.9910
L8.9406 3.3539
" />
<path d="M8.9406 3.3539
L8.8802 3.4749
" />
<path d="M8.8802 3.4749
L8.8197 3.5353
" />
<path d="M8.8197 3.5353
L8.6987 3.5958
" />
<path d="M8.6987 3.5958
L8.5173 3.5958
" />
<path d="M10.0292 2.7491
L10.0292 3.7772
" />
<path d="M10.0292 3.7772
L9.9687 3.8982
" />
<path d="M9.9687 3.8982
L9.9083 3.9587
" />
<path d="M9.9083 3.9587
L9.7873 4.0191
" />
<path d="M9.7873 4.0191
L9.6059 4.0191
" />
<path d="M9.6059 4.0191
L9.4849 3.9587
" />
<path d="M10.0292 3.5353
L9.9083 3.5958
" />
<path d="M9.9083 3.5958
L9.6664 3.5958
" />
<path d="M9.6664 3.5958
L9.5454 3.5353
" />
<path d="M9.5454 3.5353
L9.4849 3.4749
" />
<path d="M9.4849 3.4749
L9.4245 3.3539
" />
<path d="M9.4245 3.3539
L9.4245 2.9910
" />
<path d="M9.4245 2.9910
L9.4849 2.8701
" />
<path d="M9.4849 2.8701
L9.5454 2.8096
" />
<path d="M9.5454 2.8096
L9.6664 2.7491
" />
<path d="M9.6664 2.7491
L9.9083 2.7491
" />
<path d="M9.9083 2.7491
L10.0292 2.8096
" />
<path d="M10.8154 3.5958
L10.6945 3.5353
" />
<path d="M10.6945 3.5353
L10.6340 3.4749
" />
<path d="M10.6340 3.4749
L10.5735 3.3539
" />
<path d="M10.5735 3.3539
L10.5735 2.9910
" />
<path d="M10.5735 2.9910
L10.6340 2.8701
" />
<path d="M10.6340 2.8701
L10.6945 2.8096
" />
<path d="M10.6945 2.8096
L10.8154 2.7491
" />
<path d="M10.8154 2.7491
L10.9968 2.7491
" />
<path d="M10.9968 2.7491
L11.1178 2.8096
" />
<path d="M11.1178 2.8096
L11.1783 2.8701
" />
<path d="M11.1783 2.8701
L11.2387 2.9910
" />
<path d="M11.2387 2.9910
L11.2387 3.3539
" />
<path d="M11.2387 3.3539
L11.1783 3.4749
" />
<path d="M11.1783 3.4749
L11.1178 3.5353
" />
<path d="M11.1178 3.5353
L10.9968 3.5958
" />
<path d="M10.9968 3.5958
L10.8154 3.5958
" />
<path d="M11.4806 3.7168
L12.4483 3.7168
" />
<path d="M13.3554 2.3258
L12.7507 2.3258
" />
<path d="M12.7507 2.3258
L12.6902 2.9306
" />
<path d="M12.6902 2.9306
L12.7507 2.8701
" />
<path d="M12.7507 2.8701
L12.8716 2.8096
" />
<path d="M12.8716 2.8096
L13.1740 2.8096
" />
<path d="M13.1740 2.8096
L13.2949 2.8701
" />
<path d="M13.2949 2.8701
L13.3554 2.9306
" />
<path d="M13.3554 2.9306
L13.4159 3.0515
" />
<path d="M13.4159 3.0515
L13.4159 3.3539
" />
<path d="M13.4159 3.3539
L13.3554 3.4749
" />
<path d="M13.3554 3.4749
L13.2949 3.5353
" />
<path d="M13.2949 3.5353
L13.1740 3.5958
" />
<path d="M13.1740 3.5958
L12.8716 3.5958
" />
<path d="M12.8716 3.5958
L12.7507 3.5353
" />
<path d="M12.7507 3.5353
L12.6902 3.4749
" />
<path d="M13.9602 3.4749
L14.0207 3.5353
" />
<path d="M14.0207 3.5353
L13.9602 3.5958
" />
<path d="M13.9602 3.5958
L13.8997 3.5353
" />
<path d="M13.8997 3.5353
L13.9602 3.4749
" />
<path d="M13.9602 3.4749
L13.9602 3.5958
" />
<path d="M14.4440 2.3258
L15.2907 2.3258
" />
<path d="M15.2907 2.3258
L14.7464 3.5958
" />
<path d="M15.6535 3.5958
L16.3187 2.7491
" />
<path d="M15.6535 2.7491
L16.3187 3.5958
" />
<path d="M17.3468 2.3258
L17.1049 2.3258
" />
<path d="M17.1049 2.3258
L16.9840 2.3863
" />
<path d="M16.9840 2.3863
L16.9235 2.4468
" />
<path d="M16.9235 2.4468
L16.8026 2.6282
" />
<path d="M16.8026 2.6282
L16.7421 2.8701
" />
<path d="M16.7421 2.8701
L16.7421 3.3539
" />
<path d="M16.7421 3.3539
L16.8026 3.4749
" />
<path d="M16.8026 3.4749
L16.8630 3.5353
" />
<path d="M16.8630 3.5353
L16.9840 3.5958
" />
<path d="M16.9840 3.5958
L17.2259 3.5958
" />
<path d="M17.2259 3.5958
L17.3468 3.5353
" />
<path d="M17.3468 3.5353
L17.4073 3.4749
" />
<path d="M17.4073 3.4749
L17.4678 3.3539
" />
<path d="M17.4678 3.3539
L17.4678 3.0515
" />
<path d="M17.4678 3.0515
L17.4073 2.9306
" />
<path d="M17.4073 2.9306
L17.3468 2.8701
" />
<path d="M17.3468 2.8701
L17.2259 2.8096
" />
<path d="M17.2259 2.8096
L16.9840 2.8096
" />
<path d="M16.9840 2.8096
L16.8630 2.8701
" />
<path d="M16.8630 2.8701
L16.8026 2.9306
" />
<path d="M16.8026 2.9306
L16.7421 3.0515
" />
<path d="M18.0121 3.5958
L18.0121 2.7491
" />
<path d="M18.0121 2.8701
L18.0726 2.8096
" />
<path d="M18.0726 2.8096
L18.1935 2.7491
" />
<path d="M18.1935 2.7491
L18.3749 2.7491
" />
<path d="M18.3749 2.7491
L18.4959 2.8096
" />
<path d="M18.4959 2.8096
L18.5564 2.9306
" />
<path d="M18.5564 2.9306
L18.5564 3.5958
" />
<path d="M18.5564 2.9306
L18.6168 2.8096
" />
<path d="M18.6168 2.8096
L18.7378 2.7491
" />
<path d="M18.7378 2.7491
L18.9192 2.7491
" />
<path d="M18.9192 2.7491
L19.0402 2.8096
" />
<path d="M19.0402 2.8096
L19.1006 2.9306
" />
<path d="M19.1006 2.9306
L19.1006 3.5958
" />
<path d="M19.7054 3.5958
L19.7054 2.7491
" />
<path d="M19.7054 2.8701
L19.7659 2.8096
" />
<path d="M19.7659 2.8096
L19.8868 2.7491
" />
<path d="M19.8868 2.7491
L20.0683 2.7491
" />
<path d="M20.0683 2.7491
L20.1892 2.8096
" />
<path d="M20.1892 2.8096
L20.2497 2.9306
" />
<path d="M20.2497 2.9306
L20.2497 3.5958
" />
<path d="M20.2497 2.9306
L20.3102 2.8096
" />
<path d="M20.3102 2.8096
L20.4311 2.7491
" />
<path d="M20.4311 2.7491
L20.6126 2.7491
" />
<path d="M20.6126 2.7491
L20.7335 2.8096
" />
<path d="M20.7335 2.8096
L20.7940 2.9306
" />
<path d="M20.7940 2.9306
L20.7940 3.5958
" />
<path d="M21.0964 3.7168
L22.0640 3.7168
" />
<path d="M22.3059 3.5353
L22.4873 3.5958
" />
<path d="M22.4873 3.5958
L22.7897 3.5958
" />
<path d="M22.7897 3.5958
L22.9106 3.5353
" />
<path d="M22.9106 3.5353
L22.9711 3.4749
" />
<path d="M22.9711 3.4749
L23.0316 3.3539
" />
<path d="M23.0316 3.3539
L23.0316 3.2329
" />
<path d="M23.0316 3.2329
L22.9711 3.1120
" />
<path d="M22.9711 3.1120
L22.9106 3.0515
" />
<path d="M22.9106 3.0515
L22.7897 2.9910
" />
<path d="M22.7897 2.9910
L22.5478 2.9306
" />
<path d="M22.5478 2.9306
L22.4268 2.8701
" />
<path d="M22.4268 2.8701
L22.3664 2.8096
" />
<path d="M22.3664 2.8096
L22.3059 2.6887
" />
<path d="M22.3059 2.6887
L22.3059 2.5677
" />
<path d="M22.3059 2.5677
L22.3664 2.4468
" />
<path d="M22.3664 2.4468
L22.4268 2.3863
" />
<path d="M22.4268 2.3863
L22.5478 2.3258
" />
<path d="M22.5478 2.3258
L22.8502 2.3258
" />
<path d="M22.8502 2.3258
L23.0316 2.3863
" />
<path d="M23.5759 3.5958
L23.5759 2.7491
" />
<path d="M23.5759 2.3258
L23.5154 2.3863
" />
<path d="M23.5154 2.3863
L23.5759 2.4468
" />
<path d="M23.5759 2.4468
L23.6364 2.3863
" />
<path d="M23.6364 2.3863
L23.5759 2.3258
" />
<path d="M23.5759 2.3258
L23.5759 2.4468
" />
<path d="M24.3621 3.5958
L24.2411 3.5353
" />
<path d="M24.2411 3.5353
L24.1806 3.4144
" />
<path d="M24.1806 3.4144
L24.1806 2.3258
" />
<path d="M24.8459 3.5958
L24.8459 2.3258
" />
<path d="M24.9668 3.1120
L25.3297 3.5958
" />
<path d="M25.3297 2.7491
L24.8459 3.2329
" />
<path d="M25.8135 3.5353
L25.9949 3.5958
" />
<path d="M25.9949 3.5958
L26.2973 3.5958
" />
<path d="M26.2973 3.5958
L26.4183 3.5353
" />
<path d="M26.4183 3.5353
L26.4787 3.4749
" />
<path d="M26.4787 3.4749
L26.5392 3.3539
" />
<path d="M26.5392 3.3539
L26.5392 3.2329
" />
<path d="M26.5392 3.2329
L26.4787 3.1120
" />
<path d="M26.4787 3.1120
L26.4183 3.0515
" />
<path d="M26.4183 3.0515
L26.2973 2.9910
" />
<path d="M26.2973 2.9910
L26.0554 2.9306
" />
<path d="M26.0554 2.9306
L25.9345 2.8701
" />
<path d="M25.9345 2.8701
L25.8740 2.8096
" />
<path d="M25.8740 2.8096
L25.8135 2.6887
" />
<path d="M25.8135 2.6887
L25.8135 2.5677
" />
<path d="M25.8135 2.5677
L25.8740 2.4468
" />
<path d="M25.8740 2.4468
L25.9345 2.3863
" />
<path d="M25.9345 2.3863
L26.0554 2.3258
" />
<path d="M26.0554 2.3258
L26.3578 2.3258
" />
<path d="M26.3578 2.3258
L26.5392 2.3863
" />
<path d="M27.6278 3.5353
L27.5068 3.5958
" />
<path d="M27.5068 3.5958
L27.2649 3.5958
" />
<path d="M27.2649 3.5958
L27.1440 3.5353
" />
<path d="M27.1440 3.5353
L27.0835 3.4749
" />
<path d="M27.0835 3.4749
L27.0230 3.3539
" />
<path d="M27.0230 3.3539
L27.0230 2.9910
" />
<path d="M27.0230 2.9910
L27.0835 2.8701
" />
<path d="M27.0835 2.8701
L27.1440 2.8096
" />
<path d="M27.1440 2.8096
L27.2649 2.7491
" />
<path d="M27.2649 2.7491
L27.5068 2.7491
" />
<path d="M27.5068 2.7491
L27.6278 2.8096
" />
<path d="M28.1721 3.5958
L28.1721 2.7491
" />
<path d="M28.1721 2.9910
L28.2326 2.8701
" />
<path d="M28.2326 2.8701
L28.2930 2.8096
" />
<path d="M28.2930 2.8096
L28.4140 2.7491
" />
<path d="M28.4140 2.7491
L28.5349 2.7491
" />
<path d="M29.4421 3.5353
L29.3211 3.5958
" />
<path d="M29.3211 3.5958
L29.0792 3.5958
" />
<path d="M29.0792 3.5958
L28.9583 3.5353
" />
<path d="M28.9583 3.5353
L28.8978 3.4144
" />
<path d="M28.8978 3.4144
L28.8978 2.9306
" />
<path d="M28.8978 2.9306
L28.9583 2.8096
" />
<path d="M28.9583 2.8096
L29.0792 2.7491
" />
<path d="M29.0792 2.7491
L29.3211 2.7491
" />
<path d="M29.3211 2.7491
L29.4421 2.8096
" />
<path d="M29.4421 2.8096
L29.5026 2.9306
" />
<path d="M29.5026 2.9306
L29.5026 3.0515
" />
<path d="M29.5026 3.0515
L28.8978 3.1725
" />
<path d="M30.5306 3.5353
L30.4097 3.5958
" />
<path d="M30.4097 3.5958
L30.1678 3.5958
" />
<path d="M30.1678 3.5958
L30.0468 3.5353
" />
<path d="M30.0468 3.5353
L29.9864 3.4144
" />
<path d="M29.9864 3.4144
L29.9864 2.9306
" />
<path d="M29.9864 2.9306
L30.0468 2.8096
" />
<path d="M30.0468 2.8096
L30.1678 2.7491
" />
<path d="M30.1678 2.7491
L30.4097 2.7491
" />
<path d="M30.4097 2.7491
L30.5306 2.8096
" />
<path d="M30.5306 2.8096
L30.5911 2.9306
" />
<path d="M30.5911 2.9306
L30.5911 3.0515
" />
<path d="M30.5911 3.0515
L29.9864 3.1725
" />
<path d="M31.1354 2.7491
L31.1354 3.5958
" />
<path d="M31.1354 2.8701
L31.1959 2.8096
" />
<path d="M31.1959 2.8096
L31.3168 2.7491
" />
<path d="M31.3168 2.7491
L31.4983 2.7491
" />
<path d="M31.4983 2.7491
L31.6192 2.8096
" />
<path d="M31.6192 2.8096
L31.6797 2.9306
" />
<path d="M31.6797 2.9306
L31.6797 3.5958
" />
</g></g> 
</svg>
