<?xml version="1.0" standalone="no"?>
 <!DOCTYPE svg PUBLIC "-//W3C//DTD SVG 1.1//EN" 
 "http://www.w3.org/Graphics/SVG/1.1/DTD/svg11.dtd"> 
<svg
  xmlns:svg="http://www.w3.org/2000/svg"
  xmlns="http://www.w3.org/2000/svg"
  xmlns:xlink="http://www.w3.org/1999/xlink"
  version="1.1"
  width="54.8894mm" height="3.8354mm" viewBox="0.0000 0.0000 54.8894 3.8354">
<title>SVG Image created as working-brd.svg date 2024/03/28 05:05:42 </title>
  <desc>Image generated by PCBNEW </desc>
<g style="fill:#000000; fill-opacity:1.0000;stroke:#000000; stroke-opacity:1.0000;
stroke-linecap:round; stroke-linejoin:round;"
 transform="translate(0 0) scale(1 1)">
<path style="fill:#C83434; fill-opacity:1.0000; stroke:none;fill-rule:evenodd;"
d="M 21.5964,2.3500
21.6059,2.3022
21.6330,2.2616
21.6735,2.2345
21.7214,2.2250
21.9714,2.2250
22.0192,2.2345
22.0598,2.2616
22.0868,2.3022
22.0964,2.3500
22.0964,3.2000
22.0868,3.2478
22.0598,3.2884
22.0192,3.3155
21.9714,3.3250
21.7214,3.3250
21.6735,3.3155
21.6330,3.2884
21.6059,3.2478
21.5964,3.2000
Z" /> 
<path style="fill:#C83434; fill-opacity:1.0000; stroke:none;fill-rule:evenodd;"
d="M 22.3964,2.3500
22.4059,2.3022
22.4330,2.2616
22.4735,2.2345
22.5214,2.2250
22.7714,2.2250
22.8192,2.2345
22.8598,2.2616
22.8868,2.3022
22.8964,2.3500
22.8964,3.2000
22.8868,3.2478
22.8598,3.2884
22.8192,3.3155
22.7714,3.3250
22.5214,3.3250
22.4735,3.3155
22.4330,3.2884
22.4059,3.2478
22.3964,3.2000
Z" /> 
<path style="fill:#C83434; fill-opacity:1.0000; stroke:none;fill-rule:evenodd;"
d="M 23.1964,2.3500
23.2059,2.3022
23.2330,2.2616
23.2735,2.2345
23.3214,2.2250
23.5714,2.2250
23.6192,2.2345
23.6598,2.2616
23.6868,2.3022
23.6964,2.3500
23.6964,3.2000
23.6868,3.2478
23.6598,3.2884
23.6192,3.3155
23.5714,3.3250
23.3214,3.3250
23.2735,3.3155
23.2330,3.2884
23.2059,3.2478
23.1964,3.2000
Z" /> 
<path style="fill:#C83434; fill-opacity:1.0000; stroke:none;fill-rule:evenodd;"
d="M 23.9964,2.3500
24.0059,2.3022
24.0330,2.2616
24.0735,2.2345
24.1214,2.2250
24.3714,2.2250
24.4192,2.2345
24.4598,2.2616
24.4868,2.3022
24.4964,2.3500
24.4964,3.2000
24.4868,3.2478
24.4598,3.2884
24.4192,3.3155
24.3714,3.3250
24.1214,3.3250
24.0735,3.3155
24.0330,3.2884
24.0059,3.2478
23.9964,3.2000
Z" /> 
<path style="fill:#C83434; fill-opacity:1.0000; stroke:none;fill-rule:evenodd;"
d="M 24.7964,2.3500
24.8059,2.3022
24.8330,2.2616
24.8735,2.2345
24.9214,2.2250
25.1714,2.2250
25.2192,2.2345
25.2598,2.2616
25.2868,2.3022
25.2964,2.3500
25.2964,3.2000
25.2868,3.2478
25.2598,3.2884
25.2192,3.3155
25.1714,3.3250
24.9214,3.3250
24.8735,3.3155
24.8330,3.2884
24.8059,3.2478
24.7964,3.2000
Z" /> 
<path style="fill:#C83434; fill-opacity:1.0000; stroke:none;fill-rule:evenodd;"
d="M 25.5964,2.3500
25.6059,2.3022
25.6330,2.2616
25.6735,2.2345
25.7214,2.2250
25.9714,2.2250
26.0192,2.2345
26.0598,2.2616
26.0868,2.3022
26.0964,2.3500
26.0964,3.2000
26.0868,3.2478
26.0598,3.2884
26.0192,3.3155
25.9714,3.3250
25.7214,3.3250
25.6735,3.3155
25.6330,3.2884
25.6059,3.2478
25.5964,3.2000
Z" /> 
<path style="fill:#C83434; fill-opacity:1.0000; stroke:none;fill-rule:evenodd;"
d="M 26.3964,2.3500
26.4059,2.3022
26.4330,2.2616
26.4735,2.2345
26.5214,2.2250
26.7714,2.2250
26.8192,2.2345
26.8598,2.2616
26.8868,2.3022
26.8964,2.3500
26.8964,3.2000
26.8868,3.2478
26.8598,3.2884
26.8192,3.3155
26.7714,3.3250
26.5214,3.3250
26.4735,3.3155
26.4330,3.2884
26.4059,3.2478
26.3964,3.2000
Z" /> 
<path style="fill:#C83434; fill-opacity:1.0000; stroke:none;fill-rule:evenodd;"
d="M 27.1964,2.3500
27.2059,2.3022
27.2330,2.2616
27.2735,2.2345
27.3214,2.2250
27.5714,2.2250
27.6192,2.2345
27.6598,2.2616
27.6868,2.3022
27.6964,2.3500
27.6964,3.2000
27.6868,3.2478
27.6598,3.2884
27.6192,3.3155
27.5714,3.3250
27.3214,3.3250
27.2735,3.3155
27.2330,3.2884
27.2059,3.2478
27.1964,3.2000
Z" /> 
<path style="fill:#C83434; fill-opacity:1.0000; stroke:none;fill-rule:evenodd;"
d="M 27.9964,2.3500
28.0059,2.3022
28.0330,2.2616
28.0735,2.2345
28.1214,2.2250
28.3714,2.2250
28.4192,2.2345
28.4598,2.2616
28.4868,2.3022
28.4964,2.3500
28.4964,3.2000
28.4868,3.2478
28.4598,3.2884
28.4192,3.3155
28.3714,3.3250
28.1214,3.3250
28.0735,3.3155
28.0330,3.2884
28.0059,3.2478
27.9964,3.2000
Z" /> 
<path style="fill:#C83434; fill-opacity:1.0000; stroke:none;fill-rule:evenodd;"
d="M 28.7964,2.3500
28.8059,2.3022
28.8330,2.2616
28.8735,2.2345
28.9214,2.2250
29.1714,2.2250
29.2192,2.2345
29.2598,2.2616
29.2868,2.3022
29.2964,2.3500
29.2964,3.2000
29.2868,3.2478
29.2598,3.2884
29.2192,3.3155
29.1714,3.3250
28.9214,3.3250
28.8735,3.3155
28.8330,3.2884
28.8059,3.2478
28.7964,3.2000
Z" /> 
<path style="fill:#C83434; fill-opacity:1.0000; stroke:none;fill-rule:evenodd;"
d="M 29.5964,2.3500
29.6059,2.3022
29.6330,2.2616
29.6735,2.2345
29.7214,2.2250
29.9714,2.2250
30.0192,2.2345
30.0598,2.2616
30.0868,2.3022
30.0964,2.3500
30.0964,3.2000
30.0868,3.2478
30.0598,3.2884
30.0192,3.3155
29.9714,3.3250
29.7214,3.3250
29.6735,3.3155
29.6330,3.2884
29.6059,3.2478
29.5964,3.2000
Z" /> 
<path style="fill:#C83434; fill-opacity:1.0000; stroke:none;fill-rule:evenodd;"
d="M 30.3964,2.3500
30.4059,2.3022
30.4330,2.2616
30.4735,2.2345
30.5214,2.2250
30.7714,2.2250
30.8192,2.2345
30.8598,2.2616
30.8868,2.3022
30.8964,2.3500
30.8964,3.2000
30.8868,3.2478
30.8598,3.2884
30.8192,3.3155
30.7714,3.3250
30.5214,3.3250
30.4735,3.3155
30.4330,3.2884
30.4059,3.2478
30.3964,3.2000
Z" /> 
<path style="fill:#C83434; fill-opacity:1.0000; stroke:none;fill-rule:evenodd;"
d="M 31.1964,2.3500
31.2059,2.3022
31.2330,2.2616
31.2735,2.2345
31.3214,2.2250
31.5714,2.2250
31.6192,2.2345
31.6598,2.2616
31.6868,2.3022
31.6964,2.3500
31.6964,3.2000
31.6868,3.2478
31.6598,3.2884
31.6192,3.3155
31.5714,3.3250
31.3214,3.3250
31.2735,3.3155
31.2330,3.2884
31.2059,3.2478
31.1964,3.2000
Z" /> 
<path style="fill:#C83434; fill-opacity:1.0000; stroke:none;fill-rule:evenodd;"
d="M 31.9964,2.3500
32.0059,2.3022
32.0330,2.2616
32.0735,2.2345
32.1214,2.2250
32.3714,2.2250
32.4192,2.2345
32.4598,2.2616
32.4868,2.3022
32.4964,2.3500
32.4964,3.2000
32.4868,3.2478
32.4598,3.2884
32.4192,3.3155
32.3714,3.3250
32.1214,3.3250
32.0735,3.3155
32.0330,3.2884
32.0059,3.2478
31.9964,3.2000
Z" /> 
<path style="fill:#C83434; fill-opacity:1.0000; stroke:none;fill-rule:evenodd;"
d="M 32.7964,2.3500
32.8059,2.3022
32.8330,2.2616
32.8735,2.2345
32.9214,2.2250
33.1714,2.2250
33.2192,2.2345
33.2598,2.2616
33.2868,2.3022
33.2964,2.3500
33.2964,3.2000
33.2868,3.2478
33.2598,3.2884
33.2192,3.3155
33.1714,3.3250
32.9214,3.3250
32.8735,3.3155
32.8330,3.2884
32.8059,3.2478
32.7964,3.2000
Z" /> 
<path style="fill:#C83434; fill-opacity:1.0000; stroke:none;fill-rule:evenodd;"
d="M 19.9464,0.7750
19.9654,0.6793
20.0196,0.5982
20.1007,0.5440
20.1964,0.5250
20.8964,0.5250
20.9920,0.5440
21.0731,0.5982
21.1273,0.6793
21.1464,0.7750
21.1464,1.9750
21.1273,2.0707
21.0731,2.1518
20.9920,2.2060
20.8964,2.2250
20.1964,2.2250
20.1007,2.2060
20.0196,2.1518
19.9654,2.0707
19.9464,1.9750
Z" /> 
<path style="fill:#C83434; fill-opacity:1.0000; stroke:none;fill-rule:evenodd;"
d="M 33.7464,0.7750
33.7654,0.6793
33.8196,0.5982
33.9007,0.5440
33.9964,0.5250
34.6964,0.5250
34.7920,0.5440
34.8731,0.5982
34.9273,0.6793
34.9464,0.7750
34.9464,1.9750
34.9273,2.0707
34.8731,2.1518
34.7920,2.2060
34.6964,2.2250
33.9964,2.2250
33.9007,2.2060
33.8196,2.1518
33.7654,2.0707
33.7464,1.9750
Z" /> 
<path style="fill:#D864FF; fill-opacity:0.4000; stroke:none;fill-rule:evenodd;"
d="M 21.5964,2.3500
21.6059,2.3022
21.6330,2.2616
21.6735,2.2345
21.7214,2.2250
21.9714,2.2250
22.0192,2.2345
22.0598,2.2616
22.0868,2.3022
22.0964,2.3500
22.0964,3.2000
22.0868,3.2478
22.0598,3.2884
22.0192,3.3155
21.9714,3.3250
21.7214,3.3250
21.6735,3.3155
21.6330,3.2884
21.6059,3.2478
21.5964,3.2000
Z" /> 
<path style="fill:#D864FF; fill-opacity:0.4000; stroke:none;fill-rule:evenodd;"
d="M 22.3964,2.3500
22.4059,2.3022
22.4330,2.2616
22.4735,2.2345
22.5214,2.2250
22.7714,2.2250
22.8192,2.2345
22.8598,2.2616
22.8868,2.3022
22.8964,2.3500
22.8964,3.2000
22.8868,3.2478
22.8598,3.2884
22.8192,3.3155
22.7714,3.3250
22.5214,3.3250
22.4735,3.3155
22.4330,3.2884
22.4059,3.2478
22.3964,3.2000
Z" /> 
<path style="fill:#D864FF; fill-opacity:0.4000; stroke:none;fill-rule:evenodd;"
d="M 23.1964,2.3500
23.2059,2.3022
23.2330,2.2616
23.2735,2.2345
23.3214,2.2250
23.5714,2.2250
23.6192,2.2345
23.6598,2.2616
23.6868,2.3022
23.6964,2.3500
23.6964,3.2000
23.6868,3.2478
23.6598,3.2884
23.6192,3.3155
23.5714,3.3250
23.3214,3.3250
23.2735,3.3155
23.2330,3.2884
23.2059,3.2478
23.1964,3.2000
Z" /> 
<path style="fill:#D864FF; fill-opacity:0.4000; stroke:none;fill-rule:evenodd;"
d="M 23.9964,2.3500
24.0059,2.3022
24.0330,2.2616
24.0735,2.2345
24.1214,2.2250
24.3714,2.2250
24.4192,2.2345
24.4598,2.2616
24.4868,2.3022
24.4964,2.3500
24.4964,3.2000
24.4868,3.2478
24.4598,3.2884
24.4192,3.3155
24.3714,3.3250
24.1214,3.3250
24.0735,3.3155
24.0330,3.2884
24.0059,3.2478
23.9964,3.2000
Z" /> 
<path style="fill:#D864FF; fill-opacity:0.4000; stroke:none;fill-rule:evenodd;"
d="M 24.7964,2.3500
24.8059,2.3022
24.8330,2.2616
24.8735,2.2345
24.9214,2.2250
25.1714,2.2250
25.2192,2.2345
25.2598,2.2616
25.2868,2.3022
25.2964,2.3500
25.2964,3.2000
25.2868,3.2478
25.2598,3.2884
25.2192,3.3155
25.1714,3.3250
24.9214,3.3250
24.8735,3.3155
24.8330,3.2884
24.8059,3.2478
24.7964,3.2000
Z" /> 
<path style="fill:#D864FF; fill-opacity:0.4000; stroke:none;fill-rule:evenodd;"
d="M 25.5964,2.3500
25.6059,2.3022
25.6330,2.2616
25.6735,2.2345
25.7214,2.2250
25.9714,2.2250
26.0192,2.2345
26.0598,2.2616
26.0868,2.3022
26.0964,2.3500
26.0964,3.2000
26.0868,3.2478
26.0598,3.2884
26.0192,3.3155
25.9714,3.3250
25.7214,3.3250
25.6735,3.3155
25.6330,3.2884
25.6059,3.2478
25.5964,3.2000
Z" /> 
<path style="fill:#D864FF; fill-opacity:0.4000; stroke:none;fill-rule:evenodd;"
d="M 26.3964,2.3500
26.4059,2.3022
26.4330,2.2616
26.4735,2.2345
26.5214,2.2250
26.7714,2.2250
26.8192,2.2345
26.8598,2.2616
26.8868,2.3022
26.8964,2.3500
26.8964,3.2000
26.8868,3.2478
26.8598,3.2884
26.8192,3.3155
26.7714,3.3250
26.5214,3.3250
26.4735,3.3155
26.4330,3.2884
26.4059,3.2478
26.3964,3.2000
Z" /> 
<path style="fill:#D864FF; fill-opacity:0.4000; stroke:none;fill-rule:evenodd;"
d="M 27.1964,2.3500
27.2059,2.3022
27.2330,2.2616
27.2735,2.2345
27.3214,2.2250
27.5714,2.2250
27.6192,2.2345
27.6598,2.2616
27.6868,2.3022
27.6964,2.3500
27.6964,3.2000
27.6868,3.2478
27.6598,3.2884
27.6192,3.3155
27.5714,3.3250
27.3214,3.3250
27.2735,3.3155
27.2330,3.2884
27.2059,3.2478
27.1964,3.2000
Z" /> 
<path style="fill:#D864FF; fill-opacity:0.4000; stroke:none;fill-rule:evenodd;"
d="M 27.9964,2.3500
28.0059,2.3022
28.0330,2.2616
28.0735,2.2345
28.1214,2.2250
28.3714,2.2250
28.4192,2.2345
28.4598,2.2616
28.4868,2.3022
28.4964,2.3500
28.4964,3.2000
28.4868,3.2478
28.4598,3.2884
28.4192,3.3155
28.3714,3.3250
28.1214,3.3250
28.0735,3.3155
28.0330,3.2884
28.0059,3.2478
27.9964,3.2000
Z" /> 
<path style="fill:#D864FF; fill-opacity:0.4000; stroke:none;fill-rule:evenodd;"
d="M 28.7964,2.3500
28.8059,2.3022
28.8330,2.2616
28.8735,2.2345
28.9214,2.2250
29.1714,2.2250
29.2192,2.2345
29.2598,2.2616
29.2868,2.3022
29.2964,2.3500
29.2964,3.2000
29.2868,3.2478
29.2598,3.2884
29.2192,3.3155
29.1714,3.3250
28.9214,3.3250
28.8735,3.3155
28.8330,3.2884
28.8059,3.2478
28.7964,3.2000
Z" /> 
<path style="fill:#D864FF; fill-opacity:0.4000; stroke:none;fill-rule:evenodd;"
d="M 29.5964,2.3500
29.6059,2.3022
29.6330,2.2616
29.6735,2.2345
29.7214,2.2250
29.9714,2.2250
30.0192,2.2345
30.0598,2.2616
30.0868,2.3022
30.0964,2.3500
30.0964,3.2000
30.0868,3.2478
30.0598,3.2884
30.0192,3.3155
29.9714,3.3250
29.7214,3.3250
29.6735,3.3155
29.6330,3.2884
29.6059,3.2478
29.5964,3.2000
Z" /> 
<path style="fill:#D864FF; fill-opacity:0.4000; stroke:none;fill-rule:evenodd;"
d="M 30.3964,2.3500
30.4059,2.3022
30.4330,2.2616
30.4735,2.2345
30.5214,2.2250
30.7714,2.2250
30.8192,2.2345
30.8598,2.2616
30.8868,2.3022
30.8964,2.3500
30.8964,3.2000
30.8868,3.2478
30.8598,3.2884
30.8192,3.3155
30.7714,3.3250
30.5214,3.3250
30.4735,3.3155
30.4330,3.2884
30.4059,3.2478
30.3964,3.2000
Z" /> 
<path style="fill:#D864FF; fill-opacity:0.4000; stroke:none;fill-rule:evenodd;"
d="M 31.1964,2.3500
31.2059,2.3022
31.2330,2.2616
31.2735,2.2345
31.3214,2.2250
31.5714,2.2250
31.6192,2.2345
31.6598,2.2616
31.6868,2.3022
31.6964,2.3500
31.6964,3.2000
31.6868,3.2478
31.6598,3.2884
31.6192,3.3155
31.5714,3.3250
31.3214,3.3250
31.2735,3.3155
31.2330,3.2884
31.2059,3.2478
31.1964,3.2000
Z" /> 
<path style="fill:#D864FF; fill-opacity:0.4000; stroke:none;fill-rule:evenodd;"
d="M 31.9964,2.3500
32.0059,2.3022
32.0330,2.2616
32.0735,2.2345
32.1214,2.2250
32.3714,2.2250
32.4192,2.2345
32.4598,2.2616
32.4868,2.3022
32.4964,2.3500
32.4964,3.2000
32.4868,3.2478
32.4598,3.2884
32.4192,3.3155
32.3714,3.3250
32.1214,3.3250
32.0735,3.3155
32.0330,3.2884
32.0059,3.2478
31.9964,3.2000
Z" /> 
<path style="fill:#D864FF; fill-opacity:0.4000; stroke:none;fill-rule:evenodd;"
d="M 32.7964,2.3500
32.8059,2.3022
32.8330,2.2616
32.8735,2.2345
32.9214,2.2250
33.1714,2.2250
33.2192,2.2345
33.2598,2.2616
33.2868,2.3022
33.2964,2.3500
33.2964,3.2000
33.2868,3.2478
33.2598,3.2884
33.2192,3.3155
33.1714,3.3250
32.9214,3.3250
32.8735,3.3155
32.8330,3.2884
32.8059,3.2478
32.7964,3.2000
Z" /> 
<path style="fill:#D864FF; fill-opacity:0.4000; stroke:none;fill-rule:evenodd;"
d="M 19.9464,0.7750
19.9654,0.6793
20.0196,0.5982
20.1007,0.5440
20.1964,0.5250
20.8964,0.5250
20.9920,0.5440
21.0731,0.5982
21.1273,0.6793
21.1464,0.7750
21.1464,1.9750
21.1273,2.0707
21.0731,2.1518
20.9920,2.2060
20.8964,2.2250
20.1964,2.2250
20.1007,2.2060
20.0196,2.1518
19.9654,2.0707
19.9464,1.9750
Z" /> 
<path style="fill:#D864FF; fill-opacity:0.4000; stroke:none;fill-rule:evenodd;"
d="M 33.7464,0.7750
33.7654,0.6793
33.8196,0.5982
33.9007,0.5440
33.9964,0.5250
34.6964,0.5250
34.7920,0.5440
34.8731,0.5982
34.9273,0.6793
34.9464,0.7750
34.9464,1.9750
34.9273,2.0707
34.8731,2.1518
34.7920,2.2060
34.6964,2.2250
33.9964,2.2250
33.9007,2.2060
33.8196,2.1518
33.7654,2.0707
33.7464,1.9750
Z" /> 
<path style="fill:#B4A09A; fill-opacity:0.9000; stroke:none;fill-rule:evenodd;"
d="M 21.5964,2.3500
21.6059,2.3022
21.6330,2.2616
21.6735,2.2345
21.7214,2.2250
21.9714,2.2250
22.0192,2.2345
22.0598,2.2616
22.0868,2.3022
22.0964,2.3500
22.0964,3.2000
22.0868,3.2478
22.0598,3.2884
22.0192,3.3155
21.9714,3.3250
21.7214,3.3250
21.6735,3.3155
21.6330,3.2884
21.6059,3.2478
21.5964,3.2000
Z" /> 
<path style="fill:#B4A09A; fill-opacity:0.9000; stroke:none;fill-rule:evenodd;"
d="M 22.3964,2.3500
22.4059,2.3022
22.4330,2.2616
22.4735,2.2345
22.5214,2.2250
22.7714,2.2250
22.8192,2.2345
22.8598,2.2616
22.8868,2.3022
22.8964,2.3500
22.8964,3.2000
22.8868,3.2478
22.8598,3.2884
22.8192,3.3155
22.7714,3.3250
22.5214,3.3250
22.4735,3.3155
22.4330,3.2884
22.4059,3.2478
22.3964,3.2000
Z" /> 
<path style="fill:#B4A09A; fill-opacity:0.9000; stroke:none;fill-rule:evenodd;"
d="M 23.1964,2.3500
23.2059,2.3022
23.2330,2.2616
23.2735,2.2345
23.3214,2.2250
23.5714,2.2250
23.6192,2.2345
23.6598,2.2616
23.6868,2.3022
23.6964,2.3500
23.6964,3.2000
23.6868,3.2478
23.6598,3.2884
23.6192,3.3155
23.5714,3.3250
23.3214,3.3250
23.2735,3.3155
23.2330,3.2884
23.2059,3.2478
23.1964,3.2000
Z" /> 
<path style="fill:#B4A09A; fill-opacity:0.9000; stroke:none;fill-rule:evenodd;"
d="M 23.9964,2.3500
24.0059,2.3022
24.0330,2.2616
24.0735,2.2345
24.1214,2.2250
24.3714,2.2250
24.4192,2.2345
24.4598,2.2616
24.4868,2.3022
24.4964,2.3500
24.4964,3.2000
24.4868,3.2478
24.4598,3.2884
24.4192,3.3155
24.3714,3.3250
24.1214,3.3250
24.0735,3.3155
24.0330,3.2884
24.0059,3.2478
23.9964,3.2000
Z" /> 
<path style="fill:#B4A09A; fill-opacity:0.9000; stroke:none;fill-rule:evenodd;"
d="M 24.7964,2.3500
24.8059,2.3022
24.8330,2.2616
24.8735,2.2345
24.9214,2.2250
25.1714,2.2250
25.2192,2.2345
25.2598,2.2616
25.2868,2.3022
25.2964,2.3500
25.2964,3.2000
25.2868,3.2478
25.2598,3.2884
25.2192,3.3155
25.1714,3.3250
24.9214,3.3250
24.8735,3.3155
24.8330,3.2884
24.8059,3.2478
24.7964,3.2000
Z" /> 
<path style="fill:#B4A09A; fill-opacity:0.9000; stroke:none;fill-rule:evenodd;"
d="M 25.5964,2.3500
25.6059,2.3022
25.6330,2.2616
25.6735,2.2345
25.7214,2.2250
25.9714,2.2250
26.0192,2.2345
26.0598,2.2616
26.0868,2.3022
26.0964,2.3500
26.0964,3.2000
26.0868,3.2478
26.0598,3.2884
26.0192,3.3155
25.9714,3.3250
25.7214,3.3250
25.6735,3.3155
25.6330,3.2884
25.6059,3.2478
25.5964,3.2000
Z" /> 
<path style="fill:#B4A09A; fill-opacity:0.9000; stroke:none;fill-rule:evenodd;"
d="M 26.3964,2.3500
26.4059,2.3022
26.4330,2.2616
26.4735,2.2345
26.5214,2.2250
26.7714,2.2250
26.8192,2.2345
26.8598,2.2616
26.8868,2.3022
26.8964,2.3500
26.8964,3.2000
26.8868,3.2478
26.8598,3.2884
26.8192,3.3155
26.7714,3.3250
26.5214,3.3250
26.4735,3.3155
26.4330,3.2884
26.4059,3.2478
26.3964,3.2000
Z" /> 
<path style="fill:#B4A09A; fill-opacity:0.9000; stroke:none;fill-rule:evenodd;"
d="M 27.1964,2.3500
27.2059,2.3022
27.2330,2.2616
27.2735,2.2345
27.3214,2.2250
27.5714,2.2250
27.6192,2.2345
27.6598,2.2616
27.6868,2.3022
27.6964,2.3500
27.6964,3.2000
27.6868,3.2478
27.6598,3.2884
27.6192,3.3155
27.5714,3.3250
27.3214,3.3250
27.2735,3.3155
27.2330,3.2884
27.2059,3.2478
27.1964,3.2000
Z" /> 
<path style="fill:#B4A09A; fill-opacity:0.9000; stroke:none;fill-rule:evenodd;"
d="M 27.9964,2.3500
28.0059,2.3022
28.0330,2.2616
28.0735,2.2345
28.1214,2.2250
28.3714,2.2250
28.4192,2.2345
28.4598,2.2616
28.4868,2.3022
28.4964,2.3500
28.4964,3.2000
28.4868,3.2478
28.4598,3.2884
28.4192,3.3155
28.3714,3.3250
28.1214,3.3250
28.0735,3.3155
28.0330,3.2884
28.0059,3.2478
27.9964,3.2000
Z" /> 
<path style="fill:#B4A09A; fill-opacity:0.9000; stroke:none;fill-rule:evenodd;"
d="M 28.7964,2.3500
28.8059,2.3022
28.8330,2.2616
28.8735,2.2345
28.9214,2.2250
29.1714,2.2250
29.2192,2.2345
29.2598,2.2616
29.2868,2.3022
29.2964,2.3500
29.2964,3.2000
29.2868,3.2478
29.2598,3.2884
29.2192,3.3155
29.1714,3.3250
28.9214,3.3250
28.8735,3.3155
28.8330,3.2884
28.8059,3.2478
28.7964,3.2000
Z" /> 
<path style="fill:#B4A09A; fill-opacity:0.9000; stroke:none;fill-rule:evenodd;"
d="M 29.5964,2.3500
29.6059,2.3022
29.6330,2.2616
29.6735,2.2345
29.7214,2.2250
29.9714,2.2250
30.0192,2.2345
30.0598,2.2616
30.0868,2.3022
30.0964,2.3500
30.0964,3.2000
30.0868,3.2478
30.0598,3.2884
30.0192,3.3155
29.9714,3.3250
29.7214,3.3250
29.6735,3.3155
29.6330,3.2884
29.6059,3.2478
29.5964,3.2000
Z" /> 
<path style="fill:#B4A09A; fill-opacity:0.9000; stroke:none;fill-rule:evenodd;"
d="M 30.3964,2.3500
30.4059,2.3022
30.4330,2.2616
30.4735,2.2345
30.5214,2.2250
30.7714,2.2250
30.8192,2.2345
30.8598,2.2616
30.8868,2.3022
30.8964,2.3500
30.8964,3.2000
30.8868,3.2478
30.8598,3.2884
30.8192,3.3155
30.7714,3.3250
30.5214,3.3250
30.4735,3.3155
30.4330,3.2884
30.4059,3.2478
30.3964,3.2000
Z" /> 
<path style="fill:#B4A09A; fill-opacity:0.9000; stroke:none;fill-rule:evenodd;"
d="M 31.1964,2.3500
31.2059,2.3022
31.2330,2.2616
31.2735,2.2345
31.3214,2.2250
31.5714,2.2250
31.6192,2.2345
31.6598,2.2616
31.6868,2.3022
31.6964,2.3500
31.6964,3.2000
31.6868,3.2478
31.6598,3.2884
31.6192,3.3155
31.5714,3.3250
31.3214,3.3250
31.2735,3.3155
31.2330,3.2884
31.2059,3.2478
31.1964,3.2000
Z" /> 
<path style="fill:#B4A09A; fill-opacity:0.9000; stroke:none;fill-rule:evenodd;"
d="M 31.9964,2.3500
32.0059,2.3022
32.0330,2.2616
32.0735,2.2345
32.1214,2.2250
32.3714,2.2250
32.4192,2.2345
32.4598,2.2616
32.4868,2.3022
32.4964,2.3500
32.4964,3.2000
32.4868,3.2478
32.4598,3.2884
32.4192,3.3155
32.3714,3.3250
32.1214,3.3250
32.0735,3.3155
32.0330,3.2884
32.0059,3.2478
31.9964,3.2000
Z" /> 
<path style="fill:#B4A09A; fill-opacity:0.9000; stroke:none;fill-rule:evenodd;"
d="M 32.7964,2.3500
32.8059,2.3022
32.8330,2.2616
32.8735,2.2345
32.9214,2.2250
33.1714,2.2250
33.2192,2.2345
33.2598,2.2616
33.2868,2.3022
33.2964,2.3500
33.2964,3.2000
33.2868,3.2478
33.2598,3.2884
33.2192,3.3155
33.1714,3.3250
32.9214,3.3250
32.8735,3.3155
32.8330,3.2884
32.8059,3.2478
32.7964,3.2000
Z" /> 
<path style="fill:#B4A09A; fill-opacity:0.9000; stroke:none;fill-rule:evenodd;"
d="M 19.9464,0.7750
19.9654,0.6793
20.0196,0.5982
20.1007,0.5440
20.1964,0.5250
20.8964,0.5250
20.9920,0.5440
21.0731,0.5982
21.1273,0.6793
21.1464,0.7750
21.1464,1.9750
21.1273,2.0707
21.0731,2.1518
20.9920,2.2060
20.8964,2.2250
20.1964,2.2250
20.1007,2.2060
20.0196,2.1518
19.9654,2.0707
19.9464,1.9750
Z" /> 
<path style="fill:#B4A09A; fill-opacity:0.9000; stroke:none;fill-rule:evenodd;"
d="M 33.7464,0.7750
33.7654,0.6793
33.8196,0.5982
33.9007,0.5440
33.9964,0.5250
34.6964,0.5250
34.7920,0.5440
34.8731,0.5982
34.9273,0.6793
34.9464,0.7750
34.9464,1.9750
34.9273,2.0707
34.8731,2.1518
34.7920,2.2060
34.6964,2.2250
33.9964,2.2250
33.9007,2.2060
33.8196,2.1518
33.7654,2.0707
33.7464,1.9750
Z" /> 
</g>
<g style="fill:none; 
stroke:#F2EDA1; stroke-width:0.1588; stroke-opacity:1; 
stroke-linecap:round; stroke-linejoin:round;">
<text x="27.4464" y="2.5600"
textLength="5.6651" font-size="1.6933" lengthAdjust="spacingAndGlyphs"
text-anchor="middle" opacity="0">REF**</text>
<g class="stroked-text"><desc>REF**</desc>
<path d="M25.7530 2.5043
L25.3297 1.8995
" />
<path d="M25.0273 2.5043
L25.0273 1.2343
" />
<path d="M25.0273 1.2343
L25.5111 1.2343
" />
<path d="M25.5111 1.2343
L25.6321 1.2947
" />
<path d="M25.6321 1.2947
L25.6926 1.3552
" />
<path d="M25.6926 1.3552
L25.7530 1.4762
" />
<path d="M25.7530 1.4762
L25.7530 1.6576
" />
<path d="M25.7530 1.6576
L25.6926 1.7786
" />
<path d="M25.6926 1.7786
L25.6321 1.8390
" />
<path d="M25.6321 1.8390
L25.5111 1.8995
" />
<path d="M25.5111 1.8995
L25.0273 1.8995
" />
<path d="M26.2973 1.8390
L26.7206 1.8390
" />
<path d="M26.9021 2.5043
L26.2973 2.5043
" />
<path d="M26.2973 2.5043
L26.2973 1.2343
" />
<path d="M26.2973 1.2343
L26.9021 1.2343
" />
<path d="M27.8697 1.8390
L27.4464 1.8390
" />
<path d="M27.4464 2.5043
L27.4464 1.2343
" />
<path d="M27.4464 1.2343
L28.0511 1.2343
" />
<path d="M28.7164 1.2343
L28.7164 1.5367
" />
<path d="M28.4140 1.4157
L28.7164 1.5367
" />
<path d="M28.7164 1.5367
L29.0187 1.4157
" />
<path d="M28.5349 1.7786
L28.7164 1.5367
" />
<path d="M28.7164 1.5367
L28.8978 1.7786
" />
<path d="M29.6840 1.2343
L29.6840 1.5367
" />
<path d="M29.3816 1.4157
L29.6840 1.5367
" />
<path d="M29.6840 1.5367
L29.9864 1.4157
" />
<path d="M29.5026 1.7786
L29.6840 1.5367
" />
<path d="M29.6840 1.5367
L29.8654 1.7786
" />
</g></g>
<g style="fill:none; 
stroke:#F2EDA1; stroke-width:0.1200; stroke-opacity:1; 
stroke-linecap:round; stroke-linejoin:round;">
<path d="M20.2364 2.4850
L20.2364 2.9350
" />
<path d="M20.2364 2.9350
L21.3364 2.9350
" />
<path d="M21.3364 2.9350
L21.3364 3.3250
" />
<path d="M21.4064 0.7150
L33.4864 0.7150
" />
<path d="M34.6564 2.4850
L34.6564 2.9350
" />
<path d="M34.6564 2.9350
L33.5564 2.9350
" />
</g>
<g style="fill:none; 
stroke:#FF26E2; stroke-width:0.0500; stroke-opacity:1; 
stroke-linecap:round; stroke-linejoin:round;">
<path d="M19.4464 0.0250
L19.4464 3.8250
" />
<path d="M19.4464 3.8250
L35.4464 3.8250
" />
<path d="M35.4464 0.0250
L19.4464 0.0250
" />
<path d="M35.4464 3.8250
L35.4464 0.0250
" />
</g>
<g style="fill:none; 
stroke:#AFAFAF; stroke-width:0.1588; stroke-opacity:1; 
stroke-linecap:round; stroke-linejoin:round;">
<text x="27.4464" y="2.5600"
textLength="54.8927" font-size="1.6933" lengthAdjust="spacingAndGlyphs"
text-anchor="middle" opacity="0">JST_SUR_BM15B-SURS-TF_1x15-1MP_P0.80mm_Vertical</text>
<g class="stroked-text"><desc>JST_SUR_BM15B-SURS-TF_1x15-1MP_P0.80mm_Vertical</desc>
<path d="M0.7764 1.2343
L0.7764 2.1414
" />
<path d="M0.7764 2.1414
L0.7159 2.3228
" />
<path d="M0.7159 2.3228
L0.5949 2.4438
" />
<path d="M0.5949 2.4438
L0.4135 2.5043
" />
<path d="M0.4135 2.5043
L0.2926 2.5043
" />
<path d="M1.3206 2.4438
L1.5021 2.5043
" />
<path d="M1.5021 2.5043
L1.8045 2.5043
" />
<path d="M1.8045 2.5043
L1.9254 2.4438
" />
<path d="M1.9254 2.4438
L1.9859 2.3833
" />
<path d="M1.9859 2.3833
L2.0464 2.2624
" />
<path d="M2.0464 2.2624
L2.0464 2.1414
" />
<path d="M2.0464 2.1414
L1.9859 2.0205
" />
<path d="M1.9859 2.0205
L1.9254 1.9600
" />
<path d="M1.9254 1.9600
L1.8045 1.8995
" />
<path d="M1.8045 1.8995
L1.5626 1.8390
" />
<path d="M1.5626 1.8390
L1.4416 1.7786
" />
<path d="M1.4416 1.7786
L1.3811 1.7181
" />
<path d="M1.3811 1.7181
L1.3206 1.5971
" />
<path d="M1.3206 1.5971
L1.3206 1.4762
" />
<path d="M1.3206 1.4762
L1.3811 1.3552
" />
<path d="M1.3811 1.3552
L1.4416 1.2947
" />
<path d="M1.4416 1.2947
L1.5626 1.2343
" />
<path d="M1.5626 1.2343
L1.8649 1.2343
" />
<path d="M1.8649 1.2343
L2.0464 1.2947
" />
<path d="M2.4092 1.2343
L3.1349 1.2343
" />
<path d="M2.7721 2.5043
L2.7721 1.2343
" />
<path d="M3.2559 2.6252
L4.2235 2.6252
" />
<path d="M4.4654 2.4438
L4.6468 2.5043
" />
<path d="M4.6468 2.5043
L4.9492 2.5043
" />
<path d="M4.9492 2.5043
L5.0702 2.4438
" />
<path d="M5.0702 2.4438
L5.1306 2.3833
" />
<path d="M5.1306 2.3833
L5.1911 2.2624
" />
<path d="M5.1911 2.2624
L5.1911 2.1414
" />
<path d="M5.1911 2.1414
L5.1306 2.0205
" />
<path d="M5.1306 2.0205
L5.0702 1.9600
" />
<path d="M5.0702 1.9600
L4.9492 1.8995
" />
<path d="M4.9492 1.8995
L4.7073 1.8390
" />
<path d="M4.7073 1.8390
L4.5864 1.7786
" />
<path d="M4.5864 1.7786
L4.5259 1.7181
" />
<path d="M4.5259 1.7181
L4.4654 1.5971
" />
<path d="M4.4654 1.5971
L4.4654 1.4762
" />
<path d="M4.4654 1.4762
L4.5259 1.3552
" />
<path d="M4.5259 1.3552
L4.5864 1.2947
" />
<path d="M4.5864 1.2947
L4.7073 1.2343
" />
<path d="M4.7073 1.2343
L5.0097 1.2343
" />
<path d="M5.0097 1.2343
L5.1911 1.2947
" />
<path d="M5.7354 1.2343
L5.7354 2.2624
" />
<path d="M5.7354 2.2624
L5.7959 2.3833
" />
<path d="M5.7959 2.3833
L5.8564 2.4438
" />
<path d="M5.8564 2.4438
L5.9773 2.5043
" />
<path d="M5.9773 2.5043
L6.2192 2.5043
" />
<path d="M6.2192 2.5043
L6.3402 2.4438
" />
<path d="M6.3402 2.4438
L6.4006 2.3833
" />
<path d="M6.4006 2.3833
L6.4611 2.2624
" />
<path d="M6.4611 2.2624
L6.4611 1.2343
" />
<path d="M7.7916 2.5043
L7.3683 1.8995
" />
<path d="M7.0659 2.5043
L7.0659 1.2343
" />
<path d="M7.0659 1.2343
L7.5497 1.2343
" />
<path d="M7.5497 1.2343
L7.6706 1.2947
" />
<path d="M7.6706 1.2947
L7.7311 1.3552
" />
<path d="M7.7311 1.3552
L7.7916 1.4762
" />
<path d="M7.7916 1.4762
L7.7916 1.6576
" />
<path d="M7.7916 1.6576
L7.7311 1.7786
" />
<path d="M7.7311 1.7786
L7.6706 1.8390
" />
<path d="M7.6706 1.8390
L7.5497 1.8995
" />
<path d="M7.5497 1.8995
L7.0659 1.8995
" />
<path d="M8.0335 2.6252
L9.0011 2.6252
" />
<path d="M9.7268 1.8390
L9.9083 1.8995
" />
<path d="M9.9083 1.8995
L9.9687 1.9600
" />
<path d="M9.9687 1.9600
L10.0292 2.0809
" />
<path d="M10.0292 2.0809
L10.0292 2.2624
" />
<path d="M10.0292 2.2624
L9.9687 2.3833
" />
<path d="M9.9687 2.3833
L9.9083 2.4438
" />
<path d="M9.9083 2.4438
L9.7873 2.5043
" />
<path d="M9.7873 2.5043
L9.3035 2.5043
" />
<path d="M9.3035 2.5043
L9.3035 1.2343
" />
<path d="M9.3035 1.2343
L9.7268 1.2343
" />
<path d="M9.7268 1.2343
L9.8478 1.2947
" />
<path d="M9.8478 1.2947
L9.9083 1.3552
" />
<path d="M9.9083 1.3552
L9.9687 1.4762
" />
<path d="M9.9687 1.4762
L9.9687 1.5971
" />
<path d="M9.9687 1.5971
L9.9083 1.7181
" />
<path d="M9.9083 1.7181
L9.8478 1.7786
" />
<path d="M9.8478 1.7786
L9.7268 1.8390
" />
<path d="M9.7268 1.8390
L9.3035 1.8390
" />
<path d="M10.5735 2.5043
L10.5735 1.2343
" />
<path d="M10.5735 1.2343
L10.9968 2.1414
" />
<path d="M10.9968 2.1414
L11.4202 1.2343
" />
<path d="M11.4202 1.2343
L11.4202 2.5043
" />
<path d="M12.6902 2.5043
L11.9645 2.5043
" />
<path d="M12.3273 2.5043
L12.3273 1.2343
" />
<path d="M12.3273 1.2343
L12.2064 1.4157
" />
<path d="M12.2064 1.4157
L12.0854 1.5367
" />
<path d="M12.0854 1.5367
L11.9645 1.5971
" />
<path d="M13.8392 1.2343
L13.2345 1.2343
" />
<path d="M13.2345 1.2343
L13.1740 1.8390
" />
<path d="M13.1740 1.8390
L13.2345 1.7786
" />
<path d="M13.2345 1.7786
L13.3554 1.7181
" />
<path d="M13.3554 1.7181
L13.6578 1.7181
" />
<path d="M13.6578 1.7181
L13.7787 1.7786
" />
<path d="M13.7787 1.7786
L13.8392 1.8390
" />
<path d="M13.8392 1.8390
L13.8997 1.9600
" />
<path d="M13.8997 1.9600
L13.8997 2.2624
" />
<path d="M13.8997 2.2624
L13.8392 2.3833
" />
<path d="M13.8392 2.3833
L13.7787 2.4438
" />
<path d="M13.7787 2.4438
L13.6578 2.5043
" />
<path d="M13.6578 2.5043
L13.3554 2.5043
" />
<path d="M13.3554 2.5043
L13.2345 2.4438
" />
<path d="M13.2345 2.4438
L13.1740 2.3833
" />
<path d="M14.8673 1.8390
L15.0487 1.8995
" />
<path d="M15.0487 1.8995
L15.1092 1.9600
" />
<path d="M15.1092 1.9600
L15.1697 2.0809
" />
<path d="M15.1697 2.0809
L15.1697 2.2624
" />
<path d="M15.1697 2.2624
L15.1092 2.3833
" />
<path d="M15.1092 2.3833
L15.0487 2.4438
" />
<path d="M15.0487 2.4438
L14.9278 2.5043
" />
<path d="M14.9278 2.5043
L14.4440 2.5043
" />
<path d="M14.4440 2.5043
L14.4440 1.2343
" />
<path d="M14.4440 1.2343
L14.8673 1.2343
" />
<path d="M14.8673 1.2343
L14.9883 1.2947
" />
<path d="M14.9883 1.2947
L15.0487 1.3552
" />
<path d="M15.0487 1.3552
L15.1092 1.4762
" />
<path d="M15.1092 1.4762
L15.1092 1.5971
" />
<path d="M15.1092 1.5971
L15.0487 1.7181
" />
<path d="M15.0487 1.7181
L14.9883 1.7786
" />
<path d="M14.9883 1.7786
L14.8673 1.8390
" />
<path d="M14.8673 1.8390
L14.4440 1.8390
" />
<path d="M15.7140 2.0205
L16.6816 2.0205
" />
<path d="M17.2259 2.4438
L17.4073 2.5043
" />
<path d="M17.4073 2.5043
L17.7097 2.5043
" />
<path d="M17.7097 2.5043
L17.8306 2.4438
" />
<path d="M17.8306 2.4438
L17.8911 2.3833
" />
<path d="M17.8911 2.3833
L17.9516 2.2624
" />
<path d="M17.9516 2.2624
L17.9516 2.1414
" />
<path d="M17.9516 2.1414
L17.8911 2.0205
" />
<path d="M17.8911 2.0205
L17.8306 1.9600
" />
<path d="M17.8306 1.9600
L17.7097 1.8995
" />
<path d="M17.7097 1.8995
L17.4678 1.8390
" />
<path d="M17.4678 1.8390
L17.3468 1.7786
" />
<path d="M17.3468 1.7786
L17.2864 1.7181
" />
<path d="M17.2864 1.7181
L17.2259 1.5971
" />
<path d="M17.2259 1.5971
L17.2259 1.4762
" />
<path d="M17.2259 1.4762
L17.2864 1.3552
" />
<path d="M17.2864 1.3552
L17.3468 1.2947
" />
<path d="M17.3468 1.2947
L17.4678 1.2343
" />
<path d="M17.4678 1.2343
L17.7702 1.2343
" />
<path d="M17.7702 1.2343
L17.9516 1.2947
" />
<path d="M18.4959 1.2343
L18.4959 2.2624
" />
<path d="M18.4959 2.2624
L18.5564 2.3833
" />
<path d="M18.5564 2.3833
L18.6168 2.4438
" />
<path d="M18.6168 2.4438
L18.7378 2.5043
" />
<path d="M18.7378 2.5043
L18.9797 2.5043
" />
<path d="M18.9797 2.5043
L19.1006 2.4438
" />
<path d="M19.1006 2.4438
L19.1611 2.3833
" />
<path d="M19.1611 2.3833
L19.2216 2.2624
" />
<path d="M19.2216 2.2624
L19.2216 1.2343
" />
<path d="M20.5521 2.5043
L20.1287 1.8995
" />
<path d="M19.8264 2.5043
L19.8264 1.2343
" />
<path d="M19.8264 1.2343
L20.3102 1.2343
" />
<path d="M20.3102 1.2343
L20.4311 1.2947
" />
<path d="M20.4311 1.2947
L20.4916 1.3552
" />
<path d="M20.4916 1.3552
L20.5521 1.4762
" />
<path d="M20.5521 1.4762
L20.5521 1.6576
" />
<path d="M20.5521 1.6576
L20.4916 1.7786
" />
<path d="M20.4916 1.7786
L20.4311 1.8390
" />
<path d="M20.4311 1.8390
L20.3102 1.8995
" />
<path d="M20.3102 1.8995
L19.8264 1.8995
" />
<path d="M21.0359 2.4438
L21.2173 2.5043
" />
<path d="M21.2173 2.5043
L21.5197 2.5043
" />
<path d="M21.5197 2.5043
L21.6406 2.4438
" />
<path d="M21.6406 2.4438
L21.7011 2.3833
" />
<path d="M21.7011 2.3833
L21.7616 2.2624
" />
<path d="M21.7616 2.2624
L21.7616 2.1414
" />
<path d="M21.7616 2.1414
L21.7011 2.0205
" />
<path d="M21.7011 2.0205
L21.6406 1.9600
" />
<path d="M21.6406 1.9600
L21.5197 1.8995
" />
<path d="M21.5197 1.8995
L21.2778 1.8390
" />
<path d="M21.2778 1.8390
L21.1568 1.7786
" />
<path d="M21.1568 1.7786
L21.0964 1.7181
" />
<path d="M21.0964 1.7181
L21.0359 1.5971
" />
<path d="M21.0359 1.5971
L21.0359 1.4762
" />
<path d="M21.0359 1.4762
L21.0964 1.3552
" />
<path d="M21.0964 1.3552
L21.1568 1.2947
" />
<path d="M21.1568 1.2947
L21.2778 1.2343
" />
<path d="M21.2778 1.2343
L21.5802 1.2343
" />
<path d="M21.5802 1.2343
L21.7616 1.2947
" />
<path d="M22.3059 2.0205
L23.2735 2.0205
" />
<path d="M23.6968 1.2343
L24.4226 1.2343
" />
<path d="M24.0597 2.5043
L24.0597 1.2343
" />
<path d="M25.2692 1.8390
L24.8459 1.8390
" />
<path d="M24.8459 2.5043
L24.8459 1.2343
" />
<path d="M24.8459 1.2343
L25.4506 1.2343
" />
<path d="M25.6321 2.6252
L26.5997 2.6252
" />
<path d="M27.5673 2.5043
L26.8416 2.5043
" />
<path d="M27.2045 2.5043
L27.2045 1.2343
" />
<path d="M27.2045 1.2343
L27.0835 1.4157
" />
<path d="M27.0835 1.4157
L26.9626 1.5367
" />
<path d="M26.9626 1.5367
L26.8416 1.5971
" />
<path d="M27.9906 2.5043
L28.6559 1.6576
" />
<path d="M27.9906 1.6576
L28.6559 2.5043
" />
<path d="M29.8049 2.5043
L29.0792 2.5043
" />
<path d="M29.4421 2.5043
L29.4421 1.2343
" />
<path d="M29.4421 1.2343
L29.3211 1.4157
" />
<path d="M29.3211 1.4157
L29.2002 1.5367
" />
<path d="M29.2002 1.5367
L29.0792 1.5971
" />
<path d="M30.9540 1.2343
L30.3492 1.2343
" />
<path d="M30.3492 1.2343
L30.2887 1.8390
" />
<path d="M30.2887 1.8390
L30.3492 1.7786
" />
<path d="M30.3492 1.7786
L30.4702 1.7181
" />
<path d="M30.4702 1.7181
L30.7726 1.7181
" />
<path d="M30.7726 1.7181
L30.8935 1.7786
" />
<path d="M30.8935 1.7786
L30.9540 1.8390
" />
<path d="M30.9540 1.8390
L31.0145 1.9600
" />
<path d="M31.0145 1.9600
L31.0145 2.2624
" />
<path d="M31.0145 2.2624
L30.9540 2.3833
" />
<path d="M30.9540 2.3833
L30.8935 2.4438
" />
<path d="M30.8935 2.4438
L30.7726 2.5043
" />
<path d="M30.7726 2.5043
L30.4702 2.5043
" />
<path d="M30.4702 2.5043
L30.3492 2.4438
" />
<path d="M30.3492 2.4438
L30.2887 2.3833
" />
<path d="M31.5587 2.0205
L32.5264 2.0205
" />
<path d="M33.7964 2.5043
L33.0706 2.5043
" />
<path d="M33.4335 2.5043
L33.4335 1.2343
" />
<path d="M33.4335 1.2343
L33.3126 1.4157
" />
<path d="M33.3126 1.4157
L33.1916 1.5367
" />
<path d="M33.1916 1.5367
L33.0706 1.5971
" />
<path d="M34.3406 2.5043
L34.3406 1.2343
" />
<path d="M34.3406 1.2343
L34.7640 2.1414
" />
<path d="M34.7640 2.1414
L35.1873 1.2343
" />
<path d="M35.1873 1.2343
L35.1873 2.5043
" />
<path d="M35.7921 2.5043
L35.7921 1.2343
" />
<path d="M35.7921 1.2343
L36.2759 1.2343
" />
<path d="M36.2759 1.2343
L36.3968 1.2947
" />
<path d="M36.3968 1.2947
L36.4573 1.3552
" />
<path d="M36.4573 1.3552
L36.5178 1.4762
" />
<path d="M36.5178 1.4762
L36.5178 1.6576
" />
<path d="M36.5178 1.6576
L36.4573 1.7786
" />
<path d="M36.4573 1.7786
L36.3968 1.8390
" />
<path d="M36.3968 1.8390
L36.2759 1.8995
" />
<path d="M36.2759 1.8995
L35.7921 1.8995
" />
<path d="M36.7597 2.6252
L37.7273 2.6252
" />
<path d="M38.0297 2.5043
L38.0297 1.2343
" />
<path d="M38.0297 1.2343
L38.5135 1.2343
" />
<path d="M38.5135 1.2343
L38.6345 1.2947
" />
<path d="M38.6345 1.2947
L38.6949 1.3552
" />
<path d="M38.6949 1.3552
L38.7554 1.4762
" />
<path d="M38.7554 1.4762
L38.7554 1.6576
" />
<path d="M38.7554 1.6576
L38.6949 1.7786
" />
<path d="M38.6949 1.7786
L38.6345 1.8390
" />
<path d="M38.6345 1.8390
L38.5135 1.8995
" />
<path d="M38.5135 1.8995
L38.0297 1.8995
" />
<path d="M39.5416 1.2343
L39.6626 1.2343
" />
<path d="M39.6626 1.2343
L39.7835 1.2947
" />
<path d="M39.7835 1.2947
L39.8440 1.3552
" />
<path d="M39.8440 1.3552
L39.9045 1.4762
" />
<path d="M39.9045 1.4762
L39.9649 1.7181
" />
<path d="M39.9649 1.7181
L39.9649 2.0205
" />
<path d="M39.9649 2.0205
L39.9045 2.2624
" />
<path d="M39.9045 2.2624
L39.8440 2.3833
" />
<path d="M39.8440 2.3833
L39.7835 2.4438
" />
<path d="M39.7835 2.4438
L39.6626 2.5043
" />
<path d="M39.6626 2.5043
L39.5416 2.5043
" />
<path d="M39.5416 2.5043
L39.4206 2.4438
" />
<path d="M39.4206 2.4438
L39.3602 2.3833
" />
<path d="M39.3602 2.3833
L39.2997 2.2624
" />
<path d="M39.2997 2.2624
L39.2392 2.0205
" />
<path d="M39.2392 2.0205
L39.2392 1.7181
" />
<path d="M39.2392 1.7181
L39.2997 1.4762
" />
<path d="M39.2997 1.4762
L39.3602 1.3552
" />
<path d="M39.3602 1.3552
L39.4206 1.2947
" />
<path d="M39.4206 1.2947
L39.5416 1.2343
" />
<path d="M40.5092 2.3833
L40.5697 2.4438
" />
<path d="M40.5697 2.4438
L40.5092 2.5043
" />
<path d="M40.5092 2.5043
L40.4487 2.4438
" />
<path d="M40.4487 2.4438
L40.5092 2.3833
" />
<path d="M40.5092 2.3833
L40.5092 2.5043
" />
<path d="M41.2954 1.7786
L41.1745 1.7181
" />
<path d="M41.1745 1.7181
L41.1140 1.6576
" />
<path d="M41.1140 1.6576
L41.0535 1.5367
" />
<path d="M41.0535 1.5367
L41.0535 1.4762
" />
<path d="M41.0535 1.4762
L41.1140 1.3552
" />
<path d="M41.1140 1.3552
L41.1745 1.2947
" />
<path d="M41.1745 1.2947
L41.2954 1.2343
" />
<path d="M41.2954 1.2343
L41.5373 1.2343
" />
<path d="M41.5373 1.2343
L41.6583 1.2947
" />
<path d="M41.6583 1.2947
L41.7187 1.3552
" />
<path d="M41.7187 1.3552
L41.7792 1.4762
" />
<path d="M41.7792 1.4762
L41.7792 1.5367
" />
<path d="M41.7792 1.5367
L41.7187 1.6576
" />
<path d="M41.7187 1.6576
L41.6583 1.7181
" />
<path d="M41.6583 1.7181
L41.5373 1.7786
" />
<path d="M41.5373 1.7786
L41.2954 1.7786
" />
<path d="M41.2954 1.7786
L41.1745 1.8390
" />
<path d="M41.1745 1.8390
L41.1140 1.8995
" />
<path d="M41.1140 1.8995
L41.0535 2.0205
" />
<path d="M41.0535 2.0205
L41.0535 2.2624
" />
<path d="M41.0535 2.2624
L41.1140 2.3833
" />
<path d="M41.1140 2.3833
L41.1745 2.4438
" />
<path d="M41.1745 2.4438
L41.2954 2.5043
" />
<path d="M41.2954 2.5043
L41.5373 2.5043
" />
<path d="M41.5373 2.5043
L41.6583 2.4438
" />
<path d="M41.6583 2.4438
L41.7187 2.3833
" />
<path d="M41.7187 2.3833
L41.7792 2.2624
" />
<path d="M41.7792 2.2624
L41.7792 2.0205
" />
<path d="M41.7792 2.0205
L41.7187 1.8995
" />
<path d="M41.7187 1.8995
L41.6583 1.8390
" />
<path d="M41.6583 1.8390
L41.5373 1.7786
" />
<path d="M42.5654 1.2343
L42.6864 1.2343
" />
<path d="M42.6864 1.2343
L42.8073 1.2947
" />
<path d="M42.8073 1.2947
L42.8678 1.3552
" />
<path d="M42.8678 1.3552
L42.9283 1.4762
" />
<path d="M42.9283 1.4762
L42.9887 1.7181
" />
<path d="M42.9887 1.7181
L42.9887 2.0205
" />
<path d="M42.9887 2.0205
L42.9283 2.2624
" />
<path d="M42.9283 2.2624
L42.8678 2.3833
" />
<path d="M42.8678 2.3833
L42.8073 2.4438
" />
<path d="M42.8073 2.4438
L42.6864 2.5043
" />
<path d="M42.6864 2.5043
L42.5654 2.5043
" />
<path d="M42.5654 2.5043
L42.4445 2.4438
" />
<path d="M42.4445 2.4438
L42.3840 2.3833
" />
<path d="M42.3840 2.3833
L42.3235 2.2624
" />
<path d="M42.3235 2.2624
L42.2630 2.0205
" />
<path d="M42.2630 2.0205
L42.2630 1.7181
" />
<path d="M42.2630 1.7181
L42.3235 1.4762
" />
<path d="M42.3235 1.4762
L42.3840 1.3552
" />
<path d="M42.3840 1.3552
L42.4445 1.2947
" />
<path d="M42.4445 1.2947
L42.5654 1.2343
" />
<path d="M43.5330 2.5043
L43.5330 1.6576
" />
<path d="M43.5330 1.7786
L43.5935 1.7181
" />
<path d="M43.5935 1.7181
L43.7145 1.6576
" />
<path d="M43.7145 1.6576
L43.8959 1.6576
" />
<path d="M43.8959 1.6576
L44.0168 1.7181
" />
<path d="M44.0168 1.7181
L44.0773 1.8390
" />
<path d="M44.0773 1.8390
L44.0773 2.5043
" />
<path d="M44.0773 1.8390
L44.1378 1.7181
" />
<path d="M44.1378 1.7181
L44.2587 1.6576
" />
<path d="M44.2587 1.6576
L44.4402 1.6576
" />
<path d="M44.4402 1.6576
L44.5611 1.7181
" />
<path d="M44.5611 1.7181
L44.6216 1.8390
" />
<path d="M44.6216 1.8390
L44.6216 2.5043
" />
<path d="M45.2264 2.5043
L45.2264 1.6576
" />
<path d="M45.2264 1.7786
L45.2868 1.7181
" />
<path d="M45.2868 1.7181
L45.4078 1.6576
" />
<path d="M45.4078 1.6576
L45.5892 1.6576
" />
<path d="M45.5892 1.6576
L45.7102 1.7181
" />
<path d="M45.7102 1.7181
L45.7706 1.8390
" />
<path d="M45.7706 1.8390
L45.7706 2.5043
" />
<path d="M45.7706 1.8390
L45.8311 1.7181
" />
<path d="M45.8311 1.7181
L45.9521 1.6576
" />
<path d="M45.9521 1.6576
L46.1335 1.6576
" />
<path d="M46.1335 1.6576
L46.2545 1.7181
" />
<path d="M46.2545 1.7181
L46.3149 1.8390
" />
<path d="M46.3149 1.8390
L46.3149 2.5043
" />
<path d="M46.6173 2.6252
L47.5849 2.6252
" />
<path d="M47.7059 1.2343
L48.1292 2.5043
" />
<path d="M48.1292 2.5043
L48.5526 1.2343
" />
<path d="M49.4597 2.4438
L49.3387 2.5043
" />
<path d="M49.3387 2.5043
L49.0968 2.5043
" />
<path d="M49.0968 2.5043
L48.9759 2.4438
" />
<path d="M48.9759 2.4438
L48.9154 2.3228
" />
<path d="M48.9154 2.3228
L48.9154 1.8390
" />
<path d="M48.9154 1.8390
L48.9759 1.7181
" />
<path d="M48.9759 1.7181
L49.0968 1.6576
" />
<path d="M49.0968 1.6576
L49.3387 1.6576
" />
<path d="M49.3387 1.6576
L49.4597 1.7181
" />
<path d="M49.4597 1.7181
L49.5202 1.8390
" />
<path d="M49.5202 1.8390
L49.5202 1.9600
" />
<path d="M49.5202 1.9600
L48.9154 2.0809
" />
<path d="M50.0645 2.5043
L50.0645 1.6576
" />
<path d="M50.0645 1.8995
L50.1249 1.7786
" />
<path d="M50.1249 1.7786
L50.1854 1.7181
" />
<path d="M50.1854 1.7181
L50.3064 1.6576
" />
<path d="M50.3064 1.6576
L50.4273 1.6576
" />
<path d="M50.6692 1.6576
L51.1530 1.6576
" />
<path d="M50.8506 1.2343
L50.8506 2.3228
" />
<path d="M50.8506 2.3228
L50.9111 2.4438
" />
<path d="M50.9111 2.4438
L51.0321 2.5043
" />
<path d="M51.0321 2.5043
L51.1530 2.5043
" />
<path d="M51.5764 2.5043
L51.5764 1.6576
" />
<path d="M51.5764 1.2343
L51.5159 1.2947
" />
<path d="M51.5159 1.2947
L51.5764 1.3552
" />
<path d="M51.5764 1.3552
L51.6368 1.2947
" />
<path d="M51.6368 1.2947
L51.5764 1.2343
" />
<path d="M51.5764 1.2343
L51.5764 1.3552
" />
<path d="M52.7254 2.4438
L52.6045 2.5043
" />
<path d="M52.6045 2.5043
L52.3626 2.5043
" />
<path d="M52.3626 2.5043
L52.2416 2.4438
" />
<path d="M52.2416 2.4438
L52.1811 2.3833
" />
<path d="M52.1811 2.3833
L52.1206 2.2624
" />
<path d="M52.1206 2.2624
L52.1206 1.8995
" />
<path d="M52.1206 1.8995
L52.1811 1.7786
" />
<path d="M52.1811 1.7786
L52.2416 1.7181
" />
<path d="M52.2416 1.7181
L52.3626 1.6576
" />
<path d="M52.3626 1.6576
L52.6045 1.6576
" />
<path d="M52.6045 1.6576
L52.7254 1.7181
" />
<path d="M53.8140 2.5043
L53.8140 1.8390
" />
<path d="M53.8140 1.8390
L53.7535 1.7181
" />
<path d="M53.7535 1.7181
L53.6326 1.6576
" />
<path d="M53.6326 1.6576
L53.3906 1.6576
" />
<path d="M53.3906 1.6576
L53.2697 1.7181
" />
<path d="M53.8140 2.4438
L53.6930 2.5043
" />
<path d="M53.6930 2.5043
L53.3906 2.5043
" />
<path d="M53.3906 2.5043
L53.2697 2.4438
" />
<path d="M53.2697 2.4438
L53.2092 2.3228
" />
<path d="M53.2092 2.3228
L53.2092 2.2019
" />
<path d="M53.2092 2.2019
L53.2697 2.0809
" />
<path d="M53.2697 2.0809
L53.3906 2.0205
" />
<path d="M53.3906 2.0205
L53.6930 2.0205
" />
<path d="M53.6930 2.0205
L53.8140 1.9600
" />
<path d="M54.6002 2.5043
L54.4792 2.4438
" />
<path d="M54.4792 2.4438
L54.4187 2.3228
" />
<path d="M54.4187 2.3228
L54.4187 1.2343
" />
</g></g>
<g style="fill:none; 
stroke:#AFAFAF; stroke-width:0.1500; stroke-opacity:1; 
stroke-linecap:round; stroke-linejoin:round;">
<text x="27.4464" y="2.0250"
textLength="4.5357" font-size="1.3333" lengthAdjust="spacingAndGlyphs"
text-anchor="middle" opacity="0">REF**</text>
<g class="stroked-text"><desc>REF**</desc>
<path d="M26.1130 1.9798
L25.7797 1.5036
" />
<path d="M25.5416 1.9798
L25.5416 0.9798
" />
<path d="M25.5416 0.9798
L25.9226 0.9798
" />
<path d="M25.9226 0.9798
L26.0178 1.0274
" />
<path d="M26.0178 1.0274
L26.0654 1.0751
" />
<path d="M26.0654 1.0751
L26.1130 1.1703
" />
<path d="M26.1130 1.1703
L26.1130 1.3132
" />
<path d="M26.1130 1.3132
L26.0654 1.4084
" />
<path d="M26.0654 1.4084
L26.0178 1.4560
" />
<path d="M26.0178 1.4560
L25.9226 1.5036
" />
<path d="M25.9226 1.5036
L25.5416 1.5036
" />
<path d="M26.5416 1.4560
L26.8749 1.4560
" />
<path d="M27.0178 1.9798
L26.5416 1.9798
" />
<path d="M26.5416 1.9798
L26.5416 0.9798
" />
<path d="M26.5416 0.9798
L27.0178 0.9798
" />
<path d="M27.7797 1.4560
L27.4464 1.4560
" />
<path d="M27.4464 1.9798
L27.4464 0.9798
" />
<path d="M27.4464 0.9798
L27.9226 0.9798
" />
<path d="M28.4464 0.9798
L28.4464 1.2179
" />
<path d="M28.2083 1.1227
L28.4464 1.2179
" />
<path d="M28.4464 1.2179
L28.6845 1.1227
" />
<path d="M28.3035 1.4084
L28.4464 1.2179
" />
<path d="M28.4464 1.2179
L28.5892 1.4084
" />
<path d="M29.2083 0.9798
L29.2083 1.2179
" />
<path d="M28.9702 1.1227
L29.2083 1.2179
" />
<path d="M29.2083 1.2179
L29.4464 1.1227
" />
<path d="M29.0654 1.4084
L29.2083 1.2179
" />
<path d="M29.2083 1.2179
L29.3511 1.4084
" />
</g></g>
<g style="fill:none; 
stroke:#AFAFAF; stroke-width:0.1000; stroke-opacity:1; 
stroke-linecap:round; stroke-linejoin:round;">
<path d="M20.3464 0.8250
L34.5464 0.8250
" />
<path d="M20.3464 2.8250
L20.3464 0.8250
" />
<path d="M20.3464 2.8250
L34.5464 2.8250
" />
<path d="M21.3464 2.8250
L21.8464 2.1179
" />
<path d="M21.8464 2.1179
L22.3464 2.8250
" />
<path d="M34.5464 2.8250
L34.5464 0.8250
" />
</g> 
</svg>
