<?xml version="1.0" standalone="no"?>
 <!DOCTYPE svg PUBLIC "-//W3C//DTD SVG 1.1//EN" 
 "http://www.w3.org/Graphics/SVG/1.1/DTD/svg11.dtd"> 
<svg
  xmlns:svg="http://www.w3.org/2000/svg"
  xmlns="http://www.w3.org/2000/svg"
  xmlns:xlink="http://www.w3.org/1999/xlink"
  version="1.1"
  width="59.2328mm" height="9.7028mm" viewBox="0.0000 0.0000 59.2328 9.7028">
<title>SVG Image created as working-brd.svg date 2024/04/22 10:06:41 </title>
  <desc>Image generated by PCBNEW </desc>
<g style="fill:#000000; fill-opacity:1.0000;stroke:#000000; stroke-opacity:1.0000;
stroke-linecap:round; stroke-linejoin:round;"
 transform="translate(0 0) scale(1 1)">
</g>
<g style="fill:#FFFFFF; fill-opacity:1.0000; stroke:none;">
<circle cx="29.6235" cy="6.4682" r="0.6000" /> 
</g>
<g style="fill:#FFFFFF; fill-opacity:1.0000; stroke:none;">
<circle cx="31.3235" cy="8.5282" r="0.6000" /> 
</g>
<g style="fill:#FFFFFF; fill-opacity:1.0000; stroke:none;">
<circle cx="33.0235" cy="6.4682" r="0.6000" /> 
</g>
<g style="fill:#FFFFFF; fill-opacity:1.0000; stroke:none;">
<circle cx="34.7235" cy="8.5282" r="0.6000" /> 
</g>
<g style="fill:#FFFFFF; fill-opacity:1.0000; stroke:none;">
<circle cx="36.4235" cy="6.4682" r="0.6000" /> 
<path style="fill:#02FFEE; fill-opacity:0.4000; stroke:none;fill-rule:evenodd;"
d="M 28.7235,7.3682
28.7235,5.5682
30.5235,5.5682
30.5235,7.3682
Z" /> 
</g>
<g style="fill:#02FFEE; fill-opacity:0.4000; stroke:none;">
<circle cx="31.3235" cy="8.5282" r="0.9000" /> 
<circle cx="33.0235" cy="6.4682" r="0.9000" /> 
<circle cx="34.7235" cy="8.5282" r="0.9000" /> 
<circle cx="36.4235" cy="6.4682" r="0.9000" /> 
</g>
<g style="fill:#FFFFFF; fill-opacity:1.0000; stroke:none;">
<circle cx="29.6235" cy="6.4682" r="0.6000" /> 
</g>
<g style="fill:#FFFFFF; fill-opacity:1.0000; stroke:none;">
<circle cx="31.3235" cy="8.5282" r="0.6000" /> 
</g>
<g style="fill:#FFFFFF; fill-opacity:1.0000; stroke:none;">
<circle cx="33.0235" cy="6.4682" r="0.6000" /> 
</g>
<g style="fill:#FFFFFF; fill-opacity:1.0000; stroke:none;">
<circle cx="34.7235" cy="8.5282" r="0.6000" /> 
</g>
<g style="fill:#FFFFFF; fill-opacity:1.0000; stroke:none;">
<circle cx="36.4235" cy="6.4682" r="0.6000" /> 
</g>
<g style="fill:#FFFFFF; fill-opacity:1.0000; stroke:none;">
<circle cx="29.6235" cy="6.4682" r="0.6000" /> 
</g>
<g style="fill:#FFFFFF; fill-opacity:1.0000; stroke:none;">
<circle cx="31.3235" cy="8.5282" r="0.6000" /> 
</g>
<g style="fill:#FFFFFF; fill-opacity:1.0000; stroke:none;">
<circle cx="33.0235" cy="6.4682" r="0.6000" /> 
</g>
<g style="fill:#FFFFFF; fill-opacity:1.0000; stroke:none;">
<circle cx="34.7235" cy="8.5282" r="0.6000" /> 
</g>
<g style="fill:#FFFFFF; fill-opacity:1.0000; stroke:none;">
<circle cx="36.4235" cy="6.4682" r="0.6000" /> 
<path style="fill:#D864FF; fill-opacity:0.4000; stroke:none;fill-rule:evenodd;"
d="M 28.7235,7.3682
28.7235,5.5682
30.5235,5.5682
30.5235,7.3682
Z" /> 
</g>
<g style="fill:#D864FF; fill-opacity:0.4000; stroke:none;">
<circle cx="31.3235" cy="8.5282" r="0.9000" /> 
<circle cx="33.0235" cy="6.4682" r="0.9000" /> 
<circle cx="34.7235" cy="8.5282" r="0.9000" /> 
<circle cx="36.4235" cy="6.4682" r="0.9000" /> 
</g>
<g style="fill:none; 
stroke:#F2EDA1; stroke-width:0.1588; stroke-opacity:1; 
stroke-linecap:round; stroke-linejoin:round;">
<text x="29.6235" y="7.1033"
textLength="5.6651" font-size="1.6933" lengthAdjust="spacingAndGlyphs"
text-anchor="middle" opacity="0">REF**</text>
<g class="stroked-text"><desc>REF**</desc>
<path d="M27.9302 7.0475
L27.5068 6.4428
" />
<path d="M27.2045 7.0475
L27.2045 5.7775
" />
<path d="M27.2045 5.7775
L27.6883 5.7775
" />
<path d="M27.6883 5.7775
L27.8092 5.8380
" />
<path d="M27.8092 5.8380
L27.8697 5.8985
" />
<path d="M27.8697 5.8985
L27.9302 6.0194
" />
<path d="M27.9302 6.0194
L27.9302 6.2009
" />
<path d="M27.9302 6.2009
L27.8697 6.3218
" />
<path d="M27.8697 6.3218
L27.8092 6.3823
" />
<path d="M27.8092 6.3823
L27.6883 6.4428
" />
<path d="M27.6883 6.4428
L27.2045 6.4428
" />
<path d="M28.4745 6.3823
L28.8978 6.3823
" />
<path d="M29.0792 7.0475
L28.4745 7.0475
" />
<path d="M28.4745 7.0475
L28.4745 5.7775
" />
<path d="M28.4745 5.7775
L29.0792 5.7775
" />
<path d="M30.0468 6.3823
L29.6235 6.3823
" />
<path d="M29.6235 7.0475
L29.6235 5.7775
" />
<path d="M29.6235 5.7775
L30.2283 5.7775
" />
<path d="M30.8935 5.7775
L30.8935 6.0799
" />
<path d="M30.5911 5.9589
L30.8935 6.0799
" />
<path d="M30.8935 6.0799
L31.1959 5.9589
" />
<path d="M30.7121 6.3218
L30.8935 6.0799
" />
<path d="M30.8935 6.0799
L31.0749 6.3218
" />
<path d="M31.8611 5.7775
L31.8611 6.0799
" />
<path d="M31.5587 5.9589
L31.8611 6.0799
" />
<path d="M31.8611 6.0799
L32.1635 5.9589
" />
<path d="M31.6797 6.3218
L31.8611 6.0799
" />
<path d="M31.8611 6.0799
L32.0426 6.3218
" />
</g></g>
<g style="fill:none; 
stroke:#F2EDA1; stroke-width:0.1200; stroke-opacity:1; 
stroke-linecap:round; stroke-linejoin:round;">
<path d="M27.7735 1.8482
L27.7735 6.7893
" />
<path d="M27.7735 1.8482
L38.2735 1.8482
" />
<path d="M27.7735 4.6072
L38.2735 4.6072
" />
<path d="M27.7735 6.7893
L28.5735 6.7893
" />
<path d="M30.6735 6.7893
L31.9925 6.7893
" />
<path d="M31.1735 1.8482
L31.1735 4.6072
" />
<path d="M31.3235 6.7893
L31.3235 7.4632
" />
<path d="M34.0555 6.7893
L35.3925 6.7893
" />
<path d="M34.7235 6.7893
L34.7235 7.4632
" />
<path d="M34.8735 1.8482
L34.8735 4.6072
" />
<path d="M37.4555 6.7893
L38.2735 6.7893
" />
<path d="M38.2735 1.8482
L38.2735 6.7893
" />
</g>
<g style="fill:#FFFFFF; fill-opacity:1.0000; stroke:none;">
<circle cx="29.6235" cy="6.4682" r="0.6000" /> 
</g>
<g style="fill:#FFFFFF; fill-opacity:1.0000; stroke:none;">
<circle cx="31.3235" cy="8.5282" r="0.6000" /> 
</g>
<g style="fill:#FFFFFF; fill-opacity:1.0000; stroke:none;">
<circle cx="33.0235" cy="6.4682" r="0.6000" /> 
</g>
<g style="fill:#FFFFFF; fill-opacity:1.0000; stroke:none;">
<circle cx="34.7235" cy="8.5282" r="0.6000" /> 
</g>
<g style="fill:#FFFFFF; fill-opacity:1.0000; stroke:none;">
<circle cx="36.4235" cy="6.4682" r="0.6000" /> 
</g>
<g style="fill:none; 
stroke:#FF26E2; stroke-width:0.0500; stroke-opacity:1; 
stroke-linecap:round; stroke-linejoin:round;">
<path d="M27.6435 1.7182
L27.6435 9.6883
" />
<path d="M27.6435 9.6883
L38.4035 9.6883
" />
<path d="M38.4035 1.7182
L27.6435 1.7182
" />
<path d="M38.4035 9.6883
L38.4035 1.7182
" />
</g>
<g style="fill:none; 
stroke:#AFAFAF; stroke-width:0.1588; stroke-opacity:1; 
stroke-linecap:round; stroke-linejoin:round;">
<text x="29.6235" y="7.1033"
textLength="59.2470" font-size="1.6933" lengthAdjust="spacingAndGlyphs"
text-anchor="middle" opacity="0">TO-220F-5_P3.4x2.06mm_StaggerEven_Lead1.86mm_Vertical</text>
<g class="stroked-text"><desc>TO-220F-5_P3.4x2.06mm_StaggerEven_Lead1.86mm_Vertical</desc>
<path d="M0.2321 5.7775
L0.9578 5.7775
" />
<path d="M0.5949 7.0475
L0.5949 5.7775
" />
<path d="M1.6230 5.7775
L1.8649 5.7775
" />
<path d="M1.8649 5.7775
L1.9859 5.8380
" />
<path d="M1.9859 5.8380
L2.1068 5.9589
" />
<path d="M2.1068 5.9589
L2.1673 6.2009
" />
<path d="M2.1673 6.2009
L2.1673 6.6242
" />
<path d="M2.1673 6.6242
L2.1068 6.8661
" />
<path d="M2.1068 6.8661
L1.9859 6.9870
" />
<path d="M1.9859 6.9870
L1.8649 7.0475
" />
<path d="M1.8649 7.0475
L1.6230 7.0475
" />
<path d="M1.6230 7.0475
L1.5021 6.9870
" />
<path d="M1.5021 6.9870
L1.3811 6.8661
" />
<path d="M1.3811 6.8661
L1.3206 6.6242
" />
<path d="M1.3206 6.6242
L1.3206 6.2009
" />
<path d="M1.3206 6.2009
L1.3811 5.9589
" />
<path d="M1.3811 5.9589
L1.5021 5.8380
" />
<path d="M1.5021 5.8380
L1.6230 5.7775
" />
<path d="M2.7116 6.5637
L3.6792 6.5637
" />
<path d="M4.2235 5.8985
L4.2840 5.8380
" />
<path d="M4.2840 5.8380
L4.4049 5.7775
" />
<path d="M4.4049 5.7775
L4.7073 5.7775
" />
<path d="M4.7073 5.7775
L4.8283 5.8380
" />
<path d="M4.8283 5.8380
L4.8887 5.8985
" />
<path d="M4.8887 5.8985
L4.9492 6.0194
" />
<path d="M4.9492 6.0194
L4.9492 6.1404
" />
<path d="M4.9492 6.1404
L4.8887 6.3218
" />
<path d="M4.8887 6.3218
L4.1630 7.0475
" />
<path d="M4.1630 7.0475
L4.9492 7.0475
" />
<path d="M5.4330 5.8985
L5.4935 5.8380
" />
<path d="M5.4935 5.8380
L5.6145 5.7775
" />
<path d="M5.6145 5.7775
L5.9168 5.7775
" />
<path d="M5.9168 5.7775
L6.0378 5.8380
" />
<path d="M6.0378 5.8380
L6.0983 5.8985
" />
<path d="M6.0983 5.8985
L6.1587 6.0194
" />
<path d="M6.1587 6.0194
L6.1587 6.1404
" />
<path d="M6.1587 6.1404
L6.0983 6.3218
" />
<path d="M6.0983 6.3218
L5.3726 7.0475
" />
<path d="M5.3726 7.0475
L6.1587 7.0475
" />
<path d="M6.9449 5.7775
L7.0659 5.7775
" />
<path d="M7.0659 5.7775
L7.1868 5.8380
" />
<path d="M7.1868 5.8380
L7.2473 5.8985
" />
<path d="M7.2473 5.8985
L7.3078 6.0194
" />
<path d="M7.3078 6.0194
L7.3683 6.2613
" />
<path d="M7.3683 6.2613
L7.3683 6.5637
" />
<path d="M7.3683 6.5637
L7.3078 6.8056
" />
<path d="M7.3078 6.8056
L7.2473 6.9266
" />
<path d="M7.2473 6.9266
L7.1868 6.9870
" />
<path d="M7.1868 6.9870
L7.0659 7.0475
" />
<path d="M7.0659 7.0475
L6.9449 7.0475
" />
<path d="M6.9449 7.0475
L6.8240 6.9870
" />
<path d="M6.8240 6.9870
L6.7635 6.9266
" />
<path d="M6.7635 6.9266
L6.7030 6.8056
" />
<path d="M6.7030 6.8056
L6.6426 6.5637
" />
<path d="M6.6426 6.5637
L6.6426 6.2613
" />
<path d="M6.6426 6.2613
L6.7030 6.0194
" />
<path d="M6.7030 6.0194
L6.7635 5.8985
" />
<path d="M6.7635 5.8985
L6.8240 5.8380
" />
<path d="M6.8240 5.8380
L6.9449 5.7775
" />
<path d="M8.3359 6.3823
L7.9126 6.3823
" />
<path d="M7.9126 7.0475
L7.9126 5.7775
" />
<path d="M7.9126 5.7775
L8.5173 5.7775
" />
<path d="M9.0011 6.5637
L9.9687 6.5637
" />
<path d="M11.1783 5.7775
L10.5735 5.7775
" />
<path d="M10.5735 5.7775
L10.5130 6.3823
" />
<path d="M10.5130 6.3823
L10.5735 6.3218
" />
<path d="M10.5735 6.3218
L10.6945 6.2613
" />
<path d="M10.6945 6.2613
L10.9968 6.2613
" />
<path d="M10.9968 6.2613
L11.1178 6.3218
" />
<path d="M11.1178 6.3218
L11.1783 6.3823
" />
<path d="M11.1783 6.3823
L11.2387 6.5032
" />
<path d="M11.2387 6.5032
L11.2387 6.8056
" />
<path d="M11.2387 6.8056
L11.1783 6.9266
" />
<path d="M11.1783 6.9266
L11.1178 6.9870
" />
<path d="M11.1178 6.9870
L10.9968 7.0475
" />
<path d="M10.9968 7.0475
L10.6945 7.0475
" />
<path d="M10.6945 7.0475
L10.5735 6.9870
" />
<path d="M10.5735 6.9870
L10.5130 6.9266
" />
<path d="M11.4806 7.1685
L12.4483 7.1685
" />
<path d="M12.7506 7.0475
L12.7506 5.7775
" />
<path d="M12.7506 5.7775
L13.2345 5.7775
" />
<path d="M13.2345 5.7775
L13.3554 5.8380
" />
<path d="M13.3554 5.8380
L13.4159 5.8985
" />
<path d="M13.4159 5.8985
L13.4764 6.0194
" />
<path d="M13.4764 6.0194
L13.4764 6.2009
" />
<path d="M13.4764 6.2009
L13.4159 6.3218
" />
<path d="M13.4159 6.3218
L13.3554 6.3823
" />
<path d="M13.3554 6.3823
L13.2345 6.4428
" />
<path d="M13.2345 6.4428
L12.7506 6.4428
" />
<path d="M13.8997 5.7775
L14.6859 5.7775
" />
<path d="M14.6859 5.7775
L14.2626 6.2613
" />
<path d="M14.2626 6.2613
L14.4440 6.2613
" />
<path d="M14.4440 6.2613
L14.5649 6.3218
" />
<path d="M14.5649 6.3218
L14.6254 6.3823
" />
<path d="M14.6254 6.3823
L14.6859 6.5032
" />
<path d="M14.6859 6.5032
L14.6859 6.8056
" />
<path d="M14.6859 6.8056
L14.6254 6.9266
" />
<path d="M14.6254 6.9266
L14.5649 6.9870
" />
<path d="M14.5649 6.9870
L14.4440 7.0475
" />
<path d="M14.4440 7.0475
L14.0811 7.0475
" />
<path d="M14.0811 7.0475
L13.9602 6.9870
" />
<path d="M13.9602 6.9870
L13.8997 6.9266
" />
<path d="M15.2302 6.9266
L15.2906 6.9870
" />
<path d="M15.2906 6.9870
L15.2302 7.0475
" />
<path d="M15.2302 7.0475
L15.1697 6.9870
" />
<path d="M15.1697 6.9870
L15.2302 6.9266
" />
<path d="M15.2302 6.9266
L15.2302 7.0475
" />
<path d="M16.3792 6.2009
L16.3792 7.0475
" />
<path d="M16.0768 5.7170
L15.7745 6.6242
" />
<path d="M15.7745 6.6242
L16.5606 6.6242
" />
<path d="M16.9235 7.0475
L17.5887 6.2009
" />
<path d="M16.9235 6.2009
L17.5887 7.0475
" />
<path d="M18.0121 5.8985
L18.0726 5.8380
" />
<path d="M18.0726 5.8380
L18.1935 5.7775
" />
<path d="M18.1935 5.7775
L18.4959 5.7775
" />
<path d="M18.4959 5.7775
L18.6168 5.8380
" />
<path d="M18.6168 5.8380
L18.6773 5.8985
" />
<path d="M18.6773 5.8985
L18.7378 6.0194
" />
<path d="M18.7378 6.0194
L18.7378 6.1404
" />
<path d="M18.7378 6.1404
L18.6773 6.3218
" />
<path d="M18.6773 6.3218
L17.9516 7.0475
" />
<path d="M17.9516 7.0475
L18.7378 7.0475
" />
<path d="M19.2821 6.9266
L19.3426 6.9870
" />
<path d="M19.3426 6.9870
L19.2821 7.0475
" />
<path d="M19.2821 7.0475
L19.2216 6.9870
" />
<path d="M19.2216 6.9870
L19.2821 6.9266
" />
<path d="M19.2821 6.9266
L19.2821 7.0475
" />
<path d="M20.1287 5.7775
L20.2497 5.7775
" />
<path d="M20.2497 5.7775
L20.3706 5.8380
" />
<path d="M20.3706 5.8380
L20.4311 5.8985
" />
<path d="M20.4311 5.8985
L20.4916 6.0194
" />
<path d="M20.4916 6.0194
L20.5521 6.2613
" />
<path d="M20.5521 6.2613
L20.5521 6.5637
" />
<path d="M20.5521 6.5637
L20.4916 6.8056
" />
<path d="M20.4916 6.8056
L20.4311 6.9266
" />
<path d="M20.4311 6.9266
L20.3706 6.9870
" />
<path d="M20.3706 6.9870
L20.2497 7.0475
" />
<path d="M20.2497 7.0475
L20.1287 7.0475
" />
<path d="M20.1287 7.0475
L20.0078 6.9870
" />
<path d="M20.0078 6.9870
L19.9473 6.9266
" />
<path d="M19.9473 6.9266
L19.8868 6.8056
" />
<path d="M19.8868 6.8056
L19.8264 6.5637
" />
<path d="M19.8264 6.5637
L19.8264 6.2613
" />
<path d="M19.8264 6.2613
L19.8868 6.0194
" />
<path d="M19.8868 6.0194
L19.9473 5.8985
" />
<path d="M19.9473 5.8985
L20.0078 5.8380
" />
<path d="M20.0078 5.8380
L20.1287 5.7775
" />
<path d="M21.6406 5.7775
L21.3987 5.7775
" />
<path d="M21.3987 5.7775
L21.2778 5.8380
" />
<path d="M21.2778 5.8380
L21.2173 5.8985
" />
<path d="M21.2173 5.8985
L21.0964 6.0799
" />
<path d="M21.0964 6.0799
L21.0359 6.3218
" />
<path d="M21.0359 6.3218
L21.0359 6.8056
" />
<path d="M21.0359 6.8056
L21.0964 6.9266
" />
<path d="M21.0964 6.9266
L21.1568 6.9870
" />
<path d="M21.1568 6.9870
L21.2778 7.0475
" />
<path d="M21.2778 7.0475
L21.5197 7.0475
" />
<path d="M21.5197 7.0475
L21.6406 6.9870
" />
<path d="M21.6406 6.9870
L21.7011 6.9266
" />
<path d="M21.7011 6.9266
L21.7616 6.8056
" />
<path d="M21.7616 6.8056
L21.7616 6.5032
" />
<path d="M21.7616 6.5032
L21.7011 6.3823
" />
<path d="M21.7011 6.3823
L21.6406 6.3218
" />
<path d="M21.6406 6.3218
L21.5197 6.2613
" />
<path d="M21.5197 6.2613
L21.2778 6.2613
" />
<path d="M21.2778 6.2613
L21.1568 6.3218
" />
<path d="M21.1568 6.3218
L21.0964 6.3823
" />
<path d="M21.0964 6.3823
L21.0359 6.5032
" />
<path d="M22.3059 7.0475
L22.3059 6.2009
" />
<path d="M22.3059 6.3218
L22.3664 6.2613
" />
<path d="M22.3664 6.2613
L22.4873 6.2009
" />
<path d="M22.4873 6.2009
L22.6687 6.2009
" />
<path d="M22.6687 6.2009
L22.7897 6.2613
" />
<path d="M22.7897 6.2613
L22.8502 6.3823
" />
<path d="M22.8502 6.3823
L22.8502 7.0475
" />
<path d="M22.8502 6.3823
L22.9107 6.2613
" />
<path d="M22.9107 6.2613
L23.0316 6.2009
" />
<path d="M23.0316 6.2009
L23.2130 6.2009
" />
<path d="M23.2130 6.2009
L23.3340 6.2613
" />
<path d="M23.3340 6.2613
L23.3945 6.3823
" />
<path d="M23.3945 6.3823
L23.3945 7.0475
" />
<path d="M23.9992 7.0475
L23.9992 6.2009
" />
<path d="M23.9992 6.3218
L24.0597 6.2613
" />
<path d="M24.0597 6.2613
L24.1806 6.2009
" />
<path d="M24.1806 6.2009
L24.3621 6.2009
" />
<path d="M24.3621 6.2009
L24.4830 6.2613
" />
<path d="M24.4830 6.2613
L24.5435 6.3823
" />
<path d="M24.5435 6.3823
L24.5435 7.0475
" />
<path d="M24.5435 6.3823
L24.6040 6.2613
" />
<path d="M24.6040 6.2613
L24.7249 6.2009
" />
<path d="M24.7249 6.2009
L24.9064 6.2009
" />
<path d="M24.9064 6.2009
L25.0273 6.2613
" />
<path d="M25.0273 6.2613
L25.0878 6.3823
" />
<path d="M25.0878 6.3823
L25.0878 7.0475
" />
<path d="M25.3902 7.1685
L26.3578 7.1685
" />
<path d="M26.5997 6.9870
L26.7811 7.0475
" />
<path d="M26.7811 7.0475
L27.0835 7.0475
" />
<path d="M27.0835 7.0475
L27.2045 6.9870
" />
<path d="M27.2045 6.9870
L27.2649 6.9266
" />
<path d="M27.2649 6.9266
L27.3254 6.8056
" />
<path d="M27.3254 6.8056
L27.3254 6.6847
" />
<path d="M27.3254 6.6847
L27.2649 6.5637
" />
<path d="M27.2649 6.5637
L27.2045 6.5032
" />
<path d="M27.2045 6.5032
L27.0835 6.4428
" />
<path d="M27.0835 6.4428
L26.8416 6.3823
" />
<path d="M26.8416 6.3823
L26.7206 6.3218
" />
<path d="M26.7206 6.3218
L26.6602 6.2613
" />
<path d="M26.6602 6.2613
L26.5997 6.1404
" />
<path d="M26.5997 6.1404
L26.5997 6.0194
" />
<path d="M26.5997 6.0194
L26.6602 5.8985
" />
<path d="M26.6602 5.8985
L26.7206 5.8380
" />
<path d="M26.7206 5.8380
L26.8416 5.7775
" />
<path d="M26.8416 5.7775
L27.1440 5.7775
" />
<path d="M27.1440 5.7775
L27.3254 5.8380
" />
<path d="M27.6883 6.2009
L28.1721 6.2009
" />
<path d="M27.8697 5.7775
L27.8697 6.8661
" />
<path d="M27.8697 6.8661
L27.9302 6.9870
" />
<path d="M27.9302 6.9870
L28.0511 7.0475
" />
<path d="M28.0511 7.0475
L28.1721 7.0475
" />
<path d="M29.1397 7.0475
L29.1397 6.3823
" />
<path d="M29.1397 6.3823
L29.0792 6.2613
" />
<path d="M29.0792 6.2613
L28.9583 6.2009
" />
<path d="M28.9583 6.2009
L28.7164 6.2009
" />
<path d="M28.7164 6.2009
L28.5954 6.2613
" />
<path d="M29.1397 6.9870
L29.0187 7.0475
" />
<path d="M29.0187 7.0475
L28.7164 7.0475
" />
<path d="M28.7164 7.0475
L28.5954 6.9870
" />
<path d="M28.5954 6.9870
L28.5349 6.8661
" />
<path d="M28.5349 6.8661
L28.5349 6.7451
" />
<path d="M28.5349 6.7451
L28.5954 6.6242
" />
<path d="M28.5954 6.6242
L28.7164 6.5637
" />
<path d="M28.7164 6.5637
L29.0187 6.5637
" />
<path d="M29.0187 6.5637
L29.1397 6.5032
" />
<path d="M30.2887 6.2009
L30.2887 7.2289
" />
<path d="M30.2887 7.2289
L30.2283 7.3499
" />
<path d="M30.2283 7.3499
L30.1678 7.4104
" />
<path d="M30.1678 7.4104
L30.0468 7.4709
" />
<path d="M30.0468 7.4709
L29.8654 7.4709
" />
<path d="M29.8654 7.4709
L29.7445 7.4104
" />
<path d="M30.2887 6.9870
L30.1678 7.0475
" />
<path d="M30.1678 7.0475
L29.9259 7.0475
" />
<path d="M29.9259 7.0475
L29.8049 6.9870
" />
<path d="M29.8049 6.9870
L29.7445 6.9266
" />
<path d="M29.7445 6.9266
L29.6840 6.8056
" />
<path d="M29.6840 6.8056
L29.6840 6.4428
" />
<path d="M29.6840 6.4428
L29.7445 6.3218
" />
<path d="M29.7445 6.3218
L29.8049 6.2613
" />
<path d="M29.8049 6.2613
L29.9259 6.2009
" />
<path d="M29.9259 6.2009
L30.1678 6.2009
" />
<path d="M30.1678 6.2009
L30.2887 6.2613
" />
<path d="M31.4378 6.2009
L31.4378 7.2289
" />
<path d="M31.4378 7.2289
L31.3773 7.3499
" />
<path d="M31.3773 7.3499
L31.3168 7.4104
" />
<path d="M31.3168 7.4104
L31.1959 7.4709
" />
<path d="M31.1959 7.4709
L31.0145 7.4709
" />
<path d="M31.0145 7.4709
L30.8935 7.4104
" />
<path d="M31.4378 6.9870
L31.3168 7.0475
" />
<path d="M31.3168 7.0475
L31.0749 7.0475
" />
<path d="M31.0749 7.0475
L30.9540 6.9870
" />
<path d="M30.9540 6.9870
L30.8935 6.9266
" />
<path d="M30.8935 6.9266
L30.8330 6.8056
" />
<path d="M30.8330 6.8056
L30.8330 6.4428
" />
<path d="M30.8330 6.4428
L30.8935 6.3218
" />
<path d="M30.8935 6.3218
L30.9540 6.2613
" />
<path d="M30.9540 6.2613
L31.0749 6.2009
" />
<path d="M31.0749 6.2009
L31.3168 6.2009
" />
<path d="M31.3168 6.2009
L31.4378 6.2613
" />
<path d="M32.5264 6.9870
L32.4054 7.0475
" />
<path d="M32.4054 7.0475
L32.1635 7.0475
" />
<path d="M32.1635 7.0475
L32.0426 6.9870
" />
<path d="M32.0426 6.9870
L31.9821 6.8661
" />
<path d="M31.9821 6.8661
L31.9821 6.3823
" />
<path d="M31.9821 6.3823
L32.0426 6.2613
" />
<path d="M32.0426 6.2613
L32.1635 6.2009
" />
<path d="M32.1635 6.2009
L32.4054 6.2009
" />
<path d="M32.4054 6.2009
L32.5264 6.2613
" />
<path d="M32.5264 6.2613
L32.5868 6.3823
" />
<path d="M32.5868 6.3823
L32.5868 6.5032
" />
<path d="M32.5868 6.5032
L31.9821 6.6242
" />
<path d="M33.1311 7.0475
L33.1311 6.2009
" />
<path d="M33.1311 6.4428
L33.1916 6.3218
" />
<path d="M33.1916 6.3218
L33.2521 6.2613
" />
<path d="M33.2521 6.2613
L33.3730 6.2009
" />
<path d="M33.3730 6.2009
L33.4940 6.2009
" />
<path d="M33.9173 6.3823
L34.3406 6.3823
" />
<path d="M34.5221 7.0475
L33.9173 7.0475
" />
<path d="M33.9173 7.0475
L33.9173 5.7775
" />
<path d="M33.9173 5.7775
L34.5221 5.7775
" />
<path d="M34.9454 6.2009
L35.2478 7.0475
" />
<path d="M35.2478 7.0475
L35.5502 6.2009
" />
<path d="M36.5178 6.9870
L36.3968 7.0475
" />
<path d="M36.3968 7.0475
L36.1549 7.0475
" />
<path d="M36.1549 7.0475
L36.0340 6.9870
" />
<path d="M36.0340 6.9870
L35.9735 6.8661
" />
<path d="M35.9735 6.8661
L35.9735 6.3823
" />
<path d="M35.9735 6.3823
L36.0340 6.2613
" />
<path d="M36.0340 6.2613
L36.1549 6.2009
" />
<path d="M36.1549 6.2009
L36.3968 6.2009
" />
<path d="M36.3968 6.2009
L36.5178 6.2613
" />
<path d="M36.5178 6.2613
L36.5783 6.3823
" />
<path d="M36.5783 6.3823
L36.5783 6.5032
" />
<path d="M36.5783 6.5032
L35.9735 6.6242
" />
<path d="M37.1226 6.2009
L37.1226 7.0475
" />
<path d="M37.1226 6.3218
L37.1830 6.2613
" />
<path d="M37.1830 6.2613
L37.3040 6.2009
" />
<path d="M37.3040 6.2009
L37.4854 6.2009
" />
<path d="M37.4854 6.2009
L37.6064 6.2613
" />
<path d="M37.6064 6.2613
L37.6668 6.3823
" />
<path d="M37.6668 6.3823
L37.6668 7.0475
" />
<path d="M37.9692 7.1685
L38.9368 7.1685
" />
<path d="M39.8440 7.0475
L39.2392 7.0475
" />
<path d="M39.2392 7.0475
L39.2392 5.7775
" />
<path d="M40.7511 6.9870
L40.6302 7.0475
" />
<path d="M40.6302 7.0475
L40.3883 7.0475
" />
<path d="M40.3883 7.0475
L40.2673 6.9870
" />
<path d="M40.2673 6.9870
L40.2068 6.8661
" />
<path d="M40.2068 6.8661
L40.2068 6.3823
" />
<path d="M40.2068 6.3823
L40.2673 6.2613
" />
<path d="M40.2673 6.2613
L40.3883 6.2009
" />
<path d="M40.3883 6.2009
L40.6302 6.2009
" />
<path d="M40.6302 6.2009
L40.7511 6.2613
" />
<path d="M40.7511 6.2613
L40.8116 6.3823
" />
<path d="M40.8116 6.3823
L40.8116 6.5032
" />
<path d="M40.8116 6.5032
L40.2068 6.6242
" />
<path d="M41.9002 7.0475
L41.9002 6.3823
" />
<path d="M41.9002 6.3823
L41.8397 6.2613
" />
<path d="M41.8397 6.2613
L41.7187 6.2009
" />
<path d="M41.7187 6.2009
L41.4768 6.2009
" />
<path d="M41.4768 6.2009
L41.3559 6.2613
" />
<path d="M41.9002 6.9870
L41.7792 7.0475
" />
<path d="M41.7792 7.0475
L41.4768 7.0475
" />
<path d="M41.4768 7.0475
L41.3559 6.9870
" />
<path d="M41.3559 6.9870
L41.2954 6.8661
" />
<path d="M41.2954 6.8661
L41.2954 6.7451
" />
<path d="M41.2954 6.7451
L41.3559 6.6242
" />
<path d="M41.3559 6.6242
L41.4768 6.5637
" />
<path d="M41.4768 6.5637
L41.7792 6.5637
" />
<path d="M41.7792 6.5637
L41.9002 6.5032
" />
<path d="M43.0492 7.0475
L43.0492 5.7775
" />
<path d="M43.0492 6.9870
L42.9283 7.0475
" />
<path d="M42.9283 7.0475
L42.6864 7.0475
" />
<path d="M42.6864 7.0475
L42.5654 6.9870
" />
<path d="M42.5654 6.9870
L42.5049 6.9266
" />
<path d="M42.5049 6.9266
L42.4445 6.8056
" />
<path d="M42.4445 6.8056
L42.4445 6.4428
" />
<path d="M42.4445 6.4428
L42.5049 6.3218
" />
<path d="M42.5049 6.3218
L42.5654 6.2613
" />
<path d="M42.5654 6.2613
L42.6864 6.2009
" />
<path d="M42.6864 6.2009
L42.9283 6.2009
" />
<path d="M42.9283 6.2009
L43.0492 6.2613
" />
<path d="M44.3192 7.0475
L43.5935 7.0475
" />
<path d="M43.9564 7.0475
L43.9564 5.7775
" />
<path d="M43.9564 5.7775
L43.8354 5.9589
" />
<path d="M43.8354 5.9589
L43.7145 6.0799
" />
<path d="M43.7145 6.0799
L43.5935 6.1404
" />
<path d="M44.8635 6.9266
L44.9240 6.9870
" />
<path d="M44.9240 6.9870
L44.8635 7.0475
" />
<path d="M44.8635 7.0475
L44.8030 6.9870
" />
<path d="M44.8030 6.9870
L44.8635 6.9266
" />
<path d="M44.8635 6.9266
L44.8635 7.0475
" />
<path d="M45.6497 6.3218
L45.5287 6.2613
" />
<path d="M45.5287 6.2613
L45.4683 6.2009
" />
<path d="M45.4683 6.2009
L45.4078 6.0799
" />
<path d="M45.4078 6.0799
L45.4078 6.0194
" />
<path d="M45.4078 6.0194
L45.4683 5.8985
" />
<path d="M45.4683 5.8985
L45.5287 5.8380
" />
<path d="M45.5287 5.8380
L45.6497 5.7775
" />
<path d="M45.6497 5.7775
L45.8916 5.7775
" />
<path d="M45.8916 5.7775
L46.0126 5.8380
" />
<path d="M46.0126 5.8380
L46.0730 5.8985
" />
<path d="M46.0730 5.8985
L46.1335 6.0194
" />
<path d="M46.1335 6.0194
L46.1335 6.0799
" />
<path d="M46.1335 6.0799
L46.0730 6.2009
" />
<path d="M46.0730 6.2009
L46.0126 6.2613
" />
<path d="M46.0126 6.2613
L45.8916 6.3218
" />
<path d="M45.8916 6.3218
L45.6497 6.3218
" />
<path d="M45.6497 6.3218
L45.5287 6.3823
" />
<path d="M45.5287 6.3823
L45.4683 6.4428
" />
<path d="M45.4683 6.4428
L45.4078 6.5637
" />
<path d="M45.4078 6.5637
L45.4078 6.8056
" />
<path d="M45.4078 6.8056
L45.4683 6.9266
" />
<path d="M45.4683 6.9266
L45.5287 6.9870
" />
<path d="M45.5287 6.9870
L45.6497 7.0475
" />
<path d="M45.6497 7.0475
L45.8916 7.0475
" />
<path d="M45.8916 7.0475
L46.0126 6.9870
" />
<path d="M46.0126 6.9870
L46.0730 6.9266
" />
<path d="M46.0730 6.9266
L46.1335 6.8056
" />
<path d="M46.1335 6.8056
L46.1335 6.5637
" />
<path d="M46.1335 6.5637
L46.0730 6.4428
" />
<path d="M46.0730 6.4428
L46.0126 6.3823
" />
<path d="M46.0126 6.3823
L45.8916 6.3218
" />
<path d="M47.2221 5.7775
L46.9802 5.7775
" />
<path d="M46.9802 5.7775
L46.8592 5.8380
" />
<path d="M46.8592 5.8380
L46.7987 5.8985
" />
<path d="M46.7987 5.8985
L46.6778 6.0799
" />
<path d="M46.6778 6.0799
L46.6173 6.3218
" />
<path d="M46.6173 6.3218
L46.6173 6.8056
" />
<path d="M46.6173 6.8056
L46.6778 6.9266
" />
<path d="M46.6778 6.9266
L46.7383 6.9870
" />
<path d="M46.7383 6.9870
L46.8592 7.0475
" />
<path d="M46.8592 7.0475
L47.1011 7.0475
" />
<path d="M47.1011 7.0475
L47.2221 6.9870
" />
<path d="M47.2221 6.9870
L47.2826 6.9266
" />
<path d="M47.2826 6.9266
L47.3430 6.8056
" />
<path d="M47.3430 6.8056
L47.3430 6.5032
" />
<path d="M47.3430 6.5032
L47.2826 6.3823
" />
<path d="M47.2826 6.3823
L47.2221 6.3218
" />
<path d="M47.2221 6.3218
L47.1011 6.2613
" />
<path d="M47.1011 6.2613
L46.8592 6.2613
" />
<path d="M46.8592 6.2613
L46.7383 6.3218
" />
<path d="M46.7383 6.3218
L46.6778 6.3823
" />
<path d="M46.6778 6.3823
L46.6173 6.5032
" />
<path d="M47.8873 7.0475
L47.8873 6.2009
" />
<path d="M47.8873 6.3218
L47.9478 6.2613
" />
<path d="M47.9478 6.2613
L48.0687 6.2009
" />
<path d="M48.0687 6.2009
L48.2502 6.2009
" />
<path d="M48.2502 6.2009
L48.3711 6.2613
" />
<path d="M48.3711 6.2613
L48.4316 6.3823
" />
<path d="M48.4316 6.3823
L48.4316 7.0475
" />
<path d="M48.4316 6.3823
L48.4921 6.2613
" />
<path d="M48.4921 6.2613
L48.6130 6.2009
" />
<path d="M48.6130 6.2009
L48.7945 6.2009
" />
<path d="M48.7945 6.2009
L48.9154 6.2613
" />
<path d="M48.9154 6.2613
L48.9759 6.3823
" />
<path d="M48.9759 6.3823
L48.9759 7.0475
" />
<path d="M49.5806 7.0475
L49.5806 6.2009
" />
<path d="M49.5806 6.3218
L49.6411 6.2613
" />
<path d="M49.6411 6.2613
L49.7621 6.2009
" />
<path d="M49.7621 6.2009
L49.9435 6.2009
" />
<path d="M49.9435 6.2009
L50.0645 6.2613
" />
<path d="M50.0645 6.2613
L50.1249 6.3823
" />
<path d="M50.1249 6.3823
L50.1249 7.0475
" />
<path d="M50.1249 6.3823
L50.1854 6.2613
" />
<path d="M50.1854 6.2613
L50.3064 6.2009
" />
<path d="M50.3064 6.2009
L50.4878 6.2009
" />
<path d="M50.4878 6.2009
L50.6087 6.2613
" />
<path d="M50.6087 6.2613
L50.6692 6.3823
" />
<path d="M50.6692 6.3823
L50.6692 7.0475
" />
<path d="M50.9716 7.1685
L51.9392 7.1685
" />
<path d="M52.0602 5.7775
L52.4835 7.0475
" />
<path d="M52.4835 7.0475
L52.9068 5.7775
" />
<path d="M53.8140 6.9870
L53.6930 7.0475
" />
<path d="M53.6930 7.0475
L53.4511 7.0475
" />
<path d="M53.4511 7.0475
L53.3302 6.9870
" />
<path d="M53.3302 6.9870
L53.2697 6.8661
" />
<path d="M53.2697 6.8661
L53.2697 6.3823
" />
<path d="M53.2697 6.3823
L53.3302 6.2613
" />
<path d="M53.3302 6.2613
L53.4511 6.2009
" />
<path d="M53.4511 6.2009
L53.6930 6.2009
" />
<path d="M53.6930 6.2009
L53.8140 6.2613
" />
<path d="M53.8140 6.2613
L53.8745 6.3823
" />
<path d="M53.8745 6.3823
L53.8745 6.5032
" />
<path d="M53.8745 6.5032
L53.2697 6.6242
" />
<path d="M54.4187 7.0475
L54.4187 6.2009
" />
<path d="M54.4187 6.4428
L54.4792 6.3218
" />
<path d="M54.4792 6.3218
L54.5397 6.2613
" />
<path d="M54.5397 6.2613
L54.6606 6.2009
" />
<path d="M54.6606 6.2009
L54.7816 6.2009
" />
<path d="M55.0235 6.2009
L55.5073 6.2009
" />
<path d="M55.2049 5.7775
L55.2049 6.8661
" />
<path d="M55.2049 6.8661
L55.2654 6.9870
" />
<path d="M55.2654 6.9870
L55.3864 7.0475
" />
<path d="M55.3864 7.0475
L55.5073 7.0475
" />
<path d="M55.9306 7.0475
L55.9306 6.2009
" />
<path d="M55.9306 5.7775
L55.8702 5.8380
" />
<path d="M55.8702 5.8380
L55.9306 5.8985
" />
<path d="M55.9306 5.8985
L55.9911 5.8380
" />
<path d="M55.9911 5.8380
L55.9306 5.7775
" />
<path d="M55.9306 5.7775
L55.9306 5.8985
" />
<path d="M57.0797 6.9870
L56.9587 7.0475
" />
<path d="M56.9587 7.0475
L56.7168 7.0475
" />
<path d="M56.7168 7.0475
L56.5959 6.9870
" />
<path d="M56.5959 6.9870
L56.5354 6.9266
" />
<path d="M56.5354 6.9266
L56.4749 6.8056
" />
<path d="M56.4749 6.8056
L56.4749 6.4428
" />
<path d="M56.4749 6.4428
L56.5354 6.3218
" />
<path d="M56.5354 6.3218
L56.5959 6.2613
" />
<path d="M56.5959 6.2613
L56.7168 6.2009
" />
<path d="M56.7168 6.2009
L56.9587 6.2009
" />
<path d="M56.9587 6.2009
L57.0797 6.2613
" />
<path d="M58.1683 7.0475
L58.1683 6.3823
" />
<path d="M58.1683 6.3823
L58.1078 6.2613
" />
<path d="M58.1078 6.2613
L57.9868 6.2009
" />
<path d="M57.9868 6.2009
L57.7449 6.2009
" />
<path d="M57.7449 6.2009
L57.6240 6.2613
" />
<path d="M58.1683 6.9870
L58.0473 7.0475
" />
<path d="M58.0473 7.0475
L57.7449 7.0475
" />
<path d="M57.7449 7.0475
L57.6240 6.9870
" />
<path d="M57.6240 6.9870
L57.5635 6.8661
" />
<path d="M57.5635 6.8661
L57.5635 6.7451
" />
<path d="M57.5635 6.7451
L57.6240 6.6242
" />
<path d="M57.6240 6.6242
L57.7449 6.5637
" />
<path d="M57.7449 6.5637
L58.0473 6.5637
" />
<path d="M58.0473 6.5637
L58.1683 6.5032
" />
<path d="M58.9545 7.0475
L58.8335 6.9870
" />
<path d="M58.8335 6.9870
L58.7730 6.8661
" />
<path d="M58.7730 6.8661
L58.7730 5.7775
" />
</g></g>
<g style="fill:none; 
stroke:#AFAFAF; stroke-width:0.1500; stroke-opacity:1; 
stroke-linecap:round; stroke-linejoin:round;">
<text x="33.0235" y="1.3482"
textLength="4.5357" font-size="1.3333" lengthAdjust="spacingAndGlyphs"
text-anchor="middle" opacity="0">REF**</text>
<g class="stroked-text"><desc>REF**</desc>
<path d="M31.6902 1.3031
L31.3568 0.8269
" />
<path d="M31.1187 1.3031
L31.1187 0.3031
" />
<path d="M31.1187 0.3031
L31.4997 0.3031
" />
<path d="M31.4997 0.3031
L31.5949 0.3507
" />
<path d="M31.5949 0.3507
L31.6426 0.3983
" />
<path d="M31.6426 0.3983
L31.6902 0.4935
" />
<path d="M31.6902 0.4935
L31.6902 0.6364
" />
<path d="M31.6902 0.6364
L31.6426 0.7316
" />
<path d="M31.6426 0.7316
L31.5949 0.7793
" />
<path d="M31.5949 0.7793
L31.4997 0.8269
" />
<path d="M31.4997 0.8269
L31.1187 0.8269
" />
<path d="M32.1187 0.7793
L32.4521 0.7793
" />
<path d="M32.5949 1.3031
L32.1187 1.3031
" />
<path d="M32.1187 1.3031
L32.1187 0.3031
" />
<path d="M32.1187 0.3031
L32.5949 0.3031
" />
<path d="M33.3568 0.7793
L33.0235 0.7793
" />
<path d="M33.0235 1.3031
L33.0235 0.3031
" />
<path d="M33.0235 0.3031
L33.4997 0.3031
" />
<path d="M34.0235 0.3031
L34.0235 0.5412
" />
<path d="M33.7854 0.4459
L34.0235 0.5412
" />
<path d="M34.0235 0.5412
L34.2616 0.4459
" />
<path d="M33.8806 0.7316
L34.0235 0.5412
" />
<path d="M34.0235 0.5412
L34.1664 0.7316
" />
<path d="M34.7854 0.3031
L34.7854 0.5412
" />
<path d="M34.5473 0.4459
L34.7854 0.5412
" />
<path d="M34.7854 0.5412
L35.0235 0.4459
" />
<path d="M34.6426 0.7316
L34.7854 0.5412
" />
<path d="M34.7854 0.5412
L34.9283 0.7316
" />
</g></g>
<g style="fill:none; 
stroke:#AFAFAF; stroke-width:0.1000; stroke-opacity:1; 
stroke-linecap:round; stroke-linejoin:round;">
<path d="M27.8935 1.9682
L27.8935 6.6682
" />
<path d="M27.8935 4.4882
L38.1535 4.4882
" />
<path d="M27.8935 6.6682
L38.1535 6.6682
" />
<path d="M31.1735 1.9682
L31.1735 4.4882
" />
<path d="M31.3235 6.6682
L31.3235 8.5282
" />
<path d="M34.7235 6.6682
L34.7235 8.5282
" />
<path d="M34.8735 1.9682
L34.8735 4.4882
" />
<path d="M38.1535 1.9682
L27.8935 1.9682
" />
<path d="M38.1535 6.6682
L38.1535 1.9682
" />
</g> 
</svg>
