<?xml version="1.0" standalone="no"?>
 <!DOCTYPE svg PUBLIC "-//W3C//DTD SVG 1.1//EN" 
 "http://www.w3.org/Graphics/SVG/1.1/DTD/svg11.dtd"> 
<svg
  xmlns:svg="http://www.w3.org/2000/svg"
  xmlns="http://www.w3.org/2000/svg"
  xmlns:xlink="http://www.w3.org/1999/xlink"
  version="1.1"
  width="47.1424mm" height="25.2476mm" viewBox="0.0000 0.0000 47.1424 25.2476">
<title>SVG Image created as working-brd.svg date 2024/04/03 08:38:18 </title>
  <desc>Image generated by PCBNEW </desc>
<g style="fill:#000000; fill-opacity:1.0000;stroke:#000000; stroke-opacity:1.0000;
stroke-linecap:round; stroke-linejoin:round;"
 transform="translate(0 0) scale(1 1)">
<path style="fill:#C83434; fill-opacity:1.0000; stroke:none;fill-rule:evenodd;"
d="M 20.5759,1.5200
20.5759,0.8700
23.5759,0.8700
23.5759,1.5200
Z" /> 
<path style="fill:#C83434; fill-opacity:1.0000; stroke:none;fill-rule:evenodd;"
d="M 23.5759,2.7900
23.5759,2.1400
26.5759,2.1400
26.5759,2.7900
Z" /> 
<path style="fill:#C83434; fill-opacity:1.0000; stroke:none;fill-rule:evenodd;"
d="M 20.5759,4.0600
20.5759,3.4100
23.5759,3.4100
23.5759,4.0600
Z" /> 
<path style="fill:#C83434; fill-opacity:1.0000; stroke:none;fill-rule:evenodd;"
d="M 23.5759,5.3300
23.5759,4.6800
26.5759,4.6800
26.5759,5.3300
Z" /> 
<path style="fill:#C83434; fill-opacity:1.0000; stroke:none;fill-rule:evenodd;"
d="M 20.5759,6.6000
20.5759,5.9500
23.5759,5.9500
23.5759,6.6000
Z" /> 
<path style="fill:#C83434; fill-opacity:1.0000; stroke:none;fill-rule:evenodd;"
d="M 23.5759,7.8700
23.5759,7.2200
26.5759,7.2200
26.5759,7.8700
Z" /> 
<path style="fill:#C83434; fill-opacity:1.0000; stroke:none;fill-rule:evenodd;"
d="M 20.5759,9.1400
20.5759,8.4900
23.5759,8.4900
23.5759,9.1400
Z" /> 
<path style="fill:#C83434; fill-opacity:1.0000; stroke:none;fill-rule:evenodd;"
d="M 23.5759,10.4100
23.5759,9.7600
26.5759,9.7600
26.5759,10.4100
Z" /> 
<path style="fill:#C83434; fill-opacity:1.0000; stroke:none;fill-rule:evenodd;"
d="M 20.5759,11.6800
20.5759,11.0300
23.5759,11.0300
23.5759,11.6800
Z" /> 
<path style="fill:#C83434; fill-opacity:1.0000; stroke:none;fill-rule:evenodd;"
d="M 23.5759,12.9500
23.5759,12.3000
26.5759,12.3000
26.5759,12.9500
Z" /> 
<path style="fill:#C83434; fill-opacity:1.0000; stroke:none;fill-rule:evenodd;"
d="M 20.5759,14.2200
20.5759,13.5700
23.5759,13.5700
23.5759,14.2200
Z" /> 
<path style="fill:#C83434; fill-opacity:1.0000; stroke:none;fill-rule:evenodd;"
d="M 23.5759,15.4900
23.5759,14.8400
26.5759,14.8400
26.5759,15.4900
Z" /> 
<path style="fill:#C83434; fill-opacity:1.0000; stroke:none;fill-rule:evenodd;"
d="M 20.5759,16.7600
20.5759,16.1100
23.5759,16.1100
23.5759,16.7600
Z" /> 
<path style="fill:#C83434; fill-opacity:1.0000; stroke:none;fill-rule:evenodd;"
d="M 23.5759,18.0300
23.5759,17.3800
26.5759,17.3800
26.5759,18.0300
Z" /> 
<path style="fill:#C83434; fill-opacity:1.0000; stroke:none;fill-rule:evenodd;"
d="M 20.5759,19.3000
20.5759,18.6500
23.5759,18.6500
23.5759,19.3000
Z" /> 
<path style="fill:#C83434; fill-opacity:1.0000; stroke:none;fill-rule:evenodd;"
d="M 23.5759,20.5700
23.5759,19.9200
26.5759,19.9200
26.5759,20.5700
Z" /> 
<path style="fill:#C83434; fill-opacity:1.0000; stroke:none;fill-rule:evenodd;"
d="M 20.5759,21.8400
20.5759,21.1900
23.5759,21.1900
23.5759,21.8400
Z" /> 
<path style="fill:#C83434; fill-opacity:1.0000; stroke:none;fill-rule:evenodd;"
d="M 23.5759,23.1100
23.5759,22.4600
26.5759,22.4600
26.5759,23.1100
Z" /> 
<path style="fill:#C83434; fill-opacity:1.0000; stroke:none;fill-rule:evenodd;"
d="M 20.5759,24.3800
20.5759,23.7300
23.5759,23.7300
23.5759,24.3800
Z" /> 
<path style="fill:#D864FF; fill-opacity:0.4000; stroke:none;fill-rule:evenodd;"
d="M 20.5759,1.5200
20.5759,0.8700
23.5759,0.8700
23.5759,1.5200
Z" /> 
<path style="fill:#D864FF; fill-opacity:0.4000; stroke:none;fill-rule:evenodd;"
d="M 23.5759,2.7900
23.5759,2.1400
26.5759,2.1400
26.5759,2.7900
Z" /> 
<path style="fill:#D864FF; fill-opacity:0.4000; stroke:none;fill-rule:evenodd;"
d="M 20.5759,4.0600
20.5759,3.4100
23.5759,3.4100
23.5759,4.0600
Z" /> 
<path style="fill:#D864FF; fill-opacity:0.4000; stroke:none;fill-rule:evenodd;"
d="M 23.5759,5.3300
23.5759,4.6800
26.5759,4.6800
26.5759,5.3300
Z" /> 
<path style="fill:#D864FF; fill-opacity:0.4000; stroke:none;fill-rule:evenodd;"
d="M 20.5759,6.6000
20.5759,5.9500
23.5759,5.9500
23.5759,6.6000
Z" /> 
<path style="fill:#D864FF; fill-opacity:0.4000; stroke:none;fill-rule:evenodd;"
d="M 23.5759,7.8700
23.5759,7.2200
26.5759,7.2200
26.5759,7.8700
Z" /> 
<path style="fill:#D864FF; fill-opacity:0.4000; stroke:none;fill-rule:evenodd;"
d="M 20.5759,9.1400
20.5759,8.4900
23.5759,8.4900
23.5759,9.1400
Z" /> 
<path style="fill:#D864FF; fill-opacity:0.4000; stroke:none;fill-rule:evenodd;"
d="M 23.5759,10.4100
23.5759,9.7600
26.5759,9.7600
26.5759,10.4100
Z" /> 
<path style="fill:#D864FF; fill-opacity:0.4000; stroke:none;fill-rule:evenodd;"
d="M 20.5759,11.6800
20.5759,11.0300
23.5759,11.0300
23.5759,11.6800
Z" /> 
<path style="fill:#D864FF; fill-opacity:0.4000; stroke:none;fill-rule:evenodd;"
d="M 23.5759,12.9500
23.5759,12.3000
26.5759,12.3000
26.5759,12.9500
Z" /> 
<path style="fill:#D864FF; fill-opacity:0.4000; stroke:none;fill-rule:evenodd;"
d="M 20.5759,14.2200
20.5759,13.5700
23.5759,13.5700
23.5759,14.2200
Z" /> 
<path style="fill:#D864FF; fill-opacity:0.4000; stroke:none;fill-rule:evenodd;"
d="M 23.5759,15.4900
23.5759,14.8400
26.5759,14.8400
26.5759,15.4900
Z" /> 
<path style="fill:#D864FF; fill-opacity:0.4000; stroke:none;fill-rule:evenodd;"
d="M 20.5759,16.7600
20.5759,16.1100
23.5759,16.1100
23.5759,16.7600
Z" /> 
<path style="fill:#D864FF; fill-opacity:0.4000; stroke:none;fill-rule:evenodd;"
d="M 23.5759,18.0300
23.5759,17.3800
26.5759,17.3800
26.5759,18.0300
Z" /> 
<path style="fill:#D864FF; fill-opacity:0.4000; stroke:none;fill-rule:evenodd;"
d="M 20.5759,19.3000
20.5759,18.6500
23.5759,18.6500
23.5759,19.3000
Z" /> 
<path style="fill:#D864FF; fill-opacity:0.4000; stroke:none;fill-rule:evenodd;"
d="M 23.5759,20.5700
23.5759,19.9200
26.5759,19.9200
26.5759,20.5700
Z" /> 
<path style="fill:#D864FF; fill-opacity:0.4000; stroke:none;fill-rule:evenodd;"
d="M 20.5759,21.8400
20.5759,21.1900
23.5759,21.1900
23.5759,21.8400
Z" /> 
<path style="fill:#D864FF; fill-opacity:0.4000; stroke:none;fill-rule:evenodd;"
d="M 23.5759,23.1100
23.5759,22.4600
26.5759,22.4600
26.5759,23.1100
Z" /> 
<path style="fill:#D864FF; fill-opacity:0.4000; stroke:none;fill-rule:evenodd;"
d="M 20.5759,24.3800
20.5759,23.7300
23.5759,23.7300
23.5759,24.3800
Z" /> 
<path style="fill:#B4A09A; fill-opacity:0.9000; stroke:none;fill-rule:evenodd;"
d="M 20.5759,1.5200
20.5759,0.8700
23.5759,0.8700
23.5759,1.5200
Z" /> 
<path style="fill:#B4A09A; fill-opacity:0.9000; stroke:none;fill-rule:evenodd;"
d="M 23.5759,2.7900
23.5759,2.1400
26.5759,2.1400
26.5759,2.7900
Z" /> 
<path style="fill:#B4A09A; fill-opacity:0.9000; stroke:none;fill-rule:evenodd;"
d="M 20.5759,4.0600
20.5759,3.4100
23.5759,3.4100
23.5759,4.0600
Z" /> 
<path style="fill:#B4A09A; fill-opacity:0.9000; stroke:none;fill-rule:evenodd;"
d="M 23.5759,5.3300
23.5759,4.6800
26.5759,4.6800
26.5759,5.3300
Z" /> 
<path style="fill:#B4A09A; fill-opacity:0.9000; stroke:none;fill-rule:evenodd;"
d="M 20.5759,6.6000
20.5759,5.9500
23.5759,5.9500
23.5759,6.6000
Z" /> 
<path style="fill:#B4A09A; fill-opacity:0.9000; stroke:none;fill-rule:evenodd;"
d="M 23.5759,7.8700
23.5759,7.2200
26.5759,7.2200
26.5759,7.8700
Z" /> 
<path style="fill:#B4A09A; fill-opacity:0.9000; stroke:none;fill-rule:evenodd;"
d="M 20.5759,9.1400
20.5759,8.4900
23.5759,8.4900
23.5759,9.1400
Z" /> 
<path style="fill:#B4A09A; fill-opacity:0.9000; stroke:none;fill-rule:evenodd;"
d="M 23.5759,10.4100
23.5759,9.7600
26.5759,9.7600
26.5759,10.4100
Z" /> 
<path style="fill:#B4A09A; fill-opacity:0.9000; stroke:none;fill-rule:evenodd;"
d="M 20.5759,11.6800
20.5759,11.0300
23.5759,11.0300
23.5759,11.6800
Z" /> 
<path style="fill:#B4A09A; fill-opacity:0.9000; stroke:none;fill-rule:evenodd;"
d="M 23.5759,12.9500
23.5759,12.3000
26.5759,12.3000
26.5759,12.9500
Z" /> 
<path style="fill:#B4A09A; fill-opacity:0.9000; stroke:none;fill-rule:evenodd;"
d="M 20.5759,14.2200
20.5759,13.5700
23.5759,13.5700
23.5759,14.2200
Z" /> 
<path style="fill:#B4A09A; fill-opacity:0.9000; stroke:none;fill-rule:evenodd;"
d="M 23.5759,15.4900
23.5759,14.8400
26.5759,14.8400
26.5759,15.4900
Z" /> 
<path style="fill:#B4A09A; fill-opacity:0.9000; stroke:none;fill-rule:evenodd;"
d="M 20.5759,16.7600
20.5759,16.1100
23.5759,16.1100
23.5759,16.7600
Z" /> 
<path style="fill:#B4A09A; fill-opacity:0.9000; stroke:none;fill-rule:evenodd;"
d="M 23.5759,18.0300
23.5759,17.3800
26.5759,17.3800
26.5759,18.0300
Z" /> 
<path style="fill:#B4A09A; fill-opacity:0.9000; stroke:none;fill-rule:evenodd;"
d="M 20.5759,19.3000
20.5759,18.6500
23.5759,18.6500
23.5759,19.3000
Z" /> 
<path style="fill:#B4A09A; fill-opacity:0.9000; stroke:none;fill-rule:evenodd;"
d="M 23.5759,20.5700
23.5759,19.9200
26.5759,19.9200
26.5759,20.5700
Z" /> 
<path style="fill:#B4A09A; fill-opacity:0.9000; stroke:none;fill-rule:evenodd;"
d="M 20.5759,21.8400
20.5759,21.1900
23.5759,21.1900
23.5759,21.8400
Z" /> 
<path style="fill:#B4A09A; fill-opacity:0.9000; stroke:none;fill-rule:evenodd;"
d="M 23.5759,23.1100
23.5759,22.4600
26.5759,22.4600
26.5759,23.1100
Z" /> 
<path style="fill:#B4A09A; fill-opacity:0.9000; stroke:none;fill-rule:evenodd;"
d="M 20.5759,24.3800
20.5759,23.7300
23.5759,23.7300
23.5759,24.3800
Z" /> 
</g>
<g style="fill:none; 
stroke:#F2EDA1; stroke-width:0.1588; stroke-opacity:1; 
stroke-linecap:round; stroke-linejoin:round;">
<text x="23.5759" y="13.2600"
textLength="5.6651" font-size="1.6933" lengthAdjust="spacingAndGlyphs"
text-anchor="middle" opacity="0">REF**</text>
<g class="stroked-text"><desc>REF**</desc>
<path d="M21.8826 13.2043
L21.4592 12.5995
" />
<path d="M21.1568 13.2043
L21.1568 11.9343
" />
<path d="M21.1568 11.9343
L21.6406 11.9343
" />
<path d="M21.6406 11.9343
L21.7616 11.9947
" />
<path d="M21.7616 11.9947
L21.8221 12.0552
" />
<path d="M21.8221 12.0552
L21.8826 12.1762
" />
<path d="M21.8826 12.1762
L21.8826 12.3576
" />
<path d="M21.8826 12.3576
L21.8221 12.4786
" />
<path d="M21.8221 12.4786
L21.7616 12.5390
" />
<path d="M21.7616 12.5390
L21.6406 12.5995
" />
<path d="M21.6406 12.5995
L21.1568 12.5995
" />
<path d="M22.4268 12.5390
L22.8502 12.5390
" />
<path d="M23.0316 13.2043
L22.4268 13.2043
" />
<path d="M22.4268 13.2043
L22.4268 11.9343
" />
<path d="M22.4268 11.9343
L23.0316 11.9343
" />
<path d="M23.9992 12.5390
L23.5759 12.5390
" />
<path d="M23.5759 13.2043
L23.5759 11.9343
" />
<path d="M23.5759 11.9343
L24.1806 11.9343
" />
<path d="M24.8459 11.9343
L24.8459 12.2367
" />
<path d="M24.5435 12.1157
L24.8459 12.2367
" />
<path d="M24.8459 12.2367
L25.1483 12.1157
" />
<path d="M24.6645 12.4786
L24.8459 12.2367
" />
<path d="M24.8459 12.2367
L25.0273 12.4786
" />
<path d="M25.8135 11.9343
L25.8135 12.2367
" />
<path d="M25.5111 12.1157
L25.8135 12.2367
" />
<path d="M25.8135 12.2367
L26.1159 12.1157
" />
<path d="M25.6321 12.4786
L25.8135 12.2367
" />
<path d="M25.8135 12.2367
L25.9949 12.4786
" />
</g></g>
<g style="fill:none; 
stroke:#F2EDA1; stroke-width:0.1200; stroke-opacity:1; 
stroke-linecap:round; stroke-linejoin:round;">
<path d="M22.4659 0.5000
L22.4659 0.6100
" />
<path d="M22.4659 0.5000
L24.6859 0.5000
" />
<path d="M22.4659 0.6100
L20.6359 0.6100
" />
<path d="M22.4659 1.7800
L22.4659 3.1500
" />
<path d="M22.4659 4.3200
L22.4659 5.6900
" />
<path d="M22.4659 6.8600
L22.4659 8.2300
" />
<path d="M22.4659 9.4000
L22.4659 10.7700
" />
<path d="M22.4659 11.9400
L22.4659 13.3100
" />
<path d="M22.4659 14.4800
L22.4659 15.8500
" />
<path d="M22.4659 17.0200
L22.4659 18.3900
" />
<path d="M22.4659 19.5600
L22.4659 20.9300
" />
<path d="M22.4659 22.1000
L22.4659 23.4700
" />
<path d="M22.4659 24.7500
L24.6859 24.7500
" />
<path d="M24.6859 0.5100
L24.6859 1.8800
" />
<path d="M24.6859 3.0500
L24.6859 4.4200
" />
<path d="M24.6859 5.5900
L24.6859 6.9600
" />
<path d="M24.6859 8.1300
L24.6859 9.5000
" />
<path d="M24.6859 10.6700
L24.6859 12.0400
" />
<path d="M24.6859 13.2100
L24.6859 14.5800
" />
<path d="M24.6859 15.7500
L24.6859 17.1200
" />
<path d="M24.6859 18.2900
L24.6859 19.6600
" />
<path d="M24.6859 20.8300
L24.6859 22.2000
" />
<path d="M24.6859 23.3700
L24.6859 24.7400
" />
<path d="M24.6859 24.6400
L24.6859 24.7500
" />
</g>
<g style="fill:none; 
stroke:#FF26E2; stroke-width:0.0500; stroke-opacity:1; 
stroke-linecap:round; stroke-linejoin:round;">
<path d="M20.0759 0.0250
L20.0759 25.2250
" />
<path d="M20.0759 25.2250
L27.0759 25.2250
" />
<path d="M27.0759 0.0250
L20.0759 0.0250
" />
<path d="M27.0759 25.2250
L27.0759 0.0250
" />
</g>
<g style="fill:none; 
stroke:#AFAFAF; stroke-width:0.1588; stroke-opacity:1; 
stroke-linecap:round; stroke-linejoin:round;">
<text x="23.5759" y="13.2600"
textLength="47.1518" font-size="1.6933" lengthAdjust="spacingAndGlyphs"
text-anchor="middle" opacity="0">PinHeader_1x19_P1.27mm_Vertical_SMD_Pin1Left</text>
<g class="stroked-text"><desc>PinHeader_1x19_P1.27mm_Vertical_SMD_Pin1Left</desc>
<path d="M0.4135 13.2043
L0.4135 11.9343
" />
<path d="M0.4135 11.9343
L0.8973 11.9343
" />
<path d="M0.8973 11.9343
L1.0183 11.9947
" />
<path d="M1.0183 11.9947
L1.0787 12.0552
" />
<path d="M1.0787 12.0552
L1.1392 12.1762
" />
<path d="M1.1392 12.1762
L1.1392 12.3576
" />
<path d="M1.1392 12.3576
L1.0787 12.4786
" />
<path d="M1.0787 12.4786
L1.0183 12.5390
" />
<path d="M1.0183 12.5390
L0.8973 12.5995
" />
<path d="M0.8973 12.5995
L0.4135 12.5995
" />
<path d="M1.6835 13.2043
L1.6835 12.3576
" />
<path d="M1.6835 11.9343
L1.6230 11.9947
" />
<path d="M1.6230 11.9947
L1.6835 12.0552
" />
<path d="M1.6835 12.0552
L1.7440 11.9947
" />
<path d="M1.7440 11.9947
L1.6835 11.9343
" />
<path d="M1.6835 11.9343
L1.6835 12.0552
" />
<path d="M2.2883 12.3576
L2.2883 13.2043
" />
<path d="M2.2883 12.4786
L2.3487 12.4181
" />
<path d="M2.3487 12.4181
L2.4697 12.3576
" />
<path d="M2.4697 12.3576
L2.6511 12.3576
" />
<path d="M2.6511 12.3576
L2.7721 12.4181
" />
<path d="M2.7721 12.4181
L2.8326 12.5390
" />
<path d="M2.8326 12.5390
L2.8326 13.2043
" />
<path d="M3.4373 13.2043
L3.4373 11.9343
" />
<path d="M3.4373 12.5390
L4.1630 12.5390
" />
<path d="M4.1630 13.2043
L4.1630 11.9343
" />
<path d="M5.2516 13.1438
L5.1307 13.2043
" />
<path d="M5.1307 13.2043
L4.8887 13.2043
" />
<path d="M4.8887 13.2043
L4.7678 13.1438
" />
<path d="M4.7678 13.1438
L4.7073 13.0228
" />
<path d="M4.7073 13.0228
L4.7073 12.5390
" />
<path d="M4.7073 12.5390
L4.7678 12.4181
" />
<path d="M4.7678 12.4181
L4.8887 12.3576
" />
<path d="M4.8887 12.3576
L5.1307 12.3576
" />
<path d="M5.1307 12.3576
L5.2516 12.4181
" />
<path d="M5.2516 12.4181
L5.3121 12.5390
" />
<path d="M5.3121 12.5390
L5.3121 12.6600
" />
<path d="M5.3121 12.6600
L4.7073 12.7809
" />
<path d="M6.4006 13.2043
L6.4006 12.5390
" />
<path d="M6.4006 12.5390
L6.3402 12.4181
" />
<path d="M6.3402 12.4181
L6.2192 12.3576
" />
<path d="M6.2192 12.3576
L5.9773 12.3576
" />
<path d="M5.9773 12.3576
L5.8564 12.4181
" />
<path d="M6.4006 13.1438
L6.2797 13.2043
" />
<path d="M6.2797 13.2043
L5.9773 13.2043
" />
<path d="M5.9773 13.2043
L5.8564 13.1438
" />
<path d="M5.8564 13.1438
L5.7959 13.0228
" />
<path d="M5.7959 13.0228
L5.7959 12.9019
" />
<path d="M5.7959 12.9019
L5.8564 12.7809
" />
<path d="M5.8564 12.7809
L5.9773 12.7205
" />
<path d="M5.9773 12.7205
L6.2797 12.7205
" />
<path d="M6.2797 12.7205
L6.4006 12.6600
" />
<path d="M7.5497 13.2043
L7.5497 11.9343
" />
<path d="M7.5497 13.1438
L7.4287 13.2043
" />
<path d="M7.4287 13.2043
L7.1868 13.2043
" />
<path d="M7.1868 13.2043
L7.0659 13.1438
" />
<path d="M7.0659 13.1438
L7.0054 13.0833
" />
<path d="M7.0054 13.0833
L6.9449 12.9624
" />
<path d="M6.9449 12.9624
L6.9449 12.5995
" />
<path d="M6.9449 12.5995
L7.0054 12.4786
" />
<path d="M7.0054 12.4786
L7.0659 12.4181
" />
<path d="M7.0659 12.4181
L7.1868 12.3576
" />
<path d="M7.1868 12.3576
L7.4287 12.3576
" />
<path d="M7.4287 12.3576
L7.5497 12.4181
" />
<path d="M8.6383 13.1438
L8.5173 13.2043
" />
<path d="M8.5173 13.2043
L8.2754 13.2043
" />
<path d="M8.2754 13.2043
L8.1545 13.1438
" />
<path d="M8.1545 13.1438
L8.0940 13.0228
" />
<path d="M8.0940 13.0228
L8.0940 12.5390
" />
<path d="M8.0940 12.5390
L8.1545 12.4181
" />
<path d="M8.1545 12.4181
L8.2754 12.3576
" />
<path d="M8.2754 12.3576
L8.5173 12.3576
" />
<path d="M8.5173 12.3576
L8.6383 12.4181
" />
<path d="M8.6383 12.4181
L8.6987 12.5390
" />
<path d="M8.6987 12.5390
L8.6987 12.6600
" />
<path d="M8.6987 12.6600
L8.0940 12.7809
" />
<path d="M9.2430 13.2043
L9.2430 12.3576
" />
<path d="M9.2430 12.5995
L9.3035 12.4786
" />
<path d="M9.3035 12.4786
L9.3640 12.4181
" />
<path d="M9.3640 12.4181
L9.4849 12.3576
" />
<path d="M9.4849 12.3576
L9.6059 12.3576
" />
<path d="M9.7268 13.3252
L10.6945 13.3252
" />
<path d="M11.6621 13.2043
L10.9364 13.2043
" />
<path d="M11.2992 13.2043
L11.2992 11.9343
" />
<path d="M11.2992 11.9343
L11.1783 12.1157
" />
<path d="M11.1783 12.1157
L11.0573 12.2367
" />
<path d="M11.0573 12.2367
L10.9364 12.2971
" />
<path d="M12.0854 13.2043
L12.7506 12.3576
" />
<path d="M12.0854 12.3576
L12.7506 13.2043
" />
<path d="M13.8997 13.2043
L13.1740 13.2043
" />
<path d="M13.5368 13.2043
L13.5368 11.9343
" />
<path d="M13.5368 11.9343
L13.4159 12.1157
" />
<path d="M13.4159 12.1157
L13.2949 12.2367
" />
<path d="M13.2949 12.2367
L13.1740 12.2971
" />
<path d="M14.5045 13.2043
L14.7464 13.2043
" />
<path d="M14.7464 13.2043
L14.8673 13.1438
" />
<path d="M14.8673 13.1438
L14.9278 13.0833
" />
<path d="M14.9278 13.0833
L15.0487 12.9019
" />
<path d="M15.0487 12.9019
L15.1092 12.6600
" />
<path d="M15.1092 12.6600
L15.1092 12.1762
" />
<path d="M15.1092 12.1762
L15.0487 12.0552
" />
<path d="M15.0487 12.0552
L14.9883 11.9947
" />
<path d="M14.9883 11.9947
L14.8673 11.9343
" />
<path d="M14.8673 11.9343
L14.6254 11.9343
" />
<path d="M14.6254 11.9343
L14.5045 11.9947
" />
<path d="M14.5045 11.9947
L14.4440 12.0552
" />
<path d="M14.4440 12.0552
L14.3835 12.1762
" />
<path d="M14.3835 12.1762
L14.3835 12.4786
" />
<path d="M14.3835 12.4786
L14.4440 12.5995
" />
<path d="M14.4440 12.5995
L14.5045 12.6600
" />
<path d="M14.5045 12.6600
L14.6254 12.7205
" />
<path d="M14.6254 12.7205
L14.8673 12.7205
" />
<path d="M14.8673 12.7205
L14.9883 12.6600
" />
<path d="M14.9883 12.6600
L15.0487 12.5995
" />
<path d="M15.0487 12.5995
L15.1092 12.4786
" />
<path d="M15.3511 13.3252
L16.3187 13.3252
" />
<path d="M16.6211 13.2043
L16.6211 11.9343
" />
<path d="M16.6211 11.9343
L17.1049 11.9343
" />
<path d="M17.1049 11.9343
L17.2259 11.9947
" />
<path d="M17.2259 11.9947
L17.2864 12.0552
" />
<path d="M17.2864 12.0552
L17.3468 12.1762
" />
<path d="M17.3468 12.1762
L17.3468 12.3576
" />
<path d="M17.3468 12.3576
L17.2864 12.4786
" />
<path d="M17.2864 12.4786
L17.2259 12.5390
" />
<path d="M17.2259 12.5390
L17.1049 12.5995
" />
<path d="M17.1049 12.5995
L16.6211 12.5995
" />
<path d="M18.5564 13.2043
L17.8306 13.2043
" />
<path d="M18.1935 13.2043
L18.1935 11.9343
" />
<path d="M18.1935 11.9343
L18.0726 12.1157
" />
<path d="M18.0726 12.1157
L17.9516 12.2367
" />
<path d="M17.9516 12.2367
L17.8306 12.2971
" />
<path d="M19.1006 13.0833
L19.1611 13.1438
" />
<path d="M19.1611 13.1438
L19.1006 13.2043
" />
<path d="M19.1006 13.2043
L19.0402 13.1438
" />
<path d="M19.0402 13.1438
L19.1006 13.0833
" />
<path d="M19.1006 13.0833
L19.1006 13.2043
" />
<path d="M19.6449 12.0552
L19.7054 11.9947
" />
<path d="M19.7054 11.9947
L19.8264 11.9343
" />
<path d="M19.8264 11.9343
L20.1287 11.9343
" />
<path d="M20.1287 11.9343
L20.2497 11.9947
" />
<path d="M20.2497 11.9947
L20.3102 12.0552
" />
<path d="M20.3102 12.0552
L20.3706 12.1762
" />
<path d="M20.3706 12.1762
L20.3706 12.2971
" />
<path d="M20.3706 12.2971
L20.3102 12.4786
" />
<path d="M20.3102 12.4786
L19.5845 13.2043
" />
<path d="M19.5845 13.2043
L20.3706 13.2043
" />
<path d="M20.7940 11.9343
L21.6406 11.9343
" />
<path d="M21.6406 11.9343
L21.0964 13.2043
" />
<path d="M22.1245 13.2043
L22.1245 12.3576
" />
<path d="M22.1245 12.4786
L22.1849 12.4181
" />
<path d="M22.1849 12.4181
L22.3059 12.3576
" />
<path d="M22.3059 12.3576
L22.4873 12.3576
" />
<path d="M22.4873 12.3576
L22.6083 12.4181
" />
<path d="M22.6083 12.4181
L22.6687 12.5390
" />
<path d="M22.6687 12.5390
L22.6687 13.2043
" />
<path d="M22.6687 12.5390
L22.7292 12.4181
" />
<path d="M22.7292 12.4181
L22.8502 12.3576
" />
<path d="M22.8502 12.3576
L23.0316 12.3576
" />
<path d="M23.0316 12.3576
L23.1526 12.4181
" />
<path d="M23.1526 12.4181
L23.2130 12.5390
" />
<path d="M23.2130 12.5390
L23.2130 13.2043
" />
<path d="M23.8178 13.2043
L23.8178 12.3576
" />
<path d="M23.8178 12.4786
L23.8783 12.4181
" />
<path d="M23.8783 12.4181
L23.9992 12.3576
" />
<path d="M23.9992 12.3576
L24.1806 12.3576
" />
<path d="M24.1806 12.3576
L24.3016 12.4181
" />
<path d="M24.3016 12.4181
L24.3621 12.5390
" />
<path d="M24.3621 12.5390
L24.3621 13.2043
" />
<path d="M24.3621 12.5390
L24.4226 12.4181
" />
<path d="M24.4226 12.4181
L24.5435 12.3576
" />
<path d="M24.5435 12.3576
L24.7249 12.3576
" />
<path d="M24.7249 12.3576
L24.8459 12.4181
" />
<path d="M24.8459 12.4181
L24.9064 12.5390
" />
<path d="M24.9064 12.5390
L24.9064 13.2043
" />
<path d="M25.2087 13.3252
L26.1764 13.3252
" />
<path d="M26.2973 11.9343
L26.7206 13.2043
" />
<path d="M26.7206 13.2043
L27.1440 11.9343
" />
<path d="M28.0511 13.1438
L27.9302 13.2043
" />
<path d="M27.9302 13.2043
L27.6883 13.2043
" />
<path d="M27.6883 13.2043
L27.5673 13.1438
" />
<path d="M27.5673 13.1438
L27.5068 13.0228
" />
<path d="M27.5068 13.0228
L27.5068 12.5390
" />
<path d="M27.5068 12.5390
L27.5673 12.4181
" />
<path d="M27.5673 12.4181
L27.6883 12.3576
" />
<path d="M27.6883 12.3576
L27.9302 12.3576
" />
<path d="M27.9302 12.3576
L28.0511 12.4181
" />
<path d="M28.0511 12.4181
L28.1116 12.5390
" />
<path d="M28.1116 12.5390
L28.1116 12.6600
" />
<path d="M28.1116 12.6600
L27.5068 12.7809
" />
<path d="M28.6559 13.2043
L28.6559 12.3576
" />
<path d="M28.6559 12.5995
L28.7164 12.4786
" />
<path d="M28.7164 12.4786
L28.7768 12.4181
" />
<path d="M28.7768 12.4181
L28.8978 12.3576
" />
<path d="M28.8978 12.3576
L29.0187 12.3576
" />
<path d="M29.2606 12.3576
L29.7445 12.3576
" />
<path d="M29.4421 11.9343
L29.4421 13.0228
" />
<path d="M29.4421 13.0228
L29.5026 13.1438
" />
<path d="M29.5026 13.1438
L29.6235 13.2043
" />
<path d="M29.6235 13.2043
L29.7445 13.2043
" />
<path d="M30.1678 13.2043
L30.1678 12.3576
" />
<path d="M30.1678 11.9343
L30.1073 11.9947
" />
<path d="M30.1073 11.9947
L30.1678 12.0552
" />
<path d="M30.1678 12.0552
L30.2283 11.9947
" />
<path d="M30.2283 11.9947
L30.1678 11.9343
" />
<path d="M30.1678 11.9343
L30.1678 12.0552
" />
<path d="M31.3168 13.1438
L31.1959 13.2043
" />
<path d="M31.1959 13.2043
L30.9540 13.2043
" />
<path d="M30.9540 13.2043
L30.8330 13.1438
" />
<path d="M30.8330 13.1438
L30.7726 13.0833
" />
<path d="M30.7726 13.0833
L30.7121 12.9624
" />
<path d="M30.7121 12.9624
L30.7121 12.5995
" />
<path d="M30.7121 12.5995
L30.7726 12.4786
" />
<path d="M30.7726 12.4786
L30.8330 12.4181
" />
<path d="M30.8330 12.4181
L30.9540 12.3576
" />
<path d="M30.9540 12.3576
L31.1959 12.3576
" />
<path d="M31.1959 12.3576
L31.3168 12.4181
" />
<path d="M32.4054 13.2043
L32.4054 12.5390
" />
<path d="M32.4054 12.5390
L32.3449 12.4181
" />
<path d="M32.3449 12.4181
L32.2240 12.3576
" />
<path d="M32.2240 12.3576
L31.9821 12.3576
" />
<path d="M31.9821 12.3576
L31.8611 12.4181
" />
<path d="M32.4054 13.1438
L32.2845 13.2043
" />
<path d="M32.2845 13.2043
L31.9821 13.2043
" />
<path d="M31.9821 13.2043
L31.8611 13.1438
" />
<path d="M31.8611 13.1438
L31.8006 13.0228
" />
<path d="M31.8006 13.0228
L31.8006 12.9019
" />
<path d="M31.8006 12.9019
L31.8611 12.7809
" />
<path d="M31.8611 12.7809
L31.9821 12.7205
" />
<path d="M31.9821 12.7205
L32.2845 12.7205
" />
<path d="M32.2845 12.7205
L32.4054 12.6600
" />
<path d="M33.1916 13.2043
L33.0706 13.1438
" />
<path d="M33.0706 13.1438
L33.0102 13.0228
" />
<path d="M33.0102 13.0228
L33.0102 11.9343
" />
<path d="M33.3730 13.3252
L34.3406 13.3252
" />
<path d="M34.5826 13.1438
L34.7640 13.2043
" />
<path d="M34.7640 13.2043
L35.0664 13.2043
" />
<path d="M35.0664 13.2043
L35.1873 13.1438
" />
<path d="M35.1873 13.1438
L35.2478 13.0833
" />
<path d="M35.2478 13.0833
L35.3083 12.9624
" />
<path d="M35.3083 12.9624
L35.3083 12.8414
" />
<path d="M35.3083 12.8414
L35.2478 12.7205
" />
<path d="M35.2478 12.7205
L35.1873 12.6600
" />
<path d="M35.1873 12.6600
L35.0664 12.5995
" />
<path d="M35.0664 12.5995
L34.8245 12.5390
" />
<path d="M34.8245 12.5390
L34.7035 12.4786
" />
<path d="M34.7035 12.4786
L34.6430 12.4181
" />
<path d="M34.6430 12.4181
L34.5826 12.2971
" />
<path d="M34.5826 12.2971
L34.5826 12.1762
" />
<path d="M34.5826 12.1762
L34.6430 12.0552
" />
<path d="M34.6430 12.0552
L34.7035 11.9947
" />
<path d="M34.7035 11.9947
L34.8245 11.9343
" />
<path d="M34.8245 11.9343
L35.1268 11.9343
" />
<path d="M35.1268 11.9343
L35.3083 11.9947
" />
<path d="M35.8526 13.2043
L35.8526 11.9343
" />
<path d="M35.8526 11.9343
L36.2759 12.8414
" />
<path d="M36.2759 12.8414
L36.6992 11.9343
" />
<path d="M36.6992 11.9343
L36.6992 13.2043
" />
<path d="M37.3040 13.2043
L37.3040 11.9343
" />
<path d="M37.3040 11.9343
L37.6064 11.9343
" />
<path d="M37.6064 11.9343
L37.7878 11.9947
" />
<path d="M37.7878 11.9947
L37.9087 12.1157
" />
<path d="M37.9087 12.1157
L37.9692 12.2367
" />
<path d="M37.9692 12.2367
L38.0297 12.4786
" />
<path d="M38.0297 12.4786
L38.0297 12.6600
" />
<path d="M38.0297 12.6600
L37.9692 12.9019
" />
<path d="M37.9692 12.9019
L37.9087 13.0228
" />
<path d="M37.9087 13.0228
L37.7878 13.1438
" />
<path d="M37.7878 13.1438
L37.6064 13.2043
" />
<path d="M37.6064 13.2043
L37.3040 13.2043
" />
<path d="M38.2716 13.3252
L39.2392 13.3252
" />
<path d="M39.5416 13.2043
L39.5416 11.9343
" />
<path d="M39.5416 11.9343
L40.0254 11.9343
" />
<path d="M40.0254 11.9343
L40.1464 11.9947
" />
<path d="M40.1464 11.9947
L40.2068 12.0552
" />
<path d="M40.2068 12.0552
L40.2673 12.1762
" />
<path d="M40.2673 12.1762
L40.2673 12.3576
" />
<path d="M40.2673 12.3576
L40.2068 12.4786
" />
<path d="M40.2068 12.4786
L40.1464 12.5390
" />
<path d="M40.1464 12.5390
L40.0254 12.5995
" />
<path d="M40.0254 12.5995
L39.5416 12.5995
" />
<path d="M40.8116 13.2043
L40.8116 12.3576
" />
<path d="M40.8116 11.9343
L40.7511 11.9947
" />
<path d="M40.7511 11.9947
L40.8116 12.0552
" />
<path d="M40.8116 12.0552
L40.8721 11.9947
" />
<path d="M40.8721 11.9947
L40.8116 11.9343
" />
<path d="M40.8116 11.9343
L40.8116 12.0552
" />
<path d="M41.4164 12.3576
L41.4164 13.2043
" />
<path d="M41.4164 12.4786
L41.4768 12.4181
" />
<path d="M41.4768 12.4181
L41.5978 12.3576
" />
<path d="M41.5978 12.3576
L41.7792 12.3576
" />
<path d="M41.7792 12.3576
L41.9002 12.4181
" />
<path d="M41.9002 12.4181
L41.9606 12.5390
" />
<path d="M41.9606 12.5390
L41.9606 13.2043
" />
<path d="M43.2306 13.2043
L42.5049 13.2043
" />
<path d="M42.8678 13.2043
L42.8678 11.9343
" />
<path d="M42.8678 11.9343
L42.7468 12.1157
" />
<path d="M42.7468 12.1157
L42.6259 12.2367
" />
<path d="M42.6259 12.2367
L42.5049 12.2971
" />
<path d="M44.3797 13.2043
L43.7749 13.2043
" />
<path d="M43.7749 13.2043
L43.7749 11.9343
" />
<path d="M45.2868 13.1438
L45.1659 13.2043
" />
<path d="M45.1659 13.2043
L44.9240 13.2043
" />
<path d="M44.9240 13.2043
L44.8030 13.1438
" />
<path d="M44.8030 13.1438
L44.7426 13.0228
" />
<path d="M44.7426 13.0228
L44.7426 12.5390
" />
<path d="M44.7426 12.5390
L44.8030 12.4181
" />
<path d="M44.8030 12.4181
L44.9240 12.3576
" />
<path d="M44.9240 12.3576
L45.1659 12.3576
" />
<path d="M45.1659 12.3576
L45.2868 12.4181
" />
<path d="M45.2868 12.4181
L45.3473 12.5390
" />
<path d="M45.3473 12.5390
L45.3473 12.6600
" />
<path d="M45.3473 12.6600
L44.7426 12.7809
" />
<path d="M45.7102 12.3576
L46.1940 12.3576
" />
<path d="M45.8916 13.2043
L45.8916 12.1157
" />
<path d="M45.8916 12.1157
L45.9521 11.9947
" />
<path d="M45.9521 11.9947
L46.0730 11.9343
" />
<path d="M46.0730 11.9343
L46.1940 11.9343
" />
<path d="M46.4359 12.3576
L46.9197 12.3576
" />
<path d="M46.6173 11.9343
L46.6173 13.0228
" />
<path d="M46.6173 13.0228
L46.6778 13.1438
" />
<path d="M46.6778 13.1438
L46.7987 13.2043
" />
<path d="M46.7987 13.2043
L46.9197 13.2043
" />
</g></g>
<g style="fill:none; 
stroke:#AFAFAF; stroke-width:0.1500; stroke-opacity:1; 
stroke-linecap:round; stroke-linejoin:round;">
<g transform="rotate(-90.000000 23.5759 12.6250)">
<text x="23.5759" y="13.1250"
textLength="4.5357" font-size="1.3333" lengthAdjust="spacingAndGlyphs"
text-anchor="middle" opacity="0">REF**</text>
</g>
<g class="stroked-text"><desc>REF**</desc>
<path d="M24.0307 13.9583
L23.5545 14.2917
" />
<path d="M24.0307 14.5298
L23.0307 14.5298
" />
<path d="M23.0307 14.5298
L23.0307 14.1488
" />
<path d="M23.0307 14.1488
L23.0783 14.0536
" />
<path d="M23.0783 14.0536
L23.1259 14.0060
" />
<path d="M23.1259 14.0060
L23.2212 13.9583
" />
<path d="M23.2212 13.9583
L23.3640 13.9583
" />
<path d="M23.3640 13.9583
L23.4593 14.0060
" />
<path d="M23.4593 14.0060
L23.5069 14.0536
" />
<path d="M23.5069 14.0536
L23.5545 14.1488
" />
<path d="M23.5545 14.1488
L23.5545 14.5298
" />
<path d="M23.5069 13.5298
L23.5069 13.1964
" />
<path d="M24.0307 13.0536
L24.0307 13.5298
" />
<path d="M24.0307 13.5298
L23.0307 13.5298
" />
<path d="M23.0307 13.5298
L23.0307 13.0536
" />
<path d="M23.5069 12.2917
L23.5069 12.6250
" />
<path d="M24.0307 12.6250
L23.0307 12.6250
" />
<path d="M23.0307 12.6250
L23.0307 12.1488
" />
<path d="M23.0307 11.6250
L23.2688 11.6250
" />
<path d="M23.1736 11.8631
L23.2688 11.6250
" />
<path d="M23.2688 11.6250
L23.1736 11.3869
" />
<path d="M23.4593 11.7679
L23.2688 11.6250
" />
<path d="M23.2688 11.6250
L23.4593 11.4821
" />
<path d="M23.0307 10.8631
L23.2688 10.8631
" />
<path d="M23.1736 11.1012
L23.2688 10.8631
" />
<path d="M23.2688 10.8631
L23.1736 10.6250
" />
<path d="M23.4593 11.0060
L23.2688 10.8631
" />
<path d="M23.2688 10.8631
L23.4593 10.7202
" />
</g></g>
<g style="fill:none; 
stroke:#AFAFAF; stroke-width:0.1000; stroke-opacity:1; 
stroke-linecap:round; stroke-linejoin:round;">
<path d="M21.0759 0.9950
L21.0759 1.3950
" />
<path d="M21.0759 1.3950
L22.5259 1.3950
" />
<path d="M21.0759 3.5350
L21.0759 3.9350
" />
<path d="M21.0759 3.9350
L22.5259 3.9350
" />
<path d="M21.0759 6.0750
L21.0759 6.4750
" />
<path d="M21.0759 6.4750
L22.5259 6.4750
" />
<path d="M21.0759 8.6150
L21.0759 9.0150
" />
<path d="M21.0759 9.0150
L22.5259 9.0150
" />
<path d="M21.0759 11.1550
L21.0759 11.5550
" />
<path d="M21.0759 11.5550
L22.5259 11.5550
" />
<path d="M21.0759 13.6950
L21.0759 14.0950
" />
<path d="M21.0759 14.0950
L22.5259 14.0950
" />
<path d="M21.0759 16.2350
L21.0759 16.6350
" />
<path d="M21.0759 16.6350
L22.5259 16.6350
" />
<path d="M21.0759 18.7750
L21.0759 19.1750
" />
<path d="M21.0759 19.1750
L22.5259 19.1750
" />
<path d="M21.0759 21.3150
L21.0759 21.7150
" />
<path d="M21.0759 21.7150
L22.5259 21.7150
" />
<path d="M21.0759 23.8550
L21.0759 24.2550
" />
<path d="M21.0759 24.2550
L22.5259 24.2550
" />
<path d="M22.5259 0.9950
L21.0759 0.9950
" />
<path d="M22.5259 0.9950
L22.9609 0.5600
" />
<path d="M22.5259 3.5350
L21.0759 3.5350
" />
<path d="M22.5259 6.0750
L21.0759 6.0750
" />
<path d="M22.5259 8.6150
L21.0759 8.6150
" />
<path d="M22.5259 11.1550
L21.0759 11.1550
" />
<path d="M22.5259 13.6950
L21.0759 13.6950
" />
<path d="M22.5259 16.2350
L21.0759 16.2350
" />
<path d="M22.5259 18.7750
L21.0759 18.7750
" />
<path d="M22.5259 21.3150
L21.0759 21.3150
" />
<path d="M22.5259 23.8550
L21.0759 23.8550
" />
<path d="M22.5259 24.6900
L22.5259 0.9950
" />
<path d="M22.9609 0.5600
L24.6259 0.5600
" />
<path d="M24.6259 0.5600
L24.6259 24.6900
" />
<path d="M24.6259 2.2650
L26.0759 2.2650
" />
<path d="M24.6259 4.8050
L26.0759 4.8050
" />
<path d="M24.6259 7.3450
L26.0759 7.3450
" />
<path d="M24.6259 9.8850
L26.0759 9.8850
" />
<path d="M24.6259 12.4250
L26.0759 12.4250
" />
<path d="M24.6259 14.9650
L26.0759 14.9650
" />
<path d="M24.6259 17.5050
L26.0759 17.5050
" />
<path d="M24.6259 20.0450
L26.0759 20.0450
" />
<path d="M24.6259 22.5850
L26.0759 22.5850
" />
<path d="M24.6259 24.6900
L22.5259 24.6900
" />
<path d="M26.0759 2.2650
L26.0759 2.6650
" />
<path d="M26.0759 2.6650
L24.6259 2.6650
" />
<path d="M26.0759 4.8050
L26.0759 5.2050
" />
<path d="M26.0759 5.2050
L24.6259 5.2050
" />
<path d="M26.0759 7.3450
L26.0759 7.7450
" />
<path d="M26.0759 7.7450
L24.6259 7.7450
" />
<path d="M26.0759 9.8850
L26.0759 10.2850
" />
<path d="M26.0759 10.2850
L24.6259 10.2850
" />
<path d="M26.0759 12.4250
L26.0759 12.8250
" />
<path d="M26.0759 12.8250
L24.6259 12.8250
" />
<path d="M26.0759 14.9650
L26.0759 15.3650
" />
<path d="M26.0759 15.3650
L24.6259 15.3650
" />
<path d="M26.0759 17.5050
L26.0759 17.9050
" />
<path d="M26.0759 17.9050
L24.6259 17.9050
" />
<path d="M26.0759 20.0450
L26.0759 20.4450
" />
<path d="M26.0759 20.4450
L24.6259 20.4450
" />
<path d="M26.0759 22.5850
L26.0759 22.9850
" />
<path d="M26.0759 22.9850
L24.6259 22.9850
" />
</g> 
</svg>
