<?xml version="1.0" standalone="no"?>
 <!DOCTYPE svg PUBLIC "-//W3C//DTD SVG 1.1//EN" 
 "http://www.w3.org/Graphics/SVG/1.1/DTD/svg11.dtd"> 
<svg
  xmlns:svg="http://www.w3.org/2000/svg"
  xmlns="http://www.w3.org/2000/svg"
  xmlns:xlink="http://www.w3.org/1999/xlink"
  version="1.1"
  width="52.8828mm" height="11.9380mm" viewBox="0.0000 0.0000 52.8828 11.9380">
<title>SVG Image created as working-brd.svg date 2024/04/07 12:58:06 </title>
  <desc>Image generated by PCBNEW </desc>
<g style="fill:#000000; fill-opacity:1.0000;stroke:#000000; stroke-opacity:1.0000;
stroke-linecap:round; stroke-linejoin:round;"
 transform="translate(0 0) scale(1 1)">
</g>
<g style="fill:#FFFFFF; fill-opacity:1.0000; stroke:none;">
<circle cx="26.4485" cy="1.7750" r="0.7500" /> 
</g>
<g style="fill:#FFFFFF; fill-opacity:1.0000; stroke:none;">
<circle cx="26.4485" cy="10.1550" r="0.7500" /> 
</g>
<g style="fill:#02FFEE; fill-opacity:0.4000; stroke:none;">
<circle cx="26.4485" cy="1.7750" r="1.5000" /> 
</g>
<g style="fill:#02FFEE; fill-opacity:0.4000; stroke:none;">
<circle cx="26.4485" cy="10.1550" r="1.5000" /> 
</g>
<g style="fill:#FFFFFF; fill-opacity:1.0000; stroke:none;">
<circle cx="26.4485" cy="1.7750" r="0.7500" /> 
</g>
<g style="fill:#FFFFFF; fill-opacity:1.0000; stroke:none;">
<circle cx="26.4485" cy="10.1550" r="0.7500" /> 
</g>
<g style="fill:#FFFFFF; fill-opacity:1.0000; stroke:none;">
<circle cx="26.4485" cy="1.7750" r="0.7500" /> 
</g>
<g style="fill:#FFFFFF; fill-opacity:1.0000; stroke:none;">
<circle cx="26.4485" cy="10.1550" r="0.7500" /> 
</g>
<g style="fill:#D864FF; fill-opacity:0.4000; stroke:none;">
<circle cx="26.4485" cy="1.7750" r="1.5000" /> 
</g>
<g style="fill:#D864FF; fill-opacity:0.4000; stroke:none;">
<circle cx="26.4485" cy="10.1550" r="1.5000" /> 
</g>
<g style="fill:none; 
stroke:#F2EDA1; stroke-width:0.1588; stroke-opacity:1; 
stroke-linecap:round; stroke-linejoin:round;">
<text x="26.4485" y="2.4100"
textLength="5.6651" font-size="1.6933" lengthAdjust="spacingAndGlyphs"
text-anchor="middle" opacity="0">REF**</text>
<g class="stroked-text"><desc>REF**</desc>
<path d="M24.7552 2.3543
L24.3318 1.7495
" />
<path d="M24.0295 2.3543
L24.0295 1.0843
" />
<path d="M24.0295 1.0843
L24.5133 1.0843
" />
<path d="M24.5133 1.0843
L24.6342 1.1447
" />
<path d="M24.6342 1.1447
L24.6947 1.2052
" />
<path d="M24.6947 1.2052
L24.7552 1.3262
" />
<path d="M24.7552 1.3262
L24.7552 1.5076
" />
<path d="M24.7552 1.5076
L24.6947 1.6286
" />
<path d="M24.6947 1.6286
L24.6342 1.6890
" />
<path d="M24.6342 1.6890
L24.5133 1.7495
" />
<path d="M24.5133 1.7495
L24.0295 1.7495
" />
<path d="M25.2995 1.6890
L25.7228 1.6890
" />
<path d="M25.9042 2.3543
L25.2995 2.3543
" />
<path d="M25.2995 2.3543
L25.2995 1.0843
" />
<path d="M25.2995 1.0843
L25.9042 1.0843
" />
<path d="M26.8718 1.6890
L26.4485 1.6890
" />
<path d="M26.4485 2.3543
L26.4485 1.0843
" />
<path d="M26.4485 1.0843
L27.0533 1.0843
" />
<path d="M27.7185 1.0843
L27.7185 1.3867
" />
<path d="M27.4161 1.2657
L27.7185 1.3867
" />
<path d="M27.7185 1.3867
L28.0209 1.2657
" />
<path d="M27.5371 1.6286
L27.7185 1.3867
" />
<path d="M27.7185 1.3867
L27.8999 1.6286
" />
<path d="M28.6861 1.0843
L28.6861 1.3867
" />
<path d="M28.3837 1.2657
L28.6861 1.3867
" />
<path d="M28.6861 1.3867
L28.9885 1.2657
" />
<path d="M28.5047 1.6286
L28.6861 1.3867
" />
<path d="M28.6861 1.3867
L28.8676 1.6286
" />
</g></g>
<g style="fill:none; 
stroke:#F2EDA1; stroke-width:0.1200; stroke-opacity:1; 
stroke-linecap:round; stroke-linejoin:round;">
<path d="M15.5335 1.6550
L15.5335 10.2750
" />
<path d="M15.5335 1.6550
L24.6935 1.6550
" />
<path d="M15.5335 10.2750
L24.6935 10.2750
" />
<path d="M28.2035 1.6550
L37.3635 1.6550
" />
<path d="M28.2035 10.2750
L37.3635 10.2750
" />
<path d="M37.3635 1.6550
L37.3635 10.2750
" />
</g>
<g style="fill:#FFFFFF; fill-opacity:1.0000; stroke:none;">
<circle cx="26.4485" cy="1.7750" r="0.7500" /> 
</g>
<g style="fill:#FFFFFF; fill-opacity:1.0000; stroke:none;">
<circle cx="26.4485" cy="10.1550" r="0.7500" /> 
</g>
<g style="fill:none; 
stroke:#FF26E2; stroke-width:0.0500; stroke-opacity:1; 
stroke-linecap:round; stroke-linejoin:round;">
<path d="M15.3985 0.0250
L15.3985 11.9150
" />
<path d="M15.3985 11.9150
L37.4985 11.9150
" />
<path d="M37.4985 0.0250
L15.3985 0.0250
" />
<path d="M37.4985 11.9150
L37.4985 0.0250
" />
</g>
<g style="fill:none; 
stroke:#AFAFAF; stroke-width:0.1588; stroke-opacity:1; 
stroke-linecap:round; stroke-linejoin:round;">
<text x="26.4485" y="2.4100"
textLength="52.8970" font-size="1.6933" lengthAdjust="spacingAndGlyphs"
text-anchor="middle" opacity="0">L_Toroid_Vertical_L21.6mm_W8.4mm_P8.38mm_Pulse_G</text>
<g class="stroked-text"><desc>L_Toroid_Vertical_L21.6mm_W8.4mm_P8.38mm_Pulse_G</desc>
<path d="M1.0183 2.3543
L0.4135 2.3543
" />
<path d="M0.4135 2.3543
L0.4135 1.0843
" />
<path d="M1.1392 2.4752
L2.1068 2.4752
" />
<path d="M2.2278 1.0843
L2.9535 1.0843
" />
<path d="M2.5906 2.3543
L2.5906 1.0843
" />
<path d="M3.5583 2.3543
L3.4373 2.2938
" />
<path d="M3.4373 2.2938
L3.3768 2.2333
" />
<path d="M3.3768 2.2333
L3.3164 2.1124
" />
<path d="M3.3164 2.1124
L3.3164 1.7495
" />
<path d="M3.3164 1.7495
L3.3768 1.6286
" />
<path d="M3.3768 1.6286
L3.4373 1.5681
" />
<path d="M3.4373 1.5681
L3.5583 1.5076
" />
<path d="M3.5583 1.5076
L3.7397 1.5076
" />
<path d="M3.7397 1.5076
L3.8606 1.5681
" />
<path d="M3.8606 1.5681
L3.9211 1.6286
" />
<path d="M3.9211 1.6286
L3.9816 1.7495
" />
<path d="M3.9816 1.7495
L3.9816 2.1124
" />
<path d="M3.9816 2.1124
L3.9211 2.2333
" />
<path d="M3.9211 2.2333
L3.8606 2.2938
" />
<path d="M3.8606 2.2938
L3.7397 2.3543
" />
<path d="M3.7397 2.3543
L3.5583 2.3543
" />
<path d="M4.5259 2.3543
L4.5259 1.5076
" />
<path d="M4.5259 1.7495
L4.5864 1.6286
" />
<path d="M4.5864 1.6286
L4.6468 1.5681
" />
<path d="M4.6468 1.5681
L4.7678 1.5076
" />
<path d="M4.7678 1.5076
L4.8887 1.5076
" />
<path d="M5.4935 2.3543
L5.3726 2.2938
" />
<path d="M5.3726 2.2938
L5.3121 2.2333
" />
<path d="M5.3121 2.2333
L5.2516 2.1124
" />
<path d="M5.2516 2.1124
L5.2516 1.7495
" />
<path d="M5.2516 1.7495
L5.3121 1.6286
" />
<path d="M5.3121 1.6286
L5.3726 1.5681
" />
<path d="M5.3726 1.5681
L5.4935 1.5076
" />
<path d="M5.4935 1.5076
L5.6749 1.5076
" />
<path d="M5.6749 1.5076
L5.7959 1.5681
" />
<path d="M5.7959 1.5681
L5.8564 1.6286
" />
<path d="M5.8564 1.6286
L5.9168 1.7495
" />
<path d="M5.9168 1.7495
L5.9168 2.1124
" />
<path d="M5.9168 2.1124
L5.8564 2.2333
" />
<path d="M5.8564 2.2333
L5.7959 2.2938
" />
<path d="M5.7959 2.2938
L5.6749 2.3543
" />
<path d="M5.6749 2.3543
L5.4935 2.3543
" />
<path d="M6.4611 2.3543
L6.4611 1.5076
" />
<path d="M6.4611 1.0843
L6.4006 1.1447
" />
<path d="M6.4006 1.1447
L6.4611 1.2052
" />
<path d="M6.4611 1.2052
L6.5216 1.1447
" />
<path d="M6.5216 1.1447
L6.4611 1.0843
" />
<path d="M6.4611 1.0843
L6.4611 1.2052
" />
<path d="M7.6102 2.3543
L7.6102 1.0843
" />
<path d="M7.6102 2.2938
L7.4892 2.3543
" />
<path d="M7.4892 2.3543
L7.2473 2.3543
" />
<path d="M7.2473 2.3543
L7.1264 2.2938
" />
<path d="M7.1264 2.2938
L7.0659 2.2333
" />
<path d="M7.0659 2.2333
L7.0054 2.1124
" />
<path d="M7.0054 2.1124
L7.0054 1.7495
" />
<path d="M7.0054 1.7495
L7.0659 1.6286
" />
<path d="M7.0659 1.6286
L7.1264 1.5681
" />
<path d="M7.1264 1.5681
L7.2473 1.5076
" />
<path d="M7.2473 1.5076
L7.4892 1.5076
" />
<path d="M7.4892 1.5076
L7.6102 1.5681
" />
<path d="M7.9126 2.4752
L8.8802 2.4752
" />
<path d="M9.0011 1.0843
L9.4245 2.3543
" />
<path d="M9.4245 2.3543
L9.8478 1.0843
" />
<path d="M10.7549 2.2938
L10.6340 2.3543
" />
<path d="M10.6340 2.3543
L10.3921 2.3543
" />
<path d="M10.3921 2.3543
L10.2711 2.2938
" />
<path d="M10.2711 2.2938
L10.2106 2.1728
" />
<path d="M10.2106 2.1728
L10.2106 1.6890
" />
<path d="M10.2106 1.6890
L10.2711 1.5681
" />
<path d="M10.2711 1.5681
L10.3921 1.5076
" />
<path d="M10.3921 1.5076
L10.6340 1.5076
" />
<path d="M10.6340 1.5076
L10.7549 1.5681
" />
<path d="M10.7549 1.5681
L10.8154 1.6890
" />
<path d="M10.8154 1.6890
L10.8154 1.8100
" />
<path d="M10.8154 1.8100
L10.2106 1.9309
" />
<path d="M11.3597 2.3543
L11.3597 1.5076
" />
<path d="M11.3597 1.7495
L11.4202 1.6286
" />
<path d="M11.4202 1.6286
L11.4806 1.5681
" />
<path d="M11.4806 1.5681
L11.6016 1.5076
" />
<path d="M11.6016 1.5076
L11.7226 1.5076
" />
<path d="M11.9645 1.5076
L12.4483 1.5076
" />
<path d="M12.1459 1.0843
L12.1459 2.1728
" />
<path d="M12.1459 2.1728
L12.2064 2.2938
" />
<path d="M12.2064 2.2938
L12.3273 2.3543
" />
<path d="M12.3273 2.3543
L12.4483 2.3543
" />
<path d="M12.8716 2.3543
L12.8716 1.5076
" />
<path d="M12.8716 1.0843
L12.8111 1.1447
" />
<path d="M12.8111 1.1447
L12.8716 1.2052
" />
<path d="M12.8716 1.2052
L12.9321 1.1447
" />
<path d="M12.9321 1.1447
L12.8716 1.0843
" />
<path d="M12.8716 1.0843
L12.8716 1.2052
" />
<path d="M14.0206 2.2938
L13.8997 2.3543
" />
<path d="M13.8997 2.3543
L13.6578 2.3543
" />
<path d="M13.6578 2.3543
L13.5368 2.2938
" />
<path d="M13.5368 2.2938
L13.4764 2.2333
" />
<path d="M13.4764 2.2333
L13.4159 2.1124
" />
<path d="M13.4159 2.1124
L13.4159 1.7495
" />
<path d="M13.4159 1.7495
L13.4764 1.6286
" />
<path d="M13.4764 1.6286
L13.5368 1.5681
" />
<path d="M13.5368 1.5681
L13.6578 1.5076
" />
<path d="M13.6578 1.5076
L13.8997 1.5076
" />
<path d="M13.8997 1.5076
L14.0206 1.5681
" />
<path d="M15.1092 2.3543
L15.1092 1.6890
" />
<path d="M15.1092 1.6890
L15.0487 1.5681
" />
<path d="M15.0487 1.5681
L14.9278 1.5076
" />
<path d="M14.9278 1.5076
L14.6859 1.5076
" />
<path d="M14.6859 1.5076
L14.5649 1.5681
" />
<path d="M15.1092 2.2938
L14.9883 2.3543
" />
<path d="M14.9883 2.3543
L14.6859 2.3543
" />
<path d="M14.6859 2.3543
L14.5649 2.2938
" />
<path d="M14.5649 2.2938
L14.5045 2.1728
" />
<path d="M14.5045 2.1728
L14.5045 2.0519
" />
<path d="M14.5045 2.0519
L14.5649 1.9309
" />
<path d="M14.5649 1.9309
L14.6859 1.8705
" />
<path d="M14.6859 1.8705
L14.9883 1.8705
" />
<path d="M14.9883 1.8705
L15.1092 1.8100
" />
<path d="M15.8954 2.3543
L15.7745 2.2938
" />
<path d="M15.7745 2.2938
L15.7140 2.1728
" />
<path d="M15.7140 2.1728
L15.7140 1.0843
" />
<path d="M16.0768 2.4752
L17.0445 2.4752
" />
<path d="M17.9516 2.3543
L17.3468 2.3543
" />
<path d="M17.3468 2.3543
L17.3468 1.0843
" />
<path d="M18.3145 1.2052
L18.3749 1.1447
" />
<path d="M18.3749 1.1447
L18.4959 1.0843
" />
<path d="M18.4959 1.0843
L18.7983 1.0843
" />
<path d="M18.7983 1.0843
L18.9192 1.1447
" />
<path d="M18.9192 1.1447
L18.9797 1.2052
" />
<path d="M18.9797 1.2052
L19.0402 1.3262
" />
<path d="M19.0402 1.3262
L19.0402 1.4471
" />
<path d="M19.0402 1.4471
L18.9797 1.6286
" />
<path d="M18.9797 1.6286
L18.2540 2.3543
" />
<path d="M18.2540 2.3543
L19.0402 2.3543
" />
<path d="M20.2497 2.3543
L19.5240 2.3543
" />
<path d="M19.8868 2.3543
L19.8868 1.0843
" />
<path d="M19.8868 1.0843
L19.7659 1.2657
" />
<path d="M19.7659 1.2657
L19.6449 1.3867
" />
<path d="M19.6449 1.3867
L19.5240 1.4471
" />
<path d="M20.7940 2.2333
L20.8545 2.2938
" />
<path d="M20.8545 2.2938
L20.7940 2.3543
" />
<path d="M20.7940 2.3543
L20.7335 2.2938
" />
<path d="M20.7335 2.2938
L20.7940 2.2333
" />
<path d="M20.7940 2.2333
L20.7940 2.3543
" />
<path d="M21.9430 1.0843
L21.7011 1.0843
" />
<path d="M21.7011 1.0843
L21.5802 1.1447
" />
<path d="M21.5802 1.1447
L21.5197 1.2052
" />
<path d="M21.5197 1.2052
L21.3987 1.3867
" />
<path d="M21.3987 1.3867
L21.3383 1.6286
" />
<path d="M21.3383 1.6286
L21.3383 2.1124
" />
<path d="M21.3383 2.1124
L21.3987 2.2333
" />
<path d="M21.3987 2.2333
L21.4592 2.2938
" />
<path d="M21.4592 2.2938
L21.5802 2.3543
" />
<path d="M21.5802 2.3543
L21.8221 2.3543
" />
<path d="M21.8221 2.3543
L21.9430 2.2938
" />
<path d="M21.9430 2.2938
L22.0035 2.2333
" />
<path d="M22.0035 2.2333
L22.0640 2.1124
" />
<path d="M22.0640 2.1124
L22.0640 1.8100
" />
<path d="M22.0640 1.8100
L22.0035 1.6890
" />
<path d="M22.0035 1.6890
L21.9430 1.6286
" />
<path d="M21.9430 1.6286
L21.8221 1.5681
" />
<path d="M21.8221 1.5681
L21.5802 1.5681
" />
<path d="M21.5802 1.5681
L21.4592 1.6286
" />
<path d="M21.4592 1.6286
L21.3987 1.6890
" />
<path d="M21.3987 1.6890
L21.3383 1.8100
" />
<path d="M22.6083 2.3543
L22.6083 1.5076
" />
<path d="M22.6083 1.6286
L22.6687 1.5681
" />
<path d="M22.6687 1.5681
L22.7897 1.5076
" />
<path d="M22.7897 1.5076
L22.9711 1.5076
" />
<path d="M22.9711 1.5076
L23.0921 1.5681
" />
<path d="M23.0921 1.5681
L23.1526 1.6890
" />
<path d="M23.1526 1.6890
L23.1526 2.3543
" />
<path d="M23.1526 1.6890
L23.2130 1.5681
" />
<path d="M23.2130 1.5681
L23.3340 1.5076
" />
<path d="M23.3340 1.5076
L23.5154 1.5076
" />
<path d="M23.5154 1.5076
L23.6364 1.5681
" />
<path d="M23.6364 1.5681
L23.6968 1.6890
" />
<path d="M23.6968 1.6890
L23.6968 2.3543
" />
<path d="M24.3016 2.3543
L24.3016 1.5076
" />
<path d="M24.3016 1.6286
L24.3621 1.5681
" />
<path d="M24.3621 1.5681
L24.4830 1.5076
" />
<path d="M24.4830 1.5076
L24.6645 1.5076
" />
<path d="M24.6645 1.5076
L24.7854 1.5681
" />
<path d="M24.7854 1.5681
L24.8459 1.6890
" />
<path d="M24.8459 1.6890
L24.8459 2.3543
" />
<path d="M24.8459 1.6890
L24.9064 1.5681
" />
<path d="M24.9064 1.5681
L25.0273 1.5076
" />
<path d="M25.0273 1.5076
L25.2087 1.5076
" />
<path d="M25.2087 1.5076
L25.3297 1.5681
" />
<path d="M25.3297 1.5681
L25.3902 1.6890
" />
<path d="M25.3902 1.6890
L25.3902 2.3543
" />
<path d="M25.6926 2.4752
L26.6602 2.4752
" />
<path d="M26.8416 1.0843
L27.1440 2.3543
" />
<path d="M27.1440 2.3543
L27.3859 1.4471
" />
<path d="M27.3859 1.4471
L27.6278 2.3543
" />
<path d="M27.6278 2.3543
L27.9302 1.0843
" />
<path d="M28.5954 1.6286
L28.4745 1.5681
" />
<path d="M28.4745 1.5681
L28.4140 1.5076
" />
<path d="M28.4140 1.5076
L28.3535 1.3867
" />
<path d="M28.3535 1.3867
L28.3535 1.3262
" />
<path d="M28.3535 1.3262
L28.4140 1.2052
" />
<path d="M28.4140 1.2052
L28.4745 1.1447
" />
<path d="M28.4745 1.1447
L28.5954 1.0843
" />
<path d="M28.5954 1.0843
L28.8373 1.0843
" />
<path d="M28.8373 1.0843
L28.9583 1.1447
" />
<path d="M28.9583 1.1447
L29.0187 1.2052
" />
<path d="M29.0187 1.2052
L29.0792 1.3262
" />
<path d="M29.0792 1.3262
L29.0792 1.3867
" />
<path d="M29.0792 1.3867
L29.0187 1.5076
" />
<path d="M29.0187 1.5076
L28.9583 1.5681
" />
<path d="M28.9583 1.5681
L28.8373 1.6286
" />
<path d="M28.8373 1.6286
L28.5954 1.6286
" />
<path d="M28.5954 1.6286
L28.4745 1.6890
" />
<path d="M28.4745 1.6890
L28.4140 1.7495
" />
<path d="M28.4140 1.7495
L28.3535 1.8705
" />
<path d="M28.3535 1.8705
L28.3535 2.1124
" />
<path d="M28.3535 2.1124
L28.4140 2.2333
" />
<path d="M28.4140 2.2333
L28.4745 2.2938
" />
<path d="M28.4745 2.2938
L28.5954 2.3543
" />
<path d="M28.5954 2.3543
L28.8373 2.3543
" />
<path d="M28.8373 2.3543
L28.9583 2.2938
" />
<path d="M28.9583 2.2938
L29.0187 2.2333
" />
<path d="M29.0187 2.2333
L29.0792 2.1124
" />
<path d="M29.0792 2.1124
L29.0792 1.8705
" />
<path d="M29.0792 1.8705
L29.0187 1.7495
" />
<path d="M29.0187 1.7495
L28.9583 1.6890
" />
<path d="M28.9583 1.6890
L28.8373 1.6286
" />
<path d="M29.6235 2.2333
L29.6840 2.2938
" />
<path d="M29.6840 2.2938
L29.6235 2.3543
" />
<path d="M29.6235 2.3543
L29.5630 2.2938
" />
<path d="M29.5630 2.2938
L29.6235 2.2333
" />
<path d="M29.6235 2.2333
L29.6235 2.3543
" />
<path d="M30.7726 1.5076
L30.7726 2.3543
" />
<path d="M30.4702 1.0238
L30.1678 1.9309
" />
<path d="M30.1678 1.9309
L30.9540 1.9309
" />
<path d="M31.4378 2.3543
L31.4378 1.5076
" />
<path d="M31.4378 1.6286
L31.4983 1.5681
" />
<path d="M31.4983 1.5681
L31.6192 1.5076
" />
<path d="M31.6192 1.5076
L31.8006 1.5076
" />
<path d="M31.8006 1.5076
L31.9216 1.5681
" />
<path d="M31.9216 1.5681
L31.9821 1.6890
" />
<path d="M31.9821 1.6890
L31.9821 2.3543
" />
<path d="M31.9821 1.6890
L32.0426 1.5681
" />
<path d="M32.0426 1.5681
L32.1635 1.5076
" />
<path d="M32.1635 1.5076
L32.3449 1.5076
" />
<path d="M32.3449 1.5076
L32.4659 1.5681
" />
<path d="M32.4659 1.5681
L32.5264 1.6890
" />
<path d="M32.5264 1.6890
L32.5264 2.3543
" />
<path d="M33.1311 2.3543
L33.1311 1.5076
" />
<path d="M33.1311 1.6286
L33.1916 1.5681
" />
<path d="M33.1916 1.5681
L33.3126 1.5076
" />
<path d="M33.3126 1.5076
L33.4940 1.5076
" />
<path d="M33.4940 1.5076
L33.6149 1.5681
" />
<path d="M33.6149 1.5681
L33.6754 1.6890
" />
<path d="M33.6754 1.6890
L33.6754 2.3543
" />
<path d="M33.6754 1.6890
L33.7359 1.5681
" />
<path d="M33.7359 1.5681
L33.8568 1.5076
" />
<path d="M33.8568 1.5076
L34.0383 1.5076
" />
<path d="M34.0383 1.5076
L34.1592 1.5681
" />
<path d="M34.1592 1.5681
L34.2197 1.6890
" />
<path d="M34.2197 1.6890
L34.2197 2.3543
" />
<path d="M34.5221 2.4752
L35.4897 2.4752
" />
<path d="M35.7921 2.3543
L35.7921 1.0843
" />
<path d="M35.7921 1.0843
L36.2759 1.0843
" />
<path d="M36.2759 1.0843
L36.3968 1.1447
" />
<path d="M36.3968 1.1447
L36.4573 1.2052
" />
<path d="M36.4573 1.2052
L36.5178 1.3262
" />
<path d="M36.5178 1.3262
L36.5178 1.5076
" />
<path d="M36.5178 1.5076
L36.4573 1.6286
" />
<path d="M36.4573 1.6286
L36.3968 1.6890
" />
<path d="M36.3968 1.6890
L36.2759 1.7495
" />
<path d="M36.2759 1.7495
L35.7921 1.7495
" />
<path d="M37.2435 1.6286
L37.1226 1.5681
" />
<path d="M37.1226 1.5681
L37.0621 1.5076
" />
<path d="M37.0621 1.5076
L37.0016 1.3867
" />
<path d="M37.0016 1.3867
L37.0016 1.3262
" />
<path d="M37.0016 1.3262
L37.0621 1.2052
" />
<path d="M37.0621 1.2052
L37.1226 1.1447
" />
<path d="M37.1226 1.1447
L37.2435 1.0843
" />
<path d="M37.2435 1.0843
L37.4854 1.0843
" />
<path d="M37.4854 1.0843
L37.6064 1.1447
" />
<path d="M37.6064 1.1447
L37.6668 1.2052
" />
<path d="M37.6668 1.2052
L37.7273 1.3262
" />
<path d="M37.7273 1.3262
L37.7273 1.3867
" />
<path d="M37.7273 1.3867
L37.6668 1.5076
" />
<path d="M37.6668 1.5076
L37.6064 1.5681
" />
<path d="M37.6064 1.5681
L37.4854 1.6286
" />
<path d="M37.4854 1.6286
L37.2435 1.6286
" />
<path d="M37.2435 1.6286
L37.1226 1.6890
" />
<path d="M37.1226 1.6890
L37.0621 1.7495
" />
<path d="M37.0621 1.7495
L37.0016 1.8705
" />
<path d="M37.0016 1.8705
L37.0016 2.1124
" />
<path d="M37.0016 2.1124
L37.0621 2.2333
" />
<path d="M37.0621 2.2333
L37.1226 2.2938
" />
<path d="M37.1226 2.2938
L37.2435 2.3543
" />
<path d="M37.2435 2.3543
L37.4854 2.3543
" />
<path d="M37.4854 2.3543
L37.6064 2.2938
" />
<path d="M37.6064 2.2938
L37.6668 2.2333
" />
<path d="M37.6668 2.2333
L37.7273 2.1124
" />
<path d="M37.7273 2.1124
L37.7273 1.8705
" />
<path d="M37.7273 1.8705
L37.6668 1.7495
" />
<path d="M37.6668 1.7495
L37.6064 1.6890
" />
<path d="M37.6064 1.6890
L37.4854 1.6286
" />
<path d="M38.2716 2.2333
L38.3321 2.2938
" />
<path d="M38.3321 2.2938
L38.2716 2.3543
" />
<path d="M38.2716 2.3543
L38.2111 2.2938
" />
<path d="M38.2111 2.2938
L38.2716 2.2333
" />
<path d="M38.2716 2.2333
L38.2716 2.3543
" />
<path d="M38.7554 1.0843
L39.5416 1.0843
" />
<path d="M39.5416 1.0843
L39.1183 1.5681
" />
<path d="M39.1183 1.5681
L39.2997 1.5681
" />
<path d="M39.2997 1.5681
L39.4206 1.6286
" />
<path d="M39.4206 1.6286
L39.4811 1.6890
" />
<path d="M39.4811 1.6890
L39.5416 1.8100
" />
<path d="M39.5416 1.8100
L39.5416 2.1124
" />
<path d="M39.5416 2.1124
L39.4811 2.2333
" />
<path d="M39.4811 2.2333
L39.4206 2.2938
" />
<path d="M39.4206 2.2938
L39.2997 2.3543
" />
<path d="M39.2997 2.3543
L38.9368 2.3543
" />
<path d="M38.9368 2.3543
L38.8159 2.2938
" />
<path d="M38.8159 2.2938
L38.7554 2.2333
" />
<path d="M40.2673 1.6286
L40.1464 1.5681
" />
<path d="M40.1464 1.5681
L40.0859 1.5076
" />
<path d="M40.0859 1.5076
L40.0254 1.3867
" />
<path d="M40.0254 1.3867
L40.0254 1.3262
" />
<path d="M40.0254 1.3262
L40.0859 1.2052
" />
<path d="M40.0859 1.2052
L40.1464 1.1447
" />
<path d="M40.1464 1.1447
L40.2673 1.0843
" />
<path d="M40.2673 1.0843
L40.5092 1.0843
" />
<path d="M40.5092 1.0843
L40.6302 1.1447
" />
<path d="M40.6302 1.1447
L40.6906 1.2052
" />
<path d="M40.6906 1.2052
L40.7511 1.3262
" />
<path d="M40.7511 1.3262
L40.7511 1.3867
" />
<path d="M40.7511 1.3867
L40.6906 1.5076
" />
<path d="M40.6906 1.5076
L40.6302 1.5681
" />
<path d="M40.6302 1.5681
L40.5092 1.6286
" />
<path d="M40.5092 1.6286
L40.2673 1.6286
" />
<path d="M40.2673 1.6286
L40.1464 1.6890
" />
<path d="M40.1464 1.6890
L40.0859 1.7495
" />
<path d="M40.0859 1.7495
L40.0254 1.8705
" />
<path d="M40.0254 1.8705
L40.0254 2.1124
" />
<path d="M40.0254 2.1124
L40.0859 2.2333
" />
<path d="M40.0859 2.2333
L40.1464 2.2938
" />
<path d="M40.1464 2.2938
L40.2673 2.3543
" />
<path d="M40.2673 2.3543
L40.5092 2.3543
" />
<path d="M40.5092 2.3543
L40.6302 2.2938
" />
<path d="M40.6302 2.2938
L40.6906 2.2333
" />
<path d="M40.6906 2.2333
L40.7511 2.1124
" />
<path d="M40.7511 2.1124
L40.7511 1.8705
" />
<path d="M40.7511 1.8705
L40.6906 1.7495
" />
<path d="M40.6906 1.7495
L40.6302 1.6890
" />
<path d="M40.6302 1.6890
L40.5092 1.6286
" />
<path d="M41.2954 2.3543
L41.2954 1.5076
" />
<path d="M41.2954 1.6286
L41.3559 1.5681
" />
<path d="M41.3559 1.5681
L41.4768 1.5076
" />
<path d="M41.4768 1.5076
L41.6583 1.5076
" />
<path d="M41.6583 1.5076
L41.7792 1.5681
" />
<path d="M41.7792 1.5681
L41.8397 1.6890
" />
<path d="M41.8397 1.6890
L41.8397 2.3543
" />
<path d="M41.8397 1.6890
L41.9002 1.5681
" />
<path d="M41.9002 1.5681
L42.0211 1.5076
" />
<path d="M42.0211 1.5076
L42.2026 1.5076
" />
<path d="M42.2026 1.5076
L42.3235 1.5681
" />
<path d="M42.3235 1.5681
L42.3840 1.6890
" />
<path d="M42.3840 1.6890
L42.3840 2.3543
" />
<path d="M42.9887 2.3543
L42.9887 1.5076
" />
<path d="M42.9887 1.6286
L43.0492 1.5681
" />
<path d="M43.0492 1.5681
L43.1702 1.5076
" />
<path d="M43.1702 1.5076
L43.3516 1.5076
" />
<path d="M43.3516 1.5076
L43.4726 1.5681
" />
<path d="M43.4726 1.5681
L43.5330 1.6890
" />
<path d="M43.5330 1.6890
L43.5330 2.3543
" />
<path d="M43.5330 1.6890
L43.5935 1.5681
" />
<path d="M43.5935 1.5681
L43.7145 1.5076
" />
<path d="M43.7145 1.5076
L43.8959 1.5076
" />
<path d="M43.8959 1.5076
L44.0168 1.5681
" />
<path d="M44.0168 1.5681
L44.0773 1.6890
" />
<path d="M44.0773 1.6890
L44.0773 2.3543
" />
<path d="M44.3797 2.4752
L45.3473 2.4752
" />
<path d="M45.6497 2.3543
L45.6497 1.0843
" />
<path d="M45.6497 1.0843
L46.1335 1.0843
" />
<path d="M46.1335 1.0843
L46.2545 1.1447
" />
<path d="M46.2545 1.1447
L46.3149 1.2052
" />
<path d="M46.3149 1.2052
L46.3754 1.3262
" />
<path d="M46.3754 1.3262
L46.3754 1.5076
" />
<path d="M46.3754 1.5076
L46.3149 1.6286
" />
<path d="M46.3149 1.6286
L46.2545 1.6890
" />
<path d="M46.2545 1.6890
L46.1335 1.7495
" />
<path d="M46.1335 1.7495
L45.6497 1.7495
" />
<path d="M47.4640 1.5076
L47.4640 2.3543
" />
<path d="M46.9197 1.5076
L46.9197 2.1728
" />
<path d="M46.9197 2.1728
L46.9802 2.2938
" />
<path d="M46.9802 2.2938
L47.1011 2.3543
" />
<path d="M47.1011 2.3543
L47.2826 2.3543
" />
<path d="M47.2826 2.3543
L47.4035 2.2938
" />
<path d="M47.4035 2.2938
L47.4640 2.2333
" />
<path d="M48.2502 2.3543
L48.1292 2.2938
" />
<path d="M48.1292 2.2938
L48.0687 2.1728
" />
<path d="M48.0687 2.1728
L48.0687 1.0843
" />
<path d="M48.6735 2.2938
L48.7945 2.3543
" />
<path d="M48.7945 2.3543
L49.0364 2.3543
" />
<path d="M49.0364 2.3543
L49.1573 2.2938
" />
<path d="M49.1573 2.2938
L49.2178 2.1728
" />
<path d="M49.2178 2.1728
L49.2178 2.1124
" />
<path d="M49.2178 2.1124
L49.1573 1.9914
" />
<path d="M49.1573 1.9914
L49.0364 1.9309
" />
<path d="M49.0364 1.9309
L48.8549 1.9309
" />
<path d="M48.8549 1.9309
L48.7340 1.8705
" />
<path d="M48.7340 1.8705
L48.6735 1.7495
" />
<path d="M48.6735 1.7495
L48.6735 1.6890
" />
<path d="M48.6735 1.6890
L48.7340 1.5681
" />
<path d="M48.7340 1.5681
L48.8549 1.5076
" />
<path d="M48.8549 1.5076
L49.0364 1.5076
" />
<path d="M49.0364 1.5076
L49.1573 1.5681
" />
<path d="M50.2459 2.2938
L50.1249 2.3543
" />
<path d="M50.1249 2.3543
L49.8830 2.3543
" />
<path d="M49.8830 2.3543
L49.7621 2.2938
" />
<path d="M49.7621 2.2938
L49.7016 2.1728
" />
<path d="M49.7016 2.1728
L49.7016 1.6890
" />
<path d="M49.7016 1.6890
L49.7621 1.5681
" />
<path d="M49.7621 1.5681
L49.8830 1.5076
" />
<path d="M49.8830 1.5076
L50.1249 1.5076
" />
<path d="M50.1249 1.5076
L50.2459 1.5681
" />
<path d="M50.2459 1.5681
L50.3064 1.6890
" />
<path d="M50.3064 1.6890
L50.3064 1.8100
" />
<path d="M50.3064 1.8100
L49.7016 1.9309
" />
<path d="M50.5483 2.4752
L51.5159 2.4752
" />
<path d="M52.4835 1.1447
L52.3626 1.0843
" />
<path d="M52.3626 1.0843
L52.1811 1.0843
" />
<path d="M52.1811 1.0843
L51.9997 1.1447
" />
<path d="M51.9997 1.1447
L51.8787 1.2657
" />
<path d="M51.8787 1.2657
L51.8183 1.3867
" />
<path d="M51.8183 1.3867
L51.7578 1.6286
" />
<path d="M51.7578 1.6286
L51.7578 1.8100
" />
<path d="M51.7578 1.8100
L51.8183 2.0519
" />
<path d="M51.8183 2.0519
L51.8787 2.1728
" />
<path d="M51.8787 2.1728
L51.9997 2.2938
" />
<path d="M51.9997 2.2938
L52.1811 2.3543
" />
<path d="M52.1811 2.3543
L52.3021 2.3543
" />
<path d="M52.3021 2.3543
L52.4835 2.2938
" />
<path d="M52.4835 2.2938
L52.5440 2.2333
" />
<path d="M52.5440 2.2333
L52.5440 1.8100
" />
<path d="M52.5440 1.8100
L52.3021 1.8100
" />
</g></g>
<g style="fill:none; 
stroke:#AFAFAF; stroke-width:0.1500; stroke-opacity:1; 
stroke-linecap:round; stroke-linejoin:round;">
<text x="30.6385" y="2.2750"
textLength="4.5357" font-size="1.3333" lengthAdjust="spacingAndGlyphs"
text-anchor="middle" opacity="0">REF**</text>
<g class="stroked-text"><desc>REF**</desc>
<path d="M29.3052 2.2298
L28.9718 1.7536
" />
<path d="M28.7337 2.2298
L28.7337 1.2298
" />
<path d="M28.7337 1.2298
L29.1147 1.2298
" />
<path d="M29.1147 1.2298
L29.2099 1.2774
" />
<path d="M29.2099 1.2774
L29.2576 1.3251
" />
<path d="M29.2576 1.3251
L29.3052 1.4203
" />
<path d="M29.3052 1.4203
L29.3052 1.5632
" />
<path d="M29.3052 1.5632
L29.2576 1.6584
" />
<path d="M29.2576 1.6584
L29.2099 1.7060
" />
<path d="M29.2099 1.7060
L29.1147 1.7536
" />
<path d="M29.1147 1.7536
L28.7337 1.7536
" />
<path d="M29.7337 1.7060
L30.0671 1.7060
" />
<path d="M30.2099 2.2298
L29.7337 2.2298
" />
<path d="M29.7337 2.2298
L29.7337 1.2298
" />
<path d="M29.7337 1.2298
L30.2099 1.2298
" />
<path d="M30.9718 1.7060
L30.6385 1.7060
" />
<path d="M30.6385 2.2298
L30.6385 1.2298
" />
<path d="M30.6385 1.2298
L31.1147 1.2298
" />
<path d="M31.6385 1.2298
L31.6385 1.4679
" />
<path d="M31.4004 1.3727
L31.6385 1.4679
" />
<path d="M31.6385 1.4679
L31.8766 1.3727
" />
<path d="M31.4956 1.6584
L31.6385 1.4679
" />
<path d="M31.6385 1.4679
L31.7814 1.6584
" />
<path d="M32.4004 1.2298
L32.4004 1.4679
" />
<path d="M32.1623 1.3727
L32.4004 1.4679
" />
<path d="M32.4004 1.4679
L32.6385 1.3727
" />
<path d="M32.2576 1.6584
L32.4004 1.4679
" />
<path d="M32.4004 1.4679
L32.5433 1.6584
" />
</g></g>
<g style="fill:none; 
stroke:#AFAFAF; stroke-width:0.1000; stroke-opacity:1; 
stroke-linecap:round; stroke-linejoin:round;">
<path d="M15.6535 1.7750
L15.6535 10.1550
" />
<path d="M15.6535 1.7750
L16.7330 10.1550
" />
<path d="M15.6535 10.1550
L37.2435 10.1550
" />
<path d="M17.8125 1.7750
L18.8920 10.1550
" />
<path d="M19.9715 1.7750
L21.0510 10.1550
" />
<path d="M22.1305 1.7750
L23.2100 10.1550
" />
<path d="M24.2895 1.7750
L25.3690 10.1550
" />
<path d="M26.4485 1.7750
L27.5280 10.1550
" />
<path d="M28.6075 1.7750
L29.6870 10.1550
" />
<path d="M30.7665 1.7750
L31.8460 10.1550
" />
<path d="M32.9255 1.7750
L34.0050 10.1550
" />
<path d="M35.0845 1.7750
L36.1640 10.1550
" />
<path d="M37.2435 1.7750
L15.6535 1.7750
" />
<path d="M37.2435 10.1550
L37.2435 1.7750
" />
</g> 
</svg>
