<?xml version="1.0" standalone="no"?>
 <!DOCTYPE svg PUBLIC "-//W3C//DTD SVG 1.1//EN" 
 "http://www.w3.org/Graphics/SVG/1.1/DTD/svg11.dtd"> 
<svg
  xmlns:svg="http://www.w3.org/2000/svg"
  xmlns="http://www.w3.org/2000/svg"
  xmlns:xlink="http://www.w3.org/1999/xlink"
  version="1.1"
  width="51.8414mm" height="4.9276mm" viewBox="0.0000 0.0000 51.8414 4.9276">
<title>SVG Image created as working-brd.svg date 2024/04/18 05:58:35 </title>
  <desc>Image generated by PCBNEW </desc>
<g style="fill:#000000; fill-opacity:1.0000;stroke:#000000; stroke-opacity:1.0000;
stroke-linecap:round; stroke-linejoin:round;"
 transform="translate(0 0) scale(1 1)">
</g>
<g style="fill:#FFFFFF; fill-opacity:1.0000; stroke:none;">
<circle cx="25.7228" cy="2.4750" r="0.8750" /> 
</g>
<g style="fill:#FFFFFF; fill-opacity:1.0000; stroke:none;">
<circle cx="33.5228" cy="2.4750" r="0.8750" /> 
</g>
<g style="fill:#FFFFFF; fill-opacity:1.0000; stroke:none;">
<circle cx="41.3228" cy="2.4750" r="0.8750" /> 
</g>
<g style="fill:#FFFFFF; fill-opacity:1.0000; stroke:none;">
<circle cx="49.1228" cy="2.4750" r="0.8750" /> 
<path style="fill:#02FFEE; fill-opacity:0.4000; stroke:none;fill-rule:evenodd;"
d="M 23.7728,0.7750
23.7918,0.6793
23.8460,0.5982
23.9271,0.5440
24.0228,0.5250
27.4228,0.5250
27.5185,0.5440
27.5996,0.5982
27.6538,0.6793
27.6728,0.7750
27.6728,4.1750
27.6538,4.2707
27.5996,4.3518
27.5185,4.4060
27.4228,4.4250
24.0228,4.4250
23.9271,4.4060
23.8460,4.3518
23.7918,4.2707
23.7728,4.1750
Z" /> 
</g>
<g style="fill:#02FFEE; fill-opacity:0.4000; stroke:none;">
<circle cx="33.5228" cy="2.4750" r="1.9500" /> 
</g>
<g style="fill:#02FFEE; fill-opacity:0.4000; stroke:none;">
<circle cx="41.3228" cy="2.4750" r="1.9500" /> 
</g>
<g style="fill:#02FFEE; fill-opacity:0.4000; stroke:none;">
<circle cx="49.1228" cy="2.4750" r="1.9500" /> 
</g>
<g style="fill:#FFFFFF; fill-opacity:1.0000; stroke:none;">
<circle cx="25.7228" cy="2.4750" r="0.8750" /> 
</g>
<g style="fill:#FFFFFF; fill-opacity:1.0000; stroke:none;">
<circle cx="33.5228" cy="2.4750" r="0.8750" /> 
</g>
<g style="fill:#FFFFFF; fill-opacity:1.0000; stroke:none;">
<circle cx="41.3228" cy="2.4750" r="0.8750" /> 
</g>
<g style="fill:#FFFFFF; fill-opacity:1.0000; stroke:none;">
<circle cx="49.1228" cy="2.4750" r="0.8750" /> 
</g>
<g style="fill:#FFFFFF; fill-opacity:1.0000; stroke:none;">
<circle cx="25.7228" cy="2.4750" r="0.8750" /> 
</g>
<g style="fill:#FFFFFF; fill-opacity:1.0000; stroke:none;">
<circle cx="33.5228" cy="2.4750" r="0.8750" /> 
</g>
<g style="fill:#FFFFFF; fill-opacity:1.0000; stroke:none;">
<circle cx="41.3228" cy="2.4750" r="0.8750" /> 
</g>
<g style="fill:#FFFFFF; fill-opacity:1.0000; stroke:none;">
<circle cx="49.1228" cy="2.4750" r="0.8750" /> 
<path style="fill:#D864FF; fill-opacity:0.4000; stroke:none;fill-rule:evenodd;"
d="M 23.7728,0.7750
23.7918,0.6793
23.8460,0.5982
23.9271,0.5440
24.0228,0.5250
27.4228,0.5250
27.5185,0.5440
27.5996,0.5982
27.6538,0.6793
27.6728,0.7750
27.6728,4.1750
27.6538,4.2707
27.5996,4.3518
27.5185,4.4060
27.4228,4.4250
24.0228,4.4250
23.9271,4.4060
23.8460,4.3518
23.7918,4.2707
23.7728,4.1750
Z" /> 
</g>
<g style="fill:#D864FF; fill-opacity:0.4000; stroke:none;">
<circle cx="33.5228" cy="2.4750" r="1.9500" /> 
</g>
<g style="fill:#D864FF; fill-opacity:0.4000; stroke:none;">
<circle cx="41.3228" cy="2.4750" r="1.9500" /> 
</g>
<g style="fill:#D864FF; fill-opacity:0.4000; stroke:none;">
<circle cx="49.1228" cy="2.4750" r="1.9500" /> 
</g>
<g style="fill:none; 
stroke:#F2EDA1; stroke-width:0.1588; stroke-opacity:1; 
stroke-linecap:round; stroke-linejoin:round;">
<text x="25.7228" y="3.1100"
textLength="5.6651" font-size="1.6933" lengthAdjust="spacingAndGlyphs"
text-anchor="middle" opacity="0">REF**</text>
<g class="stroked-text"><desc>REF**</desc>
<path d="M24.0295 3.0543
L23.6061 2.4495
" />
<path d="M23.3037 3.0543
L23.3037 1.7843
" />
<path d="M23.3037 1.7843
L23.7876 1.7843
" />
<path d="M23.7876 1.7843
L23.9085 1.8447
" />
<path d="M23.9085 1.8447
L23.9690 1.9052
" />
<path d="M23.9690 1.9052
L24.0295 2.0262
" />
<path d="M24.0295 2.0262
L24.0295 2.2076
" />
<path d="M24.0295 2.2076
L23.9690 2.3286
" />
<path d="M23.9690 2.3286
L23.9085 2.3890
" />
<path d="M23.9085 2.3890
L23.7876 2.4495
" />
<path d="M23.7876 2.4495
L23.3037 2.4495
" />
<path d="M24.5737 2.3890
L24.9971 2.3890
" />
<path d="M25.1785 3.0543
L24.5737 3.0543
" />
<path d="M24.5737 3.0543
L24.5737 1.7843
" />
<path d="M24.5737 1.7843
L25.1785 1.7843
" />
<path d="M26.1461 2.3890
L25.7228 2.3890
" />
<path d="M25.7228 3.0543
L25.7228 1.7843
" />
<path d="M25.7228 1.7843
L26.3276 1.7843
" />
<path d="M26.9928 1.7843
L26.9928 2.0867
" />
<path d="M26.6904 1.9657
L26.9928 2.0867
" />
<path d="M26.9928 2.0867
L27.2952 1.9657
" />
<path d="M26.8114 2.3286
L26.9928 2.0867
" />
<path d="M26.9928 2.0867
L27.1742 2.3286
" />
<path d="M27.9604 1.7843
L27.9604 2.0867
" />
<path d="M27.6580 1.9657
L27.9604 2.0867
" />
<path d="M27.9604 2.0867
L28.2628 1.9657
" />
<path d="M27.7790 2.3286
L27.9604 2.0867
" />
<path d="M27.9604 2.0867
L28.1418 2.3286
" />
</g></g>
<g style="fill:#FFFFFF; fill-opacity:1.0000; stroke:none;">
<circle cx="25.7228" cy="2.4750" r="0.8750" /> 
</g>
<g style="fill:#FFFFFF; fill-opacity:1.0000; stroke:none;">
<circle cx="33.5228" cy="2.4750" r="0.8750" /> 
</g>
<g style="fill:#FFFFFF; fill-opacity:1.0000; stroke:none;">
<circle cx="41.3228" cy="2.4750" r="0.8750" /> 
</g>
<g style="fill:#FFFFFF; fill-opacity:1.0000; stroke:none;">
<circle cx="49.1228" cy="2.4750" r="0.8750" /> 
</g>
<g style="fill:none; 
stroke:#FF26E2; stroke-width:0.0500; stroke-opacity:1; 
stroke-linecap:round; stroke-linejoin:round;">
<path d="M23.0228 0.0250
L23.0228 4.9250
" />
<path d="M23.0228 4.9250
L28.4228 4.9250
" />
<path d="M28.4228 0.0250
L23.0228 0.0250
" />
<path d="M28.4228 4.9250
L28.4228 0.0250
" />
<path d="M30.8228 0.0250
L30.8228 4.9250
" />
<path d="M30.8228 4.9250
L36.2228 4.9250
" />
<path d="M36.2228 0.0250
L30.8228 0.0250
" />
<path d="M36.2228 4.9250
L36.2228 0.0250
" />
<path d="M38.6228 0.0250
L38.6228 4.9250
" />
<path d="M38.6228 4.9250
L44.0228 4.9250
" />
<path d="M44.0228 0.0250
L38.6228 0.0250
" />
<path d="M44.0228 4.9250
L44.0228 0.0250
" />
<path d="M46.4228 0.0250
L46.4228 4.9250
" />
<path d="M46.4228 4.9250
L51.8228 4.9250
" />
<path d="M51.8228 0.0250
L46.4228 0.0250
" />
<path d="M51.8228 4.9250
L51.8228 0.0250
" />
</g>
<g style="fill:none; 
stroke:#AFAFAF; stroke-width:0.1588; stroke-opacity:1; 
stroke-linecap:round; stroke-linejoin:round;">
<text x="25.7228" y="3.1100"
textLength="51.4456" font-size="1.6933" lengthAdjust="spacingAndGlyphs"
text-anchor="middle" opacity="0">SolderWire-1sqmm_1x04_P7.8mm_D1.4mm_OD3.9mm</text>
<g class="stroked-text"><desc>SolderWire-1sqmm_1x04_P7.8mm_D1.4mm_OD3.9mm</desc>
<path d="M0.3530 2.9938
L0.5345 3.0543
" />
<path d="M0.5345 3.0543
L0.8368 3.0543
" />
<path d="M0.8368 3.0543
L0.9578 2.9938
" />
<path d="M0.9578 2.9938
L1.0183 2.9333
" />
<path d="M1.0183 2.9333
L1.0787 2.8124
" />
<path d="M1.0787 2.8124
L1.0787 2.6914
" />
<path d="M1.0787 2.6914
L1.0183 2.5705
" />
<path d="M1.0183 2.5705
L0.9578 2.5100
" />
<path d="M0.9578 2.5100
L0.8368 2.4495
" />
<path d="M0.8368 2.4495
L0.5949 2.3890
" />
<path d="M0.5949 2.3890
L0.4740 2.3286
" />
<path d="M0.4740 2.3286
L0.4135 2.2681
" />
<path d="M0.4135 2.2681
L0.3530 2.1471
" />
<path d="M0.3530 2.1471
L0.3530 2.0262
" />
<path d="M0.3530 2.0262
L0.4135 1.9052
" />
<path d="M0.4135 1.9052
L0.4740 1.8447
" />
<path d="M0.4740 1.8447
L0.5949 1.7843
" />
<path d="M0.5949 1.7843
L0.8973 1.7843
" />
<path d="M0.8973 1.7843
L1.0787 1.8447
" />
<path d="M1.8045 3.0543
L1.6835 2.9938
" />
<path d="M1.6835 2.9938
L1.6230 2.9333
" />
<path d="M1.6230 2.9333
L1.5626 2.8124
" />
<path d="M1.5626 2.8124
L1.5626 2.4495
" />
<path d="M1.5626 2.4495
L1.6230 2.3286
" />
<path d="M1.6230 2.3286
L1.6835 2.2681
" />
<path d="M1.6835 2.2681
L1.8045 2.2076
" />
<path d="M1.8045 2.2076
L1.9859 2.2076
" />
<path d="M1.9859 2.2076
L2.1068 2.2681
" />
<path d="M2.1068 2.2681
L2.1673 2.3286
" />
<path d="M2.1673 2.3286
L2.2278 2.4495
" />
<path d="M2.2278 2.4495
L2.2278 2.8124
" />
<path d="M2.2278 2.8124
L2.1673 2.9333
" />
<path d="M2.1673 2.9333
L2.1068 2.9938
" />
<path d="M2.1068 2.9938
L1.9859 3.0543
" />
<path d="M1.9859 3.0543
L1.8045 3.0543
" />
<path d="M2.9535 3.0543
L2.8326 2.9938
" />
<path d="M2.8326 2.9938
L2.7721 2.8728
" />
<path d="M2.7721 2.8728
L2.7721 1.7843
" />
<path d="M3.9816 3.0543
L3.9816 1.7843
" />
<path d="M3.9816 2.9938
L3.8606 3.0543
" />
<path d="M3.8606 3.0543
L3.6187 3.0543
" />
<path d="M3.6187 3.0543
L3.4978 2.9938
" />
<path d="M3.4978 2.9938
L3.4373 2.9333
" />
<path d="M3.4373 2.9333
L3.3768 2.8124
" />
<path d="M3.3768 2.8124
L3.3768 2.4495
" />
<path d="M3.3768 2.4495
L3.4373 2.3286
" />
<path d="M3.4373 2.3286
L3.4978 2.2681
" />
<path d="M3.4978 2.2681
L3.6187 2.2076
" />
<path d="M3.6187 2.2076
L3.8606 2.2076
" />
<path d="M3.8606 2.2076
L3.9816 2.2681
" />
<path d="M5.0702 2.9938
L4.9492 3.0543
" />
<path d="M4.9492 3.0543
L4.7073 3.0543
" />
<path d="M4.7073 3.0543
L4.5864 2.9938
" />
<path d="M4.5864 2.9938
L4.5259 2.8728
" />
<path d="M4.5259 2.8728
L4.5259 2.3890
" />
<path d="M4.5259 2.3890
L4.5864 2.2681
" />
<path d="M4.5864 2.2681
L4.7073 2.2076
" />
<path d="M4.7073 2.2076
L4.9492 2.2076
" />
<path d="M4.9492 2.2076
L5.0702 2.2681
" />
<path d="M5.0702 2.2681
L5.1307 2.3890
" />
<path d="M5.1307 2.3890
L5.1307 2.5100
" />
<path d="M5.1307 2.5100
L4.5259 2.6309
" />
<path d="M5.6749 3.0543
L5.6749 2.2076
" />
<path d="M5.6749 2.4495
L5.7354 2.3286
" />
<path d="M5.7354 2.3286
L5.7959 2.2681
" />
<path d="M5.7959 2.2681
L5.9168 2.2076
" />
<path d="M5.9168 2.2076
L6.0378 2.2076
" />
<path d="M6.3402 1.7843
L6.6426 3.0543
" />
<path d="M6.6426 3.0543
L6.8845 2.1471
" />
<path d="M6.8845 2.1471
L7.1264 3.0543
" />
<path d="M7.1264 3.0543
L7.4287 1.7843
" />
<path d="M7.9126 3.0543
L7.9126 2.2076
" />
<path d="M7.9126 1.7843
L7.8521 1.8447
" />
<path d="M7.8521 1.8447
L7.9126 1.9052
" />
<path d="M7.9126 1.9052
L7.9730 1.8447
" />
<path d="M7.9730 1.8447
L7.9126 1.7843
" />
<path d="M7.9126 1.7843
L7.9126 1.9052
" />
<path d="M8.5173 3.0543
L8.5173 2.2076
" />
<path d="M8.5173 2.4495
L8.5778 2.3286
" />
<path d="M8.5778 2.3286
L8.6383 2.2681
" />
<path d="M8.6383 2.2681
L8.7592 2.2076
" />
<path d="M8.7592 2.2076
L8.8802 2.2076
" />
<path d="M9.7873 2.9938
L9.6664 3.0543
" />
<path d="M9.6664 3.0543
L9.4245 3.0543
" />
<path d="M9.4245 3.0543
L9.3035 2.9938
" />
<path d="M9.3035 2.9938
L9.2430 2.8728
" />
<path d="M9.2430 2.8728
L9.2430 2.3890
" />
<path d="M9.2430 2.3890
L9.3035 2.2681
" />
<path d="M9.3035 2.2681
L9.4245 2.2076
" />
<path d="M9.4245 2.2076
L9.6664 2.2076
" />
<path d="M9.6664 2.2076
L9.7873 2.2681
" />
<path d="M9.7873 2.2681
L9.8478 2.3890
" />
<path d="M9.8478 2.3890
L9.8478 2.5100
" />
<path d="M9.8478 2.5100
L9.2430 2.6309
" />
<path d="M10.3921 2.5705
L11.3597 2.5705
" />
<path d="M12.6297 3.0543
L11.9040 3.0543
" />
<path d="M12.2668 3.0543
L12.2668 1.7843
" />
<path d="M12.2668 1.7843
L12.1459 1.9657
" />
<path d="M12.1459 1.9657
L12.0249 2.0867
" />
<path d="M12.0249 2.0867
L11.9040 2.1471
" />
<path d="M13.1135 2.9938
L13.2345 3.0543
" />
<path d="M13.2345 3.0543
L13.4764 3.0543
" />
<path d="M13.4764 3.0543
L13.5973 2.9938
" />
<path d="M13.5973 2.9938
L13.6578 2.8728
" />
<path d="M13.6578 2.8728
L13.6578 2.8124
" />
<path d="M13.6578 2.8124
L13.5973 2.6914
" />
<path d="M13.5973 2.6914
L13.4764 2.6309
" />
<path d="M13.4764 2.6309
L13.2949 2.6309
" />
<path d="M13.2949 2.6309
L13.1740 2.5705
" />
<path d="M13.1740 2.5705
L13.1135 2.4495
" />
<path d="M13.1135 2.4495
L13.1135 2.3890
" />
<path d="M13.1135 2.3890
L13.1740 2.2681
" />
<path d="M13.1740 2.2681
L13.2949 2.2076
" />
<path d="M13.2949 2.2076
L13.4764 2.2076
" />
<path d="M13.4764 2.2076
L13.5973 2.2681
" />
<path d="M14.7464 2.2076
L14.7464 3.4776
" />
<path d="M14.7464 2.9938
L14.6254 3.0543
" />
<path d="M14.6254 3.0543
L14.3835 3.0543
" />
<path d="M14.3835 3.0543
L14.2626 2.9938
" />
<path d="M14.2626 2.9938
L14.2021 2.9333
" />
<path d="M14.2021 2.9333
L14.1416 2.8124
" />
<path d="M14.1416 2.8124
L14.1416 2.4495
" />
<path d="M14.1416 2.4495
L14.2021 2.3286
" />
<path d="M14.2021 2.3286
L14.2626 2.2681
" />
<path d="M14.2626 2.2681
L14.3835 2.2076
" />
<path d="M14.3835 2.2076
L14.6254 2.2076
" />
<path d="M14.6254 2.2076
L14.7464 2.2681
" />
<path d="M15.3511 3.0543
L15.3511 2.2076
" />
<path d="M15.3511 2.3286
L15.4116 2.2681
" />
<path d="M15.4116 2.2681
L15.5326 2.2076
" />
<path d="M15.5326 2.2076
L15.7140 2.2076
" />
<path d="M15.7140 2.2076
L15.8349 2.2681
" />
<path d="M15.8349 2.2681
L15.8954 2.3890
" />
<path d="M15.8954 2.3890
L15.8954 3.0543
" />
<path d="M15.8954 2.3890
L15.9559 2.2681
" />
<path d="M15.9559 2.2681
L16.0768 2.2076
" />
<path d="M16.0768 2.2076
L16.2583 2.2076
" />
<path d="M16.2583 2.2076
L16.3792 2.2681
" />
<path d="M16.3792 2.2681
L16.4397 2.3890
" />
<path d="M16.4397 2.3890
L16.4397 3.0543
" />
<path d="M17.0445 3.0543
L17.0445 2.2076
" />
<path d="M17.0445 2.3286
L17.1049 2.2681
" />
<path d="M17.1049 2.2681
L17.2259 2.2076
" />
<path d="M17.2259 2.2076
L17.4073 2.2076
" />
<path d="M17.4073 2.2076
L17.5283 2.2681
" />
<path d="M17.5283 2.2681
L17.5887 2.3890
" />
<path d="M17.5887 2.3890
L17.5887 3.0543
" />
<path d="M17.5887 2.3890
L17.6492 2.2681
" />
<path d="M17.6492 2.2681
L17.7702 2.2076
" />
<path d="M17.7702 2.2076
L17.9516 2.2076
" />
<path d="M17.9516 2.2076
L18.0726 2.2681
" />
<path d="M18.0726 2.2681
L18.1330 2.3890
" />
<path d="M18.1330 2.3890
L18.1330 3.0543
" />
<path d="M18.4354 3.1752
L19.4030 3.1752
" />
<path d="M20.3706 3.0543
L19.6449 3.0543
" />
<path d="M20.0078 3.0543
L20.0078 1.7843
" />
<path d="M20.0078 1.7843
L19.8868 1.9657
" />
<path d="M19.8868 1.9657
L19.7659 2.0867
" />
<path d="M19.7659 2.0867
L19.6449 2.1471
" />
<path d="M20.7940 3.0543
L21.4592 2.2076
" />
<path d="M20.7940 2.2076
L21.4592 3.0543
" />
<path d="M22.1849 1.7843
L22.3059 1.7843
" />
<path d="M22.3059 1.7843
L22.4268 1.8447
" />
<path d="M22.4268 1.8447
L22.4873 1.9052
" />
<path d="M22.4873 1.9052
L22.5478 2.0262
" />
<path d="M22.5478 2.0262
L22.6083 2.2681
" />
<path d="M22.6083 2.2681
L22.6083 2.5705
" />
<path d="M22.6083 2.5705
L22.5478 2.8124
" />
<path d="M22.5478 2.8124
L22.4873 2.9333
" />
<path d="M22.4873 2.9333
L22.4268 2.9938
" />
<path d="M22.4268 2.9938
L22.3059 3.0543
" />
<path d="M22.3059 3.0543
L22.1849 3.0543
" />
<path d="M22.1849 3.0543
L22.0640 2.9938
" />
<path d="M22.0640 2.9938
L22.0035 2.9333
" />
<path d="M22.0035 2.9333
L21.9430 2.8124
" />
<path d="M21.9430 2.8124
L21.8826 2.5705
" />
<path d="M21.8826 2.5705
L21.8826 2.2681
" />
<path d="M21.8826 2.2681
L21.9430 2.0262
" />
<path d="M21.9430 2.0262
L22.0035 1.9052
" />
<path d="M22.0035 1.9052
L22.0640 1.8447
" />
<path d="M22.0640 1.8447
L22.1849 1.7843
" />
<path d="M23.6968 2.2076
L23.6968 3.0543
" />
<path d="M23.3945 1.7238
L23.0921 2.6309
" />
<path d="M23.0921 2.6309
L23.8783 2.6309
" />
<path d="M24.0597 3.1752
L25.0273 3.1752
" />
<path d="M25.3297 3.0543
L25.3297 1.7843
" />
<path d="M25.3297 1.7843
L25.8135 1.7843
" />
<path d="M25.8135 1.7843
L25.9345 1.8447
" />
<path d="M25.9345 1.8447
L25.9949 1.9052
" />
<path d="M25.9949 1.9052
L26.0554 2.0262
" />
<path d="M26.0554 2.0262
L26.0554 2.2076
" />
<path d="M26.0554 2.2076
L25.9949 2.3286
" />
<path d="M25.9949 2.3286
L25.9345 2.3890
" />
<path d="M25.9345 2.3890
L25.8135 2.4495
" />
<path d="M25.8135 2.4495
L25.3297 2.4495
" />
<path d="M26.4787 1.7843
L27.3254 1.7843
" />
<path d="M27.3254 1.7843
L26.7811 3.0543
" />
<path d="M27.8092 2.9333
L27.8697 2.9938
" />
<path d="M27.8697 2.9938
L27.8092 3.0543
" />
<path d="M27.8092 3.0543
L27.7487 2.9938
" />
<path d="M27.7487 2.9938
L27.8092 2.9333
" />
<path d="M27.8092 2.9333
L27.8092 3.0543
" />
<path d="M28.5954 2.3286
L28.4745 2.2681
" />
<path d="M28.4745 2.2681
L28.4140 2.2076
" />
<path d="M28.4140 2.2076
L28.3535 2.0867
" />
<path d="M28.3535 2.0867
L28.3535 2.0262
" />
<path d="M28.3535 2.0262
L28.4140 1.9052
" />
<path d="M28.4140 1.9052
L28.4745 1.8447
" />
<path d="M28.4745 1.8447
L28.5954 1.7843
" />
<path d="M28.5954 1.7843
L28.8373 1.7843
" />
<path d="M28.8373 1.7843
L28.9583 1.8447
" />
<path d="M28.9583 1.8447
L29.0187 1.9052
" />
<path d="M29.0187 1.9052
L29.0792 2.0262
" />
<path d="M29.0792 2.0262
L29.0792 2.0867
" />
<path d="M29.0792 2.0867
L29.0187 2.2076
" />
<path d="M29.0187 2.2076
L28.9583 2.2681
" />
<path d="M28.9583 2.2681
L28.8373 2.3286
" />
<path d="M28.8373 2.3286
L28.5954 2.3286
" />
<path d="M28.5954 2.3286
L28.4745 2.3890
" />
<path d="M28.4745 2.3890
L28.4140 2.4495
" />
<path d="M28.4140 2.4495
L28.3535 2.5705
" />
<path d="M28.3535 2.5705
L28.3535 2.8124
" />
<path d="M28.3535 2.8124
L28.4140 2.9333
" />
<path d="M28.4140 2.9333
L28.4745 2.9938
" />
<path d="M28.4745 2.9938
L28.5954 3.0543
" />
<path d="M28.5954 3.0543
L28.8373 3.0543
" />
<path d="M28.8373 3.0543
L28.9583 2.9938
" />
<path d="M28.9583 2.9938
L29.0187 2.9333
" />
<path d="M29.0187 2.9333
L29.0792 2.8124
" />
<path d="M29.0792 2.8124
L29.0792 2.5705
" />
<path d="M29.0792 2.5705
L29.0187 2.4495
" />
<path d="M29.0187 2.4495
L28.9583 2.3890
" />
<path d="M28.9583 2.3890
L28.8373 2.3286
" />
<path d="M29.6235 3.0543
L29.6235 2.2076
" />
<path d="M29.6235 2.3286
L29.6840 2.2681
" />
<path d="M29.6840 2.2681
L29.8049 2.2076
" />
<path d="M29.8049 2.2076
L29.9864 2.2076
" />
<path d="M29.9864 2.2076
L30.1073 2.2681
" />
<path d="M30.1073 2.2681
L30.1678 2.3890
" />
<path d="M30.1678 2.3890
L30.1678 3.0543
" />
<path d="M30.1678 2.3890
L30.2283 2.2681
" />
<path d="M30.2283 2.2681
L30.3492 2.2076
" />
<path d="M30.3492 2.2076
L30.5306 2.2076
" />
<path d="M30.5306 2.2076
L30.6516 2.2681
" />
<path d="M30.6516 2.2681
L30.7121 2.3890
" />
<path d="M30.7121 2.3890
L30.7121 3.0543
" />
<path d="M31.3168 3.0543
L31.3168 2.2076
" />
<path d="M31.3168 2.3286
L31.3773 2.2681
" />
<path d="M31.3773 2.2681
L31.4983 2.2076
" />
<path d="M31.4983 2.2076
L31.6797 2.2076
" />
<path d="M31.6797 2.2076
L31.8006 2.2681
" />
<path d="M31.8006 2.2681
L31.8611 2.3890
" />
<path d="M31.8611 2.3890
L31.8611 3.0543
" />
<path d="M31.8611 2.3890
L31.9216 2.2681
" />
<path d="M31.9216 2.2681
L32.0426 2.2076
" />
<path d="M32.0426 2.2076
L32.2240 2.2076
" />
<path d="M32.2240 2.2076
L32.3449 2.2681
" />
<path d="M32.3449 2.2681
L32.4054 2.3890
" />
<path d="M32.4054 2.3890
L32.4054 3.0543
" />
<path d="M32.7078 3.1752
L33.6754 3.1752
" />
<path d="M33.9778 3.0543
L33.9778 1.7843
" />
<path d="M33.9778 1.7843
L34.2802 1.7843
" />
<path d="M34.2802 1.7843
L34.4616 1.8447
" />
<path d="M34.4616 1.8447
L34.5826 1.9657
" />
<path d="M34.5826 1.9657
L34.6430 2.0867
" />
<path d="M34.6430 2.0867
L34.7035 2.3286
" />
<path d="M34.7035 2.3286
L34.7035 2.5100
" />
<path d="M34.7035 2.5100
L34.6430 2.7519
" />
<path d="M34.6430 2.7519
L34.5826 2.8728
" />
<path d="M34.5826 2.8728
L34.4616 2.9938
" />
<path d="M34.4616 2.9938
L34.2802 3.0543
" />
<path d="M34.2802 3.0543
L33.9778 3.0543
" />
<path d="M35.9130 3.0543
L35.1873 3.0543
" />
<path d="M35.5502 3.0543
L35.5502 1.7843
" />
<path d="M35.5502 1.7843
L35.4292 1.9657
" />
<path d="M35.4292 1.9657
L35.3083 2.0867
" />
<path d="M35.3083 2.0867
L35.1873 2.1471
" />
<path d="M36.4573 2.9333
L36.5178 2.9938
" />
<path d="M36.5178 2.9938
L36.4573 3.0543
" />
<path d="M36.4573 3.0543
L36.3968 2.9938
" />
<path d="M36.3968 2.9938
L36.4573 2.9333
" />
<path d="M36.4573 2.9333
L36.4573 3.0543
" />
<path d="M37.6064 2.2076
L37.6064 3.0543
" />
<path d="M37.3040 1.7238
L37.0016 2.6309
" />
<path d="M37.0016 2.6309
L37.7878 2.6309
" />
<path d="M38.2716 3.0543
L38.2716 2.2076
" />
<path d="M38.2716 2.3286
L38.3321 2.2681
" />
<path d="M38.3321 2.2681
L38.4530 2.2076
" />
<path d="M38.4530 2.2076
L38.6345 2.2076
" />
<path d="M38.6345 2.2076
L38.7554 2.2681
" />
<path d="M38.7554 2.2681
L38.8159 2.3890
" />
<path d="M38.8159 2.3890
L38.8159 3.0543
" />
<path d="M38.8159 2.3890
L38.8764 2.2681
" />
<path d="M38.8764 2.2681
L38.9973 2.2076
" />
<path d="M38.9973 2.2076
L39.1787 2.2076
" />
<path d="M39.1787 2.2076
L39.2997 2.2681
" />
<path d="M39.2997 2.2681
L39.3602 2.3890
" />
<path d="M39.3602 2.3890
L39.3602 3.0543
" />
<path d="M39.9649 3.0543
L39.9649 2.2076
" />
<path d="M39.9649 2.3286
L40.0254 2.2681
" />
<path d="M40.0254 2.2681
L40.1464 2.2076
" />
<path d="M40.1464 2.2076
L40.3278 2.2076
" />
<path d="M40.3278 2.2076
L40.4487 2.2681
" />
<path d="M40.4487 2.2681
L40.5092 2.3890
" />
<path d="M40.5092 2.3890
L40.5092 3.0543
" />
<path d="M40.5092 2.3890
L40.5697 2.2681
" />
<path d="M40.5697 2.2681
L40.6906 2.2076
" />
<path d="M40.6906 2.2076
L40.8721 2.2076
" />
<path d="M40.8721 2.2076
L40.9930 2.2681
" />
<path d="M40.9930 2.2681
L41.0535 2.3890
" />
<path d="M41.0535 2.3890
L41.0535 3.0543
" />
<path d="M41.3559 3.1752
L42.3235 3.1752
" />
<path d="M42.8678 1.7843
L43.1097 1.7843
" />
<path d="M43.1097 1.7843
L43.2306 1.8447
" />
<path d="M43.2306 1.8447
L43.3516 1.9657
" />
<path d="M43.3516 1.9657
L43.4121 2.2076
" />
<path d="M43.4121 2.2076
L43.4121 2.6309
" />
<path d="M43.4121 2.6309
L43.3516 2.8728
" />
<path d="M43.3516 2.8728
L43.2306 2.9938
" />
<path d="M43.2306 2.9938
L43.1097 3.0543
" />
<path d="M43.1097 3.0543
L42.8678 3.0543
" />
<path d="M42.8678 3.0543
L42.7468 2.9938
" />
<path d="M42.7468 2.9938
L42.6259 2.8728
" />
<path d="M42.6259 2.8728
L42.5654 2.6309
" />
<path d="M42.5654 2.6309
L42.5654 2.2076
" />
<path d="M42.5654 2.2076
L42.6259 1.9657
" />
<path d="M42.6259 1.9657
L42.7468 1.8447
" />
<path d="M42.7468 1.8447
L42.8678 1.7843
" />
<path d="M43.9564 3.0543
L43.9564 1.7843
" />
<path d="M43.9564 1.7843
L44.2587 1.7843
" />
<path d="M44.2587 1.7843
L44.4402 1.8447
" />
<path d="M44.4402 1.8447
L44.5611 1.9657
" />
<path d="M44.5611 1.9657
L44.6216 2.0867
" />
<path d="M44.6216 2.0867
L44.6821 2.3286
" />
<path d="M44.6821 2.3286
L44.6821 2.5100
" />
<path d="M44.6821 2.5100
L44.6216 2.7519
" />
<path d="M44.6216 2.7519
L44.5611 2.8728
" />
<path d="M44.5611 2.8728
L44.4402 2.9938
" />
<path d="M44.4402 2.9938
L44.2587 3.0543
" />
<path d="M44.2587 3.0543
L43.9564 3.0543
" />
<path d="M45.1054 1.7843
L45.8916 1.7843
" />
<path d="M45.8916 1.7843
L45.4683 2.2681
" />
<path d="M45.4683 2.2681
L45.6497 2.2681
" />
<path d="M45.6497 2.2681
L45.7706 2.3286
" />
<path d="M45.7706 2.3286
L45.8311 2.3890
" />
<path d="M45.8311 2.3890
L45.8916 2.5100
" />
<path d="M45.8916 2.5100
L45.8916 2.8124
" />
<path d="M45.8916 2.8124
L45.8311 2.9333
" />
<path d="M45.8311 2.9333
L45.7706 2.9938
" />
<path d="M45.7706 2.9938
L45.6497 3.0543
" />
<path d="M45.6497 3.0543
L45.2868 3.0543
" />
<path d="M45.2868 3.0543
L45.1659 2.9938
" />
<path d="M45.1659 2.9938
L45.1054 2.9333
" />
<path d="M46.4359 2.9333
L46.4964 2.9938
" />
<path d="M46.4964 2.9938
L46.4359 3.0543
" />
<path d="M46.4359 3.0543
L46.3754 2.9938
" />
<path d="M46.3754 2.9938
L46.4359 2.9333
" />
<path d="M46.4359 2.9333
L46.4359 3.0543
" />
<path d="M47.1011 3.0543
L47.3430 3.0543
" />
<path d="M47.3430 3.0543
L47.4640 2.9938
" />
<path d="M47.4640 2.9938
L47.5245 2.9333
" />
<path d="M47.5245 2.9333
L47.6454 2.7519
" />
<path d="M47.6454 2.7519
L47.7059 2.5100
" />
<path d="M47.7059 2.5100
L47.7059 2.0262
" />
<path d="M47.7059 2.0262
L47.6454 1.9052
" />
<path d="M47.6454 1.9052
L47.5849 1.8447
" />
<path d="M47.5849 1.8447
L47.4640 1.7843
" />
<path d="M47.4640 1.7843
L47.2221 1.7843
" />
<path d="M47.2221 1.7843
L47.1011 1.8447
" />
<path d="M47.1011 1.8447
L47.0406 1.9052
" />
<path d="M47.0406 1.9052
L46.9802 2.0262
" />
<path d="M46.9802 2.0262
L46.9802 2.3286
" />
<path d="M46.9802 2.3286
L47.0406 2.4495
" />
<path d="M47.0406 2.4495
L47.1011 2.5100
" />
<path d="M47.1011 2.5100
L47.2221 2.5705
" />
<path d="M47.2221 2.5705
L47.4640 2.5705
" />
<path d="M47.4640 2.5705
L47.5849 2.5100
" />
<path d="M47.5849 2.5100
L47.6454 2.4495
" />
<path d="M47.6454 2.4495
L47.7059 2.3286
" />
<path d="M48.2502 3.0543
L48.2502 2.2076
" />
<path d="M48.2502 2.3286
L48.3106 2.2681
" />
<path d="M48.3106 2.2681
L48.4316 2.2076
" />
<path d="M48.4316 2.2076
L48.6130 2.2076
" />
<path d="M48.6130 2.2076
L48.7340 2.2681
" />
<path d="M48.7340 2.2681
L48.7945 2.3890
" />
<path d="M48.7945 2.3890
L48.7945 3.0543
" />
<path d="M48.7945 2.3890
L48.8549 2.2681
" />
<path d="M48.8549 2.2681
L48.9759 2.2076
" />
<path d="M48.9759 2.2076
L49.1573 2.2076
" />
<path d="M49.1573 2.2076
L49.2783 2.2681
" />
<path d="M49.2783 2.2681
L49.3387 2.3890
" />
<path d="M49.3387 2.3890
L49.3387 3.0543
" />
<path d="M49.9435 3.0543
L49.9435 2.2076
" />
<path d="M49.9435 2.3286
L50.0040 2.2681
" />
<path d="M50.0040 2.2681
L50.1249 2.2076
" />
<path d="M50.1249 2.2076
L50.3064 2.2076
" />
<path d="M50.3064 2.2076
L50.4273 2.2681
" />
<path d="M50.4273 2.2681
L50.4878 2.3890
" />
<path d="M50.4878 2.3890
L50.4878 3.0543
" />
<path d="M50.4878 2.3890
L50.5483 2.2681
" />
<path d="M50.5483 2.2681
L50.6692 2.2076
" />
<path d="M50.6692 2.2076
L50.8506 2.2076
" />
<path d="M50.8506 2.2076
L50.9716 2.2681
" />
<path d="M50.9716 2.2681
L51.0321 2.3890
" />
<path d="M51.0321 2.3890
L51.0321 3.0543
" />
</g></g>
<g style="fill:none; 
stroke:#AFAFAF; stroke-width:0.1500; stroke-opacity:1; 
stroke-linecap:round; stroke-linejoin:round;">
<g transform="rotate(-90.000000 37.4228 2.4750)">
<text x="37.4228" y="2.9750"
textLength="4.5357" font-size="1.3333" lengthAdjust="spacingAndGlyphs"
text-anchor="middle" opacity="0">REF**</text>
</g>
<g class="stroked-text"><desc>REF**</desc>
<path d="M37.8776 3.8083
L37.4014 4.1417
" />
<path d="M37.8776 4.3798
L36.8776 4.3798
" />
<path d="M36.8776 4.3798
L36.8776 3.9988
" />
<path d="M36.8776 3.9988
L36.9252 3.9036
" />
<path d="M36.9252 3.9036
L36.9728 3.8560
" />
<path d="M36.9728 3.8560
L37.0681 3.8083
" />
<path d="M37.0681 3.8083
L37.2109 3.8083
" />
<path d="M37.2109 3.8083
L37.3062 3.8560
" />
<path d="M37.3062 3.8560
L37.3538 3.9036
" />
<path d="M37.3538 3.9036
L37.4014 3.9988
" />
<path d="M37.4014 3.9988
L37.4014 4.3798
" />
<path d="M37.3538 3.3798
L37.3538 3.0464
" />
<path d="M37.8776 2.9036
L37.8776 3.3798
" />
<path d="M37.8776 3.3798
L36.8776 3.3798
" />
<path d="M36.8776 3.3798
L36.8776 2.9036
" />
<path d="M37.3538 2.1417
L37.3538 2.4750
" />
<path d="M37.8776 2.4750
L36.8776 2.4750
" />
<path d="M36.8776 2.4750
L36.8776 1.9988
" />
<path d="M36.8776 1.4750
L37.1157 1.4750
" />
<path d="M37.0205 1.7131
L37.1157 1.4750
" />
<path d="M37.1157 1.4750
L37.0205 1.2369
" />
<path d="M37.3062 1.6179
L37.1157 1.4750
" />
<path d="M37.1157 1.4750
L37.3062 1.3321
" />
<path d="M36.8776 0.7131
L37.1157 0.7131
" />
<path d="M37.0205 0.9512
L37.1157 0.7131
" />
<path d="M37.1157 0.7131
L37.0205 0.4750
" />
<path d="M37.3062 0.8560
L37.1157 0.7131
" />
<path d="M37.1157 0.7131
L37.3062 0.5702
" />
</g></g>
<g style="fill:none; 
stroke:#AFAFAF; stroke-width:0.1000; stroke-opacity:1; 
stroke-linecap:round; stroke-linejoin:round;">
<circle cx="25.7228" cy="2.4750" r="1.9500" /> 
<circle cx="33.5228" cy="2.4750" r="1.9500" /> 
<circle cx="41.3228" cy="2.4750" r="1.9500" /> 
<circle cx="49.1228" cy="2.4750" r="1.9500" /> 
</g> 
</svg>
