<?xml version="1.0" standalone="no"?>
 <!DOCTYPE svg PUBLIC "-//W3C//DTD SVG 1.1//EN" 
 "http://www.w3.org/Graphics/SVG/1.1/DTD/svg11.dtd"> 
<svg
  xmlns:svg="http://www.w3.org/2000/svg"
  xmlns="http://www.w3.org/2000/svg"
  xmlns:xlink="http://www.w3.org/1999/xlink"
  version="1.1"
  width="34.3662mm" height="18.5166mm" viewBox="0.0000 0.0000 34.3662 18.5166">
<title>SVG Image created as working-brd.svg date 2024/03/27 07:50:48 </title>
  <desc>Image generated by PCBNEW </desc>
<g style="fill:#000000; fill-opacity:1.0000;stroke:#000000; stroke-opacity:1.0000;
stroke-linecap:round; stroke-linejoin:round;"
 transform="translate(0 0) scale(1 1)">
<path style="fill:#4D7FC4; fill-opacity:1.0000; stroke:none;fill-rule:evenodd;"
d="M 12.1173,4.0400
12.1173,0.5600
13.9640,0.5600
13.9640,4.0400
Z" /> 
<path style="fill:#4D7FC4; fill-opacity:1.0000; stroke:none;fill-rule:evenodd;"
d="M 14.8873,4.0400
14.8873,0.5600
16.7340,0.5600
16.7340,4.0400
Z" /> 
<path style="fill:#4D7FC4; fill-opacity:1.0000; stroke:none;fill-rule:evenodd;"
d="M 17.6573,4.0400
17.6573,0.5600
19.5040,0.5600
19.5040,4.0400
Z" /> 
<path style="fill:#4D7FC4; fill-opacity:1.0000; stroke:none;fill-rule:evenodd;"
d="M 20.4273,4.0400
20.4273,0.5600
22.2740,0.5600
22.2740,4.0400
Z" /> 
<path style="fill:#02FFEE; fill-opacity:0.4000; stroke:none;fill-rule:evenodd;"
d="M 12.1173,4.0400
12.1173,0.5600
13.9640,0.5600
13.9640,4.0400
Z" /> 
<path style="fill:#02FFEE; fill-opacity:0.4000; stroke:none;fill-rule:evenodd;"
d="M 14.8873,4.0400
14.8873,0.5600
16.7340,0.5600
16.7340,4.0400
Z" /> 
<path style="fill:#02FFEE; fill-opacity:0.4000; stroke:none;fill-rule:evenodd;"
d="M 17.6573,4.0400
17.6573,0.5600
19.5040,0.5600
19.5040,4.0400
Z" /> 
<path style="fill:#02FFEE; fill-opacity:0.4000; stroke:none;fill-rule:evenodd;"
d="M 20.4273,4.0400
20.4273,0.5600
22.2740,0.5600
22.2740,4.0400
Z" /> 
<path style="fill:#00C2C2; fill-opacity:0.9000; stroke:none;fill-rule:evenodd;"
d="M 12.1173,4.0400
12.1173,0.5600
13.9640,0.5600
13.9640,4.0400
Z" /> 
<path style="fill:#00C2C2; fill-opacity:0.9000; stroke:none;fill-rule:evenodd;"
d="M 14.8873,4.0400
14.8873,0.5600
16.7340,0.5600
16.7340,4.0400
Z" /> 
<path style="fill:#00C2C2; fill-opacity:0.9000; stroke:none;fill-rule:evenodd;"
d="M 17.6573,4.0400
17.6573,0.5600
19.5040,0.5600
19.5040,4.0400
Z" /> 
<path style="fill:#00C2C2; fill-opacity:0.9000; stroke:none;fill-rule:evenodd;"
d="M 20.4273,4.0400
20.4273,0.5600
22.2740,0.5600
22.2740,4.0400
Z" /> 
</g>
<g style="fill:none; 
stroke:#585D84; stroke-width:0.1000; stroke-opacity:1; 
stroke-linecap:round; stroke-linejoin:round;">
<path d="M12.4406 1.3900
L12.4406 4.2900
" />
<path d="M12.4406 4.2900
L13.6406 4.2900
" />
<path d="M13.6406 1.3900
L12.4406 1.3900
" />
<path d="M13.6406 4.2900
L13.6406 1.3900
" />
<path d="M15.2106 1.3900
L15.2106 4.2900
" />
<path d="M15.2106 4.2900
L16.4107 4.2900
" />
<path d="M16.4107 1.3900
L15.2106 1.3900
" />
<path d="M16.4107 4.2900
L16.4107 1.3900
" />
<path d="M17.9807 1.3900
L17.9807 4.2900
" />
<path d="M17.9807 4.2900
L19.1806 4.2900
" />
<path d="M19.1806 1.3900
L17.9807 1.3900
" />
<path d="M19.1806 4.2900
L19.1806 1.3900
" />
<path d="M20.7507 1.3900
L20.7507 4.2900
" />
<path d="M20.7507 4.2900
L21.9506 4.2900
" />
<path d="M21.9506 1.3900
L20.7507 1.3900
" />
<path d="M21.9506 4.2900
L21.9506 1.3900
" />
<path style="fill:#C83434; fill-opacity:1.0000; stroke:none;fill-rule:evenodd;"
d="M 10.7323,4.0400
10.7323,0.5600
12.5790,0.5600
12.5790,4.0400
Z" /> 
<path style="fill:#C83434; fill-opacity:1.0000; stroke:none;fill-rule:evenodd;"
d="M 13.5023,4.0400
13.5023,0.5600
15.3490,0.5600
15.3490,4.0400
Z" /> 
<path style="fill:#C83434; fill-opacity:1.0000; stroke:none;fill-rule:evenodd;"
d="M 16.2723,4.0400
16.2723,0.5600
18.1190,0.5600
18.1190,4.0400
Z" /> 
<path style="fill:#C83434; fill-opacity:1.0000; stroke:none;fill-rule:evenodd;"
d="M 19.0423,4.0400
19.0423,0.5600
20.8890,0.5600
20.8890,4.0400
Z" /> 
<path style="fill:#C83434; fill-opacity:1.0000; stroke:none;fill-rule:evenodd;"
d="M 21.8123,4.0400
21.8123,0.5600
23.6590,0.5600
23.6590,4.0400
Z" /> 
<path style="fill:#D864FF; fill-opacity:0.4000; stroke:none;fill-rule:evenodd;"
d="M 10.7323,4.0400
10.7323,0.5600
12.5790,0.5600
12.5790,4.0400
Z" /> 
<path style="fill:#D864FF; fill-opacity:0.4000; stroke:none;fill-rule:evenodd;"
d="M 13.5023,4.0400
13.5023,0.5600
15.3490,0.5600
15.3490,4.0400
Z" /> 
<path style="fill:#D864FF; fill-opacity:0.4000; stroke:none;fill-rule:evenodd;"
d="M 16.2723,4.0400
16.2723,0.5600
18.1190,0.5600
18.1190,4.0400
Z" /> 
<path style="fill:#D864FF; fill-opacity:0.4000; stroke:none;fill-rule:evenodd;"
d="M 19.0423,4.0400
19.0423,0.5600
20.8890,0.5600
20.8890,4.0400
Z" /> 
<path style="fill:#D864FF; fill-opacity:0.4000; stroke:none;fill-rule:evenodd;"
d="M 21.8123,4.0400
21.8123,0.5600
23.6590,0.5600
23.6590,4.0400
Z" /> 
<path style="fill:#B4A09A; fill-opacity:0.9000; stroke:none;fill-rule:evenodd;"
d="M 10.7323,4.0400
10.7323,0.5600
12.5790,0.5600
12.5790,4.0400
Z" /> 
<path style="fill:#B4A09A; fill-opacity:0.9000; stroke:none;fill-rule:evenodd;"
d="M 13.5023,4.0400
13.5023,0.5600
15.3490,0.5600
15.3490,4.0400
Z" /> 
<path style="fill:#B4A09A; fill-opacity:0.9000; stroke:none;fill-rule:evenodd;"
d="M 16.2723,4.0400
16.2723,0.5600
18.1190,0.5600
18.1190,4.0400
Z" /> 
<path style="fill:#B4A09A; fill-opacity:0.9000; stroke:none;fill-rule:evenodd;"
d="M 19.0423,4.0400
19.0423,0.5600
20.8890,0.5600
20.8890,4.0400
Z" /> 
<path style="fill:#B4A09A; fill-opacity:0.9000; stroke:none;fill-rule:evenodd;"
d="M 21.8123,4.0400
21.8123,0.5600
23.6590,0.5600
23.6590,4.0400
Z" /> 
</g>
<g style="fill:none; 
stroke:#F2EDA1; stroke-width:0.1588; stroke-opacity:1; 
stroke-linecap:round; stroke-linejoin:round;">
<text x="17.1957" y="2.9350"
textLength="5.6651" font-size="1.6933" lengthAdjust="spacingAndGlyphs"
text-anchor="middle" opacity="0">REF**</text>
<g class="stroked-text"><desc>REF**</desc>
<path d="M15.5023 2.8793
L15.0790 2.2745
" />
<path d="M14.7766 2.8793
L14.7766 1.6093
" />
<path d="M14.7766 1.6093
L15.2604 1.6093
" />
<path d="M15.2604 1.6093
L15.3814 1.6697
" />
<path d="M15.3814 1.6697
L15.4418 1.7302
" />
<path d="M15.4418 1.7302
L15.5023 1.8512
" />
<path d="M15.5023 1.8512
L15.5023 2.0326
" />
<path d="M15.5023 2.0326
L15.4418 2.1536
" />
<path d="M15.4418 2.1536
L15.3814 2.2140
" />
<path d="M15.3814 2.2140
L15.2604 2.2745
" />
<path d="M15.2604 2.2745
L14.7766 2.2745
" />
<path d="M16.0466 2.2140
L16.4699 2.2140
" />
<path d="M16.6514 2.8793
L16.0466 2.8793
" />
<path d="M16.0466 2.8793
L16.0466 1.6093
" />
<path d="M16.0466 1.6093
L16.6514 1.6093
" />
<path d="M17.6190 2.2140
L17.1957 2.2140
" />
<path d="M17.1957 2.8793
L17.1957 1.6093
" />
<path d="M17.1957 1.6093
L17.8004 1.6093
" />
<path d="M18.4657 1.6093
L18.4657 1.9117
" />
<path d="M18.1633 1.7907
L18.4657 1.9117
" />
<path d="M18.4657 1.9117
L18.7680 1.7907
" />
<path d="M18.2842 2.1536
L18.4657 1.9117
" />
<path d="M18.4657 1.9117
L18.6471 2.1536
" />
<path d="M19.4333 1.6093
L19.4333 1.9117
" />
<path d="M19.1309 1.7907
L19.4333 1.9117
" />
<path d="M19.4333 1.9117
L19.7356 1.7907
" />
<path d="M19.2518 2.1536
L19.4333 1.9117
" />
<path d="M19.4333 1.9117
L19.6147 2.1536
" />
</g></g>
<g style="fill:none; 
stroke:#F2EDA1; stroke-width:0.1200; stroke-opacity:1; 
stroke-linecap:round; stroke-linejoin:round;">
<path d="M10.2323 0.0600
L14.4256 0.0600
" />
<path d="M10.2323 2.3000
L10.2323 0.0600
" />
<path d="M10.4723 0.3000
L10.4723 4.0400
" />
<path d="M23.9190 0.3000
L10.4723 0.3000
" />
<path d="M23.9190 4.0400
L23.9190 0.3000
" />
</g>
<g style="fill:none; 
stroke:#FF26E2; stroke-width:0.0500; stroke-opacity:1; 
stroke-linecap:round; stroke-linejoin:round;">
<path d="M1.2456 11.1000
L8.1456 11.1000
" />
<path d="M1.2456 12.5000
L1.2456 11.1000
" />
<path d="M8.1456 6.6000
L9.1456 6.6000
" />
<path d="M8.1456 11.1000
L8.1456 6.6000
" />
<path d="M8.5457 12.5000
L1.2456 12.5000
" />
<path d="M8.5457 18.5000
L8.5457 12.5000
" />
<path d="M9.1456 3.8000
L10.1956 3.8000
" />
<path d="M9.1456 6.6000
L9.1456 3.8000
" />
<path d="M10.1956 0.0500
L24.1957 0.0500
" />
<path d="M10.1956 3.8000
L10.1956 0.0500
" />
<path d="M24.1957 0.0500
L24.1957 3.8000
" />
<path d="M24.1957 3.8000
L25.2456 3.8000
" />
<path d="M25.2456 3.8000
L25.2456 6.6000
" />
<path d="M25.2456 6.6000
L26.2456 6.6000
" />
<path d="M25.8456 12.5000
L25.8456 18.5000
" />
<path d="M25.8456 18.5000
L8.5457 18.5000
" />
<path d="M26.2456 6.6000
L26.2456 11.1000
" />
<path d="M26.2456 11.1000
L33.1456 11.1000
" />
<path d="M33.1456 11.1000
L33.1456 12.5000
" />
<path d="M33.1456 12.5000
L25.8456 12.5000
" />
</g>
<g style="fill:none; 
stroke:#AFAFAF; stroke-width:0.1588; stroke-opacity:1; 
stroke-linecap:round; stroke-linejoin:round;">
<text x="17.1957" y="2.9350"
textLength="34.3913" font-size="1.6933" lengthAdjust="spacingAndGlyphs"
text-anchor="middle" opacity="0">DSUB-9_Male_EdgeMount_P2.77mm</text>
<g class="stroked-text"><desc>DSUB-9_Male_EdgeMount_P2.77mm</desc>
<path d="M0.4135 2.8793
L0.4135 1.6093
" />
<path d="M0.4135 1.6093
L0.7159 1.6093
" />
<path d="M0.7159 1.6093
L0.8973 1.6697
" />
<path d="M0.8973 1.6697
L1.0183 1.7907
" />
<path d="M1.0183 1.7907
L1.0787 1.9117
" />
<path d="M1.0787 1.9117
L1.1392 2.1536
" />
<path d="M1.1392 2.1536
L1.1392 2.3350
" />
<path d="M1.1392 2.3350
L1.0787 2.5769
" />
<path d="M1.0787 2.5769
L1.0183 2.6978
" />
<path d="M1.0183 2.6978
L0.8973 2.8188
" />
<path d="M0.8973 2.8188
L0.7159 2.8793
" />
<path d="M0.7159 2.8793
L0.4135 2.8793
" />
<path d="M1.6230 2.8188
L1.8045 2.8793
" />
<path d="M1.8045 2.8793
L2.1068 2.8793
" />
<path d="M2.1068 2.8793
L2.2278 2.8188
" />
<path d="M2.2278 2.8188
L2.2883 2.7583
" />
<path d="M2.2883 2.7583
L2.3487 2.6374
" />
<path d="M2.3487 2.6374
L2.3487 2.5164
" />
<path d="M2.3487 2.5164
L2.2883 2.3955
" />
<path d="M2.2883 2.3955
L2.2278 2.3350
" />
<path d="M2.2278 2.3350
L2.1068 2.2745
" />
<path d="M2.1068 2.2745
L1.8649 2.2140
" />
<path d="M1.8649 2.2140
L1.7440 2.1536
" />
<path d="M1.7440 2.1536
L1.6835 2.0931
" />
<path d="M1.6835 2.0931
L1.6230 1.9721
" />
<path d="M1.6230 1.9721
L1.6230 1.8512
" />
<path d="M1.6230 1.8512
L1.6835 1.7302
" />
<path d="M1.6835 1.7302
L1.7440 1.6697
" />
<path d="M1.7440 1.6697
L1.8649 1.6093
" />
<path d="M1.8649 1.6093
L2.1673 1.6093
" />
<path d="M2.1673 1.6093
L2.3487 1.6697
" />
<path d="M2.8930 1.6093
L2.8930 2.6374
" />
<path d="M2.8930 2.6374
L2.9535 2.7583
" />
<path d="M2.9535 2.7583
L3.0140 2.8188
" />
<path d="M3.0140 2.8188
L3.1349 2.8793
" />
<path d="M3.1349 2.8793
L3.3768 2.8793
" />
<path d="M3.3768 2.8793
L3.4978 2.8188
" />
<path d="M3.4978 2.8188
L3.5583 2.7583
" />
<path d="M3.5583 2.7583
L3.6187 2.6374
" />
<path d="M3.6187 2.6374
L3.6187 1.6093
" />
<path d="M4.6468 2.2140
L4.8283 2.2745
" />
<path d="M4.8283 2.2745
L4.8887 2.3350
" />
<path d="M4.8887 2.3350
L4.9492 2.4559
" />
<path d="M4.9492 2.4559
L4.9492 2.6374
" />
<path d="M4.9492 2.6374
L4.8887 2.7583
" />
<path d="M4.8887 2.7583
L4.8283 2.8188
" />
<path d="M4.8283 2.8188
L4.7073 2.8793
" />
<path d="M4.7073 2.8793
L4.2235 2.8793
" />
<path d="M4.2235 2.8793
L4.2235 1.6093
" />
<path d="M4.2235 1.6093
L4.6468 1.6093
" />
<path d="M4.6468 1.6093
L4.7678 1.6697
" />
<path d="M4.7678 1.6697
L4.8283 1.7302
" />
<path d="M4.8283 1.7302
L4.8887 1.8512
" />
<path d="M4.8887 1.8512
L4.8887 1.9721
" />
<path d="M4.8887 1.9721
L4.8283 2.0931
" />
<path d="M4.8283 2.0931
L4.7678 2.1536
" />
<path d="M4.7678 2.1536
L4.6468 2.2140
" />
<path d="M4.6468 2.2140
L4.2235 2.2140
" />
<path d="M5.4935 2.3955
L6.4611 2.3955
" />
<path d="M7.1264 2.8793
L7.3683 2.8793
" />
<path d="M7.3683 2.8793
L7.4892 2.8188
" />
<path d="M7.4892 2.8188
L7.5497 2.7583
" />
<path d="M7.5497 2.7583
L7.6706 2.5769
" />
<path d="M7.6706 2.5769
L7.7311 2.3350
" />
<path d="M7.7311 2.3350
L7.7311 1.8512
" />
<path d="M7.7311 1.8512
L7.6706 1.7302
" />
<path d="M7.6706 1.7302
L7.6102 1.6697
" />
<path d="M7.6102 1.6697
L7.4892 1.6093
" />
<path d="M7.4892 1.6093
L7.2473 1.6093
" />
<path d="M7.2473 1.6093
L7.1264 1.6697
" />
<path d="M7.1264 1.6697
L7.0659 1.7302
" />
<path d="M7.0659 1.7302
L7.0054 1.8512
" />
<path d="M7.0054 1.8512
L7.0054 2.1536
" />
<path d="M7.0054 2.1536
L7.0659 2.2745
" />
<path d="M7.0659 2.2745
L7.1264 2.3350
" />
<path d="M7.1264 2.3350
L7.2473 2.3955
" />
<path d="M7.2473 2.3955
L7.4892 2.3955
" />
<path d="M7.4892 2.3955
L7.6102 2.3350
" />
<path d="M7.6102 2.3350
L7.6706 2.2745
" />
<path d="M7.6706 2.2745
L7.7311 2.1536
" />
<path d="M7.9730 3.0002
L8.9406 3.0002
" />
<path d="M9.2430 2.8793
L9.2430 1.6093
" />
<path d="M9.2430 1.6093
L9.6664 2.5164
" />
<path d="M9.6664 2.5164
L10.0897 1.6093
" />
<path d="M10.0897 1.6093
L10.0897 2.8793
" />
<path d="M11.2387 2.8793
L11.2387 2.2140
" />
<path d="M11.2387 2.2140
L11.1783 2.0931
" />
<path d="M11.1783 2.0931
L11.0573 2.0326
" />
<path d="M11.0573 2.0326
L10.8154 2.0326
" />
<path d="M10.8154 2.0326
L10.6945 2.0931
" />
<path d="M11.2387 2.8188
L11.1178 2.8793
" />
<path d="M11.1178 2.8793
L10.8154 2.8793
" />
<path d="M10.8154 2.8793
L10.6945 2.8188
" />
<path d="M10.6945 2.8188
L10.6340 2.6978
" />
<path d="M10.6340 2.6978
L10.6340 2.5769
" />
<path d="M10.6340 2.5769
L10.6945 2.4559
" />
<path d="M10.6945 2.4559
L10.8154 2.3955
" />
<path d="M10.8154 2.3955
L11.1178 2.3955
" />
<path d="M11.1178 2.3955
L11.2387 2.3350
" />
<path d="M12.0249 2.8793
L11.9040 2.8188
" />
<path d="M11.9040 2.8188
L11.8435 2.6978
" />
<path d="M11.8435 2.6978
L11.8435 1.6093
" />
<path d="M12.9926 2.8188
L12.8716 2.8793
" />
<path d="M12.8716 2.8793
L12.6297 2.8793
" />
<path d="M12.6297 2.8793
L12.5087 2.8188
" />
<path d="M12.5087 2.8188
L12.4483 2.6978
" />
<path d="M12.4483 2.6978
L12.4483 2.2140
" />
<path d="M12.4483 2.2140
L12.5087 2.0931
" />
<path d="M12.5087 2.0931
L12.6297 2.0326
" />
<path d="M12.6297 2.0326
L12.8716 2.0326
" />
<path d="M12.8716 2.0326
L12.9926 2.0931
" />
<path d="M12.9926 2.0931
L13.0530 2.2140
" />
<path d="M13.0530 2.2140
L13.0530 2.3350
" />
<path d="M13.0530 2.3350
L12.4483 2.4559
" />
<path d="M13.2949 3.0002
L14.2626 3.0002
" />
<path d="M14.5649 2.2140
L14.9883 2.2140
" />
<path d="M15.1697 2.8793
L14.5649 2.8793
" />
<path d="M14.5649 2.8793
L14.5649 1.6093
" />
<path d="M14.5649 1.6093
L15.1697 1.6093
" />
<path d="M16.2583 2.8793
L16.2583 1.6093
" />
<path d="M16.2583 2.8188
L16.1373 2.8793
" />
<path d="M16.1373 2.8793
L15.8954 2.8793
" />
<path d="M15.8954 2.8793
L15.7745 2.8188
" />
<path d="M15.7745 2.8188
L15.7140 2.7583
" />
<path d="M15.7140 2.7583
L15.6535 2.6374
" />
<path d="M15.6535 2.6374
L15.6535 2.2745
" />
<path d="M15.6535 2.2745
L15.7140 2.1536
" />
<path d="M15.7140 2.1536
L15.7745 2.0931
" />
<path d="M15.7745 2.0931
L15.8954 2.0326
" />
<path d="M15.8954 2.0326
L16.1373 2.0326
" />
<path d="M16.1373 2.0326
L16.2583 2.0931
" />
<path d="M17.4073 2.0326
L17.4073 3.0607
" />
<path d="M17.4073 3.0607
L17.3468 3.1817
" />
<path d="M17.3468 3.1817
L17.2864 3.2421
" />
<path d="M17.2864 3.2421
L17.1654 3.3026
" />
<path d="M17.1654 3.3026
L16.9840 3.3026
" />
<path d="M16.9840 3.3026
L16.8630 3.2421
" />
<path d="M17.4073 2.8188
L17.2864 2.8793
" />
<path d="M17.2864 2.8793
L17.0445 2.8793
" />
<path d="M17.0445 2.8793
L16.9235 2.8188
" />
<path d="M16.9235 2.8188
L16.8630 2.7583
" />
<path d="M16.8630 2.7583
L16.8026 2.6374
" />
<path d="M16.8026 2.6374
L16.8026 2.2745
" />
<path d="M16.8026 2.2745
L16.8630 2.1536
" />
<path d="M16.8630 2.1536
L16.9235 2.0931
" />
<path d="M16.9235 2.0931
L17.0445 2.0326
" />
<path d="M17.0445 2.0326
L17.2864 2.0326
" />
<path d="M17.2864 2.0326
L17.4073 2.0931
" />
<path d="M18.4959 2.8188
L18.3749 2.8793
" />
<path d="M18.3749 2.8793
L18.1330 2.8793
" />
<path d="M18.1330 2.8793
L18.0121 2.8188
" />
<path d="M18.0121 2.8188
L17.9516 2.6978
" />
<path d="M17.9516 2.6978
L17.9516 2.2140
" />
<path d="M17.9516 2.2140
L18.0121 2.0931
" />
<path d="M18.0121 2.0931
L18.1330 2.0326
" />
<path d="M18.1330 2.0326
L18.3749 2.0326
" />
<path d="M18.3749 2.0326
L18.4959 2.0931
" />
<path d="M18.4959 2.0931
L18.5564 2.2140
" />
<path d="M18.5564 2.2140
L18.5564 2.3350
" />
<path d="M18.5564 2.3350
L17.9516 2.4559
" />
<path d="M19.1006 2.8793
L19.1006 1.6093
" />
<path d="M19.1006 1.6093
L19.5240 2.5164
" />
<path d="M19.5240 2.5164
L19.9473 1.6093
" />
<path d="M19.9473 1.6093
L19.9473 2.8793
" />
<path d="M20.7335 2.8793
L20.6126 2.8188
" />
<path d="M20.6126 2.8188
L20.5521 2.7583
" />
<path d="M20.5521 2.7583
L20.4916 2.6374
" />
<path d="M20.4916 2.6374
L20.4916 2.2745
" />
<path d="M20.4916 2.2745
L20.5521 2.1536
" />
<path d="M20.5521 2.1536
L20.6126 2.0931
" />
<path d="M20.6126 2.0931
L20.7335 2.0326
" />
<path d="M20.7335 2.0326
L20.9149 2.0326
" />
<path d="M20.9149 2.0326
L21.0359 2.0931
" />
<path d="M21.0359 2.0931
L21.0964 2.1536
" />
<path d="M21.0964 2.1536
L21.1568 2.2745
" />
<path d="M21.1568 2.2745
L21.1568 2.6374
" />
<path d="M21.1568 2.6374
L21.0964 2.7583
" />
<path d="M21.0964 2.7583
L21.0359 2.8188
" />
<path d="M21.0359 2.8188
L20.9149 2.8793
" />
<path d="M20.9149 2.8793
L20.7335 2.8793
" />
<path d="M22.2454 2.0326
L22.2454 2.8793
" />
<path d="M21.7011 2.0326
L21.7011 2.6978
" />
<path d="M21.7011 2.6978
L21.7616 2.8188
" />
<path d="M21.7616 2.8188
L21.8826 2.8793
" />
<path d="M21.8826 2.8793
L22.0640 2.8793
" />
<path d="M22.0640 2.8793
L22.1849 2.8188
" />
<path d="M22.1849 2.8188
L22.2454 2.7583
" />
<path d="M22.8502 2.0326
L22.8502 2.8793
" />
<path d="M22.8502 2.1536
L22.9107 2.0931
" />
<path d="M22.9107 2.0931
L23.0316 2.0326
" />
<path d="M23.0316 2.0326
L23.2130 2.0326
" />
<path d="M23.2130 2.0326
L23.3340 2.0931
" />
<path d="M23.3340 2.0931
L23.3945 2.2140
" />
<path d="M23.3945 2.2140
L23.3945 2.8793
" />
<path d="M23.8178 2.0326
L24.3016 2.0326
" />
<path d="M23.9992 1.6093
L23.9992 2.6978
" />
<path d="M23.9992 2.6978
L24.0597 2.8188
" />
<path d="M24.0597 2.8188
L24.1807 2.8793
" />
<path d="M24.1807 2.8793
L24.3016 2.8793
" />
<path d="M24.4226 3.0002
L25.3902 3.0002
" />
<path d="M25.6926 2.8793
L25.6926 1.6093
" />
<path d="M25.6926 1.6093
L26.1764 1.6093
" />
<path d="M26.1764 1.6093
L26.2973 1.6697
" />
<path d="M26.2973 1.6697
L26.3578 1.7302
" />
<path d="M26.3578 1.7302
L26.4183 1.8512
" />
<path d="M26.4183 1.8512
L26.4183 2.0326
" />
<path d="M26.4183 2.0326
L26.3578 2.1536
" />
<path d="M26.3578 2.1536
L26.2973 2.2140
" />
<path d="M26.2973 2.2140
L26.1764 2.2745
" />
<path d="M26.1764 2.2745
L25.6926 2.2745
" />
<path d="M26.9021 1.7302
L26.9626 1.6697
" />
<path d="M26.9626 1.6697
L27.0835 1.6093
" />
<path d="M27.0835 1.6093
L27.3859 1.6093
" />
<path d="M27.3859 1.6093
L27.5068 1.6697
" />
<path d="M27.5068 1.6697
L27.5673 1.7302
" />
<path d="M27.5673 1.7302
L27.6278 1.8512
" />
<path d="M27.6278 1.8512
L27.6278 1.9721
" />
<path d="M27.6278 1.9721
L27.5673 2.1536
" />
<path d="M27.5673 2.1536
L26.8416 2.8793
" />
<path d="M26.8416 2.8793
L27.6278 2.8793
" />
<path d="M28.1721 2.7583
L28.2326 2.8188
" />
<path d="M28.2326 2.8188
L28.1721 2.8793
" />
<path d="M28.1721 2.8793
L28.1116 2.8188
" />
<path d="M28.1116 2.8188
L28.1721 2.7583
" />
<path d="M28.1721 2.7583
L28.1721 2.8793
" />
<path d="M28.6559 1.6093
L29.5026 1.6093
" />
<path d="M29.5026 1.6093
L28.9583 2.8793
" />
<path d="M29.8654 1.6093
L30.7121 1.6093
" />
<path d="M30.7121 1.6093
L30.1678 2.8793
" />
<path d="M31.1959 2.8793
L31.1959 2.0326
" />
<path d="M31.1959 2.1536
L31.2564 2.0931
" />
<path d="M31.2564 2.0931
L31.3773 2.0326
" />
<path d="M31.3773 2.0326
L31.5587 2.0326
" />
<path d="M31.5587 2.0326
L31.6797 2.0931
" />
<path d="M31.6797 2.0931
L31.7402 2.2140
" />
<path d="M31.7402 2.2140
L31.7402 2.8793
" />
<path d="M31.7402 2.2140
L31.8007 2.0931
" />
<path d="M31.8007 2.0931
L31.9216 2.0326
" />
<path d="M31.9216 2.0326
L32.1030 2.0326
" />
<path d="M32.1030 2.0326
L32.2240 2.0931
" />
<path d="M32.2240 2.0931
L32.2845 2.2140
" />
<path d="M32.2845 2.2140
L32.2845 2.8793
" />
<path d="M32.8892 2.8793
L32.8892 2.0326
" />
<path d="M32.8892 2.1536
L32.9497 2.0931
" />
<path d="M32.9497 2.0931
L33.0707 2.0326
" />
<path d="M33.0707 2.0326
L33.2521 2.0326
" />
<path d="M33.2521 2.0326
L33.3730 2.0931
" />
<path d="M33.3730 2.0931
L33.4335 2.2140
" />
<path d="M33.4335 2.2140
L33.4335 2.8793
" />
<path d="M33.4335 2.2140
L33.4940 2.0931
" />
<path d="M33.4940 2.0931
L33.6149 2.0326
" />
<path d="M33.6149 2.0326
L33.7964 2.0326
" />
<path d="M33.7964 2.0326
L33.9173 2.0931
" />
<path d="M33.9173 2.0931
L33.9778 2.2140
" />
<path d="M33.9778 2.2140
L33.9778 2.8793
" />
</g></g>
<g style="fill:none; 
stroke:#AFAFAF; stroke-width:0.1500; stroke-opacity:1; 
stroke-linecap:round; stroke-linejoin:round;">
<text x="17.1957" y="6.1900"
textLength="4.5357" font-size="1.3333" lengthAdjust="spacingAndGlyphs"
text-anchor="middle" opacity="0">REF**</text>
<g class="stroked-text"><desc>REF**</desc>
<path d="M15.8623 6.1448
L15.5290 5.6686
" />
<path d="M15.2909 6.1448
L15.2909 5.1448
" />
<path d="M15.2909 5.1448
L15.6718 5.1448
" />
<path d="M15.6718 5.1448
L15.7671 5.1924
" />
<path d="M15.7671 5.1924
L15.8147 5.2401
" />
<path d="M15.8147 5.2401
L15.8623 5.3353
" />
<path d="M15.8623 5.3353
L15.8623 5.4782
" />
<path d="M15.8623 5.4782
L15.8147 5.5734
" />
<path d="M15.8147 5.5734
L15.7671 5.6210
" />
<path d="M15.7671 5.6210
L15.6718 5.6686
" />
<path d="M15.6718 5.6686
L15.2909 5.6686
" />
<path d="M16.2909 5.6210
L16.6242 5.6210
" />
<path d="M16.7671 6.1448
L16.2909 6.1448
" />
<path d="M16.2909 6.1448
L16.2909 5.1448
" />
<path d="M16.2909 5.1448
L16.7671 5.1448
" />
<path d="M17.5290 5.6210
L17.1957 5.6210
" />
<path d="M17.1957 6.1448
L17.1957 5.1448
" />
<path d="M17.1957 5.1448
L17.6718 5.1448
" />
<path d="M18.1957 5.1448
L18.1957 5.3829
" />
<path d="M17.9576 5.2877
L18.1957 5.3829
" />
<path d="M18.1957 5.3829
L18.4337 5.2877
" />
<path d="M18.0528 5.5734
L18.1957 5.3829
" />
<path d="M18.1957 5.3829
L18.3385 5.5734
" />
<path d="M18.9576 5.1448
L18.9576 5.3829
" />
<path d="M18.7195 5.2877
L18.9576 5.3829
" />
<path d="M18.9576 5.3829
L19.1957 5.2877
" />
<path d="M18.8147 5.5734
L18.9576 5.3829
" />
<path d="M18.9576 5.3829
L19.1004 5.5734
" />
</g></g>
<g style="fill:none; 
stroke:#AFAFAF; stroke-width:0.1000; stroke-opacity:1; 
stroke-linecap:round; stroke-linejoin:round;">
<path d="M1.7706 11.5900
L1.7706 11.9900
" />
<path d="M1.7706 11.9900
L32.6206 11.9900
" />
<path d="M8.6456 7.0900
L8.6456 11.5900
" />
<path d="M8.6456 11.5900
L25.7456 11.5900
" />
<path d="M9.0457 11.9900
L9.0457 17.9900
" />
<path d="M9.0457 17.9900
L25.3456 17.9900
" />
<path d="M9.6456 4.2900
L9.6456 7.0900
" />
<path d="M9.6456 7.0900
L24.7456 7.0900
" />
<path d="M11.0556 1.3900
L11.0556 4.2900
" />
<path d="M11.0556 4.2900
L12.2556 4.2900
" />
<path d="M12.2556 1.3900
L11.0556 1.3900
" />
<path d="M12.2556 4.2900
L12.2556 1.3900
" />
<path d="M13.8256 1.3900
L13.8256 4.2900
" />
<path d="M13.8256 4.2900
L15.0256 4.2900
" />
<path d="M15.0256 1.3900
L13.8256 1.3900
" />
<path d="M15.0256 4.2900
L15.0256 1.3900
" />
<path d="M16.5956 1.3900
L16.5956 4.2900
" />
<path d="M16.5956 4.2900
L17.7956 4.2900
" />
<path d="M17.7956 1.3900
L16.5956 1.3900
" />
<path d="M17.7956 4.2900
L17.7956 1.3900
" />
<path d="M19.3656 1.3900
L19.3656 4.2900
" />
<path d="M19.3656 4.2900
L20.5656 4.2900
" />
<path d="M20.5656 1.3900
L19.3656 1.3900
" />
<path d="M20.5656 4.2900
L20.5656 1.3900
" />
<path d="M22.1356 1.3900
L22.1356 4.2900
" />
<path d="M22.1356 4.2900
L23.3356 4.2900
" />
<path d="M23.3356 1.3900
L22.1356 1.3900
" />
<path d="M23.3356 4.2900
L23.3356 1.3900
" />
<path d="M24.7456 4.2900
L9.6456 4.2900
" />
<path d="M24.7456 7.0900
L24.7456 4.2900
" />
<path d="M25.3456 11.9900
L9.0457 11.9900
" />
<path d="M25.3456 17.9900
L25.3456 11.9900
" />
<path d="M25.7456 7.0900
L8.6456 7.0900
" />
<path d="M25.7456 11.5900
L25.7456 7.0900
" />
<path d="M32.6206 11.5900
L1.7706 11.5900
" />
<path d="M32.6206 11.9900
L32.6206 11.5900
" />
</g>
<g style="fill:none; 
stroke:#C2C2C2; stroke-width:0.0750; stroke-opacity:1; 
stroke-linecap:round; stroke-linejoin:round;">
<text x="6.7706" y="3.8733"
textLength="3.7679" font-size="0.6667" lengthAdjust="spacingAndGlyphs"
text-anchor="middle" opacity="0">PCB edge</text>
<g class="stroked-text"><desc>PCB edge</desc>
<path d="M5.0683 3.8507
L5.0683 3.3507
" />
<path d="M5.0683 3.3507
L5.2587 3.3507
" />
<path d="M5.2587 3.3507
L5.3064 3.3746
" />
<path d="M5.3064 3.3746
L5.3302 3.3984
" />
<path d="M5.3302 3.3984
L5.3540 3.4460
" />
<path d="M5.3540 3.4460
L5.3540 3.5174
" />
<path d="M5.3540 3.5174
L5.3302 3.5650
" />
<path d="M5.3302 3.5650
L5.3064 3.5888
" />
<path d="M5.3064 3.5888
L5.2587 3.6126
" />
<path d="M5.2587 3.6126
L5.0683 3.6126
" />
<path d="M5.8540 3.8031
L5.8302 3.8269
" />
<path d="M5.8302 3.8269
L5.7587 3.8507
" />
<path d="M5.7587 3.8507
L5.7111 3.8507
" />
<path d="M5.7111 3.8507
L5.6397 3.8269
" />
<path d="M5.6397 3.8269
L5.5921 3.7793
" />
<path d="M5.5921 3.7793
L5.5683 3.7317
" />
<path d="M5.5683 3.7317
L5.5445 3.6365
" />
<path d="M5.5445 3.6365
L5.5445 3.5650
" />
<path d="M5.5445 3.5650
L5.5683 3.4698
" />
<path d="M5.5683 3.4698
L5.5921 3.4222
" />
<path d="M5.5921 3.4222
L5.6397 3.3746
" />
<path d="M5.6397 3.3746
L5.7111 3.3507
" />
<path d="M5.7111 3.3507
L5.7587 3.3507
" />
<path d="M5.7587 3.3507
L5.8302 3.3746
" />
<path d="M5.8302 3.3746
L5.8540 3.3984
" />
<path d="M6.2349 3.5888
L6.3064 3.6126
" />
<path d="M6.3064 3.6126
L6.3302 3.6365
" />
<path d="M6.3302 3.6365
L6.3540 3.6841
" />
<path d="M6.3540 3.6841
L6.3540 3.7555
" />
<path d="M6.3540 3.7555
L6.3302 3.8031
" />
<path d="M6.3302 3.8031
L6.3064 3.8269
" />
<path d="M6.3064 3.8269
L6.2587 3.8507
" />
<path d="M6.2587 3.8507
L6.0683 3.8507
" />
<path d="M6.0683 3.8507
L6.0683 3.3507
" />
<path d="M6.0683 3.3507
L6.2349 3.3507
" />
<path d="M6.2349 3.3507
L6.2826 3.3746
" />
<path d="M6.2826 3.3746
L6.3064 3.3984
" />
<path d="M6.3064 3.3984
L6.3302 3.4460
" />
<path d="M6.3302 3.4460
L6.3302 3.4936
" />
<path d="M6.3302 3.4936
L6.3064 3.5412
" />
<path d="M6.3064 3.5412
L6.2826 3.5650
" />
<path d="M6.2826 3.5650
L6.2349 3.5888
" />
<path d="M6.2349 3.5888
L6.0683 3.5888
" />
<path d="M7.1397 3.8269
L7.0921 3.8507
" />
<path d="M7.0921 3.8507
L6.9968 3.8507
" />
<path d="M6.9968 3.8507
L6.9492 3.8269
" />
<path d="M6.9492 3.8269
L6.9254 3.7793
" />
<path d="M6.9254 3.7793
L6.9254 3.5888
" />
<path d="M6.9254 3.5888
L6.9492 3.5412
" />
<path d="M6.9492 3.5412
L6.9968 3.5174
" />
<path d="M6.9968 3.5174
L7.0921 3.5174
" />
<path d="M7.0921 3.5174
L7.1397 3.5412
" />
<path d="M7.1397 3.5412
L7.1635 3.5888
" />
<path d="M7.1635 3.5888
L7.1635 3.6365
" />
<path d="M7.1635 3.6365
L6.9254 3.6841
" />
<path d="M7.5921 3.8507
L7.5921 3.3507
" />
<path d="M7.5921 3.8269
L7.5445 3.8507
" />
<path d="M7.5445 3.8507
L7.4492 3.8507
" />
<path d="M7.4492 3.8507
L7.4016 3.8269
" />
<path d="M7.4016 3.8269
L7.3778 3.8031
" />
<path d="M7.3778 3.8031
L7.3540 3.7555
" />
<path d="M7.3540 3.7555
L7.3540 3.6126
" />
<path d="M7.3540 3.6126
L7.3778 3.5650
" />
<path d="M7.3778 3.5650
L7.4016 3.5412
" />
<path d="M7.4016 3.5412
L7.4492 3.5174
" />
<path d="M7.4492 3.5174
L7.5445 3.5174
" />
<path d="M7.5445 3.5174
L7.5921 3.5412
" />
<path d="M8.0445 3.5174
L8.0445 3.9222
" />
<path d="M8.0445 3.9222
L8.0206 3.9698
" />
<path d="M8.0206 3.9698
L7.9968 3.9936
" />
<path d="M7.9968 3.9936
L7.9492 4.0174
" />
<path d="M7.9492 4.0174
L7.8778 4.0174
" />
<path d="M7.8778 4.0174
L7.8302 3.9936
" />
<path d="M8.0445 3.8269
L7.9968 3.8507
" />
<path d="M7.9968 3.8507
L7.9016 3.8507
" />
<path d="M7.9016 3.8507
L7.8540 3.8269
" />
<path d="M7.8540 3.8269
L7.8302 3.8031
" />
<path d="M7.8302 3.8031
L7.8064 3.7555
" />
<path d="M7.8064 3.7555
L7.8064 3.6126
" />
<path d="M7.8064 3.6126
L7.8302 3.5650
" />
<path d="M7.8302 3.5650
L7.8540 3.5412
" />
<path d="M7.8540 3.5412
L7.9016 3.5174
" />
<path d="M7.9016 3.5174
L7.9968 3.5174
" />
<path d="M7.9968 3.5174
L8.0445 3.5412
" />
<path d="M8.4730 3.8269
L8.4254 3.8507
" />
<path d="M8.4254 3.8507
L8.3302 3.8507
" />
<path d="M8.3302 3.8507
L8.2826 3.8269
" />
<path d="M8.2826 3.8269
L8.2587 3.7793
" />
<path d="M8.2587 3.7793
L8.2587 3.5888
" />
<path d="M8.2587 3.5888
L8.2826 3.5412
" />
<path d="M8.2826 3.5412
L8.3302 3.5174
" />
<path d="M8.3302 3.5174
L8.4254 3.5174
" />
<path d="M8.4254 3.5174
L8.4730 3.5412
" />
<path d="M8.4730 3.5412
L8.4968 3.5888
" />
<path d="M8.4968 3.5888
L8.4968 3.6365
" />
<path d="M8.4968 3.6365
L8.2587 3.6841
" />
</g></g>
<g style="fill:none; 
stroke:#C2C2C2; stroke-width:0.0500; stroke-opacity:1; 
stroke-linecap:round; stroke-linejoin:round;">
<path d="M1.7706 4.2900
L32.6206 4.2900
" />
</g> 
</svg>
